<svg xmlns="http://www.w3.org/2000/svg" width="207" height="207" viewBox="0 0 207 207">
  <path fill="#131313"
    d="M67.5195312,163.236328 C60.4817708,155.30013 55.5403646,145.492188 52.6953125,133.8125 C50.8984375,126.47526 50,118.763672 50,110.677734 C50,105.886068 50.2994792,101.019531 50.8984375,96.078125 C52.2460938,85.5963542 54.7167969,76.0130208 58.3105469,67.328125 C61.7545573,58.4934896 66.2467448,50.9316406 71.7871094,44.6425781 C76.8782552,38.6529948 82.5683594,34.0110677 88.8574219,30.7167969 C95.296224,27.5722656 101.660156,26 107.949219,26 C112.591146,26 118.730469,26.6738281 126.367188,28.0214844 C134.003906,29.5188802 140.891927,33.0377604 147.03125,38.578125 C148.678385,40.0755208 149.501953,41.9472656 149.501953,44.1933594 C149.651693,46.4394531 148.977865,48.3860677 147.480469,50.0332031 C145.983073,51.6803385 144.111328,52.578776 141.865234,52.7285156 C139.619141,52.8782552 137.672526,52.2044271 136.025391,50.7070312 C131.832682,46.8138021 126.816406,44.4179688 120.976562,43.5195312 C115.136719,42.6210938 110.869141,42.171875 108.173828,42.171875 C104.280599,42.171875 100.611979,42.9954427 97.1679688,44.6425781 C93.7239583,46.2897135 90.5045573,48.5358073 87.5097656,51.3808594 C82.1191406,56.7714844 77.6269531,63.6595052 74.0332031,72.0449219 C70.5891927,80.5800781 68.2682292,89.264974 67.0703125,98.0996094 C65.7226562,109.330078 66.0970052,119.662109 68.1933594,129.095703 C70.4394531,138.529297 74.2578125,146.315755 79.6484375,152.455078 C83.2421875,156.498047 87.4348958,159.567708 92.2265625,161.664062 C97.0182292,163.760417 102.184245,164.808594 107.724609,164.808594 C107.724609,164.808594 107.799479,164.808594 107.949219,164.808594 C107.949219,164.808594 107.949219,164.808594 107.949219,164.808594 C112.291667,164.808594 117.832031,164.059896 124.570312,162.5625 C131.458333,161.214844 137.447917,156.423177 142.539062,148.1875 C143.736979,146.240885 145.384115,145.042969 147.480469,144.59375 C149.726562,143.994792 151.822917,144.294271 153.769531,145.492188 C155.716146,146.690104 156.914062,148.412109 157.363281,150.658203 C157.8125,152.904297 157.438151,154.925781 156.240234,156.722656 C153.694661,160.915365 150.924479,164.434245 147.929688,167.279297 C144.785156,170.124349 141.640625,172.445312 138.496094,174.242188 C132.50651,177.536458 126.741536,179.483073 121.201172,180.082031 C115.660807,180.68099 111.318359,180.980469 108.173828,180.980469 C108.024089,180.980469 107.949219,180.980469 107.949219,180.980469 C107.799479,180.980469 107.724609,180.980469 107.724609,180.980469 C99.7884115,180.980469 92.3763021,179.483073 85.4882812,176.488281 C78.6002604,173.49349 72.6106771,169.076172 67.5195312,163.236328 Z M146.111328,22.6582031 C146.111328,22.6582031 146.036458,22.7330729 145.886719,22.8828125 C145.886719,23.0325521 145.811849,23.1074219 145.662109,23.1074219 C145.51237,23.406901 145.36263,23.6315104 145.212891,23.78125 C145.063151,24.0807292 144.988281,24.3053385 144.988281,24.4550781 C138.25,20.561849 131.436849,18.016276 124.548828,16.8183594 C117.660807,15.7701823 112.120443,15.2460938 107.927734,15.2460938 C102.087891,15.2460938 96.2480469,16.3691406 90.4082031,18.6152344 C84.5683594,20.8613281 79.1028646,24.0807292 74.0117188,28.2734375 C73.5625,27.9739583 73.0384115,27.4498698 72.4394531,26.7011719 C77.8300781,22.2089844 83.5201823,18.764974 89.5097656,16.3691406 C95.6490885,14.1230469 101.788411,13 107.927734,13 C112.270182,13 118.035156,13.5240885 125.222656,14.5722656 C132.260417,15.7701823 139.223307,18.4654948 146.111328,22.6582031 Z M74.0117188,28.2734375 C74.3111979,28.5729167 74.7604167,29.0970052 75.359375,29.8457031 C72.9635417,31.1933594 69.2200521,33.2897135 64.1289062,36.1347656 C65.6263021,33.7389323 67.8723958,30.0703125 70.8671875,25.1289062 C71.1666667,25.4283854 71.6907552,25.952474 72.4394531,26.7011719 C73.266039,27.4887824 73.266039,27.4887824 74.0117188,28.2734375 Z M160.486328,33.4394531 L160.642307,33.5954319 C160.663104,33.616229 160.685981,33.6391059 160.710938,33.6640625 C160.710938,33.6640625 160.785807,33.7389323 160.935547,33.8886719 L160.935547,51.4082031 L160.779568,51.5641819 C160.758771,51.584979 160.735894,51.6078559 160.710938,51.6328125 L160.642307,51.7014431 L160.486328,51.8574219 L159.587891,51.8574219 L159.531738,51.8012695 C159.494303,51.7638346 159.438151,51.7076823 159.363281,51.6328125 C159.213542,51.6328125 159.138672,51.5579427 159.138672,51.4082031 L159.138672,36.5839844 L158.914062,36.8085938 L158.533474,37.1891819 C158.512677,37.209979 158.4898,37.2328559 158.464844,37.2578125 C158.315104,37.4075521 158.165365,37.4824219 158.015625,37.4824219 C158.015625,37.6321615 157.940755,37.7070312 157.791016,37.7070312 C157.641276,37.7070312 157.491536,37.6321615 157.341797,37.4824219 C157.192057,37.4824219 157.117188,37.4075521 157.117188,37.2578125 C156.967448,37.2578125 156.892578,37.1829427 156.892578,37.0332031 C156.742839,36.8834635 156.667969,36.733724 156.667969,36.5839844 L156.892578,36.359375 C156.892578,36.2096354 156.967448,36.0598958 157.117188,35.9101562 C157.167101,35.8602431 157.233652,35.7936921 157.31684,35.7105035 L157.505401,35.5219425 C157.610774,35.4165702 157.732784,35.2945602 157.871431,35.1559124 L158.015625,35.0117188 C158.464844,34.5625 158.914062,34.1132812 159.363281,33.6640625 C159.438151,33.5891927 159.494303,33.5330404 159.531738,33.4956055 L159.587891,33.4394531 L160.486328,33.4394531 Z M149,21 C151.761424,21 154,23.2385763 154,26 C154,28.7614237 151.761424,31 149,31 C146.238576,31 144,28.7614237 144,26 C144,23.2385763 146.238576,21 149,21 Z M149,22 C146.790861,22 145,23.790861 145,26 C145,28.209139 146.790861,30 149,30 C151.209139,30 153,28.209139 153,26 C153,23.790861 151.209139,22 149,22 Z" />
</svg>