<svg xmlns="http://www.w3.org/2000/svg" width="207" height="207" viewBox="0 0 207 207"><path fill="#131313" d="M152.240234,164.808594 C154.486328,164.808594 156.432943,165.557292 158.080078,167.054688 C159.577474,168.701823 160.326172,170.648438 160.326172,172.894531 C160.326172,175.140625 159.577474,177.08724 158.080078,178.734375 C156.432943,180.231771 154.486328,180.980469 152.240234,180.980469 C136.367839,180.980469 112.484375,180.980469 80.5898438,180.980469 C78.34375,180.980469 76.3971354,180.231771 74.75,178.734375 C73.1028646,177.08724 72.2792969,175.140625 72.2792969,172.894531 C72.2792969,142.048177 72.2792969,95.7786458 72.2792969,34.0859375 C72.2792969,31.8398438 73.1028646,29.8932292 74.75,28.2460938 C76.3971354,26.7486979 78.34375,26 80.5898438,26 C96.0130208,26 119.222656,26 150.21875,26 C152.464844,26 154.336589,26.7486979 155.833984,28.2460938 C157.48112,29.8932292 158.304688,31.8398438 158.304688,34.0859375 C158.304688,36.3320312 157.48112,38.203776 155.833984,39.7011719 C154.336589,41.3483073 152.464844,42.171875 150.21875,42.171875 C136.442708,42.171875 115.928385,42.171875 88.6757812,42.171875 C88.6757812,54.0013021 88.6757812,71.7454427 88.6757812,95.4042969 C101.703125,95.4042969 121.169271,95.4042969 147.074219,95.4042969 C149.320312,95.4042969 151.266927,96.1529948 152.914062,97.6503906 C154.561198,99.297526 155.384766,101.244141 155.384766,103.490234 C155.384766,105.736328 154.561198,107.682943 152.914062,109.330078 C151.266927,110.827474 149.320312,111.576172 147.074219,111.576172 C134.196615,111.576172 114.730469,111.576172 88.6757812,111.576172 C88.6757812,123.405599 88.6757812,141.14974 88.6757812,164.808594 C99.3072917,164.808594 109.938802,164.808594 120.570312,164.808594 C131.052083,164.808594 141.608724,164.808594 152.240234,164.808594 Z M107.09375,121.458984 C107.09375,121.608724 107.09375,121.758464 107.09375,121.908203 C107.09375,122.057943 107.01888,122.282552 106.869141,122.582031 C112.858724,122.582031 121.768229,122.582031 133.597656,122.582031 C133.597656,121.983073 133.597656,121.159505 133.597656,120.111328 C127.608073,120.111328 118.698568,120.111328 106.869141,120.111328 C107.01888,120.410807 107.09375,120.635417 107.09375,120.785156 C107.09375,120.934896 107.09375,121.159505 107.09375,121.458984 Z M133.597656,124.828125 C133.597656,124.229167 133.597656,123.480469 133.597656,122.582031 C134.046875,122.582031 134.795573,122.582031 135.84375,122.582031 C135.84375,121.983073 135.84375,121.159505 135.84375,120.111328 C135.244792,120.111328 134.496094,120.111328 133.597656,120.111328 C133.597656,119.662109 133.597656,118.988281 133.597656,118.089844 C136.292969,118.838542 140.410807,119.961589 145.951172,121.458984 C143.255859,122.207682 139.138021,123.330729 133.597656,124.828125 Z M133.597656,120.111328 C134.046875,120.111328 134.795573,120.111328 135.84375,120.111328 C135.84375,120.710286 135.84375,121.533854 135.84375,122.582031 C135.244792,122.582031 134.496094,122.582031 133.597656,122.582031 C133.597656,121.983073 133.597656,121.159505 133.597656,120.111328 Z M102.152344,125.726562 C103.200521,125.726562 104.098958,125.427083 104.847656,124.828125 C105.596354,124.229167 106.120443,123.480469 106.419922,122.582031 C106.419922,122.582031 106.569661,122.582031 106.869141,122.582031 C106.719401,123.630208 106.195312,124.528646 105.296875,125.277344 C104.398438,125.876302 103.35026,126.175781 102.152344,126.175781 C100.804688,126.175781 99.6816406,125.726562 98.7832031,124.828125 C97.735026,123.929688 97.2109375,122.806641 97.2109375,121.458984 C97.2109375,120.111328 97.735026,118.913411 98.7832031,117.865234 C99.6816406,116.966797 100.804688,116.517578 102.152344,116.517578 C103.35026,116.517578 104.398438,116.891927 105.296875,117.640625 C106.045573,118.239583 106.569661,119.063151 106.869141,120.111328 C106.719401,120.111328 106.569661,120.111328 106.419922,120.111328 C106.120443,119.212891 105.596354,118.464193 104.847656,117.865234 C104.098958,117.266276 103.200521,116.966797 102.152344,116.966797 C100.954427,116.966797 99.9811198,117.416016 99.2324219,118.314453 C98.3339844,119.212891 97.8847656,120.261068 97.8847656,121.458984 C97.8847656,122.656901 98.3339844,123.630208 99.2324219,124.378906 C99.9811198,125.277344 100.954427,125.726562 102.152344,125.726562 Z M106.419922,120.111328 C106.419922,120.410807 106.419922,120.635417 106.419922,120.785156 C106.419922,120.934896 106.419922,121.159505 106.419922,121.458984 C106.419922,121.608724 106.419922,121.758464 106.419922,121.908203 C106.419922,122.057943 106.419922,122.282552 106.419922,122.582031 C106.419922,122.582031 106.569661,122.582031 106.869141,122.582031 C107.01888,122.282552 107.09375,122.057943 107.09375,121.908203 C107.09375,121.758464 107.09375,121.608724 107.09375,121.458984 C107.09375,121.159505 107.09375,120.934896 107.09375,120.785156 C107.09375,120.635417 107.01888,120.410807 106.869141,120.111328 C106.869141,120.111328 106.794271,120.111328 106.644531,120.111328 C106.494792,120.111328 106.419922,120.111328 106.419922,120.111328 Z M102.152344,116.966797 C103.200521,116.966797 104.098958,117.266276 104.847656,117.865234 C105.596354,118.464193 106.120443,119.212891 106.419922,120.111328 C106.270182,120.111328 106.045573,120.111328 105.746094,120.111328 C105.446615,119.36263 104.997396,118.763672 104.398438,118.314453 C103.799479,117.865234 103.050781,117.640625 102.152344,117.640625 C101.104167,117.640625 100.205729,118.014974 99.4570312,118.763672 C98.7083333,119.51237 98.3339844,120.410807 98.3339844,121.458984 C98.3339844,122.507161 98.7083333,123.330729 99.4570312,123.929688 C100.205729,124.678385 101.104167,125.052734 102.152344,125.052734 C102.002604,125.052734 101.852865,125.052734 101.703125,125.052734 C101.553385,125.052734 101.478516,125.052734 101.478516,125.052734 C101.478516,125.052734 101.553385,125.052734 101.703125,125.052734 C101.852865,125.052734 102.002604,125.052734 102.152344,125.052734 C102.302083,125.052734 102.451823,125.052734 102.601562,125.052734 C102.751302,125.052734 102.826172,125.052734 102.826172,125.052734 C102.826172,125.052734 102.751302,125.052734 102.601562,125.052734 C102.451823,125.052734 102.302083,125.052734 102.152344,125.052734 C103.050781,125.052734 103.799479,124.828125 104.398438,124.378906 C104.997396,123.929688 105.446615,123.330729 105.746094,122.582031 C105.895833,122.582031 106.120443,122.582031 106.419922,122.582031 C106.120443,123.480469 105.596354,124.229167 104.847656,124.828125 C104.098958,125.427083 103.200521,125.726562 102.152344,125.726562 C100.954427,125.726562 99.9811198,125.277344 99.2324219,124.378906 C98.3339844,123.630208 97.8847656,122.656901 97.8847656,121.458984 C97.8847656,120.261068 98.3339844,119.212891 99.2324219,118.314453 C99.9811198,117.416016 100.954427,116.966797 102.152344,116.966797 Z M105.746094,122.582031 C105.895833,122.582031 106.120443,122.582031 106.419922,122.582031 C106.419922,122.282552 106.419922,122.057943 106.419922,121.908203 C106.419922,121.758464 106.419922,121.608724 106.419922,121.458984 C106.419922,121.159505 106.419922,120.934896 106.419922,120.785156 C106.419922,120.635417 106.419922,120.410807 106.419922,120.111328 C106.270182,120.111328 106.045573,120.111328 105.746094,120.111328 C105.746094,120.410807 105.820964,120.635417 105.970703,120.785156 C105.970703,120.934896 105.970703,121.159505 105.970703,121.458984 C105.970703,121.608724 105.970703,121.758464 105.970703,121.908203 C105.820964,122.057943 105.746094,122.282552 105.746094,122.582031 Z M107.09375,52.0546875 C107.09375,52.2044271 107.09375,52.3541667 107.09375,52.5039062 C107.09375,52.6536458 107.01888,52.8782552 106.869141,53.1777344 C113.457682,53.1777344 123.340495,53.1777344 136.517578,53.1777344 C136.517578,52.578776 136.517578,51.7552083 136.517578,50.7070312 C129.929036,50.7070312 120.046224,50.7070312 106.869141,50.7070312 C107.01888,51.0065104 107.09375,51.2311198 107.09375,51.3808594 C107.09375,51.530599 107.09375,51.7552083 107.09375,52.0546875 Z M136.517578,50.7070312 C136.517578,50.2578125 136.517578,49.5839844 136.517578,48.6855469 C139.212891,49.4342448 143.330729,50.5572917 148.871094,52.0546875 C146.175781,52.8033854 142.057943,53.8515625 136.517578,55.1992188 C136.517578,54.75 136.517578,54.0761719 136.517578,53.1777344 C136.966797,53.1777344 137.715495,53.1777344 138.763672,53.1777344 C138.763672,52.578776 138.763672,51.7552083 138.763672,50.7070312 C138.314453,50.7070312 137.565755,50.7070312 136.517578,50.7070312 Z M136.517578,50.7070312 C136.966797,50.7070312 137.715495,50.7070312 138.763672,50.7070312 C138.763672,51.3059896 138.763672,52.1295573 138.763672,53.1777344 C138.314453,53.1777344 137.565755,53.1777344 136.517578,53.1777344 C136.517578,52.578776 136.517578,51.7552083 136.517578,50.7070312 Z M102.152344,56.3222656 C103.200521,56.3222656 104.098958,56.0227865 104.847656,55.4238281 C105.596354,54.8248698 106.120443,54.0761719 106.419922,53.1777344 C106.419922,53.1777344 106.569661,53.1777344 106.869141,53.1777344 C106.719401,54.2259115 106.195312,55.124349 105.296875,55.8730469 C104.398438,56.4720052 103.35026,56.7714844 102.152344,56.7714844 C100.804688,56.7714844 99.6816406,56.3222656 98.7832031,55.4238281 C97.735026,54.5253906 97.2109375,53.4023438 97.2109375,52.0546875 C97.2109375,50.7070312 97.735026,49.5091146 98.7832031,48.4609375 C99.6816406,47.5625 100.804688,47.1132812 102.152344,47.1132812 C103.35026,47.1132812 104.398438,47.4876302 105.296875,48.2363281 C106.045573,48.8352865 106.569661,49.6588542 106.869141,50.7070312 C106.719401,50.7070312 106.569661,50.7070312 106.419922,50.7070312 C106.120443,49.8085938 105.596354,49.0598958 104.847656,48.4609375 C104.098958,47.8619792 103.200521,47.5625 102.152344,47.5625 C100.954427,47.5625 99.9811198,48.0117188 99.2324219,48.9101562 C98.3339844,49.8085938 97.8847656,50.8567708 97.8847656,52.0546875 C97.8847656,53.2526042 98.3339844,54.2259115 99.2324219,54.9746094 C99.9811198,55.8730469 100.954427,56.3222656 102.152344,56.3222656 Z M106.419922,50.7070312 C106.419922,51.0065104 106.419922,51.2311198 106.419922,51.3808594 C106.419922,51.530599 106.419922,51.7552083 106.419922,52.0546875 C106.419922,52.2044271 106.419922,52.3541667 106.419922,52.5039062 C106.419922,52.6536458 106.419922,52.8782552 106.419922,53.1777344 C106.419922,53.1777344 106.569661,53.1777344 106.869141,53.1777344 C107.01888,52.8782552 107.09375,52.6536458 107.09375,52.5039062 C107.09375,52.3541667 107.09375,52.2044271 107.09375,52.0546875 C107.09375,51.7552083 107.09375,51.530599 107.09375,51.3808594 C107.09375,51.2311198 107.01888,51.0065104 106.869141,50.7070312 C106.869141,50.7070312 106.794271,50.7070312 106.644531,50.7070312 C106.494792,50.7070312 106.419922,50.7070312 106.419922,50.7070312 Z M102.152344,47.5625 C103.200521,47.5625 104.098958,47.8619792 104.847656,48.4609375 C105.596354,49.0598958 106.120443,49.8085938 106.419922,50.7070312 C106.270182,50.7070312 106.045573,50.7070312 105.746094,50.7070312 C105.446615,49.9583333 104.997396,49.359375 104.398438,48.9101562 C103.799479,48.4609375 103.050781,48.2363281 102.152344,48.2363281 C101.104167,48.2363281 100.205729,48.6106771 99.4570312,49.359375 C98.7083333,50.1080729 98.3339844,51.0065104 98.3339844,52.0546875 C98.3339844,52.953125 98.7083333,53.7766927 99.4570312,54.5253906 C100.205729,55.2740885 101.104167,55.6484375 102.152344,55.6484375 C102.002604,55.6484375 101.852865,55.6484375 101.703125,55.6484375 C101.553385,55.6484375 101.478516,55.6484375 101.478516,55.6484375 C101.478516,55.6484375 101.553385,55.6484375 101.703125,55.6484375 C101.852865,55.6484375 102.002604,55.6484375 102.152344,55.6484375 C102.302083,55.6484375 102.451823,55.6484375 102.601562,55.6484375 C102.751302,55.6484375 102.826172,55.6484375 102.826172,55.6484375 C102.826172,55.6484375 102.751302,55.6484375 102.601562,55.6484375 C102.451823,55.6484375 102.302083,55.6484375 102.152344,55.6484375 C103.050781,55.6484375 103.799479,55.4238281 104.398438,54.9746094 C104.997396,54.5253906 105.446615,53.9264323 105.746094,53.1777344 C105.895833,53.1777344 106.120443,53.1777344 106.419922,53.1777344 C106.120443,54.0761719 105.596354,54.8248698 104.847656,55.4238281 C104.098958,56.0227865 103.200521,56.3222656 102.152344,56.3222656 C100.954427,56.3222656 99.9811198,55.8730469 99.2324219,54.9746094 C98.3339844,54.2259115 97.8847656,53.2526042 97.8847656,52.0546875 C97.8847656,50.8567708 98.3339844,49.8085938 99.2324219,48.9101562 C99.9811198,48.0117188 100.954427,47.5625 102.152344,47.5625 Z M105.746094,53.1777344 C105.895833,53.1777344 106.120443,53.1777344 106.419922,53.1777344 C106.419922,52.8782552 106.419922,52.6536458 106.419922,52.5039062 C106.419922,52.3541667 106.419922,52.2044271 106.419922,52.0546875 C106.419922,51.7552083 106.419922,51.530599 106.419922,51.3808594 C106.419922,51.2311198 106.419922,51.0065104 106.419922,50.7070312 C106.270182,50.7070312 106.045573,50.7070312 105.746094,50.7070312 C105.746094,51.0065104 105.820964,51.2311198 105.970703,51.3808594 C105.970703,51.530599 105.970703,51.7552083 105.970703,52.0546875 C105.970703,52.2044271 105.970703,52.3541667 105.970703,52.5039062 C105.820964,52.6536458 105.746094,52.8782552 105.746094,53.1777344 Z M60.375,43.7441406 C60.5247396,43.7441406 60.6744792,43.7441406 60.8242188,43.7441406 C60.9739583,43.7441406 61.1985677,43.7441406 61.4980469,43.7441406 C61.6477865,43.7441406 61.797526,43.7441406 61.9472656,43.7441406 C62.2467448,43.7441406 62.4713542,43.7441406 62.6210938,43.7441406 C62.6210938,69.6490885 62.6210938,108.50651 62.6210938,160.316406 C62.0221354,160.316406 61.2734375,160.316406 60.375,160.316406 C60.375,140.85026 60.375,121.384115 60.375,101.917969 C60.375,82.6015625 60.375,63.2102865 60.375,43.7441406 Z M60.375,162.787109 C60.375,162.188151 60.375,161.364583 60.375,160.316406 C59.7760417,160.316406 59.0273438,160.316406 58.1289062,160.316406 C58.8776042,163.161458 60.000651,167.354167 61.4980469,172.894531 C62.2467448,170.049479 63.3697917,165.856771 64.8671875,160.316406 C64.2682292,160.316406 63.5195312,160.316406 62.6210938,160.316406 C62.6210938,160.915365 62.6210938,161.738932 62.6210938,162.787109 C62.0221354,162.787109 61.2734375,162.787109 60.375,162.787109 Z M60.375,162.787109 C60.8242188,162.787109 61.5729167,162.787109 62.6210938,162.787109 C62.6210938,162.188151 62.6210938,161.364583 62.6210938,160.316406 C62.0221354,160.316406 61.2734375,160.316406 60.375,160.316406 C60.375,160.915365 60.375,161.738932 60.375,162.787109 Z M60.375,43.0703125 C60.375,43.2200521 60.375,43.4446615 60.375,43.7441406 C59.1770833,43.4446615 58.2786458,42.8457031 57.6796875,41.9472656 C56.9309896,41.0488281 56.5566406,40.0755208 56.5566406,39.0273438 C56.5566406,37.6796875 57.0058594,36.4817708 57.9042969,35.4335938 C58.952474,34.5351562 60.1503906,34.0859375 61.4980469,34.0859375 C62.8457031,34.0859375 63.96875,34.5351562 64.8671875,35.4335938 C65.9153646,36.4817708 66.4394531,37.6796875 66.4394531,39.0273438 C66.4394531,40.0755208 66.0651042,41.0488281 65.3164062,41.9472656 C64.5677083,42.8457031 63.6692708,43.4446615 62.6210938,43.7441406 C62.6210938,43.594401 62.6210938,43.3697917 62.6210938,43.0703125 C63.5195312,42.7708333 64.2682292,42.2467448 64.8671875,41.4980469 C65.4661458,40.749349 65.765625,39.9257812 65.765625,39.0273438 C65.765625,37.8294271 65.3164062,36.78125 64.4179688,35.8828125 C63.6692708,34.984375 62.6959635,34.5351562 61.4980469,34.5351562 C60.3001302,34.5351562 59.2519531,34.984375 58.3535156,35.8828125 C57.4550781,36.78125 57.0058594,37.8294271 57.0058594,39.0273438 C57.0058594,39.9257812 57.3053385,40.749349 57.9042969,41.4980469 C58.6529948,42.2467448 59.4765625,42.7708333 60.375,43.0703125 Z M61.4980469,43.2949219 C61.6477865,43.2949219 61.797526,43.2949219 61.9472656,43.2949219 C62.2467448,43.1451823 62.4713542,43.0703125 62.6210938,43.0703125 C62.6210938,43.2200521 62.6210938,43.4446615 62.6210938,43.7441406 C62.4713542,43.7441406 62.2467448,43.7441406 61.9472656,43.7441406 C61.797526,43.7441406 61.6477865,43.7441406 61.4980469,43.7441406 C61.1985677,43.7441406 60.9739583,43.7441406 60.8242188,43.7441406 C60.6744792,43.7441406 60.5247396,43.7441406 60.375,43.7441406 C60.375,43.594401 60.375,43.3697917 60.375,43.0703125 C60.5247396,43.0703125 60.6744792,43.1451823 60.8242188,43.2949219 C60.9739583,43.2949219 61.1985677,43.2949219 61.4980469,43.2949219 Z M57.6796875,39.0273438 C57.6796875,39.7760417 57.9042969,40.4498698 58.3535156,41.0488281 C58.952474,41.797526 59.6263021,42.2467448 60.375,42.3964844 C60.375,42.546224 60.375,42.7708333 60.375,43.0703125 C59.4765625,42.7708333 58.6529948,42.2467448 57.9042969,41.4980469 C57.3053385,40.749349 57.0058594,39.9257812 57.0058594,39.0273438 C57.0058594,37.8294271 57.4550781,36.78125 58.3535156,35.8828125 C59.2519531,34.984375 60.3001302,34.5351562 61.4980469,34.5351562 C62.6959635,34.5351562 63.6692708,34.984375 64.4179688,35.8828125 C65.3164062,36.78125 65.765625,37.8294271 65.765625,39.0273438 C65.765625,39.9257812 65.4661458,40.749349 64.8671875,41.4980469 C64.2682292,42.2467448 63.5195312,42.7708333 62.6210938,43.0703125 C62.6210938,42.9205729 62.6210938,42.6959635 62.6210938,42.3964844 C63.3697917,42.2467448 63.96875,41.797526 64.4179688,41.0488281 C64.8671875,40.4498698 65.0917969,39.7760417 65.0917969,39.0273438 C65.0917969,37.9791667 64.7923177,37.0807292 64.1933594,36.3320312 C63.4446615,35.5833333 62.546224,35.2089844 61.4980469,35.2089844 C60.4498698,35.2089844 59.5514323,35.5833333 58.8027344,36.3320312 C58.0540365,37.0807292 57.6796875,37.9791667 57.6796875,39.0273438 C57.6796875,38.7278646 57.6796875,38.578125 57.6796875,38.578125 C57.6796875,38.4283854 57.6796875,38.3535156 57.6796875,38.3535156 C57.6796875,38.3535156 57.6796875,38.4283854 57.6796875,38.578125 C57.6796875,38.578125 57.6796875,38.7278646 57.6796875,39.0273438 C57.6796875,39.1770833 57.6796875,39.2519531 57.6796875,39.2519531 C57.6796875,39.4016927 57.6796875,39.4765625 57.6796875,39.4765625 C57.6796875,39.4765625 57.6796875,39.4016927 57.6796875,39.2519531 C57.6796875,39.2519531 57.6796875,39.1770833 57.6796875,39.0273438 Z M62.6210938,43.0703125 C62.4713542,43.0703125 62.2467448,43.1451823 61.9472656,43.2949219 C61.797526,43.2949219 61.6477865,43.2949219 61.4980469,43.2949219 C61.1985677,43.2949219 60.9739583,43.2200521 60.8242188,43.0703125 C60.6744792,43.0703125 60.5247396,43.0703125 60.375,43.0703125 C60.375,42.9205729 60.375,42.6959635 60.375,42.3964844 C60.5247396,42.546224 60.6744792,42.6210938 60.8242188,42.6210938 C60.9739583,42.6210938 61.1985677,42.6210938 61.4980469,42.6210938 C61.6477865,42.6210938 61.797526,42.6210938 61.9472656,42.6210938 C62.2467448,42.6210938 62.4713542,42.546224 62.6210938,42.3964844 C62.6210938,42.546224 62.6210938,42.6959635 62.6210938,42.8457031 C62.6210938,42.8457031 62.6210938,42.9205729 62.6210938,43.0703125 Z M138.539062,191.986328 C138.539062,191.38737 138.539062,190.638672 138.539062,189.740234 C127.608073,189.740234 111.061849,189.740234 88.9003906,189.740234 C89.0501302,189.889974 89.125,190.039714 89.125,190.189453 C89.125,190.339193 89.125,190.563802 89.125,190.863281 C89.125,191.013021 89.125,191.16276 89.125,191.3125 C89.125,191.611979 89.0501302,191.836589 88.9003906,191.986328 C97.2858073,191.986328 105.596354,191.986328 113.832031,191.986328 C122.067708,191.986328 130.303385,191.986328 138.539062,191.986328 Z M140.785156,189.740234 C140.335938,189.740234 139.58724,189.740234 138.539062,189.740234 C138.539062,189.141276 138.539062,188.392578 138.539062,187.494141 C141.384115,188.242839 145.576823,189.365885 151.117188,190.863281 C148.272135,191.611979 144.079427,192.735026 138.539062,194.232422 C138.539062,193.633464 138.539062,192.884766 138.539062,191.986328 C139.138021,191.986328 139.886719,191.986328 140.785156,191.986328 C140.785156,191.38737 140.785156,190.638672 140.785156,189.740234 Z M138.539062,189.740234 C139.138021,189.740234 139.886719,189.740234 140.785156,189.740234 C140.785156,190.189453 140.785156,190.938151 140.785156,191.986328 C140.335938,191.986328 139.58724,191.986328 138.539062,191.986328 C138.539062,191.38737 138.539062,190.638672 138.539062,189.740234 Z M84.1835938,195.804688 C82.8359375,195.804688 81.7128906,195.280599 80.8144531,194.232422 C79.766276,193.333984 79.2421875,192.210938 79.2421875,190.863281 C79.2421875,189.515625 79.766276,188.317708 80.8144531,187.269531 C81.7128906,186.371094 82.8359375,185.921875 84.1835938,185.921875 C85.3815104,185.921875 86.4296875,186.296224 87.328125,187.044922 C88.2265625,187.64388 88.750651,188.542318 88.9003906,189.740234 C88.750651,189.740234 88.6009115,189.740234 88.4511719,189.740234 C88.1516927,188.841797 87.6276042,188.093099 86.8789062,187.494141 C86.1302083,186.895182 85.2317708,186.595703 84.1835938,186.595703 C82.9856771,186.595703 82.0123698,186.970052 81.2636719,187.71875 C80.3652344,188.617188 79.9160156,189.665365 79.9160156,190.863281 C79.9160156,192.061198 80.3652344,193.034505 81.2636719,193.783203 C82.0123698,194.681641 82.9856771,195.130859 84.1835938,195.130859 C85.2317708,195.130859 86.1302083,194.83138 86.8789062,194.232422 C87.6276042,193.633464 88.1516927,192.884766 88.4511719,191.986328 C88.6009115,191.986328 88.750651,191.986328 88.9003906,191.986328 C88.750651,193.034505 88.2265625,193.932943 87.328125,194.681641 C86.4296875,195.430339 85.3815104,195.804688 84.1835938,195.804688 Z M88.4511719,191.986328 C88.6009115,191.986328 88.750651,191.986328 88.9003906,191.986328 C89.0501302,191.836589 89.125,191.611979 89.125,191.3125 C89.125,191.16276 89.125,191.013021 89.125,190.863281 C89.125,190.563802 89.125,190.339193 89.125,190.189453 C89.125,190.039714 89.0501302,189.889974 88.9003906,189.740234 C88.750651,189.740234 88.6009115,189.740234 88.4511719,189.740234 C88.4511719,189.889974 88.4511719,190.039714 88.4511719,190.189453 C88.6009115,190.339193 88.6757812,190.563802 88.6757812,190.863281 C88.6757812,191.013021 88.6009115,191.16276 88.4511719,191.3125 C88.4511719,191.611979 88.4511719,191.836589 88.4511719,191.986328 Z M84.1835938,194.457031 C85.0820312,194.457031 85.8307292,194.232422 86.4296875,193.783203 C87.1783854,193.333984 87.6276042,192.735026 87.7773438,191.986328 C87.9270833,191.986328 88.1516927,191.986328 88.4511719,191.986328 C88.1516927,192.884766 87.6276042,193.633464 86.8789062,194.232422 C86.1302083,194.83138 85.2317708,195.130859 84.1835938,195.130859 C82.9856771,195.130859 82.0123698,194.681641 81.2636719,193.783203 C80.3652344,193.034505 79.9160156,192.061198 79.9160156,190.863281 C79.9160156,189.665365 80.3652344,188.617188 81.2636719,187.71875 C82.0123698,186.970052 82.9856771,186.595703 84.1835938,186.595703 C85.2317708,186.595703 86.1302083,186.895182 86.8789062,187.494141 C87.6276042,188.093099 88.1516927,188.841797 88.4511719,189.740234 C88.3014323,189.740234 88.0768229,189.740234 87.7773438,189.740234 C87.4778646,188.991536 87.0286458,188.317708 86.4296875,187.71875 C85.8307292,187.269531 85.0820312,187.044922 84.1835938,187.044922 C83.1354167,187.044922 82.2369792,187.419271 81.4882812,188.167969 C80.8893229,188.916667 80.5898438,189.815104 80.5898438,190.863281 C80.5898438,191.911458 80.8893229,192.809896 81.4882812,193.558594 C82.2369792,194.157552 83.1354167,194.457031 84.1835938,194.457031 C84.0338542,194.457031 83.8841146,194.457031 83.734375,194.457031 C83.5846354,194.457031 83.5846354,194.457031 83.734375,194.457031 C83.5846354,194.457031 83.5846354,194.457031 83.734375,194.457031 C83.8841146,194.457031 84.0338542,194.457031 84.1835938,194.457031 C84.4830729,194.457031 84.6328125,194.457031 84.6328125,194.457031 C84.7825521,194.457031 84.8574219,194.457031 84.8574219,194.457031 C84.8574219,194.457031 84.7825521,194.457031 84.6328125,194.457031 C84.6328125,194.457031 84.4830729,194.457031 84.1835938,194.457031 Z M87.7773438,189.740234 C87.9270833,189.889974 88.0019531,190.039714 88.0019531,190.189453 C88.0019531,190.339193 88.0019531,190.563802 88.0019531,190.863281 C88.0019531,191.013021 88.0019531,191.16276 88.0019531,191.3125 C88.0019531,191.611979 87.9270833,191.836589 87.7773438,191.986328 C87.9270833,191.986328 88.1516927,191.986328 88.4511719,191.986328 C88.4511719,191.836589 88.4511719,191.611979 88.4511719,191.3125 C88.6009115,191.16276 88.6757812,191.013021 88.6757812,190.863281 C88.6757812,190.563802 88.6009115,190.339193 88.4511719,190.189453 C88.4511719,190.039714 88.4511719,189.889974 88.4511719,189.740234 C88.3014323,189.740234 88.1516927,189.740234 88.0019531,189.740234 C88.0019531,189.740234 87.9270833,189.740234 87.7773438,189.740234 Z M48.4707031,39.4765625 C48.3209635,39.4765625 48.2460938,39.5514323 48.2460938,39.7011719 C48.0963542,39.8509115 47.9466146,40.000651 47.796875,40.1503906 C47.6471354,40.1503906 47.4973958,40.2252604 47.3476562,40.375 C47.3476562,40.375 47.2727865,40.375 47.1230469,40.375 C46.9733073,40.375 46.8235677,40.375 46.6738281,40.375 C46.5240885,40.2252604 46.4492188,40.1503906 46.4492188,40.1503906 C46.2994792,40.000651 46.2246094,39.8509115 46.2246094,39.7011719 C46.0748698,39.7011719 46,39.6263021 46,39.4765625 C46,39.3268229 46.0748698,39.1770833 46.2246094,39.0273438 C46.2246094,38.8776042 46.2994792,38.8027344 46.4492188,38.8027344 C46.5989583,38.5032552 46.8984375,38.1289062 47.3476562,37.6796875 C47.796875,37.3802083 48.2460938,36.9309896 48.6953125,36.3320312 C48.8450521,36.3320312 48.9199219,36.2571615 48.9199219,36.1074219 C49.0696615,36.1074219 49.1445312,36.1074219 49.1445312,36.1074219 C49.1445312,36.1074219 49.219401,36.1074219 49.3691406,36.1074219 C49.3691406,36.1074219 49.3691406,36.1074219 49.3691406,36.1074219 C49.5188802,36.1074219 49.59375,36.1074219 49.59375,36.1074219 C49.59375,36.1074219 49.6686198,36.1074219 49.8183594,36.1074219 C49.8183594,36.2571615 49.8932292,36.3320312 50.0429688,36.3320312 C50.0429688,36.3320312 50.1178385,36.406901 50.2675781,36.5566406 C50.2675781,36.5566406 50.2675781,36.6315104 50.2675781,36.78125 C50.2675781,36.9309896 50.2675781,37.0058594 50.2675781,37.0058594 C50.2675781,38.952474 50.2675781,41.2734375 50.2675781,43.96875 C50.2675781,46.8138021 50.2675781,50.0332031 50.2675781,53.6269531 C50.2675781,53.7766927 50.2675781,53.9264323 50.2675781,54.0761719 C50.2675781,54.2259115 50.1927083,54.375651 50.0429688,54.5253906 C49.8932292,54.5253906 49.8183594,54.5253906 49.8183594,54.5253906 C49.6686198,54.6751302 49.5188802,54.75 49.3691406,54.75 C49.219401,54.75 49.1445312,54.6751302 49.1445312,54.5253906 C48.9947917,54.5253906 48.8450521,54.5253906 48.6953125,54.5253906 C48.5455729,54.375651 48.4707031,54.2259115 48.4707031,54.0761719 C48.4707031,53.9264323 48.4707031,53.7766927 48.4707031,53.6269531 C48.4707031,52.1295573 48.4707031,50.1829427 48.4707031,47.7871094 C48.4707031,45.391276 48.4707031,42.6210938 48.4707031,39.4765625 Z M105.072266,70.6972656 C105.970703,70.2480469 106.644531,69.7988281 107.09375,69.3496094 C107.692708,68.9003906 108.067057,68.4511719 108.216797,68.0019531 C108.516276,67.702474 108.740885,67.328125 108.890625,66.8789062 C108.890625,66.5794271 108.890625,66.2799479 108.890625,65.9804688 C108.890625,65.9804688 108.890625,65.905599 108.890625,65.7558594 C108.890625,65.6061198 108.890625,65.4563802 108.890625,65.3066406 C108.890625,65.3066406 108.890625,65.2317708 108.890625,65.0820312 C108.890625,64.9322917 108.815755,64.7825521 108.666016,64.6328125 C108.666016,64.4830729 108.591146,64.3333333 108.441406,64.1835938 C108.141927,64.0338542 107.917318,63.8092448 107.767578,63.5097656 C107.468099,63.360026 107.16862,63.2851562 106.869141,63.2851562 C106.419922,63.1354167 105.970703,63.0605469 105.521484,63.0605469 C105.222005,63.0605469 104.922526,63.1354167 104.623047,63.2851562 C104.173828,63.2851562 103.874349,63.360026 103.724609,63.5097656 C103.42513,63.6595052 103.200521,63.8841146 103.050781,64.1835938 C102.751302,64.4830729 102.526693,64.7825521 102.376953,65.0820312 C102.376953,65.2317708 102.302083,65.3066406 102.152344,65.3066406 C102.152344,65.4563802 102.077474,65.53125 101.927734,65.53125 C101.777995,65.53125 101.628255,65.53125 101.478516,65.53125 C101.328776,65.53125 101.253906,65.53125 101.253906,65.53125 C101.104167,65.3815104 100.954427,65.3066406 100.804688,65.3066406 C100.804688,65.156901 100.729818,65.0071615 100.580078,64.8574219 C100.580078,64.8574219 100.580078,64.7825521 100.580078,64.6328125 C100.580078,64.4830729 100.580078,64.3333333 100.580078,64.1835938 C100.879557,63.734375 101.179036,63.2851562 101.478516,62.8359375 C101.777995,62.5364583 102.152344,62.2369792 102.601562,61.9375 C103.050781,61.6380208 103.5,61.4882812 103.949219,61.4882812 C104.398438,61.3385417 104.922526,61.2636719 105.521484,61.2636719 C106.569661,61.2636719 107.393229,61.3385417 107.992188,61.4882812 C108.740885,61.7877604 109.339844,62.2369792 109.789062,62.8359375 C110.088542,63.2851562 110.388021,63.8092448 110.6875,64.4082031 C110.83724,64.8574219 110.912109,65.3815104 110.912109,65.9804688 C110.912109,66.5794271 110.83724,67.1783854 110.6875,67.7773438 C110.53776,68.3763021 110.238281,68.9003906 109.789062,69.3496094 C109.489583,69.7988281 109.040365,70.3229167 108.441406,70.921875 C107.842448,71.3710938 107.09375,71.8951823 106.195312,72.4941406 C105.446615,72.9433594 104.847656,73.3925781 104.398438,73.8417969 C103.949219,74.2910156 103.57487,74.7402344 103.275391,75.1894531 C102.975911,75.7884115 102.751302,76.3125 102.601562,76.7617188 C102.302083,77.2109375 102.152344,77.5852865 102.152344,77.8847656 C103.050781,77.8847656 104.173828,77.8847656 105.521484,77.8847656 C106.869141,77.8847656 108.441406,77.8847656 110.238281,77.8847656 C110.388021,77.8847656 110.53776,77.8847656 110.6875,77.8847656 C110.6875,77.8847656 110.76237,77.9596354 110.912109,78.109375 C111.061849,78.2591146 111.136719,78.4088542 111.136719,78.5585938 C111.136719,78.5585938 111.136719,78.6334635 111.136719,78.7832031 C111.136719,78.9329427 111.136719,79.0826823 111.136719,79.2324219 C111.136719,79.3821615 111.061849,79.4570312 110.912109,79.4570312 C110.76237,79.6067708 110.6875,79.6816406 110.6875,79.6816406 C110.53776,79.6816406 110.388021,79.6816406 110.238281,79.6816406 C109.489583,79.6816406 108.740885,79.6816406 107.992188,79.6816406 C107.09375,79.6816406 106.270182,79.6816406 105.521484,79.6816406 C104.772786,79.6816406 104.024089,79.6816406 103.275391,79.6816406 C102.376953,79.6816406 101.553385,79.6816406 100.804688,79.6816406 C100.804688,79.6816406 100.729818,79.6816406 100.580078,79.6816406 C100.580078,79.6816406 100.505208,79.6816406 100.355469,79.6816406 C100.355469,79.6816406 100.355469,79.6816406 100.355469,79.6816406 C100.205729,79.531901 100.130859,79.4570312 100.130859,79.4570312 C100.130859,79.4570312 100.130859,79.3821615 100.130859,79.2324219 C99.9811198,79.2324219 99.90625,79.2324219 99.90625,79.2324219 C99.90625,79.0826823 99.90625,79.0078125 99.90625,79.0078125 C99.90625,79.0078125 99.90625,78.9329427 99.90625,78.7832031 C99.90625,78.7832031 99.90625,78.7832031 99.90625,78.7832031 C99.90625,78.7832031 99.90625,78.7832031 99.90625,78.7832031 C99.90625,78.7832031 99.90625,78.6334635 99.90625,78.3339844 C100.05599,78.0345052 100.130859,77.6601562 100.130859,77.2109375 C100.280599,76.7617188 100.430339,76.3125 100.580078,75.8632812 C100.879557,75.4140625 101.179036,74.889974 101.478516,74.2910156 C101.777995,73.9915365 102.002604,73.6920573 102.152344,73.3925781 C102.451823,73.093099 102.751302,72.7936198 103.050781,72.4941406 C103.35026,72.1946615 103.64974,71.8951823 103.949219,71.5957031 C104.248698,71.296224 104.623047,70.9967448 105.072266,70.6972656 Z M111.136719,138.080078 C111.136719,138.828776 110.986979,139.427734 110.6875,139.876953 C110.388021,140.475911 109.938802,141 109.339844,141.449219 C109.339844,141.598958 109.264974,141.673828 109.115234,141.673828 C108.965495,141.823568 108.890625,141.898438 108.890625,141.898438 C108.591146,141.748698 108.366536,141.673828 108.216797,141.673828 C108.067057,141.524089 107.842448,141.374349 107.542969,141.224609 C107.24349,141.224609 106.869141,141.14974 106.419922,141 C106.120443,141 105.746094,141 105.296875,141 C105.296875,141 105.296875,141 105.296875,141 C105.296875,141 105.296875,141 105.296875,141 C105.895833,141 106.419922,140.92513 106.869141,140.775391 C107.318359,140.625651 107.692708,140.401042 107.992188,140.101562 C108.441406,139.802083 108.740885,139.502604 108.890625,139.203125 C109.040365,138.903646 109.115234,138.529297 109.115234,138.080078 C109.115234,137.780599 109.115234,137.55599 109.115234,137.40625 C108.965495,137.25651 108.890625,137.106771 108.890625,136.957031 C108.740885,136.807292 108.666016,136.657552 108.666016,136.507812 C108.516276,136.358073 108.441406,136.283203 108.441406,136.283203 C108.291667,136.133464 108.141927,135.983724 107.992188,135.833984 C107.692708,135.684245 107.468099,135.609375 107.318359,135.609375 C107.16862,135.459635 107.01888,135.384766 106.869141,135.384766 C106.569661,135.235026 106.345052,135.160156 106.195312,135.160156 C105.895833,135.160156 105.596354,135.235026 105.296875,135.384766 C104.997396,135.384766 104.697917,135.459635 104.398438,135.609375 C104.098958,135.759115 103.874349,135.908854 103.724609,136.058594 C103.42513,136.208333 103.200521,136.358073 103.050781,136.507812 C102.901042,136.657552 102.826172,136.732422 102.826172,136.732422 C102.676432,136.882161 102.526693,136.957031 102.376953,136.957031 C102.227214,136.957031 102.077474,136.882161 101.927734,136.732422 C101.927734,136.732422 101.852865,136.657552 101.703125,136.507812 C101.553385,136.507812 101.478516,136.432943 101.478516,136.283203 C101.328776,136.133464 101.253906,136.058594 101.253906,136.058594 C101.253906,135.908854 101.328776,135.759115 101.478516,135.609375 C101.478516,135.459635 101.478516,135.309896 101.478516,135.160156 C101.777995,134.860677 102.152344,134.636068 102.601562,134.486328 C102.901042,134.186849 103.275391,133.96224 103.724609,133.8125 C104.024089,133.66276 104.398438,133.513021 104.847656,133.363281 C105.296875,133.363281 105.746094,133.363281 106.195312,133.363281 C106.494792,133.363281 106.794271,133.363281 107.09375,133.363281 C107.542969,133.513021 107.917318,133.66276 108.216797,133.8125 C108.516276,133.96224 108.815755,134.111979 109.115234,134.261719 C109.264974,134.411458 109.489583,134.636068 109.789062,134.935547 C109.938802,135.085286 110.088542,135.309896 110.238281,135.609375 C110.53776,135.759115 110.6875,135.983724 110.6875,136.283203 C110.83724,136.582682 110.912109,136.882161 110.912109,137.181641 C111.061849,137.48112 111.136719,137.780599 111.136719,138.080078 C111.136719,138.080078 111.136719,138.080078 111.136719,138.080078 C111.136719,138.080078 111.136719,138.080078 111.136719,138.080078 Z M104.623047,142.572266 C104.772786,142.722005 104.922526,142.796875 105.072266,142.796875 C105.222005,142.796875 105.296875,142.796875 105.296875,142.796875 C106.045573,142.796875 106.719401,142.722005 107.318359,142.572266 C107.767578,142.422526 108.291667,142.197917 108.890625,141.898438 C109.040365,142.048177 109.190104,142.123047 109.339844,142.123047 C109.339844,142.272786 109.414714,142.422526 109.564453,142.572266 C109.863932,142.871745 110.088542,143.096354 110.238281,143.246094 C110.388021,143.545573 110.53776,143.845052 110.6875,144.144531 C110.83724,144.59375 110.912109,144.968099 110.912109,145.267578 C111.061849,145.716797 111.136719,146.091146 111.136719,146.390625 C111.136719,147.139323 110.986979,147.888021 110.6875,148.636719 C110.388021,149.235677 109.938802,149.834635 109.339844,150.433594 C108.740885,150.882812 108.067057,151.257161 107.318359,151.556641 C106.719401,151.85612 105.970703,152.005859 105.072266,152.005859 C104.473307,152.005859 103.949219,151.93099 103.5,151.78125 C103.050781,151.63151 102.601562,151.481771 102.152344,151.332031 C101.703125,151.032552 101.253906,150.733073 100.804688,150.433594 C100.505208,149.984375 100.205729,149.610026 99.90625,149.310547 C99.90625,149.160807 99.90625,149.085938 99.90625,149.085938 C99.7565104,148.936198 99.6816406,148.786458 99.6816406,148.636719 C99.6816406,148.636719 99.6816406,148.636719 99.6816406,148.636719 C99.6816406,148.636719 99.6816406,148.561849 99.6816406,148.412109 C99.8313802,148.412109 99.90625,148.33724 99.90625,148.1875 C100.05599,148.03776 100.130859,147.962891 100.130859,147.962891 C100.280599,147.813151 100.430339,147.738281 100.580078,147.738281 C100.729818,147.738281 100.879557,147.738281 101.029297,147.738281 C101.029297,147.738281 101.104167,147.813151 101.253906,147.962891 C101.403646,147.962891 101.478516,148.03776 101.478516,148.1875 C101.777995,148.486979 102.002604,148.711589 102.152344,148.861328 C102.451823,149.160807 102.751302,149.385417 103.050781,149.535156 C103.35026,149.684896 103.64974,149.834635 103.949219,149.984375 C104.248698,149.984375 104.623047,149.984375 105.072266,149.984375 C105.521484,149.984375 105.970703,149.909505 106.419922,149.759766 C106.869141,149.610026 107.318359,149.385417 107.767578,149.085938 C108.216797,148.786458 108.516276,148.412109 108.666016,147.962891 C108.965495,147.513672 109.115234,146.989583 109.115234,146.390625 C109.115234,146.091146 109.115234,145.866536 109.115234,145.716797 C109.115234,145.417318 109.040365,145.192708 108.890625,145.042969 C108.890625,144.74349 108.815755,144.51888 108.666016,144.369141 C108.516276,144.219401 108.366536,144.069661 108.216797,143.919922 C108.067057,143.770182 107.842448,143.620443 107.542969,143.470703 C107.393229,143.320964 107.16862,143.246094 106.869141,143.246094 C106.569661,143.096354 106.270182,143.021484 105.970703,143.021484 C105.671224,142.871745 105.371745,142.796875 105.072266,142.796875 C104.922526,142.796875 104.772786,142.796875 104.623047,142.796875 C104.473307,142.796875 104.323568,142.722005 104.173828,142.572266 C104.173828,142.422526 104.173828,142.347656 104.173828,142.347656 C104.024089,142.197917 103.949219,142.048177 103.949219,141.898438 C103.949219,141.748698 104.024089,141.598958 104.173828,141.449219 C104.173828,141.449219 104.173828,141.374349 104.173828,141.224609 C104.323568,141.07487 104.473307,141 104.623047,141 C104.772786,141 104.922526,141 105.072266,141 C105.072266,141 105.072266,141 105.072266,141 C105.072266,141 105.147135,141 105.296875,141 C105.147135,141 105.072266,141 105.072266,141 C104.922526,141 104.772786,141.07487 104.623047,141.224609 C104.623047,141.224609 104.548177,141.299479 104.398438,141.449219 C104.398438,141.598958 104.398438,141.748698 104.398438,141.898438 C104.398438,142.048177 104.398438,142.197917 104.398438,142.347656 C104.548177,142.347656 104.623047,142.422526 104.623047,142.572266 Z M105.296875,141 C105.746094,141 106.120443,141 106.419922,141 C106.869141,141.14974 107.24349,141.224609 107.542969,141.224609 C107.842448,141.374349 108.067057,141.524089 108.216797,141.673828 C108.366536,141.673828 108.591146,141.748698 108.890625,141.898438 C108.291667,142.197917 107.767578,142.422526 107.318359,142.572266 C106.719401,142.722005 106.045573,142.796875 105.296875,142.796875 C105.296875,142.796875 105.222005,142.796875 105.072266,142.796875 C104.922526,142.796875 104.772786,142.722005 104.623047,142.572266 C104.623047,142.422526 104.548177,142.347656 104.398438,142.347656 C104.398438,142.197917 104.398438,142.048177 104.398438,141.898438 C104.398438,141.748698 104.398438,141.598958 104.398438,141.449219 C104.548177,141.449219 104.623047,141.374349 104.623047,141.224609 C104.772786,141.07487 104.922526,141 105.072266,141 C105.072266,141 105.147135,141 105.296875,141 Z M68.4609375,205.013672 C68.4609375,204.414714 68.4609375,203.815755 68.4609375,203.216797 C68.4609375,202.617839 68.4609375,202.01888 68.4609375,201.419922 C68.7604167,201.419922 69.0598958,201.419922 69.359375,201.419922 C69.6588542,201.419922 69.9583333,201.419922 70.2578125,201.419922 C70.2578125,201.869141 70.2578125,202.393229 70.2578125,202.992188 C70.2578125,203.591146 70.2578125,204.264974 70.2578125,205.013672 C70.2578125,205.013672 70.2578125,205.088542 70.2578125,205.238281 C70.2578125,205.388021 70.1829427,205.53776 70.0332031,205.6875 C70.0332031,205.6875 69.9583333,205.76237 69.8085938,205.912109 C69.6588542,205.912109 69.5091146,205.912109 69.359375,205.912109 C69.2096354,205.912109 69.1347656,205.912109 69.1347656,205.912109 C68.985026,205.76237 68.8352865,205.6875 68.6855469,205.6875 C68.5358073,205.53776 68.4609375,205.388021 68.4609375,205.238281 C68.4609375,205.088542 68.4609375,205.013672 68.4609375,205.013672 Z M70.4824219,199.398438 C70.0332031,199.398438 69.6588542,199.398438 69.359375,199.398438 C69.0598958,199.398438 68.7604167,199.398438 68.4609375,199.398438 C68.4609375,199.697917 68.4609375,199.997396 68.4609375,200.296875 C68.4609375,200.746094 68.4609375,201.120443 68.4609375,201.419922 C68.7604167,201.419922 69.0598958,201.419922 69.359375,201.419922 C69.6588542,201.419922 70.0332031,201.419922 70.4824219,201.419922 C70.4824219,200.970703 70.4824219,200.596354 70.4824219,200.296875 C70.4824219,199.997396 70.4824219,199.697917 70.4824219,199.398438 Z M70.0332031,191.3125 C70.0332031,191.3125 69.9583333,191.23763 69.8085938,191.087891 C69.6588542,191.087891 69.5091146,191.087891 69.359375,191.087891 C69.2096354,191.087891 69.1347656,191.087891 69.1347656,191.087891 C68.985026,191.23763 68.8352865,191.3125 68.6855469,191.3125 C68.6855469,191.46224 68.6106771,191.611979 68.4609375,191.761719 C68.4609375,191.761719 68.4609375,191.836589 68.4609375,191.986328 C68.4609375,193.483724 68.4609375,194.83138 68.4609375,196.029297 C68.4609375,197.227214 68.4609375,198.35026 68.4609375,199.398438 C68.7604167,199.398438 69.0598958,199.398438 69.359375,199.398438 C69.6588542,199.398438 70.0332031,199.398438 70.4824219,199.398438 C70.4824219,197.901042 70.4824219,196.553385 70.4824219,195.355469 C70.4824219,194.007812 70.4824219,192.884766 70.4824219,191.986328 C70.4824219,191.836589 70.4075521,191.761719 70.2578125,191.761719 C70.2578125,191.611979 70.1829427,191.46224 70.0332031,191.3125 Z M72.2792969,200.970703 C72.2792969,200.970703 72.3541667,200.895833 72.5039062,200.746094 C72.5039062,200.596354 72.5039062,200.446615 72.5039062,200.296875 C72.5039062,200.147135 72.5039062,200.072266 72.5039062,200.072266 C72.3541667,199.922526 72.2792969,199.772786 72.2792969,199.623047 C72.1295573,199.623047 71.9798177,199.548177 71.8300781,199.398438 C71.6803385,199.398438 71.6054688,199.398438 71.6054688,199.398438 C71.3059896,199.398438 71.0813802,199.398438 70.9316406,199.398438 C70.781901,199.398438 70.6321615,199.398438 70.4824219,199.398438 C70.4824219,199.697917 70.4824219,199.997396 70.4824219,200.296875 C70.4824219,200.596354 70.4824219,200.970703 70.4824219,201.419922 C70.6321615,201.419922 70.781901,201.419922 70.9316406,201.419922 C71.0813802,201.419922 71.3059896,201.419922 71.6054688,201.419922 C71.6054688,201.419922 71.6803385,201.345052 71.8300781,201.195312 C71.9798177,201.195312 72.1295573,201.120443 72.2792969,200.970703 Z M61.0488281,200.296875 C61.0488281,200.296875 61.0488281,200.371745 61.0488281,200.521484 C61.0488281,200.521484 61.0488281,200.521484 61.0488281,200.521484 C61.0488281,200.521484 61.1236979,200.596354 61.2734375,200.746094 C61.2734375,200.746094 61.2734375,200.820964 61.2734375,200.970703 C61.2734375,200.970703 61.3483073,201.045573 61.4980469,201.195312 C61.4980469,201.195312 61.5729167,201.195312 61.7226562,201.195312 C61.7226562,201.195312 61.797526,201.270182 61.9472656,201.419922 C61.9472656,201.419922 62.0221354,201.419922 62.171875,201.419922 C62.9205729,201.419922 63.6692708,201.419922 64.4179688,201.419922 C65.1666667,201.419922 65.9902344,201.419922 66.8886719,201.419922 C67.0384115,201.419922 67.2630208,201.419922 67.5625,201.419922 C67.8619792,201.419922 68.1614583,201.419922 68.4609375,201.419922 C68.4609375,201.120443 68.4609375,200.820964 68.4609375,200.521484 C68.4609375,200.072266 68.4609375,199.697917 68.4609375,199.398438 C67.4127604,199.398438 66.5143229,199.398438 65.765625,199.398438 C64.8671875,199.398438 64.1184896,199.398438 63.5195312,199.398438 C64.5677083,197.002604 65.4661458,194.90625 66.2148438,193.109375 C66.9635417,191.3125 67.5625,189.815104 68.0117188,188.617188 C68.1614583,188.467448 68.2363281,188.317708 68.2363281,188.167969 C68.2363281,188.018229 68.1614583,187.943359 68.0117188,187.943359 C68.0117188,187.79362 67.936849,187.64388 67.7871094,187.494141 C67.7871094,187.494141 67.7122396,187.419271 67.5625,187.269531 C67.5625,187.269531 67.4876302,187.269531 67.3378906,187.269531 C67.3378906,187.269531 67.2630208,187.269531 67.1132812,187.269531 C67.1132812,187.269531 67.0384115,187.269531 66.8886719,187.269531 C66.8886719,187.269531 66.8886719,187.269531 66.8886719,187.269531 C66.7389323,187.419271 66.5891927,187.494141 66.4394531,187.494141 C66.4394531,187.64388 66.3645833,187.79362 66.2148438,187.943359 C65.1666667,190.638672 64.1933594,192.959635 63.2949219,194.90625 C62.3964844,197.002604 61.7226562,198.724609 61.2734375,200.072266 C61.2734375,200.072266 61.1985677,200.072266 61.0488281,200.072266 C61.0488281,200.222005 61.0488281,200.296875 61.0488281,200.296875 Z"/></svg>