<svg xmlns="http://www.w3.org/2000/svg" width="207" height="207" viewBox="0 0 207 207"><path fill="#131313" d="M152.689453,42.171875 C138.613932,42.171875 117.425781,42.171875 89.125,42.171875 C89.125,54.0013021 89.125,71.7454427 89.125,95.4042969 C102.601562,95.4042969 122.816406,95.4042969 149.769531,95.4042969 C152.015625,95.4042969 153.88737,96.1529948 155.384766,97.6503906 C157.031901,99.297526 157.855469,101.244141 157.855469,103.490234 C157.855469,105.736328 157.031901,107.682943 155.384766,109.330078 C153.88737,110.827474 152.015625,111.576172 149.769531,111.576172 C136.292969,111.576172 116.078125,111.576172 89.125,111.576172 C89.125,125.202474 89.125,145.641927 89.125,172.894531 C89.125,175.140625 88.3763021,177.08724 86.8789062,178.734375 C85.2317708,180.231771 83.2851562,180.980469 81.0390625,180.980469 C78.7929688,180.980469 76.8463542,180.231771 75.1992188,178.734375 C73.7018229,177.08724 72.953125,175.140625 72.953125,172.894531 C72.953125,142.048177 72.953125,95.7786458 72.953125,34.0859375 C72.953125,31.8398438 73.7018229,29.8932292 75.1992188,28.2460938 C76.8463542,26.7486979 78.7929688,26 81.0390625,26 C96.9114583,26 120.794922,26 152.689453,26 C154.935547,26 156.882161,26.7486979 158.529297,28.2460938 C160.176432,29.8932292 161,31.8398438 161,34.0859375 C161,36.3320312 160.176432,38.203776 158.529297,39.7011719 C156.882161,41.3483073 154.935547,42.171875 152.689453,42.171875 Z M107.318359,122.132812 C107.318359,122.282552 107.318359,122.432292 107.318359,122.582031 C107.318359,122.88151 107.318359,123.10612 107.318359,123.255859 C113.607422,123.255859 123.115885,123.255859 135.84375,123.255859 C135.84375,122.656901 135.84375,121.908203 135.84375,121.009766 C129.554688,121.009766 120.046224,121.009766 107.318359,121.009766 C107.318359,121.159505 107.318359,121.309245 107.318359,121.458984 C107.318359,121.608724 107.318359,121.833333 107.318359,122.132812 Z M148.197266,122.132812 C145.501953,122.88151 141.384115,124.004557 135.84375,125.501953 C135.84375,124.902995 135.84375,124.154297 135.84375,123.255859 C136.292969,123.255859 137.041667,123.255859 138.089844,123.255859 C138.089844,122.656901 138.089844,121.908203 138.089844,121.009766 C137.640625,121.009766 136.891927,121.009766 135.84375,121.009766 C135.84375,120.410807 135.84375,119.662109 135.84375,118.763672 C138.539062,119.51237 142.656901,120.635417 148.197266,122.132812 Z M135.84375,123.255859 C136.292969,123.255859 137.041667,123.255859 138.089844,123.255859 C138.089844,122.656901 138.089844,121.908203 138.089844,121.009766 C137.640625,121.009766 136.891927,121.009766 135.84375,121.009766 C135.84375,121.458984 135.84375,122.207682 135.84375,123.255859 Z M98.109375,122.132812 C98.109375,120.934896 98.5585938,119.886719 99.4570312,118.988281 C100.205729,118.089844 101.179036,117.640625 102.376953,117.640625 C103.42513,117.640625 104.323568,118.014974 105.072266,118.763672 C105.820964,119.36263 106.345052,120.111328 106.644531,121.009766 C106.794271,121.009766 107.01888,121.009766 107.318359,121.009766 C107.01888,119.811849 106.419922,118.913411 105.521484,118.314453 C104.623047,117.565755 103.57487,117.191406 102.376953,117.191406 C101.029297,117.191406 99.90625,117.640625 99.0078125,118.539062 C98.109375,119.58724 97.6601562,120.785156 97.6601562,122.132812 C97.6601562,123.480469 98.109375,124.603516 99.0078125,125.501953 C99.90625,126.55013 101.029297,127.074219 102.376953,127.074219 C103.57487,127.074219 104.623047,126.69987 105.521484,125.951172 C106.419922,125.202474 107.01888,124.304036 107.318359,123.255859 C107.16862,123.255859 106.94401,123.255859 106.644531,123.255859 C106.345052,124.154297 105.820964,124.902995 105.072266,125.501953 C104.323568,126.100911 103.42513,126.400391 102.376953,126.400391 C101.179036,126.400391 100.205729,125.951172 99.4570312,125.052734 C98.5585938,124.304036 98.109375,123.330729 98.109375,122.132812 Z M106.644531,121.009766 C106.644531,121.159505 106.719401,121.309245 106.869141,121.458984 C106.869141,121.608724 106.869141,121.833333 106.869141,122.132812 C106.869141,122.282552 106.869141,122.432292 106.869141,122.582031 C106.719401,122.88151 106.644531,123.10612 106.644531,123.255859 C106.794271,123.255859 107.01888,123.255859 107.318359,123.255859 C107.318359,123.10612 107.318359,122.88151 107.318359,122.582031 C107.318359,122.432292 107.318359,122.282552 107.318359,122.132812 C107.318359,121.833333 107.318359,121.608724 107.318359,121.458984 C107.318359,121.309245 107.318359,121.159505 107.318359,121.009766 C107.16862,121.009766 107.01888,121.009766 106.869141,121.009766 C106.869141,121.009766 106.794271,121.009766 106.644531,121.009766 Z M98.109375,122.132812 C98.109375,123.330729 98.5585938,124.304036 99.4570312,125.052734 C100.205729,125.951172 101.179036,126.400391 102.376953,126.400391 C103.42513,126.400391 104.323568,126.100911 105.072266,125.501953 C105.820964,124.902995 106.345052,124.154297 106.644531,123.255859 C106.494792,123.255859 106.270182,123.255859 105.970703,123.255859 C105.820964,124.004557 105.371745,124.603516 104.623047,125.052734 C104.024089,125.501953 103.275391,125.726562 102.376953,125.726562 C102.676432,125.726562 102.826172,125.726562 102.826172,125.726562 C102.975911,125.726562 103.050781,125.726562 103.050781,125.726562 C103.050781,125.726562 102.975911,125.726562 102.826172,125.726562 C102.826172,125.726562 102.676432,125.726562 102.376953,125.726562 C102.227214,125.726562 102.152344,125.726562 102.152344,125.726562 C102.002604,125.726562 101.927734,125.726562 101.927734,125.726562 C101.927734,125.726562 102.002604,125.726562 102.152344,125.726562 C102.152344,125.726562 102.227214,125.726562 102.376953,125.726562 C101.478516,125.726562 100.654948,125.427083 99.90625,124.828125 C99.1575521,124.079427 98.7832031,123.18099 98.7832031,122.132812 C98.7832031,121.084635 99.1575521,120.186198 99.90625,119.4375 C100.654948,118.688802 101.478516,118.314453 102.376953,118.314453 C103.275391,118.314453 104.024089,118.539062 104.623047,118.988281 C105.371745,119.58724 105.820964,120.261068 105.970703,121.009766 C106.120443,121.009766 106.345052,121.009766 106.644531,121.009766 C106.345052,120.111328 105.820964,119.36263 105.072266,118.763672 C104.323568,118.014974 103.42513,117.640625 102.376953,117.640625 C101.179036,117.640625 100.205729,118.089844 99.4570312,118.988281 C98.5585938,119.886719 98.109375,120.934896 98.109375,122.132812 Z M105.970703,123.255859 C106.120443,123.255859 106.345052,123.255859 106.644531,123.255859 C106.644531,123.10612 106.644531,122.88151 106.644531,122.582031 C106.794271,122.432292 106.869141,122.282552 106.869141,122.132812 C106.869141,121.833333 106.794271,121.608724 106.644531,121.458984 C106.644531,121.309245 106.644531,121.159505 106.644531,121.009766 C106.494792,121.009766 106.270182,121.009766 105.970703,121.009766 C106.120443,121.159505 106.195312,121.309245 106.195312,121.458984 C106.195312,121.608724 106.195312,121.833333 106.195312,122.132812 C106.195312,122.282552 106.195312,122.432292 106.195312,122.582031 C106.195312,122.88151 106.120443,123.10612 105.970703,123.255859 Z M107.318359,52.7285156 C107.318359,52.8782552 107.318359,53.0279948 107.318359,53.1777344 C107.318359,53.327474 107.318359,53.5520833 107.318359,53.8515625 C114.35612,53.8515625 124.91276,53.8515625 138.988281,53.8515625 C138.988281,53.2526042 138.988281,52.4290365 138.988281,51.3808594 C131.950521,51.3808594 121.39388,51.3808594 107.318359,51.3808594 C107.318359,51.6803385 107.318359,51.9049479 107.318359,52.0546875 C107.318359,52.2044271 107.318359,52.4290365 107.318359,52.7285156 Z M138.988281,51.3808594 C138.988281,50.9316406 138.988281,50.2578125 138.988281,49.359375 C141.683594,50.1080729 145.801432,51.2311198 151.341797,52.7285156 C148.646484,53.4772135 144.528646,54.5253906 138.988281,55.8730469 C138.988281,55.4238281 138.988281,54.75 138.988281,53.8515625 C139.4375,53.8515625 140.186198,53.8515625 141.234375,53.8515625 C141.234375,53.2526042 141.234375,52.4290365 141.234375,51.3808594 C140.635417,51.3808594 139.886719,51.3808594 138.988281,51.3808594 Z M138.988281,53.8515625 C139.4375,53.8515625 140.186198,53.8515625 141.234375,53.8515625 C141.234375,53.2526042 141.234375,52.4290365 141.234375,51.3808594 C140.635417,51.3808594 139.886719,51.3808594 138.988281,51.3808594 C138.988281,51.9798177 138.988281,52.8033854 138.988281,53.8515625 Z M98.109375,52.7285156 C98.109375,51.530599 98.5585938,50.4824219 99.4570312,49.5839844 C100.205729,48.6855469 101.179036,48.2363281 102.376953,48.2363281 C103.42513,48.2363281 104.323568,48.5358073 105.072266,49.1347656 C105.820964,49.733724 106.345052,50.4824219 106.644531,51.3808594 C106.794271,51.3808594 107.01888,51.3808594 107.318359,51.3808594 C107.01888,50.3326823 106.419922,49.5091146 105.521484,48.9101562 C104.623047,48.1614583 103.57487,47.7871094 102.376953,47.7871094 C101.029297,47.7871094 99.90625,48.2363281 99.0078125,49.1347656 C98.109375,50.1829427 97.6601562,51.3808594 97.6601562,52.7285156 C97.6601562,54.0761719 98.109375,55.1992188 99.0078125,56.0976562 C99.90625,56.9960938 101.029297,57.4453125 102.376953,57.4453125 C103.57487,57.4453125 104.623047,57.1458333 105.521484,56.546875 C106.419922,55.7981771 107.01888,54.8997396 107.318359,53.8515625 C107.16862,53.8515625 106.94401,53.8515625 106.644531,53.8515625 C106.345052,54.75 105.820964,55.4986979 105.072266,56.0976562 C104.323568,56.6966146 103.42513,56.9960938 102.376953,56.9960938 C101.179036,56.9960938 100.205729,56.546875 99.4570312,55.6484375 C98.5585938,54.8997396 98.109375,53.9264323 98.109375,52.7285156 Z M106.644531,51.3808594 C106.644531,51.6803385 106.719401,51.9049479 106.869141,52.0546875 C106.869141,52.2044271 106.869141,52.4290365 106.869141,52.7285156 C106.869141,52.8782552 106.869141,53.0279948 106.869141,53.1777344 C106.719401,53.327474 106.644531,53.5520833 106.644531,53.8515625 C106.794271,53.8515625 107.01888,53.8515625 107.318359,53.8515625 C107.318359,53.5520833 107.318359,53.327474 107.318359,53.1777344 C107.318359,53.0279948 107.318359,52.8782552 107.318359,52.7285156 C107.318359,52.4290365 107.318359,52.2044271 107.318359,52.0546875 C107.318359,51.9049479 107.318359,51.6803385 107.318359,51.3808594 C107.16862,51.3808594 107.01888,51.3808594 106.869141,51.3808594 C106.869141,51.3808594 106.794271,51.3808594 106.644531,51.3808594 Z M98.109375,52.7285156 C98.109375,53.9264323 98.5585938,54.8997396 99.4570312,55.6484375 C100.205729,56.546875 101.179036,56.9960938 102.376953,56.9960938 C103.42513,56.9960938 104.323568,56.6966146 105.072266,56.0976562 C105.820964,55.4986979 106.345052,54.75 106.644531,53.8515625 C106.494792,53.8515625 106.270182,53.8515625 105.970703,53.8515625 C105.820964,54.6002604 105.371745,55.1992188 104.623047,55.6484375 C104.024089,56.0976562 103.275391,56.3222656 102.376953,56.3222656 C102.676432,56.3222656 102.826172,56.3222656 102.826172,56.3222656 C102.975911,56.3222656 103.050781,56.3222656 103.050781,56.3222656 C103.050781,56.3222656 102.975911,56.3222656 102.826172,56.3222656 C102.826172,56.3222656 102.676432,56.3222656 102.376953,56.3222656 C102.227214,56.3222656 102.152344,56.3222656 102.152344,56.3222656 C102.002604,56.3222656 101.927734,56.3222656 101.927734,56.3222656 C101.927734,56.3222656 102.002604,56.3222656 102.152344,56.3222656 C102.152344,56.3222656 102.227214,56.3222656 102.376953,56.3222656 C101.478516,56.3222656 100.654948,55.9479167 99.90625,55.1992188 C99.1575521,54.6002604 98.7832031,53.7766927 98.7832031,52.7285156 C98.7832031,51.6803385 99.1575521,50.781901 99.90625,50.0332031 C100.654948,49.2845052 101.478516,48.9101562 102.376953,48.9101562 C103.275391,48.9101562 104.024089,49.1347656 104.623047,49.5839844 C105.371745,50.0332031 105.820964,50.6321615 105.970703,51.3808594 C106.120443,51.3808594 106.345052,51.3808594 106.644531,51.3808594 C106.345052,50.4824219 105.820964,49.733724 105.072266,49.1347656 C104.323568,48.5358073 103.42513,48.2363281 102.376953,48.2363281 C101.179036,48.2363281 100.205729,48.6855469 99.4570312,49.5839844 C98.5585938,50.4824219 98.109375,51.530599 98.109375,52.7285156 Z M105.970703,53.8515625 C106.120443,53.8515625 106.345052,53.8515625 106.644531,53.8515625 C106.644531,53.5520833 106.644531,53.327474 106.644531,53.1777344 C106.794271,53.0279948 106.869141,52.8782552 106.869141,52.7285156 C106.869141,52.4290365 106.794271,52.2044271 106.644531,52.0546875 C106.644531,51.9049479 106.644531,51.6803385 106.644531,51.3808594 C106.494792,51.3808594 106.270182,51.3808594 105.970703,51.3808594 C106.120443,51.6803385 106.195312,51.9049479 106.195312,52.0546875 C106.195312,52.2044271 106.195312,52.4290365 106.195312,52.7285156 C106.195312,52.8782552 106.195312,53.0279948 106.195312,53.1777344 C106.195312,53.327474 106.120443,53.5520833 105.970703,53.8515625 Z M60.5996094,44.4179688 C60.749349,44.4179688 60.8990885,44.4179688 61.0488281,44.4179688 C61.3483073,44.4179688 61.5729167,44.4179688 61.7226562,44.4179688 C61.8723958,44.4179688 62.0970052,44.4179688 62.3964844,44.4179688 C62.546224,44.4179688 62.6959635,44.4179688 62.8457031,44.4179688 C62.8457031,70.3229167 62.8457031,109.255208 62.8457031,161.214844 C62.3964844,161.214844 61.6477865,161.214844 60.5996094,161.214844 C60.5996094,141.748698 60.5996094,122.282552 60.5996094,102.816406 C60.5996094,83.3502604 60.5996094,63.8841146 60.5996094,44.4179688 Z M60.5996094,163.460938 C60.5996094,162.861979 60.5996094,162.113281 60.5996094,161.214844 C60.1503906,161.214844 59.4016927,161.214844 58.3535156,161.214844 C59.1022135,163.910156 60.2252604,168.027995 61.7226562,173.568359 C62.4713542,170.873047 63.594401,166.755208 65.0917969,161.214844 C64.6425781,161.214844 63.8938802,161.214844 62.8457031,161.214844 C62.8457031,161.664062 62.8457031,162.41276 62.8457031,163.460938 C62.3964844,163.460938 61.6477865,163.460938 60.5996094,163.460938 Z M60.5996094,163.460938 C61.0488281,163.460938 61.797526,163.460938 62.8457031,163.460938 C62.8457031,162.861979 62.8457031,162.113281 62.8457031,161.214844 C62.3964844,161.214844 61.6477865,161.214844 60.5996094,161.214844 C60.5996094,161.664062 60.5996094,162.41276 60.5996094,163.460938 Z M60.5996094,44.4179688 C59.5514323,44.1184896 58.6529948,43.5195312 57.9042969,42.6210938 C57.155599,41.7226562 56.78125,40.749349 56.78125,39.7011719 C56.78125,38.3535156 57.3053385,37.155599 58.3535156,36.1074219 C59.2519531,35.2089844 60.375,34.7597656 61.7226562,34.7597656 C63.0703125,34.7597656 64.1933594,35.2089844 65.0917969,36.1074219 C66.139974,37.155599 66.6640625,38.3535156 66.6640625,39.7011719 C66.6640625,40.749349 66.2897135,41.7226562 65.5410156,42.6210938 C64.7923177,43.5195312 63.8938802,44.1184896 62.8457031,44.4179688 C62.8457031,44.2682292 62.8457031,44.0436198 62.8457031,43.7441406 C63.7441406,43.4446615 64.4928385,42.9205729 65.0917969,42.171875 C65.6907552,41.4231771 65.9902344,40.5996094 65.9902344,39.7011719 C65.9902344,38.5032552 65.6158854,37.4550781 64.8671875,36.5566406 C63.96875,35.6582031 62.9205729,35.2089844 61.7226562,35.2089844 C60.5247396,35.2089844 59.4765625,35.6582031 58.578125,36.5566406 C57.8294271,37.4550781 57.4550781,38.5032552 57.4550781,39.7011719 C57.4550781,40.5996094 57.7545573,41.4231771 58.3535156,42.171875 C58.952474,42.9205729 59.7011719,43.4446615 60.5996094,43.7441406 C60.5996094,43.8938802 60.5996094,43.96875 60.5996094,43.96875 C60.5996094,44.1184896 60.5996094,44.2682292 60.5996094,44.4179688 Z M61.7226562,43.96875 C61.8723958,43.96875 62.0970052,43.96875 62.3964844,43.96875 C62.546224,43.8190104 62.6959635,43.7441406 62.8457031,43.7441406 C62.8457031,43.8938802 62.8457031,44.1184896 62.8457031,44.4179688 C62.6959635,44.4179688 62.546224,44.4179688 62.3964844,44.4179688 C62.0970052,44.4179688 61.8723958,44.4179688 61.7226562,44.4179688 C61.5729167,44.4179688 61.3483073,44.4179688 61.0488281,44.4179688 C60.8990885,44.4179688 60.749349,44.4179688 60.5996094,44.4179688 C60.5996094,44.2682292 60.5996094,44.0436198 60.5996094,43.7441406 C60.749349,43.7441406 60.8990885,43.8190104 61.0488281,43.96875 C61.3483073,43.96875 61.5729167,43.96875 61.7226562,43.96875 Z M57.9042969,39.7011719 C57.9042969,40.4498698 58.203776,41.1236979 58.8027344,41.7226562 C59.2519531,42.4713542 59.8509115,42.9205729 60.5996094,43.0703125 C60.5996094,43.2200521 60.5996094,43.4446615 60.5996094,43.7441406 C59.7011719,43.4446615 58.952474,42.9205729 58.3535156,42.171875 C57.7545573,41.4231771 57.4550781,40.5996094 57.4550781,39.7011719 C57.4550781,38.5032552 57.8294271,37.4550781 58.578125,36.5566406 C59.4765625,35.6582031 60.5247396,35.2089844 61.7226562,35.2089844 C62.9205729,35.2089844 63.96875,35.6582031 64.8671875,36.5566406 C65.6158854,37.4550781 65.9902344,38.5032552 65.9902344,39.7011719 C65.9902344,40.5996094 65.6907552,41.4231771 65.0917969,42.171875 C64.4928385,42.9205729 63.7441406,43.4446615 62.8457031,43.7441406 C62.8457031,43.594401 62.8457031,43.3697917 62.8457031,43.0703125 C63.594401,42.9205729 64.1933594,42.4713542 64.6425781,41.7226562 C65.2415365,41.1236979 65.5410156,40.4498698 65.5410156,39.7011719 C65.5410156,38.6529948 65.1666667,37.7545573 64.4179688,37.0058594 C63.6692708,36.2571615 62.7708333,35.8828125 61.7226562,35.8828125 C60.6744792,35.8828125 59.7760417,36.2571615 59.0273438,37.0058594 C58.2786458,37.7545573 57.9042969,38.6529948 57.9042969,39.7011719 C57.9042969,39.4016927 57.9042969,39.2519531 57.9042969,39.2519531 C57.9042969,39.1022135 57.9042969,39.0273438 57.9042969,39.0273438 C57.9042969,39.0273438 57.9042969,39.1022135 57.9042969,39.2519531 C57.9042969,39.4016927 57.9042969,39.5514323 57.9042969,39.7011719 C57.9042969,39.8509115 57.9042969,40.000651 57.9042969,40.1503906 C57.9042969,40.1503906 57.9042969,40.1503906 57.9042969,40.1503906 C57.9042969,40.1503906 57.9042969,40.1503906 57.9042969,40.1503906 C57.9042969,40.000651 57.9042969,39.8509115 57.9042969,39.7011719 Z M62.8457031,43.7441406 C62.6959635,43.7441406 62.546224,43.8190104 62.3964844,43.96875 C62.0970052,43.96875 61.8723958,43.96875 61.7226562,43.96875 C61.5729167,43.96875 61.3483073,43.96875 61.0488281,43.96875 C60.8990885,43.8190104 60.749349,43.7441406 60.5996094,43.7441406 C60.5996094,43.594401 60.5996094,43.3697917 60.5996094,43.0703125 C60.749349,43.2200521 60.8990885,43.2949219 61.0488281,43.2949219 C61.3483073,43.2949219 61.5729167,43.2949219 61.7226562,43.2949219 C61.8723958,43.2949219 62.0970052,43.2949219 62.3964844,43.2949219 C62.546224,43.2949219 62.6959635,43.2200521 62.8457031,43.0703125 C62.8457031,43.2200521 62.8457031,43.3697917 62.8457031,43.5195312 C62.8457031,43.5195312 62.8457031,43.594401 62.8457031,43.7441406 Z M49.59375,31.390625 C49.7434896,31.5403646 49.8183594,31.6152344 49.8183594,31.6152344 C49.968099,31.6152344 50.0429688,31.6901042 50.0429688,31.8398438 C50.0429688,31.9895833 50.0429688,32.0644531 50.0429688,32.0644531 C50.1927083,32.2141927 50.2675781,32.2890625 50.2675781,32.2890625 C50.2675781,34.2356771 50.2675781,36.5566406 50.2675781,39.2519531 C50.2675781,42.0970052 50.2675781,45.391276 50.2675781,49.1347656 C50.2675781,49.1347656 50.1927083,49.2096354 50.0429688,49.359375 C50.0429688,49.5091146 49.968099,49.6588542 49.8183594,49.8085938 C49.8183594,49.8085938 49.7434896,49.8834635 49.59375,50.0332031 C49.4440104,50.0332031 49.2942708,50.0332031 49.1445312,50.0332031 C48.9947917,50.0332031 48.9199219,50.0332031 48.9199219,50.0332031 C48.7701823,49.8834635 48.6204427,49.8085938 48.4707031,49.8085938 C48.4707031,49.6588542 48.3958333,49.5091146 48.2460938,49.359375 C48.2460938,49.2096354 48.2460938,49.1347656 48.2460938,49.1347656 C48.2460938,47.4876302 48.2460938,45.4661458 48.2460938,43.0703125 C48.2460938,40.6744792 48.2460938,37.9042969 48.2460938,34.7597656 C48.0963542,34.7597656 48.0214844,34.8346354 48.0214844,34.984375 C47.8717448,35.1341146 47.7220052,35.2838542 47.5722656,35.4335938 C47.422526,35.5833333 47.3476562,35.6582031 47.3476562,35.6582031 C47.1979167,35.6582031 47.0481771,35.6582031 46.8984375,35.6582031 C46.7486979,35.6582031 46.5989583,35.6582031 46.4492188,35.6582031 C46.4492188,35.6582031 46.374349,35.5833333 46.2246094,35.4335938 C46.0748698,35.2838542 46,35.2089844 46,35.2089844 C46,35.0592448 46,34.9095052 46,34.7597656 C46,34.610026 46,34.4602865 46,34.3105469 C46,34.1608073 46.0748698,34.0859375 46.2246094,34.0859375 C46.5240885,33.7864583 46.8235677,33.4121094 47.1230469,32.9628906 C47.5722656,32.6634115 48.0214844,32.2141927 48.4707031,31.6152344 C48.6204427,31.6152344 48.6953125,31.6152344 48.6953125,31.6152344 C48.8450521,31.4654948 48.9947917,31.390625 49.1445312,31.390625 C49.1445312,31.390625 49.1445312,31.390625 49.1445312,31.390625 C49.1445312,31.390625 49.1445312,31.390625 49.1445312,31.390625 C49.2942708,31.390625 49.3691406,31.390625 49.3691406,31.390625 C49.5188802,31.390625 49.59375,31.390625 49.59375,31.390625 Z M100.355469,72.9433594 C101.253906,72.344401 101.927734,71.8203125 102.376953,71.3710938 C102.975911,70.921875 103.35026,70.547526 103.5,70.2480469 C103.799479,69.7988281 104.024089,69.4244792 104.173828,69.125 C104.173828,68.8255208 104.173828,68.5260417 104.173828,68.2265625 C104.173828,68.0768229 104.173828,67.9270833 104.173828,67.7773438 C104.173828,67.7773438 104.173828,67.702474 104.173828,67.5527344 C104.173828,67.4029948 104.173828,67.2532552 104.173828,67.1035156 C104.173828,67.1035156 104.098958,67.0286458 103.949219,66.8789062 C103.949219,66.5794271 103.799479,66.3548177 103.5,66.2050781 C103.35026,66.0553385 103.200521,65.905599 103.050781,65.7558594 C102.751302,65.6061198 102.451823,65.4563802 102.152344,65.3066406 C101.703125,65.3066406 101.253906,65.3066406 100.804688,65.3066406 C100.505208,65.3066406 100.130859,65.3066406 99.6816406,65.3066406 C99.3821615,65.4563802 99.1575521,65.6061198 99.0078125,65.7558594 C98.7083333,65.905599 98.483724,66.1302083 98.3339844,66.4296875 C98.0345052,66.5794271 97.8098958,66.8040365 97.6601562,67.1035156 C97.6601562,67.2532552 97.5852865,67.4029948 97.4355469,67.5527344 C97.4355469,67.5527344 97.3606771,67.5527344 97.2109375,67.5527344 C97.0611979,67.702474 96.9114583,67.7773438 96.7617188,67.7773438 C96.6119792,67.7773438 96.4622396,67.702474 96.3125,67.5527344 C96.3125,67.5527344 96.2376302,67.4778646 96.0878906,67.328125 C95.938151,67.328125 95.8632812,67.2532552 95.8632812,67.1035156 C95.8632812,66.953776 95.8632812,66.8040365 95.8632812,66.6542969 C95.8632812,66.5045573 95.8632812,66.4296875 95.8632812,66.4296875 C96.1627604,65.8307292 96.4622396,65.3815104 96.7617188,65.0820312 C97.0611979,64.6328125 97.4355469,64.3333333 97.8847656,64.1835938 C98.3339844,63.8841146 98.7832031,63.6595052 99.2324219,63.5097656 C99.6816406,63.360026 100.205729,63.2851562 100.804688,63.2851562 C101.852865,63.2851562 102.676432,63.4348958 103.275391,63.734375 C104.024089,64.0338542 104.623047,64.4082031 105.072266,64.8574219 C105.371745,65.4563802 105.671224,65.9804688 105.970703,66.4296875 C106.120443,67.0286458 106.195312,67.6276042 106.195312,68.2265625 C106.195312,68.8255208 106.120443,69.3496094 105.970703,69.7988281 C105.820964,70.3977865 105.521484,70.9967448 105.072266,71.5957031 C104.772786,72.0449219 104.248698,72.4941406 103.5,72.9433594 C102.901042,73.5423177 102.227214,74.0664062 101.478516,74.515625 C100.729818,74.9648438 100.130859,75.4140625 99.6816406,75.8632812 C99.2324219,76.3125 98.8580729,76.8365885 98.5585938,77.4355469 C98.2591146,77.8847656 97.9596354,78.3339844 97.6601562,78.7832031 C97.5104167,79.2324219 97.3606771,79.6067708 97.2109375,79.90625 C98.109375,79.90625 99.3072917,79.90625 100.804688,79.90625 C102.152344,79.90625 103.724609,79.90625 105.521484,79.90625 C105.671224,79.90625 105.746094,79.9811198 105.746094,80.1308594 C105.895833,80.1308594 106.045573,80.2057292 106.195312,80.3554688 C106.345052,80.3554688 106.419922,80.4303385 106.419922,80.5800781 C106.419922,80.7298177 106.419922,80.8795573 106.419922,81.0292969 C106.419922,81.0292969 106.419922,81.1041667 106.419922,81.2539062 C106.419922,81.4036458 106.345052,81.5533854 106.195312,81.703125 C106.045573,81.703125 105.970703,81.7779948 105.970703,81.9277344 C105.820964,81.9277344 105.671224,81.9277344 105.521484,81.9277344 C104.772786,81.9277344 103.949219,81.9277344 103.050781,81.9277344 C102.302083,81.9277344 101.553385,81.9277344 100.804688,81.9277344 C100.05599,81.9277344 99.3072917,81.9277344 98.5585938,81.9277344 C97.6601562,81.9277344 96.8365885,81.9277344 96.0878906,81.9277344 C96.0878906,81.9277344 96.0130208,81.9277344 95.8632812,81.9277344 C95.8632812,81.9277344 95.7884115,81.9277344 95.6386719,81.9277344 C95.6386719,81.7779948 95.6386719,81.703125 95.6386719,81.703125 C95.4889323,81.703125 95.4140625,81.703125 95.4140625,81.703125 C95.4140625,81.5533854 95.3391927,81.4785156 95.1894531,81.4785156 C95.1894531,81.328776 95.1894531,81.2539062 95.1894531,81.2539062 C95.1894531,81.2539062 95.1894531,81.1790365 95.1894531,81.0292969 C95.1894531,81.0292969 95.1894531,81.0292969 95.1894531,81.0292969 C95.1894531,80.8795573 95.1894531,80.8046875 95.1894531,80.8046875 C95.1894531,80.8046875 95.1894531,80.8046875 95.1894531,80.8046875 C95.1894531,80.8046875 95.1894531,80.6549479 95.1894531,80.3554688 C95.3391927,80.2057292 95.4140625,79.90625 95.4140625,79.4570312 C95.5638021,79.0078125 95.7135417,78.5585938 95.8632812,78.109375 C96.1627604,77.5104167 96.4622396,76.9114583 96.7617188,76.3125 C97.0611979,76.0130208 97.2858073,75.7135417 97.4355469,75.4140625 C97.735026,75.1145833 98.0345052,74.8151042 98.3339844,74.515625 C98.6334635,74.2161458 98.9329427,73.9166667 99.2324219,73.6171875 C99.531901,73.4674479 99.90625,73.2428385 100.355469,72.9433594 Z M99.6816406,141 C99.6816406,140.85026 99.6816406,140.700521 99.6816406,140.550781 C99.8313802,140.401042 99.90625,140.326172 99.90625,140.326172 C100.05599,140.176432 100.130859,140.101562 100.130859,140.101562 C100.280599,140.101562 100.430339,140.101562 100.580078,140.101562 C101.029297,140.101562 101.403646,140.101562 101.703125,140.101562 C102.152344,140.251302 102.526693,140.326172 102.826172,140.326172 C103.125651,140.475911 103.35026,140.625651 103.5,140.775391 C103.64974,140.775391 103.874349,140.85026 104.173828,141 C103.57487,141.299479 103.050781,141.524089 102.601562,141.673828 C102.002604,141.823568 101.328776,141.898438 100.580078,141.898438 C100.580078,141.898438 100.505208,141.898438 100.355469,141.898438 C100.205729,141.898438 100.05599,141.823568 99.90625,141.673828 C99.90625,141.524089 99.8313802,141.449219 99.6816406,141.449219 C99.6816406,141.299479 99.6816406,141.14974 99.6816406,141 Z M104.173828,141 C103.874349,140.85026 103.64974,140.775391 103.5,140.775391 C103.35026,140.625651 103.125651,140.475911 102.826172,140.326172 C102.526693,140.326172 102.152344,140.251302 101.703125,140.101562 C101.403646,140.101562 101.029297,140.101562 100.580078,140.101562 C100.580078,140.101562 100.580078,140.101562 100.580078,140.101562 C100.580078,140.101562 100.580078,140.101562 100.580078,140.101562 C101.179036,140.101562 101.703125,140.026693 102.152344,139.876953 C102.601562,139.727214 102.975911,139.502604 103.275391,139.203125 C103.724609,138.903646 104.024089,138.604167 104.173828,138.304688 C104.323568,138.005208 104.398438,137.630859 104.398438,137.181641 C104.398438,136.882161 104.398438,136.657552 104.398438,136.507812 C104.248698,136.358073 104.173828,136.208333 104.173828,136.058594 C104.024089,135.908854 103.949219,135.759115 103.949219,135.609375 C103.799479,135.459635 103.724609,135.384766 103.724609,135.384766 C103.57487,135.235026 103.42513,135.085286 103.275391,134.935547 C102.975911,134.785807 102.751302,134.710938 102.601562,134.710938 C102.451823,134.561198 102.302083,134.486328 102.152344,134.486328 C101.852865,134.336589 101.628255,134.261719 101.478516,134.261719 C101.179036,134.261719 100.879557,134.336589 100.580078,134.486328 C100.280599,134.486328 99.9811198,134.561198 99.6816406,134.710938 C99.3821615,134.860677 99.1575521,135.010417 99.0078125,135.160156 C98.7083333,135.309896 98.483724,135.459635 98.3339844,135.609375 C98.1842448,135.759115 98.109375,135.833984 98.109375,135.833984 C97.9596354,135.833984 97.8098958,135.833984 97.6601562,135.833984 C97.5104167,135.833984 97.3606771,135.833984 97.2109375,135.833984 C97.2109375,135.833984 97.1360677,135.759115 96.9863281,135.609375 C96.8365885,135.609375 96.7617188,135.534505 96.7617188,135.384766 C96.6119792,135.235026 96.5371094,135.085286 96.5371094,134.935547 C96.5371094,134.935547 96.6119792,134.860677 96.7617188,134.710938 C96.7617188,134.561198 96.7617188,134.411458 96.7617188,134.261719 C97.0611979,133.96224 97.4355469,133.73763 97.8847656,133.587891 C98.1842448,133.288411 98.483724,133.063802 98.7832031,132.914062 C99.2324219,132.764323 99.6816406,132.614583 100.130859,132.464844 C100.580078,132.464844 101.029297,132.464844 101.478516,132.464844 C101.777995,132.464844 102.077474,132.464844 102.376953,132.464844 C102.826172,132.614583 103.200521,132.764323 103.5,132.914062 C103.799479,132.914062 104.098958,133.063802 104.398438,133.363281 C104.548177,133.513021 104.772786,133.66276 105.072266,133.8125 C105.222005,134.111979 105.371745,134.411458 105.521484,134.710938 C105.820964,134.860677 105.970703,135.085286 105.970703,135.384766 C106.120443,135.684245 106.195312,135.983724 106.195312,136.283203 C106.345052,136.582682 106.419922,136.882161 106.419922,137.181641 C106.419922,137.181641 106.419922,137.181641 106.419922,137.181641 C106.419922,137.181641 106.419922,137.181641 106.419922,137.181641 C106.419922,137.930339 106.270182,138.529297 105.970703,138.978516 C105.671224,139.577474 105.222005,140.101562 104.623047,140.550781 C104.623047,140.700521 104.548177,140.775391 104.398438,140.775391 C104.248698,140.92513 104.173828,141 104.173828,141 Z M106.419922,145.492188 C106.419922,146.390625 106.270182,147.139323 105.970703,147.738281 C105.671224,148.33724 105.222005,148.936198 104.623047,149.535156 C104.024089,149.984375 103.35026,150.358724 102.601562,150.658203 C102.002604,150.957682 101.253906,151.107422 100.355469,151.107422 C99.7565104,151.107422 99.2324219,151.032552 98.7832031,150.882812 C98.3339844,150.733073 97.8847656,150.508464 97.4355469,150.208984 C96.9863281,150.059245 96.5371094,149.834635 96.0878906,149.535156 C95.7884115,149.085938 95.4889323,148.711589 95.1894531,148.412109 C95.1894531,148.26237 95.1894531,148.11263 95.1894531,147.962891 C95.0397135,147.962891 94.9648438,147.888021 94.9648438,147.738281 C94.9648438,147.738281 94.9648438,147.738281 94.9648438,147.738281 C94.9648438,147.738281 94.9648438,147.663411 94.9648438,147.513672 C95.1145833,147.513672 95.1894531,147.438802 95.1894531,147.289062 C95.3391927,147.139323 95.4140625,147.064453 95.4140625,147.064453 C95.5638021,146.914714 95.7135417,146.839844 95.8632812,146.839844 C96.0130208,146.839844 96.1627604,146.839844 96.3125,146.839844 C96.3125,146.839844 96.3873698,146.914714 96.5371094,147.064453 C96.686849,147.064453 96.7617188,147.139323 96.7617188,147.289062 C97.0611979,147.588542 97.2858073,147.813151 97.4355469,147.962891 C97.735026,148.26237 98.0345052,148.486979 98.3339844,148.636719 C98.6334635,148.786458 98.9329427,148.936198 99.2324219,149.085938 C99.531901,149.085938 99.90625,149.085938 100.355469,149.085938 C100.804688,149.085938 101.253906,149.011068 101.703125,148.861328 C102.152344,148.711589 102.601562,148.486979 103.050781,148.1875 C103.5,147.888021 103.799479,147.513672 103.949219,147.064453 C104.248698,146.615234 104.398438,146.091146 104.398438,145.492188 C104.398438,145.192708 104.398438,144.968099 104.398438,144.818359 C104.398438,144.51888 104.323568,144.294271 104.173828,144.144531 C104.173828,143.845052 104.098958,143.620443 103.949219,143.470703 C103.799479,143.320964 103.64974,143.171224 103.5,143.021484 C103.35026,142.871745 103.125651,142.722005 102.826172,142.572266 C102.676432,142.422526 102.451823,142.347656 102.152344,142.347656 C101.852865,142.197917 101.553385,142.123047 101.253906,142.123047 C100.954427,141.973307 100.654948,141.898438 100.355469,141.898438 C100.205729,141.898438 100.05599,141.898438 99.90625,141.898438 C99.7565104,141.898438 99.6067708,141.823568 99.4570312,141.673828 C99.4570312,141.524089 99.4570312,141.449219 99.4570312,141.449219 C99.3072917,141.299479 99.2324219,141.14974 99.2324219,141 C99.2324219,140.85026 99.3072917,140.700521 99.4570312,140.550781 C99.4570312,140.550781 99.4570312,140.475911 99.4570312,140.326172 C99.6067708,140.176432 99.7565104,140.101562 99.90625,140.101562 C100.05599,140.101562 100.205729,140.101562 100.355469,140.101562 C100.355469,140.101562 100.355469,140.101562 100.355469,140.101562 C100.355469,140.101562 100.430339,140.101562 100.580078,140.101562 C100.430339,140.101562 100.355469,140.101562 100.355469,140.101562 C100.205729,140.101562 100.05599,140.176432 99.90625,140.326172 C99.90625,140.326172 99.8313802,140.401042 99.6816406,140.550781 C99.6816406,140.700521 99.6816406,140.85026 99.6816406,141 C99.6816406,141.14974 99.6816406,141.299479 99.6816406,141.449219 C99.8313802,141.449219 99.90625,141.524089 99.90625,141.673828 C100.05599,141.823568 100.205729,141.898438 100.355469,141.898438 C100.355469,141.898438 100.430339,141.898438 100.580078,141.898438 C101.328776,141.898438 102.002604,141.823568 102.601562,141.673828 C103.050781,141.524089 103.57487,141.299479 104.173828,141 C104.323568,141.14974 104.398438,141.224609 104.398438,141.224609 C104.548177,141.374349 104.697917,141.524089 104.847656,141.673828 C105.147135,141.973307 105.371745,142.272786 105.521484,142.572266 C105.671224,142.722005 105.820964,143.021484 105.970703,143.470703 C106.120443,143.770182 106.195312,144.069661 106.195312,144.369141 C106.345052,144.818359 106.419922,145.192708 106.419922,145.492188 Z"/></svg>