<svg xmlns="http://www.w3.org/2000/svg" width="207" height="207" viewBox="0 0 207 207"><path fill="#131313" d="M142.501953,102.496094 C144.748047,102.496094 146.619792,103.319661 148.117188,104.966797 C149.764323,106.613932 150.587891,108.560547 150.587891,110.806641 C150.587891,124.582682 150.587891,145.396484 150.587891,173.248047 C150.587891,175.494141 149.764323,177.440755 148.117188,179.087891 C146.619792,180.585286 144.748047,181.333984 142.501953,181.333984 C140.255859,181.333984 138.309245,180.585286 136.662109,179.087891 C135.014974,177.440755 134.191406,175.494141 134.191406,173.248047 C134.191406,171.600911 134.191406,169.205078 134.191406,166.060547 C128.052083,173.098307 121.613281,177.365885 114.875,178.863281 C108.136719,180.510417 103.569661,181.333984 101.173828,181.333984 C101.024089,181.333984 100.949219,181.333984 100.949219,181.333984 C100.799479,181.333984 100.724609,181.333984 100.724609,181.333984 C92.7884115,181.333984 85.3763021,179.836589 78.4882812,176.841797 C71.75,173.847005 65.7604167,169.429688 60.5195312,163.589844 C53.4817708,155.653646 48.5403646,145.845703 45.6953125,134.166016 C43.8984375,126.828776 43,119.117187 43,111.03125 C43,106.239583 43.2994792,101.373047 43.8984375,96.4316406 C45.2460938,85.9498698 47.7167969,76.3665365 51.3105469,67.6816406 C54.7545573,58.8470052 59.2467448,51.2851562 64.7871094,44.9960938 C69.8782552,39.0065104 75.6432292,34.3645833 82.0820312,31.0703125 C88.3710938,27.9257812 94.735026,26.3535156 101.173828,26.3535156 C105.815755,26.3535156 111.880208,27.0273438 119.367188,28.375 C127.003906,29.8723958 133.891927,33.391276 140.03125,38.9316406 C141.678385,40.4290365 142.576823,42.3007812 142.726562,44.546875 C142.726562,46.7929688 141.977865,48.7395833 140.480469,50.3867188 C138.983073,52.0338542 137.111328,52.9322917 134.865234,53.0820312 C132.619141,53.2317708 130.672526,52.5579427 129.025391,51.0605469 C124.832682,47.1673177 119.816406,44.7714844 113.976562,43.8730469 C108.136719,42.9746094 103.869141,42.5253906 101.173828,42.5253906 C93.9863281,42.5253906 87.547526,45.2207031 81.8574219,50.6113281 C76.1673177,56.0019531 71.5253906,62.6653646 67.9316406,70.6015625 C65.985026,74.9440104 64.3378906,79.5110677 62.9902344,84.3027344 C61.6425781,88.9446615 60.6692708,93.6614583 60.0703125,98.453125 C58.7226562,109.533854 59.0970052,119.865885 61.1933594,129.449219 C63.4394531,138.882812 67.2578125,146.594401 72.6484375,152.583984 C76.3919271,156.776693 80.6595052,159.921224 85.4511719,162.017578 C90.2428385,164.113932 95.4088542,165.162109 100.949219,165.162109 C103.345052,165.162109 107.013672,164.338542 111.955078,162.691406 C116.896484,161.044271 121.388672,157.076172 125.431641,150.787109 C127.527995,147.343099 129.39974,143.000651 131.046875,137.759766 C132.544271,132.66862 133.517578,126.379557 133.966797,118.892578 C128.576172,118.892578 120.565104,118.892578 109.933594,118.892578 C107.6875,118.892578 105.740885,118.06901 104.09375,116.421875 C102.446615,114.924479 101.623047,113.052734 101.623047,110.806641 C101.623047,108.560547 102.446615,106.613932 104.09375,104.966797 C105.740885,103.319661 107.6875,102.496094 109.933594,102.496094 C115.324219,102.496094 120.714844,102.496094 126.105469,102.496094 C131.645833,102.496094 137.111328,102.496094 142.501953,102.496094 Z M161.144531,90.3671875 C161.144531,90.3671875 161.144531,90.3671875 161.144531,90.3671875 C161.144531,105.640625 161.144531,128.700521 161.144531,159.546875 C160.545573,159.546875 159.796875,159.546875 158.898438,159.546875 C158.898438,144.572917 158.898438,122.261719 158.898438,92.6132812 C150.063802,92.6132812 136.811849,92.6132812 119.142578,92.6132812 C119.142578,92.4635417 119.142578,92.2389323 119.142578,91.9394531 C119.142578,91.7897135 119.142578,91.639974 119.142578,91.4902344 C119.142578,91.3404948 119.142578,91.1158854 119.142578,90.8164062 C119.142578,90.6666667 119.142578,90.5169271 119.142578,90.3671875 C126.030599,90.3671875 132.99349,90.3671875 140.03125,90.3671875 C147.06901,90.3671875 154.106771,90.3671875 161.144531,90.3671875 Z M114.201172,95.7578125 C115.249349,95.7578125 116.147786,95.4583333 116.896484,94.859375 C117.645182,94.2604167 118.169271,93.5117188 118.46875,92.6132812 C118.61849,92.6132812 118.768229,92.6132812 118.917969,92.6132812 C118.768229,93.6614583 118.244141,94.5598958 117.345703,95.3085938 C116.447266,96.0572917 115.399089,96.4316406 114.201172,96.4316406 C112.853516,96.4316406 111.730469,95.9075521 110.832031,94.859375 C109.933594,93.9609375 109.484375,92.8378906 109.484375,91.4902344 C109.484375,90.1425781 109.933594,88.9446615 110.832031,87.8964844 C111.730469,86.9980469 112.853516,86.5488281 114.201172,86.5488281 C115.399089,86.5488281 116.447266,86.9231771 117.345703,87.671875 C118.244141,88.4205729 118.768229,89.3190104 118.917969,90.3671875 C118.917969,90.3671875 118.768229,90.3671875 118.46875,90.3671875 C118.169271,89.46875 117.645182,88.7200521 116.896484,88.1210938 C116.147786,87.5221354 115.249349,87.2226562 114.201172,87.2226562 C113.003255,87.2226562 112.029948,87.5970052 111.28125,88.3457031 C110.382812,89.2441406 109.933594,90.2923177 109.933594,91.4902344 C109.933594,92.688151 110.382812,93.6614583 111.28125,94.4101562 C112.029948,95.3085938 113.003255,95.7578125 114.201172,95.7578125 Z M119.142578,90.3671875 C119.142578,90.5169271 119.142578,90.6666667 119.142578,90.8164062 C119.142578,91.1158854 119.142578,91.3404948 119.142578,91.4902344 C119.142578,91.639974 119.142578,91.7897135 119.142578,91.9394531 C119.142578,92.2389323 119.142578,92.4635417 119.142578,92.6132812 C118.992839,92.6132812 118.768229,92.6132812 118.46875,92.6132812 C118.46875,92.4635417 118.54362,92.2389323 118.693359,91.9394531 C118.693359,91.7897135 118.693359,91.639974 118.693359,91.4902344 C118.693359,91.3404948 118.61849,91.1158854 118.46875,90.8164062 C118.46875,90.6666667 118.46875,90.5169271 118.46875,90.3671875 C118.61849,90.3671875 118.693359,90.3671875 118.693359,90.3671875 C118.843099,90.3671875 118.992839,90.3671875 119.142578,90.3671875 Z M114.201172,87.2226562 C115.249349,87.2226562 116.147786,87.5221354 116.896484,88.1210938 C117.645182,88.7200521 118.169271,89.46875 118.46875,90.3671875 C118.31901,90.3671875 118.094401,90.3671875 117.794922,90.3671875 C117.645182,89.6184896 117.195964,88.9446615 116.447266,88.3457031 C115.848307,87.8964844 115.099609,87.671875 114.201172,87.671875 C114.500651,87.671875 114.650391,87.671875 114.650391,87.671875 C114.80013,87.671875 114.875,87.671875 114.875,87.671875 C114.875,87.671875 114.80013,87.671875 114.650391,87.671875 C114.650391,87.671875 114.500651,87.671875 114.201172,87.671875 C114.051432,87.671875 113.901693,87.671875 113.751953,87.671875 C113.751953,87.671875 113.751953,87.671875 113.751953,87.671875 C113.751953,87.671875 113.751953,87.671875 113.751953,87.671875 C113.901693,87.671875 114.051432,87.671875 114.201172,87.671875 C113.152995,87.671875 112.329427,88.046224 111.730469,88.7949219 C110.981771,89.5436198 110.607422,90.4420573 110.607422,91.4902344 C110.607422,92.5384115 110.981771,93.436849 111.730469,94.1855469 C112.329427,94.9342448 113.152995,95.3085938 114.201172,95.3085938 C115.099609,95.3085938 115.848307,95.0091146 116.447266,94.4101562 C117.195964,93.9609375 117.645182,93.3619792 117.794922,92.6132812 C117.944661,92.6132812 118.169271,92.6132812 118.46875,92.6132812 C118.169271,93.5117188 117.645182,94.2604167 116.896484,94.859375 C116.147786,95.4583333 115.249349,95.7578125 114.201172,95.7578125 C113.003255,95.7578125 112.029948,95.3085938 111.28125,94.4101562 C110.382812,93.6614583 109.933594,92.688151 109.933594,91.4902344 C109.933594,90.2923177 110.382812,89.2441406 111.28125,88.3457031 C112.029948,87.5970052 113.003255,87.2226562 114.201172,87.2226562 Z M118.019531,91.4902344 C118.019531,91.1907552 118.019531,90.9661458 118.019531,90.8164062 C118.019531,90.6666667 117.944661,90.5169271 117.794922,90.3671875 C117.944661,90.3671875 118.169271,90.3671875 118.46875,90.3671875 C118.46875,90.5169271 118.46875,90.6666667 118.46875,90.8164062 C118.61849,91.1158854 118.693359,91.3404948 118.693359,91.4902344 C118.693359,91.639974 118.61849,91.7897135 118.46875,91.9394531 C118.46875,92.2389323 118.46875,92.4635417 118.46875,92.6132812 C118.31901,92.6132812 118.094401,92.6132812 117.794922,92.6132812 C117.944661,92.4635417 118.019531,92.2389323 118.019531,91.9394531 C118.019531,91.7897135 118.019531,91.639974 118.019531,91.4902344 Z M161.144531,161.792969 C160.545573,161.792969 159.722005,161.792969 158.673828,161.792969 C158.673828,161.19401 158.673828,160.445312 158.673828,159.546875 C158.224609,159.546875 157.550781,159.546875 156.652344,159.546875 C157.401042,162.242188 158.524089,166.360026 160.021484,171.900391 C160.620443,169.205078 161.66862,165.08724 163.166016,159.546875 C162.716797,159.546875 162.042969,159.546875 161.144531,159.546875 C161.144531,159.996094 161.144531,160.744792 161.144531,161.792969 Z M158.673828,161.792969 C159.272786,161.792969 160.096354,161.792969 161.144531,161.792969 C161.144531,161.19401 161.144531,160.445312 161.144531,159.546875 C160.545573,159.546875 159.722005,159.546875 158.673828,159.546875 C158.673828,159.996094 158.673828,160.744792 158.673828,161.792969 Z M100.724609,16.2460938 C94.8847656,16.2460938 89.0449219,17.3691406 83.2050781,19.6152344 C77.3652344,21.8613281 71.8997396,25.0807292 66.8085938,29.2734375 C66.359375,28.9739583 65.8352865,28.4498698 65.2363281,27.7011719 C70.6269531,23.2089844 76.3170573,19.8398438 82.3066406,17.59375 C88.4459635,15.1979167 94.5852865,14 100.724609,14 C105.067057,14 110.832031,14.5989583 118.019531,15.796875 C125.057292,16.8450521 132.020182,19.4654948 138.908203,23.6582031 C138.908203,23.6582031 138.833333,23.7330729 138.683594,23.8828125 C138.683594,24.0325521 138.608724,24.1074219 138.458984,24.1074219 C138.309245,24.406901 138.159505,24.6315104 138.009766,24.78125 C137.860026,25.0807292 137.785156,25.3802083 137.785156,25.6796875 C131.046875,21.6367188 124.233724,19.016276 117.345703,17.8183594 C110.457682,16.7701823 104.917318,16.2460938 100.724609,16.2460938 Z M66.8085938,29.2734375 C67.1080729,29.5729167 67.5572917,30.0970052 68.15625,30.8457031 C65.7604167,32.1933594 62.0169271,34.2897135 56.9257812,37.1347656 C58.4231771,34.7389323 60.594401,31.0703125 63.4394531,26.1289062 C63.8886719,26.4283854 64.4876302,26.952474 65.2363281,27.7011719 C64.936849,27.8509115 64.6373698,28.0755208 64.3378906,28.375 C64.0384115,28.6744792 63.7389323,28.8990885 63.4394531,29.0488281 C63.7389323,29.4980469 64.2630208,30.0970052 65.0117188,30.8457031 C65.3111979,30.546224 65.6106771,30.3216146 65.9101562,30.171875 C66.2096354,29.8723958 66.5091146,29.5729167 66.8085938,29.2734375 Z M65.0117188,30.8457031 C64.5625,30.3964844 64.0384115,29.797526 63.4394531,29.0488281 C63.7389323,28.749349 64.0384115,28.5247396 64.3378906,28.375 C64.6373698,28.0755208 64.936849,27.8509115 65.2363281,27.7011719 C65.5358073,28.000651 66.0598958,28.5247396 66.8085938,29.2734375 C66.5091146,29.5729167 66.2096354,29.797526 65.9101562,29.9472656 C65.6106771,30.2467448 65.3111979,30.546224 65.0117188,30.8457031 Z M144.972656,23.8828125 C144.223958,23.2838542 143.325521,22.984375 142.277344,22.984375 C141.229167,22.984375 140.255859,23.2838542 139.357422,23.8828125 C139.357422,23.8828125 139.282552,23.8828125 139.132812,23.8828125 C139.132812,23.7330729 139.057943,23.6582031 138.908203,23.6582031 C139.806641,22.9095052 140.854818,22.4602865 142.052734,22.3105469 C143.250651,22.3105469 144.373698,22.6848958 145.421875,23.4335938 C146.470052,24.3320312 147.06901,25.4550781 147.21875,26.8027344 C147.36849,28.1503906 146.994141,29.3483073 146.095703,30.3964844 C145.197266,31.4446615 144.074219,32.0436198 142.726562,32.1933594 C141.378906,32.343099 140.18099,31.96875 139.132812,31.0703125 C138.384115,30.4713542 137.860026,29.6477865 137.560547,28.5996094 C137.261068,27.5514323 137.335938,26.578125 137.785156,25.6796875 C137.785156,25.6796875 137.860026,25.6796875 138.009766,25.6796875 C138.009766,25.8294271 138.084635,25.9042969 138.234375,25.9042969 C137.934896,26.6529948 137.934896,27.4765625 138.234375,28.375 C138.384115,29.2734375 138.833333,30.0221354 139.582031,30.6210938 C140.480469,31.3697917 141.528646,31.6692708 142.726562,31.5195312 C143.924479,31.3697917 144.897786,30.8457031 145.646484,29.9472656 C146.395182,29.0488281 146.694661,28.000651 146.544922,26.8027344 C146.395182,25.6048177 145.871094,24.6315104 144.972656,23.8828125 Z M139.132812,31.0703125 C139.132812,31.0703125 139.057943,30.9954427 138.908203,30.8457031 C138.908203,30.8457031 138.833333,30.8457031 138.683594,30.8457031 C138.833333,30.8457031 138.908203,30.8457031 138.908203,30.8457031 C139.057943,30.8457031 139.132812,30.9205729 139.132812,31.0703125 Z M137.785156,25.6796875 C137.785156,25.3802083 137.860026,25.0807292 138.009766,24.78125 C138.159505,24.6315104 138.309245,24.406901 138.458984,24.1074219 C138.608724,24.1074219 138.683594,24.0325521 138.683594,23.8828125 C138.833333,23.8828125 138.908203,23.8079427 138.908203,23.6582031 C139.057943,23.6582031 139.132812,23.7330729 139.132812,23.8828125 C139.282552,23.8828125 139.432292,23.8828125 139.582031,23.8828125 C139.432292,24.0325521 139.282552,24.1822917 139.132812,24.3320312 C139.132812,24.3320312 139.057943,24.406901 138.908203,24.5566406 C138.758464,24.7063802 138.608724,24.9309896 138.458984,25.2304688 C138.309245,25.3802083 138.234375,25.6048177 138.234375,25.9042969 C138.084635,25.9042969 138.009766,25.8294271 138.009766,25.6796875 C137.860026,25.6796875 137.785156,25.6796875 137.785156,25.6796875 Z M139.582031,30.6210938 C138.833333,30.0221354 138.309245,29.2734375 138.009766,28.375 C137.860026,27.6263021 137.934896,26.8027344 138.234375,25.9042969 C138.234375,25.9042969 138.309245,25.9791667 138.458984,26.1289062 C138.458984,26.1289062 138.533854,26.1289062 138.683594,26.1289062 C138.533854,26.8776042 138.533854,27.6263021 138.683594,28.375 C138.833333,29.1236979 139.282552,29.7226562 140.03125,30.171875 C140.779948,30.7708333 141.678385,31.0703125 142.726562,31.0703125 C143.77474,30.9205729 144.598307,30.3964844 145.197266,29.4980469 C145.796224,28.749349 146.095703,27.8509115 146.095703,26.8027344 C145.945964,25.7545573 145.421875,24.9309896 144.523438,24.3320312 C144.673177,24.4817708 144.822917,24.5566406 144.972656,24.5566406 C144.972656,24.7063802 144.972656,24.78125 144.972656,24.78125 C144.972656,24.78125 144.972656,24.7063802 144.972656,24.5566406 C144.822917,24.5566406 144.673177,24.4817708 144.523438,24.3320312 C144.373698,24.1822917 144.298828,24.1074219 144.298828,24.1074219 C144.149089,23.9576823 144.074219,23.8828125 144.074219,23.8828125 C144.074219,23.8828125 144.149089,23.9576823 144.298828,24.1074219 C144.298828,24.1074219 144.373698,24.1822917 144.523438,24.3320312 C143.924479,23.7330729 143.175781,23.4335938 142.277344,23.4335938 C141.378906,23.4335938 140.630208,23.7330729 140.03125,24.3320312 C139.88151,24.1822917 139.806641,24.1074219 139.806641,24.1074219 C139.656901,24.1074219 139.507161,24.0325521 139.357422,23.8828125 C140.255859,23.2838542 141.229167,22.984375 142.277344,22.984375 C143.325521,22.984375 144.223958,23.2838542 144.972656,23.8828125 C145.871094,24.6315104 146.395182,25.6048177 146.544922,26.8027344 C146.694661,28.000651 146.395182,29.0488281 145.646484,29.9472656 C144.897786,30.8457031 143.924479,31.3697917 142.726562,31.5195312 C141.528646,31.6692708 140.480469,31.3697917 139.582031,30.6210938 Z M139.357422,25.0058594 C139.207682,25.155599 139.057943,25.3053385 138.908203,25.4550781 C138.908203,25.7545573 138.833333,25.9791667 138.683594,26.1289062 C138.683594,26.1289062 138.608724,26.1289062 138.458984,26.1289062 C138.309245,25.9791667 138.234375,25.9042969 138.234375,25.9042969 C138.234375,25.6048177 138.309245,25.3802083 138.458984,25.2304688 C138.608724,24.9309896 138.758464,24.7063802 138.908203,24.5566406 C139.057943,24.406901 139.132812,24.3320312 139.132812,24.3320312 C139.282552,24.1822917 139.432292,24.0325521 139.582031,23.8828125 C139.582031,24.0325521 139.656901,24.1074219 139.806641,24.1074219 C139.806641,24.1074219 139.88151,24.1822917 140.03125,24.3320312 C139.88151,24.3320312 139.731771,24.406901 139.582031,24.5566406 C139.582031,24.7063802 139.507161,24.8561198 139.357422,25.0058594 Z M152.160156,51.9589844 C152.010417,51.8092448 151.935547,51.6595052 151.935547,51.5097656 C151.935547,51.360026 151.935547,51.2851562 151.935547,51.2851562 C151.935547,49.6380208 151.935547,47.6165365 151.935547,45.2207031 C151.935547,42.8248698 151.935547,40.0546875 151.935547,36.9101562 C151.785807,36.9101562 151.636068,36.985026 151.486328,37.1347656 C151.486328,37.2845052 151.411458,37.4342448 151.261719,37.5839844 C151.111979,37.733724 150.96224,37.8085938 150.8125,37.8085938 C150.66276,37.8085938 150.587891,37.8085938 150.587891,37.8085938 C150.438151,37.8085938 150.288411,37.8085938 150.138672,37.8085938 C149.988932,37.8085938 149.839193,37.733724 149.689453,37.5839844 C149.689453,37.4342448 149.614583,37.359375 149.464844,37.359375 C149.464844,37.2096354 149.464844,37.0598958 149.464844,36.9101562 C149.464844,36.7604167 149.464844,36.6106771 149.464844,36.4609375 C149.614583,36.4609375 149.689453,36.3860677 149.689453,36.2363281 C149.988932,35.936849 150.363281,35.5625 150.8125,35.1132812 C151.111979,34.8138021 151.561198,34.3645833 152.160156,33.765625 C152.160156,33.765625 152.235026,33.765625 152.384766,33.765625 C152.384766,33.6158854 152.459635,33.5410156 152.609375,33.5410156 C152.609375,33.5410156 152.684245,33.5410156 152.833984,33.5410156 C152.833984,33.5410156 152.833984,33.5410156 152.833984,33.5410156 C152.833984,33.5410156 152.908854,33.5410156 153.058594,33.5410156 C153.058594,33.5410156 153.133464,33.5410156 153.283203,33.5410156 C153.283203,33.6907552 153.358073,33.765625 153.507812,33.765625 C153.507812,33.9153646 153.582682,33.9902344 153.732422,33.9902344 C153.732422,34.139974 153.732422,34.2148438 153.732422,34.2148438 C153.732422,34.3645833 153.732422,34.4394531 153.732422,34.4394531 C153.732422,36.3860677 153.732422,38.7070312 153.732422,41.4023438 C153.732422,44.2473958 153.732422,47.5416667 153.732422,51.2851562 C153.732422,51.2851562 153.732422,51.360026 153.732422,51.5097656 C153.732422,51.6595052 153.657552,51.8092448 153.507812,51.9589844 C153.358073,51.9589844 153.283203,52.0338542 153.283203,52.1835938 C153.133464,52.1835938 152.983724,52.1835938 152.833984,52.1835938 C152.684245,52.1835938 152.534505,52.1835938 152.384766,52.1835938 C152.384766,52.0338542 152.309896,51.9589844 152.160156,51.9589844 Z M100.5,87.8964844 C101.248698,87.4472656 101.922526,86.9980469 102.521484,86.5488281 C103.120443,86.0996094 103.494792,85.6503906 103.644531,85.2011719 C103.94401,84.9016927 104.09375,84.5273438 104.09375,84.078125 C104.24349,83.7786458 104.318359,83.4791667 104.318359,83.1796875 C104.318359,83.0299479 104.318359,82.9550781 104.318359,82.9550781 C104.318359,82.8053385 104.318359,82.655599 104.318359,82.5058594 C104.318359,82.5058594 104.24349,82.4309896 104.09375,82.28125 C104.09375,82.1315104 104.09375,81.9817708 104.09375,81.8320312 C103.94401,81.6822917 103.794271,81.5325521 103.644531,81.3828125 C103.494792,81.0833333 103.345052,80.858724 103.195312,80.7089844 C102.895833,80.5592448 102.521484,80.484375 102.072266,80.484375 C101.772786,80.3346354 101.398438,80.2597656 100.949219,80.2597656 C100.5,80.2597656 100.125651,80.3346354 99.8261719,80.484375 C99.5266927,80.484375 99.2272135,80.5592448 98.9277344,80.7089844 C98.7779948,80.858724 98.5533854,81.0833333 98.2539062,81.3828125 C98.1041667,81.5325521 97.9544271,81.8320312 97.8046875,82.28125 C97.8046875,82.28125 97.7298177,82.3561198 97.5800781,82.5058594 C97.4303385,82.655599 97.280599,82.7304688 97.1308594,82.7304688 C97.1308594,82.7304688 97.0559896,82.7304688 96.90625,82.7304688 C96.7565104,82.7304688 96.6067708,82.7304688 96.4570312,82.7304688 C96.3072917,82.5807292 96.2324219,82.5058594 96.2324219,82.5058594 C96.0826823,82.3561198 96.0078125,82.2063802 96.0078125,82.0566406 C96.0078125,81.906901 96.0078125,81.8320312 96.0078125,81.8320312 C96.0078125,81.6822917 96.0078125,81.5325521 96.0078125,81.3828125 C96.1575521,80.9335938 96.4570312,80.484375 96.90625,80.0351562 C97.2057292,79.7356771 97.5800781,79.4361979 98.0292969,79.1367188 C98.328776,78.8372396 98.7779948,78.6126302 99.3769531,78.4628906 C99.8261719,78.4628906 100.35026,78.4628906 100.949219,78.4628906 C101.847656,78.4628906 102.671224,78.5377604 103.419922,78.6875 C104.16862,78.9869792 104.692708,79.4361979 104.992188,80.0351562 C105.441406,80.484375 105.740885,81.0084635 105.890625,81.6074219 C106.190104,82.0566406 106.339844,82.5807292 106.339844,83.1796875 C106.339844,83.7786458 106.190104,84.3776042 105.890625,84.9765625 C105.740885,85.5755208 105.516276,86.0996094 105.216797,86.5488281 C104.767578,86.9980469 104.24349,87.5221354 103.644531,88.1210938 C103.045573,88.5703125 102.296875,89.094401 101.398438,89.6933594 C100.799479,90.1425781 100.275391,90.5917969 99.8261719,91.0410156 C99.2272135,91.4902344 98.7779948,91.9394531 98.4785156,92.3886719 C98.1790365,92.9876302 97.9544271,93.5117188 97.8046875,93.9609375 C97.6549479,94.4101562 97.5052083,94.7845052 97.3554688,95.0839844 C98.2539062,95.0839844 99.3769531,95.0839844 100.724609,95.0839844 C102.072266,95.0839844 103.644531,95.0839844 105.441406,95.0839844 C105.591146,95.0839844 105.740885,95.0839844 105.890625,95.0839844 C106.040365,95.0839844 106.115234,95.1588542 106.115234,95.3085938 C106.264974,95.4583333 106.339844,95.5332031 106.339844,95.5332031 C106.489583,95.6829427 106.564453,95.8326823 106.564453,95.9824219 C106.564453,96.1321615 106.489583,96.281901 106.339844,96.4316406 C106.339844,96.4316406 106.264974,96.5065104 106.115234,96.65625 C106.115234,96.8059896 106.040365,96.8808594 105.890625,96.8808594 C105.740885,96.8808594 105.591146,96.8808594 105.441406,96.8808594 C104.692708,96.8808594 103.94401,96.8808594 103.195312,96.8808594 C102.446615,96.8808594 101.697917,96.8808594 100.949219,96.8808594 C100.050781,96.8808594 99.2272135,96.8808594 98.4785156,96.8808594 C97.7298177,96.8808594 96.9811198,96.8808594 96.2324219,96.8808594 C96.0826823,96.8808594 96.0078125,96.8808594 96.0078125,96.8808594 C95.8580729,96.8808594 95.7832031,96.8808594 95.7832031,96.8808594 C95.7832031,96.8808594 95.7083333,96.8808594 95.5585938,96.8808594 C95.5585938,96.7311198 95.5585938,96.65625 95.5585938,96.65625 C95.4088542,96.65625 95.3339844,96.5813802 95.3339844,96.4316406 C95.3339844,96.4316406 95.3339844,96.4316406 95.3339844,96.4316406 C95.3339844,96.281901 95.2591146,96.2070312 95.109375,96.2070312 C95.109375,96.0572917 95.109375,95.9824219 95.109375,95.9824219 C95.109375,95.9824219 95.109375,95.9824219 95.109375,95.9824219 C95.109375,95.9824219 95.109375,95.9824219 95.109375,95.9824219 C95.109375,95.8326823 95.1842448,95.6829427 95.3339844,95.5332031 C95.3339844,95.233724 95.4088542,94.859375 95.5585938,94.4101562 C95.5585938,93.9609375 95.7083333,93.5117188 96.0078125,93.0625 C96.1575521,92.6132812 96.4570312,92.0891927 96.90625,91.4902344 C97.0559896,91.1907552 97.280599,90.891276 97.5800781,90.5917969 C97.7298177,90.2923177 97.9544271,89.9928385 98.2539062,89.6933594 C98.5533854,89.3938802 98.9277344,89.094401 99.3769531,88.7949219 C99.6764323,88.4954427 100.050781,88.1959635 100.5,87.8964844 Z"/></svg>