<svg xmlns="http://www.w3.org/2000/svg" width="207" height="207" viewBox="0 0 207 207"><path fill="#131313" d="M95,172.894531 C95,142.048177 95,95.7786458 95,34.0859375 C95,31.8398438 95.7486979,29.8932292 97.2460938,28.2460938 C98.8932292,26.7486979 100.839844,26 103.085938,26 C105.332031,26 107.278646,26.7486979 108.925781,28.2460938 C110.423177,29.8932292 111.171875,31.8398438 111.171875,34.0859375 C111.171875,64.9322917 111.171875,111.201823 111.171875,172.894531 C111.171875,175.140625 110.423177,177.08724 108.925781,178.734375 C107.278646,180.231771 105.332031,180.980469 103.085938,180.980469 C100.839844,180.980469 98.8932292,180.231771 97.2460938,178.734375 C95.7486979,177.08724 95,175.140625 95,172.894531 Z M81.9257812,38.1289062 C82.2252604,38.1289062 82.4498698,38.203776 82.5996094,38.3535156 C82.749349,38.3535156 82.9739583,38.3535156 83.2734375,38.3535156 C83.4231771,38.3535156 83.5729167,38.3535156 83.7226562,38.3535156 C83.8723958,38.203776 84.0970052,38.1289062 84.3964844,38.1289062 C84.3964844,44.7174479 84.3964844,54.5253906 84.3964844,67.5527344 C83.797526,67.5527344 82.9739583,67.5527344 81.9257812,67.5527344 C81.9257812,62.6113281 81.9257812,57.6699219 81.9257812,52.7285156 C81.9257812,47.936849 81.9257812,43.0703125 81.9257812,38.1289062 Z M84.3964844,69.7988281 C84.3964844,69.3496094 84.3964844,68.6009115 84.3964844,67.5527344 C84.8457031,67.5527344 85.5195312,67.5527344 86.4179688,67.5527344 C85.6692708,70.2480469 84.6210938,74.3658854 83.2734375,79.90625 C82.5247396,77.2109375 81.4016927,73.093099 79.9042969,67.5527344 C80.3535156,67.5527344 81.0273438,67.5527344 81.9257812,67.5527344 C81.9257812,68.0019531 81.9257812,68.750651 81.9257812,69.7988281 C82.5247396,69.7988281 83.3483073,69.7988281 84.3964844,69.7988281 Z M81.9257812,69.7988281 C82.5247396,69.7988281 83.3483073,69.7988281 84.3964844,69.7988281 C84.3964844,69.3496094 84.3964844,68.6009115 84.3964844,67.5527344 C83.797526,67.5527344 82.9739583,67.5527344 81.9257812,67.5527344 C81.9257812,68.0019531 81.9257812,68.750651 81.9257812,69.7988281 Z M83.2734375,28.4707031 C84.6210938,28.4707031 85.7441406,28.9947917 86.6425781,30.0429688 C87.5410156,30.9414062 87.9902344,32.0644531 87.9902344,33.4121094 C87.9902344,34.610026 87.6907552,35.5833333 87.0917969,36.3320312 C86.343099,37.2304688 85.4446615,37.8294271 84.3964844,38.1289062 C84.3964844,37.9791667 84.3964844,37.7545573 84.3964844,37.4550781 C85.2949219,37.3053385 86.0436198,36.8561198 86.6425781,36.1074219 C87.2415365,35.358724 87.5410156,34.4602865 87.5410156,33.4121094 C87.5410156,32.2141927 87.0917969,31.1660156 86.1933594,30.2675781 C85.4446615,29.5188802 84.4713542,29.1445312 83.2734375,29.1445312 C82.0755208,29.1445312 81.0273438,29.5188802 80.1289062,30.2675781 C79.2304688,31.1660156 78.78125,32.2141927 78.78125,33.4121094 C78.78125,34.4602865 79.0807292,35.358724 79.6796875,36.1074219 C80.2786458,36.8561198 81.0273438,37.3053385 81.9257812,37.4550781 C81.9257812,37.6048177 81.9257812,37.8294271 81.9257812,38.1289062 C80.8776042,37.8294271 80.0540365,37.2304688 79.4550781,36.3320312 C78.7063802,35.5833333 78.3320312,34.610026 78.3320312,33.4121094 C78.3320312,32.0644531 78.78125,30.9414062 79.6796875,30.0429688 C80.578125,28.9947917 81.7760417,28.4707031 83.2734375,28.4707031 Z M83.2734375,37.6796875 C83.4231771,37.6796875 83.5729167,37.6796875 83.7226562,37.6796875 C83.8723958,37.6796875 84.0970052,37.6048177 84.3964844,37.4550781 C84.3964844,37.6048177 84.3964844,37.8294271 84.3964844,38.1289062 C84.0970052,38.1289062 83.8723958,38.203776 83.7226562,38.3535156 C83.5729167,38.3535156 83.4231771,38.3535156 83.2734375,38.3535156 C82.9739583,38.3535156 82.749349,38.3535156 82.5996094,38.3535156 C82.4498698,38.203776 82.2252604,38.1289062 81.9257812,38.1289062 C81.9257812,37.9791667 81.9257812,37.7545573 81.9257812,37.4550781 C82.2252604,37.6048177 82.4498698,37.6796875 82.5996094,37.6796875 C82.749349,37.6796875 82.9739583,37.6796875 83.2734375,37.6796875 Z M79.4550781,33.4121094 C79.4550781,34.1608073 79.6796875,34.9095052 80.1289062,35.6582031 C80.578125,36.2571615 81.1770833,36.7063802 81.9257812,37.0058594 C81.9257812,37.155599 81.9257812,37.3053385 81.9257812,37.4550781 C81.0273438,37.3053385 80.2786458,36.8561198 79.6796875,36.1074219 C79.0807292,35.358724 78.78125,34.4602865 78.78125,33.4121094 C78.78125,32.2141927 79.2304688,31.1660156 80.1289062,30.2675781 C81.0273438,29.5188802 82.0755208,29.1445312 83.2734375,29.1445312 C84.4713542,29.1445312 85.4446615,29.5188802 86.1933594,30.2675781 C87.0917969,31.1660156 87.5410156,32.2141927 87.5410156,33.4121094 C87.5410156,34.4602865 87.2415365,35.358724 86.6425781,36.1074219 C86.0436198,36.8561198 85.2949219,37.3053385 84.3964844,37.4550781 C84.3964844,37.3053385 84.3964844,37.155599 84.3964844,37.0058594 C85.1451823,36.7063802 85.7441406,36.2571615 86.1933594,35.6582031 C86.6425781,34.9095052 86.8671875,34.1608073 86.8671875,33.4121094 C86.8671875,32.3639323 86.4928385,31.4654948 85.7441406,30.7167969 C84.9954427,29.968099 84.171875,29.59375 83.2734375,29.59375 C82.2252604,29.59375 81.3268229,29.968099 80.578125,30.7167969 C79.8294271,31.4654948 79.4550781,32.3639323 79.4550781,33.4121094 C79.4550781,33.2623698 79.4550781,33.1126302 79.4550781,32.9628906 C79.4550781,32.813151 79.4550781,32.7382812 79.4550781,32.7382812 C79.4550781,32.7382812 79.4550781,32.813151 79.4550781,32.9628906 C79.4550781,33.1126302 79.4550781,33.2623698 79.4550781,33.4121094 C79.4550781,33.561849 79.4550781,33.7115885 79.4550781,33.8613281 C79.4550781,33.8613281 79.4550781,33.9361979 79.4550781,34.0859375 C79.4550781,33.9361979 79.4550781,33.8613281 79.4550781,33.8613281 C79.4550781,33.7115885 79.4550781,33.561849 79.4550781,33.4121094 Z M84.3964844,37.4550781 C84.0970052,37.6048177 83.8723958,37.6796875 83.7226562,37.6796875 C83.5729167,37.6796875 83.4231771,37.6796875 83.2734375,37.6796875 C82.9739583,37.6796875 82.749349,37.6796875 82.5996094,37.6796875 C82.4498698,37.6796875 82.2252604,37.6048177 81.9257812,37.4550781 C81.9257812,37.3053385 81.9257812,37.155599 81.9257812,37.0058594 C82.2252604,37.0058594 82.4498698,37.0058594 82.5996094,37.0058594 C82.749349,37.155599 82.9739583,37.2304688 83.2734375,37.2304688 C83.4231771,37.2304688 83.5729167,37.155599 83.7226562,37.0058594 C83.8723958,37.0058594 84.0970052,37.0058594 84.3964844,37.0058594 C84.3964844,37.0058594 84.3964844,37.0807292 84.3964844,37.2304688 C84.3964844,37.3802083 84.3964844,37.4550781 84.3964844,37.4550781 Z M70.6953125,47.3378906 C70.5455729,47.188151 70.4707031,47.0384115 70.4707031,46.8886719 C70.3209635,46.8886719 70.2460938,46.8138021 70.2460938,46.6640625 C70.2460938,45.0169271 70.2460938,42.9954427 70.2460938,40.5996094 C70.2460938,38.203776 70.2460938,35.4335938 70.2460938,32.2890625 C70.2460938,32.4388021 70.171224,32.5136719 70.0214844,32.5136719 C69.8717448,32.6634115 69.7220052,32.813151 69.5722656,32.9628906 C69.5722656,33.1126302 69.4973958,33.1875 69.3476562,33.1875 C69.1979167,33.1875 69.0481771,33.1875 68.8984375,33.1875 C68.8984375,33.1875 68.8235677,33.1875 68.6738281,33.1875 C68.5240885,33.1875 68.374349,33.1126302 68.2246094,32.9628906 C68.2246094,32.9628906 68.1497396,32.8880208 68,32.7382812 C68,32.5885417 68,32.4388021 68,32.2890625 C68,32.1393229 68,31.9895833 68,31.8398438 C68.1497396,31.8398438 68.2246094,31.764974 68.2246094,31.6152344 C68.5240885,31.3157552 68.8984375,31.016276 69.3476562,30.7167969 C69.6471354,30.2675781 70.0963542,29.7434896 70.6953125,29.1445312 C70.6953125,29.1445312 70.7701823,29.1445312 70.9199219,29.1445312 C70.9199219,29.1445312 70.9947917,29.0696615 71.1445312,28.9199219 C71.1445312,28.9199219 71.1445312,28.9199219 71.1445312,28.9199219 C71.2942708,28.9199219 71.3691406,28.9199219 71.3691406,28.9199219 C71.3691406,28.9199219 71.4440104,28.9199219 71.59375,28.9199219 C71.59375,28.9199219 71.6686198,28.9947917 71.8183594,29.1445312 C71.8183594,29.1445312 71.8932292,29.1445312 72.0429688,29.1445312 C72.0429688,29.2942708 72.0429688,29.3691406 72.0429688,29.3691406 C72.1927083,29.5188802 72.2675781,29.59375 72.2675781,29.59375 C72.2675781,29.7434896 72.2675781,29.8932292 72.2675781,30.0429688 C72.2675781,31.8398438 72.2675781,34.1608073 72.2675781,37.0058594 C72.2675781,39.7011719 72.2675781,42.9205729 72.2675781,46.6640625 C72.2675781,46.8138021 72.2675781,46.8886719 72.2675781,46.8886719 C72.1178385,47.0384115 72.0429688,47.188151 72.0429688,47.3378906 C71.8932292,47.3378906 71.7434896,47.4127604 71.59375,47.5625 C71.59375,47.5625 71.5188802,47.5625 71.3691406,47.5625 C71.219401,47.5625 71.0696615,47.5625 70.9199219,47.5625 C70.7701823,47.4127604 70.6953125,47.3378906 70.6953125,47.3378906 Z"/></svg>