<svg xmlns="http://www.w3.org/2000/svg" width="207" height="207" viewBox="0 0 207 207"><path fill="#131313" d="M136.447266,164.808594 C138.693359,164.808594 140.565104,165.557292 142.0625,167.054688 C143.709635,168.701823 144.533203,170.648438 144.533203,172.894531 C144.533203,175.140625 143.709635,177.08724 142.0625,178.734375 C140.565104,180.231771 138.693359,180.980469 136.447266,180.980469 C121.922526,180.980469 100.135417,180.980469 71.0859375,180.980469 C68.8398438,180.980469 66.968099,180.231771 65.4707031,178.734375 C63.8235677,177.08724 63,175.140625 63,172.894531 C63,142.048177 63,95.7786458 63,34.0859375 C63,31.8398438 63.8235677,29.8932292 65.4707031,28.2460938 C66.968099,26.7486979 68.8398438,26 71.0859375,26 C73.3320312,26 75.2786458,26.7486979 76.9257812,28.2460938 C78.5729167,29.8932292 79.3964844,31.8398438 79.3964844,34.0859375 C79.3964844,63.1354167 79.3964844,106.709635 79.3964844,164.808594 C88.8300781,164.808594 98.3385417,164.808594 107.921875,164.808594 C117.355469,164.808594 126.863932,164.808594 136.447266,164.808594 Z M124.09375,155.375 C116.157552,155.375 104.178385,155.375 88.15625,155.375 C88.15625,130.36849 88.15625,92.858724 88.15625,42.8457031 C88.3059896,42.9954427 88.530599,43.0703125 88.8300781,43.0703125 C88.9798177,43.0703125 89.1295573,43.0703125 89.2792969,43.0703125 C89.578776,43.0703125 89.8033854,43.0703125 89.953125,43.0703125 C90.1028646,43.0703125 90.2526042,42.9954427 90.4023438,42.8457031 C90.4023438,67.4029948 90.4023438,104.164062 90.4023438,153.128906 C97.8893229,153.128906 109.119792,153.128906 124.09375,153.128906 C124.09375,153.428385 124.09375,153.802734 124.09375,154.251953 C124.09375,154.551432 124.09375,154.925781 124.09375,155.375 Z M85.0117188,38.1289062 C85.0117188,39.1770833 85.3111979,40.0755208 85.9101562,40.8242188 C86.5091146,41.5729167 87.2578125,42.0970052 88.15625,42.3964844 C88.15625,42.3964844 88.15625,42.546224 88.15625,42.8457031 C87.1080729,42.6959635 86.2096354,42.171875 85.4609375,41.2734375 C84.8619792,40.375 84.5625,39.3268229 84.5625,38.1289062 C84.5625,36.78125 85.0117188,35.6582031 85.9101562,34.7597656 C86.8085938,33.7115885 87.9316406,33.1875 89.2792969,33.1875 C90.6269531,33.1875 91.8248698,33.7115885 92.8730469,34.7597656 C93.7714844,35.6582031 94.2207031,36.78125 94.2207031,38.1289062 C94.2207031,39.3268229 93.8463542,40.375 93.0976562,41.2734375 C92.4986979,42.0221354 91.6002604,42.546224 90.4023438,42.8457031 C90.4023438,42.6959635 90.4023438,42.546224 90.4023438,42.3964844 C91.4505208,42.0970052 92.2740885,41.5729167 92.8730469,40.8242188 C93.4720052,40.0755208 93.7714844,39.1770833 93.7714844,38.1289062 C93.7714844,36.9309896 93.3222656,35.9576823 92.4238281,35.2089844 C91.5253906,34.3105469 90.4772135,33.8613281 89.2792969,33.8613281 C88.0813802,33.8613281 87.1080729,34.3105469 86.359375,35.2089844 C85.4609375,35.9576823 85.0117188,36.9309896 85.0117188,38.1289062 Z M90.4023438,42.8457031 C90.2526042,42.9954427 90.1028646,43.0703125 89.953125,43.0703125 C89.8033854,43.0703125 89.578776,43.0703125 89.2792969,43.0703125 C89.1295573,43.0703125 88.9798177,43.0703125 88.8300781,43.0703125 C88.530599,43.0703125 88.3059896,42.9954427 88.15625,42.8457031 C88.15625,42.6959635 88.15625,42.546224 88.15625,42.3964844 C88.3059896,42.3964844 88.530599,42.3964844 88.8300781,42.3964844 C88.9798177,42.3964844 89.1295573,42.3964844 89.2792969,42.3964844 C89.578776,42.3964844 89.8033854,42.3964844 89.953125,42.3964844 C90.1028646,42.3964844 90.2526042,42.3964844 90.4023438,42.3964844 C90.4023438,42.3964844 90.4023438,42.4713542 90.4023438,42.6210938 C90.4023438,42.7708333 90.4023438,42.8457031 90.4023438,42.8457031 Z M93.7714844,38.1289062 C93.7714844,39.1770833 93.4720052,40.0755208 92.8730469,40.8242188 C92.2740885,41.5729167 91.4505208,42.0970052 90.4023438,42.3964844 C90.4023438,42.2467448 90.4023438,42.0221354 90.4023438,41.7226562 C91.1510417,41.4231771 91.8248698,40.9739583 92.4238281,40.375 C92.8730469,39.7760417 93.0976562,39.0273438 93.0976562,38.1289062 C93.0976562,38.2786458 93.0976562,38.4283854 93.0976562,38.578125 C93.0976562,38.7278646 93.0976562,38.8027344 93.0976562,38.8027344 C93.0976562,38.8027344 93.0976562,38.7278646 93.0976562,38.578125 C93.0976562,38.4283854 93.0976562,38.2786458 93.0976562,38.1289062 C93.0976562,37.9791667 93.0976562,37.8294271 93.0976562,37.6796875 C93.0976562,37.5299479 93.0976562,37.4550781 93.0976562,37.4550781 C93.0976562,37.4550781 93.0976562,37.5299479 93.0976562,37.6796875 C93.0976562,37.8294271 93.0976562,37.9791667 93.0976562,38.1289062 C93.0976562,37.0807292 92.7233073,36.1822917 91.9746094,35.4335938 C91.2259115,34.6848958 90.327474,34.3105469 89.2792969,34.3105469 C88.2311198,34.3105469 87.4075521,34.6848958 86.8085938,35.4335938 C86.0598958,36.1822917 85.6855469,37.0807292 85.6855469,38.1289062 C85.6855469,39.0273438 85.9101562,39.7760417 86.359375,40.375 C86.8085938,40.9739583 87.4075521,41.4231771 88.15625,41.7226562 C88.15625,41.8723958 88.15625,42.0970052 88.15625,42.3964844 C87.2578125,42.0970052 86.5091146,41.5729167 85.9101562,40.8242188 C85.3111979,40.0755208 85.0117188,39.1770833 85.0117188,38.1289062 C85.0117188,36.9309896 85.4609375,35.9576823 86.359375,35.2089844 C87.1080729,34.3105469 88.0813802,33.8613281 89.2792969,33.8613281 C90.4772135,33.8613281 91.5253906,34.3105469 92.4238281,35.2089844 C93.3222656,35.9576823 93.7714844,36.9309896 93.7714844,38.1289062 Z M89.2792969,41.9472656 C89.578776,41.9472656 89.8033854,41.9472656 89.953125,41.9472656 C90.1028646,41.797526 90.2526042,41.7226562 90.4023438,41.7226562 C90.4023438,41.8723958 90.4023438,42.0970052 90.4023438,42.3964844 C90.2526042,42.3964844 90.1028646,42.3964844 89.953125,42.3964844 C89.8033854,42.3964844 89.578776,42.3964844 89.2792969,42.3964844 C89.1295573,42.3964844 88.9798177,42.3964844 88.8300781,42.3964844 C88.530599,42.3964844 88.3059896,42.3964844 88.15625,42.3964844 C88.15625,42.2467448 88.15625,42.0221354 88.15625,41.7226562 C88.3059896,41.7226562 88.530599,41.797526 88.8300781,41.9472656 C88.9798177,41.9472656 89.1295573,41.9472656 89.2792969,41.9472656 Z M126.339844,153.128906 C125.890625,153.128906 125.141927,153.128906 124.09375,153.128906 C124.09375,152.529948 124.09375,151.78125 124.09375,150.882812 C126.938802,151.63151 131.13151,152.754557 136.671875,154.251953 C133.826823,155.000651 129.634115,156.123698 124.09375,157.621094 C124.09375,157.022135 124.09375,156.273438 124.09375,155.375 C124.692708,155.375 125.441406,155.375 126.339844,155.375 C126.339844,154.776042 126.339844,154.027344 126.339844,153.128906 Z M124.09375,153.128906 C124.692708,153.128906 125.441406,153.128906 126.339844,153.128906 C126.339844,153.578125 126.339844,154.326823 126.339844,155.375 C125.890625,155.375 125.141927,155.375 124.09375,155.375 C124.09375,154.776042 124.09375,154.027344 124.09375,153.128906 Z M101.408203,52.0546875 C101.258464,51.9049479 101.183594,51.8300781 101.183594,51.8300781 C101.183594,51.6803385 101.108724,51.530599 100.958984,51.3808594 C100.958984,49.733724 100.958984,47.7871094 100.958984,45.5410156 C100.958984,43.1451823 100.958984,40.3001302 100.958984,37.0058594 C100.958984,37.155599 100.884115,37.3053385 100.734375,37.4550781 C100.584635,37.4550781 100.434896,37.5299479 100.285156,37.6796875 C100.285156,37.8294271 100.210286,37.9042969 100.060547,37.9042969 C99.9108073,38.0540365 99.7610677,38.1289062 99.6113281,38.1289062 C99.6113281,38.1289062 99.5364583,38.0540365 99.3867188,37.9042969 C99.2369792,37.9042969 99.0872396,37.8294271 98.9375,37.6796875 C98.9375,37.6796875 98.8626302,37.6048177 98.7128906,37.4550781 C98.7128906,37.3053385 98.7128906,37.155599 98.7128906,37.0058594 C98.7128906,36.8561198 98.7128906,36.78125 98.7128906,36.78125 C98.8626302,36.6315104 98.9375,36.4817708 98.9375,36.3320312 C99.2369792,36.0325521 99.6113281,35.7330729 100.060547,35.4335938 C100.360026,34.984375 100.809245,34.5351562 101.408203,34.0859375 C101.408203,33.9361979 101.483073,33.8613281 101.632812,33.8613281 C101.632812,33.8613281 101.707682,33.8613281 101.857422,33.8613281 C101.857422,33.8613281 101.857422,33.8613281 101.857422,33.8613281 C102.007161,33.8613281 102.082031,33.8613281 102.082031,33.8613281 C102.082031,33.8613281 102.156901,33.8613281 102.306641,33.8613281 C102.306641,33.8613281 102.306641,33.8613281 102.306641,33.8613281 C102.45638,33.8613281 102.60612,33.8613281 102.755859,33.8613281 C102.755859,34.0110677 102.755859,34.0859375 102.755859,34.0859375 C102.905599,34.2356771 102.980469,34.3854167 102.980469,34.5351562 C102.980469,34.5351562 102.980469,34.610026 102.980469,34.7597656 C102.980469,36.5566406 102.980469,38.8776042 102.980469,41.7226562 C102.980469,44.4179688 102.980469,47.6373698 102.980469,51.3808594 C102.980469,51.530599 102.980469,51.6803385 102.980469,51.8300781 C102.980469,51.8300781 102.905599,51.9049479 102.755859,52.0546875 C102.60612,52.2044271 102.45638,52.2792969 102.306641,52.2792969 C102.306641,52.2792969 102.231771,52.2792969 102.082031,52.2792969 C101.932292,52.2792969 101.782552,52.2792969 101.632812,52.2792969 C101.483073,52.2792969 101.408203,52.2044271 101.408203,52.0546875 Z"/></svg>