<svg xmlns="http://www.w3.org/2000/svg" width="207" height="207" viewBox="0 0 207 207"><path fill="#131313" d="M169.294922,34.0859375 C169.294922,34.0859375 169.294922,34.0859375 169.294922,34.0859375 C169.294922,34.0859375 169.294922,34.1608073 169.294922,34.3105469 C169.294922,65.156901 169.294922,111.426432 169.294922,173.119141 C169.294922,175.365234 168.471354,177.311849 166.824219,178.958984 C165.326823,180.45638 163.455078,181.205078 161.208984,181.205078 C158.962891,181.205078 157.016276,180.45638 155.369141,178.958984 C153.722005,177.311849 152.898438,175.365234 152.898438,173.119141 C152.898438,153.652995 152.898438,124.304036 152.898438,85.0722656 C146.309896,105.287109 136.427083,135.534505 123.25,175.814453 C123.25,175.964193 123.25,176.113932 123.25,176.263672 C123.10026,176.413411 123.025391,176.563151 123.025391,176.712891 C123.025391,176.712891 122.950521,176.712891 122.800781,176.712891 C122.800781,176.86263 122.800781,176.9375 122.800781,176.9375 C122.651042,177.08724 122.576172,177.311849 122.576172,177.611328 C122.426432,177.761068 122.276693,177.910807 122.126953,178.060547 C121.977214,178.210286 121.902344,178.285156 121.902344,178.285156 C121.902344,178.285156 121.902344,178.285156 121.902344,178.285156 C121.752604,178.434896 121.602865,178.584635 121.453125,178.734375 C121.303385,178.884115 121.153646,179.033854 121.003906,179.183594 C121.003906,179.183594 120.929036,179.258464 120.779297,179.408203 C120.779297,179.408203 120.779297,179.408203 120.779297,179.408203 C120.629557,179.557943 120.479818,179.707682 120.330078,179.857422 C120.180339,179.857422 120.030599,179.932292 119.880859,180.082031 C119.880859,180.082031 119.80599,180.156901 119.65625,180.306641 C119.65625,180.306641 119.58138,180.306641 119.431641,180.306641 C119.281901,180.45638 119.057292,180.53125 118.757812,180.53125 C118.608073,180.68099 118.458333,180.755859 118.308594,180.755859 C118.158854,180.755859 118.083984,180.830729 118.083984,180.980469 C118.083984,180.980469 118.083984,180.980469 118.083984,180.980469 C118.083984,180.980469 118.083984,180.980469 118.083984,180.980469 C118.083984,180.980469 118.083984,180.980469 118.083984,180.980469 C117.934245,180.980469 117.709635,180.980469 117.410156,180.980469 C117.260417,181.130208 117.110677,181.205078 116.960938,181.205078 C116.811198,181.205078 116.661458,181.205078 116.511719,181.205078 C116.511719,181.205078 116.436849,181.205078 116.287109,181.205078 C116.13737,181.205078 115.98763,181.205078 115.837891,181.205078 C115.837891,181.354818 115.763021,181.429688 115.613281,181.429688 C115.463542,181.429688 115.313802,181.354818 115.164062,181.205078 C115.014323,181.205078 114.864583,181.205078 114.714844,181.205078 C114.714844,181.205078 114.639974,181.205078 114.490234,181.205078 C114.490234,181.205078 114.415365,181.205078 114.265625,181.205078 C114.115885,181.205078 113.891276,181.130208 113.591797,180.980469 C113.442057,180.980469 113.217448,180.980469 112.917969,180.980469 C112.917969,180.980469 112.917969,180.980469 112.917969,180.980469 C112.917969,180.980469 112.917969,180.980469 112.917969,180.980469 C112.917969,180.980469 112.917969,180.980469 112.917969,180.980469 C112.917969,180.980469 112.917969,180.905599 112.917969,180.755859 C112.61849,180.755859 112.39388,180.68099 112.244141,180.53125 C112.094401,180.53125 111.869792,180.45638 111.570312,180.306641 C111.570312,180.306641 111.495443,180.231771 111.345703,180.082031 C111.345703,180.082031 111.270833,180.082031 111.121094,180.082031 C111.121094,179.932292 111.046224,179.857422 110.896484,179.857422 C110.746745,179.707682 110.597005,179.557943 110.447266,179.408203 C110.297526,179.408203 110.222656,179.408203 110.222656,179.408203 C110.222656,179.258464 110.147786,179.183594 109.998047,179.183594 C109.848307,179.033854 109.698568,178.884115 109.548828,178.734375 C109.399089,178.584635 109.324219,178.434896 109.324219,178.285156 C109.174479,178.285156 109.099609,178.285156 109.099609,178.285156 C109.099609,178.135417 109.099609,178.060547 109.099609,178.060547 C108.94987,177.910807 108.80013,177.686198 108.650391,177.386719 C108.500651,177.236979 108.350911,177.08724 108.201172,176.9375 C108.201172,176.78776 108.201172,176.712891 108.201172,176.712891 C108.201172,176.712891 108.201172,176.638021 108.201172,176.488281 C108.051432,176.338542 107.976562,176.188802 107.976562,176.039062 C107.826823,175.889323 107.751953,175.739583 107.751953,175.589844 C101.163411,155.52474 91.280599,125.352214 78.1035156,85.0722656 C78.1035156,104.688151 78.1035156,134.037109 78.1035156,173.119141 C78.1035156,175.365234 77.2799479,177.311849 75.6328125,178.958984 C73.9856771,180.45638 72.0390625,181.205078 69.7929688,181.205078 C67.6966146,181.205078 65.8248698,180.45638 64.1777344,178.958984 C62.530599,177.311849 61.7070312,175.365234 61.7070312,173.119141 C61.7070312,142.272786 61.7070312,96.0032552 61.7070312,34.3105469 C61.7070312,34.3105469 61.7070312,34.2356771 61.7070312,34.0859375 C61.7070312,34.0859375 61.7070312,34.0859375 61.7070312,34.0859375 C61.7070312,33.9361979 61.7070312,33.7864583 61.7070312,33.6367188 C61.8567708,33.4869792 61.9316406,33.3372396 61.9316406,33.1875 C61.9316406,33.0377604 61.9316406,32.8880208 61.9316406,32.7382812 C61.9316406,32.5885417 61.9316406,32.4388021 61.9316406,32.2890625 C62.0813802,32.2890625 62.15625,32.2141927 62.15625,32.0644531 C62.15625,31.9147135 62.15625,31.764974 62.15625,31.6152344 C62.3059896,31.4654948 62.3808594,31.3157552 62.3808594,31.1660156 C62.3808594,31.016276 62.4557292,30.9414062 62.6054688,30.9414062 C62.6054688,30.7916667 62.6054688,30.6419271 62.6054688,30.4921875 C62.7552083,30.3424479 62.8300781,30.2675781 62.8300781,30.2675781 C62.9798177,30.1178385 63.0546875,29.968099 63.0546875,29.8183594 C63.2044271,29.6686198 63.2792969,29.59375 63.2792969,29.59375 C63.4290365,29.4440104 63.5039062,29.2942708 63.5039062,29.1445312 C63.6536458,29.1445312 63.7285156,29.0696615 63.7285156,28.9199219 C63.8782552,28.7701823 64.0279948,28.6953125 64.1777344,28.6953125 C64.1777344,28.5455729 64.2526042,28.4707031 64.4023438,28.4707031 C64.4023438,28.3209635 64.4772135,28.171224 64.6269531,28.0214844 C64.7766927,28.0214844 64.8515625,27.9466146 64.8515625,27.796875 C65.0013021,27.796875 65.1510417,27.7220052 65.3007812,27.5722656 C65.4505208,27.5722656 65.5253906,27.4973958 65.5253906,27.3476562 C65.6751302,27.3476562 65.8248698,27.2727865 65.9746094,27.1230469 C66.124349,27.1230469 66.1992188,27.1230469 66.1992188,27.1230469 C66.3489583,26.9733073 66.4986979,26.8984375 66.6484375,26.8984375 C66.7981771,26.7486979 66.9479167,26.6738281 67.0976562,26.6738281 C67.0976562,26.6738281 67.0976562,26.6738281 67.0976562,26.6738281 C67.2473958,26.6738281 67.3222656,26.5989583 67.3222656,26.4492188 C67.4720052,26.4492188 67.546875,26.4492188 67.546875,26.4492188 C67.546875,26.4492188 67.6217448,26.4492188 67.7714844,26.4492188 C67.921224,26.4492188 68.0709635,26.4492188 68.2207031,26.4492188 C68.3704427,26.2994792 68.5201823,26.2246094 68.6699219,26.2246094 C68.8196615,26.2246094 68.969401,26.2246094 69.1191406,26.2246094 C69.2688802,26.2246094 69.34375,26.2246094 69.34375,26.2246094 C69.4934896,26.2246094 69.5683594,26.2246094 69.5683594,26.2246094 C69.718099,26.2246094 69.7929688,26.2246094 69.7929688,26.2246094 C69.9427083,26.2246094 70.0175781,26.2246094 70.0175781,26.2246094 C70.0175781,26.2246094 70.0924479,26.2246094 70.2421875,26.2246094 C70.3919271,26.2246094 70.5416667,26.2246094 70.6914062,26.2246094 C70.8411458,26.2246094 70.9908854,26.2246094 71.140625,26.2246094 C71.140625,26.2246094 71.2154948,26.2246094 71.3652344,26.2246094 C71.514974,26.374349 71.6647135,26.4492188 71.8144531,26.4492188 C71.9641927,26.4492188 72.1139323,26.4492188 72.2636719,26.4492188 C72.2636719,26.4492188 72.3385417,26.5240885 72.4882812,26.6738281 C72.6380208,26.6738281 72.7877604,26.6738281 72.9375,26.6738281 C73.0872396,26.8235677 73.2369792,26.8984375 73.3867188,26.8984375 C73.3867188,27.0481771 73.4615885,27.1230469 73.6113281,27.1230469 C73.7610677,27.1230469 73.9108073,27.1979167 74.0605469,27.3476562 C74.0605469,27.3476562 74.1354167,27.422526 74.2851562,27.5722656 C74.4348958,27.5722656 74.5846354,27.6471354 74.734375,27.796875 C74.734375,27.796875 74.8092448,27.8717448 74.9589844,28.0214844 C75.108724,28.0214844 75.1835938,28.0963542 75.1835938,28.2460938 C75.3333333,28.2460938 75.4830729,28.3209635 75.6328125,28.4707031 C75.6328125,28.6204427 75.7076823,28.6953125 75.8574219,28.6953125 C75.8574219,28.8450521 75.9322917,28.9199219 76.0820312,28.9199219 C76.2317708,29.0696615 76.3066406,29.219401 76.3066406,29.3691406 C76.4563802,29.5188802 76.53125,29.59375 76.53125,29.59375 C76.6809896,29.7434896 76.7558594,29.8932292 76.7558594,30.0429688 C76.905599,30.0429688 76.9804688,30.1178385 76.9804688,30.2675781 C76.9804688,30.4173177 77.0553385,30.5670573 77.2050781,30.7167969 C77.2050781,30.8665365 77.2799479,30.9414062 77.4296875,30.9414062 C77.4296875,31.0911458 77.4296875,31.2408854 77.4296875,31.390625 C77.4296875,31.5403646 77.5045573,31.6152344 77.6542969,31.6152344 C77.6542969,31.6152344 77.6542969,31.6152344 77.6542969,31.6152344 C86.0397135,57.3704427 98.6927083,95.8535156 115.613281,147.064453 C123.998698,121.458984 136.576823,83.0507812 153.347656,31.8398438 C153.347656,31.6901042 153.422526,31.6152344 153.572266,31.6152344 C153.572266,31.6152344 153.572266,31.5403646 153.572266,31.390625 C153.572266,31.2408854 153.647135,31.0911458 153.796875,30.9414062 C153.796875,30.9414062 153.796875,30.8665365 153.796875,30.7167969 C153.946615,30.5670573 154.021484,30.4173177 154.021484,30.2675781 C154.171224,30.1178385 154.246094,30.0429688 154.246094,30.0429688 C154.395833,29.8932292 154.470703,29.7434896 154.470703,29.59375 C154.620443,29.4440104 154.695312,29.3691406 154.695312,29.3691406 C154.845052,29.219401 154.919922,29.0696615 154.919922,28.9199219 C155.069661,28.7701823 155.144531,28.6953125 155.144531,28.6953125 C155.294271,28.5455729 155.44401,28.4707031 155.59375,28.4707031 C155.59375,28.3209635 155.66862,28.2460938 155.818359,28.2460938 C155.818359,28.0963542 155.893229,27.9466146 156.042969,27.796875 C156.192708,27.796875 156.342448,27.7220052 156.492188,27.5722656 C156.492188,27.5722656 156.567057,27.4973958 156.716797,27.3476562 C156.866536,27.3476562 157.016276,27.2727865 157.166016,27.1230469 C157.166016,27.1230469 157.240885,27.1230469 157.390625,27.1230469 C157.540365,26.9733073 157.690104,26.8984375 157.839844,26.8984375 C157.839844,26.7486979 157.914714,26.6738281 158.064453,26.6738281 C158.214193,26.6738281 158.363932,26.5989583 158.513672,26.4492188 C158.663411,26.4492188 158.813151,26.4492188 158.962891,26.4492188 C158.962891,26.4492188 159.03776,26.374349 159.1875,26.2246094 C159.33724,26.2246094 159.486979,26.2246094 159.636719,26.2246094 C159.786458,26.2246094 159.936198,26.2246094 160.085938,26.2246094 C160.235677,26.2246094 160.385417,26.2246094 160.535156,26.2246094 C160.535156,26.0748698 160.610026,26 160.759766,26 C160.909505,26 160.984375,26 160.984375,26 C161.134115,26 161.208984,26 161.208984,26 C161.208984,26 161.283854,26 161.433594,26 C161.433594,26.1497396 161.508464,26.2246094 161.658203,26.2246094 C161.807943,26.2246094 161.957682,26.2246094 162.107422,26.2246094 C162.257161,26.2246094 162.406901,26.2246094 162.556641,26.2246094 C162.70638,26.2246094 162.78125,26.2246094 162.78125,26.2246094 C162.93099,26.374349 163.080729,26.4492188 163.230469,26.4492188 C163.380208,26.4492188 163.455078,26.4492188 163.455078,26.4492188 C163.604818,26.4492188 163.679688,26.4492188 163.679688,26.4492188 C163.679688,26.4492188 163.754557,26.4492188 163.904297,26.4492188 C163.904297,26.5989583 163.904297,26.6738281 163.904297,26.6738281 C164.054036,26.6738281 164.203776,26.6738281 164.353516,26.6738281 C164.503255,26.8235677 164.652995,26.8984375 164.802734,26.8984375 C164.952474,27.0481771 165.102214,27.1230469 165.251953,27.1230469 C165.251953,27.1230469 165.326823,27.1979167 165.476562,27.3476562 C165.626302,27.3476562 165.701172,27.422526 165.701172,27.5722656 C165.850911,27.5722656 166.000651,27.6471354 166.150391,27.796875 C166.30013,27.9466146 166.375,28.0214844 166.375,28.0214844 C166.52474,28.171224 166.674479,28.2460938 166.824219,28.2460938 C166.824219,28.3958333 166.899089,28.4707031 167.048828,28.4707031 C167.048828,28.6204427 167.123698,28.7701823 167.273438,28.9199219 C167.423177,28.9199219 167.498047,28.9947917 167.498047,29.1445312 C167.647786,29.2942708 167.722656,29.3691406 167.722656,29.3691406 C167.872396,29.5188802 167.947266,29.6686198 167.947266,29.8183594 C168.097005,29.968099 168.171875,30.0429688 168.171875,30.0429688 C168.171875,30.1927083 168.246745,30.3424479 168.396484,30.4921875 C168.396484,30.6419271 168.471354,30.7916667 168.621094,30.9414062 C168.621094,30.9414062 168.621094,31.016276 168.621094,31.1660156 C168.770833,31.3157552 168.845703,31.4654948 168.845703,31.6152344 C168.845703,31.764974 168.845703,31.9147135 168.845703,32.0644531 C168.995443,32.0644531 169.070312,32.1393229 169.070312,32.2890625 C169.070312,32.4388021 169.070312,32.5885417 169.070312,32.7382812 C169.070312,32.8880208 169.145182,33.0377604 169.294922,33.1875 C169.294922,33.3372396 169.294922,33.4869792 169.294922,33.6367188 C169.294922,33.7864583 169.294922,33.9361979 169.294922,34.0859375 Z M142.791016,160.765625 C143.240234,160.765625 143.988932,160.765625 145.037109,160.765625 C145.037109,154.177083 145.037109,144.369141 145.037109,131.341797 C144.587891,131.341797 143.839193,131.341797 142.791016,131.341797 C142.791016,137.930339 142.791016,147.738281 142.791016,160.765625 Z M143.914062,173.119141 C144.66276,170.423828 145.785807,166.30599 147.283203,160.765625 C146.833984,160.765625 146.085286,160.765625 145.037109,160.765625 C145.037109,161.214844 145.037109,161.963542 145.037109,163.011719 C144.587891,163.011719 143.839193,163.011719 142.791016,163.011719 C142.791016,162.5625 142.791016,161.813802 142.791016,160.765625 C142.192057,160.765625 141.443359,160.765625 140.544922,160.765625 C141.29362,163.460938 142.416667,167.578776 143.914062,173.119141 Z M142.791016,163.011719 C143.240234,163.011719 143.988932,163.011719 145.037109,163.011719 C145.037109,162.5625 145.037109,161.813802 145.037109,160.765625 C144.587891,160.765625 143.839193,160.765625 142.791016,160.765625 C142.791016,161.214844 142.791016,161.963542 142.791016,163.011719 Z M89.5585938,38.3535156 C89.7083333,38.203776 89.8580729,38.1289062 90.0078125,38.1289062 C90.3072917,38.1289062 90.531901,38.1289062 90.6816406,38.1289062 C90.8313802,37.9791667 90.9811198,37.9042969 91.1308594,37.9042969 C91.280599,37.7545573 91.5052083,37.6048177 91.8046875,37.4550781 C97.1953125,54.0761719 105.35612,78.9329427 116.287109,112.025391 C117.485026,108.132161 119.431641,102.142578 122.126953,94.0566406 C122.576172,94.3561198 123.32487,94.655599 124.373047,94.9550781 C122.576172,100.345703 119.880859,108.50651 116.287109,119.4375 C111.794922,105.960938 107.302734,92.4095052 102.810547,78.7832031 C98.3183594,65.3066406 93.9010417,51.8300781 89.5585938,38.3535156 Z M84.1679688,34.3105469 C84.1679688,34.3105469 84.1679688,34.3105469 84.1679688,34.3105469 C84.3177083,34.3105469 84.3925781,34.3854167 84.3925781,34.5351562 C84.3925781,34.3854167 84.3177083,34.3105469 84.1679688,34.3105469 C84.1679688,34.3105469 84.1679688,34.3105469 84.1679688,34.3105469 Z M84.6171875,35.6582031 C84.6171875,35.5084635 84.6171875,35.4335938 84.6171875,35.4335938 C84.6171875,35.4335938 84.6171875,35.4335938 84.6171875,35.4335938 C84.6171875,35.4335938 84.6171875,35.4335938 84.6171875,35.4335938 C84.6171875,35.4335938 84.6171875,35.5084635 84.6171875,35.6582031 Z M84.3925781,34.5351562 C84.3925781,34.5351562 84.3925781,34.610026 84.3925781,34.7597656 C84.3925781,34.7597656 84.3925781,34.8346354 84.3925781,34.984375 C84.3925781,34.8346354 84.3925781,34.7597656 84.3925781,34.7597656 C84.3925781,34.610026 84.3925781,34.5351562 84.3925781,34.5351562 Z M84.6171875,35.4335938 C84.6171875,35.2838542 84.6171875,35.2089844 84.6171875,35.2089844 C84.4674479,35.0592448 84.3925781,34.984375 84.3925781,34.984375 C84.3925781,34.984375 84.4674479,35.0592448 84.6171875,35.2089844 C84.6171875,35.2089844 84.6171875,35.2838542 84.6171875,35.4335938 Z M89.5585938,38.3535156 C88.3606771,38.3535156 87.3125,38.0540365 86.4140625,37.4550781 C85.515625,36.8561198 84.8417969,36.0325521 84.3925781,34.984375 C83.9433594,33.6367188 84.0182292,32.3639323 84.6171875,31.1660156 C85.3658854,29.968099 86.3391927,29.1445312 87.5371094,28.6953125 C88.8847656,28.2460938 90.1575521,28.3209635 91.3554688,28.9199219 C92.5533854,29.6686198 93.3769531,30.6419271 93.8261719,31.8398438 C94.125651,32.8880208 94.0507812,33.9361979 93.6015625,34.984375 C93.3020833,36.1822917 92.703125,37.0058594 91.8046875,37.4550781 C91.6549479,37.4550781 91.5800781,37.3053385 91.5800781,37.0058594 C92.328776,36.406901 92.8528646,35.6582031 93.1523438,34.7597656 C93.4518229,33.8613281 93.4518229,32.9628906 93.1523438,32.0644531 C92.8528646,30.8665365 92.1790365,30.0429688 91.1308594,29.59375 C90.0826823,28.9947917 88.9596354,28.9199219 87.7617188,29.3691406 C86.5638021,29.6686198 85.7402344,30.3424479 85.2910156,31.390625 C84.6920573,32.4388021 84.6171875,33.561849 85.0664062,34.7597656 C85.3658854,35.6582031 85.889974,36.406901 86.6386719,37.0058594 C87.5371094,37.4550781 88.4355469,37.6796875 89.3339844,37.6796875 C89.3339844,37.8294271 89.3339844,37.9042969 89.3339844,37.9042969 C89.483724,38.0540365 89.5585938,38.203776 89.5585938,38.3535156 Z M90.4570312,37.4550781 C90.6067708,37.4550781 90.7565104,37.3802083 90.90625,37.2304688 C91.2057292,37.2304688 91.4303385,37.155599 91.5800781,37.0058594 C91.5800781,37.155599 91.5800781,37.3053385 91.5800781,37.4550781 C91.4303385,37.6048177 91.280599,37.7545573 91.1308594,37.9042969 C90.9811198,37.9042969 90.8313802,37.9791667 90.6816406,38.1289062 C90.3821615,38.1289062 90.1575521,38.1289062 90.0078125,38.1289062 C89.8580729,38.2786458 89.7083333,38.3535156 89.5585938,38.3535156 C89.4088542,38.203776 89.3339844,37.9791667 89.3339844,37.6796875 C89.483724,37.6796875 89.6334635,37.6796875 89.7832031,37.6796875 C90.0826823,37.6796875 90.3072917,37.6048177 90.4570312,37.4550781 Z M85.515625,34.5351562 C85.8151042,35.2838542 86.2643229,35.8828125 86.8632812,36.3320312 C87.6119792,36.78125 88.3606771,37.0058594 89.109375,37.0058594 C89.109375,37.155599 89.1842448,37.3802083 89.3339844,37.6796875 C88.4355469,37.6796875 87.5371094,37.4550781 86.6386719,37.0058594 C85.889974,36.406901 85.3658854,35.6582031 85.0664062,34.7597656 C84.6171875,33.561849 84.6920573,32.4388021 85.2910156,31.390625 C85.889974,30.3424479 86.7135417,29.6686198 87.7617188,29.3691406 C88.9596354,28.9199219 90.0826823,28.9947917 91.1308594,29.59375 C92.1790365,30.0429688 92.8528646,30.8665365 93.1523438,32.0644531 C93.4518229,32.9628906 93.4518229,33.8613281 93.1523438,34.7597656 C92.8528646,35.6582031 92.328776,36.406901 91.5800781,37.0058594 C91.4303385,36.8561198 91.3554688,36.6315104 91.3554688,36.3320312 C91.9544271,35.8828125 92.4036458,35.2838542 92.703125,34.5351562 C93.0026042,33.7864583 93.0026042,33.0377604 92.703125,32.2890625 C92.703125,32.2890625 92.703125,32.2890625 92.703125,32.2890625 C92.703125,32.2890625 92.703125,32.3639323 92.703125,32.5136719 C92.703125,32.5136719 92.703125,32.4388021 92.703125,32.2890625 C92.703125,32.2890625 92.703125,32.2890625 92.703125,32.2890625 C92.4036458,31.2408854 91.8046875,30.4921875 90.90625,30.0429688 C89.8580729,29.59375 88.8847656,29.5188802 87.9863281,29.8183594 C86.938151,30.1178385 86.1894531,30.7167969 85.7402344,31.6152344 C85.2910156,32.6634115 85.2161458,33.6367188 85.515625,34.5351562 Z M91.5800781,37.0058594 C91.4303385,37.155599 91.2057292,37.2304688 90.90625,37.2304688 C90.7565104,37.3802083 90.6067708,37.4550781 90.4570312,37.4550781 C90.3072917,37.6048177 90.1575521,37.6796875 90.0078125,37.6796875 C89.7083333,37.6796875 89.483724,37.6796875 89.3339844,37.6796875 C89.3339844,37.5299479 89.2591146,37.3053385 89.109375,37.0058594 C89.2591146,37.0058594 89.483724,37.0058594 89.7832031,37.0058594 C89.9329427,37.0058594 90.0826823,37.0058594 90.2324219,37.0058594 C90.531901,36.8561198 90.7565104,36.78125 90.90625,36.78125 C91.0559896,36.6315104 91.2057292,36.4817708 91.3554688,36.3320312 C91.3554688,36.4817708 91.3554688,36.6315104 91.3554688,36.78125 C91.3554688,36.78125 91.4303385,36.8561198 91.5800781,37.0058594 Z M122.800781,92.0351562 C122.651042,92.484375 122.426432,93.1582031 122.126953,94.0566406 C121.677734,93.906901 120.929036,93.6822917 119.880859,93.3828125 C121.527995,90.9869792 123.923828,87.3932292 127.068359,82.6015625 C126.91862,85.4466146 126.69401,89.7890625 126.394531,95.6289062 C125.945312,95.4791667 125.271484,95.2545573 124.373047,94.9550781 C124.522786,94.3561198 124.747396,93.6074219 125.046875,92.7089844 C124.447917,92.5592448 123.699219,92.3346354 122.800781,92.0351562 Z M122.126953,94.0566406 C122.276693,93.6074219 122.501302,92.9335938 122.800781,92.0351562 C123.25,92.1848958 123.998698,92.4095052 125.046875,92.7089844 C124.897135,93.1582031 124.597656,93.906901 124.148438,94.9550781 C123.699219,94.8053385 123.025391,94.5058594 122.126953,94.0566406 Z M53.8457031,43.96875 C53.8457031,50.5572917 53.8457031,60.3652344 53.8457031,73.3925781 C53.2467448,73.3925781 52.4231771,73.3925781 51.375,73.3925781 C51.375,66.8040365 51.375,56.9960938 51.375,43.96875 C51.6744792,43.96875 51.8990885,43.96875 52.0488281,43.96875 C52.1985677,44.1184896 52.4231771,44.1933594 52.7226562,44.1933594 C52.8723958,44.1933594 53.0221354,44.1184896 53.171875,43.96875 C53.3216146,43.96875 53.546224,43.96875 53.8457031,43.96875 Z M53.8457031,73.3925781 C53.8457031,73.8417969 53.8457031,74.5904948 53.8457031,75.6386719 C53.2467448,75.6386719 52.4231771,75.6386719 51.375,75.6386719 C51.375,75.1894531 51.375,74.4407552 51.375,73.3925781 C50.9257812,73.3925781 50.2519531,73.3925781 49.3535156,73.3925781 C50.1022135,76.0878906 51.2252604,80.2057292 52.7226562,85.7460938 C53.3216146,83.0507812 54.3697917,78.9329427 55.8671875,73.3925781 C55.4179688,73.3925781 54.7441406,73.3925781 53.8457031,73.3925781 Z M51.375,75.6386719 C51.9739583,75.6386719 52.797526,75.6386719 53.8457031,75.6386719 C53.8457031,75.1894531 53.8457031,74.4407552 53.8457031,73.3925781 C53.2467448,73.3925781 52.4231771,73.3925781 51.375,73.3925781 C51.375,73.8417969 51.375,74.5904948 51.375,75.6386719 Z M48.2304688,39.2519531 C48.2304688,40.1503906 48.5299479,41.0488281 49.1289062,41.9472656 C49.7278646,42.6959635 50.4765625,43.1451823 51.375,43.2949219 C51.375,43.4446615 51.375,43.6692708 51.375,43.96875 C50.3268229,43.6692708 49.4283854,43.0703125 48.6796875,42.171875 C48.0807292,41.2734375 47.78125,40.3001302 47.78125,39.2519531 C47.78125,37.9042969 48.2304688,36.7063802 49.1289062,35.6582031 C50.1770833,34.7597656 51.375,34.3105469 52.7226562,34.3105469 C54.0703125,34.3105469 55.1933594,34.7597656 56.0917969,35.6582031 C56.9902344,36.7063802 57.4394531,37.9042969 57.4394531,39.2519531 C57.4394531,40.3001302 57.139974,41.2734375 56.5410156,42.171875 C55.7923177,43.0703125 54.8938802,43.6692708 53.8457031,43.96875 C53.8457031,43.8190104 53.8457031,43.594401 53.8457031,43.2949219 C54.7441406,43.1451823 55.4928385,42.6210938 56.0917969,41.7226562 C56.6907552,40.9739583 56.9902344,40.1503906 56.9902344,39.2519531 C56.9902344,38.0540365 56.5410156,37.0058594 55.6425781,36.1074219 C54.8938802,35.358724 53.9205729,34.984375 52.7226562,34.984375 C51.5247396,34.984375 50.4765625,35.358724 49.578125,36.1074219 C48.6796875,37.0058594 48.2304688,38.0540365 48.2304688,39.2519531 Z M53.8457031,43.96875 C53.546224,43.96875 53.3216146,43.96875 53.171875,43.96875 C53.0221354,44.1184896 52.8723958,44.1933594 52.7226562,44.1933594 C52.4231771,44.1933594 52.1985677,44.1933594 52.0488281,44.1933594 C51.8990885,44.0436198 51.6744792,43.96875 51.375,43.96875 C51.375,43.8190104 51.375,43.594401 51.375,43.2949219 C51.6744792,43.4446615 51.8990885,43.5195312 52.0488281,43.5195312 C52.1985677,43.5195312 52.4231771,43.5195312 52.7226562,43.5195312 C52.8723958,43.5195312 53.0221354,43.5195312 53.171875,43.5195312 C53.3216146,43.5195312 53.546224,43.4446615 53.8457031,43.2949219 C53.8457031,43.4446615 53.8457031,43.594401 53.8457031,43.7441406 C53.8457031,43.7441406 53.8457031,43.8190104 53.8457031,43.96875 Z M56.9902344,39.2519531 C56.9902344,40.1503906 56.6907552,41.0488281 56.0917969,41.9472656 C55.4928385,42.6959635 54.7441406,43.1451823 53.8457031,43.2949219 C53.8457031,43.1451823 53.8457031,42.9954427 53.8457031,42.8457031 C54.594401,42.546224 55.1933594,42.0970052 55.6425781,41.4980469 C56.0917969,40.749349 56.3164062,40.000651 56.3164062,39.2519531 C56.3164062,38.203776 55.9420573,37.3053385 55.1933594,36.5566406 C54.4446615,35.8079427 53.6210938,35.4335938 52.7226562,35.4335938 C51.6744792,35.4335938 50.7760417,35.8079427 50.0273438,36.5566406 C49.2786458,37.3053385 48.9042969,38.203776 48.9042969,39.2519531 C48.9042969,39.1022135 48.9042969,38.952474 48.9042969,38.8027344 C48.9042969,38.6529948 48.9042969,38.578125 48.9042969,38.578125 C48.9042969,38.578125 48.9042969,38.6529948 48.9042969,38.8027344 C48.9042969,38.952474 48.9042969,39.1022135 48.9042969,39.2519531 C48.9042969,39.4016927 48.9042969,39.5514323 48.9042969,39.7011719 C48.9042969,39.7011719 48.9042969,39.7011719 48.9042969,39.7011719 C48.9042969,39.7011719 48.9042969,39.7011719 48.9042969,39.7011719 C48.9042969,39.5514323 48.9042969,39.4016927 48.9042969,39.2519531 C48.9042969,40.000651 49.1289062,40.749349 49.578125,41.4980469 C50.0273438,42.0970052 50.6263021,42.546224 51.375,42.8457031 C51.375,42.8457031 51.375,42.9954427 51.375,43.2949219 C50.4765625,43.1451823 49.7278646,42.6210938 49.1289062,41.7226562 C48.5299479,40.9739583 48.2304688,40.1503906 48.2304688,39.2519531 C48.2304688,38.0540365 48.6796875,37.0058594 49.578125,36.1074219 C50.4765625,35.358724 51.5247396,34.984375 52.7226562,34.984375 C53.9205729,34.984375 54.8938802,35.358724 55.6425781,36.1074219 C56.5410156,37.0058594 56.9902344,38.0540365 56.9902344,39.2519531 Z M52.7226562,43.0703125 C52.8723958,43.0703125 53.0221354,42.9954427 53.171875,42.8457031 C53.3216146,42.8457031 53.546224,42.8457031 53.8457031,42.8457031 C53.8457031,42.8457031 53.8457031,42.9954427 53.8457031,43.2949219 C53.546224,43.4446615 53.3216146,43.5195312 53.171875,43.5195312 C53.0221354,43.5195312 52.8723958,43.5195312 52.7226562,43.5195312 C52.4231771,43.5195312 52.1985677,43.5195312 52.0488281,43.5195312 C51.8990885,43.5195312 51.6744792,43.4446615 51.375,43.2949219 C51.375,43.1451823 51.375,42.9954427 51.375,42.8457031 C51.6744792,42.8457031 51.8990885,42.8457031 52.0488281,42.8457031 C52.1985677,42.9954427 52.4231771,43.0703125 52.7226562,43.0703125 Z M40.59375,34.7597656 C40.7434896,34.9095052 40.8183594,34.984375 40.8183594,34.984375 C40.968099,35.1341146 41.0429688,35.2089844 41.0429688,35.2089844 C41.1927083,35.358724 41.2675781,35.4335938 41.2675781,35.4335938 C41.2675781,35.5833333 41.2675781,35.7330729 41.2675781,35.8828125 C41.2675781,37.6796875 41.2675781,39.9257812 41.2675781,42.6210938 C41.2675781,45.4661458 41.2675781,48.7604167 41.2675781,52.5039062 C41.2675781,52.6536458 41.2675781,52.7285156 41.2675781,52.7285156 C41.1178385,52.8782552 41.0429688,53.0279948 41.0429688,53.1777344 C40.8932292,53.1777344 40.7434896,53.2526042 40.59375,53.4023438 C40.4440104,53.4023438 40.3691406,53.4023438 40.3691406,53.4023438 C40.219401,53.4023438 40.0696615,53.4023438 39.9199219,53.4023438 C39.7701823,53.2526042 39.6953125,53.1777344 39.6953125,53.1777344 C39.5455729,53.0279948 39.4707031,52.8782552 39.4707031,52.7285156 C39.3209635,52.7285156 39.2460938,52.6536458 39.2460938,52.5039062 C39.2460938,50.8567708 39.2460938,48.8352865 39.2460938,46.4394531 C39.2460938,44.0436198 39.2460938,41.2734375 39.2460938,38.1289062 C39.2460938,38.2786458 39.171224,38.3535156 39.0214844,38.3535156 C38.8717448,38.5032552 38.7220052,38.6529948 38.5722656,38.8027344 C38.5722656,38.952474 38.4973958,39.0273438 38.3476562,39.0273438 C38.1979167,39.0273438 38.0481771,39.0273438 37.8984375,39.0273438 C37.7486979,39.0273438 37.6738281,39.0273438 37.6738281,39.0273438 C37.5240885,39.0273438 37.374349,38.952474 37.2246094,38.8027344 C37.2246094,38.6529948 37.1497396,38.578125 37,38.578125 C37,38.4283854 37,38.2786458 37,38.1289062 C37,37.9791667 37,37.8294271 37,37.6796875 C37.1497396,37.6796875 37.2246094,37.6048177 37.2246094,37.4550781 C37.5240885,37.155599 37.8984375,36.8561198 38.3476562,36.5566406 C38.6471354,36.1074219 39.0963542,35.5833333 39.6953125,34.984375 C39.6953125,34.984375 39.7701823,34.984375 39.9199219,34.984375 C39.9199219,34.8346354 39.9947917,34.7597656 40.1445312,34.7597656 C40.1445312,34.7597656 40.1445312,34.7597656 40.1445312,34.7597656 C40.2942708,34.7597656 40.3691406,34.7597656 40.3691406,34.7597656 C40.3691406,34.7597656 40.4440104,34.7597656 40.59375,34.7597656 C40.59375,34.7597656 40.59375,34.7597656 40.59375,34.7597656 Z M100.789062,47.1132812 C100.789062,47.1132812 100.789062,47.0384115 100.789062,46.8886719 C100.639323,46.8886719 100.564453,46.8138021 100.564453,46.6640625 C100.564453,46.6640625 100.564453,46.6640625 100.564453,46.6640625 C100.564453,46.5143229 100.564453,46.4394531 100.564453,46.4394531 C100.564453,46.4394531 100.564453,46.4394531 100.564453,46.4394531 C100.564453,46.4394531 100.564453,46.4394531 100.564453,46.4394531 C100.564453,46.2897135 100.639323,46.139974 100.789062,45.9902344 C100.789062,45.6907552 100.863932,45.3164062 101.013672,44.8671875 C101.013672,44.4179688 101.163411,43.96875 101.462891,43.5195312 C101.61263,43.0703125 101.912109,42.546224 102.361328,41.9472656 C102.511068,41.6477865 102.735677,41.3483073 103.035156,41.0488281 C103.184896,40.749349 103.409505,40.4498698 103.708984,40.1503906 C104.008464,39.8509115 104.307943,39.5514323 104.607422,39.2519531 C105.056641,38.952474 105.43099,38.6529948 105.730469,38.3535156 C106.628906,37.9042969 107.377604,37.4550781 107.976562,37.0058594 C108.425781,36.5566406 108.80013,36.1074219 109.099609,35.6582031 C109.249349,35.358724 109.399089,34.984375 109.548828,34.5351562 C109.698568,34.2356771 109.773438,33.9361979 109.773438,33.6367188 C109.773438,33.4869792 109.773438,33.4121094 109.773438,33.4121094 C109.773438,33.2623698 109.698568,33.1126302 109.548828,32.9628906 C109.548828,32.9628906 109.548828,32.8880208 109.548828,32.7382812 C109.548828,32.5885417 109.548828,32.4388021 109.548828,32.2890625 C109.399089,32.1393229 109.249349,31.9895833 109.099609,31.8398438 C108.94987,31.5403646 108.72526,31.3157552 108.425781,31.1660156 C108.276042,31.016276 107.976562,30.9414062 107.527344,30.9414062 C107.227865,30.7916667 106.778646,30.7167969 106.179688,30.7167969 C105.880208,30.7167969 105.580729,30.7916667 105.28125,30.9414062 C104.981771,30.9414062 104.682292,31.016276 104.382812,31.1660156 C104.083333,31.3157552 103.858724,31.5403646 103.708984,31.8398438 C103.559245,32.1393229 103.409505,32.4388021 103.259766,32.7382812 C103.110026,32.7382812 103.035156,32.813151 103.035156,32.9628906 C102.885417,33.1126302 102.735677,33.1875 102.585938,33.1875 C102.436198,33.1875 102.286458,33.1875 102.136719,33.1875 C102.136719,33.1875 102.061849,33.1875 101.912109,33.1875 C101.76237,33.0377604 101.61263,32.9628906 101.462891,32.9628906 C101.462891,32.813151 101.462891,32.6634115 101.462891,32.5136719 C101.313151,32.3639323 101.238281,32.2890625 101.238281,32.2890625 C101.238281,32.1393229 101.313151,31.9895833 101.462891,31.8398438 C101.61263,31.390625 101.83724,30.9414062 102.136719,30.4921875 C102.436198,30.1927083 102.810547,29.8932292 103.259766,29.59375 C103.708984,29.2942708 104.158203,29.1445312 104.607422,29.1445312 C105.20638,28.9947917 105.730469,28.9199219 106.179688,28.9199219 C107.227865,28.9199219 108.126302,28.9947917 108.875,29.1445312 C109.473958,29.4440104 109.998047,29.8932292 110.447266,30.4921875 C110.896484,30.9414062 111.195964,31.4654948 111.345703,32.0644531 C111.495443,32.5136719 111.570312,33.0377604 111.570312,33.6367188 C111.570312,34.2356771 111.495443,34.8346354 111.345703,35.4335938 C111.195964,36.0325521 110.896484,36.5566406 110.447266,37.0058594 C110.147786,37.4550781 109.698568,37.9791667 109.099609,38.578125 C108.500651,39.0273438 107.751953,39.5514323 106.853516,40.1503906 C106.254557,40.5996094 105.655599,41.0488281 105.056641,41.4980469 C104.607422,41.9472656 104.233073,42.3964844 103.933594,42.8457031 C103.634115,43.4446615 103.409505,43.96875 103.259766,44.4179688 C102.960286,44.8671875 102.810547,45.2415365 102.810547,45.5410156 C103.708984,45.5410156 104.832031,45.5410156 106.179688,45.5410156 C107.527344,45.5410156 109.099609,45.5410156 110.896484,45.5410156 C111.046224,45.5410156 111.195964,45.5410156 111.345703,45.5410156 C111.495443,45.5410156 111.570312,45.6158854 111.570312,45.765625 C111.720052,45.9153646 111.794922,46.0651042 111.794922,46.2148438 C111.944661,46.2148438 112.019531,46.2897135 112.019531,46.4394531 C112.019531,46.5891927 111.944661,46.7389323 111.794922,46.8886719 C111.794922,47.0384115 111.720052,47.1132812 111.570312,47.1132812 C111.570312,47.2630208 111.495443,47.3378906 111.345703,47.3378906 C111.195964,47.3378906 111.046224,47.3378906 110.896484,47.3378906 C110.147786,47.3378906 109.399089,47.3378906 108.650391,47.3378906 C107.901693,47.3378906 107.078125,47.3378906 106.179688,47.3378906 C105.43099,47.3378906 104.682292,47.3378906 103.933594,47.3378906 C103.184896,47.3378906 102.361328,47.3378906 101.462891,47.3378906 C101.462891,47.3378906 101.462891,47.3378906 101.462891,47.3378906 C101.313151,47.3378906 101.238281,47.3378906 101.238281,47.3378906 C101.088542,47.3378906 101.013672,47.3378906 101.013672,47.3378906 C101.013672,47.188151 100.938802,47.1132812 100.789062,47.1132812 Z"/></svg>