<svg xmlns="http://www.w3.org/2000/svg" width="207" height="207" viewBox="0 0 207 207"><path fill="#131313" d="M158.123047,48.4941406 C160.66862,52.3873698 162.690104,57.5533854 164.1875,63.9921875 C165.535156,70.4309896 164.412109,78.1425781 160.818359,87.1269531 C159.171224,91.3196615 156.700521,94.8385417 153.40625,97.6835938 C150.261719,100.678385 146.667969,103.223958 142.625,105.320312 C134.988281,109.063802 126.527995,111.459635 117.244141,112.507812 C108.110026,113.705729 100.024089,114.304688 92.9863281,114.304688 C91.7884115,114.304688 90.5904948,114.304688 89.3925781,114.304688 C88.344401,114.304688 87.296224,114.229818 86.2480469,114.080078 C86.2480469,127.257161 86.2480469,146.947917 86.2480469,173.152344 C86.2480469,175.398438 85.4244792,177.345052 83.7773438,178.992188 C82.2799479,180.489583 80.4082031,181.238281 78.1621094,181.238281 C75.9160156,181.238281 73.969401,180.489583 72.3222656,178.992188 C70.6751302,177.345052 69.8515625,175.398438 69.8515625,173.152344 C69.8515625,142.30599 69.8515625,96.0364583 69.8515625,34.34375 C69.8515625,34.34375 69.8515625,34.34375 69.8515625,34.34375 C69.8515625,34.34375 69.8515625,34.34375 69.8515625,34.34375 C69.8515625,32.6966146 70.375651,31.1992188 71.4238281,29.8515625 C72.3222656,28.5039062 73.5201823,27.4557292 75.0175781,26.7070312 C75.4667969,26.5572917 75.9160156,26.4075521 76.3652344,26.2578125 C76.9641927,26.2578125 77.563151,26.2578125 78.1621094,26.2578125 C84.9003906,26.2578125 95.0078125,26.2578125 108.484375,26.2578125 C119.115885,26.2578125 128.923828,28.2044271 137.908203,32.0976562 C146.742839,36.140625 153.48112,41.6061198 158.123047,48.4941406 Z M145.544922,81.0625 C147.491536,76.5703125 148.389974,72.3027344 148.240234,68.2597656 C147.940755,64.3665365 146.742839,60.8476562 144.646484,57.703125 C141.501953,53.0611979 136.635417,49.3925781 130.046875,46.6972656 C123.458333,43.8522135 116.270833,42.4296875 108.484375,42.4296875 C103.542969,42.4296875 96.1308594,42.4296875 86.2480469,42.4296875 C86.2480469,54.7083333 86.2480469,73.1263021 86.2480469,97.6835938 C89.2428385,97.8333333 92.9114583,97.9082031 97.2539062,97.9082031 C101.596354,97.7584635 106.088542,97.3841146 110.730469,96.7851562 C120.313802,95.7369792 128.10026,93.8652344 134.089844,91.1699219 C140.079427,88.4746094 143.897786,85.1054688 145.544922,81.0625 Z M107.810547,13.9042969 C117.693359,13.9042969 126.977214,15.4765625 135.662109,18.6210938 C144.496745,21.6158854 152.058594,25.9583333 158.347656,31.6484375 C157.898438,31.9479167 157.299479,32.4720052 156.550781,33.2207031 C150.561198,27.8300781 143.298828,23.6373698 134.763672,20.6425781 C126.378255,17.6477865 117.39388,16.1503906 107.810547,16.1503906 C103.16862,16.1503906 96.280599,16.1503906 87.1464844,16.1503906 C87.1464844,16.000651 87.1464844,15.8509115 87.1464844,15.7011719 C87.296224,15.4016927 87.3710938,15.1770833 87.3710938,15.0273438 C87.3710938,14.8776042 87.296224,14.7278646 87.1464844,14.578125 C87.1464844,14.2786458 87.1464844,14.0540365 87.1464844,13.9042969 C90.5904948,13.9042969 94.0345052,13.9042969 97.4785156,13.9042969 C100.922526,13.9042969 104.366536,13.9042969 107.810547,13.9042969 Z M82.4296875,19.2949219 C83.328125,19.2949219 84.1516927,18.9954427 84.9003906,18.3964844 C85.6490885,17.797526 86.1731771,17.0488281 86.4726562,16.1503906 C86.6223958,16.1503906 86.8470052,16.1503906 87.1464844,16.1503906 C86.8470052,17.1985677 86.2480469,18.0970052 85.3496094,18.8457031 C84.4511719,19.594401 83.4778646,19.96875 82.4296875,19.96875 C81.0820312,19.96875 79.8841146,19.5195312 78.8359375,18.6210938 C77.9375,17.5729167 77.4882812,16.375 77.4882812,15.0273438 C77.4882812,13.6796875 77.9375,12.5566406 78.8359375,11.6582031 C79.8841146,10.610026 81.0820312,10.0859375 82.4296875,10.0859375 C83.4778646,10.0859375 84.4511719,10.4602865 85.3496094,11.2089844 C86.2480469,11.9576823 86.8470052,12.8561198 87.1464844,13.9042969 C86.9967448,13.9042969 86.7721354,13.9042969 86.4726562,13.9042969 C86.1731771,13.0058594 85.6490885,12.2571615 84.9003906,11.6582031 C84.1516927,11.0592448 83.328125,10.7597656 82.4296875,10.7597656 C81.2317708,10.7597656 80.1835938,11.2089844 79.2851562,12.1074219 C78.3867188,12.8561198 77.9375,13.8294271 77.9375,15.0273438 C77.9375,16.2252604 78.3867188,17.2734375 79.2851562,18.171875 C80.1835938,18.9205729 81.2317708,19.2949219 82.4296875,19.2949219 Z M87.1464844,13.9042969 C87.1464844,14.0540365 87.1464844,14.2786458 87.1464844,14.578125 C87.1464844,14.7278646 87.1464844,14.8776042 87.1464844,15.0273438 C87.1464844,15.1770833 87.1464844,15.4016927 87.1464844,15.7011719 C87.1464844,15.8509115 87.1464844,16.000651 87.1464844,16.1503906 C86.9967448,16.1503906 86.7721354,16.1503906 86.4726562,16.1503906 C86.4726562,16.000651 86.547526,15.8509115 86.6972656,15.7011719 C86.6972656,15.4016927 86.6972656,15.1770833 86.6972656,15.0273438 C86.6972656,14.8776042 86.6972656,14.7278646 86.6972656,14.578125 C86.547526,14.2786458 86.4726562,14.0540365 86.4726562,13.9042969 C86.6223958,13.9042969 86.6972656,13.9042969 86.6972656,13.9042969 C86.8470052,13.9042969 86.9967448,13.9042969 87.1464844,13.9042969 Z M82.4296875,10.7597656 C83.328125,10.7597656 84.1516927,11.0592448 84.9003906,11.6582031 C85.6490885,12.2571615 86.1731771,13.0058594 86.4726562,13.9042969 C86.3229167,13.9042969 86.0983073,13.9042969 85.7988281,13.9042969 C85.6490885,13.155599 85.1998698,12.5566406 84.4511719,12.1074219 C83.8522135,11.5084635 83.1783854,11.2089844 82.4296875,11.2089844 C82.5794271,11.2089844 82.7291667,11.2089844 82.8789062,11.2089844 C82.8789062,11.2089844 82.8789062,11.2089844 82.8789062,11.2089844 C82.8789062,11.2089844 82.8789062,11.2089844 82.8789062,11.2089844 C82.7291667,11.2089844 82.5794271,11.2089844 82.4296875,11.2089844 C82.2799479,11.2089844 82.1302083,11.2089844 81.9804688,11.2089844 C81.8307292,11.2089844 81.7558594,11.2089844 81.7558594,11.2089844 C81.7558594,11.2089844 81.8307292,11.2089844 81.9804688,11.2089844 C82.1302083,11.2089844 82.2799479,11.2089844 82.4296875,11.2089844 C81.3815104,11.2089844 80.4830729,11.5833333 79.734375,12.3320312 C78.9856771,13.0807292 78.6113281,13.9791667 78.6113281,15.0273438 C78.6113281,16.0755208 78.9856771,16.9739583 79.734375,17.7226562 C80.4830729,18.4713542 81.3815104,18.8457031 82.4296875,18.8457031 C83.1783854,18.8457031 83.8522135,18.6210938 84.4511719,18.171875 C85.1998698,17.5729167 85.6490885,16.8990885 85.7988281,16.1503906 C85.9485677,16.1503906 86.1731771,16.1503906 86.4726562,16.1503906 C86.1731771,17.0488281 85.6490885,17.797526 84.9003906,18.3964844 C84.1516927,18.9954427 83.328125,19.2949219 82.4296875,19.2949219 C81.2317708,19.2949219 80.1835938,18.9205729 79.2851562,18.171875 C78.3867188,17.2734375 77.9375,16.2252604 77.9375,15.0273438 C77.9375,13.8294271 78.3867188,12.8561198 79.2851562,12.1074219 C80.1835938,11.2089844 81.2317708,10.7597656 82.4296875,10.7597656 Z M86.0234375,15.0273438 C86.0234375,14.8776042 86.0234375,14.7278646 86.0234375,14.578125 C86.0234375,14.2786458 85.9485677,14.0540365 85.7988281,13.9042969 C85.9485677,13.9042969 86.1731771,13.9042969 86.4726562,13.9042969 C86.4726562,14.0540365 86.547526,14.2786458 86.6972656,14.578125 C86.6972656,14.7278646 86.6972656,14.8776042 86.6972656,15.0273438 C86.6972656,15.1770833 86.6972656,15.4016927 86.6972656,15.7011719 C86.547526,15.8509115 86.4726562,16.000651 86.4726562,16.1503906 C86.3229167,16.1503906 86.0983073,16.1503906 85.7988281,16.1503906 C85.9485677,16.000651 86.0234375,15.8509115 86.0234375,15.7011719 C86.0234375,15.5514323 86.0234375,15.3268229 86.0234375,15.0273438 Z M158.347656,31.6484375 C158.647135,31.3489583 159.246094,30.8248698 160.144531,30.0761719 C161.342448,32.7714844 163.139323,36.6647135 165.535156,41.7558594 C163.289062,40.108724 159.770182,37.7128906 154.978516,34.5683594 C155.277995,34.2688802 155.802083,33.8196615 156.550781,33.2207031 C156.85026,33.5201823 157.14974,33.7447917 157.449219,33.8945312 C157.748698,34.1940104 158.048177,34.4934896 158.347656,34.7929688 C158.647135,34.4934896 159.171224,33.969401 159.919922,33.2207031 C159.620443,32.921224 159.320964,32.6217448 159.021484,32.3222656 C158.722005,32.172526 158.497396,31.9479167 158.347656,31.6484375 Z M159.919922,33.2207031 C159.470703,33.5201823 158.946615,34.0442708 158.347656,34.7929688 C158.048177,34.4934896 157.748698,34.1940104 157.449219,33.8945312 C157.14974,33.7447917 156.85026,33.5201823 156.550781,33.2207031 C156.85026,32.921224 157.449219,32.3971354 158.347656,31.6484375 C158.497396,31.9479167 158.722005,32.172526 159.021484,32.3222656 C159.320964,32.6217448 159.620443,32.921224 159.919922,33.2207031 Z M58.3964844,72.078125 C58.8457031,72.078125 59.594401,72.078125 60.6425781,72.078125 C60.6425781,65.4895833 60.6425781,55.6816406 60.6425781,42.6542969 C60.4928385,42.6542969 60.343099,42.6542969 60.1933594,42.6542969 C59.8938802,42.8040365 59.6692708,42.8789062 59.5195312,42.8789062 C59.3697917,42.8789062 59.1451823,42.8040365 58.8457031,42.6542969 C58.6959635,42.6542969 58.546224,42.6542969 58.3964844,42.6542969 C58.3964844,47.5957031 58.3964844,52.4622396 58.3964844,57.2539062 C58.3964844,62.1953125 58.3964844,67.1367188 58.3964844,72.078125 Z M58.3964844,74.3242188 C58.3964844,73.875 58.3964844,73.1263021 58.3964844,72.078125 C57.9472656,72.078125 57.1985677,72.078125 56.1503906,72.078125 C56.8990885,74.7734375 58.0221354,78.891276 59.5195312,84.4316406 C60.2682292,81.7363281 61.391276,77.6184896 62.8886719,72.078125 C62.4394531,72.078125 61.6907552,72.078125 60.6425781,72.078125 C60.6425781,72.5273438 60.6425781,73.2760417 60.6425781,74.3242188 C60.1933594,74.3242188 59.4446615,74.3242188 58.3964844,74.3242188 Z M58.3964844,74.3242188 C58.8457031,74.3242188 59.594401,74.3242188 60.6425781,74.3242188 C60.6425781,73.875 60.6425781,73.1263021 60.6425781,72.078125 C60.1933594,72.078125 59.4446615,72.078125 58.3964844,72.078125 C58.3964844,72.5273438 58.3964844,73.2760417 58.3964844,74.3242188 Z M64.4609375,38.6113281 C64.4609375,38.4615885 64.4609375,38.311849 64.4609375,38.1621094 C64.4609375,38.1621094 64.4609375,38.0872396 64.4609375,37.9375 C64.4609375,38.0872396 64.4609375,38.2369792 64.4609375,38.3867188 C64.4609375,38.3867188 64.4609375,38.4615885 64.4609375,38.6113281 Z M54.578125,37.9375 C54.578125,39.1354167 54.952474,40.108724 55.7011719,40.8574219 C56.4498698,41.7558594 57.3483073,42.3548177 58.3964844,42.6542969 C58.3964844,42.5045573 58.3964844,42.2799479 58.3964844,41.9804688 C57.4980469,41.8307292 56.749349,41.3815104 56.1503906,40.6328125 C55.5514323,39.734375 55.2519531,38.8359375 55.2519531,37.9375 C55.2519531,36.7395833 55.6263021,35.6914062 56.375,34.7929688 C57.2734375,34.0442708 58.3216146,33.6699219 59.5195312,33.6699219 C60.7174479,33.6699219 61.765625,34.0442708 62.6640625,34.7929688 C63.4127604,35.6914062 63.7871094,36.7395833 63.7871094,37.9375 C63.7871094,38.8359375 63.4876302,39.734375 62.8886719,40.6328125 C62.2897135,41.3815104 61.5410156,41.8307292 60.6425781,41.9804688 C60.6425781,42.1302083 60.6425781,42.3548177 60.6425781,42.6542969 C61.6907552,42.3548177 62.5891927,41.7558594 63.3378906,40.8574219 C64.0865885,40.108724 64.4609375,39.1354167 64.4609375,37.9375 C64.4609375,36.5898438 63.936849,35.3919271 62.8886719,34.34375 C61.9902344,33.4453125 60.8671875,32.9960938 59.5195312,32.9960938 C58.171875,32.9960938 57.0488281,33.4453125 56.1503906,34.34375 C55.1022135,35.3919271 54.578125,36.5898438 54.578125,37.9375 Z M64.4609375,37.9375 C64.4609375,37.7877604 64.4609375,37.6380208 64.4609375,37.4882812 C64.4609375,37.3385417 64.4609375,37.2636719 64.4609375,37.2636719 C64.4609375,37.2636719 64.4609375,37.3385417 64.4609375,37.4882812 C64.4609375,37.6380208 64.4609375,37.7877604 64.4609375,37.9375 Z M58.3964844,41.9804688 C58.3964844,42.1302083 58.3964844,42.3548177 58.3964844,42.6542969 C58.546224,42.6542969 58.6959635,42.6542969 58.8457031,42.6542969 C59.1451823,42.8040365 59.3697917,42.8789062 59.5195312,42.8789062 C59.6692708,42.8789062 59.8938802,42.8040365 60.1933594,42.6542969 C60.343099,42.6542969 60.4928385,42.6542969 60.6425781,42.6542969 C60.6425781,42.5045573 60.6425781,42.2799479 60.6425781,41.9804688 C60.4928385,42.1302083 60.343099,42.2050781 60.1933594,42.2050781 C59.8938802,42.2050781 59.6692708,42.2050781 59.5195312,42.2050781 C59.3697917,42.2050781 59.1451823,42.2050781 58.8457031,42.2050781 C58.6959635,42.2050781 58.546224,42.1302083 58.3964844,41.9804688 Z M55.7011719,38.3867188 C55.7011719,38.3867188 55.7011719,38.3867188 55.7011719,38.3867188 C55.7011719,38.3867188 55.7011719,38.4615885 55.7011719,38.6113281 C55.7011719,38.4615885 55.7011719,38.3867188 55.7011719,38.3867188 C55.7011719,38.3867188 55.7011719,38.3867188 55.7011719,38.3867188 C55.7011719,38.2369792 55.7011719,38.0872396 55.7011719,37.9375 C55.7011719,37.6380208 55.7011719,37.4882812 55.7011719,37.4882812 C55.7011719,37.3385417 55.7011719,37.2636719 55.7011719,37.2636719 C55.7011719,37.2636719 55.7011719,37.2636719 55.7011719,37.2636719 C55.7011719,37.2636719 55.7011719,37.2636719 55.7011719,37.2636719 C55.7011719,37.2636719 55.7011719,37.3385417 55.7011719,37.4882812 C55.7011719,37.4882812 55.7011719,37.4882812 55.7011719,37.4882812 C55.7011719,37.6380208 55.7011719,37.7877604 55.7011719,37.9375 C55.7011719,36.8893229 56.0755208,35.9908854 56.8242188,35.2421875 C57.5729167,34.4934896 58.4713542,34.1191406 59.5195312,34.1191406 C60.5677083,34.1191406 61.4661458,34.4934896 62.2148438,35.2421875 C62.9635417,35.9908854 63.3378906,36.8893229 63.3378906,37.9375 C63.3378906,38.6861979 63.0384115,39.4348958 62.4394531,40.1835938 C61.9902344,40.7825521 61.391276,41.2317708 60.6425781,41.53125 C60.6425781,41.6809896 60.6425781,41.8307292 60.6425781,41.9804688 C61.5410156,41.8307292 62.2897135,41.3815104 62.8886719,40.6328125 C63.4876302,39.734375 63.7871094,38.8359375 63.7871094,37.9375 C63.7871094,36.7395833 63.4127604,35.6914062 62.6640625,34.7929688 C61.765625,34.0442708 60.7174479,33.6699219 59.5195312,33.6699219 C58.3216146,33.6699219 57.2734375,34.0442708 56.375,34.7929688 C55.6263021,35.6914062 55.2519531,36.7395833 55.2519531,37.9375 C55.2519531,38.8359375 55.5514323,39.734375 56.1503906,40.6328125 C56.749349,41.3815104 57.4980469,41.8307292 58.3964844,41.9804688 C58.3964844,41.8307292 58.3964844,41.6809896 58.3964844,41.53125 C57.6477865,41.2317708 57.0488281,40.7825521 56.5996094,40.1835938 C56.000651,39.4348958 55.7011719,38.6861979 55.7011719,37.9375 C55.7011719,38.0872396 55.7011719,38.1621094 55.7011719,38.1621094 C55.7011719,38.311849 55.7011719,38.3867188 55.7011719,38.3867188 Z M55.7011719,37.9375 C55.7011719,37.7877604 55.7011719,37.6380208 55.7011719,37.4882812 C55.7011719,37.4882812 55.7011719,37.4882812 55.7011719,37.4882812 C55.7011719,37.4882812 55.7011719,37.6380208 55.7011719,37.9375 C55.7011719,38.0872396 55.7011719,38.2369792 55.7011719,38.3867188 C55.7011719,38.3867188 55.7011719,38.311849 55.7011719,38.1621094 C55.7011719,38.1621094 55.7011719,38.0872396 55.7011719,37.9375 Z M60.6425781,41.53125 C60.4928385,41.53125 60.343099,41.53125 60.1933594,41.53125 C59.8938802,41.6809896 59.6692708,41.7558594 59.5195312,41.7558594 C59.3697917,41.7558594 59.1451823,41.6809896 58.8457031,41.53125 C58.6959635,41.53125 58.546224,41.53125 58.3964844,41.53125 C58.3964844,41.6809896 58.3964844,41.8307292 58.3964844,41.9804688 C58.546224,42.1302083 58.6959635,42.2050781 58.8457031,42.2050781 C59.1451823,42.2050781 59.3697917,42.2050781 59.5195312,42.2050781 C59.6692708,42.2050781 59.8938802,42.2050781 60.1933594,42.2050781 C60.343099,42.2050781 60.4928385,42.1302083 60.6425781,41.9804688 C60.6425781,41.9804688 60.6425781,41.905599 60.6425781,41.7558594 C60.6425781,41.6061198 60.6425781,41.53125 60.6425781,41.53125 Z M45.59375,33.6699219 C45.7434896,33.6699219 45.8183594,33.6699219 45.8183594,33.6699219 C45.968099,33.8196615 46.0429688,33.8945312 46.0429688,33.8945312 C46.0429688,34.0442708 46.0429688,34.1191406 46.0429688,34.1191406 C46.1927083,34.2688802 46.2675781,34.4186198 46.2675781,34.5683594 C46.2675781,36.3652344 46.2675781,38.6113281 46.2675781,41.3066406 C46.2675781,44.1516927 46.2675781,47.4459635 46.2675781,51.1894531 C46.2675781,51.1894531 46.1927083,51.2643229 46.0429688,51.4140625 C46.0429688,51.5638021 45.968099,51.7135417 45.8183594,51.8632812 C45.8183594,51.8632812 45.7434896,51.938151 45.59375,52.0878906 C45.4440104,52.0878906 45.2942708,52.0878906 45.1445312,52.0878906 C44.9947917,52.0878906 44.9199219,52.0878906 44.9199219,52.0878906 C44.7701823,51.938151 44.6204427,51.8632812 44.4707031,51.8632812 C44.4707031,51.7135417 44.3958333,51.5638021 44.2460938,51.4140625 C44.2460938,51.4140625 44.2460938,51.3391927 44.2460938,51.1894531 C44.2460938,49.5423177 44.2460938,47.5208333 44.2460938,45.125 C44.2460938,42.7291667 44.2460938,39.9589844 44.2460938,36.8144531 C44.2460938,36.8144531 44.171224,36.8893229 44.0214844,37.0390625 C43.8717448,37.1888021 43.7220052,37.3385417 43.5722656,37.4882812 C43.422526,37.6380208 43.3476562,37.7128906 43.3476562,37.7128906 C43.1979167,37.7128906 43.0481771,37.7128906 42.8984375,37.7128906 C42.7486979,37.7128906 42.5989583,37.7128906 42.4492188,37.7128906 C42.4492188,37.7128906 42.374349,37.6380208 42.2246094,37.4882812 C42.0748698,37.3385417 42,37.2636719 42,37.2636719 C42,37.1139323 42,36.9641927 42,36.8144531 C42,36.6647135 42,36.514974 42,36.3652344 C42,36.3652344 42.0748698,36.2903646 42.2246094,36.140625 C42.5240885,35.8411458 42.8235677,35.5416667 43.1230469,35.2421875 C43.5722656,34.7929688 44.0214844,34.34375 44.4707031,33.8945312 C44.6204427,33.7447917 44.6953125,33.6699219 44.6953125,33.6699219 C44.8450521,33.5201823 44.9947917,33.4453125 45.1445312,33.4453125 C45.1445312,33.4453125 45.1445312,33.4453125 45.1445312,33.4453125 C45.1445312,33.4453125 45.219401,33.4453125 45.3691406,33.4453125 C45.3691406,33.4453125 45.3691406,33.4453125 45.3691406,33.4453125 C45.5188802,33.4453125 45.59375,33.5201823 45.59375,33.6699219 Z M70.75,18.8457031 C70.8997396,18.8457031 71.0494792,18.8457031 71.1992188,18.8457031 C71.1992188,18.8457031 71.2740885,18.9205729 71.4238281,19.0703125 C71.5735677,19.2200521 71.6484375,19.2949219 71.6484375,19.2949219 C71.6484375,19.4446615 71.6484375,19.594401 71.6484375,19.7441406 C71.6484375,19.8938802 71.6484375,20.0436198 71.6484375,20.1933594 C71.6484375,20.1933594 71.5735677,20.2682292 71.4238281,20.4179688 C71.2740885,20.5677083 71.1992188,20.6425781 71.1992188,20.6425781 C71.0494792,20.6425781 70.8997396,20.6425781 70.75,20.6425781 C70.0013021,20.6425781 69.1777344,20.6425781 68.2792969,20.6425781 C67.530599,20.6425781 66.781901,20.6425781 66.0332031,20.6425781 C65.2845052,20.6425781 64.5358073,20.6425781 63.7871094,20.6425781 C62.8886719,20.6425781 62.0651042,20.6425781 61.3164062,20.6425781 C61.3164062,20.6425781 61.2415365,20.6425781 61.0917969,20.6425781 C61.0917969,20.6425781 61.0169271,20.6425781 60.8671875,20.6425781 C60.8671875,20.6425781 60.8671875,20.5677083 60.8671875,20.4179688 C60.7174479,20.4179688 60.6425781,20.4179688 60.6425781,20.4179688 C60.6425781,20.4179688 60.5677083,20.343099 60.4179688,20.1933594 C60.4179688,20.1933594 60.4179688,20.1184896 60.4179688,19.96875 C60.4179688,19.96875 60.4179688,19.96875 60.4179688,19.96875 C60.4179688,19.8190104 60.4179688,19.7441406 60.4179688,19.7441406 C60.4179688,19.7441406 60.4179688,19.7441406 60.4179688,19.7441406 C60.4179688,19.7441406 60.4179688,19.7441406 60.4179688,19.7441406 C60.4179688,19.594401 60.4179688,19.4446615 60.4179688,19.2949219 C60.5677083,18.9954427 60.6425781,18.6210938 60.6425781,18.171875 C60.7923177,17.7226562 60.9420573,17.2734375 61.0917969,16.8242188 C61.391276,16.2252604 61.6907552,15.7011719 61.9902344,15.2519531 C62.2897135,14.952474 62.5143229,14.6529948 62.6640625,14.3535156 C62.9635417,14.0540365 63.2630208,13.7545573 63.5625,13.4550781 C63.8619792,13.155599 64.1614583,12.8561198 64.4609375,12.5566406 C64.7604167,12.2571615 65.1347656,11.9576823 65.5839844,11.6582031 C66.4824219,11.0592448 67.15625,10.5351562 67.6054688,10.0859375 C68.2044271,9.63671875 68.6536458,9.26236979 68.953125,8.96289062 C69.1028646,8.51367188 69.2526042,8.13932292 69.4023438,7.83984375 C69.4023438,7.54036458 69.4023438,7.24088542 69.4023438,6.94140625 C69.4023438,6.79166667 69.4023438,6.71679688 69.4023438,6.71679688 C69.4023438,6.56705729 69.4023438,6.41731771 69.4023438,6.26757812 C69.4023438,6.11783854 69.4023438,6.04296875 69.4023438,6.04296875 C69.4023438,5.89322917 69.327474,5.74348958 69.1777344,5.59375 C69.1777344,5.44401042 69.1028646,5.21940104 68.953125,4.91992188 C68.6536458,4.77018229 68.4290365,4.62044271 68.2792969,4.47070312 C67.9798177,4.32096354 67.6803385,4.24609375 67.3808594,4.24609375 C66.9316406,4.09635417 66.4824219,4.02148438 66.0332031,4.02148438 C65.733724,4.02148438 65.4342448,4.09635417 65.1347656,4.24609375 C64.8352865,4.24609375 64.5358073,4.32096354 64.2363281,4.47070312 C63.936849,4.62044271 63.7122396,4.84505208 63.5625,5.14453125 C63.2630208,5.29427083 63.0384115,5.51888021 62.8886719,5.81835938 C62.8886719,5.96809896 62.8138021,6.11783854 62.6640625,6.26757812 C62.6640625,6.26757812 62.5891927,6.34244792 62.4394531,6.4921875 C62.2897135,6.4921875 62.139974,6.4921875 61.9902344,6.4921875 C61.8404948,6.4921875 61.765625,6.41731771 61.765625,6.26757812 C61.6158854,6.26757812 61.4661458,6.26757812 61.3164062,6.26757812 C61.3164062,6.11783854 61.2415365,5.96809896 61.0917969,5.81835938 C61.0917969,5.66861979 61.0917969,5.51888021 61.0917969,5.36914062 C61.0917969,5.36914062 61.0917969,5.29427083 61.0917969,5.14453125 C61.391276,4.54557292 61.6907552,4.09635417 61.9902344,3.796875 C62.2897135,3.49739583 62.6640625,3.19791667 63.1132812,2.8984375 C63.5625,2.59895833 64.0117188,2.37434896 64.4609375,2.22460938 C64.9101562,2.07486979 65.4342448,2 66.0332031,2 C67.0813802,2 67.9049479,2.14973958 68.5039062,2.44921875 C69.2526042,2.74869792 69.8515625,3.12304688 70.3007812,3.57226562 C70.6002604,4.17122396 70.8997396,4.6953125 71.1992188,5.14453125 C71.3489583,5.74348958 71.4238281,6.34244792 71.4238281,6.94140625 C71.4238281,7.54036458 71.3489583,8.13932292 71.1992188,8.73828125 C71.0494792,9.1875 70.75,9.71158854 70.3007812,10.3105469 C70.0013021,10.7597656 69.5520833,11.2838542 68.953125,11.8828125 C68.3541667,12.3320312 67.6054688,12.8561198 66.7070312,13.4550781 C65.9583333,13.7545573 65.359375,14.1289062 64.9101562,14.578125 C64.4609375,15.1770833 64.0865885,15.7011719 63.7871094,16.1503906 C63.4876302,16.749349 63.2630208,17.1985677 63.1132812,17.4980469 C62.8138021,17.9472656 62.6640625,18.3964844 62.6640625,18.8457031 C63.5625,18.8457031 64.6855469,18.8457031 66.0332031,18.8457031 C67.3808594,18.8457031 68.953125,18.8457031 70.75,18.8457031 Z"/></svg>