<svg xmlns="http://www.w3.org/2000/svg" width="207" height="207" viewBox="0 0 207 207"><path fill="#131313" d="M159.695312,167.435547 C161.192708,168.932943 161.941406,170.804688 161.941406,173.050781 C161.941406,175.296875 161.192708,177.24349 159.695312,178.890625 C158.796875,179.639323 157.898438,180.238281 157,180.6875 C155.951823,180.986979 154.903646,181.136719 153.855469,181.136719 C152.807292,181.136719 151.759115,180.986979 150.710938,180.6875 C149.8125,180.238281 148.914062,179.639323 148.015625,178.890625 C133.790365,164.515625 112.377604,142.953125 83.7773438,114.203125 C83.7773438,127.380208 83.7773438,146.996094 83.7773438,173.050781 C83.7773438,175.296875 82.953776,177.24349 81.3066406,178.890625 C79.8092448,180.388021 77.9375,181.136719 75.6914062,181.136719 C73.4453125,181.136719 71.4986979,180.388021 69.8515625,178.890625 C68.2044271,177.24349 67.3808594,175.296875 67.3808594,173.050781 C67.3808594,142.204427 67.3808594,95.9348958 67.3808594,34.2421875 C67.3808594,31.9960938 68.2044271,30.0494792 69.8515625,28.4023438 C71.4986979,26.9049479 73.4453125,26.15625 75.6914062,26.15625 C82.4296875,26.15625 92.5371094,26.15625 106.013672,26.15625 C115.447266,26.15625 124.057292,28.1028646 131.84375,31.9960938 C139.779948,36.0390625 145.919271,41.5045573 150.261719,48.3925781 C153.855469,54.2324219 155.727214,60.5214844 155.876953,67.2597656 C156.026693,73.9980469 154.454427,80.8111979 151.160156,87.6992188 C147.716146,94.4375 142.250651,99.9029948 134.763672,104.095703 C127.126953,108.288411 117.46875,111.133464 105.789062,112.630859 C105.789062,112.630859 105.714193,112.630859 105.564453,112.630859 C105.414714,112.630859 105.339844,112.705729 105.339844,112.855469 C114.324219,121.839844 123.383464,130.899089 132.517578,140.033203 C141.501953,149.167318 150.561198,158.301432 159.695312,167.435547 Z M136.335938,56.9277344 C133.490885,52.4355469 129.373047,48.9166667 123.982422,46.3710937 C118.591797,43.6757812 112.602214,42.328125 106.013672,42.328125 C101.072266,42.328125 93.6601562,42.328125 83.7773438,42.328125 C83.7773438,54.6067708 83.7773438,73.0247396 83.7773438,97.5820312 C89.1679688,97.7317708 95.4570312,97.4322917 102.644531,96.6835938 C109.832031,95.9348958 116.420573,94.3626302 122.410156,91.9667969 C125.554688,90.6191406 128.39974,88.9720052 130.945312,87.0253906 C133.341146,85.2285156 135.212891,82.9824219 136.560547,80.2871094 C138.656901,76.094401 139.705078,72.0514323 139.705078,68.1582031 C139.555339,64.1152344 138.432292,60.3717448 136.335938,56.9277344 Z M132.292969,122.962891 C138.132812,128.802734 146.817708,137.48763 158.347656,149.017578 C157.898438,149.466797 157.374349,150.065755 156.775391,150.814453 C150.935547,144.974609 142.250651,136.214844 130.720703,124.535156 C130.870443,124.535156 131.020182,124.460286 131.169922,124.310547 C131.319661,124.160807 131.469401,124.011068 131.619141,123.861328 C131.76888,123.711589 131.91862,123.561849 132.068359,123.412109 C132.068359,123.26237 132.143229,123.11263 132.292969,122.962891 Z M125.105469,123.412109 C125.704427,124.160807 126.527995,124.610026 127.576172,124.759766 C128.474609,124.909505 129.373047,124.684896 130.271484,124.085938 C130.421224,124.235677 130.570964,124.385417 130.720703,124.535156 C129.672526,125.134115 128.624349,125.358724 127.576172,125.208984 C126.527995,125.208984 125.554688,124.759766 124.65625,123.861328 C123.757812,122.962891 123.308594,121.839844 123.308594,120.492188 C123.308594,119.144531 123.757812,117.946615 124.65625,116.898438 C125.704427,116 126.902344,115.550781 128.25,115.550781 C129.597656,115.550781 130.720703,116 131.619141,116.898438 C132.367839,117.796875 132.817057,118.770182 132.966797,119.818359 C133.116536,121.016276 132.891927,122.064453 132.292969,122.962891 C132.143229,122.962891 131.99349,122.813151 131.84375,122.513672 C132.292969,121.764974 132.442708,120.866536 132.292969,119.818359 C132.292969,118.919922 131.91862,118.096354 131.169922,117.347656 C130.271484,116.598958 129.223307,116.224609 128.025391,116.224609 C126.827474,116.224609 125.854167,116.598958 125.105469,117.347656 C124.207031,118.246094 123.757812,119.294271 123.757812,120.492188 C123.757812,121.690104 124.207031,122.663411 125.105469,123.412109 Z M132.292969,122.962891 C132.143229,123.11263 132.068359,123.26237 132.068359,123.412109 C131.91862,123.561849 131.76888,123.711589 131.619141,123.861328 C131.469401,124.011068 131.319661,124.160807 131.169922,124.310547 C131.020182,124.460286 130.870443,124.535156 130.720703,124.535156 C130.570964,124.535156 130.421224,124.460286 130.271484,124.310547 C130.421224,124.160807 130.570964,124.011068 130.720703,123.861328 C130.870443,123.711589 131.020182,123.561849 131.169922,123.412109 C131.319661,123.26237 131.469401,123.11263 131.619141,122.962891 C131.76888,122.813151 131.84375,122.663411 131.84375,122.513672 C131.99349,122.663411 132.068359,122.738281 132.068359,122.738281 C132.218099,122.888021 132.292969,122.962891 132.292969,122.962891 Z M130.945312,118.021484 C130.945312,118.021484 130.945312,118.021484 130.945312,118.021484 C131.095052,118.021484 131.169922,118.021484 131.169922,118.021484 C131.169922,118.021484 131.095052,118.021484 130.945312,118.021484 C130.945312,118.021484 130.945312,118.021484 130.945312,118.021484 Z M131.169922,117.347656 C131.91862,118.096354 132.367839,118.919922 132.517578,119.818359 C132.517578,120.866536 132.292969,121.764974 131.84375,122.513672 C131.69401,122.363932 131.544271,122.214193 131.394531,122.064453 C131.84375,121.465495 131.99349,120.716797 131.84375,119.818359 C131.69401,119.069661 131.319661,118.395833 130.720703,117.796875 C130.870443,117.796875 130.945312,117.796875 130.945312,117.796875 C130.945312,117.946615 130.945312,118.021484 130.945312,118.021484 C130.945312,118.021484 130.945312,118.021484 130.945312,118.021484 C131.095052,118.021484 131.169922,118.021484 131.169922,118.021484 C131.169922,118.021484 131.095052,118.021484 130.945312,118.021484 C130.945312,118.021484 130.945312,118.021484 130.945312,118.021484 C130.945312,118.021484 130.945312,117.946615 130.945312,117.796875 C130.945312,117.796875 130.870443,117.796875 130.720703,117.796875 C129.972005,117.048177 129.148438,116.673828 128.25,116.673828 C127.201823,116.673828 126.303385,117.048177 125.554688,117.796875 C124.80599,118.545573 124.431641,119.44401 124.431641,120.492188 C124.431641,121.540365 124.80599,122.363932 125.554688,122.962891 C126.153646,123.561849 126.827474,123.936198 127.576172,124.085938 C128.32487,124.235677 129.073568,124.085938 129.822266,123.636719 C129.972005,123.786458 130.121745,123.936198 130.271484,124.085938 C129.373047,124.535156 128.474609,124.759766 127.576172,124.759766 C126.677734,124.610026 125.854167,124.160807 125.105469,123.412109 C124.207031,122.663411 123.757812,121.690104 123.757812,120.492188 C123.757812,119.294271 124.207031,118.246094 125.105469,117.347656 C126.003906,116.449219 127.052083,116 128.25,116 C129.447917,116 130.421224,116.449219 131.169922,117.347656 Z M130.720703,123.1875 C130.870443,123.03776 131.020182,122.888021 131.169922,122.738281 C131.319661,122.438802 131.394531,122.214193 131.394531,122.064453 C131.544271,122.214193 131.69401,122.363932 131.84375,122.513672 C131.69401,122.663411 131.619141,122.813151 131.619141,122.962891 C131.469401,123.11263 131.319661,123.26237 131.169922,123.412109 C131.020182,123.561849 130.870443,123.711589 130.720703,123.861328 C130.570964,124.011068 130.421224,124.085938 130.271484,124.085938 C130.121745,124.085938 129.972005,124.011068 129.822266,123.861328 C129.972005,123.711589 130.121745,123.561849 130.271484,123.412109 C130.421224,123.412109 130.570964,123.33724 130.720703,123.1875 Z M155.203125,152.386719 C155.502604,151.9375 156.026693,151.413411 156.775391,150.814453 C157.07487,151.113932 157.598958,151.638021 158.347656,152.386719 C158.647135,151.9375 159.171224,151.413411 159.919922,150.814453 C159.620443,150.365234 159.096354,149.766276 158.347656,149.017578 C158.647135,148.718099 159.171224,148.26888 159.919922,147.669922 C161.267578,150.065755 163.363932,153.734375 166.208984,158.675781 C163.813151,157.328125 160.144531,155.231771 155.203125,152.386719 Z M156.775391,150.814453 C157.07487,150.365234 157.598958,149.766276 158.347656,149.017578 C158.647135,149.466797 159.171224,150.065755 159.919922,150.814453 C159.620443,151.113932 159.096354,151.638021 158.347656,152.386719 C157.898438,151.9375 157.374349,151.413411 156.775391,150.814453 Z M149.587891,32.4453125 C144.047526,27.2044271 137.458984,23.0865885 129.822266,20.0917969 C122.185547,17.2467448 114.174479,15.8242188 105.789062,15.8242188 C101.147135,15.8242188 94.2591146,15.8242188 85.125,15.8242188 C85.125,15.6744792 85.125,15.4498698 85.125,15.1503906 C85.125,15.000651 85.125,14.8509115 85.125,14.7011719 C85.125,14.4016927 85.125,14.1770833 85.125,14.0273438 C85.125,13.8776042 85.125,13.6529948 85.125,13.3535156 C89.6171875,13.3535156 96.5052083,13.3535156 105.789062,13.3535156 C114.623698,13.3535156 123.009115,14.9257812 130.945312,18.0703125 C138.731771,21.0651042 145.544922,25.4075521 151.384766,31.0976562 C151.085286,31.3971354 150.785807,31.6217448 150.486328,31.7714844 C150.186849,32.0709635 149.88737,32.2955729 149.587891,32.4453125 Z M80.1835938,18.96875 C81.2317708,18.96875 82.1302083,18.6692708 82.8789062,18.0703125 C83.6276042,17.4713542 84.1516927,16.7226562 84.4511719,15.8242188 C84.6009115,15.8242188 84.8255208,15.8242188 85.125,15.8242188 C84.8255208,16.8723958 84.2265625,17.7708333 83.328125,18.5195312 C82.4296875,19.1184896 81.3815104,19.4179688 80.1835938,19.4179688 C78.8359375,19.4179688 77.7128906,18.96875 76.8144531,18.0703125 C75.9160156,17.171875 75.4667969,16.0488281 75.4667969,14.7011719 C75.4667969,13.3535156 75.9160156,12.155599 76.8144531,11.1074219 C77.7128906,10.2089844 78.8359375,9.75976562 80.1835938,9.75976562 C81.3815104,9.75976562 82.4296875,10.1341146 83.328125,10.8828125 C84.2265625,11.4817708 84.8255208,12.3053385 85.125,13.3535156 C84.9752604,13.3535156 84.750651,13.3535156 84.4511719,13.3535156 C84.1516927,12.4550781 83.6276042,11.7063802 82.8789062,11.1074219 C82.1302083,10.5084635 81.2317708,10.2089844 80.1835938,10.2089844 C78.9856771,10.2089844 78.0123698,10.6582031 77.2636719,11.5566406 C76.3652344,12.4550781 75.9160156,13.5032552 75.9160156,14.7011719 C75.9160156,15.8990885 76.3652344,16.8723958 77.2636719,17.6210938 C78.0123698,18.5195312 78.9856771,18.96875 80.1835938,18.96875 Z M85.125,13.3535156 C85.125,13.6529948 85.125,13.8776042 85.125,14.0273438 C85.125,14.1770833 85.125,14.4016927 85.125,14.7011719 C85.125,14.8509115 85.125,15.000651 85.125,15.1503906 C85.125,15.4498698 85.125,15.6744792 85.125,15.8242188 C84.9752604,15.8242188 84.750651,15.8242188 84.4511719,15.8242188 C84.4511719,15.6744792 84.4511719,15.4498698 84.4511719,15.1503906 C84.6009115,15.000651 84.6757812,14.8509115 84.6757812,14.7011719 C84.6757812,14.4016927 84.6009115,14.1770833 84.4511719,14.0273438 C84.4511719,13.8776042 84.4511719,13.6529948 84.4511719,13.3535156 C84.6009115,13.3535156 84.6757812,13.3535156 84.6757812,13.3535156 C84.8255208,13.3535156 84.9752604,13.3535156 85.125,13.3535156 Z M80.1835938,10.2089844 C81.2317708,10.2089844 82.1302083,10.5084635 82.8789062,11.1074219 C83.6276042,11.7063802 84.1516927,12.4550781 84.4511719,13.3535156 C84.3014323,13.3535156 84.0768229,13.3535156 83.7773438,13.3535156 C83.6276042,12.6048177 83.1783854,12.0058594 82.4296875,11.5566406 C81.8307292,11.1074219 81.0820312,10.8828125 80.1835938,10.8828125 C80.4830729,10.8828125 80.6328125,10.8828125 80.6328125,10.8828125 C80.7825521,10.8828125 80.8574219,10.8828125 80.8574219,10.8828125 C80.8574219,10.8828125 80.7825521,10.8828125 80.6328125,10.8828125 C80.6328125,10.8828125 80.4830729,10.8828125 80.1835938,10.8828125 C80.0338542,10.8828125 79.8841146,10.8828125 79.734375,10.8828125 C79.734375,10.8828125 79.734375,10.8828125 79.734375,10.8828125 C79.734375,10.8828125 79.734375,10.8828125 79.734375,10.8828125 C79.8841146,10.8828125 80.0338542,10.8828125 80.1835938,10.8828125 C79.2851562,10.8828125 78.4615885,11.2571615 77.7128906,12.0058594 C76.9641927,12.7545573 76.5898438,13.6529948 76.5898438,14.7011719 C76.5898438,15.749349 76.9641927,16.5729167 77.7128906,17.171875 C78.4615885,17.9205729 79.2851562,18.2949219 80.1835938,18.2949219 C81.0820312,18.2949219 81.8307292,18.0703125 82.4296875,17.6210938 C83.1783854,17.171875 83.6276042,16.5729167 83.7773438,15.8242188 C83.9270833,15.8242188 84.1516927,15.8242188 84.4511719,15.8242188 C84.1516927,16.7226562 83.6276042,17.4713542 82.8789062,18.0703125 C82.1302083,18.6692708 81.2317708,18.96875 80.1835938,18.96875 C78.9856771,18.96875 78.0123698,18.5195312 77.2636719,17.6210938 C76.3652344,16.8723958 75.9160156,15.8990885 75.9160156,14.7011719 C75.9160156,13.5032552 76.3652344,12.4550781 77.2636719,11.5566406 C78.0123698,10.6582031 78.9856771,10.2089844 80.1835938,10.2089844 Z M84.0019531,14.7011719 C84.0019531,14.4016927 84.0019531,14.1770833 84.0019531,14.0273438 C84.0019531,13.8776042 83.9270833,13.6529948 83.7773438,13.3535156 C83.9270833,13.3535156 84.1516927,13.3535156 84.4511719,13.3535156 C84.4511719,13.6529948 84.4511719,13.8776042 84.4511719,14.0273438 C84.6009115,14.1770833 84.6757812,14.4016927 84.6757812,14.7011719 C84.6757812,14.8509115 84.6009115,15.000651 84.4511719,15.1503906 C84.4511719,15.4498698 84.4511719,15.6744792 84.4511719,15.8242188 C84.3014323,15.8242188 84.0768229,15.8242188 83.7773438,15.8242188 C83.9270833,15.6744792 84.0019531,15.4498698 84.0019531,15.1503906 C84.0019531,15.000651 84.0019531,14.8509115 84.0019531,14.7011719 Z M151.160156,34.2421875 C151.609375,33.9427083 152.208333,33.4186198 152.957031,32.6699219 C152.657552,32.3704427 152.358073,32.0709635 152.058594,31.7714844 C151.908854,31.6217448 151.684245,31.3971354 151.384766,31.0976562 C151.684245,30.7981771 152.283203,30.3489583 153.181641,29.75 C154.379557,32.2955729 156.101562,36.1888021 158.347656,41.4296875 C155.951823,39.7825521 152.507812,37.2369792 148.015625,33.7929688 C148.315104,33.4934896 148.839193,33.0442708 149.587891,32.4453125 C149.88737,32.7447917 150.111979,33.0442708 150.261719,33.34375 C150.561198,33.6432292 150.860677,33.9427083 151.160156,34.2421875 Z M151.160156,34.2421875 C150.860677,33.9427083 150.561198,33.6432292 150.261719,33.34375 C149.96224,33.0442708 149.73763,32.7447917 149.587891,32.4453125 C149.88737,32.1458333 150.486328,31.6966146 151.384766,31.0976562 C151.684245,31.3971354 151.908854,31.6217448 152.058594,31.7714844 C152.358073,32.0709635 152.657552,32.3704427 152.957031,32.6699219 C152.657552,32.969401 152.358073,33.1940104 152.058594,33.34375 C151.759115,33.6432292 151.459635,33.9427083 151.160156,34.2421875 Z M56.375,42.1035156 C56.375,48.6920573 56.375,58.5 56.375,71.5273438 C56.8242188,71.5273438 57.5729167,71.5273438 58.6210938,71.5273438 C58.6210938,65.0885417 58.6210938,55.280599 58.6210938,42.1035156 C58.4713542,42.2532552 58.2467448,42.328125 57.9472656,42.328125 C57.797526,42.328125 57.6477865,42.328125 57.4980469,42.328125 C57.1985677,42.328125 56.9739583,42.328125 56.8242188,42.328125 C56.6744792,42.328125 56.5247396,42.2532552 56.375,42.1035156 Z M56.375,73.7734375 C56.375,73.3242188 56.375,72.5755208 56.375,71.5273438 C55.7760417,71.5273438 55.0273438,71.5273438 54.1289062,71.5273438 C54.8776042,74.3723958 56.000651,78.5651042 57.4980469,84.1054688 C58.2467448,81.2604167 59.3697917,77.0677083 60.8671875,71.5273438 C60.2682292,71.5273438 59.5195312,71.5273438 58.6210938,71.5273438 C58.6210938,72.1263021 58.6210938,72.875 58.6210938,73.7734375 C58.0221354,73.7734375 57.2734375,73.7734375 56.375,73.7734375 Z M56.375,73.7734375 C56.8242188,73.7734375 57.5729167,73.7734375 58.6210938,73.7734375 C58.6210938,73.3242188 58.6210938,72.5755208 58.6210938,71.5273438 C58.0221354,71.5273438 57.2734375,71.5273438 56.375,71.5273438 C56.375,72.1263021 56.375,72.875 56.375,73.7734375 Z M57.4980469,33.1191406 C58.6959635,33.1191406 59.6692708,33.5683594 60.4179688,34.4667969 C61.3164062,35.2154948 61.765625,36.1888021 61.765625,37.3867188 C61.765625,38.4348958 61.4661458,39.3333333 60.8671875,40.0820312 C60.2682292,40.8307292 59.5195312,41.3548177 58.6210938,41.6542969 C58.6210938,41.8040365 58.6210938,41.953776 58.6210938,42.1035156 C59.6692708,41.953776 60.5677083,41.4296875 61.3164062,40.53125 C62.0651042,39.6328125 62.4394531,38.5846354 62.4394531,37.3867188 C62.4394531,36.0390625 61.9153646,34.9160156 60.8671875,34.0175781 C59.96875,32.969401 58.8457031,32.4453125 57.4980469,32.4453125 C56.1503906,32.4453125 54.952474,32.969401 53.9042969,34.0175781 C53.0058594,34.9160156 52.5566406,36.0390625 52.5566406,37.3867188 C52.5566406,38.5846354 52.9309896,39.6328125 53.6796875,40.53125 C54.2786458,41.4296875 55.1770833,41.953776 56.375,42.1035156 C56.375,41.953776 56.375,41.8040365 56.375,41.6542969 C55.4765625,41.3548177 54.7278646,40.8307292 54.1289062,40.0820312 C53.3802083,39.3333333 53.0058594,38.4348958 53.0058594,37.3867188 C53.0058594,36.1888021 53.4550781,35.2154948 54.3535156,34.4667969 C55.2519531,33.5683594 56.3001302,33.1191406 57.4980469,33.1191406 Z M58.6210938,41.6542969 C58.4713542,41.6542969 58.2467448,41.6542969 57.9472656,41.6542969 C57.797526,41.8040365 57.6477865,41.8789062 57.4980469,41.8789062 C57.1985677,41.8789062 56.9739583,41.8040365 56.8242188,41.6542969 C56.6744792,41.6542969 56.5247396,41.6542969 56.375,41.6542969 C56.375,41.8040365 56.375,41.953776 56.375,42.1035156 C56.5247396,42.2532552 56.6744792,42.328125 56.8242188,42.328125 C56.9739583,42.328125 57.1985677,42.328125 57.4980469,42.328125 C57.6477865,42.328125 57.797526,42.328125 57.9472656,42.328125 C58.2467448,42.328125 58.4713542,42.2532552 58.6210938,42.1035156 C58.6210938,42.1035156 58.6210938,42.0286458 58.6210938,41.8789062 C58.6210938,41.7291667 58.6210938,41.6542969 58.6210938,41.6542969 Z M57.4980469,33.1191406 C56.3001302,33.1191406 55.2519531,33.5683594 54.3535156,34.4667969 C53.4550781,35.2154948 53.0058594,36.1888021 53.0058594,37.3867188 C53.0058594,38.4348958 53.3802083,39.3333333 54.1289062,40.0820312 C54.7278646,40.8307292 55.4765625,41.3548177 56.375,41.6542969 C56.375,41.5045573 56.375,41.2799479 56.375,40.9804688 C55.6263021,40.6809896 54.952474,40.2317708 54.3535156,39.6328125 C53.9042969,39.0338542 53.6796875,38.2851562 53.6796875,37.3867188 C53.6796875,37.5364583 53.6796875,37.6861979 53.6796875,37.8359375 C53.6796875,37.9856771 53.6796875,38.0605469 53.6796875,38.0605469 C53.6796875,38.0605469 53.6796875,37.9856771 53.6796875,37.8359375 C53.6796875,37.6861979 53.6796875,37.5364583 53.6796875,37.3867188 C53.6796875,37.2369792 53.6796875,37.0872396 53.6796875,36.9375 C53.6796875,36.7877604 53.6796875,36.7877604 53.6796875,36.9375 C53.6796875,36.7877604 53.6796875,36.7877604 53.6796875,36.9375 C53.6796875,37.0872396 53.6796875,37.2369792 53.6796875,37.3867188 C53.6796875,36.3385417 54.0540365,35.4401042 54.8027344,34.6914062 C55.5514323,34.0924479 56.4498698,33.7929688 57.4980469,33.7929688 C58.546224,33.7929688 59.4446615,34.0924479 60.1933594,34.6914062 C60.7923177,35.4401042 61.0917969,36.3385417 61.0917969,37.3867188 C61.0917969,38.2851562 60.8671875,39.0338542 60.4179688,39.6328125 C59.96875,40.2317708 59.3697917,40.6809896 58.6210938,40.9804688 C58.6210938,41.1302083 58.6210938,41.3548177 58.6210938,41.6542969 C59.5195312,41.3548177 60.2682292,40.8307292 60.8671875,40.0820312 C61.4661458,39.3333333 61.765625,38.4348958 61.765625,37.3867188 C61.765625,36.1888021 61.3164062,35.2154948 60.4179688,34.4667969 C59.6692708,33.5683594 58.6959635,33.1191406 57.4980469,33.1191406 Z M56.375,40.9804688 C56.375,41.1302083 56.375,41.3548177 56.375,41.6542969 C56.5247396,41.6542969 56.6744792,41.6542969 56.8242188,41.6542969 C56.9739583,41.6542969 57.1985677,41.6542969 57.4980469,41.6542969 C57.6477865,41.6542969 57.797526,41.6542969 57.9472656,41.6542969 C58.2467448,41.6542969 58.4713542,41.6542969 58.6210938,41.6542969 C58.6210938,41.5045573 58.6210938,41.2799479 58.6210938,40.9804688 C58.4713542,40.9804688 58.2467448,41.0553385 57.9472656,41.2050781 C57.797526,41.2050781 57.6477865,41.2050781 57.4980469,41.2050781 C57.1985677,41.2050781 56.9739583,41.2050781 56.8242188,41.2050781 C56.6744792,41.0553385 56.5247396,40.9804688 56.375,40.9804688 Z M148.914062,110.833984 C148.914062,111.432943 148.764323,112.031901 148.464844,112.630859 C148.165365,113.229818 147.716146,113.753906 147.117188,114.203125 C147.117188,114.203125 147.042318,114.277995 146.892578,114.427734 C146.742839,114.427734 146.667969,114.427734 146.667969,114.427734 C146.36849,114.427734 146.14388,114.352865 145.994141,114.203125 C145.844401,114.053385 145.619792,113.978516 145.320312,113.978516 C145.020833,113.828776 144.646484,113.753906 144.197266,113.753906 C143.897786,113.604167 143.523438,113.529297 143.074219,113.529297 C143.074219,113.529297 143.074219,113.529297 143.074219,113.529297 C143.074219,113.529297 143.074219,113.529297 143.074219,113.529297 C143.673177,113.529297 144.197266,113.454427 144.646484,113.304688 C145.095703,113.154948 145.470052,112.930339 145.769531,112.630859 C146.21875,112.48112 146.518229,112.181641 146.667969,111.732422 C146.817708,111.432943 146.892578,111.058594 146.892578,110.609375 C146.892578,110.459635 146.892578,110.309896 146.892578,110.160156 C146.742839,109.860677 146.667969,109.636068 146.667969,109.486328 C146.518229,109.336589 146.443359,109.261719 146.443359,109.261719 C146.29362,109.111979 146.21875,108.96224 146.21875,108.8125 C146.06901,108.66276 145.919271,108.513021 145.769531,108.363281 C145.470052,108.363281 145.245443,108.288411 145.095703,108.138672 C144.945964,107.988932 144.796224,107.914062 144.646484,107.914062 C144.347005,107.914062 144.122396,107.914062 143.972656,107.914062 C143.673177,107.914062 143.373698,107.914062 143.074219,107.914062 C142.77474,108.063802 142.47526,108.138672 142.175781,108.138672 C141.876302,108.288411 141.651693,108.438151 141.501953,108.587891 C141.202474,108.73763 140.977865,108.88737 140.828125,109.037109 C140.678385,109.186849 140.603516,109.336589 140.603516,109.486328 C140.453776,109.486328 140.304036,109.486328 140.154297,109.486328 C140.004557,109.486328 139.854818,109.486328 139.705078,109.486328 C139.705078,109.336589 139.630208,109.261719 139.480469,109.261719 C139.330729,109.111979 139.255859,109.037109 139.255859,109.037109 C139.10612,108.88737 139.03125,108.73763 139.03125,108.587891 C139.03125,108.438151 139.10612,108.288411 139.255859,108.138672 C139.255859,107.988932 139.255859,107.914062 139.255859,107.914062 C139.555339,107.614583 139.929688,107.315104 140.378906,107.015625 C140.678385,106.716146 141.052734,106.491536 141.501953,106.341797 C141.801432,106.192057 142.175781,106.117188 142.625,106.117188 C143.074219,105.967448 143.523438,105.892578 143.972656,105.892578 C144.272135,105.892578 144.571615,105.967448 144.871094,106.117188 C145.320312,106.117188 145.694661,106.192057 145.994141,106.341797 C146.29362,106.491536 146.593099,106.641276 146.892578,106.791016 C147.042318,106.940755 147.266927,107.165365 147.566406,107.464844 C147.716146,107.614583 147.865885,107.839193 148.015625,108.138672 C148.315104,108.438151 148.464844,108.73763 148.464844,109.037109 C148.614583,109.186849 148.689453,109.411458 148.689453,109.710938 C148.839193,110.010417 148.914062,110.309896 148.914062,110.609375 C148.914062,110.609375 148.914062,110.609375 148.914062,110.609375 C148.914062,110.609375 148.914062,110.684245 148.914062,110.833984 Z M142.625,115.101562 C142.625,115.251302 142.69987,115.326172 142.849609,115.326172 C142.999349,115.475911 143.074219,115.550781 143.074219,115.550781 C143.822917,115.550781 144.496745,115.475911 145.095703,115.326172 C145.544922,115.176432 146.06901,114.876953 146.667969,114.427734 C146.817708,114.577474 146.967448,114.727214 147.117188,114.876953 C147.117188,115.026693 147.192057,115.101562 147.341797,115.101562 C147.641276,115.401042 147.865885,115.700521 148.015625,116 C148.165365,116.299479 148.315104,116.598958 148.464844,116.898438 C148.614583,117.197917 148.689453,117.572266 148.689453,118.021484 C148.839193,118.320964 148.914062,118.695312 148.914062,119.144531 C148.914062,119.893229 148.764323,120.567057 148.464844,121.166016 C148.165365,121.914714 147.716146,122.513672 147.117188,122.962891 C146.518229,123.561849 145.919271,123.936198 145.320312,124.085938 C144.571615,124.385417 143.748047,124.535156 142.849609,124.535156 C142.250651,124.535156 141.726562,124.460286 141.277344,124.310547 C140.828125,124.160807 140.378906,124.011068 139.929688,123.861328 C139.480469,123.561849 139.10612,123.26237 138.806641,122.962891 C138.357422,122.663411 137.983073,122.289062 137.683594,121.839844 C137.683594,121.690104 137.683594,121.615234 137.683594,121.615234 C137.533854,121.465495 137.458984,121.390625 137.458984,121.390625 C137.458984,121.390625 137.458984,121.315755 137.458984,121.166016 C137.458984,121.166016 137.533854,121.166016 137.683594,121.166016 C137.683594,121.016276 137.683594,120.866536 137.683594,120.716797 C137.833333,120.716797 137.908203,120.641927 137.908203,120.492188 C138.057943,120.492188 138.207682,120.417318 138.357422,120.267578 C138.507161,120.267578 138.656901,120.267578 138.806641,120.267578 C138.95638,120.417318 139.03125,120.492188 139.03125,120.492188 C139.18099,120.641927 139.255859,120.716797 139.255859,120.716797 C139.555339,121.016276 139.779948,121.315755 139.929688,121.615234 C140.229167,121.764974 140.528646,121.914714 140.828125,122.064453 C141.127604,122.214193 141.427083,122.363932 141.726562,122.513672 C142.026042,122.513672 142.400391,122.513672 142.849609,122.513672 C143.298828,122.513672 143.748047,122.438802 144.197266,122.289062 C144.646484,122.289062 145.095703,122.139323 145.544922,121.839844 C145.994141,121.540365 146.36849,121.166016 146.667969,120.716797 C146.817708,120.267578 146.892578,119.74349 146.892578,119.144531 C146.892578,118.845052 146.892578,118.545573 146.892578,118.246094 C146.892578,118.096354 146.817708,117.871745 146.667969,117.572266 C146.667969,117.422526 146.593099,117.272786 146.443359,117.123047 C146.29362,116.823568 146.14388,116.673828 145.994141,116.673828 C145.844401,116.374349 145.694661,116.14974 145.544922,116 C145.245443,116 144.945964,115.92513 144.646484,115.775391 C144.347005,115.625651 144.047526,115.550781 143.748047,115.550781 C143.448568,115.550781 143.149089,115.550781 142.849609,115.550781 C142.69987,115.550781 142.55013,115.475911 142.400391,115.326172 C142.250651,115.326172 142.175781,115.251302 142.175781,115.101562 C142.026042,115.101562 141.951172,115.026693 141.951172,114.876953 C141.801432,114.727214 141.726562,114.577474 141.726562,114.427734 C141.726562,114.277995 141.801432,114.203125 141.951172,114.203125 C141.951172,114.053385 142.026042,113.903646 142.175781,113.753906 C142.175781,113.753906 142.250651,113.679036 142.400391,113.529297 C142.55013,113.529297 142.69987,113.529297 142.849609,113.529297 C142.849609,113.529297 142.849609,113.529297 142.849609,113.529297 C142.999349,113.529297 143.074219,113.529297 143.074219,113.529297 C142.924479,113.529297 142.849609,113.529297 142.849609,113.529297 C142.69987,113.679036 142.625,113.753906 142.625,113.753906 C142.47526,113.903646 142.400391,114.053385 142.400391,114.203125 C142.250651,114.203125 142.175781,114.277995 142.175781,114.427734 C142.175781,114.577474 142.250651,114.727214 142.400391,114.876953 C142.400391,115.026693 142.47526,115.101562 142.625,115.101562 Z M143.074219,113.529297 C143.523438,113.529297 143.897786,113.604167 144.197266,113.753906 C144.646484,113.753906 145.020833,113.828776 145.320312,113.978516 C145.619792,113.978516 145.844401,114.053385 145.994141,114.203125 C146.14388,114.352865 146.36849,114.427734 146.667969,114.427734 C146.06901,114.876953 145.544922,115.176432 145.095703,115.326172 C144.496745,115.475911 143.822917,115.550781 143.074219,115.550781 C143.074219,115.550781 142.999349,115.475911 142.849609,115.326172 C142.69987,115.326172 142.625,115.251302 142.625,115.101562 C142.47526,115.101562 142.400391,115.026693 142.400391,114.876953 C142.250651,114.727214 142.175781,114.577474 142.175781,114.427734 C142.175781,114.277995 142.250651,114.203125 142.400391,114.203125 C142.400391,114.053385 142.47526,113.903646 142.625,113.753906 C142.625,113.753906 142.69987,113.679036 142.849609,113.529297 C142.849609,113.529297 142.924479,113.529297 143.074219,113.529297 Z M45.59375,33.7929688 C45.7434896,33.7929688 45.8183594,33.8678385 45.8183594,34.0175781 C45.8183594,34.0175781 45.8932292,34.0924479 46.0429688,34.2421875 C46.0429688,34.2421875 46.0429688,34.3170573 46.0429688,34.4667969 C46.1927083,34.4667969 46.2675781,34.5416667 46.2675781,34.6914062 C46.2675781,36.4882812 46.2675781,38.8092448 46.2675781,41.6542969 C46.2675781,44.499349 46.2675781,47.71875 46.2675781,51.3125 C46.2675781,51.4622396 46.1927083,51.6119792 46.0429688,51.7617188 C46.0429688,51.9114583 45.968099,51.9863281 45.8183594,51.9863281 C45.8183594,52.1360677 45.7434896,52.2109375 45.59375,52.2109375 C45.4440104,52.3606771 45.2942708,52.4355469 45.1445312,52.4355469 C44.9947917,52.4355469 44.9199219,52.3606771 44.9199219,52.2109375 C44.7701823,52.2109375 44.6204427,52.1360677 44.4707031,51.9863281 C44.4707031,51.9863281 44.3958333,51.9114583 44.2460938,51.7617188 C44.2460938,51.6119792 44.2460938,51.4622396 44.2460938,51.3125 C44.2460938,49.8151042 44.2460938,47.8684896 44.2460938,45.4726562 C44.2460938,43.0768229 44.2460938,40.3066406 44.2460938,37.1621094 C44.0963542,37.1621094 44.0214844,37.2369792 44.0214844,37.3867188 C43.8717448,37.5364583 43.7220052,37.6861979 43.5722656,37.8359375 C43.422526,37.8359375 43.3476562,37.9108073 43.3476562,38.0605469 C43.1979167,38.0605469 43.0481771,38.0605469 42.8984375,38.0605469 C42.7486979,38.0605469 42.5989583,38.0605469 42.4492188,38.0605469 C42.4492188,37.9108073 42.374349,37.8359375 42.2246094,37.8359375 C42.0748698,37.6861979 42,37.5364583 42,37.3867188 C42,37.2369792 42,37.1621094 42,37.1621094 C42,37.0123698 42,36.8626302 42,36.7128906 C42,36.563151 42.0748698,36.4134115 42.2246094,36.2636719 C42.5240885,36.1139323 42.8235677,35.8144531 43.1230469,35.3652344 C43.5722656,34.9160156 44.0214844,34.4667969 44.4707031,34.0175781 C44.6204427,34.0175781 44.6953125,33.9427083 44.6953125,33.7929688 C44.8450521,33.7929688 44.9947917,33.7929688 45.1445312,33.7929688 C45.1445312,33.7929688 45.1445312,33.7929688 45.1445312,33.7929688 C45.1445312,33.7929688 45.1445312,33.7929688 45.1445312,33.7929688 C45.2942708,33.7929688 45.3691406,33.7929688 45.3691406,33.7929688 C45.5188802,33.7929688 45.59375,33.7929688 45.59375,33.7929688 Z M59.0703125,19.4179688 C59.0703125,19.4179688 59.0703125,19.343099 59.0703125,19.1933594 C58.9205729,19.1933594 58.8457031,19.1184896 58.8457031,18.96875 C58.8457031,18.96875 58.8457031,18.96875 58.8457031,18.96875 C58.8457031,18.8190104 58.8457031,18.7441406 58.8457031,18.7441406 C58.8457031,18.7441406 58.8457031,18.7441406 58.8457031,18.7441406 C58.8457031,18.7441406 58.8457031,18.7441406 58.8457031,18.7441406 C58.8457031,18.594401 58.8457031,18.4446615 58.8457031,18.2949219 C58.9954427,17.9954427 59.0703125,17.6210938 59.0703125,17.171875 C59.2200521,16.7226562 59.3697917,16.2734375 59.5195312,15.8242188 C59.8190104,15.2252604 60.1184896,14.7011719 60.4179688,14.2519531 C60.7174479,13.952474 60.9420573,13.6529948 61.0917969,13.3535156 C61.391276,13.0540365 61.6907552,12.7545573 61.9902344,12.4550781 C62.2897135,12.155599 62.5891927,11.8561198 62.8886719,11.5566406 C63.3378906,11.2571615 63.7122396,10.9576823 64.0117188,10.6582031 C64.9101562,10.0592448 65.6588542,9.53515625 66.2578125,9.0859375 C66.7070312,8.63671875 67.0813802,8.26236979 67.3808594,7.96289062 C67.530599,7.51367188 67.6803385,7.13932292 67.8300781,6.83984375 C67.8300781,6.54036458 67.8300781,6.24088542 67.8300781,5.94140625 C67.8300781,5.79166667 67.8300781,5.64192708 67.8300781,5.4921875 C67.8300781,5.4921875 67.8300781,5.41731771 67.8300781,5.26757812 C67.8300781,5.11783854 67.8300781,5.04296875 67.8300781,5.04296875 C67.8300781,4.89322917 67.7552083,4.74348958 67.6054688,4.59375 C67.6054688,4.44401042 67.530599,4.21940104 67.3808594,3.91992188 C67.2311198,3.77018229 67.0065104,3.62044271 66.7070312,3.47070312 C66.4075521,3.32096354 66.1080729,3.24609375 65.8085938,3.24609375 C65.5091146,3.09635417 65.0598958,3.02148438 64.4609375,3.02148438 C64.1614583,3.02148438 63.8619792,3.09635417 63.5625,3.24609375 C63.2630208,3.24609375 62.9635417,3.32096354 62.6640625,3.47070312 C62.3645833,3.62044271 62.139974,3.84505208 61.9902344,4.14453125 C61.6907552,4.29427083 61.4661458,4.51888021 61.3164062,4.81835938 C61.3164062,4.96809896 61.2415365,5.11783854 61.0917969,5.26757812 C61.0917969,5.26757812 61.0169271,5.34244792 60.8671875,5.4921875 C60.7174479,5.4921875 60.5677083,5.4921875 60.4179688,5.4921875 C60.2682292,5.4921875 60.1933594,5.41731771 60.1933594,5.26757812 C60.0436198,5.26757812 59.8938802,5.26757812 59.7441406,5.26757812 C59.7441406,5.11783854 59.6692708,4.96809896 59.5195312,4.81835938 C59.5195312,4.66861979 59.5195312,4.51888021 59.5195312,4.36914062 C59.5195312,4.36914062 59.594401,4.29427083 59.7441406,4.14453125 C59.8938802,3.54557292 60.1184896,3.09635417 60.4179688,2.796875 C60.7174479,2.34765625 61.0917969,2.04817708 61.5410156,1.8984375 C61.9902344,1.59895833 62.4394531,1.37434896 62.8886719,1.22460938 C63.3378906,1.07486979 63.8619792,1 64.4609375,1 C65.5091146,1 66.4075521,1.14973958 67.15625,1.44921875 C67.7552083,1.74869792 68.2792969,2.12304688 68.7285156,2.57226562 C69.1777344,3.17122396 69.4772135,3.6953125 69.6269531,4.14453125 C69.7766927,4.74348958 69.8515625,5.34244792 69.8515625,5.94140625 C69.8515625,6.54036458 69.7766927,7.13932292 69.6269531,7.73828125 C69.4772135,8.1875 69.1777344,8.71158854 68.7285156,9.31054688 C68.4290365,9.75976562 67.9798177,10.2838542 67.3808594,10.8828125 C66.781901,11.3320312 66.0332031,11.8561198 65.1347656,12.4550781 C64.5358073,12.7545573 63.936849,13.203776 63.3378906,13.8027344 C62.8886719,14.2519531 62.5143229,14.7011719 62.2148438,15.1503906 C61.9153646,15.749349 61.6907552,16.1985677 61.5410156,16.4980469 C61.2415365,16.9472656 61.0917969,17.3964844 61.0917969,17.8457031 C61.9902344,17.8457031 63.1132812,17.8457031 64.4609375,17.8457031 C65.8085938,17.8457031 67.3808594,17.8457031 69.1777344,17.8457031 C69.327474,17.8457031 69.4772135,17.8457031 69.6269531,17.8457031 C69.6269531,17.8457031 69.7018229,17.9205729 69.8515625,18.0703125 C70.0013021,18.0703125 70.0761719,18.1451823 70.0761719,18.2949219 C70.0761719,18.4446615 70.0761719,18.594401 70.0761719,18.7441406 C70.0761719,18.8938802 70.0761719,19.0436198 70.0761719,19.1933594 C70.0761719,19.1933594 70.0013021,19.2682292 69.8515625,19.4179688 C69.7018229,19.5677083 69.6269531,19.6425781 69.6269531,19.6425781 C69.4772135,19.6425781 69.327474,19.6425781 69.1777344,19.6425781 C68.4290365,19.6425781 67.6803385,19.6425781 66.9316406,19.6425781 C66.0332031,19.6425781 65.2096354,19.6425781 64.4609375,19.6425781 C63.7122396,19.6425781 62.9635417,19.6425781 62.2148438,19.6425781 C61.3164062,19.6425781 60.4928385,19.6425781 59.7441406,19.6425781 C59.7441406,19.6425781 59.6692708,19.6425781 59.5195312,19.6425781 C59.5195312,19.6425781 59.5195312,19.6425781 59.5195312,19.6425781 C59.3697917,19.6425781 59.2949219,19.5677083 59.2949219,19.4179688 C59.1451823,19.4179688 59.0703125,19.4179688 59.0703125,19.4179688 Z"/></svg>