<svg xmlns="http://www.w3.org/2000/svg" width="207" height="207" viewBox="0 0 207 207"><path fill="#131313" d="M69.953125,127.748047 C69.953125,107.083984 69.953125,75.938151 69.953125,34.3105469 C69.953125,32.0644531 70.7766927,30.1178385 72.4238281,28.4707031 C74.0709635,26.9733073 76.0175781,26.2246094 78.2636719,26.2246094 C80.5097656,26.2246094 82.3815104,26.9733073 83.8789062,28.4707031 C85.5260417,30.1178385 86.3496094,32.0644531 86.3496094,34.3105469 C86.3496094,55.124349 86.3496094,86.2701823 86.3496094,127.748047 C86.3496094,127.897786 86.7239583,131.042318 87.4726562,137.181641 C88.2213542,143.320964 90.6920573,149.160807 94.8847656,154.701172 C97.1308594,157.546224 100.125651,159.942057 103.869141,161.888672 C107.462891,163.985026 111.955078,165.033203 117.345703,165.033203 C122.736328,165.033203 127.228516,163.985026 130.822266,161.888672 C134.416016,159.942057 137.335938,157.546224 139.582031,154.701172 C143.77474,149.160807 146.245443,143.320964 146.994141,137.181641 C147.892578,131.042318 148.341797,127.897786 148.341797,127.748047 C148.341797,107.083984 148.341797,75.938151 148.341797,34.3105469 C148.341797,32.0644531 149.090495,30.1178385 150.587891,28.4707031 C152.235026,26.9733073 154.181641,26.2246094 156.427734,26.2246094 C158.673828,26.2246094 160.545573,26.9733073 162.042969,28.4707031 C163.690104,30.1178385 164.513672,32.0644531 164.513672,34.3105469 C164.513672,55.124349 164.513672,86.2701823 164.513672,127.748047 C164.513672,131.491536 164.139323,135.534505 163.390625,139.876953 C162.492188,144.069661 161.219401,148.26237 159.572266,152.455078 C156.277995,160.091797 151.261719,166.830078 144.523438,172.669922 C137.635417,178.360026 128.576172,181.205078 117.345703,181.205078 C111.20638,181.205078 105.740885,180.306641 100.949219,178.509766 C96.3072917,176.712891 92.1894531,174.317057 88.5957031,171.322266 C82.0071615,165.781901 77.2903646,158.89388 74.4453125,150.658203 C71.4505208,142.422526 69.953125,134.785807 69.953125,127.748047 Z M58.7226562,38.578125 C58.8723958,38.578125 59.0221354,38.578125 59.171875,38.578125 C59.4713542,38.578125 59.6959635,38.5032552 59.8457031,38.3535156 C59.8457031,44.9420573 59.8457031,54.75 59.8457031,67.7773438 C59.2467448,67.7773438 58.4980469,67.7773438 57.5996094,67.7773438 C57.5996094,61.3385417 57.5996094,51.530599 57.5996094,38.3535156 C57.749349,38.5032552 57.8990885,38.578125 58.0488281,38.578125 C58.1985677,38.578125 58.4231771,38.578125 58.7226562,38.578125 Z M57.5996094,70.0234375 C57.5996094,69.5742188 57.5996094,68.8255208 57.5996094,67.7773438 C57.000651,67.7773438 56.2519531,67.7773438 55.3535156,67.7773438 C56.1022135,70.6223958 57.2252604,74.8151042 58.7226562,80.3554688 C59.4713542,77.5104167 60.594401,73.3177083 62.0917969,67.7773438 C61.4928385,67.7773438 60.7441406,67.7773438 59.8457031,67.7773438 C59.8457031,68.3763021 59.8457031,69.125 59.8457031,70.0234375 C59.2467448,70.0234375 58.4980469,70.0234375 57.5996094,70.0234375 Z M57.5996094,70.0234375 C58.0488281,70.0234375 58.797526,70.0234375 59.8457031,70.0234375 C59.8457031,69.5742188 59.8457031,68.8255208 59.8457031,67.7773438 C59.2467448,67.7773438 58.4980469,67.7773438 57.5996094,67.7773438 C57.5996094,68.3763021 57.5996094,69.125 57.5996094,70.0234375 Z M54.4550781,33.6367188 C54.4550781,34.6848958 54.7545573,35.5833333 55.3535156,36.3320312 C55.952474,37.0807292 56.7011719,37.6048177 57.5996094,37.9042969 C57.5996094,38.0540365 57.5996094,38.203776 57.5996094,38.3535156 C56.4016927,38.203776 55.5032552,37.6796875 54.9042969,36.78125 C54.155599,35.8828125 53.78125,34.8346354 53.78125,33.6367188 C53.78125,32.2890625 54.2304688,31.1660156 55.1289062,30.2675781 C56.1770833,29.3691406 57.375,28.9199219 58.7226562,28.9199219 C60.0703125,28.9199219 61.1933594,29.3691406 62.0917969,30.2675781 C63.139974,31.1660156 63.6640625,32.2890625 63.6640625,33.6367188 C63.6640625,34.8346354 63.2897135,35.8828125 62.5410156,36.78125 C61.7923177,37.6796875 60.8938802,38.203776 59.8457031,38.3535156 C59.8457031,38.3535156 59.8457031,38.203776 59.8457031,37.9042969 C60.7441406,37.6048177 61.4928385,37.0807292 62.0917969,36.3320312 C62.6907552,35.5833333 62.9902344,34.6848958 62.9902344,33.6367188 C62.9902344,32.4388021 62.5410156,31.4654948 61.6425781,30.7167969 C60.8938802,29.8183594 59.9205729,29.3691406 58.7226562,29.3691406 C57.5247396,29.3691406 56.4765625,29.8183594 55.578125,30.7167969 C54.8294271,31.4654948 54.4550781,32.4388021 54.4550781,33.6367188 Z M59.8457031,38.3535156 C59.6959635,38.5032552 59.4713542,38.578125 59.171875,38.578125 C59.0221354,38.578125 58.8723958,38.578125 58.7226562,38.578125 C58.4231771,38.578125 58.1985677,38.578125 58.0488281,38.578125 C57.8990885,38.578125 57.749349,38.5032552 57.5996094,38.3535156 C57.5996094,38.3535156 57.5996094,38.203776 57.5996094,37.9042969 C57.749349,37.9042969 57.8990885,37.9042969 58.0488281,37.9042969 C58.1985677,38.0540365 58.4231771,38.1289062 58.7226562,38.1289062 C58.8723958,38.1289062 59.0221354,38.0540365 59.171875,37.9042969 C59.4713542,37.9042969 59.6959635,37.9042969 59.8457031,37.9042969 C59.8457031,37.9042969 59.8457031,37.9791667 59.8457031,38.1289062 C59.8457031,38.2786458 59.8457031,38.3535156 59.8457031,38.3535156 Z M62.9902344,33.6367188 C62.9902344,34.6848958 62.6907552,35.5833333 62.0917969,36.3320312 C61.4928385,37.0807292 60.7441406,37.6048177 59.8457031,37.9042969 C59.8457031,37.7545573 59.8457031,37.5299479 59.8457031,37.2304688 C60.594401,37.0807292 61.1933594,36.6315104 61.6425781,35.8828125 C62.0917969,35.2838542 62.3164062,34.5351562 62.3164062,33.6367188 C62.3164062,32.5885417 62.0169271,31.764974 61.4179688,31.1660156 C60.6692708,30.4173177 59.7708333,30.0429688 58.7226562,30.0429688 C57.6744792,30.0429688 56.7760417,30.4173177 56.0273438,31.1660156 C55.2786458,31.764974 54.9042969,32.5885417 54.9042969,33.6367188 C54.9042969,33.4869792 54.9042969,33.3372396 54.9042969,33.1875 C54.9042969,33.1875 54.9042969,33.1875 54.9042969,33.1875 C54.9042969,33.1875 54.9042969,33.1875 54.9042969,33.1875 C54.9042969,33.3372396 54.9042969,33.4869792 54.9042969,33.6367188 C54.9042969,33.9361979 54.9042969,34.0859375 54.9042969,34.0859375 C54.9042969,34.2356771 54.9042969,34.3105469 54.9042969,34.3105469 C54.9042969,34.3105469 54.9042969,34.2356771 54.9042969,34.0859375 C54.9042969,34.0859375 54.9042969,33.9361979 54.9042969,33.6367188 C54.9042969,34.5351562 55.1289062,35.2838542 55.578125,35.8828125 C56.1770833,36.6315104 56.8509115,37.0807292 57.5996094,37.2304688 C57.5996094,37.3802083 57.5996094,37.6048177 57.5996094,37.9042969 C56.7011719,37.6048177 55.952474,37.0807292 55.3535156,36.3320312 C54.7545573,35.5833333 54.4550781,34.6848958 54.4550781,33.6367188 C54.4550781,32.4388021 54.8294271,31.4654948 55.578125,30.7167969 C56.4765625,29.8183594 57.5247396,29.3691406 58.7226562,29.3691406 C59.9205729,29.3691406 60.8938802,29.8183594 61.6425781,30.7167969 C62.5410156,31.4654948 62.9902344,32.4388021 62.9902344,33.6367188 Z M58.7226562,37.4550781 C58.8723958,37.4550781 59.0221354,37.4550781 59.171875,37.4550781 C59.4713542,37.4550781 59.6959635,37.3802083 59.8457031,37.2304688 C59.8457031,37.3802083 59.8457031,37.6048177 59.8457031,37.9042969 C59.6959635,37.9042969 59.4713542,37.9042969 59.171875,37.9042969 C59.0221354,38.0540365 58.8723958,38.1289062 58.7226562,38.1289062 C58.4231771,38.1289062 58.1985677,38.0540365 58.0488281,37.9042969 C57.8990885,37.9042969 57.749349,37.9042969 57.5996094,37.9042969 C57.5996094,37.7545573 57.5996094,37.5299479 57.5996094,37.2304688 C57.749349,37.3802083 57.8990885,37.4550781 58.0488281,37.4550781 C58.1985677,37.4550781 58.4231771,37.4550781 58.7226562,37.4550781 Z M46.59375,26 C46.7434896,26 46.8183594,26.0748698 46.8183594,26.2246094 C46.8183594,26.2246094 46.8932292,26.2994792 47.0429688,26.4492188 C47.0429688,26.4492188 47.0429688,26.5240885 47.0429688,26.6738281 C47.1927083,26.6738281 47.2675781,26.7486979 47.2675781,26.8984375 C47.2675781,28.8450521 47.2675781,31.1660156 47.2675781,33.8613281 C47.2675781,36.7063802 47.2675781,39.9257812 47.2675781,43.5195312 C47.2675781,43.6692708 47.1927083,43.8190104 47.0429688,43.96875 C47.0429688,44.1184896 46.968099,44.1933594 46.8183594,44.1933594 C46.8183594,44.343099 46.7434896,44.4179688 46.59375,44.4179688 C46.4440104,44.5677083 46.2942708,44.6425781 46.1445312,44.6425781 C45.9947917,44.6425781 45.9199219,44.5677083 45.9199219,44.4179688 C45.7701823,44.4179688 45.6204427,44.343099 45.4707031,44.1933594 C45.4707031,44.1933594 45.3958333,44.1184896 45.2460938,43.96875 C45.2460938,43.8190104 45.2460938,43.6692708 45.2460938,43.5195312 C45.2460938,42.0221354 45.2460938,40.0755208 45.2460938,37.6796875 C45.2460938,35.2838542 45.2460938,32.5136719 45.2460938,29.3691406 C45.0963542,29.3691406 45.0214844,29.4440104 45.0214844,29.59375 C44.8717448,29.7434896 44.7220052,29.8932292 44.5722656,30.0429688 C44.422526,30.0429688 44.3476562,30.1178385 44.3476562,30.2675781 C44.1979167,30.2675781 44.0481771,30.2675781 43.8984375,30.2675781 C43.7486979,30.2675781 43.5989583,30.2675781 43.4492188,30.2675781 C43.4492188,30.1178385 43.374349,30.0429688 43.2246094,30.0429688 C43.0748698,29.8932292 43,29.7434896 43,29.59375 C43,29.59375 43,29.5188802 43,29.3691406 C43,29.219401 43,29.0696615 43,28.9199219 C43,28.7701823 43.0748698,28.6953125 43.2246094,28.6953125 C43.5240885,28.3958333 43.8235677,28.0214844 44.1230469,27.5722656 C44.5722656,27.2727865 45.0214844,26.8235677 45.4707031,26.2246094 C45.6204427,26.2246094 45.6953125,26.1497396 45.6953125,26 C45.8450521,26 45.9947917,26 46.1445312,26 C46.1445312,26 46.1445312,26 46.1445312,26 C46.1445312,26 46.1445312,26 46.1445312,26 C46.2942708,26 46.3691406,26 46.3691406,26 C46.5188802,26 46.59375,26 46.59375,26 Z"/></svg>