<svg xmlns="http://www.w3.org/2000/svg" width="207" height="207" viewBox="0 0 207 207"><path fill="#131313" d="M152.197266,26.4492188 C154.29362,27.1979167 155.865885,28.5455729 156.914062,30.4921875 C157.513021,31.6901042 157.8125,32.8880208 157.8125,34.0859375 C157.8125,34.984375 157.66276,35.8828125 157.363281,36.78125 C147.18099,67.6276042 131.907552,113.972005 111.542969,175.814453 C111.542969,175.964193 111.542969,176.113932 111.542969,176.263672 C111.393229,176.413411 111.318359,176.563151 111.318359,176.712891 C111.318359,176.712891 111.318359,176.712891 111.318359,176.712891 C111.16862,176.86263 111.09375,176.9375 111.09375,176.9375 C110.94401,177.08724 110.869141,177.311849 110.869141,177.611328 C110.719401,177.761068 110.569661,177.910807 110.419922,178.060547 C110.419922,178.210286 110.345052,178.285156 110.195312,178.285156 C110.195312,178.285156 110.195312,178.285156 110.195312,178.285156 C110.045573,178.434896 109.895833,178.584635 109.746094,178.734375 C109.596354,178.884115 109.446615,179.033854 109.296875,179.183594 C109.296875,179.183594 109.296875,179.258464 109.296875,179.408203 C109.147135,179.408203 109.072266,179.408203 109.072266,179.408203 C108.922526,179.557943 108.772786,179.707682 108.623047,179.857422 C108.473307,179.857422 108.323568,179.932292 108.173828,180.082031 C108.173828,180.082031 108.098958,180.082031 107.949219,180.082031 C107.949219,180.231771 107.874349,180.306641 107.724609,180.306641 C107.57487,180.45638 107.42513,180.53125 107.275391,180.53125 C106.975911,180.68099 106.751302,180.755859 106.601562,180.755859 C106.601562,180.755859 106.601562,180.755859 106.601562,180.755859 C106.601562,180.755859 106.526693,180.830729 106.376953,180.980469 C106.376953,180.980469 106.376953,180.980469 106.376953,180.980469 C106.376953,180.980469 106.376953,180.980469 106.376953,180.980469 C106.227214,180.980469 106.077474,180.980469 105.927734,180.980469 C105.628255,181.130208 105.403646,181.205078 105.253906,181.205078 C105.104167,181.205078 105.029297,181.205078 105.029297,181.205078 C104.879557,181.205078 104.729818,181.205078 104.580078,181.205078 C104.580078,181.205078 104.505208,181.205078 104.355469,181.205078 C104.205729,181.205078 104.05599,181.205078 103.90625,181.205078 C103.75651,181.205078 103.606771,181.205078 103.457031,181.205078 C103.457031,181.205078 103.382161,181.205078 103.232422,181.205078 C103.082682,181.205078 103.007812,181.205078 103.007812,181.205078 C102.858073,181.205078 102.708333,181.205078 102.558594,181.205078 C102.408854,181.205078 102.259115,181.130208 102.109375,180.980469 C101.809896,180.980469 101.585286,180.905599 101.435547,180.755859 C101.435547,180.755859 101.435547,180.755859 101.435547,180.755859 C101.435547,180.755859 101.435547,180.755859 101.435547,180.755859 C101.435547,180.755859 101.435547,180.755859 101.435547,180.755859 C101.285807,180.755859 101.210938,180.755859 101.210938,180.755859 C101.061198,180.755859 100.911458,180.68099 100.761719,180.53125 C100.46224,180.53125 100.23763,180.45638 100.087891,180.306641 C99.938151,180.306641 99.8632812,180.231771 99.8632812,180.082031 C99.7135417,180.082031 99.6386719,180.082031 99.6386719,180.082031 C99.4889323,179.932292 99.3391927,179.857422 99.1894531,179.857422 C99.0397135,179.707682 98.889974,179.557943 98.7402344,179.408203 C98.7402344,179.408203 98.6653646,179.408203 98.515625,179.408203 C98.515625,179.258464 98.515625,179.183594 98.515625,179.183594 C98.3658854,179.033854 98.2161458,178.884115 98.0664062,178.734375 C97.9166667,178.584635 97.7669271,178.434896 97.6171875,178.285156 C97.6171875,178.285156 97.6171875,178.285156 97.6171875,178.285156 C97.4674479,178.135417 97.3925781,178.060547 97.3925781,178.060547 C97.2428385,177.910807 97.093099,177.686198 96.9433594,177.386719 C96.7936198,177.236979 96.71875,177.08724 96.71875,176.9375 C96.71875,176.78776 96.6438802,176.712891 96.4941406,176.712891 C96.4941406,176.712891 96.4941406,176.638021 96.4941406,176.488281 C96.4941406,176.338542 96.4192708,176.188802 96.2695312,176.039062 C96.2695312,175.889323 96.2695312,175.739583 96.2695312,175.589844 C86.0872396,144.74349 70.8138021,98.4739583 50.4492188,36.78125 C50.1497396,35.8828125 50,34.984375 50,34.0859375 C50.1497396,32.8880208 50.4492188,31.6901042 50.8984375,30.4921875 C51.9466146,28.5455729 53.59375,27.1979167 55.8398438,26.4492188 C56.5885417,26.1497396 57.4121094,26 58.3105469,26 C59.5084635,26 60.7063802,26.2994792 61.9042969,26.8984375 C64.000651,27.9466146 65.3483073,29.5188802 65.9472656,31.6152344 C74.4824219,57.3704427 87.1354167,95.8535156 103.90625,147.064453 C112.291667,121.458984 124.944661,82.9759115 141.865234,31.6152344 C142.464193,29.5188802 143.811849,27.9466146 145.908203,26.8984375 C147.854818,26 149.951172,25.8502604 152.197266,26.4492188 Z M114.912109,80.8046875 C112.366536,88.2916667 108.623047,99.5970052 103.681641,114.720703 C98.2910156,98.3990885 90.1302083,73.7669271 79.1992188,40.8242188 C79.4986979,40.8242188 79.7233073,40.8242188 79.8730469,40.8242188 C80.0227865,40.6744792 80.172526,40.5996094 80.3222656,40.5996094 C80.6217448,40.5996094 80.8463542,40.5247396 80.9960938,40.375 C81.1458333,40.2252604 81.2955729,40.1503906 81.4453125,40.1503906 C86.3867188,55.124349 93.7988281,77.5852865 103.681641,107.533203 C105.628255,101.39388 108.623047,92.1848958 112.666016,79.90625 C112.965495,80.0559896 113.339844,80.2057292 113.789062,80.3554688 C114.088542,80.5052083 114.462891,80.6549479 114.912109,80.8046875 Z M74.4824219,38.1289062 C74.4824219,38.1289062 74.4824219,38.0540365 74.4824219,37.9042969 C74.3326823,37.7545573 74.2578125,37.6048177 74.2578125,37.4550781 C74.2578125,37.6048177 74.3326823,37.7545573 74.4824219,37.9042969 C74.4824219,38.0540365 74.4824219,38.1289062 74.4824219,38.1289062 Z M74.7070312,37.2304688 C75.0065104,38.2786458 75.6054688,39.0273438 76.5039062,39.4765625 C77.2526042,40.0755208 78.1510417,40.3001302 79.1992188,40.1503906 C79.1992188,40.3001302 79.1992188,40.5247396 79.1992188,40.8242188 C78.1510417,40.9739583 77.1777344,40.6744792 76.2792969,39.9257812 C75.2311198,39.3268229 74.5572917,38.5032552 74.2578125,37.4550781 C73.8085938,36.1074219 73.8834635,34.8346354 74.4824219,33.6367188 C75.0813802,32.4388021 76.0546875,31.6901042 77.4023438,31.390625 C78.6002604,30.9414062 79.7981771,31.016276 80.9960938,31.6152344 C82.34375,32.2141927 83.1673177,33.1875 83.4667969,34.5351562 C83.9160156,35.5833333 83.9160156,36.6315104 83.4667969,37.6796875 C83.0175781,38.7278646 82.34375,39.5514323 81.4453125,40.1503906 C81.4453125,40.000651 81.3704427,39.7760417 81.2207031,39.4765625 C82.1191406,39.0273438 82.718099,38.3535156 83.0175781,37.4550781 C83.3170573,36.5566406 83.3170573,35.5833333 83.0175781,34.5351562 C82.5683594,33.4869792 81.8196615,32.6634115 80.7714844,32.0644531 C79.7233073,31.6152344 78.6751302,31.5403646 77.6269531,31.8398438 C76.4290365,32.1393229 75.530599,32.8880208 74.9316406,34.0859375 C74.4824219,35.1341146 74.4075521,36.1822917 74.7070312,37.2304688 Z M74.0332031,36.78125 C74.0332031,36.78125 74.0332031,36.8561198 74.0332031,37.0058594 C74.1829427,37.155599 74.2578125,37.3053385 74.2578125,37.4550781 C74.2578125,37.3053385 74.1829427,37.155599 74.0332031,37.0058594 C74.0332031,36.8561198 74.0332031,36.78125 74.0332031,36.78125 Z M81.4453125,40.1503906 C81.2955729,40.1503906 81.1458333,40.2252604 80.9960938,40.375 C80.8463542,40.5247396 80.6966146,40.5996094 80.546875,40.5996094 C80.2473958,40.5996094 80.0227865,40.6744792 79.8730469,40.8242188 C79.7233073,40.8242188 79.4986979,40.8242188 79.1992188,40.8242188 C79.1992188,40.6744792 79.1992188,40.4498698 79.1992188,40.1503906 C79.3489583,40.1503906 79.4986979,40.1503906 79.6484375,40.1503906 C79.7981771,40.1503906 80.0227865,40.1503906 80.3222656,40.1503906 C80.4720052,40.000651 80.6217448,39.8509115 80.7714844,39.7011719 C80.921224,39.7011719 81.0709635,39.6263021 81.2207031,39.4765625 C81.3704427,39.6263021 81.4453125,39.7011719 81.4453125,39.7011719 C81.4453125,39.8509115 81.4453125,40.000651 81.4453125,40.1503906 Z M83.0175781,34.5351562 C83.3170573,35.5833333 83.3170573,36.5566406 83.0175781,37.4550781 C82.718099,38.3535156 82.1191406,39.0273438 81.2207031,39.4765625 C81.2207031,39.3268229 81.1458333,39.1770833 80.9960938,39.0273438 C81.7447917,38.578125 82.1940104,37.9042969 82.34375,37.0058594 C82.6432292,36.2571615 82.718099,35.5084635 82.5683594,34.7597656 C82.718099,35.358724 82.718099,35.5084635 82.5683594,35.2089844 C82.4186198,34.7597656 82.34375,34.4602865 82.34375,34.3105469 C82.34375,34.3105469 82.34375,34.3854167 82.34375,34.5351562 C82.34375,34.5351562 82.4186198,34.610026 82.5683594,34.7597656 C82.1191406,33.7115885 81.4453125,32.9628906 80.546875,32.5136719 C79.6484375,32.0644531 78.6751302,31.9895833 77.6269531,32.2890625 C76.7285156,32.5885417 76.0546875,33.2623698 75.6054688,34.3105469 C75.15625,35.2089844 75.0813802,36.1074219 75.3808594,37.0058594 C75.6803385,37.9042969 76.1295573,38.578125 76.7285156,39.0273438 C77.327474,39.4765625 78.0761719,39.7011719 78.9746094,39.7011719 C78.9746094,39.8509115 79.0494792,40.000651 79.1992188,40.1503906 C78.1510417,40.3001302 77.2526042,40.0755208 76.5039062,39.4765625 C75.6054688,39.0273438 75.0065104,38.2786458 74.7070312,37.2304688 C74.4075521,36.1822917 74.5572917,35.1341146 75.15625,34.0859375 C75.6054688,32.8880208 76.4290365,32.1393229 77.6269531,31.8398438 C78.6751302,31.5403646 79.7233073,31.6152344 80.7714844,32.0644531 C81.969401,32.6634115 82.718099,33.4869792 83.0175781,34.5351562 Z M82.34375,34.7597656 C82.6432292,35.358724 82.718099,35.5084635 82.5683594,35.2089844 C82.4186198,34.7597656 82.34375,34.4602865 82.34375,34.3105469 C82.34375,34.3105469 82.34375,34.3854167 82.34375,34.5351562 C82.34375,34.5351562 82.34375,34.610026 82.34375,34.7597656 Z M80.0976562,39.4765625 C80.2473958,39.4765625 80.3971354,39.4016927 80.546875,39.2519531 C80.6966146,39.1022135 80.8463542,39.0273438 80.9960938,39.0273438 C81.1458333,39.0273438 81.2207031,39.1770833 81.2207031,39.4765625 C81.0709635,39.6263021 80.921224,39.7011719 80.7714844,39.7011719 C80.6217448,39.8509115 80.4720052,40.000651 80.3222656,40.1503906 C80.0227865,40.1503906 79.7981771,40.1503906 79.6484375,40.1503906 C79.4986979,40.1503906 79.3489583,40.1503906 79.1992188,40.1503906 C79.0494792,40.1503906 78.9746094,40.000651 78.9746094,39.7011719 C79.124349,39.7011719 79.2740885,39.7011719 79.4238281,39.7011719 C79.7233073,39.7011719 79.9479167,39.6263021 80.0976562,39.4765625 Z M113.339844,77.8847656 C113.190104,78.3339844 112.965495,79.0078125 112.666016,79.90625 C112.216797,79.7565104 111.542969,79.531901 110.644531,79.2324219 C112.141927,76.8365885 114.462891,73.2428385 117.607422,68.4511719 C117.457682,71.296224 117.233073,75.6386719 116.933594,81.4785156 C116.484375,81.328776 115.810547,81.1041667 114.912109,80.8046875 C115.061849,80.2057292 115.286458,79.4570312 115.585938,78.5585938 C115.136719,78.4088542 114.388021,78.1842448 113.339844,77.8847656 Z M112.666016,79.90625 C112.815755,79.4570312 113.040365,78.7832031 113.339844,77.8847656 C113.789062,78.0345052 114.53776,78.2591146 115.585938,78.5585938 C115.436198,79.0078125 115.211589,79.7565104 114.912109,80.8046875 C114.313151,80.6549479 113.564453,80.3554688 112.666016,79.90625 Z M93.5742188,45.0917969 C93.5742188,45.0917969 93.5742188,45.0169271 93.5742188,44.8671875 C93.4244792,44.7174479 93.3496094,44.5677083 93.3496094,44.4179688 C93.3496094,42.9205729 93.3496094,40.9739583 93.3496094,38.578125 C93.3496094,36.1822917 93.3496094,33.4121094 93.3496094,30.2675781 C93.3496094,30.2675781 93.2747396,30.3424479 93.125,30.4921875 C92.9752604,30.6419271 92.8255208,30.7916667 92.6757812,30.9414062 C92.5260417,30.9414062 92.4511719,31.016276 92.4511719,31.1660156 C92.3014323,31.1660156 92.1516927,31.1660156 92.0019531,31.1660156 C91.8522135,31.1660156 91.7773438,31.1660156 91.7773438,31.1660156 C91.6276042,31.016276 91.4778646,30.9414062 91.328125,30.9414062 C91.1783854,30.7916667 91.1035156,30.6419271 91.1035156,30.4921875 C91.1035156,30.3424479 91.1035156,30.2675781 91.1035156,30.2675781 C91.1035156,30.1178385 91.1035156,29.968099 91.1035156,29.8183594 C91.1035156,29.6686198 91.1783854,29.5188802 91.328125,29.3691406 C91.6276042,29.219401 91.9270833,28.9199219 92.2265625,28.4707031 C92.6757812,28.0214844 93.125,27.5722656 93.5742188,27.1230469 C93.7239583,27.1230469 93.8736979,27.0481771 94.0234375,26.8984375 C94.0234375,26.8984375 94.0983073,26.8984375 94.2480469,26.8984375 C94.2480469,26.8984375 94.2480469,26.8984375 94.2480469,26.8984375 C94.2480469,26.8984375 94.3229167,26.8984375 94.4726562,26.8984375 C94.4726562,26.8984375 94.4726562,26.8984375 94.4726562,26.8984375 C94.6223958,26.8984375 94.6972656,26.8984375 94.6972656,26.8984375 C94.8470052,26.8984375 94.921875,26.9733073 94.921875,27.1230469 C95.0716146,27.1230469 95.1464844,27.1979167 95.1464844,27.3476562 C95.296224,27.3476562 95.3710938,27.422526 95.3710938,27.5722656 C95.3710938,27.5722656 95.3710938,27.6471354 95.3710938,27.796875 C95.3710938,29.7434896 95.3710938,32.0644531 95.3710938,34.7597656 C95.3710938,37.6048177 95.3710938,40.8242188 95.3710938,44.4179688 C95.3710938,44.5677083 95.3710938,44.7174479 95.3710938,44.8671875 C95.2213542,45.0169271 95.1464844,45.0917969 95.1464844,45.0917969 C94.9967448,45.2415365 94.8470052,45.3164062 94.6972656,45.3164062 C94.547526,45.4661458 94.4726562,45.5410156 94.4726562,45.5410156 C94.3229167,45.5410156 94.1731771,45.4661458 94.0234375,45.3164062 C93.8736979,45.3164062 93.7239583,45.2415365 93.5742188,45.0917969 Z"/></svg>