<svg xmlns="http://www.w3.org/2000/svg" width="207" height="207" viewBox="0 0 207 207"><path fill="#131313" d="M68.4980469,180.980469 C67.1503906,180.980469 65.8027344,180.68099 64.4550781,180.082031 C63.2571615,179.333333 62.2838542,178.285156 61.5351562,176.9375 C60.7864583,175.739583 60.4121094,174.391927 60.4121094,172.894531 C60.4121094,171.546875 60.7864583,170.199219 61.5351562,168.851562 C77.4075521,140.700521 101.216146,98.4739583 132.960938,42.171875 C118.585938,42.171875 97.0983073,42.171875 68.4980469,42.171875 C66.2519531,42.171875 64.3802083,41.3483073 62.8828125,39.7011719 C61.2356771,38.203776 60.4121094,36.3320312 60.4121094,34.0859375 C60.4121094,31.8398438 61.2356771,29.8932292 62.8828125,28.2460938 C64.5299479,26.7486979 66.4016927,26 68.4980469,26 C86.0175781,26 112.147135,26 146.886719,26 C148.384115,26 149.731771,26.2994792 150.929688,26.8984375 C152.127604,27.6471354 153.100911,28.6953125 153.849609,30.0429688 C154.598307,31.2408854 154.972656,32.5885417 154.972656,34.0859375 C154.972656,35.4335938 154.673177,36.78125 154.074219,38.1289062 C138.201823,66.2799479 114.393229,108.50651 82.6484375,164.808594 C96.8736979,164.808594 118.286458,164.808594 146.886719,164.808594 C149.132812,164.808594 151.004557,165.557292 152.501953,167.054688 C154.149089,168.701823 154.972656,170.648438 154.972656,172.894531 C154.972656,175.140625 154.149089,177.08724 152.501953,178.734375 C151.004557,180.231771 149.132812,180.980469 146.886719,180.980469 C133.859375,180.980469 120.832031,180.980469 107.804688,180.980469 C94.7773438,180.980469 81.6751302,180.980469 68.4980469,180.980469 Z M77.0332031,52.5039062 C77.0332031,52.3541667 77.0332031,52.2044271 77.0332031,52.0546875 C77.1829427,51.7552083 77.2578125,51.530599 77.2578125,51.3808594 C77.2578125,51.2311198 77.1829427,51.0065104 77.0332031,50.7070312 C77.0332031,50.5572917 77.0332031,50.4075521 77.0332031,50.2578125 C85.8678385,50.2578125 99.1946615,50.2578125 117.013672,50.2578125 C113.419922,56.3971354 108.104167,65.6809896 101.066406,78.109375 C100.617188,77.8098958 100.018229,77.4355469 99.2695312,76.9863281 C102.264323,71.5957031 106.83138,63.4348958 112.970703,52.5039062 C106.98112,52.5039062 100.991536,52.5039062 95.0019531,52.5039062 C89.0123698,52.5039062 83.0227865,52.5039062 77.0332031,52.5039062 Z M99.9433594,80.1308594 C100.242839,79.6816406 100.617188,79.0078125 101.066406,78.109375 C101.515625,78.4088542 102.189453,78.7832031 103.087891,79.2324219 C101.141276,81.328776 98.1464844,84.3984375 94.1035156,88.4414062 C94.702474,85.5963542 95.750651,81.4036458 97.2480469,75.8632812 C97.6972656,76.1627604 98.3710938,76.5371094 99.2695312,76.9863281 C98.9700521,77.4355469 98.5957031,78.109375 98.1464844,79.0078125 C98.5957031,79.3072917 99.1946615,79.6816406 99.9433594,80.1308594 Z M98.1464844,79.0078125 C98.296224,78.5585938 98.5957031,77.8847656 99.0449219,76.9863281 C99.4941406,77.2858073 100.167969,77.6601562 101.066406,78.109375 C100.916667,78.5585938 100.542318,79.2324219 99.9433594,80.1308594 C99.4941406,79.8313802 98.8951823,79.4570312 98.1464844,79.0078125 Z M72.3164062,56.3222656 C70.96875,56.3222656 69.7708333,55.7981771 68.7226562,54.75 C67.8242188,53.8515625 67.375,52.7285156 67.375,51.3808594 C67.375,50.0332031 67.8242188,48.9101562 68.7226562,48.0117188 C69.7708333,46.9635417 70.96875,46.4394531 72.3164062,46.4394531 C73.3645833,46.4394531 74.3378906,46.8138021 75.2363281,47.5625 C76.1347656,48.3111979 76.733724,49.2096354 77.0332031,50.2578125 C76.8834635,50.2578125 76.6588542,50.2578125 76.359375,50.2578125 C76.0598958,49.359375 75.5358073,48.6106771 74.7871094,48.0117188 C74.0384115,47.4127604 73.2148438,47.1132812 72.3164062,47.1132812 C71.1184896,47.1132812 70.0703125,47.4876302 69.171875,48.2363281 C68.2734375,49.1347656 67.8242188,50.1829427 67.8242188,51.3808594 C67.8242188,52.578776 68.2734375,53.6269531 69.171875,54.5253906 C70.0703125,55.2740885 71.1184896,55.6484375 72.3164062,55.6484375 C73.2148438,55.6484375 74.0384115,55.3489583 74.7871094,54.75 C75.5358073,54.1510417 76.0598958,53.4023438 76.359375,52.5039062 C76.5091146,52.5039062 76.733724,52.5039062 77.0332031,52.5039062 C76.733724,53.5520833 76.1347656,54.4505208 75.2363281,55.1992188 C74.3378906,55.9479167 73.3645833,56.3222656 72.3164062,56.3222656 Z M76.5839844,51.3808594 C76.5839844,51.2311198 76.5839844,51.0065104 76.5839844,50.7070312 C76.5839844,50.5572917 76.5091146,50.4075521 76.359375,50.2578125 C76.5091146,50.2578125 76.733724,50.2578125 77.0332031,50.2578125 C77.0332031,50.4075521 77.0332031,50.5572917 77.0332031,50.7070312 C77.1829427,51.0065104 77.2578125,51.2311198 77.2578125,51.3808594 C77.2578125,51.530599 77.1829427,51.7552083 77.0332031,52.0546875 C77.0332031,52.2044271 77.0332031,52.3541667 77.0332031,52.5039062 C76.8834635,52.5039062 76.6588542,52.5039062 76.359375,52.5039062 C76.5091146,52.3541667 76.5839844,52.2044271 76.5839844,52.0546875 C76.5839844,51.7552083 76.5839844,51.530599 76.5839844,51.3808594 Z M72.3164062,55.1992188 C73.0651042,55.1992188 73.8138021,54.8997396 74.5625,54.3007812 C75.1614583,53.8515625 75.6106771,53.2526042 75.9101562,52.5039062 C75.9101562,52.5039062 76.0598958,52.5039062 76.359375,52.5039062 C76.0598958,53.4023438 75.5358073,54.1510417 74.7871094,54.75 C74.0384115,55.3489583 73.2148438,55.6484375 72.3164062,55.6484375 C71.1184896,55.6484375 70.0703125,55.2740885 69.171875,54.5253906 C68.2734375,53.6269531 67.8242188,52.578776 67.8242188,51.3808594 C67.8242188,50.1829427 68.2734375,49.1347656 69.171875,48.2363281 C70.0703125,47.4876302 71.1184896,47.1132812 72.3164062,47.1132812 C73.2148438,47.1132812 74.0384115,47.4127604 74.7871094,48.0117188 C75.5358073,48.6106771 76.0598958,49.359375 76.359375,50.2578125 C76.2096354,50.2578125 76.0598958,50.2578125 75.9101562,50.2578125 C75.6106771,49.5091146 75.1614583,48.9101562 74.5625,48.4609375 C73.8138021,47.8619792 73.0651042,47.5625 72.3164062,47.5625 C71.2682292,47.5625 70.3697917,47.936849 69.6210938,48.6855469 C68.8723958,49.4342448 68.4980469,50.3326823 68.4980469,51.3808594 C68.4980469,52.4290365 68.8723958,53.327474 69.6210938,54.0761719 C70.3697917,54.8248698 71.2682292,55.1992188 72.3164062,55.1992188 C72.1666667,55.1992188 72.0169271,55.1992188 71.8671875,55.1992188 C71.7174479,55.1992188 71.6425781,55.1992188 71.6425781,55.1992188 C71.6425781,55.1992188 71.7174479,55.1992188 71.8671875,55.1992188 C72.0169271,55.1992188 72.1666667,55.1992188 72.3164062,55.1992188 C72.4661458,55.1992188 72.6158854,55.1992188 72.765625,55.1992188 C72.765625,55.1992188 72.765625,55.1992188 72.765625,55.1992188 C72.765625,55.1992188 72.765625,55.1992188 72.765625,55.1992188 C72.6158854,55.1992188 72.4661458,55.1992188 72.3164062,55.1992188 Z M76.359375,50.2578125 C76.5091146,50.4075521 76.5839844,50.5572917 76.5839844,50.7070312 C76.5839844,51.0065104 76.5839844,51.2311198 76.5839844,51.3808594 C76.5839844,51.530599 76.5839844,51.7552083 76.5839844,52.0546875 C76.5839844,52.2044271 76.5091146,52.3541667 76.359375,52.5039062 C76.2096354,52.5039062 76.0598958,52.5039062 75.9101562,52.5039062 C75.9101562,52.3541667 75.9101562,52.2044271 75.9101562,52.0546875 C76.0598958,51.7552083 76.1347656,51.530599 76.1347656,51.3808594 C76.1347656,51.2311198 76.0598958,51.0065104 75.9101562,50.7070312 C75.9101562,50.5572917 75.9101562,50.4075521 75.9101562,50.2578125 C75.9101562,50.2578125 75.985026,50.2578125 76.1347656,50.2578125 C76.2845052,50.2578125 76.359375,50.2578125 76.359375,50.2578125 Z M56.8183594,45.765625 C56.8183594,45.765625 56.8932292,45.8404948 57.0429688,45.9902344 C57.0429688,45.9902344 57.0429688,46.0651042 57.0429688,46.2148438 C57.1927083,46.2148438 57.2675781,46.2897135 57.2675781,46.4394531 C57.2675781,46.5891927 57.2675781,46.6640625 57.2675781,46.6640625 C57.2675781,48.6106771 57.2675781,50.9316406 57.2675781,53.6269531 C57.2675781,56.4720052 57.2675781,59.6914062 57.2675781,63.2851562 C57.2675781,63.4348958 57.2675781,63.5846354 57.2675781,63.734375 C57.2675781,63.8841146 57.1927083,63.9589844 57.0429688,63.9589844 C56.8932292,64.108724 56.7434896,64.1835938 56.59375,64.1835938 C56.59375,64.3333333 56.5188802,64.4082031 56.3691406,64.4082031 C56.219401,64.4082031 56.0696615,64.3333333 55.9199219,64.1835938 C55.9199219,64.1835938 55.8450521,64.108724 55.6953125,63.9589844 C55.5455729,63.9589844 55.4707031,63.8841146 55.4707031,63.734375 C55.4707031,63.5846354 55.4707031,63.4348958 55.4707031,63.2851562 C55.4707031,61.7877604 55.4707031,59.8411458 55.4707031,57.4453125 C55.4707031,55.0494792 55.4707031,52.2792969 55.4707031,49.1347656 C55.3209635,49.1347656 55.171224,49.2096354 55.0214844,49.359375 C55.0214844,49.5091146 54.9466146,49.6588542 54.796875,49.8085938 C54.6471354,49.8085938 54.4973958,49.8834635 54.3476562,50.0332031 C54.1979167,50.0332031 54.1230469,50.0332031 54.1230469,50.0332031 C53.9733073,50.0332031 53.8235677,50.0332031 53.6738281,50.0332031 C53.5240885,49.8834635 53.374349,49.8085938 53.2246094,49.8085938 C53.2246094,49.6588542 53.1497396,49.5091146 53,49.359375 C53,49.359375 53,49.2845052 53,49.1347656 C53,48.985026 53,48.8352865 53,48.6855469 C53.1497396,48.5358073 53.2246094,48.4609375 53.2246094,48.4609375 C53.5240885,48.1614583 53.8984375,47.7871094 54.3476562,47.3378906 C54.6471354,47.0384115 55.0963542,46.5891927 55.6953125,45.9902344 C55.6953125,45.9902344 55.7701823,45.9153646 55.9199219,45.765625 C56.0696615,45.765625 56.1445312,45.765625 56.1445312,45.765625 C56.1445312,45.765625 56.219401,45.765625 56.3691406,45.765625 C56.3691406,45.765625 56.3691406,45.765625 56.3691406,45.765625 C56.3691406,45.765625 56.4440104,45.765625 56.59375,45.765625 C56.59375,45.765625 56.6686198,45.765625 56.8183594,45.765625 Z"/></svg>