<svg xmlns="http://www.w3.org/2000/svg" width="110" height="203" viewBox="0 0 110 203"><path fill="#131313" d="M12,154.371094 C12,144.802734 12,130.382813 12,111.111328 C12,104.777344 13.3476563,97.9042969 16.0429688,90.4921875 C18.6035156,83.0800781 22.8486328,76.8808594 28.7783203,71.8945312 C32.0126953,69.1992188 35.71875,67.0429688 39.8964844,65.4257812 C44.2089844,63.8085938 49.1279297,63 54.6533203,63 C60.1787109,63 65.0302734,63.8085938 69.2080078,65.4257812 C73.5205078,67.0429688 77.2939453,69.1992188 80.5283203,71.8945312 C86.4580078,76.8808594 90.703125,83.0800781 93.2636719,90.4921875 C95.8242188,97.9042969 97.1044922,104.777344 97.1044922,111.111328 C97.1044922,120.679687 97.1044922,135.099609 97.1044922,154.371094 C97.1044922,157.740234 96.7675781,161.378906 96.09375,165.287109 C95.4199219,169.060547 94.2744141,172.833984 92.6572266,176.607422 C89.6923828,183.480469 85.1777344,189.544922 79.1132813,194.800781 C72.9140625,199.921875 64.7607422,202.482422 54.6533203,202.482422 C49.1279297,202.482422 44.2089844,201.673828 39.8964844,200.056641 C35.71875,198.439453 32.0126953,196.283203 28.7783203,193.587891 C22.8486328,188.601563 18.6035156,182.402344 16.0429688,174.990234 C13.3476563,167.578125 12,160.705078 12,154.371094 Z M27,110.556641 C27,120.125 27,134.544922 27,153.816406 C27,153.951172 27.3369141,156.78125 28.0107422,162.306641 C28.6845703,167.832031 30.9082031,173.087891 34.6816406,178.074219 C36.703125,180.634766 39.3984375,182.791016 42.7675781,184.542969 C46.0019531,186.429688 50.0449219,187.373047 54.8964844,187.373047 C59.7480469,187.373047 63.7910156,186.429688 67.0253906,184.542969 C70.2597656,182.791016 72.8876953,180.634766 74.9091797,178.074219 C78.8173828,173.087891 81.1083984,167.832031 81.7822266,162.306641 C82.4560547,156.78125 82.7929688,153.951172 82.7929688,153.816406 C82.7929688,144.248047 82.7929688,129.828125 82.7929688,110.556641 C82.7929688,110.421875 82.4560547,107.591797 81.7822266,102.066406 C81.1083984,96.5410156 78.8173828,91.2851562 74.9091797,86.2988281 C72.8876953,83.7382812 70.2597656,81.5820312 67.0253906,79.8300781 C63.7910156,77.9433594 59.7480469,77 54.8964844,77 C50.0449219,77 46.0019531,77.9433594 42.7675781,79.8300781 C39.3984375,81.5820312 36.703125,83.7382812 34.6816406,86.2988281 C30.9082031,91.2851562 28.6845703,96.5410156 28.0107422,102.066406 C27.3369141,107.591797 27,110.421875 27,110.556641 Z"/></svg>