<svg xmlns="http://www.w3.org/2000/svg" width="70" height="203" viewBox="0 0 70 203"><path fill="#131313" d="M528.270616,195.030273 C528.270616,171.176758 528.270616,135.396484 528.270616,87.6894531 C527.057726,88.9023437 525.305773,90.6542969 523.014757,92.9453125 C521.667101,94.2929688 519.98253,94.9667969 517.961046,94.9667969 C515.939562,94.9667969 514.187609,94.2929688 512.705187,92.9453125 C511.222765,91.4628906 510.481554,89.7109375 510.481554,87.6894531 C510.481554,85.6679688 511.222765,83.9160156 512.705187,82.4335938 C516.61339,78.5253906 522.475694,72.6630859 530.292101,64.8466797 C531.370226,63.9033203 532.650499,63.2294922 534.132921,62.8251953 C534.537218,62.8251953 535.008898,62.8251953 535.54796,62.8251953 C536.491319,62.8251953 537.434679,62.9599609 538.378038,63.2294922 C539.725694,63.9033203 540.803819,64.8466797 541.612413,66.0595703 C542.421007,67.2724609 542.825304,68.6201172 542.825304,70.1025391 C542.825304,97.8642578 542.825304,139.506836 542.825304,195.030273 C542.825304,197.051758 542.084093,198.803711 540.601671,200.286133 C539.254015,201.633789 537.569444,202.307617 535.54796,202.307617 C533.526476,202.307617 531.774523,201.633789 530.292101,200.286133 C528.944444,198.803711 528.270616,197.051758 528.270616,195.030273 Z" transform="translate(-491.944)"/></svg>