<svg xmlns="http://www.w3.org/2000/svg" width="70" height="203" viewBox="0 0 70 203"><path fill="#131313" d="M528.270616,134.030273 C528.270616,110.176758 528.270616,74.3964844 528.270616,26.6894531 C527.057726,27.9023437 525.305773,29.6542969 523.014757,31.9453125 C521.667101,33.2929688 519.98253,33.9667969 517.961046,33.9667969 C515.939562,33.9667969 514.187609,33.2929688 512.705187,31.9453125 C511.222765,30.4628906 510.481554,28.7109375 510.481554,26.6894531 C510.481554,24.6679688 511.222765,22.9160156 512.705187,21.4335938 C516.61339,17.5253906 522.475694,11.6630859 530.292101,3.84667969 C531.370226,2.90332031 532.650499,2.22949219 534.132921,1.82519531 C534.537218,1.82519531 535.008898,1.82519531 535.54796,1.82519531 C536.491319,1.82519531 537.434679,1.95996094 538.378038,2.22949219 C539.725694,2.90332031 540.803819,3.84667969 541.612413,5.05957031 C542.421007,6.27246094 542.825304,7.62011719 542.825304,9.10253906 C542.825304,36.8642578 542.825304,78.5068359 542.825304,134.030273 C542.825304,136.051758 542.084093,137.803711 540.601671,139.286133 C539.254015,140.633789 537.569444,141.307617 535.54796,141.307617 C533.526476,141.307617 531.774523,140.633789 530.292101,139.286133 C528.944444,137.803711 528.270616,136.051758 528.270616,134.030273 Z" transform="translate(-491.944)"/></svg>