<svg xmlns="http://www.w3.org/2000/svg" width="110" height="203" viewBox="0 0 110 203"><path fill="#131313" d="M963.166233,141.482422 C962.222873,141.482422 961.279514,141.280273 960.336155,140.875977 C959.392795,140.47168 958.584201,139.932617 957.910373,139.258789 C957.236545,138.450195 956.697483,137.574219 956.293186,136.630859 C956.023655,135.822266 955.888889,135.013672 955.888889,134.205078 C955.888889,133.935547 955.888889,133.733398 955.888889,133.598633 C956.023655,133.05957 956.832248,129.488281 958.31467,122.884766 C959.662326,116.146484 963.09885,108.532227 968.62424,100.041992 C971.454319,95.5947266 975.09299,91.0800781 979.540256,86.4980469 C983.852756,82.0507813 989.108615,77.8730469 995.307834,73.9648437 C1008.11057,66.0136719 1016.12912,59.2080078 1019.3635,53.5478516 C1022.59787,47.8876953 1024.21506,42.7666016 1024.21506,38.1845703 C1024.21506,36.8369141 1024.0803,35.2871094 1023.81076,33.5351562 C1023.54123,31.9179687 1023.06955,30.2333984 1022.39572,28.4814453 C1020.9133,25.3818359 1018.42014,22.6191406 1014.91623,20.1933594 C1011.27756,17.7675781 1005.81955,16.5546875 998.542209,16.5546875 C992.882053,16.5546875 988.165256,17.7001953 984.391819,19.9912109 C980.483615,22.4169922 977.451389,25.9882812 975.295139,30.7050781 C974.486545,32.5917969 973.071506,33.8720703 971.050022,34.5458984 C969.163303,35.2197266 967.343967,35.0849609 965.592014,34.1416016 C963.705295,33.3330078 962.425022,31.9853516 961.751194,30.0986328 C961.077365,28.2119141 961.144748,26.3251953 961.953342,24.4384766 C965.457248,17.0263672 970.308811,11.4335938 976.50803,7.66015625 C982.707248,3.88671875 990.051975,2 998.542209,2 C1013.36643,2 1023.81076,5.84082031 1029.87522,13.5224609 C1035.93967,21.2041016 1038.9719,29.4248047 1038.9719,38.1845703 C1038.9719,47.2138672 1036.14182,55.5693359 1030.48166,63.2509766 C1024.82151,70.7978516 1015.72483,78.4794922 1003.19162,86.2958984 C993.084201,92.6298828 985.806858,99.7050781 981.359592,107.521484 C976.777561,115.337891 973.745334,121.806641 972.262912,126.927734 C985.87424,126.927734 1006.35862,126.927734 1033.71604,126.927734 C1035.73752,126.927734 1037.42209,127.601563 1038.76975,128.949219 C1040.25217,130.431641 1040.99338,132.183594 1040.99338,134.205078 C1040.99338,136.226562 1040.25217,137.978516 1038.76975,139.460938 C1037.42209,140.808594 1035.73752,141.482422 1033.71604,141.482422 C1021.99143,141.482422 1010.26682,141.482422 998.542209,141.482422 C986.8176,141.482422 975.025608,141.482422 963.166233,141.482422 Z" transform="translate(-943.389)"/></svg>