<svg xmlns="http://www.w3.org/2000/svg" width="110" height="203" viewBox="0 0 110 203"><path fill="#131313" d="M1425.12142,120.486328 C1424.44759,119.408203 1424.17806,118.262695 1424.31283,117.049805 C1424.31283,116.375977 1424.38021,115.634766 1424.51497,114.826172 C1425.1888,112.939453 1426.40169,111.524414 1428.15365,110.581055 C1429.9056,109.637695 1431.79232,109.435547 1433.8138,109.974609 C1435.70052,110.648438 1437.11556,111.861328 1438.05892,113.613281 C1440.34993,117.791016 1444.3929,121.092773 1450.18783,123.518555 C1455.98275,125.80957 1461.57552,126.955078 1466.96615,126.955078 C1473.70443,126.955078 1479.97103,124.933594 1485.76595,120.890625 C1491.69564,116.712891 1494.66048,110.648438 1494.66048,102.697266 C1494.66048,98.9238281 1494.05404,95.5546875 1492.84115,92.5898437 C1491.76302,89.7597656 1490.01107,87.2666016 1487.58529,85.1103516 C1483.40755,81.2021484 1478.28646,78.6416016 1472.22201,77.4287109 C1466.15755,76.3505859 1461.23861,75.7441406 1457.46517,75.609375 C1456.38704,75.7441406 1455.3763,75.8115234 1454.43294,75.8115234 C1453.48958,75.8115234 1452.47884,75.8115234 1451.40072,75.8115234 C1449.37923,75.8115234 1447.69466,75.1376953 1446.34701,73.7900391 C1444.86458,72.4423828 1444.12337,70.7578125 1444.12337,68.7363281 C1443.98861,66.8496094 1444.59505,65.1650391 1445.94271,63.6826172 C1447.1556,62.2001953 1448.77279,61.3916016 1450.79427,61.2568359 C1450.92904,61.2568359 1451.53548,61.1894531 1452.61361,61.0546875 C1453.8265,61.0546875 1455.30892,61.0546875 1457.06087,61.0546875 C1468.11165,60.3808594 1476.73665,58.0898438 1482.93587,54.1816406 C1489.13509,50.2734375 1492.2347,45.0175781 1492.2347,38.4140625 C1492.2347,32.2148438 1490.95443,27.5654297 1488.39388,24.4658203 C1485.69857,21.3662109 1482.66634,19.2099609 1479.2972,17.9970703 C1477.41048,17.3232422 1475.52376,16.9189453 1473.63704,16.7841797 C1471.88509,16.5146484 1470.20052,16.3798828 1468.58333,16.3798828 C1460.76693,16.3798828 1454.97201,17.9296875 1451.19857,21.0292969 C1447.42513,24.2636719 1445.47103,25.9482422 1445.33626,26.0830078 C1444.12337,27.7001953 1442.50618,28.6435547 1440.4847,28.9130859 C1438.46322,29.1826172 1436.64388,28.7109375 1435.02669,27.4980469 C1433.40951,26.2851563 1432.46615,24.7353516 1432.19661,22.8486328 C1431.92708,20.8271484 1432.33138,19.0078125 1433.40951,17.390625 C1433.54427,17.2558594 1434.01595,16.7167969 1434.82454,15.7734375 C1435.49837,14.9648438 1436.5765,13.9541016 1438.05892,12.7412109 C1440.75423,10.4501953 1444.59505,8.02441406 1449.58138,5.46386719 C1454.70247,3.03808594 1461.03646,1.82519531 1468.58333,1.82519531 C1480.30794,1.82519531 1489.60677,5.12695313 1496.47982,11.7304688 C1503.48763,18.46875 1506.99154,27.3632812 1506.99154,38.4140625 C1506.99154,41.109375 1506.31771,44.7480469 1504.97005,49.3300781 C1503.75716,53.9121094 1500.72493,58.359375 1495.87337,62.671875 C1494.79525,63.75 1493.64974,64.6933594 1492.43685,65.5019531 C1491.22396,66.4453125 1489.94368,67.2539062 1488.59603,67.9277344 C1490.21322,68.8710938 1491.76302,69.8144531 1493.24544,70.7578125 C1494.72786,71.8359375 1496.1429,72.9814453 1497.49056,74.1943359 C1501.39876,77.8330078 1504.36361,82.0107422 1506.38509,86.7275391 C1508.40658,91.5791016 1509.41732,96.9023438 1509.41732,102.697266 C1509.41732,112.130859 1505.77865,121.025391 1498.5013,129.380859 C1491.22396,137.601562 1480.71224,141.711914 1466.96615,141.711914 C1459.55404,141.711914 1451.73763,139.959961 1443.51693,136.456055 C1435.16146,133.086914 1429.02962,127.763672 1425.12142,120.486328 Z" transform="translate(-1414.833)"/></svg>