<svg xmlns="http://www.w3.org/2000/svg" width="110" height="203" viewBox="0 0 110 203"><path fill="#131313" d="M1906.05512,107.723633 C1904.84223,107.723633 1903.69672,107.386719 1902.6186,106.712891 C1901.54047,106.173828 1900.6645,105.432617 1899.99067,104.489258 C1899.31684,103.411133 1898.91254,102.265625 1898.77778,101.052734 C1898.77778,100.783203 1898.77778,100.581055 1898.77778,100.446289 C1898.77778,99.3681641 1898.97993,98.3574219 1899.38422,97.4140625 C1907.87446,77.3339844 1920.60981,47.0791016 1937.59028,6.64941406 C1938.39887,4.76269531 1939.67914,3.41503906 1941.4311,2.60644531 C1942.37446,2.33691406 1943.31782,2.13476562 1944.26118,2 C1945.20454,2 1946.14789,2.20214844 1947.09125,2.60644531 C1948.97797,3.41503906 1950.32563,4.76269531 1951.13422,6.64941406 C1951.80805,8.53613281 1951.80805,10.4228516 1951.13422,12.3095703 C1943.58735,30.2333984 1932.26704,57.1191406 1917.17329,92.9667969 C1930.38032,92.9667969 1950.19086,92.9667969 1976.60493,92.9667969 C1978.62641,92.9667969 1980.31098,93.7080078 1981.65864,95.1904297 C1983.14106,96.5380859 1983.88227,98.2226562 1983.88227,100.244141 C1983.88227,102.265625 1983.14106,104.017578 1981.65864,105.5 C1980.31098,106.982422 1978.62641,107.723633 1976.60493,107.723633 C1964.88032,107.723633 1953.15571,107.723633 1941.4311,107.723633 C1929.70649,107.723633 1917.9145,107.723633 1906.05512,107.723633 Z M1952.56,134.407227 C1952.56,112.979492 1952.56,80.8378906 1952.56,37.9824219 C1952.56,35.9609375 1953.30122,34.2089844 1954.78364,32.7265625 C1956.13129,31.3789062 1957.81586,30.7050781 1959.83735,30.7050781 C1961.85883,30.7050781 1963.61079,31.3789062 1965.09321,32.7265625 C1966.44086,34.2089844 1967.11469,35.9609375 1967.11469,37.9824219 C1967.11469,59.4101562 1967.11469,91.5517578 1967.11469,134.407227 C1967.11469,136.428711 1966.44086,138.180664 1965.09321,139.663086 C1963.61079,141.010742 1961.85883,141.68457 1959.83735,141.68457 C1957.81586,141.68457 1956.06391,141.010742 1954.58149,139.663086 C1953.23383,138.180664 1952.56,136.428711 1952.56,134.407227 Z" transform="translate(-1886.278)"/></svg>