<svg xmlns="http://www.w3.org/2000/svg" width="110" height="203" viewBox="0 0 110 203"><path fill="#131313" d="M2371.58672,121.267578 C2370.37383,119.650391 2369.96954,117.831055 2370.37383,115.80957 C2370.77813,113.922852 2371.78887,112.373047 2373.40606,111.160156 C2375.15801,110.082031 2377.04473,109.677734 2379.06622,109.947266 C2380.95294,110.351563 2382.50274,111.429687 2383.71563,113.181641 C2387.48907,118.841797 2391.80157,122.547852 2396.65313,124.299805 C2401.50469,126.051758 2405.81719,126.927734 2409.59063,126.927734 C2416.86797,126.927734 2422.79766,125.310547 2427.37969,122.076172 C2431.82696,118.976562 2435.12872,115.337891 2437.28497,111.160156 C2438.49786,108.869141 2439.37383,106.645508 2439.9129,104.489258 C2440.45196,102.198242 2440.72149,100.041992 2440.72149,98.0205078 C2440.72149,95.3251953 2440.24981,91.7539062 2439.30645,87.3066406 C2438.49786,82.9941406 2436.47637,79.2207031 2433.242,75.9863281 C2430.95098,73.6953125 2428.18829,72.0107422 2424.95391,70.9326172 C2421.71954,69.8544922 2418.01348,69.3154297 2413.83575,69.3154297 C2413.70098,69.3154297 2413.6336,69.3154297 2413.6336,69.3154297 C2413.6336,69.3154297 2413.6336,69.3154297 2413.6336,69.3154297 C2406.35626,69.3154297 2400.56133,69.5849609 2396.24883,70.1240234 C2392.0711,70.7978516 2389.91485,71.1347656 2389.78008,71.1347656 C2388.56719,71.4042969 2387.42169,71.3369141 2386.34356,70.9326172 C2385.13067,70.6630859 2384.11993,70.1240234 2383.31133,69.3154297 C2382.36797,68.3720703 2381.69415,67.3613281 2381.28985,66.2832031 C2381.02032,65.0703125 2380.95294,63.8574219 2381.0877,62.6445312 C2383.37872,50.515625 2386.74786,32.2548828 2391.19512,7.86230469 C2391.46465,6.11035156 2392.27325,4.6953125 2393.6209,3.6171875 C2394.96856,2.5390625 2396.51836,2 2398.27032,2 C2407.97344,2 2422.46075,2 2441.73223,2 C2443.75372,2 2445.43829,2.67382813 2446.78594,4.02148437 C2448.26836,5.50390625 2449.00958,7.25585938 2449.00958,9.27734375 C2449.00958,11.2988281 2448.26836,12.9833984 2446.78594,14.3310547 C2445.43829,15.8134766 2443.75372,16.5546875 2441.73223,16.5546875 C2433.37676,16.5546875 2420.97833,16.5546875 2404.53692,16.5546875 C2402.91973,25.1796875 2400.56133,38.1171875 2397.46172,55.3671875 C2399.61797,55.0976562 2402.04376,54.8955078 2404.73907,54.7607422 C2407.43438,54.6259766 2410.39922,54.5585938 2413.6336,54.5585938 C2419.83282,54.5585938 2425.49297,55.4345703 2430.61407,57.1865234 C2435.6004,59.0732422 2439.9129,61.8359375 2443.55157,65.4746094 C2447.32501,69.3828125 2450.22247,74.0996094 2452.24395,79.625 C2454.26544,85.2851562 2455.27618,91.4169922 2455.27618,98.0205078 C2455.27618,103.411133 2454.26544,108.666992 2452.24395,113.788086 C2450.22247,118.90918 2447.39239,123.423828 2443.75372,127.332031 C2440.65411,130.566406 2436.34161,133.733398 2430.81622,136.833008 C2425.29083,139.932617 2418.21563,141.482422 2409.59063,141.482422 C2401.63946,141.482422 2394.4295,139.797852 2387.96075,136.428711 C2381.35723,132.924805 2375.89922,127.871094 2371.58672,121.267578 Z" transform="translate(-2357.722)"/></svg>