<svg xmlns="http://www.w3.org/2000/svg" width="110" height="243" viewBox="0 0 110 243"><path fill="#131313" d="M13.864502,145.267578 C12.6516113,143.650391 12.2473145,141.831055 12.6516113,139.80957 C13.0559082,137.922852 14.0666504,136.373047 15.6838379,135.160156 C17.435791,134.082031 19.3225098,133.677734 21.3439941,133.947266 C23.2307129,134.351562 24.7805176,135.429688 25.9934082,137.181641 C29.7668457,142.841797 34.0793457,146.547852 38.9309082,148.299805 C43.7824707,150.051758 48.0949707,150.927734 51.8684082,150.927734 C59.145752,150.927734 65.0754395,149.310547 69.6574707,146.076172 C74.1047363,142.976562 77.4064941,139.337891 79.5627441,135.160156 C80.7756348,132.869141 81.6516113,130.645508 82.1906738,128.489258 C82.7297363,126.198242 82.9992676,124.041992 82.9992676,122.020508 C82.9992676,119.325195 82.5275879,115.753906 81.5842285,111.306641 C80.7756348,106.994141 78.7541504,103.220703 75.5197754,99.9863281 C73.2287598,97.6953125 70.4660645,96.0107422 67.2316895,94.9326172 C63.9973145,93.8544922 60.2912598,93.3154297 56.1135254,93.3154297 C55.9787598,93.3154297 55.911377,93.3154297 55.911377,93.3154297 C55.911377,93.3154297 55.911377,93.3154297 55.911377,93.3154297 C48.6340332,93.3154297 42.8391113,93.5849609 38.5266113,94.1240234 C34.348877,94.7978516 32.192627,95.1347656 32.0578613,95.1347656 C30.8449707,95.4042969 29.6994629,95.3369141 28.6213379,94.9326172 C27.4084473,94.6630859 26.3977051,94.1240234 25.5891113,93.3154297 C24.645752,92.3720703 23.9719238,91.3613281 23.567627,90.2832031 C23.2980957,89.0703125 23.2307129,87.8574219 23.3654785,86.6445312 C25.6564941,74.515625 29.0256348,56.2548828 33.4729004,31.8623047 C33.7424316,30.1103516 34.5510254,28.6953125 35.8986816,27.6171875 C37.2463379,26.5390625 38.7961426,26 40.5480957,26 C50.2512207,26 64.7385254,26 84.0100098,26 C86.0314941,26 87.7160645,26.6738281 89.0637207,28.0214844 C90.5461426,29.5039062 91.2873535,31.2558594 91.2873535,33.2773438 C91.2873535,35.2988281 90.5461426,36.9833984 89.0637207,38.3310547 C87.7160645,39.8134766 86.0314941,40.5546875 84.0100098,40.5546875 C75.654541,40.5546875 63.2561035,40.5546875 46.8146973,40.5546875 C45.1975098,49.1796875 42.8391113,62.1171875 39.739502,79.3671875 C41.895752,79.0976562 44.3215332,78.8955078 47.0168457,78.7607422 C49.7121582,78.6259766 52.677002,78.5585938 55.911377,78.5585938 C62.1105957,78.5585938 67.770752,79.4345703 72.8918457,81.1865234 C77.8781738,83.0732422 82.1906738,85.8359375 85.8293457,89.4746094 C89.6027832,93.3828125 92.5002441,98.0996094 94.5217285,103.625 C96.5432129,109.285156 97.5539551,115.416992 97.5539551,122.020508 C97.5539551,127.411133 96.5432129,132.666992 94.5217285,137.788086 C92.5002441,142.90918 89.670166,147.423828 86.0314941,151.332031 C82.9318848,154.566406 78.6193848,157.733398 73.0939941,160.833008 C67.5686035,163.932617 60.4934082,165.482422 51.8684082,165.482422 C43.9172363,165.482422 36.7072754,163.797852 30.2385254,160.428711 C23.6350098,156.924805 18.177002,151.871094 13.864502,145.267578 Z"/></svg>