<svg xmlns="http://www.w3.org/2000/svg" width="110" height="203" viewBox="0 0 110 203"><path fill="#131313" d="M2878.07554,141.145508 C2872.81968,140.606445 2868.30503,139.326172 2864.53159,137.304688 C2860.62339,135.283203 2857.25425,132.857422 2854.42417,130.027344 C2849.43784,124.771484 2846.0687,118.774414 2844.31675,112.036133 C2842.5648,105.297852 2841.7562,99.5029297 2841.89097,94.6513672 C2840.67808,76.1884766 2844.38413,58.6015625 2853.00913,41.890625 C2861.49937,25.3144531 2873.56089,12.3769531 2889.1937,3.078125 C2890.94566,2 2892.83237,1.73046875 2894.85386,2.26953125 C2896.74058,2.67382812 2898.223,3.75195313 2899.30112,5.50390625 C2900.24448,7.25585938 2900.51402,9.14257813 2900.10972,11.1640625 C2899.57066,13.0507813 2898.42515,14.5332031 2896.67319,15.6113281 C2888.18296,20.7324219 2880.83823,27.2685547 2874.63902,35.2197266 C2868.4398,43.3056641 2863.79038,52.1328125 2860.69077,61.7011719 C2865.00327,58.8710938 2869.65269,56.8496094 2874.63902,55.6367187 C2879.76011,54.4238281 2884.94859,54.0869141 2890.20444,54.6259766 C2899.50327,55.5693359 2908.06089,59.6796875 2915.8773,66.9570312 C2923.15464,73.5605469 2926.79331,82.9267578 2926.79331,95.0556641 C2926.79331,96.1337891 2926.79331,97.2119141 2926.79331,98.2900391 C2926.38902,105.163086 2924.83921,111.631836 2922.1439,117.696289 C2919.31382,123.760742 2915.60777,128.74707 2911.02573,132.655273 C2907.52183,135.620117 2903.54624,137.84375 2899.09898,139.326172 C2894.65171,140.808594 2889.86753,141.549805 2884.74644,141.549805 C2883.66831,141.549805 2882.59019,141.549805 2881.51206,141.549805 C2880.43394,141.415039 2879.28843,141.280273 2878.07554,141.145508 Z M2879.95417,126.561768 C2884.40143,127.10083 2888.51178,126.966064 2892.28522,126.157471 C2895.92389,125.214111 2899.09089,123.596924 2901.7862,121.305908 C2906.23346,117.532471 2909.06354,113.085205 2910.27643,107.964111 C2911.48932,102.843018 2912.09577,99.3391113 2912.09577,97.4523926 C2912.50007,91.1184082 2910.81549,85.0539551 2907.04206,79.2590332 C2903.40339,73.3293457 2897.27155,69.9602051 2888.64655,69.1516113 C2884.60358,68.7473145 2880.49323,69.1516113 2876.31549,70.364502 C2872.27253,71.7121582 2868.70124,73.6662598 2865.60163,76.2268066 C2863.71491,77.9787598 2861.82819,80.3371582 2859.94147,83.302002 C2857.91999,86.4016113 2856.84186,90.2424316 2856.7071,94.8244629 C2856.57233,95.7678223 2856.77448,98.6652832 2857.31354,103.516846 C2857.71784,108.233643 2859.53717,112.748291 2862.77155,117.060791 C2864.5235,119.351807 2866.74714,121.373291 2869.44245,123.125244 C2872.27253,125.011963 2875.77643,126.157471 2879.95417,126.561768 Z" transform="translate(-2829.167)"/></svg>