<svg xmlns="http://www.w3.org/2000/svg" width="110" height="243" viewBox="0 0 110 243"><path fill="#131313" d="M34.9384766,165.078125 C33.1865234,164.269531 31.90625,162.921875 31.0976562,161.035156 C30.2890625,159.148438 30.2890625,157.261719 31.0976562,155.375 C41.7441406,129.904297 57.78125,91.6308594 79.2089844,40.5546875 C66.0019531,40.5546875 46.2587891,40.5546875 19.9794922,40.5546875 C17.9580078,40.5546875 16.2060547,39.8134766 14.7236328,38.3310547 C13.2412109,36.9833984 12.5,35.2988281 12.5,33.2773438 C12.5,31.2558594 13.2412109,29.5039062 14.7236328,28.0214844 C16.2060547,26.6738281 17.9580078,26 19.9794922,26 C35.6123047,26 59.0615234,26 90.3271484,26 C91.5400391,26 92.6855469,26.2695312 93.7636719,26.8085938 C94.8417969,27.3476562 95.7177734,28.15625 96.3916016,29.234375 C97.0654297,30.1777344 97.4697266,31.2558594 97.6044922,32.46875 C97.6044922,32.7382812 97.6044922,33.0078125 97.6044922,33.2773438 C97.6044922,34.2207031 97.4023438,35.1640625 96.9980469,36.1074219 C85.4082031,63.8691406 67.9560547,105.511719 44.6416016,161.035156 C44.1025391,162.517578 43.1591797,163.595703 41.8115234,164.269531 C40.5986328,165.078125 39.2509766,165.482422 37.7685547,165.482422 C37.3642578,165.482422 36.8925781,165.482422 36.3535156,165.482422 C35.9492188,165.347656 35.4775391,165.212891 34.9384766,165.078125 Z"/></svg>