<svg xmlns="http://www.w3.org/2000/svg" width="110" height="203" viewBox="0 0 110 203"><path fill="#131313" d="M3791.55556,98.1738281 C3791.55556,87.6621094 3794.85731,79.171875 3801.46083,72.703125 C3807.92958,66.234375 3816.55458,63 3827.33583,63 C3837.98231,63 3846.60731,66.234375 3853.21083,72.703125 C3859.67958,79.171875 3862.91395,87.6621094 3862.91395,98.1738281 C3862.91395,108.550781 3859.6122,117.041016 3853.00868,123.644531 C3846.40516,130.113281 3837.84755,133.347656 3827.33583,133.347656 C3816.68934,133.347656 3808.06434,130.113281 3801.46083,123.644531 C3794.85731,117.041016 3791.55556,108.550781 3791.55556,98.1738281 Z M3805.55556,98.6191406 C3805.55556,104.953125 3807.44227,109.939453 3811.21571,113.578125 C3814.98915,117.351562 3820.17763,119.238281 3826.78114,119.238281 C3833.24989,119.238281 3838.37099,117.351562 3842.14442,113.578125 C3845.91786,109.939453 3847.80458,104.953125 3847.80458,98.6191406 C3847.80458,92.1503906 3845.91786,87.0966797 3842.14442,83.4580078 C3838.50575,79.8193359 3833.38466,78 3826.78114,78 C3820.17763,78 3814.98915,79.8193359 3811.21571,83.4580078 C3807.44227,87.0966797 3805.55556,92.1503906 3805.55556,98.6191406 Z M3784.55556,160.844727 C3784.55556,148.311523 3788.46376,138.204102 3796.28016,130.522461 C3804.09657,122.84082 3814.40614,119 3827.20888,119 C3839.87684,119 3850.11903,122.84082 3857.93544,130.522461 C3865.75184,138.204102 3869.66005,148.311523 3869.66005,160.844727 C3869.66005,173.243164 3865.68446,183.283203 3857.73329,190.964844 C3849.91688,198.78125 3839.74208,202.689453 3827.20888,202.689453 C3814.67567,202.689453 3804.43349,198.78125 3796.48231,190.964844 C3788.53114,183.283203 3784.55556,173.243164 3784.55556,160.844727 Z M3799.55556,160.290039 C3799.55556,168.510742 3802.04872,175.114258 3807.03505,180.100586 C3812.15614,185.086914 3818.96181,187.580078 3827.45204,187.580078 C3835.80751,187.580078 3842.54579,185.086914 3847.66688,180.100586 C3852.78798,175.114258 3855.34852,168.510742 3855.34852,160.290039 C3855.34852,151.799805 3852.85536,145.128906 3847.86903,140.277344 C3842.8827,135.425781 3836.07704,133 3827.45204,133 C3818.69227,133 3811.81923,135.425781 3806.8329,140.277344 C3801.98134,145.128906 3799.55556,151.799805 3799.55556,160.290039 Z" transform="translate(-3772.056)"/></svg>