<svg xmlns="http://www.w3.org/2000/svg" width="110" height="203" viewBox="0 0 110 203"><path fill="#131313" d="M3791.55556,37.1738281 C3791.55556,26.6621094 3794.85731,18.171875 3801.46083,11.703125 C3807.92958,5.234375 3816.55458,2 3827.33583,2 C3837.98231,2 3846.60731,5.234375 3853.21083,11.703125 C3859.67958,18.171875 3862.91395,26.6621094 3862.91395,37.1738281 C3862.91395,47.5507812 3859.6122,56.0410156 3853.00868,62.6445312 C3846.40516,69.1132812 3837.84755,72.3476562 3827.33583,72.3476562 C3816.68934,72.3476562 3808.06434,69.1132812 3801.46083,62.6445312 C3794.85731,56.0410156 3791.55556,47.5507812 3791.55556,37.1738281 Z M3805.55556,37.6191406 C3805.55556,43.953125 3807.44227,48.9394531 3811.21571,52.578125 C3814.98915,56.3515625 3820.17763,58.2382812 3826.78114,58.2382812 C3833.24989,58.2382812 3838.37099,56.3515625 3842.14442,52.578125 C3845.91786,48.9394531 3847.80458,43.953125 3847.80458,37.6191406 C3847.80458,31.1503906 3845.91786,26.0966797 3842.14442,22.4580078 C3838.50575,18.8193359 3833.38466,17 3826.78114,17 C3820.17763,17 3814.98915,18.8193359 3811.21571,22.4580078 C3807.44227,26.0966797 3805.55556,31.1503906 3805.55556,37.6191406 Z M3784.55556,99.8447266 C3784.55556,87.3115234 3788.46376,77.2041016 3796.28016,69.5224609 C3804.09657,61.8408203 3814.40614,58 3827.20888,58 C3839.87684,58 3850.11903,61.8408203 3857.93544,69.5224609 C3865.75184,77.2041016 3869.66005,87.3115234 3869.66005,99.8447266 C3869.66005,112.243164 3865.68446,122.283203 3857.73329,129.964844 C3849.91688,137.78125 3839.74208,141.689453 3827.20888,141.689453 C3814.67567,141.689453 3804.43349,137.78125 3796.48231,129.964844 C3788.53114,122.283203 3784.55556,112.243164 3784.55556,99.8447266 Z M3799.55556,99.2900391 C3799.55556,107.510742 3802.04872,114.114258 3807.03505,119.100586 C3812.15614,124.086914 3818.96181,126.580078 3827.45204,126.580078 C3835.80751,126.580078 3842.54579,124.086914 3847.66688,119.100586 C3852.78798,114.114258 3855.34852,107.510742 3855.34852,99.2900391 C3855.34852,90.7998047 3852.85536,84.1289062 3847.86903,79.2773437 C3842.8827,74.4257812 3836.07704,72 3827.45204,72 C3818.69227,72 3811.81923,74.4257812 3806.8329,79.2773437 C3801.98134,84.1289062 3799.55556,90.7998047 3799.55556,99.2900391 Z" transform="translate(-3772.056)"/></svg>