<svg xmlns="http://www.w3.org/2000/svg" width="110" height="243" viewBox="0 0 110 243"><path fill="#131313" d="M17.3136161,151.538086 C15.9659598,149.920898 15.3595145,148.101562 15.4942801,146.080078 C15.6290458,144.058594 16.4376395,142.374023 17.9200614,141.026367 C19.4024833,139.678711 21.1544364,139.072266 23.1759208,139.207031 C25.1974051,139.341797 26.8819754,140.217773 28.2296317,141.834961 C30.2511161,144.125977 33.2159598,146.214844 37.1241629,148.101562 C40.8976004,149.988281 45.1427176,150.931641 49.8595145,150.931641 C54.3067801,150.931641 58.2149833,150.257812 61.5841239,148.910156 C65.0880301,147.5625 68.1202567,145.473633 70.6808036,142.643555 C74.4542411,138.46582 77.351702,132.603516 79.3731864,125.056641 C81.3946708,117.509766 82.5401786,108.210938 82.8097098,97.1601562 C78.9015067,100.259766 74.3868583,102.618164 69.2657645,104.235352 C64.0099051,105.852539 58.3497489,106.661133 52.2852958,106.661133 C45.9513114,106.661133 40.2911551,105.717773 35.304827,103.831055 C30.3184989,101.944336 26.0733817,99.1816406 22.5694754,95.5429688 C18.9308036,91.7695312 16.2354911,87.1875 14.4835379,81.796875 C12.8663504,76.40625 12.1925223,70.6113281 12.4620536,64.4121094 C13.0011161,52.1484375 17.1114676,42.7148438 24.7931083,36.1113281 C32.6095145,29.3730469 43.2559989,26.0039062 56.7325614,26.0039062 C66.570452,26.0039062 74.117327,28.1601562 79.3731864,32.4726562 C84.6290458,36.7851562 88.4024833,41.1650391 90.6934989,45.6123047 C92.9845145,49.9248047 94.3995536,53.9003906 94.9386161,57.5390625 C95.6124442,61.1777344 95.9493583,63.4013672 95.9493583,64.2099609 C96.8927176,74.7216797 97.3643973,84.3574219 97.3643973,93.1171875 C97.3643973,103.089844 96.757952,111.916992 95.5450614,119.598633 C93.1192801,133.883789 88.4024833,144.867188 81.3946708,152.548828 C77.4864676,156.861328 72.9044364,160.163086 67.648577,162.454102 C62.257952,164.610352 56.3282645,165.688477 49.8595145,165.688477 C43.6602958,165.688477 37.6632254,164.408203 31.8683036,161.847656 C25.9386161,159.287109 21.0870536,155.850586 17.3136161,151.538086 Z M27.4042969,64.4638672 C27.4042969,67.0244141 27.6738281,70.2587891 28.2128906,74.1669922 C28.8867188,78.2099609 30.7060547,81.78125 33.6708984,84.8808594 C35.6923828,87.0371094 38.3203125,88.6542969 41.5546875,89.7324219 C44.7890625,90.8105469 48.5625,91.3496094 52.875,91.3496094 C57.7265625,91.3496094 62.1738281,90.6757812 66.2167969,89.328125 C70.2597656,87.8457031 73.4941406,85.8242188 75.9199219,83.2636719 C78.0761719,80.9726562 79.6259766,78.2773438 80.5693359,75.1777344 C81.5126953,72.078125 81.9169922,68.5742188 81.7822266,64.6660156 C81.7822266,64.6660156 81.7822266,64.6660156 81.7822266,64.6660156 C81.7822266,64.53125 81.7822266,64.4638672 81.7822266,64.4638672 C81.7822266,64.4638672 81.7822266,64.4638672 81.7822266,64.4638672 C81.7822266,64.4638672 81.7822266,64.4638672 81.7822266,64.4638672 C81.6474609,63.6552734 81.2431641,61.296875 80.5693359,57.3886719 C79.7607422,53.3457031 77.671875,49.6396484 74.3027344,46.2705078 C72.4160156,44.5185547 70.125,43.0361328 67.4296875,41.8232422 C64.5996094,40.6103516 61.2304688,40.0039062 57.3222656,40.0039062 C47.6191406,40.0039062 40.3417969,42.0253906 35.4902344,46.0683594 C30.5039062,50.1113281 27.8085938,56.2431641 27.4042969,64.4638672 Z"/></svg>