<svg xmlns="http://www.w3.org/2000/svg" width="110" height="203" viewBox="0 0 110 203"><path fill="#131313" d="M4260.81362,188.538086 C4259.46596,186.920898 4258.85951,185.101562 4258.99428,183.080078 C4259.12905,181.058594 4259.93764,179.374023 4261.42006,178.026367 C4262.90248,176.678711 4264.65444,176.072266 4266.67592,176.207031 C4268.69741,176.341797 4270.38198,177.217773 4271.72963,178.834961 C4273.75112,181.125977 4276.71596,183.214844 4280.62416,185.101562 C4284.3976,186.988281 4288.64272,187.931641 4293.35951,187.931641 C4297.80678,187.931641 4301.71498,187.257813 4305.08412,185.910156 C4308.58803,184.5625 4311.62026,182.473633 4314.1808,179.643555 C4317.95424,175.46582 4320.8517,169.603516 4322.87319,162.056641 C4324.89467,154.509766 4326.04018,145.210938 4326.30971,134.160156 C4322.40151,137.259766 4317.88686,139.618164 4312.76576,141.235352 C4307.50991,142.852539 4301.84975,143.661133 4295.7853,143.661133 C4289.45131,143.661133 4283.79116,142.717773 4278.80483,140.831055 C4273.8185,138.944336 4269.57338,136.181641 4266.06948,132.542969 C4262.4308,128.769531 4259.73549,124.1875 4257.98354,118.796875 C4256.36635,113.40625 4255.69252,107.611328 4255.96205,101.412109 C4256.50112,89.1484375 4260.61147,79.7148437 4268.29311,73.1113281 C4276.10951,66.3730469 4286.756,63.0039062 4300.23256,63.0039062 C4310.07045,63.0039062 4317.61733,65.1601562 4322.87319,69.4726562 C4328.12905,73.7851562 4331.90248,78.1650391 4334.1935,82.6123047 C4336.48451,86.9248047 4337.89955,90.9003906 4338.43862,94.5390625 C4339.11244,98.1777344 4339.44936,100.401367 4339.44936,101.209961 C4340.39272,111.72168 4340.8644,121.357422 4340.8644,130.117187 C4340.8644,140.089844 4340.25795,148.916992 4339.04506,156.598633 C4336.61928,170.883789 4331.90248,181.867187 4324.89467,189.548828 C4320.98647,193.861328 4316.40444,197.163086 4311.14858,199.454102 C4305.75795,201.610352 4299.82826,202.688477 4293.35951,202.688477 C4287.1603,202.688477 4281.16323,201.408203 4275.3683,198.847656 C4269.43862,196.287109 4264.58705,192.850586 4260.81362,188.538086 Z M4270.9043,101.463867 C4270.9043,104.024414 4271.17383,107.258789 4271.71289,111.166992 C4272.38672,115.209961 4274.20605,118.78125 4277.1709,121.880859 C4279.19238,124.037109 4281.82031,125.654297 4285.05469,126.732422 C4288.28906,127.810547 4292.0625,128.349609 4296.375,128.349609 C4301.22656,128.349609 4305.67383,127.675781 4309.7168,126.328125 C4313.75977,124.845703 4316.99414,122.824219 4319.41992,120.263672 C4321.57617,117.972656 4323.12598,115.277344 4324.06934,112.177734 C4325.0127,109.078125 4325.41699,105.574219 4325.28223,101.666016 C4325.28223,101.666016 4325.28223,101.666016 4325.28223,101.666016 C4325.28223,101.53125 4325.28223,101.463867 4325.28223,101.463867 C4325.28223,101.463867 4325.28223,101.463867 4325.28223,101.463867 C4325.28223,101.463867 4325.28223,101.463867 4325.28223,101.463867 C4325.14746,100.655273 4324.74316,98.296875 4324.06934,94.3886719 C4323.26074,90.3457031 4321.17188,86.6396484 4317.80273,83.2705078 C4315.91602,81.5185547 4313.625,80.0361328 4310.92969,78.8232422 C4308.09961,77.6103516 4304.73047,77.0039062 4300.82227,77.0039062 C4291.11914,77.0039062 4283.8418,79.0253906 4278.99023,83.0683594 C4274.00391,87.1113281 4271.30859,93.2431641 4270.9043,101.463867 Z" transform="translate(-4243.5)"/></svg>