<svg xmlns="http://www.w3.org/2000/svg" width="120" height="203" viewBox="0 0 120 203"><path fill="#131313" d="M108.994141,193.493164 C109.26888,194.317383 109.40625,195.072917 109.40625,195.759766 C109.40625,196.996094 109.13151,198.095052 108.582031,199.056641 C107.620443,200.979818 106.109375,202.284831 104.048828,202.97168 C103.774089,202.97168 103.430664,203.040365 103.018555,203.177734 C102.606445,203.177734 102.194336,203.177734 101.782227,203.177734 C100.271159,203.177734 98.828776,202.765625 97.4550781,201.941406 C96.0813802,200.979818 95.1884766,199.674805 94.7763672,198.026367 C90.3805339,185.113607 83.9241536,165.607096 75.4072266,139.506836 C68.538737,139.506836 58.2360026,139.506836 44.4990234,139.506836 C40.1031901,152.556966 33.6468099,172.063477 25.1298828,198.026367 C24.5804036,200.086914 23.3440755,201.529297 21.4208984,202.353516 C20.3219401,202.902995 19.2229818,203.177734 18.1240234,203.177734 C17.2998047,203.177734 16.4755859,203.109049 15.6513672,202.97168 C13.7281901,202.284831 12.2858073,200.979818 11.3242188,199.056641 C10.7747396,198.095052 10.5,196.996094 10.5,195.759766 C10.5,195.072917 10.6373698,194.317383 10.9121094,193.493164 C15.4453125,179.618815 22.3138021,158.807292 31.5175781,131.058594 C31.5175781,130.646484 31.586263,130.234375 31.7236328,129.822266 C31.8610026,129.272786 32.0670573,128.860677 32.3417969,128.585938 C36.875,114.711589 43.6748047,93.8313802 52.7412109,65.9453125 C53.2906901,64.4342448 54.2522786,63.1979167 55.6259766,62.2363281 C56.8623047,61.4121094 58.3046875,61 59.953125,61 C61.6015625,61 63.0439453,61.4121094 64.2802734,62.2363281 C65.6539714,63.1979167 66.546875,64.4342448 66.9589844,65.9453125 C71.6295573,79.9570312 78.4980469,100.83724 87.5644531,128.585938 C87.8391927,128.860677 88.0452474,129.272786 88.1826172,129.822266 C88.319987,130.234375 88.3886719,130.646484 88.3886719,131.058594 C91.8229167,141.498698 95.2571615,151.870117 98.6914063,162.172852 C102.125651,172.612956 105.559896,183.05306 108.994141,193.493164 Z M49.4443359,124.670898 C54.1149089,124.670898 61.1894531,124.670898 70.6679688,124.670898 C68.1953125,117.390299 64.6236979,106.606771 59.953125,92.3203125 C58.1673177,97.6777344 56.3815104,103.035156 54.5957031,108.392578 C52.9472656,113.75 51.2301432,119.176107 49.4443359,124.670898 Z"/></svg>