<svg xmlns="http://www.w3.org/2000/svg" width="120" height="203" viewBox="0 0 120 203"><path fill="#131313" d="M108.994141,133.021484 C109.26888,133.845703 109.40625,134.601237 109.40625,135.288086 C109.40625,136.524414 109.13151,137.623372 108.582031,138.584961 C107.620443,140.508138 106.109375,141.813151 104.048828,142.5 C103.774089,142.5 103.430664,142.568685 103.018555,142.706055 C102.606445,142.706055 102.194336,142.706055 101.782227,142.706055 C100.271159,142.706055 98.828776,142.293945 97.4550781,141.469727 C96.0813802,140.508138 95.1884766,139.203125 94.7763672,137.554688 C90.3805339,124.641927 83.9241536,105.135417 75.4072266,79.0351562 C68.538737,79.0351562 58.2360026,79.0351562 44.4990234,79.0351562 C40.1031901,92.0852865 33.6468099,111.591797 25.1298828,137.554688 C24.5804036,139.615234 23.3440755,141.057617 21.4208984,141.881836 C20.3219401,142.431315 19.2229818,142.706055 18.1240234,142.706055 C17.2998047,142.706055 16.4755859,142.63737 15.6513672,142.5 C13.7281901,141.813151 12.2858073,140.508138 11.3242188,138.584961 C10.7747396,137.623372 10.5,136.524414 10.5,135.288086 C10.5,134.601237 10.6373698,133.845703 10.9121094,133.021484 C15.4453125,119.147135 22.3138021,98.335612 31.5175781,70.5869141 C31.5175781,70.1748047 31.586263,69.7626953 31.7236328,69.3505859 C31.8610026,68.8011068 32.0670573,68.3889974 32.3417969,68.1142578 C36.875,54.2399089 43.6748047,33.3597005 52.7412109,5.47363281 C53.2906901,3.9625651 54.2522786,2.72623698 55.6259766,1.76464844 C56.8623047,0.940429687 58.3046875,0.528320312 59.953125,0.528320312 C61.6015625,0.528320312 63.0439453,0.940429687 64.2802734,1.76464844 C65.6539714,2.72623698 66.546875,3.9625651 66.9589844,5.47363281 C71.6295573,19.4853516 78.4980469,40.3655599 87.5644531,68.1142578 C87.8391927,68.3889974 88.0452474,68.8011068 88.1826172,69.3505859 C88.319987,69.7626953 88.3886719,70.1748047 88.3886719,70.5869141 C91.8229167,81.0270182 95.2571615,91.3984375 98.6914063,101.701172 C102.125651,112.141276 105.559896,122.58138 108.994141,133.021484 Z M49.4443359,64.1992188 C54.1149089,64.1992188 61.1894531,64.1992188 70.6679688,64.1992188 C68.1953125,56.9186198 64.6236979,46.1350911 59.953125,31.8486328 C58.1673177,37.2060547 56.3815104,42.5634766 54.5957031,47.9208984 C52.9472656,53.2783203 51.2301432,58.7044271 49.4443359,64.1992188 Z" transform="translate(0 -.528)"/></svg>