<svg xmlns="http://www.w3.org/2000/svg" width="120" height="243" viewBox="0 0 120 243"><path fill="#131313" d="M108.994141,156.493164 C109.26888,157.317383 109.40625,158.072917 109.40625,158.759766 C109.40625,159.996094 109.13151,161.095052 108.582031,162.056641 C107.620443,163.979818 106.109375,165.284831 104.048828,165.97168 C103.774089,165.97168 103.430664,166.040365 103.018555,166.177734 C102.606445,166.177734 102.194336,166.177734 101.782227,166.177734 C100.271159,166.177734 98.828776,165.765625 97.4550781,164.941406 C96.0813802,163.979818 95.1884766,162.674805 94.7763672,161.026367 C90.3805339,148.113607 83.9241536,128.607096 75.4072266,102.506836 C68.538737,102.506836 58.2360026,102.506836 44.4990234,102.506836 C40.1031901,115.556966 33.6468099,135.063477 25.1298828,161.026367 C24.5804036,163.086914 23.3440755,164.529297 21.4208984,165.353516 C20.3219401,165.902995 19.2229818,166.177734 18.1240234,166.177734 C17.2998047,166.177734 16.4755859,166.109049 15.6513672,165.97168 C13.7281901,165.284831 12.2858073,163.979818 11.3242188,162.056641 C10.7747396,161.095052 10.5,159.996094 10.5,158.759766 C10.5,158.072917 10.6373698,157.317383 10.9121094,156.493164 C15.4453125,142.618815 22.3138021,121.807292 31.5175781,94.0585938 C31.5175781,93.6464844 31.586263,93.234375 31.7236328,92.8222656 C31.8610026,92.2727865 32.0670573,91.8606771 32.3417969,91.5859375 C36.875,77.7115885 43.6748047,56.8313802 52.7412109,28.9453125 C53.2906901,27.4342448 54.2522786,26.1979167 55.6259766,25.2363281 C56.8623047,24.4121094 58.3046875,24 59.953125,24 C61.6015625,24 63.0439453,24.4121094 64.2802734,25.2363281 C65.6539714,26.1979167 66.546875,27.4342448 66.9589844,28.9453125 C71.6295573,42.9570312 78.4980469,63.8372396 87.5644531,91.5859375 C87.8391927,91.8606771 88.0452474,92.2727865 88.1826172,92.8222656 C88.319987,93.234375 88.3886719,93.6464844 88.3886719,94.0585938 C91.8229167,104.498698 95.2571615,114.870117 98.6914062,125.172852 C102.125651,135.612956 105.559896,146.05306 108.994141,156.493164 Z M49.4443359,87.6708984 C54.1149089,87.6708984 61.1894531,87.6708984 70.6679688,87.6708984 C68.1953125,80.3902995 64.6236979,69.6067708 59.953125,55.3203125 C58.1673177,60.6777344 56.3815104,66.0351562 54.5957031,71.3925781 C52.9472656,76.75 51.2301432,82.1761068 49.4443359,87.6708984 Z"/></svg>