<svg xmlns="http://www.w3.org/2000/svg" width="102" height="203" viewBox="0 0 102 203"><path d="M2530.66081,101.057441 L2532.23108,96.229765 C2533.0536,93.3855527 2534.5491,92.6370757 2536.71757,93.9843342 C2537.54009,94.3585727 2538.11959,94.9760661 2538.45608,95.8368146 C2538.79257,96.6975631 2538.6991,97.8764143 2538.17568,99.3733681 L2528.52973,128.227154 C2527.48288,131.370757 2527.20248,133.466493 2527.68851,134.51436 C2528.17455,135.562228 2529.16532,136.086162 2530.66081,136.086162 C2532.15631,136.086162 2533.89482,135.356397 2535.87635,133.896867 C2537.85788,132.437337 2539.74595,130.472585 2541.54054,128.002611 C2543.33514,125.532637 2544.84932,122.707137 2546.08311,119.52611 C2547.31689,116.345083 2547.93378,113.033072 2547.93378,109.590078 C2547.93378,105.473455 2547.01779,101.674935 2545.18581,98.194517 C2543.35383,94.7140992 2540.96104,91.6827676 2538.00743,89.1005222 C2535.05383,86.5182768 2531.63288,84.4786771 2527.74459,82.9817232 C2523.85631,81.4847694 2519.81847,80.7362924 2515.63108,80.7362924 C2510.92027,80.7362924 2506.35901,81.7280244 2501.9473,83.7114883 C2497.53559,85.6949521 2493.6473,88.3894691 2490.28243,91.7950392 C2486.91757,95.2006092 2484.22568,99.2236728 2482.20676,103.86423 C2480.18784,108.504787 2479.17838,113.482158 2479.17838,118.796345 C2479.17838,124.035683 2480.11306,128.7698 2481.98243,132.998695 C2483.8518,137.227589 2486.43153,140.820279 2489.72162,143.776762 C2493.01171,146.733246 2496.9,149.016101 2501.38649,150.625326 C2505.87297,152.234552 2510.69595,153.039164 2515.85541,153.039164 C2519.22027,153.039164 2522.32342,152.758486 2525.16486,152.197128 C2528.00631,151.63577 2530.6982,150.75631 2533.24054,149.558747 C2535.78288,148.361184 2538.25045,146.77067 2540.64324,144.787206 C2543.03604,142.803742 2545.46622,140.35248 2547.93378,137.43342 C2548.45721,136.684943 2548.99932,136.254569 2549.56014,136.142298 C2550.12095,136.030026 2550.66306,136.086162 2551.18649,136.310705 C2551.70991,136.535248 2552.13986,136.890775 2552.47635,137.377285 C2552.81284,137.863795 2553.01847,138.331593 2553.09324,138.780679 C2553.16802,139.678851 2552.83153,140.745431 2552.08378,141.980418 C2551.33604,143.215405 2549.99009,144.805918 2548.04595,146.751958 C2544.23243,150.718886 2539.68986,153.899913 2534.41824,156.295039 C2529.14662,158.690165 2522.95901,159.925152 2515.85541,160 C2509.79865,160 2504.09707,159.045692 2498.75068,157.137076 C2493.40428,155.22846 2488.76824,152.477807 2484.84257,148.885117 C2480.91689,145.292428 2477.79505,140.895126 2475.47703,135.693211 C2473.15901,130.491297 2472,124.634465 2472,118.122715 C2472,111.760661 2473.21509,105.903829 2475.64527,100.552219 C2478.07545,95.2006092 2481.30946,90.5600522 2485.3473,86.6305483 C2489.38514,82.7010444 2494.02117,79.613577 2499.25541,77.3681462 C2504.48964,75.1227154 2509.87342,74 2515.40676,74 C2520.79054,74 2525.87523,74.8981723 2530.66081,76.694517 C2535.4464,78.4908616 2539.63378,80.9982594 2543.22297,84.2167102 C2546.81216,87.435161 2549.6723,91.2336815 2551.80338,95.6122715 C2553.93446,99.9908616 2555,104.762402 2555,109.926893 C2555,114.118364 2554.19617,118.216275 2552.58851,122.220627 C2550.98086,126.224978 2548.88716,129.780244 2546.30743,132.886423 C2543.7277,135.992602 2540.83018,138.481288 2537.61486,140.35248 C2534.39955,142.223673 2531.18423,143.159269 2527.96892,143.159269 C2525.80045,143.159269 2524.09932,142.560487 2522.86554,141.362924 C2521.63176,140.165361 2520.64099,138.331593 2519.89324,135.861619 C2517.72477,138.032202 2515.46284,139.678851 2513.10743,140.801567 C2510.75203,141.924282 2508.19099,142.48564 2505.42432,142.48564 C2502.65766,142.48564 2500.32095,141.924282 2498.41419,140.801567 C2496.50743,139.678851 2494.95586,138.238033 2493.75946,136.479112 C2492.56306,134.720191 2491.68446,132.774151 2491.12365,130.640992 C2490.56284,128.507833 2490.28243,126.430809 2490.28243,124.409922 C2490.28243,120.966928 2490.95541,117.336815 2492.30135,113.519582 C2493.6473,109.70235 2495.55405,106.165796 2498.02162,102.909922 C2500.48919,99.654047 2503.40541,96.95953 2506.77027,94.8263708 C2510.13514,92.6932115 2513.83649,91.6266319 2517.87432,91.6266319 C2521.31396,91.6266319 2524.09932,92.5060923 2526.23041,94.2650131 C2528.36149,96.0239339 2529.83829,98.2880766 2530.66081,101.057441 Z M2508.29986,135 C2511.50768,135 2514.49679,133.654206 2517.26718,130.962617 C2520.03757,128.271028 2522.29762,124.121495 2524.04735,118.514019 C2525.06802,115.523364 2525.81529,113.093458 2526.28918,111.224299 C2526.76306,109.35514 2527,107.785047 2527,106.514019 C2527,104.196262 2526.21627,102.364486 2524.64881,101.018692 C2523.08135,99.6728972 2521.02179,99 2518.47011,99 C2515.69972,99 2513.12982,99.8037383 2510.7604,101.411215 C2508.39099,103.018692 2506.33142,105.037383 2504.5817,107.46729 C2502.83198,109.897196 2501.46501,112.570093 2500.48079,115.485981 C2499.49657,118.401869 2499.00446,121.168224 2499.00446,123.785047 C2498.93156,127.523364 2499.75174,130.327103 2501.46501,132.196262 C2503.17828,134.065421 2505.45656,135 2508.29986,135 Z" transform="translate(-2462 -18)"/></svg>