<svg xmlns="http://www.w3.org/2000/svg" width="120" height="243" viewBox="0 0 120 243"><path fill="#131313" d="M100.452148,108.366211 C103.749023,117.020508 104.710612,124.369792 103.336914,130.414062 C101.963216,136.595703 100.040039,141.472331 97.5673828,145.043945 C93.3089193,151.500326 87.1272786,156.583008 79.0224609,160.291992 C70.9176432,163.863607 62.0572917,165.649414 52.4414062,165.649414 C46.2597656,165.649414 36.9186198,165.649414 24.4179688,165.649414 C22.4947917,165.649414 20.7776693,164.962565 19.2666016,163.588867 C17.7555339,162.077799 17,160.291992 17,158.231445 C17,130.345378 17,88.4475911 17,32.5380859 C17,32.5380859 17,32.5380859 17,32.5380859 C17,32.5380859 17,32.5380859 17,32.5380859 C17,32.1259766 17,31.5764974 17,30.8896484 C17,28.8291016 17.7555339,27.0432943 19.2666016,25.5322266 C20.6402995,24.1585286 22.3574219,23.4716797 24.4179688,23.4716797 C25.2421875,23.4716797 25.9290365,23.5403646 26.4785156,23.6777344 C27.1653646,23.8151042 27.7835286,24.0898438 28.3330078,24.5019531 C40.1468099,22.8535156 51.1363932,23.5403646 61.3017578,26.5625 C71.3297526,29.7220052 79.1598307,34.7360026 84.7919922,41.6044922 C88.226237,46.0003255 90.3554688,50.6708984 91.1796875,55.6162109 C91.8665365,60.5615234 91.1796875,65.3694661 89.1191406,70.0400391 C88.0201823,72.3753255 86.1656901,75.0540365 83.5556641,78.0761719 C81.0830078,81.2356771 77.3053385,84.1891276 72.2226562,86.9365234 C78.4042969,88.7223307 84.1051432,91.3323568 89.3251953,94.7666016 C94.4078776,98.2008464 98.116862,102.734049 100.452148,108.366211 Z M72.9492188,51.5732422 C69.7897135,47.5895182 64.6383464,44.2926432 57.4951172,41.6826172 C50.351888,39.0725911 41.8349609,38.3857422 31.9443359,39.6220703 C31.9443359,49.2379557 31.9443359,63.7991536 31.9443359,83.3056641 C42.9339193,82.2067057 51.4508464,80.3522135 57.4951172,77.7421875 C63.4020182,75.2695313 67.7291667,72.8655599 70.4765625,70.5302734 C71.9876302,69.2939453 73.0865885,68.1263021 73.7734375,67.0273438 C74.5976562,65.9283854 75.1471354,65.0354818 75.421875,64.3486328 C76.5208333,61.7386068 76.726888,59.3346354 76.0400391,57.1367188 C75.2158203,54.9388021 74.1855469,53.0843099 72.9492188,51.5732422 Z M85.1064453,137.085938 C87.304362,134.063802 88.4720052,130.629557 88.609375,126.783203 C88.8841146,122.936849 88.1285807,118.815755 86.3427734,114.419922 C84.5569661,109.611979 80.4358724,106.109049 73.9794922,103.911133 C67.523112,101.575846 60.7233073,99.9960938 53.5800781,99.171875 C49.5963542,98.7597656 45.75,98.485026 42.0410156,98.3476562 C38.3320312,98.3476562 34.9664714,98.3476562 31.9443359,98.3476562 C31.9443359,110.161458 31.9443359,127.813477 31.9443359,151.303711 C36.4775391,151.303711 43.2773438,151.303711 52.34375,151.303711 C59.3496094,151.303711 65.8746745,149.998698 71.9189453,147.388672 C77.8258464,144.916016 82.2216797,141.481771 85.1064453,137.085938 Z"/></svg>