<svg xmlns="http://www.w3.org/2000/svg" width="120" height="203" viewBox="0 0 120 203"><path fill="#131313" d="M306.368867,145.366211 C309.665742,154.020508 310.627331,161.369792 309.253633,167.414062 C307.879935,173.595703 305.956758,178.472331 303.484102,182.043945 C299.225638,188.500326 293.043997,193.583008 284.93918,197.291992 C276.834362,200.863607 267.97401,202.649414 258.358125,202.649414 C252.176484,202.649414 242.835339,202.649414 230.334687,202.649414 C228.41151,202.649414 226.694388,201.962565 225.18332,200.588867 C223.672253,199.077799 222.916719,197.291992 222.916719,195.231445 C222.916719,167.345378 222.916719,125.447591 222.916719,69.5380859 C222.916719,69.5380859 222.916719,69.5380859 222.916719,69.5380859 C222.916719,69.5380859 222.916719,69.5380859 222.916719,69.5380859 C222.916719,69.1259766 222.916719,68.5764974 222.916719,67.8896484 C222.916719,65.8291016 223.672253,64.0432943 225.18332,62.5322266 C226.557018,61.1585286 228.274141,60.4716797 230.334687,60.4716797 C231.158906,60.4716797 231.845755,60.5403646 232.395234,60.6777344 C233.082083,60.8151042 233.700247,61.0898438 234.249727,61.5019531 C246.063529,59.8535156 257.053112,60.5403646 267.218477,63.5625 C277.246471,66.7220052 285.076549,71.7360026 290.708711,78.6044922 C294.142956,83.0003255 296.272187,87.6708984 297.096406,92.6162109 C297.783255,97.5615234 297.096406,102.369466 295.035859,107.040039 C293.936901,109.375326 292.082409,112.054036 289.472383,115.076172 C286.999727,118.235677 283.222057,121.189128 278.139375,123.936523 C284.321016,125.722331 290.021862,128.332357 295.241914,131.766602 C300.324596,135.200846 304.033581,139.734049 306.368867,145.366211 Z M278.865937,88.5732422 C275.706432,84.5895182 270.555065,81.2926432 263.411836,78.6826172 C256.268607,76.0725911 247.75168,75.3857422 237.861055,76.6220703 C237.861055,86.2379557 237.861055,100.799154 237.861055,120.305664 C248.850638,119.206706 257.367565,117.352214 263.411836,114.742188 C269.318737,112.269531 273.645885,109.86556 276.393281,107.530273 C277.904349,106.293945 279.003307,105.126302 279.690156,104.027344 C280.514375,102.928385 281.063854,102.035482 281.338594,101.348633 C282.437552,98.7386068 282.643607,96.3346354 281.956758,94.1367187 C281.132539,91.9388021 280.102266,90.0843099 278.865937,88.5732422 Z M291.023164,174.085938 C293.221081,171.063802 294.388724,167.629557 294.526094,163.783203 C294.800833,159.936849 294.045299,155.815755 292.259492,151.419922 C290.473685,146.611979 286.352591,143.109049 279.896211,140.911133 C273.439831,138.575846 266.640026,136.996094 259.496797,136.171875 C255.513073,135.759766 251.666719,135.485026 247.957734,135.347656 C244.24875,135.347656 240.88319,135.347656 237.861055,135.347656 C237.861055,147.161458 237.861055,164.813477 237.861055,188.303711 C242.394258,188.303711 249.194062,188.303711 258.260469,188.303711 C265.266328,188.303711 271.791393,186.998698 277.835664,184.388672 C283.742565,181.916016 288.138398,178.481771 291.023164,174.085938 Z" transform="translate(-205.917)"/></svg>