<svg xmlns="http://www.w3.org/2000/svg" width="120" height="203" viewBox="0 0 120 203"><path fill="#131313" d="M306.368867,84.8945312 C309.665742,93.5488281 310.627331,100.898112 309.253633,106.942383 C307.879935,113.124023 305.956758,118.000651 303.484102,121.572266 C299.225638,128.028646 293.043997,133.111328 284.93918,136.820312 C276.834362,140.391927 267.97401,142.177734 258.358125,142.177734 C252.176484,142.177734 242.835339,142.177734 230.334687,142.177734 C228.41151,142.177734 226.694388,141.490885 225.18332,140.117188 C223.672253,138.60612 222.916719,136.820312 222.916719,134.759766 C222.916719,106.873698 222.916719,64.9759115 222.916719,9.06640625 C222.916719,9.06640625 222.916719,9.06640625 222.916719,9.06640625 C222.916719,9.06640625 222.916719,9.06640625 222.916719,9.06640625 C222.916719,8.65429688 222.916719,8.10481771 222.916719,7.41796875 C222.916719,5.35742188 223.672253,3.57161458 225.18332,2.06054687 C226.557018,0.686848958 228.274141,0 230.334687,0 C231.158906,0 231.845755,0.0686848958 232.395234,0.206054687 C233.082083,0.343424479 233.700247,0.618164062 234.249727,1.03027344 C246.063529,-0.618164062 257.053112,0.0686848958 267.218477,3.09082031 C277.246471,6.25032552 285.076549,11.2643229 290.708711,18.1328125 C294.142956,22.5286458 296.272187,27.1992188 297.096406,32.1445312 C297.783255,37.0898437 297.096406,41.8977865 295.035859,46.5683594 C293.936901,48.9036458 292.082409,51.5823568 289.472383,54.6044922 C286.999727,57.7639974 283.222057,60.7174479 278.139375,63.4648438 C284.321016,65.250651 290.021862,67.8606771 295.241914,71.2949219 C300.324596,74.7291667 304.033581,79.2623698 306.368867,84.8945312 Z M278.865937,28.1015625 C275.706432,24.1178385 270.555065,20.8209635 263.411836,18.2109375 C256.268607,15.6009115 247.75168,14.9140625 237.861055,16.1503906 C237.861055,25.766276 237.861055,40.327474 237.861055,59.8339844 C248.850638,58.735026 257.367565,56.8805339 263.411836,54.2705078 C269.318737,51.7978516 273.645885,49.3938802 276.393281,47.0585937 C277.904349,45.8222656 279.003307,44.6546224 279.690156,43.5556641 C280.514375,42.4567057 281.063854,41.5638021 281.338594,40.8769531 C282.437552,38.2669271 282.643607,35.8629557 281.956758,33.6650391 C281.132539,31.4671224 280.102266,29.6126302 278.865937,28.1015625 Z M291.023164,113.614258 C293.221081,110.592122 294.388724,107.157878 294.526094,103.311523 C294.800833,99.4651693 294.045299,95.3440755 292.259492,90.9482422 C290.473685,86.1402995 286.352591,82.6373698 279.896211,80.4394531 C273.439831,78.1041667 266.640026,76.5244141 259.496797,75.7001953 C255.513073,75.2880859 251.666719,75.0133464 247.957734,74.8759766 C244.24875,74.8759766 240.88319,74.8759766 237.861055,74.8759766 C237.861055,86.6897786 237.861055,104.341797 237.861055,127.832031 C242.394258,127.832031 249.194062,127.832031 258.260469,127.832031 C265.266328,127.832031 271.791393,126.527018 277.835664,123.916992 C283.742565,121.444336 288.138398,118.010091 291.023164,113.614258 Z" transform="translate(-205.917 -.528)"/></svg>