<svg xmlns="http://www.w3.org/2000/svg" width="97" height="203" viewBox="0 0 97 203"><path fill="#131313" d="M70.7519531,77.640625 C73.8964844,84.5286458 75.3190104,91.5664062 75.0195312,98.7539062 C74.5703125,105.791667 72.3990885,112.305339 68.5058594,118.294922 C63.8639323,125.632161 57.3502604,131.247396 48.9648438,135.140625 C40.4296875,139.033854 30.8463542,140.980469 20.2148437,140.980469 C17.5195313,140.980469 13.4765625,140.980469 8.0859375,140.980469 C5.83984375,140.980469 3.96809896,140.231771 2.47070313,138.734375 C0.823567708,137.08724 0,135.140625 0,132.894531 C0,102.048177 0,69.7786458 0,8.0859375 C0,5.83984375 0.823567708,3.89322917 2.47070312,2.24609375 C3.96809896,0.748697917 5.83984375,0 8.0859375,0 C10.3320312,0 12.2786458,0.748697917 13.9257812,2.24609375 C15.4231771,3.89322917 16.171875,5.83984375 16.171875,8.0859375 C16.171875,22.3111979 16.171875,29.7239583 16.171875,58.3242188 C20.6640625,56.9765625 25.9049479,56.0032552 31.8945312,55.4042969 C37.734375,54.8053385 43.5742187,55.5540365 49.4140625,57.6503906 C54.2057292,59.297526 58.3984375,61.843099 61.9921875,65.2871094 C65.5859375,68.5813802 68.5058594,72.6992188 70.7519531,77.640625 Z M54.6328125,109.121202 C57.0286458,105.527452 58.3014323,101.559353 58.4511719,97.2169054 C58.6009115,92.7247179 57.702474,88.38227 55.7558594,84.1895616 C54.4082031,81.19477 52.7610677,78.7240668 50.8144531,76.7774523 C48.8678385,74.9805773 46.546875,73.5580512 43.8515625,72.5098741 C39.0598958,70.8627387 34.0436198,70.5632595 28.8027344,71.6114366 C23.561849,72.6596137 19.2942708,73.7826606 16,74.9805773 C16,85.9115668 16,102.382921 16,124.39464 C16.8984375,124.39464 18.171224,124.39464 19.8183594,124.39464 C27.7545573,124.39464 34.7923177,123.046984 40.9316406,120.351671 C46.921224,117.656359 51.4882812,113.912869 54.6328125,109.121202 Z" transform="translate(11)"/></svg>