<svg xmlns="http://www.w3.org/2000/svg" width="120" height="203" viewBox="0 0 120 203"><path fill="#131313" d="M455.723086,186.498047 C449.266706,179.217448 444.733503,170.219727 442.123477,159.504883 C440.475039,152.773763 439.65082,145.699219 439.65082,138.28125 C439.65082,133.885417 439.92556,129.420898 440.475039,124.887695 C441.711367,115.27181 443.977969,106.480143 447.274844,98.5126953 C450.434349,90.4078776 454.555443,83.4707031 459.638125,77.7011719 C464.308698,72.2063802 469.52875,67.9479167 475.298281,64.9257812 C481.205182,62.0410156 487.043398,60.5986328 492.81293,60.5986328 C497.071393,60.5986328 502.703555,61.2167969 509.709414,62.453125 C516.715273,63.8268229 523.034284,67.055013 528.666445,72.1376953 C530.177513,73.5113932 530.933047,75.2285156 530.933047,77.2890625 C531.070417,79.3496094 530.452253,81.1354167 529.078555,82.6464844 C527.704857,84.1575521 525.987734,84.9817708 523.927187,85.1191406 C521.866641,85.2565104 520.080833,84.6383464 518.569766,83.2646484 C514.723411,79.6930339 510.121523,77.4951172 504.764102,76.6708984 C499.40668,75.8466797 495.491641,75.4345703 493.018984,75.4345703 C489.44737,75.4345703 486.08181,76.1901042 482.922305,77.7011719 C479.762799,79.2122396 476.809349,81.2727865 474.061953,83.8828125 C469.116641,88.828125 464.995547,95.1471354 461.698672,102.839844 C458.539167,110.669922 456.409935,118.63737 455.310977,126.742188 C454.074648,137.044922 454.418073,146.523438 456.34125,155.177734 C458.401797,163.832031 461.904727,170.97526 466.850039,176.607422 C470.146914,180.316406 473.993268,183.132487 478.389102,185.055664 C482.784935,186.978841 487.524193,187.94043 492.606875,187.94043 C492.606875,187.94043 492.67556,187.94043 492.81293,187.94043 C492.81293,187.94043 492.81293,187.94043 492.81293,187.94043 C496.796654,187.94043 501.879336,187.253581 508.060977,185.879883 C514.379987,184.643555 519.874779,180.247721 524.545352,172.692383 C525.64431,170.906576 527.155378,169.807617 529.078555,169.395508 C531.139102,168.846029 533.062279,169.120768 534.848086,170.219727 C536.633893,171.318685 537.732852,172.898437 538.144961,174.958984 C538.55707,177.019531 538.213646,178.874023 537.114687,180.522461 C534.779401,184.368815 532.23806,187.597005 529.490664,190.207031 C526.605898,192.817057 523.721133,194.946289 520.836367,196.594727 C515.341576,199.616862 510.052839,201.402669 504.970156,201.952148 C499.887474,202.501628 495.90375,202.776367 493.018984,202.776367 C492.881615,202.776367 492.81293,202.776367 492.81293,202.776367 C492.67556,202.776367 492.606875,202.776367 492.606875,202.776367 C485.326276,202.776367 478.526471,201.402669 472.207461,198.655273 C465.888451,195.907878 460.393659,191.855469 455.723086,186.498047 Z" transform="translate(-428.917)"/></svg>