<svg xmlns="http://www.w3.org/2000/svg" width="120" height="203" viewBox="0 0 120 203"><path fill="#131313" d="M455.723086,126.026367 C449.266706,118.745768 444.733503,109.748047 442.123477,99.0332031 C440.475039,92.3020833 439.65082,85.2275391 439.65082,77.8095703 C439.65082,73.413737 439.92556,68.9492188 440.475039,64.4160156 C441.711367,54.8001302 443.977969,46.0084635 447.274844,38.0410156 C450.434349,29.9361979 454.555443,22.9990234 459.638125,17.2294922 C464.308698,11.7347005 469.52875,7.47623698 475.298281,4.45410156 C481.205182,1.56933594 487.043398,0.126953125 492.81293,0.126953125 C497.071393,0.126953125 502.703555,0.745117187 509.709414,1.98144531 C516.715273,3.35514323 523.034284,6.58333333 528.666445,11.6660156 C530.177513,13.0397135 530.933047,14.7568359 530.933047,16.8173828 C531.070417,18.8779297 530.452253,20.663737 529.078555,22.1748047 C527.704857,23.6858724 525.987734,24.5100911 523.927187,24.6474609 C521.866641,24.7848307 520.080833,24.1666667 518.569766,22.7929687 C514.723411,19.2213542 510.121523,17.0234375 504.764102,16.1992188 C499.40668,15.375 495.491641,14.9628906 493.018984,14.9628906 C489.44737,14.9628906 486.08181,15.7184245 482.922305,17.2294922 C479.762799,18.7405599 476.809349,20.8011068 474.061953,23.4111328 C469.116641,28.3564453 464.995547,34.6754557 461.698672,42.3681641 C458.539167,50.1982422 456.409935,58.1656901 455.310977,66.2705078 C454.074648,76.5732422 454.418073,86.0517578 456.34125,94.7060547 C458.401797,103.360352 461.904727,110.503581 466.850039,116.135742 C470.146914,119.844727 473.993268,122.660807 478.389102,124.583984 C482.784935,126.507161 487.524193,127.46875 492.606875,127.46875 C492.606875,127.46875 492.67556,127.46875 492.81293,127.46875 C492.81293,127.46875 492.81293,127.46875 492.81293,127.46875 C496.796654,127.46875 501.879336,126.781901 508.060977,125.408203 C514.379987,124.171875 519.874779,119.776042 524.545352,112.220703 C525.64431,110.434896 527.155378,109.335938 529.078555,108.923828 C531.139102,108.374349 533.062279,108.649089 534.848086,109.748047 C536.633893,110.847005 537.732852,112.426758 538.144961,114.487305 C538.55707,116.547852 538.213646,118.402344 537.114687,120.050781 C534.779401,123.897135 532.23806,127.125326 529.490664,129.735352 C526.605898,132.345378 523.721133,134.474609 520.836367,136.123047 C515.341576,139.145182 510.052839,140.93099 504.970156,141.480469 C499.887474,142.029948 495.90375,142.304688 493.018984,142.304688 C492.881615,142.304688 492.81293,142.304688 492.81293,142.304688 C492.67556,142.304688 492.606875,142.304688 492.606875,142.304688 C485.326276,142.304688 478.526471,140.93099 472.207461,138.183594 C465.888451,135.436198 460.393659,131.383789 455.723086,126.026367 Z" transform="translate(-428.917 -.528)"/></svg>