<svg xmlns="http://www.w3.org/2000/svg" width="120" height="243" viewBox="0 0 120 243"><path fill="#131313" d="M26.8063672,149.498047 C20.349987,142.217448 15.8167839,133.219727 13.2067578,122.504883 C11.5583203,115.773763 10.7341016,108.699219 10.7341016,101.28125 C10.7341016,96.8854167 11.0088411,92.4208984 11.5583203,87.8876953 C12.7946484,78.2718099 15.06125,69.4801432 18.358125,61.5126953 C21.5176302,53.4078776 25.638724,46.4707031 30.7214063,40.7011719 C35.3919792,35.2063802 40.6120313,30.9479167 46.3815625,27.9257812 C52.2884635,25.0410156 58.1266797,23.5986328 63.8962109,23.5986328 C68.1546745,23.5986328 73.7868359,24.2167969 80.7926953,25.453125 C87.7985547,26.8268229 94.1175651,30.055013 99.7497266,35.1376953 C101.260794,36.5113932 102.016328,38.2285156 102.016328,40.2890625 C102.153698,42.3496094 101.535534,44.1354167 100.161836,45.6464844 C98.788138,47.1575521 97.0710156,47.9817708 95.0104688,48.1191406 C92.9499219,48.2565104 91.1641146,47.6383464 89.6530469,46.2646484 C85.8066927,42.6930339 81.2048047,40.4951172 75.8473828,39.6708984 C70.4899609,38.8466797 66.5749219,38.4345703 64.1022656,38.4345703 C60.530651,38.4345703 57.1650911,39.1901042 54.0055859,40.7011719 C50.8460807,42.2122396 47.8926302,44.2727865 45.1452344,46.8828125 C40.1999219,51.828125 36.0788281,58.1471354 32.7819531,65.8398438 C29.6224479,73.6699219 27.4932161,81.6373698 26.3942578,89.7421875 C25.1579297,100.044922 25.5013542,109.523438 27.4245313,118.177734 C29.4850781,126.832031 32.9880078,133.97526 37.9333203,139.607422 C41.2301953,143.316406 45.0765495,146.132487 49.4723828,148.055664 C53.8682161,149.978841 58.607474,150.94043 63.6901563,150.94043 C63.6901563,150.94043 63.7588411,150.94043 63.8962109,150.94043 C63.8962109,150.94043 63.8962109,150.94043 63.8962109,150.94043 C67.8799349,150.94043 72.9626172,150.253581 79.1442578,148.879883 C85.4632682,147.643555 90.9580599,143.247721 95.6286328,135.692383 C96.7275911,133.906576 98.2386589,132.807617 100.161836,132.395508 C102.222383,131.846029 104.14556,132.120768 105.931367,133.219727 C107.717174,134.318685 108.816133,135.898438 109.228242,137.958984 C109.640352,140.019531 109.296927,141.874023 108.197969,143.522461 C105.862682,147.368815 103.321341,150.597005 100.573945,153.207031 C97.6891797,155.817057 94.8044141,157.946289 91.9196484,159.594727 C86.4248568,162.616862 81.1361198,164.402669 76.0534375,164.952148 C70.9707552,165.501628 66.9870313,165.776367 64.1022656,165.776367 C63.9648958,165.776367 63.8962109,165.776367 63.8962109,165.776367 C63.7588411,165.776367 63.6901563,165.776367 63.6901563,165.776367 C56.4095573,165.776367 49.6097526,164.402669 43.2907422,161.655273 C36.9717318,158.907878 31.4769401,154.855469 26.8063672,149.498047 Z"/></svg>