<svg xmlns="http://www.w3.org/2000/svg" width="97" height="203" viewBox="0 0 97 203"><path fill="#131313" d="M2.91992188,63.6535838 C0.973307292,58.562438 0,53.2466828 0,47.7063182 C0,43.9628286 0.44921875,40.1444692 1.34765625,36.2512401 C3.59375,26.3684276 8.0859375,18.2824901 14.8242188,11.9934276 C24.1080729,3.30853175 34.2154948,-0.659567212 45.1464844,0.0891307044 C56.077474,0.688089038 64.6875,4.20696925 70.9765625,10.6457713 C72.6236979,12.2929067 73.4472656,14.2395213 73.4472656,16.4856151 C73.4472656,18.7317088 72.6236979,20.6783234 70.9765625,22.3254588 C69.3294271,23.8228547 67.3828125,24.5715526 65.1367188,24.5715526 C62.890625,24.5715526 61.0188802,23.7479849 59.5214844,22.1008495 C55.7779948,18.3573599 50.686849,16.4107453 44.2480469,16.2610057 C37.8092448,16.1112661 31.7447917,18.656839 26.0546875,23.8977245 C21.7122396,27.9406932 18.7923177,33.2564484 17.2949219,39.8449901 C15.6477865,46.2837922 15.9472656,52.1985057 18.1933594,57.5891307 C19.6907552,61.4823599 22.0865885,64.4771515 25.3808594,66.5735057 C28.5253906,68.5201203 32.5683594,69.4934276 37.5097656,69.4934276 C42.750651,69.4934276 47.5423177,68.969339 51.8847656,67.921162 C56.077474,67.0227245 59.5214844,65.6001984 62.2167969,63.6535838 C64.0136719,62.4556672 66.0351563,62.0064484 68.28125,62.3059276 C70.5273438,62.7551463 72.3242188,63.953063 73.671875,65.8996776 C74.8697917,67.6965526 75.2441406,69.718037 74.7949219,71.9641307 C74.4954427,74.0604849 73.3723958,75.7824901 71.4257812,77.1301463 C67.2330729,79.9751984 62.2916667,82.1464224 56.6015625,83.6438182 C50.9114583,84.9914745 44.547526,85.6653026 37.5097656,85.6653026 C29.2740885,85.6653026 22.1614583,83.7935578 16.171875,80.0500682 C10.1822917,76.156839 5.76497396,70.6913442 2.91992188,63.6535838 Z" transform="translate(11 56)"/></svg>