<svg xmlns="http://www.w3.org/2000/svg" width="120" height="203" viewBox="0 0 120 203"><path fill="#131313" d="M735.989414,47.0107422 C739.423659,63.0830078 740.179193,77.7815755 738.256016,91.1064453 C736.332839,104.431315 731.730951,115.558268 724.450352,124.487305 C719.917148,130.256836 714.559727,134.652669 708.378086,137.674805 C702.196445,140.69694 695.67138,142.208008 688.802891,142.208008 C682.48388,142.208008 672.93668,142.208008 660.161289,142.208008 C659.61181,142.208008 659.062331,142.208008 658.512852,142.208008 C658.100742,142.070638 657.688633,141.933268 657.276523,141.795898 C655.902826,141.109049 654.803867,140.147461 653.979648,138.911133 C653.01806,137.674805 652.537266,136.301107 652.537266,134.790039 C652.537266,106.491862 652.537266,64.0445964 652.537266,7.44824219 C652.537266,5.38769531 653.292799,3.60188802 654.803867,2.09082031 C656.314935,0.717122396 658.100742,0.0302734375 660.161289,0.0302734375 C660.573398,0.0302734375 661.054193,0.0302734375 661.603672,0.0302734375 C662.015781,0.167643229 662.496576,0.305013021 663.046055,0.442382812 C667.029779,0.167643229 671.562982,0.167643229 676.645664,0.442382812 C681.590977,0.717122396 686.673659,1.47265625 691.893711,2.70898437 C701.372227,5.18164062 710.369948,9.78352865 718.886875,16.5146484 C727.403802,23.383138 733.104648,33.5485026 735.989414,47.0107422 Z M713.989414,115.674805 C717.286289,111.553711 720.514479,104.341797 723.673984,94.0390625 C726.970859,83.7363281 726.55875,69.2438151 722.437656,50.5615234 C720.23974,39.8466797 715.775221,32.0852865 709.044102,27.2773437 C702.312982,22.3320312 695.444492,19.1038411 688.438633,17.5927734 C684.592279,16.6311849 680.951979,16.0817057 677.517734,15.9443359 C674.08349,15.6695964 671.130039,15.6009115 668.657383,15.7382812 C668.657383,40.6022135 668.657383,77.9667969 668.657383,127.832031 C673.327956,127.832031 680.4025,127.832031 689.881016,127.832031 C694.414219,127.832031 698.810052,126.801758 703.068516,124.741211 C707.189609,122.543294 710.829909,119.521159 713.989414,115.674805 Z" transform="translate(-635.537 -.528)"/></svg>