<svg xmlns="http://www.w3.org/2000/svg" width="120" height="203" viewBox="0 0 120 203"><path fill="#131313" d="M735.989414,107.482422 C739.423659,123.554687 740.179193,138.253255 738.256016,151.578125 C736.332839,164.902995 731.730951,176.029948 724.450352,184.958984 C719.917148,190.728516 714.559727,195.124349 708.378086,198.146484 C702.196445,201.16862 695.67138,202.679688 688.802891,202.679688 C682.48388,202.679688 672.93668,202.679688 660.161289,202.679688 C659.61181,202.679688 659.062331,202.679688 658.512852,202.679688 C658.100742,202.542318 657.688633,202.404948 657.276523,202.267578 C655.902826,201.580729 654.803867,200.619141 653.979648,199.382813 C653.01806,198.146484 652.537266,196.772786 652.537266,195.261719 C652.537266,166.963542 652.537266,124.516276 652.537266,67.9199219 C652.537266,65.859375 653.292799,64.0735677 654.803867,62.5625 C656.314935,61.1888021 658.100742,60.5019531 660.161289,60.5019531 C660.573398,60.5019531 661.054193,60.5019531 661.603672,60.5019531 C662.015781,60.6393229 662.496576,60.7766927 663.046055,60.9140625 C667.029779,60.6393229 671.562982,60.6393229 676.645664,60.9140625 C681.590977,61.1888021 686.673659,61.9443359 691.893711,63.1806641 C701.372227,65.6533203 710.369948,70.2552083 718.886875,76.9863281 C727.403802,83.8548177 733.104648,94.0201823 735.989414,107.482422 Z M713.989414,176.146484 C717.286289,172.025391 720.514479,164.813477 723.673984,154.510742 C726.970859,144.208008 726.55875,129.715495 722.437656,111.033203 C720.23974,100.318359 715.775221,92.5569661 709.044102,87.7490234 C702.312982,82.8037109 695.444492,79.5755208 688.438633,78.0644531 C684.592279,77.1028646 680.951979,76.5533854 677.517734,76.4160156 C674.08349,76.141276 671.130039,76.0725911 668.657383,76.2099609 C668.657383,101.073893 668.657383,138.438477 668.657383,188.303711 C673.327956,188.303711 680.4025,188.303711 689.881016,188.303711 C694.414219,188.303711 698.810052,187.273437 703.068516,185.212891 C707.189609,183.014974 710.829909,179.992839 713.989414,176.146484 Z" transform="translate(-635.537)"/></svg>