<svg xmlns="http://www.w3.org/2000/svg" width="97" height="203" viewBox="0 0 97 203"><path fill="#131313" d="M75.1450483,121.439453 C75.1450483,121.888672 75.1450483,122.263021 75.1450483,122.5625 C75.1450483,123.011719 75.1450483,123.386068 75.1450483,123.685547 C75.1450483,125.781901 75.1450483,128.851562 75.1450483,132.894531 C75.1450483,135.140625 74.3214805,137.08724 72.6743451,138.734375 C71.0272097,140.231771 69.0805951,140.980469 66.8345014,140.980469 C65.187366,140.980469 63.6151003,140.53125 62.1177045,139.632812 C60.7700483,138.584635 59.796741,137.236979 59.1977826,135.589844 C59.048043,135.739583 58.8983035,135.814453 58.7485639,135.814453 C58.5988243,135.964193 58.4490847,136.039062 58.2993451,136.039062 C55.0050743,137.686198 51.6359337,138.958984 48.1919233,139.857422 C44.8976524,140.60612 41.6033816,140.980469 38.3091108,140.980469 C33.5174441,140.980469 28.9503868,140.156901 24.6079389,138.509766 C20.265491,136.86263 16.297392,134.317057 12.703642,130.873047 C6.56431909,124.883464 2.59622013,117.621094 0.799345129,109.085937 C-0.847790288,100.401042 0.050647212,92.015625 3.49465763,83.9296875 C5.5910118,79.2877604 7.98684513,75.2447917 10.6821576,71.8007812 C13.5272097,68.5065104 16.5968712,65.7363281 19.891142,63.4902344 C26.0304649,59.4472656 32.5441368,56.9765625 39.4321576,56.078125 C46.469918,55.1796875 52.9087201,55.1048177 58.7485639,55.8535156 C58.7485639,42.077474 58.7485639,35.4882813 58.7485639,8.0859375 C58.7485639,5.83984375 59.5721316,3.89322917 61.219267,2.24609375 C62.7166628,0.748697917 64.5884076,0 66.8345014,0 C69.0805951,0 71.0272097,0.748697917 72.6743451,2.24609375 C74.3214805,3.89322917 75.1450483,5.83984375 75.1450483,8.0859375 C75.1450483,29.3489583 75.1450483,36.5371094 75.1450483,57.6503906 C75.1450483,78.9134115 75.1450483,100.176432 75.1450483,121.439453 Z M50.7695312,121.863281 C52.5664062,120.964844 54.0638021,120.216146 55.2617188,119.617188 C56.609375,119.018229 57.6575521,118.494141 58.40625,118.044922 C58.40625,108.01237 58.40625,92.9635417 58.40625,72.8984375 C56.609375,72.5989583 54.5130208,72.374349 52.1171875,72.2246094 C49.5716146,71.9251302 46.9511719,71.9251302 44.2558594,72.2246094 C37.9667969,72.8235677 32.6510417,74.6204427 28.3085938,77.6152344 C23.9661458,80.7597656 20.5970052,85.1022135 18.2011719,90.6425781 C16.1048177,95.733724 15.5058594,100.89974 16.4042969,106.140625 C17.452474,111.38151 19.8483073,115.798828 23.5917969,119.392578 C27.1855469,122.686849 31.3033854,124.558594 35.9453125,125.007813 C40.7369792,125.457031 45.6783854,124.408854 50.7695312,121.863281 Z" transform="translate(11)"/></svg>