<svg xmlns="http://www.w3.org/2000/svg" width="97" height="243" viewBox="0 0 97 243"><path fill="#131313" d="M86.1450483,145.439453 C86.1450483,145.888672 86.1450483,146.263021 86.1450483,146.5625 C86.1450483,147.011719 86.1450483,147.386068 86.1450483,147.685547 C86.1450483,149.781901 86.1450483,152.851562 86.1450483,156.894531 C86.1450483,159.140625 85.3214805,161.08724 83.6743451,162.734375 C82.0272097,164.231771 80.0805951,164.980469 77.8345014,164.980469 C76.187366,164.980469 74.6151003,164.53125 73.1177045,163.632812 C71.7700483,162.584635 70.796741,161.236979 70.1977826,159.589844 C70.048043,159.739583 69.8983035,159.814453 69.7485639,159.814453 C69.5988243,159.964193 69.4490847,160.039062 69.2993451,160.039062 C66.0050743,161.686198 62.6359337,162.958984 59.1919233,163.857422 C55.8976524,164.60612 52.6033816,164.980469 49.3091108,164.980469 C44.5174441,164.980469 39.9503868,164.156901 35.6079389,162.509766 C31.265491,160.86263 27.297392,158.317057 23.703642,154.873047 C17.5643191,148.883464 13.5962201,141.621094 11.7993451,133.085938 C10.1522097,124.401042 11.0506472,116.015625 14.4946576,107.929688 C16.5910118,103.28776 18.9868451,99.2447917 21.6821576,95.8007812 C24.5272097,92.5065104 27.5968712,89.7363281 30.891142,87.4902344 C37.0304649,83.4472656 43.5441368,80.9765625 50.4321576,80.078125 C57.469918,79.1796875 63.9087201,79.1048177 69.7485639,79.8535156 C69.7485639,66.077474 69.7485639,45.4882812 69.7485639,18.0859375 C69.7485639,15.8398438 70.5721316,13.8932292 72.219267,12.2460938 C73.7166628,10.7486979 75.5884076,10 77.8345014,10 C80.0805951,10 82.0272097,10.7486979 83.6743451,12.2460938 C85.3214805,13.8932292 86.1450483,15.8398438 86.1450483,18.0859375 C86.1450483,39.3489583 86.1450483,60.5371094 86.1450483,81.6503906 C86.1450483,102.913411 86.1450483,124.176432 86.1450483,145.439453 Z M61.7695312,145.863281 C63.5664062,144.964844 65.0638021,144.216146 66.2617188,143.617188 C67.609375,143.018229 68.6575521,142.494141 69.40625,142.044922 C69.40625,132.01237 69.40625,116.963542 69.40625,96.8984375 C67.609375,96.5989583 65.5130208,96.374349 63.1171875,96.2246094 C60.5716146,95.9251302 57.9511719,95.9251302 55.2558594,96.2246094 C48.9667969,96.8235677 43.6510417,98.6204427 39.3085938,101.615234 C34.9661458,104.759766 31.5970052,109.102214 29.2011719,114.642578 C27.1048177,119.733724 26.5058594,124.89974 27.4042969,130.140625 C28.452474,135.38151 30.8483073,139.798828 34.5917969,143.392578 C38.1855469,146.686849 42.3033854,148.558594 46.9453125,149.007812 C51.7369792,149.457031 56.6783854,148.408854 61.7695312,145.863281 Z"/></svg>