<svg xmlns="http://www.w3.org/2000/svg" width="120" height="203" viewBox="0 0 120 203"><path fill="#131313" d="M935.851445,127.832031 C937.911992,127.832031 939.697799,128.51888 941.208867,129.892578 C942.582565,131.403646 943.269414,133.189453 943.269414,135.25 C943.269414,137.310547 942.582565,139.096354 941.208867,140.607422 C939.697799,141.98112 937.911992,142.667969 935.851445,142.667969 C921.290247,142.667969 899.379766,142.667969 870.12,142.667969 C868.059453,142.667969 866.273646,141.98112 864.762578,140.607422 C863.25151,139.096354 862.495977,137.310547 862.495977,135.25 C862.495977,106.951823 862.495977,64.5045573 862.495977,7.90820313 C862.495977,5.84765625 863.25151,4.06184896 864.762578,2.55078125 C866.273646,1.17708333 868.059453,0.490234375 870.12,0.490234375 C884.269089,0.490234375 905.561406,0.490234375 933.996953,0.490234375 C936.0575,0.490234375 937.774622,1.17708333 939.14832,2.55078125 C940.659388,4.06184896 941.414922,5.84765625 941.414922,7.90820313 C941.414922,9.96875 940.659388,11.6858724 939.14832,13.0595703 C937.774622,14.570638 936.0575,15.3261719 933.996953,15.3261719 C921.358932,15.3261719 902.539271,15.3261719 877.537969,15.3261719 C877.537969,26.1783854 877.537969,42.4567057 877.537969,64.1611328 C889.489141,64.1611328 907.347214,64.1611328 931.112188,64.1611328 C933.172734,64.1611328 934.958542,64.8479818 936.469609,66.2216797 C937.980677,67.7327474 938.736211,69.5185547 938.736211,71.5791016 C938.736211,73.6396484 937.980677,75.4254557 936.469609,76.9365234 C934.958542,78.3102214 933.172734,78.9970703 931.112188,78.9970703 C919.298385,78.9970703 901.440313,78.9970703 877.537969,78.9970703 C877.537969,89.8492839 877.537969,106.127604 877.537969,127.832031 C887.291224,127.832031 897.044479,127.832031 906.797734,127.832031 C916.41362,127.832031 926.09819,127.832031 935.851445,127.832031 Z" transform="translate(-842.537 -.528)"/></svg>