<svg xmlns="http://www.w3.org/2000/svg" width="120" height="243" viewBox="0 0 120 243"><path fill="#131313" d="M93.3141797,151.303711 C95.3747266,151.303711 97.1605339,151.99056 98.6716016,153.364258 C100.045299,154.875326 100.732148,156.661133 100.732148,158.72168 C100.732148,160.782227 100.045299,162.568034 98.6716016,164.079102 C97.1605339,165.452799 95.3747266,166.139648 93.3141797,166.139648 C78.7529818,166.139648 56.8425,166.139648 27.5827344,166.139648 C25.5221875,166.139648 23.7363802,165.452799 22.2253125,164.079102 C20.7142448,162.568034 19.9587109,160.782227 19.9587109,158.72168 C19.9587109,130.423503 19.9587109,87.976237 19.9587109,31.3798828 C19.9587109,29.3193359 20.7142448,27.5335286 22.2253125,26.0224609 C23.7363802,24.648763 25.5221875,23.9619141 27.5827344,23.9619141 C41.7318229,23.9619141 63.0241406,23.9619141 91.4596875,23.9619141 C93.5202344,23.9619141 95.2373568,24.648763 96.6110547,26.0224609 C98.1221224,27.5335286 98.8776563,29.3193359 98.8776563,31.3798828 C98.8776563,33.4404297 98.1221224,35.1575521 96.6110547,36.53125 C95.2373568,38.0423177 93.5202344,38.7978516 91.4596875,38.7978516 C78.8216667,38.7978516 60.0020052,38.7978516 35.0007031,38.7978516 C35.0007031,49.6500651 35.0007031,65.9283854 35.0007031,87.6328125 C46.951875,87.6328125 64.8099479,87.6328125 88.5749219,87.6328125 C90.6354688,87.6328125 92.421276,88.3196615 93.9323438,89.6933594 C95.4434115,91.2044271 96.1989453,92.9902344 96.1989453,95.0507812 C96.1989453,97.1113281 95.4434115,98.8971354 93.9323438,100.408203 C92.421276,101.781901 90.6354688,102.46875 88.5749219,102.46875 C76.7611198,102.46875 58.9030469,102.46875 35.0007031,102.46875 C35.0007031,113.320964 35.0007031,129.599284 35.0007031,151.303711 C44.7539583,151.303711 54.5072135,151.303711 64.2604688,151.303711 C73.8763542,151.303711 83.5609245,151.303711 93.3141797,151.303711 Z"/></svg>