<svg xmlns="http://www.w3.org/2000/svg" width="120" height="203" viewBox="0 0 120 203"><path fill="#131313" d="M935.851445,188.303711 C937.911992,188.303711 939.697799,188.99056 941.208867,190.364258 C942.582565,191.875326 943.269414,193.661133 943.269414,195.72168 C943.269414,197.782227 942.582565,199.568034 941.208867,201.079102 C939.697799,202.452799 937.911992,203.139648 935.851445,203.139648 C921.290247,203.139648 899.379766,203.139648 870.12,203.139648 C868.059453,203.139648 866.273646,202.452799 864.762578,201.079102 C863.25151,199.568034 862.495977,197.782227 862.495977,195.72168 C862.495977,167.423503 862.495977,124.976237 862.495977,68.3798828 C862.495977,66.3193359 863.25151,64.5335286 864.762578,63.0224609 C866.273646,61.648763 868.059453,60.9619141 870.12,60.9619141 C884.269089,60.9619141 905.561406,60.9619141 933.996953,60.9619141 C936.0575,60.9619141 937.774622,61.648763 939.14832,63.0224609 C940.659388,64.5335286 941.414922,66.3193359 941.414922,68.3798828 C941.414922,70.4404297 940.659388,72.1575521 939.14832,73.53125 C937.774622,75.0423177 936.0575,75.7978516 933.996953,75.7978516 C921.358932,75.7978516 902.539271,75.7978516 877.537969,75.7978516 C877.537969,86.6500651 877.537969,102.928385 877.537969,124.632813 C889.489141,124.632813 907.347214,124.632813 931.112187,124.632813 C933.172734,124.632813 934.958542,125.319661 936.469609,126.693359 C937.980677,128.204427 938.736211,129.990234 938.736211,132.050781 C938.736211,134.111328 937.980677,135.897135 936.469609,137.408203 C934.958542,138.781901 933.172734,139.46875 931.112187,139.46875 C919.298385,139.46875 901.440312,139.46875 877.537969,139.46875 C877.537969,150.320964 877.537969,166.599284 877.537969,188.303711 C887.291224,188.303711 897.044479,188.303711 906.797734,188.303711 C916.41362,188.303711 926.09819,188.303711 935.851445,188.303711 Z" transform="translate(-842.537)"/></svg>