<svg xmlns="http://www.w3.org/2000/svg" width="95" height="203" viewBox="0 0 95 203"><path fill="#131313" d="M3.59375,66.4202009 C2.84505208,64.4735863 2.17122396,62.4521019 1.57226563,60.3557478 C0.973307292,58.2593936 0.598958333,56.0881696 0.44921875,53.8420759 C0.299479167,53.6923363 0.224609375,53.5425967 0.224609375,53.3928571 C0.224609375,53.2431176 0.224609375,53.093378 0.224609375,52.9436384 C0.0748697917,51.296503 0,49.6493676 0,48.0022321 C0,42.6116071 0.823567708,37.0712426 2.47070312,31.3811384 C4.71679688,24.1936384 8.16080729,18.1291853 12.8027344,13.187779 C17.2949219,8.39611235 22.5358073,4.80236235 28.5253906,2.40652902 C34.514974,0.160435268 40.4296875,-0.513392857 46.2695312,0.385044643 C50.4622396,1.13374256 54.2057292,2.63113839 57.5,4.87723214 C60.6445313,7.27306548 63.0403646,10.2678571 64.6875,13.8616071 C66.7838542,18.0543155 67.6822917,22.4716332 67.3828125,27.1135603 C67.0833333,31.6057478 65.6608073,35.7984561 63.1152344,39.6916853 C60.8691406,43.2854353 56.4518229,47.328404 49.8632812,51.8205915 C43.2747396,56.312779 32.8678385,59.1578311 18.6425781,60.3557478 C20.139974,63.3505394 22.0865885,65.671503 24.4824219,67.3186384 C26.8782552,68.8160342 29.8730469,69.5647321 33.4667969,69.5647321 C39.0071615,69.5647321 43.7988281,68.8160342 47.8417969,67.3186384 C51.8847656,65.8212426 56.1523437,62.4521019 60.6445313,57.2112165 C62.1419271,55.5640811 64.0136719,54.6656436 66.2597656,54.515904 C68.5058594,54.3661644 70.452474,55.0399926 72.0996094,56.5373884 C73.8964844,58.0347842 74.8697917,59.906529 75.0195313,62.1526228 C75.1692708,64.3987165 74.4954427,66.3453311 72.9980469,67.9924665 C66.5592448,75.3297061 60.1953125,80.1213728 53.90625,82.3674665 C47.4674479,84.6135603 40.6542969,85.7366071 33.4667969,85.7366071 C26.578776,85.7366071 20.5891927,84.0894717 15.4980469,80.7952009 C10.2571615,77.3511905 6.2890625,72.5595238 3.59375,66.4202009 Z M28.3105469,23.8613281 C26.0644531,26.406901 24.1927083,29.4016927 22.6953125,32.8457031 C21.3476562,36.4394531 20.4492188,40.1080729 20,43.8515625 C28.2356771,43.2526042 35.1985677,41.8300781 40.8886719,39.5839844 C46.578776,37.3378906 50.6217448,34.343099 53.0175781,30.5996094 C54.0657552,28.952474 54.6647135,27.3053385 54.8144531,25.6582031 C54.8144531,23.8613281 54.4401042,22.0644531 53.6914062,20.2675781 C53.0924479,19.219401 52.2688802,18.3209635 51.2207031,17.5722656 C50.172526,16.9733073 48.8997396,16.5240885 47.4023438,16.2246094 C47.1028646,16.2246094 46.7285156,16.1497396 46.2792969,16 C45.9798177,16 45.6054688,16 45.15625,16 C42.6106771,16 39.8404948,16.5989583 36.8457031,17.796875 C33.7011719,19.1445313 30.8561198,21.1660156 28.3105469,23.8613281 Z" transform="translate(10 56)"/></svg>