<svg xmlns="http://www.w3.org/2000/svg" width="95" height="203" viewBox="0 0 95 203"><path fill="#131313" d="M1018.59375,183.420201 C1017.84505,181.473586 1017.17122,179.452102 1016.57227,177.355748 C1015.97331,175.259394 1015.59896,173.08817 1015.44922,170.842076 C1015.29948,170.692336 1015.22461,170.542597 1015.22461,170.392857 C1015.22461,170.243118 1015.22461,170.093378 1015.22461,169.943638 C1015.07487,168.296503 1015,166.649368 1015,165.002232 C1015,159.611607 1015.82357,154.071243 1017.4707,148.381138 C1019.7168,141.193638 1023.16081,135.129185 1027.80273,130.187779 C1032.29492,125.396112 1037.53581,121.802362 1043.52539,119.406529 C1049.51497,117.160435 1055.42969,116.486607 1061.26953,117.385045 C1065.46224,118.133743 1069.20573,119.631138 1072.5,121.877232 C1075.64453,124.273065 1078.04036,127.267857 1079.6875,130.861607 C1081.78385,135.054315 1082.68229,139.471633 1082.38281,144.11356 C1082.08333,148.605748 1080.66081,152.798456 1078.11523,156.691685 C1075.86914,160.285435 1071.45182,164.328404 1064.86328,168.820592 C1058.27474,173.312779 1047.86784,176.157831 1033.64258,177.355748 C1035.13997,180.350539 1037.08659,182.671503 1039.48242,184.318638 C1041.87826,185.816034 1044.87305,186.564732 1048.4668,186.564732 C1054.00716,186.564732 1058.79883,185.816034 1062.8418,184.318638 C1066.88477,182.821243 1071.15234,179.452102 1075.64453,174.211217 C1077.14193,172.564081 1079.01367,171.665644 1081.25977,171.515904 C1083.50586,171.366164 1085.45247,172.039993 1087.09961,173.537388 C1088.89648,175.034784 1089.86979,176.906529 1090.01953,179.152623 C1090.16927,181.398717 1089.49544,183.345331 1087.99805,184.992467 C1081.55924,192.329706 1075.19531,197.121373 1068.90625,199.367467 C1062.46745,201.61356 1055.6543,202.736607 1048.4668,202.736607 C1041.57878,202.736607 1035.58919,201.089472 1030.49805,197.795201 C1025.25716,194.35119 1021.28906,189.559524 1018.59375,183.420201 Z M1043.31055,140.861328 C1041.06445,143.406901 1039.19271,146.401693 1037.69531,149.845703 C1036.34766,153.439453 1035.44922,157.108073 1035,160.851562 C1043.23568,160.252604 1050.19857,158.830078 1055.88867,156.583984 C1061.57878,154.337891 1065.62174,151.343099 1068.01758,147.599609 C1069.06576,145.952474 1069.66471,144.305339 1069.81445,142.658203 C1069.81445,140.861328 1069.4401,139.064453 1068.69141,137.267578 C1068.09245,136.219401 1067.26888,135.320964 1066.2207,134.572266 C1065.17253,133.973307 1063.89974,133.524089 1062.40234,133.224609 C1062.10286,133.224609 1061.72852,133.14974 1061.2793,133 C1060.97982,133 1060.60547,133 1060.15625,133 C1057.61068,133 1054.84049,133.598958 1051.8457,134.796875 C1048.70117,136.144531 1045.85612,138.166016 1043.31055,140.861328 Z" transform="translate(-1005)"/></svg>