<svg xmlns="http://www.w3.org/2000/svg" width="95" height="243" viewBox="0 0 95 243"><path fill="#131313" d="M13.59375,146.420201 C12.8450521,144.473586 12.171224,142.452102 11.5722656,140.355748 C10.9733073,138.259394 10.5989583,136.08817 10.4492188,133.842076 C10.2994792,133.692336 10.2246094,133.542597 10.2246094,133.392857 C10.2246094,133.243118 10.2246094,133.093378 10.2246094,132.943638 C10.0748698,131.296503 10,129.649368 10,128.002232 C10,122.611607 10.8235677,117.071243 12.4707031,111.381138 C14.7167969,104.193638 18.1608073,98.1291853 22.8027344,93.187779 C27.2949219,88.3961124 32.5358073,84.8023624 38.5253906,82.406529 C44.514974,80.1604353 50.4296875,79.4866071 56.2695312,80.3850446 C60.4622396,81.1337426 64.2057292,82.6311384 67.5,84.8772321 C70.6445312,87.2730655 73.0403646,90.2678571 74.6875,93.8616071 C76.7838542,98.0543155 77.6822917,102.471633 77.3828125,107.11356 C77.0833333,111.605748 75.6608073,115.798456 73.1152344,119.691685 C70.8691406,123.285435 66.4518229,127.328404 59.8632812,131.820592 C53.2747396,136.312779 42.8678385,139.157831 28.6425781,140.355748 C30.139974,143.350539 32.0865885,145.671503 34.4824219,147.318638 C36.8782552,148.816034 39.8730469,149.564732 43.4667969,149.564732 C49.0071615,149.564732 53.7988281,148.816034 57.8417969,147.318638 C61.8847656,145.821243 66.1523438,142.452102 70.6445312,137.211217 C72.1419271,135.564081 74.0136719,134.665644 76.2597656,134.515904 C78.5058594,134.366164 80.452474,135.039993 82.0996094,136.537388 C83.8964844,138.034784 84.8697917,139.906529 85.0195312,142.152623 C85.1692708,144.398717 84.4954427,146.345331 82.9980469,147.992467 C76.5592448,155.329706 70.1953125,160.121373 63.90625,162.367467 C57.4674479,164.61356 50.6542969,165.736607 43.4667969,165.736607 C36.578776,165.736607 30.5891927,164.089472 25.4980469,160.795201 C20.2571615,157.35119 16.2890625,152.559524 13.59375,146.420201 Z M38.3105469,103.861328 C36.0644531,106.406901 34.1927083,109.401693 32.6953125,112.845703 C31.3476562,116.439453 30.4492188,120.108073 30,123.851562 C38.2356771,123.252604 45.1985677,121.830078 50.8886719,119.583984 C56.578776,117.337891 60.6217448,114.343099 63.0175781,110.599609 C64.0657552,108.952474 64.6647135,107.305339 64.8144531,105.658203 C64.8144531,103.861328 64.4401042,102.064453 63.6914062,100.267578 C63.0924479,99.219401 62.2688802,98.3209635 61.2207031,97.5722656 C60.172526,96.9733073 58.8997396,96.5240885 57.4023438,96.2246094 C57.1028646,96.2246094 56.7285156,96.1497396 56.2792969,96 C55.9798177,96 55.6054688,96 55.15625,96 C52.6106771,96 49.8404948,96.5989583 46.8457031,97.796875 C43.7011719,99.1445312 40.8561198,101.166016 38.3105469,103.861328 Z"/></svg>