<svg xmlns="http://www.w3.org/2000/svg" width="120" height="243" viewBox="0 0 120 243"><path fill="#131313" d="M92.7525391,38.7978516 C79.8397786,38.7978516 60.4019531,38.7978516 34.4390625,38.7978516 C34.4390625,49.6500651 34.4390625,65.9283854 34.4390625,87.6328125 C46.8023438,87.6328125 65.3472656,87.6328125 90.0738281,87.6328125 C92.134375,87.6328125 93.8514974,88.3196615 95.2251953,89.6933594 C96.736263,91.2044271 97.4917969,92.9902344 97.4917969,95.0507812 C97.4917969,97.1113281 96.736263,98.8971354 95.2251953,100.408203 C93.8514974,101.781901 92.134375,102.46875 90.0738281,102.46875 C77.7105469,102.46875 59.165625,102.46875 34.4390625,102.46875 C34.4390625,114.969401 34.4390625,133.720378 34.4390625,158.72168 C34.4390625,160.782227 33.7522135,162.568034 32.3785156,164.079102 C30.8674479,165.452799 29.0816406,166.139648 27.0210938,166.139648 C24.9605469,166.139648 23.1747396,165.452799 21.6636719,164.079102 C20.289974,162.568034 19.603125,160.782227 19.603125,158.72168 C19.603125,130.423503 19.603125,87.976237 19.603125,31.3798828 C19.603125,29.3193359 20.289974,27.5335286 21.6636719,26.0224609 C23.1747396,24.648763 24.9605469,23.9619141 27.0210938,23.9619141 C41.5822917,23.9619141 63.4927734,23.9619141 92.7525391,23.9619141 C94.8130859,23.9619141 96.5988932,24.648763 98.1099609,26.0224609 C99.6210286,27.5335286 100.376563,29.3193359 100.376563,31.3798828 C100.376563,33.4404297 99.6210286,35.1575521 98.1099609,36.53125 C96.5988932,38.0423177 94.8130859,38.7978516 92.7525391,38.7978516 Z"/></svg>