<svg xmlns="http://www.w3.org/2000/svg" width="120" height="203" viewBox="0 0 120 203"><path fill="#131313" d="M1143.25254,15.3261719 C1130.33978,15.3261719 1110.90195,15.3261719 1084.93906,15.3261719 C1084.93906,26.1783854 1084.93906,42.4567057 1084.93906,64.1611328 C1097.30234,64.1611328 1115.84727,64.1611328 1140.57383,64.1611328 C1142.63438,64.1611328 1144.3515,64.8479818 1145.7252,66.2216797 C1147.23626,67.7327474 1147.9918,69.5185547 1147.9918,71.5791016 C1147.9918,73.6396484 1147.23626,75.4254557 1145.7252,76.9365234 C1144.3515,78.3102214 1142.63438,78.9970703 1140.57383,78.9970703 C1128.21055,78.9970703 1109.66563,78.9970703 1084.93906,78.9970703 C1084.93906,91.4977214 1084.93906,110.248698 1084.93906,135.25 C1084.93906,137.310547 1084.25221,139.096354 1082.87852,140.607422 C1081.36745,141.98112 1079.58164,142.667969 1077.52109,142.667969 C1075.46055,142.667969 1073.67474,141.98112 1072.16367,140.607422 C1070.78997,139.096354 1070.10313,137.310547 1070.10313,135.25 C1070.10313,106.951823 1070.10313,64.5045573 1070.10313,7.90820313 C1070.10313,5.84765625 1070.78997,4.06184896 1072.16367,2.55078125 C1073.67474,1.17708333 1075.46055,0.490234375 1077.52109,0.490234375 C1092.08229,0.490234375 1113.99277,0.490234375 1143.25254,0.490234375 C1145.31309,0.490234375 1147.09889,1.17708333 1148.60996,2.55078125 C1150.12103,4.06184896 1150.87656,5.84765625 1150.87656,7.90820313 C1150.87656,9.96875 1150.12103,11.6858724 1148.60996,13.0595703 C1147.09889,14.570638 1145.31309,15.3261719 1143.25254,15.3261719 Z" transform="translate(-1050.5 -.528)"/></svg>