<svg xmlns="http://www.w3.org/2000/svg" width="120" height="203" viewBox="0 0 120 203"><path fill="#131313" d="M1143.25254,75.7978516 C1130.33978,75.7978516 1110.90195,75.7978516 1084.93906,75.7978516 C1084.93906,86.6500651 1084.93906,102.928385 1084.93906,124.632813 C1097.30234,124.632813 1115.84727,124.632813 1140.57383,124.632813 C1142.63438,124.632813 1144.3515,125.319661 1145.7252,126.693359 C1147.23626,128.204427 1147.9918,129.990234 1147.9918,132.050781 C1147.9918,134.111328 1147.23626,135.897135 1145.7252,137.408203 C1144.3515,138.781901 1142.63438,139.46875 1140.57383,139.46875 C1128.21055,139.46875 1109.66563,139.46875 1084.93906,139.46875 C1084.93906,151.969401 1084.93906,170.720378 1084.93906,195.72168 C1084.93906,197.782227 1084.25221,199.568034 1082.87852,201.079102 C1081.36745,202.452799 1079.58164,203.139648 1077.52109,203.139648 C1075.46055,203.139648 1073.67474,202.452799 1072.16367,201.079102 C1070.78997,199.568034 1070.10313,197.782227 1070.10313,195.72168 C1070.10313,167.423503 1070.10313,124.976237 1070.10313,68.3798828 C1070.10313,66.3193359 1070.78997,64.5335286 1072.16367,63.0224609 C1073.67474,61.648763 1075.46055,60.9619141 1077.52109,60.9619141 C1092.08229,60.9619141 1113.99277,60.9619141 1143.25254,60.9619141 C1145.31309,60.9619141 1147.09889,61.648763 1148.60996,63.0224609 C1150.12103,64.5335286 1150.87656,66.3193359 1150.87656,68.3798828 C1150.87656,70.4404297 1150.12103,72.1575521 1148.60996,73.53125 C1147.09889,75.0423177 1145.31309,75.7978516 1143.25254,75.7978516 Z" transform="translate(-1050.5)"/></svg>