<svg xmlns="http://www.w3.org/2000/svg" width="89" height="203" viewBox="0 0 89 203"><path fill="#131313" d="M1323.19531,116.404297 C1325.44141,116.404297 1327.38802,117.152995 1329.03516,118.650391 C1330.53255,120.297526 1331.28125,122.244141 1331.28125,124.490234 C1331.28125,126.736328 1330.53255,128.682943 1329.03516,130.330078 C1327.38802,131.827474 1325.44141,132.576172 1323.19531,132.576172 C1317.95443,132.576172 1310.0931,132.576172 1299.61133,132.576172 C1299.61133,146.202474 1299.61133,166.641927 1299.61133,193.894531 C1299.61133,196.140625 1298.78776,198.08724 1297.14062,199.734375 C1295.49349,201.231771 1293.54688,201.980469 1291.30078,201.980469 C1289.05469,201.980469 1287.18294,201.231771 1285.68555,199.734375 C1284.03841,198.08724 1283.21484,196.140625 1283.21484,193.894531 C1283.21484,180.268229 1283.21484,159.828776 1283.21484,132.576172 C1280.51953,132.576172 1276.47656,132.576172 1271.08594,132.576172 C1268.83984,132.576172 1266.89323,131.827474 1265.24609,130.330078 C1263.7487,128.682943 1263,126.736328 1263,124.490234 C1263,122.244141 1263.7487,120.297526 1265.24609,118.650391 C1266.89323,117.152995 1268.83984,116.404297 1271.08594,116.404297 C1273.78125,116.404297 1277.82422,116.404297 1283.21484,116.404297 C1283.21484,106.222005 1283.21484,105.023438 1283.21484,84.8085938 C1283.21484,78.2200521 1285.53581,72.6048177 1290.17773,67.9628906 C1294.9694,63.3209635 1300.65951,61 1307.24805,61 C1307.24805,61 1307.32292,61 1307.47266,61 C1310.61719,61 1313.68685,61.5989583 1316.68164,62.796875 C1319.52669,63.9947917 1322.07227,65.7167969 1324.31836,67.9628906 C1325.96549,69.4602865 1326.78906,71.3320313 1326.78906,73.578125 C1326.78906,75.8242188 1325.96549,77.7708333 1324.31836,79.4179688 C1322.82096,81.0651042 1320.94922,81.8886719 1318.70312,81.8886719 C1316.45703,81.8886719 1314.51042,81.0651042 1312.86328,79.4179688 C1312.11458,78.6692708 1311.29102,78.1451823 1310.39258,77.8457031 C1309.49414,77.3964844 1308.52083,77.171875 1307.47266,77.171875 C1307.47266,77.171875 1307.39779,77.171875 1307.24805,77.171875 C1305.15169,77.171875 1303.35482,77.9205729 1301.85742,79.4179688 C1300.36003,80.9153646 1299.61133,82.7122396 1299.61133,84.8085938 C1299.61133,94.9908854 1299.61133,96.1894531 1299.61133,116.404297 C1303.50456,116.404297 1307.47266,116.404297 1311.51562,116.404297 C1315.40885,116.404297 1319.30208,116.404297 1323.19531,116.404297 Z" transform="translate(-1253)"/></svg>