<svg xmlns="http://www.w3.org/2000/svg" width="120" height="203" viewBox="0 0 120 203"><path fill="#131313" d="M1373.07746,70.0097656 C1375.13801,70.0097656 1376.85513,70.7652995 1378.22883,72.2763672 C1379.7399,73.7874349 1380.49543,75.5732422 1380.49543,77.6337891 C1380.49543,90.2718099 1380.49543,109.366211 1380.49543,134.916992 C1380.49543,136.977539 1379.7399,138.763346 1378.22883,140.274414 C1376.85513,141.648112 1375.13801,142.334961 1373.07746,142.334961 C1371.01691,142.334961 1369.23111,141.648112 1367.72004,140.274414 C1366.20897,138.763346 1365.45344,136.977539 1365.45344,134.916992 C1365.45344,133.405924 1365.45344,131.208008 1365.45344,128.323242 C1359.82128,134.779622 1353.91438,138.694661 1347.73273,140.068359 C1341.55109,141.579427 1337.36132,142.334961 1335.1634,142.334961 C1335.02603,142.334961 1334.95734,142.334961 1334.95734,142.334961 C1334.81997,142.334961 1334.75129,142.334961 1334.75129,142.334961 C1327.47069,142.334961 1320.67089,140.961263 1314.35188,138.213867 C1308.17023,135.466471 1302.67544,131.414063 1297.8675,126.056641 C1291.41112,118.776042 1286.87792,109.77832 1284.26789,99.0634766 C1282.61945,92.3323568 1281.79523,85.2578125 1281.79523,77.8398438 C1281.79523,73.4440104 1282.06997,68.9794922 1282.61945,64.4462891 C1283.85578,54.8304036 1286.12238,46.038737 1289.41926,38.0712891 C1292.57876,29.9664714 1296.69986,23.0292969 1301.78254,17.2597656 C1306.45311,11.764974 1311.74185,7.50651042 1317.64875,4.484375 C1323.41828,1.59960938 1329.2565,0.157226562 1335.1634,0.157226562 C1339.42186,0.157226562 1344.98534,0.775390625 1351.85383,2.01171875 C1358.85969,3.38541667 1365.1787,6.61360677 1370.81086,11.6962891 C1372.32193,13.069987 1373.14615,14.7871094 1373.28352,16.8476562 C1373.28352,18.9082031 1372.59667,20.6940104 1371.22297,22.2050781 C1369.84927,23.7161458 1368.13215,24.5403646 1366.0716,24.6777344 C1364.01105,24.8151042 1362.22525,24.1969401 1360.71418,22.8232422 C1356.86783,19.2516276 1352.26594,17.0537109 1346.90852,16.2294922 C1341.55109,15.4052734 1337.63605,14.9931641 1335.1634,14.9931641 C1328.56965,14.9931641 1322.66275,17.4658203 1317.4427,22.4111328 C1312.22264,27.3564453 1307.96418,33.469401 1304.6673,40.75 C1302.8815,44.733724 1301.37043,48.9235026 1300.1341,53.3193359 C1298.89777,57.5777995 1298.00487,61.9049479 1297.45539,66.3007813 C1296.21906,76.4661458 1296.56249,85.9446615 1298.48566,94.7363281 C1300.54621,103.390625 1304.04914,110.465169 1308.99445,115.959961 C1312.4287,119.806315 1316.34374,122.691081 1320.73957,124.614258 C1325.1354,126.537435 1329.87466,127.499023 1334.95734,127.499023 C1337.15526,127.499023 1340.52082,126.74349 1345.05402,125.232422 C1349.58723,123.721354 1353.70832,120.081055 1357.4173,114.311523 C1359.34048,111.152018 1361.0576,107.168294 1362.56867,102.360352 C1363.94237,97.6897786 1364.83527,91.9202474 1365.24738,85.0517578 C1360.30207,85.0517578 1352.95279,85.0517578 1343.19953,85.0517578 C1341.13898,85.0517578 1339.35318,84.296224 1337.84211,82.7851562 C1336.33104,81.4114583 1335.57551,79.6943359 1335.57551,77.6337891 C1335.57551,75.5732422 1336.33104,73.7874349 1337.84211,72.2763672 C1339.35318,70.7652995 1341.13898,70.0097656 1343.19953,70.0097656 C1348.14484,70.0097656 1353.09016,70.0097656 1358.03547,70.0097656 C1363.11815,70.0097656 1368.13215,70.0097656 1373.07746,70.0097656 Z" transform="translate(-1271.5 -.528)"/></svg>