<svg xmlns="http://www.w3.org/2000/svg" width="120" height="203" viewBox="0 0 120 203"><path fill="#131313" d="M1373.07746,130.481445 C1375.13801,130.481445 1376.85513,131.236979 1378.22883,132.748047 C1379.7399,134.259115 1380.49543,136.044922 1380.49543,138.105469 C1380.49543,150.74349 1380.49543,169.837891 1380.49543,195.388672 C1380.49543,197.449219 1379.7399,199.235026 1378.22883,200.746094 C1376.85513,202.119792 1375.13801,202.806641 1373.07746,202.806641 C1371.01691,202.806641 1369.23111,202.119792 1367.72004,200.746094 C1366.20897,199.235026 1365.45344,197.449219 1365.45344,195.388672 C1365.45344,193.877604 1365.45344,191.679688 1365.45344,188.794922 C1359.82128,195.251302 1353.91438,199.166341 1347.73273,200.540039 C1341.55109,202.051107 1337.36132,202.806641 1335.1634,202.806641 C1335.02603,202.806641 1334.95734,202.806641 1334.95734,202.806641 C1334.81997,202.806641 1334.75129,202.806641 1334.75129,202.806641 C1327.47069,202.806641 1320.67089,201.432943 1314.35188,198.685547 C1308.17023,195.938151 1302.67544,191.885742 1297.8675,186.52832 C1291.41112,179.247721 1286.87792,170.25 1284.26789,159.535156 C1282.61945,152.804036 1281.79523,145.729492 1281.79523,138.311523 C1281.79523,133.91569 1282.06997,129.451172 1282.61945,124.917969 C1283.85578,115.302083 1286.12238,106.510417 1289.41926,98.5429688 C1292.57876,90.438151 1296.69986,83.5009766 1301.78254,77.7314453 C1306.45311,72.2366536 1311.74185,67.9781901 1317.64875,64.9560547 C1323.41828,62.0712891 1329.2565,60.6289062 1335.1634,60.6289062 C1339.42186,60.6289062 1344.98534,61.2470703 1351.85383,62.4833984 C1358.85969,63.8570964 1365.1787,67.0852865 1370.81086,72.1679688 C1372.32193,73.5416667 1373.14615,75.2587891 1373.28352,77.3193359 C1373.28352,79.3798828 1372.59667,81.1656901 1371.22297,82.6767578 C1369.84927,84.1878255 1368.13215,85.0120443 1366.0716,85.1494141 C1364.01105,85.2867839 1362.22525,84.6686198 1360.71418,83.2949219 C1356.86783,79.7233073 1352.26594,77.5253906 1346.90852,76.7011719 C1341.55109,75.8769531 1337.63605,75.4648438 1335.1634,75.4648438 C1328.56965,75.4648438 1322.66275,77.9375 1317.4427,82.8828125 C1312.22264,87.828125 1307.96418,93.9410807 1304.6673,101.22168 C1302.8815,105.205404 1301.37043,109.395182 1300.1341,113.791016 C1298.89777,118.049479 1298.00487,122.376628 1297.45539,126.772461 C1296.21906,136.937826 1296.56249,146.416341 1298.48566,155.208008 C1300.54621,163.862305 1304.04914,170.936849 1308.99445,176.431641 C1312.4287,180.277995 1316.34374,183.16276 1320.73957,185.085938 C1325.1354,187.009115 1329.87466,187.970703 1334.95734,187.970703 C1337.15526,187.970703 1340.52082,187.215169 1345.05402,185.704102 C1349.58723,184.193034 1353.70832,180.552734 1357.4173,174.783203 C1359.34048,171.623698 1361.0576,167.639974 1362.56867,162.832031 C1363.94237,158.161458 1364.83527,152.391927 1365.24738,145.523437 C1360.30207,145.523437 1352.95279,145.523437 1343.19953,145.523437 C1341.13898,145.523437 1339.35318,144.767904 1337.84211,143.256836 C1336.33104,141.883138 1335.57551,140.166016 1335.57551,138.105469 C1335.57551,136.044922 1336.33104,134.259115 1337.84211,132.748047 C1339.35318,131.236979 1341.13898,130.481445 1343.19953,130.481445 C1348.14484,130.481445 1353.09016,130.481445 1358.03547,130.481445 C1363.11815,130.481445 1368.13215,130.481445 1373.07746,130.481445 Z" transform="translate(-1271.5)"/></svg>