<svg xmlns="http://www.w3.org/2000/svg" width="99" height="203" viewBox="0 0 99 203"><path fill="#131313" d="M1578.01953,181.660807 C1578.01953,182.259766 1578.01953,182.708984 1578.01953,183.008464 C1578.01953,183.457682 1578.01953,183.906901 1578.01953,184.35612 C1578.01953,194.238932 1578.01953,192.913411 1578.01953,212.379557 C1578.01953,226.754557 1575.92318,237.535807 1571.73047,244.723307 C1567.53776,251.910807 1562.74609,256.852214 1557.35547,259.547526 C1554.36068,261.044922 1551.44076,262.018229 1548.5957,262.467448 C1545.60091,263.066406 1542.9056,263.365885 1540.50977,263.365885 C1533.32227,263.365885 1526.73372,261.494141 1520.74414,257.750651 C1514.75456,254.007161 1510.11263,248.841146 1506.81836,242.252604 C1505.91992,240.30599 1505.77018,238.284505 1506.36914,236.188151 C1507.11784,233.942057 1508.54036,232.369792 1510.63672,231.471354 C1512.58333,230.423177 1514.67969,230.273438 1516.92578,231.022135 C1519.02214,231.770833 1520.51953,233.11849 1521.41797,235.065104 C1523.21484,238.808594 1525.83529,241.728516 1529.2793,243.82487 C1532.72331,245.921224 1536.4668,246.969401 1540.50977,246.969401 C1541.55794,246.969401 1542.83073,246.894531 1544.32813,246.744792 C1545.82552,246.744792 1547.39779,246.370443 1549.04492,245.621745 C1552.18945,244.124349 1555.10938,241.054688 1557.80469,236.41276 C1560.35026,231.621094 1561.62305,223.610026 1561.62305,212.379557 C1561.62305,205.341797 1561.62305,210.710286 1561.62305,196.485026 C1561.62305,196.485026 1561.54818,196.485026 1561.39844,196.485026 C1553.16276,200.677734 1545.00195,202.25 1536.91602,201.201823 C1528.83008,200.303385 1521.79232,197.009115 1515.80273,191.31901 C1509.51367,185.479167 1505.54557,178.216797 1503.89844,169.531901 C1502.10156,160.847005 1503,152.386719 1506.59375,144.151042 C1509.88802,136.364583 1514.60482,130.150391 1520.74414,125.508464 C1526.88346,120.716797 1534.14583,117.647135 1542.53125,116.299479 C1546.8737,115.700521 1551.21615,116 1555.55859,117.197917 C1559.7513,118.395833 1563.56966,120.492188 1567.01367,123.486979 C1570.45768,126.332031 1573.15299,129.850911 1575.09961,134.04362 C1577.04622,138.236328 1578.01953,142.578776 1578.01953,147.070964 C1578.01953,152.910807 1578.01953,158.675781 1578.01953,164.365885 C1578.01953,170.205729 1578.01953,175.970703 1578.01953,181.660807 Z M1553.88932,182.638672 C1555.6862,181.740234 1557.18359,180.991536 1558.38151,180.392578 C1559.57943,179.79362 1560.55273,179.269531 1561.30143,178.820313 C1561.30143,171.932292 1561.30143,161.60026 1561.30143,147.824219 C1561.30143,145.578125 1560.85221,143.481771 1559.95378,141.535156 C1559.05534,139.588542 1557.78255,137.941406 1556.13542,136.59375 C1554.78776,135.395833 1553.36523,134.497396 1551.86784,133.898438 C1550.2207,133.299479 1548.57357,133 1546.92643,133 C1546.62695,133 1546.2526,133 1545.80339,133 C1545.50391,133.14974 1545.12956,133.224609 1544.68034,133.224609 C1538.99023,134.123047 1534.19857,136.069661 1530.30534,139.064453 C1526.41211,142.059245 1523.34245,146.177083 1521.09635,151.417969 C1519,156.509115 1518.47591,161.67513 1519.52409,166.916016 C1520.42253,172.156901 1522.81836,176.574219 1526.71159,180.167969 C1530.1556,183.611979 1534.27344,185.483724 1539.0651,185.783203 C1543.70703,186.232422 1548.64844,185.184245 1553.88932,182.638672 Z" transform="translate(-1491)"/></svg>