<svg xmlns="http://www.w3.org/2000/svg" width="99" height="243" viewBox="0 0 99 243"><path fill="#131313" d="M87.0195312,144.660807 C87.0195312,145.259766 87.0195312,145.708984 87.0195312,146.008464 C87.0195312,146.457682 87.0195312,146.906901 87.0195312,147.35612 C87.0195312,157.238932 87.0195312,171.913411 87.0195312,191.379557 C87.0195312,205.754557 84.9231771,216.535807 80.7304688,223.723307 C76.5377604,230.910807 71.7460938,235.852214 66.3554688,238.547526 C63.3606771,240.044922 60.4407552,241.018229 57.5957031,241.467448 C54.6009115,242.066406 51.905599,242.365885 49.5097656,242.365885 C42.3222656,242.365885 35.733724,240.494141 29.7441406,236.750651 C23.7545573,233.007161 19.1126302,227.841146 15.8183594,221.252604 C14.9199219,219.30599 14.7701823,217.284505 15.3691406,215.188151 C16.1178385,212.942057 17.5403646,211.369792 19.6367188,210.471354 C21.5833333,209.423177 23.6796875,209.273438 25.9257812,210.022135 C28.0221354,210.770833 29.5195312,212.11849 30.4179688,214.065104 C32.2148438,217.808594 34.8352865,220.728516 38.2792969,222.82487 C41.7233073,224.921224 45.4667969,225.969401 49.5097656,225.969401 C50.5579427,225.969401 51.8307292,225.894531 53.328125,225.744792 C54.8255208,225.744792 56.3977865,225.370443 58.0449219,224.621745 C61.1894531,223.124349 64.109375,220.054688 66.8046875,215.41276 C69.3502604,210.621094 70.6230469,202.610026 70.6230469,191.379557 C70.6230469,184.341797 70.6230469,173.710286 70.6230469,159.485026 C70.6230469,159.485026 70.5481771,159.485026 70.3984375,159.485026 C70.3984375,159.485026 70.3984375,159.485026 70.3984375,159.485026 C62.1627604,163.677734 54.0019531,165.25 45.9160156,164.201823 C37.8300781,163.303385 30.7923177,160.009115 24.8027344,154.31901 C18.5136719,148.479167 14.5455729,141.216797 12.8984375,132.531901 C11.1015625,123.847005 12,115.386719 15.59375,107.151042 C18.8880208,99.3645833 23.6048177,93.1503906 29.7441406,88.5084635 C35.8834635,83.7167969 43.1458333,80.6471354 51.53125,79.2994792 C55.8736979,78.7005208 60.2161458,79 64.5585938,80.1979167 C68.7513021,81.3958333 72.5696615,83.4921875 76.0136719,86.4869792 C79.4576823,89.3320312 82.1529948,92.8509115 84.0996094,97.0436198 C86.046224,101.236328 87.0195312,105.578776 87.0195312,110.070964 C87.0195312,115.910807 87.0195312,121.675781 87.0195312,127.365885 C87.0195312,133.205729 87.0195312,138.970703 87.0195312,144.660807 Z M62.8893229,145.638672 C64.6861979,144.740234 66.1835938,143.991536 67.3815104,143.392578 C68.5794271,142.79362 69.5527344,142.269531 70.3014323,141.820312 C70.3014323,134.932292 70.3014323,124.60026 70.3014323,110.824219 C70.3014323,108.578125 69.8522135,106.481771 68.953776,104.535156 C68.0553385,102.588542 66.7825521,100.941406 65.1354167,99.59375 C63.7877604,98.3958333 62.3652344,97.4973958 60.8678385,96.8984375 C59.2207031,96.2994792 57.5735677,96 55.9264323,96 C55.6269531,96 55.2526042,96 54.8033854,96 C54.5039062,96.1497396 54.1295573,96.2246094 53.6803385,96.2246094 C47.9902344,97.1230469 43.1985677,99.0696615 39.3053385,102.064453 C35.4121094,105.059245 32.3424479,109.177083 30.0963542,114.417969 C28,119.509115 27.4759115,124.67513 28.5240885,129.916016 C29.422526,135.156901 31.8183594,139.574219 35.7115885,143.167969 C39.155599,146.611979 43.2734375,148.483724 48.0651042,148.783203 C52.7070312,149.232422 57.6484375,148.184245 62.8893229,145.638672 Z"/></svg>