<svg xmlns="http://www.w3.org/2000/svg" width="120" height="243" viewBox="0 0 120 243"><path fill="#131313" d="M96.125,23.9619141 C98.1855469,23.9619141 99.9713542,24.648763 101.482422,26.0224609 C102.99349,27.5335286 103.749023,29.3193359 103.749023,31.3798828 C103.749023,59.6780599 103.749023,102.125326 103.749023,158.72168 C103.749023,160.782227 102.99349,162.568034 101.482422,164.079102 C99.9713542,165.452799 98.1855469,166.139648 96.125,166.139648 C94.0644531,166.139648 92.3473307,165.452799 90.9736328,164.079102 C89.4625651,162.568034 88.7070312,160.782227 88.7070312,158.72168 C88.7070312,146.221029 88.7070312,127.470052 88.7070312,102.46875 C76.0690104,102.46875 57.1119792,102.46875 31.8359375,102.46875 C31.8359375,114.969401 31.8359375,133.720378 31.8359375,158.72168 C31.8359375,160.782227 31.1490885,162.568034 29.7753906,164.079102 C28.2643229,165.452799 26.4785156,166.139648 24.4179688,166.139648 C22.3574219,166.139648 20.5716146,165.452799 19.0605469,164.079102 C17.686849,162.568034 17,160.782227 17,158.72168 C17,130.423503 17,87.976237 17,31.3798828 C17,29.3193359 17.686849,27.5335286 19.0605469,26.0224609 C20.5716146,24.648763 22.3574219,23.9619141 24.4179688,23.9619141 C26.4785156,23.9619141 28.2643229,24.648763 29.7753906,26.0224609 C31.1490885,27.5335286 31.8359375,29.3193359 31.8359375,31.3798828 C31.8359375,43.8805339 31.8359375,62.6315104 31.8359375,87.6328125 C44.4739583,87.6328125 63.4309896,87.6328125 88.7070312,87.6328125 C88.7070312,75.1321615 88.7070312,56.3811849 88.7070312,31.3798828 C88.7070312,29.3193359 89.4625651,27.5335286 90.9736328,26.0224609 C92.3473307,24.648763 94.0644531,23.9619141 96.125,23.9619141 Z"/></svg>