<svg xmlns="http://www.w3.org/2000/svg" width="120" height="203" viewBox="0 0 120 203"><path fill="#131313" d="M1582.27934,0.490234375 C1584.33988,0.490234375 1586.12569,1.17708333 1587.63676,2.55078125 C1589.14783,4.06184896 1589.90336,5.84765625 1589.90336,7.90820313 C1589.90336,36.2063802 1589.90336,78.6536458 1589.90336,135.25 C1589.90336,137.310547 1589.14783,139.096354 1587.63676,140.607422 C1586.12569,141.98112 1584.33988,142.667969 1582.27934,142.667969 C1580.21879,142.667969 1578.50167,141.98112 1577.12797,140.607422 C1575.6169,139.096354 1574.86137,137.310547 1574.86137,135.25 C1574.86137,122.749349 1574.86137,103.998372 1574.86137,78.9970703 C1562.22335,78.9970703 1543.26632,78.9970703 1517.99027,78.9970703 C1517.99027,91.4977214 1517.99027,110.248698 1517.99027,135.25 C1517.99027,137.310547 1517.30342,139.096354 1515.92973,140.607422 C1514.41866,141.98112 1512.63285,142.667969 1510.5723,142.667969 C1508.51176,142.667969 1506.72595,141.98112 1505.21488,140.607422 C1503.84118,139.096354 1503.15434,137.310547 1503.15434,135.25 C1503.15434,106.951823 1503.15434,64.5045573 1503.15434,7.90820313 C1503.15434,5.84765625 1503.84118,4.06184896 1505.21488,2.55078125 C1506.72595,1.17708333 1508.51176,0.490234375 1510.5723,0.490234375 C1512.63285,0.490234375 1514.41866,1.17708333 1515.92973,2.55078125 C1517.30342,4.06184896 1517.99027,5.84765625 1517.99027,7.90820313 C1517.99027,20.4088542 1517.99027,39.1598307 1517.99027,64.1611328 C1530.62829,64.1611328 1549.58533,64.1611328 1574.86137,64.1611328 C1574.86137,51.6604818 1574.86137,32.9095052 1574.86137,7.90820313 C1574.86137,5.84765625 1575.6169,4.06184896 1577.12797,2.55078125 C1578.50167,1.17708333 1580.21879,0.490234375 1582.27934,0.490234375 Z" transform="translate(-1486.154 -.528)"/></svg>