<svg xmlns="http://www.w3.org/2000/svg" width="85" height="203" viewBox="0 0 85 203"><path fill="#131313" d="M30.9960937,55.4042969 C39.53125,55.4042969 46.8684896,58.3990885 53.0078125,64.3886719 C58.9973958,70.5279948 61.9921875,77.8652344 61.9921875,86.4003906 C61.9921875,96.7324219 61.9921875,112.230469 61.9921875,132.894531 C61.9921875,135.140625 61.1686198,137.08724 59.5214844,138.734375 C58.0240885,140.231771 56.1523438,140.980469 53.90625,140.980469 C51.6601562,140.980469 49.7135417,140.231771 48.0664062,138.734375 C46.5690104,137.08724 45.8203125,135.140625 45.8203125,132.894531 C45.8203125,122.5625 45.8203125,107.064453 45.8203125,86.4003906 C45.8203125,82.3574219 44.3229167,78.8385417 41.328125,75.84375 C38.4830729,72.9986979 35.0390625,71.5761719 30.9960937,71.5761719 C26.953125,71.5761719 23.5091146,72.9986979 20.6640625,75.84375 C17.8190104,78.8385417 16.3964844,82.3574219 16.3964844,86.4003906 C16.3964844,92.2402344 16.3964844,101.14974 16.3964844,113.128906 C16.3964844,117.471354 16.3964844,124.059896 16.3964844,132.894531 C16.3964844,135.140625 15.5729167,137.08724 13.9257812,138.734375 C12.4283854,140.231771 10.5566406,140.980469 8.31054688,140.980469 C6.06445312,140.980469 4.11783854,140.231771 2.47070312,138.734375 C0.823567708,137.08724 0,135.140625 0,132.894531 C0,128.552083 0,121.963542 0,113.128906 C0,107.139323 0,98.2298177 0,86.4003906 C0,65.8860677 0,49.1145833 0,8.0859375 C0,5.83984375 0.823567708,3.89322917 2.47070312,2.24609375 C4.11783854,0.748697917 6.06445312,0 8.31054687,0 C10.5566406,0 12.4283854,0.748697917 13.9257812,2.24609375 C15.5729167,3.89322917 16.3964844,5.83984375 16.3964844,8.0859375 C16.3964844,22.4609375 16.3964844,30.0983073 16.3964844,58.9980469 C18.4928385,57.8001302 20.8138021,56.9016927 23.359375,56.3027344 C25.7552083,55.703776 28.3007812,55.4042969 30.9960937,55.4042969 Z" transform="translate(12)"/></svg>