<svg xmlns="http://www.w3.org/2000/svg" width="85" height="243" viewBox="0 0 85 243"><path fill="#131313" d="M42.9960938,79.4042969 C51.53125,79.4042969 58.8684896,82.3990885 65.0078125,88.3886719 C70.9973958,94.5279948 73.9921875,101.865234 73.9921875,110.400391 C73.9921875,120.732422 73.9921875,136.230469 73.9921875,156.894531 C73.9921875,159.140625 73.1686198,161.08724 71.5214844,162.734375 C70.0240885,164.231771 68.1523438,164.980469 65.90625,164.980469 C63.6601562,164.980469 61.7135417,164.231771 60.0664062,162.734375 C58.5690104,161.08724 57.8203125,159.140625 57.8203125,156.894531 C57.8203125,146.5625 57.8203125,131.064453 57.8203125,110.400391 C57.8203125,106.357422 56.3229167,102.838542 53.328125,99.84375 C50.4830729,96.9986979 47.0390625,95.5761719 42.9960938,95.5761719 C38.953125,95.5761719 35.5091146,96.9986979 32.6640625,99.84375 C29.8190104,102.838542 28.3964844,106.357422 28.3964844,110.400391 C28.3964844,116.240234 28.3964844,125.14974 28.3964844,137.128906 C28.3964844,141.471354 28.3964844,148.059896 28.3964844,156.894531 C28.3964844,159.140625 27.5729167,161.08724 25.9257812,162.734375 C24.4283854,164.231771 22.5566406,164.980469 20.3105469,164.980469 C18.0644531,164.980469 16.1178385,164.231771 14.4707031,162.734375 C12.8235677,161.08724 12,159.140625 12,156.894531 C12,152.552083 12,145.963542 12,137.128906 C12,131.139323 12,122.229818 12,110.400391 C12,89.8860677 12,59.1145833 12,18.0859375 C12,15.8398438 12.8235677,13.8932292 14.4707031,12.2460938 C16.1178385,10.7486979 18.0644531,10 20.3105469,10 C22.5566406,10 24.4283854,10.7486979 25.9257812,12.2460938 C27.5729167,13.8932292 28.3964844,15.8398438 28.3964844,18.0859375 C28.3964844,32.4609375 28.3964844,54.0983073 28.3964844,82.9980469 C30.4928385,81.8001302 32.8138021,80.9016927 35.359375,80.3027344 C37.7552083,79.703776 40.3007812,79.4042969 42.9960938,79.4042969 Z"/></svg>