<svg xmlns="http://www.w3.org/2000/svg" width="85" height="203" viewBox="0 0 85 203"><path fill="#131313" d="M1771.99609,116.404297 C1780.53125,116.404297 1787.86849,119.399089 1794.00781,125.388672 C1799.9974,131.527995 1802.99219,138.865234 1802.99219,147.400391 C1802.99219,157.732422 1802.99219,173.230469 1802.99219,193.894531 C1802.99219,196.140625 1802.16862,198.08724 1800.52148,199.734375 C1799.02409,201.231771 1797.15234,201.980469 1794.90625,201.980469 C1792.66016,201.980469 1790.71354,201.231771 1789.06641,199.734375 C1787.56901,198.08724 1786.82031,196.140625 1786.82031,193.894531 C1786.82031,183.5625 1786.82031,168.064453 1786.82031,147.400391 C1786.82031,143.357422 1785.32292,139.838542 1782.32812,136.84375 C1779.48307,133.998698 1776.03906,132.576172 1771.99609,132.576172 C1767.95312,132.576172 1764.50911,133.998698 1761.66406,136.84375 C1758.81901,139.838542 1757.39648,143.357422 1757.39648,147.400391 C1757.39648,153.240234 1757.39648,162.14974 1757.39648,174.128906 C1757.39648,178.471354 1757.39648,185.059896 1757.39648,193.894531 C1757.39648,196.140625 1756.57292,198.08724 1754.92578,199.734375 C1753.42839,201.231771 1751.55664,201.980469 1749.31055,201.980469 C1747.06445,201.980469 1745.11784,201.231771 1743.4707,199.734375 C1741.82357,198.08724 1741,196.140625 1741,193.894531 C1741,189.552083 1741,182.963542 1741,174.128906 C1741,168.139323 1741,159.229818 1741,147.400391 C1741,126.886068 1741,110.114583 1741,69.0859375 C1741,66.8398438 1741.82357,64.8932292 1743.4707,63.2460938 C1745.11784,61.7486979 1747.06445,61 1749.31055,61 C1751.55664,61 1753.42839,61.7486979 1754.92578,63.2460938 C1756.57292,64.8932292 1757.39648,66.8398438 1757.39648,69.0859375 C1757.39648,83.4609375 1757.39648,91.0983073 1757.39648,119.998047 C1759.49284,118.80013 1761.8138,117.901693 1764.35938,117.302734 C1766.75521,116.703776 1769.30078,116.404297 1771.99609,116.404297 Z" transform="translate(-1729)"/></svg>