<svg xmlns="http://www.w3.org/2000/svg" width="60" height="243" viewBox="0 0 60 243"><path fill="#131313" d="M22.1022656,158.72168 C22.1022656,130.423503 22.1022656,87.976237 22.1022656,31.3798828 C22.1022656,29.3193359 22.7891146,27.5335286 24.1628125,26.0224609 C25.6738802,24.648763 27.4596875,23.9619141 29.5202344,23.9619141 C31.5807813,23.9619141 33.3665885,24.648763 34.8776563,26.0224609 C36.2513542,27.5335286 36.9382031,29.3193359 36.9382031,31.3798828 C36.9382031,59.6780599 36.9382031,102.125326 36.9382031,158.72168 C36.9382031,160.782227 36.2513542,162.568034 34.8776563,164.079102 C33.3665885,165.452799 31.5807813,166.139648 29.5202344,166.139648 C27.4596875,166.139648 25.6738802,165.452799 24.1628125,164.079102 C22.7891146,162.568034 22.1022656,160.782227 22.1022656,158.72168 Z"/></svg>