<svg xmlns="http://www.w3.org/2000/svg" width="60" height="203" viewBox="0 0 60 203"><path fill="#131313" d="M1721.2566,195.72168 C1721.2566,167.423503 1721.2566,124.976237 1721.2566,68.3798828 C1721.2566,66.3193359 1721.94345,64.5335286 1723.31715,63.0224609 C1724.82822,61.648763 1726.61402,60.9619141 1728.67457,60.9619141 C1730.73512,60.9619141 1732.52092,61.648763 1734.03199,63.0224609 C1735.40569,64.5335286 1736.09254,66.3193359 1736.09254,68.3798828 C1736.09254,96.6780599 1736.09254,139.125326 1736.09254,195.72168 C1736.09254,197.782227 1735.40569,199.568034 1734.03199,201.079102 C1732.52092,202.452799 1730.73512,203.139648 1728.67457,203.139648 C1726.61402,203.139648 1724.82822,202.452799 1723.31715,201.079102 C1721.94345,199.568034 1721.2566,197.782227 1721.2566,195.72168 Z" transform="translate(-1699.154)"/></svg>