<svg xmlns="http://www.w3.org/2000/svg" width="60" height="203" viewBox="0 0 60 203"><path fill="#131313" d="M1721.2566,135.25 C1721.2566,106.951823 1721.2566,64.5045573 1721.2566,7.90820313 C1721.2566,5.84765625 1721.94345,4.06184896 1723.31715,2.55078125 C1724.82822,1.17708333 1726.61402,0.490234375 1728.67457,0.490234375 C1730.73512,0.490234375 1732.52092,1.17708333 1734.03199,2.55078125 C1735.40569,4.06184896 1736.09254,5.84765625 1736.09254,7.90820313 C1736.09254,36.2063802 1736.09254,78.6536458 1736.09254,135.25 C1736.09254,137.310547 1735.40569,139.096354 1734.03199,140.607422 C1732.52092,141.98112 1730.73512,142.667969 1728.67457,142.667969 C1726.61402,142.667969 1724.82822,141.98112 1723.31715,140.607422 C1721.94345,139.096354 1721.2566,137.310547 1721.2566,135.25 Z" transform="translate(-1699.154 -.528)"/></svg>