<svg xmlns="http://www.w3.org/2000/svg" width="43" height="243" viewBox="0 0 43 243"><path fill="#131313" d="M13,157.490234 C13,142.067057 13,118.932292 13,88.0859375 C13,85.8398438 13.8235677,83.8932292 15.4707031,82.2460938 C16.968099,80.7486979 18.8398438,80 21.0859375,80 C23.3320312,80 25.2786458,80.7486979 26.9257812,82.2460938 C28.5729167,83.8932292 29.3964844,85.8398438 29.3964844,88.0859375 C29.3964844,103.509115 29.3964844,126.64388 29.3964844,157.490234 C29.3964844,159.736328 28.5729167,161.682943 26.9257812,163.330078 C25.2786458,164.827474 23.3320312,165.576172 21.0859375,165.576172 C18.8398438,165.576172 16.968099,164.827474 15.4707031,163.330078 C13.8235677,161.682943 13,159.736328 13,157.490234 Z M21.0859375,65.171875 C18.9895833,65.171875 17.1178385,64.3483073 15.4707031,62.7011719 C13.8235677,61.203776 13,59.3320312 13,57.0859375 C13,54.8398438 13.8235677,52.8932292 15.4707031,51.2460938 C17.1178385,49.7486979 18.9895833,49 21.0859375,49 C23.3320312,49 25.2786458,49.7486979 26.9257812,51.2460938 C28.5729167,52.8932292 29.3964844,54.8398438 29.3964844,57.0859375 C29.3964844,59.3320312 28.5729167,61.203776 26.9257812,62.7011719 C25.2786458,64.3483073 23.3320312,65.171875 21.0859375,65.171875 Z"/></svg>