<svg xmlns="http://www.w3.org/2000/svg" width="43" height="203" viewBox="0 0 43 203"><path fill="#131313" d="M0,108.490234 C0,93.0670573 0,69.9322917 0,39.0859375 C0,36.8398438 0.823567708,34.8932292 2.47070312,33.2460938 C3.96809896,31.7486979 5.83984375,31 8.0859375,31 C10.3320313,31 12.2786458,31.7486979 13.9257813,33.2460938 C15.5729167,34.8932292 16.3964844,36.8398438 16.3964844,39.0859375 C16.3964844,54.5091146 16.3964844,77.6438802 16.3964844,108.490234 C16.3964844,110.736328 15.5729167,112.682943 13.9257813,114.330078 C12.2786458,115.827474 10.3320313,116.576172 8.0859375,116.576172 C5.83984375,116.576172 3.96809896,115.827474 2.47070312,114.330078 C0.823567708,112.682943 0,110.736328 0,108.490234 Z M8.0859375,16.171875 C5.98958333,16.171875 4.11783854,15.3483073 2.47070312,13.7011719 C0.823567708,12.203776 0,10.3320313 0,8.0859375 C0,5.83984375 0.823567708,3.89322917 2.47070312,2.24609375 C4.11783854,0.748697917 5.98958333,0 8.0859375,0 C10.3320313,0 12.2786458,0.748697917 13.9257813,2.24609375 C15.5729167,3.89322917 16.3964844,5.83984375 16.3964844,8.0859375 C16.3964844,10.3320313 15.5729167,12.203776 13.9257813,13.7011719 C12.2786458,15.3483073 10.3320313,16.171875 8.0859375,16.171875 Z" transform="translate(13 25)"/></svg>