<svg xmlns="http://www.w3.org/2000/svg" width="43" height="203" viewBox="0 0 43 203"><path fill="#131313" d="M1987,194.490234 C1987,179.067057 1987,155.932292 1987,125.085938 C1987,122.839844 1987.82357,120.893229 1989.4707,119.246094 C1990.9681,117.748698 1992.83984,117 1995.08594,117 C1997.33203,117 1999.27865,117.748698 2000.92578,119.246094 C2002.57292,120.893229 2003.39648,122.839844 2003.39648,125.085938 C2003.39648,140.509115 2003.39648,163.64388 2003.39648,194.490234 C2003.39648,196.736328 2002.57292,198.682943 2000.92578,200.330078 C1999.27865,201.827474 1997.33203,202.576172 1995.08594,202.576172 C1992.83984,202.576172 1990.9681,201.827474 1989.4707,200.330078 C1987.82357,198.682943 1987,196.736328 1987,194.490234 Z M1995.08594,102.171875 C1992.98958,102.171875 1991.11784,101.348307 1989.4707,99.7011719 C1987.82357,98.203776 1987,96.3320312 1987,94.0859375 C1987,91.8398438 1987.82357,89.8932292 1989.4707,88.2460938 C1991.11784,86.7486979 1992.98958,86 1995.08594,86 C1997.33203,86 1999.27865,86.7486979 2000.92578,88.2460938 C2002.57292,89.8932292 2003.39648,91.8398438 2003.39648,94.0859375 C2003.39648,96.3320312 2002.57292,98.203776 2000.92578,99.7011719 C1999.27865,101.348307 1997.33203,102.171875 1995.08594,102.171875 Z" transform="translate(-1974)"/></svg>