<svg xmlns="http://www.w3.org/2000/svg" width="120" height="203" viewBox="0 0 120 203"><path fill="#131313" d="M1865.36039,112.828125 C1865.22302,112.278646 1865.15434,111.660482 1865.15434,110.973633 C1865.15434,109.737305 1865.56645,108.500977 1866.39066,107.264648 C1867.48962,105.478841 1869.00069,104.379883 1870.92387,103.967773 C1872.98441,103.418294 1874.90759,103.693034 1876.6934,104.791992 C1878.34184,105.890951 1879.44079,107.470703 1879.99027,109.53125 C1881.2266,115.026042 1883.28715,119.078451 1886.17191,121.688477 C1888.91931,124.161133 1891.59802,125.878255 1894.20805,126.839844 C1895.58174,127.251953 1896.81807,127.526693 1897.91703,127.664063 C1899.15336,127.801432 1900.04626,127.870117 1900.59574,127.870117 C1902.51892,127.870117 1905.40368,127.183268 1909.25004,125.80957 C1913.09639,124.435872 1916.53064,121.070313 1919.55277,115.712891 C1921.06384,112.828125 1922.36885,109.187826 1923.46781,104.791992 C1924.56677,100.258789 1925.11625,94.8326823 1925.11625,88.5136719 C1925.11625,70.655599 1925.11625,43.7998047 1925.11625,7.94628906 C1925.11625,5.88574219 1925.8031,4.0999349 1927.1768,2.58886719 C1928.68786,1.21516927 1930.47367,0.528320312 1932.53422,0.528320312 C1934.59477,0.528320312 1936.31189,1.21516927 1937.68559,2.58886719 C1939.19665,4.0999349 1939.95219,5.88574219 1939.95219,7.94628906 C1939.95219,25.804362 1939.95219,52.6601563 1939.95219,88.5136719 C1939.95219,98.5416667 1938.71586,107.195964 1936.2432,114.476563 C1933.77055,121.894531 1930.06156,128.007487 1925.11625,132.81543 C1920.44568,137.211263 1915.70642,139.958659 1910.89848,141.057617 C1906.2279,142.156576 1902.86234,142.706055 1900.8018,142.706055 C1900.8018,142.706055 1900.73311,142.706055 1900.59574,142.706055 C1900.59574,142.706055 1900.59574,142.706055 1900.59574,142.706055 C1890.15564,142.706055 1882.11951,139.477865 1876.48734,133.021484 C1870.71781,126.565104 1867.00883,119.833984 1865.36039,112.828125 Z" transform="translate(-1842.154 -.528)"/></svg>