<svg xmlns="http://www.w3.org/2000/svg" width="120" height="203" viewBox="0 0 120 203"><path fill="#131313" d="M1865.36039,173.299805 C1865.22302,172.750326 1865.15434,172.132161 1865.15434,171.445313 C1865.15434,170.208984 1865.56645,168.972656 1866.39066,167.736328 C1867.48962,165.950521 1869.00069,164.851563 1870.92387,164.439453 C1872.98441,163.889974 1874.90759,164.164714 1876.6934,165.263672 C1878.34184,166.36263 1879.44079,167.942383 1879.99027,170.00293 C1881.2266,175.497721 1883.28715,179.55013 1886.17191,182.160156 C1888.91931,184.632812 1891.59802,186.349935 1894.20805,187.311523 C1895.58174,187.723633 1896.81807,187.998372 1897.91703,188.135742 C1899.15336,188.273112 1900.04626,188.341797 1900.59574,188.341797 C1902.51892,188.341797 1905.40368,187.654948 1909.25004,186.28125 C1913.09639,184.907552 1916.53064,181.541992 1919.55277,176.18457 C1921.06384,173.299805 1922.36885,169.659505 1923.46781,165.263672 C1924.56677,160.730469 1925.11625,155.304362 1925.11625,148.985352 C1925.11625,131.127279 1925.11625,104.271484 1925.11625,68.4179688 C1925.11625,66.3574219 1925.8031,64.5716146 1927.1768,63.0605469 C1928.68786,61.686849 1930.47367,61 1932.53422,61 C1934.59477,61 1936.31189,61.686849 1937.68559,63.0605469 C1939.19665,64.5716146 1939.95219,66.3574219 1939.95219,68.4179688 C1939.95219,86.2760417 1939.95219,113.131836 1939.95219,148.985352 C1939.95219,159.013346 1938.71586,167.667643 1936.2432,174.948242 C1933.77055,182.366211 1930.06156,188.479167 1925.11625,193.287109 C1920.44568,197.682943 1915.70642,200.430339 1910.89848,201.529297 C1906.2279,202.628255 1902.86234,203.177734 1900.8018,203.177734 C1900.8018,203.177734 1900.73311,203.177734 1900.59574,203.177734 C1900.59574,203.177734 1900.59574,203.177734 1900.59574,203.177734 C1890.15564,203.177734 1882.11951,199.949544 1876.48734,193.493164 C1870.71781,187.036784 1867.00883,180.305664 1865.36039,173.299805 Z" transform="translate(-1842.154)"/></svg>