<svg xmlns="http://www.w3.org/2000/svg" width="79" height="203" viewBox="0 0 79 203"><path fill="#131313" d="M53.90625,16.171875 C51.6601562,16.171875 49.7135417,15.3483073 48.0664062,13.7011719 C46.4192708,12.203776 45.5957031,10.3320313 45.5957031,8.0859375 C45.5957031,5.83984375 46.4192708,3.89322917 48.0664062,2.24609375 C49.7135417,0.748697917 51.6601562,0 53.90625,0 C56.0026042,0 57.874349,0.748697917 59.5214844,2.24609375 C61.1686198,3.89322917 61.9921875,5.83984375 61.9921875,8.0859375 C61.9921875,10.3320313 61.1686198,12.203776 59.5214844,13.7011719 C57.874349,15.3483073 56.0026042,16.171875 53.90625,16.171875 Z M0.673828125,155.724609 C0.224609375,154.676432 0,153.703125 0,152.804688 C0,151.606771 0.224609375,150.483724 0.673828125,149.435547 C1.57226562,147.339193 3.06966146,145.916667 5.16601562,145.167969 C7.26236979,144.269531 9.35872396,144.269531 11.4550781,145.167969 C13.5514323,146.066406 14.9739583,147.563802 15.7226562,149.660156 C17.2200521,153.104167 19.1666667,155.874349 21.5625,157.970703 C24.1080729,159.917318 26.8782552,160.890625 29.8730469,160.890625 C35.1139323,160.890625 39.0820313,158.045573 41.7773437,152.355469 C44.3229167,146.515625 45.5957031,137.830729 45.5957031,126.300781 C45.5957031,103.240885 45.5957031,85.5013021 45.5957031,39.0820312 C45.5957031,36.8359375 46.4192708,34.8893229 48.0664062,33.2421875 C49.5638021,31.7447917 51.5104167,30.9960938 53.90625,30.9960938 C56.1523437,30.9960938 58.0240885,31.7447917 59.5214844,33.2421875 C61.1686198,34.8893229 61.9921875,36.8359375 61.9921875,39.0820312 C61.9921875,62.2916667 61.9921875,80.03125 61.9921875,126.300781 C61.9921875,140.076823 60.3450521,150.558594 57.0507812,157.746094 C53.90625,164.933594 50.0130208,170.02474 45.3710937,173.019531 C42.8255208,174.516927 40.2050781,175.639974 37.5097656,176.388672 C34.9641927,176.98763 32.4186198,177.287109 29.8730469,177.287109 C23.5839844,177.287109 17.8190104,175.340495 12.578125,171.447266 C7.1875,167.554036 3.21940104,162.313151 0.673828125,155.724609 Z" transform="translate(9 24.963)"/></svg>