<svg xmlns="http://www.w3.org/2000/svg" width="79" height="243" viewBox="0 0 79 243"><path fill="#131313" d="M62.90625,65.1347656 C60.6601562,65.1347656 58.7135417,64.3111979 57.0664062,62.6640625 C55.4192708,61.1666667 54.5957031,59.2949219 54.5957031,57.0488281 C54.5957031,54.8027344 55.4192708,52.8561198 57.0664062,51.2089844 C58.7135417,49.7115885 60.6601562,48.9628906 62.90625,48.9628906 C65.0026042,48.9628906 66.874349,49.7115885 68.5214844,51.2089844 C70.1686198,52.8561198 70.9921875,54.8027344 70.9921875,57.0488281 C70.9921875,59.2949219 70.1686198,61.1666667 68.5214844,62.6640625 C66.874349,64.3111979 65.0026042,65.1347656 62.90625,65.1347656 Z M9.67382812,221.6875 C9.22460938,220.639323 9,219.666016 9,218.767578 C9,217.569661 9.22460938,216.446615 9.67382812,215.398438 C10.5722656,213.302083 12.0696615,211.879557 14.1660156,211.130859 C16.2623698,210.232422 18.358724,210.232422 20.4550781,211.130859 C22.5514323,212.029297 23.9739583,213.526693 24.7226562,215.623047 C26.2200521,219.067057 28.1666667,221.83724 30.5625,223.933594 C33.1080729,225.880208 35.8782552,226.853516 38.8730469,226.853516 C44.1139323,226.853516 48.0820312,224.008464 50.7773438,218.318359 C53.3229167,212.478516 54.5957031,203.79362 54.5957031,192.263672 C54.5957031,169.203776 54.5957031,134.464193 54.5957031,88.0449219 C54.5957031,85.7988281 55.4192708,83.8522135 57.0664062,82.2050781 C58.5638021,80.7076823 60.5104167,79.9589844 62.90625,79.9589844 C65.1523438,79.9589844 67.0240885,80.7076823 68.5214844,82.2050781 C70.1686198,83.8522135 70.9921875,85.7988281 70.9921875,88.0449219 C70.9921875,111.254557 70.9921875,145.994141 70.9921875,192.263672 C70.9921875,206.039714 69.3450521,216.521484 66.0507812,223.708984 C62.90625,230.896484 59.0130208,235.98763 54.3710938,238.982422 C51.8255208,240.479818 49.2050781,241.602865 46.5097656,242.351562 C43.9641927,242.950521 41.4186198,243.25 38.8730469,243.25 C32.5839844,243.25 26.8190104,241.303385 21.578125,237.410156 C16.1875,233.516927 12.219401,228.276042 9.67382812,221.6875 Z"/></svg>