<svg xmlns="http://www.w3.org/2000/svg" width="79" height="203" viewBox="0 0 79 203"><path fill="#131313" d="M2222.90625,102.134766 C2220.66016,102.134766 2218.71354,101.311198 2217.06641,99.6640625 C2215.41927,98.1666667 2214.5957,96.2949219 2214.5957,94.0488281 C2214.5957,91.8027344 2215.41927,89.8561198 2217.06641,88.2089844 C2218.71354,86.7115885 2220.66016,85.9628906 2222.90625,85.9628906 C2225.0026,85.9628906 2226.87435,86.7115885 2228.52148,88.2089844 C2230.16862,89.8561198 2230.99219,91.8027344 2230.99219,94.0488281 C2230.99219,96.2949219 2230.16862,98.1666667 2228.52148,99.6640625 C2226.87435,101.311198 2225.0026,102.134766 2222.90625,102.134766 Z M2169.67383,241.6875 C2169.22461,240.639323 2169,239.666016 2169,238.767578 C2169,237.569661 2169.22461,236.446615 2169.67383,235.398437 C2170.57227,233.302083 2172.06966,231.879557 2174.16602,231.130859 C2176.26237,230.232422 2178.35872,230.232422 2180.45508,231.130859 C2182.55143,232.029297 2183.97396,233.526693 2184.72266,235.623047 C2186.22005,239.067057 2188.16667,241.83724 2190.5625,243.933594 C2193.10807,245.880208 2195.87826,246.853516 2198.87305,246.853516 C2204.11393,246.853516 2208.08203,244.008464 2210.77734,238.318359 C2213.32292,232.478516 2214.5957,223.79362 2214.5957,212.263672 C2214.5957,189.203776 2214.5957,171.464193 2214.5957,125.044922 C2214.5957,122.798828 2215.41927,120.852214 2217.06641,119.205078 C2218.5638,117.707682 2220.51042,116.958984 2222.90625,116.958984 C2225.15234,116.958984 2227.02409,117.707682 2228.52148,119.205078 C2230.16862,120.852214 2230.99219,122.798828 2230.99219,125.044922 C2230.99219,148.254557 2230.99219,165.994141 2230.99219,212.263672 C2230.99219,226.039714 2229.34505,236.521484 2226.05078,243.708984 C2222.90625,250.896484 2219.01302,255.98763 2214.37109,258.982422 C2211.82552,260.479818 2209.20508,261.602865 2206.50977,262.351563 C2203.96419,262.950521 2201.41862,263.25 2198.87305,263.25 C2192.58398,263.25 2186.81901,261.303385 2181.57812,257.410156 C2176.1875,253.516927 2172.2194,248.276042 2169.67383,241.6875 Z" transform="translate(-2160)"/></svg>