<svg xmlns="http://www.w3.org/2000/svg" width="120" height="203" viewBox="0 0 120 203"><path fill="#131313" d="M2145.94941,190.776367 C2147.32311,192.424805 2147.94128,194.279297 2147.80391,196.339844 C2147.66654,198.400391 2146.84232,200.117513 2145.33125,201.491211 C2144.6444,202.04069 2143.82018,202.452799 2142.85859,202.727539 C2142.03438,203.002279 2141.21016,203.139648 2140.38594,203.139648 C2139.28698,203.139648 2138.25671,202.933594 2137.29512,202.521484 C2136.33353,202.109375 2135.44063,201.491211 2134.61641,200.666992 C2121.70365,185.556315 2102.26582,162.890299 2076.30293,132.668945 C2076.30293,132.668945 2076.30293,132.668945 2076.30293,132.668945 C2076.30293,132.531576 2076.23424,132.462891 2076.09688,132.462891 C2076.09688,132.462891 2076.09688,132.462891 2076.09688,132.462891 C2076.09688,132.462891 2076.09688,132.394206 2076.09688,132.256836 C2076.09688,146.405924 2076.09688,167.560872 2076.09688,195.72168 C2076.09688,197.782227 2075.34134,199.568034 2073.83027,201.079102 C2072.45658,202.452799 2070.73945,203.139648 2068.67891,203.139648 C2066.61836,203.139648 2064.83255,202.452799 2063.32148,201.079102 C2061.81042,199.568034 2061.05488,197.782227 2061.05488,195.72168 C2061.05488,167.423503 2061.05488,124.976237 2061.05488,68.3798828 C2061.05488,66.3193359 2061.81042,64.5335286 2063.32148,63.0224609 C2064.83255,61.648763 2066.61836,60.9619141 2068.67891,60.9619141 C2070.73945,60.9619141 2072.45658,61.648763 2073.83027,63.0224609 C2075.34134,64.5335286 2076.09688,66.3193359 2076.09688,68.3798828 C2076.09688,80.6057943 2076.09688,98.8759766 2076.09688,123.19043 C2076.09688,123.19043 2076.16556,123.19043 2076.30293,123.19043 C2076.30293,123.05306 2076.30293,122.984375 2076.30293,122.984375 C2076.30293,122.984375 2076.37161,122.984375 2076.50898,122.984375 C2076.50898,122.847005 2076.50898,122.77832 2076.50898,122.77832 C2088.59753,109.59082 2106.66165,89.7408854 2130.70137,63.2285156 C2132.07507,61.7174479 2133.79219,60.9619141 2135.85273,60.9619141 C2135.9901,60.9619141 2136.12747,60.9619141 2136.26484,60.9619141 C2138.18802,60.9619141 2139.83646,61.5800781 2141.21016,62.8164063 C2142.85859,64.1901042 2143.68281,65.9072266 2143.68281,67.9677734 C2143.82018,70.0283203 2143.20202,71.8141276 2141.82832,73.3251953 C2130.70137,85.5511068 2114.07962,103.752604 2091.96309,127.929687 C2101.02949,138.507161 2110.02721,149.015951 2118.95625,159.456055 C2128.02266,169.896159 2137.02038,180.336263 2145.94941,190.776367 Z" transform="translate(-2044.055)"/></svg>