<svg xmlns="http://www.w3.org/2000/svg" width="120" height="243" viewBox="0 0 120 243"><path fill="#131313" d="M101.894531,153.776367 C103.268229,155.424805 103.886393,157.279297 103.749023,159.339844 C103.611654,161.400391 102.787435,163.117513 101.276367,164.491211 C100.589518,165.04069 99.7652995,165.452799 98.8037109,165.727539 C97.9794922,166.002279 97.1552734,166.139648 96.3310547,166.139648 C95.2320964,166.139648 94.2018229,165.933594 93.2402344,165.521484 C92.2786458,165.109375 91.3857422,164.491211 90.5615234,163.666992 C77.648763,148.556315 58.2109375,125.890299 32.2480469,95.6689453 C32.2480469,95.6689453 32.2480469,95.6689453 32.2480469,95.6689453 C32.2480469,95.5315755 32.179362,95.4628906 32.0419922,95.4628906 C32.0419922,95.4628906 32.0419922,95.4628906 32.0419922,95.4628906 C32.0419922,95.4628906 32.0419922,95.3942057 32.0419922,95.2568359 C32.0419922,109.405924 32.0419922,130.560872 32.0419922,158.72168 C32.0419922,160.782227 31.2864583,162.568034 29.7753906,164.079102 C28.4016927,165.452799 26.6845703,166.139648 24.6240234,166.139648 C22.5634766,166.139648 20.7776693,165.452799 19.2666016,164.079102 C17.7555339,162.568034 17,160.782227 17,158.72168 C17,130.423503 17,87.976237 17,31.3798828 C17,29.3193359 17.7555339,27.5335286 19.2666016,26.0224609 C20.7776693,24.648763 22.5634766,23.9619141 24.6240234,23.9619141 C26.6845703,23.9619141 28.4016927,24.648763 29.7753906,26.0224609 C31.2864583,27.5335286 32.0419922,29.3193359 32.0419922,31.3798828 C32.0419922,43.6057943 32.0419922,61.8759766 32.0419922,86.1904297 C32.0419922,86.1904297 32.1106771,86.1904297 32.2480469,86.1904297 C32.2480469,86.0530599 32.2480469,85.984375 32.2480469,85.984375 C32.2480469,85.984375 32.3167318,85.984375 32.4541016,85.984375 C32.4541016,85.8470052 32.4541016,85.7783203 32.4541016,85.7783203 C44.5426432,72.5908203 62.6067708,52.7408854 86.6464844,26.2285156 C88.0201823,24.7174479 89.7373047,23.9619141 91.7978516,23.9619141 C91.9352214,23.9619141 92.0725911,23.9619141 92.2099609,23.9619141 C94.133138,23.9619141 95.7815755,24.5800781 97.1552734,25.8164062 C98.8037109,27.1901042 99.6279297,28.9072266 99.6279297,30.9677734 C99.7652995,33.0283203 99.1471354,34.8141276 97.7734375,36.3251953 C86.6464844,48.5511068 70.0247396,66.7526042 47.9082031,90.9296875 C56.9746094,101.507161 65.9723307,112.015951 74.9013672,122.456055 C83.9677734,132.896159 92.9654948,143.336263 101.894531,153.776367 Z"/></svg>