<svg xmlns="http://www.w3.org/2000/svg" width="120" height="203" viewBox="0 0 120 203"><path fill="#131313" d="M2145.94941,130.304688 C2147.32311,131.953125 2147.94128,133.807617 2147.80391,135.868164 C2147.66654,137.928711 2146.84232,139.645833 2145.33125,141.019531 C2144.6444,141.56901 2143.82018,141.98112 2142.85859,142.255859 C2142.03438,142.530599 2141.21016,142.667969 2140.38594,142.667969 C2139.28698,142.667969 2138.25671,142.461914 2137.29512,142.049805 C2136.33353,141.637695 2135.44063,141.019531 2134.61641,140.195313 C2121.70365,125.084635 2102.26582,102.41862 2076.30293,72.1972656 C2076.30293,72.1972656 2076.30293,72.1972656 2076.30293,72.1972656 C2076.30293,72.0598958 2076.23424,71.9912109 2076.09688,71.9912109 C2076.09688,71.9912109 2076.09688,71.9912109 2076.09688,71.9912109 C2076.09688,71.9912109 2076.09688,71.922526 2076.09688,71.7851563 C2076.09688,85.9342448 2076.09688,107.089193 2076.09688,135.25 C2076.09688,137.310547 2075.34134,139.096354 2073.83027,140.607422 C2072.45658,141.98112 2070.73945,142.667969 2068.67891,142.667969 C2066.61836,142.667969 2064.83255,141.98112 2063.32148,140.607422 C2061.81042,139.096354 2061.05488,137.310547 2061.05488,135.25 C2061.05488,106.951823 2061.05488,64.5045573 2061.05488,7.90820313 C2061.05488,5.84765625 2061.81042,4.06184896 2063.32148,2.55078125 C2064.83255,1.17708333 2066.61836,0.490234375 2068.67891,0.490234375 C2070.73945,0.490234375 2072.45658,1.17708333 2073.83027,2.55078125 C2075.34134,4.06184896 2076.09688,5.84765625 2076.09688,7.90820313 C2076.09688,20.1341146 2076.09688,38.4042969 2076.09688,62.71875 C2076.09688,62.71875 2076.16556,62.71875 2076.30293,62.71875 C2076.30293,62.5813802 2076.30293,62.5126953 2076.30293,62.5126953 C2076.30293,62.5126953 2076.37161,62.5126953 2076.50898,62.5126953 C2076.50898,62.3753255 2076.50898,62.3066406 2076.50898,62.3066406 C2088.59753,49.1191406 2106.66165,29.2692057 2130.70137,2.75683594 C2132.07507,1.24576823 2133.79219,0.490234375 2135.85273,0.490234375 C2135.9901,0.490234375 2136.12747,0.490234375 2136.26484,0.490234375 C2138.18802,0.490234375 2139.83646,1.10839844 2141.21016,2.34472656 C2142.85859,3.71842448 2143.68281,5.43554688 2143.68281,7.49609375 C2143.82018,9.55664063 2143.20202,11.3424479 2141.82832,12.8535156 C2130.70137,25.0794271 2114.07962,43.2809245 2091.96309,67.4580078 C2101.02949,78.0354818 2110.02721,88.5442708 2118.95625,98.984375 C2128.02266,109.424479 2137.02038,119.864583 2145.94941,130.304688 Z" transform="translate(-2044.055 -.528)"/></svg>