<svg xmlns="http://www.w3.org/2000/svg" width="97" height="243" viewBox="0 0 97 243"><path fill="#131313" d="M82.6503906,150.380859 C84.4472656,151.728516 85.4954427,153.525391 85.7949219,155.771484 C86.094401,158.017578 85.6451823,160.039062 84.4472656,161.835938 C83.5488281,162.884115 82.500651,163.707682 81.3027344,164.306641 C80.2545573,164.755859 79.0566406,164.980469 77.7089844,164.980469 C76.9602865,164.980469 76.1367188,164.905599 75.2382812,164.755859 C74.4895833,164.45638 73.7408854,164.007161 72.9921875,163.408203 C62.8098958,155.921224 47.5364583,144.765625 27.171875,129.941406 C27.171875,135.93099 27.171875,144.915365 27.171875,156.894531 C27.171875,159.140625 26.4231771,161.08724 24.9257812,162.734375 C23.2786458,164.231771 21.3320312,164.980469 19.0859375,164.980469 C16.8398438,164.980469 14.8932292,164.231771 13.2460938,162.734375 C11.7486979,161.08724 11,159.140625 11,156.894531 C11,126.048177 11,79.7786458 11,18.0859375 C11,15.8398438 11.7486979,13.8932292 13.2460938,12.2460938 C14.8932292,10.7486979 16.8398438,10 19.0859375,10 C21.3320312,10 23.2786458,10.7486979 24.9257812,12.2460938 C26.4231771,13.8932292 27.171875,15.8398438 27.171875,18.0859375 C27.171875,39.4986979 27.171875,71.6178385 27.171875,114.443359 C36.3059896,107.10612 49.9322917,96.0253906 68.0507812,81.2011719 C69.8476562,79.703776 71.7942708,79.1048177 73.890625,79.4042969 C76.1367188,79.5540365 78.0084635,80.5273438 79.5058594,82.3242188 C80.8535156,84.1210938 81.452474,86.1425781 81.3027344,88.3886719 C81.0032552,90.6347656 80.0299479,92.4316406 78.3828125,93.7792969 C70.7460938,100.068359 59.2161458,109.427083 43.7929688,121.855469 C50.3815104,126.647135 56.8951823,131.363932 63.3339844,136.005859 C69.7727865,140.797526 76.2115885,145.589193 82.6503906,150.380859 Z"/></svg>