<svg xmlns="http://www.w3.org/2000/svg" width="97" height="203" viewBox="0 0 97 203"><path fill="#131313" d="M2445.65039,187.380859 C2447.44727,188.728516 2448.49544,190.525391 2448.79492,192.771484 C2449.0944,195.017578 2448.64518,197.039063 2447.44727,198.835938 C2446.54883,199.884115 2445.50065,200.707682 2444.30273,201.306641 C2443.25456,201.755859 2442.05664,201.980469 2440.70898,201.980469 C2439.96029,201.980469 2439.13672,201.905599 2438.23828,201.755859 C2437.48958,201.45638 2436.74089,201.007161 2435.99219,200.408203 C2425.8099,192.921224 2410.53646,181.765625 2390.17188,166.941406 C2390.17188,172.93099 2390.17188,181.915365 2390.17188,193.894531 C2390.17188,196.140625 2389.42318,198.08724 2387.92578,199.734375 C2386.27865,201.231771 2384.33203,201.980469 2382.08594,201.980469 C2379.83984,201.980469 2377.89323,201.231771 2376.24609,199.734375 C2374.7487,198.08724 2374,196.140625 2374,193.894531 C2374,163.048177 2374,130.778646 2374,69.0859375 C2374,66.8398438 2374.7487,64.8932292 2376.24609,63.2460938 C2377.89323,61.7486979 2379.83984,61 2382.08594,61 C2384.33203,61 2386.27865,61.7486979 2387.92578,63.2460938 C2389.42318,64.8932292 2390.17188,66.8398438 2390.17188,69.0859375 C2390.17188,90.4986979 2390.17188,108.617839 2390.17188,151.443359 C2399.30599,144.10612 2412.93229,133.025391 2431.05078,118.201172 C2432.84766,116.703776 2434.79427,116.104818 2436.89062,116.404297 C2439.13672,116.554036 2441.00846,117.527344 2442.50586,119.324219 C2443.85352,121.121094 2444.45247,123.142578 2444.30273,125.388672 C2444.00326,127.634766 2443.02995,129.431641 2441.38281,130.779297 C2433.74609,137.068359 2422.21615,146.427083 2406.79297,158.855469 C2413.38151,163.647135 2419.89518,168.363932 2426.33398,173.005859 C2432.77279,177.797526 2439.21159,182.589193 2445.65039,187.380859 Z" transform="translate(-2363)"/></svg>