<svg xmlns="http://www.w3.org/2000/svg" width="120" height="243" viewBox="0 0 120 243"><path fill="#131313" d="M90.3798828,151.341797 C92.4404297,151.341797 94.1575521,152.028646 95.53125,153.402344 C97.0423177,154.913411 97.7978516,156.699219 97.7978516,158.759766 C97.7978516,160.820312 97.0423177,162.60612 95.53125,164.117188 C94.1575521,165.490885 92.4404297,166.177734 90.3798828,166.177734 C77.055013,166.177734 57.0677083,166.177734 30.4179688,166.177734 C28.3574219,166.177734 26.6402995,165.490885 25.2666016,164.117188 C23.7555339,162.60612 23,160.820312 23,158.759766 C23,130.461589 23,88.0143229 23,31.4179688 C23,29.3574219 23.7555339,27.5716146 25.2666016,26.0605469 C26.6402995,24.686849 28.3574219,24 30.4179688,24 C32.4785156,24 34.2643229,24.686849 35.7753906,26.0605469 C37.2864583,27.5716146 38.0419922,29.3574219 38.0419922,31.4179688 C38.0419922,58.0677083 38.0419922,98.0423177 38.0419922,151.341797 C46.6962891,151.341797 55.4192708,151.341797 64.2109375,151.341797 C72.8652344,151.341797 81.5882161,151.341797 90.3798828,151.341797 Z"/></svg>