<svg xmlns="http://www.w3.org/2000/svg" width="120" height="203" viewBox="0 0 120 203"><path fill="#131313" d="M2338.43477,127.870117 C2340.49531,127.870117 2342.21243,128.556966 2343.58613,129.930664 C2345.0972,131.441732 2345.85273,133.227539 2345.85273,135.288086 C2345.85273,137.348633 2345.0972,139.13444 2343.58613,140.645508 C2342.21243,142.019206 2340.49531,142.706055 2338.43477,142.706055 C2325.1099,142.706055 2305.12259,142.706055 2278.47285,142.706055 C2276.4123,142.706055 2274.69518,142.019206 2273.32148,140.645508 C2271.81042,139.13444 2271.05488,137.348633 2271.05488,135.288086 C2271.05488,106.989909 2271.05488,64.5426432 2271.05488,7.94628906 C2271.05488,5.88574219 2271.81042,4.0999349 2273.32148,2.58886719 C2274.69518,1.21516927 2276.4123,0.528320312 2278.47285,0.528320312 C2280.5334,0.528320312 2282.31921,1.21516927 2283.83027,2.58886719 C2285.34134,4.0999349 2286.09688,5.88574219 2286.09688,7.94628906 C2286.09688,34.5960286 2286.09688,74.570638 2286.09688,127.870117 C2294.75117,127.870117 2303.47415,127.870117 2312.26582,127.870117 C2320.92012,127.870117 2329.6431,127.870117 2338.43477,127.870117 Z" transform="translate(-2248.055 -.528)"/></svg>