<svg xmlns="http://www.w3.org/2000/svg" width="120" height="203" viewBox="0 0 120 203"><path fill="#131313" d="M2338.43477,188.341797 C2340.49531,188.341797 2342.21243,189.028646 2343.58613,190.402344 C2345.0972,191.913411 2345.85273,193.699219 2345.85273,195.759766 C2345.85273,197.820312 2345.0972,199.60612 2343.58613,201.117188 C2342.21243,202.490885 2340.49531,203.177734 2338.43477,203.177734 C2325.1099,203.177734 2305.12259,203.177734 2278.47285,203.177734 C2276.4123,203.177734 2274.69518,202.490885 2273.32148,201.117188 C2271.81042,199.60612 2271.05488,197.820312 2271.05488,195.759766 C2271.05488,167.461589 2271.05488,125.014323 2271.05488,68.4179688 C2271.05488,66.3574219 2271.81042,64.5716146 2273.32148,63.0605469 C2274.69518,61.686849 2276.4123,61 2278.47285,61 C2280.5334,61 2282.31921,61.686849 2283.83027,63.0605469 C2285.34134,64.5716146 2286.09688,66.3574219 2286.09688,68.4179688 C2286.09688,95.0677083 2286.09688,135.042318 2286.09688,188.341797 C2294.75117,188.341797 2303.47415,188.341797 2312.26582,188.341797 C2320.92012,188.341797 2329.6431,188.341797 2338.43477,188.341797 Z" transform="translate(-2248.055)"/></svg>