<svg xmlns="http://www.w3.org/2000/svg" width="43" height="243" viewBox="0 0 43 243"><path fill="#131313" d="M13,156.894531 C13,126.048177 13,79.7786458 13,18.0859375 C13,15.8398438 13.7486979,13.8932292 15.2460938,12.2460938 C16.8932292,10.7486979 18.8398438,10 21.0859375,10 C23.3320312,10 25.203776,10.7486979 26.7011719,12.2460938 C28.3483073,13.8932292 29.171875,15.8398438 29.171875,18.0859375 C29.171875,48.9322917 29.171875,95.2018229 29.171875,156.894531 C29.171875,159.140625 28.3483073,161.08724 26.7011719,162.734375 C25.203776,164.231771 23.3320312,164.980469 21.0859375,164.980469 C18.8398438,164.980469 16.8932292,164.231771 15.2460938,162.734375 C13.7486979,161.08724 13,159.140625 13,156.894531 Z"/></svg>