<svg xmlns="http://www.w3.org/2000/svg" width="82" height="203" viewBox="0 0 82 203"><path d="M1149.53,119.234 C1155.006,122.194 1158.928,125.524 1161.296,129.224 C1163.664,132.924 1164.848,138.252 1164.848,145.208 L1164.848,191.606 C1164.848,195.898 1165.736,198.895 1167.512,200.597 C1169.288,202.299 1172.396,203.15 1176.836,203.15 L1182.83,203.15 C1184.902,203.15 1186.604,203.705 1187.936,204.815 C1189.268,205.925 1189.934,208.034 1189.934,211.142 C1189.934,213.51 1189.231,215.397 1187.825,216.803 C1186.419,218.209 1184.754,218.912 1182.83,218.912 L1169.51,218.912 C1162.258,218.912 1156.893,217.395 1153.415,214.361 C1149.937,211.327 1148.198,205.962 1148.198,198.266 L1148.198,151.202 C1148.198,136.846 1142.944,129.076 1132.436,127.892 C1130.068,127.596 1128.07,126.782 1126.442,125.45 C1124.814,124.118 1124,122.194 1124,119.678 C1124,117.162 1124.888,115.201 1126.664,113.795 C1128.44,112.389 1130.586,111.538 1133.102,111.242 C1138.726,110.502 1142.648,107.949 1144.868,103.583 C1147.088,99.217 1148.198,92.594 1148.198,83.714 L1148.198,42.2 C1148.198,35.096 1150.27,29.62 1154.414,25.772 C1158.558,21.924 1163.738,20 1169.954,20 L1182.83,20 C1184.754,20 1186.493,20.555 1188.047,21.665 C1189.601,22.775 1190.378,24.884 1190.378,27.992 C1190.674,30.804 1190.082,32.802 1188.602,33.986 C1187.122,35.17 1185.198,35.762 1182.83,35.762 L1176.392,35.762 C1172.1,35.762 1169.103,36.65 1167.401,38.426 C1165.699,40.202 1164.848,43.68 1164.848,48.86 L1164.848,93.704 C1164.848,104.804 1159.742,113.314 1149.53,119.234 Z" transform="translate(-1108.514 -18.056)"/></svg>