<svg xmlns="http://www.w3.org/2000/svg" width="120" height="203" viewBox="0 0 120 203"><path fill="#131313" d="M2572.17543,7.70214844 C2572.17543,7.70214844 2572.17543,7.70214844 2572.17543,7.70214844 C2572.17543,7.70214844 2572.17543,7.77083333 2572.17543,7.90820313 C2572.17543,36.2063802 2572.17543,78.6536458 2572.17543,135.25 C2572.17543,137.310547 2571.4199,139.096354 2569.90883,140.607422 C2568.53513,141.98112 2566.81801,142.667969 2564.75746,142.667969 C2562.69691,142.667969 2560.91111,141.98112 2559.40004,140.607422 C2557.88897,139.096354 2557.13344,137.310547 2557.13344,135.25 C2557.13344,117.391927 2557.13344,90.4674479 2557.13344,54.4765625 C2551.08917,73.0214844 2542.02276,100.770182 2529.93422,137.722656 C2529.93422,137.860026 2529.93422,137.997396 2529.93422,138.134766 C2529.79685,138.272135 2529.72816,138.409505 2529.72816,138.546875 C2529.72816,138.546875 2529.65948,138.546875 2529.52211,138.546875 C2529.52211,138.684245 2529.52211,138.75293 2529.52211,138.75293 C2529.38474,138.890299 2529.31605,139.096354 2529.31605,139.371094 C2529.17868,139.508464 2529.04132,139.645833 2528.90395,139.783203 C2528.76658,139.920573 2528.69789,139.989258 2528.69789,139.989258 C2528.69789,139.989258 2528.69789,139.989258 2528.69789,139.989258 C2528.56052,140.126628 2528.42315,140.263997 2528.28578,140.401367 C2528.14841,140.538737 2528.01104,140.676107 2527.87367,140.813477 C2527.87367,140.813477 2527.80499,140.882161 2527.66762,141.019531 C2527.66762,141.019531 2527.66762,141.019531 2527.66762,141.019531 C2527.53025,141.156901 2527.39288,141.294271 2527.25551,141.431641 C2527.11814,141.431641 2526.98077,141.500326 2526.8434,141.637695 C2526.8434,141.637695 2526.77471,141.70638 2526.63734,141.84375 C2526.63734,141.84375 2526.56866,141.84375 2526.43129,141.84375 C2526.29392,141.98112 2526.08786,142.049805 2525.81313,142.049805 C2525.67576,142.187174 2525.53839,142.255859 2525.40102,142.255859 C2525.26365,142.255859 2525.19496,142.324544 2525.19496,142.461914 C2525.19496,142.461914 2525.19496,142.461914 2525.19496,142.461914 C2525.19496,142.461914 2525.19496,142.461914 2525.19496,142.461914 C2525.19496,142.461914 2525.19496,142.461914 2525.19496,142.461914 C2525.05759,142.461914 2524.85154,142.461914 2524.5768,142.461914 C2524.43943,142.599284 2524.30206,142.667969 2524.16469,142.667969 C2524.02732,142.667969 2523.88995,142.667969 2523.75258,142.667969 C2523.75258,142.667969 2523.68389,142.667969 2523.54652,142.667969 C2523.40915,142.667969 2523.27178,142.667969 2523.13441,142.667969 C2523.13441,142.805339 2523.06573,142.874023 2522.92836,142.874023 C2522.79099,142.874023 2522.65362,142.805339 2522.51625,142.667969 C2522.37888,142.667969 2522.24151,142.667969 2522.10414,142.667969 C2522.10414,142.667969 2522.03546,142.667969 2521.89809,142.667969 C2521.89809,142.667969 2521.8294,142.667969 2521.69203,142.667969 C2521.55466,142.667969 2521.34861,142.599284 2521.07387,142.461914 C2520.9365,142.461914 2520.73044,142.461914 2520.4557,142.461914 C2520.4557,142.461914 2520.4557,142.461914 2520.4557,142.461914 C2520.4557,142.461914 2520.4557,142.461914 2520.4557,142.461914 C2520.4557,142.461914 2520.4557,142.461914 2520.4557,142.461914 C2520.4557,142.461914 2520.4557,142.393229 2520.4557,142.255859 C2520.18096,142.255859 2519.97491,142.187174 2519.83754,142.049805 C2519.70017,142.049805 2519.49411,141.98112 2519.21938,141.84375 C2519.21938,141.84375 2519.15069,141.775065 2519.01332,141.637695 C2519.01332,141.637695 2518.94464,141.637695 2518.80727,141.637695 C2518.80727,141.500326 2518.73858,141.431641 2518.60121,141.431641 C2518.46384,141.294271 2518.32647,141.156901 2518.1891,141.019531 C2518.05173,141.019531 2517.98305,141.019531 2517.98305,141.019531 C2517.98305,140.882161 2517.91436,140.813477 2517.77699,140.813477 C2517.63962,140.676107 2517.50225,140.538737 2517.36488,140.401367 C2517.22751,140.263997 2517.15883,140.126628 2517.15883,139.989258 C2517.02146,139.989258 2516.95277,139.989258 2516.95277,139.989258 C2516.95277,139.851888 2516.95277,139.783203 2516.95277,139.783203 C2516.8154,139.645833 2516.67803,139.439779 2516.54066,139.165039 C2516.40329,139.027669 2516.26592,138.890299 2516.12855,138.75293 C2516.12855,138.61556 2516.12855,138.546875 2516.12855,138.546875 C2516.12855,138.546875 2516.12855,138.47819 2516.12855,138.34082 C2515.99118,138.203451 2515.9225,138.066081 2515.9225,137.928711 C2515.78513,137.791341 2515.71645,137.653971 2515.71645,137.516602 C2509.67217,119.109049 2500.60577,91.4290365 2488.51723,54.4765625 C2488.51723,72.4720052 2488.51723,99.3964844 2488.51723,135.25 C2488.51723,137.310547 2487.76169,139.096354 2486.25063,140.607422 C2484.73956,141.98112 2482.95375,142.667969 2480.8932,142.667969 C2478.97003,142.667969 2477.2529,141.98112 2475.74184,140.607422 C2474.23077,139.096354 2473.47523,137.310547 2473.47523,135.25 C2473.47523,106.951823 2473.47523,64.5045573 2473.47523,7.90820313 C2473.47523,7.90820313 2473.47523,7.83951823 2473.47523,7.70214844 C2473.47523,7.70214844 2473.47523,7.70214844 2473.47523,7.70214844 C2473.47523,7.56477865 2473.47523,7.42740885 2473.47523,7.29003906 C2473.6126,7.15266927 2473.68129,7.01529948 2473.68129,6.87792969 C2473.68129,6.7405599 2473.68129,6.6031901 2473.68129,6.46582031 C2473.68129,6.32845052 2473.68129,6.19108073 2473.68129,6.05371094 C2473.81866,6.05371094 2473.88734,5.98502604 2473.88734,5.84765625 C2473.88734,5.71028646 2473.88734,5.57291667 2473.88734,5.43554687 C2474.02471,5.29817708 2474.0934,5.16080729 2474.0934,5.0234375 C2474.0934,4.88606771 2474.16208,4.81738281 2474.29945,4.81738281 C2474.29945,4.68001302 2474.29945,4.54264323 2474.29945,4.40527344 C2474.43682,4.26790365 2474.50551,4.19921875 2474.50551,4.19921875 C2474.64288,4.06184896 2474.71156,3.92447917 2474.71156,3.78710937 C2474.84893,3.64973958 2474.91762,3.58105469 2474.91762,3.58105469 C2475.05499,3.4436849 2475.12367,3.3063151 2475.12367,3.16894531 C2475.26104,3.16894531 2475.32973,3.10026042 2475.32973,2.96289063 C2475.4671,2.82552083 2475.60447,2.75683594 2475.74184,2.75683594 C2475.74184,2.61946615 2475.81052,2.55078125 2475.94789,2.55078125 C2475.94789,2.41341146 2476.01658,2.27604167 2476.15395,2.13867187 C2476.29132,2.13867187 2476.36,2.06998698 2476.36,1.93261719 C2476.49737,1.93261719 2476.63474,1.86393229 2476.77211,1.7265625 C2476.90948,1.7265625 2476.97816,1.6578776 2476.97816,1.52050781 C2477.11553,1.52050781 2477.2529,1.45182292 2477.39027,1.31445312 C2477.52764,1.31445312 2477.59633,1.31445312 2477.59633,1.31445312 C2477.7337,1.17708333 2477.87107,1.10839844 2478.00844,1.10839844 C2478.14581,0.971028646 2478.28318,0.90234375 2478.42055,0.90234375 C2478.42055,0.90234375 2478.42055,0.90234375 2478.42055,0.90234375 C2478.55792,0.90234375 2478.6266,0.833658854 2478.6266,0.696289062 C2478.76397,0.696289062 2478.83266,0.696289062 2478.83266,0.696289062 C2478.83266,0.696289062 2478.90134,0.696289062 2479.03871,0.696289062 C2479.17608,0.696289062 2479.31345,0.696289062 2479.45082,0.696289062 C2479.58819,0.558919271 2479.72556,0.490234375 2479.86293,0.490234375 C2480.0003,0.490234375 2480.13767,0.490234375 2480.27504,0.490234375 C2480.41241,0.490234375 2480.48109,0.490234375 2480.48109,0.490234375 C2480.61846,0.490234375 2480.68715,0.490234375 2480.68715,0.490234375 C2480.82452,0.490234375 2480.8932,0.490234375 2480.8932,0.490234375 C2481.03057,0.490234375 2481.09926,0.490234375 2481.09926,0.490234375 C2481.09926,0.490234375 2481.16794,0.490234375 2481.30531,0.490234375 C2481.44268,0.490234375 2481.58005,0.490234375 2481.71742,0.490234375 C2481.85479,0.490234375 2481.99216,0.490234375 2482.12953,0.490234375 C2482.12953,0.490234375 2482.19822,0.490234375 2482.33559,0.490234375 C2482.47296,0.627604167 2482.61033,0.696289062 2482.7477,0.696289062 C2482.88507,0.696289062 2483.02243,0.696289062 2483.1598,0.696289062 C2483.1598,0.696289062 2483.22849,0.764973958 2483.36586,0.90234375 C2483.50323,0.90234375 2483.6406,0.90234375 2483.77797,0.90234375 C2483.91534,1.03971354 2484.05271,1.10839844 2484.19008,1.10839844 C2484.19008,1.24576823 2484.25876,1.31445312 2484.39613,1.31445312 C2484.5335,1.31445312 2484.67087,1.38313802 2484.80824,1.52050781 C2484.80824,1.52050781 2484.87693,1.58919271 2485.0143,1.7265625 C2485.15167,1.7265625 2485.28904,1.7952474 2485.42641,1.93261719 C2485.42641,1.93261719 2485.49509,2.00130208 2485.63246,2.13867187 C2485.76983,2.13867187 2485.83852,2.20735677 2485.83852,2.34472656 C2485.97589,2.34472656 2486.11326,2.41341146 2486.25063,2.55078125 C2486.25063,2.68815104 2486.31931,2.75683594 2486.45668,2.75683594 C2486.45668,2.89420573 2486.52536,2.96289063 2486.66273,2.96289063 C2486.8001,3.10026042 2486.86879,3.23763021 2486.86879,3.375 C2487.00616,3.51236979 2487.07484,3.58105469 2487.07484,3.58105469 C2487.21221,3.71842448 2487.2809,3.85579427 2487.2809,3.99316406 C2487.41827,3.99316406 2487.48695,4.06184896 2487.48695,4.19921875 C2487.48695,4.33658854 2487.55564,4.47395833 2487.69301,4.61132813 C2487.69301,4.74869792 2487.76169,4.81738281 2487.89906,4.81738281 C2487.89906,4.9547526 2487.89906,5.0921224 2487.89906,5.22949219 C2487.89906,5.36686198 2487.96775,5.43554687 2488.10512,5.43554687 C2488.10512,5.43554687 2488.10512,5.43554687 2488.10512,5.43554687 C2495.79783,29.063151 2507.40557,64.3671875 2522.92836,111.347656 C2530.62107,87.8574219 2542.16013,52.6220703 2557.54555,5.64160156 C2557.54555,5.50423177 2557.61423,5.43554687 2557.7516,5.43554687 C2557.7516,5.43554687 2557.7516,5.36686198 2557.7516,5.22949219 C2557.7516,5.0921224 2557.82029,4.9547526 2557.95766,4.81738281 C2557.95766,4.81738281 2557.95766,4.74869792 2557.95766,4.61132813 C2558.09503,4.47395833 2558.16371,4.33658854 2558.16371,4.19921875 C2558.30108,4.06184896 2558.36977,3.99316406 2558.36977,3.99316406 C2558.50714,3.85579427 2558.57582,3.71842448 2558.57582,3.58105469 C2558.71319,3.4436849 2558.78188,3.375 2558.78188,3.375 C2558.91924,3.23763021 2558.98793,3.10026042 2558.98793,2.96289063 C2559.1253,2.82552083 2559.19398,2.75683594 2559.19398,2.75683594 C2559.33135,2.61946615 2559.46872,2.55078125 2559.60609,2.55078125 C2559.60609,2.41341146 2559.67478,2.34472656 2559.81215,2.34472656 C2559.81215,2.20735677 2559.88083,2.06998698 2560.0182,1.93261719 C2560.15557,1.93261719 2560.29294,1.86393229 2560.43031,1.7265625 C2560.43031,1.7265625 2560.499,1.6578776 2560.63637,1.52050781 C2560.77374,1.52050781 2560.91111,1.45182292 2561.04848,1.31445312 C2561.04848,1.31445312 2561.11716,1.31445312 2561.25453,1.31445312 C2561.3919,1.17708333 2561.52927,1.10839844 2561.66664,1.10839844 C2561.66664,0.971028646 2561.73533,0.90234375 2561.8727,0.90234375 C2562.01007,0.90234375 2562.14743,0.833658854 2562.2848,0.696289062 C2562.42217,0.696289062 2562.55954,0.696289062 2562.69691,0.696289062 C2562.69691,0.696289062 2562.7656,0.627604167 2562.90297,0.490234375 C2563.04034,0.490234375 2563.17771,0.490234375 2563.31508,0.490234375 C2563.45245,0.490234375 2563.58982,0.490234375 2563.72719,0.490234375 C2563.86456,0.490234375 2564.00193,0.490234375 2564.1393,0.490234375 C2564.1393,0.352864583 2564.20798,0.284179688 2564.34535,0.284179688 C2564.48272,0.284179688 2564.55141,0.284179688 2564.55141,0.284179688 C2564.68878,0.284179688 2564.75746,0.284179688 2564.75746,0.284179688 C2564.75746,0.284179688 2564.82615,0.284179688 2564.96352,0.284179688 C2564.96352,0.421549479 2565.0322,0.490234375 2565.16957,0.490234375 C2565.30694,0.490234375 2565.44431,0.490234375 2565.58168,0.490234375 C2565.71905,0.490234375 2565.85642,0.490234375 2565.99379,0.490234375 C2566.13116,0.490234375 2566.19984,0.490234375 2566.19984,0.490234375 C2566.33721,0.627604167 2566.47458,0.696289062 2566.61195,0.696289062 C2566.74932,0.696289062 2566.81801,0.696289062 2566.81801,0.696289062 C2566.95538,0.696289062 2567.02406,0.696289062 2567.02406,0.696289062 C2567.02406,0.696289062 2567.09275,0.696289062 2567.23012,0.696289062 C2567.23012,0.833658854 2567.23012,0.90234375 2567.23012,0.90234375 C2567.36749,0.90234375 2567.50486,0.90234375 2567.64223,0.90234375 C2567.7796,1.03971354 2567.91697,1.10839844 2568.05434,1.10839844 C2568.19171,1.24576823 2568.32908,1.31445312 2568.46645,1.31445312 C2568.46645,1.31445312 2568.53513,1.38313802 2568.6725,1.52050781 C2568.80987,1.52050781 2568.87855,1.58919271 2568.87855,1.7265625 C2569.01592,1.7265625 2569.15329,1.7952474 2569.29066,1.93261719 C2569.42803,2.06998698 2569.49672,2.13867187 2569.49672,2.13867187 C2569.63409,2.27604167 2569.77146,2.34472656 2569.90883,2.34472656 C2569.90883,2.48209635 2569.97751,2.55078125 2570.11488,2.55078125 C2570.11488,2.68815104 2570.18357,2.82552083 2570.32094,2.96289063 C2570.45831,2.96289063 2570.52699,3.03157552 2570.52699,3.16894531 C2570.66436,3.3063151 2570.73305,3.375 2570.73305,3.375 C2570.87042,3.51236979 2570.9391,3.64973958 2570.9391,3.78710937 C2571.07647,3.92447917 2571.14516,3.99316406 2571.14516,3.99316406 C2571.14516,4.13053385 2571.21384,4.26790365 2571.35121,4.40527344 C2571.35121,4.54264323 2571.4199,4.68001302 2571.55727,4.81738281 C2571.55727,4.81738281 2571.55727,4.88606771 2571.55727,5.0234375 C2571.69464,5.16080729 2571.76332,5.29817708 2571.76332,5.43554687 C2571.76332,5.57291667 2571.76332,5.71028646 2571.76332,5.84765625 C2571.90069,5.84765625 2571.96938,5.91634115 2571.96938,6.05371094 C2571.96938,6.19108073 2571.96938,6.32845052 2571.96938,6.46582031 C2571.96938,6.6031901 2572.03806,6.7405599 2572.17543,6.87792969 C2572.17543,7.01529948 2572.17543,7.15266927 2572.17543,7.29003906 C2572.17543,7.42740885 2572.17543,7.56477865 2572.17543,7.70214844 Z" transform="translate(-2461.055 -.528)"/></svg>