<svg xmlns="http://www.w3.org/2000/svg" width="120" height="203" viewBox="0 0 120 203"><path fill="#131313" d="M2572.17543,68.1738281 C2572.17543,68.1738281 2572.17543,68.1738281 2572.17543,68.1738281 C2572.17543,68.1738281 2572.17543,68.242513 2572.17543,68.3798828 C2572.17543,96.6780599 2572.17543,139.125326 2572.17543,195.72168 C2572.17543,197.782227 2571.4199,199.568034 2569.90883,201.079102 C2568.53513,202.452799 2566.81801,203.139648 2564.75746,203.139648 C2562.69691,203.139648 2560.91111,202.452799 2559.40004,201.079102 C2557.88897,199.568034 2557.13344,197.782227 2557.13344,195.72168 C2557.13344,177.863607 2557.13344,150.939128 2557.13344,114.948242 C2551.08917,133.493164 2542.02276,161.241862 2529.93422,198.194336 C2529.93422,198.331706 2529.93422,198.469076 2529.93422,198.606445 C2529.79685,198.743815 2529.72816,198.881185 2529.72816,199.018555 C2529.72816,199.018555 2529.65948,199.018555 2529.52211,199.018555 C2529.52211,199.155924 2529.52211,199.224609 2529.52211,199.224609 C2529.38474,199.361979 2529.31605,199.568034 2529.31605,199.842773 C2529.17868,199.980143 2529.04132,200.117513 2528.90395,200.254883 C2528.76658,200.392253 2528.69789,200.460938 2528.69789,200.460938 C2528.69789,200.460938 2528.69789,200.460938 2528.69789,200.460938 C2528.56052,200.598307 2528.42315,200.735677 2528.28578,200.873047 C2528.14841,201.010417 2528.01104,201.147786 2527.87367,201.285156 C2527.87367,201.285156 2527.80499,201.353841 2527.66762,201.491211 C2527.66762,201.491211 2527.66762,201.491211 2527.66762,201.491211 C2527.53025,201.628581 2527.39288,201.765951 2527.25551,201.90332 C2527.11814,201.90332 2526.98077,201.972005 2526.8434,202.109375 C2526.8434,202.109375 2526.77471,202.17806 2526.63734,202.31543 C2526.63734,202.31543 2526.56866,202.31543 2526.43129,202.31543 C2526.29392,202.452799 2526.08786,202.521484 2525.81313,202.521484 C2525.67576,202.658854 2525.53839,202.727539 2525.40102,202.727539 C2525.26365,202.727539 2525.19496,202.796224 2525.19496,202.933594 C2525.19496,202.933594 2525.19496,202.933594 2525.19496,202.933594 C2525.19496,202.933594 2525.19496,202.933594 2525.19496,202.933594 C2525.19496,202.933594 2525.19496,202.933594 2525.19496,202.933594 C2525.05759,202.933594 2524.85154,202.933594 2524.5768,202.933594 C2524.43943,203.070964 2524.30206,203.139648 2524.16469,203.139648 C2524.02732,203.139648 2523.88995,203.139648 2523.75258,203.139648 C2523.75258,203.139648 2523.68389,203.139648 2523.54652,203.139648 C2523.40915,203.139648 2523.27178,203.139648 2523.13441,203.139648 C2523.13441,203.277018 2523.06573,203.345703 2522.92836,203.345703 C2522.79099,203.345703 2522.65362,203.277018 2522.51625,203.139648 C2522.37888,203.139648 2522.24151,203.139648 2522.10414,203.139648 C2522.10414,203.139648 2522.03546,203.139648 2521.89809,203.139648 C2521.89809,203.139648 2521.8294,203.139648 2521.69203,203.139648 C2521.55466,203.139648 2521.34861,203.070964 2521.07387,202.933594 C2520.9365,202.933594 2520.73044,202.933594 2520.4557,202.933594 C2520.4557,202.933594 2520.4557,202.933594 2520.4557,202.933594 C2520.4557,202.933594 2520.4557,202.933594 2520.4557,202.933594 C2520.4557,202.933594 2520.4557,202.933594 2520.4557,202.933594 C2520.4557,202.933594 2520.4557,202.864909 2520.4557,202.727539 C2520.18096,202.727539 2519.97491,202.658854 2519.83754,202.521484 C2519.70017,202.521484 2519.49411,202.452799 2519.21938,202.31543 C2519.21938,202.31543 2519.15069,202.246745 2519.01332,202.109375 C2519.01332,202.109375 2518.94464,202.109375 2518.80727,202.109375 C2518.80727,201.972005 2518.73858,201.90332 2518.60121,201.90332 C2518.46384,201.765951 2518.32647,201.628581 2518.1891,201.491211 C2518.05173,201.491211 2517.98305,201.491211 2517.98305,201.491211 C2517.98305,201.353841 2517.91436,201.285156 2517.77699,201.285156 C2517.63962,201.147786 2517.50225,201.010417 2517.36488,200.873047 C2517.22751,200.735677 2517.15883,200.598307 2517.15883,200.460938 C2517.02146,200.460938 2516.95277,200.460938 2516.95277,200.460938 C2516.95277,200.323568 2516.95277,200.254883 2516.95277,200.254883 C2516.8154,200.117513 2516.67803,199.911458 2516.54066,199.636719 C2516.40329,199.499349 2516.26592,199.361979 2516.12855,199.224609 C2516.12855,199.08724 2516.12855,199.018555 2516.12855,199.018555 C2516.12855,199.018555 2516.12855,198.94987 2516.12855,198.8125 C2515.99118,198.67513 2515.9225,198.53776 2515.9225,198.400391 C2515.78513,198.263021 2515.71645,198.125651 2515.71645,197.988281 C2509.67217,179.580729 2500.60577,151.900716 2488.51723,114.948242 C2488.51723,132.943685 2488.51723,159.868164 2488.51723,195.72168 C2488.51723,197.782227 2487.76169,199.568034 2486.25063,201.079102 C2484.73956,202.452799 2482.95375,203.139648 2480.8932,203.139648 C2478.97003,203.139648 2477.2529,202.452799 2475.74184,201.079102 C2474.23077,199.568034 2473.47523,197.782227 2473.47523,195.72168 C2473.47523,167.423503 2473.47523,124.976237 2473.47523,68.3798828 C2473.47523,68.3798828 2473.47523,68.3111979 2473.47523,68.1738281 C2473.47523,68.1738281 2473.47523,68.1738281 2473.47523,68.1738281 C2473.47523,68.0364583 2473.47523,67.8990885 2473.47523,67.7617188 C2473.6126,67.624349 2473.68129,67.4869792 2473.68129,67.3496094 C2473.68129,67.2122396 2473.68129,67.0748698 2473.68129,66.9375 C2473.68129,66.8001302 2473.68129,66.6627604 2473.68129,66.5253906 C2473.81866,66.5253906 2473.88734,66.4567057 2473.88734,66.3193359 C2473.88734,66.1819661 2473.88734,66.0445964 2473.88734,65.9072266 C2474.02471,65.7698568 2474.0934,65.632487 2474.0934,65.4951172 C2474.0934,65.3577474 2474.16208,65.2890625 2474.29945,65.2890625 C2474.29945,65.1516927 2474.29945,65.0143229 2474.29945,64.8769531 C2474.43682,64.7395833 2474.50551,64.6708984 2474.50551,64.6708984 C2474.64288,64.5335286 2474.71156,64.3961589 2474.71156,64.2587891 C2474.84893,64.1214193 2474.91762,64.0527344 2474.91762,64.0527344 C2475.05499,63.9153646 2475.12367,63.7779948 2475.12367,63.640625 C2475.26104,63.640625 2475.32973,63.5719401 2475.32973,63.4345703 C2475.4671,63.2972005 2475.60447,63.2285156 2475.74184,63.2285156 C2475.74184,63.0911458 2475.81052,63.0224609 2475.94789,63.0224609 C2475.94789,62.8850911 2476.01658,62.7477214 2476.15395,62.6103516 C2476.29132,62.6103516 2476.36,62.5416667 2476.36,62.4042969 C2476.49737,62.4042969 2476.63474,62.335612 2476.77211,62.1982422 C2476.90948,62.1982422 2476.97816,62.1295573 2476.97816,61.9921875 C2477.11553,61.9921875 2477.2529,61.9235026 2477.39027,61.7861328 C2477.52764,61.7861328 2477.59633,61.7861328 2477.59633,61.7861328 C2477.7337,61.648763 2477.87107,61.5800781 2478.00844,61.5800781 C2478.14581,61.4427083 2478.28318,61.3740234 2478.42055,61.3740234 C2478.42055,61.3740234 2478.42055,61.3740234 2478.42055,61.3740234 C2478.55792,61.3740234 2478.6266,61.3053385 2478.6266,61.1679688 C2478.76397,61.1679688 2478.83266,61.1679688 2478.83266,61.1679688 C2478.83266,61.1679688 2478.90134,61.1679688 2479.03871,61.1679688 C2479.17608,61.1679688 2479.31345,61.1679688 2479.45082,61.1679688 C2479.58819,61.030599 2479.72556,60.9619141 2479.86293,60.9619141 C2480.0003,60.9619141 2480.13767,60.9619141 2480.27504,60.9619141 C2480.41241,60.9619141 2480.48109,60.9619141 2480.48109,60.9619141 C2480.61846,60.9619141 2480.68715,60.9619141 2480.68715,60.9619141 C2480.82452,60.9619141 2480.8932,60.9619141 2480.8932,60.9619141 C2481.03057,60.9619141 2481.09926,60.9619141 2481.09926,60.9619141 C2481.09926,60.9619141 2481.16794,60.9619141 2481.30531,60.9619141 C2481.44268,60.9619141 2481.58005,60.9619141 2481.71742,60.9619141 C2481.85479,60.9619141 2481.99216,60.9619141 2482.12953,60.9619141 C2482.12953,60.9619141 2482.19822,60.9619141 2482.33559,60.9619141 C2482.47296,61.0992839 2482.61033,61.1679688 2482.7477,61.1679688 C2482.88507,61.1679688 2483.02243,61.1679688 2483.1598,61.1679688 C2483.1598,61.1679688 2483.22849,61.2366536 2483.36586,61.3740234 C2483.50323,61.3740234 2483.6406,61.3740234 2483.77797,61.3740234 C2483.91534,61.5113932 2484.05271,61.5800781 2484.19008,61.5800781 C2484.19008,61.7174479 2484.25876,61.7861328 2484.39613,61.7861328 C2484.5335,61.7861328 2484.67087,61.8548177 2484.80824,61.9921875 C2484.80824,61.9921875 2484.87693,62.0608724 2485.0143,62.1982422 C2485.15167,62.1982422 2485.28904,62.2669271 2485.42641,62.4042969 C2485.42641,62.4042969 2485.49509,62.4729818 2485.63246,62.6103516 C2485.76983,62.6103516 2485.83852,62.6790365 2485.83852,62.8164062 C2485.97589,62.8164062 2486.11326,62.8850911 2486.25063,63.0224609 C2486.25063,63.1598307 2486.31931,63.2285156 2486.45668,63.2285156 C2486.45668,63.3658854 2486.52536,63.4345703 2486.66273,63.4345703 C2486.8001,63.5719401 2486.86879,63.7093099 2486.86879,63.8466797 C2487.00616,63.9840495 2487.07484,64.0527344 2487.07484,64.0527344 C2487.21221,64.1901042 2487.2809,64.327474 2487.2809,64.4648438 C2487.41827,64.4648438 2487.48695,64.5335286 2487.48695,64.6708984 C2487.48695,64.8082682 2487.55564,64.945638 2487.69301,65.0830078 C2487.69301,65.2203776 2487.76169,65.2890625 2487.89906,65.2890625 C2487.89906,65.4264323 2487.89906,65.5638021 2487.89906,65.7011719 C2487.89906,65.8385417 2487.96775,65.9072266 2488.10512,65.9072266 C2488.10512,65.9072266 2488.10512,65.9072266 2488.10512,65.9072266 C2495.79783,89.5348307 2507.40557,124.838867 2522.92836,171.819336 C2530.62107,148.329102 2542.16013,113.09375 2557.54555,66.1132812 C2557.54555,65.9759115 2557.61423,65.9072266 2557.7516,65.9072266 C2557.7516,65.9072266 2557.7516,65.8385417 2557.7516,65.7011719 C2557.7516,65.5638021 2557.82029,65.4264323 2557.95766,65.2890625 C2557.95766,65.2890625 2557.95766,65.2203776 2557.95766,65.0830078 C2558.09503,64.945638 2558.16371,64.8082682 2558.16371,64.6708984 C2558.30108,64.5335286 2558.36977,64.4648438 2558.36977,64.4648438 C2558.50714,64.327474 2558.57582,64.1901042 2558.57582,64.0527344 C2558.71319,63.9153646 2558.78188,63.8466797 2558.78188,63.8466797 C2558.91924,63.7093099 2558.98793,63.5719401 2558.98793,63.4345703 C2559.1253,63.2972005 2559.19398,63.2285156 2559.19398,63.2285156 C2559.33135,63.0911458 2559.46872,63.0224609 2559.60609,63.0224609 C2559.60609,62.8850911 2559.67478,62.8164062 2559.81215,62.8164062 C2559.81215,62.6790365 2559.88083,62.5416667 2560.0182,62.4042969 C2560.15557,62.4042969 2560.29294,62.335612 2560.43031,62.1982422 C2560.43031,62.1982422 2560.499,62.1295573 2560.63637,61.9921875 C2560.77374,61.9921875 2560.91111,61.9235026 2561.04848,61.7861328 C2561.04848,61.7861328 2561.11716,61.7861328 2561.25453,61.7861328 C2561.3919,61.648763 2561.52927,61.5800781 2561.66664,61.5800781 C2561.66664,61.4427083 2561.73533,61.3740234 2561.8727,61.3740234 C2562.01007,61.3740234 2562.14743,61.3053385 2562.2848,61.1679688 C2562.42217,61.1679688 2562.55954,61.1679688 2562.69691,61.1679688 C2562.69691,61.1679688 2562.7656,61.0992839 2562.90297,60.9619141 C2563.04034,60.9619141 2563.17771,60.9619141 2563.31508,60.9619141 C2563.45245,60.9619141 2563.58982,60.9619141 2563.72719,60.9619141 C2563.86456,60.9619141 2564.00193,60.9619141 2564.1393,60.9619141 C2564.1393,60.8245443 2564.20798,60.7558594 2564.34535,60.7558594 C2564.48272,60.7558594 2564.55141,60.7558594 2564.55141,60.7558594 C2564.68878,60.7558594 2564.75746,60.7558594 2564.75746,60.7558594 C2564.75746,60.7558594 2564.82615,60.7558594 2564.96352,60.7558594 C2564.96352,60.8932292 2565.0322,60.9619141 2565.16957,60.9619141 C2565.30694,60.9619141 2565.44431,60.9619141 2565.58168,60.9619141 C2565.71905,60.9619141 2565.85642,60.9619141 2565.99379,60.9619141 C2566.13116,60.9619141 2566.19984,60.9619141 2566.19984,60.9619141 C2566.33721,61.0992839 2566.47458,61.1679688 2566.61195,61.1679688 C2566.74932,61.1679688 2566.81801,61.1679688 2566.81801,61.1679688 C2566.95538,61.1679688 2567.02406,61.1679688 2567.02406,61.1679688 C2567.02406,61.1679688 2567.09275,61.1679688 2567.23012,61.1679688 C2567.23012,61.3053385 2567.23012,61.3740234 2567.23012,61.3740234 C2567.36749,61.3740234 2567.50486,61.3740234 2567.64223,61.3740234 C2567.7796,61.5113932 2567.91697,61.5800781 2568.05434,61.5800781 C2568.19171,61.7174479 2568.32908,61.7861328 2568.46645,61.7861328 C2568.46645,61.7861328 2568.53513,61.8548177 2568.6725,61.9921875 C2568.80987,61.9921875 2568.87855,62.0608724 2568.87855,62.1982422 C2569.01592,62.1982422 2569.15329,62.2669271 2569.29066,62.4042969 C2569.42803,62.5416667 2569.49672,62.6103516 2569.49672,62.6103516 C2569.63409,62.7477214 2569.77146,62.8164062 2569.90883,62.8164062 C2569.90883,62.953776 2569.97751,63.0224609 2570.11488,63.0224609 C2570.11488,63.1598307 2570.18357,63.2972005 2570.32094,63.4345703 C2570.45831,63.4345703 2570.52699,63.5032552 2570.52699,63.640625 C2570.66436,63.7779948 2570.73305,63.8466797 2570.73305,63.8466797 C2570.87042,63.9840495 2570.9391,64.1214193 2570.9391,64.2587891 C2571.07647,64.3961589 2571.14516,64.4648438 2571.14516,64.4648438 C2571.14516,64.6022135 2571.21384,64.7395833 2571.35121,64.8769531 C2571.35121,65.0143229 2571.4199,65.1516927 2571.55727,65.2890625 C2571.55727,65.2890625 2571.55727,65.3577474 2571.55727,65.4951172 C2571.69464,65.632487 2571.76332,65.7698568 2571.76332,65.9072266 C2571.76332,66.0445964 2571.76332,66.1819661 2571.76332,66.3193359 C2571.90069,66.3193359 2571.96938,66.3880208 2571.96938,66.5253906 C2571.96938,66.6627604 2571.96938,66.8001302 2571.96938,66.9375 C2571.96938,67.0748698 2572.03806,67.2122396 2572.17543,67.3496094 C2572.17543,67.4869792 2572.17543,67.624349 2572.17543,67.7617188 C2572.17543,67.8990885 2572.17543,68.0364583 2572.17543,68.1738281 Z" transform="translate(-2461.055)"/></svg>