<svg xmlns="http://www.w3.org/2000/svg" width="120" height="243" viewBox="0 0 120 243"><path fill="#131313" d="M111.120547,31.1738281 C111.120547,31.1738281 111.120547,31.1738281 111.120547,31.1738281 C111.120547,31.1738281 111.120547,31.242513 111.120547,31.3798828 C111.120547,59.6780599 111.120547,102.125326 111.120547,158.72168 C111.120547,160.782227 110.365013,162.568034 108.853945,164.079102 C107.480247,165.452799 105.763125,166.139648 103.702578,166.139648 C101.642031,166.139648 99.856224,165.452799 98.3451563,164.079102 C96.8340885,162.568034 96.0785547,160.782227 96.0785547,158.72168 C96.0785547,140.863607 96.0785547,113.939128 96.0785547,77.9482422 C90.0342839,96.4931641 80.9678776,124.241862 68.8793359,161.194336 C68.8793359,161.331706 68.8793359,161.469076 68.8793359,161.606445 C68.7419661,161.743815 68.6732813,161.881185 68.6732813,162.018555 C68.6732813,162.018555 68.6045964,162.018555 68.4672266,162.018555 C68.4672266,162.155924 68.4672266,162.224609 68.4672266,162.224609 C68.3298568,162.361979 68.2611719,162.568034 68.2611719,162.842773 C68.1238021,162.980143 67.9864323,163.117513 67.8490625,163.254883 C67.7116927,163.392253 67.6430078,163.460938 67.6430078,163.460938 C67.6430078,163.460938 67.6430078,163.460938 67.6430078,163.460938 C67.505638,163.598307 67.3682682,163.735677 67.2308984,163.873047 C67.0935286,164.010417 66.9561589,164.147786 66.8187891,164.285156 C66.8187891,164.285156 66.7501042,164.353841 66.6127344,164.491211 C66.6127344,164.491211 66.6127344,164.491211 66.6127344,164.491211 C66.4753646,164.628581 66.3379948,164.765951 66.200625,164.90332 C66.0632552,164.90332 65.9258854,164.972005 65.7885156,165.109375 C65.7885156,165.109375 65.7198307,165.17806 65.5824609,165.31543 C65.5824609,165.31543 65.513776,165.31543 65.3764063,165.31543 C65.2390365,165.452799 65.0329818,165.521484 64.7582422,165.521484 C64.6208724,165.658854 64.4835026,165.727539 64.3461328,165.727539 C64.208763,165.727539 64.1400781,165.796224 64.1400781,165.933594 C64.1400781,165.933594 64.1400781,165.933594 64.1400781,165.933594 C64.1400781,165.933594 64.1400781,165.933594 64.1400781,165.933594 C64.1400781,165.933594 64.1400781,165.933594 64.1400781,165.933594 C64.0027083,165.933594 63.7966536,165.933594 63.5219141,165.933594 C63.3845443,166.070964 63.2471745,166.139648 63.1098047,166.139648 C62.9724349,166.139648 62.8350651,166.139648 62.6976953,166.139648 C62.6976953,166.139648 62.6290104,166.139648 62.4916406,166.139648 C62.3542708,166.139648 62.216901,166.139648 62.0795313,166.139648 C62.0795313,166.277018 62.0108464,166.345703 61.8734766,166.345703 C61.7361068,166.345703 61.598737,166.277018 61.4613672,166.139648 C61.3239974,166.139648 61.1866276,166.139648 61.0492578,166.139648 C61.0492578,166.139648 60.9805729,166.139648 60.8432031,166.139648 C60.8432031,166.139648 60.7745182,166.139648 60.6371484,166.139648 C60.4997786,166.139648 60.293724,166.070964 60.0189844,165.933594 C59.8816146,165.933594 59.6755599,165.933594 59.4008203,165.933594 C59.4008203,165.933594 59.4008203,165.933594 59.4008203,165.933594 C59.4008203,165.933594 59.4008203,165.933594 59.4008203,165.933594 C59.4008203,165.933594 59.4008203,165.933594 59.4008203,165.933594 C59.4008203,165.933594 59.4008203,165.864909 59.4008203,165.727539 C59.1260807,165.727539 58.920026,165.658854 58.7826563,165.521484 C58.6452865,165.521484 58.4392318,165.452799 58.1644922,165.31543 C58.1644922,165.31543 58.0958073,165.246745 57.9584375,165.109375 C57.9584375,165.109375 57.8897526,165.109375 57.7523828,165.109375 C57.7523828,164.972005 57.6836979,164.90332 57.5463281,164.90332 C57.4089583,164.765951 57.2715885,164.628581 57.1342188,164.491211 C56.996849,164.491211 56.9281641,164.491211 56.9281641,164.491211 C56.9281641,164.353841 56.8594792,164.285156 56.7221094,164.285156 C56.5847396,164.147786 56.4473698,164.010417 56.31,163.873047 C56.1726302,163.735677 56.1039453,163.598307 56.1039453,163.460938 C55.9665755,163.460938 55.8978906,163.460938 55.8978906,163.460938 C55.8978906,163.323568 55.8978906,163.254883 55.8978906,163.254883 C55.7605208,163.117513 55.623151,162.911458 55.4857813,162.636719 C55.3484115,162.499349 55.2110417,162.361979 55.0736719,162.224609 C55.0736719,162.08724 55.0736719,162.018555 55.0736719,162.018555 C55.0736719,162.018555 55.0736719,161.94987 55.0736719,161.8125 C54.9363021,161.67513 54.8676172,161.53776 54.8676172,161.400391 C54.7302474,161.263021 54.6615625,161.125651 54.6615625,160.988281 C48.6172917,142.580729 39.5508854,114.900716 27.4623438,77.9482422 C27.4623438,95.9436849 27.4623438,122.868164 27.4623438,158.72168 C27.4623438,160.782227 26.7068099,162.568034 25.1957422,164.079102 C23.6846745,165.452799 21.8988672,166.139648 19.8383203,166.139648 C17.9151432,166.139648 16.1980208,165.452799 14.6869531,164.079102 C13.1758854,162.568034 12.4203516,160.782227 12.4203516,158.72168 C12.4203516,130.423503 12.4203516,87.976237 12.4203516,31.3798828 C12.4203516,31.3798828 12.4203516,31.3111979 12.4203516,31.1738281 C12.4203516,31.1738281 12.4203516,31.1738281 12.4203516,31.1738281 C12.4203516,31.0364583 12.4203516,30.8990885 12.4203516,30.7617188 C12.5577214,30.624349 12.6264063,30.4869792 12.6264063,30.3496094 C12.6264063,30.2122396 12.6264063,30.0748698 12.6264063,29.9375 C12.6264063,29.8001302 12.6264063,29.6627604 12.6264063,29.5253906 C12.763776,29.5253906 12.8324609,29.4567057 12.8324609,29.3193359 C12.8324609,29.1819661 12.8324609,29.0445964 12.8324609,28.9072266 C12.9698307,28.7698568 13.0385156,28.632487 13.0385156,28.4951172 C13.0385156,28.3577474 13.1072005,28.2890625 13.2445703,28.2890625 C13.2445703,28.1516927 13.2445703,28.0143229 13.2445703,27.8769531 C13.3819401,27.7395833 13.450625,27.6708984 13.450625,27.6708984 C13.5879948,27.5335286 13.6566797,27.3961589 13.6566797,27.2587891 C13.7940495,27.1214193 13.8627344,27.0527344 13.8627344,27.0527344 C14.0001042,26.9153646 14.0687891,26.7779948 14.0687891,26.640625 C14.2061589,26.640625 14.2748438,26.5719401 14.2748438,26.4345703 C14.4122135,26.2972005 14.5495833,26.2285156 14.6869531,26.2285156 C14.6869531,26.0911458 14.755638,26.0224609 14.8930078,26.0224609 C14.8930078,25.8850911 14.9616927,25.7477214 15.0990625,25.6103516 C15.2364323,25.6103516 15.3051172,25.5416667 15.3051172,25.4042969 C15.442487,25.4042969 15.5798568,25.335612 15.7172266,25.1982422 C15.8545964,25.1982422 15.9232813,25.1295573 15.9232813,24.9921875 C16.060651,24.9921875 16.1980208,24.9235026 16.3353906,24.7861328 C16.4727604,24.7861328 16.5414453,24.7861328 16.5414453,24.7861328 C16.6788151,24.648763 16.8161849,24.5800781 16.9535547,24.5800781 C17.0909245,24.4427083 17.2282943,24.3740234 17.3656641,24.3740234 C17.3656641,24.3740234 17.3656641,24.3740234 17.3656641,24.3740234 C17.5030339,24.3740234 17.5717188,24.3053385 17.5717188,24.1679688 C17.7090885,24.1679688 17.7777734,24.1679688 17.7777734,24.1679688 C17.7777734,24.1679688 17.8464583,24.1679688 17.9838281,24.1679688 C18.1211979,24.1679688 18.2585677,24.1679688 18.3959375,24.1679688 C18.5333073,24.030599 18.6706771,23.9619141 18.8080469,23.9619141 C18.9454167,23.9619141 19.0827865,23.9619141 19.2201563,23.9619141 C19.357526,23.9619141 19.4262109,23.9619141 19.4262109,23.9619141 C19.5635807,23.9619141 19.6322656,23.9619141 19.6322656,23.9619141 C19.7696354,23.9619141 19.8383203,23.9619141 19.8383203,23.9619141 C19.9756901,23.9619141 20.044375,23.9619141 20.044375,23.9619141 C20.044375,23.9619141 20.1130599,23.9619141 20.2504297,23.9619141 C20.3877995,23.9619141 20.5251693,23.9619141 20.6625391,23.9619141 C20.7999089,23.9619141 20.9372786,23.9619141 21.0746484,23.9619141 C21.0746484,23.9619141 21.1433333,23.9619141 21.2807031,23.9619141 C21.4180729,24.0992839 21.5554427,24.1679688 21.6928125,24.1679688 C21.8301823,24.1679688 21.9675521,24.1679688 22.1049219,24.1679688 C22.1049219,24.1679688 22.1736068,24.2366536 22.3109766,24.3740234 C22.4483464,24.3740234 22.5857161,24.3740234 22.7230859,24.3740234 C22.8604557,24.5113932 22.9978255,24.5800781 23.1351953,24.5800781 C23.1351953,24.7174479 23.2038802,24.7861328 23.34125,24.7861328 C23.4786198,24.7861328 23.6159896,24.8548177 23.7533594,24.9921875 C23.7533594,24.9921875 23.8220443,25.0608724 23.9594141,25.1982422 C24.0967839,25.1982422 24.2341536,25.2669271 24.3715234,25.4042969 C24.3715234,25.4042969 24.4402083,25.4729818 24.5775781,25.6103516 C24.7149479,25.6103516 24.7836328,25.6790365 24.7836328,25.8164062 C24.9210026,25.8164062 25.0583724,25.8850911 25.1957422,26.0224609 C25.1957422,26.1598307 25.2644271,26.2285156 25.4017969,26.2285156 C25.4017969,26.3658854 25.4704818,26.4345703 25.6078516,26.4345703 C25.7452214,26.5719401 25.8139063,26.7093099 25.8139063,26.8466797 C25.951276,26.9840495 26.0199609,27.0527344 26.0199609,27.0527344 C26.1573307,27.1901042 26.2260156,27.327474 26.2260156,27.4648438 C26.3633854,27.4648438 26.4320703,27.5335286 26.4320703,27.6708984 C26.4320703,27.8082682 26.5007552,27.945638 26.638125,28.0830078 C26.638125,28.2203776 26.7068099,28.2890625 26.8441797,28.2890625 C26.8441797,28.4264323 26.8441797,28.5638021 26.8441797,28.7011719 C26.8441797,28.8385417 26.9128646,28.9072266 27.0502344,28.9072266 C27.0502344,28.9072266 27.0502344,28.9072266 27.0502344,28.9072266 C34.7429427,52.5348307 46.3506901,87.8388672 61.8734766,134.819336 C69.5661849,111.329102 81.1052474,76.09375 96.4906641,29.1132812 C96.4906641,28.9759115 96.559349,28.9072266 96.6967188,28.9072266 C96.6967188,28.9072266 96.6967188,28.8385417 96.6967188,28.7011719 C96.6967188,28.5638021 96.7654036,28.4264323 96.9027734,28.2890625 C96.9027734,28.2890625 96.9027734,28.2203776 96.9027734,28.0830078 C97.0401432,27.945638 97.1088281,27.8082682 97.1088281,27.6708984 C97.2461979,27.5335286 97.3148828,27.4648438 97.3148828,27.4648438 C97.4522526,27.327474 97.5209375,27.1901042 97.5209375,27.0527344 C97.6583073,26.9153646 97.7269922,26.8466797 97.7269922,26.8466797 C97.864362,26.7093099 97.9330469,26.5719401 97.9330469,26.4345703 C98.0704167,26.2972005 98.1391016,26.2285156 98.1391016,26.2285156 C98.2764714,26.0911458 98.4138411,26.0224609 98.5512109,26.0224609 C98.5512109,25.8850911 98.6198958,25.8164062 98.7572656,25.8164062 C98.7572656,25.6790365 98.8259505,25.5416667 98.9633203,25.4042969 C99.1006901,25.4042969 99.2380599,25.335612 99.3754297,25.1982422 C99.3754297,25.1982422 99.4441146,25.1295573 99.5814844,24.9921875 C99.7188542,24.9921875 99.856224,24.9235026 99.9935938,24.7861328 C99.9935938,24.7861328 100.062279,24.7861328 100.199648,24.7861328 C100.337018,24.648763 100.474388,24.5800781 100.611758,24.5800781 C100.611758,24.4427083 100.680443,24.3740234 100.817813,24.3740234 C100.955182,24.3740234 101.092552,24.3053385 101.229922,24.1679688 C101.367292,24.1679688 101.504661,24.1679688 101.642031,24.1679688 C101.642031,24.1679688 101.710716,24.0992839 101.848086,23.9619141 C101.985456,23.9619141 102.122826,23.9619141 102.260195,23.9619141 C102.397565,23.9619141 102.534935,23.9619141 102.672305,23.9619141 C102.809674,23.9619141 102.947044,23.9619141 103.084414,23.9619141 C103.084414,23.8245443 103.153099,23.7558594 103.290469,23.7558594 C103.427839,23.7558594 103.496523,23.7558594 103.496523,23.7558594 C103.633893,23.7558594 103.702578,23.7558594 103.702578,23.7558594 C103.702578,23.7558594 103.771263,23.7558594 103.908633,23.7558594 C103.908633,23.8932292 103.977318,23.9619141 104.114688,23.9619141 C104.252057,23.9619141 104.389427,23.9619141 104.526797,23.9619141 C104.664167,23.9619141 104.801536,23.9619141 104.938906,23.9619141 C105.076276,23.9619141 105.144961,23.9619141 105.144961,23.9619141 C105.282331,24.0992839 105.419701,24.1679688 105.55707,24.1679688 C105.69444,24.1679688 105.763125,24.1679688 105.763125,24.1679688 C105.900495,24.1679688 105.96918,24.1679688 105.96918,24.1679688 C105.96918,24.1679688 106.037865,24.1679688 106.175234,24.1679688 C106.175234,24.3053385 106.175234,24.3740234 106.175234,24.3740234 C106.312604,24.3740234 106.449974,24.3740234 106.587344,24.3740234 C106.724714,24.5113932 106.862083,24.5800781 106.999453,24.5800781 C107.136823,24.7174479 107.274193,24.7861328 107.411563,24.7861328 C107.411563,24.7861328 107.480247,24.8548177 107.617617,24.9921875 C107.754987,24.9921875 107.823672,25.0608724 107.823672,25.1982422 C107.961042,25.1982422 108.098411,25.2669271 108.235781,25.4042969 C108.373151,25.5416667 108.441836,25.6103516 108.441836,25.6103516 C108.579206,25.7477214 108.716576,25.8164062 108.853945,25.8164062 C108.853945,25.953776 108.92263,26.0224609 109.06,26.0224609 C109.06,26.1598307 109.128685,26.2972005 109.266055,26.4345703 C109.403424,26.4345703 109.472109,26.5032552 109.472109,26.640625 C109.609479,26.7779948 109.678164,26.8466797 109.678164,26.8466797 C109.815534,26.9840495 109.884219,27.1214193 109.884219,27.2587891 C110.021589,27.3961589 110.090273,27.4648438 110.090273,27.4648438 C110.090273,27.6022135 110.158958,27.7395833 110.296328,27.8769531 C110.296328,28.0143229 110.365013,28.1516927 110.502383,28.2890625 C110.502383,28.2890625 110.502383,28.3577474 110.502383,28.4951172 C110.639753,28.632487 110.708438,28.7698568 110.708438,28.9072266 C110.708438,29.0445964 110.708438,29.1819661 110.708438,29.3193359 C110.845807,29.3193359 110.914492,29.3880208 110.914492,29.5253906 C110.914492,29.6627604 110.914492,29.8001302 110.914492,29.9375 C110.914492,30.0748698 110.983177,30.2122396 111.120547,30.3496094 C111.120547,30.4869792 111.120547,30.624349 111.120547,30.7617188 C111.120547,30.8990885 111.120547,31.0364583 111.120547,31.1738281 Z"/></svg>