<svg xmlns="http://www.w3.org/2000/svg" width="121" height="203" viewBox="0 0 121 203"><path fill="#131313" d="M2897.42578,117 C2904.61328,117 2910.22852,119.470703 2914.27148,124.412109 C2918.46419,129.353516 2920.56055,136.091797 2920.56055,144.626953 C2920.56055,155.707682 2920.56055,172.328776 2920.56055,194.490234 C2920.56055,196.736328 2919.73698,198.682943 2918.08984,200.330078 C2916.59245,201.827474 2914.7207,202.576172 2912.47461,202.576172 C2910.22852,202.576172 2908.2819,201.827474 2906.63477,200.330078 C2904.98763,198.682943 2904.16406,196.736328 2904.16406,194.490234 C2904.16406,183.409505 2904.16406,166.788411 2904.16406,144.626953 C2904.16406,138.936849 2903.34049,135.642578 2901.69336,134.744141 C2899.89648,133.695964 2898.47396,133.171875 2897.42578,133.171875 C2894.28125,133.171875 2890.83724,135.04362 2887.09375,138.787109 C2883.35026,142.680339 2881.47852,146.199219 2881.47852,149.34375 C2881.47852,159.376302 2881.47852,174.42513 2881.47852,194.490234 C2881.47852,196.736328 2880.65495,198.682943 2879.00781,200.330078 C2877.51042,201.827474 2875.63867,202.576172 2873.39258,202.576172 C2871.14648,202.576172 2869.19987,201.827474 2867.55273,200.330078 C2865.9056,198.682943 2865.08203,196.736328 2865.08203,194.490234 C2865.08203,184.457682 2865.08203,169.408854 2865.08203,149.34375 C2865.08203,148.295573 2865.08203,146.723307 2865.08203,144.626953 C2865.08203,138.936849 2864.25846,135.642578 2862.61133,134.744141 C2860.81445,133.695964 2859.39193,133.171875 2858.34375,133.171875 C2855.19922,133.171875 2851.75521,135.04362 2848.01172,138.787109 C2844.26823,142.680339 2842.39648,146.199219 2842.39648,149.34375 C2842.39648,155.033854 2842.39648,163.56901 2842.39648,174.949219 C2842.39648,179.291667 2842.39648,185.805339 2842.39648,194.490234 C2842.39648,196.736328 2841.57292,198.682943 2839.92578,200.330078 C2838.27865,201.827474 2836.33203,202.576172 2834.08594,202.576172 C2831.98958,202.576172 2830.11784,201.827474 2828.4707,200.330078 C2826.82357,198.682943 2826,196.736328 2826,194.490234 C2826,190.147786 2826,183.634115 2826,174.949219 C2826,169.259115 2826,160.649089 2826,149.119141 C2826,143.878255 2826,135.867188 2826,125.085938 C2826,122.839844 2826.82357,120.893229 2828.4707,119.246094 C2829.9681,117.748698 2831.83984,117 2834.08594,117 C2836.03255,117 2837.67969,117.524089 2839.02734,118.572266 C2840.52474,119.620443 2841.49805,120.968099 2841.94727,122.615234 C2844.49284,120.968099 2847.18815,119.620443 2850.0332,118.572266 C2852.72852,117.524089 2855.4987,117 2858.34375,117 C2862.38672,117 2865.9056,117.748698 2868.90039,119.246094 C2872.04492,120.893229 2874.66536,123.214193 2876.76172,126.208984 C2879.75651,123.513672 2883.05078,121.267578 2886.64453,119.470703 C2890.23828,117.823568 2893.83203,117 2897.42578,117 Z" transform="translate(-2813)"/></svg>