<svg xmlns="http://www.w3.org/2000/svg" width="121" height="203" viewBox="0 0 121 203"><path fill="#131313" d="M71.4257813,0 C78.6132812,0 84.2285156,2.47070313 88.2714844,7.41210938 C92.4641927,12.3535156 94.5605469,19.0917969 94.5605469,27.6269531 C94.5605469,38.7076823 94.5605469,55.328776 94.5605469,77.4902344 C94.5605469,79.7363281 93.7369792,81.6829427 92.0898438,83.3300781 C90.5924479,84.827474 88.7207031,85.5761719 86.4746094,85.5761719 C84.2285156,85.5761719 82.281901,84.827474 80.6347656,83.3300781 C78.9876302,81.6829427 78.1640625,79.7363281 78.1640625,77.4902344 C78.1640625,66.4095052 78.1640625,49.7884115 78.1640625,27.6269531 C78.1640625,21.936849 77.3404948,18.6425781 75.6933594,17.7441406 C73.8964844,16.6959635 72.4739583,16.171875 71.4257813,16.171875 C68.28125,16.171875 64.8372396,18.0436198 61.09375,21.7871094 C57.3502604,25.6803385 55.4785156,29.1992188 55.4785156,32.34375 C55.4785156,42.3763021 55.4785156,57.4251302 55.4785156,77.4902344 C55.4785156,79.7363281 54.6549479,81.6829427 53.0078125,83.3300781 C51.5104167,84.827474 49.6386719,85.5761719 47.3925781,85.5761719 C45.1464844,85.5761719 43.1998698,84.827474 41.5527344,83.3300781 C39.905599,81.6829427 39.0820312,79.7363281 39.0820312,77.4902344 C39.0820312,67.4576823 39.0820312,52.4088542 39.0820312,32.34375 C39.0820312,31.2955729 39.0820312,29.7233073 39.0820312,27.6269531 C39.0820312,21.936849 38.2584635,18.6425781 36.6113281,17.7441406 C34.8144531,16.6959635 33.3919271,16.171875 32.34375,16.171875 C29.1992188,16.171875 25.7552083,18.0436198 22.0117187,21.7871094 C18.2682292,25.6803385 16.3964844,29.1992188 16.3964844,32.34375 C16.3964844,38.0338542 16.3964844,46.5690104 16.3964844,57.9492188 C16.3964844,62.2916667 16.3964844,68.8053385 16.3964844,77.4902344 C16.3964844,79.7363281 15.5729167,81.6829427 13.9257813,83.3300781 C12.2786458,84.827474 10.3320313,85.5761719 8.0859375,85.5761719 C5.98958333,85.5761719 4.11783854,84.827474 2.47070313,83.3300781 C0.823567708,81.6829427 0,79.7363281 0,77.4902344 C0,73.1477865 0,66.6341146 0,57.9492188 C0,52.2591146 0,43.6490885 0,32.1191406 C0,26.8782552 0,18.8671875 0,8.0859375 C0,5.83984375 0.823567708,3.89322917 2.47070313,2.24609375 C3.96809896,0.748697917 5.83984375,0 8.0859375,0 C10.0325521,0 11.6796875,0.524088542 13.0273438,1.57226563 C14.5247396,2.62044271 15.4980469,3.96809896 15.9472656,5.61523438 C18.4928385,3.96809896 21.188151,2.62044271 24.0332031,1.57226563 C26.7285156,0.524088542 29.4986979,0 32.34375,0 C36.3867187,0 39.905599,0.748697917 42.9003906,2.24609375 C46.0449219,3.89322917 48.6653646,6.21419271 50.7617187,9.20898437 C53.7565104,6.51367188 57.0507813,4.26757813 60.6445313,2.47070313 C64.2382812,0.823567708 67.8320312,0 71.4257813,0 Z" transform="translate(13 56)"/></svg>