<svg xmlns="http://www.w3.org/2000/svg" width="120" height="243" viewBox="0 0 120 243"><path fill="#131313" d="M103.022813,31.3798828 C103.022813,59.6780599 103.022813,102.125326 103.022813,158.72168 C103.022813,158.859049 103.022813,158.927734 103.022813,158.927734 C102.885443,158.927734 102.816758,158.927734 102.816758,158.927734 C102.816758,159.202474 102.816758,159.408529 102.816758,159.545898 C102.816758,159.683268 102.816758,159.820638 102.816758,159.958008 C102.816758,159.958008 102.816758,160.026693 102.816758,160.164062 C102.816758,160.301432 102.816758,160.438802 102.816758,160.576172 C102.679388,160.713542 102.610703,160.850911 102.610703,160.988281 C102.610703,161.125651 102.542018,161.194336 102.404648,161.194336 C102.404648,161.331706 102.404648,161.469076 102.404648,161.606445 C102.404648,161.743815 102.335964,161.8125 102.198594,161.8125 C102.198594,161.94987 102.129909,162.08724 101.992539,162.224609 C101.992539,162.361979 101.923854,162.499349 101.786484,162.636719 C101.786484,162.636719 101.786484,162.705404 101.786484,162.842773 C101.649115,162.980143 101.58043,163.048828 101.58043,163.048828 C101.44306,163.186198 101.374375,163.323568 101.374375,163.460938 C101.237005,163.598307 101.099635,163.666992 100.962266,163.666992 C100.962266,163.804362 100.893581,163.941732 100.756211,164.079102 C100.756211,164.079102 100.687526,164.147786 100.550156,164.285156 C100.412786,164.285156 100.344102,164.353841 100.344102,164.491211 C100.206732,164.491211 100.069362,164.559896 99.9319922,164.697266 C99.9319922,164.834635 99.8633073,164.90332 99.7259375,164.90332 C99.5885677,165.04069 99.4511979,165.109375 99.3138281,165.109375 C99.3138281,165.109375 99.3138281,165.109375 99.3138281,165.109375 C99.1764583,165.246745 99.1077734,165.31543 99.1077734,165.31543 C98.9704036,165.31543 98.9017188,165.384115 98.9017188,165.521484 C98.764349,165.521484 98.6269792,165.521484 98.4896094,165.521484 C98.4896094,165.521484 98.4896094,165.590169 98.4896094,165.727539 C98.4896094,165.727539 98.4209245,165.727539 98.2835547,165.727539 C98.1461849,165.727539 97.9401302,165.796224 97.6653906,165.933594 C97.5280208,165.933594 97.3219661,166.002279 97.0472266,166.139648 C97.0472266,166.139648 97.0472266,166.139648 97.0472266,166.139648 C96.9098568,166.139648 96.8411719,166.139648 96.8411719,166.139648 C96.5664323,166.139648 96.3603776,166.139648 96.2230078,166.139648 C95.9482682,166.277018 95.6735286,166.345703 95.3987891,166.345703 C95.2614193,166.345703 95.0553646,166.277018 94.780625,166.139648 C94.6432552,166.139648 94.4372005,166.139648 94.1624609,166.139648 C94.1624609,166.139648 94.093776,166.139648 93.9564063,166.139648 C93.9564063,166.139648 93.8877214,166.139648 93.7503516,166.139648 C93.6129818,166.002279 93.4069271,165.933594 93.1321875,165.933594 C92.9948177,165.796224 92.788763,165.727539 92.5140234,165.727539 C92.5140234,165.727539 92.5140234,165.727539 92.5140234,165.727539 C92.5140234,165.590169 92.5140234,165.521484 92.5140234,165.521484 C92.2392839,165.521484 92.0332292,165.452799 91.8958594,165.31543 C91.7584896,165.31543 91.6211198,165.246745 91.48375,165.109375 C91.3463802,165.109375 91.2776953,165.04069 91.2776953,164.90332 C91.2776953,164.90332 91.2090104,164.90332 91.0716406,164.90332 C90.796901,164.628581 90.5221615,164.353841 90.2474219,164.079102 C89.9726823,163.804362 89.6979427,163.460938 89.4232031,163.048828 C89.4232031,163.048828 89.3545182,162.980143 89.2171484,162.842773 C89.2171484,162.842773 89.2171484,162.842773 89.2171484,162.842773 C89.0797786,162.705404 89.0110938,162.636719 89.0110938,162.636719 C89.0110938,162.499349 89.0110938,162.430664 89.0110938,162.430664 C76.0983333,139.627279 56.7978776,105.422201 31.1097266,59.8154297 C31.1097266,81.7945964 31.1097266,114.763346 31.1097266,158.72168 C31.1097266,160.782227 30.4228776,162.568034 29.0491797,164.079102 C27.538112,165.452799 25.7523047,166.139648 23.6917578,166.139648 C21.6312109,166.139648 19.8454036,165.452799 18.3343359,164.079102 C16.960638,162.568034 16.2737891,160.782227 16.2737891,158.72168 C16.2737891,130.423503 16.2737891,87.976237 16.2737891,31.3798828 C16.2737891,31.3798828 16.2737891,31.3111979 16.2737891,31.1738281 C16.2737891,31.1738281 16.2737891,31.1738281 16.2737891,31.1738281 C16.2737891,31.0364583 16.2737891,30.8990885 16.2737891,30.7617188 C16.2737891,30.624349 16.2737891,30.4869792 16.2737891,30.3496094 C16.2737891,30.2122396 16.342474,30.0748698 16.4798438,29.9375 C16.4798438,29.8001302 16.4798438,29.6627604 16.4798438,29.5253906 C16.4798438,29.3880208 16.4798438,29.3193359 16.4798438,29.3193359 C16.6172135,29.1819661 16.6858984,29.0445964 16.6858984,28.9072266 C16.6858984,28.7698568 16.6858984,28.632487 16.6858984,28.4951172 C16.8232682,28.3577474 16.8919531,28.2890625 16.8919531,28.2890625 C16.8919531,28.1516927 16.960638,28.0143229 17.0980078,27.8769531 C17.0980078,27.7395833 17.1666927,27.6708984 17.3040625,27.6708984 C17.3040625,27.5335286 17.3727474,27.3961589 17.5101172,27.2587891 C17.5101172,27.1214193 17.5788021,27.0527344 17.7161719,27.0527344 C17.7161719,26.9153646 17.7848568,26.7779948 17.9222266,26.640625 C17.9222266,26.640625 17.9909115,26.5719401 18.1282813,26.4345703 C18.1282813,26.2972005 18.1969661,26.2285156 18.3343359,26.2285156 C18.4717057,26.0911458 18.5403906,25.953776 18.5403906,25.8164062 C18.6777604,25.8164062 18.7464453,25.7477214 18.7464453,25.6103516 C18.8838151,25.6103516 19.0211849,25.5416667 19.1585547,25.4042969 C19.2959245,25.4042969 19.3646094,25.335612 19.3646094,25.1982422 C19.5019792,25.0608724 19.639349,24.9921875 19.7767188,24.9921875 C19.7767188,24.9921875 19.7767188,24.9235026 19.7767188,24.7861328 C19.9140885,24.7861328 19.9827734,24.7861328 19.9827734,24.7861328 C20.1201432,24.7861328 20.1888281,24.7861328 20.1888281,24.7861328 C20.1888281,24.7861328 20.257513,24.7174479 20.3948828,24.5800781 C20.5322526,24.5800781 20.6696224,24.5800781 20.8069922,24.5800781 C20.8069922,24.4427083 20.8756771,24.3740234 21.0130469,24.3740234 C21.1504167,24.3740234 21.2877865,24.3053385 21.4251563,24.1679688 C21.562526,24.1679688 21.6998958,24.1679688 21.8372656,24.1679688 C21.9746354,24.1679688 22.0433203,24.0992839 22.0433203,23.9619141 C22.1806901,23.9619141 22.3180599,23.9619141 22.4554297,23.9619141 C22.5927995,23.9619141 22.7301693,23.9619141 22.8675391,23.9619141 C23.0049089,23.9619141 23.1422786,23.9619141 23.2796484,23.9619141 C23.2796484,23.9619141 23.3483333,23.9619141 23.4857031,23.9619141 C23.4857031,23.9619141 23.554388,23.9619141 23.6917578,23.9619141 C23.6917578,23.9619141 23.6917578,23.9619141 23.6917578,23.9619141 C23.8291276,23.9619141 23.8978125,23.9619141 23.8978125,23.9619141 C24.0351823,23.9619141 24.1725521,23.9619141 24.3099219,23.9619141 C24.4472917,23.9619141 24.5846615,23.9619141 24.7220313,23.9619141 C24.859401,23.9619141 24.9967708,23.9619141 25.1341406,23.9619141 C25.1341406,24.0992839 25.2028255,24.1679688 25.3401953,24.1679688 C25.4775651,24.1679688 25.6149349,24.1679688 25.7523047,24.1679688 C25.8896745,24.3053385 26.0270443,24.3740234 26.1644141,24.3740234 C26.1644141,24.3740234 26.233099,24.3740234 26.3704688,24.3740234 C26.5078385,24.5113932 26.6452083,24.5800781 26.7825781,24.5800781 C26.9199479,24.5800781 27.0573177,24.648763 27.1946875,24.7861328 C27.1946875,24.7861328 27.2633724,24.8548177 27.4007422,24.9921875 C27.538112,24.9921875 27.6754818,25.0608724 27.8128516,25.1982422 C27.8128516,25.1982422 27.8815365,25.2669271 28.0189063,25.4042969 C28.156276,25.4042969 28.2249609,25.4729818 28.2249609,25.6103516 C28.3623307,25.6103516 28.4997005,25.6790365 28.6370703,25.8164062 C28.6370703,25.8164062 28.7057552,25.8850911 28.843125,26.0224609 C28.9804948,26.1598307 29.0491797,26.2285156 29.0491797,26.2285156 C29.1865495,26.3658854 29.2552344,26.4345703 29.2552344,26.4345703 C29.3926042,26.5719401 29.4612891,26.7093099 29.4612891,26.8466797 C29.5986589,26.9840495 29.7360286,27.0527344 29.8733984,27.0527344 C29.8733984,27.1901042 29.9420833,27.327474 30.0794531,27.4648438 C30.0794531,27.4648438 30.0794531,27.4648438 30.0794531,27.4648438 C30.0794531,27.6022135 30.148138,27.6708984 30.2855078,27.6708984 C43.0608984,50.4742839 62.2926693,84.679362 87.9808203,130.286133 C87.9808203,108.306966 87.9808203,75.3382161 87.9808203,31.3798828 C87.9808203,29.3193359 88.7363542,27.5335286 90.2474219,26.0224609 C91.6211198,24.648763 93.3382422,23.9619141 95.3987891,23.9619141 C97.4593359,23.9619141 99.2451432,24.648763 100.756211,26.0224609 C102.267279,27.5335286 103.022813,29.3193359 103.022813,31.3798828 Z"/></svg>