<svg xmlns="http://www.w3.org/2000/svg" width="120" height="203" viewBox="0 0 120 203"><path fill="#131313" d="M2784.52281,7.90820312 C2784.52281,36.2063802 2784.52281,78.6536458 2784.52281,135.25 C2784.52281,135.38737 2784.52281,135.456055 2784.52281,135.456055 C2784.38544,135.456055 2784.31676,135.456055 2784.31676,135.456055 C2784.31676,135.730794 2784.31676,135.936849 2784.31676,136.074219 C2784.31676,136.211589 2784.31676,136.348958 2784.31676,136.486328 C2784.31676,136.486328 2784.31676,136.555013 2784.31676,136.692383 C2784.31676,136.829753 2784.31676,136.967122 2784.31676,137.104492 C2784.17939,137.241862 2784.1107,137.379232 2784.1107,137.516602 C2784.1107,137.653971 2784.04202,137.722656 2783.90465,137.722656 C2783.90465,137.860026 2783.90465,137.997396 2783.90465,138.134766 C2783.90465,138.272135 2783.83596,138.34082 2783.69859,138.34082 C2783.69859,138.47819 2783.62991,138.61556 2783.49254,138.75293 C2783.49254,138.890299 2783.42385,139.027669 2783.28648,139.165039 C2783.28648,139.165039 2783.28648,139.233724 2783.28648,139.371094 C2783.14911,139.508464 2783.08043,139.577148 2783.08043,139.577148 C2782.94306,139.714518 2782.87438,139.851888 2782.87438,139.989258 C2782.73701,140.126628 2782.59964,140.195312 2782.46227,140.195312 C2782.46227,140.332682 2782.39358,140.470052 2782.25621,140.607422 C2782.25621,140.607422 2782.18753,140.676107 2782.05016,140.813477 C2781.91279,140.813477 2781.8441,140.882161 2781.8441,141.019531 C2781.70673,141.019531 2781.56936,141.088216 2781.43199,141.225586 C2781.43199,141.362956 2781.36331,141.431641 2781.22594,141.431641 C2781.08857,141.56901 2780.9512,141.637695 2780.81383,141.637695 C2780.81383,141.637695 2780.81383,141.637695 2780.81383,141.637695 C2780.67646,141.775065 2780.60777,141.84375 2780.60777,141.84375 C2780.4704,141.84375 2780.40172,141.912435 2780.40172,142.049805 C2780.26435,142.049805 2780.12698,142.049805 2779.98961,142.049805 C2779.98961,142.049805 2779.98961,142.11849 2779.98961,142.255859 C2779.98961,142.255859 2779.92092,142.255859 2779.78355,142.255859 C2779.64618,142.255859 2779.44013,142.324544 2779.16539,142.461914 C2779.02802,142.461914 2778.82197,142.530599 2778.54723,142.667969 C2778.54723,142.667969 2778.54723,142.667969 2778.54723,142.667969 C2778.40986,142.667969 2778.34117,142.667969 2778.34117,142.667969 C2778.06643,142.667969 2777.86038,142.667969 2777.72301,142.667969 C2777.44827,142.805339 2777.17353,142.874023 2776.89879,142.874023 C2776.76142,142.874023 2776.55536,142.805339 2776.28063,142.667969 C2776.14326,142.667969 2775.9372,142.667969 2775.66246,142.667969 C2775.66246,142.667969 2775.59378,142.667969 2775.45641,142.667969 C2775.45641,142.667969 2775.38772,142.667969 2775.25035,142.667969 C2775.11298,142.530599 2774.90693,142.461914 2774.63219,142.461914 C2774.49482,142.324544 2774.28876,142.255859 2774.01402,142.255859 C2774.01402,142.255859 2774.01402,142.255859 2774.01402,142.255859 C2774.01402,142.11849 2774.01402,142.049805 2774.01402,142.049805 C2773.73928,142.049805 2773.53323,141.98112 2773.39586,141.84375 C2773.25849,141.84375 2773.12112,141.775065 2772.98375,141.637695 C2772.84638,141.637695 2772.7777,141.56901 2772.7777,141.431641 C2772.7777,141.431641 2772.70901,141.431641 2772.57164,141.431641 C2772.2969,141.156901 2772.02216,140.882161 2771.74742,140.607422 C2771.47268,140.332682 2771.19794,139.989258 2770.9232,139.577148 C2770.9232,139.577148 2770.85452,139.508464 2770.71715,139.371094 C2770.71715,139.371094 2770.71715,139.371094 2770.71715,139.371094 C2770.57978,139.233724 2770.51109,139.165039 2770.51109,139.165039 C2770.51109,139.027669 2770.51109,138.958984 2770.51109,138.958984 C2757.59833,116.155599 2738.29788,81.9505208 2712.60973,36.34375 C2712.60973,58.3229167 2712.60973,91.2916667 2712.60973,135.25 C2712.60973,137.310547 2711.92288,139.096354 2710.54918,140.607422 C2709.03811,141.98112 2707.2523,142.667969 2705.19176,142.667969 C2703.13121,142.667969 2701.3454,141.98112 2699.83434,140.607422 C2698.46064,139.096354 2697.77379,137.310547 2697.77379,135.25 C2697.77379,106.951823 2697.77379,64.5045573 2697.77379,7.90820312 C2697.77379,7.90820312 2697.77379,7.83951823 2697.77379,7.70214844 C2697.77379,7.70214844 2697.77379,7.70214844 2697.77379,7.70214844 C2697.77379,7.56477865 2697.77379,7.42740885 2697.77379,7.29003906 C2697.77379,7.15266927 2697.77379,7.01529948 2697.77379,6.87792969 C2697.77379,6.7405599 2697.84247,6.6031901 2697.97984,6.46582031 C2697.97984,6.32845052 2697.97984,6.19108073 2697.97984,6.05371094 C2697.97984,5.91634115 2697.97984,5.84765625 2697.97984,5.84765625 C2698.11721,5.71028646 2698.1859,5.57291667 2698.1859,5.43554688 C2698.1859,5.29817708 2698.1859,5.16080729 2698.1859,5.0234375 C2698.32327,4.88606771 2698.39195,4.81738281 2698.39195,4.81738281 C2698.39195,4.68001302 2698.46064,4.54264323 2698.59801,4.40527344 C2698.59801,4.26790365 2698.66669,4.19921875 2698.80406,4.19921875 C2698.80406,4.06184896 2698.87275,3.92447917 2699.01012,3.78710938 C2699.01012,3.64973958 2699.0788,3.58105469 2699.21617,3.58105469 C2699.21617,3.4436849 2699.28486,3.3063151 2699.42223,3.16894531 C2699.42223,3.16894531 2699.49091,3.10026042 2699.62828,2.96289063 C2699.62828,2.82552083 2699.69697,2.75683594 2699.83434,2.75683594 C2699.97171,2.61946615 2700.04039,2.48209635 2700.04039,2.34472656 C2700.17776,2.34472656 2700.24645,2.27604167 2700.24645,2.13867187 C2700.38382,2.13867187 2700.52118,2.06998698 2700.65855,1.93261719 C2700.79592,1.93261719 2700.86461,1.86393229 2700.86461,1.7265625 C2701.00198,1.58919271 2701.13935,1.52050781 2701.27672,1.52050781 C2701.27672,1.52050781 2701.27672,1.45182292 2701.27672,1.31445312 C2701.41409,1.31445312 2701.48277,1.31445312 2701.48277,1.31445312 C2701.62014,1.31445312 2701.68883,1.31445312 2701.68883,1.31445312 C2701.68883,1.31445312 2701.75751,1.24576823 2701.89488,1.10839844 C2702.03225,1.10839844 2702.16962,1.10839844 2702.30699,1.10839844 C2702.30699,0.971028646 2702.37568,0.90234375 2702.51305,0.90234375 C2702.65042,0.90234375 2702.78779,0.833658854 2702.92516,0.696289063 C2703.06253,0.696289063 2703.1999,0.696289063 2703.33727,0.696289063 C2703.47464,0.696289063 2703.54332,0.627604167 2703.54332,0.490234375 C2703.68069,0.490234375 2703.81806,0.490234375 2703.95543,0.490234375 C2704.0928,0.490234375 2704.23017,0.490234375 2704.36754,0.490234375 C2704.50491,0.490234375 2704.64228,0.490234375 2704.77965,0.490234375 C2704.77965,0.490234375 2704.84833,0.490234375 2704.9857,0.490234375 C2704.9857,0.490234375 2705.05439,0.490234375 2705.19176,0.490234375 C2705.19176,0.490234375 2705.19176,0.490234375 2705.19176,0.490234375 C2705.32913,0.490234375 2705.39781,0.490234375 2705.39781,0.490234375 C2705.53518,0.490234375 2705.67255,0.490234375 2705.80992,0.490234375 C2705.94729,0.490234375 2706.08466,0.490234375 2706.22203,0.490234375 C2706.3594,0.490234375 2706.49677,0.490234375 2706.63414,0.490234375 C2706.63414,0.627604167 2706.70283,0.696289063 2706.8402,0.696289063 C2706.97757,0.696289063 2707.11493,0.696289063 2707.2523,0.696289063 C2707.38967,0.833658854 2707.52704,0.90234375 2707.66441,0.90234375 C2707.66441,0.90234375 2707.7331,0.90234375 2707.87047,0.90234375 C2708.00784,1.03971354 2708.14521,1.10839844 2708.28258,1.10839844 C2708.41995,1.10839844 2708.55732,1.17708333 2708.69469,1.31445312 C2708.69469,1.31445312 2708.76337,1.38313802 2708.90074,1.52050781 C2709.03811,1.52050781 2709.17548,1.58919271 2709.31285,1.7265625 C2709.31285,1.7265625 2709.38154,1.7952474 2709.51891,1.93261719 C2709.65628,1.93261719 2709.72496,2.00130208 2709.72496,2.13867187 C2709.86233,2.13867187 2709.9997,2.20735677 2710.13707,2.34472656 C2710.13707,2.34472656 2710.20576,2.41341146 2710.34313,2.55078125 C2710.48049,2.68815104 2710.54918,2.75683594 2710.54918,2.75683594 C2710.68655,2.89420573 2710.75523,2.96289063 2710.75523,2.96289063 C2710.8926,3.10026042 2710.96129,3.23763021 2710.96129,3.375 C2711.09866,3.51236979 2711.23603,3.58105469 2711.3734,3.58105469 C2711.3734,3.71842448 2711.44208,3.85579427 2711.57945,3.99316406 C2711.57945,3.99316406 2711.57945,3.99316406 2711.57945,3.99316406 C2711.57945,4.13053385 2711.64814,4.19921875 2711.78551,4.19921875 C2724.5609,27.0026042 2743.79267,61.2076823 2769.48082,106.814453 C2769.48082,84.8352865 2769.48082,51.8665365 2769.48082,7.90820312 C2769.48082,5.84765625 2770.23635,4.06184896 2771.74742,2.55078125 C2773.12112,1.17708333 2774.83824,0.490234375 2776.89879,0.490234375 C2778.95934,0.490234375 2780.74514,1.17708333 2782.25621,2.55078125 C2783.76728,4.06184896 2784.52281,5.84765625 2784.52281,7.90820312 Z" transform="translate(-2681.5 -.528)"/></svg>