<svg xmlns="http://www.w3.org/2000/svg" width="95" height="203" viewBox="0 0 95 203"><path fill="#131313" d="M3143.24805,116 C3148.63867,116 3153.13086,116.748698 3156.72461,118.246094 C3160.31836,119.74349 3163.23828,121.690104 3165.48438,124.085938 C3169.67708,128.578125 3172.14779,133.744141 3172.89648,139.583984 C3173.49544,145.423828 3173.79492,150.065755 3173.79492,153.509766 C3173.79492,162.344401 3173.79492,175.671224 3173.79492,193.490234 C3173.79492,195.736328 3173.04622,197.682943 3171.54883,199.330078 C3169.90169,200.827474 3167.95508,201.576172 3165.70898,201.576172 C3163.46289,201.576172 3161.59115,200.827474 3160.09375,199.330078 C3158.44661,197.682943 3157.62305,195.736328 3157.62305,193.490234 C3157.62305,184.655599 3157.62305,171.328776 3157.62305,153.509766 C3157.62305,145.124349 3156.64974,139.509115 3154.70312,136.664062 C3152.75651,133.669271 3148.93815,132.171875 3143.24805,132.171875 C3136.65951,132.171875 3130.37044,134.567708 3124.38086,139.359375 C3118.24154,144.151042 3115.17188,150.365234 3115.17188,158.001953 C3115.17188,161.595703 3115.17188,166.911458 3115.17188,173.949219 C3115.17188,178.291667 3115.17188,184.805339 3115.17188,193.490234 C3115.17188,195.736328 3114.42318,197.682943 3112.92578,199.330078 C3111.27865,200.827474 3109.33203,201.576172 3107.08594,201.576172 C3104.83984,201.576172 3102.89323,200.827474 3101.24609,199.330078 C3099.7487,197.682943 3099,195.736328 3099,193.490234 C3099,189.147786 3099,182.634115 3099,173.949219 C3099,170.355469 3099,165.039714 3099,158.001953 C3099,150.514974 3099,139.209635 3099,124.085938 C3099,121.839844 3099.7487,119.893229 3101.24609,118.246094 C3102.89323,116.748698 3104.83984,116 3107.08594,116 C3109.33203,116 3111.27865,116.748698 3112.92578,118.246094 C3114.42318,119.893229 3115.17188,121.839844 3115.17188,124.085938 C3115.17188,124.385417 3115.17188,124.909505 3115.17188,125.658203 C3118.91536,122.663411 3123.18294,120.342448 3127.97461,118.695312 C3132.61654,116.898438 3137.70768,116 3143.24805,116 Z" transform="translate(-3089)"/></svg>