<svg xmlns="http://www.w3.org/2000/svg" width="95" height="203" viewBox="0 0 95 203"><path fill="#131313" d="M44.2480469,0 C49.6386719,0 54.1308594,0.748697917 57.7246094,2.24609375 C61.3183594,3.74348958 64.2382813,5.69010417 66.484375,8.0859375 C70.6770833,12.578125 73.1477865,17.7441406 73.8964844,23.5839844 C74.4954427,29.4238281 74.7949219,34.0657552 74.7949219,37.5097656 C74.7949219,46.344401 74.7949219,59.671224 74.7949219,77.4902344 C74.7949219,79.7363281 74.046224,81.6829427 72.5488281,83.3300781 C70.9016927,84.827474 68.9550781,85.5761719 66.7089844,85.5761719 C64.4628906,85.5761719 62.5911458,84.827474 61.09375,83.3300781 C59.4466146,81.6829427 58.6230469,79.7363281 58.6230469,77.4902344 C58.6230469,68.655599 58.6230469,55.328776 58.6230469,37.5097656 C58.6230469,29.124349 57.6497396,23.5091146 55.703125,20.6640625 C53.7565104,17.6692708 49.938151,16.171875 44.2480469,16.171875 C37.6595052,16.171875 31.3704427,18.5677083 25.3808594,23.359375 C19.2415365,28.1510417 16.171875,34.3652344 16.171875,42.0019531 C16.171875,45.5957031 16.171875,50.9114583 16.171875,57.9492188 C16.171875,62.2916667 16.171875,68.8053385 16.171875,77.4902344 C16.171875,79.7363281 15.4231771,81.6829427 13.9257812,83.3300781 C12.2786458,84.827474 10.3320312,85.5761719 8.0859375,85.5761719 C5.83984375,85.5761719 3.89322917,84.827474 2.24609375,83.3300781 C0.748697917,81.6829427 0,79.7363281 0,77.4902344 C0,73.1477865 0,66.6341146 0,57.9492188 C0,54.3554688 0,49.0397135 0,42.0019531 C0,34.514974 0,23.2096354 0,8.0859375 C0,5.83984375 0.748697917,3.89322917 2.24609375,2.24609375 C3.89322917,0.748697917 5.83984375,0 8.0859375,0 C10.3320312,0 12.2786458,0.748697917 13.9257812,2.24609375 C15.4231771,3.89322917 16.171875,5.83984375 16.171875,8.0859375 C16.171875,8.38541667 16.171875,8.90950521 16.171875,9.65820312 C19.9153646,6.66341146 24.1829427,4.34244792 28.9746094,2.6953125 C33.6165365,0.8984375 38.7076823,0 44.2480469,0 Z" transform="translate(10 55)"/></svg>