<svg xmlns="http://www.w3.org/2000/svg" width="120" height="203" viewBox="0 0 120 203"><path fill="#131313" d="M2912.56844,71.421875 C2912.56844,49.8548177 2917.03296,32.6149089 2925.96199,19.7021484 C2934.89103,6.78938802 2946.8422,0.333007812 2961.81551,0.333007812 C2976.78882,0.333007812 2988.73999,6.78938802 2997.66902,19.7021484 C3006.73543,32.6149089 3011.26863,49.8548177 3011.26863,71.421875 C3011.26863,92.7141927 3006.73543,109.885417 2997.66902,122.935547 C2988.60262,135.985677 2976.65145,142.510742 2961.81551,142.510742 C2947.11694,142.510742 2935.23445,135.985677 2926.16805,122.935547 C2917.10164,109.885417 2912.56844,92.7141927 2912.56844,71.421875 Z M2927.56844,71.5859375 C2927.56844,88.3450521 2930.72794,101.944661 2937.04695,112.384766 C2943.36596,122.6875 2951.67684,127.838867 2961.97957,127.838867 C2972.2823,127.838867 2980.59318,122.6875 2986.91219,112.384766 C2993.2312,101.944661 2996.3907,88.3450521 2996.3907,71.5859375 C2996.3907,63.2063802 2995.36043,54.6894531 2993.29988,46.0351563 C2991.23934,37.5182292 2987.80509,30.5123698 2982.99715,25.0175781 C2980.38712,21.9954427 2977.36499,19.6601563 2973.93074,18.0117188 C2970.35913,16.2259115 2966.3754,15.3330078 2961.97957,15.3330078 C2953.73738,15.3330078 2947.14363,18.1490885 2942.19832,23.78125 C2937.25301,29.4134115 2933.61271,36.2132161 2931.27742,44.1806641 C2930.04109,48.5764974 2929.07951,53.1097005 2928.39266,57.7802734 C2927.84318,62.4508464 2927.56844,67.0527344 2927.56844,71.5859375 Z" transform="translate(-2901.5 -.528)"/></svg>