<svg xmlns="http://www.w3.org/2000/svg" width="120" height="243" viewBox="0 0 120 243"><path fill="#131313" d="M11.0684375,94.8935547 C11.0684375,73.3264974 15.5329557,56.0865885 24.4619922,43.1738281 C33.3910286,30.2610677 45.3422005,23.8046875 60.3155078,23.8046875 C75.2888151,23.8046875 87.239987,30.2610677 96.1690234,43.1738281 C105.23543,56.0865885 109.768633,73.3264974 109.768633,94.8935547 C109.768633,116.185872 105.23543,133.357096 96.1690234,146.407227 C87.1026172,159.457357 75.1514453,165.982422 60.3155078,165.982422 C45.6169401,165.982422 33.7344531,159.457357 24.6680469,146.407227 C15.6016406,133.357096 11.0684375,116.185872 11.0684375,94.8935547 Z M26.0684375,95.0576172 C26.0684375,111.816732 29.2279427,125.416341 35.5469531,135.856445 C41.8659635,146.15918 50.1768359,151.310547 60.4795703,151.310547 C70.7823047,151.310547 79.0931771,146.15918 85.4121875,135.856445 C91.7311979,125.416341 94.8907031,111.816732 94.8907031,95.0576172 C94.8907031,86.6780599 93.8604297,78.1611328 91.7998828,69.5068359 C89.7393359,60.9899089 86.3050911,53.9840495 81.4971484,48.4892578 C78.8871224,45.4671224 75.864987,43.1318359 72.4307422,41.4833984 C68.8591276,39.6975911 64.8754036,38.8046875 60.4795703,38.8046875 C52.2373828,38.8046875 45.6436328,41.6207682 40.6983203,47.2529297 C35.7530078,52.8850911 32.1127083,59.6848958 29.7774219,67.6523438 C28.5410938,72.0481771 27.5795052,76.5813802 26.8926563,81.2519531 C26.3431771,85.922526 26.0684375,90.5244141 26.0684375,95.0576172 Z"/></svg>