<svg xmlns="http://www.w3.org/2000/svg" width="120" height="203" viewBox="0 0 120 203"><path fill="#131313" d="M2912.56844,131.893555 C2912.56844,110.326497 2917.03296,93.0865885 2925.96199,80.1738281 C2934.89103,67.2610677 2946.8422,60.8046875 2961.81551,60.8046875 C2976.78882,60.8046875 2988.73999,67.2610677 2997.66902,80.1738281 C3006.73543,93.0865885 3011.26863,110.326497 3011.26863,131.893555 C3011.26863,153.185872 3006.73543,170.357096 2997.66902,183.407227 C2988.60262,196.457357 2976.65145,202.982422 2961.81551,202.982422 C2947.11694,202.982422 2935.23445,196.457357 2926.16805,183.407227 C2917.10164,170.357096 2912.56844,153.185872 2912.56844,131.893555 Z M2927.56844,132.057617 C2927.56844,148.816732 2930.72794,162.416341 2937.04695,172.856445 C2943.36596,183.15918 2951.67684,188.310547 2961.97957,188.310547 C2972.2823,188.310547 2980.59318,183.15918 2986.91219,172.856445 C2993.2312,162.416341 2996.3907,148.816732 2996.3907,132.057617 C2996.3907,123.67806 2995.36043,115.161133 2993.29988,106.506836 C2991.23934,97.9899089 2987.80509,90.9840495 2982.99715,85.4892578 C2980.38712,82.4671224 2977.36499,80.1318359 2973.93074,78.4833984 C2970.35913,76.6975911 2966.3754,75.8046875 2961.97957,75.8046875 C2953.73738,75.8046875 2947.14363,78.6207682 2942.19832,84.2529297 C2937.25301,89.8850911 2933.61271,96.6848958 2931.27742,104.652344 C2930.04109,109.048177 2929.07951,113.58138 2928.39266,118.251953 C2927.84318,122.922526 2927.56844,127.524414 2927.56844,132.057617 Z" transform="translate(-2901.5)"/></svg>