<svg xmlns="http://www.w3.org/2000/svg" width="103" height="243" viewBox="0 0 103 243"><path fill="#131313" d="M11,122.023438 C11,108.846354 14.7434896,98.2148438 22.2304688,90.1289062 C29.7174479,82.0429688 39.6002604,78 51.8789062,78 C64.0078125,78 73.8157552,82.0429688 81.3027344,90.1289062 C88.7897135,98.2148438 92.5332031,108.846354 92.5332031,122.023438 C92.5332031,134.901042 88.7148438,145.457682 81.078125,153.693359 C73.5911458,161.779297 63.8580729,165.822266 51.8789062,165.822266 C39.8997396,165.822266 30.0917969,161.779297 22.4550781,153.693359 C14.8183594,145.457682 11,134.901042 11,122.023438 Z M27,121.851562 C27,128.440104 28.796875,134.729167 32.390625,140.71875 C35.984375,146.558594 42.3483073,149.478516 51.4824219,149.478516 C60.4667969,149.478516 66.7558594,146.558594 70.3496094,140.71875 C73.9433594,134.729167 75.7402344,128.440104 75.7402344,121.851562 C75.7402344,113.166667 73.6438802,106.353516 69.4511719,101.412109 C65.108724,96.4707031 59.1191406,94 51.4824219,94 C43.6959635,94 37.7063802,96.4707031 33.5136719,101.412109 C29.171224,106.353516 27,113.166667 27,121.851562 Z"/></svg>