<svg xmlns="http://www.w3.org/2000/svg" width="103" height="203" viewBox="0 0 103 203"><path fill="#131313" d="M0,44.0234375 C0,30.8463542 3.74348958,20.2148437 11.2304688,12.1289062 C18.7174479,4.04296875 28.6002604,0 40.8789063,0 C53.0078125,0 62.8157552,4.04296875 70.3027344,12.1289062 C77.7897135,20.2148437 81.5332031,30.8463542 81.5332031,44.0234375 C81.5332031,56.9010417 77.7148438,67.4576823 70.078125,75.6933594 C62.5911458,83.7792969 52.8580729,87.8222656 40.8789063,87.8222656 C28.8997396,87.8222656 19.0917969,83.7792969 11.4550781,75.6933594 C3.81835937,67.4576823 0,56.9010417 0,44.0234375 Z M16,43.8515625 C16,50.4401042 17.796875,56.7291667 21.390625,62.71875 C24.984375,68.5585938 31.3483073,71.4785156 40.4824219,71.4785156 C49.4667969,71.4785156 55.7558594,68.5585938 59.3496094,62.71875 C62.9433594,56.7291667 64.7402344,50.4401042 64.7402344,43.8515625 C64.7402344,35.1666667 62.6438802,28.3535156 58.4511719,23.4121094 C54.108724,18.4707031 48.1191406,16 40.4824219,16 C32.6959635,16 26.7063802,18.4707031 22.5136719,23.4121094 C18.171224,28.3535156 16,35.1666667 16,43.8515625 Z" transform="translate(11 54)"/></svg>