<svg xmlns="http://www.w3.org/2000/svg" width="120" height="203" viewBox="0 0 120 203"><path fill="#131313" d="M3210.73125,20.9277344 C3213.06654,24.499349 3214.92103,29.2386068 3216.29473,35.1455078 C3217.53105,41.0524089 3216.50078,48.1269531 3213.20391,56.3691406 C3211.69284,60.2154948 3209.42624,63.4436849 3206.4041,66.0537109 C3203.51934,68.8011068 3200.22246,71.1363932 3196.51348,73.0595703 C3189.50762,76.4938151 3181.74622,78.6917318 3173.2293,79.6533203 C3164.84974,80.7522786 3157.43177,81.3017578 3150.97539,81.3017578 C3149.87643,81.3017578 3148.77747,81.3017578 3147.67852,81.3017578 C3146.71693,81.3017578 3145.75534,81.2330729 3144.79375,81.0957031 C3144.79375,93.1842448 3144.79375,111.248372 3144.79375,135.288086 C3144.79375,137.348633 3144.03822,139.13444 3142.52715,140.645508 C3141.15345,142.019206 3139.43633,142.706055 3137.37578,142.706055 C3135.31523,142.706055 3133.52943,142.019206 3132.01836,140.645508 C3130.50729,139.13444 3129.75176,137.348633 3129.75176,135.288086 C3129.75176,106.989909 3129.75176,64.5426432 3129.75176,7.94628906 C3129.75176,7.94628906 3129.75176,7.94628906 3129.75176,7.94628906 C3129.75176,7.94628906 3129.75176,7.94628906 3129.75176,7.94628906 C3129.75176,6.43522135 3130.23255,5.06152344 3131.19414,3.82519531 C3132.01836,2.58886719 3133.11732,1.62727865 3134.49102,0.940429687 C3134.90312,0.803059896 3135.31523,0.665690104 3135.72734,0.528320312 C3136.27682,0.528320312 3136.8263,0.528320312 3137.37578,0.528320312 C3143.55742,0.528320312 3152.82988,0.528320312 3165.19316,0.528320312 C3174.94642,0.528320312 3183.94414,2.3141276 3192.18633,5.88574219 C3200.29115,9.59472656 3206.47279,14.608724 3210.73125,20.9277344 Z M3198.74297,51.0595703 C3200.52878,46.9384766 3201.35299,43.0234375 3201.21562,39.3144531 C3200.94089,35.7428385 3199.84193,32.5146484 3197.91875,29.6298828 C3195.03398,25.3714193 3190.56947,22.0058594 3184.5252,19.5332031 C3178.48092,16.9231771 3171.88717,15.6181641 3164.74395,15.6181641 C3160.21074,15.6181641 3153.41094,15.6181641 3144.34453,15.6181641 C3144.34453,26.882487 3144.34453,43.7789714 3144.34453,66.3076172 C3147.09193,66.444987 3150.45749,66.5136719 3154.44121,66.5136719 C3158.42493,66.3763021 3162.54603,66.0328776 3166.80449,65.4833984 C3175.59616,64.5218099 3182.73939,62.8046875 3188.23418,60.3320313 C3193.72897,57.859375 3197.2319,54.7685547 3198.74297,51.0595703 Z" transform="translate(-3114.082 -.528)"/></svg>