<svg xmlns="http://www.w3.org/2000/svg" width="120" height="243" viewBox="0 0 120 243"><path fill="#131313" d="M96.6494141,44.3994141 C98.9847005,47.9710286 100.839193,52.7102865 102.212891,58.6171875 C103.449219,64.5240885 102.418945,71.5986328 99.1220703,79.8408203 C97.6110026,83.6871745 95.344401,86.9153646 92.3222656,89.5253906 C89.4375,92.2727865 86.140625,94.6080729 82.4316406,96.53125 C75.4257812,99.9654948 67.664388,102.163411 59.1474609,103.125 C50.7679036,104.223958 43.3499349,104.773438 36.8935547,104.773438 C35.7945964,104.773438 34.695638,104.773438 33.5966797,104.773438 C32.6350911,104.773438 31.6735026,104.704753 30.7119141,104.567383 C30.7119141,116.655924 30.7119141,134.720052 30.7119141,158.759766 C30.7119141,160.820312 29.9563802,162.60612 28.4453125,164.117188 C27.0716146,165.490885 25.3544922,166.177734 23.2939453,166.177734 C21.2333984,166.177734 19.4475911,165.490885 17.9365234,164.117188 C16.4254557,162.60612 15.6699219,160.820312 15.6699219,158.759766 C15.6699219,130.461589 15.6699219,88.0143229 15.6699219,31.4179688 C15.6699219,31.4179688 15.6699219,31.4179688 15.6699219,31.4179688 C15.6699219,31.4179688 15.6699219,31.4179688 15.6699219,31.4179688 C15.6699219,29.906901 16.1507161,28.5332031 17.1123047,27.296875 C17.9365234,26.0605469 19.0354818,25.0989583 20.4091797,24.4121094 C20.8212891,24.2747396 21.2333984,24.1373698 21.6455078,24 C22.194987,24 22.7444661,24 23.2939453,24 C29.4755859,24 38.7480469,24 51.1113281,24 C60.8645833,24 69.8623047,25.7858073 78.1044922,29.3574219 C86.2093099,33.0664062 92.3909505,38.0804036 96.6494141,44.3994141 Z M84.6611328,74.53125 C86.4469401,70.4101562 87.2711589,66.4951172 87.1337891,62.7861328 C86.8590495,59.2145182 85.7600911,55.9863281 83.8369141,53.1015625 C80.9521484,48.843099 76.4876302,45.4775391 70.4433594,43.0048828 C64.3990885,40.3948568 57.8053385,39.0898438 50.6621094,39.0898438 C46.1289062,39.0898438 39.3291016,39.0898438 30.2626953,39.0898438 C30.2626953,50.3541667 30.2626953,67.250651 30.2626953,89.7792969 C33.0100911,89.9166667 36.375651,89.9853516 40.359375,89.9853516 C44.343099,89.8479818 48.4641927,89.5045573 52.7226562,88.9550781 C61.5143229,87.9934896 68.6575521,86.2763672 74.1523438,83.8037109 C79.6471354,81.3310547 83.1500651,78.2402344 84.6611328,74.53125 Z"/></svg>