<svg xmlns="http://www.w3.org/2000/svg" width="120" height="203" viewBox="0 0 120 203"><path fill="#131313" d="M3210.73125,81.3994141 C3213.06654,84.9710286 3214.92103,89.7102865 3216.29473,95.6171875 C3217.53105,101.524089 3216.50078,108.598633 3213.20391,116.84082 C3211.69284,120.687174 3209.42624,123.915365 3206.4041,126.525391 C3203.51934,129.272786 3200.22246,131.608073 3196.51348,133.53125 C3189.50762,136.965495 3181.74622,139.163411 3173.2293,140.125 C3164.84974,141.223958 3157.43177,141.773438 3150.97539,141.773438 C3149.87643,141.773438 3148.77747,141.773438 3147.67852,141.773438 C3146.71693,141.773438 3145.75534,141.704753 3144.79375,141.567383 C3144.79375,153.655924 3144.79375,171.720052 3144.79375,195.759766 C3144.79375,197.820312 3144.03822,199.60612 3142.52715,201.117188 C3141.15345,202.490885 3139.43633,203.177734 3137.37578,203.177734 C3135.31523,203.177734 3133.52943,202.490885 3132.01836,201.117188 C3130.50729,199.60612 3129.75176,197.820312 3129.75176,195.759766 C3129.75176,167.461589 3129.75176,125.014323 3129.75176,68.4179688 C3129.75176,68.4179688 3129.75176,68.4179688 3129.75176,68.4179688 C3129.75176,68.4179688 3129.75176,68.4179688 3129.75176,68.4179688 C3129.75176,66.906901 3130.23255,65.5332031 3131.19414,64.296875 C3132.01836,63.0605469 3133.11732,62.0989583 3134.49102,61.4121094 C3134.90312,61.2747396 3135.31523,61.1373698 3135.72734,61 C3136.27682,61 3136.8263,61 3137.37578,61 C3143.55742,61 3152.82988,61 3165.19316,61 C3174.94642,61 3183.94414,62.7858073 3192.18633,66.3574219 C3200.29115,70.0664062 3206.47279,75.0804036 3210.73125,81.3994141 Z M3198.74297,111.53125 C3200.52878,107.410156 3201.35299,103.495117 3201.21562,99.7861328 C3200.94089,96.2145182 3199.84193,92.9863281 3197.91875,90.1015625 C3195.03398,85.843099 3190.56947,82.4775391 3184.5252,80.0048828 C3178.48092,77.3948568 3171.88717,76.0898438 3164.74395,76.0898438 C3160.21074,76.0898438 3153.41094,76.0898438 3144.34453,76.0898438 C3144.34453,87.3541667 3144.34453,104.250651 3144.34453,126.779297 C3147.09193,126.916667 3150.45749,126.985352 3154.44121,126.985352 C3158.42493,126.847982 3162.54603,126.504557 3166.80449,125.955078 C3175.59616,124.99349 3182.73939,123.276367 3188.23418,120.803711 C3193.72897,118.331055 3197.2319,115.240234 3198.74297,111.53125 Z" transform="translate(-3114.082)"/></svg>