<svg xmlns="http://www.w3.org/2000/svg" width="99" height="203" viewBox="0 0 99 203"><path fill="#131313" d="M64.2382813,12.5139509 C67.6822917,15.8082217 70.6770833,20.749628 73.2226563,27.3381696 C74.4205729,30.6324405 75.0195312,34.6005394 75.0195312,39.2424665 C75.0195312,43.5849144 74.4205729,48.4514509 73.2226563,53.8420759 C72.1744792,59.0829613 70.2278646,63.7248884 67.3828125,67.7678571 C64.6875,71.8108259 61.1686198,75.2548363 56.8261719,78.0998884 C50.3873698,82.1428571 43.3496094,84.4638207 35.7128906,85.062779 C28.0761719,85.6617374 21.5625,85.6617374 16.171875,85.062779 C16.171875,100.635696 16.171875,107.995071 16.171875,139.140904 C16.171875,141.386998 15.4231771,143.258743 13.9257812,144.756138 C12.2786458,146.403274 10.3320312,147.226842 8.0859375,147.226842 C5.83984375,147.226842 3.89322917,146.403274 2.24609375,144.756138 C0.748697917,143.258743 0,141.386998 0,139.140904 C0,121.471633 0,111.042597 0,75.8537946 C0,75.7040551 0,75.6291853 0,75.6291853 C0,75.6291853 0,75.5543155 0,75.4045759 C0,61.0295759 0,39.3173363 0,10.2678571 C0,8.32124256 0.598958333,6.67410714 1.796875,5.32645089 C2.84505208,3.82905506 4.34244792,2.85574777 6.2890625,2.40652902 C15.5729167,0.160435268 25.7552083,-0.513392857 36.8359375,0.385044643 C47.9166667,1.28348214 57.0507813,5.32645089 64.2382813,12.5139509 Z M58.328125,50.3134014 C59.5260417,44.3238181 59.750651,39.0829327 59.0019531,34.5907452 C58.2532552,30.2482973 56.4563802,26.6545473 53.6113281,23.8094952 C49.718099,20.0660056 44.327474,17.6701723 37.4394531,16.6219952 C30.7011719,15.7235577 23.8880208,15.7984275 17,16.8466046 C17,28.3765525 17,45.5966046 17,68.5067608 C21.4921875,69.1057192 26.8079427,69.1805889 32.9472656,68.7313702 C39.0865885,68.431891 44.4023438,66.8596254 48.8945312,64.0145733 C51.4401042,62.5171775 53.4615885,60.6454327 54.9589844,58.3993389 C56.4563802,56.0035056 57.5794271,53.3081931 58.328125,50.3134014 Z" transform="translate(11.572 55.63)"/></svg>