<svg xmlns="http://www.w3.org/2000/svg" width="99" height="203" viewBox="0 0 99 203"><path fill="#131313" d="M3658.81055,129.14481 C3662.25456,132.439081 3665.24935,137.380487 3667.79492,143.969029 C3668.99284,147.2633 3669.5918,151.231399 3669.5918,155.873326 C3669.5918,160.215774 3668.99284,165.08231 3667.79492,170.472935 C3666.74674,175.713821 3664.80013,180.355748 3661.95508,184.398717 C3659.25977,188.441685 3655.74089,191.885696 3651.39844,194.730748 C3644.95964,198.773717 3637.92188,201.09468 3630.28516,201.693638 C3622.64844,202.292597 3616.13477,202.292597 3610.74414,201.693638 C3610.74414,217.266555 3610.74414,224.62593 3610.74414,255.771763 C3610.74414,258.017857 3609.99544,259.889602 3608.49805,261.386998 C3606.85091,263.034133 3604.9043,263.857701 3602.6582,263.857701 C3600.41211,263.857701 3598.46549,263.034133 3596.81836,261.386998 C3595.32096,259.889602 3594.57227,258.017857 3594.57227,255.771763 C3594.57227,238.102493 3594.57227,227.673456 3594.57227,192.484654 C3594.57227,192.334914 3594.57227,192.260045 3594.57227,192.260045 C3594.57227,192.260045 3594.57227,192.185175 3594.57227,192.035435 C3594.57227,177.660435 3594.57227,155.948196 3594.57227,126.898717 C3594.57227,124.952102 3595.17122,123.304967 3596.36914,121.95731 C3597.41732,120.459914 3598.91471,119.486607 3600.86133,119.037388 C3610.14518,116.791295 3620.32747,116.117467 3631.4082,117.015904 C3642.48893,117.914342 3651.62305,121.95731 3658.81055,129.14481 Z M3652.90039,166.944261 C3654.09831,160.954677 3654.32292,155.713792 3653.57422,151.221605 C3652.82552,146.879157 3651.02865,143.285407 3648.18359,140.440355 C3644.29036,136.696865 3638.89974,134.301032 3632.01172,133.252855 C3625.27344,132.354417 3618.46029,132.429287 3611.57227,133.477464 C3611.57227,145.007412 3611.57227,162.227464 3611.57227,185.13762 C3616.06445,185.736579 3621.38021,185.811448 3627.51953,185.36223 C3633.65885,185.06275 3638.97461,183.490485 3643.4668,180.645433 C3646.01237,179.148037 3648.03385,177.276292 3649.53125,175.030198 C3651.02865,172.634365 3652.15169,169.939052 3652.90039,166.944261 Z" transform="translate(-3583)"/></svg>