<svg xmlns="http://www.w3.org/2000/svg" width="99" height="243" viewBox="0 0 99 243"><path fill="#131313" d="M75.8105469,92.1448103 C79.2545573,95.4390811 82.249349,100.380487 84.7949219,106.969029 C85.9928385,110.2633 86.5917969,114.231399 86.5917969,118.873326 C86.5917969,123.215774 85.9928385,128.08231 84.7949219,133.472935 C83.7467448,138.713821 81.8001302,143.355748 78.9550781,147.398717 C76.2597656,151.441685 72.7408854,154.885696 68.3984375,157.730748 C61.9596354,161.773717 54.921875,164.09468 47.2851562,164.693638 C39.6484375,165.292597 33.1347656,165.292597 27.7441406,164.693638 C27.7441406,180.266555 27.7441406,203.62593 27.7441406,234.771763 C27.7441406,237.017857 26.9954427,238.889602 25.4980469,240.386998 C23.8509115,242.034133 21.9042969,242.857701 19.6582031,242.857701 C17.4121094,242.857701 15.4654948,242.034133 13.8183594,240.386998 C12.3209635,238.889602 11.5722656,237.017857 11.5722656,234.771763 C11.5722656,217.102493 11.5722656,190.673456 11.5722656,155.484654 C11.5722656,155.334914 11.5722656,155.260045 11.5722656,155.260045 C11.5722656,155.260045 11.5722656,155.185175 11.5722656,155.035435 C11.5722656,140.660435 11.5722656,118.948196 11.5722656,89.8987165 C11.5722656,87.9521019 12.171224,86.3049665 13.3691406,84.9573103 C14.4173177,83.4599144 15.9147135,82.4866071 17.8613281,82.0373884 C27.1451823,79.7912946 37.327474,79.1174665 48.4082031,80.015904 C59.4889323,80.9143415 68.6230469,84.9573103 75.8105469,92.1448103 Z M69.9003906,129.944261 C71.0983073,123.954677 71.3229167,118.713792 70.5742188,114.221605 C69.8255208,109.879157 68.0286458,106.285407 65.1835938,103.440355 C61.2903646,99.696865 55.8997396,97.3010317 49.0117188,96.2528546 C42.2734375,95.3544171 35.4602865,95.4292869 28.5722656,96.4774639 C28.5722656,108.007412 28.5722656,125.227464 28.5722656,148.13762 C33.0644531,148.736579 38.3802083,148.811448 44.5195312,148.36223 C50.6588542,148.06275 55.9746094,146.490485 60.4667969,143.645433 C63.0123698,142.148037 65.0338542,140.276292 66.53125,138.030198 C68.0286458,135.634365 69.1516927,132.939052 69.9003906,129.944261 Z"/></svg>