<svg xmlns="http://www.w3.org/2000/svg" width="120" height="243" viewBox="0 0 120 243"><path fill="#131313" d="M106.719453,153.292969 C108.230521,154.804036 108.986055,156.589844 108.986055,158.650391 C108.986055,160.710938 108.230521,162.496745 106.719453,164.007812 C106.032604,164.694661 105.208385,165.244141 104.246797,165.65625 C103.422578,165.93099 102.529674,166.068359 101.568086,166.068359 C100.606497,166.068359 99.6449089,165.93099 98.6833203,165.65625 C97.7217318,165.244141 96.897513,164.694661 96.2106641,164.007812 C94.287487,162.084635 91.4027214,159.19987 87.5563672,155.353516 C83.710013,158.78776 79.4515495,161.466471 74.7809766,163.389648 C70.1104036,165.175456 65.0277214,166.068359 59.5329297,166.068359 C44.834362,166.068359 32.951875,159.543294 23.8854687,146.493164 C14.8190625,133.443034 10.2858594,116.27181 10.2858594,94.9794922 C10.2858594,73.4124349 14.7503776,56.172526 23.6794141,43.2597656 C32.6084505,30.3470052 44.5596224,23.890625 59.5329297,23.890625 C74.506237,23.890625 86.5260937,30.3470052 95.5925,43.2597656 C104.521536,56.172526 108.986055,73.4124349 108.986055,94.9794922 C108.986055,104.870117 107.955781,113.936523 105.895234,122.178711 C103.834687,130.420898 100.881237,137.632812 97.0348828,143.814453 C98.6833203,145.325521 100.331758,146.905273 101.980195,148.553711 C103.491263,150.202148 105.071016,151.781901 106.719453,153.292969 Z M59.6969922,151.396484 C62.9938672,151.396484 66.0846875,150.847005 68.9694531,149.748047 C71.8542187,148.649089 74.5329297,147.000651 77.0055859,144.802734 C74.6702995,142.467448 71.1673698,138.964518 66.4967969,134.293945 C64.9857292,132.782878 64.2301953,130.99707 64.2301953,128.936523 C64.2301953,126.875977 64.9857292,125.090169 66.4967969,123.579102 C68.0078646,122.205404 69.7936719,121.518555 71.8542187,121.518555 C73.9147656,121.518555 75.631888,122.205404 77.0055859,123.579102 C79.0661328,125.639648 82.1569531,128.730469 86.2780469,132.851562 C88.7507031,128.04362 90.6738802,122.480143 92.0475781,116.161133 C93.421276,109.704753 94.108125,102.698893 94.108125,95.1435547 C94.108125,90.6103516 93.8333854,86.0084635 93.2839062,81.3378906 C92.7344271,76.6673177 91.8415234,72.1341146 90.6051953,67.7382812 C88.2699089,59.7708333 84.6296094,52.9710286 79.6842969,47.3388672 C74.6016146,41.7067057 67.9391797,38.890625 59.6969922,38.890625 C51.4548047,38.890625 44.8610547,41.7067057 39.9157422,47.3388672 C34.9704297,52.9710286 31.3301302,59.7708333 28.9948437,67.7382812 C27.7585156,72.1341146 26.865612,76.6673177 26.3161328,81.3378906 C25.6292839,86.0084635 25.2858594,90.6103516 25.2858594,95.1435547 C25.2858594,111.902669 28.4453646,125.502279 34.764375,135.942383 C41.0833854,146.245117 49.3942578,151.396484 59.6969922,151.396484 Z"/></svg>