<svg xmlns="http://www.w3.org/2000/svg" width="120" height="203" viewBox="0 0 120 203"><path fill="#131313" d="M3440.47121,129.821289 C3441.98228,131.332357 3442.73781,133.118164 3442.73781,135.178711 C3442.73781,137.239258 3441.98228,139.025065 3440.47121,140.536133 C3439.78436,141.222982 3438.96014,141.772461 3437.99855,142.18457 C3437.17434,142.45931 3436.28143,142.59668 3435.31984,142.59668 C3434.35826,142.59668 3433.39667,142.45931 3432.43508,142.18457 C3431.47349,141.772461 3430.64927,141.222982 3429.96242,140.536133 C3428.03924,138.612956 3425.15448,135.72819 3421.30812,131.881836 C3417.46177,135.316081 3413.20331,137.994792 3408.53273,139.917969 C3403.86216,141.703776 3398.77948,142.59668 3393.28469,142.59668 C3378.58612,142.59668 3366.70363,136.071615 3357.63723,123.021484 C3348.57082,109.971354 3344.03762,92.8001302 3344.03762,71.5078125 C3344.03762,49.9407552 3348.50214,32.7008464 3357.43117,19.7880859 C3366.36021,6.87532552 3378.31138,0.418945312 3393.28469,0.418945312 C3408.25799,0.418945312 3420.27785,6.87532552 3429.34426,19.7880859 C3438.27329,32.7008464 3442.73781,49.9407552 3442.73781,71.5078125 C3442.73781,81.3984375 3441.70754,90.4648437 3439.64699,98.7070312 C3437.58645,106.949219 3434.63299,114.161133 3430.78664,120.342773 C3432.43508,121.853841 3434.08352,123.433594 3435.73195,125.082031 C3437.24302,126.730469 3438.82277,128.310221 3440.47121,129.821289 Z M3393.44875,127.924805 C3396.74562,127.924805 3399.83645,127.375326 3402.72121,126.276367 C3405.60598,125.177409 3408.28469,123.528971 3410.75734,121.331055 C3408.42206,118.995768 3404.91913,115.492839 3400.24855,110.822266 C3398.73749,109.311198 3397.98195,107.525391 3397.98195,105.464844 C3397.98195,103.404297 3398.73749,101.61849 3400.24855,100.107422 C3401.75962,98.733724 3403.54543,98.046875 3405.60598,98.046875 C3407.66652,98.046875 3409.38365,98.733724 3410.75734,100.107422 C3412.81789,102.167969 3415.90871,105.258789 3420.0298,109.379883 C3422.50246,104.57194 3424.42564,99.0084635 3425.79934,92.6894531 C3427.17303,86.2330729 3427.85988,79.2272135 3427.85988,71.671875 C3427.85988,67.1386719 3427.58514,62.5367839 3427.03566,57.8662109 C3426.48618,53.195638 3425.59328,48.6624349 3424.35695,44.2666016 C3422.02167,36.2991536 3418.38137,29.499349 3413.43605,23.8671875 C3408.35337,18.235026 3401.69094,15.4189453 3393.44875,15.4189453 C3385.20656,15.4189453 3378.61281,18.235026 3373.6675,23.8671875 C3368.72219,29.499349 3365.08189,36.2991536 3362.7466,44.2666016 C3361.51027,48.6624349 3360.61737,53.195638 3360.06789,57.8662109 C3359.38104,62.5367839 3359.03762,67.1386719 3359.03762,71.671875 C3359.03762,88.4309896 3362.19712,102.030599 3368.51613,112.470703 C3374.83514,122.773437 3383.14602,127.924805 3393.44875,127.924805 Z" transform="translate(-3333.752 -.528)"/></svg>