<svg xmlns="http://www.w3.org/2000/svg" width="120" height="203" viewBox="0 0 120 203"><path fill="#131313" d="M3440.47121,190.292969 C3441.98228,191.804036 3442.73781,193.589844 3442.73781,195.650391 C3442.73781,197.710937 3441.98228,199.496745 3440.47121,201.007813 C3439.78436,201.694661 3438.96014,202.244141 3437.99855,202.65625 C3437.17434,202.93099 3436.28143,203.068359 3435.31984,203.068359 C3434.35826,203.068359 3433.39667,202.93099 3432.43508,202.65625 C3431.47349,202.244141 3430.64927,201.694661 3429.96242,201.007813 C3428.03924,199.084635 3425.15448,196.19987 3421.30813,192.353516 C3417.46177,195.78776 3413.20331,198.466471 3408.53273,200.389648 C3403.86216,202.175456 3398.77948,203.068359 3393.28469,203.068359 C3378.58612,203.068359 3366.70363,196.543294 3357.63723,183.493164 C3348.57082,170.443034 3344.03762,153.27181 3344.03762,131.979492 C3344.03762,110.412435 3348.50214,93.172526 3357.43117,80.2597656 C3366.36021,67.3470052 3378.31138,60.890625 3393.28469,60.890625 C3408.25799,60.890625 3420.27785,67.3470052 3429.34426,80.2597656 C3438.27329,93.172526 3442.73781,110.412435 3442.73781,131.979492 C3442.73781,141.870117 3441.70754,150.936523 3439.64699,159.178711 C3437.58645,167.420898 3434.63299,174.632812 3430.78664,180.814453 C3432.43508,182.325521 3434.08352,183.905273 3435.73195,185.553711 C3437.24302,187.202148 3438.82277,188.781901 3440.47121,190.292969 Z M3393.44875,188.396484 C3396.74563,188.396484 3399.83645,187.847005 3402.72121,186.748047 C3405.60598,185.649089 3408.28469,184.000651 3410.75734,181.802734 C3408.42206,179.467448 3404.91913,175.964518 3400.24855,171.293945 C3398.73749,169.782878 3397.98195,167.99707 3397.98195,165.936523 C3397.98195,163.875977 3398.73749,162.090169 3400.24855,160.579102 C3401.75962,159.205404 3403.54543,158.518555 3405.60598,158.518555 C3407.66652,158.518555 3409.38365,159.205404 3410.75734,160.579102 C3412.81789,162.639648 3415.90871,165.730469 3420.0298,169.851562 C3422.50246,165.04362 3424.42564,159.480143 3425.79934,153.161133 C3427.17303,146.704753 3427.85988,139.698893 3427.85988,132.143555 C3427.85988,127.610352 3427.58514,123.008464 3427.03566,118.337891 C3426.48618,113.667318 3425.59328,109.134115 3424.35695,104.738281 C3422.02167,96.7708333 3418.38137,89.9710286 3413.43605,84.3388672 C3408.35337,78.7067057 3401.69094,75.890625 3393.44875,75.890625 C3385.20656,75.890625 3378.61281,78.7067057 3373.6675,84.3388672 C3368.72219,89.9710286 3365.08189,96.7708333 3362.7466,104.738281 C3361.51027,109.134115 3360.61737,113.667318 3360.06789,118.337891 C3359.38104,123.008464 3359.03762,127.610352 3359.03762,132.143555 C3359.03762,148.902669 3362.19712,162.502279 3368.51613,172.942383 C3374.83514,183.245117 3383.14602,188.396484 3393.44875,188.396484 Z" transform="translate(-3333.752)"/></svg>