<svg xmlns="http://www.w3.org/2000/svg" width="115" height="203" viewBox="0 0 115 203"><path fill="#131313" d="M3953.08984,230.824219 C3954.73698,232.321615 3955.56055,234.193359 3955.56055,236.439453 C3955.56055,238.835286 3954.73698,240.781901 3953.08984,242.279297 C3948.7474,246.621745 3942.23372,253.135417 3933.54883,261.820312 C3932.80013,262.56901 3931.90169,263.167969 3930.85352,263.617188 C3929.80534,264.066406 3928.75716,264.291016 3927.70898,264.291016 C3927.25977,264.291016 3926.73568,264.216146 3926.13672,264.066406 C3925.6875,264.066406 3925.16341,263.916667 3924.56445,263.617188 C3923.06706,263.018229 3921.86914,262.044922 3920.9707,260.697266 C3920.07227,259.349609 3919.62305,257.852214 3919.62305,256.205078 C3919.62305,239.434245 3919.62305,230.277995 3919.62305,196.736328 C3915.87956,198.533203 3911.91146,199.955729 3907.71875,201.003906 C3903.3763,202.201823 3899.18359,202.800781 3895.14062,202.800781 C3890.34896,202.800781 3885.93164,201.977214 3881.88867,200.330078 C3877.8457,198.832682 3874.32682,196.661458 3871.33203,193.816406 C3867.88802,190.372396 3865.26758,186.179688 3863.4707,181.238281 C3861.82357,176.296875 3861,170.606771 3861,164.167969 C3861,150.242188 3864.44401,139.386068 3871.33203,131.599609 C3878.36979,123.813151 3886.00651,119.171224 3894.24219,117.673828 C3898.88411,116.775391 3903.3763,116.775391 3907.71875,117.673828 C3912.21094,118.572266 3916.32878,120.294271 3920.07227,122.839844 C3920.52148,121.192708 3921.41992,119.770182 3922.76758,118.572266 C3924.26497,117.524089 3925.91211,117 3927.70898,117 C3929.95508,117 3931.90169,117.748698 3933.54883,119.246094 C3935.19596,120.893229 3936.01953,122.839844 3936.01953,125.085937 C3936.01953,128.529948 3936.01953,131.973958 3936.01953,135.417969 C3936.01953,138.71224 3936.01953,142.08138 3936.01953,145.525391 C3936.01953,169.333984 3936.01953,188.972005 3936.01953,236.439453 C3937.21745,235.241536 3939.08919,233.369792 3941.63477,230.824219 C3943.13216,229.177083 3945.00391,228.353516 3947.25,228.353516 C3949.49609,228.353516 3951.44271,229.177083 3953.08984,230.824219 Z M3919.65039,160.607422 C3919.65039,157.61263 3919.65039,153.195312 3919.65039,147.355469 C3917.4043,142.264323 3914.55924,138.670573 3911.11523,136.574219 C3907.67122,134.477865 3904.22721,133.429688 3900.7832,133.429688 C3900.18424,133.429688 3899.58529,133.504557 3898.98633,133.654297 C3898.38737,133.654297 3897.86328,133.729167 3897.41406,133.878906 C3892.32292,134.777344 3887.68099,137.772135 3883.48828,142.863281 C3879.29557,147.954427 3877.19922,155.067057 3877.19922,164.201172 C3877.19922,173.784505 3878.99609,179.774089 3882.58984,182.169922 C3886.03385,184.416016 3888.50456,185.763672 3890.00195,186.212891 C3896.14128,187.560547 3902.35547,186.811849 3908.64453,183.966797 C3914.78385,181.121745 3918.45247,178.800781 3919.65039,177.003906 C3919.65039,174.158854 3919.65039,171.388672 3919.65039,168.693359 C3919.65039,165.998047 3919.65039,163.302734 3919.65039,160.607422 Z" transform="translate(-3851)"/></svg>