<svg xmlns="http://www.w3.org/2000/svg" width="115" height="243" viewBox="0 0 115 243"><path fill="#131313" d="M102.089844,209.824219 C103.736979,211.321615 104.560547,213.193359 104.560547,215.439453 C104.560547,217.835286 103.736979,219.781901 102.089844,221.279297 C97.7473958,225.621745 91.233724,232.135417 82.5488281,240.820312 C81.8001302,241.56901 80.9016927,242.167969 79.8535156,242.617188 C78.8053385,243.066406 77.7571615,243.291016 76.7089844,243.291016 C76.2597656,243.291016 75.7356771,243.216146 75.1367188,243.066406 C74.6875,243.066406 74.1634115,242.916667 73.5644531,242.617188 C72.0670573,242.018229 70.8691406,241.044922 69.9707031,239.697266 C69.0722656,238.349609 68.6230469,236.852214 68.6230469,235.205078 C68.6230469,218.434245 68.6230469,193.277995 68.6230469,159.736328 C64.8795573,161.533203 60.9114583,162.955729 56.71875,164.003906 C52.3763021,165.201823 48.1835938,165.800781 44.140625,165.800781 C39.3489583,165.800781 34.9316406,164.977214 30.8886719,163.330078 C26.8457031,161.832682 23.3268229,159.661458 20.3320312,156.816406 C16.8880208,153.372396 14.2675781,149.179688 12.4707031,144.238281 C10.8235677,139.296875 10,133.606771 10,127.167969 C10,113.242188 13.4440104,102.386068 20.3320312,94.5996094 C27.3697917,86.813151 35.0065104,82.171224 43.2421875,80.6738281 C47.8841146,79.7753906 52.3763021,79.7753906 56.71875,80.6738281 C61.2109375,81.5722656 65.328776,83.2942708 69.0722656,85.8398438 C69.5214844,84.1927083 70.4199219,82.7701823 71.7675781,81.5722656 C73.264974,80.5240885 74.9121094,80 76.7089844,80 C78.9550781,80 80.9016927,80.7486979 82.5488281,82.2460938 C84.1959635,83.8932292 85.0195312,85.8398438 85.0195312,88.0859375 C85.0195312,91.5299479 85.0195312,94.9739583 85.0195312,98.4179688 C85.0195312,101.71224 85.0195312,105.08138 85.0195312,108.525391 C85.0195312,132.333984 85.0195312,167.972005 85.0195312,215.439453 C86.2174479,214.241536 88.0891927,212.369792 90.6347656,209.824219 C92.1321615,208.177083 94.0039062,207.353516 96.25,207.353516 C98.4960938,207.353516 100.442708,208.177083 102.089844,209.824219 Z M68.6503906,123.607422 C68.6503906,120.61263 68.6503906,116.195312 68.6503906,110.355469 C66.4042969,105.264323 63.5592448,101.670573 60.1152344,99.5742188 C56.671224,97.4778646 53.2272135,96.4296875 49.7832031,96.4296875 C49.1842448,96.4296875 48.5852865,96.5045573 47.9863281,96.6542969 C47.3873698,96.6542969 46.8632812,96.7291667 46.4140625,96.8789062 C41.3229167,97.7773438 36.6809896,100.772135 32.4882812,105.863281 C28.2955729,110.954427 26.1992188,118.067057 26.1992188,127.201172 C26.1992188,136.784505 27.9960938,142.774089 31.5898438,145.169922 C35.0338542,147.416016 37.5045573,148.763672 39.0019531,149.212891 C45.141276,150.560547 51.3554688,149.811849 57.6445312,146.966797 C63.7838542,144.121745 67.452474,141.800781 68.6503906,140.003906 C68.6503906,137.158854 68.6503906,134.388672 68.6503906,131.693359 C68.6503906,128.998047 68.6503906,126.302734 68.6503906,123.607422 Z"/></svg>