<svg xmlns="http://www.w3.org/2000/svg" width="115" height="203" viewBox="0 0 115 203"><path fill="#131313" d="M92.0898437,113.824219 C93.7369792,115.321615 94.5605469,117.193359 94.5605469,119.439453 C94.5605469,121.835286 93.7369792,123.781901 92.0898437,125.279297 C87.7473958,129.621745 81.233724,136.135417 72.5488281,144.820312 C71.8001302,145.56901 70.9016927,146.167969 69.8535156,146.617188 C68.8053385,147.066406 67.7571615,147.291016 66.7089844,147.291016 C66.2597656,147.291016 65.7356771,147.216146 65.1367187,147.066406 C64.6875,147.066406 64.1634115,146.916667 63.5644531,146.617188 C62.0670573,146.018229 60.8691406,145.044922 59.9707031,143.697266 C59.0722656,142.349609 58.6230469,140.852214 58.6230469,139.205078 C58.6230469,122.434245 58.6230469,113.277995 58.6230469,79.7363281 C54.8795573,81.5332031 50.9114583,82.9557292 46.71875,84.0039062 C42.3763021,85.2018229 38.1835937,85.8007812 34.140625,85.8007812 C29.3489583,85.8007812 24.9316406,84.9772135 20.8886719,83.3300781 C16.8457031,81.8326823 13.3268229,79.6614583 10.3320313,76.8164062 C6.88802083,73.3723958 4.26757812,69.1796875 2.47070312,64.2382813 C0.823567708,59.296875 0,53.6067708 0,47.1679688 C0,33.2421875 3.44401042,22.3860677 10.3320313,14.5996094 C17.3697917,6.81315104 25.0065104,2.17122396 33.2421875,0.673828125 C37.8841146,-0.224609375 42.3763021,-0.224609375 46.71875,0.673828125 C51.2109375,1.57226562 55.328776,3.29427083 59.0722656,5.83984375 C59.5214844,4.19270833 60.4199219,2.77018229 61.7675781,1.57226562 C63.264974,0.524088542 64.9121094,0 66.7089844,0 C68.9550781,0 70.9016927,0.748697917 72.5488281,2.24609375 C74.1959635,3.89322917 75.0195312,5.83984375 75.0195312,8.0859375 C75.0195312,11.5299479 75.0195312,14.9739583 75.0195312,18.4179688 C75.0195312,21.7122396 75.0195312,25.0813802 75.0195312,28.5253906 C75.0195312,52.3339844 75.0195312,71.9720052 75.0195312,119.439453 C76.2174479,118.241536 78.0891927,116.369792 80.6347656,113.824219 C82.1321615,112.177083 84.0039062,111.353516 86.25,111.353516 C88.4960937,111.353516 90.4427083,112.177083 92.0898437,113.824219 Z M58.6503906,43.6074219 C58.6503906,40.6126302 58.6503906,36.1953125 58.6503906,30.3554687 C56.4042969,25.2643229 53.5592448,21.6705729 50.1152344,19.5742188 C46.671224,17.4778646 43.2272135,16.4296875 39.7832031,16.4296875 C39.1842448,16.4296875 38.5852865,16.5045573 37.9863281,16.6542969 C37.3873698,16.6542969 36.8632813,16.7291667 36.4140625,16.8789062 C31.3229167,17.7773438 26.6809896,20.7721354 22.4882812,25.8632813 C18.2955729,30.9544271 16.1992188,38.0670573 16.1992188,47.2011719 C16.1992188,56.7845052 17.9960938,62.7740885 21.5898438,65.1699219 C25.0338542,67.4160156 27.5045573,68.7636719 29.0019531,69.2128906 C35.141276,70.5605469 41.3554688,69.811849 47.6445313,66.9667969 C53.7838542,64.1217448 57.452474,61.8007812 58.6503906,60.0039062 C58.6503906,57.1588542 58.6503906,54.3886719 58.6503906,51.6933594 C58.6503906,48.9980469 58.6503906,46.3027344 58.6503906,43.6074219 Z" transform="translate(10 56)"/></svg>