<svg xmlns="http://www.w3.org/2000/svg" width="103" height="203" viewBox="0 0 103 203"><path d="M465.006,150.992 C462.786,150.992 460.862,150.326 459.234,148.994 C457.606,147.662 456.792,145.368 456.792,142.112 C456.792,136.34 458.494,134.754 461.898,127.354 C465.302,119.954 470.556,112.924 477.66,106.264 C480.916,103.156 485.418,97.026 486.75,94.806 C488.082,92.586 487.912,84.228 483.25,80.306 C478.588,76.384 477.142,75.874 469.446,75.874 C465.746,75.874 462.305,76.392 459.123,77.428 C455.941,78.464 453.166,79.907 450.798,81.757 C448.43,83.607 446.543,85.901 445.137,88.639 C443.731,91.377 442.954,94.374 442.806,97.63 C442.658,100.294 441.696,102.292 439.92,103.624 C438.144,104.956 436.072,105.622 433.704,105.622 C428.524,105.474 425.934,103.032 425.934,98.296 C425.934,92.82 427.118,87.788 429.486,83.2 C431.854,78.612 435.036,74.653 439.032,71.323 C443.028,67.993 447.69,65.403 453.018,63.553 C458.346,61.703 464.044,60.778 470.112,60.778 C482.692,60.63 491.25,63.806 497.25,71.306 C503.25,78.806 507.75,90.056 502.5,98.306 C497.25,106.556 498.864,104.09 492.5,110.306 C488.208,114.45 486.059,118.215 483.321,121.249 C480.583,124.283 478.474,127.132 476.994,129.796 C475.514,132.46 473.25,139.556 473.22,142.112 C473.150522,148.031511 470.482,150.992 465.006,150.992 Z M465.228,198.944 C461.972,198.944 459.197,197.76 456.903,195.392 C454.609,193.024 453.462,190.286 453.462,187.178 C453.462,183.774 454.609,180.925 456.903,178.631 C459.197,176.337 461.972,175.19 465.228,175.19 C468.632,175.19 471.481,176.337 473.775,178.631 C476.069,180.925 477.216,183.774 477.216,187.178 C477.216,190.286 476.069,193.024 473.775,195.392 C471.481,197.76 468.632,198.944 465.228,198.944 Z" transform="translate(-417 -.056)"/></svg>