<svg xmlns="http://www.w3.org/2000/svg" width="120" height="203" viewBox="0 0 120 203"><path fill="#131313" d="M3647.26684,130.020508 C3648.64053,131.394206 3649.32738,133.111328 3649.32738,135.171875 C3649.32738,137.232422 3648.64053,139.018229 3647.26684,140.529297 C3646.44262,141.216146 3645.6184,141.765625 3644.79418,142.177734 C3643.83259,142.452474 3642.871,142.589844 3641.90941,142.589844 C3640.94783,142.589844 3639.98624,142.452474 3639.02465,142.177734 C3638.20043,141.765625 3637.37621,141.216146 3636.55199,140.529297 C3623.50186,127.341797 3603.85798,107.560547 3577.62035,81.1855469 C3577.62035,93.2740885 3577.62035,111.269531 3577.62035,135.171875 C3577.62035,137.232422 3576.86482,139.018229 3575.35375,140.529297 C3573.98005,141.902995 3572.26293,142.589844 3570.20238,142.589844 C3568.14184,142.589844 3566.35603,141.902995 3564.84496,140.529297 C3563.33389,139.018229 3562.57836,137.232422 3562.57836,135.171875 C3562.57836,106.873698 3562.57836,64.4264323 3562.57836,7.83007813 C3562.57836,5.76953125 3563.33389,3.98372396 3564.84496,2.47265625 C3566.35603,1.09895833 3568.14184,0.412109375 3570.20238,0.412109375 C3576.38402,0.412109375 3585.65648,0.412109375 3598.01977,0.412109375 C3606.67406,0.412109375 3614.57283,2.19791667 3621.71605,5.76953125 C3628.99665,9.47851563 3634.62882,14.492513 3638.61254,20.8115234 C3641.90941,26.1689453 3643.62654,31.9384766 3643.76391,38.1201172 C3643.90128,44.3017578 3642.45889,50.5520833 3639.43676,56.8710937 C3636.27725,63.0527344 3631.26326,68.0667318 3624.39477,71.9130859 C3617.38891,75.7594401 3608.52855,78.3694661 3597.81371,79.7431641 C3597.81371,79.7431641 3597.74503,79.7431641 3597.60766,79.7431641 C3597.47029,79.7431641 3597.4016,79.811849 3597.4016,79.9492188 C3605.64379,88.1914062 3613.95466,96.5022786 3622.33422,104.881836 C3630.57641,113.261393 3638.88728,121.640951 3647.26684,130.020508 Z M3626.12133,28.7197266 C3623.5113,24.5986328 3619.73363,21.3704427 3614.78832,19.0351562 C3609.84301,16.5625 3604.34822,15.3261719 3598.30395,15.3261719 C3593.77074,15.3261719 3586.97094,15.3261719 3577.90453,15.3261719 C3577.90453,26.5904948 3577.90453,43.4869792 3577.90453,66.015625 C3582.84984,66.1529948 3588.61938,65.8782552 3595.21313,65.1914063 C3601.80688,64.5045573 3607.85115,63.0621745 3613.34594,60.8642578 C3616.2307,59.6279297 3618.84073,58.116862 3621.17602,56.3310547 C3623.37393,54.6826172 3625.09105,52.6220703 3626.32738,50.1494141 C3628.25056,46.3030599 3629.21215,42.5940755 3629.21215,39.0224609 C3629.07478,35.3134766 3628.04451,31.8792318 3626.12133,28.7197266 Z" transform="translate(-3545.5 -.528)"/></svg>