<svg xmlns="http://www.w3.org/2000/svg" width="120" height="243" viewBox="0 0 120 243"><path fill="#131313" d="M101.766836,153.492188 C103.140534,154.865885 103.827383,156.583008 103.827383,158.643555 C103.827383,160.704102 103.140534,162.489909 101.766836,164.000977 C100.942617,164.687826 100.118398,165.237305 99.2941797,165.649414 C98.3325911,165.924154 97.3710026,166.061523 96.4094141,166.061523 C95.4478255,166.061523 94.486237,165.924154 93.5246484,165.649414 C92.7004297,165.237305 91.8762109,164.687826 91.0519922,164.000977 C78.001862,150.813477 58.3579818,131.032227 32.1203516,104.657227 C32.1203516,116.745768 32.1203516,134.741211 32.1203516,158.643555 C32.1203516,160.704102 31.3648177,162.489909 29.85375,164.000977 C28.4800521,165.374674 26.7629297,166.061523 24.7023828,166.061523 C22.6418359,166.061523 20.8560286,165.374674 19.3449609,164.000977 C17.8338932,162.489909 17.0783594,160.704102 17.0783594,158.643555 C17.0783594,130.345378 17.0783594,87.898112 17.0783594,31.3017578 C17.0783594,29.2412109 17.8338932,27.4554036 19.3449609,25.9443359 C20.8560286,24.570638 22.6418359,23.8837891 24.7023828,23.8837891 C30.8840234,23.8837891 40.1564844,23.8837891 52.5197656,23.8837891 C61.1740625,23.8837891 69.0728255,25.6695964 76.2160547,29.2412109 C83.4966536,32.9501953 89.1288151,37.9641927 93.1125391,44.2832031 C96.4094141,49.640625 98.1265365,55.4101562 98.2639063,61.5917969 C98.401276,67.7734375 96.9588932,74.023763 93.9367578,80.3427734 C90.7772526,86.5244141 85.7632552,91.5384115 78.8947656,95.3847656 C71.8889063,99.2311198 63.0285547,101.841146 52.3137109,103.214844 C52.3137109,103.214844 52.245026,103.214844 52.1076563,103.214844 C51.9702865,103.214844 51.9016016,103.283529 51.9016016,103.420898 C60.1437891,111.663086 68.4546615,119.973958 76.8342188,128.353516 C85.0764063,136.733073 93.3872786,145.11263 101.766836,153.492188 Z M80.6213281,52.1914062 C78.0113021,48.0703125 74.2336328,44.8421224 69.2883203,42.5068359 C64.3430078,40.0341797 58.8482161,38.7978516 52.8039453,38.7978516 C48.2707422,38.7978516 41.4709375,38.7978516 32.4045313,38.7978516 C32.4045313,50.0621745 32.4045313,66.9586589 32.4045313,89.4873047 C37.3498438,89.6246745 43.119375,89.3499349 49.713125,88.6630859 C56.306875,87.976237 62.3511458,86.5338542 67.8459375,84.3359375 C70.7307031,83.0996094 73.3407292,81.5885417 75.6760156,79.8027344 C77.8739323,78.1542969 79.5910547,76.09375 80.8273828,73.6210938 C82.7505599,69.7747396 83.7121484,66.0657552 83.7121484,62.4941406 C83.5747786,58.7851562 82.5445052,55.3509115 80.6213281,52.1914062 Z"/></svg>