<svg xmlns="http://www.w3.org/2000/svg" width="83" height="243" viewBox="0 0 83 243"><path fill="#131313" d="M71.6445312,91.0058594 C72.8424479,92.952474 73.2167969,94.9739583 72.7675781,97.0703125 C72.3183594,99.3164062 71.1204427,101.038411 69.1738281,102.236328 C67.2272135,103.434245 65.2057292,103.808594 63.109375,103.359375 C60.8632812,102.760417 59.141276,101.5625 57.9433594,99.765625 C57.344401,98.8671875 56.5208333,98.0436198 55.4726562,97.2949219 C54.2747396,96.546224 52.4029948,96.171875 49.8574219,96.171875 C46.1139323,96.171875 42.5950521,98.4179688 39.3007812,102.910156 C35.8567708,107.402344 33.0865885,112.49349 30.9902344,118.183594 C29.7923177,121.328125 28.8938802,124.397786 28.2949219,127.392578 C27.6959635,130.38737 27.3964844,133.157552 27.3964844,135.703125 C27.3964844,140.644531 27.3964844,147.906901 27.3964844,157.490234 C27.3964844,159.736328 26.5729167,161.682943 24.9257813,163.330078 C23.2786458,164.827474 21.406901,165.576172 19.3105469,165.576172 C17.0644531,165.576172 15.1178385,164.827474 13.4707031,163.330078 C11.8235677,161.682943 11,159.736328 11,157.490234 C11,153.147786 11,146.634115 11,137.949219 C11,137.949219 11,137.949219 11,137.949219 C11,137.949219 11,137.949219 11,137.949219 C11,126.86849 11,110.247396 11,88.0859375 C11,85.8398438 11.8235677,83.8932292 13.4707031,82.2460938 C15.1178385,80.7486979 17.0644531,80 19.3105469,80 C21.406901,80 23.2786458,80.7486979 24.9257813,82.2460938 C26.5729167,83.8932292 27.3964844,85.8398438 27.3964844,88.0859375 C27.3964844,88.984375 27.3964844,90.2571615 27.3964844,91.9042969 C30.6907552,88.0110677 34.2096354,85.016276 37.953125,82.9199219 C41.8463542,80.9733073 45.8144531,80 49.8574219,80 C55.9967448,80 60.7884115,81.1979167 64.2324219,83.59375 C67.6764323,85.9895833 70.1471354,88.4602865 71.6445312,91.0058594 Z"/></svg>