<svg xmlns="http://www.w3.org/2000/svg" width="83" height="203" viewBox="0 0 83 203"><path fill="#131313" d="M60.6445313,11.0058594 C61.8424479,12.952474 62.2167969,14.9739583 61.7675781,17.0703125 C61.3183594,19.3164063 60.1204427,21.0384115 58.1738281,22.2363281 C56.2272135,23.4342448 54.2057292,23.8085938 52.109375,23.359375 C49.8632813,22.7604167 48.141276,21.5625 46.9433594,19.765625 C46.344401,18.8671875 45.5208333,18.0436198 44.4726563,17.2949219 C43.2747396,16.546224 41.4029948,16.171875 38.8574219,16.171875 C35.1139323,16.171875 31.5950521,18.4179688 28.3007812,22.9101563 C24.8567708,27.4023438 22.0865885,32.4934896 19.9902344,38.1835938 C18.7923177,41.328125 17.8938802,44.3977865 17.2949219,47.3925781 C16.6959635,50.3873698 16.3964844,53.1575521 16.3964844,55.703125 C16.3964844,60.6445313 16.3964844,67.906901 16.3964844,77.4902344 C16.3964844,79.7363281 15.5729167,81.6829427 13.9257812,83.3300781 C12.2786458,84.827474 10.406901,85.5761719 8.31054688,85.5761719 C6.06445313,85.5761719 4.11783854,84.827474 2.47070312,83.3300781 C0.823567708,81.6829427 0,79.7363281 0,77.4902344 C0,73.1477865 0,66.6341146 0,57.9492188 C0,57.9492188 0,57.9492188 0,57.9492188 C0,57.9492188 0,57.9492188 0,57.9492188 C0,46.8684896 0,30.2473958 0,8.0859375 C0,5.83984375 0.823567708,3.89322917 2.47070312,2.24609375 C4.11783854,0.748697917 6.06445313,0 8.31054688,0 C10.406901,0 12.2786458,0.748697917 13.9257812,2.24609375 C15.5729167,3.89322917 16.3964844,5.83984375 16.3964844,8.0859375 C16.3964844,8.984375 16.3964844,10.2571615 16.3964844,11.9042969 C19.6907552,8.01106771 23.2096354,5.01627604 26.953125,2.91992188 C30.8463542,0.973307292 34.8144531,0 38.8574219,0 C44.9967448,0 49.7884115,1.19791667 53.2324219,3.59375 C56.6764323,5.98958333 59.1471354,8.46028646 60.6445313,11.0058594 Z" transform="translate(11 56)"/></svg>