<svg xmlns="http://www.w3.org/2000/svg" width="82" height="203" viewBox="0 0 82 203"><path d="M1286.922,132.234 C1276.71,126.314 1271.604,117.804 1271.604,106.704 L1271.604,61.86 C1271.604,56.68 1270.753,53.202 1269.051,51.426 C1267.349,49.65 1264.352,48.762 1260.06,48.762 L1253.622,48.762 C1251.254,48.762 1249.33,48.17 1247.85,46.986 C1246.37,45.802 1245.778,43.804 1246.074,40.992 C1246.074,37.884 1246.851,35.775 1248.405,34.665 C1249.959,33.555 1251.698,33 1253.622,33 L1266.498,33 C1272.714,33 1277.894,34.924 1282.038,38.772 C1286.182,42.62 1288.254,48.096 1288.254,55.2 L1288.254,96.714 C1288.254,105.594 1289.364,112.217 1291.584,116.583 C1293.804,120.949 1297.726,123.502 1303.35,124.242 C1305.866,124.538 1308.012,125.389 1309.788,126.795 C1311.564,128.201 1312.452,130.162 1312.452,132.678 C1312.452,135.194 1311.638,137.118 1310.01,138.45 C1308.382,139.782 1306.384,140.596 1304.016,140.892 C1293.508,142.076 1288.254,149.846 1288.254,164.202 L1288.254,211.266 C1288.254,218.962 1286.515,224.327 1283.037,227.361 C1279.559,230.395 1274.194,231.912 1266.942,231.912 L1253.622,231.912 C1251.698,231.912 1250.033,231.209 1248.627,229.803 C1247.221,228.397 1246.518,226.51 1246.518,224.142 C1246.518,221.034 1247.184,218.925 1248.516,217.815 C1249.848,216.705 1251.55,216.15 1253.622,216.15 L1259.616,216.15 C1264.056,216.15 1267.164,215.299 1268.94,213.597 C1270.716,211.895 1271.604,208.898 1271.604,204.606 L1271.604,158.208 C1271.604,151.252 1272.788,145.924 1275.156,142.224 C1277.524,138.524 1281.446,135.194 1286.922,132.234 Z" transform="translate(-1246.384 -.056)"/></svg>