<svg xmlns="http://www.w3.org/2000/svg" width="62" height="203" viewBox="0 0 62 203"><path d="M1860.304,33 C1871.848,33 1877.62,38.772 1877.62,50.316 L1877.62,214.818 C1877.62,221.182 1876.362,225.622 1873.846,228.138 C1871.33,230.654 1867.112,231.912 1861.192,231.912 L1838.326,231.912 C1836.254,231.912 1834.515,231.32 1833.109,230.136 C1831.703,228.952 1831,227.028 1831,224.364 C1831,221.552 1831.703,219.554 1833.109,218.37 C1834.515,217.186 1836.254,216.594 1838.326,216.594 L1852.756,216.594 C1855.568,216.594 1857.714,216.187 1859.194,215.373 C1860.674,214.559 1861.414,212.746 1861.414,209.934 L1861.414,55.422 C1861.414,52.758 1860.711,50.945 1859.305,49.983 C1857.899,49.021 1855.716,48.54 1852.756,48.54 L1838.326,48.54 C1836.254,48.54 1834.515,47.948 1833.109,46.764 C1831.703,45.58 1831,43.656 1831,40.992 C1831,38.18 1831.703,36.145 1833.109,34.887 C1834.515,33.629 1836.254,33 1838.326,33 L1860.304,33 Z" transform="translate(-1831.094 -.056)"/></svg>