<svg xmlns="http://www.w3.org/2000/svg" width="120" height="243" viewBox="0 0 120 243"><path fill="#131313" d="M18.5214453,151.619141 C17.0103776,150.108073 16.2548438,148.322266 16.2548438,146.261719 C16.117474,144.201172 16.8043229,142.415365 18.3153906,140.904297 C19.6890885,139.530599 21.4062109,138.775065 23.4667578,138.637695 C25.5273047,138.637695 27.313112,139.393229 28.8241797,140.904297 C33.0826432,144.888021 38.1653255,147.635417 44.0722266,149.146484 C50.1164974,150.520182 54.6497005,151.207031 57.6718359,151.207031 C66.3261328,151.207031 73.1259375,149.352539 78.07125,145.643555 C83.1539323,141.93457 86.3134375,136.439779 87.5497656,129.15918 C88.0992448,125.999674 88.0992448,122.977539 87.5497656,120.092773 C86.8629167,117.345378 85.6265885,114.735352 83.8407813,112.262695 C81.2307552,108.416341 77.5217708,105.188151 72.7138281,102.578125 C68.0432552,100.105469 62.6171484,98.3196615 56.4355078,97.2207031 C43.3853776,95.0227865 33.5634375,90.2835286 26.9696875,83.0029297 C20.5133073,75.8597005 18.040651,66.999349 19.5517188,56.421875 C20.2385677,51.6139323 21.8870052,46.6686198 24.4970313,41.5859375 C26.9696875,36.640625 31.0220964,32.5882161 36.6542578,29.4287109 C39.6763932,27.6429036 43.1793229,26.2692057 47.1630469,25.3076172 C51.2841406,24.3460286 56.0233984,23.8652344 61.3808203,23.8652344 C65.2271745,23.8652344 71.1340755,24.8268229 79.1015234,26.75 C87.2063411,28.8105469 93.6627214,32.4508464 98.4706641,37.6708984 C99.844362,39.1819661 100.462526,40.9677734 100.325156,43.0283203 C100.325156,45.0888672 99.5696224,46.8746745 98.0585547,48.3857422 C96.547487,49.7594401 94.7616797,50.3776042 92.7011328,50.2402344 C90.6405859,50.2402344 88.8547786,49.4847005 87.3437109,47.9736328 C84.7336849,44.9514974 80.4752214,42.6848958 74.5683203,41.1738281 C68.7987891,39.5253906 64.4029557,38.7011719 61.3808203,38.7011719 C50.6659766,38.7011719 43.6601172,40.8990885 40.3632422,45.2949219 C37.0663672,49.5533854 35.0745052,53.9492188 34.3876563,58.4824219 C33.4260677,64.9388021 35.0058203,70.1588542 39.1269141,74.1425781 C43.2480078,78.1263021 49.8417578,80.8736979 58.9081641,82.3847656 C67.0129818,83.7584635 74.2935807,86.2998047 80.7499609,90.0087891 C87.2063411,93.7177734 92.3577083,98.2509766 96.2040625,103.608398 C99.0888281,107.729492 101.012005,112.125326 101.973594,116.795898 C103.072552,121.603841 103.141237,126.549154 102.179648,131.631836 C100.256471,142.621419 95.4485286,151.138346 87.7558203,157.182617 C79.9257422,163.089518 69.8977474,166.042969 57.6718359,166.042969 C53.2760026,166.042969 47.094362,165.08138 39.1269141,163.158203 C31.2968359,161.235026 24.4283464,157.388672 18.5214453,151.619141 Z"/></svg>