<svg xmlns="http://www.w3.org/2000/svg" width="120" height="203" viewBox="0 0 120 203"><path fill="#131313" d="M3775.02145,128.147461 C3773.51038,126.636393 3772.75484,124.850586 3772.75484,122.790039 C3772.61747,120.729492 3773.30432,118.943685 3774.81539,117.432617 C3776.18909,116.058919 3777.90621,115.303385 3779.96676,115.166016 C3782.0273,115.166016 3783.81311,115.921549 3785.32418,117.432617 C3789.58264,121.416341 3794.66533,124.163737 3800.57223,125.674805 C3806.6165,127.048503 3811.1497,127.735352 3814.17184,127.735352 C3822.82613,127.735352 3829.62594,125.880859 3834.57125,122.171875 C3839.65393,118.462891 3842.81344,112.968099 3844.04977,105.6875 C3844.59924,102.527995 3844.59924,99.5058594 3844.04977,96.6210938 C3843.36292,93.8736979 3842.12659,91.2636719 3840.34078,88.7910156 C3837.73076,84.9446615 3834.02177,81.7164714 3829.21383,79.1064453 C3824.54326,76.6337891 3819.11715,74.8479818 3812.93551,73.7490234 C3799.88538,71.5511068 3790.06344,66.811849 3783.46969,59.53125 C3777.01331,52.3880208 3774.54065,43.5276693 3776.05172,32.9501953 C3776.73857,28.1422526 3778.38701,23.1969401 3780.99703,18.1142578 C3783.46969,13.1689453 3787.5221,9.11653646 3793.15426,5.95703125 C3796.17639,4.17122396 3799.67932,2.79752604 3803.66305,1.8359375 C3807.78414,0.874348958 3812.5234,0.393554688 3817.88082,0.393554688 C3821.72717,0.393554688 3827.63408,1.35514323 3835.60152,3.27832031 C3843.70634,5.33886719 3850.16272,8.97916667 3854.97066,14.1992187 C3856.34436,15.7102865 3856.96253,17.4960938 3856.82516,19.5566406 C3856.82516,21.6171875 3856.06962,23.4029948 3854.55855,24.9140625 C3853.04749,26.2877604 3851.26168,26.9059245 3849.20113,26.7685547 C3847.14059,26.7685547 3845.35478,26.0130208 3843.84371,24.5019531 C3841.23368,21.4798177 3836.97522,19.2132161 3831.06832,17.7021484 C3825.29879,16.0537109 3820.90296,15.2294922 3817.88082,15.2294922 C3807.16598,15.2294922 3800.16012,17.4274089 3796.86324,21.8232422 C3793.56637,26.0817057 3791.57451,30.4775391 3790.88766,35.0107422 C3789.92607,41.4671224 3791.50582,46.6871745 3795.62691,50.6708984 C3799.74801,54.6546224 3806.34176,57.4020182 3815.40816,58.9130859 C3823.51298,60.2867839 3830.79358,62.828125 3837.24996,66.5371094 C3843.70634,70.2460938 3848.85771,74.7792969 3852.70406,80.1367187 C3855.58883,84.2578125 3857.51201,88.6536458 3858.47359,93.3242187 C3859.57255,98.1321615 3859.64124,103.077474 3858.67965,108.160156 C3856.75647,119.14974 3851.94853,127.666667 3844.25582,133.710938 C3836.42574,139.617839 3826.39775,142.571289 3814.17184,142.571289 C3809.776,142.571289 3803.59436,141.609701 3795.62691,139.686523 C3787.79684,137.763346 3780.92835,133.916992 3775.02145,128.147461 Z" transform="translate(-3756.5 -.528)"/></svg>