<svg xmlns="http://www.w3.org/2000/svg" width="120" height="203" viewBox="0 0 120 203"><path fill="#131313" d="M3775.02145,188.619141 C3773.51038,187.108073 3772.75484,185.322266 3772.75484,183.261719 C3772.61747,181.201172 3773.30432,179.415365 3774.81539,177.904297 C3776.18909,176.530599 3777.90621,175.775065 3779.96676,175.637695 C3782.0273,175.637695 3783.81311,176.393229 3785.32418,177.904297 C3789.58264,181.888021 3794.66533,184.635417 3800.57223,186.146484 C3806.6165,187.520182 3811.1497,188.207031 3814.17184,188.207031 C3822.82613,188.207031 3829.62594,186.352539 3834.57125,182.643555 C3839.65393,178.93457 3842.81344,173.439779 3844.04977,166.15918 C3844.59924,162.999674 3844.59924,159.977539 3844.04977,157.092773 C3843.36292,154.345378 3842.12659,151.735352 3840.34078,149.262695 C3837.73076,145.416341 3834.02177,142.188151 3829.21383,139.578125 C3824.54326,137.105469 3819.11715,135.319661 3812.93551,134.220703 C3799.88538,132.022786 3790.06344,127.283529 3783.46969,120.00293 C3777.01331,112.859701 3774.54065,103.999349 3776.05172,93.421875 C3776.73857,88.6139323 3778.38701,83.6686198 3780.99703,78.5859375 C3783.46969,73.640625 3787.5221,69.5882161 3793.15426,66.4287109 C3796.17639,64.6429036 3799.67932,63.2692057 3803.66305,62.3076172 C3807.78414,61.3460286 3812.5234,60.8652344 3817.88082,60.8652344 C3821.72717,60.8652344 3827.63408,61.8268229 3835.60152,63.75 C3843.70634,65.8105469 3850.16272,69.4508464 3854.97066,74.6708984 C3856.34436,76.1819661 3856.96253,77.9677734 3856.82516,80.0283203 C3856.82516,82.0888672 3856.06962,83.8746745 3854.55855,85.3857422 C3853.04749,86.7594401 3851.26168,87.3776042 3849.20113,87.2402344 C3847.14059,87.2402344 3845.35478,86.4847005 3843.84371,84.9736328 C3841.23368,81.9514974 3836.97522,79.6848958 3831.06832,78.1738281 C3825.29879,76.5253906 3820.90296,75.7011719 3817.88082,75.7011719 C3807.16598,75.7011719 3800.16012,77.8990885 3796.86324,82.2949219 C3793.56637,86.5533854 3791.57451,90.9492188 3790.88766,95.4824219 C3789.92607,101.938802 3791.50582,107.158854 3795.62691,111.142578 C3799.74801,115.126302 3806.34176,117.873698 3815.40816,119.384766 C3823.51298,120.758464 3830.79358,123.299805 3837.24996,127.008789 C3843.70634,130.717773 3848.85771,135.250977 3852.70406,140.608398 C3855.58883,144.729492 3857.51201,149.125326 3858.47359,153.795898 C3859.57255,158.603841 3859.64124,163.549154 3858.67965,168.631836 C3856.75647,179.621419 3851.94853,188.138346 3844.25582,194.182617 C3836.42574,200.089518 3826.39775,203.042969 3814.17184,203.042969 C3809.776,203.042969 3803.59436,202.08138 3795.62691,200.158203 C3787.79684,198.235026 3780.92835,194.388672 3775.02145,188.619141 Z" transform="translate(-3756.5)"/></svg>