<svg xmlns="http://www.w3.org/2000/svg" width="81" height="203" viewBox="0 0 81 203"><path fill="#131313" d="M2.94238281,77.0410156 C1.2952474,75.5436198 0.321940104,73.671875 0.0224609375,71.4257813 C-0.127278646,69.1796875 0.471679687,67.2330729 1.81933594,65.5859375 C3.31673177,63.7890625 5.18847656,62.8157552 7.43457031,62.6660156 C9.68066406,62.3665365 11.6272786,62.9654948 13.2744141,64.4628906 C15.5205078,66.2597656 18.3655599,67.5325521 21.8095703,68.28125 C25.1038411,69.0299479 27.7991536,69.4042969 29.8955078,69.4042969 C36.7835286,69.4042969 41.0511068,68.2063802 42.6982422,65.8105469 C44.3453776,63.264974 45.3186849,61.468099 45.6181641,60.4199219 C45.7679036,59.5214844 45.7679036,58.6979167 45.6181641,57.9492188 C45.4684245,57.0507813 45.0940755,56.2272135 44.4951172,55.4785156 C43.2972005,53.6816406 41.2757161,52.109375 38.4306641,50.7617188 C35.585612,49.5638021 32.3662109,48.6653646 28.7724609,48.0664063 C23.2320964,47.3177083 18.5152995,45.9700521 14.6220703,44.0234375 C10.8785807,42.0768229 7.88378906,39.6061198 5.63769531,36.6113281 C3.9905599,34.3652344 2.86751302,31.8945313 2.26855469,29.1992188 C1.81933594,26.6536458 1.81933594,23.8834635 2.26855469,20.8886719 C2.86751302,16.9954427 5.18847656,12.5032552 9.23144531,7.41210938 C13.1246745,2.47070313 20.7613932,0 32.1416016,0 C34.8369141,0 38.9547526,0.598958333 44.4951172,1.796875 C49.8857422,2.99479167 54.3030599,5.16601563 57.7470703,8.31054688 C59.3942057,9.95768229 60.2926432,11.9042969 60.4423828,14.1503906 C60.4423828,16.3964844 59.6936849,18.343099 58.1962891,19.9902344 C56.6988932,21.6373698 54.8271484,22.4609375 52.5810547,22.4609375 C50.3349609,22.6106771 48.3883464,21.8619792 46.7412109,20.2148438 C45.5432943,19.1666667 43.2972005,18.2682292 40.0029297,17.5195313 C36.7086589,16.6210938 34.0882161,16.171875 32.1416016,16.171875 C25.8525391,16.171875 22.0341797,17.1451823 20.6865234,19.0917969 C19.3388672,20.8886719 18.5152995,22.4609375 18.2158203,23.8085938 C18.0660807,24.7070313 18.0660807,25.3808594 18.2158203,25.8300781 C18.3655599,26.2792969 18.5901693,26.6536458 18.8896484,26.953125 C19.1891276,27.4023438 20.1624349,28.2259115 21.8095703,29.4238281 C23.4567057,30.4720052 26.5263672,31.2955729 31.0185547,31.8945313 C37.008138,32.7929688 42.3238932,34.514974 46.9658203,37.0605469 C51.6077474,39.4563802 55.2763672,42.5260417 57.9716797,46.2695313 C59.7685547,48.8151042 60.9664714,51.5852865 61.5654297,54.5800781 C62.164388,57.5748698 62.164388,60.6445313 61.5654297,63.7890625 C60.0680339,70.6770833 56.5491536,76.0677083 51.0087891,79.9609375 C45.4684245,83.7044271 38.4306641,85.5761719 29.8955078,85.5761719 C28.9970703,85.5761719 25.5530599,85.2018229 19.5634766,84.453125 C13.5738932,83.7044271 8.03352865,81.233724 2.94238281,77.0410156 Z" transform="translate(9 56)"/></svg>