<svg xmlns="http://www.w3.org/2000/svg" width="81" height="243" viewBox="0 0 81 243"><path fill="#131313" d="M11.9423828,157.041016 C10.2952474,155.54362 9.3219401,153.671875 9.02246094,151.425781 C8.87272135,149.179688 9.47167969,147.233073 10.8193359,145.585938 C12.3167318,143.789062 14.1884766,142.815755 16.4345703,142.666016 C18.6806641,142.366536 20.6272786,142.965495 22.2744141,144.462891 C24.5205078,146.259766 27.3655599,147.532552 30.8095703,148.28125 C34.1038411,149.029948 36.7991536,149.404297 38.8955078,149.404297 C45.7835286,149.404297 50.0511068,148.20638 51.6982422,145.810547 C53.3453776,143.264974 54.3186849,141.468099 54.6181641,140.419922 C54.7679036,139.521484 54.7679036,138.697917 54.6181641,137.949219 C54.4684245,137.050781 54.0940755,136.227214 53.4951172,135.478516 C52.2972005,133.681641 50.2757161,132.109375 47.4306641,130.761719 C44.585612,129.563802 41.3662109,128.665365 37.7724609,128.066406 C32.2320964,127.317708 27.5152995,125.970052 23.6220703,124.023438 C19.8785807,122.076823 16.8837891,119.60612 14.6376953,116.611328 C12.9905599,114.365234 11.867513,111.894531 11.2685547,109.199219 C10.8193359,106.653646 10.8193359,103.883464 11.2685547,100.888672 C11.867513,96.9954427 14.1884766,92.5032552 18.2314453,87.4121094 C22.1246745,82.4707031 29.7613932,80 41.1416016,80 C43.8369141,80 47.9547526,80.5989583 53.4951172,81.796875 C58.8857422,82.9947917 63.3030599,85.1660156 66.7470703,88.3105469 C68.3942057,89.9576823 69.2926432,91.9042969 69.4423828,94.1503906 C69.4423828,96.3964844 68.6936849,98.343099 67.1962891,99.9902344 C65.6988932,101.63737 63.8271484,102.460938 61.5810547,102.460938 C59.3349609,102.610677 57.3883464,101.861979 55.7412109,100.214844 C54.5432943,99.1666667 52.2972005,98.2682292 49.0029297,97.5195312 C45.7086589,96.6210938 43.0882161,96.171875 41.1416016,96.171875 C34.8525391,96.171875 31.0341797,97.1451823 29.6865234,99.0917969 C28.3388672,100.888672 27.5152995,102.460938 27.2158203,103.808594 C27.0660807,104.707031 27.0660807,105.380859 27.2158203,105.830078 C27.3655599,106.279297 27.5901693,106.653646 27.8896484,106.953125 C28.1891276,107.402344 29.1624349,108.225911 30.8095703,109.423828 C32.4567057,110.472005 35.5263672,111.295573 40.0185547,111.894531 C46.008138,112.792969 51.3238932,114.514974 55.9658203,117.060547 C60.6077474,119.45638 64.2763672,122.526042 66.9716797,126.269531 C68.7685547,128.815104 69.9664714,131.585286 70.5654297,134.580078 C71.164388,137.57487 71.164388,140.644531 70.5654297,143.789062 C69.0680339,150.677083 65.5491536,156.067708 60.0087891,159.960938 C54.4684245,163.704427 47.4306641,165.576172 38.8955078,165.576172 C37.9970703,165.576172 34.5530599,165.201823 28.5634766,164.453125 C22.5738932,163.704427 17.0335286,161.233724 11.9423828,157.041016 Z"/></svg>