<svg xmlns="http://www.w3.org/2000/svg" width="50" height="203" viewBox="0 0 50 203"><path d="M803.877,179.302 C807.429,180.486 809.131,182.632 808.983,185.74 C808.391,188.7 807.577,191.993 806.541,195.619 C805.505,199.245 804.321,202.982 802.989,206.83 C801.657,210.678 800.325,214.563 798.993,218.485 C797.661,222.407 796.403,226.144 795.219,229.696 C793.443,234.432 789.965,235.912 784.785,234.136 C781.233,232.804 779.679,230.214 780.123,226.366 C780.419,224.738 780.826,223.184 781.344,221.704 C781.862,220.224 782.417,218.67 783.009,217.042 L792.999,187.516 C794.035,184.556 795.256,182.225 796.662,180.523 C798.068,178.821 800.473,178.414 803.877,179.302 Z M801.225,117.19 C804.481,117.19 807.293,118.337 809.661,120.631 C812.029,122.925 813.213,125.774 813.213,129.178 C813.213,132.286 812.029,135.024 809.661,137.392 C807.293,139.76 804.481,140.944 801.225,140.944 C797.969,140.944 795.194,139.76 792.9,137.392 C790.606,135.024 789.459,132.286 789.459,129.178 C789.459,125.774 790.606,122.925 792.9,120.631 C795.194,118.337 797.969,117.19 801.225,117.19 Z" transform="translate(-776.5 -.056)"/></svg>