<svg xmlns="http://www.w3.org/2000/svg" width="120" height="203" viewBox="0 0 120 203"><path fill="#131313" d="M4048.25066,0.793945312 C4050.31121,0.793945312 4052.09702,1.48079427 4053.60809,2.85449219 C4054.98178,4.3655599 4055.66863,6.15136719 4055.66863,8.21191406 C4055.66863,10.2724609 4054.98178,11.9895833 4053.60809,13.3632813 C4052.09702,14.874349 4050.31121,15.6298828 4048.25066,15.6298828 C4041.93165,15.6298828 4032.45314,15.6298828 4019.81512,15.6298828 C4019.81512,42.2796224 4019.81512,82.2542318 4019.81512,135.553711 C4019.81512,137.614258 4019.05958,139.400065 4017.54852,140.911133 C4016.17482,142.284831 4014.4577,142.97168 4012.39715,142.97168 C4010.3366,142.97168 4008.55079,142.284831 4007.03973,140.911133 C4005.66603,139.400065 4004.97918,137.614258 4004.97918,135.553711 C4004.97918,108.903971 4004.97918,68.929362 4004.97918,15.6298828 C3998.66017,15.6298828 3989.18165,15.6298828 3976.54363,15.6298828 C3974.48309,15.6298828 3972.69728,14.874349 3971.18621,13.3632813 C3969.81251,11.9895833 3969.12566,10.2724609 3969.12566,8.21191406 C3969.12566,6.15136719 3969.81251,4.3655599 3971.18621,2.85449219 C3972.69728,1.48079427 3974.48309,0.793945312 3976.54363,0.793945312 C3988.4948,0.793945312 4000.44598,0.793945312 4012.39715,0.793945312 C4024.34832,0.793945312 4036.29949,0.793945312 4048.25066,0.793945312 Z" transform="translate(-3952.5 -.528)"/></svg>