<svg xmlns="http://www.w3.org/2000/svg" width="120" height="203" viewBox="0 0 120 203"><path fill="#131313" d="M4048.25066,61.265625 C4050.31121,61.265625 4052.09702,61.952474 4053.60809,63.3261719 C4054.98178,64.8372396 4055.66863,66.6230469 4055.66863,68.6835938 C4055.66863,70.7441406 4054.98178,72.461263 4053.60809,73.8349609 C4052.09702,75.3460286 4050.31121,76.1015625 4048.25066,76.1015625 C4041.93165,76.1015625 4032.45314,76.1015625 4019.81512,76.1015625 C4019.81512,102.751302 4019.81512,142.725911 4019.81512,196.025391 C4019.81512,198.085937 4019.05958,199.871745 4017.54852,201.382813 C4016.17482,202.75651 4014.4577,203.443359 4012.39715,203.443359 C4010.3366,203.443359 4008.55079,202.75651 4007.03973,201.382813 C4005.66603,199.871745 4004.97918,198.085937 4004.97918,196.025391 C4004.97918,169.375651 4004.97918,129.401042 4004.97918,76.1015625 C3998.66017,76.1015625 3989.18165,76.1015625 3976.54363,76.1015625 C3974.48309,76.1015625 3972.69728,75.3460286 3971.18621,73.8349609 C3969.81251,72.461263 3969.12566,70.7441406 3969.12566,68.6835938 C3969.12566,66.6230469 3969.81251,64.8372396 3971.18621,63.3261719 C3972.69728,61.952474 3974.48309,61.265625 3976.54363,61.265625 C3988.4948,61.265625 4000.44598,61.265625 4012.39715,61.265625 C4024.34832,61.265625 4036.29949,61.265625 4048.25066,61.265625 Z" transform="translate(-3952.5)"/></svg>