<svg xmlns="http://www.w3.org/2000/svg" width="91" height="203" viewBox="0 0 91 203"><path fill="#131313" d="M66.0351562,122.5625 C67.6822917,124.059896 68.5058594,126.00651 68.5058594,128.402344 C68.5058594,130.648437 67.6822917,132.520182 66.0351562,134.017578 C63.7890625,136.263672 61.2434896,137.985677 58.3984375,139.183594 C55.4036458,140.38151 52.3339844,140.980469 49.1894531,140.980469 C49.0397135,140.980469 48.9648437,140.980469 48.9648437,140.980469 C42.3763021,140.980469 36.6861979,138.659505 31.8945312,134.017578 C27.2526042,129.375651 24.9316406,123.760417 24.9316406,117.171875 C24.9316406,106.989583 24.9316406,91.7910156 24.9316406,71.5761719 C21.188151,71.5761719 15.5729167,71.5761719 8.0859375,71.5761719 C5.83984375,71.5761719 3.96809896,70.827474 2.47070312,69.3300781 C0.823567708,67.6829427 0,65.7363281 0,63.4902344 C0,61.2441406 0.823567708,59.297526 2.47070312,57.6503906 C3.96809896,56.1529948 5.83984375,55.4042969 8.0859375,55.4042969 C11.8294271,55.4042969 17.4446615,55.4042969 24.9316406,55.4042969 C24.9316406,41.7779948 24.9316406,35.3385417 24.9316406,8.0859375 C24.9316406,5.83984375 25.7552083,3.89322917 27.4023438,2.24609375 C28.8997396,0.748697917 30.7714844,0 33.0175781,0 C35.2636719,0 37.2102865,0.748697917 38.8574219,2.24609375 C40.5045573,3.89322917 41.328125,5.83984375 41.328125,8.0859375 C41.328125,21.7122396 41.328125,28.1516927 41.328125,55.4042969 C45.5208333,55.4042969 51.8847656,55.4042969 60.4199219,55.4042969 C62.6660156,55.4042969 64.5377604,56.1529948 66.0351562,57.6503906 C67.6822917,59.297526 68.5058594,61.2441406 68.5058594,63.4902344 C68.5058594,65.7363281 67.6822917,67.6829427 66.0351562,69.3300781 C64.5377604,70.827474 62.6660156,71.5761719 60.4199219,71.5761719 C56.077474,71.5761719 49.7135417,71.5761719 41.328125,71.5761719 C41.328125,81.7584635 41.328125,96.9570312 41.328125,117.171875 C41.328125,119.268229 42.0768229,121.065104 43.5742187,122.5625 C44.921875,124.059896 46.71875,124.808594 48.9648437,124.808594 C48.9648437,124.808594 49.0397135,124.808594 49.1894531,124.808594 C50.2376302,124.808594 51.2109375,124.583984 52.109375,124.134766 C53.0078125,123.835286 53.8313802,123.311198 54.5800781,122.5625 C56.077474,120.915365 57.9492187,120.091797 60.1953125,120.091797 C62.5911458,120.091797 64.5377604,120.915365 66.0351562,122.5625 Z" transform="translate(11)"/></svg>