<svg xmlns="http://www.w3.org/2000/svg" width="91" height="243" viewBox="0 0 91 243"><path fill="#131313" d="M77.0351562,146.5625 C78.6822917,148.059896 79.5058594,150.00651 79.5058594,152.402344 C79.5058594,154.648438 78.6822917,156.520182 77.0351562,158.017578 C74.7890625,160.263672 72.2434896,161.985677 69.3984375,163.183594 C66.4036458,164.38151 63.3339844,164.980469 60.1894531,164.980469 C60.0397135,164.980469 59.9648438,164.980469 59.9648438,164.980469 C53.3763021,164.980469 47.6861979,162.659505 42.8945312,158.017578 C38.2526042,153.375651 35.9316406,147.760417 35.9316406,141.171875 C35.9316406,130.989583 35.9316406,115.791016 35.9316406,95.5761719 C32.188151,95.5761719 26.5729167,95.5761719 19.0859375,95.5761719 C16.8398438,95.5761719 14.968099,94.827474 13.4707031,93.3300781 C11.8235677,91.6829427 11,89.7363281 11,87.4902344 C11,85.2441406 11.8235677,83.297526 13.4707031,81.6503906 C14.968099,80.1529948 16.8398438,79.4042969 19.0859375,79.4042969 C22.8294271,79.4042969 28.4446615,79.4042969 35.9316406,79.4042969 C35.9316406,65.7779948 35.9316406,45.3385417 35.9316406,18.0859375 C35.9316406,15.8398438 36.7552083,13.8932292 38.4023438,12.2460938 C39.8997396,10.7486979 41.7714844,10 44.0175781,10 C46.2636719,10 48.2102865,10.7486979 49.8574219,12.2460938 C51.5045573,13.8932292 52.328125,15.8398438 52.328125,18.0859375 C52.328125,31.7122396 52.328125,52.1516927 52.328125,79.4042969 C56.5208333,79.4042969 62.8847656,79.4042969 71.4199219,79.4042969 C73.6660156,79.4042969 75.5377604,80.1529948 77.0351562,81.6503906 C78.6822917,83.297526 79.5058594,85.2441406 79.5058594,87.4902344 C79.5058594,89.7363281 78.6822917,91.6829427 77.0351562,93.3300781 C75.5377604,94.827474 73.6660156,95.5761719 71.4199219,95.5761719 C67.077474,95.5761719 60.7135417,95.5761719 52.328125,95.5761719 C52.328125,105.758464 52.328125,120.957031 52.328125,141.171875 C52.328125,143.268229 53.0768229,145.065104 54.5742188,146.5625 C55.921875,148.059896 57.71875,148.808594 59.9648438,148.808594 C59.9648438,148.808594 60.0397135,148.808594 60.1894531,148.808594 C61.2376302,148.808594 62.2109375,148.583984 63.109375,148.134766 C64.0078125,147.835286 64.8313802,147.311198 65.5800781,146.5625 C67.077474,144.915365 68.9492188,144.091797 71.1953125,144.091797 C73.5911458,144.091797 75.5377604,144.915365 77.0351562,146.5625 Z"/></svg>