<svg xmlns="http://www.w3.org/2000/svg" width="120" height="203" viewBox="0 0 120 203"><path fill="#131313" d="M4178.35195,153.892578 C4178.35195,134.935547 4178.35195,106.36263 4178.35195,68.1738281 C4178.35195,66.1132812 4179.10749,64.327474 4180.61855,62.8164062 C4182.12962,61.4427083 4183.91543,60.7558594 4185.97598,60.7558594 C4188.03652,60.7558594 4189.75365,61.4427083 4191.12734,62.8164062 C4192.63841,64.327474 4193.39395,66.1132812 4193.39395,68.1738281 C4193.39395,87.2682292 4193.39395,115.841146 4193.39395,153.892578 C4193.39395,154.029948 4193.73737,156.914714 4194.42422,162.546875 C4195.11107,168.179036 4197.37767,173.536458 4201.22402,178.619141 C4203.28457,181.229167 4206.03197,183.427083 4209.46621,185.212891 C4212.76309,187.136068 4216.88418,188.097656 4221.82949,188.097656 C4226.7748,188.097656 4230.8959,187.136068 4234.19277,185.212891 C4237.48965,183.427083 4240.16836,181.229167 4242.22891,178.619141 C4246.07526,173.536458 4248.34186,168.179036 4249.02871,162.546875 C4249.85293,156.914714 4250.26504,154.029948 4250.26504,153.892578 C4250.26504,134.935547 4250.26504,106.36263 4250.26504,68.1738281 C4250.26504,66.1132812 4250.95189,64.327474 4252.32559,62.8164062 C4253.83665,61.4427083 4255.62246,60.7558594 4257.68301,60.7558594 C4259.74355,60.7558594 4261.46068,61.4427083 4262.83438,62.8164062 C4264.34544,64.327474 4265.10098,66.1132812 4265.10098,68.1738281 C4265.10098,87.2682292 4265.10098,115.841146 4265.10098,153.892578 C4265.10098,157.326823 4264.75755,161.035807 4264.0707,165.019531 C4263.24648,168.865885 4262.07884,172.71224 4260.56777,176.558594 C4257.54564,183.564453 4252.94375,189.746094 4246.76211,195.103516 C4240.4431,200.323568 4232.13223,202.933594 4221.82949,202.933594 C4216.19733,202.933594 4211.18333,202.109375 4206.7875,200.460938 C4202.52904,198.8125 4198.75137,196.614583 4195.45449,193.867188 C4189.41022,188.784505 4185.08307,182.465495 4182.47305,174.910156 C4179.72565,167.354818 4178.35195,160.348958 4178.35195,153.892578 Z" transform="translate(-4161.5)"/></svg>