<svg xmlns="http://www.w3.org/2000/svg" width="120" height="243" viewBox="0 0 120 243"><path fill="#131313" d="M16.8519531,116.892578 C16.8519531,97.9355469 16.8519531,69.3626302 16.8519531,31.1738281 C16.8519531,29.1132812 17.607487,27.327474 19.1185547,25.8164062 C20.6296224,24.4427083 22.4154297,23.7558594 24.4759766,23.7558594 C26.5365234,23.7558594 28.2536458,24.4427083 29.6273438,25.8164062 C31.1384115,27.327474 31.8939453,29.1132812 31.8939453,31.1738281 C31.8939453,50.2682292 31.8939453,78.8411458 31.8939453,116.892578 C31.8939453,117.029948 32.2373698,119.914714 32.9242188,125.546875 C33.6110677,131.179036 35.8776693,136.536458 39.7240234,141.619141 C41.7845703,144.229167 44.5319661,146.427083 47.9662109,148.212891 C51.2630859,150.136068 55.3841797,151.097656 60.3294922,151.097656 C65.2748047,151.097656 69.3958984,150.136068 72.6927734,148.212891 C75.9896484,146.427083 78.6683594,144.229167 80.7289063,141.619141 C84.5752604,136.536458 86.841862,131.179036 87.5287109,125.546875 C88.3529297,119.914714 88.7650391,117.029948 88.7650391,116.892578 C88.7650391,97.9355469 88.7650391,69.3626302 88.7650391,31.1738281 C88.7650391,29.1132812 89.451888,27.327474 90.8255859,25.8164062 C92.3366536,24.4427083 94.1224609,23.7558594 96.1830078,23.7558594 C98.2435547,23.7558594 99.9606771,24.4427083 101.334375,25.8164062 C102.845443,27.327474 103.600977,29.1132812 103.600977,31.1738281 C103.600977,50.2682292 103.600977,78.8411458 103.600977,116.892578 C103.600977,120.326823 103.257552,124.035807 102.570703,128.019531 C101.746484,131.865885 100.578841,135.71224 99.0677734,139.558594 C96.045638,146.564453 91.44375,152.746094 85.2621094,158.103516 C78.943099,163.323568 70.6322266,165.933594 60.3294922,165.933594 C54.6973307,165.933594 49.6833333,165.109375 45.2875,163.460938 C41.0290365,161.8125 37.2513672,159.614583 33.9544922,156.867188 C27.9102214,151.784505 23.5830729,145.465495 20.9730469,137.910156 C18.225651,130.354818 16.8519531,123.348958 16.8519531,116.892578 Z"/></svg>