<svg xmlns="http://www.w3.org/2000/svg" width="95" height="203" viewBox="0 0 95 203"><path fill="#131313" d="M66.7089844,0 C68.9550781,0 70.9016927,0.748697917 72.5488281,2.24609375 C74.1959635,3.89322917 75.0195312,5.83984375 75.0195312,8.0859375 C75.0195312,12.4283854 75.0195312,18.9420573 75.0195312,27.6269531 C75.0195312,31.2207031 75.0195312,36.5364583 75.0195312,43.5742188 C75.0195312,51.0611979 75.0195312,62.3665365 75.0195312,77.4902344 C75.0195312,79.7363281 74.1959635,81.6829427 72.5488281,83.3300781 C70.9016927,84.827474 68.9550781,85.5761719 66.7089844,85.5761719 C64.4628906,85.5761719 62.5911458,84.827474 61.09375,83.3300781 C59.4466146,81.6829427 58.6230469,79.7363281 58.6230469,77.4902344 C58.6230469,77.1907552 58.6230469,76.6666667 58.6230469,75.9179688 C54.8795573,78.9127604 50.686849,81.233724 46.0449219,82.8808594 C41.2532552,84.6777344 36.0872396,85.5761719 30.546875,85.5761719 C25.15625,85.5761719 20.6640625,84.827474 17.0703125,83.3300781 C13.4765625,81.8326823 10.5566406,79.8860677 8.31054687,77.4902344 C4.11783854,72.9980469 1.72200521,67.8320313 1.12304687,61.9921875 C0.374348958,56.1523438 0,51.5104167 0,48.0664063 C0,39.2317708 0,25.9049479 0,8.0859375 C0,5.83984375 0.823567708,3.89322917 2.47070312,2.24609375 C3.96809896,0.748697917 5.83984375,0 8.0859375,0 C10.3320313,0 12.2786458,0.748697917 13.9257812,2.24609375 C15.4231771,3.89322917 16.171875,5.83984375 16.171875,8.0859375 C16.171875,16.9205729 16.171875,30.2473958 16.171875,48.0664063 C16.171875,56.4518229 17.1451823,62.0670573 19.0917969,64.9121094 C21.188151,67.906901 25.0065104,69.4042969 30.546875,69.4042969 C37.1354167,69.4042969 43.499349,67.0084635 49.6386719,62.2167969 C55.6282552,57.4251302 58.6230469,51.2109375 58.6230469,43.5742188 C58.6230469,39.9804688 58.6230469,34.6647135 58.6230469,27.6269531 C58.6230469,23.2845052 58.6230469,16.7708333 58.6230469,8.0859375 C58.6230469,5.83984375 59.4466146,3.89322917 61.09375,2.24609375 C62.5911458,0.748697917 64.4628906,0 66.7089844,0 Z" transform="translate(10 56)"/></svg>