<svg xmlns="http://www.w3.org/2000/svg" width="120" height="243" viewBox="0 0 120 243"><path fill="#131313" d="M104.754883,24.4121094 C106.67806,25.0989583 108.120443,26.3352865 109.082031,28.1210938 C109.63151,29.2200521 109.90625,30.3190104 109.90625,31.4179688 C109.90625,32.2421875 109.76888,33.0664062 109.494141,33.890625 C100.152995,62.1888021 86.141276,104.704753 67.4589844,161.438477 C67.4589844,161.575846 67.4589844,161.713216 67.4589844,161.850586 C67.3216146,161.987956 67.2529297,162.125326 67.2529297,162.262695 C67.2529297,162.262695 67.2529297,162.262695 67.2529297,162.262695 C67.1155599,162.400065 67.046875,162.46875 67.046875,162.46875 C66.9095052,162.60612 66.8408203,162.812174 66.8408203,163.086914 C66.7034505,163.224284 66.5660807,163.361654 66.4287109,163.499023 C66.4287109,163.636393 66.360026,163.705078 66.2226562,163.705078 C66.2226562,163.705078 66.2226562,163.705078 66.2226562,163.705078 C66.0852865,163.842448 65.9479167,163.979818 65.8105469,164.117188 C65.6731771,164.254557 65.5358073,164.391927 65.3984375,164.529297 C65.3984375,164.529297 65.3984375,164.597982 65.3984375,164.735352 C65.2610677,164.735352 65.1923828,164.735352 65.1923828,164.735352 C65.055013,164.872721 64.9176432,165.010091 64.7802734,165.147461 C64.6429036,165.147461 64.5055339,165.216146 64.3681641,165.353516 C64.3681641,165.353516 64.2994792,165.353516 64.1621094,165.353516 C64.1621094,165.490885 64.0934245,165.55957 63.9560547,165.55957 C63.8186849,165.69694 63.6813151,165.765625 63.5439453,165.765625 C63.2692057,165.902995 63.063151,165.97168 62.9257812,165.97168 C62.9257812,165.97168 62.9257812,165.97168 62.9257812,165.97168 C62.9257812,165.97168 62.8570964,166.040365 62.7197266,166.177734 C62.7197266,166.177734 62.7197266,166.177734 62.7197266,166.177734 C62.7197266,166.177734 62.7197266,166.177734 62.7197266,166.177734 C62.5823568,166.177734 62.444987,166.177734 62.3076172,166.177734 C62.0328776,166.315104 61.8268229,166.383789 61.6894531,166.383789 C61.5520833,166.383789 61.4833984,166.383789 61.4833984,166.383789 C61.3460286,166.383789 61.2086589,166.383789 61.0712891,166.383789 C61.0712891,166.383789 61.0026042,166.383789 60.8652344,166.383789 C60.7278646,166.383789 60.5904948,166.383789 60.453125,166.383789 C60.3157552,166.383789 60.1783854,166.383789 60.0410156,166.383789 C60.0410156,166.383789 59.9723307,166.383789 59.8349609,166.383789 C59.6975911,166.383789 59.6289062,166.383789 59.6289062,166.383789 C59.4915365,166.383789 59.3541667,166.383789 59.2167969,166.383789 C59.0794271,166.383789 58.9420573,166.315104 58.8046875,166.177734 C58.5299479,166.177734 58.3238932,166.109049 58.1865234,165.97168 C58.1865234,165.97168 58.1865234,165.97168 58.1865234,165.97168 C58.1865234,165.97168 58.1865234,165.97168 58.1865234,165.97168 C58.1865234,165.97168 58.1865234,165.97168 58.1865234,165.97168 C58.0491536,165.97168 57.9804688,165.97168 57.9804688,165.97168 C57.843099,165.97168 57.7057292,165.902995 57.5683594,165.765625 C57.2936198,165.765625 57.0875651,165.69694 56.9501953,165.55957 C56.8128255,165.55957 56.7441406,165.490885 56.7441406,165.353516 C56.6067708,165.353516 56.5380859,165.353516 56.5380859,165.353516 C56.4007161,165.216146 56.2633464,165.147461 56.1259766,165.147461 C55.9886068,165.010091 55.851237,164.872721 55.7138672,164.735352 C55.7138672,164.735352 55.6451823,164.735352 55.5078125,164.735352 C55.5078125,164.597982 55.5078125,164.529297 55.5078125,164.529297 C55.3704427,164.391927 55.2330729,164.254557 55.0957031,164.117188 C54.9583333,163.979818 54.8209635,163.842448 54.6835938,163.705078 C54.6835938,163.705078 54.6835938,163.705078 54.6835938,163.705078 C54.546224,163.567708 54.4775391,163.499023 54.4775391,163.499023 C54.3401693,163.361654 54.2027995,163.155599 54.0654297,162.880859 C53.9280599,162.74349 53.859375,162.60612 53.859375,162.46875 C53.859375,162.33138 53.7906901,162.262695 53.6533203,162.262695 C53.6533203,162.262695 53.6533203,162.19401 53.6533203,162.056641 C53.6533203,161.919271 53.5846354,161.781901 53.4472656,161.644531 C53.4472656,161.507161 53.4472656,161.369792 53.4472656,161.232422 C44.1061198,132.934245 30.094401,90.4869792 11.4121094,33.890625 C11.1373698,33.0664062 11,32.2421875 11,31.4179688 C11.1373698,30.3190104 11.4121094,29.2200521 11.8242188,28.1210938 C12.7858073,26.3352865 14.296875,25.0989583 16.3574219,24.4121094 C17.0442708,24.1373698 17.7998047,24 18.6240234,24 C19.7229818,24 20.8219401,24.2747396 21.9208984,24.8242188 C23.8440755,25.7858073 25.0804036,27.2281901 25.6298828,29.1513672 C33.4599609,52.7789714 45.0677083,88.0830078 60.453125,135.063477 C68.1458333,111.573242 79.7535807,76.2692057 95.2763672,29.1513672 C95.8258464,27.2281901 97.0621745,25.7858073 98.9853516,24.8242188 C100.771159,24 102.694336,23.8626302 104.754883,24.4121094 Z"/></svg>