<svg xmlns="http://www.w3.org/2000/svg" width="98" height="243" viewBox="0 0 98 243"><path fill="#131313" d="M80.078125,80.4394531 C82.0247396,81.188151 83.4472656,82.6106771 84.3457031,84.7070312 C84.7949219,85.7552083 85.0195312,86.8033854 85.0195312,87.8515625 C85.0195312,88.8997396 84.7949219,89.9479167 84.3457031,90.9960938 C77.7571615,106.419271 67.9492188,129.554036 54.921875,160.400391 C54.921875,160.69987 54.8470052,160.924479 54.6972656,161.074219 C54.547526,161.223958 54.4726562,161.448568 54.4726562,161.748047 C54.3229167,161.748047 54.2480469,161.748047 54.2480469,161.748047 C54.2480469,161.748047 54.2480469,161.822917 54.2480469,161.972656 C54.0983073,162.122396 53.9485677,162.272135 53.7988281,162.421875 C53.6490885,162.571615 53.5742188,162.721354 53.5742188,162.871094 C53.4244792,162.871094 53.3496094,162.871094 53.3496094,162.871094 C53.3496094,163.020833 53.2747396,163.095703 53.125,163.095703 C52.9752604,163.245443 52.8255208,163.395182 52.6757812,163.544922 C52.5260417,163.544922 52.3763021,163.619792 52.2265625,163.769531 C52.2265625,163.769531 52.2265625,163.844401 52.2265625,163.994141 C52.2265625,163.994141 52.1516927,163.994141 52.0019531,163.994141 C51.8522135,164.14388 51.6276042,164.29362 51.328125,164.443359 C51.1783854,164.593099 51.0286458,164.667969 50.8789062,164.667969 C50.7291667,164.667969 50.6542969,164.667969 50.6542969,164.667969 C50.6542969,164.667969 50.6542969,164.667969 50.6542969,164.667969 C50.6542969,164.817708 50.6542969,164.892578 50.6542969,164.892578 C50.5045573,164.892578 50.4296875,164.892578 50.4296875,164.892578 C50.2799479,164.892578 50.1302083,164.967448 49.9804688,165.117188 C49.6809896,165.117188 49.4563802,165.117188 49.3066406,165.117188 C49.3066406,165.117188 49.2317708,165.117188 49.0820312,165.117188 C49.0820312,165.266927 49.0071615,165.341797 48.8574219,165.341797 C48.7076823,165.341797 48.4830729,165.341797 48.1835938,165.341797 C48.0338542,165.341797 47.8092448,165.341797 47.5097656,165.341797 C47.5097656,165.341797 47.5097656,165.341797 47.5097656,165.341797 C47.5097656,165.341797 47.5097656,165.341797 47.5097656,165.341797 C47.5097656,165.341797 47.5097656,165.341797 47.5097656,165.341797 C47.5097656,165.341797 47.5097656,165.341797 47.5097656,165.341797 C47.2102865,165.341797 46.9856771,165.341797 46.8359375,165.341797 C46.5364583,165.341797 46.311849,165.341797 46.1621094,165.341797 C46.0123698,165.341797 45.9375,165.266927 45.9375,165.117188 C45.7877604,165.117188 45.7128906,165.117188 45.7128906,165.117188 C45.563151,165.117188 45.3385417,165.117188 45.0390625,165.117188 C44.8893229,164.967448 44.7395833,164.892578 44.5898438,164.892578 C44.5898438,164.892578 44.514974,164.892578 44.3652344,164.892578 C44.3652344,164.892578 44.3652344,164.817708 44.3652344,164.667969 C44.3652344,164.667969 44.3652344,164.667969 44.3652344,164.667969 C44.3652344,164.667969 44.2903646,164.667969 44.140625,164.667969 C43.9908854,164.667969 43.8411458,164.593099 43.6914062,164.443359 C43.3919271,164.29362 43.1673177,164.14388 43.0175781,163.994141 C42.8678385,163.994141 42.7929688,163.994141 42.7929688,163.994141 C42.7929688,163.844401 42.7929688,163.769531 42.7929688,163.769531 C42.6432292,163.619792 42.4934896,163.544922 42.34375,163.544922 C42.1940104,163.395182 42.0442708,163.245443 41.8945312,163.095703 C41.7447917,163.095703 41.6699219,163.020833 41.6699219,162.871094 C41.6699219,162.871094 41.5950521,162.871094 41.4453125,162.871094 C41.4453125,162.721354 41.3704427,162.571615 41.2207031,162.421875 C41.0709635,162.272135 40.921224,162.122396 40.7714844,161.972656 C40.7714844,161.822917 40.7714844,161.748047 40.7714844,161.748047 C40.7714844,161.748047 40.6966146,161.748047 40.546875,161.748047 C40.546875,161.448568 40.4720052,161.223958 40.3222656,161.074219 C40.172526,160.924479 40.0976562,160.69987 40.0976562,160.400391 C33.5091146,144.977214 23.7011719,121.842448 10.6738281,90.9960938 C10.2246094,89.9479167 10,88.8997396 10,87.8515625 C10,86.8033854 10.2246094,85.7552083 10.6738281,84.7070312 C11.422526,82.6106771 12.8450521,81.188151 14.9414062,80.4394531 C17.0377604,79.5410156 19.1341146,79.4661458 21.2304688,80.2148438 C23.3268229,81.1132812 24.8242188,82.6106771 25.7226562,84.7070312 C30.5143229,96.0872396 37.7766927,113.307292 47.5097656,136.367188 C52.3014323,124.83724 59.5638021,107.617188 69.296875,84.7070312 C70.1953125,82.6106771 71.6927083,81.1132812 73.7890625,80.2148438 C75.8854167,79.4661458 77.9817708,79.5410156 80.078125,80.4394531 Z"/></svg>