<svg xmlns="http://www.w3.org/2000/svg" width="120" height="203" viewBox="0 0 120 203"><path fill="#131313" d="M4713.91488,0.490234375 C4715.97543,0.90234375 4717.55518,1.93261719 4718.65414,3.58105469 C4719.47836,4.9547526 4719.89047,6.32845052 4719.89047,7.70214844 C4719.89047,8.2516276 4719.89047,8.80110677 4719.89047,9.35058594 C4714.53305,37.648763 4706.5656,80.0960286 4695.98813,136.692383 C4695.98813,136.692383 4695.98813,136.692383 4695.98813,136.692383 C4695.98813,136.692383 4695.98813,136.692383 4695.98813,136.692383 C4695.85076,136.829753 4695.78207,136.967122 4695.78207,137.104492 C4695.78207,137.104492 4695.78207,137.173177 4695.78207,137.310547 C4695.6447,137.447917 4695.57602,137.585286 4695.57602,137.722656 C4695.57602,137.860026 4695.50733,137.997396 4695.36996,138.134766 C4695.36996,138.134766 4695.36996,138.203451 4695.36996,138.34082 C4695.36996,138.47819 4695.30128,138.546875 4695.16391,138.546875 C4695.16391,138.684245 4695.09522,138.821615 4694.95785,138.958984 C4694.95785,139.096354 4694.88917,139.233724 4694.7518,139.371094 C4694.7518,139.371094 4694.7518,139.439779 4694.7518,139.577148 C4694.61443,139.577148 4694.54574,139.645833 4694.54574,139.783203 C4694.40837,139.920573 4694.33969,139.989258 4694.33969,139.989258 C4694.20232,140.126628 4694.06495,140.263997 4693.92758,140.401367 C4693.92758,140.401367 4693.85889,140.470052 4693.72152,140.607422 C4693.72152,140.607422 4693.65284,140.676107 4693.51547,140.813477 C4693.51547,140.950846 4693.44678,141.019531 4693.30941,141.019531 C4693.17204,141.156901 4693.03467,141.225586 4692.8973,141.225586 C4692.8973,141.362956 4692.82862,141.431641 4692.69125,141.431641 C4692.69125,141.56901 4692.62257,141.637695 4692.4852,141.637695 C4692.34783,141.775065 4692.21046,141.84375 4692.07309,141.84375 C4691.93572,141.84375 4691.79835,141.912435 4691.66098,142.049805 C4691.66098,142.049805 4691.59229,142.049805 4691.45492,142.049805 C4691.45492,142.187174 4691.38624,142.255859 4691.24887,142.255859 C4691.1115,142.255859 4690.90544,142.324544 4690.6307,142.461914 C4690.49333,142.461914 4690.28728,142.530599 4690.01254,142.667969 C4690.01254,142.667969 4690.01254,142.667969 4690.01254,142.667969 C4690.01254,142.667969 4690.01254,142.667969 4690.01254,142.667969 C4690.01254,142.667969 4690.01254,142.667969 4690.01254,142.667969 C4690.01254,142.667969 4690.01254,142.667969 4690.01254,142.667969 C4689.7378,142.667969 4689.46306,142.667969 4689.18832,142.667969 C4689.05095,142.667969 4688.8449,142.667969 4688.57016,142.667969 C4688.29542,142.667969 4688.08936,142.667969 4687.95199,142.667969 C4687.67725,142.667969 4687.40251,142.667969 4687.12777,142.667969 C4687.12777,142.667969 4687.12777,142.667969 4687.12777,142.667969 C4687.12777,142.667969 4687.12777,142.667969 4687.12777,142.667969 C4687.12777,142.667969 4687.12777,142.667969 4687.12777,142.667969 C4687.12777,142.667969 4687.12777,142.667969 4687.12777,142.667969 C4686.85303,142.530599 4686.64698,142.461914 4686.50961,142.461914 C4686.23487,142.324544 4686.02882,142.255859 4685.89145,142.255859 C4685.75408,142.255859 4685.68539,142.187174 4685.68539,142.049805 C4685.54802,142.049805 4685.47934,142.049805 4685.47934,142.049805 C4685.34197,141.912435 4685.2046,141.84375 4685.06723,141.84375 C4684.92986,141.84375 4684.79249,141.775065 4684.65512,141.637695 C4684.51775,141.637695 4684.44906,141.56901 4684.44906,141.431641 C4684.31169,141.431641 4684.24301,141.362956 4684.24301,141.225586 C4684.10564,141.225586 4683.96827,141.156901 4683.8309,141.019531 C4683.69353,141.019531 4683.62484,140.950846 4683.62484,140.813477 C4683.48747,140.676107 4683.41879,140.607422 4683.41879,140.607422 C4683.28142,140.470052 4683.21273,140.401367 4683.21273,140.401367 C4683.07536,140.263997 4682.93799,140.126628 4682.80063,139.989258 C4682.80063,139.989258 4682.73194,139.920573 4682.59457,139.783203 C4682.59457,139.645833 4682.52589,139.577148 4682.38852,139.577148 C4682.38852,139.439779 4682.38852,139.371094 4682.38852,139.371094 C4682.25115,139.233724 4682.11378,139.096354 4681.97641,138.958984 C4681.97641,138.821615 4681.97641,138.684245 4681.97641,138.546875 C4681.83904,138.546875 4681.77035,138.47819 4681.77035,138.34082 C4681.77035,138.203451 4681.70167,138.134766 4681.5643,138.134766 C4681.5643,137.997396 4681.5643,137.860026 4681.5643,137.722656 C4681.42693,137.585286 4681.35824,137.447917 4681.35824,137.310547 C4681.35824,137.173177 4681.35824,137.104492 4681.35824,137.104492 C4681.35824,136.967122 4681.28956,136.829753 4681.15219,136.692383 C4681.15219,136.692383 4681.15219,136.692383 4681.15219,136.692383 C4681.15219,136.692383 4681.15219,136.692383 4681.15219,136.692383 C4677.4432,117.048503 4671.94841,87.5826823 4664.66781,48.2949219 C4660.95883,67.9388021 4655.39535,97.4046224 4647.97738,136.692383 C4647.97738,136.692383 4647.97738,136.692383 4647.97738,136.692383 C4647.97738,136.692383 4647.97738,136.692383 4647.97738,136.692383 C4647.97738,136.829753 4647.97738,136.967122 4647.97738,137.104492 C4647.97738,137.104492 4647.9087,137.173177 4647.77133,137.310547 C4647.77133,137.447917 4647.77133,137.585286 4647.77133,137.722656 C4647.77133,137.860026 4647.70264,137.997396 4647.56527,138.134766 C4647.56527,138.134766 4647.56527,138.203451 4647.56527,138.34082 C4647.4279,138.47819 4647.35922,138.546875 4647.35922,138.546875 C4647.35922,138.684245 4647.29053,138.821615 4647.15316,138.958984 C4647.15316,139.096354 4647.08448,139.233724 4646.94711,139.371094 C4646.94711,139.371094 4646.87842,139.439779 4646.74105,139.577148 C4646.74105,139.577148 4646.74105,139.645833 4646.74105,139.783203 C4646.60368,139.920573 4646.46632,139.989258 4646.32895,139.989258 C4646.32895,140.126628 4646.26026,140.263997 4646.12289,140.401367 C4646.12289,140.401367 4646.05421,140.470052 4645.91684,140.607422 C4645.91684,140.607422 4645.84815,140.676107 4645.71078,140.813477 C4645.57341,140.950846 4645.50473,141.019531 4645.50473,141.019531 C4645.36736,141.156901 4645.22999,141.225586 4645.09262,141.225586 C4645.09262,141.362956 4645.02393,141.431641 4644.88656,141.431641 C4644.74919,141.56901 4644.68051,141.637695 4644.68051,141.637695 C4644.54314,141.775065 4644.40577,141.84375 4644.2684,141.84375 C4644.13103,141.84375 4643.99366,141.912435 4643.85629,142.049805 C4643.85629,142.049805 4643.7876,142.049805 4643.65023,142.049805 C4643.51286,142.187174 4643.44418,142.255859 4643.44418,142.255859 C4643.16944,142.255859 4642.96339,142.324544 4642.82602,142.461914 C4642.68865,142.461914 4642.48259,142.530599 4642.20785,142.667969 C4642.20785,142.667969 4642.20785,142.667969 4642.20785,142.667969 C4642.20785,142.667969 4642.13917,142.667969 4642.0018,142.667969 C4642.0018,142.667969 4642.0018,142.667969 4642.0018,142.667969 C4642.0018,142.667969 4642.0018,142.667969 4642.0018,142.667969 C4641.86443,142.667969 4641.65837,142.667969 4641.38363,142.667969 C4641.10889,142.667969 4640.90284,142.667969 4640.76547,142.667969 C4640.49073,142.667969 4640.21599,142.667969 4639.94125,142.667969 C4639.80388,142.667969 4639.59783,142.667969 4639.32309,142.667969 C4639.32309,142.667969 4639.32309,142.667969 4639.32309,142.667969 C4639.32309,142.667969 4639.32309,142.667969 4639.32309,142.667969 C4639.32309,142.667969 4639.32309,142.667969 4639.32309,142.667969 C4639.32309,142.667969 4639.2544,142.667969 4639.11703,142.667969 C4638.97966,142.530599 4638.77361,142.461914 4638.49887,142.461914 C4638.3615,142.324544 4638.22413,142.255859 4638.08676,142.255859 C4637.94939,142.255859 4637.81202,142.187174 4637.67465,142.049805 C4637.67465,142.049805 4637.60596,142.049805 4637.46859,142.049805 C4637.33122,141.912435 4637.19385,141.84375 4637.05648,141.84375 C4637.05648,141.84375 4636.9878,141.775065 4636.85043,141.637695 C4636.71306,141.637695 4636.57569,141.56901 4636.43832,141.431641 C4636.43832,141.431641 4636.36964,141.362956 4636.23227,141.225586 C4636.23227,141.225586 4636.16358,141.156901 4636.02621,141.019531 C4635.88884,141.019531 4635.75147,140.950846 4635.6141,140.813477 C4635.6141,140.676107 4635.54542,140.607422 4635.40805,140.607422 C4635.40805,140.470052 4635.33936,140.401367 4635.20199,140.401367 C4635.20199,140.263997 4635.13331,140.126628 4634.99594,139.989258 C4634.85857,139.989258 4634.78988,139.920573 4634.78988,139.783203 C4634.65251,139.645833 4634.58383,139.577148 4634.58383,139.577148 C4634.58383,139.439779 4634.51514,139.371094 4634.37777,139.371094 C4634.37777,139.233724 4634.30909,139.096354 4634.17172,138.958984 C4634.17172,138.821615 4634.10303,138.684245 4633.96566,138.546875 C4633.96566,138.546875 4633.96566,138.47819 4633.96566,138.34082 C4633.82829,138.203451 4633.75961,138.134766 4633.75961,138.134766 C4633.75961,137.997396 4633.75961,137.860026 4633.75961,137.722656 C4633.62224,137.585286 4633.55355,137.447917 4633.55355,137.310547 C4633.55355,137.173177 4633.48487,137.104492 4633.3475,137.104492 C4633.3475,136.967122 4633.3475,136.829753 4633.3475,136.692383 C4633.3475,136.692383 4633.3475,136.692383 4633.3475,136.692383 C4633.3475,136.692383 4633.3475,136.692383 4633.3475,136.692383 C4627.99008,108.394206 4620.02263,65.9469401 4609.44516,9.35058594 C4609.30779,8.80110677 4609.2391,8.2516276 4609.2391,7.70214844 C4609.2391,6.32845052 4609.7199,4.9547526 4610.68148,3.58105469 C4611.78044,1.93261719 4613.3602,0.90234375 4615.42074,0.490234375 C4617.48129,0.078125 4619.33578,0.490234375 4620.98422,1.7265625 C4622.77003,2.82552083 4623.8003,4.40527344 4624.07504,6.46582031 C4627.78402,26.1097005 4633.3475,55.5068359 4640.76547,94.6572266 C4644.33708,75.0133464 4649.83188,45.6162109 4657.24984,6.46582031 C4657.24984,6.46582031 4657.24984,6.46582031 4657.24984,6.46582031 C4657.24984,6.46582031 4657.24984,6.39713542 4657.24984,6.25976562 C4657.24984,6.12239583 4657.31853,5.98502604 4657.4559,5.84765625 C4657.4559,5.71028646 4657.4559,5.57291667 4657.4559,5.43554687 C4657.59327,5.43554687 4657.66195,5.36686198 4657.66195,5.22949219 C4657.66195,5.0921224 4657.66195,5.0234375 4657.66195,5.0234375 C4657.79932,4.88606771 4657.86801,4.74869792 4657.86801,4.61132813 C4658.00538,4.47395833 4658.07406,4.40527344 4658.07406,4.40527344 C4658.07406,4.26790365 4658.14275,4.13053385 4658.28012,3.99316406 C4658.28012,3.85579427 4658.3488,3.71842448 4658.48617,3.58105469 C4658.48617,3.58105469 4658.55486,3.51236979 4658.69223,3.375 C4658.69223,3.375 4658.69223,3.3063151 4658.69223,3.16894531 C4658.8296,3.03157552 4658.96697,2.96289063 4659.10434,2.96289063 C4659.10434,2.82552083 4659.17302,2.68815104 4659.31039,2.55078125 C4659.44776,2.55078125 4659.51645,2.48209635 4659.51645,2.34472656 C4659.65382,2.34472656 4659.7225,2.27604167 4659.7225,2.13867188 C4659.85987,2.13867188 4659.99724,2.06998698 4660.13461,1.93261719 C4660.27198,1.7952474 4660.40935,1.7265625 4660.54672,1.7265625 C4660.54672,1.58919271 4660.6154,1.52050781 4660.75277,1.52050781 C4660.75277,1.52050781 4660.82146,1.45182292 4660.95883,1.31445313 C4661.0962,1.31445313 4661.23357,1.24576823 4661.37094,1.10839844 C4661.50831,1.10839844 4661.64568,1.03971354 4661.78305,0.90234375 C4661.78305,0.90234375 4661.85173,0.90234375 4661.9891,0.90234375 C4662.12647,0.90234375 4662.19516,0.90234375 4662.19516,0.90234375 C4662.33253,0.764973958 4662.53858,0.696289063 4662.81332,0.696289063 C4662.95069,0.558919271 4663.08806,0.490234375 4663.22543,0.490234375 C4663.22543,0.490234375 4663.22543,0.490234375 4663.22543,0.490234375 C4663.22543,0.490234375 4663.22543,0.490234375 4663.22543,0.490234375 C4663.3628,0.490234375 4663.50017,0.490234375 4663.63754,0.490234375 C4663.63754,0.490234375 4663.70622,0.490234375 4663.84359,0.490234375 C4663.98096,0.490234375 4664.11833,0.490234375 4664.2557,0.490234375 C4664.39307,0.490234375 4664.53044,0.490234375 4664.66781,0.490234375 C4664.80518,0.490234375 4664.94255,0.490234375 4665.07992,0.490234375 C4665.21729,0.490234375 4665.42335,0.490234375 4665.69809,0.490234375 C4665.69809,0.490234375 4665.76677,0.490234375 4665.90414,0.490234375 C4665.90414,0.490234375 4665.97283,0.490234375 4666.1102,0.490234375 C4666.1102,0.490234375 4666.1102,0.490234375 4666.1102,0.490234375 C4666.1102,0.490234375 4666.1102,0.490234375 4666.1102,0.490234375 C4666.24757,0.627604167 4666.45362,0.696289063 4666.72836,0.696289063 C4666.86573,0.696289063 4667.0031,0.764973958 4667.14047,0.90234375 C4667.27784,0.90234375 4667.34652,0.90234375 4667.34652,0.90234375 C4667.34652,0.90234375 4667.41521,0.90234375 4667.55258,0.90234375 C4667.68995,1.03971354 4667.82732,1.17708333 4667.96469,1.31445313 C4668.10206,1.31445313 4668.30811,1.38313802 4668.58285,1.52050781 C4668.58285,1.52050781 4668.58285,1.52050781 4668.58285,1.52050781 C4668.72022,1.52050781 4668.78891,1.58919271 4668.78891,1.7265625 C4668.92628,1.7265625 4669.06365,1.7952474 4669.20102,1.93261719 C4669.33839,2.06998698 4669.47576,2.20735677 4669.61313,2.34472656 C4669.75049,2.34472656 4669.81918,2.41341146 4669.81918,2.55078125 C4669.81918,2.55078125 4669.81918,2.55078125 4669.81918,2.55078125 C4669.95655,2.68815104 4670.09392,2.82552083 4670.23129,2.96289063 C4670.36866,3.10026042 4670.50603,3.23763021 4670.6434,3.375 C4670.6434,3.375 4670.6434,3.4436849 4670.6434,3.58105469 C4670.78077,3.58105469 4670.84945,3.58105469 4670.84945,3.58105469 C4670.84945,3.71842448 4670.91814,3.85579427 4671.05551,3.99316406 C4671.05551,4.13053385 4671.12419,4.26790365 4671.26156,4.40527344 C4671.26156,4.54264323 4671.33025,4.61132813 4671.46762,4.61132813 C4671.46762,4.74869792 4671.46762,4.88606771 4671.46762,5.0234375 C4671.60499,5.0234375 4671.67367,5.0921224 4671.67367,5.22949219 C4671.67367,5.36686198 4671.67367,5.50423177 4671.67367,5.64160156 C4671.81104,5.77897135 4671.87973,5.91634115 4671.87973,6.05371094 C4671.87973,6.19108073 4671.87973,6.32845052 4671.87973,6.46582031 C4671.87973,6.46582031 4671.87973,6.46582031 4671.87973,6.46582031 C4672.0171,6.46582031 4672.08578,6.46582031 4672.08578,6.46582031 C4675.6574,26.1097005 4681.15219,55.5755208 4688.57016,94.8632812 C4692.27914,75.219401 4697.77393,45.7535807 4705.05453,6.46582031 C4705.46664,4.40527344 4706.5656,2.82552083 4708.35141,1.7265625 C4709.99984,0.490234375 4711.85434,0.078125 4713.91488,0.490234375 Z" transform="translate(-4604.5 -.528)"/></svg>