<svg xmlns="http://www.w3.org/2000/svg" width="107" height="203" viewBox="0 0 107 203"><path fill="#131313" d="M81.9599609,0.44921875 C84.0563151,1.04817708 85.7034505,2.32096354 86.9013672,4.26757812 C87.6500651,5.46549479 88.0244141,6.73828125 88.0244141,8.0859375 C88.0244141,8.83463542 87.9495443,9.58333333 87.7998047,10.3320313 C83.7568359,25.7552083 77.7672526,48.889974 69.8310547,79.7363281 C69.8310547,79.8860677 69.8310547,79.9609375 69.8310547,79.9609375 C69.8310547,79.9609375 69.8310547,80.0358073 69.8310547,80.1855469 C69.6813151,80.3352865 69.6064453,80.4101563 69.6064453,80.4101563 C69.6064453,80.5598958 69.6064453,80.6347656 69.6064453,80.6347656 C69.4567057,80.7845052 69.3818359,80.9342448 69.3818359,81.0839844 C69.2320964,81.233724 69.1572266,81.3834635 69.1572266,81.5332031 C69.1572266,81.6829427 69.0823568,81.7578125 68.9326172,81.7578125 C68.9326172,81.9075521 68.9326172,81.9824219 68.9326172,81.9824219 C68.7828776,82.1321615 68.7080078,82.281901 68.7080078,82.4316406 C68.5582682,82.5813802 68.4085286,82.7311198 68.2587891,82.8808594 C68.2587891,82.8808594 68.2587891,82.9557292 68.2587891,83.1054688 C68.1090495,83.1054688 68.0341797,83.1803385 68.0341797,83.3300781 C67.8844401,83.4798177 67.7347005,83.6295573 67.5849609,83.7792969 C67.4352214,83.9290365 67.210612,84.078776 66.9111328,84.2285156 C66.9111328,84.2285156 66.9111328,84.2285156 66.9111328,84.2285156 C66.9111328,84.2285156 66.9111328,84.2285156 66.9111328,84.2285156 C66.6116536,84.3782552 66.3870443,84.5279948 66.2373047,84.6777344 C66.0875651,84.827474 65.9378255,84.9023438 65.7880859,84.9023438 C65.6383464,85.0520833 65.5634766,85.1269531 65.5634766,85.1269531 C65.413737,85.1269531 65.3388672,85.1269531 65.3388672,85.1269531 C65.1891276,85.2766927 64.9645182,85.3515625 64.6650391,85.3515625 C64.5152995,85.5013021 64.3655599,85.5761719 64.2158203,85.5761719 C64.2158203,85.5761719 64.2158203,85.5761719 64.2158203,85.5761719 C64.0660807,85.5761719 63.9912109,85.5761719 63.9912109,85.5761719 C63.9912109,85.5761719 63.9163411,85.6510417 63.7666016,85.8007813 C63.7666016,85.8007813 63.6917318,85.8007813 63.5419922,85.8007813 C63.5419922,85.8007813 63.4671224,85.8007813 63.3173828,85.8007813 C63.3173828,85.8007813 63.242513,85.8007813 63.0927734,85.8007813 C62.9430339,85.8007813 62.7932943,85.8007813 62.6435547,85.8007813 C62.4938151,85.8007813 62.2692057,85.8007813 61.9697266,85.8007813 C61.9697266,85.8007813 61.9697266,85.8007813 61.9697266,85.8007813 C61.9697266,85.8007813 61.9697266,85.8007813 61.9697266,85.8007813 C61.9697266,85.8007813 61.9697266,85.8007813 61.9697266,85.8007813 C61.9697266,85.8007813 61.9697266,85.8007813 61.9697266,85.8007813 C61.819987,85.8007813 61.5953776,85.8007813 61.2958984,85.8007813 C61.1461589,85.8007813 60.9964193,85.8007813 60.8466797,85.8007813 C60.6969401,85.8007813 60.6220703,85.8007813 60.6220703,85.8007813 C60.4723307,85.8007813 60.3974609,85.8007813 60.3974609,85.8007813 C60.2477214,85.8007813 60.1728516,85.7259115 60.1728516,85.5761719 C60.023112,85.5761719 59.9482422,85.5761719 59.9482422,85.5761719 C59.9482422,85.5761719 59.8733724,85.5761719 59.7236328,85.5761719 C59.7236328,85.5761719 59.7236328,85.5761719 59.7236328,85.5761719 C59.5738932,85.5761719 59.4241536,85.5013021 59.2744141,85.3515625 C59.1246745,85.3515625 58.9749349,85.2766927 58.8251953,85.1269531 C58.6754557,85.1269531 58.6005859,85.1269531 58.6005859,85.1269531 C58.4508464,85.1269531 58.3759766,85.0520833 58.3759766,84.9023438 C58.0764974,84.9023438 57.851888,84.827474 57.7021484,84.6777344 C57.5524089,84.5279948 57.3277995,84.3782552 57.0283203,84.2285156 C57.0283203,84.2285156 57.0283203,84.2285156 57.0283203,84.2285156 C57.0283203,84.2285156 57.0283203,84.2285156 57.0283203,84.2285156 C56.8785807,84.078776 56.6539714,83.9290365 56.3544922,83.7792969 C56.2047526,83.6295573 56.055013,83.4798177 55.9052734,83.3300781 C55.9052734,83.1803385 55.9052734,83.1054688 55.9052734,83.1054688 C55.7555339,82.9557292 55.6806641,82.8808594 55.6806641,82.8808594 C55.5309245,82.7311198 55.4560547,82.5813802 55.4560547,82.4316406 C55.3063151,82.281901 55.1565755,82.1321615 55.0068359,81.9824219 C55.0068359,81.9824219 55.0068359,81.9075521 55.0068359,81.7578125 C55.0068359,81.7578125 54.9319661,81.6829427 54.7822266,81.5332031 C54.7822266,81.3834635 54.7073568,81.233724 54.5576172,81.0839844 C54.5576172,81.0839844 54.4827474,81.0091146 54.3330078,80.859375 C54.3330078,80.7096354 54.3330078,80.5598958 54.3330078,80.4101563 C54.3330078,80.4101563 54.3330078,80.3352865 54.3330078,80.1855469 C54.1832682,80.1855469 54.1083984,80.1106771 54.1083984,79.9609375 C54.1083984,79.9609375 54.1083984,79.8860677 54.1083984,79.7363281 C51.8623047,71.2011719 48.4931641,58.2486979 44.0009766,40.8789062 C41.7548828,49.5638021 38.460612,62.516276 34.1181641,79.7363281 C34.1181641,79.8860677 34.0432943,79.9609375 33.8935547,79.9609375 C33.8935547,80.1106771 33.8935547,80.1855469 33.8935547,80.1855469 C33.8935547,80.3352865 33.8935547,80.4101563 33.8935547,80.4101563 C33.7438151,80.5598958 33.6689453,80.7096354 33.6689453,80.859375 C33.6689453,81.0091146 33.5940755,81.0839844 33.4443359,81.0839844 C33.4443359,81.233724 33.3694661,81.3834635 33.2197266,81.5332031 C33.2197266,81.6829427 33.2197266,81.7578125 33.2197266,81.7578125 C33.2197266,81.9075521 33.1448568,81.9824219 32.9951172,81.9824219 C32.9951172,82.1321615 32.9202474,82.281901 32.7705078,82.4316406 C32.6207682,82.5813802 32.5458984,82.7311198 32.5458984,82.8808594 C32.3961589,82.8808594 32.3212891,82.9557292 32.3212891,83.1054688 C32.3212891,83.1054688 32.2464193,83.1803385 32.0966797,83.3300781 C31.9469401,83.4798177 31.7972005,83.6295573 31.6474609,83.7792969 C31.4977214,83.9290365 31.3479818,84.078776 31.1982422,84.2285156 C31.1982422,84.2285156 31.1233724,84.2285156 30.9736328,84.2285156 C30.9736328,84.2285156 30.9736328,84.2285156 30.9736328,84.2285156 C30.8238932,84.3782552 30.6741536,84.5279948 30.5244141,84.6777344 C30.2249349,84.827474 30.0003255,84.9772135 29.8505859,85.1269531 C29.8505859,85.1269531 29.7757161,85.1269531 29.6259766,85.1269531 C29.6259766,85.1269531 29.5511068,85.1269531 29.4013672,85.1269531 C29.2516276,85.2766927 29.101888,85.3515625 28.9521484,85.3515625 C28.8024089,85.5013021 28.6526693,85.5761719 28.5029297,85.5761719 C28.3531901,85.5761719 28.2783203,85.5761719 28.2783203,85.5761719 C28.2783203,85.5761719 28.2783203,85.5761719 28.2783203,85.5761719 C28.1285807,85.7259115 28.0537109,85.8007813 28.0537109,85.8007813 C27.9039714,85.8007813 27.8291016,85.8007813 27.8291016,85.8007813 C27.679362,85.8007813 27.6044922,85.8007813 27.6044922,85.8007813 C27.4547526,85.8007813 27.3798828,85.8007813 27.3798828,85.8007813 C27.2301432,85.8007813 27.0055339,85.8007813 26.7060547,85.8007813 C26.5563151,85.9505208 26.4065755,86.0253906 26.2568359,86.0253906 C26.2568359,86.0253906 26.2568359,86.0253906 26.2568359,86.0253906 C26.2568359,86.0253906 26.2568359,86.0253906 26.2568359,86.0253906 C26.1070964,86.0253906 26.0322266,86.0253906 26.0322266,86.0253906 C26.0322266,86.0253906 26.0322266,86.0253906 26.0322266,86.0253906 C25.882487,86.0253906 25.7327474,85.9505208 25.5830078,85.8007813 C25.4332682,85.8007813 25.2086589,85.8007813 24.9091797,85.8007813 C24.9091797,85.8007813 24.8343099,85.8007813 24.6845703,85.8007813 C24.6845703,85.8007813 24.6097005,85.8007813 24.4599609,85.8007813 C24.4599609,85.8007813 24.3850911,85.8007813 24.2353516,85.8007813 C24.2353516,85.8007813 24.1604818,85.7259115 24.0107422,85.5761719 C24.0107422,85.5761719 24.0107422,85.5761719 24.0107422,85.5761719 C24.0107422,85.5761719 23.9358724,85.5761719 23.7861328,85.5761719 C23.6363932,85.5761719 23.4866536,85.5013021 23.3369141,85.3515625 C23.1871745,85.3515625 23.0374349,85.2766927 22.8876953,85.1269531 C22.7379557,85.1269531 22.6630859,85.1269531 22.6630859,85.1269531 C22.5133464,85.1269531 22.4384766,85.1269531 22.4384766,85.1269531 C22.288737,84.9772135 22.0641276,84.827474 21.7646484,84.6777344 C21.6149089,84.5279948 21.4651693,84.3782552 21.3154297,84.2285156 C21.3154297,84.2285156 21.3154297,84.2285156 21.3154297,84.2285156 C21.1656901,84.2285156 21.0908203,84.2285156 21.0908203,84.2285156 C20.9410807,84.078776 20.7913411,83.9290365 20.6416016,83.7792969 C20.491862,83.6295573 20.3421224,83.4798177 20.1923828,83.3300781 C20.0426432,83.1803385 19.9677734,83.1054688 19.9677734,83.1054688 C19.9677734,82.9557292 19.8929036,82.8808594 19.7431641,82.8808594 C19.7431641,82.7311198 19.6682943,82.5813802 19.5185547,82.4316406 C19.3688151,82.281901 19.2939453,82.1321615 19.2939453,81.9824219 C19.1442057,81.9824219 19.0693359,81.9075521 19.0693359,81.7578125 C19.0693359,81.7578125 18.9944661,81.6829427 18.8447266,81.5332031 C18.8447266,81.3834635 18.8447266,81.233724 18.8447266,81.0839844 C18.694987,80.9342448 18.6201172,80.7845052 18.6201172,80.6347656 C18.6201172,80.6347656 18.5452474,80.5598958 18.3955078,80.4101563 C18.3955078,80.2604167 18.3955078,80.1855469 18.3955078,80.1855469 C18.3955078,80.0358073 18.320638,79.9609375 18.1708984,79.9609375 C18.1708984,79.9609375 18.1708984,79.8860677 18.1708984,79.7363281 C14.2776693,64.313151 8.28808594,41.1783854 0.202148438,10.3320313 C-0.247070313,8.0859375 0.0524088542,5.98958333 1.10058594,4.04296875 C2.2985026,2.24609375 3.94563802,1.04817708 6.04199219,0.44921875 C6.7906901,0.149739583 7.53938802,0 8.28808594,0 C9.63574219,0.149739583 10.9833984,0.598958333 12.3310547,1.34765625 C14.2776693,2.39583333 15.5504557,4.04296875 16.1494141,6.2890625 C18.3955078,14.8242188 21.6897786,27.7766927 26.0322266,45.1464844 C28.2783203,36.4615885 31.6474609,23.5091146 36.1396484,6.2890625 C36.1396484,6.13932292 36.1396484,6.06445313 36.1396484,6.06445313 C36.1396484,6.06445313 36.1396484,5.98958333 36.1396484,5.83984375 C36.289388,5.69010417 36.3642578,5.61523437 36.3642578,5.61523437 C36.3642578,5.46549479 36.4391276,5.31575521 36.5888672,5.16601562 C36.5888672,5.01627604 36.5888672,4.86653646 36.5888672,4.71679687 C36.7386068,4.56705729 36.8134766,4.4921875 36.8134766,4.4921875 C36.9632161,4.34244792 37.0380859,4.19270833 37.0380859,4.04296875 C37.1878255,3.89322917 37.2626953,3.81835937 37.2626953,3.81835937 C37.4124349,3.66861979 37.4873047,3.51888021 37.4873047,3.36914062 C37.6370443,3.36914062 37.7119141,3.29427083 37.7119141,3.14453125 C37.8616536,2.99479167 37.9365234,2.91992188 37.9365234,2.91992188 C38.086263,2.77018229 38.2360026,2.62044271 38.3857422,2.47070313 C38.3857422,2.47070313 38.460612,2.39583333 38.6103516,2.24609375 C38.6103516,2.24609375 38.6852214,2.17122396 38.8349609,2.02148438 C38.9847005,1.87174479 39.1344401,1.796875 39.2841797,1.796875 C39.2841797,1.64713542 39.3590495,1.57226563 39.5087891,1.57226563 C39.6585286,1.42252604 39.7333984,1.34765625 39.7333984,1.34765625 C39.883138,1.34765625 40.0328776,1.27278646 40.1826172,1.12304688 C40.3323568,1.12304688 40.4820964,1.04817708 40.6318359,0.8984375 C40.6318359,0.8984375 40.7067057,0.8984375 40.8564453,0.8984375 C41.0061849,0.748697917 41.1559245,0.673828125 41.3056641,0.673828125 C41.4554036,0.673828125 41.6051432,0.598958333 41.7548828,0.44921875 C41.7548828,0.44921875 41.8297526,0.44921875 41.9794922,0.44921875 C41.9794922,0.44921875 41.9794922,0.44921875 41.9794922,0.44921875 C42.1292318,0.44921875 42.2041016,0.44921875 42.2041016,0.44921875 C42.3538411,0.44921875 42.4287109,0.44921875 42.4287109,0.44921875 C42.5784505,0.299479167 42.7281901,0.224609375 42.8779297,0.224609375 C43.0276693,0.224609375 43.1774089,0.224609375 43.3271484,0.224609375 C43.476888,0.224609375 43.6266276,0.224609375 43.7763672,0.224609375 C43.7763672,0.224609375 43.851237,0.224609375 44.0009766,0.224609375 C44.1507161,0.224609375 44.3004557,0.224609375 44.4501953,0.224609375 C44.5999349,0.224609375 44.7496745,0.224609375 44.8994141,0.224609375 C45.0491536,0.224609375 45.1988932,0.224609375 45.3486328,0.224609375 C45.4983724,0.224609375 45.648112,0.299479167 45.7978516,0.44921875 C45.7978516,0.44921875 45.7978516,0.44921875 45.7978516,0.44921875 C45.9475911,0.44921875 46.0224609,0.44921875 46.0224609,0.44921875 C46.1722005,0.44921875 46.2470703,0.44921875 46.2470703,0.44921875 C46.2470703,0.44921875 46.3219401,0.44921875 46.4716797,0.44921875 C46.6214193,0.598958333 46.7711589,0.673828125 46.9208984,0.673828125 C47.070638,0.673828125 47.1455078,0.748697917 47.1455078,0.8984375 C47.2952474,0.8984375 47.444987,0.8984375 47.5947266,0.8984375 C47.7444661,1.04817708 47.8193359,1.12304688 47.8193359,1.12304688 C47.9690755,1.27278646 48.1188151,1.34765625 48.2685547,1.34765625 C48.4182943,1.49739583 48.4931641,1.57226563 48.4931641,1.57226563 C48.6429036,1.57226563 48.7926432,1.64713542 48.9423828,1.796875 C49.0921224,1.94661458 49.1669922,2.02148438 49.1669922,2.02148438 C49.3167318,2.17122396 49.4664714,2.24609375 49.6162109,2.24609375 C49.6162109,2.39583333 49.6910807,2.47070313 49.8408203,2.47070313 C49.8408203,2.62044271 49.9156901,2.77018229 50.0654297,2.91992188 C50.2151693,2.91992188 50.2900391,2.99479167 50.2900391,3.14453125 C50.4397786,3.29427083 50.5146484,3.36914062 50.5146484,3.36914062 C50.664388,3.51888021 50.7392578,3.66861979 50.7392578,3.81835937 C50.8889974,3.96809896 50.9638672,4.04296875 50.9638672,4.04296875 C51.1136068,4.19270833 51.1884766,4.34244792 51.1884766,4.4921875 C51.1884766,4.64192708 51.2633464,4.71679687 51.4130859,4.71679687 C51.4130859,4.86653646 51.4130859,5.01627604 51.4130859,5.16601562 C51.5628255,5.31575521 51.6376953,5.46549479 51.6376953,5.61523437 C51.7874349,5.76497396 51.8623047,5.83984375 51.8623047,5.83984375 C51.8623047,5.98958333 51.8623047,6.06445313 51.8623047,6.06445313 C51.8623047,6.21419271 51.8623047,6.2890625 51.8623047,6.2890625 C54.1083984,14.9739583 57.4775391,27.9264323 61.9697266,45.1464844 C64.2158203,36.4615885 67.5849609,23.5091146 72.0771484,6.2890625 C72.5263672,4.04296875 73.7242839,2.39583333 75.6708984,1.34765625 C77.617513,0.149739583 79.7138672,-0.149739583 81.9599609,0.44921875 Z" transform="translate(9 56)"/></svg>