<svg xmlns="http://www.w3.org/2000/svg" width="107" height="243" viewBox="0 0 107 243"><path fill="#131313" d="M90.9599609,80.4492188 C93.0563151,81.0481771 94.7034505,82.3209635 95.9013672,84.2675781 C96.6500651,85.4654948 97.0244141,86.7382812 97.0244141,88.0859375 C97.0244141,88.8346354 96.9495443,89.5833333 96.7998047,90.3320312 C92.7568359,105.755208 86.7672526,128.889974 78.8310547,159.736328 C78.8310547,159.886068 78.8310547,159.960938 78.8310547,159.960938 C78.8310547,159.960938 78.8310547,160.035807 78.8310547,160.185547 C78.6813151,160.335286 78.6064453,160.410156 78.6064453,160.410156 C78.6064453,160.559896 78.6064453,160.634766 78.6064453,160.634766 C78.4567057,160.784505 78.3818359,160.934245 78.3818359,161.083984 C78.2320964,161.233724 78.1572266,161.383464 78.1572266,161.533203 C78.1572266,161.682943 78.0823568,161.757812 77.9326172,161.757812 C77.9326172,161.907552 77.9326172,161.982422 77.9326172,161.982422 C77.7828776,162.132161 77.7080078,162.281901 77.7080078,162.431641 C77.5582682,162.58138 77.4085286,162.73112 77.2587891,162.880859 C77.2587891,162.880859 77.2587891,162.955729 77.2587891,163.105469 C77.1090495,163.105469 77.0341797,163.180339 77.0341797,163.330078 C76.8844401,163.479818 76.7347005,163.629557 76.5849609,163.779297 C76.4352214,163.929036 76.210612,164.078776 75.9111328,164.228516 C75.9111328,164.228516 75.9111328,164.228516 75.9111328,164.228516 C75.9111328,164.228516 75.9111328,164.228516 75.9111328,164.228516 C75.6116536,164.378255 75.3870443,164.527995 75.2373047,164.677734 C75.0875651,164.827474 74.9378255,164.902344 74.7880859,164.902344 C74.6383464,165.052083 74.5634766,165.126953 74.5634766,165.126953 C74.413737,165.126953 74.3388672,165.126953 74.3388672,165.126953 C74.1891276,165.276693 73.9645182,165.351562 73.6650391,165.351562 C73.5152995,165.501302 73.3655599,165.576172 73.2158203,165.576172 C73.2158203,165.576172 73.2158203,165.576172 73.2158203,165.576172 C73.0660807,165.576172 72.9912109,165.576172 72.9912109,165.576172 C72.9912109,165.576172 72.9163411,165.651042 72.7666016,165.800781 C72.7666016,165.800781 72.6917318,165.800781 72.5419922,165.800781 C72.5419922,165.800781 72.4671224,165.800781 72.3173828,165.800781 C72.3173828,165.800781 72.242513,165.800781 72.0927734,165.800781 C71.9430339,165.800781 71.7932943,165.800781 71.6435547,165.800781 C71.4938151,165.800781 71.2692057,165.800781 70.9697266,165.800781 C70.9697266,165.800781 70.9697266,165.800781 70.9697266,165.800781 C70.9697266,165.800781 70.9697266,165.800781 70.9697266,165.800781 C70.9697266,165.800781 70.9697266,165.800781 70.9697266,165.800781 C70.9697266,165.800781 70.9697266,165.800781 70.9697266,165.800781 C70.819987,165.800781 70.5953776,165.800781 70.2958984,165.800781 C70.1461589,165.800781 69.9964193,165.800781 69.8466797,165.800781 C69.6969401,165.800781 69.6220703,165.800781 69.6220703,165.800781 C69.4723307,165.800781 69.3974609,165.800781 69.3974609,165.800781 C69.2477214,165.800781 69.1728516,165.725911 69.1728516,165.576172 C69.023112,165.576172 68.9482422,165.576172 68.9482422,165.576172 C68.9482422,165.576172 68.8733724,165.576172 68.7236328,165.576172 C68.7236328,165.576172 68.7236328,165.576172 68.7236328,165.576172 C68.5738932,165.576172 68.4241536,165.501302 68.2744141,165.351562 C68.1246745,165.351562 67.9749349,165.276693 67.8251953,165.126953 C67.6754557,165.126953 67.6005859,165.126953 67.6005859,165.126953 C67.4508464,165.126953 67.3759766,165.052083 67.3759766,164.902344 C67.0764974,164.902344 66.851888,164.827474 66.7021484,164.677734 C66.5524089,164.527995 66.3277995,164.378255 66.0283203,164.228516 C66.0283203,164.228516 66.0283203,164.228516 66.0283203,164.228516 C66.0283203,164.228516 66.0283203,164.228516 66.0283203,164.228516 C65.8785807,164.078776 65.6539714,163.929036 65.3544922,163.779297 C65.2047526,163.629557 65.055013,163.479818 64.9052734,163.330078 C64.9052734,163.180339 64.9052734,163.105469 64.9052734,163.105469 C64.7555339,162.955729 64.6806641,162.880859 64.6806641,162.880859 C64.5309245,162.73112 64.4560547,162.58138 64.4560547,162.431641 C64.3063151,162.281901 64.1565755,162.132161 64.0068359,161.982422 C64.0068359,161.982422 64.0068359,161.907552 64.0068359,161.757812 C64.0068359,161.757812 63.9319661,161.682943 63.7822266,161.533203 C63.7822266,161.383464 63.7073568,161.233724 63.5576172,161.083984 C63.5576172,161.083984 63.4827474,161.009115 63.3330078,160.859375 C63.3330078,160.709635 63.3330078,160.559896 63.3330078,160.410156 C63.3330078,160.410156 63.3330078,160.335286 63.3330078,160.185547 C63.1832682,160.185547 63.1083984,160.110677 63.1083984,159.960938 C63.1083984,159.960938 63.1083984,159.886068 63.1083984,159.736328 C60.8623047,151.201172 57.4931641,138.248698 53.0009766,120.878906 C50.7548828,129.563802 47.460612,142.516276 43.1181641,159.736328 C43.1181641,159.886068 43.0432943,159.960938 42.8935547,159.960938 C42.8935547,160.110677 42.8935547,160.185547 42.8935547,160.185547 C42.8935547,160.335286 42.8935547,160.410156 42.8935547,160.410156 C42.7438151,160.559896 42.6689453,160.709635 42.6689453,160.859375 C42.6689453,161.009115 42.5940755,161.083984 42.4443359,161.083984 C42.4443359,161.233724 42.3694661,161.383464 42.2197266,161.533203 C42.2197266,161.682943 42.2197266,161.757812 42.2197266,161.757812 C42.2197266,161.907552 42.1448568,161.982422 41.9951172,161.982422 C41.9951172,162.132161 41.9202474,162.281901 41.7705078,162.431641 C41.6207682,162.58138 41.5458984,162.73112 41.5458984,162.880859 C41.3961589,162.880859 41.3212891,162.955729 41.3212891,163.105469 C41.3212891,163.105469 41.2464193,163.180339 41.0966797,163.330078 C40.9469401,163.479818 40.7972005,163.629557 40.6474609,163.779297 C40.4977214,163.929036 40.3479818,164.078776 40.1982422,164.228516 C40.1982422,164.228516 40.1233724,164.228516 39.9736328,164.228516 C39.9736328,164.228516 39.9736328,164.228516 39.9736328,164.228516 C39.8238932,164.378255 39.6741536,164.527995 39.5244141,164.677734 C39.2249349,164.827474 39.0003255,164.977214 38.8505859,165.126953 C38.8505859,165.126953 38.7757161,165.126953 38.6259766,165.126953 C38.6259766,165.126953 38.5511068,165.126953 38.4013672,165.126953 C38.2516276,165.276693 38.101888,165.351562 37.9521484,165.351562 C37.8024089,165.501302 37.6526693,165.576172 37.5029297,165.576172 C37.3531901,165.576172 37.2783203,165.576172 37.2783203,165.576172 C37.2783203,165.576172 37.2783203,165.576172 37.2783203,165.576172 C37.1285807,165.725911 37.0537109,165.800781 37.0537109,165.800781 C36.9039714,165.800781 36.8291016,165.800781 36.8291016,165.800781 C36.679362,165.800781 36.6044922,165.800781 36.6044922,165.800781 C36.4547526,165.800781 36.3798828,165.800781 36.3798828,165.800781 C36.2301432,165.800781 36.0055339,165.800781 35.7060547,165.800781 C35.5563151,165.950521 35.4065755,166.025391 35.2568359,166.025391 C35.2568359,166.025391 35.2568359,166.025391 35.2568359,166.025391 C35.2568359,166.025391 35.2568359,166.025391 35.2568359,166.025391 C35.1070964,166.025391 35.0322266,166.025391 35.0322266,166.025391 C35.0322266,166.025391 35.0322266,166.025391 35.0322266,166.025391 C34.882487,166.025391 34.7327474,165.950521 34.5830078,165.800781 C34.4332682,165.800781 34.2086589,165.800781 33.9091797,165.800781 C33.9091797,165.800781 33.8343099,165.800781 33.6845703,165.800781 C33.6845703,165.800781 33.6097005,165.800781 33.4599609,165.800781 C33.4599609,165.800781 33.3850911,165.800781 33.2353516,165.800781 C33.2353516,165.800781 33.1604818,165.725911 33.0107422,165.576172 C33.0107422,165.576172 33.0107422,165.576172 33.0107422,165.576172 C33.0107422,165.576172 32.9358724,165.576172 32.7861328,165.576172 C32.6363932,165.576172 32.4866536,165.501302 32.3369141,165.351562 C32.1871745,165.351562 32.0374349,165.276693 31.8876953,165.126953 C31.7379557,165.126953 31.6630859,165.126953 31.6630859,165.126953 C31.5133464,165.126953 31.4384766,165.126953 31.4384766,165.126953 C31.288737,164.977214 31.0641276,164.827474 30.7646484,164.677734 C30.6149089,164.527995 30.4651693,164.378255 30.3154297,164.228516 C30.3154297,164.228516 30.3154297,164.228516 30.3154297,164.228516 C30.1656901,164.228516 30.0908203,164.228516 30.0908203,164.228516 C29.9410807,164.078776 29.7913411,163.929036 29.6416016,163.779297 C29.491862,163.629557 29.3421224,163.479818 29.1923828,163.330078 C29.0426432,163.180339 28.9677734,163.105469 28.9677734,163.105469 C28.9677734,162.955729 28.8929036,162.880859 28.7431641,162.880859 C28.7431641,162.73112 28.6682943,162.58138 28.5185547,162.431641 C28.3688151,162.281901 28.2939453,162.132161 28.2939453,161.982422 C28.1442057,161.982422 28.0693359,161.907552 28.0693359,161.757812 C28.0693359,161.757812 27.9944661,161.682943 27.8447266,161.533203 C27.8447266,161.383464 27.8447266,161.233724 27.8447266,161.083984 C27.694987,160.934245 27.6201172,160.784505 27.6201172,160.634766 C27.6201172,160.634766 27.5452474,160.559896 27.3955078,160.410156 C27.3955078,160.260417 27.3955078,160.185547 27.3955078,160.185547 C27.3955078,160.035807 27.320638,159.960938 27.1708984,159.960938 C27.1708984,159.960938 27.1708984,159.886068 27.1708984,159.736328 C23.2776693,144.313151 17.2880859,121.178385 9.20214844,90.3320312 C8.75292969,88.0859375 9.05240885,85.9895833 10.1005859,84.0429688 C11.2985026,82.2460938 12.945638,81.0481771 15.0419922,80.4492188 C15.7906901,80.1497396 16.539388,80 17.2880859,80 C18.6357422,80.1497396 19.9833984,80.5989583 21.3310547,81.3476562 C23.2776693,82.3958333 24.5504557,84.0429688 25.1494141,86.2890625 C27.3955078,94.8242188 30.6897786,107.776693 35.0322266,125.146484 C37.2783203,116.461589 40.6474609,103.509115 45.1396484,86.2890625 C45.1396484,86.1393229 45.1396484,86.0644531 45.1396484,86.0644531 C45.1396484,86.0644531 45.1396484,85.9895833 45.1396484,85.8398438 C45.289388,85.6901042 45.3642578,85.6152344 45.3642578,85.6152344 C45.3642578,85.4654948 45.4391276,85.3157552 45.5888672,85.1660156 C45.5888672,85.016276 45.5888672,84.8665365 45.5888672,84.7167969 C45.7386068,84.5670573 45.8134766,84.4921875 45.8134766,84.4921875 C45.9632161,84.3424479 46.0380859,84.1927083 46.0380859,84.0429688 C46.1878255,83.8932292 46.2626953,83.8183594 46.2626953,83.8183594 C46.4124349,83.6686198 46.4873047,83.5188802 46.4873047,83.3691406 C46.6370443,83.3691406 46.7119141,83.2942708 46.7119141,83.1445312 C46.8616536,82.9947917 46.9365234,82.9199219 46.9365234,82.9199219 C47.086263,82.7701823 47.2360026,82.6204427 47.3857422,82.4707031 C47.3857422,82.4707031 47.460612,82.3958333 47.6103516,82.2460938 C47.6103516,82.2460938 47.6852214,82.171224 47.8349609,82.0214844 C47.9847005,81.8717448 48.1344401,81.796875 48.2841797,81.796875 C48.2841797,81.6471354 48.3590495,81.5722656 48.5087891,81.5722656 C48.6585286,81.422526 48.7333984,81.3476562 48.7333984,81.3476562 C48.883138,81.3476562 49.0328776,81.2727865 49.1826172,81.1230469 C49.3323568,81.1230469 49.4820964,81.0481771 49.6318359,80.8984375 C49.6318359,80.8984375 49.7067057,80.8984375 49.8564453,80.8984375 C50.0061849,80.7486979 50.1559245,80.6738281 50.3056641,80.6738281 C50.4554036,80.6738281 50.6051432,80.5989583 50.7548828,80.4492188 C50.7548828,80.4492188 50.8297526,80.4492188 50.9794922,80.4492188 C50.9794922,80.4492188 50.9794922,80.4492188 50.9794922,80.4492188 C51.1292318,80.4492188 51.2041016,80.4492188 51.2041016,80.4492188 C51.3538411,80.4492188 51.4287109,80.4492188 51.4287109,80.4492188 C51.5784505,80.2994792 51.7281901,80.2246094 51.8779297,80.2246094 C52.0276693,80.2246094 52.1774089,80.2246094 52.3271484,80.2246094 C52.476888,80.2246094 52.6266276,80.2246094 52.7763672,80.2246094 C52.7763672,80.2246094 52.851237,80.2246094 53.0009766,80.2246094 C53.1507161,80.2246094 53.3004557,80.2246094 53.4501953,80.2246094 C53.5999349,80.2246094 53.7496745,80.2246094 53.8994141,80.2246094 C54.0491536,80.2246094 54.1988932,80.2246094 54.3486328,80.2246094 C54.4983724,80.2246094 54.648112,80.2994792 54.7978516,80.4492188 C54.7978516,80.4492188 54.7978516,80.4492188 54.7978516,80.4492188 C54.9475911,80.4492188 55.0224609,80.4492188 55.0224609,80.4492188 C55.1722005,80.4492188 55.2470703,80.4492188 55.2470703,80.4492188 C55.2470703,80.4492188 55.3219401,80.4492188 55.4716797,80.4492188 C55.6214193,80.5989583 55.7711589,80.6738281 55.9208984,80.6738281 C56.070638,80.6738281 56.1455078,80.7486979 56.1455078,80.8984375 C56.2952474,80.8984375 56.444987,80.8984375 56.5947266,80.8984375 C56.7444661,81.0481771 56.8193359,81.1230469 56.8193359,81.1230469 C56.9690755,81.2727865 57.1188151,81.3476562 57.2685547,81.3476562 C57.4182943,81.4973958 57.4931641,81.5722656 57.4931641,81.5722656 C57.6429036,81.5722656 57.7926432,81.6471354 57.9423828,81.796875 C58.0921224,81.9466146 58.1669922,82.0214844 58.1669922,82.0214844 C58.3167318,82.171224 58.4664714,82.2460938 58.6162109,82.2460938 C58.6162109,82.3958333 58.6910807,82.4707031 58.8408203,82.4707031 C58.8408203,82.6204427 58.9156901,82.7701823 59.0654297,82.9199219 C59.2151693,82.9199219 59.2900391,82.9947917 59.2900391,83.1445312 C59.4397786,83.2942708 59.5146484,83.3691406 59.5146484,83.3691406 C59.664388,83.5188802 59.7392578,83.6686198 59.7392578,83.8183594 C59.8889974,83.968099 59.9638672,84.0429688 59.9638672,84.0429688 C60.1136068,84.1927083 60.1884766,84.3424479 60.1884766,84.4921875 C60.1884766,84.6419271 60.2633464,84.7167969 60.4130859,84.7167969 C60.4130859,84.8665365 60.4130859,85.016276 60.4130859,85.1660156 C60.5628255,85.3157552 60.6376953,85.4654948 60.6376953,85.6152344 C60.7874349,85.764974 60.8623047,85.8398438 60.8623047,85.8398438 C60.8623047,85.9895833 60.8623047,86.0644531 60.8623047,86.0644531 C60.8623047,86.2141927 60.8623047,86.2890625 60.8623047,86.2890625 C63.1083984,94.9739583 66.4775391,107.926432 70.9697266,125.146484 C73.2158203,116.461589 76.5849609,103.509115 81.0771484,86.2890625 C81.5263672,84.0429688 82.7242839,82.3958333 84.6708984,81.3476562 C86.617513,80.1497396 88.7138672,79.8502604 90.9599609,80.4492188 Z"/></svg>