<svg xmlns="http://www.w3.org/2000/svg" width="120" height="243" viewBox="0 0 120 243"><path fill="#131313" d="M68.9099309,95.0507812 C76.4652694,108.375651 87.7982772,128.362956 102.908954,155.012695 C103.870543,156.798503 104.076598,158.72168 103.527118,160.782227 C102.977639,162.705404 101.809996,164.216471 100.024189,165.31543 C99.3373397,165.590169 98.7191757,165.796224 98.1696965,165.933594 C97.4828476,166.208333 96.8646835,166.345703 96.3152043,166.345703 C94.9415064,166.345703 93.7051783,166.002279 92.60622,165.31543 C91.3698918,164.628581 90.4083033,163.666992 89.7214543,162.430664 C83.2650741,150.891602 73.5118189,133.514323 60.4616887,110.298828 C53.8679387,121.837891 44.0459986,139.215169 30.9958684,162.430664 C30.3090194,163.666992 29.4161158,164.628581 28.3171575,165.31543 C27.0808293,166.002279 25.7758163,166.345703 24.4021184,166.345703 C23.8526392,166.345703 23.2344752,166.208333 22.5476262,165.933594 C21.998147,165.796224 21.4486679,165.590169 20.8991887,165.31543 C19.1133814,164.216471 17.9457382,162.705404 17.396259,160.782227 C16.7094101,158.72168 16.9154647,156.798503 18.0144231,155.012695 C25.5697616,141.687826 36.8340845,121.700521 51.8073918,95.0507812 C44.2520533,81.7259115 32.9877304,61.7386068 18.0144231,35.0888672 C16.9154647,33.3030599 16.7094101,31.3798828 17.396259,29.3193359 C17.9457382,27.3961589 19.1133814,25.8850911 20.8991887,24.7861328 C21.998147,24.0992839 23.1657903,23.7558594 24.4021184,23.7558594 C25.0889673,23.7558594 25.7758163,23.8932292 26.4626653,24.1679688 C28.5232121,24.7174479 30.0342798,25.8850911 30.9958684,27.6708984 C37.5896184,39.2099609 47.4115585,56.5872396 60.4616887,79.8027344 C66.9180689,68.2636719 76.6713241,50.8863932 89.7214543,27.6708984 C90.6830429,25.8850911 92.1941106,24.7174479 94.2546575,24.1679688 C96.3152043,23.6184896 98.2383814,23.8245443 100.024189,24.7861328 C101.809996,25.8850911 102.977639,27.3961589 103.527118,29.3193359 C104.076598,31.3798828 103.801858,33.3030599 102.7029,35.0888672 C97.0707382,45.116862 91.4385767,55.0761719 85.8064153,64.9667969 C80.1742538,74.9947917 74.5420923,85.0227865 68.9099309,95.0507812 Z"/></svg>