<svg xmlns="http://www.w3.org/2000/svg" width="120" height="203" viewBox="0 0 120 203"><path fill="#131313" d="M4896.13802,71.5791016 C4903.69336,84.9039714 4915.02636,104.891276 4930.13704,131.541016 C4931.09863,133.326823 4931.30468,135.25 4930.7552,137.310547 C4930.20573,139.233724 4929.03808,140.744792 4927.25227,141.84375 C4926.56543,142.11849 4925.94726,142.324544 4925.39778,142.461914 C4924.71093,142.736654 4924.09277,142.874023 4923.54329,142.874023 C4922.16959,142.874023 4920.93326,142.530599 4919.83431,141.84375 C4918.59798,141.156901 4917.63639,140.195313 4916.94954,138.958984 C4910.49316,127.419922 4900.7399,110.042643 4887.68977,86.8271484 C4881.09602,98.3662109 4871.27408,115.74349 4858.22395,138.958984 C4857.53711,140.195313 4856.6442,141.156901 4855.54524,141.84375 C4854.30892,142.530599 4853.0039,142.874023 4851.6302,142.874023 C4851.08073,142.874023 4850.46256,142.736654 4849.77571,142.461914 C4849.22623,142.324544 4848.67675,142.11849 4848.12727,141.84375 C4846.34147,140.744792 4845.17382,139.233724 4844.62434,137.310547 C4843.9375,135.25 4844.14355,133.326823 4845.24251,131.541016 C4852.79785,118.216146 4864.06217,98.2288411 4879.03548,71.5791016 C4871.48014,58.2542318 4860.21582,38.2669271 4845.24251,11.6171875 C4844.14355,9.83138021 4843.9375,7.90820313 4844.62434,5.84765625 C4845.17382,3.92447917 4846.34147,2.41341146 4848.12727,1.31445312 C4849.22623,0.627604167 4850.39388,0.284179688 4851.6302,0.284179688 C4852.31705,0.284179688 4853.0039,0.421549479 4853.69075,0.696289062 C4855.7513,1.24576823 4857.26237,2.41341146 4858.22395,4.19921875 C4864.8177,15.7382812 4874.63964,33.1155599 4887.68977,56.3310547 C4894.14615,44.7919922 4903.89941,27.4147135 4916.94954,4.19921875 C4917.91113,2.41341146 4919.4222,1.24576823 4921.48274,0.696289062 C4923.54329,0.146809896 4925.46647,0.352864583 4927.25227,1.31445312 C4929.03808,2.41341146 4930.20573,3.92447917 4930.7552,5.84765625 C4931.30468,7.90820313 4931.02994,9.83138021 4929.93099,11.6171875 C4924.29882,21.6451823 4918.66666,31.6044922 4913.0345,41.4951172 C4907.40234,51.523112 4901.77018,61.5511068 4896.13802,71.5791016 Z" transform="translate(-4827.228 -.528)"/></svg>