<svg xmlns="http://www.w3.org/2000/svg" width="120" height="203" viewBox="0 0 120 203"><path fill="#131313" d="M4896.13802,132.050781 C4903.69336,145.375651 4915.02636,165.362956 4930.13704,192.012695 C4931.09863,193.798503 4931.30468,195.72168 4930.7552,197.782227 C4930.20573,199.705404 4929.03808,201.216471 4927.25227,202.31543 C4926.56543,202.590169 4925.94726,202.796224 4925.39778,202.933594 C4924.71093,203.208333 4924.09277,203.345703 4923.54329,203.345703 C4922.16959,203.345703 4920.93326,203.002279 4919.83431,202.31543 C4918.59798,201.628581 4917.63639,200.666992 4916.94954,199.430664 C4910.49316,187.891602 4900.7399,170.514323 4887.68977,147.298828 C4881.09602,158.837891 4871.27408,176.215169 4858.22395,199.430664 C4857.53711,200.666992 4856.6442,201.628581 4855.54524,202.31543 C4854.30892,203.002279 4853.0039,203.345703 4851.6302,203.345703 C4851.08073,203.345703 4850.46256,203.208333 4849.77571,202.933594 C4849.22623,202.796224 4848.67675,202.590169 4848.12727,202.31543 C4846.34147,201.216471 4845.17382,199.705404 4844.62434,197.782227 C4843.9375,195.72168 4844.14355,193.798503 4845.24251,192.012695 C4852.79785,178.687826 4864.06217,158.700521 4879.03548,132.050781 C4871.48014,118.725911 4860.21582,98.7386068 4845.24251,72.0888672 C4844.14355,70.3030599 4843.9375,68.3798828 4844.62434,66.3193359 C4845.17382,64.3961589 4846.34147,62.8850911 4848.12727,61.7861328 C4849.22623,61.0992839 4850.39388,60.7558594 4851.6302,60.7558594 C4852.31705,60.7558594 4853.0039,60.8932292 4853.69075,61.1679688 C4855.7513,61.7174479 4857.26237,62.8850911 4858.22395,64.6708984 C4864.8177,76.2099609 4874.63964,93.5872396 4887.68977,116.802734 C4894.14615,105.263672 4903.89941,87.8863932 4916.94954,64.6708984 C4917.91113,62.8850911 4919.4222,61.7174479 4921.48274,61.1679688 C4923.54329,60.6184896 4925.46647,60.8245443 4927.25227,61.7861328 C4929.03808,62.8850911 4930.20573,64.3961589 4930.7552,66.3193359 C4931.30468,68.3798828 4931.02994,70.3030599 4929.93099,72.0888672 C4924.29882,82.116862 4918.66666,92.0761719 4913.0345,101.966797 C4907.40234,111.994792 4901.77018,122.022786 4896.13802,132.050781 Z" transform="translate(-4827.228)"/></svg>