<svg xmlns="http://www.w3.org/2000/svg" width="87" height="203" viewBox="0 0 87 203"><path fill="#131313" d="M5624.55433,159.982067 C5629.49574,166.570608 5636.90785,176.453421 5646.79066,189.630504 C5648.13832,191.427379 5648.66241,193.448864 5648.36293,195.694957 C5648.06345,197.941051 5647.01527,199.737926 5645.21839,201.085582 C5644.4697,201.684541 5643.721,202.133759 5642.9723,202.433239 C5642.07386,202.582978 5641.17543,202.657848 5640.27699,202.657848 C5639.07907,202.657848 5637.88116,202.433239 5636.68324,201.98402 C5635.63506,201.385062 5634.66175,200.561494 5633.76332,199.513317 C5629.42087,193.673473 5622.9072,184.988577 5614.2223,173.458629 C5609.87985,179.298473 5603.36618,187.983369 5594.68129,199.513317 C5593.93259,200.561494 5592.95928,201.385062 5591.76136,201.98402 C5590.56345,202.433239 5589.36553,202.657848 5588.16761,202.657848 C5587.26918,202.657848 5586.44561,202.582978 5585.69691,202.433239 C5584.79847,202.133759 5583.97491,201.684541 5583.22621,201.085582 C5581.42933,199.737926 5580.38116,197.941051 5580.08168,195.694957 C5579.7822,193.448864 5580.30629,191.427379 5581.65394,189.630504 C5586.59535,183.041963 5594.08233,173.15915 5604.11488,159.982067 C5599.02373,153.243786 5591.53675,143.286103 5581.65394,130.10902 C5580.30629,128.312145 5579.7822,126.290661 5580.08168,124.044567 C5580.38116,121.798473 5581.42933,120.001598 5583.22621,118.653942 C5585.02308,117.306286 5587.04457,116.782197 5589.29066,117.081676 C5591.53675,117.381155 5593.33363,118.429332 5594.68129,120.226207 C5599.02373,126.066051 5605.53741,134.750947 5614.2223,146.280895 C5618.56475,140.441051 5625.07842,131.756155 5633.76332,120.226207 C5635.11097,118.429332 5636.90785,117.381155 5639.15394,117.081676 C5639.60316,117.081676 5639.97751,117.081676 5640.27699,117.081676 C5642.07386,116.931937 5643.721,117.456025 5645.21839,118.653942 C5647.01527,120.001598 5648.06345,121.798473 5648.36293,124.044567 C5648.66241,126.290661 5648.13832,128.312145 5646.79066,130.10902 C5643.04717,135.050426 5639.37855,139.991832 5635.7848,144.933239 C5632.04131,149.874645 5628.29782,154.890921 5624.55433,159.982067 Z" transform="translate(-5571)"/></svg>