<svg xmlns="http://www.w3.org/2000/svg" width="87" height="203" viewBox="0 0 87 203"><path fill="#131313" d="M44.5543324,42.9820668 C49.4957386,49.5706084 56.907848,59.4534209 66.7906605,72.6305043 C68.1383168,74.4273793 68.6624053,76.4488636 68.3629261,78.6949574 C68.063447,80.9410511 67.0152699,82.7379261 65.2183949,84.0855824 C64.469697,84.6845407 63.7209991,85.1337595 62.9723011,85.4332386 C62.0738636,85.5829782 61.1754261,85.657848 60.2769886,85.657848 C59.079072,85.657848 57.8811553,85.4332386 56.6832386,84.9840199 C55.6350616,84.3850616 54.6617543,83.5614938 53.7633168,82.5133168 C49.4208688,76.673473 42.907197,67.9885772 34.2223011,56.4586293 C29.8798532,62.298473 23.3661813,70.9833688 14.6812855,82.5133168 C13.9325876,83.5614938 12.9592803,84.3850616 11.7613636,84.9840199 C10.563447,85.4332386 9.3655303,85.657848 8.16761364,85.657848 C7.26917614,85.657848 6.44560843,85.5829782 5.69691051,85.4332386 C4.79847301,85.1337595 3.9749053,84.6845407 3.22620739,84.0855824 C1.42933239,82.7379261 0.381155303,80.9410511 0.0816761364,78.6949574 C-0.21780303,76.4488636 0.306285511,74.4273793 1.65394176,72.6305043 C6.59534801,66.0419626 14.0823272,56.1591501 24.1148793,42.9820668 C19.0237334,36.2437855 11.5367543,26.2861032 1.65394176,13.1090199 C0.306285511,11.3121449 -0.21780303,9.29066051 0.0816761364,7.04456676 C0.381155303,4.79847301 1.42933239,3.00159801 3.22620739,1.65394176 C5.02308239,0.306285511 7.04456676,-0.21780303 9.29066051,0.0816761364 C11.5367543,0.381155303 13.3336293,1.42933239 14.6812855,3.22620739 C19.0237334,9.06605114 25.5374053,17.750947 34.2223011,29.2808949 C38.5647491,23.4410511 45.0784209,14.7561553 53.7633168,3.22620739 C55.110973,1.42933239 56.907848,0.381155303 59.1539418,0.0816761364 C59.6031605,0.0816761364 59.9775095,0.0816761364 60.2769886,0.0816761364 C62.0738636,-0.068063447 63.7209991,0.456025095 65.2183949,1.65394176 C67.0152699,3.00159801 68.063447,4.79847301 68.3629261,7.04456676 C68.6624053,9.29066051 68.1383168,11.3121449 66.7906605,13.1090199 C63.0471709,18.0504261 59.3785511,22.9918324 55.7848011,27.9332386 C52.0413116,32.8746449 48.297822,37.8909209 44.5543324,42.9820668 Z" transform="translate(9 56)"/></svg>