<svg xmlns="http://www.w3.org/2000/svg" width="87" height="243" viewBox="0 0 87 243"><path fill="#131313" d="M53.5543324,122.982067 C58.4957386,129.570608 65.907848,139.453421 75.7906605,152.630504 C77.1383168,154.427379 77.6624053,156.448864 77.3629261,158.694957 C77.063447,160.941051 76.0152699,162.737926 74.2183949,164.085582 C73.469697,164.684541 72.7209991,165.133759 71.9723011,165.433239 C71.0738636,165.582978 70.1754261,165.657848 69.2769886,165.657848 C68.079072,165.657848 66.8811553,165.433239 65.6832386,164.98402 C64.6350616,164.385062 63.6617543,163.561494 62.7633168,162.513317 C58.4208688,156.673473 51.907197,147.988577 43.2223011,136.458629 C38.8798532,142.298473 32.3661813,150.983369 23.6812855,162.513317 C22.9325876,163.561494 21.9592803,164.385062 20.7613636,164.98402 C19.563447,165.433239 18.3655303,165.657848 17.1676136,165.657848 C16.2691761,165.657848 15.4456084,165.582978 14.6969105,165.433239 C13.798473,165.133759 12.9749053,164.684541 12.2262074,164.085582 C10.4293324,162.737926 9.3811553,160.941051 9.08167614,158.694957 C8.78219697,156.448864 9.30628551,154.427379 10.6539418,152.630504 C15.595348,146.041963 23.0823272,136.15915 33.1148793,122.982067 C28.0237334,116.243786 20.5367543,106.286103 10.6539418,93.1090199 C9.30628551,91.3121449 8.78219697,89.2906605 9.08167614,87.0445668 C9.3811553,84.798473 10.4293324,83.001598 12.2262074,81.6539418 C14.0230824,80.3062855 16.0445668,79.782197 18.2906605,80.0816761 C20.5367543,80.3811553 22.3336293,81.4293324 23.6812855,83.2262074 C28.0237334,89.0660511 34.5374053,97.750947 43.2223011,109.280895 C47.5647491,103.441051 54.0784209,94.7561553 62.7633168,83.2262074 C64.110973,81.4293324 65.907848,80.3811553 68.1539418,80.0816761 C68.6031605,80.0816761 68.9775095,80.0816761 69.2769886,80.0816761 C71.0738636,79.9319366 72.7209991,80.4560251 74.2183949,81.6539418 C76.0152699,83.001598 77.063447,84.798473 77.3629261,87.0445668 C77.6624053,89.2906605 77.1383168,91.3121449 75.7906605,93.1090199 C72.0471709,98.0504261 68.3785511,102.991832 64.7848011,107.933239 C61.0413116,112.874645 57.297822,117.890921 53.5543324,122.982067 Z"/></svg>