<svg xmlns="http://www.w3.org/2000/svg" width="120" height="203" viewBox="0 0 120 203"><path fill="#131313" d="M5131.96837,61.7861328 C5133.75418,62.8850911 5134.92182,64.3961589 5135.4713,66.3193359 C5136.02078,68.3798828 5135.74604,70.3030599 5134.64708,72.0888672 C5126.95438,85.8258464 5115.34663,106.431315 5099.82384,133.905273 C5099.82384,147.642253 5099.82384,168.247721 5099.82384,195.72168 C5099.82384,197.782227 5099.06831,199.568034 5097.55724,201.079102 C5096.18354,202.452799 5094.46642,203.139648 5092.40587,203.139648 C5090.34533,203.139648 5088.55952,202.452799 5087.04845,201.079102 C5085.53738,199.568034 5084.78185,197.782227 5084.78185,195.72168 C5084.78185,181.984701 5084.78185,161.447917 5084.78185,134.111328 C5077.08914,120.236979 5065.48139,99.5628255 5049.95861,72.0888672 C5048.85965,70.3030599 5048.58491,68.3798828 5049.13439,66.3193359 C5049.68387,64.3961589 5050.9202,62.8850911 5052.84337,61.7861328 C5053.94233,61.0992839 5055.10997,60.7558594 5056.3463,60.7558594 C5057.03315,60.7558594 5057.72,60.8932292 5058.40685,61.1679688 C5060.4674,61.7174479 5061.97846,62.8850911 5062.94005,64.6708984 C5069.5338,76.2099609 5079.35574,93.5872396 5092.40587,116.802734 C5098.86225,105.263672 5108.61551,87.8863932 5121.66564,64.6708984 C5122.62723,62.8850911 5124.13829,61.7174479 5126.19884,61.1679688 C5128.12202,60.6184896 5130.0452,60.8245443 5131.96837,61.7861328 Z" transform="translate(-5031.86)"/></svg>