<svg xmlns="http://www.w3.org/2000/svg" width="101" height="203" viewBox="0 0 101 203"><path fill="#131313" d="M69.9147727,0.510475852 C72.0111269,1.40891335 73.5085227,2.90630919 74.4069602,5.00266335 C75.3053977,6.94927794 75.3053977,8.97076231 74.4069602,11.0671165 C61.3796165,43.7103456 48.8386009,75.7500592 22.7839134,141.186257 C22.184955,142.833393 21.1367779,144.106179 19.6393821,145.004616 C18.2917259,145.903054 16.79433,146.352273 15.1471946,146.352273 C14.6979759,146.352273 14.1738873,146.277403 13.574929,146.127663 C13.1257102,145.977924 12.6764915,145.828184 12.2272727,145.678445 C10.1309186,144.929747 8.63352273,143.507221 7.73508523,141.410866 C6.83664773,139.314512 6.76177794,137.218158 7.51047585,135.121804 C13.7995384,119.399148 16.2331321,112.890033 28.8112571,81.5944602 C22.5221946,66.0215436 13.0886009,42.512429 0.510475852,11.0671165 C-0.238222064,9.12050189 -0.163352273,7.09901752 0.735085227,5.00266335 C1.63352273,2.90630919 3.13091856,1.40891335 5.22727273,0.510475852 C6.12571023,0.210996686 7.09901752,0.0612571023 8.1471946,0.0612571023 C9.19537169,0.0612571023 10.2435488,0.285866477 11.2917259,0.735085227 C13.38808,0 14.8854759,3.13091856 15.7839134,5.22727273 C20.57558,17.356179 27.8379498,35.4746686 37.5710227,59.5827415 C42.3626894,47.6035748 49.6250592,29.4850852 59.3581321,5.22727273 C60.10683,3.13091856 61.5293561,0 63.6257102,0.735085227 C65.7220644,-0.163352273 67.8184186,-0.238222064 69.9147727,0.510475852 Z" transform="translate(13 56)"/></svg>