<svg xmlns="http://www.w3.org/2000/svg" width="93" height="203" viewBox="0 0 93 203"><path fill="#131313" d="M6086.12337,202.576172 C6084.62598,202.576172 6083.20345,202.201823 6081.85579,201.453125 C6080.50814,200.554688 6079.53483,199.431641 6078.93587,198.083984 C6078.18717,196.586589 6077.8877,195.089193 6078.03743,193.591797 C6078.33691,192.094401 6078.93587,190.671875 6079.83431,189.324219 C6089.86686,176.895833 6104.84082,158.178385 6124.75618,133.171875 C6116.96973,133.171875 6105.21517,133.171875 6089.49251,133.171875 C6087.24642,133.171875 6085.2998,132.423177 6083.65267,130.925781 C6082.15527,129.278646 6081.40658,127.332031 6081.40658,125.085938 C6081.40658,122.839844 6082.15527,120.893229 6083.65267,119.246094 C6085.2998,117.748698 6087.24642,117 6089.49251,117 C6101.02246,117 6118.39225,117 6141.60189,117 C6143.24902,117 6144.74642,117.374349 6146.09408,118.123047 C6147.29199,119.021484 6148.2653,120.144531 6149.014,121.492188 C6149.61296,122.989583 6149.83757,124.486979 6149.68783,125.984375 C6149.53809,127.481771 6149.014,128.904297 6148.11556,130.251953 C6138.08301,142.680339 6123.10905,161.397786 6103.19368,186.404297 C6112.47754,186.404297 6126.40332,186.404297 6144.97103,186.404297 C6147.21712,186.404297 6149.08887,187.152995 6150.58626,188.650391 C6152.2334,190.297526 6153.05697,192.244141 6153.05697,194.490234 C6153.05697,196.736328 6152.2334,198.682943 6150.58626,200.330078 C6149.08887,201.827474 6147.21712,202.576172 6144.97103,202.576172 C6135.08822,202.576172 6125.28027,202.576172 6115.5472,202.576172 C6105.81413,202.576172 6096.00618,202.576172 6086.12337,202.576172 Z" transform="translate(-6069)"/></svg>