<svg xmlns="http://www.w3.org/2000/svg" width="93" height="203" viewBox="0 0 93 203"><path fill="#131313" d="M8.1233724,85.5761719 C6.62597656,85.5761719 5.20345052,85.2018229 3.85579427,84.453125 C2.50813802,83.5546875 1.53483073,82.4316406 0.935872396,81.0839844 C0.187174479,79.5865885 -0.112304688,78.0891927 0.0374348958,76.5917969 C0.336914062,75.094401 0.935872396,73.671875 1.8343099,72.3242188 C11.866862,59.8958333 26.8408203,41.1783854 46.7561849,16.171875 C38.9697266,16.171875 27.2151693,16.171875 11.492513,16.171875 C9.24641927,16.171875 7.29980469,15.4231771 5.65266927,13.9257813 C4.15527344,12.2786458 3.40657552,10.3320313 3.40657552,8.0859375 C3.40657552,5.83984375 4.15527344,3.89322917 5.65266927,2.24609375 C7.29980469,0.748697917 9.24641927,0 11.492513,0 C23.0224609,0 40.3922526,0 63.601888,0 C65.2490234,0 66.7464193,0.374348958 68.0940755,1.12304688 C69.2919922,2.02148438 70.2652995,3.14453125 71.0139974,4.4921875 C71.6129557,5.98958333 71.8375651,7.48697917 71.6878255,8.984375 C71.5380859,10.4817708 71.0139974,11.9042969 70.1155599,13.2519531 C60.0830078,25.6803385 45.1090495,44.3977865 25.1936849,69.4042969 C34.4775391,69.4042969 48.4033203,69.4042969 66.9710286,69.4042969 C69.2171224,69.4042969 71.0888672,70.1529948 72.586263,71.6503906 C74.2333984,73.297526 75.0569661,75.2441406 75.0569661,77.4902344 C75.0569661,79.7363281 74.2333984,81.6829427 72.586263,83.3300781 C71.0888672,84.827474 69.2171224,85.5761719 66.9710286,85.5761719 C57.0882161,85.5761719 47.2802734,85.5761719 37.5472005,85.5761719 C27.8141276,85.5761719 18.0061849,85.5761719 8.1233724,85.5761719 Z" transform="translate(9 56)"/></svg>