<svg xmlns="http://www.w3.org/2000/svg" width="97" height="243" viewBox="0 0 97 243"><path fill="#131313" d="M77.7274844,80.4069093 C80.1233177,80.4069093 82.0699323,81.1556072 83.5673281,82.653003 C85.2144635,84.3001384 86.0380313,86.246753 86.0380313,88.4928468 C86.0380313,103.916024 86.0380313,127.050789 86.0380313,157.897144 C86.0380313,160.143237 85.2144635,162.089852 83.5673281,163.736987 C81.9201927,165.234383 79.9735781,165.983081 77.7274844,165.983081 C75.7808698,165.983081 74.0588646,165.384123 72.5614688,164.186206 C71.0640729,162.988289 70.1656354,161.416024 69.8661563,159.469409 C66.5718854,161.416024 62.6037865,162.988289 57.9618594,164.186206 C53.3199323,165.384123 47.9293073,165.983081 41.7899844,165.983081 C35.0517031,165.983081 29.2867292,164.410816 24.4950625,161.266284 C19.5536563,158.121753 15.9599063,153.629566 13.7138125,147.789722 C11.9169375,143.297534 11.0185,138.505868 11.0185,133.414722 C11.0185,128.922534 11.6174583,124.130868 12.815375,119.039722 C15.8101667,108.108732 20.9761823,99.199227 28.3134219,92.3112061 C34.3030052,86.621102 40.8915469,82.9524822 48.0790469,81.3053468 C55.4162865,79.5084718 62.3043073,80.0325603 68.7431094,82.8776124 C69.1923281,83.027352 69.5666771,83.1770916 69.8661563,83.3268311 C70.315375,83.6263103 70.689724,83.8509197 70.9892031,84.0006593 C71.737901,82.9524822 72.7112083,82.0540447 73.909125,81.3053468 C75.1070417,80.7063884 76.3798281,80.4069093 77.7274844,80.4069093 Z M41.5996094,149.082682 C51.6321615,149.082682 58.5950521,147.435547 62.4882812,144.141276 C66.3815104,140.847005 68.702474,138.451172 69.4511719,136.953776 C69.4511719,130.814453 69.4511719,121.605469 69.4511719,109.326823 C69.4511719,106.332031 68.8522135,103.786458 67.6542969,101.690104 C66.3066406,99.59375 64.4348958,98.0963542 62.0390625,97.1979167 C59.34375,96 55.9746094,95.7005208 51.9316406,96.2994792 C47.8886719,97.0481771 43.6959635,99.4440104 39.3535156,103.486979 C34.2623698,108.128906 30.6686198,114.268229 28.5722656,121.904948 C26.4759115,129.391927 26.4759115,135.830729 28.5722656,141.221354 C29.6204427,143.916667 31.1927083,145.863281 33.2890625,147.061198 C35.3854167,148.408854 38.155599,149.082682 41.5996094,149.082682 Z M68.872,59.016 C68.872,57.448 67.528,54.984 64.84,51.624 C62.152,48.488 59.016,45.128 55.432,41.544 C51.848,38.408 48.264,35.496 44.904,32.808 C41.32,30.344 38.856,29 37.512,29 C35.272,29 33.256,29.896 31.464,31.24 C29.672,32.808 29,34.6 29,36.84 C29,38.408 29.672,39.976 31.464,41.544 C32.808,43.112 35.048,45.128 38.184,47.368 C41.096,49.608 44.232,51.848 47.816,54.088 C51.176,56.328 54.312,58.344 57.448,59.912 C60.584,61.48 62.824,62.152 64.616,62.152 C67.304,62.152 68.872,61.256 68.872,59.016 Z"/></svg>