<svg xmlns="http://www.w3.org/2000/svg" width="97" height="203" viewBox="0 0 97 203"><path fill="#131313" d="M614.727484,73.1449093 C617.123318,73.1449093 619.069932,73.8936072 620.567328,75.391003 C622.214464,77.0381384 623.038031,78.984753 623.038031,81.2308468 C623.038031,96.6540239 623.038031,119.788789 623.038031,150.635144 C623.038031,152.881237 622.214464,154.827852 620.567328,156.474987 C618.920193,157.972383 616.973578,158.721081 614.727484,158.721081 C612.78087,158.721081 611.058865,158.122123 609.561469,156.924206 C608.064073,155.726289 607.165635,154.154024 606.866156,152.207409 C603.571885,154.154024 599.603786,155.726289 594.961859,156.924206 C590.319932,158.122123 584.929307,158.721081 578.789984,158.721081 C572.051703,158.721081 566.286729,157.148816 561.495063,154.004284 C556.553656,150.859753 552.959906,146.367566 550.713813,140.527722 C548.916938,136.035534 548.0185,131.243868 548.0185,126.152722 C548.0185,121.660534 548.617458,116.868868 549.815375,111.777722 C552.810167,100.846732 557.976182,91.937227 565.313422,85.0492061 C571.303005,79.359102 577.891547,75.6904822 585.079047,74.0433468 C592.416286,72.2464718 599.304307,72.7705603 605.743109,75.6156124 C606.192328,75.765352 606.566677,75.9150916 606.866156,76.0648311 C607.315375,76.3643103 607.689724,76.5889197 607.989203,76.7386593 C608.737901,75.6904822 609.711208,74.7920447 610.909125,74.0433468 C612.107042,73.4443884 613.379828,73.1449093 614.727484,73.1449093 Z M578.599609,141.820682 C588.632161,141.820682 595.595052,140.173547 599.488281,136.879276 C603.38151,133.585005 605.702474,131.189172 606.451172,129.691776 C606.451172,123.552453 606.451172,114.343469 606.451172,102.064823 C606.451172,99.0700313 605.852214,96.5244583 604.654297,94.4281042 C603.306641,92.33175 601.434896,90.8343542 599.039062,89.9359167 C596.34375,88.738 592.974609,88.4385208 588.931641,89.0374792 C584.888672,89.7861771 580.695964,92.1820104 576.353516,96.2249792 C571.26237,100.866906 567.66862,107.006229 565.572266,114.642948 C563.475911,122.129927 563.475911,128.568729 565.572266,133.959354 C566.620443,136.654667 568.192708,138.601281 570.289062,139.799198 C572.385417,141.146854 575.155599,141.820682 578.599609,141.820682 Z M605.872,51.754 C605.872,50.186 604.528,47.722 601.84,44.362 C599.152,41.226 596.016,37.866 592.432,34.282 C588.848,31.146 585.264,28.234 581.904,25.546 C578.32,23.082 575.856,21.738 574.512,21.738 C572.272,21.738 570.256,22.634 568.464,23.978 C566.672,25.546 566,27.338 566,29.578 C566,31.146 566.672,32.714 568.464,34.282 C569.808,35.85 572.048,37.866 575.184,40.106 C578.096,42.346 581.232,44.586 584.816,46.826 C588.176,49.066 591.312,51.082 594.448,52.65 C597.584,54.218 599.824,54.89 601.616,54.89 C604.304,54.89 605.872,53.994 605.872,51.754 Z" transform="translate(-537 -16.738)"/></svg>