<svg xmlns="http://www.w3.org/2000/svg" width="97" height="243" viewBox="0 0 97 243"><path fill="#131313" d="M77.7089844,80.1449093 C80.1048177,80.1449093 82.0514323,80.8936072 83.5488281,82.391003 C85.1959635,84.0381384 86.0195312,85.984753 86.0195312,88.2308468 C86.0195312,103.654024 86.0195312,126.788789 86.0195312,157.635144 C86.0195312,159.881237 85.1959635,161.827852 83.5488281,163.474987 C81.9016927,164.972383 79.9550781,165.721081 77.7089844,165.721081 C75.7623698,165.721081 74.0403646,165.122123 72.5429688,163.924206 C71.0455729,162.726289 70.1471354,161.154024 69.8476562,159.207409 C66.5533854,161.154024 62.5852865,162.726289 57.9433594,163.924206 C53.3014323,165.122123 47.9108073,165.721081 41.7714844,165.721081 C35.0332031,165.721081 29.2682292,164.148816 24.4765625,161.004284 C19.5351562,157.859753 15.9414062,153.367566 13.6953125,147.527722 C11.8984375,143.035534 11,138.243868 11,133.152722 C11,128.660534 11.5989583,123.868868 12.796875,118.777722 C15.7916667,107.846732 20.9576823,98.937227 28.2949219,92.0492061 C34.2845052,86.359102 40.8730469,82.6904822 48.0605469,81.0433468 C55.3977865,79.2464718 62.2858073,79.7705603 68.7246094,82.6156124 C69.1738281,82.765352 69.5481771,82.9150916 69.8476562,83.0648311 C70.296875,83.3643103 70.671224,83.5889197 70.9707031,83.7386593 C71.719401,82.6904822 72.6927083,81.7920447 73.890625,81.0433468 C75.0885417,80.4443884 76.3613281,80.1449093 77.7089844,80.1449093 Z M41.5996094,149.082682 C51.6321615,149.082682 58.5950521,147.435547 62.4882812,144.141276 C66.3815104,140.847005 68.702474,138.451172 69.4511719,136.953776 C69.4511719,130.814453 69.4511719,121.605469 69.4511719,109.326823 C69.4511719,106.332031 68.8522135,103.786458 67.6542969,101.690104 C66.3066406,99.59375 64.4348958,98.0963542 62.0390625,97.1979167 C59.34375,96 55.9746094,95.7005208 51.9316406,96.2994792 C47.8886719,97.0481771 43.6959635,99.4440104 39.3535156,103.486979 C34.2623698,108.128906 30.6686198,114.268229 28.5722656,121.904948 C26.4759115,129.391927 26.4759115,135.830729 28.5722656,141.221354 C29.6204427,143.916667 31.1927083,145.863281 33.2890625,147.061198 C35.3854167,148.408854 38.155599,149.082682 41.5996094,149.082682 Z M82.972,40.168 C82.972,37.928 82.076,36.136 80.508,34.568 C78.716,33.224 76.7,32.328 74.46,32.328 C72.892,32.328 70.428,33.672 67.068,36.136 C63.484,38.824 60.124,41.736 56.54,45.096 C52.956,48.456 49.82,51.816 47.132,54.952 C44.444,58.312 43.1,60.776 43.1,62.344 C43.1,64.584 44.444,65.48 47.356,65.48 C48.7,65.48 51.164,64.808 54.3,63.016 C57.436,61.672 60.572,59.656 64.156,57.416 C67.516,55.176 70.652,52.936 73.788,50.472 C76.924,48.232 79.164,46.44 80.508,44.872 C82.076,43.304 82.972,41.736 82.972,40.168 Z"/></svg>