<svg xmlns="http://www.w3.org/2000/svg" width="97" height="203" viewBox="0 0 97 203"><path fill="#131313" d="M256.708984,117.144909 C259.104818,117.144909 261.051432,117.893607 262.548828,119.391003 C264.195964,121.038138 265.019531,122.984753 265.019531,125.230847 C265.019531,140.654024 265.019531,163.788789 265.019531,194.635144 C265.019531,196.881237 264.195964,198.827852 262.548828,200.474987 C260.901693,201.972383 258.955078,202.721081 256.708984,202.721081 C254.76237,202.721081 253.040365,202.122123 251.542969,200.924206 C250.045573,199.726289 249.147135,198.154024 248.847656,196.207409 C245.553385,198.154024 241.585286,199.726289 236.943359,200.924206 C232.301432,202.122123 226.910807,202.721081 220.771484,202.721081 C214.033203,202.721081 208.268229,201.148816 203.476562,198.004284 C198.535156,194.859753 194.941406,190.367566 192.695312,184.527722 C190.898438,180.035534 190,175.243868 190,170.152722 C190,165.660534 190.598958,160.868868 191.796875,155.777722 C194.791667,144.846732 199.957682,135.937227 207.294922,129.049206 C213.284505,123.359102 219.873047,119.690482 227.060547,118.043347 C234.397786,116.246472 241.285807,116.77056 247.724609,119.615612 C248.173828,119.765352 248.548177,119.915092 248.847656,120.064831 C249.296875,120.36431 249.671224,120.58892 249.970703,120.738659 C250.719401,119.690482 251.692708,118.792045 252.890625,118.043347 C254.088542,117.444388 255.361328,117.144909 256.708984,117.144909 Z M220.599609,186.082682 C230.632161,186.082682 237.595052,184.435547 241.488281,181.141276 C245.38151,177.847005 247.702474,175.451172 248.451172,173.953776 C248.451172,167.814453 248.451172,158.605469 248.451172,146.326823 C248.451172,143.332031 247.852214,140.786458 246.654297,138.690104 C245.306641,136.59375 243.434896,135.096354 241.039062,134.197917 C238.34375,133 234.974609,132.700521 230.931641,133.299479 C226.888672,134.048177 222.695964,136.44401 218.353516,140.486979 C213.26237,145.128906 209.66862,151.268229 207.572266,158.904948 C205.475911,166.391927 205.475911,172.830729 207.572266,178.221354 C208.620443,180.916667 210.192708,182.863281 212.289062,184.061198 C214.385417,185.408854 217.155599,186.082682 220.599609,186.082682 Z M261.972,77.168 C261.972,74.928 261.076,73.136 259.508,71.568 C257.716,70.224 255.7,69.328 253.46,69.328 C251.892,69.328 249.428,70.672 246.068,73.136 C242.484,75.824 239.124,78.736 235.54,82.096 C231.956,85.456 228.82,88.816 226.132,91.952 C223.444,95.312 222.1,97.776 222.1,99.344 C222.1,101.584 223.444,102.48 226.356,102.48 C227.7,102.48 230.164,101.808 233.3,100.016 C236.436,98.672 239.572,96.656 243.156,94.416 C246.516,92.176 249.652,89.936 252.788,87.472 C255.924,85.232 258.164,83.44 259.508,81.872 C261.076,80.304 261.972,78.736 261.972,77.168 Z" transform="translate(-179)"/></svg>