<svg xmlns="http://www.w3.org/2000/svg" width="103" height="203" viewBox="0 0 103 203"><path fill="#131313" d="M2027.80303,73.1230446 C2031.99574,73.8717426 2035.73923,75.3691384 2039.0335,77.6152321 C2042.17803,80.0110655 2044.57386,83.0058571 2046.221,86.5996071 C2048.31735,90.7923155 2049.21579,95.2096332 2048.91631,99.8515603 C2048.61683,104.343748 2047.19431,108.536456 2044.64873,112.429685 C2042.40264,116.023435 2037.98532,120.066404 2031.39678,124.558592 C2024.80824,129.050779 2014.40134,131.895831 2000.17608,133.093748 C2001.67347,136.088539 2003.62009,138.409503 2006.01592,140.056638 C2008.41176,141.554034 2011.40655,142.302732 2015.0003,142.302732 C2020.54066,142.302732 2025.33233,141.554034 2029.3753,140.056638 C2033.41827,138.559243 2037.68584,135.190102 2042.17803,129.949217 C2043.67543,128.302081 2045.54717,127.403644 2047.79327,127.253904 C2050.03936,127.104164 2051.98597,127.777993 2053.63311,129.275388 C2055.42998,130.772784 2056.40329,132.644529 2056.55303,134.890623 C2056.70277,137.136717 2056.02894,139.083331 2054.53155,140.730467 C2048.09274,148.067706 2041.72881,152.859373 2035.43975,155.105467 C2029.00095,157.35156 2022.1878,158.474607 2015.0003,158.474607 C2008.11228,158.474607 2002.12269,156.827472 1997.03155,153.533201 C1991.79066,150.08919 1987.82256,145.297524 1985.12725,139.158201 C1984.37855,137.211586 1983.70472,135.190102 1983.10577,133.093748 C1982.50681,130.997394 1982.13246,128.82617 1981.98272,126.580076 C1981.83298,126.430336 1981.75811,126.280597 1981.75811,126.130857 L1981.75811,125.681638 C1981.60837,124.034503 1981.5335,122.387368 1981.5335,120.740232 C1981.5335,115.349607 1982.35707,109.809243 1984.0042,104.119138 C1986.2503,96.9316384 1989.69431,90.8671853 1994.33623,85.925779 C1998.82842,81.1341124 2004.06931,77.5403624 2010.05889,75.144529 C2016.04847,72.8984353 2021.96319,72.2246071 2027.80303,73.1230446 Z M2025.8128,86.738 L2024.68975,86.738 C2022.14418,86.738 2019.37399,87.3369583 2016.3792,88.534875 C2013.23467,89.8825313 2010.38962,91.9040156 2007.84405,94.5993281 C2005.59795,97.144901 2003.72621,100.139693 2002.22881,103.583703 C2000.88116,107.177453 1999.98272,110.846073 1999.5335,114.589562 C2007.76918,113.990604 2014.73207,112.568078 2020.42217,110.321984 C2026.11228,108.075891 2030.15524,105.081099 2032.55108,101.337609 C2033.59926,99.690474 2034.19821,98.0433385 2034.34795,96.3962031 C2034.34795,94.5993281 2033.9736,92.8024531 2033.22491,91.0055781 C2032.62595,89.957401 2031.80238,89.0589635 2030.7542,88.3102656 C2029.70603,87.7113073 2028.43324,87.2620885 2026.93584,86.9626094 C2026.63636,86.9626094 2026.26202,86.8877396 2025.8128,86.738 Z M2007.5305,22 C2008.8745,22 2011.3385,23.344 2014.9225,25.808 C2018.2825,28.496 2021.8665,31.408 2025.4505,34.544 C2029.0345,38.128 2032.1705,41.488 2034.8585,44.624 C2037.5465,47.984 2038.8905,50.448 2038.8905,52.016 C2038.8905,54.256 2037.3225,55.152 2034.6345,55.152 C2032.8425,55.152 2030.6025,54.48 2027.4665,52.912 C2024.3305,51.344 2021.1945,49.328 2017.8345,47.088 C2014.2505,44.848 2011.1145,42.608 2008.2025,40.368 C2005.0665,38.128 2002.8265,36.112 2001.4825,34.544 C1999.6905,32.976 1999.0185,31.408 1999.0185,29.84 C1999.0185,27.6 1999.6905,25.808 2001.4825,24.24 C2003.2745,22.896 2005.2905,22 2007.5305,22 Z" transform="translate(-1967 -16.738)"/></svg>