<svg xmlns="http://www.w3.org/2000/svg" width="103" height="243" viewBox="0 0 103 243"><path fill="#131313" d="M60.8030312,80.3850446 C64.9957396,81.1337426 68.7392292,82.6311384 72.0335,84.8772321 C75.1780312,87.2730655 77.5738646,90.2678571 79.221,93.8616071 C81.3173542,98.0543155 82.2157917,102.471633 81.9163125,107.11356 C81.6168333,111.605748 80.1943073,115.798456 77.6487344,119.691685 C75.4026406,123.285435 70.9853229,127.328404 64.3967812,131.820592 C57.8082396,136.312779 47.4013385,139.157831 33.1760781,140.355748 C34.673474,143.350539 36.6200885,145.671503 39.0159219,147.318638 C41.4117552,148.816034 44.4065469,149.564732 48.0002969,149.564732 C53.5406615,149.564732 58.3323281,148.816034 62.3752969,147.318638 C66.4182656,145.821243 70.6858437,142.452102 75.1780312,137.211217 C76.6754271,135.564081 78.5471719,134.665644 80.7932656,134.515904 C83.0393594,134.366164 84.985974,135.039993 86.6331094,136.537388 C88.4299844,138.034784 89.4032917,139.906529 89.5530312,142.152623 C89.7027708,144.398717 89.0289427,146.345331 87.5315469,147.992467 C81.0927448,155.329706 74.7288125,160.121373 68.43975,162.367467 C62.0009479,164.61356 55.1877969,165.736607 48.0002969,165.736607 C41.112276,165.736607 35.1226927,164.089472 30.0315469,160.795201 C24.7906615,157.35119 20.8225625,152.559524 18.12725,146.420201 C17.3785521,144.473586 16.704724,142.452102 16.1057656,140.355748 C15.5068073,138.259394 15.1324583,136.08817 14.9827187,133.842076 C14.8329792,133.692336 14.7581094,133.542597 14.7581094,133.392857 L14.7581094,132.943638 C14.6083698,131.296503 14.5335,129.649368 14.5335,128.002232 C14.5335,122.611607 15.3570677,117.071243 17.0042031,111.381138 C19.2502969,104.193638 22.6943073,98.1291853 27.3362344,93.187779 C31.8284219,88.3961124 37.0693073,84.8023624 43.0588906,82.406529 C49.048474,80.1604353 54.9631875,79.4866071 60.8030312,80.3850446 Z M58.8127969,94 L57.68975,94 C55.1441771,94 52.3739948,94.5989583 49.3792031,95.796875 C46.2346719,97.1445313 43.3896198,99.1660156 40.8440469,101.861328 C38.5979531,104.406901 36.7262083,107.401693 35.2288125,110.845703 C33.8811562,114.439453 32.9827187,118.108073 32.5335,121.851562 C40.7691771,121.252604 47.7320677,119.830078 53.4221719,117.583984 C59.112276,115.337891 63.1552448,112.343099 65.5510781,108.599609 C66.5992552,106.952474 67.1982135,105.305339 67.3479531,103.658203 C67.3479531,101.861328 66.9736042,100.064453 66.2249062,98.2675781 C65.6259479,97.219401 64.8023802,96.3209635 63.7542031,95.5722656 C62.706026,94.9733073 61.4332396,94.5240885 59.9358437,94.2246094 C59.6363646,94.2246094 59.2620156,94.1497396 58.8127969,94 Z M40.5305,29.262 C41.8745,29.262 44.3385,30.606 47.9225,33.07 C51.2825,35.758 54.8665,38.67 58.4505,41.806 C62.0345,45.39 65.1705,48.75 67.8585,51.886 C70.5465,55.246 71.8905,57.71 71.8905,59.278 C71.8905,61.518 70.3225,62.414 67.6345,62.414 C65.8425,62.414 63.6025,61.742 60.4665,60.174 C57.3305,58.606 54.1945,56.59 50.8345,54.35 C47.2505,52.11 44.1145,49.87 41.2025,47.63 C38.0665,45.39 35.8265,43.374 34.4825,41.806 C32.6905,40.238 32.0185,38.67 32.0185,37.102 C32.0185,34.862 32.6905,33.07 34.4825,31.502 C36.2745,30.158 38.2905,29.262 40.5305,29.262 Z"/></svg>