<svg xmlns="http://www.w3.org/2000/svg" width="103" height="203" viewBox="0 0 103 203"><path fill="#131313" d="M2027.80303,117.385045 C2031.99574,118.133743 2035.73923,119.631138 2039.0335,121.877232 C2042.17803,124.273065 2044.57386,127.267857 2046.221,130.861607 C2048.31735,135.054315 2049.21579,139.471633 2048.91631,144.11356 C2048.61683,148.605748 2047.19431,152.798456 2044.64873,156.691685 C2042.40264,160.285435 2037.98532,164.328404 2031.39678,168.820592 C2024.80824,173.312779 2014.40134,176.157831 2000.17608,177.355748 C2001.67347,180.350539 2003.62009,182.671503 2006.01592,184.318638 C2008.41176,185.816034 2011.40655,186.564732 2015.0003,186.564732 C2020.54066,186.564732 2025.33233,185.816034 2029.3753,184.318638 C2033.41827,182.821243 2037.68584,179.452102 2042.17803,174.211217 C2043.67543,172.564081 2045.54717,171.665644 2047.79327,171.515904 C2050.03936,171.366164 2051.98597,172.039993 2053.63311,173.537388 C2055.42998,175.034784 2056.40329,176.906529 2056.55303,179.152623 C2056.70277,181.398717 2056.02894,183.345331 2054.53155,184.992467 C2048.09274,192.329706 2041.72881,197.121373 2035.43975,199.367467 C2029.00095,201.61356 2022.1878,202.736607 2015.0003,202.736607 C2008.11228,202.736607 2002.12269,201.089472 1997.03155,197.795201 C1991.79066,194.35119 1987.82256,189.559524 1985.12725,183.420201 C1984.37855,181.473586 1983.70472,179.452102 1983.10577,177.355748 C1982.50681,175.259394 1982.13246,173.08817 1981.98272,170.842076 C1981.83298,170.692336 1981.75811,170.542597 1981.75811,170.392857 L1981.75811,169.943638 C1981.60837,168.296503 1981.5335,166.649368 1981.5335,165.002232 C1981.5335,159.611607 1982.35707,154.071243 1984.0042,148.381138 C1986.2503,141.193638 1989.69431,135.129185 1994.33623,130.187779 C1998.82842,125.396112 2004.06931,121.802362 2010.05889,119.406529 C2016.04847,117.160435 2021.96319,116.486607 2027.80303,117.385045 Z M2025.8128,131 L2024.68975,131 C2022.14418,131 2019.37399,131.598958 2016.3792,132.796875 C2013.23467,134.144531 2010.38962,136.166016 2007.84405,138.861328 C2005.59795,141.406901 2003.72621,144.401693 2002.22881,147.845703 C2000.88116,151.439453 1999.98272,155.108073 1999.5335,158.851563 C2007.76918,158.252604 2014.73207,156.830078 2020.42217,154.583984 C2026.11228,152.337891 2030.15524,149.343099 2032.55108,145.599609 C2033.59926,143.952474 2034.19821,142.305339 2034.34795,140.658203 C2034.34795,138.861328 2033.9736,137.064453 2033.22491,135.267578 C2032.62595,134.219401 2031.80238,133.320964 2030.7542,132.572266 C2029.70603,131.973307 2028.43324,131.524089 2026.93584,131.224609 C2026.63636,131.224609 2026.26202,131.14974 2025.8128,131 Z M2007.5305,66.262 C2008.8745,66.262 2011.3385,67.606 2014.9225,70.07 C2018.2825,72.758 2021.8665,75.67 2025.4505,78.806 C2029.0345,82.39 2032.1705,85.75 2034.8585,88.886 C2037.5465,92.246 2038.8905,94.71 2038.8905,96.278 C2038.8905,98.518 2037.3225,99.414 2034.6345,99.414 C2032.8425,99.414 2030.6025,98.742 2027.4665,97.174 C2024.3305,95.606 2021.1945,93.59 2017.8345,91.35 C2014.2505,89.11 2011.1145,86.87 2008.2025,84.63 C2005.0665,82.39 2002.8265,80.374 2001.4825,78.806 C1999.6905,77.238 1999.0185,75.67 1999.0185,74.102 C1999.0185,71.862 1999.6905,70.07 2001.4825,68.502 C2003.2745,67.158 2005.2905,66.262 2007.5305,66.262 Z" transform="translate(-1967)"/></svg>