<svg xmlns="http://www.w3.org/2000/svg" width="103" height="203" viewBox="0 0 103 203"><path fill="#131313" d="M1704.80303,73.1230446 C1708.99574,73.8717426 1712.73923,75.3691384 1716.0335,77.6152321 C1719.17803,80.0110655 1721.57386,83.0058571 1723.221,86.5996071 C1725.31735,90.7923155 1726.21579,95.2096332 1725.91631,99.8515603 C1725.61683,104.343748 1724.19431,108.536456 1721.64873,112.429685 C1719.40264,116.023435 1714.98532,120.066404 1708.39678,124.558592 C1701.80824,129.050779 1691.40134,131.895831 1677.17608,133.093748 C1678.67347,136.088539 1680.62009,138.409503 1683.01592,140.056638 C1685.41176,141.554034 1688.40655,142.302732 1692.0003,142.302732 C1697.54066,142.302732 1702.33233,141.554034 1706.3753,140.056638 C1710.41827,138.559243 1714.68584,135.190102 1719.17803,129.949217 C1720.67543,128.302081 1722.54717,127.403644 1724.79327,127.253904 C1727.03936,127.104164 1728.98597,127.777993 1730.63311,129.275388 C1732.42998,130.772784 1733.40329,132.644529 1733.55303,134.890623 C1733.70277,137.136717 1733.02894,139.083331 1731.53155,140.730467 C1725.09274,148.067706 1718.72881,152.859373 1712.43975,155.105467 C1706.00095,157.35156 1699.1878,158.474607 1692.0003,158.474607 C1685.11228,158.474607 1679.12269,156.827472 1674.03155,153.533201 C1668.79066,150.08919 1664.82256,145.297524 1662.12725,139.158201 C1661.37855,137.211586 1660.70472,135.190102 1660.10577,133.093748 C1659.50681,130.997394 1659.13246,128.82617 1658.98272,126.580076 C1658.83298,126.430336 1658.75811,126.280597 1658.75811,126.130857 L1658.75811,125.681638 C1658.60837,124.034503 1658.5335,122.387368 1658.5335,120.740232 C1658.5335,115.349607 1659.35707,109.809243 1661.0042,104.119138 C1663.2503,96.9316384 1666.69431,90.8671853 1671.33623,85.925779 C1675.82842,81.1341124 1681.06931,77.5403624 1687.05889,75.144529 C1693.04847,72.8984353 1698.96319,72.2246071 1704.80303,73.1230446 Z M1702.8128,86.738 L1701.68975,86.738 C1699.14418,86.738 1696.37399,87.3369583 1693.3792,88.534875 C1690.23467,89.8825313 1687.38962,91.9040156 1684.84405,94.5993281 C1682.59795,97.144901 1680.72621,100.139693 1679.22881,103.583703 C1677.88116,107.177453 1676.98272,110.846073 1676.5335,114.589562 C1684.76918,113.990604 1691.73207,112.568078 1697.42217,110.321984 C1703.11228,108.075891 1707.15524,105.081099 1709.55108,101.337609 C1710.59926,99.690474 1711.19821,98.0433385 1711.34795,96.3962031 C1711.34795,94.5993281 1710.9736,92.8024531 1710.22491,91.0055781 C1709.62595,89.957401 1708.80238,89.0589635 1707.7542,88.3102656 C1706.70603,87.7113073 1705.43324,87.2620885 1703.93584,86.9626094 C1703.63636,86.9626094 1703.26202,86.8877396 1702.8128,86.738 Z M1708.46,25.831 C1710.7,25.831 1712.716,26.727 1714.508,28.071 C1716.076,29.639 1716.972,31.431 1716.972,33.671 C1716.972,35.239 1716.076,36.807 1714.508,38.375 C1713.164,39.943 1710.924,41.735 1707.788,43.975 C1704.652,46.439 1701.516,48.679 1698.156,50.919 C1694.572,53.159 1691.436,55.175 1688.3,56.519 C1685.164,58.311 1682.7,58.983 1681.356,58.983 C1678.444,58.983 1677.1,58.087 1677.1,55.847 C1677.1,54.279 1678.444,51.815 1681.132,48.455 C1683.82,45.319 1686.956,41.959 1690.54,38.599 C1694.124,35.239 1697.484,32.327 1701.068,29.639 C1704.428,27.175 1706.892,25.831 1708.46,25.831 Z" transform="translate(-1645 -16.738)"/></svg>