<svg xmlns="http://www.w3.org/2000/svg" width="103" height="203" viewBox="0 0 103 203"><path fill="#131313" d="M1704.80303,117.385045 C1708.99574,118.133743 1712.73923,119.631138 1716.0335,121.877232 C1719.17803,124.273065 1721.57386,127.267857 1723.221,130.861607 C1725.31735,135.054315 1726.21579,139.471633 1725.91631,144.11356 C1725.61683,148.605748 1724.19431,152.798456 1721.64873,156.691685 C1719.40264,160.285435 1714.98532,164.328404 1708.39678,168.820592 C1701.80824,173.312779 1691.40134,176.157831 1677.17608,177.355748 C1678.67347,180.350539 1680.62009,182.671503 1683.01592,184.318638 C1685.41176,185.816034 1688.40655,186.564732 1692.0003,186.564732 C1697.54066,186.564732 1702.33233,185.816034 1706.3753,184.318638 C1710.41827,182.821243 1714.68584,179.452102 1719.17803,174.211217 C1720.67543,172.564081 1722.54717,171.665644 1724.79327,171.515904 C1727.03936,171.366164 1728.98597,172.039993 1730.63311,173.537388 C1732.42998,175.034784 1733.40329,176.906529 1733.55303,179.152623 C1733.70277,181.398717 1733.02894,183.345331 1731.53155,184.992467 C1725.09274,192.329706 1718.72881,197.121373 1712.43975,199.367467 C1706.00095,201.61356 1699.1878,202.736607 1692.0003,202.736607 C1685.11228,202.736607 1679.12269,201.089472 1674.03155,197.795201 C1668.79066,194.35119 1664.82256,189.559524 1662.12725,183.420201 C1661.37855,181.473586 1660.70472,179.452102 1660.10577,177.355748 C1659.50681,175.259394 1659.13246,173.08817 1658.98272,170.842076 C1658.83298,170.692336 1658.75811,170.542597 1658.75811,170.392857 L1658.75811,169.943638 C1658.60837,168.296503 1658.5335,166.649368 1658.5335,165.002232 C1658.5335,159.611607 1659.35707,154.071243 1661.0042,148.381138 C1663.2503,141.193638 1666.69431,135.129185 1671.33623,130.187779 C1675.82842,125.396112 1681.06931,121.802362 1687.05889,119.406529 C1693.04847,117.160435 1698.96319,116.486607 1704.80303,117.385045 Z M1702.8128,131 L1701.68975,131 C1699.14418,131 1696.37399,131.598958 1693.3792,132.796875 C1690.23467,134.144531 1687.38962,136.166016 1684.84405,138.861328 C1682.59795,141.406901 1680.72621,144.401693 1679.22881,147.845703 C1677.88116,151.439453 1676.98272,155.108073 1676.5335,158.851562 C1684.76918,158.252604 1691.73207,156.830078 1697.42217,154.583984 C1703.11228,152.337891 1707.15524,149.343099 1709.55108,145.599609 C1710.59926,143.952474 1711.19821,142.305339 1711.34795,140.658203 C1711.34795,138.861328 1710.9736,137.064453 1710.22491,135.267578 C1709.62595,134.219401 1708.80238,133.320964 1707.7542,132.572266 C1706.70603,131.973307 1705.43324,131.524089 1703.93584,131.224609 C1703.63636,131.224609 1703.26202,131.14974 1702.8128,131 Z M1708.46,70.093 C1710.7,70.093 1712.716,70.989 1714.508,72.333 C1716.076,73.901 1716.972,75.693 1716.972,77.933 C1716.972,79.501 1716.076,81.069 1714.508,82.637 C1713.164,84.205 1710.924,85.997 1707.788,88.237 C1704.652,90.701 1701.516,92.941 1698.156,95.181 C1694.572,97.421 1691.436,99.437 1688.3,100.781 C1685.164,102.573 1682.7,103.245 1681.356,103.245 C1678.444,103.245 1677.1,102.349 1677.1,100.109 C1677.1,98.541 1678.444,96.077 1681.132,92.717 C1683.82,89.581 1686.956,86.221 1690.54,82.861 C1694.124,79.501 1697.484,76.589 1701.068,73.901 C1704.428,71.437 1706.892,70.093 1708.46,70.093 Z" transform="translate(-1645)"/></svg>