<svg xmlns="http://www.w3.org/2000/svg" width="103" height="243" viewBox="0 0 103 243"><path fill="#131313" d="M59.8030312,80.3850446 C63.9957396,81.1337426 67.7392292,82.6311384 71.0335,84.8772321 C74.1780312,87.2730655 76.5738646,90.2678571 78.221,93.8616071 C80.3173542,98.0543155 81.2157917,102.471633 80.9163125,107.11356 C80.6168333,111.605748 79.1943073,115.798456 76.6487344,119.691685 C74.4026406,123.285435 69.9853229,127.328404 63.3967812,131.820592 C56.8082396,136.312779 46.4013385,139.157831 32.1760781,140.355748 C33.673474,143.350539 35.6200885,145.671503 38.0159219,147.318638 C40.4117552,148.816034 43.4065469,149.564732 47.0002969,149.564732 C52.5406615,149.564732 57.3323281,148.816034 61.3752969,147.318638 C65.4182656,145.821243 69.6858437,142.452102 74.1780312,137.211217 C75.6754271,135.564081 77.5471719,134.665644 79.7932656,134.515904 C82.0393594,134.366164 83.985974,135.039993 85.6331094,136.537388 C87.4299844,138.034784 88.4032917,139.906529 88.5530312,142.152623 C88.7027708,144.398717 88.0289427,146.345331 86.5315469,147.992467 C80.0927448,155.329706 73.7288125,160.121373 67.43975,162.367467 C61.0009479,164.61356 54.1877969,165.736607 47.0002969,165.736607 C40.112276,165.736607 34.1226927,164.089472 29.0315469,160.795201 C23.7906615,157.35119 19.8225625,152.559524 17.12725,146.420201 C16.3785521,144.473586 15.704724,142.452102 15.1057656,140.355748 C14.5068073,138.259394 14.1324583,136.08817 13.9827187,133.842076 C13.8329792,133.692336 13.7581094,133.542597 13.7581094,133.392857 L13.7581094,132.943638 C13.6083698,131.296503 13.5335,129.649368 13.5335,128.002232 C13.5335,122.611607 14.3570677,117.071243 16.0042031,111.381138 C18.2502969,104.193638 21.6943073,98.1291853 26.3362344,93.187779 C30.8284219,88.3961124 36.0693073,84.8023624 42.0588906,82.406529 C48.048474,80.1604353 53.9631875,79.4866071 59.8030312,80.3850446 Z M57.8127969,94 L56.68975,94 C54.1441771,94 51.3739948,94.5989583 48.3792031,95.796875 C45.2346719,97.1445313 42.3896198,99.1660156 39.8440469,101.861328 C37.5979531,104.406901 35.7262083,107.401693 34.2288125,110.845703 C32.8811562,114.439453 31.9827187,118.108073 31.5335,121.851562 C39.7691771,121.252604 46.7320677,119.830078 52.4221719,117.583984 C58.112276,115.337891 62.1552448,112.343099 64.5510781,108.599609 C65.5992552,106.952474 66.1982135,105.305339 66.3479531,103.658203 C66.3479531,101.861328 65.9736042,100.064453 65.2249062,98.2675781 C64.6259479,97.219401 63.8023802,96.3209635 62.7542031,95.5722656 C61.706026,94.9733073 60.4332396,94.5240885 58.9358437,94.2246094 C58.6363646,94.2246094 58.2620156,94.1497396 57.8127969,94 Z M63.46,33.093 C65.7,33.093 67.716,33.989 69.508,35.333 C71.076,36.901 71.972,38.693 71.972,40.933 C71.972,42.501 71.076,44.069 69.508,45.637 C68.164,47.205 65.924,48.997 62.788,51.237 C59.652,53.701 56.516,55.941 53.156,58.181 C49.572,60.421 46.436,62.437 43.3,63.781 C40.164,65.573 37.7,66.245 36.356,66.245 C33.444,66.245 32.1,65.349 32.1,63.109 C32.1,61.541 33.444,59.077 36.132,55.717 C38.82,52.581 41.956,49.221 45.54,45.861 C49.124,42.501 52.484,39.589 56.068,36.901 C59.428,34.437 61.892,33.093 63.46,33.093 Z"/></svg>