<svg xmlns="http://www.w3.org/2000/svg" width="64" height="203" viewBox="0 0 64 203"><path fill="#131313" d="M2716.5335,150.228234 C2716.5335,134.805057 2716.5335,111.670292 2716.5335,80.8239375 C2716.5335,78.5778437 2717.35707,76.6312292 2719.0042,74.9840937 C2720.5016,73.4866979 2722.37334,72.738 2724.61944,72.738 C2726.86553,72.738 2728.81215,73.4866979 2730.45928,74.9840937 C2732.10642,76.6312292 2732.92998,78.5778437 2732.92998,80.8239375 C2732.92998,96.2471146 2732.92998,119.38188 2732.92998,150.228234 C2732.92998,152.474328 2732.10642,154.420943 2730.45928,156.068078 C2728.81215,157.565474 2726.86553,158.314172 2724.61944,158.314172 C2722.37334,158.314172 2720.5016,157.565474 2719.0042,156.068078 C2717.35707,154.420943 2716.5335,152.474328 2716.5335,150.228234 Z M2744.8905,52.016 C2744.8905,50.448 2743.5465,47.984 2740.8585,44.624 C2738.1705,41.488 2735.0345,38.128 2731.4505,34.544 C2727.8665,31.408 2724.2825,28.496 2720.9225,25.808 C2717.3385,23.344 2714.8745,22 2713.5305,22 C2711.2905,22 2709.2745,22.896 2707.4825,24.24 C2705.6905,25.808 2705.0185,27.6 2705.0185,29.84 C2705.0185,31.408 2705.6905,32.976 2707.4825,34.544 C2708.8265,36.112 2711.0665,38.128 2714.2025,40.368 C2717.1145,42.608 2720.2505,44.848 2723.8345,47.088 C2727.1945,49.328 2730.3305,51.344 2733.4665,52.912 C2736.6025,54.48 2738.8425,55.152 2740.6345,55.152 C2743.3225,55.152 2744.8905,54.256 2744.8905,52.016 Z" transform="translate(-2692.5 -16.738)"/></svg>