<svg xmlns="http://www.w3.org/2000/svg" width="64" height="203" viewBox="0 0 64 203"><path fill="#131313" d="M2394.5335,150.228234 C2394.5335,134.805057 2394.5335,111.670292 2394.5335,80.8239375 C2394.5335,78.5778437 2395.35707,76.6312292 2397.0042,74.9840937 C2398.5016,73.4866979 2400.37334,72.738 2402.61944,72.738 C2404.86553,72.738 2406.81215,73.4866979 2408.45928,74.9840937 C2410.10642,76.6312292 2410.92998,78.5778437 2410.92998,80.8239375 C2410.92998,96.2471146 2410.92998,119.38188 2410.92998,150.228234 C2410.92998,152.474328 2410.10642,154.420943 2408.45928,156.068078 C2406.81215,157.565474 2404.86553,158.314172 2402.61944,158.314172 C2400.37334,158.314172 2398.5016,157.565474 2397.0042,156.068078 C2395.35707,154.420943 2394.5335,152.474328 2394.5335,150.228234 Z M2422.972,33.671 C2422.972,31.431 2422.076,29.639 2420.508,28.071 C2418.716,26.727 2416.7,25.831 2414.46,25.831 C2412.892,25.831 2410.428,27.175 2407.068,29.639 C2403.484,32.327 2400.124,35.239 2396.54,38.599 C2392.956,41.959 2389.82,45.319 2387.132,48.455 C2384.444,51.815 2383.1,54.279 2383.1,55.847 C2383.1,58.087 2384.444,58.983 2387.356,58.983 C2388.7,58.983 2391.164,58.311 2394.3,56.519 C2397.436,55.175 2400.572,53.159 2404.156,50.919 C2407.516,48.679 2410.652,46.439 2413.788,43.975 C2416.924,41.735 2419.164,39.943 2420.508,38.375 C2422.076,36.807 2422.972,35.239 2422.972,33.671 Z" transform="translate(-2370.5 -16.738)"/></svg>