<svg xmlns="http://www.w3.org/2000/svg" width="64" height="243" viewBox="0 0 64 243"><path fill="#131313" d="M24.0335,157.490234 C24.0335,142.067057 24.0335,118.932292 24.0335,88.0859375 C24.0335,85.8398438 24.8570677,83.8932292 26.5042031,82.2460938 C28.001599,80.7486979 29.8733437,80 32.1194375,80 C34.3655312,80 36.3121458,80.7486979 37.9592812,82.2460938 C39.6064167,83.8932292 40.4299844,85.8398438 40.4299844,88.0859375 C40.4299844,103.509115 40.4299844,126.64388 40.4299844,157.490234 C40.4299844,159.736328 39.6064167,161.682943 37.9592812,163.330078 C36.3121458,164.827474 34.3655312,165.576172 32.1194375,165.576172 C29.8733437,165.576172 28.001599,164.827474 26.5042031,163.330078 C24.8570677,161.682943 24.0335,159.736328 24.0335,157.490234 Z M52.472,40.933 C52.472,38.693 51.576,36.901 50.008,35.333 C48.216,33.989 46.2,33.093 43.96,33.093 C42.392,33.093 39.928,34.437 36.568,36.901 C32.984,39.589 29.624,42.501 26.04,45.861 C22.456,49.221 19.32,52.581 16.632,55.717 C13.944,59.077 12.6,61.541 12.6,63.109 C12.6,65.349 13.944,66.245 16.856,66.245 C18.2,66.245 20.664,65.573 23.8,63.781 C26.936,62.437 30.072,60.421 33.656,58.181 C37.016,55.941 40.152,53.701 43.288,51.237 C46.424,48.997 48.664,47.205 50.008,45.637 C51.576,44.069 52.472,42.501 52.472,40.933 Z"/></svg>