<svg xmlns="http://www.w3.org/2000/svg" width="103" height="243" viewBox="0 0 103 243"><path fill="#131313" d="M11,122.285438 C11,109.108354 14.7434896,98.4768437 22.2304688,90.3909062 C29.7174479,82.3049688 39.6002604,78.262 51.8789063,78.262 C64.0078125,78.262 73.8157552,82.3049688 81.3027344,90.3909062 C88.7897135,98.4768437 92.5332031,109.108354 92.5332031,122.285438 C92.5332031,135.163042 88.7148438,145.719682 81.078125,153.955359 C73.5911458,162.041297 63.8580729,166.084266 51.8789063,166.084266 C39.8997396,166.084266 30.0917969,162.041297 22.4550781,153.955359 C14.8183594,145.719682 11,135.163042 11,122.285438 Z M27,121.851563 C27,128.440104 28.796875,134.729167 32.390625,140.71875 C35.984375,146.558594 42.3483073,149.478516 51.4824219,149.478516 C60.4667969,149.478516 66.7558594,146.558594 70.3496094,140.71875 C73.9433594,134.729167 75.7402344,128.440104 75.7402344,121.851563 C75.7402344,113.166667 73.6438802,106.353516 69.4511719,101.412109 C65.108724,96.4707031 59.1191406,94 51.4824219,94 C43.6959635,94 37.7063802,96.4707031 33.5136719,101.412109 C29.171224,106.353516 27,113.166667 27,121.851563 Z M71.8905,59.278 C71.8905,57.71 70.5465,55.246 67.8585,51.886 C65.1705,48.75 62.0345,45.39 58.4505,41.806 C54.8665,38.67 51.2825,35.758 47.9225,33.07 C44.3385,30.606 41.8745,29.262 40.5305,29.262 C38.2905,29.262 36.2745,30.158 34.4825,31.502 C32.6905,33.07 32.0185,34.862 32.0185,37.102 C32.0185,38.67 32.6905,40.238 34.4825,41.806 C35.8265,43.374 38.0665,45.39 41.2025,47.63 C44.1145,49.87 47.2505,52.11 50.8345,54.35 C54.1945,56.59 57.3305,58.606 60.4665,60.174 C63.6025,61.742 65.8425,62.414 67.6345,62.414 C70.3225,62.414 71.8905,61.518 71.8905,59.278 Z"/></svg>