<svg xmlns="http://www.w3.org/2000/svg" width="103" height="203" viewBox="0 0 103 203"><path fill="#131313" d="M950,114.761438 C950,101.584354 953.74349,90.9528437 961.230469,82.8669062 C968.717448,74.7809687 978.60026,70.738 990.878906,70.738 C1003.00781,70.738 1012.81576,74.7809687 1020.30273,82.8669062 C1027.78971,90.9528437 1031.5332,101.584354 1031.5332,114.761438 C1031.5332,127.639042 1027.71484,138.195682 1020.07812,146.431359 C1012.59115,154.517297 1002.85807,158.560266 990.878906,158.560266 C978.89974,158.560266 969.091797,154.517297 961.455078,146.431359 C953.818359,138.195682 950,127.639042 950,114.761438 Z M966,114.589563 C966,121.178104 967.796875,127.467167 971.390625,133.45675 C974.984375,139.296594 981.348307,142.216516 990.482422,142.216516 C999.466797,142.216516 1005.75586,139.296594 1009.34961,133.45675 C1012.94336,127.467167 1014.74023,121.178104 1014.74023,114.589563 C1014.74023,105.904667 1012.64388,99.0915156 1008.45117,94.1501094 C1004.10872,89.2087031 998.119141,86.738 990.482422,86.738 C982.695964,86.738 976.70638,89.2087031 972.513672,94.1501094 C968.171224,99.0915156 966,105.904667 966,114.589563 Z M1010.972,32.906 C1010.972,30.666 1010.076,28.874 1008.508,27.306 C1006.716,25.962 1004.7,25.066 1002.46,25.066 C1000.892,25.066 998.428,26.41 995.068,28.874 C991.484,31.562 988.124,34.474 984.54,37.834 C980.956,41.194 977.82,44.554 975.132,47.69 C972.444,51.05 971.1,53.514 971.1,55.082 C971.1,57.322 972.444,58.218 975.356,58.218 C976.7,58.218 979.164,57.546 982.3,55.754 C985.436,54.41 988.572,52.394 992.156,50.154 C995.516,47.914 998.652,45.674 1001.788,43.21 C1004.924,40.97 1007.164,39.178 1008.508,37.61 C1010.076,36.042 1010.972,34.474 1010.972,32.906 Z" transform="translate(-939 -16.738)"/></svg>