<svg xmlns="http://www.w3.org/2000/svg" width="103" height="243" viewBox="0 0 103 243"><path fill="#131313" d="M80.7089844,80 C82.9550781,80 84.9016927,80.7486979 86.5488281,82.2460938 C88.1959635,83.8932292 89.0195313,85.8398438 89.0195313,88.0859375 C89.0195313,92.4283854 89.0195313,98.9420573 89.0195313,107.626953 C89.0195313,111.220703 89.0195313,116.536458 89.0195313,123.574219 C89.0195313,131.061198 89.0195313,142.366536 89.0195313,157.490234 C89.0195313,159.736328 88.1959635,161.682943 86.5488281,163.330078 C84.9016927,164.827474 82.9550781,165.576172 80.7089844,165.576172 C78.4628906,165.576172 76.5911458,164.827474 75.09375,163.330078 C73.4466146,161.682943 72.6230469,159.736328 72.6230469,157.490234 C72.6230469,157.190755 72.6230469,156.666667 72.6230469,155.917969 C68.8795573,158.91276 64.686849,161.233724 60.0449219,162.880859 C55.2532552,164.677734 50.0872396,165.576172 44.546875,165.576172 C39.15625,165.576172 34.6640625,164.827474 31.0703125,163.330078 C27.4765625,161.832682 24.5566406,159.886068 22.3105469,157.490234 C18.1178385,152.998047 15.7220052,147.832031 15.1230469,141.992188 C14.374349,136.152344 14,131.510417 14,128.066406 C14,119.231771 14,105.904948 14,88.0859375 C14,85.8398438 14.8235677,83.8932292 16.4707031,82.2460938 C17.968099,80.7486979 19.8398438,80 22.0859375,80 C24.3320313,80 26.2786458,80.7486979 27.9257813,82.2460938 C29.4231771,83.8932292 30.171875,85.8398438 30.171875,88.0859375 C30.171875,96.9205729 30.171875,110.247396 30.171875,128.066406 C30.171875,136.451823 31.1451823,142.067057 33.0917969,144.912109 C35.188151,147.906901 39.0065104,149.404297 44.546875,149.404297 C51.1354167,149.404297 57.499349,147.008464 63.6386719,142.216797 C69.6282552,137.42513 72.6230469,131.210938 72.6230469,123.574219 C72.6230469,119.980469 72.6230469,114.664714 72.6230469,107.626953 C72.6230469,103.284505 72.6230469,96.7708333 72.6230469,88.0859375 C72.6230469,85.8398438 73.4466146,83.8932292 75.09375,82.2460938 C76.5911458,80.7486979 78.4628906,80 80.7089844,80 Z M71.8905,59.278 C71.8905,57.71 70.5465,55.246 67.8585,51.886 C65.1705,48.75 62.0345,45.39 58.4505,41.806 C54.8665,38.67 51.2825,35.758 47.9225,33.07 C44.3385,30.606 41.8745,29.262 40.5305,29.262 C38.2905,29.262 36.2745,30.158 34.4825,31.502 C32.6905,33.07 32.0185,34.862 32.0185,37.102 C32.0185,38.67 32.6905,40.238 34.4825,41.806 C35.8265,43.374 38.0665,45.39 41.2025,47.63 C44.1145,49.87 47.2505,52.11 50.8345,54.35 C54.1945,56.59 57.3305,58.606 60.4665,60.174 C63.6025,61.742 65.8425,62.414 67.6345,62.414 C70.3225,62.414 71.8905,61.518 71.8905,59.278 Z"/></svg>