<svg xmlns="http://www.w3.org/2000/svg" width="103" height="203" viewBox="0 0 103 203"><path fill="#131313" d="M4238.70898,72.738 C4240.95508,72.738 4242.90169,73.4866979 4244.54883,74.9840937 C4246.19596,76.6312292 4247.01953,78.5778437 4247.01953,80.8239375 C4247.01953,85.1663854 4247.01953,91.6800573 4247.01953,100.364953 C4247.01953,103.958703 4247.01953,109.274458 4247.01953,116.312219 C4247.01953,123.799198 4247.01953,135.104536 4247.01953,150.228234 C4247.01953,152.474328 4246.19596,154.420943 4244.54883,156.068078 C4242.90169,157.565474 4240.95508,158.314172 4238.70898,158.314172 C4236.46289,158.314172 4234.59115,157.565474 4233.09375,156.068078 C4231.44661,154.420943 4230.62305,152.474328 4230.62305,150.228234 C4230.62305,149.928755 4230.62305,149.404667 4230.62305,148.655969 C4226.87956,151.65076 4222.68685,153.971724 4218.04492,155.618859 C4213.25326,157.415734 4208.08724,158.314172 4202.54688,158.314172 C4197.15625,158.314172 4192.66406,157.565474 4189.07031,156.068078 C4185.47656,154.570682 4182.55664,152.624068 4180.31055,150.228234 C4176.11784,145.736047 4173.72201,140.570031 4173.12305,134.730188 C4172.37435,128.890344 4172,124.248417 4172,120.804406 C4172,111.969771 4172,98.6429479 4172,80.8239375 C4172,78.5778437 4172.82357,76.6312292 4174.4707,74.9840937 C4175.9681,73.4866979 4177.83984,72.738 4180.08594,72.738 C4182.33203,72.738 4184.27865,73.4866979 4185.92578,74.9840937 C4187.42318,76.6312292 4188.17188,78.5778437 4188.17188,80.8239375 C4188.17188,89.6585729 4188.17188,102.985396 4188.17188,120.804406 C4188.17188,129.189823 4189.14518,134.805057 4191.0918,137.650109 C4193.18815,140.644901 4197.00651,142.142297 4202.54688,142.142297 C4209.13542,142.142297 4215.49935,139.746464 4221.63867,134.954797 C4227.62826,130.16313 4230.62305,123.948938 4230.62305,116.312219 C4230.62305,112.718469 4230.62305,107.402714 4230.62305,100.364953 C4230.62305,96.0225052 4230.62305,89.5088333 4230.62305,80.8239375 C4230.62305,78.5778437 4231.44661,76.6312292 4233.09375,74.9840937 C4234.59115,73.4866979 4236.46289,72.738 4238.70898,72.738 Z M4229.8905,52.016 C4229.8905,50.448 4228.5465,47.984 4225.8585,44.624 C4223.1705,41.488 4220.0345,38.128 4216.4505,34.544 C4212.8665,31.408 4209.2825,28.496 4205.9225,25.808 C4202.3385,23.344 4199.8745,22 4198.5305,22 C4196.2905,22 4194.2745,22.896 4192.4825,24.24 C4190.6905,25.808 4190.0185,27.6 4190.0185,29.84 C4190.0185,31.408 4190.6905,32.976 4192.4825,34.544 C4193.8265,36.112 4196.0665,38.128 4199.2025,40.368 C4202.1145,42.608 4205.2505,44.848 4208.8345,47.088 C4212.1945,49.328 4215.3305,51.344 4218.4665,52.912 C4221.6025,54.48 4223.8425,55.152 4225.6345,55.152 C4228.3225,55.152 4229.8905,54.256 4229.8905,52.016 Z" transform="translate(-4158 -16.738)"/></svg>