<svg xmlns="http://www.w3.org/2000/svg" width="103" height="203" viewBox="0 0 103 203"><path fill="#131313" d="M3916.70898,117 C3918.95508,117 3920.90169,117.748698 3922.54883,119.246094 C3924.19596,120.893229 3925.01953,122.839844 3925.01953,125.085937 C3925.01953,129.428385 3925.01953,135.942057 3925.01953,144.626953 C3925.01953,148.220703 3925.01953,153.536458 3925.01953,160.574219 C3925.01953,168.061198 3925.01953,179.366536 3925.01953,194.490234 C3925.01953,196.736328 3924.19596,198.682943 3922.54883,200.330078 C3920.90169,201.827474 3918.95508,202.576172 3916.70898,202.576172 C3914.46289,202.576172 3912.59115,201.827474 3911.09375,200.330078 C3909.44661,198.682943 3908.62305,196.736328 3908.62305,194.490234 C3908.62305,194.190755 3908.62305,193.666667 3908.62305,192.917969 C3904.87956,195.91276 3900.68685,198.233724 3896.04492,199.880859 C3891.25326,201.677734 3886.08724,202.576172 3880.54688,202.576172 C3875.15625,202.576172 3870.66406,201.827474 3867.07031,200.330078 C3863.47656,198.832682 3860.55664,196.886068 3858.31055,194.490234 C3854.11784,189.998047 3851.72201,184.832031 3851.12305,178.992188 C3850.37435,173.152344 3850,168.510417 3850,165.066406 C3850,156.231771 3850,142.904948 3850,125.085937 C3850,122.839844 3850.82357,120.893229 3852.4707,119.246094 C3853.9681,117.748698 3855.83984,117 3858.08594,117 C3860.33203,117 3862.27865,117.748698 3863.92578,119.246094 C3865.42318,120.893229 3866.17188,122.839844 3866.17188,125.085937 C3866.17188,133.920573 3866.17188,147.247396 3866.17188,165.066406 C3866.17188,173.451823 3867.14518,179.067057 3869.0918,181.912109 C3871.18815,184.906901 3875.00651,186.404297 3880.54688,186.404297 C3887.13542,186.404297 3893.49935,184.008464 3899.63867,179.216797 C3905.62826,174.42513 3908.62305,168.210937 3908.62305,160.574219 C3908.62305,156.980469 3908.62305,151.664714 3908.62305,144.626953 C3908.62305,140.284505 3908.62305,133.770833 3908.62305,125.085937 C3908.62305,122.839844 3909.44661,120.893229 3911.09375,119.246094 C3912.59115,117.748698 3914.46289,117 3916.70898,117 Z M3907.972,77.933 C3907.972,75.693 3907.076,73.901 3905.508,72.333 C3903.716,70.989 3901.7,70.093 3899.46,70.093 C3897.892,70.093 3895.428,71.437 3892.068,73.901 C3888.484,76.589 3885.124,79.501 3881.54,82.861 C3877.956,86.221 3874.82,89.581 3872.132,92.717 C3869.444,96.077 3868.1,98.541 3868.1,100.109 C3868.1,102.349 3869.444,103.245 3872.356,103.245 C3873.7,103.245 3876.164,102.573 3879.3,100.781 C3882.436,99.437 3885.572,97.421 3889.156,95.181 C3892.516,92.941 3895.652,90.701 3898.788,88.237 C3901.924,85.997 3904.164,84.205 3905.508,82.637 C3907.076,81.069 3907.972,79.501 3907.972,77.933 Z" transform="translate(-3836)"/></svg>