<svg xmlns="http://www.w3.org/2000/svg" width="103" height="243" viewBox="0 0 103 243"><path fill="#131313" d="M80.7089844,80 C82.9550781,80 84.9016927,80.7486979 86.5488281,82.2460938 C88.1959635,83.8932292 89.0195313,85.8398438 89.0195313,88.0859375 C89.0195313,92.4283854 89.0195313,98.9420573 89.0195313,107.626953 C89.0195313,111.220703 89.0195313,116.536458 89.0195313,123.574219 C89.0195313,131.061198 89.0195313,142.366536 89.0195313,157.490234 C89.0195313,159.736328 88.1959635,161.682943 86.5488281,163.330078 C84.9016927,164.827474 82.9550781,165.576172 80.7089844,165.576172 C78.4628906,165.576172 76.5911458,164.827474 75.09375,163.330078 C73.4466146,161.682943 72.6230469,159.736328 72.6230469,157.490234 C72.6230469,157.190755 72.6230469,156.666667 72.6230469,155.917969 C68.8795573,158.91276 64.686849,161.233724 60.0449219,162.880859 C55.2532552,164.677734 50.0872396,165.576172 44.546875,165.576172 C39.15625,165.576172 34.6640625,164.827474 31.0703125,163.330078 C27.4765625,161.832682 24.5566406,159.886068 22.3105469,157.490234 C18.1178385,152.998047 15.7220052,147.832031 15.1230469,141.992188 C14.374349,136.152344 14,131.510417 14,128.066406 C14,119.231771 14,105.904948 14,88.0859375 C14,85.8398438 14.8235677,83.8932292 16.4707031,82.2460938 C17.968099,80.7486979 19.8398438,80 22.0859375,80 C24.3320313,80 26.2786458,80.7486979 27.9257813,82.2460938 C29.4231771,83.8932292 30.171875,85.8398438 30.171875,88.0859375 C30.171875,96.9205729 30.171875,110.247396 30.171875,128.066406 C30.171875,136.451823 31.1451823,142.067057 33.0917969,144.912109 C35.188151,147.906901 39.0065104,149.404297 44.546875,149.404297 C51.1354167,149.404297 57.499349,147.008464 63.6386719,142.216797 C69.6282552,137.42513 72.6230469,131.210938 72.6230469,123.574219 C72.6230469,119.980469 72.6230469,114.664714 72.6230469,107.626953 C72.6230469,103.284505 72.6230469,96.7708333 72.6230469,88.0859375 C72.6230469,85.8398438 73.4466146,83.8932292 75.09375,82.2460938 C76.5911458,80.7486979 78.4628906,80 80.7089844,80 Z M71.972,40.933 C71.972,38.693 71.076,36.901 69.508,35.333 C67.716,33.989 65.7,33.093 63.46,33.093 C61.892,33.093 59.428,34.437 56.068,36.901 C52.484,39.589 49.124,42.501 45.54,45.861 C41.956,49.221 38.82,52.581 36.132,55.717 C33.444,59.077 32.1,61.541 32.1,63.109 C32.1,65.349 33.444,66.245 36.356,66.245 C37.7,66.245 40.164,65.573 43.3,63.781 C46.436,62.437 49.572,60.421 53.156,58.181 C56.516,55.941 59.652,53.701 62.788,51.237 C65.924,48.997 68.164,47.205 69.508,45.637 C71.076,44.069 71.972,42.501 71.972,40.933 Z"/></svg>