<svg xmlns="http://www.w3.org/2000/svg" width="95" height="243" viewBox="0 0 95 243"><path fill="#131313" d="M76.7089844,80 C78.9550781,80 80.9016927,80.7486979 82.5488281,82.2460938 C84.1959635,83.8932292 85.0195312,85.8398438 85.0195312,88.0859375 C85.0195312,92.4283854 85.0195312,98.9420573 85.0195312,107.626953 C85.0195312,111.220703 85.0195312,116.536458 85.0195312,123.574219 C85.0195312,131.061198 85.0195312,142.366536 85.0195312,157.490234 C85.0195312,159.736328 84.1959635,161.682943 82.5488281,163.330078 C80.9016927,164.827474 78.9550781,165.576172 76.7089844,165.576172 C74.4628906,165.576172 72.5911458,164.827474 71.09375,163.330078 C69.4466146,161.682943 68.6230469,159.736328 68.6230469,157.490234 C68.6230469,157.190755 68.6230469,156.666667 68.6230469,155.917969 C64.8795573,158.91276 60.686849,161.233724 56.0449219,162.880859 C51.2532552,164.677734 46.0872396,165.576172 40.546875,165.576172 C35.15625,165.576172 30.6640625,164.827474 27.0703125,163.330078 C23.4765625,161.832682 20.5566406,159.886068 18.3105469,157.490234 C14.1178385,152.998047 11.7220052,147.832031 11.1230469,141.992188 C10.374349,136.152344 10,131.510417 10,128.066406 C10,119.231771 10,105.904948 10,88.0859375 C10,85.8398438 10.8235677,83.8932292 12.4707031,82.2460938 C13.968099,80.7486979 15.8398438,80 18.0859375,80 C20.3320313,80 22.2786458,80.7486979 23.9257812,82.2460938 C25.4231771,83.8932292 26.171875,85.8398438 26.171875,88.0859375 C26.171875,96.9205729 26.171875,110.247396 26.171875,128.066406 C26.171875,136.451823 27.1451823,142.067057 29.0917969,144.912109 C31.188151,147.906901 35.0065104,149.404297 40.546875,149.404297 C47.1354167,149.404297 53.499349,147.008464 59.6386719,142.216797 C65.6282552,137.42513 68.6230469,131.210938 68.6230469,123.574219 C68.6230469,119.980469 68.6230469,114.664714 68.6230469,107.626953 C68.6230469,103.284505 68.6230469,96.7708333 68.6230469,88.0859375 C68.6230469,85.8398438 69.4466146,83.8932292 71.09375,82.2460938 C72.5911458,80.7486979 74.4628906,80 76.7089844,80 Z M18,65 C22.418278,65 26,61.418278 26,57 C26,52.581722 22.418278,49 18,49 C13.581722,49 10,52.581722 10,57 C10,61.418278 13.581722,65 18,65 Z M77,65 C81.418278,65 85,61.418278 85,57 C85,52.581722 81.418278,49 77,49 C72.581722,49 69,52.581722 69,57 C69,61.418278 72.581722,65 77,65 Z"/></svg>