<svg xmlns="http://www.w3.org/2000/svg" width="97" height="203" viewBox="0 0 97 203"><path fill="#131313" d="M77.7089844,117.144909 C80.1048177,117.144909 82.0514323,117.893607 83.5488281,119.391003 C85.1959635,121.038138 86.0195312,122.984753 86.0195312,125.230847 C86.0195312,140.654024 86.0195312,163.788789 86.0195312,194.635144 C86.0195312,196.881237 85.1959635,198.827852 83.5488281,200.474987 C81.9016927,201.972383 79.9550781,202.721081 77.7089844,202.721081 C75.7623698,202.721081 74.0403646,202.122123 72.5429688,200.924206 C71.0455729,199.726289 70.1471354,198.154024 69.8476562,196.207409 C66.5533854,198.154024 62.5852865,199.726289 57.9433594,200.924206 C53.3014323,202.122123 47.9108073,202.721081 41.7714844,202.721081 C35.0332031,202.721081 29.2682292,201.148816 24.4765625,198.004284 C19.5351562,194.859753 15.9414062,190.367566 13.6953125,184.527722 C11.8984375,180.035534 11,175.243868 11,170.152722 C11,165.660534 11.5989583,160.868868 12.796875,155.777722 C15.7916667,144.846732 20.9576823,135.937227 28.2949219,129.049206 C34.2845052,123.359102 40.8730469,119.690482 48.0605469,118.043347 C55.3977865,116.246472 62.2858073,116.77056 68.7246094,119.615612 C69.1738281,119.765352 69.5481771,119.915092 69.8476562,120.064831 C70.296875,120.36431 70.671224,120.58892 70.9707031,120.738659 C71.719401,119.690482 72.6927083,118.792045 73.890625,118.043347 C75.0885417,117.444388 76.3613281,117.144909 77.7089844,117.144909 Z M41.5996094,186.082682 C51.6321615,186.082682 58.5950521,184.435547 62.4882812,181.141276 C66.3815104,177.847005 68.702474,175.451172 69.4511719,173.953776 C69.4511719,167.814453 69.4511719,158.605469 69.4511719,146.326823 C69.4511719,143.332031 68.8522135,140.786458 67.6542969,138.690104 C66.3066406,136.59375 64.4348958,135.096354 62.0390625,134.197917 C59.34375,133 55.9746094,132.700521 51.9316406,133.299479 C47.8886719,134.048177 43.6959635,136.44401 39.3535156,140.486979 C34.2623698,145.128906 30.6686198,151.268229 28.5722656,158.904948 C26.4759115,166.391927 26.4759115,172.830729 28.5722656,178.221354 C29.6204427,180.916667 31.1927083,182.863281 33.2890625,184.061198 C35.3854167,185.408854 38.155599,186.082682 41.5996094,186.082682 Z M81.1964531,94.456 C81.1964531,92.44 80.3004531,90.872 78.9564531,89.752 C77.1644531,88.856 74.0284531,88.408 69.5484531,88.408 L48.4924531,88.408 L32.1404531,88.856 L19.1484531,88.856 C17.8044531,89.304 16.9084531,90.2 16.4604531,91.544 C15.7884531,92.888 15.5644531,94.008 15.5644531,94.904 C15.5644531,97.144 15.7884531,98.488 16.6844531,99.384 C17.5804531,100.28 18.4764531,100.728 19.8204531,100.728 L23.8524531,100.728 C26.0924531,100.728 28.5564531,100.728 31.4684531,100.504 L59.9164531,100.504 C63.5004531,100.728 66.8604531,100.728 69.9964531,100.728 L74.9244531,100.728 C76.4924531,100.728 78.0604531,100.28 79.4044531,99.16 C80.5244531,98.264 81.1964531,96.696 81.1964531,94.456 Z"/></svg>