<svg xmlns="http://www.w3.org/2000/svg" width="97" height="243" viewBox="0 0 97 243"><path fill="#131313" d="M77.7089844,80.1449093 C80.1048177,80.1449093 82.0514323,80.8936072 83.5488281,82.391003 C85.1959635,84.0381384 86.0195312,85.984753 86.0195312,88.2308468 C86.0195312,103.654024 86.0195312,126.788789 86.0195312,157.635144 C86.0195312,159.881237 85.1959635,161.827852 83.5488281,163.474987 C81.9016927,164.972383 79.9550781,165.721081 77.7089844,165.721081 C75.7623698,165.721081 74.0403646,165.122123 72.5429688,163.924206 C71.0455729,162.726289 70.1471354,161.154024 69.8476562,159.207409 C66.5533854,161.154024 62.5852865,162.726289 57.9433594,163.924206 C53.3014323,165.122123 47.9108073,165.721081 41.7714844,165.721081 C35.0332031,165.721081 29.2682292,164.148816 24.4765625,161.004284 C19.5351562,157.859753 15.9414062,153.367566 13.6953125,147.527722 C11.8984375,143.035534 11,138.243868 11,133.152722 C11,128.660534 11.5989583,123.868868 12.796875,118.777722 C15.7916667,107.846732 20.9576823,98.937227 28.2949219,92.0492061 C34.2845052,86.359102 40.8730469,82.6904822 48.0605469,81.0433468 C55.3977865,79.2464718 62.2858073,79.7705603 68.7246094,82.6156124 C69.1738281,82.765352 69.5481771,82.9150916 69.8476562,83.0648311 C70.296875,83.3643103 70.671224,83.5889197 70.9707031,83.7386593 C71.719401,82.6904822 72.6927083,81.7920447 73.890625,81.0433468 C75.0885417,80.4443884 76.3613281,80.1449093 77.7089844,80.1449093 Z M41.5996094,149.082682 C51.6321615,149.082682 58.5950521,147.435547 62.4882812,144.141276 C66.3815104,140.847005 68.702474,138.451172 69.4511719,136.953776 C69.4511719,130.814453 69.4511719,121.605469 69.4511719,109.326823 C69.4511719,106.332031 68.8522135,103.786458 67.6542969,101.690104 C66.3066406,99.59375 64.4348958,98.0963542 62.0390625,97.1979167 C59.34375,96 55.9746094,95.7005208 51.9316406,96.2994792 C47.8886719,97.0481771 43.6959635,99.4440104 39.3535156,103.486979 C34.2623698,108.128906 30.6686198,114.268229 28.5722656,121.904948 C26.4759115,129.391927 26.4759115,135.830729 28.5722656,141.221354 C29.6204427,143.916667 31.1927083,145.863281 33.2890625,147.061198 C35.3854167,148.408854 38.155599,149.082682 41.5996094,149.082682 Z M95.5546875,147.089844 C96.0039062,147.089844 96.7526042,147.089844 97.8007812,147.089844 C97.8007812,146.640625 97.8007812,145.891927 97.8007812,144.84375 C97.3515625,144.84375 96.6028646,144.84375 95.5546875,144.84375 C95.5546875,145.292969 95.5546875,146.041667 95.5546875,147.089844 Z M81.1964531,57.456 C81.1964531,55.44 80.3004531,53.872 78.9564531,52.752 C77.1644531,51.856 74.0284531,51.408 69.5484531,51.408 L48.4924531,51.408 L32.1404531,51.856 L19.1484531,51.856 C17.8044531,52.304 16.9084531,53.2 16.4604531,54.544 C15.7884531,55.888 15.5644531,57.008 15.5644531,57.904 C15.5644531,60.144 15.7884531,61.488 16.6844531,62.384 C17.5804531,63.28 18.4764531,63.728 19.8204531,63.728 L23.8524531,63.728 C26.0924531,63.728 28.5564531,63.728 31.4684531,63.504 L59.9164531,63.504 C63.5004531,63.728 66.8604531,63.728 69.9964531,63.728 L74.9244531,63.728 C76.4924531,63.728 78.0604531,63.28 79.4044531,62.16 C80.5244531,61.264 81.1964531,59.696 81.1964531,57.456 Z"/></svg>