<svg xmlns="http://www.w3.org/2000/svg" width="103" height="203" viewBox="0 0 103 203"><path fill="#131313" d="M1501.12725,183.420201 C1500.37855,181.473586 1499.70472,179.452102 1499.10577,177.355748 C1498.50681,175.259394 1498.13246,173.08817 1497.98272,170.842076 C1497.83298,170.692336 1497.75811,170.542597 1497.75811,170.392857 C1497.75811,170.243118 1497.75811,170.093378 1497.75811,169.943638 C1497.60837,168.296503 1497.5335,166.649368 1497.5335,165.002232 C1497.5335,159.611607 1498.35707,154.071243 1500.0042,148.381138 C1502.2503,141.193638 1505.69431,135.129185 1510.33623,130.187779 C1514.82842,125.396112 1520.06931,121.802362 1526.05889,119.406529 C1532.04847,117.160435 1537.96319,116.486607 1543.80303,117.385045 C1547.99574,118.133743 1551.73923,119.631138 1555.0335,121.877232 C1558.17803,124.273065 1560.57386,127.267857 1562.221,130.861607 C1564.31735,135.054315 1565.21579,139.471633 1564.91631,144.11356 C1564.61683,148.605748 1563.19431,152.798456 1560.64873,156.691685 C1558.40264,160.285435 1553.98532,164.328404 1547.39678,168.820592 C1540.80824,173.312779 1530.40134,176.157831 1516.17608,177.355748 C1517.67347,180.350539 1519.62009,182.671503 1522.01592,184.318638 C1524.41176,185.816034 1527.40655,186.564732 1531.0003,186.564732 C1536.54066,186.564732 1541.33233,185.816034 1545.3753,184.318638 C1549.41827,182.821243 1553.68584,179.452102 1558.17803,174.211217 C1559.67543,172.564081 1561.54717,171.665644 1563.79327,171.515904 C1566.03936,171.366164 1567.98597,172.039993 1569.63311,173.537388 C1571.42998,175.034784 1572.40329,176.906529 1572.55303,179.152623 C1572.70277,181.398717 1572.02894,183.345331 1570.53155,184.992467 C1564.09274,192.329706 1557.72881,197.121373 1551.43975,199.367467 C1545.00095,201.61356 1538.1878,202.736607 1531.0003,202.736607 C1524.11228,202.736607 1518.12269,201.089472 1513.03155,197.795201 C1507.79066,194.35119 1503.82256,189.559524 1501.12725,183.420201 Z M1521.84405,138.861328 C1519.59795,141.406901 1517.72621,144.401693 1516.22881,147.845703 C1514.88116,151.439453 1513.98272,155.108073 1513.5335,158.851563 C1521.76918,158.252604 1528.73207,156.830078 1534.42217,154.583984 C1540.11228,152.337891 1544.15524,149.343099 1546.55108,145.599609 C1547.59926,143.952474 1548.19821,142.305339 1548.34795,140.658203 C1548.34795,138.861328 1547.9736,137.064453 1547.22491,135.267578 C1546.62595,134.219401 1545.80238,133.320964 1544.7542,132.572266 C1543.70603,131.973307 1542.43324,131.524089 1540.93584,131.224609 C1540.63636,131.224609 1540.26202,131.14974 1539.8128,131 C1539.51332,131 1539.13897,131 1538.68975,131 C1536.14418,131 1533.37399,131.598958 1530.3792,132.796875 C1527.23467,134.144531 1524.38962,136.166016 1521.84405,138.861328 Z M1568.19645,95.221 C1568.19645,93.205 1567.30045,91.637 1565.95645,90.517 C1564.16445,89.621 1561.02845,89.173 1556.54845,89.173 L1535.49245,89.173 L1519.14045,89.621 L1506.14845,89.621 C1504.80445,90.069 1503.90845,90.965 1503.46045,92.309 C1502.78845,93.653 1502.56445,94.773 1502.56445,95.669 C1502.56445,97.909 1502.78845,99.253 1503.68445,100.149 C1504.58045,101.045 1505.47645,101.493 1506.82045,101.493 L1510.85245,101.493 C1513.09245,101.493 1515.55645,101.493 1518.46845,101.269 L1546.91645,101.269 C1550.50045,101.493 1553.86045,101.493 1556.99645,101.493 L1561.92445,101.493 C1563.49245,101.493 1565.06045,101.045 1566.40445,99.925 C1567.52445,99.029 1568.19645,97.461 1568.19645,95.221 Z" transform="translate(-1484)"/></svg>