<svg xmlns="http://www.w3.org/2000/svg" width="103" height="243" viewBox="0 0 103 243"><path fill="#131313" d="M17.12725,146.420201 C16.3785521,144.473586 15.704724,142.452102 15.1057656,140.355748 C14.5068073,138.259394 14.1324583,136.08817 13.9827187,133.842076 C13.8329792,133.692336 13.7581094,133.542597 13.7581094,133.392857 C13.7581094,133.243118 13.7581094,133.093378 13.7581094,132.943638 C13.6083698,131.296503 13.5335,129.649368 13.5335,128.002232 C13.5335,122.611607 14.3570677,117.071243 16.0042031,111.381138 C18.2502969,104.193638 21.6943073,98.1291853 26.3362344,93.187779 C30.8284219,88.3961124 36.0693073,84.8023624 42.0588906,82.406529 C48.048474,80.1604353 53.9631875,79.4866071 59.8030312,80.3850446 C63.9957396,81.1337426 67.7392292,82.6311384 71.0335,84.8772321 C74.1780312,87.2730655 76.5738646,90.2678571 78.221,93.8616071 C80.3173542,98.0543155 81.2157917,102.471633 80.9163125,107.11356 C80.6168333,111.605748 79.1943073,115.798456 76.6487344,119.691685 C74.4026406,123.285435 69.9853229,127.328404 63.3967812,131.820592 C56.8082396,136.312779 46.4013385,139.157831 32.1760781,140.355748 C33.673474,143.350539 35.6200885,145.671503 38.0159219,147.318638 C40.4117552,148.816034 43.4065469,149.564732 47.0002969,149.564732 C52.5406615,149.564732 57.3323281,148.816034 61.3752969,147.318638 C65.4182656,145.821243 69.6858437,142.452102 74.1780312,137.211217 C75.6754271,135.564081 77.5471719,134.665644 79.7932656,134.515904 C82.0393594,134.366164 83.985974,135.039993 85.6331094,136.537388 C87.4299844,138.034784 88.4032917,139.906529 88.5530312,142.152623 C88.7027708,144.398717 88.0289427,146.345331 86.5315469,147.992467 C80.0927448,155.329706 73.7288125,160.121373 67.43975,162.367467 C61.0009479,164.61356 54.1877969,165.736607 47.0002969,165.736607 C40.112276,165.736607 34.1226927,164.089472 29.0315469,160.795201 C23.7906615,157.35119 19.8225625,152.559524 17.12725,146.420201 Z M37.8440469,101.861328 C35.5979531,104.406901 33.7262083,107.401693 32.2288125,110.845703 C30.8811562,114.439453 29.9827187,118.108073 29.5335,121.851562 C37.7691771,121.252604 44.7320677,119.830078 50.4221719,117.583984 C56.112276,115.337891 60.1552448,112.343099 62.5510781,108.599609 C63.5992552,106.952474 64.1982135,105.305339 64.3479531,103.658203 C64.3479531,101.861328 63.9736042,100.064453 63.2249062,98.2675781 C62.6259479,97.219401 61.8023802,96.3209635 60.7542031,95.5722656 C59.706026,94.9733073 58.4332396,94.5240885 56.9358437,94.2246094 C56.6363646,94.2246094 56.2620156,94.1497396 55.8127969,94 C55.5133177,94 55.1389687,94 54.68975,94 C52.1441771,94 49.3739948,94.5989583 46.3792031,95.796875 C43.2346719,97.1445313 40.3896198,99.1660156 37.8440469,101.861328 Z M84.1964531,58.221 C84.1964531,56.205 83.3004531,54.637 81.9564531,53.517 C80.1644531,52.621 77.0284531,52.173 72.5484531,52.173 L51.4924531,52.173 L35.1404531,52.621 L22.1484531,52.621 C20.8044531,53.069 19.9084531,53.965 19.4604531,55.309 C18.7884531,56.653 18.5644531,57.773 18.5644531,58.669 C18.5644531,60.909 18.7884531,62.253 19.6844531,63.149 C20.5804531,64.045 21.4764531,64.493 22.8204531,64.493 L26.8524531,64.493 C29.0924531,64.493 31.5564531,64.493 34.4684531,64.269 L62.9164531,64.269 C66.5004531,64.493 69.8604531,64.493 72.9964531,64.493 L77.9244531,64.493 C79.4924531,64.493 81.0604531,64.045 82.4044531,62.925 C83.5244531,62.029 84.1964531,60.461 84.1964531,58.221 Z"/></svg>