<svg xmlns="http://www.w3.org/2000/svg" width="103" height="203" viewBox="0 0 103 203"><path fill="#131313" d="M1501.12725,139.158201 C1500.37855,137.211586 1499.70472,135.190102 1499.10577,133.093748 C1498.50681,130.997394 1498.13246,128.82617 1497.98272,126.580076 C1497.83298,126.430336 1497.75811,126.280597 1497.75811,126.130857 C1497.75811,125.981118 1497.75811,125.831378 1497.75811,125.681638 C1497.60837,124.034503 1497.5335,122.387368 1497.5335,120.740232 C1497.5335,115.349607 1498.35707,109.809243 1500.0042,104.119138 C1502.2503,96.9316384 1505.69431,90.8671853 1510.33623,85.925779 C1514.82842,81.1341124 1520.06931,77.5403624 1526.05889,75.144529 C1532.04847,72.8984353 1537.96319,72.2246071 1543.80303,73.1230446 C1547.99574,73.8717426 1551.73923,75.3691384 1555.0335,77.6152321 C1558.17803,80.0110655 1560.57386,83.0058571 1562.221,86.5996071 C1564.31735,90.7923155 1565.21579,95.2096332 1564.91631,99.8515603 C1564.61683,104.343748 1563.19431,108.536456 1560.64873,112.429685 C1558.40264,116.023435 1553.98532,120.066404 1547.39678,124.558592 C1540.80824,129.050779 1530.40134,131.895831 1516.17608,133.093748 C1517.67347,136.088539 1519.62009,138.409503 1522.01592,140.056638 C1524.41176,141.554034 1527.40655,142.302732 1531.0003,142.302732 C1536.54066,142.302732 1541.33233,141.554034 1545.3753,140.056638 C1549.41827,138.559243 1553.68584,135.190102 1558.17803,129.949217 C1559.67543,128.302081 1561.54717,127.403644 1563.79327,127.253904 C1566.03936,127.104164 1567.98597,127.777993 1569.63311,129.275388 C1571.42998,130.772784 1572.40329,132.644529 1572.55303,134.890623 C1572.70277,137.136717 1572.02894,139.083331 1570.53155,140.730467 C1564.09274,148.067706 1557.72881,152.859373 1551.43975,155.105467 C1545.00095,157.35156 1538.1878,158.474607 1531.0003,158.474607 C1524.11228,158.474607 1518.12269,156.827472 1513.03155,153.533201 C1507.79066,150.08919 1503.82256,145.297524 1501.12725,139.158201 Z M1521.84405,94.5993281 C1519.59795,97.144901 1517.72621,100.139693 1516.22881,103.583703 C1514.88116,107.177453 1513.98272,110.846073 1513.5335,114.589562 C1521.76918,113.990604 1528.73207,112.568078 1534.42217,110.321984 C1540.11228,108.075891 1544.15524,105.081099 1546.55108,101.337609 C1547.59926,99.690474 1548.19821,98.0433385 1548.34795,96.3962031 C1548.34795,94.5993281 1547.9736,92.8024531 1547.22491,91.0055781 C1546.62595,89.957401 1545.80238,89.0589635 1544.7542,88.3102656 C1543.70603,87.7113073 1542.43324,87.2620885 1540.93584,86.9626094 C1540.63636,86.9626094 1540.26202,86.8877396 1539.8128,86.738 C1539.51332,86.738 1539.13897,86.738 1538.68975,86.738 C1536.14418,86.738 1533.37399,87.3369583 1530.3792,88.534875 C1527.23467,89.8825313 1524.38962,91.9040156 1521.84405,94.5993281 Z M1568.19645,50.959 C1568.19645,48.943 1567.30045,47.375 1565.95645,46.255 C1564.16445,45.359 1561.02845,44.911 1556.54845,44.911 L1535.49245,44.911 L1519.14045,45.359 L1506.14845,45.359 C1504.80445,45.807 1503.90845,46.703 1503.46045,48.047 C1502.78845,49.391 1502.56445,50.511 1502.56445,51.407 C1502.56445,53.647 1502.78845,54.991 1503.68445,55.887 C1504.58045,56.783 1505.47645,57.231 1506.82045,57.231 L1510.85245,57.231 C1513.09245,57.231 1515.55645,57.231 1518.46845,57.007 L1546.91645,57.007 C1550.50045,57.231 1553.86045,57.231 1556.99645,57.231 L1561.92445,57.231 C1563.49245,57.231 1565.06045,56.783 1566.40445,55.663 C1567.52445,54.767 1568.19645,53.199 1568.19645,50.959 Z" transform="translate(-1484 -16.738)"/></svg>