<svg xmlns="http://www.w3.org/2000/svg" width="103" height="203" viewBox="0 0 103 203"><path fill="#131313" d="M1866.80303,73.1230446 C1870.99574,73.8717426 1874.73923,75.3691384 1878.0335,77.6152321 C1881.17803,80.0110655 1883.57386,83.0058571 1885.221,86.5996071 C1887.31735,90.7923155 1888.21579,95.2096332 1887.91631,99.8515603 C1887.61683,104.343748 1886.19431,108.536456 1883.64873,112.429685 C1881.40264,116.023435 1876.98532,120.066404 1870.39678,124.558592 C1863.80824,129.050779 1853.40134,131.895831 1839.17608,133.093748 C1840.67347,136.088539 1842.62009,138.409503 1845.01592,140.056638 C1847.41176,141.554034 1850.40655,142.302732 1854.0003,142.302732 C1859.54066,142.302732 1864.33233,141.554034 1868.3753,140.056638 C1872.41827,138.559243 1876.68584,135.190102 1881.17803,129.949217 C1882.67543,128.302081 1884.54717,127.403644 1886.79327,127.253904 C1889.03936,127.104164 1890.98597,127.777993 1892.63311,129.275388 C1894.42998,130.772784 1895.40329,132.644529 1895.55303,134.890623 C1895.70277,137.136717 1895.02894,139.083331 1893.53155,140.730467 C1887.09274,148.067706 1880.72881,152.859373 1874.43975,155.105467 C1868.00095,157.35156 1861.1878,158.474607 1854.0003,158.474607 C1847.11228,158.474607 1841.12269,156.827472 1836.03155,153.533201 C1830.79066,150.08919 1826.82256,145.297524 1824.12725,139.158201 C1823.37855,137.211586 1822.70472,135.190102 1822.10577,133.093748 C1821.50681,130.997394 1821.13246,128.82617 1820.98272,126.580076 C1820.83298,126.430336 1820.75811,126.280597 1820.75811,126.130857 L1820.75811,125.681638 C1820.60837,124.034503 1820.5335,122.387368 1820.5335,120.740232 C1820.5335,115.349607 1821.35707,109.809243 1823.0042,104.119138 C1825.2503,96.9316384 1828.69431,90.8671853 1833.33623,85.925779 C1837.82842,81.1341124 1843.06931,77.5403624 1849.05889,75.144529 C1855.04847,72.8984353 1860.96319,72.2246071 1866.80303,73.1230446 Z M1864.8128,86.738 L1863.68975,86.738 C1861.14418,86.738 1858.37399,87.3369583 1855.3792,88.534875 C1852.23467,89.8825313 1849.38962,91.9040156 1846.84405,94.5993281 C1844.59795,97.144901 1842.72621,100.139693 1841.22881,103.583703 C1839.88116,107.177453 1838.98272,110.846073 1838.5335,114.589562 C1846.76918,113.990604 1853.73207,112.568078 1859.42217,110.321984 C1865.11228,108.075891 1869.15524,105.081099 1871.55108,101.337609 C1872.59926,99.690474 1873.19821,98.0433385 1873.34795,96.3962031 C1873.34795,94.5993281 1872.9736,92.8024531 1872.22491,91.0055781 C1871.62595,89.957401 1870.80238,89.0589635 1869.7542,88.3102656 C1868.70603,87.7113073 1867.43324,87.2620885 1865.93584,86.9626094 C1865.63636,86.9626094 1865.26202,86.8877396 1864.8128,86.738 Z M1883.1225,25 C1885.3625,25 1886.7065,25.896 1886.7065,27.464 C1886.7065,29.256 1885.3625,31.72 1883.1225,34.856 C1880.6585,37.992 1877.7465,41.128 1874.6105,44.04 C1871.2505,47.176 1868.1145,49.864 1864.9785,52.104 C1861.6185,54.344 1859.1545,55.464 1857.3625,55.464 C1855.5705,55.464 1852.8825,54.344 1849.7465,52.104 C1846.6105,49.864 1843.2505,47.176 1840.1145,44.04 C1836.7545,41.128 1833.8425,37.992 1831.6025,34.856 C1829.1385,31.72 1828.0185,29.256 1828.0185,27.464 C1828.0185,25.896 1829.1385,25 1831.8265,25 C1833.3945,25 1835.1865,25.448 1837.4265,26.344 C1839.4425,27.24 1841.6825,28.584 1844.1465,29.928 C1846.3865,31.496 1848.8505,33.064 1851.0905,34.632 C1853.1065,36.2 1855.1225,37.544 1857.3625,38.888 C1859.3785,37.544 1861.3945,36.2 1863.6345,34.632 C1865.8745,33.064 1868.1145,31.496 1870.5785,29.928 C1872.8185,28.584 1875.2825,27.24 1877.5225,26.344 C1879.5385,25.448 1881.3305,25 1883.1225,25 Z" transform="translate(-1806 -16.738)"/></svg>