<svg xmlns="http://www.w3.org/2000/svg" width="64" height="203" viewBox="0 0 64 203"><path fill="#131313" d="M2233.5335,150.228234 C2233.5335,134.805057 2233.5335,111.670292 2233.5335,80.8239375 C2233.5335,78.5778437 2234.35707,76.6312292 2236.0042,74.9840937 C2237.5016,73.4866979 2239.37334,72.738 2241.61944,72.738 C2243.86553,72.738 2245.81215,73.4866979 2247.45928,74.9840937 C2249.10642,76.6312292 2249.92998,78.5778437 2249.92998,80.8239375 C2249.92998,96.2471146 2249.92998,119.38188 2249.92998,150.228234 C2249.92998,152.474328 2249.10642,154.420943 2247.45928,156.068078 C2245.81215,157.565474 2243.86553,158.314172 2241.61944,158.314172 C2239.37334,158.314172 2237.5016,157.565474 2236.0042,156.068078 C2234.35707,154.420943 2233.5335,152.474328 2233.5335,150.228234 Z M2274.19645,50.959 C2274.19645,48.943 2273.30045,47.375 2271.95645,46.255 C2270.16445,45.359 2267.02845,44.911 2262.54845,44.911 L2241.49245,44.911 L2225.14045,45.359 L2212.14845,45.359 C2210.80445,45.807 2209.90845,46.703 2209.46045,48.047 C2208.78845,49.391 2208.56445,50.511 2208.56445,51.407 C2208.56445,53.647 2208.78845,54.991 2209.68445,55.887 C2210.58045,56.783 2211.47645,57.231 2212.82045,57.231 L2216.85245,57.231 C2219.09245,57.231 2221.55645,57.231 2224.46845,57.007 L2252.91645,57.007 C2256.50045,57.231 2259.86045,57.231 2262.99645,57.231 L2267.92445,57.231 C2269.49245,57.231 2271.06045,56.783 2272.40445,55.663 C2273.52445,54.767 2274.19645,53.199 2274.19645,50.959 Z" transform="translate(-2209.5 -16.738)"/></svg>