<svg xmlns="http://www.w3.org/2000/svg" width="103" height="243" viewBox="0 0 103 243"><path fill="#131313" d="M11,122.023438 C11,108.846354 14.7434896,98.2148437 22.2304688,90.1289062 C29.7174479,82.0429688 39.6002604,78 51.8789063,78 C64.0078125,78 73.8157552,82.0429688 81.3027344,90.1289062 C88.7897135,98.2148437 92.5332031,108.846354 92.5332031,122.023438 C92.5332031,134.901042 88.7148438,145.457682 81.078125,153.693359 C73.5911458,161.779297 63.8580729,165.822266 51.8789063,165.822266 C39.8997396,165.822266 30.0917969,161.779297 22.4550781,153.693359 C14.8183594,145.457682 11,134.901042 11,122.023438 Z M27,121.851563 C27,128.440104 28.796875,134.729167 32.390625,140.71875 C35.984375,146.558594 42.3483073,149.478516 51.4824219,149.478516 C60.4667969,149.478516 66.7558594,146.558594 70.3496094,140.71875 C73.9433594,134.729167 75.7402344,128.440104 75.7402344,121.851563 C75.7402344,113.166667 73.6438802,106.353516 69.4511719,101.412109 C65.108724,96.4707031 59.1191406,94 51.4824219,94 C43.6959635,94 37.7063802,96.4707031 33.5136719,101.412109 C29.171224,106.353516 27,113.166667 27,121.851563 Z M84.1964531,57.456 C84.1964531,55.44 83.3004531,53.872 81.9564531,52.752 C80.1644531,51.856 77.0284531,51.408 72.5484531,51.408 L51.4924531,51.408 L35.1404531,51.856 L22.1484531,51.856 C20.8044531,52.304 19.9084531,53.2 19.4604531,54.544 C18.7884531,55.888 18.5644531,57.008 18.5644531,57.904 C18.5644531,60.144 18.7884531,61.488 19.6844531,62.384 C20.5804531,63.28 21.4764531,63.728 22.8204531,63.728 L26.8524531,63.728 C29.0924531,63.728 31.5564531,63.728 34.4684531,63.504 L62.9164531,63.504 C66.5004531,63.728 69.8604531,63.728 72.9964531,63.728 L77.9244531,63.728 C79.4924531,63.728 81.0604531,63.28 82.4044531,62.16 C83.5244531,61.264 84.1964531,59.696 84.1964531,57.456 Z"/></svg>