<svg xmlns="http://www.w3.org/2000/svg" width="103" height="203" viewBox="0 0 103 203"><path fill="#131313" d="M789,114.761438 C789,101.584354 792.74349,90.9528437 800.230469,82.8669062 C807.717448,74.7809687 817.60026,70.738 829.878906,70.738 C842.007812,70.738 851.815755,74.7809687 859.302734,82.8669062 C866.789714,90.9528437 870.533203,101.584354 870.533203,114.761438 C870.533203,127.639042 866.714844,138.195682 859.078125,146.431359 C851.591146,154.517297 841.858073,158.560266 829.878906,158.560266 C817.89974,158.560266 808.091797,154.517297 800.455078,146.431359 C792.818359,138.195682 789,127.639042 789,114.761438 Z M805,114.589563 C805,121.178104 806.796875,127.467167 810.390625,133.45675 C813.984375,139.296594 820.348307,142.216516 829.482422,142.216516 C838.466797,142.216516 844.755859,139.296594 848.349609,133.45675 C851.943359,127.467167 853.740234,121.178104 853.740234,114.589563 C853.740234,105.904667 851.64388,99.0915156 847.451172,94.1501094 C843.108724,89.2087031 837.119141,86.738 829.482422,86.738 C821.695964,86.738 815.70638,89.2087031 811.513672,94.1501094 C807.171224,99.0915156 805,105.904667 805,114.589563 Z M862.196453,50.194 C862.196453,48.178 861.300453,46.61 859.956453,45.49 C858.164453,44.594 855.028453,44.146 850.548453,44.146 L829.492453,44.146 L813.140453,44.594 L800.148453,44.594 C798.804453,45.042 797.908453,45.938 797.460453,47.282 C796.788453,48.626 796.564453,49.746 796.564453,50.642 C796.564453,52.882 796.788453,54.226 797.684453,55.122 C798.580453,56.018 799.476453,56.466 800.820453,56.466 L804.852453,56.466 C807.092453,56.466 809.556453,56.466 812.468453,56.242 L840.916453,56.242 C844.500453,56.466 847.860453,56.466 850.996453,56.466 L855.924453,56.466 C857.492453,56.466 859.060453,56.018 860.404453,54.898 C861.524453,54.002 862.196453,52.434 862.196453,50.194 Z" transform="translate(-778 -16.738)"/></svg>