<svg xmlns="http://www.w3.org/2000/svg" width="103" height="203" viewBox="0 0 103 203"><path fill="#131313" d="M3755.70898,72.738 C3757.95508,72.738 3759.90169,73.4866979 3761.54883,74.9840937 C3763.19596,76.6312292 3764.01953,78.5778437 3764.01953,80.8239375 C3764.01953,85.1663854 3764.01953,91.6800573 3764.01953,100.364953 C3764.01953,103.958703 3764.01953,109.274458 3764.01953,116.312219 C3764.01953,123.799198 3764.01953,135.104536 3764.01953,150.228234 C3764.01953,152.474328 3763.19596,154.420943 3761.54883,156.068078 C3759.90169,157.565474 3757.95508,158.314172 3755.70898,158.314172 C3753.46289,158.314172 3751.59115,157.565474 3750.09375,156.068078 C3748.44661,154.420943 3747.62305,152.474328 3747.62305,150.228234 C3747.62305,149.928755 3747.62305,149.404667 3747.62305,148.655969 C3743.87956,151.65076 3739.68685,153.971724 3735.04492,155.618859 C3730.25326,157.415734 3725.08724,158.314172 3719.54688,158.314172 C3714.15625,158.314172 3709.66406,157.565474 3706.07031,156.068078 C3702.47656,154.570682 3699.55664,152.624068 3697.31055,150.228234 C3693.11784,145.736047 3690.72201,140.570031 3690.12305,134.730188 C3689.37435,128.890344 3689,124.248417 3689,120.804406 C3689,111.969771 3689,98.6429479 3689,80.8239375 C3689,78.5778437 3689.82357,76.6312292 3691.4707,74.9840937 C3692.9681,73.4866979 3694.83984,72.738 3697.08594,72.738 C3699.33203,72.738 3701.27865,73.4866979 3702.92578,74.9840937 C3704.42318,76.6312292 3705.17188,78.5778437 3705.17188,80.8239375 C3705.17188,89.6585729 3705.17188,102.985396 3705.17188,120.804406 C3705.17188,129.189823 3706.14518,134.805057 3708.0918,137.650109 C3710.18815,140.644901 3714.00651,142.142297 3719.54688,142.142297 C3726.13542,142.142297 3732.49935,139.746464 3738.63867,134.954797 C3744.62826,130.16313 3747.62305,123.948938 3747.62305,116.312219 C3747.62305,112.718469 3747.62305,107.402714 3747.62305,100.364953 C3747.62305,96.0225052 3747.62305,89.5088333 3747.62305,80.8239375 C3747.62305,78.5778437 3748.44661,76.6312292 3750.09375,74.9840937 C3751.59115,73.4866979 3753.46289,72.738 3755.70898,72.738 Z M3759.19645,50.959 C3759.19645,48.943 3758.30045,47.375 3756.95645,46.255 C3755.16445,45.359 3752.02845,44.911 3747.54845,44.911 L3726.49245,44.911 L3710.14045,45.359 L3697.14845,45.359 C3695.80445,45.807 3694.90845,46.703 3694.46045,48.047 C3693.78845,49.391 3693.56445,50.511 3693.56445,51.407 C3693.56445,53.647 3693.78845,54.991 3694.68445,55.887 C3695.58045,56.783 3696.47645,57.231 3697.82045,57.231 L3701.85245,57.231 C3704.09245,57.231 3706.55645,57.231 3709.46845,57.007 L3737.91645,57.007 C3741.50045,57.231 3744.86045,57.231 3747.99645,57.231 L3752.92445,57.231 C3754.49245,57.231 3756.06045,56.783 3757.40445,55.663 C3758.52445,54.767 3759.19645,53.199 3759.19645,50.959 Z" transform="translate(-3675 -16.738)"/></svg>