<svg xmlns="http://www.w3.org/2000/svg" width="103" height="203" viewBox="0 0 103 203"><path fill="#131313" d="M3755.70898,117 C3757.95508,117 3759.90169,117.748698 3761.54883,119.246094 C3763.19596,120.893229 3764.01953,122.839844 3764.01953,125.085938 C3764.01953,129.428385 3764.01953,135.942057 3764.01953,144.626953 C3764.01953,148.220703 3764.01953,153.536458 3764.01953,160.574219 C3764.01953,168.061198 3764.01953,179.366536 3764.01953,194.490234 C3764.01953,196.736328 3763.19596,198.682943 3761.54883,200.330078 C3759.90169,201.827474 3757.95508,202.576172 3755.70898,202.576172 C3753.46289,202.576172 3751.59115,201.827474 3750.09375,200.330078 C3748.44661,198.682943 3747.62305,196.736328 3747.62305,194.490234 C3747.62305,194.190755 3747.62305,193.666667 3747.62305,192.917969 C3743.87956,195.91276 3739.68685,198.233724 3735.04492,199.880859 C3730.25326,201.677734 3725.08724,202.576172 3719.54688,202.576172 C3714.15625,202.576172 3709.66406,201.827474 3706.07031,200.330078 C3702.47656,198.832682 3699.55664,196.886068 3697.31055,194.490234 C3693.11784,189.998047 3690.72201,184.832031 3690.12305,178.992188 C3689.37435,173.152344 3689,168.510417 3689,165.066406 C3689,156.231771 3689,142.904948 3689,125.085938 C3689,122.839844 3689.82357,120.893229 3691.4707,119.246094 C3692.9681,117.748698 3694.83984,117 3697.08594,117 C3699.33203,117 3701.27865,117.748698 3702.92578,119.246094 C3704.42318,120.893229 3705.17188,122.839844 3705.17188,125.085938 C3705.17188,133.920573 3705.17188,147.247396 3705.17188,165.066406 C3705.17188,173.451823 3706.14518,179.067057 3708.0918,181.912109 C3710.18815,184.906901 3714.00651,186.404297 3719.54688,186.404297 C3726.13542,186.404297 3732.49935,184.008464 3738.63867,179.216797 C3744.62826,174.42513 3747.62305,168.210938 3747.62305,160.574219 C3747.62305,156.980469 3747.62305,151.664714 3747.62305,144.626953 C3747.62305,140.284505 3747.62305,133.770833 3747.62305,125.085938 C3747.62305,122.839844 3748.44661,120.893229 3750.09375,119.246094 C3751.59115,117.748698 3753.46289,117 3755.70898,117 Z M3759.19645,95.221 C3759.19645,93.205 3758.30045,91.637 3756.95645,90.517 C3755.16445,89.621 3752.02845,89.173 3747.54845,89.173 L3726.49245,89.173 L3710.14045,89.621 L3697.14845,89.621 C3695.80445,90.069 3694.90845,90.965 3694.46045,92.309 C3693.78845,93.653 3693.56445,94.773 3693.56445,95.669 C3693.56445,97.909 3693.78845,99.253 3694.68445,100.149 C3695.58045,101.045 3696.47645,101.493 3697.82045,101.493 L3701.85245,101.493 C3704.09245,101.493 3706.55645,101.493 3709.46845,101.269 L3737.91645,101.269 C3741.50045,101.493 3744.86045,101.493 3747.99645,101.493 L3752.92445,101.493 C3754.49245,101.493 3756.06045,101.045 3757.40445,99.925 C3758.52445,99.029 3759.19645,97.461 3759.19645,95.221 Z" transform="translate(-3675)"/></svg>