<svg xmlns="http://www.w3.org/2000/svg" width="97" height="203" viewBox="0 0 97 203"><path fill="#131313" d="M435.727484,117.406909 C438.123318,117.406909 440.069932,118.155607 441.567328,119.653003 C443.214464,121.300138 444.038031,123.246753 444.038031,125.492847 C444.038031,140.916024 444.038031,164.050789 444.038031,194.897144 C444.038031,197.143237 443.214464,199.089852 441.567328,200.736987 C439.920193,202.234383 437.973578,202.983081 435.727484,202.983081 C433.78087,202.983081 432.058865,202.384123 430.561469,201.186206 C429.064073,199.988289 428.165635,198.416024 427.866156,196.469409 C424.571885,198.416024 420.603786,199.988289 415.961859,201.186206 C411.319932,202.384123 405.929307,202.983081 399.789984,202.983081 C393.051703,202.983081 387.286729,201.410816 382.495063,198.266284 C377.553656,195.121753 373.959906,190.629566 371.713813,184.789722 C369.916938,180.297534 369.0185,175.505868 369.0185,170.414722 C369.0185,165.922534 369.617458,161.130868 370.815375,156.039722 C373.810167,145.108732 378.976182,136.199227 386.313422,129.311206 C392.303005,123.621102 398.891547,119.952482 406.079047,118.305347 C413.416286,116.508472 420.304307,117.03256 426.743109,119.877612 C427.192328,120.027352 427.566677,120.177092 427.866156,120.326831 C428.315375,120.62631 428.689724,120.85092 428.989203,121.000659 C429.737901,119.952482 430.711208,119.054045 431.909125,118.305347 C433.107042,117.706388 434.379828,117.406909 435.727484,117.406909 Z M399.599609,186.082682 C409.632161,186.082682 416.595052,184.435547 420.488281,181.141276 C424.38151,177.847005 426.702474,175.451172 427.451172,173.953776 C427.451172,167.814453 427.451172,158.605469 427.451172,146.326823 C427.451172,143.332031 426.852214,140.786458 425.654297,138.690104 C424.306641,136.59375 422.434896,135.096354 420.039062,134.197917 C417.34375,133 413.974609,132.700521 409.931641,133.299479 C405.888672,134.048177 401.695964,136.44401 397.353516,140.486979 C392.26237,145.128906 388.66862,151.268229 386.572266,158.904948 C384.475911,166.391927 384.475911,172.830729 386.572266,178.221354 C387.620443,180.916667 389.192708,182.863281 391.289062,184.061198 C393.385417,185.408854 396.155599,186.082682 399.599609,186.082682 Z M435.7065,71.726 C435.7065,70.158 434.3625,69.262 432.1225,69.262 C430.3305,69.262 428.5385,69.71 426.5225,70.606 C424.2825,71.502 421.8185,72.846 419.5785,74.19 C417.1145,75.758 414.8745,77.326 412.6345,78.894 C410.3945,80.462 408.3785,81.806 406.3625,83.15 C404.1225,81.806 402.1065,80.462 400.0905,78.894 C397.8505,77.326 395.3865,75.758 393.1465,74.19 C390.6825,72.846 388.4425,71.502 386.4265,70.606 C384.1865,69.71 382.3945,69.262 380.8265,69.262 C378.1385,69.262 377.0185,70.158 377.0185,71.726 C377.0185,73.518 378.1385,75.982 380.6025,79.118 C382.8425,82.254 385.7545,85.39 389.1145,88.302 C392.2505,91.438 395.6105,94.126 398.7465,96.366 C401.8825,98.606 404.5705,99.726 406.3625,99.726 C408.1545,99.726 410.6185,98.606 413.9785,96.366 C417.1145,94.126 420.2505,91.438 423.6105,88.302 C426.7465,85.39 429.6585,82.254 432.1225,79.118 C434.3625,75.982 435.7065,73.518 435.7065,71.726 Z" transform="translate(-358)"/></svg>