<svg xmlns="http://www.w3.org/2000/svg" width="64" height="203" viewBox="0 0 64 203"><path fill="#131313" d="M2555.5335,150.228234 C2555.5335,134.805057 2555.5335,111.670292 2555.5335,80.8239375 C2555.5335,78.5778437 2556.35707,76.6312292 2558.0042,74.9840937 C2559.5016,73.4866979 2561.37334,72.738 2563.61944,72.738 C2565.86553,72.738 2567.81215,73.4866979 2569.45928,74.9840937 C2571.10642,76.6312292 2571.92998,78.5778437 2571.92998,80.8239375 C2571.92998,96.2471146 2571.92998,119.38188 2571.92998,150.228234 C2571.92998,152.474328 2571.10642,154.420943 2569.45928,156.068078 C2567.81215,157.565474 2565.86553,158.314172 2563.61944,158.314172 C2561.37334,158.314172 2559.5016,157.565474 2558.0042,156.068078 C2556.35707,154.420943 2555.5335,152.474328 2555.5335,150.228234 Z M2592.7065,27.464 C2592.7065,25.896 2591.3625,25 2589.1225,25 C2587.3305,25 2585.5385,25.448 2583.5225,26.344 C2581.2825,27.24 2578.8185,28.584 2576.5785,29.928 C2574.1145,31.496 2571.8745,33.064 2569.6345,34.632 C2567.3945,36.2 2565.3785,37.544 2563.3625,38.888 C2561.1225,37.544 2559.1065,36.2 2557.0905,34.632 C2554.8505,33.064 2552.3865,31.496 2550.1465,29.928 C2547.6825,28.584 2545.4425,27.24 2543.4265,26.344 C2541.1865,25.448 2539.3945,25 2537.8265,25 C2535.1385,25 2534.0185,25.896 2534.0185,27.464 C2534.0185,29.256 2535.1385,31.72 2537.6025,34.856 C2539.8425,37.992 2542.7545,41.128 2546.1145,44.04 C2549.2505,47.176 2552.6105,49.864 2555.7465,52.104 C2558.8825,54.344 2561.5705,55.464 2563.3625,55.464 C2565.1545,55.464 2567.6185,54.344 2570.9785,52.104 C2574.1145,49.864 2577.2505,47.176 2580.6105,44.04 C2583.7465,41.128 2586.6585,37.992 2589.1225,34.856 C2591.3625,31.72 2592.7065,29.256 2592.7065,27.464 Z" transform="translate(-2531.5 -16.738)"/></svg>