<svg xmlns="http://www.w3.org/2000/svg" width="64" height="243" viewBox="0 0 64 243"><path fill="#131313" d="M24.0335,157.490234 C24.0335,142.067057 24.0335,118.932292 24.0335,88.0859375 C24.0335,85.8398438 24.8570677,83.8932292 26.5042031,82.2460938 C28.001599,80.7486979 29.8733437,80 32.1194375,80 C34.3655312,80 36.3121458,80.7486979 37.9592812,82.2460938 C39.6064167,83.8932292 40.4299844,85.8398438 40.4299844,88.0859375 C40.4299844,103.509115 40.4299844,126.64388 40.4299844,157.490234 C40.4299844,159.736328 39.6064167,161.682943 37.9592812,163.330078 C36.3121458,164.827474 34.3655312,165.576172 32.1194375,165.576172 C29.8733437,165.576172 28.001599,164.827474 26.5042031,163.330078 C24.8570677,161.682943 24.0335,159.736328 24.0335,157.490234 Z M61.2065,34.726 C61.2065,33.158 59.8625,32.262 57.6225,32.262 C55.8305,32.262 54.0385,32.71 52.0225,33.606 C49.7825,34.502 47.3185,35.846 45.0785,37.19 C42.6145,38.758 40.3745,40.326 38.1345,41.894 C35.8945,43.462 33.8785,44.806 31.8625,46.15 C29.6225,44.806 27.6065,43.462 25.5905,41.894 C23.3505,40.326 20.8865,38.758 18.6465,37.19 C16.1825,35.846 13.9425,34.502 11.9265,33.606 C9.6865,32.71 7.8945,32.262 6.3265,32.262 C3.6385,32.262 2.5185,33.158 2.5185,34.726 C2.5185,36.518 3.6385,38.982 6.1025,42.118 C8.3425,45.254 11.2545,48.39 14.6145,51.302 C17.7505,54.438 21.1105,57.126 24.2465,59.366 C27.3825,61.606 30.0705,62.726 31.8625,62.726 C33.6545,62.726 36.1185,61.606 39.4785,59.366 C42.6145,57.126 45.7505,54.438 49.1105,51.302 C52.2465,48.39 55.1585,45.254 57.6225,42.118 C59.8625,38.982 61.2065,36.518 61.2065,34.726 Z"/></svg>