<svg xmlns="http://www.w3.org/2000/svg" width="64" height="203" viewBox="0 0 64 203"><path fill="#131313" d="M2555.5335,194.490234 C2555.5335,179.067057 2555.5335,155.932292 2555.5335,125.085938 C2555.5335,122.839844 2556.35707,120.893229 2558.0042,119.246094 C2559.5016,117.748698 2561.37334,117 2563.61944,117 C2565.86553,117 2567.81215,117.748698 2569.45928,119.246094 C2571.10642,120.893229 2571.92998,122.839844 2571.92998,125.085938 C2571.92998,140.509115 2571.92998,163.64388 2571.92998,194.490234 C2571.92998,196.736328 2571.10642,198.682943 2569.45928,200.330078 C2567.81215,201.827474 2565.86553,202.576172 2563.61944,202.576172 C2561.37334,202.576172 2559.5016,201.827474 2558.0042,200.330078 C2556.35707,198.682943 2555.5335,196.736328 2555.5335,194.490234 Z M2592.7065,71.726 C2592.7065,70.158 2591.3625,69.262 2589.1225,69.262 C2587.3305,69.262 2585.5385,69.71 2583.5225,70.606 C2581.2825,71.502 2578.8185,72.846 2576.5785,74.19 C2574.1145,75.758 2571.8745,77.326 2569.6345,78.894 C2567.3945,80.462 2565.3785,81.806 2563.3625,83.15 C2561.1225,81.806 2559.1065,80.462 2557.0905,78.894 C2554.8505,77.326 2552.3865,75.758 2550.1465,74.19 C2547.6825,72.846 2545.4425,71.502 2543.4265,70.606 C2541.1865,69.71 2539.3945,69.262 2537.8265,69.262 C2535.1385,69.262 2534.0185,70.158 2534.0185,71.726 C2534.0185,73.518 2535.1385,75.982 2537.6025,79.118 C2539.8425,82.254 2542.7545,85.39 2546.1145,88.302 C2549.2505,91.438 2552.6105,94.126 2555.7465,96.366 C2558.8825,98.606 2561.5705,99.726 2563.3625,99.726 C2565.1545,99.726 2567.6185,98.606 2570.9785,96.366 C2574.1145,94.126 2577.2505,91.438 2580.6105,88.302 C2583.7465,85.39 2586.6585,82.254 2589.1225,79.118 C2591.3625,75.982 2592.7065,73.518 2592.7065,71.726 Z" transform="translate(-2531.5)"/></svg>