<svg xmlns="http://www.w3.org/2000/svg" width="103" height="243" viewBox="0 0 103 243"><path fill="#131313" d="M11,122.023438 C11,108.846354 14.7434896,98.2148437 22.2304688,90.1289062 C29.7174479,82.0429688 39.6002604,78 51.8789063,78 C64.0078125,78 73.8157552,82.0429688 81.3027344,90.1289062 C88.7897135,98.2148437 92.5332031,108.846354 92.5332031,122.023438 C92.5332031,134.901042 88.7148438,145.457682 81.078125,153.693359 C73.5911458,161.779297 63.8580729,165.822266 51.8789063,165.822266 C39.8997396,165.822266 30.0917969,161.779297 22.4550781,153.693359 C14.8183594,145.457682 11,134.901042 11,122.023438 Z M27,121.851563 C27,128.440104 28.796875,134.729167 32.390625,140.71875 C35.984375,146.558594 42.3483073,149.478516 51.4824219,149.478516 C60.4667969,149.478516 66.7558594,146.558594 70.3496094,140.71875 C73.9433594,134.729167 75.7402344,128.440104 75.7402344,121.851563 C75.7402344,113.166667 73.6438802,106.353516 69.4511719,101.412109 C65.108724,96.4707031 59.1191406,94 51.4824219,94 C43.6959635,94 37.7063802,96.4707031 33.5136719,101.412109 C29.171224,106.353516 27,113.166667 27,121.851563 Z M80.7065,34.726 C80.7065,33.158 79.3625,32.262 77.1225,32.262 C75.3305,32.262 73.5385,32.71 71.5225,33.606 C69.2825,34.502 66.8185,35.846 64.5785,37.19 C62.1145,38.758 59.8745,40.326 57.6345,41.894 C55.3945,43.462 53.3785,44.806 51.3625,46.15 C49.1225,44.806 47.1065,43.462 45.0905,41.894 C42.8505,40.326 40.3865,38.758 38.1465,37.19 C35.6825,35.846 33.4425,34.502 31.4265,33.606 C29.1865,32.71 27.3945,32.262 25.8265,32.262 C23.1385,32.262 22.0185,33.158 22.0185,34.726 C22.0185,36.518 23.1385,38.982 25.6025,42.118 C27.8425,45.254 30.7545,48.39 34.1145,51.302 C37.2505,54.438 40.6105,57.126 43.7465,59.366 C46.8825,61.606 49.5705,62.726 51.3625,62.726 C53.1545,62.726 55.6185,61.606 58.9785,59.366 C62.1145,57.126 65.2505,54.438 68.6105,51.302 C71.7465,48.39 74.6585,45.254 77.1225,42.118 C79.3625,38.982 80.7065,36.518 80.7065,34.726 Z"/></svg>