<svg xmlns="http://www.w3.org/2000/svg" width="103" height="203" viewBox="0 0 103 203"><path fill="#131313" d="M4077.70898,72.738 C4079.95508,72.738 4081.90169,73.4866979 4083.54883,74.9840937 C4085.19596,76.6312292 4086.01953,78.5778437 4086.01953,80.8239375 C4086.01953,85.1663854 4086.01953,91.6800573 4086.01953,100.364953 C4086.01953,103.958703 4086.01953,109.274458 4086.01953,116.312219 C4086.01953,123.799198 4086.01953,135.104536 4086.01953,150.228234 C4086.01953,152.474328 4085.19596,154.420943 4083.54883,156.068078 C4081.90169,157.565474 4079.95508,158.314172 4077.70898,158.314172 C4075.46289,158.314172 4073.59115,157.565474 4072.09375,156.068078 C4070.44661,154.420943 4069.62305,152.474328 4069.62305,150.228234 C4069.62305,149.928755 4069.62305,149.404667 4069.62305,148.655969 C4065.87956,151.65076 4061.68685,153.971724 4057.04492,155.618859 C4052.25326,157.415734 4047.08724,158.314172 4041.54688,158.314172 C4036.15625,158.314172 4031.66406,157.565474 4028.07031,156.068078 C4024.47656,154.570682 4021.55664,152.624068 4019.31055,150.228234 C4015.11784,145.736047 4012.72201,140.570031 4012.12305,134.730188 C4011.37435,128.890344 4011,124.248417 4011,120.804406 C4011,111.969771 4011,98.6429479 4011,80.8239375 C4011,78.5778437 4011.82357,76.6312292 4013.4707,74.9840937 C4014.9681,73.4866979 4016.83984,72.738 4019.08594,72.738 C4021.33203,72.738 4023.27865,73.4866979 4024.92578,74.9840937 C4026.42318,76.6312292 4027.17188,78.5778437 4027.17188,80.8239375 C4027.17188,89.6585729 4027.17188,102.985396 4027.17188,120.804406 C4027.17188,129.189823 4028.14518,134.805057 4030.0918,137.650109 C4032.18815,140.644901 4036.00651,142.142297 4041.54688,142.142297 C4048.13542,142.142297 4054.49935,139.746464 4060.63867,134.954797 C4066.62826,130.16313 4069.62305,123.948938 4069.62305,116.312219 C4069.62305,112.718469 4069.62305,107.402714 4069.62305,100.364953 C4069.62305,96.0225052 4069.62305,89.5088333 4069.62305,80.8239375 C4069.62305,78.5778437 4070.44661,76.6312292 4072.09375,74.9840937 C4073.59115,73.4866979 4075.46289,72.738 4077.70898,72.738 Z M4077.7065,27.464 C4077.7065,25.896 4076.3625,25 4074.1225,25 C4072.3305,25 4070.5385,25.448 4068.5225,26.344 C4066.2825,27.24 4063.8185,28.584 4061.5785,29.928 C4059.1145,31.496 4056.8745,33.064 4054.6345,34.632 C4052.3945,36.2 4050.3785,37.544 4048.3625,38.888 C4046.1225,37.544 4044.1065,36.2 4042.0905,34.632 C4039.8505,33.064 4037.3865,31.496 4035.1465,29.928 C4032.6825,28.584 4030.4425,27.24 4028.4265,26.344 C4026.1865,25.448 4024.3945,25 4022.8265,25 C4020.1385,25 4019.0185,25.896 4019.0185,27.464 C4019.0185,29.256 4020.1385,31.72 4022.6025,34.856 C4024.8425,37.992 4027.7545,41.128 4031.1145,44.04 C4034.2505,47.176 4037.6105,49.864 4040.7465,52.104 C4043.8825,54.344 4046.5705,55.464 4048.3625,55.464 C4050.1545,55.464 4052.6185,54.344 4055.9785,52.104 C4059.1145,49.864 4062.2505,47.176 4065.6105,44.04 C4068.7465,41.128 4071.6585,37.992 4074.1225,34.856 C4076.3625,31.72 4077.7065,29.256 4077.7065,27.464 Z" transform="translate(-3997 -16.738)"/></svg>