<svg xmlns="http://www.w3.org/2000/svg" width="103" height="203" viewBox="0 0 103 203"><path fill="#131313" d="M3063.70898,117 C3065.95508,117 3067.90169,117.748698 3069.54883,119.246094 C3071.19596,120.893229 3072.01953,122.839844 3072.01953,125.085938 C3072.01953,129.428385 3072.01953,135.942057 3072.01953,144.626953 C3072.01953,148.220703 3072.01953,153.536458 3072.01953,160.574219 C3072.01953,168.061198 3072.01953,179.366536 3072.01953,194.490234 C3072.01953,196.736328 3071.19596,198.682943 3069.54883,200.330078 C3067.90169,201.827474 3065.95508,202.576172 3063.70898,202.576172 C3061.46289,202.576172 3059.59115,201.827474 3058.09375,200.330078 C3056.44661,198.682943 3055.62305,196.736328 3055.62305,194.490234 C3055.62305,194.190755 3055.62305,193.666667 3055.62305,192.917969 C3051.87956,195.91276 3047.68685,198.233724 3043.04492,199.880859 C3038.25326,201.677734 3033.08724,202.576172 3027.54688,202.576172 C3022.15625,202.576172 3017.66406,201.827474 3014.07031,200.330078 C3010.47656,198.832682 3007.55664,196.886068 3005.31055,194.490234 C3001.11784,189.998047 2998.72201,184.832031 2998.12305,178.992188 C2997.37435,173.152344 2997,168.510417 2997,165.066406 C2997,156.231771 2997,142.904948 2997,125.085938 C2997,122.839844 2997.82357,120.893229 2999.4707,119.246094 C3000.9681,117.748698 3002.83984,117 3005.08594,117 C3007.33203,117 3009.27865,117.748698 3010.92578,119.246094 C3012.42318,120.893229 3013.17188,122.839844 3013.17188,125.085938 C3013.17188,133.920573 3013.17188,147.247396 3013.17188,165.066406 C3013.17188,173.451823 3014.14518,179.067057 3016.0918,181.912109 C3018.18815,184.906901 3022.00651,186.404297 3027.54688,186.404297 C3034.13542,186.404297 3040.49935,184.008464 3046.63867,179.216797 C3052.62826,174.42513 3055.62305,168.210938 3055.62305,160.574219 C3055.62305,156.980469 3055.62305,151.664714 3055.62305,144.626953 C3055.62305,140.284505 3055.62305,133.770833 3055.62305,125.085938 C3055.62305,122.839844 3056.44661,120.893229 3058.09375,119.246094 C3059.59115,117.748698 3061.46289,117 3063.70898,117 Z M3008.08594,106.171875 C3005.98958,106.171875 3004.11784,105.348307 3002.4707,103.701172 C3000.82357,102.203776 3000,100.332031 3000,98.0859375 C3000,95.8398438 3000.82357,93.8932292 3002.4707,92.2460938 C3004.11784,90.7486979 3005.98958,90 3008.08594,90 C3010.33203,90 3012.27865,90.7486979 3013.92578,92.2460938 C3015.57292,93.8932292 3016.39648,95.8398438 3016.39648,98.0859375 C3016.39648,100.332031 3015.57292,102.203776 3013.92578,103.701172 C3012.27865,105.348307 3010.33203,106.171875 3008.08594,106.171875 Z M3061.08594,106.171875 C3058.98958,106.171875 3057.11784,105.348307 3055.4707,103.701172 C3053.82357,102.203776 3053,100.332031 3053,98.0859375 C3053,95.8398438 3053.82357,93.8932292 3055.4707,92.2460938 C3057.11784,90.7486979 3058.98958,90 3061.08594,90 C3063.33203,90 3065.27865,90.7486979 3066.92578,92.2460938 C3068.57292,93.8932292 3069.39648,95.8398438 3069.39648,98.0859375 C3069.39648,100.332031 3068.57292,102.203776 3066.92578,103.701172 C3065.27865,105.348307 3063.33203,106.171875 3061.08594,106.171875 Z M3067.19645,72.221 C3067.19645,70.205 3066.30045,68.637 3064.95645,67.517 C3063.16445,66.621 3060.02845,66.173 3055.54845,66.173 L3034.49245,66.173 L3018.14045,66.621 L3005.14845,66.621 C3003.80445,67.069 3002.90845,67.965 3002.46045,69.309 C3001.78845,70.653 3001.56445,71.773 3001.56445,72.669 C3001.56445,74.909 3001.78845,76.253 3002.68445,77.149 C3003.58045,78.045 3004.47645,78.493 3005.82045,78.493 L3009.85245,78.493 C3012.09245,78.493 3014.55645,78.493 3017.46845,78.269 L3045.91645,78.269 C3049.50045,78.493 3052.86045,78.493 3055.99645,78.493 L3060.92445,78.493 C3062.49245,78.493 3064.06045,78.045 3065.40445,76.925 C3066.52445,76.029 3067.19645,74.461 3067.19645,72.221 Z" transform="translate(-2983)"/></svg>