<svg xmlns="http://www.w3.org/2000/svg" width="103" height="243" viewBox="0 0 103 243"><path fill="#131313" d="M80.7089844,80 C82.9550781,80 84.9016927,80.7486979 86.5488281,82.2460938 C88.1959635,83.8932292 89.0195313,85.8398438 89.0195313,88.0859375 C89.0195313,92.4283854 89.0195313,98.9420573 89.0195313,107.626953 C89.0195313,111.220703 89.0195313,116.536458 89.0195313,123.574219 C89.0195313,131.061198 89.0195313,142.366536 89.0195313,157.490234 C89.0195313,159.736328 88.1959635,161.682943 86.5488281,163.330078 C84.9016927,164.827474 82.9550781,165.576172 80.7089844,165.576172 C78.4628906,165.576172 76.5911458,164.827474 75.09375,163.330078 C73.4466146,161.682943 72.6230469,159.736328 72.6230469,157.490234 C72.6230469,157.190755 72.6230469,156.666667 72.6230469,155.917969 C68.8795573,158.91276 64.686849,161.233724 60.0449219,162.880859 C55.2532552,164.677734 50.0872396,165.576172 44.546875,165.576172 C39.15625,165.576172 34.6640625,164.827474 31.0703125,163.330078 C27.4765625,161.832682 24.5566406,159.886068 22.3105469,157.490234 C18.1178385,152.998047 15.7220052,147.832031 15.1230469,141.992188 C14.374349,136.152344 14,131.510417 14,128.066406 C14,119.231771 14,105.904948 14,88.0859375 C14,85.8398438 14.8235677,83.8932292 16.4707031,82.2460938 C17.968099,80.7486979 19.8398438,80 22.0859375,80 C24.3320313,80 26.2786458,80.7486979 27.9257813,82.2460938 C29.4231771,83.8932292 30.171875,85.8398438 30.171875,88.0859375 C30.171875,96.9205729 30.171875,110.247396 30.171875,128.066406 C30.171875,136.451823 31.1451823,142.067057 33.0917969,144.912109 C35.188151,147.906901 39.0065104,149.404297 44.546875,149.404297 C51.1354167,149.404297 57.499349,147.008464 63.6386719,142.216797 C69.6282552,137.42513 72.6230469,131.210938 72.6230469,123.574219 C72.6230469,119.980469 72.6230469,114.664714 72.6230469,107.626953 C72.6230469,103.284505 72.6230469,96.7708333 72.6230469,88.0859375 C72.6230469,85.8398438 73.4466146,83.8932292 75.09375,82.2460938 C76.5911458,80.7486979 78.4628906,80 80.7089844,80 Z M22,65 C26.418278,65 30,61.418278 30,57 C30,52.581722 26.418278,49 22,49 C17.581722,49 14,52.581722 14,57 C14,61.418278 17.581722,65 22,65 Z M81,65 C85.418278,65 89,61.418278 89,57 C89,52.581722 85.418278,49 81,49 C76.581722,49 73,52.581722 73,57 C73,61.418278 76.581722,65 81,65 Z M84.1964531,31.221 C84.1964531,29.205 83.3004531,27.637 81.9564531,26.517 C80.1644531,25.621 77.0284531,25.173 72.5484531,25.173 L51.4924531,25.173 L35.1404531,25.621 L22.1484531,25.621 C20.8044531,26.069 19.9084531,26.965 19.4604531,28.309 C18.7884531,29.653 18.5644531,30.773 18.5644531,31.669 C18.5644531,33.909 18.7884531,35.253 19.6844531,36.149 C20.5804531,37.045 21.4764531,37.493 22.8204531,37.493 L26.8524531,37.493 C29.0924531,37.493 31.5564531,37.493 34.4684531,37.269 L62.9164531,37.269 C66.5004531,37.493 69.8604531,37.493 72.9964531,37.493 L77.9244531,37.493 C79.4924531,37.493 81.0604531,37.045 82.4044531,35.925 C83.5244531,35.029 84.1964531,33.461 84.1964531,31.221 Z"/></svg>