<svg xmlns="http://www.w3.org/2000/svg" width="103" height="203" viewBox="0 0 103 203"><path fill="#131313" d="M3224.70898,117 C3226.95508,117 3228.90169,117.748698 3230.54883,119.246094 C3232.19596,120.893229 3233.01953,122.839844 3233.01953,125.085938 C3233.01953,129.428385 3233.01953,135.942057 3233.01953,144.626953 C3233.01953,148.220703 3233.01953,153.536458 3233.01953,160.574219 C3233.01953,168.061198 3233.01953,179.366536 3233.01953,194.490234 C3233.01953,196.736328 3232.19596,198.682943 3230.54883,200.330078 C3228.90169,201.827474 3226.95508,202.576172 3224.70898,202.576172 C3222.46289,202.576172 3220.59115,201.827474 3219.09375,200.330078 C3217.44661,198.682943 3216.62305,196.736328 3216.62305,194.490234 C3216.62305,194.190755 3216.62305,193.666667 3216.62305,192.917969 C3212.87956,195.91276 3208.68685,198.233724 3204.04492,199.880859 C3199.25326,201.677734 3194.08724,202.576172 3188.54688,202.576172 C3183.15625,202.576172 3178.66406,201.827474 3175.07031,200.330078 C3171.47656,198.832682 3168.55664,196.886068 3166.31055,194.490234 C3162.11784,189.998047 3159.72201,184.832031 3159.12305,178.992188 C3158.37435,173.152344 3158,168.510417 3158,165.066406 C3158,156.231771 3158,142.904948 3158,125.085938 C3158,122.839844 3158.82357,120.893229 3160.4707,119.246094 C3161.9681,117.748698 3163.83984,117 3166.08594,117 C3168.33203,117 3170.27865,117.748698 3171.92578,119.246094 C3173.42318,120.893229 3174.17188,122.839844 3174.17188,125.085938 C3174.17188,133.920573 3174.17188,147.247396 3174.17188,165.066406 C3174.17188,173.451823 3175.14518,179.067057 3177.0918,181.912109 C3179.18815,184.906901 3183.00651,186.404297 3188.54688,186.404297 C3195.13542,186.404297 3201.49935,184.008464 3207.63867,179.216797 C3213.62826,174.42513 3216.62305,168.210938 3216.62305,160.574219 C3216.62305,156.980469 3216.62305,151.664714 3216.62305,144.626953 C3216.62305,140.284505 3216.62305,133.770833 3216.62305,125.085938 C3216.62305,122.839844 3217.44661,120.893229 3219.09375,119.246094 C3220.59115,117.748698 3222.46289,117 3224.70898,117 Z M3169.08594,106.171875 C3166.98958,106.171875 3165.11784,105.348307 3163.4707,103.701172 C3161.82357,102.203776 3161,100.332031 3161,98.0859375 C3161,95.8398438 3161.82357,93.8932292 3163.4707,92.2460938 C3165.11784,90.7486979 3166.98958,90 3169.08594,90 C3171.33203,90 3173.27865,90.7486979 3174.92578,92.2460938 C3176.57292,93.8932292 3177.39648,95.8398438 3177.39648,98.0859375 C3177.39648,100.332031 3176.57292,102.203776 3174.92578,103.701172 C3173.27865,105.348307 3171.33203,106.171875 3169.08594,106.171875 Z M3222.08594,106.171875 C3219.98958,106.171875 3218.11784,105.348307 3216.4707,103.701172 C3214.82357,102.203776 3214,100.332031 3214,98.0859375 C3214,95.8398438 3214.82357,93.8932292 3216.4707,92.2460938 C3218.11784,90.7486979 3219.98958,90 3222.08594,90 C3224.33203,90 3226.27865,90.7486979 3227.92578,92.2460938 C3229.57292,93.8932292 3230.39648,95.8398438 3230.39648,98.0859375 C3230.39648,100.332031 3229.57292,102.203776 3227.92578,103.701172 C3226.27865,105.348307 3224.33203,106.171875 3222.08594,106.171875 Z M3215.972,59.933 C3215.972,57.693 3215.076,55.901 3213.508,54.333 C3211.716,52.989 3209.7,52.093 3207.46,52.093 C3205.892,52.093 3203.428,53.437 3200.068,55.901 C3196.484,58.589 3193.124,61.501 3189.54,64.861 C3185.956,68.221 3182.82,71.581 3180.132,74.717 C3177.444,78.077 3176.1,80.541 3176.1,82.109 C3176.1,84.349 3177.444,85.245 3180.356,85.245 C3181.7,85.245 3184.164,84.573 3187.3,82.781 C3190.436,81.437 3193.572,79.421 3197.156,77.181 C3200.516,74.941 3203.652,72.701 3206.788,70.237 C3209.924,67.997 3212.164,66.205 3213.508,64.637 C3215.076,63.069 3215.972,61.501 3215.972,59.933 Z" transform="translate(-3144)"/></svg>