<svg xmlns="http://www.w3.org/2000/svg" width="103" height="203" viewBox="0 0 103 203"><path fill="#131313" d="M3224.70898,72.738 C3226.95508,72.738 3228.90169,73.4866979 3230.54883,74.9840937 C3232.19596,76.6312292 3233.01953,78.5778437 3233.01953,80.8239375 C3233.01953,85.1663854 3233.01953,91.6800573 3233.01953,100.364953 C3233.01953,103.958703 3233.01953,109.274458 3233.01953,116.312219 C3233.01953,123.799198 3233.01953,135.104536 3233.01953,150.228234 C3233.01953,152.474328 3232.19596,154.420943 3230.54883,156.068078 C3228.90169,157.565474 3226.95508,158.314172 3224.70898,158.314172 C3222.46289,158.314172 3220.59115,157.565474 3219.09375,156.068078 C3217.44661,154.420943 3216.62305,152.474328 3216.62305,150.228234 C3216.62305,149.928755 3216.62305,149.404667 3216.62305,148.655969 C3212.87956,151.65076 3208.68685,153.971724 3204.04492,155.618859 C3199.25326,157.415734 3194.08724,158.314172 3188.54687,158.314172 C3183.15625,158.314172 3178.66406,157.565474 3175.07031,156.068078 C3171.47656,154.570682 3168.55664,152.624068 3166.31055,150.228234 C3162.11784,145.736047 3159.72201,140.570031 3159.12305,134.730188 C3158.37435,128.890344 3158,124.248417 3158,120.804406 C3158,111.969771 3158,98.6429479 3158,80.8239375 C3158,78.5778437 3158.82357,76.6312292 3160.4707,74.9840937 C3161.9681,73.4866979 3163.83984,72.738 3166.08594,72.738 C3168.33203,72.738 3170.27865,73.4866979 3171.92578,74.9840937 C3173.42318,76.6312292 3174.17187,78.5778437 3174.17187,80.8239375 C3174.17187,89.6585729 3174.17187,102.985396 3174.17187,120.804406 C3174.17187,129.189823 3175.14518,134.805057 3177.0918,137.650109 C3179.18815,140.644901 3183.00651,142.142297 3188.54687,142.142297 C3195.13542,142.142297 3201.49935,139.746464 3207.63867,134.954797 C3213.62826,130.16313 3216.62305,123.948938 3216.62305,116.312219 C3216.62305,112.718469 3216.62305,107.402714 3216.62305,100.364953 C3216.62305,96.0225052 3216.62305,89.5088333 3216.62305,80.8239375 C3216.62305,78.5778437 3217.44661,76.6312292 3219.09375,74.9840937 C3220.59115,73.4866979 3222.46289,72.738 3224.70898,72.738 Z M3169,57.738 C3173.41828,57.738 3177,54.156278 3177,49.738 C3177,45.319722 3173.41828,41.738 3169,41.738 C3164.58172,41.738 3161,45.319722 3161,49.738 C3161,54.156278 3164.58172,57.738 3169,57.738 Z M3222,57.738 C3226.41828,57.738 3230,54.156278 3230,49.738 C3230,45.319722 3226.41828,41.738 3222,41.738 C3217.58172,41.738 3214,45.319722 3214,49.738 C3214,54.156278 3217.58172,57.738 3222,57.738 Z M3215.972,11.671 C3215.972,9.431 3215.076,7.639 3213.508,6.071 C3211.716,4.727 3209.7,3.831 3207.46,3.831 C3205.892,3.831 3203.428,5.175 3200.068,7.639 C3196.484,10.327 3193.124,13.239 3189.54,16.599 C3185.956,19.959 3182.82,23.319 3180.132,26.455 C3177.444,29.815 3176.1,32.279 3176.1,33.847 C3176.1,36.087 3177.444,36.983 3180.356,36.983 C3181.7,36.983 3184.164,36.311 3187.3,34.519 C3190.436,33.175 3193.572,31.159 3197.156,28.919 C3200.516,26.679 3203.652,24.439 3206.788,21.975 C3209.924,19.735 3212.164,17.943 3213.508,16.375 C3215.076,14.807 3215.972,13.239 3215.972,11.671 Z" transform="translate(-3144 -16.738)"/></svg>