<svg xmlns="http://www.w3.org/2000/svg" width="103" height="203" viewBox="0 0 103 203"><path fill="#131313" d="M3385.70898,117 C3387.95508,117 3389.90169,117.748698 3391.54883,119.246094 C3393.19596,120.893229 3394.01953,122.839844 3394.01953,125.085938 C3394.01953,129.428385 3394.01953,135.942057 3394.01953,144.626953 C3394.01953,148.220703 3394.01953,153.536458 3394.01953,160.574219 C3394.01953,168.061198 3394.01953,179.366536 3394.01953,194.490234 C3394.01953,196.736328 3393.19596,198.682943 3391.54883,200.330078 C3389.90169,201.827474 3387.95508,202.576172 3385.70898,202.576172 C3383.46289,202.576172 3381.59115,201.827474 3380.09375,200.330078 C3378.44661,198.682943 3377.62305,196.736328 3377.62305,194.490234 C3377.62305,194.190755 3377.62305,193.666667 3377.62305,192.917969 C3373.87956,195.91276 3369.68685,198.233724 3365.04492,199.880859 C3360.25326,201.677734 3355.08724,202.576172 3349.54688,202.576172 C3344.15625,202.576172 3339.66406,201.827474 3336.07031,200.330078 C3332.47656,198.832682 3329.55664,196.886068 3327.31055,194.490234 C3323.11784,189.998047 3320.72201,184.832031 3320.12305,178.992188 C3319.37435,173.152344 3319,168.510417 3319,165.066406 C3319,156.231771 3319,142.904948 3319,125.085938 C3319,122.839844 3319.82357,120.893229 3321.4707,119.246094 C3322.9681,117.748698 3324.83984,117 3327.08594,117 C3329.33203,117 3331.27865,117.748698 3332.92578,119.246094 C3334.42318,120.893229 3335.17188,122.839844 3335.17188,125.085938 C3335.17188,133.920573 3335.17188,147.247396 3335.17188,165.066406 C3335.17188,173.451823 3336.14518,179.067057 3338.0918,181.912109 C3340.18815,184.906901 3344.00651,186.404297 3349.54688,186.404297 C3356.13542,186.404297 3362.49935,184.008464 3368.63867,179.216797 C3374.62826,174.42513 3377.62305,168.210938 3377.62305,160.574219 C3377.62305,156.980469 3377.62305,151.664714 3377.62305,144.626953 C3377.62305,140.284505 3377.62305,133.770833 3377.62305,125.085938 C3377.62305,122.839844 3378.44661,120.893229 3380.09375,119.246094 C3381.59115,117.748698 3383.46289,117 3385.70898,117 Z M3330.08594,106.171875 C3327.98958,106.171875 3326.11784,105.348307 3324.4707,103.701172 C3322.82357,102.203776 3322,100.332031 3322,98.0859375 C3322,95.8398438 3322.82357,93.8932292 3324.4707,92.2460938 C3326.11784,90.7486979 3327.98958,90 3330.08594,90 C3332.33203,90 3334.27865,90.7486979 3335.92578,92.2460938 C3337.57292,93.8932292 3338.39648,95.8398438 3338.39648,98.0859375 C3338.39648,100.332031 3337.57292,102.203776 3335.92578,103.701172 C3334.27865,105.348307 3332.33203,106.171875 3330.08594,106.171875 Z M3383.08594,106.171875 C3380.98958,106.171875 3379.11784,105.348307 3377.4707,103.701172 C3375.82357,102.203776 3375,100.332031 3375,98.0859375 C3375,95.8398438 3375.82357,93.8932292 3377.4707,92.2460938 C3379.11784,90.7486979 3380.98958,90 3383.08594,90 C3385.33203,90 3387.27865,90.7486979 3388.92578,92.2460938 C3390.57292,93.8932292 3391.39648,95.8398438 3391.39648,98.0859375 C3391.39648,100.332031 3390.57292,102.203776 3388.92578,103.701172 C3387.27865,105.348307 3385.33203,106.171875 3383.08594,106.171875 Z M3385.7065,53.726 C3385.7065,52.158 3384.3625,51.262 3382.1225,51.262 C3380.3305,51.262 3378.5385,51.71 3376.5225,52.606 C3374.2825,53.502 3371.8185,54.846 3369.5785,56.19 C3367.1145,57.758 3364.8745,59.326 3362.6345,60.894 C3360.3945,62.462 3358.3785,63.806 3356.3625,65.15 C3354.1225,63.806 3352.1065,62.462 3350.0905,60.894 C3347.8505,59.326 3345.3865,57.758 3343.1465,56.19 C3340.6825,54.846 3338.4425,53.502 3336.4265,52.606 C3334.1865,51.71 3332.3945,51.262 3330.8265,51.262 C3328.1385,51.262 3327.0185,52.158 3327.0185,53.726 C3327.0185,55.518 3328.1385,57.982 3330.6025,61.118 C3332.8425,64.254 3335.7545,67.39 3339.1145,70.302 C3342.2505,73.438 3345.6105,76.126 3348.7465,78.366 C3351.8825,80.606 3354.5705,81.726 3356.3625,81.726 C3358.1545,81.726 3360.6185,80.606 3363.9785,78.366 C3367.1145,76.126 3370.2505,73.438 3373.6105,70.302 C3376.7465,67.39 3379.6585,64.254 3382.1225,61.118 C3384.3625,57.982 3385.7065,55.518 3385.7065,53.726 Z" transform="translate(-3305)"/></svg>