<svg xmlns="http://www.w3.org/2000/svg" width="103" height="243" viewBox="0 0 103 243"><path fill="#131313" d="M80.7089844,80 C82.9550781,80 84.9016927,80.7486979 86.5488281,82.2460938 C88.1959635,83.8932292 89.0195313,85.8398438 89.0195313,88.0859375 C89.0195313,92.4283854 89.0195313,98.9420573 89.0195313,107.626953 C89.0195313,111.220703 89.0195313,116.536458 89.0195313,123.574219 C89.0195313,131.061198 89.0195313,142.366536 89.0195313,157.490234 C89.0195313,159.736328 88.1959635,161.682943 86.5488281,163.330078 C84.9016927,164.827474 82.9550781,165.576172 80.7089844,165.576172 C78.4628906,165.576172 76.5911458,164.827474 75.09375,163.330078 C73.4466146,161.682943 72.6230469,159.736328 72.6230469,157.490234 C72.6230469,157.190755 72.6230469,156.666667 72.6230469,155.917969 C68.8795573,158.91276 64.686849,161.233724 60.0449219,162.880859 C55.2532552,164.677734 50.0872396,165.576172 44.546875,165.576172 C39.15625,165.576172 34.6640625,164.827474 31.0703125,163.330078 C27.4765625,161.832682 24.5566406,159.886068 22.3105469,157.490234 C18.1178385,152.998047 15.7220052,147.832031 15.1230469,141.992188 C14.374349,136.152344 14,131.510417 14,128.066406 C14,119.231771 14,105.904948 14,88.0859375 C14,85.8398438 14.8235677,83.8932292 16.4707031,82.2460938 C17.968099,80.7486979 19.8398438,80 22.0859375,80 C24.3320313,80 26.2786458,80.7486979 27.9257813,82.2460938 C29.4231771,83.8932292 30.171875,85.8398438 30.171875,88.0859375 C30.171875,96.9205729 30.171875,110.247396 30.171875,128.066406 C30.171875,136.451823 31.1451823,142.067057 33.0917969,144.912109 C35.188151,147.906901 39.0065104,149.404297 44.546875,149.404297 C51.1354167,149.404297 57.499349,147.008464 63.6386719,142.216797 C69.6282552,137.42513 72.6230469,131.210938 72.6230469,123.574219 C72.6230469,119.980469 72.6230469,114.664714 72.6230469,107.626953 C72.6230469,103.284505 72.6230469,96.7708333 72.6230469,88.0859375 C72.6230469,85.8398438 73.4466146,83.8932292 75.09375,82.2460938 C76.5911458,80.7486979 78.4628906,80 80.7089844,80 Z M22,65 C26.418278,65 30,61.418278 30,57 C30,52.581722 26.418278,49 22,49 C17.581722,49 14,52.581722 14,57 C14,61.418278 17.581722,65 22,65 Z M81,65 C85.418278,65 89,61.418278 89,57 C89,52.581722 85.418278,49 81,49 C76.581722,49 73,52.581722 73,57 C73,61.418278 76.581722,65 81,65 Z M80.7065,12.726 C80.7065,11.158 79.3625,10.262 77.1225,10.262 C75.3305,10.262 73.5385,10.71 71.5225,11.606 C69.2825,12.502 66.8185,13.846 64.5785,15.19 C62.1145,16.758 59.8745,18.326 57.6345,19.894 C55.3945,21.462 53.3785,22.806 51.3625,24.15 C49.1225,22.806 47.1065,21.462 45.0905,19.894 C42.8505,18.326 40.3865,16.758 38.1465,15.19 C35.6825,13.846 33.4425,12.502 31.4265,11.606 C29.1865,10.71 27.3945,10.262 25.8265,10.262 C23.1385,10.262 22.0185,11.158 22.0185,12.726 C22.0185,14.518 23.1385,16.982 25.6025,20.118 C27.8425,23.254 30.7545,26.39 34.1145,29.302 C37.2505,32.438 40.6105,35.126 43.7465,37.366 C46.8825,39.606 49.5705,40.726 51.3625,40.726 C53.1545,40.726 55.6185,39.606 58.9785,37.366 C62.1145,35.126 65.2505,32.438 68.6105,29.302 C71.7465,26.39 74.6585,23.254 77.1225,20.118 C79.3625,16.982 80.7065,14.518 80.7065,12.726 Z"/></svg>