<svg xmlns="http://www.w3.org/2000/svg" width="103" height="203" viewBox="0 0 103 203"><path fill="#131313" d="M3546.70898,72.738 C3548.95508,72.738 3550.90169,73.4866979 3552.54883,74.9840937 C3554.19596,76.6312292 3555.01953,78.5778437 3555.01953,80.8239375 C3555.01953,85.1663854 3555.01953,91.6800573 3555.01953,100.364953 C3555.01953,103.958703 3555.01953,109.274458 3555.01953,116.312219 C3555.01953,123.799198 3555.01953,135.104536 3555.01953,150.228234 C3555.01953,152.474328 3554.19596,154.420943 3552.54883,156.068078 C3550.90169,157.565474 3548.95508,158.314172 3546.70898,158.314172 C3544.46289,158.314172 3542.59115,157.565474 3541.09375,156.068078 C3539.44661,154.420943 3538.62305,152.474328 3538.62305,150.228234 C3538.62305,149.928755 3538.62305,149.404667 3538.62305,148.655969 C3534.87956,151.65076 3530.68685,153.971724 3526.04492,155.618859 C3521.25326,157.415734 3516.08724,158.314172 3510.54688,158.314172 C3505.15625,158.314172 3500.66406,157.565474 3497.07031,156.068078 C3493.47656,154.570682 3490.55664,152.624068 3488.31055,150.228234 C3484.11784,145.736047 3481.72201,140.570031 3481.12305,134.730188 C3480.37435,128.890344 3480,124.248417 3480,120.804406 C3480,111.969771 3480,98.6429479 3480,80.8239375 C3480,78.5778437 3480.82357,76.6312292 3482.4707,74.9840937 C3483.9681,73.4866979 3485.83984,72.738 3488.08594,72.738 C3490.33203,72.738 3492.27865,73.4866979 3493.92578,74.9840937 C3495.42318,76.6312292 3496.17188,78.5778437 3496.17188,80.8239375 C3496.17188,89.6585729 3496.17188,102.985396 3496.17188,120.804406 C3496.17188,129.189823 3497.14518,134.805057 3499.0918,137.650109 C3501.18815,140.644901 3505.00651,142.142297 3510.54688,142.142297 C3517.13542,142.142297 3523.49935,139.746464 3529.63867,134.954797 C3535.62826,130.16313 3538.62305,123.948938 3538.62305,116.312219 C3538.62305,112.718469 3538.62305,107.402714 3538.62305,100.364953 C3538.62305,96.0225052 3538.62305,89.5088333 3538.62305,80.8239375 C3538.62305,78.5778437 3539.44661,76.6312292 3541.09375,74.9840937 C3542.59115,73.4866979 3544.46289,72.738 3546.70898,72.738 Z M3491,57.738 C3495.41828,57.738 3499,54.156278 3499,49.738 C3499,45.319722 3495.41828,41.738 3491,41.738 C3486.58172,41.738 3483,45.319722 3483,49.738 C3483,54.156278 3486.58172,57.738 3491,57.738 Z M3544,57.738 C3546.49768,57.738 3548.72803,56.5933825 3550.1951,54.8000787 C3551.3232,53.4211163 3552,51.6585952 3552,49.738 C3552,47.5894087 3551.15298,45.6386495 3549.77464,44.2014195 C3548.31861,42.6831868 3546.26969,41.738 3544,41.738 C3541.82588,41.738 3539.85433,42.6052635 3538.41242,44.0127078 C3536.92405,45.465498 3536,47.4938376 3536,49.738 C3536,51.6500264 3536.67077,53.4053861 3537.78983,54.781599 C3539.25667,56.5855154 3541.49375,57.738 3544,57.738 Z M3537.8905,30.016 C3537.8905,28.448 3536.5465,25.984 3533.8585,22.624 C3531.1705,19.488 3528.0345,16.128 3524.4505,12.544 C3520.8665,9.408 3517.2825,6.496 3513.9225,3.808 C3510.3385,1.344 3507.8745,0 3506.5305,0 C3504.2905,0 3502.2745,0.896 3500.4825,2.24 C3498.6905,3.808 3498.0185,5.6 3498.0185,7.84 C3498.0185,9.408 3498.6905,10.976 3500.4825,12.544 C3501.8265,14.112 3504.0665,16.128 3507.2025,18.368 C3510.1145,20.608 3513.2505,22.848 3516.8345,25.088 C3520.1945,27.328 3523.3305,29.344 3526.4665,30.912 C3529.6025,32.48 3531.8425,33.152 3533.6345,33.152 C3536.3225,33.152 3537.8905,32.256 3537.8905,30.016 Z" transform="translate(-3466 -16.738)"/></svg>