<svg xmlns="http://www.w3.org/2000/svg" width="110" height="203" viewBox="0 0 110 203"><path fill="#131313" d="M54.6533203,63 C60.1787109,63 65.0302734,63.8085938 69.2080078,65.4257812 C73.5205078,67.0429688 77.2939453,69.1992188 80.5283203,71.8945312 C86.4580078,76.8808594 90.703125,83.0800781 93.2636719,90.4921875 C95.8242188,97.9042969 97.1044922,104.777344 97.1044922,111.111328 L97.1044922,154.371094 C97.1044922,157.740234 96.7675781,161.378906 96.09375,165.287109 C95.4199219,169.060547 94.2744141,172.833984 92.6572266,176.607422 C89.6923828,183.480469 85.1777344,189.544922 79.1132813,194.800781 C72.9140625,199.921875 64.7607422,202.482422 54.6533203,202.482422 C49.1279297,202.482422 44.2089844,201.673828 39.8964844,200.056641 C35.71875,198.439453 32.0126953,196.283203 28.7783203,193.587891 C22.8486328,188.601563 18.6035156,182.402344 16.0429688,174.990234 C13.3476563,167.578125 12,160.705078 12,154.371094 L12,111.111328 C12,104.777344 13.3476563,97.9042969 16.0429688,90.4921875 C18.6035156,83.0800781 22.8486328,76.8808594 28.7783203,71.8945312 C32.0126953,69.1992188 35.71875,67.0429688 39.8964844,65.4257812 C44.2089844,63.8085938 49.1279297,63 54.6533203,63 Z M54.8964844,77 C50.0449219,77 46.0019531,77.9433594 42.7675781,79.8300781 C39.3984375,81.5820312 36.703125,83.7382812 34.6816406,86.2988281 C30.9082031,91.2851562 28.6845703,96.5410156 28.0107422,102.066406 C27.3525845,107.463299 27.0158526,110.288786 27.0005466,110.542865 L27,153.816406 C27,153.951172 27.3369141,156.78125 28.0107422,162.306641 C28.6845703,167.832031 30.9082031,173.087891 34.6816406,178.074219 C36.703125,180.634766 39.3984375,182.791016 42.7675781,184.542969 C46.0019531,186.429688 50.0449219,187.373047 54.8964844,187.373047 C59.7480469,187.373047 63.7910156,186.429688 67.0253906,184.542969 C70.2597656,182.791016 72.8876953,180.634766 74.9091797,178.074219 C78.8173828,173.087891 81.1083984,167.832031 81.7822266,162.306641 C82.4403843,156.909747 82.7771161,154.084261 82.7924221,153.830182 L82.7929688,110.556641 C82.7929688,110.421875 82.4560547,107.591797 81.7822266,102.066406 C81.1083984,96.5410156 78.8173828,91.2851562 74.9091797,86.2988281 C72.8876953,83.7382812 70.2597656,81.5820312 67.0253906,79.8300781 C63.7910156,77.9433594 59.7480469,77 54.8964844,77 Z M66.9736328,54 C66.9736328,54.3756407 66.9120571,55.1476675 66.8244988,56.0318207 L66.7714844,56.0214844 C71.4882812,56.9648438 75.8681641,58.5146484 79.9111328,60.6708984 C83.7294922,62.7073568 87.1872287,65.2847493 90.2843424,68.4030762 L90.8271484,68.9589844 C91.7705078,68.5546875 92.78125,68.4199219 93.859375,68.5546875 C94.9375,68.8242188 95.7460938,69.3632812 96.2851562,70.171875 C97.09375,71.1152344 97.4306641,72.1933594 97.2958984,73.40625 C97.1611328,74.6191406 96.6220703,75.6298828 95.6787109,76.4384766 C94.7353516,77.1123047 93.6572266,77.3818359 92.4443359,77.2470703 C91.2314453,77.1123047 90.2207031,76.5732422 89.4121094,75.6298828 C88.8730469,74.8212891 88.6035156,73.9453125 88.6035156,73.0019531 C88.6035156,72.0585938 88.8730469,71.1826172 89.4121094,70.3740234 C86.1777344,67.1396484 82.6738281,64.5117188 78.9003906,62.4902344 C75.1366162,60.4739267 71.0376511,58.9939241 66.6034952,58.0502267 C66.5185334,58.7640305 66.4338094,59.415705 66.3671875,59.8623047 C63.9414062,58.9189453 60.3027344,57.5712891 55.4511719,55.8193359 C58.0117188,55.4150391 61.8525391,54.8085938 66.9736328,54 Z M89.012,73.165 L89.0078125,73.0019531 C89.0078125,73.9453125 89.2773438,74.7539062 89.8164062,75.4277344 C90.4384014,76.1741286 91.2326415,76.6334481 92.1991263,76.805693 L92.431,76.84 L92.2164033,76.8077069 C91.2421028,76.6289361 90.4421038,76.1015625 89.8164062,75.2255859 C89.33125,74.6191406 89.0644141,73.9581152 89.0158984,73.2425098 L89.012,73.165 Z M91.8603516,69.6852214 L91.6357422,69.7675781 C91.5009766,69.9023438 91.3662109,69.9697266 91.2314453,69.9697266 C91.0966797,70.1044922 90.9619141,70.171875 90.8271484,70.171875 C90.6923828,70.3066406 90.5576172,70.5087891 90.4228516,70.7783203 L90.0185547,71.1826172 C89.6142578,71.7216797 89.4794922,72.328125 89.6142578,73.0019531 C89.6142578,73.8105469 89.8164062,74.484375 90.2207031,75.0234375 C90.8945312,75.6972656 91.6357422,76.1015625 92.4443359,76.2363281 C93.3876953,76.3710938 94.2636719,76.1689453 95.0722656,75.6298828 C95.7460938,74.9560547 96.1503906,74.2148438 96.2851562,73.40625 C96.4095553,72.5354567 96.1894647,71.7220784 95.6248844,70.966115 L95.4765625,70.7783203 C95.0722656,70.2392578 94.4658203,69.8349609 93.6572266,69.5654297 C93.0582682,69.445638 92.4593099,69.4855686 91.8603516,69.6852214 Z M96.029,70.765 L96.1631495,70.9589381 C96.628051,71.6782198 96.8034856,72.4939904 96.6894531,73.40625 C96.6894531,74.484375 96.2177734,75.3603516 95.2744141,76.0341797 L95.405,75.935 L95.4703743,75.8866938 C96.2294623,75.284374 96.6915159,74.5335369 96.856535,73.6341827 L96.8916016,73.40625 C96.8916016,72.328125 96.5546875,71.3847656 95.8808594,70.5761719 L96.029,70.765 Z M106.8755,75.45 C106.8755,75.099 106.7675,74.829 106.5515,74.667 C106.3085,74.505 106.0115,74.397 105.6335,74.397 C105.4715,74.397 105.3365,74.478 105.1745,74.586 C105.0125,74.721 104.8775,74.829 104.7965,74.91 C104.5805,75.126 104.4185,75.315 104.2835,75.531 C104.1215,75.747 103.9325,75.963 103.7705,76.152 C103.2575,76.746 102.7175,77.394 102.1235,78.042 C101.5025,78.717 100.9085,79.311 100.3415,79.851 C100.2875,79.905 100.2065,79.959 100.1525,80.013 L99.9365,80.121 C99.8555,80.175 99.7745,80.202 99.7205,80.256 L99.4775,80.418 C99.3425,80.526 99.2345,80.607 99.1535,80.688 C99.0455,80.796 99.0185,80.877 99.0185,80.958 C99.0185,81.282 99.1535,81.525 99.4775,81.714 C99.7475,81.93 100.0715,82.011 100.3955,82.011 C100.6385,82.011 100.8545,81.957 101.0705,81.849 C101.2595,81.741 101.4485,81.579 101.6645,81.363 C101.7995,81.201 101.9615,81.012 102.1775,80.769 L102.7175,80.175 C102.8525,80.04 103.0685,79.824 103.3385,79.527 C103.6085,79.23 103.9055,78.879 104.2835,78.474 C104.2025,78.906 104.1215,79.419 104.0675,80.013 C103.9595,80.607 103.8785,81.201 103.7975,81.849 L103.5815,83.766 C103.5275,84.414 103.4735,85.035 103.4465,85.575 C103.3925,86.601 103.3385,87.627 103.3115,88.653 C103.2575,89.679 103.2305,90.57 103.2305,91.326 C103.2305,91.758 103.3385,92.082 103.5815,92.325 C103.8245,92.595 104.1485,92.703 104.5805,92.703 C104.7965,92.703 105.0395,92.649 105.3095,92.541 C105.5255,92.433 105.6605,92.298 105.6605,92.136 C105.6605,92.055 105.6335,91.893 105.6335,91.623 C105.5795,91.38 105.5525,91.083 105.5255,90.759 C105.4715,90.462 105.4175,90.138 105.4175,89.787 C105.3635,89.436 105.3635,89.112 105.3635,88.842 C105.3635,86.952 105.4175,85.062 105.5795,83.145 C105.7415,81.255 106.0385,79.365 106.5245,77.502 C106.5515,77.34 106.6055,77.178 106.6595,76.989 L106.7675,76.476 L106.8485,75.963 C106.8485,75.801 106.8755,75.639 106.8755,75.45 Z"/></svg>