<svg xmlns="http://www.w3.org/2000/svg" width="110" height="243" viewBox="0 0 110 243"><path fill="#131313" d="M12,117.371094 C12,107.802734 12,93.3828125 12,74.1113281 C12,67.7773438 13.3476562,60.9042969 16.0429688,53.4921875 C18.6035156,46.0800781 22.8486328,39.8808594 28.7783203,34.8945312 C32.0126953,32.1992188 35.71875,30.0429688 39.8964844,28.4257812 C44.2089844,26.8085938 49.1279297,26 54.6533203,26 C60.1787109,26 65.0302734,26.8085938 69.2080078,28.4257812 C73.5205078,30.0429688 77.2939453,32.1992188 80.5283203,34.8945312 C86.4580078,39.8808594 90.703125,46.0800781 93.2636719,53.4921875 C95.8242188,60.9042969 97.1044922,67.7773438 97.1044922,74.1113281 C97.1044922,83.6796875 97.1044922,98.0996094 97.1044922,117.371094 C97.1044922,120.740234 96.7675781,124.378906 96.09375,128.287109 C95.4199219,132.060547 94.2744141,135.833984 92.6572266,139.607422 C89.6923828,146.480469 85.1777344,152.544922 79.1132812,157.800781 C72.9140625,162.921875 64.7607422,165.482422 54.6533203,165.482422 C49.1279297,165.482422 44.2089844,164.673828 39.8964844,163.056641 C35.71875,161.439453 32.0126953,159.283203 28.7783203,156.587891 C22.8486328,151.601562 18.6035156,145.402344 16.0429688,137.990234 C13.3476562,130.578125 12,123.705078 12,117.371094 Z M27,73.5566406 C27,83.125 27,97.5449219 27,116.816406 C27,116.951172 27.3369141,119.78125 28.0107422,125.306641 C28.6845703,130.832031 30.9082031,136.087891 34.6816406,141.074219 C36.703125,143.634766 39.3984375,145.791016 42.7675781,147.542969 C46.0019531,149.429688 50.0449219,150.373047 54.8964844,150.373047 C59.7480469,150.373047 63.7910156,149.429688 67.0253906,147.542969 C70.2597656,145.791016 72.8876953,143.634766 74.9091797,141.074219 C78.8173828,136.087891 81.1083984,130.832031 81.7822266,125.306641 C82.4560547,119.78125 82.7929688,116.951172 82.7929688,116.816406 C82.7929688,107.248047 82.7929688,92.828125 82.7929688,73.5566406 C82.7929688,73.421875 82.4560547,70.5917969 81.7822266,65.0664062 C81.1083984,59.5410156 78.8173828,54.2851562 74.9091797,49.2988281 C72.8876953,46.7382812 70.2597656,44.5820312 67.0253906,42.8300781 C63.7910156,40.9433594 59.7480469,40 54.8964844,40 C50.0449219,40 46.0019531,40.9433594 42.7675781,42.8300781 C39.3984375,44.5820312 36.703125,46.7382812 34.6816406,49.2988281 C30.9082031,54.2851562 28.6845703,59.5410156 28.0107422,65.0664062 C27.3369141,70.5917969 27,73.421875 27,73.5566406 Z M89.4121094,33.3740234 C86.1777344,30.1396484 82.6738281,27.5117188 78.9003906,25.4902344 C75.1269531,23.46875 71.0166016,21.9863281 66.5693359,21.0429688 C66.5693359,20.5039062 66.6367188,19.8300781 66.7714844,19.0214844 C71.4882812,19.9648438 75.8681641,21.5146484 79.9111328,23.6708984 C83.9541016,25.8271484 87.5927734,28.5898438 90.8271484,31.9589844 C90.6923828,32.09375 90.625,32.1611328 90.625,32.1611328 C90.4902344,32.2958984 90.3554688,32.3632812 90.2207031,32.3632812 C90.0859375,32.4980469 89.9511719,32.7001953 89.8164062,32.9697266 C89.6816406,33.1044922 89.546875,33.2392578 89.4121094,33.3740234 Z M66.5693359,21.0429688 C66.4345703,21.4472656 66.3671875,22.0537109 66.3671875,22.8623047 C63.9414062,21.9189453 60.3027344,20.5712891 55.4511719,18.8193359 C58.0117188,18.4150391 61.8525391,17.8085938 66.9736328,17 C66.8388672,17.4042969 66.7714844,18.078125 66.7714844,19.0214844 C66.3671875,18.8867188 66.0302734,18.8193359 65.7607422,18.8193359 C65.4912109,18.6845703 65.1542969,18.6171875 64.75,18.6171875 C64.75,19.0214844 64.6152344,19.6953125 64.3457031,20.6386719 C64.75,20.6386719 65.1542969,20.7060547 65.5585938,20.8408203 C65.828125,20.8408203 66.1650391,20.9082031 66.5693359,21.0429688 Z M64.3457031,20.6386719 C64.4804688,20.0996094 64.6152344,19.4257812 64.75,18.6171875 C65.1542969,18.6171875 65.4912109,18.6845703 65.7607422,18.8193359 C66.0302734,18.8193359 66.3671875,18.8867188 66.7714844,19.0214844 C66.6367188,19.4257812 66.5693359,20.0996094 66.5693359,21.0429688 C66.1650391,20.9082031 65.828125,20.8408203 65.5585938,20.8408203 C65.1542969,20.7060547 64.75,20.6386719 64.3457031,20.6386719 Z M91.2314453,32.3632812 C91.2314453,32.3632812 91.1640625,32.2958984 91.0292969,32.1611328 C91.0292969,32.1611328 90.9619141,32.09375 90.8271484,31.9589844 C91.7705078,31.5546875 92.78125,31.4199219 93.859375,31.5546875 C94.9375,31.8242188 95.7460938,32.3632812 96.2851562,33.171875 C97.09375,34.1152344 97.4306641,35.1933594 97.2958984,36.40625 C97.1611328,37.6191406 96.6220703,38.6298828 95.6787109,39.4384766 C94.7353516,40.1123047 93.6572266,40.3818359 92.4443359,40.2470703 C91.2314453,40.1123047 90.2207031,39.5732422 89.4121094,38.6298828 C88.8730469,37.8212891 88.6035156,36.9453125 88.6035156,36.0019531 C88.6035156,35.0585938 88.8730469,34.1826172 89.4121094,33.3740234 C89.4121094,33.5087891 89.4794922,33.5761719 89.6142578,33.5761719 C89.6142578,33.7109375 89.6142578,33.7783203 89.6142578,33.7783203 C89.2099609,34.4521484 89.0078125,35.1933594 89.0078125,36.0019531 C89.0078125,36.9453125 89.2773438,37.7539062 89.8164062,38.4277344 C90.4902344,39.2363281 91.3662109,39.7080078 92.4443359,39.8427734 C93.5224609,39.9775391 94.4658203,39.7080078 95.2744141,39.0341797 C96.2177734,38.3603516 96.6894531,37.484375 96.6894531,36.40625 C96.8242188,35.328125 96.5546875,34.3847656 95.8808594,33.5761719 C95.3417969,32.7675781 94.6679688,32.2958984 93.859375,32.1611328 C92.9160156,31.8916016 92.0400391,31.9589844 91.2314453,32.3632812 Z M89.4121094,33.3740234 C89.4121094,33.2392578 89.546875,33.1044922 89.8164062,32.9697266 C89.9511719,32.7001953 90.0859375,32.4980469 90.2207031,32.3632812 C90.3554688,32.3632812 90.4902344,32.2958984 90.625,32.1611328 C90.625,32.1611328 90.6923828,32.09375 90.8271484,31.9589844 C90.9619141,32.09375 91.0292969,32.1611328 91.0292969,32.1611328 C91.1640625,32.2958984 91.2314453,32.3632812 91.2314453,32.3632812 C91.0966797,32.4980469 90.9619141,32.5654297 90.8271484,32.5654297 C90.6923828,32.7001953 90.625,32.7675781 90.625,32.7675781 C90.3554688,32.9023438 90.1533203,33.1044922 90.0185547,33.3740234 C89.8837891,33.5087891 89.7490234,33.6435547 89.6142578,33.7783203 C89.6142578,33.6435547 89.6142578,33.5761719 89.6142578,33.5761719 C89.4794922,33.5761719 89.4121094,33.5087891 89.4121094,33.3740234 Z M89.8164062,38.2255859 C89.2773438,37.5517578 89.0078125,36.8105469 89.0078125,36.0019531 C89.0078125,35.1933594 89.2099609,34.4521484 89.6142578,33.7783203 C89.7490234,33.7783203 89.8164062,33.8457031 89.8164062,33.9804687 C89.9511719,34.1152344 90.0185547,34.1826172 90.0185547,34.1826172 C89.6142578,34.7216797 89.4794922,35.328125 89.6142578,36.0019531 C89.6142578,36.8105469 89.8164062,37.484375 90.2207031,38.0234375 C90.8945312,38.6972656 91.6357422,39.1015625 92.4443359,39.2363281 C93.3876953,39.3710937 94.2636719,39.1689453 95.0722656,38.6298828 C95.7460938,37.9560547 96.1503906,37.2148437 96.2851562,36.40625 C96.4199219,35.4628906 96.1503906,34.5869141 95.4765625,33.7783203 C95.6113281,33.9130859 95.6787109,33.9804687 95.6787109,33.9804687 C95.8134766,34.1152344 95.8808594,34.1826172 95.8808594,34.1826172 C95.8808594,34.1826172 95.8134766,34.1152344 95.6787109,33.9804687 C95.6787109,33.9804687 95.6113281,33.9130859 95.4765625,33.7783203 C95.4765625,33.7783203 95.4765625,33.7109375 95.4765625,33.5761719 C95.3417969,33.5761719 95.2744141,33.5761719 95.2744141,33.5761719 C95.2744141,33.5761719 95.3417969,33.5761719 95.4765625,33.5761719 C95.4765625,33.7109375 95.4765625,33.7783203 95.4765625,33.7783203 C95.0722656,33.2392578 94.4658203,32.8349609 93.6572266,32.5654297 C92.9833984,32.4306641 92.3095703,32.4980469 91.6357422,32.7675781 C91.5009766,32.7675781 91.4335938,32.7001953 91.4335938,32.5654297 C91.2988281,32.5654297 91.2314453,32.4980469 91.2314453,32.3632812 C92.0400391,31.9589844 92.9160156,31.8916016 93.859375,32.1611328 C94.6679688,32.2958984 95.3417969,32.7675781 95.8808594,33.5761719 C96.5546875,34.3847656 96.8916016,35.328125 96.8916016,36.40625 C96.7568359,37.484375 96.2177734,38.3603516 95.2744141,39.0341797 C94.4658203,39.7080078 93.5224609,39.9775391 92.4443359,39.8427734 C91.3662109,39.7080078 90.4902344,39.1689453 89.8164062,38.2255859 Z M95.2744141,33.5761719 C95.2744141,33.5761719 95.3417969,33.5761719 95.4765625,33.5761719 C95.4765625,33.7109375 95.4765625,33.7783203 95.4765625,33.7783203 C95.4765625,33.7783203 95.4765625,33.7109375 95.4765625,33.5761719 C95.3417969,33.5761719 95.2744141,33.5761719 95.2744141,33.5761719 Z M90.8271484,33.171875 C90.6923828,33.3066406 90.5576172,33.5087891 90.4228516,33.7783203 C90.2880859,33.9130859 90.1533203,34.0478516 90.0185547,34.1826172 C90.0185547,34.1826172 89.9511719,34.1152344 89.8164062,33.9804688 C89.8164062,33.8457031 89.7490234,33.7783203 89.6142578,33.7783203 C89.7490234,33.6435547 89.8837891,33.5087891 90.0185547,33.3740234 C90.1533203,33.2392578 90.3554688,33.1044922 90.625,32.9697266 C90.625,32.8349609 90.6923828,32.7001953 90.8271484,32.5654297 C90.9619141,32.5654297 91.0966797,32.4980469 91.2314453,32.3632812 C91.3662109,32.4980469 91.4335938,32.5654297 91.4335938,32.5654297 C91.5683594,32.7001953 91.6357422,32.7675781 91.6357422,32.7675781 C91.5009766,32.9023438 91.3662109,32.9697266 91.2314453,32.9697266 C91.0966797,33.1044922 90.9619141,33.171875 90.8271484,33.171875 Z M104.573242,52.9824219 C104.573242,52.9824219 104.573242,53.0498047 104.573242,53.1845703 C104.573242,53.3193359 104.640625,53.4541016 104.775391,53.5888672 C104.775391,53.5888672 104.842773,53.65625 104.977539,53.7910156 C105.112305,53.7910156 105.24707,53.7910156 105.381836,53.7910156 C105.516602,53.7910156 105.583984,53.7910156 105.583984,53.7910156 C105.71875,53.65625 105.853516,53.5888672 105.988281,53.5888672 C106.123047,53.4541016 106.19043,53.3193359 106.19043,53.1845703 C106.19043,53.0498047 106.19043,52.9824219 106.19043,52.9824219 C106.19043,49.6132812 106.19043,46.6484375 106.19043,44.0878906 C106.19043,41.6621094 106.19043,39.5732422 106.19043,37.8212891 C106.19043,37.8212891 106.19043,37.7539062 106.19043,37.6191406 C106.19043,37.6191406 106.123047,37.5517578 105.988281,37.4169922 C105.988281,37.4169922 105.988281,37.3496094 105.988281,37.2148438 C105.853516,37.2148438 105.786133,37.1474609 105.786133,37.0126953 C105.651367,37.0126953 105.583984,37.0126953 105.583984,37.0126953 C105.449219,37.0126953 105.381836,37.0126953 105.381836,37.0126953 C105.381836,37.0126953 105.314453,37.0126953 105.179688,37.0126953 C105.179688,37.0126953 105.179688,37.0126953 105.179688,37.0126953 C105.044922,37.0126953 104.977539,37.0800781 104.977539,37.2148438 C104.842773,37.2148438 104.775391,37.2148438 104.775391,37.2148438 C104.236328,37.7539062 103.832031,38.2255859 103.5625,38.6298828 C103.158203,38.8994141 102.821289,39.1689453 102.551758,39.4384766 C102.551758,39.5732422 102.484375,39.640625 102.349609,39.640625 C102.349609,39.7753906 102.349609,39.9101562 102.349609,40.0449219 C102.349609,40.1796875 102.349609,40.3144531 102.349609,40.4492188 C102.484375,40.4492188 102.551758,40.5166016 102.551758,40.6513672 C102.686523,40.7861328 102.821289,40.8535156 102.956055,40.8535156 C103.09082,40.8535156 103.158203,40.8535156 103.158203,40.8535156 C103.292969,40.8535156 103.427734,40.8535156 103.5625,40.8535156 C103.697266,40.8535156 103.764648,40.7861328 103.764648,40.6513672 C103.899414,40.5166016 104.03418,40.3818359 104.168945,40.2470703 C104.303711,40.1123047 104.438477,40.0449219 104.573242,40.0449219 C104.573242,42.875 104.573242,45.3681641 104.573242,47.5244141 C104.573242,49.6806641 104.573242,51.5 104.573242,52.9824219 Z"/></svg>