<svg xmlns="http://www.w3.org/2000/svg" width="110" height="203" viewBox="0 0 110 203"><path fill="#131313" d="M54.6533203,21.603 C60.1787109,21.603 65.0302734,22.4115938 69.2080078,24.0287813 C73.5205078,25.6459688 77.2939453,27.8022188 80.5283203,30.4975313 C86.4580078,35.4838594 90.703125,41.6830781 93.2636719,49.0951875 C95.8242188,56.5072969 97.1044922,63.3803437 97.1044922,69.7143281 L97.1044922,112.974094 C97.1044922,116.343234 96.7675781,119.981906 96.09375,123.890109 C95.4199219,127.663547 94.2744141,131.436984 92.6572266,135.210422 C89.6923828,142.083469 85.1777344,148.147922 79.1132813,153.403781 C72.9140625,158.524875 64.7607422,161.085422 54.6533203,161.085422 C49.1279297,161.085422 44.2089844,160.276828 39.8964844,158.659641 C35.71875,157.042453 32.0126953,154.886203 28.7783203,152.190891 C22.8486328,147.204563 18.6035156,141.005344 16.0429688,133.593234 C13.3476563,126.181125 12,119.308078 12,112.974094 L12,69.7143281 C12,63.3803437 13.3476563,56.5072969 16.0429688,49.0951875 C18.6035156,41.6830781 22.8486328,35.4838594 28.7783203,30.4975313 C32.0126953,27.8022188 35.71875,25.6459688 39.8964844,24.0287813 C44.2089844,22.4115938 49.1279297,21.603 54.6533203,21.603 Z M54.8964844,35.603 C50.0449219,35.603 46.0019531,36.5463594 42.7675781,38.4330781 C39.3984375,40.1850313 36.703125,42.3412813 34.6816406,44.9018281 C30.9082031,49.8881562 28.6845703,55.1440156 28.0107422,60.6694062 C27.3525845,66.0662994 27.0158526,68.8917857 27.0005466,69.1458652 L27,112.419406 C27,112.554172 27.3369141,115.38425 28.0107422,120.909641 C28.6845703,126.435031 30.9082031,131.690891 34.6816406,136.677219 C36.703125,139.237766 39.3984375,141.394016 42.7675781,143.145969 C46.0019531,145.032688 50.0449219,145.976047 54.8964844,145.976047 C59.7480469,145.976047 63.7910156,145.032688 67.0253906,143.145969 C70.2597656,141.394016 72.8876953,139.237766 74.9091797,136.677219 C78.8173828,131.690891 81.1083984,126.435031 81.7822266,120.909641 C82.4403843,115.512747 82.7771161,112.687261 82.7924221,112.433182 L82.7929688,69.1596406 C82.7929688,69.024875 82.4560547,66.1947969 81.7822266,60.6694062 C81.1083984,55.1440156 78.8173828,49.8881562 74.9091797,44.9018281 C72.8876953,42.3412813 70.2597656,40.1850313 67.0253906,38.4330781 C63.7910156,36.5463594 59.7480469,35.603 54.8964844,35.603 Z M66.9736328,12.603 C66.9736328,12.9786407 66.9120571,13.7506675 66.8244988,14.6348207 L66.7714844,14.6244844 C71.4882812,15.5678438 75.8681641,17.1176484 79.9111328,19.2738984 C83.7294922,21.3103568 87.1872287,23.8877493 90.2843424,27.0060762 L90.8271484,27.5619844 C91.7705078,27.1576875 92.78125,27.0229219 93.859375,27.1576875 C94.9375,27.4272188 95.7460938,27.9662813 96.2851562,28.774875 C97.09375,29.7182344 97.4306641,30.7963594 97.2958984,32.00925 C97.1611328,33.2221406 96.6220703,34.2328828 95.6787109,35.0414766 C94.7353516,35.7153047 93.6572266,35.9848359 92.4443359,35.8500703 C91.2314453,35.7153047 90.2207031,35.1762422 89.4121094,34.2328828 C88.8730469,33.4242891 88.6035156,32.5483125 88.6035156,31.6049531 C88.6035156,30.6615938 88.8730469,29.7856172 89.4121094,28.9770234 C86.1777344,25.7426484 82.6738281,23.1147188 78.9003906,21.0932344 C75.1366162,19.0769267 71.0376511,17.5969241 66.6034952,16.6532267 C66.5185334,17.3670305 66.4338094,18.018705 66.3671875,18.4653047 C63.9414062,17.5219453 60.3027344,16.1742891 55.4511719,14.4223359 C58.0117188,14.0180391 61.8525391,13.4115938 66.9736328,12.603 Z M89.012,31.768 L89.0078125,31.6049531 C89.0078125,32.5483125 89.2773438,33.3569063 89.8164062,34.0307344 C90.4384014,34.7771286 91.2326415,35.2364481 92.1991263,35.408693 L92.431,35.443 L92.2164033,35.4107069 C91.2421028,35.2319361 90.4421038,34.7045625 89.8164062,33.8285859 C89.33125,33.2221406 89.0644141,32.5611152 89.0158984,31.8455098 L89.012,31.768 Z M91.8603516,28.2882214 L91.6357422,28.3705781 C91.5009766,28.5053438 91.3662109,28.5727266 91.2314453,28.5727266 C91.0966797,28.7074922 90.9619141,28.774875 90.8271484,28.774875 C90.6923828,28.9096406 90.5576172,29.1117891 90.4228516,29.3813203 L90.0185547,29.7856172 C89.6142578,30.3246797 89.4794922,30.931125 89.6142578,31.6049531 C89.6142578,32.4135469 89.8164062,33.087375 90.2207031,33.6264375 C90.8945312,34.3002656 91.6357422,34.7045625 92.4443359,34.8393281 C93.3876953,34.9740938 94.2636719,34.7719453 95.0722656,34.2328828 C95.7460938,33.5590547 96.1503906,32.8178438 96.2851562,32.00925 C96.4095553,31.1384567 96.1894647,30.3250784 95.6248844,29.569115 L95.4765625,29.3813203 C95.0722656,28.8422578 94.4658203,28.4379609 93.6572266,28.1684297 C93.0582682,28.048638 92.4593099,28.0885686 91.8603516,28.2882214 Z M96.029,29.368 L96.1631495,29.5619381 C96.628051,30.2812198 96.8034856,31.0969904 96.6894531,32.00925 C96.6894531,33.087375 96.2177734,33.9633516 95.2744141,34.6371797 L95.405,34.538 L95.4703743,34.4896938 C96.2294623,33.887374 96.6915159,33.1365369 96.856535,32.2371827 L96.8916016,32.00925 C96.8916016,30.931125 96.5546875,29.9877656 95.8808594,29.1791719 L96.029,29.368 Z M106.8755,34.053 C106.8755,33.702 106.7675,33.432 106.5515,33.27 C106.3085,33.108 106.0115,33 105.6335,33 C105.4715,33 105.3365,33.081 105.1745,33.189 C105.0125,33.324 104.8775,33.432 104.7965,33.513 C104.5805,33.729 104.4185,33.918 104.2835,34.134 C104.1215,34.35 103.9325,34.566 103.7705,34.755 C103.2575,35.349 102.7175,35.997 102.1235,36.645 C101.5025,37.32 100.9085,37.914 100.3415,38.454 C100.2875,38.508 100.2065,38.562 100.1525,38.616 L99.9365,38.724 C99.8555,38.778 99.7745,38.805 99.7205,38.859 L99.4775,39.021 C99.3425,39.129 99.2345,39.21 99.1535,39.291 C99.0455,39.399 99.0185,39.48 99.0185,39.561 C99.0185,39.885 99.1535,40.128 99.4775,40.317 C99.7475,40.533 100.0715,40.614 100.3955,40.614 C100.6385,40.614 100.8545,40.56 101.0705,40.452 C101.2595,40.344 101.4485,40.182 101.6645,39.966 C101.7995,39.804 101.9615,39.615 102.1775,39.372 L102.7175,38.778 C102.8525,38.643 103.0685,38.427 103.3385,38.13 C103.6085,37.833 103.9055,37.482 104.2835,37.077 C104.2025,37.509 104.1215,38.022 104.0675,38.616 C103.9595,39.21 103.8785,39.804 103.7975,40.452 L103.5815,42.369 C103.5275,43.017 103.4735,43.638 103.4465,44.178 C103.3925,45.204 103.3385,46.23 103.3115,47.256 C103.2575,48.282 103.2305,49.173 103.2305,49.929 C103.2305,50.361 103.3385,50.685 103.5815,50.928 C103.8245,51.198 104.1485,51.306 104.5805,51.306 C104.7965,51.306 105.0395,51.252 105.3095,51.144 C105.5255,51.036 105.6605,50.901 105.6605,50.739 C105.6605,50.658 105.6335,50.496 105.6335,50.226 C105.5795,49.983 105.5525,49.686 105.5255,49.362 C105.4715,49.065 105.4175,48.741 105.4175,48.39 C105.3635,48.039 105.3635,47.715 105.3635,47.445 C105.3635,45.555 105.4175,43.665 105.5795,41.748 C105.7415,39.858 106.0385,37.968 106.5245,36.105 C106.5515,35.943 106.6055,35.781 106.6595,35.592 L106.7675,35.079 L106.8485,34.566 C106.8485,34.404 106.8755,34.242 106.8755,34.053 Z" transform="translate(0 -19.603)"/></svg>