<svg xmlns="http://www.w3.org/2000/svg" width="70" height="243" viewBox="0 0 70 243"><path fill="#131313" d="M36.3261719,158.030273 C36.3261719,134.176758 36.3261719,98.3964844 36.3261719,50.6894531 C35.1132812,51.9023438 33.3613281,53.6542969 31.0703125,55.9453125 C29.7226562,57.2929688 28.0380859,57.9667969 26.0166016,57.9667969 C23.9951172,57.9667969 22.2431641,57.2929688 20.7607422,55.9453125 C19.2783203,54.4628906 18.5371094,52.7109375 18.5371094,50.6894531 C18.5371094,48.6679688 19.2783203,46.9160156 20.7607422,45.4335938 C24.6689453,41.5253906 30.53125,35.6630859 38.3476562,27.8466797 C39.4257812,26.9033203 40.7060547,26.2294922 42.1884766,25.8251953 C42.5927734,25.8251953 43.0644531,25.8251953 43.6035156,25.8251953 C44.546875,25.8251953 45.4902344,25.9599609 46.4335938,26.2294922 C47.78125,26.9033203 48.859375,27.8466797 49.6679688,29.0595703 C50.4765625,30.2724609 50.8808594,31.6201172 50.8808594,33.1025391 C50.8808594,60.8642578 50.8808594,102.506836 50.8808594,158.030273 C50.8808594,160.051758 50.1396484,161.803711 48.6572266,163.286133 C47.3095703,164.633789 45.625,165.307617 43.6035156,165.307617 C41.5820312,165.307617 39.8300781,164.633789 38.3476562,163.286133 C37,161.803711 36.3261719,160.051758 36.3261719,158.030273 Z M28.3154297,68.6806641 C28.3154297,68.5458984 28.2480469,68.4111328 28.1132812,68.2763672 C27.9785156,68.1416016 27.84375,68.0068359 27.7089844,67.8720703 C27.5742188,67.7373047 27.4394531,67.6025391 27.3046875,67.4677734 C27.1699219,67.3330078 27.0351562,67.1982422 26.9003906,67.0634766 C27.84375,66.1201172 29.3261719,64.7050781 31.3476562,62.8183594 C31.3476562,69.6914062 31.3476562,79.9335938 31.3476562,93.5449219 C30.8085938,93.5449219 30.1347656,93.5449219 29.3261719,93.5449219 C29.3261719,87.8847656 29.3261719,79.3271484 29.3261719,67.8720703 C29.0566406,68.0068359 28.8544922,68.1416016 28.7197266,68.2763672 C28.5849609,68.4111328 28.4501953,68.5458984 28.3154297,68.6806641 Z M29.3261719,95.5664062 C29.3261719,95.1621094 29.3261719,94.4882812 29.3261719,93.5449219 C28.7871094,93.5449219 28.1132812,93.5449219 27.3046875,93.5449219 C27.9785156,96.1054688 28.9892578,99.8789062 30.3369141,104.865234 C31.0107422,102.304688 31.9541016,98.53125 33.1669922,93.5449219 C32.7626953,93.5449219 32.15625,93.5449219 31.3476562,93.5449219 C31.3476562,94.0839844 31.3476562,94.7578125 31.3476562,95.5664062 C30.8085938,95.5664062 30.1347656,95.5664062 29.3261719,95.5664062 Z M29.3261719,95.5664062 C29.7304688,95.5664062 30.4042969,95.5664062 31.3476562,95.5664062 C31.3476562,95.1621094 31.3476562,94.4882812 31.3476562,93.5449219 C30.8085938,93.5449219 30.1347656,93.5449219 29.3261719,93.5449219 C29.3261719,94.0839844 29.3261719,94.7578125 29.3261719,95.5664062 Z M21.4423828,73.9365234 C20.6337891,73.1279297 20.2294922,72.1171875 20.2294922,70.9042969 C20.2294922,69.6914062 20.6337891,68.6806641 21.4423828,67.8720703 C22.2509766,67.0634766 23.1269531,66.5917969 24.0703125,66.4570312 C25.1484375,66.4570312 26.0917969,66.6591797 26.9003906,67.0634766 C26.765625,67.1982422 26.6308594,67.3330078 26.4960938,67.4677734 C25.8222656,67.0634766 25.0136719,66.9287109 24.0703125,67.0634766 C23.2617188,67.1982422 22.5205078,67.5351562 21.8466797,68.0742188 C21.1728516,68.8828125 20.8359375,69.8261719 20.8359375,70.9042969 C20.7011719,71.9824219 21.0380859,72.9257812 21.8466797,73.734375 C22.6552734,74.4082031 23.5986328,74.7451172 24.6767578,74.7451172 C25.7548828,74.7451172 26.6308594,74.4082031 27.3046875,73.734375 C27.9785156,73.0605469 28.3828125,72.2519531 28.5175781,71.3085938 C28.6523438,70.5 28.4501953,69.7587891 27.9111328,69.0849609 C28.0458984,68.9501953 28.1806641,68.8154297 28.3154297,68.6806641 C28.8544922,69.4892578 29.0566406,70.3652344 28.921875,71.3085938 C28.921875,72.3867188 28.5175781,73.2626953 27.7089844,73.9365234 C26.9003906,74.8798828 25.8896484,75.3515625 24.6767578,75.3515625 C23.4638672,75.3515625 22.3857422,74.8798828 21.4423828,73.9365234 Z M21.4423828,67.8720703 C21.7119141,67.6025391 21.8466797,67.4677734 21.8466797,67.4677734 C21.9814453,67.3330078 22.0488281,67.265625 22.0488281,67.265625 C22.0488281,67.265625 21.9814453,67.3330078 21.8466797,67.4677734 C21.7119141,67.6025391 21.5771484,67.7373047 21.4423828,67.8720703 Z M21.2402344,68.0742188 C21.2402344,68.0742188 21.3076172,68.0068359 21.4423828,67.8720703 C21.4423828,67.8720703 21.4423828,67.8720703 21.4423828,67.8720703 C21.4423828,67.8720703 21.4423828,67.8720703 21.4423828,67.8720703 C21.3076172,68.0068359 21.2402344,68.0742188 21.2402344,68.0742188 Z M27.3046875,68.0742188 C27.1699219,67.9394531 27.0351562,67.8720703 26.9003906,67.8720703 C26.765625,67.7373047 26.6308594,67.6025391 26.4960938,67.4677734 C26.6308594,67.4677734 26.765625,67.3330078 26.9003906,67.0634766 C27.0351562,67.1982422 27.1699219,67.3330078 27.3046875,67.4677734 C27.4394531,67.6025391 27.5742188,67.7373047 27.7089844,67.8720703 C27.84375,68.0068359 27.9785156,68.1416016 28.1132812,68.2763672 C28.2480469,68.4111328 28.3154297,68.5458984 28.3154297,68.6806641 C28.3154297,68.6806641 28.1806641,68.8154297 27.9111328,69.0849609 C27.9111328,68.8154297 27.84375,68.6132812 27.7089844,68.4785156 C27.5742188,68.34375 27.4394531,68.2089844 27.3046875,68.0742188 Z M27.1025391,73.3300781 C27.6416016,72.7910156 27.9111328,72.1845703 27.9111328,71.5107422 C28.0458984,70.7021484 27.9785156,69.9609375 27.7089844,69.2871094 C27.7089844,69.2871094 27.7763672,69.2197266 27.9111328,69.0849609 C28.4501953,69.7587891 28.6523438,70.5673828 28.5175781,71.5107422 C28.3828125,72.3193359 27.9785156,73.0605469 27.3046875,73.734375 C26.6308594,74.4082031 25.7548828,74.7451172 24.6767578,74.7451172 C23.5986328,74.7451172 22.6552734,74.4082031 21.8466797,73.734375 C21.1728516,72.9257812 20.8359375,71.9824219 20.8359375,70.9042969 C20.8359375,69.8261719 21.1728516,68.8828125 21.8466797,68.0742188 C22.5205078,67.5351562 23.2617188,67.1982422 24.0703125,67.0634766 C25.0136719,66.9287109 25.8222656,67.0634766 26.4960938,67.4677734 C26.4960938,67.6025391 26.3613281,67.7373047 26.0917969,67.8720703 C25.5527344,67.6025391 24.8789062,67.5351562 24.0703125,67.6699219 C23.3964844,67.6699219 22.7900391,67.9394531 22.2509766,68.4785156 C21.5771484,69.1523438 21.2402344,69.9609375 21.2402344,70.9042969 C21.2402344,71.8476562 21.5771484,72.65625 22.2509766,73.3300781 C22.9248047,74.0039062 23.7333984,74.3408203 24.6767578,74.3408203 C25.6201172,74.3408203 26.4287109,74.0039062 27.1025391,73.3300781 C26.9677734,73.3300781 26.9003906,73.3974609 26.9003906,73.5322266 C26.765625,73.5322266 26.6982422,73.5322266 26.6982422,73.5322266 C26.6982422,73.5322266 26.6982422,73.5996094 26.6982422,73.734375 C26.6982422,73.734375 26.6982422,73.734375 26.6982422,73.734375 C26.6982422,73.734375 26.6982422,73.734375 26.6982422,73.734375 C26.6982422,73.5996094 26.6982422,73.5322266 26.6982422,73.5322266 C26.6982422,73.5322266 26.765625,73.5322266 26.9003906,73.5322266 C26.9003906,73.3974609 26.9677734,73.3300781 27.1025391,73.3300781 Z M26.4960938,67.4677734 C26.6308594,67.6025391 26.765625,67.7373047 26.9003906,67.8720703 C27.0351562,68.0068359 27.1699219,68.0742188 27.3046875,68.0742188 C27.4394531,68.2089844 27.5742188,68.34375 27.7089844,68.4785156 C27.84375,68.6132812 27.9111328,68.8154297 27.9111328,69.0849609 C27.9111328,69.0849609 27.84375,69.1523438 27.7089844,69.2871094 C27.5742188,69.1523438 27.4394531,69.0175781 27.3046875,68.8828125 C27.3046875,68.7480469 27.2373047,68.6132812 27.1025391,68.4785156 C26.9677734,68.34375 26.8330078,68.2763672 26.6982422,68.2763672 C26.5634766,68.1416016 26.3613281,68.0068359 26.0917969,67.8720703 C26.2265625,67.8720703 26.2939453,67.8046875 26.2939453,67.6699219 C26.4287109,67.6699219 26.4960938,67.6025391 26.4960938,67.4677734 Z M12.9521484,65.6484375 C12.8173828,65.7832031 12.75,65.8505859 12.75,65.8505859 C12.6152344,65.9853516 12.4804688,66.0527344 12.3457031,66.0527344 C12.2109375,66.0527344 12.0761719,65.9853516 11.9414062,65.8505859 C11.9414062,65.8505859 11.8740234,65.7832031 11.7392578,65.6484375 C11.6044922,65.6484375 11.5371094,65.5810547 11.5371094,65.4462891 C11.5371094,65.3115234 11.5371094,65.1767578 11.5371094,65.0419922 C11.5371094,64.9072266 11.5371094,64.8398438 11.5371094,64.8398438 C11.5371094,64.7050781 11.6044922,64.5703125 11.7392578,64.4355469 C12.0087891,64.1660156 12.2783203,63.8964844 12.5478516,63.6269531 C12.9521484,63.2226562 13.3564453,62.8183594 13.7607422,62.4140625 C13.8955078,62.2792969 13.9628906,62.2119141 13.9628906,62.2119141 C14.0976562,62.2119141 14.2324219,62.1445312 14.3671875,62.0097656 C14.3671875,62.0097656 14.3671875,62.0097656 14.3671875,62.0097656 C14.3671875,62.0097656 14.3671875,62.0097656 14.3671875,62.0097656 C14.5019531,62.0097656 14.5693359,62.0771484 14.5693359,62.2119141 C14.7041016,62.2119141 14.7714844,62.2119141 14.7714844,62.2119141 C14.90625,62.2119141 14.9736328,62.2119141 14.9736328,62.2119141 C15.1083984,62.3466797 15.1757812,62.4814453 15.1757812,62.6162109 C15.1757812,62.6162109 15.2431641,62.6835938 15.3779297,62.8183594 C15.3779297,62.8183594 15.3779297,62.8857422 15.3779297,63.0205078 C15.3779297,64.6376953 15.3779297,66.7265625 15.3779297,69.2871094 C15.3779297,71.7128906 15.3779297,74.6103516 15.3779297,77.9794922 C15.3779297,78.1142578 15.3105469,78.2490234 15.1757812,78.3837891 C15.1757812,78.3837891 15.1083984,78.4511719 14.9736328,78.5859375 C14.9736328,78.7207031 14.90625,78.7880859 14.7714844,78.7880859 C14.6367188,78.7880859 14.5019531,78.7880859 14.3671875,78.7880859 C14.3671875,78.7880859 14.2998047,78.7880859 14.1650391,78.7880859 C14.0302734,78.7880859 13.8955078,78.7207031 13.7607422,78.5859375 C13.7607422,78.4511719 13.6933594,78.3837891 13.5585938,78.3837891 C13.5585938,78.2490234 13.5585938,78.1142578 13.5585938,77.9794922 C13.5585938,76.4970703 13.5585938,74.6777344 13.5585938,72.5214844 C13.5585938,70.5 13.5585938,68.0068359 13.5585938,65.0419922 C13.5585938,65.1767578 13.4912109,65.3115234 13.3564453,65.4462891 C13.2216797,65.4462891 13.0869141,65.5136719 12.9521484,65.6484375 Z"/></svg>