<svg xmlns="http://www.w3.org/2000/svg" width="70" height="203" viewBox="0 0 70 203"><path fill="#131313" d="M528.270616,195.030273 C528.270616,171.176758 528.270616,135.396484 528.270616,87.6894531 C527.057726,88.9023437 525.305773,90.6542969 523.014757,92.9453125 C521.667101,94.2929688 519.98253,94.9667969 517.961046,94.9667969 C515.939562,94.9667969 514.187609,94.2929688 512.705187,92.9453125 C511.222765,91.4628906 510.481554,89.7109375 510.481554,87.6894531 C510.481554,85.6679688 511.222765,83.9160156 512.705187,82.4335938 C516.61339,78.5253906 522.475694,72.6630859 530.292101,64.8466797 C531.370226,63.9033203 532.650499,63.2294922 534.132921,62.8251953 C534.537218,62.8251953 535.008898,62.8251953 535.54796,62.8251953 C536.491319,62.8251953 537.434679,62.9599609 538.378038,63.2294922 C539.725694,63.9033203 540.803819,64.8466797 541.612413,66.0595703 C542.421007,67.2724609 542.825304,68.6201172 542.825304,70.1025391 C542.825304,97.8642578 542.825304,139.506836 542.825304,195.030273 C542.825304,197.051758 542.084093,198.803711 540.601671,200.286133 C539.254015,201.633789 537.569444,202.307617 535.54796,202.307617 C533.526476,202.307617 531.774523,201.633789 530.292101,200.286133 C528.944444,198.803711 528.270616,197.051758 528.270616,195.030273 Z M520.259874,105.680664 C520.259874,105.545898 520.192491,105.411133 520.057726,105.276367 C519.92296,105.141602 519.788194,105.006836 519.653429,104.87207 C519.518663,104.737305 519.383898,104.602539 519.249132,104.467773 C519.114366,104.333008 518.979601,104.198242 518.844835,104.063477 C519.788194,103.120117 521.270616,101.705078 523.292101,99.8183594 C523.292101,106.691406 523.292101,116.933594 523.292101,130.544922 C522.753038,130.544922 522.07921,130.544922 521.270616,130.544922 C521.270616,124.884766 521.270616,116.327148 521.270616,104.87207 C521.001085,105.006836 520.798937,105.141602 520.664171,105.276367 C520.529405,105.411133 520.39464,105.545898 520.259874,105.680664 Z M519.249132,130.544922 C519.92296,133.105469 520.933702,136.878906 522.281359,141.865234 C522.955187,139.304688 523.898546,135.53125 525.111437,130.544922 C524.70714,130.544922 520.057726,130.544922 519.249132,130.544922 Z M513.386827,110.936523 C512.578234,110.12793 512.173937,109.117188 512.173937,107.904297 C512.173937,106.691406 512.578234,105.680664 513.386827,104.87207 C514.195421,104.063477 515.071398,103.591797 516.014757,103.457031 C517.092882,103.457031 518.036241,103.65918 518.844835,104.063477 C518.710069,104.198242 518.575304,104.333008 518.440538,104.467773 C517.76671,104.063477 516.958116,103.928711 516.014757,104.063477 C515.206163,104.198242 514.464952,104.535156 513.791124,105.074219 C513.117296,105.882812 512.780382,106.826172 512.780382,107.904297 C512.645616,108.982422 512.98253,109.925781 513.791124,110.734375 C514.599718,111.408203 515.543077,111.745117 516.621202,111.745117 C517.699327,111.745117 518.575304,111.408203 519.249132,110.734375 C519.92296,110.060547 520.327257,109.251953 520.462023,108.308594 C520.596788,107.5 520.39464,106.758789 519.855577,106.084961 C519.990343,105.950195 520.125109,105.81543 520.259874,105.680664 C520.798937,106.489258 521.001085,107.365234 520.866319,108.308594 C520.866319,109.386719 520.462023,110.262695 519.653429,110.936523 C518.844835,111.879883 517.834093,112.351562 516.621202,112.351562 C515.408312,112.351562 514.330187,111.879883 513.386827,110.936523 Z M519.249132,105.074219 C519.114366,104.939453 518.979601,104.87207 518.844835,104.87207 C518.710069,104.737305 518.575304,104.602539 518.440538,104.467773 C518.575304,104.467773 518.710069,104.333008 518.844835,104.063477 C518.979601,104.198242 519.114366,104.333008 519.249132,104.467773 C519.383898,104.602539 519.518663,104.737305 519.653429,104.87207 C519.788194,105.006836 519.92296,105.141602 520.057726,105.276367 C520.192491,105.411133 520.259874,105.545898 520.259874,105.680664 C520.259874,105.680664 520.125109,105.81543 519.855577,106.084961 C519.855577,105.81543 519.788194,105.613281 519.653429,105.478516 C519.518663,105.34375 519.383898,105.208984 519.249132,105.074219 Z M519.046984,110.330078 C519.586046,109.791016 519.855577,109.18457 519.855577,108.510742 C519.990343,107.702148 519.92296,106.960938 519.653429,106.287109 C519.653429,106.287109 519.720812,106.219727 519.855577,106.084961 C520.39464,106.758789 520.596788,107.567383 520.462023,108.510742 C520.327257,109.319336 519.92296,110.060547 519.249132,110.734375 C518.575304,111.408203 517.699327,111.745117 516.621202,111.745117 C515.543077,111.745117 514.599718,111.408203 513.791124,110.734375 C513.117296,109.925781 512.780382,108.982422 512.780382,107.904297 C512.780382,106.826172 513.117296,105.882812 513.791124,105.074219 C514.464952,104.535156 515.206163,104.198242 516.014757,104.063477 C516.958116,103.928711 517.76671,104.063477 518.440538,104.467773 C518.440538,104.602539 518.305773,104.737305 518.036241,104.87207 C517.497179,104.602539 516.823351,104.535156 516.014757,104.669922 C515.340929,104.669922 514.734484,104.939453 514.195421,105.478516 C513.521593,106.152344 513.184679,106.960938 513.184679,107.904297 C513.184679,108.847656 513.521593,109.65625 514.195421,110.330078 C514.869249,111.003906 515.677843,111.34082 516.621202,111.34082 C517.564562,111.34082 518.373155,111.003906 519.046984,110.330078 C518.912218,110.330078 518.844835,110.397461 518.844835,110.532227 C518.710069,110.532227 518.642687,110.532227 518.642687,110.532227 C518.642687,110.532227 518.642687,110.599609 518.642687,110.734375 C518.642687,110.734375 518.642687,110.734375 518.642687,110.734375 C518.642687,110.734375 518.642687,110.734375 518.642687,110.734375 C518.642687,110.599609 518.642687,110.532227 518.642687,110.532227 C518.642687,110.532227 518.710069,110.532227 518.844835,110.532227 C518.844835,110.397461 518.912218,110.330078 519.046984,110.330078 Z M518.440538,104.467773 C518.575304,104.602539 518.710069,104.737305 518.844835,104.87207 C518.979601,105.006836 519.114366,105.074219 519.249132,105.074219 C519.383898,105.208984 519.518663,105.34375 519.653429,105.478516 C519.788194,105.613281 519.855577,105.81543 519.855577,106.084961 C519.855577,106.084961 519.788194,106.152344 519.653429,106.287109 C519.518663,106.152344 519.383898,106.017578 519.249132,105.882812 C519.249132,105.748047 519.181749,105.613281 519.046984,105.478516 C518.912218,105.34375 518.777452,105.276367 518.642687,105.276367 C518.507921,105.141602 518.305773,105.006836 518.036241,104.87207 C518.171007,104.87207 518.23839,104.804688 518.23839,104.669922 C518.373155,104.669922 518.440538,104.602539 518.440538,104.467773 Z M507.8755,100.45 C507.8755,100.099 507.7675,99.829 507.5515,99.667 C507.3085,99.505 507.0115,99.397 506.6335,99.397 C506.4715,99.397 506.3365,99.478 506.1745,99.586 C506.0125,99.721 505.8775,99.829 505.7965,99.91 C505.5805,100.126 505.4185,100.315 505.2835,100.531 C505.1215,100.747 504.9325,100.963 504.7705,101.152 C504.2575,101.746 503.7175,102.394 503.1235,103.042 C502.5025,103.717 501.9085,104.311 501.3415,104.851 C501.2875,104.905 501.2065,104.959 501.1525,105.013 L500.9365,105.121 C500.8555,105.175 500.7745,105.202 500.7205,105.256 L500.4775,105.418 C500.3425,105.526 500.2345,105.607 500.1535,105.688 C500.0455,105.796 500.0185,105.877 500.0185,105.958 C500.0185,106.282 500.1535,106.525 500.4775,106.714 C500.7475,106.93 501.0715,107.011 501.3955,107.011 C501.6385,107.011 501.8545,106.957 502.0705,106.849 C502.2595,106.741 502.4485,106.579 502.6645,106.363 C502.7995,106.201 502.9615,106.012 503.1775,105.769 L503.7175,105.175 C503.8525,105.04 504.0685,104.824 504.3385,104.527 C504.6085,104.23 504.9055,103.879 505.2835,103.474 C505.2025,103.906 505.1215,104.419 505.0675,105.013 C504.9595,105.607 504.8785,106.201 504.7975,106.849 L504.5815,108.766 C504.5275,109.414 504.4735,110.035 504.4465,110.575 C504.3925,111.601 504.3385,112.627 504.3115,113.653 C504.2575,114.679 504.2305,115.57 504.2305,116.326 C504.2305,116.758 504.3385,117.082 504.5815,117.325 C504.8245,117.595 505.1485,117.703 505.5805,117.703 C505.7965,117.703 506.0395,117.649 506.3095,117.541 C506.5255,117.433 506.6605,117.298 506.6605,117.136 C506.6605,117.055 506.6335,116.893 506.6335,116.623 C506.5795,116.38 506.5525,116.083 506.5255,115.759 C506.4715,115.462 506.4175,115.138 506.4175,114.787 C506.3635,114.436 506.3635,114.112 506.3635,113.842 C506.3635,111.952 506.4175,110.062 506.5795,108.145 C506.7415,106.255 507.0385,104.365 507.5245,102.502 C507.5515,102.34 507.6055,102.178 507.6595,101.989 L507.7675,101.476 L507.8485,100.963 C507.8485,100.801 507.8755,100.639 507.8755,100.45 Z" transform="translate(-491.944)"/></svg>