<svg xmlns="http://www.w3.org/2000/svg" width="110" height="203" viewBox="0 0 110 203"><path fill="#131313" d="M963.166233,202.482422 C962.222873,202.482422 961.279514,202.280273 960.336155,201.875977 C959.392795,201.47168 958.584201,200.932617 957.910373,200.258789 C957.236545,199.450195 956.697483,198.574219 956.293186,197.630859 C956.023655,196.822266 955.888889,196.013672 955.888889,195.205078 C955.888889,194.935547 955.888889,194.733398 955.888889,194.598633 C956.023655,194.05957 956.832248,190.488281 958.31467,183.884766 C959.662326,177.146484 963.09885,169.532227 968.62424,161.041992 C971.454319,156.594727 975.09299,152.080078 979.540256,147.498047 C983.852756,143.050781 989.108615,138.873047 995.307834,134.964844 C1008.11057,127.013672 1016.12912,120.208008 1019.3635,114.547852 C1022.59787,108.887695 1024.21506,103.766602 1024.21506,99.1845703 C1024.21506,97.8369141 1024.0803,96.2871094 1023.81076,94.5351562 C1023.54123,92.9179687 1023.06955,91.2333984 1022.39572,89.4814453 C1020.9133,86.3818359 1018.42014,83.6191406 1014.91623,81.1933594 C1011.27756,78.7675781 1005.81955,77.5546875 998.542209,77.5546875 C992.882053,77.5546875 988.165256,78.7001953 984.391819,80.9912109 C980.483615,83.4169922 977.451389,86.9882812 975.295139,91.7050781 C974.486545,93.5917969 973.071506,94.8720703 971.050022,95.5458984 C969.163303,96.2197266 967.343967,96.0849609 965.592014,95.1416016 C963.705295,94.3330078 962.425022,92.9853516 961.751194,91.0986328 C961.077365,89.2119141 961.144748,87.3251953 961.953342,85.4384766 C965.457248,78.0263672 970.308811,72.4335938 976.50803,68.6601562 C982.707248,64.8867188 990.051975,63 998.542209,63 C1013.36643,63 1023.81076,66.8408203 1029.87522,74.5224609 C1035.93967,82.2041016 1038.9719,90.4248047 1038.9719,99.1845703 C1038.9719,108.213867 1036.14182,116.569336 1030.48166,124.250977 C1024.82151,131.797852 1015.72483,139.479492 1003.19162,147.295898 C993.084201,153.629883 985.806858,160.705078 981.359592,168.521484 C976.777561,176.337891 973.745334,182.806641 972.262912,187.927734 C985.87424,187.927734 1006.35862,187.927734 1033.71604,187.927734 C1035.73752,187.927734 1037.42209,188.601563 1038.76975,189.949219 C1040.25217,191.431641 1040.99338,193.183594 1040.99338,195.205078 C1040.99338,197.226562 1040.25217,198.978516 1038.76975,200.460938 C1037.42209,201.808594 1035.73752,202.482422 1033.71604,202.482422 C1021.99143,202.482422 1010.26682,202.482422 998.542209,202.482422 C986.8176,202.482422 975.025608,202.482422 963.166233,202.482422 Z M991.062717,88.875 C990.927951,88.6054688 990.725803,88.3359375 990.456272,88.0664062 C990.18674,87.796875 989.917209,87.5947266 989.647678,87.4599609 C990.995334,86.5166016 992.545139,85.8427734 994.297092,85.4384766 C995.91428,85.0341797 997.868381,84.8320312 1000.1594,84.8320312 C1003.12424,84.8320312 1005.75217,85.1015625 1008.04319,85.640625 C1010.19944,86.1796875 1012.01877,86.9882812 1013.50119,88.0664062 C1012.96213,88.2011719 1012.15354,88.4707031 1011.07541,88.875 C1009.86252,88.2011719 1008.31272,87.6621094 1006.426,87.2578125 C1004.53928,86.9882812 1002.45041,86.8535156 1000.1594,86.8535156 C998.137912,86.8535156 996.385959,86.9882812 994.903537,87.2578125 C993.421115,87.6621094 992.140842,88.2011719 991.062717,88.875 Z M1015.92697,87.0556641 C1016.19651,89.6162109 1016.6008,93.4570312 1017.13987,98.578125 C1015.65744,96.5566406 1013.36643,93.4570312 1010.26682,89.2792969 C1011.18601,88.5730366 1014.84885,87.4599609 1015.92697,87.0556641 Z M984.796115,94.7373047 C983.852756,94.1982422 983.246311,93.3222656 982.97678,92.109375 C982.707248,90.8964844 982.842014,89.7509766 983.381076,88.6728516 C984.054905,87.7294922 984.998264,87.1230469 986.211155,86.8535156 C987.424045,86.5839844 988.50217,86.71875 989.44553,87.2578125 C989.44553,87.2578125 989.512912,87.2578125 989.647678,87.2578125 C989.647678,87.3925781 989.647678,87.4599609 989.647678,87.4599609 C989.512912,87.4599609 989.44553,87.4599609 989.44553,87.4599609 C989.310764,87.5947266 989.243381,87.6621094 989.243381,87.6621094 C988.300022,87.1230469 987.28928,86.9882812 986.211155,87.2578125 C985.13303,87.5273438 984.324436,88.1337891 983.785373,89.0771484 C983.246311,90.0205078 983.111545,90.9638672 983.381076,91.9072266 C983.650608,92.9853516 984.257053,93.7939453 985.200412,94.3330078 C986.143772,94.8720703 987.087131,95.0742188 988.03049,94.9394531 C989.108615,94.6699219 989.917209,94.0634766 990.456272,93.1201172 C990.860569,92.4462891 991.062717,91.7724609 991.062717,91.0986328 C991.062717,90.4248047 990.927951,89.8183594 990.65842,89.2792969 C990.65842,89.1445312 990.725803,89.0771484 990.860569,89.0771484 C990.860569,89.0771484 990.927951,89.0097656 991.062717,88.875 C991.467014,89.5488281 991.669162,90.2900391 991.669162,91.0986328 C991.669162,91.9072266 991.467014,92.6484375 991.062717,93.3222656 C990.388889,94.4003906 989.44553,95.0742188 988.232639,95.34375 C987.019748,95.6132813 985.87424,95.4111328 984.796115,94.7373047 Z M983.785373,88.2685547 C983.650608,88.4033203 983.448459,88.6728516 983.178928,89.0771484 C982.909397,89.6162109 982.97678,89.4814453 983.381076,88.6728516 C983.515842,88.5380859 983.583225,88.4707031 983.583225,88.4707031 C983.71799,88.3359375 983.785373,88.2685547 983.785373,88.2685547 Z M989.243381,87.6621094 C989.243381,87.6621094 989.243381,87.6621094 989.243381,87.6621094 C989.243381,87.6621094 989.243381,87.6621094 989.243381,87.6621094 C989.243381,87.6621094 989.310764,87.5947266 989.44553,87.4599609 C989.44553,87.4599609 989.512912,87.4599609 989.647678,87.4599609 C989.917209,87.5947266 990.18674,87.796875 990.456272,88.0664062 C990.725803,88.3359375 990.927951,88.6054688 991.062717,88.875 C990.927951,89.0097656 990.860569,89.0771484 990.860569,89.0771484 C990.725803,89.0771484 990.65842,89.1445312 990.65842,89.2792969 C990.523655,88.875 990.321506,88.6054688 990.051975,88.4707031 C989.782444,88.2011719 989.512912,87.9316406 989.243381,87.6621094 Z M990.051975,92.7158203 C990.321506,92.3115234 990.523655,91.7724609 990.65842,91.0986328 C990.65842,90.5595703 990.523655,90.0205078 990.254123,89.4814453 C990.254123,89.4814453 990.321506,89.4140625 990.456272,89.2792969 C990.456272,89.2792969 990.523655,89.2792969 990.65842,89.2792969 C990.927951,89.8183594 991.062717,90.4248047 991.062717,91.0986328 C991.062717,91.7724609 990.860569,92.4462891 990.456272,93.1201172 C989.917209,94.0634766 989.108615,94.6025391 988.03049,94.7373047 C987.087131,95.0068359 986.143772,94.8720703 985.200412,94.3330078 C984.257053,93.7939453 983.650608,92.9853516 983.381076,91.9072266 C983.111545,90.9638672 983.246311,90.0205078 983.785373,89.0771484 C984.459201,88.1337891 985.267795,87.5273438 986.211155,87.2578125 C987.28928,86.9882812 988.300022,87.1230469 989.243381,87.6621094 C989.108615,87.796875 988.97385,87.8642578 988.839084,87.8642578 C988.839084,87.8642578 988.771701,87.9316406 988.636936,88.0664062 C987.828342,87.6621094 987.019748,87.5947266 986.211155,87.8642578 C985.402561,88.1337891 984.796115,88.6054688 984.391819,89.2792969 C983.852756,90.0878906 983.71799,90.9638672 983.987522,91.9072266 C984.122287,92.7158203 984.593967,93.3896484 985.402561,93.9287109 C986.211155,94.4677734 987.087131,94.6025391 988.03049,94.3330078 C988.839084,94.0634766 989.512912,93.5244141 990.051975,92.7158203 Z M977.6335,99.397 C978.0115,99.397 978.3085,99.505 978.5515,99.667 C978.7675,99.829 978.8755,100.099 978.8755,100.45 C978.8755,100.639 978.8485,100.801 978.8485,100.963 L978.7675,101.476 L978.6595,101.989 C978.6055,102.178 978.5515,102.34 978.5245,102.502 C978.0385,104.365 977.7415,106.255 977.5795,108.145 C977.4175,110.062 977.3635,111.952 977.3635,113.842 C977.3635,114.112 977.3635,114.436 977.4175,114.787 C977.4175,115.138 977.4715,115.462 977.5255,115.759 C977.5525,116.083 977.5795,116.38 977.6335,116.623 C977.6335,116.893 977.6605,117.055 977.6605,117.136 C977.6605,117.298 977.5255,117.433 977.3095,117.541 C977.0395,117.649 976.7965,117.703 976.5805,117.703 C976.1485,117.703 975.8245,117.595 975.5815,117.325 C975.3385,117.082 975.2305,116.758 975.2305,116.326 C975.2305,115.57 975.2575,114.679 975.3115,113.653 C975.3385,112.627 975.3925,111.601 975.4465,110.575 C975.4735,110.035 975.5275,109.414 975.5815,108.766 L975.7975,106.849 C975.8785,106.201 975.9595,105.607 976.0675,105.013 C976.1215,104.419 976.2025,103.906 976.2835,103.474 C975.9055,103.879 975.6085,104.23 975.3385,104.527 C975.0685,104.824 974.8525,105.04 974.7175,105.175 L974.1775,105.769 C973.9615,106.012 973.7995,106.201 973.6645,106.363 C973.4485,106.579 973.2595,106.741 973.0705,106.849 C972.8545,106.957 972.6385,107.011 972.3955,107.011 C972.0715,107.011 971.7475,106.93 971.4775,106.714 C971.1535,106.525 971.0185,106.282 971.0185,105.958 C971.0185,105.877 971.0455,105.796 971.1535,105.688 C971.2345,105.607 971.3425,105.526 971.4775,105.418 L971.7205,105.256 C971.7745,105.202 971.8555,105.175 971.9365,105.121 L972.1525,105.013 C972.2065,104.959 972.2875,104.905 972.3415,104.851 C972.9085,104.311 973.5025,103.717 974.1235,103.042 C974.7175,102.394 975.2575,101.746 975.7705,101.152 C975.9325,100.963 976.1215,100.747 976.2835,100.531 C976.4185,100.315 976.5805,100.126 976.7965,99.91 C976.8775,99.829 977.0125,99.721 977.1745,99.586 C977.3365,99.478 977.4715,99.397 977.6335,99.397 Z M989.243381,87.6621094 C989.512912,87.9316406 989.782444,88.2011719 990.051975,88.4707031 C990.321506,88.6054688 990.523655,88.875 990.65842,89.2792969 L990.456272,89.2792969 L990.343967,89.3916016 C990.328993,89.4065755 990.315891,89.4196777 990.30466,89.4309082 L990.259738,89.4758301 C990.119358,89.2119141 989.917209,88.9423828 989.647678,88.6728516 C989.512912,88.5380859 989.310764,88.4033203 989.041233,88.2685547 L988.861545,88.0888672 C988.846571,88.0738932 988.839084,88.0664062 988.839084,88.0664062 L988.636936,88.0664062 C988.704319,87.9990234 988.754856,87.9484863 988.788547,87.9147949 L988.833469,87.869873 C988.97385,87.8642578 989.108615,87.796875 989.243381,87.6621094 Z" transform="translate(-943.389)"/></svg>