<svg xmlns="http://www.w3.org/2000/svg" width="110" height="203" viewBox="0 0 110 203"><path fill="#131313" d="M963.166233,161.085422 C962.222873,161.085422 961.279514,160.883273 960.336155,160.478977 C959.392795,160.07468 958.584201,159.535617 957.910373,158.861789 C957.236545,158.053195 956.697483,157.177219 956.293186,156.233859 C956.023655,155.425266 955.888889,154.616672 955.888889,153.808078 C955.888889,153.538547 955.888889,153.336398 955.888889,153.201633 C956.023655,152.66257 956.832248,149.091281 958.31467,142.487766 C959.662326,135.749484 963.09885,128.135227 968.62424,119.644992 C971.454319,115.197727 975.09299,110.683078 979.540256,106.101047 C983.852756,101.653781 989.108615,97.4760469 995.307834,93.5678437 C1008.11057,85.6166719 1016.12912,78.8110078 1019.3635,73.1508516 C1022.59787,67.4906953 1024.21506,62.3696016 1024.21506,57.7875703 C1024.21506,56.4399141 1024.0803,54.8901094 1023.81076,53.1381562 C1023.54123,51.5209687 1023.06955,49.8363984 1022.39572,48.0844453 C1020.9133,44.9848359 1018.42014,42.2221406 1014.91623,39.7963594 C1011.27756,37.3705781 1005.81955,36.1576875 998.542209,36.1576875 C992.882053,36.1576875 988.165256,37.3031953 984.391819,39.5942109 C980.483615,42.0199922 977.451389,45.5912812 975.295139,50.3080781 C974.486545,52.1947969 973.071506,53.4750703 971.050022,54.1488984 C969.163303,54.8227266 967.343967,54.6879609 965.592014,53.7446016 C963.705295,52.9360078 962.425022,51.5883516 961.751194,49.7016328 C961.077365,47.8149141 961.144748,45.9281953 961.953342,44.0414766 C965.457248,36.6293672 970.308811,31.0365938 976.50803,27.2631563 C982.707248,23.4897188 990.051975,21.603 998.542209,21.603 C1013.36643,21.603 1023.81076,25.4438203 1029.87522,33.1254609 C1035.93967,40.8071016 1038.9719,49.0278047 1038.9719,57.7875703 C1038.9719,66.8168672 1036.14182,75.1723359 1030.48166,82.8539766 C1024.82151,90.4008516 1015.72483,98.0824922 1003.19162,105.898898 C993.084201,112.232883 985.806858,119.308078 981.359592,127.124484 C976.777561,134.940891 973.745334,141.409641 972.262912,146.530734 C985.87424,146.530734 1006.35862,146.530734 1033.71604,146.530734 C1035.73752,146.530734 1037.42209,147.204563 1038.76975,148.552219 C1040.25217,150.034641 1040.99338,151.786594 1040.99338,153.808078 C1040.99338,155.829562 1040.25217,157.581516 1038.76975,159.063938 C1037.42209,160.411594 1035.73752,161.085422 1033.71604,161.085422 C1021.99143,161.085422 1010.26682,161.085422 998.542209,161.085422 C986.8176,161.085422 975.025608,161.085422 963.166233,161.085422 Z M991.062717,47.478 C990.927951,47.2084688 990.725803,46.9389375 990.456272,46.6694063 C990.18674,46.399875 989.917209,46.1977266 989.647678,46.0629609 C990.995334,45.1196016 992.545139,44.4457734 994.297092,44.0414766 C995.91428,43.6371797 997.868381,43.4350313 1000.1594,43.4350313 C1003.12424,43.4350313 1005.75217,43.7045625 1008.04319,44.243625 C1010.19944,44.7826875 1012.01877,45.5912813 1013.50119,46.6694063 C1012.96213,46.8041719 1012.15354,47.0737031 1011.07541,47.478 C1009.86252,46.8041719 1008.31272,46.2651094 1006.426,45.8608125 C1004.53928,45.5912813 1002.45041,45.4565156 1000.1594,45.4565156 C998.137912,45.4565156 996.385959,45.5912813 994.903537,45.8608125 C993.421115,46.2651094 992.140842,46.8041719 991.062717,47.478 Z M1015.92697,45.6586641 C1016.19651,48.2192109 1016.6008,52.0600313 1017.13987,57.181125 C1015.65744,55.1596406 1013.36643,52.0600313 1010.26682,47.8822969 C1011.18601,47.1760366 1014.84885,46.0629609 1015.92697,45.6586641 Z M984.796115,53.3403047 C983.852756,52.8012422 983.246311,51.9252656 982.97678,50.712375 C982.707248,49.4994844 982.842014,48.3539766 983.381076,47.2758516 C984.054905,46.3324922 984.998264,45.7260469 986.211155,45.4565156 C987.424045,45.1869844 988.50217,45.32175 989.44553,45.8608125 C989.44553,45.8608125 989.512912,45.8608125 989.647678,45.8608125 C989.647678,45.9955781 989.647678,46.0629609 989.647678,46.0629609 C989.512912,46.0629609 989.44553,46.0629609 989.44553,46.0629609 C989.310764,46.1977266 989.243381,46.2651094 989.243381,46.2651094 C988.300022,45.7260469 987.28928,45.5912813 986.211155,45.8608125 C985.13303,46.1303438 984.324436,46.7367891 983.785373,47.6801484 C983.246311,48.6235078 983.111545,49.5668672 983.381076,50.5102266 C983.650608,51.5883516 984.257053,52.3969453 985.200412,52.9360078 C986.143772,53.4750703 987.087131,53.6772188 988.03049,53.5424531 C989.108615,53.2729219 989.917209,52.6664766 990.456272,51.7231172 C990.860569,51.0492891 991.062717,50.3754609 991.062717,49.7016328 C991.062717,49.0278047 990.927951,48.4213594 990.65842,47.8822969 C990.65842,47.7475313 990.725803,47.6801484 990.860569,47.6801484 C990.860569,47.6801484 990.927951,47.6127656 991.062717,47.478 C991.467014,48.1518281 991.669162,48.8930391 991.669162,49.7016328 C991.669162,50.5102266 991.467014,51.2514375 991.062717,51.9252656 C990.388889,53.0033906 989.44553,53.6772188 988.232639,53.94675 C987.019748,54.2162813 985.87424,54.0141328 984.796115,53.3403047 Z M983.785373,46.8715547 C983.650608,47.0063203 983.448459,47.2758516 983.178928,47.6801484 C982.909397,48.2192109 982.97678,48.0844453 983.381076,47.2758516 C983.515842,47.1410859 983.583225,47.0737031 983.583225,47.0737031 C983.71799,46.9389375 983.785373,46.8715547 983.785373,46.8715547 Z M989.243381,46.2651094 C989.243381,46.2651094 989.243381,46.2651094 989.243381,46.2651094 C989.243381,46.2651094 989.243381,46.2651094 989.243381,46.2651094 C989.243381,46.2651094 989.310764,46.1977266 989.44553,46.0629609 C989.44553,46.0629609 989.512912,46.0629609 989.647678,46.0629609 C989.917209,46.1977266 990.18674,46.399875 990.456272,46.6694063 C990.725803,46.9389375 990.927951,47.2084688 991.062717,47.478 C990.927951,47.6127656 990.860569,47.6801484 990.860569,47.6801484 C990.725803,47.6801484 990.65842,47.7475313 990.65842,47.8822969 C990.523655,47.478 990.321506,47.2084688 990.051975,47.0737031 C989.782444,46.8041719 989.512912,46.5346406 989.243381,46.2651094 Z M990.051975,51.3188203 C990.321506,50.9145234 990.523655,50.3754609 990.65842,49.7016328 C990.65842,49.1625703 990.523655,48.6235078 990.254123,48.0844453 C990.254123,48.0844453 990.321506,48.0170625 990.456272,47.8822969 C990.456272,47.8822969 990.523655,47.8822969 990.65842,47.8822969 C990.927951,48.4213594 991.062717,49.0278047 991.062717,49.7016328 C991.062717,50.3754609 990.860569,51.0492891 990.456272,51.7231172 C989.917209,52.6664766 989.108615,53.2055391 988.03049,53.3403047 C987.087131,53.6098359 986.143772,53.4750703 985.200412,52.9360078 C984.257053,52.3969453 983.650608,51.5883516 983.381076,50.5102266 C983.111545,49.5668672 983.246311,48.6235078 983.785373,47.6801484 C984.459201,46.7367891 985.267795,46.1303438 986.211155,45.8608125 C987.28928,45.5912813 988.300022,45.7260469 989.243381,46.2651094 C989.108615,46.399875 988.97385,46.4672578 988.839084,46.4672578 C988.839084,46.4672578 988.771701,46.5346406 988.636936,46.6694063 C987.828342,46.2651094 987.019748,46.1977266 986.211155,46.4672578 C985.402561,46.7367891 984.796115,47.2084688 984.391819,47.8822969 C983.852756,48.6908906 983.71799,49.5668672 983.987522,50.5102266 C984.122287,51.3188203 984.593967,51.9926484 985.402561,52.5317109 C986.211155,53.0707734 987.087131,53.2055391 988.03049,52.9360078 C988.839084,52.6664766 989.512912,52.1274141 990.051975,51.3188203 Z M977.6335,58 C978.0115,58 978.3085,58.108 978.5515,58.27 C978.7675,58.432 978.8755,58.702 978.8755,59.053 C978.8755,59.242 978.8485,59.404 978.8485,59.566 L978.7675,60.079 L978.6595,60.592 C978.6055,60.781 978.5515,60.943 978.5245,61.105 C978.0385,62.968 977.7415,64.858 977.5795,66.748 C977.4175,68.665 977.3635,70.555 977.3635,72.445 C977.3635,72.715 977.3635,73.039 977.4175,73.39 C977.4175,73.741 977.4715,74.065 977.5255,74.362 C977.5525,74.686 977.5795,74.983 977.6335,75.226 C977.6335,75.496 977.6605,75.658 977.6605,75.739 C977.6605,75.901 977.5255,76.036 977.3095,76.144 C977.0395,76.252 976.7965,76.306 976.5805,76.306 C976.1485,76.306 975.8245,76.198 975.5815,75.928 C975.3385,75.685 975.2305,75.361 975.2305,74.929 C975.2305,74.173 975.2575,73.282 975.3115,72.256 C975.3385,71.23 975.3925,70.204 975.4465,69.178 C975.4735,68.638 975.5275,68.017 975.5815,67.369 L975.7975,65.452 C975.8785,64.804 975.9595,64.21 976.0675,63.616 C976.1215,63.022 976.2025,62.509 976.2835,62.077 C975.9055,62.482 975.6085,62.833 975.3385,63.13 C975.0685,63.427 974.8525,63.643 974.7175,63.778 L974.1775,64.372 C973.9615,64.615 973.7995,64.804 973.6645,64.966 C973.4485,65.182 973.2595,65.344 973.0705,65.452 C972.8545,65.56 972.6385,65.614 972.3955,65.614 C972.0715,65.614 971.7475,65.533 971.4775,65.317 C971.1535,65.128 971.0185,64.885 971.0185,64.561 C971.0185,64.48 971.0455,64.399 971.1535,64.291 C971.2345,64.21 971.3425,64.129 971.4775,64.021 L971.7205,63.859 C971.7745,63.805 971.8555,63.778 971.9365,63.724 L972.1525,63.616 C972.2065,63.562 972.2875,63.508 972.3415,63.454 C972.9085,62.914 973.5025,62.32 974.1235,61.645 C974.7175,60.997 975.2575,60.349 975.7705,59.755 C975.9325,59.566 976.1215,59.35 976.2835,59.134 C976.4185,58.918 976.5805,58.729 976.7965,58.513 C976.8775,58.432 977.0125,58.324 977.1745,58.189 C977.3365,58.081 977.4715,58 977.6335,58 Z M989.243381,46.2651094 C989.512912,46.5346406 989.782444,46.8041719 990.051975,47.0737031 C990.321506,47.2084688 990.523655,47.478 990.65842,47.8822969 L990.456272,47.8822969 L990.343967,47.9946016 C990.328993,48.0095755 990.315891,48.0226777 990.30466,48.0339082 L990.259738,48.0788301 C990.119358,47.8149141 989.917209,47.5453828 989.647678,47.2758516 C989.512912,47.1410859 989.310764,47.0063203 989.041233,46.8715547 L988.861545,46.6918672 C988.846571,46.6768932 988.839084,46.6694063 988.839084,46.6694063 L988.636936,46.6694063 C988.704319,46.6020234 988.754856,46.5514863 988.788547,46.5177949 L988.833469,46.472873 C988.97385,46.4672578 989.108615,46.399875 989.243381,46.2651094 Z" transform="translate(-943.389 -19.603)"/></svg>