<svg xmlns="http://www.w3.org/2000/svg" width="110" height="243" viewBox="0 0 110 243"><path fill="#131313" d="M19.7773438,165.482422 C18.8339844,165.482422 17.890625,165.280273 16.9472656,164.875977 C16.0039062,164.47168 15.1953125,163.932617 14.5214844,163.258789 C13.8476563,162.450195 13.3085938,161.574219 12.9042969,160.630859 C12.6347656,159.822266 12.5,159.013672 12.5,158.205078 C12.5,157.935547 12.5,157.733398 12.5,157.598633 C12.6347656,157.05957 13.4433594,153.488281 14.9257813,146.884766 C16.2734375,140.146484 19.7099609,132.532227 25.2353516,124.041992 C28.0654297,119.594727 31.7041016,115.080078 36.1513672,110.498047 C40.4638672,106.050781 45.7197266,101.873047 51.9189453,97.9648437 C64.7216797,90.0136719 72.7402344,83.2080078 75.9746094,77.5478516 C79.2089844,71.8876953 80.8261719,66.7666016 80.8261719,62.1845703 C80.8261719,60.8369141 80.6914062,59.2871094 80.421875,57.5351562 C80.1523437,55.9179687 79.6806641,54.2333984 79.0068359,52.4814453 C77.5244141,49.3818359 75.03125,46.6191406 71.5273437,44.1933594 C67.8886719,41.7675781 62.4306641,40.5546875 55.1533203,40.5546875 C49.4931641,40.5546875 44.7763672,41.7001953 41.0029297,43.9912109 C37.0947266,46.4169922 34.0625,49.9882812 31.90625,54.7050781 C31.0976562,56.5917969 29.6826172,57.8720703 27.6611328,58.5458984 C25.7744141,59.2197266 23.9550781,59.0849609 22.203125,58.1416016 C20.3164062,57.3330078 19.0361328,55.9853516 18.3623047,54.0986328 C17.6884766,52.2119141 17.7558594,50.3251953 18.5644531,48.4384766 C22.0683594,41.0263672 26.9199219,35.4335938 33.1191406,31.6601562 C39.3183594,27.8867188 46.6630859,26 55.1533203,26 C69.9775391,26 80.421875,29.8408203 86.4863281,37.5224609 C92.5507813,45.2041016 95.5830078,53.4248047 95.5830078,62.1845703 C95.5830078,71.2138672 92.7529297,79.5693359 87.0927734,87.2509766 C81.4326172,94.7978516 72.3359375,102.479492 59.8027344,110.295898 C49.6953125,116.629883 42.4179687,123.705078 37.9707031,131.521484 C33.3886719,139.337891 30.3564453,145.806641 28.8740234,150.927734 C42.4853516,150.927734 62.9697266,150.927734 90.3271484,150.927734 C92.3486328,150.927734 94.0332031,151.601563 95.3808594,152.949219 C96.8632812,154.431641 97.6044922,156.183594 97.6044922,158.205078 C97.6044922,160.226562 96.8632812,161.978516 95.3808594,163.460938 C94.0332031,164.808594 92.3486328,165.482422 90.3271484,165.482422 C78.6025391,165.482422 66.8779297,165.482422 55.1533203,165.482422 C43.4287109,165.482422 31.6367188,165.482422 19.7773438,165.482422 Z M47.6738281,51.875 C47.5390625,51.6054688 47.3369141,51.3359375 47.0673828,51.0664062 C46.7978516,50.796875 46.5283203,50.5947266 46.2587891,50.4599609 C47.6064453,49.5166016 49.15625,48.8427734 50.9082031,48.4384766 C52.5253906,48.0341797 54.4794922,47.8320312 56.7705078,47.8320312 C59.7353516,47.8320312 62.3632812,48.1015625 64.6542969,48.640625 C66.8105469,49.1796875 68.6298828,49.9882812 70.1123047,51.0664062 C69.5732422,51.2011719 68.7646484,51.4707031 67.6865234,51.875 C66.4736328,51.2011719 64.9238281,50.6621094 63.0371094,50.2578125 C61.1503906,49.9882812 59.0615234,49.8535156 56.7705078,49.8535156 C54.7490234,49.8535156 52.9970703,49.9882812 51.5146484,50.2578125 C50.0322266,50.6621094 48.7519531,51.2011719 47.6738281,51.875 Z M72.5380859,50.0556641 C72.8076172,52.6162109 73.2119141,56.4570313 73.7509766,61.578125 C72.2685547,59.5566406 69.9775391,56.4570313 66.8779297,52.2792969 C67.7971254,51.5730366 71.4599609,50.4599609 72.5380859,50.0556641 Z M41.4072266,57.7373047 C40.4638672,57.1982422 39.8574219,56.3222656 39.5878906,55.109375 C39.3183594,53.8964844 39.453125,52.7509766 39.9921875,51.6728516 C40.6660156,50.7294922 41.609375,50.1230469 42.8222656,49.8535156 C44.0351562,49.5839844 45.1132813,49.71875 46.0566406,50.2578125 C46.0566406,50.2578125 46.1240234,50.2578125 46.2587891,50.2578125 C46.2587891,50.3925781 46.2587891,50.4599609 46.2587891,50.4599609 C46.1240234,50.4599609 46.0566406,50.4599609 46.0566406,50.4599609 C45.921875,50.5947266 45.8544922,50.6621094 45.8544922,50.6621094 C44.9111328,50.1230469 43.9003906,49.9882812 42.8222656,50.2578125 C41.7441406,50.5273438 40.9355469,51.1337891 40.3964844,52.0771484 C39.8574219,53.0205078 39.7226562,53.9638672 39.9921875,54.9072266 C40.2617188,55.9853516 40.8681641,56.7939453 41.8115234,57.3330078 C42.7548828,57.8720703 43.6982422,58.0742188 44.6416016,57.9394531 C45.7197266,57.6699219 46.5283203,57.0634766 47.0673828,56.1201172 C47.4716797,55.4462891 47.6738281,54.7724609 47.6738281,54.0986328 C47.6738281,53.4248047 47.5390625,52.8183594 47.2695312,52.2792969 C47.2695312,52.1445312 47.3369141,52.0771484 47.4716797,52.0771484 C47.4716797,52.0771484 47.5390625,52.0097656 47.6738281,51.875 C48.078125,52.5488281 48.2802734,53.2900391 48.2802734,54.0986328 C48.2802734,54.9072266 48.078125,55.6484375 47.6738281,56.3222656 C47,57.4003906 46.0566406,58.0742188 44.84375,58.34375 C43.6308594,58.6132813 42.4853516,58.4111328 41.4072266,57.7373047 Z M40.3964844,51.2685547 C40.2617188,51.4033203 40.0595703,51.6728516 39.7900391,52.0771484 C39.5205078,52.6162109 39.5878906,52.4814453 39.9921875,51.6728516 C40.1269531,51.5380859 40.1943359,51.4707031 40.1943359,51.4707031 C40.3291016,51.3359375 40.3964844,51.2685547 40.3964844,51.2685547 Z M45.8544922,50.6621094 C45.8544922,50.6621094 45.8544922,50.6621094 45.8544922,50.6621094 C45.8544922,50.6621094 45.8544922,50.6621094 45.8544922,50.6621094 C45.8544922,50.6621094 45.921875,50.5947266 46.0566406,50.4599609 C46.0566406,50.4599609 46.1240234,50.4599609 46.2587891,50.4599609 C46.5283203,50.5947266 46.7978516,50.796875 47.0673828,51.0664062 C47.3369141,51.3359375 47.5390625,51.6054688 47.6738281,51.875 C47.5390625,52.0097656 47.4716797,52.0771484 47.4716797,52.0771484 C47.3369141,52.0771484 47.2695312,52.1445312 47.2695312,52.2792969 C47.1347656,51.875 46.9326172,51.6054688 46.6630859,51.4707031 C46.3935547,51.2011719 46.1240234,50.9316406 45.8544922,50.6621094 Z M46.6630859,55.7158203 C46.9326172,55.3115234 47.1347656,54.7724609 47.2695312,54.0986328 C47.2695312,53.5595703 47.1347656,53.0205078 46.8652344,52.4814453 C46.8652344,52.4814453 46.9326172,52.4140625 47.0673828,52.2792969 C47.0673828,52.2792969 47.1347656,52.2792969 47.2695312,52.2792969 C47.5390625,52.8183594 47.6738281,53.4248047 47.6738281,54.0986328 C47.6738281,54.7724609 47.4716797,55.4462891 47.0673828,56.1201172 C46.5283203,57.0634766 45.7197266,57.6025391 44.6416016,57.7373047 C43.6982422,58.0068359 42.7548828,57.8720703 41.8115234,57.3330078 C40.8681641,56.7939453 40.2617188,55.9853516 39.9921875,54.9072266 C39.7226562,53.9638672 39.8574219,53.0205078 40.3964844,52.0771484 C41.0703125,51.1337891 41.8789062,50.5273438 42.8222656,50.2578125 C43.9003906,49.9882812 44.9111328,50.1230469 45.8544922,50.6621094 C45.7197266,50.796875 45.5849609,50.8642578 45.4501953,50.8642578 C45.4501953,50.8642578 45.3828125,50.9316406 45.2480469,51.0664062 C44.4394531,50.6621094 43.6308594,50.5947266 42.8222656,50.8642578 C42.0136719,51.1337891 41.4072266,51.6054688 41.0029297,52.2792969 C40.4638672,53.0878906 40.3291016,53.9638672 40.5986328,54.9072266 C40.7333984,55.7158203 41.2050781,56.3896484 42.0136719,56.9287109 C42.8222656,57.4677734 43.6982422,57.6025391 44.6416016,57.3330078 C45.4501953,57.0634766 46.1240234,56.5244141 46.6630859,55.7158203 Z M34.2446111,62.397 C34.6226111,62.397 34.9196111,62.505 35.1626111,62.667 C35.3786111,62.829 35.4866111,63.099 35.4866111,63.45 C35.4866111,63.639 35.4596111,63.801 35.4596111,63.963 L35.3786111,64.476 L35.2706111,64.989 C35.2166111,65.178 35.1626111,65.34 35.1356111,65.502 C34.6496111,67.365 34.3526111,69.255 34.1906111,71.145 C34.0286111,73.062 33.9746111,74.952 33.9746111,76.842 C33.9746111,77.112 33.9746111,77.436 34.0286111,77.787 C34.0286111,78.138 34.0826111,78.462 34.1366111,78.759 C34.1636111,79.083 34.1906111,79.38 34.2446111,79.623 C34.2446111,79.893 34.2716111,80.055 34.2716111,80.136 C34.2716111,80.298 34.1366111,80.433 33.9206111,80.541 C33.6506111,80.649 33.4076111,80.703 33.1916111,80.703 C32.7596111,80.703 32.4356111,80.595 32.1926111,80.325 C31.9496111,80.082 31.8416111,79.758 31.8416111,79.326 C31.8416111,78.57 31.8686111,77.679 31.9226111,76.653 C31.9496111,75.627 32.0036111,74.601 32.0576111,73.575 C32.0846111,73.035 32.1386111,72.414 32.1926111,71.766 L32.4086111,69.849 C32.4896111,69.201 32.5706111,68.607 32.6786111,68.013 C32.7326111,67.419 32.8136111,66.906 32.8946111,66.474 C32.5166111,66.879 32.2196111,67.23 31.9496111,67.527 C31.6796111,67.824 31.4636111,68.04 31.3286111,68.175 L30.7886111,68.769 C30.5726111,69.012 30.4106111,69.201 30.2756111,69.363 C30.0596111,69.579 29.8706111,69.741 29.6816111,69.849 C29.4656111,69.957 29.2496111,70.011 29.0066111,70.011 C28.6826111,70.011 28.3586111,69.93 28.0886111,69.714 C27.7646111,69.525 27.6296111,69.282 27.6296111,68.958 C27.6296111,68.877 27.6566111,68.796 27.7646111,68.688 C27.8456111,68.607 27.9536111,68.526 28.0886111,68.418 L28.3316111,68.256 C28.3856111,68.202 28.4666111,68.175 28.5476111,68.121 L28.7636111,68.013 C28.8176111,67.959 28.8986111,67.905 28.9526111,67.851 C29.5196111,67.311 30.1136111,66.717 30.7346111,66.042 C31.3286111,65.394 31.8686111,64.746 32.3816111,64.152 C32.5436111,63.963 32.7326111,63.747 32.8946111,63.531 C33.0296111,63.315 33.1916111,63.126 33.4076111,62.91 C33.4886111,62.829 33.6236111,62.721 33.7856111,62.586 C33.9476111,62.478 34.0826111,62.397 34.2446111,62.397 Z M45.8544922,50.6621094 C46.1240234,50.9316406 46.3935547,51.2011719 46.6630859,51.4707031 C46.9326172,51.6054688 47.1347656,51.875 47.2695312,52.2792969 L47.0673828,52.2792969 L46.9550781,52.3916016 C46.9401042,52.4065755 46.927002,52.4196777 46.9157715,52.4309082 L46.8708496,52.4758301 C46.7304688,52.2119141 46.5283203,51.9423828 46.2587891,51.6728516 C46.1240234,51.5380859 45.921875,51.4033203 45.6523438,51.2685547 L45.4726562,51.0888672 C45.4576823,51.0738932 45.4501953,51.0664062 45.4501953,51.0664062 L45.2480469,51.0664062 C45.3154297,50.9990234 45.3659668,50.9484863 45.3996582,50.9147949 L45.4445801,50.869873 C45.5849609,50.8642578 45.7197266,50.796875 45.8544922,50.6621094 Z"/></svg>