<svg xmlns="http://www.w3.org/2000/svg" width="110" height="203" viewBox="0 0 110 203"><path fill="#131313" d="M1425.12142,181.486328 C1424.44759,180.408203 1424.17806,179.262695 1424.31283,178.049805 C1424.31283,177.375977 1424.38021,176.634766 1424.51497,175.826172 C1425.1888,173.939453 1426.40169,172.524414 1428.15365,171.581055 C1429.9056,170.637695 1431.79232,170.435547 1433.8138,170.974609 C1435.70052,171.648438 1437.11556,172.861328 1438.05892,174.613281 C1440.34993,178.791016 1444.3929,182.092773 1450.18783,184.518555 C1455.98275,186.80957 1461.57552,187.955078 1466.96615,187.955078 C1473.70443,187.955078 1479.97103,185.933594 1485.76595,181.890625 C1491.69564,177.712891 1494.66048,171.648438 1494.66048,163.697266 C1494.66048,159.923828 1494.05404,156.554688 1492.84115,153.589844 C1491.76302,150.759766 1490.01107,148.266602 1487.58529,146.110352 C1483.40755,142.202148 1478.28646,139.641602 1472.22201,138.428711 C1466.15755,137.350586 1461.23861,136.744141 1457.46517,136.609375 C1456.38704,136.744141 1455.3763,136.811523 1454.43294,136.811523 C1453.48958,136.811523 1452.47884,136.811523 1451.40072,136.811523 C1449.37923,136.811523 1447.69466,136.137695 1446.34701,134.790039 C1444.86458,133.442383 1444.12337,131.757812 1444.12337,129.736328 C1443.98861,127.849609 1444.59505,126.165039 1445.94271,124.682617 C1447.1556,123.200195 1448.77279,122.391602 1450.79427,122.256836 C1450.92904,122.256836 1451.53548,122.189453 1452.61361,122.054688 C1453.8265,122.054688 1455.30892,122.054688 1457.06087,122.054688 C1468.11165,121.380859 1476.73665,119.089844 1482.93587,115.181641 C1489.13509,111.273437 1492.2347,106.017578 1492.2347,99.4140625 C1492.2347,93.2148438 1490.95443,88.5654297 1488.39388,85.4658203 C1485.69857,82.3662109 1482.66634,80.2099609 1479.2972,78.9970703 C1477.41048,78.3232422 1475.52376,77.9189453 1473.63704,77.7841797 C1471.88509,77.5146484 1470.20052,77.3798828 1468.58333,77.3798828 C1460.76693,77.3798828 1454.97201,78.9296875 1451.19857,82.0292969 C1447.42513,85.2636719 1445.47103,86.9482422 1445.33626,87.0830078 C1444.12337,88.7001953 1442.50618,89.6435547 1440.4847,89.9130859 C1438.46322,90.1826172 1436.64388,89.7109375 1435.02669,88.4980469 C1433.40951,87.2851563 1432.46615,85.7353516 1432.19661,83.8486328 C1431.92708,81.8271484 1432.33138,80.0078125 1433.40951,78.390625 C1433.54427,78.2558594 1434.01595,77.7167969 1434.82454,76.7734375 C1435.49837,75.9648438 1436.5765,74.9541016 1438.05892,73.7412109 C1440.75423,71.4501953 1444.59505,69.0244141 1449.58138,66.4638672 C1454.70247,64.0380859 1461.03646,62.8251953 1468.58333,62.8251953 C1480.30794,62.8251953 1489.60677,66.1269531 1496.47982,72.7304688 C1503.48763,79.46875 1506.99154,88.3632812 1506.99154,99.4140625 C1506.99154,102.109375 1506.31771,105.748047 1504.97005,110.330078 C1503.75716,114.912109 1500.72493,119.359375 1495.87337,123.671875 C1494.79525,124.75 1493.64974,125.693359 1492.43685,126.501953 C1491.22396,127.445312 1489.94368,128.253906 1488.59603,128.927734 C1490.21322,129.871094 1491.76302,130.814453 1493.24544,131.757812 C1494.72786,132.835938 1496.1429,133.981445 1497.49056,135.194336 C1501.39876,138.833008 1504.36361,143.010742 1506.38509,147.727539 C1508.40658,152.579102 1509.41732,157.902344 1509.41732,163.697266 C1509.41732,173.130859 1505.77865,182.025391 1498.5013,190.380859 C1491.22396,198.601562 1480.71224,202.711914 1466.96615,202.711914 C1459.55404,202.711914 1451.73763,200.959961 1443.51693,197.456055 C1435.16146,194.086914 1429.02962,188.763672 1425.12142,181.486328 Z M1460.90169,88.09375 C1460.76693,87.8242188 1460.63216,87.5546875 1460.4974,87.2851562 C1460.36263,86.8808594 1460.16048,86.5439453 1459.89095,86.2744141 C1459.89095,86.2744141 1459.89095,86.2744141 1459.89095,86.2744141 C1459.89095,86.2744141 1459.89095,86.2744141 1459.89095,86.2744141 C1461.10384,85.7353516 1462.51888,85.3310547 1464.13607,85.0615234 C1465.75326,84.7919922 1467.57259,84.6572266 1469.59408,84.6572266 C1472.28939,84.6572266 1474.5804,84.9267578 1476.46712,85.4658203 C1478.48861,86.0048828 1480.17318,86.8808594 1481.52083,88.09375 C1480.98177,88.2285156 1480.17318,88.4306641 1479.09505,88.7001953 C1478.01693,88.0263672 1476.66927,87.5546875 1475.05208,87.2851562 C1473.4349,86.8808594 1471.61556,86.6787109 1469.59408,86.6787109 C1467.84212,86.6787109 1466.22493,86.8134766 1464.74251,87.0830078 C1463.26009,87.3525391 1461.97982,87.6894531 1460.90169,88.09375 Z M1483.94661,87.2851562 C1484.08138,89.8457031 1484.21615,93.6865234 1484.35091,98.8076172 C1483.00326,96.6513672 1480.91439,93.4169922 1478.08431,89.1044922 C1478.89403,88.6128681 1482.86849,87.5546875 1483.94661,87.2851562 Z M1453.0179,91.9345703 C1452.34408,90.9912109 1452.07454,89.9130859 1452.20931,88.7001953 C1452.34408,87.4873047 1452.88314,86.4765625 1453.8265,85.6679688 C1454.63509,84.9941406 1455.64583,84.6572266 1456.85872,84.6572266 C1458.07161,84.7919922 1459.08236,85.3310547 1459.89095,86.2744141 C1459.75618,86.2744141 1459.6888,86.3417969 1459.6888,86.4765625 C1459.55404,86.4765625 1459.41927,86.4765625 1459.28451,86.4765625 C1458.61068,85.8027344 1457.80208,85.3984375 1456.85872,85.2636719 C1455.7806,85.1289062 1454.83724,85.3984375 1454.02865,86.0722656 C1453.22005,86.7460938 1452.74837,87.6220703 1452.61361,88.7001953 C1452.47884,89.7783203 1452.74837,90.7216797 1453.4222,91.5302734 C1454.23079,92.4736328 1455.10677,92.9453125 1456.05013,92.9453125 C1457.12826,93.0800781 1458.139,92.8105469 1459.08236,92.1367188 C1459.62142,91.7324219 1459.95833,91.1259766 1460.0931,90.3173828 C1460.36263,89.6435547 1460.43001,88.9697266 1460.29525,88.2958984 C1460.43001,88.2958984 1460.4974,88.2958984 1460.4974,88.2958984 C1460.63216,88.2958984 1460.69954,88.2285156 1460.69954,88.09375 C1460.96908,88.9023438 1460.96908,89.7109375 1460.69954,90.5195312 C1460.43001,91.328125 1459.95833,92.0019531 1459.28451,92.5410156 C1458.34115,93.3496094 1457.26302,93.6865234 1456.05013,93.5517578 C1454.83724,93.4169922 1453.8265,92.8779297 1453.0179,91.9345703 Z M1459.48665,86.6787109 C1459.48665,86.6787109 1459.48665,86.6787109 1459.48665,86.6787109 C1459.48665,86.5439453 1459.41927,86.4765625 1459.28451,86.4765625 C1459.41927,86.4765625 1459.55404,86.4765625 1459.6888,86.4765625 C1459.6888,86.3417969 1459.75618,86.2744141 1459.89095,86.2744141 C1459.89095,86.2744141 1459.89095,86.2744141 1459.89095,86.2744141 C1459.89095,86.2744141 1459.89095,86.2744141 1459.89095,86.2744141 C1460.16048,86.5439453 1460.36263,86.8808594 1460.4974,87.2851562 C1460.63216,87.5546875 1460.76693,87.8242188 1460.90169,88.09375 C1460.76693,88.09375 1460.63216,88.1611328 1460.4974,88.2958984 C1460.4974,88.2958984 1460.43001,88.2958984 1460.29525,88.2958984 C1460.29525,88.0263672 1460.22786,87.7568359 1460.0931,87.4873047 C1459.95833,87.2177734 1459.75618,86.9482422 1459.48665,86.6787109 Z M1458.67806,91.7324219 C1459.21712,91.328125 1459.55404,90.8564453 1459.6888,90.3173828 C1459.82357,89.7783203 1459.89095,89.171875 1459.89095,88.4980469 C1459.89095,88.4980469 1459.95833,88.4980469 1460.0931,88.4980469 C1460.0931,88.3632812 1460.16048,88.2958984 1460.29525,88.2958984 C1460.43001,88.9697266 1460.36263,89.6435547 1460.0931,90.3173828 C1459.95833,91.1259766 1459.62142,91.7324219 1459.08236,92.1367188 C1458.139,92.8105469 1457.12826,93.0800781 1456.05013,92.9453125 C1455.10677,92.9453125 1454.23079,92.4736328 1453.4222,91.5302734 C1452.74837,90.7216797 1452.47884,89.7783203 1452.61361,88.7001953 C1452.74837,87.6220703 1453.22005,86.7460938 1454.02865,86.0722656 C1454.83724,85.3984375 1455.7806,85.1289062 1456.85872,85.2636719 C1457.80208,85.3984375 1458.61068,85.8027344 1459.28451,86.4765625 C1459.28451,86.4765625 1459.21712,86.5439453 1459.08236,86.6787109 C1458.94759,86.6787109 1458.88021,86.6787109 1458.88021,86.6787109 C1458.20638,86.1396484 1457.46517,85.8701172 1456.65658,85.8701172 C1455.84798,85.7353516 1455.10677,85.9375 1454.43294,86.4765625 C1453.62435,87.1503906 1453.22005,87.9589844 1453.22005,88.9023438 C1453.08529,89.7109375 1453.28743,90.5195312 1453.8265,91.328125 C1454.50033,92.0019531 1455.30892,92.40625 1456.25228,92.5410156 C1457.19564,92.6757812 1458.00423,92.40625 1458.67806,91.7324219 Z M1447.6335,92.397 C1448.0115,92.397 1448.3085,92.505 1448.5515,92.667 C1448.7675,92.829 1448.8755,93.099 1448.8755,93.45 C1448.8755,93.639 1448.8485,93.801 1448.8485,93.963 L1448.7675,94.476 L1448.6595,94.989 C1448.6055,95.178 1448.5515,95.34 1448.5245,95.502 C1448.0385,97.365 1447.7415,99.255 1447.5795,101.145 C1447.4175,103.062 1447.3635,104.952 1447.3635,106.842 C1447.3635,107.112 1447.3635,107.436 1447.4175,107.787 C1447.4175,108.138 1447.4715,108.462 1447.5255,108.759 C1447.5525,109.083 1447.5795,109.38 1447.6335,109.623 C1447.6335,109.893 1447.6605,110.055 1447.6605,110.136 C1447.6605,110.298 1447.5255,110.433 1447.3095,110.541 C1447.0395,110.649 1446.7965,110.703 1446.5805,110.703 C1446.1485,110.703 1445.8245,110.595 1445.5815,110.325 C1445.3385,110.082 1445.2305,109.758 1445.2305,109.326 C1445.2305,108.57 1445.2575,107.679 1445.3115,106.653 C1445.3385,105.627 1445.3925,104.601 1445.4465,103.575 C1445.4735,103.035 1445.5275,102.414 1445.5815,101.766 L1445.7975,99.849 C1445.8785,99.201 1445.9595,98.607 1446.0675,98.013 C1446.1215,97.419 1446.2025,96.906 1446.2835,96.474 C1445.9055,96.879 1445.6085,97.23 1445.3385,97.527 C1445.0685,97.824 1444.8525,98.04 1444.7175,98.175 L1444.1775,98.769 C1443.9615,99.012 1443.7995,99.201 1443.6645,99.363 C1443.4485,99.579 1443.2595,99.741 1443.0705,99.849 C1442.8545,99.957 1442.6385,100.011 1442.3955,100.011 C1442.0715,100.011 1441.7475,99.93 1441.4775,99.714 C1441.1535,99.525 1441.0185,99.282 1441.0185,98.958 C1441.0185,98.877 1441.0455,98.796 1441.1535,98.688 C1441.2345,98.607 1441.3425,98.526 1441.4775,98.418 L1441.7205,98.256 C1441.7745,98.202 1441.8555,98.175 1441.9365,98.121 L1442.1525,98.013 C1442.2065,97.959 1442.2875,97.905 1442.3415,97.851 C1442.9085,97.311 1443.5025,96.717 1444.1235,96.042 C1444.7175,95.394 1445.2575,94.746 1445.7705,94.152 C1445.9325,93.963 1446.1215,93.747 1446.2835,93.531 C1446.4185,93.315 1446.5805,93.126 1446.7965,92.91 C1446.8775,92.829 1447.0125,92.721 1447.1745,92.586 C1447.3365,92.478 1447.4715,92.397 1447.6335,92.397 Z M1459.28451,86.4765625 C1459.39681,86.4765625 1459.46232,86.5233561 1459.48104,86.6169434 L1459.48665,86.6787109 C1459.75618,86.9482422 1459.95833,87.2177734 1460.0931,87.4873047 C1460.22786,87.7568359 1460.29525,88.0263672 1460.29525,88.2958984 C1460.16048,88.2958984 1460.0931,88.3632812 1460.0931,88.4980469 L1459.89095,88.4980469 L1459.48665,87.6894531 C1459.48665,87.4199219 1459.35189,87.2177734 1459.08236,87.0830078 L1459.08236,86.8808594 C1458.94759,86.8808594 1458.88021,86.8134766 1458.88021,86.6787109 L1459.08236,86.6787109 C1459.14974,86.6113281 1459.20028,86.560791 1459.23397,86.5270996 L1459.27889,86.4821777 Z" transform="translate(-1414.833)"/></svg>