<svg xmlns="http://www.w3.org/2000/svg" width="110" height="203" viewBox="0 0 110 203"><path fill="#131313" d="M1425.12142,140.089328 C1424.44759,139.011203 1424.17806,137.865695 1424.31283,136.652805 C1424.31283,135.978977 1424.38021,135.237766 1424.51497,134.429172 C1425.1888,132.542453 1426.40169,131.127414 1428.15365,130.184055 C1429.9056,129.240695 1431.79232,129.038547 1433.8138,129.577609 C1435.70052,130.251438 1437.11556,131.464328 1438.05892,133.216281 C1440.34993,137.394016 1444.3929,140.695773 1450.18783,143.121555 C1455.98275,145.41257 1461.57552,146.558078 1466.96615,146.558078 C1473.70443,146.558078 1479.97103,144.536594 1485.76595,140.493625 C1491.69564,136.315891 1494.66048,130.251438 1494.66048,122.300266 C1494.66048,118.526828 1494.05404,115.157687 1492.84115,112.192844 C1491.76302,109.362766 1490.01107,106.869602 1487.58529,104.713352 C1483.40755,100.805148 1478.28646,98.2446016 1472.22201,97.0317109 C1466.15755,95.9535859 1461.23861,95.3471406 1457.46517,95.212375 C1456.38704,95.3471406 1455.3763,95.4145234 1454.43294,95.4145234 C1453.48958,95.4145234 1452.47884,95.4145234 1451.40072,95.4145234 C1449.37923,95.4145234 1447.69466,94.7406953 1446.34701,93.3930391 C1444.86458,92.0453828 1444.12337,90.3608125 1444.12337,88.3393281 C1443.98861,86.4526094 1444.59505,84.7680391 1445.94271,83.2856172 C1447.1556,81.8031953 1448.77279,80.9946016 1450.79427,80.8598359 C1450.92904,80.8598359 1451.53548,80.7924531 1452.61361,80.6576875 C1453.8265,80.6576875 1455.30892,80.6576875 1457.06087,80.6576875 C1468.11165,79.9838594 1476.73665,77.6928438 1482.93587,73.7846406 C1489.13509,69.8764375 1492.2347,64.6205781 1492.2347,58.0170625 C1492.2347,51.8178438 1490.95443,47.1684297 1488.39388,44.0688203 C1485.69857,40.9692109 1482.66634,38.8129609 1479.2972,37.6000703 C1477.41048,36.9262422 1475.52376,36.5219453 1473.63704,36.3871797 C1471.88509,36.1176484 1470.20052,35.9828828 1468.58333,35.9828828 C1460.76693,35.9828828 1454.97201,37.5326875 1451.19857,40.6322969 C1447.42513,43.8666719 1445.47103,45.5512422 1445.33626,45.6860078 C1444.12337,47.3031953 1442.50618,48.2465547 1440.4847,48.5160859 C1438.46322,48.7856172 1436.64388,48.3139375 1435.02669,47.1010469 C1433.40951,45.8881563 1432.46615,44.3383516 1432.19661,42.4516328 C1431.92708,40.4301484 1432.33138,38.6108125 1433.40951,36.993625 C1433.54427,36.8588594 1434.01595,36.3197969 1434.82454,35.3764375 C1435.49837,34.5678438 1436.5765,33.5571016 1438.05892,32.3442109 C1440.75423,30.0531953 1444.59505,27.6274141 1449.58138,25.0668672 C1454.70247,22.6410859 1461.03646,21.4281953 1468.58333,21.4281953 C1480.30794,21.4281953 1489.60677,24.7299531 1496.47982,31.3334688 C1503.48763,38.07175 1506.99154,46.9662812 1506.99154,58.0170625 C1506.99154,60.712375 1506.31771,64.3510469 1504.97005,68.9330781 C1503.75716,73.5151094 1500.72493,77.962375 1495.87337,82.274875 C1494.79525,83.353 1493.64974,84.2963594 1492.43685,85.1049531 C1491.22396,86.0483125 1489.94368,86.8569062 1488.59603,87.5307344 C1490.21322,88.4740938 1491.76302,89.4174531 1493.24544,90.3608125 C1494.72786,91.4389375 1496.1429,92.5844453 1497.49056,93.7973359 C1501.39876,97.4360078 1504.36361,101.613742 1506.38509,106.330539 C1508.40658,111.182102 1509.41732,116.505344 1509.41732,122.300266 C1509.41732,131.733859 1505.77865,140.628391 1498.5013,148.983859 C1491.22396,157.204563 1480.71224,161.314914 1466.96615,161.314914 C1459.55404,161.314914 1451.73763,159.562961 1443.51693,156.059055 C1435.16146,152.689914 1429.02962,147.366672 1425.12142,140.089328 Z M1460.90169,46.69675 C1460.76693,46.4272188 1460.63216,46.1576875 1460.4974,45.8881563 C1460.36263,45.4838594 1460.16048,45.1469453 1459.89095,44.8774141 C1459.89095,44.8774141 1459.89095,44.8774141 1459.89095,44.8774141 C1459.89095,44.8774141 1459.89095,44.8774141 1459.89095,44.8774141 C1461.10384,44.3383516 1462.51888,43.9340547 1464.13607,43.6645234 C1465.75326,43.3949922 1467.57259,43.2602266 1469.59408,43.2602266 C1472.28939,43.2602266 1474.5804,43.5297578 1476.46712,44.0688203 C1478.48861,44.6078828 1480.17318,45.4838594 1481.52083,46.69675 C1480.98177,46.8315156 1480.17318,47.0336641 1479.09505,47.3031953 C1478.01693,46.6293672 1476.66927,46.1576875 1475.05208,45.8881563 C1473.4349,45.4838594 1471.61556,45.2817109 1469.59408,45.2817109 C1467.84212,45.2817109 1466.22493,45.4164766 1464.74251,45.6860078 C1463.26009,45.9555391 1461.97982,46.2924531 1460.90169,46.69675 Z M1483.94661,45.8881563 C1484.08138,48.4487031 1484.21615,52.2895234 1484.35091,57.4106172 C1483.00326,55.2543672 1480.91439,52.0199922 1478.08431,47.7074922 C1478.89403,47.2158681 1482.86849,46.1576875 1483.94661,45.8881563 Z M1453.0179,50.5375703 C1452.34408,49.5942109 1452.07454,48.5160859 1452.20931,47.3031953 C1452.34408,46.0903047 1452.88314,45.0795625 1453.8265,44.2709688 C1454.63509,43.5971406 1455.64583,43.2602266 1456.85872,43.2602266 C1458.07161,43.3949922 1459.08236,43.9340547 1459.89095,44.8774141 C1459.75618,44.8774141 1459.6888,44.9447969 1459.6888,45.0795625 C1459.55404,45.0795625 1459.41927,45.0795625 1459.28451,45.0795625 C1458.61068,44.4057344 1457.80208,44.0014375 1456.85872,43.8666719 C1455.7806,43.7319063 1454.83724,44.0014375 1454.02865,44.6752656 C1453.22005,45.3490938 1452.74837,46.2250703 1452.61361,47.3031953 C1452.47884,48.3813203 1452.74837,49.3246797 1453.4222,50.1332734 C1454.23079,51.0766328 1455.10677,51.5483125 1456.05013,51.5483125 C1457.12826,51.6830781 1458.139,51.4135469 1459.08236,50.7397188 C1459.62142,50.3354219 1459.95833,49.7289766 1460.0931,48.9203828 C1460.36263,48.2465547 1460.43001,47.5727266 1460.29525,46.8988984 C1460.43001,46.8988984 1460.4974,46.8988984 1460.4974,46.8988984 C1460.63216,46.8988984 1460.69954,46.8315156 1460.69954,46.69675 C1460.96908,47.5053438 1460.96908,48.3139375 1460.69954,49.1225313 C1460.43001,49.931125 1459.95833,50.6049531 1459.28451,51.1440156 C1458.34115,51.9526094 1457.26302,52.2895234 1456.05013,52.1547578 C1454.83724,52.0199922 1453.8265,51.4809297 1453.0179,50.5375703 Z M1459.48665,45.2817109 C1459.48665,45.2817109 1459.48665,45.2817109 1459.48665,45.2817109 C1459.48665,45.1469453 1459.41927,45.0795625 1459.28451,45.0795625 C1459.41927,45.0795625 1459.55404,45.0795625 1459.6888,45.0795625 C1459.6888,44.9447969 1459.75618,44.8774141 1459.89095,44.8774141 C1459.89095,44.8774141 1459.89095,44.8774141 1459.89095,44.8774141 C1459.89095,44.8774141 1459.89095,44.8774141 1459.89095,44.8774141 C1460.16048,45.1469453 1460.36263,45.4838594 1460.4974,45.8881563 C1460.63216,46.1576875 1460.76693,46.4272188 1460.90169,46.69675 C1460.76693,46.69675 1460.63216,46.7641328 1460.4974,46.8988984 C1460.4974,46.8988984 1460.43001,46.8988984 1460.29525,46.8988984 C1460.29525,46.6293672 1460.22786,46.3598359 1460.0931,46.0903047 C1459.95833,45.8207734 1459.75618,45.5512422 1459.48665,45.2817109 Z M1458.67806,50.3354219 C1459.21712,49.931125 1459.55404,49.4594453 1459.6888,48.9203828 C1459.82357,48.3813203 1459.89095,47.774875 1459.89095,47.1010469 C1459.89095,47.1010469 1459.95833,47.1010469 1460.0931,47.1010469 C1460.0931,46.9662813 1460.16048,46.8988984 1460.29525,46.8988984 C1460.43001,47.5727266 1460.36263,48.2465547 1460.0931,48.9203828 C1459.95833,49.7289766 1459.62142,50.3354219 1459.08236,50.7397188 C1458.139,51.4135469 1457.12826,51.6830781 1456.05013,51.5483125 C1455.10677,51.5483125 1454.23079,51.0766328 1453.4222,50.1332734 C1452.74837,49.3246797 1452.47884,48.3813203 1452.61361,47.3031953 C1452.74837,46.2250703 1453.22005,45.3490938 1454.02865,44.6752656 C1454.83724,44.0014375 1455.7806,43.7319063 1456.85872,43.8666719 C1457.80208,44.0014375 1458.61068,44.4057344 1459.28451,45.0795625 C1459.28451,45.0795625 1459.21712,45.1469453 1459.08236,45.2817109 C1458.94759,45.2817109 1458.88021,45.2817109 1458.88021,45.2817109 C1458.20638,44.7426484 1457.46517,44.4731172 1456.65658,44.4731172 C1455.84798,44.3383516 1455.10677,44.5405 1454.43294,45.0795625 C1453.62435,45.7533906 1453.22005,46.5619844 1453.22005,47.5053438 C1453.08529,48.3139375 1453.28743,49.1225313 1453.8265,49.931125 C1454.50033,50.6049531 1455.30892,51.00925 1456.25228,51.1440156 C1457.19564,51.2787813 1458.00423,51.00925 1458.67806,50.3354219 Z M1447.6335,51 C1448.0115,51 1448.3085,51.108 1448.5515,51.27 C1448.7675,51.432 1448.8755,51.702 1448.8755,52.053 C1448.8755,52.242 1448.8485,52.404 1448.8485,52.566 L1448.7675,53.079 L1448.6595,53.592 C1448.6055,53.781 1448.5515,53.943 1448.5245,54.105 C1448.0385,55.968 1447.7415,57.858 1447.5795,59.748 C1447.4175,61.665 1447.3635,63.555 1447.3635,65.445 C1447.3635,65.715 1447.3635,66.039 1447.4175,66.39 C1447.4175,66.741 1447.4715,67.065 1447.5255,67.362 C1447.5525,67.686 1447.5795,67.983 1447.6335,68.226 C1447.6335,68.496 1447.6605,68.658 1447.6605,68.739 C1447.6605,68.901 1447.5255,69.036 1447.3095,69.144 C1447.0395,69.252 1446.7965,69.306 1446.5805,69.306 C1446.1485,69.306 1445.8245,69.198 1445.5815,68.928 C1445.3385,68.685 1445.2305,68.361 1445.2305,67.929 C1445.2305,67.173 1445.2575,66.282 1445.3115,65.256 C1445.3385,64.23 1445.3925,63.204 1445.4465,62.178 C1445.4735,61.638 1445.5275,61.017 1445.5815,60.369 L1445.7975,58.452 C1445.8785,57.804 1445.9595,57.21 1446.0675,56.616 C1446.1215,56.022 1446.2025,55.509 1446.2835,55.077 C1445.9055,55.482 1445.6085,55.833 1445.3385,56.13 C1445.0685,56.427 1444.8525,56.643 1444.7175,56.778 L1444.1775,57.372 C1443.9615,57.615 1443.7995,57.804 1443.6645,57.966 C1443.4485,58.182 1443.2595,58.344 1443.0705,58.452 C1442.8545,58.56 1442.6385,58.614 1442.3955,58.614 C1442.0715,58.614 1441.7475,58.533 1441.4775,58.317 C1441.1535,58.128 1441.0185,57.885 1441.0185,57.561 C1441.0185,57.48 1441.0455,57.399 1441.1535,57.291 C1441.2345,57.21 1441.3425,57.129 1441.4775,57.021 L1441.7205,56.859 C1441.7745,56.805 1441.8555,56.778 1441.9365,56.724 L1442.1525,56.616 C1442.2065,56.562 1442.2875,56.508 1442.3415,56.454 C1442.9085,55.914 1443.5025,55.32 1444.1235,54.645 C1444.7175,53.997 1445.2575,53.349 1445.7705,52.755 C1445.9325,52.566 1446.1215,52.35 1446.2835,52.134 C1446.4185,51.918 1446.5805,51.729 1446.7965,51.513 C1446.8775,51.432 1447.0125,51.324 1447.1745,51.189 C1447.3365,51.081 1447.4715,51 1447.6335,51 Z M1459.28451,45.0795625 C1459.39681,45.0795625 1459.46232,45.1263561 1459.48104,45.2199434 L1459.48665,45.2817109 C1459.75618,45.5512422 1459.95833,45.8207734 1460.0931,46.0903047 C1460.22786,46.3598359 1460.29525,46.6293672 1460.29525,46.8988984 C1460.16048,46.8988984 1460.0931,46.9662813 1460.0931,47.1010469 L1459.89095,47.1010469 L1459.48665,46.2924531 C1459.48665,46.0229219 1459.35189,45.8207734 1459.08236,45.6860078 L1459.08236,45.4838594 C1458.94759,45.4838594 1458.88021,45.4164766 1458.88021,45.2817109 L1459.08236,45.2817109 C1459.14974,45.2143281 1459.20028,45.163791 1459.23397,45.1300996 L1459.27889,45.0851777 Z" transform="translate(-1414.833 -19.603)"/></svg>