<svg xmlns="http://www.w3.org/2000/svg" width="110" height="243" viewBox="0 0 110 243"><path fill="#131313" d="M10.2880859,144.486328 C9.61425781,143.408203 9.34472656,142.262695 9.47949219,141.049805 C9.47949219,140.375977 9.546875,139.634766 9.68164062,138.826172 C10.3554688,136.939453 11.5683594,135.524414 13.3203125,134.581055 C15.0722656,133.637695 16.9589844,133.435547 18.9804688,133.974609 C20.8671875,134.648438 22.2822266,135.861328 23.2255859,137.613281 C25.5166016,141.791016 29.5595703,145.092773 35.3544922,147.518555 C41.1494141,149.80957 46.7421875,150.955078 52.1328125,150.955078 C58.8710938,150.955078 65.1376953,148.933594 70.9326172,144.890625 C76.8623047,140.712891 79.8271484,134.648438 79.8271484,126.697266 C79.8271484,122.923828 79.2207031,119.554688 78.0078125,116.589844 C76.9296875,113.759766 75.1777344,111.266602 72.7519531,109.110352 C68.5742188,105.202148 63.453125,102.641602 57.3886719,101.428711 C51.3242188,100.350586 46.4052734,99.7441406 42.6318359,99.609375 C41.5537109,99.7441406 40.5429688,99.8115234 39.5996094,99.8115234 C38.65625,99.8115234 37.6455078,99.8115234 36.5673828,99.8115234 C34.5458984,99.8115234 32.8613281,99.1376953 31.5136719,97.7900391 C30.03125,96.4423828 29.2900391,94.7578125 29.2900391,92.7363281 C29.1552734,90.8496094 29.7617188,89.1650391 31.109375,87.6826172 C32.3222656,86.2001953 33.9394531,85.3916016 35.9609375,85.2568359 C36.0957031,85.2568359 36.7021484,85.1894531 37.7802734,85.0546875 C38.9931641,85.0546875 40.4755859,85.0546875 42.2275391,85.0546875 C53.2783203,84.3808594 61.9033203,82.0898438 68.1025391,78.1816406 C74.3017578,74.2734375 77.4013672,69.0175781 77.4013672,62.4140625 C77.4013672,56.2148438 76.1210938,51.5654297 73.5605469,48.4658203 C70.8652344,45.3662109 67.8330078,43.2099609 64.4638672,41.9970703 C62.5771484,41.3232422 60.6904297,40.9189453 58.8037109,40.7841797 C57.0517578,40.5146484 55.3671875,40.3798828 53.75,40.3798828 C45.9335938,40.3798828 40.1386719,41.9296875 36.3652344,45.0292969 C32.5917969,48.2636719 30.6376953,49.9482422 30.5029297,50.0830078 C29.2900391,51.7001953 27.6728516,52.6435547 25.6513672,52.9130859 C23.6298828,53.1826172 21.8105469,52.7109375 20.1933594,51.4980469 C18.5761719,50.2851562 17.6328125,48.7353516 17.3632812,46.8486328 C17.09375,44.8271484 17.4980469,43.0078125 18.5761719,41.390625 C18.7109375,41.2558594 19.1826172,40.7167969 19.9912109,39.7734375 C20.6650391,38.9648438 21.7431641,37.9541016 23.2255859,36.7412109 C25.9208984,34.4501953 29.7617188,32.0244141 34.7480469,29.4638672 C39.8691406,27.0380859 46.203125,25.8251953 53.75,25.8251953 C65.4746094,25.8251953 74.7734375,29.1269531 81.6464844,35.7304688 C88.6542969,42.46875 92.1582031,51.3632812 92.1582031,62.4140625 C92.1582031,65.109375 91.484375,68.7480469 90.1367188,73.3300781 C88.9238281,77.9121094 85.8916016,82.359375 81.0400391,86.671875 C79.9619141,87.75 78.8164062,88.6933594 77.6035156,89.5019531 C76.390625,90.4453125 75.1103516,91.2539062 73.7626953,91.9277344 C75.3798828,92.8710938 76.9296875,93.8144531 78.4121094,94.7578125 C79.8945312,95.8359375 81.3095703,96.9814453 82.6572266,98.1943359 C86.5654297,101.833008 89.5302734,106.010742 91.5517578,110.727539 C93.5732422,115.579102 94.5839844,120.902344 94.5839844,126.697266 C94.5839844,136.130859 90.9453125,145.025391 83.6679688,153.380859 C76.390625,161.601562 65.8789062,165.711914 52.1328125,165.711914 C44.7207031,165.711914 36.9042969,163.959961 28.6835938,160.456055 C20.328125,157.086914 14.1962891,151.763672 10.2880859,144.486328 Z M46.0683594,51.09375 C45.9335938,50.8242188 45.7988281,50.5546875 45.6640625,50.2851562 C45.5292969,49.8808594 45.3271484,49.5439453 45.0576172,49.2744141 C45.0576172,49.2744141 45.0576172,49.2744141 45.0576172,49.2744141 C45.0576172,49.2744141 45.0576172,49.2744141 45.0576172,49.2744141 C46.2705078,48.7353516 47.6855469,48.3310547 49.3027344,48.0615234 C50.9199219,47.7919922 52.7392578,47.6572266 54.7607422,47.6572266 C57.4560547,47.6572266 59.7470703,47.9267578 61.6337891,48.4658203 C63.6552734,49.0048828 65.3398438,49.8808594 66.6875,51.09375 C66.1484375,51.2285156 65.3398438,51.4306641 64.2617188,51.7001953 C63.1835938,51.0263672 61.8359375,50.5546875 60.21875,50.2851562 C58.6015625,49.8808594 56.7822266,49.6787109 54.7607422,49.6787109 C53.0087891,49.6787109 51.3916016,49.8134766 49.9091797,50.0830078 C48.4267578,50.3525391 47.1464844,50.6894531 46.0683594,51.09375 Z M68.1025391,52.3066406 C67.8330078,52.171875 67.6308594,51.9697266 67.4960938,51.7001953 C67.2265625,51.4306641 66.9570312,51.2285156 66.6875,51.09375 C67.2265625,50.8242188 68.0351562,50.5546875 69.1132812,50.2851562 C69.2480469,52.8457031 69.3828125,56.6865234 69.5175781,61.8076172 C68.1699219,59.6513672 66.0810547,56.4169922 63.2509766,52.1044922 C63.5205078,51.9697266 63.8574219,51.8349609 64.2617188,51.7001953 C64.6660156,51.9697266 65.0703125,52.3066406 65.4746094,52.7109375 C65.8789062,52.9804688 66.2158203,53.3173828 66.4853516,53.7216797 C66.7548828,53.4521484 67.0244141,53.25 67.2939453,53.1152344 C67.5634766,52.8457031 67.8330078,52.5761719 68.1025391,52.3066406 Z M66.4853516,53.7216797 C66.2158203,53.3173828 65.8789062,52.9804688 65.4746094,52.7109375 C65.0703125,52.3066406 64.6660156,51.9697266 64.2617188,51.7001953 C64.8007812,51.5654297 65.609375,51.3632812 66.6875,51.09375 C66.9570312,51.2285156 67.2265625,51.4306641 67.4960938,51.7001953 C67.6308594,51.9697266 67.8330078,52.171875 68.1025391,52.3066406 C67.8330078,52.5761719 67.5634766,52.8457031 67.2939453,53.1152344 C67.0244141,53.25 66.7548828,53.4521484 66.4853516,53.7216797 Z M38.1845703,54.9345703 C37.5107422,53.9912109 37.2412109,52.9130859 37.3759766,51.7001953 C37.5107422,50.4873047 38.0498047,49.4765625 38.9931641,48.6679688 C39.8017578,47.9941406 40.8125,47.6572266 42.0253906,47.6572266 C43.2382812,47.7919922 44.2490234,48.3310547 45.0576172,49.2744141 C44.9228516,49.2744141 44.8554688,49.3417969 44.8554688,49.4765625 C44.7207031,49.4765625 44.5859375,49.4765625 44.4511719,49.4765625 C43.7773438,48.8027344 42.96875,48.3984375 42.0253906,48.2636719 C40.9472656,48.1289062 40.0039062,48.3984375 39.1953125,49.0722656 C38.3867188,49.7460938 37.9150391,50.6220703 37.7802734,51.7001953 C37.6455078,52.7783203 37.9150391,53.7216797 38.5888672,54.5302734 C39.3974609,55.4736328 40.2734375,55.9453125 41.2167969,55.9453125 C42.2949219,56.0800781 43.3056641,55.8105469 44.2490234,55.1367188 C44.7880859,54.7324219 45.125,54.1259766 45.2597656,53.3173828 C45.5292969,52.6435547 45.5966797,51.9697266 45.4619141,51.2958984 C45.5966797,51.2958984 45.6640625,51.2958984 45.6640625,51.2958984 C45.7988281,51.2958984 45.8662109,51.2285156 45.8662109,51.09375 C46.1357422,51.9023438 46.1357422,52.7109375 45.8662109,53.5195312 C45.5966797,54.328125 45.125,55.0019531 44.4511719,55.5410156 C43.5078125,56.3496094 42.4296875,56.6865234 41.2167969,56.5517578 C40.0039062,56.4169922 38.9931641,55.8779297 38.1845703,54.9345703 Z M44.6533203,49.6787109 C44.6533203,49.6787109 44.6533203,49.6787109 44.6533203,49.6787109 C44.6533203,49.5439453 44.5859375,49.4765625 44.4511719,49.4765625 C44.5859375,49.4765625 44.7207031,49.4765625 44.8554688,49.4765625 C44.8554688,49.3417969 44.9228516,49.2744141 45.0576172,49.2744141 C45.0576172,49.2744141 45.0576172,49.2744141 45.0576172,49.2744141 C45.0576172,49.2744141 45.0576172,49.2744141 45.0576172,49.2744141 C45.3271484,49.5439453 45.5292969,49.8808594 45.6640625,50.2851562 C45.7988281,50.5546875 45.9335938,50.8242188 46.0683594,51.09375 C45.9335938,51.09375 45.7988281,51.1611328 45.6640625,51.2958984 C45.6640625,51.2958984 45.5966797,51.2958984 45.4619141,51.2958984 C45.4619141,51.0263672 45.3945312,50.7568359 45.2597656,50.4873047 C45.125,50.2177734 44.9228516,49.9482422 44.6533203,49.6787109 Z M43.8447266,54.7324219 C44.3837891,54.328125 44.7207031,53.8564453 44.8554688,53.3173828 C44.9902344,52.7783203 45.0576172,52.171875 45.0576172,51.4980469 C45.0576172,51.4980469 45.125,51.4980469 45.2597656,51.4980469 C45.2597656,51.3632812 45.3271484,51.2958984 45.4619141,51.2958984 C45.5966797,51.9697266 45.5292969,52.6435547 45.2597656,53.3173828 C45.125,54.1259766 44.7880859,54.7324219 44.2490234,55.1367188 C43.3056641,55.8105469 42.2949219,56.0800781 41.2167969,55.9453125 C40.2734375,55.9453125 39.3974609,55.4736328 38.5888672,54.5302734 C37.9150391,53.7216797 37.6455078,52.7783203 37.7802734,51.7001953 C37.9150391,50.6220703 38.3867188,49.7460938 39.1953125,49.0722656 C40.0039062,48.3984375 40.9472656,48.1289062 42.0253906,48.2636719 C42.96875,48.3984375 43.7773438,48.8027344 44.4511719,49.4765625 C44.4511719,49.4765625 44.3837891,49.5439453 44.2490234,49.6787109 C44.1142578,49.6787109 44.046875,49.6787109 44.046875,49.6787109 C43.3730469,49.1396484 42.6318359,48.8701172 41.8232422,48.8701172 C41.0146484,48.7353516 40.2734375,48.9375 39.5996094,49.4765625 C38.7910156,50.1503906 38.3867188,50.9589844 38.3867188,51.9023438 C38.2519531,52.7109375 38.4541016,53.5195312 38.9931641,54.328125 C39.6669922,55.0019531 40.4755859,55.40625 41.4189453,55.5410156 C42.3623047,55.6757812 43.1708984,55.40625 43.8447266,54.7324219 Z M44.4511719,49.4765625 C44.5859375,49.4765625 44.6533203,49.5439453 44.6533203,49.6787109 C44.6533203,49.6787109 44.6533203,49.6787109 44.6533203,49.6787109 C44.9228516,49.9482422 45.125,50.2177734 45.2597656,50.4873047 C45.3945312,50.7568359 45.4619141,51.0263672 45.4619141,51.2958984 C45.3271484,51.2958984 45.2597656,51.3632812 45.2597656,51.4980469 C45.125,51.4980469 45.0576172,51.4980469 45.0576172,51.4980469 C44.9228516,51.2285156 44.7880859,50.9589844 44.6533203,50.6894531 C44.6533203,50.4199219 44.5185547,50.2177734 44.2490234,50.0830078 C44.2490234,49.9482422 44.2490234,49.8808594 44.2490234,49.8808594 C44.1142578,49.8808594 44.046875,49.8134766 44.046875,49.6787109 C44.046875,49.6787109 44.1142578,49.6787109 44.2490234,49.6787109 C44.3837891,49.5439453 44.4511719,49.4765625 44.4511719,49.4765625 Z M30.5029297,59.3818359 C30.3681641,59.3818359 30.2333984,59.3818359 30.0986328,59.3818359 C29.9638672,59.3818359 29.8964844,59.3144531 29.8964844,59.1796875 C29.7617188,59.0449219 29.6943359,58.9101562 29.6943359,58.7753906 C29.6943359,58.7753906 29.6943359,58.7080078 29.6943359,58.5732422 C29.6943359,58.4384766 29.6943359,58.3037109 29.6943359,58.1689453 C29.6943359,58.0341797 29.7617188,57.9667969 29.8964844,57.9667969 C30.1660156,57.6972656 30.4355469,57.3603516 30.7050781,56.9560547 C31.109375,56.6865234 31.5136719,56.2822266 31.9179688,55.7431641 C32.0527344,55.7431641 32.1201172,55.7431641 32.1201172,55.7431641 C32.2548828,55.6083984 32.3896484,55.5410156 32.5244141,55.5410156 C32.5244141,55.5410156 32.5244141,55.5410156 32.5244141,55.5410156 C32.5244141,55.5410156 32.5244141,55.5410156 32.5244141,55.5410156 C32.6591797,55.5410156 32.7265625,55.5410156 32.7265625,55.5410156 C32.8613281,55.5410156 32.9287109,55.5410156 32.9287109,55.5410156 C33.0634766,55.6757812 33.1308594,55.7431641 33.1308594,55.7431641 C33.1308594,55.7431641 33.1982422,55.8105469 33.3330078,55.9453125 C33.3330078,56.0800781 33.3330078,56.1474609 33.3330078,56.1474609 C33.4677734,56.2822266 33.5351562,56.3496094 33.5351562,56.3496094 C33.5351562,58.1015625 33.5351562,60.1904297 33.5351562,62.6162109 C33.5351562,65.1767578 33.5351562,68.0742188 33.5351562,71.3085938 C33.5351562,71.4433594 33.4677734,71.578125 33.3330078,71.7128906 C33.3330078,71.8476562 33.265625,71.9824219 33.1308594,72.1171875 C33.1308594,72.1171875 33.0634766,72.1171875 32.9287109,72.1171875 C32.7939453,72.2519531 32.6591797,72.3193359 32.5244141,72.3193359 C32.3896484,72.3193359 32.3222656,72.2519531 32.3222656,72.1171875 C32.1875,72.1171875 32.0527344,72.1171875 31.9179688,72.1171875 C31.9179688,71.9824219 31.8505859,71.8476562 31.7158203,71.7128906 C31.7158203,71.578125 31.7158203,71.4433594 31.7158203,71.3085938 C31.7158203,69.9609375 31.7158203,68.2089844 31.7158203,66.0527344 C31.7158203,63.8964844 31.7158203,61.4033203 31.7158203,58.5732422 C31.5810547,58.5732422 31.5136719,58.640625 31.5136719,58.7753906 C31.3789062,58.9101562 31.2441406,59.0449219 31.109375,59.1796875 C30.9746094,59.1796875 30.9072266,59.2470703 30.9072266,59.3818359 C30.7724609,59.3818359 30.6376953,59.3818359 30.5029297,59.3818359 Z"/></svg>