<svg xmlns="http://www.w3.org/2000/svg" width="110" height="243" viewBox="0 0 110 243"><path fill="#131313" d="M19.7773438,131.723633 C18.5644531,131.723633 17.4189453,131.386719 16.3408203,130.712891 C15.2626953,130.173828 14.3867188,129.432617 13.7128906,128.489258 C13.0390625,127.411133 12.6347656,126.265625 12.5,125.052734 C12.5,124.783203 12.5,124.581055 12.5,124.446289 C12.5,123.368164 12.7021484,122.357422 13.1064453,121.414062 C21.5966797,101.333984 34.3320312,71.0791016 51.3125,30.6494141 C52.1210938,28.7626953 53.4013672,27.4150391 55.1533203,26.6064453 C56.0966797,26.3369141 57.0400391,26.1347656 57.9833984,26 C58.9267578,26 59.8701172,26.2021484 60.8134766,26.6064453 C62.7001953,27.4150391 64.0478516,28.7626953 64.8564453,30.6494141 C65.5302734,32.5361328 65.5302734,34.4228516 64.8564453,36.3095703 C57.3095703,54.2333984 45.9892578,81.1191406 30.8955078,116.966797 C44.1025391,116.966797 63.9130859,116.966797 90.3271484,116.966797 C92.3486328,116.966797 94.0332031,117.708008 95.3808594,119.19043 C96.8632812,120.538086 97.6044922,122.222656 97.6044922,124.244141 C97.6044922,126.265625 96.8632812,128.017578 95.3808594,129.5 C94.0332031,130.982422 92.3486328,131.723633 90.3271484,131.723633 C78.6025391,131.723633 66.8779297,131.723633 55.1533203,131.723633 C43.4287109,131.723633 31.6367188,131.723633 19.7773438,131.723633 Z M66.2822266,158.407227 C66.2822266,136.979492 66.2822266,104.837891 66.2822266,61.9824219 C66.2822266,59.9609375 67.0234375,58.2089844 68.5058594,56.7265625 C69.8535156,55.3789062 71.5380859,54.7050781 73.5595703,54.7050781 C75.5810547,54.7050781 77.3330078,55.3789062 78.8154297,56.7265625 C80.1630859,58.2089844 80.8369141,59.9609375 80.8369141,61.9824219 C80.8369141,83.4101562 80.8369141,115.551758 80.8369141,158.407227 C80.8369141,160.428711 80.1630859,162.180664 78.8154297,163.663086 C77.3330078,165.010742 75.5810547,165.68457 73.5595703,165.68457 C71.5380859,165.68457 69.7861328,165.010742 68.3037109,163.663086 C66.9560547,162.180664 66.2822266,160.428711 66.2822266,158.407227 Z M49.9082031,110.902344 C47.7519531,110.902344 44.5849609,110.902344 40.4072266,110.902344 C46.0673828,97.15625 54.6923828,76.5371094 66.2822266,49.0449219 C66.4169922,49.0449219 66.5517578,49.1123047 66.6865234,49.2470703 C66.8212891,49.3818359 67.0234375,49.4492188 67.2929688,49.4492188 C67.4277344,49.5839844 67.5625,49.6513672 67.6972656,49.6513672 C67.8320312,49.6513672 68.0341797,49.6513672 68.3037109,49.6513672 C62.7783203,62.8583984 54.4902344,82.6015625 43.4394531,108.880859 C44.921875,108.880859 47.078125,108.880859 49.9082031,108.880859 C49.9082031,109.150391 49.9082031,109.487305 49.9082031,109.891602 C49.9082031,110.161133 49.9082031,110.498047 49.9082031,110.902344 Z M65.2714844,43.9912109 C65.0019531,44.7998047 64.9345703,45.6083984 65.0693359,46.4169922 C65.3388672,47.2255859 65.8105469,47.8994141 66.484375,48.4384766 C66.484375,48.5732422 66.4169922,48.7080078 66.2822266,48.8427734 C65.4736328,48.3037109 64.9345703,47.5625 64.6650391,46.6191406 C64.3955078,45.6757812 64.4628906,44.7324219 64.8671875,43.7890625 C65.40625,42.5761719 66.2148438,41.7675781 67.2929688,41.3632812 C68.3710938,40.8242188 69.5166016,40.8242188 70.7294922,41.3632812 C71.8076172,41.7675781 72.5488281,42.5761719 72.953125,43.7890625 C73.4921875,44.8671875 73.4921875,45.9453125 72.953125,47.0234375 C72.5488281,48.1015625 71.9423828,48.8427734 71.1337891,49.2470703 C70.1904297,49.7861328 69.2470703,49.9208984 68.3037109,49.6513672 C68.3037109,49.6513672 68.3710938,49.5166016 68.5058594,49.2470703 C69.3144531,49.3818359 70.1230469,49.2470703 70.9316406,48.8427734 C71.6054688,48.4384766 72.1445313,47.7646484 72.5488281,46.8212891 C72.953125,45.8779297 72.953125,44.9345703 72.5488281,43.9912109 C72.1445313,42.9130859 71.4707031,42.171875 70.5273438,41.7675781 C69.4492188,41.3632812 68.4384766,41.3632812 67.4951172,41.7675781 C66.4169922,42.171875 65.6757813,42.9130859 65.2714844,43.9912109 Z M64.6650391,44.1933594 C64.6650391,44.1933594 64.6650391,44.1259766 64.6650391,43.9912109 C64.7998047,43.8564453 64.8671875,43.7890625 64.8671875,43.7890625 C64.8671875,43.7890625 64.7998047,43.8564453 64.6650391,43.9912109 C64.6650391,44.1259766 64.6650391,44.1933594 64.6650391,44.1933594 Z M65.0693359,43.1826172 C65.0693359,43.1826172 65.0693359,43.25 65.0693359,43.3847656 C65.0693359,43.3847656 65.0019531,43.3847656 64.8671875,43.3847656 C65.0019531,43.3847656 65.0693359,43.3847656 65.0693359,43.3847656 C65.0693359,43.25 65.0693359,43.1826172 65.0693359,43.1826172 Z M65.0693359,43.3847656 C64.9345703,43.3847656 64.8671875,43.4521484 64.8671875,43.5869141 C64.8671875,43.5869141 64.8671875,43.6542969 64.8671875,43.7890625 C64.8671875,43.6542969 64.8671875,43.5869141 64.8671875,43.5869141 C64.8671875,43.4521484 64.9345703,43.3847656 65.0693359,43.3847656 Z M68.3037109,49.6513672 C68.0341797,49.6513672 67.8320312,49.6513672 67.6972656,49.6513672 C67.5625,49.6513672 67.4277344,49.5839844 67.2929688,49.4492188 C67.0234375,49.4492188 66.8212891,49.3818359 66.6865234,49.2470703 C66.5517578,49.1123047 66.4169922,49.0449219 66.2822266,49.0449219 C66.2822266,48.9101562 66.3496094,48.7080078 66.484375,48.4384766 C66.6191406,48.5732422 66.7539062,48.7080078 66.8886719,48.8427734 C67.0234375,48.8427734 67.2255859,48.9101562 67.4951172,49.0449219 C67.6298828,49.0449219 67.7646484,49.1123047 67.8994141,49.2470703 C68.0341797,49.2470703 68.2363281,49.2470703 68.5058594,49.2470703 C68.3710938,49.3818359 68.3037109,49.4492188 68.3037109,49.4492188 C68.3037109,49.5839844 68.3037109,49.6513672 68.3037109,49.6513672 Z M72.5488281,46.8212891 C72.1445312,47.7646484 71.6054688,48.4384766 70.9316406,48.8427734 C70.1230469,49.2470703 69.2470703,49.3818359 68.3037109,49.2470703 C68.4384766,49.1123047 68.5732422,48.9775391 68.7080078,48.8427734 C69.3818359,48.8427734 69.9882812,48.640625 70.5273438,48.2363281 C71.2011719,47.9667969 71.6728516,47.4277344 71.9423828,46.6191406 C71.9423828,46.7539062 71.9423828,46.8212891 71.9423828,46.8212891 C71.9423828,46.9560547 71.9423828,47.0234375 71.9423828,47.0234375 C71.9423828,47.0234375 71.9423828,46.9560547 71.9423828,46.8212891 C71.9423828,46.8212891 71.9423828,46.7539062 71.9423828,46.6191406 C72.3466797,45.8105469 72.3466797,45.0019531 71.9423828,44.1933594 C71.6728516,43.25 71.0664062,42.6435547 70.1230469,42.3740234 C69.3144531,41.9697266 68.5058594,41.9697266 67.6972656,42.3740234 C66.7539062,42.6435547 66.1474609,43.25 65.8779297,44.1933594 C65.4736328,44.8671875 65.40625,45.5410156 65.6757812,46.2148438 C65.8105469,46.8886719 66.1474609,47.4951172 66.6865234,48.0341797 C66.6865234,48.0341797 66.6191406,48.1689453 66.484375,48.4384766 C65.8105469,47.8994141 65.3388672,47.2255859 65.0693359,46.4169922 C64.9345703,45.6083984 65.0019531,44.7998047 65.2714844,43.9912109 C65.6757812,42.9130859 66.4169922,42.171875 67.4951172,41.7675781 C68.4384766,41.3632812 69.3818359,41.3632812 70.3251953,41.7675781 C71.4033203,42.171875 72.1445312,42.9130859 72.5488281,43.9912109 C72.953125,44.9345703 72.953125,45.8779297 72.5488281,46.8212891 Z M71.9423828,46.6191406 C71.9423828,46.7539062 71.9423828,46.8212891 71.9423828,46.8212891 C71.9423828,46.9560547 71.9423828,47.0234375 71.9423828,47.0234375 C71.9423828,47.0234375 71.9423828,47.0234375 71.9423828,47.0234375 C71.9423828,46.8886719 71.9423828,46.7539062 71.9423828,46.6191406 Z M67.6972656,48.4384766 C67.8320312,48.5732422 67.9667969,48.640625 68.1015625,48.640625 C68.2363281,48.640625 68.4384766,48.7080078 68.7080078,48.8427734 C68.5732422,48.8427734 68.5058594,48.9775391 68.5058594,49.2470703 C68.2363281,49.2470703 68.0341797,49.2470703 67.8994141,49.2470703 C67.7646484,49.1123047 67.6298828,49.0449219 67.4951172,49.0449219 C67.2255859,48.9101562 67.0234375,48.8427734 66.8886719,48.8427734 C66.7539062,48.7080078 66.6191406,48.5732422 66.484375,48.4384766 C66.6191406,48.3037109 66.6865234,48.1689453 66.6865234,48.0341797 C66.8212891,48.0341797 66.9560547,48.1015625 67.0908203,48.2363281 C67.2255859,48.3710938 67.4277344,48.4384766 67.6972656,48.4384766 Z M51.9296875,108.880859 C51.5253906,108.880859 50.8515625,108.880859 49.9082031,108.880859 C49.9082031,108.341797 49.9082031,107.667969 49.9082031,106.859375 C52.3339844,107.533203 56.0400391,108.543945 61.0263672,109.891602 C58.6005859,110.56543 54.8945312,111.576172 49.9082031,112.923828 C49.9082031,112.384766 49.9082031,111.710938 49.9082031,110.902344 C50.3125,110.902344 50.9863281,110.902344 51.9296875,110.902344 C51.9296875,110.498047 51.9296875,109.824219 51.9296875,108.880859 Z M49.9082031,108.880859 C50.3125,108.880859 50.9863281,108.880859 51.9296875,108.880859 C51.9296875,109.285156 51.9296875,109.958984 51.9296875,110.902344 C51.5253906,110.902344 50.8515625,110.902344 49.9082031,110.902344 C49.9082031,110.498047 49.9082031,109.824219 49.9082031,108.880859 Z M87.5078125,72.2919922 C87.6425781,72.2919922 87.7773438,72.359375 87.9121094,72.4941406 C88.046875,72.4941406 88.2490234,72.4941406 88.5185547,72.4941406 C88.6533203,72.4941406 88.7880859,72.4941406 88.9228516,72.4941406 C89.1923828,72.359375 89.3945312,72.2919922 89.5292969,72.2919922 C89.5292969,77.6826172 89.5292969,85.8359375 89.5292969,96.7519531 C88.9902344,96.7519531 88.3164062,96.7519531 87.5078125,96.7519531 C87.5078125,92.7089844 87.5078125,88.6660156 87.5078125,84.6230469 C87.5078125,80.4453125 87.5078125,76.3349609 87.5078125,72.2919922 Z M87.5078125,71.6855469 C86.5644531,71.5507812 85.8232422,71.1464844 85.2841797,70.4726562 C84.7451172,69.7988281 84.4755859,68.9902344 84.4755859,68.046875 C84.4755859,66.96875 84.8798828,66.0253906 85.6884766,65.2167969 C86.4970703,64.5429688 87.4404297,64.2060547 88.5185547,64.2060547 C89.5966797,64.2060547 90.4726562,64.5429688 91.1464844,65.2167969 C91.9550781,66.0253906 92.359375,66.96875 92.359375,68.046875 C92.359375,68.9902344 92.0898438,69.7988281 91.5507812,70.4726562 C91.0117188,71.1464844 90.3378906,71.5507812 89.5292969,71.6855469 C89.5292969,71.8203125 89.5292969,72.0224609 89.5292969,72.2919922 C90.4726562,72.0224609 91.28125,71.4833984 91.9550781,70.6748047 C92.4941406,70.0009766 92.7636719,69.125 92.7636719,68.046875 C92.7636719,66.8339844 92.359375,65.8232422 91.5507812,65.0146484 C90.7421875,64.0712891 89.7314453,63.5996094 88.5185547,63.5996094 C87.3056641,63.5996094 86.2275391,64.0712891 85.2841797,65.0146484 C84.4755859,65.8232422 84.0712891,66.8339844 84.0712891,68.046875 C84.0712891,69.125 84.4082031,70.0683594 85.0820312,70.8769531 C85.6210938,71.5507812 86.4296875,72.0224609 87.5078125,72.2919922 C87.5078125,72.1572266 87.5078125,72.0898438 87.5078125,72.0898438 C87.5078125,71.9550781 87.5078125,71.8203125 87.5078125,71.6855469 Z M87.5078125,71.6855469 C87.5078125,71.8203125 87.5078125,72.0224609 87.5078125,72.2919922 C87.6425781,72.2919922 87.7773438,72.359375 87.9121094,72.4941406 C88.046875,72.4941406 88.2490234,72.4941406 88.5185547,72.4941406 C88.6533203,72.4941406 88.7880859,72.4941406 88.9228516,72.4941406 C89.1923828,72.359375 89.3945312,72.2919922 89.5292969,72.2919922 C89.5292969,72.1572266 89.5292969,71.9550781 89.5292969,71.6855469 C89.3945312,71.8203125 89.1923828,71.8876953 88.9228516,71.8876953 C88.7880859,71.8876953 88.6533203,71.8876953 88.5185547,71.8876953 C88.2490234,71.8876953 88.046875,71.8876953 87.9121094,71.8876953 C87.7773438,71.8876953 87.6425781,71.8203125 87.5078125,71.6855469 Z M88.5185547,64.6103516 C89.4619141,64.6103516 90.203125,64.9472656 90.7421875,65.6210938 C91.4160156,66.2949219 91.7529297,67.1035156 91.7529297,68.046875 C91.7529297,67.9121094 91.7529297,67.7773438 91.7529297,67.6425781 C91.7529297,67.5078125 91.7529297,67.4404297 91.7529297,67.4404297 C91.7529297,67.4404297 91.7529297,67.5078125 91.7529297,67.6425781 C91.7529297,67.7773438 91.7529297,67.9121094 91.7529297,68.046875 C91.7529297,68.1816406 91.7529297,68.3164062 91.7529297,68.4511719 C91.7529297,68.4511719 91.7529297,68.5185547 91.7529297,68.6533203 C91.7529297,68.6533203 91.7529297,68.5859375 91.7529297,68.4511719 C91.7529297,68.3164062 91.7529297,68.1816406 91.7529297,68.046875 C91.7529297,68.7207031 91.5507812,69.3945312 91.1464844,70.0683594 C90.7421875,70.6074219 90.203125,71.0117188 89.5292969,71.28125 C89.5292969,71.4160156 89.5292969,71.5507812 89.5292969,71.6855469 C90.3378906,71.5507812 91.0117188,71.1464844 91.5507812,70.4726562 C92.0898438,69.7988281 92.359375,68.9902344 92.359375,68.046875 C92.359375,66.96875 91.9550781,66.0253906 91.1464844,65.2167969 C90.4726562,64.5429688 89.5966797,64.2060547 88.5185547,64.2060547 C87.4404297,64.2060547 86.4970703,64.5429688 85.6884766,65.2167969 C84.8798828,66.0253906 84.4755859,66.96875 84.4755859,68.046875 C84.4755859,68.9902344 84.7451172,69.7988281 85.2841797,70.4726562 C85.8232422,71.1464844 86.5644531,71.5507812 87.5078125,71.6855469 C87.5078125,71.6855469 87.5078125,71.5507812 87.5078125,71.28125 C86.8339844,71.0117188 86.2275391,70.6074219 85.6884766,70.0683594 C85.2841797,69.3945312 85.0820312,68.7207031 85.0820312,68.046875 C85.0820312,67.1035156 85.4189453,66.2949219 86.0927734,65.6210938 C86.7666016,64.9472656 87.5751953,64.6103516 88.5185547,64.6103516 Z M89.5292969,71.28125 C89.3945312,71.28125 89.1923828,71.28125 88.9228516,71.28125 C88.7880859,71.4160156 88.6533203,71.4833984 88.5185547,71.4833984 C88.2490234,71.4833984 88.046875,71.4160156 87.9121094,71.28125 C87.7773438,71.28125 87.6425781,71.28125 87.5078125,71.28125 C87.5078125,71.4160156 87.5078125,71.5507812 87.5078125,71.6855469 C87.6425781,71.8203125 87.7773438,71.8876953 87.9121094,71.8876953 C88.046875,71.8876953 88.2490234,71.8876953 88.5185547,71.8876953 C88.6533203,71.8876953 88.7880859,71.8876953 88.9228516,71.8876953 C89.1923828,71.8876953 89.3945312,71.8203125 89.5292969,71.6855469 C89.5292969,71.6855469 89.5292969,71.6181641 89.5292969,71.4833984 C89.5292969,71.3486328 89.5292969,71.28125 89.5292969,71.28125 Z M89.5292969,98.7734375 C89.5292969,98.3691406 89.5292969,97.6953125 89.5292969,96.7519531 C89.9335938,96.7519531 90.5400391,96.7519531 91.3486328,96.7519531 C90.8095703,99.3125 89.8662109,103.085938 88.5185547,108.072266 C87.8447266,105.511719 86.8339844,101.738281 85.4863281,96.7519531 C85.890625,96.7519531 86.5644531,96.7519531 87.5078125,96.7519531 C87.5078125,97.2910156 87.5078125,97.9648438 87.5078125,98.7734375 C87.9121094,98.7734375 88.5859375,98.7734375 89.5292969,98.7734375 Z M87.5078125,96.7519531 C87.9121094,96.7519531 88.5859375,96.7519531 89.5292969,96.7519531 C89.5292969,97.2910156 89.5292969,97.9648438 89.5292969,98.7734375 C88.9902344,98.7734375 88.3164062,98.7734375 87.5078125,98.7734375 C87.5078125,98.3691406 87.5078125,97.6953125 87.5078125,96.7519531 Z M75.5810547,35.2988281 C75.4462891,35.2988281 75.3115234,35.2988281 75.1767578,35.2988281 C75.0419922,35.2988281 74.9746094,35.2314453 74.9746094,35.0966797 C74.8398438,34.9619141 74.7724609,34.8945312 74.7724609,34.8945312 C74.6376953,34.7597656 74.5703125,34.625 74.5703125,34.4902344 C74.5703125,34.3554688 74.6376953,34.2207031 74.7724609,34.0859375 C74.7724609,34.0859375 74.8398438,34.0185547 74.9746094,33.8837891 C75.2441406,33.6142578 75.5136719,33.3447266 75.7832031,33.0751953 C76.1875,32.6708984 76.5917969,32.1992188 76.9960938,31.6601562 C77.1308594,31.6601562 77.1982422,31.6601562 77.1982422,31.6601562 C77.3330078,31.5253906 77.4003906,31.4580078 77.4003906,31.4580078 C77.5351562,31.4580078 77.6025391,31.4580078 77.6025391,31.4580078 C77.6025391,31.4580078 77.6025391,31.4580078 77.6025391,31.4580078 C77.7373047,31.4580078 77.8046875,31.4580078 77.8046875,31.4580078 C77.9394531,31.4580078 78.0068359,31.5253906 78.0068359,31.6601562 C78.1416016,31.6601562 78.2089844,31.6601562 78.2089844,31.6601562 C78.2089844,31.7949219 78.2763672,31.8623047 78.4111328,31.8623047 C78.4111328,31.9970703 78.4111328,32.0644531 78.4111328,32.0644531 C78.5458984,32.1992188 78.6132812,32.3339844 78.6132812,32.46875 C78.6132812,34.0859375 78.6132812,36.1074219 78.6132812,38.5332031 C78.6132812,41.09375 78.6132812,44.0585938 78.6132812,47.4277344 C78.6132812,47.5625 78.5458984,47.6298828 78.4111328,47.6298828 C78.4111328,47.7646484 78.34375,47.8994141 78.2089844,48.0341797 C78.2089844,48.0341797 78.1416016,48.1015625 78.0068359,48.2363281 C77.8720703,48.2363281 77.7373047,48.2363281 77.6025391,48.2363281 C77.4677734,48.2363281 77.4003906,48.2363281 77.4003906,48.2363281 C77.265625,48.1015625 77.1308594,48.0341797 76.9960938,48.0341797 C76.9960938,47.8994141 76.9287109,47.7646484 76.7939453,47.6298828 C76.7939453,47.6298828 76.7939453,47.5625 76.7939453,47.4277344 C76.7939453,45.9453125 76.7939453,44.1259766 76.7939453,41.9697266 C76.7939453,39.8134766 76.7939453,37.3203125 76.7939453,34.4902344 C76.6591797,34.625 76.5917969,34.6923828 76.5917969,34.6923828 C76.4570312,34.8271484 76.3222656,34.9619141 76.1875,35.0966797 C76.0527344,35.2314453 75.9853516,35.2988281 75.9853516,35.2988281 C75.8505859,35.2988281 75.7158203,35.2988281 75.5810547,35.2988281 Z M96.6044922,74.7177734 C96.6044922,74.5830078 96.6044922,74.515625 96.6044922,74.515625 C96.6044922,74.3808594 96.5371094,74.3134766 96.4023438,74.3134766 C96.4023438,74.3134766 96.4023438,74.2460938 96.4023438,74.1113281 C96.4023438,74.1113281 96.4023438,74.1113281 96.4023438,74.1113281 C96.4023438,74.1113281 96.4023438,74.0439453 96.4023438,73.9091797 C96.4023438,73.9091797 96.4023438,73.9091797 96.4023438,73.9091797 C96.4023438,73.9091797 96.4697266,73.7744141 96.6044922,73.5048828 C96.6044922,73.3701172 96.671875,73.1005859 96.8066406,72.6962891 C96.8066406,72.2919922 96.9414062,71.8876953 97.2109375,71.4833984 C97.3457031,70.9443359 97.6152344,70.4052734 98.0195312,69.8662109 C98.1542969,69.5966797 98.3564453,69.3271484 98.6259766,69.0576172 C98.7607422,68.7880859 98.9628906,68.5185547 99.2324219,68.2490234 C99.5019531,67.9794922 99.7714844,67.7099609 100.041016,67.4404297 C100.445312,67.3056641 100.782227,67.1035156 101.051758,66.8339844 C101.860352,66.2949219 102.53418,65.8232422 103.073242,65.4189453 C103.477539,65.0146484 103.814453,64.6777344 104.083984,64.4082031 C104.21875,64.0039062 104.353516,63.6669922 104.488281,63.3974609 C104.623047,63.1279297 104.69043,62.8583984 104.69043,62.5888672 C104.69043,62.4541016 104.69043,62.3193359 104.69043,62.1845703 C104.69043,62.1845703 104.623047,62.1171875 104.488281,61.9824219 C104.488281,61.8476562 104.488281,61.7128906 104.488281,61.578125 C104.488281,61.578125 104.488281,61.5107422 104.488281,61.3759766 C104.353516,61.2412109 104.21875,61.0390625 104.083984,60.7695312 C103.949219,60.6347656 103.74707,60.5 103.477539,60.3652344 C103.342773,60.2304688 103.073242,60.0957031 102.668945,59.9609375 C102.399414,59.9609375 101.995117,59.9609375 101.456055,59.9609375 C101.186523,59.9609375 100.916992,59.9609375 100.647461,59.9609375 C100.37793,60.0957031 100.108398,60.2304688 99.8388672,60.3652344 C99.5693359,60.5 99.3671875,60.7021484 99.2324219,60.9716797 C99.0976562,61.1064453 98.9628906,61.3085938 98.828125,61.578125 C98.6933594,61.7128906 98.6259766,61.8476562 98.6259766,61.9824219 C98.4912109,61.9824219 98.3564453,61.9824219 98.2216797,61.9824219 C98.0869141,62.1171875 97.9521484,62.1845703 97.8173828,62.1845703 C97.8173828,62.1845703 97.75,62.1171875 97.6152344,61.9824219 C97.4804688,61.9824219 97.3457031,61.9150391 97.2109375,61.7802734 C97.2109375,61.7802734 97.2109375,61.7128906 97.2109375,61.578125 C97.0761719,61.4433594 97.0087891,61.3085938 97.0087891,61.1738281 C97.0087891,61.0390625 97.0761719,60.9716797 97.2109375,60.9716797 C97.3457031,60.4326172 97.5478516,60.0283203 97.8173828,59.7587891 C98.0869141,59.3544922 98.4238281,59.0849609 98.828125,58.9501953 C99.2324219,58.6806641 99.6367188,58.4785156 100.041016,58.34375 C100.580078,58.2089844 101.051758,58.1416016 101.456055,58.1416016 C102.399414,58.1416016 103.208008,58.2763672 103.881836,58.5458984 C104.420898,58.8154297 104.892578,59.1523438 105.296875,59.5566406 C105.701172,60.0957031 105.970703,60.5673828 106.105469,60.9716797 C106.240234,61.5107422 106.307617,62.0498047 106.307617,62.5888672 C106.307617,63.1279297 106.240234,63.5996094 106.105469,64.0039062 C105.970703,64.5429688 105.701172,65.0820312 105.296875,65.6210938 C105.027344,66.0253906 104.623047,66.4296875 104.083984,66.8339844 C103.544922,67.3730469 102.871094,67.8447266 102.0625,68.2490234 C101.523438,68.6533203 100.984375,69.0576172 100.445312,69.4619141 C100.041016,69.8662109 99.7041016,70.3378906 99.4345703,70.8769531 C99.1650391,71.28125 98.9628906,71.6855469 98.828125,72.0898438 C98.5585938,72.4941406 98.4238281,72.8310547 98.4238281,73.1005859 C99.2324219,73.1005859 100.243164,73.1005859 101.456055,73.1005859 C102.668945,73.1005859 104.083984,73.1005859 105.701172,73.1005859 C105.835938,73.1005859 105.970703,73.1679688 106.105469,73.3027344 C106.240234,73.3027344 106.307617,73.3701172 106.307617,73.5048828 C106.442383,73.5048828 106.509766,73.5722656 106.509766,73.7070312 C106.644531,73.8417969 106.711914,73.9765625 106.711914,74.1113281 C106.711914,74.2460938 106.644531,74.3134766 106.509766,74.3134766 C106.509766,74.4482422 106.442383,74.5830078 106.307617,74.7177734 C106.307617,74.7177734 106.240234,74.7851562 106.105469,74.9199219 C105.970703,74.9199219 105.835938,74.9199219 105.701172,74.9199219 C105.027344,74.9199219 104.353516,74.9199219 103.679688,74.9199219 C103.005859,74.9199219 102.264648,74.9199219 101.456055,74.9199219 C100.782227,74.9199219 100.108398,74.9199219 99.4345703,74.9199219 C98.7607422,74.9199219 98.0195312,74.9199219 97.2109375,74.9199219 C97.2109375,74.9199219 97.2109375,74.9199219 97.2109375,74.9199219 C97.0761719,74.9199219 97.0087891,74.9199219 97.0087891,74.9199219 C96.8740234,74.7851562 96.8066406,74.7177734 96.8066406,74.7177734 C96.8066406,74.7177734 96.7392578,74.7177734 96.6044922,74.7177734 Z"/></svg>