<svg xmlns="http://www.w3.org/2000/svg" width="110" height="243" viewBox="0 0 110 243"><path fill="#131313" d="M19.7773438,131.723633 C18.5644531,131.723633 17.4189453,131.386719 16.3408203,130.712891 C15.2626953,130.173828 14.3867188,129.432617 13.7128906,128.489258 C13.0390625,127.411133 12.6347656,126.265625 12.5,125.052734 C12.5,124.783203 12.5,124.581055 12.5,124.446289 C12.5,123.368164 12.7021484,122.357422 13.1064453,121.414063 C21.5966797,101.333984 34.3320313,71.0791016 51.3125,30.6494141 C52.1210938,28.7626953 53.4013672,27.4150391 55.1533203,26.6064453 C56.0966797,26.3369141 57.0400391,26.1347656 57.9833984,26 C58.9267578,26 59.8701172,26.2021484 60.8134766,26.6064453 C62.7001953,27.4150391 64.0478516,28.7626953 64.8564453,30.6494141 C65.5302734,32.5361328 65.5302734,34.4228516 64.8564453,36.3095703 C57.3095703,54.2333984 45.9892578,81.1191406 30.8955078,116.966797 C44.1025391,116.966797 63.9130859,116.966797 90.3271484,116.966797 C92.3486328,116.966797 94.0332031,117.708008 95.3808594,119.19043 C96.8632812,120.538086 97.6044922,122.222656 97.6044922,124.244141 C97.6044922,126.265625 96.8632812,128.017578 95.3808594,129.5 C94.0332031,130.982422 92.3486328,131.723633 90.3271484,131.723633 C78.6025391,131.723633 66.8779297,131.723633 55.1533203,131.723633 C43.4287109,131.723633 31.6367188,131.723633 19.7773438,131.723633 Z M66.2822266,158.407227 C66.2822266,136.979492 66.2822266,104.837891 66.2822266,61.9824219 C66.2822266,59.9609375 67.0234375,58.2089844 68.5058594,56.7265625 C69.8535156,55.3789062 71.5380859,54.7050781 73.5595703,54.7050781 C75.5810547,54.7050781 77.3330078,55.3789062 78.8154297,56.7265625 C80.1630859,58.2089844 80.8369141,59.9609375 80.8369141,61.9824219 C80.8369141,83.4101562 80.8369141,115.551758 80.8369141,158.407227 C80.8369141,160.428711 80.1630859,162.180664 78.8154297,163.663086 C77.3330078,165.010742 75.5810547,165.68457 73.5595703,165.68457 C71.5380859,165.68457 69.7861328,165.010742 68.3037109,163.663086 C66.9560547,162.180664 66.2822266,160.428711 66.2822266,158.407227 Z M49.9082031,110.902344 C47.7519531,110.902344 44.5849609,110.902344 40.4072266,110.902344 C46.0673828,97.15625 54.6923828,76.5371094 66.2822266,49.0449219 C66.4169922,49.0449219 66.5517578,49.1123047 66.6865234,49.2470703 C66.8212891,49.3818359 67.0234375,49.4492188 67.2929688,49.4492188 C67.4277344,49.5839844 67.5625,49.6513672 67.6972656,49.6513672 C67.8320313,49.6513672 68.0341797,49.6513672 68.3037109,49.6513672 C62.7783203,62.8583984 54.4902344,82.6015625 43.4394531,108.880859 C44.921875,108.880859 47.078125,108.880859 49.9082031,108.880859 C49.9082031,109.150391 49.9082031,109.487305 49.9082031,109.891602 C49.9082031,110.161133 49.9082031,110.498047 49.9082031,110.902344 Z M65.2714844,43.9912109 C65.0019531,44.7998047 64.9345703,45.6083984 65.0693359,46.4169922 C65.3388672,47.2255859 65.8105469,47.8994141 66.484375,48.4384766 C66.484375,48.5732422 66.4169922,48.7080078 66.2822266,48.8427734 C65.4736328,48.3037109 64.9345703,47.5625 64.6650391,46.6191406 C64.3955078,45.6757812 64.4628906,44.7324219 64.8671875,43.7890625 C65.40625,42.5761719 66.2148438,41.7675781 67.2929688,41.3632812 C68.3710938,40.8242188 69.5166016,40.8242188 70.7294922,41.3632812 C71.8076172,41.7675781 72.5488281,42.5761719 72.953125,43.7890625 C73.4921875,44.8671875 73.4921875,45.9453125 72.953125,47.0234375 C72.5488281,48.1015625 71.9423828,48.8427734 71.1337891,49.2470703 C70.1904297,49.7861328 69.2470703,49.9208984 68.3037109,49.6513672 C68.3037109,49.6513672 68.3710938,49.5166016 68.5058594,49.2470703 C69.3144531,49.3818359 70.1230469,49.2470703 70.9316406,48.8427734 C71.6054688,48.4384766 72.1445313,47.7646484 72.5488281,46.8212891 C72.953125,45.8779297 72.953125,44.9345703 72.5488281,43.9912109 C72.1445313,42.9130859 71.4707031,42.171875 70.5273438,41.7675781 C69.4492188,41.3632812 68.4384766,41.3632812 67.4951172,41.7675781 C66.4169922,42.171875 65.6757813,42.9130859 65.2714844,43.9912109 Z M68.3037109,49.6513672 C68.0341797,49.6513672 67.8320312,49.6513672 67.6972656,49.6513672 C67.5625,49.6513672 67.4277344,49.5839844 67.2929688,49.4492188 C67.0234375,49.4492188 66.8212891,49.3818359 66.6865234,49.2470703 C66.5517578,49.1123047 66.4169922,49.0449219 66.2822266,49.0449219 C66.2822266,48.9101562 66.3496094,48.7080078 66.484375,48.4384766 C66.6191406,48.5732422 66.7539062,48.7080078 66.8886719,48.8427734 C67.0234375,48.8427734 67.2255859,48.9101562 67.4951172,49.0449219 C67.6298828,49.0449219 67.7646484,49.1123047 67.8994141,49.2470703 C68.0341797,49.2470703 68.2363281,49.2470703 68.5058594,49.2470703 C68.3710938,49.3818359 68.3037109,49.4492188 68.3037109,49.4492188 C68.3037109,49.5839844 68.3037109,49.6513672 68.3037109,49.6513672 Z M72.5488281,46.8212891 C72.1445312,47.7646484 71.6054688,48.4384766 70.9316406,48.8427734 C70.1230469,49.2470703 69.2470703,49.3818359 68.3037109,49.2470703 C68.4384766,49.1123047 68.5732422,48.9775391 68.7080078,48.8427734 C69.3818359,48.8427734 69.9882812,48.640625 70.5273438,48.2363281 C71.2011719,47.9667969 71.6728516,47.4277344 71.9423828,46.6191406 C71.9423828,46.7539062 71.9423828,46.8212891 71.9423828,46.8212891 C71.9423828,46.9560547 71.9423828,47.0234375 71.9423828,47.0234375 C71.9423828,47.0234375 71.9423828,46.9560547 71.9423828,46.8212891 C71.9423828,46.8212891 71.9423828,46.7539062 71.9423828,46.6191406 C72.3466797,45.8105469 72.3466797,45.0019531 71.9423828,44.1933594 C71.6728516,43.25 71.0664062,42.6435547 70.1230469,42.3740234 C69.3144531,41.9697266 68.5058594,41.9697266 67.6972656,42.3740234 C66.7539062,42.6435547 66.1474609,43.25 65.8779297,44.1933594 C65.4736328,44.8671875 65.40625,45.5410156 65.6757812,46.2148438 C65.8105469,46.8886719 66.1474609,47.4951172 66.6865234,48.0341797 C66.6865234,48.0341797 66.6191406,48.1689453 66.484375,48.4384766 C65.8105469,47.8994141 65.3388672,47.2255859 65.0693359,46.4169922 C64.9345703,45.6083984 65.0019531,44.7998047 65.2714844,43.9912109 C65.6757812,42.9130859 66.4169922,42.171875 67.4951172,41.7675781 C68.4384766,41.3632812 69.3818359,41.3632812 70.3251953,41.7675781 C71.4033203,42.171875 72.1445312,42.9130859 72.5488281,43.9912109 C72.953125,44.9345703 72.953125,45.8779297 72.5488281,46.8212891 Z M67.6972656,48.4384766 C67.8320312,48.5732422 67.9667969,48.640625 68.1015625,48.640625 C68.2363281,48.640625 68.4384766,48.7080078 68.7080078,48.8427734 C68.5732422,48.8427734 68.5058594,48.9775391 68.5058594,49.2470703 C68.2363281,49.2470703 68.0341797,49.2470703 67.8994141,49.2470703 C67.7646484,49.1123047 67.6298828,49.0449219 67.4951172,49.0449219 C67.2255859,48.9101562 67.0234375,48.8427734 66.8886719,48.8427734 C66.7539062,48.7080078 66.6191406,48.5732422 66.484375,48.4384766 C66.6191406,48.3037109 66.6865234,48.1689453 66.6865234,48.0341797 C66.8212891,48.0341797 66.9560547,48.1015625 67.0908203,48.2363281 C67.2255859,48.3710938 67.4277344,48.4384766 67.6972656,48.4384766 Z M49.9082031,106.859375 C52.3339844,107.533203 56.0400391,108.543945 61.0263672,109.891602 C58.6005859,110.56543 54.8945313,111.576172 49.9082031,112.923828 C49.9082031,112.384766 49.9082031,107.667969 49.9082031,106.859375 Z M87.5078125,72.2919922 C87.6425781,72.2919922 87.7773438,72.359375 87.9121094,72.4941406 C88.046875,72.4941406 88.2490234,72.4941406 88.5185547,72.4941406 C88.6533203,72.4941406 88.7880859,72.4941406 88.9228516,72.4941406 C89.1923828,72.359375 89.3945312,72.2919922 89.5292969,72.2919922 C89.5292969,77.6826172 89.5292969,85.8359375 89.5292969,96.7519531 C88.9902344,96.7519531 88.3164062,96.7519531 87.5078125,96.7519531 C87.5078125,92.7089844 87.5078125,88.6660156 87.5078125,84.6230469 C87.5078125,80.4453125 87.5078125,76.3349609 87.5078125,72.2919922 Z M87.5078125,71.6855469 C86.5644531,71.5507812 85.8232422,71.1464844 85.2841797,70.4726562 C84.7451172,69.7988281 84.4755859,68.9902344 84.4755859,68.046875 C84.4755859,66.96875 84.8798828,66.0253906 85.6884766,65.2167969 C86.4970703,64.5429688 87.4404297,64.2060547 88.5185547,64.2060547 C89.5966797,64.2060547 90.4726562,64.5429688 91.1464844,65.2167969 C91.9550781,66.0253906 92.359375,66.96875 92.359375,68.046875 C92.359375,68.9902344 92.0898438,69.7988281 91.5507812,70.4726562 C91.0117188,71.1464844 90.3378906,71.5507812 89.5292969,71.6855469 C89.5292969,71.8203125 89.5292969,72.0224609 89.5292969,72.2919922 C90.4726562,72.0224609 91.28125,71.4833984 91.9550781,70.6748047 C92.4941406,70.0009766 92.7636719,69.125 92.7636719,68.046875 C92.7636719,66.8339844 92.359375,65.8232422 91.5507812,65.0146484 C90.7421875,64.0712891 89.7314453,63.5996094 88.5185547,63.5996094 C87.3056641,63.5996094 86.2275391,64.0712891 85.2841797,65.0146484 C84.4755859,65.8232422 84.0712891,66.8339844 84.0712891,68.046875 C84.0712891,69.125 84.4082031,70.0683594 85.0820312,70.8769531 C85.6210938,71.5507812 86.4296875,72.0224609 87.5078125,72.2919922 C87.5078125,72.1572266 87.5078125,72.0898438 87.5078125,72.0898438 C87.5078125,71.9550781 87.5078125,71.8203125 87.5078125,71.6855469 Z M87.5078125,71.6855469 C87.5078125,71.8203125 87.5078125,72.0224609 87.5078125,72.2919922 C87.6425781,72.2919922 87.7773438,72.359375 87.9121094,72.4941406 C88.046875,72.4941406 88.2490234,72.4941406 88.5185547,72.4941406 C88.6533203,72.4941406 88.7880859,72.4941406 88.9228516,72.4941406 C89.1923828,72.359375 89.3945312,72.2919922 89.5292969,72.2919922 C89.5292969,72.1572266 89.5292969,71.9550781 89.5292969,71.6855469 C89.3945312,71.8203125 89.1923828,71.8876953 88.9228516,71.8876953 C88.7880859,71.8876953 88.6533203,71.8876953 88.5185547,71.8876953 C88.2490234,71.8876953 88.046875,71.8876953 87.9121094,71.8876953 C87.7773438,71.8876953 87.6425781,71.8203125 87.5078125,71.6855469 Z M88.5185547,64.6103516 C89.4619141,64.6103516 90.203125,64.9472656 90.7421875,65.6210938 C91.4160156,66.2949219 91.7529297,67.1035156 91.7529297,68.046875 C91.7529297,67.9121094 91.7529297,67.7773438 91.7529297,67.6425781 C91.7529297,67.5078125 91.7529297,67.4404297 91.7529297,67.4404297 C91.7529297,67.4404297 91.7529297,67.5078125 91.7529297,67.6425781 C91.7529297,67.7773438 91.7529297,67.9121094 91.7529297,68.046875 C91.7529297,68.1816406 91.7529297,68.3164062 91.7529297,68.4511719 C91.7529297,68.4511719 91.7529297,68.5185547 91.7529297,68.6533203 C91.7529297,68.6533203 91.7529297,68.5859375 91.7529297,68.4511719 C91.7529297,68.3164062 91.7529297,68.1816406 91.7529297,68.046875 C91.7529297,68.7207031 91.5507812,69.3945312 91.1464844,70.0683594 C90.7421875,70.6074219 90.203125,71.0117188 89.5292969,71.28125 C89.5292969,71.4160156 89.5292969,71.5507812 89.5292969,71.6855469 C90.3378906,71.5507812 91.0117188,71.1464844 91.5507812,70.4726562 C92.0898438,69.7988281 92.359375,68.9902344 92.359375,68.046875 C92.359375,66.96875 91.9550781,66.0253906 91.1464844,65.2167969 C90.4726562,64.5429688 89.5966797,64.2060547 88.5185547,64.2060547 C87.4404297,64.2060547 86.4970703,64.5429688 85.6884766,65.2167969 C84.8798828,66.0253906 84.4755859,66.96875 84.4755859,68.046875 C84.4755859,68.9902344 84.7451172,69.7988281 85.2841797,70.4726562 C85.8232422,71.1464844 86.5644531,71.5507812 87.5078125,71.6855469 C87.5078125,71.6855469 87.5078125,71.5507812 87.5078125,71.28125 C86.8339844,71.0117188 86.2275391,70.6074219 85.6884766,70.0683594 C85.2841797,69.3945312 85.0820312,68.7207031 85.0820312,68.046875 C85.0820312,67.1035156 85.4189453,66.2949219 86.0927734,65.6210938 C86.7666016,64.9472656 87.5751953,64.6103516 88.5185547,64.6103516 Z M89.5292969,71.28125 C89.3945312,71.28125 89.1923828,71.28125 88.9228516,71.28125 C88.7880859,71.4160156 88.6533203,71.4833984 88.5185547,71.4833984 C88.2490234,71.4833984 88.046875,71.4160156 87.9121094,71.28125 C87.7773438,71.28125 87.6425781,71.28125 87.5078125,71.28125 C87.5078125,71.4160156 87.5078125,71.5507812 87.5078125,71.6855469 C87.6425781,71.8203125 87.7773438,71.8876953 87.9121094,71.8876953 C88.046875,71.8876953 88.2490234,71.8876953 88.5185547,71.8876953 C88.6533203,71.8876953 88.7880859,71.8876953 88.9228516,71.8876953 C89.1923828,71.8876953 89.3945312,71.8203125 89.5292969,71.6855469 C89.5292969,71.6855469 89.5292969,71.6181641 89.5292969,71.4833984 C89.5292969,71.3486328 89.5292969,71.28125 89.5292969,71.28125 Z M91.3486328,96.7519531 C90.8095703,99.3125 89.8662109,103.085938 88.5185547,108.072266 C87.8447266,105.511719 86.8339844,101.738281 85.4863281,96.7519531 L91.3486328,96.7519531 Z M102.005722,58.235 C102.707722,58.235 103.382722,58.37 104.003722,58.64 C104.624722,58.91 105.164722,59.261 105.623722,59.693 C106.055722,60.152 106.406722,60.665 106.676722,61.205 C106.919722,61.772 107.054722,62.339 107.054722,62.906 C107.054722,64.013 106.865722,65.039 106.487722,66.011 C106.082722,67.01 105.488722,67.874 104.732722,68.63 C104.111722,69.224 103.517722,69.791 102.923722,70.385 L101.114722,72.14 L100.007722,73.193 C99.6027222,73.571 99.0897222,74.03 98.4687222,74.543 C99.3597222,74.435 100.115722,74.381 100.709722,74.327 C101.303722,74.3 101.870722,74.273 102.410722,74.219 C102.977722,74.192 103.571722,74.165 104.219722,74.165 C104.840722,74.165 105.434722,74.111 106.028722,74.057 L106.406722,74.003 L106.784722,73.922 C107.000722,73.868 107.243722,73.841 107.486722,73.841 C107.810722,73.841 108.080722,74.003 108.323722,74.327 C108.566722,74.651 108.701722,74.975 108.701722,75.353 C108.701722,75.596 108.593722,75.785 108.431722,75.893 C108.269722,76.055 108.107722,76.109 107.945722,76.109 C107.351722,76.109 106.784722,76.082 106.217722,75.974 C105.623722,75.893 105.029722,75.839 104.462722,75.839 C103.436722,75.839 102.383722,75.893 101.303722,76.001 C100.196722,76.109 99.1437222,76.217 98.1177222,76.352 C97.9827222,76.379 97.8477222,76.406 97.7397222,76.433 C97.6047222,76.46 97.4697222,76.487 97.3347222,76.514 C97.0647222,76.568 96.8217222,76.595 96.6057222,76.595 C96.2547222,76.595 95.9577222,76.514 95.6877222,76.298 C95.3907222,76.109 95.2557222,75.812 95.2557222,75.434 C95.2557222,75.191 95.3097222,74.975 95.4177222,74.759 C95.5257222,74.597 95.6877222,74.408 95.8767222,74.219 C96.0927222,74.003 96.2817222,73.787 96.4977222,73.571 C96.7137222,73.355 96.9297222,73.166 97.1997222,72.95 C98.1177222,72.221 99.0087222,71.465 99.8457222,70.655 L102.410722,68.252 C102.734722,67.928 103.085722,67.577 103.409722,67.199 C103.706722,66.848 103.976722,66.47 104.219722,66.038 C104.462722,65.633 104.651722,65.201 104.813722,64.715 C104.975722,64.256 105.056722,63.77 105.056722,63.23 C105.056722,62.798 104.975722,62.393 104.813722,61.988 C104.651722,61.61 104.435722,61.259 104.165722,60.935 C103.868722,60.638 103.544722,60.395 103.166722,60.206 C102.788722,60.044 102.356722,59.936 101.924722,59.936 C101.114722,59.936 100.466722,60.125 100.007722,60.476 C99.5217222,60.854 99.0897222,61.34 98.7117222,61.988 C98.6037222,62.15 98.5497222,62.285 98.4957222,62.447 C98.4417222,62.609 98.3607222,62.771 98.3067222,62.906 C98.2257222,63.068 98.1447222,63.23 98.0637222,63.365 C97.9827222,63.527 97.9017222,63.662 97.8477222,63.743 C97.6857222,63.905 97.5507222,64.04 97.4427222,64.121 C97.3077222,64.229 97.1457222,64.256 96.9567222,64.256 C96.6867222,64.256 96.4437222,64.148 96.2007222,63.905 C95.9307222,63.689 95.8227222,63.446 95.8227222,63.122 C95.8227222,62.879 95.8767222,62.582 96.0117222,62.258 C96.1197222,61.934 96.2817222,61.61 96.4707222,61.286 C96.6327222,60.962 96.8487222,60.665 97.0647222,60.368 C97.2807222,60.098 97.4697222,59.855 97.6857222,59.693 C98.2797222,59.18 98.9547222,58.802 99.7107222,58.559 C100.466722,58.343 101.222722,58.235 102.005722,58.235 Z M78.3557222,30.397 C78.7337222,30.397 79.0307222,30.505 79.2737222,30.667 C79.4897222,30.829 79.5977222,31.099 79.5977222,31.45 C79.5977222,31.639 79.5707222,31.801 79.5707222,31.963 L79.4897222,32.476 L79.3817222,32.989 C79.3277222,33.178 79.2737222,33.34 79.2467222,33.502 C78.7607222,35.365 78.4637222,37.255 78.3017222,39.145 C78.1397222,41.062 78.0857222,42.952 78.0857222,44.842 C78.0857222,45.112 78.0857222,45.436 78.1397222,45.787 C78.1397222,46.138 78.1937222,46.462 78.2477222,46.759 C78.2747222,47.083 78.3017222,47.38 78.3557222,47.623 C78.3557222,47.893 78.3827222,48.055 78.3827222,48.136 C78.3827222,48.298 78.2477222,48.433 78.0317222,48.541 C77.7617222,48.649 77.5187222,48.703 77.3027222,48.703 C76.8707222,48.703 76.5467222,48.595 76.3037222,48.325 C76.0607222,48.082 75.9527222,47.758 75.9527222,47.326 C75.9527222,46.57 75.9797222,45.679 76.0337222,44.653 C76.0607222,43.627 76.1147222,42.601 76.1687222,41.575 C76.1957222,41.035 76.2497222,40.414 76.3037222,39.766 L76.5197222,37.849 C76.6007222,37.201 76.6817222,36.607 76.7897222,36.013 C76.8437222,35.419 76.9247222,34.906 77.0057222,34.474 C76.6277222,34.879 76.3307222,35.23 76.0607222,35.527 C75.7907222,35.824 75.5747222,36.04 75.4397222,36.175 L74.8997222,36.769 C74.6837222,37.012 74.5217222,37.201 74.3867222,37.363 C74.1707222,37.579 73.9817222,37.741 73.7927222,37.849 C73.5767222,37.957 73.3607222,38.011 73.1177222,38.011 C72.7937222,38.011 72.4697222,37.93 72.1997222,37.714 C71.8757222,37.525 71.7407222,37.282 71.7407222,36.958 C71.7407222,36.877 71.7677222,36.796 71.8757222,36.688 C71.9567222,36.607 72.0647222,36.526 72.1997222,36.418 L72.4427222,36.256 C72.4967222,36.202 72.5777222,36.175 72.6587222,36.121 L72.8747222,36.013 C72.9287222,35.959 73.0097222,35.905 73.0637222,35.851 C73.6307222,35.311 74.2247222,34.717 74.8457222,34.042 C75.4397222,33.394 75.9797222,32.746 76.4927222,32.152 C76.6547222,31.963 76.8437222,31.747 77.0057222,31.531 C77.1407222,31.315 77.3027222,31.126 77.5187222,30.91 C77.5997222,30.829 77.7347222,30.721 77.8967222,30.586 C78.0587222,30.478 78.1937222,30.397 78.3557222,30.397 Z"/></svg>