<svg xmlns="http://www.w3.org/2000/svg" width="110" height="203" viewBox="0 0 110 203"><path fill="#131313" d="M1906.05512,168.723633 C1904.84223,168.723633 1903.69672,168.386719 1902.6186,167.712891 C1901.54047,167.173828 1900.6645,166.432617 1899.99067,165.489258 C1899.31684,164.411133 1898.91254,163.265625 1898.77778,162.052734 C1898.77778,161.783203 1898.77778,161.581055 1898.77778,161.446289 C1898.77778,160.368164 1898.97993,159.357422 1899.38422,158.414063 C1907.87446,138.333984 1920.60981,108.079102 1937.59028,67.6494141 C1938.39887,65.7626953 1939.67914,64.4150391 1941.4311,63.6064453 C1942.37446,63.3369141 1943.31782,63.1347656 1944.26118,63 C1945.20454,63 1946.14789,63.2021484 1947.09125,63.6064453 C1948.97797,64.4150391 1950.32563,65.7626953 1951.13422,67.6494141 C1951.80805,69.5361328 1951.80805,71.4228516 1951.13422,73.3095703 C1943.58735,91.2333984 1932.26704,118.119141 1917.17329,153.966797 C1930.38032,153.966797 1950.19086,153.966797 1976.60493,153.966797 C1978.62641,153.966797 1980.31098,154.708008 1981.65864,156.19043 C1983.14106,157.538086 1983.88227,159.222656 1983.88227,161.244141 C1983.88227,163.265625 1983.14106,165.017578 1981.65864,166.5 C1980.31098,167.982422 1978.62641,168.723633 1976.60493,168.723633 C1964.88032,168.723633 1953.15571,168.723633 1941.4311,168.723633 C1929.70649,168.723633 1917.9145,168.723633 1906.05512,168.723633 Z M1952.56,195.407227 C1952.56,173.979492 1952.56,141.837891 1952.56,98.9824219 C1952.56,96.9609375 1953.30122,95.2089844 1954.78364,93.7265625 C1956.13129,92.3789062 1957.81586,91.7050781 1959.83735,91.7050781 C1961.85883,91.7050781 1963.61079,92.3789062 1965.09321,93.7265625 C1966.44086,95.2089844 1967.11469,96.9609375 1967.11469,98.9824219 C1967.11469,120.410156 1967.11469,152.551758 1967.11469,195.407227 C1967.11469,197.428711 1966.44086,199.180664 1965.09321,200.663086 C1963.61079,202.010742 1961.85883,202.68457 1959.83735,202.68457 C1957.81586,202.68457 1956.06391,202.010742 1954.58149,200.663086 C1953.23383,199.180664 1952.56,197.428711 1952.56,195.407227 Z M1936.18598,147.902344 C1934.02973,147.902344 1930.86274,147.902344 1926.685,147.902344 C1932.34516,134.15625 1940.97016,113.537109 1952.56,86.0449219 C1952.69477,86.0449219 1952.82954,86.1123047 1952.9643,86.2470703 C1953.09907,86.3818359 1953.30122,86.4492188 1953.57075,86.4492188 C1953.70551,86.5839844 1953.84028,86.6513672 1953.97504,86.6513672 C1954.10981,86.6513672 1954.31196,86.6513672 1954.58149,86.6513672 C1949.0561,99.8583984 1940.76801,119.601562 1929.71723,145.880859 C1931.19965,145.880859 1933.3559,145.880859 1936.18598,145.880859 C1936.18598,146.150391 1936.18598,146.487305 1936.18598,146.891602 C1936.18598,147.161133 1936.18598,147.498047 1936.18598,147.902344 Z M1951.54926,80.9912109 C1951.27973,81.7998047 1951.21235,82.6083984 1951.34711,83.4169922 C1951.61664,84.2255859 1952.08832,84.8994141 1952.76215,85.4384766 C1952.76215,85.5732422 1952.69477,85.7080078 1952.56,85.8427734 C1951.75141,85.3037109 1951.21235,84.5625 1950.94282,83.6191406 C1950.67329,82.6757812 1950.74067,81.7324219 1951.14497,80.7890625 C1951.68403,79.5761719 1952.49262,78.7675781 1953.57075,78.3632812 C1954.64887,77.8242188 1955.79438,77.8242188 1957.00727,78.3632812 C1958.08539,78.7675781 1958.82661,79.5761719 1959.2309,80.7890625 C1959.76997,81.8671875 1959.76997,82.9453125 1959.2309,84.0234375 C1958.82661,85.1015625 1958.22016,85.8427734 1957.41157,86.2470703 C1956.46821,86.7861328 1955.52485,86.9208984 1954.58149,86.6513672 C1954.58149,86.6513672 1954.64887,86.5166016 1954.78364,86.2470703 C1955.59223,86.3818359 1956.40082,86.2470703 1957.20942,85.8427734 C1957.88325,85.4384766 1958.42231,84.7646484 1958.82661,83.8212891 C1959.2309,82.8779297 1959.2309,81.9345703 1958.82661,80.9912109 C1958.42231,79.9130859 1957.74848,79.171875 1956.80512,78.7675781 C1955.727,78.3632812 1954.71625,78.3632812 1953.77289,78.7675781 C1952.69477,79.171875 1951.95356,79.9130859 1951.54926,80.9912109 Z M1954.58149,86.6513672 C1954.31196,86.6513672 1954.10981,86.6513672 1953.97504,86.6513672 C1953.84028,86.6513672 1953.70551,86.5839844 1953.57075,86.4492188 C1953.30122,86.4492188 1953.09907,86.3818359 1952.9643,86.2470703 C1952.82954,86.1123047 1952.69477,86.0449219 1952.56,86.0449219 C1952.56,85.9101562 1952.62739,85.7080078 1952.76215,85.4384766 C1952.89692,85.5732422 1953.03168,85.7080078 1953.16645,85.8427734 C1953.30122,85.8427734 1953.50336,85.9101562 1953.77289,86.0449219 C1953.90766,86.0449219 1954.04243,86.1123047 1954.17719,86.2470703 C1954.31196,86.2470703 1954.51411,86.2470703 1954.78364,86.2470703 C1954.64887,86.3818359 1954.58149,86.4492188 1954.58149,86.4492188 C1954.58149,86.5839844 1954.58149,86.6513672 1954.58149,86.6513672 Z M1958.82661,83.8212891 C1958.42231,84.7646484 1957.88325,85.4384766 1957.20942,85.8427734 C1956.40082,86.2470703 1955.52485,86.3818359 1954.58149,86.2470703 C1954.71625,86.1123047 1954.85102,85.9775391 1954.98579,85.8427734 C1955.65961,85.8427734 1956.26606,85.640625 1956.80512,85.2363281 C1957.47895,84.9667969 1957.95063,84.4277344 1958.22016,83.6191406 C1958.22016,83.7539062 1958.22016,83.8212891 1958.22016,83.8212891 C1958.22016,83.9560547 1958.22016,84.0234375 1958.22016,84.0234375 C1958.22016,84.0234375 1958.22016,83.9560547 1958.22016,83.8212891 C1958.22016,83.8212891 1958.22016,83.7539062 1958.22016,83.6191406 C1958.62446,82.8105469 1958.62446,82.0019531 1958.22016,81.1933594 C1957.95063,80.25 1957.34418,79.6435547 1956.40082,79.3740234 C1955.59223,78.9697266 1954.78364,78.9697266 1953.97504,79.3740234 C1953.03168,79.6435547 1952.42524,80.25 1952.15571,81.1933594 C1951.75141,81.8671875 1951.68403,82.5410156 1951.95356,83.2148438 C1952.08832,83.8886719 1952.42524,84.4951172 1952.9643,85.0341797 C1952.9643,85.0341797 1952.89692,85.1689453 1952.76215,85.4384766 C1952.08832,84.8994141 1951.61664,84.2255859 1951.34711,83.4169922 C1951.21235,82.6083984 1951.27973,81.7998047 1951.54926,80.9912109 C1951.95356,79.9130859 1952.69477,79.171875 1953.77289,78.7675781 C1954.71625,78.3632812 1955.65961,78.3632812 1956.60297,78.7675781 C1957.6811,79.171875 1958.42231,79.9130859 1958.82661,80.9912109 C1959.2309,81.9345703 1959.2309,82.8779297 1958.82661,83.8212891 Z M1953.97504,85.4384766 C1954.10981,85.5732422 1954.24457,85.640625 1954.37934,85.640625 C1954.51411,85.640625 1954.71625,85.7080078 1954.98579,85.8427734 C1954.85102,85.8427734 1954.78364,85.9775391 1954.78364,86.2470703 C1954.51411,86.2470703 1954.31196,86.2470703 1954.17719,86.2470703 C1954.04243,86.1123047 1953.90766,86.0449219 1953.77289,86.0449219 C1953.50336,85.9101562 1953.30122,85.8427734 1953.16645,85.8427734 C1953.03168,85.7080078 1952.89692,85.5732422 1952.76215,85.4384766 C1952.89692,85.3037109 1952.9643,85.1689453 1952.9643,85.0341797 C1953.09907,85.0341797 1953.23383,85.1015625 1953.3686,85.2363281 C1953.50336,85.3710938 1953.70551,85.4384766 1953.97504,85.4384766 Z M1936.18598,143.859375 C1938.61176,144.533203 1942.31782,145.543945 1947.30414,146.891602 C1944.87836,147.56543 1941.17231,148.576172 1936.18598,149.923828 C1936.18598,149.384766 1936.18598,144.667969 1936.18598,143.859375 Z M1973.78559,109.291992 C1973.92036,109.291992 1974.05512,109.359375 1974.18989,109.494141 C1974.32465,109.494141 1974.5268,109.494141 1974.79633,109.494141 C1974.9311,109.494141 1975.06586,109.494141 1975.20063,109.494141 C1975.47016,109.359375 1975.67231,109.291992 1975.80707,109.291992 C1975.80707,114.682617 1975.80707,122.835938 1975.80707,133.751953 C1975.26801,133.751953 1974.59418,133.751953 1973.78559,133.751953 C1973.78559,129.708984 1973.78559,125.666016 1973.78559,121.623047 C1973.78559,117.445312 1973.78559,113.334961 1973.78559,109.291992 Z M1973.78559,108.685547 C1972.84223,108.550781 1972.10102,108.146484 1971.56196,107.472656 C1971.02289,106.798828 1970.75336,105.990234 1970.75336,105.046875 C1970.75336,103.96875 1971.15766,103.025391 1971.96625,102.216797 C1972.77485,101.542969 1973.71821,101.206055 1974.79633,101.206055 C1975.87446,101.206055 1976.75043,101.542969 1977.42426,102.216797 C1978.23286,103.025391 1978.63715,103.96875 1978.63715,105.046875 C1978.63715,105.990234 1978.36762,106.798828 1977.82856,107.472656 C1977.2895,108.146484 1976.61567,108.550781 1975.80707,108.685547 C1975.80707,108.820312 1975.80707,109.022461 1975.80707,109.291992 C1976.75043,109.022461 1977.55903,108.483398 1978.23286,107.674805 C1978.77192,107.000977 1979.04145,106.125 1979.04145,105.046875 C1979.04145,103.833984 1978.63715,102.823242 1977.82856,102.014648 C1977.01997,101.071289 1976.00922,100.599609 1974.79633,100.599609 C1973.58344,100.599609 1972.50532,101.071289 1971.56196,102.014648 C1970.75336,102.823242 1970.34907,103.833984 1970.34907,105.046875 C1970.34907,106.125 1970.68598,107.068359 1971.35981,107.876953 C1971.89887,108.550781 1972.70747,109.022461 1973.78559,109.291992 C1973.78559,109.157227 1973.78559,109.089844 1973.78559,109.089844 C1973.78559,108.955078 1973.78559,108.820312 1973.78559,108.685547 Z M1973.78559,108.685547 C1973.78559,108.820312 1973.78559,109.022461 1973.78559,109.291992 C1973.92036,109.291992 1974.05512,109.359375 1974.18989,109.494141 C1974.32465,109.494141 1974.5268,109.494141 1974.79633,109.494141 C1974.9311,109.494141 1975.06586,109.494141 1975.20063,109.494141 C1975.47016,109.359375 1975.67231,109.291992 1975.80707,109.291992 C1975.80707,109.157227 1975.80707,108.955078 1975.80707,108.685547 C1975.67231,108.820312 1975.47016,108.887695 1975.20063,108.887695 C1975.06586,108.887695 1974.9311,108.887695 1974.79633,108.887695 C1974.5268,108.887695 1974.32465,108.887695 1974.18989,108.887695 C1974.05512,108.887695 1973.92036,108.820312 1973.78559,108.685547 Z M1974.79633,101.610352 C1975.73969,101.610352 1976.4809,101.947266 1977.01997,102.621094 C1977.69379,103.294922 1978.03071,104.103516 1978.03071,105.046875 C1978.03071,104.912109 1978.03071,104.777344 1978.03071,104.642578 C1978.03071,104.507812 1978.03071,104.44043 1978.03071,104.44043 C1978.03071,104.44043 1978.03071,104.507812 1978.03071,104.642578 C1978.03071,104.777344 1978.03071,104.912109 1978.03071,105.046875 C1978.03071,105.181641 1978.03071,105.316406 1978.03071,105.451172 C1978.03071,105.451172 1978.03071,105.518555 1978.03071,105.65332 C1978.03071,105.65332 1978.03071,105.585938 1978.03071,105.451172 C1978.03071,105.316406 1978.03071,105.181641 1978.03071,105.046875 C1978.03071,105.720703 1977.82856,106.394531 1977.42426,107.068359 C1977.01997,107.607422 1976.4809,108.011719 1975.80707,108.28125 C1975.80707,108.416016 1975.80707,108.550781 1975.80707,108.685547 C1976.61567,108.550781 1977.2895,108.146484 1977.82856,107.472656 C1978.36762,106.798828 1978.63715,105.990234 1978.63715,105.046875 C1978.63715,103.96875 1978.23286,103.025391 1977.42426,102.216797 C1976.75043,101.542969 1975.87446,101.206055 1974.79633,101.206055 C1973.71821,101.206055 1972.77485,101.542969 1971.96625,102.216797 C1971.15766,103.025391 1970.75336,103.96875 1970.75336,105.046875 C1970.75336,105.990234 1971.02289,106.798828 1971.56196,107.472656 C1972.10102,108.146484 1972.84223,108.550781 1973.78559,108.685547 C1973.78559,108.685547 1973.78559,108.550781 1973.78559,108.28125 C1973.11176,108.011719 1972.50532,107.607422 1971.96625,107.068359 C1971.56196,106.394531 1971.35981,105.720703 1971.35981,105.046875 C1971.35981,104.103516 1971.69672,103.294922 1972.37055,102.621094 C1973.04438,101.947266 1973.85297,101.610352 1974.79633,101.610352 Z M1975.80707,108.28125 C1975.67231,108.28125 1975.47016,108.28125 1975.20063,108.28125 C1975.06586,108.416016 1974.9311,108.483398 1974.79633,108.483398 C1974.5268,108.483398 1974.32465,108.416016 1974.18989,108.28125 C1974.05512,108.28125 1973.92036,108.28125 1973.78559,108.28125 C1973.78559,108.416016 1973.78559,108.550781 1973.78559,108.685547 C1973.92036,108.820312 1974.05512,108.887695 1974.18989,108.887695 C1974.32465,108.887695 1974.5268,108.887695 1974.79633,108.887695 C1974.9311,108.887695 1975.06586,108.887695 1975.20063,108.887695 C1975.47016,108.887695 1975.67231,108.820312 1975.80707,108.685547 C1975.80707,108.685547 1975.80707,108.618164 1975.80707,108.483398 C1975.80707,108.348633 1975.80707,108.28125 1975.80707,108.28125 Z M1977.62641,133.751953 C1977.08735,136.3125 1976.14399,140.085938 1974.79633,145.072266 C1974.1225,142.511719 1973.11176,138.738281 1971.76411,133.751953 L1977.62641,133.751953 Z M1988.2835,95.235 C1988.9855,95.235 1989.6605,95.37 1990.2815,95.64 C1990.9025,95.91 1991.4425,96.261 1991.9015,96.693 C1992.3335,97.152 1992.6845,97.665 1992.9545,98.205 C1993.1975,98.772 1993.3325,99.339 1993.3325,99.906 C1993.3325,101.013 1993.1435,102.039 1992.7655,103.011 C1992.3605,104.01 1991.7665,104.874 1991.0105,105.63 C1990.3895,106.224 1989.7955,106.791 1989.2015,107.385 L1987.3925,109.14 L1986.2855,110.193 C1985.8805,110.571 1985.3675,111.03 1984.7465,111.543 C1985.6375,111.435 1986.3935,111.381 1986.9875,111.327 C1987.5815,111.3 1988.1485,111.273 1988.6885,111.219 C1989.2555,111.192 1989.8495,111.165 1990.4975,111.165 C1991.1185,111.165 1991.7125,111.111 1992.3065,111.057 L1992.6845,111.003 L1993.0625,110.922 C1993.2785,110.868 1993.5215,110.841 1993.7645,110.841 C1994.0885,110.841 1994.3585,111.003 1994.6015,111.327 C1994.8445,111.651 1994.9795,111.975 1994.9795,112.353 C1994.9795,112.596 1994.8715,112.785 1994.7095,112.893 C1994.5475,113.055 1994.3855,113.109 1994.2235,113.109 C1993.6295,113.109 1993.0625,113.082 1992.4955,112.974 C1991.9015,112.893 1991.3075,112.839 1990.7405,112.839 C1989.7145,112.839 1988.6615,112.893 1987.5815,113.001 C1986.4745,113.109 1985.4215,113.217 1984.3955,113.352 C1984.2605,113.379 1984.1255,113.406 1984.0175,113.433 C1983.8825,113.46 1983.7475,113.487 1983.6125,113.514 C1983.3425,113.568 1983.0995,113.595 1982.8835,113.595 C1982.5325,113.595 1982.2355,113.514 1981.9655,113.298 C1981.6685,113.109 1981.5335,112.812 1981.5335,112.434 C1981.5335,112.191 1981.5875,111.975 1981.6955,111.759 C1981.8035,111.597 1981.9655,111.408 1982.1545,111.219 C1982.3705,111.003 1982.5595,110.787 1982.7755,110.571 C1982.9915,110.355 1983.2075,110.166 1983.4775,109.95 C1984.3955,109.221 1985.2865,108.465 1986.1235,107.655 L1988.6885,105.252 C1989.0125,104.928 1989.3635,104.577 1989.6875,104.199 C1989.9845,103.848 1990.2545,103.47 1990.4975,103.038 C1990.7405,102.633 1990.9295,102.201 1991.0915,101.715 C1991.2535,101.256 1991.3345,100.77 1991.3345,100.23 C1991.3345,99.798 1991.2535,99.393 1991.0915,98.988 C1990.9295,98.61 1990.7135,98.259 1990.4435,97.935 C1990.1465,97.638 1989.8225,97.395 1989.4445,97.206 C1989.0665,97.044 1988.6345,96.936 1988.2025,96.936 C1987.3925,96.936 1986.7445,97.125 1986.2855,97.476 C1985.7995,97.854 1985.3675,98.34 1984.9895,98.988 C1984.8815,99.15 1984.8275,99.285 1984.7735,99.447 C1984.7195,99.609 1984.6385,99.771 1984.5845,99.906 C1984.5035,100.068 1984.4225,100.23 1984.3415,100.365 C1984.2605,100.527 1984.1795,100.662 1984.1255,100.743 C1983.9635,100.905 1983.8285,101.04 1983.7205,101.121 C1983.5855,101.229 1983.4235,101.256 1983.2345,101.256 C1982.9645,101.256 1982.7215,101.148 1982.4785,100.905 C1982.2085,100.689 1982.1005,100.446 1982.1005,100.122 C1982.1005,99.879 1982.1545,99.582 1982.2895,99.258 C1982.3975,98.934 1982.5595,98.61 1982.7485,98.286 C1982.9105,97.962 1983.1265,97.665 1983.3425,97.368 C1983.5585,97.098 1983.7475,96.855 1983.9635,96.693 C1984.5575,96.18 1985.2325,95.802 1985.9885,95.559 C1986.7445,95.343 1987.5005,95.235 1988.2835,95.235 Z M1964.6335,67.397 C1965.0115,67.397 1965.3085,67.505 1965.5515,67.667 C1965.7675,67.829 1965.8755,68.099 1965.8755,68.45 C1965.8755,68.639 1965.8485,68.801 1965.8485,68.963 L1965.7675,69.476 L1965.6595,69.989 C1965.6055,70.178 1965.5515,70.34 1965.5245,70.502 C1965.0385,72.365 1964.7415,74.255 1964.5795,76.145 C1964.4175,78.062 1964.3635,79.952 1964.3635,81.842 C1964.3635,82.112 1964.3635,82.436 1964.4175,82.787 C1964.4175,83.138 1964.4715,83.462 1964.5255,83.759 C1964.5525,84.083 1964.5795,84.38 1964.6335,84.623 C1964.6335,84.893 1964.6605,85.055 1964.6605,85.136 C1964.6605,85.298 1964.5255,85.433 1964.3095,85.541 C1964.0395,85.649 1963.7965,85.703 1963.5805,85.703 C1963.1485,85.703 1962.8245,85.595 1962.5815,85.325 C1962.3385,85.082 1962.2305,84.758 1962.2305,84.326 C1962.2305,83.57 1962.2575,82.679 1962.3115,81.653 C1962.3385,80.627 1962.3925,79.601 1962.4465,78.575 C1962.4735,78.035 1962.5275,77.414 1962.5815,76.766 L1962.7975,74.849 C1962.8785,74.201 1962.9595,73.607 1963.0675,73.013 C1963.1215,72.419 1963.2025,71.906 1963.2835,71.474 C1962.9055,71.879 1962.6085,72.23 1962.3385,72.527 C1962.0685,72.824 1961.8525,73.04 1961.7175,73.175 L1961.1775,73.769 C1960.9615,74.012 1960.7995,74.201 1960.6645,74.363 C1960.4485,74.579 1960.2595,74.741 1960.0705,74.849 C1959.8545,74.957 1959.6385,75.011 1959.3955,75.011 C1959.0715,75.011 1958.7475,74.93 1958.4775,74.714 C1958.1535,74.525 1958.0185,74.282 1958.0185,73.958 C1958.0185,73.877 1958.0455,73.796 1958.1535,73.688 C1958.2345,73.607 1958.3425,73.526 1958.4775,73.418 L1958.7205,73.256 C1958.7745,73.202 1958.8555,73.175 1958.9365,73.121 L1959.1525,73.013 C1959.2065,72.959 1959.2875,72.905 1959.3415,72.851 C1959.9085,72.311 1960.5025,71.717 1961.1235,71.042 C1961.7175,70.394 1962.2575,69.746 1962.7705,69.152 C1962.9325,68.963 1963.1215,68.747 1963.2835,68.531 C1963.4185,68.315 1963.5805,68.126 1963.7965,67.91 C1963.8775,67.829 1964.0125,67.721 1964.1745,67.586 C1964.3365,67.478 1964.4715,67.397 1964.6335,67.397 Z" transform="translate(-1886.278)"/></svg>