<svg xmlns="http://www.w3.org/2000/svg" width="110" height="243" viewBox="0 0 110 243"><path fill="#131313" d="M13.864502,145.267578 C12.6516113,143.650391 12.2473145,141.831055 12.6516113,139.80957 C13.0559082,137.922852 14.0666504,136.373047 15.6838379,135.160156 C17.435791,134.082031 19.3225098,133.677734 21.3439941,133.947266 C23.2307129,134.351562 24.7805176,135.429688 25.9934082,137.181641 C29.7668457,142.841797 34.0793457,146.547852 38.9309082,148.299805 C43.7824707,150.051758 48.0949707,150.927734 51.8684082,150.927734 C59.145752,150.927734 65.0754395,149.310547 69.6574707,146.076172 C74.1047363,142.976562 77.4064941,139.337891 79.5627441,135.160156 C80.7756348,132.869141 81.6516113,130.645508 82.1906738,128.489258 C82.7297363,126.198242 82.9992676,124.041992 82.9992676,122.020508 C82.9992676,119.325195 82.5275879,115.753906 81.5842285,111.306641 C80.7756348,106.994141 78.7541504,103.220703 75.5197754,99.9863281 C73.2287598,97.6953125 70.4660645,96.0107422 67.2316895,94.9326172 C63.9973145,93.8544922 60.2912598,93.3154297 56.1135254,93.3154297 C55.9787598,93.3154297 55.911377,93.3154297 55.911377,93.3154297 C55.911377,93.3154297 55.911377,93.3154297 55.911377,93.3154297 C48.6340332,93.3154297 42.8391113,93.5849609 38.5266113,94.1240234 C34.348877,94.7978516 32.192627,95.1347656 32.0578613,95.1347656 C30.8449707,95.4042969 29.6994629,95.3369141 28.6213379,94.9326172 C27.4084473,94.6630859 26.3977051,94.1240234 25.5891113,93.3154297 C24.645752,92.3720703 23.9719238,91.3613281 23.567627,90.2832031 C23.2980957,89.0703125 23.2307129,87.8574219 23.3654785,86.6445312 C25.6564941,74.515625 29.0256348,56.2548828 33.4729004,31.8623047 C33.7424316,30.1103516 34.5510254,28.6953125 35.8986816,27.6171875 C37.2463379,26.5390625 38.7961426,26 40.5480957,26 C50.2512207,26 64.7385254,26 84.0100098,26 C86.0314941,26 87.7160645,26.6738281 89.0637207,28.0214844 C90.5461426,29.5039062 91.2873535,31.2558594 91.2873535,33.2773438 C91.2873535,35.2988281 90.5461426,36.9833984 89.0637207,38.3310547 C87.7160645,39.8134766 86.0314941,40.5546875 84.0100098,40.5546875 C75.654541,40.5546875 63.2561035,40.5546875 46.8146973,40.5546875 C45.1975098,49.1796875 42.8391113,62.1171875 39.739502,79.3671875 C41.895752,79.0976562 44.3215332,78.8955078 47.0168457,78.7607422 C49.7121582,78.6259766 52.677002,78.5585938 55.911377,78.5585938 C62.1105957,78.5585938 67.770752,79.4345703 72.8918457,81.1865234 C77.8781738,83.0732422 82.1906738,85.8359375 85.8293457,89.4746094 C89.6027832,93.3828125 92.5002441,98.0996094 94.5217285,103.625 C96.5432129,109.285156 97.5539551,115.416992 97.5539551,122.020508 C97.5539551,127.411133 96.5432129,132.666992 94.5217285,137.788086 C92.5002441,142.90918 89.670166,147.423828 86.0314941,151.332031 C82.9318848,154.566406 78.6193848,157.733398 73.0939941,160.833008 C67.5686035,163.932617 60.4934082,165.482422 51.8684082,165.482422 C43.9172363,165.482422 36.7072754,163.797852 30.2385254,160.428711 C23.6350098,156.924805 18.177002,151.871094 13.864502,145.267578 Z M22.8525391,39.1396484 C23.1220703,39.2744141 23.3242188,39.3417969 23.4589844,39.3417969 C23.59375,39.3417969 23.7285156,39.3417969 23.8632812,39.3417969 C22.515625,47.1582031 20.4267578,58.8828125 17.5966797,74.515625 C17.0576172,74.3808594 16.3837891,74.2460938 15.5751953,74.1113281 C16.9228516,66.2949219 19.0117188,54.5703125 21.8417969,38.9375 C22.1113281,38.9375 22.3134766,39.0048828 22.4482422,39.1396484 C22.5830078,39.1396484 22.7177734,39.1396484 22.8525391,39.1396484 Z M17.1923828,76.5371094 C17.1923828,75.9980469 17.3271484,75.3242188 17.5966797,74.515625 C18.0009766,74.515625 18.6074219,74.5830078 19.4160156,74.7177734 C18.3378906,77.1435547 16.7207031,80.6474609 14.5644531,85.2294922 C14.2949219,82.6689453 13.9580078,78.828125 13.5537109,73.7070312 C13.9580078,73.8417969 14.6318359,73.9765625 15.5751953,74.1113281 C15.4404297,74.515625 15.3056641,75.1894531 15.1708984,76.1328125 C15.5751953,76.1328125 16.2490234,76.2675781 17.1923828,76.5371094 Z M17.1923828,76.5371094 C17.1923828,75.9980469 17.3271484,75.3242188 17.5966797,74.515625 C17.0576172,74.3808594 16.3837891,74.2460938 15.5751953,74.1113281 C15.4404297,74.515625 15.3056641,75.1894531 15.1708984,76.1328125 C15.5751953,76.1328125 16.2490234,76.2675781 17.1923828,76.5371094 Z M28.1083984,35.703125 C27.8388672,36.6464844 27.3671875,37.4550781 26.6933594,38.1289062 C25.8847656,38.8027344 24.9414062,39.2070312 23.8632812,39.3417969 C23.9980469,39.2070312 24.0654297,39.0048828 24.0654297,38.7353516 C24.8740234,38.6005859 25.6152344,38.2636719 26.2890625,37.7246094 C26.9628906,37.1855469 27.3671875,36.4443359 27.5019531,35.5009766 C27.7714844,34.5576172 27.5693359,33.6142578 26.8955078,32.6708984 C26.3564453,31.7275391 25.5478516,31.1884766 24.4697266,31.0537109 C23.3916016,30.9189453 22.3808594,31.1210938 21.4375,31.6601562 C20.6289062,32.3339844 20.0898438,33.1425781 19.8203125,34.0859375 C19.6855469,35.0292969 19.8203125,35.9052734 20.2246094,36.7138672 C20.6289062,37.3876953 21.2353516,37.9267578 22.0439453,38.3310547 C22.0439453,38.4658203 21.9765625,38.6679688 21.8417969,38.9375 C21.0332031,38.5332031 20.359375,37.859375 19.8203125,36.9160156 C19.28125,36.1074219 19.1464844,35.1640625 19.4160156,34.0859375 C19.5507812,32.8730469 20.1572266,31.9296875 21.2353516,31.2558594 C22.1787109,30.5820312 23.2568359,30.3125 24.4697266,30.4472656 C25.6826172,30.7167969 26.6259766,31.390625 27.2998047,32.46875 C27.9736328,33.4121094 28.2431641,34.4902344 28.1083984,35.703125 Z M27.90625,36.1074219 C27.90625,35.9726562 27.90625,35.9052734 27.90625,35.9052734 C28.0410156,35.7705078 28.1083984,35.703125 28.1083984,35.703125 C28.1083984,35.703125 28.0410156,35.7705078 27.90625,35.9052734 C27.90625,35.9052734 27.90625,35.9726562 27.90625,36.1074219 Z M28.1083984,35.2988281 C28.1083984,35.2988281 28.1083984,35.3662109 28.1083984,35.5009766 C28.1083984,35.5009766 28.1083984,35.5683594 28.1083984,35.703125 C28.1083984,35.5683594 28.1083984,35.5009766 28.1083984,35.5009766 C28.1083984,35.3662109 28.1083984,35.2988281 28.1083984,35.2988281 Z M27.90625,36.3095703 C27.90625,36.3095703 27.90625,36.3095703 27.90625,36.3095703 C27.90625,36.1748047 27.90625,36.1074219 27.90625,36.1074219 C27.90625,36.1074219 27.90625,36.1748047 27.90625,36.3095703 C27.90625,36.3095703 27.90625,36.3095703 27.90625,36.3095703 Z M23.0546875,38.7353516 C23.1894531,38.7353516 23.3242188,38.7353516 23.4589844,38.7353516 C23.7285156,38.7353516 23.9306641,38.7353516 24.0654297,38.7353516 C24.0654297,38.8701172 23.9980469,39.0722656 23.8632812,39.3417969 C23.7285156,39.3417969 23.59375,39.3417969 23.4589844,39.3417969 C23.3242188,39.3417969 23.1220703,39.2744141 22.8525391,39.1396484 C22.7177734,39.1396484 22.5830078,39.1396484 22.4482422,39.1396484 C22.3134766,39.0048828 22.1113281,38.9375 21.8417969,38.9375 C21.9765625,38.8027344 22.0439453,38.6005859 22.0439453,38.3310547 C22.1787109,38.4658203 22.3134766,38.5332031 22.4482422,38.5332031 C22.5830078,38.6679688 22.7851562,38.7353516 23.0546875,38.7353516 Z M20.4267578,34.2880859 C20.2919922,34.9619141 20.359375,35.6357422 20.6289062,36.3095703 C21.0332031,36.9833984 21.5048828,37.4550781 22.0439453,37.7246094 C22.0439453,37.859375 22.0439453,38.0615234 22.0439453,38.3310547 C21.2353516,37.9267578 20.6289062,37.3876953 20.2246094,36.7138672 C19.8203125,35.9052734 19.6855469,35.0292969 19.8203125,34.0859375 C20.0898438,33.1425781 20.6289062,32.3339844 21.4375,31.6601563 C22.3808594,31.1210938 23.3916016,30.9189453 24.4697266,31.0537109 C25.4130859,31.1884766 26.2216797,31.7275391 26.8955078,32.6708984 C27.5693359,33.6142578 27.7714844,34.5576172 27.5019531,35.5009766 C27.3671875,36.4443359 26.9628906,37.1855469 26.2890625,37.7246094 C25.6152344,38.2636719 24.8740234,38.6005859 24.0654297,38.7353516 C24.0654297,38.6005859 24.0654297,38.3984375 24.0654297,38.1289063 C24.8740234,38.1289063 25.5478516,37.859375 26.0869141,37.3203125 C26.6259766,36.78125 26.9628906,36.1748047 27.0976562,35.5009766 C27.2324219,34.5576172 27.0302734,33.6816406 26.4912109,32.8730469 C25.9521484,32.1992188 25.2109375,31.7275391 24.2675781,31.4580078 C23.3242188,31.3232422 22.515625,31.5253906 21.8417969,32.0644531 C21.0332031,32.6035156 20.5615234,33.3447266 20.4267578,34.2880859 C20.4267578,34.1533203 20.4267578,34.0185547 20.4267578,33.8837891 C20.4267578,33.8837891 20.4267578,33.8837891 20.4267578,33.8837891 C20.4267578,33.8837891 20.4267578,33.9511719 20.4267578,34.0859375 C20.4267578,34.2207031 20.4267578,34.3554688 20.4267578,34.4902344 C20.4267578,34.4902344 20.359375,34.5576172 20.2246094,34.6923828 C20.2246094,34.6923828 20.2246094,34.6923828 20.2246094,34.6923828 C20.2246094,34.6923828 20.2919922,34.6923828 20.4267578,34.6923828 C20.4267578,34.5576172 20.4267578,34.4228516 20.4267578,34.2880859 C20.4267578,34.2880859 20.4267578,34.2880859 20.4267578,34.2880859 C20.4267578,34.2880859 20.4267578,34.2880859 20.4267578,34.2880859 Z M20.4267578,34.4902344 C20.4267578,34.3554688 20.4267578,34.2207031 20.4267578,34.0859375 C20.4267578,33.9511719 20.4267578,33.8837891 20.4267578,33.8837891 C20.4267578,33.8837891 20.4267578,33.8837891 20.4267578,33.8837891 C20.4267578,34.0185547 20.4267578,34.1533203 20.4267578,34.2880859 C20.4267578,34.2880859 20.4267578,34.2880859 20.4267578,34.2880859 C20.4267578,34.2880859 20.4267578,34.3554688 20.4267578,34.4902344 Z M24.0654297,38.7353516 C23.9306641,38.7353516 23.7285156,38.7353516 23.4589844,38.7353516 C23.3242188,38.7353516 23.1894531,38.7353516 23.0546875,38.7353516 C22.7851562,38.7353516 22.5830078,38.6679688 22.4482422,38.5332031 C22.3134766,38.5332031 22.1787109,38.4658203 22.0439453,38.3310547 C22.0439453,38.1962891 22.0439453,38.0615234 22.0439453,37.9267578 C22.1787109,37.9267578 22.3808594,37.9941406 22.6503906,38.1289062 C22.7851562,38.1289062 22.9199219,38.1289062 23.0546875,38.1289062 C23.3242188,38.2636719 23.5263672,38.3310547 23.6611328,38.3310547 C23.7958984,38.3310547 23.9306641,38.2636719 24.0654297,38.1289062 C24.0654297,38.2636719 24.0654297,38.3984375 24.0654297,38.5332031 C24.0654297,38.5332031 24.0654297,38.6005859 24.0654297,38.7353516 Z M62.6757812,49.6513672 C62.6757812,49.7861328 62.6757812,49.9208984 62.6757812,50.0556641 C62.5410156,50.3251953 62.4736328,50.5273438 62.4736328,50.6621094 C64.7646484,50.6621094 68.1337891,50.6621094 72.5810547,50.6621094 C72.5810547,50.1230469 72.5810547,49.4492188 72.5810547,48.640625 C70.2900391,48.640625 66.9208984,48.640625 62.4736328,48.640625 C62.4736328,48.7753906 62.5410156,48.9101562 62.6757812,49.0449219 C62.6757812,49.1796875 62.6757812,49.3818359 62.6757812,49.6513672 Z M72.5810547,48.640625 C72.9853516,48.640625 73.6591797,48.640625 74.6025391,48.640625 C74.6025391,49.0449219 74.6025391,49.71875 74.6025391,50.6621094 C74.0634766,50.6621094 73.3896484,50.6621094 72.5810547,50.6621094 C72.5810547,51.0664062 72.5810547,51.6728516 72.5810547,52.4814453 C75.0068359,51.9423828 78.7128906,50.9990234 83.6992188,49.6513672 C81.2734375,48.9775391 77.5673828,47.9667969 72.5810547,46.6191406 C72.5810547,47.0234375 72.5810547,47.6972656 72.5810547,48.640625 Z M72.5810547,50.6621094 C72.9853516,50.6621094 73.6591797,50.6621094 74.6025391,50.6621094 C74.6025391,50.1230469 74.6025391,49.4492188 74.6025391,48.640625 C74.0634766,48.640625 73.3896484,48.640625 72.5810547,48.640625 C72.5810547,49.0449219 72.5810547,49.71875 72.5810547,50.6621094 Z M54.3876953,49.6513672 C54.3876953,48.5732422 54.7246094,47.6298828 55.3984375,46.8212891 C56.2070312,46.0126953 57.1503906,45.6083984 58.2285156,45.6083984 C59.171875,45.6083984 59.9804688,45.8779297 60.6542969,46.4169922 C61.328125,46.9560547 61.7324219,47.6972656 61.8671875,48.640625 C62.0019531,48.640625 62.2041016,48.640625 62.4736328,48.640625 C62.2041016,47.5625 61.6650391,46.7539062 60.8564453,46.2148438 C60.1826172,45.5410156 59.3066406,45.2041016 58.2285156,45.2041016 C57.015625,45.2041016 56.0048828,45.6083984 55.1962891,46.4169922 C54.2529297,47.3603516 53.78125,48.4384766 53.78125,49.6513672 C53.78125,50.8642578 54.2529297,51.875 55.1962891,52.6835938 C56.0048828,53.4921875 57.015625,53.8964844 58.2285156,53.8964844 C59.3066406,53.8964844 60.25,53.6269531 61.0585938,53.0878906 C61.7324219,52.4140625 62.2041016,51.6054688 62.4736328,50.6621094 C62.3388672,50.6621094 62.1367188,50.6621094 61.8671875,50.6621094 C61.7324219,51.4707031 61.328125,52.1445312 60.6542969,52.6835938 C59.9804688,53.2226562 59.171875,53.4921875 58.2285156,53.4921875 C57.1503906,53.4921875 56.2070312,53.0878906 55.3984375,52.2792969 C54.7246094,51.6054688 54.3876953,50.7294922 54.3876953,49.6513672 Z M62.0693359,48.640625 C62.0693359,48.7753906 62.0693359,48.9101562 62.0693359,49.0449219 C62.0693359,49.1796875 62.0693359,49.3818359 62.0693359,49.6513672 C62.0693359,49.7861328 62.0693359,49.9208984 62.0693359,50.0556641 C62.0693359,50.3251953 62.0693359,50.5273438 62.0693359,50.6621094 C62.0693359,50.6621094 62.2041016,50.6621094 62.4736328,50.6621094 C62.4736328,50.5273438 62.5410156,50.3251953 62.6757812,50.0556641 C62.6757812,49.9208984 62.6757812,49.7861328 62.6757812,49.6513672 C62.6757812,49.3818359 62.6757812,49.1796875 62.6757812,49.0449219 C62.5410156,48.9101562 62.4736328,48.7753906 62.4736328,48.640625 C62.4736328,48.640625 62.40625,48.640625 62.2714844,48.640625 C62.1367188,48.640625 62.0693359,48.640625 62.0693359,48.640625 Z M54.3876953,49.6513672 C54.3876953,50.7294922 54.7246094,51.6054688 55.3984375,52.2792969 C56.2070312,53.0878906 57.1503906,53.4921875 58.2285156,53.4921875 C59.171875,53.4921875 59.9804688,53.2226562 60.6542969,52.6835938 C61.328125,52.1445312 61.7324219,51.4707031 61.8671875,50.6621094 C61.8671875,50.6621094 61.7324219,50.6621094 61.4628906,50.6621094 C61.1933594,51.3359375 60.7890625,51.875 60.25,52.2792969 C59.7109375,52.6835938 59.0371094,52.8857422 58.2285156,52.8857422 C58.3632812,52.8857422 58.4980469,52.8857422 58.6328125,52.8857422 C58.6328125,52.8857422 58.7001953,52.8857422 58.8349609,52.8857422 C58.8349609,52.8857422 58.7675781,52.8857422 58.6328125,52.8857422 C58.4980469,52.8857422 58.3632812,52.8857422 58.2285156,52.8857422 C58.09375,52.8857422 57.9589844,52.8857422 57.8242188,52.8857422 C57.6894531,52.8857422 57.6220703,52.8857422 57.6220703,52.8857422 C57.6220703,52.8857422 57.6894531,52.8857422 57.8242188,52.8857422 C57.9589844,52.8857422 58.09375,52.8857422 58.2285156,52.8857422 C57.2851562,52.8857422 56.4765625,52.5488281 55.8027344,51.875 C55.1289062,51.3359375 54.7919922,50.5947266 54.7919922,49.6513672 C54.7919922,48.7080078 55.1289062,47.8994141 55.8027344,47.2255859 C56.4765625,46.5517578 57.2851562,46.2148438 58.2285156,46.2148438 C59.0371094,46.2148438 59.7109375,46.4169922 60.25,46.8212891 C60.7890625,47.3603516 61.1933594,47.9667969 61.4628906,48.640625 C61.5976562,48.640625 61.7324219,48.640625 61.8671875,48.640625 C61.7324219,47.6972656 61.328125,46.9560547 60.6542969,46.4169922 C59.9804688,45.8779297 59.171875,45.6083984 58.2285156,45.6083984 C57.1503906,45.6083984 56.2070312,46.0126953 55.3984375,46.8212891 C54.7246094,47.6298828 54.3876953,48.5732422 54.3876953,49.6513672 Z M61.4628906,50.6621094 C61.5976562,50.6621094 61.7324219,50.6621094 61.8671875,50.6621094 C62.0019531,50.5273438 62.0693359,50.3251953 62.0693359,50.0556641 C62.0693359,49.9208984 62.0693359,49.7861328 62.0693359,49.6513672 C62.0693359,49.3818359 62.0693359,49.1796875 62.0693359,49.0449219 C62.0693359,48.9101562 62.0019531,48.7753906 61.8671875,48.640625 C61.8671875,48.640625 61.7324219,48.640625 61.4628906,48.640625 C61.4628906,48.7753906 61.4628906,48.9101562 61.4628906,49.0449219 C61.5976562,49.1796875 61.6650391,49.3818359 61.6650391,49.6513672 C61.6650391,49.7861328 61.5976562,49.9208984 61.4628906,50.0556641 C61.4628906,50.3251953 61.4628906,50.5273438 61.4628906,50.6621094 Z M12.3408203,29.4365234 C12.3408203,31.0537109 12.3408203,33.1425781 12.3408203,35.703125 C12.3408203,38.1289062 12.3408203,41.0263672 12.3408203,44.3955078 C12.3408203,44.5302734 12.3408203,44.5976562 12.3408203,44.5976562 C12.2060547,44.7324219 12.1386719,44.8671875 12.1386719,45.0019531 C12.0039062,45.0019531 11.8691406,45.0693359 11.734375,45.2041016 C11.734375,45.2041016 11.6669922,45.2041016 11.5322266,45.2041016 C11.3974609,45.2041016 11.2626953,45.2041016 11.1279297,45.2041016 C10.9931641,45.0693359 10.9257812,45.0019531 10.9257812,45.0019531 C10.7910156,44.8671875 10.7236328,44.7324219 10.7236328,44.5976562 C10.5888672,44.5976562 10.5214844,44.5302734 10.5214844,44.3955078 C10.5214844,42.9130859 10.5214844,41.09375 10.5214844,38.9375 C10.5214844,36.78125 10.5214844,34.2880859 10.5214844,31.4580078 C10.5214844,31.5927734 10.4541016,31.6601562 10.3193359,31.6601562 C10.1845703,31.7949219 10.0498047,31.9296875 9.91503906,32.0644531 C9.91503906,32.1992188 9.84765625,32.2666016 9.71289062,32.2666016 C9.578125,32.2666016 9.44335938,32.2666016 9.30859375,32.2666016 C9.17382812,32.2666016 9.10644531,32.2666016 9.10644531,32.2666016 C8.97167969,32.2666016 8.83691406,32.1992188 8.70214844,32.0644531 C8.70214844,32.0644531 8.63476562,31.9970703 8.5,31.8623047 C8.5,31.7275391 8.5,31.5927734 8.5,31.4580078 C8.5,31.3232422 8.5,31.1884766 8.5,31.0537109 C8.63476562,31.0537109 8.70214844,30.9863281 8.70214844,30.8515625 C8.97167969,30.5820312 9.30859375,30.3125 9.71289062,30.0429688 C9.98242188,29.6386719 10.3867188,29.234375 10.9257812,28.8300781 C10.9257812,28.6953125 10.9931641,28.6279297 11.1279297,28.6279297 C11.1279297,28.4931641 11.1953125,28.4257812 11.3300781,28.4257812 C11.3300781,28.4257812 11.3300781,28.4257812 11.3300781,28.4257812 C11.4648438,28.4257812 11.5322266,28.4257812 11.5322266,28.4257812 C11.5322266,28.4257812 11.5996094,28.4257812 11.734375,28.4257812 C11.734375,28.4257812 11.8017578,28.4931641 11.9365234,28.6279297 C11.9365234,28.6279297 12.0039062,28.6279297 12.1386719,28.6279297 C12.1386719,28.7626953 12.1386719,28.8300781 12.1386719,28.8300781 C12.2734375,28.9648438 12.3408203,29.0322266 12.3408203,29.0322266 C12.3408203,29.1669922 12.3408203,29.3017578 12.3408203,29.4365234 Z M49.5361328,73.7070312 C49.5361328,73.5722656 49.5361328,73.5048828 49.5361328,73.5048828 C49.5361328,73.5048828 49.5361328,73.4375 49.5361328,73.3027344 C49.4013672,73.3027344 49.3339844,73.3027344 49.3339844,73.3027344 C49.3339844,73.1679688 49.3339844,73.1005859 49.3339844,73.1005859 C49.3339844,73.1005859 49.3339844,73.1005859 49.3339844,73.1005859 C49.3339844,73.1005859 49.3339844,73.0332031 49.3339844,72.8984375 C49.3339844,72.8984375 49.4013672,72.8310547 49.5361328,72.6962891 C49.5361328,72.4267578 49.6035156,72.0898438 49.7382812,71.6855469 C49.7382812,71.28125 49.8730469,70.8769531 50.1425781,70.4726562 C50.2773438,69.9335938 50.546875,69.4619141 50.9511719,69.0576172 C51.0859375,68.7880859 51.2880859,68.5185547 51.5576172,68.2490234 C51.6923828,67.9794922 51.8945312,67.7099609 52.1640625,67.4404297 C52.4335938,67.1708984 52.7705078,66.9013672 53.1748047,66.6318359 C53.4443359,66.3623047 53.78125,66.0927734 54.1855469,65.8232422 C54.859375,65.2841797 55.4658203,64.8125 56.0048828,64.4082031 C56.4091797,64.0039062 56.7460938,63.6669922 57.015625,63.3974609 C57.1503906,62.9931641 57.2851562,62.65625 57.4199219,62.3867188 C57.5546875,62.1171875 57.6220703,61.8476562 57.6220703,61.578125 C57.6220703,61.4433594 57.6220703,61.3759766 57.6220703,61.3759766 C57.6220703,61.2412109 57.6220703,61.1064453 57.6220703,60.9716797 C57.6220703,60.8369141 57.5546875,60.7695312 57.4199219,60.7695312 C57.4199219,60.6347656 57.4199219,60.5 57.4199219,60.3652344 C57.2851562,60.2304688 57.1503906,60.0283203 57.015625,59.7587891 C56.8808594,59.6240234 56.6787109,59.4892578 56.4091797,59.3544922 C56.2744141,59.2197266 56.0048828,59.1523438 55.6005859,59.1523438 C55.3310547,59.0175781 54.9941406,58.9501953 54.5898438,58.9501953 C54.1855469,58.9501953 53.8486328,59.0175781 53.5791016,59.1523438 C53.3095703,59.1523438 53.0400391,59.2197266 52.7705078,59.3544922 C52.5009766,59.4892578 52.2988281,59.6914062 52.1640625,59.9609375 C52.0292969,60.0957031 51.8945312,60.2978516 51.7597656,60.5673828 C51.625,60.7021484 51.5576172,60.8369141 51.5576172,60.9716797 C51.4228516,60.9716797 51.2880859,61.0390625 51.1533203,61.1738281 C51.0185547,61.1738281 50.9511719,61.1738281 50.9511719,61.1738281 C50.8164062,61.1738281 50.6816406,61.1064453 50.546875,60.9716797 C50.4121094,60.9716797 50.3447266,60.9716797 50.3447266,60.9716797 C50.2099609,60.8369141 50.1425781,60.7021484 50.1425781,60.5673828 C50.0078125,60.4326172 49.9404297,60.2978516 49.9404297,60.1630859 C49.9404297,60.1630859 50.0078125,60.0957031 50.1425781,59.9609375 C50.2773438,59.421875 50.546875,59.0175781 50.9511719,58.7480469 C51.2207031,58.34375 51.4902344,58.0742188 51.7597656,57.9394531 C52.1640625,57.6699219 52.5683594,57.4677734 52.9726562,57.3330078 C53.5117188,57.1982422 54.0507812,57.1308594 54.5898438,57.1308594 C55.3984375,57.1308594 56.1396484,57.265625 56.8134766,57.5351562 C57.3525391,57.8046875 57.8242188,58.1416016 58.2285156,58.5458984 C58.6328125,59.0849609 58.9023438,59.5566406 59.0371094,59.9609375 C59.3066406,60.5 59.4414062,61.0390625 59.4414062,61.578125 C59.4414062,62.1171875 59.3066406,62.65625 59.0371094,63.1953125 C58.9023438,63.5996094 58.7001953,64.0712891 58.4306641,64.6103516 C58.0263672,65.0146484 57.5546875,65.4863281 57.015625,66.0253906 C56.4765625,66.4296875 55.8027344,66.9013672 54.9941406,67.4404297 C54.4550781,67.7099609 53.9833984,68.046875 53.5791016,68.4511719 C53.0400391,68.9902344 52.6357422,69.4619141 52.3662109,69.8662109 C52.0966797,70.4052734 51.8945312,70.8095703 51.7597656,71.0791016 C51.625,71.4833984 51.4902344,71.8876953 51.3554688,72.2919922 C52.1640625,72.2919922 53.1748047,72.2919922 54.3876953,72.2919922 C55.6005859,72.2919922 57.015625,72.2919922 58.6328125,72.2919922 C58.7675781,72.2919922 58.9023438,72.2919922 59.0371094,72.2919922 C59.171875,72.2919922 59.2392578,72.359375 59.2392578,72.4941406 C59.3740234,72.4941406 59.4414062,72.5615234 59.4414062,72.6962891 C59.5761719,72.8310547 59.6435547,72.9658203 59.6435547,73.1005859 C59.6435547,73.2353516 59.5761719,73.3027344 59.4414062,73.3027344 C59.4414062,73.4375 59.3740234,73.5722656 59.2392578,73.7070312 C59.2392578,73.8417969 59.171875,73.9091797 59.0371094,73.9091797 C58.9023438,73.9091797 58.7675781,73.9091797 58.6328125,73.9091797 C57.9589844,73.9091797 57.2851562,73.9091797 56.6113281,73.9091797 C55.9375,73.9091797 55.2636719,73.9091797 54.5898438,73.9091797 C53.78125,73.9091797 53.0400391,73.9091797 52.3662109,73.9091797 C51.6923828,73.9091797 51.0185547,73.9091797 50.3447266,73.9091797 C50.2099609,73.9091797 50.1425781,73.9091797 50.1425781,73.9091797 C50.0078125,73.9091797 49.9404297,73.9091797 49.9404297,73.9091797 C49.9404297,73.9091797 49.8730469,73.8417969 49.7382812,73.7070312 C49.7382812,73.7070312 49.6708984,73.7070312 49.5361328,73.7070312 Z"/></svg>