<svg xmlns="http://www.w3.org/2000/svg" width="110" height="243" viewBox="0 0 110 243"><path fill="#131313" d="M13.864502,145.267578 C12.6516113,143.650391 12.2473145,141.831055 12.6516113,139.80957 C13.0559082,137.922852 14.0666504,136.373047 15.6838379,135.160156 C17.435791,134.082031 19.3225098,133.677734 21.3439941,133.947266 C23.2307129,134.351563 24.7805176,135.429687 25.9934082,137.181641 C29.7668457,142.841797 34.0793457,146.547852 38.9309082,148.299805 C43.7824707,150.051758 48.0949707,150.927734 51.8684082,150.927734 C59.145752,150.927734 65.0754395,149.310547 69.6574707,146.076172 C74.1047363,142.976562 77.4064941,139.337891 79.5627441,135.160156 C80.7756348,132.869141 81.6516113,130.645508 82.1906738,128.489258 C82.7297363,126.198242 82.9992676,124.041992 82.9992676,122.020508 C82.9992676,119.325195 82.5275879,115.753906 81.5842285,111.306641 C80.7756348,106.994141 78.7541504,103.220703 75.5197754,99.9863281 C73.2287598,97.6953125 70.4660645,96.0107422 67.2316895,94.9326172 C63.9973145,93.8544922 60.2912598,93.3154297 56.1135254,93.3154297 C55.9787598,93.3154297 55.911377,93.3154297 55.911377,93.3154297 C55.911377,93.3154297 55.911377,93.3154297 55.911377,93.3154297 C48.6340332,93.3154297 42.8391113,93.5849609 38.5266113,94.1240234 C34.348877,94.7978516 32.192627,95.1347656 32.0578613,95.1347656 C30.8449707,95.4042969 29.6994629,95.3369141 28.6213379,94.9326172 C27.4084473,94.6630859 26.3977051,94.1240234 25.5891113,93.3154297 C24.645752,92.3720703 23.9719238,91.3613281 23.567627,90.2832031 C23.2980957,89.0703125 23.2307129,87.8574219 23.3654785,86.6445312 C25.6564941,74.515625 29.0256348,56.2548828 33.4729004,31.8623047 C33.7424316,30.1103516 34.5510254,28.6953125 35.8986816,27.6171875 C37.2463379,26.5390625 38.7961426,26 40.5480957,26 C50.2512207,26 64.7385254,26 84.0100098,26 C86.0314941,26 87.7160645,26.6738281 89.0637207,28.0214844 C90.5461426,29.5039062 91.2873535,31.2558594 91.2873535,33.2773438 C91.2873535,35.2988281 90.5461426,36.9833984 89.0637207,38.3310547 C87.7160645,39.8134766 86.0314941,40.5546875 84.0100098,40.5546875 C75.654541,40.5546875 63.2561035,40.5546875 46.8146973,40.5546875 C45.1975098,49.1796875 42.8391113,62.1171875 39.739502,79.3671875 C41.895752,79.0976562 44.3215332,78.8955078 47.0168457,78.7607422 C49.7121582,78.6259766 52.677002,78.5585938 55.911377,78.5585938 C62.1105957,78.5585938 67.770752,79.4345703 72.8918457,81.1865234 C77.8781738,83.0732422 82.1906738,85.8359375 85.8293457,89.4746094 C89.6027832,93.3828125 92.5002441,98.0996094 94.5217285,103.625 C96.5432129,109.285156 97.5539551,115.416992 97.5539551,122.020508 C97.5539551,127.411133 96.5432129,132.666992 94.5217285,137.788086 C92.5002441,142.90918 89.670166,147.423828 86.0314941,151.332031 C82.9318848,154.566406 78.6193848,157.733398 73.0939941,160.833008 C67.5686035,163.932617 60.4934082,165.482422 51.8684082,165.482422 C43.9172363,165.482422 36.7072754,163.797852 30.2385254,160.428711 C23.6350098,156.924805 18.177002,151.871094 13.864502,145.267578 Z M22.8525391,39.1396484 C23.1220703,39.2744141 23.3242188,39.3417969 23.4589844,39.3417969 C23.59375,39.3417969 23.7285156,39.3417969 23.8632812,39.3417969 C22.515625,47.1582031 20.4267578,58.8828125 17.5966797,74.515625 C17.0576172,74.3808594 16.3837891,74.2460938 15.5751953,74.1113281 C16.9228516,66.2949219 19.0117187,54.5703125 21.8417969,38.9375 C22.1113281,38.9375 22.3134766,39.0048828 22.4482422,39.1396484 C22.5830078,39.1396484 22.7177734,39.1396484 22.8525391,39.1396484 Z M19.4160156,74.7177734 C18.3378906,77.1435547 16.7207031,80.6474609 14.5644531,85.2294922 C14.2949219,82.6689453 13.9580078,78.828125 13.5537109,73.7070312 C13.9580078,73.8417969 18.6074219,74.5830078 19.4160156,74.7177734 Z M28.1083984,35.703125 C27.8388672,36.6464844 27.3671875,37.4550781 26.6933594,38.1289063 C25.8847656,38.8027344 24.9414062,39.2070313 23.8632812,39.3417969 C23.9980469,39.2070313 24.0654297,39.0048828 24.0654297,38.7353516 C24.8740234,38.6005859 25.6152344,38.2636719 26.2890625,37.7246094 C26.9628906,37.1855469 27.3671875,36.4443359 27.5019531,35.5009766 C27.7714844,34.5576172 27.5693359,33.6142578 26.8955078,32.6708984 C26.3564453,31.7275391 25.5478516,31.1884766 24.4697266,31.0537109 C23.3916016,30.9189453 22.3808594,31.1210938 21.4375,31.6601562 C20.6289063,32.3339844 20.0898438,33.1425781 19.8203125,34.0859375 C19.6855469,35.0292969 19.8203125,35.9052734 20.2246094,36.7138672 C20.6289063,37.3876953 21.2353516,37.9267578 22.0439453,38.3310547 C22.0439453,38.4658203 21.9765625,38.6679688 21.8417969,38.9375 C21.0332031,38.5332031 20.359375,37.859375 19.8203125,36.9160156 C19.28125,36.1074219 19.1464844,35.1640625 19.4160156,34.0859375 C19.5507812,32.8730469 20.1572266,31.9296875 21.2353516,31.2558594 C22.1787109,30.5820312 23.2568359,30.3125 24.4697266,30.4472656 C25.6826172,30.7167969 26.6259766,31.390625 27.2998047,32.46875 C27.9736328,33.4121094 28.2431641,34.4902344 28.1083984,35.703125 Z M23.0546875,38.7353516 C23.1894531,38.7353516 23.3242188,38.7353516 23.4589844,38.7353516 C23.7285156,38.7353516 23.9306641,38.7353516 24.0654297,38.7353516 C24.0654297,38.8701172 23.9980469,39.0722656 23.8632812,39.3417969 C23.7285156,39.3417969 23.59375,39.3417969 23.4589844,39.3417969 C23.3242188,39.3417969 23.1220703,39.2744141 22.8525391,39.1396484 C22.7177734,39.1396484 22.5830078,39.1396484 22.4482422,39.1396484 C22.3134766,39.0048828 22.1113281,38.9375 21.8417969,38.9375 C21.9765625,38.8027344 22.0439453,38.6005859 22.0439453,38.3310547 C22.1787109,38.4658203 22.3134766,38.5332031 22.4482422,38.5332031 C22.5830078,38.6679688 22.7851562,38.7353516 23.0546875,38.7353516 Z M20.4267578,34.2880859 C20.2919922,34.9619141 20.359375,35.6357422 20.6289062,36.3095703 C21.0332031,36.9833984 21.5048828,37.4550781 22.0439453,37.7246094 C22.0439453,37.859375 22.0439453,38.0615234 22.0439453,38.3310547 C21.2353516,37.9267578 20.6289062,37.3876953 20.2246094,36.7138672 C19.8203125,35.9052734 19.6855469,35.0292969 19.8203125,34.0859375 C20.0898438,33.1425781 20.6289062,32.3339844 21.4375,31.6601563 C22.3808594,31.1210938 23.3916016,30.9189453 24.4697266,31.0537109 C25.4130859,31.1884766 26.2216797,31.7275391 26.8955078,32.6708984 C27.5693359,33.6142578 27.7714844,34.5576172 27.5019531,35.5009766 C27.3671875,36.4443359 26.9628906,37.1855469 26.2890625,37.7246094 C25.6152344,38.2636719 24.8740234,38.6005859 24.0654297,38.7353516 C24.0654297,38.6005859 24.0654297,38.3984375 24.0654297,38.1289063 C24.8740234,38.1289063 25.5478516,37.859375 26.0869141,37.3203125 C26.6259766,36.78125 26.9628906,36.1748047 27.0976562,35.5009766 C27.2324219,34.5576172 27.0302734,33.6816406 26.4912109,32.8730469 C25.9521484,32.1992188 25.2109375,31.7275391 24.2675781,31.4580078 C23.3242188,31.3232422 22.515625,31.5253906 21.8417969,32.0644531 C21.0332031,32.6035156 20.5615234,33.3447266 20.4267578,34.2880859 C20.4267578,34.1533203 20.4267578,34.0185547 20.4267578,33.8837891 C20.4267578,33.8837891 20.4267578,33.8837891 20.4267578,33.8837891 C20.4267578,33.8837891 20.4267578,33.9511719 20.4267578,34.0859375 C20.4267578,34.2207031 20.4267578,34.3554688 20.4267578,34.4902344 C20.4267578,34.4902344 20.359375,34.5576172 20.2246094,34.6923828 C20.2246094,34.6923828 20.2246094,34.6923828 20.2246094,34.6923828 C20.2246094,34.6923828 20.2919922,34.6923828 20.4267578,34.6923828 C20.4267578,34.5576172 20.4267578,34.4228516 20.4267578,34.2880859 C20.4267578,34.2880859 20.4267578,34.2880859 20.4267578,34.2880859 C20.4267578,34.2880859 20.4267578,34.2880859 20.4267578,34.2880859 Z M24.0654297,38.7353516 C23.9306641,38.7353516 23.7285156,38.7353516 23.4589844,38.7353516 C23.3242188,38.7353516 23.1894531,38.7353516 23.0546875,38.7353516 C22.7851562,38.7353516 22.5830078,38.6679688 22.4482422,38.5332031 C22.3134766,38.5332031 22.1787109,38.4658203 22.0439453,38.3310547 C22.0439453,38.1962891 22.0439453,38.0615234 22.0439453,37.9267578 C22.1787109,37.9267578 22.3808594,37.9941406 22.6503906,38.1289062 C22.7851562,38.1289062 22.9199219,38.1289062 23.0546875,38.1289062 C23.3242188,38.2636719 23.5263672,38.3310547 23.6611328,38.3310547 C23.7958984,38.3310547 23.9306641,38.2636719 24.0654297,38.1289062 C24.0654297,38.2636719 24.0654297,38.3984375 24.0654297,38.5332031 C24.0654297,38.5332031 24.0654297,38.6005859 24.0654297,38.7353516 Z M62.6757812,49.6513672 C62.6757812,49.7861328 62.6757812,49.9208984 62.6757812,50.0556641 C62.5410156,50.3251953 62.4736328,50.5273438 62.4736328,50.6621094 C64.7646484,50.6621094 68.1337891,50.6621094 72.5810547,50.6621094 C72.5810547,50.1230469 72.5810547,49.4492188 72.5810547,48.640625 C70.2900391,48.640625 66.9208984,48.640625 62.4736328,48.640625 C62.4736328,48.7753906 62.5410156,48.9101562 62.6757812,49.0449219 C62.6757812,49.1796875 62.6757812,49.3818359 62.6757812,49.6513672 Z M72.5810547,52.4814453 C75.0068359,51.9423828 78.7128906,50.9990234 83.6992188,49.6513672 C81.2734375,48.9775391 77.5673828,47.9667969 72.5810547,46.6191406 C72.5810547,47.0234375 72.5810547,51.6728516 72.5810547,52.4814453 Z M54.3876953,49.6513672 C54.3876953,48.5732422 54.7246094,47.6298828 55.3984375,46.8212891 C56.2070312,46.0126953 57.1503906,45.6083984 58.2285156,45.6083984 C59.171875,45.6083984 59.9804688,45.8779297 60.6542969,46.4169922 C61.328125,46.9560547 61.7324219,47.6972656 61.8671875,48.640625 C62.0019531,48.640625 62.2041016,48.640625 62.4736328,48.640625 C62.2041016,47.5625 61.6650391,46.7539062 60.8564453,46.2148438 C60.1826172,45.5410156 59.3066406,45.2041016 58.2285156,45.2041016 C57.015625,45.2041016 56.0048828,45.6083984 55.1962891,46.4169922 C54.2529297,47.3603516 53.78125,48.4384766 53.78125,49.6513672 C53.78125,50.8642578 54.2529297,51.875 55.1962891,52.6835938 C56.0048828,53.4921875 57.015625,53.8964844 58.2285156,53.8964844 C59.3066406,53.8964844 60.25,53.6269531 61.0585938,53.0878906 C61.7324219,52.4140625 62.2041016,51.6054688 62.4736328,50.6621094 C62.3388672,50.6621094 62.1367188,50.6621094 61.8671875,50.6621094 C61.7324219,51.4707031 61.328125,52.1445312 60.6542969,52.6835938 C59.9804688,53.2226562 59.171875,53.4921875 58.2285156,53.4921875 C57.1503906,53.4921875 56.2070312,53.0878906 55.3984375,52.2792969 C54.7246094,51.6054688 54.3876953,50.7294922 54.3876953,49.6513672 Z M62.0693359,48.640625 C62.0693359,48.7753906 62.0693359,48.9101562 62.0693359,49.0449219 C62.0693359,49.1796875 62.0693359,49.3818359 62.0693359,49.6513672 C62.0693359,49.7861328 62.0693359,49.9208984 62.0693359,50.0556641 C62.0693359,50.3251953 62.0693359,50.5273438 62.0693359,50.6621094 C62.0693359,50.6621094 62.2041016,50.6621094 62.4736328,50.6621094 C62.4736328,50.5273438 62.5410156,50.3251953 62.6757812,50.0556641 C62.6757812,49.9208984 62.6757812,49.7861328 62.6757812,49.6513672 C62.6757812,49.3818359 62.6757812,49.1796875 62.6757812,49.0449219 C62.5410156,48.9101562 62.4736328,48.7753906 62.4736328,48.640625 C62.4736328,48.640625 62.40625,48.640625 62.2714844,48.640625 C62.1367188,48.640625 62.0693359,48.640625 62.0693359,48.640625 Z M54.3876953,49.6513672 C54.3876953,50.7294922 54.7246094,51.6054688 55.3984375,52.2792969 C56.2070312,53.0878906 57.1503906,53.4921875 58.2285156,53.4921875 C59.171875,53.4921875 59.9804688,53.2226562 60.6542969,52.6835938 C61.328125,52.1445312 61.7324219,51.4707031 61.8671875,50.6621094 C61.8671875,50.6621094 61.7324219,50.6621094 61.4628906,50.6621094 C61.1933594,51.3359375 60.7890625,51.875 60.25,52.2792969 C59.7109375,52.6835938 59.0371094,52.8857422 58.2285156,52.8857422 C58.3632812,52.8857422 58.4980469,52.8857422 58.6328125,52.8857422 C58.6328125,52.8857422 58.7001953,52.8857422 58.8349609,52.8857422 C58.8349609,52.8857422 58.7675781,52.8857422 58.6328125,52.8857422 C58.4980469,52.8857422 58.3632812,52.8857422 58.2285156,52.8857422 C58.09375,52.8857422 57.9589844,52.8857422 57.8242188,52.8857422 C57.6894531,52.8857422 57.6220703,52.8857422 57.6220703,52.8857422 C57.6220703,52.8857422 57.6894531,52.8857422 57.8242188,52.8857422 C57.9589844,52.8857422 58.09375,52.8857422 58.2285156,52.8857422 C57.2851562,52.8857422 56.4765625,52.5488281 55.8027344,51.875 C55.1289062,51.3359375 54.7919922,50.5947266 54.7919922,49.6513672 C54.7919922,48.7080078 55.1289062,47.8994141 55.8027344,47.2255859 C56.4765625,46.5517578 57.2851562,46.2148438 58.2285156,46.2148438 C59.0371094,46.2148438 59.7109375,46.4169922 60.25,46.8212891 C60.7890625,47.3603516 61.1933594,47.9667969 61.4628906,48.640625 C61.5976562,48.640625 61.7324219,48.640625 61.8671875,48.640625 C61.7324219,47.6972656 61.328125,46.9560547 60.6542969,46.4169922 C59.9804688,45.8779297 59.171875,45.6083984 58.2285156,45.6083984 C57.1503906,45.6083984 56.2070312,46.0126953 55.3984375,46.8212891 C54.7246094,47.6298828 54.3876953,48.5732422 54.3876953,49.6513672 Z M55.5612778,57.235 C56.2632778,57.235 56.9382778,57.37 57.5592778,57.64 C58.1802778,57.91 58.7202778,58.261 59.1792778,58.693 C59.6112778,59.152 59.9622778,59.665 60.2322778,60.205 C60.4752778,60.772 60.6102778,61.339 60.6102778,61.906 C60.6102778,63.013 60.4212778,64.039 60.0432778,65.011 C59.6382778,66.01 59.0442778,66.874 58.2882778,67.63 C57.6672778,68.224 57.0732778,68.791 56.4792778,69.385 L54.6702778,71.14 L53.5632778,72.193 C53.1582778,72.571 52.6452778,73.03 52.0242778,73.543 C52.9152778,73.435 53.6712778,73.381 54.2652778,73.327 C54.8592778,73.3 55.4262778,73.273 55.9662778,73.219 C56.5332778,73.192 57.1272778,73.165 57.7752778,73.165 C58.3962778,73.165 58.9902778,73.111 59.5842778,73.057 L59.9622778,73.003 L60.3402778,72.922 C60.5562778,72.868 60.7992778,72.841 61.0422778,72.841 C61.3662778,72.841 61.6362778,73.003 61.8792778,73.327 C62.1222778,73.651 62.2572778,73.975 62.2572778,74.353 C62.2572778,74.596 62.1492778,74.785 61.9872778,74.893 C61.8252778,75.055 61.6632778,75.109 61.5012778,75.109 C60.9072778,75.109 60.3402778,75.082 59.7732778,74.974 C59.1792778,74.893 58.5852778,74.839 58.0182778,74.839 C56.9922778,74.839 55.9392778,74.893 54.8592778,75.001 C53.7522778,75.109 52.6992778,75.217 51.6732778,75.352 C51.5382778,75.379 51.4032778,75.406 51.2952778,75.433 C51.1602778,75.46 51.0252778,75.487 50.8902778,75.514 C50.6202778,75.568 50.3772778,75.595 50.1612778,75.595 C49.8102778,75.595 49.5132778,75.514 49.2432778,75.298 C48.9462778,75.109 48.8112778,74.812 48.8112778,74.434 C48.8112778,74.191 48.8652778,73.975 48.9732778,73.759 C49.0812778,73.597 49.2432778,73.408 49.4322778,73.219 C49.6482778,73.003 49.8372778,72.787 50.0532778,72.571 C50.2692778,72.355 50.4852778,72.166 50.7552778,71.95 C51.6732778,71.221 52.5642778,70.465 53.4012778,69.655 L55.9662778,67.252 C56.2902778,66.928 56.6412778,66.577 56.9652778,66.199 C57.2622778,65.848 57.5322778,65.47 57.7752778,65.038 C58.0182778,64.633 58.2072778,64.201 58.3692778,63.715 C58.5312778,63.256 58.6122778,62.77 58.6122778,62.23 C58.6122778,61.798 58.5312778,61.393 58.3692778,60.988 C58.2072778,60.61 57.9912778,60.259 57.7212778,59.935 C57.4242778,59.638 57.1002778,59.395 56.7222778,59.206 C56.3442778,59.044 55.9122778,58.936 55.4802778,58.936 C54.6702778,58.936 54.0222778,59.125 53.5632778,59.476 C53.0772778,59.854 52.6452778,60.34 52.2672778,60.988 C52.1592778,61.15 52.1052778,61.285 52.0512778,61.447 C51.9972778,61.609 51.9162778,61.771 51.8622778,61.906 C51.7812778,62.068 51.7002778,62.23 51.6192778,62.365 C51.5382778,62.527 51.4572778,62.662 51.4032778,62.743 C51.2412778,62.905 51.1062778,63.04 50.9982778,63.121 C50.8632778,63.229 50.7012778,63.256 50.5122778,63.256 C50.2422778,63.256 49.9992778,63.148 49.7562778,62.905 C49.4862778,62.689 49.3782778,62.446 49.3782778,62.122 C49.3782778,61.879 49.4322778,61.582 49.5672778,61.258 C49.6752778,60.934 49.8372778,60.61 50.0262778,60.286 C50.1882778,59.962 50.4042778,59.665 50.6202778,59.368 C50.8362778,59.098 51.0252778,58.855 51.2412778,58.693 C51.8352778,58.18 52.5102778,57.802 53.2662778,57.559 C54.0222778,57.343 54.7782778,57.235 55.5612778,57.235 Z M61.8671875,48.640625 C62.0019531,48.7753906 62.0693359,48.9101562 62.0693359,49.0449219 L62.0693359,50.0556641 C62.0693359,50.3251953 62.0019531,50.5273438 61.8671875,50.6621094 L61.4628906,50.6621094 L61.4628906,50.0556641 C61.5976562,49.9208984 61.6650391,49.7861328 61.6650391,49.6513672 C61.6650391,49.3818359 61.5976562,49.1796875 61.4628906,49.0449219 L61.4628906,48.640625 Z M12.1532778,30.45 C12.1532778,30.099 12.0452778,29.829 11.8292778,29.667 C11.5862778,29.505 11.2892778,29.397 10.9112778,29.397 C10.7492778,29.397 10.6142778,29.478 10.4522778,29.586 C10.2902778,29.721 10.1552778,29.829 10.0742778,29.91 C9.85827778,30.126 9.69627778,30.315 9.56127778,30.531 C9.39927778,30.747 9.21027778,30.963 9.04827778,31.152 C8.53527778,31.746 7.99527778,32.394 7.40127778,33.042 C6.78027778,33.717 6.18627778,34.311 5.61927778,34.851 C5.56527778,34.905 5.48427778,34.959 5.43027778,35.013 L5.21427778,35.121 C5.13327778,35.175 5.05227778,35.202 4.99827778,35.256 L4.75527778,35.418 C4.62027778,35.526 4.51227778,35.607 4.43127778,35.688 C4.32327778,35.796 4.29627778,35.877 4.29627778,35.958 C4.29627778,36.282 4.43127778,36.525 4.75527778,36.714 C5.02527778,36.93 5.34927778,37.011 5.67327778,37.011 C5.91627778,37.011 6.13227778,36.957 6.34827778,36.849 C6.53727778,36.741 6.72627778,36.579 6.94227778,36.363 C7.07727778,36.201 7.23927778,36.012 7.45527778,35.769 L7.99527778,35.175 C8.13027778,35.04 8.34627778,34.824 8.61627778,34.527 C8.88627778,34.23 9.18327778,33.879 9.56127778,33.474 C9.48027778,33.906 9.39927778,34.419 9.34527778,35.013 C9.23727778,35.607 9.15627778,36.201 9.07527778,36.849 L8.85927778,38.766 C8.80527778,39.414 8.75127778,40.035 8.72427778,40.575 C8.67027778,41.601 8.61627778,42.627 8.58927778,43.653 C8.53527778,44.679 8.50827778,45.57 8.50827778,46.326 C8.50827778,46.758 8.61627778,47.082 8.85927778,47.325 C9.10227778,47.595 9.42627778,47.703 9.85827778,47.703 C10.0742778,47.703 10.3172778,47.649 10.5872778,47.541 C10.8032778,47.433 10.9382778,47.298 10.9382778,47.136 C10.9382778,47.055 10.9112778,46.893 10.9112778,46.623 C10.8572778,46.38 10.8302778,46.083 10.8032778,45.759 C10.7492778,45.462 10.6952778,45.138 10.6952778,44.787 C10.6412778,44.436 10.6412778,44.112 10.6412778,43.842 C10.6412778,41.952 10.6952778,40.062 10.8572778,38.145 C11.0192778,36.255 11.3162778,34.365 11.8022778,32.502 C11.8292778,32.34 11.8832778,32.178 11.9372778,31.989 L12.0452778,31.476 L12.1262778,30.963 C12.1262778,30.801 12.1532778,30.639 12.1532778,30.45 Z"/></svg>