<svg xmlns="http://www.w3.org/2000/svg" width="110" height="243" viewBox="0 0 110 243"><path fill="#131313" d="M48.908872,165.145508 C43.6530126,164.606445 39.1383642,163.326172 35.3649267,161.304688 C31.4567236,159.283203 28.0875829,156.857422 25.2575048,154.027344 C20.2711767,148.771484 16.9020361,142.774414 15.1500829,136.036133 C13.3981298,129.297852 12.5895361,123.50293 12.7243017,118.651367 C11.5114111,100.188477 15.2174658,82.6015625 23.8424658,65.890625 C32.3327001,49.3144531 44.3942236,36.3769531 60.0270361,27.078125 C61.7789892,26 63.6657079,25.7304688 65.6871923,26.2695312 C67.5739111,26.6738281 69.0563329,27.7519531 70.1344579,29.5039062 C71.0778173,31.2558594 71.3473486,33.1425781 70.9430517,35.1640625 C70.4039892,37.0507812 69.2584814,38.5332031 67.5065283,39.6113281 C59.0162939,44.7324219 51.6715673,51.2685547 45.4723486,59.2197266 C39.2731298,67.3056641 34.6237158,76.1328125 31.5241064,85.7011719 C35.8366064,82.8710938 40.4860204,80.8496094 45.4723486,79.6367187 C50.5934423,78.4238281 55.7819189,78.0869141 61.0377783,78.6259766 C70.3366064,79.5693359 78.8942236,83.6796875 86.7106298,90.9570312 C93.9879736,97.5605469 97.6266454,106.926758 97.6266454,119.055664 C97.6266454,120.133789 97.6266454,121.211914 97.6266454,122.290039 C97.2223486,129.163086 95.6725439,135.631836 92.9772314,141.696289 C90.1471533,147.760742 86.4410986,152.74707 81.8590673,156.655273 C78.3551611,159.620117 74.3795751,161.84375 69.9323095,163.326172 C65.4850439,164.808594 60.7008642,165.549805 55.5797704,165.549805 C54.5016454,165.549805 53.4235204,165.549805 52.3453954,165.549805 C51.2672704,165.415039 50.1217626,165.280273 48.908872,165.145508 Z M50.7875,150.561768 C55.2347656,151.10083 59.3451172,150.966064 63.1185547,150.157471 C66.7572266,149.214111 69.9242188,147.596924 72.6195312,145.305908 C77.0667969,141.532471 79.896875,137.085205 81.1097656,131.964111 C82.3226563,126.843018 82.9291016,123.339111 82.9291016,121.452393 C83.3333984,115.118408 81.6488281,109.053955 77.8753906,103.259033 C74.2367188,97.3293457 68.1048828,93.9602051 59.4798828,93.1516113 C55.4369141,92.7473145 51.3265625,93.1516113 47.1488281,94.364502 C43.1058594,95.7121582 39.5345703,97.6662598 36.4349609,100.226807 C34.5482422,101.97876 32.6615234,104.337158 30.7748047,107.302002 C28.7533203,110.401611 27.6751953,114.242432 27.5404297,118.824463 C27.4056641,119.767822 27.6078125,122.665283 28.146875,127.516846 C28.5511719,132.233643 30.3705078,136.748291 33.6048828,141.060791 C35.3568359,143.351807 37.5804688,145.373291 40.2757813,147.125244 C43.1058594,149.011963 46.6097656,150.157471 50.7875,150.561768 Z M47.5039062,24.0126953 C40.765625,28.8642578 34.6337891,34.5244141 29.1083984,40.9931641 C23.5830078,47.4619141 18.9335937,54.4697266 15.1601562,62.0166016 C14.7558594,61.8818359 14.0820313,61.6123047 13.1386719,61.2080078 C17.1816406,53.3916016 21.9658203,46.1816406 27.4912109,39.578125 C33.1513672,33.109375 39.4179687,27.3144531 46.2910156,22.1933594 C46.2910156,22.4628906 46.3583984,22.6650391 46.4931641,22.7998047 C46.4931641,22.9345703 46.5605469,23.0693359 46.6953125,23.2041016 C46.8300781,23.3388672 46.9648438,23.4736328 47.0996094,23.6083984 C47.234375,23.7431641 47.3691406,23.8779297 47.5039062,24.0126953 Z M16.9794922,62.8251953 C15.2275391,64.8466797 12.734375,67.8789062 9.5,71.921875 C9.90429688,69.3613281 10.5107422,65.5205078 11.3193359,60.3994141 C11.7236328,60.5341797 16.1755467,62.3610175 16.9794922,62.8251953 Z M48.3125,17.5439453 C47.5039062,18.0830078 46.9648438,18.7568359 46.6953125,19.5654297 C46.4257812,20.3740234 46.4257812,21.1826172 46.6953125,21.9912109 C46.6953125,21.9912109 46.6279297,22.0585938 46.4931641,22.1933594 C46.4931641,22.1933594 46.4257812,22.1933594 46.2910156,22.1933594 C46.0214844,21.25 46.0214844,20.3066406 46.2910156,19.3632812 C46.5605469,18.4199219 47.1669922,17.6787109 48.1103516,17.1396484 C49.0537109,16.4658203 50.1318359,16.1962891 51.3447266,16.3310547 C52.5576172,16.6005859 53.5009766,17.2744141 54.1748047,18.3525391 C54.8486328,19.2958984 55.0507812,20.3740234 54.78125,21.5869141 C54.5117188,22.7998047 53.8378906,23.7431641 52.7597656,24.4169922 C51.9511719,24.9560547 51.0751953,25.2255859 50.1318359,25.2255859 C49.0537109,25.0908203 48.1777344,24.6865234 47.5039062,24.0126953 C47.5039062,24.0126953 47.5712891,23.9453125 47.7060547,23.8105469 C47.7060547,23.8105469 47.7734375,23.7431641 47.9082031,23.6083984 C48.5820312,24.1474609 49.3232422,24.484375 50.1318359,24.6191406 C51.0751953,24.6191406 51.8837891,24.4169922 52.5576172,24.0126953 C53.5009766,23.4736328 54.0400391,22.6650391 54.1748047,21.5869141 C54.4443359,20.5087891 54.2421875,19.4980469 53.5683594,18.5546875 C53.0292969,17.7460938 52.2207031,17.2070312 51.1425781,16.9375 C50.1992188,16.6679688 49.2558594,16.8701172 48.3125,17.5439453 Z M47.5039062,24.0126953 C47.3691406,23.8779297 47.234375,23.7431641 47.0996094,23.6083984 C46.9648438,23.4736328 46.8300781,23.3388672 46.6953125,23.2041016 C46.6953125,23.0693359 46.6279297,22.9345703 46.4931641,22.7998047 C46.4931641,22.6650391 46.4257812,22.4628906 46.2910156,22.1933594 C46.4257812,22.1933594 46.4931641,22.1933594 46.4931641,22.1933594 C46.6279297,22.0585938 46.6953125,21.9912109 46.6953125,21.9912109 C46.8300781,22.1259766 46.8974609,22.2607422 46.8974609,22.3955078 C47.0322266,22.5302734 47.0996094,22.7324219 47.0996094,23.0019531 C47.234375,23.1367188 47.3691406,23.2714844 47.5039062,23.40625 C47.6386719,23.5410156 47.7734375,23.6083984 47.9082031,23.6083984 C47.7734375,23.7431641 47.7060547,23.8105469 47.7060547,23.8105469 C47.5712891,23.9453125 47.5039062,24.0126953 47.5039062,24.0126953 Z M52.5576172,24.0126953 C51.8837891,24.5517578 51.0751953,24.7539062 50.1318359,24.6191406 C49.3232422,24.6191406 48.5820312,24.3496094 47.9082031,23.8105469 C48.0429688,23.6757813 48.1103516,23.6083984 48.1103516,23.6083984 C48.2451172,23.4736328 48.3125,23.40625 48.3125,23.40625 C48.8515625,23.8105469 49.5253906,24.0800781 50.3339844,24.2148438 C51.0078125,24.2148438 51.6816406,24.0126953 52.3554688,23.6083984 C53.0292969,23.0693359 53.5009766,22.328125 53.7705078,21.3847656 C53.9052734,20.5761719 53.703125,19.7675781 53.1640625,18.9589844 C52.7597656,18.1503906 52.0859375,17.6787109 51.1425781,17.5439453 C50.1992188,17.2744141 49.3232422,17.4091797 48.5146484,17.9482422 C48.6494141,17.9482422 48.7167969,17.9482422 48.7167969,17.9482422 C48.7167969,17.8134766 48.7841797,17.7460938 48.9189453,17.7460938 C48.7841797,17.7460938 48.7167969,17.8134766 48.7167969,17.9482422 C48.7167969,17.9482422 48.6494141,17.9482422 48.5146484,17.9482422 C48.5146484,17.9482422 48.4472656,18.015625 48.3125,18.1503906 C48.3125,18.1503906 48.3125,18.1503906 48.3125,18.1503906 C48.3125,18.1503906 48.3798828,18.1503906 48.5146484,18.1503906 C48.5146484,18.015625 48.5146484,17.9482422 48.5146484,17.9482422 C47.9755859,18.3525391 47.5712891,18.8916016 47.3017578,19.5654297 C47.0322266,20.2392578 47.0322266,20.9804688 47.3017578,21.7890625 C47.1669922,21.7890625 47.0322266,21.7890625 46.8974609,21.7890625 C46.8974609,21.9238281 46.8300781,21.9912109 46.6953125,21.9912109 C46.4257812,21.1826172 46.4257812,20.3740234 46.6953125,19.5654297 C46.9648438,18.7568359 47.5039063,18.0830078 48.3125,17.5439453 C49.1210938,16.8701172 50.0644531,16.6679688 51.1425781,16.9375 C52.2207031,17.2070313 53.0292969,17.7460938 53.5683594,18.5546875 C54.2421875,19.4980469 54.4443359,20.5087891 54.1748047,21.5869141 C54.0400391,22.6650391 53.5009766,23.4736328 52.5576172,24.0126953 Z M47.5039062,22.5976562 C47.6386719,22.7324219 47.7734375,22.8671875 47.9082031,23.0019531 C48.0429688,23.1367188 48.1777344,23.2714844 48.3125,23.40625 C48.3125,23.40625 48.2451172,23.4736328 48.1103516,23.6083984 C47.9755859,23.6083984 47.9082031,23.6083984 47.9082031,23.6083984 C47.7734375,23.6083984 47.6386719,23.5410156 47.5039062,23.40625 C47.3691406,23.2714844 47.234375,23.0693359 47.0996094,22.7998047 C47.0996094,22.6650391 47.0322266,22.5302734 46.8974609,22.3955078 C46.8974609,22.2607422 46.8300781,22.1259766 46.6953125,21.9912109 C46.8300781,21.8564453 46.8974609,21.7890625 46.8974609,21.7890625 C47.0322266,21.7890625 47.0996094,21.7216797 47.0996094,21.5869141 C47.234375,21.8564453 47.3017578,22.0585938 47.3017578,22.1933594 C47.4365234,22.328125 47.5039062,22.4628906 47.5039062,22.5976562 Z M63.7088333,5.45 C63.7088333,5.099 63.6008333,4.829 63.3848333,4.667 C63.1418333,4.505 62.8448333,4.397 62.4668333,4.397 C62.3048333,4.397 62.1698333,4.478 62.0078333,4.586 C61.8458333,4.721 61.7108333,4.829 61.6298333,4.91 C61.4138333,5.126 61.2518333,5.315 61.1168333,5.531 C60.9548333,5.747 60.7658333,5.963 60.6038333,6.152 C60.0908333,6.746 59.5508333,7.394 58.9568333,8.042 C58.3358333,8.717 57.7418333,9.311 57.1748333,9.851 C57.1208333,9.905 57.0398333,9.959 56.9858333,10.013 L56.7698333,10.121 C56.6888333,10.175 56.6078333,10.202 56.5538333,10.256 L56.3108333,10.418 C56.1758333,10.526 56.0678333,10.607 55.9868333,10.688 C55.8788333,10.796 55.8518333,10.877 55.8518333,10.958 C55.8518333,11.282 55.9868333,11.525 56.3108333,11.714 C56.5808333,11.93 56.9048333,12.011 57.2288333,12.011 C57.4718333,12.011 57.6878333,11.957 57.9038333,11.849 C58.0928333,11.741 58.2818333,11.579 58.4978333,11.363 C58.6328333,11.201 58.7948333,11.012 59.0108333,10.769 L59.5508333,10.175 C59.6858333,10.04 59.9018333,9.824 60.1718333,9.527 C60.4418333,9.23 60.7388333,8.879 61.1168333,8.474 C61.0358333,8.906 60.9548333,9.419 60.9008333,10.013 C60.7928333,10.607 60.7118333,11.201 60.6308333,11.849 L60.4148333,13.766 C60.3608333,14.414 60.3068333,15.035 60.2798333,15.575 C60.2258333,16.601 60.1718333,17.627 60.1448333,18.653 C60.0908333,19.679 60.0638333,20.57 60.0638333,21.326 C60.0638333,21.758 60.1718333,22.082 60.4148333,22.325 C60.6578333,22.595 60.9818333,22.703 61.4138333,22.703 C61.6298333,22.703 61.8728333,22.649 62.1428333,22.541 C62.3588333,22.433 62.4938333,22.298 62.4938333,22.136 C62.4938333,22.055 62.4668333,21.893 62.4668333,21.623 C62.4128333,21.38 62.3858333,21.083 62.3588333,20.759 C62.3048333,20.462 62.2508333,20.138 62.2508333,19.787 C62.1968333,19.436 62.1968333,19.112 62.1968333,18.842 C62.1968333,16.952 62.2508333,15.062 62.4128333,13.145 C62.5748333,11.255 62.8718333,9.365 63.3578333,7.502 C63.3848333,7.34 63.4388333,7.178 63.4928333,6.989 L63.6008333,6.476 L63.6818333,5.963 C63.6818333,5.801 63.7088333,5.639 63.7088333,5.45 Z"/></svg>