<svg xmlns="http://www.w3.org/2000/svg" width="110" height="203" viewBox="0 0 110 203"><path fill="#131313" d="M2878.07554,202.145508 C2872.81968,201.606445 2868.30503,200.326172 2864.53159,198.304688 C2860.62339,196.283203 2857.25425,193.857422 2854.42417,191.027344 C2849.43784,185.771484 2846.0687,179.774414 2844.31675,173.036133 C2842.5648,166.297852 2841.7562,160.50293 2841.89097,155.651367 C2840.67808,137.188477 2844.38413,119.601563 2853.00913,102.890625 C2861.49937,86.3144531 2873.56089,73.3769531 2889.1937,64.078125 C2890.94566,63 2892.83237,62.7304688 2894.85386,63.2695312 C2896.74058,63.6738281 2898.223,64.7519531 2899.30112,66.5039062 C2900.24448,68.2558594 2900.51402,70.1425781 2900.10972,72.1640625 C2899.57066,74.0507812 2898.42515,75.5332031 2896.67319,76.6113281 C2888.18296,81.7324219 2880.83823,88.2685547 2874.63902,96.2197266 C2868.4398,104.305664 2863.79038,113.132812 2860.69077,122.701172 C2865.00327,119.871094 2869.65269,117.849609 2874.63902,116.636719 C2879.76011,115.423828 2884.94859,115.086914 2890.20444,115.625977 C2899.50327,116.569336 2908.06089,120.679688 2915.8773,127.957031 C2923.15464,134.560547 2926.79331,143.926758 2926.79331,156.055664 C2926.79331,157.133789 2926.79331,158.211914 2926.79331,159.290039 C2926.38902,166.163086 2924.83921,172.631836 2922.1439,178.696289 C2919.31382,184.760742 2915.60777,189.74707 2911.02573,193.655273 C2907.52183,196.620117 2903.54624,198.84375 2899.09898,200.326172 C2894.65171,201.808594 2889.86753,202.549805 2884.74644,202.549805 C2883.66831,202.549805 2882.59019,202.549805 2881.51206,202.549805 C2880.43394,202.415039 2879.28843,202.280273 2878.07554,202.145508 Z M2879.95417,187.561768 C2884.40143,188.10083 2888.51178,187.966064 2892.28522,187.157471 C2895.92389,186.214111 2899.09089,184.596924 2901.7862,182.305908 C2906.23346,178.532471 2909.06354,174.085205 2910.27643,168.964111 C2911.48932,163.843018 2912.09577,160.339111 2912.09577,158.452393 C2912.50007,152.118408 2910.81549,146.053955 2907.04206,140.259033 C2903.40339,134.329346 2897.27155,130.960205 2888.64655,130.151611 C2884.60358,129.747314 2880.49323,130.151611 2876.31549,131.364502 C2872.27253,132.712158 2868.70124,134.66626 2865.60163,137.226807 C2863.71491,138.97876 2861.82819,141.337158 2859.94147,144.302002 C2857.91999,147.401611 2856.84186,151.242432 2856.7071,155.824463 C2856.57233,156.767822 2856.77448,159.665283 2857.31354,164.516846 C2857.71784,169.233643 2859.53717,173.748291 2862.77155,178.060791 C2864.5235,180.351807 2866.74714,182.373291 2869.44245,184.125244 C2872.27253,186.011963 2875.77643,187.157471 2879.95417,187.561768 Z M2876.67057,61.0126953 C2869.93229,65.8642578 2863.80046,71.5244141 2858.27507,77.9931641 C2852.74967,84.4619141 2848.10026,91.4697266 2844.32682,99.0166016 C2843.92253,98.8818359 2843.2487,98.6123047 2842.30534,98.2080078 C2846.34831,90.3916016 2851.13249,83.1816406 2856.65788,76.578125 C2862.31803,70.109375 2868.58464,64.3144531 2875.45768,59.1933594 C2875.45768,59.4628906 2875.52507,59.6650391 2875.65983,59.7998047 C2875.65983,59.9345703 2875.72721,60.0693359 2875.86198,60.2041016 C2875.99674,60.3388672 2876.13151,60.4736328 2876.26628,60.6083984 C2876.40104,60.7431641 2876.53581,60.8779297 2876.67057,61.0126953 Z M2846.14616,99.8251953 C2844.39421,101.84668 2841.90104,104.878906 2838.66667,108.921875 C2839.07096,106.361328 2839.67741,102.520508 2840.486,97.3994141 C2840.8903,97.5341797 2845.34221,99.3610175 2846.14616,99.8251953 Z M2877.47917,54.5439453 C2876.67057,55.0830078 2876.13151,55.7568359 2875.86198,56.5654297 C2875.59245,57.3740234 2875.59245,58.1826172 2875.86198,58.9912109 C2875.86198,58.9912109 2875.7946,59.0585938 2875.65983,59.1933594 C2875.65983,59.1933594 2875.59245,59.1933594 2875.45768,59.1933594 C2875.18815,58.25 2875.18815,57.3066406 2875.45768,56.3632812 C2875.72721,55.4199219 2876.33366,54.6787109 2877.27702,54.1396484 C2878.22038,53.4658203 2879.2985,53.1962891 2880.51139,53.3310547 C2881.72428,53.6005859 2882.66764,54.2744141 2883.34147,55.3525391 C2884.0153,56.2958984 2884.21745,57.3740234 2883.94792,58.5869141 C2883.67839,59.7998047 2883.00456,60.7431641 2881.92643,61.4169922 C2881.11784,61.9560547 2880.24186,62.2255859 2879.2985,62.2255859 C2878.22038,62.0908203 2877.3444,61.6865234 2876.67057,61.0126953 C2876.67057,61.0126953 2876.73796,60.9453125 2876.87272,60.8105469 C2876.87272,60.8105469 2876.9401,60.7431641 2877.07487,60.6083984 C2877.7487,61.1474609 2878.48991,61.484375 2879.2985,61.6191406 C2880.24186,61.6191406 2881.05046,61.4169922 2881.72428,61.0126953 C2882.66764,60.4736328 2883.20671,59.6650391 2883.34147,58.5869141 C2883.611,57.5087891 2883.40885,56.4980469 2882.73503,55.5546875 C2882.19596,54.7460937 2881.38737,54.2070312 2880.30924,53.9375 C2879.36589,53.6679687 2878.42253,53.8701172 2877.47917,54.5439453 Z M2876.67057,61.0126953 C2876.53581,60.8779297 2876.40104,60.7431641 2876.26628,60.6083984 C2876.13151,60.4736328 2875.99674,60.3388672 2875.86198,60.2041016 C2875.86198,60.0693359 2875.7946,59.9345703 2875.65983,59.7998047 C2875.65983,59.6650391 2875.59245,59.4628906 2875.45768,59.1933594 C2875.59245,59.1933594 2875.65983,59.1933594 2875.65983,59.1933594 C2875.7946,59.0585937 2875.86198,58.9912109 2875.86198,58.9912109 C2875.99674,59.1259766 2876.06413,59.2607422 2876.06413,59.3955078 C2876.19889,59.5302734 2876.26628,59.7324219 2876.26628,60.0019531 C2876.40104,60.1367187 2876.53581,60.2714844 2876.67057,60.40625 C2876.80534,60.5410156 2876.9401,60.6083984 2877.07487,60.6083984 C2876.9401,60.7431641 2876.87272,60.8105469 2876.87272,60.8105469 C2876.73796,60.9453125 2876.67057,61.0126953 2876.67057,61.0126953 Z M2881.72428,61.0126953 C2881.05046,61.5517578 2880.24186,61.7539062 2879.2985,61.6191406 C2878.48991,61.6191406 2877.7487,61.3496094 2877.07487,60.8105469 C2877.20964,60.6757813 2877.27702,60.6083984 2877.27702,60.6083984 C2877.41178,60.4736328 2877.47917,60.40625 2877.47917,60.40625 C2878.01823,60.8105469 2878.69206,61.0800781 2879.50065,61.2148438 C2880.17448,61.2148438 2880.84831,61.0126953 2881.52214,60.6083984 C2882.19596,60.0693359 2882.66764,59.328125 2882.93717,58.3847656 C2883.07194,57.5761719 2882.86979,56.7675781 2882.33073,55.9589844 C2881.92643,55.1503906 2881.2526,54.6787109 2880.30924,54.5439453 C2879.36589,54.2744141 2878.48991,54.4091797 2877.68132,54.9482422 C2877.81608,54.9482422 2877.88346,54.9482422 2877.88346,54.9482422 C2877.88346,54.8134766 2877.95085,54.7460938 2878.08561,54.7460938 C2877.95085,54.7460938 2877.88346,54.8134766 2877.88346,54.9482422 C2877.88346,54.9482422 2877.81608,54.9482422 2877.68132,54.9482422 C2877.68132,54.9482422 2877.61393,55.015625 2877.47917,55.1503906 C2877.47917,55.1503906 2877.47917,55.1503906 2877.47917,55.1503906 C2877.47917,55.1503906 2877.54655,55.1503906 2877.68132,55.1503906 C2877.68132,55.015625 2877.68132,54.9482422 2877.68132,54.9482422 C2877.14225,55.3525391 2876.73796,55.8916016 2876.46842,56.5654297 C2876.19889,57.2392578 2876.19889,57.9804688 2876.46842,58.7890625 C2876.33366,58.7890625 2876.19889,58.7890625 2876.06413,58.7890625 C2876.06413,58.9238281 2875.99674,58.9912109 2875.86198,58.9912109 C2875.59245,58.1826172 2875.59245,57.3740234 2875.86198,56.5654297 C2876.13151,55.7568359 2876.67057,55.0830078 2877.47917,54.5439453 C2878.28776,53.8701172 2879.23112,53.6679688 2880.30924,53.9375 C2881.38737,54.2070313 2882.19596,54.7460938 2882.73503,55.5546875 C2883.40885,56.4980469 2883.611,57.5087891 2883.34147,58.5869141 C2883.20671,59.6650391 2882.66764,60.4736328 2881.72428,61.0126953 Z M2876.67057,59.5976562 C2876.80534,59.7324219 2876.9401,59.8671875 2877.07487,60.0019531 C2877.20964,60.1367187 2877.3444,60.2714844 2877.47917,60.40625 C2877.47917,60.40625 2877.41178,60.4736328 2877.27702,60.6083984 C2877.14225,60.6083984 2877.07487,60.6083984 2877.07487,60.6083984 C2876.9401,60.6083984 2876.80534,60.5410156 2876.67057,60.40625 C2876.53581,60.2714844 2876.40104,60.0693359 2876.26628,59.7998047 C2876.26628,59.6650391 2876.19889,59.5302734 2876.06413,59.3955078 C2876.06413,59.2607422 2875.99674,59.1259766 2875.86198,58.9912109 C2875.99674,58.8564453 2876.06413,58.7890625 2876.06413,58.7890625 C2876.19889,58.7890625 2876.26628,58.7216797 2876.26628,58.5869141 C2876.40104,58.8564453 2876.46842,59.0585937 2876.46842,59.1933594 C2876.60319,59.328125 2876.67057,59.4628906 2876.67057,59.5976562 Z M2892.8755,42.45 C2892.8755,42.099 2892.7675,41.829 2892.5515,41.667 C2892.3085,41.505 2892.0115,41.397 2891.6335,41.397 C2891.4715,41.397 2891.3365,41.478 2891.1745,41.586 C2891.0125,41.721 2890.8775,41.829 2890.7965,41.91 C2890.5805,42.126 2890.4185,42.315 2890.2835,42.531 C2890.1215,42.747 2889.9325,42.963 2889.7705,43.152 C2889.2575,43.746 2888.7175,44.394 2888.1235,45.042 C2887.5025,45.717 2886.9085,46.311 2886.3415,46.851 C2886.2875,46.905 2886.2065,46.959 2886.1525,47.013 L2885.9365,47.121 C2885.8555,47.175 2885.7745,47.202 2885.7205,47.256 L2885.4775,47.418 C2885.3425,47.526 2885.2345,47.607 2885.1535,47.688 C2885.0455,47.796 2885.0185,47.877 2885.0185,47.958 C2885.0185,48.282 2885.1535,48.525 2885.4775,48.714 C2885.7475,48.93 2886.0715,49.011 2886.3955,49.011 C2886.6385,49.011 2886.8545,48.957 2887.0705,48.849 C2887.2595,48.741 2887.4485,48.579 2887.6645,48.363 C2887.7995,48.201 2887.9615,48.012 2888.1775,47.769 L2888.7175,47.175 C2888.8525,47.04 2889.0685,46.824 2889.3385,46.527 C2889.6085,46.23 2889.9055,45.879 2890.2835,45.474 C2890.2025,45.906 2890.1215,46.419 2890.0675,47.013 C2889.9595,47.607 2889.8785,48.201 2889.7975,48.849 L2889.5815,50.766 C2889.5275,51.414 2889.4735,52.035 2889.4465,52.575 C2889.3925,53.601 2889.3385,54.627 2889.3115,55.653 C2889.2575,56.679 2889.2305,57.57 2889.2305,58.326 C2889.2305,58.758 2889.3385,59.082 2889.5815,59.325 C2889.8245,59.595 2890.1485,59.703 2890.5805,59.703 C2890.7965,59.703 2891.0395,59.649 2891.3095,59.541 C2891.5255,59.433 2891.6605,59.298 2891.6605,59.136 C2891.6605,59.055 2891.6335,58.893 2891.6335,58.623 C2891.5795,58.38 2891.5525,58.083 2891.5255,57.759 C2891.4715,57.462 2891.4175,57.138 2891.4175,56.787 C2891.3635,56.436 2891.3635,56.112 2891.3635,55.842 C2891.3635,53.952 2891.4175,52.062 2891.5795,50.145 C2891.7415,48.255 2892.0385,46.365 2892.5245,44.502 C2892.5515,44.34 2892.6055,44.178 2892.6595,43.989 L2892.7675,43.476 L2892.8485,42.963 C2892.8485,42.801 2892.8755,42.639 2892.8755,42.45 Z" transform="translate(-2829.167)"/></svg>