<svg xmlns="http://www.w3.org/2000/svg" width="110" height="203" viewBox="0 0 110 203"><path fill="#131313" d="M3335.54959,202.078125 C3333.79763,201.269531 3332.51736,199.921875 3331.70877,198.035156 C3330.90017,196.148437 3330.90017,194.261719 3331.70877,192.375 C3342.35525,166.904297 3358.39236,128.630859 3379.8201,77.5546875 C3366.61306,77.5546875 3346.8699,77.5546875 3320.5906,77.5546875 C3318.56912,77.5546875 3316.81717,76.8134766 3315.33474,75.3310547 C3313.85232,73.9833984 3313.11111,72.2988281 3313.11111,70.2773438 C3313.11111,68.2558594 3313.85232,66.5039062 3315.33474,65.0214844 C3316.81717,63.6738281 3318.56912,63 3320.5906,63 C3336.22342,63 3359.67263,63 3390.93826,63 C3392.15115,63 3393.29666,63.2695312 3394.37478,63.8085938 C3395.45291,64.3476562 3396.32888,65.15625 3397.00271,66.234375 C3397.67654,67.1777344 3398.08084,68.2558594 3398.2156,69.46875 C3398.2156,69.7382812 3398.2156,70.0078125 3398.2156,70.2773438 C3398.2156,71.2207031 3398.01345,72.1640625 3397.60916,73.1074219 C3386.01931,100.869141 3368.56717,142.511719 3345.25271,198.035156 C3344.71365,199.517578 3343.77029,200.595703 3342.42263,201.269531 C3341.20974,202.078125 3339.86209,202.482422 3338.37967,202.482422 C3337.97537,202.482422 3337.50369,202.482422 3336.96463,202.482422 C3336.56033,202.347656 3336.08865,202.212891 3335.54959,202.078125 Z M3326.29373,178.426758 C3334.6492,158.211914 3347.31717,127.957031 3364.29763,87.6621094 C3356.34646,87.6621094 3344.4197,87.6621094 3328.51736,87.6621094 C3328.51736,87.5273438 3328.51736,87.3251953 3328.51736,87.0556641 C3328.51736,86.9208984 3328.51736,86.7861328 3328.51736,86.6513672 C3328.51736,86.3818359 3328.51736,86.1796875 3328.51736,86.0449219 C3328.51736,85.9101562 3328.51736,85.7753906 3328.51736,85.640625 C3337.14236,85.640625 3350.14724,85.640625 3367.53201,85.640625 C3358.77224,106.394531 3345.6326,137.592773 3328.11306,179.235352 C3327.84353,179.100586 3327.50662,178.96582 3327.10232,178.831055 C3326.83279,178.696289 3326.56326,178.561523 3326.29373,178.426758 Z M3327.30447,181.054688 C3327.43924,180.650391 3327.70877,180.043945 3328.11306,179.235352 C3328.51736,179.370117 3329.12381,179.639648 3329.9324,180.043945 C3328.31521,182.06543 3325.95681,185.097656 3322.8572,189.140625 C3323.12674,186.580078 3323.6658,182.739258 3324.47439,177.618164 C3324.87869,177.887695 3325.48513,178.157227 3326.29373,178.426758 C3326.0242,178.831055 3325.75467,179.4375 3325.48513,180.246094 C3325.88943,180.515625 3326.49588,180.785156 3327.30447,181.054688 Z M3325.48513,180.246094 C3325.6199,179.841797 3325.88943,179.235352 3326.29373,178.426758 C3326.69803,178.561523 3327.30447,178.831055 3328.11306,179.235352 C3327.9783,179.639648 3327.70877,180.246094 3327.30447,181.054688 C3326.90017,180.919922 3326.29373,180.650391 3325.48513,180.246094 Z M3324.0701,90.4921875 C3325.01345,90.4921875 3325.82205,90.2226562 3326.49588,89.6835938 C3327.1697,89.1445312 3327.64138,88.4707031 3327.91092,87.6621094 C3328.04568,87.6621094 3328.24783,87.6621094 3328.51736,87.6621094 C3328.24783,88.6054688 3327.70877,89.4140625 3326.90017,90.0878906 C3326.09158,90.6269531 3325.14822,90.8964844 3324.0701,90.8964844 C3322.8572,90.8964844 3321.84646,90.4921875 3321.03787,89.6835938 C3320.22928,88.875 3319.82498,87.8642578 3319.82498,86.6513672 C3319.82498,85.4384766 3320.22928,84.3603516 3321.03787,83.4169922 C3321.84646,82.6083984 3322.8572,82.2041016 3324.0701,82.2041016 C3325.14822,82.2041016 3326.09158,82.5410156 3326.90017,83.2148438 C3327.70877,83.7539062 3328.24783,84.4951172 3328.51736,85.4384766 C3328.3826,85.4384766 3328.18045,85.4384766 3327.91092,85.4384766 C3327.64138,84.6298828 3327.1697,83.9560547 3326.49588,83.4169922 C3325.82205,82.8779297 3325.01345,82.6083984 3324.0701,82.6083984 C3322.99197,82.6083984 3322.11599,83.0126953 3321.44217,83.8212891 C3320.63357,84.6298828 3320.22928,85.5732422 3320.22928,86.6513672 C3320.22928,87.7294922 3320.63357,88.6054688 3321.44217,89.2792969 C3322.11599,90.0878906 3322.99197,90.4921875 3324.0701,90.4921875 Z M3328.51736,85.4384766 C3328.51736,85.7080078 3328.51736,85.9101562 3328.51736,86.0449219 C3328.51736,86.1796875 3328.51736,86.3818359 3328.51736,86.6513672 C3328.51736,86.7861328 3328.51736,86.9208984 3328.51736,87.0556641 C3328.51736,87.1904297 3328.51736,87.3925781 3328.51736,87.6621094 C3328.3826,87.6621094 3328.18045,87.6621094 3327.91092,87.6621094 C3327.91092,87.3925781 3327.9783,87.1904297 3328.11306,87.0556641 C3328.11306,86.9208984 3328.11306,86.7861328 3328.11306,86.6513672 C3328.11306,86.3818359 3328.04568,86.1796875 3327.91092,86.0449219 C3327.91092,85.9101562 3327.91092,85.7080078 3327.91092,85.4384766 C3328.04568,85.4384766 3328.11306,85.4384766 3328.11306,85.4384766 C3328.24783,85.4384766 3328.3826,85.4384766 3328.51736,85.4384766 Z M3324.0701,82.6083984 C3325.01345,82.6083984 3325.82205,82.8779297 3326.49588,83.4169922 C3327.1697,83.9560547 3327.64138,84.6298828 3327.91092,85.4384766 C3327.77615,85.4384766 3327.574,85.4384766 3327.30447,85.4384766 C3327.1697,84.7646484 3326.76541,84.2255859 3326.09158,83.8212891 C3325.55252,83.4169922 3324.87869,83.2148438 3324.0701,83.2148438 C3323.2615,83.2148438 3322.52029,83.5517578 3321.84646,84.2255859 C3321.17263,84.8994141 3320.83572,85.7080078 3320.83572,86.6513672 C3320.83572,87.4599609 3321.17263,88.2011719 3321.84646,88.875 C3322.52029,89.5488281 3323.2615,89.8857422 3324.0701,89.8857422 C3323.93533,89.8857422 3323.86795,89.8857422 3323.86795,89.8857422 C3323.73318,89.8857422 3323.6658,89.8857422 3323.6658,89.8857422 C3323.6658,89.8857422 3323.73318,89.8857422 3323.86795,89.8857422 C3323.86795,89.8857422 3323.93533,89.8857422 3324.0701,89.8857422 C3324.33963,89.8857422 3324.47439,89.8857422 3324.47439,89.8857422 C3324.60916,89.8857422 3324.67654,89.8857422 3324.67654,89.8857422 C3324.67654,89.8857422 3324.60916,89.8857422 3324.47439,89.8857422 C3324.47439,89.8857422 3324.33963,89.8857422 3324.0701,89.8857422 C3324.87869,89.8857422 3325.55252,89.6835938 3326.09158,89.2792969 C3326.76541,88.875 3327.1697,88.3359375 3327.30447,87.6621094 C3327.43924,87.6621094 3327.64138,87.6621094 3327.91092,87.6621094 C3327.64138,88.4707031 3327.1697,89.1445312 3326.49588,89.6835938 C3325.82205,90.2226562 3325.01345,90.4921875 3324.0701,90.4921875 C3322.99197,90.4921875 3322.11599,90.0878906 3321.44217,89.2792969 C3320.63357,88.6054688 3320.22928,87.7294922 3320.22928,86.6513672 C3320.22928,85.5732422 3320.63357,84.6298828 3321.44217,83.8212891 C3322.11599,83.0126953 3322.99197,82.6083984 3324.0701,82.6083984 Z M3327.50662,86.6513672 C3327.50662,86.3818359 3327.50662,86.1796875 3327.50662,86.0449219 C3327.50662,85.9101562 3327.43924,85.7080078 3327.30447,85.4384766 C3327.43924,85.4384766 3327.64138,85.4384766 3327.91092,85.4384766 C3327.91092,85.7080078 3327.9783,85.9101562 3328.11306,86.0449219 C3328.11306,86.1796875 3328.11306,86.3818359 3328.11306,86.6513672 C3328.11306,86.7861328 3328.04568,86.9208984 3327.91092,87.0556641 C3327.91092,87.1904297 3327.91092,87.3925781 3327.91092,87.6621094 C3327.77615,87.6621094 3327.574,87.6621094 3327.30447,87.6621094 C3327.43924,87.3925781 3327.50662,87.1904297 3327.50662,87.0556641 C3327.50662,86.9208984 3327.50662,86.7861328 3327.50662,86.6513672 Z M3312.8755,81.45 C3312.8755,81.099 3312.7675,80.829 3312.5515,80.667 C3312.3085,80.505 3312.0115,80.397 3311.6335,80.397 C3311.4715,80.397 3311.3365,80.478 3311.1745,80.586 C3311.0125,80.721 3310.8775,80.829 3310.7965,80.91 C3310.5805,81.126 3310.4185,81.315 3310.2835,81.531 C3310.1215,81.747 3309.9325,81.963 3309.7705,82.152 C3309.2575,82.746 3308.7175,83.394 3308.1235,84.042 C3307.5025,84.717 3306.9085,85.311 3306.3415,85.851 C3306.2875,85.905 3306.2065,85.959 3306.1525,86.013 L3305.9365,86.121 C3305.8555,86.175 3305.7745,86.202 3305.7205,86.256 L3305.4775,86.418 C3305.3425,86.526 3305.2345,86.607 3305.1535,86.688 C3305.0455,86.796 3305.0185,86.877 3305.0185,86.958 C3305.0185,87.282 3305.1535,87.525 3305.4775,87.714 C3305.7475,87.93 3306.0715,88.011 3306.3955,88.011 C3306.6385,88.011 3306.8545,87.957 3307.0705,87.849 C3307.2595,87.741 3307.4485,87.579 3307.6645,87.363 C3307.7995,87.201 3307.9615,87.012 3308.1775,86.769 L3308.7175,86.175 C3308.8525,86.04 3309.0685,85.824 3309.3385,85.527 C3309.6085,85.23 3309.9055,84.879 3310.2835,84.474 C3310.2025,84.906 3310.1215,85.419 3310.0675,86.013 C3309.9595,86.607 3309.8785,87.201 3309.7975,87.849 L3309.5815,89.766 C3309.5275,90.414 3309.4735,91.035 3309.4465,91.575 C3309.3925,92.601 3309.3385,93.627 3309.3115,94.653 C3309.2575,95.679 3309.2305,96.57 3309.2305,97.326 C3309.2305,97.758 3309.3385,98.082 3309.5815,98.325 C3309.8245,98.595 3310.1485,98.703 3310.5805,98.703 C3310.7965,98.703 3311.0395,98.649 3311.3095,98.541 C3311.5255,98.433 3311.6605,98.298 3311.6605,98.136 C3311.6605,98.055 3311.6335,97.893 3311.6335,97.623 C3311.5795,97.38 3311.5525,97.083 3311.5255,96.759 C3311.4715,96.462 3311.4175,96.138 3311.4175,95.787 C3311.3635,95.436 3311.3635,95.112 3311.3635,94.842 C3311.3635,92.952 3311.4175,91.062 3311.5795,89.145 C3311.7415,87.255 3312.0385,85.365 3312.5245,83.502 C3312.5515,83.34 3312.6055,83.178 3312.6595,82.989 L3312.7675,82.476 L3312.8485,81.963 C3312.8485,81.801 3312.8755,81.639 3312.8755,81.45 Z" transform="translate(-3300.611)"/></svg>