<svg xmlns="http://www.w3.org/2000/svg" width="110" height="243" viewBox="0 0 110 243"><path fill="#131313" d="M34.9384766,165.078125 C33.1865234,164.269531 31.90625,162.921875 31.0976562,161.035156 C30.2890625,159.148437 30.2890625,157.261719 31.0976562,155.375 C41.7441406,129.904297 57.78125,91.6308594 79.2089844,40.5546875 C66.0019531,40.5546875 46.2587891,40.5546875 19.9794922,40.5546875 C17.9580078,40.5546875 16.2060547,39.8134766 14.7236328,38.3310547 C13.2412109,36.9833984 12.5,35.2988281 12.5,33.2773438 C12.5,31.2558594 13.2412109,29.5039062 14.7236328,28.0214844 C16.2060547,26.6738281 17.9580078,26 19.9794922,26 C35.6123047,26 59.0615234,26 90.3271484,26 C91.5400391,26 92.6855469,26.2695312 93.7636719,26.8085938 C94.8417969,27.3476562 95.7177734,28.15625 96.3916016,29.234375 C97.0654297,30.1777344 97.4697266,31.2558594 97.6044922,32.46875 C97.6044922,32.7382813 97.6044922,33.0078125 97.6044922,33.2773438 C97.6044922,34.2207031 97.4023438,35.1640625 96.9980469,36.1074219 C85.4082031,63.8691406 67.9560547,105.511719 44.6416016,161.035156 C44.1025391,162.517578 43.1591797,163.595703 41.8115234,164.269531 C40.5986328,165.078125 39.2509766,165.482422 37.7685547,165.482422 C37.3642578,165.482422 36.8925781,165.482422 36.3535156,165.482422 C35.9492188,165.347656 35.4775391,165.212891 34.9384766,165.078125 Z M25.6826172,141.426758 C34.0380859,121.211914 46.7060547,90.9570313 63.6865234,50.6621094 C55.7353516,50.6621094 43.8085938,50.6621094 27.90625,50.6621094 C27.90625,50.5273438 27.90625,50.3251953 27.90625,50.0556641 C27.90625,49.9208984 27.90625,49.7861328 27.90625,49.6513672 C27.90625,49.3818359 27.90625,49.1796875 27.90625,49.0449219 C27.90625,48.9101562 27.90625,48.7753906 27.90625,48.640625 C36.53125,48.640625 49.5361328,48.640625 66.9208984,48.640625 C58.1611328,69.3945312 45.0214844,100.592773 27.5019531,142.235352 C27.2324219,142.100586 26.8955078,141.96582 26.4912109,141.831055 C26.2216797,141.696289 25.9521484,141.561523 25.6826172,141.426758 Z M26.6933594,144.054688 C26.828125,143.650391 27.0976563,143.043945 27.5019531,142.235352 C27.90625,142.370117 28.5126953,142.639648 29.3212891,143.043945 C27.7041016,145.06543 25.3457031,148.097656 22.2460938,152.140625 C22.515625,149.580078 23.0546875,145.739258 23.8632813,140.618164 C24.2675781,140.887695 24.8740234,141.157227 25.6826172,141.426758 C25.4130859,141.831055 25.1435547,142.4375 24.8740234,143.246094 C25.2783203,143.515625 25.8847656,143.785156 26.6933594,144.054688 Z M24.8740234,143.246094 C25.0087891,142.841797 25.2783203,142.235352 25.6826172,141.426758 C26.0869141,141.561523 26.6933594,141.831055 27.5019531,142.235352 C27.3671875,142.639648 27.0976562,143.246094 26.6933594,144.054688 C26.2890625,143.919922 25.6826172,143.650391 24.8740234,143.246094 Z M23.4589844,53.4921875 C24.4023438,53.4921875 25.2109375,53.2226562 25.8847656,52.6835938 C26.5585938,52.1445312 27.0302734,51.4707031 27.2998047,50.6621094 C27.4345703,50.6621094 27.6367188,50.6621094 27.90625,50.6621094 C27.6367188,51.6054688 27.0976563,52.4140625 26.2890625,53.0878906 C25.4804688,53.6269531 24.5371094,53.8964844 23.4589844,53.8964844 C22.2460938,53.8964844 21.2353516,53.4921875 20.4267578,52.6835938 C19.6181641,51.875 19.2138672,50.8642578 19.2138672,49.6513672 C19.2138672,48.4384766 19.6181641,47.3603516 20.4267578,46.4169922 C21.2353516,45.6083984 22.2460938,45.2041016 23.4589844,45.2041016 C24.5371094,45.2041016 25.4804688,45.5410156 26.2890625,46.2148438 C27.0976563,46.7539062 27.6367188,47.4951172 27.90625,48.4384766 C27.7714844,48.4384766 27.5693359,48.4384766 27.2998047,48.4384766 C27.0302734,47.6298828 26.5585938,46.9560547 25.8847656,46.4169922 C25.2109375,45.8779297 24.4023438,45.6083984 23.4589844,45.6083984 C22.3808594,45.6083984 21.5048828,46.0126953 20.8310547,46.8212891 C20.0224609,47.6298828 19.6181641,48.5732422 19.6181641,49.6513672 C19.6181641,50.7294922 20.0224609,51.6054688 20.8310547,52.2792969 C21.5048828,53.0878906 22.3808594,53.4921875 23.4589844,53.4921875 Z M27.90625,48.4384766 C27.90625,48.7080078 27.90625,48.9101562 27.90625,49.0449219 C27.90625,49.1796875 27.90625,49.3818359 27.90625,49.6513672 C27.90625,49.7861328 27.90625,49.9208984 27.90625,50.0556641 C27.90625,50.1904297 27.90625,50.3925781 27.90625,50.6621094 C27.7714844,50.6621094 27.5693359,50.6621094 27.2998047,50.6621094 C27.2998047,50.3925781 27.3671875,50.1904297 27.5019531,50.0556641 C27.5019531,49.9208984 27.5019531,49.7861328 27.5019531,49.6513672 C27.5019531,49.3818359 27.4345703,49.1796875 27.2998047,49.0449219 C27.2998047,48.9101562 27.2998047,48.7080078 27.2998047,48.4384766 C27.4345703,48.4384766 27.5019531,48.4384766 27.5019531,48.4384766 C27.6367188,48.4384766 27.7714844,48.4384766 27.90625,48.4384766 Z M23.4589844,45.6083984 C24.4023438,45.6083984 25.2109375,45.8779297 25.8847656,46.4169922 C26.5585938,46.9560547 27.0302734,47.6298828 27.2998047,48.4384766 C27.1650391,48.4384766 26.9628906,48.4384766 26.6933594,48.4384766 C26.5585938,47.7646484 26.1542969,47.2255859 25.4804688,46.8212891 C24.9414062,46.4169922 24.2675781,46.2148438 23.4589844,46.2148438 C22.6503906,46.2148438 21.9091797,46.5517578 21.2353516,47.2255859 C20.5615234,47.8994141 20.2246094,48.7080078 20.2246094,49.6513672 C20.2246094,50.4599609 20.5615234,51.2011719 21.2353516,51.875 C21.9091797,52.5488281 22.6503906,52.8857422 23.4589844,52.8857422 C23.3242188,52.8857422 23.2568359,52.8857422 23.2568359,52.8857422 C23.1220703,52.8857422 23.0546875,52.8857422 23.0546875,52.8857422 C23.0546875,52.8857422 23.1220703,52.8857422 23.2568359,52.8857422 C23.2568359,52.8857422 23.3242188,52.8857422 23.4589844,52.8857422 C23.7285156,52.8857422 23.8632813,52.8857422 23.8632813,52.8857422 C23.9980469,52.8857422 24.0654297,52.8857422 24.0654297,52.8857422 C24.0654297,52.8857422 23.9980469,52.8857422 23.8632813,52.8857422 C23.8632813,52.8857422 23.7285156,52.8857422 23.4589844,52.8857422 C24.2675781,52.8857422 24.9414062,52.6835938 25.4804688,52.2792969 C26.1542969,51.875 26.5585938,51.3359375 26.6933594,50.6621094 C26.828125,50.6621094 27.0302734,50.6621094 27.2998047,50.6621094 C27.0302734,51.4707031 26.5585938,52.1445312 25.8847656,52.6835938 C25.2109375,53.2226562 24.4023438,53.4921875 23.4589844,53.4921875 C22.3808594,53.4921875 21.5048828,53.0878906 20.8310547,52.2792969 C20.0224609,51.6054688 19.6181641,50.7294922 19.6181641,49.6513672 C19.6181641,48.5732422 20.0224609,47.6298828 20.8310547,46.8212891 C21.5048828,46.0126953 22.3808594,45.6083984 23.4589844,45.6083984 Z M26.8955078,49.6513672 C26.8955078,49.3818359 26.8955078,49.1796875 26.8955078,49.0449219 C26.8955078,48.9101562 26.828125,48.7080078 26.6933594,48.4384766 C26.828125,48.4384766 27.0302734,48.4384766 27.2998047,48.4384766 C27.2998047,48.7080078 27.3671875,48.9101562 27.5019531,49.0449219 C27.5019531,49.1796875 27.5019531,49.3818359 27.5019531,49.6513672 C27.5019531,49.7861328 27.4345703,49.9208984 27.2998047,50.0556641 C27.2998047,50.1904297 27.2998047,50.3925781 27.2998047,50.6621094 C27.1650391,50.6621094 26.9628906,50.6621094 26.6933594,50.6621094 C26.828125,50.3925781 26.8955078,50.1904297 26.8955078,50.0556641 C26.8955078,49.9208984 26.8955078,49.7861328 26.8955078,49.6513672 Z M12.2643889,44.45 C12.2643889,44.099 12.1563889,43.829 11.9403889,43.667 C11.6973889,43.505 11.4003889,43.397 11.0223889,43.397 C10.8603889,43.397 10.7253889,43.478 10.5633889,43.586 C10.4013889,43.721 10.2663889,43.829 10.1853889,43.91 C9.96938889,44.126 9.80738889,44.315 9.67238889,44.531 C9.51038889,44.747 9.32138889,44.963 9.15938889,45.152 C8.64638889,45.746 8.10638889,46.394 7.51238889,47.042 C6.89138889,47.717 6.29738889,48.311 5.73038889,48.851 C5.67638889,48.905 5.59538889,48.959 5.54138889,49.013 L5.32538889,49.121 C5.24438889,49.175 5.16338889,49.202 5.10938889,49.256 L4.86638889,49.418 C4.73138889,49.526 4.62338889,49.607 4.54238889,49.688 C4.43438889,49.796 4.40738889,49.877 4.40738889,49.958 C4.40738889,50.282 4.54238889,50.525 4.86638889,50.714 C5.13638889,50.93 5.46038889,51.011 5.78438889,51.011 C6.02738889,51.011 6.24338889,50.957 6.45938889,50.849 C6.64838889,50.741 6.83738889,50.579 7.05338889,50.363 C7.18838889,50.201 7.35038889,50.012 7.56638889,49.769 L8.10638889,49.175 C8.24138889,49.04 8.45738889,48.824 8.72738889,48.527 C8.99738889,48.23 9.29438889,47.879 9.67238889,47.474 C9.59138889,47.906 9.51038889,48.419 9.45638889,49.013 C9.34838889,49.607 9.26738889,50.201 9.18638889,50.849 L8.97038889,52.766 C8.91638889,53.414 8.86238889,54.035 8.83538889,54.575 C8.78138889,55.601 8.72738889,56.627 8.70038889,57.653 C8.64638889,58.679 8.61938889,59.57 8.61938889,60.326 C8.61938889,60.758 8.72738889,61.082 8.97038889,61.325 C9.21338889,61.595 9.53738889,61.703 9.96938889,61.703 C10.1853889,61.703 10.4283889,61.649 10.6983889,61.541 C10.9143889,61.433 11.0493889,61.298 11.0493889,61.136 C11.0493889,61.055 11.0223889,60.893 11.0223889,60.623 C10.9683889,60.38 10.9413889,60.083 10.9143889,59.759 C10.8603889,59.462 10.8063889,59.138 10.8063889,58.787 C10.7523889,58.436 10.7523889,58.112 10.7523889,57.842 C10.7523889,55.952 10.8063889,54.062 10.9683889,52.145 C11.1303889,50.255 11.4273889,48.365 11.9133889,46.502 C11.9403889,46.34 11.9943889,46.178 12.0483889,45.989 L12.1563889,45.476 L12.2373889,44.963 C12.2373889,44.801 12.2643889,44.639 12.2643889,44.45 Z"/></svg>