<svg xmlns="http://www.w3.org/2000/svg" width="110" height="243" viewBox="0 0 110 243"><path fill="#131313" d="M34.9384766,165.078125 C33.1865234,164.269531 31.90625,162.921875 31.0976562,161.035156 C30.2890625,159.148438 30.2890625,157.261719 31.0976562,155.375 C41.7441406,129.904297 57.78125,91.6308594 79.2089844,40.5546875 C66.0019531,40.5546875 46.2587891,40.5546875 19.9794922,40.5546875 C17.9580078,40.5546875 16.2060547,39.8134766 14.7236328,38.3310547 C13.2412109,36.9833984 12.5,35.2988281 12.5,33.2773438 C12.5,31.2558594 13.2412109,29.5039062 14.7236328,28.0214844 C16.2060547,26.6738281 17.9580078,26 19.9794922,26 C35.6123047,26 59.0615234,26 90.3271484,26 C91.5400391,26 92.6855469,26.2695312 93.7636719,26.8085938 C94.8417969,27.3476562 95.7177734,28.15625 96.3916016,29.234375 C97.0654297,30.1777344 97.4697266,31.2558594 97.6044922,32.46875 C97.6044922,32.7382812 97.6044922,33.0078125 97.6044922,33.2773438 C97.6044922,34.2207031 97.4023438,35.1640625 96.9980469,36.1074219 C85.4082031,63.8691406 67.9560547,105.511719 44.6416016,161.035156 C44.1025391,162.517578 43.1591797,163.595703 41.8115234,164.269531 C40.5986328,165.078125 39.2509766,165.482422 37.7685547,165.482422 C37.3642578,165.482422 36.8925781,165.482422 36.3535156,165.482422 C35.9492188,165.347656 35.4775391,165.212891 34.9384766,165.078125 Z M25.6826172,141.426758 C34.0380859,121.211914 46.7060547,90.9570312 63.6865234,50.6621094 C55.7353516,50.6621094 43.8085938,50.6621094 27.90625,50.6621094 C27.90625,50.5273438 27.90625,50.3251953 27.90625,50.0556641 C27.90625,49.9208984 27.90625,49.7861328 27.90625,49.6513672 C27.90625,49.3818359 27.90625,49.1796875 27.90625,49.0449219 C27.90625,48.9101562 27.90625,48.7753906 27.90625,48.640625 C36.53125,48.640625 49.5361328,48.640625 66.9208984,48.640625 C58.1611328,69.3945312 45.0214844,100.592773 27.5019531,142.235352 C27.2324219,142.100586 26.8955078,141.96582 26.4912109,141.831055 C26.2216797,141.696289 25.9521484,141.561523 25.6826172,141.426758 Z M26.6933594,144.054688 C26.828125,143.650391 27.0976562,143.043945 27.5019531,142.235352 C27.90625,142.370117 28.5126953,142.639648 29.3212891,143.043945 C27.7041016,145.06543 25.3457031,148.097656 22.2460938,152.140625 C22.515625,149.580078 23.0546875,145.739258 23.8632812,140.618164 C24.2675781,140.887695 24.8740234,141.157227 25.6826172,141.426758 C25.4130859,141.831055 25.1435547,142.4375 24.8740234,143.246094 C25.2783203,143.515625 25.8847656,143.785156 26.6933594,144.054688 Z M24.8740234,143.246094 C25.0087891,142.841797 25.2783203,142.235352 25.6826172,141.426758 C26.0869141,141.561523 26.6933594,141.831055 27.5019531,142.235352 C27.3671875,142.639648 27.0976562,143.246094 26.6933594,144.054688 C26.2890625,143.919922 25.6826172,143.650391 24.8740234,143.246094 Z M23.4589844,53.4921875 C24.4023438,53.4921875 25.2109375,53.2226562 25.8847656,52.6835938 C26.5585938,52.1445312 27.0302734,51.4707031 27.2998047,50.6621094 C27.4345703,50.6621094 27.6367188,50.6621094 27.90625,50.6621094 C27.6367188,51.6054688 27.0976562,52.4140625 26.2890625,53.0878906 C25.4804688,53.6269531 24.5371094,53.8964844 23.4589844,53.8964844 C22.2460938,53.8964844 21.2353516,53.4921875 20.4267578,52.6835938 C19.6181641,51.875 19.2138672,50.8642578 19.2138672,49.6513672 C19.2138672,48.4384766 19.6181641,47.3603516 20.4267578,46.4169922 C21.2353516,45.6083984 22.2460938,45.2041016 23.4589844,45.2041016 C24.5371094,45.2041016 25.4804688,45.5410156 26.2890625,46.2148438 C27.0976562,46.7539062 27.6367188,47.4951172 27.90625,48.4384766 C27.7714844,48.4384766 27.5693359,48.4384766 27.2998047,48.4384766 C27.0302734,47.6298828 26.5585938,46.9560547 25.8847656,46.4169922 C25.2109375,45.8779297 24.4023438,45.6083984 23.4589844,45.6083984 C22.3808594,45.6083984 21.5048828,46.0126953 20.8310547,46.8212891 C20.0224609,47.6298828 19.6181641,48.5732422 19.6181641,49.6513672 C19.6181641,50.7294922 20.0224609,51.6054688 20.8310547,52.2792969 C21.5048828,53.0878906 22.3808594,53.4921875 23.4589844,53.4921875 Z M27.90625,48.4384766 C27.90625,48.7080078 27.90625,48.9101562 27.90625,49.0449219 C27.90625,49.1796875 27.90625,49.3818359 27.90625,49.6513672 C27.90625,49.7861328 27.90625,49.9208984 27.90625,50.0556641 C27.90625,50.1904297 27.90625,50.3925781 27.90625,50.6621094 C27.7714844,50.6621094 27.5693359,50.6621094 27.2998047,50.6621094 C27.2998047,50.3925781 27.3671875,50.1904297 27.5019531,50.0556641 C27.5019531,49.9208984 27.5019531,49.7861328 27.5019531,49.6513672 C27.5019531,49.3818359 27.4345703,49.1796875 27.2998047,49.0449219 C27.2998047,48.9101562 27.2998047,48.7080078 27.2998047,48.4384766 C27.4345703,48.4384766 27.5019531,48.4384766 27.5019531,48.4384766 C27.6367188,48.4384766 27.7714844,48.4384766 27.90625,48.4384766 Z M23.4589844,45.6083984 C24.4023438,45.6083984 25.2109375,45.8779297 25.8847656,46.4169922 C26.5585938,46.9560547 27.0302734,47.6298828 27.2998047,48.4384766 C27.1650391,48.4384766 26.9628906,48.4384766 26.6933594,48.4384766 C26.5585938,47.7646484 26.1542969,47.2255859 25.4804688,46.8212891 C24.9414062,46.4169922 24.2675781,46.2148438 23.4589844,46.2148438 C22.6503906,46.2148438 21.9091797,46.5517578 21.2353516,47.2255859 C20.5615234,47.8994141 20.2246094,48.7080078 20.2246094,49.6513672 C20.2246094,50.4599609 20.5615234,51.2011719 21.2353516,51.875 C21.9091797,52.5488281 22.6503906,52.8857422 23.4589844,52.8857422 C23.3242188,52.8857422 23.2568359,52.8857422 23.2568359,52.8857422 C23.1220703,52.8857422 23.0546875,52.8857422 23.0546875,52.8857422 C23.0546875,52.8857422 23.1220703,52.8857422 23.2568359,52.8857422 C23.2568359,52.8857422 23.3242188,52.8857422 23.4589844,52.8857422 C23.7285156,52.8857422 23.8632812,52.8857422 23.8632812,52.8857422 C23.9980469,52.8857422 24.0654297,52.8857422 24.0654297,52.8857422 C24.0654297,52.8857422 23.9980469,52.8857422 23.8632812,52.8857422 C23.8632812,52.8857422 23.7285156,52.8857422 23.4589844,52.8857422 C24.2675781,52.8857422 24.9414062,52.6835938 25.4804688,52.2792969 C26.1542969,51.875 26.5585938,51.3359375 26.6933594,50.6621094 C26.828125,50.6621094 27.0302734,50.6621094 27.2998047,50.6621094 C27.0302734,51.4707031 26.5585938,52.1445312 25.8847656,52.6835938 C25.2109375,53.2226562 24.4023438,53.4921875 23.4589844,53.4921875 C22.3808594,53.4921875 21.5048828,53.0878906 20.8310547,52.2792969 C20.0224609,51.6054688 19.6181641,50.7294922 19.6181641,49.6513672 C19.6181641,48.5732422 20.0224609,47.6298828 20.8310547,46.8212891 C21.5048828,46.0126953 22.3808594,45.6083984 23.4589844,45.6083984 Z M26.8955078,49.6513672 C26.8955078,49.3818359 26.8955078,49.1796875 26.8955078,49.0449219 C26.8955078,48.9101562 26.828125,48.7080078 26.6933594,48.4384766 C26.828125,48.4384766 27.0302734,48.4384766 27.2998047,48.4384766 C27.2998047,48.7080078 27.3671875,48.9101562 27.5019531,49.0449219 C27.5019531,49.1796875 27.5019531,49.3818359 27.5019531,49.6513672 C27.5019531,49.7861328 27.4345703,49.9208984 27.2998047,50.0556641 C27.2998047,50.1904297 27.2998047,50.3925781 27.2998047,50.6621094 C27.1650391,50.6621094 26.9628906,50.6621094 26.6933594,50.6621094 C26.828125,50.3925781 26.8955078,50.1904297 26.8955078,50.0556641 C26.8955078,49.9208984 26.8955078,49.7861328 26.8955078,49.6513672 Z M11.734375,42.9804688 C11.8691406,42.9804688 11.9365234,42.9804688 11.9365234,42.9804688 C12.0712891,43.1152344 12.1386719,43.1826172 12.1386719,43.1826172 C12.2734375,43.3173828 12.3408203,43.3847656 12.3408203,43.3847656 C12.3408203,43.5195312 12.3408203,43.6542969 12.3408203,43.7890625 C12.3408203,45.40625 12.3408203,47.4277344 12.3408203,49.8535156 C12.3408203,52.4140625 12.3408203,55.3789062 12.3408203,58.7480469 C12.3408203,58.8828125 12.3408203,58.9501953 12.3408203,58.9501953 C12.2060547,59.0849609 12.1386719,59.2197266 12.1386719,59.3544922 C12.0039062,59.3544922 11.8691406,59.421875 11.734375,59.5566406 C11.5996094,59.5566406 11.5322266,59.5566406 11.5322266,59.5566406 C11.3974609,59.5566406 11.2626953,59.5566406 11.1279297,59.5566406 C10.9931641,59.421875 10.8583984,59.3544922 10.7236328,59.3544922 C10.7236328,59.2197266 10.7236328,59.0849609 10.7236328,58.9501953 C10.5888672,58.9501953 10.5214844,58.8828125 10.5214844,58.7480469 C10.5214844,57.265625 10.5214844,55.4462891 10.5214844,53.2900391 C10.5214844,51.1337891 10.5214844,48.640625 10.5214844,45.8105469 C10.5214844,45.9453125 10.4541016,46.0126953 10.3193359,46.0126953 C10.1845703,46.1474609 10.0498047,46.2822266 9.91503906,46.4169922 C9.91503906,46.5517578 9.84765625,46.6191406 9.71289062,46.6191406 C9.578125,46.6191406 9.44335938,46.6191406 9.30859375,46.6191406 C9.17382812,46.6191406 9.10644531,46.6191406 9.10644531,46.6191406 C8.97167969,46.6191406 8.83691406,46.5517578 8.70214844,46.4169922 C8.56738281,46.4169922 8.5,46.3496094 8.5,46.2148438 C8.5,46.0800781 8.5,45.9453125 8.5,45.8105469 C8.5,45.6757812 8.5,45.5410156 8.5,45.40625 C8.5,45.40625 8.56738281,45.3388672 8.70214844,45.2041016 C8.97167969,44.9345703 9.30859375,44.6650391 9.71289062,44.3955078 C9.98242188,43.9912109 10.3867188,43.5869141 10.9257812,43.1826172 C10.9257812,43.0478516 10.9931641,42.9804688 11.1279297,42.9804688 C11.1279297,42.8457031 11.1953125,42.7783203 11.3300781,42.7783203 C11.3300781,42.7783203 11.3300781,42.7783203 11.3300781,42.7783203 C11.3300781,42.7783203 11.3974609,42.7783203 11.5322266,42.7783203 C11.5322266,42.7783203 11.5996094,42.7783203 11.734375,42.7783203 C11.734375,42.7783203 11.734375,42.8457031 11.734375,42.9804688 Z"/></svg>