<svg xmlns="http://www.w3.org/2000/svg" width="110" height="203" viewBox="0 0 110 203"><path fill="#131313" d="M3791.55556,56.7768281 C3791.55556,46.2651094 3794.85731,37.774875 3801.46083,31.306125 C3807.92958,24.837375 3816.55458,21.603 3827.33583,21.603 C3837.98231,21.603 3846.60731,24.837375 3853.21083,31.306125 C3859.67958,37.774875 3862.91395,46.2651094 3862.91395,56.7768281 C3862.91395,67.1537812 3859.6122,75.6440156 3853.00868,82.2475312 C3846.40516,88.7162812 3837.84755,91.9506563 3827.33583,91.9506563 C3816.68934,91.9506563 3808.06434,88.7162812 3801.46083,82.2475312 C3794.85731,75.6440156 3791.55556,67.1537812 3791.55556,56.7768281 Z M3805.55556,57.2221406 C3805.55556,63.556125 3807.44227,68.5424531 3811.21571,72.181125 C3814.98915,75.9545625 3820.17763,77.8412813 3826.78114,77.8412813 C3833.24989,77.8412813 3838.37099,75.9545625 3842.14442,72.181125 C3845.91786,68.5424531 3847.80458,63.556125 3847.80458,57.2221406 C3847.80458,50.7533906 3845.91786,45.6996797 3842.14442,42.0610078 C3838.50575,38.4223359 3833.38466,36.603 3826.78114,36.603 C3820.17763,36.603 3814.98915,38.4223359 3811.21571,42.0610078 C3807.44227,45.6996797 3805.55556,50.7533906 3805.55556,57.2221406 Z M3784.55556,119.447727 C3784.55556,106.914523 3788.46376,96.8071016 3796.28016,89.1254609 C3804.09657,81.4438203 3814.40614,77.603 3827.20888,77.603 C3839.87684,77.603 3850.11903,81.4438203 3857.93544,89.1254609 C3865.75184,96.8071016 3869.66005,106.914523 3869.66005,119.447727 C3869.66005,131.846164 3865.68446,141.886203 3857.73329,149.567844 C3849.91688,157.38425 3839.74208,161.292453 3827.20888,161.292453 C3814.67567,161.292453 3804.43349,157.38425 3796.48231,149.567844 C3788.53114,141.886203 3784.55556,131.846164 3784.55556,119.447727 Z M3799.55556,118.893039 C3799.55556,127.113742 3802.04872,133.717258 3807.03505,138.703586 C3812.15614,143.689914 3818.96181,146.183078 3827.45204,146.183078 C3835.80751,146.183078 3842.54579,143.689914 3847.66688,138.703586 C3852.78798,133.717258 3855.34852,127.113742 3855.34852,118.893039 C3855.34852,110.402805 3852.85536,103.731906 3847.86903,98.8803437 C3842.8827,94.0287813 3836.07704,91.603 3827.45204,91.603 C3818.69227,91.603 3811.81923,94.0287813 3806.8329,98.8803437 C3801.98134,103.731906 3799.55556,110.402805 3799.55556,118.893039 Z M3817.55946,13.5512422 C3808.7997,14.8988984 3801.45497,18.3354219 3795.52528,23.8608125 C3789.59559,29.3862031 3785.68739,36.3266328 3783.80067,44.6821016 C3783.26161,44.6821016 3782.5204,44.6147188 3781.57704,44.4799531 C3783.59852,35.5854219 3787.77626,28.2406953 3794.11024,22.4457734 C3800.30946,16.5160859 3807.9911,12.8100313 3817.15516,11.3276094 C3817.15516,11.462375 3817.15516,11.5971406 3817.15516,11.7319063 C3817.15516,11.8666719 3817.15516,12.0014375 3817.15516,12.1362031 C3817.15516,12.4057344 3817.22255,12.6078828 3817.35731,12.7426484 C3817.35731,13.0121797 3817.4247,13.2817109 3817.55946,13.5512422 Z M3783.19423,46.9057344 C3783.32899,46.5014375 3783.39638,46.0971406 3783.39638,45.6928438 C3783.53114,45.4233125 3783.66591,45.0863984 3783.80067,44.6821016 C3784.20497,44.8168672 3784.81141,44.88425 3785.62001,44.88425 C3784.67665,47.3100313 3783.26161,50.9487031 3781.37489,55.8002656 C3780.97059,53.2397188 3780.36415,49.3988984 3779.55556,44.2778047 C3780.09462,44.4125703 3780.76845,44.4799531 3781.57704,44.4799531 C3781.57704,44.88425 3781.50966,45.2211641 3781.37489,45.4906953 C3781.37489,45.7602266 3781.30751,46.0971406 3781.17274,46.5014375 C3781.57704,46.5014375 3781.91395,46.5688203 3782.18349,46.7035859 C3782.58778,46.7035859 3782.9247,46.7709688 3783.19423,46.9057344 Z M3783.19423,46.9057344 C3782.78993,46.7709688 3782.1161,46.6362031 3781.17274,46.5014375 C3781.30751,46.0971406 3781.37489,45.7602266 3781.37489,45.4906953 C3781.50966,45.2211641 3781.57704,44.88425 3781.57704,44.4799531 C3782.1161,44.6147188 3782.85731,44.6821016 3783.80067,44.6821016 C3783.66591,45.0863984 3783.53114,45.4233125 3783.39638,45.6928438 C3783.39638,46.0971406 3783.32899,46.5014375 3783.19423,46.9057344 Z M3821.40028,8.09323438 C3820.45692,8.09323438 3819.64833,8.43014844 3818.9745,9.10397656 C3818.30067,9.64303906 3817.89638,10.38425 3817.76161,11.3276094 C3817.62684,11.3276094 3817.55946,11.3276094 3817.55946,11.3276094 C3817.4247,11.3276094 3817.28993,11.3276094 3817.15516,11.3276094 C3817.28993,10.38425 3817.76161,9.50827344 3818.5702,8.69967969 C3819.3788,8.02585156 3820.32216,7.62155469 3821.40028,7.48678906 C3822.61317,7.48678906 3823.6913,7.89108594 3824.63466,8.69967969 C3825.44325,9.50827344 3825.91493,10.5190156 3826.0497,11.7319063 C3826.0497,12.9447969 3825.6454,14.0229219 3824.83681,14.9662813 C3824.02821,15.774875 3823.01747,16.2465547 3821.80458,16.3813203 C3820.86122,16.3813203 3819.98524,16.1117891 3819.17665,15.5727266 C3818.36806,15.0336641 3817.76161,14.3598359 3817.35731,13.5512422 C3817.49208,13.4164766 3817.62684,13.3490938 3817.76161,13.3490938 C3817.76161,13.3490938 3817.82899,13.3490938 3817.96376,13.3490938 C3818.23329,14.1576875 3818.70497,14.7641328 3819.3788,15.1684297 C3820.05263,15.7074922 3820.86122,15.9096406 3821.80458,15.774875 C3822.8827,15.774875 3823.75868,15.3705781 3824.43251,14.5619844 C3825.2411,13.7533906 3825.57802,12.8100313 3825.44325,11.7319063 C3825.44325,10.6537813 3825.03895,9.77780469 3824.23036,9.10397656 C3823.42177,8.29538281 3822.47841,7.95846875 3821.40028,8.09323438 Z M3817.55946,13.5512422 C3817.4247,13.2817109 3817.35731,13.0121797 3817.35731,12.7426484 C3817.22255,12.6078828 3817.15516,12.4057344 3817.15516,12.1362031 C3817.15516,12.0014375 3817.15516,11.8666719 3817.15516,11.7319063 C3817.15516,11.5971406 3817.15516,11.462375 3817.15516,11.3276094 C3817.28993,11.3276094 3817.4247,11.3276094 3817.55946,11.3276094 C3817.55946,11.3276094 3817.62684,11.3276094 3817.76161,11.3276094 C3817.76161,11.462375 3817.76161,11.5971406 3817.76161,11.7319063 C3817.76161,11.8666719 3817.76161,12.0014375 3817.76161,12.1362031 C3817.76161,12.2709688 3817.76161,12.4731172 3817.76161,12.7426484 C3817.89638,13.0121797 3817.96376,13.2143281 3817.96376,13.3490938 C3817.82899,13.3490938 3817.76161,13.3490938 3817.76161,13.3490938 C3817.62684,13.4838594 3817.55946,13.5512422 3817.55946,13.5512422 Z M3821.80458,15.774875 C3820.86122,15.774875 3820.05263,15.5727266 3819.3788,15.1684297 C3818.70497,14.7641328 3818.23329,14.1576875 3817.96376,13.3490938 C3818.09852,13.3490938 3818.16591,13.3490938 3818.16591,13.3490938 C3818.30067,13.3490938 3818.43544,13.3490938 3818.5702,13.3490938 C3818.83974,13.8881563 3819.24403,14.3598359 3819.78309,14.7641328 C3820.32216,15.1684297 3820.99599,15.3705781 3821.80458,15.3705781 C3822.74794,15.2358125 3823.48915,14.8315156 3824.02821,14.1576875 C3824.70204,13.4838594 3825.03895,12.6752656 3825.03895,11.7319063 C3824.90419,10.7885469 3824.49989,10.0473359 3823.82606,9.50827344 C3823.15224,8.83444531 3822.34364,8.49753125 3821.40028,8.49753125 C3821.53505,8.49753125 3821.66981,8.49753125 3821.80458,8.49753125 C3821.80458,8.49753125 3821.80458,8.49753125 3821.80458,8.49753125 C3821.80458,8.49753125 3821.7372,8.49753125 3821.60243,8.49753125 C3821.60243,8.49753125 3821.53505,8.49753125 3821.40028,8.49753125 C3821.40028,8.49753125 3821.3329,8.49753125 3821.19813,8.49753125 C3821.19813,8.49753125 3821.19813,8.49753125 3821.19813,8.49753125 C3821.19813,8.49753125 3821.19813,8.49753125 3821.19813,8.49753125 C3821.19813,8.49753125 3821.19813,8.49753125 3821.19813,8.49753125 C3821.06337,8.49753125 3820.99599,8.49753125 3820.99599,8.49753125 C3820.99599,8.49753125 3820.99599,8.49753125 3820.99599,8.49753125 C3820.99599,8.49753125 3820.99599,8.49753125 3820.99599,8.49753125 C3820.99599,8.49753125 3821.06337,8.49753125 3821.19813,8.49753125 C3821.19813,8.49753125 3821.19813,8.49753125 3821.19813,8.49753125 C3821.19813,8.49753125 3821.19813,8.49753125 3821.19813,8.49753125 C3821.19813,8.49753125 3821.19813,8.49753125 3821.19813,8.49753125 C3821.3329,8.49753125 3821.40028,8.49753125 3821.40028,8.49753125 C3820.59169,8.49753125 3819.91786,8.7670625 3819.3788,9.306125 C3818.83974,9.8451875 3818.50282,10.5190156 3818.36806,11.3276094 C3818.23329,11.3276094 3818.09852,11.3276094 3817.96376,11.3276094 C3817.96376,11.3276094 3817.89638,11.3276094 3817.76161,11.3276094 C3817.89638,10.38425 3818.30067,9.64303906 3818.9745,9.10397656 C3819.64833,8.43014844 3820.45692,8.09323438 3821.40028,8.09323438 C3822.47841,7.95846875 3823.42177,8.29538281 3824.23036,9.10397656 C3825.03895,9.77780469 3825.44325,10.6537813 3825.44325,11.7319063 C3825.44325,12.8100313 3825.10634,13.7533906 3824.43251,14.5619844 C3823.75868,15.3705781 3822.8827,15.774875 3821.80458,15.774875 Z M3818.16591,12.1362031 C3818.16591,12.2709688 3818.23329,12.4731172 3818.36806,12.7426484 C3818.36806,12.8774141 3818.43544,13.0795625 3818.5702,13.3490938 C3818.43544,13.3490938 3818.30067,13.3490938 3818.16591,13.3490938 C3818.16591,13.3490938 3818.09852,13.3490938 3817.96376,13.3490938 C3817.96376,13.2143281 3817.89638,13.0121797 3817.76161,12.7426484 C3817.76161,12.4731172 3817.76161,12.2709688 3817.76161,12.1362031 C3817.76161,12.0014375 3817.76161,11.8666719 3817.76161,11.7319063 C3817.76161,11.5971406 3817.76161,11.462375 3817.76161,11.3276094 C3817.89638,11.3276094 3817.96376,11.3276094 3817.96376,11.3276094 C3818.09852,11.3276094 3818.23329,11.3276094 3818.36806,11.3276094 C3818.23329,11.462375 3818.16591,11.5971406 3818.16591,11.7319063 C3818.16591,11.8666719 3818.16591,12.0014375 3818.16591,12.1362031 Z M3836.8755,1.053 C3836.8755,0.702 3836.7675,0.432 3836.5515,0.27 C3836.3085,0.108 3836.0115,0 3835.6335,0 C3835.4715,0 3835.3365,0.081 3835.1745,0.189 C3835.0125,0.324 3834.8775,0.432 3834.7965,0.513 C3834.5805,0.729 3834.4185,0.918 3834.2835,1.134 C3834.1215,1.35 3833.9325,1.566 3833.7705,1.755 C3833.2575,2.349 3832.7175,2.997 3832.1235,3.645 C3831.5025,4.32 3830.9085,4.914 3830.3415,5.454 C3830.2875,5.508 3830.2065,5.562 3830.1525,5.616 L3829.9365,5.724 C3829.8555,5.778 3829.7745,5.805 3829.7205,5.859 L3829.4775,6.021 C3829.3425,6.129 3829.2345,6.21 3829.1535,6.291 C3829.0455,6.399 3829.0185,6.48 3829.0185,6.561 C3829.0185,6.885 3829.1535,7.128 3829.4775,7.317 C3829.7475,7.533 3830.0715,7.614 3830.3955,7.614 C3830.6385,7.614 3830.8545,7.56 3831.0705,7.452 C3831.2595,7.344 3831.4485,7.182 3831.6645,6.966 C3831.7995,6.804 3831.9615,6.615 3832.1775,6.372 L3832.7175,5.778 C3832.8525,5.643 3833.0685,5.427 3833.3385,5.13 C3833.6085,4.833 3833.9055,4.482 3834.2835,4.077 C3834.2025,4.509 3834.1215,5.022 3834.0675,5.616 C3833.9595,6.21 3833.8785,6.804 3833.7975,7.452 L3833.5815,9.369 C3833.5275,10.017 3833.4735,10.638 3833.4465,11.178 C3833.3925,12.204 3833.3385,13.23 3833.3115,14.256 C3833.2575,15.282 3833.2305,16.173 3833.2305,16.929 C3833.2305,17.361 3833.3385,17.685 3833.5815,17.928 C3833.8245,18.198 3834.1485,18.306 3834.5805,18.306 C3834.7965,18.306 3835.0395,18.252 3835.3095,18.144 C3835.5255,18.036 3835.6605,17.901 3835.6605,17.739 C3835.6605,17.658 3835.6335,17.496 3835.6335,17.226 C3835.5795,16.983 3835.5525,16.686 3835.5255,16.362 C3835.4715,16.065 3835.4175,15.741 3835.4175,15.39 C3835.3635,15.039 3835.3635,14.715 3835.3635,14.445 C3835.3635,12.555 3835.4175,10.665 3835.5795,8.748 C3835.7415,6.858 3836.0385,4.968 3836.5245,3.105 C3836.5515,2.943 3836.6055,2.781 3836.6595,2.592 L3836.7675,2.079 L3836.8485,1.566 C3836.8485,1.404 3836.8755,1.242 3836.8755,1.053 Z" transform="translate(-3772.056 -19.603)"/></svg>