<svg xmlns="http://www.w3.org/2000/svg" width="110" height="203" viewBox="0 0 110 203"><path fill="#131313" d="M3791.55556,98.1738281 C3791.55556,87.6621094 3794.85731,79.171875 3801.46083,72.703125 C3807.92958,66.234375 3816.55458,63 3827.33583,63 C3837.98231,63 3846.60731,66.234375 3853.21083,72.703125 C3859.67958,79.171875 3862.91395,87.6621094 3862.91395,98.1738281 C3862.91395,108.550781 3859.6122,117.041016 3853.00868,123.644531 C3846.40516,130.113281 3837.84755,133.347656 3827.33583,133.347656 C3816.68934,133.347656 3808.06434,130.113281 3801.46083,123.644531 C3794.85731,117.041016 3791.55556,108.550781 3791.55556,98.1738281 Z M3805.55556,98.6191406 C3805.55556,104.953125 3807.44227,109.939453 3811.21571,113.578125 C3814.98915,117.351562 3820.17763,119.238281 3826.78114,119.238281 C3833.24989,119.238281 3838.37099,117.351562 3842.14442,113.578125 C3845.91786,109.939453 3847.80458,104.953125 3847.80458,98.6191406 C3847.80458,92.1503906 3845.91786,87.0966797 3842.14442,83.4580078 C3838.50575,79.8193359 3833.38466,78 3826.78114,78 C3820.17763,78 3814.98915,79.8193359 3811.21571,83.4580078 C3807.44227,87.0966797 3805.55556,92.1503906 3805.55556,98.6191406 Z M3784.55556,160.844727 C3784.55556,148.311523 3788.46376,138.204102 3796.28016,130.522461 C3804.09657,122.84082 3814.40614,119 3827.20888,119 C3839.87684,119 3850.11903,122.84082 3857.93544,130.522461 C3865.75184,138.204102 3869.66005,148.311523 3869.66005,160.844727 C3869.66005,173.243164 3865.68446,183.283203 3857.73329,190.964844 C3849.91688,198.78125 3839.74208,202.689453 3827.20888,202.689453 C3814.67567,202.689453 3804.43349,198.78125 3796.48231,190.964844 C3788.53114,183.283203 3784.55556,173.243164 3784.55556,160.844727 Z M3799.55556,160.290039 C3799.55556,168.510742 3802.04872,175.114258 3807.03505,180.100586 C3812.15614,185.086914 3818.96181,187.580078 3827.45204,187.580078 C3835.80751,187.580078 3842.54579,185.086914 3847.66688,180.100586 C3852.78798,175.114258 3855.34852,168.510742 3855.34852,160.290039 C3855.34852,151.799805 3852.85536,145.128906 3847.86903,140.277344 C3842.8827,135.425781 3836.07704,133 3827.45204,133 C3818.69227,133 3811.81923,135.425781 3806.8329,140.277344 C3801.98134,145.128906 3799.55556,151.799805 3799.55556,160.290039 Z M3817.55946,54.9482422 C3808.7997,56.2958984 3801.45497,59.7324219 3795.52528,65.2578125 C3789.59559,70.7832031 3785.68739,77.7236328 3783.80067,86.0791016 C3783.26161,86.0791016 3782.5204,86.0117188 3781.57704,85.8769531 C3783.59852,76.9824219 3787.77626,69.6376953 3794.11024,63.8427734 C3800.30946,57.9130859 3807.9911,54.2070312 3817.15516,52.7246094 C3817.15516,52.859375 3817.15516,52.9941406 3817.15516,53.1289062 C3817.15516,53.2636719 3817.15516,53.3984375 3817.15516,53.5332031 C3817.15516,53.8027344 3817.22255,54.0048828 3817.35731,54.1396484 C3817.35731,54.4091797 3817.4247,54.6787109 3817.55946,54.9482422 Z M3783.19423,88.3027344 C3783.32899,87.8984375 3783.39638,87.4941406 3783.39638,87.0898438 C3783.53114,86.8203125 3783.66591,86.4833984 3783.80067,86.0791016 C3784.20497,86.2138672 3784.81141,86.28125 3785.62001,86.28125 C3784.67665,88.7070312 3783.26161,92.3457031 3781.37489,97.1972656 C3780.97059,94.6367188 3780.36415,90.7958984 3779.55556,85.6748047 C3780.09462,85.8095703 3780.76845,85.8769531 3781.57704,85.8769531 C3781.57704,86.28125 3781.50966,86.6181641 3781.37489,86.8876953 C3781.37489,87.1572266 3781.30751,87.4941406 3781.17274,87.8984375 C3781.57704,87.8984375 3781.91395,87.9658203 3782.18349,88.1005859 C3782.58778,88.1005859 3782.9247,88.1679688 3783.19423,88.3027344 Z M3783.19423,88.3027344 C3782.78993,88.1679688 3782.1161,88.0332031 3781.17274,87.8984375 C3781.30751,87.4941406 3781.37489,87.1572266 3781.37489,86.8876953 C3781.50966,86.6181641 3781.57704,86.28125 3781.57704,85.8769531 C3782.1161,86.0117188 3782.85731,86.0791016 3783.80067,86.0791016 C3783.66591,86.4833984 3783.53114,86.8203125 3783.39638,87.0898438 C3783.39638,87.4941406 3783.32899,87.8984375 3783.19423,88.3027344 Z M3821.40028,49.4902344 C3820.45692,49.4902344 3819.64833,49.8271484 3818.9745,50.5009766 C3818.30067,51.0400391 3817.89638,51.78125 3817.76161,52.7246094 C3817.62684,52.7246094 3817.55946,52.7246094 3817.55946,52.7246094 C3817.4247,52.7246094 3817.28993,52.7246094 3817.15516,52.7246094 C3817.28993,51.78125 3817.76161,50.9052734 3818.5702,50.0966797 C3819.3788,49.4228516 3820.32216,49.0185547 3821.40028,48.8837891 C3822.61317,48.8837891 3823.6913,49.2880859 3824.63466,50.0966797 C3825.44325,50.9052734 3825.91493,51.9160156 3826.0497,53.1289062 C3826.0497,54.3417969 3825.6454,55.4199219 3824.83681,56.3632812 C3824.02821,57.171875 3823.01747,57.6435547 3821.80458,57.7783203 C3820.86122,57.7783203 3819.98524,57.5087891 3819.17665,56.9697266 C3818.36806,56.4306641 3817.76161,55.7568359 3817.35731,54.9482422 C3817.49208,54.8134766 3817.62684,54.7460938 3817.76161,54.7460938 C3817.76161,54.7460938 3817.82899,54.7460938 3817.96376,54.7460938 C3818.23329,55.5546875 3818.70497,56.1611328 3819.3788,56.5654297 C3820.05263,57.1044922 3820.86122,57.3066406 3821.80458,57.171875 C3822.8827,57.171875 3823.75868,56.7675781 3824.43251,55.9589844 C3825.2411,55.1503906 3825.57802,54.2070313 3825.44325,53.1289062 C3825.44325,52.0507812 3825.03895,51.1748047 3824.23036,50.5009766 C3823.42177,49.6923828 3822.47841,49.3554688 3821.40028,49.4902344 Z M3817.55946,54.9482422 C3817.4247,54.6787109 3817.35731,54.4091797 3817.35731,54.1396484 C3817.22255,54.0048828 3817.15516,53.8027344 3817.15516,53.5332031 C3817.15516,53.3984375 3817.15516,53.2636719 3817.15516,53.1289062 C3817.15516,52.9941406 3817.15516,52.859375 3817.15516,52.7246094 C3817.28993,52.7246094 3817.4247,52.7246094 3817.55946,52.7246094 C3817.55946,52.7246094 3817.62684,52.7246094 3817.76161,52.7246094 C3817.76161,52.859375 3817.76161,52.9941406 3817.76161,53.1289062 C3817.76161,53.2636719 3817.76161,53.3984375 3817.76161,53.5332031 C3817.76161,53.6679687 3817.76161,53.8701172 3817.76161,54.1396484 C3817.89638,54.4091797 3817.96376,54.6113281 3817.96376,54.7460937 C3817.82899,54.7460937 3817.76161,54.7460937 3817.76161,54.7460937 C3817.62684,54.8808594 3817.55946,54.9482422 3817.55946,54.9482422 Z M3821.80458,57.171875 C3820.86122,57.171875 3820.05263,56.9697266 3819.3788,56.5654297 C3818.70497,56.1611328 3818.23329,55.5546875 3817.96376,54.7460938 C3818.09852,54.7460938 3818.16591,54.7460938 3818.16591,54.7460938 C3818.30067,54.7460938 3818.43544,54.7460938 3818.5702,54.7460938 C3818.83974,55.2851563 3819.24403,55.7568359 3819.78309,56.1611328 C3820.32216,56.5654297 3820.99599,56.7675781 3821.80458,56.7675781 C3822.74794,56.6328125 3823.48915,56.2285156 3824.02821,55.5546875 C3824.70204,54.8808594 3825.03895,54.0722656 3825.03895,53.1289063 C3824.90419,52.1855469 3824.49989,51.4443359 3823.82606,50.9052734 C3823.15224,50.2314453 3822.34364,49.8945313 3821.40028,49.8945313 C3821.53505,49.8945313 3821.66981,49.8945313 3821.80458,49.8945313 C3821.80458,49.8945313 3821.80458,49.8945313 3821.80458,49.8945313 C3821.80458,49.8945313 3821.7372,49.8945313 3821.60243,49.8945313 C3821.60243,49.8945313 3821.53505,49.8945313 3821.40028,49.8945313 C3821.40028,49.8945313 3821.3329,49.8945313 3821.19813,49.8945313 C3821.19813,49.8945313 3821.19813,49.8945313 3821.19813,49.8945313 C3821.19813,49.8945313 3821.19813,49.8945313 3821.19813,49.8945313 C3821.19813,49.8945313 3821.19813,49.8945313 3821.19813,49.8945313 C3821.06337,49.8945313 3820.99599,49.8945313 3820.99599,49.8945313 C3820.99599,49.8945313 3820.99599,49.8945313 3820.99599,49.8945313 C3820.99599,49.8945313 3820.99599,49.8945313 3820.99599,49.8945313 C3820.99599,49.8945313 3821.06337,49.8945313 3821.19813,49.8945313 C3821.19813,49.8945313 3821.19813,49.8945313 3821.19813,49.8945313 C3821.19813,49.8945313 3821.19813,49.8945313 3821.19813,49.8945313 C3821.19813,49.8945313 3821.19813,49.8945313 3821.19813,49.8945313 C3821.3329,49.8945313 3821.40028,49.8945313 3821.40028,49.8945313 C3820.59169,49.8945313 3819.91786,50.1640625 3819.3788,50.703125 C3818.83974,51.2421875 3818.50282,51.9160156 3818.36806,52.7246094 C3818.23329,52.7246094 3818.09852,52.7246094 3817.96376,52.7246094 C3817.96376,52.7246094 3817.89638,52.7246094 3817.76161,52.7246094 C3817.89638,51.78125 3818.30067,51.0400391 3818.9745,50.5009766 C3819.64833,49.8271484 3820.45692,49.4902344 3821.40028,49.4902344 C3822.47841,49.3554688 3823.42177,49.6923828 3824.23036,50.5009766 C3825.03895,51.1748047 3825.44325,52.0507813 3825.44325,53.1289063 C3825.44325,54.2070313 3825.10634,55.1503906 3824.43251,55.9589844 C3823.75868,56.7675781 3822.8827,57.171875 3821.80458,57.171875 Z M3818.16591,53.5332031 C3818.16591,53.6679687 3818.23329,53.8701172 3818.36806,54.1396484 C3818.36806,54.2744141 3818.43544,54.4765625 3818.5702,54.7460937 C3818.43544,54.7460937 3818.30067,54.7460937 3818.16591,54.7460937 C3818.16591,54.7460937 3818.09852,54.7460937 3817.96376,54.7460937 C3817.96376,54.6113281 3817.89638,54.4091797 3817.76161,54.1396484 C3817.76161,53.8701172 3817.76161,53.6679687 3817.76161,53.5332031 C3817.76161,53.3984375 3817.76161,53.2636719 3817.76161,53.1289062 C3817.76161,52.9941406 3817.76161,52.859375 3817.76161,52.7246094 C3817.89638,52.7246094 3817.96376,52.7246094 3817.96376,52.7246094 C3818.09852,52.7246094 3818.23329,52.7246094 3818.36806,52.7246094 C3818.23329,52.859375 3818.16591,52.9941406 3818.16591,53.1289062 C3818.16591,53.2636719 3818.16591,53.3984375 3818.16591,53.5332031 Z M3836.8755,42.45 C3836.8755,42.099 3836.7675,41.829 3836.5515,41.667 C3836.3085,41.505 3836.0115,41.397 3835.6335,41.397 C3835.4715,41.397 3835.3365,41.478 3835.1745,41.586 C3835.0125,41.721 3834.8775,41.829 3834.7965,41.91 C3834.5805,42.126 3834.4185,42.315 3834.2835,42.531 C3834.1215,42.747 3833.9325,42.963 3833.7705,43.152 C3833.2575,43.746 3832.7175,44.394 3832.1235,45.042 C3831.5025,45.717 3830.9085,46.311 3830.3415,46.851 C3830.2875,46.905 3830.2065,46.959 3830.1525,47.013 L3829.9365,47.121 C3829.8555,47.175 3829.7745,47.202 3829.7205,47.256 L3829.4775,47.418 C3829.3425,47.526 3829.2345,47.607 3829.1535,47.688 C3829.0455,47.796 3829.0185,47.877 3829.0185,47.958 C3829.0185,48.282 3829.1535,48.525 3829.4775,48.714 C3829.7475,48.93 3830.0715,49.011 3830.3955,49.011 C3830.6385,49.011 3830.8545,48.957 3831.0705,48.849 C3831.2595,48.741 3831.4485,48.579 3831.6645,48.363 C3831.7995,48.201 3831.9615,48.012 3832.1775,47.769 L3832.7175,47.175 C3832.8525,47.04 3833.0685,46.824 3833.3385,46.527 C3833.6085,46.23 3833.9055,45.879 3834.2835,45.474 C3834.2025,45.906 3834.1215,46.419 3834.0675,47.013 C3833.9595,47.607 3833.8785,48.201 3833.7975,48.849 L3833.5815,50.766 C3833.5275,51.414 3833.4735,52.035 3833.4465,52.575 C3833.3925,53.601 3833.3385,54.627 3833.3115,55.653 C3833.2575,56.679 3833.2305,57.57 3833.2305,58.326 C3833.2305,58.758 3833.3385,59.082 3833.5815,59.325 C3833.8245,59.595 3834.1485,59.703 3834.5805,59.703 C3834.7965,59.703 3835.0395,59.649 3835.3095,59.541 C3835.5255,59.433 3835.6605,59.298 3835.6605,59.136 C3835.6605,59.055 3835.6335,58.893 3835.6335,58.623 C3835.5795,58.38 3835.5525,58.083 3835.5255,57.759 C3835.4715,57.462 3835.4175,57.138 3835.4175,56.787 C3835.3635,56.436 3835.3635,56.112 3835.3635,55.842 C3835.3635,53.952 3835.4175,52.062 3835.5795,50.145 C3835.7415,48.255 3836.0385,46.365 3836.5245,44.502 C3836.5515,44.34 3836.6055,44.178 3836.6595,43.989 L3836.7675,43.476 L3836.8485,42.963 C3836.8485,42.801 3836.8755,42.639 3836.8755,42.45 Z" transform="translate(-3772.056)"/></svg>