<svg xmlns="http://www.w3.org/2000/svg" width="110" height="243" viewBox="0 0 110 243"><path fill="#131313" d="M19.5,61.1738281 C19.5,50.6621094 22.8017578,42.171875 29.4052734,35.703125 C35.8740234,29.234375 44.4990234,26 55.2802734,26 C65.9267578,26 74.5517578,29.234375 81.1552734,35.703125 C87.6240234,42.171875 90.8583984,50.6621094 90.8583984,61.1738281 C90.8583984,71.5507812 87.5566406,80.0410156 80.953125,86.6445312 C74.3496094,93.1132812 65.7919922,96.3476562 55.2802734,96.3476562 C44.6337891,96.3476562 36.0087891,93.1132812 29.4052734,86.6445312 C22.8017578,80.0410156 19.5,71.5507812 19.5,61.1738281 Z M33.5,61.6191406 C33.5,67.953125 35.3867188,72.9394531 39.1601562,76.578125 C42.9335938,80.3515625 48.1220703,82.2382812 54.7255859,82.2382812 C61.1943359,82.2382812 66.3154297,80.3515625 70.0888672,76.578125 C73.8623047,72.9394531 75.7490234,67.953125 75.7490234,61.6191406 C75.7490234,55.1503906 73.8623047,50.0966797 70.0888672,46.4580078 C66.4501953,42.8193359 61.3291016,41 54.7255859,41 C48.1220703,41 42.9335938,42.8193359 39.1601562,46.4580078 C35.3867188,50.0966797 33.5,55.1503906 33.5,61.6191406 Z M12.5,123.844727 C12.5,111.311523 16.4082031,101.204102 24.2246094,93.5224609 C32.0410156,85.8408203 42.3505859,82 55.1533203,82 C67.8212891,82 78.0634766,85.8408203 85.8798828,93.5224609 C93.6962891,101.204102 97.6044922,111.311523 97.6044922,123.844727 C97.6044922,136.243164 93.6289062,146.283203 85.6777344,153.964844 C77.8613281,161.78125 67.6865234,165.689453 55.1533203,165.689453 C42.6201172,165.689453 32.3779297,161.78125 24.4267578,153.964844 C16.4755859,146.283203 12.5,136.243164 12.5,123.844727 Z M27.5,123.290039 C27.5,131.510742 29.9931641,138.114258 34.9794922,143.100586 C40.1005859,148.086914 46.90625,150.580078 55.3964844,150.580078 C63.7519531,150.580078 70.4902344,148.086914 75.6113281,143.100586 C80.7324219,138.114258 83.2929688,131.510742 83.2929688,123.290039 C83.2929688,114.799805 80.7998047,108.128906 75.8134766,103.277344 C70.8271484,98.4257812 64.0214844,96 55.3964844,96 C46.6367188,96 39.7636719,98.4257812 34.7773438,103.277344 C29.9257812,108.128906 27.5,114.799805 27.5,123.290039 Z M45.5039062,17.9482422 C36.7441406,19.2958984 29.3994141,22.7324219 23.4697266,28.2578125 C17.5400391,33.7832031 13.6318359,40.7236328 11.7451172,49.0791016 C11.2060547,49.0791016 10.4648438,49.0117188 9.52148438,48.8769531 C11.5429688,39.9824219 15.7207031,32.6376953 22.0546875,26.8427734 C28.2539063,20.9130859 35.9355469,17.2070312 45.0996094,15.7246094 C45.0996094,15.859375 45.0996094,15.9941406 45.0996094,16.1289062 C45.0996094,16.2636719 45.0996094,16.3984375 45.0996094,16.5332031 C45.0996094,16.8027344 45.1669922,17.0048828 45.3017578,17.1396484 C45.3017578,17.4091797 45.3691406,17.6787109 45.5039062,17.9482422 Z M11.1386719,51.3027344 C11.2734375,50.8984375 11.3408203,50.4941406 11.3408203,50.0898438 C11.4755859,49.8203125 11.6103516,49.4833984 11.7451172,49.0791016 C12.1494141,49.2138672 12.7558594,49.28125 13.5644531,49.28125 C12.6210938,51.7070312 11.2060547,55.3457031 9.31933594,60.1972656 C8.91503906,57.6367188 8.30859375,53.7958984 7.5,48.6748047 C8.0390625,48.8095703 8.71289062,48.8769531 9.52148438,48.8769531 C9.52148438,49.28125 9.45410156,49.6181641 9.31933594,49.8876953 C9.31933594,50.1572266 9.25195312,50.4941406 9.1171875,50.8984375 C9.52148438,50.8984375 9.85839844,50.9658203 10.1279297,51.1005859 C10.5322266,51.1005859 10.8691406,51.1679688 11.1386719,51.3027344 Z M11.1386719,51.3027344 C10.734375,51.1679688 10.0605469,51.0332031 9.1171875,50.8984375 C9.25195312,50.4941406 9.31933594,50.1572266 9.31933594,49.8876953 C9.45410156,49.6181641 9.52148438,49.28125 9.52148438,48.8769531 C10.0605469,49.0117188 10.8017578,49.0791016 11.7451172,49.0791016 C11.6103516,49.4833984 11.4755859,49.8203125 11.3408203,50.0898438 C11.3408203,50.4941406 11.2734375,50.8984375 11.1386719,51.3027344 Z M49.3447266,12.4902344 C48.4013672,12.4902344 47.5927734,12.8271484 46.9189453,13.5009766 C46.2451172,14.0400391 45.8408203,14.78125 45.7060547,15.7246094 C45.5712891,15.7246094 45.5039062,15.7246094 45.5039062,15.7246094 C45.3691406,15.7246094 45.234375,15.7246094 45.0996094,15.7246094 C45.234375,14.78125 45.7060547,13.9052734 46.5146484,13.0966797 C47.3232422,12.4228516 48.2666016,12.0185547 49.3447266,11.8837891 C50.5576172,11.8837891 51.6357422,12.2880859 52.5791016,13.0966797 C53.3876953,13.9052734 53.859375,14.9160156 53.9941406,16.1289062 C53.9941406,17.3417969 53.5898438,18.4199219 52.78125,19.3632812 C51.9726562,20.171875 50.9619141,20.6435547 49.7490234,20.7783203 C48.8056641,20.7783203 47.9296875,20.5087891 47.1210938,19.9697266 C46.3125,19.4306641 45.7060547,18.7568359 45.3017578,17.9482422 C45.4365234,17.8134766 45.5712891,17.7460938 45.7060547,17.7460938 C45.7060547,17.7460938 45.7734375,17.7460938 45.9082031,17.7460938 C46.1777344,18.5546875 46.6494141,19.1611328 47.3232422,19.5654297 C47.9970703,20.1044922 48.8056641,20.3066406 49.7490234,20.171875 C50.8271484,20.171875 51.703125,19.7675781 52.3769531,18.9589844 C53.1855469,18.1503906 53.5224609,17.2070312 53.3876953,16.1289062 C53.3876953,15.0507812 52.9833984,14.1748047 52.1748047,13.5009766 C51.3662109,12.6923828 50.4228516,12.3554688 49.3447266,12.4902344 Z M45.5039062,17.9482422 C45.3691406,17.6787109 45.3017578,17.4091797 45.3017578,17.1396484 C45.1669922,17.0048828 45.0996094,16.8027344 45.0996094,16.5332031 C45.0996094,16.3984375 45.0996094,16.2636719 45.0996094,16.1289062 C45.0996094,15.9941406 45.0996094,15.859375 45.0996094,15.7246094 C45.234375,15.7246094 45.3691406,15.7246094 45.5039062,15.7246094 C45.5039062,15.7246094 45.5712891,15.7246094 45.7060547,15.7246094 C45.7060547,15.859375 45.7060547,15.9941406 45.7060547,16.1289062 C45.7060547,16.2636719 45.7060547,16.3984375 45.7060547,16.5332031 C45.7060547,16.6679688 45.7060547,16.8701172 45.7060547,17.1396484 C45.8408203,17.4091797 45.9082031,17.6113281 45.9082031,17.7460938 C45.7734375,17.7460938 45.7060547,17.7460938 45.7060547,17.7460938 C45.5712891,17.8808594 45.5039062,17.9482422 45.5039062,17.9482422 Z M49.3447266,12.8945312 C49.4794922,12.8945312 49.546875,12.8945312 49.546875,12.8945312 C49.6816406,12.8945312 49.7490234,12.8945312 49.7490234,12.8945312 C49.7490234,12.8945312 49.6816406,12.8945312 49.546875,12.8945312 C49.546875,12.8945312 49.4794922,12.8945312 49.3447266,12.8945312 Z M49.7490234,20.171875 C48.8056641,20.171875 47.9970703,19.9697266 47.3232422,19.5654297 C46.6494141,19.1611328 46.1777344,18.5546875 45.9082031,17.7460938 C46.0429688,17.7460938 46.1103516,17.7460938 46.1103516,17.7460938 C46.2451172,17.7460938 46.3798828,17.7460938 46.5146484,17.7460938 C46.7841797,18.2851563 47.1884766,18.7568359 47.7275391,19.1611328 C48.2666016,19.5654297 48.9404297,19.7675781 49.7490234,19.7675781 C50.6923828,19.6328125 51.4335938,19.2285156 51.9726562,18.5546875 C52.6464844,17.8808594 52.9833984,17.0722656 52.9833984,16.1289063 C52.8486328,15.1855469 52.4443359,14.4443359 51.7705078,13.9052734 C51.0966797,13.2314453 50.2880859,12.8945313 49.3447266,12.8945313 C49.4794922,12.8945313 49.6142578,12.8945313 49.7490234,12.8945313 C49.7490234,12.8945313 49.7490234,12.8945313 49.7490234,12.8945313 C49.7490234,12.8945313 49.6816406,12.8945313 49.546875,12.8945313 C49.546875,12.8945313 49.4794922,12.8945313 49.3447266,12.8945313 C49.3447266,12.8945313 49.2773438,12.8945313 49.1425781,12.8945313 C49.1425781,12.8945313 49.1425781,12.8945313 49.1425781,12.8945313 C49.1425781,12.8945313 49.1425781,12.8945313 49.1425781,12.8945313 C49.1425781,12.8945313 49.1425781,12.8945313 49.1425781,12.8945313 C49.0078125,12.8945313 48.9404297,12.8945313 48.9404297,12.8945313 C48.9404297,12.8945313 48.9404297,12.8945313 48.9404297,12.8945313 C48.9404297,12.8945313 48.9404297,12.8945313 48.9404297,12.8945313 C48.9404297,12.8945313 49.0078125,12.8945313 49.1425781,12.8945313 C49.1425781,12.8945313 49.1425781,12.8945313 49.1425781,12.8945313 C49.1425781,12.8945313 49.1425781,12.8945313 49.1425781,12.8945313 C49.1425781,12.8945313 49.1425781,12.8945313 49.1425781,12.8945313 C49.2773438,12.8945313 49.3447266,12.8945313 49.3447266,12.8945313 C48.5361328,12.8945313 47.8623047,13.1640625 47.3232422,13.703125 C46.7841797,14.2421875 46.4472656,14.9160156 46.3125,15.7246094 C46.1777344,15.7246094 46.0429688,15.7246094 45.9082031,15.7246094 C45.9082031,15.7246094 45.8408203,15.7246094 45.7060547,15.7246094 C45.8408203,14.78125 46.2451172,14.0400391 46.9189453,13.5009766 C47.5927734,12.8271484 48.4013672,12.4902344 49.3447266,12.4902344 C50.4228516,12.3554688 51.3662109,12.6923828 52.1748047,13.5009766 C52.9833984,14.1748047 53.3876953,15.0507813 53.3876953,16.1289063 C53.3876953,17.2070313 53.0507812,18.1503906 52.3769531,18.9589844 C51.703125,19.7675781 50.8271484,20.171875 49.7490234,20.171875 Z M46.1103516,16.5332031 C46.1103516,16.6679688 46.1777344,16.8701172 46.3125,17.1396484 C46.3125,17.2744141 46.3798828,17.4765625 46.5146484,17.7460938 C46.3798828,17.7460938 46.2451172,17.7460938 46.1103516,17.7460938 C46.1103516,17.7460938 46.0429688,17.7460938 45.9082031,17.7460938 C45.9082031,17.6113281 45.8408203,17.4091797 45.7060547,17.1396484 C45.7060547,16.8701172 45.7060547,16.6679688 45.7060547,16.5332031 C45.7060547,16.3984375 45.7060547,16.2636719 45.7060547,16.1289062 C45.7060547,15.9941406 45.7060547,15.859375 45.7060547,15.7246094 C45.8408203,15.7246094 45.9082031,15.7246094 45.9082031,15.7246094 C46.0429688,15.7246094 46.1777344,15.7246094 46.3125,15.7246094 C46.1777344,15.859375 46.1103516,15.9941406 46.1103516,16.1289062 C46.1103516,16.2636719 46.1103516,16.3984375 46.1103516,16.5332031 Z M61.6757812,7.84082031 C61.5410156,7.84082031 61.40625,7.84082031 61.2714844,7.84082031 C61.1367188,7.84082031 61.0693359,7.7734375 61.0693359,7.63867188 C60.9345703,7.63867188 60.8671875,7.57128906 60.8671875,7.43652344 C60.7324219,7.30175781 60.6650391,7.16699219 60.6650391,7.03222656 C60.6650391,6.89746094 60.7324219,6.76269531 60.8671875,6.62792969 C60.8671875,6.62792969 60.9345703,6.56054688 61.0693359,6.42578125 C61.2041016,6.15625 61.4736328,5.88671875 61.8779297,5.6171875 C62.2822266,5.21289062 62.6865234,4.80859375 63.0908203,4.40429688 C63.2255859,4.26953125 63.2929688,4.20214844 63.2929688,4.20214844 C63.4277344,4.06738281 63.5625,4 63.6972656,4 C63.6972656,4 63.6972656,4 63.6972656,4 C63.6972656,4 63.6972656,4 63.6972656,4 C63.8320312,4 63.8994141,4 63.8994141,4 C64.0341797,4 64.1015625,4.06738281 64.1015625,4.20214844 C64.1015625,4.20214844 64.1689453,4.20214844 64.3037109,4.20214844 C64.3037109,4.33691406 64.3710938,4.40429688 64.5058594,4.40429688 C64.5058594,4.5390625 64.5058594,4.60644531 64.5058594,4.60644531 C64.640625,4.74121094 64.7080078,4.87597656 64.7080078,5.01074219 C64.7080078,6.62792969 64.7080078,8.71679688 64.7080078,11.2773438 C64.7080078,13.703125 64.7080078,16.6005859 64.7080078,19.9697266 C64.7080078,20.1044922 64.640625,20.171875 64.5058594,20.171875 C64.5058594,20.3066406 64.4384766,20.4414062 64.3037109,20.5761719 C64.3037109,20.5761719 64.2363281,20.6435547 64.1015625,20.7783203 C63.9667969,20.7783203 63.8320312,20.7783203 63.6972656,20.7783203 C63.5625,20.7783203 63.4951172,20.7783203 63.4951172,20.7783203 C63.3603516,20.6435547 63.2255859,20.5761719 63.0908203,20.5761719 C63.0908203,20.4414062 63.0234375,20.3066406 62.8886719,20.171875 C62.8886719,20.171875 62.8886719,20.1044922 62.8886719,19.9697266 C62.8886719,18.4873047 62.8886719,16.6679688 62.8886719,14.5117188 C62.8886719,12.3554688 62.8886719,9.86230469 62.8886719,7.03222656 C62.7539062,7.16699219 62.6865234,7.234375 62.6865234,7.234375 C62.5517578,7.36914062 62.4169922,7.50390625 62.2822266,7.63867188 C62.1474609,7.7734375 62.0800781,7.84082031 62.0800781,7.84082031 C61.9453125,7.84082031 61.8105469,7.84082031 61.6757812,7.84082031 Z"/></svg>