<svg xmlns="http://www.w3.org/2000/svg" width="110" height="203" viewBox="0 0 110 203"><path fill="#131313" d="M4300.23256,21.6069063 C4310.07045,21.6069063 4317.61733,23.7631563 4322.87319,28.0756563 C4328.12905,32.3881563 4331.90248,36.7680391 4334.1935,41.2153047 C4336.48451,45.5278047 4337.89955,49.5033906 4338.43862,53.1420625 C4339.11244,56.7807344 4339.44936,59.0043672 4339.44936,59.8129609 C4340.39272,70.3246797 4340.8644,79.9604219 4340.8644,88.7201875 C4340.8644,98.6928438 4340.25795,107.519992 4339.04506,115.201633 C4336.61928,129.486789 4331.90248,140.470187 4324.89467,148.151828 C4320.98647,152.464328 4316.40444,155.766086 4311.14858,158.057102 C4305.75795,160.213352 4299.82826,161.291477 4293.35951,161.291477 C4287.1603,161.291477 4281.16323,160.011203 4275.3683,157.450656 C4269.43862,154.890109 4264.58705,151.453586 4260.81362,147.141086 C4259.46596,145.523898 4258.85951,143.704563 4258.99428,141.683078 C4259.12905,139.661594 4259.93764,137.977023 4261.42006,136.629367 C4262.90248,135.281711 4264.65444,134.675266 4266.67592,134.810031 C4268.69741,134.944797 4270.38198,135.820773 4271.72963,137.437961 C4273.75112,139.728977 4276.71596,141.817844 4280.62416,143.704563 C4284.3976,145.591281 4288.64272,146.534641 4293.35951,146.534641 C4297.80678,146.534641 4301.71498,145.860813 4305.08412,144.513156 C4308.58803,143.1655 4311.62026,141.076633 4314.1808,138.246555 C4317.95424,134.06882 4320.8517,128.206516 4322.87319,120.659641 C4324.89467,113.112766 4326.04018,103.813938 4326.30971,92.7631562 C4322.40151,95.8627656 4317.88686,98.2211641 4312.76576,99.8383516 C4307.50991,101.455539 4301.84975,102.264133 4295.7853,102.264133 C4289.45131,102.264133 4283.79116,101.320773 4278.80483,99.4340547 C4273.8185,97.5473359 4269.57338,94.7846406 4266.06948,91.1459687 C4262.4308,87.3725312 4259.73549,82.7905 4257.98354,77.399875 C4256.36635,72.00925 4255.69252,66.2143281 4255.96205,60.0151094 C4256.50112,47.7514375 4260.61147,38.3178437 4268.29311,31.7143281 C4276.10951,24.9760469 4286.756,21.6069063 4300.23256,21.6069063 Z M4318.86914,106.128391 C4318.86914,106.532688 4318.80176,107.07175 4318.66699,107.745578 C4318.2627,110.710422 4317.79102,113.473117 4317.25195,116.033664 C4316.78027,118.156223 4316.20541,120.175601 4315.52737,122.0918 L4315.2443,122.867 L4315.4191,122.972381 C4316.13785,123.406625 4316.76452,123.826324 4317.0498,124.119602 L4315.24406,125.92535 C4315.07287,126.096534 4314.89651,126.272894 4314.71498,126.45443 L4313.56365,127.605761 C4313.26028,127.909122 4312.94528,128.22413 4312.61862,128.550784 L4311.24989,129.919515 C4311.01142,130.157989 4310.76777,130.401639 4310.51894,130.650466 L4308.96387,132.205539 C4309.6377,129.779758 4310.64844,126.073703 4311.99609,121.087375 C4312.08594,121.132297 4312.58231,121.386426 4313.23592,121.737886 L4313.4303,121.843 L4313.63325,121.304497 C4314.21889,119.707275 4314.7513,117.950331 4315.23047,116.033664 C4315.63477,113.877414 4316.03906,111.586398 4316.44336,109.160617 C4313.47852,110.103977 4310.37891,110.777805 4307.14453,111.182102 C4303.91016,111.721164 4300.6084,111.990695 4297.23926,111.990695 L4297.03711,111.990695 L4297.03711,109.767063 C4300.67578,109.767063 4304.17969,109.497531 4307.54883,108.958469 C4310.91797,108.554172 4314.15234,107.812961 4317.25195,106.734836 C4317.65625,106.60007 4318.19531,106.397922 4318.86914,106.128391 Z M4300.82227,35.6069063 C4291.11914,35.6069063 4283.8418,37.6283906 4278.99023,41.6713594 C4274.00391,45.7143281 4271.30859,51.8461641 4270.9043,60.0668672 C4270.9043,62.6274141 4271.17383,65.8617891 4271.71289,69.7699922 C4272.38672,73.8129609 4274.20605,77.38425 4277.1709,80.4838594 C4279.19238,82.6401094 4281.82031,84.2572969 4285.05469,85.3354219 C4288.28906,86.4135469 4292.0625,86.9526094 4296.375,86.9526094 C4301.22656,86.9526094 4305.67383,86.2787813 4309.7168,84.931125 C4313.75977,83.4487031 4316.99414,81.4272188 4319.41992,78.8666719 C4321.57617,76.5756563 4323.12598,73.8803438 4324.06934,70.7807344 C4324.9572,67.863455 4325.36756,64.5880441 4325.30041,60.9545017 L4325.28223,60.2690156 L4325.28223,60.0668672 C4325.14746,59.2582734 4324.74316,56.899875 4324.06934,52.9916719 C4323.26074,48.9487031 4321.17188,45.2426484 4317.80273,41.8735078 C4315.91602,40.1215547 4313.625,38.6391328 4310.92969,37.4262422 C4308.09961,36.2133516 4304.73047,35.6069063 4300.82227,35.6069063 Z M4297.03711,8.28854688 C4298.25,8.28854688 4299.32813,8.69284375 4300.27148,9.5014375 C4301.08008,10.3100313 4301.55176,11.3207734 4301.68652,12.5336641 C4301.68652,13.7465547 4301.28223,14.8246797 4300.47363,15.7680391 C4299.53027,16.5766328 4298.51953,17.0483125 4297.44141,17.1830781 C4296.36328,17.1830781 4295.41992,16.9135469 4294.61133,16.3744844 C4293.80273,15.7006563 4293.26367,14.9594453 4292.99414,14.1508516 C4281.94336,15.3637422 4272.7793,18.9350312 4265.50195,24.8647187 C4258.25924,30.7661908 4253.41927,38.603212 4250.98206,48.3757825 C4251.5818,48.4819861 4252.18403,48.5989175 4252.7666,48.7182344 C4251.82324,51.00925 4250.34082,54.5805391 4248.31934,59.4321016 C4248.0498,56.8715547 4247.57813,53.0307344 4246.9043,47.9096406 C4247.48922,47.9096406 4248.18546,47.9667099 4248.93683,48.0606552 L4248.92578,48.1117891 C4251.35156,37.8696016 4256.40527,29.5815156 4264.08691,23.2475313 C4271.63379,17.0483125 4281.20215,13.274875 4292.79199,11.9272188 L4292.79199,12.1293672 C4292.92676,11.9946016 4293.06152,11.9272188 4293.19629,11.9272188 L4292.79199,11.9272188 C4292.92676,10.9838594 4293.39844,10.1752656 4294.20703,9.5014375 C4295.01563,8.69284375 4295.95898,8.28854688 4297.03711,8.28854688 Z M4310.6335,1 C4311.0115,1 4311.3085,1.108 4311.5515,1.27 C4311.7675,1.432 4311.8755,1.702 4311.8755,2.053 C4311.8755,2.242 4311.8485,2.404 4311.8485,2.566 L4311.7675,3.079 L4311.6595,3.592 C4311.6055,3.781 4311.5515,3.943 4311.5245,4.105 C4311.0385,5.968 4310.7415,7.858 4310.5795,9.748 C4310.4175,11.665 4310.3635,13.555 4310.3635,15.445 C4310.3635,15.715 4310.3635,16.039 4310.4175,16.39 C4310.4175,16.741 4310.4715,17.065 4310.5255,17.362 C4310.5525,17.686 4310.5795,17.983 4310.6335,18.226 C4310.6335,18.496 4310.6605,18.658 4310.6605,18.739 C4310.6605,18.901 4310.5255,19.036 4310.3095,19.144 C4310.0395,19.252 4309.7965,19.306 4309.5805,19.306 C4309.1485,19.306 4308.8245,19.198 4308.5815,18.928 C4308.3385,18.685 4308.2305,18.361 4308.2305,17.929 C4308.2305,17.173 4308.2575,16.282 4308.3115,15.256 C4308.3385,14.23 4308.3925,13.204 4308.4465,12.178 C4308.4735,11.638 4308.5275,11.017 4308.5815,10.369 L4308.7975,8.452 C4308.8785,7.804 4308.9595,7.21 4309.0675,6.616 C4309.1215,6.022 4309.2025,5.509 4309.2835,5.077 C4308.9055,5.482 4308.6085,5.833 4308.3385,6.13 C4308.0685,6.427 4307.8525,6.643 4307.7175,6.778 L4307.1775,7.372 C4306.9615,7.615 4306.7995,7.804 4306.6645,7.966 C4306.4485,8.182 4306.2595,8.344 4306.0705,8.452 C4305.8545,8.56 4305.6385,8.614 4305.3955,8.614 C4305.0715,8.614 4304.7475,8.533 4304.4775,8.317 C4304.1535,8.128 4304.0185,7.885 4304.0185,7.561 C4304.0185,7.48 4304.0455,7.399 4304.1535,7.291 C4304.2345,7.21 4304.3425,7.129 4304.4775,7.021 L4304.7205,6.859 C4304.7745,6.805 4304.8555,6.778 4304.9365,6.724 L4305.1525,6.616 C4305.2065,6.562 4305.2875,6.508 4305.3415,6.454 C4305.9085,5.914 4306.5025,5.32 4307.1235,4.645 C4307.7175,3.997 4308.2575,3.349 4308.7705,2.755 C4308.9325,2.566 4309.1215,2.35 4309.2835,2.134 C4309.4185,1.918 4309.5805,1.729 4309.7965,1.513 C4309.8775,1.432 4310.0125,1.324 4310.1745,1.189 C4310.3365,1.081 4310.4715,1 4310.6335,1 Z M4297.03711,9.29928906 L4296.8303,9.346 L4296.82935,9.36105664 C4296.81437,9.43592643 4296.76945,9.48084831 4296.69458,9.49582227 L4296.63281,9.5014375 L4296.7743,9.359 L4296.74833,9.36529672 C4296.17076,9.51381393 4295.59319,9.76134263 4295.01563,10.1078828 C4294.47656,10.6469453 4294.13965,11.2533906 4294.00488,11.9272188 C4293.87012,12.0619844 4293.80273,12.19675 4293.80273,12.3315156 L4293.80273,12.9379609 C4293.80273,13.0727266 4293.87012,13.274875 4294.00488,13.5444063 C4294.00488,13.6791719 4294.07227,13.8139375 4294.20703,13.9487031 C4294.3418,14.6225313 4294.74609,15.1615938 4295.41992,15.5658906 C4295.95898,15.9701875 4296.63281,16.1723359 4297.44141,16.1723359 C4298.25,16.0375703 4298.99121,15.6332734 4299.66504,14.9594453 C4300.33887,14.2856172 4300.67578,13.4770234 4300.67578,12.5336641 C4300.54102,11.7250703 4300.13672,10.9838594 4299.46289,10.3100313 C4298.84521,9.69235547 4298.1143,9.35778109 4297.27014,9.30630811 L4297.03711,9.29928906 Z M4297.25094,8.87432813 L4297.03711,8.89499219 C4298.02539,8.89499219 4298.90043,9.17809359 4299.66223,9.74429639 L4299.86719,9.90573438 C4299.1125,9.15104688 4298.24042,8.80724479 4297.25094,8.87432813 Z" transform="translate(-4243.5 -19.603)"/></svg>