<svg xmlns="http://www.w3.org/2000/svg" width="110" height="243" viewBox="0 0 110 243"><path fill="#131313" d="M56.7325614,26.0039062 C66.570452,26.0039062 74.117327,28.1601563 79.3731864,32.4726562 C84.6290458,36.7851562 88.4024833,41.1650391 90.6934989,45.6123047 C92.9845145,49.9248047 94.3995536,53.9003906 94.9386161,57.5390625 C95.6124442,61.1777344 95.9493583,63.4013672 95.9493583,64.2099609 C96.8927176,74.7216797 97.3643973,84.3574219 97.3643973,93.1171875 C97.3643973,103.089844 96.757952,111.916992 95.5450614,119.598633 C93.1192801,133.883789 88.4024833,144.867187 81.3946708,152.548828 C77.4864676,156.861328 72.9044364,160.163086 67.648577,162.454102 C62.257952,164.610352 56.3282645,165.688477 49.8595145,165.688477 C43.6602958,165.688477 37.6632254,164.408203 31.8683036,161.847656 C25.9386161,159.287109 21.0870536,155.850586 17.3136161,151.538086 C15.9659598,149.920898 15.3595145,148.101562 15.4942801,146.080078 C15.6290458,144.058594 16.4376395,142.374023 17.9200614,141.026367 C19.4024833,139.678711 21.1544364,139.072266 23.1759208,139.207031 C25.1974051,139.341797 26.8819754,140.217773 28.2296317,141.834961 C30.2511161,144.125977 33.2159598,146.214844 37.1241629,148.101562 C40.8976004,149.988281 45.1427176,150.931641 49.8595145,150.931641 C54.3067801,150.931641 58.2149833,150.257813 61.5841239,148.910156 C65.0880301,147.5625 68.1202567,145.473633 70.6808036,142.643555 C74.4542411,138.46582 77.351702,132.603516 79.3731864,125.056641 C81.3946708,117.509766 82.5401786,108.210938 82.8097098,97.1601562 C78.9015067,100.259766 74.3868583,102.618164 69.2657645,104.235352 C64.0099051,105.852539 58.3497489,106.661133 52.2852958,106.661133 C45.9513114,106.661133 40.2911551,105.717773 35.304827,103.831055 C30.3184989,101.944336 26.0733817,99.1816406 22.5694754,95.5429687 C18.9308036,91.7695312 16.2354911,87.1875 14.4835379,81.796875 C12.8663504,76.40625 12.1925223,70.6113281 12.4620536,64.4121094 C13.0011161,52.1484375 17.1114676,42.7148437 24.7931083,36.1113281 C32.6095145,29.3730469 43.2559989,26.0039062 56.7325614,26.0039062 Z M75.3691406,110.525391 C75.3691406,110.929688 75.3017578,111.46875 75.1669922,112.142578 C74.7626953,115.107422 74.2910156,117.870117 73.7519531,120.430664 C73.2802734,122.553223 72.7054138,124.572601 72.0273743,126.4888 L71.7442969,127.264 L71.9191002,127.369381 C72.6378502,127.803625 73.2645204,128.223324 73.5498047,128.516602 L71.7440562,130.32235 C71.5728725,130.493534 71.3965125,130.669894 71.2149764,130.85143 L70.0636454,132.002761 C69.760284,132.306122 69.4452763,132.62113 69.1186222,132.947784 L67.7498915,134.316515 C67.5114173,134.554989 67.267767,134.798639 67.0189405,135.047466 L65.4638672,136.602539 C66.1376953,134.176758 67.1484375,130.470703 68.4960938,125.484375 C68.5859375,125.529297 69.0823141,125.783426 69.7359173,126.134886 L69.9302969,126.24 L70.1332465,125.701497 C70.7188947,124.104275 71.2513021,122.347331 71.7304688,120.430664 C72.1347656,118.274414 72.5390625,115.983398 72.9433594,113.557617 C69.9785156,114.500977 66.8789062,115.174805 63.6445312,115.579102 C60.4101562,116.118164 57.1083984,116.387695 53.7392578,116.387695 L53.5371094,116.387695 L53.5371094,114.164062 C57.1757813,114.164062 60.6796875,113.894531 64.0488281,113.355469 C67.4179688,112.951172 70.6523438,112.209961 73.7519531,111.131836 C74.15625,110.99707 74.6953125,110.794922 75.3691406,110.525391 Z M57.3222656,40.0039062 C47.6191406,40.0039062 40.3417969,42.0253906 35.4902344,46.0683594 C30.5039062,50.1113281 27.8085938,56.2431641 27.4042969,64.4638672 C27.4042969,67.0244141 27.6738281,70.2587891 28.2128906,74.1669922 C28.8867188,78.2099609 30.7060547,81.78125 33.6708984,84.8808594 C35.6923828,87.0371094 38.3203125,88.6542969 41.5546875,89.7324219 C44.7890625,90.8105469 48.5625,91.3496094 52.875,91.3496094 C57.7265625,91.3496094 62.1738281,90.6757813 66.2167969,89.328125 C70.2597656,87.8457031 73.4941406,85.8242188 75.9199219,83.2636719 C78.0761719,80.9726563 79.6259766,78.2773438 80.5693359,75.1777344 C81.4572036,72.260455 81.8675626,68.9850441 81.8004129,65.3515017 L81.7822266,64.6660156 L81.7822266,64.4638672 C81.6474609,63.6552734 81.2431641,61.296875 80.5693359,57.3886719 C79.7607422,53.3457031 77.671875,49.6396484 74.3027344,46.2705078 C72.4160156,44.5185547 70.125,43.0361328 67.4296875,41.8232422 C64.5996094,40.6103516 61.2304687,40.0039062 57.3222656,40.0039062 Z M53.5371094,12.6855469 C54.75,12.6855469 55.828125,13.0898438 56.7714844,13.8984375 C57.5800781,14.7070312 58.0517578,15.7177734 58.1865234,16.9306641 C58.1865234,18.1435547 57.7822266,19.2216797 56.9736328,20.1650391 C56.0302734,20.9736328 55.0195312,21.4453125 53.9414062,21.5800781 C52.8632813,21.5800781 51.9199219,21.3105469 51.1113281,20.7714844 C50.3027344,20.0976562 49.7636719,19.3564453 49.4941406,18.5478516 C38.4433594,19.7607422 29.2792969,23.3320312 22.0019531,29.2617187 C14.7592375,35.1631908 9.91927261,43.000212 7.4820585,52.7727825 C8.08180133,52.8789861 8.68402936,52.9959175 9.26660156,53.1152344 C8.32324219,55.40625 6.84082031,58.9775391 4.81933594,63.8291016 C4.54980469,61.2685547 4.078125,57.4277344 3.40429688,52.3066406 C3.98921678,52.3066406 4.68545969,52.3637099 5.43682831,52.4576552 L5.42578125,52.5087891 C7.8515625,42.2666016 12.9052734,33.9785156 20.5869141,27.6445312 C28.1337891,21.4453125 37.7021484,17.671875 49.2919922,16.3242188 L49.2919922,16.5263672 C49.4267578,16.3916016 49.5615234,16.3242188 49.6962891,16.3242188 L49.2919922,16.3242188 C49.4267578,15.3808594 49.8984375,14.5722656 50.7070312,13.8984375 C51.515625,13.0898438 52.4589844,12.6855469 53.5371094,12.6855469 Z M67.1335,5.397 C67.5115,5.397 67.8085,5.505 68.0515,5.667 C68.2675,5.829 68.3755,6.099 68.3755,6.45 C68.3755,6.639 68.3485,6.801 68.3485,6.963 L68.2675,7.476 L68.1595,7.989 C68.1055,8.178 68.0515,8.34 68.0245,8.502 C67.5385,10.365 67.2415,12.255 67.0795,14.145 C66.9175,16.062 66.8635,17.952 66.8635,19.842 C66.8635,20.112 66.8635,20.436 66.9175,20.787 C66.9175,21.138 66.9715,21.462 67.0255,21.759 C67.0525,22.083 67.0795,22.38 67.1335,22.623 C67.1335,22.893 67.1605,23.055 67.1605,23.136 C67.1605,23.298 67.0255,23.433 66.8095,23.541 C66.5395,23.649 66.2965,23.703 66.0805,23.703 C65.6485,23.703 65.3245,23.595 65.0815,23.325 C64.8385,23.082 64.7305,22.758 64.7305,22.326 C64.7305,21.57 64.7575,20.679 64.8115,19.653 C64.8385,18.627 64.8925,17.601 64.9465,16.575 C64.9735,16.035 65.0275,15.414 65.0815,14.766 L65.2975,12.849 C65.3785,12.201 65.4595,11.607 65.5675,11.013 C65.6215,10.419 65.7025,9.906 65.7835,9.474 C65.4055,9.879 65.1085,10.23 64.8385,10.527 C64.5685,10.824 64.3525,11.04 64.2175,11.175 L63.6775,11.769 C63.4615,12.012 63.2995,12.201 63.1645,12.363 C62.9485,12.579 62.7595,12.741 62.5705,12.849 C62.3545,12.957 62.1385,13.011 61.8955,13.011 C61.5715,13.011 61.2475,12.93 60.9775,12.714 C60.6535,12.525 60.5185,12.282 60.5185,11.958 C60.5185,11.877 60.5455,11.796 60.6535,11.688 C60.7345,11.607 60.8425,11.526 60.9775,11.418 L61.2205,11.256 C61.2745,11.202 61.3555,11.175 61.4365,11.121 L61.6525,11.013 C61.7065,10.959 61.7875,10.905 61.8415,10.851 C62.4085,10.311 63.0025,9.717 63.6235,9.042 C64.2175,8.394 64.7575,7.746 65.2705,7.152 C65.4325,6.963 65.6215,6.747 65.7835,6.531 C65.9185,6.315 66.0805,6.126 66.2965,5.91 C66.3775,5.829 66.5125,5.721 66.6745,5.586 C66.8365,5.478 66.9715,5.397 67.1335,5.397 Z M53.5371094,13.6962891 L53.3302969,13.743 L53.3293457,13.7580566 C53.3143717,13.8329264 53.2694499,13.8778483 53.1945801,13.8928223 L53.1328125,13.8984375 L53.2742969,13.756 L53.2483259,13.7622967 C52.6707589,13.9108139 52.093192,14.1583426 51.515625,14.5048828 C50.9765625,15.0439453 50.6396484,15.6503906 50.5048828,16.3242188 C50.3701172,16.4589844 50.3027344,16.59375 50.3027344,16.7285156 L50.3027344,17.3349609 C50.3027344,17.4697266 50.3701172,17.671875 50.5048828,17.9414062 C50.5048828,18.0761719 50.5722656,18.2109375 50.7070312,18.3457031 C50.8417969,19.0195312 51.2460938,19.5585938 51.9199219,19.9628906 C52.4589844,20.3671875 53.1328125,20.5693359 53.9414062,20.5693359 C54.75,20.4345703 55.4912109,20.0302734 56.1650391,19.3564453 C56.8388672,18.6826172 57.1757812,17.8740234 57.1757812,16.9306641 C57.0410156,16.1220703 56.6367188,15.3808594 55.9628906,14.7070312 C55.3452148,14.0893555 54.6142985,13.7547811 53.7701416,13.7033081 L53.5371094,13.6962891 Z M53.7509375,13.2713281 L53.5371094,13.2919922 C54.5253906,13.2919922 55.4004313,13.5750936 56.1622314,14.1412964 L56.3671875,14.3027344 C55.6125,13.5480469 54.7404167,13.2042448 53.7509375,13.2713281 Z"/></svg>