<svg xmlns="http://www.w3.org/2000/svg" width="110" height="203" viewBox="0 0 110 203"><path fill="#131313" d="M4300.23256,63.0039062 C4310.07045,63.0039062 4317.61733,65.1601562 4322.87319,69.4726562 C4328.12905,73.7851562 4331.90248,78.1650391 4334.1935,82.6123047 C4336.48451,86.9248047 4337.89955,90.9003906 4338.43862,94.5390625 C4339.11244,98.1777344 4339.44936,100.401367 4339.44936,101.209961 C4340.39272,111.72168 4340.8644,121.357422 4340.8644,130.117187 C4340.8644,140.089844 4340.25795,148.916992 4339.04506,156.598633 C4336.61928,170.883789 4331.90248,181.867187 4324.89467,189.548828 C4320.98647,193.861328 4316.40444,197.163086 4311.14858,199.454102 C4305.75795,201.610352 4299.82826,202.688477 4293.35951,202.688477 C4287.1603,202.688477 4281.16323,201.408203 4275.3683,198.847656 C4269.43862,196.287109 4264.58705,192.850586 4260.81362,188.538086 C4259.46596,186.920898 4258.85951,185.101562 4258.99428,183.080078 C4259.12905,181.058594 4259.93764,179.374023 4261.42006,178.026367 C4262.90248,176.678711 4264.65444,176.072266 4266.67592,176.207031 C4268.69741,176.341797 4270.38198,177.217773 4271.72963,178.834961 C4273.75112,181.125977 4276.71596,183.214844 4280.62416,185.101562 C4284.3976,186.988281 4288.64272,187.931641 4293.35951,187.931641 C4297.80678,187.931641 4301.71498,187.257813 4305.08412,185.910156 C4308.58803,184.5625 4311.62026,182.473633 4314.1808,179.643555 C4317.95424,175.46582 4320.8517,169.603516 4322.87319,162.056641 C4324.89467,154.509766 4326.04018,145.210938 4326.30971,134.160156 C4322.40151,137.259766 4317.88686,139.618164 4312.76576,141.235352 C4307.50991,142.852539 4301.84975,143.661133 4295.7853,143.661133 C4289.45131,143.661133 4283.79116,142.717773 4278.80483,140.831055 C4273.8185,138.944336 4269.57338,136.181641 4266.06948,132.542969 C4262.4308,128.769531 4259.73549,124.1875 4257.98354,118.796875 C4256.36635,113.40625 4255.69252,107.611328 4255.96205,101.412109 C4256.50112,89.1484375 4260.61147,79.7148437 4268.29311,73.1113281 C4276.10951,66.3730469 4286.756,63.0039062 4300.23256,63.0039062 Z M4318.86914,147.525391 C4318.86914,147.929688 4318.80176,148.46875 4318.66699,149.142578 C4318.2627,152.107422 4317.79102,154.870117 4317.25195,157.430664 C4316.78027,159.553223 4316.20541,161.572601 4315.52737,163.4888 L4315.2443,164.264 L4315.4191,164.369381 C4316.13785,164.803625 4316.76452,165.223324 4317.0498,165.516602 L4315.24406,167.32235 C4315.07287,167.493534 4314.89651,167.669894 4314.71498,167.85143 L4313.56365,169.002761 C4313.26028,169.306122 4312.94528,169.62113 4312.61862,169.947784 L4311.24989,171.316515 C4311.01142,171.554989 4310.76777,171.798639 4310.51894,172.047466 L4308.96387,173.602539 C4309.6377,171.176758 4310.64844,167.470703 4311.99609,162.484375 C4312.08594,162.529297 4312.58231,162.783426 4313.23592,163.134886 L4313.4303,163.24 L4313.63325,162.701497 C4314.21889,161.104275 4314.7513,159.347331 4315.23047,157.430664 C4315.63477,155.274414 4316.03906,152.983398 4316.44336,150.557617 C4313.47852,151.500977 4310.37891,152.174805 4307.14453,152.579102 C4303.91016,153.118164 4300.6084,153.387695 4297.23926,153.387695 L4297.03711,153.387695 L4297.03711,151.164062 C4300.67578,151.164062 4304.17969,150.894531 4307.54883,150.355469 C4310.91797,149.951172 4314.15234,149.209961 4317.25195,148.131836 C4317.65625,147.99707 4318.19531,147.794922 4318.86914,147.525391 Z M4300.82227,77.0039062 C4291.11914,77.0039062 4283.8418,79.0253906 4278.99023,83.0683594 C4274.00391,87.1113281 4271.30859,93.2431641 4270.9043,101.463867 C4270.9043,104.024414 4271.17383,107.258789 4271.71289,111.166992 C4272.38672,115.209961 4274.20605,118.78125 4277.1709,121.880859 C4279.19238,124.037109 4281.82031,125.654297 4285.05469,126.732422 C4288.28906,127.810547 4292.0625,128.349609 4296.375,128.349609 C4301.22656,128.349609 4305.67383,127.675781 4309.7168,126.328125 C4313.75977,124.845703 4316.99414,122.824219 4319.41992,120.263672 C4321.57617,117.972656 4323.12598,115.277344 4324.06934,112.177734 C4324.9572,109.260455 4325.36756,105.985044 4325.30041,102.351502 L4325.28223,101.666016 L4325.28223,101.463867 C4325.14746,100.655273 4324.74316,98.296875 4324.06934,94.3886719 C4323.26074,90.3457031 4321.17188,86.6396484 4317.80273,83.2705078 C4315.91602,81.5185547 4313.625,80.0361328 4310.92969,78.8232422 C4308.09961,77.6103516 4304.73047,77.0039062 4300.82227,77.0039062 Z M4297.03711,49.6855469 C4298.25,49.6855469 4299.32813,50.0898438 4300.27148,50.8984375 C4301.08008,51.7070312 4301.55176,52.7177734 4301.68652,53.9306641 C4301.68652,55.1435547 4301.28223,56.2216797 4300.47363,57.1650391 C4299.53027,57.9736328 4298.51953,58.4453125 4297.44141,58.5800781 C4296.36328,58.5800781 4295.41992,58.3105469 4294.61133,57.7714844 C4293.80273,57.0976562 4293.26367,56.3564453 4292.99414,55.5478516 C4281.94336,56.7607422 4272.7793,60.3320312 4265.50195,66.2617187 C4258.25924,72.1631908 4253.41927,80.000212 4250.98206,89.7727825 C4251.5818,89.8789861 4252.18403,89.9959175 4252.7666,90.1152344 C4251.82324,92.40625 4250.34082,95.9775391 4248.31934,100.829102 C4248.0498,98.2685547 4247.57813,94.4277344 4246.9043,89.3066406 C4247.48922,89.3066406 4248.18546,89.3637099 4248.93683,89.4576552 L4248.92578,89.5087891 C4251.35156,79.2666016 4256.40527,70.9785156 4264.08691,64.6445312 C4271.63379,58.4453125 4281.20215,54.671875 4292.79199,53.3242187 L4292.79199,53.5263672 C4292.92676,53.3916016 4293.06152,53.3242187 4293.19629,53.3242187 L4292.79199,53.3242188 C4292.92676,52.3808594 4293.39844,51.5722656 4294.20703,50.8984375 C4295.01563,50.0898438 4295.95898,49.6855469 4297.03711,49.6855469 Z M4310.6335,42.397 C4311.0115,42.397 4311.3085,42.505 4311.5515,42.667 C4311.7675,42.829 4311.8755,43.099 4311.8755,43.45 C4311.8755,43.639 4311.8485,43.801 4311.8485,43.963 L4311.7675,44.476 L4311.6595,44.989 C4311.6055,45.178 4311.5515,45.34 4311.5245,45.502 C4311.0385,47.365 4310.7415,49.255 4310.5795,51.145 C4310.4175,53.062 4310.3635,54.952 4310.3635,56.842 C4310.3635,57.112 4310.3635,57.436 4310.4175,57.787 C4310.4175,58.138 4310.4715,58.462 4310.5255,58.759 C4310.5525,59.083 4310.5795,59.38 4310.6335,59.623 C4310.6335,59.893 4310.6605,60.055 4310.6605,60.136 C4310.6605,60.298 4310.5255,60.433 4310.3095,60.541 C4310.0395,60.649 4309.7965,60.703 4309.5805,60.703 C4309.1485,60.703 4308.8245,60.595 4308.5815,60.325 C4308.3385,60.082 4308.2305,59.758 4308.2305,59.326 C4308.2305,58.57 4308.2575,57.679 4308.3115,56.653 C4308.3385,55.627 4308.3925,54.601 4308.4465,53.575 C4308.4735,53.035 4308.5275,52.414 4308.5815,51.766 L4308.7975,49.849 C4308.8785,49.201 4308.9595,48.607 4309.0675,48.013 C4309.1215,47.419 4309.2025,46.906 4309.2835,46.474 C4308.9055,46.879 4308.6085,47.23 4308.3385,47.527 C4308.0685,47.824 4307.8525,48.04 4307.7175,48.175 L4307.1775,48.769 C4306.9615,49.012 4306.7995,49.201 4306.6645,49.363 C4306.4485,49.579 4306.2595,49.741 4306.0705,49.849 C4305.8545,49.957 4305.6385,50.011 4305.3955,50.011 C4305.0715,50.011 4304.7475,49.93 4304.4775,49.714 C4304.1535,49.525 4304.0185,49.282 4304.0185,48.958 C4304.0185,48.877 4304.0455,48.796 4304.1535,48.688 C4304.2345,48.607 4304.3425,48.526 4304.4775,48.418 L4304.7205,48.256 C4304.7745,48.202 4304.8555,48.175 4304.9365,48.121 L4305.1525,48.013 C4305.2065,47.959 4305.2875,47.905 4305.3415,47.851 C4305.9085,47.311 4306.5025,46.717 4307.1235,46.042 C4307.7175,45.394 4308.2575,44.746 4308.7705,44.152 C4308.9325,43.963 4309.1215,43.747 4309.2835,43.531 C4309.4185,43.315 4309.5805,43.126 4309.7965,42.91 C4309.8775,42.829 4310.0125,42.721 4310.1745,42.586 C4310.3365,42.478 4310.4715,42.397 4310.6335,42.397 Z M4297.03711,50.6962891 L4296.8303,50.743 L4296.82935,50.7580566 C4296.81437,50.8329264 4296.76945,50.8778483 4296.69458,50.8928223 L4296.63281,50.8984375 L4296.7743,50.756 L4296.74833,50.7622967 C4296.17076,50.9108139 4295.59319,51.1583426 4295.01563,51.5048828 C4294.47656,52.0439453 4294.13965,52.6503906 4294.00488,53.3242188 C4293.87012,53.4589844 4293.80273,53.59375 4293.80273,53.7285156 L4293.80273,54.3349609 C4293.80273,54.4697266 4293.87012,54.671875 4294.00488,54.9414062 C4294.00488,55.0761719 4294.07227,55.2109375 4294.20703,55.3457031 C4294.3418,56.0195312 4294.74609,56.5585938 4295.41992,56.9628906 C4295.95898,57.3671875 4296.63281,57.5693359 4297.44141,57.5693359 C4298.25,57.4345703 4298.99121,57.0302734 4299.66504,56.3564453 C4300.33887,55.6826172 4300.67578,54.8740234 4300.67578,53.9306641 C4300.54102,53.1220703 4300.13672,52.3808594 4299.46289,51.7070312 C4298.84521,51.0893555 4298.1143,50.7547811 4297.27014,50.7033081 L4297.03711,50.6962891 Z M4297.25094,50.2713281 L4297.03711,50.2919922 C4298.02539,50.2919922 4298.90043,50.5750936 4299.66223,51.1412964 L4299.86719,51.3027344 C4299.1125,50.5480469 4298.24042,50.2042448 4297.25094,50.2713281 Z" transform="translate(-4243.5)"/></svg>