<svg xmlns="http://www.w3.org/2000/svg" width="110" height="243" viewBox="0 0 110 243"><path fill="#131313" d="M17.3136161,151.538086 C15.9659598,149.920898 15.3595145,148.101562 15.4942801,146.080078 C15.6290458,144.058594 16.4376395,142.374023 17.9200614,141.026367 C19.4024833,139.678711 21.1544364,139.072266 23.1759208,139.207031 C25.1974051,139.341797 26.8819754,140.217773 28.2296317,141.834961 C30.2511161,144.125977 33.2159598,146.214844 37.1241629,148.101562 C40.8976004,149.988281 45.1427176,150.931641 49.8595145,150.931641 C54.3067801,150.931641 58.2149833,150.257812 61.5841239,148.910156 C65.0880301,147.5625 68.1202567,145.473633 70.6808036,142.643555 C74.4542411,138.46582 77.351702,132.603516 79.3731864,125.056641 C81.3946708,117.509766 82.5401786,108.210938 82.8097098,97.1601562 C78.9015067,100.259766 74.3868583,102.618164 69.2657645,104.235352 C64.0099051,105.852539 58.3497489,106.661133 52.2852958,106.661133 C45.9513114,106.661133 40.2911551,105.717773 35.304827,103.831055 C30.3184989,101.944336 26.0733817,99.1816406 22.5694754,95.5429688 C18.9308036,91.7695312 16.2354911,87.1875 14.4835379,81.796875 C12.8663504,76.40625 12.1925223,70.6113281 12.4620536,64.4121094 C13.0011161,52.1484375 17.1114676,42.7148438 24.7931083,36.1113281 C32.6095145,29.3730469 43.2559989,26.0039062 56.7325614,26.0039062 C66.570452,26.0039062 74.117327,28.1601562 79.3731864,32.4726562 C84.6290458,36.7851562 88.4024833,41.1650391 90.6934989,45.6123047 C92.9845145,49.9248047 94.3995536,53.9003906 94.9386161,57.5390625 C95.6124442,61.1777344 95.9493583,63.4013672 95.9493583,64.2099609 C96.8927176,74.7216797 97.3643973,84.3574219 97.3643973,93.1171875 C97.3643973,103.089844 96.757952,111.916992 95.5450614,119.598633 C93.1192801,133.883789 88.4024833,144.867188 81.3946708,152.548828 C77.4864676,156.861328 72.9044364,160.163086 67.648577,162.454102 C62.257952,164.610352 56.3282645,165.688477 49.8595145,165.688477 C43.6602958,165.688477 37.6632254,164.408203 31.8683036,161.847656 C25.9386161,159.287109 21.0870536,155.850586 17.3136161,151.538086 Z M27.4042969,64.4638672 C27.4042969,67.0244141 27.6738281,70.2587891 28.2128906,74.1669922 C28.8867188,78.2099609 30.7060547,81.78125 33.6708984,84.8808594 C35.6923828,87.0371094 38.3203125,88.6542969 41.5546875,89.7324219 C44.7890625,90.8105469 48.5625,91.3496094 52.875,91.3496094 C57.7265625,91.3496094 62.1738281,90.6757812 66.2167969,89.328125 C70.2597656,87.8457031 73.4941406,85.8242188 75.9199219,83.2636719 C78.0761719,80.9726562 79.6259766,78.2773438 80.5693359,75.1777344 C81.5126953,72.078125 81.9169922,68.5742188 81.7822266,64.6660156 C81.7822266,64.6660156 81.7822266,64.6660156 81.7822266,64.6660156 C81.7822266,64.53125 81.7822266,64.4638672 81.7822266,64.4638672 C81.7822266,64.4638672 81.7822266,64.4638672 81.7822266,64.4638672 C81.7822266,64.4638672 81.7822266,64.4638672 81.7822266,64.4638672 C81.6474609,63.6552734 81.2431641,61.296875 80.5693359,57.3886719 C79.7607422,53.3457031 77.671875,49.6396484 74.3027344,46.2705078 C72.4160156,44.5185547 70.125,43.0361328 67.4296875,41.8232422 C64.5996094,40.6103516 61.2304688,40.0039062 57.3222656,40.0039062 C47.6191406,40.0039062 40.3417969,42.0253906 35.4902344,46.0683594 C30.5039062,50.1113281 27.8085938,56.2431641 27.4042969,64.4638672 Z M49.4941406,18.5478516 C38.4433594,19.7607422 29.2792969,23.3320312 22.0019531,29.2617188 C14.7246094,35.1914062 9.87304688,43.0751953 7.44726562,52.9130859 C7.04296875,52.7783203 6.36914062,52.6435547 5.42578125,52.5087891 C7.8515625,42.2666016 12.9052734,33.9785156 20.5869141,27.6445312 C28.1337891,21.4453125 37.7021484,17.671875 49.2919922,16.3242188 C49.2919922,16.4589844 49.2919922,16.6611328 49.2919922,16.9306641 C49.2919922,17.0654297 49.2919922,17.2001953 49.2919922,17.3349609 C49.2919922,17.4697266 49.2919922,17.671875 49.2919922,17.9414062 C49.4267578,18.0761719 49.4941406,18.2783203 49.4941406,18.5478516 Z M7.44726562,52.9130859 C7.8515625,52.9130859 8.45800781,52.9804688 9.26660156,53.1152344 C8.32324219,55.40625 6.84082031,58.9775391 4.81933594,63.8291016 C4.54980469,61.2685547 4.078125,57.4277344 3.40429688,52.3066406 C3.80859375,52.3066406 4.48242188,52.3740234 5.42578125,52.5087891 C5.42578125,52.9130859 5.35839844,53.25 5.22363281,53.5195312 C5.08886719,53.7890625 5.02148438,54.1259766 5.02148438,54.5302734 C5.42578125,54.5302734 6.09960938,54.6650391 7.04296875,54.9345703 C7.04296875,54.5302734 7.11035156,54.1933594 7.24511719,53.9238281 C7.37988281,53.5195312 7.44726562,53.1826172 7.44726562,52.9130859 Z M7.04296875,54.9345703 C6.63867188,54.7998047 5.96484375,54.6650391 5.02148438,54.5302734 C5.02148438,54.1259766 5.08886719,53.7890625 5.22363281,53.5195312 C5.35839844,53.25 5.42578125,52.9130859 5.42578125,52.5087891 C5.96484375,52.6435547 6.63867188,52.7783203 7.44726562,52.9130859 C7.44726562,53.1826172 7.37988281,53.5195312 7.24511719,53.9238281 C7.11035156,54.1933594 7.04296875,54.5302734 7.04296875,54.9345703 Z M53.9414062,21.5800781 C53.9414062,21.5800781 54.0087891,21.5800781 54.1435547,21.5800781 C54.2783203,21.5800781 54.3457031,21.5800781 54.3457031,21.5800781 C54.3457031,21.5800781 54.2783203,21.5800781 54.1435547,21.5800781 C54.1435547,21.5800781 54.0761719,21.5800781 53.9414062,21.5800781 Z M53.5371094,13.2919922 C52.59375,13.2919922 51.7851562,13.5615234 51.1113281,14.1005859 C50.4375,14.7744141 50.0332031,15.515625 49.8984375,16.3242188 C49.7636719,16.3242188 49.6962891,16.3242188 49.6962891,16.3242188 C49.5615234,16.3242188 49.4267578,16.3242188 49.2919922,16.3242188 C49.4267578,15.3808594 49.8984375,14.5722656 50.7070312,13.8984375 C51.515625,13.0898438 52.4589844,12.6855469 53.5371094,12.6855469 C54.75,12.6855469 55.828125,13.0898438 56.7714844,13.8984375 C57.5800781,14.7070312 58.0517578,15.7177734 58.1865234,16.9306641 C58.1865234,18.1435547 57.7822266,19.2216797 56.9736328,20.1650391 C56.0302734,20.9736328 55.0195312,21.4453125 53.9414062,21.5800781 C52.8632812,21.5800781 51.9199219,21.3105469 51.1113281,20.7714844 C50.3027344,20.0976562 49.7636719,19.3564453 49.4941406,18.5478516 C49.6289062,18.4130859 49.6962891,18.3457031 49.6962891,18.3457031 C49.8310547,18.3457031 49.9658203,18.3457031 50.1005859,18.3457031 C50.3701172,19.1542969 50.8417969,19.828125 51.515625,20.3671875 C52.1894531,20.7714844 52.9980469,20.9736328 53.9414062,20.9736328 C54.8847656,20.9736328 55.7607422,20.5693359 56.5693359,19.7607422 C57.2431641,18.9521484 57.5800781,18.0087891 57.5800781,16.9306641 C57.5800781,15.8525391 57.1757812,14.9765625 56.3671875,14.3027344 C55.5585938,13.4941406 54.6152344,13.1572266 53.5371094,13.2919922 Z M53.9414062,21.5800781 C53.8066406,21.5800781 53.671875,21.5800781 53.5371094,21.5800781 C53.4023438,21.5800781 53.3349609,21.5800781 53.3349609,21.5800781 C53.3349609,21.5800781 53.4023438,21.5800781 53.5371094,21.5800781 C53.671875,21.5800781 53.8066406,21.5800781 53.9414062,21.5800781 Z M49.4941406,18.5478516 C49.4941406,18.2783203 49.4267578,18.0761719 49.2919922,17.9414062 C49.2919922,17.671875 49.2919922,17.4697266 49.2919922,17.3349609 C49.2919922,17.2001953 49.2919922,17.0654297 49.2919922,16.9306641 C49.2919922,16.7958984 49.2919922,16.6611328 49.2919922,16.5263672 C49.4267578,16.3916016 49.5615234,16.3242188 49.6962891,16.3242188 C49.6962891,16.3242188 49.7636719,16.3242188 49.8984375,16.3242188 C49.8984375,16.4589844 49.8984375,16.59375 49.8984375,16.7285156 C49.8984375,16.9980469 49.8984375,17.2001953 49.8984375,17.3349609 C49.8984375,17.4697266 49.8984375,17.671875 49.8984375,17.9414062 C49.8984375,18.0761719 49.9658203,18.2109375 50.1005859,18.3457031 C49.9658203,18.4804688 49.8984375,18.5478516 49.8984375,18.5478516 C49.7636719,18.5478516 49.6289062,18.5478516 49.4941406,18.5478516 Z M53.5371094,13.6962891 C53.5371094,13.6962891 53.4697266,13.6962891 53.3349609,13.6962891 C53.3349609,13.6962891 53.2675781,13.6962891 53.1328125,13.6962891 C53.2675781,13.6962891 53.3349609,13.6962891 53.3349609,13.6962891 C53.4697266,13.6962891 53.5371094,13.6962891 53.5371094,13.6962891 Z M53.9414062,13.6962891 C53.9414062,13.6962891 53.9414062,13.6962891 53.9414062,13.6962891 C54.0761719,13.6962891 54.1435547,13.6962891 54.1435547,13.6962891 C54.1435547,13.6962891 54.0761719,13.6962891 53.9414062,13.6962891 C53.9414062,13.6962891 53.9414062,13.6962891 53.9414062,13.6962891 Z M53.9414062,20.9736328 C52.9980469,20.9736328 52.1894531,20.7714844 51.515625,20.3671875 C50.8417969,19.828125 50.3701172,19.2216797 50.1005859,18.5478516 C50.2353516,18.4130859 50.3027344,18.3457031 50.3027344,18.3457031 C50.4375,18.3457031 50.5722656,18.3457031 50.7070312,18.3457031 C50.8417969,19.0195312 51.2460938,19.5585938 51.9199219,19.9628906 C52.4589844,20.3671875 53.1328125,20.5693359 53.9414062,20.5693359 C54.75,20.4345703 55.4912109,20.0302734 56.1650391,19.3564453 C56.8388672,18.6826172 57.1757812,17.8740234 57.1757812,16.9306641 C57.0410156,16.1220703 56.6367188,15.3808594 55.9628906,14.7070312 C55.2890625,14.0332031 54.4804688,13.6962891 53.5371094,13.6962891 C53.671875,13.6962891 53.7392578,13.6962891 53.7392578,13.6962891 C53.8740234,13.6962891 53.9414062,13.6962891 53.9414062,13.6962891 C53.9414062,13.6962891 53.9414062,13.6962891 53.9414062,13.6962891 C53.9414062,13.6962891 54.0087891,13.6962891 54.1435547,13.6962891 C54.0087891,13.6962891 53.9414062,13.6962891 53.9414062,13.6962891 C53.9414062,13.6962891 53.9414062,13.6962891 53.9414062,13.6962891 C53.9414062,13.6962891 53.8740234,13.6962891 53.7392578,13.6962891 C53.7392578,13.6962891 53.671875,13.6962891 53.5371094,13.6962891 C53.5371094,13.6962891 53.4697266,13.6962891 53.3349609,13.6962891 C53.3349609,13.8310547 53.2675781,13.8984375 53.1328125,13.8984375 C53.1328125,13.8984375 53.1328125,13.8984375 53.1328125,13.8984375 C53.1328125,13.8984375 53.1328125,13.8984375 53.1328125,13.8984375 C53.1328125,13.8984375 53.1328125,13.8984375 53.1328125,13.8984375 C53.1328125,13.8984375 53.1328125,13.8984375 53.1328125,13.8984375 C53.2675781,13.7636719 53.3349609,13.6962891 53.3349609,13.6962891 C53.4697266,13.6962891 53.5371094,13.6962891 53.5371094,13.6962891 C52.8632812,13.8310547 52.1894531,14.1005859 51.515625,14.5048828 C50.9765625,15.0439453 50.6396484,15.6503906 50.5048828,16.3242188 C50.3701172,16.3242188 50.2353516,16.3242188 50.1005859,16.3242188 C50.1005859,16.3242188 50.0332031,16.3242188 49.8984375,16.3242188 C50.0332031,15.515625 50.4375,14.7744141 51.1113281,14.1005859 C51.7851562,13.5615234 52.59375,13.2919922 53.5371094,13.2919922 C54.6152344,13.2919922 55.5585938,13.6289062 56.3671875,14.3027344 C57.1757812,14.9765625 57.5800781,15.8525391 57.5800781,16.9306641 C57.5800781,18.0087891 57.2431641,18.9521484 56.5693359,19.7607422 C55.7607422,20.5693359 54.8847656,20.9736328 53.9414062,20.9736328 Z M50.3027344,17.3349609 C50.3027344,17.4697266 50.3701172,17.671875 50.5048828,17.9414062 C50.5048828,18.0761719 50.5722656,18.2109375 50.7070312,18.3457031 C50.5722656,18.3457031 50.4375,18.3457031 50.3027344,18.3457031 C50.1679688,18.3457031 50.1005859,18.3457031 50.1005859,18.3457031 C49.9658203,18.2109375 49.8984375,18.0761719 49.8984375,17.9414062 C49.8984375,17.671875 49.8984375,17.4697266 49.8984375,17.3349609 C49.8984375,17.0654297 49.8984375,16.8632812 49.8984375,16.7285156 C49.8984375,16.59375 49.8984375,16.4589844 49.8984375,16.3242188 C50.0332031,16.3242188 50.1005859,16.3242188 50.1005859,16.3242188 C50.2353516,16.3242188 50.3701172,16.3242188 50.5048828,16.3242188 C50.3701172,16.4589844 50.3027344,16.59375 50.3027344,16.7285156 C50.3027344,16.8632812 50.3027344,17.0654297 50.3027344,17.3349609 Z M65.4638672,8.84472656 C65.3291016,8.84472656 65.1943359,8.84472656 65.0595703,8.84472656 C64.9248047,8.84472656 64.8574219,8.77734375 64.8574219,8.64257812 C64.7226562,8.5078125 64.6552734,8.44042969 64.6552734,8.44042969 C64.5205078,8.30566406 64.453125,8.17089844 64.453125,8.03613281 C64.453125,7.90136719 64.5205078,7.76660156 64.6552734,7.63183594 C64.6552734,7.63183594 64.7226562,7.56445312 64.8574219,7.4296875 C65.1269531,7.16015625 65.3964844,6.82324219 65.6660156,6.41894531 C66.0703125,6.14941406 66.4746094,5.74511719 66.8789062,5.20605469 C67.0136719,5.20605469 67.0810547,5.20605469 67.0810547,5.20605469 C67.2158203,5.07128906 67.2832031,5.00390625 67.2832031,5.00390625 C67.4179688,5.00390625 67.4853516,5.00390625 67.4853516,5.00390625 C67.4853516,5.00390625 67.4853516,5.00390625 67.4853516,5.00390625 C67.6201172,5.00390625 67.6875,5.00390625 67.6875,5.00390625 C67.8222656,5.00390625 67.8896484,5.07128906 67.8896484,5.20605469 C67.8896484,5.20605469 67.9570312,5.20605469 68.0917969,5.20605469 C68.0917969,5.34082031 68.1591797,5.40820312 68.2939453,5.40820312 C68.2939453,5.54296875 68.2939453,5.61035156 68.2939453,5.61035156 C68.2939453,5.74511719 68.2939453,5.8125 68.2939453,5.8125 C68.2939453,7.56445312 68.2939453,9.65332031 68.2939453,12.0791016 C68.2939453,14.6396484 68.2939453,17.6044922 68.2939453,20.9736328 C68.2939453,20.9736328 68.2939453,21.0410156 68.2939453,21.1757812 C68.2939453,21.3105469 68.2265625,21.4453125 68.0917969,21.5800781 C68.0917969,21.5800781 68.0244141,21.6474609 67.8896484,21.7822266 C67.7548828,21.7822266 67.6201172,21.7822266 67.4853516,21.7822266 C67.3505859,21.7822266 67.2832031,21.7822266 67.2832031,21.7822266 C67.1484375,21.6474609 67.0136719,21.5800781 66.8789062,21.5800781 C66.8789062,21.4453125 66.8115234,21.3105469 66.6767578,21.1757812 C66.6767578,21.1757812 66.6767578,21.1083984 66.6767578,20.9736328 C66.6767578,19.4912109 66.6767578,17.671875 66.6767578,15.515625 C66.6767578,13.359375 66.6767578,10.8662109 66.6767578,8.03613281 C66.5419922,8.03613281 66.4746094,8.10351562 66.4746094,8.23828125 C66.3398438,8.37304688 66.2050781,8.5078125 66.0703125,8.64257812 C65.9355469,8.77734375 65.8007812,8.84472656 65.6660156,8.84472656 C65.6660156,8.84472656 65.5986328,8.84472656 65.4638672,8.84472656 Z M53.7392578,116.387695 C53.7392578,116.387695 53.671875,116.387695 53.5371094,116.387695 C53.5371094,115.848633 53.5371094,115.107422 53.5371094,114.164062 C57.1757812,114.164062 60.6796875,113.894531 64.0488281,113.355469 C67.4179688,112.951172 70.6523438,112.209961 73.7519531,111.131836 C74.15625,110.99707 74.6953125,110.794922 75.3691406,110.525391 C75.3691406,110.929688 75.3017578,111.46875 75.1669922,112.142578 C74.7626953,115.107422 74.2910156,117.870117 73.7519531,120.430664 C73.2128906,122.856445 72.5390625,125.147461 71.7304688,127.303711 C71.3261719,127.03418 70.7197266,126.697266 69.9111328,126.292969 C70.5849609,124.541016 71.1914062,122.586914 71.7304688,120.430664 C72.1347656,118.274414 72.5390625,115.983398 72.9433594,113.557617 C69.9785156,114.500977 66.8789062,115.174805 63.6445312,115.579102 C60.4101562,116.118164 57.1083984,116.387695 53.7392578,116.387695 Z M69.1025391,128.314453 C69.6416016,128.583984 70.3154297,128.853516 71.1240234,129.123047 C71.2587891,128.853516 71.3935547,128.583984 71.5283203,128.314453 C71.5283203,127.910156 71.5957031,127.573242 71.7304688,127.303711 C72.1347656,127.573242 72.7412109,127.977539 73.5498047,128.516602 C71.7978516,130.268555 69.1025391,132.963867 65.4638672,136.602539 C66.1376953,134.176758 67.1484375,130.470703 68.4960938,125.484375 C68.765625,125.619141 69.2373047,125.888672 69.9111328,126.292969 C69.7763672,126.697266 69.6416016,127.03418 69.5068359,127.303711 C69.3720703,127.708008 69.2373047,128.044922 69.1025391,128.314453 Z M69.1025391,128.314453 C69.2373047,128.044922 69.3720703,127.708008 69.5068359,127.303711 C69.6416016,127.03418 69.7763672,126.697266 69.9111328,126.292969 C70.3154297,126.5625 70.921875,126.899414 71.7304688,127.303711 C71.5957031,127.573242 71.4609375,127.910156 71.3261719,128.314453 C71.3261719,128.583984 71.2587891,128.853516 71.1240234,129.123047 C70.7197266,128.988281 70.3828125,128.853516 70.1132812,128.71875 C69.84375,128.583984 69.5068359,128.449219 69.1025391,128.314453 Z"/></svg>