<svg xmlns="http://www.w3.org/2000/svg" width="120" height="243" viewBox="0 0 120 243"><path fill="#131313" d="M108.994141,156.493164 C109.26888,157.317383 109.40625,158.072917 109.40625,158.759766 C109.40625,159.996094 109.13151,161.095052 108.582031,162.056641 C107.620443,163.979818 106.109375,165.284831 104.048828,165.97168 C103.774089,165.97168 103.430664,166.040365 103.018555,166.177734 C102.606445,166.177734 102.194336,166.177734 101.782227,166.177734 C100.271159,166.177734 98.828776,165.765625 97.4550781,164.941406 C96.0813802,163.979818 95.1884766,162.674805 94.7763672,161.026367 C90.3805339,148.113607 83.9241536,128.607096 75.4072266,102.506836 C68.538737,102.506836 58.2360026,102.506836 44.4990234,102.506836 C40.1031901,115.556966 33.6468099,135.063477 25.1298828,161.026367 C24.5804036,163.086914 23.3440755,164.529297 21.4208984,165.353516 C20.3219401,165.902995 19.2229818,166.177734 18.1240234,166.177734 C17.2998047,166.177734 16.4755859,166.109049 15.6513672,165.97168 C13.7281901,165.284831 12.2858073,163.979818 11.3242188,162.056641 C10.7747396,161.095052 10.5,159.996094 10.5,158.759766 C10.5,158.072917 10.6373698,157.317383 10.9121094,156.493164 C15.4453125,142.618815 22.3138021,121.807292 31.5175781,94.0585938 C31.5175781,93.6464844 31.586263,93.234375 31.7236328,92.8222656 C31.8610026,92.2727865 32.0670573,91.8606771 32.3417969,91.5859375 C36.875,77.7115885 43.6748047,56.8313802 52.7412109,28.9453125 C53.2906901,27.4342448 54.2522786,26.1979167 55.6259766,25.2363281 C56.8623047,24.4121094 58.3046875,24 59.953125,24 C61.6015625,24 63.0439453,24.4121094 64.2802734,25.2363281 C65.6539714,26.1979167 66.546875,27.4342448 66.9589844,28.9453125 C71.6295573,42.9570312 78.4980469,63.8372396 87.5644531,91.5859375 C87.8391927,91.8606771 88.0452474,92.2727865 88.1826172,92.8222656 C88.319987,93.234375 88.3886719,93.6464844 88.3886719,94.0585938 C91.8229167,104.498698 95.2571615,114.870117 98.6914062,125.172852 C102.125651,135.612956 105.559896,146.05306 108.994141,156.493164 Z M49.4443359,87.6708984 C54.1149089,87.6708984 61.1894531,87.6708984 70.6679688,87.6708984 C68.1953125,80.3902995 64.6236979,69.6067708 59.953125,55.3203125 C58.1673177,60.6777344 56.3815104,66.0351562 54.5957031,71.3925781 C52.9472656,76.75 51.2301432,82.1761068 49.4443359,87.6708984 Z M77.4677734,34.5087891 C77.6051432,34.5087891 77.8111979,34.5087891 78.0859375,34.5087891 C78.2233073,34.5087891 78.3606771,34.4401042 78.4980469,34.3027344 C78.7727865,34.3027344 78.9788411,34.2340495 79.1162109,34.0966797 C79.2535807,34.0966797 79.3909505,34.0279948 79.5283203,33.890625 C82.6878255,43.3691406 87.3583984,57.5869141 93.5400391,76.5439453 C92.9905599,76.6813151 92.3037109,76.8873698 91.4794922,77.1621094 C89.1442057,70.0188802 86.8089193,62.9443359 84.4736328,55.9384766 C82.1383464,48.7952474 79.8030599,41.6520182 77.4677734,34.5087891 Z M72.7285156,30.7998047 C72.7285156,30.9371745 72.7285156,31.0058594 72.7285156,31.0058594 C72.7285156,31.1432292 72.7972005,31.3492839 72.9345703,31.6240234 C72.7972005,31.4866536 72.7285156,31.3492839 72.7285156,31.2119141 C72.7285156,31.0745443 72.7285156,30.9371745 72.7285156,30.7998047 Z M77.4677734,34.5087891 C76.5061849,34.6461589 75.5445964,34.4401042 74.5830078,33.890625 C73.7587891,33.3411458 73.2093099,32.585612 72.9345703,31.6240234 C72.5224609,30.3876953 72.5911458,29.2200521 73.140625,28.1210938 C73.6901042,27.0221354 74.5830078,26.2666016 75.8193359,25.8544922 C76.9182943,25.4423828 78.0172526,25.5110677 79.1162109,26.0605469 C80.2151693,26.610026 80.9707031,27.5029297 81.3828125,28.7392578 C81.7949219,29.7008464 81.7949219,30.6624349 81.3828125,31.6240234 C80.9707031,32.585612 80.3525391,33.3411458 79.5283203,33.890625 C79.5283203,33.7532552 79.4596354,33.6158854 79.3222656,33.4785156 C80.0091146,32.9290365 80.5585938,32.2421875 80.9707031,31.4179688 C81.2454427,30.59375 81.2454427,29.7695312 80.9707031,28.9453125 C80.5585938,27.8463542 79.8717448,27.0908203 78.9101562,26.6787109 C77.9485677,26.1292318 76.9869792,25.991862 76.0253906,26.2666016 C74.9264323,26.6787109 74.1022135,27.3655599 73.5527344,28.3271484 C73.140625,29.288737 73.0719401,30.3190104 73.3466797,31.4179688 C73.6214193,32.2421875 74.1708984,32.9290365 74.9951172,33.4785156 C75.6819661,33.890625 76.4375,34.0966797 77.2617188,34.0966797 C77.3990885,34.0966797 77.4677734,34.1653646 77.4677734,34.3027344 C77.4677734,34.4401042 77.4677734,34.5087891 77.4677734,34.5087891 Z M78.2919922,33.890625 C78.5667318,33.890625 78.7727865,33.8219401 78.9101562,33.6845703 C79.047526,33.5472005 79.1848958,33.4785156 79.3222656,33.4785156 C79.3222656,33.6158854 79.3909505,33.7532552 79.5283203,33.890625 C79.3909505,34.0279948 79.2535807,34.1653646 79.1162109,34.3027344 C78.8414714,34.3027344 78.6354167,34.3027344 78.4980469,34.3027344 C78.3606771,34.4401042 78.2233073,34.5087891 78.0859375,34.5087891 C77.9485677,34.5087891 77.742513,34.5087891 77.4677734,34.5087891 C77.4677734,34.5087891 77.3990885,34.3714193 77.2617188,34.0966797 C77.5364583,34.0966797 77.742513,34.0966797 77.8798828,34.0966797 C78.0172526,33.9593099 78.1546224,33.890625 78.2919922,33.890625 Z M80.3525391,28.9453125 C80.3525391,28.8079427 80.3525391,28.7392578 80.3525391,28.7392578 C80.3525391,28.601888 80.3525391,28.5332031 80.3525391,28.5332031 C80.3525391,28.5332031 80.3525391,28.601888 80.3525391,28.7392578 C80.3525391,28.8766276 80.3525391,28.9453125 80.3525391,28.9453125 Z M73.9648438,31.2119141 C74.1022135,31.898763 74.5143229,32.4482422 75.2011719,32.8603516 C75.750651,33.2724609 76.4375,33.4785156 77.2617188,33.4785156 C77.2617188,33.6158854 77.2617188,33.8219401 77.2617188,34.0966797 C76.4375,34.0966797 75.6819661,33.890625 74.9951172,33.4785156 C74.1708984,32.9290365 73.6214193,32.2421875 73.3466797,31.4179688 C73.0719401,30.3190104 73.140625,29.288737 73.5527344,28.3271484 C74.1022135,27.3655599 74.9264323,26.6787109 76.0253906,26.2666016 C76.9869792,25.991862 77.9485677,26.1292318 78.9101562,26.6787109 C79.8717448,27.0908203 80.5585938,27.8463542 80.9707031,28.9453125 C81.2454427,29.7695312 81.2454427,30.59375 80.9707031,31.4179688 C80.5585938,32.2421875 80.0091146,32.9290365 79.3222656,33.4785156 C79.3222656,33.3411458 79.2535807,33.1350911 79.1162109,32.8603516 C79.8030599,32.4482422 80.2151693,31.898763 80.3525391,31.2119141 C80.6272786,30.5250651 80.6272786,29.7695312 80.3525391,28.9453125 C80.4899089,29.0826823 80.5585938,29.2200521 80.5585938,29.3574219 C80.5585938,29.4947917 80.5585938,29.5634766 80.5585938,29.5634766 C80.5585938,29.5634766 80.5585938,29.4947917 80.5585938,29.3574219 C80.5585938,29.3574219 80.4899089,29.2200521 80.3525391,28.9453125 C80.3525391,28.9453125 80.3525391,28.8766276 80.3525391,28.7392578 C80.3525391,28.601888 80.3525391,28.5332031 80.3525391,28.5332031 C80.3525391,28.5332031 80.3525391,28.601888 80.3525391,28.7392578 C80.3525391,28.7392578 80.3525391,28.8079427 80.3525391,28.9453125 C80.0777995,28.1210938 79.5283203,27.5029297 78.7041016,27.0908203 C77.8798828,26.6787109 76.9869792,26.610026 76.0253906,26.8847656 C75.2011719,27.1595052 74.5830078,27.7089844 74.1708984,28.5332031 C73.6214193,29.3574219 73.5527344,30.2503255 73.9648438,31.2119141 Z M79.3222656,33.4785156 C79.1848958,33.4785156 79.047526,33.5472005 78.9101562,33.6845703 C78.7727865,33.8219401 78.5667318,33.890625 78.2919922,33.890625 C78.1546224,33.890625 78.0172526,33.9593099 77.8798828,34.0966797 C77.742513,34.0966797 77.5364583,34.0966797 77.2617188,34.0966797 C77.2617188,33.9593099 77.2617188,33.7532552 77.2617188,33.4785156 C77.3990885,33.4785156 77.5364583,33.4785156 77.6738281,33.4785156 C77.8111979,33.4785156 78.0172526,33.4785156 78.2919922,33.4785156 C78.429362,33.3411458 78.5667318,33.203776 78.7041016,33.0664062 C78.8414714,33.0664062 78.9788411,32.9977214 79.1162109,32.8603516 C79.1162109,32.9977214 79.1848958,33.0664062 79.3222656,33.0664062 C79.3222656,33.203776 79.3222656,33.3411458 79.3222656,33.4785156 Z M92.0976562,79.0166016 C91.9602865,78.6044922 91.7542318,77.9863281 91.4794922,77.1621094 C91.0673828,77.2994792 90.4492188,77.5055339 89.625,77.7802734 C90.9986979,79.9781901 93.1279297,83.2750651 96.0126953,87.6708984 C95.8753255,85.0608724 95.6692708,81.1458333 95.3945312,75.9257812 C94.9824219,76.063151 94.3642578,76.2692057 93.5400391,76.5439453 C93.6774089,76.9560547 93.8834635,77.5742188 94.1582031,78.3984375 C93.7460938,78.5358073 93.0592448,78.741862 92.0976562,79.0166016 Z M92.0976562,79.0166016 C92.5097656,78.8792318 93.1966146,78.6731771 94.1582031,78.3984375 C94.0208333,77.9863281 93.8147786,77.3681641 93.5400391,76.5439453 C92.9905599,76.6813151 92.3037109,76.8873698 91.4794922,77.1621094 C91.616862,77.5742188 91.8229167,78.1923828 92.0976562,79.0166016 Z M42.6445312,34.5087891 C39.6223958,43.9873047 35.0205078,58.2050781 28.8388672,77.1621094 C28.289388,77.0247396 27.6025391,76.8186849 26.7783203,76.5439453 C29.8004557,67.0654297 34.4710286,52.8476562 40.7900391,33.890625 C40.9274089,34.0279948 41.0647786,34.0966797 41.2021484,34.0966797 C41.3395182,34.2340495 41.476888,34.3027344 41.6142578,34.3027344 C41.8889974,34.4401042 42.0950521,34.5087891 42.2324219,34.5087891 C42.3697917,34.5087891 42.5071615,34.5087891 42.6445312,34.5087891 Z M30.6933594,77.7802734 C29.1822917,79.9781901 26.984375,83.2750651 24.0996094,87.6708984 C24.2369792,85.0608724 24.5117188,81.1458333 24.9238281,75.9257812 C25.3359375,76.063151 25.9541016,76.2692057 26.7783203,76.5439453 C26.6409505,76.9560547 26.4348958,77.5742188 26.1601562,78.3984375 C26.5722656,78.5358073 27.1904297,78.8105469 28.0146484,79.2226562 C28.1520182,78.6731771 28.4267578,77.9863281 28.8388672,77.1621094 C29.2509766,77.2994792 29.8691406,77.5055339 30.6933594,77.7802734 Z M26.1601562,78.3984375 C26.297526,77.9863281 26.5035807,77.3681641 26.7783203,76.5439453 C27.1904297,76.6813151 27.8085938,76.8873698 28.6328125,77.1621094 C28.4954427,77.5742188 28.289388,78.2610677 28.0146484,79.2226562 C27.6025391,79.0852865 26.984375,78.8105469 26.1601562,78.3984375 Z M39.3476562,28.9453125 C39.0729167,29.7695312 39.0729167,30.59375 39.3476562,31.4179688 C39.6223958,32.2421875 40.1031901,32.9290365 40.7900391,33.4785156 C40.7900391,33.6158854 40.7900391,33.7532552 40.7900391,33.890625 C39.8284505,33.3411458 39.2102865,32.585612 38.9355469,31.6240234 C38.5234375,30.6624349 38.4547526,29.7008464 38.7294922,28.7392578 C39.1416016,27.5029297 39.8971354,26.610026 40.9960938,26.0605469 C42.0950521,25.5110677 43.2626953,25.4423828 44.4990234,25.8544922 C45.7353516,26.2666016 46.6282552,27.0221354 47.1777344,28.1210938 C47.7272135,29.2200521 47.7958984,30.3876953 47.3837891,31.6240234 C46.9716797,32.585612 46.3535156,33.3411458 45.5292969,33.890625 C44.7050781,34.4401042 43.7434896,34.6461589 42.6445312,34.5087891 C42.781901,34.5087891 42.8505859,34.3714193 42.8505859,34.0966797 C43.8121745,34.0966797 44.6363932,33.890625 45.3232422,33.4785156 C46.0100911,32.9290365 46.4908854,32.2421875 46.765625,31.4179688 C47.1777344,30.3190104 47.1090495,29.288737 46.5595703,28.3271484 C46.1474609,27.3655599 45.3919271,26.6787109 44.2929688,26.2666016 C43.3313802,25.991862 42.3011068,26.0605469 41.2021484,26.4726562 C40.2405599,27.0221354 39.6223958,27.8463542 39.3476562,28.9453125 Z M47.3837891,31.4179688 C47.3837891,31.280599 47.452474,31.1432292 47.5898438,31.0058594 C47.5898438,31.0058594 47.5898438,30.9371745 47.5898438,30.7998047 C47.5898438,30.9371745 47.5211589,31.0745443 47.3837891,31.2119141 C47.3837891,31.2119141 47.3837891,31.280599 47.3837891,31.4179688 Z M47.3837891,31.6240234 C47.3837891,31.6240234 47.3837891,31.5553385 47.3837891,31.4179688 C47.3837891,31.4179688 47.3837891,31.4866536 47.3837891,31.6240234 C47.3837891,31.6240234 47.3837891,31.6240234 47.3837891,31.6240234 Z M42.6445312,34.5087891 C42.5071615,34.5087891 42.3697917,34.5087891 42.2324219,34.5087891 C42.0950521,34.5087891 41.8889974,34.4401042 41.6142578,34.3027344 C41.476888,34.3027344 41.3395182,34.2340495 41.2021484,34.0966797 C41.0647786,34.0966797 40.9274089,34.0279948 40.7900391,33.890625 C40.7900391,33.7532552 40.858724,33.6158854 40.9960938,33.4785156 C41.1334635,33.4785156 41.2708333,33.5472005 41.4082031,33.6845703 C41.5455729,33.8219401 41.6829427,33.890625 41.8203125,33.890625 C41.9576823,33.890625 42.163737,33.9593099 42.4384766,34.0966797 C42.5758464,34.0966797 42.7132161,34.0966797 42.8505859,34.0966797 C42.8505859,34.0966797 42.8505859,34.1653646 42.8505859,34.3027344 C42.8505859,34.4401042 42.781901,34.5087891 42.6445312,34.5087891 Z M46.765625,31.4179688 C46.4908854,32.2421875 46.0100911,32.9290365 45.3232422,33.4785156 C44.6363932,33.890625 43.8121745,34.0966797 42.8505859,34.0966797 C42.9879557,33.9593099 43.0566406,33.7532552 43.0566406,33.4785156 C43.7434896,33.4785156 44.4303385,33.2724609 45.1171875,32.8603516 C45.6666667,32.4482422 46.078776,31.898763 46.3535156,31.2119141 C46.6282552,30.2503255 46.5595703,29.3574219 46.1474609,28.5332031 C45.7353516,27.7089844 45.0485026,27.1595052 44.0869141,26.8847656 C43.2626953,26.610026 42.4384766,26.6787109 41.6142578,27.0908203 C40.6526693,27.5029297 40.0345052,28.1210938 39.7597656,28.9453125 C39.8971354,28.9453125 39.9658203,28.8766276 39.9658203,28.7392578 C39.9658203,28.7392578 39.9658203,28.6705729 39.9658203,28.5332031 C39.9658203,28.6705729 39.8971354,28.8079427 39.7597656,28.9453125 C39.7597656,29.0826823 39.7597656,29.2200521 39.7597656,29.3574219 C39.7597656,29.3574219 39.7597656,29.3574219 39.7597656,29.3574219 C39.7597656,29.3574219 39.7597656,29.4261068 39.7597656,29.5634766 C39.7597656,29.4261068 39.7597656,29.3574219 39.7597656,29.3574219 C39.7597656,29.3574219 39.7597656,29.3574219 39.7597656,29.3574219 C39.7597656,29.2200521 39.7597656,29.1513672 39.7597656,29.1513672 C39.7597656,29.1513672 39.7597656,29.0826823 39.7597656,28.9453125 C39.6223958,29.7695312 39.6223958,30.5250651 39.7597656,31.2119141 C40.0345052,31.898763 40.4466146,32.4482422 40.9960938,32.8603516 C40.9960938,32.9977214 40.9960938,33.203776 40.9960938,33.4785156 C40.171875,32.9290365 39.6223958,32.2421875 39.3476562,31.4179688 C39.0729167,30.59375 39.0729167,29.7695312 39.3476562,28.9453125 C39.6223958,27.8463542 40.2405599,27.0908203 41.2021484,26.6787109 C42.3011068,26.1292318 43.3313802,25.991862 44.2929688,26.2666016 C45.3919271,26.6787109 46.1474609,27.3655599 46.5595703,28.3271484 C47.1090495,29.288737 47.1777344,30.3190104 46.765625,31.4179688 Z M39.7597656,29.3574219 C39.7597656,29.2200521 39.7597656,29.0826823 39.7597656,28.9453125 C39.8971354,28.8079427 39.9658203,28.6705729 39.9658203,28.5332031 C39.9658203,28.6705729 39.9658203,28.7392578 39.9658203,28.7392578 C39.9658203,28.8766276 39.8971354,28.9453125 39.7597656,28.9453125 C39.7597656,29.0826823 39.7597656,29.1513672 39.7597656,29.1513672 C39.7597656,29.1513672 39.7597656,29.2200521 39.7597656,29.3574219 Z M42.0263672,33.4785156 C42.163737,33.4785156 42.3011068,33.4785156 42.4384766,33.4785156 C42.7132161,33.4785156 42.9192708,33.4785156 43.0566406,33.4785156 C43.0566406,33.6158854 42.9879557,33.8219401 42.8505859,34.0966797 C42.7132161,34.0966797 42.5758464,34.0966797 42.4384766,34.0966797 C42.163737,33.9593099 41.9576823,33.890625 41.8203125,33.890625 C41.6829427,33.890625 41.5455729,33.8219401 41.4082031,33.6845703 C41.2708333,33.5472005 41.1334635,33.4785156 40.9960938,33.4785156 C40.9960938,33.3411458 40.9960938,33.1350911 40.9960938,32.8603516 C41.1334635,32.9977214 41.3395182,33.0664062 41.6142578,33.0664062 C41.7516276,33.203776 41.8889974,33.3411458 42.0263672,33.4785156 Z M69.2255859,111.161133 C66.8902995,110.474284 63.5247396,109.58138 59.1289062,108.482422 C59.4036458,108.757161 59.6097005,109.169271 59.7470703,109.71875 C60.0218099,110.130859 60.1591797,110.611654 60.1591797,111.161133 C60.1591797,111.710612 60.0218099,112.191406 59.7470703,112.603516 C59.6097005,113.015625 59.4036458,113.427734 59.1289062,113.839844 C60.7773438,113.427734 62.4257812,112.94694 64.0742188,112.397461 C65.7226562,111.985352 67.4397786,111.573242 69.2255859,111.161133 Z M59.1289062,113.839844 C58.9915365,113.839844 58.7167969,113.908529 58.3046875,114.045898 C57.8925781,114.458008 57.4804688,114.732747 57.0683594,114.870117 C56.65625,115.007487 56.1754557,115.076172 55.6259766,115.076172 C54.5270182,115.076172 53.5654297,114.732747 52.7412109,114.045898 C52.054362,113.22168 51.7109375,112.260091 51.7109375,111.161133 C51.7109375,110.062174 52.054362,109.100586 52.7412109,108.276367 C53.5654297,107.589518 54.5270182,107.246094 55.6259766,107.246094 C56.1754557,107.246094 56.65625,107.314779 57.0683594,107.452148 C57.4804688,107.726888 57.8925781,108.001628 58.3046875,108.276367 C58.4420573,108.276367 58.7167969,108.345052 59.1289062,108.482422 C58.7167969,107.932943 58.2360026,107.520833 57.6865234,107.246094 C56.9996745,106.833984 56.3128255,106.62793 55.6259766,106.62793 C54.3896484,106.62793 53.2906901,107.108724 52.3291016,108.070312 C51.5048828,108.894531 51.0927734,109.924805 51.0927734,111.161133 C51.0927734,112.397461 51.5048828,113.427734 52.3291016,114.251953 C53.2906901,115.213542 54.3896484,115.694336 55.6259766,115.694336 C56.3128255,115.694336 56.9996745,115.488281 57.6865234,115.076172 C58.2360026,114.801432 58.7167969,114.389323 59.1289062,113.839844 Z M59.7470703,110.130859 C59.7470703,110.542969 59.7470703,111.229818 59.7470703,112.191406 C59.7470703,112.191406 59.6097005,112.191406 59.3349609,112.191406 C59.1975911,112.603516 59.0602214,112.94694 58.9228516,113.22168 C58.7854818,113.496419 58.5794271,113.771159 58.3046875,114.045898 C58.4420573,114.045898 58.7167969,113.977214 59.1289062,113.839844 C59.4036458,113.427734 59.6097005,113.015625 59.7470703,112.603516 C60.0218099,112.191406 60.1591797,111.710612 60.1591797,111.161133 C60.1591797,110.611654 60.0218099,110.130859 59.7470703,109.71875 C59.6097005,109.306641 59.4036458,108.894531 59.1289062,108.482422 C58.9915365,108.345052 58.7167969,108.276367 58.3046875,108.276367 C58.5794271,108.551107 58.7854818,108.825846 58.9228516,109.100586 C59.1975911,109.375326 59.3349609,109.71875 59.3349609,110.130859 C59.4723307,110.130859 59.5410156,110.130859 59.5410156,110.130859 C59.6783854,110.130859 59.7470703,110.130859 59.7470703,110.130859 Z M59.7470703,112.191406 C59.7470703,111.779297 59.7470703,111.092448 59.7470703,110.130859 C59.7470703,110.130859 59.6097005,110.130859 59.3349609,110.130859 C59.4723307,110.268229 59.5410156,110.405599 59.5410156,110.542969 C59.5410156,110.817708 59.5410156,111.023763 59.5410156,111.161133 C59.5410156,111.298503 59.5410156,111.435872 59.5410156,111.573242 C59.5410156,111.847982 59.4723307,112.054036 59.3349609,112.191406 C59.4723307,112.191406 59.5410156,112.191406 59.5410156,112.191406 C59.6783854,112.191406 59.7470703,112.191406 59.7470703,112.191406 Z M55.6259766,114.664062 C55.7633464,114.664062 55.9007161,114.664062 56.0380859,114.664062 C56.0380859,114.664062 56.0380859,114.664062 56.0380859,114.664062 C56.0380859,114.664062 56.0380859,114.664062 56.0380859,114.664062 C55.9007161,114.664062 55.7633464,114.664062 55.6259766,114.664062 C55.4886068,114.664062 55.351237,114.664062 55.2138672,114.664062 C55.0764974,114.664062 55.0078125,114.664062 55.0078125,114.664062 C55.0078125,114.664062 55.0764974,114.664062 55.2138672,114.664062 C55.351237,114.664062 55.4886068,114.664062 55.6259766,114.664062 C54.664388,114.664062 53.8401693,114.320638 53.1533203,113.633789 C52.4664714,112.94694 52.1230469,112.122721 52.1230469,111.161133 C52.1230469,110.199544 52.4664714,109.375326 53.1533203,108.688477 C53.8401693,108.001628 54.664388,107.658203 55.6259766,107.658203 C56.0380859,107.658203 56.3815104,107.726888 56.65625,107.864258 C57.0683594,108.001628 57.4117839,108.207682 57.6865234,108.482422 C57.6865234,108.345052 57.6865234,108.207682 57.6865234,108.070312 C57.8238932,108.070312 58.0299479,108.138997 58.3046875,108.276367 C57.8925781,107.864258 57.4804688,107.589518 57.0683594,107.452148 C56.65625,107.314779 56.1754557,107.246094 55.6259766,107.246094 C54.5270182,107.246094 53.5654297,107.589518 52.7412109,108.276367 C52.054362,109.100586 51.7109375,110.062174 51.7109375,111.161133 C51.7109375,112.260091 52.054362,113.22168 52.7412109,114.045898 C53.5654297,114.732747 54.5270182,115.076172 55.6259766,115.076172 C56.1754557,115.076172 56.65625,115.007487 57.0683594,114.870117 C57.4804688,114.595378 57.8925781,114.320638 58.3046875,114.045898 C58.1673177,114.045898 57.961263,114.114583 57.6865234,114.251953 C57.6865234,114.114583 57.6865234,113.977214 57.6865234,113.839844 C57.4117839,114.114583 57.0683594,114.320638 56.65625,114.458008 C56.3815104,114.595378 56.0380859,114.664062 55.6259766,114.664062 Z M58.9228516,110.130859 C59.0602214,110.130859 59.1975911,110.130859 59.3349609,110.130859 C59.3349609,109.71875 59.1975911,109.375326 58.9228516,109.100586 C58.7854818,108.688477 58.5794271,108.413737 58.3046875,108.276367 C58.1673177,108.138997 57.961263,108.070312 57.6865234,108.070312 C57.6865234,108.207682 57.6865234,108.345052 57.6865234,108.482422 C57.961263,108.619792 58.1673177,108.825846 58.3046875,109.100586 C58.5794271,109.375326 58.7854818,109.71875 58.9228516,110.130859 Z M58.9228516,112.191406 C58.7854818,112.466146 58.5794271,112.740885 58.3046875,113.015625 C58.1673177,113.290365 57.961263,113.565104 57.6865234,113.839844 C57.6865234,113.977214 57.6865234,114.114583 57.6865234,114.251953 C57.8238932,114.251953 58.0299479,114.183268 58.3046875,114.045898 C58.5794271,113.771159 58.7854818,113.496419 58.9228516,113.22168 C59.1975911,112.94694 59.3349609,112.603516 59.3349609,112.191406 C59.3349609,112.191406 59.266276,112.191406 59.1289062,112.191406 C58.9915365,112.191406 58.9228516,112.191406 58.9228516,112.191406 Z M58.9228516,112.191406 C58.9228516,112.191406 59.0602214,112.191406 59.3349609,112.191406 C59.4723307,112.054036 59.5410156,111.916667 59.5410156,111.779297 C59.5410156,111.504557 59.5410156,111.298503 59.5410156,111.161133 C59.5410156,111.023763 59.5410156,110.817708 59.5410156,110.542969 C59.5410156,110.405599 59.4723307,110.268229 59.3349609,110.130859 C59.1975911,110.130859 59.0602214,110.130859 58.9228516,110.130859 C58.9228516,110.268229 58.9228516,110.405599 58.9228516,110.542969 C58.9228516,110.817708 58.9228516,111.023763 58.9228516,111.161133 C58.9228516,111.298503 58.9228516,111.504557 58.9228516,111.779297 C58.9228516,111.916667 58.9228516,112.054036 58.9228516,112.191406 Z M26.1601562,32.0361328 C26.0227865,32.0361328 25.8854167,31.9674479 25.7480469,31.8300781 C25.7480469,31.8300781 25.679362,31.7613932 25.5419922,31.6240234 C25.4046224,31.6240234 25.3359375,31.5553385 25.3359375,31.4179688 C25.3359375,31.280599 25.3359375,31.1432292 25.3359375,31.0058594 C25.3359375,30.8684896 25.3359375,30.7998047 25.3359375,30.7998047 C25.3359375,30.6624349 25.4046224,30.5250651 25.5419922,30.3876953 C25.8167318,30.1129557 26.0914714,29.8382161 26.3662109,29.5634766 C26.7783203,29.1513672 27.1904297,28.7392578 27.6025391,28.3271484 C27.7399089,28.1897786 27.8085938,28.1210938 27.8085938,28.1210938 C27.9459635,28.1210938 28.0833333,28.1210938 28.2207031,28.1210938 C28.2207031,28.1210938 28.2207031,28.1210938 28.2207031,28.1210938 C28.2207031,28.1210938 28.289388,28.1210938 28.4267578,28.1210938 C28.4267578,28.1210938 28.4267578,28.1210938 28.4267578,28.1210938 C28.5641276,28.1210938 28.6328125,28.1210938 28.6328125,28.1210938 C28.7701823,28.1210938 28.8388672,28.1897786 28.8388672,28.3271484 C28.976237,28.3271484 29.0449219,28.3958333 29.0449219,28.5332031 C29.0449219,28.5332031 29.1136068,28.601888 29.2509766,28.7392578 C29.2509766,28.7392578 29.2509766,28.8079427 29.2509766,28.9453125 C29.2509766,30.59375 29.2509766,32.7229818 29.2509766,35.3330078 C29.2509766,37.8056641 29.2509766,40.7591146 29.2509766,44.1933594 C29.2509766,44.3307292 29.1822917,44.468099 29.0449219,44.6054688 C29.0449219,44.6054688 28.976237,44.6741536 28.8388672,44.8115234 C28.8388672,44.9488932 28.7701823,45.0175781 28.6328125,45.0175781 C28.4954427,45.0175781 28.3580729,45.0175781 28.2207031,45.0175781 C28.2207031,45.0175781 28.1520182,45.0175781 28.0146484,45.0175781 C27.8772786,45.0175781 27.7399089,44.9488932 27.6025391,44.8115234 C27.6025391,44.6741536 27.5338542,44.6054688 27.3964844,44.6054688 C27.3964844,44.468099 27.3964844,44.3307292 27.3964844,44.1933594 C27.3964844,42.6822917 27.3964844,40.8277995 27.3964844,38.6298828 C27.3964844,36.5693359 27.3964844,34.0279948 27.3964844,31.0058594 C27.3964844,31.1432292 27.3277995,31.280599 27.1904297,31.4179688 C27.0530599,31.4179688 26.9156901,31.4866536 26.7783203,31.6240234 C26.6409505,31.7613932 26.5722656,31.8300781 26.5722656,31.8300781 C26.4348958,31.9674479 26.297526,32.0361328 26.1601562,32.0361328 Z M88.5947266,28.3271484 C88.8694661,27.9150391 89.1442057,27.5716146 89.4189453,27.296875 C89.6936849,26.8847656 90.0371094,26.5413411 90.4492188,26.2666016 C90.8613281,26.1292318 91.2734375,25.991862 91.6855469,25.8544922 C92.0976562,25.7171224 92.5784505,25.6484375 93.1279297,25.6484375 C94.0895182,25.6484375 94.8450521,25.7858073 95.3945312,26.0605469 C96.0813802,26.1979167 96.6308594,26.5413411 97.0429688,27.0908203 C97.4550781,27.5029297 97.7298177,27.983724 97.8671875,28.5332031 C98.0045573,29.0826823 98.0732422,29.6321615 98.0732422,30.1816406 C98.0732422,30.7311198 98.0045573,31.2119141 97.8671875,31.6240234 C97.7298177,32.1735026 97.4550781,32.6542969 97.0429688,33.0664062 C96.7682292,33.6158854 96.3561198,34.0966797 95.8066406,34.5087891 C95.2571615,35.0582682 94.5703125,35.5390625 93.7460938,35.9511719 C93.1966146,36.3632812 92.6471354,36.7753906 92.0976562,37.1875 C91.6855469,37.5996094 91.3421224,38.0804036 91.0673828,38.6298828 C90.7926432,39.0419922 90.5865885,39.4541016 90.4492188,39.8662109 C90.1744792,40.2783203 90.0371094,40.6217448 90.0371094,40.8964844 C90.8613281,40.8964844 91.8916016,40.8964844 93.1279297,40.8964844 C94.3642578,40.8964844 95.8066406,40.8964844 97.4550781,40.8964844 C97.5924479,40.8964844 97.7298177,40.8964844 97.8671875,40.8964844 C97.8671875,41.0338542 97.9358724,41.1025391 98.0732422,41.1025391 C98.210612,41.2399089 98.2792969,41.3772786 98.2792969,41.5146484 C98.2792969,41.6520182 98.2792969,41.7207031 98.2792969,41.7207031 C98.2792969,41.8580729 98.2792969,41.9954427 98.2792969,42.1328125 C98.2792969,42.2701823 98.210612,42.4075521 98.0732422,42.5449219 C97.9358724,42.5449219 97.8671875,42.5449219 97.8671875,42.5449219 C97.7298177,42.6822917 97.5924479,42.7509766 97.4550781,42.7509766 C96.7682292,42.7509766 96.0813802,42.7509766 95.3945312,42.7509766 C94.5703125,42.7509766 93.8147786,42.7509766 93.1279297,42.7509766 C92.4410807,42.7509766 91.7542318,42.7509766 91.0673828,42.7509766 C90.2431641,42.7509766 89.4876302,42.7509766 88.8007812,42.7509766 C88.8007812,42.7509766 88.7320964,42.7509766 88.5947266,42.7509766 C88.5947266,42.6136068 88.5947266,42.5449219 88.5947266,42.5449219 C88.4573568,42.5449219 88.3886719,42.5449219 88.3886719,42.5449219 C88.2513021,42.5449219 88.1826172,42.476237 88.1826172,42.3388672 C88.1826172,42.3388672 88.1826172,42.3388672 88.1826172,42.3388672 C88.0452474,42.2014974 87.9765625,42.1328125 87.9765625,42.1328125 C87.9765625,41.9954427 87.9765625,41.9267578 87.9765625,41.9267578 C87.9765625,41.9267578 87.9765625,41.8580729 87.9765625,41.7207031 C87.9765625,41.7207031 87.9765625,41.7207031 87.9765625,41.7207031 C87.9765625,41.7207031 87.9765625,41.7207031 87.9765625,41.7207031 C87.9765625,41.7207031 87.9765625,41.5833333 87.9765625,41.3085938 C88.1139323,41.171224 88.1826172,40.8964844 88.1826172,40.484375 C88.319987,40.0722656 88.5260417,39.5914714 88.8007812,39.0419922 C88.938151,38.6298828 89.2128906,38.1490885 89.625,37.5996094 C89.7623698,37.3248698 89.8997396,37.0501302 90.0371094,36.7753906 C90.311849,36.500651 90.5865885,36.2259115 90.8613281,35.9511719 C91.1360677,35.6764323 91.4108073,35.4016927 91.6855469,35.1269531 C92.0976562,34.8522135 92.4410807,34.6461589 92.7158203,34.5087891 C93.5400391,33.9593099 94.226888,33.4785156 94.7763672,33.0664062 C95.1884766,32.6542969 95.531901,32.3108724 95.8066406,32.0361328 C95.9440104,31.6240234 96.0813802,31.280599 96.21875,31.0058594 C96.21875,30.59375 96.21875,30.2503255 96.21875,29.9755859 C96.21875,29.9755859 96.21875,29.906901 96.21875,29.7695312 C96.21875,29.6321615 96.21875,29.5634766 96.21875,29.5634766 C96.21875,29.4261068 96.21875,29.288737 96.21875,29.1513672 C96.21875,29.0139974 96.1500651,28.9453125 96.0126953,28.9453125 C96.0126953,28.6705729 95.9440104,28.4645182 95.8066406,28.3271484 C95.6692708,28.1897786 95.4632161,28.0524089 95.1884766,27.9150391 C94.913737,27.7776693 94.6389974,27.6402995 94.3642578,27.5029297 C94.0895182,27.5029297 93.6774089,27.5029297 93.1279297,27.5029297 C92.8531901,27.5029297 92.5784505,27.5029297 92.3037109,27.5029297 C92.0289714,27.6402995 91.7542318,27.7776693 91.4794922,27.9150391 C91.2047526,28.0524089 90.9986979,28.1897786 90.8613281,28.3271484 C90.5865885,28.601888 90.3805339,28.8766276 90.2431641,29.1513672 C90.2431641,29.288737 90.1744792,29.3574219 90.0371094,29.3574219 C90.0371094,29.4947917 89.9684245,29.5634766 89.8310547,29.5634766 C89.6936849,29.7008464 89.5563151,29.7008464 89.4189453,29.5634766 C89.2815755,29.5634766 89.2128906,29.5634766 89.2128906,29.5634766 C89.0755208,29.5634766 88.938151,29.4947917 88.8007812,29.3574219 C88.8007812,29.3574219 88.7320964,29.288737 88.5947266,29.1513672 C88.5947266,29.0139974 88.5947266,28.8766276 88.5947266,28.7392578 C88.5947266,28.601888 88.5947266,28.4645182 88.5947266,28.3271484 Z M51.5048828,126.615234 C51.367513,126.477865 51.1614583,126.340495 50.8867188,126.203125 C50.749349,126.203125 50.6119792,126.13444 50.4746094,125.99707 C50.0625,125.859701 49.7190755,125.791016 49.4443359,125.791016 C49.0322266,125.653646 48.6201172,125.584961 48.2080078,125.584961 C48.2080078,125.584961 48.2080078,125.584961 48.2080078,125.584961 C48.3453776,125.584961 48.4140625,125.584961 48.4140625,125.584961 C48.8261719,125.584961 49.2382812,125.516276 49.6503906,125.378906 C50.0625,125.378906 50.4059245,125.241536 50.6806641,124.966797 C51.0927734,124.692057 51.367513,124.417318 51.5048828,124.142578 C51.6422526,123.730469 51.7109375,123.387044 51.7109375,123.112305 C51.7109375,122.837565 51.7109375,122.63151 51.7109375,122.494141 C51.7109375,122.356771 51.6422526,122.219401 51.5048828,122.082031 C51.5048828,121.944661 51.4361979,121.807292 51.2988281,121.669922 C51.1614583,121.532552 51.0927734,121.395182 51.0927734,121.257812 C50.9554036,121.257812 50.8180339,121.189128 50.6806641,121.051758 C50.5432943,120.914388 50.3372396,120.777018 50.0625,120.639648 C49.9251302,120.639648 49.7877604,120.639648 49.6503906,120.639648 C49.5130208,120.502279 49.3069661,120.433594 49.0322266,120.433594 C48.757487,120.433594 48.4827474,120.502279 48.2080078,120.639648 C47.9332682,120.639648 47.6585286,120.708333 47.3837891,120.845703 C47.2464193,120.845703 47.0403646,120.914388 46.765625,121.051758 C46.4908854,121.189128 46.2848307,121.395182 46.1474609,121.669922 C46.1474609,121.807292 46.078776,121.875977 45.9414062,121.875977 C45.8040365,121.875977 45.6666667,121.875977 45.5292969,121.875977 C45.3919271,121.875977 45.3232422,121.875977 45.3232422,121.875977 C45.1858724,121.875977 45.0485026,121.807292 44.9111328,121.669922 C44.773763,121.669922 44.7050781,121.601237 44.7050781,121.463867 C44.7050781,121.326497 44.7050781,121.189128 44.7050781,121.051758 C44.7050781,120.914388 44.7050781,120.845703 44.7050781,120.845703 C44.7050781,120.708333 44.773763,120.570964 44.9111328,120.433594 C45.1858724,120.158854 45.460612,119.884115 45.7353516,119.609375 C46.0100911,119.472005 46.3535156,119.334635 46.765625,119.197266 C47.0403646,119.059896 47.3837891,118.922526 47.7958984,118.785156 C48.2080078,118.785156 48.6888021,118.785156 49.2382812,118.785156 C49.5130208,118.785156 49.7877604,118.785156 50.0625,118.785156 C50.3372396,118.785156 50.6119792,118.853841 50.8867188,118.991211 C51.1614583,119.128581 51.4361979,119.334635 51.7109375,119.609375 C51.9856771,119.746745 52.1917318,119.884115 52.3291016,120.021484 C52.6038411,120.296224 52.8098958,120.570964 52.9472656,120.845703 C53.0846354,120.983073 53.2220052,121.189128 53.359375,121.463867 C53.359375,121.738607 53.4280599,122.013346 53.5654297,122.288086 C53.5654297,122.562826 53.5654297,122.837565 53.5654297,123.112305 C53.5654297,123.112305 53.5654297,123.112305 53.5654297,123.112305 C53.5654297,123.112305 53.5654297,123.112305 53.5654297,123.112305 C53.5654297,123.661784 53.4280599,124.211263 53.1533203,124.760742 C52.8785807,125.310221 52.5351562,125.791016 52.1230469,126.203125 C51.9856771,126.340495 51.8483073,126.40918 51.7109375,126.40918 C51.7109375,126.40918 51.6422526,126.477865 51.5048828,126.615234 Z M45.3232422,135.063477 C44.9111328,134.926107 44.5677083,134.720052 44.2929688,134.445312 C43.8808594,134.033203 43.5374349,133.621094 43.2626953,133.208984 C43.2626953,133.208984 43.2626953,133.140299 43.2626953,133.00293 C43.2626953,133.00293 43.2626953,132.934245 43.2626953,132.796875 C43.2626953,132.796875 43.2626953,132.796875 43.2626953,132.796875 C43.2626953,132.659505 43.2626953,132.59082 43.2626953,132.59082 C43.2626953,132.453451 43.2626953,132.384766 43.2626953,132.384766 C43.4000651,132.247396 43.5374349,132.110026 43.6748047,131.972656 C43.6748047,131.972656 43.7434896,131.972656 43.8808594,131.972656 C44.0182292,131.972656 44.155599,131.972656 44.2929688,131.972656 C44.4303385,131.972656 44.4990234,131.972656 44.4990234,131.972656 C44.6363932,132.110026 44.773763,132.247396 44.9111328,132.384766 C45.0485026,132.659505 45.2545573,132.86556 45.5292969,133.00293 C45.6666667,133.277669 45.8727214,133.483724 46.1474609,133.621094 C46.4222005,133.758464 46.6969401,133.827148 46.9716797,133.827148 C47.3837891,133.964518 47.7272135,134.033203 48.0019531,134.033203 C48.4140625,134.033203 48.8261719,133.964518 49.2382812,133.827148 C49.7877604,133.689779 50.1998698,133.483724 50.4746094,133.208984 C50.8867188,132.934245 51.2301432,132.59082 51.5048828,132.178711 C51.6422526,131.766602 51.7109375,131.285807 51.7109375,130.736328 C51.7109375,130.461589 51.7109375,130.255534 51.7109375,130.118164 C51.7109375,129.843424 51.6422526,129.63737 51.5048828,129.5 C51.5048828,129.22526 51.4361979,129.019206 51.2988281,128.881836 C51.1614583,128.744466 51.0240885,128.607096 50.8867188,128.469727 C50.749349,128.332357 50.6119792,128.194987 50.4746094,128.057617 C50.1998698,127.920247 49.9251302,127.782878 49.6503906,127.645508 C49.375651,127.645508 49.1009115,127.576823 48.8261719,127.439453 C48.5514323,127.439453 48.2766927,127.439453 48.0019531,127.439453 C47.8645833,127.439453 47.7272135,127.439453 47.5898438,127.439453 C47.452474,127.302083 47.3837891,127.233398 47.3837891,127.233398 C47.2464193,127.096029 47.1777344,126.958659 47.1777344,126.821289 C47.1777344,126.821289 47.1777344,126.752604 47.1777344,126.615234 C47.1777344,126.477865 47.1777344,126.340495 47.1777344,126.203125 C47.1777344,126.065755 47.2464193,125.99707 47.3837891,125.99707 C47.3837891,125.859701 47.452474,125.791016 47.5898438,125.791016 C47.7272135,125.653646 47.8645833,125.584961 48.0019531,125.584961 C48.0019531,125.584961 48.0019531,125.584961 48.0019531,125.584961 C48.1393229,125.722331 48.2080078,125.791016 48.2080078,125.791016 C48.070638,125.791016 48.0019531,125.791016 48.0019531,125.791016 C47.8645833,125.791016 47.7958984,125.859701 47.7958984,125.99707 C47.6585286,125.99707 47.5898438,126.065755 47.5898438,126.203125 C47.452474,126.340495 47.3837891,126.477865 47.3837891,126.615234 C47.3837891,126.752604 47.452474,126.821289 47.5898438,126.821289 C47.5898438,126.958659 47.6585286,127.096029 47.7958984,127.233398 C47.7958984,127.233398 47.8645833,127.302083 48.0019531,127.439453 C48.1393229,127.439453 48.2766927,127.439453 48.4140625,127.439453 C48.9635417,127.439453 49.5130208,127.370768 50.0625,127.233398 C50.6119792,127.096029 51.0927734,126.889974 51.5048828,126.615234 C51.6422526,126.752604 51.7796224,126.821289 51.9169922,126.821289 C52.054362,126.958659 52.1917318,127.096029 52.3291016,127.233398 C52.4664714,127.370768 52.6038411,127.576823 52.7412109,127.851562 C52.8785807,128.126302 53.0159505,128.401042 53.1533203,128.675781 C53.2906901,129.087891 53.359375,129.431315 53.359375,129.706055 C53.4967448,129.980794 53.5654297,130.324219 53.5654297,130.736328 C53.5654297,131.423177 53.4280599,132.110026 53.1533203,132.796875 C52.8785807,133.346354 52.4664714,133.895833 51.9169922,134.445312 C51.5048828,134.857422 50.9554036,135.200846 50.2685547,135.475586 C49.5817057,135.612956 48.8261719,135.681641 48.0019531,135.681641 C47.452474,135.681641 46.9716797,135.681641 46.5595703,135.681641 C46.1474609,135.544271 45.7353516,135.338216 45.3232422,135.063477 Z M47.3837891,126.615234 C47.3837891,126.477865 47.452474,126.340495 47.5898438,126.203125 C47.5898438,126.065755 47.6585286,125.99707 47.7958984,125.99707 C47.7958984,125.859701 47.8645833,125.791016 48.0019531,125.791016 C48.0019531,125.653646 48.070638,125.584961 48.2080078,125.584961 C48.6201172,125.722331 49.0322266,125.791016 49.4443359,125.791016 C49.7190755,125.791016 50.0625,125.859701 50.4746094,125.99707 C50.6119792,126.13444 50.749349,126.203125 50.8867188,126.203125 C51.1614583,126.340495 51.367513,126.477865 51.5048828,126.615234 C51.0927734,126.889974 50.6119792,127.096029 50.0625,127.233398 C49.5130208,127.370768 48.9635417,127.439453 48.4140625,127.439453 C48.2766927,127.439453 48.1393229,127.439453 48.0019531,127.439453 C47.8645833,127.302083 47.7958984,127.233398 47.7958984,127.233398 C47.6585286,127.096029 47.5898438,126.958659 47.5898438,126.821289 C47.452474,126.821289 47.3837891,126.752604 47.3837891,126.615234 Z"/></svg>