<svg xmlns="http://www.w3.org/2000/svg" width="120" height="203" viewBox="0 0 120 203"><path fill="#131313" d="M108.994141,156.227539 C109.26888,157.051758 109.40625,157.807292 109.40625,158.494141 C109.40625,159.730469 109.13151,160.829427 108.582031,161.791016 C107.620443,163.714193 106.109375,165.019206 104.048828,165.706055 C103.774089,165.706055 103.430664,165.77474 103.018555,165.912109 C102.606445,165.912109 102.194336,165.912109 101.782227,165.912109 C100.271159,165.912109 98.828776,165.5 97.4550781,164.675781 C96.0813802,163.714193 95.1884766,162.40918 94.7763672,160.760742 C90.3805339,147.847982 83.9241536,128.341471 75.4072266,102.241211 C68.538737,102.241211 58.2360026,102.241211 44.4990234,102.241211 C40.1031901,115.291341 33.6468099,134.797852 25.1298828,160.760742 C24.5804036,162.821289 23.3440755,164.263672 21.4208984,165.087891 C20.3219401,165.63737 19.2229818,165.912109 18.1240234,165.912109 C17.2998047,165.912109 16.4755859,165.843424 15.6513672,165.706055 C13.7281901,165.019206 12.2858073,163.714193 11.3242188,161.791016 C10.7747396,160.829427 10.5,159.730469 10.5,158.494141 C10.5,157.807292 10.6373698,157.051758 10.9121094,156.227539 C15.4453125,142.35319 22.3138021,121.541667 31.5175781,93.7929688 C31.5175781,93.3808594 31.586263,92.96875 31.7236328,92.5566406 C31.8610026,92.0071615 32.0670573,91.5950521 32.3417969,91.3203125 C36.875,77.4459635 43.6748047,56.5657552 52.7412109,28.6796875 C53.2906901,27.1686198 54.2522786,25.9322917 55.6259766,24.9707031 C56.8623047,24.1464844 58.3046875,23.734375 59.953125,23.734375 C61.6015625,23.734375 63.0439453,24.1464844 64.2802734,24.9707031 C65.6539714,25.9322917 66.546875,27.1686198 66.9589844,28.6796875 C71.6295573,42.6914062 78.4980469,63.5716146 87.5644531,91.3203125 C87.8391927,91.5950521 88.0452474,92.0071615 88.1826172,92.5566406 C88.319987,92.96875 88.3886719,93.3808594 88.3886719,93.7929688 C91.8229167,104.233073 95.2571615,114.604492 98.6914063,124.907227 C102.125651,135.347331 105.559896,145.787435 108.994141,156.227539 Z M49.4443359,87.4052734 C54.1149089,87.4052734 61.1894531,87.4052734 70.6679688,87.4052734 C68.1953125,80.1246745 64.6236979,69.3411458 59.953125,55.0546875 C58.1673177,60.4121094 56.3815104,65.7695313 54.5957031,71.1269531 C52.9472656,76.484375 51.2301432,81.9104818 49.4443359,87.4052734 Z M77.4677734,34.2431641 C77.6051432,34.2431641 77.8111979,34.2431641 78.0859375,34.2431641 C78.2233073,34.2431641 78.3606771,34.1744792 78.4980469,34.0371094 C78.7727865,34.0371094 78.9788411,33.9684245 79.1162109,33.8310547 C79.2535807,33.8310547 79.3909505,33.7623698 79.5283203,33.625 C82.6878255,43.1035156 87.3583984,57.3212891 93.5400391,76.2783203 C92.9905599,76.4156901 92.3037109,76.6217448 91.4794922,76.8964844 C89.1442057,69.7532552 86.8089193,62.6787109 84.4736328,55.6728516 C82.1383464,48.5296224 79.8030599,41.3863932 77.4677734,34.2431641 Z M72.7285156,30.5341797 C72.7285156,30.6715495 72.7285156,30.7402344 72.7285156,30.7402344 C72.7285156,30.8776042 72.7972005,31.0836589 72.9345703,31.3583984 C72.7972005,31.2210286 72.7285156,31.0836589 72.7285156,30.9462891 C72.7285156,30.8089193 72.7285156,30.6715495 72.7285156,30.5341797 Z M77.4677734,34.2431641 C76.5061849,34.3805339 75.5445964,34.1744792 74.5830078,33.625 C73.7587891,33.0755208 73.2093099,32.319987 72.9345703,31.3583984 C72.5224609,30.1220703 72.5911458,28.9544271 73.140625,27.8554688 C73.6901042,26.7565104 74.5830078,26.0009766 75.8193359,25.5888672 C76.9182943,25.1767578 78.0172526,25.2454427 79.1162109,25.7949219 C80.2151693,26.344401 80.9707031,27.2373047 81.3828125,28.4736328 C81.7949219,29.4352214 81.7949219,30.3968099 81.3828125,31.3583984 C80.9707031,32.319987 80.3525391,33.0755208 79.5283203,33.625 C79.5283203,33.4876302 79.4596354,33.3502604 79.3222656,33.2128906 C80.0091146,32.6634115 80.5585938,31.9765625 80.9707031,31.1523438 C81.2454427,30.328125 81.2454427,29.5039063 80.9707031,28.6796875 C80.5585938,27.5807292 79.8717448,26.8251953 78.9101563,26.4130859 C77.9485677,25.8636068 76.9869792,25.726237 76.0253906,26.0009766 C74.9264323,26.4130859 74.1022135,27.0999349 73.5527344,28.0615234 C73.140625,29.023112 73.0719401,30.0533854 73.3466797,31.1523438 C73.6214193,31.9765625 74.1708984,32.6634115 74.9951172,33.2128906 C75.6819661,33.625 76.4375,33.8310547 77.2617188,33.8310547 C77.3990885,33.8310547 77.4677734,33.8997396 77.4677734,34.0371094 C77.4677734,34.1744792 77.4677734,34.2431641 77.4677734,34.2431641 Z M78.2919922,33.625 C78.5667318,33.625 78.7727865,33.5563151 78.9101562,33.4189453 C79.047526,33.2815755 79.1848958,33.2128906 79.3222656,33.2128906 C79.3222656,33.3502604 79.3909505,33.4876302 79.5283203,33.625 C79.3909505,33.7623698 79.2535807,33.8997396 79.1162109,34.0371094 C78.8414714,34.0371094 78.6354167,34.0371094 78.4980469,34.0371094 C78.3606771,34.1744792 78.2233073,34.2431641 78.0859375,34.2431641 C77.9485677,34.2431641 77.742513,34.2431641 77.4677734,34.2431641 C77.4677734,34.2431641 77.3990885,34.1057943 77.2617188,33.8310547 C77.5364583,33.8310547 77.742513,33.8310547 77.8798828,33.8310547 C78.0172526,33.6936849 78.1546224,33.625 78.2919922,33.625 Z M80.3525391,28.6796875 C80.3525391,28.5423177 80.3525391,28.4736328 80.3525391,28.4736328 C80.3525391,28.336263 80.3525391,28.2675781 80.3525391,28.2675781 C80.3525391,28.2675781 80.3525391,28.336263 80.3525391,28.4736328 C80.3525391,28.6110026 80.3525391,28.6796875 80.3525391,28.6796875 Z M73.9648438,30.9462891 C74.1022135,31.633138 74.5143229,32.1826172 75.2011719,32.5947266 C75.750651,33.0068359 76.4375,33.2128906 77.2617188,33.2128906 C77.2617188,33.3502604 77.2617188,33.5563151 77.2617188,33.8310547 C76.4375,33.8310547 75.6819661,33.625 74.9951172,33.2128906 C74.1708984,32.6634115 73.6214193,31.9765625 73.3466797,31.1523438 C73.0719401,30.0533854 73.140625,29.023112 73.5527344,28.0615234 C74.1022135,27.0999349 74.9264323,26.4130859 76.0253906,26.0009766 C76.9869792,25.726237 77.9485677,25.8636068 78.9101562,26.4130859 C79.8717448,26.8251953 80.5585937,27.5807292 80.9707031,28.6796875 C81.2454427,29.5039062 81.2454427,30.328125 80.9707031,31.1523438 C80.5585937,31.9765625 80.0091146,32.6634115 79.3222656,33.2128906 C79.3222656,33.0755208 79.2535807,32.8694661 79.1162109,32.5947266 C79.8030599,32.1826172 80.2151693,31.633138 80.3525391,30.9462891 C80.6272786,30.2594401 80.6272786,29.5039062 80.3525391,28.6796875 C80.4899089,28.8170573 80.5585937,28.9544271 80.5585937,29.0917969 C80.5585937,29.2291667 80.5585937,29.2978516 80.5585937,29.2978516 C80.5585937,29.2978516 80.5585937,29.2291667 80.5585937,29.0917969 C80.5585937,29.0917969 80.4899089,28.9544271 80.3525391,28.6796875 C80.3525391,28.6796875 80.3525391,28.6110026 80.3525391,28.4736328 C80.3525391,28.336263 80.3525391,28.2675781 80.3525391,28.2675781 C80.3525391,28.2675781 80.3525391,28.336263 80.3525391,28.4736328 C80.3525391,28.4736328 80.3525391,28.5423177 80.3525391,28.6796875 C80.0777995,27.8554687 79.5283203,27.2373047 78.7041016,26.8251953 C77.8798828,26.4130859 76.9869792,26.344401 76.0253906,26.6191406 C75.2011719,26.8938802 74.5830078,27.4433594 74.1708984,28.2675781 C73.6214193,29.0917969 73.5527344,29.9847005 73.9648438,30.9462891 Z M79.3222656,33.2128906 C79.1848958,33.2128906 79.047526,33.2815755 78.9101562,33.4189453 C78.7727865,33.5563151 78.5667318,33.625 78.2919922,33.625 C78.1546224,33.625 78.0172526,33.6936849 77.8798828,33.8310547 C77.742513,33.8310547 77.5364583,33.8310547 77.2617188,33.8310547 C77.2617188,33.6936849 77.2617188,33.4876302 77.2617188,33.2128906 C77.3990885,33.2128906 77.5364583,33.2128906 77.6738281,33.2128906 C77.8111979,33.2128906 78.0172526,33.2128906 78.2919922,33.2128906 C78.429362,33.0755208 78.5667318,32.938151 78.7041016,32.8007812 C78.8414714,32.8007812 78.9788411,32.7320964 79.1162109,32.5947266 C79.1162109,32.7320964 79.1848958,32.8007812 79.3222656,32.8007812 C79.3222656,32.938151 79.3222656,33.0755208 79.3222656,33.2128906 Z M92.0976562,78.7509766 C91.9602865,78.3388672 91.7542318,77.7207031 91.4794922,76.8964844 C91.0673828,77.0338542 90.4492188,77.2399089 89.625,77.5146484 C90.9986979,79.7125651 93.1279297,83.0094401 96.0126953,87.4052734 C95.8753255,84.7952474 95.6692708,80.8802083 95.3945312,75.6601562 C94.9824219,75.797526 94.3642578,76.0035807 93.5400391,76.2783203 C93.6774089,76.6904297 93.8834635,77.3085938 94.1582031,78.1328125 C93.7460938,78.2701823 93.0592448,78.476237 92.0976562,78.7509766 Z M92.0976562,78.7509766 C92.5097656,78.6136068 93.1966146,78.4075521 94.1582031,78.1328125 C94.0208333,77.7207031 93.8147786,77.1025391 93.5400391,76.2783203 C92.9905599,76.4156901 92.3037109,76.6217448 91.4794922,76.8964844 C91.616862,77.3085938 91.8229167,77.9267578 92.0976562,78.7509766 Z M42.6445312,34.2431641 C39.6223958,43.7216797 35.0205078,57.9394531 28.8388672,76.8964844 C28.289388,76.7591146 27.6025391,76.5530599 26.7783203,76.2783203 C29.8004557,66.7998047 34.4710286,52.5820312 40.7900391,33.625 C40.9274089,33.7623698 41.0647786,33.8310547 41.2021484,33.8310547 C41.3395182,33.9684245 41.476888,34.0371094 41.6142578,34.0371094 C41.8889974,34.1744792 42.0950521,34.2431641 42.2324219,34.2431641 C42.3697917,34.2431641 42.5071615,34.2431641 42.6445312,34.2431641 Z M30.6933594,77.5146484 C29.1822917,79.7125651 26.984375,83.0094401 24.0996094,87.4052734 C24.2369792,84.7952474 24.5117188,80.8802083 24.9238281,75.6601562 C25.3359375,75.797526 25.9541016,76.0035807 26.7783203,76.2783203 C26.6409505,76.6904297 26.4348958,77.3085938 26.1601562,78.1328125 C26.5722656,78.2701823 27.1904297,78.5449219 28.0146484,78.9570312 C28.1520182,78.4075521 28.4267578,77.7207031 28.8388672,76.8964844 C29.2509766,77.0338542 29.8691406,77.2399089 30.6933594,77.5146484 Z M26.1601562,78.1328125 C26.297526,77.7207031 26.5035807,77.1025391 26.7783203,76.2783203 C27.1904297,76.4156901 27.8085938,76.6217448 28.6328125,76.8964844 C28.4954427,77.3085938 28.289388,77.9954427 28.0146484,78.9570312 C27.6025391,78.8196615 26.984375,78.5449219 26.1601562,78.1328125 Z M39.3476562,28.6796875 C39.0729167,29.5039063 39.0729167,30.328125 39.3476562,31.1523438 C39.6223958,31.9765625 40.1031901,32.6634115 40.7900391,33.2128906 C40.7900391,33.3502604 40.7900391,33.4876302 40.7900391,33.625 C39.8284505,33.0755208 39.2102865,32.319987 38.9355469,31.3583984 C38.5234375,30.3968099 38.4547526,29.4352214 38.7294922,28.4736328 C39.1416016,27.2373047 39.8971354,26.344401 40.9960938,25.7949219 C42.0950521,25.2454427 43.2626953,25.1767578 44.4990234,25.5888672 C45.7353516,26.0009766 46.6282552,26.7565104 47.1777344,27.8554688 C47.7272135,28.9544271 47.7958984,30.1220703 47.3837891,31.3583984 C46.9716797,32.319987 46.3535156,33.0755208 45.5292969,33.625 C44.7050781,34.1744792 43.7434896,34.3805339 42.6445312,34.2431641 C42.781901,34.2431641 42.8505859,34.1057943 42.8505859,33.8310547 C43.8121745,33.8310547 44.6363932,33.625 45.3232422,33.2128906 C46.0100911,32.6634115 46.4908854,31.9765625 46.765625,31.1523438 C47.1777344,30.0533854 47.1090495,29.023112 46.5595703,28.0615234 C46.1474609,27.0999349 45.3919271,26.4130859 44.2929688,26.0009766 C43.3313802,25.726237 42.3011068,25.7949219 41.2021484,26.2070313 C40.2405599,26.7565104 39.6223958,27.5807292 39.3476562,28.6796875 Z M47.3837891,31.1523438 C47.3837891,31.014974 47.452474,30.8776042 47.5898438,30.7402344 C47.5898438,30.7402344 47.5898438,30.6715495 47.5898438,30.5341797 C47.5898438,30.6715495 47.5211589,30.8089193 47.3837891,30.9462891 C47.3837891,30.9462891 47.3837891,31.014974 47.3837891,31.1523438 Z M47.3837891,31.3583984 C47.3837891,31.3583984 47.3837891,31.2897135 47.3837891,31.1523438 C47.3837891,31.1523438 47.3837891,31.2210286 47.3837891,31.3583984 C47.3837891,31.3583984 47.3837891,31.3583984 47.3837891,31.3583984 Z M42.6445312,34.2431641 C42.5071615,34.2431641 42.3697917,34.2431641 42.2324219,34.2431641 C42.0950521,34.2431641 41.8889974,34.1744792 41.6142578,34.0371094 C41.476888,34.0371094 41.3395182,33.9684245 41.2021484,33.8310547 C41.0647786,33.8310547 40.9274089,33.7623698 40.7900391,33.625 C40.7900391,33.4876302 40.858724,33.3502604 40.9960938,33.2128906 C41.1334635,33.2128906 41.2708333,33.2815755 41.4082031,33.4189453 C41.5455729,33.5563151 41.6829427,33.625 41.8203125,33.625 C41.9576823,33.625 42.163737,33.6936849 42.4384766,33.8310547 C42.5758464,33.8310547 42.7132161,33.8310547 42.8505859,33.8310547 C42.8505859,33.8310547 42.8505859,33.8997396 42.8505859,34.0371094 C42.8505859,34.1744792 42.781901,34.2431641 42.6445312,34.2431641 Z M46.765625,31.1523438 C46.4908854,31.9765625 46.0100911,32.6634115 45.3232422,33.2128906 C44.6363932,33.625 43.8121745,33.8310547 42.8505859,33.8310547 C42.9879557,33.6936849 43.0566406,33.4876302 43.0566406,33.2128906 C43.7434896,33.2128906 44.4303385,33.0068359 45.1171875,32.5947266 C45.6666667,32.1826172 46.078776,31.633138 46.3535156,30.9462891 C46.6282552,29.9847005 46.5595703,29.0917969 46.1474609,28.2675781 C45.7353516,27.4433594 45.0485026,26.8938802 44.0869141,26.6191406 C43.2626953,26.344401 42.4384766,26.4130859 41.6142578,26.8251953 C40.6526693,27.2373047 40.0345052,27.8554687 39.7597656,28.6796875 C39.8971354,28.6796875 39.9658203,28.6110026 39.9658203,28.4736328 C39.9658203,28.4736328 39.9658203,28.4049479 39.9658203,28.2675781 C39.9658203,28.4049479 39.8971354,28.5423177 39.7597656,28.6796875 C39.7597656,28.8170573 39.7597656,28.9544271 39.7597656,29.0917969 C39.7597656,29.0917969 39.7597656,29.0917969 39.7597656,29.0917969 C39.7597656,29.0917969 39.7597656,29.1604818 39.7597656,29.2978516 C39.7597656,29.1604818 39.7597656,29.0917969 39.7597656,29.0917969 C39.7597656,29.0917969 39.7597656,29.0917969 39.7597656,29.0917969 C39.7597656,28.9544271 39.7597656,28.8857422 39.7597656,28.8857422 C39.7597656,28.8857422 39.7597656,28.8170573 39.7597656,28.6796875 C39.6223958,29.5039062 39.6223958,30.2594401 39.7597656,30.9462891 C40.0345052,31.633138 40.4466146,32.1826172 40.9960938,32.5947266 C40.9960938,32.7320964 40.9960938,32.938151 40.9960938,33.2128906 C40.171875,32.6634115 39.6223958,31.9765625 39.3476562,31.1523438 C39.0729167,30.328125 39.0729167,29.5039062 39.3476562,28.6796875 C39.6223958,27.5807292 40.2405599,26.8251953 41.2021484,26.4130859 C42.3011068,25.8636068 43.3313802,25.726237 44.2929688,26.0009766 C45.3919271,26.4130859 46.1474609,27.0999349 46.5595703,28.0615234 C47.1090495,29.023112 47.1777344,30.0533854 46.765625,31.1523438 Z M39.7597656,29.0917969 C39.7597656,28.9544271 39.7597656,28.8170573 39.7597656,28.6796875 C39.8971354,28.5423177 39.9658203,28.4049479 39.9658203,28.2675781 C39.9658203,28.4049479 39.9658203,28.4736328 39.9658203,28.4736328 C39.9658203,28.6110026 39.8971354,28.6796875 39.7597656,28.6796875 C39.7597656,28.8170573 39.7597656,28.8857422 39.7597656,28.8857422 C39.7597656,28.8857422 39.7597656,28.9544271 39.7597656,29.0917969 Z M42.0263672,33.2128906 C42.163737,33.2128906 42.3011068,33.2128906 42.4384766,33.2128906 C42.7132161,33.2128906 42.9192708,33.2128906 43.0566406,33.2128906 C43.0566406,33.3502604 42.9879557,33.5563151 42.8505859,33.8310547 C42.7132161,33.8310547 42.5758464,33.8310547 42.4384766,33.8310547 C42.163737,33.6936849 41.9576823,33.625 41.8203125,33.625 C41.6829427,33.625 41.5455729,33.5563151 41.4082031,33.4189453 C41.2708333,33.2815755 41.1334635,33.2128906 40.9960938,33.2128906 C40.9960938,33.0755208 40.9960938,32.8694661 40.9960938,32.5947266 C41.1334635,32.7320964 41.3395182,32.8007812 41.6142578,32.8007812 C41.7516276,32.938151 41.8889974,33.0755208 42.0263672,33.2128906 Z M69.2255859,110.895508 C66.8902995,110.208659 63.5247396,109.315755 59.1289062,108.216797 C59.4036458,108.491536 59.6097005,108.903646 59.7470703,109.453125 C60.0218099,109.865234 60.1591797,110.346029 60.1591797,110.895508 C60.1591797,111.444987 60.0218099,111.925781 59.7470703,112.337891 C59.6097005,112.75 59.4036458,113.162109 59.1289062,113.574219 C60.7773438,113.162109 62.4257812,112.681315 64.0742188,112.131836 C65.7226562,111.719727 67.4397786,111.307617 69.2255859,110.895508 Z M59.1289062,113.574219 C58.9915365,113.574219 58.7167969,113.642904 58.3046875,113.780273 C57.8925781,114.192383 57.4804688,114.467122 57.0683594,114.604492 C56.65625,114.741862 56.1754557,114.810547 55.6259766,114.810547 C54.5270182,114.810547 53.5654297,114.467122 52.7412109,113.780273 C52.054362,112.956055 51.7109375,111.994466 51.7109375,110.895508 C51.7109375,109.796549 52.054362,108.834961 52.7412109,108.010742 C53.5654297,107.323893 54.5270182,106.980469 55.6259766,106.980469 C56.1754557,106.980469 56.65625,107.049154 57.0683594,107.186523 C57.4804688,107.461263 57.8925781,107.736003 58.3046875,108.010742 C58.4420573,108.010742 58.7167969,108.079427 59.1289062,108.216797 C58.7167969,107.667318 58.2360026,107.255208 57.6865234,106.980469 C56.9996745,106.568359 56.3128255,106.362305 55.6259766,106.362305 C54.3896484,106.362305 53.2906901,106.843099 52.3291016,107.804688 C51.5048828,108.628906 51.0927734,109.65918 51.0927734,110.895508 C51.0927734,112.131836 51.5048828,113.162109 52.3291016,113.986328 C53.2906901,114.947917 54.3896484,115.428711 55.6259766,115.428711 C56.3128255,115.428711 56.9996745,115.222656 57.6865234,114.810547 C58.2360026,114.535807 58.7167969,114.123698 59.1289062,113.574219 Z M59.7470703,109.865234 C59.7470703,110.277344 59.7470703,110.964193 59.7470703,111.925781 C59.7470703,111.925781 59.6097005,111.925781 59.3349609,111.925781 C59.1975911,112.337891 59.0602214,112.681315 58.9228516,112.956055 C58.7854818,113.230794 58.5794271,113.505534 58.3046875,113.780273 C58.4420573,113.780273 58.7167969,113.711589 59.1289062,113.574219 C59.4036458,113.162109 59.6097005,112.75 59.7470703,112.337891 C60.0218099,111.925781 60.1591797,111.444987 60.1591797,110.895508 C60.1591797,110.346029 60.0218099,109.865234 59.7470703,109.453125 C59.6097005,109.041016 59.4036458,108.628906 59.1289062,108.216797 C58.9915365,108.079427 58.7167969,108.010742 58.3046875,108.010742 C58.5794271,108.285482 58.7854818,108.560221 58.9228516,108.834961 C59.1975911,109.109701 59.3349609,109.453125 59.3349609,109.865234 C59.4723307,109.865234 59.5410156,109.865234 59.5410156,109.865234 C59.6783854,109.865234 59.7470703,109.865234 59.7470703,109.865234 Z M59.7470703,111.925781 C59.7470703,111.513672 59.7470703,110.826823 59.7470703,109.865234 C59.7470703,109.865234 59.6097005,109.865234 59.3349609,109.865234 C59.4723307,110.002604 59.5410156,110.139974 59.5410156,110.277344 C59.5410156,110.552083 59.5410156,110.758138 59.5410156,110.895508 C59.5410156,111.032878 59.5410156,111.170247 59.5410156,111.307617 C59.5410156,111.582357 59.4723307,111.788411 59.3349609,111.925781 C59.4723307,111.925781 59.5410156,111.925781 59.5410156,111.925781 C59.6783854,111.925781 59.7470703,111.925781 59.7470703,111.925781 Z M55.6259766,114.398438 C55.7633464,114.398438 55.9007161,114.398438 56.0380859,114.398438 C56.0380859,114.398438 56.0380859,114.398438 56.0380859,114.398438 C56.0380859,114.398438 56.0380859,114.398438 56.0380859,114.398438 C55.9007161,114.398438 55.7633464,114.398438 55.6259766,114.398438 C55.4886068,114.398438 55.351237,114.398438 55.2138672,114.398438 C55.0764974,114.398438 55.0078125,114.398438 55.0078125,114.398438 C55.0078125,114.398438 55.0764974,114.398438 55.2138672,114.398438 C55.351237,114.398438 55.4886068,114.398438 55.6259766,114.398438 C54.664388,114.398438 53.8401693,114.055013 53.1533203,113.368164 C52.4664714,112.681315 52.1230469,111.857096 52.1230469,110.895508 C52.1230469,109.933919 52.4664714,109.109701 53.1533203,108.422852 C53.8401693,107.736003 54.664388,107.392578 55.6259766,107.392578 C56.0380859,107.392578 56.3815104,107.461263 56.65625,107.598633 C57.0683594,107.736003 57.4117839,107.942057 57.6865234,108.216797 C57.6865234,108.079427 57.6865234,107.942057 57.6865234,107.804688 C57.8238932,107.804688 58.0299479,107.873372 58.3046875,108.010742 C57.8925781,107.598633 57.4804688,107.323893 57.0683594,107.186523 C56.65625,107.049154 56.1754557,106.980469 55.6259766,106.980469 C54.5270182,106.980469 53.5654297,107.323893 52.7412109,108.010742 C52.054362,108.834961 51.7109375,109.796549 51.7109375,110.895508 C51.7109375,111.994466 52.054362,112.956055 52.7412109,113.780273 C53.5654297,114.467122 54.5270182,114.810547 55.6259766,114.810547 C56.1754557,114.810547 56.65625,114.741862 57.0683594,114.604492 C57.4804688,114.329753 57.8925781,114.055013 58.3046875,113.780273 C58.1673177,113.780273 57.961263,113.848958 57.6865234,113.986328 C57.6865234,113.848958 57.6865234,113.711589 57.6865234,113.574219 C57.4117839,113.848958 57.0683594,114.055013 56.65625,114.192383 C56.3815104,114.329753 56.0380859,114.398438 55.6259766,114.398438 Z M58.9228516,109.865234 C59.0602214,109.865234 59.1975911,109.865234 59.3349609,109.865234 C59.3349609,109.453125 59.1975911,109.109701 58.9228516,108.834961 C58.7854818,108.422852 58.5794271,108.148112 58.3046875,108.010742 C58.1673177,107.873372 57.961263,107.804688 57.6865234,107.804688 C57.6865234,107.942057 57.6865234,108.079427 57.6865234,108.216797 C57.961263,108.354167 58.1673177,108.560221 58.3046875,108.834961 C58.5794271,109.109701 58.7854818,109.453125 58.9228516,109.865234 Z M58.9228516,111.925781 C58.7854818,112.200521 58.5794271,112.47526 58.3046875,112.75 C58.1673177,113.02474 57.961263,113.299479 57.6865234,113.574219 C57.6865234,113.711589 57.6865234,113.848958 57.6865234,113.986328 C57.8238932,113.986328 58.0299479,113.917643 58.3046875,113.780273 C58.5794271,113.505534 58.7854818,113.230794 58.9228516,112.956055 C59.1975911,112.681315 59.3349609,112.337891 59.3349609,111.925781 C59.3349609,111.925781 59.266276,111.925781 59.1289062,111.925781 C58.9915365,111.925781 58.9228516,111.925781 58.9228516,111.925781 Z M58.9228516,111.925781 C58.9228516,111.925781 59.0602214,111.925781 59.3349609,111.925781 C59.4723307,111.788411 59.5410156,111.651042 59.5410156,111.513672 C59.5410156,111.238932 59.5410156,111.032878 59.5410156,110.895508 C59.5410156,110.758138 59.5410156,110.552083 59.5410156,110.277344 C59.5410156,110.139974 59.4723307,110.002604 59.3349609,109.865234 C59.1975911,109.865234 59.0602214,109.865234 58.9228516,109.865234 C58.9228516,110.002604 58.9228516,110.139974 58.9228516,110.277344 C58.9228516,110.552083 58.9228516,110.758138 58.9228516,110.895508 C58.9228516,111.032878 58.9228516,111.238932 58.9228516,111.513672 C58.9228516,111.651042 58.9228516,111.788411 58.9228516,111.925781 Z M26.1601562,31.7705078 C26.0227865,31.7705078 25.8854167,31.7018229 25.7480469,31.5644531 C25.7480469,31.5644531 25.679362,31.4957682 25.5419922,31.3583984 C25.4046224,31.3583984 25.3359375,31.2897135 25.3359375,31.1523437 C25.3359375,31.014974 25.3359375,30.8776042 25.3359375,30.7402344 C25.3359375,30.6028646 25.3359375,30.5341797 25.3359375,30.5341797 C25.3359375,30.3968099 25.4046224,30.2594401 25.5419922,30.1220703 C25.8167318,29.8473307 26.0914714,29.5725911 26.3662109,29.2978516 C26.7783203,28.8857422 27.1904297,28.4736328 27.6025391,28.0615234 C27.7399089,27.9241536 27.8085938,27.8554688 27.8085938,27.8554688 C27.9459635,27.8554688 28.0833333,27.8554688 28.2207031,27.8554688 C28.2207031,27.8554688 28.2207031,27.8554688 28.2207031,27.8554688 C28.2207031,27.8554688 28.289388,27.8554688 28.4267578,27.8554688 C28.4267578,27.8554688 28.4267578,27.8554688 28.4267578,27.8554688 C28.5641276,27.8554688 28.6328125,27.8554688 28.6328125,27.8554688 C28.7701823,27.8554688 28.8388672,27.9241536 28.8388672,28.0615234 C28.976237,28.0615234 29.0449219,28.1302083 29.0449219,28.2675781 C29.0449219,28.2675781 29.1136068,28.336263 29.2509766,28.4736328 C29.2509766,28.4736328 29.2509766,28.5423177 29.2509766,28.6796875 C29.2509766,30.328125 29.2509766,32.4573568 29.2509766,35.0673828 C29.2509766,37.5400391 29.2509766,40.4934896 29.2509766,43.9277344 C29.2509766,44.0651042 29.1822917,44.202474 29.0449219,44.3398438 C29.0449219,44.3398438 28.976237,44.4085286 28.8388672,44.5458984 C28.8388672,44.6832682 28.7701823,44.7519531 28.6328125,44.7519531 C28.4954427,44.7519531 28.3580729,44.7519531 28.2207031,44.7519531 C28.2207031,44.7519531 28.1520182,44.7519531 28.0146484,44.7519531 C27.8772786,44.7519531 27.7399089,44.6832682 27.6025391,44.5458984 C27.6025391,44.4085286 27.5338542,44.3398438 27.3964844,44.3398438 C27.3964844,44.202474 27.3964844,44.0651042 27.3964844,43.9277344 C27.3964844,42.4166667 27.3964844,40.5621745 27.3964844,38.3642578 C27.3964844,36.3037109 27.3964844,33.7623698 27.3964844,30.7402344 C27.3964844,30.8776042 27.3277995,31.014974 27.1904297,31.1523437 C27.0530599,31.1523437 26.9156901,31.2210286 26.7783203,31.3583984 C26.6409505,31.4957682 26.5722656,31.5644531 26.5722656,31.5644531 C26.4348958,31.7018229 26.297526,31.7705078 26.1601562,31.7705078 Z M88.5947266,28.0615234 C88.8694661,27.6494141 89.1442057,27.3059896 89.4189453,27.03125 C89.6936849,26.6191406 90.0371094,26.2757161 90.4492188,26.0009766 C90.8613281,25.8636068 91.2734375,25.726237 91.6855469,25.5888672 C92.0976562,25.4514974 92.5784505,25.3828125 93.1279297,25.3828125 C94.0895182,25.3828125 94.8450521,25.5201823 95.3945312,25.7949219 C96.0813802,25.9322917 96.6308594,26.2757161 97.0429688,26.8251953 C97.4550781,27.2373047 97.7298177,27.718099 97.8671875,28.2675781 C98.0045573,28.8170573 98.0732422,29.3665365 98.0732422,29.9160156 C98.0732422,30.4654948 98.0045573,30.9462891 97.8671875,31.3583984 C97.7298177,31.9078776 97.4550781,32.3886719 97.0429688,32.8007812 C96.7682292,33.3502604 96.3561198,33.8310547 95.8066406,34.2431641 C95.2571615,34.7926432 94.5703125,35.2734375 93.7460938,35.6855469 C93.1966146,36.0976563 92.6471354,36.5097656 92.0976562,36.921875 C91.6855469,37.3339844 91.3421224,37.8147786 91.0673828,38.3642578 C90.7926432,38.7763672 90.5865885,39.1884766 90.4492188,39.6005859 C90.1744792,40.0126953 90.0371094,40.3561198 90.0371094,40.6308594 C90.8613281,40.6308594 91.8916016,40.6308594 93.1279297,40.6308594 C94.3642578,40.6308594 95.8066406,40.6308594 97.4550781,40.6308594 C97.5924479,40.6308594 97.7298177,40.6308594 97.8671875,40.6308594 C97.8671875,40.7682292 97.9358724,40.8369141 98.0732422,40.8369141 C98.210612,40.9742839 98.2792969,41.1116536 98.2792969,41.2490234 C98.2792969,41.3863932 98.2792969,41.4550781 98.2792969,41.4550781 C98.2792969,41.5924479 98.2792969,41.7298177 98.2792969,41.8671875 C98.2792969,42.0045573 98.210612,42.1419271 98.0732422,42.2792969 C97.9358724,42.2792969 97.8671875,42.2792969 97.8671875,42.2792969 C97.7298177,42.4166667 97.5924479,42.4853516 97.4550781,42.4853516 C96.7682292,42.4853516 96.0813802,42.4853516 95.3945312,42.4853516 C94.5703125,42.4853516 93.8147786,42.4853516 93.1279297,42.4853516 C92.4410807,42.4853516 91.7542318,42.4853516 91.0673828,42.4853516 C90.2431641,42.4853516 89.4876302,42.4853516 88.8007812,42.4853516 C88.8007812,42.4853516 88.7320964,42.4853516 88.5947266,42.4853516 C88.5947266,42.3479818 88.5947266,42.2792969 88.5947266,42.2792969 C88.4573568,42.2792969 88.3886719,42.2792969 88.3886719,42.2792969 C88.2513021,42.2792969 88.1826172,42.210612 88.1826172,42.0732422 C88.1826172,42.0732422 88.1826172,42.0732422 88.1826172,42.0732422 C88.0452474,41.9358724 87.9765625,41.8671875 87.9765625,41.8671875 C87.9765625,41.7298177 87.9765625,41.6611328 87.9765625,41.6611328 C87.9765625,41.6611328 87.9765625,41.5924479 87.9765625,41.4550781 C87.9765625,41.4550781 87.9765625,41.4550781 87.9765625,41.4550781 C87.9765625,41.4550781 87.9765625,41.4550781 87.9765625,41.4550781 C87.9765625,41.4550781 87.9765625,41.3177083 87.9765625,41.0429688 C88.1139323,40.905599 88.1826172,40.6308594 88.1826172,40.21875 C88.319987,39.8066406 88.5260417,39.3258464 88.8007812,38.7763672 C88.938151,38.3642578 89.2128906,37.8834635 89.625,37.3339844 C89.7623698,37.0592448 89.8997396,36.7845052 90.0371094,36.5097656 C90.311849,36.235026 90.5865885,35.9602865 90.8613281,35.6855469 C91.1360677,35.4108073 91.4108073,35.1360677 91.6855469,34.8613281 C92.0976562,34.5865885 92.4410807,34.3805339 92.7158203,34.2431641 C93.5400391,33.6936849 94.226888,33.2128906 94.7763672,32.8007812 C95.1884766,32.3886719 95.531901,32.0452474 95.8066406,31.7705078 C95.9440104,31.3583984 96.0813802,31.014974 96.21875,30.7402344 C96.21875,30.328125 96.21875,29.9847005 96.21875,29.7099609 C96.21875,29.7099609 96.21875,29.641276 96.21875,29.5039063 C96.21875,29.3665365 96.21875,29.2978516 96.21875,29.2978516 C96.21875,29.1604818 96.21875,29.023112 96.21875,28.8857422 C96.21875,28.7483724 96.1500651,28.6796875 96.0126953,28.6796875 C96.0126953,28.4049479 95.9440104,28.1988932 95.8066406,28.0615234 C95.6692708,27.9241536 95.4632161,27.7867839 95.1884766,27.6494141 C94.913737,27.5120443 94.6389974,27.3746745 94.3642578,27.2373047 C94.0895182,27.2373047 93.6774089,27.2373047 93.1279297,27.2373047 C92.8531901,27.2373047 92.5784505,27.2373047 92.3037109,27.2373047 C92.0289714,27.3746745 91.7542318,27.5120443 91.4794922,27.6494141 C91.2047526,27.7867839 90.9986979,27.9241536 90.8613281,28.0615234 C90.5865885,28.336263 90.3805339,28.6110026 90.2431641,28.8857422 C90.2431641,29.023112 90.1744792,29.0917969 90.0371094,29.0917969 C90.0371094,29.2291667 89.9684245,29.2978516 89.8310547,29.2978516 C89.6936849,29.4352214 89.5563151,29.4352214 89.4189453,29.2978516 C89.2815755,29.2978516 89.2128906,29.2978516 89.2128906,29.2978516 C89.0755208,29.2978516 88.938151,29.2291667 88.8007812,29.0917969 C88.8007812,29.0917969 88.7320964,29.023112 88.5947266,28.8857422 C88.5947266,28.7483724 88.5947266,28.6110026 88.5947266,28.4736328 C88.5947266,28.336263 88.5947266,28.1988932 88.5947266,28.0615234 Z M51.5048828,126.349609 C51.367513,126.21224 51.1614583,126.07487 50.8867188,125.9375 C50.749349,125.9375 50.6119792,125.868815 50.4746094,125.731445 C50.0625,125.594076 49.7190755,125.525391 49.4443359,125.525391 C49.0322266,125.388021 48.6201172,125.319336 48.2080078,125.319336 C48.2080078,125.319336 48.2080078,125.319336 48.2080078,125.319336 C48.3453776,125.319336 48.4140625,125.319336 48.4140625,125.319336 C48.8261719,125.319336 49.2382812,125.250651 49.6503906,125.113281 C50.0625,125.113281 50.4059245,124.975911 50.6806641,124.701172 C51.0927734,124.426432 51.367513,124.151693 51.5048828,123.876953 C51.6422526,123.464844 51.7109375,123.121419 51.7109375,122.84668 C51.7109375,122.57194 51.7109375,122.365885 51.7109375,122.228516 C51.7109375,122.091146 51.6422526,121.953776 51.5048828,121.816406 C51.5048828,121.679036 51.4361979,121.541667 51.2988281,121.404297 C51.1614583,121.266927 51.0927734,121.129557 51.0927734,120.992188 C50.9554036,120.992188 50.8180339,120.923503 50.6806641,120.786133 C50.5432943,120.648763 50.3372396,120.511393 50.0625,120.374023 C49.9251302,120.374023 49.7877604,120.374023 49.6503906,120.374023 C49.5130208,120.236654 49.3069661,120.167969 49.0322266,120.167969 C48.757487,120.167969 48.4827474,120.236654 48.2080078,120.374023 C47.9332682,120.374023 47.6585286,120.442708 47.3837891,120.580078 C47.2464193,120.580078 47.0403646,120.648763 46.765625,120.786133 C46.4908854,120.923503 46.2848307,121.129557 46.1474609,121.404297 C46.1474609,121.541667 46.078776,121.610352 45.9414062,121.610352 C45.8040365,121.610352 45.6666667,121.610352 45.5292969,121.610352 C45.3919271,121.610352 45.3232422,121.610352 45.3232422,121.610352 C45.1858724,121.610352 45.0485026,121.541667 44.9111328,121.404297 C44.773763,121.404297 44.7050781,121.335612 44.7050781,121.198242 C44.7050781,121.060872 44.7050781,120.923503 44.7050781,120.786133 C44.7050781,120.648763 44.7050781,120.580078 44.7050781,120.580078 C44.7050781,120.442708 44.773763,120.305339 44.9111328,120.167969 C45.1858724,119.893229 45.460612,119.61849 45.7353516,119.34375 C46.0100911,119.20638 46.3535156,119.06901 46.765625,118.931641 C47.0403646,118.794271 47.3837891,118.656901 47.7958984,118.519531 C48.2080078,118.519531 48.6888021,118.519531 49.2382812,118.519531 C49.5130208,118.519531 49.7877604,118.519531 50.0625,118.519531 C50.3372396,118.519531 50.6119792,118.588216 50.8867188,118.725586 C51.1614583,118.862956 51.4361979,119.06901 51.7109375,119.34375 C51.9856771,119.48112 52.1917318,119.61849 52.3291016,119.755859 C52.6038411,120.030599 52.8098958,120.305339 52.9472656,120.580078 C53.0846354,120.717448 53.2220052,120.923503 53.359375,121.198242 C53.359375,121.472982 53.4280599,121.747721 53.5654297,122.022461 C53.5654297,122.297201 53.5654297,122.57194 53.5654297,122.84668 C53.5654297,122.84668 53.5654297,122.84668 53.5654297,122.84668 C53.5654297,122.84668 53.5654297,122.84668 53.5654297,122.84668 C53.5654297,123.396159 53.4280599,123.945638 53.1533203,124.495117 C52.8785807,125.044596 52.5351562,125.525391 52.1230469,125.9375 C51.9856771,126.07487 51.8483073,126.143555 51.7109375,126.143555 C51.7109375,126.143555 51.6422526,126.21224 51.5048828,126.349609 Z M45.3232422,134.797852 C44.9111328,134.660482 44.5677083,134.454427 44.2929688,134.179688 C43.8808594,133.767578 43.5374349,133.355469 43.2626953,132.943359 C43.2626953,132.943359 43.2626953,132.874674 43.2626953,132.737305 C43.2626953,132.737305 43.2626953,132.66862 43.2626953,132.53125 C43.2626953,132.53125 43.2626953,132.53125 43.2626953,132.53125 C43.2626953,132.39388 43.2626953,132.325195 43.2626953,132.325195 C43.2626953,132.187826 43.2626953,132.119141 43.2626953,132.119141 C43.4000651,131.981771 43.5374349,131.844401 43.6748047,131.707031 C43.6748047,131.707031 43.7434896,131.707031 43.8808594,131.707031 C44.0182292,131.707031 44.155599,131.707031 44.2929688,131.707031 C44.4303385,131.707031 44.4990234,131.707031 44.4990234,131.707031 C44.6363932,131.844401 44.773763,131.981771 44.9111328,132.119141 C45.0485026,132.39388 45.2545573,132.599935 45.5292969,132.737305 C45.6666667,133.012044 45.8727214,133.218099 46.1474609,133.355469 C46.4222005,133.492839 46.6969401,133.561523 46.9716797,133.561523 C47.3837891,133.698893 47.7272135,133.767578 48.0019531,133.767578 C48.4140625,133.767578 48.8261719,133.698893 49.2382812,133.561523 C49.7877604,133.424154 50.1998698,133.218099 50.4746094,132.943359 C50.8867188,132.66862 51.2301432,132.325195 51.5048828,131.913086 C51.6422526,131.500977 51.7109375,131.020182 51.7109375,130.470703 C51.7109375,130.195964 51.7109375,129.989909 51.7109375,129.852539 C51.7109375,129.577799 51.6422526,129.371745 51.5048828,129.234375 C51.5048828,128.959635 51.4361979,128.753581 51.2988281,128.616211 C51.1614583,128.478841 51.0240885,128.341471 50.8867188,128.204102 C50.749349,128.066732 50.6119792,127.929362 50.4746094,127.791992 C50.1998698,127.654622 49.9251302,127.517253 49.6503906,127.379883 C49.375651,127.379883 49.1009115,127.311198 48.8261719,127.173828 C48.5514323,127.173828 48.2766927,127.173828 48.0019531,127.173828 C47.8645833,127.173828 47.7272135,127.173828 47.5898438,127.173828 C47.452474,127.036458 47.3837891,126.967773 47.3837891,126.967773 C47.2464193,126.830404 47.1777344,126.693034 47.1777344,126.555664 C47.1777344,126.555664 47.1777344,126.486979 47.1777344,126.349609 C47.1777344,126.21224 47.1777344,126.07487 47.1777344,125.9375 C47.1777344,125.80013 47.2464193,125.731445 47.3837891,125.731445 C47.3837891,125.594076 47.452474,125.525391 47.5898438,125.525391 C47.7272135,125.388021 47.8645833,125.319336 48.0019531,125.319336 C48.0019531,125.319336 48.0019531,125.319336 48.0019531,125.319336 C48.1393229,125.456706 48.2080078,125.525391 48.2080078,125.525391 C48.070638,125.525391 48.0019531,125.525391 48.0019531,125.525391 C47.8645833,125.525391 47.7958984,125.594076 47.7958984,125.731445 C47.6585286,125.731445 47.5898438,125.80013 47.5898438,125.9375 C47.452474,126.07487 47.3837891,126.21224 47.3837891,126.349609 C47.3837891,126.486979 47.452474,126.555664 47.5898438,126.555664 C47.5898438,126.693034 47.6585286,126.830404 47.7958984,126.967773 C47.7958984,126.967773 47.8645833,127.036458 48.0019531,127.173828 C48.1393229,127.173828 48.2766927,127.173828 48.4140625,127.173828 C48.9635417,127.173828 49.5130208,127.105143 50.0625,126.967773 C50.6119792,126.830404 51.0927734,126.624349 51.5048828,126.349609 C51.6422526,126.486979 51.7796224,126.555664 51.9169922,126.555664 C52.054362,126.693034 52.1917318,126.830404 52.3291016,126.967773 C52.4664714,127.105143 52.6038411,127.311198 52.7412109,127.585938 C52.8785807,127.860677 53.0159505,128.135417 53.1533203,128.410156 C53.2906901,128.822266 53.359375,129.16569 53.359375,129.44043 C53.4967448,129.715169 53.5654297,130.058594 53.5654297,130.470703 C53.5654297,131.157552 53.4280599,131.844401 53.1533203,132.53125 C52.8785807,133.080729 52.4664714,133.630208 51.9169922,134.179688 C51.5048828,134.591797 50.9554036,134.935221 50.2685547,135.209961 C49.5817057,135.347331 48.8261719,135.416016 48.0019531,135.416016 C47.452474,135.416016 46.9716797,135.416016 46.5595703,135.416016 C46.1474609,135.278646 45.7353516,135.072591 45.3232422,134.797852 Z M47.3837891,126.349609 C47.3837891,126.21224 47.452474,126.07487 47.5898438,125.9375 C47.5898438,125.80013 47.6585286,125.731445 47.7958984,125.731445 C47.7958984,125.594076 47.8645833,125.525391 48.0019531,125.525391 C48.0019531,125.388021 48.070638,125.319336 48.2080078,125.319336 C48.6201172,125.456706 49.0322266,125.525391 49.4443359,125.525391 C49.7190755,125.525391 50.0625,125.594076 50.4746094,125.731445 C50.6119792,125.868815 50.749349,125.9375 50.8867188,125.9375 C51.1614583,126.07487 51.367513,126.21224 51.5048828,126.349609 C51.0927734,126.624349 50.6119792,126.830404 50.0625,126.967773 C49.5130208,127.105143 48.9635417,127.173828 48.4140625,127.173828 C48.2766927,127.173828 48.1393229,127.173828 48.0019531,127.173828 C47.8645833,127.036458 47.7958984,126.967773 47.7958984,126.967773 C47.6585286,126.830404 47.5898438,126.693034 47.5898438,126.555664 C47.452474,126.555664 47.3837891,126.486979 47.3837891,126.349609 Z" transform="translate(0 -23.734)"/></svg>