<svg xmlns="http://www.w3.org/2000/svg" width="97" height="203" viewBox="0 0 97 203"><path fill="#131313" d="M77.7089844,117.144909 C80.1048177,117.144909 82.0514323,117.893607 83.5488281,119.391003 C85.1959635,121.038138 86.0195312,122.984753 86.0195312,125.230847 C86.0195312,140.654024 86.0195312,163.788789 86.0195312,194.635144 C86.0195312,196.881237 85.1959635,198.827852 83.5488281,200.474987 C81.9016927,201.972383 79.9550781,202.721081 77.7089844,202.721081 C75.7623698,202.721081 74.0403646,202.122123 72.5429687,200.924206 C71.0455729,199.726289 70.1471354,198.154024 69.8476562,196.207409 C66.5533854,198.154024 62.5852865,199.726289 57.9433594,200.924206 C53.3014323,202.122123 47.9108073,202.721081 41.7714844,202.721081 C35.0332031,202.721081 29.2682292,201.148816 24.4765625,198.004284 C19.5351562,194.859753 15.9414062,190.367566 13.6953125,184.527722 C11.8984375,180.035534 11,175.243868 11,170.152722 C11,165.660534 11.5989583,160.868868 12.796875,155.777722 C15.7916667,144.846732 20.9576823,135.937227 28.2949219,129.049206 C34.2845052,123.359102 40.8730469,119.690482 48.0605469,118.043347 C55.3977865,116.246472 62.2858073,116.77056 68.7246094,119.615612 C69.1738281,119.765352 69.5481771,119.915092 69.8476562,120.064831 C70.296875,120.36431 70.671224,120.58892 70.9707031,120.738659 C71.719401,119.690482 72.6927083,118.792045 73.890625,118.043347 C75.0885417,117.444388 76.3613281,117.144909 77.7089844,117.144909 Z M41.5996094,186.082682 C51.6321615,186.082682 58.5950521,184.435547 62.4882812,181.141276 C66.3815104,177.847005 68.702474,175.451172 69.4511719,173.953776 C69.4511719,167.814453 69.4511719,158.605469 69.4511719,146.326823 C69.4511719,143.332031 68.8522135,140.786458 67.6542969,138.690104 C66.3066406,136.59375 64.4348958,135.096354 62.0390625,134.197917 C59.34375,133 55.9746094,132.700521 51.9316406,133.299479 C47.8886719,134.048177 43.6959635,136.44401 39.3535156,140.486979 C34.2623698,145.128906 30.6686198,151.268229 28.5722656,158.904948 C26.4759115,166.391927 26.4759115,172.830729 28.5722656,178.221354 C29.6204427,180.916667 31.1927083,182.863281 33.2890625,184.061198 C35.3854167,185.408854 38.155599,186.082682 41.5996094,186.082682 Z M95.5546875,134.451172 C95.7044271,134.600911 95.8541667,134.675781 96.0039062,134.675781 C96.3033854,134.675781 96.5279948,134.675781 96.6777344,134.675781 C96.827474,134.675781 96.9772135,134.675781 97.1269531,134.675781 C97.4264323,134.675781 97.6510417,134.600911 97.8007812,134.451172 C97.8007812,144.932943 97.8007812,160.730469 97.8007812,181.84375 C97.3515625,181.84375 96.6028646,181.84375 95.5546875,181.84375 C95.5546875,173.907552 95.5546875,166.046224 95.5546875,158.259766 C95.5546875,150.323568 95.5546875,142.38737 95.5546875,134.451172 Z M96.6777344,124.792969 C98.0253906,124.792969 99.1484375,125.317057 100.046875,126.365234 C101.095052,127.263672 101.619141,128.386719 101.619141,129.734375 C101.619141,130.932292 101.244792,131.980469 100.496094,132.878906 C99.7473958,133.777344 98.8489583,134.301432 97.8007812,134.451172 C97.8007812,134.301432 97.8007812,134.151693 97.8007812,134.001953 C98.6992187,133.702474 99.4479167,133.178385 100.046875,132.429688 C100.645833,131.68099 100.945312,130.782552 100.945312,129.734375 C100.945312,128.536458 100.570964,127.563151 99.8222656,126.814453 C98.9238281,125.916016 97.875651,125.466797 96.6777344,125.466797 C95.4798177,125.466797 94.4316406,125.916016 93.5332031,126.814453 C92.7845052,127.563151 92.4101562,128.536458 92.4101562,129.734375 C92.4101562,130.782552 92.7096354,131.68099 93.3085937,132.429688 C93.9075521,133.178385 94.65625,133.702474 95.5546875,134.001953 C95.5546875,134.151693 95.5546875,134.301432 95.5546875,134.451172 C94.5065104,134.301432 93.6080729,133.777344 92.859375,132.878906 C92.1106771,131.980469 91.7363281,130.932292 91.7363281,129.734375 C91.7363281,128.386719 92.1855469,127.263672 93.0839844,126.365234 C94.1321615,125.317057 95.3300781,124.792969 96.6777344,124.792969 Z M96.6777344,134.001953 C96.827474,134.001953 97.0520833,134.001953 97.3515625,134.001953 C97.5013021,134.001953 97.6510417,134.001953 97.8007812,134.001953 C97.8007812,134.151693 97.8007812,134.301432 97.8007812,134.451172 C97.6510417,134.600911 97.4264323,134.675781 97.1269531,134.675781 C96.9772135,134.675781 96.827474,134.675781 96.6777344,134.675781 C96.5279948,134.675781 96.3033854,134.675781 96.0039062,134.675781 C95.8541667,134.675781 95.7044271,134.600911 95.5546875,134.451172 C95.5546875,134.301432 95.5546875,134.151693 95.5546875,134.001953 C95.7044271,134.001953 95.8541667,134.001953 96.0039062,134.001953 C96.3033854,134.001953 96.5279948,134.001953 96.6777344,134.001953 Z M92.859375,129.734375 C92.859375,130.632812 93.0839844,131.38151 93.5332031,131.980469 C94.1321615,132.579427 94.8059896,133.028646 95.5546875,133.328125 C95.5546875,133.477865 95.5546875,133.702474 95.5546875,134.001953 C94.65625,133.702474 93.9075521,133.178385 93.3085937,132.429688 C92.7096354,131.68099 92.4101562,130.782552 92.4101562,129.734375 C92.4101562,128.536458 92.7845052,127.563151 93.5332031,126.814453 C94.4316406,125.916016 95.4798177,125.466797 96.6777344,125.466797 C97.875651,125.466797 98.9238281,125.916016 99.8222656,126.814453 C100.570964,127.563151 100.945312,128.536458 100.945312,129.734375 C100.945312,130.782552 100.645833,131.68099 100.046875,132.429688 C99.4479167,133.178385 98.6992187,133.702474 97.8007812,134.001953 C97.8007812,133.852214 97.8007812,133.627604 97.8007812,133.328125 C98.5494792,133.028646 99.1484375,132.579427 99.5976562,131.980469 C100.196615,131.38151 100.496094,130.632812 100.496094,129.734375 C100.496094,129.884115 100.496094,130.033854 100.496094,130.183594 C100.496094,130.333333 100.496094,130.408203 100.496094,130.408203 C100.496094,130.408203 100.496094,130.333333 100.496094,130.183594 C100.496094,130.033854 100.496094,129.884115 100.496094,129.734375 C100.496094,129.584635 100.496094,129.434896 100.496094,129.285156 C100.496094,129.135417 100.496094,129.135417 100.496094,129.285156 C100.496094,129.135417 100.496094,129.135417 100.496094,129.285156 C100.496094,129.434896 100.496094,129.584635 100.496094,129.734375 C100.496094,128.686198 100.121745,127.78776 99.3730469,127.039062 C98.624349,126.290365 97.7259115,125.916016 96.6777344,125.916016 C95.6295573,125.916016 94.7311198,126.290365 93.9824219,127.039062 C93.233724,127.78776 92.859375,128.686198 92.859375,129.734375 Z M97.8007812,134.001953 C97.6510417,134.001953 97.4264323,134.001953 97.1269531,134.001953 C96.9772135,134.001953 96.827474,134.001953 96.6777344,134.001953 C96.5279948,134.001953 96.3033854,134.001953 96.0039062,134.001953 C95.8541667,134.001953 95.7044271,134.001953 95.5546875,134.001953 C95.5546875,133.852214 95.5546875,133.627604 95.5546875,133.328125 C95.7044271,133.328125 95.8541667,133.402995 96.0039062,133.552734 C96.3033854,133.552734 96.5279948,133.552734 96.6777344,133.552734 C96.827474,133.552734 97.0520833,133.552734 97.3515625,133.552734 C97.5013021,133.402995 97.6510417,133.328125 97.8007812,133.328125 C97.8007812,133.477865 97.8007812,133.552734 97.8007812,133.552734 C97.8007812,133.702474 97.8007812,133.852214 97.8007812,134.001953 Z M95.5546875,184.089844 C95.5546875,183.640625 95.5546875,182.891927 95.5546875,181.84375 C95.1054687,181.84375 94.3567708,181.84375 93.3085937,181.84375 C94.0572917,184.688802 95.1803385,188.88151 96.6777344,194.421875 C97.4264323,191.576823 98.5494792,187.384115 100.046875,181.84375 C99.4479167,181.84375 98.6992187,181.84375 97.8007812,181.84375 C97.8007812,182.292969 97.8007812,183.041667 97.8007812,184.089844 C97.3515625,184.089844 96.6028646,184.089844 95.5546875,184.089844 Z M95.5546875,184.089844 C96.0039062,184.089844 96.7526042,184.089844 97.8007812,184.089844 C97.8007812,183.640625 97.8007812,182.891927 97.8007812,181.84375 C97.3515625,181.84375 96.6028646,181.84375 95.5546875,181.84375 C95.5546875,182.292969 95.5546875,183.041667 95.5546875,184.089844 Z M60.7402344,106.599609 C60.7402344,106.899089 60.7402344,107.198568 60.7402344,107.498047 C60.7402344,107.797526 60.7402344,108.022135 60.7402344,108.171875 C56.0983073,107.872396 51.4563802,108.321615 46.8144531,109.519531 C42.0227865,110.567708 37.4557292,112.439453 33.1132812,115.134766 C32.8138021,114.685547 32.3645833,114.011719 31.765625,113.113281 C36.4075521,110.417969 41.1992187,108.471354 46.140625,107.273438 C51.2317708,105.925781 56.1731771,105.476562 60.9648437,105.925781 C60.9648437,106.075521 60.9648437,106.22526 60.9648437,106.375 C60.9648437,106.375 60.889974,106.44987 60.7402344,106.599609 Z M29.7441406,114.236328 C30.0436198,114.685547 30.4928385,115.359375 31.0917969,116.257812 C31.391276,116.108073 31.6907552,115.883464 31.9902344,115.583984 C32.4394531,115.434245 32.8138021,115.284505 33.1132812,115.134766 C33.4127604,115.434245 33.8619792,115.958333 34.4609375,116.707031 C31.765625,117.755208 27.797526,119.402344 22.5566406,121.648438 C24.203776,119.402344 26.749349,115.958333 30.1933594,111.316406 C30.4928385,111.765625 31.0169271,112.364583 31.765625,113.113281 C31.4661458,113.41276 31.1666667,113.63737 30.8671875,113.787109 C30.4179687,113.936849 30.0436198,114.086589 29.7441406,114.236328 Z M29.7441406,114.236328 C30.0436198,114.086589 30.4179687,113.936849 30.8671875,113.787109 C31.1666667,113.63737 31.4661458,113.41276 31.765625,113.113281 C32.0651042,113.5625 32.5143229,114.236328 33.1132812,115.134766 C32.8138021,115.284505 32.4394531,115.434245 31.9902344,115.583984 C31.6907552,115.883464 31.391276,116.108073 31.0917969,116.257812 C30.9420573,115.958333 30.7174479,115.658854 30.4179687,115.359375 C30.2682292,115.059896 30.0436198,114.685547 29.7441406,114.236328 Z M66.8046875,103.005859 C68.1523437,103.455078 69.125651,104.203776 69.7246094,105.251953 C70.4733073,106.44987 70.6230469,107.722656 70.1738281,109.070313 C69.874349,110.417969 69.125651,111.391276 67.9277344,111.990234 C66.7298177,112.738932 65.531901,112.963542 64.3339844,112.664063 C63.2858073,112.364583 62.4622396,111.765625 61.8632812,110.867188 C61.1145833,110.11849 60.7402344,109.220052 60.7402344,108.171875 C60.7402344,108.321615 60.8151042,108.321615 60.9648437,108.171875 C61.1145833,108.171875 61.1894531,108.246745 61.1894531,108.396484 C61.3391927,109.145182 61.7135417,109.89388 62.3125,110.642578 C62.9114583,111.241536 63.5852865,111.690755 64.3339844,111.990234 C65.531901,112.289714 66.6549479,112.139974 67.703125,111.541016 C68.7513021,110.942057 69.4251302,110.04362 69.7246094,108.845703 C70.0240885,107.797526 69.874349,106.749349 69.2753906,105.701172 C68.6764323,104.652995 67.7779948,103.979167 66.5800781,103.679688 C65.531901,103.380208 64.5585937,103.455078 63.6601562,103.904297 C62.7617187,104.353516 62.0878906,105.027344 61.6386719,105.925781 C61.4889323,105.925781 61.4140625,105.925781 61.4140625,105.925781 C61.2643229,105.925781 61.1145833,105.925781 60.9648437,105.925781 C61.4140625,104.877604 62.2376302,104.054036 63.4355469,103.455078 C64.483724,102.85612 65.6067708,102.70638 66.8046875,103.005859 Z M61.4140625,106.599609 C61.2643229,106.899089 61.1894531,107.198568 61.1894531,107.498047 C61.1894531,107.797526 61.1894531,108.097005 61.1894531,108.396484 C61.1894531,108.246745 61.1145833,108.171875 60.9648437,108.171875 C60.8151042,108.321615 60.7402344,108.321615 60.7402344,108.171875 C60.7402344,108.022135 60.7402344,107.797526 60.7402344,107.498047 C60.7402344,107.198568 60.7402344,106.899089 60.7402344,106.599609 C60.7402344,106.44987 60.8151042,106.30013 60.9648437,106.150391 C60.9648437,106.150391 60.9648437,106.075521 60.9648437,105.925781 C61.1145833,105.925781 61.2643229,105.925781 61.4140625,105.925781 C61.4140625,105.925781 61.4889323,105.925781 61.6386719,105.925781 C61.6386719,106.075521 61.5638021,106.22526 61.4140625,106.375 C61.4140625,106.52474 61.4140625,106.599609 61.4140625,106.599609 Z M66.5800781,104.128906 C66.5800781,104.128906 66.6549479,104.203776 66.8046875,104.353516 C66.8046875,104.353516 66.8046875,104.353516 66.8046875,104.353516 C66.8046875,104.353516 66.8046875,104.353516 66.8046875,104.353516 C66.6549479,104.203776 66.5800781,104.128906 66.5800781,104.128906 Z M66.5800781,104.128906 C65.6816406,103.979167 64.8580729,104.054036 64.109375,104.353516 C63.2109375,104.802734 62.6119792,105.401693 62.3125,106.150391 C62.1627604,106.150391 62.0130208,106.150391 61.8632812,106.150391 C61.8632812,106.000651 61.7884115,105.925781 61.6386719,105.925781 C62.0878906,105.027344 62.7617187,104.353516 63.6601562,103.904297 C64.5585937,103.455078 65.531901,103.380208 66.5800781,103.679688 C67.7779948,103.979167 68.6764323,104.652995 69.2753906,105.701172 C69.874349,106.749349 70.0240885,107.797526 69.7246094,108.845703 C69.4251302,110.04362 68.7513021,110.942057 67.703125,111.541016 C66.6549479,112.139974 65.6067708,112.289714 64.5585937,111.990234 C63.6601562,111.690755 62.9114583,111.241536 62.3125,110.642578 C61.7135417,109.89388 61.3391927,109.070312 61.1894531,108.171875 C61.3391927,108.321615 61.4889323,108.396484 61.6386719,108.396484 C61.6386719,108.396484 61.7135417,108.396484 61.8632812,108.396484 C62.0130208,109.145182 62.3125,109.744141 62.7617187,110.193359 C63.2109375,110.792318 63.8098958,111.166667 64.5585937,111.316406 C65.6067708,111.615885 66.5800781,111.541016 67.4785156,111.091797 C68.3769531,110.492839 68.9759115,109.744141 69.2753906,108.845703 C69.4251302,107.797526 69.2753906,106.824219 68.8261719,105.925781 C68.2272135,105.027344 67.4785156,104.428385 66.5800781,104.128906 C66.5800781,104.128906 66.6549479,104.203776 66.8046875,104.353516 C66.8046875,104.353516 66.8046875,104.353516 66.8046875,104.353516 C66.8046875,104.353516 66.8046875,104.278646 66.8046875,104.128906 C66.6549479,104.128906 66.5800781,104.128906 66.5800781,104.128906 C66.4303385,104.128906 66.3554687,104.128906 66.3554687,104.128906 C66.2057292,104.128906 66.1308594,104.128906 66.1308594,104.128906 C66.1308594,104.128906 66.2057292,104.128906 66.3554687,104.128906 C66.3554687,104.128906 66.4303385,104.128906 66.5800781,104.128906 Z M66.5800781,104.128906 C66.4303385,104.128906 66.3554687,104.128906 66.3554687,104.128906 C66.2057292,104.128906 66.1308594,104.128906 66.1308594,104.128906 C66.1308594,104.128906 66.2057292,104.128906 66.3554687,104.128906 C66.3554687,104.128906 66.4303385,104.128906 66.5800781,104.128906 Z M61.1894531,108.396484 C61.1894531,108.097005 61.1894531,107.797526 61.1894531,107.498047 C61.1894531,107.198568 61.2643229,106.899089 61.4140625,106.599609 C61.4140625,106.599609 61.4140625,106.52474 61.4140625,106.375 C61.5638021,106.22526 61.6386719,106.075521 61.6386719,105.925781 C61.7884115,105.925781 61.8632812,106.000651 61.8632812,106.150391 C62.0130208,106.150391 62.1627604,106.150391 62.3125,106.150391 C62.1627604,106.30013 62.0878906,106.375 62.0878906,106.375 C62.0878906,106.52474 62.0130208,106.674479 61.8632812,106.824219 C61.8632812,107.123698 61.8632812,107.423177 61.8632812,107.722656 C61.8632812,107.872396 61.8632812,108.097005 61.8632812,108.396484 C61.7135417,108.396484 61.6386719,108.396484 61.6386719,108.396484 C61.4889323,108.396484 61.3391927,108.396484 61.1894531,108.396484 Z M79.3828125,92.2246094 C79.3828125,92.2246094 79.4576823,92.2246094 79.6074219,92.2246094 C79.6074219,92.374349 79.6822917,92.4492188 79.8320312,92.4492188 C79.8320312,92.5989583 79.8320312,92.6738281 79.8320312,92.6738281 C79.8320312,92.8235677 79.8320312,92.9733073 79.8320312,93.1230469 C79.8320312,94.9199219 79.8320312,97.2408854 79.8320312,100.085938 C79.8320312,102.78125 79.8320312,106.000651 79.8320312,109.744141 C79.8320312,109.89388 79.8320312,109.96875 79.8320312,109.96875 C79.8320312,110.11849 79.7571615,110.268229 79.6074219,110.417969 C79.4576823,110.417969 79.3828125,110.492839 79.3828125,110.642578 C79.2330729,110.642578 79.0833333,110.642578 78.9335937,110.642578 C78.7838542,110.642578 78.6341146,110.642578 78.484375,110.642578 C78.484375,110.492839 78.4095052,110.417969 78.2597656,110.417969 C78.110026,110.268229 78.0351562,110.11849 78.0351562,109.96875 C78.0351562,109.96875 78.0351562,109.89388 78.0351562,109.744141 C78.0351562,108.097005 78.0351562,106.075521 78.0351562,103.679688 C78.0351562,101.283854 78.0351562,98.5136719 78.0351562,95.3691406 C77.8854167,95.5188802 77.7356771,95.59375 77.5859375,95.59375 C77.5859375,95.7434896 77.5110677,95.8932292 77.3613281,96.0429688 C77.2115885,96.1927083 77.061849,96.2675781 76.9121094,96.2675781 C76.7623698,96.2675781 76.6875,96.2675781 76.6875,96.2675781 C76.5377604,96.2675781 76.3880208,96.2675781 76.2382812,96.2675781 C76.0885417,96.2675781 76.0136719,96.1927083 76.0136719,96.0429688 C75.8639323,96.0429688 75.7890625,95.968099 75.7890625,95.8183594 C75.6393229,95.6686198 75.5644531,95.5188802 75.5644531,95.3691406 C75.5644531,95.219401 75.6393229,95.0696615 75.7890625,94.9199219 C75.7890625,94.9199219 75.8639323,94.8450521 76.0136719,94.6953125 C76.1634115,94.3958333 76.4628906,94.0963542 76.9121094,93.796875 C77.3613281,93.3476562 77.8105469,92.8984375 78.2597656,92.4492188 C78.2597656,92.2994792 78.3346354,92.2246094 78.484375,92.2246094 C78.6341146,92.2246094 78.7089844,92.1497396 78.7089844,92 C78.7089844,92 78.7838542,92 78.9335937,92 C78.9335937,92 78.9335937,92 78.9335937,92 C79.0833333,92 79.1582031,92 79.1582031,92 C79.1582031,92 79.2330729,92.0748698 79.3828125,92.2246094 Z M118.015625,135.574219 C118.165365,135.574219 118.315104,135.574219 118.464844,135.574219 C118.464844,135.723958 118.539714,135.798828 118.689453,135.798828 C118.839193,135.948568 118.914062,136.098307 118.914062,136.248047 C118.914062,136.248047 118.914062,136.322917 118.914062,136.472656 C118.914062,136.622396 118.914062,136.772135 118.914062,136.921875 C118.914062,137.071615 118.839193,137.146484 118.689453,137.146484 C118.539714,137.296224 118.464844,137.371094 118.464844,137.371094 C118.315104,137.520833 118.165365,137.595703 118.015625,137.595703 C117.266927,137.595703 116.518229,137.595703 115.769531,137.595703 C114.871094,137.595703 114.047526,137.595703 113.298828,137.595703 C112.55013,137.595703 111.801432,137.595703 111.052734,137.595703 C110.154297,137.595703 109.330729,137.595703 108.582031,137.595703 C108.582031,137.595703 108.507161,137.520833 108.357422,137.371094 C108.357422,137.371094 108.357422,137.371094 108.357422,137.371094 C108.207682,137.371094 108.132812,137.371094 108.132812,137.371094 C107.983073,137.371094 107.908203,137.296224 107.908203,137.146484 C107.908203,137.146484 107.908203,137.146484 107.908203,137.146484 C107.758464,136.996745 107.683594,136.921875 107.683594,136.921875 C107.683594,136.772135 107.683594,136.697266 107.683594,136.697266 C107.683594,136.697266 107.683594,136.622396 107.683594,136.472656 C107.683594,136.472656 107.683594,136.472656 107.683594,136.472656 C107.683594,136.472656 107.683594,136.472656 107.683594,136.472656 C107.683594,136.472656 107.683594,136.322917 107.683594,136.023438 C107.833333,135.723958 107.908203,135.424479 107.908203,135.125 C108.057943,134.675781 108.282552,134.151693 108.582031,133.552734 C108.731771,133.103516 109.03125,132.579427 109.480469,131.980469 C109.630208,131.68099 109.779948,131.38151 109.929687,131.082031 C110.229167,130.782552 110.528646,130.483073 110.828125,130.183594 C111.127604,129.884115 111.427083,129.584635 111.726562,129.285156 C112.175781,128.985677 112.55013,128.686198 112.849609,128.386719 C113.748047,127.9375 114.496745,127.488281 115.095703,127.039062 C115.544922,126.589844 115.919271,126.140625 116.21875,125.691406 C116.36849,125.391927 116.518229,125.092448 116.667969,124.792969 C116.667969,124.34375 116.667969,123.969401 116.667969,123.669922 C116.667969,123.669922 116.667969,123.595052 116.667969,123.445312 C116.667969,123.295573 116.667969,123.145833 116.667969,122.996094 C116.667969,122.996094 116.667969,122.921224 116.667969,122.771484 C116.667969,122.621745 116.593099,122.546875 116.443359,122.546875 C116.443359,122.247396 116.36849,122.022786 116.21875,121.873047 C116.06901,121.723307 115.844401,121.573568 115.544922,121.423828 C115.245443,121.274089 114.945964,121.124349 114.646484,120.974609 C114.197266,120.82487 113.748047,120.75 113.298828,120.75 C112.999349,120.75 112.69987,120.82487 112.400391,120.974609 C112.100911,121.124349 111.801432,121.274089 111.501953,121.423828 C111.202474,121.573568 110.977865,121.723307 110.828125,121.873047 C110.528646,122.172526 110.304036,122.472005 110.154297,122.771484 C110.154297,122.921224 110.079427,122.996094 109.929687,122.996094 C109.929687,123.145833 109.854818,123.220703 109.705078,123.220703 C109.555339,123.220703 109.405599,123.220703 109.255859,123.220703 C109.10612,123.220703 109.03125,123.220703 109.03125,123.220703 C108.88151,123.220703 108.731771,123.145833 108.582031,122.996094 C108.582031,122.846354 108.507161,122.771484 108.357422,122.771484 C108.357422,122.621745 108.357422,122.472005 108.357422,122.322266 C108.357422,122.172526 108.357422,122.022786 108.357422,121.873047 C108.656901,121.423828 108.95638,120.974609 109.255859,120.525391 C109.555339,120.225911 109.929687,119.926432 110.378906,119.626953 C110.828125,119.477214 111.277344,119.327474 111.726562,119.177734 C112.175781,119.027995 112.69987,118.953125 113.298828,118.953125 C114.347005,118.953125 115.170573,119.102865 115.769531,119.402344 C116.518229,119.552083 117.117187,119.926432 117.566406,120.525391 C117.865885,120.974609 118.165365,121.498698 118.464844,122.097656 C118.614583,122.546875 118.689453,123.070964 118.689453,123.669922 C118.689453,124.26888 118.614583,124.867839 118.464844,125.466797 C118.315104,126.065755 118.015625,126.589844 117.566406,127.039062 C117.266927,127.638021 116.817708,128.162109 116.21875,128.611328 C115.619792,129.060547 114.871094,129.584635 113.972656,130.183594 C113.223958,130.632812 112.625,131.082031 112.175781,131.53125 C111.726562,131.980469 111.352214,132.504557 111.052734,133.103516 C110.753255,133.552734 110.528646,134.001953 110.378906,134.451172 C110.079427,134.900391 109.929687,135.27474 109.929687,135.574219 C110.828125,135.574219 111.951172,135.574219 113.298828,135.574219 C114.646484,135.574219 116.21875,135.574219 118.015625,135.574219 Z"/></svg>