<svg xmlns="http://www.w3.org/2000/svg" width="120" height="243" viewBox="0 0 120 243"><path fill="#131313" d="M107.452148,108.366211 C110.749023,117.020508 111.710612,124.369792 110.336914,130.414062 C108.963216,136.595703 107.040039,141.472331 104.567383,145.043945 C100.308919,151.500326 94.1272786,156.583008 86.0224609,160.291992 C77.9176432,163.863607 69.0572917,165.649414 59.4414062,165.649414 C53.2597656,165.649414 43.9186198,165.649414 31.4179688,165.649414 C29.4947917,165.649414 27.7776693,164.962565 26.2666016,163.588867 C24.7555339,162.077799 24,160.291992 24,158.231445 C24,130.345378 24,88.4475911 24,32.5380859 C24,32.5380859 24,32.5380859 24,32.5380859 C24,32.5380859 24,32.5380859 24,32.5380859 C24,32.1259766 24,31.5764974 24,30.8896484 C24,28.8291016 24.7555339,27.0432943 26.2666016,25.5322266 C27.6402995,24.1585286 29.3574219,23.4716797 31.4179688,23.4716797 C32.2421875,23.4716797 32.9290365,23.5403646 33.4785156,23.6777344 C34.1653646,23.8151042 34.7835286,24.0898438 35.3330078,24.5019531 C47.1468099,22.8535156 58.1363932,23.5403646 68.3017578,26.5625 C78.3297526,29.7220052 86.1598307,34.7360026 91.7919922,41.6044922 C95.226237,46.0003255 97.3554688,50.6708984 98.1796875,55.6162109 C98.8665365,60.5615234 98.1796875,65.3694661 96.1191406,70.0400391 C95.0201823,72.3753255 93.1656901,75.0540365 90.5556641,78.0761719 C88.0830078,81.2356771 84.3053385,84.1891276 79.2226562,86.9365234 C85.4042969,88.7223307 91.1051432,91.3323568 96.3251953,94.7666016 C101.407878,98.2008464 105.116862,102.734049 107.452148,108.366211 Z M79.9492188,51.5732422 C76.7897135,47.5895182 71.6383464,44.2926432 64.4951172,41.6826172 C57.351888,39.0725911 48.8349609,38.3857422 38.9443359,39.6220703 C38.9443359,49.2379557 38.9443359,63.7991536 38.9443359,83.3056641 C49.9339193,82.2067057 58.4508464,80.3522135 64.4951172,77.7421875 C70.4020182,75.2695313 74.7291667,72.8655599 77.4765625,70.5302734 C78.9876302,69.2939453 80.0865885,68.1263021 80.7734375,67.0273438 C81.5976562,65.9283854 82.1471354,65.0354818 82.421875,64.3486328 C83.5208333,61.7386068 83.726888,59.3346354 83.0400391,57.1367188 C82.2158203,54.9388021 81.1855469,53.0843099 79.9492188,51.5732422 Z M92.1064453,137.085938 C94.304362,134.063802 95.4720052,130.629557 95.609375,126.783203 C95.8841146,122.936849 95.1285807,118.815755 93.3427734,114.419922 C91.5569661,109.611979 87.4358724,106.109049 80.9794922,103.911133 C74.523112,101.575846 67.7233073,99.9960938 60.5800781,99.171875 C56.5963542,98.7597656 52.75,98.485026 49.0410156,98.3476562 C45.3320312,98.3476562 41.9664714,98.3476562 38.9443359,98.3476562 C38.9443359,110.161458 38.9443359,127.813477 38.9443359,151.303711 C43.4775391,151.303711 50.2773438,151.303711 59.34375,151.303711 C66.3496094,151.303711 72.8746745,149.998698 78.9189453,147.388672 C84.8258464,144.916016 89.2216797,141.481771 92.1064453,137.085938 Z M116.214844,105.353516 C118.6875,111.535156 120.061198,117.648112 120.335938,123.692383 C120.335938,124.241862 120.335938,124.860026 120.335938,125.546875 C120.335938,130.904297 119.443034,136.055664 117.657227,141.000977 C117.245117,140.726237 116.626953,140.382812 115.802734,139.970703 C117.588542,134.750651 118.344076,129.255859 118.069336,123.486328 C117.931966,117.716797 116.695638,111.878581 114.360352,105.97168 C112.711914,101.850586 110.376628,98.0729167 107.354492,94.6386719 C104.194987,91.3417969 100.417318,88.4570312 96.0214844,85.984375 C95.7467448,85.8470052 95.3346354,85.6409505 94.7851562,85.3662109 C95.0598958,85.0914714 95.4033203,84.7480469 95.8154297,84.3359375 C97.3264974,82.6875 98.7001953,80.9703776 99.9365234,79.1845703 C101.035482,77.398763 101.99707,75.5442708 102.821289,73.6210938 C105.568685,67.7141927 106.461589,61.5325521 105.5,55.0761719 C104.538411,48.6197917 101.859701,42.7128906 97.4638672,37.3554688 C92.9306641,31.5859375 87.023763,26.9153646 79.7431641,23.34375 C72.4625651,19.7721354 64.3577474,17.5742188 55.4287109,16.75 C55.4287109,16.4752604 55.4973958,16.2692057 55.6347656,16.1318359 C55.6347656,15.9944661 55.6347656,15.7884115 55.6347656,15.5136719 C55.6347656,15.3763021 55.6347656,15.2389323 55.6347656,15.1015625 C55.6347656,14.9641927 55.6347656,14.758138 55.6347656,14.4833984 C64.8385417,15.444987 73.218099,17.7802734 80.7734375,21.4892578 C88.328776,25.1982422 94.4417318,30.0061849 99.1123047,35.9130859 C103.782878,41.6826172 106.598958,48.0016276 107.560547,54.8701172 C108.522135,61.601237 107.629232,68.194987 104.881836,74.6513672 C104.057617,76.4371745 103.096029,78.1542969 101.99707,79.8027344 C100.898112,81.4511719 99.6617839,83.0996094 98.2880859,84.7480469 C102.546549,87.3580729 106.186849,90.3802083 109.208984,93.8144531 C112.23112,97.2486979 114.566406,101.095052 116.214844,105.353516 Z M50.8955078,19.8408203 C51.0328776,19.8408203 51.1015625,19.8408203 51.1015625,19.8408203 C51.2389323,19.8408203 51.3076172,19.8408203 51.3076172,19.8408203 C51.3076172,19.8408203 51.2389323,19.8408203 51.1015625,19.8408203 C51.1015625,19.8408203 51.0328776,19.8408203 50.8955078,19.8408203 Z M50.8955078,19.4287109 C51.8570964,19.4287109 52.6813151,19.1539714 53.3681641,18.6044922 C54.055013,18.055013 54.5358073,17.3681641 54.8105469,16.5439453 C54.9479167,16.5439453 55.0852865,16.5439453 55.2226562,16.5439453 C55.2226562,16.6813151 55.2913411,16.75 55.4287109,16.75 C55.1539714,17.7115885 54.6044922,18.4671224 53.7802734,19.0166016 C52.9560547,19.5660807 51.9944661,19.8408203 50.8955078,19.8408203 C49.6591797,19.8408203 48.6289062,19.360026 47.8046875,18.3984375 C46.9804688,17.436849 46.5683594,16.3378906 46.5683594,15.1015625 C46.7057292,13.8652344 47.1865234,12.8349609 48.0107422,12.0107422 C48.9723307,11.1865234 50.0712891,10.843099 51.3076172,10.9804687 C52.4065755,10.9804687 53.2994792,11.3238932 53.9863281,12.0107422 C54.8105469,12.6975911 55.360026,13.5904948 55.6347656,14.6894531 C55.4973958,14.5520833 55.360026,14.4833984 55.2226562,14.4833984 C55.2226562,14.4833984 55.1539714,14.4833984 55.0166016,14.4833984 C54.741862,13.6591797 54.3297526,12.9723307 53.7802734,12.4228516 C53.0934245,11.7360026 52.2692057,11.3925781 51.3076172,11.3925781 C50.2086589,11.3925781 49.2470703,11.7360026 48.4228516,12.4228516 C47.5986328,13.1097005 47.1865234,14.0026042 47.1865234,15.1015625 C47.1865234,16.2005208 47.5299479,17.1621094 48.2167969,17.9863281 C48.9036458,18.8105469 49.7965495,19.2913411 50.8955078,19.4287109 Z M50.8955078,19.8408203 C50.8955078,19.8408203 50.8268229,19.8408203 50.6894531,19.8408203 C50.6894531,19.8408203 50.6207682,19.8408203 50.4833984,19.8408203 C50.6207682,19.8408203 50.6894531,19.8408203 50.6894531,19.8408203 C50.8268229,19.8408203 50.8955078,19.8408203 50.8955078,19.8408203 C50.8955078,19.8408203 50.8955078,19.8408203 50.8955078,19.8408203 C50.8955078,19.8408203 50.8955078,19.8408203 50.8955078,19.8408203 Z M50.6894531,19.8408203 C50.5520833,19.8408203 50.4833984,19.8408203 50.4833984,19.8408203 C50.4833984,19.8408203 50.4833984,19.8408203 50.4833984,19.8408203 C50.4833984,19.8408203 50.4833984,19.8408203 50.4833984,19.8408203 C50.4833984,19.8408203 50.5520833,19.8408203 50.6894531,19.8408203 Z M55.6347656,14.4833984 C55.6347656,14.758138 55.6347656,14.9641927 55.6347656,15.1015625 C55.6347656,15.2389323 55.6347656,15.3763021 55.6347656,15.5136719 C55.6347656,15.7884115 55.6347656,15.9944661 55.6347656,16.1318359 C55.4973958,16.2692057 55.4287109,16.4752604 55.4287109,16.75 C55.2913411,16.75 55.2226562,16.75 55.2226562,16.75 C55.0852865,16.75 54.9479167,16.6813151 54.8105469,16.5439453 C54.9479167,16.4065755 55.0166016,16.2692057 55.0166016,16.1318359 C55.0166016,15.9944661 55.0166016,15.7884115 55.0166016,15.5136719 C55.1539714,15.3763021 55.1539714,15.2389323 55.0166016,15.1015625 C55.0166016,14.8268229 55.0166016,14.6207682 55.0166016,14.4833984 C55.1539714,14.4833984 55.2226562,14.4833984 55.2226562,14.4833984 C55.360026,14.4833984 55.4973958,14.4833984 55.6347656,14.4833984 Z M51.3076172,11.3925781 C52.2692057,11.3925781 53.0934245,11.7360026 53.7802734,12.4228516 C54.3297526,12.9723307 54.741862,13.6591797 55.0166016,14.4833984 C54.8792318,14.4833984 54.741862,14.4833984 54.6044922,14.4833984 C54.6044922,14.4833984 54.5358073,14.4833984 54.3984375,14.4833984 C54.2610677,13.7965495 53.9176432,13.1783854 53.3681641,12.6289062 C52.6813151,12.2167969 51.9944661,11.9420573 51.3076172,11.8046875 C51.3076172,11.8046875 51.3076172,11.8046875 51.3076172,11.8046875 C51.3076172,11.8046875 51.3076172,11.8046875 51.3076172,11.8046875 C51.3076172,11.8046875 51.3763021,11.8733724 51.5136719,12.0107422 C51.5136719,12.0107422 51.5823568,12.0107422 51.7197266,12.0107422 C51.7197266,12.0107422 51.6510417,12.0107422 51.5136719,12.0107422 C51.5136719,11.8733724 51.444987,11.8046875 51.3076172,11.8046875 C51.1702474,11.8046875 51.1015625,11.8046875 51.1015625,11.8046875 C50.9641927,11.8046875 50.8955078,11.8046875 50.8955078,11.8046875 C50.8955078,11.8046875 50.9641927,11.8046875 51.1015625,11.8046875 C51.1015625,11.8046875 51.1702474,11.8046875 51.3076172,11.8046875 C50.3460286,11.8046875 49.5218099,12.148112 48.8349609,12.8349609 C48.148112,13.5218099 47.7360026,14.2773438 47.5986328,15.1015625 C47.5986328,16.063151 47.9420573,16.8873698 48.6289062,17.5742188 C49.1783854,18.3984375 49.9339193,18.8105469 50.8955078,18.8105469 C51.7197266,18.8105469 52.4065755,18.6044922 52.9560547,18.1923828 C53.6429036,17.7802734 54.1236979,17.2307943 54.3984375,16.5439453 C54.3984375,16.5439453 54.4671224,16.5439453 54.6044922,16.5439453 C54.741862,16.5439453 54.8105469,16.5439453 54.8105469,16.5439453 C54.5358073,17.3681641 54.055013,18.055013 53.3681641,18.6044922 C52.6813151,19.1539714 51.8570964,19.360026 50.8955078,19.2226562 C49.7965495,19.2226562 48.9036458,18.8105469 48.2167969,17.9863281 C47.5299479,17.1621094 47.1865234,16.2005208 47.1865234,15.1015625 C47.1865234,14.0026042 47.5986328,13.1097005 48.4228516,12.4228516 C49.2470703,11.7360026 50.2086589,11.3925781 51.3076172,11.3925781 Z M50.8955078,12.0107422 C50.8955078,12.0107422 50.9641927,12.0107422 51.1015625,12.0107422 C51.1015625,12.0107422 51.1702474,12.0107422 51.3076172,12.0107422 C51.3076172,12.0107422 51.3076172,12.0107422 51.3076172,12.0107422 C51.3076172,12.0107422 51.3076172,12.0107422 51.3076172,12.0107422 C51.1702474,12.0107422 51.1015625,12.0107422 51.1015625,12.0107422 C50.9641927,12.0107422 50.8955078,12.0107422 50.8955078,12.0107422 Z M54.6044922,15.5136719 C54.6044922,15.3763021 54.6044922,15.1702474 54.6044922,14.8955078 C54.6044922,14.758138 54.5358073,14.6207682 54.3984375,14.4833984 C54.5358073,14.4833984 54.6731771,14.4833984 54.8105469,14.4833984 C54.8105469,14.4833984 54.8792318,14.4833984 55.0166016,14.4833984 C55.0166016,14.6207682 55.0166016,14.8268229 55.0166016,15.1015625 C55.1539714,15.2389323 55.1539714,15.3763021 55.0166016,15.5136719 C55.0166016,15.6510417 55.0166016,15.8570964 55.0166016,16.1318359 C55.0166016,16.2692057 54.9479167,16.4065755 54.8105469,16.5439453 C54.8105469,16.5439453 54.741862,16.5439453 54.6044922,16.5439453 C54.4671224,16.5439453 54.3984375,16.5439453 54.3984375,16.5439453 C54.3984375,16.4065755 54.4671224,16.2692057 54.6044922,16.1318359 C54.6044922,15.8570964 54.6044922,15.6510417 54.6044922,15.5136719 Z M114.978516,142.03125 C115.527995,142.16862 116.214844,142.443359 117.039062,142.855469 C117.176432,142.580729 117.313802,142.237305 117.451172,141.825195 C117.451172,141.550456 117.519857,141.275716 117.657227,141.000977 C118.069336,141.138346 118.6875,141.413086 119.511719,141.825195 C117.725911,143.885742 115.115885,146.839193 111.681641,150.685547 C112.23112,148.075521 113.055339,144.229167 114.154297,139.146484 C114.566406,139.283854 115.115885,139.558594 115.802734,139.970703 C115.665365,140.245443 115.527995,140.588867 115.390625,141.000977 C115.253255,141.413086 115.115885,141.75651 114.978516,142.03125 Z M114.978516,142.03125 C115.115885,141.75651 115.253255,141.413086 115.390625,141.000977 C115.527995,140.588867 115.665365,140.245443 115.802734,139.970703 C116.214844,140.245443 116.833008,140.588867 117.657227,141.000977 C117.519857,141.275716 117.451172,141.550456 117.451172,141.825195 C117.313802,142.237305 117.176432,142.580729 117.039062,142.855469 C116.764323,142.718099 116.420898,142.580729 116.008789,142.443359 C115.734049,142.30599 115.390625,142.16862 114.978516,142.03125 Z M1.03027344,35.9130859 C0.892903646,35.9130859 0.755533854,35.844401 0.618164062,35.7070312 C0.480794271,35.7070312 0.412109375,35.6383464 0.412109375,35.5009766 C0.274739583,35.5009766 0.206054688,35.4322917 0.206054688,35.2949219 C0.0686848958,35.1575521 0,35.0201823 0,34.8828125 C0,34.7454427 0.0686848958,34.6080729 0.206054688,34.4707031 C0.206054688,34.4707031 0.274739583,34.4020182 0.412109375,34.2646484 C0.549479167,33.9899089 0.82421875,33.7151693 1.23632812,33.4404297 C1.6484375,33.0283203 2.06054688,32.6162109 2.47265625,32.2041016 C2.47265625,32.0667318 2.54134115,31.9980469 2.67871094,31.9980469 C2.81608073,31.9980469 2.88476562,31.9980469 2.88476562,31.9980469 C2.88476562,31.9980469 2.95345052,31.9980469 3.09082031,31.9980469 C3.09082031,31.9980469 3.09082031,31.9980469 3.09082031,31.9980469 C3.09082031,31.9980469 3.15950521,31.9980469 3.296875,31.9980469 C3.296875,31.9980469 3.3655599,31.9980469 3.50292969,31.9980469 C3.50292969,31.9980469 3.57161458,31.9980469 3.70898438,31.9980469 C3.70898438,32.1354167 3.77766927,32.2041016 3.91503906,32.2041016 C3.91503906,32.3414714 3.91503906,32.4788411 3.91503906,32.6162109 C3.91503906,32.6162109 3.91503906,32.6848958 3.91503906,32.8222656 C3.91503906,34.4707031 3.91503906,36.5999349 3.91503906,39.2099609 C3.91503906,41.6826172 3.91503906,44.6360677 3.91503906,48.0703125 C3.91503906,48.2076823 3.91503906,48.3450521 3.91503906,48.4824219 C3.91503906,48.4824219 3.84635417,48.5511068 3.70898438,48.6884766 C3.57161458,48.8258464 3.50292969,48.8945312 3.50292969,48.8945312 C3.3655599,48.8945312 3.2281901,48.8945312 3.09082031,48.8945312 C2.95345052,48.8945312 2.81608073,48.8945312 2.67871094,48.8945312 C2.67871094,48.8945312 2.61002604,48.8258464 2.47265625,48.6884766 C2.33528646,48.5511068 2.26660156,48.4824219 2.26660156,48.4824219 C2.26660156,48.3450521 2.26660156,48.2076823 2.26660156,48.0703125 C2.26660156,46.5592448 2.26660156,44.7047526 2.26660156,42.5068359 C2.26660156,40.3089193 2.26660156,37.7675781 2.26660156,34.8828125 C2.12923177,35.0201823 1.99186198,35.1575521 1.85449219,35.2949219 C1.85449219,35.2949219 1.78580729,35.3636068 1.6484375,35.5009766 C1.51106771,35.6383464 1.37369792,35.7070312 1.23632812,35.7070312 C1.23632812,35.844401 1.16764323,35.9130859 1.03027344,35.9130859 Z M42.2412109,17.5742188 C41.554362,17.5742188 40.7988281,17.5742188 39.9746094,17.5742188 C39.2877604,17.5742188 38.6009115,17.5742188 37.9140625,17.5742188 C37.2272135,17.5742188 36.5403646,17.5742188 35.8535156,17.5742188 C35.0292969,17.5742188 34.273763,17.5742188 33.5869141,17.5742188 C33.5869141,17.5742188 33.5182292,17.5742188 33.3808594,17.5742188 C33.3808594,17.5742188 33.3121745,17.5742188 33.1748047,17.5742188 C33.1748047,17.436849 33.1748047,17.3681641 33.1748047,17.3681641 C33.0374349,17.3681641 32.96875,17.3681641 32.96875,17.3681641 C32.96875,17.2307943 32.9000651,17.1621094 32.7626953,17.1621094 C32.7626953,17.0247396 32.7626953,16.9560547 32.7626953,16.9560547 C32.7626953,16.9560547 32.7626953,16.8873698 32.7626953,16.75 C32.7626953,16.75 32.7626953,16.75 32.7626953,16.75 C32.7626953,16.6126302 32.7626953,16.5439453 32.7626953,16.5439453 C32.7626953,16.5439453 32.7626953,16.5439453 32.7626953,16.5439453 C32.7626953,16.5439453 32.7626953,16.4065755 32.7626953,16.1318359 C32.9000651,15.9944661 32.96875,15.7197266 32.96875,15.3076172 C33.1061198,14.8955078 33.2434896,14.4833984 33.3808594,14.0712891 C33.655599,13.5218099 33.9303385,12.9723307 34.2050781,12.4228516 C34.4798177,12.148112 34.6858724,11.8733724 34.8232422,11.5986328 C35.0979818,11.3238932 35.3727214,11.0491536 35.6474609,10.7744141 C35.9222005,10.4996745 36.1969401,10.2249349 36.4716797,9.95019531 C36.7464193,9.81282552 37.0898438,9.60677083 37.5019531,9.33203125 C38.3261719,8.78255208 38.9443359,8.30175781 39.3564453,7.88964844 C39.9059245,7.47753906 40.249349,7.13411458 40.3867188,6.859375 C40.6614583,6.44726562 40.867513,6.10384115 41.0048828,5.82910156 C41.0048828,5.55436198 41.0048828,5.2796224 41.0048828,5.00488281 C41.0048828,4.86751302 41.0048828,4.73014323 41.0048828,4.59277344 C41.0048828,4.59277344 41.0048828,4.52408854 41.0048828,4.38671875 C41.0048828,4.24934896 41.0048828,4.11197917 41.0048828,3.97460938 C41.0048828,3.97460938 40.9361979,3.90592448 40.7988281,3.76855469 C40.7988281,3.4938151 40.7301432,3.28776042 40.5927734,3.15039062 C40.3180339,3.01302083 40.1119792,2.87565104 39.9746094,2.73828125 C39.6998698,2.60091146 39.4251302,2.46354167 39.1503906,2.32617188 C38.7382812,2.32617188 38.3261719,2.32617188 37.9140625,2.32617188 C37.6393229,2.32617188 37.2958984,2.32617188 36.8837891,2.32617188 C36.6090495,2.46354167 36.4029948,2.60091146 36.265625,2.73828125 C35.9908854,2.87565104 35.7848307,3.08170573 35.6474609,3.35644531 C35.3727214,3.4938151 35.1666667,3.69986979 35.0292969,3.97460938 C35.0292969,4.11197917 34.960612,4.24934896 34.8232422,4.38671875 C34.8232422,4.38671875 34.7545573,4.38671875 34.6171875,4.38671875 C34.4798177,4.52408854 34.3424479,4.59277344 34.2050781,4.59277344 C34.0677083,4.59277344 33.9303385,4.52408854 33.7929688,4.38671875 C33.7929688,4.38671875 33.7242839,4.31803385 33.5869141,4.18066406 C33.5869141,4.18066406 33.5182292,4.11197917 33.3808594,3.97460938 C33.3808594,3.83723958 33.3808594,3.69986979 33.3808594,3.5625 C33.3808594,3.42513021 33.3808594,3.35644531 33.3808594,3.35644531 C33.655599,2.80696615 33.9303385,2.39485677 34.2050781,2.12011719 C34.4798177,1.70800781 34.8232422,1.43326823 35.2353516,1.29589844 C35.6474609,1.02115885 36.0595703,0.815104167 36.4716797,0.677734375 C36.8837891,0.540364583 37.3645833,0.471679688 37.9140625,0.471679688 C38.875651,0.471679688 39.6311849,0.609049479 40.1806641,0.883789062 C40.867513,1.15852865 41.4169922,1.50195312 41.8291016,1.9140625 C42.1038411,2.46354167 42.3785807,2.94433594 42.6533203,3.35644531 C42.7906901,3.90592448 42.859375,4.45540365 42.859375,5.00488281 C42.859375,5.55436198 42.7906901,6.03515625 42.6533203,6.44726562 C42.5159505,6.99674479 42.2412109,7.54622396 41.8291016,8.09570312 C41.554362,8.5078125 41.1422526,8.91992188 40.5927734,9.33203125 C39.9059245,9.88151042 39.2190755,10.3623047 38.5322266,10.7744141 C37.8453776,11.1865234 37.2958984,11.5986328 36.8837891,12.0107422 C36.4716797,12.5602214 36.1282552,13.0410156 35.8535156,13.453125 C35.578776,13.8652344 35.3040365,14.2773438 35.0292969,14.6894531 C34.8919271,15.1015625 34.7545573,15.444987 34.6171875,15.7197266 C35.578776,15.7197266 36.6777344,15.7197266 37.9140625,15.7197266 C39.1503906,15.7197266 40.5927734,15.7197266 42.2412109,15.7197266 C42.3785807,15.7197266 42.4472656,15.7884115 42.4472656,15.9257812 C42.5846354,15.9257812 42.7220052,15.9944661 42.859375,16.1318359 C42.9967448,16.1318359 43.0654297,16.2005208 43.0654297,16.3378906 C43.0654297,16.4752604 43.0654297,16.6126302 43.0654297,16.75 C43.0654297,16.8873698 43.0654297,16.9560547 43.0654297,16.9560547 C43.0654297,17.0934245 42.9967448,17.2307943 42.859375,17.3681641 C42.7220052,17.3681641 42.6533203,17.436849 42.6533203,17.5742188 C42.5159505,17.5742188 42.3785807,17.5742188 42.2412109,17.5742188 Z M13.5996094,69.2939453 C14.0117188,69.2939453 14.6985677,69.2939453 15.6601562,69.2939453 C15.6601562,62.8375651 15.6601562,53.1529948 15.6601562,40.2402344 C15.5227865,40.2402344 15.3854167,40.2402344 15.2480469,40.2402344 C14.9733073,40.3776042 14.7672526,40.4462891 14.6298828,40.4462891 C14.492513,40.4462891 14.2864583,40.3776042 14.0117188,40.2402344 C13.874349,40.2402344 13.7369792,40.2402344 13.5996094,40.2402344 C13.5996094,45.0481771 13.5996094,49.9248047 13.5996094,54.8701172 C13.5996094,59.6780599 13.5996094,64.4860026 13.5996094,69.2939453 Z M13.5996094,71.3544922 C13.5996094,70.9423828 13.5996094,70.2555339 13.5996094,69.2939453 C13.1875,69.2939453 12.500651,69.2939453 11.5390625,69.2939453 C12.2259115,71.9039714 13.2561849,75.7503255 14.6298828,80.8330078 C15.3167318,78.2229818 16.3470052,74.3766276 17.7207031,69.2939453 C17.3085938,69.2939453 16.6217448,69.2939453 15.6601562,69.2939453 C15.6601562,69.8434245 15.6601562,70.5302734 15.6601562,71.3544922 C15.2480469,71.3544922 14.5611979,71.3544922 13.5996094,71.3544922 Z M13.5996094,71.3544922 C14.0117188,71.3544922 14.6985677,71.3544922 15.6601562,71.3544922 C15.6601562,70.9423828 15.6601562,70.2555339 15.6601562,69.2939453 C15.2480469,69.2939453 14.5611979,69.2939453 13.5996094,69.2939453 C13.5996094,69.8434245 13.5996094,70.5302734 13.5996094,71.3544922 Z M13.5996094,39.6220703 C12.7753906,39.3473307 12.0885417,38.8665365 11.5390625,38.1796875 C10.9895833,37.4928385 10.7148438,36.7373047 10.7148438,35.9130859 C10.7148438,34.8141276 11.0582682,33.8525391 11.7451172,33.0283203 C12.5693359,32.2041016 13.5309245,31.7919922 14.6298828,31.7919922 C15.7288411,31.7919922 16.6904297,32.2041016 17.5146484,33.0283203 C18.2014974,33.8525391 18.5449219,34.8141276 18.5449219,35.9130859 C18.5449219,36.7373047 18.2701823,37.4928385 17.7207031,38.1796875 C17.171224,38.8665365 16.484375,39.3473307 15.6601562,39.6220703 C15.6601562,39.7594401 15.6601562,39.9654948 15.6601562,40.2402344 C16.6217448,39.9654948 17.4459635,39.4160156 18.1328125,38.5917969 C18.8196615,37.7675781 19.1630859,36.8746745 19.1630859,35.9130859 C19.1630859,34.6767578 18.6822917,33.5777995 17.7207031,32.6162109 C16.8964844,31.7919922 15.8662109,31.3798828 14.6298828,31.3798828 C13.3935547,31.3798828 12.3632812,31.7919922 11.5390625,32.6162109 C10.577474,33.5777995 10.0966797,34.6767578 10.0966797,35.9130859 C10.0966797,36.8746745 10.4401042,37.7675781 11.1269531,38.5917969 C11.8138021,39.4160156 12.6380208,39.9654948 13.5996094,40.2402344 C13.5996094,40.1028646 13.5996094,39.9654948 13.5996094,39.828125 C13.5996094,39.828125 13.5996094,39.7594401 13.5996094,39.6220703 Z M13.5996094,39.6220703 C13.5996094,39.7594401 13.5996094,39.9654948 13.5996094,40.2402344 C13.7369792,40.2402344 13.874349,40.2402344 14.0117188,40.2402344 C14.2864583,40.3776042 14.492513,40.4462891 14.6298828,40.4462891 C14.7672526,40.4462891 14.9733073,40.3776042 15.2480469,40.2402344 C15.3854167,40.2402344 15.5227865,40.2402344 15.6601562,40.2402344 C15.6601562,40.1028646 15.6601562,39.8968099 15.6601562,39.6220703 C15.5227865,39.6220703 15.3854167,39.6907552 15.2480469,39.828125 C14.9733073,39.828125 14.7672526,39.828125 14.6298828,39.828125 C14.492513,39.828125 14.2864583,39.828125 14.0117188,39.828125 C13.874349,39.828125 13.7369792,39.7594401 13.5996094,39.6220703 Z M11.1269531,36.3251953 C11.1269531,36.3251953 11.1269531,36.3251953 11.1269531,36.3251953 C11.1269531,36.1878255 11.1269531,36.0504557 11.1269531,35.9130859 C11.1269531,35.7757161 11.1269531,35.6383464 11.1269531,35.5009766 C11.1269531,35.3636068 11.1269531,35.2949219 11.1269531,35.2949219 C11.1269531,35.2949219 11.1269531,35.3636068 11.1269531,35.5009766 C11.1269531,35.6383464 11.1269531,35.7757161 11.1269531,35.9130859 C11.1269531,34.9514974 11.4703776,34.1272786 12.1572266,33.4404297 C12.8440755,32.7535807 13.6682943,32.4101562 14.6298828,32.4101562 C15.5914714,32.4101562 16.4156901,32.7535807 17.1025391,33.4404297 C17.789388,34.1272786 18.1328125,34.9514974 18.1328125,35.9130859 C18.1328125,36.5999349 17.8580729,37.2867839 17.3085938,37.9736328 C16.8964844,38.523112 16.3470052,38.8665365 15.6601562,39.0039062 C15.6601562,39.141276 15.6601562,39.3473307 15.6601562,39.6220703 C16.484375,39.3473307 17.171224,38.8665365 17.7207031,38.1796875 C18.2701823,37.4928385 18.5449219,36.7373047 18.5449219,35.9130859 C18.5449219,34.8141276 18.2014974,33.8525391 17.5146484,33.0283203 C16.6904297,32.2041016 15.7288411,31.7919922 14.6298828,31.7919922 C13.5309245,31.7919922 12.5693359,32.2041016 11.7451172,33.0283203 C11.0582682,33.8525391 10.7148438,34.8141276 10.7148438,35.9130859 C10.7148438,36.7373047 10.9895833,37.4928385 11.5390625,38.1796875 C12.0885417,38.8665365 12.7753906,39.3473307 13.5996094,39.6220703 C13.5996094,39.4847005 13.5996094,39.2786458 13.5996094,39.0039062 C12.9127604,38.8665365 12.3632812,38.523112 11.9511719,37.9736328 C11.4016927,37.2867839 11.1269531,36.5999349 11.1269531,35.9130859 C11.1269531,36.0504557 11.1269531,36.1878255 11.1269531,36.3251953 C11.1269531,36.3251953 11.1269531,36.3251953 11.1269531,36.3251953 Z M15.6601562,39.0039062 C15.5227865,39.141276 15.3854167,39.2099609 15.2480469,39.2099609 C14.9733073,39.2099609 14.7672526,39.2099609 14.6298828,39.2099609 C14.492513,39.2099609 14.2864583,39.2099609 14.0117188,39.2099609 C13.874349,39.2099609 13.7369792,39.141276 13.5996094,39.0039062 C13.5996094,39.141276 13.5996094,39.3473307 13.5996094,39.6220703 C13.7369792,39.6220703 13.874349,39.6907552 14.0117188,39.828125 C14.2864583,39.828125 14.492513,39.828125 14.6298828,39.828125 C14.7672526,39.828125 14.9733073,39.828125 15.2480469,39.828125 C15.3854167,39.6907552 15.5227865,39.6220703 15.6601562,39.6220703 C15.6601562,39.4847005 15.6601562,39.4160156 15.6601562,39.4160156 C15.6601562,39.2786458 15.6601562,39.141276 15.6601562,39.0039062 Z" transform="translate(-7)"/></svg>