<svg xmlns="http://www.w3.org/2000/svg" width="120" height="203" viewBox="0 0 120 203"><path fill="#131313" d="M306.368867,145.366211 C309.665742,154.020508 310.627331,161.369792 309.253633,167.414062 C307.879935,173.595703 305.956758,178.472331 303.484102,182.043945 C299.225638,188.500326 293.043997,193.583008 284.93918,197.291992 C276.834362,200.863607 267.97401,202.649414 258.358125,202.649414 C252.176484,202.649414 242.835339,202.649414 230.334687,202.649414 C228.41151,202.649414 226.694388,201.962565 225.18332,200.588867 C223.672253,199.077799 222.916719,197.291992 222.916719,195.231445 C222.916719,167.345378 222.916719,125.447591 222.916719,69.5380859 C222.916719,69.5380859 222.916719,69.5380859 222.916719,69.5380859 C222.916719,69.5380859 222.916719,69.5380859 222.916719,69.5380859 C222.916719,69.1259766 222.916719,68.5764974 222.916719,67.8896484 C222.916719,65.8291016 223.672253,64.0432943 225.18332,62.5322266 C226.557018,61.1585286 228.274141,60.4716797 230.334687,60.4716797 C231.158906,60.4716797 231.845755,60.5403646 232.395234,60.6777344 C233.082083,60.8151042 233.700247,61.0898438 234.249727,61.5019531 C246.063529,59.8535156 257.053112,60.5403646 267.218477,63.5625 C277.246471,66.7220052 285.076549,71.7360026 290.708711,78.6044922 C294.142956,83.0003255 296.272187,87.6708984 297.096406,92.6162109 C297.783255,97.5615234 297.096406,102.369466 295.035859,107.040039 C293.936901,109.375326 292.082409,112.054036 289.472383,115.076172 C286.999727,118.235677 283.222057,121.189128 278.139375,123.936523 C284.321016,125.722331 290.021862,128.332357 295.241914,131.766602 C300.324596,135.200846 304.033581,139.734049 306.368867,145.366211 Z M278.865937,88.5732422 C275.706432,84.5895182 270.555065,81.2926432 263.411836,78.6826172 C256.268607,76.0725911 247.75168,75.3857422 237.861055,76.6220703 C237.861055,86.2379557 237.861055,100.799154 237.861055,120.305664 C248.850638,119.206706 257.367565,117.352214 263.411836,114.742188 C269.318737,112.269531 273.645885,109.86556 276.393281,107.530273 C277.904349,106.293945 279.003307,105.126302 279.690156,104.027344 C280.514375,102.928385 281.063854,102.035482 281.338594,101.348633 C282.437552,98.7386068 282.643607,96.3346354 281.956758,94.1367187 C281.132539,91.9388021 280.102266,90.0843099 278.865937,88.5732422 Z M291.023164,174.085938 C293.221081,171.063802 294.388724,167.629557 294.526094,163.783203 C294.800833,159.936849 294.045299,155.815755 292.259492,151.419922 C290.473685,146.611979 286.352591,143.109049 279.896211,140.911133 C273.439831,138.575846 266.640026,136.996094 259.496797,136.171875 C255.513073,135.759766 251.666719,135.485026 247.957734,135.347656 C244.24875,135.347656 240.88319,135.347656 237.861055,135.347656 C237.861055,147.161458 237.861055,164.813477 237.861055,188.303711 C242.394258,188.303711 249.194062,188.303711 258.260469,188.303711 C265.266328,188.303711 271.791393,186.998698 277.835664,184.388672 C283.742565,181.916016 288.138398,178.481771 291.023164,174.085938 Z M315.131562,142.353516 C317.604219,148.535156 318.977917,154.648112 319.252656,160.692383 C319.252656,161.241862 319.252656,161.860026 319.252656,162.546875 C319.252656,167.904297 318.359753,173.055664 316.573945,178.000977 C316.161836,177.726237 315.543672,177.382812 314.719453,176.970703 C316.50526,171.750651 317.260794,166.255859 316.986055,160.486328 C316.848685,154.716797 315.612357,148.878581 313.27707,142.97168 C311.628633,138.850586 309.293346,135.072917 306.271211,131.638672 C303.111706,128.341797 299.334036,125.457031 294.938203,122.984375 C294.663464,122.847005 294.251354,122.640951 293.701875,122.366211 C293.976615,122.091471 294.320039,121.748047 294.732148,121.335937 C296.243216,119.6875 297.616914,117.970378 298.853242,116.18457 C299.952201,114.398763 300.913789,112.544271 301.738008,110.621094 C304.485404,104.714193 305.378307,98.5325521 304.416719,92.0761719 C303.45513,85.6197917 300.776419,79.7128906 296.380586,74.3554688 C291.847383,68.5859375 285.940482,63.9153646 278.659883,60.34375 C271.379284,56.7721354 263.274466,54.5742188 254.34543,53.75 C254.34543,53.4752604 254.414115,53.2692057 254.551484,53.1318359 C254.551484,52.9944661 254.551484,52.7884115 254.551484,52.5136719 C254.551484,52.3763021 254.551484,52.2389323 254.551484,52.1015625 C254.551484,51.9641927 254.551484,51.758138 254.551484,51.4833984 C263.75526,52.444987 272.134818,54.7802734 279.690156,58.4892578 C287.245495,62.1982422 293.358451,67.0061849 298.029023,72.9130859 C302.699596,78.6826172 305.515677,85.0016276 306.477266,91.8701172 C307.438854,98.601237 306.545951,105.194987 303.798555,111.651367 C302.974336,113.437174 302.012747,115.154297 300.913789,116.802734 C299.814831,118.451172 298.578503,120.099609 297.204805,121.748047 C301.463268,124.358073 305.103568,127.380208 308.125703,130.814453 C311.147839,134.248698 313.483125,138.095052 315.131562,142.353516 Z M249.812227,56.8408203 C249.949596,56.8408203 250.018281,56.8408203 250.018281,56.8408203 C250.155651,56.8408203 250.224336,56.8408203 250.224336,56.8408203 C250.224336,56.8408203 250.155651,56.8408203 250.018281,56.8408203 C250.018281,56.8408203 249.949596,56.8408203 249.812227,56.8408203 Z M249.812227,56.4287109 C250.773815,56.4287109 251.598034,56.1539714 252.284883,55.6044922 C252.971732,55.055013 253.452526,54.3681641 253.727266,53.5439453 C253.864635,53.5439453 254.002005,53.5439453 254.139375,53.5439453 C254.139375,53.6813151 254.20806,53.75 254.34543,53.75 C254.07069,54.7115885 253.521211,55.4671224 252.696992,56.0166016 C251.872773,56.5660807 250.911185,56.8408203 249.812227,56.8408203 C248.575898,56.8408203 247.545625,56.360026 246.721406,55.3984375 C245.897187,54.436849 245.485078,53.3378906 245.485078,52.1015625 C245.622448,50.8652344 246.103242,49.8349609 246.927461,49.0107422 C247.889049,48.1865234 248.988008,47.843099 250.224336,47.9804687 C251.323294,47.9804687 252.216198,48.3238932 252.903047,49.0107422 C253.727266,49.6975911 254.276745,50.5904948 254.551484,51.6894531 C254.414115,51.5520833 254.276745,51.4833984 254.139375,51.4833984 C254.139375,51.4833984 254.07069,51.4833984 253.93332,51.4833984 C253.658581,50.6591797 253.246471,49.9723307 252.696992,49.4228516 C252.010143,48.7360026 251.185924,48.3925781 250.224336,48.3925781 C249.125378,48.3925781 248.163789,48.7360026 247.33957,49.4228516 C246.515352,50.1097005 246.103242,51.0026042 246.103242,52.1015625 C246.103242,53.2005208 246.446667,54.1621094 247.133516,54.9863281 C247.820365,55.8105469 248.713268,56.2913411 249.812227,56.4287109 Z M249.812227,56.8408203 C249.812227,56.8408203 249.743542,56.8408203 249.606172,56.8408203 C249.606172,56.8408203 249.537487,56.8408203 249.400117,56.8408203 C249.537487,56.8408203 249.606172,56.8408203 249.606172,56.8408203 C249.743542,56.8408203 249.812227,56.8408203 249.812227,56.8408203 C249.812227,56.8408203 249.812227,56.8408203 249.812227,56.8408203 C249.812227,56.8408203 249.812227,56.8408203 249.812227,56.8408203 Z M249.606172,56.8408203 C249.468802,56.8408203 249.400117,56.8408203 249.400117,56.8408203 C249.400117,56.8408203 249.400117,56.8408203 249.400117,56.8408203 C249.400117,56.8408203 249.400117,56.8408203 249.400117,56.8408203 C249.400117,56.8408203 249.468802,56.8408203 249.606172,56.8408203 Z M254.551484,51.4833984 C254.551484,51.758138 254.551484,51.9641927 254.551484,52.1015625 C254.551484,52.2389323 254.551484,52.3763021 254.551484,52.5136719 C254.551484,52.7884115 254.551484,52.9944661 254.551484,53.1318359 C254.414115,53.2692057 254.34543,53.4752604 254.34543,53.75 C254.20806,53.75 254.139375,53.75 254.139375,53.75 C254.002005,53.75 253.864635,53.6813151 253.727266,53.5439453 C253.864635,53.4065755 253.93332,53.2692057 253.93332,53.1318359 C253.93332,52.9944661 253.93332,52.7884115 253.93332,52.5136719 C254.07069,52.3763021 254.07069,52.2389323 253.93332,52.1015625 C253.93332,51.8268229 253.93332,51.6207682 253.93332,51.4833984 C254.07069,51.4833984 254.139375,51.4833984 254.139375,51.4833984 C254.276745,51.4833984 254.414115,51.4833984 254.551484,51.4833984 Z M250.224336,48.3925781 C251.185924,48.3925781 252.010143,48.7360026 252.696992,49.4228516 C253.246471,49.9723307 253.658581,50.6591797 253.93332,51.4833984 C253.795951,51.4833984 253.658581,51.4833984 253.521211,51.4833984 C253.521211,51.4833984 253.452526,51.4833984 253.315156,51.4833984 C253.177786,50.7965495 252.834362,50.1783854 252.284883,49.6289062 C251.598034,49.2167969 250.911185,48.9420573 250.224336,48.8046875 C250.224336,48.8046875 250.224336,48.8046875 250.224336,48.8046875 C250.224336,48.8046875 250.224336,48.8046875 250.224336,48.8046875 C250.224336,48.8046875 250.293021,48.8733724 250.430391,49.0107422 C250.430391,49.0107422 250.499076,49.0107422 250.636445,49.0107422 C250.636445,49.0107422 250.56776,49.0107422 250.430391,49.0107422 C250.430391,48.8733724 250.361706,48.8046875 250.224336,48.8046875 C250.086966,48.8046875 250.018281,48.8046875 250.018281,48.8046875 C249.880911,48.8046875 249.812227,48.8046875 249.812227,48.8046875 C249.812227,48.8046875 249.880911,48.8046875 250.018281,48.8046875 C250.018281,48.8046875 250.086966,48.8046875 250.224336,48.8046875 C249.262747,48.8046875 248.438529,49.148112 247.75168,49.8349609 C247.064831,50.5218099 246.652721,51.2773438 246.515352,52.1015625 C246.515352,53.063151 246.858776,53.8873698 247.545625,54.5742188 C248.095104,55.3984375 248.850638,55.8105469 249.812227,55.8105469 C250.636445,55.8105469 251.323294,55.6044922 251.872773,55.1923828 C252.559622,54.7802734 253.040417,54.2307943 253.315156,53.5439453 C253.315156,53.5439453 253.383841,53.5439453 253.521211,53.5439453 C253.658581,53.5439453 253.727266,53.5439453 253.727266,53.5439453 C253.452526,54.3681641 252.971732,55.055013 252.284883,55.6044922 C251.598034,56.1539714 250.773815,56.360026 249.812227,56.2226562 C248.713268,56.2226562 247.820365,55.8105469 247.133516,54.9863281 C246.446667,54.1621094 246.103242,53.2005208 246.103242,52.1015625 C246.103242,51.0026042 246.515352,50.1097005 247.33957,49.4228516 C248.163789,48.7360026 249.125378,48.3925781 250.224336,48.3925781 Z M249.812227,49.0107422 C249.812227,49.0107422 249.880911,49.0107422 250.018281,49.0107422 C250.018281,49.0107422 250.086966,49.0107422 250.224336,49.0107422 C250.224336,49.0107422 250.224336,49.0107422 250.224336,49.0107422 C250.224336,49.0107422 250.224336,49.0107422 250.224336,49.0107422 C250.086966,49.0107422 250.018281,49.0107422 250.018281,49.0107422 C249.880911,49.0107422 249.812227,49.0107422 249.812227,49.0107422 Z M253.521211,52.5136719 C253.521211,52.3763021 253.521211,52.1702474 253.521211,51.8955078 C253.521211,51.758138 253.452526,51.6207682 253.315156,51.4833984 C253.452526,51.4833984 253.589896,51.4833984 253.727266,51.4833984 C253.727266,51.4833984 253.795951,51.4833984 253.93332,51.4833984 C253.93332,51.6207682 253.93332,51.8268229 253.93332,52.1015625 C254.07069,52.2389323 254.07069,52.3763021 253.93332,52.5136719 C253.93332,52.6510417 253.93332,52.8570964 253.93332,53.1318359 C253.93332,53.2692057 253.864635,53.4065755 253.727266,53.5439453 C253.727266,53.5439453 253.658581,53.5439453 253.521211,53.5439453 C253.383841,53.5439453 253.315156,53.5439453 253.315156,53.5439453 C253.315156,53.4065755 253.383841,53.2692057 253.521211,53.1318359 C253.521211,52.8570964 253.521211,52.6510417 253.521211,52.5136719 Z M313.895234,179.03125 C314.444714,179.16862 315.131562,179.443359 315.955781,179.855469 C316.093151,179.580729 316.230521,179.237305 316.367891,178.825195 C316.367891,178.550456 316.436576,178.275716 316.573945,178.000977 C316.986055,178.138346 317.604219,178.413086 318.428437,178.825195 C316.64263,180.885742 314.032604,183.839193 310.598359,187.685547 C311.147839,185.075521 311.972057,181.229167 313.071016,176.146484 C313.483125,176.283854 314.032604,176.558594 314.719453,176.970703 C314.582083,177.245443 314.444714,177.588867 314.307344,178.000977 C314.169974,178.413086 314.032604,178.75651 313.895234,179.03125 Z M313.895234,179.03125 C314.032604,178.75651 314.169974,178.413086 314.307344,178.000977 C314.444714,177.588867 314.582083,177.245443 314.719453,176.970703 C315.131562,177.245443 315.749727,177.588867 316.573945,178.000977 C316.436576,178.275716 316.367891,178.550456 316.367891,178.825195 C316.230521,179.237305 316.093151,179.580729 315.955781,179.855469 C315.681042,179.718099 315.337617,179.580729 314.925508,179.443359 C314.650768,179.30599 314.307344,179.16862 313.895234,179.03125 Z M199.946992,72.9130859 C199.809622,72.9130859 199.672253,72.844401 199.534883,72.7070312 C199.397513,72.7070312 199.328828,72.6383464 199.328828,72.5009766 C199.191458,72.5009766 199.122773,72.4322917 199.122773,72.2949219 C198.985404,72.1575521 198.916719,72.0201823 198.916719,71.8828125 C198.916719,71.7454427 198.985404,71.6080729 199.122773,71.4707031 C199.122773,71.4707031 199.191458,71.4020182 199.328828,71.2646484 C199.466198,70.9899089 199.740937,70.7151693 200.153047,70.4404297 C200.565156,70.0283203 200.977266,69.6162109 201.389375,69.2041016 C201.389375,69.0667318 201.45806,68.9980469 201.59543,68.9980469 C201.732799,68.9980469 201.801484,68.9980469 201.801484,68.9980469 C201.801484,68.9980469 201.870169,68.9980469 202.007539,68.9980469 C202.007539,68.9980469 202.007539,68.9980469 202.007539,68.9980469 C202.007539,68.9980469 202.076224,68.9980469 202.213594,68.9980469 C202.213594,68.9980469 202.282279,68.9980469 202.419648,68.9980469 C202.419648,68.9980469 202.488333,68.9980469 202.625703,68.9980469 C202.625703,69.1354167 202.694388,69.2041016 202.831758,69.2041016 C202.831758,69.3414714 202.831758,69.4788411 202.831758,69.6162109 C202.831758,69.6162109 202.831758,69.6848958 202.831758,69.8222656 C202.831758,71.4707031 202.831758,73.5999349 202.831758,76.2099609 C202.831758,78.6826172 202.831758,81.6360677 202.831758,85.0703125 C202.831758,85.2076823 202.831758,85.3450521 202.831758,85.4824219 C202.831758,85.4824219 202.763073,85.5511068 202.625703,85.6884766 C202.488333,85.8258464 202.419648,85.8945312 202.419648,85.8945312 C202.282279,85.8945312 202.144909,85.8945312 202.007539,85.8945312 C201.870169,85.8945312 201.732799,85.8945312 201.59543,85.8945312 C201.59543,85.8945312 201.526745,85.8258464 201.389375,85.6884766 C201.252005,85.5511068 201.18332,85.4824219 201.18332,85.4824219 C201.18332,85.3450521 201.18332,85.2076823 201.18332,85.0703125 C201.18332,83.5592448 201.18332,81.7047526 201.18332,79.5068359 C201.18332,77.3089193 201.18332,74.7675781 201.18332,71.8828125 C201.045951,72.0201823 200.908581,72.1575521 200.771211,72.2949219 C200.771211,72.2949219 200.702526,72.3636068 200.565156,72.5009766 C200.427786,72.6383464 200.290417,72.7070312 200.153047,72.7070312 C200.153047,72.844401 200.084362,72.9130859 199.946992,72.9130859 Z M241.15793,54.5742188 C240.471081,54.5742188 239.715547,54.5742188 238.891328,54.5742188 C238.204479,54.5742188 237.51763,54.5742188 236.830781,54.5742188 C236.143932,54.5742188 235.457083,54.5742188 234.770234,54.5742188 C233.946016,54.5742188 233.190482,54.5742188 232.503633,54.5742188 C232.503633,54.5742188 232.434948,54.5742188 232.297578,54.5742188 C232.297578,54.5742188 232.228893,54.5742188 232.091523,54.5742188 C232.091523,54.436849 232.091523,54.3681641 232.091523,54.3681641 C231.954154,54.3681641 231.885469,54.3681641 231.885469,54.3681641 C231.885469,54.2307943 231.816784,54.1621094 231.679414,54.1621094 C231.679414,54.0247396 231.679414,53.9560547 231.679414,53.9560547 C231.679414,53.9560547 231.679414,53.8873698 231.679414,53.75 C231.679414,53.75 231.679414,53.75 231.679414,53.75 C231.679414,53.6126302 231.679414,53.5439453 231.679414,53.5439453 C231.679414,53.5439453 231.679414,53.5439453 231.679414,53.5439453 C231.679414,53.5439453 231.679414,53.4065755 231.679414,53.1318359 C231.816784,52.9944661 231.885469,52.7197266 231.885469,52.3076172 C232.022839,51.8955078 232.160208,51.4833984 232.297578,51.0712891 C232.572318,50.5218099 232.847057,49.9723307 233.121797,49.4228516 C233.396536,49.148112 233.602591,48.8733724 233.739961,48.5986328 C234.014701,48.3238932 234.28944,48.0491536 234.56418,47.7744141 C234.838919,47.4996745 235.113659,47.2249349 235.388398,46.9501953 C235.663138,46.8128255 236.006562,46.6067708 236.418672,46.3320313 C237.242891,45.7825521 237.861055,45.3017578 238.273164,44.8896484 C238.822643,44.4775391 239.166068,44.1341146 239.303437,43.859375 C239.578177,43.4472656 239.784232,43.1038411 239.921602,42.8291016 C239.921602,42.554362 239.921602,42.2796224 239.921602,42.0048828 C239.921602,41.867513 239.921602,41.7301432 239.921602,41.5927734 C239.921602,41.5927734 239.921602,41.5240885 239.921602,41.3867187 C239.921602,41.249349 239.921602,41.1119792 239.921602,40.9746094 C239.921602,40.9746094 239.852917,40.9059245 239.715547,40.7685547 C239.715547,40.4938151 239.646862,40.2877604 239.509492,40.1503906 C239.234753,40.0130208 239.028698,39.875651 238.891328,39.7382813 C238.616589,39.6009115 238.341849,39.4635417 238.067109,39.3261719 C237.655,39.3261719 237.242891,39.3261719 236.830781,39.3261719 C236.556042,39.3261719 236.212617,39.3261719 235.800508,39.3261719 C235.525768,39.4635417 235.319714,39.6009115 235.182344,39.7382813 C234.907604,39.875651 234.701549,40.0817057 234.56418,40.3564453 C234.28944,40.4938151 234.083385,40.6998698 233.946016,40.9746094 C233.946016,41.1119792 233.877331,41.249349 233.739961,41.3867187 C233.739961,41.3867187 233.671276,41.3867187 233.533906,41.3867187 C233.396536,41.5240885 233.259167,41.5927734 233.121797,41.5927734 C232.984427,41.5927734 232.847057,41.5240885 232.709687,41.3867187 C232.709687,41.3867187 232.641003,41.3180339 232.503633,41.1806641 C232.503633,41.1806641 232.434948,41.1119792 232.297578,40.9746094 C232.297578,40.8372396 232.297578,40.6998698 232.297578,40.5625 C232.297578,40.4251302 232.297578,40.3564453 232.297578,40.3564453 C232.572318,39.8069661 232.847057,39.3948568 233.121797,39.1201172 C233.396536,38.7080078 233.739961,38.4332682 234.15207,38.2958984 C234.56418,38.0211589 234.976289,37.8151042 235.388398,37.6777344 C235.800508,37.5403646 236.281302,37.4716797 236.830781,37.4716797 C237.79237,37.4716797 238.547904,37.6090495 239.097383,37.8837891 C239.784232,38.1585286 240.333711,38.5019531 240.74582,38.9140625 C241.02056,39.4635417 241.295299,39.9443359 241.570039,40.3564453 C241.707409,40.9059245 241.776094,41.4554036 241.776094,42.0048828 C241.776094,42.554362 241.707409,43.0351562 241.570039,43.4472656 C241.432669,43.9967448 241.15793,44.546224 240.74582,45.0957031 C240.471081,45.5078125 240.058971,45.9199219 239.509492,46.3320313 C238.822643,46.8815104 238.135794,47.3623047 237.448945,47.7744141 C236.762096,48.1865234 236.212617,48.5986328 235.800508,49.0107422 C235.388398,49.5602214 235.044974,50.0410156 234.770234,50.453125 C234.495495,50.8652344 234.220755,51.2773438 233.946016,51.6894531 C233.808646,52.1015625 233.671276,52.444987 233.533906,52.7197266 C234.495495,52.7197266 235.594453,52.7197266 236.830781,52.7197266 C238.067109,52.7197266 239.509492,52.7197266 241.15793,52.7197266 C241.295299,52.7197266 241.363984,52.7884115 241.363984,52.9257812 C241.501354,52.9257812 241.638724,52.9944661 241.776094,53.1318359 C241.913464,53.1318359 241.982148,53.2005208 241.982148,53.3378906 C241.982148,53.4752604 241.982148,53.6126302 241.982148,53.75 C241.982148,53.8873698 241.982148,53.9560547 241.982148,53.9560547 C241.982148,54.0934245 241.913464,54.2307943 241.776094,54.3681641 C241.638724,54.3681641 241.570039,54.436849 241.570039,54.5742188 C241.432669,54.5742188 241.295299,54.5742188 241.15793,54.5742188 Z M212.516328,106.293945 C212.928437,106.293945 213.615286,106.293945 214.576875,106.293945 C214.576875,99.8375651 214.576875,90.1529948 214.576875,77.2402344 C214.439505,77.2402344 214.302135,77.2402344 214.164766,77.2402344 C213.890026,77.3776042 213.683971,77.4462891 213.546602,77.4462891 C213.409232,77.4462891 213.203177,77.3776042 212.928437,77.2402344 C212.791068,77.2402344 212.653698,77.2402344 212.516328,77.2402344 C212.516328,82.0481771 212.516328,86.9248047 212.516328,91.8701172 C212.516328,96.6780599 212.516328,101.486003 212.516328,106.293945 Z M212.516328,108.354492 C212.516328,107.942383 212.516328,107.255534 212.516328,106.293945 C212.104219,106.293945 211.41737,106.293945 210.455781,106.293945 C211.14263,108.903971 212.172904,112.750326 213.546602,117.833008 C214.233451,115.222982 215.263724,111.376628 216.637422,106.293945 C216.225312,106.293945 215.538464,106.293945 214.576875,106.293945 C214.576875,106.843424 214.576875,107.530273 214.576875,108.354492 C214.164766,108.354492 213.477917,108.354492 212.516328,108.354492 Z M212.516328,108.354492 C212.928437,108.354492 213.615286,108.354492 214.576875,108.354492 C214.576875,107.942383 214.576875,107.255534 214.576875,106.293945 C214.164766,106.293945 213.477917,106.293945 212.516328,106.293945 C212.516328,106.843424 212.516328,107.530273 212.516328,108.354492 Z M212.516328,76.6220703 C211.692109,76.3473307 211.00526,75.8665365 210.455781,75.1796875 C209.906302,74.4928385 209.631562,73.7373047 209.631562,72.9130859 C209.631562,71.8141276 209.974987,70.8525391 210.661836,70.0283203 C211.486055,69.2041016 212.447643,68.7919922 213.546602,68.7919922 C214.64556,68.7919922 215.607148,69.2041016 216.431367,70.0283203 C217.118216,70.8525391 217.461641,71.8141276 217.461641,72.9130859 C217.461641,73.7373047 217.186901,74.4928385 216.637422,75.1796875 C216.087943,75.8665365 215.401094,76.3473307 214.576875,76.6220703 C214.576875,76.7594401 214.576875,76.9654948 214.576875,77.2402344 C215.538464,76.9654948 216.362682,76.4160156 217.049531,75.5917969 C217.73638,74.7675781 218.079805,73.8746745 218.079805,72.9130859 C218.079805,71.6767578 217.59901,70.5777995 216.637422,69.6162109 C215.813203,68.7919922 214.78293,68.3798828 213.546602,68.3798828 C212.310273,68.3798828 211.28,68.7919922 210.455781,69.6162109 C209.494193,70.5777995 209.013398,71.6767578 209.013398,72.9130859 C209.013398,73.8746745 209.356823,74.7675781 210.043672,75.5917969 C210.730521,76.4160156 211.55474,76.9654948 212.516328,77.2402344 C212.516328,77.1028646 212.516328,76.9654948 212.516328,76.828125 C212.516328,76.828125 212.516328,76.7594401 212.516328,76.6220703 Z M212.516328,76.6220703 C212.516328,76.7594401 212.516328,76.9654948 212.516328,77.2402344 C212.653698,77.2402344 212.791068,77.2402344 212.928437,77.2402344 C213.203177,77.3776042 213.409232,77.4462891 213.546602,77.4462891 C213.683971,77.4462891 213.890026,77.3776042 214.164766,77.2402344 C214.302135,77.2402344 214.439505,77.2402344 214.576875,77.2402344 C214.576875,77.1028646 214.576875,76.8968099 214.576875,76.6220703 C214.439505,76.6220703 214.302135,76.6907552 214.164766,76.828125 C213.890026,76.828125 213.683971,76.828125 213.546602,76.828125 C213.409232,76.828125 213.203177,76.828125 212.928437,76.828125 C212.791068,76.828125 212.653698,76.7594401 212.516328,76.6220703 Z M210.043672,73.3251953 C210.043672,73.3251953 210.043672,73.3251953 210.043672,73.3251953 C210.043672,73.1878255 210.043672,73.0504557 210.043672,72.9130859 C210.043672,72.7757161 210.043672,72.6383464 210.043672,72.5009766 C210.043672,72.3636068 210.043672,72.2949219 210.043672,72.2949219 C210.043672,72.2949219 210.043672,72.3636068 210.043672,72.5009766 C210.043672,72.6383464 210.043672,72.7757161 210.043672,72.9130859 C210.043672,71.9514974 210.387096,71.1272786 211.073945,70.4404297 C211.760794,69.7535807 212.585013,69.4101562 213.546602,69.4101562 C214.50819,69.4101562 215.332409,69.7535807 216.019258,70.4404297 C216.706107,71.1272786 217.049531,71.9514974 217.049531,72.9130859 C217.049531,73.5999349 216.774792,74.2867839 216.225312,74.9736328 C215.813203,75.523112 215.263724,75.8665365 214.576875,76.0039062 C214.576875,76.141276 214.576875,76.3473307 214.576875,76.6220703 C215.401094,76.3473307 216.087943,75.8665365 216.637422,75.1796875 C217.186901,74.4928385 217.461641,73.7373047 217.461641,72.9130859 C217.461641,71.8141276 217.118216,70.8525391 216.431367,70.0283203 C215.607148,69.2041016 214.64556,68.7919922 213.546602,68.7919922 C212.447643,68.7919922 211.486055,69.2041016 210.661836,70.0283203 C209.974987,70.8525391 209.631562,71.8141276 209.631562,72.9130859 C209.631562,73.7373047 209.906302,74.4928385 210.455781,75.1796875 C211.00526,75.8665365 211.692109,76.3473307 212.516328,76.6220703 C212.516328,76.4847005 212.516328,76.2786458 212.516328,76.0039062 C211.829479,75.8665365 211.28,75.523112 210.867891,74.9736328 C210.318411,74.2867839 210.043672,73.5999349 210.043672,72.9130859 C210.043672,73.0504557 210.043672,73.1878255 210.043672,73.3251953 C210.043672,73.3251953 210.043672,73.3251953 210.043672,73.3251953 Z M214.576875,76.0039062 C214.439505,76.141276 214.302135,76.2099609 214.164766,76.2099609 C213.890026,76.2099609 213.683971,76.2099609 213.546602,76.2099609 C213.409232,76.2099609 213.203177,76.2099609 212.928437,76.2099609 C212.791068,76.2099609 212.653698,76.141276 212.516328,76.0039062 C212.516328,76.141276 212.516328,76.3473307 212.516328,76.6220703 C212.653698,76.6220703 212.791068,76.6907552 212.928437,76.828125 C213.203177,76.828125 213.409232,76.828125 213.546602,76.828125 C213.683971,76.828125 213.890026,76.828125 214.164766,76.828125 C214.302135,76.6907552 214.439505,76.6220703 214.576875,76.6220703 C214.576875,76.4847005 214.576875,76.4160156 214.576875,76.4160156 C214.576875,76.2786458 214.576875,76.141276 214.576875,76.0039062 Z" transform="translate(-205.917)"/></svg>