<svg xmlns="http://www.w3.org/2000/svg" width="97" height="203" viewBox="0 0 97 203"><path fill="#131313" d="M322.751953,89.640625 C325.896484,96.5286458 327.31901,103.566406 327.019531,110.753906 C326.570312,117.791667 324.399089,124.305339 320.505859,130.294922 C315.863932,137.632161 309.35026,143.247396 300.964844,147.140625 C292.429687,151.033854 282.846354,152.980469 272.214844,152.980469 C269.519531,152.980469 265.476562,152.980469 260.085937,152.980469 C257.839844,152.980469 255.968099,152.231771 254.470703,150.734375 C252.823568,149.08724 252,147.140625 252,144.894531 C252,114.048177 252,81.7786458 252,20.0859375 C252,17.8398438 252.823568,15.8932292 254.470703,14.2460938 C255.968099,12.7486979 257.839844,12 260.085937,12 C262.332031,12 264.278646,12.7486979 265.925781,14.2460938 C267.423177,15.8932292 268.171875,17.8398438 268.171875,20.0859375 C268.171875,34.3111979 268.171875,41.7239583 268.171875,70.3242188 C272.664062,68.9765625 277.904948,68.0032552 283.894531,67.4042969 C289.734375,66.8053385 295.574219,67.5540365 301.414062,69.6503906 C306.205729,71.297526 310.398437,73.843099 313.992187,77.2871094 C317.585937,80.5813802 320.505859,84.6992188 322.751953,89.640625 Z M306.632812,121.121202 C309.028646,117.527452 310.301432,113.559353 310.451172,109.216905 C310.600911,104.724718 309.702474,100.38227 307.755859,96.1895616 C306.408203,93.19477 304.761068,90.7240668 302.814453,88.7774523 C300.867839,86.9805773 298.546875,85.5580512 295.851562,84.5098741 C291.059896,82.8627387 286.04362,82.5632595 280.802734,83.6114366 C275.561849,84.6596137 271.294271,85.7826606 268,86.9805773 C268,97.9115668 268,114.382921 268,136.39464 C268.898437,136.39464 270.171224,136.39464 271.818359,136.39464 C279.754557,136.39464 286.792318,135.046984 292.931641,132.351671 C298.921224,129.656359 303.488281,125.912869 306.632812,121.121202 Z M304.185547,57.5214844 C308.378255,59.0188802 312.271484,61.0403646 315.865234,63.5859375 C319.309245,66.1315104 322.453776,69.1263021 325.298828,72.5703125 C324.849609,72.8697917 324.175781,73.3190104 323.277344,73.9179688 C320.582031,70.6236979 317.58724,67.7786458 314.292969,65.3828125 C310.998698,62.9869792 307.330078,61.1152344 303.287109,59.7675781 C300.741536,58.8691406 298.121094,58.1953125 295.425781,57.7460938 C292.730469,57.296875 289.885417,57.0722656 286.890625,57.0722656 C286.890625,56.7727865 286.890625,56.4733073 286.890625,56.1738281 C286.890625,56.0240885 286.890625,55.7994792 286.890625,55.5 C286.890625,55.3502604 286.890625,55.2005208 286.890625,55.0507812 C286.890625,54.9010417 286.890625,54.7513021 286.890625,54.6015625 C289.885417,54.6015625 292.880208,54.9010417 295.875,55.5 C298.720052,55.9492188 301.490234,56.6230469 304.185547,57.5214844 Z M282.398437,60.2167969 C283.446615,60.0670573 284.270182,59.6927083 284.869141,59.09375 C285.617839,58.4947917 286.067057,57.8209635 286.216797,57.0722656 C286.366536,57.0722656 286.441406,57.0722656 286.441406,57.0722656 C286.591146,57.0722656 286.740885,57.0722656 286.890625,57.0722656 C286.591146,57.9707031 286.067057,58.7942708 285.318359,59.5429688 C284.569661,60.2916667 283.671224,60.7408854 282.623047,60.890625 C281.275391,60.890625 280.077474,60.516276 279.029297,59.7675781 C277.98112,58.8691406 277.382161,57.7460938 277.232422,56.3984375 C277.082682,55.0507813 277.457031,53.8528646 278.355469,52.8046875 C279.104167,51.7565104 280.152344,51.1575521 281.5,51.0078125 C282.697917,50.8580729 283.820964,51.1575521 284.869141,51.90625 C285.767578,52.6549479 286.366536,53.5533854 286.666016,54.6015625 C286.666016,54.6015625 286.591146,54.6015625 286.441406,54.6015625 C286.441406,54.6015625 286.366536,54.6015625 286.216797,54.6015625 C285.917318,53.703125 285.318359,52.9544271 284.419922,52.3554688 C283.671224,51.7565104 282.772786,51.531901 281.724609,51.6816406 C280.526693,51.6816406 279.553385,52.2057292 278.804687,53.2539063 C278.05599,54.1523438 277.681641,55.2005208 277.681641,56.3984375 C277.83138,57.5963542 278.355469,58.5696615 279.253906,59.3183594 C280.152344,60.0670573 281.200521,60.3665365 282.398437,60.2167969 Z M283.296875,60.6660156 C283.147135,60.6660156 282.997396,60.6660156 282.847656,60.6660156 C282.697917,60.6660156 282.623047,60.7408854 282.623047,60.890625 C282.772786,60.7408854 282.847656,60.6660156 282.847656,60.6660156 C282.997396,60.6660156 283.147135,60.6660156 283.296875,60.6660156 Z M286.890625,54.6015625 C286.890625,54.7513021 286.890625,54.9010417 286.890625,55.0507812 C286.890625,55.2005208 286.890625,55.3502604 286.890625,55.5 C286.890625,55.6497396 286.890625,55.874349 286.890625,56.1738281 C286.890625,56.4733073 286.890625,56.6979167 286.890625,56.8476562 C286.740885,56.8476562 286.591146,56.8476562 286.441406,56.8476562 C286.441406,56.9973958 286.366536,57.0722656 286.216797,57.0722656 C286.366536,56.7727865 286.441406,56.4733073 286.441406,56.1738281 C286.441406,56.0240885 286.441406,55.7994792 286.441406,55.5 C286.441406,55.3502604 286.366536,55.2005208 286.216797,55.0507812 C286.216797,54.9010417 286.216797,54.7513021 286.216797,54.6015625 C286.366536,54.6015625 286.441406,54.6015625 286.441406,54.6015625 C286.591146,54.6015625 286.740885,54.6015625 286.890625,54.6015625 Z M281.724609,51.6816406 C282.772786,51.531901 283.671224,51.7565104 284.419922,52.3554688 C285.318359,52.9544271 285.917318,53.703125 286.216797,54.6015625 C286.067057,54.6015625 285.992187,54.6015625 285.992187,54.6015625 C285.842448,54.6015625 285.692708,54.6015625 285.542969,54.6015625 C285.24349,53.8528646 284.794271,53.2539062 284.195312,52.8046875 C283.446615,52.3554688 282.623047,52.1308594 281.724609,52.1308594 C281.724609,52.1308594 281.724609,52.1308594 281.724609,52.1308594 C281.874349,52.1308594 281.949219,52.1308594 281.949219,52.1308594 C281.949219,52.1308594 282.024089,52.1308594 282.173828,52.1308594 C282.173828,52.1308594 282.173828,52.1308594 282.173828,52.1308594 C282.173828,52.1308594 282.173828,52.1308594 282.173828,52.1308594 C282.024089,52.1308594 281.949219,52.1308594 281.949219,52.1308594 C281.949219,52.1308594 281.874349,52.1308594 281.724609,52.1308594 C281.724609,52.1308594 281.724609,52.1308594 281.724609,52.1308594 C281.724609,52.1308594 281.724609,52.1308594 281.724609,52.1308594 C281.57487,52.1308594 281.5,52.1308594 281.5,52.1308594 C281.5,52.1308594 281.42513,52.1308594 281.275391,52.1308594 C281.275391,52.1308594 281.275391,52.1308594 281.275391,52.1308594 C281.275391,52.1308594 281.275391,52.1308594 281.275391,52.1308594 C281.42513,52.1308594 281.5,52.1308594 281.5,52.1308594 C281.5,52.1308594 281.57487,52.1308594 281.724609,52.1308594 C281.724609,52.1308594 281.724609,52.1308594 281.724609,52.1308594 C280.676432,52.280599 279.852865,52.7298177 279.253906,53.4785156 C278.505208,54.3769531 278.205729,55.2753906 278.355469,56.1738281 C278.505208,57.2220052 278.954427,58.1204427 279.703125,58.8691406 C280.451823,59.468099 281.35026,59.6927083 282.398437,59.5429688 C283.147135,59.5429688 283.820964,59.3183594 284.419922,58.8691406 C285.01888,58.2701823 285.468099,57.671224 285.767578,57.0722656 C285.767578,57.0722656 285.842448,57.0722656 285.992187,57.0722656 C286.141927,57.0722656 286.216797,57.0722656 286.216797,57.0722656 C286.067057,57.8209635 285.617839,58.4947917 284.869141,59.09375 C284.270182,59.6927083 283.446615,60.0670573 282.398437,60.2167969 C281.35026,60.3665365 280.302083,60.0670573 279.253906,59.3183594 C278.355469,58.5696615 277.83138,57.5963542 277.681641,56.3984375 C277.681641,55.2005208 278.05599,54.1523438 278.804687,53.2539062 C279.553385,52.2057292 280.526693,51.6816406 281.724609,51.6816406 Z M285.767578,55.5 C285.767578,55.3502604 285.767578,55.2005208 285.767578,55.0507812 C285.767578,54.9010417 285.692708,54.7513021 285.542969,54.6015625 C285.692708,54.6015625 285.842448,54.6015625 285.992187,54.6015625 C285.992187,54.6015625 286.067057,54.6015625 286.216797,54.6015625 C286.216797,54.7513021 286.291667,54.9010417 286.441406,55.0507812 C286.441406,55.2005208 286.441406,55.3502604 286.441406,55.5 C286.441406,55.7994792 286.441406,56.0240885 286.441406,56.1738281 C286.441406,56.4733073 286.366536,56.7727865 286.216797,57.0722656 C286.216797,57.0722656 286.141927,57.0722656 285.992187,57.0722656 C285.842448,57.0722656 285.767578,57.0722656 285.767578,57.0722656 C285.767578,56.7727865 285.767578,56.5481771 285.767578,56.3984375 C285.767578,56.0989583 285.767578,55.7994792 285.767578,55.5 Z M325.298828,72.5703125 C325.748047,72.4205729 326.421875,72.046224 327.320312,71.4472656 C328.06901,74.1425781 329.192057,78.2604167 330.689453,83.8007812 C328.742839,81.8541667 325.673177,78.859375 321.480469,74.8164062 C321.929687,74.6666667 322.528646,74.3671875 323.277344,73.9179688 C323.576823,74.2174479 323.801432,74.5169271 323.951172,74.8164062 C324.250651,75.1158854 324.47526,75.4153646 324.625,75.7148438 C325.074219,75.4153646 325.748047,74.9661458 326.646484,74.3671875 C326.347005,74.0677083 326.122396,73.7682292 325.972656,73.46875 C325.673177,73.1692708 325.448568,72.8697917 325.298828,72.5703125 Z M326.646484,74.3671875 C326.197266,74.6666667 325.598307,75.1158854 324.849609,75.7148438 C324.55013,75.4153646 324.250651,75.1158854 323.951172,74.8164062 C323.801432,74.5169271 323.576823,74.2174479 323.277344,73.9179688 C323.726562,73.6184896 324.400391,73.1692708 325.298828,72.5703125 C325.448568,72.8697917 325.673177,73.1692708 325.972656,73.46875 C326.122396,73.7682292 326.347005,74.0677083 326.646484,74.3671875 Z M240.171875,23.9472656 C240.321615,23.9472656 240.546224,23.9472656 240.845703,23.9472656 C240.995443,23.9472656 241.145182,23.9472656 241.294922,23.9472656 C241.594401,23.9472656 241.81901,23.9472656 241.96875,23.9472656 C242.11849,23.9472656 242.268229,23.9472656 242.417969,23.9472656 C242.417969,49.8522135 242.417969,78.7845052 242.417969,130.744141 C241.96875,130.744141 241.220052,130.744141 240.171875,130.744141 C240.171875,111.277995 240.171875,91.811849 240.171875,72.3457031 C240.171875,52.8795573 240.171875,43.4134115 240.171875,23.9472656 Z M237.925781,130.744141 C238.674479,133.439453 239.797526,137.557292 241.294922,143.097656 C242.04362,140.402344 243.166667,136.284505 244.664062,130.744141 C244.214844,130.744141 238.973958,130.744141 237.925781,130.744141 Z M240.171875,23.9472656 C239.123698,23.6477865 238.22526,23.0488281 237.476562,22.1503906 C236.727865,21.2519531 236.353516,20.2786458 236.353516,19.2304688 C236.353516,17.8828125 236.877604,16.6848958 237.925781,15.6367188 C238.824219,14.7382813 239.947266,14.2890625 241.294922,14.2890625 C242.642578,14.2890625 243.840495,14.7382813 244.888672,15.6367188 C245.787109,16.6848958 246.236328,17.8828125 246.236328,19.2304688 C246.236328,20.2786458 245.861979,21.2519531 245.113281,22.1503906 C244.364583,23.0488281 243.466146,23.6477865 242.417969,23.9472656 C242.417969,23.797526 242.417969,23.5729167 242.417969,23.2734375 C243.316406,22.9739583 244.065104,22.4498698 244.664062,21.7011719 C245.263021,20.952474 245.5625,20.1289063 245.5625,19.2304688 C245.5625,18.0325521 245.188151,16.984375 244.439453,16.0859375 C243.541016,15.1875 242.492839,14.7382812 241.294922,14.7382812 C240.097005,14.7382812 239.123698,15.1875 238.375,16.0859375 C237.476562,16.984375 237.027344,18.0325521 237.027344,19.2304688 C237.027344,20.1289063 237.326823,20.952474 237.925781,21.7011719 C238.52474,22.4498698 239.273437,22.9739583 240.171875,23.2734375 C240.171875,23.4231771 240.171875,23.4980469 240.171875,23.4980469 C240.171875,23.6477865 240.171875,23.797526 240.171875,23.9472656 Z M241.294922,23.4980469 C241.594401,23.4980469 241.81901,23.4980469 241.96875,23.4980469 C242.11849,23.3483073 242.268229,23.2734375 242.417969,23.2734375 C242.417969,23.4231771 242.417969,23.6477865 242.417969,23.9472656 C242.268229,23.9472656 242.11849,23.9472656 241.96875,23.9472656 C241.81901,23.9472656 241.594401,23.9472656 241.294922,23.9472656 C241.145182,23.9472656 240.995443,23.9472656 240.845703,23.9472656 C240.546224,23.9472656 240.321615,23.9472656 240.171875,23.9472656 C240.171875,23.797526 240.171875,23.5729167 240.171875,23.2734375 C240.321615,23.2734375 240.546224,23.3483073 240.845703,23.4980469 C240.995443,23.4980469 241.145182,23.4980469 241.294922,23.4980469 Z M237.701172,19.2304688 C237.701172,19.9791667 237.925781,20.6529948 238.375,21.2519531 C238.824219,22.000651 239.423177,22.4498698 240.171875,22.5996094 C240.171875,22.749349 240.171875,22.9739583 240.171875,23.2734375 C239.273437,22.9739583 238.52474,22.4498698 237.925781,21.7011719 C237.326823,20.952474 237.027344,20.1289062 237.027344,19.2304688 C237.027344,18.0325521 237.476562,16.984375 238.375,16.0859375 C239.123698,15.1875 240.097005,14.7382812 241.294922,14.7382812 C242.492839,14.7382812 243.541016,15.1875 244.439453,16.0859375 C245.188151,16.984375 245.5625,18.0325521 245.5625,19.2304688 C245.5625,20.1289062 245.263021,20.952474 244.664062,21.7011719 C244.065104,22.4498698 243.316406,22.9739583 242.417969,23.2734375 C242.417969,23.1236979 242.417969,22.8990885 242.417969,22.5996094 C243.166667,22.4498698 243.840495,22.000651 244.439453,21.2519531 C244.888672,20.6529948 245.113281,19.9791667 245.113281,19.2304688 C245.113281,18.1822917 244.738932,17.2838542 243.990234,16.5351562 C243.241536,15.7864583 242.343099,15.4121094 241.294922,15.4121094 C240.246745,15.4121094 239.348307,15.7864583 238.599609,16.5351562 C238.000651,17.2838542 237.701172,18.1822917 237.701172,19.2304688 C237.701172,19.0807292 237.701172,18.9309896 237.701172,18.78125 C237.701172,18.6315104 237.701172,18.5566406 237.701172,18.5566406 C237.701172,18.5566406 237.701172,18.6315104 237.701172,18.78125 C237.701172,18.9309896 237.701172,19.0807292 237.701172,19.2304688 C237.701172,19.3802083 237.701172,19.4550781 237.701172,19.4550781 C237.701172,19.6048177 237.701172,19.6796875 237.701172,19.6796875 C237.701172,19.5299479 237.701172,19.3802083 237.701172,19.2304688 Z M242.417969,23.2734375 C242.268229,23.2734375 242.11849,23.3483073 241.96875,23.4980469 C241.81901,23.4980469 241.594401,23.4980469 241.294922,23.4980469 C241.145182,23.4980469 240.995443,23.4980469 240.845703,23.4980469 C240.546224,23.3483073 240.321615,23.2734375 240.171875,23.2734375 C240.171875,23.1236979 240.171875,22.8990885 240.171875,22.5996094 C240.321615,22.749349 240.546224,22.8242188 240.845703,22.8242188 C240.995443,22.8242188 241.145182,22.8242188 241.294922,22.8242188 C241.594401,22.8242188 241.81901,22.8242188 241.96875,22.8242188 C242.11849,22.8242188 242.268229,22.749349 242.417969,22.5996094 C242.417969,22.749349 242.417969,22.8990885 242.417969,23.0488281 C242.417969,23.0488281 242.417969,23.1236979 242.417969,23.2734375 Z M226.470703,16.7597656 C226.320964,16.7597656 226.171224,16.8346354 226.021484,16.984375 C225.871745,17.1341146 225.722005,17.2838542 225.572266,17.4335937 C225.572266,17.4335937 225.497396,17.5084635 225.347656,17.6582031 C225.197917,17.6582031 225.048177,17.6582031 224.898437,17.6582031 C224.898437,17.6582031 224.823568,17.6582031 224.673828,17.6582031 C224.524089,17.5084635 224.374349,17.4335937 224.224609,17.4335937 C224.224609,17.2838542 224.14974,17.1341146 224,16.984375 C224,16.984375 224,16.9095052 224,16.7597656 C224,16.610026 224,16.4602865 224,16.3105469 C224.14974,16.1608073 224.224609,16.0859375 224.224609,16.0859375 C224.524089,15.7864583 224.898437,15.4121094 225.347656,14.9628906 C225.647135,14.6634115 226.096354,14.2141927 226.695312,13.6152344 C226.695312,13.6152344 226.770182,13.5403646 226.919922,13.390625 C226.919922,13.390625 226.994792,13.390625 227.144531,13.390625 C227.294271,13.390625 227.369141,13.390625 227.369141,13.390625 C227.369141,13.390625 227.44401,13.390625 227.59375,13.390625 C227.59375,13.390625 227.66862,13.390625 227.818359,13.390625 C227.818359,13.5403646 227.893229,13.6152344 228.042969,13.6152344 C228.042969,13.6152344 228.042969,13.6901042 228.042969,13.8398437 C228.192708,13.9895833 228.267578,14.0644531 228.267578,14.0644531 C228.267578,14.2141927 228.267578,14.2890625 228.267578,14.2890625 C228.267578,16.2356771 228.267578,18.5566406 228.267578,21.2519531 C228.267578,24.0970052 228.267578,27.3164063 228.267578,30.9101563 C228.267578,31.0598958 228.267578,31.2096354 228.267578,31.359375 C228.267578,31.5091146 228.192708,31.6588542 228.042969,31.8085938 C227.893229,31.8085938 227.74349,31.8085938 227.59375,31.8085938 C227.59375,31.9583333 227.51888,32.0332031 227.369141,32.0332031 C227.219401,32.0332031 227.069661,31.9583333 226.919922,31.8085938 C226.770182,31.8085938 226.695312,31.8085938 226.695312,31.8085938 C226.545573,31.6588542 226.470703,31.5091146 226.470703,31.359375 C226.470703,31.2096354 226.470703,31.0598958 226.470703,30.9101563 C226.470703,29.4127604 226.470703,27.4661458 226.470703,25.0703125 C226.470703,22.6744792 226.470703,19.9042969 226.470703,16.7597656 Z M281.5,32.8144531 C282.398437,32.2154948 283.072266,31.6914063 283.521484,31.2421875 C284.120443,30.7929687 284.494792,30.4186198 284.644531,30.1191406 C284.94401,29.6699219 285.16862,29.2955729 285.318359,28.9960938 C285.318359,28.6966146 285.318359,28.3222656 285.318359,27.8730469 C285.318359,27.8730469 285.318359,27.7981771 285.318359,27.6484375 C285.318359,27.4986979 285.318359,27.4238281 285.318359,27.4238281 C285.318359,27.2740885 285.318359,27.124349 285.318359,26.9746094 C285.318359,26.9746094 285.24349,26.8997396 285.09375,26.75 C285.09375,26.4505208 285.01888,26.2259115 284.869141,26.0761719 C284.569661,25.9264323 284.345052,25.7766927 284.195312,25.6269531 C283.895833,25.4772135 283.596354,25.327474 283.296875,25.1777344 C282.847656,25.1777344 282.398437,25.1777344 281.949219,25.1777344 C281.64974,25.1777344 281.35026,25.1777344 281.050781,25.1777344 C280.601562,25.327474 280.302083,25.4772135 280.152344,25.6269531 C279.852865,25.7766927 279.628255,25.9264323 279.478516,26.0761719 C279.179036,26.375651 278.954427,26.6751302 278.804687,26.9746094 C278.804687,27.124349 278.729818,27.1992188 278.580078,27.1992188 C278.580078,27.3489583 278.505208,27.4238281 278.355469,27.4238281 C278.205729,27.5735677 278.05599,27.6484375 277.90625,27.6484375 C277.75651,27.6484375 277.606771,27.5735677 277.457031,27.4238281 C277.457031,27.4238281 277.382161,27.3489583 277.232422,27.1992188 C277.232422,27.1992188 277.157552,27.124349 277.007812,26.9746094 C277.007812,26.8248698 277.007812,26.6751302 277.007812,26.5253906 C277.007812,26.375651 277.007812,26.2259115 277.007812,26.0761719 C277.307292,25.6269531 277.606771,25.2526042 277.90625,24.953125 C278.205729,24.5039062 278.580078,24.1295573 279.029297,23.8300781 C279.478516,23.6803385 279.927734,23.530599 280.376953,23.3808594 C280.826172,23.2311198 281.35026,23.15625 281.949219,23.15625 C282.997396,23.15625 283.820964,23.3059896 284.419922,23.6054688 C285.16862,23.7552083 285.767578,24.1295573 286.216797,24.7285156 C286.516276,25.1777344 286.815755,25.7018229 287.115234,26.3007813 C287.264974,26.8997396 287.339844,27.4986979 287.339844,28.0976562 C287.339844,28.6966146 287.264974,29.2207031 287.115234,29.6699219 C286.965495,30.2688802 286.666016,30.7929687 286.216797,31.2421875 C285.917318,31.8411458 285.468099,32.3652344 284.869141,32.8144531 C284.270182,33.4134115 283.521484,33.9375 282.623047,34.3867188 C281.874349,34.8359375 281.275391,35.2851562 280.826172,35.734375 C280.376953,36.1835938 280.002604,36.7076823 279.703125,37.3066406 C279.403646,37.7558594 279.179036,38.2050781 279.029297,38.6542969 C278.729818,39.1035156 278.505208,39.4778646 278.355469,39.7773438 C279.403646,39.7773438 280.601562,39.7773438 281.949219,39.7773438 C283.296875,39.7773438 284.869141,39.7773438 286.666016,39.7773438 C286.815755,39.7773438 286.965495,39.8522135 287.115234,40.0019531 C287.115234,40.0019531 287.190104,40.0019531 287.339844,40.0019531 C287.489583,40.1516927 287.564453,40.3014323 287.564453,40.4511719 C287.564453,40.6009115 287.564453,40.750651 287.564453,40.9003906 C287.564453,40.9003906 287.564453,40.9752604 287.564453,41.125 C287.564453,41.2747396 287.489583,41.4244792 287.339844,41.5742188 C287.190104,41.5742188 287.115234,41.6490885 287.115234,41.7988281 C286.965495,41.7988281 286.815755,41.7988281 286.666016,41.7988281 C285.917318,41.7988281 285.16862,41.7988281 284.419922,41.7988281 C283.521484,41.7988281 282.697917,41.7988281 281.949219,41.7988281 C281.200521,41.7988281 280.451823,41.7988281 279.703125,41.7988281 C278.804687,41.7988281 277.98112,41.7988281 277.232422,41.7988281 C277.232422,41.7988281 277.157552,41.7988281 277.007812,41.7988281 C277.007812,41.7988281 276.932943,41.7239583 276.783203,41.5742188 C276.783203,41.5742188 276.783203,41.5742188 276.783203,41.5742188 C276.633464,41.5742188 276.558594,41.5742188 276.558594,41.5742188 C276.558594,41.4244792 276.483724,41.3496094 276.333984,41.3496094 C276.333984,41.1998698 276.333984,41.125 276.333984,41.125 C276.333984,41.125 276.333984,41.0501302 276.333984,40.9003906 C276.333984,40.9003906 276.333984,40.9003906 276.333984,40.9003906 C276.333984,40.750651 276.333984,40.6757812 276.333984,40.6757812 C276.333984,40.6757812 276.333984,40.6757812 276.333984,40.6757812 C276.333984,40.6757812 276.333984,40.5260417 276.333984,40.2265625 C276.483724,40.0768229 276.558594,39.7773438 276.558594,39.328125 C276.708333,38.8789063 276.858073,38.3548177 277.007812,37.7558594 C277.307292,37.3066406 277.606771,36.7825521 277.90625,36.1835938 C278.205729,35.8841146 278.430339,35.5846354 278.580078,35.2851562 C278.879557,34.9856771 279.179036,34.6861979 279.478516,34.3867188 C279.777995,34.0872396 280.077474,33.7877604 280.376953,33.4882813 C280.676432,33.1888021 281.050781,32.9641927 281.5,32.8144531 Z" transform="translate(-241 -12)"/></svg>