<svg xmlns="http://www.w3.org/2000/svg" width="97" height="243" viewBox="0 0 97 243"><path fill="#131313" d="M98.7519531,101.640625 C101.896484,108.528646 103.31901,115.566406 103.019531,122.753906 C102.570312,129.791667 100.399089,136.305339 96.5058594,142.294922 C91.8639323,149.632161 85.3502604,155.247396 76.9648438,159.140625 C68.4296875,163.033854 58.8463542,164.980469 48.2148438,164.980469 C45.5195312,164.980469 41.4765625,164.980469 36.0859375,164.980469 C33.8398438,164.980469 31.968099,164.231771 30.4707031,162.734375 C28.8235677,161.08724 28,159.140625 28,156.894531 C28,156.894531 28,156.894531 28,156.894531 C28,156.894531 28,156.894531 28,156.894531 C28,126.048177 28,79.7786458 28,18.0859375 C28,15.8398438 28.8235677,13.8932292 30.4707031,12.2460938 C31.968099,10.7486979 33.8398438,10 36.0859375,10 C38.3320312,10 40.2786458,10.7486979 41.9257812,12.2460938 C43.4231771,13.8932292 44.171875,15.8398438 44.171875,18.0859375 C44.171875,32.3111979 44.171875,53.7239583 44.171875,82.3242188 C48.6640625,80.9765625 53.9049479,80.0032552 59.8945312,79.4042969 C65.734375,78.8053385 71.5742188,79.5540365 77.4140625,81.6503906 C82.2057292,83.297526 86.3984375,85.843099 89.9921875,89.2871094 C93.5859375,92.5813802 96.5058594,96.6992187 98.7519531,101.640625 Z M82.6328125,133.121202 C85.0286458,129.527452 86.3014323,125.559353 86.4511719,121.216905 C86.6009115,116.724718 85.702474,112.38227 83.7558594,108.189562 C82.4082031,105.19477 80.7610677,102.724067 78.8144531,100.777452 C76.8678385,98.9805773 74.546875,97.5580512 71.8515625,96.5098741 C67.0598958,94.8627387 62.0436198,94.5632595 56.8027344,95.6114366 C51.561849,96.6596137 47.2942708,97.7826606 44,98.9805773 C44,109.911567 44,126.382921 44,148.39464 C44.8984375,148.39464 46.171224,148.39464 47.8183594,148.39464 C55.7545573,148.39464 62.7923177,147.046984 68.9316406,144.351671 C74.921224,141.656359 79.4882812,137.912869 82.6328125,133.121202 Z M80.1855469,69.5214844 C84.3782552,71.0188802 88.2714844,73.0403646 91.8652344,75.5859375 C95.3092448,78.1315104 98.453776,81.1263021 101.298828,84.5703125 C100.849609,84.8697917 100.175781,85.3190104 99.2773438,85.9179688 C96.5820312,82.6236979 93.5872396,79.7786458 90.2929688,77.3828125 C86.9986979,74.9869792 83.3300781,73.1152344 79.2871094,71.7675781 C76.7415365,70.8691406 74.1210938,70.1953125 71.4257812,69.7460938 C68.7304688,69.296875 65.8854167,69.0722656 62.890625,69.0722656 C62.890625,68.7727865 62.890625,68.4733073 62.890625,68.1738281 C62.890625,68.0240885 62.890625,67.7994792 62.890625,67.5 C62.890625,67.3502604 62.890625,67.2005208 62.890625,67.0507812 C62.890625,66.9010417 62.890625,66.7513021 62.890625,66.6015625 C65.8854167,66.6015625 68.8802083,66.9010417 71.875,67.5 C74.7200521,67.9492188 77.4902344,68.6230469 80.1855469,69.5214844 Z M58.3984375,72.2167969 C59.4466146,72.0670573 60.2701823,71.6927083 60.8691406,71.09375 C61.6178385,70.4947917 62.0670573,69.8209635 62.2167969,69.0722656 C62.3665365,69.0722656 62.4414062,69.0722656 62.4414062,69.0722656 C62.5911458,69.0722656 62.7408854,69.0722656 62.890625,69.0722656 C62.5911458,69.9707031 62.0670573,70.7942708 61.3183594,71.5429688 C60.5696615,72.2916667 59.671224,72.7408854 58.6230469,72.890625 C57.2753906,72.890625 56.077474,72.516276 55.0292969,71.7675781 C53.9811198,70.8691406 53.3821615,69.7460938 53.2324219,68.3984375 C53.0826823,67.0507812 53.4570312,65.8528646 54.3554687,64.8046875 C55.1041667,63.7565104 56.1523437,63.1575521 57.5,63.0078125 C58.6979167,62.8580729 59.8209635,63.1575521 60.8691406,63.90625 C61.7675781,64.6549479 62.3665365,65.5533854 62.6660156,66.6015625 C62.6660156,66.6015625 62.5911458,66.6015625 62.4414062,66.6015625 C62.4414062,66.6015625 62.3665365,66.6015625 62.2167969,66.6015625 C61.9173177,65.703125 61.3183594,64.9544271 60.4199219,64.3554688 C59.671224,63.7565104 58.7727865,63.531901 57.7246094,63.6816406 C56.5266927,63.6816406 55.5533854,64.2057292 54.8046875,65.2539062 C54.0559896,66.1523438 53.6816406,67.2005208 53.6816406,68.3984375 C53.8313802,69.5963542 54.3554687,70.5696615 55.2539062,71.3183594 C56.1523437,72.0670573 57.2005208,72.3665365 58.3984375,72.2167969 Z M59.296875,72.6660156 C59.1471354,72.6660156 58.9973958,72.6660156 58.8476562,72.6660156 C58.6979167,72.6660156 58.6230469,72.7408854 58.6230469,72.890625 C58.7727865,72.7408854 58.8476562,72.6660156 58.8476562,72.6660156 C58.9973958,72.6660156 59.1471354,72.6660156 59.296875,72.6660156 Z M62.890625,66.6015625 C62.890625,66.7513021 62.890625,66.9010417 62.890625,67.0507812 C62.890625,67.2005208 62.890625,67.3502604 62.890625,67.5 C62.890625,67.6497396 62.890625,67.874349 62.890625,68.1738281 C62.890625,68.4733073 62.890625,68.6979167 62.890625,68.8476562 C62.7408854,68.8476562 62.5911458,68.8476562 62.4414062,68.8476562 C62.4414062,68.9973958 62.3665365,69.0722656 62.2167969,69.0722656 C62.3665365,68.7727865 62.4414062,68.4733073 62.4414062,68.1738281 C62.4414062,68.0240885 62.4414062,67.7994792 62.4414062,67.5 C62.4414062,67.3502604 62.3665365,67.2005208 62.2167969,67.0507812 C62.2167969,66.9010417 62.2167969,66.7513021 62.2167969,66.6015625 C62.3665365,66.6015625 62.4414062,66.6015625 62.4414062,66.6015625 C62.5911458,66.6015625 62.7408854,66.6015625 62.890625,66.6015625 Z M57.9492188,64.1308594 C57.9492188,64.1308594 58.0240885,64.1308594 58.1738281,64.1308594 C58.1738281,64.1308594 58.1738281,64.1308594 58.1738281,64.1308594 C58.1738281,64.1308594 58.1738281,64.1308594 58.1738281,64.1308594 C58.0240885,64.1308594 57.9492188,64.1308594 57.9492188,64.1308594 Z M57.7246094,63.6816406 C58.7727865,63.531901 59.671224,63.7565104 60.4199219,64.3554688 C61.3183594,64.9544271 61.9173177,65.703125 62.2167969,66.6015625 C62.0670573,66.6015625 61.9921875,66.6015625 61.9921875,66.6015625 C61.8424479,66.6015625 61.6927083,66.6015625 61.5429688,66.6015625 C61.2434896,65.8528646 60.7942708,65.2539062 60.1953125,64.8046875 C59.4466146,64.3554688 58.6230469,64.1308594 57.7246094,64.1308594 C57.7246094,64.1308594 57.7246094,64.1308594 57.7246094,64.1308594 C57.874349,64.1308594 57.9492188,64.1308594 57.9492188,64.1308594 C57.9492188,64.1308594 58.0240885,64.1308594 58.1738281,64.1308594 C58.1738281,64.1308594 58.1738281,64.1308594 58.1738281,64.1308594 C58.1738281,64.1308594 58.1738281,64.1308594 58.1738281,64.1308594 C58.0240885,64.1308594 57.9492188,64.1308594 57.9492188,64.1308594 C57.9492188,64.1308594 57.874349,64.1308594 57.7246094,64.1308594 C57.7246094,64.1308594 57.7246094,64.1308594 57.7246094,64.1308594 C57.7246094,64.1308594 57.7246094,64.1308594 57.7246094,64.1308594 C57.5748698,64.1308594 57.5,64.1308594 57.5,64.1308594 C57.5,64.1308594 57.4251302,64.1308594 57.2753906,64.1308594 C57.2753906,64.1308594 57.2753906,64.1308594 57.2753906,64.1308594 C57.2753906,64.1308594 57.2753906,64.1308594 57.2753906,64.1308594 C57.4251302,64.1308594 57.5,64.1308594 57.5,64.1308594 C57.5,64.1308594 57.5748698,64.1308594 57.7246094,64.1308594 C57.7246094,64.1308594 57.7246094,64.1308594 57.7246094,64.1308594 C56.6764323,64.280599 55.8528646,64.7298177 55.2539062,65.4785156 C54.5052083,66.3769531 54.2057292,67.2753906 54.3554688,68.1738281 C54.5052083,69.2220052 54.9544271,70.1204427 55.703125,70.8691406 C56.4518229,71.468099 57.3502604,71.6927083 58.3984375,71.5429688 C59.1471354,71.5429688 59.8209635,71.3183594 60.4199219,70.8691406 C61.0188802,70.2701823 61.468099,69.671224 61.7675781,69.0722656 C61.7675781,69.0722656 61.8424479,69.0722656 61.9921875,69.0722656 C62.1419271,69.0722656 62.2167969,69.0722656 62.2167969,69.0722656 C62.0670573,69.8209635 61.6178385,70.4947917 60.8691406,71.09375 C60.2701823,71.6927083 59.4466146,72.0670573 58.3984375,72.2167969 C57.3502604,72.3665365 56.3020833,72.0670573 55.2539062,71.3183594 C54.3554688,70.5696615 53.8313802,69.5963542 53.6816406,68.3984375 C53.6816406,67.2005208 54.0559896,66.1523438 54.8046875,65.2539062 C55.5533854,64.2057292 56.5266927,63.6816406 57.7246094,63.6816406 Z M61.7675781,67.5 C61.7675781,67.3502604 61.7675781,67.2005208 61.7675781,67.0507812 C61.7675781,66.9010417 61.6927083,66.7513021 61.5429688,66.6015625 C61.6927083,66.6015625 61.8424479,66.6015625 61.9921875,66.6015625 C61.9921875,66.6015625 62.0670573,66.6015625 62.2167969,66.6015625 C62.2167969,66.7513021 62.2916667,66.9010417 62.4414062,67.0507812 C62.4414062,67.2005208 62.4414062,67.3502604 62.4414062,67.5 C62.4414062,67.7994792 62.4414062,68.0240885 62.4414062,68.1738281 C62.4414062,68.4733073 62.3665365,68.7727865 62.2167969,69.0722656 C62.2167969,69.0722656 62.1419271,69.0722656 61.9921875,69.0722656 C61.8424479,69.0722656 61.7675781,69.0722656 61.7675781,69.0722656 C61.7675781,68.7727865 61.7675781,68.5481771 61.7675781,68.3984375 C61.7675781,68.0989583 61.7675781,67.7994792 61.7675781,67.5 Z M101.298828,84.5703125 C101.748047,84.4205729 102.421875,84.046224 103.320312,83.4472656 C104.06901,86.1425781 105.192057,90.2604167 106.689453,95.8007812 C104.742839,93.8541667 101.673177,90.859375 97.4804688,86.8164062 C97.9296875,86.6666667 98.5286458,86.3671875 99.2773438,85.9179688 C99.5768229,86.2174479 99.8014323,86.5169271 99.9511719,86.8164062 C100.250651,87.1158854 100.47526,87.4153646 100.625,87.7148438 C101.074219,87.4153646 101.748047,86.9661458 102.646484,86.3671875 C102.347005,86.0677083 102.122396,85.7682292 101.972656,85.46875 C101.673177,85.1692708 101.448568,84.8697917 101.298828,84.5703125 Z M102.646484,86.3671875 C102.197266,86.6666667 101.598307,87.1158854 100.849609,87.7148438 C100.55013,87.4153646 100.250651,87.1158854 99.9511719,86.8164062 C99.8014323,86.5169271 99.5768229,86.2174479 99.2773438,85.9179688 C99.7265625,85.6184896 100.400391,85.1692708 101.298828,84.5703125 C101.448568,84.8697917 101.673177,85.1692708 101.972656,85.46875 C102.122396,85.7682292 102.347005,86.0677083 102.646484,86.3671875 Z M16.171875,25.9472656 C16.3216146,25.9472656 16.546224,25.9472656 16.8457031,25.9472656 C16.9954427,25.9472656 17.1451823,25.9472656 17.2949219,25.9472656 C17.594401,25.9472656 17.8190104,25.9472656 17.96875,25.9472656 C18.1184896,25.9472656 18.2682292,25.9472656 18.4179688,25.9472656 C18.4179688,51.8522135 18.4179688,90.7845052 18.4179688,142.744141 C17.96875,142.744141 17.2200521,142.744141 16.171875,142.744141 C16.171875,123.277995 16.171875,103.811849 16.171875,84.3457031 C16.171875,64.8795573 16.171875,45.4134115 16.171875,25.9472656 Z M16.171875,144.990234 C16.171875,144.391276 16.171875,143.642578 16.171875,142.744141 C15.7226562,142.744141 14.9739583,142.744141 13.9257812,142.744141 C14.6744792,145.439453 15.797526,149.557292 17.2949219,155.097656 C18.0436198,152.402344 19.1666667,148.284505 20.6640625,142.744141 C20.2148438,142.744141 19.4661458,142.744141 18.4179688,142.744141 C18.4179688,143.193359 18.4179688,143.942057 18.4179688,144.990234 C17.96875,144.990234 17.2200521,144.990234 16.171875,144.990234 Z M16.171875,144.990234 C16.6210938,144.990234 17.3697917,144.990234 18.4179688,144.990234 C18.4179688,144.391276 18.4179688,143.642578 18.4179688,142.744141 C17.96875,142.744141 17.2200521,142.744141 16.171875,142.744141 C16.171875,143.193359 16.171875,143.942057 16.171875,144.990234 Z M16.171875,25.9472656 C15.1236979,25.6477865 14.2252604,25.0488281 13.4765625,24.1503906 C12.7278646,23.2519531 12.3535156,22.2786458 12.3535156,21.2304688 C12.3535156,19.8828125 12.8776042,18.6848958 13.9257812,17.6367188 C14.8242188,16.7382812 15.9472656,16.2890625 17.2949219,16.2890625 C18.6425781,16.2890625 19.8404948,16.7382812 20.8886719,17.6367188 C21.7871094,18.6848958 22.2363281,19.8828125 22.2363281,21.2304688 C22.2363281,22.2786458 21.8619792,23.2519531 21.1132812,24.1503906 C20.3645833,25.0488281 19.4661458,25.6477865 18.4179688,25.9472656 C18.4179688,25.797526 18.4179688,25.5729167 18.4179688,25.2734375 C19.3164062,24.9739583 20.0651042,24.4498698 20.6640625,23.7011719 C21.2630208,22.952474 21.5625,22.1289062 21.5625,21.2304688 C21.5625,20.0325521 21.188151,18.984375 20.4394531,18.0859375 C19.5410156,17.1875 18.4928385,16.7382812 17.2949219,16.7382812 C16.0970052,16.7382812 15.1236979,17.1875 14.375,18.0859375 C13.4765625,18.984375 13.0273438,20.0325521 13.0273438,21.2304688 C13.0273438,22.1289062 13.3268229,22.952474 13.9257812,23.7011719 C14.5247396,24.4498698 15.2734375,24.9739583 16.171875,25.2734375 C16.171875,25.4231771 16.171875,25.4980469 16.171875,25.4980469 C16.171875,25.6477865 16.171875,25.797526 16.171875,25.9472656 Z M17.2949219,25.4980469 C17.594401,25.4980469 17.8190104,25.4980469 17.96875,25.4980469 C18.1184896,25.3483073 18.2682292,25.2734375 18.4179688,25.2734375 C18.4179688,25.4231771 18.4179688,25.6477865 18.4179688,25.9472656 C18.2682292,25.9472656 18.1184896,25.9472656 17.96875,25.9472656 C17.8190104,25.9472656 17.594401,25.9472656 17.2949219,25.9472656 C17.1451823,25.9472656 16.9954427,25.9472656 16.8457031,25.9472656 C16.546224,25.9472656 16.3216146,25.9472656 16.171875,25.9472656 C16.171875,25.797526 16.171875,25.5729167 16.171875,25.2734375 C16.3216146,25.2734375 16.546224,25.3483073 16.8457031,25.4980469 C16.9954427,25.4980469 17.1451823,25.4980469 17.2949219,25.4980469 Z M13.7011719,21.2304688 C13.7011719,21.9791667 13.9257812,22.6529948 14.375,23.2519531 C14.8242188,24.000651 15.4231771,24.4498698 16.171875,24.5996094 C16.171875,24.749349 16.171875,24.9739583 16.171875,25.2734375 C15.2734375,24.9739583 14.5247396,24.4498698 13.9257812,23.7011719 C13.3268229,22.952474 13.0273438,22.1289062 13.0273438,21.2304688 C13.0273438,20.0325521 13.4765625,18.984375 14.375,18.0859375 C15.1236979,17.1875 16.0970052,16.7382812 17.2949219,16.7382812 C18.4928385,16.7382812 19.5410156,17.1875 20.4394531,18.0859375 C21.188151,18.984375 21.5625,20.0325521 21.5625,21.2304688 C21.5625,22.1289062 21.2630208,22.952474 20.6640625,23.7011719 C20.0651042,24.4498698 19.3164062,24.9739583 18.4179688,25.2734375 C18.4179688,25.1236979 18.4179688,24.8990885 18.4179688,24.5996094 C19.1666667,24.4498698 19.8404948,24.000651 20.4394531,23.2519531 C20.8886719,22.6529948 21.1132812,21.9791667 21.1132812,21.2304688 C21.1132812,20.1822917 20.7389323,19.2838542 19.9902344,18.5351562 C19.2415365,17.7864583 18.343099,17.4121094 17.2949219,17.4121094 C16.2467448,17.4121094 15.3483073,17.7864583 14.5996094,18.5351562 C14.000651,19.2838542 13.7011719,20.1822917 13.7011719,21.2304688 C13.7011719,21.0807292 13.7011719,20.9309896 13.7011719,20.78125 C13.7011719,20.6315104 13.7011719,20.5566406 13.7011719,20.5566406 C13.7011719,20.5566406 13.7011719,20.6315104 13.7011719,20.78125 C13.7011719,20.9309896 13.7011719,21.0807292 13.7011719,21.2304688 C13.7011719,21.3802083 13.7011719,21.4550781 13.7011719,21.4550781 C13.7011719,21.6048177 13.7011719,21.6796875 13.7011719,21.6796875 C13.7011719,21.6796875 13.7011719,21.6796875 13.7011719,21.6796875 C13.7011719,21.5299479 13.7011719,21.3802083 13.7011719,21.2304688 Z M18.4179688,25.2734375 C18.2682292,25.2734375 18.1184896,25.3483073 17.96875,25.4980469 C17.8190104,25.4980469 17.594401,25.4980469 17.2949219,25.4980469 C17.1451823,25.4980469 16.9954427,25.4980469 16.8457031,25.4980469 C16.546224,25.3483073 16.3216146,25.2734375 16.171875,25.2734375 C16.171875,25.1236979 16.171875,24.8990885 16.171875,24.5996094 C16.3216146,24.749349 16.546224,24.8242188 16.8457031,24.8242188 C16.9954427,24.8242188 17.1451823,24.8242188 17.2949219,24.8242188 C17.594401,24.8242188 17.8190104,24.8242188 17.96875,24.8242188 C18.1184896,24.8242188 18.2682292,24.749349 18.4179688,24.5996094 C18.4179688,24.749349 18.4179688,24.8990885 18.4179688,25.0488281 C18.4179688,25.0488281 18.4179688,25.1236979 18.4179688,25.2734375 Z M2.47070312,18.7597656 C2.32096354,18.7597656 2.17122396,18.8346354 2.02148438,18.984375 C1.87174479,19.1341146 1.72200521,19.2838542 1.57226562,19.4335938 C1.57226562,19.4335938 1.49739583,19.5084635 1.34765625,19.6582031 C1.19791667,19.6582031 1.04817708,19.6582031 0.8984375,19.6582031 C0.8984375,19.6582031 0.823567708,19.6582031 0.673828125,19.6582031 C0.524088542,19.5084635 0.374348958,19.4335938 0.224609375,19.4335938 C0.224609375,19.2838542 0.149739583,19.1341146 0,18.984375 C0,18.984375 0,18.9095052 0,18.7597656 C0,18.610026 0,18.4602865 0,18.3105469 C0.149739583,18.1608073 0.224609375,18.0859375 0.224609375,18.0859375 C0.524088542,17.7864583 0.8984375,17.4121094 1.34765625,16.9628906 C1.64713542,16.6634115 2.09635417,16.2141927 2.6953125,15.6152344 C2.6953125,15.6152344 2.77018229,15.5403646 2.91992188,15.390625 C2.91992188,15.390625 2.99479167,15.390625 3.14453125,15.390625 C3.14453125,15.390625 3.14453125,15.390625 3.14453125,15.390625 C3.29427083,15.390625 3.36914062,15.390625 3.36914062,15.390625 C3.36914062,15.390625 3.44401042,15.390625 3.59375,15.390625 C3.59375,15.390625 3.66861979,15.390625 3.81835938,15.390625 C3.81835938,15.5403646 3.89322917,15.6152344 4.04296875,15.6152344 C4.04296875,15.6152344 4.04296875,15.6901042 4.04296875,15.8398438 C4.19270833,15.9895833 4.26757812,16.0644531 4.26757812,16.0644531 C4.26757812,16.2141927 4.26757812,16.2890625 4.26757812,16.2890625 C4.26757812,18.2356771 4.26757812,20.5566406 4.26757812,23.2519531 C4.26757812,26.0970052 4.26757812,29.3164062 4.26757812,32.9101562 C4.26757812,33.0598958 4.26757812,33.2096354 4.26757812,33.359375 C4.26757812,33.5091146 4.19270833,33.6588542 4.04296875,33.8085938 C3.89322917,33.8085938 3.74348958,33.8085938 3.59375,33.8085938 C3.59375,33.9583333 3.51888021,34.0332031 3.36914062,34.0332031 C3.21940104,34.0332031 3.06966146,33.9583333 2.91992188,33.8085938 C2.77018229,33.8085938 2.6953125,33.8085938 2.6953125,33.8085938 C2.54557292,33.6588542 2.47070312,33.5091146 2.47070312,33.359375 C2.47070312,33.2096354 2.47070312,33.0598958 2.47070312,32.9101562 C2.47070312,31.4127604 2.47070312,29.4661458 2.47070312,27.0703125 C2.47070312,24.6744792 2.47070312,21.9042969 2.47070312,18.7597656 Z M57.5,44.8144531 C58.3984375,44.2154948 59.0722656,43.6914062 59.5214844,43.2421875 C60.1204427,42.7929688 60.4947917,42.4186198 60.6445312,42.1191406 C60.9440104,41.6699219 61.1686198,41.2955729 61.3183594,40.9960938 C61.3183594,40.6966146 61.3183594,40.3222656 61.3183594,39.8730469 C61.3183594,39.8730469 61.3183594,39.7981771 61.3183594,39.6484375 C61.3183594,39.4986979 61.3183594,39.4238281 61.3183594,39.4238281 C61.3183594,39.2740885 61.3183594,39.124349 61.3183594,38.9746094 C61.3183594,38.9746094 61.2434896,38.8997396 61.09375,38.75 C61.09375,38.4505208 61.0188802,38.2259115 60.8691406,38.0761719 C60.5696615,37.9264323 60.3450521,37.7766927 60.1953125,37.6269531 C59.8958333,37.4772135 59.5963542,37.327474 59.296875,37.1777344 C58.8476562,37.1777344 58.3984375,37.1777344 57.9492188,37.1777344 C57.6497396,37.1777344 57.3502604,37.1777344 57.0507812,37.1777344 C56.6015625,37.327474 56.3020833,37.4772135 56.1523438,37.6269531 C55.8528646,37.7766927 55.6282552,37.9264323 55.4785156,38.0761719 C55.1790365,38.375651 54.9544271,38.6751302 54.8046875,38.9746094 C54.8046875,39.124349 54.7298177,39.1992188 54.5800781,39.1992188 C54.5800781,39.3489583 54.5052083,39.4238281 54.3554688,39.4238281 C54.2057292,39.5735677 54.0559896,39.6484375 53.90625,39.6484375 C53.7565104,39.6484375 53.6067708,39.5735677 53.4570312,39.4238281 C53.4570312,39.4238281 53.3821615,39.3489583 53.2324219,39.1992188 C53.2324219,39.1992188 53.1575521,39.124349 53.0078125,38.9746094 C53.0078125,38.8248698 53.0078125,38.6751302 53.0078125,38.5253906 C53.0078125,38.375651 53.0078125,38.2259115 53.0078125,38.0761719 C53.3072917,37.6269531 53.6067708,37.2526042 53.90625,36.953125 C54.2057292,36.5039062 54.5800781,36.1295573 55.0292969,35.8300781 C55.4785156,35.6803385 55.9277344,35.530599 56.3769531,35.3808594 C56.8261719,35.2311198 57.3502604,35.15625 57.9492188,35.15625 C58.9973958,35.15625 59.8209635,35.3059896 60.4199219,35.6054688 C61.1686198,35.7552083 61.7675781,36.1295573 62.2167969,36.7285156 C62.516276,37.1777344 62.8157552,37.7018229 63.1152344,38.3007812 C63.264974,38.8997396 63.3398438,39.4986979 63.3398438,40.0976562 C63.3398438,40.6966146 63.264974,41.2207031 63.1152344,41.6699219 C62.9654948,42.2688802 62.6660156,42.7929688 62.2167969,43.2421875 C61.9173177,43.8411458 61.468099,44.3652344 60.8691406,44.8144531 C60.2701823,45.4134115 59.5214844,45.9375 58.6230469,46.3867188 C57.874349,46.8359375 57.2753906,47.2851562 56.8261719,47.734375 C56.3769531,48.1835938 56.0026042,48.7076823 55.703125,49.3066406 C55.4036458,49.7558594 55.1790365,50.2050781 55.0292969,50.6542969 C54.7298177,51.1035156 54.5052083,51.4778646 54.3554688,51.7773438 C55.4036458,51.7773438 56.6015625,51.7773438 57.9492188,51.7773438 C59.296875,51.7773438 60.8691406,51.7773438 62.6660156,51.7773438 C62.8157552,51.7773438 62.9654948,51.8522135 63.1152344,52.0019531 C63.1152344,52.0019531 63.1901042,52.0019531 63.3398438,52.0019531 C63.4895833,52.1516927 63.5644531,52.3014323 63.5644531,52.4511719 C63.5644531,52.6009115 63.5644531,52.750651 63.5644531,52.9003906 C63.5644531,52.9003906 63.5644531,52.9752604 63.5644531,53.125 C63.5644531,53.2747396 63.4895833,53.4244792 63.3398438,53.5742188 C63.1901042,53.5742188 63.1152344,53.6490885 63.1152344,53.7988281 C62.9654948,53.7988281 62.8157552,53.7988281 62.6660156,53.7988281 C61.9173177,53.7988281 61.1686198,53.7988281 60.4199219,53.7988281 C59.5214844,53.7988281 58.6979167,53.7988281 57.9492188,53.7988281 C57.2005208,53.7988281 56.4518229,53.7988281 55.703125,53.7988281 C54.8046875,53.7988281 53.9811198,53.7988281 53.2324219,53.7988281 C53.2324219,53.7988281 53.1575521,53.7988281 53.0078125,53.7988281 C53.0078125,53.7988281 52.9329427,53.7239583 52.7832031,53.5742188 C52.7832031,53.5742188 52.7832031,53.5742188 52.7832031,53.5742188 C52.6334635,53.5742188 52.5585938,53.5742188 52.5585938,53.5742188 C52.5585938,53.4244792 52.483724,53.3496094 52.3339844,53.3496094 C52.3339844,53.1998698 52.3339844,53.125 52.3339844,53.125 C52.3339844,53.125 52.3339844,53.0501302 52.3339844,52.9003906 C52.3339844,52.9003906 52.3339844,52.9003906 52.3339844,52.9003906 C52.3339844,52.750651 52.3339844,52.6757812 52.3339844,52.6757812 C52.3339844,52.6757812 52.3339844,52.6757812 52.3339844,52.6757812 C52.3339844,52.6757812 52.3339844,52.5260417 52.3339844,52.2265625 C52.483724,52.0768229 52.5585938,51.7773438 52.5585938,51.328125 C52.7083333,50.8789062 52.8580729,50.3548177 53.0078125,49.7558594 C53.3072917,49.3066406 53.6067708,48.7825521 53.90625,48.1835938 C54.2057292,47.8841146 54.4303385,47.5846354 54.5800781,47.2851562 C54.8795573,46.9856771 55.1790365,46.6861979 55.4785156,46.3867188 C55.7779948,46.0872396 56.077474,45.7877604 56.3769531,45.4882812 C56.6764323,45.1888021 57.0507812,44.9641927 57.5,44.8144531 Z" transform="translate(-17)"/></svg>