<svg xmlns="http://www.w3.org/2000/svg" width="120" height="203" viewBox="0 0 120 203"><path fill="#131313" d="M455.723086,186.498047 C449.266706,179.217448 444.733503,170.219727 442.123477,159.504883 C440.475039,152.773763 439.65082,145.699219 439.65082,138.28125 C439.65082,133.885417 439.92556,129.420898 440.475039,124.887695 C441.711367,115.27181 443.977969,106.480143 447.274844,98.5126953 C450.434349,90.4078776 454.555443,83.4707031 459.638125,77.7011719 C464.308698,72.2063802 469.52875,67.9479167 475.298281,64.9257812 C481.205182,62.0410156 487.043398,60.5986328 492.81293,60.5986328 C497.071393,60.5986328 502.703555,61.2167969 509.709414,62.453125 C516.715273,63.8268229 523.034284,67.055013 528.666445,72.1376953 C530.177513,73.5113932 530.933047,75.2285156 530.933047,77.2890625 C531.070417,79.3496094 530.452253,81.1354167 529.078555,82.6464844 C527.704857,84.1575521 525.987734,84.9817708 523.927187,85.1191406 C521.866641,85.2565104 520.080833,84.6383464 518.569766,83.2646484 C514.723411,79.6930339 510.121523,77.4951172 504.764102,76.6708984 C499.40668,75.8466797 495.491641,75.4345703 493.018984,75.4345703 C489.44737,75.4345703 486.08181,76.1901042 482.922305,77.7011719 C479.762799,79.2122396 476.809349,81.2727865 474.061953,83.8828125 C469.116641,88.828125 464.995547,95.1471354 461.698672,102.839844 C458.539167,110.669922 456.409935,118.63737 455.310977,126.742188 C454.074648,137.044922 454.418073,146.523438 456.34125,155.177734 C458.401797,163.832031 461.904727,170.97526 466.850039,176.607422 C470.146914,180.316406 473.993268,183.132487 478.389102,185.055664 C482.784935,186.978841 487.524193,187.94043 492.606875,187.94043 C492.606875,187.94043 492.67556,187.94043 492.81293,187.94043 C492.81293,187.94043 492.81293,187.94043 492.81293,187.94043 C496.796654,187.94043 501.879336,187.253581 508.060977,185.879883 C514.379987,184.643555 519.874779,180.247721 524.545352,172.692383 C525.64431,170.906576 527.155378,169.807617 529.078555,169.395508 C531.139102,168.846029 533.062279,169.120768 534.848086,170.219727 C536.633893,171.318685 537.732852,172.898437 538.144961,174.958984 C538.55707,177.019531 538.213646,178.874023 537.114687,180.522461 C534.779401,184.368815 532.23806,187.597005 529.490664,190.207031 C526.605898,192.817057 523.721133,194.946289 520.836367,196.594727 C515.341576,199.616862 510.052839,201.402669 504.970156,201.952148 C499.887474,202.501628 495.90375,202.776367 493.018984,202.776367 C492.881615,202.776367 492.81293,202.776367 492.81293,202.776367 C492.67556,202.776367 492.606875,202.776367 492.606875,202.776367 C485.326276,202.776367 478.526471,201.402669 472.207461,198.655273 C465.888451,195.907878 460.393659,191.855469 455.723086,186.498047 Z M525.987734,57.4589844 C525.987734,57.4589844 525.919049,57.5276693 525.78168,57.6650391 C525.78168,57.8024089 525.712995,57.8710938 525.575625,57.8710938 C525.438255,58.1458333 525.300885,58.351888 525.163516,58.4892578 C525.026146,58.7639974 524.957461,58.9700521 524.957461,59.1074219 C518.77582,55.5358073 512.525495,53.2005208 506.206484,52.1015625 C499.887474,51.139974 494.804792,50.6591797 490.958437,50.6591797 C485.601016,50.6591797 480.243594,51.6894531 474.886172,53.75 C469.52875,55.8105469 464.514753,58.7639974 459.84418,62.6103516 C459.43207,62.335612 458.951276,61.8548177 458.401797,61.1679688 C463.347109,57.046875 468.567161,53.8873698 474.061953,51.6894531 C479.694115,49.6289062 485.326276,48.5986328 490.958437,48.5986328 C494.942161,48.5986328 500.230898,49.0794271 506.824648,50.0410156 C513.281029,51.139974 519.668724,53.6126302 525.987734,57.4589844 Z M456.753359,62.4042969 C457.028099,62.8164062 457.508893,63.3658854 458.195742,64.0527344 C458.470482,63.7779948 458.745221,63.5032552 459.019961,63.2285156 C459.294701,63.0911458 459.56944,62.8850911 459.84418,62.6103516 C460.118919,62.8850911 460.531029,63.3658854 461.080508,64.0527344 C458.882591,65.2890625 455.448346,67.2122396 450.777773,69.8222656 C452.151471,67.624349 454.212018,64.2587891 456.959414,59.7255859 C457.234154,60.0003255 457.714948,60.4811198 458.401797,61.1679688 C458.127057,61.3053385 457.852318,61.5113932 457.577578,61.7861328 C457.302839,61.9235026 457.028099,62.1295573 456.753359,62.4042969 Z M456.753359,62.4042969 C457.028099,62.1295573 457.302839,61.9235026 457.577578,61.7861328 C457.852318,61.5113932 458.127057,61.3053385 458.401797,61.1679688 C458.676536,61.4427083 459.157331,61.9235026 459.84418,62.6103516 C459.56944,62.8850911 459.294701,63.0911458 459.019961,63.2285156 C458.745221,63.5032552 458.470482,63.7779948 458.195742,64.0527344 C457.921003,63.7779948 457.646263,63.5032552 457.371523,63.2285156 C457.234154,62.953776 457.028099,62.6790365 456.753359,62.4042969 Z M526.811953,64.6708984 C526.674583,64.5335286 526.605898,64.4648438 526.605898,64.4648438 C526.468529,64.4648438 526.331159,64.3961589 526.193789,64.2587891 C526.331159,64.2587891 526.468529,64.327474 526.605898,64.4648438 C526.605898,64.4648438 526.674583,64.5335286 526.811953,64.6708984 Z M531.96332,57.2529297 C532.924909,58.0771484 533.474388,59.1074219 533.611758,60.34375 C533.749128,61.5800781 533.405703,62.6790365 532.581484,63.640625 C531.757266,64.6022135 530.726992,65.1516927 529.490664,65.2890625 C528.254336,65.4264323 527.155378,65.0830078 526.193789,64.2587891 C525.50694,63.5719401 525.026146,62.8164062 524.751406,61.9921875 C524.476667,61.030599 524.545352,60.1376953 524.957461,59.3134766 C524.957461,59.3134766 525.026146,59.3134766 525.163516,59.3134766 C525.163516,59.4508464 525.232201,59.5195312 525.36957,59.5195312 C525.094831,60.2063802 525.094831,60.9619141 525.36957,61.7861328 C525.50694,62.6103516 525.919049,63.2972005 526.605898,63.8466797 C527.430117,64.5335286 528.391706,64.8082682 529.490664,64.6708984 C530.589622,64.5335286 531.482526,64.0527344 532.169375,63.2285156 C532.856224,62.4042969 533.130964,61.4427083 532.993594,60.34375 C532.856224,59.2447917 532.37543,58.351888 531.551211,57.6650391 C530.864362,56.9781901 530.040143,56.7034505 529.078555,56.8408203 C528.116966,56.8408203 527.292747,57.1155599 526.605898,57.6650391 C526.468529,57.6650391 526.399844,57.5963542 526.399844,57.4589844 C526.262474,57.4589844 526.125104,57.4589844 525.987734,57.4589844 C526.811953,56.6347656 527.773542,56.2226562 528.8725,56.2226562 C529.971458,56.2226562 531.001732,56.5660807 531.96332,57.2529297 Z M525.987734,58.2832031 C525.850365,58.4205729 525.712995,58.6266276 525.575625,58.9013672 C525.438255,59.038737 525.36957,59.2447917 525.36957,59.5195312 C525.232201,59.5195312 525.163516,59.4508464 525.163516,59.3134766 C525.026146,59.3134766 524.957461,59.3134766 524.957461,59.3134766 C524.957461,59.038737 525.026146,58.7639974 525.163516,58.4892578 C525.300885,58.351888 525.438255,58.1458333 525.575625,57.8710938 C525.712995,57.8710938 525.78168,57.8024089 525.78168,57.6650391 C525.919049,57.5276693 525.987734,57.4589844 525.987734,57.4589844 C526.125104,57.4589844 526.262474,57.5276693 526.399844,57.6650391 C526.399844,57.6650391 526.468529,57.6650391 526.605898,57.6650391 C526.468529,57.8024089 526.331159,57.8710938 526.193789,57.8710938 C526.193789,58.0084635 526.125104,58.1458333 525.987734,58.2832031 Z M531.345156,58.0771484 C530.658307,57.5276693 529.902773,57.2529297 529.078555,57.2529297 C528.254336,57.2529297 527.567487,57.5276693 527.018008,58.0771484 C526.880638,57.9397786 526.811953,57.8710938 526.811953,57.8710938 C526.674583,57.8710938 526.605898,57.8024089 526.605898,57.6650391 C527.292747,57.1155599 528.116966,56.8408203 529.078555,56.8408203 C530.040143,56.8408203 530.864362,57.1155599 531.551211,57.6650391 C532.37543,58.351888 532.856224,59.2447917 532.993594,60.34375 C533.130964,61.4427083 532.856224,62.4042969 532.169375,63.2285156 C531.482526,64.0527344 530.589622,64.5335286 529.490664,64.6708984 C528.391706,64.8082682 527.430117,64.5335286 526.605898,63.8466797 C525.919049,63.2972005 525.50694,62.6103516 525.36957,61.7861328 C525.094831,60.9619141 525.094831,60.2063802 525.36957,59.5195312 C525.50694,59.5195312 525.575625,59.5195312 525.575625,59.5195312 C525.712995,59.656901 525.78168,59.7255859 525.78168,59.7255859 C525.64431,60.4124349 525.64431,61.0992839 525.78168,61.7861328 C526.056419,62.4729818 526.468529,63.0224609 527.018008,63.4345703 C527.704857,63.9840495 528.529076,64.1901042 529.490664,64.0527344 C530.452253,64.0527344 531.207786,63.640625 531.757266,62.8164062 C532.306745,62.1295573 532.581484,61.3053385 532.581484,60.34375 C532.444115,59.3821615 532.032005,58.6266276 531.345156,58.0771484 Z M525.36957,59.5195312 C525.36957,59.2447917 525.438255,59.038737 525.575625,58.9013672 C525.712995,58.6266276 525.850365,58.4205729 525.987734,58.2832031 C526.125104,58.1458333 526.193789,58.0771484 526.193789,58.0771484 C526.331159,57.9397786 526.468529,57.8024089 526.605898,57.6650391 C526.605898,57.8024089 526.674583,57.8710938 526.811953,57.8710938 C526.811953,57.8710938 526.880638,57.9397786 527.018008,58.0771484 C526.880638,58.0771484 526.743268,58.1458333 526.605898,58.2832031 C526.605898,58.4205729 526.537214,58.4892578 526.399844,58.4892578 C526.262474,58.7639974 526.125104,58.9700521 525.987734,59.1074219 C525.987734,59.3821615 525.919049,59.5882161 525.78168,59.7255859 C525.78168,59.7255859 525.712995,59.656901 525.575625,59.5195312 C525.438255,59.5195312 525.36957,59.5195312 525.36957,59.5195312 Z M539.175234,67.3496094 C539.175234,67.3496094 539.243919,67.4182943 539.381289,67.5556641 C539.381289,67.5556641 539.449974,67.624349 539.587344,67.7617188 C539.587344,67.7617188 539.587344,67.8304036 539.587344,67.9677734 C539.587344,67.9677734 539.587344,68.0364583 539.587344,68.1738281 C539.587344,69.8222656 539.587344,71.9514974 539.587344,74.5615234 C539.587344,77.0341797 539.587344,79.9876302 539.587344,83.421875 C539.587344,83.5592448 539.587344,83.6966146 539.587344,83.8339844 C539.587344,83.8339844 539.518659,83.9026693 539.381289,84.0400391 C539.243919,84.1774089 539.175234,84.2460938 539.175234,84.2460938 C539.037865,84.2460938 538.900495,84.2460938 538.763125,84.2460938 C538.625755,84.2460938 538.488385,84.2460938 538.351016,84.2460938 C538.351016,84.2460938 538.282331,84.1774089 538.144961,84.0400391 C538.007591,84.0400391 537.938906,83.9713542 537.938906,83.8339844 C537.938906,83.6966146 537.938906,83.5592448 537.938906,83.421875 C537.938906,81.9108073 537.938906,80.125 537.938906,78.0644531 C537.938906,75.8665365 537.938906,73.2565104 537.938906,70.234375 C537.801536,70.3717448 537.664167,70.5091146 537.526797,70.6464844 C537.526797,70.6464844 537.458112,70.7151693 537.320742,70.8525391 C537.183372,70.9899089 537.046003,71.0585938 536.908633,71.0585938 C536.908633,71.1959635 536.839948,71.2646484 536.702578,71.2646484 C536.565208,71.2646484 536.427839,71.1959635 536.290469,71.0585938 C536.153099,71.0585938 536.084414,70.9899089 536.084414,70.8525391 C535.947044,70.8525391 535.878359,70.7838542 535.878359,70.6464844 C535.74099,70.5091146 535.672305,70.3717448 535.672305,70.234375 C535.672305,70.234375 535.74099,70.1656901 535.878359,70.0283203 C535.878359,69.8909505 535.947044,69.7535807 536.084414,69.6162109 C536.221784,69.4788411 536.496523,69.2041016 536.908633,68.7919922 C537.320742,68.3798828 537.732852,67.9677734 538.144961,67.5556641 C538.282331,67.4182943 538.351016,67.3496094 538.351016,67.3496094 C538.488385,67.3496094 538.55707,67.3496094 538.55707,67.3496094 C538.55707,67.3496094 538.625755,67.3496094 538.763125,67.3496094 C538.763125,67.3496094 538.763125,67.3496094 538.763125,67.3496094 C538.900495,67.3496094 538.96918,67.3496094 538.96918,67.3496094 C538.96918,67.3496094 539.037865,67.3496094 539.175234,67.3496094 Z" transform="translate(-428.917)"/></svg>