<svg xmlns="http://www.w3.org/2000/svg" width="120" height="243" viewBox="0 0 120 243"><path fill="#131313" d="M26.8063672,149.498047 C20.349987,142.217448 15.8167839,133.219727 13.2067578,122.504883 C11.5583203,115.773763 10.7341016,108.699219 10.7341016,101.28125 C10.7341016,96.8854167 11.0088411,92.4208984 11.5583203,87.8876953 C12.7946484,78.2718099 15.06125,69.4801432 18.358125,61.5126953 C21.5176302,53.4078776 25.638724,46.4707031 30.7214063,40.7011719 C35.3919792,35.2063802 40.6120313,30.9479167 46.3815625,27.9257812 C52.2884635,25.0410156 58.1266797,23.5986328 63.8962109,23.5986328 C68.1546745,23.5986328 73.7868359,24.2167969 80.7926953,25.453125 C87.7985547,26.8268229 94.1175651,30.055013 99.7497266,35.1376953 C101.260794,36.5113932 102.016328,38.2285156 102.016328,40.2890625 C102.153698,42.3496094 101.535534,44.1354167 100.161836,45.6464844 C98.788138,47.1575521 97.0710156,47.9817708 95.0104688,48.1191406 C92.9499219,48.2565104 91.1641146,47.6383464 89.6530469,46.2646484 C85.8066927,42.6930339 81.2048047,40.4951172 75.8473828,39.6708984 C70.4899609,38.8466797 66.5749219,38.4345703 64.1022656,38.4345703 C60.530651,38.4345703 57.1650911,39.1901042 54.0055859,40.7011719 C50.8460807,42.2122396 47.8926302,44.2727865 45.1452344,46.8828125 C40.1999219,51.828125 36.0788281,58.1471354 32.7819531,65.8398438 C29.6224479,73.6699219 27.4932161,81.6373698 26.3942578,89.7421875 C25.1579297,100.044922 25.5013542,109.523438 27.4245313,118.177734 C29.4850781,126.832031 32.9880078,133.97526 37.9333203,139.607422 C41.2301953,143.316406 45.0765495,146.132487 49.4723828,148.055664 C53.8682161,149.978841 58.607474,150.94043 63.6901563,150.94043 C63.6901563,150.94043 63.7588411,150.94043 63.8962109,150.94043 C63.8962109,150.94043 63.8962109,150.94043 63.8962109,150.94043 C67.8799349,150.94043 72.9626172,150.253581 79.1442578,148.879883 C85.4632682,147.643555 90.9580599,143.247721 95.6286328,135.692383 C96.7275911,133.906576 98.2386589,132.807617 100.161836,132.395508 C102.222383,131.846029 104.14556,132.120768 105.931367,133.219727 C107.717174,134.318685 108.816133,135.898438 109.228242,137.958984 C109.640352,140.019531 109.296927,141.874023 108.197969,143.522461 C105.862682,147.368815 103.321341,150.597005 100.573945,153.207031 C97.6891797,155.817057 94.8044141,157.946289 91.9196484,159.594727 C86.4248568,162.616862 81.1361198,164.402669 76.0534375,164.952148 C70.9707552,165.501628 66.9870313,165.776367 64.1022656,165.776367 C63.9648958,165.776367 63.8962109,165.776367 63.8962109,165.776367 C63.7588411,165.776367 63.6901563,165.776367 63.6901563,165.776367 C56.4095573,165.776367 49.6097526,164.402669 43.2907422,161.655273 C36.9717318,158.907878 31.4769401,154.855469 26.8063672,149.498047 Z M97.0710156,20.4589844 C97.0710156,20.4589844 97.0023307,20.5276693 96.8649609,20.6650391 C96.8649609,20.8024089 96.796276,20.8710938 96.6589063,20.8710938 C96.5215365,21.1458333 96.3841667,21.351888 96.2467969,21.4892578 C96.1094271,21.7639974 96.0407422,21.9700521 96.0407422,22.1074219 C89.8591016,18.5358073 83.608776,16.2005208 77.2897656,15.1015625 C70.9707552,14.139974 65.8880729,13.6591797 62.0417188,13.6591797 C56.6842969,13.6591797 51.326875,14.6894531 45.9694531,16.75 C40.6120313,18.8105469 35.5980339,21.7639974 30.9274609,25.6103516 C30.5153516,25.335612 30.0345573,24.8548177 29.4850781,24.1679688 C34.4303906,20.046875 39.6504427,16.8873698 45.1452344,14.6894531 C50.7773958,12.6289062 56.4095573,11.5986328 62.0417188,11.5986328 C66.0254427,11.5986328 71.3141797,12.0794271 77.9079297,13.0410156 C84.3643099,14.139974 90.7520052,16.6126302 97.0710156,20.4589844 Z M27.8366406,25.4042969 C28.1113802,25.8164062 28.5921745,26.3658854 29.2790234,27.0527344 C29.553763,26.7779948 29.8285026,26.5032552 30.1032422,26.2285156 C30.3779818,26.0911458 30.6527214,25.8850911 30.9274609,25.6103516 C31.2022005,25.8850911 31.6143099,26.3658854 32.1637891,27.0527344 C29.9658724,28.2890625 26.5316276,30.2122396 21.8610547,32.8222656 C23.2347526,30.624349 25.2952995,27.2587891 28.0426953,22.7255859 C28.3174349,23.0003255 28.7982292,23.4811198 29.4850781,24.1679688 C29.2103385,24.3053385 28.935599,24.5113932 28.6608594,24.7861328 C28.3861198,24.9235026 28.1113802,25.1295573 27.8366406,25.4042969 Z M27.8366406,25.4042969 C28.1113802,25.1295573 28.3861198,24.9235026 28.6608594,24.7861328 C28.935599,24.5113932 29.2103385,24.3053385 29.4850781,24.1679688 C29.7598177,24.4427083 30.240612,24.9235026 30.9274609,25.6103516 C30.6527214,25.8850911 30.3779818,26.0911458 30.1032422,26.2285156 C29.8285026,26.5032552 29.553763,26.7779948 29.2790234,27.0527344 C29.0042839,26.7779948 28.7295443,26.5032552 28.4548047,26.2285156 C28.3174349,25.953776 28.1113802,25.6790365 27.8366406,25.4042969 Z M97.8952344,27.6708984 C97.7578646,27.5335286 97.6891797,27.4648438 97.6891797,27.4648438 C97.5518099,27.4648438 97.4144401,27.3961589 97.2770703,27.2587891 C97.4144401,27.2587891 97.5518099,27.327474 97.6891797,27.4648438 C97.6891797,27.4648438 97.7578646,27.5335286 97.8952344,27.6708984 Z M103.046602,20.2529297 C104.00819,21.0771484 104.557669,22.1074219 104.695039,23.34375 C104.832409,24.5800781 104.488984,25.6790365 103.664766,26.640625 C102.840547,27.6022135 101.810273,28.1516927 100.573945,28.2890625 C99.3376172,28.4264323 98.2386589,28.0830078 97.2770703,27.2587891 C96.5902214,26.5719401 96.1094271,25.8164062 95.8346875,24.9921875 C95.5599479,24.030599 95.6286328,23.1376953 96.0407422,22.3134766 C96.0407422,22.3134766 96.1094271,22.3134766 96.2467969,22.3134766 C96.2467969,22.4508464 96.3154818,22.5195312 96.4528516,22.5195312 C96.178112,23.2063802 96.178112,23.9619141 96.4528516,24.7861328 C96.5902214,25.6103516 97.0023307,26.2972005 97.6891797,26.8466797 C98.5133984,27.5335286 99.474987,27.8082682 100.573945,27.6708984 C101.672904,27.5335286 102.565807,27.0527344 103.252656,26.2285156 C103.939505,25.4042969 104.214245,24.4427083 104.076875,23.34375 C103.939505,22.2447917 103.458711,21.351888 102.634492,20.6650391 C101.947643,19.9781901 101.123424,19.7034505 100.161836,19.8408203 C99.2002474,19.8408203 98.3760286,20.1155599 97.6891797,20.6650391 C97.5518099,20.6650391 97.483125,20.5963542 97.483125,20.4589844 C97.3457552,20.4589844 97.2083854,20.4589844 97.0710156,20.4589844 C97.8952344,19.6347656 98.8568229,19.2226562 99.9557813,19.2226562 C101.05474,19.2226562 102.085013,19.5660807 103.046602,20.2529297 Z M97.0710156,21.2832031 C96.9336458,21.4205729 96.796276,21.6266276 96.6589063,21.9013672 C96.5215365,22.038737 96.4528516,22.2447917 96.4528516,22.5195312 C96.3154818,22.5195312 96.2467969,22.4508464 96.2467969,22.3134766 C96.1094271,22.3134766 96.0407422,22.3134766 96.0407422,22.3134766 C96.0407422,22.038737 96.1094271,21.7639974 96.2467969,21.4892578 C96.3841667,21.351888 96.5215365,21.1458333 96.6589063,20.8710938 C96.796276,20.8710938 96.8649609,20.8024089 96.8649609,20.6650391 C97.0023307,20.5276693 97.0710156,20.4589844 97.0710156,20.4589844 C97.2083854,20.4589844 97.3457552,20.5276693 97.483125,20.6650391 C97.483125,20.6650391 97.5518099,20.6650391 97.6891797,20.6650391 C97.5518099,20.8024089 97.4144401,20.8710938 97.2770703,20.8710938 C97.2770703,21.0084635 97.2083854,21.1458333 97.0710156,21.2832031 Z M102.428438,21.0771484 C101.741589,20.5276693 100.986055,20.2529297 100.161836,20.2529297 C99.3376172,20.2529297 98.6507682,20.5276693 98.1012891,21.0771484 C97.9639193,20.9397786 97.8952344,20.8710938 97.8952344,20.8710938 C97.7578646,20.8710938 97.6891797,20.8024089 97.6891797,20.6650391 C98.3760286,20.1155599 99.2002474,19.8408203 100.161836,19.8408203 C101.123424,19.8408203 101.947643,20.1155599 102.634492,20.6650391 C103.458711,21.351888 103.939505,22.2447917 104.076875,23.34375 C104.214245,24.4427083 103.939505,25.4042969 103.252656,26.2285156 C102.565807,27.0527344 101.672904,27.5335286 100.573945,27.6708984 C99.474987,27.8082682 98.5133984,27.5335286 97.6891797,26.8466797 C97.0023307,26.2972005 96.5902214,25.6103516 96.4528516,24.7861328 C96.178112,23.9619141 96.178112,23.2063802 96.4528516,22.5195312 C96.5902214,22.5195312 96.6589063,22.5195312 96.6589063,22.5195312 C96.796276,22.656901 96.8649609,22.7255859 96.8649609,22.7255859 C96.7275911,23.4124349 96.7275911,24.0992839 96.8649609,24.7861328 C97.1397005,25.4729818 97.5518099,26.0224609 98.1012891,26.4345703 C98.788138,26.9840495 99.6123568,27.1901042 100.573945,27.0527344 C101.535534,27.0527344 102.291068,26.640625 102.840547,25.8164062 C103.390026,25.1295573 103.664766,24.3053385 103.664766,23.34375 C103.527396,22.3821615 103.115286,21.6266276 102.428438,21.0771484 Z M96.4528516,22.5195312 C96.4528516,22.2447917 96.5215365,22.038737 96.6589063,21.9013672 C96.796276,21.6266276 96.9336458,21.4205729 97.0710156,21.2832031 C97.2083854,21.1458333 97.2770703,21.0771484 97.2770703,21.0771484 C97.4144401,20.9397786 97.5518099,20.8024089 97.6891797,20.6650391 C97.6891797,20.8024089 97.7578646,20.8710938 97.8952344,20.8710938 C97.8952344,20.8710938 97.9639193,20.9397786 98.1012891,21.0771484 C97.9639193,21.0771484 97.8265495,21.1458333 97.6891797,21.2832031 C97.6891797,21.4205729 97.6204948,21.4892578 97.483125,21.4892578 C97.3457552,21.7639974 97.2083854,21.9700521 97.0710156,22.1074219 C97.0710156,22.3821615 97.0023307,22.5882161 96.8649609,22.7255859 C96.8649609,22.7255859 96.796276,22.656901 96.6589063,22.5195312 C96.5215365,22.5195312 96.4528516,22.5195312 96.4528516,22.5195312 Z M110.258516,30.3496094 C110.258516,30.3496094 110.327201,30.4182943 110.46457,30.5556641 C110.46457,30.5556641 110.533255,30.624349 110.670625,30.7617188 C110.670625,30.7617188 110.670625,30.8304036 110.670625,30.9677734 C110.670625,30.9677734 110.670625,31.0364583 110.670625,31.1738281 C110.670625,32.8222656 110.670625,34.9514974 110.670625,37.5615234 C110.670625,40.0341797 110.670625,42.9876302 110.670625,46.421875 C110.670625,46.5592448 110.670625,46.6966146 110.670625,46.8339844 C110.670625,46.8339844 110.60194,46.9026693 110.46457,47.0400391 C110.327201,47.1774089 110.258516,47.2460938 110.258516,47.2460938 C110.121146,47.2460938 109.983776,47.2460938 109.846406,47.2460938 C109.709036,47.2460938 109.571667,47.2460938 109.434297,47.2460938 C109.434297,47.2460938 109.365612,47.1774089 109.228242,47.0400391 C109.090872,47.0400391 109.022188,46.9713542 109.022188,46.8339844 C109.022188,46.6966146 109.022188,46.5592448 109.022188,46.421875 C109.022188,44.9108073 109.022188,43.125 109.022188,41.0644531 C109.022188,38.8665365 109.022188,36.2565104 109.022188,33.234375 C108.884818,33.3717448 108.747448,33.5091146 108.610078,33.6464844 C108.610078,33.6464844 108.541393,33.7151693 108.404023,33.8525391 C108.266654,33.9899089 108.129284,34.0585938 107.991914,34.0585938 C107.991914,34.1959635 107.923229,34.2646484 107.785859,34.2646484 C107.64849,34.2646484 107.51112,34.1959635 107.37375,34.0585938 C107.23638,34.0585938 107.167695,33.9899089 107.167695,33.8525391 C107.030326,33.8525391 106.961641,33.7838542 106.961641,33.6464844 C106.824271,33.5091146 106.755586,33.3717448 106.755586,33.234375 C106.755586,33.234375 106.824271,33.1656901 106.961641,33.0283203 C106.961641,32.8909505 107.030326,32.7535807 107.167695,32.6162109 C107.305065,32.4788411 107.579805,32.2041016 107.991914,31.7919922 C108.404023,31.3798828 108.816133,30.9677734 109.228242,30.5556641 C109.365612,30.4182943 109.434297,30.3496094 109.434297,30.3496094 C109.571667,30.3496094 109.640352,30.3496094 109.640352,30.3496094 C109.640352,30.3496094 109.709036,30.3496094 109.846406,30.3496094 C109.846406,30.3496094 109.846406,30.3496094 109.846406,30.3496094 C109.983776,30.3496094 110.052461,30.3496094 110.052461,30.3496094 C110.052461,30.3496094 110.121146,30.3496094 110.258516,30.3496094 Z"/></svg>