<svg xmlns="http://www.w3.org/2000/svg" width="97" height="203" viewBox="0 0 97 203"><path fill="#131313" d="M497.919922,131.653584 C495.973307,126.562438 495,121.246683 495,115.706318 C495,111.962829 495.449219,108.144469 496.347656,104.25124 C498.59375,94.3684276 503.085937,86.2824901 509.824219,79.9934276 C519.108073,71.3085317 529.215495,67.3404328 540.146484,68.0891307 C551.077474,68.688089 559.6875,72.2069692 565.976562,78.6457713 C567.623698,80.2929067 568.447266,82.2395213 568.447266,84.4856151 C568.447266,86.7317088 567.623698,88.6783234 565.976562,90.3254588 C564.329427,91.8228547 562.382812,92.5715526 560.136719,92.5715526 C557.890625,92.5715526 556.01888,91.7479849 554.521484,90.1008495 C550.777995,86.3573599 545.686849,84.4107453 539.248047,84.2610057 C532.809245,84.1112661 526.744792,86.656839 521.054687,91.8977245 C516.71224,95.9406932 513.792318,101.256448 512.294922,107.84499 C510.647786,114.283792 510.947266,120.198506 513.193359,125.589131 C514.690755,129.48236 517.086589,132.477152 520.380859,134.573506 C523.525391,136.52012 527.568359,137.493428 532.509766,137.493428 C537.750651,137.493428 542.542318,136.969339 546.884766,135.921162 C551.077474,135.022724 554.521484,133.600198 557.216797,131.653584 C559.013672,130.455667 561.035156,130.006448 563.28125,130.305928 C565.527344,130.755146 567.324219,131.953063 568.671875,133.899678 C569.869792,135.696553 570.244141,137.718037 569.794922,139.964131 C569.495443,142.060485 568.372396,143.78249 566.425781,145.130146 C562.233073,147.975198 557.291667,150.146422 551.601562,151.643818 C545.911458,152.991474 539.547526,153.665303 532.509766,153.665303 C524.274089,153.665303 517.161458,151.793558 511.171875,148.050068 C505.182292,144.156839 500.764974,138.691344 497.919922,131.653584 Z M566.078125,63.578125 C566.078125,63.578125 566.003255,63.6529948 565.853516,63.8027344 C565.853516,63.8027344 565.778646,63.8776042 565.628906,64.0273438 C565.479167,64.1770833 565.329427,64.4016927 565.179687,64.7011719 C565.029948,64.8509115 564.880208,65.0755208 564.730469,65.375 C561.136719,62.9791667 557.09375,61.1822917 552.601562,59.984375 C548.259115,58.6367188 543.766927,57.9628906 539.125,57.9628906 C534.782552,57.9628906 530.440104,58.561849 526.097656,59.7597656 C521.755208,60.9576823 517.63737,62.6796875 513.744141,64.9257812 C513.444661,64.4765625 512.995443,63.8776042 512.396484,63.1289062 C516.439453,60.7330729 520.781901,58.8613281 525.423828,57.5136719 C529.916016,56.3157552 534.483073,55.7167969 539.125,55.7167969 C544.066406,55.7167969 548.858073,56.390625 553.5,57.7382812 C557.992187,59.0859375 562.184896,61.0325521 566.078125,63.578125 Z M510.599609,64.2519531 C510.749349,64.7011719 511.123698,65.375 511.722656,66.2734375 C512.022135,65.9739583 512.396484,65.749349 512.845703,65.5996094 C513.145182,65.4498698 513.444661,65.2252604 513.744141,64.9257812 C514.04362,65.375 514.492839,65.9739583 515.091797,66.7226562 C512.396484,67.7708333 508.428385,69.343099 503.1875,71.4394531 C504.834635,69.1933594 507.455078,65.8242188 511.048828,61.3320312 C511.348307,61.78125 511.797526,62.3802083 512.396484,63.1289062 C512.097005,63.2786458 511.797526,63.5032552 511.498047,63.8027344 C511.198568,63.952474 510.899089,64.1022135 510.599609,64.2519531 Z M510.599609,64.2519531 C510.899089,64.1022135 511.198568,63.952474 511.498047,63.8027344 C511.797526,63.5032552 512.097005,63.2786458 512.396484,63.1289062 C512.695964,63.578125 513.145182,64.1770833 513.744141,64.9257812 C513.444661,65.2252604 513.145182,65.4498698 512.845703,65.5996094 C512.396484,65.749349 512.022135,65.9739583 511.722656,66.2734375 C511.572917,65.9739583 511.348307,65.5996094 511.048828,65.1503906 C510.899089,64.8509115 510.749349,64.5514323 510.599609,64.2519531 Z M566.078125,63.578125 C566.976562,62.6796875 568.099609,62.2304688 569.447266,62.2304688 C570.645182,62.2304688 571.693359,62.6796875 572.591797,63.578125 C573.639974,64.4765625 574.164062,65.5996094 574.164062,66.9472656 C574.313802,68.2949219 573.939453,69.4928385 573.041016,70.5410156 C572.142578,71.4394531 571.019531,71.9635417 569.671875,72.1132812 C568.324219,72.1132812 567.126302,71.6640625 566.078125,70.765625 C565.329427,70.0169271 564.805339,69.1933594 564.505859,68.2949219 C564.35612,67.2467448 564.43099,66.2734375 564.730469,65.375 C564.880208,65.375 564.955078,65.375 564.955078,65.375 C565.104818,65.5247396 565.254557,65.5996094 565.404297,65.5996094 C565.104818,66.4980469 565.029948,67.3216146 565.179687,68.0703125 C565.329427,68.96875 565.778646,69.7174479 566.527344,70.3164062 C567.425781,71.2148438 568.473958,71.5891927 569.671875,71.4394531 C570.720052,71.4394531 571.693359,70.9902344 572.591797,70.0917969 C573.340495,69.1933594 573.714844,68.1451823 573.714844,66.9472656 C573.565104,65.749349 573.041016,64.7760417 572.142578,64.0273438 C571.39388,63.2786458 570.495443,62.9042969 569.447266,62.9042969 C568.399089,62.9042969 567.500651,63.203776 566.751953,63.8027344 C566.602214,63.8027344 566.452474,63.7278646 566.302734,63.578125 C566.302734,63.578125 566.227865,63.578125 566.078125,63.578125 Z M566.078125,64.2519531 C565.928385,64.5514323 565.778646,64.7760417 565.628906,64.9257812 C565.479167,65.2252604 565.404297,65.4498698 565.404297,65.5996094 C565.254557,65.5996094 565.179687,65.5996094 565.179687,65.5996094 C565.029948,65.4498698 564.880208,65.375 564.730469,65.375 C564.880208,65.0755208 565.029948,64.8509115 565.179687,64.7011719 C565.329427,64.4016927 565.479167,64.1770833 565.628906,64.0273438 C565.778646,63.8776042 565.853516,63.8027344 565.853516,63.8027344 C566.003255,63.6529948 566.078125,63.578125 566.078125,63.578125 C566.227865,63.578125 566.377604,63.578125 566.527344,63.578125 C566.527344,63.7278646 566.602214,63.8027344 566.751953,63.8027344 C566.602214,63.952474 566.452474,64.0273438 566.302734,64.0273438 C566.302734,64.1770833 566.227865,64.2519531 566.078125,64.2519531 Z M571.917969,64.4765625 C571.169271,63.8776042 570.345703,63.5032552 569.447266,63.3535156 C568.548828,63.3535156 567.80013,63.578125 567.201172,64.0273438 C567.051432,64.0273438 566.976562,64.0273438 566.976562,64.0273438 C566.826823,63.8776042 566.751953,63.8027344 566.751953,63.8027344 C567.500651,63.203776 568.399089,62.9042969 569.447266,62.9042969 C570.495443,62.9042969 571.39388,63.2786458 572.142578,64.0273438 C573.041016,64.7760417 573.565104,65.749349 573.714844,66.9472656 C573.714844,68.1451823 573.340495,69.1933594 572.591797,70.0917969 C571.693359,70.9902344 570.720052,71.4394531 569.671875,71.4394531 C568.473958,71.5891927 567.425781,71.2148438 566.527344,70.3164062 C565.778646,69.7174479 565.329427,68.96875 565.179687,68.0703125 C565.029948,67.3216146 565.104818,66.4980469 565.404297,65.5996094 C565.404297,65.749349 565.479167,65.8242188 565.628906,65.8242188 C565.628906,65.8242188 565.703776,65.8990885 565.853516,66.0488281 C565.554036,66.6477865 565.479167,67.3216146 565.628906,68.0703125 C565.778646,68.8190104 566.152995,69.4179688 566.751953,69.8671875 C567.500651,70.6158854 568.399089,70.9902344 569.447266,70.9902344 C570.495443,70.8404948 571.39388,70.391276 572.142578,69.6425781 C572.741536,68.8938802 573.041016,67.9954427 573.041016,66.9472656 C573.041016,65.8990885 572.666667,65.0755208 571.917969,64.4765625 Z M565.404297,65.5996094 C565.404297,65.4498698 565.479167,65.2252604 565.628906,64.9257812 C565.778646,64.7760417 565.928385,64.5514323 566.078125,64.2519531 C566.227865,64.2519531 566.302734,64.1770833 566.302734,64.0273438 C566.452474,64.0273438 566.602214,63.952474 566.751953,63.8027344 C566.751953,63.8027344 566.826823,63.8776042 566.976562,64.0273438 C566.976562,64.0273438 567.051432,64.1022135 567.201172,64.2519531 C567.051432,64.2519531 566.901693,64.3268229 566.751953,64.4765625 C566.751953,64.4765625 566.677083,64.5514323 566.527344,64.7011719 C566.377604,64.8509115 566.227865,65.0755208 566.078125,65.375 C565.928385,65.5247396 565.853516,65.749349 565.853516,66.0488281 C565.703776,65.8990885 565.628906,65.8242188 565.628906,65.8242188 C565.479167,65.8242188 565.404297,65.749349 565.404297,65.5996094 Z M582.699219,51.2246094 C582.699219,51.2246094 582.774089,51.2246094 582.923828,51.2246094 C582.923828,51.374349 582.998698,51.4492188 583.148437,51.4492188 C583.148437,51.5989583 583.148437,51.7486979 583.148437,51.8984375 C583.148437,51.8984375 583.148437,51.9733073 583.148437,52.1230469 C583.148437,53.9199219 583.148437,56.2408854 583.148437,59.0859375 C583.148437,61.78125 583.148437,65.000651 583.148437,68.7441406 C583.148437,68.8938802 583.148437,69.0436198 583.148437,69.1933594 C583.148437,69.1933594 583.073568,69.2682292 582.923828,69.4179688 C582.774089,69.5677083 582.699219,69.6425781 582.699219,69.6425781 C582.549479,69.6425781 582.39974,69.6425781 582.25,69.6425781 C582.10026,69.6425781 581.950521,69.6425781 581.800781,69.6425781 C581.800781,69.6425781 581.725911,69.5677083 581.576172,69.4179688 C581.426432,69.2682292 581.351562,69.1933594 581.351562,69.1933594 C581.351562,69.0436198 581.351562,68.8938802 581.351562,68.7441406 C581.351562,67.0970052 581.351562,65.0755208 581.351562,62.6796875 C581.351562,60.4335938 581.351562,57.6634115 581.351562,54.3691406 C581.201823,54.5188802 581.052083,54.6686198 580.902344,54.8183594 C580.902344,54.8183594 580.827474,54.8932292 580.677734,55.0429688 C580.527995,55.1927083 580.378255,55.2675781 580.228516,55.2675781 C580.228516,55.4173177 580.153646,55.4921875 580.003906,55.4921875 C579.854167,55.4921875 579.704427,55.4173177 579.554687,55.2675781 C579.404948,55.2675781 579.330078,55.1927083 579.330078,55.0429688 C579.180339,55.0429688 579.105469,54.968099 579.105469,54.8183594 C578.955729,54.6686198 578.880859,54.5188802 578.880859,54.3691406 C578.880859,54.219401 578.955729,54.1445313 579.105469,54.1445313 C579.105469,53.9947917 579.180339,53.8450521 579.330078,53.6953125 C579.479818,53.3958333 579.779297,53.0963542 580.228516,52.796875 C580.677734,52.3476562 581.126953,51.8984375 581.576172,51.4492188 C581.725911,51.2994792 581.800781,51.2246094 581.800781,51.2246094 C581.950521,51.2246094 582.025391,51.1497396 582.025391,51 C582.17513,51 582.25,51 582.25,51 C582.25,51 582.25,51 582.25,51 C582.39974,51 582.474609,51.0748698 582.474609,51.2246094 C582.474609,51.2246094 582.549479,51.2246094 582.699219,51.2246094 Z" transform="translate(-484 -12)"/></svg>