<svg xmlns="http://www.w3.org/2000/svg" width="97" height="243" viewBox="0 0 97 243"><path fill="#131313" d="M13.9199219,143.653584 C11.9733073,138.562438 11,133.246683 11,127.706318 C11,123.962829 11.4492188,120.144469 12.3476562,116.25124 C14.59375,106.368428 19.0859375,98.2824901 25.8242188,91.9934276 C35.1080729,83.3085317 45.2154948,79.3404328 56.1464844,80.0891307 C67.077474,80.688089 75.6875,84.2069692 81.9765625,90.6457713 C83.6236979,92.2929067 84.4472656,94.2395213 84.4472656,96.4856151 C84.4472656,98.7317088 83.6236979,100.678323 81.9765625,102.325459 C80.3294271,103.822855 78.3828125,104.571553 76.1367188,104.571553 C73.890625,104.571553 72.0188802,103.747985 70.5214844,102.100849 C66.7779948,98.3573599 61.686849,96.4107453 55.2480469,96.2610057 C48.8092448,96.1112661 42.7447917,98.656839 37.0546875,103.897724 C32.7122396,107.940693 29.7923177,113.256448 28.2949219,119.84499 C26.6477865,126.283792 26.9472656,132.198506 29.1933594,137.589131 C30.6907552,141.48236 33.0865885,144.477152 36.3808594,146.573506 C39.5253906,148.52012 43.5683594,149.493428 48.5097656,149.493428 C53.750651,149.493428 58.5423177,148.969339 62.8847656,147.921162 C67.077474,147.022724 70.5214844,145.600198 73.2167969,143.653584 C75.0136719,142.455667 77.0351562,142.006448 79.28125,142.305928 C81.5273438,142.755146 83.3242188,143.953063 84.671875,145.899678 C85.8697917,147.696553 86.2441406,149.718037 85.7949219,151.964131 C85.4954427,154.060485 84.3723958,155.78249 82.4257812,157.130146 C78.2330729,159.975198 73.2916667,162.146422 67.6015625,163.643818 C61.9114583,164.991474 55.547526,165.665303 48.5097656,165.665303 C40.2740885,165.665303 33.1614583,163.793558 27.171875,160.050068 C21.1822917,156.156839 16.764974,150.691344 13.9199219,143.653584 Z M82.078125,75.578125 C82.078125,75.578125 82.0032552,75.6529948 81.8535156,75.8027344 C81.8535156,75.8027344 81.7786458,75.8776042 81.6289062,76.0273438 C81.4791667,76.1770833 81.3294271,76.4016927 81.1796875,76.7011719 C81.0299479,76.8509115 80.8802083,77.0755208 80.7304688,77.375 C77.1367188,74.9791667 73.09375,73.1822917 68.6015625,71.984375 C64.2591146,70.6367188 59.7669271,69.9628906 55.125,69.9628906 C50.7825521,69.9628906 46.4401042,70.561849 42.0976562,71.7597656 C37.7552083,72.9576823 33.6373698,74.6796875 29.7441406,76.9257812 C29.4446615,76.4765625 28.9954427,75.8776042 28.3964844,75.1289062 C32.4394531,72.7330729 36.781901,70.8613281 41.4238281,69.5136719 C45.9160156,68.3157552 50.4830729,67.7167969 55.125,67.7167969 C60.0664062,67.7167969 64.8580729,68.390625 69.5,69.7382812 C73.9921875,71.0859375 78.1848958,73.0325521 82.078125,75.578125 Z M26.5996094,76.2519531 C26.749349,76.7011719 27.1236979,77.375 27.7226562,78.2734375 C28.0221354,77.9739583 28.3964844,77.749349 28.8457031,77.5996094 C29.1451823,77.4498698 29.4446615,77.2252604 29.7441406,76.9257812 C30.0436198,77.375 30.4928385,77.9739583 31.0917969,78.7226562 C28.3964844,79.7708333 24.4283854,81.343099 19.1875,83.4394531 C20.8346354,81.1933594 23.4550781,77.8242188 27.0488281,73.3320312 C27.3483073,73.78125 27.797526,74.3802083 28.3964844,75.1289062 C28.0970052,75.2786458 27.797526,75.5032552 27.4980469,75.8027344 C27.1985677,75.952474 26.8990885,76.1022135 26.5996094,76.2519531 Z M26.5996094,76.2519531 C26.8990885,76.1022135 27.1985677,75.952474 27.4980469,75.8027344 C27.797526,75.5032552 28.0970052,75.2786458 28.3964844,75.1289062 C28.6959635,75.578125 29.1451823,76.1770833 29.7441406,76.9257812 C29.4446615,77.2252604 29.1451823,77.4498698 28.8457031,77.5996094 C28.3964844,77.749349 28.0221354,77.9739583 27.7226562,78.2734375 C27.5729167,77.9739583 27.3483073,77.5996094 27.0488281,77.1503906 C26.8990885,76.8509115 26.749349,76.5514323 26.5996094,76.2519531 Z M82.078125,75.578125 C82.9765625,74.6796875 84.0996094,74.2304688 85.4472656,74.2304688 C86.6451823,74.2304688 87.6933594,74.6796875 88.5917969,75.578125 C89.639974,76.4765625 90.1640625,77.5996094 90.1640625,78.9472656 C90.3138021,80.2949219 89.9394531,81.4928385 89.0410156,82.5410156 C88.1425781,83.4394531 87.0195313,83.9635417 85.671875,84.1132812 C84.3242188,84.1132812 83.1263021,83.6640625 82.078125,82.765625 C81.3294271,82.0169271 80.8053385,81.1933594 80.5058594,80.2949219 C80.3561198,79.2467448 80.4309896,78.2734375 80.7304688,77.375 C80.8802083,77.375 80.9550781,77.375 80.9550781,77.375 C81.1048177,77.5247396 81.2545573,77.5996094 81.4042969,77.5996094 C81.1048177,78.4980469 81.0299479,79.3216146 81.1796875,80.0703125 C81.3294271,80.96875 81.7786458,81.7174479 82.5273438,82.3164062 C83.4257813,83.2148438 84.4739583,83.5891927 85.671875,83.4394531 C86.7200521,83.4394531 87.6933594,82.9902344 88.5917969,82.0917969 C89.3404948,81.1933594 89.7148438,80.1451823 89.7148438,78.9472656 C89.5651042,77.749349 89.0410156,76.7760417 88.1425781,76.0273438 C87.3938802,75.2786458 86.4954427,74.9042969 85.4472656,74.9042969 C84.3990885,74.9042969 83.500651,75.203776 82.7519531,75.8027344 C82.6022135,75.8027344 82.452474,75.7278646 82.3027344,75.578125 C82.3027344,75.578125 82.2278646,75.578125 82.078125,75.578125 Z M82.078125,76.2519531 C81.9283854,76.5514323 81.7786458,76.7760417 81.6289062,76.9257812 C81.4791667,77.2252604 81.4042969,77.4498698 81.4042969,77.5996094 C81.2545573,77.5996094 81.1796875,77.5996094 81.1796875,77.5996094 C81.0299479,77.4498698 80.8802083,77.375 80.7304688,77.375 C80.8802083,77.0755208 81.0299479,76.8509115 81.1796875,76.7011719 C81.3294271,76.4016927 81.4791667,76.1770833 81.6289062,76.0273438 C81.7786458,75.8776042 81.8535156,75.8027344 81.8535156,75.8027344 C82.0032552,75.6529948 82.078125,75.578125 82.078125,75.578125 C82.2278646,75.578125 82.3776042,75.578125 82.5273438,75.578125 C82.5273438,75.7278646 82.6022135,75.8027344 82.7519531,75.8027344 C82.6022135,75.952474 82.452474,76.0273438 82.3027344,76.0273438 C82.3027344,76.1770833 82.2278646,76.2519531 82.078125,76.2519531 Z M87.9179688,76.4765625 C87.1692708,75.8776042 86.3457031,75.5032552 85.4472656,75.3535156 C84.5488281,75.3535156 83.8001302,75.578125 83.2011719,76.0273438 C83.0514323,76.0273438 82.9765625,76.0273438 82.9765625,76.0273438 C82.8268229,75.8776042 82.7519531,75.8027344 82.7519531,75.8027344 C83.500651,75.203776 84.3990885,74.9042969 85.4472656,74.9042969 C86.4954427,74.9042969 87.3938802,75.2786458 88.1425781,76.0273438 C89.0410156,76.7760417 89.5651042,77.749349 89.7148438,78.9472656 C89.7148438,80.1451823 89.3404948,81.1933594 88.5917969,82.0917969 C87.6933594,82.9902344 86.7200521,83.4394531 85.671875,83.4394531 C84.4739583,83.5891927 83.4257813,83.2148438 82.5273438,82.3164063 C81.7786458,81.7174479 81.3294271,80.96875 81.1796875,80.0703125 C81.0299479,79.3216146 81.1048177,78.4980469 81.4042969,77.5996094 C81.4042969,77.749349 81.4791667,77.8242188 81.6289063,77.8242188 C81.6289063,77.8242188 81.703776,77.8990885 81.8535156,78.0488281 C81.5540365,78.6477865 81.4791667,79.3216146 81.6289063,80.0703125 C81.7786458,80.8190104 82.1529948,81.4179688 82.7519531,81.8671875 C83.500651,82.6158854 84.3990885,82.9902344 85.4472656,82.9902344 C86.4954427,82.8404948 87.3938802,82.391276 88.1425781,81.6425781 C88.7415365,80.8938802 89.0410156,79.9954427 89.0410156,78.9472656 C89.0410156,77.8990885 88.6666667,77.0755208 87.9179688,76.4765625 Z M81.4042969,77.5996094 C81.4042969,77.4498698 81.4791667,77.2252604 81.6289062,76.9257812 C81.7786458,76.7760417 81.9283854,76.5514323 82.078125,76.2519531 C82.2278646,76.2519531 82.3027344,76.1770833 82.3027344,76.0273438 C82.452474,76.0273438 82.6022135,75.952474 82.7519531,75.8027344 C82.7519531,75.8027344 82.8268229,75.8776042 82.9765625,76.0273438 C82.9765625,76.0273438 83.0514323,76.1022135 83.2011719,76.2519531 C83.0514323,76.2519531 82.9016927,76.3268229 82.7519531,76.4765625 C82.7519531,76.4765625 82.6770833,76.5514323 82.5273438,76.7011719 C82.3776042,76.8509115 82.2278646,77.0755208 82.078125,77.375 C81.9283854,77.5247396 81.8535156,77.749349 81.8535156,78.0488281 C81.703776,77.8990885 81.6289062,77.8242188 81.6289062,77.8242188 C81.4791667,77.8242188 81.4042969,77.749349 81.4042969,77.5996094 Z M98.6992188,63.2246094 C98.6992188,63.2246094 98.7740885,63.2246094 98.9238281,63.2246094 C98.9238281,63.374349 98.9986979,63.4492188 99.1484375,63.4492188 C99.1484375,63.5989583 99.1484375,63.7486979 99.1484375,63.8984375 C99.1484375,63.8984375 99.1484375,63.9733073 99.1484375,64.1230469 C99.1484375,65.9199219 99.1484375,68.2408854 99.1484375,71.0859375 C99.1484375,73.78125 99.1484375,77.000651 99.1484375,80.7441406 C99.1484375,80.8938802 99.1484375,81.0436198 99.1484375,81.1933594 C99.1484375,81.1933594 99.0735677,81.2682292 98.9238281,81.4179688 C98.7740885,81.5677083 98.6992188,81.6425781 98.6992188,81.6425781 C98.5494792,81.6425781 98.3997396,81.6425781 98.25,81.6425781 C98.1002604,81.6425781 97.9505208,81.6425781 97.8007812,81.6425781 C97.8007812,81.6425781 97.7259115,81.5677083 97.5761719,81.4179688 C97.4264323,81.2682292 97.3515625,81.1933594 97.3515625,81.1933594 C97.3515625,81.0436198 97.3515625,80.8938802 97.3515625,80.7441406 C97.3515625,79.0970052 97.3515625,77.0755208 97.3515625,74.6796875 C97.3515625,72.4335938 97.3515625,69.6634115 97.3515625,66.3691406 C97.2018229,66.5188802 97.0520833,66.6686198 96.9023438,66.8183594 C96.9023438,66.8183594 96.827474,66.8932292 96.6777344,67.0429688 C96.5279948,67.1927083 96.3782552,67.2675781 96.2285156,67.2675781 C96.2285156,67.4173177 96.1536458,67.4921875 96.0039062,67.4921875 C95.8541667,67.4921875 95.7044271,67.4173177 95.5546875,67.2675781 C95.4049479,67.2675781 95.3300781,67.1927083 95.3300781,67.0429688 C95.1803385,67.0429688 95.1054688,66.968099 95.1054688,66.8183594 C94.9557292,66.6686198 94.8808594,66.5188802 94.8808594,66.3691406 C94.8808594,66.219401 94.9557292,66.1445312 95.1054688,66.1445312 C95.1054688,65.9947917 95.1803385,65.8450521 95.3300781,65.6953125 C95.4798177,65.3958333 95.7792969,65.0963542 96.2285156,64.796875 C96.6777344,64.3476562 97.1269531,63.8984375 97.5761719,63.4492188 C97.7259115,63.2994792 97.8007812,63.2246094 97.8007812,63.2246094 C97.9505208,63.2246094 98.0253906,63.1497396 98.0253906,63 C98.1751302,63 98.25,63 98.25,63 C98.25,63 98.25,63 98.25,63 C98.3997396,63 98.4746094,63.0748698 98.4746094,63.2246094 C98.4746094,63.2246094 98.5494792,63.2246094 98.6992188,63.2246094 Z"/></svg>