<svg xmlns="http://www.w3.org/2000/svg" width="50" height="203" viewBox="0 0 50 203"><path d="M712.225,132.19 C715.481,132.19 718.293,133.337 720.661,135.631 C723.029,137.925 724.213,140.774 724.213,144.178 C724.213,147.286 723.029,150.024 720.661,152.392 C718.293,154.76 715.481,155.944 712.225,155.944 C708.969,155.944 706.194,154.76 703.9,152.392 C701.606,150.024 700.459,147.286 700.459,144.178 C700.459,140.774 701.606,137.925 703.9,135.631 C706.194,133.337 708.969,132.19 712.225,132.19 Z M712.225,74.19 C715.481,74.19 718.293,75.337 720.661,77.631 C723.029,79.925 724.213,82.774 724.213,86.178 C724.213,89.286 723.029,92.024 720.661,94.392 C718.293,96.76 715.481,97.944 712.225,97.944 C708.969,97.944 706.194,96.76 703.9,94.392 C701.606,92.024 700.459,89.286 700.459,86.178 C700.459,82.774 701.606,79.925 703.9,77.631 C706.194,75.337 708.969,74.19 712.225,74.19 Z" transform="translate(-687.5 -18.056)"/></svg>