<svg xmlns="http://www.w3.org/2000/svg" width="50" height="203" viewBox="0 0 50 203"><path d="M147.7156,173.073077 C152.3036,173.073077 156.1886,174.553077 159.3706,177.513077 C162.5526,180.473077 164.1436,185.061077 164.1436,191.277077 C164.1436,201.193077 159.8516,210.665077 151.2676,219.693077 C142.8316,228.869077 137.1336,233.457077 134.1736,233.457077 C133.4336,233.309077 132.6566,233.013077 131.8426,232.569077 C131.0286,232.125077 130.4736,231.533077 130.1776,230.793077 C129.8816,230.053077 129.9556,229.091077 130.3996,227.907077 C130.8436,226.723077 131.8796,225.317077 133.5076,223.689077 C142.2396,214.957077 146.6056,208.963077 146.6056,205.707077 C146.6056,203.635077 145.1256,202.451077 142.1656,202.155077 C139.3536,201.711077 137.0596,200.231077 135.2836,197.715077 C133.9516,195.791077 133.1376,193.386077 132.8416,190.500077 C132.5456,187.614077 132.8786,184.839077 133.8406,182.175077 C134.8026,179.511077 136.4306,177.291077 138.7246,175.515077 C141.0186,173.739077 144.0156,172.925077 147.7156,173.073077 Z" transform="translate(-124 -.056)"/></svg>