<svg xmlns="http://www.w3.org/2000/svg" width="120" height="243" viewBox="0 0 120 243"><path fill="#131313" d="M106.452148,70.4824219 C109.886393,86.5546875 110.641927,101.253255 108.71875,114.578125 C106.795573,127.902995 102.193685,139.029948 94.9130859,147.958984 C90.3798828,153.728516 85.0224609,158.124349 78.8408203,161.146484 C72.6591797,164.16862 66.1341146,165.679688 59.265625,165.679688 C52.9466146,165.679688 43.3994141,165.679688 30.6240234,165.679688 C30.0745443,165.679688 29.5250651,165.679688 28.9755859,165.679688 C28.5634766,165.542318 28.1513672,165.404948 27.7392578,165.267578 C26.3655599,164.580729 25.2666016,163.619141 24.4423828,162.382812 C23.4807943,161.146484 23,159.772786 23,158.261719 C23,129.963542 23,87.516276 23,30.9199219 C23,28.859375 23.7555339,27.0735677 25.2666016,25.5625 C26.7776693,24.1888021 28.5634766,23.5019531 30.6240234,23.5019531 C31.0361328,23.5019531 31.5169271,23.5019531 32.0664062,23.5019531 C32.4785156,23.6393229 32.9593099,23.7766927 33.5087891,23.9140625 C37.492513,23.6393229 42.0257161,23.6393229 47.1083984,23.9140625 C52.0537109,24.1888021 57.1363932,24.9443359 62.3564453,26.1806641 C71.8349609,28.6533203 80.8326823,33.2552083 89.3496094,39.9863281 C97.8665365,46.8548177 103.567383,57.0201823 106.452148,70.4824219 Z M84.4521484,139.146484 C87.7490234,135.025391 90.9772135,127.813477 94.1367188,117.510742 C97.4335938,107.208008 97.0214844,92.7154948 92.9003906,74.0332031 C90.702474,63.3183594 86.2379557,55.5569661 79.5068359,50.7490234 C72.7757161,45.8037109 65.9072266,42.5755208 58.9013672,41.0644531 C55.055013,40.1028646 51.4147135,39.5533854 47.9804688,39.4160156 C44.546224,39.141276 41.5927734,39.0725911 39.1201172,39.2099609 C39.1201172,64.0738932 39.1201172,101.438477 39.1201172,151.303711 C43.7906901,151.303711 50.8652344,151.303711 60.34375,151.303711 C64.8769531,151.303711 69.2727865,150.273438 73.53125,148.212891 C77.6523438,146.014974 81.2926432,142.992839 84.4521484,139.146484 Z M50.4833984,14.8955078 C65.5940755,16.2692057 78.6442057,20.733724 89.6337891,28.2890625 C100.760742,35.844401 108.72819,45.8037109 113.536133,58.1669922 C113.124023,58.304362 112.437174,58.5104167 111.475586,58.7851562 C106.805013,46.8339844 99.1123047,37.218099 88.3974609,29.9375 C77.6826172,22.656901 64.9759115,18.3297526 50.2773438,16.9560547 C50.2773438,16.8186849 50.3460286,16.6813151 50.4833984,16.5439453 C50.4833984,16.2692057 50.4833984,16.063151 50.4833984,15.9257812 C50.4833984,15.6510417 50.4833984,15.444987 50.4833984,15.3076172 C50.4833984,15.1702474 50.4833984,15.0328776 50.4833984,14.8955078 Z M45.9501953,19.6347656 C46.7744141,19.6347656 47.5299479,19.4287109 48.2167969,19.0166016 C48.9036458,18.4671224 49.3844401,17.7802734 49.6591797,16.9560547 C49.7965495,16.9560547 49.8652344,16.9560547 49.8652344,16.9560547 C50.0026042,16.9560547 50.139974,16.9560547 50.2773438,16.9560547 C50.0026042,17.9176432 49.453125,18.741862 48.6289062,19.4287109 C47.8046875,19.9781901 46.843099,20.2529297 45.7441406,20.2529297 C44.5078125,20.2529297 43.4775391,19.7721354 42.6533203,18.8105469 C41.8291016,17.8489583 41.4169922,16.75 41.4169922,15.5136719 C41.4169922,14.2773438 41.8977865,13.2470703 42.859375,12.4228516 C43.8209635,11.5986328 44.9199219,11.1865234 46.15625,11.1865234 C47.2552083,11.1865234 48.148112,11.5986328 48.8349609,12.4228516 C49.6591797,13.1097005 50.2086589,13.9339193 50.4833984,14.8955078 C50.3460286,14.8955078 50.2086589,14.8955078 50.0712891,14.8955078 C50.0712891,14.8955078 50.0026042,14.8955078 49.8652344,14.8955078 C49.7278646,14.0712891 49.3157552,13.3157552 48.6289062,12.6289062 C47.8046875,12.0794271 46.9804688,11.8046875 46.15625,11.8046875 C45.0572917,11.6673177 44.0957031,12.0107422 43.2714844,12.8349609 C42.4472656,13.5218099 42.0351562,14.4147135 42.0351562,15.5136719 C42.0351562,16.6126302 42.3785807,17.5742188 43.0654297,18.3984375 C43.8896484,19.2226562 44.851237,19.6347656 45.9501953,19.6347656 Z M50.4833984,14.8955078 C50.4833984,15.0328776 50.4833984,15.1702474 50.4833984,15.3076172 C50.4833984,15.444987 50.4833984,15.5823568 50.4833984,15.7197266 C50.4833984,15.9944661 50.4833984,16.2692057 50.4833984,16.5439453 C50.3460286,16.6813151 50.2773438,16.8186849 50.2773438,16.9560547 C50.139974,16.9560547 50.0712891,16.9560547 50.0712891,16.9560547 C49.9339193,16.9560547 49.7965495,16.9560547 49.6591797,16.9560547 C49.7965495,16.8186849 49.8652344,16.6126302 49.8652344,16.3378906 C49.8652344,16.2005208 49.8652344,15.9944661 49.8652344,15.7197266 C49.8652344,15.5823568 49.8652344,15.444987 49.8652344,15.3076172 C49.8652344,15.1702474 49.8652344,15.0328776 49.8652344,14.8955078 C50.0026042,14.8955078 50.0712891,14.8955078 50.0712891,14.8955078 C50.2086589,14.8955078 50.3460286,14.8955078 50.4833984,14.8955078 Z M46.15625,11.8046875 C46.9804688,11.8046875 47.8046875,12.0794271 48.6289062,12.6289062 C49.3157552,13.3157552 49.7278646,14.0712891 49.8652344,14.8955078 C49.7278646,14.8955078 49.6591797,14.8955078 49.6591797,14.8955078 C49.5218099,14.8955078 49.3844401,14.8955078 49.2470703,14.8955078 C49.1097005,14.0712891 48.766276,13.453125 48.2167969,13.0410156 C47.5299479,12.4915365 46.843099,12.2167969 46.15625,12.2167969 C46.15625,12.2167969 46.2249349,12.2167969 46.3623047,12.2167969 C46.3623047,12.2167969 46.4309896,12.2167969 46.5683594,12.2167969 C46.4309896,12.2167969 46.3623047,12.2167969 46.3623047,12.2167969 C46.2249349,12.2167969 46.15625,12.2167969 46.15625,12.2167969 C46.0188802,12.2167969 45.8815104,12.2167969 45.7441406,12.2167969 C45.7441406,12.2167969 45.6754557,12.2167969 45.5380859,12.2167969 C45.5380859,12.2167969 45.5380859,12.2167969 45.5380859,12.2167969 C45.5380859,12.2167969 45.5380859,12.2167969 45.5380859,12.2167969 C45.5380859,12.2167969 45.5380859,12.2167969 45.5380859,12.2167969 C45.5380859,12.2167969 45.5380859,12.2167969 45.5380859,12.2167969 C45.6754557,12.2167969 45.7441406,12.2167969 45.7441406,12.2167969 C45.8815104,12.2167969 46.0188802,12.2167969 46.15625,12.2167969 C45.1946615,12.2167969 44.3704427,12.5602214 43.6835938,13.2470703 C42.9967448,13.7965495 42.5846354,14.5520833 42.4472656,15.5136719 C42.4472656,16.4752604 42.7906901,17.2994792 43.4775391,17.9863281 C44.164388,18.6731771 44.9886068,19.0166016 45.9501953,19.0166016 C46.6370443,19.1539714 47.2552083,19.0166016 47.8046875,18.6044922 C48.4915365,18.1923828 48.9036458,17.6429036 49.0410156,16.9560547 C49.1783854,16.9560547 49.3157552,16.9560547 49.453125,16.9560547 C49.453125,16.9560547 49.5218099,16.9560547 49.6591797,16.9560547 C49.3844401,17.7802734 48.9036458,18.3984375 48.2167969,18.8105469 C47.5299479,19.360026 46.7744141,19.6347656 45.9501953,19.6347656 C44.851237,19.6347656 43.8896484,19.2226562 43.0654297,18.3984375 C42.3785807,17.5742187 42.0351562,16.6126302 42.0351562,15.5136719 C42.0351562,14.4147135 42.4472656,13.5218099 43.2714844,12.8349609 C44.0957031,12.0107422 45.0572917,11.6673177 46.15625,11.8046875 Z M49.453125,15.7197266 C49.453125,15.5823568 49.453125,15.444987 49.453125,15.3076172 C49.453125,15.1702474 49.3844401,15.0328776 49.2470703,14.8955078 C49.3844401,14.8955078 49.5218099,14.8955078 49.6591797,14.8955078 C49.6591797,14.8955078 49.7278646,14.8955078 49.8652344,14.8955078 C49.8652344,15.0328776 49.8652344,15.1702474 49.8652344,15.3076172 C49.8652344,15.444987 49.8652344,15.5823568 49.8652344,15.7197266 C49.8652344,15.9944661 49.8652344,16.2005208 49.8652344,16.3378906 C49.8652344,16.6126302 49.7965495,16.8186849 49.6591797,16.9560547 C49.6591797,16.9560547 49.5904948,16.9560547 49.453125,16.9560547 C49.3157552,16.9560547 49.2470703,16.9560547 49.2470703,16.9560547 C49.2470703,16.8186849 49.2470703,16.6126302 49.2470703,16.3378906 C49.3844401,16.2005208 49.453125,15.9944661 49.453125,15.7197266 Z M115.802734,69.2939453 C114.429036,67.0960286 112.36849,63.7991536 109.621094,59.4033203 C110.033203,59.2659505 110.651367,59.0598958 111.475586,58.7851562 C111.612956,59.0598958 111.750326,59.4033203 111.887695,59.8154297 C112.025065,60.0901693 112.162435,60.3649089 112.299805,60.6396484 C112.711914,60.5022786 113.398763,60.296224 114.360352,60.0214844 C114.222982,59.7467448 114.085612,59.4033203 113.948242,58.9912109 C113.810872,58.7164714 113.673503,58.4417318 113.536133,58.1669922 C113.948242,58.0296224 114.635091,57.8235677 115.59668,57.5488281 C115.59668,59.4720052 115.59668,61.4638672 115.59668,63.5244141 C115.734049,65.4475911 115.802734,67.3707682 115.802734,69.2939453 Z M114.360352,60.0214844 C113.948242,60.1588542 113.261393,60.3649089 112.299805,60.6396484 C112.162435,60.3649089 112.025065,60.0901693 111.887695,59.8154297 C111.750326,59.4033203 111.612956,59.0598958 111.475586,58.7851562 C111.887695,58.6477865 112.574544,58.4417318 113.536133,58.1669922 C113.673503,58.4417318 113.810872,58.7164714 113.948242,58.9912109 C114.085612,59.4033203 114.222982,59.7467448 114.360352,60.0214844 Z M13.5996094,147.800781 C14.0117188,147.800781 14.6985677,147.800781 15.6601562,147.800781 C15.6601562,123.898438 15.6601562,88.1822917 15.6601562,40.6523438 C15.5227865,40.6523438 15.3854167,40.6523438 15.2480469,40.6523438 C14.9733073,40.6523438 14.7672526,40.6523438 14.6298828,40.6523438 C14.492513,40.6523438 14.3551432,40.6523438 14.2177734,40.6523438 C13.9430339,40.6523438 13.7369792,40.6523438 13.5996094,40.6523438 C13.5996094,58.5104167 13.5996094,76.3684896 13.5996094,94.2265625 C13.5996094,112.084635 13.5996094,129.942708 13.5996094,147.800781 Z M15.6601562,149.861328 C15.6601562,149.311849 15.6601562,148.625 15.6601562,147.800781 C16.2096354,147.800781 16.8964844,147.800781 17.7207031,147.800781 C17.0338542,150.273438 16.0035807,154.051107 14.6298828,159.133789 C13.9430339,156.661133 12.9127604,152.883464 11.5390625,147.800781 C12.0885417,147.800781 12.7753906,147.800781 13.5996094,147.800781 C13.5996094,148.212891 13.5996094,148.89974 13.5996094,149.861328 C14.0117188,149.861328 14.6985677,149.861328 15.6601562,149.861328 Z M13.5996094,149.861328 C14.0117188,149.861328 14.6985677,149.861328 15.6601562,149.861328 C15.6601562,149.311849 15.6601562,148.625 15.6601562,147.800781 C15.2480469,147.800781 14.5611979,147.800781 13.5996094,147.800781 C13.5996094,148.212891 13.5996094,148.89974 13.5996094,149.861328 Z M11.7451172,39.6220703 C12.0198568,39.8968099 12.2945964,40.1028646 12.5693359,40.2402344 C12.9814453,40.3776042 13.3248698,40.514974 13.5996094,40.6523438 C13.3248698,40.514974 12.9814453,40.3776042 12.5693359,40.2402344 C12.2945964,40.1028646 12.0198568,39.8968099 11.7451172,39.6220703 Z M10.0966797,36.3251953 C10.0966797,36.4625651 10.0966797,36.5999349 10.0966797,36.7373047 C10.2340495,36.8746745 10.3027344,37.0120443 10.3027344,37.1494141 C10.3027344,37.1494141 10.3027344,37.1494141 10.3027344,37.1494141 C10.3027344,37.2867839 10.3027344,37.3554688 10.3027344,37.3554688 C10.3027344,37.4928385 10.3714193,37.5615234 10.5087891,37.5615234 C10.5087891,37.6988932 10.5087891,37.7675781 10.5087891,37.7675781 C10.5087891,37.9049479 10.5087891,37.9736328 10.5087891,37.9736328 C10.5087891,38.1110026 10.577474,38.1796875 10.7148438,38.1796875 C10.7148438,38.1796875 10.7148438,38.2483724 10.7148438,38.3857422 C10.7148438,38.3857422 10.7835286,38.4544271 10.9208984,38.5917969 C10.9208984,38.5917969 10.9208984,38.6604818 10.9208984,38.7978516 C10.9208984,38.7978516 10.9895833,38.7978516 11.1269531,38.7978516 C11.1269531,38.9352214 11.1269531,39.0039062 11.1269531,39.0039062 C11.2643229,39.0039062 11.3330078,39.0725911 11.3330078,39.2099609 C11.3330078,39.2099609 11.4016927,39.2786458 11.5390625,39.4160156 C11.5390625,39.4160156 11.5390625,39.4160156 11.5390625,39.4160156 C11.6764323,39.5533854 11.7451172,39.6220703 11.7451172,39.6220703 C11.7451172,39.6220703 11.7451172,39.6220703 11.7451172,39.6220703 C12.0198568,39.8968099 12.2945964,40.1028646 12.5693359,40.2402344 C12.9814453,40.3776042 13.3248698,40.514974 13.5996094,40.6523438 C13.5996094,40.514974 13.5996094,40.3089193 13.5996094,40.0341797 C13.1875,39.8968099 12.8440755,39.6907552 12.5693359,39.4160156 C12.1572266,39.2786458 11.8138021,39.0039062 11.5390625,38.5917969 C11.5390625,38.5917969 11.5390625,38.5917969 11.5390625,38.5917969 C11.5390625,38.5917969 11.5390625,38.5917969 11.5390625,38.5917969 C11.4016927,38.4544271 11.2643229,38.3170573 11.1269531,38.1796875 C11.1269531,37.9049479 11.0582682,37.6988932 10.9208984,37.5615234 C10.9208984,37.5615234 10.9208984,37.5615234 10.9208984,37.5615234 C10.9208984,37.4241536 10.9208984,37.3554688 10.9208984,37.3554688 C10.7835286,37.218099 10.7148438,37.0120443 10.7148438,36.7373047 C10.7148438,36.5999349 10.7148438,36.3938802 10.7148438,36.1191406 C10.7148438,35.0201823 11.1269531,34.1272786 11.9511719,33.4404297 C12.6380208,32.6162109 13.5309245,32.2041016 14.6298828,32.2041016 C15.7288411,32.2041016 16.6904297,32.6162109 17.5146484,33.4404297 C18.2014974,34.1272786 18.5449219,35.0201823 18.5449219,36.1191406 C18.5449219,36.3938802 18.5449219,36.5999349 18.5449219,36.7373047 C18.5449219,37.0120443 18.5449219,37.218099 18.5449219,37.3554688 C18.4075521,37.3554688 18.3388672,37.4241536 18.3388672,37.5615234 C18.3388672,37.5615234 18.3388672,37.5615234 18.3388672,37.5615234 C18.3388672,37.6988932 18.2701823,37.9049479 18.1328125,38.1796875 C17.9954427,38.3170573 17.9267578,38.4544271 17.9267578,38.5917969 C17.789388,38.5917969 17.7207031,38.5917969 17.7207031,38.5917969 C17.7207031,38.5917969 17.7207031,38.5917969 17.7207031,38.5917969 C17.4459635,39.0039062 17.171224,39.2786458 16.8964844,39.4160156 C16.484375,39.6907552 16.0722656,39.8968099 15.6601562,40.0341797 C15.6601562,40.1715495 15.6601562,40.2402344 15.6601562,40.2402344 C15.6601562,40.3776042 15.6601562,40.514974 15.6601562,40.6523438 C16.0722656,40.514974 16.4156901,40.3776042 16.6904297,40.2402344 C16.9651693,40.1028646 17.2399089,39.8968099 17.5146484,39.6220703 C17.5146484,39.6220703 17.5146484,39.6220703 17.5146484,39.6220703 C17.6520182,39.6220703 17.7207031,39.5533854 17.7207031,39.4160156 C17.7207031,39.4160156 17.789388,39.4160156 17.9267578,39.4160156 C17.9267578,39.2786458 17.9267578,39.2099609 17.9267578,39.2099609 C18.0641276,39.0725911 18.1328125,39.0039062 18.1328125,39.0039062 C18.1328125,39.0039062 18.2014974,38.9352214 18.3388672,38.7978516 C18.3388672,38.7978516 18.3388672,38.7978516 18.3388672,38.7978516 C18.3388672,38.6604818 18.4075521,38.5917969 18.5449219,38.5917969 C18.5449219,38.4544271 18.5449219,38.3857422 18.5449219,38.3857422 C18.6822917,38.2483724 18.7509766,38.1796875 18.7509766,38.1796875 C18.7509766,38.1796875 18.7509766,38.1110026 18.7509766,37.9736328 C18.7509766,37.9736328 18.7509766,37.9049479 18.7509766,37.7675781 C18.8883464,37.7675781 18.9570312,37.6988932 18.9570312,37.5615234 C18.9570312,37.5615234 18.9570312,37.4928385 18.9570312,37.3554688 C18.9570312,37.3554688 18.9570312,37.2867839 18.9570312,37.1494141 C19.094401,37.1494141 19.1630859,37.1494141 19.1630859,37.1494141 C19.1630859,37.0120443 19.1630859,36.8746745 19.1630859,36.7373047 C19.1630859,36.5999349 19.1630859,36.4625651 19.1630859,36.3251953 C19.1630859,35.0888672 18.7509766,33.9899089 17.9267578,33.0283203 C16.9651693,32.2041016 15.8662109,31.7919922 14.6298828,31.7919922 C13.3935547,31.7919922 12.3632812,32.2041016 11.5390625,33.0283203 C10.577474,33.9899089 10.0966797,35.0888672 10.0966797,36.3251953 Z M13.5996094,40.6523438 C13.7369792,40.6523438 13.9430339,40.6523438 14.2177734,40.6523438 C14.3551432,40.6523438 14.492513,40.6523438 14.6298828,40.6523438 C14.492513,40.6523438 14.3551432,40.6523438 14.2177734,40.6523438 C13.9430339,40.6523438 13.7369792,40.6523438 13.5996094,40.6523438 Z M14.6298828,40.6523438 C14.7672526,40.6523438 14.9733073,40.6523438 15.2480469,40.6523438 C15.3854167,40.6523438 15.5227865,40.6523438 15.6601562,40.6523438 C15.5227865,40.6523438 15.3854167,40.6523438 15.2480469,40.6523438 C14.9733073,40.6523438 14.7672526,40.6523438 14.6298828,40.6523438 Z M15.6601562,40.0341797 C15.5227865,40.0341797 15.3854167,40.1028646 15.2480469,40.2402344 C14.9733073,40.2402344 14.7672526,40.2402344 14.6298828,40.2402344 C14.492513,40.2402344 14.3551432,40.2402344 14.2177734,40.2402344 C13.9430339,40.1028646 13.7369792,40.0341797 13.5996094,40.0341797 C13.5996094,40.1715495 13.5996094,40.2402344 13.5996094,40.2402344 C13.5996094,40.3776042 13.5996094,40.514974 13.5996094,40.6523438 C13.7369792,40.6523438 13.9430339,40.6523438 14.2177734,40.6523438 C14.3551432,40.6523438 14.492513,40.6523438 14.6298828,40.6523438 C14.7672526,40.6523438 14.9733073,40.6523438 15.2480469,40.6523438 C15.3854167,40.6523438 15.5227865,40.6523438 15.6601562,40.6523438 C15.6601562,40.514974 15.6601562,40.3776042 15.6601562,40.2402344 C15.6601562,40.2402344 15.6601562,40.1715495 15.6601562,40.0341797 Z M18.5449219,36.3251953 C18.5449219,36.4625651 18.5449219,36.6686198 18.5449219,36.9433594 C18.5449219,37.0807292 18.5449219,37.218099 18.5449219,37.3554688 C18.5449219,37.218099 18.5449219,37.0807292 18.5449219,36.9433594 C18.5449219,36.6686198 18.5449219,36.4625651 18.5449219,36.3251953 Z M18.3388672,37.5615234 C18.3388672,37.836263 18.2701823,38.0423177 18.1328125,38.1796875 C17.9954427,38.3170573 17.9267578,38.4544271 17.9267578,38.5917969 C17.9267578,38.4544271 17.9954427,38.3170573 18.1328125,38.1796875 C18.2701823,38.0423177 18.3388672,37.836263 18.3388672,37.5615234 Z M10.9208984,37.5615234 C11.0582682,37.836263 11.1269531,38.0423177 11.1269531,38.1796875 C11.2643229,38.3170573 11.4016927,38.4544271 11.5390625,38.5917969 C11.4016927,38.4544271 11.2643229,38.3170573 11.1269531,38.1796875 C11.1269531,38.0423177 11.0582682,37.836263 10.9208984,37.5615234 Z M17.7207031,38.7978516 C17.4459635,39.0725911 17.171224,39.3473307 16.8964844,39.6220703 C16.484375,39.7594401 16.0722656,39.8968099 15.6601562,40.0341797 C16.0722656,39.8968099 16.484375,39.7594401 16.8964844,39.6220703 C17.171224,39.3473307 17.4459635,39.0725911 17.7207031,38.7978516 Z M10.9208984,37.3554688 C10.7835286,37.218099 10.7148438,37.0807292 10.7148438,36.9433594 C10.7148438,36.6686198 10.7148438,36.4625651 10.7148438,36.3251953 C10.7148438,36.4625651 10.7148438,36.6686198 10.7148438,36.9433594 C10.7148438,37.0807292 10.7835286,37.218099 10.9208984,37.3554688 Z M13.5996094,40.0341797 C13.1875,39.8968099 12.8440755,39.7594401 12.5693359,39.6220703 C12.1572266,39.3473307 11.8138021,39.0725911 11.5390625,38.7978516 C11.8138021,39.0725911 12.1572266,39.3473307 12.5693359,39.6220703 C12.8440755,39.7594401 13.1875,39.8968099 13.5996094,40.0341797 Z M11.9511719,38.3857422 C11.9511719,38.3857422 11.9511719,38.3170573 11.9511719,38.1796875 C11.9511719,38.1796875 11.9511719,38.1796875 11.9511719,38.1796875 C11.8138021,38.0423177 11.7451172,37.9049479 11.7451172,37.7675781 C11.6077474,37.6302083 11.5390625,37.4928385 11.5390625,37.3554688 C11.4016927,37.3554688 11.3330078,37.3554688 11.3330078,37.3554688 C11.3330078,37.3554688 11.3330078,37.2867839 11.3330078,37.1494141 C11.3330078,37.0120443 11.3330078,36.8746745 11.3330078,36.7373047 C11.195638,36.5999349 11.1269531,36.4625651 11.1269531,36.3251953 C11.1269531,36.4625651 11.1269531,36.53125 11.1269531,36.53125 C11.1269531,36.6686198 11.1269531,36.7373047 11.1269531,36.7373047 C11.1269531,36.7373047 11.1269531,36.7373047 11.1269531,36.7373047 C11.1269531,36.5999349 11.1269531,36.4625651 11.1269531,36.3251953 C11.1269531,36.0504557 11.1269531,35.9130859 11.1269531,35.9130859 C11.1269531,35.7757161 11.1269531,35.7070312 11.1269531,35.7070312 C11.1269531,35.7070312 11.1269531,35.7757161 11.1269531,35.9130859 C11.1269531,35.9130859 11.1269531,36.0504557 11.1269531,36.3251953 C11.1269531,35.3636068 11.4703776,34.539388 12.1572266,33.8525391 C12.8440755,33.1656901 13.6682943,32.8222656 14.6298828,32.8222656 C15.5914714,32.8222656 16.4156901,33.1656901 17.1025391,33.8525391 C17.789388,34.539388 18.1328125,35.3636068 18.1328125,36.3251953 C18.1328125,36.4625651 18.1328125,36.5999349 18.1328125,36.7373047 C17.9954427,36.8746745 17.9267578,37.0120443 17.9267578,37.1494141 C17.9267578,37.2867839 17.9267578,37.3554688 17.9267578,37.3554688 C17.9267578,37.3554688 17.9267578,37.3554688 17.9267578,37.3554688 C17.789388,37.4928385 17.7207031,37.6302083 17.7207031,37.7675781 C17.5833333,37.9049479 17.5146484,38.0423177 17.5146484,38.1796875 C17.5146484,38.1796875 17.5146484,38.1796875 17.5146484,38.1796875 C17.5146484,38.3170573 17.5146484,38.3857422 17.5146484,38.3857422 C17.2399089,38.6604818 16.9651693,38.8665365 16.6904297,39.0039062 C16.4156901,39.2786458 16.0722656,39.4160156 15.6601562,39.4160156 C15.6601562,39.5533854 15.6601562,39.7594401 15.6601562,40.0341797 C16.0722656,39.8968099 16.484375,39.7594401 16.8964844,39.6220703 C17.171224,39.3473307 17.4459635,39.0725911 17.7207031,38.7978516 C17.7207031,38.6604818 17.7207031,38.5917969 17.7207031,38.5917969 C17.8580729,38.5917969 17.9267578,38.5917969 17.9267578,38.5917969 C17.9267578,38.4544271 17.9954427,38.3170573 18.1328125,38.1796875 C18.2701823,38.0423177 18.3388672,37.836263 18.3388672,37.5615234 C18.3388672,37.5615234 18.3388672,37.5615234 18.3388672,37.5615234 C18.476237,37.5615234 18.5449219,37.4928385 18.5449219,37.3554688 C18.5449219,37.218099 18.5449219,37.0807292 18.5449219,36.9433594 C18.6822917,36.6686198 18.7509766,36.4625651 18.7509766,36.3251953 C18.7509766,35.226237 18.3388672,34.2646484 17.5146484,33.4404297 C16.6904297,32.6162109 15.7288411,32.2041016 14.6298828,32.2041016 C13.5309245,32.2041016 12.6380208,32.6162109 11.9511719,33.4404297 C11.1269531,34.2646484 10.7148438,35.226237 10.7148438,36.3251953 C10.7148438,36.4625651 10.7148438,36.6686198 10.7148438,36.9433594 C10.8522135,37.0807292 10.9208984,37.218099 10.9208984,37.3554688 C10.9208984,37.4928385 10.9208984,37.5615234 10.9208984,37.5615234 C10.9208984,37.5615234 10.9208984,37.5615234 10.9208984,37.5615234 C11.0582682,37.836263 11.1269531,38.0423177 11.1269531,38.1796875 C11.2643229,38.3170573 11.4016927,38.4544271 11.5390625,38.5917969 C11.5390625,38.5917969 11.5390625,38.5917969 11.5390625,38.5917969 C11.5390625,38.5917969 11.5390625,38.6604818 11.5390625,38.7978516 C11.8138021,39.0725911 12.1572266,39.3473307 12.5693359,39.6220703 C12.8440755,39.7594401 13.1875,39.8968099 13.5996094,40.0341797 C13.5996094,39.8968099 13.5996094,39.828125 13.5996094,39.828125 C13.5996094,39.6907552 13.5996094,39.5533854 13.5996094,39.4160156 C13.5996094,39.4160156 13.5996094,39.4160156 13.5996094,39.4160156 C13.3248698,39.4160156 13.0501302,39.2786458 12.7753906,39.0039062 C12.3632812,38.8665365 12.0885417,38.6604818 11.9511719,38.3857422 Z M15.6601562,40.0341797 C15.5227865,40.0341797 15.3854167,40.1028646 15.2480469,40.2402344 C15.1106771,40.2402344 14.9046224,40.2402344 14.6298828,40.2402344 C14.7672526,40.2402344 14.9733073,40.2402344 15.2480469,40.2402344 C15.3854167,40.1028646 15.5227865,40.0341797 15.6601562,40.0341797 Z M13.5996094,40.0341797 C13.7369792,40.0341797 13.9430339,40.1028646 14.2177734,40.2402344 C14.3551432,40.2402344 14.492513,40.2402344 14.6298828,40.2402344 C14.492513,40.2402344 14.3551432,40.2402344 14.2177734,40.2402344 C13.9430339,40.1028646 13.7369792,40.0341797 13.5996094,40.0341797 Z M14.6298828,39.6220703 C14.492513,39.6220703 14.3551432,39.6220703 14.2177734,39.6220703 C13.9430339,39.6220703 13.7369792,39.5533854 13.5996094,39.4160156 C13.5996094,39.5533854 13.5996094,39.7594401 13.5996094,40.0341797 C13.7369792,40.0341797 13.9430339,40.1028646 14.2177734,40.2402344 C14.3551432,40.2402344 14.492513,40.2402344 14.6298828,40.2402344 C14.7672526,40.2402344 14.9733073,40.2402344 15.2480469,40.2402344 C15.3854167,40.1028646 15.5227865,40.0341797 15.6601562,40.0341797 C15.6601562,39.8968099 15.6601562,39.828125 15.6601562,39.828125 C15.6601562,39.6907552 15.6601562,39.5533854 15.6601562,39.4160156 C15.5227865,39.5533854 15.3854167,39.6220703 15.2480469,39.6220703 C15.1106771,39.6220703 14.9046224,39.6220703 14.6298828,39.6220703 Z M3.50292969,30.1435547 C3.64029948,30.2809245 3.70898438,30.3496094 3.70898438,30.3496094 C3.70898438,30.4869792 3.77766927,30.5556641 3.91503906,30.5556641 C3.91503906,30.6930339 3.91503906,30.7617188 3.91503906,30.7617188 C3.91503906,30.8990885 3.91503906,30.9677734 3.91503906,30.9677734 C3.91503906,32.7535807 3.91503906,34.8828125 3.91503906,37.3554688 C3.91503906,39.9654948 3.91503906,42.9876302 3.91503906,46.421875 C3.91503906,46.421875 3.91503906,46.4905599 3.91503906,46.6279297 C3.91503906,46.7652995 3.84635417,46.9026693 3.70898438,47.0400391 C3.70898438,47.0400391 3.64029948,47.108724 3.50292969,47.2460938 C3.3655599,47.2460938 3.2281901,47.2460938 3.09082031,47.2460938 C2.95345052,47.2460938 2.88476562,47.2460938 2.88476562,47.2460938 C2.74739583,47.108724 2.61002604,47.0400391 2.47265625,47.0400391 C2.33528646,46.9026693 2.26660156,46.7652995 2.26660156,46.6279297 C2.26660156,46.6279297 2.26660156,46.5592448 2.26660156,46.421875 C2.26660156,44.9108073 2.26660156,43.0563151 2.26660156,40.8583984 C2.26660156,38.6604818 2.26660156,36.1191406 2.26660156,33.234375 C2.12923177,33.234375 2.06054688,33.3030599 2.06054688,33.4404297 C1.92317708,33.5777995 1.78580729,33.7151693 1.6484375,33.8525391 C1.51106771,33.9899089 1.37369792,34.0585938 1.23632812,34.0585938 C1.23632812,34.0585938 1.16764323,34.0585938 1.03027344,34.0585938 C0.892903646,34.0585938 0.755533854,34.0585938 0.618164062,34.0585938 C0.480794271,34.0585938 0.412109375,33.9899089 0.412109375,33.8525391 C0.274739583,33.7151693 0.206054688,33.6464844 0.206054688,33.6464844 C0.0686848958,33.5091146 0,33.3717448 0,33.234375 C0,33.0970052 0.0686848958,32.9596354 0.206054688,32.8222656 C0.206054688,32.6848958 0.274739583,32.6162109 0.412109375,32.6162109 C0.686848958,32.3414714 0.961588542,31.9980469 1.23632812,31.5859375 C1.6484375,31.3111979 2.06054688,30.8990885 2.47265625,30.3496094 C2.61002604,30.3496094 2.67871094,30.3496094 2.67871094,30.3496094 C2.81608073,30.2122396 2.95345052,30.1435547 3.09082031,30.1435547 C3.09082031,30.1435547 3.09082031,30.1435547 3.09082031,30.1435547 C3.09082031,30.1435547 3.09082031,30.1435547 3.09082031,30.1435547 C3.2281901,30.1435547 3.296875,30.1435547 3.296875,30.1435547 C3.43424479,30.1435547 3.50292969,30.1435547 3.50292969,30.1435547 Z M34.4111328,16.75 C34.5485026,16.75 34.6858724,16.75 34.8232422,16.75 C34.960612,16.75 35.0292969,16.8186849 35.0292969,16.9560547 C35.1666667,17.0934245 35.2353516,17.1621094 35.2353516,17.1621094 C35.2353516,17.2994792 35.2353516,17.436849 35.2353516,17.5742188 C35.2353516,17.7115885 35.2353516,17.8489583 35.2353516,17.9863281 C35.2353516,18.1236979 35.1666667,18.1923828 35.0292969,18.1923828 C34.8919271,18.3297526 34.8232422,18.3984375 34.8232422,18.3984375 C34.6858724,18.3984375 34.5485026,18.3984375 34.4111328,18.3984375 C33.7242839,18.3984375 33.0374349,18.3984375 32.3505859,18.3984375 C31.5263672,18.3984375 30.7708333,18.3984375 30.0839844,18.3984375 C29.3971354,18.3984375 28.7102865,18.3984375 28.0234375,18.3984375 C27.3365885,18.3984375 26.5810547,18.3984375 25.7568359,18.3984375 C25.7568359,18.3984375 25.688151,18.3984375 25.5507812,18.3984375 C25.5507812,18.3984375 25.5507812,18.3984375 25.5507812,18.3984375 C25.4134115,18.3984375 25.3447266,18.3984375 25.3447266,18.3984375 C25.2073568,18.2610677 25.1386719,18.1923828 25.1386719,18.1923828 C25.1386719,18.1923828 25.1386719,18.1236979 25.1386719,17.9863281 C25.0013021,17.9863281 24.9326172,17.9863281 24.9326172,17.9863281 C24.9326172,17.8489583 24.9326172,17.7802734 24.9326172,17.7802734 C24.9326172,17.7802734 24.9326172,17.7115885 24.9326172,17.5742188 C24.9326172,17.5742188 24.9326172,17.5742188 24.9326172,17.5742188 C24.9326172,17.5742188 24.9326172,17.5742188 24.9326172,17.5742188 C24.9326172,17.436849 24.9326172,17.2994792 24.9326172,17.1621094 C25.069987,16.8873698 25.1386719,16.5439453 25.1386719,16.1318359 C25.2760417,15.7197266 25.4820964,15.3076172 25.7568359,14.8955078 C25.8942057,14.4833984 26.1689453,14.0026042 26.5810547,13.453125 C26.7184245,13.1783854 26.8557943,12.9036458 26.9931641,12.6289062 C27.2679036,12.3541667 27.5426432,12.0794271 27.8173828,11.8046875 C28.0921224,11.5299479 28.366862,11.2552083 28.6416016,10.9804688 C29.0537109,10.7057292 29.3971354,10.4309896 29.671875,10.15625 C30.4960938,9.74414062 31.1829427,9.33203125 31.7324219,8.91992188 C32.1445312,8.5078125 32.4879557,8.09570312 32.7626953,7.68359375 C32.9000651,7.40885417 33.0374349,7.06542969 33.1748047,6.65332031 C33.3121745,6.37858073 33.3808594,6.10384115 33.3808594,5.82910156 C33.3808594,5.69173177 33.3808594,5.62304688 33.3808594,5.62304688 C33.3808594,5.48567708 33.3121745,5.34830729 33.1748047,5.2109375 C33.1748047,5.2109375 33.1748047,5.1422526 33.1748047,5.00488281 C33.1748047,4.86751302 33.1748047,4.73014323 33.1748047,4.59277344 C33.0374349,4.45540365 32.9000651,4.31803385 32.7626953,4.18066406 C32.6253255,3.90592448 32.4192708,3.69986979 32.1445312,3.5625 C32.0071615,3.42513021 31.7324219,3.35644531 31.3203125,3.35644531 C31.0455729,3.21907552 30.6334635,3.15039062 30.0839844,3.15039062 C29.8092448,3.15039062 29.5345052,3.21907552 29.2597656,3.35644531 C28.985026,3.35644531 28.7102865,3.42513021 28.4355469,3.5625 C28.1608073,3.69986979 27.9547526,3.90592448 27.8173828,4.18066406 C27.680013,4.45540365 27.5426432,4.73014323 27.4052734,5.00488281 C27.2679036,5.00488281 27.1992188,5.07356771 27.1992188,5.2109375 C27.061849,5.34830729 26.9244792,5.41699219 26.7871094,5.41699219 C26.6497396,5.41699219 26.5123698,5.41699219 26.375,5.41699219 C26.375,5.41699219 26.3063151,5.41699219 26.1689453,5.41699219 C26.0315755,5.2796224 25.8942057,5.2109375 25.7568359,5.2109375 C25.7568359,5.07356771 25.7568359,4.93619792 25.7568359,4.79882812 C25.6194661,4.66145833 25.5507812,4.59277344 25.5507812,4.59277344 C25.5507812,4.45540365 25.6194661,4.31803385 25.7568359,4.18066406 C25.8942057,3.76855469 26.1002604,3.35644531 26.375,2.94433594 C26.6497396,2.66959635 26.9931641,2.39485677 27.4052734,2.12011719 C27.8173828,1.8453776 28.2294922,1.63932292 28.6416016,1.50195312 C29.1910807,1.50195312 29.671875,1.50195312 30.0839844,1.50195312 C31.0455729,1.50195312 31.8697917,1.57063802 32.5566406,1.70800781 C33.1061198,1.9827474 33.5869141,2.32617188 33.9990234,2.73828125 C34.4111328,3.28776042 34.6858724,3.83723958 34.8232422,4.38671875 C34.960612,4.79882812 35.0292969,5.2796224 35.0292969,5.82910156 C35.0292969,6.37858073 34.960612,6.9280599 34.8232422,7.47753906 C34.6858724,7.88964844 34.4111328,8.37044271 33.9990234,8.91992188 C33.7242839,9.33203125 33.3121745,9.81282552 32.7626953,10.3623047 C32.2132161,10.7744141 31.5263672,11.2552083 30.7021484,11.8046875 C30.1526693,12.2167969 29.6031901,12.6289062 29.0537109,13.0410156 C28.6416016,13.453125 28.2981771,13.8652344 28.0234375,14.2773438 C27.7486979,14.8268229 27.5426432,15.3076172 27.4052734,15.7197266 C27.1305339,15.9944661 26.9931641,16.3378906 26.9931641,16.75 C27.8173828,16.75 28.8476562,16.75 30.0839844,16.75 C31.3203125,16.75 32.7626953,16.75 34.4111328,16.75 Z" transform="translate(-6)"/></svg>