<svg xmlns="http://www.w3.org/2000/svg" width="207" height="207" viewBox="0 0 207 207"><path fill="#131313" d="M146.966797,77.2109375 C150.710286,94.7304688 151.533854,110.752604 149.4375,125.277344 C147.341146,139.802083 142.32487,151.93099 134.388672,161.664062 C129.447266,167.953125 123.607422,172.744792 116.869141,176.039062 C110.130859,179.333333 103.018229,180.980469 95.53125,180.980469 C88.6432292,180.980469 78.2363281,180.980469 64.3105469,180.980469 C63.7115885,180.980469 63.1126302,180.980469 62.5136719,180.980469 C62.0644531,180.830729 61.6152344,180.68099 61.1660156,180.53125 C59.6686198,179.782552 58.4707031,178.734375 57.5722656,177.386719 C56.5240885,176.039062 56,174.541667 56,172.894531 C56,142.048177 56,95.7786458 56,34.0859375 C56,31.8398438 56.8235677,29.8932292 58.4707031,28.2460938 C60.1178385,26.7486979 62.0644531,26 64.3105469,26 C64.7597656,26 65.2838542,26 65.8828125,26 C66.3320312,26.1497396 66.8561198,26.2994792 67.4550781,26.4492188 C71.797526,26.1497396 76.7389323,26.1497396 82.2792969,26.4492188 C87.6699219,26.7486979 93.2102865,27.5722656 98.9003906,28.9199219 C109.232422,31.6152344 119.040365,36.6315104 128.324219,43.96875 C137.608073,51.4557292 143.822266,62.5364583 146.966797,77.2109375 Z M121.414062,152.010417 C125.007812,147.518229 128.526693,139.656901 131.970703,128.426432 C135.564453,117.195964 135.115234,101.398438 130.623047,81.0338542 C128.227214,69.3541667 123.360677,60.8938802 116.023438,55.6529948 C108.686198,50.2623698 101.199219,46.7434896 93.5625,45.0963542 C89.3697917,44.0481771 85.4016927,43.4492188 81.6582031,43.2994792 C77.9147135,43 74.6953125,42.9251302 72,43.0748698 C72,70.1777344 72,110.906901 72,165.26237 C77.0911458,165.26237 84.8027344,165.26237 95.1347656,165.26237 C100.076172,165.26237 104.867839,164.139323 109.509766,161.893229 C114.001953,159.497396 117.970052,156.203125 121.414062,152.010417 Z M49.3164062,43.5527344 C49.3164062,43.5527344 49.3164062,43.5527344 49.3164062,43.5527344 C49.1666667,43.5527344 49.0917969,43.5527344 49.0917969,43.5527344 C49.0917969,43.5527344 49.1666667,43.5527344 49.3164062,43.5527344 C49.3164062,43.5527344 49.3164062,43.5527344 49.3164062,43.5527344 Z M42.8027344,43.5527344 C42.8027344,43.5527344 42.8027344,43.5527344 42.8027344,43.5527344 C42.8027344,43.5527344 42.7278646,43.4778646 42.578125,43.328125 C42.7278646,43.4778646 42.8027344,43.5527344 42.8027344,43.5527344 C42.8027344,43.5527344 42.8027344,43.5527344 42.8027344,43.5527344 Z M42.3535156,43.1035156 C42.3535156,43.1035156 42.2786458,43.0286458 42.1289062,42.8789062 C42.1289062,42.8789062 42.1289062,42.8789062 42.1289062,42.8789062 C42.1289062,42.8789062 42.1289062,42.8789062 42.1289062,42.8789062 C42.2786458,43.0286458 42.3535156,43.1035156 42.3535156,43.1035156 Z M50.8886719,39.9589844 C50.8886719,40.108724 50.8886719,40.2584635 50.8886719,40.4082031 C50.8886719,40.5579427 50.8886719,40.7076823 50.8886719,40.8574219 C50.8886719,40.7076823 50.8886719,40.5579427 50.8886719,40.4082031 C50.8886719,40.2584635 50.8886719,40.108724 50.8886719,39.9589844 Z M50.6640625,41.0820312 C50.6640625,41.2317708 50.6640625,41.3066406 50.6640625,41.3066406 C50.6640625,41.4563802 50.6640625,41.6061198 50.6640625,41.7558594 C50.6640625,41.6061198 50.6640625,41.4563802 50.6640625,41.3066406 C50.6640625,41.3066406 50.6640625,41.2317708 50.6640625,41.0820312 Z M49.9902344,42.8789062 C49.8404948,42.8789062 49.765625,42.8789062 49.765625,42.8789062 C49.765625,43.0286458 49.765625,43.1035156 49.765625,43.1035156 C49.765625,43.1035156 49.765625,43.0286458 49.765625,42.8789062 C49.765625,42.8789062 49.8404948,42.8789062 49.9902344,42.8789062 Z M50.4394531,41.9804688 C50.4394531,42.1302083 50.3645833,42.2050781 50.2148438,42.2050781 C50.2148438,42.2050781 50.2148438,42.2799479 50.2148438,42.4296875 C50.2148438,42.2799479 50.2148438,42.2050781 50.2148438,42.2050781 C50.3645833,42.2050781 50.4394531,42.1302083 50.4394531,41.9804688 Z M41.9042969,42.4296875 C41.7545573,42.2799479 41.6796875,42.2050781 41.6796875,42.2050781 C41.6796875,42.2050781 41.6796875,42.1302083 41.6796875,41.9804688 C41.6796875,42.1302083 41.6796875,42.2050781 41.6796875,42.2050781 C41.6796875,42.2050781 41.7545573,42.2799479 41.9042969,42.4296875 Z M41.2304688,41.0820312 C41.2304688,41.2317708 41.3053385,41.3066406 41.4550781,41.3066406 C41.4550781,41.4563802 41.4550781,41.53125 41.4550781,41.53125 C41.4550781,41.53125 41.4550781,41.4563802 41.4550781,41.3066406 C41.3053385,41.3066406 41.2304688,41.2317708 41.2304688,41.0820312 Z M41.0058594,39.9589844 C41.0058594,40.108724 41.0058594,40.2584635 41.0058594,40.4082031 C41.155599,40.5579427 41.2304688,40.7076823 41.2304688,40.8574219 C41.2304688,40.7076823 41.155599,40.5579427 41.0058594,40.4082031 C41.0058594,40.2584635 41.0058594,40.108724 41.0058594,39.9589844 Z M85.0292969,16.5996094 C101.500651,18.0970052 115.725911,22.9635417 127.705078,31.1992188 C139.833984,39.4348958 148.51888,50.2910156 153.759766,63.7675781 C153.310547,63.9173177 152.561849,64.1419271 151.513672,64.4414062 C146.422526,51.4140625 138.037109,40.9322917 126.357422,32.9960938 C114.677734,25.0598958 100.826823,20.343099 84.8046875,18.8457031 C84.8046875,18.6959635 84.8795573,18.546224 85.0292969,18.3964844 C85.0292969,18.0970052 85.0292969,17.8723958 85.0292969,17.7226562 C85.0292969,17.4231771 85.0292969,17.1985677 85.0292969,17.0488281 C85.0292969,16.8990885 85.0292969,16.749349 85.0292969,16.5996094 Z M80.0878906,21.765625 C80.9863281,21.765625 81.8098958,21.5410156 82.5585938,21.0917969 C83.3072917,20.4928385 83.8313802,19.7441406 84.1308594,18.8457031 C84.280599,18.8457031 84.3554688,18.8457031 84.3554688,18.8457031 C84.5052083,18.8457031 84.6549479,18.8457031 84.8046875,18.8457031 C84.5052083,19.8938802 83.90625,20.7923177 83.0078125,21.5410156 C82.109375,22.139974 81.0611979,22.4394531 79.8632812,22.4394531 C78.515625,22.4394531 77.3925781,21.9153646 76.4941406,20.8671875 C75.5957031,19.8190104 75.1464844,18.6210938 75.1464844,17.2734375 C75.1464844,15.9257812 75.6705729,14.8027344 76.71875,13.9042969 C77.7669271,13.0058594 78.9648438,12.5566406 80.3125,12.5566406 C81.5104167,12.5566406 82.483724,13.0058594 83.2324219,13.9042969 C84.1308594,14.6529948 84.7298177,15.5514323 85.0292969,16.5996094 C84.8795573,16.5996094 84.7298177,16.5996094 84.5800781,16.5996094 C84.5800781,16.5996094 84.5052083,16.5996094 84.3554688,16.5996094 C84.2057292,15.7011719 83.7565104,14.8776042 83.0078125,14.1289062 C82.109375,13.5299479 81.2109375,13.2304688 80.3125,13.2304688 C79.1145833,13.0807292 78.0664062,13.4550781 77.1679688,14.3535156 C76.2695312,15.1022135 75.8203125,16.0755208 75.8203125,17.2734375 C75.8203125,18.4713542 76.1946615,19.5195312 76.9433594,20.4179688 C77.8417969,21.3164062 78.889974,21.765625 80.0878906,21.765625 Z M80.3125,22.4394531 C80.3125,22.4394531 80.2376302,22.4394531 80.0878906,22.4394531 C80.0878906,22.4394531 80.0878906,22.4394531 80.0878906,22.4394531 C80.0878906,22.4394531 80.0878906,22.4394531 80.0878906,22.4394531 C80.2376302,22.4394531 80.3125,22.4394531 80.3125,22.4394531 Z M85.0292969,16.5996094 C85.0292969,16.749349 85.0292969,16.8990885 85.0292969,17.0488281 C85.0292969,17.1985677 85.0292969,17.3483073 85.0292969,17.4980469 C85.0292969,17.797526 85.0292969,18.0970052 85.0292969,18.3964844 C84.8795573,18.546224 84.8046875,18.6959635 84.8046875,18.8457031 C84.6549479,18.8457031 84.5800781,18.8457031 84.5800781,18.8457031 C84.4303385,18.8457031 84.280599,18.8457031 84.1308594,18.8457031 C84.280599,18.6959635 84.3554688,18.4713542 84.3554688,18.171875 C84.3554688,18.0221354 84.3554688,17.797526 84.3554688,17.4980469 C84.3554688,17.3483073 84.3554688,17.1985677 84.3554688,17.0488281 C84.3554688,16.8990885 84.3554688,16.749349 84.3554688,16.5996094 C84.5052083,16.5996094 84.5800781,16.5996094 84.5800781,16.5996094 C84.7298177,16.5996094 84.8795573,16.5996094 85.0292969,16.5996094 Z M80.3125,13.2304687 C81.2109375,13.2304687 82.109375,13.5299479 83.0078125,14.1289062 C83.7565104,14.8776042 84.2057292,15.7011719 84.3554688,16.5996094 C84.2057292,16.5996094 84.1308594,16.5996094 84.1308594,16.5996094 C83.9811198,16.5996094 83.8313802,16.5996094 83.6816406,16.5996094 C83.531901,15.7011719 83.1575521,15.0273437 82.5585938,14.578125 C81.8098958,13.9791667 81.0611979,13.6796875 80.3125,13.6796875 C80.3125,13.6796875 80.3873698,13.6796875 80.5371094,13.6796875 C80.5371094,13.6796875 80.6119792,13.6796875 80.7617188,13.6796875 C80.6119792,13.6796875 80.5371094,13.6796875 80.5371094,13.6796875 C80.3873698,13.6796875 80.3125,13.6796875 80.3125,13.6796875 C80.1627604,13.6796875 80.0130208,13.6796875 79.8632812,13.6796875 C79.8632812,13.6796875 79.7884115,13.6796875 79.6386719,13.6796875 C79.6386719,13.6796875 79.6386719,13.6796875 79.6386719,13.6796875 C79.6386719,13.6796875 79.6386719,13.6796875 79.6386719,13.6796875 C79.6386719,13.6796875 79.6386719,13.6796875 79.6386719,13.6796875 C79.6386719,13.6796875 79.6386719,13.6796875 79.6386719,13.6796875 C79.7884115,13.6796875 79.8632812,13.6796875 79.8632812,13.6796875 C80.0130208,13.6796875 80.1627604,13.6796875 80.3125,13.6796875 C79.2643229,13.6796875 78.3658854,14.0540365 77.6171875,14.8027344 C76.8684896,15.4016927 76.4192708,16.2252604 76.2695312,17.2734375 C76.2695312,18.3216146 76.6438802,19.2200521 77.3925781,19.96875 C78.141276,20.7174479 79.0397135,21.0917969 80.0878906,21.0917969 C80.8365885,21.2415365 81.5104167,21.0917969 82.109375,20.6425781 C82.8580729,20.1933594 83.3072917,19.594401 83.4570312,18.8457031 C83.6067708,18.8457031 83.7565104,18.8457031 83.90625,18.8457031 C83.90625,18.8457031 83.9811198,18.8457031 84.1308594,18.8457031 C83.8313802,19.7441406 83.3072917,20.4179687 82.5585938,20.8671875 C81.8098958,21.4661458 80.9863281,21.765625 80.0878906,21.765625 C78.889974,21.765625 77.8417969,21.3164062 76.9433594,20.4179687 C76.1946615,19.5195312 75.8203125,18.4713542 75.8203125,17.2734375 C75.8203125,16.0755208 76.2695312,15.1022135 77.1679688,14.3535156 C78.0664062,13.4550781 79.1145833,13.0807292 80.3125,13.2304687 Z M79.8632812,13.6796875 C79.8632812,13.6796875 79.8632812,13.6796875 79.8632812,13.6796875 C80.0130208,13.6796875 80.1627604,13.6796875 80.3125,13.6796875 C80.1627604,13.6796875 80.0130208,13.6796875 79.8632812,13.6796875 C79.8632812,13.6796875 79.8632812,13.6796875 79.8632812,13.6796875 Z M83.90625,17.4980469 C83.90625,17.3483073 83.90625,17.1985677 83.90625,17.0488281 C83.90625,16.8990885 83.8313802,16.749349 83.6816406,16.5996094 C83.8313802,16.5996094 83.9811198,16.5996094 84.1308594,16.5996094 C84.1308594,16.5996094 84.2057292,16.5996094 84.3554688,16.5996094 C84.3554688,16.749349 84.3554688,16.8990885 84.3554688,17.0488281 C84.3554688,17.1985677 84.3554688,17.3483073 84.3554688,17.4980469 C84.3554688,17.797526 84.3554688,18.0221354 84.3554688,18.171875 C84.3554688,18.4713542 84.280599,18.6959635 84.1308594,18.8457031 C84.1308594,18.8457031 84.0559896,18.8457031 83.90625,18.8457031 C83.7565104,18.8457031 83.6816406,18.8457031 83.6816406,18.8457031 C83.6816406,18.6959635 83.6816406,18.4713542 83.6816406,18.171875 C83.8313802,18.0221354 83.90625,17.797526 83.90625,17.4980469 Z M156.230469,75.8964844 C154.733073,73.500651 152.486979,69.906901 149.492188,65.1152344 C149.941406,64.9654948 150.615234,64.7408854 151.513672,64.4414062 C151.663411,64.7408854 151.813151,65.1152344 151.962891,65.5644531 C152.11263,65.8639323 152.26237,66.1634115 152.412109,66.4628906 C152.861328,66.313151 153.610026,66.0885417 154.658203,65.7890625 C154.508464,65.4895833 154.358724,65.1152344 154.208984,64.6660156 C154.059245,64.3665365 153.909505,64.0670573 153.759766,63.7675781 C154.208984,63.6178385 154.957682,63.3932292 156.005859,63.09375 C156.005859,65.1901042 156.005859,67.3613281 156.005859,69.6074219 C156.155599,71.703776 156.230469,73.8001302 156.230469,75.8964844 Z M154.658203,65.7890625 C154.208984,65.9388021 153.460286,66.1634115 152.412109,66.4628906 C152.26237,66.1634115 152.11263,65.8639323 151.962891,65.5644531 C151.813151,65.1152344 151.663411,64.7408854 151.513672,64.4414062 C151.962891,64.2916667 152.711589,64.0670573 153.759766,63.7675781 C153.909505,64.0670573 154.059245,64.3665365 154.208984,64.6660156 C154.358724,65.1152344 154.508464,65.4895833 154.658203,65.7890625 Z M44.8242188,161.472656 C45.2734375,161.472656 46.0221354,161.472656 47.0703125,161.472656 C47.0703125,135.417969 47.0703125,96.4856771 47.0703125,44.6757812 C46.9205729,44.6757812 46.7708333,44.6757812 46.6210938,44.6757812 C46.3216146,44.6757812 46.0970052,44.6757812 45.9472656,44.6757812 C45.797526,44.6757812 45.6477865,44.6757812 45.4980469,44.6757812 C45.1985677,44.6757812 44.9739583,44.6757812 44.8242188,44.6757812 C44.8242188,64.1419271 44.8242188,83.6080729 44.8242188,103.074219 C44.8242188,122.540365 44.8242188,142.00651 44.8242188,161.472656 Z M47.0703125,163.71875 C47.0703125,163.119792 47.0703125,162.371094 47.0703125,161.472656 C47.6692708,161.472656 48.4179688,161.472656 49.3164062,161.472656 C48.5677083,164.167969 47.4446615,168.285807 45.9472656,173.826172 C45.1985677,171.130859 44.0755208,167.013021 42.578125,161.472656 C43.1770833,161.472656 43.9257812,161.472656 44.8242188,161.472656 C44.8242188,161.921875 44.8242188,162.670573 44.8242188,163.71875 C45.2734375,163.71875 46.0221354,163.71875 47.0703125,163.71875 Z M44.8242188,163.71875 C45.2734375,163.71875 46.0221354,163.71875 47.0703125,163.71875 C47.0703125,163.119792 47.0703125,162.371094 47.0703125,161.472656 C46.6210938,161.472656 45.8723958,161.472656 44.8242188,161.472656 C44.8242188,161.921875 44.8242188,162.670573 44.8242188,163.71875 Z M49.765625,43.1035156 C49.6158854,43.1035156 49.5410156,43.1783854 49.5410156,43.328125 C49.391276,43.328125 49.3164062,43.4029948 49.3164062,43.5527344 C49.3164062,43.4029948 49.391276,43.328125 49.5410156,43.328125 C49.5410156,43.1783854 49.6158854,43.1035156 49.765625,43.1035156 Z M41.2304688,41.0820312 C41.2304688,41.0820312 41.2304688,41.0071615 41.2304688,40.8574219 C41.2304688,40.8574219 41.2304688,40.8574219 41.2304688,40.8574219 C41.2304688,40.8574219 41.2304688,40.8574219 41.2304688,40.8574219 C41.2304688,41.0071615 41.2304688,41.0820312 41.2304688,41.0820312 Z M50.4394531,41.53125 C50.4394531,41.6809896 50.4394531,41.7558594 50.4394531,41.7558594 C50.4394531,41.905599 50.4394531,41.9804688 50.4394531,41.9804688 C50.4394531,41.9804688 50.4394531,41.905599 50.4394531,41.7558594 C50.4394531,41.7558594 50.4394531,41.6809896 50.4394531,41.53125 Z M50.2148438,42.4296875 C50.0651042,42.4296875 49.9902344,42.5045573 49.9902344,42.6542969 C49.9902344,42.6542969 49.9902344,42.7291667 49.9902344,42.8789062 C49.9902344,42.7291667 49.9902344,42.6542969 49.9902344,42.6542969 C49.9902344,42.5045573 50.0651042,42.4296875 50.2148438,42.4296875 Z M42.8027344,43.5527344 C43.1022135,43.8522135 43.4016927,44.0768229 43.7011719,44.2265625 C44.1503906,44.3763021 44.5247396,44.5260417 44.8242188,44.6757812 C44.5247396,44.5260417 44.1503906,44.3763021 43.7011719,44.2265625 C43.4016927,44.0768229 43.1022135,43.8522135 42.8027344,43.5527344 Z M41.6796875,41.9804688 C41.5299479,41.9804688 41.4550781,41.905599 41.4550781,41.7558594 C41.4550781,41.7558594 41.4550781,41.7558594 41.4550781,41.7558594 C41.4550781,41.7558594 41.4550781,41.7558594 41.4550781,41.7558594 C41.4550781,41.905599 41.5299479,41.9804688 41.6796875,41.9804688 Z M42.578125,43.5527344 C42.578125,43.4029948 42.578125,43.328125 42.578125,43.328125 C42.4283854,43.1783854 42.3535156,43.1035156 42.3535156,43.1035156 C42.3535156,43.1035156 42.4283854,43.1783854 42.578125,43.328125 C42.578125,43.328125 42.578125,43.4029948 42.578125,43.5527344 Z M47.0703125,44.6757812 C47.5195312,44.5260417 47.8938802,44.3763021 48.1933594,44.2265625 C48.4928385,44.0768229 48.7923177,43.8522135 49.0917969,43.5527344 C48.7923177,43.8522135 48.4928385,44.0768229 48.1933594,44.2265625 C47.8938802,44.3763021 47.5195312,44.5260417 47.0703125,44.6757812 Z M50.8886719,40.8574219 C50.8886719,40.8574219 50.8138021,40.8574219 50.6640625,40.8574219 C50.6640625,41.0071615 50.6640625,41.0820312 50.6640625,41.0820312 C50.6640625,41.0820312 50.6640625,41.0071615 50.6640625,40.8574219 C50.8138021,40.8574219 50.8886719,40.8574219 50.8886719,40.8574219 Z M42.1289062,42.8789062 C41.9791667,42.7291667 41.9042969,42.6542969 41.9042969,42.6542969 C41.9042969,42.5045573 41.9042969,42.4296875 41.9042969,42.4296875 C41.9042969,42.4296875 41.9042969,42.5045573 41.9042969,42.6542969 C41.9042969,42.6542969 41.9791667,42.7291667 42.1289062,42.8789062 Z M41.0058594,39.9589844 C41.0058594,40.108724 41.0058594,40.2584635 41.0058594,40.4082031 C41.155599,40.5579427 41.2304688,40.7076823 41.2304688,40.8574219 C41.2304688,40.8574219 41.2304688,40.8574219 41.2304688,40.8574219 C41.2304688,41.0071615 41.2304688,41.0820312 41.2304688,41.0820312 C41.2304688,41.2317708 41.3053385,41.3066406 41.4550781,41.3066406 C41.4550781,41.4563802 41.4550781,41.53125 41.4550781,41.53125 C41.4550781,41.6809896 41.4550781,41.7558594 41.4550781,41.7558594 C41.4550781,41.905599 41.5299479,41.9804688 41.6796875,41.9804688 C41.6796875,41.9804688 41.6796875,42.0553385 41.6796875,42.2050781 C41.6796875,42.2050781 41.7545573,42.2799479 41.9042969,42.4296875 C41.9042969,42.4296875 41.9042969,42.5045573 41.9042969,42.6542969 C41.9042969,42.6542969 41.9791667,42.6542969 42.1289062,42.6542969 C42.1289062,42.8040365 42.1289062,42.8789062 42.1289062,42.8789062 C42.2786458,42.8789062 42.3535156,42.953776 42.3535156,43.1035156 C42.3535156,43.1035156 42.4283854,43.1783854 42.578125,43.328125 C42.578125,43.328125 42.578125,43.328125 42.578125,43.328125 C42.7278646,43.4778646 42.8027344,43.5527344 42.8027344,43.5527344 C42.8027344,43.5527344 42.8027344,43.5527344 42.8027344,43.5527344 C43.1022135,43.8522135 43.4016927,44.0768229 43.7011719,44.2265625 C44.1503906,44.3763021 44.5247396,44.5260417 44.8242188,44.6757812 C44.8242188,44.5260417 44.8242188,44.3014323 44.8242188,44.0019531 C44.375,43.8522135 44.000651,43.6276042 43.7011719,43.328125 C43.2519531,43.1783854 42.8776042,42.8789062 42.578125,42.4296875 C42.578125,42.4296875 42.578125,42.4296875 42.578125,42.4296875 C42.578125,42.4296875 42.578125,42.4296875 42.578125,42.4296875 C42.4283854,42.2799479 42.2786458,42.1302083 42.1289062,41.9804688 C42.1289062,41.6809896 42.0540365,41.4563802 41.9042969,41.3066406 C41.9042969,41.3066406 41.9042969,41.3066406 41.9042969,41.3066406 C41.9042969,41.156901 41.9042969,41.0820312 41.9042969,41.0820312 C41.7545573,40.9322917 41.6796875,40.7076823 41.6796875,40.4082031 C41.6796875,40.2584635 41.6796875,40.0338542 41.6796875,39.734375 C41.6796875,38.5364583 42.1289062,37.563151 43.0273438,36.8144531 C43.7760417,35.9160156 44.749349,35.4667969 45.9472656,35.4667969 C47.1451823,35.4667969 48.1933594,35.9160156 49.0917969,36.8144531 C49.8404948,37.563151 50.2148438,38.5364583 50.2148438,39.734375 C50.2148438,40.0338542 50.2148438,40.2584635 50.2148438,40.4082031 C50.2148438,40.7076823 50.2148438,40.9322917 50.2148438,41.0820312 C50.0651042,41.0820312 49.9902344,41.156901 49.9902344,41.3066406 C49.9902344,41.3066406 49.9902344,41.3066406 49.9902344,41.3066406 C49.9902344,41.4563802 49.9153646,41.6809896 49.765625,41.9804688 C49.6158854,42.1302083 49.5410156,42.2799479 49.5410156,42.4296875 C49.391276,42.4296875 49.3164062,42.4296875 49.3164062,42.4296875 C49.3164062,42.4296875 49.3164062,42.4296875 49.3164062,42.4296875 C49.0169271,42.8789062 48.7174479,43.1783854 48.4179688,43.328125 C47.96875,43.6276042 47.5195312,43.8522135 47.0703125,44.0019531 C47.0703125,44.1516927 47.0703125,44.2265625 47.0703125,44.2265625 C47.0703125,44.3763021 47.0703125,44.5260417 47.0703125,44.6757812 C47.5195312,44.5260417 47.8938802,44.3763021 48.1933594,44.2265625 C48.4928385,44.0768229 48.7923177,43.8522135 49.0917969,43.5527344 C49.0917969,43.5527344 49.0917969,43.5527344 49.0917969,43.5527344 C49.2415365,43.5527344 49.3164062,43.4778646 49.3164062,43.328125 C49.3164062,43.328125 49.391276,43.328125 49.5410156,43.328125 C49.5410156,43.1783854 49.5410156,43.1035156 49.5410156,43.1035156 C49.6907552,42.953776 49.765625,42.8789062 49.765625,42.8789062 C49.765625,42.8789062 49.8404948,42.8040365 49.9902344,42.6542969 C49.9902344,42.6542969 49.9902344,42.6542969 49.9902344,42.6542969 C49.9902344,42.5045573 50.0651042,42.4296875 50.2148438,42.4296875 C50.2148438,42.2799479 50.2148438,42.2050781 50.2148438,42.2050781 C50.3645833,42.0553385 50.4394531,41.9804688 50.4394531,41.9804688 C50.4394531,41.9804688 50.4394531,41.905599 50.4394531,41.7558594 C50.4394531,41.7558594 50.4394531,41.6809896 50.4394531,41.53125 C50.5891927,41.53125 50.6640625,41.4563802 50.6640625,41.3066406 C50.6640625,41.3066406 50.6640625,41.2317708 50.6640625,41.0820312 C50.6640625,41.0820312 50.6640625,41.0071615 50.6640625,40.8574219 C50.8138021,40.8574219 50.8886719,40.8574219 50.8886719,40.8574219 C50.8886719,40.7076823 50.8886719,40.5579427 50.8886719,40.4082031 C50.8886719,40.2584635 50.8886719,40.108724 50.8886719,39.9589844 C50.8886719,38.6113281 50.4394531,37.4134115 49.5410156,36.3652344 C48.4928385,35.4667969 47.2949219,35.0175781 45.9472656,35.0175781 C44.5996094,35.0175781 43.4765625,35.4667969 42.578125,36.3652344 C41.5299479,37.4134115 41.0058594,38.6113281 41.0058594,39.9589844 Z M42.578125,42.4296875 C42.578125,42.4296875 42.578125,42.4296875 42.578125,42.4296875 C42.578125,42.4296875 42.578125,42.5045573 42.578125,42.6542969 C42.578125,42.5045573 42.578125,42.4296875 42.578125,42.4296875 C42.578125,42.4296875 42.578125,42.4296875 42.578125,42.4296875 Z M49.5410156,42.4296875 C49.391276,42.4296875 49.3164062,42.4296875 49.3164062,42.4296875 C49.3164062,42.4296875 49.3164062,42.5045573 49.3164062,42.6542969 C49.3164062,42.5045573 49.3164062,42.4296875 49.3164062,42.4296875 C49.3164062,42.4296875 49.391276,42.4296875 49.5410156,42.4296875 Z M50.2148438,41.0820312 C50.0651042,41.2317708 49.9902344,41.3066406 49.9902344,41.3066406 C49.9902344,41.3066406 49.9902344,41.3066406 49.9902344,41.3066406 C49.9902344,41.3066406 49.9902344,41.3066406 49.9902344,41.3066406 C49.9902344,41.3066406 50.0651042,41.2317708 50.2148438,41.0820312 Z M41.9042969,41.0820312 C41.9042969,41.2317708 41.9042969,41.3066406 41.9042969,41.3066406 C41.9042969,41.3066406 41.9042969,41.3066406 41.9042969,41.3066406 C41.9042969,41.3066406 41.9042969,41.3066406 41.9042969,41.3066406 C41.9042969,41.3066406 41.9042969,41.2317708 41.9042969,41.0820312 Z M44.8242188,44.6757812 C44.9739583,44.6757812 45.1985677,44.6757812 45.4980469,44.6757812 C45.6477865,44.6757812 45.797526,44.6757812 45.9472656,44.6757812 C45.797526,44.6757812 45.6477865,44.6757812 45.4980469,44.6757812 C45.1985677,44.6757812 44.9739583,44.6757812 44.8242188,44.6757812 Z M45.9472656,44.6757812 C46.0970052,44.6757812 46.3216146,44.6757812 46.6210938,44.6757812 C46.7708333,44.6757812 46.9205729,44.6757812 47.0703125,44.6757812 C46.9205729,44.6757812 46.7708333,44.6757812 46.6210938,44.6757812 C46.3216146,44.6757812 46.0970052,44.6757812 45.9472656,44.6757812 Z M47.0703125,44.0019531 C46.9205729,44.0019531 46.7708333,44.0768229 46.6210938,44.2265625 C46.3216146,44.2265625 46.0970052,44.2265625 45.9472656,44.2265625 C45.797526,44.2265625 45.6477865,44.2265625 45.4980469,44.2265625 C45.1985677,44.0768229 44.9739583,44.0019531 44.8242188,44.0019531 C44.8242188,44.1516927 44.8242188,44.2265625 44.8242188,44.2265625 C44.8242188,44.3763021 44.8242188,44.5260417 44.8242188,44.6757812 C44.9739583,44.6757812 45.1985677,44.6757812 45.4980469,44.6757812 C45.6477865,44.6757812 45.797526,44.6757812 45.9472656,44.6757812 C46.0970052,44.6757812 46.3216146,44.6757812 46.6210938,44.6757812 C46.7708333,44.6757812 46.9205729,44.6757812 47.0703125,44.6757812 C47.0703125,44.5260417 47.0703125,44.3763021 47.0703125,44.2265625 C47.0703125,44.2265625 47.0703125,44.1516927 47.0703125,44.0019531 Z M49.5410156,41.0820312 C49.5410156,41.0820312 49.5410156,41.0820312 49.5410156,41.0820312 C49.5410156,41.0820312 49.5410156,41.0071615 49.5410156,40.8574219 C49.5410156,41.0071615 49.5410156,41.0820312 49.5410156,41.0820312 C49.5410156,41.0820312 49.5410156,41.0820312 49.5410156,41.0820312 Z M49.0917969,42.2050781 C49.0917969,42.2050781 49.0917969,42.1302083 49.0917969,41.9804688 C49.0917969,41.9804688 49.0917969,41.9804688 49.0917969,41.9804688 C49.0917969,41.9804688 49.0917969,41.9804688 49.0917969,41.9804688 C49.0917969,42.1302083 49.0917969,42.2050781 49.0917969,42.2050781 Z M42.578125,41.0820312 C42.4283854,41.0820312 42.3535156,41.0820312 42.3535156,41.0820312 C42.3535156,41.0820312 42.3535156,41.0071615 42.3535156,40.8574219 C42.3535156,41.0071615 42.3535156,41.0820312 42.3535156,41.0820312 C42.3535156,41.0820312 42.4283854,41.0820312 42.578125,41.0820312 Z M43.0273438,42.2050781 C43.0273438,42.2050781 43.0273438,42.1302083 43.0273438,41.9804688 C43.0273438,41.9804688 43.0273438,41.9804688 43.0273438,41.9804688 C43.0273438,41.9804688 43.0273438,41.9804688 43.0273438,41.9804688 C43.0273438,42.1302083 43.0273438,42.2050781 43.0273438,42.2050781 Z M50.2148438,39.9589844 C50.2148438,40.108724 50.2148438,40.3333333 50.2148438,40.6328125 C50.2148438,40.7825521 50.2148438,40.9322917 50.2148438,41.0820312 C50.2148438,40.9322917 50.2148438,40.7825521 50.2148438,40.6328125 C50.2148438,40.3333333 50.2148438,40.108724 50.2148438,39.9589844 Z M49.9902344,41.3066406 C49.9902344,41.6061198 49.9153646,41.8307292 49.765625,41.9804688 C49.6158854,42.1302083 49.5410156,42.2799479 49.5410156,42.4296875 C49.5410156,42.2799479 49.6158854,42.1302083 49.765625,41.9804688 C49.9153646,41.8307292 49.9902344,41.6061198 49.9902344,41.3066406 Z M41.9042969,41.3066406 C42.0540365,41.6061198 42.1289062,41.8307292 42.1289062,41.9804688 C42.2786458,42.1302083 42.4283854,42.2799479 42.578125,42.4296875 C42.4283854,42.2799479 42.2786458,42.1302083 42.1289062,41.9804688 C42.1289062,41.8307292 42.0540365,41.6061198 41.9042969,41.3066406 Z M49.3164062,42.6542969 C49.0169271,42.953776 48.7174479,43.2532552 48.4179688,43.5527344 C47.96875,43.702474 47.5195312,43.8522135 47.0703125,44.0019531 C47.5195312,43.8522135 47.96875,43.702474 48.4179688,43.5527344 C48.7174479,43.2532552 49.0169271,42.953776 49.3164062,42.6542969 Z M41.9042969,41.0820312 C41.7545573,40.9322917 41.6796875,40.7825521 41.6796875,40.6328125 C41.6796875,40.3333333 41.6796875,40.108724 41.6796875,39.9589844 C41.6796875,40.108724 41.6796875,40.3333333 41.6796875,40.6328125 C41.6796875,40.7825521 41.7545573,40.9322917 41.9042969,41.0820312 Z M44.8242188,44.0019531 C44.375,43.8522135 44.000651,43.702474 43.7011719,43.5527344 C43.2519531,43.2532552 42.8776042,42.953776 42.578125,42.6542969 C42.8776042,42.953776 43.2519531,43.2532552 43.7011719,43.5527344 C44.000651,43.702474 44.375,43.8522135 44.8242188,44.0019531 Z M43.0273438,42.2050781 C43.0273438,42.2050781 43.0273438,42.1302083 43.0273438,41.9804688 C43.0273438,41.9804688 43.0273438,41.9804688 43.0273438,41.9804688 C42.8776042,41.8307292 42.8027344,41.6809896 42.8027344,41.53125 C42.6529948,41.3815104 42.578125,41.2317708 42.578125,41.0820312 C42.4283854,41.0820312 42.3535156,41.0820312 42.3535156,41.0820312 C42.3535156,41.0820312 42.3535156,41.0071615 42.3535156,40.8574219 C42.3535156,40.7076823 42.3535156,40.5579427 42.3535156,40.4082031 C42.203776,40.2584635 42.1289062,40.108724 42.1289062,39.9589844 C42.1289062,40.108724 42.1289062,40.1835938 42.1289062,40.1835938 C42.1289062,40.3333333 42.1289062,40.4082031 42.1289062,40.4082031 C42.1289062,40.4082031 42.1289062,40.4082031 42.1289062,40.4082031 C42.1289062,40.2584635 42.1289062,40.108724 42.1289062,39.9589844 C42.1289062,39.6595052 42.1289062,39.5097656 42.1289062,39.5097656 C42.1289062,39.360026 42.1289062,39.2851562 42.1289062,39.2851562 C42.1289062,39.2851562 42.1289062,39.360026 42.1289062,39.5097656 C42.1289062,39.5097656 42.1289062,39.6595052 42.1289062,39.9589844 C42.1289062,38.9108073 42.5032552,38.0123698 43.2519531,37.2636719 C44.000651,36.514974 44.8990885,36.140625 45.9472656,36.140625 C46.9954427,36.140625 47.8938802,36.514974 48.6425781,37.2636719 C49.391276,38.0123698 49.765625,38.9108073 49.765625,39.9589844 C49.765625,40.108724 49.765625,40.2584635 49.765625,40.4082031 C49.6158854,40.5579427 49.5410156,40.7076823 49.5410156,40.8574219 C49.5410156,41.0071615 49.5410156,41.0820312 49.5410156,41.0820312 C49.5410156,41.0820312 49.5410156,41.0820312 49.5410156,41.0820312 C49.391276,41.2317708 49.3164062,41.3815104 49.3164062,41.53125 C49.1666667,41.6809896 49.0917969,41.8307292 49.0917969,41.9804688 C49.0917969,41.9804688 49.0917969,41.9804688 49.0917969,41.9804688 C49.0917969,42.1302083 49.0917969,42.2050781 49.0917969,42.2050781 C48.7923177,42.5045573 48.4928385,42.7291667 48.1933594,42.8789062 C47.8938802,43.1783854 47.5195312,43.328125 47.0703125,43.328125 C47.0703125,43.4778646 47.0703125,43.702474 47.0703125,44.0019531 C47.5195312,43.8522135 47.96875,43.702474 48.4179688,43.5527344 C48.7174479,43.2532552 49.0169271,42.953776 49.3164062,42.6542969 C49.3164062,42.5045573 49.3164062,42.4296875 49.3164062,42.4296875 C49.4661458,42.4296875 49.5410156,42.4296875 49.5410156,42.4296875 C49.5410156,42.2799479 49.6158854,42.1302083 49.765625,41.9804688 C49.9153646,41.8307292 49.9902344,41.6061198 49.9902344,41.3066406 C49.9902344,41.3066406 49.9902344,41.3066406 49.9902344,41.3066406 C50.139974,41.3066406 50.2148438,41.2317708 50.2148438,41.0820312 C50.2148438,40.9322917 50.2148438,40.7825521 50.2148438,40.6328125 C50.3645833,40.3333333 50.4394531,40.108724 50.4394531,39.9589844 C50.4394531,38.7610677 49.9902344,37.7128906 49.0917969,36.8144531 C48.1933594,35.9160156 47.1451823,35.4667969 45.9472656,35.4667969 C44.749349,35.4667969 43.7760417,35.9160156 43.0273438,36.8144531 C42.1289062,37.7128906 41.6796875,38.7610677 41.6796875,39.9589844 C41.6796875,40.108724 41.6796875,40.3333333 41.6796875,40.6328125 C41.8294271,40.7825521 41.9042969,40.9322917 41.9042969,41.0820312 C41.9042969,41.2317708 41.9042969,41.3066406 41.9042969,41.3066406 C41.9042969,41.3066406 41.9042969,41.3066406 41.9042969,41.3066406 C42.0540365,41.6061198 42.1289062,41.8307292 42.1289062,41.9804688 C42.2786458,42.1302083 42.4283854,42.2799479 42.578125,42.4296875 C42.578125,42.4296875 42.578125,42.4296875 42.578125,42.4296875 C42.578125,42.4296875 42.578125,42.5045573 42.578125,42.6542969 C42.8776042,42.953776 43.2519531,43.2532552 43.7011719,43.5527344 C44.000651,43.702474 44.375,43.8522135 44.8242188,44.0019531 C44.8242188,43.8522135 44.8242188,43.7773438 44.8242188,43.7773438 C44.8242188,43.6276042 44.8242188,43.4778646 44.8242188,43.328125 C44.8242188,43.328125 44.8242188,43.328125 44.8242188,43.328125 C44.5247396,43.328125 44.2252604,43.1783854 43.9257812,42.8789062 C43.4765625,42.7291667 43.1770833,42.5045573 43.0273438,42.2050781 Z M47.0703125,44.0019531 C46.9205729,44.0019531 46.7708333,44.0768229 46.6210938,44.2265625 C46.4713542,44.2265625 46.2467448,44.2265625 45.9472656,44.2265625 C46.0970052,44.2265625 46.3216146,44.2265625 46.6210938,44.2265625 C46.7708333,44.0768229 46.9205729,44.0019531 47.0703125,44.0019531 Z M44.8242188,44.0019531 C44.9739583,44.0019531 45.1985677,44.0768229 45.4980469,44.2265625 C45.6477865,44.2265625 45.797526,44.2265625 45.9472656,44.2265625 C45.797526,44.2265625 45.6477865,44.2265625 45.4980469,44.2265625 C45.1985677,44.0768229 44.9739583,44.0019531 44.8242188,44.0019531 Z M45.9472656,43.5527344 C45.797526,43.5527344 45.6477865,43.5527344 45.4980469,43.5527344 C45.1985677,43.5527344 44.9739583,43.4778646 44.8242188,43.328125 C44.8242188,43.4778646 44.8242188,43.702474 44.8242188,44.0019531 C44.9739583,44.0019531 45.1985677,44.0768229 45.4980469,44.2265625 C45.6477865,44.2265625 45.797526,44.2265625 45.9472656,44.2265625 C46.0970052,44.2265625 46.3216146,44.2265625 46.6210938,44.2265625 C46.7708333,44.0768229 46.9205729,44.0019531 47.0703125,44.0019531 C47.0703125,43.8522135 47.0703125,43.7773438 47.0703125,43.7773438 C47.0703125,43.6276042 47.0703125,43.4778646 47.0703125,43.328125 C46.9205729,43.4778646 46.7708333,43.5527344 46.6210938,43.5527344 C46.4713542,43.5527344 46.2467448,43.5527344 45.9472656,43.5527344 Z M33.8183594,33.2207031 C33.968099,33.3704427 34.0429688,33.4453125 34.0429688,33.4453125 C34.0429688,33.5950521 34.1178385,33.6699219 34.2675781,33.6699219 C34.2675781,33.8196615 34.2675781,33.8945312 34.2675781,33.8945312 C34.2675781,34.0442708 34.2675781,34.1191406 34.2675781,34.1191406 C34.2675781,36.0657552 34.2675781,38.3867188 34.2675781,41.0820312 C34.2675781,43.9270833 34.2675781,47.2213542 34.2675781,50.9648438 C34.2675781,50.9648438 34.2675781,51.0397135 34.2675781,51.1894531 C34.2675781,51.3391927 34.1927083,51.4889323 34.0429688,51.6386719 C34.0429688,51.6386719 33.968099,51.7135417 33.8183594,51.8632812 C33.6686198,51.8632812 33.5188802,51.8632812 33.3691406,51.8632812 C33.219401,51.8632812 33.1445312,51.8632812 33.1445312,51.8632812 C32.9947917,51.7135417 32.8450521,51.6386719 32.6953125,51.6386719 C32.5455729,51.4889323 32.4707031,51.3391927 32.4707031,51.1894531 C32.4707031,51.1894531 32.4707031,51.1145833 32.4707031,50.9648438 C32.4707031,49.3177083 32.4707031,47.296224 32.4707031,44.9003906 C32.4707031,42.5045573 32.4707031,39.734375 32.4707031,36.5898438 C32.3209635,36.5898438 32.2460938,36.6647135 32.2460938,36.8144531 C32.0963542,36.9641927 31.9466146,37.1139323 31.796875,37.2636719 C31.6471354,37.4134115 31.4973958,37.4882812 31.3476562,37.4882812 C31.3476562,37.4882812 31.2727865,37.4882812 31.1230469,37.4882812 C30.9733073,37.4882812 30.8235677,37.4882812 30.6738281,37.4882812 C30.5240885,37.4882812 30.4492188,37.4134115 30.4492188,37.2636719 C30.2994792,37.1139323 30.2246094,37.0390625 30.2246094,37.0390625 C30.0748698,36.8893229 30,36.7395833 30,36.5898438 C30,36.4401042 30.0748698,36.2903646 30.2246094,36.140625 C30.2246094,35.9908854 30.2994792,35.9160156 30.4492188,35.9160156 C30.7486979,35.6165365 31.0481771,35.2421875 31.3476562,34.7929688 C31.796875,34.4934896 32.2460938,34.0442708 32.6953125,33.4453125 C32.8450521,33.4453125 32.9199219,33.4453125 32.9199219,33.4453125 C33.0696615,33.2955729 33.219401,33.2207031 33.3691406,33.2207031 C33.3691406,33.2207031 33.3691406,33.2207031 33.3691406,33.2207031 C33.3691406,33.2207031 33.3691406,33.2207031 33.3691406,33.2207031 C33.5188802,33.2207031 33.59375,33.2207031 33.59375,33.2207031 C33.7434896,33.2207031 33.8183594,33.2207031 33.8183594,33.2207031 Z M67.5097656,18.6210938 C67.6595052,18.6210938 67.8092448,18.6210938 67.9589844,18.6210938 C68.108724,18.6210938 68.1835938,18.6959635 68.1835938,18.8457031 C68.3333333,18.9954427 68.4082031,19.0703125 68.4082031,19.0703125 C68.4082031,19.2200521 68.4082031,19.3697917 68.4082031,19.5195312 C68.4082031,19.6692708 68.4082031,19.8190104 68.4082031,19.96875 C68.4082031,20.1184896 68.3333333,20.1933594 68.1835938,20.1933594 C68.0338542,20.343099 67.9589844,20.4179688 67.9589844,20.4179688 C67.8092448,20.4179688 67.6595052,20.4179688 67.5097656,20.4179688 C66.7610677,20.4179688 66.0123698,20.4179688 65.2636719,20.4179688 C64.3652344,20.4179688 63.5416667,20.4179688 62.7929688,20.4179688 C62.0442708,20.4179688 61.2955729,20.4179688 60.546875,20.4179688 C59.7981771,20.4179688 58.9746094,20.4179688 58.0761719,20.4179688 C58.0761719,20.4179688 58.0013021,20.4179688 57.8515625,20.4179688 C57.8515625,20.4179688 57.8515625,20.4179688 57.8515625,20.4179688 C57.7018229,20.4179688 57.6269531,20.4179688 57.6269531,20.4179688 C57.4772135,20.2682292 57.4023438,20.1933594 57.4023438,20.1933594 C57.4023438,20.1933594 57.4023438,20.1184896 57.4023438,19.96875 C57.2526042,19.96875 57.1777344,19.96875 57.1777344,19.96875 C57.1777344,19.8190104 57.1777344,19.7441406 57.1777344,19.7441406 C57.1777344,19.7441406 57.1777344,19.6692708 57.1777344,19.5195312 C57.1777344,19.5195312 57.1777344,19.5195312 57.1777344,19.5195312 C57.1777344,19.5195312 57.1777344,19.5195312 57.1777344,19.5195312 C57.1777344,19.3697917 57.1777344,19.2200521 57.1777344,19.0703125 C57.327474,18.7708333 57.4023438,18.3964844 57.4023438,17.9472656 C57.5520833,17.4980469 57.7766927,17.0488281 58.0761719,16.5996094 C58.2259115,16.1503906 58.5253906,15.6263021 58.9746094,15.0273438 C59.124349,14.7278646 59.2740885,14.4283854 59.4238281,14.1289062 C59.7233073,13.8294271 60.0227865,13.5299479 60.3222656,13.2304688 C60.6217448,12.9309896 60.921224,12.6315104 61.2207031,12.3320313 C61.6699219,12.0325521 62.0442708,11.7330729 62.34375,11.4335938 C63.2421875,10.984375 63.9908854,10.5351562 64.5898438,10.0859375 C65.0390625,9.63671875 65.4134115,9.1875 65.7128906,8.73828125 C65.8626302,8.43880208 66.0123698,8.06445312 66.1621094,7.61523438 C66.311849,7.31575521 66.3867188,7.01627604 66.3867188,6.71679688 C66.3867188,6.56705729 66.3867188,6.4921875 66.3867188,6.4921875 C66.3867188,6.34244792 66.311849,6.19270833 66.1621094,6.04296875 C66.1621094,6.04296875 66.1621094,5.96809896 66.1621094,5.81835938 C66.1621094,5.66861979 66.1621094,5.51888021 66.1621094,5.36914062 C66.0123698,5.21940104 65.8626302,5.06966146 65.7128906,4.91992188 C65.563151,4.62044271 65.3385417,4.39583333 65.0390625,4.24609375 C64.8893229,4.09635417 64.5898438,4.02148438 64.140625,4.02148438 C63.8411458,3.87174479 63.3919271,3.796875 62.7929688,3.796875 C62.4934896,3.796875 62.1940104,3.87174479 61.8945312,4.02148438 C61.5950521,4.02148438 61.2955729,4.09635417 60.9960938,4.24609375 C60.6966146,4.39583333 60.4720052,4.62044271 60.3222656,4.91992188 C60.172526,5.21940104 60.0227865,5.51888021 59.8730469,5.81835938 C59.7233073,5.81835938 59.6484375,5.89322917 59.6484375,6.04296875 C59.4986979,6.19270833 59.3489583,6.26757812 59.1992188,6.26757812 C59.0494792,6.26757812 58.8997396,6.26757812 58.75,6.26757812 C58.75,6.26757812 58.6751302,6.26757812 58.5253906,6.26757812 C58.375651,6.11783854 58.2259115,6.04296875 58.0761719,6.04296875 C58.0761719,5.89322917 58.0761719,5.74348958 58.0761719,5.59375 C57.9264323,5.44401042 57.8515625,5.36914062 57.8515625,5.36914062 C57.8515625,5.21940104 57.9264323,5.06966146 58.0761719,4.91992188 C58.2259115,4.47070312 58.4505208,4.02148438 58.75,3.57226562 C59.0494792,3.27278646 59.4238281,2.97330729 59.8730469,2.67382812 C60.3222656,2.37434896 60.7714844,2.14973958 61.2207031,2 C61.8196615,2 62.34375,2 62.7929688,2 C63.8411458,2 64.7395833,2.07486979 65.4882812,2.22460938 C66.0872396,2.52408854 66.6113281,2.8984375 67.0605469,3.34765625 C67.5097656,3.94661458 67.8092448,4.54557292 67.9589844,5.14453125 C68.108724,5.59375 68.1835938,6.11783854 68.1835938,6.71679688 C68.1835938,7.31575521 68.108724,7.91471354 67.9589844,8.51367188 C67.8092448,8.96289062 67.5097656,9.48697917 67.0605469,10.0859375 C66.7610677,10.5351562 66.311849,11.0592448 65.7128906,11.6582031 C65.1139323,12.1074219 64.3652344,12.6315104 63.4667969,13.2304688 C62.8678385,13.6796875 62.2688802,14.1289062 61.6699219,14.578125 C61.2207031,15.0273438 60.8463542,15.4765625 60.546875,15.9257812 C60.2473958,16.5247396 60.0227865,17.0488281 59.8730469,17.4980469 C59.5735677,17.797526 59.4238281,18.171875 59.4238281,18.6210938 C60.3222656,18.6210938 61.4453125,18.6210938 62.7929688,18.6210938 C64.140625,18.6210938 65.7128906,18.6210938 67.5097656,18.6210938 Z"/></svg>