<svg xmlns="http://www.w3.org/2000/svg" width="120" height="203" viewBox="0 0 120 203"><path fill="#131313" d="M735.989414,70.2167969 C739.423659,86.2890625 740.179193,100.98763 738.256016,114.3125 C736.332839,127.63737 731.730951,138.764323 724.450352,147.693359 C719.917148,153.462891 714.559727,157.858724 708.378086,160.880859 C702.196445,163.902995 695.67138,165.414062 688.802891,165.414062 C682.48388,165.414062 672.93668,165.414062 660.161289,165.414062 C659.61181,165.414062 659.062331,165.414062 658.512852,165.414062 C658.100742,165.276693 657.688633,165.139323 657.276523,165.001953 C655.902826,164.315104 654.803867,163.353516 653.979648,162.117188 C653.01806,160.880859 652.537266,159.507161 652.537266,157.996094 C652.537266,129.697917 652.537266,87.250651 652.537266,30.6542969 C652.537266,28.59375 653.292799,26.8079427 654.803867,25.296875 C656.314935,23.9231771 658.100742,23.2363281 660.161289,23.2363281 C660.573398,23.2363281 661.054193,23.2363281 661.603672,23.2363281 C662.015781,23.3736979 662.496576,23.5110677 663.046055,23.6484375 C667.029779,23.3736979 671.562982,23.3736979 676.645664,23.6484375 C681.590977,23.9231771 686.673659,24.6787109 691.893711,25.9150391 C701.372227,28.3876953 710.369948,32.9895833 718.886875,39.7207031 C727.403802,46.5891927 733.104648,56.7545573 735.989414,70.2167969 Z M713.989414,138.880859 C717.286289,134.759766 720.514479,127.547852 723.673984,117.245117 C726.970859,106.942383 726.55875,92.4498698 722.437656,73.7675781 C720.23974,63.0527344 715.775221,55.2913411 709.044102,50.4833984 C702.312982,45.5380859 695.444492,42.3098958 688.438633,40.7988281 C684.592279,39.8372396 680.951979,39.2877604 677.517734,39.1503906 C674.08349,38.875651 671.130039,38.8069661 668.657383,38.9443359 C668.657383,63.8082682 668.657383,101.172852 668.657383,151.038086 C673.327956,151.038086 680.4025,151.038086 689.881016,151.038086 C694.414219,151.038086 698.810052,150.007812 703.068516,147.947266 C707.189609,145.749349 710.829909,142.727214 713.989414,138.880859 Z M680.020664,14.6298828 C695.131341,16.0035807 708.181471,20.468099 719.171055,28.0234375 C730.298008,35.578776 738.265456,45.5380859 743.073398,57.9013672 C742.661289,58.038737 741.97444,58.2447917 741.012852,58.5195312 C736.342279,46.5683594 728.64957,36.952474 717.934727,29.671875 C707.219883,22.391276 694.513177,18.0641276 679.814609,16.6904297 C679.814609,16.5530599 679.883294,16.4156901 680.020664,16.2783203 C680.020664,16.0035807 680.020664,15.797526 680.020664,15.6601563 C680.020664,15.3854167 680.020664,15.179362 680.020664,15.0419922 C680.020664,14.9046224 680.020664,14.7672526 680.020664,14.6298828 Z M675.487461,19.3691406 C676.31168,19.3691406 677.067214,19.1630859 677.754063,18.7509766 C678.440911,18.2014974 678.921706,17.5146484 679.196445,16.6904297 C679.333815,16.6904297 679.4025,16.6904297 679.4025,16.6904297 C679.53987,16.6904297 679.67724,16.6904297 679.814609,16.6904297 C679.53987,17.6520182 678.990391,18.476237 678.166172,19.1630859 C677.341953,19.7125651 676.380365,19.9873047 675.281406,19.9873047 C674.045078,19.9873047 673.014805,19.5065104 672.190586,18.5449219 C671.366367,17.5833333 670.954258,16.484375 670.954258,15.2480469 C670.954258,14.0117188 671.435052,12.9814453 672.396641,12.1572266 C673.358229,11.3330078 674.457188,10.9208984 675.693516,10.9208984 C676.792474,10.9208984 677.685378,11.3330078 678.372227,12.1572266 C679.196445,12.8440755 679.745924,13.6682943 680.020664,14.6298828 C679.883294,14.6298828 679.745924,14.6298828 679.608555,14.6298828 C679.608555,14.6298828 679.53987,14.6298828 679.4025,14.6298828 C679.26513,13.8056641 678.853021,13.0501302 678.166172,12.3632812 C677.341953,11.8138021 676.517734,11.5390625 675.693516,11.5390625 C674.594557,11.4016927 673.632969,11.7451172 672.80875,12.5693359 C671.984531,13.2561849 671.572422,14.1490885 671.572422,15.2480469 C671.572422,16.3470052 671.915846,17.3085938 672.602695,18.1328125 C673.426914,18.9570312 674.388503,19.3691406 675.487461,19.3691406 Z M680.020664,14.6298828 C680.020664,14.7672526 680.020664,14.9046224 680.020664,15.0419922 C680.020664,15.179362 680.020664,15.3167318 680.020664,15.4541016 C680.020664,15.7288411 680.020664,16.0035807 680.020664,16.2783203 C679.883294,16.4156901 679.814609,16.5530599 679.814609,16.6904297 C679.67724,16.6904297 679.608555,16.6904297 679.608555,16.6904297 C679.471185,16.6904297 679.333815,16.6904297 679.196445,16.6904297 C679.333815,16.5530599 679.4025,16.3470052 679.4025,16.0722656 C679.4025,15.9348958 679.4025,15.7288411 679.4025,15.4541016 C679.4025,15.3167318 679.4025,15.179362 679.4025,15.0419922 C679.4025,14.9046224 679.4025,14.7672526 679.4025,14.6298828 C679.53987,14.6298828 679.608555,14.6298828 679.608555,14.6298828 C679.745924,14.6298828 679.883294,14.6298828 680.020664,14.6298828 Z M675.693516,11.5390625 C676.517734,11.5390625 677.341953,11.8138021 678.166172,12.3632812 C678.853021,13.0501302 679.26513,13.8056641 679.4025,14.6298828 C679.26513,14.6298828 679.196445,14.6298828 679.196445,14.6298828 C679.059076,14.6298828 678.921706,14.6298828 678.784336,14.6298828 C678.646966,13.8056641 678.303542,13.1875 677.754063,12.7753906 C677.067214,12.2259115 676.380365,11.9511719 675.693516,11.9511719 C675.693516,11.9511719 675.762201,11.9511719 675.89957,11.9511719 C675.89957,11.9511719 675.968255,11.9511719 676.105625,11.9511719 C675.968255,11.9511719 675.89957,11.9511719 675.89957,11.9511719 C675.762201,11.9511719 675.693516,11.9511719 675.693516,11.9511719 C675.556146,11.9511719 675.418776,11.9511719 675.281406,11.9511719 C675.281406,11.9511719 675.212721,11.9511719 675.075352,11.9511719 C675.075352,11.9511719 675.075352,11.9511719 675.075352,11.9511719 C675.075352,11.9511719 675.075352,11.9511719 675.075352,11.9511719 C675.075352,11.9511719 675.075352,11.9511719 675.075352,11.9511719 C675.075352,11.9511719 675.075352,11.9511719 675.075352,11.9511719 C675.212721,11.9511719 675.281406,11.9511719 675.281406,11.9511719 C675.418776,11.9511719 675.556146,11.9511719 675.693516,11.9511719 C674.731927,11.9511719 673.907708,12.2945964 673.220859,12.9814453 C672.53401,13.5309245 672.121901,14.2864583 671.984531,15.2480469 C671.984531,16.2096354 672.327956,17.0338542 673.014805,17.7207031 C673.701654,18.4075521 674.525872,18.7509766 675.487461,18.7509766 C676.17431,18.8883464 676.792474,18.7509766 677.341953,18.3388672 C678.028802,17.9267578 678.440911,17.3772786 678.578281,16.6904297 C678.715651,16.6904297 678.853021,16.6904297 678.990391,16.6904297 C678.990391,16.6904297 679.059076,16.6904297 679.196445,16.6904297 C678.921706,17.5146484 678.440911,18.1328125 677.754063,18.5449219 C677.067214,19.094401 676.31168,19.3691406 675.487461,19.3691406 C674.388503,19.3691406 673.426914,18.9570312 672.602695,18.1328125 C671.915846,17.3085937 671.572422,16.3470052 671.572422,15.2480469 C671.572422,14.1490885 671.984531,13.2561849 672.80875,12.5693359 C673.632969,11.7451172 674.594557,11.4016927 675.693516,11.5390625 Z M678.990391,15.4541016 C678.990391,15.3167318 678.990391,15.179362 678.990391,15.0419922 C678.990391,14.9046224 678.921706,14.7672526 678.784336,14.6298828 C678.921706,14.6298828 679.059076,14.6298828 679.196445,14.6298828 C679.196445,14.6298828 679.26513,14.6298828 679.4025,14.6298828 C679.4025,14.7672526 679.4025,14.9046224 679.4025,15.0419922 C679.4025,15.179362 679.4025,15.3167318 679.4025,15.4541016 C679.4025,15.7288411 679.4025,15.9348958 679.4025,16.0722656 C679.4025,16.3470052 679.333815,16.5530599 679.196445,16.6904297 C679.196445,16.6904297 679.12776,16.6904297 678.990391,16.6904297 C678.853021,16.6904297 678.784336,16.6904297 678.784336,16.6904297 C678.784336,16.5530599 678.784336,16.3470052 678.784336,16.0722656 C678.921706,15.9348958 678.990391,15.7288411 678.990391,15.4541016 Z M745.34,69.0283203 C743.966302,66.8304036 741.905755,63.5335286 739.158359,59.1376953 C739.570469,59.0003255 740.188633,58.7942708 741.012852,58.5195312 C741.150221,58.7942708 741.287591,59.1376953 741.424961,59.5498047 C741.562331,59.8245443 741.699701,60.0992839 741.83707,60.3740234 C742.24918,60.2366536 742.936029,60.030599 743.897617,59.7558594 C743.760247,59.4811198 743.622878,59.1376953 743.485508,58.7255859 C743.348138,58.4508464 743.210768,58.1761068 743.073398,57.9013672 C743.485508,57.7639974 744.172357,57.5579427 745.133945,57.2832031 C745.133945,59.2063802 745.133945,61.1982422 745.133945,63.2587891 C745.271315,65.1819661 745.34,67.1051432 745.34,69.0283203 Z M743.897617,59.7558594 C743.485508,59.8932292 742.798659,60.0992839 741.83707,60.3740234 C741.699701,60.0992839 741.562331,59.8245443 741.424961,59.5498047 C741.287591,59.1376953 741.150221,58.7942708 741.012852,58.5195312 C741.424961,58.3821615 742.11181,58.1761068 743.073398,57.9013672 C743.210768,58.1761068 743.348138,58.4508464 743.485508,58.7255859 C743.622878,59.1376953 743.760247,59.4811198 743.897617,59.7558594 Z M643.136875,147.535156 C643.548984,147.535156 644.235833,147.535156 645.197422,147.535156 C645.197422,123.632813 645.197422,87.9166667 645.197422,40.3867188 C645.060052,40.3867188 644.922682,40.3867188 644.785313,40.3867188 C644.510573,40.3867188 644.304518,40.3867188 644.167148,40.3867188 C644.029779,40.3867188 643.892409,40.3867188 643.755039,40.3867188 C643.480299,40.3867188 643.274245,40.3867188 643.136875,40.3867188 C643.136875,58.2447917 643.136875,76.1028646 643.136875,93.9609375 C643.136875,111.81901 643.136875,129.677083 643.136875,147.535156 Z M645.197422,149.595703 C645.197422,149.046224 645.197422,148.359375 645.197422,147.535156 C645.746901,147.535156 646.43375,147.535156 647.257969,147.535156 C646.57112,150.007812 645.540846,153.785482 644.167148,158.868164 C643.480299,156.395508 642.450026,152.617839 641.076328,147.535156 C641.625807,147.535156 642.312656,147.535156 643.136875,147.535156 C643.136875,147.947266 643.136875,148.634115 643.136875,149.595703 C643.548984,149.595703 644.235833,149.595703 645.197422,149.595703 Z M643.136875,149.595703 C643.548984,149.595703 644.235833,149.595703 645.197422,149.595703 C645.197422,149.046224 645.197422,148.359375 645.197422,147.535156 C644.785313,147.535156 644.098464,147.535156 643.136875,147.535156 C643.136875,147.947266 643.136875,148.634115 643.136875,149.595703 Z M641.282383,39.3564453 C641.557122,39.6311849 641.831862,39.8372396 642.106602,39.9746094 C642.518711,40.1119792 642.862135,40.249349 643.136875,40.3867188 C642.862135,40.249349 642.518711,40.1119792 642.106602,39.9746094 C641.831862,39.8372396 641.557122,39.6311849 641.282383,39.3564453 Z M639.633945,36.0595703 C639.633945,36.1969401 639.633945,36.3343099 639.633945,36.4716797 C639.771315,36.6090495 639.84,36.7464193 639.84,36.8837891 C639.84,36.8837891 639.84,36.8837891 639.84,36.8837891 C639.84,37.0211589 639.84,37.0898438 639.84,37.0898438 C639.84,37.2272135 639.908685,37.2958984 640.046055,37.2958984 C640.046055,37.4332682 640.046055,37.5019531 640.046055,37.5019531 C640.046055,37.6393229 640.046055,37.7080078 640.046055,37.7080078 C640.046055,37.8453776 640.11474,37.9140625 640.252109,37.9140625 C640.252109,37.9140625 640.252109,37.9827474 640.252109,38.1201172 C640.252109,38.1201172 640.320794,38.1888021 640.458164,38.3261719 C640.458164,38.3261719 640.458164,38.3948568 640.458164,38.5322266 C640.458164,38.5322266 640.526849,38.5322266 640.664219,38.5322266 C640.664219,38.6695964 640.664219,38.7382812 640.664219,38.7382812 C640.801589,38.7382812 640.870273,38.8069661 640.870273,38.9443359 C640.870273,38.9443359 640.938958,39.0130208 641.076328,39.1503906 C641.076328,39.1503906 641.076328,39.1503906 641.076328,39.1503906 C641.213698,39.2877604 641.282383,39.3564453 641.282383,39.3564453 C641.282383,39.3564453 641.282383,39.3564453 641.282383,39.3564453 C641.557122,39.6311849 641.831862,39.8372396 642.106602,39.9746094 C642.518711,40.1119792 642.862135,40.249349 643.136875,40.3867188 C643.136875,40.249349 643.136875,40.0432943 643.136875,39.7685547 C642.724766,39.6311849 642.381341,39.4251302 642.106602,39.1503906 C641.694492,39.0130208 641.351068,38.7382812 641.076328,38.3261719 C641.076328,38.3261719 641.076328,38.3261719 641.076328,38.3261719 C641.076328,38.3261719 641.076328,38.3261719 641.076328,38.3261719 C640.938958,38.1888021 640.801589,38.0514323 640.664219,37.9140625 C640.664219,37.6393229 640.595534,37.4332682 640.458164,37.2958984 C640.458164,37.2958984 640.458164,37.2958984 640.458164,37.2958984 C640.458164,37.1585286 640.458164,37.0898438 640.458164,37.0898438 C640.320794,36.952474 640.252109,36.7464193 640.252109,36.4716797 C640.252109,36.3343099 640.252109,36.1282552 640.252109,35.8535156 C640.252109,34.7545573 640.664219,33.8616536 641.488438,33.1748047 C642.175286,32.3505859 643.06819,31.9384766 644.167148,31.9384766 C645.266107,31.9384766 646.227695,32.3505859 647.051914,33.1748047 C647.738763,33.8616536 648.082188,34.7545573 648.082188,35.8535156 C648.082188,36.1282552 648.082188,36.3343099 648.082188,36.4716797 C648.082188,36.7464193 648.082188,36.952474 648.082188,37.0898438 C647.944818,37.0898438 647.876133,37.1585286 647.876133,37.2958984 C647.876133,37.2958984 647.876133,37.2958984 647.876133,37.2958984 C647.876133,37.4332682 647.807448,37.6393229 647.670078,37.9140625 C647.532708,38.0514323 647.464023,38.1888021 647.464023,38.3261719 C647.326654,38.3261719 647.257969,38.3261719 647.257969,38.3261719 C647.257969,38.3261719 647.257969,38.3261719 647.257969,38.3261719 C646.983229,38.7382812 646.70849,39.0130208 646.43375,39.1503906 C646.021641,39.4251302 645.609531,39.6311849 645.197422,39.7685547 C645.197422,39.9059245 645.197422,39.9746094 645.197422,39.9746094 C645.197422,40.1119792 645.197422,40.249349 645.197422,40.3867188 C645.609531,40.249349 645.952956,40.1119792 646.227695,39.9746094 C646.502435,39.8372396 646.777174,39.6311849 647.051914,39.3564453 C647.051914,39.3564453 647.051914,39.3564453 647.051914,39.3564453 C647.189284,39.3564453 647.257969,39.2877604 647.257969,39.1503906 C647.257969,39.1503906 647.326654,39.1503906 647.464023,39.1503906 C647.464023,39.0130208 647.464023,38.9443359 647.464023,38.9443359 C647.601393,38.8069661 647.670078,38.7382812 647.670078,38.7382812 C647.670078,38.7382812 647.738763,38.6695964 647.876133,38.5322266 C647.876133,38.5322266 647.876133,38.5322266 647.876133,38.5322266 C647.876133,38.3948568 647.944818,38.3261719 648.082188,38.3261719 C648.082188,38.1888021 648.082188,38.1201172 648.082188,38.1201172 C648.219557,37.9827474 648.288242,37.9140625 648.288242,37.9140625 C648.288242,37.9140625 648.288242,37.8453776 648.288242,37.7080078 C648.288242,37.7080078 648.288242,37.6393229 648.288242,37.5019531 C648.425612,37.5019531 648.494297,37.4332682 648.494297,37.2958984 C648.494297,37.2958984 648.494297,37.2272135 648.494297,37.0898438 C648.494297,37.0898438 648.494297,37.0211589 648.494297,36.8837891 C648.631667,36.8837891 648.700352,36.8837891 648.700352,36.8837891 C648.700352,36.7464193 648.700352,36.6090495 648.700352,36.4716797 C648.700352,36.3343099 648.700352,36.1969401 648.700352,36.0595703 C648.700352,34.8232422 648.288242,33.7242839 647.464023,32.7626953 C646.502435,31.9384766 645.403477,31.5263672 644.167148,31.5263672 C642.93082,31.5263672 641.900547,31.9384766 641.076328,32.7626953 C640.11474,33.7242839 639.633945,34.8232422 639.633945,36.0595703 Z M643.136875,40.3867188 C643.274245,40.3867188 643.480299,40.3867188 643.755039,40.3867188 C643.892409,40.3867188 644.029779,40.3867188 644.167148,40.3867188 C644.029779,40.3867188 643.892409,40.3867188 643.755039,40.3867188 C643.480299,40.3867188 643.274245,40.3867188 643.136875,40.3867188 Z M644.167148,40.3867188 C644.304518,40.3867188 644.510573,40.3867188 644.785313,40.3867188 C644.922682,40.3867188 645.060052,40.3867188 645.197422,40.3867188 C645.060052,40.3867188 644.922682,40.3867188 644.785313,40.3867188 C644.510573,40.3867188 644.304518,40.3867188 644.167148,40.3867188 Z M645.197422,39.7685547 C645.060052,39.7685547 644.922682,39.8372396 644.785313,39.9746094 C644.510573,39.9746094 644.304518,39.9746094 644.167148,39.9746094 C644.029779,39.9746094 643.892409,39.9746094 643.755039,39.9746094 C643.480299,39.8372396 643.274245,39.7685547 643.136875,39.7685547 C643.136875,39.9059245 643.136875,39.9746094 643.136875,39.9746094 C643.136875,40.1119792 643.136875,40.249349 643.136875,40.3867188 C643.274245,40.3867188 643.480299,40.3867188 643.755039,40.3867188 C643.892409,40.3867188 644.029779,40.3867188 644.167148,40.3867188 C644.304518,40.3867188 644.510573,40.3867188 644.785313,40.3867188 C644.922682,40.3867188 645.060052,40.3867188 645.197422,40.3867188 C645.197422,40.249349 645.197422,40.1119792 645.197422,39.9746094 C645.197422,39.9746094 645.197422,39.9059245 645.197422,39.7685547 Z M648.082188,36.0595703 C648.082188,36.1969401 648.082188,36.4029948 648.082188,36.6777344 C648.082188,36.8151042 648.082188,36.952474 648.082188,37.0898438 C648.082188,36.952474 648.082188,36.8151042 648.082188,36.6777344 C648.082188,36.4029948 648.082188,36.1969401 648.082188,36.0595703 Z M647.876133,37.2958984 C647.876133,37.570638 647.807448,37.7766927 647.670078,37.9140625 C647.532708,38.0514323 647.464023,38.1888021 647.464023,38.3261719 C647.464023,38.1888021 647.532708,38.0514323 647.670078,37.9140625 C647.807448,37.7766927 647.876133,37.570638 647.876133,37.2958984 Z M640.458164,37.2958984 C640.595534,37.570638 640.664219,37.7766927 640.664219,37.9140625 C640.801589,38.0514323 640.938958,38.1888021 641.076328,38.3261719 C640.938958,38.1888021 640.801589,38.0514323 640.664219,37.9140625 C640.664219,37.7766927 640.595534,37.570638 640.458164,37.2958984 Z M647.257969,38.5322266 C646.983229,38.8069661 646.70849,39.0817057 646.43375,39.3564453 C646.021641,39.4938151 645.609531,39.6311849 645.197422,39.7685547 C645.609531,39.6311849 646.021641,39.4938151 646.43375,39.3564453 C646.70849,39.0817057 646.983229,38.8069661 647.257969,38.5322266 Z M640.458164,37.0898438 C640.320794,36.952474 640.252109,36.8151042 640.252109,36.6777344 C640.252109,36.4029948 640.252109,36.1969401 640.252109,36.0595703 C640.252109,36.1969401 640.252109,36.4029948 640.252109,36.6777344 C640.252109,36.8151042 640.320794,36.952474 640.458164,37.0898438 Z M643.136875,39.7685547 C642.724766,39.6311849 642.381341,39.4938151 642.106602,39.3564453 C641.694492,39.0817057 641.351068,38.8069661 641.076328,38.5322266 C641.351068,38.8069661 641.694492,39.0817057 642.106602,39.3564453 C642.381341,39.4938151 642.724766,39.6311849 643.136875,39.7685547 Z M641.488438,38.1201172 C641.488438,38.1201172 641.488438,38.0514323 641.488438,37.9140625 C641.488438,37.9140625 641.488438,37.9140625 641.488438,37.9140625 C641.351068,37.7766927 641.282383,37.6393229 641.282383,37.5019531 C641.145013,37.3645833 641.076328,37.2272135 641.076328,37.0898438 C640.938958,37.0898438 640.870273,37.0898438 640.870273,37.0898438 C640.870273,37.0898438 640.870273,37.0211589 640.870273,36.8837891 C640.870273,36.7464193 640.870273,36.6090495 640.870273,36.4716797 C640.732904,36.3343099 640.664219,36.1969401 640.664219,36.0595703 C640.664219,36.1969401 640.664219,36.265625 640.664219,36.265625 C640.664219,36.4029948 640.664219,36.4716797 640.664219,36.4716797 C640.664219,36.4716797 640.664219,36.4716797 640.664219,36.4716797 C640.664219,36.3343099 640.664219,36.1969401 640.664219,36.0595703 C640.664219,35.7848307 640.664219,35.6474609 640.664219,35.6474609 C640.664219,35.5100911 640.664219,35.4414062 640.664219,35.4414062 C640.664219,35.4414062 640.664219,35.5100911 640.664219,35.6474609 C640.664219,35.6474609 640.664219,35.7848307 640.664219,36.0595703 C640.664219,35.0979818 641.007643,34.273763 641.694492,33.5869141 C642.381341,32.9000651 643.20556,32.5566406 644.167148,32.5566406 C645.128737,32.5566406 645.952956,32.9000651 646.639805,33.5869141 C647.326654,34.273763 647.670078,35.0979818 647.670078,36.0595703 C647.670078,36.1969401 647.670078,36.3343099 647.670078,36.4716797 C647.532708,36.6090495 647.464023,36.7464193 647.464023,36.8837891 C647.464023,37.0211589 647.464023,37.0898438 647.464023,37.0898438 C647.464023,37.0898438 647.464023,37.0898438 647.464023,37.0898438 C647.326654,37.2272135 647.257969,37.3645833 647.257969,37.5019531 C647.120599,37.6393229 647.051914,37.7766927 647.051914,37.9140625 C647.051914,37.9140625 647.051914,37.9140625 647.051914,37.9140625 C647.051914,38.0514323 647.051914,38.1201172 647.051914,38.1201172 C646.777174,38.3948568 646.502435,38.6009115 646.227695,38.7382812 C645.952956,39.0130208 645.609531,39.1503906 645.197422,39.1503906 C645.197422,39.2877604 645.197422,39.4938151 645.197422,39.7685547 C645.609531,39.6311849 646.021641,39.4938151 646.43375,39.3564453 C646.70849,39.0817057 646.983229,38.8069661 647.257969,38.5322266 C647.257969,38.3948568 647.257969,38.3261719 647.257969,38.3261719 C647.395339,38.3261719 647.464023,38.3261719 647.464023,38.3261719 C647.464023,38.1888021 647.532708,38.0514323 647.670078,37.9140625 C647.807448,37.7766927 647.876133,37.570638 647.876133,37.2958984 C647.876133,37.2958984 647.876133,37.2958984 647.876133,37.2958984 C648.013503,37.2958984 648.082188,37.2272135 648.082188,37.0898438 C648.082188,36.952474 648.082188,36.8151042 648.082188,36.6777344 C648.219557,36.4029948 648.288242,36.1969401 648.288242,36.0595703 C648.288242,34.960612 647.876133,33.9990234 647.051914,33.1748047 C646.227695,32.3505859 645.266107,31.9384766 644.167148,31.9384766 C643.06819,31.9384766 642.175286,32.3505859 641.488438,33.1748047 C640.664219,33.9990234 640.252109,34.960612 640.252109,36.0595703 C640.252109,36.1969401 640.252109,36.4029948 640.252109,36.6777344 C640.389479,36.8151042 640.458164,36.952474 640.458164,37.0898438 C640.458164,37.2272135 640.458164,37.2958984 640.458164,37.2958984 C640.458164,37.2958984 640.458164,37.2958984 640.458164,37.2958984 C640.595534,37.570638 640.664219,37.7766927 640.664219,37.9140625 C640.801589,38.0514323 640.938958,38.1888021 641.076328,38.3261719 C641.076328,38.3261719 641.076328,38.3261719 641.076328,38.3261719 C641.076328,38.3261719 641.076328,38.3948568 641.076328,38.5322266 C641.351068,38.8069661 641.694492,39.0817057 642.106602,39.3564453 C642.381341,39.4938151 642.724766,39.6311849 643.136875,39.7685547 C643.136875,39.6311849 643.136875,39.5625 643.136875,39.5625 C643.136875,39.4251302 643.136875,39.2877604 643.136875,39.1503906 C643.136875,39.1503906 643.136875,39.1503906 643.136875,39.1503906 C642.862135,39.1503906 642.587396,39.0130208 642.312656,38.7382812 C641.900547,38.6009115 641.625807,38.3948568 641.488438,38.1201172 Z M645.197422,39.7685547 C645.060052,39.7685547 644.922682,39.8372396 644.785313,39.9746094 C644.647943,39.9746094 644.441888,39.9746094 644.167148,39.9746094 C644.304518,39.9746094 644.510573,39.9746094 644.785313,39.9746094 C644.922682,39.8372396 645.060052,39.7685547 645.197422,39.7685547 Z M643.136875,39.7685547 C643.274245,39.7685547 643.480299,39.8372396 643.755039,39.9746094 C643.892409,39.9746094 644.029779,39.9746094 644.167148,39.9746094 C644.029779,39.9746094 643.892409,39.9746094 643.755039,39.9746094 C643.480299,39.8372396 643.274245,39.7685547 643.136875,39.7685547 Z M644.167148,39.3564453 C644.029779,39.3564453 643.892409,39.3564453 643.755039,39.3564453 C643.480299,39.3564453 643.274245,39.2877604 643.136875,39.1503906 C643.136875,39.2877604 643.136875,39.4938151 643.136875,39.7685547 C643.274245,39.7685547 643.480299,39.8372396 643.755039,39.9746094 C643.892409,39.9746094 644.029779,39.9746094 644.167148,39.9746094 C644.304518,39.9746094 644.510573,39.9746094 644.785313,39.9746094 C644.922682,39.8372396 645.060052,39.7685547 645.197422,39.7685547 C645.197422,39.6311849 645.197422,39.5625 645.197422,39.5625 C645.197422,39.4251302 645.197422,39.2877604 645.197422,39.1503906 C645.060052,39.2877604 644.922682,39.3564453 644.785313,39.3564453 C644.647943,39.3564453 644.441888,39.3564453 644.167148,39.3564453 Z M633.040195,29.8779297 C633.177565,30.0152995 633.24625,30.0839844 633.24625,30.0839844 C633.24625,30.2213542 633.314935,30.2900391 633.452305,30.2900391 C633.452305,30.4274089 633.452305,30.4960938 633.452305,30.4960938 C633.452305,30.6334635 633.452305,30.7021484 633.452305,30.7021484 C633.452305,32.4879557 633.452305,34.6171875 633.452305,37.0898438 C633.452305,39.6998698 633.452305,42.7220052 633.452305,46.15625 C633.452305,46.15625 633.452305,46.2249349 633.452305,46.3623047 C633.452305,46.4996745 633.38362,46.6370443 633.24625,46.7744141 C633.24625,46.7744141 633.177565,46.843099 633.040195,46.9804688 C632.902826,46.9804688 632.765456,46.9804688 632.628086,46.9804688 C632.490716,46.9804688 632.422031,46.9804688 632.422031,46.9804688 C632.284661,46.843099 632.147292,46.7744141 632.009922,46.7744141 C631.872552,46.6370443 631.803867,46.4996745 631.803867,46.3623047 C631.803867,46.3623047 631.803867,46.2936198 631.803867,46.15625 C631.803867,44.6451823 631.803867,42.7906901 631.803867,40.5927734 C631.803867,38.3948568 631.803867,35.8535156 631.803867,32.96875 C631.666497,32.96875 631.597813,33.0374349 631.597813,33.1748047 C631.460443,33.3121745 631.323073,33.4495443 631.185703,33.5869141 C631.048333,33.7242839 630.910964,33.7929687 630.773594,33.7929687 C630.773594,33.7929687 630.704909,33.7929687 630.567539,33.7929687 C630.430169,33.7929687 630.292799,33.7929687 630.15543,33.7929687 C630.01806,33.7929687 629.949375,33.7242839 629.949375,33.5869141 C629.812005,33.4495443 629.74332,33.3808594 629.74332,33.3808594 C629.605951,33.2434896 629.537266,33.1061198 629.537266,32.96875 C629.537266,32.8313802 629.605951,32.6940104 629.74332,32.5566406 C629.74332,32.4192708 629.812005,32.3505859 629.949375,32.3505859 C630.224115,32.0758464 630.498854,31.7324219 630.773594,31.3203125 C631.185703,31.0455729 631.597813,30.6334635 632.009922,30.0839844 C632.147292,30.0839844 632.215977,30.0839844 632.215977,30.0839844 C632.353346,29.9466146 632.490716,29.8779297 632.628086,29.8779297 C632.628086,29.8779297 632.628086,29.8779297 632.628086,29.8779297 C632.628086,29.8779297 632.628086,29.8779297 632.628086,29.8779297 C632.765456,29.8779297 632.834141,29.8779297 632.834141,29.8779297 C632.97151,29.8779297 633.040195,29.8779297 633.040195,29.8779297 Z M663.948398,16.484375 C664.085768,16.484375 664.223138,16.484375 664.360508,16.484375 C664.497878,16.484375 664.566563,16.5530599 664.566563,16.6904297 C664.703932,16.8277995 664.772617,16.8964844 664.772617,16.8964844 C664.772617,17.0338542 664.772617,17.171224 664.772617,17.3085938 C664.772617,17.4459635 664.772617,17.5833333 664.772617,17.7207031 C664.772617,17.8580729 664.703932,17.9267578 664.566563,17.9267578 C664.429193,18.0641276 664.360508,18.1328125 664.360508,18.1328125 C664.223138,18.1328125 664.085768,18.1328125 663.948398,18.1328125 C663.261549,18.1328125 662.574701,18.1328125 661.887852,18.1328125 C661.063633,18.1328125 660.308099,18.1328125 659.62125,18.1328125 C658.934401,18.1328125 658.247552,18.1328125 657.560703,18.1328125 C656.873854,18.1328125 656.11832,18.1328125 655.294102,18.1328125 C655.294102,18.1328125 655.225417,18.1328125 655.088047,18.1328125 C655.088047,18.1328125 655.088047,18.1328125 655.088047,18.1328125 C654.950677,18.1328125 654.881992,18.1328125 654.881992,18.1328125 C654.744622,17.9954427 654.675938,17.9267578 654.675938,17.9267578 C654.675938,17.9267578 654.675938,17.8580729 654.675938,17.7207031 C654.538568,17.7207031 654.469883,17.7207031 654.469883,17.7207031 C654.469883,17.5833333 654.469883,17.5146484 654.469883,17.5146484 C654.469883,17.5146484 654.469883,17.4459635 654.469883,17.3085938 C654.469883,17.3085938 654.469883,17.3085938 654.469883,17.3085938 C654.469883,17.3085938 654.469883,17.3085938 654.469883,17.3085938 C654.469883,17.171224 654.469883,17.0338542 654.469883,16.8964844 C654.607253,16.6217448 654.675938,16.2783203 654.675938,15.8662109 C654.813307,15.4541016 655.019362,15.0419922 655.294102,14.6298828 C655.431471,14.2177734 655.706211,13.7369792 656.11832,13.1875 C656.25569,12.9127604 656.39306,12.6380208 656.53043,12.3632813 C656.805169,12.0885417 657.079909,11.8138021 657.354648,11.5390625 C657.629388,11.2643229 657.904128,10.9895833 658.178867,10.7148438 C658.590977,10.4401042 658.934401,10.1653646 659.209141,9.890625 C660.033359,9.47851563 660.720208,9.06640625 661.269688,8.65429687 C661.681797,8.2421875 662.025221,7.83007812 662.299961,7.41796875 C662.437331,7.14322917 662.574701,6.79980469 662.71207,6.38769531 C662.84944,6.11295573 662.918125,5.83821615 662.918125,5.56347656 C662.918125,5.42610677 662.918125,5.35742187 662.918125,5.35742187 C662.918125,5.22005208 662.84944,5.08268229 662.71207,4.9453125 C662.71207,4.9453125 662.71207,4.8766276 662.71207,4.73925781 C662.71207,4.60188802 662.71207,4.46451823 662.71207,4.32714844 C662.574701,4.18977865 662.437331,4.05240885 662.299961,3.91503906 C662.162591,3.64029948 661.956536,3.43424479 661.681797,3.296875 C661.544427,3.15950521 661.269688,3.09082031 660.857578,3.09082031 C660.582839,2.95345052 660.170729,2.88476562 659.62125,2.88476562 C659.34651,2.88476562 659.071771,2.95345052 658.797031,3.09082031 C658.522292,3.09082031 658.247552,3.15950521 657.972813,3.296875 C657.698073,3.43424479 657.492018,3.64029948 657.354648,3.91503906 C657.217279,4.18977865 657.079909,4.46451823 656.942539,4.73925781 C656.805169,4.73925781 656.736484,4.80794271 656.736484,4.9453125 C656.599115,5.08268229 656.461745,5.15136719 656.324375,5.15136719 C656.187005,5.15136719 656.049635,5.15136719 655.912266,5.15136719 C655.912266,5.15136719 655.843581,5.15136719 655.706211,5.15136719 C655.568841,5.0139974 655.431471,4.9453125 655.294102,4.9453125 C655.294102,4.80794271 655.294102,4.67057292 655.294102,4.53320312 C655.156732,4.39583333 655.088047,4.32714844 655.088047,4.32714844 C655.088047,4.18977865 655.156732,4.05240885 655.294102,3.91503906 C655.431471,3.50292969 655.637526,3.09082031 655.912266,2.67871094 C656.187005,2.40397135 656.53043,2.12923177 656.942539,1.85449219 C657.354648,1.5797526 657.766758,1.37369792 658.178867,1.23632812 C658.728346,1.23632812 659.209141,1.23632812 659.62125,1.23632812 C660.582839,1.23632812 661.407057,1.30501302 662.093906,1.44238281 C662.643385,1.7171224 663.12418,2.06054688 663.536289,2.47265625 C663.948398,3.02213542 664.223138,3.57161458 664.360508,4.12109375 C664.497878,4.53320312 664.566563,5.0139974 664.566563,5.56347656 C664.566563,6.11295573 664.497878,6.6624349 664.360508,7.21191406 C664.223138,7.62402344 663.948398,8.10481771 663.536289,8.65429687 C663.261549,9.06640625 662.84944,9.54720052 662.299961,10.0966797 C661.750482,10.5087891 661.063633,10.9895833 660.239414,11.5390625 C659.689935,11.9511719 659.140456,12.3632813 658.590977,12.7753906 C658.178867,13.1875 657.835443,13.5996094 657.560703,14.0117188 C657.285964,14.5611979 657.079909,15.0419922 656.942539,15.4541016 C656.667799,15.7288411 656.53043,16.0722656 656.53043,16.484375 C657.354648,16.484375 658.384922,16.484375 659.62125,16.484375 C660.857578,16.484375 662.299961,16.484375 663.948398,16.484375 Z" transform="translate(-635.537 -23.734)"/></svg>