<svg xmlns="http://www.w3.org/2000/svg" width="97" height="243" viewBox="0 0 97 243"><path fill="#131313" d="M86.1450483,145.439453 C86.1450483,145.888672 86.1450483,146.263021 86.1450483,146.5625 C86.1450483,147.011719 86.1450483,147.386068 86.1450483,147.685547 C86.1450483,149.781901 86.1450483,152.851562 86.1450483,156.894531 C86.1450483,159.140625 85.3214805,161.08724 83.6743451,162.734375 C82.0272097,164.231771 80.0805951,164.980469 77.8345014,164.980469 C76.187366,164.980469 74.6151003,164.53125 73.1177045,163.632812 C71.7700483,162.584635 70.796741,161.236979 70.1977826,159.589844 C70.048043,159.739583 69.8983035,159.814453 69.7485639,159.814453 C69.5988243,159.964193 69.4490847,160.039062 69.2993451,160.039062 C66.0050743,161.686198 62.6359337,162.958984 59.1919233,163.857422 C55.8976524,164.60612 52.6033816,164.980469 49.3091108,164.980469 C44.5174441,164.980469 39.9503868,164.156901 35.6079389,162.509766 C31.265491,160.86263 27.297392,158.317057 23.703642,154.873047 C17.5643191,148.883464 13.5962201,141.621094 11.7993451,133.085938 C10.1522097,124.401042 11.0506472,116.015625 14.4946576,107.929688 C16.5910118,103.28776 18.9868451,99.2447917 21.6821576,95.8007812 C24.5272097,92.5065104 27.5968712,89.7363281 30.891142,87.4902344 C37.0304649,83.4472656 43.5441368,80.9765625 50.4321576,80.078125 C57.469918,79.1796875 63.9087201,79.1048177 69.7485639,79.8535156 C69.7485639,66.077474 69.7485639,45.4882812 69.7485639,18.0859375 C69.7485639,15.8398438 70.5721316,13.8932292 72.219267,12.2460938 C73.7166628,10.7486979 75.5884076,10 77.8345014,10 C80.0805951,10 82.0272097,10.7486979 83.6743451,12.2460938 C85.3214805,13.8932292 86.1450483,15.8398438 86.1450483,18.0859375 C86.1450483,39.3489583 86.1450483,60.5371094 86.1450483,81.6503906 C86.1450483,102.913411 86.1450483,124.176432 86.1450483,145.439453 Z M61.7695312,145.863281 C63.5664062,144.964844 65.0638021,144.216146 66.2617188,143.617188 C67.609375,143.018229 68.6575521,142.494141 69.40625,142.044922 C69.40625,132.01237 69.40625,116.963542 69.40625,96.8984375 C67.609375,96.5989583 65.5130208,96.374349 63.1171875,96.2246094 C60.5716146,95.9251302 57.9511719,95.9251302 55.2558594,96.2246094 C48.9667969,96.8235677 43.6510417,98.6204427 39.3085938,101.615234 C34.9661458,104.759766 31.5970052,109.102214 29.2011719,114.642578 C27.1048177,119.733724 26.5058594,124.89974 27.4042969,130.140625 C28.452474,135.38151 30.8483073,139.798828 34.5917969,143.392578 C38.1855469,146.686849 42.3033854,148.558594 46.9453125,149.007812 C51.7369792,149.457031 56.6783854,148.408854 61.7695312,145.863281 Z M95.1699219,25.4980469 C95.3196615,25.6477865 95.5442708,25.7226562 95.84375,25.7226562 C95.9934896,25.7226562 96.1432292,25.7226562 96.2929688,25.7226562 C96.4427083,25.7226562 96.6673177,25.7226562 96.9667969,25.7226562 C97.1165365,25.7226562 97.266276,25.6477865 97.4160156,25.4980469 C97.4160156,48.8574219 97.4160156,83.8216146 97.4160156,130.390625 C96.9667969,130.390625 96.218099,130.390625 95.1699219,130.390625 C95.1699219,112.871094 95.1699219,95.4264323 95.1699219,78.0566406 C95.1699219,60.5371094 95.1699219,43.0175781 95.1699219,25.4980469 Z M96.2929688,16.0644531 C97.640625,16.0644531 98.8385417,16.5136719 99.8867188,17.4121094 C100.785156,18.3105469 101.234375,19.4335938 101.234375,20.78125 C101.234375,21.9791667 100.860026,23.0273438 100.111328,23.9257812 C99.3626302,24.8242188 98.4641927,25.3483073 97.4160156,25.4980469 C97.4160156,25.4980469 97.4160156,25.3483073 97.4160156,25.0488281 C98.3144531,24.749349 99.063151,24.2252604 99.6621094,23.4765625 C100.261068,22.7278646 100.560547,21.8294271 100.560547,20.78125 C100.560547,19.5833333 100.186198,18.610026 99.4375,17.8613281 C98.5390625,16.9628906 97.4908854,16.5136719 96.2929688,16.5136719 C95.0950521,16.5136719 94.1217448,16.9628906 93.3730469,17.8613281 C92.4746094,18.610026 92.0253906,19.5833333 92.0253906,20.78125 C92.0253906,21.8294271 92.3248698,22.7278646 92.9238281,23.4765625 C93.5227865,24.2252604 94.2714844,24.749349 95.1699219,25.0488281 C95.1699219,25.1985677 95.1699219,25.3483073 95.1699219,25.4980469 C94.1217448,25.3483073 93.2233073,24.8242188 92.4746094,23.9257812 C91.7259115,23.0273438 91.3515625,21.9791667 91.3515625,20.78125 C91.3515625,19.4335938 91.875651,18.3105469 92.9238281,17.4121094 C93.8222656,16.5136719 94.9453125,16.0644531 96.2929688,16.0644531 Z M96.2929688,25.2734375 C96.4427083,25.2734375 96.6673177,25.1985677 96.9667969,25.0488281 C97.1165365,25.0488281 97.266276,25.0488281 97.4160156,25.0488281 C97.4160156,25.1985677 97.4160156,25.3483073 97.4160156,25.4980469 C97.266276,25.6477865 97.1165365,25.7226562 96.9667969,25.7226562 C96.6673177,25.7226562 96.4427083,25.7226562 96.2929688,25.7226562 C96.1432292,25.7226562 95.9934896,25.7226562 95.84375,25.7226562 C95.5442708,25.7226562 95.3196615,25.6477865 95.1699219,25.4980469 C95.1699219,25.4980469 95.1699219,25.3483073 95.1699219,25.0488281 C95.3196615,25.0488281 95.5442708,25.0488281 95.84375,25.0488281 C95.9934896,25.1985677 96.1432292,25.2734375 96.2929688,25.2734375 Z M92.4746094,20.78125 C92.4746094,21.6796875 92.7740885,22.4283854 93.3730469,23.0273438 C93.8222656,23.7760417 94.421224,24.2252604 95.1699219,24.375 C95.1699219,24.5247396 95.1699219,24.749349 95.1699219,25.0488281 C94.2714844,24.749349 93.5227865,24.2252604 92.9238281,23.4765625 C92.3248698,22.7278646 92.0253906,21.8294271 92.0253906,20.78125 C92.0253906,19.5833333 92.4746094,18.610026 93.3730469,17.8613281 C94.1217448,16.9628906 95.0950521,16.5136719 96.2929688,16.5136719 C97.4908854,16.5136719 98.5390625,16.9628906 99.4375,17.8613281 C100.186198,18.610026 100.560547,19.5833333 100.560547,20.78125 C100.560547,21.8294271 100.261068,22.7278646 99.6621094,23.4765625 C99.063151,24.2252604 98.3144531,24.749349 97.4160156,25.0488281 C97.4160156,24.8990885 97.4160156,24.6744792 97.4160156,24.375 C98.1647135,24.2252604 98.8385417,23.7760417 99.4375,23.0273438 C99.8867188,22.4283854 100.111328,21.6796875 100.111328,20.78125 C100.111328,21.0807292 100.111328,21.2304688 100.111328,21.2304688 C100.111328,21.3802083 100.111328,21.4550781 100.111328,21.4550781 C100.111328,21.4550781 100.111328,21.3802083 100.111328,21.2304688 C100.111328,21.2304688 100.111328,21.0807292 100.111328,20.78125 C100.111328,20.6315104 100.111328,20.4817708 100.111328,20.3320312 C100.111328,20.3320312 100.111328,20.3320312 100.111328,20.3320312 C100.111328,20.3320312 100.111328,20.3320312 100.111328,20.3320312 C100.111328,20.4817708 100.111328,20.6315104 100.111328,20.78125 C100.111328,19.7330729 99.7369792,18.9095052 98.9882812,18.3105469 C98.2395833,17.561849 97.3411458,17.1875 96.2929688,17.1875 C95.2447917,17.1875 94.3463542,17.561849 93.5976562,18.3105469 C92.8489583,18.9095052 92.4746094,19.7330729 92.4746094,20.78125 Z M97.4160156,25.0488281 C97.266276,25.0488281 97.1165365,25.0488281 96.9667969,25.0488281 C96.6673177,25.1985677 96.4427083,25.2734375 96.2929688,25.2734375 C96.1432292,25.2734375 95.9934896,25.1985677 95.84375,25.0488281 C95.5442708,25.0488281 95.3196615,25.0488281 95.1699219,25.0488281 C95.1699219,24.8990885 95.1699219,24.6744792 95.1699219,24.375 C95.3196615,24.5247396 95.5442708,24.5996094 95.84375,24.5996094 C95.9934896,24.5996094 96.1432292,24.5996094 96.2929688,24.5996094 C96.5924479,24.5996094 96.8170573,24.5996094 96.9667969,24.5996094 C97.1165365,24.5996094 97.266276,24.5247396 97.4160156,24.375 C97.4160156,24.5247396 97.4160156,24.5996094 97.4160156,24.5996094 C97.4160156,24.749349 97.4160156,24.8990885 97.4160156,25.0488281 Z M97.4160156,132.636719 C97.4160156,132.03776 97.4160156,131.289062 97.4160156,130.390625 C98.014974,130.390625 98.7636719,130.390625 99.6621094,130.390625 C98.9134115,133.085938 97.7903646,137.203776 96.2929688,142.744141 C95.5442708,140.048828 94.421224,135.93099 92.9238281,130.390625 C93.5227865,130.390625 94.2714844,130.390625 95.1699219,130.390625 C95.1699219,130.839844 95.1699219,131.588542 95.1699219,132.636719 C95.6191406,132.636719 96.3678385,132.636719 97.4160156,132.636719 Z M95.1699219,130.390625 C95.6191406,130.390625 96.3678385,130.390625 97.4160156,130.390625 C97.4160156,130.839844 97.4160156,131.588542 97.4160156,132.636719 C96.9667969,132.636719 96.218099,132.636719 95.1699219,132.636719 C95.1699219,132.03776 95.1699219,131.289062 95.1699219,130.390625 Z M50.6972656,66.8261719 C50.6972656,66.9759115 50.6972656,67.125651 50.6972656,67.2753906 C50.6972656,67.4251302 50.6972656,67.5748698 50.6972656,67.7246094 C50.6972656,68.0240885 50.6972656,68.2486979 50.6972656,68.3984375 C50.8470052,68.6979167 50.921875,68.9973958 50.921875,69.296875 C42.8359375,70.3450521 35.6484375,72.7408854 29.359375,76.484375 C22.9205729,80.2278646 17.5299479,85.2441406 13.1875,91.5332031 C12.7382812,91.3834635 12.0644531,91.0091146 11.1660156,90.4101562 C15.6582031,83.8216146 21.2734375,78.5807292 28.0117188,74.6875 C34.75,70.6445312 42.311849,68.0240885 50.6972656,66.8261719 Z M9.81835938,92.2070312 C10.2675781,92.5065104 10.9414062,92.9557292 11.8398438,93.5546875 C11.9895833,93.2552083 12.2141927,92.8808594 12.5136719,92.4316406 C12.6634115,92.1321615 12.8880208,91.8326823 13.1875,91.5332031 C13.4869792,91.8326823 14.0859375,92.2070312 14.984375,92.65625 C13.0377604,94.6028646 10.0429688,97.672526 6,101.865234 C6.74869792,99.1699219 7.796875,94.9772135 9.14453125,89.2871094 C9.59375,89.5865885 10.2675781,89.9609375 11.1660156,90.4101562 C10.8665365,90.7096354 10.6419271,91.0091146 10.4921875,91.3085938 C10.3424479,91.6080729 10.1178385,91.9075521 9.81835938,92.2070312 Z M9.81835938,92.2070312 C10.1178385,91.9075521 10.3424479,91.6080729 10.4921875,91.3085938 C10.6419271,91.0091146 10.8665365,90.7096354 11.1660156,90.4101562 C11.6152344,90.7096354 12.2890625,91.0839844 13.1875,91.5332031 C12.8880208,91.8326823 12.6634115,92.1321615 12.5136719,92.4316406 C12.2141927,92.8808594 11.9895833,93.2552083 11.8398438,93.5546875 C11.5403646,93.2552083 11.2408854,93.030599 10.9414062,92.8808594 C10.4921875,92.7311198 10.1178385,92.5065104 9.81835938,92.2070312 Z M55.4140625,72.4414062 C55.4140625,72.4414062 55.4889323,72.4414062 55.6386719,72.4414062 C55.6386719,72.4414062 55.7135417,72.4414062 55.8632812,72.4414062 C55.7135417,72.4414062 55.6386719,72.4414062 55.6386719,72.4414062 C55.4889323,72.4414062 55.4140625,72.4414062 55.4140625,72.4414062 Z M55.4140625,62.7832031 C56.7617188,62.6334635 57.8847656,63.0078125 58.7832031,63.90625 C59.8313802,64.8046875 60.4303385,65.9277344 60.5800781,67.2753906 C60.5800781,68.6230469 60.1308594,69.8209635 59.2324219,70.8691406 C58.3339844,71.9173177 57.2109375,72.4414062 55.8632812,72.4414062 C54.6653646,72.4414062 53.6920573,72.1419271 52.9433594,71.5429687 C52.0449219,70.9440104 51.3710938,70.1953125 50.921875,69.296875 C51.0716146,69.1471354 51.2213542,69.0722656 51.3710938,69.0722656 C51.3710938,69.0722656 51.4459635,69.0722656 51.5957031,69.0722656 C51.8951823,69.9707031 52.4192708,70.6445312 53.1679688,71.09375 C53.9166667,71.6927083 54.8151042,71.9173177 55.8632812,71.7675781 C56.9114583,71.7675781 57.8847656,71.3183594 58.7832031,70.4199219 C59.531901,69.671224 59.90625,68.6979167 59.90625,67.5 C59.90625,66.3020833 59.4570312,65.2539062 58.5585938,64.3554687 C57.6601562,63.6067708 56.6119792,63.2324219 55.4140625,63.2324219 C54.3658854,63.2324219 53.4674479,63.6067708 52.71875,64.3554687 C51.9700521,64.9544271 51.5208333,65.7779948 51.3710938,66.8261719 C51.2213542,66.8261719 51.0716146,66.8261719 50.921875,66.8261719 C50.921875,66.8261719 50.8470052,66.8261719 50.6972656,66.8261719 C50.8470052,65.7779948 51.3710938,64.8046875 52.2695312,63.90625 C53.1679688,63.1575521 54.2161458,62.7832031 55.4140625,62.7832031 Z M55.1894531,72.4414062 C55.1894531,72.4414062 55.2643229,72.4414062 55.4140625,72.4414062 C55.4140625,72.4414062 55.4140625,72.4414062 55.4140625,72.4414062 C55.4140625,72.4414062 55.4140625,72.4414062 55.4140625,72.4414062 C55.2643229,72.4414062 55.1894531,72.4414062 55.1894531,72.4414062 Z M51.1464844,67.7246094 C51.296224,68.0240885 51.3710938,68.2486979 51.3710938,68.3984375 C51.3710938,68.6979167 51.4459635,68.922526 51.5957031,69.0722656 C51.4459635,69.0722656 51.3710938,69.0722656 51.3710938,69.0722656 C51.2213542,69.2220052 51.0716146,69.296875 50.921875,69.296875 C50.921875,68.9973958 50.8470052,68.6979167 50.6972656,68.3984375 C50.6972656,68.2486979 50.6972656,68.0240885 50.6972656,67.7246094 C50.6972656,67.5748698 50.6972656,67.4251302 50.6972656,67.2753906 C50.6972656,67.125651 50.6972656,66.9759115 50.6972656,66.8261719 C50.8470052,66.8261719 50.921875,66.8261719 50.921875,66.8261719 C51.0716146,66.8261719 51.2213542,66.8261719 51.3710938,66.8261719 C51.3710938,66.9759115 51.296224,67.125651 51.1464844,67.2753906 C51.1464844,67.4251302 51.1464844,67.5748698 51.1464844,67.7246094 Z M55.4140625,63.90625 C54.515625,63.90625 53.7669271,64.2057292 53.1679688,64.8046875 C52.5690104,65.2539062 52.1946615,65.9277344 52.0449219,66.8261719 C51.8951823,66.8261719 51.7454427,66.8261719 51.5957031,66.8261719 C51.4459635,66.8261719 51.3710938,66.8261719 51.3710938,66.8261719 C51.5208333,65.7779948 51.9700521,64.9544271 52.71875,64.3554688 C53.4674479,63.6067708 54.3658854,63.2324219 55.4140625,63.2324219 C56.6119792,63.2324219 57.6601562,63.6067708 58.5585938,64.3554688 C59.4570312,65.2539062 59.90625,66.3020833 59.90625,67.5 C59.90625,68.5481771 59.531901,69.5214844 58.7832031,70.4199219 C57.8847656,71.3183594 56.9114583,71.7675781 55.8632812,71.7675781 C54.8151042,71.9173177 53.9166667,71.6927083 53.1679688,71.09375 C52.4192708,70.6445312 51.8951823,69.9707031 51.5957031,69.0722656 C51.5957031,69.0722656 51.6705729,69.0722656 51.8203125,69.0722656 C51.9700521,69.0722656 52.0449219,69.0722656 52.0449219,69.0722656 C52.344401,69.671224 52.8684896,70.1953125 53.6171875,70.6445312 C54.2161458,71.09375 54.889974,71.3183594 55.6386719,71.3183594 C56.686849,71.3183594 57.5852865,70.9440104 58.3339844,70.1953125 C59.0826823,69.4466146 59.3821615,68.5481771 59.2324219,67.5 C59.2324219,66.4518229 58.8580729,65.5533854 58.109375,64.8046875 C57.3606771,64.0559896 56.4622396,63.7565104 55.4140625,63.90625 C55.5638021,63.90625 55.6386719,63.90625 55.6386719,63.90625 C55.7884115,63.90625 55.8632812,63.90625 55.8632812,63.90625 C55.8632812,63.90625 55.7884115,63.90625 55.6386719,63.90625 C55.6386719,63.90625 55.5638021,63.90625 55.4140625,63.90625 C55.2643229,63.90625 55.1894531,63.90625 55.1894531,63.90625 C55.1894531,63.90625 55.1145833,63.90625 54.9648438,63.90625 C55.1145833,63.90625 55.1894531,63.90625 55.1894531,63.90625 C55.3391927,63.90625 55.4140625,63.90625 55.4140625,63.90625 Z M55.4140625,63.90625 C55.5638021,63.90625 55.6386719,63.90625 55.6386719,63.90625 C55.6386719,63.90625 55.7135417,63.90625 55.8632812,63.90625 C55.8632812,63.90625 55.7884115,63.90625 55.6386719,63.90625 C55.6386719,63.90625 55.5638021,63.90625 55.4140625,63.90625 Z M51.5957031,69.0722656 C51.4459635,68.922526 51.3710938,68.6979167 51.3710938,68.3984375 C51.2213542,68.2486979 51.1464844,68.0240885 51.1464844,67.7246094 C51.1464844,67.5748698 51.1464844,67.4251302 51.1464844,67.2753906 C51.1464844,67.125651 51.2213542,66.9759115 51.3710938,66.8261719 C51.3710938,66.8261719 51.4459635,66.8261719 51.5957031,66.8261719 C51.7454427,66.8261719 51.8203125,66.8261719 51.8203125,66.8261719 C51.8203125,66.9759115 51.8203125,67.125651 51.8203125,67.2753906 C51.8203125,67.4251302 51.8203125,67.5748698 51.8203125,67.7246094 C51.8203125,68.0240885 51.8203125,68.2486979 51.8203125,68.3984375 C51.9700521,68.6979167 52.0449219,68.922526 52.0449219,69.0722656 C52.0449219,69.0722656 51.9700521,69.0722656 51.8203125,69.0722656 C51.6705729,69.0722656 51.5957031,69.0722656 51.5957031,69.0722656 Z M55.6386719,39.6484375 C55.6386719,39.6484375 55.7135417,39.7233073 55.8632812,39.8730469 C55.8632812,39.8730469 55.938151,39.9479167 56.0878906,40.0976562 C56.0878906,40.0976562 56.0878906,40.172526 56.0878906,40.3222656 C56.2376302,40.4720052 56.3125,40.546875 56.3125,40.546875 C56.3125,42.4934896 56.3125,44.8144531 56.3125,47.5097656 C56.3125,50.3548177 56.3125,53.5742188 56.3125,57.1679688 C56.3125,57.3177083 56.2376302,57.4674479 56.0878906,57.6171875 C56.0878906,57.7669271 56.0130208,57.8417969 55.8632812,57.8417969 C55.8632812,57.9915365 55.7884115,58.0664062 55.6386719,58.0664062 C55.4889323,58.2161458 55.3391927,58.2910156 55.1894531,58.2910156 C55.0397135,58.2910156 54.889974,58.2161458 54.7402344,58.0664062 C54.7402344,58.0664062 54.6653646,57.9915365 54.515625,57.8417969 C54.3658854,57.8417969 54.2910156,57.7669271 54.2910156,57.6171875 C54.2910156,57.4674479 54.2910156,57.3177083 54.2910156,57.1679688 C54.2910156,55.6705729 54.2910156,53.7239583 54.2910156,51.328125 C54.2910156,48.9322917 54.2910156,46.1621094 54.2910156,43.0175781 C54.141276,43.0175781 54.0664062,43.0924479 54.0664062,43.2421875 C53.9166667,43.3919271 53.7669271,43.5416667 53.6171875,43.6914062 C53.4674479,43.6914062 53.3177083,43.766276 53.1679688,43.9160156 C53.1679688,43.9160156 53.093099,43.9160156 52.9433594,43.9160156 C52.7936198,43.9160156 52.6438802,43.9160156 52.4941406,43.9160156 C52.344401,43.766276 52.2695312,43.6914062 52.2695312,43.6914062 C52.1197917,43.5416667 52.0449219,43.3919271 52.0449219,43.2421875 C51.8951823,43.0924479 51.8203125,43.0175781 51.8203125,43.0175781 C51.8203125,42.8678385 51.8951823,42.718099 52.0449219,42.5683594 C52.0449219,42.4186198 52.1197917,42.2688802 52.2695312,42.1191406 C52.4192708,41.969401 52.71875,41.6699219 53.1679688,41.2207031 C53.6171875,40.7714844 54.0664062,40.3222656 54.515625,39.8730469 C54.6653646,39.8730469 54.7402344,39.7981771 54.7402344,39.6484375 C54.889974,39.6484375 54.9648438,39.6484375 54.9648438,39.6484375 C55.1145833,39.6484375 55.1894531,39.6484375 55.1894531,39.6484375 C55.1894531,39.6484375 55.1894531,39.6484375 55.1894531,39.6484375 C55.3391927,39.6484375 55.4140625,39.6484375 55.4140625,39.6484375 C55.4140625,39.6484375 55.4889323,39.6484375 55.6386719,39.6484375 Z M115.609375,28.6425781 C115.759115,28.6425781 115.908854,28.6425781 116.058594,28.6425781 C116.058594,28.7923177 116.133464,28.8671875 116.283203,28.8671875 C116.432943,29.0169271 116.507812,29.1666667 116.507812,29.3164062 C116.507812,29.4661458 116.507812,29.5410156 116.507812,29.5410156 C116.507812,29.6907552 116.507812,29.8404948 116.507812,29.9902344 C116.507812,30.139974 116.432943,30.2897135 116.283203,30.4394531 C116.133464,30.4394531 116.058594,30.4394531 116.058594,30.4394531 C115.908854,30.5891927 115.759115,30.6640625 115.609375,30.6640625 C114.860677,30.6640625 114.111979,30.6640625 113.363281,30.6640625 C112.464844,30.6640625 111.641276,30.6640625 110.892578,30.6640625 C110.14388,30.6640625 109.395182,30.6640625 108.646484,30.6640625 C107.897786,30.6640625 107.074219,30.6640625 106.175781,30.6640625 C106.175781,30.6640625 106.100911,30.6640625 105.951172,30.6640625 C105.951172,30.6640625 105.951172,30.5891927 105.951172,30.4394531 C105.801432,30.4394531 105.726562,30.4394531 105.726562,30.4394531 C105.576823,30.4394531 105.501953,30.3645833 105.501953,30.2148438 C105.501953,30.2148438 105.501953,30.2148438 105.501953,30.2148438 C105.352214,30.0651042 105.277344,29.9902344 105.277344,29.9902344 C105.277344,29.9902344 105.277344,29.9153646 105.277344,29.765625 C105.277344,29.765625 105.277344,29.6907552 105.277344,29.5410156 C105.277344,29.5410156 105.277344,29.5410156 105.277344,29.5410156 C105.277344,29.5410156 105.277344,29.5410156 105.277344,29.5410156 C105.277344,29.5410156 105.277344,29.391276 105.277344,29.0917969 C105.427083,28.9420573 105.501953,28.6425781 105.501953,28.1933594 C105.651693,27.7441406 105.876302,27.2200521 106.175781,26.6210938 C106.325521,26.171875 106.625,25.6477865 107.074219,25.0488281 C107.223958,24.749349 107.373698,24.4498698 107.523438,24.1503906 C107.822917,23.8509115 108.122396,23.5514323 108.421875,23.2519531 C108.721354,22.952474 109.020833,22.6529948 109.320312,22.3535156 C109.769531,22.0540365 110.14388,21.8294271 110.443359,21.6796875 C111.341797,21.0807292 112.090495,20.5566406 112.689453,20.1074219 C113.138672,19.6582031 113.513021,19.2838542 113.8125,18.984375 C113.96224,18.5351562 114.111979,18.1608073 114.261719,17.8613281 C114.261719,17.561849 114.261719,17.1875 114.261719,16.7382812 C114.261719,16.7382812 114.261719,16.6634115 114.261719,16.5136719 C114.261719,16.3639323 114.261719,16.2890625 114.261719,16.2890625 C114.261719,16.1393229 114.261719,15.9895833 114.261719,15.8398438 C114.261719,15.6901042 114.186849,15.6152344 114.037109,15.6152344 C114.037109,15.3157552 113.96224,15.0911458 113.8125,14.9414062 C113.66276,14.7916667 113.438151,14.6419271 113.138672,14.4921875 C112.839193,14.3424479 112.539714,14.1927083 112.240234,14.0429688 C111.940755,14.0429688 111.491536,14.0429688 110.892578,14.0429688 C110.593099,14.0429688 110.29362,14.0429688 109.994141,14.0429688 C109.694661,14.1927083 109.395182,14.3424479 109.095703,14.4921875 C108.796224,14.6419271 108.571615,14.7916667 108.421875,14.9414062 C108.122396,15.2408854 107.972656,15.5403646 107.972656,15.8398438 C107.822917,15.9895833 107.673177,16.0644531 107.523438,16.0644531 C107.523438,16.2141927 107.448568,16.2890625 107.298828,16.2890625 C107.149089,16.4388021 106.999349,16.5136719 106.849609,16.5136719 C106.69987,16.3639323 106.625,16.2890625 106.625,16.2890625 C106.47526,16.2890625 106.325521,16.2141927 106.175781,16.0644531 C106.175781,16.0644531 106.100911,15.9895833 105.951172,15.8398438 C105.951172,15.6901042 105.951172,15.5403646 105.951172,15.390625 C105.951172,15.2408854 106.026042,15.0911458 106.175781,14.9414062 C106.325521,14.4921875 106.55013,14.1178385 106.849609,13.8183594 C107.149089,13.3691406 107.523438,12.9947917 107.972656,12.6953125 C108.421875,12.5455729 108.871094,12.3958333 109.320312,12.2460938 C109.769531,12.0963542 110.29362,12.0214844 110.892578,12.0214844 C111.940755,12.0214844 112.839193,12.171224 113.587891,12.4707031 C114.186849,12.6204427 114.710938,12.9947917 115.160156,13.59375 C115.609375,14.0429688 115.908854,14.5670573 116.058594,15.1660156 C116.208333,15.764974 116.283203,16.3639323 116.283203,16.9628906 C116.283203,17.561849 116.208333,18.0859375 116.058594,18.5351562 C115.908854,19.1341146 115.609375,19.6582031 115.160156,20.1074219 C114.860677,20.7063802 114.411458,21.2304688 113.8125,21.6796875 C113.213542,22.2786458 112.464844,22.8027344 111.566406,23.2519531 C110.967448,23.7011719 110.36849,24.1503906 109.769531,24.5996094 C109.320312,25.0488281 108.945964,25.5729167 108.646484,26.171875 C108.347005,26.6210938 108.122396,27.0703125 107.972656,27.5195312 C107.673177,27.96875 107.523438,28.343099 107.523438,28.6425781 C108.421875,28.6425781 109.544922,28.6425781 110.892578,28.6425781 C112.240234,28.6425781 113.8125,28.6425781 115.609375,28.6425781 Z"/></svg>