<svg xmlns="http://www.w3.org/2000/svg" width="97" height="203" viewBox="0 0 97 203"><path fill="#131313" d="M843.145048,182.439453 C843.145048,182.888672 843.145048,183.263021 843.145048,183.5625 C843.145048,184.011719 843.145048,184.386068 843.145048,184.685547 C843.145048,186.781901 843.145048,189.851562 843.145048,193.894531 C843.145048,196.140625 842.321481,198.08724 840.674345,199.734375 C839.02721,201.231771 837.080595,201.980469 834.834501,201.980469 C833.187366,201.980469 831.6151,201.53125 830.117705,200.632812 C828.770048,199.584635 827.796741,198.236979 827.197783,196.589844 C827.048043,196.739583 826.898303,196.814453 826.748564,196.814453 C826.598824,196.964193 826.449085,197.039063 826.299345,197.039063 C823.005074,198.686198 819.635934,199.958984 816.191923,200.857422 C812.897652,201.60612 809.603382,201.980469 806.309111,201.980469 C801.517444,201.980469 796.950387,201.156901 792.607939,199.509766 C788.265491,197.86263 784.297392,195.317057 780.703642,191.873047 C774.564319,185.883464 770.59622,178.621094 768.799345,170.085938 C767.15221,161.401042 768.050647,153.015625 771.494658,144.929688 C773.591012,140.28776 775.986845,136.244792 778.682158,132.800781 C781.52721,129.50651 784.596871,126.736328 787.891142,124.490234 C794.030465,120.447266 800.544137,117.976562 807.432158,117.078125 C814.469918,116.179687 820.90872,116.104818 826.748564,116.853516 C826.748564,103.077474 826.748564,96.4882812 826.748564,69.0859375 C826.748564,66.8398438 827.572132,64.8932292 829.219267,63.2460938 C830.716663,61.7486979 832.588408,61 834.834501,61 C837.080595,61 839.02721,61.7486979 840.674345,63.2460938 C842.321481,64.8932292 843.145048,66.8398438 843.145048,69.0859375 C843.145048,90.3489583 843.145048,97.5371094 843.145048,118.650391 C843.145048,139.913411 843.145048,161.176432 843.145048,182.439453 Z M818.769531,182.863281 C820.566406,181.964844 822.063802,181.216146 823.261719,180.617188 C824.609375,180.018229 825.657552,179.494141 826.40625,179.044922 C826.40625,169.01237 826.40625,153.963542 826.40625,133.898438 C824.609375,133.598958 822.513021,133.374349 820.117187,133.224609 C817.571615,132.92513 814.951172,132.92513 812.255859,133.224609 C805.966797,133.823568 800.651042,135.620443 796.308594,138.615234 C791.966146,141.759766 788.597005,146.102214 786.201172,151.642578 C784.104818,156.733724 783.505859,161.89974 784.404297,167.140625 C785.452474,172.38151 787.848307,176.798828 791.591797,180.392578 C795.185547,183.686849 799.303385,185.558594 803.945312,186.007813 C808.736979,186.457031 813.678385,185.408854 818.769531,182.863281 Z M852.169922,76.4980469 C852.319661,76.6477865 852.544271,76.7226562 852.84375,76.7226562 C852.99349,76.7226562 853.143229,76.7226562 853.292969,76.7226562 C853.442708,76.7226562 853.667318,76.7226562 853.966797,76.7226562 C854.116536,76.7226562 854.266276,76.6477865 854.416016,76.4980469 C854.416016,99.8574219 854.416016,120.821615 854.416016,167.390625 C853.966797,167.390625 853.218099,167.390625 852.169922,167.390625 C852.169922,149.871094 852.169922,132.426432 852.169922,115.056641 C852.169922,97.5371094 852.169922,94.0175781 852.169922,76.4980469 Z M853.292969,67.0644531 C854.640625,67.0644531 855.838542,67.5136719 856.886719,68.4121094 C857.785156,69.3105469 858.234375,70.4335937 858.234375,71.78125 C858.234375,72.9791667 857.860026,74.0273437 857.111328,74.9257812 C856.36263,75.8242188 855.464193,76.3483073 854.416016,76.4980469 C854.416016,76.4980469 854.416016,76.3483073 854.416016,76.0488281 C855.314453,75.749349 856.063151,75.2252604 856.662109,74.4765625 C857.261068,73.7278646 857.560547,72.8294271 857.560547,71.78125 C857.560547,70.5833333 857.186198,69.610026 856.4375,68.8613281 C855.539062,67.9628906 854.490885,67.5136719 853.292969,67.5136719 C852.095052,67.5136719 851.121745,67.9628906 850.373047,68.8613281 C849.474609,69.610026 849.025391,70.5833333 849.025391,71.78125 C849.025391,72.8294271 849.32487,73.7278646 849.923828,74.4765625 C850.522786,75.2252604 851.271484,75.749349 852.169922,76.0488281 C852.169922,76.1985677 852.169922,76.3483073 852.169922,76.4980469 C851.121745,76.3483073 850.223307,75.8242188 849.474609,74.9257812 C848.725911,74.0273437 848.351562,72.9791667 848.351562,71.78125 C848.351562,70.4335937 848.875651,69.3105469 849.923828,68.4121094 C850.822266,67.5136719 851.945312,67.0644531 853.292969,67.0644531 Z M853.292969,76.2734375 C853.442708,76.2734375 853.667318,76.1985677 853.966797,76.0488281 C854.116536,76.0488281 854.266276,76.0488281 854.416016,76.0488281 C854.416016,76.1985677 854.416016,76.3483073 854.416016,76.4980469 C854.266276,76.6477865 854.116536,76.7226562 853.966797,76.7226562 C853.667318,76.7226562 853.442708,76.7226562 853.292969,76.7226562 C853.143229,76.7226562 852.99349,76.7226562 852.84375,76.7226562 C852.544271,76.7226562 852.319661,76.6477865 852.169922,76.4980469 C852.169922,76.4980469 852.169922,76.3483073 852.169922,76.0488281 C852.319661,76.0488281 852.544271,76.0488281 852.84375,76.0488281 C852.99349,76.1985677 853.143229,76.2734375 853.292969,76.2734375 Z M849.474609,71.78125 C849.474609,72.6796875 849.774089,73.4283854 850.373047,74.0273437 C850.822266,74.7760417 851.421224,75.2252604 852.169922,75.375 C852.169922,75.5247396 852.169922,75.749349 852.169922,76.0488281 C851.271484,75.749349 850.522786,75.2252604 849.923828,74.4765625 C849.32487,73.7278646 849.025391,72.8294271 849.025391,71.78125 C849.025391,70.5833333 849.474609,69.610026 850.373047,68.8613281 C851.121745,67.9628906 852.095052,67.5136719 853.292969,67.5136719 C854.490885,67.5136719 855.539062,67.9628906 856.4375,68.8613281 C857.186198,69.610026 857.560547,70.5833333 857.560547,71.78125 C857.560547,72.8294271 857.261068,73.7278646 856.662109,74.4765625 C856.063151,75.2252604 855.314453,75.749349 854.416016,76.0488281 C854.416016,75.8990885 854.416016,75.6744792 854.416016,75.375 C855.164714,75.2252604 855.838542,74.7760417 856.4375,74.0273437 C856.886719,73.4283854 857.111328,72.6796875 857.111328,71.78125 C857.111328,72.0807292 857.111328,72.2304687 857.111328,72.2304687 C857.111328,72.3802083 857.111328,72.4550781 857.111328,72.4550781 C857.111328,72.4550781 857.111328,72.3802083 857.111328,72.2304687 C857.111328,72.2304687 857.111328,72.0807292 857.111328,71.78125 C857.111328,71.6315104 857.111328,71.4817708 857.111328,71.3320312 C857.111328,71.4817708 857.111328,71.6315104 857.111328,71.78125 C857.111328,70.7330729 856.736979,69.9095052 855.988281,69.3105469 C855.239583,68.561849 854.341146,68.1875 853.292969,68.1875 C852.244792,68.1875 851.346354,68.561849 850.597656,69.3105469 C849.848958,69.9095052 849.474609,70.7330729 849.474609,71.78125 Z M854.416016,76.0488281 C854.266276,76.0488281 854.116536,76.0488281 853.966797,76.0488281 C853.667318,76.1985677 853.442708,76.2734375 853.292969,76.2734375 C853.143229,76.2734375 852.99349,76.1985677 852.84375,76.0488281 C852.544271,76.0488281 852.319661,76.0488281 852.169922,76.0488281 C852.169922,75.8990885 852.169922,75.6744792 852.169922,75.375 C852.319661,75.5247396 852.544271,75.5996094 852.84375,75.5996094 C852.99349,75.5996094 853.143229,75.5996094 853.292969,75.5996094 C853.592448,75.5996094 853.817057,75.5996094 853.966797,75.5996094 C854.116536,75.5996094 854.266276,75.5247396 854.416016,75.375 C854.416016,75.5247396 854.416016,75.5996094 854.416016,75.5996094 C854.416016,75.749349 854.416016,75.8990885 854.416016,76.0488281 Z M856.662109,167.390625 C855.913411,170.085938 854.790365,174.203776 853.292969,179.744141 C852.544271,177.048828 851.421224,172.93099 849.923828,167.390625 C850.522786,167.390625 855.763672,167.390625 856.662109,167.390625 Z M807.697266,103.826172 C807.697266,103.975911 807.697266,104.125651 807.697266,104.275391 C807.697266,104.42513 807.697266,104.57487 807.697266,104.724609 C807.697266,105.024089 807.697266,105.248698 807.697266,105.398438 C807.847005,105.697917 807.921875,105.997396 807.921875,106.296875 C799.835937,107.345052 792.648437,109.740885 786.359375,113.484375 C779.920573,117.227865 774.529948,122.244141 770.1875,128.533203 C769.738281,128.383464 769.064453,128.009115 768.166016,127.410156 C772.658203,120.821615 778.273437,115.580729 785.011719,111.6875 C791.75,107.644531 799.311849,105.024089 807.697266,103.826172 Z M771.984375,129.65625 C770.03776,131.602865 767.042969,134.672526 763,138.865234 C763.748698,136.169922 764.796875,131.977214 766.144531,126.287109 C768,127.25 770.5,128.5 771.984375,129.65625 Z M812.414062,99.7832031 C813.761719,99.6334635 814.884766,100.007813 815.783203,100.90625 C816.83138,101.804688 817.430339,102.927734 817.580078,104.275391 C817.580078,105.623047 817.130859,106.820964 816.232422,107.869141 C815.333984,108.917318 814.210937,109.441406 812.863281,109.441406 C811.665365,109.441406 810.692057,109.141927 809.943359,108.542969 C809.044922,107.94401 808.371094,107.195313 807.921875,106.296875 C808.071615,106.147135 808.221354,106.072266 808.371094,106.072266 C808.371094,106.072266 808.445964,106.072266 808.595703,106.072266 C808.895182,106.970703 809.419271,107.644531 810.167969,108.09375 C810.916667,108.692708 811.815104,108.917318 812.863281,108.767578 C813.911458,108.767578 814.884766,108.318359 815.783203,107.419922 C816.531901,106.671224 816.90625,105.697917 816.90625,104.5 C816.90625,103.302083 816.457031,102.253906 815.558594,101.355469 C814.660156,100.606771 813.611979,100.232422 812.414062,100.232422 C811.365885,100.232422 810.467448,100.606771 809.71875,101.355469 C808.970052,101.954427 808.520833,102.777995 808.371094,103.826172 C808.221354,103.826172 808.071615,103.826172 807.921875,103.826172 C807.921875,103.826172 807.847005,103.826172 807.697266,103.826172 C807.847005,102.777995 808.371094,101.804688 809.269531,100.90625 C810.167969,100.157552 811.216146,99.7832031 812.414062,99.7832031 Z M808.146484,104.724609 C808.296224,105.024089 808.371094,105.248698 808.371094,105.398438 C808.371094,105.697917 808.445964,105.922526 808.595703,106.072266 C808.445964,106.072266 808.371094,106.072266 808.371094,106.072266 C808.221354,106.222005 808.071615,106.296875 807.921875,106.296875 C807.921875,105.997396 807.847005,105.697917 807.697266,105.398438 C807.697266,105.248698 807.697266,105.024089 807.697266,104.724609 C807.697266,104.57487 807.697266,104.42513 807.697266,104.275391 C807.697266,104.125651 807.697266,103.975911 807.697266,103.826172 C807.847005,103.826172 807.921875,103.826172 807.921875,103.826172 C808.071615,103.826172 808.221354,103.826172 808.371094,103.826172 C808.371094,103.975911 808.296224,104.125651 808.146484,104.275391 C808.146484,104.42513 808.146484,104.57487 808.146484,104.724609 Z M812.414062,100.90625 C811.515625,100.90625 810.766927,101.205729 810.167969,101.804688 C809.56901,102.253906 809.194661,102.927734 809.044922,103.826172 C808.895182,103.826172 808.745443,103.826172 808.595703,103.826172 C808.445964,103.826172 808.371094,103.826172 808.371094,103.826172 C808.520833,102.777995 808.970052,101.954427 809.71875,101.355469 C810.467448,100.606771 811.365885,100.232422 812.414062,100.232422 C813.611979,100.232422 814.660156,100.606771 815.558594,101.355469 C816.457031,102.253906 816.90625,103.302083 816.90625,104.5 C816.90625,105.548177 816.531901,106.521484 815.783203,107.419922 C814.884766,108.318359 813.911458,108.767578 812.863281,108.767578 C811.815104,108.917318 810.916667,108.692708 810.167969,108.09375 C809.419271,107.644531 808.895182,106.970703 808.595703,106.072266 C808.595703,106.072266 808.670573,106.072266 808.820312,106.072266 C808.970052,106.072266 809.044922,106.072266 809.044922,106.072266 C809.344401,106.671224 809.86849,107.195312 810.617187,107.644531 C811.216146,108.09375 811.889974,108.318359 812.638672,108.318359 C813.686849,108.318359 814.585286,107.94401 815.333984,107.195312 C816.082682,106.446615 816.382161,105.548177 816.232422,104.5 C816.232422,103.451823 815.858073,102.553385 815.109375,101.804688 C814.360677,101.05599 813.46224,100.75651 812.414062,100.90625 C812.563802,100.90625 812.638672,100.90625 812.638672,100.90625 C812.788411,100.90625 812.863281,100.90625 812.863281,100.90625 C812.863281,100.90625 812.788411,100.90625 812.638672,100.90625 C812.638672,100.90625 812.563802,100.90625 812.414062,100.90625 C812.264323,100.90625 812.189453,100.90625 812.189453,100.90625 C812.189453,100.90625 812.114583,100.90625 811.964844,100.90625 C812.114583,100.90625 812.189453,100.90625 812.189453,100.90625 C812.339193,100.90625 812.414062,100.90625 812.414062,100.90625 Z M808.595703,106.072266 C808.445964,105.922526 808.371094,105.697917 808.371094,105.398438 C808.221354,105.248698 808.146484,105.024089 808.146484,104.724609 C808.146484,104.57487 808.146484,104.42513 808.146484,104.275391 C808.146484,104.125651 808.221354,103.975911 808.371094,103.826172 C808.371094,103.826172 808.445964,103.826172 808.595703,103.826172 C808.745443,103.826172 808.820312,103.826172 808.820312,103.826172 C808.820312,103.975911 808.820312,104.125651 808.820312,104.275391 C808.820312,104.42513 808.820312,104.57487 808.820312,104.724609 C808.820312,105.024089 808.820312,105.248698 808.820312,105.398438 C808.970052,105.697917 809.044922,105.922526 809.044922,106.072266 C809.044922,106.072266 808.970052,106.072266 808.820312,106.072266 C808.670573,106.072266 808.595703,106.072266 808.595703,106.072266 Z M812.638672,76.6484375 C812.638672,76.6484375 812.713542,76.7233073 812.863281,76.8730469 C812.863281,76.8730469 812.938151,76.9479167 813.087891,77.0976562 C813.087891,77.0976562 813.087891,77.172526 813.087891,77.3222656 C813.23763,77.4720052 813.3125,77.546875 813.3125,77.546875 C813.3125,79.4934896 813.3125,81.8144531 813.3125,84.5097656 C813.3125,87.3548177 813.3125,90.5742188 813.3125,94.1679688 C813.3125,94.3177083 813.23763,94.4674479 813.087891,94.6171875 C813.087891,94.7669271 813.013021,94.8417969 812.863281,94.8417969 C812.863281,94.9915365 812.788411,95.0664062 812.638672,95.0664062 C812.488932,95.2161458 812.339193,95.2910156 812.189453,95.2910156 C812.039714,95.2910156 811.889974,95.2161458 811.740234,95.0664062 C811.740234,95.0664062 811.665365,94.9915365 811.515625,94.8417969 C811.365885,94.8417969 811.291016,94.7669271 811.291016,94.6171875 C811.291016,94.4674479 811.291016,94.3177083 811.291016,94.1679688 C811.291016,92.6705729 811.291016,90.7239583 811.291016,88.328125 C811.291016,85.9322917 811.291016,83.1621094 811.291016,80.0175781 C811.141276,80.0175781 811.066406,80.0924479 811.066406,80.2421875 C810.916667,80.3919271 810.766927,80.5416667 810.617187,80.6914062 C810.467448,80.6914062 810.317708,80.766276 810.167969,80.9160156 C810.167969,80.9160156 810.093099,80.9160156 809.943359,80.9160156 C809.79362,80.9160156 809.64388,80.9160156 809.494141,80.9160156 C809.344401,80.766276 809.269531,80.6914062 809.269531,80.6914062 C809.119792,80.5416667 809.044922,80.3919271 809.044922,80.2421875 C808.895182,80.0924479 808.820312,80.0175781 808.820312,80.0175781 C808.820312,79.8678385 808.895182,79.718099 809.044922,79.5683594 C809.044922,79.4186198 809.119792,79.2688802 809.269531,79.1191406 C809.419271,78.969401 809.71875,78.6699219 810.167969,78.2207031 C810.617187,77.7714844 811.066406,77.3222656 811.515625,76.8730469 C811.665365,76.8730469 811.740234,76.7981771 811.740234,76.6484375 C811.889974,76.6484375 811.964844,76.6484375 811.964844,76.6484375 C812.114583,76.6484375 812.189453,76.6484375 812.189453,76.6484375 C812.189453,76.6484375 812.189453,76.6484375 812.189453,76.6484375 C812.339193,76.6484375 812.414062,76.6484375 812.414062,76.6484375 C812.414062,76.6484375 812.488932,76.6484375 812.638672,76.6484375 Z M872.609375,79.6425781 C872.759115,79.6425781 872.908854,79.6425781 873.058594,79.6425781 C873.058594,79.7923177 873.133464,79.8671875 873.283203,79.8671875 C873.432943,80.0169271 873.507812,80.1666667 873.507812,80.3164063 C873.507812,80.4661458 873.507812,80.5410156 873.507812,80.5410156 C873.507812,80.6907552 873.507812,80.8404948 873.507812,80.9902344 C873.507812,81.139974 873.432943,81.2897135 873.283203,81.4394531 C873.133464,81.4394531 873.058594,81.4394531 873.058594,81.4394531 C872.908854,81.5891927 872.759115,81.6640625 872.609375,81.6640625 C871.860677,81.6640625 871.111979,81.6640625 870.363281,81.6640625 C869.464844,81.6640625 868.641276,81.6640625 867.892578,81.6640625 C867.14388,81.6640625 866.395182,81.6640625 865.646484,81.6640625 C864.897786,81.6640625 864.074219,81.6640625 863.175781,81.6640625 C863.175781,81.6640625 863.100911,81.6640625 862.951172,81.6640625 C862.951172,81.6640625 862.951172,81.5891927 862.951172,81.4394531 C862.801432,81.4394531 862.726562,81.4394531 862.726562,81.4394531 C862.576823,81.4394531 862.501953,81.3645833 862.501953,81.2148438 C862.352214,81.0651042 862.277344,80.9902344 862.277344,80.9902344 C862.277344,80.9902344 862.277344,80.9153646 862.277344,80.765625 C862.277344,80.765625 862.277344,80.6907552 862.277344,80.5410156 C862.277344,80.5410156 862.277344,80.391276 862.277344,80.0917969 C862.427083,79.9420573 862.501953,79.6425781 862.501953,79.1933594 C862.651693,78.7441406 862.876302,78.2200521 863.175781,77.6210938 C863.325521,77.171875 863.625,76.6477865 864.074219,76.0488281 C864.223958,75.749349 864.373698,75.4498698 864.523437,75.1503906 C864.822917,74.8509115 865.122396,74.5514323 865.421875,74.2519531 C865.721354,73.952474 866.020833,73.6529948 866.320312,73.3535156 C866.769531,73.0540365 867.14388,72.8294271 867.443359,72.6796875 C868.341797,72.0807292 869.090495,71.5566406 869.689453,71.1074219 C870.138672,70.6582031 870.513021,70.2838542 870.8125,69.984375 C870.96224,69.5351563 871.111979,69.1608073 871.261719,68.8613281 C871.261719,68.561849 871.261719,68.1875 871.261719,67.7382813 C871.261719,67.7382813 871.261719,67.6634115 871.261719,67.5136719 C871.261719,67.3639323 871.261719,67.2890625 871.261719,67.2890625 C871.261719,67.1393229 871.261719,66.9895833 871.261719,66.8398437 C871.261719,66.6901042 871.186849,66.6152344 871.037109,66.6152344 C871.037109,66.3157552 870.96224,66.0911458 870.8125,65.9414062 C870.66276,65.7916667 870.438151,65.6419271 870.138672,65.4921875 C869.839193,65.3424479 869.539714,65.1927083 869.240234,65.0429688 C868.940755,65.0429688 868.491536,65.0429688 867.892578,65.0429688 C867.593099,65.0429688 867.29362,65.0429688 866.994141,65.0429688 C866.694661,65.1927083 866.395182,65.3424479 866.095703,65.4921875 C865.796224,65.6419271 865.571615,65.7916667 865.421875,65.9414062 C865.122396,66.2408854 864.972656,66.5403646 864.972656,66.8398437 C864.822917,66.9895833 864.673177,67.0644531 864.523437,67.0644531 C864.523437,67.2141927 864.448568,67.2890625 864.298828,67.2890625 C864.149089,67.4388021 863.999349,67.5136719 863.849609,67.5136719 C863.69987,67.3639323 863.625,67.2890625 863.625,67.2890625 C863.47526,67.2890625 863.325521,67.2141927 863.175781,67.0644531 C863.175781,67.0644531 863.100911,66.9895833 862.951172,66.8398437 C862.951172,66.6901042 862.951172,66.5403646 862.951172,66.390625 C862.951172,66.2408854 863.026042,66.0911458 863.175781,65.9414062 C863.325521,65.4921875 863.55013,65.1178385 863.849609,64.8183594 C864.149089,64.3691406 864.523437,63.9947917 864.972656,63.6953125 C865.421875,63.5455729 865.871094,63.3958333 866.320312,63.2460937 C866.769531,63.0963542 867.29362,63.0214844 867.892578,63.0214844 C868.940755,63.0214844 869.839193,63.171224 870.587891,63.4707031 C871.186849,63.6204427 871.710937,63.9947917 872.160156,64.59375 C872.609375,65.0429688 872.908854,65.5670573 873.058594,66.1660156 C873.208333,66.764974 873.283203,67.3639323 873.283203,67.9628906 C873.283203,68.561849 873.208333,69.0859375 873.058594,69.5351562 C872.908854,70.1341146 872.609375,70.6582031 872.160156,71.1074219 C871.860677,71.7063802 871.411458,72.2304687 870.8125,72.6796875 C870.213542,73.2786458 869.464844,73.8027344 868.566406,74.2519531 C867.967448,74.7011719 867.36849,75.1503906 866.769531,75.5996094 C866.320312,76.0488281 865.945964,76.5729167 865.646484,77.171875 C865.347005,77.6210937 865.122396,78.0703125 864.972656,78.5195312 C864.673177,78.96875 864.523437,79.343099 864.523437,79.6425781 C865.421875,79.6425781 866.544922,79.6425781 867.892578,79.6425781 C869.240234,79.6425781 870.8125,79.6425781 872.609375,79.6425781 Z" transform="translate(-757)"/></svg>