<svg xmlns="http://www.w3.org/2000/svg" width="120" height="203" viewBox="0 0 120 203"><path fill="#131313" d="M935.851445,188.303711 C937.911992,188.303711 939.697799,188.99056 941.208867,190.364258 C942.582565,191.875326 943.269414,193.661133 943.269414,195.72168 C943.269414,197.782227 942.582565,199.568034 941.208867,201.079102 C939.697799,202.452799 937.911992,203.139648 935.851445,203.139648 C921.290247,203.139648 899.379766,203.139648 870.12,203.139648 C868.059453,203.139648 866.273646,202.452799 864.762578,201.079102 C863.25151,199.568034 862.495977,197.782227 862.495977,195.72168 C862.495977,167.423503 862.495977,124.976237 862.495977,68.3798828 C862.495977,66.3193359 863.25151,64.5335286 864.762578,63.0224609 C866.273646,61.648763 868.059453,60.9619141 870.12,60.9619141 C884.269089,60.9619141 905.561406,60.9619141 933.996953,60.9619141 C936.0575,60.9619141 937.774622,61.648763 939.14832,63.0224609 C940.659388,64.5335286 941.414922,66.3193359 941.414922,68.3798828 C941.414922,70.4404297 940.659388,72.1575521 939.14832,73.53125 C937.774622,75.0423177 936.0575,75.7978516 933.996953,75.7978516 C921.358932,75.7978516 902.539271,75.7978516 877.537969,75.7978516 C877.537969,86.6500651 877.537969,102.928385 877.537969,124.632813 C889.489141,124.632813 907.347214,124.632813 931.112187,124.632813 C933.172734,124.632813 934.958542,125.319661 936.469609,126.693359 C937.980677,128.204427 938.736211,129.990234 938.736211,132.050781 C938.736211,134.111328 937.980677,135.897135 936.469609,137.408203 C934.958542,138.781901 933.172734,139.46875 931.112187,139.46875 C919.298385,139.46875 901.440312,139.46875 877.537969,139.46875 C877.537969,150.320964 877.537969,166.599284 877.537969,188.303711 C887.291224,188.303711 897.044479,188.303711 906.797734,188.303711 C916.41362,188.303711 926.09819,188.303711 935.851445,188.303711 Z M892.542852,148.535156 C892.542852,148.672526 892.542852,148.809896 892.542852,148.947266 C892.542852,149.084635 892.474167,149.29069 892.336797,149.56543 C897.831589,149.56543 906.005091,149.56543 916.857305,149.56543 C916.857305,149.015951 916.857305,148.260417 916.857305,147.298828 C911.362513,147.298828 903.18901,147.298828 892.336797,147.298828 C892.474167,147.573568 892.542852,147.779622 892.542852,147.916992 C892.542852,148.054362 892.542852,148.260417 892.542852,148.535156 Z M916.857305,151.625977 C916.857305,151.076497 916.857305,150.389648 916.857305,149.56543 C917.269414,149.56543 917.956263,149.56543 918.917852,149.56543 C918.917852,149.015951 918.917852,148.260417 918.917852,147.298828 C918.368372,147.298828 917.681523,147.298828 916.857305,147.298828 C916.857305,146.886719 916.857305,146.268555 916.857305,145.444336 C919.329961,146.131185 923.10763,147.161458 928.190312,148.535156 C925.717656,149.222005 921.939987,150.252279 916.857305,151.625977 Z M916.857305,147.298828 C917.269414,147.298828 917.956263,147.298828 918.917852,147.298828 C918.917852,147.848307 918.917852,148.603841 918.917852,149.56543 C918.368372,149.56543 917.681523,149.56543 916.857305,149.56543 C916.857305,149.015951 916.857305,148.260417 916.857305,147.298828 Z M888.009648,152.450195 C888.971237,152.450195 889.795456,152.175456 890.482305,151.625977 C891.169154,151.076497 891.649948,150.389648 891.924687,149.56543 C891.924687,149.56543 892.062057,149.56543 892.336797,149.56543 C892.199427,150.527018 891.718633,151.351237 890.894414,152.038086 C890.070195,152.587565 889.108607,152.862305 888.009648,152.862305 C886.77332,152.862305 885.743047,152.450195 884.918828,151.625977 C883.95724,150.801758 883.476445,149.771484 883.476445,148.535156 C883.476445,147.298828 883.95724,146.19987 884.918828,145.238281 C885.743047,144.414062 886.77332,144.001953 888.009648,144.001953 C889.108607,144.001953 890.070195,144.345378 890.894414,145.032227 C891.581263,145.581706 892.062057,146.33724 892.336797,147.298828 C892.199427,147.298828 892.062057,147.298828 891.924687,147.298828 C891.649948,146.474609 891.169154,145.78776 890.482305,145.238281 C889.795456,144.688802 888.971237,144.414062 888.009648,144.414062 C886.91069,144.414062 886.017786,144.826172 885.330937,145.650391 C884.506719,146.474609 884.094609,147.436198 884.094609,148.535156 C884.094609,149.634115 884.506719,150.527018 885.330937,151.213867 C886.017786,152.038086 886.91069,152.450195 888.009648,152.450195 Z M891.924687,147.298828 C891.924687,147.573568 891.924687,147.779622 891.924687,147.916992 C891.924687,148.054362 891.924687,148.260417 891.924687,148.535156 C891.924687,148.672526 891.924687,148.809896 891.924687,148.947266 C891.924687,149.084635 891.924687,149.29069 891.924687,149.56543 C891.924687,149.56543 892.062057,149.56543 892.336797,149.56543 C892.474167,149.29069 892.542852,149.084635 892.542852,148.947266 C892.542852,148.809896 892.542852,148.672526 892.542852,148.535156 C892.542852,148.260417 892.542852,148.054362 892.542852,147.916992 C892.542852,147.779622 892.474167,147.573568 892.336797,147.298828 C892.336797,147.298828 892.268112,147.298828 892.130742,147.298828 C891.993372,147.298828 891.924687,147.298828 891.924687,147.298828 Z M888.009648,144.414062 C888.971237,144.414062 889.795456,144.688802 890.482305,145.238281 C891.169154,145.78776 891.649948,146.474609 891.924687,147.298828 C891.787318,147.298828 891.581263,147.298828 891.306523,147.298828 C891.031784,146.611979 890.619674,146.0625 890.070195,145.650391 C889.520716,145.238281 888.833867,145.032227 888.009648,145.032227 C887.04806,145.032227 886.223841,145.375651 885.536992,146.0625 C884.850143,146.749349 884.506719,147.573568 884.506719,148.535156 C884.506719,149.496745 884.850143,150.252279 885.536992,150.801758 C886.223841,151.488607 887.04806,151.832031 888.009648,151.832031 C887.872279,151.832031 887.734909,151.832031 887.597539,151.832031 C887.460169,151.832031 887.391484,151.832031 887.391484,151.832031 C887.391484,151.832031 887.460169,151.832031 887.597539,151.832031 C887.734909,151.832031 887.872279,151.832031 888.009648,151.832031 C888.147018,151.832031 888.284388,151.832031 888.421758,151.832031 C888.559128,151.832031 888.627812,151.832031 888.627812,151.832031 C888.627812,151.832031 888.559128,151.832031 888.421758,151.832031 C888.284388,151.832031 888.147018,151.832031 888.009648,151.832031 C888.833867,151.832031 889.520716,151.625977 890.070195,151.213867 C890.619674,150.801758 891.031784,150.252279 891.306523,149.56543 C891.443893,149.56543 891.649948,149.56543 891.924687,149.56543 C891.649948,150.389648 891.169154,151.076497 890.482305,151.625977 C889.795456,152.175456 888.971237,152.450195 888.009648,152.450195 C886.91069,152.450195 886.017786,152.038086 885.330937,151.213867 C884.506719,150.527018 884.094609,149.634115 884.094609,148.535156 C884.094609,147.436198 884.506719,146.474609 885.330937,145.650391 C886.017786,144.826172 886.91069,144.414062 888.009648,144.414062 Z M891.306523,149.56543 C891.443893,149.56543 891.649948,149.56543 891.924687,149.56543 C891.924687,149.29069 891.924687,149.084635 891.924687,148.947266 C891.924687,148.809896 891.924687,148.672526 891.924687,148.535156 C891.924687,148.260417 891.924687,148.054362 891.924687,147.916992 C891.924687,147.779622 891.924687,147.573568 891.924687,147.298828 C891.787318,147.298828 891.581263,147.298828 891.306523,147.298828 C891.306523,147.573568 891.375208,147.779622 891.512578,147.916992 C891.512578,148.054362 891.512578,148.260417 891.512578,148.535156 C891.512578,148.672526 891.512578,148.809896 891.512578,148.947266 C891.375208,149.084635 891.306523,149.29069 891.306523,149.56543 Z M892.542852,84.8642578 C892.542852,85.0016276 892.542852,85.1389974 892.542852,85.2763672 C892.542852,85.413737 892.474167,85.6197917 892.336797,85.8945312 C898.381068,85.8945312 907.447474,85.8945312 919.536016,85.8945312 C919.536016,85.3450521 919.536016,84.5895182 919.536016,83.6279297 C913.491745,83.6279297 904.425339,83.6279297 892.336797,83.6279297 C892.474167,83.9026693 892.542852,84.108724 892.542852,84.2460938 C892.542852,84.3834635 892.542852,84.5895182 892.542852,84.8642578 Z M919.536016,83.6279297 C919.536016,83.2158203 919.536016,82.5976562 919.536016,81.7734375 C922.008672,82.4602865 925.786341,83.4905599 930.869023,84.8642578 C928.396367,85.5511068 924.618698,86.5126953 919.536016,87.7490234 C919.536016,87.3369141 919.536016,86.71875 919.536016,85.8945312 C919.948125,85.8945312 920.634974,85.8945312 921.596562,85.8945312 C921.596562,85.3450521 921.596562,84.5895182 921.596562,83.6279297 C921.184453,83.6279297 920.497604,83.6279297 919.536016,83.6279297 Z M919.536016,83.6279297 C919.948125,83.6279297 920.634974,83.6279297 921.596562,83.6279297 C921.596562,84.1774089 921.596562,84.9329427 921.596562,85.8945312 C921.184453,85.8945312 920.497604,85.8945312 919.536016,85.8945312 C919.536016,85.3450521 919.536016,84.5895182 919.536016,83.6279297 Z M888.009648,88.7792969 C888.971237,88.7792969 889.795456,88.5045573 890.482305,87.9550781 C891.169154,87.405599 891.649948,86.71875 891.924687,85.8945312 C891.924687,85.8945312 892.062057,85.8945312 892.336797,85.8945312 C892.199427,86.8561198 891.718633,87.6803385 890.894414,88.3671875 C890.070195,88.9166667 889.108607,89.1914062 888.009648,89.1914062 C886.77332,89.1914062 885.743047,88.7792969 884.918828,87.9550781 C883.95724,87.1308594 883.476445,86.1005859 883.476445,84.8642578 C883.476445,83.6279297 883.95724,82.5289714 884.918828,81.5673828 C885.743047,80.7431641 886.77332,80.3310547 888.009648,80.3310547 C889.108607,80.3310547 890.070195,80.6744792 890.894414,81.3613281 C891.581263,81.9108073 892.062057,82.6663411 892.336797,83.6279297 C892.199427,83.6279297 892.062057,83.6279297 891.924687,83.6279297 C891.649948,82.8037109 891.169154,82.116862 890.482305,81.5673828 C889.795456,81.0179036 888.971237,80.7431641 888.009648,80.7431641 C886.91069,80.7431641 886.017786,81.1552734 885.330937,81.9794922 C884.506719,82.8037109 884.094609,83.7652995 884.094609,84.8642578 C884.094609,85.9632161 884.506719,86.8561198 885.330937,87.5429688 C886.017786,88.3671875 886.91069,88.7792969 888.009648,88.7792969 Z M891.924687,83.6279297 C891.924687,83.9026693 891.924687,84.108724 891.924687,84.2460938 C891.924687,84.3834635 891.924687,84.5895182 891.924687,84.8642578 C891.924687,85.0016276 891.924687,85.1389974 891.924687,85.2763672 C891.924687,85.413737 891.924687,85.6197917 891.924687,85.8945312 C891.924687,85.8945312 892.062057,85.8945312 892.336797,85.8945312 C892.474167,85.6197917 892.542852,85.413737 892.542852,85.2763672 C892.542852,85.1389974 892.542852,85.0016276 892.542852,84.8642578 C892.542852,84.5895182 892.542852,84.3834635 892.542852,84.2460938 C892.542852,84.108724 892.474167,83.9026693 892.336797,83.6279297 C892.336797,83.6279297 892.268112,83.6279297 892.130742,83.6279297 C891.993372,83.6279297 891.924687,83.6279297 891.924687,83.6279297 Z M888.009648,80.7431641 C888.971237,80.7431641 889.795456,81.0179036 890.482305,81.5673828 C891.169154,82.116862 891.649948,82.8037109 891.924687,83.6279297 C891.787318,83.6279297 891.581263,83.6279297 891.306523,83.6279297 C891.031784,82.9410807 890.619674,82.3916016 890.070195,81.9794922 C889.520716,81.5673828 888.833867,81.3613281 888.009648,81.3613281 C887.04806,81.3613281 886.223841,81.7047526 885.536992,82.3916016 C884.850143,83.0784505 884.506719,83.9026693 884.506719,84.8642578 C884.506719,85.6884766 884.850143,86.4440104 885.536992,87.1308594 C886.223841,87.8177083 887.04806,88.1611328 888.009648,88.1611328 C887.872279,88.1611328 887.734909,88.1611328 887.597539,88.1611328 C887.460169,88.1611328 887.391484,88.1611328 887.391484,88.1611328 C887.391484,88.1611328 887.460169,88.1611328 887.597539,88.1611328 C887.734909,88.1611328 887.872279,88.1611328 888.009648,88.1611328 C888.147018,88.1611328 888.284388,88.1611328 888.421758,88.1611328 C888.559128,88.1611328 888.627812,88.1611328 888.627812,88.1611328 C888.627812,88.1611328 888.559128,88.1611328 888.421758,88.1611328 C888.284388,88.1611328 888.147018,88.1611328 888.009648,88.1611328 C888.833867,88.1611328 889.520716,87.9550781 890.070195,87.5429688 C890.619674,87.1308594 891.031784,86.5813802 891.306523,85.8945312 C891.443893,85.8945312 891.649948,85.8945312 891.924687,85.8945312 C891.649948,86.71875 891.169154,87.405599 890.482305,87.9550781 C889.795456,88.5045573 888.971237,88.7792969 888.009648,88.7792969 C886.91069,88.7792969 886.017786,88.3671875 885.330937,87.5429688 C884.506719,86.8561198 884.094609,85.9632161 884.094609,84.8642578 C884.094609,83.7652995 884.506719,82.8037109 885.330937,81.9794922 C886.017786,81.1552734 886.91069,80.7431641 888.009648,80.7431641 Z M891.306523,85.8945312 C891.443893,85.8945312 891.649948,85.8945312 891.924687,85.8945312 C891.924687,85.6197917 891.924687,85.413737 891.924687,85.2763672 C891.924687,85.1389974 891.924687,85.0016276 891.924687,84.8642578 C891.924687,84.5895182 891.924687,84.3834635 891.924687,84.2460938 C891.924687,84.108724 891.924687,83.9026693 891.924687,83.6279297 C891.787318,83.6279297 891.581263,83.6279297 891.306523,83.6279297 C891.306523,83.9026693 891.375208,84.108724 891.512578,84.2460938 C891.512578,84.3834635 891.512578,84.5895182 891.512578,84.8642578 C891.512578,85.0016276 891.512578,85.1389974 891.512578,85.2763672 C891.375208,85.413737 891.306523,85.6197917 891.306523,85.8945312 Z M849.683477,77.2402344 C849.820846,77.2402344 849.958216,77.2402344 850.095586,77.2402344 C850.232956,77.2402344 850.43901,77.2402344 850.71375,77.2402344 C850.85112,77.2402344 850.98849,77.2402344 851.125859,77.2402344 C851.400599,77.2402344 851.606654,77.2402344 851.744023,77.2402344 C851.744023,101.005208 851.744023,136.652669 851.744023,184.182617 C851.194544,184.182617 850.507695,184.182617 849.683477,184.182617 C849.683477,166.324544 849.683477,148.466471 849.683477,130.608398 C849.683477,112.887695 849.683477,95.0983073 849.683477,77.2402344 Z M849.683477,186.449219 C849.683477,185.89974 849.683477,185.144206 849.683477,184.182617 C849.133997,184.182617 848.447148,184.182617 847.62293,184.182617 C848.309779,186.792643 849.340052,190.638997 850.71375,195.72168 C851.400599,193.111654 852.430872,189.265299 853.80457,184.182617 C853.255091,184.182617 852.568242,184.182617 851.744023,184.182617 C851.744023,184.732096 851.744023,185.48763 851.744023,186.449219 C851.194544,186.449219 850.507695,186.449219 849.683477,186.449219 Z M849.683477,186.449219 C850.095586,186.449219 850.782435,186.449219 851.744023,186.449219 C851.744023,185.89974 851.744023,185.144206 851.744023,184.182617 C851.194544,184.182617 850.507695,184.182617 849.683477,184.182617 C849.683477,184.732096 849.683477,185.48763 849.683477,186.449219 Z M849.683477,76.6220703 C849.683477,76.7594401 849.683477,76.9654948 849.683477,77.2402344 C848.584518,76.9654948 847.760299,76.4160156 847.21082,75.5917969 C846.523971,74.7675781 846.180547,73.8746745 846.180547,72.9130859 C846.180547,71.6767578 846.592656,70.5777995 847.416875,69.6162109 C848.378464,68.7919922 849.477422,68.3798828 850.71375,68.3798828 C851.950078,68.3798828 852.980352,68.7919922 853.80457,69.6162109 C854.766159,70.5777995 855.246953,71.6767578 855.246953,72.9130859 C855.246953,73.8746745 854.903529,74.7675781 854.21668,75.5917969 C853.529831,76.4160156 852.705612,76.9654948 851.744023,77.2402344 C851.744023,77.1028646 851.744023,76.8968099 851.744023,76.6220703 C852.568242,76.3473307 853.255091,75.8665365 853.80457,75.1796875 C854.354049,74.4928385 854.628789,73.7373047 854.628789,72.9130859 C854.628789,71.8141276 854.21668,70.8525391 853.392461,70.0283203 C852.705612,69.2041016 851.812708,68.7919922 850.71375,68.7919922 C849.614792,68.7919922 848.653203,69.2041016 847.828984,70.0283203 C847.004766,70.8525391 846.592656,71.8141276 846.592656,72.9130859 C846.592656,73.7373047 846.867396,74.4928385 847.416875,75.1796875 C848.103724,75.8665365 848.859258,76.3473307 849.683477,76.6220703 Z M850.71375,76.828125 C850.85112,76.828125 850.98849,76.828125 851.125859,76.828125 C851.400599,76.6907552 851.606654,76.6220703 851.744023,76.6220703 C851.744023,76.7594401 851.744023,76.9654948 851.744023,77.2402344 C851.606654,77.2402344 851.400599,77.2402344 851.125859,77.2402344 C850.98849,77.2402344 850.85112,77.2402344 850.71375,77.2402344 C850.43901,77.2402344 850.232956,77.2402344 850.095586,77.2402344 C849.958216,77.2402344 849.820846,77.2402344 849.683477,77.2402344 C849.683477,77.1028646 849.683477,76.8968099 849.683477,76.6220703 C849.820846,76.6220703 849.958216,76.6907552 850.095586,76.828125 C850.232956,76.828125 850.43901,76.828125 850.71375,76.828125 Z M847.21082,72.9130859 C847.21082,73.5999349 847.416875,74.218099 847.828984,74.7675781 C848.378464,75.4544271 848.996628,75.8665365 849.683477,76.0039062 C849.683477,76.141276 849.683477,76.3473307 849.683477,76.6220703 C848.859258,76.3473307 848.103724,75.8665365 847.416875,75.1796875 C846.867396,74.4928385 846.592656,73.7373047 846.592656,72.9130859 C846.592656,71.8141276 847.004766,70.8525391 847.828984,70.0283203 C848.653203,69.2041016 849.614792,68.7919922 850.71375,68.7919922 C851.812708,68.7919922 852.705612,69.2041016 853.392461,70.0283203 C854.21668,70.8525391 854.628789,71.8141276 854.628789,72.9130859 C854.628789,73.7373047 854.354049,74.4928385 853.80457,75.1796875 C853.255091,75.8665365 852.568242,76.3473307 851.744023,76.6220703 C851.744023,76.4847005 851.744023,76.2786458 851.744023,76.0039062 C852.430872,75.8665365 852.980352,75.4544271 853.392461,74.7675781 C853.80457,74.218099 854.010625,73.5999349 854.010625,72.9130859 C854.010625,71.9514974 853.735885,71.1272786 853.186406,70.4404297 C852.499557,69.7535807 851.675339,69.4101562 850.71375,69.4101562 C849.752161,69.4101562 848.927943,69.7535807 848.241094,70.4404297 C847.554245,71.1272786 847.21082,71.9514974 847.21082,72.9130859 C847.21082,72.6383464 847.21082,72.5009766 847.21082,72.5009766 C847.21082,72.3636068 847.21082,72.2949219 847.21082,72.2949219 C847.21082,72.2949219 847.21082,72.3636068 847.21082,72.5009766 C847.21082,72.5009766 847.21082,72.6383464 847.21082,72.9130859 C847.21082,73.0504557 847.21082,73.1191406 847.21082,73.1191406 C847.21082,73.2565104 847.21082,73.3251953 847.21082,73.3251953 C847.21082,73.3251953 847.21082,73.2565104 847.21082,73.1191406 C847.21082,73.1191406 847.21082,73.0504557 847.21082,72.9130859 Z M851.744023,76.6220703 C851.606654,76.6220703 851.400599,76.6907552 851.125859,76.828125 C850.98849,76.828125 850.85112,76.828125 850.71375,76.828125 C850.43901,76.828125 850.232956,76.7594401 850.095586,76.6220703 C849.958216,76.6220703 849.820846,76.6220703 849.683477,76.6220703 C849.683477,76.4847005 849.683477,76.2786458 849.683477,76.0039062 C849.820846,76.141276 849.958216,76.2099609 850.095586,76.2099609 C850.232956,76.2099609 850.43901,76.2099609 850.71375,76.2099609 C850.85112,76.2099609 850.98849,76.2099609 851.125859,76.2099609 C851.400599,76.2099609 851.606654,76.141276 851.744023,76.0039062 C851.744023,76.141276 851.744023,76.2786458 851.744023,76.4160156 C851.744023,76.4160156 851.744023,76.4847005 851.744023,76.6220703 Z M921.390508,213.236328 C921.390508,212.686849 921.390508,212 921.390508,211.175781 C911.362513,211.175781 896.183151,211.175781 875.852422,211.175781 C875.989792,211.313151 876.058477,211.450521 876.058477,211.587891 C876.058477,211.72526 876.058477,211.931315 876.058477,212.206055 C876.058477,212.343424 876.058477,212.480794 876.058477,212.618164 C876.058477,212.892904 875.989792,213.098958 875.852422,213.236328 C883.54513,213.236328 891.169154,213.236328 898.724492,213.236328 C906.279831,213.236328 913.835169,213.236328 921.390508,213.236328 Z M923.451055,211.175781 C923.038945,211.175781 922.352096,211.175781 921.390508,211.175781 C921.390508,210.626302 921.390508,209.939453 921.390508,209.115234 C924.000534,209.802083 927.846888,210.832357 932.92957,212.206055 C930.319544,212.892904 926.47319,213.923177 921.390508,215.296875 C921.390508,214.747396 921.390508,214.060547 921.390508,213.236328 C921.939987,213.236328 922.626836,213.236328 923.451055,213.236328 C923.451055,212.686849 923.451055,212 923.451055,211.175781 Z M921.390508,211.175781 C921.939987,211.175781 922.626836,211.175781 923.451055,211.175781 C923.451055,211.587891 923.451055,212.27474 923.451055,213.236328 C923.038945,213.236328 922.352096,213.236328 921.390508,213.236328 C921.390508,212.686849 921.390508,212 921.390508,211.175781 Z M871.525273,216.739258 C870.288945,216.739258 869.258672,216.258464 868.434453,215.296875 C867.472865,214.472656 866.99207,213.442383 866.99207,212.206055 C866.99207,210.969727 867.472865,209.870768 868.434453,208.90918 C869.258672,208.084961 870.288945,207.672852 871.525273,207.672852 C872.624232,207.672852 873.58582,208.016276 874.410039,208.703125 C875.234258,209.252604 875.715052,210.076823 875.852422,211.175781 C875.715052,211.175781 875.577682,211.175781 875.440312,211.175781 C875.165573,210.351562 874.684779,209.664714 873.99793,209.115234 C873.311081,208.565755 872.486862,208.291016 871.525273,208.291016 C870.426315,208.291016 869.533411,208.63444 868.846562,209.321289 C868.022344,210.145508 867.610234,211.107096 867.610234,212.206055 C867.610234,213.305013 868.022344,214.197917 868.846562,214.884766 C869.533411,215.708984 870.426315,216.121094 871.525273,216.121094 C872.486862,216.121094 873.311081,215.846354 873.99793,215.296875 C874.684779,214.747396 875.165573,214.060547 875.440312,213.236328 C875.577682,213.236328 875.715052,213.236328 875.852422,213.236328 C875.715052,214.197917 875.234258,215.022135 874.410039,215.708984 C873.58582,216.395833 872.624232,216.739258 871.525273,216.739258 Z M875.440312,213.236328 C875.577682,213.236328 875.715052,213.236328 875.852422,213.236328 C875.989792,213.098958 876.058477,212.892904 876.058477,212.618164 C876.058477,212.480794 876.058477,212.343424 876.058477,212.206055 C876.058477,211.931315 876.058477,211.72526 876.058477,211.587891 C876.058477,211.450521 875.989792,211.313151 875.852422,211.175781 C875.715052,211.175781 875.577682,211.175781 875.440312,211.175781 C875.440312,211.313151 875.440312,211.450521 875.440312,211.587891 C875.577682,211.72526 875.646367,211.931315 875.646367,212.206055 C875.646367,212.343424 875.577682,212.480794 875.440312,212.618164 C875.440312,212.892904 875.440312,213.098958 875.440312,213.236328 Z M871.525273,215.50293 C872.349492,215.50293 873.036341,215.296875 873.58582,214.884766 C874.272669,214.472656 874.684779,213.923177 874.822148,213.236328 C874.959518,213.236328 875.165573,213.236328 875.440312,213.236328 C875.165573,214.060547 874.684779,214.747396 873.99793,215.296875 C873.311081,215.846354 872.486862,216.121094 871.525273,216.121094 C870.426315,216.121094 869.533411,215.708984 868.846562,214.884766 C868.022344,214.197917 867.610234,213.305013 867.610234,212.206055 C867.610234,211.107096 868.022344,210.145508 868.846562,209.321289 C869.533411,208.63444 870.426315,208.291016 871.525273,208.291016 C872.486862,208.291016 873.311081,208.565755 873.99793,209.115234 C874.684779,209.664714 875.165573,210.351562 875.440312,211.175781 C875.302943,211.175781 875.096888,211.175781 874.822148,211.175781 C874.547409,210.488932 874.135299,209.870768 873.58582,209.321289 C873.036341,208.90918 872.349492,208.703125 871.525273,208.703125 C870.563685,208.703125 869.739466,209.046549 869.052617,209.733398 C868.503138,210.420247 868.228398,211.244466 868.228398,212.206055 C868.228398,213.167643 868.503138,213.991862 869.052617,214.678711 C869.739466,215.22819 870.563685,215.50293 871.525273,215.50293 C871.387904,215.50293 871.250534,215.50293 871.113164,215.50293 C870.975794,215.50293 870.975794,215.50293 871.113164,215.50293 C870.975794,215.50293 870.975794,215.50293 871.113164,215.50293 C871.250534,215.50293 871.387904,215.50293 871.525273,215.50293 C871.800013,215.50293 871.937383,215.50293 871.937383,215.50293 C872.074753,215.50293 872.143437,215.50293 872.143437,215.50293 C872.143437,215.50293 872.074753,215.50293 871.937383,215.50293 C871.937383,215.50293 871.800013,215.50293 871.525273,215.50293 Z M874.822148,211.175781 C874.959518,211.313151 875.028203,211.450521 875.028203,211.587891 C875.028203,211.72526 875.028203,211.931315 875.028203,212.206055 C875.028203,212.343424 875.028203,212.480794 875.028203,212.618164 C875.028203,212.892904 874.959518,213.098958 874.822148,213.236328 C874.959518,213.236328 875.165573,213.236328 875.440312,213.236328 C875.440312,213.098958 875.440312,212.892904 875.440312,212.618164 C875.577682,212.480794 875.646367,212.343424 875.646367,212.206055 C875.646367,211.931315 875.577682,211.72526 875.440312,211.587891 C875.440312,211.450521 875.440312,211.313151 875.440312,211.175781 C875.302943,211.175781 875.165573,211.175781 875.028203,211.175781 C875.028203,211.175781 874.959518,211.175781 874.822148,211.175781 Z M838.762578,73.3251953 C838.625208,73.3251953 838.556523,73.3938802 838.556523,73.53125 C838.419154,73.6686198 838.281784,73.8059896 838.144414,73.9433594 C838.007044,73.9433594 837.869674,74.0120443 837.732305,74.1494141 C837.732305,74.1494141 837.66362,74.1494141 837.52625,74.1494141 C837.38888,74.1494141 837.25151,74.1494141 837.114141,74.1494141 C836.976771,74.0120443 836.908086,73.9433594 836.908086,73.9433594 C836.770716,73.8059896 836.702031,73.6686198 836.702031,73.53125 C836.564661,73.53125 836.495977,73.4625651 836.495977,73.3251953 C836.495977,73.1878255 836.564661,73.0504557 836.702031,72.9130859 C836.702031,72.7757161 836.770716,72.7070312 836.908086,72.7070312 C837.045456,72.4322917 837.320195,72.0888672 837.732305,71.6767578 C838.144414,71.4020182 838.556523,70.9899089 838.968633,70.4404297 C839.106003,70.4404297 839.174687,70.3717448 839.174687,70.234375 C839.312057,70.234375 839.380742,70.234375 839.380742,70.234375 C839.380742,70.234375 839.449427,70.234375 839.586797,70.234375 C839.586797,70.234375 839.586797,70.234375 839.586797,70.234375 C839.724167,70.234375 839.792852,70.234375 839.792852,70.234375 C839.792852,70.234375 839.861536,70.234375 839.998906,70.234375 C839.998906,70.3717448 840.067591,70.4404297 840.204961,70.4404297 C840.204961,70.4404297 840.273646,70.5091146 840.411016,70.6464844 C840.411016,70.6464844 840.411016,70.7151693 840.411016,70.8525391 C840.411016,70.9899089 840.411016,71.0585938 840.411016,71.0585938 C840.411016,72.844401 840.411016,74.9736328 840.411016,77.4462891 C840.411016,80.0563151 840.411016,83.0097656 840.411016,86.3066406 C840.411016,86.4440104 840.411016,86.5813802 840.411016,86.71875 C840.411016,86.8561198 840.342331,86.9934896 840.204961,87.1308594 C840.067591,87.1308594 839.998906,87.1308594 839.998906,87.1308594 C839.861536,87.2682292 839.724167,87.3369141 839.586797,87.3369141 C839.449427,87.3369141 839.380742,87.2682292 839.380742,87.1308594 C839.243372,87.1308594 839.106003,87.1308594 838.968633,87.1308594 C838.831263,86.9934896 838.762578,86.8561198 838.762578,86.71875 C838.762578,86.5813802 838.762578,86.4440104 838.762578,86.3066406 C838.762578,84.9329427 838.762578,83.1471354 838.762578,80.9492188 C838.762578,78.7513021 838.762578,76.2099609 838.762578,73.3251953 Z M890.688359,101.966797 C891.512578,101.554688 892.130742,101.142578 892.542852,100.730469 C893.092331,100.318359 893.435755,99.90625 893.573125,99.4941406 C893.847865,99.219401 894.053919,98.8759766 894.191289,98.4638672 C894.191289,98.1891276 894.191289,97.914388 894.191289,97.6396484 C894.191289,97.6396484 894.191289,97.5709635 894.191289,97.4335938 C894.191289,97.296224 894.191289,97.1588542 894.191289,97.0214844 C894.191289,97.0214844 894.191289,96.9527995 894.191289,96.8154297 C894.191289,96.6780599 894.122604,96.5406901 893.985234,96.4033203 C893.985234,96.2659505 893.916549,96.1285807 893.77918,95.9912109 C893.50444,95.8538411 893.298385,95.6477865 893.161016,95.3730469 C892.886276,95.2356771 892.611536,95.1669922 892.336797,95.1669922 C891.924687,95.0296224 891.512578,94.9609375 891.100469,94.9609375 C890.825729,94.9609375 890.55099,95.0296224 890.27625,95.1669922 C889.864141,95.1669922 889.589401,95.2356771 889.452031,95.3730469 C889.177292,95.5104167 888.971237,95.7164714 888.833867,95.9912109 C888.559128,96.2659505 888.353073,96.5406901 888.215703,96.8154297 C888.215703,96.9527995 888.147018,97.0214844 888.009648,97.0214844 C888.009648,97.1588542 887.940964,97.2275391 887.803594,97.2275391 C887.666224,97.2275391 887.528854,97.2275391 887.391484,97.2275391 C887.254115,97.2275391 887.18543,97.2275391 887.18543,97.2275391 C887.04806,97.0901693 886.91069,97.0214844 886.77332,97.0214844 C886.77332,96.8841146 886.704635,96.7467448 886.567266,96.609375 C886.567266,96.609375 886.567266,96.5406901 886.567266,96.4033203 C886.567266,96.2659505 886.567266,96.1285807 886.567266,95.9912109 C886.842005,95.5791016 887.116745,95.1669922 887.391484,94.7548828 C887.666224,94.4801432 888.009648,94.2054036 888.421758,93.9306641 C888.833867,93.6559245 889.245977,93.5185547 889.658086,93.5185547 C890.070195,93.3811849 890.55099,93.3125 891.100469,93.3125 C892.062057,93.3125 892.817591,93.3811849 893.36707,93.5185547 C894.053919,93.7932943 894.603398,94.2054036 895.015508,94.7548828 C895.290247,95.1669922 895.564987,95.6477865 895.839727,96.1972656 C895.977096,96.609375 896.045781,97.0901693 896.045781,97.6396484 C896.045781,98.1891276 895.977096,98.7386068 895.839727,99.2880859 C895.702357,99.8375651 895.427617,100.318359 895.015508,100.730469 C894.740768,101.142578 894.328659,101.623372 893.77918,102.172852 C893.229701,102.584961 892.542852,103.065755 891.718633,103.615234 C891.031784,104.027344 890.482305,104.439453 890.070195,104.851562 C889.658086,105.263672 889.314661,105.675781 889.039922,106.087891 C888.765182,106.63737 888.559128,107.118164 888.421758,107.530273 C888.147018,107.942383 888.009648,108.285807 888.009648,108.560547 C888.833867,108.560547 889.864141,108.560547 891.100469,108.560547 C892.336797,108.560547 893.77918,108.560547 895.427617,108.560547 C895.564987,108.560547 895.702357,108.560547 895.839727,108.560547 C895.839727,108.560547 895.908411,108.629232 896.045781,108.766602 C896.183151,108.903971 896.251836,109.041341 896.251836,109.178711 C896.251836,109.178711 896.251836,109.247396 896.251836,109.384766 C896.251836,109.522135 896.251836,109.659505 896.251836,109.796875 C896.251836,109.934245 896.183151,110.00293 896.045781,110.00293 C895.908411,110.140299 895.839727,110.208984 895.839727,110.208984 C895.702357,110.208984 895.564987,110.208984 895.427617,110.208984 C894.740768,110.208984 894.053919,110.208984 893.36707,110.208984 C892.542852,110.208984 891.787318,110.208984 891.100469,110.208984 C890.41362,110.208984 889.726771,110.208984 889.039922,110.208984 C888.215703,110.208984 887.460169,110.208984 886.77332,110.208984 C886.77332,110.208984 886.704635,110.208984 886.567266,110.208984 C886.567266,110.208984 886.498581,110.208984 886.361211,110.208984 C886.361211,110.208984 886.361211,110.208984 886.361211,110.208984 C886.223841,110.071615 886.155156,110.00293 886.155156,110.00293 C886.155156,110.00293 886.155156,109.934245 886.155156,109.796875 C886.017786,109.796875 885.949102,109.796875 885.949102,109.796875 C885.949102,109.659505 885.949102,109.59082 885.949102,109.59082 C885.949102,109.59082 885.949102,109.522135 885.949102,109.384766 C885.949102,109.384766 885.949102,109.384766 885.949102,109.384766 C885.949102,109.384766 885.949102,109.384766 885.949102,109.384766 C885.949102,109.384766 885.949102,109.247396 885.949102,108.972656 C886.086471,108.697917 886.155156,108.354492 886.155156,107.942383 C886.292526,107.530273 886.429896,107.118164 886.567266,106.706055 C886.842005,106.293945 887.116745,105.813151 887.391484,105.263672 C887.666224,104.988932 887.872279,104.714193 888.009648,104.439453 C888.284388,104.164714 888.559128,103.889974 888.833867,103.615234 C889.108607,103.340495 889.383346,103.065755 889.658086,102.791016 C889.932826,102.516276 890.27625,102.241536 890.688359,101.966797 Z M896.251836,163.783203 C896.251836,164.470052 896.114466,165.019531 895.839727,165.431641 C895.564987,165.98112 895.152878,166.461914 894.603398,166.874023 C894.603398,167.011393 894.534714,167.080078 894.397344,167.080078 C894.259974,167.217448 894.191289,167.286133 894.191289,167.286133 C893.916549,167.148763 893.710495,167.080078 893.573125,167.080078 C893.435755,166.942708 893.229701,166.805339 892.954961,166.667969 C892.680221,166.667969 892.336797,166.599284 891.924687,166.461914 C891.649948,166.461914 891.306523,166.461914 890.894414,166.461914 C890.894414,166.461914 890.894414,166.461914 890.894414,166.461914 C890.894414,166.461914 890.894414,166.461914 890.894414,166.461914 C891.443893,166.461914 891.924687,166.393229 892.336797,166.255859 C892.748906,166.11849 893.092331,165.912435 893.36707,165.637695 C893.77918,165.362956 894.053919,165.088216 894.191289,164.813477 C894.328659,164.538737 894.397344,164.195312 894.397344,163.783203 C894.397344,163.508464 894.397344,163.302409 894.397344,163.165039 C894.259974,163.027669 894.191289,162.890299 894.191289,162.75293 C894.053919,162.61556 893.985234,162.47819 893.985234,162.34082 C893.847865,162.203451 893.77918,162.134766 893.77918,162.134766 C893.64181,161.997396 893.50444,161.860026 893.36707,161.722656 C893.092331,161.585286 892.886276,161.516602 892.748906,161.516602 C892.611536,161.379232 892.474167,161.310547 892.336797,161.310547 C892.062057,161.173177 891.856003,161.104492 891.718633,161.104492 C891.443893,161.104492 891.169154,161.173177 890.894414,161.310547 C890.619674,161.310547 890.344935,161.379232 890.070195,161.516602 C889.795456,161.653971 889.589401,161.791341 889.452031,161.928711 C889.177292,162.066081 888.971237,162.203451 888.833867,162.34082 C888.696497,162.47819 888.627812,162.546875 888.627812,162.546875 C888.490443,162.684245 888.353073,162.75293 888.215703,162.75293 C888.078333,162.75293 887.940964,162.684245 887.803594,162.546875 C887.803594,162.546875 887.734909,162.47819 887.597539,162.34082 C887.460169,162.34082 887.391484,162.272135 887.391484,162.134766 C887.254115,161.997396 887.18543,161.928711 887.18543,161.928711 C887.18543,161.791341 887.254115,161.653971 887.391484,161.516602 C887.391484,161.379232 887.391484,161.241862 887.391484,161.104492 C887.666224,160.829753 888.009648,160.623698 888.421758,160.486328 C888.696497,160.211589 889.039922,160.005534 889.452031,159.868164 C889.726771,159.730794 890.070195,159.593424 890.482305,159.456055 C890.894414,159.456055 891.306523,159.456055 891.718633,159.456055 C891.993372,159.456055 892.268112,159.456055 892.542852,159.456055 C892.954961,159.593424 893.298385,159.730794 893.573125,159.868164 C893.847865,160.005534 894.122604,160.142904 894.397344,160.280273 C894.534714,160.417643 894.740768,160.623698 895.015508,160.898438 C895.152878,161.035807 895.290247,161.241862 895.427617,161.516602 C895.702357,161.653971 895.839727,161.860026 895.839727,162.134766 C895.977096,162.409505 896.045781,162.684245 896.045781,162.958984 C896.183151,163.233724 896.251836,163.508464 896.251836,163.783203 C896.251836,163.783203 896.251836,163.783203 896.251836,163.783203 C896.251836,163.783203 896.251836,163.783203 896.251836,163.783203 Z M890.27625,167.904297 C890.41362,168.041667 890.55099,168.110352 890.688359,168.110352 C890.825729,168.110352 890.894414,168.110352 890.894414,168.110352 C891.581263,168.110352 892.199427,168.041667 892.748906,167.904297 C893.161016,167.766927 893.64181,167.560872 894.191289,167.286133 C894.328659,167.423503 894.466029,167.492188 894.603398,167.492188 C894.603398,167.629557 894.672083,167.766927 894.809453,167.904297 C895.084193,168.179036 895.290247,168.385091 895.427617,168.522461 C895.564987,168.797201 895.702357,169.07194 895.839727,169.34668 C895.977096,169.758789 896.045781,170.102214 896.045781,170.376953 C896.183151,170.789062 896.251836,171.132487 896.251836,171.407227 C896.251836,172.094076 896.114466,172.780924 895.839727,173.467773 C895.564987,174.017253 895.152878,174.566732 894.603398,175.116211 C894.053919,175.52832 893.435755,175.871745 892.748906,176.146484 C892.199427,176.421224 891.512578,176.558594 890.688359,176.558594 C890.13888,176.558594 889.658086,176.489909 889.245977,176.352539 C888.833867,176.215169 888.421758,176.077799 888.009648,175.94043 C887.597539,175.66569 887.18543,175.390951 886.77332,175.116211 C886.498581,174.704102 886.223841,174.360677 885.949102,174.085938 C885.949102,173.948568 885.949102,173.879883 885.949102,173.879883 C885.811732,173.742513 885.743047,173.605143 885.743047,173.467773 C885.743047,173.467773 885.743047,173.467773 885.743047,173.467773 C885.743047,173.467773 885.743047,173.399089 885.743047,173.261719 C885.880417,173.261719 885.949102,173.193034 885.949102,173.055664 C886.086471,172.918294 886.155156,172.849609 886.155156,172.849609 C886.292526,172.71224 886.429896,172.643555 886.567266,172.643555 C886.704635,172.643555 886.842005,172.643555 886.979375,172.643555 C886.979375,172.643555 887.04806,172.71224 887.18543,172.849609 C887.322799,172.849609 887.391484,172.918294 887.391484,173.055664 C887.666224,173.330404 887.872279,173.536458 888.009648,173.673828 C888.284388,173.948568 888.559128,174.154622 888.833867,174.291992 C889.108607,174.429362 889.383346,174.566732 889.658086,174.704102 C889.932826,174.704102 890.27625,174.704102 890.688359,174.704102 C891.100469,174.704102 891.512578,174.635417 891.924687,174.498047 C892.336797,174.360677 892.748906,174.154622 893.161016,173.879883 C893.573125,173.605143 893.847865,173.261719 893.985234,172.849609 C894.259974,172.4375 894.397344,171.956706 894.397344,171.407227 C894.397344,171.132487 894.397344,170.926432 894.397344,170.789062 C894.397344,170.514323 894.328659,170.308268 894.191289,170.170898 C894.191289,169.896159 894.122604,169.690104 893.985234,169.552734 C893.847865,169.415365 893.710495,169.277995 893.573125,169.140625 C893.435755,169.003255 893.229701,168.865885 892.954961,168.728516 C892.817591,168.591146 892.611536,168.522461 892.336797,168.522461 C892.062057,168.385091 891.787318,168.316406 891.512578,168.316406 C891.237839,168.179036 890.963099,168.110352 890.688359,168.110352 C890.55099,168.110352 890.41362,168.110352 890.27625,168.110352 C890.13888,168.110352 890.00151,168.041667 889.864141,167.904297 C889.864141,167.766927 889.864141,167.698242 889.864141,167.698242 C889.726771,167.560872 889.658086,167.423503 889.658086,167.286133 C889.658086,167.148763 889.726771,167.011393 889.864141,166.874023 C889.864141,166.874023 889.864141,166.805339 889.864141,166.667969 C890.00151,166.530599 890.13888,166.461914 890.27625,166.461914 C890.41362,166.461914 890.55099,166.461914 890.688359,166.461914 C890.688359,166.461914 890.688359,166.461914 890.688359,166.461914 C890.688359,166.461914 890.757044,166.461914 890.894414,166.461914 C890.757044,166.461914 890.688359,166.461914 890.688359,166.461914 C890.55099,166.461914 890.41362,166.530599 890.27625,166.667969 C890.27625,166.667969 890.207565,166.736654 890.070195,166.874023 C890.070195,167.011393 890.070195,167.148763 890.070195,167.286133 C890.070195,167.423503 890.070195,167.560872 890.070195,167.698242 C890.207565,167.698242 890.27625,167.766927 890.27625,167.904297 Z M890.894414,166.461914 C891.306523,166.461914 891.649948,166.461914 891.924687,166.461914 C892.336797,166.599284 892.680221,166.667969 892.954961,166.667969 C893.229701,166.805339 893.435755,166.942708 893.573125,167.080078 C893.710495,167.080078 893.916549,167.148763 894.191289,167.286133 C893.64181,167.560872 893.161016,167.766927 892.748906,167.904297 C892.199427,168.041667 891.581263,168.110352 890.894414,168.110352 C890.894414,168.110352 890.825729,168.110352 890.688359,168.110352 C890.55099,168.110352 890.41362,168.041667 890.27625,167.904297 C890.27625,167.766927 890.207565,167.698242 890.070195,167.698242 C890.070195,167.560872 890.070195,167.423503 890.070195,167.286133 C890.070195,167.148763 890.070195,167.011393 890.070195,166.874023 C890.207565,166.874023 890.27625,166.805339 890.27625,166.667969 C890.41362,166.530599 890.55099,166.461914 890.688359,166.461914 C890.688359,166.461914 890.757044,166.461914 890.894414,166.461914 Z M857.101445,225.1875 C857.101445,224.638021 857.101445,224.088542 857.101445,223.539062 C857.101445,222.989583 857.101445,222.440104 857.101445,221.890625 C857.376185,221.890625 857.650924,221.890625 857.925664,221.890625 C858.200404,221.890625 858.475143,221.890625 858.749883,221.890625 C858.749883,222.302734 858.749883,222.783529 858.749883,223.333008 C858.749883,223.882487 858.749883,224.500651 858.749883,225.1875 C858.749883,225.1875 858.749883,225.256185 858.749883,225.393555 C858.749883,225.530924 858.681198,225.668294 858.543828,225.805664 C858.543828,225.805664 858.475143,225.874349 858.337773,226.011719 C858.200404,226.011719 858.063034,226.011719 857.925664,226.011719 C857.788294,226.011719 857.719609,226.011719 857.719609,226.011719 C857.58224,225.874349 857.44487,225.805664 857.3075,225.805664 C857.17013,225.668294 857.101445,225.530924 857.101445,225.393555 C857.101445,225.256185 857.101445,225.1875 857.101445,225.1875 Z M858.955937,220.036133 C858.543828,220.036133 858.200404,220.036133 857.925664,220.036133 C857.650924,220.036133 857.376185,220.036133 857.101445,220.036133 C857.101445,220.310872 857.101445,220.585612 857.101445,220.860352 C857.101445,221.272461 857.101445,221.615885 857.101445,221.890625 C857.376185,221.890625 857.650924,221.890625 857.925664,221.890625 C858.200404,221.890625 858.543828,221.890625 858.955937,221.890625 C858.955937,221.478516 858.955937,221.135091 858.955937,220.860352 C858.955937,220.585612 858.955937,220.310872 858.955937,220.036133 Z M858.543828,212.618164 C858.543828,212.618164 858.475143,212.549479 858.337773,212.412109 C858.200404,212.412109 858.063034,212.412109 857.925664,212.412109 C857.788294,212.412109 857.719609,212.412109 857.719609,212.412109 C857.58224,212.549479 857.44487,212.618164 857.3075,212.618164 C857.3075,212.755534 857.238815,212.892904 857.101445,213.030273 C857.101445,213.030273 857.101445,213.098958 857.101445,213.236328 C857.101445,214.610026 857.101445,215.846354 857.101445,216.945312 C857.101445,218.044271 857.101445,219.074544 857.101445,220.036133 C857.376185,220.036133 857.650924,220.036133 857.925664,220.036133 C858.200404,220.036133 858.543828,220.036133 858.955937,220.036133 C858.955937,218.662435 858.955937,217.426107 858.955937,216.327148 C858.955937,215.09082 858.955937,214.060547 858.955937,213.236328 C858.955937,213.098958 858.887253,213.030273 858.749883,213.030273 C858.749883,212.892904 858.681198,212.755534 858.543828,212.618164 Z M860.604375,221.478516 C860.604375,221.478516 860.67306,221.409831 860.81043,221.272461 C860.81043,221.135091 860.81043,220.997721 860.81043,220.860352 C860.81043,220.722982 860.81043,220.654297 860.81043,220.654297 C860.67306,220.516927 860.604375,220.379557 860.604375,220.242188 C860.467005,220.242188 860.329635,220.173503 860.192266,220.036133 C860.054896,220.036133 859.986211,220.036133 859.986211,220.036133 C859.711471,220.036133 859.505417,220.036133 859.368047,220.036133 C859.230677,220.036133 859.093307,220.036133 858.955937,220.036133 C858.955937,220.310872 858.955937,220.585612 858.955937,220.860352 C858.955937,221.135091 858.955937,221.478516 858.955937,221.890625 C859.093307,221.890625 859.230677,221.890625 859.368047,221.890625 C859.505417,221.890625 859.711471,221.890625 859.986211,221.890625 C859.986211,221.890625 860.054896,221.82194 860.192266,221.68457 C860.329635,221.68457 860.467005,221.615885 860.604375,221.478516 Z M850.301641,220.860352 C850.301641,220.860352 850.301641,220.929036 850.301641,221.066406 C850.301641,221.066406 850.301641,221.066406 850.301641,221.066406 C850.301641,221.066406 850.370326,221.135091 850.507695,221.272461 C850.507695,221.272461 850.507695,221.341146 850.507695,221.478516 C850.507695,221.478516 850.57638,221.547201 850.71375,221.68457 C850.71375,221.68457 850.782435,221.68457 850.919805,221.68457 C850.919805,221.68457 850.98849,221.753255 851.125859,221.890625 C851.125859,221.890625 851.194544,221.890625 851.331914,221.890625 C852.018763,221.890625 852.705612,221.890625 853.392461,221.890625 C854.07931,221.890625 854.834844,221.890625 855.659062,221.890625 C855.796432,221.890625 856.002487,221.890625 856.277227,221.890625 C856.551966,221.890625 856.826706,221.890625 857.101445,221.890625 C857.101445,221.615885 857.101445,221.341146 857.101445,221.066406 C857.101445,220.654297 857.101445,220.310872 857.101445,220.036133 C856.139857,220.036133 855.315638,220.036133 854.628789,220.036133 C853.80457,220.036133 853.117721,220.036133 852.568242,220.036133 C853.529831,217.838216 854.354049,215.915039 855.040898,214.266602 C855.727747,212.618164 856.277227,211.244466 856.689336,210.145508 C856.826706,210.008138 856.895391,209.870768 856.895391,209.733398 C856.895391,209.596029 856.826706,209.527344 856.689336,209.527344 C856.689336,209.389974 856.620651,209.252604 856.483281,209.115234 C856.483281,209.115234 856.414596,209.046549 856.277227,208.90918 C856.277227,208.90918 856.208542,208.90918 856.071172,208.90918 C856.071172,208.90918 856.002487,208.90918 855.865117,208.90918 C855.865117,208.90918 855.796432,208.90918 855.659062,208.90918 C855.659062,208.90918 855.659062,208.90918 855.659062,208.90918 C855.521693,209.046549 855.384323,209.115234 855.246953,209.115234 C855.246953,209.252604 855.178268,209.389974 855.040898,209.527344 C854.07931,212 853.186406,214.129232 852.362187,215.915039 C851.537969,217.838216 850.919805,219.417969 850.507695,220.654297 C850.507695,220.654297 850.43901,220.654297 850.301641,220.654297 C850.301641,220.791667 850.301641,220.860352 850.301641,220.860352 Z" transform="translate(-842.537)"/></svg>