<svg xmlns="http://www.w3.org/2000/svg" width="120" height="243" viewBox="0 0 120 243"><path fill="#131313" d="M99.3554687,151.303711 C101.416016,151.303711 103.201823,151.99056 104.712891,153.364258 C106.086589,154.875326 106.773437,156.661133 106.773437,158.72168 C106.773437,160.782227 106.086589,162.568034 104.712891,164.079102 C103.201823,165.452799 101.416016,166.139648 99.3554687,166.139648 C84.7942708,166.139648 62.8837891,166.139648 33.6240234,166.139648 C31.5634766,166.139648 29.7776693,165.452799 28.2666016,164.079102 C26.7555339,162.568034 26,160.782227 26,158.72168 C26,130.423503 26,87.976237 26,31.3798828 C26,29.3193359 26.7555339,27.5335286 28.2666016,26.0224609 C29.7776693,24.648763 31.5634766,23.9619141 33.6240234,23.9619141 C47.773112,23.9619141 69.0654297,23.9619141 97.5009766,23.9619141 C99.5615234,23.9619141 101.278646,24.648763 102.652344,26.0224609 C104.163411,27.5335286 104.918945,29.3193359 104.918945,31.3798828 C104.918945,33.4404297 104.163411,35.1575521 102.652344,36.53125 C101.278646,38.0423177 99.5615234,38.7978516 97.5009766,38.7978516 C84.8629557,38.7978516 66.0432943,38.7978516 41.0419922,38.7978516 C41.0419922,49.6500651 41.0419922,65.9283854 41.0419922,87.6328125 C52.9931641,87.6328125 70.851237,87.6328125 94.6162109,87.6328125 C96.6767578,87.6328125 98.4625651,88.3196615 99.9736328,89.6933594 C101.484701,91.2044271 102.240234,92.9902344 102.240234,95.0507812 C102.240234,97.1113281 101.484701,98.8971354 99.9736328,100.408203 C98.4625651,101.781901 96.6767578,102.46875 94.6162109,102.46875 C82.8024089,102.46875 64.9443359,102.46875 41.0419922,102.46875 C41.0419922,113.320964 41.0419922,129.599284 41.0419922,151.303711 C50.7952474,151.303711 60.5485026,151.303711 70.3017578,151.303711 C79.9176432,151.303711 89.6022135,151.303711 99.3554687,151.303711 Z M56.046875,111.535156 C56.046875,111.672526 56.046875,111.809896 56.046875,111.947266 C56.046875,112.084635 55.9781901,112.29069 55.8408203,112.56543 C61.335612,112.56543 69.5091146,112.56543 80.3613281,112.56543 C80.3613281,112.015951 80.3613281,111.260417 80.3613281,110.298828 C74.8665365,110.298828 66.6930339,110.298828 55.8408203,110.298828 C55.9781901,110.573568 56.046875,110.779622 56.046875,110.916992 C56.046875,111.054362 56.046875,111.260417 56.046875,111.535156 Z M80.3613281,114.625977 C80.3613281,114.076497 80.3613281,113.389648 80.3613281,112.56543 C80.7734375,112.56543 81.4602865,112.56543 82.421875,112.56543 C82.421875,112.015951 82.421875,111.260417 82.421875,110.298828 C81.8723958,110.298828 81.1855469,110.298828 80.3613281,110.298828 C80.3613281,109.886719 80.3613281,109.268555 80.3613281,108.444336 C82.8339844,109.131185 86.6116536,110.161458 91.6943359,111.535156 C89.2216797,112.222005 85.4440104,113.252279 80.3613281,114.625977 Z M80.3613281,110.298828 C80.7734375,110.298828 81.4602865,110.298828 82.421875,110.298828 C82.421875,110.848307 82.421875,111.603841 82.421875,112.56543 C81.8723958,112.56543 81.1855469,112.56543 80.3613281,112.56543 C80.3613281,112.015951 80.3613281,111.260417 80.3613281,110.298828 Z M51.5136719,115.450195 C52.4752604,115.450195 53.2994792,115.175456 53.9863281,114.625977 C54.6731771,114.076497 55.1539714,113.389648 55.4287109,112.56543 C55.4287109,112.56543 55.5660807,112.56543 55.8408203,112.56543 C55.7034505,113.527018 55.2226562,114.351237 54.3984375,115.038086 C53.5742187,115.587565 52.6126302,115.862305 51.5136719,115.862305 C50.2773437,115.862305 49.2470703,115.450195 48.4228516,114.625977 C47.461263,113.801758 46.9804687,112.771484 46.9804687,111.535156 C46.9804687,110.298828 47.461263,109.19987 48.4228516,108.238281 C49.2470703,107.414062 50.2773437,107.001953 51.5136719,107.001953 C52.6126302,107.001953 53.5742187,107.345378 54.3984375,108.032227 C55.0852865,108.581706 55.5660807,109.33724 55.8408203,110.298828 C55.7034505,110.298828 55.5660807,110.298828 55.4287109,110.298828 C55.1539714,109.474609 54.6731771,108.78776 53.9863281,108.238281 C53.2994792,107.688802 52.4752604,107.414062 51.5136719,107.414062 C50.4147135,107.414062 49.5218099,107.826172 48.8349609,108.650391 C48.0107422,109.474609 47.5986328,110.436198 47.5986328,111.535156 C47.5986328,112.634115 48.0107422,113.527018 48.8349609,114.213867 C49.5218099,115.038086 50.4147135,115.450195 51.5136719,115.450195 Z M55.4287109,110.298828 C55.4287109,110.573568 55.4287109,110.779622 55.4287109,110.916992 C55.4287109,111.054362 55.4287109,111.260417 55.4287109,111.535156 C55.4287109,111.672526 55.4287109,111.809896 55.4287109,111.947266 C55.4287109,112.084635 55.4287109,112.29069 55.4287109,112.56543 C55.4287109,112.56543 55.5660807,112.56543 55.8408203,112.56543 C55.9781901,112.29069 56.046875,112.084635 56.046875,111.947266 C56.046875,111.809896 56.046875,111.672526 56.046875,111.535156 C56.046875,111.260417 56.046875,111.054362 56.046875,110.916992 C56.046875,110.779622 55.9781901,110.573568 55.8408203,110.298828 C55.8408203,110.298828 55.7721354,110.298828 55.6347656,110.298828 C55.4973958,110.298828 55.4287109,110.298828 55.4287109,110.298828 Z M51.5136719,107.414062 C52.4752604,107.414062 53.2994792,107.688802 53.9863281,108.238281 C54.6731771,108.78776 55.1539714,109.474609 55.4287109,110.298828 C55.2913411,110.298828 55.0852865,110.298828 54.8105469,110.298828 C54.5358073,109.611979 54.1236979,109.0625 53.5742187,108.650391 C53.0247396,108.238281 52.3378906,108.032227 51.5136719,108.032227 C50.5520833,108.032227 49.7278646,108.375651 49.0410156,109.0625 C48.3541667,109.749349 48.0107422,110.573568 48.0107422,111.535156 C48.0107422,112.496745 48.3541667,113.252279 49.0410156,113.801758 C49.7278646,114.488607 50.5520833,114.832031 51.5136719,114.832031 C51.3763021,114.832031 51.2389323,114.832031 51.1015625,114.832031 C50.9641927,114.832031 50.8955078,114.832031 50.8955078,114.832031 C50.8955078,114.832031 50.9641927,114.832031 51.1015625,114.832031 C51.2389323,114.832031 51.3763021,114.832031 51.5136719,114.832031 C51.6510417,114.832031 51.7884115,114.832031 51.9257812,114.832031 C52.063151,114.832031 52.1318359,114.832031 52.1318359,114.832031 C52.1318359,114.832031 52.063151,114.832031 51.9257812,114.832031 C51.7884115,114.832031 51.6510417,114.832031 51.5136719,114.832031 C52.3378906,114.832031 53.0247396,114.625977 53.5742187,114.213867 C54.1236979,113.801758 54.5358073,113.252279 54.8105469,112.56543 C54.9479167,112.56543 55.1539714,112.56543 55.4287109,112.56543 C55.1539714,113.389648 54.6731771,114.076497 53.9863281,114.625977 C53.2994792,115.175456 52.4752604,115.450195 51.5136719,115.450195 C50.4147135,115.450195 49.5218099,115.038086 48.8349609,114.213867 C48.0107422,113.527018 47.5986328,112.634115 47.5986328,111.535156 C47.5986328,110.436198 48.0107422,109.474609 48.8349609,108.650391 C49.5218099,107.826172 50.4147135,107.414062 51.5136719,107.414062 Z M54.8105469,112.56543 C54.9479167,112.56543 55.1539714,112.56543 55.4287109,112.56543 C55.4287109,112.29069 55.4287109,112.084635 55.4287109,111.947266 C55.4287109,111.809896 55.4287109,111.672526 55.4287109,111.535156 C55.4287109,111.260417 55.4287109,111.054362 55.4287109,110.916992 C55.4287109,110.779622 55.4287109,110.573568 55.4287109,110.298828 C55.2913411,110.298828 55.0852865,110.298828 54.8105469,110.298828 C54.8105469,110.573568 54.8792318,110.779622 55.0166016,110.916992 C55.0166016,111.054362 55.0166016,111.260417 55.0166016,111.535156 C55.0166016,111.672526 55.0166016,111.809896 55.0166016,111.947266 C54.8792318,112.084635 54.8105469,112.29069 54.8105469,112.56543 Z M56.046875,47.8642578 C56.046875,48.0016276 56.046875,48.1389974 56.046875,48.2763672 C56.046875,48.413737 55.9781901,48.6197917 55.8408203,48.8945312 C61.8850911,48.8945312 70.9514974,48.8945312 83.0400391,48.8945312 C83.0400391,48.3450521 83.0400391,47.5895182 83.0400391,46.6279297 C76.9957682,46.6279297 67.929362,46.6279297 55.8408203,46.6279297 C55.9781901,46.9026693 56.046875,47.108724 56.046875,47.2460938 C56.046875,47.3834635 56.046875,47.5895182 56.046875,47.8642578 Z M83.0400391,46.6279297 C83.0400391,46.2158203 83.0400391,45.5976562 83.0400391,44.7734375 C85.5126953,45.4602865 89.2903646,46.4905599 94.3730469,47.8642578 C91.9003906,48.5511068 88.1227214,49.5126953 83.0400391,50.7490234 C83.0400391,50.3369141 83.0400391,49.71875 83.0400391,48.8945312 C83.4521484,48.8945312 84.1389974,48.8945312 85.1005859,48.8945312 C85.1005859,48.3450521 85.1005859,47.5895182 85.1005859,46.6279297 C84.6884766,46.6279297 84.0016276,46.6279297 83.0400391,46.6279297 Z M83.0400391,46.6279297 C83.4521484,46.6279297 84.1389974,46.6279297 85.1005859,46.6279297 C85.1005859,47.1774089 85.1005859,47.9329427 85.1005859,48.8945312 C84.6884766,48.8945312 84.0016276,48.8945312 83.0400391,48.8945312 C83.0400391,48.3450521 83.0400391,47.5895182 83.0400391,46.6279297 Z M51.5136719,51.7792969 C52.4752604,51.7792969 53.2994792,51.5045573 53.9863281,50.9550781 C54.6731771,50.405599 55.1539714,49.71875 55.4287109,48.8945312 C55.4287109,48.8945312 55.5660807,48.8945312 55.8408203,48.8945312 C55.7034505,49.8561198 55.2226562,50.6803385 54.3984375,51.3671875 C53.5742187,51.9166667 52.6126302,52.1914062 51.5136719,52.1914062 C50.2773437,52.1914062 49.2470703,51.7792969 48.4228516,50.9550781 C47.461263,50.1308594 46.9804687,49.1005859 46.9804687,47.8642578 C46.9804687,46.6279297 47.461263,45.5289714 48.4228516,44.5673828 C49.2470703,43.7431641 50.2773437,43.3310547 51.5136719,43.3310547 C52.6126302,43.3310547 53.5742187,43.6744792 54.3984375,44.3613281 C55.0852865,44.9108073 55.5660807,45.6663411 55.8408203,46.6279297 C55.7034505,46.6279297 55.5660807,46.6279297 55.4287109,46.6279297 C55.1539714,45.8037109 54.6731771,45.116862 53.9863281,44.5673828 C53.2994792,44.0179036 52.4752604,43.7431641 51.5136719,43.7431641 C50.4147135,43.7431641 49.5218099,44.1552734 48.8349609,44.9794922 C48.0107422,45.8037109 47.5986328,46.7652995 47.5986328,47.8642578 C47.5986328,48.9632161 48.0107422,49.8561198 48.8349609,50.5429688 C49.5218099,51.3671875 50.4147135,51.7792969 51.5136719,51.7792969 Z M55.4287109,46.6279297 C55.4287109,46.9026693 55.4287109,47.108724 55.4287109,47.2460938 C55.4287109,47.3834635 55.4287109,47.5895182 55.4287109,47.8642578 C55.4287109,48.0016276 55.4287109,48.1389974 55.4287109,48.2763672 C55.4287109,48.413737 55.4287109,48.6197917 55.4287109,48.8945312 C55.4287109,48.8945312 55.5660807,48.8945312 55.8408203,48.8945312 C55.9781901,48.6197917 56.046875,48.413737 56.046875,48.2763672 C56.046875,48.1389974 56.046875,48.0016276 56.046875,47.8642578 C56.046875,47.5895182 56.046875,47.3834635 56.046875,47.2460938 C56.046875,47.108724 55.9781901,46.9026693 55.8408203,46.6279297 C55.8408203,46.6279297 55.7721354,46.6279297 55.6347656,46.6279297 C55.4973958,46.6279297 55.4287109,46.6279297 55.4287109,46.6279297 Z M51.5136719,43.7431641 C52.4752604,43.7431641 53.2994792,44.0179036 53.9863281,44.5673828 C54.6731771,45.116862 55.1539714,45.8037109 55.4287109,46.6279297 C55.2913411,46.6279297 55.0852865,46.6279297 54.8105469,46.6279297 C54.5358073,45.9410807 54.1236979,45.3916016 53.5742187,44.9794922 C53.0247396,44.5673828 52.3378906,44.3613281 51.5136719,44.3613281 C50.5520833,44.3613281 49.7278646,44.7047526 49.0410156,45.3916016 C48.3541667,46.0784505 48.0107422,46.9026693 48.0107422,47.8642578 C48.0107422,48.6884766 48.3541667,49.4440104 49.0410156,50.1308594 C49.7278646,50.8177083 50.5520833,51.1611328 51.5136719,51.1611328 C51.3763021,51.1611328 51.2389323,51.1611328 51.1015625,51.1611328 C50.9641927,51.1611328 50.8955078,51.1611328 50.8955078,51.1611328 C50.8955078,51.1611328 50.9641927,51.1611328 51.1015625,51.1611328 C51.2389323,51.1611328 51.3763021,51.1611328 51.5136719,51.1611328 C51.6510417,51.1611328 51.7884115,51.1611328 51.9257812,51.1611328 C52.063151,51.1611328 52.1318359,51.1611328 52.1318359,51.1611328 C52.1318359,51.1611328 52.063151,51.1611328 51.9257812,51.1611328 C51.7884115,51.1611328 51.6510417,51.1611328 51.5136719,51.1611328 C52.3378906,51.1611328 53.0247396,50.9550781 53.5742187,50.5429688 C54.1236979,50.1308594 54.5358073,49.5813802 54.8105469,48.8945312 C54.9479167,48.8945312 55.1539714,48.8945312 55.4287109,48.8945312 C55.1539714,49.71875 54.6731771,50.405599 53.9863281,50.9550781 C53.2994792,51.5045573 52.4752604,51.7792969 51.5136719,51.7792969 C50.4147135,51.7792969 49.5218099,51.3671875 48.8349609,50.5429688 C48.0107422,49.8561198 47.5986328,48.9632161 47.5986328,47.8642578 C47.5986328,46.7652995 48.0107422,45.8037109 48.8349609,44.9794922 C49.5218099,44.1552734 50.4147135,43.7431641 51.5136719,43.7431641 Z M54.8105469,48.8945312 C54.9479167,48.8945312 55.1539714,48.8945312 55.4287109,48.8945312 C55.4287109,48.6197917 55.4287109,48.413737 55.4287109,48.2763672 C55.4287109,48.1389974 55.4287109,48.0016276 55.4287109,47.8642578 C55.4287109,47.5895182 55.4287109,47.3834635 55.4287109,47.2460938 C55.4287109,47.108724 55.4287109,46.9026693 55.4287109,46.6279297 C55.2913411,46.6279297 55.0852865,46.6279297 54.8105469,46.6279297 C54.8105469,46.9026693 54.8792318,47.108724 55.0166016,47.2460938 C55.0166016,47.3834635 55.0166016,47.5895182 55.0166016,47.8642578 C55.0166016,48.0016276 55.0166016,48.1389974 55.0166016,48.2763672 C54.8792318,48.413737 54.8105469,48.6197917 54.8105469,48.8945312 Z M13.1875,40.2402344 C13.3248698,40.2402344 13.4622396,40.2402344 13.5996094,40.2402344 C13.7369792,40.2402344 13.9430339,40.2402344 14.2177734,40.2402344 C14.3551432,40.2402344 14.492513,40.2402344 14.6298828,40.2402344 C14.9046224,40.2402344 15.1106771,40.2402344 15.2480469,40.2402344 C15.2480469,64.0052083 15.2480469,99.6526693 15.2480469,147.182617 C14.6985677,147.182617 14.0117187,147.182617 13.1875,147.182617 C13.1875,129.324544 13.1875,111.466471 13.1875,93.6083984 C13.1875,75.8876953 13.1875,58.0983073 13.1875,40.2402344 Z M13.1875,149.449219 C13.1875,148.89974 13.1875,148.144206 13.1875,147.182617 C12.6380208,147.182617 11.9511719,147.182617 11.1269531,147.182617 C11.8138021,149.792643 12.8440755,153.638997 14.2177734,158.72168 C14.9046224,156.111654 15.9348958,152.265299 17.3085937,147.182617 C16.7591146,147.182617 16.0722656,147.182617 15.2480469,147.182617 C15.2480469,147.732096 15.2480469,148.48763 15.2480469,149.449219 C14.6985677,149.449219 14.0117187,149.449219 13.1875,149.449219 Z M13.1875,149.449219 C13.5996094,149.449219 14.2864583,149.449219 15.2480469,149.449219 C15.2480469,148.89974 15.2480469,148.144206 15.2480469,147.182617 C14.6985677,147.182617 14.0117187,147.182617 13.1875,147.182617 C13.1875,147.732096 13.1875,148.48763 13.1875,149.449219 Z M13.1875,39.6220703 C13.1875,39.7594401 13.1875,39.9654948 13.1875,40.2402344 C12.0885417,39.9654948 11.2643229,39.4160156 10.7148437,38.5917969 C10.0279948,37.7675781 9.68457031,36.8746745 9.68457031,35.9130859 C9.68457031,34.6767578 10.0966797,33.5777995 10.9208984,32.6162109 C11.882487,31.7919922 12.9814453,31.3798828 14.2177734,31.3798828 C15.4541016,31.3798828 16.484375,31.7919922 17.3085937,32.6162109 C18.2701823,33.5777995 18.7509766,34.6767578 18.7509766,35.9130859 C18.7509766,36.8746745 18.4075521,37.7675781 17.7207031,38.5917969 C17.0338542,39.4160156 16.2096354,39.9654948 15.2480469,40.2402344 C15.2480469,40.1028646 15.2480469,39.8968099 15.2480469,39.6220703 C16.0722656,39.3473307 16.7591146,38.8665365 17.3085937,38.1796875 C17.8580729,37.4928385 18.1328125,36.7373047 18.1328125,35.9130859 C18.1328125,34.8141276 17.7207031,33.8525391 16.8964844,33.0283203 C16.2096354,32.2041016 15.3167318,31.7919922 14.2177734,31.7919922 C13.1188151,31.7919922 12.1572266,32.2041016 11.3330078,33.0283203 C10.5087891,33.8525391 10.0966797,34.8141276 10.0966797,35.9130859 C10.0966797,36.7373047 10.3714193,37.4928385 10.9208984,38.1796875 C11.6077474,38.8665365 12.3632812,39.3473307 13.1875,39.6220703 Z M14.2177734,39.828125 C14.3551432,39.828125 14.492513,39.828125 14.6298828,39.828125 C14.9046224,39.6907552 15.1106771,39.6220703 15.2480469,39.6220703 C15.2480469,39.7594401 15.2480469,39.9654948 15.2480469,40.2402344 C15.1106771,40.2402344 14.9046224,40.2402344 14.6298828,40.2402344 C14.492513,40.2402344 14.3551432,40.2402344 14.2177734,40.2402344 C13.9430339,40.2402344 13.7369792,40.2402344 13.5996094,40.2402344 C13.4622396,40.2402344 13.3248698,40.2402344 13.1875,40.2402344 C13.1875,40.1028646 13.1875,39.8968099 13.1875,39.6220703 C13.3248698,39.6220703 13.4622396,39.6907552 13.5996094,39.828125 C13.7369792,39.828125 13.9430339,39.828125 14.2177734,39.828125 Z M10.7148437,35.9130859 C10.7148437,36.5999349 10.9208984,37.218099 11.3330078,37.7675781 C11.882487,38.4544271 12.500651,38.8665365 13.1875,39.0039062 C13.1875,39.141276 13.1875,39.3473307 13.1875,39.6220703 C12.3632812,39.3473307 11.6077474,38.8665365 10.9208984,38.1796875 C10.3714193,37.4928385 10.0966797,36.7373047 10.0966797,35.9130859 C10.0966797,34.8141276 10.5087891,33.8525391 11.3330078,33.0283203 C12.1572266,32.2041016 13.1188151,31.7919922 14.2177734,31.7919922 C15.3167318,31.7919922 16.2096354,32.2041016 16.8964844,33.0283203 C17.7207031,33.8525391 18.1328125,34.8141276 18.1328125,35.9130859 C18.1328125,36.7373047 17.8580729,37.4928385 17.3085937,38.1796875 C16.7591146,38.8665365 16.0722656,39.3473307 15.2480469,39.6220703 C15.2480469,39.4847005 15.2480469,39.2786458 15.2480469,39.0039062 C15.9348958,38.8665365 16.484375,38.4544271 16.8964844,37.7675781 C17.3085937,37.218099 17.5146484,36.5999349 17.5146484,35.9130859 C17.5146484,34.9514974 17.2399089,34.1272786 16.6904297,33.4404297 C16.0035807,32.7535807 15.179362,32.4101562 14.2177734,32.4101562 C13.2561849,32.4101562 12.4319661,32.7535807 11.7451172,33.4404297 C11.0582682,34.1272786 10.7148437,34.9514974 10.7148437,35.9130859 C10.7148437,35.6383464 10.7148437,35.5009766 10.7148437,35.5009766 C10.7148437,35.3636068 10.7148437,35.2949219 10.7148437,35.2949219 C10.7148437,35.2949219 10.7148437,35.3636068 10.7148437,35.5009766 C10.7148437,35.5009766 10.7148437,35.6383464 10.7148437,35.9130859 C10.7148437,36.0504557 10.7148437,36.1191406 10.7148437,36.1191406 C10.7148437,36.2565104 10.7148437,36.3251953 10.7148437,36.3251953 C10.7148437,36.3251953 10.7148437,36.2565104 10.7148437,36.1191406 C10.7148437,36.1191406 10.7148437,36.0504557 10.7148437,35.9130859 Z M15.2480469,39.6220703 C15.1106771,39.6220703 14.9046224,39.6907552 14.6298828,39.828125 C14.492513,39.828125 14.3551432,39.828125 14.2177734,39.828125 C13.9430339,39.828125 13.7369792,39.7594401 13.5996094,39.6220703 C13.4622396,39.6220703 13.3248698,39.6220703 13.1875,39.6220703 C13.1875,39.4847005 13.1875,39.2786458 13.1875,39.0039062 C13.3248698,39.141276 13.4622396,39.2099609 13.5996094,39.2099609 C13.7369792,39.2099609 13.9430339,39.2099609 14.2177734,39.2099609 C14.3551432,39.2099609 14.492513,39.2099609 14.6298828,39.2099609 C14.9046224,39.2099609 15.1106771,39.141276 15.2480469,39.0039062 C15.2480469,39.141276 15.2480469,39.2786458 15.2480469,39.4160156 C15.2480469,39.4160156 15.2480469,39.4847005 15.2480469,39.6220703 Z M84.8945312,176.236328 C84.8945312,175.686849 84.8945312,175 84.8945312,174.175781 C74.8665365,174.175781 59.6871745,174.175781 39.3564453,174.175781 C39.4938151,174.313151 39.5625,174.450521 39.5625,174.587891 C39.5625,174.72526 39.5625,174.931315 39.5625,175.206055 C39.5625,175.343424 39.5625,175.480794 39.5625,175.618164 C39.5625,175.892904 39.4938151,176.098958 39.3564453,176.236328 C47.0491536,176.236328 54.6731771,176.236328 62.2285156,176.236328 C69.7838542,176.236328 77.3391927,176.236328 84.8945312,176.236328 Z M86.9550781,174.175781 C86.5429687,174.175781 85.8561198,174.175781 84.8945312,174.175781 C84.8945312,173.626302 84.8945312,172.939453 84.8945312,172.115234 C87.5045573,172.802083 91.3509115,173.832357 96.4335937,175.206055 C93.8235677,175.892904 89.9772135,176.923177 84.8945312,178.296875 C84.8945312,177.747396 84.8945312,177.060547 84.8945312,176.236328 C85.4440104,176.236328 86.1308594,176.236328 86.9550781,176.236328 C86.9550781,175.686849 86.9550781,175 86.9550781,174.175781 Z M84.8945312,174.175781 C85.4440104,174.175781 86.1308594,174.175781 86.9550781,174.175781 C86.9550781,174.587891 86.9550781,175.27474 86.9550781,176.236328 C86.5429687,176.236328 85.8561198,176.236328 84.8945312,176.236328 C84.8945312,175.686849 84.8945312,175 84.8945312,174.175781 Z M35.0292969,179.739258 C33.7929687,179.739258 32.7626953,179.258464 31.9384766,178.296875 C30.976888,177.472656 30.4960937,176.442383 30.4960937,175.206055 C30.4960937,173.969727 30.976888,172.870768 31.9384766,171.90918 C32.7626953,171.084961 33.7929687,170.672852 35.0292969,170.672852 C36.1282552,170.672852 37.0898437,171.016276 37.9140625,171.703125 C38.7382812,172.252604 39.2190755,173.076823 39.3564453,174.175781 C39.2190755,174.175781 39.0817057,174.175781 38.9443359,174.175781 C38.6695964,173.351562 38.1888021,172.664714 37.5019531,172.115234 C36.8151042,171.565755 35.9908854,171.291016 35.0292969,171.291016 C33.9303385,171.291016 33.0374349,171.63444 32.3505859,172.321289 C31.5263672,173.145508 31.1142578,174.107096 31.1142578,175.206055 C31.1142578,176.305013 31.5263672,177.197917 32.3505859,177.884766 C33.0374349,178.708984 33.9303385,179.121094 35.0292969,179.121094 C35.9908854,179.121094 36.8151042,178.846354 37.5019531,178.296875 C38.1888021,177.747396 38.6695964,177.060547 38.9443359,176.236328 C39.0817057,176.236328 39.2190755,176.236328 39.3564453,176.236328 C39.2190755,177.197917 38.7382812,178.022135 37.9140625,178.708984 C37.0898437,179.395833 36.1282552,179.739258 35.0292969,179.739258 Z M38.9443359,176.236328 C39.0817057,176.236328 39.2190755,176.236328 39.3564453,176.236328 C39.4938151,176.098958 39.5625,175.892904 39.5625,175.618164 C39.5625,175.480794 39.5625,175.343424 39.5625,175.206055 C39.5625,174.931315 39.5625,174.72526 39.5625,174.587891 C39.5625,174.450521 39.4938151,174.313151 39.3564453,174.175781 C39.2190755,174.175781 39.0817057,174.175781 38.9443359,174.175781 C38.9443359,174.313151 38.9443359,174.450521 38.9443359,174.587891 C39.0817057,174.72526 39.1503906,174.931315 39.1503906,175.206055 C39.1503906,175.343424 39.0817057,175.480794 38.9443359,175.618164 C38.9443359,175.892904 38.9443359,176.098958 38.9443359,176.236328 Z M35.0292969,178.50293 C35.8535156,178.50293 36.5403646,178.296875 37.0898437,177.884766 C37.7766927,177.472656 38.1888021,176.923177 38.3261719,176.236328 C38.4635417,176.236328 38.6695964,176.236328 38.9443359,176.236328 C38.6695964,177.060547 38.1888021,177.747396 37.5019531,178.296875 C36.8151042,178.846354 35.9908854,179.121094 35.0292969,179.121094 C33.9303385,179.121094 33.0374349,178.708984 32.3505859,177.884766 C31.5263672,177.197917 31.1142578,176.305013 31.1142578,175.206055 C31.1142578,174.107096 31.5263672,173.145508 32.3505859,172.321289 C33.0374349,171.63444 33.9303385,171.291016 35.0292969,171.291016 C35.9908854,171.291016 36.8151042,171.565755 37.5019531,172.115234 C38.1888021,172.664714 38.6695964,173.351562 38.9443359,174.175781 C38.8069661,174.175781 38.6009115,174.175781 38.3261719,174.175781 C38.0514323,173.488932 37.6393229,172.870768 37.0898437,172.321289 C36.5403646,171.90918 35.8535156,171.703125 35.0292969,171.703125 C34.0677083,171.703125 33.2434896,172.046549 32.5566406,172.733398 C32.0071615,173.420247 31.7324219,174.244466 31.7324219,175.206055 C31.7324219,176.167643 32.0071615,176.991862 32.5566406,177.678711 C33.2434896,178.22819 34.0677083,178.50293 35.0292969,178.50293 C34.8919271,178.50293 34.7545573,178.50293 34.6171875,178.50293 C34.4798177,178.50293 34.4798177,178.50293 34.6171875,178.50293 C34.4798177,178.50293 34.4798177,178.50293 34.6171875,178.50293 C34.7545573,178.50293 34.8919271,178.50293 35.0292969,178.50293 C35.3040365,178.50293 35.4414062,178.50293 35.4414062,178.50293 C35.578776,178.50293 35.6474609,178.50293 35.6474609,178.50293 C35.6474609,178.50293 35.578776,178.50293 35.4414062,178.50293 C35.4414062,178.50293 35.3040365,178.50293 35.0292969,178.50293 Z M38.3261719,174.175781 C38.4635417,174.313151 38.5322266,174.450521 38.5322266,174.587891 C38.5322266,174.72526 38.5322266,174.931315 38.5322266,175.206055 C38.5322266,175.343424 38.5322266,175.480794 38.5322266,175.618164 C38.5322266,175.892904 38.4635417,176.098958 38.3261719,176.236328 C38.4635417,176.236328 38.6695964,176.236328 38.9443359,176.236328 C38.9443359,176.098958 38.9443359,175.892904 38.9443359,175.618164 C39.0817057,175.480794 39.1503906,175.343424 39.1503906,175.206055 C39.1503906,174.931315 39.0817057,174.72526 38.9443359,174.587891 C38.9443359,174.450521 38.9443359,174.313151 38.9443359,174.175781 C38.8069661,174.175781 38.6695964,174.175781 38.5322266,174.175781 C38.5322266,174.175781 38.4635417,174.175781 38.3261719,174.175781 Z M2.26660156,36.3251953 C2.12923177,36.3251953 2.06054687,36.3938802 2.06054687,36.53125 C1.92317708,36.6686198 1.78580729,36.8059896 1.6484375,36.9433594 C1.51106771,36.9433594 1.37369792,37.0120443 1.23632812,37.1494141 C1.23632812,37.1494141 1.16764323,37.1494141 1.03027344,37.1494141 C0.892903646,37.1494141 0.755533854,37.1494141 0.618164062,37.1494141 C0.480794271,37.0120443 0.412109375,36.9433594 0.412109375,36.9433594 C0.274739583,36.8059896 0.206054687,36.6686198 0.206054687,36.53125 C0.0686848958,36.53125 -4.54747351e-13,36.4625651 -4.54747351e-13,36.3251953 C-4.54747351e-13,36.1878255 0.0686848958,36.0504557 0.206054687,35.9130859 C0.206054687,35.7757161 0.274739583,35.7070312 0.412109375,35.7070312 C0.549479167,35.4322917 0.82421875,35.0888672 1.23632812,34.6767578 C1.6484375,34.4020182 2.06054687,33.9899089 2.47265625,33.4404297 C2.61002604,33.4404297 2.67871094,33.3717448 2.67871094,33.234375 C2.81608073,33.234375 2.88476562,33.234375 2.88476562,33.234375 C2.88476562,33.234375 2.95345052,33.234375 3.09082031,33.234375 C3.09082031,33.234375 3.09082031,33.234375 3.09082031,33.234375 C3.2281901,33.234375 3.296875,33.234375 3.296875,33.234375 C3.296875,33.234375 3.3655599,33.234375 3.50292969,33.234375 C3.50292969,33.3717448 3.57161458,33.4404297 3.70898437,33.4404297 C3.70898437,33.4404297 3.77766927,33.5091146 3.91503906,33.6464844 C3.91503906,33.6464844 3.91503906,33.7151693 3.91503906,33.8525391 C3.91503906,33.9899089 3.91503906,34.0585938 3.91503906,34.0585938 C3.91503906,35.844401 3.91503906,37.9736328 3.91503906,40.4462891 C3.91503906,43.0563151 3.91503906,46.0097656 3.91503906,49.3066406 C3.91503906,49.4440104 3.91503906,49.5813802 3.91503906,49.71875 C3.91503906,49.8561198 3.84635417,49.9934896 3.70898437,50.1308594 C3.57161458,50.1308594 3.50292969,50.1308594 3.50292969,50.1308594 C3.3655599,50.2682292 3.2281901,50.3369141 3.09082031,50.3369141 C2.95345052,50.3369141 2.88476562,50.2682292 2.88476562,50.1308594 C2.74739583,50.1308594 2.61002604,50.1308594 2.47265625,50.1308594 C2.33528646,49.9934896 2.26660156,49.8561198 2.26660156,49.71875 C2.26660156,49.5813802 2.26660156,49.4440104 2.26660156,49.3066406 C2.26660156,47.9329427 2.26660156,46.1471354 2.26660156,43.9492188 C2.26660156,41.7513021 2.26660156,39.2099609 2.26660156,36.3251953 Z M54.1923828,64.9667969 C55.0166016,64.5546875 55.6347656,64.1425781 56.046875,63.7304688 C56.5963542,63.3183594 56.9397786,62.90625 57.0771484,62.4941406 C57.351888,62.219401 57.5579427,61.8759766 57.6953125,61.4638672 C57.6953125,61.1891276 57.6953125,60.914388 57.6953125,60.6396484 C57.6953125,60.6396484 57.6953125,60.5709635 57.6953125,60.4335938 C57.6953125,60.296224 57.6953125,60.1588542 57.6953125,60.0214844 C57.6953125,60.0214844 57.6953125,59.9527995 57.6953125,59.8154297 C57.6953125,59.6780599 57.6266276,59.5406901 57.4892578,59.4033203 C57.4892578,59.2659505 57.4205729,59.1285807 57.2832031,58.9912109 C57.0084635,58.8538411 56.8024089,58.6477865 56.6650391,58.3730469 C56.3902995,58.2356771 56.1155599,58.1669922 55.8408203,58.1669922 C55.4287109,58.0296224 55.0166016,57.9609375 54.6044922,57.9609375 C54.3297526,57.9609375 54.055013,58.0296224 53.7802734,58.1669922 C53.3681641,58.1669922 53.0934245,58.2356771 52.9560547,58.3730469 C52.6813151,58.5104167 52.4752604,58.7164714 52.3378906,58.9912109 C52.063151,59.2659505 51.8570964,59.5406901 51.7197266,59.8154297 C51.7197266,59.9527995 51.6510417,60.0214844 51.5136719,60.0214844 C51.5136719,60.1588542 51.444987,60.2275391 51.3076172,60.2275391 C51.1702474,60.2275391 51.0328776,60.2275391 50.8955078,60.2275391 C50.758138,60.2275391 50.6894531,60.2275391 50.6894531,60.2275391 C50.5520833,60.0901693 50.4147135,60.0214844 50.2773437,60.0214844 C50.2773437,59.8841146 50.2086589,59.7467448 50.0712891,59.609375 C50.0712891,59.609375 50.0712891,59.5406901 50.0712891,59.4033203 C50.0712891,59.2659505 50.0712891,59.1285807 50.0712891,58.9912109 C50.3460286,58.5791016 50.6207682,58.1669922 50.8955078,57.7548828 C51.1702474,57.4801432 51.5136719,57.2054036 51.9257812,56.9306641 C52.3378906,56.6559245 52.75,56.5185547 53.1621094,56.5185547 C53.5742187,56.3811849 54.055013,56.3125 54.6044922,56.3125 C55.5660807,56.3125 56.3216146,56.3811849 56.8710937,56.5185547 C57.5579427,56.7932943 58.1074219,57.2054036 58.5195312,57.7548828 C58.7942708,58.1669922 59.0690104,58.6477865 59.34375,59.1972656 C59.4811198,59.609375 59.5498047,60.0901693 59.5498047,60.6396484 C59.5498047,61.1891276 59.4811198,61.7386068 59.34375,62.2880859 C59.2063802,62.8375651 58.9316406,63.3183594 58.5195312,63.7304688 C58.2447917,64.1425781 57.8326823,64.6233724 57.2832031,65.1728516 C56.733724,65.5849609 56.046875,66.0657552 55.2226562,66.6152344 C54.5358073,67.0273438 53.9863281,67.4394531 53.5742187,67.8515625 C53.1621094,68.2636719 52.8186849,68.6757812 52.5439453,69.0878906 C52.2692057,69.6373698 52.063151,70.1181641 51.9257812,70.5302734 C51.6510417,70.9423828 51.5136719,71.2858073 51.5136719,71.5605469 C52.3378906,71.5605469 53.3681641,71.5605469 54.6044922,71.5605469 C55.8408203,71.5605469 57.2832031,71.5605469 58.9316406,71.5605469 C59.0690104,71.5605469 59.2063802,71.5605469 59.34375,71.5605469 C59.34375,71.5605469 59.4124349,71.6292318 59.5498047,71.7666016 C59.6871745,71.9039714 59.7558594,72.0413411 59.7558594,72.1787109 C59.7558594,72.1787109 59.7558594,72.2473958 59.7558594,72.3847656 C59.7558594,72.5221354 59.7558594,72.6595052 59.7558594,72.796875 C59.7558594,72.9342448 59.6871745,73.0029297 59.5498047,73.0029297 C59.4124349,73.1402995 59.34375,73.2089844 59.34375,73.2089844 C59.2063802,73.2089844 59.0690104,73.2089844 58.9316406,73.2089844 C58.2447917,73.2089844 57.5579427,73.2089844 56.8710937,73.2089844 C56.046875,73.2089844 55.2913411,73.2089844 54.6044922,73.2089844 C53.9176432,73.2089844 53.2307943,73.2089844 52.5439453,73.2089844 C51.7197266,73.2089844 50.9641927,73.2089844 50.2773437,73.2089844 C50.2773437,73.2089844 50.2086589,73.2089844 50.0712891,73.2089844 C50.0712891,73.2089844 50.0026042,73.2089844 49.8652344,73.2089844 C49.8652344,73.2089844 49.8652344,73.2089844 49.8652344,73.2089844 C49.7278646,73.0716146 49.6591797,73.0029297 49.6591797,73.0029297 C49.6591797,73.0029297 49.6591797,72.9342448 49.6591797,72.796875 C49.5218099,72.796875 49.453125,72.796875 49.453125,72.796875 C49.453125,72.6595052 49.453125,72.5908203 49.453125,72.5908203 C49.453125,72.5908203 49.453125,72.5221354 49.453125,72.3847656 C49.453125,72.3847656 49.453125,72.3847656 49.453125,72.3847656 C49.453125,72.3847656 49.453125,72.3847656 49.453125,72.3847656 C49.453125,72.3847656 49.453125,72.2473958 49.453125,71.9726562 C49.5904948,71.6979167 49.6591797,71.3544922 49.6591797,70.9423828 C49.7965495,70.5302734 49.9339193,70.1181641 50.0712891,69.7060547 C50.3460286,69.2939453 50.6207682,68.813151 50.8955078,68.2636719 C51.1702474,67.9889323 51.3763021,67.7141927 51.5136719,67.4394531 C51.7884115,67.1647135 52.063151,66.889974 52.3378906,66.6152344 C52.6126302,66.3404948 52.8873698,66.0657552 53.1621094,65.7910156 C53.436849,65.516276 53.7802734,65.2415365 54.1923828,64.9667969 Z M59.7558594,126.783203 C59.7558594,127.470052 59.6184896,128.019531 59.34375,128.431641 C59.0690104,128.98112 58.656901,129.461914 58.1074219,129.874023 C58.1074219,130.011393 58.038737,130.080078 57.9013672,130.080078 C57.7639974,130.217448 57.6953125,130.286133 57.6953125,130.286133 C57.4205729,130.148763 57.2145182,130.080078 57.0771484,130.080078 C56.9397786,129.942708 56.733724,129.805339 56.4589844,129.667969 C56.1842448,129.667969 55.8408203,129.599284 55.4287109,129.461914 C55.1539714,129.461914 54.8105469,129.461914 54.3984375,129.461914 C54.3984375,129.461914 54.3984375,129.461914 54.3984375,129.461914 C54.3984375,129.461914 54.3984375,129.461914 54.3984375,129.461914 C54.9479167,129.461914 55.4287109,129.393229 55.8408203,129.255859 C56.2529297,129.11849 56.5963542,128.912435 56.8710937,128.637695 C57.2832031,128.362956 57.5579427,128.088216 57.6953125,127.813477 C57.8326823,127.538737 57.9013672,127.195312 57.9013672,126.783203 C57.9013672,126.508464 57.9013672,126.302409 57.9013672,126.165039 C57.7639974,126.027669 57.6953125,125.890299 57.6953125,125.75293 C57.5579427,125.61556 57.4892578,125.47819 57.4892578,125.34082 C57.351888,125.203451 57.2832031,125.134766 57.2832031,125.134766 C57.1458333,124.997396 57.0084635,124.860026 56.8710937,124.722656 C56.5963542,124.585286 56.3902995,124.516602 56.2529297,124.516602 C56.1155599,124.379232 55.9781901,124.310547 55.8408203,124.310547 C55.5660807,124.173177 55.360026,124.104492 55.2226562,124.104492 C54.9479167,124.104492 54.6731771,124.173177 54.3984375,124.310547 C54.1236979,124.310547 53.8489583,124.379232 53.5742187,124.516602 C53.2994792,124.653971 53.0934245,124.791341 52.9560547,124.928711 C52.6813151,125.066081 52.4752604,125.203451 52.3378906,125.34082 C52.2005208,125.47819 52.1318359,125.546875 52.1318359,125.546875 C51.9944661,125.684245 51.8570964,125.75293 51.7197266,125.75293 C51.5823568,125.75293 51.444987,125.684245 51.3076172,125.546875 C51.3076172,125.546875 51.2389323,125.47819 51.1015625,125.34082 C50.9641927,125.34082 50.8955078,125.272135 50.8955078,125.134766 C50.758138,124.997396 50.6894531,124.928711 50.6894531,124.928711 C50.6894531,124.791341 50.758138,124.653971 50.8955078,124.516602 C50.8955078,124.379232 50.8955078,124.241862 50.8955078,124.104492 C51.1702474,123.829753 51.5136719,123.623698 51.9257812,123.486328 C52.2005208,123.211589 52.5439453,123.005534 52.9560547,122.868164 C53.2307943,122.730794 53.5742187,122.593424 53.9863281,122.456055 C54.3984375,122.456055 54.8105469,122.456055 55.2226562,122.456055 C55.4973958,122.456055 55.7721354,122.456055 56.046875,122.456055 C56.4589844,122.593424 56.8024089,122.730794 57.0771484,122.868164 C57.351888,123.005534 57.6266276,123.142904 57.9013672,123.280273 C58.038737,123.417643 58.2447917,123.623698 58.5195312,123.898438 C58.656901,124.035807 58.7942708,124.241862 58.9316406,124.516602 C59.2063802,124.653971 59.34375,124.860026 59.34375,125.134766 C59.4811198,125.409505 59.5498047,125.684245 59.5498047,125.958984 C59.6871745,126.233724 59.7558594,126.508464 59.7558594,126.783203 C59.7558594,126.783203 59.7558594,126.783203 59.7558594,126.783203 C59.7558594,126.783203 59.7558594,126.783203 59.7558594,126.783203 Z M53.7802734,130.904297 C53.9176432,131.041667 54.055013,131.110352 54.1923828,131.110352 C54.3297526,131.110352 54.3984375,131.110352 54.3984375,131.110352 C55.0852865,131.110352 55.7034505,131.041667 56.2529297,130.904297 C56.6650391,130.766927 57.1458333,130.560872 57.6953125,130.286133 C57.8326823,130.423503 57.9700521,130.492188 58.1074219,130.492188 C58.1074219,130.629557 58.1761068,130.766927 58.3134766,130.904297 C58.5882161,131.179036 58.7942708,131.385091 58.9316406,131.522461 C59.0690104,131.797201 59.2063802,132.07194 59.34375,132.34668 C59.4811198,132.758789 59.5498047,133.102214 59.5498047,133.376953 C59.6871745,133.789062 59.7558594,134.132487 59.7558594,134.407227 C59.7558594,135.094076 59.6184896,135.780924 59.34375,136.467773 C59.0690104,137.017253 58.656901,137.566732 58.1074219,138.116211 C57.5579427,138.52832 56.9397786,138.871745 56.2529297,139.146484 C55.7034505,139.421224 55.0166016,139.558594 54.1923828,139.558594 C53.6429036,139.558594 53.1621094,139.489909 52.75,139.352539 C52.3378906,139.215169 51.9257812,139.077799 51.5136719,138.94043 C51.1015625,138.66569 50.6894531,138.390951 50.2773437,138.116211 C50.0026042,137.704102 49.7278646,137.360677 49.453125,137.085938 C49.453125,136.948568 49.453125,136.879883 49.453125,136.879883 C49.3157552,136.742513 49.2470703,136.605143 49.2470703,136.467773 C49.2470703,136.467773 49.2470703,136.467773 49.2470703,136.467773 C49.2470703,136.467773 49.2470703,136.399089 49.2470703,136.261719 C49.3844401,136.261719 49.453125,136.193034 49.453125,136.055664 C49.5904948,135.918294 49.6591797,135.849609 49.6591797,135.849609 C49.7965495,135.71224 49.9339193,135.643555 50.0712891,135.643555 C50.2086589,135.643555 50.3460286,135.643555 50.4833984,135.643555 C50.4833984,135.643555 50.5520833,135.71224 50.6894531,135.849609 C50.8268229,135.849609 50.8955078,135.918294 50.8955078,136.055664 C51.1702474,136.330404 51.3763021,136.536458 51.5136719,136.673828 C51.7884115,136.948568 52.063151,137.154622 52.3378906,137.291992 C52.6126302,137.429362 52.8873698,137.566732 53.1621094,137.704102 C53.436849,137.704102 53.7802734,137.704102 54.1923828,137.704102 C54.6044922,137.704102 55.0166016,137.635417 55.4287109,137.498047 C55.8408203,137.360677 56.2529297,137.154622 56.6650391,136.879883 C57.0771484,136.605143 57.351888,136.261719 57.4892578,135.849609 C57.7639974,135.4375 57.9013672,134.956706 57.9013672,134.407227 C57.9013672,134.132487 57.9013672,133.926432 57.9013672,133.789062 C57.9013672,133.514323 57.8326823,133.308268 57.6953125,133.170898 C57.6953125,132.896159 57.6266276,132.690104 57.4892578,132.552734 C57.351888,132.415365 57.2145182,132.277995 57.0771484,132.140625 C56.9397786,132.003255 56.733724,131.865885 56.4589844,131.728516 C56.3216146,131.591146 56.1155599,131.522461 55.8408203,131.522461 C55.5660807,131.385091 55.2913411,131.316406 55.0166016,131.316406 C54.741862,131.179036 54.4671224,131.110352 54.1923828,131.110352 C54.055013,131.110352 53.9176432,131.110352 53.7802734,131.110352 C53.6429036,131.110352 53.5055339,131.041667 53.3681641,130.904297 C53.3681641,130.766927 53.3681641,130.698242 53.3681641,130.698242 C53.2307943,130.560872 53.1621094,130.423503 53.1621094,130.286133 C53.1621094,130.148763 53.2307943,130.011393 53.3681641,129.874023 C53.3681641,129.874023 53.3681641,129.805339 53.3681641,129.667969 C53.5055339,129.530599 53.6429036,129.461914 53.7802734,129.461914 C53.9176432,129.461914 54.055013,129.461914 54.1923828,129.461914 C54.1923828,129.461914 54.1923828,129.461914 54.1923828,129.461914 C54.1923828,129.461914 54.2610677,129.461914 54.3984375,129.461914 C54.2610677,129.461914 54.1923828,129.461914 54.1923828,129.461914 C54.055013,129.461914 53.9176432,129.530599 53.7802734,129.667969 C53.7802734,129.667969 53.7115885,129.736654 53.5742187,129.874023 C53.5742187,130.011393 53.5742187,130.148763 53.5742187,130.286133 C53.5742187,130.423503 53.5742187,130.560872 53.5742187,130.698242 C53.7115885,130.698242 53.7802734,130.766927 53.7802734,130.904297 Z M54.3984375,129.461914 C54.8105469,129.461914 55.1539714,129.461914 55.4287109,129.461914 C55.8408203,129.599284 56.1842448,129.667969 56.4589844,129.667969 C56.733724,129.805339 56.9397786,129.942708 57.0771484,130.080078 C57.2145182,130.080078 57.4205729,130.148763 57.6953125,130.286133 C57.1458333,130.560872 56.6650391,130.766927 56.2529297,130.904297 C55.7034505,131.041667 55.0852865,131.110352 54.3984375,131.110352 C54.3984375,131.110352 54.3297526,131.110352 54.1923828,131.110352 C54.055013,131.110352 53.9176432,131.041667 53.7802734,130.904297 C53.7802734,130.766927 53.7115885,130.698242 53.5742187,130.698242 C53.5742187,130.560872 53.5742187,130.423503 53.5742187,130.286133 C53.5742187,130.148763 53.5742187,130.011393 53.5742187,129.874023 C53.7115885,129.874023 53.7802734,129.805339 53.7802734,129.667969 C53.9176432,129.530599 54.055013,129.461914 54.1923828,129.461914 C54.1923828,129.461914 54.2610677,129.461914 54.3984375,129.461914 Z M20.6054687,188.1875 C20.6054687,187.638021 20.6054687,187.088542 20.6054687,186.539062 C20.6054687,185.989583 20.6054687,185.440104 20.6054687,184.890625 C20.8802083,184.890625 21.1549479,184.890625 21.4296875,184.890625 C21.7044271,184.890625 21.9791667,184.890625 22.2539062,184.890625 C22.2539062,185.302734 22.2539062,185.783529 22.2539062,186.333008 C22.2539062,186.882487 22.2539062,187.500651 22.2539062,188.1875 C22.2539062,188.1875 22.2539062,188.256185 22.2539062,188.393555 C22.2539062,188.530924 22.1852214,188.668294 22.0478516,188.805664 C22.0478516,188.805664 21.9791667,188.874349 21.8417969,189.011719 C21.7044271,189.011719 21.5670573,189.011719 21.4296875,189.011719 C21.2923177,189.011719 21.2236328,189.011719 21.2236328,189.011719 C21.086263,188.874349 20.9488932,188.805664 20.8115234,188.805664 C20.6741536,188.668294 20.6054687,188.530924 20.6054687,188.393555 C20.6054687,188.256185 20.6054687,188.1875 20.6054687,188.1875 Z M22.4599609,183.036133 C22.0478516,183.036133 21.7044271,183.036133 21.4296875,183.036133 C21.1549479,183.036133 20.8802083,183.036133 20.6054687,183.036133 C20.6054687,183.310872 20.6054687,183.585612 20.6054687,183.860352 C20.6054687,184.272461 20.6054687,184.615885 20.6054687,184.890625 C20.8802083,184.890625 21.1549479,184.890625 21.4296875,184.890625 C21.7044271,184.890625 22.0478516,184.890625 22.4599609,184.890625 C22.4599609,184.478516 22.4599609,184.135091 22.4599609,183.860352 C22.4599609,183.585612 22.4599609,183.310872 22.4599609,183.036133 Z M22.0478516,175.618164 C22.0478516,175.618164 21.9791667,175.549479 21.8417969,175.412109 C21.7044271,175.412109 21.5670573,175.412109 21.4296875,175.412109 C21.2923177,175.412109 21.2236328,175.412109 21.2236328,175.412109 C21.086263,175.549479 20.9488932,175.618164 20.8115234,175.618164 C20.8115234,175.755534 20.7428385,175.892904 20.6054687,176.030273 C20.6054687,176.030273 20.6054687,176.098958 20.6054687,176.236328 C20.6054687,177.610026 20.6054687,178.846354 20.6054687,179.945312 C20.6054687,181.044271 20.6054687,182.074544 20.6054687,183.036133 C20.8802083,183.036133 21.1549479,183.036133 21.4296875,183.036133 C21.7044271,183.036133 22.0478516,183.036133 22.4599609,183.036133 C22.4599609,181.662435 22.4599609,180.426107 22.4599609,179.327148 C22.4599609,178.09082 22.4599609,177.060547 22.4599609,176.236328 C22.4599609,176.098958 22.391276,176.030273 22.2539062,176.030273 C22.2539062,175.892904 22.1852214,175.755534 22.0478516,175.618164 Z M24.1083984,184.478516 C24.1083984,184.478516 24.1770833,184.409831 24.3144531,184.272461 C24.3144531,184.135091 24.3144531,183.997721 24.3144531,183.860352 C24.3144531,183.722982 24.3144531,183.654297 24.3144531,183.654297 C24.1770833,183.516927 24.1083984,183.379557 24.1083984,183.242188 C23.9710286,183.242188 23.8336589,183.173503 23.6962891,183.036133 C23.5589193,183.036133 23.4902344,183.036133 23.4902344,183.036133 C23.2154948,183.036133 23.0094401,183.036133 22.8720703,183.036133 C22.7347005,183.036133 22.5973307,183.036133 22.4599609,183.036133 C22.4599609,183.310872 22.4599609,183.585612 22.4599609,183.860352 C22.4599609,184.135091 22.4599609,184.478516 22.4599609,184.890625 C22.5973307,184.890625 22.7347005,184.890625 22.8720703,184.890625 C23.0094401,184.890625 23.2154948,184.890625 23.4902344,184.890625 C23.4902344,184.890625 23.5589193,184.82194 23.6962891,184.68457 C23.8336589,184.68457 23.9710286,184.615885 24.1083984,184.478516 Z M13.8056641,183.860352 C13.8056641,183.860352 13.8056641,183.929036 13.8056641,184.066406 C13.8056641,184.066406 13.8056641,184.066406 13.8056641,184.066406 C13.8056641,184.066406 13.874349,184.135091 14.0117187,184.272461 C14.0117187,184.272461 14.0117187,184.341146 14.0117187,184.478516 C14.0117187,184.478516 14.0804036,184.547201 14.2177734,184.68457 C14.2177734,184.68457 14.2864583,184.68457 14.4238281,184.68457 C14.4238281,184.68457 14.492513,184.753255 14.6298828,184.890625 C14.6298828,184.890625 14.6985677,184.890625 14.8359375,184.890625 C15.5227865,184.890625 16.2096354,184.890625 16.8964844,184.890625 C17.5833333,184.890625 18.3388672,184.890625 19.1630859,184.890625 C19.3004557,184.890625 19.5065104,184.890625 19.78125,184.890625 C20.0559896,184.890625 20.3307292,184.890625 20.6054687,184.890625 C20.6054687,184.615885 20.6054687,184.341146 20.6054687,184.066406 C20.6054687,183.654297 20.6054687,183.310872 20.6054687,183.036133 C19.6438802,183.036133 18.8196615,183.036133 18.1328125,183.036133 C17.3085937,183.036133 16.6217448,183.036133 16.0722656,183.036133 C17.0338542,180.838216 17.8580729,178.915039 18.5449219,177.266602 C19.2317708,175.618164 19.78125,174.244466 20.1933594,173.145508 C20.3307292,173.008138 20.3994141,172.870768 20.3994141,172.733398 C20.3994141,172.596029 20.3307292,172.527344 20.1933594,172.527344 C20.1933594,172.389974 20.1246745,172.252604 19.9873047,172.115234 C19.9873047,172.115234 19.9186198,172.046549 19.78125,171.90918 C19.78125,171.90918 19.7125651,171.90918 19.5751953,171.90918 C19.5751953,171.90918 19.5065104,171.90918 19.3691406,171.90918 C19.3691406,171.90918 19.3004557,171.90918 19.1630859,171.90918 C19.1630859,171.90918 19.1630859,171.90918 19.1630859,171.90918 C19.0257161,172.046549 18.8883464,172.115234 18.7509766,172.115234 C18.7509766,172.252604 18.6822917,172.389974 18.5449219,172.527344 C17.5833333,175 16.6904297,177.129232 15.8662109,178.915039 C15.0419922,180.838216 14.4238281,182.417969 14.0117187,183.654297 C14.0117187,183.654297 13.9430339,183.654297 13.8056641,183.654297 C13.8056641,183.791667 13.8056641,183.860352 13.8056641,183.860352 Z" transform="translate(-6.041)"/></svg>