<svg xmlns="http://www.w3.org/2000/svg" width="95" height="243" viewBox="0 0 95 243"><path fill="#131313" d="M13.59375,146.420201 C12.8450521,144.473586 12.171224,142.452102 11.5722656,140.355748 C10.9733073,138.259394 10.5989583,136.08817 10.4492188,133.842076 C10.2994792,133.692336 10.2246094,133.542597 10.2246094,133.392857 C10.2246094,133.243118 10.2246094,133.093378 10.2246094,132.943638 C10.0748698,131.296503 10,129.649368 10,128.002232 C10,122.611607 10.8235677,117.071243 12.4707031,111.381138 C14.7167969,104.193638 18.1608073,98.1291853 22.8027344,93.187779 C27.2949219,88.3961124 32.5358073,84.8023624 38.5253906,82.406529 C44.514974,80.1604353 50.4296875,79.4866071 56.2695312,80.3850446 C60.4622396,81.1337426 64.2057292,82.6311384 67.5,84.8772321 C70.6445312,87.2730655 73.0403646,90.2678571 74.6875,93.8616071 C76.7838542,98.0543155 77.6822917,102.471633 77.3828125,107.11356 C77.0833333,111.605748 75.6608073,115.798456 73.1152344,119.691685 C70.8691406,123.285435 66.4518229,127.328404 59.8632812,131.820592 C53.2747396,136.312779 42.8678385,139.157831 28.6425781,140.355748 C30.139974,143.350539 32.0865885,145.671503 34.4824219,147.318638 C36.8782552,148.816034 39.8730469,149.564732 43.4667969,149.564732 C49.0071615,149.564732 53.7988281,148.816034 57.8417969,147.318638 C61.8847656,145.821243 66.1523438,142.452102 70.6445312,137.211217 C72.1419271,135.564081 74.0136719,134.665644 76.2597656,134.515904 C78.5058594,134.366164 80.452474,135.039993 82.0996094,136.537388 C83.8964844,138.034784 84.8697917,139.906529 85.0195312,142.152623 C85.1692708,144.398717 84.4954427,146.345331 82.9980469,147.992467 C76.5592448,155.329706 70.1953125,160.121373 63.90625,162.367467 C57.4674479,164.61356 50.6542969,165.736607 43.4667969,165.736607 C36.578776,165.736607 30.5891927,164.089472 25.4980469,160.795201 C20.2571615,157.35119 16.2890625,152.559524 13.59375,146.420201 Z M38.3105469,103.861328 C36.0644531,106.406901 34.1927083,109.401693 32.6953125,112.845703 C31.3476562,116.439453 30.4492188,120.108073 30,123.851562 C38.2356771,123.252604 45.1985677,121.830078 50.8886719,119.583984 C56.578776,117.337891 60.6217448,114.343099 63.0175781,110.599609 C64.0657552,108.952474 64.6647135,107.305339 64.8144531,105.658203 C64.8144531,103.861328 64.4401042,102.064453 63.6914062,100.267578 C63.0924479,99.219401 62.2688802,98.3209635 61.2207031,97.5722656 C60.172526,96.9733073 58.8997396,96.5240885 57.4023438,96.2246094 C57.1028646,96.2246094 56.7285156,96.1497396 56.2792969,96 C55.9798177,96 55.6054688,96 55.15625,96 C52.6106771,96 49.8404948,96.5989583 46.8457031,97.796875 C43.7011719,99.1445312 40.8561198,101.166016 38.3105469,103.861328 Z M52.0234375,143.917969 C52.0234375,143.768229 52.0234375,143.61849 52.0234375,143.46875 C52.0234375,143.31901 52.0234375,143.169271 52.0234375,143.019531 C52.0234375,142.720052 51.9485677,142.495443 51.7988281,142.345703 C51.6490885,142.046224 51.5742188,141.821615 51.5742188,141.671875 C60.109375,138.976562 66.4733073,135.382812 70.6660156,130.890625 C74.858724,126.248698 77.0299479,123.927734 77.1796875,123.927734 C77.3294271,124.077474 77.703776,124.227214 78.3027344,124.376953 C78.0032552,124.227214 77.6289062,124.002604 77.1796875,123.703125 C80.6236979,118.46224 82.4954427,112.847005 82.7949219,106.857422 C83.2441406,100.867839 82.1210938,95.0279948 79.4257812,89.3378906 C77.6289062,85.2949219 75.0833333,81.8509115 71.7890625,79.0058594 C68.4947917,76.1608073 64.6764323,74.0644531 60.3339844,72.7167969 C60.483724,72.1178385 60.6334635,71.2942708 60.7832031,70.2460938 C65.4251302,71.7434896 69.5429688,74.0644531 73.1367188,77.2089844 C76.7304688,80.3535156 79.500651,84.0970052 81.4472656,88.4394531 C84.2923177,94.4290365 85.4902344,100.643229 85.0410156,107.082031 C84.7415365,113.371094 82.7949219,119.360677 79.2011719,125.050781 C79.2011719,125.050781 79.1263021,125.125651 78.9765625,125.275391 C78.8268229,125.57487 76.5807292,128.045573 72.2382812,132.6875 C67.7460938,137.329427 61.0078125,141.072917 52.0234375,143.917969 Z M58.5371094,69.796875 C58.3873698,70.2460938 58.2376302,70.9947917 58.0878906,72.0429688 C58.3873698,72.0429688 58.7617188,72.1178385 59.2109375,72.2675781 C59.6601562,72.4173177 60.0345052,72.5670573 60.3339844,72.7167969 C60.3339844,73.1660156 60.2591146,73.764974 60.109375,74.5136719 C57.4140625,73.4654948 53.4459635,71.8183594 48.2050781,69.5722656 C51.0501302,69.2727865 55.3177083,68.7486979 61.0078125,68 C61.0078125,68.4492188 60.9329427,69.1979167 60.7832031,70.2460938 C60.3339844,70.2460938 59.9596354,70.171224 59.6601562,70.0214844 C59.3606771,69.8717448 58.9863281,69.796875 58.5371094,69.796875 Z M58.5371094,69.796875 C58.9863281,69.796875 59.3606771,69.8717448 59.6601562,70.0214844 C59.9596354,70.171224 60.3339844,70.3209635 60.7832031,70.4707031 C60.6334635,70.9199219 60.483724,71.6686198 60.3339844,72.7167969 C60.0345052,72.5670573 59.6601562,72.4173177 59.2109375,72.2675781 C58.7617188,72.1178385 58.3873698,72.0429688 58.0878906,72.0429688 C58.0878906,71.59375 58.1627604,71.219401 58.3125,70.9199219 C58.4622396,70.4707031 58.5371094,70.0963542 58.5371094,69.796875 Z M51.5742188,143.917969 C51.5742188,143.917969 51.6490885,143.917969 51.7988281,143.917969 C51.9485677,143.917969 52.0234375,143.917969 52.0234375,143.917969 C52.0234375,145.115885 51.6490885,146.164062 50.9003906,147.0625 C50.1516927,147.960938 49.1783854,148.559896 47.9804688,148.859375 C46.6328125,149.009115 45.4348958,148.709635 44.3867188,147.960938 C43.3385417,147.21224 42.6647135,146.164062 42.3652344,144.816406 C42.0657552,143.46875 42.3652344,142.195964 43.2636719,140.998047 C44.0123698,139.94987 45.0605469,139.350911 46.4082031,139.201172 C47.4563802,138.901693 48.4296875,138.976562 49.328125,139.425781 C50.2265625,140.02474 50.9752604,140.773438 51.5742188,141.671875 C51.4244792,141.671875 51.2747396,141.671875 51.125,141.671875 C51.125,141.671875 51.0501302,141.671875 50.9003906,141.671875 C50.4511719,140.923177 49.8522135,140.399089 49.1035156,140.099609 C48.2050781,139.650391 47.3066406,139.500651 46.4082031,139.650391 C45.2102865,139.80013 44.311849,140.399089 43.7128906,141.447266 C42.9641927,142.345703 42.7395833,143.39388 43.0390625,144.591797 C43.1888021,145.789714 43.7128906,146.763021 44.6113281,147.511719 C45.6595052,148.110677 46.7825521,148.335286 47.9804688,148.185547 C49.0286458,148.035807 49.8522135,147.511719 50.4511719,146.613281 C51.1998698,145.864583 51.5742188,144.966146 51.5742188,143.917969 Z M51.3496094,143.244141 C51.3496094,142.944661 51.3496094,142.645182 51.3496094,142.345703 C51.1998698,142.195964 51.0501302,141.971354 50.9003906,141.671875 C51.0501302,141.671875 51.125,141.671875 51.125,141.671875 C51.2747396,141.671875 51.4244792,141.671875 51.5742188,141.671875 C51.5742188,141.821615 51.6490885,142.046224 51.7988281,142.345703 C51.9485677,142.495443 52.0234375,142.720052 52.0234375,143.019531 C52.0234375,143.169271 52.0234375,143.31901 52.0234375,143.46875 C52.0234375,143.61849 52.0234375,143.768229 52.0234375,143.917969 C52.0234375,143.917969 51.9485677,143.917969 51.7988281,143.917969 C51.6490885,143.917969 51.5742188,143.917969 51.5742188,143.917969 C51.5742188,143.917969 51.5742188,143.843099 51.5742188,143.693359 C51.5742188,143.54362 51.499349,143.39388 51.3496094,143.244141 Z M47.7558594,147.511719 C48.6542969,147.361979 49.4029948,146.98763 50.0019531,146.388672 C50.6009115,145.789714 50.9003906,145.041016 50.9003906,144.142578 C51.0501302,144.142578 51.125,144.142578 51.125,144.142578 C51.2747396,144.142578 51.4244792,144.067708 51.5742187,143.917969 C51.5742187,144.966146 51.1998698,145.864583 50.4511719,146.613281 C49.8522135,147.511719 49.0286458,148.035807 47.9804687,148.185547 C46.7825521,148.335286 45.6595052,148.110677 44.6113281,147.511719 C43.7128906,146.763021 43.1888021,145.789714 43.0390625,144.591797 C42.7395833,143.39388 42.9641927,142.345703 43.7128906,141.447266 C44.311849,140.399089 45.2102865,139.80013 46.4082031,139.650391 C47.3066406,139.500651 48.2050781,139.650391 49.1035156,140.099609 C49.8522135,140.399089 50.4511719,140.923177 50.9003906,141.671875 C50.9003906,141.821615 50.8255208,141.896484 50.6757812,141.896484 C50.5260417,141.896484 50.4511719,141.896484 50.4511719,141.896484 C50.0019531,141.297526 49.4778646,140.848307 48.8789062,140.548828 C48.1302083,140.249349 47.3815104,140.174479 46.6328125,140.324219 C45.5846354,140.473958 44.7610677,140.923177 44.1621094,141.671875 C43.563151,142.570312 43.3385417,143.54362 43.4882812,144.591797 C43.6380208,145.639974 44.1621094,146.463542 45.0605469,147.0625 C45.9589844,147.661458 46.8574219,147.811198 47.7558594,147.511719 C47.905599,147.511719 47.9804687,147.511719 47.9804687,147.511719 C48.1302083,147.511719 48.2050781,147.511719 48.2050781,147.511719 C48.2050781,147.511719 48.2050781,147.511719 48.2050781,147.511719 C48.2050781,147.511719 48.2050781,147.511719 48.2050781,147.511719 C48.2050781,147.511719 48.2050781,147.511719 48.2050781,147.511719 C48.2050781,147.511719 48.2050781,147.511719 48.2050781,147.511719 C48.2050781,147.511719 48.1302083,147.511719 47.9804687,147.511719 C47.9804687,147.511719 47.905599,147.511719 47.7558594,147.511719 Z M50.9003906,141.671875 C51.0501302,141.971354 51.1998698,142.195964 51.3496094,142.345703 C51.3496094,142.645182 51.3496094,142.944661 51.3496094,143.244141 C51.499349,143.39388 51.5742188,143.54362 51.5742188,143.693359 C51.5742188,143.843099 51.5742188,143.992839 51.5742188,144.142578 C51.4244792,144.142578 51.2747396,144.142578 51.125,144.142578 C51.125,144.142578 51.0501302,144.142578 50.9003906,144.142578 C50.9003906,143.992839 50.9003906,143.843099 50.9003906,143.693359 C50.9003906,143.54362 50.9003906,143.39388 50.9003906,143.244141 C50.9003906,143.094401 50.8255208,142.869792 50.6757812,142.570312 C50.6757812,142.420573 50.6009115,142.195964 50.4511719,141.896484 C50.4511719,141.896484 50.5260417,141.896484 50.6757812,141.896484 C50.8255208,141.896484 50.9003906,141.821615 50.9003906,141.671875 Z M93.3515625,109.777344 C93.2018229,109.777344 93.0520833,109.852214 92.9023438,110.001953 C92.7526042,110.151693 92.6028646,110.301432 92.453125,110.451172 C92.453125,110.451172 92.3782552,110.526042 92.2285156,110.675781 C92.078776,110.675781 91.9290365,110.675781 91.7792969,110.675781 C91.7792969,110.675781 91.7044271,110.675781 91.5546875,110.675781 C91.4049479,110.526042 91.2552083,110.451172 91.1054688,110.451172 C91.1054688,110.301432 91.030599,110.151693 90.8808594,110.001953 C90.8808594,109.852214 90.8808594,109.777344 90.8808594,109.777344 C90.8808594,109.627604 90.8808594,109.477865 90.8808594,109.328125 C91.030599,109.178385 91.1054688,109.103516 91.1054688,109.103516 C91.4049479,108.804036 91.7792969,108.429688 92.2285156,107.980469 C92.5279948,107.68099 92.9772135,107.231771 93.5761719,106.632812 C93.5761719,106.632812 93.6510417,106.557943 93.8007812,106.408203 C93.8007812,106.408203 93.875651,106.408203 94.0253906,106.408203 C94.0253906,106.408203 94.0253906,106.408203 94.0253906,106.408203 C94.1751302,106.408203 94.25,106.408203 94.25,106.408203 C94.25,106.408203 94.3248698,106.408203 94.4746094,106.408203 C94.4746094,106.408203 94.4746094,106.408203 94.4746094,106.408203 C94.624349,106.408203 94.7740885,106.483073 94.9238281,106.632812 C94.9238281,106.632812 94.9238281,106.707682 94.9238281,106.857422 C95.0735677,106.857422 95.1484375,106.932292 95.1484375,107.082031 C95.1484375,107.082031 95.1484375,107.156901 95.1484375,107.306641 C95.1484375,109.103516 95.1484375,111.424479 95.1484375,114.269531 C95.1484375,117.114583 95.1484375,120.333984 95.1484375,123.927734 C95.1484375,124.077474 95.1484375,124.227214 95.1484375,124.376953 C94.9986979,124.526693 94.9238281,124.601562 94.9238281,124.601562 C94.7740885,124.751302 94.624349,124.826172 94.4746094,124.826172 C94.4746094,124.975911 94.3997396,125.050781 94.25,125.050781 C94.1002604,125.050781 93.9505208,124.975911 93.8007812,124.826172 C93.6510417,124.826172 93.5761719,124.751302 93.5761719,124.601562 C93.4264323,124.601562 93.3515625,124.526693 93.3515625,124.376953 C93.3515625,124.227214 93.3515625,124.077474 93.3515625,123.927734 C93.3515625,122.430339 93.3515625,120.483724 93.3515625,118.087891 C93.3515625,115.692057 93.3515625,112.921875 93.3515625,109.777344 Z"/></svg>