<svg xmlns="http://www.w3.org/2000/svg" width="243" height="243" viewBox="0 0 243 243"><path fill="#131313" d="M87.59375,146.420201 C86.8450521,144.473586 86.171224,142.452102 85.5722656,140.355748 C84.9733073,138.259394 84.5989583,136.08817 84.4492188,133.842076 C84.2994792,133.692336 84.2246094,133.542597 84.2246094,133.392857 C84.2246094,133.243118 84.2246094,133.093378 84.2246094,132.943638 C84.0748698,131.296503 84,129.649368 84,128.002232 C84,122.611607 84.8235677,117.071243 86.4707031,111.381138 C88.7167969,104.193638 92.1608073,98.1291853 96.8027344,93.187779 C101.294922,88.3961124 106.535807,84.8023624 112.525391,82.406529 C118.514974,80.1604353 124.429688,79.4866071 130.269531,80.3850446 C134.46224,81.1337426 138.205729,82.6311384 141.5,84.8772321 C144.644531,87.2730655 147.040365,90.2678571 148.6875,93.8616071 C150.783854,98.0543155 151.682292,102.471633 151.382812,107.11356 C151.083333,111.605748 149.660807,115.798456 147.115234,119.691685 C144.869141,123.285435 140.451823,127.328404 133.863281,131.820592 C127.27474,136.312779 116.867839,139.157831 102.642578,140.355748 C104.139974,143.350539 106.086589,145.671503 108.482422,147.318638 C110.878255,148.816034 113.873047,149.564732 117.466797,149.564732 C123.007161,149.564732 127.798828,148.816034 131.841797,147.318638 C135.884766,145.821243 140.152344,142.452102 144.644531,137.211217 C146.141927,135.564081 148.013672,134.665644 150.259766,134.515904 C152.505859,134.366164 154.452474,135.039993 156.099609,136.537388 C157.896484,138.034784 158.869792,139.906529 159.019531,142.152623 C159.169271,144.398717 158.495443,146.345331 156.998047,147.992467 C150.559245,155.329706 144.195312,160.121373 137.90625,162.367467 C131.467448,164.61356 124.654297,165.736607 117.466797,165.736607 C110.578776,165.736607 104.589193,164.089472 99.4980469,160.795201 C94.2571615,157.35119 90.2890625,152.559524 87.59375,146.420201 Z M112.310547,103.861328 C110.064453,106.406901 108.192708,109.401693 106.695312,112.845703 C105.347656,116.439453 104.449219,120.108073 104,123.851562 C112.235677,123.252604 119.198568,121.830078 124.888672,119.583984 C130.578776,117.337891 134.621745,114.343099 137.017578,110.599609 C138.065755,108.952474 138.664714,107.305339 138.814453,105.658203 C138.814453,103.861328 138.440104,102.064453 137.691406,100.267578 C137.092448,99.219401 136.26888,98.3209635 135.220703,97.5722656 C134.172526,96.9733073 132.89974,96.5240885 131.402344,96.2246094 C131.102865,96.2246094 130.728516,96.1497396 130.279297,96 C129.979818,96 129.605469,96 129.15625,96 C126.610677,96 123.840495,96.5989583 120.845703,97.796875 C117.701172,99.1445312 114.85612,101.166016 112.310547,103.861328 Z M126.023438,143.917969 C126.023438,143.768229 126.023438,143.61849 126.023438,143.46875 C126.023438,143.31901 126.023438,143.169271 126.023438,143.019531 C126.023438,142.720052 125.948568,142.495443 125.798828,142.345703 C125.649089,142.046224 125.574219,141.821615 125.574219,141.671875 C134.109375,138.976562 140.473307,135.382812 144.666016,130.890625 C148.858724,126.248698 151.029948,123.927734 151.179688,123.927734 C151.329427,124.077474 151.703776,124.227214 152.302734,124.376953 C152.003255,124.227214 151.628906,124.002604 151.179688,123.703125 C154.623698,118.46224 156.495443,112.847005 156.794922,106.857422 C157.244141,100.867839 156.121094,95.0279948 153.425781,89.3378906 C151.628906,85.2949219 149.083333,81.8509115 145.789062,79.0058594 C142.494792,76.1608073 138.676432,74.0644531 134.333984,72.7167969 C134.483724,72.1178385 134.633464,71.2942708 134.783203,70.2460938 C139.42513,71.7434896 143.542969,74.0644531 147.136719,77.2089844 C150.730469,80.3535156 153.500651,84.0970052 155.447266,88.4394531 C158.292318,94.4290365 159.490234,100.643229 159.041016,107.082031 C158.741536,113.371094 156.794922,119.360677 153.201172,125.050781 C153.201172,125.050781 153.126302,125.125651 152.976562,125.275391 C152.826823,125.57487 150.580729,128.045573 146.238281,132.6875 C141.746094,137.329427 135.007812,141.072917 126.023438,143.917969 Z M132.537109,69.796875 C132.38737,70.2460938 132.23763,70.9947917 132.087891,72.0429688 C132.38737,72.0429688 132.761719,72.1178385 133.210938,72.2675781 C133.660156,72.4173177 134.034505,72.5670573 134.333984,72.7167969 C134.333984,73.1660156 134.259115,73.764974 134.109375,74.5136719 C131.414062,73.4654948 127.445964,71.8183594 122.205078,69.5722656 C125.05013,69.2727865 129.317708,68.7486979 135.007812,68 C135.007812,68.4492188 134.932943,69.1979167 134.783203,70.2460938 C134.333984,70.2460938 133.959635,70.171224 133.660156,70.0214844 C133.360677,69.8717448 132.986328,69.796875 132.537109,69.796875 Z M132.537109,69.796875 C132.986328,69.796875 133.360677,69.8717448 133.660156,70.0214844 C133.959635,70.171224 134.333984,70.3209635 134.783203,70.4707031 C134.633464,70.9199219 134.483724,71.6686198 134.333984,72.7167969 C134.034505,72.5670573 133.660156,72.4173177 133.210938,72.2675781 C132.761719,72.1178385 132.38737,72.0429688 132.087891,72.0429688 C132.087891,71.59375 132.16276,71.219401 132.3125,70.9199219 C132.46224,70.4707031 132.537109,70.0963542 132.537109,69.796875 Z M125.574219,143.917969 C125.574219,143.917969 125.649089,143.917969 125.798828,143.917969 C125.948568,143.917969 126.023438,143.917969 126.023438,143.917969 C126.023438,145.115885 125.649089,146.164062 124.900391,147.0625 C124.151693,147.960938 123.178385,148.559896 121.980469,148.859375 C120.632812,149.009115 119.434896,148.709635 118.386719,147.960938 C117.338542,147.21224 116.664714,146.164062 116.365234,144.816406 C116.065755,143.46875 116.365234,142.195964 117.263672,140.998047 C118.01237,139.94987 119.060547,139.350911 120.408203,139.201172 C121.45638,138.901693 122.429688,138.976562 123.328125,139.425781 C124.226562,140.02474 124.97526,140.773438 125.574219,141.671875 C125.424479,141.671875 125.27474,141.671875 125.125,141.671875 C125.125,141.671875 125.05013,141.671875 124.900391,141.671875 C124.451172,140.923177 123.852214,140.399089 123.103516,140.099609 C122.205078,139.650391 121.306641,139.500651 120.408203,139.650391 C119.210286,139.80013 118.311849,140.399089 117.712891,141.447266 C116.964193,142.345703 116.739583,143.39388 117.039062,144.591797 C117.188802,145.789714 117.712891,146.763021 118.611328,147.511719 C119.659505,148.110677 120.782552,148.335286 121.980469,148.185547 C123.028646,148.035807 123.852214,147.511719 124.451172,146.613281 C125.19987,145.864583 125.574219,144.966146 125.574219,143.917969 Z M119.734375,139.201172 C119.734375,139.201172 119.734375,139.201172 119.734375,139.201172 C119.884115,139.201172 119.958984,139.201172 119.958984,139.201172 C119.958984,139.201172 119.884115,139.201172 119.734375,139.201172 C119.734375,139.201172 119.734375,139.201172 119.734375,139.201172 Z M120.408203,139.201172 C120.408203,139.201172 120.408203,139.126302 120.408203,138.976562 C120.408203,138.976562 120.408203,138.976562 120.408203,138.976562 C120.408203,138.976562 120.333333,139.051432 120.183594,139.201172 C120.183594,139.201172 120.108724,139.201172 119.958984,139.201172 C119.958984,139.201172 120.033854,139.201172 120.183594,139.201172 C120.183594,139.201172 120.258464,139.201172 120.408203,139.201172 Z M121.082031,138.976562 C121.082031,138.976562 121.007161,138.976562 120.857422,138.976562 C120.857422,138.976562 120.782552,138.976562 120.632812,138.976562 C120.782552,138.976562 120.857422,138.976562 120.857422,138.976562 C121.007161,138.976562 121.082031,138.976562 121.082031,138.976562 Z M125.349609,143.244141 C125.349609,142.944661 125.349609,142.645182 125.349609,142.345703 C125.19987,142.195964 125.05013,141.971354 124.900391,141.671875 C125.05013,141.671875 125.125,141.671875 125.125,141.671875 C125.27474,141.671875 125.424479,141.671875 125.574219,141.671875 C125.574219,141.821615 125.649089,142.046224 125.798828,142.345703 C125.948568,142.495443 126.023438,142.720052 126.023438,143.019531 C126.023438,143.169271 126.023438,143.31901 126.023438,143.46875 C126.023438,143.61849 126.023438,143.768229 126.023438,143.917969 C126.023438,143.917969 125.948568,143.917969 125.798828,143.917969 C125.649089,143.917969 125.574219,143.917969 125.574219,143.917969 C125.574219,143.917969 125.574219,143.843099 125.574219,143.693359 C125.574219,143.54362 125.499349,143.39388 125.349609,143.244141 Z M121.755859,147.511719 C122.654297,147.361979 123.402995,146.98763 124.001953,146.388672 C124.600911,145.789714 124.900391,145.041016 124.900391,144.142578 C125.05013,144.142578 125.125,144.142578 125.125,144.142578 C125.27474,144.142578 125.424479,144.067708 125.574219,143.917969 C125.574219,144.966146 125.19987,145.864583 124.451172,146.613281 C123.852214,147.511719 123.028646,148.035807 121.980469,148.185547 C120.782552,148.335286 119.659505,148.110677 118.611328,147.511719 C117.712891,146.763021 117.188802,145.789714 117.039062,144.591797 C116.739583,143.39388 116.964193,142.345703 117.712891,141.447266 C118.311849,140.399089 119.210286,139.80013 120.408203,139.650391 C121.306641,139.500651 122.205078,139.650391 123.103516,140.099609 C123.852214,140.399089 124.451172,140.923177 124.900391,141.671875 C124.900391,141.821615 124.825521,141.896484 124.675781,141.896484 C124.526042,141.896484 124.451172,141.896484 124.451172,141.896484 C124.001953,141.297526 123.477865,140.848307 122.878906,140.548828 C122.130208,140.249349 121.38151,140.174479 120.632812,140.324219 C119.584635,140.473958 118.761068,140.923177 118.162109,141.671875 C117.563151,142.570312 117.338542,143.54362 117.488281,144.591797 C117.638021,145.639974 118.162109,146.463542 119.060547,147.0625 C119.958984,147.661458 120.857422,147.811198 121.755859,147.511719 C121.905599,147.511719 121.980469,147.511719 121.980469,147.511719 C122.130208,147.511719 122.205078,147.511719 122.205078,147.511719 C122.205078,147.511719 122.205078,147.511719 122.205078,147.511719 C122.205078,147.511719 122.205078,147.511719 122.205078,147.511719 C122.205078,147.511719 122.205078,147.511719 122.205078,147.511719 C122.205078,147.511719 122.205078,147.511719 122.205078,147.511719 C122.205078,147.511719 122.130208,147.511719 121.980469,147.511719 C121.980469,147.511719 121.905599,147.511719 121.755859,147.511719 Z M124.900391,141.671875 C125.05013,141.971354 125.19987,142.195964 125.349609,142.345703 C125.349609,142.645182 125.349609,142.944661 125.349609,143.244141 C125.499349,143.39388 125.574219,143.54362 125.574219,143.693359 C125.574219,143.843099 125.574219,143.992839 125.574219,144.142578 C125.424479,144.142578 125.27474,144.142578 125.125,144.142578 C125.125,144.142578 125.05013,144.142578 124.900391,144.142578 C124.900391,143.992839 124.900391,143.843099 124.900391,143.693359 C124.900391,143.54362 124.900391,143.39388 124.900391,143.244141 C124.900391,143.094401 124.825521,142.869792 124.675781,142.570312 C124.675781,142.420573 124.600911,142.195964 124.451172,141.896484 C124.451172,141.896484 124.526042,141.896484 124.675781,141.896484 C124.825521,141.896484 124.900391,141.821615 124.900391,141.671875 Z M167.351562,109.777344 C167.201823,109.777344 167.052083,109.852214 166.902344,110.001953 C166.752604,110.151693 166.602865,110.301432 166.453125,110.451172 C166.453125,110.451172 166.378255,110.526042 166.228516,110.675781 C166.078776,110.675781 165.929036,110.675781 165.779297,110.675781 C165.779297,110.675781 165.704427,110.675781 165.554688,110.675781 C165.404948,110.526042 165.255208,110.451172 165.105469,110.451172 C165.105469,110.301432 165.030599,110.151693 164.880859,110.001953 C164.880859,109.852214 164.880859,109.777344 164.880859,109.777344 C164.880859,109.627604 164.880859,109.477865 164.880859,109.328125 C165.030599,109.178385 165.105469,109.103516 165.105469,109.103516 C165.404948,108.804036 165.779297,108.429688 166.228516,107.980469 C166.527995,107.68099 166.977214,107.231771 167.576172,106.632812 C167.576172,106.632812 167.651042,106.557943 167.800781,106.408203 C167.800781,106.408203 167.875651,106.408203 168.025391,106.408203 C168.025391,106.408203 168.025391,106.408203 168.025391,106.408203 C168.17513,106.408203 168.25,106.408203 168.25,106.408203 C168.25,106.408203 168.32487,106.408203 168.474609,106.408203 C168.474609,106.408203 168.474609,106.408203 168.474609,106.408203 C168.624349,106.408203 168.774089,106.483073 168.923828,106.632812 C168.923828,106.632812 168.923828,106.707682 168.923828,106.857422 C169.073568,106.857422 169.148438,106.932292 169.148438,107.082031 C169.148438,107.082031 169.148438,107.156901 169.148438,107.306641 C169.148438,109.103516 169.148438,111.424479 169.148438,114.269531 C169.148438,117.114583 169.148438,120.333984 169.148438,123.927734 C169.148438,124.077474 169.148438,124.227214 169.148438,124.376953 C168.998698,124.526693 168.923828,124.601562 168.923828,124.601562 C168.774089,124.751302 168.624349,124.826172 168.474609,124.826172 C168.474609,124.975911 168.39974,125.050781 168.25,125.050781 C168.10026,125.050781 167.950521,124.975911 167.800781,124.826172 C167.651042,124.826172 167.576172,124.751302 167.576172,124.601562 C167.426432,124.601562 167.351562,124.526693 167.351562,124.376953 C167.351562,124.227214 167.351562,124.077474 167.351562,123.927734 C167.351562,122.430339 167.351562,120.483724 167.351562,118.087891 C167.351562,115.692057 167.351562,112.921875 167.351562,109.777344 Z"/></svg>