<svg xmlns="http://www.w3.org/2000/svg" width="95" height="203" viewBox="0 0 95 203"><path fill="#131313" d="M1018.59375,134.420201 C1017.84505,132.473586 1017.17122,130.452102 1016.57227,128.355748 C1015.97331,126.259394 1015.59896,124.08817 1015.44922,121.842076 C1015.29948,121.692336 1015.22461,121.542597 1015.22461,121.392857 C1015.22461,121.243118 1015.22461,121.093378 1015.22461,120.943638 C1015.07487,119.296503 1015,117.649368 1015,116.002232 C1015,110.611607 1015.82357,105.071243 1017.4707,99.3811384 C1019.7168,92.1936384 1023.16081,86.1291853 1027.80273,81.187779 C1032.29492,76.3961124 1037.53581,72.8023624 1043.52539,70.406529 C1049.51497,68.1604353 1055.42969,67.4866071 1061.26953,68.3850446 C1065.46224,69.1337426 1069.20573,70.6311384 1072.5,72.8772321 C1075.64453,75.2730655 1078.04036,78.2678571 1079.6875,81.8616071 C1081.78385,86.0543155 1082.68229,90.4716332 1082.38281,95.1135603 C1082.08333,99.6057478 1080.66081,103.798456 1078.11523,107.691685 C1075.86914,111.285435 1071.45182,115.328404 1064.86328,119.820592 C1058.27474,124.312779 1047.86784,127.157831 1033.64258,128.355748 C1035.13997,131.350539 1037.08659,133.671503 1039.48242,135.318638 C1041.87826,136.816034 1044.87305,137.564732 1048.4668,137.564732 C1054.00716,137.564732 1058.79883,136.816034 1062.8418,135.318638 C1066.88477,133.821243 1071.15234,130.452102 1075.64453,125.211217 C1077.14193,123.564081 1079.01367,122.665644 1081.25977,122.515904 C1083.50586,122.366164 1085.45247,123.039993 1087.09961,124.537388 C1088.89648,126.034784 1089.86979,127.906529 1090.01953,130.152623 C1090.16927,132.398717 1089.49544,134.345331 1087.99805,135.992467 C1081.55924,143.329706 1075.19531,148.121373 1068.90625,150.367467 C1062.46745,152.61356 1055.6543,153.736607 1048.4668,153.736607 C1041.57878,153.736607 1035.58919,152.089472 1030.49805,148.795201 C1025.25716,145.35119 1021.28906,140.559524 1018.59375,134.420201 Z M1043.31055,91.8613281 C1041.06445,94.406901 1039.19271,97.4016927 1037.69531,100.845703 C1036.34766,104.439453 1035.44922,108.108073 1035,111.851562 C1043.23568,111.252604 1050.19857,109.830078 1055.88867,107.583984 C1061.57878,105.337891 1065.62174,102.343099 1068.01758,98.5996094 C1069.06576,96.952474 1069.66471,95.3053385 1069.81445,93.6582031 C1069.81445,91.8613281 1069.4401,90.0644531 1068.69141,88.2675781 C1068.09245,87.219401 1067.26888,86.3209635 1066.2207,85.5722656 C1065.17253,84.9733073 1063.89974,84.5240885 1062.40234,84.2246094 C1062.10286,84.2246094 1061.72852,84.1497396 1061.2793,84 C1060.97982,84 1060.60547,84 1060.15625,84 C1057.61068,84 1054.84049,84.5989583 1051.8457,85.796875 C1048.70117,87.1445313 1045.85612,89.1660156 1043.31055,91.8613281 Z M1057.02344,131.917969 C1057.02344,131.768229 1057.02344,131.61849 1057.02344,131.46875 C1057.02344,131.31901 1057.02344,131.169271 1057.02344,131.019531 C1057.02344,130.720052 1056.94857,130.495443 1056.79883,130.345703 C1056.64909,130.046224 1056.57422,129.821615 1056.57422,129.671875 C1065.10937,126.976563 1071.47331,123.382813 1075.66602,118.890625 C1079.85872,114.248698 1082.02995,111.927734 1082.17969,111.927734 C1082.32943,112.077474 1082.70378,112.227214 1083.30273,112.376953 C1083.00326,112.227214 1082.62891,112.002604 1082.17969,111.703125 C1085.6237,106.46224 1087.49544,100.847005 1087.79492,94.8574219 C1088.24414,88.8678385 1087.12109,83.0279948 1084.42578,77.3378906 C1082.62891,73.2949219 1080.08333,69.8509115 1076.78906,67.0058594 C1073.49479,64.1608073 1069.67643,62.0644531 1065.33398,60.7167969 C1065.48372,60.1178385 1065.63346,59.2942708 1065.7832,58.2460938 C1070.42513,59.7434896 1074.54297,62.0644531 1078.13672,65.2089844 C1081.73047,68.3535156 1084.50065,72.0970052 1086.44727,76.4394531 C1089.29232,82.4290365 1090.49023,88.6432292 1090.04102,95.0820312 C1089.74154,101.371094 1087.79492,107.360677 1084.20117,113.050781 C1084.20117,113.050781 1084.1263,113.125651 1083.97656,113.275391 C1083.82682,113.57487 1081.58073,116.045573 1077.23828,120.6875 C1072.74609,125.329427 1066.00781,129.072917 1057.02344,131.917969 Z M1063.53711,57.796875 C1063.38737,58.2460938 1063.23763,58.9947917 1063.08789,60.0429688 C1063.38737,60.0429688 1063.76172,60.1178385 1064.21094,60.2675781 C1064.66016,60.4173177 1065.03451,60.5670573 1065.33398,60.7167969 C1065.33398,61.1660156 1065.25911,61.764974 1065.10937,62.5136719 C1062.41406,61.4654948 1058.44596,59.8183594 1053.20508,57.5722656 C1056.05013,57.2727865 1060.31771,56.7486979 1066.00781,56 C1066.00781,56.4492188 1065.93294,57.1979167 1065.7832,58.2460938 C1065.33398,58.2460938 1064.95964,58.171224 1064.66016,58.0214844 C1064.36068,57.8717448 1063.98633,57.796875 1063.53711,57.796875 Z M1063.53711,57.796875 C1063.98633,57.796875 1064.36068,57.8717448 1064.66016,58.0214844 C1064.95964,58.171224 1065.33398,58.3209635 1065.7832,58.4707031 C1065.63346,58.9199219 1065.48372,59.6686198 1065.33398,60.7167969 C1065.03451,60.5670573 1064.66016,60.4173177 1064.21094,60.2675781 C1063.76172,60.1178385 1063.38737,60.0429688 1063.08789,60.0429688 C1063.08789,59.59375 1063.16276,59.219401 1063.3125,58.9199219 C1063.46224,58.4707031 1063.53711,58.0963542 1063.53711,57.796875 Z M1056.57422,131.917969 C1056.57422,131.917969 1056.64909,131.917969 1056.79883,131.917969 C1056.94857,131.917969 1057.02344,131.917969 1057.02344,131.917969 C1057.02344,133.115885 1056.64909,134.164062 1055.90039,135.0625 C1055.15169,135.960938 1054.17839,136.559896 1052.98047,136.859375 C1051.63281,137.009115 1050.4349,136.709635 1049.38672,135.960938 C1048.33854,135.21224 1047.66471,134.164062 1047.36523,132.816406 C1047.06576,131.46875 1047.36523,130.195964 1048.26367,128.998047 C1049.01237,127.94987 1050.06055,127.350911 1051.4082,127.201172 C1052.45638,126.901693 1053.42969,126.976562 1054.32812,127.425781 C1055.22656,128.02474 1055.97526,128.773438 1056.57422,129.671875 C1056.42448,129.671875 1056.27474,129.671875 1056.125,129.671875 C1056.125,129.671875 1056.05013,129.671875 1055.90039,129.671875 C1055.45117,128.923177 1054.85221,128.399089 1054.10352,128.099609 C1053.20508,127.650391 1052.30664,127.500651 1051.4082,127.650391 C1050.21029,127.80013 1049.31185,128.399089 1048.71289,129.447266 C1047.96419,130.345703 1047.73958,131.39388 1048.03906,132.591797 C1048.1888,133.789714 1048.71289,134.763021 1049.61133,135.511719 C1050.65951,136.110677 1051.78255,136.335286 1052.98047,136.185547 C1054.02865,136.035807 1054.85221,135.511719 1055.45117,134.613281 C1056.19987,133.864583 1056.57422,132.966146 1056.57422,131.917969 Z M1056.34961,131.244141 C1056.34961,130.944661 1056.34961,130.645182 1056.34961,130.345703 C1056.19987,130.195964 1056.05013,129.971354 1055.90039,129.671875 C1056.05013,129.671875 1056.125,129.671875 1056.125,129.671875 C1056.27474,129.671875 1056.42448,129.671875 1056.57422,129.671875 C1056.57422,129.821615 1056.64909,130.046224 1056.79883,130.345703 C1056.94857,130.495443 1057.02344,130.720052 1057.02344,131.019531 C1057.02344,131.169271 1057.02344,131.31901 1057.02344,131.46875 C1057.02344,131.61849 1057.02344,131.768229 1057.02344,131.917969 C1057.02344,131.917969 1056.94857,131.917969 1056.79883,131.917969 C1056.64909,131.917969 1056.57422,131.917969 1056.57422,131.917969 C1056.57422,131.917969 1056.57422,131.843099 1056.57422,131.693359 C1056.57422,131.54362 1056.49935,131.39388 1056.34961,131.244141 Z M1052.75586,135.511719 C1053.6543,135.361979 1054.40299,134.98763 1055.00195,134.388672 C1055.60091,133.789714 1055.90039,133.041016 1055.90039,132.142578 C1056.05013,132.142578 1056.125,132.142578 1056.125,132.142578 C1056.27474,132.142578 1056.42448,132.067708 1056.57422,131.917969 C1056.57422,132.966146 1056.19987,133.864583 1055.45117,134.613281 C1054.85221,135.511719 1054.02865,136.035807 1052.98047,136.185547 C1051.78255,136.335286 1050.65951,136.110677 1049.61133,135.511719 C1048.71289,134.763021 1048.1888,133.789714 1048.03906,132.591797 C1047.73958,131.39388 1047.96419,130.345703 1048.71289,129.447266 C1049.31185,128.399089 1050.21029,127.80013 1051.4082,127.650391 C1052.30664,127.500651 1053.20508,127.650391 1054.10352,128.099609 C1054.85221,128.399089 1055.45117,128.923177 1055.90039,129.671875 C1055.90039,129.821615 1055.82552,129.896484 1055.67578,129.896484 C1055.52604,129.896484 1055.45117,129.896484 1055.45117,129.896484 C1055.00195,129.297526 1054.47786,128.848307 1053.87891,128.548828 C1053.13021,128.249349 1052.38151,128.174479 1051.63281,128.324219 C1050.58464,128.473958 1049.76107,128.923177 1049.16211,129.671875 C1048.56315,130.570312 1048.33854,131.54362 1048.48828,132.591797 C1048.63802,133.639974 1049.16211,134.463542 1050.06055,135.0625 C1050.95898,135.661458 1051.85742,135.811198 1052.75586,135.511719 C1052.9056,135.511719 1052.98047,135.511719 1052.98047,135.511719 C1053.13021,135.511719 1053.20508,135.511719 1053.20508,135.511719 C1053.20508,135.511719 1053.20508,135.511719 1053.20508,135.511719 C1053.20508,135.511719 1053.20508,135.511719 1053.20508,135.511719 C1053.20508,135.511719 1053.20508,135.511719 1053.20508,135.511719 C1053.20508,135.511719 1053.20508,135.511719 1053.20508,135.511719 C1053.20508,135.511719 1053.13021,135.511719 1052.98047,135.511719 C1052.98047,135.511719 1052.9056,135.511719 1052.75586,135.511719 Z M1055.90039,129.671875 C1056.05013,129.971354 1056.19987,130.195964 1056.34961,130.345703 C1056.34961,130.645182 1056.34961,130.944661 1056.34961,131.244141 C1056.49935,131.39388 1056.57422,131.54362 1056.57422,131.693359 C1056.57422,131.843099 1056.57422,131.992839 1056.57422,132.142578 C1056.42448,132.142578 1056.27474,132.142578 1056.125,132.142578 C1056.125,132.142578 1056.05013,132.142578 1055.90039,132.142578 C1055.90039,131.992839 1055.90039,131.843099 1055.90039,131.693359 C1055.90039,131.54362 1055.90039,131.39388 1055.90039,131.244141 C1055.90039,131.094401 1055.82552,130.869792 1055.67578,130.570312 C1055.67578,130.420573 1055.60091,130.195964 1055.45117,129.896484 C1055.45117,129.896484 1055.52604,129.896484 1055.67578,129.896484 C1055.82552,129.896484 1055.90039,129.821615 1055.90039,129.671875 Z M1098.35156,97.7773438 C1098.20182,97.7773438 1098.05208,97.8522135 1097.90234,98.0019531 C1097.7526,98.1516927 1097.60286,98.3014323 1097.45312,98.4511719 C1097.45312,98.4511719 1097.37826,98.5260417 1097.22852,98.6757812 C1097.07878,98.6757812 1096.92904,98.6757812 1096.7793,98.6757812 C1096.7793,98.6757812 1096.70443,98.6757812 1096.55469,98.6757812 C1096.40495,98.5260417 1096.25521,98.4511719 1096.10547,98.4511719 C1096.10547,98.3014323 1096.0306,98.1516927 1095.88086,98.0019531 C1095.88086,97.8522135 1095.88086,97.7773438 1095.88086,97.7773438 C1095.88086,97.6276042 1095.88086,97.4778646 1095.88086,97.328125 C1096.0306,97.1783854 1096.10547,97.1035156 1096.10547,97.1035156 C1096.40495,96.8040365 1096.7793,96.4296875 1097.22852,95.9804688 C1097.52799,95.6809896 1097.97721,95.2317708 1098.57617,94.6328125 C1098.57617,94.6328125 1098.65104,94.5579427 1098.80078,94.4082031 C1098.80078,94.4082031 1098.87565,94.4082031 1099.02539,94.4082031 C1099.02539,94.4082031 1099.02539,94.4082031 1099.02539,94.4082031 C1099.17513,94.4082031 1099.25,94.4082031 1099.25,94.4082031 C1099.25,94.4082031 1099.32487,94.4082031 1099.47461,94.4082031 C1099.47461,94.4082031 1099.47461,94.4082031 1099.47461,94.4082031 C1099.62435,94.4082031 1099.77409,94.4830729 1099.92383,94.6328125 C1099.92383,94.6328125 1099.92383,94.7076823 1099.92383,94.8574219 C1100.07357,94.8574219 1100.14844,94.9322917 1100.14844,95.0820312 C1100.14844,95.0820312 1100.14844,95.156901 1100.14844,95.3066406 C1100.14844,97.1035156 1100.14844,99.4244792 1100.14844,102.269531 C1100.14844,105.114583 1100.14844,108.333984 1100.14844,111.927734 C1100.14844,112.077474 1100.14844,112.227214 1100.14844,112.376953 C1099.9987,112.526693 1099.92383,112.601562 1099.92383,112.601562 C1099.77409,112.751302 1099.62435,112.826172 1099.47461,112.826172 C1099.47461,112.975911 1099.39974,113.050781 1099.25,113.050781 C1099.10026,113.050781 1098.95052,112.975911 1098.80078,112.826172 C1098.65104,112.826172 1098.57617,112.751302 1098.57617,112.601562 C1098.42643,112.601562 1098.35156,112.526693 1098.35156,112.376953 C1098.35156,112.227214 1098.35156,112.077474 1098.35156,111.927734 C1098.35156,110.430339 1098.35156,108.483724 1098.35156,106.087891 C1098.35156,103.692057 1098.35156,100.921875 1098.35156,97.7773438 Z" transform="translate(-1005 -12)"/></svg>