<svg xmlns="http://www.w3.org/2000/svg" width="50" height="203" viewBox="0 0 50 203"><path d="M610.225,107.992 C607.413,107.992 605.378,107.326 604.12,105.994 C602.862,104.662 602.233,102.294 602.233,98.89 L602.233,27.102 C602.233,23.698 602.862,21.33 604.12,19.998 C605.378,18.666 607.413,18 610.225,18 C613.037,18 615.072,18.629 616.33,19.887 C617.588,21.145 618.217,23.624 618.217,27.324 L618.217,98.668 C618.217,102.072 617.588,104.477 616.33,105.883 C615.072,107.289 613.037,107.992 610.225,107.992 Z M610.225,132.19 C613.481,132.19 616.293,133.337 618.661,135.631 C621.029,137.925 622.213,140.774 622.213,144.178 C622.213,147.286 621.029,150.024 618.661,152.392 C616.293,154.76 613.481,155.944 610.225,155.944 C606.969,155.944 604.194,154.76 601.9,152.392 C599.606,150.024 598.459,147.286 598.459,144.178 C598.459,140.774 599.606,137.925 601.9,135.631 C604.194,133.337 606.969,132.19 610.225,132.19 Z" transform="translate(-585.5 -18.056)"/></svg>