<svg xmlns="http://www.w3.org/2000/svg" width="120" height="243" viewBox="0 0 120 243"><path fill="#131313" d="M99.1494141,38.7978516 C86.2366536,38.7978516 66.7988281,38.7978516 40.8359375,38.7978516 C40.8359375,49.6500651 40.8359375,65.9283854 40.8359375,87.6328125 C53.1992188,87.6328125 71.7441406,87.6328125 96.4707031,87.6328125 C98.53125,87.6328125 100.248372,88.3196615 101.62207,89.6933594 C103.133138,91.2044271 103.888672,92.9902344 103.888672,95.0507812 C103.888672,97.1113281 103.133138,98.8971354 101.62207,100.408203 C100.248372,101.781901 98.53125,102.46875 96.4707031,102.46875 C84.1074219,102.46875 65.5625,102.46875 40.8359375,102.46875 C40.8359375,114.969401 40.8359375,133.720378 40.8359375,158.72168 C40.8359375,160.782227 40.1490885,162.568034 38.7753906,164.079102 C37.2643229,165.452799 35.4785156,166.139648 33.4179688,166.139648 C31.3574219,166.139648 29.5716146,165.452799 28.0605469,164.079102 C26.686849,162.568034 26,160.782227 26,158.72168 C26,130.423503 26,87.976237 26,31.3798828 C26,29.3193359 26.686849,27.5335286 28.0605469,26.0224609 C29.5716146,24.648763 31.3574219,23.9619141 33.4179688,23.9619141 C47.9791667,23.9619141 69.8896484,23.9619141 99.1494141,23.9619141 C101.209961,23.9619141 102.995768,24.648763 104.506836,26.0224609 C106.017904,27.5335286 106.773438,29.3193359 106.773438,31.3798828 C106.773438,33.4404297 106.017904,35.1575521 104.506836,36.53125 C102.995768,38.0423177 101.209961,38.7978516 99.1494141,38.7978516 Z M56.2529297,112.15332 C56.2529297,112.29069 56.2529297,112.42806 56.2529297,112.56543 C56.2529297,112.840169 56.2529297,113.046224 56.2529297,113.183594 C62.0224609,113.183594 70.7454427,113.183594 82.421875,113.183594 C82.421875,112.634115 82.421875,111.947266 82.421875,111.123047 C76.6523438,111.123047 67.929362,111.123047 56.2529297,111.123047 C56.2529297,111.260417 56.2529297,111.397786 56.2529297,111.535156 C56.2529297,111.672526 56.2529297,111.878581 56.2529297,112.15332 Z M93.7548828,112.15332 C91.2822266,112.840169 87.5045573,113.870443 82.421875,115.244141 C82.421875,114.694661 82.421875,114.007812 82.421875,113.183594 C82.8339844,113.183594 83.5208333,113.183594 84.4824219,113.183594 C84.4824219,112.634115 84.4824219,111.947266 84.4824219,111.123047 C84.0703125,111.123047 83.3834635,111.123047 82.421875,111.123047 C82.421875,110.573568 82.421875,109.886719 82.421875,109.0625 C84.8945312,109.749349 88.6722005,110.779622 93.7548828,112.15332 Z M82.421875,113.183594 C82.8339844,113.183594 83.5208333,113.183594 84.4824219,113.183594 C84.4824219,112.634115 84.4824219,111.947266 84.4824219,111.123047 C84.0703125,111.123047 83.3834635,111.123047 82.421875,111.123047 C82.421875,111.535156 82.421875,112.222005 82.421875,113.183594 Z M47.8046875,112.15332 C47.8046875,111.054362 48.2167969,110.092773 49.0410156,109.268555 C49.7278646,108.444336 50.6207682,108.032227 51.7197266,108.032227 C52.6813151,108.032227 53.5055339,108.375651 54.1923828,109.0625 C54.8792318,109.611979 55.360026,110.298828 55.6347656,111.123047 C55.7721354,111.123047 55.9781901,111.123047 56.2529297,111.123047 C55.9781901,110.024089 55.4287109,109.19987 54.6044922,108.650391 C53.7802734,107.963542 52.8186849,107.620117 51.7197266,107.620117 C50.4833984,107.620117 49.453125,108.032227 48.6289062,108.856445 C47.8046875,109.818034 47.3925781,110.916992 47.3925781,112.15332 C47.3925781,113.389648 47.8046875,114.419922 48.6289062,115.244141 C49.453125,116.205729 50.4833984,116.686523 51.7197266,116.686523 C52.8186849,116.686523 53.7802734,116.343099 54.6044922,115.65625 C55.4287109,114.969401 55.9781901,114.145182 56.2529297,113.183594 C56.1155599,113.183594 55.9095052,113.183594 55.6347656,113.183594 C55.360026,114.007812 54.8792318,114.694661 54.1923828,115.244141 C53.5055339,115.79362 52.6813151,116.068359 51.7197266,116.068359 C50.6207682,116.068359 49.7278646,115.65625 49.0410156,114.832031 C48.2167969,114.145182 47.8046875,113.252279 47.8046875,112.15332 Z M55.6347656,111.123047 C55.6347656,111.260417 55.7034505,111.397786 55.8408203,111.535156 C55.8408203,111.672526 55.8408203,111.878581 55.8408203,112.15332 C55.8408203,112.29069 55.8408203,112.42806 55.8408203,112.56543 C55.7034505,112.840169 55.6347656,113.046224 55.6347656,113.183594 C55.7721354,113.183594 55.9781901,113.183594 56.2529297,113.183594 C56.2529297,113.046224 56.2529297,112.840169 56.2529297,112.56543 C56.2529297,112.42806 56.2529297,112.29069 56.2529297,112.15332 C56.2529297,111.878581 56.2529297,111.672526 56.2529297,111.535156 C56.2529297,111.397786 56.2529297,111.260417 56.2529297,111.123047 C56.1155599,111.123047 55.9781901,111.123047 55.8408203,111.123047 C55.8408203,111.123047 55.7721354,111.123047 55.6347656,111.123047 Z M47.8046875,112.15332 C47.8046875,113.252279 48.2167969,114.145182 49.0410156,114.832031 C49.7278646,115.65625 50.6207682,116.068359 51.7197266,116.068359 C52.6813151,116.068359 53.5055339,115.79362 54.1923828,115.244141 C54.8792318,114.694661 55.360026,114.007812 55.6347656,113.183594 C55.4973958,113.183594 55.2913411,113.183594 55.0166016,113.183594 C54.8792318,113.870443 54.4671224,114.419922 53.7802734,114.832031 C53.2307943,115.244141 52.5439453,115.450195 51.7197266,115.450195 C51.9944661,115.450195 52.1318359,115.450195 52.1318359,115.450195 C52.2692057,115.450195 52.3378906,115.450195 52.3378906,115.450195 C52.3378906,115.450195 52.2692057,115.450195 52.1318359,115.450195 C52.1318359,115.450195 51.9944661,115.450195 51.7197266,115.450195 C51.5823568,115.450195 51.5136719,115.450195 51.5136719,115.450195 C51.3763021,115.450195 51.3076172,115.450195 51.3076172,115.450195 C51.3076172,115.450195 51.3763021,115.450195 51.5136719,115.450195 C51.5136719,115.450195 51.5823568,115.450195 51.7197266,115.450195 C50.8955078,115.450195 50.139974,115.175456 49.453125,114.625977 C48.766276,113.939128 48.4228516,113.114909 48.4228516,112.15332 C48.4228516,111.191732 48.766276,110.367513 49.453125,109.680664 C50.139974,108.993815 50.8955078,108.650391 51.7197266,108.650391 C52.5439453,108.650391 53.2307943,108.856445 53.7802734,109.268555 C54.4671224,109.818034 54.8792318,110.436198 55.0166016,111.123047 C55.1539714,111.123047 55.360026,111.123047 55.6347656,111.123047 C55.360026,110.298828 54.8792318,109.611979 54.1923828,109.0625 C53.5055339,108.375651 52.6813151,108.032227 51.7197266,108.032227 C50.6207682,108.032227 49.7278646,108.444336 49.0410156,109.268555 C48.2167969,110.092773 47.8046875,111.054362 47.8046875,112.15332 Z M55.0166016,113.183594 C55.1539714,113.183594 55.360026,113.183594 55.6347656,113.183594 C55.6347656,113.046224 55.6347656,112.840169 55.6347656,112.56543 C55.7721354,112.42806 55.8408203,112.29069 55.8408203,112.15332 C55.8408203,111.878581 55.7721354,111.672526 55.6347656,111.535156 C55.6347656,111.397786 55.6347656,111.260417 55.6347656,111.123047 C55.4973958,111.123047 55.2913411,111.123047 55.0166016,111.123047 C55.1539714,111.260417 55.2226562,111.397786 55.2226562,111.535156 C55.2226562,111.672526 55.2226562,111.878581 55.2226562,112.15332 C55.2226562,112.29069 55.2226562,112.42806 55.2226562,112.56543 C55.2226562,112.840169 55.1539714,113.046224 55.0166016,113.183594 Z M56.2529297,48.4824219 C56.2529297,48.6197917 56.2529297,48.7571615 56.2529297,48.8945312 C56.2529297,49.031901 56.2529297,49.2379557 56.2529297,49.5126953 C62.7093099,49.5126953 72.3938802,49.5126953 85.3066406,49.5126953 C85.3066406,48.9632161 85.3066406,48.2076823 85.3066406,47.2460938 C78.8502604,47.2460938 69.1656901,47.2460938 56.2529297,47.2460938 C56.2529297,47.5208333 56.2529297,47.726888 56.2529297,47.8642578 C56.2529297,48.0016276 56.2529297,48.2076823 56.2529297,48.4824219 Z M85.3066406,47.2460938 C85.3066406,46.8339844 85.3066406,46.2158203 85.3066406,45.3916016 C87.7792969,46.0784505 91.5569661,47.108724 96.6396484,48.4824219 C94.1669922,49.1692708 90.3893229,50.1308594 85.3066406,51.3671875 C85.3066406,50.9550781 85.3066406,50.3369141 85.3066406,49.5126953 C85.71875,49.5126953 86.405599,49.5126953 87.3671875,49.5126953 C87.3671875,48.9632161 87.3671875,48.2076823 87.3671875,47.2460938 C86.8177083,47.2460938 86.1308594,47.2460938 85.3066406,47.2460938 Z M85.3066406,49.5126953 C85.71875,49.5126953 86.405599,49.5126953 87.3671875,49.5126953 C87.3671875,48.9632161 87.3671875,48.2076823 87.3671875,47.2460938 C86.8177083,47.2460938 86.1308594,47.2460938 85.3066406,47.2460938 C85.3066406,47.7955729 85.3066406,48.5511068 85.3066406,49.5126953 Z M47.8046875,48.4824219 C47.8046875,47.3834635 48.2167969,46.421875 49.0410156,45.5976562 C49.7278646,44.7734375 50.6207682,44.3613281 51.7197266,44.3613281 C52.6813151,44.3613281 53.5055339,44.6360677 54.1923828,45.1855469 C54.8792318,45.735026 55.360026,46.421875 55.6347656,47.2460938 C55.7721354,47.2460938 55.9781901,47.2460938 56.2529297,47.2460938 C55.9781901,46.2845052 55.4287109,45.5289714 54.6044922,44.9794922 C53.7802734,44.2926432 52.8186849,43.9492188 51.7197266,43.9492188 C50.4833984,43.9492188 49.453125,44.3613281 48.6289062,45.1855469 C47.8046875,46.1471354 47.3925781,47.2460938 47.3925781,48.4824219 C47.3925781,49.71875 47.8046875,50.7490234 48.6289062,51.5732422 C49.453125,52.3974609 50.4833984,52.8095703 51.7197266,52.8095703 C52.8186849,52.8095703 53.7802734,52.5348307 54.6044922,51.9853516 C55.4287109,51.2985026 55.9781901,50.4742839 56.2529297,49.5126953 C56.1155599,49.5126953 55.9095052,49.5126953 55.6347656,49.5126953 C55.360026,50.3369141 54.8792318,51.023763 54.1923828,51.5732422 C53.5055339,52.1227214 52.6813151,52.3974609 51.7197266,52.3974609 C50.6207682,52.3974609 49.7278646,51.9853516 49.0410156,51.1611328 C48.2167969,50.4742839 47.8046875,49.5813802 47.8046875,48.4824219 Z M55.6347656,47.2460938 C55.6347656,47.5208333 55.7034505,47.726888 55.8408203,47.8642578 C55.8408203,48.0016276 55.8408203,48.2076823 55.8408203,48.4824219 C55.8408203,48.6197917 55.8408203,48.7571615 55.8408203,48.8945312 C55.7034505,49.031901 55.6347656,49.2379557 55.6347656,49.5126953 C55.7721354,49.5126953 55.9781901,49.5126953 56.2529297,49.5126953 C56.2529297,49.2379557 56.2529297,49.031901 56.2529297,48.8945312 C56.2529297,48.7571615 56.2529297,48.6197917 56.2529297,48.4824219 C56.2529297,48.2076823 56.2529297,48.0016276 56.2529297,47.8642578 C56.2529297,47.726888 56.2529297,47.5208333 56.2529297,47.2460938 C56.1155599,47.2460938 55.9781901,47.2460938 55.8408203,47.2460938 C55.8408203,47.2460938 55.7721354,47.2460938 55.6347656,47.2460938 Z M47.8046875,48.4824219 C47.8046875,49.5813802 48.2167969,50.4742839 49.0410156,51.1611328 C49.7278646,51.9853516 50.6207682,52.3974609 51.7197266,52.3974609 C52.6813151,52.3974609 53.5055339,52.1227214 54.1923828,51.5732422 C54.8792318,51.023763 55.360026,50.3369141 55.6347656,49.5126953 C55.4973958,49.5126953 55.2913411,49.5126953 55.0166016,49.5126953 C54.8792318,50.1995443 54.4671224,50.7490234 53.7802734,51.1611328 C53.2307943,51.5732422 52.5439453,51.7792969 51.7197266,51.7792969 C51.9944661,51.7792969 52.1318359,51.7792969 52.1318359,51.7792969 C52.2692057,51.7792969 52.3378906,51.7792969 52.3378906,51.7792969 C52.3378906,51.7792969 52.2692057,51.7792969 52.1318359,51.7792969 C52.1318359,51.7792969 51.9944661,51.7792969 51.7197266,51.7792969 C51.5823568,51.7792969 51.5136719,51.7792969 51.5136719,51.7792969 C51.3763021,51.7792969 51.3076172,51.7792969 51.3076172,51.7792969 C51.3076172,51.7792969 51.3763021,51.7792969 51.5136719,51.7792969 C51.5136719,51.7792969 51.5823568,51.7792969 51.7197266,51.7792969 C50.8955078,51.7792969 50.139974,51.4358724 49.453125,50.7490234 C48.766276,50.1995443 48.4228516,49.4440104 48.4228516,48.4824219 C48.4228516,47.5208333 48.766276,46.6966146 49.453125,46.0097656 C50.139974,45.3229167 50.8955078,44.9794922 51.7197266,44.9794922 C52.5439453,44.9794922 53.2307943,45.1855469 53.7802734,45.5976562 C54.4671224,46.0097656 54.8792318,46.5592448 55.0166016,47.2460938 C55.1539714,47.2460938 55.360026,47.2460938 55.6347656,47.2460938 C55.360026,46.421875 54.8792318,45.735026 54.1923828,45.1855469 C53.5055339,44.6360677 52.6813151,44.3613281 51.7197266,44.3613281 C50.6207682,44.3613281 49.7278646,44.7734375 49.0410156,45.5976562 C48.2167969,46.421875 47.8046875,47.3834635 47.8046875,48.4824219 Z M55.0166016,49.5126953 C55.1539714,49.5126953 55.360026,49.5126953 55.6347656,49.5126953 C55.6347656,49.2379557 55.6347656,49.031901 55.6347656,48.8945312 C55.7721354,48.7571615 55.8408203,48.6197917 55.8408203,48.4824219 C55.8408203,48.2076823 55.7721354,48.0016276 55.6347656,47.8642578 C55.6347656,47.726888 55.6347656,47.5208333 55.6347656,47.2460938 C55.4973958,47.2460938 55.2913411,47.2460938 55.0166016,47.2460938 C55.1539714,47.5208333 55.2226562,47.726888 55.2226562,47.8642578 C55.2226562,48.0016276 55.2226562,48.2076823 55.2226562,48.4824219 C55.2226562,48.6197917 55.2226562,48.7571615 55.2226562,48.8945312 C55.2226562,49.031901 55.1539714,49.2379557 55.0166016,49.5126953 Z M13.3935547,40.8583984 C13.5309245,40.8583984 13.6682943,40.8583984 13.8056641,40.8583984 C14.0804036,40.8583984 14.2864583,40.8583984 14.4238281,40.8583984 C14.5611979,40.8583984 14.7672526,40.8583984 15.0419922,40.8583984 C15.179362,40.8583984 15.3167318,40.8583984 15.4541016,40.8583984 C15.4541016,64.6233724 15.4541016,100.339518 15.4541016,148.006836 C15.0419922,148.006836 14.3551432,148.006836 13.3935547,148.006836 C13.3935547,130.148763 13.3935547,112.29069 13.3935547,94.4326172 C13.3935547,76.5745443 13.3935547,58.7164714 13.3935547,40.8583984 Z M13.3935547,150.067383 C13.3935547,149.517904 13.3935547,148.831055 13.3935547,148.006836 C12.9814453,148.006836 12.2945964,148.006836 11.3330078,148.006836 C12.0198568,150.479492 13.0501302,154.257161 14.4238281,159.339844 C15.1106771,156.867188 16.1409505,153.089518 17.5146484,148.006836 C17.1025391,148.006836 16.4156901,148.006836 15.4541016,148.006836 C15.4541016,148.418945 15.4541016,149.105794 15.4541016,150.067383 C15.0419922,150.067383 14.3551432,150.067383 13.3935547,150.067383 Z M13.3935547,150.067383 C13.8056641,150.067383 14.492513,150.067383 15.4541016,150.067383 C15.4541016,149.517904 15.4541016,148.831055 15.4541016,148.006836 C15.0419922,148.006836 14.3551432,148.006836 13.3935547,148.006836 C13.3935547,148.418945 13.3935547,149.105794 13.3935547,150.067383 Z M13.3935547,40.8583984 C12.4319661,40.5836589 11.6077474,40.0341797 10.9208984,39.2099609 C10.2340495,38.3857422 9.890625,37.4928385 9.890625,36.53125 C9.890625,35.2949219 10.3714193,34.1959635 11.3330078,33.234375 C12.1572266,32.4101562 13.1875,31.9980469 14.4238281,31.9980469 C15.6601562,31.9980469 16.6904297,32.4101562 17.5146484,33.234375 C18.476237,34.1959635 18.9570312,35.2949219 18.9570312,36.53125 C18.9570312,37.4928385 18.6136068,38.3857422 17.9267578,39.2099609 C17.2399089,40.0341797 16.4156901,40.5836589 15.4541016,40.8583984 C15.4541016,40.7210286 15.4541016,40.514974 15.4541016,40.2402344 C16.2783203,39.9654948 16.9651693,39.4847005 17.5146484,38.7978516 C18.0641276,38.1110026 18.3388672,37.3554688 18.3388672,36.53125 C18.3388672,35.4322917 17.9954427,34.4707031 17.3085938,33.6464844 C16.484375,32.8222656 15.5227865,32.4101562 14.4238281,32.4101562 C13.3248698,32.4101562 12.3632812,32.8222656 11.5390625,33.6464844 C10.8522135,34.4707031 10.5087891,35.4322917 10.5087891,36.53125 C10.5087891,37.3554688 10.7835286,38.1110026 11.3330078,38.7978516 C11.882487,39.4847005 12.5693359,39.9654948 13.3935547,40.2402344 C13.3935547,40.3776042 13.3935547,40.4462891 13.3935547,40.4462891 C13.3935547,40.5836589 13.3935547,40.7210286 13.3935547,40.8583984 Z M14.4238281,40.4462891 C14.5611979,40.4462891 14.7672526,40.4462891 15.0419922,40.4462891 C15.179362,40.3089193 15.3167318,40.2402344 15.4541016,40.2402344 C15.4541016,40.3776042 15.4541016,40.5836589 15.4541016,40.8583984 C15.3167318,40.8583984 15.179362,40.8583984 15.0419922,40.8583984 C14.7672526,40.8583984 14.5611979,40.8583984 14.4238281,40.8583984 C14.2864583,40.8583984 14.0804036,40.8583984 13.8056641,40.8583984 C13.6682943,40.8583984 13.5309245,40.8583984 13.3935547,40.8583984 C13.3935547,40.7210286 13.3935547,40.514974 13.3935547,40.2402344 C13.5309245,40.2402344 13.6682943,40.3089193 13.8056641,40.4462891 C14.0804036,40.4462891 14.2864583,40.4462891 14.4238281,40.4462891 Z M10.9208984,36.53125 C10.9208984,37.218099 11.195638,37.836263 11.7451172,38.3857422 C12.1572266,39.0725911 12.7067057,39.4847005 13.3935547,39.6220703 C13.3935547,39.7594401 13.3935547,39.9654948 13.3935547,40.2402344 C12.5693359,39.9654948 11.882487,39.4847005 11.3330078,38.7978516 C10.7835286,38.1110026 10.5087891,37.3554688 10.5087891,36.53125 C10.5087891,35.4322917 10.8522135,34.4707031 11.5390625,33.6464844 C12.3632812,32.8222656 13.3248698,32.4101562 14.4238281,32.4101562 C15.5227865,32.4101562 16.484375,32.8222656 17.3085938,33.6464844 C17.9954427,34.4707031 18.3388672,35.4322917 18.3388672,36.53125 C18.3388672,37.3554688 18.0641276,38.1110026 17.5146484,38.7978516 C16.9651693,39.4847005 16.2783203,39.9654948 15.4541016,40.2402344 C15.4541016,40.1028646 15.4541016,39.8968099 15.4541016,39.6220703 C16.1409505,39.4847005 16.6904297,39.0725911 17.1025391,38.3857422 C17.6520182,37.836263 17.9267578,37.218099 17.9267578,36.53125 C17.9267578,35.5696615 17.5833333,34.7454427 16.8964844,34.0585938 C16.2096354,33.3717448 15.3854167,33.0283203 14.4238281,33.0283203 C13.4622396,33.0283203 12.6380208,33.3717448 11.9511719,34.0585938 C11.2643229,34.7454427 10.9208984,35.5696615 10.9208984,36.53125 C10.9208984,36.2565104 10.9208984,36.1191406 10.9208984,36.1191406 C10.9208984,35.9817708 10.9208984,35.9130859 10.9208984,35.9130859 C10.9208984,35.9130859 10.9208984,35.9817708 10.9208984,36.1191406 C10.9208984,36.2565104 10.9208984,36.3938802 10.9208984,36.53125 C10.9208984,36.6686198 10.9208984,36.8059896 10.9208984,36.9433594 C10.9208984,36.9433594 10.9208984,36.9433594 10.9208984,36.9433594 C10.9208984,36.9433594 10.9208984,36.9433594 10.9208984,36.9433594 C10.9208984,36.8059896 10.9208984,36.6686198 10.9208984,36.53125 Z M15.4541016,40.2402344 C15.3167318,40.2402344 15.179362,40.3089193 15.0419922,40.4462891 C14.7672526,40.4462891 14.5611979,40.4462891 14.4238281,40.4462891 C14.2864583,40.4462891 14.0804036,40.4462891 13.8056641,40.4462891 C13.6682943,40.3089193 13.5309245,40.2402344 13.3935547,40.2402344 C13.3935547,40.1028646 13.3935547,39.8968099 13.3935547,39.6220703 C13.5309245,39.7594401 13.6682943,39.828125 13.8056641,39.828125 C14.0804036,39.828125 14.2864583,39.828125 14.4238281,39.828125 C14.5611979,39.828125 14.7672526,39.828125 15.0419922,39.828125 C15.179362,39.828125 15.3167318,39.7594401 15.4541016,39.6220703 C15.4541016,39.7594401 15.4541016,39.8968099 15.4541016,40.0341797 C15.4541016,40.0341797 15.4541016,40.1028646 15.4541016,40.2402344 Z M3.296875,28.9072266 C3.43424479,29.0445964 3.50292969,29.1132812 3.50292969,29.1132812 C3.64029948,29.1132812 3.70898438,29.1819661 3.70898438,29.3193359 C3.70898438,29.4567057 3.70898438,29.5253906 3.70898438,29.5253906 C3.84635417,29.6627604 3.91503906,29.7314453 3.91503906,29.7314453 C3.91503906,31.5172526 3.91503906,33.6464844 3.91503906,36.1191406 C3.91503906,38.7291667 3.91503906,41.7513021 3.91503906,45.1855469 C3.91503906,45.1855469 3.84635417,45.2542318 3.70898438,45.3916016 C3.70898438,45.5289714 3.64029948,45.6663411 3.50292969,45.8037109 C3.50292969,45.8037109 3.43424479,45.8723958 3.296875,46.0097656 C3.15950521,46.0097656 3.02213542,46.0097656 2.88476562,46.0097656 C2.74739583,46.0097656 2.67871094,46.0097656 2.67871094,46.0097656 C2.54134115,45.8723958 2.40397135,45.8037109 2.26660156,45.8037109 C2.26660156,45.6663411 2.19791667,45.5289714 2.06054688,45.3916016 C2.06054688,45.2542318 2.06054688,45.1855469 2.06054688,45.1855469 C2.06054688,43.6744792 2.06054688,41.819987 2.06054688,39.6220703 C2.06054688,37.4241536 2.06054688,34.8828125 2.06054688,31.9980469 C1.92317708,31.9980469 1.85449219,32.0667318 1.85449219,32.2041016 C1.7171224,32.3414714 1.5797526,32.4788411 1.44238281,32.6162109 C1.30501302,32.7535807 1.23632812,32.8222656 1.23632812,32.8222656 C1.09895833,32.8222656 0.961588542,32.8222656 0.82421875,32.8222656 C0.686848958,32.8222656 0.549479167,32.8222656 0.412109375,32.8222656 C0.412109375,32.8222656 0.343424479,32.7535807 0.206054688,32.6162109 C0.0686848958,32.4788411 0,32.4101562 0,32.4101562 C0,32.2727865 0,32.1354167 0,31.9980469 C0,31.8606771 0,31.7233073 0,31.5859375 C0,31.4485677 0.0686848958,31.3798828 0.206054688,31.3798828 C0.480794271,31.1051432 0.755533854,30.7617188 1.03027344,30.3496094 C1.44238281,30.0748698 1.85449219,29.6627604 2.26660156,29.1132812 C2.40397135,29.1132812 2.47265625,29.1132812 2.47265625,29.1132812 C2.61002604,28.9759115 2.74739583,28.9072266 2.88476562,28.9072266 C2.88476562,28.9072266 2.88476562,28.9072266 2.88476562,28.9072266 C2.88476562,28.9072266 2.88476562,28.9072266 2.88476562,28.9072266 C3.02213542,28.9072266 3.09082031,28.9072266 3.09082031,28.9072266 C3.2281901,28.9072266 3.296875,28.9072266 3.296875,28.9072266 Z M49.8652344,67.0273438 C50.6894531,66.4778646 51.3076172,65.9970703 51.7197266,65.5849609 C52.2692057,65.1728516 52.6126302,64.8294271 52.75,64.5546875 C53.0247396,64.1425781 53.2307943,63.7991536 53.3681641,63.5244141 C53.3681641,63.2496745 53.3681641,62.9749349 53.3681641,62.7001953 C53.3681641,62.5628255 53.3681641,62.4254557 53.3681641,62.2880859 C53.3681641,62.2880859 53.3681641,62.219401 53.3681641,62.0820312 C53.3681641,61.9446615 53.3681641,61.8072917 53.3681641,61.6699219 C53.3681641,61.6699219 53.2994792,61.601237 53.1621094,61.4638672 C53.1621094,61.1891276 53.0247396,60.9830729 52.75,60.8457031 C52.6126302,60.7083333 52.4752604,60.5709635 52.3378906,60.4335938 C52.063151,60.296224 51.7884115,60.1588542 51.5136719,60.0214844 C51.1015625,60.0214844 50.6894531,60.0214844 50.2773438,60.0214844 C50.0026042,60.0214844 49.6591797,60.0214844 49.2470703,60.0214844 C48.9723307,60.1588542 48.766276,60.296224 48.6289062,60.4335938 C48.3541667,60.5709635 48.148112,60.7770182 48.0107422,61.0517578 C47.7360026,61.1891276 47.5299479,61.3951823 47.3925781,61.6699219 C47.3925781,61.8072917 47.3238932,61.9446615 47.1865234,62.0820312 C47.1865234,62.0820312 47.1178385,62.0820312 46.9804688,62.0820312 C46.843099,62.219401 46.7057292,62.2880859 46.5683594,62.2880859 C46.4309896,62.2880859 46.2936198,62.219401 46.15625,62.0820312 C46.15625,62.0820312 46.0875651,62.0133464 45.9501953,61.8759766 C45.8128255,61.8759766 45.7441406,61.8072917 45.7441406,61.6699219 C45.7441406,61.5325521 45.7441406,61.3951823 45.7441406,61.2578125 C45.7441406,61.1204427 45.7441406,61.0517578 45.7441406,61.0517578 C46.0188802,60.5022786 46.2936198,60.0901693 46.5683594,59.8154297 C46.843099,59.4033203 47.1865234,59.1285807 47.5986328,58.9912109 C48.0107422,58.7164714 48.4228516,58.5104167 48.8349609,58.3730469 C49.2470703,58.2356771 49.7278646,58.1669922 50.2773438,58.1669922 C51.2389323,58.1669922 51.9944661,58.304362 52.5439453,58.5791016 C53.2307943,58.8538411 53.7802734,59.1972656 54.1923828,59.609375 C54.4671224,60.1588542 54.741862,60.6396484 55.0166016,61.0517578 C55.1539714,61.601237 55.2226562,62.1507161 55.2226562,62.7001953 C55.2226562,63.2496745 55.1539714,63.7304688 55.0166016,64.1425781 C54.8792318,64.6920573 54.6044922,65.2415365 54.1923828,65.7910156 C53.9176432,66.203125 53.436849,66.6152344 52.75,67.0273438 C52.2005208,67.5768229 51.5823568,68.0576172 50.8955078,68.4697266 C50.2086589,68.8818359 49.6591797,69.2939453 49.2470703,69.7060547 C48.8349609,70.1181641 48.4915365,70.5989583 48.2167969,71.1484375 C47.9420573,71.5605469 47.6673177,71.9726562 47.3925781,72.3847656 C47.2552083,72.796875 47.1178385,73.1402995 46.9804688,73.4150391 C47.8046875,73.4150391 48.9036458,73.4150391 50.2773438,73.4150391 C51.5136719,73.4150391 52.9560547,73.4150391 54.6044922,73.4150391 C54.741862,73.4150391 54.8105469,73.483724 54.8105469,73.6210938 C54.9479167,73.6210938 55.0852865,73.6897786 55.2226562,73.8271484 C55.360026,73.8271484 55.4287109,73.8958333 55.4287109,74.0332031 C55.4287109,74.1705729 55.4287109,74.3079427 55.4287109,74.4453125 C55.4287109,74.4453125 55.4287109,74.5139974 55.4287109,74.6513672 C55.4287109,74.788737 55.360026,74.9261068 55.2226562,75.0634766 C55.0852865,75.0634766 55.0166016,75.1321615 55.0166016,75.2695312 C54.8792318,75.2695312 54.741862,75.2695312 54.6044922,75.2695312 C53.9176432,75.2695312 53.1621094,75.2695312 52.3378906,75.2695312 C51.6510417,75.2695312 50.9641927,75.2695312 50.2773438,75.2695312 C49.5904948,75.2695312 48.9036458,75.2695312 48.2167969,75.2695312 C47.3925781,75.2695312 46.6370443,75.2695312 45.9501953,75.2695312 C45.9501953,75.2695312 45.8815104,75.2695312 45.7441406,75.2695312 C45.7441406,75.2695312 45.6754557,75.2695312 45.5380859,75.2695312 C45.5380859,75.1321615 45.5380859,75.0634766 45.5380859,75.0634766 C45.4007161,75.0634766 45.3320312,75.0634766 45.3320312,75.0634766 C45.3320312,74.9261068 45.2633464,74.8574219 45.1259766,74.8574219 C45.1259766,74.7200521 45.1259766,74.6513672 45.1259766,74.6513672 C45.1259766,74.6513672 45.1259766,74.5826823 45.1259766,74.4453125 C45.1259766,74.4453125 45.1259766,74.4453125 45.1259766,74.4453125 C45.1259766,74.3079427 45.1259766,74.2392578 45.1259766,74.2392578 C45.1259766,74.2392578 45.1259766,74.2392578 45.1259766,74.2392578 C45.1259766,74.2392578 45.1259766,74.101888 45.1259766,73.8271484 C45.2633464,73.6897786 45.3320312,73.4150391 45.3320312,73.0029297 C45.469401,72.5908203 45.6067708,72.1787109 45.7441406,71.7666016 C46.0188802,71.2171224 46.2936198,70.6676432 46.5683594,70.1181641 C46.843099,69.8434245 47.0491536,69.5686849 47.1865234,69.2939453 C47.461263,69.0192057 47.7360026,68.7444661 48.0107422,68.4697266 C48.2854818,68.194987 48.5602214,67.9202474 48.8349609,67.6455078 C49.1097005,67.508138 49.453125,67.3020833 49.8652344,67.0273438 Z M49.2470703,129.461914 C49.2470703,129.324544 49.2470703,129.187174 49.2470703,129.049805 C49.3844401,128.912435 49.453125,128.84375 49.453125,128.84375 C49.5904948,128.70638 49.6591797,128.637695 49.6591797,128.637695 C49.7965495,128.637695 49.9339193,128.637695 50.0712891,128.637695 C50.4833984,128.637695 50.8268229,128.637695 51.1015625,128.637695 C51.5136719,128.775065 51.8570964,128.84375 52.1318359,128.84375 C52.4065755,128.98112 52.6126302,129.11849 52.75,129.255859 C52.8873698,129.255859 53.0934245,129.324544 53.3681641,129.461914 C52.8186849,129.736654 52.3378906,129.942708 51.9257812,130.080078 C51.3763021,130.217448 50.758138,130.286133 50.0712891,130.286133 C50.0712891,130.286133 50.0026042,130.286133 49.8652344,130.286133 C49.7278646,130.286133 49.5904948,130.217448 49.453125,130.080078 C49.453125,129.942708 49.3844401,129.874023 49.2470703,129.874023 C49.2470703,129.736654 49.2470703,129.599284 49.2470703,129.461914 Z M53.3681641,129.461914 C53.0934245,129.324544 52.8873698,129.255859 52.75,129.255859 C52.6126302,129.11849 52.4065755,128.98112 52.1318359,128.84375 C51.8570964,128.84375 51.5136719,128.775065 51.1015625,128.637695 C50.8268229,128.637695 50.4833984,128.637695 50.0712891,128.637695 C50.0712891,128.637695 50.0712891,128.637695 50.0712891,128.637695 C50.0712891,128.637695 50.0712891,128.637695 50.0712891,128.637695 C50.6207682,128.637695 51.1015625,128.56901 51.5136719,128.431641 C51.9257812,128.294271 52.2692057,128.088216 52.5439453,127.813477 C52.9560547,127.538737 53.2307943,127.263997 53.3681641,126.989258 C53.5055339,126.714518 53.5742188,126.371094 53.5742188,125.958984 C53.5742188,125.684245 53.5742188,125.47819 53.5742188,125.34082 C53.436849,125.203451 53.3681641,125.066081 53.3681641,124.928711 C53.2307943,124.791341 53.1621094,124.653971 53.1621094,124.516602 C53.0247396,124.379232 52.9560547,124.310547 52.9560547,124.310547 C52.8186849,124.173177 52.6813151,124.035807 52.5439453,123.898438 C52.2692057,123.761068 52.063151,123.692383 51.9257812,123.692383 C51.7884115,123.555013 51.6510417,123.486328 51.5136719,123.486328 C51.2389323,123.348958 51.0328776,123.280273 50.8955078,123.280273 C50.6207682,123.280273 50.3460286,123.348958 50.0712891,123.486328 C49.7965495,123.486328 49.5218099,123.555013 49.2470703,123.692383 C48.9723307,123.829753 48.766276,123.967122 48.6289062,124.104492 C48.3541667,124.241862 48.148112,124.379232 48.0107422,124.516602 C47.8733724,124.653971 47.8046875,124.722656 47.8046875,124.722656 C47.6673177,124.722656 47.5299479,124.722656 47.3925781,124.722656 C47.2552083,124.722656 47.1178385,124.722656 46.9804688,124.722656 C46.9804688,124.722656 46.9117839,124.653971 46.7744141,124.516602 C46.6370443,124.516602 46.5683594,124.447917 46.5683594,124.310547 C46.4309896,124.173177 46.3623047,124.035807 46.3623047,123.898438 C46.3623047,123.898438 46.4309896,123.829753 46.5683594,123.692383 C46.5683594,123.555013 46.5683594,123.417643 46.5683594,123.280273 C46.843099,123.005534 47.1865234,122.799479 47.5986328,122.662109 C47.8733724,122.38737 48.148112,122.181315 48.4228516,122.043945 C48.8349609,121.906576 49.2470703,121.769206 49.6591797,121.631836 C50.0712891,121.631836 50.4833984,121.631836 50.8955078,121.631836 C51.1702474,121.631836 51.444987,121.631836 51.7197266,121.631836 C52.1318359,121.769206 52.4752604,121.906576 52.75,122.043945 C53.0247396,122.043945 53.2994792,122.181315 53.5742188,122.456055 C53.7115885,122.593424 53.9176432,122.730794 54.1923828,122.868164 C54.3297526,123.142904 54.4671224,123.417643 54.6044922,123.692383 C54.8792318,123.829753 55.0166016,124.035807 55.0166016,124.310547 C55.1539714,124.585286 55.2226562,124.860026 55.2226562,125.134766 C55.360026,125.409505 55.4287109,125.684245 55.4287109,125.958984 C55.4287109,125.958984 55.4287109,125.958984 55.4287109,125.958984 C55.4287109,125.958984 55.4287109,125.958984 55.4287109,125.958984 C55.4287109,126.645833 55.2913411,127.195312 55.0166016,127.607422 C54.741862,128.156901 54.3297526,128.637695 53.7802734,129.049805 C53.7802734,129.187174 53.7115885,129.255859 53.5742188,129.255859 C53.436849,129.393229 53.3681641,129.461914 53.3681641,129.461914 Z M55.4287109,133.583008 C55.4287109,134.407227 55.2913411,135.094076 55.0166016,135.643555 C54.741862,136.193034 54.3297526,136.742513 53.7802734,137.291992 C53.2307943,137.704102 52.6126302,138.047526 51.9257812,138.322266 C51.3763021,138.597005 50.6894531,138.734375 49.8652344,138.734375 C49.3157552,138.734375 48.8349609,138.66569 48.4228516,138.52832 C48.0107422,138.390951 47.5986328,138.184896 47.1865234,137.910156 C46.7744141,137.772786 46.3623047,137.566732 45.9501953,137.291992 C45.6754557,136.879883 45.4007161,136.536458 45.1259766,136.261719 C45.1259766,136.124349 45.1259766,135.986979 45.1259766,135.849609 C44.9886068,135.849609 44.9199219,135.780924 44.9199219,135.643555 C44.9199219,135.643555 44.9199219,135.643555 44.9199219,135.643555 C44.9199219,135.643555 44.9199219,135.57487 44.9199219,135.4375 C45.0572917,135.4375 45.1259766,135.368815 45.1259766,135.231445 C45.2633464,135.094076 45.3320312,135.025391 45.3320312,135.025391 C45.469401,134.888021 45.6067708,134.819336 45.7441406,134.819336 C45.8815104,134.819336 46.0188802,134.819336 46.15625,134.819336 C46.15625,134.819336 46.2249349,134.888021 46.3623047,135.025391 C46.4996745,135.025391 46.5683594,135.094076 46.5683594,135.231445 C46.843099,135.506185 47.0491536,135.71224 47.1865234,135.849609 C47.461263,136.124349 47.7360026,136.330404 48.0107422,136.467773 C48.2854818,136.605143 48.5602214,136.742513 48.8349609,136.879883 C49.1097005,136.879883 49.453125,136.879883 49.8652344,136.879883 C50.2773438,136.879883 50.6894531,136.811198 51.1015625,136.673828 C51.5136719,136.536458 51.9257812,136.330404 52.3378906,136.055664 C52.75,135.780924 53.0247396,135.4375 53.1621094,135.025391 C53.436849,134.613281 53.5742188,134.132487 53.5742188,133.583008 C53.5742188,133.308268 53.5742188,133.102214 53.5742188,132.964844 C53.5742188,132.690104 53.5055339,132.484049 53.3681641,132.34668 C53.3681641,132.07194 53.2994792,131.865885 53.1621094,131.728516 C53.0247396,131.591146 52.8873698,131.453776 52.75,131.316406 C52.6126302,131.179036 52.4065755,131.041667 52.1318359,130.904297 C51.9944661,130.766927 51.7884115,130.698242 51.5136719,130.698242 C51.2389323,130.560872 50.9641927,130.492188 50.6894531,130.492188 C50.4147135,130.354818 50.139974,130.286133 49.8652344,130.286133 C49.7278646,130.286133 49.5904948,130.286133 49.453125,130.286133 C49.3157552,130.286133 49.1783854,130.217448 49.0410156,130.080078 C49.0410156,129.942708 49.0410156,129.874023 49.0410156,129.874023 C48.9036458,129.736654 48.8349609,129.599284 48.8349609,129.461914 C48.8349609,129.324544 48.9036458,129.187174 49.0410156,129.049805 C49.0410156,129.049805 49.0410156,128.98112 49.0410156,128.84375 C49.1783854,128.70638 49.3157552,128.637695 49.453125,128.637695 C49.5904948,128.637695 49.7278646,128.637695 49.8652344,128.637695 C49.8652344,128.637695 49.8652344,128.637695 49.8652344,128.637695 C49.8652344,128.637695 49.9339193,128.637695 50.0712891,128.637695 C49.9339193,128.637695 49.8652344,128.637695 49.8652344,128.637695 C49.7278646,128.637695 49.5904948,128.70638 49.453125,128.84375 C49.453125,128.84375 49.3844401,128.912435 49.2470703,129.049805 C49.2470703,129.187174 49.2470703,129.324544 49.2470703,129.461914 C49.2470703,129.599284 49.2470703,129.736654 49.2470703,129.874023 C49.3844401,129.874023 49.453125,129.942708 49.453125,130.080078 C49.5904948,130.217448 49.7278646,130.286133 49.8652344,130.286133 C49.8652344,130.286133 49.9339193,130.286133 50.0712891,130.286133 C50.758138,130.286133 51.3763021,130.217448 51.9257812,130.080078 C52.3378906,129.942708 52.8186849,129.736654 53.3681641,129.461914 C53.5055339,129.599284 53.5742188,129.667969 53.5742188,129.667969 C53.7115885,129.805339 53.8489583,129.942708 53.9863281,130.080078 C54.2610677,130.354818 54.4671224,130.629557 54.6044922,130.904297 C54.741862,131.041667 54.8792318,131.316406 55.0166016,131.728516 C55.1539714,132.003255 55.2226562,132.277995 55.2226562,132.552734 C55.360026,132.964844 55.4287109,133.308268 55.4287109,133.583008 Z" transform="translate(-6.397)"/></svg>