<svg xmlns="http://www.w3.org/2000/svg" width="120" height="203" viewBox="0 0 120 203"><path fill="#131313" d="M1143.25254,38.5322266 C1130.33978,38.5322266 1110.90195,38.5322266 1084.93906,38.5322266 C1084.93906,49.3844401 1084.93906,65.6627604 1084.93906,87.3671875 C1097.30234,87.3671875 1115.84727,87.3671875 1140.57383,87.3671875 C1142.63438,87.3671875 1144.3515,88.0540365 1145.7252,89.4277344 C1147.23626,90.9388021 1147.9918,92.7246094 1147.9918,94.7851562 C1147.9918,96.8457031 1147.23626,98.6315104 1145.7252,100.142578 C1144.3515,101.516276 1142.63438,102.203125 1140.57383,102.203125 C1128.21055,102.203125 1109.66563,102.203125 1084.93906,102.203125 C1084.93906,114.703776 1084.93906,133.454753 1084.93906,158.456055 C1084.93906,160.516602 1084.25221,162.302409 1082.87852,163.813477 C1081.36745,165.187174 1079.58164,165.874023 1077.52109,165.874023 C1075.46055,165.874023 1073.67474,165.187174 1072.16367,163.813477 C1070.78997,162.302409 1070.10313,160.516602 1070.10313,158.456055 C1070.10313,130.157878 1070.10313,87.710612 1070.10313,31.1142578 C1070.10313,29.0537109 1070.78997,27.2679036 1072.16367,25.7568359 C1073.67474,24.383138 1075.46055,23.6962891 1077.52109,23.6962891 C1092.08229,23.6962891 1113.99277,23.6962891 1143.25254,23.6962891 C1145.31309,23.6962891 1147.09889,24.383138 1148.60996,25.7568359 C1150.12103,27.2679036 1150.87656,29.0537109 1150.87656,31.1142578 C1150.87656,33.1748047 1150.12103,34.8919271 1148.60996,36.265625 C1147.09889,37.7766927 1145.31309,38.5322266 1143.25254,38.5322266 Z M1100.35605,111.887695 C1100.35605,112.025065 1100.35605,112.162435 1100.35605,112.299805 C1100.35605,112.574544 1100.35605,112.780599 1100.35605,112.917969 C1106.12559,112.917969 1114.84857,112.917969 1126.525,112.917969 C1126.525,112.36849 1126.525,111.681641 1126.525,110.857422 C1120.75547,110.857422 1112.03249,110.857422 1100.35605,110.857422 C1100.35605,110.994792 1100.35605,111.132161 1100.35605,111.269531 C1100.35605,111.406901 1100.35605,111.612956 1100.35605,111.887695 Z M1137.85801,111.887695 C1135.38535,112.574544 1131.60768,113.604818 1126.525,114.978516 C1126.525,114.429036 1126.525,113.742188 1126.525,112.917969 C1126.93711,112.917969 1127.62396,112.917969 1128.58555,112.917969 C1128.58555,112.36849 1128.58555,111.681641 1128.58555,110.857422 C1128.17344,110.857422 1127.48659,110.857422 1126.525,110.857422 C1126.525,110.307943 1126.525,109.621094 1126.525,108.796875 C1128.99766,109.483724 1132.77533,110.513997 1137.85801,111.887695 Z M1126.525,112.917969 C1126.93711,112.917969 1127.62396,112.917969 1128.58555,112.917969 C1128.58555,112.36849 1128.58555,111.681641 1128.58555,110.857422 C1128.17344,110.857422 1127.48659,110.857422 1126.525,110.857422 C1126.525,111.269531 1126.525,111.95638 1126.525,112.917969 Z M1091.90781,111.887695 C1091.90781,110.788737 1092.31992,109.827148 1093.14414,109.00293 C1093.83099,108.178711 1094.72389,107.766602 1095.82285,107.766602 C1096.78444,107.766602 1097.60866,108.110026 1098.29551,108.796875 C1098.98236,109.346354 1099.46315,110.033203 1099.73789,110.857422 C1099.87526,110.857422 1100.08132,110.857422 1100.35605,110.857422 C1100.08132,109.758464 1099.53184,108.934245 1098.70762,108.384766 C1097.8834,107.697917 1096.92181,107.354492 1095.82285,107.354492 C1094.58652,107.354492 1093.55625,107.766602 1092.73203,108.59082 C1091.90781,109.552409 1091.4957,110.651367 1091.4957,111.887695 C1091.4957,113.124023 1091.90781,114.154297 1092.73203,114.978516 C1093.55625,115.940104 1094.58652,116.420898 1095.82285,116.420898 C1096.92181,116.420898 1097.8834,116.077474 1098.70762,115.390625 C1099.53184,114.703776 1100.08132,113.879557 1100.35605,112.917969 C1100.21868,112.917969 1100.01263,112.917969 1099.73789,112.917969 C1099.46315,113.742188 1098.98236,114.429036 1098.29551,114.978516 C1097.60866,115.527995 1096.78444,115.802734 1095.82285,115.802734 C1094.72389,115.802734 1093.83099,115.390625 1093.14414,114.566406 C1092.31992,113.879557 1091.90781,112.986654 1091.90781,111.887695 Z M1099.73789,110.857422 C1099.73789,110.994792 1099.80658,111.132161 1099.94395,111.269531 C1099.94395,111.406901 1099.94395,111.612956 1099.94395,111.887695 C1099.94395,112.025065 1099.94395,112.162435 1099.94395,112.299805 C1099.80658,112.574544 1099.73789,112.780599 1099.73789,112.917969 C1099.87526,112.917969 1100.08132,112.917969 1100.35605,112.917969 C1100.35605,112.780599 1100.35605,112.574544 1100.35605,112.299805 C1100.35605,112.162435 1100.35605,112.025065 1100.35605,111.887695 C1100.35605,111.612956 1100.35605,111.406901 1100.35605,111.269531 C1100.35605,111.132161 1100.35605,110.994792 1100.35605,110.857422 C1100.21868,110.857422 1100.08132,110.857422 1099.94395,110.857422 C1099.94395,110.857422 1099.87526,110.857422 1099.73789,110.857422 Z M1091.90781,111.887695 C1091.90781,112.986654 1092.31992,113.879557 1093.14414,114.566406 C1093.83099,115.390625 1094.72389,115.802734 1095.82285,115.802734 C1096.78444,115.802734 1097.60866,115.527995 1098.29551,114.978516 C1098.98236,114.429036 1099.46315,113.742188 1099.73789,112.917969 C1099.60052,112.917969 1099.39447,112.917969 1099.11973,112.917969 C1098.98236,113.604818 1098.57025,114.154297 1097.8834,114.566406 C1097.33392,114.978516 1096.64707,115.18457 1095.82285,115.18457 C1096.09759,115.18457 1096.23496,115.18457 1096.23496,115.18457 C1096.37233,115.18457 1096.44102,115.18457 1096.44102,115.18457 C1096.44102,115.18457 1096.37233,115.18457 1096.23496,115.18457 C1096.23496,115.18457 1096.09759,115.18457 1095.82285,115.18457 C1095.68548,115.18457 1095.6168,115.18457 1095.6168,115.18457 C1095.47943,115.18457 1095.41074,115.18457 1095.41074,115.18457 C1095.41074,115.18457 1095.47943,115.18457 1095.6168,115.18457 C1095.6168,115.18457 1095.68548,115.18457 1095.82285,115.18457 C1094.99863,115.18457 1094.2431,114.909831 1093.55625,114.360352 C1092.8694,113.673503 1092.52598,112.849284 1092.52598,111.887695 C1092.52598,110.926107 1092.8694,110.101888 1093.55625,109.415039 C1094.2431,108.72819 1094.99863,108.384766 1095.82285,108.384766 C1096.64707,108.384766 1097.33392,108.59082 1097.8834,109.00293 C1098.57025,109.552409 1098.98236,110.170573 1099.11973,110.857422 C1099.2571,110.857422 1099.46315,110.857422 1099.73789,110.857422 C1099.46315,110.033203 1098.98236,109.346354 1098.29551,108.796875 C1097.60866,108.110026 1096.78444,107.766602 1095.82285,107.766602 C1094.72389,107.766602 1093.83099,108.178711 1093.14414,109.00293 C1092.31992,109.827148 1091.90781,110.788737 1091.90781,111.887695 Z M1099.11973,112.917969 C1099.2571,112.917969 1099.46315,112.917969 1099.73789,112.917969 C1099.73789,112.780599 1099.73789,112.574544 1099.73789,112.299805 C1099.87526,112.162435 1099.94395,112.025065 1099.94395,111.887695 C1099.94395,111.612956 1099.87526,111.406901 1099.73789,111.269531 C1099.73789,111.132161 1099.73789,110.994792 1099.73789,110.857422 C1099.60052,110.857422 1099.39447,110.857422 1099.11973,110.857422 C1099.2571,110.994792 1099.32578,111.132161 1099.32578,111.269531 C1099.32578,111.406901 1099.32578,111.612956 1099.32578,111.887695 C1099.32578,112.025065 1099.32578,112.162435 1099.32578,112.299805 C1099.32578,112.574544 1099.2571,112.780599 1099.11973,112.917969 Z M1100.35605,48.2167969 C1100.35605,48.3541667 1100.35605,48.4915365 1100.35605,48.6289062 C1100.35605,48.766276 1100.35605,48.9723307 1100.35605,49.2470703 C1106.81243,49.2470703 1116.49701,49.2470703 1129.40977,49.2470703 C1129.40977,48.6975911 1129.40977,47.9420573 1129.40977,46.9804688 C1122.95339,46.9804688 1113.26882,46.9804688 1100.35605,46.9804688 C1100.35605,47.2552083 1100.35605,47.461263 1100.35605,47.5986328 C1100.35605,47.7360026 1100.35605,47.9420573 1100.35605,48.2167969 Z M1129.40977,46.9804688 C1129.40977,46.5683594 1129.40977,45.9501953 1129.40977,45.1259766 C1131.88242,45.8128255 1135.66009,46.843099 1140.74277,48.2167969 C1138.27012,48.9036458 1134.49245,49.8652344 1129.40977,51.1015625 C1129.40977,50.6894531 1129.40977,50.0712891 1129.40977,49.2470703 C1129.82188,49.2470703 1130.50872,49.2470703 1131.47031,49.2470703 C1131.47031,48.6975911 1131.47031,47.9420573 1131.47031,46.9804688 C1130.92083,46.9804688 1130.23398,46.9804688 1129.40977,46.9804688 Z M1129.40977,49.2470703 C1129.82188,49.2470703 1130.50872,49.2470703 1131.47031,49.2470703 C1131.47031,48.6975911 1131.47031,47.9420573 1131.47031,46.9804688 C1130.92083,46.9804688 1130.23398,46.9804688 1129.40977,46.9804688 C1129.40977,47.5299479 1129.40977,48.2854818 1129.40977,49.2470703 Z M1091.90781,48.2167969 C1091.90781,47.1178385 1092.31992,46.15625 1093.14414,45.3320312 C1093.83099,44.5078125 1094.72389,44.0957031 1095.82285,44.0957031 C1096.78444,44.0957031 1097.60866,44.3704427 1098.29551,44.9199219 C1098.98236,45.469401 1099.46315,46.15625 1099.73789,46.9804688 C1099.87526,46.9804688 1100.08132,46.9804688 1100.35605,46.9804688 C1100.08132,46.0188802 1099.53184,45.2633464 1098.70762,44.7138672 C1097.8834,44.0270182 1096.92181,43.6835938 1095.82285,43.6835938 C1094.58652,43.6835938 1093.55625,44.0957031 1092.73203,44.9199219 C1091.90781,45.8815104 1091.4957,46.9804688 1091.4957,48.2167969 C1091.4957,49.453125 1091.90781,50.4833984 1092.73203,51.3076172 C1093.55625,52.1318359 1094.58652,52.5439453 1095.82285,52.5439453 C1096.92181,52.5439453 1097.8834,52.2692057 1098.70762,51.7197266 C1099.53184,51.0328776 1100.08132,50.2086589 1100.35605,49.2470703 C1100.21868,49.2470703 1100.01263,49.2470703 1099.73789,49.2470703 C1099.46315,50.0712891 1098.98236,50.758138 1098.29551,51.3076172 C1097.60866,51.8570964 1096.78444,52.1318359 1095.82285,52.1318359 C1094.72389,52.1318359 1093.83099,51.7197266 1093.14414,50.8955078 C1092.31992,50.2086589 1091.90781,49.3157552 1091.90781,48.2167969 Z M1099.73789,46.9804688 C1099.73789,47.2552083 1099.80658,47.461263 1099.94395,47.5986328 C1099.94395,47.7360026 1099.94395,47.9420573 1099.94395,48.2167969 C1099.94395,48.3541667 1099.94395,48.4915365 1099.94395,48.6289062 C1099.80658,48.766276 1099.73789,48.9723307 1099.73789,49.2470703 C1099.87526,49.2470703 1100.08132,49.2470703 1100.35605,49.2470703 C1100.35605,48.9723307 1100.35605,48.766276 1100.35605,48.6289062 C1100.35605,48.4915365 1100.35605,48.3541667 1100.35605,48.2167969 C1100.35605,47.9420573 1100.35605,47.7360026 1100.35605,47.5986328 C1100.35605,47.461263 1100.35605,47.2552083 1100.35605,46.9804688 C1100.21868,46.9804688 1100.08132,46.9804688 1099.94395,46.9804688 C1099.94395,46.9804688 1099.87526,46.9804688 1099.73789,46.9804688 Z M1091.90781,48.2167969 C1091.90781,49.3157552 1092.31992,50.2086589 1093.14414,50.8955078 C1093.83099,51.7197266 1094.72389,52.1318359 1095.82285,52.1318359 C1096.78444,52.1318359 1097.60866,51.8570964 1098.29551,51.3076172 C1098.98236,50.758138 1099.46315,50.0712891 1099.73789,49.2470703 C1099.60052,49.2470703 1099.39447,49.2470703 1099.11973,49.2470703 C1098.98236,49.9339193 1098.57025,50.4833984 1097.8834,50.8955078 C1097.33392,51.3076172 1096.64707,51.5136719 1095.82285,51.5136719 C1096.09759,51.5136719 1096.23496,51.5136719 1096.23496,51.5136719 C1096.37233,51.5136719 1096.44102,51.5136719 1096.44102,51.5136719 C1096.44102,51.5136719 1096.37233,51.5136719 1096.23496,51.5136719 C1096.23496,51.5136719 1096.09759,51.5136719 1095.82285,51.5136719 C1095.68548,51.5136719 1095.6168,51.5136719 1095.6168,51.5136719 C1095.47943,51.5136719 1095.41074,51.5136719 1095.41074,51.5136719 C1095.41074,51.5136719 1095.47943,51.5136719 1095.6168,51.5136719 C1095.6168,51.5136719 1095.68548,51.5136719 1095.82285,51.5136719 C1094.99863,51.5136719 1094.2431,51.1702474 1093.55625,50.4833984 C1092.8694,49.9339193 1092.52598,49.1783854 1092.52598,48.2167969 C1092.52598,47.2552083 1092.8694,46.4309896 1093.55625,45.7441406 C1094.2431,45.0572917 1094.99863,44.7138672 1095.82285,44.7138672 C1096.64707,44.7138672 1097.33392,44.9199219 1097.8834,45.3320312 C1098.57025,45.7441406 1098.98236,46.2936198 1099.11973,46.9804688 C1099.2571,46.9804688 1099.46315,46.9804688 1099.73789,46.9804688 C1099.46315,46.15625 1098.98236,45.469401 1098.29551,44.9199219 C1097.60866,44.3704427 1096.78444,44.0957031 1095.82285,44.0957031 C1094.72389,44.0957031 1093.83099,44.5078125 1093.14414,45.3320312 C1092.31992,46.15625 1091.90781,47.1178385 1091.90781,48.2167969 Z M1099.11973,49.2470703 C1099.2571,49.2470703 1099.46315,49.2470703 1099.73789,49.2470703 C1099.73789,48.9723307 1099.73789,48.766276 1099.73789,48.6289062 C1099.87526,48.4915365 1099.94395,48.3541667 1099.94395,48.2167969 C1099.94395,47.9420573 1099.87526,47.7360026 1099.73789,47.5986328 C1099.73789,47.461263 1099.73789,47.2552083 1099.73789,46.9804688 C1099.60052,46.9804688 1099.39447,46.9804688 1099.11973,46.9804688 C1099.2571,47.2552083 1099.32578,47.461263 1099.32578,47.5986328 C1099.32578,47.7360026 1099.32578,47.9420573 1099.32578,48.2167969 C1099.32578,48.3541667 1099.32578,48.4915365 1099.32578,48.6289062 C1099.32578,48.766276 1099.2571,48.9723307 1099.11973,49.2470703 Z M1057.49668,40.5927734 C1057.63405,40.5927734 1057.77142,40.5927734 1057.90879,40.5927734 C1058.18353,40.5927734 1058.38958,40.5927734 1058.52695,40.5927734 C1058.66432,40.5927734 1058.87038,40.5927734 1059.14512,40.5927734 C1059.28249,40.5927734 1059.41986,40.5927734 1059.55723,40.5927734 C1059.55723,64.3577474 1059.55723,100.073893 1059.55723,147.741211 C1059.14512,147.741211 1058.45827,147.741211 1057.49668,147.741211 C1057.49668,129.883138 1057.49668,112.025065 1057.49668,94.1669922 C1057.49668,76.3089193 1057.49668,58.4508464 1057.49668,40.5927734 Z M1057.49668,149.801758 C1057.49668,149.252279 1057.49668,148.56543 1057.49668,147.741211 C1057.08457,147.741211 1056.39772,147.741211 1055.43613,147.741211 C1056.12298,150.213867 1057.15326,153.991536 1058.52695,159.074219 C1059.2138,156.601562 1060.24408,152.823893 1061.61777,147.741211 C1061.20566,147.741211 1060.51882,147.741211 1059.55723,147.741211 C1059.55723,148.15332 1059.55723,148.840169 1059.55723,149.801758 C1059.14512,149.801758 1058.45827,149.801758 1057.49668,149.801758 Z M1057.49668,149.801758 C1057.90879,149.801758 1058.59564,149.801758 1059.55723,149.801758 C1059.55723,149.252279 1059.55723,148.56543 1059.55723,147.741211 C1059.14512,147.741211 1058.45827,147.741211 1057.49668,147.741211 C1057.49668,148.15332 1057.49668,148.840169 1057.49668,149.801758 Z M1057.49668,40.5927734 C1056.53509,40.3180339 1055.71087,39.7685547 1055.02402,38.9443359 C1054.33717,38.1201172 1053.99375,37.2272135 1053.99375,36.265625 C1053.99375,35.0292969 1054.47454,33.9303385 1055.43613,32.96875 C1056.26035,32.1445312 1057.29063,31.7324219 1058.52695,31.7324219 C1059.76328,31.7324219 1060.79355,32.1445312 1061.61777,32.96875 C1062.57936,33.9303385 1063.06016,35.0292969 1063.06016,36.265625 C1063.06016,37.2272135 1062.71673,38.1201172 1062.02988,38.9443359 C1061.34303,39.7685547 1060.51882,40.3180339 1059.55723,40.5927734 C1059.55723,40.4554036 1059.55723,40.249349 1059.55723,39.9746094 C1060.38145,39.6998698 1061.06829,39.2190755 1061.61777,38.5322266 C1062.16725,37.8453776 1062.44199,37.0898438 1062.44199,36.265625 C1062.44199,35.1666667 1062.09857,34.2050781 1061.41172,33.3808594 C1060.5875,32.5566406 1059.62591,32.1445312 1058.52695,32.1445312 C1057.42799,32.1445312 1056.46641,32.5566406 1055.64219,33.3808594 C1054.95534,34.2050781 1054.61191,35.1666667 1054.61191,36.265625 C1054.61191,37.0898438 1054.88665,37.8453776 1055.43613,38.5322266 C1055.98561,39.2190755 1056.67246,39.6998698 1057.49668,39.9746094 C1057.49668,40.1119792 1057.49668,40.1806641 1057.49668,40.1806641 C1057.49668,40.3180339 1057.49668,40.4554036 1057.49668,40.5927734 Z M1058.52695,40.1806641 C1058.66432,40.1806641 1058.87038,40.1806641 1059.14512,40.1806641 C1059.28249,40.0432943 1059.41986,39.9746094 1059.55723,39.9746094 C1059.55723,40.1119792 1059.55723,40.3180339 1059.55723,40.5927734 C1059.41986,40.5927734 1059.28249,40.5927734 1059.14512,40.5927734 C1058.87038,40.5927734 1058.66432,40.5927734 1058.52695,40.5927734 C1058.38958,40.5927734 1058.18353,40.5927734 1057.90879,40.5927734 C1057.77142,40.5927734 1057.63405,40.5927734 1057.49668,40.5927734 C1057.49668,40.4554036 1057.49668,40.249349 1057.49668,39.9746094 C1057.63405,39.9746094 1057.77142,40.0432943 1057.90879,40.1806641 C1058.18353,40.1806641 1058.38958,40.1806641 1058.52695,40.1806641 Z M1055.02402,36.265625 C1055.02402,36.952474 1055.29876,37.570638 1055.84824,38.1201172 C1056.26035,38.8069661 1056.80983,39.2190755 1057.49668,39.3564453 C1057.49668,39.4938151 1057.49668,39.6998698 1057.49668,39.9746094 C1056.67246,39.6998698 1055.98561,39.2190755 1055.43613,38.5322266 C1054.88665,37.8453776 1054.61191,37.0898438 1054.61191,36.265625 C1054.61191,35.1666667 1054.95534,34.2050781 1055.64219,33.3808594 C1056.46641,32.5566406 1057.42799,32.1445312 1058.52695,32.1445312 C1059.62591,32.1445312 1060.5875,32.5566406 1061.41172,33.3808594 C1062.09857,34.2050781 1062.44199,35.1666667 1062.44199,36.265625 C1062.44199,37.0898438 1062.16725,37.8453776 1061.61777,38.5322266 C1061.06829,39.2190755 1060.38145,39.6998698 1059.55723,39.9746094 C1059.55723,39.8372396 1059.55723,39.6311849 1059.55723,39.3564453 C1060.24408,39.2190755 1060.79355,38.8069661 1061.20566,38.1201172 C1061.75514,37.570638 1062.02988,36.952474 1062.02988,36.265625 C1062.02988,35.3040365 1061.68646,34.4798177 1060.99961,33.7929688 C1060.31276,33.1061198 1059.48854,32.7626953 1058.52695,32.7626953 C1057.56536,32.7626953 1056.74115,33.1061198 1056.0543,33.7929688 C1055.36745,34.4798177 1055.02402,35.3040365 1055.02402,36.265625 C1055.02402,35.9908854 1055.02402,35.8535156 1055.02402,35.8535156 C1055.02402,35.7161458 1055.02402,35.6474609 1055.02402,35.6474609 C1055.02402,35.6474609 1055.02402,35.7161458 1055.02402,35.8535156 C1055.02402,35.9908854 1055.02402,36.1282552 1055.02402,36.265625 C1055.02402,36.4029948 1055.02402,36.5403646 1055.02402,36.6777344 C1055.02402,36.6777344 1055.02402,36.6777344 1055.02402,36.6777344 C1055.02402,36.6777344 1055.02402,36.6777344 1055.02402,36.6777344 C1055.02402,36.5403646 1055.02402,36.4029948 1055.02402,36.265625 Z M1059.55723,39.9746094 C1059.41986,39.9746094 1059.28249,40.0432943 1059.14512,40.1806641 C1058.87038,40.1806641 1058.66432,40.1806641 1058.52695,40.1806641 C1058.38958,40.1806641 1058.18353,40.1806641 1057.90879,40.1806641 C1057.77142,40.0432943 1057.63405,39.9746094 1057.49668,39.9746094 C1057.49668,39.8372396 1057.49668,39.6311849 1057.49668,39.3564453 C1057.63405,39.4938151 1057.77142,39.5625 1057.90879,39.5625 C1058.18353,39.5625 1058.38958,39.5625 1058.52695,39.5625 C1058.66432,39.5625 1058.87038,39.5625 1059.14512,39.5625 C1059.28249,39.5625 1059.41986,39.4938151 1059.55723,39.3564453 C1059.55723,39.4938151 1059.55723,39.6311849 1059.55723,39.7685547 C1059.55723,39.7685547 1059.55723,39.8372396 1059.55723,39.9746094 Z M1047.4,28.6416016 C1047.53737,28.7789714 1047.60605,28.8476562 1047.60605,28.8476562 C1047.74342,28.8476562 1047.81211,28.9163411 1047.81211,29.0537109 C1047.81211,29.1910807 1047.81211,29.2597656 1047.81211,29.2597656 C1047.94948,29.3971354 1048.01816,29.4658203 1048.01816,29.4658203 C1048.01816,31.2516276 1048.01816,33.3808594 1048.01816,35.8535156 C1048.01816,38.4635417 1048.01816,41.4856771 1048.01816,44.9199219 C1048.01816,44.9199219 1047.94948,44.9886068 1047.81211,45.1259766 C1047.81211,45.2633464 1047.74342,45.4007161 1047.60605,45.5380859 C1047.60605,45.5380859 1047.53737,45.6067708 1047.4,45.7441406 C1047.26263,45.7441406 1047.12526,45.7441406 1046.98789,45.7441406 C1046.85052,45.7441406 1046.78184,45.7441406 1046.78184,45.7441406 C1046.64447,45.6067708 1046.5071,45.5380859 1046.36973,45.5380859 C1046.36973,45.4007161 1046.30104,45.2633464 1046.16367,45.1259766 C1046.16367,44.9886068 1046.16367,44.9199219 1046.16367,44.9199219 C1046.16367,43.4088542 1046.16367,41.554362 1046.16367,39.3564453 C1046.16367,37.1585286 1046.16367,34.6171875 1046.16367,31.7324219 C1046.0263,31.7324219 1045.95762,31.8011068 1045.95762,31.9384766 C1045.82025,32.0758464 1045.68288,32.2132161 1045.54551,32.3505859 C1045.40814,32.4879557 1045.33945,32.5566406 1045.33945,32.5566406 C1045.20208,32.5566406 1045.06471,32.5566406 1044.92734,32.5566406 C1044.78997,32.5566406 1044.6526,32.5566406 1044.51523,32.5566406 C1044.51523,32.5566406 1044.44655,32.4879557 1044.30918,32.3505859 C1044.17181,32.2132161 1044.10313,32.1445312 1044.10313,32.1445312 C1044.10313,32.0071615 1044.10313,31.8697917 1044.10313,31.7324219 C1044.10313,31.5950521 1044.10313,31.4576823 1044.10313,31.3203125 C1044.10313,31.1829427 1044.17181,31.1142578 1044.30918,31.1142578 C1044.58392,30.8395182 1044.85866,30.4960938 1045.1334,30.0839844 C1045.54551,29.8092448 1045.95762,29.3971354 1046.36973,28.8476562 C1046.5071,28.8476562 1046.57578,28.8476562 1046.57578,28.8476562 C1046.71315,28.7102865 1046.85052,28.6416016 1046.98789,28.6416016 C1046.98789,28.6416016 1046.98789,28.6416016 1046.98789,28.6416016 C1046.98789,28.6416016 1046.98789,28.6416016 1046.98789,28.6416016 C1047.12526,28.6416016 1047.19395,28.6416016 1047.19395,28.6416016 C1047.33132,28.6416016 1047.4,28.6416016 1047.4,28.6416016 Z M1093.96836,66.7617188 C1094.79258,66.2122396 1095.41074,65.7314453 1095.82285,65.3193359 C1096.37233,64.9072266 1096.71576,64.5638021 1096.85313,64.2890625 C1097.12786,63.8769531 1097.33392,63.5335286 1097.47129,63.2587891 C1097.47129,62.9840495 1097.47129,62.7093099 1097.47129,62.4345703 C1097.47129,62.2972005 1097.47129,62.1598307 1097.47129,62.0224609 C1097.47129,62.0224609 1097.47129,61.953776 1097.47129,61.8164062 C1097.47129,61.6790365 1097.47129,61.5416667 1097.47129,61.4042969 C1097.47129,61.4042969 1097.4026,61.335612 1097.26523,61.1982422 C1097.26523,60.9235026 1097.12786,60.7174479 1096.85313,60.5800781 C1096.71576,60.4427083 1096.57839,60.3053385 1096.44102,60.1679688 C1096.16628,60.030599 1095.89154,59.8932292 1095.6168,59.7558594 C1095.20469,59.7558594 1094.79258,59.7558594 1094.38047,59.7558594 C1094.10573,59.7558594 1093.7623,59.7558594 1093.3502,59.7558594 C1093.07546,59.8932292 1092.8694,60.030599 1092.73203,60.1679688 C1092.45729,60.3053385 1092.25124,60.5113932 1092.11387,60.7861328 C1091.83913,60.9235026 1091.63307,61.1295573 1091.4957,61.4042969 C1091.4957,61.5416667 1091.42702,61.6790365 1091.28965,61.8164062 C1091.28965,61.8164062 1091.22096,61.8164062 1091.08359,61.8164062 C1090.94622,61.953776 1090.80885,62.0224609 1090.67148,62.0224609 C1090.53411,62.0224609 1090.39674,61.953776 1090.25938,61.8164062 C1090.25938,61.8164062 1090.19069,61.7477214 1090.05332,61.6103516 C1089.91595,61.6103516 1089.84727,61.5416667 1089.84727,61.4042969 C1089.84727,61.2669271 1089.84727,61.1295573 1089.84727,60.9921875 C1089.84727,60.8548177 1089.84727,60.7861328 1089.84727,60.7861328 C1090.12201,60.2366536 1090.39674,59.8245443 1090.67148,59.5498047 C1090.94622,59.1376953 1091.28965,58.8629557 1091.70176,58.7255859 C1092.11387,58.4508464 1092.52598,58.2447917 1092.93809,58.1074219 C1093.3502,57.9700521 1093.83099,57.9013672 1094.38047,57.9013672 C1095.34206,57.9013672 1096.09759,58.038737 1096.64707,58.3134766 C1097.33392,58.5882161 1097.8834,58.9316406 1098.29551,59.34375 C1098.57025,59.8932292 1098.84499,60.3740234 1099.11973,60.7861328 C1099.2571,61.335612 1099.32578,61.8850911 1099.32578,62.4345703 C1099.32578,62.9840495 1099.2571,63.4648438 1099.11973,63.8769531 C1098.98236,64.4264323 1098.70762,64.9759115 1098.29551,65.5253906 C1098.02077,65.9375 1097.53997,66.3496094 1096.85313,66.7617188 C1096.30365,67.3111979 1095.68548,67.7919922 1094.99863,68.2041016 C1094.31178,68.6162109 1093.7623,69.0283203 1093.3502,69.4404297 C1092.93809,69.8525391 1092.59466,70.3333333 1092.31992,70.8828125 C1092.04518,71.2949219 1091.77044,71.7070312 1091.4957,72.1191406 C1091.35833,72.53125 1091.22096,72.8746745 1091.08359,73.1494141 C1091.90781,73.1494141 1093.00677,73.1494141 1094.38047,73.1494141 C1095.6168,73.1494141 1097.05918,73.1494141 1098.70762,73.1494141 C1098.84499,73.1494141 1098.91367,73.218099 1098.91367,73.3554688 C1099.05104,73.3554688 1099.18841,73.4241536 1099.32578,73.5615234 C1099.46315,73.5615234 1099.53184,73.6302083 1099.53184,73.7675781 C1099.53184,73.9049479 1099.53184,74.0423177 1099.53184,74.1796875 C1099.53184,74.1796875 1099.53184,74.2483724 1099.53184,74.3857422 C1099.53184,74.523112 1099.46315,74.6604818 1099.32578,74.7978516 C1099.18841,74.7978516 1099.11973,74.8665365 1099.11973,75.0039062 C1098.98236,75.0039062 1098.84499,75.0039062 1098.70762,75.0039062 C1098.02077,75.0039062 1097.26523,75.0039062 1096.44102,75.0039062 C1095.75417,75.0039062 1095.06732,75.0039062 1094.38047,75.0039062 C1093.69362,75.0039062 1093.00677,75.0039062 1092.31992,75.0039062 C1091.4957,75.0039062 1090.74017,75.0039062 1090.05332,75.0039062 C1090.05332,75.0039062 1089.98464,75.0039062 1089.84727,75.0039062 C1089.84727,75.0039062 1089.77858,75.0039062 1089.64121,75.0039062 C1089.64121,74.8665365 1089.64121,74.7978516 1089.64121,74.7978516 C1089.50384,74.7978516 1089.43516,74.7978516 1089.43516,74.7978516 C1089.43516,74.6604818 1089.36647,74.5917969 1089.2291,74.5917969 C1089.2291,74.4544271 1089.2291,74.3857422 1089.2291,74.3857422 C1089.2291,74.3857422 1089.2291,74.3170573 1089.2291,74.1796875 C1089.2291,74.1796875 1089.2291,74.1796875 1089.2291,74.1796875 C1089.2291,74.0423177 1089.2291,73.9736328 1089.2291,73.9736328 C1089.2291,73.9736328 1089.2291,73.9736328 1089.2291,73.9736328 C1089.2291,73.9736328 1089.2291,73.836263 1089.2291,73.5615234 C1089.36647,73.4241536 1089.43516,73.1494141 1089.43516,72.7373047 C1089.57253,72.3251953 1089.7099,71.9130859 1089.84727,71.5009766 C1090.12201,70.9514974 1090.39674,70.4020182 1090.67148,69.8525391 C1090.94622,69.5777995 1091.15228,69.3030599 1091.28965,69.0283203 C1091.56439,68.7535807 1091.83913,68.4788411 1092.11387,68.2041016 C1092.38861,67.929362 1092.66335,67.6546224 1092.93809,67.3798828 C1093.21283,67.242513 1093.55625,67.0364583 1093.96836,66.7617188 Z M1093.3502,129.196289 C1093.3502,129.058919 1093.3502,128.921549 1093.3502,128.78418 C1093.48757,128.64681 1093.55625,128.578125 1093.55625,128.578125 C1093.69362,128.440755 1093.7623,128.37207 1093.7623,128.37207 C1093.89967,128.37207 1094.03704,128.37207 1094.17441,128.37207 C1094.58652,128.37207 1094.92995,128.37207 1095.20469,128.37207 C1095.6168,128.50944 1095.96022,128.578125 1096.23496,128.578125 C1096.5097,128.715495 1096.71576,128.852865 1096.85313,128.990234 C1096.99049,128.990234 1097.19655,129.058919 1097.47129,129.196289 C1096.92181,129.471029 1096.44102,129.677083 1096.02891,129.814453 C1095.47943,129.951823 1094.86126,130.020508 1094.17441,130.020508 C1094.17441,130.020508 1094.10573,130.020508 1093.96836,130.020508 C1093.83099,130.020508 1093.69362,129.951823 1093.55625,129.814453 C1093.55625,129.677083 1093.48757,129.608398 1093.3502,129.608398 C1093.3502,129.471029 1093.3502,129.333659 1093.3502,129.196289 Z M1097.47129,129.196289 C1097.19655,129.058919 1096.99049,128.990234 1096.85313,128.990234 C1096.71576,128.852865 1096.5097,128.715495 1096.23496,128.578125 C1095.96022,128.578125 1095.6168,128.50944 1095.20469,128.37207 C1094.92995,128.37207 1094.58652,128.37207 1094.17441,128.37207 C1094.17441,128.37207 1094.17441,128.37207 1094.17441,128.37207 C1094.17441,128.37207 1094.17441,128.37207 1094.17441,128.37207 C1094.72389,128.37207 1095.20469,128.303385 1095.6168,128.166016 C1096.02891,128.028646 1096.37233,127.822591 1096.64707,127.547852 C1097.05918,127.273112 1097.33392,126.998372 1097.47129,126.723633 C1097.60866,126.448893 1097.67734,126.105469 1097.67734,125.693359 C1097.67734,125.41862 1097.67734,125.212565 1097.67734,125.075195 C1097.53997,124.937826 1097.47129,124.800456 1097.47129,124.663086 C1097.33392,124.525716 1097.26523,124.388346 1097.26523,124.250977 C1097.12786,124.113607 1097.05918,124.044922 1097.05918,124.044922 C1096.92181,123.907552 1096.78444,123.770182 1096.64707,123.632812 C1096.37233,123.495443 1096.16628,123.426758 1096.02891,123.426758 C1095.89154,123.289388 1095.75417,123.220703 1095.6168,123.220703 C1095.34206,123.083333 1095.136,123.014648 1094.99863,123.014648 C1094.72389,123.014648 1094.44915,123.083333 1094.17441,123.220703 C1093.89967,123.220703 1093.62493,123.289388 1093.3502,123.426758 C1093.07546,123.564128 1092.8694,123.701497 1092.73203,123.838867 C1092.45729,123.976237 1092.25124,124.113607 1092.11387,124.250977 C1091.9765,124.388346 1091.90781,124.457031 1091.90781,124.457031 C1091.77044,124.457031 1091.63307,124.457031 1091.4957,124.457031 C1091.35833,124.457031 1091.22096,124.457031 1091.08359,124.457031 C1091.08359,124.457031 1091.01491,124.388346 1090.87754,124.250977 C1090.74017,124.250977 1090.67148,124.182292 1090.67148,124.044922 C1090.53411,123.907552 1090.46543,123.770182 1090.46543,123.632812 C1090.46543,123.632812 1090.53411,123.564128 1090.67148,123.426758 C1090.67148,123.289388 1090.67148,123.152018 1090.67148,123.014648 C1090.94622,122.739909 1091.28965,122.533854 1091.70176,122.396484 C1091.9765,122.121745 1092.25124,121.91569 1092.52598,121.77832 C1092.93809,121.640951 1093.3502,121.503581 1093.7623,121.366211 C1094.17441,121.366211 1094.58652,121.366211 1094.99863,121.366211 C1095.27337,121.366211 1095.54811,121.366211 1095.82285,121.366211 C1096.23496,121.503581 1096.57839,121.640951 1096.85313,121.77832 C1097.12786,121.77832 1097.4026,121.91569 1097.67734,122.19043 C1097.81471,122.327799 1098.02077,122.465169 1098.29551,122.602539 C1098.43288,122.877279 1098.57025,123.152018 1098.70762,123.426758 C1098.98236,123.564128 1099.11973,123.770182 1099.11973,124.044922 C1099.2571,124.319661 1099.32578,124.594401 1099.32578,124.869141 C1099.46315,125.14388 1099.53184,125.41862 1099.53184,125.693359 C1099.53184,125.693359 1099.53184,125.693359 1099.53184,125.693359 C1099.53184,125.693359 1099.53184,125.693359 1099.53184,125.693359 C1099.53184,126.380208 1099.39447,126.929688 1099.11973,127.341797 C1098.84499,127.891276 1098.43288,128.37207 1097.8834,128.78418 C1097.8834,128.921549 1097.81471,128.990234 1097.67734,128.990234 C1097.53997,129.127604 1097.47129,129.196289 1097.47129,129.196289 Z M1099.53184,133.317383 C1099.53184,134.141602 1099.39447,134.828451 1099.11973,135.37793 C1098.84499,135.927409 1098.43288,136.476888 1097.8834,137.026367 C1097.33392,137.438477 1096.71576,137.781901 1096.02891,138.056641 C1095.47943,138.33138 1094.79258,138.46875 1093.96836,138.46875 C1093.41888,138.46875 1092.93809,138.400065 1092.52598,138.262695 C1092.11387,138.125326 1091.70176,137.919271 1091.28965,137.644531 C1090.87754,137.507161 1090.46543,137.301107 1090.05332,137.026367 C1089.77858,136.614258 1089.50384,136.270833 1089.2291,135.996094 C1089.2291,135.858724 1089.2291,135.721354 1089.2291,135.583984 C1089.09173,135.583984 1089.02305,135.515299 1089.02305,135.37793 C1089.02305,135.37793 1089.02305,135.37793 1089.02305,135.37793 C1089.02305,135.37793 1089.02305,135.309245 1089.02305,135.171875 C1089.16042,135.171875 1089.2291,135.10319 1089.2291,134.96582 C1089.36647,134.828451 1089.43516,134.759766 1089.43516,134.759766 C1089.57253,134.622396 1089.7099,134.553711 1089.84727,134.553711 C1089.98464,134.553711 1090.12201,134.553711 1090.25938,134.553711 C1090.25938,134.553711 1090.32806,134.622396 1090.46543,134.759766 C1090.6028,134.759766 1090.67148,134.828451 1090.67148,134.96582 C1090.94622,135.24056 1091.15228,135.446615 1091.28965,135.583984 C1091.56439,135.858724 1091.83913,136.064779 1092.11387,136.202148 C1092.38861,136.339518 1092.66335,136.476888 1092.93809,136.614258 C1093.21283,136.614258 1093.55625,136.614258 1093.96836,136.614258 C1094.38047,136.614258 1094.79258,136.545573 1095.20469,136.408203 C1095.6168,136.270833 1096.02891,136.064779 1096.44102,135.790039 C1096.85313,135.515299 1097.12786,135.171875 1097.26523,134.759766 C1097.53997,134.347656 1097.67734,133.866862 1097.67734,133.317383 C1097.67734,133.042643 1097.67734,132.836589 1097.67734,132.699219 C1097.67734,132.424479 1097.60866,132.218424 1097.47129,132.081055 C1097.47129,131.806315 1097.4026,131.60026 1097.26523,131.462891 C1097.12786,131.325521 1096.99049,131.188151 1096.85313,131.050781 C1096.71576,130.913411 1096.5097,130.776042 1096.23496,130.638672 C1096.09759,130.501302 1095.89154,130.432617 1095.6168,130.432617 C1095.34206,130.295247 1095.06732,130.226562 1094.79258,130.226562 C1094.51784,130.089193 1094.2431,130.020508 1093.96836,130.020508 C1093.83099,130.020508 1093.69362,130.020508 1093.55625,130.020508 C1093.41888,130.020508 1093.28151,129.951823 1093.14414,129.814453 C1093.14414,129.677083 1093.14414,129.608398 1093.14414,129.608398 C1093.00677,129.471029 1092.93809,129.333659 1092.93809,129.196289 C1092.93809,129.058919 1093.00677,128.921549 1093.14414,128.78418 C1093.14414,128.78418 1093.14414,128.715495 1093.14414,128.578125 C1093.28151,128.440755 1093.41888,128.37207 1093.55625,128.37207 C1093.69362,128.37207 1093.83099,128.37207 1093.96836,128.37207 C1093.96836,128.37207 1093.96836,128.37207 1093.96836,128.37207 C1093.96836,128.37207 1094.03704,128.37207 1094.17441,128.37207 C1094.03704,128.37207 1093.96836,128.37207 1093.96836,128.37207 C1093.83099,128.37207 1093.69362,128.440755 1093.55625,128.578125 C1093.55625,128.578125 1093.48757,128.64681 1093.3502,128.78418 C1093.3502,128.921549 1093.3502,129.058919 1093.3502,129.196289 C1093.3502,129.333659 1093.3502,129.471029 1093.3502,129.608398 C1093.48757,129.608398 1093.55625,129.677083 1093.55625,129.814453 C1093.69362,129.951823 1093.83099,130.020508 1093.96836,130.020508 C1093.96836,130.020508 1094.03704,130.020508 1094.17441,130.020508 C1094.86126,130.020508 1095.47943,129.951823 1096.02891,129.814453 C1096.44102,129.677083 1096.92181,129.471029 1097.47129,129.196289 C1097.60866,129.333659 1097.67734,129.402344 1097.67734,129.402344 C1097.81471,129.539714 1097.95208,129.677083 1098.08945,129.814453 C1098.36419,130.089193 1098.57025,130.363932 1098.70762,130.638672 C1098.84499,130.776042 1098.98236,131.050781 1099.11973,131.462891 C1099.2571,131.73763 1099.32578,132.01237 1099.32578,132.287109 C1099.46315,132.699219 1099.53184,133.042643 1099.53184,133.317383 Z" transform="translate(-1050.5 -23.734)"/></svg>