<svg xmlns="http://www.w3.org/2000/svg" width="120" height="203" viewBox="0 0 120 203"><path fill="#131313" d="M1143.25254,75.7978516 C1130.33978,75.7978516 1110.90195,75.7978516 1084.93906,75.7978516 C1084.93906,86.6500651 1084.93906,102.928385 1084.93906,124.632813 C1097.30234,124.632813 1115.84727,124.632813 1140.57383,124.632813 C1142.63438,124.632813 1144.3515,125.319661 1145.7252,126.693359 C1147.23626,128.204427 1147.9918,129.990234 1147.9918,132.050781 C1147.9918,134.111328 1147.23626,135.897135 1145.7252,137.408203 C1144.3515,138.781901 1142.63438,139.46875 1140.57383,139.46875 C1128.21055,139.46875 1109.66563,139.46875 1084.93906,139.46875 C1084.93906,151.969401 1084.93906,170.720378 1084.93906,195.72168 C1084.93906,197.782227 1084.25221,199.568034 1082.87852,201.079102 C1081.36745,202.452799 1079.58164,203.139648 1077.52109,203.139648 C1075.46055,203.139648 1073.67474,202.452799 1072.16367,201.079102 C1070.78997,199.568034 1070.10313,197.782227 1070.10313,195.72168 C1070.10313,167.423503 1070.10313,124.976237 1070.10313,68.3798828 C1070.10313,66.3193359 1070.78997,64.5335286 1072.16367,63.0224609 C1073.67474,61.648763 1075.46055,60.9619141 1077.52109,60.9619141 C1092.08229,60.9619141 1113.99277,60.9619141 1143.25254,60.9619141 C1145.31309,60.9619141 1147.09889,61.648763 1148.60996,63.0224609 C1150.12103,64.5335286 1150.87656,66.3193359 1150.87656,68.3798828 C1150.87656,70.4404297 1150.12103,72.1575521 1148.60996,73.53125 C1147.09889,75.0423177 1145.31309,75.7978516 1143.25254,75.7978516 Z M1100.35605,149.15332 C1100.35605,149.29069 1100.35605,149.42806 1100.35605,149.56543 C1100.35605,149.840169 1100.35605,150.046224 1100.35605,150.183594 C1106.12559,150.183594 1114.84857,150.183594 1126.525,150.183594 C1126.525,149.634115 1126.525,148.947266 1126.525,148.123047 C1120.75547,148.123047 1112.03249,148.123047 1100.35605,148.123047 C1100.35605,148.260417 1100.35605,148.397786 1100.35605,148.535156 C1100.35605,148.672526 1100.35605,148.878581 1100.35605,149.15332 Z M1137.85801,149.15332 C1135.38535,149.840169 1131.60768,150.870443 1126.525,152.244141 C1126.525,151.694661 1126.525,151.007812 1126.525,150.183594 C1126.93711,150.183594 1127.62396,150.183594 1128.58555,150.183594 C1128.58555,149.634115 1128.58555,148.947266 1128.58555,148.123047 C1128.17344,148.123047 1127.48659,148.123047 1126.525,148.123047 C1126.525,147.573568 1126.525,146.886719 1126.525,146.0625 C1128.99766,146.749349 1132.77533,147.779622 1137.85801,149.15332 Z M1126.525,150.183594 C1126.93711,150.183594 1127.62396,150.183594 1128.58555,150.183594 C1128.58555,149.634115 1128.58555,148.947266 1128.58555,148.123047 C1128.17344,148.123047 1127.48659,148.123047 1126.525,148.123047 C1126.525,148.535156 1126.525,149.222005 1126.525,150.183594 Z M1091.90781,149.15332 C1091.90781,148.054362 1092.31992,147.092773 1093.14414,146.268555 C1093.83099,145.444336 1094.72389,145.032227 1095.82285,145.032227 C1096.78444,145.032227 1097.60866,145.375651 1098.29551,146.0625 C1098.98236,146.611979 1099.46315,147.298828 1099.73789,148.123047 C1099.87526,148.123047 1100.08132,148.123047 1100.35605,148.123047 C1100.08132,147.024089 1099.53184,146.19987 1098.70762,145.650391 C1097.8834,144.963542 1096.92181,144.620117 1095.82285,144.620117 C1094.58652,144.620117 1093.55625,145.032227 1092.73203,145.856445 C1091.90781,146.818034 1091.4957,147.916992 1091.4957,149.15332 C1091.4957,150.389648 1091.90781,151.419922 1092.73203,152.244141 C1093.55625,153.205729 1094.58652,153.686523 1095.82285,153.686523 C1096.92181,153.686523 1097.8834,153.343099 1098.70762,152.65625 C1099.53184,151.969401 1100.08132,151.145182 1100.35605,150.183594 C1100.21868,150.183594 1100.01263,150.183594 1099.73789,150.183594 C1099.46315,151.007812 1098.98236,151.694661 1098.29551,152.244141 C1097.60866,152.79362 1096.78444,153.068359 1095.82285,153.068359 C1094.72389,153.068359 1093.83099,152.65625 1093.14414,151.832031 C1092.31992,151.145182 1091.90781,150.252279 1091.90781,149.15332 Z M1099.73789,148.123047 C1099.73789,148.260417 1099.80658,148.397786 1099.94395,148.535156 C1099.94395,148.672526 1099.94395,148.878581 1099.94395,149.15332 C1099.94395,149.29069 1099.94395,149.42806 1099.94395,149.56543 C1099.80658,149.840169 1099.73789,150.046224 1099.73789,150.183594 C1099.87526,150.183594 1100.08132,150.183594 1100.35605,150.183594 C1100.35605,150.046224 1100.35605,149.840169 1100.35605,149.56543 C1100.35605,149.42806 1100.35605,149.29069 1100.35605,149.15332 C1100.35605,148.878581 1100.35605,148.672526 1100.35605,148.535156 C1100.35605,148.397786 1100.35605,148.260417 1100.35605,148.123047 C1100.21868,148.123047 1100.08132,148.123047 1099.94395,148.123047 C1099.94395,148.123047 1099.87526,148.123047 1099.73789,148.123047 Z M1091.90781,149.15332 C1091.90781,150.252279 1092.31992,151.145182 1093.14414,151.832031 C1093.83099,152.65625 1094.72389,153.068359 1095.82285,153.068359 C1096.78444,153.068359 1097.60866,152.79362 1098.29551,152.244141 C1098.98236,151.694661 1099.46315,151.007812 1099.73789,150.183594 C1099.60052,150.183594 1099.39447,150.183594 1099.11973,150.183594 C1098.98236,150.870443 1098.57025,151.419922 1097.8834,151.832031 C1097.33392,152.244141 1096.64707,152.450195 1095.82285,152.450195 C1096.09759,152.450195 1096.23496,152.450195 1096.23496,152.450195 C1096.37233,152.450195 1096.44102,152.450195 1096.44102,152.450195 C1096.44102,152.450195 1096.37233,152.450195 1096.23496,152.450195 C1096.23496,152.450195 1096.09759,152.450195 1095.82285,152.450195 C1095.68548,152.450195 1095.6168,152.450195 1095.6168,152.450195 C1095.47943,152.450195 1095.41074,152.450195 1095.41074,152.450195 C1095.41074,152.450195 1095.47943,152.450195 1095.6168,152.450195 C1095.6168,152.450195 1095.68548,152.450195 1095.82285,152.450195 C1094.99863,152.450195 1094.2431,152.175456 1093.55625,151.625977 C1092.8694,150.939128 1092.52598,150.114909 1092.52598,149.15332 C1092.52598,148.191732 1092.8694,147.367513 1093.55625,146.680664 C1094.2431,145.993815 1094.99863,145.650391 1095.82285,145.650391 C1096.64707,145.650391 1097.33392,145.856445 1097.8834,146.268555 C1098.57025,146.818034 1098.98236,147.436198 1099.11973,148.123047 C1099.2571,148.123047 1099.46315,148.123047 1099.73789,148.123047 C1099.46315,147.298828 1098.98236,146.611979 1098.29551,146.0625 C1097.60866,145.375651 1096.78444,145.032227 1095.82285,145.032227 C1094.72389,145.032227 1093.83099,145.444336 1093.14414,146.268555 C1092.31992,147.092773 1091.90781,148.054362 1091.90781,149.15332 Z M1099.11973,150.183594 C1099.2571,150.183594 1099.46315,150.183594 1099.73789,150.183594 C1099.73789,150.046224 1099.73789,149.840169 1099.73789,149.56543 C1099.87526,149.42806 1099.94395,149.29069 1099.94395,149.15332 C1099.94395,148.878581 1099.87526,148.672526 1099.73789,148.535156 C1099.73789,148.397786 1099.73789,148.260417 1099.73789,148.123047 C1099.60052,148.123047 1099.39447,148.123047 1099.11973,148.123047 C1099.2571,148.260417 1099.32578,148.397786 1099.32578,148.535156 C1099.32578,148.672526 1099.32578,148.878581 1099.32578,149.15332 C1099.32578,149.29069 1099.32578,149.42806 1099.32578,149.56543 C1099.32578,149.840169 1099.2571,150.046224 1099.11973,150.183594 Z M1100.35605,85.4824219 C1100.35605,85.6197917 1100.35605,85.7571615 1100.35605,85.8945312 C1100.35605,86.031901 1100.35605,86.2379557 1100.35605,86.5126953 C1106.81243,86.5126953 1116.49701,86.5126953 1129.40977,86.5126953 C1129.40977,85.9632161 1129.40977,85.2076823 1129.40977,84.2460938 C1122.95339,84.2460938 1113.26882,84.2460938 1100.35605,84.2460938 C1100.35605,84.5208333 1100.35605,84.726888 1100.35605,84.8642578 C1100.35605,85.0016276 1100.35605,85.2076823 1100.35605,85.4824219 Z M1129.40977,84.2460938 C1129.40977,83.8339844 1129.40977,83.2158203 1129.40977,82.3916016 C1131.88242,83.0784505 1135.66009,84.108724 1140.74277,85.4824219 C1138.27012,86.1692708 1134.49245,87.1308594 1129.40977,88.3671875 C1129.40977,87.9550781 1129.40977,87.3369141 1129.40977,86.5126953 C1129.82188,86.5126953 1130.50872,86.5126953 1131.47031,86.5126953 C1131.47031,85.9632161 1131.47031,85.2076823 1131.47031,84.2460938 C1130.92083,84.2460938 1130.23398,84.2460938 1129.40977,84.2460938 Z M1129.40977,86.5126953 C1129.82188,86.5126953 1130.50872,86.5126953 1131.47031,86.5126953 C1131.47031,85.9632161 1131.47031,85.2076823 1131.47031,84.2460938 C1130.92083,84.2460938 1130.23398,84.2460938 1129.40977,84.2460938 C1129.40977,84.7955729 1129.40977,85.5511068 1129.40977,86.5126953 Z M1091.90781,85.4824219 C1091.90781,84.3834635 1092.31992,83.421875 1093.14414,82.5976562 C1093.83099,81.7734375 1094.72389,81.3613281 1095.82285,81.3613281 C1096.78444,81.3613281 1097.60866,81.6360677 1098.29551,82.1855469 C1098.98236,82.735026 1099.46315,83.421875 1099.73789,84.2460938 C1099.87526,84.2460938 1100.08132,84.2460938 1100.35605,84.2460938 C1100.08132,83.2845052 1099.53184,82.5289714 1098.70762,81.9794922 C1097.8834,81.2926432 1096.92181,80.9492188 1095.82285,80.9492188 C1094.58652,80.9492188 1093.55625,81.3613281 1092.73203,82.1855469 C1091.90781,83.1471354 1091.4957,84.2460938 1091.4957,85.4824219 C1091.4957,86.71875 1091.90781,87.7490234 1092.73203,88.5732422 C1093.55625,89.3974609 1094.58652,89.8095703 1095.82285,89.8095703 C1096.92181,89.8095703 1097.8834,89.5348307 1098.70762,88.9853516 C1099.53184,88.2985026 1100.08132,87.4742839 1100.35605,86.5126953 C1100.21868,86.5126953 1100.01263,86.5126953 1099.73789,86.5126953 C1099.46315,87.3369141 1098.98236,88.023763 1098.29551,88.5732422 C1097.60866,89.1227214 1096.78444,89.3974609 1095.82285,89.3974609 C1094.72389,89.3974609 1093.83099,88.9853516 1093.14414,88.1611328 C1092.31992,87.4742839 1091.90781,86.5813802 1091.90781,85.4824219 Z M1099.73789,84.2460938 C1099.73789,84.5208333 1099.80658,84.726888 1099.94395,84.8642578 C1099.94395,85.0016276 1099.94395,85.2076823 1099.94395,85.4824219 C1099.94395,85.6197917 1099.94395,85.7571615 1099.94395,85.8945312 C1099.80658,86.031901 1099.73789,86.2379557 1099.73789,86.5126953 C1099.87526,86.5126953 1100.08132,86.5126953 1100.35605,86.5126953 C1100.35605,86.2379557 1100.35605,86.031901 1100.35605,85.8945312 C1100.35605,85.7571615 1100.35605,85.6197917 1100.35605,85.4824219 C1100.35605,85.2076823 1100.35605,85.0016276 1100.35605,84.8642578 C1100.35605,84.726888 1100.35605,84.5208333 1100.35605,84.2460938 C1100.21868,84.2460938 1100.08132,84.2460938 1099.94395,84.2460938 C1099.94395,84.2460938 1099.87526,84.2460938 1099.73789,84.2460938 Z M1091.90781,85.4824219 C1091.90781,86.5813802 1092.31992,87.4742839 1093.14414,88.1611328 C1093.83099,88.9853516 1094.72389,89.3974609 1095.82285,89.3974609 C1096.78444,89.3974609 1097.60866,89.1227214 1098.29551,88.5732422 C1098.98236,88.023763 1099.46315,87.3369141 1099.73789,86.5126953 C1099.60052,86.5126953 1099.39447,86.5126953 1099.11973,86.5126953 C1098.98236,87.1995443 1098.57025,87.7490234 1097.8834,88.1611328 C1097.33392,88.5732422 1096.64707,88.7792969 1095.82285,88.7792969 C1096.09759,88.7792969 1096.23496,88.7792969 1096.23496,88.7792969 C1096.37233,88.7792969 1096.44102,88.7792969 1096.44102,88.7792969 C1096.44102,88.7792969 1096.37233,88.7792969 1096.23496,88.7792969 C1096.23496,88.7792969 1096.09759,88.7792969 1095.82285,88.7792969 C1095.68548,88.7792969 1095.6168,88.7792969 1095.6168,88.7792969 C1095.47943,88.7792969 1095.41074,88.7792969 1095.41074,88.7792969 C1095.41074,88.7792969 1095.47943,88.7792969 1095.6168,88.7792969 C1095.6168,88.7792969 1095.68548,88.7792969 1095.82285,88.7792969 C1094.99863,88.7792969 1094.2431,88.4358724 1093.55625,87.7490234 C1092.8694,87.1995443 1092.52598,86.4440104 1092.52598,85.4824219 C1092.52598,84.5208333 1092.8694,83.6966146 1093.55625,83.0097656 C1094.2431,82.3229167 1094.99863,81.9794922 1095.82285,81.9794922 C1096.64707,81.9794922 1097.33392,82.1855469 1097.8834,82.5976562 C1098.57025,83.0097656 1098.98236,83.5592448 1099.11973,84.2460938 C1099.2571,84.2460938 1099.46315,84.2460938 1099.73789,84.2460938 C1099.46315,83.421875 1098.98236,82.735026 1098.29551,82.1855469 C1097.60866,81.6360677 1096.78444,81.3613281 1095.82285,81.3613281 C1094.72389,81.3613281 1093.83099,81.7734375 1093.14414,82.5976562 C1092.31992,83.421875 1091.90781,84.3834635 1091.90781,85.4824219 Z M1099.11973,86.5126953 C1099.2571,86.5126953 1099.46315,86.5126953 1099.73789,86.5126953 C1099.73789,86.2379557 1099.73789,86.031901 1099.73789,85.8945312 C1099.87526,85.7571615 1099.94395,85.6197917 1099.94395,85.4824219 C1099.94395,85.2076823 1099.87526,85.0016276 1099.73789,84.8642578 C1099.73789,84.726888 1099.73789,84.5208333 1099.73789,84.2460938 C1099.60052,84.2460938 1099.39447,84.2460938 1099.11973,84.2460938 C1099.2571,84.5208333 1099.32578,84.726888 1099.32578,84.8642578 C1099.32578,85.0016276 1099.32578,85.2076823 1099.32578,85.4824219 C1099.32578,85.6197917 1099.32578,85.7571615 1099.32578,85.8945312 C1099.32578,86.031901 1099.2571,86.2379557 1099.11973,86.5126953 Z M1057.49668,77.8583984 C1057.63405,77.8583984 1057.77142,77.8583984 1057.90879,77.8583984 C1058.18353,77.8583984 1058.38958,77.8583984 1058.52695,77.8583984 C1058.66432,77.8583984 1058.87038,77.8583984 1059.14512,77.8583984 C1059.28249,77.8583984 1059.41986,77.8583984 1059.55723,77.8583984 C1059.55723,101.623372 1059.55723,137.339518 1059.55723,185.006836 C1059.14512,185.006836 1058.45827,185.006836 1057.49668,185.006836 C1057.49668,167.148763 1057.49668,149.29069 1057.49668,131.432617 C1057.49668,113.574544 1057.49668,95.7164714 1057.49668,77.8583984 Z M1057.49668,187.067383 C1057.49668,186.517904 1057.49668,185.831055 1057.49668,185.006836 C1057.08457,185.006836 1056.39772,185.006836 1055.43613,185.006836 C1056.12298,187.479492 1057.15326,191.257161 1058.52695,196.339844 C1059.2138,193.867188 1060.24408,190.089518 1061.61777,185.006836 C1061.20566,185.006836 1060.51882,185.006836 1059.55723,185.006836 C1059.55723,185.418945 1059.55723,186.105794 1059.55723,187.067383 C1059.14512,187.067383 1058.45827,187.067383 1057.49668,187.067383 Z M1057.49668,187.067383 C1057.90879,187.067383 1058.59564,187.067383 1059.55723,187.067383 C1059.55723,186.517904 1059.55723,185.831055 1059.55723,185.006836 C1059.14512,185.006836 1058.45827,185.006836 1057.49668,185.006836 C1057.49668,185.418945 1057.49668,186.105794 1057.49668,187.067383 Z M1057.49668,77.8583984 C1056.53509,77.5836589 1055.71087,77.0341797 1055.02402,76.2099609 C1054.33717,75.3857422 1053.99375,74.4928385 1053.99375,73.53125 C1053.99375,72.2949219 1054.47454,71.1959635 1055.43613,70.234375 C1056.26035,69.4101562 1057.29063,68.9980469 1058.52695,68.9980469 C1059.76328,68.9980469 1060.79355,69.4101562 1061.61777,70.234375 C1062.57936,71.1959635 1063.06016,72.2949219 1063.06016,73.53125 C1063.06016,74.4928385 1062.71673,75.3857422 1062.02988,76.2099609 C1061.34303,77.0341797 1060.51882,77.5836589 1059.55723,77.8583984 C1059.55723,77.7210286 1059.55723,77.514974 1059.55723,77.2402344 C1060.38145,76.9654948 1061.06829,76.4847005 1061.61777,75.7978516 C1062.16725,75.1110026 1062.44199,74.3554688 1062.44199,73.53125 C1062.44199,72.4322917 1062.09857,71.4707031 1061.41172,70.6464844 C1060.5875,69.8222656 1059.62591,69.4101562 1058.52695,69.4101562 C1057.42799,69.4101562 1056.46641,69.8222656 1055.64219,70.6464844 C1054.95534,71.4707031 1054.61191,72.4322917 1054.61191,73.53125 C1054.61191,74.3554688 1054.88665,75.1110026 1055.43613,75.7978516 C1055.98561,76.4847005 1056.67246,76.9654948 1057.49668,77.2402344 C1057.49668,77.3776042 1057.49668,77.4462891 1057.49668,77.4462891 C1057.49668,77.5836589 1057.49668,77.7210286 1057.49668,77.8583984 Z M1058.52695,77.4462891 C1058.66432,77.4462891 1058.87038,77.4462891 1059.14512,77.4462891 C1059.28249,77.3089193 1059.41986,77.2402344 1059.55723,77.2402344 C1059.55723,77.3776042 1059.55723,77.5836589 1059.55723,77.8583984 C1059.41986,77.8583984 1059.28249,77.8583984 1059.14512,77.8583984 C1058.87038,77.8583984 1058.66432,77.8583984 1058.52695,77.8583984 C1058.38958,77.8583984 1058.18353,77.8583984 1057.90879,77.8583984 C1057.77142,77.8583984 1057.63405,77.8583984 1057.49668,77.8583984 C1057.49668,77.7210286 1057.49668,77.514974 1057.49668,77.2402344 C1057.63405,77.2402344 1057.77142,77.3089193 1057.90879,77.4462891 C1058.18353,77.4462891 1058.38958,77.4462891 1058.52695,77.4462891 Z M1055.02402,73.53125 C1055.02402,74.218099 1055.29876,74.836263 1055.84824,75.3857422 C1056.26035,76.0725911 1056.80983,76.4847005 1057.49668,76.6220703 C1057.49668,76.7594401 1057.49668,76.9654948 1057.49668,77.2402344 C1056.67246,76.9654948 1055.98561,76.4847005 1055.43613,75.7978516 C1054.88665,75.1110026 1054.61191,74.3554688 1054.61191,73.53125 C1054.61191,72.4322917 1054.95534,71.4707031 1055.64219,70.6464844 C1056.46641,69.8222656 1057.42799,69.4101562 1058.52695,69.4101562 C1059.62591,69.4101562 1060.5875,69.8222656 1061.41172,70.6464844 C1062.09857,71.4707031 1062.44199,72.4322917 1062.44199,73.53125 C1062.44199,74.3554688 1062.16725,75.1110026 1061.61777,75.7978516 C1061.06829,76.4847005 1060.38145,76.9654948 1059.55723,77.2402344 C1059.55723,77.1028646 1059.55723,76.8968099 1059.55723,76.6220703 C1060.24408,76.4847005 1060.79355,76.0725911 1061.20566,75.3857422 C1061.75514,74.836263 1062.02988,74.218099 1062.02988,73.53125 C1062.02988,72.5696615 1061.68646,71.7454427 1060.99961,71.0585938 C1060.31276,70.3717448 1059.48854,70.0283203 1058.52695,70.0283203 C1057.56536,70.0283203 1056.74115,70.3717448 1056.0543,71.0585938 C1055.36745,71.7454427 1055.02402,72.5696615 1055.02402,73.53125 C1055.02402,73.2565104 1055.02402,73.1191406 1055.02402,73.1191406 C1055.02402,72.9817708 1055.02402,72.9130859 1055.02402,72.9130859 C1055.02402,72.9130859 1055.02402,72.9817708 1055.02402,73.1191406 C1055.02402,73.2565104 1055.02402,73.3938802 1055.02402,73.53125 C1055.02402,73.6686198 1055.02402,73.8059896 1055.02402,73.9433594 C1055.02402,73.9433594 1055.02402,73.9433594 1055.02402,73.9433594 C1055.02402,73.9433594 1055.02402,73.9433594 1055.02402,73.9433594 C1055.02402,73.8059896 1055.02402,73.6686198 1055.02402,73.53125 Z M1059.55723,77.2402344 C1059.41986,77.2402344 1059.28249,77.3089193 1059.14512,77.4462891 C1058.87038,77.4462891 1058.66432,77.4462891 1058.52695,77.4462891 C1058.38958,77.4462891 1058.18353,77.4462891 1057.90879,77.4462891 C1057.77142,77.3089193 1057.63405,77.2402344 1057.49668,77.2402344 C1057.49668,77.1028646 1057.49668,76.8968099 1057.49668,76.6220703 C1057.63405,76.7594401 1057.77142,76.828125 1057.90879,76.828125 C1058.18353,76.828125 1058.38958,76.828125 1058.52695,76.828125 C1058.66432,76.828125 1058.87038,76.828125 1059.14512,76.828125 C1059.28249,76.828125 1059.41986,76.7594401 1059.55723,76.6220703 C1059.55723,76.7594401 1059.55723,76.8968099 1059.55723,77.0341797 C1059.55723,77.0341797 1059.55723,77.1028646 1059.55723,77.2402344 Z M1047.4,65.9072266 C1047.53737,66.0445964 1047.60605,66.1132812 1047.60605,66.1132812 C1047.74342,66.1132812 1047.81211,66.1819661 1047.81211,66.3193359 C1047.81211,66.4567057 1047.81211,66.5253906 1047.81211,66.5253906 C1047.94948,66.6627604 1048.01816,66.7314453 1048.01816,66.7314453 C1048.01816,68.5172526 1048.01816,70.6464844 1048.01816,73.1191406 C1048.01816,75.7291667 1048.01816,78.7513021 1048.01816,82.1855469 C1048.01816,82.1855469 1047.94948,82.2542318 1047.81211,82.3916016 C1047.81211,82.5289714 1047.74342,82.6663411 1047.60605,82.8037109 C1047.60605,82.8037109 1047.53737,82.8723958 1047.4,83.0097656 C1047.26263,83.0097656 1047.12526,83.0097656 1046.98789,83.0097656 C1046.85052,83.0097656 1046.78184,83.0097656 1046.78184,83.0097656 C1046.64447,82.8723958 1046.5071,82.8037109 1046.36973,82.8037109 C1046.36973,82.6663411 1046.30104,82.5289714 1046.16367,82.3916016 C1046.16367,82.2542318 1046.16367,82.1855469 1046.16367,82.1855469 C1046.16367,80.6744792 1046.16367,78.819987 1046.16367,76.6220703 C1046.16367,74.4241536 1046.16367,71.8828125 1046.16367,68.9980469 C1046.0263,68.9980469 1045.95762,69.0667318 1045.95762,69.2041016 C1045.82025,69.3414714 1045.68288,69.4788411 1045.54551,69.6162109 C1045.40814,69.7535807 1045.33945,69.8222656 1045.33945,69.8222656 C1045.20208,69.8222656 1045.06471,69.8222656 1044.92734,69.8222656 C1044.78997,69.8222656 1044.6526,69.8222656 1044.51523,69.8222656 C1044.51523,69.8222656 1044.44655,69.7535807 1044.30918,69.6162109 C1044.17181,69.4788411 1044.10313,69.4101562 1044.10313,69.4101562 C1044.10313,69.2727865 1044.10313,69.1354167 1044.10313,68.9980469 C1044.10313,68.8606771 1044.10313,68.7233073 1044.10313,68.5859375 C1044.10313,68.4485677 1044.17181,68.3798828 1044.30918,68.3798828 C1044.58392,68.1051432 1044.85866,67.7617188 1045.1334,67.3496094 C1045.54551,67.0748698 1045.95762,66.6627604 1046.36973,66.1132812 C1046.5071,66.1132812 1046.57578,66.1132812 1046.57578,66.1132812 C1046.71315,65.9759115 1046.85052,65.9072266 1046.98789,65.9072266 C1046.98789,65.9072266 1046.98789,65.9072266 1046.98789,65.9072266 C1046.98789,65.9072266 1046.98789,65.9072266 1046.98789,65.9072266 C1047.12526,65.9072266 1047.19395,65.9072266 1047.19395,65.9072266 C1047.33132,65.9072266 1047.4,65.9072266 1047.4,65.9072266 Z M1093.96836,104.027344 C1094.79258,103.477865 1095.41074,102.99707 1095.82285,102.584961 C1096.37233,102.172852 1096.71576,101.829427 1096.85313,101.554688 C1097.12786,101.142578 1097.33392,100.799154 1097.47129,100.524414 C1097.47129,100.249674 1097.47129,99.9749349 1097.47129,99.7001953 C1097.47129,99.5628255 1097.47129,99.4254557 1097.47129,99.2880859 C1097.47129,99.2880859 1097.47129,99.219401 1097.47129,99.0820312 C1097.47129,98.9446615 1097.47129,98.8072917 1097.47129,98.6699219 C1097.47129,98.6699219 1097.4026,98.601237 1097.26523,98.4638672 C1097.26523,98.1891276 1097.12786,97.9830729 1096.85313,97.8457031 C1096.71576,97.7083333 1096.57839,97.5709635 1096.44102,97.4335938 C1096.16628,97.296224 1095.89154,97.1588542 1095.6168,97.0214844 C1095.20469,97.0214844 1094.79258,97.0214844 1094.38047,97.0214844 C1094.10573,97.0214844 1093.7623,97.0214844 1093.3502,97.0214844 C1093.07546,97.1588542 1092.8694,97.296224 1092.73203,97.4335938 C1092.45729,97.5709635 1092.25124,97.7770182 1092.11387,98.0517578 C1091.83913,98.1891276 1091.63307,98.3951823 1091.4957,98.6699219 C1091.4957,98.8072917 1091.42702,98.9446615 1091.28965,99.0820312 C1091.28965,99.0820312 1091.22096,99.0820312 1091.08359,99.0820312 C1090.94622,99.219401 1090.80885,99.2880859 1090.67148,99.2880859 C1090.53411,99.2880859 1090.39674,99.219401 1090.25938,99.0820312 C1090.25938,99.0820312 1090.19069,99.0133464 1090.05332,98.8759766 C1089.91595,98.8759766 1089.84727,98.8072917 1089.84727,98.6699219 C1089.84727,98.5325521 1089.84727,98.3951823 1089.84727,98.2578125 C1089.84727,98.1204427 1089.84727,98.0517578 1089.84727,98.0517578 C1090.12201,97.5022786 1090.39674,97.0901693 1090.67148,96.8154297 C1090.94622,96.4033203 1091.28965,96.1285807 1091.70176,95.9912109 C1092.11387,95.7164714 1092.52598,95.5104167 1092.93809,95.3730469 C1093.3502,95.2356771 1093.83099,95.1669922 1094.38047,95.1669922 C1095.34206,95.1669922 1096.09759,95.304362 1096.64707,95.5791016 C1097.33392,95.8538411 1097.8834,96.1972656 1098.29551,96.609375 C1098.57025,97.1588542 1098.84499,97.6396484 1099.11973,98.0517578 C1099.2571,98.601237 1099.32578,99.1507161 1099.32578,99.7001953 C1099.32578,100.249674 1099.2571,100.730469 1099.11973,101.142578 C1098.98236,101.692057 1098.70762,102.241536 1098.29551,102.791016 C1098.02077,103.203125 1097.53997,103.615234 1096.85313,104.027344 C1096.30365,104.576823 1095.68548,105.057617 1094.99863,105.469727 C1094.31178,105.881836 1093.7623,106.293945 1093.3502,106.706055 C1092.93809,107.118164 1092.59466,107.598958 1092.31992,108.148438 C1092.04518,108.560547 1091.77044,108.972656 1091.4957,109.384766 C1091.35833,109.796875 1091.22096,110.140299 1091.08359,110.415039 C1091.90781,110.415039 1093.00677,110.415039 1094.38047,110.415039 C1095.6168,110.415039 1097.05918,110.415039 1098.70762,110.415039 C1098.84499,110.415039 1098.91367,110.483724 1098.91367,110.621094 C1099.05104,110.621094 1099.18841,110.689779 1099.32578,110.827148 C1099.46315,110.827148 1099.53184,110.895833 1099.53184,111.033203 C1099.53184,111.170573 1099.53184,111.307943 1099.53184,111.445312 C1099.53184,111.445312 1099.53184,111.513997 1099.53184,111.651367 C1099.53184,111.788737 1099.46315,111.926107 1099.32578,112.063477 C1099.18841,112.063477 1099.11973,112.132161 1099.11973,112.269531 C1098.98236,112.269531 1098.84499,112.269531 1098.70762,112.269531 C1098.02077,112.269531 1097.26523,112.269531 1096.44102,112.269531 C1095.75417,112.269531 1095.06732,112.269531 1094.38047,112.269531 C1093.69362,112.269531 1093.00677,112.269531 1092.31992,112.269531 C1091.4957,112.269531 1090.74017,112.269531 1090.05332,112.269531 C1090.05332,112.269531 1089.98464,112.269531 1089.84727,112.269531 C1089.84727,112.269531 1089.77858,112.269531 1089.64121,112.269531 C1089.64121,112.132161 1089.64121,112.063477 1089.64121,112.063477 C1089.50384,112.063477 1089.43516,112.063477 1089.43516,112.063477 C1089.43516,111.926107 1089.36647,111.857422 1089.2291,111.857422 C1089.2291,111.720052 1089.2291,111.651367 1089.2291,111.651367 C1089.2291,111.651367 1089.2291,111.582682 1089.2291,111.445312 C1089.2291,111.445312 1089.2291,111.445312 1089.2291,111.445312 C1089.2291,111.307943 1089.2291,111.239258 1089.2291,111.239258 C1089.2291,111.239258 1089.2291,111.239258 1089.2291,111.239258 C1089.2291,111.239258 1089.2291,111.101888 1089.2291,110.827148 C1089.36647,110.689779 1089.43516,110.415039 1089.43516,110.00293 C1089.57253,109.59082 1089.7099,109.178711 1089.84727,108.766602 C1090.12201,108.217122 1090.39674,107.667643 1090.67148,107.118164 C1090.94622,106.843424 1091.15228,106.568685 1091.28965,106.293945 C1091.56439,106.019206 1091.83913,105.744466 1092.11387,105.469727 C1092.38861,105.194987 1092.66335,104.920247 1092.93809,104.645508 C1093.21283,104.508138 1093.55625,104.302083 1093.96836,104.027344 Z M1093.3502,166.461914 C1093.3502,166.324544 1093.3502,166.187174 1093.3502,166.049805 C1093.48757,165.912435 1093.55625,165.84375 1093.55625,165.84375 C1093.69362,165.70638 1093.7623,165.637695 1093.7623,165.637695 C1093.89967,165.637695 1094.03704,165.637695 1094.17441,165.637695 C1094.58652,165.637695 1094.92995,165.637695 1095.20469,165.637695 C1095.6168,165.775065 1095.96022,165.84375 1096.23496,165.84375 C1096.5097,165.98112 1096.71576,166.11849 1096.85313,166.255859 C1096.99049,166.255859 1097.19655,166.324544 1097.47129,166.461914 C1096.92181,166.736654 1096.44102,166.942708 1096.02891,167.080078 C1095.47943,167.217448 1094.86126,167.286133 1094.17441,167.286133 C1094.17441,167.286133 1094.10573,167.286133 1093.96836,167.286133 C1093.83099,167.286133 1093.69362,167.217448 1093.55625,167.080078 C1093.55625,166.942708 1093.48757,166.874023 1093.3502,166.874023 C1093.3502,166.736654 1093.3502,166.599284 1093.3502,166.461914 Z M1097.47129,166.461914 C1097.19655,166.324544 1096.99049,166.255859 1096.85313,166.255859 C1096.71576,166.11849 1096.5097,165.98112 1096.23496,165.84375 C1095.96022,165.84375 1095.6168,165.775065 1095.20469,165.637695 C1094.92995,165.637695 1094.58652,165.637695 1094.17441,165.637695 C1094.17441,165.637695 1094.17441,165.637695 1094.17441,165.637695 C1094.17441,165.637695 1094.17441,165.637695 1094.17441,165.637695 C1094.72389,165.637695 1095.20469,165.56901 1095.6168,165.431641 C1096.02891,165.294271 1096.37233,165.088216 1096.64707,164.813477 C1097.05918,164.538737 1097.33392,164.263997 1097.47129,163.989258 C1097.60866,163.714518 1097.67734,163.371094 1097.67734,162.958984 C1097.67734,162.684245 1097.67734,162.47819 1097.67734,162.34082 C1097.53997,162.203451 1097.47129,162.066081 1097.47129,161.928711 C1097.33392,161.791341 1097.26523,161.653971 1097.26523,161.516602 C1097.12786,161.379232 1097.05918,161.310547 1097.05918,161.310547 C1096.92181,161.173177 1096.78444,161.035807 1096.64707,160.898438 C1096.37233,160.761068 1096.16628,160.692383 1096.02891,160.692383 C1095.89154,160.555013 1095.75417,160.486328 1095.6168,160.486328 C1095.34206,160.348958 1095.136,160.280273 1094.99863,160.280273 C1094.72389,160.280273 1094.44915,160.348958 1094.17441,160.486328 C1093.89967,160.486328 1093.62493,160.555013 1093.3502,160.692383 C1093.07546,160.829753 1092.8694,160.967122 1092.73203,161.104492 C1092.45729,161.241862 1092.25124,161.379232 1092.11387,161.516602 C1091.9765,161.653971 1091.90781,161.722656 1091.90781,161.722656 C1091.77044,161.722656 1091.63307,161.722656 1091.4957,161.722656 C1091.35833,161.722656 1091.22096,161.722656 1091.08359,161.722656 C1091.08359,161.722656 1091.01491,161.653971 1090.87754,161.516602 C1090.74017,161.516602 1090.67148,161.447917 1090.67148,161.310547 C1090.53411,161.173177 1090.46543,161.035807 1090.46543,160.898438 C1090.46543,160.898438 1090.53411,160.829753 1090.67148,160.692383 C1090.67148,160.555013 1090.67148,160.417643 1090.67148,160.280273 C1090.94622,160.005534 1091.28965,159.799479 1091.70176,159.662109 C1091.9765,159.38737 1092.25124,159.181315 1092.52598,159.043945 C1092.93809,158.906576 1093.3502,158.769206 1093.7623,158.631836 C1094.17441,158.631836 1094.58652,158.631836 1094.99863,158.631836 C1095.27337,158.631836 1095.54811,158.631836 1095.82285,158.631836 C1096.23496,158.769206 1096.57839,158.906576 1096.85313,159.043945 C1097.12786,159.043945 1097.4026,159.181315 1097.67734,159.456055 C1097.81471,159.593424 1098.02077,159.730794 1098.29551,159.868164 C1098.43288,160.142904 1098.57025,160.417643 1098.70762,160.692383 C1098.98236,160.829753 1099.11973,161.035807 1099.11973,161.310547 C1099.2571,161.585286 1099.32578,161.860026 1099.32578,162.134766 C1099.46315,162.409505 1099.53184,162.684245 1099.53184,162.958984 C1099.53184,162.958984 1099.53184,162.958984 1099.53184,162.958984 C1099.53184,162.958984 1099.53184,162.958984 1099.53184,162.958984 C1099.53184,163.645833 1099.39447,164.195312 1099.11973,164.607422 C1098.84499,165.156901 1098.43288,165.637695 1097.8834,166.049805 C1097.8834,166.187174 1097.81471,166.255859 1097.67734,166.255859 C1097.53997,166.393229 1097.47129,166.461914 1097.47129,166.461914 Z M1099.53184,170.583008 C1099.53184,171.407227 1099.39447,172.094076 1099.11973,172.643555 C1098.84499,173.193034 1098.43288,173.742513 1097.8834,174.291992 C1097.33392,174.704102 1096.71576,175.047526 1096.02891,175.322266 C1095.47943,175.597005 1094.79258,175.734375 1093.96836,175.734375 C1093.41888,175.734375 1092.93809,175.66569 1092.52598,175.52832 C1092.11387,175.390951 1091.70176,175.184896 1091.28965,174.910156 C1090.87754,174.772786 1090.46543,174.566732 1090.05332,174.291992 C1089.77858,173.879883 1089.50384,173.536458 1089.2291,173.261719 C1089.2291,173.124349 1089.2291,172.986979 1089.2291,172.849609 C1089.09173,172.849609 1089.02305,172.780924 1089.02305,172.643555 C1089.02305,172.643555 1089.02305,172.643555 1089.02305,172.643555 C1089.02305,172.643555 1089.02305,172.57487 1089.02305,172.4375 C1089.16042,172.4375 1089.2291,172.368815 1089.2291,172.231445 C1089.36647,172.094076 1089.43516,172.025391 1089.43516,172.025391 C1089.57253,171.888021 1089.7099,171.819336 1089.84727,171.819336 C1089.98464,171.819336 1090.12201,171.819336 1090.25938,171.819336 C1090.25938,171.819336 1090.32806,171.888021 1090.46543,172.025391 C1090.6028,172.025391 1090.67148,172.094076 1090.67148,172.231445 C1090.94622,172.506185 1091.15228,172.71224 1091.28965,172.849609 C1091.56439,173.124349 1091.83913,173.330404 1092.11387,173.467773 C1092.38861,173.605143 1092.66335,173.742513 1092.93809,173.879883 C1093.21283,173.879883 1093.55625,173.879883 1093.96836,173.879883 C1094.38047,173.879883 1094.79258,173.811198 1095.20469,173.673828 C1095.6168,173.536458 1096.02891,173.330404 1096.44102,173.055664 C1096.85313,172.780924 1097.12786,172.4375 1097.26523,172.025391 C1097.53997,171.613281 1097.67734,171.132487 1097.67734,170.583008 C1097.67734,170.308268 1097.67734,170.102214 1097.67734,169.964844 C1097.67734,169.690104 1097.60866,169.484049 1097.47129,169.34668 C1097.47129,169.07194 1097.4026,168.865885 1097.26523,168.728516 C1097.12786,168.591146 1096.99049,168.453776 1096.85313,168.316406 C1096.71576,168.179036 1096.5097,168.041667 1096.23496,167.904297 C1096.09759,167.766927 1095.89154,167.698242 1095.6168,167.698242 C1095.34206,167.560872 1095.06732,167.492188 1094.79258,167.492188 C1094.51784,167.354818 1094.2431,167.286133 1093.96836,167.286133 C1093.83099,167.286133 1093.69362,167.286133 1093.55625,167.286133 C1093.41888,167.286133 1093.28151,167.217448 1093.14414,167.080078 C1093.14414,166.942708 1093.14414,166.874023 1093.14414,166.874023 C1093.00677,166.736654 1092.93809,166.599284 1092.93809,166.461914 C1092.93809,166.324544 1093.00677,166.187174 1093.14414,166.049805 C1093.14414,166.049805 1093.14414,165.98112 1093.14414,165.84375 C1093.28151,165.70638 1093.41888,165.637695 1093.55625,165.637695 C1093.69362,165.637695 1093.83099,165.637695 1093.96836,165.637695 C1093.96836,165.637695 1093.96836,165.637695 1093.96836,165.637695 C1093.96836,165.637695 1094.03704,165.637695 1094.17441,165.637695 C1094.03704,165.637695 1093.96836,165.637695 1093.96836,165.637695 C1093.83099,165.637695 1093.69362,165.70638 1093.55625,165.84375 C1093.55625,165.84375 1093.48757,165.912435 1093.3502,166.049805 C1093.3502,166.187174 1093.3502,166.324544 1093.3502,166.461914 C1093.3502,166.599284 1093.3502,166.736654 1093.3502,166.874023 C1093.48757,166.874023 1093.55625,166.942708 1093.55625,167.080078 C1093.69362,167.217448 1093.83099,167.286133 1093.96836,167.286133 C1093.96836,167.286133 1094.03704,167.286133 1094.17441,167.286133 C1094.86126,167.286133 1095.47943,167.217448 1096.02891,167.080078 C1096.44102,166.942708 1096.92181,166.736654 1097.47129,166.461914 C1097.60866,166.599284 1097.67734,166.667969 1097.67734,166.667969 C1097.81471,166.805339 1097.95208,166.942708 1098.08945,167.080078 C1098.36419,167.354818 1098.57025,167.629557 1098.70762,167.904297 C1098.84499,168.041667 1098.98236,168.316406 1099.11973,168.728516 C1099.2571,169.003255 1099.32578,169.277995 1099.32578,169.552734 C1099.46315,169.964844 1099.53184,170.308268 1099.53184,170.583008 Z" transform="translate(-1050.5)"/></svg>