<svg xmlns="http://www.w3.org/2000/svg" width="243" height="243" viewBox="0 0 243 243"><path fill="#131313" d="M147.195312,79.4042969 C149.441406,79.4042969 151.388021,80.1529948 153.035156,81.6503906 C154.532552,83.297526 155.28125,85.2441406 155.28125,87.4902344 C155.28125,89.7363281 154.532552,91.6829427 153.035156,93.3300781 C151.388021,94.827474 149.441406,95.5761719 147.195312,95.5761719 C141.954427,95.5761719 134.093099,95.5761719 123.611328,95.5761719 C123.611328,109.202474 123.611328,129.641927 123.611328,156.894531 C123.611328,159.140625 122.78776,161.08724 121.140625,162.734375 C119.49349,164.231771 117.546875,164.980469 115.300781,164.980469 C113.054688,164.980469 111.182943,164.231771 109.685547,162.734375 C108.038411,161.08724 107.214844,159.140625 107.214844,156.894531 C107.214844,143.268229 107.214844,122.828776 107.214844,95.5761719 C104.519531,95.5761719 100.476562,95.5761719 95.0859375,95.5761719 C92.8398438,95.5761719 90.8932292,94.827474 89.2460938,93.3300781 C87.7486979,91.6829427 87,89.7363281 87,87.4902344 C87,85.2441406 87.7486979,83.297526 89.2460938,81.6503906 C90.8932292,80.1529948 92.8398438,79.4042969 95.0859375,79.4042969 C97.78125,79.4042969 101.824219,79.4042969 107.214844,79.4042969 C107.214844,69.2220052 107.214844,54.0234375 107.214844,33.8085938 C107.214844,27.2200521 109.535807,21.6048177 114.177734,16.9628906 C118.969401,12.3209635 124.659505,10 131.248047,10 C131.248047,10 131.322917,10 131.472656,10 C134.617188,10 137.686849,10.5989583 140.681641,11.796875 C143.526693,12.9947917 146.072266,14.7167969 148.318359,16.9628906 C149.965495,18.4602865 150.789062,20.3320312 150.789062,22.578125 C150.789062,24.8242188 149.965495,26.7708333 148.318359,28.4179688 C146.820964,30.0651042 144.949219,30.8886719 142.703125,30.8886719 C140.457031,30.8886719 138.510417,30.0651042 136.863281,28.4179688 C136.114583,27.6692708 135.291016,27.1451823 134.392578,26.8457031 C133.494141,26.3964844 132.520833,26.171875 131.472656,26.171875 C131.472656,26.171875 131.397786,26.171875 131.248047,26.171875 C129.151693,26.171875 127.354818,26.9205729 125.857422,28.4179688 C124.360026,29.9153646 123.611328,31.7122396 123.611328,33.8085938 C123.611328,43.9908854 123.611328,59.1894531 123.611328,79.4042969 C127.504557,79.4042969 131.472656,79.4042969 135.515625,79.4042969 C139.408854,79.4042969 143.302083,79.4042969 147.195312,79.4042969 Z M146.644531,4.26757812 C146.644531,4.26757812 146.569661,4.34244792 146.419922,4.4921875 C146.419922,4.4921875 146.345052,4.56705729 146.195312,4.71679688 C146.045573,4.86653646 145.895833,5.09114583 145.746094,5.390625 C145.596354,5.69010417 145.446615,5.91471354 145.296875,6.06445312 C143.050781,4.86653646 140.580078,3.89322917 137.884766,3.14453125 C135.339193,2.54557292 132.64388,2.24609375 129.798828,2.24609375 C129.798828,2.24609375 129.723958,2.24609375 129.574219,2.24609375 C122.835938,2.24609375 116.696615,4.11783854 111.15625,7.86132812 C105.765625,11.6048177 101.797526,16.546224 99.2519531,22.6855469 C98.8027344,22.6855469 98.0540365,22.5358073 97.0058594,22.2363281 C99.5514323,15.4980469 103.81901,10.1074219 109.808594,6.06445312 C115.648438,2.02148438 122.236979,0 129.574219,0 C129.574219,0 129.649089,0 129.798828,0 C132.79362,0 135.713542,0.374348958 138.558594,1.12304688 C141.403646,1.72200521 144.098958,2.77018229 146.644531,4.26757812 Z M96.3320312,24.2578125 C96.78125,24.4075521 97.5299479,24.6321615 98.578125,24.9316406 C98.578125,24.6321615 98.6529948,24.2578125 98.8027344,23.8085938 C98.952474,23.5091146 99.1022135,23.1347656 99.2519531,22.6855469 C99.7011719,22.8352865 100.375,22.985026 101.273438,23.1347656 C100.075521,25.6803385 98.2786458,29.5735677 95.8828125,34.8144531 C95.5833333,31.969401 95.2089844,27.7018229 94.7597656,22.0117188 C95.2089844,22.0117188 95.9576823,22.0865885 97.0058594,22.2363281 C96.8561198,22.6855469 96.7063802,23.0598958 96.5566406,23.359375 C96.5566406,23.6588542 96.4817708,23.9583333 96.3320312,24.2578125 Z M96.3320312,24.2578125 C96.4817708,23.9583333 96.5566406,23.6588542 96.5566406,23.359375 C96.7063802,23.0598958 96.8561198,22.6855469 97.0058594,22.2363281 C97.4550781,22.3860677 98.203776,22.5358073 99.2519531,22.6855469 C99.1022135,23.1347656 98.952474,23.5091146 98.8027344,23.8085938 C98.6529948,24.2578125 98.578125,24.6321615 98.578125,24.9316406 C98.1289062,24.9316406 97.7545573,24.8567708 97.4550781,24.7070312 C97.0058594,24.5572917 96.6315104,24.4075521 96.3320312,24.2578125 Z M146.419922,11.2304688 C146.419922,11.2304688 146.494792,11.2304688 146.644531,11.2304688 C146.644531,11.3802083 146.719401,11.4550781 146.869141,11.4550781 C146.719401,11.4550781 146.644531,11.3802083 146.644531,11.2304688 C146.494792,11.2304688 146.419922,11.2304688 146.419922,11.2304688 Z M146.644531,4.26757812 C147.542969,3.36914062 148.591146,2.91992188 149.789062,2.91992188 C151.136719,2.91992188 152.259766,3.29427083 153.158203,4.04296875 C154.20638,4.94140625 154.805339,6.06445312 154.955078,7.41210938 C154.955078,8.75976562 154.505859,9.95768229 153.607422,11.0058594 C152.858724,12.0540365 151.810547,12.578125 150.462891,12.578125 C149.115234,12.7278646 147.917318,12.3535156 146.869141,11.4550781 C145.970703,10.8561198 145.446615,10.0325521 145.296875,8.984375 C144.997396,8.0859375 144.997396,7.11263021 145.296875,6.06445312 C145.446615,6.21419271 145.521484,6.2890625 145.521484,6.2890625 C145.671224,6.2890625 145.820964,6.36393229 145.970703,6.51367188 C145.671224,7.26236979 145.596354,8.0859375 145.746094,8.984375 C146.045573,9.73307292 146.494792,10.406901 147.09375,11.0058594 C147.992188,11.7545573 149.040365,12.1289062 150.238281,12.1289062 C151.436198,11.9791667 152.484375,11.4550781 153.382812,10.5566406 C154.13151,9.65820312 154.43099,8.61002604 154.28125,7.41210938 C154.13151,6.21419271 153.607422,5.24088542 152.708984,4.4921875 C151.960286,3.74348958 151.061849,3.36914062 150.013672,3.36914062 C148.965495,3.51888021 147.992188,3.89322917 147.09375,4.4921875 C147.09375,4.4921875 147.01888,4.41731771 146.869141,4.26757812 C146.869141,4.26757812 146.794271,4.26757812 146.644531,4.26757812 Z M147.318359,11.9042969 C147.318359,11.9042969 147.318359,11.9042969 147.318359,11.9042969 C147.318359,11.9042969 147.24349,11.9042969 147.09375,11.9042969 C147.24349,11.9042969 147.318359,11.9042969 147.318359,11.9042969 C147.318359,11.9042969 147.318359,11.9042969 147.318359,11.9042969 Z M147.09375,11.9042969 C147.09375,11.9042969 147.09375,11.8294271 147.09375,11.6796875 C147.09375,11.6796875 147.09375,11.6796875 147.09375,11.6796875 C147.09375,11.6796875 147.09375,11.6796875 147.09375,11.6796875 C147.09375,11.8294271 147.09375,11.9042969 147.09375,11.9042969 Z M147.09375,11.6796875 C146.94401,11.6796875 146.869141,11.6796875 146.869141,11.6796875 C146.869141,11.5299479 146.869141,11.4550781 146.869141,11.4550781 C146.869141,11.4550781 146.869141,11.5299479 146.869141,11.6796875 C146.869141,11.6796875 146.94401,11.6796875 147.09375,11.6796875 Z M146.644531,4.94140625 C146.494792,5.24088542 146.345052,5.46549479 146.195312,5.61523438 C146.045573,5.91471354 145.970703,6.21419271 145.970703,6.51367188 C145.820964,6.36393229 145.671224,6.2890625 145.521484,6.2890625 C145.521484,6.2890625 145.446615,6.21419271 145.296875,6.06445312 C145.446615,5.76497396 145.596354,5.54036458 145.746094,5.390625 C145.895833,5.09114583 146.045573,4.79166667 146.195312,4.4921875 C146.345052,4.4921875 146.419922,4.4921875 146.419922,4.4921875 C146.419922,4.34244792 146.494792,4.26757812 146.644531,4.26757812 C146.644531,4.26757812 146.719401,4.26757812 146.869141,4.26757812 C147.01888,4.41731771 147.09375,4.4921875 147.09375,4.4921875 C147.09375,4.64192708 147.01888,4.71679688 146.869141,4.71679688 C146.869141,4.86653646 146.794271,4.94140625 146.644531,4.94140625 Z M152.484375,4.94140625 C151.735677,4.34244792 150.912109,4.04296875 150.013672,4.04296875 C149.115234,4.04296875 148.366536,4.26757812 147.767578,4.71679688 C147.617839,4.71679688 147.468099,4.71679688 147.318359,4.71679688 C147.318359,4.56705729 147.24349,4.4921875 147.09375,4.4921875 C147.992188,3.89322917 148.965495,3.51888021 150.013672,3.36914062 C151.061849,3.36914062 151.960286,3.74348958 152.708984,4.4921875 C153.607422,5.24088542 154.13151,6.21419271 154.28125,7.41210938 C154.43099,8.61002604 154.056641,9.65820312 153.158203,10.5566406 C152.409505,11.4550781 151.436198,11.9791667 150.238281,12.1289062 C149.040365,12.1289062 147.992188,11.7545573 147.09375,11.0058594 C146.494792,10.406901 146.045573,9.73307292 145.746094,8.984375 C145.596354,8.0859375 145.596354,7.26236979 145.746094,6.51367188 C145.895833,6.51367188 146.045573,6.51367188 146.195312,6.51367188 C146.195312,6.66341146 146.270182,6.73828125 146.419922,6.73828125 C146.120443,7.33723958 146.120443,8.01106771 146.419922,8.75976562 C146.569661,9.50846354 146.94401,10.1074219 147.542969,10.5566406 C148.291667,11.3053385 149.190104,11.6048177 150.238281,11.4550781 C151.286458,11.4550781 152.184896,11.0058594 152.933594,10.1074219 C153.532552,9.35872396 153.757161,8.46028646 153.607422,7.41210938 C153.607422,6.36393229 153.233073,5.54036458 152.484375,4.94140625 C152.484375,4.94140625 152.559245,5.01627604 152.708984,5.16601562 C152.708984,5.16601562 152.708984,5.16601562 152.708984,5.16601562 C152.708984,5.16601562 152.783854,5.16601562 152.933594,5.16601562 C152.933594,5.31575521 152.933594,5.390625 152.933594,5.390625 C152.933594,5.390625 152.933594,5.31575521 152.933594,5.16601562 C152.783854,5.16601562 152.708984,5.16601562 152.708984,5.16601562 C152.708984,5.16601562 152.708984,5.16601562 152.708984,5.16601562 C152.559245,5.01627604 152.484375,4.94140625 152.484375,4.94140625 C152.334635,4.79166667 152.259766,4.71679688 152.259766,4.71679688 C152.110026,4.71679688 152.035156,4.64192708 152.035156,4.4921875 C152.035156,4.4921875 152.035156,4.4921875 152.035156,4.4921875 C152.035156,4.4921875 152.035156,4.4921875 152.035156,4.4921875 C152.035156,4.4921875 152.035156,4.4921875 152.035156,4.4921875 C152.035156,4.4921875 152.035156,4.4921875 152.035156,4.4921875 C152.035156,4.64192708 152.110026,4.71679688 152.259766,4.71679688 C152.259766,4.71679688 152.334635,4.79166667 152.484375,4.94140625 Z M152.484375,4.94140625 C152.484375,4.94140625 152.559245,5.01627604 152.708984,5.16601562 C152.708984,5.16601562 152.708984,5.16601562 152.708984,5.16601562 C152.708984,5.16601562 152.708984,5.16601562 152.708984,5.16601562 C152.559245,5.01627604 152.484375,4.94140625 152.484375,4.94140625 Z M145.970703,6.51367188 C145.970703,6.21419271 146.045573,5.91471354 146.195312,5.61523438 C146.345052,5.46549479 146.494792,5.24088542 146.644531,4.94140625 C146.794271,4.94140625 146.869141,4.86653646 146.869141,4.71679688 C147.01888,4.71679688 147.09375,4.64192708 147.09375,4.4921875 C147.24349,4.4921875 147.318359,4.56705729 147.318359,4.71679688 C147.468099,4.71679688 147.617839,4.71679688 147.767578,4.71679688 C147.617839,4.86653646 147.468099,4.94140625 147.318359,4.94140625 C147.318359,5.09114583 147.24349,5.24088542 147.09375,5.390625 C146.94401,5.54036458 146.794271,5.76497396 146.644531,6.06445312 C146.494792,6.21419271 146.419922,6.43880208 146.419922,6.73828125 C146.270182,6.73828125 146.195312,6.66341146 146.195312,6.51367188 C146.045573,6.51367188 145.970703,6.51367188 145.970703,6.51367188 Z M96.3320312,105.117188 C104.417969,105.117188 116.546875,105.117188 132.71875,105.117188 C132.71875,105.716146 132.71875,106.539714 132.71875,107.587891 C124.632812,107.587891 112.503906,107.587891 96.3320312,107.587891 C96.4817708,107.288411 96.5566406,107.063802 96.5566406,106.914062 C96.5566406,106.764323 96.5566406,106.614583 96.5566406,106.464844 C96.5566406,106.165365 96.5566406,105.940755 96.5566406,105.791016 C96.5566406,105.641276 96.4817708,105.416667 96.3320312,105.117188 Z M91.6152344,110.732422 C92.6634115,110.732422 93.561849,110.432943 94.3105469,109.833984 C95.0592448,109.235026 95.5833333,108.486328 95.8828125,107.587891 C96.0325521,107.587891 96.1822917,107.587891 96.3320312,107.587891 C96.1822917,108.636068 95.6582031,109.534505 94.7597656,110.283203 C93.8613281,110.882161 92.813151,111.181641 91.6152344,111.181641 C90.2675781,111.181641 89.1445312,110.732422 88.2460938,109.833984 C87.1979167,108.935547 86.6738281,107.8125 86.6738281,106.464844 C86.6738281,105.117188 87.1979167,103.919271 88.2460938,102.871094 C89.1445312,101.972656 90.2675781,101.523438 91.6152344,101.523438 C92.813151,101.523438 93.8613281,101.897786 94.7597656,102.646484 C95.5084635,103.245443 96.0325521,104.06901 96.3320312,105.117188 C96.1822917,105.117188 96.0325521,105.117188 95.8828125,105.117188 C95.5833333,104.21875 95.0592448,103.470052 94.3105469,102.871094 C93.561849,102.272135 92.6634115,101.972656 91.6152344,101.972656 C90.4173177,101.972656 89.3691406,102.421875 88.4707031,103.320312 C87.7220052,104.21875 87.3476562,105.266927 87.3476562,106.464844 C87.3476562,107.66276 87.7220052,108.636068 88.4707031,109.384766 C89.3691406,110.283203 90.4173177,110.732422 91.6152344,110.732422 Z M96.3320312,105.117188 C96.4817708,105.416667 96.5566406,105.641276 96.5566406,105.791016 C96.5566406,105.940755 96.5566406,106.165365 96.5566406,106.464844 C96.5566406,106.614583 96.5566406,106.764323 96.5566406,106.914062 C96.5566406,107.063802 96.4817708,107.288411 96.3320312,107.587891 C96.1822917,107.587891 96.0325521,107.587891 95.8828125,107.587891 C95.8828125,107.288411 95.8828125,107.063802 95.8828125,106.914062 C95.8828125,106.764323 95.8828125,106.614583 95.8828125,106.464844 C95.8828125,106.165365 95.8828125,105.940755 95.8828125,105.791016 C95.8828125,105.641276 95.8828125,105.416667 95.8828125,105.117188 C95.8828125,105.117188 95.9576823,105.117188 96.1074219,105.117188 C96.2571615,105.117188 96.3320312,105.117188 96.3320312,105.117188 Z M91.6152344,101.972656 C92.6634115,101.972656 93.561849,102.272135 94.3105469,102.871094 C95.0592448,103.470052 95.5833333,104.21875 95.8828125,105.117188 C95.7330729,105.117188 95.5084635,105.117188 95.2089844,105.117188 C94.9095052,104.36849 94.4602865,103.769531 93.8613281,103.320312 C93.2623698,102.871094 92.5136719,102.646484 91.6152344,102.646484 C91.9147135,102.646484 92.0644531,102.646484 92.0644531,102.646484 C92.2141927,102.646484 92.2890625,102.646484 92.2890625,102.646484 C92.2890625,102.646484 92.2141927,102.646484 92.0644531,102.646484 C92.0644531,102.646484 91.9147135,102.646484 91.6152344,102.646484 C91.4654948,102.646484 91.3157552,102.646484 91.1660156,102.646484 C91.016276,102.646484 91.016276,102.646484 91.1660156,102.646484 C91.016276,102.646484 91.016276,102.646484 91.1660156,102.646484 C91.3157552,102.646484 91.4654948,102.646484 91.6152344,102.646484 C90.5670573,102.646484 89.6686198,103.020833 88.9199219,103.769531 C88.3209635,104.518229 88.0214844,105.416667 88.0214844,106.464844 C88.0214844,107.363281 88.3209635,108.186849 88.9199219,108.935547 C89.6686198,109.684245 90.5670573,110.058594 91.6152344,110.058594 C92.5136719,110.058594 93.2623698,109.833984 93.8613281,109.384766 C94.4602865,108.935547 94.9095052,108.336589 95.2089844,107.587891 C95.358724,107.587891 95.5833333,107.587891 95.8828125,107.587891 C95.5833333,108.486328 95.0592448,109.235026 94.3105469,109.833984 C93.561849,110.432943 92.6634115,110.732422 91.6152344,110.732422 C90.4173177,110.732422 89.3691406,110.283203 88.4707031,109.384766 C87.7220052,108.636068 87.3476562,107.66276 87.3476562,106.464844 C87.3476562,105.266927 87.7220052,104.21875 88.4707031,103.320312 C89.3691406,102.421875 90.4173177,101.972656 91.6152344,101.972656 Z M95.4335938,106.464844 C95.4335938,106.165365 95.4335938,105.940755 95.4335938,105.791016 C95.2838542,105.641276 95.2089844,105.416667 95.2089844,105.117188 C95.358724,105.117188 95.5833333,105.117188 95.8828125,105.117188 C95.8828125,105.416667 95.8828125,105.641276 95.8828125,105.791016 C95.8828125,105.940755 95.8828125,106.165365 95.8828125,106.464844 C95.8828125,106.614583 95.8828125,106.764323 95.8828125,106.914062 C95.8828125,107.063802 95.8828125,107.288411 95.8828125,107.587891 C95.7330729,107.587891 95.5084635,107.587891 95.2089844,107.587891 C95.2089844,107.288411 95.2838542,107.063802 95.4335938,106.914062 C95.4335938,106.764323 95.4335938,106.614583 95.4335938,106.464844 Z M132.71875,109.609375 C132.71875,109.160156 132.71875,108.486328 132.71875,107.587891 C133.317708,107.587891 134.066406,107.587891 134.964844,107.587891 C134.964844,106.988932 134.964844,106.165365 134.964844,105.117188 C134.515625,105.117188 133.766927,105.117188 132.71875,105.117188 C132.71875,104.667969 132.71875,103.994141 132.71875,103.095703 C135.563802,103.844401 139.75651,104.967448 145.296875,106.464844 C142.451823,107.213542 138.259115,108.261719 132.71875,109.609375 Z M132.71875,105.117188 C133.317708,105.117188 134.066406,105.117188 134.964844,105.117188 C134.964844,105.716146 134.964844,106.539714 134.964844,107.587891 C134.515625,107.587891 133.766927,107.587891 132.71875,107.587891 C132.71875,106.988932 132.71875,106.165365 132.71875,105.117188 Z M157.201172,21.3378906 C157.051432,21.3378906 156.976562,21.3378906 156.976562,21.3378906 C156.826823,21.3378906 156.677083,21.2630208 156.527344,21.1132812 C156.377604,21.1132812 156.302734,21.0384115 156.302734,20.8886719 C156.302734,20.7389323 156.302734,20.5891927 156.302734,20.4394531 C156.302734,20.2897135 156.302734,20.2148438 156.302734,20.2148438 C156.302734,20.0651042 156.377604,19.9153646 156.527344,19.765625 C156.826823,19.4661458 157.126302,19.1666667 157.425781,18.8671875 C157.875,18.4179688 158.399089,17.96875 158.998047,17.5195312 C158.998047,17.3697917 159.072917,17.2949219 159.222656,17.2949219 C159.222656,17.2949219 159.297526,17.2200521 159.447266,17.0703125 C159.447266,17.0703125 159.447266,17.0703125 159.447266,17.0703125 C159.447266,17.0703125 159.522135,17.0703125 159.671875,17.0703125 C159.671875,17.0703125 159.671875,17.0703125 159.671875,17.0703125 C159.821615,17.0703125 159.896484,17.1451823 159.896484,17.2949219 C160.046224,17.2949219 160.121094,17.2949219 160.121094,17.2949219 C160.270833,17.4446615 160.345703,17.5195312 160.345703,17.5195312 C160.495443,17.6692708 160.570312,17.7441406 160.570312,17.7441406 C160.570312,17.8938802 160.570312,18.0436198 160.570312,18.1933594 C160.570312,19.9902344 160.570312,22.3111979 160.570312,25.15625 C160.570312,27.8515625 160.570312,31.0709635 160.570312,34.8144531 C160.570312,34.9641927 160.570312,35.0390625 160.570312,35.0390625 C160.420573,35.1888021 160.345703,35.3385417 160.345703,35.4882812 C160.195964,35.4882812 160.046224,35.563151 159.896484,35.7128906 C159.746745,35.7128906 159.671875,35.7128906 159.671875,35.7128906 C159.522135,35.7128906 159.372396,35.7128906 159.222656,35.7128906 C159.072917,35.563151 158.998047,35.4882812 158.998047,35.4882812 C158.848307,35.3385417 158.773438,35.1888021 158.773438,35.0390625 C158.623698,35.0390625 158.548828,34.9641927 158.548828,34.8144531 C158.548828,33.1673177 158.548828,31.1458333 158.548828,28.75 C158.548828,26.3541667 158.548828,23.5839844 158.548828,20.4394531 C158.548828,20.5891927 158.473958,20.6640625 158.324219,20.6640625 C158.174479,20.8138021 158.02474,20.9635417 157.875,21.1132812 C157.875,21.2630208 157.80013,21.3378906 157.650391,21.3378906 C157.500651,21.3378906 157.350911,21.3378906 157.201172,21.3378906 Z M96.3320312,135.664062 C96.4817708,135.664062 96.6315104,135.664062 96.78125,135.664062 C96.9309896,135.664062 97.0058594,135.738932 97.0058594,135.888672 C97.155599,136.038411 97.2304688,136.113281 97.2304688,136.113281 C97.2304688,136.263021 97.2304688,136.41276 97.2304688,136.5625 C97.2304688,136.71224 97.2304688,136.861979 97.2304688,137.011719 C97.2304688,137.011719 97.155599,137.086589 97.0058594,137.236328 C96.8561198,137.386068 96.78125,137.460938 96.78125,137.460938 C96.6315104,137.460938 96.4817708,137.460938 96.3320312,137.460938 C95.5833333,137.460938 94.8346354,137.460938 94.0859375,137.460938 C93.1875,137.460938 92.3639323,137.460938 91.6152344,137.460938 C90.8665365,137.460938 90.1178385,137.460938 89.3691406,137.460938 C88.4707031,137.460938 87.6471354,137.460938 86.8984375,137.460938 C86.8984375,137.460938 86.8235677,137.460938 86.6738281,137.460938 C86.6738281,137.460938 86.5989583,137.460938 86.4492188,137.460938 C86.4492188,137.460938 86.4492188,137.460938 86.4492188,137.460938 C86.2994792,137.311198 86.2246094,137.236328 86.2246094,137.236328 C86.2246094,137.236328 86.2246094,137.161458 86.2246094,137.011719 C86.0748698,137.011719 86,136.936849 86,136.787109 C86,136.787109 86,136.787109 86,136.787109 C86,136.63737 86,136.5625 86,136.5625 C86,136.5625 86,136.5625 86,136.5625 C86,136.5625 86,136.5625 86,136.5625 C86,136.41276 86,136.263021 86,136.113281 C86.1497396,135.813802 86.2246094,135.439453 86.2246094,134.990234 C86.374349,134.541016 86.5989583,134.091797 86.8984375,133.642578 C87.0481771,133.04362 87.3476562,132.519531 87.796875,132.070312 C87.9466146,131.770833 88.0963542,131.471354 88.2460938,131.171875 C88.5455729,130.872396 88.8450521,130.572917 89.1445312,130.273438 C89.4440104,129.973958 89.7434896,129.674479 90.0429688,129.375 C90.4921875,129.075521 90.8665365,128.776042 91.1660156,128.476562 C92.0644531,128.027344 92.813151,127.578125 93.4121094,127.128906 C93.8613281,126.679688 94.2356771,126.230469 94.5351562,125.78125 C94.6848958,125.481771 94.8346354,125.107422 94.984375,124.658203 C94.984375,124.358724 94.984375,124.059245 94.984375,123.759766 C94.984375,123.610026 94.984375,123.535156 94.984375,123.535156 C94.984375,123.385417 94.984375,123.235677 94.984375,123.085938 C94.984375,123.085938 94.984375,123.011068 94.984375,122.861328 C94.984375,122.711589 94.9095052,122.561849 94.7597656,122.412109 C94.7597656,122.26237 94.6848958,122.11263 94.5351562,121.962891 C94.3854167,121.663411 94.1608073,121.438802 93.8613281,121.289062 C93.561849,121.139323 93.2623698,121.064453 92.9628906,121.064453 C92.6634115,120.914714 92.2141927,120.839844 91.6152344,120.839844 C91.3157552,120.839844 91.016276,120.914714 90.7167969,121.064453 C90.4173177,121.064453 90.1178385,121.139323 89.8183594,121.289062 C89.5188802,121.438802 89.2942708,121.663411 89.1445312,121.962891 C88.8450521,122.11263 88.6204427,122.412109 88.4707031,122.861328 C88.4707031,122.861328 88.3958333,122.936198 88.2460938,123.085938 C88.2460938,123.235677 88.171224,123.310547 88.0214844,123.310547 C87.8717448,123.310547 87.7220052,123.310547 87.5722656,123.310547 C87.422526,123.310547 87.3476562,123.310547 87.3476562,123.310547 C87.1979167,123.160807 87.0481771,123.085938 86.8984375,123.085938 C86.8984375,122.936198 86.8235677,122.786458 86.6738281,122.636719 C86.6738281,122.486979 86.6738281,122.412109 86.6738281,122.412109 C86.6738281,122.26237 86.7486979,122.11263 86.8984375,121.962891 C87.0481771,121.513672 87.2727865,121.064453 87.5722656,120.615234 C87.8717448,120.315755 88.2460938,120.016276 88.6953125,119.716797 C89.1445312,119.417318 89.59375,119.192708 90.0429688,119.042969 C90.4921875,119.042969 91.016276,119.042969 91.6152344,119.042969 C92.6634115,119.042969 93.4869792,119.117839 94.0859375,119.267578 C94.8346354,119.567057 95.4335938,119.941406 95.8828125,120.390625 C96.3320312,120.989583 96.6315104,121.588542 96.78125,122.1875 C96.9309896,122.636719 97.0058594,123.160807 97.0058594,123.759766 C97.0058594,124.358724 96.9309896,124.957682 96.78125,125.556641 C96.6315104,126.005859 96.3320312,126.529948 95.8828125,127.128906 C95.5833333,127.578125 95.1341146,128.102214 94.5351562,128.701172 C93.9361979,129.150391 93.1875,129.674479 92.2890625,130.273438 C91.6901042,130.572917 91.0911458,131.022135 90.4921875,131.621094 C90.0429688,132.070312 89.6686198,132.519531 89.3691406,132.96875 C89.0696615,133.567708 88.8450521,134.091797 88.6953125,134.541016 C88.3958333,134.840495 88.2460938,135.214844 88.2460938,135.664062 C89.1445312,135.664062 90.2675781,135.664062 91.6152344,135.664062 C92.9628906,135.664062 94.5351562,135.664062 96.3320312,135.664062 Z"/></svg>