<svg xmlns="http://www.w3.org/2000/svg" width="89" height="203" viewBox="0 0 89 203"><path fill="#131313" d="M1323.19531,116.404297 C1325.44141,116.404297 1327.38802,117.152995 1329.03516,118.650391 C1330.53255,120.297526 1331.28125,122.244141 1331.28125,124.490234 C1331.28125,126.736328 1330.53255,128.682943 1329.03516,130.330078 C1327.38802,131.827474 1325.44141,132.576172 1323.19531,132.576172 C1317.95443,132.576172 1310.0931,132.576172 1299.61133,132.576172 C1299.61133,146.202474 1299.61133,166.641927 1299.61133,193.894531 C1299.61133,196.140625 1298.78776,198.08724 1297.14062,199.734375 C1295.49349,201.231771 1293.54688,201.980469 1291.30078,201.980469 C1289.05469,201.980469 1287.18294,201.231771 1285.68555,199.734375 C1284.03841,198.08724 1283.21484,196.140625 1283.21484,193.894531 C1283.21484,180.268229 1283.21484,159.828776 1283.21484,132.576172 C1280.51953,132.576172 1276.47656,132.576172 1271.08594,132.576172 C1268.83984,132.576172 1266.89323,131.827474 1265.24609,130.330078 C1263.7487,128.682943 1263,126.736328 1263,124.490234 C1263,122.244141 1263.7487,120.297526 1265.24609,118.650391 C1266.89323,117.152995 1268.83984,116.404297 1271.08594,116.404297 C1273.78125,116.404297 1277.82422,116.404297 1283.21484,116.404297 C1283.21484,106.222005 1283.21484,105.023438 1283.21484,84.8085938 C1283.21484,78.2200521 1285.53581,72.6048177 1290.17773,67.9628906 C1294.9694,63.3209635 1300.65951,61 1307.24805,61 C1307.24805,61 1307.32292,61 1307.47266,61 C1310.61719,61 1313.68685,61.5989583 1316.68164,62.796875 C1319.52669,63.9947917 1322.07227,65.7167969 1324.31836,67.9628906 C1325.96549,69.4602865 1326.78906,71.3320313 1326.78906,73.578125 C1326.78906,75.8242188 1325.96549,77.7708333 1324.31836,79.4179687 C1322.82096,81.0651042 1320.94922,81.8886719 1318.70312,81.8886719 C1316.45703,81.8886719 1314.51042,81.0651042 1312.86328,79.4179687 C1312.11458,78.6692708 1311.29102,78.1451823 1310.39258,77.8457031 C1309.49414,77.3964844 1308.52083,77.171875 1307.47266,77.171875 C1307.47266,77.171875 1307.39779,77.171875 1307.24805,77.171875 C1305.15169,77.171875 1303.35482,77.9205729 1301.85742,79.4179687 C1300.36003,80.9153646 1299.61133,82.7122396 1299.61133,84.8085938 C1299.61133,94.9908854 1299.61133,96.1894531 1299.61133,116.404297 C1303.50456,116.404297 1307.47266,116.404297 1311.51562,116.404297 C1315.40885,116.404297 1319.30208,116.404297 1323.19531,116.404297 Z M1322.64453,53.2675781 C1322.64453,53.2675781 1322.56966,53.3424479 1322.41992,53.4921875 C1322.41992,53.4921875 1322.34505,53.5670573 1322.19531,53.7167969 C1322.04557,53.8665365 1321.89583,54.0911458 1321.74609,54.390625 C1321.59635,54.6901042 1321.44661,54.9147135 1321.29688,55.0644531 C1319.05078,53.8665365 1316.58008,52.8932292 1313.88477,52.1445313 C1311.33919,51.5455729 1308.64388,51.2460938 1305.79883,51.2460938 C1305.79883,51.2460938 1305.72396,51.2460938 1305.57422,51.2460938 C1298.83594,51.2460938 1292.69661,53.1178385 1287.15625,56.8613281 C1281.76562,60.6048177 1277.79753,65.546224 1275.25195,71.6855469 C1274.80273,71.6855469 1274.05404,71.5358073 1273.00586,71.2363281 C1275.55143,64.4980469 1279.81901,59.1074219 1285.80859,55.0644531 C1291.64844,51.0214844 1298.23698,49 1305.57422,49 C1305.57422,49 1305.64909,49 1305.79883,49 C1308.79362,49 1311.71354,49.374349 1314.55859,50.1230469 C1317.40365,50.7220052 1320.09896,51.7701823 1322.64453,53.2675781 Z M1277.27344,72.1347656 C1276.07552,74.6803385 1274.27865,78.5735677 1271.88281,83.8144531 C1271.58333,80.969401 1271.20898,76.7018229 1270.75977,71.0117188 C1274.25,71.25 1274.75,71.5 1277.27344,72.1347656 Z M1322.64453,53.2675781 C1323.54297,52.3691406 1324.59115,51.9199219 1325.78906,51.9199219 C1327.13672,51.9199219 1328.25977,52.2942708 1329.1582,53.0429688 C1330.20638,53.9414062 1330.80534,55.0644531 1330.95508,56.4121094 C1330.95508,57.7597656 1330.50586,58.9576823 1329.60742,60.0058594 C1328.85872,61.0540365 1327.81055,61.578125 1326.46289,61.578125 C1325.11523,61.7278646 1323.91732,61.3535156 1322.86914,60.4550781 C1321.9707,59.8561198 1321.44661,59.0325521 1321.29688,57.984375 C1320.9974,57.0859375 1320.9974,56.1126302 1321.29688,55.0644531 C1321.44661,55.2141927 1321.52148,55.2890625 1321.52148,55.2890625 C1321.67122,55.2890625 1321.82096,55.3639323 1321.9707,55.5136719 C1321.67122,56.2623698 1321.59635,57.0859375 1321.74609,57.984375 C1322.04557,58.7330729 1322.49479,59.406901 1323.09375,60.0058594 C1323.99219,60.7545573 1325.04036,61.1289063 1326.23828,61.1289063 C1327.4362,60.9791667 1328.48438,60.4550781 1329.38281,59.5566406 C1330.13151,58.6582031 1330.43099,57.610026 1330.28125,56.4121094 C1330.13151,55.2141927 1329.60742,54.2408854 1328.70898,53.4921875 C1327.96029,52.7434896 1327.06185,52.3691406 1326.01367,52.3691406 C1324.96549,52.5188802 1323.99219,52.8932292 1323.09375,53.4921875 C1323.09375,53.4921875 1323.01888,53.4173177 1322.86914,53.2675781 C1322.86914,53.2675781 1322.79427,53.2675781 1322.64453,53.2675781 Z M1322.64453,53.9414063 C1322.49479,54.2408854 1322.34505,54.4654948 1322.19531,54.6152344 C1322.04557,54.9147135 1321.9707,55.2141927 1321.9707,55.5136719 C1321.82096,55.3639323 1321.67122,55.2890625 1321.52148,55.2890625 C1321.52148,55.2890625 1321.44661,55.2141927 1321.29688,55.0644531 C1321.44661,54.764974 1321.59635,54.5403646 1321.74609,54.390625 C1321.89583,54.0911458 1322.04557,53.7916667 1322.19531,53.4921875 C1322.34505,53.4921875 1322.41992,53.4921875 1322.41992,53.4921875 C1322.41992,53.3424479 1322.49479,53.2675781 1322.64453,53.2675781 C1322.64453,53.2675781 1322.7194,53.2675781 1322.86914,53.2675781 C1323.01888,53.4173177 1323.09375,53.4921875 1323.09375,53.4921875 C1323.09375,53.6419271 1323.01888,53.7167969 1322.86914,53.7167969 C1322.86914,53.8665365 1322.79427,53.9414063 1322.64453,53.9414063 Z M1328.48438,53.9414062 C1327.73568,53.3424479 1326.91211,53.0429687 1326.01367,53.0429687 C1325.11523,53.0429687 1324.36654,53.2675781 1323.76758,53.7167969 C1323.61784,53.7167969 1323.4681,53.7167969 1323.31836,53.7167969 C1323.31836,53.5670573 1323.24349,53.4921875 1323.09375,53.4921875 C1323.99219,52.8932292 1324.96549,52.5188802 1326.01367,52.3691406 C1327.06185,52.3691406 1327.96029,52.7434896 1328.70898,53.4921875 C1329.60742,54.2408854 1330.13151,55.2141927 1330.28125,56.4121094 C1330.43099,57.610026 1330.05664,58.6582031 1329.1582,59.5566406 C1328.40951,60.4550781 1327.4362,60.9791667 1326.23828,61.1289063 C1325.04036,61.1289063 1323.99219,60.7545573 1323.09375,60.0058594 C1322.49479,59.406901 1322.04557,58.7330729 1321.74609,57.984375 C1321.59635,57.0859375 1321.59635,56.2623698 1321.74609,55.5136719 C1321.89583,55.5136719 1322.04557,55.5136719 1322.19531,55.5136719 C1322.19531,55.6634115 1322.27018,55.7382812 1322.41992,55.7382812 C1322.12044,56.3372396 1322.12044,57.0110677 1322.41992,57.7597656 C1322.56966,58.5084635 1322.94401,59.1074219 1323.54297,59.5566406 C1324.29167,60.3053385 1325.1901,60.6048177 1326.23828,60.4550781 C1327.28646,60.4550781 1328.1849,60.0058594 1328.93359,59.1074219 C1329.53255,58.358724 1329.75716,57.4602865 1329.60742,56.4121094 C1329.60742,55.3639323 1329.23307,54.5403646 1328.48438,53.9414062 C1328.48438,53.9414062 1328.55924,54.016276 1328.70898,54.1660156 C1328.70898,54.1660156 1328.78385,54.1660156 1328.93359,54.1660156 C1328.93359,54.3157552 1328.93359,54.390625 1328.93359,54.390625 C1328.93359,54.390625 1328.93359,54.3157552 1328.93359,54.1660156 C1328.78385,54.1660156 1328.70898,54.1660156 1328.70898,54.1660156 C1328.55924,54.016276 1328.48438,53.9414062 1328.48438,53.9414062 C1328.33464,53.7916667 1328.25977,53.7167969 1328.25977,53.7167969 C1328.11003,53.7167969 1328.03516,53.6419271 1328.03516,53.4921875 C1328.03516,53.6419271 1328.11003,53.7167969 1328.25977,53.7167969 C1328.25977,53.7167969 1328.33464,53.7916667 1328.48438,53.9414062 Z M1321.9707,55.5136719 C1321.9707,55.2141927 1322.04557,54.9147135 1322.19531,54.6152344 C1322.34505,54.4654948 1322.49479,54.2408854 1322.64453,53.9414063 C1322.79427,53.9414063 1322.86914,53.8665365 1322.86914,53.7167969 C1323.01888,53.7167969 1323.09375,53.6419271 1323.09375,53.4921875 C1323.24349,53.4921875 1323.31836,53.5670573 1323.31836,53.7167969 C1323.4681,53.7167969 1323.61784,53.7167969 1323.76758,53.7167969 C1323.61784,53.8665365 1323.4681,53.9414063 1323.31836,53.9414063 C1323.31836,54.0911458 1323.24349,54.2408854 1323.09375,54.390625 C1322.94401,54.5403646 1322.79427,54.764974 1322.64453,55.0644531 C1322.49479,55.2141927 1322.41992,55.4388021 1322.41992,55.7382813 C1322.27018,55.7382813 1322.19531,55.6634115 1322.19531,55.5136719 C1322.04557,55.5136719 1321.9707,55.5136719 1321.9707,55.5136719 Z M1272.33203,142.117188 C1280.41797,142.117188 1292.54688,142.117188 1308.71875,142.117188 C1308.71875,142.716146 1308.71875,143.539714 1308.71875,144.587891 C1300.63281,144.587891 1288.50391,144.587891 1272.33203,144.587891 C1272.48177,144.288411 1272.55664,144.063802 1272.55664,143.914062 C1272.55664,143.764323 1272.55664,143.614583 1272.55664,143.464844 C1272.55664,143.165365 1272.55664,142.940755 1272.55664,142.791016 C1272.55664,142.641276 1272.48177,142.416667 1272.33203,142.117188 Z M1267.61523,147.732422 C1268.66341,147.732422 1269.56185,147.432943 1270.31055,146.833984 C1271.05924,146.235026 1271.58333,145.486328 1271.88281,144.587891 C1272.03255,144.587891 1272.18229,144.587891 1272.33203,144.587891 C1272.18229,145.636068 1271.6582,146.534505 1270.75977,147.283203 C1269.86133,147.882161 1268.81315,148.181641 1267.61523,148.181641 C1266.26758,148.181641 1265.14453,147.732422 1264.24609,146.833984 C1263.19792,145.935547 1262.67383,144.8125 1262.67383,143.464844 C1262.67383,142.117188 1263.19792,140.919271 1264.24609,139.871094 C1265.14453,138.972656 1266.26758,138.523438 1267.61523,138.523438 C1268.81315,138.523438 1269.86133,138.897786 1270.75977,139.646484 C1271.50846,140.245443 1272.03255,141.06901 1272.33203,142.117188 C1272.18229,142.117188 1272.03255,142.117188 1271.88281,142.117188 C1271.58333,141.21875 1271.05924,140.470052 1270.31055,139.871094 C1269.56185,139.272135 1268.66341,138.972656 1267.61523,138.972656 C1266.41732,138.972656 1265.36914,139.421875 1264.4707,140.320312 C1263.72201,141.21875 1263.34766,142.266927 1263.34766,143.464844 C1263.34766,144.66276 1263.72201,145.636068 1264.4707,146.384766 C1265.36914,147.283203 1266.41732,147.732422 1267.61523,147.732422 Z M1272.33203,142.117188 C1272.48177,142.416667 1272.55664,142.641276 1272.55664,142.791016 C1272.55664,142.940755 1272.55664,143.165365 1272.55664,143.464844 C1272.55664,143.614583 1272.55664,143.764323 1272.55664,143.914062 C1272.55664,144.063802 1272.48177,144.288411 1272.33203,144.587891 C1272.18229,144.587891 1272.03255,144.587891 1271.88281,144.587891 C1271.88281,144.288411 1271.88281,144.063802 1271.88281,143.914062 C1271.88281,143.764323 1271.88281,143.614583 1271.88281,143.464844 C1271.88281,143.165365 1271.88281,142.940755 1271.88281,142.791016 C1271.88281,142.641276 1271.88281,142.416667 1271.88281,142.117188 C1271.88281,142.117188 1271.95768,142.117188 1272.10742,142.117188 C1272.25716,142.117188 1272.33203,142.117188 1272.33203,142.117188 Z M1267.61523,138.972656 C1268.66341,138.972656 1269.56185,139.272135 1270.31055,139.871094 C1271.05924,140.470052 1271.58333,141.21875 1271.88281,142.117188 C1271.73307,142.117188 1271.50846,142.117188 1271.20898,142.117188 C1270.90951,141.36849 1270.46029,140.769531 1269.86133,140.320312 C1269.26237,139.871094 1268.51367,139.646484 1267.61523,139.646484 C1267.91471,139.646484 1268.06445,139.646484 1268.06445,139.646484 C1268.21419,139.646484 1268.28906,139.646484 1268.28906,139.646484 C1268.28906,139.646484 1268.21419,139.646484 1268.06445,139.646484 C1268.06445,139.646484 1267.91471,139.646484 1267.61523,139.646484 C1267.46549,139.646484 1267.31576,139.646484 1267.16602,139.646484 C1267.01628,139.646484 1267.01628,139.646484 1267.16602,139.646484 C1267.01628,139.646484 1267.01628,139.646484 1267.16602,139.646484 C1267.31576,139.646484 1267.46549,139.646484 1267.61523,139.646484 C1266.56706,139.646484 1265.66862,140.020833 1264.91992,140.769531 C1264.32096,141.518229 1264.02148,142.416667 1264.02148,143.464844 C1264.02148,144.363281 1264.32096,145.186849 1264.91992,145.935547 C1265.66862,146.684245 1266.56706,147.058594 1267.61523,147.058594 C1268.51367,147.058594 1269.26237,146.833984 1269.86133,146.384766 C1270.46029,145.935547 1270.90951,145.336589 1271.20898,144.587891 C1271.35872,144.587891 1271.58333,144.587891 1271.88281,144.587891 C1271.58333,145.486328 1271.05924,146.235026 1270.31055,146.833984 C1269.56185,147.432943 1268.66341,147.732422 1267.61523,147.732422 C1266.41732,147.732422 1265.36914,147.283203 1264.4707,146.384766 C1263.72201,145.636068 1263.34766,144.66276 1263.34766,143.464844 C1263.34766,142.266927 1263.72201,141.21875 1264.4707,140.320312 C1265.36914,139.421875 1266.41732,138.972656 1267.61523,138.972656 Z M1271.43359,143.464844 C1271.43359,143.165365 1271.43359,142.940755 1271.43359,142.791016 C1271.28385,142.641276 1271.20898,142.416667 1271.20898,142.117188 C1271.35872,142.117188 1271.58333,142.117188 1271.88281,142.117188 C1271.88281,142.416667 1271.88281,142.641276 1271.88281,142.791016 C1271.88281,142.940755 1271.88281,143.165365 1271.88281,143.464844 C1271.88281,143.614583 1271.88281,143.764323 1271.88281,143.914062 C1271.88281,144.063802 1271.88281,144.288411 1271.88281,144.587891 C1271.73307,144.587891 1271.50846,144.587891 1271.20898,144.587891 C1271.20898,144.288411 1271.28385,144.063802 1271.43359,143.914062 C1271.43359,143.764323 1271.43359,143.614583 1271.43359,143.464844 Z M1308.71875,146.609375 C1308.71875,146.160156 1308.71875,140.994141 1308.71875,140.095703 C1311.5638,140.844401 1315.75651,141.967448 1321.29688,143.464844 C1318.45182,144.213542 1314.25911,145.261719 1308.71875,146.609375 Z M1333.20117,70.3378906 C1333.05143,70.3378906 1332.97656,70.3378906 1332.97656,70.3378906 C1332.82682,70.3378906 1332.67708,70.2630208 1332.52734,70.1132813 C1332.3776,70.1132813 1332.30273,70.0384115 1332.30273,69.8886719 C1332.30273,69.7389323 1332.30273,69.5891927 1332.30273,69.4394531 C1332.30273,69.2897135 1332.30273,69.2148438 1332.30273,69.2148438 C1332.30273,69.0651042 1332.3776,68.9153646 1332.52734,68.765625 C1332.82682,68.4661458 1333.1263,68.1666667 1333.42578,67.8671875 C1333.875,67.4179688 1334.39909,66.96875 1334.99805,66.5195312 C1334.99805,66.3697917 1335.07292,66.2949219 1335.22266,66.2949219 C1335.22266,66.2949219 1335.29753,66.2200521 1335.44727,66.0703125 C1335.44727,66.0703125 1335.52214,66.0703125 1335.67188,66.0703125 C1335.82161,66.0703125 1335.89648,66.1451823 1335.89648,66.2949219 C1336.04622,66.2949219 1336.12109,66.2949219 1336.12109,66.2949219 C1336.27083,66.4446615 1336.3457,66.5195312 1336.3457,66.5195312 C1336.49544,66.6692708 1336.57031,66.7441406 1336.57031,66.7441406 C1336.57031,66.8938802 1336.57031,67.0436198 1336.57031,67.1933594 C1336.57031,68.9902344 1336.57031,71.3111979 1336.57031,74.15625 C1336.57031,76.8515625 1336.57031,80.0709635 1336.57031,83.8144531 C1336.57031,83.9641927 1336.57031,84.0390625 1336.57031,84.0390625 C1336.42057,84.1888021 1336.3457,84.3385417 1336.3457,84.4882813 C1336.19596,84.4882813 1336.04622,84.563151 1335.89648,84.7128906 C1335.74674,84.7128906 1335.67188,84.7128906 1335.67188,84.7128906 C1335.52214,84.7128906 1335.3724,84.7128906 1335.22266,84.7128906 C1335.07292,84.563151 1334.99805,84.4882813 1334.99805,84.4882813 C1334.84831,84.3385417 1334.77344,84.1888021 1334.77344,84.0390625 C1334.6237,84.0390625 1334.54883,83.9641927 1334.54883,83.8144531 C1334.54883,82.1673177 1334.54883,80.1458333 1334.54883,77.75 C1334.54883,75.3541667 1334.54883,72.5839844 1334.54883,69.4394531 C1334.54883,69.5891927 1334.47396,69.6640625 1334.32422,69.6640625 C1334.17448,69.8138021 1334.02474,69.9635417 1333.875,70.1132813 C1333.875,70.2630208 1333.80013,70.3378906 1333.65039,70.3378906 C1333.50065,70.3378906 1333.35091,70.3378906 1333.20117,70.3378906 Z M1272.33203,172.664062 C1272.48177,172.664062 1272.63151,172.664062 1272.78125,172.664062 C1272.93099,172.664062 1273.00586,172.738932 1273.00586,172.888672 C1273.1556,173.038411 1273.23047,173.113281 1273.23047,173.113281 C1273.23047,173.263021 1273.23047,173.41276 1273.23047,173.5625 C1273.23047,173.71224 1273.23047,173.861979 1273.23047,174.011719 C1273.23047,174.011719 1273.1556,174.086589 1273.00586,174.236328 C1272.85612,174.386068 1272.78125,174.460938 1272.78125,174.460938 C1272.63151,174.460938 1272.48177,174.460938 1272.33203,174.460938 C1271.58333,174.460938 1270.83464,174.460938 1270.08594,174.460938 C1269.1875,174.460938 1268.36393,174.460938 1267.61523,174.460938 C1266.86654,174.460938 1266.11784,174.460938 1265.36914,174.460938 C1264.4707,174.460938 1263.64714,174.460938 1262.89844,174.460938 C1262.89844,174.460938 1262.82357,174.460938 1262.67383,174.460938 C1262.67383,174.460938 1262.59896,174.460938 1262.44922,174.460938 C1262.44922,174.460938 1262.44922,174.460938 1262.44922,174.460938 C1262.29948,174.311198 1262.22461,174.236328 1262.22461,174.236328 C1262.22461,174.236328 1262.22461,174.161458 1262.22461,174.011719 C1262.07487,174.011719 1262,173.936849 1262,173.787109 C1262,173.787109 1262,173.787109 1262,173.787109 C1262,173.63737 1262,173.5625 1262,173.5625 C1262,173.5625 1262,173.5625 1262,173.5625 C1262,173.5625 1262,173.5625 1262,173.5625 C1262,173.41276 1262,173.263021 1262,173.113281 C1262.14974,172.813802 1262.22461,172.439453 1262.22461,171.990234 C1262.37435,171.541016 1262.59896,171.091797 1262.89844,170.642578 C1263.04818,170.04362 1263.34766,169.519531 1263.79688,169.070312 C1263.94661,168.770833 1264.09635,168.471354 1264.24609,168.171875 C1264.54557,167.872396 1264.84505,167.572917 1265.14453,167.273438 C1265.44401,166.973958 1265.74349,166.674479 1266.04297,166.375 C1266.49219,166.075521 1266.86654,165.776042 1267.16602,165.476562 C1268.06445,165.027344 1268.81315,164.578125 1269.41211,164.128906 C1269.86133,163.679688 1270.23568,163.230469 1270.53516,162.78125 C1270.6849,162.481771 1270.83464,162.107422 1270.98438,161.658203 C1270.98438,161.358724 1270.98438,161.059245 1270.98438,160.759766 C1270.98438,160.610026 1270.98438,160.535156 1270.98438,160.535156 C1270.98438,160.385417 1270.98438,160.235677 1270.98438,160.085938 C1270.98438,160.085938 1270.98438,160.011068 1270.98438,159.861328 C1270.98438,159.711589 1270.90951,159.561849 1270.75977,159.412109 C1270.75977,159.26237 1270.6849,159.11263 1270.53516,158.962891 C1270.38542,158.663411 1270.16081,158.438802 1269.86133,158.289062 C1269.56185,158.139323 1269.26237,158.064453 1268.96289,158.064453 C1268.66341,157.914714 1268.21419,157.839844 1267.61523,157.839844 C1267.31576,157.839844 1267.01628,157.914714 1266.7168,158.064453 C1266.41732,158.064453 1266.11784,158.139323 1265.81836,158.289062 C1265.51888,158.438802 1265.29427,158.663411 1265.14453,158.962891 C1264.84505,159.11263 1264.62044,159.412109 1264.4707,159.861328 C1264.4707,159.861328 1264.39583,159.936198 1264.24609,160.085938 C1264.24609,160.235677 1264.17122,160.310547 1264.02148,160.310547 C1263.87174,160.310547 1263.72201,160.310547 1263.57227,160.310547 C1263.42253,160.310547 1263.34766,160.310547 1263.34766,160.310547 C1263.19792,160.160807 1263.04818,160.085938 1262.89844,160.085938 C1262.89844,159.936198 1262.82357,159.786458 1262.67383,159.636719 C1262.67383,159.486979 1262.67383,159.412109 1262.67383,159.412109 C1262.67383,159.26237 1262.7487,159.11263 1262.89844,158.962891 C1263.04818,158.513672 1263.27279,158.064453 1263.57227,157.615234 C1263.87174,157.315755 1264.24609,157.016276 1264.69531,156.716797 C1265.14453,156.417318 1265.59375,156.192708 1266.04297,156.042969 C1266.49219,156.042969 1267.01628,156.042969 1267.61523,156.042969 C1268.66341,156.042969 1269.48698,156.117839 1270.08594,156.267578 C1270.83464,156.567057 1271.43359,156.941406 1271.88281,157.390625 C1272.33203,157.989583 1272.63151,158.588542 1272.78125,159.1875 C1272.93099,159.636719 1273.00586,160.160807 1273.00586,160.759766 C1273.00586,161.358724 1272.93099,161.957682 1272.78125,162.556641 C1272.63151,163.005859 1272.33203,163.529948 1271.88281,164.128906 C1271.58333,164.578125 1271.13411,165.102214 1270.53516,165.701172 C1269.9362,166.150391 1269.1875,166.674479 1268.28906,167.273438 C1267.6901,167.572917 1267.09115,168.022135 1266.49219,168.621094 C1266.04297,169.070312 1265.66862,169.519531 1265.36914,169.96875 C1265.06966,170.567708 1264.84505,171.091797 1264.69531,171.541016 C1264.39583,171.840495 1264.24609,172.214844 1264.24609,172.664062 C1265.14453,172.664062 1266.26758,172.664062 1267.61523,172.664062 C1268.96289,172.664062 1270.53516,172.664062 1272.33203,172.664062 Z" transform="translate(-1253)"/></svg>