<svg xmlns="http://www.w3.org/2000/svg" width="120" height="203" viewBox="0 0 120 203"><path fill="#131313" d="M1373.07746,93.2158203 C1375.13801,93.2158203 1376.85513,93.9713542 1378.22883,95.4824219 C1379.7399,96.9934896 1380.49543,98.7792969 1380.49543,100.839844 C1380.49543,113.477865 1380.49543,132.572266 1380.49543,158.123047 C1380.49543,160.183594 1379.7399,161.969401 1378.22883,163.480469 C1376.85513,164.854167 1375.13801,165.541016 1373.07746,165.541016 C1371.01691,165.541016 1369.23111,164.854167 1367.72004,163.480469 C1366.20897,161.969401 1365.45344,160.183594 1365.45344,158.123047 C1365.45344,156.611979 1365.45344,154.414063 1365.45344,151.529297 C1359.82128,157.985677 1353.91438,161.900716 1347.73273,163.274414 C1341.55109,164.785482 1337.36132,165.541016 1335.1634,165.541016 C1335.02603,165.541016 1334.95734,165.541016 1334.95734,165.541016 C1334.81997,165.541016 1334.75129,165.541016 1334.75129,165.541016 C1327.47069,165.541016 1320.67089,164.167318 1314.35188,161.419922 C1308.17023,158.672526 1302.67544,154.620117 1297.8675,149.262695 C1291.41112,141.982096 1286.87792,132.984375 1284.26789,122.269531 C1282.61945,115.538411 1281.79523,108.463867 1281.79523,101.045898 C1281.79523,96.6500651 1282.06997,92.1855469 1282.61945,87.6523437 C1283.85578,78.0364583 1286.12238,69.2447917 1289.41926,61.2773438 C1292.57876,53.172526 1296.69986,46.2353516 1301.78254,40.4658203 C1306.45311,34.9710286 1311.74185,30.7125651 1317.64875,27.6904297 C1323.41828,24.8056641 1329.2565,23.3632812 1335.1634,23.3632812 C1339.42186,23.3632812 1344.98534,23.9814453 1351.85383,25.2177734 C1358.85969,26.5914714 1365.1787,29.8196615 1370.81086,34.9023438 C1372.32193,36.2760417 1373.14615,37.9931641 1373.28352,40.0537109 C1373.28352,42.1142578 1372.59667,43.9000651 1371.22297,45.4111328 C1369.84927,46.9222005 1368.13215,47.7464193 1366.0716,47.8837891 C1364.01105,48.0211589 1362.22525,47.4029948 1360.71418,46.0292969 C1356.86783,42.4576823 1352.26594,40.2597656 1346.90852,39.4355469 C1341.55109,38.6113281 1337.63605,38.1992188 1335.1634,38.1992188 C1328.56965,38.1992188 1322.66275,40.671875 1317.4427,45.6171875 C1312.22264,50.5625 1307.96418,56.6754557 1304.6673,63.9560547 C1302.8815,67.9397786 1301.37043,72.1295573 1300.1341,76.5253906 C1298.89777,80.7838542 1298.00487,85.1110026 1297.45539,89.5068359 C1296.21906,99.6722005 1296.56249,109.150716 1298.48566,117.942383 C1300.54621,126.59668 1304.04914,133.671224 1308.99445,139.166016 C1312.4287,143.01237 1316.34374,145.897135 1320.73957,147.820313 C1325.1354,149.74349 1329.87466,150.705078 1334.95734,150.705078 C1337.15526,150.705078 1340.52082,149.949544 1345.05402,148.438477 C1349.58723,146.927409 1353.70832,143.287109 1357.4173,137.517578 C1359.34048,134.358073 1361.0576,130.374349 1362.56867,125.566406 C1363.94237,120.895833 1364.83527,115.126302 1365.24738,108.257812 C1360.30207,108.257812 1352.95279,108.257812 1343.19953,108.257812 C1341.13898,108.257812 1339.35318,107.502279 1337.84211,105.991211 C1336.33104,104.617513 1335.57551,102.900391 1335.57551,100.839844 C1335.57551,98.7792969 1336.33104,96.9934896 1337.84211,95.4824219 C1339.35318,93.9713542 1341.13898,93.2158203 1343.19953,93.2158203 C1348.14484,93.2158203 1353.09016,93.2158203 1358.03547,93.2158203 C1363.11815,93.2158203 1368.13215,93.2158203 1373.07746,93.2158203 Z M1390.18,82.421875 C1390.18,82.421875 1390.18,82.421875 1390.18,82.421875 C1390.18,96.4335938 1390.18,117.588542 1390.18,145.886719 C1389.63052,145.886719 1388.94367,145.886719 1388.11945,145.886719 C1388.11945,132.14974 1388.11945,111.681641 1388.11945,84.4824219 C1380.01464,84.4824219 1367.85741,84.4824219 1351.64777,84.4824219 C1351.64777,84.3450521 1351.64777,84.1389974 1351.64777,83.8642578 C1351.64777,83.726888 1351.64777,83.5895182 1351.64777,83.4521484 C1351.64777,83.3147786 1351.64777,83.108724 1351.64777,82.8339844 C1351.64777,82.6966146 1351.64777,82.5592448 1351.64777,82.421875 C1357.96678,82.421875 1364.35448,82.421875 1370.81086,82.421875 C1377.26724,82.421875 1383.72362,82.421875 1390.18,82.421875 Z M1347.11457,87.3671875 C1348.07616,87.3671875 1348.90038,87.0924479 1349.58723,86.5429688 C1350.27408,85.9934896 1350.75487,85.3066406 1351.02961,84.4824219 C1351.16698,84.4824219 1351.30435,84.4824219 1351.44172,84.4824219 C1351.30435,85.4440104 1350.82355,86.2682292 1349.99934,86.9550781 C1349.17512,87.6419271 1348.21353,87.9853516 1347.11457,87.9853516 C1345.87824,87.9853516 1344.84797,87.5045573 1344.02375,86.5429688 C1343.19953,85.71875 1342.78742,84.6884766 1342.78742,83.4521484 C1342.78742,82.2158203 1343.19953,81.116862 1344.02375,80.1552734 C1344.84797,79.3310547 1345.87824,78.9189453 1347.11457,78.9189453 C1348.21353,78.9189453 1349.17512,79.2623698 1349.99934,79.9492188 C1350.82355,80.6360677 1351.30435,81.4602865 1351.44172,82.421875 C1351.44172,82.421875 1351.30435,82.421875 1351.02961,82.421875 C1350.75487,81.5976562 1350.27408,80.9108073 1349.58723,80.3613281 C1348.90038,79.811849 1348.07616,79.5371094 1347.11457,79.5371094 C1346.01561,79.5371094 1345.12271,79.8805339 1344.43586,80.5673828 C1343.61164,81.3916016 1343.19953,82.3531901 1343.19953,83.4521484 C1343.19953,84.5511068 1343.61164,85.4440104 1344.43586,86.1308594 C1345.12271,86.9550781 1346.01561,87.3671875 1347.11457,87.3671875 Z M1351.64777,82.421875 C1351.64777,82.5592448 1351.64777,82.6966146 1351.64777,82.8339844 C1351.64777,83.108724 1351.64777,83.3147786 1351.64777,83.4521484 C1351.64777,83.5895182 1351.64777,83.726888 1351.64777,83.8642578 C1351.64777,84.1389974 1351.64777,84.3450521 1351.64777,84.4824219 C1351.5104,84.4824219 1351.30435,84.4824219 1351.02961,84.4824219 C1351.02961,84.3450521 1351.09829,84.1389974 1351.23566,83.8642578 C1351.23566,83.726888 1351.23566,83.5895182 1351.23566,83.4521484 C1351.23566,83.3147786 1351.16698,83.108724 1351.02961,82.8339844 C1351.02961,82.6966146 1351.02961,82.5592448 1351.02961,82.421875 C1351.16698,82.421875 1351.23566,82.421875 1351.23566,82.421875 C1351.37303,82.421875 1351.5104,82.421875 1351.64777,82.421875 Z M1347.11457,79.5371094 C1348.07616,79.5371094 1348.90038,79.811849 1349.58723,80.3613281 C1350.27408,80.9108073 1350.75487,81.5976562 1351.02961,82.421875 C1350.89224,82.421875 1350.68618,82.421875 1350.41145,82.421875 C1350.27408,81.735026 1349.86197,81.116862 1349.17512,80.5673828 C1348.62564,80.1552734 1347.93879,79.9492188 1347.11457,79.9492188 C1347.38931,79.9492188 1347.52668,79.9492188 1347.52668,79.9492188 C1347.66405,79.9492188 1347.73273,79.9492188 1347.73273,79.9492188 C1347.73273,79.9492188 1347.66405,79.9492188 1347.52668,79.9492188 C1347.52668,79.9492188 1347.38931,79.9492188 1347.11457,79.9492188 C1346.9772,79.9492188 1346.83983,79.9492188 1346.70246,79.9492188 C1346.70246,79.9492188 1346.70246,79.9492188 1346.70246,79.9492188 C1346.70246,79.9492188 1346.70246,79.9492188 1346.70246,79.9492188 C1346.83983,79.9492188 1346.9772,79.9492188 1347.11457,79.9492188 C1346.15298,79.9492188 1345.39745,80.2926432 1344.84797,80.9794922 C1344.16112,81.6663411 1343.8177,82.4905599 1343.8177,83.4521484 C1343.8177,84.413737 1344.16112,85.2379557 1344.84797,85.9248047 C1345.39745,86.6116536 1346.15298,86.9550781 1347.11457,86.9550781 C1347.93879,86.9550781 1348.62564,86.6803385 1349.17512,86.1308594 C1349.86197,85.71875 1350.27408,85.1692708 1350.41145,84.4824219 C1350.54882,84.4824219 1350.75487,84.4824219 1351.02961,84.4824219 C1350.75487,85.3066406 1350.27408,85.9934896 1349.58723,86.5429688 C1348.90038,87.0924479 1348.07616,87.3671875 1347.11457,87.3671875 C1346.01561,87.3671875 1345.12271,86.9550781 1344.43586,86.1308594 C1343.61164,85.4440104 1343.19953,84.5511068 1343.19953,83.4521484 C1343.19953,82.3531901 1343.61164,81.3916016 1344.43586,80.5673828 C1345.12271,79.8805339 1346.01561,79.5371094 1347.11457,79.5371094 Z M1350.6175,83.4521484 C1350.6175,83.1774089 1350.6175,82.9713542 1350.6175,82.8339844 C1350.6175,82.6966146 1350.54882,82.5592448 1350.41145,82.421875 C1350.54882,82.421875 1350.75487,82.421875 1351.02961,82.421875 C1351.02961,82.5592448 1351.02961,82.6966146 1351.02961,82.8339844 C1351.16698,83.108724 1351.23566,83.3147786 1351.23566,83.4521484 C1351.23566,83.5895182 1351.16698,83.726888 1351.02961,83.8642578 C1351.02961,84.1389974 1351.02961,84.3450521 1351.02961,84.4824219 C1350.89224,84.4824219 1350.68618,84.4824219 1350.41145,84.4824219 C1350.54882,84.3450521 1350.6175,84.1389974 1350.6175,83.8642578 C1350.6175,83.726888 1350.6175,83.5895182 1350.6175,83.4521484 Z M1390.18,147.947266 C1389.63052,147.947266 1388.87499,147.947266 1387.9134,147.947266 C1387.9134,147.397786 1387.9134,146.710938 1387.9134,145.886719 C1387.50129,145.886719 1386.88313,145.886719 1386.05891,145.886719 C1386.74576,148.359375 1387.77603,152.137044 1389.14973,157.219727 C1389.69921,154.74707 1390.66079,150.969401 1392.03449,145.886719 C1391.62238,145.886719 1391.00422,145.886719 1390.18,145.886719 C1390.18,146.298828 1390.18,146.985677 1390.18,147.947266 Z M1387.9134,147.947266 C1388.46288,147.947266 1389.21841,147.947266 1390.18,147.947266 C1390.18,147.397786 1390.18,146.710938 1390.18,145.886719 C1389.63052,145.886719 1388.87499,145.886719 1387.9134,145.886719 C1387.9134,146.298828 1387.9134,146.985677 1387.9134,147.947266 Z M1334.75129,14.4238281 C1329.39387,14.4238281 1324.03645,15.4541016 1318.67902,17.5146484 C1313.3216,19.5751953 1308.3076,22.5286458 1303.63703,26.375 C1303.22492,26.1002604 1302.74413,25.6194661 1302.19465,24.9326172 C1307.13996,20.8115234 1312.36001,17.7207031 1317.8548,15.6601563 C1323.48697,13.4622396 1329.11913,12.3632812 1334.75129,12.3632812 C1338.73501,12.3632812 1344.02375,12.9127604 1350.6175,14.0117187 C1357.07388,14.9733073 1363.46158,17.3772786 1369.78059,21.2236328 C1369.78059,21.2236328 1369.7119,21.2923177 1369.57453,21.4296875 C1369.57453,21.5670573 1369.50585,21.6357422 1369.36848,21.6357422 C1369.23111,21.9104818 1369.09374,22.1165365 1368.95637,22.2539063 C1368.819,22.5286458 1368.75031,22.8033854 1368.75031,23.078125 C1362.56867,19.3691406 1356.31835,16.9651693 1349.99934,15.8662109 C1343.68033,14.9046224 1338.59764,14.4238281 1334.75129,14.4238281 Z M1303.63703,26.375 C1303.91177,26.6497396 1304.32388,27.1305339 1304.87336,27.8173828 C1302.67544,29.0537109 1299.2412,30.976888 1294.57063,33.5869141 C1295.94432,31.3889974 1297.93618,28.0234375 1300.54621,23.4902344 C1300.95832,23.764974 1301.5078,24.2457682 1302.19465,24.9326172 C1301.91991,25.069987 1301.64517,25.2760417 1301.37043,25.5507812 C1301.09569,25.8255208 1300.82095,26.0315755 1300.54621,26.1689453 C1300.82095,26.5810547 1301.30174,27.1305339 1301.98859,27.8173828 C1302.26333,27.5426432 1302.53807,27.3365885 1302.81281,27.1992188 C1303.08755,26.9244792 1303.36229,26.6497396 1303.63703,26.375 Z M1301.98859,27.8173828 C1301.57648,27.4052734 1301.09569,26.8557943 1300.54621,26.1689453 C1300.82095,25.8942057 1301.09569,25.688151 1301.37043,25.5507812 C1301.64517,25.2760417 1301.91991,25.069987 1302.19465,24.9326172 C1302.46939,25.2073568 1302.95018,25.688151 1303.63703,26.375 C1303.36229,26.6497396 1303.08755,26.8557943 1302.81281,26.9931641 C1302.53807,27.2679036 1302.26333,27.5426432 1301.98859,27.8173828 Z M1375.34406,21.4296875 C1374.65721,20.8802083 1373.83299,20.6054687 1372.87141,20.6054687 C1371.90982,20.6054687 1371.01691,20.8802083 1370.1927,21.4296875 C1370.1927,21.4296875 1370.12401,21.4296875 1369.98664,21.4296875 C1369.98664,21.2923177 1369.91796,21.2236328 1369.78059,21.2236328 C1370.6048,20.5367839 1371.56639,20.1246745 1372.66535,19.9873047 C1373.76431,19.9873047 1374.79458,20.3307292 1375.75617,21.0175781 C1376.71776,21.8417969 1377.26724,22.8720703 1377.40461,24.1083984 C1377.54198,25.3447266 1377.19855,26.4436849 1376.37434,27.4052734 C1375.55012,28.366862 1374.51984,28.9163411 1373.28352,29.0537109 C1372.04719,29.1910807 1370.94823,28.8476562 1369.98664,28.0234375 C1369.29979,27.4739583 1368.819,26.7184245 1368.54426,25.7568359 C1368.26952,24.7952474 1368.3382,23.9023437 1368.75031,23.078125 C1368.75031,23.078125 1368.819,23.078125 1368.95637,23.078125 C1368.95637,23.2154948 1369.02505,23.2841797 1369.16242,23.2841797 C1368.88768,23.9710286 1368.88768,24.7265625 1369.16242,25.5507812 C1369.29979,26.375 1369.7119,27.061849 1370.39875,27.6113281 C1371.22297,28.2981771 1372.18456,28.5729167 1373.28352,28.4355469 C1374.38247,28.2981771 1375.27538,27.8173828 1375.96223,26.9931641 C1376.64908,26.1689453 1376.92382,25.2073568 1376.78645,24.1083984 C1376.64908,23.0094401 1376.16828,22.1165365 1375.34406,21.4296875 Z M1369.98664,28.0234375 C1369.98664,28.0234375 1369.91796,27.9547526 1369.78059,27.8173828 C1369.78059,27.8173828 1369.7119,27.8173828 1369.57453,27.8173828 C1369.7119,27.8173828 1369.78059,27.8173828 1369.78059,27.8173828 C1369.91796,27.8173828 1369.98664,27.8860677 1369.98664,28.0234375 Z M1368.75031,23.078125 C1368.75031,22.8033854 1368.819,22.5286458 1368.95637,22.2539062 C1369.09374,22.1165365 1369.23111,21.9104818 1369.36848,21.6357422 C1369.50585,21.6357422 1369.57453,21.5670573 1369.57453,21.4296875 C1369.7119,21.4296875 1369.78059,21.3610026 1369.78059,21.2236328 C1369.91796,21.2236328 1369.98664,21.2923177 1369.98664,21.4296875 C1370.12401,21.4296875 1370.26138,21.4296875 1370.39875,21.4296875 C1370.26138,21.5670573 1370.12401,21.7044271 1369.98664,21.8417969 C1369.98664,21.8417969 1369.91796,21.9104818 1369.78059,22.0478516 C1369.64322,22.1852214 1369.50585,22.391276 1369.36848,22.6660156 C1369.23111,22.8033854 1369.16242,23.0094401 1369.16242,23.2841797 C1369.02505,23.2841797 1368.95637,23.2154948 1368.95637,23.078125 C1368.819,23.078125 1368.75031,23.078125 1368.75031,23.078125 Z M1370.39875,27.6113281 C1369.7119,27.061849 1369.23111,26.375 1368.95637,25.5507813 C1368.819,24.8639323 1368.88768,24.1083984 1369.16242,23.2841797 C1369.16242,23.2841797 1369.23111,23.3528646 1369.36848,23.4902344 C1369.36848,23.4902344 1369.43716,23.4902344 1369.57453,23.4902344 C1369.43716,24.1770833 1369.43716,24.8639323 1369.57453,25.5507813 C1369.7119,26.2376302 1370.12401,26.7871094 1370.81086,27.1992188 C1371.49771,27.7486979 1372.32193,28.0234375 1373.28352,28.0234375 C1374.2451,27.8860677 1375.00064,27.4052734 1375.55012,26.5810547 C1376.0996,25.8942057 1376.37434,25.069987 1376.37434,24.1083984 C1376.23697,23.1468099 1375.75617,22.391276 1374.93195,21.8417969 C1375.06932,21.9791667 1375.20669,22.0478516 1375.34406,22.0478516 C1375.34406,22.1852214 1375.34406,22.2539063 1375.34406,22.2539063 C1375.34406,22.2539063 1375.34406,22.1852214 1375.34406,22.0478516 C1375.20669,22.0478516 1375.06932,21.9791667 1374.93195,21.8417969 C1374.79458,21.7044271 1374.7259,21.6357422 1374.7259,21.6357422 C1374.58853,21.4983724 1374.51984,21.4296875 1374.51984,21.4296875 C1374.51984,21.4296875 1374.58853,21.4983724 1374.7259,21.6357422 C1374.7259,21.6357422 1374.79458,21.7044271 1374.93195,21.8417969 C1374.38247,21.2923177 1373.69563,21.0175781 1372.87141,21.0175781 C1372.04719,21.0175781 1371.36034,21.2923177 1370.81086,21.8417969 C1370.67349,21.7044271 1370.6048,21.6357422 1370.6048,21.6357422 C1370.46743,21.6357422 1370.33007,21.5670573 1370.1927,21.4296875 C1371.01691,20.8802083 1371.90982,20.6054688 1372.87141,20.6054688 C1373.83299,20.6054688 1374.65721,20.8802083 1375.34406,21.4296875 C1376.16828,22.1165365 1376.64908,23.0094401 1376.78645,24.1083984 C1376.92382,25.2073568 1376.64908,26.1689453 1375.96223,26.9931641 C1375.27538,27.8173828 1374.38247,28.2981771 1373.28352,28.4355469 C1372.18456,28.5729167 1371.22297,28.2981771 1370.39875,27.6113281 Z M1370.1927,22.4599609 C1370.05533,22.5973307 1369.91796,22.7347005 1369.78059,22.8720703 C1369.78059,23.1468099 1369.7119,23.3528646 1369.57453,23.4902344 C1369.57453,23.4902344 1369.50585,23.4902344 1369.36848,23.4902344 C1369.23111,23.3528646 1369.16242,23.2841797 1369.16242,23.2841797 C1369.16242,23.0094401 1369.23111,22.8033854 1369.36848,22.6660156 C1369.50585,22.391276 1369.64322,22.1852214 1369.78059,22.0478516 C1369.91796,21.9104818 1369.98664,21.8417969 1369.98664,21.8417969 C1370.12401,21.7044271 1370.26138,21.5670573 1370.39875,21.4296875 C1370.39875,21.5670573 1370.46743,21.6357422 1370.6048,21.6357422 C1370.6048,21.6357422 1370.67349,21.7044271 1370.81086,21.8417969 C1370.67349,21.8417969 1370.53612,21.9104818 1370.39875,22.0478516 C1370.39875,22.1852214 1370.33007,22.3225911 1370.1927,22.4599609 Z M1381.93781,47.1865234 C1381.80044,47.0491536 1381.73176,46.9117839 1381.73176,46.7744141 C1381.73176,46.6370443 1381.73176,46.5683594 1381.73176,46.5683594 C1381.73176,45.0572917 1381.73176,43.2027995 1381.73176,41.0048828 C1381.73176,38.8069661 1381.73176,36.265625 1381.73176,33.3808594 C1381.59439,33.3808594 1381.45702,33.4495443 1381.31965,33.5869141 C1381.31965,33.7242839 1381.25096,33.8616536 1381.11359,33.9990234 C1380.97622,34.1363932 1380.83885,34.2050781 1380.70148,34.2050781 C1380.56411,34.2050781 1380.49543,34.2050781 1380.49543,34.2050781 C1380.35806,34.2050781 1380.22069,34.2050781 1380.08332,34.2050781 C1379.94595,34.2050781 1379.80858,34.1363932 1379.67121,33.9990234 C1379.67121,33.8616536 1379.60253,33.7929688 1379.46516,33.7929688 C1379.46516,33.655599 1379.46516,33.5182292 1379.46516,33.3808594 C1379.46516,33.2434896 1379.46516,33.1061198 1379.46516,32.96875 C1379.60253,32.96875 1379.67121,32.9000651 1379.67121,32.7626953 C1379.94595,32.4879557 1380.28938,32.1445312 1380.70148,31.7324219 C1380.97622,31.4576823 1381.38833,31.0455729 1381.93781,30.4960938 C1381.93781,30.4960938 1382.0065,30.4960938 1382.14387,30.4960938 C1382.14387,30.358724 1382.21255,30.2900391 1382.34992,30.2900391 C1382.34992,30.2900391 1382.41861,30.2900391 1382.55598,30.2900391 C1382.55598,30.2900391 1382.55598,30.2900391 1382.55598,30.2900391 C1382.55598,30.2900391 1382.62466,30.2900391 1382.76203,30.2900391 C1382.76203,30.2900391 1382.83072,30.2900391 1382.96809,30.2900391 C1382.96809,30.4274089 1383.03677,30.4960938 1383.17414,30.4960938 C1383.17414,30.6334635 1383.24283,30.7021484 1383.3802,30.7021484 C1383.3802,30.8395182 1383.3802,30.9082031 1383.3802,30.9082031 C1383.3802,31.0455729 1383.3802,31.1142578 1383.3802,31.1142578 C1383.3802,32.9000651 1383.3802,35.0292969 1383.3802,37.5019531 C1383.3802,40.1119792 1383.3802,43.1341146 1383.3802,46.5683594 C1383.3802,46.5683594 1383.3802,46.6370443 1383.3802,46.7744141 C1383.3802,46.9117839 1383.31151,47.0491536 1383.17414,47.1865234 C1383.03677,47.1865234 1382.96809,47.2552083 1382.96809,47.3925781 C1382.83072,47.3925781 1382.69335,47.3925781 1382.55598,47.3925781 C1382.41861,47.3925781 1382.28124,47.3925781 1382.14387,47.3925781 C1382.14387,47.2552083 1382.07518,47.1865234 1381.93781,47.1865234 Z M1334.54523,80.1552734 C1335.23208,79.7431641 1335.85025,79.3310547 1336.39973,78.9189453 C1336.94921,78.5068359 1337.29263,78.0947266 1337.43,77.6826172 C1337.70474,77.4078776 1337.84211,77.0644531 1337.84211,76.6523438 C1337.97948,76.3776042 1338.04816,76.1028646 1338.04816,75.828125 C1338.04816,75.6907552 1338.04816,75.6220703 1338.04816,75.6220703 C1338.04816,75.4847005 1338.04816,75.3473307 1338.04816,75.2099609 C1338.04816,75.2099609 1337.97948,75.141276 1337.84211,75.0039062 C1337.84211,74.8665365 1337.84211,74.7291667 1337.84211,74.5917969 C1337.70474,74.4544271 1337.56737,74.3170573 1337.43,74.1796875 C1337.29263,73.9049479 1337.15526,73.6988932 1337.01789,73.5615234 C1336.74315,73.4241536 1336.39973,73.3554688 1335.98762,73.3554688 C1335.71288,73.218099 1335.36945,73.1494141 1334.95734,73.1494141 C1334.54523,73.1494141 1334.20181,73.218099 1333.92707,73.3554688 C1333.65233,73.3554688 1333.37759,73.4241536 1333.10285,73.5615234 C1332.96548,73.6988932 1332.75943,73.9049479 1332.48469,74.1796875 C1332.34732,74.3170573 1332.20995,74.5917969 1332.07258,75.0039062 C1332.07258,75.0039062 1332.00389,75.0725911 1331.86652,75.2099609 C1331.72915,75.3473307 1331.59178,75.4160156 1331.45441,75.4160156 C1331.45441,75.4160156 1331.38573,75.4160156 1331.24836,75.4160156 C1331.11099,75.4160156 1330.97362,75.4160156 1330.83625,75.4160156 C1330.69888,75.2786458 1330.6302,75.2099609 1330.6302,75.2099609 C1330.49283,75.0725911 1330.42414,74.9352214 1330.42414,74.7978516 C1330.42414,74.6604818 1330.42414,74.5917969 1330.42414,74.5917969 C1330.42414,74.4544271 1330.42414,74.3170573 1330.42414,74.1796875 C1330.56151,73.7675781 1330.83625,73.3554688 1331.24836,72.9433594 C1331.5231,72.6686198 1331.86652,72.3938802 1332.27863,72.1191406 C1332.55337,71.844401 1332.96548,71.6383464 1333.51496,71.5009766 C1333.92707,71.5009766 1334.40786,71.5009766 1334.95734,71.5009766 C1335.78156,71.5009766 1336.5371,71.5696615 1337.22395,71.7070312 C1337.91079,71.9817708 1338.39159,72.3938802 1338.66633,72.9433594 C1339.07844,73.3554688 1339.35318,73.836263 1339.49055,74.3857422 C1339.76529,74.7978516 1339.90266,75.2786458 1339.90266,75.828125 C1339.90266,76.3776042 1339.76529,76.9270833 1339.49055,77.4765625 C1339.35318,78.0260417 1339.14712,78.5068359 1338.87238,78.9189453 C1338.46027,79.3310547 1337.97948,79.811849 1337.43,80.3613281 C1336.88052,80.7734375 1336.19367,81.2542318 1335.36945,81.8037109 C1334.81997,82.2158203 1334.33918,82.6279297 1333.92707,83.0400391 C1333.37759,83.4521484 1332.96548,83.8642578 1332.69074,84.2763672 C1332.416,84.8258464 1332.20995,85.3066406 1332.07258,85.71875 C1331.93521,86.1308594 1331.79784,86.4742839 1331.66047,86.7490234 C1332.48469,86.7490234 1333.51496,86.7490234 1334.75129,86.7490234 C1335.98762,86.7490234 1337.43,86.7490234 1339.07844,86.7490234 C1339.21581,86.7490234 1339.35318,86.7490234 1339.49055,86.7490234 C1339.62792,86.7490234 1339.6966,86.8177083 1339.6966,86.9550781 C1339.83397,87.0924479 1339.90266,87.1611328 1339.90266,87.1611328 C1340.04003,87.2985026 1340.10871,87.4358724 1340.10871,87.5732422 C1340.10871,87.710612 1340.04003,87.8479818 1339.90266,87.9853516 C1339.90266,87.9853516 1339.83397,88.0540365 1339.6966,88.1914063 C1339.6966,88.328776 1339.62792,88.3974609 1339.49055,88.3974609 C1339.35318,88.3974609 1339.21581,88.3974609 1339.07844,88.3974609 C1338.39159,88.3974609 1337.70474,88.3974609 1337.01789,88.3974609 C1336.33104,88.3974609 1335.64419,88.3974609 1334.95734,88.3974609 C1334.13313,88.3974609 1333.37759,88.3974609 1332.69074,88.3974609 C1332.00389,88.3974609 1331.31704,88.3974609 1330.6302,88.3974609 C1330.49283,88.3974609 1330.42414,88.3974609 1330.42414,88.3974609 C1330.28677,88.3974609 1330.21809,88.3974609 1330.21809,88.3974609 C1330.21809,88.3974609 1330.1494,88.3974609 1330.01203,88.3974609 C1330.01203,88.2600911 1330.01203,88.1914063 1330.01203,88.1914063 C1329.87466,88.1914063 1329.80598,88.1227214 1329.80598,87.9853516 C1329.80598,87.9853516 1329.80598,87.9853516 1329.80598,87.9853516 C1329.80598,87.8479818 1329.73729,87.7792969 1329.59992,87.7792969 C1329.59992,87.6419271 1329.59992,87.5732422 1329.59992,87.5732422 C1329.59992,87.5732422 1329.59992,87.5732422 1329.59992,87.5732422 C1329.59992,87.5732422 1329.59992,87.5732422 1329.59992,87.5732422 C1329.59992,87.4358724 1329.66861,87.2985026 1329.80598,87.1611328 C1329.80598,86.8863932 1329.87466,86.5429688 1330.01203,86.1308594 C1330.01203,85.71875 1330.1494,85.3066406 1330.42414,84.8945312 C1330.56151,84.4824219 1330.83625,84.0016276 1331.24836,83.4521484 C1331.38573,83.1774089 1331.59178,82.9026693 1331.86652,82.6279297 C1332.00389,82.3531901 1332.20995,82.0784505 1332.48469,81.8037109 C1332.75943,81.5289714 1333.10285,81.2542318 1333.51496,80.9794922 C1333.7897,80.7047526 1334.13313,80.430013 1334.54523,80.1552734 Z" transform="translate(-1271.5 -23.734)"/></svg>