<svg xmlns="http://www.w3.org/2000/svg" width="120" height="203" viewBox="0 0 120 203"><path fill="#131313" d="M1373.07746,130.481445 C1375.13801,130.481445 1376.85513,131.236979 1378.22883,132.748047 C1379.7399,134.259115 1380.49543,136.044922 1380.49543,138.105469 C1380.49543,150.74349 1380.49543,169.837891 1380.49543,195.388672 C1380.49543,197.449219 1379.7399,199.235026 1378.22883,200.746094 C1376.85513,202.119792 1375.13801,202.806641 1373.07746,202.806641 C1371.01691,202.806641 1369.23111,202.119792 1367.72004,200.746094 C1366.20897,199.235026 1365.45344,197.449219 1365.45344,195.388672 C1365.45344,193.877604 1365.45344,191.679688 1365.45344,188.794922 C1359.82128,195.251302 1353.91438,199.166341 1347.73273,200.540039 C1341.55109,202.051107 1337.36132,202.806641 1335.1634,202.806641 C1335.02603,202.806641 1334.95734,202.806641 1334.95734,202.806641 C1334.81997,202.806641 1334.75129,202.806641 1334.75129,202.806641 C1327.47069,202.806641 1320.67089,201.432943 1314.35188,198.685547 C1308.17023,195.938151 1302.67544,191.885742 1297.8675,186.52832 C1291.41112,179.247721 1286.87792,170.25 1284.26789,159.535156 C1282.61945,152.804036 1281.79523,145.729492 1281.79523,138.311523 C1281.79523,133.91569 1282.06997,129.451172 1282.61945,124.917969 C1283.85578,115.302083 1286.12238,106.510417 1289.41926,98.5429688 C1292.57876,90.438151 1296.69986,83.5009766 1301.78254,77.7314453 C1306.45311,72.2366536 1311.74185,67.9781901 1317.64875,64.9560547 C1323.41828,62.0712891 1329.2565,60.6289062 1335.1634,60.6289062 C1339.42186,60.6289062 1344.98534,61.2470703 1351.85383,62.4833984 C1358.85969,63.8570964 1365.1787,67.0852865 1370.81086,72.1679688 C1372.32193,73.5416667 1373.14615,75.2587891 1373.28352,77.3193359 C1373.28352,79.3798828 1372.59667,81.1656901 1371.22297,82.6767578 C1369.84927,84.1878255 1368.13215,85.0120443 1366.0716,85.1494141 C1364.01105,85.2867839 1362.22525,84.6686198 1360.71418,83.2949219 C1356.86783,79.7233073 1352.26594,77.5253906 1346.90852,76.7011719 C1341.55109,75.8769531 1337.63605,75.4648438 1335.1634,75.4648438 C1328.56965,75.4648438 1322.66275,77.9375 1317.4427,82.8828125 C1312.22264,87.828125 1307.96418,93.9410807 1304.6673,101.22168 C1302.8815,105.205404 1301.37043,109.395182 1300.1341,113.791016 C1298.89777,118.049479 1298.00487,122.376628 1297.45539,126.772461 C1296.21906,136.937826 1296.56249,146.416341 1298.48566,155.208008 C1300.54621,163.862305 1304.04914,170.936849 1308.99445,176.431641 C1312.4287,180.277995 1316.34374,183.16276 1320.73957,185.085938 C1325.1354,187.009115 1329.87466,187.970703 1334.95734,187.970703 C1337.15526,187.970703 1340.52082,187.215169 1345.05402,185.704102 C1349.58723,184.193034 1353.70832,180.552734 1357.4173,174.783203 C1359.34048,171.623698 1361.0576,167.639974 1362.56867,162.832031 C1363.94237,158.161458 1364.83527,152.391927 1365.24738,145.523437 C1360.30207,145.523437 1352.95279,145.523437 1343.19953,145.523437 C1341.13898,145.523437 1339.35318,144.767904 1337.84211,143.256836 C1336.33104,141.883138 1335.57551,140.166016 1335.57551,138.105469 C1335.57551,136.044922 1336.33104,134.259115 1337.84211,132.748047 C1339.35318,131.236979 1341.13898,130.481445 1343.19953,130.481445 C1348.14484,130.481445 1353.09016,130.481445 1358.03547,130.481445 C1363.11815,130.481445 1368.13215,130.481445 1373.07746,130.481445 Z M1390.18,119.6875 C1390.18,119.6875 1390.18,119.6875 1390.18,119.6875 C1390.18,133.699219 1390.18,154.854167 1390.18,183.152344 C1389.63052,183.152344 1388.94367,183.152344 1388.11945,183.152344 C1388.11945,169.415365 1388.11945,148.947266 1388.11945,121.748047 C1380.01464,121.748047 1367.85741,121.748047 1351.64777,121.748047 C1351.64777,121.610677 1351.64777,121.404622 1351.64777,121.129883 C1351.64777,120.992513 1351.64777,120.855143 1351.64777,120.717773 C1351.64777,120.580404 1351.64777,120.374349 1351.64777,120.099609 C1351.64777,119.96224 1351.64777,119.82487 1351.64777,119.6875 C1357.96678,119.6875 1364.35448,119.6875 1370.81086,119.6875 C1377.26724,119.6875 1383.72362,119.6875 1390.18,119.6875 Z M1347.11457,124.632812 C1348.07616,124.632812 1348.90038,124.358073 1349.58723,123.808594 C1350.27408,123.259115 1350.75487,122.572266 1351.02961,121.748047 C1351.16698,121.748047 1351.30435,121.748047 1351.44172,121.748047 C1351.30435,122.709635 1350.82355,123.533854 1349.99934,124.220703 C1349.17512,124.907552 1348.21353,125.250977 1347.11457,125.250977 C1345.87824,125.250977 1344.84797,124.770182 1344.02375,123.808594 C1343.19953,122.984375 1342.78742,121.954102 1342.78742,120.717773 C1342.78742,119.481445 1343.19953,118.382487 1344.02375,117.420898 C1344.84797,116.59668 1345.87824,116.18457 1347.11457,116.18457 C1348.21353,116.18457 1349.17512,116.527995 1349.99934,117.214844 C1350.82355,117.901693 1351.30435,118.725911 1351.44172,119.6875 C1351.44172,119.6875 1351.30435,119.6875 1351.02961,119.6875 C1350.75487,118.863281 1350.27408,118.176432 1349.58723,117.626953 C1348.90038,117.077474 1348.07616,116.802734 1347.11457,116.802734 C1346.01561,116.802734 1345.12271,117.146159 1344.43586,117.833008 C1343.61164,118.657227 1343.19953,119.618815 1343.19953,120.717773 C1343.19953,121.816732 1343.61164,122.709635 1344.43586,123.396484 C1345.12271,124.220703 1346.01561,124.632812 1347.11457,124.632812 Z M1351.64777,119.6875 C1351.64777,119.82487 1351.64777,119.96224 1351.64777,120.099609 C1351.64777,120.374349 1351.64777,120.580404 1351.64777,120.717773 C1351.64777,120.855143 1351.64777,120.992513 1351.64777,121.129883 C1351.64777,121.404622 1351.64777,121.610677 1351.64777,121.748047 C1351.5104,121.748047 1351.30435,121.748047 1351.02961,121.748047 C1351.02961,121.610677 1351.09829,121.404622 1351.23566,121.129883 C1351.23566,120.992513 1351.23566,120.855143 1351.23566,120.717773 C1351.23566,120.580404 1351.16698,120.374349 1351.02961,120.099609 C1351.02961,119.96224 1351.02961,119.82487 1351.02961,119.6875 C1351.16698,119.6875 1351.23566,119.6875 1351.23566,119.6875 C1351.37303,119.6875 1351.5104,119.6875 1351.64777,119.6875 Z M1347.11457,116.802734 C1348.07616,116.802734 1348.90038,117.077474 1349.58723,117.626953 C1350.27408,118.176432 1350.75487,118.863281 1351.02961,119.6875 C1350.89224,119.6875 1350.68618,119.6875 1350.41145,119.6875 C1350.27408,119.000651 1349.86197,118.382487 1349.17512,117.833008 C1348.62564,117.420898 1347.93879,117.214844 1347.11457,117.214844 C1347.38931,117.214844 1347.52668,117.214844 1347.52668,117.214844 C1347.66405,117.214844 1347.73273,117.214844 1347.73273,117.214844 C1347.73273,117.214844 1347.66405,117.214844 1347.52668,117.214844 C1347.52668,117.214844 1347.38931,117.214844 1347.11457,117.214844 C1346.9772,117.214844 1346.83983,117.214844 1346.70246,117.214844 C1346.70246,117.214844 1346.70246,117.214844 1346.70246,117.214844 C1346.70246,117.214844 1346.70246,117.214844 1346.70246,117.214844 C1346.83983,117.214844 1346.9772,117.214844 1347.11457,117.214844 C1346.15298,117.214844 1345.39745,117.558268 1344.84797,118.245117 C1344.16112,118.931966 1343.8177,119.756185 1343.8177,120.717773 C1343.8177,121.679362 1344.16112,122.503581 1344.84797,123.19043 C1345.39745,123.877279 1346.15298,124.220703 1347.11457,124.220703 C1347.93879,124.220703 1348.62564,123.945964 1349.17512,123.396484 C1349.86197,122.984375 1350.27408,122.434896 1350.41145,121.748047 C1350.54882,121.748047 1350.75487,121.748047 1351.02961,121.748047 C1350.75487,122.572266 1350.27408,123.259115 1349.58723,123.808594 C1348.90038,124.358073 1348.07616,124.632812 1347.11457,124.632812 C1346.01561,124.632812 1345.12271,124.220703 1344.43586,123.396484 C1343.61164,122.709635 1343.19953,121.816732 1343.19953,120.717773 C1343.19953,119.618815 1343.61164,118.657227 1344.43586,117.833008 C1345.12271,117.146159 1346.01561,116.802734 1347.11457,116.802734 Z M1350.6175,120.717773 C1350.6175,120.443034 1350.6175,120.236979 1350.6175,120.099609 C1350.6175,119.96224 1350.54882,119.82487 1350.41145,119.6875 C1350.54882,119.6875 1350.75487,119.6875 1351.02961,119.6875 C1351.02961,119.82487 1351.02961,119.96224 1351.02961,120.099609 C1351.16698,120.374349 1351.23566,120.580404 1351.23566,120.717773 C1351.23566,120.855143 1351.16698,120.992513 1351.02961,121.129883 C1351.02961,121.404622 1351.02961,121.610677 1351.02961,121.748047 C1350.89224,121.748047 1350.68618,121.748047 1350.41145,121.748047 C1350.54882,121.610677 1350.6175,121.404622 1350.6175,121.129883 C1350.6175,120.992513 1350.6175,120.855143 1350.6175,120.717773 Z M1390.18,185.212891 C1389.63052,185.212891 1388.87499,185.212891 1387.9134,185.212891 C1387.9134,184.663411 1387.9134,183.976562 1387.9134,183.152344 C1387.50129,183.152344 1386.88313,183.152344 1386.05891,183.152344 C1386.74576,185.625 1387.77603,189.402669 1389.14973,194.485352 C1389.69921,192.012695 1390.66079,188.235026 1392.03449,183.152344 C1391.62238,183.152344 1391.00422,183.152344 1390.18,183.152344 C1390.18,183.564453 1390.18,184.251302 1390.18,185.212891 Z M1387.9134,185.212891 C1388.46288,185.212891 1389.21841,185.212891 1390.18,185.212891 C1390.18,184.663411 1390.18,183.976562 1390.18,183.152344 C1389.63052,183.152344 1388.87499,183.152344 1387.9134,183.152344 C1387.9134,183.564453 1387.9134,184.251302 1387.9134,185.212891 Z M1334.75129,51.6894531 C1329.39387,51.6894531 1324.03645,52.7197266 1318.67902,54.7802734 C1313.3216,56.8408203 1308.3076,59.7942708 1303.63703,63.640625 C1303.22492,63.3658854 1302.74413,62.8850911 1302.19465,62.1982422 C1307.13996,58.0771484 1312.36001,54.9863281 1317.8548,52.9257812 C1323.48697,50.7278646 1329.11913,49.6289062 1334.75129,49.6289062 C1338.73501,49.6289062 1344.02375,50.1783854 1350.6175,51.2773437 C1357.07388,52.2389323 1363.46158,54.6429036 1369.78059,58.4892578 C1369.78059,58.4892578 1369.7119,58.5579427 1369.57453,58.6953125 C1369.57453,58.8326823 1369.50585,58.9013672 1369.36848,58.9013672 C1369.23111,59.1761068 1369.09374,59.3821615 1368.95637,59.5195313 C1368.819,59.7942708 1368.75031,60.0690104 1368.75031,60.34375 C1362.56867,56.6347656 1356.31835,54.2307943 1349.99934,53.1318359 C1343.68033,52.1702474 1338.59764,51.6894531 1334.75129,51.6894531 Z M1303.63703,63.640625 C1303.91177,63.9153646 1304.32388,64.3961589 1304.87336,65.0830078 C1302.67544,66.3193359 1299.2412,68.242513 1294.57063,70.8525391 C1295.94432,68.6546224 1297.93618,65.2890625 1300.54621,60.7558594 C1300.95832,61.030599 1301.5078,61.5113932 1302.19465,62.1982422 C1301.91991,62.335612 1301.64517,62.5416667 1301.37043,62.8164062 C1301.09569,63.0911458 1300.82095,63.2972005 1300.54621,63.4345703 C1300.82095,63.8466797 1301.30174,64.3961589 1301.98859,65.0830078 C1302.26333,64.8082682 1302.53807,64.6022135 1302.81281,64.4648438 C1303.08755,64.1901042 1303.36229,63.9153646 1303.63703,63.640625 Z M1301.98859,65.0830078 C1301.57648,64.6708984 1301.09569,64.1214193 1300.54621,63.4345703 C1300.82095,63.1598307 1301.09569,62.953776 1301.37043,62.8164062 C1301.64517,62.5416667 1301.91991,62.335612 1302.19465,62.1982422 C1302.46939,62.4729818 1302.95018,62.953776 1303.63703,63.640625 C1303.36229,63.9153646 1303.08755,64.1214193 1302.81281,64.2587891 C1302.53807,64.5335286 1302.26333,64.8082682 1301.98859,65.0830078 Z M1375.34406,58.6953125 C1374.65721,58.1458333 1373.83299,57.8710937 1372.87141,57.8710937 C1371.90982,57.8710937 1371.01691,58.1458333 1370.1927,58.6953125 C1370.1927,58.6953125 1370.12401,58.6953125 1369.98664,58.6953125 C1369.98664,58.5579427 1369.91796,58.4892578 1369.78059,58.4892578 C1370.6048,57.8024089 1371.56639,57.3902995 1372.66535,57.2529297 C1373.76431,57.2529297 1374.79458,57.5963542 1375.75617,58.2832031 C1376.71776,59.1074219 1377.26724,60.1376953 1377.40461,61.3740234 C1377.54198,62.6103516 1377.19855,63.7093099 1376.37434,64.6708984 C1375.55012,65.632487 1374.51984,66.1819661 1373.28352,66.3193359 C1372.04719,66.4567057 1370.94823,66.1132812 1369.98664,65.2890625 C1369.29979,64.7395833 1368.819,63.9840495 1368.54426,63.0224609 C1368.26952,62.0608724 1368.3382,61.1679687 1368.75031,60.34375 C1368.75031,60.34375 1368.819,60.34375 1368.95637,60.34375 C1368.95637,60.4811198 1369.02505,60.5498047 1369.16242,60.5498047 C1368.88768,61.2366536 1368.88768,61.9921875 1369.16242,62.8164062 C1369.29979,63.640625 1369.7119,64.327474 1370.39875,64.8769531 C1371.22297,65.5638021 1372.18456,65.8385417 1373.28352,65.7011719 C1374.38247,65.5638021 1375.27538,65.0830078 1375.96223,64.2587891 C1376.64908,63.4345703 1376.92382,62.4729818 1376.78645,61.3740234 C1376.64908,60.2750651 1376.16828,59.3821615 1375.34406,58.6953125 Z M1369.98664,65.2890625 C1369.98664,65.2890625 1369.91796,65.2203776 1369.78059,65.0830078 C1369.78059,65.0830078 1369.7119,65.0830078 1369.57453,65.0830078 C1369.7119,65.0830078 1369.78059,65.0830078 1369.78059,65.0830078 C1369.91796,65.0830078 1369.98664,65.1516927 1369.98664,65.2890625 Z M1368.75031,60.34375 C1368.75031,60.0690104 1368.819,59.7942708 1368.95637,59.5195312 C1369.09374,59.3821615 1369.23111,59.1761068 1369.36848,58.9013672 C1369.50585,58.9013672 1369.57453,58.8326823 1369.57453,58.6953125 C1369.7119,58.6953125 1369.78059,58.6266276 1369.78059,58.4892578 C1369.91796,58.4892578 1369.98664,58.5579427 1369.98664,58.6953125 C1370.12401,58.6953125 1370.26138,58.6953125 1370.39875,58.6953125 C1370.26138,58.8326823 1370.12401,58.9700521 1369.98664,59.1074219 C1369.98664,59.1074219 1369.91796,59.1761068 1369.78059,59.3134766 C1369.64322,59.4508464 1369.50585,59.656901 1369.36848,59.9316406 C1369.23111,60.0690104 1369.16242,60.2750651 1369.16242,60.5498047 C1369.02505,60.5498047 1368.95637,60.4811198 1368.95637,60.34375 C1368.819,60.34375 1368.75031,60.34375 1368.75031,60.34375 Z M1370.39875,64.8769531 C1369.7119,64.327474 1369.23111,63.640625 1368.95637,62.8164063 C1368.819,62.1295573 1368.88768,61.3740234 1369.16242,60.5498047 C1369.16242,60.5498047 1369.23111,60.6184896 1369.36848,60.7558594 C1369.36848,60.7558594 1369.43716,60.7558594 1369.57453,60.7558594 C1369.43716,61.4427083 1369.43716,62.1295573 1369.57453,62.8164063 C1369.7119,63.5032552 1370.12401,64.0527344 1370.81086,64.4648438 C1371.49771,65.0143229 1372.32193,65.2890625 1373.28352,65.2890625 C1374.2451,65.1516927 1375.00064,64.6708984 1375.55012,63.8466797 C1376.0996,63.1598307 1376.37434,62.335612 1376.37434,61.3740234 C1376.23697,60.4124349 1375.75617,59.656901 1374.93195,59.1074219 C1375.06932,59.2447917 1375.20669,59.3134766 1375.34406,59.3134766 C1375.34406,59.4508464 1375.34406,59.5195313 1375.34406,59.5195313 C1375.34406,59.5195313 1375.34406,59.4508464 1375.34406,59.3134766 C1375.20669,59.3134766 1375.06932,59.2447917 1374.93195,59.1074219 C1374.79458,58.9700521 1374.7259,58.9013672 1374.7259,58.9013672 C1374.58853,58.7639974 1374.51984,58.6953125 1374.51984,58.6953125 C1374.51984,58.6953125 1374.58853,58.7639974 1374.7259,58.9013672 C1374.7259,58.9013672 1374.79458,58.9700521 1374.93195,59.1074219 C1374.38247,58.5579427 1373.69563,58.2832031 1372.87141,58.2832031 C1372.04719,58.2832031 1371.36034,58.5579427 1370.81086,59.1074219 C1370.67349,58.9700521 1370.6048,58.9013672 1370.6048,58.9013672 C1370.46743,58.9013672 1370.33007,58.8326823 1370.1927,58.6953125 C1371.01691,58.1458333 1371.90982,57.8710938 1372.87141,57.8710938 C1373.83299,57.8710938 1374.65721,58.1458333 1375.34406,58.6953125 C1376.16828,59.3821615 1376.64908,60.2750651 1376.78645,61.3740234 C1376.92382,62.4729818 1376.64908,63.4345703 1375.96223,64.2587891 C1375.27538,65.0830078 1374.38247,65.5638021 1373.28352,65.7011719 C1372.18456,65.8385417 1371.22297,65.5638021 1370.39875,64.8769531 Z M1370.1927,59.7255859 C1370.05533,59.8629557 1369.91796,60.0003255 1369.78059,60.1376953 C1369.78059,60.4124349 1369.7119,60.6184896 1369.57453,60.7558594 C1369.57453,60.7558594 1369.50585,60.7558594 1369.36848,60.7558594 C1369.23111,60.6184896 1369.16242,60.5498047 1369.16242,60.5498047 C1369.16242,60.2750651 1369.23111,60.0690104 1369.36848,59.9316406 C1369.50585,59.656901 1369.64322,59.4508464 1369.78059,59.3134766 C1369.91796,59.1761068 1369.98664,59.1074219 1369.98664,59.1074219 C1370.12401,58.9700521 1370.26138,58.8326823 1370.39875,58.6953125 C1370.39875,58.8326823 1370.46743,58.9013672 1370.6048,58.9013672 C1370.6048,58.9013672 1370.67349,58.9700521 1370.81086,59.1074219 C1370.67349,59.1074219 1370.53612,59.1761068 1370.39875,59.3134766 C1370.39875,59.4508464 1370.33007,59.5882161 1370.1927,59.7255859 Z M1381.93781,84.4521484 C1381.80044,84.3147786 1381.73176,84.1774089 1381.73176,84.0400391 C1381.73176,83.9026693 1381.73176,83.8339844 1381.73176,83.8339844 C1381.73176,82.3229167 1381.73176,80.4684245 1381.73176,78.2705078 C1381.73176,76.0725911 1381.73176,73.53125 1381.73176,70.6464844 C1381.59439,70.6464844 1381.45702,70.7151693 1381.31965,70.8525391 C1381.31965,70.9899089 1381.25096,71.1272786 1381.11359,71.2646484 C1380.97622,71.4020182 1380.83885,71.4707031 1380.70148,71.4707031 C1380.56411,71.4707031 1380.49543,71.4707031 1380.49543,71.4707031 C1380.35806,71.4707031 1380.22069,71.4707031 1380.08332,71.4707031 C1379.94595,71.4707031 1379.80858,71.4020182 1379.67121,71.2646484 C1379.67121,71.1272786 1379.60253,71.0585938 1379.46516,71.0585938 C1379.46516,70.921224 1379.46516,70.7838542 1379.46516,70.6464844 C1379.46516,70.5091146 1379.46516,70.3717448 1379.46516,70.234375 C1379.60253,70.234375 1379.67121,70.1656901 1379.67121,70.0283203 C1379.94595,69.7535807 1380.28938,69.4101562 1380.70148,68.9980469 C1380.97622,68.7233073 1381.38833,68.3111979 1381.93781,67.7617188 C1381.93781,67.7617188 1382.0065,67.7617188 1382.14387,67.7617188 C1382.14387,67.624349 1382.21255,67.5556641 1382.34992,67.5556641 C1382.34992,67.5556641 1382.41861,67.5556641 1382.55598,67.5556641 C1382.55598,67.5556641 1382.55598,67.5556641 1382.55598,67.5556641 C1382.55598,67.5556641 1382.62466,67.5556641 1382.76203,67.5556641 C1382.76203,67.5556641 1382.83072,67.5556641 1382.96809,67.5556641 C1382.96809,67.6930339 1383.03677,67.7617188 1383.17414,67.7617188 C1383.17414,67.8990885 1383.24283,67.9677734 1383.3802,67.9677734 C1383.3802,68.1051432 1383.3802,68.1738281 1383.3802,68.1738281 C1383.3802,68.3111979 1383.3802,68.3798828 1383.3802,68.3798828 C1383.3802,70.1656901 1383.3802,72.2949219 1383.3802,74.7675781 C1383.3802,77.3776042 1383.3802,80.3997396 1383.3802,83.8339844 C1383.3802,83.8339844 1383.3802,83.9026693 1383.3802,84.0400391 C1383.3802,84.1774089 1383.31151,84.3147786 1383.17414,84.4521484 C1383.03677,84.4521484 1382.96809,84.5208333 1382.96809,84.6582031 C1382.83072,84.6582031 1382.69335,84.6582031 1382.55598,84.6582031 C1382.41861,84.6582031 1382.28124,84.6582031 1382.14387,84.6582031 C1382.14387,84.5208333 1382.07518,84.4521484 1381.93781,84.4521484 Z M1334.54523,117.420898 C1335.23208,117.008789 1335.85025,116.59668 1336.39973,116.18457 C1336.94921,115.772461 1337.29263,115.360352 1337.43,114.948242 C1337.70474,114.673503 1337.84211,114.330078 1337.84211,113.917969 C1337.97948,113.643229 1338.04816,113.36849 1338.04816,113.09375 C1338.04816,112.95638 1338.04816,112.887695 1338.04816,112.887695 C1338.04816,112.750326 1338.04816,112.612956 1338.04816,112.475586 C1338.04816,112.475586 1337.97948,112.406901 1337.84211,112.269531 C1337.84211,112.132161 1337.84211,111.994792 1337.84211,111.857422 C1337.70474,111.720052 1337.56737,111.582682 1337.43,111.445312 C1337.29263,111.170573 1337.15526,110.964518 1337.01789,110.827148 C1336.74315,110.689779 1336.39973,110.621094 1335.98762,110.621094 C1335.71288,110.483724 1335.36945,110.415039 1334.95734,110.415039 C1334.54523,110.415039 1334.20181,110.483724 1333.92707,110.621094 C1333.65233,110.621094 1333.37759,110.689779 1333.10285,110.827148 C1332.96548,110.964518 1332.75943,111.170573 1332.48469,111.445312 C1332.34732,111.582682 1332.20995,111.857422 1332.07258,112.269531 C1332.07258,112.269531 1332.00389,112.338216 1331.86652,112.475586 C1331.72915,112.612956 1331.59178,112.681641 1331.45441,112.681641 C1331.45441,112.681641 1331.38573,112.681641 1331.24836,112.681641 C1331.11099,112.681641 1330.97362,112.681641 1330.83625,112.681641 C1330.69888,112.544271 1330.6302,112.475586 1330.6302,112.475586 C1330.49283,112.338216 1330.42414,112.200846 1330.42414,112.063477 C1330.42414,111.926107 1330.42414,111.857422 1330.42414,111.857422 C1330.42414,111.720052 1330.42414,111.582682 1330.42414,111.445312 C1330.56151,111.033203 1330.83625,110.621094 1331.24836,110.208984 C1331.5231,109.934245 1331.86652,109.659505 1332.27863,109.384766 C1332.55337,109.110026 1332.96548,108.903971 1333.51496,108.766602 C1333.92707,108.766602 1334.40786,108.766602 1334.95734,108.766602 C1335.78156,108.766602 1336.5371,108.835286 1337.22395,108.972656 C1337.91079,109.247396 1338.39159,109.659505 1338.66633,110.208984 C1339.07844,110.621094 1339.35318,111.101888 1339.49055,111.651367 C1339.76529,112.063477 1339.90266,112.544271 1339.90266,113.09375 C1339.90266,113.643229 1339.76529,114.192708 1339.49055,114.742188 C1339.35318,115.291667 1339.14712,115.772461 1338.87238,116.18457 C1338.46027,116.59668 1337.97948,117.077474 1337.43,117.626953 C1336.88052,118.039062 1336.19367,118.519857 1335.36945,119.069336 C1334.81997,119.481445 1334.33918,119.893555 1333.92707,120.305664 C1333.37759,120.717773 1332.96548,121.129883 1332.69074,121.541992 C1332.416,122.091471 1332.20995,122.572266 1332.07258,122.984375 C1331.93521,123.396484 1331.79784,123.739909 1331.66047,124.014648 C1332.48469,124.014648 1333.51496,124.014648 1334.75129,124.014648 C1335.98762,124.014648 1337.43,124.014648 1339.07844,124.014648 C1339.21581,124.014648 1339.35318,124.014648 1339.49055,124.014648 C1339.62792,124.014648 1339.6966,124.083333 1339.6966,124.220703 C1339.83397,124.358073 1339.90266,124.426758 1339.90266,124.426758 C1340.04003,124.564128 1340.10871,124.701497 1340.10871,124.838867 C1340.10871,124.976237 1340.04003,125.113607 1339.90266,125.250977 C1339.90266,125.250977 1339.83397,125.319661 1339.6966,125.457031 C1339.6966,125.594401 1339.62792,125.663086 1339.49055,125.663086 C1339.35318,125.663086 1339.21581,125.663086 1339.07844,125.663086 C1338.39159,125.663086 1337.70474,125.663086 1337.01789,125.663086 C1336.33104,125.663086 1335.64419,125.663086 1334.95734,125.663086 C1334.13313,125.663086 1333.37759,125.663086 1332.69074,125.663086 C1332.00389,125.663086 1331.31704,125.663086 1330.6302,125.663086 C1330.49283,125.663086 1330.42414,125.663086 1330.42414,125.663086 C1330.28677,125.663086 1330.21809,125.663086 1330.21809,125.663086 C1330.21809,125.663086 1330.1494,125.663086 1330.01203,125.663086 C1330.01203,125.525716 1330.01203,125.457031 1330.01203,125.457031 C1329.87466,125.457031 1329.80598,125.388346 1329.80598,125.250977 C1329.80598,125.250977 1329.80598,125.250977 1329.80598,125.250977 C1329.80598,125.113607 1329.73729,125.044922 1329.59992,125.044922 C1329.59992,124.907552 1329.59992,124.838867 1329.59992,124.838867 C1329.59992,124.838867 1329.59992,124.838867 1329.59992,124.838867 C1329.59992,124.838867 1329.59992,124.838867 1329.59992,124.838867 C1329.59992,124.701497 1329.66861,124.564128 1329.80598,124.426758 C1329.80598,124.152018 1329.87466,123.808594 1330.01203,123.396484 C1330.01203,122.984375 1330.1494,122.572266 1330.42414,122.160156 C1330.56151,121.748047 1330.83625,121.267253 1331.24836,120.717773 C1331.38573,120.443034 1331.59178,120.168294 1331.86652,119.893555 C1332.00389,119.618815 1332.20995,119.344076 1332.48469,119.069336 C1332.75943,118.794596 1333.10285,118.519857 1333.51496,118.245117 C1333.7897,117.970378 1334.13313,117.695638 1334.54523,117.420898 Z" transform="translate(-1271.5)"/></svg>