<svg xmlns="http://www.w3.org/2000/svg" width="120" height="203" viewBox="0 0 120 203"><path fill="#131313" d="M1582.27934,23.6962891 C1584.33988,23.6962891 1586.12569,24.383138 1587.63676,25.7568359 C1589.14783,27.2679036 1589.90336,29.0537109 1589.90336,31.1142578 C1589.90336,59.4124349 1589.90336,101.859701 1589.90336,158.456055 C1589.90336,160.516602 1589.14783,162.302409 1587.63676,163.813477 C1586.12569,165.187174 1584.33988,165.874023 1582.27934,165.874023 C1580.21879,165.874023 1578.50167,165.187174 1577.12797,163.813477 C1575.6169,162.302409 1574.86137,160.516602 1574.86137,158.456055 C1574.86137,145.955404 1574.86137,127.204427 1574.86137,102.203125 C1562.22335,102.203125 1543.26632,102.203125 1517.99027,102.203125 C1517.99027,114.703776 1517.99027,133.454753 1517.99027,158.456055 C1517.99027,160.516602 1517.30342,162.302409 1515.92973,163.813477 C1514.41866,165.187174 1512.63285,165.874023 1510.5723,165.874023 C1508.51176,165.874023 1506.72595,165.187174 1505.21488,163.813477 C1503.84118,162.302409 1503.15434,160.516602 1503.15434,158.456055 C1503.15434,130.157878 1503.15434,87.710612 1503.15434,31.1142578 C1503.15434,29.0537109 1503.84118,27.2679036 1505.21488,25.7568359 C1506.72595,24.383138 1508.51176,23.6962891 1510.5723,23.6962891 C1512.63285,23.6962891 1514.41866,24.383138 1515.92973,25.7568359 C1517.30342,27.2679036 1517.99027,29.0537109 1517.99027,31.1142578 C1517.99027,43.6149089 1517.99027,62.3658854 1517.99027,87.3671875 C1530.62829,87.3671875 1549.58533,87.3671875 1574.86137,87.3671875 C1574.86137,74.8665365 1574.86137,56.1155599 1574.86137,31.1142578 C1574.86137,29.0537109 1575.6169,27.2679036 1577.12797,25.7568359 C1578.50167,24.383138 1580.21879,23.6962891 1582.27934,23.6962891 Z M1567.25492,39.1503906 C1567.39229,39.2877604 1567.52966,39.3564453 1567.66703,39.3564453 C1567.94177,39.3564453 1568.14783,39.3564453 1568.2852,39.3564453 C1568.42257,39.3564453 1568.55993,39.3564453 1568.6973,39.3564453 C1568.97204,39.3564453 1569.1781,39.2877604 1569.31547,39.1503906 C1569.31547,45.1946615 1569.31547,54.1923828 1569.31547,66.1435547 C1568.90336,66.1435547 1568.21651,66.1435547 1567.25492,66.1435547 C1567.25492,61.7477214 1567.25492,57.2832031 1567.25492,52.75 C1567.25492,48.2167969 1567.25492,43.6835938 1567.25492,39.1503906 Z M1567.25492,68.2041016 C1567.25492,67.7919922 1567.25492,67.1051432 1567.25492,66.1435547 C1566.84281,66.1435547 1566.15596,66.1435547 1565.19438,66.1435547 C1565.88122,68.7535807 1566.9115,72.5999349 1568.2852,77.6826172 C1568.97204,75.0725911 1570.00232,71.226237 1571.37602,66.1435547 C1570.82654,66.1435547 1570.13969,66.1435547 1569.31547,66.1435547 C1569.31547,66.6930339 1569.31547,67.3798828 1569.31547,68.2041016 C1568.90336,68.2041016 1568.21651,68.2041016 1567.25492,68.2041016 Z M1567.25492,68.2041016 C1567.66703,68.2041016 1568.35388,68.2041016 1569.31547,68.2041016 C1569.31547,67.7919922 1569.31547,67.1051432 1569.31547,66.1435547 C1568.90336,66.1435547 1568.21651,66.1435547 1567.25492,66.1435547 C1567.25492,66.6930339 1567.25492,67.3798828 1567.25492,68.2041016 Z M1568.2852,30.4960938 C1569.52152,30.4960938 1570.5518,30.9082031 1571.37602,31.7324219 C1572.3376,32.5566406 1572.8184,33.5869141 1572.8184,34.8232422 C1572.8184,35.9222005 1572.47497,36.8837891 1571.78813,37.7080078 C1571.10128,38.5322266 1570.27706,39.0130208 1569.31547,39.1503906 C1569.31547,39.1503906 1569.31547,39.0130208 1569.31547,38.7382812 C1570.13969,38.4635417 1570.82654,37.9827474 1571.37602,37.2958984 C1571.92549,36.6090495 1572.20023,35.7848307 1572.20023,34.8232422 C1572.20023,33.7242839 1571.78813,32.8313802 1570.96391,32.1445312 C1570.27706,31.3203125 1569.38415,30.9082031 1568.2852,30.9082031 C1567.18624,30.9082031 1566.22465,31.3203125 1565.40043,32.1445312 C1564.71358,32.8313802 1564.37016,33.7242839 1564.37016,34.8232422 C1564.37016,35.7848307 1564.6449,36.6090495 1565.19438,37.2958984 C1565.74385,37.9827474 1566.4307,38.4635417 1567.25492,38.7382812 C1567.25492,38.875651 1567.25492,39.0130208 1567.25492,39.1503906 C1566.29333,39.0130208 1565.46911,38.5322266 1564.78227,37.7080078 C1564.09542,36.8837891 1563.75199,35.9222005 1563.75199,34.8232422 C1563.75199,33.5869141 1564.1641,32.5566406 1564.98832,31.7324219 C1565.94991,30.9082031 1567.04887,30.4960938 1568.2852,30.4960938 Z M1568.2852,38.9443359 C1568.42257,38.9443359 1568.55993,38.875651 1568.6973,38.7382812 C1568.97204,38.7382812 1569.1781,38.7382812 1569.31547,38.7382812 C1569.31547,38.875651 1569.31547,39.0130208 1569.31547,39.1503906 C1569.1781,39.2877604 1568.97204,39.3564453 1568.6973,39.3564453 C1568.55993,39.3564453 1568.42257,39.3564453 1568.2852,39.3564453 C1568.14783,39.3564453 1567.94177,39.3564453 1567.66703,39.3564453 C1567.52966,39.3564453 1567.39229,39.2877604 1567.25492,39.1503906 C1567.25492,39.1503906 1567.25492,39.0130208 1567.25492,38.7382812 C1567.39229,38.7382812 1567.52966,38.7382812 1567.66703,38.7382812 C1567.94177,38.875651 1568.14783,38.9443359 1568.2852,38.9443359 Z M1564.78227,34.8232422 C1564.78227,35.6474609 1564.98832,36.3343099 1565.40043,36.8837891 C1565.94991,37.4332682 1566.56807,37.8453776 1567.25492,38.1201172 C1567.25492,38.257487 1567.25492,38.4635417 1567.25492,38.7382812 C1566.4307,38.4635417 1565.74385,37.9827474 1565.19438,37.2958984 C1564.6449,36.6090495 1564.37016,35.7848307 1564.37016,34.8232422 C1564.37016,33.7242839 1564.71358,32.8313802 1565.40043,32.1445312 C1566.22465,31.3203125 1567.18624,30.9082031 1568.2852,30.9082031 C1569.38415,30.9082031 1570.27706,31.3203125 1570.96391,32.1445312 C1571.78813,32.8313802 1572.20023,33.7242839 1572.20023,34.8232422 C1572.20023,35.7848307 1571.92549,36.6090495 1571.37602,37.2958984 C1570.82654,37.9827474 1570.13969,38.4635417 1569.31547,38.7382812 C1569.31547,38.6009115 1569.31547,38.3948568 1569.31547,38.1201172 C1570.00232,37.8453776 1570.5518,37.4332682 1570.96391,36.8837891 C1571.51339,36.3343099 1571.78813,35.6474609 1571.78813,34.8232422 C1571.78813,33.8616536 1571.4447,33.1061198 1570.75785,32.5566406 C1570.071,31.8697917 1569.24678,31.5263672 1568.2852,31.5263672 C1567.32361,31.5263672 1566.49939,31.8697917 1565.81254,32.5566406 C1565.12569,33.1061198 1564.78227,33.8616536 1564.78227,34.8232422 C1564.78227,34.6858724 1564.78227,34.5485026 1564.78227,34.4111328 C1564.78227,34.4111328 1564.78227,34.4111328 1564.78227,34.4111328 C1564.78227,34.4111328 1564.78227,34.4111328 1564.78227,34.4111328 C1564.78227,34.5485026 1564.78227,34.6858724 1564.78227,34.8232422 C1564.78227,35.0979818 1564.78227,35.2353516 1564.78227,35.2353516 C1564.78227,35.3727214 1564.78227,35.4414062 1564.78227,35.4414062 C1564.78227,35.4414062 1564.78227,35.3727214 1564.78227,35.2353516 C1564.78227,35.2353516 1564.78227,35.0979818 1564.78227,34.8232422 Z M1569.31547,38.7382812 C1569.1781,38.7382812 1568.97204,38.7382812 1568.6973,38.7382812 C1568.55993,38.875651 1568.42257,38.9443359 1568.2852,38.9443359 C1568.14783,38.9443359 1567.94177,38.875651 1567.66703,38.7382812 C1567.52966,38.7382812 1567.39229,38.7382812 1567.25492,38.7382812 C1567.25492,38.6009115 1567.25492,38.3948568 1567.25492,38.1201172 C1567.39229,38.1201172 1567.52966,38.1888021 1567.66703,38.3261719 C1567.8044,38.3261719 1568.01046,38.3261719 1568.2852,38.3261719 C1568.42257,38.3261719 1568.62862,38.3261719 1568.90336,38.3261719 C1569.04073,38.1888021 1569.1781,38.1201172 1569.31547,38.1201172 C1569.31547,38.257487 1569.31547,38.3261719 1569.31547,38.3261719 C1569.31547,38.4635417 1569.31547,38.6009115 1569.31547,38.7382812 Z M1495.34184,39.1503906 C1495.61658,39.2877604 1495.82263,39.3564453 1495.96,39.3564453 C1496.09737,39.3564453 1496.30342,39.3564453 1496.57816,39.3564453 C1496.71553,39.3564453 1496.8529,39.3564453 1496.99027,39.3564453 C1497.12764,39.3564453 1497.3337,39.2877604 1497.60844,39.1503906 C1497.60844,45.1946615 1497.60844,54.1923828 1497.60844,66.1435547 C1497.05896,66.1435547 1496.30342,66.1435547 1495.34184,66.1435547 C1495.34184,61.7477214 1495.34184,57.2832031 1495.34184,52.75 C1495.34184,48.2167969 1495.34184,43.6835938 1495.34184,39.1503906 Z M1495.34184,68.2041016 C1495.34184,67.7919922 1495.34184,67.1051432 1495.34184,66.1435547 C1494.92973,66.1435547 1494.31156,66.1435547 1493.48734,66.1435547 C1494.17419,68.7535807 1495.20447,72.5999349 1496.57816,77.6826172 C1497.12764,75.0725911 1498.08923,71.226237 1499.46293,66.1435547 C1499.05082,66.1435547 1498.43266,66.1435547 1497.60844,66.1435547 C1497.60844,66.6930339 1497.60844,67.3798828 1497.60844,68.2041016 C1497.05896,68.2041016 1496.30342,68.2041016 1495.34184,68.2041016 Z M1495.34184,68.2041016 C1495.89132,68.2041016 1496.64685,68.2041016 1497.60844,68.2041016 C1497.60844,67.7919922 1497.60844,67.1051432 1497.60844,66.1435547 C1497.05896,66.1435547 1496.30342,66.1435547 1495.34184,66.1435547 C1495.34184,66.6930339 1495.34184,67.3798828 1495.34184,68.2041016 Z M1496.57816,30.4960938 C1497.81449,30.4960938 1498.84477,30.9082031 1499.66898,31.7324219 C1500.4932,32.5566406 1500.90531,33.5869141 1500.90531,34.8232422 C1500.90531,35.9222005 1500.63057,36.8837891 1500.08109,37.7080078 C1499.39424,38.5322266 1498.57003,39.0130208 1497.60844,39.1503906 C1497.60844,39.1503906 1497.60844,39.0130208 1497.60844,38.7382812 C1498.43266,38.4635417 1499.11951,37.9827474 1499.66898,37.2958984 C1500.21846,36.6090495 1500.4932,35.7848307 1500.4932,34.8232422 C1500.4932,33.7242839 1500.08109,32.8313802 1499.25688,32.1445312 C1498.43266,31.3203125 1497.53975,30.9082031 1496.57816,30.9082031 C1495.47921,30.9082031 1494.51762,31.3203125 1493.6934,32.1445312 C1492.86918,32.8313802 1492.45707,33.7242839 1492.45707,34.8232422 C1492.45707,35.7848307 1492.73181,36.6090495 1493.28129,37.2958984 C1493.83077,37.9827474 1494.51762,38.4635417 1495.34184,38.7382812 C1495.34184,38.875651 1495.34184,39.0130208 1495.34184,39.1503906 C1494.38025,39.0130208 1493.55603,38.5322266 1492.86918,37.7080078 C1492.3197,36.8837891 1492.04496,35.9222005 1492.04496,34.8232422 C1492.04496,33.5869141 1492.45707,32.5566406 1493.28129,31.7324219 C1494.24288,30.9082031 1495.34184,30.4960938 1496.57816,30.4960938 Z M1496.57816,38.9443359 C1496.71553,38.9443359 1496.8529,38.875651 1496.99027,38.7382812 C1497.12764,38.7382812 1497.3337,38.7382812 1497.60844,38.7382812 C1497.60844,38.875651 1497.60844,39.0130208 1497.60844,39.1503906 C1497.3337,39.2877604 1497.12764,39.3564453 1496.99027,39.3564453 C1496.8529,39.3564453 1496.71553,39.3564453 1496.57816,39.3564453 C1496.30342,39.3564453 1496.09737,39.3564453 1495.96,39.3564453 C1495.82263,39.3564453 1495.61658,39.2877604 1495.34184,39.1503906 C1495.34184,39.1503906 1495.34184,39.0130208 1495.34184,38.7382812 C1495.61658,38.7382812 1495.82263,38.7382812 1495.96,38.7382812 C1496.09737,38.875651 1496.30342,38.9443359 1496.57816,38.9443359 Z M1493.07523,34.8232422 C1493.07523,35.6474609 1493.28129,36.3343099 1493.6934,36.8837891 C1494.10551,37.4332682 1494.65499,37.8453776 1495.34184,38.1201172 C1495.34184,38.257487 1495.34184,38.4635417 1495.34184,38.7382812 C1494.51762,38.4635417 1493.83077,37.9827474 1493.28129,37.2958984 C1492.73181,36.6090495 1492.45707,35.7848307 1492.45707,34.8232422 C1492.45707,33.7242839 1492.86918,32.8313802 1493.6934,32.1445312 C1494.51762,31.3203125 1495.47921,30.9082031 1496.57816,30.9082031 C1497.53975,30.9082031 1498.43266,31.3203125 1499.25688,32.1445312 C1500.08109,32.8313802 1500.4932,33.7242839 1500.4932,34.8232422 C1500.4932,35.7848307 1500.21846,36.6090495 1499.66898,37.2958984 C1499.11951,37.9827474 1498.43266,38.4635417 1497.60844,38.7382812 C1497.60844,38.6009115 1497.60844,38.3948568 1497.60844,38.1201172 C1498.29529,37.8453776 1498.84477,37.4332682 1499.25688,36.8837891 C1499.66898,36.3343099 1499.87504,35.6474609 1499.87504,34.8232422 C1499.87504,33.8616536 1499.53161,33.1061198 1498.84477,32.5566406 C1498.15792,31.8697917 1497.40238,31.5263672 1496.57816,31.5263672 C1495.61658,31.5263672 1494.79236,31.8697917 1494.10551,32.5566406 C1493.41866,33.1061198 1493.07523,33.8616536 1493.07523,34.8232422 C1493.07523,34.6858724 1493.07523,34.5485026 1493.07523,34.4111328 C1493.07523,34.4111328 1493.07523,34.4111328 1493.07523,34.4111328 C1493.07523,34.4111328 1493.07523,34.4111328 1493.07523,34.4111328 C1493.07523,34.5485026 1493.07523,34.6858724 1493.07523,34.8232422 C1493.07523,35.0979818 1493.07523,35.2353516 1493.07523,35.2353516 C1493.07523,35.3727214 1493.07523,35.4414062 1493.07523,35.4414062 C1493.07523,35.4414062 1493.07523,35.3727214 1493.07523,35.2353516 C1493.07523,35.2353516 1493.07523,35.0979818 1493.07523,34.8232422 Z M1497.60844,38.7382812 C1497.3337,38.7382812 1497.12764,38.7382812 1496.99027,38.7382812 C1496.8529,38.875651 1496.71553,38.9443359 1496.57816,38.9443359 C1496.30342,38.9443359 1496.09737,38.875651 1495.96,38.7382812 C1495.82263,38.7382812 1495.61658,38.7382812 1495.34184,38.7382812 C1495.34184,38.6009115 1495.34184,38.3948568 1495.34184,38.1201172 C1495.61658,38.1201172 1495.82263,38.1888021 1495.96,38.3261719 C1496.09737,38.3261719 1496.30342,38.3261719 1496.57816,38.3261719 C1496.71553,38.3261719 1496.8529,38.3261719 1496.99027,38.3261719 C1497.12764,38.1888021 1497.3337,38.1201172 1497.60844,38.1201172 C1497.60844,38.257487 1497.60844,38.3261719 1497.60844,38.3261719 C1497.60844,38.4635417 1497.60844,38.6009115 1497.60844,38.7382812 Z M1538.40727,110.445312 C1538.40727,110.720052 1538.40727,110.926107 1538.40727,111.063477 C1538.2699,111.200846 1538.20121,111.406901 1538.20121,111.681641 C1542.3223,111.681641 1548.50395,111.681641 1556.74613,111.681641 C1556.74613,111.132161 1556.74613,110.376628 1556.74613,109.415039 C1552.62504,109.415039 1546.4434,109.415039 1538.20121,109.415039 C1538.20121,109.689779 1538.2699,109.895833 1538.40727,110.033203 C1538.40727,110.170573 1538.40727,110.307943 1538.40727,110.445312 Z M1556.74613,107.560547 C1559.35616,108.247396 1563.20251,109.208984 1568.2852,110.445312 C1565.67517,111.132161 1561.82882,112.162435 1556.74613,113.536133 C1556.74613,113.124023 1556.74613,112.505859 1556.74613,111.681641 C1557.29561,111.681641 1558.05115,111.681641 1559.01273,111.681641 C1559.01273,111.132161 1559.01273,110.376628 1559.01273,109.415039 C1558.46326,109.415039 1557.70772,109.415039 1556.74613,109.415039 C1556.74613,109.00293 1556.74613,108.384766 1556.74613,107.560547 Z M1556.74613,111.681641 C1557.29561,111.681641 1558.05115,111.681641 1559.01273,111.681641 C1559.01273,111.132161 1559.01273,110.376628 1559.01273,109.415039 C1558.46326,109.415039 1557.70772,109.415039 1556.74613,109.415039 C1556.74613,109.964518 1556.74613,110.720052 1556.74613,111.681641 Z M1533.87406,114.566406 C1534.83565,114.566406 1535.65987,114.291667 1536.34672,113.742188 C1537.03357,113.192708 1537.44568,112.505859 1537.58305,111.681641 C1537.72042,111.681641 1537.92647,111.681641 1538.20121,111.681641 C1537.92647,112.643229 1537.44568,113.398763 1536.75883,113.948242 C1535.93461,114.635091 1534.97302,114.978516 1533.87406,114.978516 C1532.63773,114.978516 1531.60746,114.566406 1530.78324,113.742188 C1529.82165,112.780599 1529.34086,111.681641 1529.34086,110.445312 C1529.34086,109.208984 1529.82165,108.178711 1530.78324,107.354492 C1531.60746,106.530273 1532.63773,106.118164 1533.87406,106.118164 C1534.97302,106.118164 1535.86592,106.392904 1536.55277,106.942383 C1537.37699,107.629232 1537.92647,108.453451 1538.20121,109.415039 C1538.06384,109.415039 1537.85779,109.415039 1537.58305,109.415039 C1537.44568,108.59082 1537.03357,107.903971 1536.34672,107.354492 C1535.65987,106.805013 1534.83565,106.530273 1533.87406,106.530273 C1532.7751,106.530273 1531.81352,106.942383 1530.9893,107.766602 C1530.30245,108.453451 1529.95902,109.346354 1529.95902,110.445312 C1529.95902,111.544271 1530.30245,112.505859 1530.9893,113.330078 C1531.81352,114.154297 1532.7751,114.566406 1533.87406,114.566406 Z M1537.58305,109.415039 C1537.72042,109.689779 1537.7891,109.895833 1537.7891,110.033203 C1537.7891,110.170573 1537.7891,110.307943 1537.7891,110.445312 C1537.7891,110.720052 1537.7891,110.926107 1537.7891,111.063477 C1537.7891,111.200846 1537.72042,111.406901 1537.58305,111.681641 C1537.72042,111.681641 1537.92647,111.681641 1538.20121,111.681641 C1538.20121,111.406901 1538.2699,111.200846 1538.40727,111.063477 C1538.40727,110.926107 1538.40727,110.720052 1538.40727,110.445312 C1538.40727,110.307943 1538.40727,110.170573 1538.40727,110.033203 C1538.2699,109.895833 1538.20121,109.689779 1538.20121,109.415039 C1538.06384,109.415039 1537.99516,109.415039 1537.99516,109.415039 C1537.85779,109.415039 1537.72042,109.415039 1537.58305,109.415039 Z M1533.87406,106.530273 C1534.83565,106.530273 1535.65987,106.805013 1536.34672,107.354492 C1537.03357,107.903971 1537.44568,108.59082 1537.58305,109.415039 C1537.58305,109.415039 1537.44568,109.415039 1537.17094,109.415039 C1536.8962,108.72819 1536.48409,108.178711 1535.93461,107.766602 C1535.38513,107.354492 1534.69828,107.148438 1533.87406,107.148438 C1532.91247,107.148438 1532.08826,107.491862 1531.40141,108.178711 C1530.71456,108.86556 1530.37113,109.621094 1530.37113,110.445312 C1530.37113,111.406901 1530.71456,112.23112 1531.40141,112.917969 C1532.08826,113.604818 1532.91247,113.948242 1533.87406,113.948242 C1533.73669,113.948242 1533.59932,113.948242 1533.46195,113.948242 C1533.32458,113.948242 1533.2559,113.948242 1533.2559,113.948242 C1533.2559,113.948242 1533.32458,113.948242 1533.46195,113.948242 C1533.59932,113.948242 1533.73669,113.948242 1533.87406,113.948242 C1534.01143,113.948242 1534.1488,113.948242 1534.28617,113.948242 C1534.42354,113.948242 1534.49223,113.948242 1534.49223,113.948242 C1534.49223,113.948242 1534.42354,113.948242 1534.28617,113.948242 C1534.1488,113.948242 1534.01143,113.948242 1533.87406,113.948242 C1534.69828,113.948242 1535.38513,113.742188 1535.93461,113.330078 C1536.48409,112.917969 1536.8962,112.36849 1537.17094,111.681641 C1537.30831,111.681641 1537.44568,111.681641 1537.58305,111.681641 C1537.44568,112.505859 1537.03357,113.192708 1536.34672,113.742188 C1535.65987,114.291667 1534.83565,114.566406 1533.87406,114.566406 C1532.7751,114.566406 1531.81352,114.154297 1530.9893,113.330078 C1530.30245,112.505859 1529.95902,111.544271 1529.95902,110.445312 C1529.95902,109.346354 1530.30245,108.453451 1530.9893,107.766602 C1531.81352,106.942383 1532.7751,106.530273 1533.87406,106.530273 Z M1537.17094,111.681641 C1537.30831,111.681641 1537.44568,111.681641 1537.58305,111.681641 C1537.72042,111.406901 1537.7891,111.200846 1537.7891,111.063477 C1537.7891,110.926107 1537.7891,110.720052 1537.7891,110.445312 C1537.7891,110.307943 1537.7891,110.170573 1537.7891,110.033203 C1537.7891,109.895833 1537.72042,109.689779 1537.58305,109.415039 C1537.58305,109.415039 1537.44568,109.415039 1537.17094,109.415039 C1537.17094,109.689779 1537.17094,109.895833 1537.17094,110.033203 C1537.30831,110.170573 1537.37699,110.307943 1537.37699,110.445312 C1537.37699,110.720052 1537.30831,110.926107 1537.17094,111.063477 C1537.17094,111.200846 1537.17094,111.406901 1537.17094,111.681641 Z M1485.45121,30.9082031 C1485.58858,30.9082031 1485.65727,30.976888 1485.65727,31.1142578 C1485.79464,31.1142578 1485.86332,31.1829427 1485.86332,31.3203125 C1485.86332,31.3203125 1485.93201,31.3889974 1486.06938,31.5263672 C1486.06938,31.5263672 1486.06938,31.5950521 1486.06938,31.7324219 C1486.06938,33.3808594 1486.06938,35.5100911 1486.06938,38.1201172 C1486.06938,40.5927734 1486.06938,43.546224 1486.06938,46.9804688 C1486.06938,47.1178385 1486.00069,47.2552083 1485.86332,47.3925781 C1485.86332,47.5299479 1485.79464,47.5986328 1485.65727,47.5986328 C1485.65727,47.7360026 1485.58858,47.8046875 1485.45121,47.8046875 C1485.31384,47.8046875 1485.17647,47.8046875 1485.0391,47.8046875 C1485.0391,47.8046875 1484.97042,47.8046875 1484.83305,47.8046875 C1484.69568,47.8046875 1484.55831,47.7360026 1484.42094,47.5986328 C1484.42094,47.5986328 1484.35225,47.5299479 1484.21488,47.3925781 C1484.21488,47.2552083 1484.21488,47.1178385 1484.21488,46.9804688 C1484.21488,45.6067708 1484.21488,43.8209635 1484.21488,41.6230469 C1484.21488,39.4251302 1484.21488,36.8837891 1484.21488,33.9990234 C1484.07751,33.9990234 1484.00883,34.0677083 1484.00883,34.2050781 C1483.87146,34.3424479 1483.73409,34.4798177 1483.59672,34.6171875 C1483.45935,34.6171875 1483.39066,34.6171875 1483.39066,34.6171875 C1483.25329,34.7545573 1483.11592,34.8232422 1482.97855,34.8232422 C1482.84118,34.8232422 1482.70382,34.7545573 1482.56645,34.6171875 C1482.56645,34.6171875 1482.49776,34.6171875 1482.36039,34.6171875 C1482.22302,34.4798177 1482.15434,34.3424479 1482.15434,34.2050781 C1482.15434,34.0677083 1482.15434,33.9990234 1482.15434,33.9990234 C1482.15434,33.8616536 1482.15434,33.7242839 1482.15434,33.5869141 C1482.15434,33.4495443 1482.22302,33.3121745 1482.36039,33.1748047 C1482.63513,33.0374349 1482.90987,32.7626953 1483.18461,32.3505859 C1483.59672,31.9384766 1484.00883,31.5263672 1484.42094,31.1142578 C1484.55831,31.1142578 1484.62699,31.0455729 1484.62699,30.9082031 C1484.76436,30.9082031 1484.90173,30.9082031 1485.0391,30.9082031 C1485.0391,30.9082031 1485.0391,30.9082031 1485.0391,30.9082031 C1485.0391,30.9082031 1485.0391,30.9082031 1485.0391,30.9082031 C1485.17647,30.9082031 1485.24516,30.9082031 1485.24516,30.9082031 C1485.38253,30.9082031 1485.45121,30.9082031 1485.45121,30.9082031 Z M1534.28617,128.990234 C1533.73669,129.402344 1533.18721,129.814453 1532.63773,130.226562 C1532.22563,130.638672 1531.8822,131.050781 1531.60746,131.462891 C1531.33272,132.01237 1531.12667,132.493164 1530.9893,132.905273 C1530.71456,133.180013 1530.57719,133.523438 1530.57719,133.935547 C1531.40141,133.935547 1532.43168,133.935547 1533.66801,133.935547 C1534.90434,133.935547 1536.34672,133.935547 1537.99516,133.935547 C1538.13253,133.935547 1538.2699,133.935547 1538.40727,133.935547 C1538.54464,133.935547 1538.61332,134.004232 1538.61332,134.141602 C1538.75069,134.278971 1538.81938,134.347656 1538.81938,134.347656 C1538.81938,134.485026 1538.81938,134.622396 1538.81938,134.759766 C1538.81938,134.897135 1538.81938,135.034505 1538.81938,135.171875 C1538.81938,135.171875 1538.75069,135.24056 1538.61332,135.37793 C1538.61332,135.515299 1538.54464,135.583984 1538.40727,135.583984 C1538.2699,135.583984 1538.13253,135.583984 1537.99516,135.583984 C1537.30831,135.583984 1536.62146,135.583984 1535.93461,135.583984 C1535.24776,135.583984 1534.49223,135.583984 1533.66801,135.583984 C1532.98116,135.583984 1532.29431,135.583984 1531.60746,135.583984 C1530.92061,135.583984 1530.16508,135.583984 1529.34086,135.583984 C1529.34086,135.583984 1529.27217,135.583984 1529.1348,135.583984 C1529.1348,135.583984 1529.1348,135.583984 1529.1348,135.583984 C1528.99743,135.583984 1528.92875,135.583984 1528.92875,135.583984 C1528.92875,135.446615 1528.86007,135.37793 1528.7227,135.37793 C1528.7227,135.37793 1528.7227,135.309245 1528.7227,135.171875 C1528.58533,135.171875 1528.51664,135.10319 1528.51664,134.96582 C1528.51664,134.96582 1528.51664,134.96582 1528.51664,134.96582 C1528.51664,134.828451 1528.51664,134.759766 1528.51664,134.759766 C1528.51664,134.759766 1528.51664,134.759766 1528.51664,134.759766 C1528.51664,134.759766 1528.51664,134.759766 1528.51664,134.759766 C1528.51664,134.622396 1528.58533,134.485026 1528.7227,134.347656 C1528.7227,134.072917 1528.79138,133.729492 1528.92875,133.317383 C1528.92875,132.905273 1529.06612,132.493164 1529.34086,132.081055 C1529.47823,131.668945 1529.75297,131.188151 1530.16508,130.638672 C1530.30245,130.363932 1530.5085,130.089193 1530.78324,129.814453 C1530.92061,129.539714 1531.12667,129.264974 1531.40141,128.990234 C1531.67615,128.715495 1531.95089,128.440755 1532.22563,128.166016 C1532.63773,127.891276 1532.98116,127.616536 1533.2559,127.341797 C1534.08012,126.929688 1534.76697,126.517578 1535.31645,126.105469 C1535.72855,125.693359 1536.07198,125.28125 1536.34672,124.869141 C1536.48409,124.594401 1536.62146,124.250977 1536.75883,123.838867 C1536.8962,123.564128 1536.96488,123.289388 1536.96488,123.014648 C1536.96488,122.877279 1536.96488,122.808594 1536.96488,122.808594 C1536.82751,122.671224 1536.75883,122.533854 1536.75883,122.396484 C1536.75883,122.396484 1536.75883,122.327799 1536.75883,122.19043 C1536.75883,122.05306 1536.75883,121.91569 1536.75883,121.77832 C1536.62146,121.640951 1536.48409,121.503581 1536.34672,121.366211 C1536.20935,121.091471 1536.00329,120.885417 1535.72855,120.748047 C1535.45382,120.610677 1535.17908,120.541992 1534.90434,120.541992 C1534.6296,120.404622 1534.21749,120.335938 1533.66801,120.335938 C1533.39327,120.335938 1533.11853,120.404622 1532.84379,120.541992 C1532.56905,120.541992 1532.29431,120.610677 1532.01957,120.748047 C1531.74483,120.885417 1531.53878,121.091471 1531.40141,121.366211 C1531.12667,121.640951 1530.9893,121.91569 1530.9893,122.19043 C1530.85193,122.19043 1530.78324,122.259115 1530.78324,122.396484 C1530.64587,122.533854 1530.5085,122.602539 1530.37113,122.602539 C1530.23376,122.602539 1530.09639,122.602539 1529.95902,122.602539 C1529.82165,122.602539 1529.75297,122.602539 1529.75297,122.602539 C1529.6156,122.465169 1529.47823,122.396484 1529.34086,122.396484 C1529.34086,122.259115 1529.27217,122.121745 1529.1348,121.984375 C1529.1348,121.847005 1529.1348,121.77832 1529.1348,121.77832 C1529.1348,121.640951 1529.20349,121.503581 1529.34086,121.366211 C1529.47823,120.954102 1529.68428,120.541992 1529.95902,120.129883 C1530.23376,119.855143 1530.57719,119.580404 1530.9893,119.305664 C1531.40141,119.030924 1531.81352,118.82487 1532.22563,118.6875 C1532.7751,118.6875 1533.2559,118.6875 1533.66801,118.6875 C1534.6296,118.6875 1535.45382,118.756185 1536.14066,118.893555 C1536.69014,119.168294 1537.17094,119.511719 1537.58305,119.923828 C1537.99516,120.473307 1538.2699,121.022786 1538.40727,121.572266 C1538.54464,121.984375 1538.61332,122.465169 1538.61332,123.014648 C1538.61332,123.564128 1538.54464,124.113607 1538.40727,124.663086 C1538.2699,125.212565 1537.99516,125.693359 1537.58305,126.105469 C1537.30831,126.517578 1536.8962,126.998372 1536.34672,127.547852 C1535.79724,127.959961 1535.11039,128.440755 1534.28617,128.990234 Z M1554.47953,38.3261719 C1554.47953,38.1888021 1554.47953,38.0514323 1554.47953,37.9140625 C1554.6169,37.7766927 1554.68559,37.7080078 1554.68559,37.7080078 C1554.82296,37.570638 1554.96033,37.5019531 1555.0977,37.5019531 C1555.0977,37.5019531 1555.16638,37.5019531 1555.30375,37.5019531 C1555.71586,37.5019531 1556.05928,37.5019531 1556.33402,37.5019531 C1556.74613,37.6393229 1557.08956,37.7080078 1557.3643,37.7080078 C1557.63904,37.8453776 1557.84509,37.9827474 1557.98246,38.1201172 C1558.11983,38.1201172 1558.32589,38.1888021 1558.60063,38.3261719 C1558.05115,38.6009115 1557.57035,38.8069661 1557.15824,38.9443359 C1556.60876,39.0817057 1555.9906,39.1503906 1555.30375,39.1503906 C1555.30375,39.1503906 1555.23507,39.1503906 1555.0977,39.1503906 C1554.96033,39.1503906 1554.82296,39.0817057 1554.68559,38.9443359 C1554.68559,38.8069661 1554.6169,38.7382812 1554.47953,38.7382812 C1554.47953,38.6009115 1554.47953,38.4635417 1554.47953,38.3261719 Z M1552.41898,46.9804688 C1552.00688,46.7057292 1551.59477,46.4309896 1551.18266,46.15625 C1550.90792,45.7441406 1550.63318,45.4007161 1550.35844,45.1259766 C1550.35844,44.9886068 1550.35844,44.851237 1550.35844,44.7138672 C1550.22107,44.7138672 1550.15238,44.6451823 1550.15238,44.5078125 C1550.15238,44.5078125 1550.15238,44.5078125 1550.15238,44.5078125 C1550.15238,44.5078125 1550.15238,44.4391276 1550.15238,44.3017578 C1550.28975,44.164388 1550.35844,44.0957031 1550.35844,44.0957031 C1550.49581,43.9583333 1550.56449,43.8896484 1550.56449,43.8896484 C1550.70186,43.7522786 1550.83923,43.6835938 1550.9766,43.6835938 C1551.11397,43.6835938 1551.25134,43.6835938 1551.38871,43.6835938 C1551.52608,43.6835938 1551.59477,43.7522786 1551.59477,43.8896484 C1551.73214,43.8896484 1551.80082,43.9583333 1551.80082,44.0957031 C1552.07556,44.3704427 1552.28161,44.5764974 1552.41898,44.7138672 C1552.69372,44.9886068 1552.96846,45.1946615 1553.2432,45.3320312 C1553.51794,45.469401 1553.79268,45.5380859 1554.06742,45.5380859 C1554.34216,45.6754557 1554.68559,45.7441406 1555.0977,45.7441406 C1555.5098,45.7441406 1555.92191,45.6754557 1556.33402,45.5380859 C1556.74613,45.4007161 1557.15824,45.1946615 1557.57035,44.9199219 C1557.98246,44.6451823 1558.2572,44.3017578 1558.39457,43.8896484 C1558.66931,43.4775391 1558.80668,42.9967448 1558.80668,42.4472656 C1558.80668,42.172526 1558.80668,41.9664714 1558.80668,41.8291016 C1558.80668,41.554362 1558.73799,41.3483073 1558.60063,41.2109375 C1558.60063,40.9361979 1558.53194,40.7301432 1558.39457,40.5927734 C1558.2572,40.4554036 1558.11983,40.3180339 1557.98246,40.1806641 C1557.84509,40.0432943 1557.63904,39.9059245 1557.3643,39.7685547 C1557.22693,39.6311849 1557.02087,39.4938151 1556.74613,39.3564453 C1556.47139,39.3564453 1556.19665,39.2877604 1555.92191,39.1503906 C1555.64717,39.1503906 1555.37243,39.1503906 1555.0977,39.1503906 C1554.96033,39.1503906 1554.82296,39.1503906 1554.68559,39.1503906 C1554.54822,39.1503906 1554.47953,39.0817057 1554.47953,38.9443359 C1554.34216,38.8069661 1554.27348,38.6695964 1554.27348,38.5322266 C1554.13611,38.5322266 1554.06742,38.4635417 1554.06742,38.3261719 C1554.06742,38.1888021 1554.13611,38.0514323 1554.27348,37.9140625 C1554.27348,37.7766927 1554.34216,37.7080078 1554.47953,37.7080078 C1554.47953,37.570638 1554.54822,37.5019531 1554.68559,37.5019531 C1554.82296,37.5019531 1554.96033,37.5019531 1555.0977,37.5019531 C1555.0977,37.5019531 1555.0977,37.5019531 1555.0977,37.5019531 C1555.23507,37.5019531 1555.30375,37.5019531 1555.30375,37.5019531 C1555.16638,37.5019531 1555.0977,37.5019531 1555.0977,37.5019531 C1554.96033,37.5019531 1554.82296,37.570638 1554.68559,37.7080078 C1554.68559,37.7080078 1554.6169,37.7766927 1554.47953,37.9140625 C1554.47953,38.0514323 1554.47953,38.1888021 1554.47953,38.3261719 C1554.47953,38.4635417 1554.47953,38.5322266 1554.47953,38.5322266 C1554.6169,38.6695964 1554.68559,38.8069661 1554.68559,38.9443359 C1554.82296,39.0817057 1554.96033,39.1503906 1555.0977,39.1503906 C1555.23507,39.1503906 1555.30375,39.1503906 1555.30375,39.1503906 C1555.9906,39.1503906 1556.60876,39.0817057 1557.15824,38.9443359 C1557.57035,38.8069661 1558.05115,38.6009115 1558.60063,38.3261719 C1558.73799,38.4635417 1558.87536,38.5322266 1559.01273,38.5322266 C1559.01273,38.6695964 1559.08142,38.8069661 1559.21879,38.9443359 C1559.49353,39.2190755 1559.69958,39.4251302 1559.83695,39.5625 C1559.97432,39.8372396 1560.11169,40.1119792 1560.24906,40.3867188 C1560.38643,40.7988281 1560.45512,41.1422526 1560.45512,41.4169922 C1560.59249,41.8291016 1560.66117,42.172526 1560.66117,42.4472656 C1560.66117,43.1341146 1560.5238,43.8209635 1560.24906,44.5078125 C1559.97432,45.0572917 1559.56221,45.6067708 1559.01273,46.15625 C1558.46326,46.5683594 1557.84509,46.9117839 1557.15824,47.1865234 C1556.47139,47.461263 1555.78454,47.5986328 1555.0977,47.5986328 C1554.54822,47.5986328 1554.06742,47.5299479 1553.65531,47.3925781 C1553.2432,47.2552083 1552.83109,47.1178385 1552.41898,46.9804688 Z M1558.60063,38.3261719 C1558.32589,38.1888021 1558.11983,38.1201172 1557.98246,38.1201172 C1557.84509,37.9827474 1557.63904,37.8453776 1557.3643,37.7080078 C1557.08956,37.570638 1556.74613,37.5019531 1556.33402,37.5019531 C1556.05928,37.5019531 1555.71586,37.5019531 1555.30375,37.5019531 C1555.30375,37.5019531 1555.30375,37.4332682 1555.30375,37.2958984 C1555.30375,37.2958984 1555.30375,37.2958984 1555.30375,37.2958984 C1555.85323,37.2958984 1556.33402,37.2958984 1556.74613,37.2958984 C1557.15824,37.1585286 1557.50167,36.952474 1557.77641,36.6777344 C1558.18852,36.4029948 1558.46326,36.1282552 1558.60063,35.8535156 C1558.73799,35.578776 1558.80668,35.2353516 1558.80668,34.8232422 C1558.80668,34.5485026 1558.80668,34.3424479 1558.80668,34.2050781 C1558.80668,34.0677083 1558.73799,33.9303385 1558.60063,33.7929688 C1558.46326,33.655599 1558.39457,33.5182292 1558.39457,33.3808594 C1558.2572,33.2434896 1558.18852,33.1748047 1558.18852,33.1748047 C1558.05115,33.0374349 1557.91378,32.9000651 1557.77641,32.7626953 C1557.50167,32.6253255 1557.29561,32.5566406 1557.15824,32.5566406 C1557.02087,32.4192708 1556.8835,32.3505859 1556.74613,32.3505859 C1556.47139,32.2132161 1556.26534,32.1445312 1556.12797,32.1445312 C1555.85323,32.1445312 1555.57849,32.2132161 1555.30375,32.3505859 C1555.02901,32.3505859 1554.75427,32.4192708 1554.47953,32.5566406 C1554.20479,32.5566406 1553.99874,32.6940104 1553.86137,32.96875 C1553.58663,33.1061198 1553.38057,33.2434896 1553.2432,33.3808594 C1553.10583,33.5182292 1553.03715,33.5869141 1553.03715,33.5869141 C1552.89978,33.5869141 1552.76241,33.5869141 1552.62504,33.5869141 C1552.48767,33.5869141 1552.3503,33.5869141 1552.21293,33.5869141 C1552.21293,33.5869141 1552.14424,33.5182292 1552.00688,33.3808594 C1551.86951,33.3808594 1551.80082,33.3121745 1551.80082,33.1748047 C1551.66345,33.0374349 1551.59477,32.9000651 1551.59477,32.7626953 C1551.59477,32.7626953 1551.66345,32.6940104 1551.80082,32.5566406 C1551.80082,32.4192708 1551.86951,32.281901 1552.00688,32.1445312 C1552.14424,31.8697917 1552.41898,31.5950521 1552.83109,31.3203125 C1553.10583,31.1829427 1553.44926,31.0455729 1553.86137,30.9082031 C1554.13611,30.7708333 1554.47953,30.6334635 1554.89164,30.4960938 C1555.30375,30.4960938 1555.71586,30.4960938 1556.12797,30.4960938 C1556.40271,30.4960938 1556.74613,30.4960938 1557.15824,30.4960938 C1557.43298,30.6334635 1557.70772,30.7021484 1557.98246,30.7021484 C1558.2572,30.8395182 1558.53194,31.0455729 1558.80668,31.3203125 C1558.94405,31.4576823 1559.1501,31.5950521 1559.42484,31.7324219 C1559.56221,32.0071615 1559.76827,32.281901 1560.04301,32.5566406 C1560.18038,32.6940104 1560.24906,32.9000651 1560.24906,33.1748047 C1560.38643,33.4495443 1560.45512,33.7242839 1560.45512,33.9990234 C1560.59249,34.273763 1560.66117,34.5485026 1560.66117,34.8232422 C1560.66117,34.8232422 1560.66117,34.8232422 1560.66117,34.8232422 C1560.66117,34.8232422 1560.66117,34.8232422 1560.66117,34.8232422 C1560.66117,35.5100911 1560.5238,36.0595703 1560.24906,36.4716797 C1559.97432,37.0211589 1559.56221,37.5019531 1559.01273,37.9140625 C1559.01273,38.0514323 1558.94405,38.1201172 1558.80668,38.1201172 C1558.66931,38.257487 1558.60063,38.3261719 1558.60063,38.3261719 Z" transform="translate(-1486.154 -23.734)"/></svg>