<svg xmlns="http://www.w3.org/2000/svg" width="207" height="207" viewBox="0 0 207 207"><path fill="#131313" d="M155.630859,26 C157.876953,26 159.823568,26.7486979 161.470703,28.2460938 C163.117839,29.8932292 163.941406,31.8398438 163.941406,34.0859375 C163.941406,64.9322917 163.941406,111.201823 163.941406,172.894531 C163.941406,175.140625 163.117839,177.08724 161.470703,178.734375 C159.823568,180.231771 157.876953,180.980469 155.630859,180.980469 C153.384766,180.980469 151.513021,180.231771 150.015625,178.734375 C148.36849,177.08724 147.544922,175.140625 147.544922,172.894531 C147.544922,159.268229 147.544922,138.828776 147.544922,111.576172 C133.76888,111.576172 113.104818,111.576172 85.5527344,111.576172 C85.5527344,125.202474 85.5527344,145.641927 85.5527344,172.894531 C85.5527344,175.140625 84.8040365,177.08724 83.3066406,178.734375 C81.6595052,180.231771 79.7128906,180.980469 77.4667969,180.980469 C75.2207031,180.980469 73.2740885,180.231771 71.6269531,178.734375 C70.1295573,177.08724 69.3808594,175.140625 69.3808594,172.894531 C69.3808594,142.048177 69.3808594,95.7786458 69.3808594,34.0859375 C69.3808594,31.8398438 70.1295573,29.8932292 71.6269531,28.2460938 C73.2740885,26.7486979 75.2207031,26 77.4667969,26 C79.7128906,26 81.6595052,26.7486979 83.3066406,28.2460938 C84.8040365,29.8932292 85.5527344,31.8398438 85.5527344,34.0859375 C85.5527344,47.7122396 85.5527344,68.1516927 85.5527344,95.4042969 C99.328776,95.4042969 119.992839,95.4042969 147.544922,95.4042969 C147.544922,81.7779948 147.544922,61.3385417 147.544922,34.0859375 C147.544922,31.8398438 148.36849,29.8932292 150.015625,28.2460938 C151.513021,26.7486979 153.384766,26 155.630859,26 Z M136.763672,42.8457031 C136.913411,42.9954427 137.063151,43.0703125 137.212891,43.0703125 C137.51237,43.0703125 137.736979,43.0703125 137.886719,43.0703125 C138.036458,43.0703125 138.186198,43.0703125 138.335938,43.0703125 C138.635417,43.0703125 138.860026,42.9954427 139.009766,42.8457031 C139.009766,49.4342448 139.009766,59.2421875 139.009766,72.2695312 C138.560547,72.2695312 137.811849,72.2695312 136.763672,72.2695312 C136.763672,67.4778646 136.763672,62.6113281 136.763672,57.6699219 C136.763672,52.7285156 136.763672,47.7871094 136.763672,42.8457031 Z M136.763672,74.515625 C136.763672,74.0664062 136.763672,73.3177083 136.763672,72.2695312 C136.314453,72.2695312 135.565755,72.2695312 134.517578,72.2695312 C135.266276,75.1145833 136.389323,79.3072917 137.886719,84.8476562 C138.635417,82.0026042 139.758464,77.8098958 141.255859,72.2695312 C140.656901,72.2695312 139.908203,72.2695312 139.009766,72.2695312 C139.009766,72.8684896 139.009766,73.6171875 139.009766,74.515625 C138.560547,74.515625 137.811849,74.515625 136.763672,74.515625 Z M136.763672,74.515625 C137.212891,74.515625 137.961589,74.515625 139.009766,74.515625 C139.009766,74.0664062 139.009766,73.3177083 139.009766,72.2695312 C138.560547,72.2695312 137.811849,72.2695312 136.763672,72.2695312 C136.763672,72.8684896 136.763672,73.6171875 136.763672,74.515625 Z M137.886719,33.4121094 C139.234375,33.4121094 140.357422,33.8613281 141.255859,34.7597656 C142.304036,35.6582031 142.828125,36.78125 142.828125,38.1289062 C142.828125,39.3268229 142.453776,40.375 141.705078,41.2734375 C140.95638,42.171875 140.057943,42.6959635 139.009766,42.8457031 C139.009766,42.8457031 139.009766,42.6959635 139.009766,42.3964844 C139.908203,42.0970052 140.656901,41.5729167 141.255859,40.8242188 C141.854818,40.0755208 142.154297,39.1770833 142.154297,38.1289062 C142.154297,36.9309896 141.705078,35.9576823 140.806641,35.2089844 C140.057943,34.3105469 139.084635,33.8613281 137.886719,33.8613281 C136.688802,33.8613281 135.640625,34.3105469 134.742188,35.2089844 C133.99349,35.9576823 133.619141,36.9309896 133.619141,38.1289062 C133.619141,39.1770833 133.91862,40.0755208 134.517578,40.8242188 C135.116536,41.5729167 135.865234,42.0970052 136.763672,42.3964844 C136.763672,42.546224 136.763672,42.6959635 136.763672,42.8457031 C135.715495,42.6959635 134.817057,42.171875 134.068359,41.2734375 C133.319661,40.375 132.945312,39.3268229 132.945312,38.1289062 C132.945312,36.78125 133.394531,35.6582031 134.292969,34.7597656 C135.341146,33.8613281 136.539062,33.4121094 137.886719,33.4121094 Z M137.886719,42.6210938 C138.036458,42.6210938 138.186198,42.546224 138.335938,42.3964844 C138.635417,42.3964844 138.860026,42.3964844 139.009766,42.3964844 C139.009766,42.546224 139.009766,42.6959635 139.009766,42.8457031 C138.860026,42.9954427 138.635417,43.0703125 138.335938,43.0703125 C138.186198,43.0703125 138.036458,43.0703125 137.886719,43.0703125 C137.736979,43.0703125 137.51237,43.0703125 137.212891,43.0703125 C137.063151,43.0703125 136.913411,42.9954427 136.763672,42.8457031 C136.763672,42.8457031 136.763672,42.6959635 136.763672,42.3964844 C136.913411,42.3964844 137.063151,42.3964844 137.212891,42.3964844 C137.51237,42.546224 137.736979,42.6210938 137.886719,42.6210938 Z M134.068359,38.1289062 C134.068359,39.0273438 134.292969,39.7760417 134.742188,40.375 C135.341146,40.9739583 136.014974,41.4231771 136.763672,41.7226562 C136.763672,41.8723958 136.763672,42.0970052 136.763672,42.3964844 C135.865234,42.0970052 135.116536,41.5729167 134.517578,40.8242188 C133.91862,40.0755208 133.619141,39.1770833 133.619141,38.1289062 C133.619141,36.9309896 133.99349,35.9576823 134.742188,35.2089844 C135.640625,34.3105469 136.688802,33.8613281 137.886719,33.8613281 C139.084635,33.8613281 140.057943,34.3105469 140.806641,35.2089844 C141.705078,35.9576823 142.154297,36.9309896 142.154297,38.1289062 C142.154297,39.1770833 141.854818,40.0755208 141.255859,40.8242188 C140.656901,41.5729167 139.908203,42.0970052 139.009766,42.3964844 C139.009766,42.2467448 139.009766,42.0221354 139.009766,41.7226562 C139.758464,41.4231771 140.357422,40.9739583 140.806641,40.375 C141.405599,39.7760417 141.705078,39.0273438 141.705078,38.1289062 C141.705078,37.0807292 141.330729,36.2571615 140.582031,35.6582031 C139.833333,34.9095052 138.934896,34.5351562 137.886719,34.5351562 C136.838542,34.5351562 135.940104,34.9095052 135.191406,35.6582031 C134.442708,36.2571615 134.068359,37.0807292 134.068359,38.1289062 C134.068359,37.9791667 134.068359,37.8294271 134.068359,37.6796875 C134.068359,37.6796875 134.068359,37.6796875 134.068359,37.6796875 C134.068359,37.6796875 134.068359,37.6796875 134.068359,37.6796875 C134.068359,37.8294271 134.068359,37.9791667 134.068359,38.1289062 C134.068359,38.4283854 134.068359,38.578125 134.068359,38.578125 C134.068359,38.7278646 134.068359,38.8027344 134.068359,38.8027344 C134.068359,38.8027344 134.068359,38.7278646 134.068359,38.578125 C134.068359,38.578125 134.068359,38.4283854 134.068359,38.1289062 Z M139.009766,42.3964844 C138.860026,42.3964844 138.635417,42.3964844 138.335938,42.3964844 C138.186198,42.546224 138.036458,42.6210938 137.886719,42.6210938 C137.736979,42.6210938 137.51237,42.546224 137.212891,42.3964844 C137.063151,42.3964844 136.913411,42.3964844 136.763672,42.3964844 C136.763672,42.2467448 136.763672,42.0221354 136.763672,41.7226562 C136.913411,41.7226562 137.063151,41.797526 137.212891,41.9472656 C137.36263,41.9472656 137.58724,41.9472656 137.886719,41.9472656 C138.036458,41.9472656 138.261068,41.9472656 138.560547,41.9472656 C138.710286,41.797526 138.860026,41.7226562 139.009766,41.7226562 C139.009766,41.8723958 139.009766,41.9472656 139.009766,41.9472656 C139.009766,42.0970052 139.009766,42.2467448 139.009766,42.3964844 Z M58.375,42.8457031 C58.6744792,42.9954427 58.8990885,43.0703125 59.0488281,43.0703125 C59.1985677,43.0703125 59.4231771,43.0703125 59.7226562,43.0703125 C59.8723958,43.0703125 60.0221354,43.0703125 60.171875,43.0703125 C60.3216146,43.0703125 60.546224,42.9954427 60.8457031,42.8457031 C60.8457031,49.4342448 60.8457031,59.2421875 60.8457031,72.2695312 C60.2467448,72.2695312 59.4231771,72.2695312 58.375,72.2695312 C58.375,67.4778646 58.375,62.6113281 58.375,57.6699219 C58.375,52.7285156 58.375,47.7871094 58.375,42.8457031 Z M58.375,74.515625 C58.375,74.0664062 58.375,73.3177083 58.375,72.2695312 C57.9257812,72.2695312 57.2519531,72.2695312 56.3535156,72.2695312 C57.1022135,75.1145833 58.2252604,79.3072917 59.7226562,84.8476562 C60.3216146,82.0026042 61.3697917,77.8098958 62.8671875,72.2695312 C62.4179688,72.2695312 61.7441406,72.2695312 60.8457031,72.2695312 C60.8457031,72.8684896 60.8457031,73.6171875 60.8457031,74.515625 C60.2467448,74.515625 59.4231771,74.515625 58.375,74.515625 Z M58.375,74.515625 C58.9739583,74.515625 59.797526,74.515625 60.8457031,74.515625 C60.8457031,74.0664062 60.8457031,73.3177083 60.8457031,72.2695312 C60.2467448,72.2695312 59.4231771,72.2695312 58.375,72.2695312 C58.375,72.8684896 58.375,73.6171875 58.375,74.515625 Z M59.7226562,33.4121094 C61.0703125,33.4121094 62.1933594,33.8613281 63.0917969,34.7597656 C63.9902344,35.6582031 64.4394531,36.78125 64.4394531,38.1289062 C64.4394531,39.3268229 64.139974,40.375 63.5410156,41.2734375 C62.7923177,42.171875 61.8938802,42.6959635 60.8457031,42.8457031 C60.8457031,42.8457031 60.8457031,42.6959635 60.8457031,42.3964844 C61.7441406,42.0970052 62.4928385,41.5729167 63.0917969,40.8242188 C63.6907552,40.0755208 63.9902344,39.1770833 63.9902344,38.1289062 C63.9902344,36.9309896 63.5410156,35.9576823 62.6425781,35.2089844 C61.7441406,34.3105469 60.7708333,33.8613281 59.7226562,33.8613281 C58.5247396,33.8613281 57.4765625,34.3105469 56.578125,35.2089844 C55.6796875,35.9576823 55.2304688,36.9309896 55.2304688,38.1289062 C55.2304688,39.1770833 55.5299479,40.0755208 56.1289062,40.8242188 C56.7278646,41.5729167 57.4765625,42.0970052 58.375,42.3964844 C58.375,42.546224 58.375,42.6959635 58.375,42.8457031 C57.3268229,42.6959635 56.4283854,42.171875 55.6796875,41.2734375 C55.0807292,40.375 54.78125,39.3268229 54.78125,38.1289062 C54.78125,36.78125 55.2304688,35.6582031 56.1289062,34.7597656 C57.1770833,33.8613281 58.375,33.4121094 59.7226562,33.4121094 Z M59.7226562,42.6210938 C59.8723958,42.6210938 60.0221354,42.546224 60.171875,42.3964844 C60.3216146,42.3964844 60.546224,42.3964844 60.8457031,42.3964844 C60.8457031,42.546224 60.8457031,42.6959635 60.8457031,42.8457031 C60.546224,42.9954427 60.3216146,43.0703125 60.171875,43.0703125 C60.0221354,43.0703125 59.8723958,43.0703125 59.7226562,43.0703125 C59.4231771,43.0703125 59.1985677,43.0703125 59.0488281,43.0703125 C58.8990885,43.0703125 58.6744792,42.9954427 58.375,42.8457031 C58.375,42.8457031 58.375,42.6959635 58.375,42.3964844 C58.6744792,42.3964844 58.8990885,42.3964844 59.0488281,42.3964844 C59.1985677,42.546224 59.4231771,42.6210938 59.7226562,42.6210938 Z M55.9042969,38.1289062 C55.9042969,39.0273438 56.1289062,39.7760417 56.578125,40.375 C57.0273438,40.9739583 57.6263021,41.4231771 58.375,41.7226562 C58.375,41.8723958 58.375,42.0970052 58.375,42.3964844 C57.4765625,42.0970052 56.7278646,41.5729167 56.1289062,40.8242188 C55.5299479,40.0755208 55.2304688,39.1770833 55.2304688,38.1289062 C55.2304688,36.9309896 55.6796875,35.9576823 56.578125,35.2089844 C57.4765625,34.3105469 58.5247396,33.8613281 59.7226562,33.8613281 C60.7708333,33.8613281 61.7441406,34.3105469 62.6425781,35.2089844 C63.5410156,35.9576823 63.9902344,36.9309896 63.9902344,38.1289062 C63.9902344,39.1770833 63.6907552,40.0755208 63.0917969,40.8242188 C62.4928385,41.5729167 61.7441406,42.0970052 60.8457031,42.3964844 C60.8457031,42.2467448 60.8457031,42.0221354 60.8457031,41.7226562 C61.594401,41.4231771 62.1933594,40.9739583 62.6425781,40.375 C63.0917969,39.7760417 63.3164062,39.0273438 63.3164062,38.1289062 C63.3164062,37.0807292 62.9420573,36.2571615 62.1933594,35.6582031 C61.4446615,34.9095052 60.6210938,34.5351562 59.7226562,34.5351562 C58.6744792,34.5351562 57.7760417,34.9095052 57.0273438,35.6582031 C56.2786458,36.2571615 55.9042969,37.0807292 55.9042969,38.1289062 C55.9042969,37.9791667 55.9042969,37.8294271 55.9042969,37.6796875 C55.9042969,37.6796875 55.9042969,37.6796875 55.9042969,37.6796875 C55.9042969,37.6796875 55.9042969,37.6796875 55.9042969,37.6796875 C55.9042969,37.8294271 55.9042969,37.9791667 55.9042969,38.1289062 C55.9042969,38.4283854 55.9042969,38.578125 55.9042969,38.578125 C55.9042969,38.7278646 55.9042969,38.8027344 55.9042969,38.8027344 C55.9042969,38.8027344 55.9042969,38.7278646 55.9042969,38.578125 C55.9042969,38.578125 55.9042969,38.4283854 55.9042969,38.1289062 Z M60.8457031,42.3964844 C60.546224,42.3964844 60.3216146,42.3964844 60.171875,42.3964844 C60.0221354,42.546224 59.8723958,42.6210938 59.7226562,42.6210938 C59.4231771,42.6210938 59.1985677,42.546224 59.0488281,42.3964844 C58.8990885,42.3964844 58.6744792,42.3964844 58.375,42.3964844 C58.375,42.2467448 58.375,42.0221354 58.375,41.7226562 C58.6744792,41.7226562 58.8990885,41.797526 59.0488281,41.9472656 C59.1985677,41.9472656 59.4231771,41.9472656 59.7226562,41.9472656 C59.8723958,41.9472656 60.0221354,41.9472656 60.171875,41.9472656 C60.3216146,41.797526 60.546224,41.7226562 60.8457031,41.7226562 C60.8457031,41.8723958 60.8457031,41.9472656 60.8457031,41.9472656 C60.8457031,42.0970052 60.8457031,42.2467448 60.8457031,42.3964844 Z M105.318359,120.560547 C105.318359,120.860026 105.318359,121.084635 105.318359,121.234375 C105.16862,121.384115 105.09375,121.608724 105.09375,121.908203 C109.585938,121.908203 116.324219,121.908203 125.308594,121.908203 C125.308594,121.309245 125.308594,120.485677 125.308594,119.4375 C120.816406,119.4375 114.078125,119.4375 105.09375,119.4375 C105.09375,119.736979 105.16862,119.961589 105.318359,120.111328 C105.318359,120.261068 105.318359,120.410807 105.318359,120.560547 Z M125.308594,117.416016 C128.153646,118.164714 132.346354,119.212891 137.886719,120.560547 C135.041667,121.309245 130.848958,122.432292 125.308594,123.929688 C125.308594,123.480469 125.308594,122.806641 125.308594,121.908203 C125.907552,121.908203 126.73112,121.908203 127.779297,121.908203 C127.779297,121.309245 127.779297,120.485677 127.779297,119.4375 C127.180339,119.4375 126.356771,119.4375 125.308594,119.4375 C125.308594,118.988281 125.308594,118.314453 125.308594,117.416016 Z M125.308594,121.908203 C125.907552,121.908203 126.73112,121.908203 127.779297,121.908203 C127.779297,121.309245 127.779297,120.485677 127.779297,119.4375 C127.180339,119.4375 126.356771,119.4375 125.308594,119.4375 C125.308594,120.036458 125.308594,120.860026 125.308594,121.908203 Z M100.376953,125.052734 C101.42513,125.052734 102.323568,124.753255 103.072266,124.154297 C103.820964,123.555339 104.270182,122.806641 104.419922,121.908203 C104.569661,121.908203 104.794271,121.908203 105.09375,121.908203 C104.794271,122.95638 104.270182,123.779948 103.521484,124.378906 C102.623047,125.127604 101.57487,125.501953 100.376953,125.501953 C99.0292969,125.501953 97.90625,125.052734 97.0078125,124.154297 C95.9596354,123.10612 95.4355469,121.908203 95.4355469,120.560547 C95.4355469,119.212891 95.9596354,118.089844 97.0078125,117.191406 C97.90625,116.292969 99.0292969,115.84375 100.376953,115.84375 C101.57487,115.84375 102.548177,116.143229 103.296875,116.742188 C104.195312,117.490885 104.794271,118.389323 105.09375,119.4375 C104.94401,119.4375 104.719401,119.4375 104.419922,119.4375 C104.270182,118.539062 103.820964,117.790365 103.072266,117.191406 C102.323568,116.592448 101.42513,116.292969 100.376953,116.292969 C99.1790365,116.292969 98.1308594,116.742188 97.2324219,117.640625 C96.483724,118.389323 96.109375,119.36263 96.109375,120.560547 C96.109375,121.758464 96.483724,122.806641 97.2324219,123.705078 C98.1308594,124.603516 99.1790365,125.052734 100.376953,125.052734 Z M104.419922,119.4375 C104.569661,119.736979 104.644531,119.961589 104.644531,120.111328 C104.644531,120.261068 104.644531,120.410807 104.644531,120.560547 C104.644531,120.860026 104.644531,121.084635 104.644531,121.234375 C104.644531,121.384115 104.569661,121.608724 104.419922,121.908203 C104.569661,121.908203 104.794271,121.908203 105.09375,121.908203 C105.09375,121.608724 105.16862,121.384115 105.318359,121.234375 C105.318359,121.084635 105.318359,120.860026 105.318359,120.560547 C105.318359,120.410807 105.318359,120.261068 105.318359,120.111328 C105.16862,119.961589 105.09375,119.736979 105.09375,119.4375 C104.94401,119.4375 104.869141,119.4375 104.869141,119.4375 C104.719401,119.4375 104.569661,119.4375 104.419922,119.4375 Z M100.376953,116.292969 C101.42513,116.292969 102.323568,116.592448 103.072266,117.191406 C103.820964,117.790365 104.270182,118.539062 104.419922,119.4375 C104.419922,119.4375 104.270182,119.4375 103.970703,119.4375 C103.671224,118.688802 103.222005,118.089844 102.623047,117.640625 C102.024089,117.191406 101.275391,116.966797 100.376953,116.966797 C99.328776,116.966797 98.4303385,117.341146 97.6816406,118.089844 C96.9329427,118.838542 96.5585938,119.662109 96.5585938,120.560547 C96.5585938,121.608724 96.9329427,122.507161 97.6816406,123.255859 C98.4303385,124.004557 99.328776,124.378906 100.376953,124.378906 C100.227214,124.378906 100.077474,124.378906 99.9277344,124.378906 C99.7779948,124.378906 99.703125,124.378906 99.703125,124.378906 C99.703125,124.378906 99.7779948,124.378906 99.9277344,124.378906 C100.077474,124.378906 100.227214,124.378906 100.376953,124.378906 C100.526693,124.378906 100.676432,124.378906 100.826172,124.378906 C100.975911,124.378906 101.050781,124.378906 101.050781,124.378906 C101.050781,124.378906 100.975911,124.378906 100.826172,124.378906 C100.676432,124.378906 100.526693,124.378906 100.376953,124.378906 C101.275391,124.378906 102.024089,124.154297 102.623047,123.705078 C103.222005,123.255859 103.671224,122.656901 103.970703,121.908203 C104.120443,121.908203 104.270182,121.908203 104.419922,121.908203 C104.270182,122.806641 103.820964,123.555339 103.072266,124.154297 C102.323568,124.753255 101.42513,125.052734 100.376953,125.052734 C99.1790365,125.052734 98.1308594,124.603516 97.2324219,123.705078 C96.483724,122.806641 96.109375,121.758464 96.109375,120.560547 C96.109375,119.36263 96.483724,118.389323 97.2324219,117.640625 C98.1308594,116.742188 99.1790365,116.292969 100.376953,116.292969 Z M103.970703,121.908203 C104.120443,121.908203 104.270182,121.908203 104.419922,121.908203 C104.569661,121.608724 104.644531,121.384115 104.644531,121.234375 C104.644531,121.084635 104.644531,120.860026 104.644531,120.560547 C104.644531,120.410807 104.644531,120.261068 104.644531,120.111328 C104.644531,119.961589 104.569661,119.736979 104.419922,119.4375 C104.419922,119.4375 104.270182,119.4375 103.970703,119.4375 C103.970703,119.736979 103.970703,119.961589 103.970703,120.111328 C104.120443,120.261068 104.195312,120.410807 104.195312,120.560547 C104.195312,120.860026 104.120443,121.084635 103.970703,121.234375 C103.970703,121.384115 103.970703,121.608724 103.970703,121.908203 Z M47.59375,33.8613281 C47.7434896,33.8613281 47.8183594,33.9361979 47.8183594,34.0859375 C47.968099,34.0859375 48.0429688,34.1608073 48.0429688,34.3105469 C48.0429688,34.3105469 48.1178385,34.3854167 48.2675781,34.5351562 C48.2675781,34.5351562 48.2675781,34.610026 48.2675781,34.7597656 C48.2675781,36.5566406 48.2675781,38.8776042 48.2675781,41.7226562 C48.2675781,44.4179688 48.2675781,47.6373698 48.2675781,51.3808594 C48.2675781,51.530599 48.1927083,51.6803385 48.0429688,51.8300781 C48.0429688,51.9798177 47.968099,52.0546875 47.8183594,52.0546875 C47.8183594,52.2044271 47.7434896,52.2792969 47.59375,52.2792969 C47.4440104,52.2792969 47.2942708,52.2792969 47.1445312,52.2792969 C47.1445312,52.2792969 47.0696615,52.2792969 46.9199219,52.2792969 C46.7701823,52.2792969 46.6204427,52.2044271 46.4707031,52.0546875 C46.4707031,52.0546875 46.3958333,51.9798177 46.2460938,51.8300781 C46.2460938,51.6803385 46.2460938,51.530599 46.2460938,51.3808594 C46.2460938,49.8834635 46.2460938,47.936849 46.2460938,45.5410156 C46.2460938,43.1451823 46.2460938,40.375 46.2460938,37.2304688 C46.0963542,37.2304688 46.0214844,37.3053385 46.0214844,37.4550781 C45.8717448,37.6048177 45.7220052,37.7545573 45.5722656,37.9042969 C45.422526,37.9042969 45.3476562,37.9042969 45.3476562,37.9042969 C45.1979167,38.0540365 45.0481771,38.1289062 44.8984375,38.1289062 C44.7486979,38.1289062 44.5989583,38.0540365 44.4492188,37.9042969 C44.4492188,37.9042969 44.374349,37.9042969 44.2246094,37.9042969 C44.0748698,37.7545573 44,37.6048177 44,37.4550781 C44,37.3053385 44,37.2304688 44,37.2304688 C44,37.0807292 44,36.9309896 44,36.78125 C44,36.6315104 44.0748698,36.4817708 44.2246094,36.3320312 C44.5240885,36.1822917 44.8235677,35.8828125 45.1230469,35.4335938 C45.5722656,34.984375 46.0214844,34.5351562 46.4707031,34.0859375 C46.6204427,34.0859375 46.6953125,34.0110677 46.6953125,33.8613281 C46.8450521,33.8613281 46.9947917,33.8613281 47.1445312,33.8613281 C47.1445312,33.8613281 47.1445312,33.8613281 47.1445312,33.8613281 C47.1445312,33.8613281 47.1445312,33.8613281 47.1445312,33.8613281 C47.2942708,33.8613281 47.3691406,33.8613281 47.3691406,33.8613281 C47.5188802,33.8613281 47.59375,33.8613281 47.59375,33.8613281 Z M100.826172,140.775391 C100.227214,141.224609 99.6282552,141.673828 99.0292969,142.123047 C98.5800781,142.572266 98.2057292,143.021484 97.90625,143.470703 C97.6067708,144.069661 97.3821615,144.59375 97.2324219,145.042969 C96.9329427,145.342448 96.7832031,145.716797 96.7832031,146.166016 C97.6816406,146.166016 98.8046875,146.166016 100.152344,146.166016 C101.5,146.166016 103.072266,146.166016 104.869141,146.166016 C105.01888,146.166016 105.16862,146.166016 105.318359,146.166016 C105.468099,146.166016 105.542969,146.240885 105.542969,146.390625 C105.692708,146.540365 105.767578,146.615234 105.767578,146.615234 C105.767578,146.764974 105.767578,146.914714 105.767578,147.064453 C105.767578,147.214193 105.767578,147.363932 105.767578,147.513672 C105.767578,147.513672 105.692708,147.588542 105.542969,147.738281 C105.542969,147.888021 105.468099,147.962891 105.318359,147.962891 C105.16862,147.962891 105.01888,147.962891 104.869141,147.962891 C104.120443,147.962891 103.371745,147.962891 102.623047,147.962891 C101.874349,147.962891 101.050781,147.962891 100.152344,147.962891 C99.4036458,147.962891 98.6549479,147.962891 97.90625,147.962891 C97.1575521,147.962891 96.3339844,147.962891 95.4355469,147.962891 C95.4355469,147.962891 95.3606771,147.962891 95.2109375,147.962891 C95.2109375,147.962891 95.2109375,147.962891 95.2109375,147.962891 C95.0611979,147.962891 94.9863281,147.962891 94.9863281,147.962891 C94.9863281,147.813151 94.9114583,147.738281 94.7617188,147.738281 C94.7617188,147.738281 94.7617188,147.663411 94.7617188,147.513672 C94.6119792,147.513672 94.5371094,147.438802 94.5371094,147.289062 C94.5371094,147.289062 94.5371094,147.289062 94.5371094,147.289062 C94.5371094,147.139323 94.5371094,147.064453 94.5371094,147.064453 C94.5371094,147.064453 94.5371094,147.064453 94.5371094,147.064453 C94.5371094,147.064453 94.5371094,147.064453 94.5371094,147.064453 C94.5371094,146.914714 94.6119792,146.764974 94.7617188,146.615234 C94.7617188,146.315755 94.8365885,145.941406 94.9863281,145.492188 C94.9863281,145.042969 95.1360677,144.59375 95.4355469,144.144531 C95.5852865,143.695312 95.8847656,143.171224 96.3339844,142.572266 C96.483724,142.272786 96.7083333,141.973307 97.0078125,141.673828 C97.1575521,141.374349 97.3821615,141.07487 97.6816406,140.775391 C97.9811198,140.475911 98.280599,140.176432 98.5800781,139.876953 C99.0292969,139.577474 99.4036458,139.277995 99.703125,138.978516 C100.601562,138.529297 101.35026,138.080078 101.949219,137.630859 C102.398438,137.181641 102.772786,136.732422 103.072266,136.283203 C103.222005,135.983724 103.371745,135.609375 103.521484,135.160156 C103.671224,134.860677 103.746094,134.561198 103.746094,134.261719 C103.746094,134.111979 103.746094,134.037109 103.746094,134.037109 C103.596354,133.88737 103.521484,133.73763 103.521484,133.587891 C103.521484,133.587891 103.521484,133.513021 103.521484,133.363281 C103.521484,133.213542 103.521484,133.063802 103.521484,132.914062 C103.371745,132.764323 103.222005,132.614583 103.072266,132.464844 C102.922526,132.165365 102.697917,131.940755 102.398438,131.791016 C102.098958,131.641276 101.799479,131.566406 101.5,131.566406 C101.200521,131.416667 100.751302,131.341797 100.152344,131.341797 C99.8528646,131.341797 99.5533854,131.416667 99.2539062,131.566406 C98.9544271,131.566406 98.6549479,131.641276 98.3554688,131.791016 C98.0559896,131.940755 97.8313802,132.165365 97.6816406,132.464844 C97.3821615,132.764323 97.2324219,133.063802 97.2324219,133.363281 C97.0826823,133.363281 97.0078125,133.438151 97.0078125,133.587891 C96.8580729,133.73763 96.7083333,133.8125 96.5585938,133.8125 C96.4088542,133.8125 96.2591146,133.8125 96.109375,133.8125 C95.9596354,133.8125 95.8847656,133.8125 95.8847656,133.8125 C95.735026,133.66276 95.5852865,133.587891 95.4355469,133.587891 C95.4355469,133.438151 95.3606771,133.288411 95.2109375,133.138672 C95.2109375,132.988932 95.2109375,132.914062 95.2109375,132.914062 C95.2109375,132.764323 95.2858073,132.614583 95.4355469,132.464844 C95.5852865,132.015625 95.8098958,131.566406 96.109375,131.117188 C96.4088542,130.817708 96.7832031,130.518229 97.2324219,130.21875 C97.6816406,129.919271 98.1308594,129.694661 98.5800781,129.544922 C99.1790365,129.544922 99.703125,129.544922 100.152344,129.544922 C101.200521,129.544922 102.098958,129.619792 102.847656,129.769531 C103.446615,130.06901 103.970703,130.443359 104.419922,130.892578 C104.869141,131.491536 105.16862,132.090495 105.318359,132.689453 C105.468099,133.138672 105.542969,133.66276 105.542969,134.261719 C105.542969,134.860677 105.468099,135.459635 105.318359,136.058594 C105.16862,136.657552 104.869141,137.181641 104.419922,137.630859 C104.120443,138.080078 103.671224,138.604167 103.072266,139.203125 C102.473307,139.652344 101.724609,140.176432 100.826172,140.775391 Z M122.837891,41.9472656 C122.837891,41.797526 122.837891,41.6477865 122.837891,41.4980469 C122.98763,41.3483073 123.0625,41.2734375 123.0625,41.2734375 C123.21224,41.1236979 123.361979,41.0488281 123.511719,41.0488281 C123.511719,41.0488281 123.586589,41.0488281 123.736328,41.0488281 C124.185547,41.0488281 124.559896,41.0488281 124.859375,41.0488281 C125.308594,41.1985677 125.682943,41.2734375 125.982422,41.2734375 C126.281901,41.4231771 126.50651,41.5729167 126.65625,41.7226562 C126.80599,41.7226562 127.030599,41.797526 127.330078,41.9472656 C126.73112,42.2467448 126.207031,42.4713542 125.757812,42.6210938 C125.158854,42.7708333 124.485026,42.8457031 123.736328,42.8457031 C123.736328,42.8457031 123.661458,42.8457031 123.511719,42.8457031 C123.361979,42.8457031 123.21224,42.7708333 123.0625,42.6210938 C123.0625,42.4713542 122.98763,42.3964844 122.837891,42.3964844 C122.837891,42.2467448 122.837891,42.0970052 122.837891,41.9472656 Z M120.591797,51.3808594 C120.142578,51.0813802 119.693359,50.781901 119.244141,50.4824219 C118.944661,50.0332031 118.645182,49.6588542 118.345703,49.359375 C118.345703,49.2096354 118.345703,49.0598958 118.345703,48.9101562 C118.195964,48.9101562 118.121094,48.8352865 118.121094,48.6855469 C118.121094,48.6855469 118.121094,48.6855469 118.121094,48.6855469 C118.121094,48.6855469 118.121094,48.6106771 118.121094,48.4609375 C118.270833,48.3111979 118.345703,48.2363281 118.345703,48.2363281 C118.495443,48.0865885 118.570312,48.0117188 118.570312,48.0117188 C118.720052,47.8619792 118.869792,47.7871094 119.019531,47.7871094 C119.169271,47.7871094 119.31901,47.7871094 119.46875,47.7871094 C119.61849,47.7871094 119.693359,47.8619792 119.693359,48.0117188 C119.843099,48.0117188 119.917969,48.0865885 119.917969,48.2363281 C120.217448,48.5358073 120.442057,48.7604167 120.591797,48.9101562 C120.891276,49.2096354 121.190755,49.4342448 121.490234,49.5839844 C121.789714,49.733724 122.089193,49.8085938 122.388672,49.8085938 C122.688151,49.9583333 123.0625,50.0332031 123.511719,50.0332031 C123.960938,50.0332031 124.410156,49.9583333 124.859375,49.8085938 C125.308594,49.6588542 125.757812,49.4342448 126.207031,49.1347656 C126.65625,48.8352865 126.955729,48.4609375 127.105469,48.0117188 C127.404948,47.5625 127.554688,47.0384115 127.554688,46.4394531 C127.554688,46.139974 127.554688,45.9153646 127.554688,45.765625 C127.554688,45.4661458 127.479818,45.2415365 127.330078,45.0917969 C127.330078,44.7923177 127.255208,44.5677083 127.105469,44.4179688 C126.955729,44.2682292 126.80599,44.1184896 126.65625,43.96875 C126.50651,43.8190104 126.281901,43.6692708 125.982422,43.5195312 C125.832682,43.3697917 125.608073,43.2200521 125.308594,43.0703125 C125.009115,43.0703125 124.709635,42.9954427 124.410156,42.8457031 C124.110677,42.8457031 123.811198,42.8457031 123.511719,42.8457031 C123.361979,42.8457031 123.21224,42.8457031 123.0625,42.8457031 C122.91276,42.8457031 122.837891,42.7708333 122.837891,42.6210938 C122.688151,42.4713542 122.613281,42.3216146 122.613281,42.171875 C122.463542,42.171875 122.388672,42.0970052 122.388672,41.9472656 C122.388672,41.797526 122.463542,41.6477865 122.613281,41.4980469 C122.613281,41.3483073 122.688151,41.2734375 122.837891,41.2734375 C122.837891,41.1236979 122.91276,41.0488281 123.0625,41.0488281 C123.21224,41.0488281 123.361979,41.0488281 123.511719,41.0488281 C123.511719,41.0488281 123.511719,41.0488281 123.511719,41.0488281 C123.661458,41.0488281 123.736328,41.0488281 123.736328,41.0488281 C123.586589,41.0488281 123.511719,41.0488281 123.511719,41.0488281 C123.361979,41.0488281 123.21224,41.1236979 123.0625,41.2734375 C123.0625,41.2734375 122.98763,41.3483073 122.837891,41.4980469 C122.837891,41.6477865 122.837891,41.797526 122.837891,41.9472656 C122.837891,42.0970052 122.837891,42.171875 122.837891,42.171875 C122.98763,42.3216146 123.0625,42.4713542 123.0625,42.6210938 C123.21224,42.7708333 123.361979,42.8457031 123.511719,42.8457031 C123.661458,42.8457031 123.736328,42.8457031 123.736328,42.8457031 C124.485026,42.8457031 125.158854,42.7708333 125.757812,42.6210938 C126.207031,42.4713542 126.73112,42.2467448 127.330078,41.9472656 C127.479818,42.0970052 127.629557,42.171875 127.779297,42.171875 C127.779297,42.3216146 127.854167,42.4713542 128.003906,42.6210938 C128.303385,42.9205729 128.527995,43.1451823 128.677734,43.2949219 C128.827474,43.594401 128.977214,43.8938802 129.126953,44.1933594 C129.276693,44.6425781 129.351562,45.0169271 129.351562,45.3164062 C129.501302,45.765625 129.576172,46.139974 129.576172,46.4394531 C129.576172,47.188151 129.426432,47.936849 129.126953,48.6855469 C128.827474,49.2845052 128.378255,49.8834635 127.779297,50.4824219 C127.180339,50.9316406 126.50651,51.3059896 125.757812,51.6054688 C125.009115,51.9049479 124.260417,52.0546875 123.511719,52.0546875 C122.91276,52.0546875 122.388672,51.9798177 121.939453,51.8300781 C121.490234,51.6803385 121.041016,51.530599 120.591797,51.3808594 Z M127.330078,41.9472656 C127.030599,41.797526 126.80599,41.7226562 126.65625,41.7226562 C126.50651,41.5729167 126.281901,41.4231771 125.982422,41.2734375 C125.682943,41.1236979 125.308594,41.0488281 124.859375,41.0488281 C124.559896,41.0488281 124.185547,41.0488281 123.736328,41.0488281 C123.736328,41.0488281 123.736328,40.9739583 123.736328,40.8242188 C123.736328,40.8242188 123.736328,40.8242188 123.736328,40.8242188 C124.335286,40.8242188 124.859375,40.8242188 125.308594,40.8242188 C125.757812,40.6744792 126.132161,40.4498698 126.431641,40.1503906 C126.880859,39.8509115 127.180339,39.5514323 127.330078,39.2519531 C127.479818,38.952474 127.554688,38.578125 127.554688,38.1289062 C127.554688,37.8294271 127.554688,37.6048177 127.554688,37.4550781 C127.554688,37.3053385 127.479818,37.155599 127.330078,37.0058594 C127.180339,36.8561198 127.105469,36.7063802 127.105469,36.5566406 C126.955729,36.406901 126.880859,36.3320312 126.880859,36.3320312 C126.73112,36.1822917 126.58138,36.0325521 126.431641,35.8828125 C126.132161,35.7330729 125.907552,35.6582031 125.757812,35.6582031 C125.608073,35.5084635 125.458333,35.4335938 125.308594,35.4335938 C125.009115,35.2838542 124.784505,35.2089844 124.634766,35.2089844 C124.335286,35.2089844 124.035807,35.2838542 123.736328,35.4335938 C123.436849,35.4335938 123.13737,35.5084635 122.837891,35.6582031 C122.538411,35.6582031 122.313802,35.8079427 122.164062,36.1074219 C121.864583,36.2571615 121.639974,36.406901 121.490234,36.5566406 C121.340495,36.7063802 121.265625,36.78125 121.265625,36.78125 C121.115885,36.78125 120.966146,36.78125 120.816406,36.78125 C120.666667,36.78125 120.516927,36.78125 120.367188,36.78125 C120.367188,36.78125 120.292318,36.7063802 120.142578,36.5566406 C119.992839,36.5566406 119.917969,36.4817708 119.917969,36.3320312 C119.768229,36.1822917 119.693359,36.0325521 119.693359,35.8828125 C119.693359,35.8828125 119.768229,35.8079427 119.917969,35.6582031 C119.917969,35.5084635 119.992839,35.358724 120.142578,35.2089844 C120.292318,34.9095052 120.591797,34.610026 121.041016,34.3105469 C121.340495,34.1608073 121.714844,34.0110677 122.164062,33.8613281 C122.463542,33.7115885 122.837891,33.561849 123.287109,33.4121094 C123.736328,33.4121094 124.185547,33.4121094 124.634766,33.4121094 C124.934245,33.4121094 125.308594,33.4121094 125.757812,33.4121094 C126.057292,33.561849 126.356771,33.6367188 126.65625,33.6367188 C126.955729,33.7864583 127.255208,34.0110677 127.554688,34.3105469 C127.704427,34.4602865 127.929036,34.610026 128.228516,34.7597656 C128.378255,35.0592448 128.602865,35.358724 128.902344,35.6582031 C129.052083,35.8079427 129.126953,36.0325521 129.126953,36.3320312 C129.276693,36.6315104 129.351562,36.9309896 129.351562,37.2304688 C129.501302,37.5299479 129.576172,37.8294271 129.576172,38.1289062 C129.576172,38.1289062 129.576172,38.1289062 129.576172,38.1289062 C129.576172,38.1289062 129.576172,38.1289062 129.576172,38.1289062 C129.576172,38.8776042 129.426432,39.4765625 129.126953,39.9257812 C128.827474,40.5247396 128.378255,41.0488281 127.779297,41.4980469 C127.779297,41.6477865 127.704427,41.7226562 127.554688,41.7226562 C127.404948,41.8723958 127.330078,41.9472656 127.330078,41.9472656 Z"/></svg>