<svg xmlns="http://www.w3.org/2000/svg" width="120" height="243" viewBox="0 0 120 243"><path fill="#131313" d="M100.125,23.9619141 C102.185547,23.9619141 103.971354,24.648763 105.482422,26.0224609 C106.99349,27.5335286 107.749023,29.3193359 107.749023,31.3798828 C107.749023,59.6780599 107.749023,102.125326 107.749023,158.72168 C107.749023,160.782227 106.99349,162.568034 105.482422,164.079102 C103.971354,165.452799 102.185547,166.139648 100.125,166.139648 C98.0644531,166.139648 96.3473307,165.452799 94.9736328,164.079102 C93.4625651,162.568034 92.7070312,160.782227 92.7070312,158.72168 C92.7070312,146.221029 92.7070312,127.470052 92.7070312,102.46875 C80.0690104,102.46875 61.1119792,102.46875 35.8359375,102.46875 C35.8359375,114.969401 35.8359375,133.720378 35.8359375,158.72168 C35.8359375,160.782227 35.1490885,162.568034 33.7753906,164.079102 C32.2643229,165.452799 30.4785156,166.139648 28.4179688,166.139648 C26.3574219,166.139648 24.5716146,165.452799 23.0605469,164.079102 C21.686849,162.568034 21,160.782227 21,158.72168 C21,130.423503 21,87.976237 21,31.3798828 C21,29.3193359 21.686849,27.5335286 23.0605469,26.0224609 C24.5716146,24.648763 26.3574219,23.9619141 28.4179688,23.9619141 C30.4785156,23.9619141 32.2643229,24.648763 33.7753906,26.0224609 C35.1490885,27.5335286 35.8359375,29.3193359 35.8359375,31.3798828 C35.8359375,43.8805339 35.8359375,62.6315104 35.8359375,87.6328125 C48.4739583,87.6328125 67.4309896,87.6328125 92.7070312,87.6328125 C92.7070312,75.1321615 92.7070312,56.3811849 92.7070312,31.3798828 C92.7070312,29.3193359 93.4625651,27.5335286 94.9736328,26.0224609 C96.3473307,24.648763 98.0644531,23.9619141 100.125,23.9619141 Z M85.1005859,39.4160156 C85.2379557,39.5533854 85.3753255,39.6220703 85.5126953,39.6220703 C85.7874349,39.6220703 85.9934896,39.6220703 86.1308594,39.6220703 C86.2682292,39.6220703 86.405599,39.6220703 86.5429688,39.6220703 C86.8177083,39.6220703 87.023763,39.5533854 87.1611328,39.4160156 C87.1611328,45.4602865 87.1611328,54.4580078 87.1611328,66.4091797 C86.7490234,66.4091797 86.0621745,66.4091797 85.1005859,66.4091797 C85.1005859,62.0133464 85.1005859,57.5488281 85.1005859,53.015625 C85.1005859,48.4824219 85.1005859,43.9492188 85.1005859,39.4160156 Z M85.1005859,68.4697266 C85.1005859,68.0576172 85.1005859,67.3707682 85.1005859,66.4091797 C84.6884766,66.4091797 84.0016276,66.4091797 83.0400391,66.4091797 C83.726888,69.0192057 84.7571615,72.8655599 86.1308594,77.9482422 C86.8177083,75.3382161 87.8479818,71.491862 89.2216797,66.4091797 C88.6722005,66.4091797 87.9853516,66.4091797 87.1611328,66.4091797 C87.1611328,66.9586589 87.1611328,67.6455078 87.1611328,68.4697266 C86.7490234,68.4697266 86.0621745,68.4697266 85.1005859,68.4697266 Z M85.1005859,68.4697266 C85.5126953,68.4697266 86.1995443,68.4697266 87.1611328,68.4697266 C87.1611328,68.0576172 87.1611328,67.3707682 87.1611328,66.4091797 C86.7490234,66.4091797 86.0621745,66.4091797 85.1005859,66.4091797 C85.1005859,66.9586589 85.1005859,67.6455078 85.1005859,68.4697266 Z M86.1308594,30.7617188 C87.3671875,30.7617188 88.3974609,31.1738281 89.2216797,31.9980469 C90.1832682,32.8222656 90.6640625,33.8525391 90.6640625,35.0888672 C90.6640625,36.1878255 90.320638,37.1494141 89.6337891,37.9736328 C88.9469401,38.7978516 88.1227214,39.2786458 87.1611328,39.4160156 C87.1611328,39.4160156 87.1611328,39.2786458 87.1611328,39.0039062 C87.9853516,38.7291667 88.6722005,38.2483724 89.2216797,37.5615234 C89.7711589,36.8746745 90.0458984,36.0504557 90.0458984,35.0888672 C90.0458984,33.9899089 89.6337891,33.0970052 88.8095703,32.4101562 C88.1227214,31.5859375 87.2298177,31.1738281 86.1308594,31.1738281 C85.031901,31.1738281 84.0703125,31.5859375 83.2460938,32.4101562 C82.5592448,33.0970052 82.2158203,33.9899089 82.2158203,35.0888672 C82.2158203,36.0504557 82.4905599,36.8746745 83.0400391,37.5615234 C83.5895182,38.2483724 84.2763672,38.7291667 85.1005859,39.0039062 C85.1005859,39.141276 85.1005859,39.2786458 85.1005859,39.4160156 C84.1389974,39.2786458 83.3147786,38.7978516 82.6279297,37.9736328 C81.9410807,37.1494141 81.5976562,36.1878255 81.5976562,35.0888672 C81.5976562,33.8525391 82.0097656,32.8222656 82.8339844,31.9980469 C83.7955729,31.1738281 84.8945312,30.7617188 86.1308594,30.7617188 Z M86.1308594,39.2099609 C86.2682292,39.2099609 86.405599,39.141276 86.5429688,39.0039062 C86.8177083,39.0039062 87.023763,39.0039062 87.1611328,39.0039062 C87.1611328,39.141276 87.1611328,39.2786458 87.1611328,39.4160156 C87.023763,39.5533854 86.8177083,39.6220703 86.5429688,39.6220703 C86.405599,39.6220703 86.2682292,39.6220703 86.1308594,39.6220703 C85.9934896,39.6220703 85.7874349,39.6220703 85.5126953,39.6220703 C85.3753255,39.6220703 85.2379557,39.5533854 85.1005859,39.4160156 C85.1005859,39.4160156 85.1005859,39.2786458 85.1005859,39.0039062 C85.2379557,39.0039062 85.3753255,39.0039062 85.5126953,39.0039062 C85.7874349,39.141276 85.9934896,39.2099609 86.1308594,39.2099609 Z M82.6279297,35.0888672 C82.6279297,35.9130859 82.8339844,36.5999349 83.2460938,37.1494141 C83.7955729,37.6988932 84.413737,38.1110026 85.1005859,38.3857422 C85.1005859,38.523112 85.1005859,38.7291667 85.1005859,39.0039062 C84.2763672,38.7291667 83.5895182,38.2483724 83.0400391,37.5615234 C82.4905599,36.8746745 82.2158203,36.0504557 82.2158203,35.0888672 C82.2158203,33.9899089 82.5592448,33.0970052 83.2460938,32.4101562 C84.0703125,31.5859375 85.031901,31.1738281 86.1308594,31.1738281 C87.2298177,31.1738281 88.1227214,31.5859375 88.8095703,32.4101562 C89.6337891,33.0970052 90.0458984,33.9899089 90.0458984,35.0888672 C90.0458984,36.0504557 89.7711589,36.8746745 89.2216797,37.5615234 C88.6722005,38.2483724 87.9853516,38.7291667 87.1611328,39.0039062 C87.1611328,38.8665365 87.1611328,38.6604818 87.1611328,38.3857422 C87.8479818,38.1110026 88.3974609,37.6988932 88.8095703,37.1494141 C89.3590495,36.5999349 89.6337891,35.9130859 89.6337891,35.0888672 C89.6337891,34.1272786 89.2903646,33.3717448 88.6035156,32.8222656 C87.9166667,32.1354167 87.0924479,31.7919922 86.1308594,31.7919922 C85.1692708,31.7919922 84.3450521,32.1354167 83.6582031,32.8222656 C82.9713542,33.3717448 82.6279297,34.1272786 82.6279297,35.0888672 C82.6279297,34.9514974 82.6279297,34.8141276 82.6279297,34.6767578 C82.6279297,34.6767578 82.6279297,34.6767578 82.6279297,34.6767578 C82.6279297,34.6767578 82.6279297,34.6767578 82.6279297,34.6767578 C82.6279297,34.8141276 82.6279297,34.9514974 82.6279297,35.0888672 C82.6279297,35.3636068 82.6279297,35.5009766 82.6279297,35.5009766 C82.6279297,35.6383464 82.6279297,35.7070312 82.6279297,35.7070312 C82.6279297,35.7070312 82.6279297,35.6383464 82.6279297,35.5009766 C82.6279297,35.5009766 82.6279297,35.3636068 82.6279297,35.0888672 Z M87.1611328,39.0039062 C87.023763,39.0039062 86.8177083,39.0039062 86.5429688,39.0039062 C86.405599,39.141276 86.2682292,39.2099609 86.1308594,39.2099609 C85.9934896,39.2099609 85.7874349,39.141276 85.5126953,39.0039062 C85.3753255,39.0039062 85.2379557,39.0039062 85.1005859,39.0039062 C85.1005859,38.8665365 85.1005859,38.6604818 85.1005859,38.3857422 C85.2379557,38.3857422 85.3753255,38.4544271 85.5126953,38.5917969 C85.6500651,38.5917969 85.8561198,38.5917969 86.1308594,38.5917969 C86.2682292,38.5917969 86.4742839,38.5917969 86.7490234,38.5917969 C86.8863932,38.4544271 87.023763,38.3857422 87.1611328,38.3857422 C87.1611328,38.523112 87.1611328,38.5917969 87.1611328,38.5917969 C87.1611328,38.7291667 87.1611328,38.8665365 87.1611328,39.0039062 Z M13.1875,39.4160156 C13.4622396,39.5533854 13.6682943,39.6220703 13.8056641,39.6220703 C13.9430339,39.6220703 14.1490885,39.6220703 14.4238281,39.6220703 C14.5611979,39.6220703 14.6985677,39.6220703 14.8359375,39.6220703 C14.9733073,39.6220703 15.179362,39.5533854 15.4541016,39.4160156 C15.4541016,45.4602865 15.4541016,54.4580078 15.4541016,66.4091797 C14.9046224,66.4091797 14.1490885,66.4091797 13.1875,66.4091797 C13.1875,62.0133464 13.1875,57.5488281 13.1875,53.015625 C13.1875,48.4824219 13.1875,43.9492188 13.1875,39.4160156 Z M13.1875,68.4697266 C13.1875,68.0576172 13.1875,67.3707682 13.1875,66.4091797 C12.7753906,66.4091797 12.1572266,66.4091797 11.3330078,66.4091797 C12.0198568,69.0192057 13.0501302,72.8655599 14.4238281,77.9482422 C14.9733073,75.3382161 15.9348958,71.491862 17.3085938,66.4091797 C16.8964844,66.4091797 16.2783203,66.4091797 15.4541016,66.4091797 C15.4541016,66.9586589 15.4541016,67.6455078 15.4541016,68.4697266 C14.9046224,68.4697266 14.1490885,68.4697266 13.1875,68.4697266 Z M13.1875,68.4697266 C13.7369792,68.4697266 14.492513,68.4697266 15.4541016,68.4697266 C15.4541016,68.0576172 15.4541016,67.3707682 15.4541016,66.4091797 C14.9046224,66.4091797 14.1490885,66.4091797 13.1875,66.4091797 C13.1875,66.9586589 13.1875,67.6455078 13.1875,68.4697266 Z M14.4238281,30.7617188 C15.6601562,30.7617188 16.6904297,31.1738281 17.5146484,31.9980469 C18.3388672,32.8222656 18.7509766,33.8525391 18.7509766,35.0888672 C18.7509766,36.1878255 18.476237,37.1494141 17.9267578,37.9736328 C17.2399089,38.7978516 16.4156901,39.2786458 15.4541016,39.4160156 C15.4541016,39.4160156 15.4541016,39.2786458 15.4541016,39.0039062 C16.2783203,38.7291667 16.9651693,38.2483724 17.5146484,37.5615234 C18.0641276,36.8746745 18.3388672,36.0504557 18.3388672,35.0888672 C18.3388672,33.9899089 17.9267578,33.0970052 17.1025391,32.4101562 C16.2783203,31.5859375 15.3854167,31.1738281 14.4238281,31.1738281 C13.3248698,31.1738281 12.3632812,31.5859375 11.5390625,32.4101562 C10.7148438,33.0970052 10.3027344,33.9899089 10.3027344,35.0888672 C10.3027344,36.0504557 10.577474,36.8746745 11.1269531,37.5615234 C11.6764323,38.2483724 12.3632812,38.7291667 13.1875,39.0039062 C13.1875,39.141276 13.1875,39.2786458 13.1875,39.4160156 C12.2259115,39.2786458 11.4016927,38.7978516 10.7148438,37.9736328 C10.1653646,37.1494141 9.890625,36.1878255 9.890625,35.0888672 C9.890625,33.8525391 10.3027344,32.8222656 11.1269531,31.9980469 C12.0885417,31.1738281 13.1875,30.7617188 14.4238281,30.7617188 Z M14.4238281,39.2099609 C14.5611979,39.2099609 14.6985677,39.141276 14.8359375,39.0039062 C14.9733073,39.0039062 15.179362,39.0039062 15.4541016,39.0039062 C15.4541016,39.141276 15.4541016,39.2786458 15.4541016,39.4160156 C15.179362,39.5533854 14.9733073,39.6220703 14.8359375,39.6220703 C14.6985677,39.6220703 14.5611979,39.6220703 14.4238281,39.6220703 C14.1490885,39.6220703 13.9430339,39.6220703 13.8056641,39.6220703 C13.6682943,39.6220703 13.4622396,39.5533854 13.1875,39.4160156 C13.1875,39.4160156 13.1875,39.2786458 13.1875,39.0039062 C13.4622396,39.0039062 13.6682943,39.0039062 13.8056641,39.0039062 C13.9430339,39.141276 14.1490885,39.2099609 14.4238281,39.2099609 Z M10.9208984,35.0888672 C10.9208984,35.9130859 11.1269531,36.5999349 11.5390625,37.1494141 C11.9511719,37.6988932 12.500651,38.1110026 13.1875,38.3857422 C13.1875,38.523112 13.1875,38.7291667 13.1875,39.0039062 C12.3632812,38.7291667 11.6764323,38.2483724 11.1269531,37.5615234 C10.577474,36.8746745 10.3027344,36.0504557 10.3027344,35.0888672 C10.3027344,33.9899089 10.7148438,33.0970052 11.5390625,32.4101562 C12.3632812,31.5859375 13.3248698,31.1738281 14.4238281,31.1738281 C15.3854167,31.1738281 16.2783203,31.5859375 17.1025391,32.4101562 C17.9267578,33.0970052 18.3388672,33.9899089 18.3388672,35.0888672 C18.3388672,36.0504557 18.0641276,36.8746745 17.5146484,37.5615234 C16.9651693,38.2483724 16.2783203,38.7291667 15.4541016,39.0039062 C15.4541016,38.8665365 15.4541016,38.6604818 15.4541016,38.3857422 C16.1409505,38.1110026 16.6904297,37.6988932 17.1025391,37.1494141 C17.5146484,36.5999349 17.7207031,35.9130859 17.7207031,35.0888672 C17.7207031,34.1272786 17.3772786,33.3717448 16.6904297,32.8222656 C16.0035807,32.1354167 15.2480469,31.7919922 14.4238281,31.7919922 C13.4622396,31.7919922 12.6380208,32.1354167 11.9511719,32.8222656 C11.2643229,33.3717448 10.9208984,34.1272786 10.9208984,35.0888672 C10.9208984,34.9514974 10.9208984,34.8141276 10.9208984,34.6767578 C10.9208984,34.6767578 10.9208984,34.6767578 10.9208984,34.6767578 C10.9208984,34.6767578 10.9208984,34.6767578 10.9208984,34.6767578 C10.9208984,34.8141276 10.9208984,34.9514974 10.9208984,35.0888672 C10.9208984,35.3636068 10.9208984,35.5009766 10.9208984,35.5009766 C10.9208984,35.6383464 10.9208984,35.7070312 10.9208984,35.7070312 C10.9208984,35.7070312 10.9208984,35.6383464 10.9208984,35.5009766 C10.9208984,35.5009766 10.9208984,35.3636068 10.9208984,35.0888672 Z M15.4541016,39.0039062 C15.179362,39.0039062 14.9733073,39.0039062 14.8359375,39.0039062 C14.6985677,39.141276 14.5611979,39.2099609 14.4238281,39.2099609 C14.1490885,39.2099609 13.9430339,39.141276 13.8056641,39.0039062 C13.6682943,39.0039062 13.4622396,39.0039062 13.1875,39.0039062 C13.1875,38.8665365 13.1875,38.6604818 13.1875,38.3857422 C13.4622396,38.3857422 13.6682943,38.4544271 13.8056641,38.5917969 C13.9430339,38.5917969 14.1490885,38.5917969 14.4238281,38.5917969 C14.5611979,38.5917969 14.6985677,38.5917969 14.8359375,38.5917969 C14.9733073,38.4544271 15.179362,38.3857422 15.4541016,38.3857422 C15.4541016,38.523112 15.4541016,38.5917969 15.4541016,38.5917969 C15.4541016,38.7291667 15.4541016,38.8665365 15.4541016,39.0039062 Z M56.2529297,110.710938 C56.2529297,110.985677 56.2529297,111.191732 56.2529297,111.329102 C56.1155599,111.466471 56.046875,111.672526 56.046875,111.947266 C60.1679688,111.947266 66.3496094,111.947266 74.5917969,111.947266 C74.5917969,111.397786 74.5917969,110.642253 74.5917969,109.680664 C70.4707031,109.680664 64.2890625,109.680664 56.046875,109.680664 C56.046875,109.955404 56.1155599,110.161458 56.2529297,110.298828 C56.2529297,110.436198 56.2529297,110.573568 56.2529297,110.710938 Z M74.5917969,107.826172 C77.2018229,108.513021 81.0481771,109.474609 86.1308594,110.710938 C83.5208333,111.397786 79.6744792,112.42806 74.5917969,113.801758 C74.5917969,113.389648 74.5917969,112.771484 74.5917969,111.947266 C75.141276,111.947266 75.8968099,111.947266 76.8583984,111.947266 C76.8583984,111.397786 76.8583984,110.642253 76.8583984,109.680664 C76.3089193,109.680664 75.5533854,109.680664 74.5917969,109.680664 C74.5917969,109.268555 74.5917969,108.650391 74.5917969,107.826172 Z M74.5917969,111.947266 C75.141276,111.947266 75.8968099,111.947266 76.8583984,111.947266 C76.8583984,111.397786 76.8583984,110.642253 76.8583984,109.680664 C76.3089193,109.680664 75.5533854,109.680664 74.5917969,109.680664 C74.5917969,110.230143 74.5917969,110.985677 74.5917969,111.947266 Z M51.7197266,114.832031 C52.6813151,114.832031 53.5055339,114.557292 54.1923828,114.007812 C54.8792318,113.458333 55.2913411,112.771484 55.4287109,111.947266 C55.5660807,111.947266 55.7721354,111.947266 56.046875,111.947266 C55.7721354,112.908854 55.2913411,113.664388 54.6044922,114.213867 C53.7802734,114.900716 52.8186849,115.244141 51.7197266,115.244141 C50.4833984,115.244141 49.453125,114.832031 48.6289062,114.007812 C47.6673177,113.046224 47.1865234,111.947266 47.1865234,110.710938 C47.1865234,109.474609 47.6673177,108.444336 48.6289062,107.620117 C49.453125,106.795898 50.4833984,106.383789 51.7197266,106.383789 C52.8186849,106.383789 53.7115885,106.658529 54.3984375,107.208008 C55.2226562,107.894857 55.7721354,108.719076 56.046875,109.680664 C55.9095052,109.680664 55.7034505,109.680664 55.4287109,109.680664 C55.2913411,108.856445 54.8792318,108.169596 54.1923828,107.620117 C53.5055339,107.070638 52.6813151,106.795898 51.7197266,106.795898 C50.6207682,106.795898 49.6591797,107.208008 48.8349609,108.032227 C48.148112,108.719076 47.8046875,109.611979 47.8046875,110.710938 C47.8046875,111.809896 48.148112,112.771484 48.8349609,113.595703 C49.6591797,114.419922 50.6207682,114.832031 51.7197266,114.832031 Z M55.4287109,109.680664 C55.5660807,109.955404 55.6347656,110.161458 55.6347656,110.298828 C55.6347656,110.436198 55.6347656,110.573568 55.6347656,110.710938 C55.6347656,110.985677 55.6347656,111.191732 55.6347656,111.329102 C55.6347656,111.466471 55.5660807,111.672526 55.4287109,111.947266 C55.5660807,111.947266 55.7721354,111.947266 56.046875,111.947266 C56.046875,111.672526 56.1155599,111.466471 56.2529297,111.329102 C56.2529297,111.191732 56.2529297,110.985677 56.2529297,110.710938 C56.2529297,110.573568 56.2529297,110.436198 56.2529297,110.298828 C56.1155599,110.161458 56.046875,109.955404 56.046875,109.680664 C55.9095052,109.680664 55.8408203,109.680664 55.8408203,109.680664 C55.7034505,109.680664 55.5660807,109.680664 55.4287109,109.680664 Z M51.7197266,106.795898 C52.6813151,106.795898 53.5055339,107.070638 54.1923828,107.620117 C54.8792318,108.169596 55.2913411,108.856445 55.4287109,109.680664 C55.4287109,109.680664 55.2913411,109.680664 55.0166016,109.680664 C54.741862,108.993815 54.3297526,108.444336 53.7802734,108.032227 C53.2307943,107.620117 52.5439453,107.414062 51.7197266,107.414062 C50.758138,107.414062 49.9339193,107.757487 49.2470703,108.444336 C48.5602214,109.131185 48.2167969,109.886719 48.2167969,110.710938 C48.2167969,111.672526 48.5602214,112.496745 49.2470703,113.183594 C49.9339193,113.870443 50.758138,114.213867 51.7197266,114.213867 C51.5823568,114.213867 51.444987,114.213867 51.3076172,114.213867 C51.1702474,114.213867 51.1015625,114.213867 51.1015625,114.213867 C51.1015625,114.213867 51.1702474,114.213867 51.3076172,114.213867 C51.444987,114.213867 51.5823568,114.213867 51.7197266,114.213867 C51.8570964,114.213867 51.9944661,114.213867 52.1318359,114.213867 C52.2692057,114.213867 52.3378906,114.213867 52.3378906,114.213867 C52.3378906,114.213867 52.2692057,114.213867 52.1318359,114.213867 C51.9944661,114.213867 51.8570964,114.213867 51.7197266,114.213867 C52.5439453,114.213867 53.2307943,114.007812 53.7802734,113.595703 C54.3297526,113.183594 54.741862,112.634115 55.0166016,111.947266 C55.1539714,111.947266 55.2913411,111.947266 55.4287109,111.947266 C55.2913411,112.771484 54.8792318,113.458333 54.1923828,114.007812 C53.5055339,114.557292 52.6813151,114.832031 51.7197266,114.832031 C50.6207682,114.832031 49.6591797,114.419922 48.8349609,113.595703 C48.148112,112.771484 47.8046875,111.809896 47.8046875,110.710938 C47.8046875,109.611979 48.148112,108.719076 48.8349609,108.032227 C49.6591797,107.208008 50.6207682,106.795898 51.7197266,106.795898 Z M55.0166016,111.947266 C55.1539714,111.947266 55.2913411,111.947266 55.4287109,111.947266 C55.5660807,111.672526 55.6347656,111.466471 55.6347656,111.329102 C55.6347656,111.191732 55.6347656,110.985677 55.6347656,110.710938 C55.6347656,110.573568 55.6347656,110.436198 55.6347656,110.298828 C55.6347656,110.161458 55.5660807,109.955404 55.4287109,109.680664 C55.4287109,109.680664 55.2913411,109.680664 55.0166016,109.680664 C55.0166016,109.955404 55.0166016,110.161458 55.0166016,110.298828 C55.1539714,110.436198 55.2226562,110.573568 55.2226562,110.710938 C55.2226562,110.985677 55.1539714,111.191732 55.0166016,111.329102 C55.0166016,111.466471 55.0166016,111.672526 55.0166016,111.947266 Z M3.296875,31.1738281 C3.43424479,31.1738281 3.50292969,31.242513 3.50292969,31.3798828 C3.64029948,31.3798828 3.70898438,31.4485677 3.70898438,31.5859375 C3.70898438,31.5859375 3.77766927,31.6546224 3.91503906,31.7919922 C3.91503906,31.7919922 3.91503906,31.8606771 3.91503906,31.9980469 C3.91503906,33.6464844 3.91503906,35.7757161 3.91503906,38.3857422 C3.91503906,40.8583984 3.91503906,43.811849 3.91503906,47.2460938 C3.91503906,47.3834635 3.84635417,47.5208333 3.70898438,47.6582031 C3.70898438,47.7955729 3.64029948,47.8642578 3.50292969,47.8642578 C3.50292969,48.0016276 3.43424479,48.0703125 3.296875,48.0703125 C3.15950521,48.0703125 3.02213542,48.0703125 2.88476562,48.0703125 C2.88476562,48.0703125 2.81608073,48.0703125 2.67871094,48.0703125 C2.54134115,48.0703125 2.40397135,48.0016276 2.26660156,47.8642578 C2.26660156,47.8642578 2.19791667,47.7955729 2.06054688,47.6582031 C2.06054688,47.5208333 2.06054688,47.3834635 2.06054688,47.2460938 C2.06054688,45.8723958 2.06054688,44.0865885 2.06054688,41.8886719 C2.06054688,39.6907552 2.06054688,37.1494141 2.06054688,34.2646484 C1.92317708,34.2646484 1.85449219,34.3333333 1.85449219,34.4707031 C1.7171224,34.6080729 1.5797526,34.7454427 1.44238281,34.8828125 C1.30501302,34.8828125 1.23632812,34.8828125 1.23632812,34.8828125 C1.09895833,35.0201823 0.961588542,35.0888672 0.82421875,35.0888672 C0.686848958,35.0888672 0.549479167,35.0201823 0.412109375,34.8828125 C0.412109375,34.8828125 0.343424479,34.8828125 0.206054688,34.8828125 C0.0686848958,34.7454427 0,34.6080729 0,34.4707031 C0,34.3333333 0,34.2646484 0,34.2646484 C0,34.1272786 0,33.9899089 0,33.8525391 C0,33.7151693 0.0686848958,33.5777995 0.206054688,33.4404297 C0.480794271,33.3030599 0.755533854,33.0283203 1.03027344,32.6162109 C1.44238281,32.2041016 1.85449219,31.7919922 2.26660156,31.3798828 C2.40397135,31.3798828 2.47265625,31.3111979 2.47265625,31.1738281 C2.61002604,31.1738281 2.74739583,31.1738281 2.88476562,31.1738281 C2.88476562,31.1738281 2.88476562,31.1738281 2.88476562,31.1738281 C2.88476562,31.1738281 2.88476562,31.1738281 2.88476562,31.1738281 C3.02213542,31.1738281 3.09082031,31.1738281 3.09082031,31.1738281 C3.2281901,31.1738281 3.296875,31.1738281 3.296875,31.1738281 Z M52.1318359,129.255859 C51.5823568,129.667969 51.0328776,130.080078 50.4833984,130.492188 C50.0712891,130.904297 49.7278646,131.316406 49.453125,131.728516 C49.1783854,132.277995 48.9723307,132.758789 48.8349609,133.170898 C48.5602214,133.445638 48.4228516,133.789062 48.4228516,134.201172 C49.2470703,134.201172 50.2773438,134.201172 51.5136719,134.201172 C52.75,134.201172 54.1923828,134.201172 55.8408203,134.201172 C55.9781901,134.201172 56.1155599,134.201172 56.2529297,134.201172 C56.3902995,134.201172 56.4589844,134.269857 56.4589844,134.407227 C56.5963542,134.544596 56.6650391,134.613281 56.6650391,134.613281 C56.6650391,134.750651 56.6650391,134.888021 56.6650391,135.025391 C56.6650391,135.16276 56.6650391,135.30013 56.6650391,135.4375 C56.6650391,135.4375 56.5963542,135.506185 56.4589844,135.643555 C56.4589844,135.780924 56.3902995,135.849609 56.2529297,135.849609 C56.1155599,135.849609 55.9781901,135.849609 55.8408203,135.849609 C55.1539714,135.849609 54.4671224,135.849609 53.7802734,135.849609 C53.0934245,135.849609 52.3378906,135.849609 51.5136719,135.849609 C50.8268229,135.849609 50.139974,135.849609 49.453125,135.849609 C48.766276,135.849609 48.0107422,135.849609 47.1865234,135.849609 C47.1865234,135.849609 47.1178385,135.849609 46.9804688,135.849609 C46.9804688,135.849609 46.9804688,135.849609 46.9804688,135.849609 C46.843099,135.849609 46.7744141,135.849609 46.7744141,135.849609 C46.7744141,135.71224 46.7057292,135.643555 46.5683594,135.643555 C46.5683594,135.643555 46.5683594,135.57487 46.5683594,135.4375 C46.4309896,135.4375 46.3623047,135.368815 46.3623047,135.231445 C46.3623047,135.231445 46.3623047,135.231445 46.3623047,135.231445 C46.3623047,135.094076 46.3623047,135.025391 46.3623047,135.025391 C46.3623047,135.025391 46.3623047,135.025391 46.3623047,135.025391 C46.3623047,135.025391 46.3623047,135.025391 46.3623047,135.025391 C46.3623047,134.888021 46.4309896,134.750651 46.5683594,134.613281 C46.5683594,134.338542 46.6370443,133.995117 46.7744141,133.583008 C46.7744141,133.170898 46.9117839,132.758789 47.1865234,132.34668 C47.3238932,131.93457 47.5986328,131.453776 48.0107422,130.904297 C48.148112,130.629557 48.3541667,130.354818 48.6289062,130.080078 C48.766276,129.805339 48.9723307,129.530599 49.2470703,129.255859 C49.5218099,128.98112 49.7965495,128.70638 50.0712891,128.431641 C50.4833984,128.156901 50.8268229,127.882161 51.1015625,127.607422 C51.9257812,127.195312 52.6126302,126.783203 53.1621094,126.371094 C53.5742188,125.958984 53.9176432,125.546875 54.1923828,125.134766 C54.3297526,124.860026 54.4671224,124.516602 54.6044922,124.104492 C54.741862,123.829753 54.8105469,123.555013 54.8105469,123.280273 C54.8105469,123.142904 54.8105469,123.074219 54.8105469,123.074219 C54.6731771,122.936849 54.6044922,122.799479 54.6044922,122.662109 C54.6044922,122.662109 54.6044922,122.593424 54.6044922,122.456055 C54.6044922,122.318685 54.6044922,122.181315 54.6044922,122.043945 C54.4671224,121.906576 54.3297526,121.769206 54.1923828,121.631836 C54.055013,121.357096 53.8489583,121.151042 53.5742188,121.013672 C53.2994792,120.876302 53.0247396,120.807617 52.75,120.807617 C52.4752604,120.670247 52.063151,120.601562 51.5136719,120.601562 C51.2389323,120.601562 50.9641927,120.670247 50.6894531,120.807617 C50.4147135,120.807617 50.139974,120.876302 49.8652344,121.013672 C49.5904948,121.151042 49.3844401,121.357096 49.2470703,121.631836 C48.9723307,121.906576 48.8349609,122.181315 48.8349609,122.456055 C48.6975911,122.456055 48.6289062,122.52474 48.6289062,122.662109 C48.4915365,122.799479 48.3541667,122.868164 48.2167969,122.868164 C48.0794271,122.868164 47.9420573,122.868164 47.8046875,122.868164 C47.6673177,122.868164 47.5986328,122.868164 47.5986328,122.868164 C47.461263,122.730794 47.3238932,122.662109 47.1865234,122.662109 C47.1865234,122.52474 47.1178385,122.38737 46.9804688,122.25 C46.9804688,122.11263 46.9804688,122.043945 46.9804688,122.043945 C46.9804688,121.906576 47.0491536,121.769206 47.1865234,121.631836 C47.3238932,121.219727 47.5299479,120.807617 47.8046875,120.395508 C48.0794271,120.120768 48.4228516,119.846029 48.8349609,119.571289 C49.2470703,119.296549 49.6591797,119.090495 50.0712891,118.953125 C50.6207682,118.953125 51.1015625,118.953125 51.5136719,118.953125 C52.4752604,118.953125 53.2994792,119.02181 53.9863281,119.15918 C54.5358073,119.433919 55.0166016,119.777344 55.4287109,120.189453 C55.8408203,120.738932 56.1155599,121.288411 56.2529297,121.837891 C56.3902995,122.25 56.4589844,122.730794 56.4589844,123.280273 C56.4589844,123.829753 56.3902995,124.379232 56.2529297,124.928711 C56.1155599,125.47819 55.8408203,125.958984 55.4287109,126.371094 C55.1539714,126.783203 54.741862,127.263997 54.1923828,127.813477 C53.6429036,128.225586 52.9560547,128.70638 52.1318359,129.255859 Z M72.3251953,38.5917969 C72.3251953,38.4544271 72.3251953,38.3170573 72.3251953,38.1796875 C72.4625651,38.0423177 72.53125,37.9736328 72.53125,37.9736328 C72.6686198,37.836263 72.8059896,37.7675781 72.9433594,37.7675781 C72.9433594,37.7675781 73.0120443,37.7675781 73.1494141,37.7675781 C73.5615234,37.7675781 73.9049479,37.7675781 74.1796875,37.7675781 C74.5917969,37.9049479 74.9352214,37.9736328 75.2099609,37.9736328 C75.4847005,38.1110026 75.6907552,38.2483724 75.828125,38.3857422 C75.9654948,38.3857422 76.1715495,38.4544271 76.4462891,38.5917969 C75.8968099,38.8665365 75.4160156,39.0725911 75.0039062,39.2099609 C74.4544271,39.3473307 73.836263,39.4160156 73.1494141,39.4160156 C73.1494141,39.4160156 73.0807292,39.4160156 72.9433594,39.4160156 C72.8059896,39.4160156 72.6686198,39.3473307 72.53125,39.2099609 C72.53125,39.0725911 72.4625651,39.0039062 72.3251953,39.0039062 C72.3251953,38.8665365 72.3251953,38.7291667 72.3251953,38.5917969 Z M70.2646484,47.2460938 C69.8525391,46.9713542 69.4404297,46.6966146 69.0283203,46.421875 C68.7535807,46.0097656 68.4788411,45.6663411 68.2041016,45.3916016 C68.2041016,45.2542318 68.2041016,45.116862 68.2041016,44.9794922 C68.0667318,44.9794922 67.9980469,44.9108073 67.9980469,44.7734375 C67.9980469,44.7734375 67.9980469,44.7734375 67.9980469,44.7734375 C67.9980469,44.7734375 67.9980469,44.7047526 67.9980469,44.5673828 C68.1354167,44.430013 68.2041016,44.3613281 68.2041016,44.3613281 C68.3414714,44.2239583 68.4101562,44.1552734 68.4101562,44.1552734 C68.547526,44.0179036 68.6848958,43.9492188 68.8222656,43.9492188 C68.9596354,43.9492188 69.0970052,43.9492188 69.234375,43.9492188 C69.3717448,43.9492188 69.4404297,44.0179036 69.4404297,44.1552734 C69.5777995,44.1552734 69.6464844,44.2239583 69.6464844,44.3613281 C69.921224,44.6360677 70.1272786,44.8421224 70.2646484,44.9794922 C70.539388,45.2542318 70.8141276,45.4602865 71.0888672,45.5976562 C71.3636068,45.735026 71.6383464,45.8037109 71.9130859,45.8037109 C72.1878255,45.9410807 72.53125,46.0097656 72.9433594,46.0097656 C73.3554688,46.0097656 73.7675781,45.9410807 74.1796875,45.8037109 C74.5917969,45.6663411 75.0039062,45.4602865 75.4160156,45.1855469 C75.828125,44.9108073 76.1028646,44.5673828 76.2402344,44.1552734 C76.514974,43.7431641 76.6523438,43.2623698 76.6523438,42.7128906 C76.6523438,42.438151 76.6523438,42.2320964 76.6523438,42.0947266 C76.6523438,41.819987 76.5836589,41.6139323 76.4462891,41.4765625 C76.4462891,41.2018229 76.3776042,40.9957682 76.2402344,40.8583984 C76.1028646,40.7210286 75.9654948,40.5836589 75.828125,40.4462891 C75.6907552,40.3089193 75.4847005,40.1715495 75.2099609,40.0341797 C75.0725911,39.8968099 74.8665365,39.7594401 74.5917969,39.6220703 C74.3170573,39.6220703 74.0423177,39.5533854 73.7675781,39.4160156 C73.4928385,39.4160156 73.218099,39.4160156 72.9433594,39.4160156 C72.8059896,39.4160156 72.6686198,39.4160156 72.53125,39.4160156 C72.3938802,39.4160156 72.3251953,39.3473307 72.3251953,39.2099609 C72.1878255,39.0725911 72.1191406,38.9352214 72.1191406,38.7978516 C71.9817708,38.7978516 71.9130859,38.7291667 71.9130859,38.5917969 C71.9130859,38.4544271 71.9817708,38.3170573 72.1191406,38.1796875 C72.1191406,38.0423177 72.1878255,37.9736328 72.3251953,37.9736328 C72.3251953,37.836263 72.3938802,37.7675781 72.53125,37.7675781 C72.6686198,37.7675781 72.8059896,37.7675781 72.9433594,37.7675781 C72.9433594,37.7675781 72.9433594,37.7675781 72.9433594,37.7675781 C73.0807292,37.7675781 73.1494141,37.7675781 73.1494141,37.7675781 C73.0120443,37.7675781 72.9433594,37.7675781 72.9433594,37.7675781 C72.8059896,37.7675781 72.6686198,37.836263 72.53125,37.9736328 C72.53125,37.9736328 72.4625651,38.0423177 72.3251953,38.1796875 C72.3251953,38.3170573 72.3251953,38.4544271 72.3251953,38.5917969 C72.3251953,38.7291667 72.3251953,38.7978516 72.3251953,38.7978516 C72.4625651,38.9352214 72.53125,39.0725911 72.53125,39.2099609 C72.6686198,39.3473307 72.8059896,39.4160156 72.9433594,39.4160156 C73.0807292,39.4160156 73.1494141,39.4160156 73.1494141,39.4160156 C73.836263,39.4160156 74.4544271,39.3473307 75.0039062,39.2099609 C75.4160156,39.0725911 75.8968099,38.8665365 76.4462891,38.5917969 C76.5836589,38.7291667 76.7210286,38.7978516 76.8583984,38.7978516 C76.8583984,38.9352214 76.9270833,39.0725911 77.0644531,39.2099609 C77.3391927,39.4847005 77.5452474,39.6907552 77.6826172,39.828125 C77.819987,40.1028646 77.9573568,40.3776042 78.0947266,40.6523438 C78.2320964,41.0644531 78.3007812,41.4078776 78.3007812,41.6826172 C78.438151,42.0947266 78.5068359,42.438151 78.5068359,42.7128906 C78.5068359,43.3997396 78.3694661,44.0865885 78.0947266,44.7734375 C77.819987,45.3229167 77.4078776,45.8723958 76.8583984,46.421875 C76.3089193,46.8339844 75.6907552,47.1774089 75.0039062,47.4521484 C74.3170573,47.726888 73.6302083,47.8642578 72.9433594,47.8642578 C72.3938802,47.8642578 71.9130859,47.7955729 71.5009766,47.6582031 C71.0888672,47.5208333 70.6767578,47.3834635 70.2646484,47.2460938 Z M76.4462891,38.5917969 C76.1715495,38.4544271 75.9654948,38.3857422 75.828125,38.3857422 C75.6907552,38.2483724 75.4847005,38.1110026 75.2099609,37.9736328 C74.9352214,37.836263 74.5917969,37.7675781 74.1796875,37.7675781 C73.9049479,37.7675781 73.5615234,37.7675781 73.1494141,37.7675781 C73.1494141,37.7675781 73.1494141,37.6988932 73.1494141,37.5615234 C73.1494141,37.5615234 73.1494141,37.5615234 73.1494141,37.5615234 C73.6988932,37.5615234 74.1796875,37.5615234 74.5917969,37.5615234 C75.0039062,37.4241536 75.3473307,37.218099 75.6220703,36.9433594 C76.0341797,36.6686198 76.3089193,36.3938802 76.4462891,36.1191406 C76.5836589,35.844401 76.6523438,35.5009766 76.6523438,35.0888672 C76.6523438,34.8141276 76.6523438,34.6080729 76.6523438,34.4707031 C76.6523438,34.3333333 76.5836589,34.1959635 76.4462891,34.0585938 C76.3089193,33.921224 76.2402344,33.7838542 76.2402344,33.6464844 C76.1028646,33.5091146 76.0341797,33.4404297 76.0341797,33.4404297 C75.8968099,33.3030599 75.7594401,33.1656901 75.6220703,33.0283203 C75.3473307,32.8909505 75.141276,32.8222656 75.0039062,32.8222656 C74.8665365,32.6848958 74.7291667,32.6162109 74.5917969,32.6162109 C74.3170573,32.4788411 74.1110026,32.4101562 73.9736328,32.4101562 C73.6988932,32.4101562 73.4241536,32.4788411 73.1494141,32.6162109 C72.8746745,32.6162109 72.5999349,32.6848958 72.3251953,32.8222656 C72.0504557,32.8222656 71.844401,32.9596354 71.7070312,33.234375 C71.4322917,33.3717448 71.226237,33.5091146 71.0888672,33.6464844 C70.9514974,33.7838542 70.8828125,33.8525391 70.8828125,33.8525391 C70.7454427,33.8525391 70.6080729,33.8525391 70.4707031,33.8525391 C70.3333333,33.8525391 70.1959635,33.8525391 70.0585938,33.8525391 C70.0585938,33.8525391 69.9899089,33.7838542 69.8525391,33.6464844 C69.7151693,33.6464844 69.6464844,33.5777995 69.6464844,33.4404297 C69.5091146,33.3030599 69.4404297,33.1656901 69.4404297,33.0283203 C69.4404297,33.0283203 69.5091146,32.9596354 69.6464844,32.8222656 C69.6464844,32.6848958 69.7151693,32.547526 69.8525391,32.4101562 C69.9899089,32.1354167 70.2646484,31.8606771 70.6767578,31.5859375 C70.9514974,31.4485677 71.2949219,31.3111979 71.7070312,31.1738281 C71.9817708,31.0364583 72.3251953,30.8990885 72.7373047,30.7617188 C73.1494141,30.7617188 73.5615234,30.7617188 73.9736328,30.7617188 C74.2483724,30.7617188 74.5917969,30.7617188 75.0039062,30.7617188 C75.2786458,30.8990885 75.5533854,30.9677734 75.828125,30.9677734 C76.1028646,31.1051432 76.3776042,31.3111979 76.6523438,31.5859375 C76.7897135,31.7233073 76.9957682,31.8606771 77.2705078,31.9980469 C77.4078776,32.2727865 77.6139323,32.547526 77.8886719,32.8222656 C78.0260417,32.9596354 78.0947266,33.1656901 78.0947266,33.4404297 C78.2320964,33.7151693 78.3007812,33.9899089 78.3007812,34.2646484 C78.438151,34.539388 78.5068359,34.8141276 78.5068359,35.0888672 C78.5068359,35.0888672 78.5068359,35.0888672 78.5068359,35.0888672 C78.5068359,35.0888672 78.5068359,35.0888672 78.5068359,35.0888672 C78.5068359,35.7757161 78.3694661,36.3251953 78.0947266,36.7373047 C77.819987,37.2867839 77.4078776,37.7675781 76.8583984,38.1796875 C76.8583984,38.3170573 76.7897135,38.3857422 76.6523438,38.3857422 C76.514974,38.523112 76.4462891,38.5917969 76.4462891,38.5917969 Z" transform="translate(-4)"/></svg>