<svg xmlns="http://www.w3.org/2000/svg" width="85" height="203" viewBox="0 0 85 203"><path fill="#131313" d="M1771.99609,67.4042969 C1780.53125,67.4042969 1787.86849,70.3990885 1794.00781,76.3886719 C1799.9974,82.5279948 1802.99219,89.8652344 1802.99219,98.4003906 C1802.99219,108.732422 1802.99219,124.230469 1802.99219,144.894531 C1802.99219,147.140625 1802.16862,149.08724 1800.52148,150.734375 C1799.02409,152.231771 1797.15234,152.980469 1794.90625,152.980469 C1792.66016,152.980469 1790.71354,152.231771 1789.06641,150.734375 C1787.56901,149.08724 1786.82031,147.140625 1786.82031,144.894531 C1786.82031,134.5625 1786.82031,119.064453 1786.82031,98.4003906 C1786.82031,94.3574219 1785.32292,90.8385417 1782.32812,87.84375 C1779.48307,84.9986979 1776.03906,83.5761719 1771.99609,83.5761719 C1767.95312,83.5761719 1764.50911,84.9986979 1761.66406,87.84375 C1758.81901,90.8385417 1757.39648,94.3574219 1757.39648,98.4003906 C1757.39648,104.240234 1757.39648,113.14974 1757.39648,125.128906 C1757.39648,129.471354 1757.39648,136.059896 1757.39648,144.894531 C1757.39648,147.140625 1756.57292,149.08724 1754.92578,150.734375 C1753.42839,152.231771 1751.55664,152.980469 1749.31055,152.980469 C1747.06445,152.980469 1745.11784,152.231771 1743.4707,150.734375 C1741.82357,149.08724 1741,147.140625 1741,144.894531 C1741,140.552083 1741,133.963542 1741,125.128906 C1741,119.139323 1741,110.229818 1741,98.4003906 C1741,77.8860677 1741,61.1145833 1741,20.0859375 C1741,17.8398438 1741.82357,15.8932292 1743.4707,14.2460938 C1745.11784,12.7486979 1747.06445,12 1749.31055,12 C1751.55664,12 1753.42839,12.7486979 1754.92578,14.2460938 C1756.57292,15.8932292 1757.39648,17.8398438 1757.39648,20.0859375 C1757.39648,34.4609375 1757.39648,42.0983073 1757.39648,70.9980469 C1759.49284,69.8001302 1761.8138,68.9016927 1764.35937,68.3027344 C1766.75521,67.703776 1769.30078,67.4042969 1771.99609,67.4042969 Z M1775.44141,55.7246094 C1783.52734,56.6230469 1790.78971,59.6927083 1797.22852,64.9335938 C1803.66732,70.3242188 1808.08464,76.9876302 1810.48047,84.9238281 C1810.03125,84.9238281 1809.28255,84.9986979 1808.23437,85.1484375 C1805.83854,77.8111979 1801.64583,71.671875 1795.65625,66.7304688 C1789.66667,61.7890625 1782.85352,58.8691406 1775.2168,57.9707031 C1775.36654,57.671224 1775.44141,57.3717448 1775.44141,57.0722656 C1775.44141,56.7727865 1775.44141,56.4733073 1775.44141,56.1738281 C1775.44141,56.1738281 1775.44141,56.0989583 1775.44141,55.9492188 C1775.44141,55.9492188 1775.44141,55.874349 1775.44141,55.7246094 Z M1770.94922,60.890625 C1771.84766,60.890625 1772.59635,60.5911458 1773.19531,59.9921875 C1773.94401,59.3932292 1774.39323,58.719401 1774.54297,57.9707031 C1774.69271,57.9707031 1774.84245,57.9707031 1774.99219,57.9707031 C1774.99219,57.9707031 1775.06706,57.9707031 1775.2168,57.9707031 C1774.91732,59.0188802 1774.39323,59.8424479 1773.64453,60.4414062 C1772.89583,61.0403646 1771.9974,61.4147135 1770.94922,61.5644531 C1769.60156,61.5644531 1768.40365,61.1152344 1767.35547,60.2167969 C1766.30729,59.3183594 1765.7832,58.1953125 1765.7832,56.8476562 C1765.63346,55.5 1766.00781,54.3020833 1766.90625,53.2539062 C1767.80469,52.3554688 1768.92773,51.8313802 1770.27539,51.6816406 C1771.47331,51.6816406 1772.59635,52.0559896 1773.64453,52.8046875 C1774.54297,53.5533854 1775.14193,54.5266927 1775.44141,55.7246094 C1775.29167,55.7246094 1775.14193,55.7246094 1774.99219,55.7246094 C1774.99219,55.7246094 1774.91732,55.7246094 1774.76758,55.7246094 C1774.61784,54.6764323 1774.09375,53.8528646 1773.19531,53.2539062 C1772.29687,52.5052083 1771.32357,52.2057292 1770.27539,52.3554688 C1769.07747,52.3554688 1768.10417,52.8046875 1767.35547,53.703125 C1766.60677,54.6015625 1766.23242,55.6497396 1766.23242,56.8476562 C1766.38216,58.0455729 1766.90625,59.0188802 1767.80469,59.7675781 C1768.70312,60.516276 1769.7513,60.890625 1770.94922,60.890625 Z M1775.44141,55.7246094 C1775.44141,55.874349 1775.44141,55.9492188 1775.44141,55.9492188 C1775.44141,56.0989583 1775.44141,56.2486979 1775.44141,56.3984375 C1775.44141,56.6979167 1775.44141,56.922526 1775.44141,57.0722656 C1775.44141,57.3717448 1775.36654,57.671224 1775.2168,57.9707031 C1775.2168,57.9707031 1775.14193,57.9707031 1774.99219,57.9707031 C1774.84245,57.9707031 1774.76758,57.9707031 1774.76758,57.9707031 C1774.76758,57.671224 1774.84245,57.3717448 1774.99219,57.0722656 C1774.99219,56.922526 1774.99219,56.6979167 1774.99219,56.3984375 C1774.99219,56.2486979 1774.91732,56.0989583 1774.76758,55.9492188 C1774.76758,55.7994792 1774.76758,55.7246094 1774.76758,55.7246094 C1774.91732,55.7246094 1775.06706,55.7246094 1775.2168,55.7246094 C1775.2168,55.7246094 1775.29167,55.7246094 1775.44141,55.7246094 Z M1770.27539,52.3554688 C1771.47331,52.2057292 1772.44661,52.4303385 1773.19531,53.0292969 C1774.09375,53.7779948 1774.61784,54.6764323 1774.76758,55.7246094 C1774.76758,55.7246094 1774.69271,55.7246094 1774.54297,55.7246094 C1774.39323,55.5748698 1774.31836,55.5 1774.31836,55.5 C1774.01888,54.7513021 1773.49479,54.077474 1772.74609,53.4785156 C1772.14714,53.0292969 1771.39844,52.8046875 1770.5,52.8046875 C1770.5,52.8046875 1770.57487,52.8046875 1770.72461,52.8046875 C1770.72461,52.8046875 1770.79948,52.8046875 1770.94922,52.8046875 C1770.79948,52.8046875 1770.72461,52.8046875 1770.72461,52.8046875 C1770.57487,52.8046875 1770.5,52.8046875 1770.5,52.8046875 C1770.35026,52.8046875 1770.27539,52.8046875 1770.27539,52.8046875 C1770.27539,52.8046875 1770.20052,52.8046875 1770.05078,52.8046875 C1770.05078,52.8046875 1769.97591,52.8046875 1769.82617,52.8046875 C1769.97591,52.8046875 1770.05078,52.8046875 1770.05078,52.8046875 C1770.20052,52.8046875 1770.27539,52.8046875 1770.27539,52.8046875 C1770.27539,52.8046875 1770.35026,52.8046875 1770.5,52.8046875 C1769.45182,52.9544271 1768.55339,53.4036458 1767.80469,54.1523438 C1767.05599,54.9010417 1766.75651,55.7994792 1766.90625,56.8476563 C1766.90625,57.8958333 1767.2806,58.719401 1768.0293,59.3183594 C1768.92773,60.0670573 1769.90104,60.3665365 1770.94922,60.2167969 C1771.69792,60.2167969 1772.37174,59.9921875 1772.9707,59.5429688 C1773.56966,59.09375 1773.94401,58.5696615 1774.09375,57.9707031 C1774.24349,57.9707031 1774.31836,57.9707031 1774.31836,57.9707031 C1774.4681,57.9707031 1774.61784,57.9707031 1774.76758,57.9707031 C1774.4681,58.719401 1773.94401,59.3932292 1773.19531,59.9921875 C1772.59635,60.5911458 1771.84766,60.890625 1770.94922,60.890625 C1769.7513,60.890625 1768.70312,60.516276 1767.80469,59.7675781 C1766.90625,59.0188802 1766.38216,58.0455729 1766.23242,56.8476563 C1766.23242,55.6497396 1766.60677,54.6015625 1767.35547,53.703125 C1768.10417,52.8046875 1769.07747,52.3554688 1770.27539,52.3554688 Z M1774.31836,56.3984375 C1774.31836,56.2486979 1774.31836,56.0989583 1774.31836,55.9492188 C1774.31836,55.7994792 1774.31836,55.6497396 1774.31836,55.5 C1774.31836,55.5 1774.39323,55.5 1774.54297,55.5 C1774.69271,55.5 1774.76758,55.5748698 1774.76758,55.7246094 C1774.76758,55.7246094 1774.76758,55.7994792 1774.76758,55.9492188 C1774.91732,56.0989583 1774.99219,56.2486979 1774.99219,56.3984375 C1774.99219,56.5481771 1774.99219,56.7727865 1774.99219,57.0722656 C1774.84245,57.3717448 1774.76758,57.671224 1774.76758,57.9707031 C1774.61784,57.9707031 1774.4681,57.9707031 1774.31836,57.9707031 C1774.31836,57.9707031 1774.24349,57.9707031 1774.09375,57.9707031 C1774.24349,57.671224 1774.31836,57.3717448 1774.31836,57.0722656 C1774.31836,56.922526 1774.31836,56.6979167 1774.31836,56.3984375 Z M1812.95117,84.4746094 C1812.65169,87.3196615 1812.1276,91.5872396 1811.37891,97.2773438 C1810.18099,94.5820312 1808.45898,90.6139323 1806.21289,85.3730469 C1806.66211,85.3730469 1811.90299,84.624349 1812.95117,84.4746094 Z M1728.72266,22.6210938 C1728.8724,22.7708333 1729.09701,22.8457031 1729.39648,22.8457031 C1729.54622,22.8457031 1729.69596,22.8457031 1729.8457,22.8457031 C1729.99544,22.8457031 1730.22005,22.8457031 1730.51953,22.8457031 C1730.66927,22.8457031 1730.81901,22.7708333 1730.96875,22.6210938 C1730.96875,29.9583333 1730.96875,32.8893229 1730.96875,47.4140625 C1730.51953,47.4140625 1729.77083,47.4140625 1728.72266,47.4140625 C1728.72266,41.8736979 1728.72266,36.4082031 1728.72266,31.0175781 C1728.72266,25.6269531 1728.72266,28.1614583 1728.72266,22.6210938 Z M1726.47656,47.4140625 C1727.22526,50.109375 1728.34831,54.2272135 1729.8457,59.7675781 C1730.5944,57.0722656 1731.71745,52.9544271 1733.21484,47.4140625 C1732.76562,47.4140625 1727.52474,47.4140625 1726.47656,47.4140625 Z M1729.8457,12.9628906 C1731.19336,12.9628906 1732.39128,13.4869792 1733.43945,14.5351562 C1734.33789,15.4335937 1734.78711,16.5566406 1734.78711,17.9042969 C1734.78711,19.1022135 1734.41276,20.1503906 1733.66406,21.0488281 C1732.91536,21.9472656 1732.01693,22.4713542 1730.96875,22.6210938 C1730.96875,22.6210938 1730.96875,22.4713542 1730.96875,22.171875 C1731.86719,21.8723958 1732.61589,21.3483073 1733.21484,20.5996094 C1733.8138,19.8509115 1734.11328,18.952474 1734.11328,17.9042969 C1734.11328,16.7063802 1733.73893,15.7330729 1732.99023,14.984375 C1732.0918,14.0859375 1731.04362,13.6367187 1729.8457,13.6367187 C1728.64779,13.6367187 1727.59961,14.0859375 1726.70117,14.984375 C1725.95247,15.7330729 1725.57812,16.7063802 1725.57812,17.9042969 C1725.57812,18.952474 1725.8776,19.8509115 1726.47656,20.5996094 C1727.07552,21.3483073 1727.82422,21.8723958 1728.72266,22.171875 C1728.72266,22.3216146 1728.72266,22.4713542 1728.72266,22.6210938 C1727.67448,22.4713542 1726.77604,21.9472656 1726.02734,21.0488281 C1725.27865,20.1503906 1724.9043,19.1022135 1724.9043,17.9042969 C1724.9043,16.5566406 1725.42839,15.4335937 1726.47656,14.5351562 C1727.375,13.4869792 1728.49805,12.9628906 1729.8457,12.9628906 Z M1729.8457,22.3964844 C1729.99544,22.3964844 1730.22005,22.3216146 1730.51953,22.171875 C1730.66927,22.171875 1730.81901,22.171875 1730.96875,22.171875 C1730.96875,22.3216146 1730.96875,22.4713542 1730.96875,22.6210938 C1730.81901,22.7708333 1730.66927,22.8457031 1730.51953,22.8457031 C1730.22005,22.8457031 1729.99544,22.8457031 1729.8457,22.8457031 C1729.69596,22.8457031 1729.54622,22.8457031 1729.39648,22.8457031 C1729.09701,22.8457031 1728.8724,22.7708333 1728.72266,22.6210938 C1728.72266,22.6210938 1728.72266,22.4713542 1728.72266,22.171875 C1728.8724,22.171875 1729.09701,22.171875 1729.39648,22.171875 C1729.54622,22.3216146 1729.69596,22.3964844 1729.8457,22.3964844 Z M1726.02734,17.9042969 C1726.02734,18.8027344 1726.32682,19.5514323 1726.92578,20.1503906 C1727.375,20.749349 1727.97396,21.1985677 1728.72266,21.4980469 C1728.72266,21.6477865 1728.72266,21.8723958 1728.72266,22.171875 C1727.82422,21.8723958 1727.07552,21.3483073 1726.47656,20.5996094 C1725.8776,19.8509115 1725.57812,18.952474 1725.57812,17.9042969 C1725.57812,16.7063802 1725.95247,15.7330729 1726.70117,14.984375 C1727.59961,14.0859375 1728.64779,13.6367188 1729.8457,13.6367188 C1731.04362,13.6367188 1732.0918,14.0859375 1732.99023,14.984375 C1733.73893,15.7330729 1734.11328,16.7063802 1734.11328,17.9042969 C1734.11328,18.952474 1733.8138,19.8509115 1733.21484,20.5996094 C1732.61589,21.3483073 1731.86719,21.8723958 1730.96875,22.171875 C1730.96875,22.0221354 1730.96875,21.797526 1730.96875,21.4980469 C1731.71745,21.1985677 1732.39128,20.749349 1732.99023,20.1503906 C1733.43945,19.5514323 1733.66406,18.8027344 1733.66406,17.9042969 C1733.66406,16.8561198 1733.28971,15.9576823 1732.54102,15.2089844 C1731.79232,14.610026 1730.89388,14.3105469 1729.8457,14.3105469 C1728.79753,14.3105469 1727.89909,14.610026 1727.15039,15.2089844 C1726.40169,15.9576823 1726.02734,16.8561198 1726.02734,17.9042969 C1726.02734,17.7545573 1726.02734,17.6048177 1726.02734,17.4550781 C1726.02734,17.6048177 1726.02734,17.7545573 1726.02734,17.9042969 C1726.02734,18.203776 1726.02734,18.3535156 1726.02734,18.3535156 C1726.02734,18.5032552 1726.02734,18.578125 1726.02734,18.578125 C1726.02734,18.578125 1726.02734,18.5032552 1726.02734,18.3535156 C1726.02734,18.3535156 1726.02734,18.203776 1726.02734,17.9042969 Z M1730.96875,22.171875 C1730.81901,22.171875 1730.66927,22.171875 1730.51953,22.171875 C1730.22005,22.3216146 1729.99544,22.3964844 1729.8457,22.3964844 C1729.69596,22.3964844 1729.54622,22.3216146 1729.39648,22.171875 C1729.09701,22.171875 1728.8724,22.171875 1728.72266,22.171875 C1728.72266,22.0221354 1728.72266,21.797526 1728.72266,21.4980469 C1728.8724,21.4980469 1729.02214,21.5729167 1729.17188,21.7226562 C1729.47135,21.7226562 1729.69596,21.7226562 1729.8457,21.7226562 C1729.99544,21.7226562 1730.22005,21.7226562 1730.51953,21.7226562 C1730.66927,21.5729167 1730.81901,21.4980469 1730.96875,21.4980469 C1730.96875,21.6477865 1730.96875,21.7226562 1730.96875,21.7226562 C1730.96875,21.8723958 1730.96875,22.0221354 1730.96875,22.171875 Z M1716.81836,12.2890625 C1716.9681,12.2890625 1717.04297,12.3639323 1717.04297,12.5136719 C1717.04297,12.5136719 1717.11784,12.5885417 1717.26758,12.7382813 C1717.26758,12.7382813 1717.26758,12.813151 1717.26758,12.9628906 C1717.41732,12.9628906 1717.49219,13.0377604 1717.49219,13.1875 C1717.49219,14.984375 1717.49219,17.3053385 1717.49219,20.1503906 C1717.49219,22.8457031 1717.49219,26.0651042 1717.49219,29.8085938 C1717.49219,29.9583333 1717.41732,30.1080729 1717.26758,30.2578125 C1717.26758,30.4075521 1717.19271,30.4824219 1717.04297,30.4824219 C1717.04297,30.6321615 1716.9681,30.7070313 1716.81836,30.7070313 C1716.66862,30.7070313 1716.51888,30.7070313 1716.36914,30.7070313 C1716.2194,30.7070313 1716.14453,30.7070313 1716.14453,30.7070313 C1715.99479,30.7070313 1715.84505,30.6321615 1715.69531,30.4824219 C1715.69531,30.4824219 1715.62044,30.4075521 1715.4707,30.2578125 C1715.4707,30.1080729 1715.4707,29.9583333 1715.4707,29.8085938 C1715.4707,28.3111979 1715.4707,26.3645833 1715.4707,23.96875 C1715.4707,21.5729167 1715.4707,18.7278646 1715.4707,15.4335938 C1715.32096,15.5833333 1715.24609,15.7330729 1715.24609,15.8828125 C1715.09635,16.0325521 1714.94661,16.1822917 1714.79688,16.3320313 C1714.64714,16.3320313 1714.4974,16.3320313 1714.34766,16.3320313 C1714.34766,16.4817708 1714.27279,16.5566406 1714.12305,16.5566406 C1713.97331,16.5566406 1713.82357,16.4817708 1713.67383,16.3320313 C1713.52409,16.3320313 1713.44922,16.3320313 1713.44922,16.3320313 C1713.29948,16.1822917 1713.22461,16.0325521 1713.22461,15.8828125 C1713.07487,15.7330729 1713,15.5833333 1713,15.4335938 C1713,15.4335938 1713.07487,15.358724 1713.22461,15.2089844 C1713.22461,15.0592448 1713.29948,14.9095052 1713.44922,14.7597656 C1713.7487,14.610026 1714.04818,14.3105469 1714.34766,13.8613281 C1714.79688,13.4121094 1715.24609,12.9628906 1715.69531,12.5136719 C1715.84505,12.3639323 1715.91992,12.2890625 1715.91992,12.2890625 C1716.06966,12.2890625 1716.14453,12.2890625 1716.14453,12.2890625 C1716.29427,12.2890625 1716.36914,12.2890625 1716.36914,12.2890625 C1716.51888,12.2890625 1716.59375,12.2890625 1716.59375,12.2890625 C1716.74349,12.2890625 1716.81836,12.2890625 1716.81836,12.2890625 Z M1767.35547,42.4726563 C1767.35547,42.4726563 1767.35547,42.3977865 1767.35547,42.2480469 C1767.20573,42.2480469 1767.13086,42.1731771 1767.13086,42.0234375 C1767.13086,42.0234375 1767.13086,42.0234375 1767.13086,42.0234375 C1767.13086,41.8736979 1767.13086,41.7988281 1767.13086,41.7988281 C1767.13086,41.7988281 1767.13086,41.7988281 1767.13086,41.7988281 C1767.13086,41.7988281 1767.13086,41.7988281 1767.13086,41.7988281 C1767.13086,41.6490885 1767.20573,41.499349 1767.35547,41.3496094 C1767.35547,41.0501302 1767.43034,40.6757813 1767.58008,40.2265625 C1767.58008,39.7773437 1767.72982,39.328125 1768.0293,38.8789062 C1768.17904,38.4296875 1768.47852,37.905599 1768.92773,37.3066406 C1769.07747,37.0071615 1769.30208,36.7076823 1769.60156,36.4082031 C1769.7513,36.108724 1769.97591,35.8092448 1770.27539,35.5097656 C1770.57487,35.2102865 1770.87435,34.9108073 1771.17383,34.6113281 C1771.62305,34.311849 1771.9974,34.0123698 1772.29687,33.7128906 C1773.19531,33.2636719 1773.94401,32.8144531 1774.54297,32.3652344 C1774.99219,31.9160156 1775.36654,31.4667969 1775.66602,31.0175781 C1775.81576,30.718099 1775.96549,30.34375 1776.11523,29.8945313 C1776.26497,29.5950521 1776.33984,29.2955729 1776.33984,28.9960938 C1776.33984,28.8463542 1776.33984,28.7714844 1776.33984,28.7714844 C1776.1901,28.6217448 1776.11523,28.4720052 1776.11523,28.3222656 C1776.11523,28.3222656 1776.11523,28.2473958 1776.11523,28.0976563 C1776.11523,27.9479167 1776.11523,27.7981771 1776.11523,27.6484375 C1775.96549,27.4986979 1775.81576,27.3489583 1775.66602,27.1992188 C1775.51628,26.8997396 1775.29167,26.6751302 1774.99219,26.5253906 C1774.84245,26.375651 1774.54297,26.3007813 1774.09375,26.3007813 C1773.79427,26.1510417 1773.34505,26.0761719 1772.74609,26.0761719 C1772.44661,26.0761719 1772.14714,26.1510417 1771.84766,26.3007813 C1771.54818,26.3007813 1771.2487,26.375651 1770.94922,26.5253906 C1770.64974,26.6751302 1770.42513,26.8997396 1770.27539,27.1992188 C1769.97591,27.4986979 1769.82617,27.7981771 1769.82617,28.0976563 C1769.67643,28.0976563 1769.60156,28.172526 1769.60156,28.3222656 C1769.45182,28.4720052 1769.30208,28.546875 1769.15234,28.546875 C1769.0026,28.546875 1768.85286,28.546875 1768.70312,28.546875 C1768.55339,28.546875 1768.47852,28.546875 1768.47852,28.546875 C1768.32878,28.3971354 1768.17904,28.3222656 1768.0293,28.3222656 C1768.0293,28.172526 1767.95443,28.0227865 1767.80469,27.8730469 C1767.80469,27.7233073 1767.80469,27.6484375 1767.80469,27.6484375 C1767.80469,27.4986979 1767.87956,27.3489583 1768.0293,27.1992188 C1768.17904,26.75 1768.40365,26.3007813 1768.70312,25.8515625 C1769.0026,25.5520833 1769.37695,25.2526042 1769.82617,24.953125 C1770.27539,24.6536458 1770.72461,24.4290365 1771.17383,24.2792969 C1771.77279,24.2792969 1772.29687,24.2792969 1772.74609,24.2792969 C1773.79427,24.2792969 1774.69271,24.3541667 1775.44141,24.5039062 C1776.04036,24.8033854 1776.56445,25.1777344 1777.01367,25.6269531 C1777.46289,26.2259115 1777.76237,26.8248698 1777.91211,27.4238281 C1778.06185,27.8730469 1778.13672,28.3971354 1778.13672,28.9960938 C1778.13672,29.5950521 1778.06185,30.1940104 1777.91211,30.7929688 C1777.76237,31.2421875 1777.46289,31.766276 1777.01367,32.3652344 C1776.71419,32.8144531 1776.26497,33.3385417 1775.66602,33.9375 C1775.06706,34.3867188 1774.31836,34.9108073 1773.41992,35.5097656 C1772.82096,35.8092448 1772.22201,36.2584635 1771.62305,36.8574219 C1771.17383,37.3066406 1770.79948,37.7558594 1770.5,38.2050781 C1770.20052,38.8040365 1769.97591,39.328125 1769.82617,39.7773437 C1769.52669,40.0768229 1769.37695,40.4511719 1769.37695,40.9003906 C1770.27539,40.9003906 1771.39844,40.9003906 1772.74609,40.9003906 C1774.09375,40.9003906 1775.66602,40.9003906 1777.46289,40.9003906 C1777.61263,40.9003906 1777.76237,40.9003906 1777.91211,40.9003906 C1778.06185,40.9003906 1778.13672,40.9752604 1778.13672,41.125 C1778.28646,41.2747396 1778.36133,41.3496094 1778.36133,41.3496094 C1778.36133,41.499349 1778.36133,41.6490885 1778.36133,41.7988281 C1778.36133,41.9485677 1778.36133,42.0983073 1778.36133,42.2480469 C1778.36133,42.2480469 1778.28646,42.3229167 1778.13672,42.4726563 C1778.13672,42.6223958 1778.06185,42.6972656 1777.91211,42.6972656 C1777.76237,42.6972656 1777.61263,42.6972656 1777.46289,42.6972656 C1776.71419,42.6972656 1775.96549,42.6972656 1775.2168,42.6972656 C1774.4681,42.6972656 1773.64453,42.6972656 1772.74609,42.6972656 C1771.9974,42.6972656 1771.2487,42.6972656 1770.5,42.6972656 C1769.7513,42.6972656 1768.92773,42.6972656 1768.0293,42.6972656 C1768.0293,42.6972656 1767.95443,42.6972656 1767.80469,42.6972656 C1767.80469,42.6972656 1767.80469,42.6972656 1767.80469,42.6972656 C1767.65495,42.6972656 1767.58008,42.6972656 1767.58008,42.6972656 C1767.58008,42.547526 1767.50521,42.4726563 1767.35547,42.4726563 Z" transform="translate(-1729 -12)"/></svg>