<svg xmlns="http://www.w3.org/2000/svg" width="74" height="203" viewBox="0 0 74 203"><path d="M2074.632,113.104 C2074.632,111.088 2073.736,109.52 2072.392,108.4 C2070.6,107.504 2067.464,107.056 2062.984,107.056 L2041.928,107.056 L2025.576,107.504 L2012.584,107.504 C2011.24,107.952 2010.344,108.848 2009.896,110.192 C2009.224,111.536 2009,112.656 2009,113.552 C2009,115.792 2009.224,117.136 2010.12,118.032 C2011.016,118.928 2011.912,119.376 2013.256,119.376 L2017.288,119.376 C2019.528,119.376 2021.992,119.376 2024.904,119.152 L2053.352,119.152 C2056.936,119.376 2060.296,119.376 2063.432,119.376 L2068.36,119.376 C2069.928,119.376 2071.496,118.928 2072.84,117.808 C2073.96,116.912 2074.632,115.344 2074.632,113.104 Z" transform="translate(-2005 -18)"/></svg>