<svg xmlns="http://www.w3.org/2000/svg" width="60" height="203" viewBox="0 0 60 203"><path fill="#131313" d="M1721.2566,195.72168 C1721.2566,167.423503 1721.2566,124.976237 1721.2566,68.3798828 C1721.2566,66.3193359 1721.94345,64.5335286 1723.31715,63.0224609 C1724.82822,61.648763 1726.61402,60.9619141 1728.67457,60.9619141 C1730.73512,60.9619141 1732.52092,61.648763 1734.03199,63.0224609 C1735.40569,64.5335286 1736.09254,66.3193359 1736.09254,68.3798828 C1736.09254,96.6780599 1736.09254,139.125326 1736.09254,195.72168 C1736.09254,197.782227 1735.40569,199.568034 1734.03199,201.079102 C1732.52092,202.452799 1730.73512,203.139648 1728.67457,203.139648 C1726.61402,203.139648 1724.82822,202.452799 1723.31715,201.079102 C1721.94345,199.568034 1721.2566,197.782227 1721.2566,195.72168 Z M1712.03199,72.0888672 C1712.30673,72.0888672 1712.51279,72.1575521 1712.65016,72.2949219 C1712.78753,72.2949219 1712.99358,72.2949219 1713.26832,72.2949219 C1713.40569,72.2949219 1713.54306,72.2949219 1713.68043,72.2949219 C1713.8178,72.1575521 1714.02385,72.0888672 1714.29859,72.0888672 C1714.29859,78.133138 1714.29859,87.1308594 1714.29859,99.0820312 C1713.74911,99.0820312 1712.99358,99.0820312 1712.03199,99.0820312 C1712.03199,94.5488281 1712.03199,90.015625 1712.03199,85.4824219 C1712.03199,81.0865885 1712.03199,76.6220703 1712.03199,72.0888672 Z M1714.29859,101.142578 C1714.29859,100.730469 1714.29859,100.04362 1714.29859,99.0820312 C1714.7107,99.0820312 1715.32887,99.0820312 1716.15309,99.0820312 C1715.46624,101.554688 1714.50465,105.332357 1713.26832,110.415039 C1712.58147,107.942383 1711.5512,104.164714 1710.1775,99.0820312 C1710.58961,99.0820312 1711.20777,99.0820312 1712.03199,99.0820312 C1712.03199,99.4941406 1712.03199,100.18099 1712.03199,101.142578 C1712.58147,101.142578 1713.33701,101.142578 1714.29859,101.142578 Z M1712.03199,101.142578 C1712.58147,101.142578 1713.33701,101.142578 1714.29859,101.142578 C1714.29859,100.730469 1714.29859,100.04362 1714.29859,99.0820312 C1713.74911,99.0820312 1712.99358,99.0820312 1712.03199,99.0820312 C1712.03199,99.4941406 1712.03199,100.18099 1712.03199,101.142578 Z M1713.26832,63.2285156 C1714.50465,63.2285156 1715.53492,63.7093099 1716.35914,64.6708984 C1717.18336,65.4951172 1717.59547,66.5253906 1717.59547,67.7617188 C1717.59547,68.8606771 1717.32073,69.7535807 1716.77125,70.4404297 C1716.0844,71.2646484 1715.26018,71.8141276 1714.29859,72.0888672 C1714.29859,71.9514974 1714.29859,71.7454427 1714.29859,71.4707031 C1715.12281,71.3333333 1715.80966,70.921224 1716.35914,70.234375 C1716.90862,69.547526 1717.18336,68.7233073 1717.18336,67.7617188 C1717.18336,66.6627604 1716.77125,65.7011719 1715.94703,64.8769531 C1715.26018,64.1901042 1714.36728,63.8466797 1713.26832,63.8466797 C1712.16936,63.8466797 1711.20777,64.1901042 1710.38355,64.8769531 C1709.55934,65.7011719 1709.14723,66.6627604 1709.14723,67.7617188 C1709.14723,68.7233073 1709.42197,69.547526 1709.97145,70.234375 C1710.52092,70.921224 1711.20777,71.3333333 1712.03199,71.4707031 C1712.03199,71.6080729 1712.03199,71.8141276 1712.03199,72.0888672 C1711.0704,71.8141276 1710.31487,71.2646484 1709.76539,70.4404297 C1709.07854,69.7535807 1708.73512,68.8606771 1708.73512,67.7617188 C1708.73512,66.5253906 1709.14723,65.4951172 1709.97145,64.6708984 C1710.79566,63.7093099 1711.89462,63.2285156 1713.26832,63.2285156 Z M1713.26832,71.6767578 C1713.40569,71.6767578 1713.54306,71.6767578 1713.68043,71.6767578 C1713.8178,71.6767578 1714.02385,71.6080729 1714.29859,71.4707031 C1714.29859,71.6080729 1714.29859,71.8141276 1714.29859,72.0888672 C1714.02385,72.0888672 1713.8178,72.1575521 1713.68043,72.2949219 C1713.54306,72.2949219 1713.40569,72.2949219 1713.26832,72.2949219 C1712.99358,72.2949219 1712.78753,72.2949219 1712.65016,72.2949219 C1712.51279,72.1575521 1712.30673,72.0888672 1712.03199,72.0888672 C1712.03199,71.9514974 1712.03199,71.7454427 1712.03199,71.4707031 C1712.30673,71.6080729 1712.51279,71.6767578 1712.65016,71.6767578 C1712.78753,71.6767578 1712.99358,71.6767578 1713.26832,71.6767578 Z M1709.76539,67.7617188 C1709.76539,68.4485677 1709.97145,69.1354167 1710.38355,69.8222656 C1710.79566,70.3717448 1711.34514,70.7838542 1712.03199,71.0585938 C1712.03199,71.1959635 1712.03199,71.3333333 1712.03199,71.4707031 C1711.20777,71.3333333 1710.52092,70.921224 1709.97145,70.234375 C1709.42197,69.547526 1709.14723,68.7233073 1709.14723,67.7617188 C1709.14723,66.6627604 1709.55934,65.7011719 1710.38355,64.8769531 C1711.20777,64.1901042 1712.16936,63.8466797 1713.26832,63.8466797 C1714.36728,63.8466797 1715.26018,64.1901042 1715.94703,64.8769531 C1716.77125,65.7011719 1717.18336,66.6627604 1717.18336,67.7617188 C1717.18336,68.7233073 1716.90862,69.547526 1716.35914,70.234375 C1715.80966,70.921224 1715.12281,71.3333333 1714.29859,71.4707031 C1714.29859,71.3333333 1714.29859,71.1959635 1714.29859,71.0585938 C1714.98544,70.7838542 1715.53492,70.3717448 1715.94703,69.8222656 C1716.35914,69.1354167 1716.5652,68.4485677 1716.5652,67.7617188 C1716.5652,66.8001302 1716.22177,65.9759115 1715.53492,65.2890625 C1714.84807,64.6022135 1714.09254,64.2587891 1713.26832,64.2587891 C1712.30673,64.2587891 1711.48251,64.6022135 1710.79566,65.2890625 C1710.10882,65.9759115 1709.76539,66.8001302 1709.76539,67.7617188 C1709.76539,67.624349 1709.76539,67.4869792 1709.76539,67.3496094 C1709.76539,67.2122396 1709.76539,67.1435547 1709.76539,67.1435547 C1709.76539,67.1435547 1709.76539,67.2122396 1709.76539,67.3496094 C1709.76539,67.4869792 1709.76539,67.624349 1709.76539,67.7617188 C1709.76539,67.8990885 1709.76539,68.0364583 1709.76539,68.1738281 C1709.76539,68.1738281 1709.76539,68.242513 1709.76539,68.3798828 C1709.76539,68.242513 1709.76539,68.1738281 1709.76539,68.1738281 C1709.76539,68.0364583 1709.76539,67.8990885 1709.76539,67.7617188 Z M1714.29859,71.4707031 C1714.02385,71.6080729 1713.8178,71.6767578 1713.68043,71.6767578 C1713.54306,71.6767578 1713.40569,71.6767578 1713.26832,71.6767578 C1712.99358,71.6767578 1712.78753,71.6767578 1712.65016,71.6767578 C1712.51279,71.6767578 1712.30673,71.6080729 1712.03199,71.4707031 C1712.03199,71.3333333 1712.03199,71.1959635 1712.03199,71.0585938 C1712.30673,71.0585938 1712.51279,71.0585938 1712.65016,71.0585938 C1712.78753,71.1959635 1712.99358,71.2646484 1713.26832,71.2646484 C1713.40569,71.2646484 1713.54306,71.1959635 1713.68043,71.0585938 C1713.8178,71.0585938 1714.02385,71.0585938 1714.29859,71.0585938 C1714.29859,71.0585938 1714.29859,71.1272786 1714.29859,71.2646484 C1714.29859,71.4020182 1714.29859,71.4707031 1714.29859,71.4707031 Z M1701.72926,80.5371094 C1701.59189,80.3997396 1701.5232,80.2623698 1701.5232,80.125 C1701.38583,80.125 1701.31715,80.0563151 1701.31715,79.9189453 C1701.31715,78.4078776 1701.31715,76.5533854 1701.31715,74.3554688 C1701.31715,72.1575521 1701.31715,69.6162109 1701.31715,66.7314453 C1701.31715,66.8688151 1701.24846,66.9375 1701.11109,66.9375 C1700.97372,67.0748698 1700.83635,67.2122396 1700.69898,67.3496094 C1700.69898,67.4869792 1700.6303,67.5556641 1700.49293,67.5556641 C1700.35556,67.5556641 1700.21819,67.5556641 1700.08082,67.5556641 C1700.08082,67.5556641 1700.01214,67.5556641 1699.87477,67.5556641 C1699.7374,67.5556641 1699.60003,67.4869792 1699.46266,67.3496094 C1699.46266,67.3496094 1699.39397,67.2809245 1699.2566,67.1435547 C1699.2566,67.0061849 1699.2566,66.8688151 1699.2566,66.7314453 C1699.2566,66.5940755 1699.2566,66.4567057 1699.2566,66.3193359 C1699.39397,66.3193359 1699.46266,66.250651 1699.46266,66.1132812 C1699.7374,65.8385417 1700.08082,65.5638021 1700.49293,65.2890625 C1700.76767,64.8769531 1701.17978,64.3961589 1701.72926,63.8466797 C1701.72926,63.8466797 1701.79794,63.8466797 1701.93531,63.8466797 C1701.93531,63.8466797 1702.004,63.7779948 1702.14137,63.640625 C1702.14137,63.640625 1702.14137,63.640625 1702.14137,63.640625 C1702.27874,63.640625 1702.34742,63.640625 1702.34742,63.640625 C1702.34742,63.640625 1702.41611,63.640625 1702.55348,63.640625 C1702.55348,63.640625 1702.62216,63.7093099 1702.75953,63.8466797 C1702.75953,63.8466797 1702.82822,63.8466797 1702.96559,63.8466797 C1702.96559,63.9840495 1702.96559,64.0527344 1702.96559,64.0527344 C1703.10296,64.1901042 1703.17164,64.2587891 1703.17164,64.2587891 C1703.17164,64.3961589 1703.17164,64.5335286 1703.17164,64.6708984 C1703.17164,66.3193359 1703.17164,68.4485677 1703.17164,71.0585938 C1703.17164,73.53125 1703.17164,76.4847005 1703.17164,79.9189453 C1703.17164,80.0563151 1703.17164,80.125 1703.17164,80.125 C1703.03427,80.2623698 1702.96559,80.3997396 1702.96559,80.5371094 C1702.82822,80.5371094 1702.69085,80.6057943 1702.55348,80.7431641 C1702.55348,80.7431641 1702.48479,80.7431641 1702.34742,80.7431641 C1702.21005,80.7431641 1702.07268,80.7431641 1701.93531,80.7431641 C1701.79794,80.6057943 1701.72926,80.5371094 1701.72926,80.5371094 Z" transform="translate(-1699.154)"/></svg>