<svg xmlns="http://www.w3.org/2000/svg" width="60" height="243" viewBox="0 0 60 243"><path fill="#131313" d="M22.1022656,158.72168 C22.1022656,130.423503 22.1022656,87.976237 22.1022656,31.3798828 C22.1022656,29.3193359 22.7891146,27.5335286 24.1628125,26.0224609 C25.6738802,24.648763 27.4596875,23.9619141 29.5202344,23.9619141 C31.5807813,23.9619141 33.3665885,24.648763 34.8776563,26.0224609 C36.2513542,27.5335286 36.9382031,29.3193359 36.9382031,31.3798828 C36.9382031,59.6780599 36.9382031,102.125326 36.9382031,158.72168 C36.9382031,160.782227 36.2513542,162.568034 34.8776563,164.079102 C33.3665885,165.452799 31.5807813,166.139648 29.5202344,166.139648 C27.4596875,166.139648 25.6738802,165.452799 24.1628125,164.079102 C22.7891146,162.568034 22.1022656,160.782227 22.1022656,158.72168 Z M12.8776563,35.0888672 C13.1523958,35.0888672 13.3584505,35.1575521 13.4958203,35.2949219 C13.6331901,35.2949219 13.8392448,35.2949219 14.1139844,35.2949219 C14.2513542,35.2949219 14.388724,35.2949219 14.5260938,35.2949219 C14.6634635,35.1575521 14.8695182,35.0888672 15.1442578,35.0888672 C15.1442578,41.133138 15.1442578,50.1308594 15.1442578,62.0820312 C14.5947786,62.0820312 13.8392448,62.0820312 12.8776563,62.0820312 C12.8776563,57.5488281 12.8776563,53.015625 12.8776563,48.4824219 C12.8776563,44.0865885 12.8776563,39.6220703 12.8776563,35.0888672 Z M15.1442578,64.1425781 C15.1442578,63.7304688 15.1442578,63.0436198 15.1442578,62.0820312 C15.5563672,62.0820312 16.1745313,62.0820312 16.99875,62.0820312 C16.311901,64.5546875 15.3503125,68.3323568 14.1139844,73.4150391 C13.4271354,70.9423828 12.396862,67.1647135 11.0231641,62.0820312 C11.4352734,62.0820312 12.0534375,62.0820312 12.8776563,62.0820312 C12.8776563,62.4941406 12.8776563,63.1809896 12.8776563,64.1425781 C13.4271354,64.1425781 14.1826693,64.1425781 15.1442578,64.1425781 Z M12.8776563,64.1425781 C13.4271354,64.1425781 14.1826693,64.1425781 15.1442578,64.1425781 C15.1442578,63.7304688 15.1442578,63.0436198 15.1442578,62.0820312 C14.5947786,62.0820312 13.8392448,62.0820312 12.8776563,62.0820312 C12.8776563,62.4941406 12.8776563,63.1809896 12.8776563,64.1425781 Z M14.1139844,26.2285156 C15.3503125,26.2285156 16.3805859,26.7093099 17.2048047,27.6708984 C18.0290234,28.4951172 18.4411328,29.5253906 18.4411328,30.7617188 C18.4411328,31.8606771 18.1663932,32.7535807 17.6169141,33.4404297 C16.9300651,34.2646484 16.1058464,34.8141276 15.1442578,35.0888672 C15.1442578,34.9514974 15.1442578,34.7454427 15.1442578,34.4707031 C15.9684766,34.3333333 16.6553255,33.921224 17.2048047,33.234375 C17.7542839,32.547526 18.0290234,31.7233073 18.0290234,30.7617188 C18.0290234,29.6627604 17.6169141,28.7011719 16.7926953,27.8769531 C16.1058464,27.1901042 15.2129427,26.8466797 14.1139844,26.8466797 C13.015026,26.8466797 12.0534375,27.1901042 11.2292188,27.8769531 C10.405,28.7011719 9.99289063,29.6627604 9.99289063,30.7617188 C9.99289063,31.7233073 10.2676302,32.547526 10.8171094,33.234375 C11.3665885,33.921224 12.0534375,34.3333333 12.8776563,34.4707031 C12.8776563,34.6080729 12.8776563,34.8141276 12.8776563,35.0888672 C11.9160677,34.8141276 11.1605339,34.2646484 10.6110547,33.4404297 C9.92420573,32.7535807 9.58078125,31.8606771 9.58078125,30.7617188 C9.58078125,29.5253906 9.99289063,28.4951172 10.8171094,27.6708984 C11.6413281,26.7093099 12.7402865,26.2285156 14.1139844,26.2285156 Z M14.1139844,34.6767578 C14.2513542,34.6767578 14.388724,34.6767578 14.5260938,34.6767578 C14.6634635,34.6767578 14.8695182,34.6080729 15.1442578,34.4707031 C15.1442578,34.6080729 15.1442578,34.8141276 15.1442578,35.0888672 C14.8695182,35.0888672 14.6634635,35.1575521 14.5260938,35.2949219 C14.388724,35.2949219 14.2513542,35.2949219 14.1139844,35.2949219 C13.8392448,35.2949219 13.6331901,35.2949219 13.4958203,35.2949219 C13.3584505,35.1575521 13.1523958,35.0888672 12.8776563,35.0888672 C12.8776563,34.9514974 12.8776563,34.7454427 12.8776563,34.4707031 C13.1523958,34.6080729 13.3584505,34.6767578 13.4958203,34.6767578 C13.6331901,34.6767578 13.8392448,34.6767578 14.1139844,34.6767578 Z M10.6110547,30.7617188 C10.6110547,31.4485677 10.8171094,32.1354167 11.2292188,32.8222656 C11.6413281,33.3717448 12.1908073,33.7838542 12.8776563,34.0585938 C12.8776563,34.1959635 12.8776563,34.3333333 12.8776563,34.4707031 C12.0534375,34.3333333 11.3665885,33.921224 10.8171094,33.234375 C10.2676302,32.547526 9.99289063,31.7233073 9.99289063,30.7617188 C9.99289063,29.6627604 10.405,28.7011719 11.2292188,27.8769531 C12.0534375,27.1901042 13.015026,26.8466797 14.1139844,26.8466797 C15.2129427,26.8466797 16.1058464,27.1901042 16.7926953,27.8769531 C17.6169141,28.7011719 18.0290234,29.6627604 18.0290234,30.7617188 C18.0290234,31.7233073 17.7542839,32.547526 17.2048047,33.234375 C16.6553255,33.921224 15.9684766,34.3333333 15.1442578,34.4707031 C15.1442578,34.3333333 15.1442578,34.1959635 15.1442578,34.0585938 C15.8311068,33.7838542 16.3805859,33.3717448 16.7926953,32.8222656 C17.2048047,32.1354167 17.4108594,31.4485677 17.4108594,30.7617188 C17.4108594,29.8001302 17.0674349,28.9759115 16.3805859,28.2890625 C15.693737,27.6022135 14.9382031,27.2587891 14.1139844,27.2587891 C13.1523958,27.2587891 12.3281771,27.6022135 11.6413281,28.2890625 C10.9544792,28.9759115 10.6110547,29.8001302 10.6110547,30.7617188 C10.6110547,30.624349 10.6110547,30.4869792 10.6110547,30.3496094 C10.6110547,30.2122396 10.6110547,30.1435547 10.6110547,30.1435547 C10.6110547,30.1435547 10.6110547,30.2122396 10.6110547,30.3496094 C10.6110547,30.4869792 10.6110547,30.624349 10.6110547,30.7617188 C10.6110547,30.8990885 10.6110547,31.0364583 10.6110547,31.1738281 C10.6110547,31.1738281 10.6110547,31.242513 10.6110547,31.3798828 C10.6110547,31.242513 10.6110547,31.1738281 10.6110547,31.1738281 C10.6110547,31.0364583 10.6110547,30.8990885 10.6110547,30.7617188 Z M15.1442578,34.4707031 C14.8695182,34.6080729 14.6634635,34.6767578 14.5260938,34.6767578 C14.388724,34.6767578 14.2513542,34.6767578 14.1139844,34.6767578 C13.8392448,34.6767578 13.6331901,34.6767578 13.4958203,34.6767578 C13.3584505,34.6767578 13.1523958,34.6080729 12.8776563,34.4707031 C12.8776563,34.3333333 12.8776563,34.1959635 12.8776563,34.0585938 C13.1523958,34.0585938 13.3584505,34.0585938 13.4958203,34.0585938 C13.6331901,34.1959635 13.8392448,34.2646484 14.1139844,34.2646484 C14.2513542,34.2646484 14.388724,34.1959635 14.5260938,34.0585938 C14.6634635,34.0585938 14.8695182,34.0585938 15.1442578,34.0585938 C15.1442578,34.0585938 15.1442578,34.1272786 15.1442578,34.2646484 C15.1442578,34.4020182 15.1442578,34.4707031 15.1442578,34.4707031 Z M2.57492188,43.5371094 C2.43755208,43.3997396 2.36886719,43.2623698 2.36886719,43.125 C2.2314974,43.125 2.1628125,43.0563151 2.1628125,42.9189453 C2.1628125,41.4078776 2.1628125,39.5533854 2.1628125,37.3554688 C2.1628125,35.1575521 2.1628125,32.6162109 2.1628125,29.7314453 C2.1628125,29.8688151 2.0941276,29.9375 1.95675781,29.9375 C1.81938802,30.0748698 1.68201823,30.2122396 1.54464844,30.3496094 C1.54464844,30.4869792 1.47596354,30.5556641 1.33859375,30.5556641 C1.20122396,30.5556641 1.06385417,30.5556641 0.926484375,30.5556641 C0.926484375,30.5556641 0.857799479,30.5556641 0.720429688,30.5556641 C0.583059896,30.5556641 0.445690104,30.4869792 0.308320313,30.3496094 C0.308320313,30.3496094 0.239635417,30.2809245 0.102265625,30.1435547 C0.102265625,30.0061849 0.102265625,29.8688151 0.102265625,29.7314453 C0.102265625,29.5940755 0.102265625,29.4567057 0.102265625,29.3193359 C0.239635417,29.3193359 0.308320313,29.250651 0.308320313,29.1132812 C0.583059896,28.8385417 0.926484375,28.5638021 1.33859375,28.2890625 C1.61333333,27.8769531 2.02544271,27.3961589 2.57492188,26.8466797 C2.57492188,26.8466797 2.64360677,26.8466797 2.78097656,26.8466797 C2.78097656,26.8466797 2.84966146,26.7779948 2.98703125,26.640625 C2.98703125,26.640625 2.98703125,26.640625 2.98703125,26.640625 C3.12440104,26.640625 3.19308594,26.640625 3.19308594,26.640625 C3.19308594,26.640625 3.26177083,26.640625 3.39914063,26.640625 C3.39914063,26.640625 3.46782552,26.7093099 3.60519531,26.8466797 C3.60519531,26.8466797 3.67388021,26.8466797 3.81125,26.8466797 C3.81125,26.9840495 3.81125,27.0527344 3.81125,27.0527344 C3.94861979,27.1901042 4.01730469,27.2587891 4.01730469,27.2587891 C4.01730469,27.3961589 4.01730469,27.5335286 4.01730469,27.6708984 C4.01730469,29.3193359 4.01730469,31.4485677 4.01730469,34.0585938 C4.01730469,36.53125 4.01730469,39.4847005 4.01730469,42.9189453 C4.01730469,43.0563151 4.01730469,43.125 4.01730469,43.125 C3.8799349,43.2623698 3.81125,43.3997396 3.81125,43.5371094 C3.67388021,43.5371094 3.53651042,43.6057943 3.39914063,43.7431641 C3.39914063,43.7431641 3.33045573,43.7431641 3.19308594,43.7431641 C3.05571615,43.7431641 2.91834635,43.7431641 2.78097656,43.7431641 C2.64360677,43.6057943 2.57492188,43.5371094 2.57492188,43.5371094 Z"/></svg>