<svg xmlns="http://www.w3.org/2000/svg" width="60" height="203" viewBox="0 0 60 203"><path fill="#131313" d="M1721.2566,158.456055 C1721.2566,130.157878 1721.2566,87.710612 1721.2566,31.1142578 C1721.2566,29.0537109 1721.94345,27.2679036 1723.31715,25.7568359 C1724.82822,24.383138 1726.61402,23.6962891 1728.67457,23.6962891 C1730.73512,23.6962891 1732.52092,24.383138 1734.03199,25.7568359 C1735.40569,27.2679036 1736.09254,29.0537109 1736.09254,31.1142578 C1736.09254,59.4124349 1736.09254,101.859701 1736.09254,158.456055 C1736.09254,160.516602 1735.40569,162.302409 1734.03199,163.813477 C1732.52092,165.187174 1730.73512,165.874023 1728.67457,165.874023 C1726.61402,165.874023 1724.82822,165.187174 1723.31715,163.813477 C1721.94345,162.302409 1721.2566,160.516602 1721.2566,158.456055 Z M1712.03199,34.8232422 C1712.30673,34.8232422 1712.51279,34.8919271 1712.65016,35.0292969 C1712.78753,35.0292969 1712.99358,35.0292969 1713.26832,35.0292969 C1713.40569,35.0292969 1713.54306,35.0292969 1713.68043,35.0292969 C1713.8178,34.8919271 1714.02385,34.8232422 1714.29859,34.8232422 C1714.29859,40.867513 1714.29859,49.8652344 1714.29859,61.8164062 C1713.74911,61.8164062 1712.99358,61.8164062 1712.03199,61.8164062 C1712.03199,57.2832031 1712.03199,52.75 1712.03199,48.2167969 C1712.03199,43.8209635 1712.03199,39.3564453 1712.03199,34.8232422 Z M1714.29859,63.8769531 C1714.29859,63.4648437 1714.29859,62.7779948 1714.29859,61.8164062 C1714.7107,61.8164062 1715.32887,61.8164062 1716.15309,61.8164062 C1715.46624,64.2890625 1714.50465,68.0667318 1713.26832,73.1494141 C1712.58147,70.6767578 1711.5512,66.8990885 1710.1775,61.8164062 C1710.58961,61.8164062 1711.20777,61.8164062 1712.03199,61.8164062 C1712.03199,62.2285156 1712.03199,62.9153646 1712.03199,63.8769531 C1712.58147,63.8769531 1713.33701,63.8769531 1714.29859,63.8769531 Z M1712.03199,63.8769531 C1712.58147,63.8769531 1713.33701,63.8769531 1714.29859,63.8769531 C1714.29859,63.4648438 1714.29859,62.7779948 1714.29859,61.8164062 C1713.74911,61.8164062 1712.99358,61.8164062 1712.03199,61.8164062 C1712.03199,62.2285156 1712.03199,62.9153646 1712.03199,63.8769531 Z M1713.26832,25.9628906 C1714.50465,25.9628906 1715.53492,26.4436849 1716.35914,27.4052734 C1717.18336,28.2294922 1717.59547,29.2597656 1717.59547,30.4960938 C1717.59547,31.5950521 1717.32073,32.4879557 1716.77125,33.1748047 C1716.0844,33.9990234 1715.26018,34.5485026 1714.29859,34.8232422 C1714.29859,34.6858724 1714.29859,34.4798177 1714.29859,34.2050781 C1715.12281,34.0677083 1715.80966,33.655599 1716.35914,32.96875 C1716.90862,32.281901 1717.18336,31.4576823 1717.18336,30.4960938 C1717.18336,29.3971354 1716.77125,28.4355469 1715.94703,27.6113281 C1715.26018,26.9244792 1714.36728,26.5810547 1713.26832,26.5810547 C1712.16936,26.5810547 1711.20777,26.9244792 1710.38355,27.6113281 C1709.55934,28.4355469 1709.14723,29.3971354 1709.14723,30.4960938 C1709.14723,31.4576823 1709.42197,32.281901 1709.97145,32.96875 C1710.52092,33.655599 1711.20777,34.0677083 1712.03199,34.2050781 C1712.03199,34.3424479 1712.03199,34.5485026 1712.03199,34.8232422 C1711.0704,34.5485026 1710.31487,33.9990234 1709.76539,33.1748047 C1709.07854,32.4879557 1708.73512,31.5950521 1708.73512,30.4960938 C1708.73512,29.2597656 1709.14723,28.2294922 1709.97145,27.4052734 C1710.79566,26.4436849 1711.89462,25.9628906 1713.26832,25.9628906 Z M1713.26832,34.4111328 C1713.40569,34.4111328 1713.54306,34.4111328 1713.68043,34.4111328 C1713.8178,34.4111328 1714.02385,34.3424479 1714.29859,34.2050781 C1714.29859,34.3424479 1714.29859,34.5485026 1714.29859,34.8232422 C1714.02385,34.8232422 1713.8178,34.8919271 1713.68043,35.0292969 C1713.54306,35.0292969 1713.40569,35.0292969 1713.26832,35.0292969 C1712.99358,35.0292969 1712.78753,35.0292969 1712.65016,35.0292969 C1712.51279,34.8919271 1712.30673,34.8232422 1712.03199,34.8232422 C1712.03199,34.6858724 1712.03199,34.4798177 1712.03199,34.2050781 C1712.30673,34.3424479 1712.51279,34.4111328 1712.65016,34.4111328 C1712.78753,34.4111328 1712.99358,34.4111328 1713.26832,34.4111328 Z M1709.76539,30.4960938 C1709.76539,31.1829427 1709.97145,31.8697917 1710.38355,32.5566406 C1710.79566,33.1061198 1711.34514,33.5182292 1712.03199,33.7929688 C1712.03199,33.9303385 1712.03199,34.0677083 1712.03199,34.2050781 C1711.20777,34.0677083 1710.52092,33.655599 1709.97145,32.96875 C1709.42197,32.281901 1709.14723,31.4576823 1709.14723,30.4960938 C1709.14723,29.3971354 1709.55934,28.4355469 1710.38355,27.6113281 C1711.20777,26.9244792 1712.16936,26.5810547 1713.26832,26.5810547 C1714.36728,26.5810547 1715.26018,26.9244792 1715.94703,27.6113281 C1716.77125,28.4355469 1717.18336,29.3971354 1717.18336,30.4960938 C1717.18336,31.4576823 1716.90862,32.281901 1716.35914,32.96875 C1715.80966,33.655599 1715.12281,34.0677083 1714.29859,34.2050781 C1714.29859,34.0677083 1714.29859,33.9303385 1714.29859,33.7929688 C1714.98544,33.5182292 1715.53492,33.1061198 1715.94703,32.5566406 C1716.35914,31.8697917 1716.5652,31.1829427 1716.5652,30.4960938 C1716.5652,29.5345052 1716.22177,28.7102865 1715.53492,28.0234375 C1714.84807,27.3365885 1714.09254,26.9931641 1713.26832,26.9931641 C1712.30673,26.9931641 1711.48251,27.3365885 1710.79566,28.0234375 C1710.10882,28.7102865 1709.76539,29.5345052 1709.76539,30.4960938 C1709.76539,30.358724 1709.76539,30.2213542 1709.76539,30.0839844 C1709.76539,29.9466146 1709.76539,29.8779297 1709.76539,29.8779297 C1709.76539,29.8779297 1709.76539,29.9466146 1709.76539,30.0839844 C1709.76539,30.2213542 1709.76539,30.358724 1709.76539,30.4960938 C1709.76539,30.6334635 1709.76539,30.7708333 1709.76539,30.9082031 C1709.76539,30.9082031 1709.76539,30.976888 1709.76539,31.1142578 C1709.76539,30.976888 1709.76539,30.9082031 1709.76539,30.9082031 C1709.76539,30.7708333 1709.76539,30.6334635 1709.76539,30.4960938 Z M1714.29859,34.2050781 C1714.02385,34.3424479 1713.8178,34.4111328 1713.68043,34.4111328 C1713.54306,34.4111328 1713.40569,34.4111328 1713.26832,34.4111328 C1712.99358,34.4111328 1712.78753,34.4111328 1712.65016,34.4111328 C1712.51279,34.4111328 1712.30673,34.3424479 1712.03199,34.2050781 C1712.03199,34.0677083 1712.03199,33.9303385 1712.03199,33.7929688 C1712.30673,33.7929688 1712.51279,33.7929688 1712.65016,33.7929688 C1712.78753,33.9303385 1712.99358,33.9990234 1713.26832,33.9990234 C1713.40569,33.9990234 1713.54306,33.9303385 1713.68043,33.7929688 C1713.8178,33.7929688 1714.02385,33.7929688 1714.29859,33.7929688 C1714.29859,33.7929688 1714.29859,33.8616536 1714.29859,33.9990234 C1714.29859,34.1363932 1714.29859,34.2050781 1714.29859,34.2050781 Z M1701.72926,43.2714844 C1701.59189,43.1341146 1701.5232,42.9967448 1701.5232,42.859375 C1701.38583,42.859375 1701.31715,42.7906901 1701.31715,42.6533203 C1701.31715,41.1422526 1701.31715,39.2877604 1701.31715,37.0898438 C1701.31715,34.8919271 1701.31715,32.3505859 1701.31715,29.4658203 C1701.31715,29.6031901 1701.24846,29.671875 1701.11109,29.671875 C1700.97372,29.8092448 1700.83635,29.9466146 1700.69898,30.0839844 C1700.69898,30.2213542 1700.6303,30.2900391 1700.49293,30.2900391 C1700.35556,30.2900391 1700.21819,30.2900391 1700.08082,30.2900391 C1700.08082,30.2900391 1700.01214,30.2900391 1699.87477,30.2900391 C1699.7374,30.2900391 1699.60003,30.2213542 1699.46266,30.0839844 C1699.46266,30.0839844 1699.39397,30.0152995 1699.2566,29.8779297 C1699.2566,29.7405599 1699.2566,29.6031901 1699.2566,29.4658203 C1699.2566,29.3284505 1699.2566,29.1910807 1699.2566,29.0537109 C1699.39397,29.0537109 1699.46266,28.985026 1699.46266,28.8476562 C1699.7374,28.5729167 1700.08082,28.2981771 1700.49293,28.0234375 C1700.76767,27.6113281 1701.17978,27.1305339 1701.72926,26.5810547 C1701.72926,26.5810547 1701.79794,26.5810547 1701.93531,26.5810547 C1701.93531,26.5810547 1702.004,26.5123698 1702.14137,26.375 C1702.14137,26.375 1702.14137,26.375 1702.14137,26.375 C1702.27874,26.375 1702.34742,26.375 1702.34742,26.375 C1702.34742,26.375 1702.41611,26.375 1702.55348,26.375 C1702.55348,26.375 1702.62216,26.4436849 1702.75953,26.5810547 C1702.75953,26.5810547 1702.82822,26.5810547 1702.96559,26.5810547 C1702.96559,26.7184245 1702.96559,26.7871094 1702.96559,26.7871094 C1703.10296,26.9244792 1703.17164,26.9931641 1703.17164,26.9931641 C1703.17164,27.1305339 1703.17164,27.2679036 1703.17164,27.4052734 C1703.17164,29.0537109 1703.17164,31.1829427 1703.17164,33.7929688 C1703.17164,36.265625 1703.17164,39.2190755 1703.17164,42.6533203 C1703.17164,42.7906901 1703.17164,42.859375 1703.17164,42.859375 C1703.03427,42.9967448 1702.96559,43.1341146 1702.96559,43.2714844 C1702.82822,43.2714844 1702.69085,43.3401693 1702.55348,43.4775391 C1702.55348,43.4775391 1702.48479,43.4775391 1702.34742,43.4775391 C1702.21005,43.4775391 1702.07268,43.4775391 1701.93531,43.4775391 C1701.79794,43.3401693 1701.72926,43.2714844 1701.72926,43.2714844 Z" transform="translate(-1699.154 -23.734)"/></svg>