<svg xmlns="http://www.w3.org/2000/svg" width="43" height="203" viewBox="0 0 43 203"><path fill="#131313" d="M1987,145.490234 C1987,130.067057 1987,106.932292 1987,76.0859375 C1987,73.8398438 1987.82357,71.8932292 1989.4707,70.2460938 C1990.9681,68.7486979 1992.83984,68 1995.08594,68 C1997.33203,68 1999.27865,68.7486979 2000.92578,70.2460938 C2002.57292,71.8932292 2003.39648,73.8398438 2003.39648,76.0859375 C2003.39648,91.5091146 2003.39648,114.64388 2003.39648,145.490234 C2003.39648,147.736328 2002.57292,149.682943 2000.92578,151.330078 C1999.27865,152.827474 1997.33203,153.576172 1995.08594,153.576172 C1992.83984,153.576172 1990.9681,152.827474 1989.4707,151.330078 C1987.82357,149.682943 1987,147.736328 1987,145.490234 Z M1995.08594,53.171875 C1992.98958,53.171875 1991.11784,52.3483073 1989.4707,50.7011719 C1987.82357,49.203776 1987,47.3320312 1987,45.0859375 C1987,42.8398438 1987.82357,40.8932292 1989.4707,39.2460938 C1991.11784,37.7486979 1992.98958,37 1995.08594,37 C1997.33203,37 1999.27865,37.7486979 2000.92578,39.2460938 C2002.57292,40.8932292 2003.39648,42.8398438 2003.39648,45.0859375 C2003.39648,47.3320312 2002.57292,49.203776 2000.92578,50.7011719 C1999.27865,52.3483073 1997.33203,53.171875 1995.08594,53.171875 Z M1973.49805,81.4355469 C1973.79753,81.4355469 1974.02214,81.4355469 1974.17187,81.4355469 C1974.32161,81.4355469 1974.54622,81.4355469 1974.8457,81.4355469 C1974.99544,81.4355469 1975.14518,81.4355469 1975.29492,81.4355469 C1975.44466,81.4355469 1975.66927,81.4355469 1975.96875,81.4355469 C1975.96875,91.9173177 1975.96875,107.639974 1975.96875,128.603516 C1975.36979,128.603516 1974.54622,128.603516 1973.49805,128.603516 C1973.49805,120.817057 1973.49805,112.955729 1973.49805,105.019531 C1973.49805,97.0833333 1973.49805,89.2220052 1973.49805,81.4355469 Z M1973.49805,130.849609 C1973.49805,130.400391 1973.49805,129.651693 1973.49805,128.603516 C1973.04883,128.603516 1972.375,128.603516 1971.47656,128.603516 C1972.22526,131.448568 1973.34831,135.641276 1974.8457,141.181641 C1975.5944,138.336589 1976.64258,134.14388 1977.99023,128.603516 C1977.54102,128.603516 1976.86719,128.603516 1975.96875,128.603516 C1975.96875,129.202474 1975.96875,129.951172 1975.96875,130.849609 C1975.36979,130.849609 1974.54622,130.849609 1973.49805,130.849609 Z M1973.49805,130.849609 C1974.09701,130.849609 1974.92057,130.849609 1975.96875,130.849609 C1975.96875,130.400391 1975.96875,129.651693 1975.96875,128.603516 C1975.36979,128.603516 1974.54622,128.603516 1973.49805,128.603516 C1973.49805,129.202474 1973.49805,129.951172 1973.49805,130.849609 Z M1974.8457,71.7773438 C1976.19336,71.7773438 1977.31641,72.2265625 1978.21484,73.125 C1979.11328,74.0234375 1979.5625,75.1464844 1979.5625,76.4941406 C1979.5625,77.6920573 1979.26302,78.7402344 1978.66406,79.6386719 C1977.91536,80.5371094 1977.01693,81.1360677 1975.96875,81.4355469 C1975.96875,81.2858073 1975.96875,81.0611979 1975.96875,80.7617188 C1976.86719,80.4622396 1977.61589,79.938151 1978.21484,79.1894531 C1978.8138,78.4407552 1979.11328,77.5423177 1979.11328,76.4941406 C1979.11328,75.296224 1978.66406,74.3229167 1977.76562,73.5742188 C1977.01693,72.6757812 1976.04362,72.2265625 1974.8457,72.2265625 C1973.64779,72.2265625 1972.59961,72.6757812 1971.70117,73.5742188 C1970.80273,74.3229167 1970.35352,75.296224 1970.35352,76.4941406 C1970.35352,77.5423177 1970.65299,78.4407552 1971.25195,79.1894531 C1971.85091,79.938151 1972.59961,80.4622396 1973.49805,80.7617188 C1973.49805,80.9114583 1973.49805,81.1360677 1973.49805,81.4355469 C1972.44987,81.1360677 1971.6263,80.5371094 1971.02734,79.6386719 C1970.27865,78.7402344 1969.9043,77.6920573 1969.9043,76.4941406 C1969.9043,75.1464844 1970.35352,74.0234375 1971.25195,73.125 C1972.30013,72.2265625 1973.49805,71.7773438 1974.8457,71.7773438 Z M1974.8457,80.9863281 C1974.99544,80.9863281 1975.14518,80.9114583 1975.29492,80.7617188 C1975.44466,80.7617188 1975.66927,80.7617188 1975.96875,80.7617188 C1975.96875,80.9114583 1975.96875,81.1360677 1975.96875,81.4355469 C1975.66927,81.4355469 1975.44466,81.4355469 1975.29492,81.4355469 C1975.14518,81.4355469 1974.99544,81.4355469 1974.8457,81.4355469 C1974.54622,81.4355469 1974.32161,81.4355469 1974.17187,81.4355469 C1974.02214,81.4355469 1973.79753,81.4355469 1973.49805,81.4355469 C1973.49805,81.2858073 1973.49805,81.0611979 1973.49805,80.7617188 C1973.79753,80.7617188 1974.02214,80.7617188 1974.17187,80.7617188 C1974.32161,80.9114583 1974.54622,80.9863281 1974.8457,80.9863281 Z M1971.02734,76.4941406 C1971.02734,77.3925781 1971.25195,78.141276 1971.70117,78.7402344 C1972.15039,79.4889323 1972.74935,79.938151 1973.49805,80.0878906 C1973.49805,80.2376302 1973.49805,80.4622396 1973.49805,80.7617188 C1972.59961,80.4622396 1971.85091,79.938151 1971.25195,79.1894531 C1970.65299,78.4407552 1970.35352,77.5423177 1970.35352,76.4941406 C1970.35352,75.296224 1970.80273,74.3229167 1971.70117,73.5742188 C1972.59961,72.6757812 1973.64779,72.2265625 1974.8457,72.2265625 C1976.04362,72.2265625 1977.01693,72.6757812 1977.76562,73.5742188 C1978.66406,74.3229167 1979.11328,75.296224 1979.11328,76.4941406 C1979.11328,77.5423177 1978.8138,78.4407552 1978.21484,79.1894531 C1977.61589,79.938151 1976.86719,80.4622396 1975.96875,80.7617188 C1975.96875,80.6119792 1975.96875,80.3873698 1975.96875,80.0878906 C1976.71745,79.938151 1977.31641,79.4889323 1977.76562,78.7402344 C1978.21484,78.141276 1978.43945,77.3925781 1978.43945,76.4941406 C1978.43945,75.5957031 1978.0651,74.7721354 1977.31641,74.0234375 C1976.56771,73.2747396 1975.74414,72.9003906 1974.8457,72.9003906 C1973.79753,72.9003906 1972.89909,73.2747396 1972.15039,74.0234375 C1971.40169,74.7721354 1971.02734,75.5957031 1971.02734,76.4941406 C1971.02734,76.344401 1971.02734,76.1946615 1971.02734,76.0449219 C1971.02734,76.0449219 1971.02734,76.0449219 1971.02734,76.0449219 C1971.02734,76.0449219 1971.02734,76.0449219 1971.02734,76.0449219 C1971.02734,76.1946615 1971.02734,76.344401 1971.02734,76.4941406 C1971.02734,76.7936198 1971.02734,76.9433594 1971.02734,76.9433594 C1971.02734,77.093099 1971.02734,77.1679688 1971.02734,77.1679688 C1971.02734,77.1679688 1971.02734,77.093099 1971.02734,76.9433594 C1971.02734,76.9433594 1971.02734,76.7936198 1971.02734,76.4941406 Z M1975.96875,80.7617188 C1975.66927,80.7617188 1975.44466,80.8365885 1975.29492,80.9863281 C1975.14518,80.9863281 1974.99544,80.9863281 1974.8457,80.9863281 C1974.54622,80.9863281 1974.32161,80.9863281 1974.17187,80.9863281 C1974.02214,80.8365885 1973.79753,80.7617188 1973.49805,80.7617188 C1973.49805,80.6119792 1973.49805,80.3873698 1973.49805,80.0878906 C1973.79753,80.2376302 1974.02214,80.3125 1974.17187,80.3125 C1974.32161,80.3125 1974.54622,80.3125 1974.8457,80.3125 C1974.99544,80.3125 1975.14518,80.3125 1975.29492,80.3125 C1975.44466,80.3125 1975.66927,80.2376302 1975.96875,80.0878906 C1975.96875,80.2376302 1975.96875,80.3873698 1975.96875,80.5371094 C1975.96875,80.5371094 1975.96875,80.6119792 1975.96875,80.7617188 Z M1961.59375,79.4140625 C1961.74349,79.5638021 1961.81836,79.6386719 1961.81836,79.6386719 C1961.9681,79.6386719 1962.04297,79.7135417 1962.04297,79.8632812 C1962.19271,79.8632812 1962.26758,79.938151 1962.26758,80.0878906 C1962.26758,80.2376302 1962.26758,80.3125 1962.26758,80.3125 C1962.26758,82.2591146 1962.26758,84.5800781 1962.26758,87.2753906 C1962.26758,90.1204427 1962.26758,93.3398438 1962.26758,96.9335938 C1962.26758,97.0833333 1962.26758,97.2330729 1962.26758,97.3828125 C1962.11784,97.5325521 1962.04297,97.6822917 1962.04297,97.8320312 C1961.89323,97.8320312 1961.74349,97.8320312 1961.59375,97.8320312 C1961.44401,97.9817708 1961.36914,98.0566406 1961.36914,98.0566406 C1961.2194,98.0566406 1961.06966,97.9817708 1960.91992,97.8320312 C1960.77018,97.8320312 1960.62044,97.8320312 1960.4707,97.8320312 C1960.4707,97.6822917 1960.4707,97.5325521 1960.4707,97.3828125 C1960.32096,97.2330729 1960.24609,97.0833333 1960.24609,96.9335938 C1960.24609,95.4361979 1960.24609,93.4895833 1960.24609,91.09375 C1960.24609,88.6979167 1960.24609,85.9277344 1960.24609,82.7832031 C1960.24609,82.7832031 1960.17122,82.8580729 1960.02148,83.0078125 C1959.87174,83.1575521 1959.72201,83.3072917 1959.57227,83.4570312 C1959.57227,83.4570312 1959.4974,83.531901 1959.34766,83.6816406 C1959.19792,83.6816406 1959.04818,83.6816406 1958.89844,83.6816406 C1958.7487,83.6816406 1958.67383,83.6816406 1958.67383,83.6816406 C1958.52409,83.531901 1958.37435,83.4570312 1958.22461,83.4570312 C1958.07487,83.3072917 1958,83.1575521 1958,83.0078125 C1958,83.0078125 1958,82.9329427 1958,82.7832031 C1958,82.6334635 1958,82.483724 1958,82.3339844 C1958,82.1842448 1958.07487,82.109375 1958.22461,82.109375 C1958.52409,81.8098958 1958.89844,81.4355469 1959.34766,80.9863281 C1959.64714,80.686849 1960.09635,80.2376302 1960.69531,79.6386719 C1960.69531,79.6386719 1960.77018,79.5638021 1960.91992,79.4140625 C1960.91992,79.4140625 1960.99479,79.4140625 1961.14453,79.4140625 C1961.14453,79.4140625 1961.14453,79.4140625 1961.14453,79.4140625 C1961.29427,79.4140625 1961.36914,79.4140625 1961.36914,79.4140625 C1961.36914,79.4140625 1961.44401,79.4140625 1961.59375,79.4140625 C1961.59375,79.4140625 1961.59375,79.4140625 1961.59375,79.4140625 Z M1975.74414,48.6425781 C1974.99544,48.6425781 1974.24674,48.6425781 1973.49805,48.6425781 C1972.59961,48.6425781 1971.77604,48.6425781 1971.02734,48.6425781 C1970.27865,48.6425781 1969.52995,48.6425781 1968.78125,48.6425781 C1967.88281,48.6425781 1967.05924,48.6425781 1966.31055,48.6425781 C1966.31055,48.6425781 1966.23568,48.6425781 1966.08594,48.6425781 C1966.08594,48.6425781 1966.01107,48.5677083 1965.86133,48.4179688 C1965.86133,48.4179688 1965.86133,48.4179688 1965.86133,48.4179688 C1965.71159,48.4179688 1965.63672,48.343099 1965.63672,48.1933594 C1965.63672,48.1933594 1965.56185,48.1933594 1965.41211,48.1933594 C1965.41211,48.0436198 1965.41211,47.96875 1965.41211,47.96875 C1965.41211,47.96875 1965.41211,47.8938802 1965.41211,47.7441406 C1965.41211,47.7441406 1965.41211,47.6692708 1965.41211,47.5195312 C1965.41211,47.5195312 1965.41211,47.5195312 1965.41211,47.5195312 C1965.41211,47.5195312 1965.41211,47.5195312 1965.41211,47.5195312 C1965.41211,47.5195312 1965.41211,47.3697917 1965.41211,47.0703125 C1965.56185,46.9205729 1965.63672,46.6210938 1965.63672,46.171875 C1965.78646,45.7226563 1965.9362,45.1985677 1966.08594,44.5996094 C1966.38542,44.1503906 1966.6849,43.6263021 1966.98437,43.0273438 C1967.28385,42.7278646 1967.50846,42.4283854 1967.6582,42.1289062 C1967.95768,41.8294271 1968.25716,41.5299479 1968.55664,41.2304688 C1968.85612,40.9309896 1969.1556,40.6315104 1969.45508,40.3320313 C1969.75456,40.0325521 1970.12891,39.8079427 1970.57812,39.6582031 C1971.47656,39.0592448 1972.15039,38.5351562 1972.59961,38.0859375 C1973.19857,37.6367187 1973.57292,37.1875 1973.72266,36.7382812 C1974.02214,36.4388021 1974.24674,36.1393229 1974.39648,35.8398438 C1974.39648,35.390625 1974.39648,35.016276 1974.39648,34.7167969 C1974.39648,34.7167969 1974.39648,34.6419271 1974.39648,34.4921875 C1974.39648,34.3424479 1974.39648,34.2675781 1974.39648,34.2675781 C1974.39648,34.1178385 1974.39648,33.968099 1974.39648,33.8183594 C1974.39648,33.6686198 1974.32161,33.59375 1974.17187,33.59375 C1974.17187,33.2942708 1974.09701,33.0696615 1973.94727,32.9199219 C1973.64779,32.7701823 1973.42318,32.6204427 1973.27344,32.4707031 C1972.97396,32.3209635 1972.67448,32.171224 1972.375,32.0214844 C1971.92578,32.0214844 1971.47656,32.0214844 1971.02734,32.0214844 C1970.72786,32.0214844 1970.42839,32.0214844 1970.12891,32.0214844 C1969.67969,32.171224 1969.38021,32.3209635 1969.23047,32.4707031 C1968.93099,32.6204427 1968.70638,32.7701823 1968.55664,32.9199219 C1968.25716,33.219401 1968.03255,33.5188802 1967.88281,33.8183594 C1967.88281,33.968099 1967.80794,34.0429688 1967.6582,34.0429688 C1967.6582,34.1927083 1967.58333,34.2675781 1967.43359,34.2675781 C1967.28385,34.4173177 1967.13411,34.4173177 1966.98437,34.2675781 C1966.83464,34.2675781 1966.75977,34.2675781 1966.75977,34.2675781 C1966.61003,34.2675781 1966.46029,34.1927083 1966.31055,34.0429688 C1966.31055,33.8932292 1966.23568,33.8183594 1966.08594,33.8183594 C1966.08594,33.6686198 1966.08594,33.5188802 1966.08594,33.3691406 C1966.08594,33.219401 1966.08594,33.0696615 1966.08594,32.9199219 C1966.38542,32.4707031 1966.6849,32.0214844 1966.98437,31.5722656 C1967.28385,31.2727865 1967.6582,30.9733073 1968.10742,30.6738281 C1968.55664,30.5240885 1969.00586,30.374349 1969.45508,30.2246094 C1969.9043,30.0748698 1970.42839,30 1971.02734,30 C1972.07552,30 1972.89909,30.1497396 1973.49805,30.4492188 C1974.24674,30.5989583 1974.8457,30.9733073 1975.29492,31.5722656 C1975.5944,32.0214844 1975.89388,32.5455729 1976.19336,33.1445313 C1976.3431,33.7434896 1976.41797,34.2675781 1976.41797,34.7167969 C1976.41797,35.3157552 1976.3431,35.9147135 1976.19336,36.5136719 C1976.04362,37.1126302 1975.74414,37.6367187 1975.29492,38.0859375 C1974.99544,38.6848958 1974.54622,39.2089844 1973.94727,39.6582031 C1973.34831,40.2571615 1972.59961,40.78125 1971.70117,41.2304688 C1971.10221,41.6796875 1970.50326,42.1289062 1969.9043,42.578125 C1969.45508,43.0273438 1969.08073,43.5514323 1968.78125,44.1503906 C1968.48177,44.5996094 1968.25716,45.0488281 1968.10742,45.4980469 C1967.80794,45.9472656 1967.6582,46.3216146 1967.6582,46.6210938 C1968.55664,46.6210938 1969.67969,46.6210938 1971.02734,46.6210938 C1972.375,46.6210938 1973.94727,46.6210938 1975.74414,46.6210938 C1975.89388,46.6210938 1976.04362,46.6210938 1976.19336,46.6210938 C1976.19336,46.7708333 1976.26823,46.8457031 1976.41797,46.8457031 C1976.56771,46.9954427 1976.64258,47.1451823 1976.64258,47.2949219 C1976.64258,47.4446615 1976.64258,47.5195312 1976.64258,47.5195312 C1976.64258,47.6692708 1976.64258,47.8190104 1976.64258,47.96875 C1976.64258,48.1184896 1976.56771,48.2682292 1976.41797,48.4179688 C1976.26823,48.4179688 1976.19336,48.4179688 1976.19336,48.4179688 C1976.04362,48.5677083 1975.89388,48.6425781 1975.74414,48.6425781 Z" transform="translate(-1974 -12)"/></svg>