<svg xmlns="http://www.w3.org/2000/svg" width="43" height="243" viewBox="0 0 43 243"><path fill="#131313" d="M29,157.490234 C29,142.067057 29,118.932292 29,88.0859375 C29,85.8398438 29.8235677,83.8932292 31.4707031,82.2460938 C32.968099,80.7486979 34.8398438,80 37.0859375,80 C39.3320312,80 41.2786458,80.7486979 42.9257812,82.2460938 C44.5729167,83.8932292 45.3964844,85.8398438 45.3964844,88.0859375 C45.3964844,103.509115 45.3964844,126.64388 45.3964844,157.490234 C45.3964844,159.736328 44.5729167,161.682943 42.9257812,163.330078 C41.2786458,164.827474 39.3320312,165.576172 37.0859375,165.576172 C34.8398438,165.576172 32.968099,164.827474 31.4707031,163.330078 C29.8235677,161.682943 29,159.736328 29,157.490234 Z M37.0859375,65.171875 C34.9895833,65.171875 33.1178385,64.3483073 31.4707031,62.7011719 C29.8235677,61.203776 29,59.3320312 29,57.0859375 C29,54.8398438 29.8235677,52.8932292 31.4707031,51.2460938 C33.1178385,49.7486979 34.9895833,49 37.0859375,49 C39.3320312,49 41.2786458,49.7486979 42.9257812,51.2460938 C44.5729167,52.8932292 45.3964844,54.8398438 45.3964844,57.0859375 C45.3964844,59.3320312 44.5729167,61.203776 42.9257812,62.7011719 C41.2786458,64.3483073 39.3320312,65.171875 37.0859375,65.171875 Z M15.4980469,93.4355469 C15.797526,93.4355469 16.0221354,93.4355469 16.171875,93.4355469 C16.3216146,93.4355469 16.546224,93.4355469 16.8457031,93.4355469 C16.9954427,93.4355469 17.1451823,93.4355469 17.2949219,93.4355469 C17.4446615,93.4355469 17.6692708,93.4355469 17.96875,93.4355469 C17.96875,103.917318 17.96875,119.639974 17.96875,140.603516 C17.3697917,140.603516 16.546224,140.603516 15.4980469,140.603516 C15.4980469,132.817057 15.4980469,124.955729 15.4980469,117.019531 C15.4980469,109.083333 15.4980469,101.222005 15.4980469,93.4355469 Z M15.4980469,142.849609 C15.4980469,142.400391 15.4980469,141.651693 15.4980469,140.603516 C15.0488281,140.603516 14.375,140.603516 13.4765625,140.603516 C14.2252604,143.448568 15.3483073,147.641276 16.8457031,153.181641 C17.594401,150.336589 18.6425781,146.14388 19.9902344,140.603516 C19.5410156,140.603516 18.8671875,140.603516 17.96875,140.603516 C17.96875,141.202474 17.96875,141.951172 17.96875,142.849609 C17.3697917,142.849609 16.546224,142.849609 15.4980469,142.849609 Z M15.4980469,142.849609 C16.0970052,142.849609 16.9205729,142.849609 17.96875,142.849609 C17.96875,142.400391 17.96875,141.651693 17.96875,140.603516 C17.3697917,140.603516 16.546224,140.603516 15.4980469,140.603516 C15.4980469,141.202474 15.4980469,141.951172 15.4980469,142.849609 Z M16.8457031,83.7773438 C18.1933594,83.7773438 19.3164062,84.2265625 20.2148438,85.125 C21.1132812,86.0234375 21.5625,87.1464844 21.5625,88.4941406 C21.5625,89.6920573 21.2630208,90.7402344 20.6640625,91.6386719 C19.9153646,92.5371094 19.0169271,93.1360677 17.96875,93.4355469 C17.96875,93.2858073 17.96875,93.0611979 17.96875,92.7617188 C18.8671875,92.4622396 19.6158854,91.938151 20.2148438,91.1894531 C20.8138021,90.4407552 21.1132812,89.5423177 21.1132812,88.4941406 C21.1132812,87.296224 20.6640625,86.3229167 19.765625,85.5742188 C19.0169271,84.6757812 18.0436198,84.2265625 16.8457031,84.2265625 C15.6477865,84.2265625 14.5996094,84.6757812 13.7011719,85.5742188 C12.8027344,86.3229167 12.3535156,87.296224 12.3535156,88.4941406 C12.3535156,89.5423177 12.6529948,90.4407552 13.2519531,91.1894531 C13.8509115,91.938151 14.5996094,92.4622396 15.4980469,92.7617188 C15.4980469,92.9114583 15.4980469,93.1360677 15.4980469,93.4355469 C14.4498698,93.1360677 13.6263021,92.5371094 13.0273438,91.6386719 C12.2786458,90.7402344 11.9042969,89.6920573 11.9042969,88.4941406 C11.9042969,87.1464844 12.3535156,86.0234375 13.2519531,85.125 C14.3001302,84.2265625 15.4980469,83.7773438 16.8457031,83.7773438 Z M16.8457031,92.9863281 C16.9954427,92.9863281 17.1451823,92.9114583 17.2949219,92.7617188 C17.4446615,92.7617188 17.6692708,92.7617188 17.96875,92.7617188 C17.96875,92.9114583 17.96875,93.1360677 17.96875,93.4355469 C17.6692708,93.4355469 17.4446615,93.4355469 17.2949219,93.4355469 C17.1451823,93.4355469 16.9954427,93.4355469 16.8457031,93.4355469 C16.546224,93.4355469 16.3216146,93.4355469 16.171875,93.4355469 C16.0221354,93.4355469 15.797526,93.4355469 15.4980469,93.4355469 C15.4980469,93.2858073 15.4980469,93.0611979 15.4980469,92.7617188 C15.797526,92.7617188 16.0221354,92.7617188 16.171875,92.7617188 C16.3216146,92.9114583 16.546224,92.9863281 16.8457031,92.9863281 Z M13.0273438,88.4941406 C13.0273438,89.3925781 13.2519531,90.141276 13.7011719,90.7402344 C14.1503906,91.4889323 14.749349,91.938151 15.4980469,92.0878906 C15.4980469,92.2376302 15.4980469,92.4622396 15.4980469,92.7617188 C14.5996094,92.4622396 13.8509115,91.938151 13.2519531,91.1894531 C12.6529948,90.4407552 12.3535156,89.5423177 12.3535156,88.4941406 C12.3535156,87.296224 12.8027344,86.3229167 13.7011719,85.5742188 C14.5996094,84.6757812 15.6477865,84.2265625 16.8457031,84.2265625 C18.0436198,84.2265625 19.0169271,84.6757812 19.765625,85.5742188 C20.6640625,86.3229167 21.1132812,87.296224 21.1132812,88.4941406 C21.1132812,89.5423177 20.8138021,90.4407552 20.2148438,91.1894531 C19.6158854,91.938151 18.8671875,92.4622396 17.96875,92.7617188 C17.96875,92.6119792 17.96875,92.3873698 17.96875,92.0878906 C18.7174479,91.938151 19.3164062,91.4889323 19.765625,90.7402344 C20.2148438,90.141276 20.4394531,89.3925781 20.4394531,88.4941406 C20.4394531,87.5957031 20.0651042,86.7721354 19.3164062,86.0234375 C18.5677083,85.2747396 17.7441406,84.9003906 16.8457031,84.9003906 C15.797526,84.9003906 14.8990885,85.2747396 14.1503906,86.0234375 C13.4016927,86.7721354 13.0273438,87.5957031 13.0273438,88.4941406 C13.0273438,88.344401 13.0273438,88.1946615 13.0273438,88.0449219 C13.0273438,88.0449219 13.0273438,88.0449219 13.0273438,88.0449219 C13.0273438,88.0449219 13.0273438,88.0449219 13.0273438,88.0449219 C13.0273438,88.1946615 13.0273438,88.344401 13.0273438,88.4941406 C13.0273438,88.7936198 13.0273438,88.9433594 13.0273438,88.9433594 C13.0273438,89.093099 13.0273438,89.1679688 13.0273438,89.1679688 C13.0273438,89.1679688 13.0273438,89.093099 13.0273438,88.9433594 C13.0273438,88.9433594 13.0273438,88.7936198 13.0273438,88.4941406 Z M17.96875,92.7617188 C17.6692708,92.7617188 17.4446615,92.8365885 17.2949219,92.9863281 C17.1451823,92.9863281 16.9954427,92.9863281 16.8457031,92.9863281 C16.546224,92.9863281 16.3216146,92.9863281 16.171875,92.9863281 C16.0221354,92.8365885 15.797526,92.7617188 15.4980469,92.7617188 C15.4980469,92.6119792 15.4980469,92.3873698 15.4980469,92.0878906 C15.797526,92.2376302 16.0221354,92.3125 16.171875,92.3125 C16.3216146,92.3125 16.546224,92.3125 16.8457031,92.3125 C16.9954427,92.3125 17.1451823,92.3125 17.2949219,92.3125 C17.4446615,92.3125 17.6692708,92.2376302 17.96875,92.0878906 C17.96875,92.2376302 17.96875,92.3873698 17.96875,92.5371094 C17.96875,92.5371094 17.96875,92.6119792 17.96875,92.7617188 Z M3.59375,91.4140625 C3.74348958,91.5638021 3.81835938,91.6386719 3.81835938,91.6386719 C3.96809896,91.6386719 4.04296875,91.7135417 4.04296875,91.8632812 C4.19270833,91.8632812 4.26757812,91.938151 4.26757812,92.0878906 C4.26757812,92.2376302 4.26757812,92.3125 4.26757812,92.3125 C4.26757812,94.2591146 4.26757812,96.5800781 4.26757812,99.2753906 C4.26757812,102.120443 4.26757812,105.339844 4.26757812,108.933594 C4.26757812,109.083333 4.26757812,109.233073 4.26757812,109.382812 C4.11783854,109.532552 4.04296875,109.682292 4.04296875,109.832031 C3.89322917,109.832031 3.74348958,109.832031 3.59375,109.832031 C3.44401042,109.981771 3.36914062,110.056641 3.36914062,110.056641 C3.21940104,110.056641 3.06966146,109.981771 2.91992188,109.832031 C2.77018229,109.832031 2.62044271,109.832031 2.47070312,109.832031 C2.47070312,109.682292 2.47070312,109.532552 2.47070312,109.382812 C2.32096354,109.233073 2.24609375,109.083333 2.24609375,108.933594 C2.24609375,107.436198 2.24609375,105.489583 2.24609375,103.09375 C2.24609375,100.697917 2.24609375,97.9277344 2.24609375,94.7832031 C2.24609375,94.7832031 2.17122396,94.8580729 2.02148438,95.0078125 C1.87174479,95.1575521 1.72200521,95.3072917 1.57226562,95.4570312 C1.57226562,95.4570312 1.49739583,95.531901 1.34765625,95.6816406 C1.19791667,95.6816406 1.04817708,95.6816406 0.8984375,95.6816406 C0.748697917,95.6816406 0.673828125,95.6816406 0.673828125,95.6816406 C0.524088542,95.531901 0.374348958,95.4570312 0.224609375,95.4570312 C0.0748697917,95.3072917 0,95.1575521 0,95.0078125 C0,95.0078125 0,94.9329427 0,94.7832031 C0,94.6334635 0,94.483724 0,94.3339844 C0,94.1842448 0.0748697917,94.109375 0.224609375,94.109375 C0.524088542,93.8098958 0.8984375,93.4355469 1.34765625,92.9863281 C1.64713542,92.686849 2.09635417,92.2376302 2.6953125,91.6386719 C2.6953125,91.6386719 2.77018229,91.5638021 2.91992188,91.4140625 C2.91992188,91.4140625 2.99479167,91.4140625 3.14453125,91.4140625 C3.14453125,91.4140625 3.14453125,91.4140625 3.14453125,91.4140625 C3.29427083,91.4140625 3.36914062,91.4140625 3.36914062,91.4140625 C3.36914062,91.4140625 3.44401042,91.4140625 3.59375,91.4140625 C3.59375,91.4140625 3.59375,91.4140625 3.59375,91.4140625 Z M17.7441406,60.6425781 C16.9954427,60.6425781 16.2467448,60.6425781 15.4980469,60.6425781 C14.5996094,60.6425781 13.7760417,60.6425781 13.0273438,60.6425781 C12.2786458,60.6425781 11.5299479,60.6425781 10.78125,60.6425781 C9.8828125,60.6425781 9.05924479,60.6425781 8.31054688,60.6425781 C8.31054688,60.6425781 8.23567708,60.6425781 8.0859375,60.6425781 C8.0859375,60.6425781 8.01106771,60.5677083 7.86132812,60.4179688 C7.86132812,60.4179688 7.86132812,60.4179688 7.86132812,60.4179688 C7.71158854,60.4179688 7.63671875,60.343099 7.63671875,60.1933594 C7.63671875,60.1933594 7.56184896,60.1933594 7.41210938,60.1933594 C7.41210938,60.0436198 7.41210938,59.96875 7.41210938,59.96875 C7.41210938,59.96875 7.41210938,59.8938802 7.41210938,59.7441406 C7.41210938,59.7441406 7.41210938,59.6692708 7.41210938,59.5195312 C7.41210938,59.5195312 7.41210938,59.5195312 7.41210938,59.5195312 C7.41210938,59.5195312 7.41210938,59.5195312 7.41210938,59.5195312 C7.41210938,59.5195312 7.41210938,59.3697917 7.41210938,59.0703125 C7.56184896,58.9205729 7.63671875,58.6210938 7.63671875,58.171875 C7.78645833,57.7226562 7.93619792,57.1985677 8.0859375,56.5996094 C8.38541667,56.1503906 8.68489583,55.6263021 8.984375,55.0273438 C9.28385417,54.7278646 9.50846354,54.4283854 9.65820312,54.1289062 C9.95768229,53.8294271 10.2571615,53.5299479 10.5566406,53.2304688 C10.8561198,52.9309896 11.155599,52.6315104 11.4550781,52.3320312 C11.7545573,52.0325521 12.1289062,51.8079427 12.578125,51.6582031 C13.4765625,51.0592448 14.1503906,50.5351562 14.5996094,50.0859375 C15.1985677,49.6367188 15.5729167,49.1875 15.7226562,48.7382812 C16.0221354,48.4388021 16.2467448,48.1393229 16.3964844,47.8398438 C16.3964844,47.390625 16.3964844,47.016276 16.3964844,46.7167969 C16.3964844,46.7167969 16.3964844,46.6419271 16.3964844,46.4921875 C16.3964844,46.3424479 16.3964844,46.2675781 16.3964844,46.2675781 C16.3964844,46.1178385 16.3964844,45.968099 16.3964844,45.8183594 C16.3964844,45.6686198 16.3216146,45.59375 16.171875,45.59375 C16.171875,45.2942708 16.0970052,45.0696615 15.9472656,44.9199219 C15.6477865,44.7701823 15.4231771,44.6204427 15.2734375,44.4707031 C14.9739583,44.3209635 14.6744792,44.171224 14.375,44.0214844 C13.9257812,44.0214844 13.4765625,44.0214844 13.0273438,44.0214844 C12.7278646,44.0214844 12.4283854,44.0214844 12.1289062,44.0214844 C11.6796875,44.171224 11.3802083,44.3209635 11.2304688,44.4707031 C10.9309896,44.6204427 10.7063802,44.7701823 10.5566406,44.9199219 C10.2571615,45.219401 10.0325521,45.5188802 9.8828125,45.8183594 C9.8828125,45.968099 9.80794271,46.0429688 9.65820312,46.0429688 C9.65820312,46.1927083 9.58333333,46.2675781 9.43359375,46.2675781 C9.28385417,46.4173177 9.13411458,46.4173177 8.984375,46.2675781 C8.83463542,46.2675781 8.75976562,46.2675781 8.75976562,46.2675781 C8.61002604,46.2675781 8.46028646,46.1927083 8.31054688,46.0429688 C8.31054688,45.8932292 8.23567708,45.8183594 8.0859375,45.8183594 C8.0859375,45.6686198 8.0859375,45.5188802 8.0859375,45.3691406 C8.0859375,45.219401 8.0859375,45.0696615 8.0859375,44.9199219 C8.38541667,44.4707031 8.68489583,44.0214844 8.984375,43.5722656 C9.28385417,43.2727865 9.65820312,42.9733073 10.1074219,42.6738281 C10.5566406,42.5240885 11.0058594,42.374349 11.4550781,42.2246094 C11.9042969,42.0748698 12.4283854,42 13.0273438,42 C14.0755208,42 14.8990885,42.1497396 15.4980469,42.4492188 C16.2467448,42.5989583 16.8457031,42.9733073 17.2949219,43.5722656 C17.594401,44.0214844 17.8938802,44.5455729 18.1933594,45.1445312 C18.343099,45.7434896 18.4179688,46.2675781 18.4179688,46.7167969 C18.4179688,47.3157552 18.343099,47.9147135 18.1933594,48.5136719 C18.0436198,49.1126302 17.7441406,49.6367188 17.2949219,50.0859375 C16.9954427,50.6848958 16.546224,51.2089844 15.9472656,51.6582031 C15.3483073,52.2571615 14.5996094,52.78125 13.7011719,53.2304688 C13.1022135,53.6796875 12.5032552,54.1289062 11.9042969,54.578125 C11.4550781,55.0273438 11.0807292,55.5514323 10.78125,56.1503906 C10.4817708,56.5996094 10.2571615,57.0488281 10.1074219,57.4980469 C9.80794271,57.9472656 9.65820312,58.3216146 9.65820312,58.6210938 C10.5566406,58.6210938 11.6796875,58.6210938 13.0273438,58.6210938 C14.375,58.6210938 15.9472656,58.6210938 17.7441406,58.6210938 C17.8938802,58.6210938 18.0436198,58.6210938 18.1933594,58.6210938 C18.1933594,58.7708333 18.2682292,58.8457031 18.4179688,58.8457031 C18.5677083,58.9954427 18.6425781,59.1451823 18.6425781,59.2949219 C18.6425781,59.4446615 18.6425781,59.5195312 18.6425781,59.5195312 C18.6425781,59.6692708 18.6425781,59.8190104 18.6425781,59.96875 C18.6425781,60.1184896 18.5677083,60.2682292 18.4179688,60.4179688 C18.2682292,60.4179688 18.1933594,60.4179688 18.1933594,60.4179688 C18.0436198,60.5677083 17.8938802,60.6425781 17.7441406,60.6425781 Z" transform="translate(-16)"/></svg>