<svg xmlns="http://www.w3.org/2000/svg" width="120" height="203" viewBox="0 0 120 203"><path fill="#131313" d="M1865.36039,173.299805 C1865.22302,172.750326 1865.15434,172.132161 1865.15434,171.445313 C1865.15434,170.208984 1865.56645,168.972656 1866.39066,167.736328 C1867.48962,165.950521 1869.00069,164.851563 1870.92387,164.439453 C1872.98441,163.889974 1874.90759,164.164714 1876.6934,165.263672 C1878.34184,166.36263 1879.44079,167.942383 1879.99027,170.00293 C1881.2266,175.497721 1883.28715,179.55013 1886.17191,182.160156 C1888.91931,184.632812 1891.59802,186.349935 1894.20805,187.311523 C1895.58174,187.723633 1896.81807,187.998372 1897.91703,188.135742 C1899.15336,188.273112 1900.04626,188.341797 1900.59574,188.341797 C1902.51892,188.341797 1905.40368,187.654948 1909.25004,186.28125 C1913.09639,184.907552 1916.53064,181.541992 1919.55277,176.18457 C1921.06384,173.299805 1922.36885,169.659505 1923.46781,165.263672 C1924.56677,160.730469 1925.11625,155.304362 1925.11625,148.985352 C1925.11625,131.127279 1925.11625,104.271484 1925.11625,68.4179688 C1925.11625,66.3574219 1925.8031,64.5716146 1927.1768,63.0605469 C1928.68786,61.686849 1930.47367,61 1932.53422,61 C1934.59477,61 1936.31189,61.686849 1937.68559,63.0605469 C1939.19665,64.5716146 1939.95219,66.3574219 1939.95219,68.4179688 C1939.95219,86.2760417 1939.95219,113.131836 1939.95219,148.985352 C1939.95219,159.013346 1938.71586,167.667643 1936.2432,174.948242 C1933.77055,182.366211 1930.06156,188.479167 1925.11625,193.287109 C1920.44568,197.682943 1915.70642,200.430339 1910.89848,201.529297 C1906.2279,202.628255 1902.86234,203.177734 1900.8018,203.177734 C1900.8018,203.177734 1900.73311,203.177734 1900.59574,203.177734 C1900.59574,203.177734 1900.59574,203.177734 1900.59574,203.177734 C1890.15564,203.177734 1882.11951,199.949544 1876.48734,193.493164 C1870.71781,187.036784 1867.00883,180.305664 1865.36039,173.299805 Z M1914.60746,76.2480469 C1914.74483,76.3854167 1914.8822,76.4541016 1915.01957,76.4541016 C1915.29431,76.4541016 1915.50036,76.4541016 1915.63773,76.4541016 C1915.7751,76.4541016 1915.91247,76.4541016 1916.04984,76.4541016 C1916.32458,76.4541016 1916.53064,76.3854167 1916.66801,76.2480469 C1916.66801,92.1829427 1916.66801,116.085286 1916.66801,147.955078 C1916.66801,157.845703 1915.22563,165.538411 1912.34086,171.033203 C1909.45609,176.665365 1905.40368,179.481445 1900.18363,179.481445 C1898.9473,179.481445 1897.71098,179.275391 1896.47465,178.863281 C1895.23832,178.588542 1894.13936,178.039063 1893.17777,177.214844 C1893.72725,176.940104 1894.48279,176.59668 1895.44438,176.18457 C1896.13122,176.45931 1896.88676,176.734049 1897.71098,177.008789 C1898.5352,177.283529 1899.35941,177.420898 1900.18363,177.420898 C1904.71684,177.283529 1908.21977,174.673503 1910.69242,169.59082 C1913.30245,164.370768 1914.60746,157.158854 1914.60746,147.955078 C1914.60746,136.003906 1914.60746,124.052734 1914.60746,112.101563 C1914.60746,100.150391 1914.60746,88.1992187 1914.60746,76.2480469 Z M1893.17777,174.536133 C1892.90303,174.948242 1892.42224,175.429036 1891.73539,175.978516 C1892.01013,176.253255 1892.21618,176.527995 1892.35355,176.802734 C1892.62829,176.940104 1892.90303,177.077474 1893.17777,177.214844 C1892.76566,177.489583 1892.07882,177.901693 1891.11723,178.451172 C1890.43038,175.841146 1889.46879,171.994792 1888.23246,166.912109 C1890.01827,168.835286 1892.76566,171.720052 1896.47465,175.566406 C1896.19991,175.703776 1895.85648,175.909831 1895.44438,176.18457 C1895.03227,175.909831 1894.62016,175.635091 1894.20805,175.360352 C1893.79594,175.085612 1893.45251,174.810872 1893.17777,174.536133 Z M1893.17777,174.536133 C1893.45251,174.810872 1893.79594,175.085612 1894.20805,175.360352 C1894.62016,175.635091 1895.03227,175.909831 1895.44438,176.18457 C1894.8949,176.32194 1894.13936,176.665365 1893.17777,177.214844 C1892.90303,177.077474 1892.69698,176.940104 1892.55961,176.802734 C1892.28487,176.527995 1892.01013,176.253255 1891.73539,175.978516 C1892.01013,175.841146 1892.28487,175.635091 1892.55961,175.360352 C1892.69698,175.085612 1892.90303,174.810872 1893.17777,174.536133 Z M1911.10453,71.9208984 C1911.10453,70.6845703 1911.51664,69.6542969 1912.34086,68.8300781 C1913.30245,67.8684896 1914.40141,67.3876953 1915.63773,67.3876953 C1916.87406,67.3876953 1917.90434,67.8684896 1918.72855,68.8300781 C1919.69014,69.6542969 1920.17094,70.6845703 1920.17094,71.9208984 C1920.17094,73.0198568 1919.82751,73.9814453 1919.14066,74.8056641 C1918.45382,75.6298828 1917.6296,76.1106771 1916.66801,76.2480469 C1916.66801,76.1106771 1916.66801,75.9733073 1916.66801,75.8359375 C1917.49223,75.5611979 1918.17908,75.0804036 1918.72855,74.3935547 C1919.27803,73.7067057 1919.55277,72.882487 1919.55277,71.9208984 C1919.55277,70.8219401 1919.14066,69.9290365 1918.31645,69.2421875 C1917.6296,68.4179688 1916.73669,68.0058594 1915.63773,68.0058594 C1914.53878,68.0058594 1913.57719,68.4179688 1912.75297,69.2421875 C1912.06612,69.9290365 1911.7227,70.8219401 1911.7227,71.9208984 C1911.7227,72.882487 1911.99743,73.7067057 1912.54691,74.3935547 C1913.09639,75.0804036 1913.78324,75.5611979 1914.60746,75.8359375 C1914.60746,75.9733073 1914.60746,76.1106771 1914.60746,76.2480469 C1913.64587,76.1106771 1912.82165,75.6298828 1912.1348,74.8056641 C1911.44796,73.9814453 1911.10453,73.0198568 1911.10453,71.9208984 Z M1915.63773,75.8359375 C1915.7751,75.8359375 1915.91247,75.8359375 1916.04984,75.8359375 C1916.32458,75.8359375 1916.53064,75.8359375 1916.66801,75.8359375 C1916.66801,75.9733073 1916.66801,76.1106771 1916.66801,76.2480469 C1916.53064,76.3854167 1916.32458,76.4541016 1916.04984,76.4541016 C1915.91247,76.4541016 1915.7751,76.4541016 1915.63773,76.4541016 C1915.50036,76.4541016 1915.29431,76.4541016 1915.01957,76.4541016 C1914.8822,76.4541016 1914.74483,76.3854167 1914.60746,76.2480469 C1914.60746,76.1106771 1914.60746,75.9733073 1914.60746,75.8359375 C1914.74483,75.8359375 1914.8822,75.8359375 1915.01957,75.8359375 C1915.29431,75.8359375 1915.50036,75.8359375 1915.63773,75.8359375 Z M1912.1348,71.9208984 C1912.1348,72.7451172 1912.34086,73.4319661 1912.75297,73.9814453 C1913.30245,74.5309245 1913.92061,74.9430339 1914.60746,75.2177734 C1914.60746,75.3551432 1914.60746,75.5611979 1914.60746,75.8359375 C1913.78324,75.5611979 1913.09639,75.0804036 1912.54691,74.3935547 C1911.99743,73.7067057 1911.7227,72.882487 1911.7227,71.9208984 C1911.7227,70.8219401 1912.06612,69.9290365 1912.75297,69.2421875 C1913.57719,68.4179688 1914.53878,68.0058594 1915.63773,68.0058594 C1916.73669,68.0058594 1917.6296,68.4179688 1918.31645,69.2421875 C1919.14066,69.9290365 1919.55277,70.8219401 1919.55277,71.9208984 C1919.55277,72.882487 1919.27803,73.7067057 1918.72855,74.3935547 C1918.17908,75.0804036 1917.49223,75.5611979 1916.66801,75.8359375 C1916.66801,75.6985677 1916.66801,75.492513 1916.66801,75.2177734 C1917.35486,74.9430339 1917.90434,74.5309245 1918.31645,73.9814453 C1918.86592,73.4319661 1919.14066,72.7451172 1919.14066,71.9208984 C1919.14066,70.9593099 1918.79724,70.1350911 1918.11039,69.4482422 C1917.42354,68.898763 1916.59932,68.6240234 1915.63773,68.6240234 C1914.67615,68.6240234 1913.85193,68.898763 1913.16508,69.4482422 C1912.47823,70.1350911 1912.1348,70.9593099 1912.1348,71.9208984 C1912.1348,71.7835286 1912.1348,71.6461589 1912.1348,71.5087891 C1912.1348,71.3714193 1912.1348,71.3714193 1912.1348,71.5087891 C1912.1348,71.3714193 1912.1348,71.3714193 1912.1348,71.5087891 C1912.1348,71.6461589 1912.1348,71.7835286 1912.1348,71.9208984 C1912.1348,72.195638 1912.1348,72.3330078 1912.1348,72.3330078 C1912.1348,72.4703776 1912.1348,72.5390625 1912.1348,72.5390625 C1912.1348,72.5390625 1912.1348,72.4703776 1912.1348,72.3330078 C1912.1348,72.3330078 1912.1348,72.195638 1912.1348,71.9208984 Z M1916.66801,75.8359375 C1916.53064,75.8359375 1916.32458,75.8359375 1916.04984,75.8359375 C1915.91247,75.8359375 1915.7751,75.8359375 1915.63773,75.8359375 C1915.50036,75.8359375 1915.29431,75.8359375 1915.01957,75.8359375 C1914.8822,75.8359375 1914.74483,75.8359375 1914.60746,75.8359375 C1914.60746,75.6985677 1914.60746,75.492513 1914.60746,75.2177734 C1914.74483,75.2177734 1914.8822,75.2864583 1915.01957,75.4238281 C1915.15694,75.4238281 1915.36299,75.4238281 1915.63773,75.4238281 C1915.7751,75.4238281 1915.91247,75.4238281 1916.04984,75.4238281 C1916.32458,75.2864583 1916.53064,75.2177734 1916.66801,75.2177734 C1916.66801,75.3551432 1916.66801,75.4238281 1916.66801,75.4238281 C1916.66801,75.5611979 1916.66801,75.6985677 1916.66801,75.8359375 Z M1903.68656,84.6962891 C1903.54919,84.6962891 1903.48051,84.6276042 1903.48051,84.4902344 C1903.34314,84.3528646 1903.27445,84.2154948 1903.27445,84.078125 C1903.27445,82.5670573 1903.27445,80.78125 1903.27445,78.7207031 C1903.27445,76.5227865 1903.27445,73.9127604 1903.27445,70.890625 C1903.27445,71.0279948 1903.20577,71.1653646 1903.0684,71.3027344 C1902.93103,71.3027344 1902.79366,71.3714193 1902.65629,71.5087891 C1902.65629,71.6461589 1902.5876,71.7148438 1902.45023,71.7148438 C1902.31286,71.8522135 1902.17549,71.9208984 1902.03813,71.9208984 C1901.90076,71.9208984 1901.83207,71.8522135 1901.83207,71.7148438 C1901.6947,71.7148438 1901.55733,71.6461589 1901.41996,71.5087891 C1901.41996,71.5087891 1901.35128,71.4401042 1901.21391,71.3027344 C1901.21391,71.1653646 1901.21391,71.0279948 1901.21391,70.890625 C1901.21391,70.7532552 1901.21391,70.6845703 1901.21391,70.6845703 C1901.35128,70.5472005 1901.41996,70.4098307 1901.41996,70.2724609 C1901.6947,70.1350911 1902.03813,69.8603516 1902.45023,69.4482422 C1902.72497,69.0361328 1903.13708,68.6240234 1903.68656,68.2119141 C1903.68656,68.0745443 1903.75525,68.0058594 1903.89262,68.0058594 C1903.89262,68.0058594 1903.9613,68.0058594 1904.09867,68.0058594 C1904.09867,68.0058594 1904.09867,68.0058594 1904.09867,68.0058594 C1904.09867,68.0058594 1904.16736,68.0058594 1904.30473,68.0058594 C1904.30473,68.0058594 1904.37341,68.0058594 1904.51078,68.0058594 C1904.51078,68.0058594 1904.51078,68.0058594 1904.51078,68.0058594 C1904.64815,68.0058594 1904.71684,68.0745443 1904.71684,68.2119141 C1904.85421,68.2119141 1904.92289,68.280599 1904.92289,68.4179688 C1905.06026,68.4179688 1905.12895,68.4866536 1905.12895,68.6240234 C1905.12895,68.6240234 1905.12895,68.6927083 1905.12895,68.8300781 C1905.12895,70.4785156 1905.12895,72.6077474 1905.12895,75.2177734 C1905.12895,77.6904297 1905.12895,80.6438802 1905.12895,84.078125 C1905.12895,84.2154948 1905.12895,84.3528646 1905.12895,84.4902344 C1904.99158,84.6276042 1904.92289,84.6962891 1904.92289,84.6962891 C1904.78552,84.8336589 1904.64815,84.9023438 1904.51078,84.9023438 C1904.51078,84.9023438 1904.4421,84.9023438 1904.30473,84.9023438 C1904.16736,84.9023438 1904.02999,84.9023438 1903.89262,84.9023438 C1903.75525,84.9023438 1903.68656,84.8336589 1903.68656,84.6962891 Z" transform="translate(-1842.154)"/></svg>