<svg xmlns="http://www.w3.org/2000/svg" width="120" height="203" viewBox="0 0 120 203"><path fill="#131313" d="M1865.36039,136.03418 C1865.22302,135.484701 1865.15434,134.866536 1865.15434,134.179688 C1865.15434,132.943359 1865.56645,131.707031 1866.39066,130.470703 C1867.48962,128.684896 1869.00069,127.585938 1870.92387,127.173828 C1872.98441,126.624349 1874.90759,126.899089 1876.6934,127.998047 C1878.34184,129.097005 1879.44079,130.676758 1879.99027,132.737305 C1881.2266,138.232096 1883.28715,142.284505 1886.17191,144.894531 C1888.91931,147.367187 1891.59802,149.08431 1894.20805,150.045898 C1895.58174,150.458008 1896.81807,150.732747 1897.91703,150.870117 C1899.15336,151.007487 1900.04626,151.076172 1900.59574,151.076172 C1902.51892,151.076172 1905.40368,150.389323 1909.25004,149.015625 C1913.09639,147.641927 1916.53064,144.276367 1919.55277,138.918945 C1921.06384,136.03418 1922.36885,132.39388 1923.46781,127.998047 C1924.56677,123.464844 1925.11625,118.038737 1925.11625,111.719727 C1925.11625,93.8616536 1925.11625,67.0058594 1925.11625,31.1523438 C1925.11625,29.0917969 1925.8031,27.3059896 1927.1768,25.7949219 C1928.68786,24.421224 1930.47367,23.734375 1932.53422,23.734375 C1934.59477,23.734375 1936.31189,24.421224 1937.68559,25.7949219 C1939.19665,27.3059896 1939.95219,29.0917969 1939.95219,31.1523438 C1939.95219,49.0104167 1939.95219,75.8662109 1939.95219,111.719727 C1939.95219,121.747721 1938.71586,130.402018 1936.2432,137.682617 C1933.77055,145.100586 1930.06156,151.213542 1925.11625,156.021484 C1920.44568,160.417318 1915.70642,163.164714 1910.89848,164.263672 C1906.2279,165.36263 1902.86234,165.912109 1900.8018,165.912109 C1900.8018,165.912109 1900.73311,165.912109 1900.59574,165.912109 C1900.59574,165.912109 1900.59574,165.912109 1900.59574,165.912109 C1890.15564,165.912109 1882.11951,162.683919 1876.48734,156.227539 C1870.71781,149.771159 1867.00883,143.040039 1865.36039,136.03418 Z M1914.60746,38.9824219 C1914.74483,39.1197917 1914.8822,39.1884766 1915.01957,39.1884766 C1915.29431,39.1884766 1915.50036,39.1884766 1915.63773,39.1884766 C1915.7751,39.1884766 1915.91247,39.1884766 1916.04984,39.1884766 C1916.32458,39.1884766 1916.53064,39.1197917 1916.66801,38.9824219 C1916.66801,54.9173177 1916.66801,78.8196615 1916.66801,110.689453 C1916.66801,120.580078 1915.22563,128.272786 1912.34086,133.767578 C1909.45609,139.39974 1905.40368,142.21582 1900.18363,142.21582 C1898.9473,142.21582 1897.71098,142.009766 1896.47465,141.597656 C1895.23832,141.322917 1894.13936,140.773438 1893.17777,139.949219 C1893.72725,139.674479 1894.48279,139.331055 1895.44438,138.918945 C1896.13122,139.193685 1896.88676,139.468424 1897.71098,139.743164 C1898.5352,140.017904 1899.35941,140.155273 1900.18363,140.155273 C1904.71684,140.017904 1908.21977,137.407878 1910.69242,132.325195 C1913.30245,127.105143 1914.60746,119.893229 1914.60746,110.689453 C1914.60746,98.7382813 1914.60746,86.7871094 1914.60746,74.8359375 C1914.60746,62.8847656 1914.60746,50.9335937 1914.60746,38.9824219 Z M1893.17777,137.270508 C1892.90303,137.682617 1892.42224,138.163411 1891.73539,138.712891 C1892.01013,138.98763 1892.21618,139.26237 1892.35355,139.537109 C1892.62829,139.674479 1892.90303,139.811849 1893.17777,139.949219 C1892.76566,140.223958 1892.07882,140.636068 1891.11723,141.185547 C1890.43038,138.575521 1889.46879,134.729167 1888.23246,129.646484 C1890.01827,131.569661 1892.76566,134.454427 1896.47465,138.300781 C1896.19991,138.438151 1895.85648,138.644206 1895.44438,138.918945 C1895.03227,138.644206 1894.62016,138.369466 1894.20805,138.094727 C1893.79594,137.819987 1893.45251,137.545247 1893.17777,137.270508 Z M1893.17777,137.270508 C1893.45251,137.545247 1893.79594,137.819987 1894.20805,138.094727 C1894.62016,138.369466 1895.03227,138.644206 1895.44438,138.918945 C1894.8949,139.056315 1894.13936,139.39974 1893.17777,139.949219 C1892.90303,139.811849 1892.69698,139.674479 1892.55961,139.537109 C1892.28487,139.26237 1892.01013,138.98763 1891.73539,138.712891 C1892.01013,138.575521 1892.28487,138.369466 1892.55961,138.094727 C1892.69698,137.819987 1892.90303,137.545247 1893.17777,137.270508 Z M1911.10453,34.6552734 C1911.10453,33.4189453 1911.51664,32.3886719 1912.34086,31.5644531 C1913.30245,30.6028646 1914.40141,30.1220703 1915.63773,30.1220703 C1916.87406,30.1220703 1917.90434,30.6028646 1918.72855,31.5644531 C1919.69014,32.3886719 1920.17094,33.4189453 1920.17094,34.6552734 C1920.17094,35.7542318 1919.82751,36.7158203 1919.14066,37.5400391 C1918.45382,38.3642578 1917.6296,38.8450521 1916.66801,38.9824219 C1916.66801,38.8450521 1916.66801,38.7076823 1916.66801,38.5703125 C1917.49223,38.2955729 1918.17908,37.8147786 1918.72855,37.1279297 C1919.27803,36.4410807 1919.55277,35.616862 1919.55277,34.6552734 C1919.55277,33.5563151 1919.14066,32.6634115 1918.31645,31.9765625 C1917.6296,31.1523438 1916.73669,30.7402344 1915.63773,30.7402344 C1914.53878,30.7402344 1913.57719,31.1523438 1912.75297,31.9765625 C1912.06612,32.6634115 1911.7227,33.5563151 1911.7227,34.6552734 C1911.7227,35.616862 1911.99743,36.4410807 1912.54691,37.1279297 C1913.09639,37.8147786 1913.78324,38.2955729 1914.60746,38.5703125 C1914.60746,38.7076823 1914.60746,38.8450521 1914.60746,38.9824219 C1913.64587,38.8450521 1912.82165,38.3642578 1912.1348,37.5400391 C1911.44796,36.7158203 1911.10453,35.7542318 1911.10453,34.6552734 Z M1915.63773,38.5703125 C1915.7751,38.5703125 1915.91247,38.5703125 1916.04984,38.5703125 C1916.32458,38.5703125 1916.53064,38.5703125 1916.66801,38.5703125 C1916.66801,38.7076823 1916.66801,38.8450521 1916.66801,38.9824219 C1916.53064,39.1197917 1916.32458,39.1884766 1916.04984,39.1884766 C1915.91247,39.1884766 1915.7751,39.1884766 1915.63773,39.1884766 C1915.50036,39.1884766 1915.29431,39.1884766 1915.01957,39.1884766 C1914.8822,39.1884766 1914.74483,39.1197917 1914.60746,38.9824219 C1914.60746,38.8450521 1914.60746,38.7076823 1914.60746,38.5703125 C1914.74483,38.5703125 1914.8822,38.5703125 1915.01957,38.5703125 C1915.29431,38.5703125 1915.50036,38.5703125 1915.63773,38.5703125 Z M1912.1348,34.6552734 C1912.1348,35.4794922 1912.34086,36.1663411 1912.75297,36.7158203 C1913.30245,37.2652995 1913.92061,37.6774089 1914.60746,37.9521484 C1914.60746,38.0895182 1914.60746,38.2955729 1914.60746,38.5703125 C1913.78324,38.2955729 1913.09639,37.8147786 1912.54691,37.1279297 C1911.99743,36.4410807 1911.7227,35.616862 1911.7227,34.6552734 C1911.7227,33.5563151 1912.06612,32.6634115 1912.75297,31.9765625 C1913.57719,31.1523438 1914.53878,30.7402344 1915.63773,30.7402344 C1916.73669,30.7402344 1917.6296,31.1523438 1918.31645,31.9765625 C1919.14066,32.6634115 1919.55277,33.5563151 1919.55277,34.6552734 C1919.55277,35.616862 1919.27803,36.4410807 1918.72855,37.1279297 C1918.17908,37.8147786 1917.49223,38.2955729 1916.66801,38.5703125 C1916.66801,38.4329427 1916.66801,38.226888 1916.66801,37.9521484 C1917.35486,37.6774089 1917.90434,37.2652995 1918.31645,36.7158203 C1918.86592,36.1663411 1919.14066,35.4794922 1919.14066,34.6552734 C1919.14066,33.6936849 1918.79724,32.8694661 1918.11039,32.1826172 C1917.42354,31.633138 1916.59932,31.3583984 1915.63773,31.3583984 C1914.67615,31.3583984 1913.85193,31.633138 1913.16508,32.1826172 C1912.47823,32.8694661 1912.1348,33.6936849 1912.1348,34.6552734 C1912.1348,34.5179036 1912.1348,34.3805339 1912.1348,34.2431641 C1912.1348,34.1057943 1912.1348,34.1057943 1912.1348,34.2431641 C1912.1348,34.1057943 1912.1348,34.1057943 1912.1348,34.2431641 C1912.1348,34.3805339 1912.1348,34.5179036 1912.1348,34.6552734 C1912.1348,34.930013 1912.1348,35.0673828 1912.1348,35.0673828 C1912.1348,35.2047526 1912.1348,35.2734375 1912.1348,35.2734375 C1912.1348,35.2734375 1912.1348,35.2047526 1912.1348,35.0673828 C1912.1348,35.0673828 1912.1348,34.930013 1912.1348,34.6552734 Z M1916.66801,38.5703125 C1916.53064,38.5703125 1916.32458,38.5703125 1916.04984,38.5703125 C1915.91247,38.5703125 1915.7751,38.5703125 1915.63773,38.5703125 C1915.50036,38.5703125 1915.29431,38.5703125 1915.01957,38.5703125 C1914.8822,38.5703125 1914.74483,38.5703125 1914.60746,38.5703125 C1914.60746,38.4329427 1914.60746,38.226888 1914.60746,37.9521484 C1914.74483,37.9521484 1914.8822,38.0208333 1915.01957,38.1582031 C1915.15694,38.1582031 1915.36299,38.1582031 1915.63773,38.1582031 C1915.7751,38.1582031 1915.91247,38.1582031 1916.04984,38.1582031 C1916.32458,38.0208333 1916.53064,37.9521484 1916.66801,37.9521484 C1916.66801,38.0895182 1916.66801,38.1582031 1916.66801,38.1582031 C1916.66801,38.2955729 1916.66801,38.4329427 1916.66801,38.5703125 Z M1903.68656,47.4306641 C1903.54919,47.4306641 1903.48051,47.3619792 1903.48051,47.2246094 C1903.34314,47.0872396 1903.27445,46.9498698 1903.27445,46.8125 C1903.27445,45.3014323 1903.27445,43.515625 1903.27445,41.4550781 C1903.27445,39.2571615 1903.27445,36.6471354 1903.27445,33.625 C1903.27445,33.7623698 1903.20577,33.8997396 1903.0684,34.0371094 C1902.93103,34.0371094 1902.79366,34.1057943 1902.65629,34.2431641 C1902.65629,34.3805339 1902.5876,34.4492188 1902.45023,34.4492188 C1902.31286,34.5865885 1902.17549,34.6552734 1902.03813,34.6552734 C1901.90076,34.6552734 1901.83207,34.5865885 1901.83207,34.4492188 C1901.6947,34.4492188 1901.55733,34.3805339 1901.41996,34.2431641 C1901.41996,34.2431641 1901.35128,34.1744792 1901.21391,34.0371094 C1901.21391,33.8997396 1901.21391,33.7623698 1901.21391,33.625 C1901.21391,33.4876302 1901.21391,33.4189453 1901.21391,33.4189453 C1901.35128,33.2815755 1901.41996,33.1442057 1901.41996,33.0068359 C1901.6947,32.8694661 1902.03813,32.5947266 1902.45023,32.1826172 C1902.72497,31.7705078 1903.13708,31.3583984 1903.68656,30.9462891 C1903.68656,30.8089193 1903.75525,30.7402344 1903.89262,30.7402344 C1903.89262,30.7402344 1903.9613,30.7402344 1904.09867,30.7402344 C1904.09867,30.7402344 1904.09867,30.7402344 1904.09867,30.7402344 C1904.09867,30.7402344 1904.16736,30.7402344 1904.30473,30.7402344 C1904.30473,30.7402344 1904.37341,30.7402344 1904.51078,30.7402344 C1904.51078,30.7402344 1904.51078,30.7402344 1904.51078,30.7402344 C1904.64815,30.7402344 1904.71684,30.8089193 1904.71684,30.9462891 C1904.85421,30.9462891 1904.92289,31.014974 1904.92289,31.1523438 C1905.06026,31.1523438 1905.12895,31.2210286 1905.12895,31.3583984 C1905.12895,31.3583984 1905.12895,31.4270833 1905.12895,31.5644531 C1905.12895,33.2128906 1905.12895,35.3421224 1905.12895,37.9521484 C1905.12895,40.4248047 1905.12895,43.3782552 1905.12895,46.8125 C1905.12895,46.9498698 1905.12895,47.0872396 1905.12895,47.2246094 C1904.99158,47.3619792 1904.92289,47.4306641 1904.92289,47.4306641 C1904.78552,47.5680339 1904.64815,47.6367188 1904.51078,47.6367188 C1904.51078,47.6367188 1904.4421,47.6367188 1904.30473,47.6367188 C1904.16736,47.6367188 1904.02999,47.6367188 1903.89262,47.6367188 C1903.75525,47.6367188 1903.68656,47.5680339 1903.68656,47.4306641 Z" transform="translate(-1842.154 -23.734)"/></svg>