<svg xmlns="http://www.w3.org/2000/svg" width="79" height="243" viewBox="0 0 79 243"><path fill="#131313" d="M62.90625,65.1347656 C60.6601562,65.1347656 58.7135417,64.3111979 57.0664062,62.6640625 C55.4192708,61.1666667 54.5957031,59.2949219 54.5957031,57.0488281 C54.5957031,54.8027344 55.4192708,52.8561198 57.0664062,51.2089844 C58.7135417,49.7115885 60.6601562,48.9628906 62.90625,48.9628906 C65.0026042,48.9628906 66.874349,49.7115885 68.5214844,51.2089844 C70.1686198,52.8561198 70.9921875,54.8027344 70.9921875,57.0488281 C70.9921875,59.2949219 70.1686198,61.1666667 68.5214844,62.6640625 C66.874349,64.3111979 65.0026042,65.1347656 62.90625,65.1347656 Z M9.67382812,221.6875 C9.22460938,220.639323 9,219.666016 9,218.767578 C9,217.569661 9.22460938,216.446615 9.67382812,215.398438 C10.5722656,213.302083 12.0696615,211.879557 14.1660156,211.130859 C16.2623698,210.232422 18.358724,210.232422 20.4550781,211.130859 C22.5514323,212.029297 23.9739583,213.526693 24.7226562,215.623047 C26.2200521,219.067057 28.1666667,221.83724 30.5625,223.933594 C33.1080729,225.880208 35.8782552,226.853516 38.8730469,226.853516 C44.1139323,226.853516 48.0820312,224.008464 50.7773438,218.318359 C53.3229167,212.478516 54.5957031,203.79362 54.5957031,192.263672 C54.5957031,169.203776 54.5957031,134.464193 54.5957031,88.0449219 C54.5957031,85.7988281 55.4192708,83.8522135 57.0664062,82.2050781 C58.5638021,80.7076823 60.5104167,79.9589844 62.90625,79.9589844 C65.1523438,79.9589844 67.0240885,80.7076823 68.5214844,82.2050781 C70.1686198,83.8522135 70.9921875,85.7988281 70.9921875,88.0449219 C70.9921875,111.254557 70.9921875,145.994141 70.9921875,192.263672 C70.9921875,206.039714 69.3450521,216.521484 66.0507812,223.708984 C62.90625,230.896484 59.0130208,235.98763 54.3710938,238.982422 C51.8255208,240.479818 49.2050781,241.602865 46.5097656,242.351562 C43.9641927,242.950521 41.4186198,243.25 38.8730469,243.25 C32.5839844,243.25 26.8190104,241.303385 21.578125,237.410156 C16.1875,233.516927 12.219401,228.276042 9.67382812,221.6875 Z M41.5683594,93.2109375 C41.718099,93.3606771 41.9427083,93.4355469 42.2421875,93.4355469 C42.3919271,93.4355469 42.5416667,93.4355469 42.6914062,93.4355469 C42.8411458,93.4355469 43.0657552,93.4355469 43.3652344,93.4355469 C43.514974,93.4355469 43.6647135,93.3606771 43.8144531,93.2109375 C43.8144531,102.644531 43.8144531,116.720052 43.8144531,135.4375 C43.3652344,135.4375 42.6165365,135.4375 41.5683594,135.4375 C41.5683594,128.39974 41.5683594,121.361979 41.5683594,114.324219 C41.5683594,107.286458 41.5683594,100.248698 41.5683594,93.2109375 Z M43.8144531,137.683594 C43.8144531,137.234375 43.8144531,136.485677 43.8144531,135.4375 C44.4134115,135.4375 45.1621094,135.4375 46.0605469,135.4375 C45.311849,138.282552 44.1888021,142.47526 42.6914062,148.015625 C41.9427083,145.170573 40.8196615,140.977865 39.3222656,135.4375 C39.921224,135.4375 40.6699219,135.4375 41.5683594,135.4375 C41.5683594,136.036458 41.5683594,136.785156 41.5683594,137.683594 C42.1673177,137.683594 42.9160156,137.683594 43.8144531,137.683594 Z M41.5683594,135.4375 C42.1673177,135.4375 42.9160156,135.4375 43.8144531,135.4375 C43.8144531,136.036458 43.8144531,136.785156 43.8144531,137.683594 C43.3652344,137.683594 42.6165365,137.683594 41.5683594,137.683594 C41.5683594,137.234375 41.5683594,136.485677 41.5683594,135.4375 Z M47.6328125,89.1679688 C47.6328125,89.0182292 47.6328125,88.9433594 47.6328125,88.9433594 C47.6328125,88.7936198 47.6328125,88.6438802 47.6328125,88.4941406 C47.6328125,88.6438802 47.6328125,88.7936198 47.6328125,88.9433594 C47.6328125,88.9433594 47.6328125,89.0182292 47.6328125,89.1679688 Z M47.6328125,88.4941406 C47.6328125,88.4941406 47.6328125,88.4192708 47.6328125,88.2695312 C47.6328125,88.2695312 47.6328125,88.1946615 47.6328125,88.0449219 C47.6328125,88.1946615 47.6328125,88.2695312 47.6328125,88.2695312 C47.6328125,88.4192708 47.6328125,88.4941406 47.6328125,88.4941406 Z M47.6328125,87.8203125 C47.6328125,87.9700521 47.6328125,88.0449219 47.6328125,88.0449219 C47.6328125,88.0449219 47.6328125,88.0449219 47.6328125,88.0449219 C47.6328125,88.0449219 47.6328125,88.0449219 47.6328125,88.0449219 C47.6328125,87.8951823 47.6328125,87.8203125 47.6328125,87.8203125 Z M42.6914062,83.5527344 C44.0390625,83.5527344 45.1621094,84.0768229 46.0605469,85.125 C47.108724,86.0234375 47.6328125,87.1464844 47.6328125,88.4941406 C47.6328125,89.6920573 47.2584635,90.7402344 46.5097656,91.6386719 C45.7610677,92.5371094 44.8626302,93.0611979 43.8144531,93.2109375 C43.8144531,93.0611979 43.8144531,92.9114583 43.8144531,92.7617188 C44.7128906,92.4622396 45.4615885,91.938151 46.0605469,91.1894531 C46.6595052,90.4407552 46.9589844,89.5423177 46.9589844,88.4941406 C46.9589844,87.296224 46.5846354,86.3229167 45.8359375,85.5742188 C44.9375,84.6757812 43.8893229,84.2265625 42.6914062,84.2265625 C41.4934896,84.2265625 40.4453125,84.6757812 39.546875,85.5742188 C38.7981771,86.3229167 38.4238281,87.296224 38.4238281,88.4941406 C38.4238281,89.5423177 38.7233073,90.4407552 39.3222656,91.1894531 C39.921224,91.938151 40.6699219,92.4622396 41.5683594,92.7617188 C41.5683594,92.7617188 41.5683594,92.9114583 41.5683594,93.2109375 C40.5201823,93.0611979 39.6217448,92.5371094 38.8730469,91.6386719 C38.124349,90.7402344 37.75,89.6920573 37.75,88.4941406 C37.75,87.1464844 38.2740885,86.0234375 39.3222656,85.125 C40.2207031,84.0768229 41.34375,83.5527344 42.6914062,83.5527344 Z M42.6914062,92.7617188 C42.8411458,92.7617188 43.0657552,92.7617188 43.3652344,92.7617188 C43.514974,92.7617188 43.6647135,92.7617188 43.8144531,92.7617188 C43.8144531,92.7617188 43.8144531,92.9114583 43.8144531,93.2109375 C43.6647135,93.3606771 43.514974,93.4355469 43.3652344,93.4355469 C43.0657552,93.4355469 42.8411458,93.4355469 42.6914062,93.4355469 C42.5416667,93.4355469 42.3919271,93.4355469 42.2421875,93.4355469 C41.9427083,93.4355469 41.718099,93.3606771 41.5683594,93.2109375 C41.5683594,93.0611979 41.5683594,92.9114583 41.5683594,92.7617188 C41.718099,92.7617188 41.9427083,92.7617188 42.2421875,92.7617188 C42.3919271,92.7617188 42.5416667,92.7617188 42.6914062,92.7617188 Z M38.8730469,88.4941406 C38.8730469,87.8951823 38.8730469,87.7454427 38.8730469,88.0449219 C38.8730469,88.344401 38.8730469,88.6438802 38.8730469,88.9433594 C38.8730469,88.9433594 38.8730469,88.8684896 38.8730469,88.71875 C38.8730469,88.71875 38.8730469,88.6438802 38.8730469,88.4941406 Z M38.8730469,88.4941406 C38.8730469,89.3925781 39.172526,90.141276 39.7714844,90.7402344 C40.2207031,91.3391927 40.8196615,91.7884115 41.5683594,92.0878906 C41.5683594,92.2376302 41.5683594,92.4622396 41.5683594,92.7617188 C40.6699219,92.4622396 39.921224,91.938151 39.3222656,91.1894531 C38.7233073,90.4407552 38.4238281,89.5423177 38.4238281,88.4941406 C38.4238281,87.296224 38.7981771,86.3229167 39.546875,85.5742188 C40.4453125,84.6757812 41.4934896,84.2265625 42.6914062,84.2265625 C43.8893229,84.2265625 44.9375,84.6757812 45.8359375,85.5742188 C46.5846354,86.3229167 46.9589844,87.296224 46.9589844,88.4941406 C46.9589844,89.5423177 46.6595052,90.4407552 46.0605469,91.1894531 C45.4615885,91.938151 44.7128906,92.4622396 43.8144531,92.7617188 C43.8144531,92.6119792 43.8144531,92.3873698 43.8144531,92.0878906 C44.563151,91.7884115 45.2369792,91.3391927 45.8359375,90.7402344 C46.2851562,90.141276 46.5097656,89.3925781 46.5097656,88.4941406 C46.5097656,87.4459635 46.1354167,86.547526 45.3867188,85.7988281 C44.6380208,85.0501302 43.7395833,84.6757812 42.6914062,84.6757812 C41.6432292,84.6757812 40.7447917,85.0501302 39.9960938,85.7988281 C39.2473958,86.547526 38.8730469,87.4459635 38.8730469,88.4941406 C38.8730469,87.8951823 38.8730469,87.7454427 38.8730469,88.0449219 C38.8730469,88.344401 38.8730469,88.6438802 38.8730469,88.9433594 C38.8730469,88.9433594 38.8730469,88.9433594 38.8730469,88.9433594 C38.8730469,88.9433594 38.8730469,88.9433594 38.8730469,88.9433594 C38.8730469,88.9433594 38.8730469,88.9433594 38.8730469,88.9433594 C38.8730469,88.9433594 38.8730469,88.9433594 38.8730469,88.9433594 C38.8730469,88.9433594 38.8730469,88.8684896 38.8730469,88.71875 C38.8730469,88.71875 38.8730469,88.6438802 38.8730469,88.4941406 Z M43.8144531,92.7617188 C43.6647135,92.7617188 43.514974,92.7617188 43.3652344,92.7617188 C43.0657552,92.7617188 42.8411458,92.7617188 42.6914062,92.7617188 C42.5416667,92.7617188 42.3919271,92.7617188 42.2421875,92.7617188 C41.9427083,92.7617188 41.718099,92.7617188 41.5683594,92.7617188 C41.5683594,92.6119792 41.5683594,92.3873698 41.5683594,92.0878906 C41.718099,92.0878906 41.8678385,92.1627604 42.0175781,92.3125 C42.3170573,92.3125 42.5416667,92.3125 42.6914062,92.3125 C42.9908854,92.3125 43.2154948,92.3125 43.3652344,92.3125 C43.514974,92.1627604 43.6647135,92.0878906 43.8144531,92.0878906 C43.8144531,92.2376302 43.8144531,92.3125 43.8144531,92.3125 C43.8144531,92.4622396 43.8144531,92.6119792 43.8144531,92.7617188 Z M31.2363281,91.4140625 C31.2363281,91.4140625 31.3111979,91.4889323 31.4609375,91.6386719 C31.4609375,91.6386719 31.5358073,91.7135417 31.6855469,91.8632812 C31.6855469,91.8632812 31.6855469,91.938151 31.6855469,92.0878906 C31.6855469,92.0878906 31.6855469,92.1627604 31.6855469,92.3125 C31.6855469,94.109375 31.6855469,96.4303385 31.6855469,99.2753906 C31.6855469,101.970703 31.6855469,105.190104 31.6855469,108.933594 C31.6855469,109.083333 31.6855469,109.233073 31.6855469,109.382812 C31.6855469,109.382812 31.6106771,109.457682 31.4609375,109.607422 C31.3111979,109.757161 31.2363281,109.832031 31.2363281,109.832031 C31.0865885,109.832031 30.936849,109.832031 30.7871094,109.832031 C30.6373698,109.832031 30.4876302,109.832031 30.3378906,109.832031 C30.3378906,109.832031 30.2630208,109.757161 30.1132812,109.607422 C29.9635417,109.607422 29.8886719,109.532552 29.8886719,109.382812 C29.8886719,109.233073 29.8886719,109.083333 29.8886719,108.933594 C29.8886719,107.436198 29.8886719,105.489583 29.8886719,103.09375 C29.8886719,100.697917 29.8886719,97.8528646 29.8886719,94.5585938 C29.7389323,94.7083333 29.5891927,94.8580729 29.4394531,95.0078125 C29.4394531,95.0078125 29.3645833,95.0826823 29.2148438,95.2324219 C29.0651042,95.3821615 28.9153646,95.4570312 28.765625,95.4570312 C28.6158854,95.6067708 28.5410156,95.6816406 28.5410156,95.6816406 C28.391276,95.6816406 28.2415365,95.6067708 28.0917969,95.4570312 C27.9420573,95.4570312 27.8671875,95.3821615 27.8671875,95.2324219 C27.7174479,95.2324219 27.6425781,95.1575521 27.6425781,95.0078125 C27.4928385,94.8580729 27.4179688,94.7083333 27.4179688,94.5585938 C27.4179688,94.4088542 27.4928385,94.3339844 27.6425781,94.3339844 C27.6425781,94.1842448 27.7174479,94.0345052 27.8671875,93.8847656 C28.0169271,93.735026 28.3164062,93.4355469 28.765625,92.9863281 C29.2148438,92.5371094 29.6640625,92.0878906 30.1132812,91.6386719 C30.2630208,91.4889323 30.3378906,91.4140625 30.3378906,91.4140625 C30.4876302,91.4140625 30.5625,91.4140625 30.5625,91.4140625 C30.7122396,91.4140625 30.7871094,91.4140625 30.7871094,91.4140625 C30.7871094,91.4140625 30.7871094,91.4140625 30.7871094,91.4140625 C30.936849,91.4140625 31.0117188,91.4140625 31.0117188,91.4140625 C31.0117188,91.4140625 31.0865885,91.4140625 31.2363281,91.4140625 Z M45.1621094,60.4179688 C44.4134115,60.4179688 43.6647135,60.4179688 42.9160156,60.4179688 C42.1673177,60.4179688 41.34375,60.4179688 40.4453125,60.4179688 C39.6966146,60.4179688 38.9479167,60.4179688 38.1992188,60.4179688 C37.4505208,60.4179688 36.7018229,60.4179688 35.953125,60.4179688 C35.8033854,60.4179688 35.7285156,60.4179688 35.7285156,60.4179688 C35.578776,60.4179688 35.5039062,60.4179688 35.5039062,60.4179688 C35.3541667,60.4179688 35.2792969,60.4179688 35.2792969,60.4179688 C35.2792969,60.2682292 35.2044271,60.1933594 35.0546875,60.1933594 C35.0546875,60.1933594 35.0546875,60.1184896 35.0546875,59.96875 C35.0546875,59.96875 34.9798177,59.96875 34.8300781,59.96875 C34.8300781,59.8190104 34.8300781,59.7441406 34.8300781,59.7441406 C34.8300781,59.7441406 34.8300781,59.6692708 34.8300781,59.5195312 C34.8300781,59.5195312 34.8300781,59.5195312 34.8300781,59.5195312 C34.8300781,59.5195312 34.8300781,59.5195312 34.8300781,59.5195312 C34.8300781,59.5195312 34.9049479,59.3697917 35.0546875,59.0703125 C35.0546875,58.7708333 35.1295573,58.3964844 35.2792969,57.9472656 C35.2792969,57.4980469 35.4290365,57.0488281 35.7285156,56.5996094 C35.8782552,56.1503906 36.1777344,55.6263021 36.6269531,55.0273438 C36.7766927,54.7278646 37.0013021,54.4283854 37.3007812,54.1289062 C37.4505208,53.8294271 37.6751302,53.5299479 37.9746094,53.2304688 C38.2740885,52.9309896 38.6484375,52.6315104 39.0976562,52.3320312 C39.3971354,52.0325521 39.7714844,51.7330729 40.2207031,51.4335938 C40.969401,50.984375 41.6432292,50.5351562 42.2421875,50.0859375 C42.6914062,49.6367188 43.0657552,49.1875 43.3652344,48.7382812 C43.514974,48.4388021 43.6647135,48.0644531 43.8144531,47.6152344 C43.9641927,47.3157552 44.0390625,47.016276 44.0390625,46.7167969 C44.0390625,46.5670573 44.0390625,46.4921875 44.0390625,46.4921875 C44.0390625,46.3424479 44.0390625,46.1927083 44.0390625,46.0429688 C43.8893229,46.0429688 43.8144531,45.968099 43.8144531,45.8183594 C43.8144531,45.6686198 43.8144531,45.5188802 43.8144531,45.3691406 C43.6647135,45.219401 43.514974,45.0696615 43.3652344,44.9199219 C43.2154948,44.6204427 42.9908854,44.3958333 42.6914062,44.2460938 C42.5416667,44.0963542 42.2421875,44.0214844 41.7929688,44.0214844 C41.4934896,43.8717448 41.1191406,43.796875 40.6699219,43.796875 C40.2207031,43.796875 39.8463542,43.8717448 39.546875,44.0214844 C39.2473958,44.0214844 38.9479167,44.0963542 38.6484375,44.2460938 C38.3489583,44.3958333 38.124349,44.6204427 37.9746094,44.9199219 C37.8248698,45.219401 37.6751302,45.5188802 37.5253906,45.8183594 C37.375651,45.8183594 37.3007812,45.8932292 37.3007812,46.0429688 C37.1510417,46.1927083 37.0013021,46.2675781 36.8515625,46.2675781 C36.7018229,46.2675781 36.6269531,46.2675781 36.6269531,46.2675781 C36.4772135,46.2675781 36.327474,46.2675781 36.1777344,46.2675781 C36.0279948,46.1178385 35.953125,46.0429688 35.953125,46.0429688 C35.8033854,45.8932292 35.7285156,45.7434896 35.7285156,45.59375 C35.578776,45.4440104 35.5039062,45.3691406 35.5039062,45.3691406 C35.6536458,45.219401 35.7285156,45.0696615 35.7285156,44.9199219 C35.8782552,44.4707031 36.1777344,44.0214844 36.6269531,43.5722656 C36.9264323,43.2727865 37.2259115,42.9733073 37.5253906,42.6738281 C37.9746094,42.374349 38.4986979,42.1497396 39.0976562,42 C39.546875,42 40.0709635,42 40.6699219,42 C41.5683594,42 42.3919271,42.0748698 43.140625,42.2246094 C43.7395833,42.5240885 44.2636719,42.8984375 44.7128906,43.3476562 C45.1621094,43.9466146 45.4615885,44.5455729 45.6113281,45.1445312 C45.9108073,45.59375 46.0605469,46.1178385 46.0605469,46.7167969 C46.0605469,47.3157552 45.9108073,47.9147135 45.6113281,48.5136719 C45.4615885,49.1126302 45.2369792,49.6367188 44.9375,50.0859375 C44.4882812,50.5351562 43.9641927,51.0592448 43.3652344,51.6582031 C42.766276,52.1074219 42.0175781,52.6315104 41.1191406,53.2304688 C40.5201823,53.6796875 39.9960938,54.1289062 39.546875,54.578125 C38.9479167,55.0273438 38.4986979,55.4765625 38.1992188,55.9257812 C37.8997396,56.5247396 37.6751302,57.0488281 37.5253906,57.4980469 C37.375651,57.797526 37.2259115,58.171875 37.0761719,58.6210938 C37.9746094,58.6210938 39.0976562,58.6210938 40.4453125,58.6210938 C41.7929688,58.6210938 43.3652344,58.6210938 45.1621094,58.6210938 C45.311849,58.6210938 45.4615885,58.6210938 45.6113281,58.6210938 C45.7610677,58.6210938 45.8359375,58.6959635 45.8359375,58.8457031 C45.9856771,58.9954427 46.0605469,59.0703125 46.0605469,59.0703125 C46.2102865,59.2200521 46.2851562,59.3697917 46.2851562,59.5195312 C46.2851562,59.6692708 46.2102865,59.8190104 46.0605469,59.96875 C46.0605469,60.1184896 45.9856771,60.1933594 45.8359375,60.1933594 C45.8359375,60.343099 45.7610677,60.4179688 45.6113281,60.4179688 C45.4615885,60.4179688 45.311849,60.4179688 45.1621094,60.4179688 Z"/></svg>