<svg xmlns="http://www.w3.org/2000/svg" width="243" height="243" viewBox="0 0 243 243"><path fill="#131313" d="M144.90625,65.1347656 C142.660156,65.1347656 140.713542,64.3111979 139.066406,62.6640625 C137.419271,61.1666667 136.595703,59.2949219 136.595703,57.0488281 C136.595703,54.8027344 137.419271,52.8561198 139.066406,51.2089844 C140.713542,49.7115885 142.660156,48.9628906 144.90625,48.9628906 C147.002604,48.9628906 148.874349,49.7115885 150.521484,51.2089844 C152.16862,52.8561198 152.992188,54.8027344 152.992188,57.0488281 C152.992188,59.2949219 152.16862,61.1666667 150.521484,62.6640625 C148.874349,64.3111979 147.002604,65.1347656 144.90625,65.1347656 Z M91.6738281,221.6875 C91.2246094,220.639323 91,219.666016 91,218.767578 C91,217.569661 91.2246094,216.446615 91.6738281,215.398438 C92.5722656,213.302083 94.0696615,211.879557 96.1660156,211.130859 C98.2623698,210.232422 100.358724,210.232422 102.455078,211.130859 C104.551432,212.029297 105.973958,213.526693 106.722656,215.623047 C108.220052,219.067057 110.166667,221.83724 112.5625,223.933594 C115.108073,225.880208 117.878255,226.853516 120.873047,226.853516 C126.113932,226.853516 130.082031,224.008464 132.777344,218.318359 C135.322917,212.478516 136.595703,203.79362 136.595703,192.263672 C136.595703,169.203776 136.595703,134.464193 136.595703,88.0449219 C136.595703,85.7988281 137.419271,83.8522135 139.066406,82.2050781 C140.563802,80.7076823 142.510417,79.9589844 144.90625,79.9589844 C147.152344,79.9589844 149.024089,80.7076823 150.521484,82.2050781 C152.16862,83.8522135 152.992188,85.7988281 152.992188,88.0449219 C152.992188,111.254557 152.992188,145.994141 152.992188,192.263672 C152.992188,206.039714 151.345052,216.521484 148.050781,223.708984 C144.90625,230.896484 141.013021,235.98763 136.371094,238.982422 C133.825521,240.479818 131.205078,241.602865 128.509766,242.351562 C125.964193,242.950521 123.41862,243.25 120.873047,243.25 C114.583984,243.25 108.81901,241.303385 103.578125,237.410156 C98.1875,233.516927 94.219401,228.276042 91.6738281,221.6875 Z M123.568359,93.2109375 C123.718099,93.3606771 123.942708,93.4355469 124.242188,93.4355469 C124.391927,93.4355469 124.541667,93.4355469 124.691406,93.4355469 C124.841146,93.4355469 125.065755,93.4355469 125.365234,93.4355469 C125.514974,93.4355469 125.664714,93.3606771 125.814453,93.2109375 C125.814453,102.644531 125.814453,116.720052 125.814453,135.4375 C125.365234,135.4375 124.616536,135.4375 123.568359,135.4375 C123.568359,128.39974 123.568359,121.361979 123.568359,114.324219 C123.568359,107.286458 123.568359,100.248698 123.568359,93.2109375 Z M125.814453,137.683594 C125.814453,137.234375 125.814453,136.485677 125.814453,135.4375 C126.413411,135.4375 127.162109,135.4375 128.060547,135.4375 C127.311849,138.282552 126.188802,142.47526 124.691406,148.015625 C123.942708,145.170573 122.819661,140.977865 121.322266,135.4375 C121.921224,135.4375 122.669922,135.4375 123.568359,135.4375 C123.568359,136.036458 123.568359,136.785156 123.568359,137.683594 C124.167318,137.683594 124.916016,137.683594 125.814453,137.683594 Z M123.568359,135.4375 C124.167318,135.4375 124.916016,135.4375 125.814453,135.4375 C125.814453,136.036458 125.814453,136.785156 125.814453,137.683594 C125.365234,137.683594 124.616536,137.683594 123.568359,137.683594 C123.568359,137.234375 123.568359,136.485677 123.568359,135.4375 Z M129.632812,89.1679688 C129.632812,89.0182292 129.632812,88.9433594 129.632812,88.9433594 C129.632812,88.7936198 129.632812,88.6438802 129.632812,88.4941406 C129.632812,88.6438802 129.632812,88.7936198 129.632812,88.9433594 C129.632812,88.9433594 129.632812,89.0182292 129.632812,89.1679688 Z M129.632812,88.4941406 C129.632812,88.4941406 129.632812,88.4192708 129.632812,88.2695312 C129.632812,88.2695312 129.632812,88.1946615 129.632812,88.0449219 C129.632812,88.1946615 129.632812,88.2695312 129.632812,88.2695312 C129.632812,88.4192708 129.632812,88.4941406 129.632812,88.4941406 Z M129.632812,87.8203125 C129.632812,87.9700521 129.632812,88.0449219 129.632812,88.0449219 C129.632812,88.0449219 129.632812,88.0449219 129.632812,88.0449219 C129.632812,88.0449219 129.632812,88.0449219 129.632812,88.0449219 C129.632812,87.8951823 129.632812,87.8203125 129.632812,87.8203125 Z M124.691406,83.5527344 C126.039062,83.5527344 127.162109,84.0768229 128.060547,85.125 C129.108724,86.0234375 129.632812,87.1464844 129.632812,88.4941406 C129.632812,89.6920573 129.258464,90.7402344 128.509766,91.6386719 C127.761068,92.5371094 126.86263,93.0611979 125.814453,93.2109375 C125.814453,93.0611979 125.814453,92.9114583 125.814453,92.7617188 C126.712891,92.4622396 127.461589,91.938151 128.060547,91.1894531 C128.659505,90.4407552 128.958984,89.5423177 128.958984,88.4941406 C128.958984,87.296224 128.584635,86.3229167 127.835938,85.5742188 C126.9375,84.6757812 125.889323,84.2265625 124.691406,84.2265625 C123.49349,84.2265625 122.445312,84.6757812 121.546875,85.5742188 C120.798177,86.3229167 120.423828,87.296224 120.423828,88.4941406 C120.423828,89.5423177 120.723307,90.4407552 121.322266,91.1894531 C121.921224,91.938151 122.669922,92.4622396 123.568359,92.7617188 C123.568359,92.7617188 123.568359,92.9114583 123.568359,93.2109375 C122.520182,93.0611979 121.621745,92.5371094 120.873047,91.6386719 C120.124349,90.7402344 119.75,89.6920573 119.75,88.4941406 C119.75,87.1464844 120.274089,86.0234375 121.322266,85.125 C122.220703,84.0768229 123.34375,83.5527344 124.691406,83.5527344 Z M124.691406,92.7617188 C124.841146,92.7617188 125.065755,92.7617188 125.365234,92.7617188 C125.514974,92.7617188 125.664714,92.7617188 125.814453,92.7617188 C125.814453,92.7617188 125.814453,92.9114583 125.814453,93.2109375 C125.664714,93.3606771 125.514974,93.4355469 125.365234,93.4355469 C125.065755,93.4355469 124.841146,93.4355469 124.691406,93.4355469 C124.541667,93.4355469 124.391927,93.4355469 124.242188,93.4355469 C123.942708,93.4355469 123.718099,93.3606771 123.568359,93.2109375 C123.568359,93.0611979 123.568359,92.9114583 123.568359,92.7617188 C123.718099,92.7617188 123.942708,92.7617188 124.242188,92.7617188 C124.391927,92.7617188 124.541667,92.7617188 124.691406,92.7617188 Z M120.873047,88.4941406 C120.873047,87.8951823 120.873047,87.7454427 120.873047,88.0449219 C120.873047,88.344401 120.873047,88.6438802 120.873047,88.9433594 C120.873047,88.9433594 120.873047,88.8684896 120.873047,88.71875 C120.873047,88.71875 120.873047,88.6438802 120.873047,88.4941406 Z M120.873047,88.4941406 C120.873047,89.3925781 121.172526,90.141276 121.771484,90.7402344 C122.220703,91.3391927 122.819661,91.7884115 123.568359,92.0878906 C123.568359,92.2376302 123.568359,92.4622396 123.568359,92.7617188 C122.669922,92.4622396 121.921224,91.938151 121.322266,91.1894531 C120.723307,90.4407552 120.423828,89.5423177 120.423828,88.4941406 C120.423828,87.296224 120.798177,86.3229167 121.546875,85.5742188 C122.445312,84.6757812 123.49349,84.2265625 124.691406,84.2265625 C125.889323,84.2265625 126.9375,84.6757812 127.835938,85.5742188 C128.584635,86.3229167 128.958984,87.296224 128.958984,88.4941406 C128.958984,89.5423177 128.659505,90.4407552 128.060547,91.1894531 C127.461589,91.938151 126.712891,92.4622396 125.814453,92.7617188 C125.814453,92.6119792 125.814453,92.3873698 125.814453,92.0878906 C126.563151,91.7884115 127.236979,91.3391927 127.835938,90.7402344 C128.285156,90.141276 128.509766,89.3925781 128.509766,88.4941406 C128.509766,87.4459635 128.135417,86.547526 127.386719,85.7988281 C126.638021,85.0501302 125.739583,84.6757812 124.691406,84.6757812 C123.643229,84.6757812 122.744792,85.0501302 121.996094,85.7988281 C121.247396,86.547526 120.873047,87.4459635 120.873047,88.4941406 C120.873047,87.8951823 120.873047,87.7454427 120.873047,88.0449219 C120.873047,88.344401 120.873047,88.6438802 120.873047,88.9433594 C120.873047,88.9433594 120.873047,88.9433594 120.873047,88.9433594 C120.873047,88.9433594 120.873047,88.9433594 120.873047,88.9433594 C120.873047,88.9433594 120.873047,88.9433594 120.873047,88.9433594 C120.873047,88.9433594 120.873047,88.9433594 120.873047,88.9433594 C120.873047,88.9433594 120.873047,88.8684896 120.873047,88.71875 C120.873047,88.71875 120.873047,88.6438802 120.873047,88.4941406 Z M125.814453,92.7617188 C125.664714,92.7617188 125.514974,92.7617188 125.365234,92.7617188 C125.065755,92.7617188 124.841146,92.7617188 124.691406,92.7617188 C124.541667,92.7617188 124.391927,92.7617188 124.242188,92.7617188 C123.942708,92.7617188 123.718099,92.7617188 123.568359,92.7617188 C123.568359,92.6119792 123.568359,92.3873698 123.568359,92.0878906 C123.718099,92.0878906 123.867839,92.1627604 124.017578,92.3125 C124.317057,92.3125 124.541667,92.3125 124.691406,92.3125 C124.990885,92.3125 125.215495,92.3125 125.365234,92.3125 C125.514974,92.1627604 125.664714,92.0878906 125.814453,92.0878906 C125.814453,92.2376302 125.814453,92.3125 125.814453,92.3125 C125.814453,92.4622396 125.814453,92.6119792 125.814453,92.7617188 Z M113.236328,91.4140625 C113.236328,91.4140625 113.311198,91.4889323 113.460938,91.6386719 C113.460938,91.6386719 113.535807,91.7135417 113.685547,91.8632812 C113.685547,91.8632812 113.685547,91.938151 113.685547,92.0878906 C113.685547,92.0878906 113.685547,92.1627604 113.685547,92.3125 C113.685547,94.109375 113.685547,96.4303385 113.685547,99.2753906 C113.685547,101.970703 113.685547,105.190104 113.685547,108.933594 C113.685547,109.083333 113.685547,109.233073 113.685547,109.382812 C113.685547,109.382812 113.610677,109.457682 113.460938,109.607422 C113.311198,109.757161 113.236328,109.832031 113.236328,109.832031 C113.086589,109.832031 112.936849,109.832031 112.787109,109.832031 C112.63737,109.832031 112.48763,109.832031 112.337891,109.832031 C112.337891,109.832031 112.263021,109.757161 112.113281,109.607422 C111.963542,109.607422 111.888672,109.532552 111.888672,109.382812 C111.888672,109.233073 111.888672,109.083333 111.888672,108.933594 C111.888672,107.436198 111.888672,105.489583 111.888672,103.09375 C111.888672,100.697917 111.888672,97.8528646 111.888672,94.5585938 C111.738932,94.7083333 111.589193,94.8580729 111.439453,95.0078125 C111.439453,95.0078125 111.364583,95.0826823 111.214844,95.2324219 C111.065104,95.3821615 110.915365,95.4570312 110.765625,95.4570312 C110.615885,95.6067708 110.541016,95.6816406 110.541016,95.6816406 C110.391276,95.6816406 110.241536,95.6067708 110.091797,95.4570312 C109.942057,95.4570312 109.867188,95.3821615 109.867188,95.2324219 C109.717448,95.2324219 109.642578,95.1575521 109.642578,95.0078125 C109.492839,94.8580729 109.417969,94.7083333 109.417969,94.5585938 C109.417969,94.4088542 109.492839,94.3339844 109.642578,94.3339844 C109.642578,94.1842448 109.717448,94.0345052 109.867188,93.8847656 C110.016927,93.735026 110.316406,93.4355469 110.765625,92.9863281 C111.214844,92.5371094 111.664062,92.0878906 112.113281,91.6386719 C112.263021,91.4889323 112.337891,91.4140625 112.337891,91.4140625 C112.48763,91.4140625 112.5625,91.4140625 112.5625,91.4140625 C112.71224,91.4140625 112.787109,91.4140625 112.787109,91.4140625 C112.787109,91.4140625 112.787109,91.4140625 112.787109,91.4140625 C112.936849,91.4140625 113.011719,91.4140625 113.011719,91.4140625 C113.011719,91.4140625 113.086589,91.4140625 113.236328,91.4140625 Z M127.162109,60.4179688 C126.413411,60.4179688 125.664714,60.4179688 124.916016,60.4179688 C124.167318,60.4179688 123.34375,60.4179688 122.445312,60.4179688 C121.696615,60.4179688 120.947917,60.4179688 120.199219,60.4179688 C119.450521,60.4179688 118.701823,60.4179688 117.953125,60.4179688 C117.803385,60.4179688 117.728516,60.4179688 117.728516,60.4179688 C117.578776,60.4179688 117.503906,60.4179688 117.503906,60.4179688 C117.354167,60.4179688 117.279297,60.4179688 117.279297,60.4179688 C117.279297,60.2682292 117.204427,60.1933594 117.054688,60.1933594 C117.054688,60.1933594 117.054688,60.1184896 117.054688,59.96875 C117.054688,59.96875 116.979818,59.96875 116.830078,59.96875 C116.830078,59.8190104 116.830078,59.7441406 116.830078,59.7441406 C116.830078,59.7441406 116.830078,59.6692708 116.830078,59.5195312 C116.830078,59.5195312 116.830078,59.5195312 116.830078,59.5195312 C116.830078,59.5195312 116.830078,59.5195312 116.830078,59.5195312 C116.830078,59.5195312 116.904948,59.3697917 117.054688,59.0703125 C117.054688,58.7708333 117.129557,58.3964844 117.279297,57.9472656 C117.279297,57.4980469 117.429036,57.0488281 117.728516,56.5996094 C117.878255,56.1503906 118.177734,55.6263021 118.626953,55.0273438 C118.776693,54.7278646 119.001302,54.4283854 119.300781,54.1289062 C119.450521,53.8294271 119.67513,53.5299479 119.974609,53.2304688 C120.274089,52.9309896 120.648438,52.6315104 121.097656,52.3320312 C121.397135,52.0325521 121.771484,51.7330729 122.220703,51.4335938 C122.969401,50.984375 123.643229,50.5351562 124.242188,50.0859375 C124.691406,49.6367188 125.065755,49.1875 125.365234,48.7382812 C125.514974,48.4388021 125.664714,48.0644531 125.814453,47.6152344 C125.964193,47.3157552 126.039062,47.016276 126.039062,46.7167969 C126.039062,46.5670573 126.039062,46.4921875 126.039062,46.4921875 C126.039062,46.3424479 126.039062,46.1927083 126.039062,46.0429688 C125.889323,46.0429688 125.814453,45.968099 125.814453,45.8183594 C125.814453,45.6686198 125.814453,45.5188802 125.814453,45.3691406 C125.664714,45.219401 125.514974,45.0696615 125.365234,44.9199219 C125.215495,44.6204427 124.990885,44.3958333 124.691406,44.2460938 C124.541667,44.0963542 124.242188,44.0214844 123.792969,44.0214844 C123.49349,43.8717448 123.119141,43.796875 122.669922,43.796875 C122.220703,43.796875 121.846354,43.8717448 121.546875,44.0214844 C121.247396,44.0214844 120.947917,44.0963542 120.648438,44.2460938 C120.348958,44.3958333 120.124349,44.6204427 119.974609,44.9199219 C119.82487,45.219401 119.67513,45.5188802 119.525391,45.8183594 C119.375651,45.8183594 119.300781,45.8932292 119.300781,46.0429688 C119.151042,46.1927083 119.001302,46.2675781 118.851562,46.2675781 C118.701823,46.2675781 118.626953,46.2675781 118.626953,46.2675781 C118.477214,46.2675781 118.327474,46.2675781 118.177734,46.2675781 C118.027995,46.1178385 117.953125,46.0429688 117.953125,46.0429688 C117.803385,45.8932292 117.728516,45.7434896 117.728516,45.59375 C117.578776,45.4440104 117.503906,45.3691406 117.503906,45.3691406 C117.653646,45.219401 117.728516,45.0696615 117.728516,44.9199219 C117.878255,44.4707031 118.177734,44.0214844 118.626953,43.5722656 C118.926432,43.2727865 119.225911,42.9733073 119.525391,42.6738281 C119.974609,42.374349 120.498698,42.1497396 121.097656,42 C121.546875,42 122.070964,42 122.669922,42 C123.568359,42 124.391927,42.0748698 125.140625,42.2246094 C125.739583,42.5240885 126.263672,42.8984375 126.712891,43.3476562 C127.162109,43.9466146 127.461589,44.5455729 127.611328,45.1445312 C127.910807,45.59375 128.060547,46.1178385 128.060547,46.7167969 C128.060547,47.3157552 127.910807,47.9147135 127.611328,48.5136719 C127.461589,49.1126302 127.236979,49.6367188 126.9375,50.0859375 C126.488281,50.5351562 125.964193,51.0592448 125.365234,51.6582031 C124.766276,52.1074219 124.017578,52.6315104 123.119141,53.2304688 C122.520182,53.6796875 121.996094,54.1289062 121.546875,54.578125 C120.947917,55.0273438 120.498698,55.4765625 120.199219,55.9257812 C119.89974,56.5247396 119.67513,57.0488281 119.525391,57.4980469 C119.375651,57.797526 119.225911,58.171875 119.076172,58.6210938 C119.974609,58.6210938 121.097656,58.6210938 122.445312,58.6210938 C123.792969,58.6210938 125.365234,58.6210938 127.162109,58.6210938 C127.311849,58.6210938 127.461589,58.6210938 127.611328,58.6210938 C127.761068,58.6210938 127.835938,58.6959635 127.835938,58.8457031 C127.985677,58.9954427 128.060547,59.0703125 128.060547,59.0703125 C128.210286,59.2200521 128.285156,59.3697917 128.285156,59.5195312 C128.285156,59.6692708 128.210286,59.8190104 128.060547,59.96875 C128.060547,60.1184896 127.985677,60.1933594 127.835938,60.1933594 C127.835938,60.343099 127.761068,60.4179688 127.611328,60.4179688 C127.461589,60.4179688 127.311849,60.4179688 127.162109,60.4179688 Z"/></svg>