<svg xmlns="http://www.w3.org/2000/svg" width="79" height="203" viewBox="0 0 79 203"><path fill="#131313" d="M2222.90625,53.1347656 C2220.66016,53.1347656 2218.71354,52.3111979 2217.06641,50.6640625 C2215.41927,49.1666667 2214.5957,47.2949219 2214.5957,45.0488281 C2214.5957,42.8027344 2215.41927,40.8561198 2217.06641,39.2089844 C2218.71354,37.7115885 2220.66016,36.9628906 2222.90625,36.9628906 C2225.0026,36.9628906 2226.87435,37.7115885 2228.52148,39.2089844 C2230.16862,40.8561198 2230.99219,42.8027344 2230.99219,45.0488281 C2230.99219,47.2949219 2230.16862,49.1666667 2228.52148,50.6640625 C2226.87435,52.3111979 2225.0026,53.1347656 2222.90625,53.1347656 Z M2169.67383,193.6875 C2169.22461,192.639323 2169,191.666016 2169,190.767578 C2169,189.569661 2169.22461,188.446615 2169.67383,187.398438 C2170.57227,185.302083 2172.06966,183.879557 2174.16602,183.130859 C2176.26237,182.232422 2178.35872,182.232422 2180.45508,183.130859 C2182.55143,184.029297 2183.97396,185.526693 2184.72266,187.623047 C2186.22005,191.067057 2188.16667,193.83724 2190.5625,195.933594 C2193.10807,197.880208 2195.87826,198.853516 2198.87305,198.853516 C2204.11393,198.853516 2208.08203,196.008464 2210.77734,190.318359 C2213.32292,184.478516 2214.5957,175.79362 2214.5957,164.263672 C2214.5957,141.203776 2214.5957,122.464193 2214.5957,76.0449219 C2214.5957,73.7988281 2215.41927,71.8522135 2217.06641,70.2050781 C2218.5638,68.7076823 2220.51042,67.9589844 2222.90625,67.9589844 C2225.15234,67.9589844 2227.02409,68.7076823 2228.52148,70.2050781 C2230.16862,71.8522135 2230.99219,73.7988281 2230.99219,76.0449219 C2230.99219,99.2545573 2230.99219,117.994141 2230.99219,164.263672 C2230.99219,178.039714 2229.34505,188.521484 2226.05078,195.708984 C2222.90625,202.896484 2219.01302,207.98763 2214.37109,210.982422 C2211.82552,212.479818 2209.20508,213.602865 2206.50977,214.351563 C2203.96419,214.950521 2201.41862,215.25 2198.87305,215.25 C2192.58398,215.25 2186.81901,213.303385 2181.57812,209.410156 C2176.1875,205.516927 2172.2194,200.276042 2169.67383,193.6875 Z M2201.56836,81.2109375 C2201.7181,81.3606771 2201.94271,81.4355469 2202.24219,81.4355469 C2202.39193,81.4355469 2202.54167,81.4355469 2202.69141,81.4355469 C2202.84115,81.4355469 2203.06576,81.4355469 2203.36523,81.4355469 C2203.51497,81.4355469 2203.66471,81.3606771 2203.81445,81.2109375 C2203.81445,90.6445312 2203.81445,104.720052 2203.81445,123.4375 C2203.36523,123.4375 2202.61654,123.4375 2201.56836,123.4375 C2201.56836,116.39974 2201.56836,109.361979 2201.56836,102.324219 C2201.56836,95.2864583 2201.56836,88.2486979 2201.56836,81.2109375 Z M2203.81445,125.683594 C2203.81445,125.234375 2203.81445,124.485677 2203.81445,123.4375 C2204.41341,123.4375 2205.16211,123.4375 2206.06055,123.4375 C2205.31185,126.282552 2204.1888,130.47526 2202.69141,136.015625 C2201.94271,133.170573 2200.81966,128.977865 2199.32227,123.4375 C2199.92122,123.4375 2200.66992,123.4375 2201.56836,123.4375 C2201.56836,124.036458 2201.56836,124.785156 2201.56836,125.683594 C2202.16732,125.683594 2202.91602,125.683594 2203.81445,125.683594 Z M2201.56836,123.4375 C2202.16732,123.4375 2202.91602,123.4375 2203.81445,123.4375 C2203.81445,124.036458 2203.81445,124.785156 2203.81445,125.683594 C2203.36523,125.683594 2202.61654,125.683594 2201.56836,125.683594 C2201.56836,125.234375 2201.56836,124.485677 2201.56836,123.4375 Z M2207.63281,77.1679688 C2207.63281,77.0182292 2207.63281,76.9433594 2207.63281,76.9433594 C2207.63281,76.7936198 2207.63281,76.6438802 2207.63281,76.4941406 C2207.63281,76.6438802 2207.63281,76.7936198 2207.63281,76.9433594 C2207.63281,76.9433594 2207.63281,77.0182292 2207.63281,77.1679688 Z M2207.63281,76.4941406 C2207.63281,76.4941406 2207.63281,76.4192708 2207.63281,76.2695312 C2207.63281,76.2695312 2207.63281,76.1946615 2207.63281,76.0449219 C2207.63281,76.1946615 2207.63281,76.2695312 2207.63281,76.2695312 C2207.63281,76.4192708 2207.63281,76.4941406 2207.63281,76.4941406 Z M2207.63281,75.8203125 C2207.63281,75.9700521 2207.63281,76.0449219 2207.63281,76.0449219 C2207.63281,76.0449219 2207.63281,76.0449219 2207.63281,76.0449219 C2207.63281,76.0449219 2207.63281,76.0449219 2207.63281,76.0449219 C2207.63281,75.8951823 2207.63281,75.8203125 2207.63281,75.8203125 Z M2202.69141,71.5527344 C2204.03906,71.5527344 2205.16211,72.0768229 2206.06055,73.125 C2207.10872,74.0234375 2207.63281,75.1464844 2207.63281,76.4941406 C2207.63281,77.6920573 2207.25846,78.7402344 2206.50977,79.6386719 C2205.76107,80.5371094 2204.86263,81.0611979 2203.81445,81.2109375 C2203.81445,81.0611979 2203.81445,80.9114583 2203.81445,80.7617188 C2204.71289,80.4622396 2205.46159,79.938151 2206.06055,79.1894531 C2206.65951,78.4407552 2206.95898,77.5423177 2206.95898,76.4941406 C2206.95898,75.296224 2206.58464,74.3229167 2205.83594,73.5742188 C2204.9375,72.6757812 2203.88932,72.2265625 2202.69141,72.2265625 C2201.49349,72.2265625 2200.44531,72.6757812 2199.54687,73.5742188 C2198.79818,74.3229167 2198.42383,75.296224 2198.42383,76.4941406 C2198.42383,77.5423177 2198.72331,78.4407552 2199.32227,79.1894531 C2199.92122,79.938151 2200.66992,80.4622396 2201.56836,80.7617188 C2201.56836,80.7617188 2201.56836,80.9114583 2201.56836,81.2109375 C2200.52018,81.0611979 2199.62174,80.5371094 2198.87305,79.6386719 C2198.12435,78.7402344 2197.75,77.6920573 2197.75,76.4941406 C2197.75,75.1464844 2198.27409,74.0234375 2199.32227,73.125 C2200.2207,72.0768229 2201.34375,71.5527344 2202.69141,71.5527344 Z M2202.69141,80.7617188 C2202.84115,80.7617188 2203.06576,80.7617188 2203.36523,80.7617188 C2203.51497,80.7617188 2203.66471,80.7617188 2203.81445,80.7617188 C2203.81445,80.7617188 2203.81445,80.9114583 2203.81445,81.2109375 C2203.66471,81.3606771 2203.51497,81.4355469 2203.36523,81.4355469 C2203.06576,81.4355469 2202.84115,81.4355469 2202.69141,81.4355469 C2202.54167,81.4355469 2202.39193,81.4355469 2202.24219,81.4355469 C2201.94271,81.4355469 2201.7181,81.3606771 2201.56836,81.2109375 C2201.56836,81.0611979 2201.56836,80.9114583 2201.56836,80.7617188 C2201.7181,80.7617188 2201.94271,80.7617188 2202.24219,80.7617188 C2202.39193,80.7617188 2202.54167,80.7617188 2202.69141,80.7617188 Z M2198.87305,76.4941406 C2198.87305,75.8951823 2198.87305,75.7454427 2198.87305,76.0449219 C2198.87305,76.344401 2198.87305,76.6438802 2198.87305,76.9433594 C2198.87305,76.9433594 2198.87305,76.8684896 2198.87305,76.71875 C2198.87305,76.71875 2198.87305,76.6438802 2198.87305,76.4941406 Z M2198.87305,76.4941406 C2198.87305,77.3925781 2199.17253,78.141276 2199.77148,78.7402344 C2200.2207,79.3391927 2200.81966,79.7884115 2201.56836,80.0878906 C2201.56836,80.2376302 2201.56836,80.4622396 2201.56836,80.7617188 C2200.66992,80.4622396 2199.92122,79.938151 2199.32227,79.1894531 C2198.72331,78.4407552 2198.42383,77.5423177 2198.42383,76.4941406 C2198.42383,75.296224 2198.79818,74.3229167 2199.54687,73.5742188 C2200.44531,72.6757812 2201.49349,72.2265625 2202.69141,72.2265625 C2203.88932,72.2265625 2204.9375,72.6757812 2205.83594,73.5742188 C2206.58464,74.3229167 2206.95898,75.296224 2206.95898,76.4941406 C2206.95898,77.5423177 2206.65951,78.4407552 2206.06055,79.1894531 C2205.46159,79.938151 2204.71289,80.4622396 2203.81445,80.7617188 C2203.81445,80.6119792 2203.81445,80.3873698 2203.81445,80.0878906 C2204.56315,79.7884115 2205.23698,79.3391927 2205.83594,78.7402344 C2206.28516,78.141276 2206.50977,77.3925781 2206.50977,76.4941406 C2206.50977,75.4459635 2206.13542,74.547526 2205.38672,73.7988281 C2204.63802,73.0501302 2203.73958,72.6757812 2202.69141,72.6757812 C2201.64323,72.6757812 2200.74479,73.0501302 2199.99609,73.7988281 C2199.2474,74.547526 2198.87305,75.4459635 2198.87305,76.4941406 C2198.87305,75.8951823 2198.87305,75.7454427 2198.87305,76.0449219 C2198.87305,76.344401 2198.87305,76.6438802 2198.87305,76.9433594 C2198.87305,76.9433594 2198.87305,76.9433594 2198.87305,76.9433594 C2198.87305,76.9433594 2198.87305,76.9433594 2198.87305,76.9433594 C2198.87305,76.9433594 2198.87305,76.9433594 2198.87305,76.9433594 C2198.87305,76.9433594 2198.87305,76.9433594 2198.87305,76.9433594 C2198.87305,76.9433594 2198.87305,76.8684896 2198.87305,76.71875 C2198.87305,76.71875 2198.87305,76.6438802 2198.87305,76.4941406 Z M2203.81445,80.7617188 C2203.66471,80.7617188 2203.51497,80.7617188 2203.36523,80.7617188 C2203.06576,80.7617188 2202.84115,80.7617188 2202.69141,80.7617188 C2202.54167,80.7617188 2202.39193,80.7617188 2202.24219,80.7617188 C2201.94271,80.7617188 2201.7181,80.7617188 2201.56836,80.7617188 C2201.56836,80.6119792 2201.56836,80.3873698 2201.56836,80.0878906 C2201.7181,80.0878906 2201.86784,80.1627604 2202.01758,80.3125 C2202.31706,80.3125 2202.54167,80.3125 2202.69141,80.3125 C2202.99089,80.3125 2203.21549,80.3125 2203.36523,80.3125 C2203.51497,80.1627604 2203.66471,80.0878906 2203.81445,80.0878906 C2203.81445,80.2376302 2203.81445,80.3125 2203.81445,80.3125 C2203.81445,80.4622396 2203.81445,80.6119792 2203.81445,80.7617188 Z M2191.23633,79.4140625 C2191.23633,79.4140625 2191.3112,79.4889323 2191.46094,79.6386719 C2191.46094,79.6386719 2191.53581,79.7135417 2191.68555,79.8632812 C2191.68555,79.8632812 2191.68555,79.938151 2191.68555,80.0878906 C2191.68555,80.0878906 2191.68555,80.1627604 2191.68555,80.3125 C2191.68555,82.109375 2191.68555,84.4303385 2191.68555,87.2753906 C2191.68555,89.9707031 2191.68555,93.1901042 2191.68555,96.9335938 C2191.68555,97.0833333 2191.68555,97.2330729 2191.68555,97.3828125 C2191.68555,97.3828125 2191.61068,97.4576823 2191.46094,97.6074219 C2191.3112,97.7571615 2191.23633,97.8320312 2191.23633,97.8320312 C2191.08659,97.8320312 2190.93685,97.8320312 2190.78711,97.8320312 C2190.63737,97.8320312 2190.48763,97.8320312 2190.33789,97.8320312 C2190.33789,97.8320312 2190.26302,97.7571615 2190.11328,97.6074219 C2189.96354,97.6074219 2189.88867,97.5325521 2189.88867,97.3828125 C2189.88867,97.2330729 2189.88867,97.0833333 2189.88867,96.9335938 C2189.88867,95.4361979 2189.88867,93.4895833 2189.88867,91.09375 C2189.88867,88.6979167 2189.88867,85.8528646 2189.88867,82.5585938 C2189.73893,82.7083333 2189.58919,82.8580729 2189.43945,83.0078125 C2189.43945,83.0078125 2189.36458,83.0826823 2189.21484,83.2324219 C2189.0651,83.3821615 2188.91536,83.4570312 2188.76562,83.4570312 C2188.61589,83.6067708 2188.54102,83.6816406 2188.54102,83.6816406 C2188.39128,83.6816406 2188.24154,83.6067708 2188.0918,83.4570312 C2187.94206,83.4570312 2187.86719,83.3821615 2187.86719,83.2324219 C2187.71745,83.2324219 2187.64258,83.1575521 2187.64258,83.0078125 C2187.49284,82.8580729 2187.41797,82.7083333 2187.41797,82.5585938 C2187.41797,82.4088542 2187.49284,82.3339844 2187.64258,82.3339844 C2187.64258,82.1842448 2187.71745,82.0345052 2187.86719,81.8847656 C2188.01693,81.735026 2188.31641,81.4355469 2188.76562,80.9863281 C2189.21484,80.5371094 2189.66406,80.0878906 2190.11328,79.6386719 C2190.26302,79.4889323 2190.33789,79.4140625 2190.33789,79.4140625 C2190.48763,79.4140625 2190.5625,79.4140625 2190.5625,79.4140625 C2190.71224,79.4140625 2190.78711,79.4140625 2190.78711,79.4140625 C2190.78711,79.4140625 2190.78711,79.4140625 2190.78711,79.4140625 C2190.93685,79.4140625 2191.01172,79.4140625 2191.01172,79.4140625 C2191.01172,79.4140625 2191.08659,79.4140625 2191.23633,79.4140625 Z M2205.16211,48.4179688 C2204.41341,48.4179688 2203.66471,48.4179688 2202.91602,48.4179688 C2202.16732,48.4179688 2201.34375,48.4179688 2200.44531,48.4179688 C2199.69661,48.4179688 2198.94792,48.4179688 2198.19922,48.4179688 C2197.45052,48.4179688 2196.70182,48.4179688 2195.95312,48.4179688 C2195.80339,48.4179688 2195.72852,48.4179688 2195.72852,48.4179688 C2195.57878,48.4179688 2195.50391,48.4179688 2195.50391,48.4179688 C2195.35417,48.4179688 2195.2793,48.4179688 2195.2793,48.4179688 C2195.2793,48.2682292 2195.20443,48.1933594 2195.05469,48.1933594 C2195.05469,48.1933594 2195.05469,48.1184896 2195.05469,47.96875 C2195.05469,47.96875 2194.97982,47.96875 2194.83008,47.96875 C2194.83008,47.8190104 2194.83008,47.7441406 2194.83008,47.7441406 C2194.83008,47.7441406 2194.83008,47.6692708 2194.83008,47.5195312 C2194.83008,47.5195312 2194.83008,47.5195312 2194.83008,47.5195312 C2194.83008,47.5195312 2194.83008,47.5195312 2194.83008,47.5195312 C2194.83008,47.5195312 2194.90495,47.3697917 2195.05469,47.0703125 C2195.05469,46.7708333 2195.12956,46.3964844 2195.2793,45.9472656 C2195.2793,45.4980469 2195.42904,45.0488281 2195.72852,44.5996094 C2195.87826,44.1503906 2196.17773,43.6263021 2196.62695,43.0273438 C2196.77669,42.7278646 2197.0013,42.4283854 2197.30078,42.1289063 C2197.45052,41.8294271 2197.67513,41.5299479 2197.97461,41.2304688 C2198.27409,40.9309896 2198.64844,40.6315104 2199.09766,40.3320313 C2199.39714,40.0325521 2199.77148,39.7330729 2200.2207,39.4335938 C2200.9694,38.984375 2201.64323,38.5351563 2202.24219,38.0859375 C2202.69141,37.6367187 2203.06576,37.1875 2203.36523,36.7382812 C2203.51497,36.4388021 2203.66471,36.0644531 2203.81445,35.6152344 C2203.96419,35.3157552 2204.03906,35.016276 2204.03906,34.7167969 C2204.03906,34.5670573 2204.03906,34.4921875 2204.03906,34.4921875 C2204.03906,34.3424479 2204.03906,34.1927083 2204.03906,34.0429687 C2203.88932,34.0429687 2203.81445,33.968099 2203.81445,33.8183594 C2203.81445,33.6686198 2203.81445,33.5188802 2203.81445,33.3691406 C2203.66471,33.219401 2203.51497,33.0696615 2203.36523,32.9199219 C2203.21549,32.6204427 2202.99089,32.3958333 2202.69141,32.2460938 C2202.54167,32.0963542 2202.24219,32.0214844 2201.79297,32.0214844 C2201.49349,31.8717448 2201.11914,31.796875 2200.66992,31.796875 C2200.2207,31.796875 2199.84635,31.8717448 2199.54687,32.0214844 C2199.2474,32.0214844 2198.94792,32.0963542 2198.64844,32.2460938 C2198.34896,32.3958333 2198.12435,32.6204427 2197.97461,32.9199219 C2197.82487,33.219401 2197.67513,33.5188802 2197.52539,33.8183594 C2197.37565,33.8183594 2197.30078,33.8932292 2197.30078,34.0429687 C2197.15104,34.1927083 2197.0013,34.2675781 2196.85156,34.2675781 C2196.70182,34.2675781 2196.62695,34.2675781 2196.62695,34.2675781 C2196.47721,34.2675781 2196.32747,34.2675781 2196.17773,34.2675781 C2196.02799,34.1178385 2195.95312,34.0429687 2195.95312,34.0429687 C2195.80339,33.8932292 2195.72852,33.7434896 2195.72852,33.59375 C2195.57878,33.4440104 2195.50391,33.3691406 2195.50391,33.3691406 C2195.65365,33.219401 2195.72852,33.0696615 2195.72852,32.9199219 C2195.87826,32.4707031 2196.17773,32.0214844 2196.62695,31.5722656 C2196.92643,31.2727865 2197.22591,30.9733073 2197.52539,30.6738281 C2197.97461,30.374349 2198.4987,30.1497396 2199.09766,30 C2199.54687,30 2200.07096,30 2200.66992,30 C2201.56836,30 2202.39193,30.0748698 2203.14062,30.2246094 C2203.73958,30.5240885 2204.26367,30.8984375 2204.71289,31.3476562 C2205.16211,31.9466146 2205.46159,32.5455729 2205.61133,33.1445312 C2205.91081,33.59375 2206.06055,34.1178385 2206.06055,34.7167969 C2206.06055,35.3157552 2205.91081,35.9147135 2205.61133,36.5136719 C2205.46159,37.1126302 2205.23698,37.6367187 2204.9375,38.0859375 C2204.48828,38.5351563 2203.96419,39.0592448 2203.36523,39.6582031 C2202.76628,40.1074219 2202.01758,40.6315104 2201.11914,41.2304688 C2200.52018,41.6796875 2199.99609,42.1289063 2199.54687,42.578125 C2198.94792,43.0273438 2198.4987,43.4765625 2198.19922,43.9257812 C2197.89974,44.5247396 2197.67513,45.0488281 2197.52539,45.4980469 C2197.37565,45.797526 2197.22591,46.171875 2197.07617,46.6210938 C2197.97461,46.6210938 2199.09766,46.6210938 2200.44531,46.6210938 C2201.79297,46.6210938 2203.36523,46.6210938 2205.16211,46.6210938 C2205.31185,46.6210938 2205.46159,46.6210938 2205.61133,46.6210938 C2205.76107,46.6210938 2205.83594,46.6959635 2205.83594,46.8457031 C2205.98568,46.9954427 2206.06055,47.0703125 2206.06055,47.0703125 C2206.21029,47.2200521 2206.28516,47.3697917 2206.28516,47.5195312 C2206.28516,47.6692708 2206.21029,47.8190104 2206.06055,47.96875 C2206.06055,48.1184896 2205.98568,48.1933594 2205.83594,48.1933594 C2205.83594,48.343099 2205.76107,48.4179688 2205.61133,48.4179688 C2205.46159,48.4179688 2205.31185,48.4179688 2205.16211,48.4179688 Z" transform="translate(-2160 -12)"/></svg>