<svg xmlns="http://www.w3.org/2000/svg" width="120" height="203" viewBox="0 0 120 203"><path fill="#131313" d="M2145.94941,153.510742 C2147.32311,155.15918 2147.94128,157.013672 2147.80391,159.074219 C2147.66654,161.134766 2146.84232,162.851888 2145.33125,164.225586 C2144.6444,164.775065 2143.82018,165.187174 2142.85859,165.461914 C2142.03438,165.736654 2141.21016,165.874023 2140.38594,165.874023 C2139.28698,165.874023 2138.25671,165.667969 2137.29512,165.255859 C2136.33353,164.84375 2135.44063,164.225586 2134.61641,163.401367 C2121.70365,148.29069 2102.26582,125.624674 2076.30293,95.4033203 C2076.30293,95.4033203 2076.30293,95.4033203 2076.30293,95.4033203 C2076.30293,95.2659505 2076.23424,95.1972656 2076.09688,95.1972656 C2076.09688,95.1972656 2076.09688,95.1972656 2076.09688,95.1972656 C2076.09688,95.1972656 2076.09688,95.1285807 2076.09688,94.9912109 C2076.09688,109.140299 2076.09688,130.295247 2076.09688,158.456055 C2076.09688,160.516602 2075.34134,162.302409 2073.83027,163.813477 C2072.45658,165.187174 2070.73945,165.874023 2068.67891,165.874023 C2066.61836,165.874023 2064.83255,165.187174 2063.32148,163.813477 C2061.81042,162.302409 2061.05488,160.516602 2061.05488,158.456055 C2061.05488,130.157878 2061.05488,87.710612 2061.05488,31.1142578 C2061.05488,29.0537109 2061.81042,27.2679036 2063.32148,25.7568359 C2064.83255,24.383138 2066.61836,23.6962891 2068.67891,23.6962891 C2070.73945,23.6962891 2072.45658,24.383138 2073.83027,25.7568359 C2075.34134,27.2679036 2076.09688,29.0537109 2076.09688,31.1142578 C2076.09688,43.3401693 2076.09688,61.6103516 2076.09688,85.9248047 C2076.09688,85.9248047 2076.16556,85.9248047 2076.30293,85.9248047 C2076.30293,85.7874349 2076.30293,85.71875 2076.30293,85.71875 C2076.30293,85.71875 2076.37161,85.71875 2076.50898,85.71875 C2076.50898,85.5813802 2076.50898,85.5126953 2076.50898,85.5126953 C2088.59753,72.3251953 2106.66165,52.4752604 2130.70137,25.9628906 C2132.07507,24.4518229 2133.79219,23.6962891 2135.85273,23.6962891 C2135.9901,23.6962891 2136.12747,23.6962891 2136.26484,23.6962891 C2138.18802,23.6962891 2139.83646,24.3144531 2141.21016,25.5507813 C2142.85859,26.9244792 2143.68281,28.6416016 2143.68281,30.7021484 C2143.82018,32.7626953 2143.20202,34.5485026 2141.82832,36.0595703 C2130.70137,48.2854818 2114.07962,66.4869792 2091.96309,90.6640625 C2101.02949,101.241536 2110.02721,111.750326 2118.95625,122.19043 C2128.02266,132.630534 2137.02038,143.070638 2145.94941,153.510742 Z M2105.05293,91.2822266 C2107.9377,94.5791016 2112.12747,99.4557292 2117.62227,105.912109 C2117.21016,106.186849 2116.66068,106.667643 2115.97383,107.354492 C2112.95169,103.782878 2108.41849,98.4254557 2102.37422,91.2822266 C2111.02852,81.8037109 2124.00996,67.5172526 2141.31855,48.4228516 C2141.45592,48.5602214 2141.59329,48.6975911 2141.73066,48.8349609 C2141.86803,48.9723307 2142.0054,49.1097005 2142.14277,49.2470703 C2142.28014,49.3844401 2142.41751,49.5218099 2142.55488,49.6591797 C2142.69225,49.6591797 2142.82962,49.7278646 2142.96699,49.8652344 C2136.64798,56.733724 2130.32897,63.6708984 2124.00996,70.6767578 C2117.69095,77.5452474 2111.37194,84.413737 2105.05293,91.2822266 Z M2141.73066,42.859375 C2142.41751,42.172526 2142.55488,42.0351562 2142.14277,42.4472656 C2141.73066,42.859375 2141.45592,43.2027995 2141.31855,43.4775391 C2141.45592,43.3401693 2141.52461,43.2714844 2141.52461,43.2714844 C2141.66198,43.1341146 2141.73066,42.9967448 2141.73066,42.859375 Z M2142.14277,43.2714844 C2141.59329,43.9583333 2141.24987,44.7138672 2141.1125,45.5380859 C2141.1125,46.4996745 2141.31855,47.3238932 2141.73066,48.0107422 C2141.73066,48.148112 2141.59329,48.2854818 2141.31855,48.4228516 C2140.76908,47.5986328 2140.56302,46.6370443 2140.70039,45.5380859 C2140.70039,44.5764974 2141.04382,43.6835938 2141.73066,42.859375 C2142.55488,41.8977865 2143.58516,41.4169922 2144.82148,41.4169922 C2146.05781,41.4169922 2147.15677,41.8291016 2148.11836,42.6533203 C2149.07995,43.4775391 2149.56074,44.5078125 2149.56074,45.7441406 C2149.69811,46.9804688 2149.35469,48.0794271 2148.53047,49.0410156 C2147.70625,49.7278646 2146.81335,50.139974 2145.85176,50.2773438 C2144.7528,50.4147135 2143.79121,50.2773438 2142.96699,49.8652344 C2143.10436,49.7278646 2143.24173,49.5904948 2143.3791,49.453125 C2144.20332,49.8652344 2145.02754,50.0026042 2145.85176,49.8652344 C2146.67598,49.7278646 2147.43151,49.3157552 2148.11836,48.6289062 C2148.80521,47.8046875 2149.14863,46.843099 2149.14863,45.7441406 C2149.01126,44.6451823 2148.59915,43.7522786 2147.9123,43.0654297 C2147.08809,42.2412109 2146.1265,41.8977865 2145.02754,42.0351562 C2143.92858,42.0351562 2142.96699,42.4472656 2142.14277,43.2714844 Z M2142.96699,49.8652344 C2142.82962,49.7278646 2142.69225,49.6591797 2142.55488,49.6591797 C2142.41751,49.5218099 2142.28014,49.3844401 2142.14277,49.2470703 C2142.0054,49.1097005 2141.86803,48.9723307 2141.73066,48.8349609 C2141.59329,48.6975911 2141.45592,48.5602214 2141.31855,48.4228516 C2141.45592,48.2854818 2141.59329,48.148112 2141.73066,48.0107422 C2141.86803,48.148112 2142.0054,48.2854818 2142.14277,48.4228516 C2142.28014,48.5602214 2142.41751,48.6975911 2142.55488,48.8349609 C2142.69225,48.9723307 2142.82962,49.1097005 2142.96699,49.2470703 C2143.10436,49.2470703 2143.24173,49.3157552 2143.3791,49.453125 C2143.24173,49.453125 2143.17305,49.5218099 2143.17305,49.6591797 C2143.03568,49.6591797 2142.96699,49.7278646 2142.96699,49.8652344 Z M2148.11836,48.6289062 C2147.43151,49.3157552 2146.67598,49.7278646 2145.85176,49.8652344 C2144.89017,50.0026042 2144.06595,49.8652344 2143.3791,49.453125 C2143.3791,49.3157552 2143.51647,49.1783854 2143.79121,49.0410156 C2144.34069,49.3157552 2145.02754,49.3844401 2145.85176,49.2470703 C2146.53861,49.1097005 2147.15677,48.766276 2147.70625,48.2167969 C2148.25573,47.5299479 2148.53047,46.7057292 2148.53047,45.7441406 C2148.53047,44.7825521 2148.18704,43.9583333 2147.5002,43.2714844 C2146.81335,42.7220052 2145.98913,42.4472656 2145.02754,42.4472656 C2144.06595,42.4472656 2143.24173,42.859375 2142.55488,43.6835937 C2142.0054,44.2330729 2141.73066,44.851237 2141.73066,45.5380859 C2141.59329,46.2249349 2141.73066,46.9117839 2142.14277,47.5986328 C2142.0054,47.7360026 2141.86803,47.8733724 2141.73066,48.0107422 C2141.31855,47.3238932 2141.1125,46.4996745 2141.1125,45.5380859 C2141.24987,44.7138672 2141.59329,43.9583333 2142.14277,43.2714844 C2142.96699,42.4472656 2143.92858,42.0351562 2145.02754,42.0351562 C2146.1265,41.8977865 2147.0194,42.2412109 2147.70625,43.0654297 C2148.53047,43.7522786 2149.01126,44.6451823 2149.14863,45.7441406 C2149.14863,46.843099 2148.80521,47.8046875 2148.11836,48.6289062 Z M2142.76094,48.4228516 C2142.89831,48.5602214 2143.03568,48.6975911 2143.17305,48.8349609 C2143.31042,48.8349609 2143.51647,48.9036458 2143.79121,49.0410156 C2143.65384,49.1783854 2143.51647,49.3157552 2143.3791,49.453125 C2143.24173,49.3157552 2143.10436,49.2470703 2142.96699,49.2470703 C2142.82962,49.1097005 2142.69225,48.9723307 2142.55488,48.8349609 C2142.41751,48.6975911 2142.28014,48.5602214 2142.14277,48.4228516 C2142.0054,48.2854818 2141.86803,48.148112 2141.73066,48.0107422 C2141.86803,47.8733724 2142.0054,47.7360026 2142.14277,47.5986328 C2142.28014,47.7360026 2142.34883,47.8733724 2142.34883,48.0107422 C2142.4862,48.148112 2142.62357,48.2854818 2142.76094,48.4228516 Z M2119.06465,104.675781 C2120.30098,107.011068 2122.0181,110.513997 2124.21602,115.18457 C2122.15547,113.673503 2118.92728,111.475586 2114.53145,108.59082 C2114.80618,108.316081 2115.28698,107.903971 2115.97383,107.354492 C2116.38594,107.629232 2116.86673,108.110026 2117.41621,108.796875 C2117.69095,108.522135 2118.24043,108.110026 2119.06465,107.560547 C2118.65254,107.148438 2118.17174,106.598958 2117.62227,105.912109 C2117.89701,105.63737 2118.3778,105.22526 2119.06465,104.675781 Z M2115.97383,107.354492 C2116.38594,106.942383 2116.93542,106.461589 2117.62227,105.912109 C2117.89701,106.186849 2118.3778,106.736328 2119.06465,107.560547 C2118.65254,107.835286 2118.10306,108.247396 2117.41621,108.796875 C2117.14147,108.522135 2116.66068,108.041341 2115.97383,107.354492 Z M2050.86055,40.3867188 C2050.99792,40.3867188 2051.13529,40.3867188 2051.27266,40.3867188 C2051.5474,40.5240885 2051.75345,40.5927734 2051.89082,40.5927734 C2052.02819,40.5927734 2052.23424,40.5240885 2052.50898,40.3867188 C2052.64635,40.3867188 2052.78372,40.3867188 2052.92109,40.3867188 C2052.92109,46.2936198 2052.92109,55.2913411 2052.92109,67.3798828 C2052.50898,67.3798828 2051.82214,67.3798828 2050.86055,67.3798828 C2050.86055,62.8466797 2050.86055,58.3134766 2050.86055,53.7802734 C2050.86055,49.3844401 2050.86055,44.9199219 2050.86055,40.3867188 Z M2050.86055,69.4404297 C2050.86055,68.8909505 2050.86055,68.2041016 2050.86055,67.3798828 C2050.44844,67.3798828 2049.76159,67.3798828 2048.8,67.3798828 C2049.48685,69.8525391 2050.51712,73.6302083 2051.89082,78.7128906 C2052.57767,76.2402344 2053.60794,72.4625651 2054.98164,67.3798828 C2054.56953,67.3798828 2053.88268,67.3798828 2052.92109,67.3798828 C2052.92109,67.7919922 2052.92109,68.4788411 2052.92109,69.4404297 C2052.50898,69.4404297 2051.82214,69.4404297 2050.86055,69.4404297 Z M2050.86055,69.4404297 C2051.27266,69.4404297 2051.95951,69.4404297 2052.92109,69.4404297 C2052.92109,68.8909505 2052.92109,68.2041016 2052.92109,67.3798828 C2052.50898,67.3798828 2051.82214,67.3798828 2050.86055,67.3798828 C2050.86055,67.7919922 2050.86055,68.4788411 2050.86055,69.4404297 Z M2051.89082,31.5263672 C2053.12715,31.5263672 2054.15742,31.9384766 2054.98164,32.7626953 C2055.94323,33.7242839 2056.42402,34.8232422 2056.42402,36.0595703 C2056.42402,37.0211589 2056.0806,37.9140625 2055.39375,38.7382812 C2054.7069,39.5625 2053.88268,40.1119792 2052.92109,40.3867188 C2052.92109,40.249349 2052.92109,40.0432943 2052.92109,39.7685547 C2053.74531,39.6311849 2054.43216,39.1503906 2054.98164,38.3261719 C2055.53112,37.6393229 2055.80586,36.8837891 2055.80586,36.0595703 C2055.80586,34.960612 2055.46243,33.9990234 2054.77559,33.1748047 C2053.95137,32.4879557 2052.98978,32.1445312 2051.89082,32.1445312 C2050.79186,32.1445312 2049.83027,32.4879557 2049.00605,33.1748047 C2048.31921,33.9990234 2047.97578,34.960612 2047.97578,36.0595703 C2047.97578,36.8837891 2048.25052,37.6393229 2048.8,38.3261719 C2049.34948,39.1503906 2050.03633,39.6311849 2050.86055,39.7685547 C2050.86055,39.9059245 2050.86055,40.1119792 2050.86055,40.3867188 C2049.89896,40.1119792 2049.07474,39.5625 2048.38789,38.7382812 C2047.70104,37.9140625 2047.35762,37.0211589 2047.35762,36.0595703 C2047.35762,34.8232422 2047.83841,33.7242839 2048.8,32.7626953 C2049.62422,31.9384766 2050.65449,31.5263672 2051.89082,31.5263672 Z M2051.89082,39.9746094 C2052.02819,39.9746094 2052.23424,39.9746094 2052.50898,39.9746094 C2052.64635,39.9746094 2052.78372,39.9059245 2052.92109,39.7685547 C2052.92109,39.9059245 2052.92109,40.1119792 2052.92109,40.3867188 C2052.78372,40.3867188 2052.64635,40.3867188 2052.50898,40.3867188 C2052.23424,40.5240885 2052.02819,40.5927734 2051.89082,40.5927734 C2051.75345,40.5927734 2051.5474,40.5240885 2051.27266,40.3867188 C2051.13529,40.3867188 2050.99792,40.3867188 2050.86055,40.3867188 C2050.86055,40.249349 2050.86055,40.0432943 2050.86055,39.7685547 C2050.99792,39.9059245 2051.13529,39.9746094 2051.27266,39.9746094 C2051.5474,39.9746094 2051.75345,39.9746094 2051.89082,39.9746094 Z M2048.38789,36.0595703 C2048.38789,36.7464193 2048.66263,37.4332682 2049.21211,38.1201172 C2049.62422,38.6695964 2050.1737,39.0817057 2050.86055,39.3564453 C2050.86055,39.3564453 2050.86055,39.4938151 2050.86055,39.7685547 C2050.03633,39.6311849 2049.34948,39.1503906 2048.8,38.3261719 C2048.25052,37.6393229 2047.97578,36.8837891 2047.97578,36.0595703 C2047.97578,34.960612 2048.31921,33.9990234 2049.00605,33.1748047 C2049.83027,32.4879557 2050.79186,32.1445312 2051.89082,32.1445312 C2052.98978,32.1445312 2053.95137,32.4879557 2054.77559,33.1748047 C2055.46243,33.9990234 2055.80586,34.960612 2055.80586,36.0595703 C2055.80586,36.8837891 2055.53112,37.6393229 2054.98164,38.3261719 C2054.43216,39.1503906 2053.74531,39.6311849 2052.92109,39.7685547 C2052.92109,39.6311849 2052.92109,39.4938151 2052.92109,39.3564453 C2053.60794,39.0817057 2054.15742,38.6695964 2054.56953,38.1201172 C2055.11901,37.4332682 2055.39375,36.7464193 2055.39375,36.0595703 C2055.39375,35.0979818 2055.05033,34.273763 2054.36348,33.5869141 C2053.67663,32.9000651 2052.85241,32.5566406 2051.89082,32.5566406 C2050.92923,32.5566406 2050.10501,32.9000651 2049.41816,33.5869141 C2048.73132,34.273763 2048.38789,35.0979818 2048.38789,36.0595703 C2048.38789,35.9222005 2048.38789,35.7848307 2048.38789,35.6474609 C2048.38789,35.5100911 2048.38789,35.4414062 2048.38789,35.4414062 C2048.38789,35.4414062 2048.38789,35.5100911 2048.38789,35.6474609 C2048.38789,35.7848307 2048.38789,35.9222005 2048.38789,36.0595703 C2048.38789,36.1969401 2048.38789,36.3343099 2048.38789,36.4716797 C2048.38789,36.4716797 2048.38789,36.4716797 2048.38789,36.4716797 C2048.38789,36.4716797 2048.38789,36.4716797 2048.38789,36.4716797 C2048.38789,36.3343099 2048.38789,36.1969401 2048.38789,36.0595703 Z M2052.92109,39.7685547 C2052.78372,39.9059245 2052.64635,39.9746094 2052.50898,39.9746094 C2052.23424,39.9746094 2052.02819,39.9746094 2051.89082,39.9746094 C2051.75345,39.9746094 2051.5474,39.9746094 2051.27266,39.9746094 C2051.13529,39.9746094 2050.99792,39.9059245 2050.86055,39.7685547 C2050.86055,39.6311849 2050.86055,39.4938151 2050.86055,39.3564453 C2050.99792,39.3564453 2051.13529,39.3564453 2051.27266,39.3564453 C2051.5474,39.3564453 2051.75345,39.3564453 2051.89082,39.3564453 C2052.02819,39.3564453 2052.23424,39.3564453 2052.50898,39.3564453 C2052.64635,39.3564453 2052.78372,39.3564453 2052.92109,39.3564453 C2052.92109,39.3564453 2052.92109,39.4251302 2052.92109,39.5625 C2052.92109,39.6998698 2052.92109,39.7685547 2052.92109,39.7685547 Z M2041.17598,48.2167969 C2041.17598,48.3541667 2041.10729,48.4228516 2040.96992,48.4228516 C2040.96992,48.5602214 2040.90124,48.6975911 2040.76387,48.8349609 C2040.76387,48.8349609 2040.69518,48.9036458 2040.55781,49.0410156 C2040.42044,49.0410156 2040.28307,49.0410156 2040.1457,49.0410156 C2040.00833,49.0410156 2039.93965,49.0410156 2039.93965,49.0410156 C2039.80228,48.9036458 2039.66491,48.8349609 2039.52754,48.8349609 C2039.52754,48.6975911 2039.45885,48.5602214 2039.32148,48.4228516 C2039.32148,48.4228516 2039.32148,48.3541667 2039.32148,48.2167969 C2039.32148,46.7057292 2039.32148,44.851237 2039.32148,42.6533203 C2039.32148,40.4554036 2039.32148,37.9140625 2039.32148,35.0292969 C2039.18411,35.0292969 2039.11543,35.0979818 2039.11543,35.2353516 C2038.97806,35.3727214 2038.84069,35.5100911 2038.70332,35.6474609 C2038.56595,35.7848307 2038.42858,35.8535156 2038.29121,35.8535156 C2038.29121,35.8535156 2038.22253,35.8535156 2038.08516,35.8535156 C2037.94779,35.8535156 2037.81042,35.8535156 2037.67305,35.8535156 C2037.53568,35.8535156 2037.46699,35.7848307 2037.46699,35.6474609 C2037.32962,35.5100911 2037.26094,35.4414062 2037.26094,35.4414062 C2037.12357,35.3040365 2037.05488,35.1666667 2037.05488,35.0292969 C2037.05488,34.8919271 2037.12357,34.7545573 2037.26094,34.6171875 C2037.26094,34.4798177 2037.32962,34.4111328 2037.46699,34.4111328 C2037.74173,34.1363932 2038.01647,33.7929688 2038.29121,33.3808594 C2038.70332,33.1061198 2039.11543,32.6940104 2039.52754,32.1445312 C2039.66491,32.1445312 2039.73359,32.1445312 2039.73359,32.1445312 C2039.87096,32.0071615 2039.93965,31.9384766 2039.93965,31.9384766 C2040.07702,31.9384766 2040.1457,31.9384766 2040.1457,31.9384766 C2040.1457,31.9384766 2040.1457,31.9384766 2040.1457,31.9384766 C2040.28307,31.9384766 2040.35176,31.9384766 2040.35176,31.9384766 C2040.48913,31.9384766 2040.55781,31.9384766 2040.55781,31.9384766 C2040.69518,32.0758464 2040.76387,32.1445312 2040.76387,32.1445312 C2040.90124,32.281901 2040.96992,32.3505859 2040.96992,32.3505859 C2040.96992,32.4879557 2041.03861,32.5566406 2041.17598,32.5566406 C2041.17598,32.6940104 2041.17598,32.8313802 2041.17598,32.96875 C2041.17598,34.6171875 2041.17598,36.6777344 2041.17598,39.1503906 C2041.17598,41.7604167 2041.17598,44.7825521 2041.17598,48.2167969 Z M2164.19063,47.1865234 C2164.32799,47.1865234 2164.46536,47.2552083 2164.60273,47.3925781 C2164.7401,47.3925781 2164.80879,47.461263 2164.80879,47.5986328 C2164.94616,47.5986328 2165.01484,47.6673177 2165.01484,47.8046875 C2165.15221,47.9420573 2165.2209,48.0794271 2165.2209,48.2167969 C2165.2209,48.2167969 2165.15221,48.2854818 2165.01484,48.4228516 C2165.01484,48.5602214 2164.94616,48.6975911 2164.80879,48.8349609 C2164.80879,48.8349609 2164.7401,48.9036458 2164.60273,49.0410156 C2164.46536,49.0410156 2164.32799,49.0410156 2164.19063,49.0410156 C2163.50378,49.0410156 2162.81693,49.0410156 2162.13008,49.0410156 C2161.44323,49.0410156 2160.6877,49.0410156 2159.86348,49.0410156 C2159.17663,49.0410156 2158.48978,49.0410156 2157.80293,49.0410156 C2157.11608,49.0410156 2156.36055,49.0410156 2155.53633,49.0410156 C2155.53633,49.0410156 2155.53633,49.0410156 2155.53633,49.0410156 C2155.39896,49.0410156 2155.33027,49.0410156 2155.33027,49.0410156 C2155.1929,48.9036458 2155.12422,48.8349609 2155.12422,48.8349609 C2155.12422,48.8349609 2155.05553,48.8349609 2154.91816,48.8349609 C2154.91816,48.6975911 2154.91816,48.6289062 2154.91816,48.6289062 C2154.91816,48.4915365 2154.84948,48.4228516 2154.71211,48.4228516 C2154.71211,48.4228516 2154.71211,48.3541667 2154.71211,48.2167969 C2154.71211,48.2167969 2154.71211,48.2167969 2154.71211,48.2167969 C2154.71211,48.0794271 2154.71211,48.0107422 2154.71211,48.0107422 C2154.71211,48.0107422 2154.71211,48.0107422 2154.71211,48.0107422 C2154.71211,48.0107422 2154.78079,47.8733724 2154.91816,47.5986328 C2154.91816,47.461263 2154.98685,47.1865234 2155.12422,46.7744141 C2155.12422,46.3623047 2155.26159,45.9501953 2155.53633,45.5380859 C2155.6737,44.9886068 2155.94844,44.4391276 2156.36055,43.8896484 C2156.49792,43.6149089 2156.70397,43.3401693 2156.97871,43.0654297 C2157.11608,42.7906901 2157.32214,42.5159505 2157.59688,42.2412109 C2157.87161,41.9664714 2158.14635,41.6917318 2158.42109,41.4169922 C2158.8332,41.2796224 2159.24531,41.0735677 2159.65742,40.7988281 C2160.34427,40.249349 2160.96243,39.7685547 2161.51191,39.3564453 C2161.92402,38.9443359 2162.26745,38.6009115 2162.54219,38.3261719 C2162.67956,37.9140625 2162.81693,37.570638 2162.9543,37.2958984 C2163.09167,37.0211589 2163.16035,36.7464193 2163.16035,36.4716797 C2163.16035,36.3343099 2163.16035,36.1969401 2163.16035,36.0595703 C2163.16035,36.0595703 2163.09167,35.9908854 2162.9543,35.8535156 C2162.9543,35.7161458 2162.9543,35.578776 2162.9543,35.4414062 C2162.9543,35.4414062 2162.9543,35.3727214 2162.9543,35.2353516 C2162.81693,34.960612 2162.67956,34.7545573 2162.54219,34.6171875 C2162.40482,34.4798177 2162.19876,34.3424479 2161.92402,34.2050781 C2161.78665,34.0677083 2161.51191,33.9303385 2161.0998,33.7929688 C2160.82507,33.7929688 2160.48164,33.7929688 2160.06953,33.7929688 C2159.65742,33.7929688 2159.314,33.7929688 2159.03926,33.7929688 C2158.76452,33.9303385 2158.48978,34.0677083 2158.21504,34.2050781 C2157.9403,34.3424479 2157.73424,34.5485026 2157.59688,34.8232422 C2157.45951,34.960612 2157.32214,35.1666667 2157.18477,35.4414062 C2157.0474,35.578776 2156.97871,35.7161458 2156.97871,35.8535156 C2156.84134,35.8535156 2156.70397,35.8535156 2156.5666,35.8535156 C2156.42923,35.9908854 2156.29186,36.0595703 2156.15449,36.0595703 C2156.15449,36.0595703 2156.08581,35.9908854 2155.94844,35.8535156 C2155.81107,35.8535156 2155.6737,35.7848307 2155.53633,35.6474609 C2155.53633,35.6474609 2155.53633,35.578776 2155.53633,35.4414062 C2155.39896,35.3040365 2155.33027,35.1666667 2155.33027,35.0292969 C2155.33027,34.8919271 2155.39896,34.8232422 2155.53633,34.8232422 C2155.6737,34.273763 2155.87975,33.8616536 2156.15449,33.5869141 C2156.5666,33.1748047 2156.91003,32.9000651 2157.18477,32.7626953 C2157.59688,32.4879557 2158.00898,32.281901 2158.42109,32.1445312 C2158.97057,32.0071615 2159.45137,31.9384766 2159.86348,31.9384766 C2160.82507,31.9384766 2161.64928,32.0758464 2162.33613,32.3505859 C2162.88561,32.6253255 2163.36641,32.96875 2163.77852,33.3808594 C2164.19063,33.9303385 2164.46536,34.4111328 2164.60273,34.8232422 C2164.7401,35.3727214 2164.80879,35.9222005 2164.80879,36.4716797 C2164.80879,37.0211589 2164.7401,37.5019531 2164.60273,37.9140625 C2164.46536,38.4635417 2164.19063,39.0130208 2163.77852,39.5625 C2163.50378,39.9746094 2163.09167,40.3867188 2162.54219,40.7988281 C2161.99271,41.3483073 2161.30586,41.8291016 2160.48164,42.2412109 C2159.93216,42.6533203 2159.45137,43.0654297 2159.03926,43.4775391 C2158.48978,43.8896484 2158.07767,44.3704427 2157.80293,44.9199219 C2157.52819,45.3320312 2157.32214,45.7441406 2157.18477,46.15625 C2157.0474,46.5683594 2156.91003,46.9117839 2156.77266,47.1865234 C2157.59688,47.1865234 2158.62715,47.1865234 2159.86348,47.1865234 C2161.0998,47.1865234 2162.54219,47.1865234 2164.19063,47.1865234 Z" transform="translate(-2044.055 -23.734)"/></svg>