<svg xmlns="http://www.w3.org/2000/svg" width="120" height="243" viewBox="0 0 120 243"><path fill="#131313" d="M108.894531,153.776367 C110.268229,155.424805 110.886393,157.279297 110.749023,159.339844 C110.611654,161.400391 109.787435,163.117513 108.276367,164.491211 C107.589518,165.04069 106.765299,165.452799 105.803711,165.727539 C104.979492,166.002279 104.155273,166.139648 103.331055,166.139648 C102.232096,166.139648 101.201823,165.933594 100.240234,165.521484 C99.2786458,165.109375 98.3857422,164.491211 97.5615234,163.666992 C84.648763,148.556315 65.2109375,125.890299 39.2480469,95.6689453 C39.2480469,95.6689453 39.2480469,95.6689453 39.2480469,95.6689453 C39.2480469,95.5315755 39.179362,95.4628906 39.0419922,95.4628906 C39.0419922,95.4628906 39.0419922,95.4628906 39.0419922,95.4628906 C39.0419922,95.4628906 39.0419922,95.3942057 39.0419922,95.2568359 C39.0419922,109.405924 39.0419922,130.560872 39.0419922,158.72168 C39.0419922,160.782227 38.2864583,162.568034 36.7753906,164.079102 C35.4016927,165.452799 33.6845703,166.139648 31.6240234,166.139648 C29.5634766,166.139648 27.7776693,165.452799 26.2666016,164.079102 C24.7555339,162.568034 24,160.782227 24,158.72168 C24,130.423503 24,87.976237 24,31.3798828 C24,29.3193359 24.7555339,27.5335286 26.2666016,26.0224609 C27.7776693,24.648763 29.5634766,23.9619141 31.6240234,23.9619141 C33.6845703,23.9619141 35.4016927,24.648763 36.7753906,26.0224609 C38.2864583,27.5335286 39.0419922,29.3193359 39.0419922,31.3798828 C39.0419922,43.6057943 39.0419922,61.8759766 39.0419922,86.1904297 C39.0419922,86.1904297 39.1106771,86.1904297 39.2480469,86.1904297 C39.2480469,86.0530599 39.2480469,85.984375 39.2480469,85.984375 C39.2480469,85.984375 39.3167318,85.984375 39.4541016,85.984375 C39.4541016,85.8470052 39.4541016,85.7783203 39.4541016,85.7783203 C51.5426432,72.5908203 69.6067708,52.7408854 93.6464844,26.2285156 C95.0201823,24.7174479 96.7373047,23.9619141 98.7978516,23.9619141 C98.9352214,23.9619141 99.0725911,23.9619141 99.2099609,23.9619141 C101.133138,23.9619141 102.781576,24.5800781 104.155273,25.8164062 C105.803711,27.1901042 106.62793,28.9072266 106.62793,30.9677734 C106.765299,33.0283203 106.147135,34.8141276 104.773438,36.3251953 C93.6464844,48.5511068 77.0247396,66.7526042 54.9082031,90.9296875 C63.9746094,101.507161 72.9723307,112.015951 81.9013672,122.456055 C90.9677734,132.896159 99.9654948,143.336263 108.894531,153.776367 Z M67.9980469,91.5478516 C70.8828125,94.8447266 75.0725911,99.7213542 80.5673828,106.177734 C80.1552734,106.452474 79.6057943,106.933268 78.9189453,107.620117 C75.8968099,104.048503 71.3636068,98.6910807 65.3193359,91.5478516 C73.9736328,82.0693359 86.9550781,67.7828776 104.263672,48.6884766 C104.401042,48.8258464 104.538411,48.9632161 104.675781,49.1005859 C104.813151,49.2379557 104.950521,49.3753255 105.087891,49.5126953 C105.22526,49.6500651 105.36263,49.7874349 105.5,49.9248047 C105.63737,49.9248047 105.77474,49.9934896 105.912109,50.1308594 C99.593099,56.999349 93.2740885,63.9365234 86.9550781,70.9423828 C80.6360677,77.8108724 74.3170573,84.679362 67.9980469,91.5478516 Z M104.675781,43.125 C105.36263,42.438151 105.5,42.3007812 105.087891,42.7128906 C104.675781,43.125 104.401042,43.4684245 104.263672,43.7431641 C104.401042,43.6057943 104.469727,43.5371094 104.469727,43.5371094 C104.607096,43.3997396 104.675781,43.2623698 104.675781,43.125 Z M105.087891,43.5371094 C104.538411,44.2239583 104.194987,44.9794922 104.057617,45.8037109 C104.057617,46.7652995 104.263672,47.5895182 104.675781,48.2763672 C104.675781,48.413737 104.538411,48.5511068 104.263672,48.6884766 C103.714193,47.8642578 103.508138,46.9026693 103.645508,45.8037109 C103.645508,44.8421224 103.988932,43.9492188 104.675781,43.125 C105.5,42.1634115 106.530273,41.6826172 107.766602,41.6826172 C109.00293,41.6826172 110.101888,42.0947266 111.063477,42.9189453 C112.025065,43.7431641 112.505859,44.7734375 112.505859,46.0097656 C112.643229,47.2460938 112.299805,48.3450521 111.475586,49.3066406 C110.651367,49.9934896 109.758464,50.405599 108.796875,50.5429688 C107.697917,50.6803385 106.736328,50.5429688 105.912109,50.1308594 C106.049479,49.9934896 106.186849,49.8561198 106.324219,49.71875 C107.148437,50.1308594 107.972656,50.2682292 108.796875,50.1308594 C109.621094,49.9934896 110.376628,49.5813802 111.063477,48.8945312 C111.750326,48.0703125 112.09375,47.108724 112.09375,46.0097656 C111.95638,44.9108073 111.544271,44.0179036 110.857422,43.3310547 C110.033203,42.5068359 109.071615,42.1634115 107.972656,42.3007812 C106.873698,42.3007812 105.912109,42.7128906 105.087891,43.5371094 Z M105.912109,50.1308594 C105.77474,49.9934896 105.63737,49.9248047 105.5,49.9248047 C105.36263,49.7874349 105.22526,49.6500651 105.087891,49.5126953 C104.950521,49.3753255 104.813151,49.2379557 104.675781,49.1005859 C104.538411,48.9632161 104.401042,48.8258464 104.263672,48.6884766 C104.401042,48.5511068 104.538411,48.413737 104.675781,48.2763672 C104.813151,48.413737 104.950521,48.5511068 105.087891,48.6884766 C105.22526,48.8258464 105.36263,48.9632161 105.5,49.1005859 C105.63737,49.2379557 105.77474,49.3753255 105.912109,49.5126953 C106.049479,49.5126953 106.186849,49.5813802 106.324219,49.71875 C106.186849,49.71875 106.118164,49.7874349 106.118164,49.9248047 C105.980794,49.9248047 105.912109,49.9934896 105.912109,50.1308594 Z M111.063477,48.8945313 C110.376628,49.5813802 109.621094,49.9934896 108.796875,50.1308594 C107.835286,50.2682292 107.011068,50.1308594 106.324219,49.71875 C106.324219,49.5813802 106.461589,49.4440104 106.736328,49.3066406 C107.285807,49.5813802 107.972656,49.6500651 108.796875,49.5126953 C109.483724,49.3753255 110.101888,49.031901 110.651367,48.4824219 C111.200846,47.7955729 111.475586,46.9713542 111.475586,46.0097656 C111.475586,45.0481771 111.132161,44.2239583 110.445312,43.5371094 C109.758464,42.9876302 108.934245,42.7128906 107.972656,42.7128906 C107.011068,42.7128906 106.186849,43.125 105.5,43.9492188 C104.950521,44.4986979 104.675781,45.116862 104.675781,45.8037109 C104.538411,46.4905599 104.675781,47.1774089 105.087891,47.8642578 C104.950521,48.0016276 104.813151,48.1389974 104.675781,48.2763672 C104.263672,47.5895182 104.057617,46.7652995 104.057617,45.8037109 C104.194987,44.9794922 104.538411,44.2239583 105.087891,43.5371094 C105.912109,42.7128906 106.873698,42.3007813 107.972656,42.3007813 C109.071615,42.1634115 109.964518,42.5068359 110.651367,43.3310547 C111.475586,44.0179036 111.95638,44.9108073 112.09375,46.0097656 C112.09375,47.108724 111.750326,48.0703125 111.063477,48.8945313 Z M105.706055,48.6884766 C105.843424,48.8258464 105.980794,48.9632161 106.118164,49.1005859 C106.255534,49.1005859 106.461589,49.1692708 106.736328,49.3066406 C106.598958,49.4440104 106.461589,49.5813802 106.324219,49.71875 C106.186849,49.5813802 106.049479,49.5126953 105.912109,49.5126953 C105.77474,49.3753255 105.63737,49.2379557 105.5,49.1005859 C105.36263,48.9632161 105.22526,48.8258464 105.087891,48.6884766 C104.950521,48.5511068 104.813151,48.413737 104.675781,48.2763672 C104.813151,48.1389974 104.950521,48.0016276 105.087891,47.8642578 C105.22526,48.0016276 105.293945,48.1389974 105.293945,48.2763672 C105.431315,48.413737 105.568685,48.5511068 105.706055,48.6884766 Z M82.0097656,104.941406 C83.2460938,107.276693 84.9632161,110.779622 87.1611328,115.450195 C85.1005859,113.939128 81.8723958,111.741211 77.4765625,108.856445 C77.7513021,108.581706 78.2320964,108.169596 78.9189453,107.620117 C79.3310547,107.894857 79.811849,108.375651 80.3613281,109.0625 C80.6360677,108.78776 81.1855469,108.375651 82.0097656,107.826172 C81.5976562,107.414062 81.116862,106.864583 80.5673828,106.177734 C80.8421224,105.902995 81.3229167,105.490885 82.0097656,104.941406 Z M78.9189453,107.620117 C79.3310547,107.208008 79.8805339,106.727214 80.5673828,106.177734 C80.8421224,106.452474 81.3229167,107.001953 82.0097656,107.826172 C81.5976562,108.100911 81.0481771,108.513021 80.3613281,109.0625 C80.0865885,108.78776 79.6057943,108.306966 78.9189453,107.620117 Z M13.8056641,40.6523438 C13.9430339,40.6523438 14.0804036,40.6523438 14.2177734,40.6523438 C14.492513,40.7897135 14.6985677,40.8583984 14.8359375,40.8583984 C14.9733073,40.8583984 15.179362,40.7897135 15.4541016,40.6523438 C15.5914714,40.6523438 15.7288411,40.6523438 15.8662109,40.6523438 C15.8662109,46.5592448 15.8662109,55.5569661 15.8662109,67.6455078 C15.4541016,67.6455078 14.7672526,67.6455078 13.8056641,67.6455078 C13.8056641,63.1123047 13.8056641,58.5791016 13.8056641,54.0458984 C13.8056641,49.6500651 13.8056641,45.1855469 13.8056641,40.6523438 Z M13.8056641,69.7060547 C13.8056641,69.1565755 13.8056641,68.4697266 13.8056641,67.6455078 C13.3935547,67.6455078 12.7067057,67.6455078 11.7451172,67.6455078 C12.4319661,70.1181641 13.4622396,73.8958333 14.8359375,78.9785156 C15.5227865,76.5058594 16.5530599,72.7281901 17.9267578,67.6455078 C17.5146484,67.6455078 16.8277995,67.6455078 15.8662109,67.6455078 C15.8662109,68.0576172 15.8662109,68.7444661 15.8662109,69.7060547 C15.4541016,69.7060547 14.7672526,69.7060547 13.8056641,69.7060547 Z M13.8056641,69.7060547 C14.2177734,69.7060547 14.9046224,69.7060547 15.8662109,69.7060547 C15.8662109,69.1565755 15.8662109,68.4697266 15.8662109,67.6455078 C15.4541016,67.6455078 14.7672526,67.6455078 13.8056641,67.6455078 C13.8056641,68.0576172 13.8056641,68.7444661 13.8056641,69.7060547 Z M14.8359375,31.7919922 C16.0722656,31.7919922 17.1025391,32.2041016 17.9267578,33.0283203 C18.8883464,33.9899089 19.3691406,35.0888672 19.3691406,36.3251953 C19.3691406,37.2867839 19.0257161,38.1796875 18.3388672,39.0039062 C17.6520182,39.828125 16.8277995,40.3776042 15.8662109,40.6523438 C15.8662109,40.514974 15.8662109,40.3089193 15.8662109,40.0341797 C16.6904297,39.8968099 17.3772786,39.4160156 17.9267578,38.5917969 C18.476237,37.9049479 18.7509766,37.1494141 18.7509766,36.3251953 C18.7509766,35.226237 18.4075521,34.2646484 17.7207031,33.4404297 C16.8964844,32.7535807 15.9348958,32.4101562 14.8359375,32.4101562 C13.7369792,32.4101562 12.7753906,32.7535807 11.9511719,33.4404297 C11.2643229,34.2646484 10.9208984,35.226237 10.9208984,36.3251953 C10.9208984,37.1494141 11.195638,37.9049479 11.7451172,38.5917969 C12.2945964,39.4160156 12.9814453,39.8968099 13.8056641,40.0341797 C13.8056641,40.1715495 13.8056641,40.3776042 13.8056641,40.6523438 C12.8440755,40.3776042 12.0198568,39.828125 11.3330078,39.0039062 C10.6461589,38.1796875 10.3027344,37.2867839 10.3027344,36.3251953 C10.3027344,35.0888672 10.7835286,33.9899089 11.7451172,33.0283203 C12.5693359,32.2041016 13.5996094,31.7919922 14.8359375,31.7919922 Z M14.8359375,40.2402344 C14.9733073,40.2402344 15.179362,40.2402344 15.4541016,40.2402344 C15.5914714,40.2402344 15.7288411,40.1715495 15.8662109,40.0341797 C15.8662109,40.1715495 15.8662109,40.3776042 15.8662109,40.6523438 C15.7288411,40.6523438 15.5914714,40.6523438 15.4541016,40.6523438 C15.179362,40.7897135 14.9733073,40.8583984 14.8359375,40.8583984 C14.6985677,40.8583984 14.492513,40.7897135 14.2177734,40.6523438 C14.0804036,40.6523438 13.9430339,40.6523438 13.8056641,40.6523438 C13.8056641,40.514974 13.8056641,40.3089193 13.8056641,40.0341797 C13.9430339,40.1715495 14.0804036,40.2402344 14.2177734,40.2402344 C14.492513,40.2402344 14.6985677,40.2402344 14.8359375,40.2402344 Z M11.3330078,36.3251953 C11.3330078,37.0120443 11.6077474,37.6988932 12.1572266,38.3857422 C12.5693359,38.9352214 13.1188151,39.3473307 13.8056641,39.6220703 C13.8056641,39.6220703 13.8056641,39.7594401 13.8056641,40.0341797 C12.9814453,39.8968099 12.2945964,39.4160156 11.7451172,38.5917969 C11.195638,37.9049479 10.9208984,37.1494141 10.9208984,36.3251953 C10.9208984,35.226237 11.2643229,34.2646484 11.9511719,33.4404297 C12.7753906,32.7535807 13.7369792,32.4101562 14.8359375,32.4101562 C15.9348958,32.4101562 16.8964844,32.7535807 17.7207031,33.4404297 C18.4075521,34.2646484 18.7509766,35.226237 18.7509766,36.3251953 C18.7509766,37.1494141 18.476237,37.9049479 17.9267578,38.5917969 C17.3772786,39.4160156 16.6904297,39.8968099 15.8662109,40.0341797 C15.8662109,39.8968099 15.8662109,39.7594401 15.8662109,39.6220703 C16.5530599,39.3473307 17.1025391,38.9352214 17.5146484,38.3857422 C18.0641276,37.6988932 18.3388672,37.0120443 18.3388672,36.3251953 C18.3388672,35.3636068 17.9954427,34.539388 17.3085938,33.8525391 C16.6217448,33.1656901 15.797526,32.8222656 14.8359375,32.8222656 C13.874349,32.8222656 13.0501302,33.1656901 12.3632812,33.8525391 C11.6764323,34.539388 11.3330078,35.3636068 11.3330078,36.3251953 C11.3330078,36.1878255 11.3330078,36.0504557 11.3330078,35.9130859 C11.3330078,35.7757161 11.3330078,35.7070312 11.3330078,35.7070312 C11.3330078,35.7070312 11.3330078,35.7757161 11.3330078,35.9130859 C11.3330078,36.0504557 11.3330078,36.1878255 11.3330078,36.3251953 C11.3330078,36.4625651 11.3330078,36.5999349 11.3330078,36.7373047 C11.3330078,36.7373047 11.3330078,36.7373047 11.3330078,36.7373047 C11.3330078,36.7373047 11.3330078,36.7373047 11.3330078,36.7373047 C11.3330078,36.5999349 11.3330078,36.4625651 11.3330078,36.3251953 Z M15.8662109,40.0341797 C15.7288411,40.1715495 15.5914714,40.2402344 15.4541016,40.2402344 C15.179362,40.2402344 14.9733073,40.2402344 14.8359375,40.2402344 C14.6985677,40.2402344 14.492513,40.2402344 14.2177734,40.2402344 C14.0804036,40.2402344 13.9430339,40.1715495 13.8056641,40.0341797 C13.8056641,39.8968099 13.8056641,39.7594401 13.8056641,39.6220703 C13.9430339,39.6220703 14.0804036,39.6220703 14.2177734,39.6220703 C14.492513,39.6220703 14.6985677,39.6220703 14.8359375,39.6220703 C14.9733073,39.6220703 15.179362,39.6220703 15.4541016,39.6220703 C15.5914714,39.6220703 15.7288411,39.6220703 15.8662109,39.6220703 C15.8662109,39.6220703 15.8662109,39.6907552 15.8662109,39.828125 C15.8662109,39.9654948 15.8662109,40.0341797 15.8662109,40.0341797 Z M4.12109375,48.4824219 C4.12109375,48.6197917 4.05240885,48.6884766 3.91503906,48.6884766 C3.91503906,48.8258464 3.84635417,48.9632161 3.70898438,49.1005859 C3.70898438,49.1005859 3.64029948,49.1692708 3.50292969,49.3066406 C3.3655599,49.3066406 3.2281901,49.3066406 3.09082031,49.3066406 C2.95345052,49.3066406 2.88476562,49.3066406 2.88476562,49.3066406 C2.74739583,49.1692708 2.61002604,49.1005859 2.47265625,49.1005859 C2.47265625,48.9632161 2.40397135,48.8258464 2.26660156,48.6884766 C2.26660156,48.6884766 2.26660156,48.6197917 2.26660156,48.4824219 C2.26660156,46.9713542 2.26660156,45.116862 2.26660156,42.9189453 C2.26660156,40.7210286 2.26660156,38.1796875 2.26660156,35.2949219 C2.12923177,35.2949219 2.06054688,35.3636068 2.06054688,35.5009766 C1.92317708,35.6383464 1.78580729,35.7757161 1.6484375,35.9130859 C1.51106771,36.0504557 1.37369792,36.1191406 1.23632812,36.1191406 C1.23632812,36.1191406 1.16764323,36.1191406 1.03027344,36.1191406 C0.892903646,36.1191406 0.755533854,36.1191406 0.618164062,36.1191406 C0.480794271,36.1191406 0.412109375,36.0504557 0.412109375,35.9130859 C0.274739583,35.7757161 0.206054688,35.7070312 0.206054688,35.7070312 C0.0686848958,35.5696615 0,35.4322917 0,35.2949219 C0,35.1575521 0.0686848958,35.0201823 0.206054688,34.8828125 C0.206054688,34.7454427 0.274739583,34.6767578 0.412109375,34.6767578 C0.686848958,34.4020182 0.961588542,34.0585938 1.23632812,33.6464844 C1.6484375,33.3717448 2.06054688,32.9596354 2.47265625,32.4101562 C2.61002604,32.4101562 2.67871094,32.4101562 2.67871094,32.4101562 C2.81608073,32.2727865 2.88476562,32.2041016 2.88476562,32.2041016 C3.02213542,32.2041016 3.09082031,32.2041016 3.09082031,32.2041016 C3.09082031,32.2041016 3.09082031,32.2041016 3.09082031,32.2041016 C3.2281901,32.2041016 3.296875,32.2041016 3.296875,32.2041016 C3.43424479,32.2041016 3.50292969,32.2041016 3.50292969,32.2041016 C3.64029948,32.3414714 3.70898438,32.4101562 3.70898438,32.4101562 C3.84635417,32.547526 3.91503906,32.6162109 3.91503906,32.6162109 C3.91503906,32.7535807 3.98372396,32.8222656 4.12109375,32.8222656 C4.12109375,32.9596354 4.12109375,33.0970052 4.12109375,33.234375 C4.12109375,34.8828125 4.12109375,36.9433594 4.12109375,39.4160156 C4.12109375,42.0260417 4.12109375,45.0481771 4.12109375,48.4824219 Z M127.135742,47.4521484 C127.273112,47.4521484 127.410482,47.5208333 127.547852,47.6582031 C127.685221,47.6582031 127.753906,47.726888 127.753906,47.8642578 C127.891276,47.8642578 127.959961,47.9329427 127.959961,48.0703125 C128.097331,48.2076823 128.166016,48.3450521 128.166016,48.4824219 C128.166016,48.4824219 128.097331,48.5511068 127.959961,48.6884766 C127.959961,48.8258464 127.891276,48.9632161 127.753906,49.1005859 C127.753906,49.1005859 127.685221,49.1692708 127.547852,49.3066406 C127.410482,49.3066406 127.273112,49.3066406 127.135742,49.3066406 C126.448893,49.3066406 125.762044,49.3066406 125.075195,49.3066406 C124.388346,49.3066406 123.632812,49.3066406 122.808594,49.3066406 C122.121745,49.3066406 121.434896,49.3066406 120.748047,49.3066406 C120.061198,49.3066406 119.305664,49.3066406 118.481445,49.3066406 C118.481445,49.3066406 118.481445,49.3066406 118.481445,49.3066406 C118.344076,49.3066406 118.275391,49.3066406 118.275391,49.3066406 C118.138021,49.1692708 118.069336,49.1005859 118.069336,49.1005859 C118.069336,49.1005859 118.000651,49.1005859 117.863281,49.1005859 C117.863281,48.9632161 117.863281,48.8945312 117.863281,48.8945312 C117.863281,48.7571615 117.794596,48.6884766 117.657227,48.6884766 C117.657227,48.6884766 117.657227,48.6197917 117.657227,48.4824219 C117.657227,48.4824219 117.657227,48.4824219 117.657227,48.4824219 C117.657227,48.3450521 117.657227,48.2763672 117.657227,48.2763672 C117.657227,48.2763672 117.657227,48.2763672 117.657227,48.2763672 C117.657227,48.2763672 117.725911,48.1389974 117.863281,47.8642578 C117.863281,47.726888 117.931966,47.4521484 118.069336,47.0400391 C118.069336,46.6279297 118.206706,46.2158203 118.481445,45.8037109 C118.618815,45.2542318 118.893555,44.7047526 119.305664,44.1552734 C119.443034,43.8805339 119.649089,43.6057943 119.923828,43.3310547 C120.061198,43.0563151 120.267253,42.7815755 120.541992,42.5068359 C120.816732,42.2320964 121.091471,41.9573568 121.366211,41.6826172 C121.77832,41.5452474 122.19043,41.3391927 122.602539,41.0644531 C123.289388,40.514974 123.907552,40.0341797 124.457031,39.6220703 C124.869141,39.2099609 125.212565,38.8665365 125.487305,38.5917969 C125.624674,38.1796875 125.762044,37.836263 125.899414,37.5615234 C126.036784,37.2867839 126.105469,37.0120443 126.105469,36.7373047 C126.105469,36.5999349 126.105469,36.4625651 126.105469,36.3251953 C126.105469,36.3251953 126.036784,36.2565104 125.899414,36.1191406 C125.899414,35.9817708 125.899414,35.844401 125.899414,35.7070312 C125.899414,35.7070312 125.899414,35.6383464 125.899414,35.5009766 C125.762044,35.226237 125.624674,35.0201823 125.487305,34.8828125 C125.349935,34.7454427 125.14388,34.6080729 124.869141,34.4707031 C124.731771,34.3333333 124.457031,34.1959635 124.044922,34.0585938 C123.770182,34.0585938 123.426758,34.0585938 123.014648,34.0585938 C122.602539,34.0585938 122.259115,34.0585938 121.984375,34.0585938 C121.709635,34.1959635 121.434896,34.3333333 121.160156,34.4707031 C120.885417,34.6080729 120.679362,34.8141276 120.541992,35.0888672 C120.404622,35.226237 120.267253,35.4322917 120.129883,35.7070312 C119.992513,35.844401 119.923828,35.9817708 119.923828,36.1191406 C119.786458,36.1191406 119.649089,36.1191406 119.511719,36.1191406 C119.374349,36.2565104 119.236979,36.3251953 119.099609,36.3251953 C119.099609,36.3251953 119.030924,36.2565104 118.893555,36.1191406 C118.756185,36.1191406 118.618815,36.0504557 118.481445,35.9130859 C118.481445,35.9130859 118.481445,35.844401 118.481445,35.7070312 C118.344076,35.5696615 118.275391,35.4322917 118.275391,35.2949219 C118.275391,35.1575521 118.344076,35.0888672 118.481445,35.0888672 C118.618815,34.539388 118.82487,34.1272786 119.099609,33.8525391 C119.511719,33.4404297 119.855143,33.1656901 120.129883,33.0283203 C120.541992,32.7535807 120.954102,32.547526 121.366211,32.4101562 C121.91569,32.2727865 122.396484,32.2041016 122.808594,32.2041016 C123.770182,32.2041016 124.594401,32.3414714 125.28125,32.6162109 C125.830729,32.8909505 126.311523,33.234375 126.723633,33.6464844 C127.135742,34.1959635 127.410482,34.6767578 127.547852,35.0888672 C127.685221,35.6383464 127.753906,36.1878255 127.753906,36.7373047 C127.753906,37.2867839 127.685221,37.7675781 127.547852,38.1796875 C127.410482,38.7291667 127.135742,39.2786458 126.723633,39.828125 C126.448893,40.2402344 126.036784,40.6523438 125.487305,41.0644531 C124.937826,41.6139323 124.250977,42.0947266 123.426758,42.5068359 C122.877279,42.9189453 122.396484,43.3310547 121.984375,43.7431641 C121.434896,44.1552734 121.022786,44.6360677 120.748047,45.1855469 C120.473307,45.5976562 120.267253,46.0097656 120.129883,46.421875 C119.992513,46.8339844 119.855143,47.1774089 119.717773,47.4521484 C120.541992,47.4521484 121.572266,47.4521484 122.808594,47.4521484 C124.044922,47.4521484 125.487305,47.4521484 127.135742,47.4521484 Z" transform="translate(-7)"/></svg>