<svg xmlns="http://www.w3.org/2000/svg" width="120" height="203" viewBox="0 0 120 203"><path fill="#131313" d="M2145.94941,190.776367 C2147.32311,192.424805 2147.94128,194.279297 2147.80391,196.339844 C2147.66654,198.400391 2146.84232,200.117513 2145.33125,201.491211 C2144.6444,202.04069 2143.82018,202.452799 2142.85859,202.727539 C2142.03438,203.002279 2141.21016,203.139648 2140.38594,203.139648 C2139.28698,203.139648 2138.25671,202.933594 2137.29512,202.521484 C2136.33353,202.109375 2135.44063,201.491211 2134.61641,200.666992 C2121.70365,185.556315 2102.26582,162.890299 2076.30293,132.668945 C2076.30293,132.668945 2076.30293,132.668945 2076.30293,132.668945 C2076.30293,132.531576 2076.23424,132.462891 2076.09688,132.462891 C2076.09688,132.462891 2076.09688,132.462891 2076.09688,132.462891 C2076.09688,132.462891 2076.09688,132.394206 2076.09688,132.256836 C2076.09688,146.405924 2076.09688,167.560872 2076.09688,195.72168 C2076.09688,197.782227 2075.34134,199.568034 2073.83027,201.079102 C2072.45658,202.452799 2070.73945,203.139648 2068.67891,203.139648 C2066.61836,203.139648 2064.83255,202.452799 2063.32148,201.079102 C2061.81042,199.568034 2061.05488,197.782227 2061.05488,195.72168 C2061.05488,167.423503 2061.05488,124.976237 2061.05488,68.3798828 C2061.05488,66.3193359 2061.81042,64.5335286 2063.32148,63.0224609 C2064.83255,61.648763 2066.61836,60.9619141 2068.67891,60.9619141 C2070.73945,60.9619141 2072.45658,61.648763 2073.83027,63.0224609 C2075.34134,64.5335286 2076.09688,66.3193359 2076.09688,68.3798828 C2076.09688,80.6057943 2076.09688,98.8759766 2076.09688,123.19043 C2076.09688,123.19043 2076.16556,123.19043 2076.30293,123.19043 C2076.30293,123.05306 2076.30293,122.984375 2076.30293,122.984375 C2076.30293,122.984375 2076.37161,122.984375 2076.50898,122.984375 C2076.50898,122.847005 2076.50898,122.77832 2076.50898,122.77832 C2088.59753,109.59082 2106.66165,89.7408854 2130.70137,63.2285156 C2132.07507,61.7174479 2133.79219,60.9619141 2135.85273,60.9619141 C2135.9901,60.9619141 2136.12747,60.9619141 2136.26484,60.9619141 C2138.18802,60.9619141 2139.83646,61.5800781 2141.21016,62.8164063 C2142.85859,64.1901042 2143.68281,65.9072266 2143.68281,67.9677734 C2143.82018,70.0283203 2143.20202,71.8141276 2141.82832,73.3251953 C2130.70137,85.5511068 2114.07962,103.752604 2091.96309,127.929687 C2101.02949,138.507161 2110.02721,149.015951 2118.95625,159.456055 C2128.02266,169.896159 2137.02038,180.336263 2145.94941,190.776367 Z M2105.05293,128.547852 C2107.9377,131.844727 2112.12747,136.721354 2117.62227,143.177734 C2117.21016,143.452474 2116.66068,143.933268 2115.97383,144.620117 C2112.95169,141.048503 2108.41849,135.691081 2102.37422,128.547852 C2111.02852,119.069336 2124.00996,104.782878 2141.31855,85.6884766 C2141.45592,85.8258464 2141.59329,85.9632161 2141.73066,86.1005859 C2141.86803,86.2379557 2142.0054,86.3753255 2142.14277,86.5126953 C2142.28014,86.6500651 2142.41751,86.7874349 2142.55488,86.9248047 C2142.69225,86.9248047 2142.82962,86.9934896 2142.96699,87.1308594 C2136.64798,93.999349 2130.32897,100.936523 2124.00996,107.942383 C2117.69095,114.810872 2111.37194,121.679362 2105.05293,128.547852 Z M2141.73066,80.125 C2142.41751,79.438151 2142.55488,79.3007812 2142.14277,79.7128906 C2141.73066,80.125 2141.45592,80.4684245 2141.31855,80.7431641 C2141.45592,80.6057943 2141.52461,80.5371094 2141.52461,80.5371094 C2141.66198,80.3997396 2141.73066,80.2623698 2141.73066,80.125 Z M2142.14277,80.5371094 C2141.59329,81.2239583 2141.24987,81.9794922 2141.1125,82.8037109 C2141.1125,83.7652995 2141.31855,84.5895182 2141.73066,85.2763672 C2141.73066,85.413737 2141.59329,85.5511068 2141.31855,85.6884766 C2140.76908,84.8642578 2140.56302,83.9026693 2140.70039,82.8037109 C2140.70039,81.8421224 2141.04382,80.9492188 2141.73066,80.125 C2142.55488,79.1634115 2143.58516,78.6826172 2144.82148,78.6826172 C2146.05781,78.6826172 2147.15677,79.0947266 2148.11836,79.9189453 C2149.07995,80.7431641 2149.56074,81.7734375 2149.56074,83.0097656 C2149.69811,84.2460938 2149.35469,85.3450521 2148.53047,86.3066406 C2147.70625,86.9934896 2146.81335,87.405599 2145.85176,87.5429688 C2144.7528,87.6803385 2143.79121,87.5429688 2142.96699,87.1308594 C2143.10436,86.9934896 2143.24173,86.8561198 2143.3791,86.71875 C2144.20332,87.1308594 2145.02754,87.2682292 2145.85176,87.1308594 C2146.67598,86.9934896 2147.43151,86.5813802 2148.11836,85.8945312 C2148.80521,85.0703125 2149.14863,84.108724 2149.14863,83.0097656 C2149.01126,81.9108073 2148.59915,81.0179036 2147.9123,80.3310547 C2147.08809,79.5068359 2146.1265,79.1634115 2145.02754,79.3007812 C2143.92858,79.3007812 2142.96699,79.7128906 2142.14277,80.5371094 Z M2142.96699,87.1308594 C2142.82962,86.9934896 2142.69225,86.9248047 2142.55488,86.9248047 C2142.41751,86.7874349 2142.28014,86.6500651 2142.14277,86.5126953 C2142.0054,86.3753255 2141.86803,86.2379557 2141.73066,86.1005859 C2141.59329,85.9632161 2141.45592,85.8258464 2141.31855,85.6884766 C2141.45592,85.5511068 2141.59329,85.413737 2141.73066,85.2763672 C2141.86803,85.413737 2142.0054,85.5511068 2142.14277,85.6884766 C2142.28014,85.8258464 2142.41751,85.9632161 2142.55488,86.1005859 C2142.69225,86.2379557 2142.82962,86.3753255 2142.96699,86.5126953 C2143.10436,86.5126953 2143.24173,86.5813802 2143.3791,86.71875 C2143.24173,86.71875 2143.17305,86.7874349 2143.17305,86.9248047 C2143.03568,86.9248047 2142.96699,86.9934896 2142.96699,87.1308594 Z M2148.11836,85.8945312 C2147.43151,86.5813802 2146.67598,86.9934896 2145.85176,87.1308594 C2144.89017,87.2682292 2144.06595,87.1308594 2143.3791,86.71875 C2143.3791,86.5813802 2143.51647,86.4440104 2143.79121,86.3066406 C2144.34069,86.5813802 2145.02754,86.6500651 2145.85176,86.5126953 C2146.53861,86.3753255 2147.15677,86.031901 2147.70625,85.4824219 C2148.25573,84.7955729 2148.53047,83.9713542 2148.53047,83.0097656 C2148.53047,82.0481771 2148.18704,81.2239583 2147.5002,80.5371094 C2146.81335,79.9876302 2145.98913,79.7128906 2145.02754,79.7128906 C2144.06595,79.7128906 2143.24173,80.125 2142.55488,80.9492187 C2142.0054,81.4986979 2141.73066,82.116862 2141.73066,82.8037109 C2141.59329,83.4905599 2141.73066,84.1774089 2142.14277,84.8642578 C2142.0054,85.0016276 2141.86803,85.1389974 2141.73066,85.2763672 C2141.31855,84.5895182 2141.1125,83.7652995 2141.1125,82.8037109 C2141.24987,81.9794922 2141.59329,81.2239583 2142.14277,80.5371094 C2142.96699,79.7128906 2143.92858,79.3007812 2145.02754,79.3007812 C2146.1265,79.1634115 2147.0194,79.5068359 2147.70625,80.3310547 C2148.53047,81.0179036 2149.01126,81.9108073 2149.14863,83.0097656 C2149.14863,84.108724 2148.80521,85.0703125 2148.11836,85.8945312 Z M2142.76094,85.6884766 C2142.89831,85.8258464 2143.03568,85.9632161 2143.17305,86.1005859 C2143.31042,86.1005859 2143.51647,86.1692708 2143.79121,86.3066406 C2143.65384,86.4440104 2143.51647,86.5813802 2143.3791,86.71875 C2143.24173,86.5813802 2143.10436,86.5126953 2142.96699,86.5126953 C2142.82962,86.3753255 2142.69225,86.2379557 2142.55488,86.1005859 C2142.41751,85.9632161 2142.28014,85.8258464 2142.14277,85.6884766 C2142.0054,85.5511068 2141.86803,85.413737 2141.73066,85.2763672 C2141.86803,85.1389974 2142.0054,85.0016276 2142.14277,84.8642578 C2142.28014,85.0016276 2142.34883,85.1389974 2142.34883,85.2763672 C2142.4862,85.413737 2142.62357,85.5511068 2142.76094,85.6884766 Z M2119.06465,141.941406 C2120.30098,144.276693 2122.0181,147.779622 2124.21602,152.450195 C2122.15547,150.939128 2118.92728,148.741211 2114.53145,145.856445 C2114.80618,145.581706 2115.28698,145.169596 2115.97383,144.620117 C2116.38594,144.894857 2116.86673,145.375651 2117.41621,146.0625 C2117.69095,145.78776 2118.24043,145.375651 2119.06465,144.826172 C2118.65254,144.414062 2118.17174,143.864583 2117.62227,143.177734 C2117.89701,142.902995 2118.3778,142.490885 2119.06465,141.941406 Z M2115.97383,144.620117 C2116.38594,144.208008 2116.93542,143.727214 2117.62227,143.177734 C2117.89701,143.452474 2118.3778,144.001953 2119.06465,144.826172 C2118.65254,145.100911 2118.10306,145.513021 2117.41621,146.0625 C2117.14147,145.78776 2116.66068,145.306966 2115.97383,144.620117 Z M2050.86055,77.6523438 C2050.99792,77.6523438 2051.13529,77.6523438 2051.27266,77.6523438 C2051.5474,77.7897135 2051.75345,77.8583984 2051.89082,77.8583984 C2052.02819,77.8583984 2052.23424,77.7897135 2052.50898,77.6523438 C2052.64635,77.6523438 2052.78372,77.6523438 2052.92109,77.6523438 C2052.92109,83.5592448 2052.92109,92.5569661 2052.92109,104.645508 C2052.50898,104.645508 2051.82214,104.645508 2050.86055,104.645508 C2050.86055,100.112305 2050.86055,95.5791016 2050.86055,91.0458984 C2050.86055,86.6500651 2050.86055,82.1855469 2050.86055,77.6523438 Z M2050.86055,106.706055 C2050.86055,106.156576 2050.86055,105.469727 2050.86055,104.645508 C2050.44844,104.645508 2049.76159,104.645508 2048.8,104.645508 C2049.48685,107.118164 2050.51712,110.895833 2051.89082,115.978516 C2052.57767,113.505859 2053.60794,109.72819 2054.98164,104.645508 C2054.56953,104.645508 2053.88268,104.645508 2052.92109,104.645508 C2052.92109,105.057617 2052.92109,105.744466 2052.92109,106.706055 C2052.50898,106.706055 2051.82214,106.706055 2050.86055,106.706055 Z M2050.86055,106.706055 C2051.27266,106.706055 2051.95951,106.706055 2052.92109,106.706055 C2052.92109,106.156576 2052.92109,105.469727 2052.92109,104.645508 C2052.50898,104.645508 2051.82214,104.645508 2050.86055,104.645508 C2050.86055,105.057617 2050.86055,105.744466 2050.86055,106.706055 Z M2051.89082,68.7919922 C2053.12715,68.7919922 2054.15742,69.2041016 2054.98164,70.0283203 C2055.94323,70.9899089 2056.42402,72.0888672 2056.42402,73.3251953 C2056.42402,74.2867839 2056.0806,75.1796875 2055.39375,76.0039062 C2054.7069,76.828125 2053.88268,77.3776042 2052.92109,77.6523438 C2052.92109,77.514974 2052.92109,77.3089193 2052.92109,77.0341797 C2053.74531,76.8968099 2054.43216,76.4160156 2054.98164,75.5917969 C2055.53112,74.9049479 2055.80586,74.1494141 2055.80586,73.3251953 C2055.80586,72.226237 2055.46243,71.2646484 2054.77559,70.4404297 C2053.95137,69.7535807 2052.98978,69.4101562 2051.89082,69.4101562 C2050.79186,69.4101562 2049.83027,69.7535807 2049.00605,70.4404297 C2048.31921,71.2646484 2047.97578,72.226237 2047.97578,73.3251953 C2047.97578,74.1494141 2048.25052,74.9049479 2048.8,75.5917969 C2049.34948,76.4160156 2050.03633,76.8968099 2050.86055,77.0341797 C2050.86055,77.1715495 2050.86055,77.3776042 2050.86055,77.6523438 C2049.89896,77.3776042 2049.07474,76.828125 2048.38789,76.0039062 C2047.70104,75.1796875 2047.35762,74.2867839 2047.35762,73.3251953 C2047.35762,72.0888672 2047.83841,70.9899089 2048.8,70.0283203 C2049.62422,69.2041016 2050.65449,68.7919922 2051.89082,68.7919922 Z M2051.89082,77.2402344 C2052.02819,77.2402344 2052.23424,77.2402344 2052.50898,77.2402344 C2052.64635,77.2402344 2052.78372,77.1715495 2052.92109,77.0341797 C2052.92109,77.1715495 2052.92109,77.3776042 2052.92109,77.6523438 C2052.78372,77.6523438 2052.64635,77.6523438 2052.50898,77.6523438 C2052.23424,77.7897135 2052.02819,77.8583984 2051.89082,77.8583984 C2051.75345,77.8583984 2051.5474,77.7897135 2051.27266,77.6523438 C2051.13529,77.6523438 2050.99792,77.6523438 2050.86055,77.6523438 C2050.86055,77.514974 2050.86055,77.3089193 2050.86055,77.0341797 C2050.99792,77.1715495 2051.13529,77.2402344 2051.27266,77.2402344 C2051.5474,77.2402344 2051.75345,77.2402344 2051.89082,77.2402344 Z M2048.38789,73.3251953 C2048.38789,74.0120443 2048.66263,74.6988932 2049.21211,75.3857422 C2049.62422,75.9352214 2050.1737,76.3473307 2050.86055,76.6220703 C2050.86055,76.6220703 2050.86055,76.7594401 2050.86055,77.0341797 C2050.03633,76.8968099 2049.34948,76.4160156 2048.8,75.5917969 C2048.25052,74.9049479 2047.97578,74.1494141 2047.97578,73.3251953 C2047.97578,72.226237 2048.31921,71.2646484 2049.00605,70.4404297 C2049.83027,69.7535807 2050.79186,69.4101562 2051.89082,69.4101562 C2052.98978,69.4101562 2053.95137,69.7535807 2054.77559,70.4404297 C2055.46243,71.2646484 2055.80586,72.226237 2055.80586,73.3251953 C2055.80586,74.1494141 2055.53112,74.9049479 2054.98164,75.5917969 C2054.43216,76.4160156 2053.74531,76.8968099 2052.92109,77.0341797 C2052.92109,76.8968099 2052.92109,76.7594401 2052.92109,76.6220703 C2053.60794,76.3473307 2054.15742,75.9352214 2054.56953,75.3857422 C2055.11901,74.6988932 2055.39375,74.0120443 2055.39375,73.3251953 C2055.39375,72.3636068 2055.05033,71.539388 2054.36348,70.8525391 C2053.67663,70.1656901 2052.85241,69.8222656 2051.89082,69.8222656 C2050.92923,69.8222656 2050.10501,70.1656901 2049.41816,70.8525391 C2048.73132,71.539388 2048.38789,72.3636068 2048.38789,73.3251953 C2048.38789,73.1878255 2048.38789,73.0504557 2048.38789,72.9130859 C2048.38789,72.7757161 2048.38789,72.7070312 2048.38789,72.7070312 C2048.38789,72.7070312 2048.38789,72.7757161 2048.38789,72.9130859 C2048.38789,73.0504557 2048.38789,73.1878255 2048.38789,73.3251953 C2048.38789,73.4625651 2048.38789,73.5999349 2048.38789,73.7373047 C2048.38789,73.7373047 2048.38789,73.7373047 2048.38789,73.7373047 C2048.38789,73.7373047 2048.38789,73.7373047 2048.38789,73.7373047 C2048.38789,73.5999349 2048.38789,73.4625651 2048.38789,73.3251953 Z M2052.92109,77.0341797 C2052.78372,77.1715495 2052.64635,77.2402344 2052.50898,77.2402344 C2052.23424,77.2402344 2052.02819,77.2402344 2051.89082,77.2402344 C2051.75345,77.2402344 2051.5474,77.2402344 2051.27266,77.2402344 C2051.13529,77.2402344 2050.99792,77.1715495 2050.86055,77.0341797 C2050.86055,76.8968099 2050.86055,76.7594401 2050.86055,76.6220703 C2050.99792,76.6220703 2051.13529,76.6220703 2051.27266,76.6220703 C2051.5474,76.6220703 2051.75345,76.6220703 2051.89082,76.6220703 C2052.02819,76.6220703 2052.23424,76.6220703 2052.50898,76.6220703 C2052.64635,76.6220703 2052.78372,76.6220703 2052.92109,76.6220703 C2052.92109,76.6220703 2052.92109,76.6907552 2052.92109,76.828125 C2052.92109,76.9654948 2052.92109,77.0341797 2052.92109,77.0341797 Z M2041.17598,85.4824219 C2041.17598,85.6197917 2041.10729,85.6884766 2040.96992,85.6884766 C2040.96992,85.8258464 2040.90124,85.9632161 2040.76387,86.1005859 C2040.76387,86.1005859 2040.69518,86.1692708 2040.55781,86.3066406 C2040.42044,86.3066406 2040.28307,86.3066406 2040.1457,86.3066406 C2040.00833,86.3066406 2039.93965,86.3066406 2039.93965,86.3066406 C2039.80228,86.1692708 2039.66491,86.1005859 2039.52754,86.1005859 C2039.52754,85.9632161 2039.45885,85.8258464 2039.32148,85.6884766 C2039.32148,85.6884766 2039.32148,85.6197917 2039.32148,85.4824219 C2039.32148,83.9713542 2039.32148,82.116862 2039.32148,79.9189453 C2039.32148,77.7210286 2039.32148,75.1796875 2039.32148,72.2949219 C2039.18411,72.2949219 2039.11543,72.3636068 2039.11543,72.5009766 C2038.97806,72.6383464 2038.84069,72.7757161 2038.70332,72.9130859 C2038.56595,73.0504557 2038.42858,73.1191406 2038.29121,73.1191406 C2038.29121,73.1191406 2038.22253,73.1191406 2038.08516,73.1191406 C2037.94779,73.1191406 2037.81042,73.1191406 2037.67305,73.1191406 C2037.53568,73.1191406 2037.46699,73.0504557 2037.46699,72.9130859 C2037.32962,72.7757161 2037.26094,72.7070312 2037.26094,72.7070312 C2037.12357,72.5696615 2037.05488,72.4322917 2037.05488,72.2949219 C2037.05488,72.1575521 2037.12357,72.0201823 2037.26094,71.8828125 C2037.26094,71.7454427 2037.32962,71.6767578 2037.46699,71.6767578 C2037.74173,71.4020182 2038.01647,71.0585938 2038.29121,70.6464844 C2038.70332,70.3717448 2039.11543,69.9596354 2039.52754,69.4101562 C2039.66491,69.4101562 2039.73359,69.4101562 2039.73359,69.4101562 C2039.87096,69.2727865 2039.93965,69.2041016 2039.93965,69.2041016 C2040.07702,69.2041016 2040.1457,69.2041016 2040.1457,69.2041016 C2040.1457,69.2041016 2040.1457,69.2041016 2040.1457,69.2041016 C2040.28307,69.2041016 2040.35176,69.2041016 2040.35176,69.2041016 C2040.48913,69.2041016 2040.55781,69.2041016 2040.55781,69.2041016 C2040.69518,69.3414714 2040.76387,69.4101562 2040.76387,69.4101562 C2040.90124,69.547526 2040.96992,69.6162109 2040.96992,69.6162109 C2040.96992,69.7535807 2041.03861,69.8222656 2041.17598,69.8222656 C2041.17598,69.9596354 2041.17598,70.0970052 2041.17598,70.234375 C2041.17598,71.8828125 2041.17598,73.9433594 2041.17598,76.4160156 C2041.17598,79.0260417 2041.17598,82.0481771 2041.17598,85.4824219 Z M2164.19063,84.4521484 C2164.32799,84.4521484 2164.46536,84.5208333 2164.60273,84.6582031 C2164.7401,84.6582031 2164.80879,84.726888 2164.80879,84.8642578 C2164.94616,84.8642578 2165.01484,84.9329427 2165.01484,85.0703125 C2165.15221,85.2076823 2165.2209,85.3450521 2165.2209,85.4824219 C2165.2209,85.4824219 2165.15221,85.5511068 2165.01484,85.6884766 C2165.01484,85.8258464 2164.94616,85.9632161 2164.80879,86.1005859 C2164.80879,86.1005859 2164.7401,86.1692708 2164.60273,86.3066406 C2164.46536,86.3066406 2164.32799,86.3066406 2164.19063,86.3066406 C2163.50378,86.3066406 2162.81693,86.3066406 2162.13008,86.3066406 C2161.44323,86.3066406 2160.6877,86.3066406 2159.86348,86.3066406 C2159.17663,86.3066406 2158.48978,86.3066406 2157.80293,86.3066406 C2157.11608,86.3066406 2156.36055,86.3066406 2155.53633,86.3066406 C2155.53633,86.3066406 2155.53633,86.3066406 2155.53633,86.3066406 C2155.39896,86.3066406 2155.33027,86.3066406 2155.33027,86.3066406 C2155.1929,86.1692708 2155.12422,86.1005859 2155.12422,86.1005859 C2155.12422,86.1005859 2155.05553,86.1005859 2154.91816,86.1005859 C2154.91816,85.9632161 2154.91816,85.8945312 2154.91816,85.8945312 C2154.91816,85.7571615 2154.84948,85.6884766 2154.71211,85.6884766 C2154.71211,85.6884766 2154.71211,85.6197917 2154.71211,85.4824219 C2154.71211,85.4824219 2154.71211,85.4824219 2154.71211,85.4824219 C2154.71211,85.3450521 2154.71211,85.2763672 2154.71211,85.2763672 C2154.71211,85.2763672 2154.71211,85.2763672 2154.71211,85.2763672 C2154.71211,85.2763672 2154.78079,85.1389974 2154.91816,84.8642578 C2154.91816,84.726888 2154.98685,84.4521484 2155.12422,84.0400391 C2155.12422,83.6279297 2155.26159,83.2158203 2155.53633,82.8037109 C2155.6737,82.2542318 2155.94844,81.7047526 2156.36055,81.1552734 C2156.49792,80.8805339 2156.70397,80.6057943 2156.97871,80.3310547 C2157.11608,80.0563151 2157.32214,79.7815755 2157.59688,79.5068359 C2157.87161,79.2320964 2158.14635,78.9573568 2158.42109,78.6826172 C2158.8332,78.5452474 2159.24531,78.3391927 2159.65742,78.0644531 C2160.34427,77.514974 2160.96243,77.0341797 2161.51191,76.6220703 C2161.92402,76.2099609 2162.26745,75.8665365 2162.54219,75.5917969 C2162.67956,75.1796875 2162.81693,74.836263 2162.9543,74.5615234 C2163.09167,74.2867839 2163.16035,74.0120443 2163.16035,73.7373047 C2163.16035,73.5999349 2163.16035,73.4625651 2163.16035,73.3251953 C2163.16035,73.3251953 2163.09167,73.2565104 2162.9543,73.1191406 C2162.9543,72.9817708 2162.9543,72.844401 2162.9543,72.7070312 C2162.9543,72.7070312 2162.9543,72.6383464 2162.9543,72.5009766 C2162.81693,72.226237 2162.67956,72.0201823 2162.54219,71.8828125 C2162.40482,71.7454427 2162.19876,71.6080729 2161.92402,71.4707031 C2161.78665,71.3333333 2161.51191,71.1959635 2161.0998,71.0585938 C2160.82507,71.0585938 2160.48164,71.0585938 2160.06953,71.0585938 C2159.65742,71.0585938 2159.314,71.0585938 2159.03926,71.0585938 C2158.76452,71.1959635 2158.48978,71.3333333 2158.21504,71.4707031 C2157.9403,71.6080729 2157.73424,71.8141276 2157.59688,72.0888672 C2157.45951,72.226237 2157.32214,72.4322917 2157.18477,72.7070312 C2157.0474,72.844401 2156.97871,72.9817708 2156.97871,73.1191406 C2156.84134,73.1191406 2156.70397,73.1191406 2156.5666,73.1191406 C2156.42923,73.2565104 2156.29186,73.3251953 2156.15449,73.3251953 C2156.15449,73.3251953 2156.08581,73.2565104 2155.94844,73.1191406 C2155.81107,73.1191406 2155.6737,73.0504557 2155.53633,72.9130859 C2155.53633,72.9130859 2155.53633,72.844401 2155.53633,72.7070312 C2155.39896,72.5696615 2155.33027,72.4322917 2155.33027,72.2949219 C2155.33027,72.1575521 2155.39896,72.0888672 2155.53633,72.0888672 C2155.6737,71.539388 2155.87975,71.1272786 2156.15449,70.8525391 C2156.5666,70.4404297 2156.91003,70.1656901 2157.18477,70.0283203 C2157.59688,69.7535807 2158.00898,69.547526 2158.42109,69.4101562 C2158.97057,69.2727865 2159.45137,69.2041016 2159.86348,69.2041016 C2160.82507,69.2041016 2161.64928,69.3414714 2162.33613,69.6162109 C2162.88561,69.8909505 2163.36641,70.234375 2163.77852,70.6464844 C2164.19063,71.1959635 2164.46536,71.6767578 2164.60273,72.0888672 C2164.7401,72.6383464 2164.80879,73.1878255 2164.80879,73.7373047 C2164.80879,74.2867839 2164.7401,74.7675781 2164.60273,75.1796875 C2164.46536,75.7291667 2164.19063,76.2786458 2163.77852,76.828125 C2163.50378,77.2402344 2163.09167,77.6523438 2162.54219,78.0644531 C2161.99271,78.6139323 2161.30586,79.0947266 2160.48164,79.5068359 C2159.93216,79.9189453 2159.45137,80.3310547 2159.03926,80.7431641 C2158.48978,81.1552734 2158.07767,81.6360677 2157.80293,82.1855469 C2157.52819,82.5976562 2157.32214,83.0097656 2157.18477,83.421875 C2157.0474,83.8339844 2156.91003,84.1774089 2156.77266,84.4521484 C2157.59688,84.4521484 2158.62715,84.4521484 2159.86348,84.4521484 C2161.0998,84.4521484 2162.54219,84.4521484 2164.19063,84.4521484 Z" transform="translate(-2044.055)"/></svg>