<svg xmlns="http://www.w3.org/2000/svg" width="97" height="203" viewBox="0 0 97 203"><path fill="#131313" d="M2445.65039,187.380859 C2447.44727,188.728516 2448.49544,190.525391 2448.79492,192.771484 C2449.0944,195.017578 2448.64518,197.039063 2447.44727,198.835938 C2446.54883,199.884115 2445.50065,200.707682 2444.30273,201.306641 C2443.25456,201.755859 2442.05664,201.980469 2440.70898,201.980469 C2439.96029,201.980469 2439.13672,201.905599 2438.23828,201.755859 C2437.48958,201.45638 2436.74089,201.007161 2435.99219,200.408203 C2425.8099,192.921224 2410.53646,181.765625 2390.17188,166.941406 C2390.17188,172.93099 2390.17188,181.915365 2390.17188,193.894531 C2390.17188,196.140625 2389.42318,198.08724 2387.92578,199.734375 C2386.27865,201.231771 2384.33203,201.980469 2382.08594,201.980469 C2379.83984,201.980469 2377.89323,201.231771 2376.24609,199.734375 C2374.7487,198.08724 2374,196.140625 2374,193.894531 C2374,163.048177 2374,130.778646 2374,69.0859375 C2374,66.8398438 2374.7487,64.8932292 2376.24609,63.2460938 C2377.89323,61.7486979 2379.83984,61 2382.08594,61 C2384.33203,61 2386.27865,61.7486979 2387.92578,63.2460938 C2389.42318,64.8932292 2390.17188,66.8398438 2390.17188,69.0859375 C2390.17188,90.4986979 2390.17188,108.617839 2390.17188,151.443359 C2399.30599,144.10612 2412.93229,133.025391 2431.05078,118.201172 C2432.84766,116.703776 2434.79427,116.104818 2436.89062,116.404297 C2439.13672,116.554036 2441.00846,117.527344 2442.50586,119.324219 C2443.85352,121.121094 2444.45247,123.142578 2444.30273,125.388672 C2444.00326,127.634766 2443.02995,129.431641 2441.38281,130.779297 C2433.74609,137.068359 2422.21615,146.427083 2406.79297,158.855469 C2413.38151,163.647135 2419.89518,168.363932 2426.33398,173.005859 C2432.77279,177.797526 2439.21159,182.589193 2445.65039,187.380859 Z M2424.49023,158.630859 C2428.23372,161.475911 2433.9987,165.66862 2441.78516,171.208984 C2441.48568,171.658203 2441.03646,172.332031 2440.4375,173.230469 C2435.94531,169.936198 2429.35677,165.069661 2420.67188,158.630859 C2424.71484,155.336589 2430.7793,150.395182 2438.86523,143.806641 C2439.01497,143.95638 2439.16471,144.10612 2439.31445,144.255859 C2439.31445,144.405599 2439.38932,144.555339 2439.53906,144.705078 C2439.6888,144.854818 2439.83854,145.004557 2439.98828,145.154297 C2440.13802,145.304036 2440.28776,145.453776 2440.4375,145.603516 C2437.74219,147.69987 2435.04688,149.871094 2432.35156,152.117188 C2429.80599,154.213542 2427.18555,156.384766 2424.49023,158.630859 Z M2440.21289,137.742188 C2440.36263,137.742188 2440.51237,137.667318 2440.66211,137.517578 C2440.66211,137.517578 2440.73698,137.517578 2440.88672,137.517578 C2440.73698,137.517578 2440.66211,137.517578 2440.66211,137.517578 C2440.51237,137.667318 2440.36263,137.742188 2440.21289,137.742188 Z M2440.66211,138.191406 C2439.91341,138.940104 2439.38932,139.763672 2439.08984,140.662109 C2438.9401,141.560547 2439.08984,142.458984 2439.53906,143.357422 C2439.38932,143.507161 2439.16471,143.656901 2438.86523,143.806641 C2438.41602,142.758464 2438.34115,141.710286 2438.64062,140.662109 C2438.79036,139.464193 2439.31445,138.490885 2440.21289,137.742188 C2441.26107,136.99349 2442.45898,136.619141 2443.80664,136.619141 C2445.1543,136.76888 2446.27734,137.367839 2447.17578,138.416016 C2448.07422,139.464193 2448.44857,140.662109 2448.29883,142.009766 C2448.14909,143.357422 2447.55013,144.480469 2446.50195,145.378906 C2445.60352,146.127604 2444.55534,146.501953 2443.35742,146.501953 C2442.30924,146.501953 2441.33594,146.202474 2440.4375,145.603516 C2440.58724,145.453776 2440.73698,145.304036 2440.88672,145.154297 C2441.63542,145.753255 2442.53385,145.977865 2443.58203,145.828125 C2444.48047,145.828125 2445.30404,145.528646 2446.05273,144.929688 C2447.10091,144.18099 2447.625,143.207682 2447.625,142.009766 C2447.77474,140.811849 2447.47526,139.763672 2446.72656,138.865234 C2445.97786,137.966797 2445.00456,137.442708 2443.80664,137.292969 C2442.60872,137.143229 2441.56055,137.442708 2440.66211,138.191406 Z M2440.21289,137.742188 C2440.06315,137.891927 2439.98828,138.041667 2439.98828,138.191406 C2439.83854,138.191406 2439.76367,138.191406 2439.76367,138.191406 C2439.76367,138.191406 2439.83854,138.191406 2439.98828,138.191406 C2440.13802,138.041667 2440.21289,137.891927 2440.21289,137.742188 Z M2440.4375,145.603516 C2440.28776,145.453776 2440.13802,145.304036 2439.98828,145.154297 C2439.83854,145.004557 2439.6888,144.854818 2439.53906,144.705078 C2439.53906,144.555339 2439.46419,144.405599 2439.31445,144.255859 C2439.16471,144.10612 2439.08984,143.95638 2439.08984,143.806641 C2439.08984,143.656901 2439.23958,143.507161 2439.53906,143.357422 C2439.53906,143.507161 2439.61393,143.656901 2439.76367,143.806641 C2439.76367,143.95638 2439.83854,144.10612 2439.98828,144.255859 C2440.13802,144.555339 2440.28776,144.705078 2440.4375,144.705078 C2440.58724,144.854818 2440.73698,145.004557 2440.88672,145.154297 C2440.88672,145.154297 2440.81185,145.229167 2440.66211,145.378906 C2440.66211,145.378906 2440.58724,145.453776 2440.4375,145.603516 Z M2446.05273,144.929688 C2445.30404,145.528646 2444.48047,145.828125 2443.58203,145.828125 C2442.53385,145.977865 2441.63542,145.753255 2440.88672,145.154297 C2441.03646,145.004557 2441.1862,144.854818 2441.33594,144.705078 C2442.08464,145.154297 2442.83333,145.378906 2443.58203,145.378906 C2444.33073,145.378906 2445.07943,145.079427 2445.82812,144.480469 C2445.67839,144.630208 2445.60352,144.705078 2445.60352,144.705078 C2445.45378,144.705078 2445.37891,144.779948 2445.37891,144.929688 C2445.37891,144.779948 2445.45378,144.705078 2445.60352,144.705078 C2445.60352,144.705078 2445.67839,144.630208 2445.82812,144.480469 C2446.57682,143.88151 2447.02604,143.057943 2447.17578,142.009766 C2447.17578,140.961589 2446.8763,140.063151 2446.27734,139.314453 C2445.67839,138.565755 2444.85482,138.116536 2443.80664,137.966797 C2442.75846,137.817057 2441.86003,138.116536 2441.11133,138.865234 C2440.36263,139.314453 2439.91341,139.913411 2439.76367,140.662109 C2439.61393,141.560547 2439.6888,142.309245 2439.98828,142.908203 C2439.83854,143.057943 2439.6888,143.207682 2439.53906,143.357422 C2439.08984,142.458984 2439.01497,141.560547 2439.31445,140.662109 C2439.46419,139.763672 2439.91341,138.940104 2440.66211,138.191406 C2441.56055,137.442708 2442.60872,137.143229 2443.80664,137.292969 C2445.00456,137.442708 2445.97786,137.966797 2446.72656,138.865234 C2447.47526,139.763672 2447.77474,140.811849 2447.625,142.009766 C2447.47526,143.207682 2446.95117,144.18099 2446.05273,144.929688 Z M2440.4375,144.03125 C2440.58724,144.18099 2440.73698,144.330729 2440.88672,144.480469 C2441.03646,144.630208 2441.1862,144.705078 2441.33594,144.705078 C2441.1862,144.854818 2441.03646,145.004557 2440.88672,145.154297 C2440.73698,145.004557 2440.58724,144.854818 2440.4375,144.705078 C2440.28776,144.705078 2440.13802,144.555339 2439.98828,144.255859 C2439.83854,144.10612 2439.76367,143.95638 2439.76367,143.806641 C2439.61393,143.656901 2439.53906,143.507161 2439.53906,143.357422 C2439.53906,143.207682 2439.6888,143.057943 2439.98828,142.908203 C2439.98828,143.207682 2440.06315,143.432292 2440.21289,143.582031 C2440.21289,143.731771 2440.28776,143.88151 2440.4375,144.03125 Z M2443,169.5 C2444.75,171.75 2447.40039,175.177083 2450.99414,179.519531 C2448.44857,178.621094 2444.48047,177.123698 2439.08984,175.027344 C2439.38932,174.578125 2442.40104,170.248698 2443,169.5 Z M2362.72266,70.7441406 C2362.8724,70.8938802 2363.02214,70.96875 2363.17188,70.96875 C2363.47135,70.96875 2363.69596,70.96875 2363.8457,70.96875 C2363.99544,70.96875 2364.22005,70.96875 2364.51953,70.96875 C2364.66927,70.96875 2364.81901,70.8938802 2364.96875,70.7441406 C2364.96875,96.7988281 2364.96875,129.73112 2364.96875,181.541016 C2364.51953,181.541016 2363.77083,181.541016 2362.72266,181.541016 C2362.72266,162.07487 2362.72266,142.608724 2362.72266,123.142578 C2362.72266,103.676432 2362.72266,90.2102865 2362.72266,70.7441406 Z M2360.47656,181.541016 C2361.22526,184.386068 2362.34831,188.578776 2363.8457,194.119141 C2364.5944,191.274089 2365.71745,187.08138 2367.21484,181.541016 C2366.76562,181.541016 2361.52474,181.541016 2360.47656,181.541016 Z M2363.8457,61.0859375 C2365.19336,61.0859375 2366.31641,61.610026 2367.21484,62.6582031 C2368.26302,63.5566406 2368.78711,64.6796875 2368.78711,66.0273438 C2368.78711,67.2252604 2368.41276,68.2734375 2367.66406,69.171875 C2366.91536,70.0703125 2366.01693,70.594401 2364.96875,70.7441406 C2364.96875,70.7441406 2364.96875,70.594401 2364.96875,70.2949219 C2365.86719,69.9954427 2366.61589,69.4713542 2367.21484,68.7226563 C2367.8138,67.9739583 2368.11328,67.0755208 2368.11328,66.0273438 C2368.11328,64.8294271 2367.73893,63.8561198 2366.99023,63.1074219 C2366.0918,62.2089844 2365.04362,61.7597656 2363.8457,61.7597656 C2362.64779,61.7597656 2361.59961,62.2089844 2360.70117,63.1074219 C2359.95247,63.8561198 2359.57812,64.8294271 2359.57812,66.0273438 C2359.57812,67.0755208 2359.8776,67.9739583 2360.47656,68.7226563 C2361.07552,69.4713542 2361.82422,69.9954427 2362.72266,70.2949219 C2362.72266,70.4446615 2362.72266,70.594401 2362.72266,70.7441406 C2361.67448,70.594401 2360.77604,70.0703125 2360.02734,69.171875 C2359.27865,68.2734375 2358.9043,67.2252604 2358.9043,66.0273438 C2358.9043,64.6796875 2359.42839,63.5566406 2360.47656,62.6582031 C2361.375,61.610026 2362.49805,61.0859375 2363.8457,61.0859375 Z M2363.8457,70.5195312 C2363.99544,70.5195312 2364.22005,70.4446615 2364.51953,70.2949219 C2364.66927,70.2949219 2364.81901,70.2949219 2364.96875,70.2949219 C2364.96875,70.4446615 2364.96875,70.594401 2364.96875,70.7441406 C2364.81901,70.8938802 2364.66927,70.96875 2364.51953,70.96875 C2364.22005,70.96875 2363.99544,70.96875 2363.8457,70.96875 C2363.69596,70.96875 2363.47135,70.96875 2363.17188,70.96875 C2363.02214,70.96875 2362.8724,70.8938802 2362.72266,70.7441406 C2362.72266,70.7441406 2362.72266,70.594401 2362.72266,70.2949219 C2362.8724,70.2949219 2363.02214,70.2949219 2363.17188,70.2949219 C2363.47135,70.4446615 2363.69596,70.5195312 2363.8457,70.5195312 Z M2360.02734,66.0273438 C2360.02734,66.9257813 2360.32682,67.6744792 2360.92578,68.2734375 C2361.375,68.8723958 2361.97396,69.3216146 2362.72266,69.6210938 C2362.72266,69.7708333 2362.72266,69.9954427 2362.72266,70.2949219 C2361.82422,69.9954427 2361.07552,69.4713542 2360.47656,68.7226562 C2359.8776,67.9739583 2359.57812,67.0755208 2359.57812,66.0273438 C2359.57812,64.8294271 2359.95247,63.8561198 2360.70117,63.1074219 C2361.59961,62.2089844 2362.64779,61.7597656 2363.8457,61.7597656 C2365.04362,61.7597656 2366.0918,62.2089844 2366.99023,63.1074219 C2367.73893,63.8561198 2368.11328,64.8294271 2368.11328,66.0273438 C2368.11328,67.0755208 2367.8138,67.9739583 2367.21484,68.7226562 C2366.61589,69.4713542 2365.86719,69.9954427 2364.96875,70.2949219 C2364.96875,70.1451823 2364.96875,69.9205729 2364.96875,69.6210938 C2365.71745,69.3216146 2366.31641,68.8723958 2366.76562,68.2734375 C2367.36458,67.6744792 2367.66406,66.9257813 2367.66406,66.0273438 C2367.66406,64.9791667 2367.28971,64.155599 2366.54102,63.5566406 C2365.79232,62.8079427 2364.89388,62.4335938 2363.8457,62.4335938 C2362.79753,62.4335938 2361.89909,62.8079427 2361.15039,63.5566406 C2360.40169,64.155599 2360.02734,64.9791667 2360.02734,66.0273438 C2360.02734,65.8776042 2360.02734,65.7278646 2360.02734,65.578125 C2360.02734,65.7278646 2360.02734,65.8776042 2360.02734,66.0273438 C2360.02734,66.3268229 2360.02734,66.4765625 2360.02734,66.4765625 C2360.02734,66.6263021 2360.02734,66.7011719 2360.02734,66.7011719 C2360.02734,66.7011719 2360.02734,66.6263021 2360.02734,66.4765625 C2360.02734,66.4765625 2360.02734,66.3268229 2360.02734,66.0273438 Z M2364.96875,70.2949219 C2364.81901,70.2949219 2364.66927,70.2949219 2364.51953,70.2949219 C2364.22005,70.4446615 2363.99544,70.5195312 2363.8457,70.5195312 C2363.69596,70.5195312 2363.47135,70.4446615 2363.17188,70.2949219 C2363.02214,70.2949219 2362.8724,70.2949219 2362.72266,70.2949219 C2362.72266,70.1451823 2362.72266,69.9205729 2362.72266,69.6210938 C2362.8724,69.6210938 2363.02214,69.6959635 2363.17188,69.8457031 C2363.47135,69.8457031 2363.69596,69.8457031 2363.8457,69.8457031 C2363.99544,69.8457031 2364.22005,69.8457031 2364.51953,69.8457031 C2364.66927,69.6959635 2364.81901,69.6210938 2364.96875,69.6210938 C2364.96875,69.7708333 2364.96875,69.8457031 2364.96875,69.8457031 C2364.96875,69.9954427 2364.96875,70.1451823 2364.96875,70.2949219 Z M2350.81836,62.4335938 C2350.81836,62.4335938 2350.89323,62.5084635 2351.04297,62.6582031 C2351.04297,62.6582031 2351.11784,62.7330729 2351.26758,62.8828125 C2351.26758,62.8828125 2351.26758,62.9576823 2351.26758,63.1074219 C2351.26758,63.1074219 2351.26758,63.1822917 2351.26758,63.3320312 C2351.26758,65.1289062 2351.26758,67.4498698 2351.26758,70.2949219 C2351.26758,73.139974 2351.26758,76.359375 2351.26758,79.953125 C2351.26758,80.1028646 2351.26758,80.2526042 2351.26758,80.4023438 C2351.26758,80.5520833 2351.19271,80.6269531 2351.04297,80.6269531 C2350.89323,80.7766927 2350.81836,80.8515625 2350.81836,80.8515625 C2350.66862,81.0013021 2350.51888,81.0761719 2350.36914,81.0761719 C2350.2194,81.0761719 2350.06966,81.0013021 2349.91992,80.8515625 C2349.91992,80.8515625 2349.84505,80.7766927 2349.69531,80.6269531 C2349.54557,80.6269531 2349.4707,80.5520833 2349.4707,80.4023438 C2349.4707,80.2526042 2349.4707,80.1028646 2349.4707,79.953125 C2349.4707,78.4557292 2349.4707,76.5091146 2349.4707,74.1132812 C2349.4707,71.7174479 2349.4707,68.9472656 2349.4707,65.8027344 C2349.32096,65.8027344 2349.17122,65.8776042 2349.02148,66.0273438 C2349.02148,66.1770833 2348.94661,66.3268229 2348.79688,66.4765625 C2348.64714,66.4765625 2348.4974,66.5514323 2348.34766,66.7011719 C2348.19792,66.7011719 2348.12305,66.7011719 2348.12305,66.7011719 C2347.97331,66.7011719 2347.82357,66.7011719 2347.67383,66.7011719 C2347.52409,66.5514323 2347.44922,66.4765625 2347.44922,66.4765625 C2347.29948,66.3268229 2347.22461,66.1770833 2347.22461,66.0273438 C2347.07487,65.8776042 2347,65.8027344 2347,65.8027344 C2347,65.6529948 2347.07487,65.5032552 2347.22461,65.3535156 C2347.22461,65.203776 2347.29948,65.0540365 2347.44922,64.9042969 C2347.59896,64.7545573 2347.89844,64.4550781 2348.34766,64.0058594 C2348.79688,63.5566406 2349.24609,63.1074219 2349.69531,62.6582031 C2349.69531,62.6582031 2349.77018,62.5833333 2349.91992,62.4335938 C2350.06966,62.4335938 2350.14453,62.4335938 2350.14453,62.4335938 C2350.14453,62.4335938 2350.2194,62.4335938 2350.36914,62.4335938 C2350.36914,62.4335938 2350.44401,62.4335938 2350.59375,62.4335938 C2350.59375,62.4335938 2350.66862,62.4335938 2350.81836,62.4335938 Z M2464.02148,148.074219 C2464.17122,148.074219 2464.32096,148.149089 2464.4707,148.298828 C2464.62044,148.298828 2464.69531,148.373698 2464.69531,148.523438 C2464.84505,148.523438 2464.91992,148.598307 2464.91992,148.748047 C2465.06966,148.897786 2465.14453,149.047526 2465.14453,149.197266 C2465.14453,149.347005 2465.06966,149.421875 2464.91992,149.421875 C2464.91992,149.571615 2464.84505,149.721354 2464.69531,149.871094 C2464.69531,149.871094 2464.62044,149.945964 2464.4707,150.095703 C2464.32096,150.095703 2464.17122,150.095703 2464.02148,150.095703 C2463.27279,150.095703 2462.52409,150.095703 2461.77539,150.095703 C2461.02669,150.095703 2460.20312,150.095703 2459.30469,150.095703 C2458.55599,150.095703 2457.80729,150.095703 2457.05859,150.095703 C2456.3099,150.095703 2455.48633,150.095703 2454.58789,150.095703 C2454.43815,150.095703 2454.36328,150.095703 2454.36328,150.095703 C2454.21354,150.095703 2454.13867,150.020833 2454.13867,149.871094 C2454.13867,149.871094 2454.0638,149.871094 2453.91406,149.871094 C2453.91406,149.721354 2453.91406,149.646484 2453.91406,149.646484 C2453.91406,149.646484 2453.83919,149.571615 2453.68945,149.421875 C2453.68945,149.272135 2453.68945,149.197266 2453.68945,149.197266 C2453.68945,149.047526 2453.68945,148.972656 2453.68945,148.972656 C2453.68945,148.972656 2453.76432,148.897786 2453.91406,148.748047 C2453.91406,148.448568 2453.98893,148.074219 2454.13867,147.625 C2454.13867,147.175781 2454.28841,146.726562 2454.58789,146.277344 C2454.73763,145.678385 2455.03711,145.154297 2455.48633,144.705078 C2455.63607,144.405599 2455.86068,144.10612 2456.16016,143.806641 C2456.3099,143.507161 2456.53451,143.132812 2456.83398,142.683594 C2457.13346,142.384115 2457.43294,142.159505 2457.73242,142.009766 C2458.18164,141.710286 2458.63086,141.410807 2459.08008,141.111328 C2459.82878,140.51237 2460.5026,139.988281 2461.10156,139.539062 C2461.55078,139.089844 2461.92513,138.715495 2462.22461,138.416016 C2462.37435,137.966797 2462.52409,137.592448 2462.67383,137.292969 C2462.82357,136.99349 2462.89844,136.69401 2462.89844,136.394531 C2462.89844,136.244792 2462.89844,136.095052 2462.89844,135.945312 C2462.89844,135.945312 2462.82357,135.870443 2462.67383,135.720703 C2462.67383,135.570964 2462.67383,135.496094 2462.67383,135.496094 C2462.67383,135.346354 2462.67383,135.196615 2462.67383,135.046875 C2462.52409,134.897135 2462.37435,134.672526 2462.22461,134.373047 C2462.07487,134.223307 2461.85026,134.073568 2461.55078,133.923828 C2461.40104,133.774089 2461.10156,133.624349 2460.65234,133.474609 C2460.35286,133.474609 2459.97852,133.474609 2459.5293,133.474609 C2459.08008,133.474609 2458.70573,133.474609 2458.40625,133.474609 C2458.10677,133.624349 2457.80729,133.774089 2457.50781,133.923828 C2457.20833,134.073568 2456.98372,134.298177 2456.83398,134.597656 C2456.68424,134.747396 2456.53451,134.972005 2456.38477,135.271484 C2456.23503,135.421224 2456.16016,135.570964 2456.16016,135.720703 C2456.01042,135.720703 2455.86068,135.795573 2455.71094,135.945312 C2455.5612,135.945312 2455.41146,135.945312 2455.26172,135.945312 C2455.26172,135.945312 2455.18685,135.870443 2455.03711,135.720703 C2454.88737,135.720703 2454.73763,135.645833 2454.58789,135.496094 C2454.58789,135.496094 2454.58789,135.421224 2454.58789,135.271484 C2454.43815,135.121745 2454.36328,134.972005 2454.36328,134.822266 C2454.36328,134.822266 2454.43815,134.747396 2454.58789,134.597656 C2454.73763,133.998698 2454.96224,133.549479 2455.26172,133.25 C2455.71094,132.800781 2456.08529,132.501302 2456.38477,132.351562 C2456.83398,132.052083 2457.2832,131.827474 2457.73242,131.677734 C2458.33138,131.527995 2458.85547,131.453125 2459.30469,131.453125 C2460.35286,131.453125 2461.2513,131.602865 2462,131.902344 C2462.59896,132.201823 2463.12305,132.576172 2463.57227,133.025391 C2464.02148,133.624349 2464.32096,134.148438 2464.4707,134.597656 C2464.62044,135.196615 2464.69531,135.795573 2464.69531,136.394531 C2464.69531,136.99349 2464.62044,137.592448 2464.4707,138.191406 C2464.32096,138.640625 2464.02148,139.164714 2463.57227,139.763672 C2463.27279,140.212891 2462.82357,140.736979 2462.22461,141.335938 C2461.62565,141.785156 2460.87695,142.234375 2459.97852,142.683594 C2459.37956,143.132812 2458.85547,143.582031 2458.40625,144.03125 C2457.80729,144.630208 2457.35807,145.154297 2457.05859,145.603516 C2456.75911,146.052734 2456.53451,146.501953 2456.38477,146.951172 C2456.23503,147.400391 2456.08529,147.77474 2455.93555,148.074219 C2456.83398,148.074219 2457.95703,148.074219 2459.30469,148.074219 C2460.65234,148.074219 2462.22461,148.074219 2464.02148,148.074219 Z" transform="translate(-2363)"/></svg>