<svg xmlns="http://www.w3.org/2000/svg" width="243" height="243" viewBox="0 0 243 243"><path fill="#131313" d="M155.650391,150.380859 C157.447266,151.728516 158.495443,153.525391 158.794922,155.771484 C159.094401,158.017578 158.645182,160.039062 157.447266,161.835938 C156.548828,162.884115 155.500651,163.707682 154.302734,164.306641 C153.254557,164.755859 152.056641,164.980469 150.708984,164.980469 C149.960286,164.980469 149.136719,164.905599 148.238281,164.755859 C147.489583,164.45638 146.740885,164.007161 145.992188,163.408203 C135.809896,155.921224 120.536458,144.765625 100.171875,129.941406 C100.171875,135.93099 100.171875,144.915365 100.171875,156.894531 C100.171875,159.140625 99.4231771,161.08724 97.9257812,162.734375 C96.2786458,164.231771 94.3320312,164.980469 92.0859375,164.980469 C89.8398438,164.980469 87.8932292,164.231771 86.2460938,162.734375 C84.7486979,161.08724 84,159.140625 84,156.894531 C84,126.048177 84,79.7786458 84,18.0859375 C84,15.8398438 84.7486979,13.8932292 86.2460938,12.2460938 C87.8932292,10.7486979 89.8398438,10 92.0859375,10 C94.3320312,10 96.2786458,10.7486979 97.9257812,12.2460938 C99.4231771,13.8932292 100.171875,15.8398438 100.171875,18.0859375 C100.171875,39.4986979 100.171875,71.6178385 100.171875,114.443359 C109.30599,107.10612 122.932292,96.0253906 141.050781,81.2011719 C142.847656,79.703776 144.794271,79.1048177 146.890625,79.4042969 C149.136719,79.5540365 151.008464,80.5273438 152.505859,82.3242188 C153.853516,84.1210938 154.452474,86.1425781 154.302734,88.3886719 C154.003255,90.6347656 153.029948,92.4316406 151.382812,93.7792969 C143.746094,100.068359 132.216146,109.427083 116.792969,121.855469 C123.38151,126.647135 129.895182,131.363932 136.333984,136.005859 C142.772786,140.797526 149.211589,145.589193 155.650391,150.380859 Z M134.490234,121.630859 C138.233724,124.475911 143.998698,128.66862 151.785156,134.208984 C151.485677,134.658203 151.036458,135.332031 150.4375,136.230469 C145.945312,132.936198 139.356771,128.069661 130.671875,121.630859 C134.714844,118.336589 140.779297,113.395182 148.865234,106.806641 C149.014974,106.95638 149.164714,107.10612 149.314453,107.255859 C149.314453,107.405599 149.389323,107.555339 149.539062,107.705078 C149.688802,107.854818 149.838542,108.004557 149.988281,108.154297 C150.138021,108.304036 150.28776,108.453776 150.4375,108.603516 C147.742188,110.69987 145.046875,112.871094 142.351562,115.117188 C139.80599,117.213542 137.185547,119.384766 134.490234,121.630859 Z M150.212891,100.742188 C150.36263,100.742188 150.51237,100.667318 150.662109,100.517578 C150.662109,100.517578 150.736979,100.517578 150.886719,100.517578 C150.736979,100.517578 150.662109,100.517578 150.662109,100.517578 C150.51237,100.667318 150.36263,100.742188 150.212891,100.742188 Z M150.662109,101.191406 C149.913411,101.940104 149.389323,102.763672 149.089844,103.662109 C148.940104,104.560547 149.089844,105.458984 149.539062,106.357422 C149.389323,106.507161 149.164714,106.656901 148.865234,106.806641 C148.416016,105.758464 148.341146,104.710286 148.640625,103.662109 C148.790365,102.464193 149.314453,101.490885 150.212891,100.742188 C151.261068,99.9934896 152.458984,99.6191406 153.806641,99.6191406 C155.154297,99.7688802 156.277344,100.367839 157.175781,101.416016 C158.074219,102.464193 158.448568,103.662109 158.298828,105.009766 C158.149089,106.357422 157.55013,107.480469 156.501953,108.378906 C155.603516,109.127604 154.555339,109.501953 153.357422,109.501953 C152.309245,109.501953 151.335938,109.202474 150.4375,108.603516 C150.58724,108.453776 150.736979,108.304036 150.886719,108.154297 C151.635417,108.753255 152.533854,108.977865 153.582031,108.828125 C154.480469,108.828125 155.304036,108.528646 156.052734,107.929688 C157.100911,107.18099 157.625,106.207682 157.625,105.009766 C157.77474,103.811849 157.47526,102.763672 156.726562,101.865234 C155.977865,100.966797 155.004557,100.442708 153.806641,100.292969 C152.608724,100.143229 151.560547,100.442708 150.662109,101.191406 Z M150.212891,100.742188 C150.063151,100.891927 149.988281,101.041667 149.988281,101.191406 C149.838542,101.191406 149.763672,101.191406 149.763672,101.191406 C149.763672,101.191406 149.838542,101.191406 149.988281,101.191406 C150.138021,101.041667 150.212891,100.891927 150.212891,100.742188 Z M150.4375,108.603516 C150.28776,108.453776 150.138021,108.304036 149.988281,108.154297 C149.838542,108.004557 149.688802,107.854818 149.539062,107.705078 C149.539062,107.555339 149.464193,107.405599 149.314453,107.255859 C149.164714,107.10612 149.089844,106.95638 149.089844,106.806641 C149.089844,106.656901 149.239583,106.507161 149.539062,106.357422 C149.539062,106.507161 149.613932,106.656901 149.763672,106.806641 C149.763672,106.95638 149.838542,107.10612 149.988281,107.255859 C150.138021,107.555339 150.28776,107.705078 150.4375,107.705078 C150.58724,107.854818 150.736979,108.004557 150.886719,108.154297 C150.886719,108.154297 150.811849,108.229167 150.662109,108.378906 C150.662109,108.378906 150.58724,108.453776 150.4375,108.603516 Z M156.052734,107.929688 C155.304036,108.528646 154.480469,108.828125 153.582031,108.828125 C152.533854,108.977865 151.635417,108.753255 150.886719,108.154297 C151.036458,108.004557 151.186198,107.854818 151.335938,107.705078 C152.084635,108.154297 152.833333,108.378906 153.582031,108.378906 C154.330729,108.378906 155.079427,108.079427 155.828125,107.480469 C155.678385,107.630208 155.603516,107.705078 155.603516,107.705078 C155.453776,107.705078 155.378906,107.779948 155.378906,107.929688 C155.378906,107.779948 155.453776,107.705078 155.603516,107.705078 C155.603516,107.705078 155.678385,107.630208 155.828125,107.480469 C156.576823,106.88151 157.026042,106.057943 157.175781,105.009766 C157.175781,103.961589 156.876302,103.063151 156.277344,102.314453 C155.678385,101.565755 154.854818,101.116536 153.806641,100.966797 C152.758464,100.817057 151.860026,101.116536 151.111328,101.865234 C150.36263,102.314453 149.913411,102.913411 149.763672,103.662109 C149.613932,104.560547 149.688802,105.309245 149.988281,105.908203 C149.838542,106.057943 149.688802,106.207682 149.539062,106.357422 C149.089844,105.458984 149.014974,104.560547 149.314453,103.662109 C149.464193,102.763672 149.913411,101.940104 150.662109,101.191406 C151.560547,100.442708 152.608724,100.143229 153.806641,100.292969 C155.004557,100.442708 155.977865,100.966797 156.726562,101.865234 C157.47526,102.763672 157.77474,103.811849 157.625,105.009766 C157.47526,106.207682 156.951172,107.18099 156.052734,107.929688 Z M150.4375,107.03125 C150.58724,107.18099 150.736979,107.330729 150.886719,107.480469 C151.036458,107.630208 151.186198,107.705078 151.335938,107.705078 C151.186198,107.854818 151.036458,108.004557 150.886719,108.154297 C150.736979,108.004557 150.58724,107.854818 150.4375,107.705078 C150.28776,107.705078 150.138021,107.555339 149.988281,107.255859 C149.838542,107.10612 149.763672,106.95638 149.763672,106.806641 C149.613932,106.656901 149.539062,106.507161 149.539062,106.357422 C149.539062,106.207682 149.688802,106.057943 149.988281,105.908203 C149.988281,106.207682 150.063151,106.432292 150.212891,106.582031 C150.212891,106.731771 150.28776,106.88151 150.4375,107.03125 Z M153.132812,132.636719 C154.779948,134.882812 157.400391,138.177083 160.994141,142.519531 C158.448568,141.621094 154.480469,140.123698 149.089844,138.027344 C149.389323,137.578125 149.838542,136.979167 150.4375,136.230469 C150.736979,136.529948 151.335938,136.979167 152.234375,137.578125 C152.533854,137.128906 152.983073,136.455078 153.582031,135.556641 C153.132812,135.257161 152.533854,134.807943 151.785156,134.208984 C152.084635,133.909505 152.533854,133.385417 153.132812,132.636719 Z M150.4375,136.230469 C150.736979,135.78125 151.186198,135.107422 151.785156,134.208984 C152.234375,134.508464 152.833333,135.032552 153.582031,135.78125 C153.282552,136.080729 152.833333,136.679688 152.234375,137.578125 C151.785156,137.278646 151.186198,136.829427 150.4375,136.230469 Z M72.7226562,27.7441406 C72.8723958,27.8938802 73.0221354,27.96875 73.171875,27.96875 C73.4713542,27.96875 73.6959635,27.96875 73.8457031,27.96875 C73.9954427,27.96875 74.2200521,27.96875 74.5195312,27.96875 C74.6692708,27.96875 74.8190104,27.8938802 74.96875,27.7441406 C74.96875,53.7988281 74.96875,92.7311198 74.96875,144.541016 C74.5195312,144.541016 73.7708333,144.541016 72.7226562,144.541016 C72.7226562,125.07487 72.7226562,105.608724 72.7226562,86.1425781 C72.7226562,66.6764323 72.7226562,47.2102865 72.7226562,27.7441406 Z M72.7226562,146.787109 C72.7226562,146.337891 72.7226562,145.589193 72.7226562,144.541016 C72.2734375,144.541016 71.5247396,144.541016 70.4765625,144.541016 C71.2252604,147.386068 72.3483073,151.578776 73.8457031,157.119141 C74.594401,154.274089 75.7174479,150.08138 77.2148438,144.541016 C76.765625,144.541016 76.0169271,144.541016 74.96875,144.541016 C74.96875,145.139974 74.96875,145.888672 74.96875,146.787109 C74.5195312,146.787109 73.7708333,146.787109 72.7226562,146.787109 Z M72.7226562,146.787109 C73.171875,146.787109 73.9205729,146.787109 74.96875,146.787109 C74.96875,146.337891 74.96875,145.589193 74.96875,144.541016 C74.5195312,144.541016 73.7708333,144.541016 72.7226562,144.541016 C72.7226562,145.139974 72.7226562,145.888672 72.7226562,146.787109 Z M73.8457031,18.0859375 C75.1933594,18.0859375 76.3164062,18.610026 77.2148438,19.6582031 C78.2630208,20.5566406 78.7871094,21.6796875 78.7871094,23.0273438 C78.7871094,24.2252604 78.4127604,25.2734375 77.6640625,26.171875 C76.9153646,27.0703125 76.0169271,27.594401 74.96875,27.7441406 C74.96875,27.7441406 74.96875,27.594401 74.96875,27.2949219 C75.8671875,26.9954427 76.6158854,26.4713542 77.2148438,25.7226562 C77.8138021,24.9739583 78.1132812,24.0755208 78.1132812,23.0273438 C78.1132812,21.8294271 77.7389323,20.8561198 76.9902344,20.1074219 C76.0917969,19.2089844 75.0436198,18.7597656 73.8457031,18.7597656 C72.6477865,18.7597656 71.5996094,19.2089844 70.7011719,20.1074219 C69.952474,20.8561198 69.578125,21.8294271 69.578125,23.0273438 C69.578125,24.0755208 69.8776042,24.9739583 70.4765625,25.7226562 C71.0755208,26.4713542 71.8242188,26.9954427 72.7226562,27.2949219 C72.7226562,27.4446615 72.7226562,27.594401 72.7226562,27.7441406 C71.6744792,27.594401 70.7760417,27.0703125 70.0273438,26.171875 C69.2786458,25.2734375 68.9042969,24.2252604 68.9042969,23.0273438 C68.9042969,21.6796875 69.4283854,20.5566406 70.4765625,19.6582031 C71.375,18.610026 72.4980469,18.0859375 73.8457031,18.0859375 Z M73.8457031,27.5195312 C73.9954427,27.5195312 74.2200521,27.4446615 74.5195312,27.2949219 C74.6692708,27.2949219 74.8190104,27.2949219 74.96875,27.2949219 C74.96875,27.4446615 74.96875,27.594401 74.96875,27.7441406 C74.8190104,27.8938802 74.6692708,27.96875 74.5195312,27.96875 C74.2200521,27.96875 73.9954427,27.96875 73.8457031,27.96875 C73.6959635,27.96875 73.4713542,27.96875 73.171875,27.96875 C73.0221354,27.96875 72.8723958,27.8938802 72.7226562,27.7441406 C72.7226562,27.7441406 72.7226562,27.594401 72.7226562,27.2949219 C72.8723958,27.2949219 73.0221354,27.2949219 73.171875,27.2949219 C73.4713542,27.4446615 73.6959635,27.5195312 73.8457031,27.5195312 Z M70.0273438,23.0273438 C70.0273438,23.9257812 70.3268229,24.6744792 70.9257812,25.2734375 C71.375,25.8723958 71.9739583,26.3216146 72.7226562,26.6210938 C72.7226562,26.7708333 72.7226562,26.9954427 72.7226562,27.2949219 C71.8242188,26.9954427 71.0755208,26.4713542 70.4765625,25.7226562 C69.8776042,24.9739583 69.578125,24.0755208 69.578125,23.0273438 C69.578125,21.8294271 69.952474,20.8561198 70.7011719,20.1074219 C71.5996094,19.2089844 72.6477865,18.7597656 73.8457031,18.7597656 C75.0436198,18.7597656 76.0917969,19.2089844 76.9902344,20.1074219 C77.7389323,20.8561198 78.1132812,21.8294271 78.1132812,23.0273438 C78.1132812,24.0755208 77.8138021,24.9739583 77.2148438,25.7226562 C76.6158854,26.4713542 75.8671875,26.9954427 74.96875,27.2949219 C74.96875,27.1451823 74.96875,26.9205729 74.96875,26.6210938 C75.7174479,26.3216146 76.3164062,25.8723958 76.765625,25.2734375 C77.3645833,24.6744792 77.6640625,23.9257812 77.6640625,23.0273438 C77.6640625,21.9791667 77.2897135,21.155599 76.5410156,20.5566406 C75.7923177,19.8079427 74.8938802,19.4335938 73.8457031,19.4335938 C72.797526,19.4335938 71.8990885,19.8079427 71.1503906,20.5566406 C70.4016927,21.155599 70.0273438,21.9791667 70.0273438,23.0273438 C70.0273438,22.8776042 70.0273438,22.7278646 70.0273438,22.578125 C70.0273438,22.4283854 70.0273438,22.4283854 70.0273438,22.578125 C70.0273438,22.4283854 70.0273438,22.4283854 70.0273438,22.578125 C70.0273438,22.7278646 70.0273438,22.8776042 70.0273438,23.0273438 C70.0273438,23.3268229 70.0273438,23.4765625 70.0273438,23.4765625 C70.0273438,23.6263021 70.0273438,23.7011719 70.0273438,23.7011719 C70.0273438,23.7011719 70.0273438,23.6263021 70.0273438,23.4765625 C70.0273438,23.4765625 70.0273438,23.3268229 70.0273438,23.0273438 Z M74.96875,27.2949219 C74.8190104,27.2949219 74.6692708,27.2949219 74.5195312,27.2949219 C74.2200521,27.4446615 73.9954427,27.5195312 73.8457031,27.5195312 C73.6959635,27.5195312 73.4713542,27.4446615 73.171875,27.2949219 C73.0221354,27.2949219 72.8723958,27.2949219 72.7226562,27.2949219 C72.7226562,27.1451823 72.7226562,26.9205729 72.7226562,26.6210938 C72.8723958,26.6210938 73.0221354,26.6959635 73.171875,26.8457031 C73.4713542,26.8457031 73.6959635,26.8457031 73.8457031,26.8457031 C73.9954427,26.8457031 74.2200521,26.8457031 74.5195312,26.8457031 C74.6692708,26.6959635 74.8190104,26.6210938 74.96875,26.6210938 C74.96875,26.7708333 74.96875,26.8457031 74.96875,26.8457031 C74.96875,26.9954427 74.96875,27.1451823 74.96875,27.2949219 Z M60.8183594,19.4335938 C60.8183594,19.4335938 60.8932292,19.5084635 61.0429688,19.6582031 C61.0429688,19.6582031 61.1178385,19.7330729 61.2675781,19.8828125 C61.2675781,19.8828125 61.2675781,19.9576823 61.2675781,20.1074219 C61.2675781,20.1074219 61.2675781,20.1822917 61.2675781,20.3320312 C61.2675781,22.1289062 61.2675781,24.4498698 61.2675781,27.2949219 C61.2675781,30.139974 61.2675781,33.359375 61.2675781,36.953125 C61.2675781,37.1028646 61.2675781,37.2526042 61.2675781,37.4023438 C61.2675781,37.5520833 61.1927083,37.6269531 61.0429688,37.6269531 C60.8932292,37.7766927 60.8183594,37.8515625 60.8183594,37.8515625 C60.6686198,38.0013021 60.5188802,38.0761719 60.3691406,38.0761719 C60.219401,38.0761719 60.0696615,38.0013021 59.9199219,37.8515625 C59.9199219,37.8515625 59.8450521,37.7766927 59.6953125,37.6269531 C59.5455729,37.6269531 59.4707031,37.5520833 59.4707031,37.4023438 C59.4707031,37.2526042 59.4707031,37.1028646 59.4707031,36.953125 C59.4707031,35.4557292 59.4707031,33.5091146 59.4707031,31.1132812 C59.4707031,28.7174479 59.4707031,25.9472656 59.4707031,22.8027344 C59.3209635,22.8027344 59.171224,22.8776042 59.0214844,23.0273438 C59.0214844,23.1770833 58.9466146,23.3268229 58.796875,23.4765625 C58.6471354,23.4765625 58.4973958,23.5514323 58.3476562,23.7011719 C58.1979167,23.7011719 58.1230469,23.7011719 58.1230469,23.7011719 C57.9733073,23.7011719 57.8235677,23.7011719 57.6738281,23.7011719 C57.5240885,23.5514323 57.4492188,23.4765625 57.4492188,23.4765625 C57.2994792,23.3268229 57.2246094,23.1770833 57.2246094,23.0273438 C57.0748698,22.8776042 57,22.8027344 57,22.8027344 C57,22.6529948 57.0748698,22.5032552 57.2246094,22.3535156 C57.2246094,22.203776 57.2994792,22.0540365 57.4492188,21.9042969 C57.5989583,21.7545573 57.8984375,21.4550781 58.3476562,21.0058594 C58.796875,20.5566406 59.2460938,20.1074219 59.6953125,19.6582031 C59.6953125,19.6582031 59.7701823,19.5833333 59.9199219,19.4335938 C60.0696615,19.4335938 60.1445312,19.4335938 60.1445312,19.4335938 C60.1445312,19.4335938 60.219401,19.4335938 60.3691406,19.4335938 C60.3691406,19.4335938 60.3691406,19.4335938 60.3691406,19.4335938 C60.3691406,19.4335938 60.4440104,19.4335938 60.59375,19.4335938 C60.59375,19.4335938 60.6686198,19.4335938 60.8183594,19.4335938 Z M174.021484,111.074219 C174.171224,111.074219 174.320964,111.149089 174.470703,111.298828 C174.620443,111.298828 174.695312,111.373698 174.695312,111.523438 C174.845052,111.523438 174.919922,111.598307 174.919922,111.748047 C175.069661,111.897786 175.144531,112.047526 175.144531,112.197266 C175.144531,112.347005 175.069661,112.421875 174.919922,112.421875 C174.919922,112.571615 174.845052,112.721354 174.695312,112.871094 C174.695312,112.871094 174.620443,112.945964 174.470703,113.095703 C174.320964,113.095703 174.171224,113.095703 174.021484,113.095703 C173.272786,113.095703 172.524089,113.095703 171.775391,113.095703 C171.026693,113.095703 170.203125,113.095703 169.304688,113.095703 C168.55599,113.095703 167.807292,113.095703 167.058594,113.095703 C166.309896,113.095703 165.486328,113.095703 164.587891,113.095703 C164.587891,113.095703 164.587891,113.095703 164.587891,113.095703 C164.438151,113.095703 164.363281,113.095703 164.363281,113.095703 C164.213542,113.095703 164.138672,113.020833 164.138672,112.871094 C164.138672,112.871094 164.063802,112.871094 163.914062,112.871094 C163.914062,112.721354 163.914062,112.646484 163.914062,112.646484 C163.914062,112.646484 163.839193,112.571615 163.689453,112.421875 C163.689453,112.421875 163.689453,112.421875 163.689453,112.421875 C163.689453,112.272135 163.689453,112.197266 163.689453,112.197266 C163.689453,112.197266 163.689453,112.197266 163.689453,112.197266 C163.689453,112.047526 163.689453,111.972656 163.689453,111.972656 C163.689453,111.972656 163.764323,111.897786 163.914062,111.748047 C163.914062,111.448568 163.988932,111.074219 164.138672,110.625 C164.138672,110.175781 164.288411,109.726562 164.587891,109.277344 C164.73763,108.678385 165.037109,108.154297 165.486328,107.705078 C165.636068,107.405599 165.860677,107.10612 166.160156,106.806641 C166.309896,106.507161 166.534505,106.132812 166.833984,105.683594 C167.133464,105.384115 167.432943,105.159505 167.732422,105.009766 C168.181641,104.710286 168.630859,104.410807 169.080078,104.111328 C169.828776,103.51237 170.502604,102.988281 171.101562,102.539062 C171.550781,102.089844 171.92513,101.715495 172.224609,101.416016 C172.374349,100.966797 172.524089,100.592448 172.673828,100.292969 C172.823568,99.9934896 172.898438,99.6940104 172.898438,99.3945312 C172.898438,99.2447917 172.898438,99.0950521 172.898438,98.9453125 C172.898438,98.9453125 172.823568,98.8704427 172.673828,98.7207031 C172.673828,98.5709635 172.673828,98.4960938 172.673828,98.4960938 C172.673828,98.3463542 172.673828,98.1966146 172.673828,98.046875 C172.524089,97.8971354 172.374349,97.672526 172.224609,97.3730469 C172.07487,97.2233073 171.85026,97.0735677 171.550781,96.9238281 C171.401042,96.7740885 171.101562,96.624349 170.652344,96.4746094 C170.352865,96.4746094 169.978516,96.4746094 169.529297,96.4746094 C169.080078,96.4746094 168.705729,96.4746094 168.40625,96.4746094 C168.106771,96.624349 167.807292,96.7740885 167.507812,96.9238281 C167.208333,97.0735677 166.983724,97.2981771 166.833984,97.5976562 C166.684245,97.7473958 166.534505,97.9720052 166.384766,98.2714844 C166.235026,98.421224 166.160156,98.5709635 166.160156,98.7207031 C166.010417,98.7207031 165.860677,98.7955729 165.710938,98.9453125 C165.561198,98.9453125 165.411458,98.9453125 165.261719,98.9453125 C165.261719,98.9453125 165.186849,98.8704427 165.037109,98.7207031 C164.88737,98.7207031 164.73763,98.6458333 164.587891,98.4960938 C164.587891,98.4960938 164.587891,98.421224 164.587891,98.2714844 C164.438151,98.1217448 164.363281,97.9720052 164.363281,97.8222656 C164.363281,97.8222656 164.438151,97.7473958 164.587891,97.5976562 C164.73763,96.9986979 164.96224,96.5494792 165.261719,96.25 C165.710938,95.8007812 166.085286,95.5013021 166.384766,95.3515625 C166.833984,95.0520833 167.283203,94.827474 167.732422,94.6777344 C168.33138,94.5279948 168.855469,94.453125 169.304688,94.453125 C170.352865,94.453125 171.251302,94.6028646 172,94.9023438 C172.598958,95.2018229 173.123047,95.5761719 173.572266,96.0253906 C174.021484,96.624349 174.320964,97.1484375 174.470703,97.5976562 C174.620443,98.1966146 174.695312,98.7955729 174.695312,99.3945312 C174.695312,99.9934896 174.620443,100.592448 174.470703,101.191406 C174.320964,101.640625 174.021484,102.164714 173.572266,102.763672 C173.272786,103.212891 172.823568,103.736979 172.224609,104.335938 C171.625651,104.785156 170.876953,105.234375 169.978516,105.683594 C169.379557,106.132812 168.855469,106.582031 168.40625,107.03125 C167.807292,107.630208 167.358073,108.154297 167.058594,108.603516 C166.759115,109.052734 166.534505,109.501953 166.384766,109.951172 C166.235026,110.400391 166.085286,110.77474 165.935547,111.074219 C166.833984,111.074219 167.957031,111.074219 169.304688,111.074219 C170.652344,111.074219 172.224609,111.074219 174.021484,111.074219 Z"/></svg>