<svg xmlns="http://www.w3.org/2000/svg" width="97" height="203" viewBox="0 0 97 203"><path fill="#131313" d="M2445.65039,138.380859 C2447.44727,139.728516 2448.49544,141.525391 2448.79492,143.771484 C2449.0944,146.017578 2448.64518,148.039063 2447.44727,149.835937 C2446.54883,150.884115 2445.50065,151.707682 2444.30273,152.306641 C2443.25456,152.755859 2442.05664,152.980469 2440.70898,152.980469 C2439.96029,152.980469 2439.13672,152.905599 2438.23828,152.755859 C2437.48958,152.45638 2436.74089,152.007161 2435.99219,151.408203 C2425.8099,143.921224 2410.53646,132.765625 2390.17187,117.941406 C2390.17187,123.93099 2390.17187,132.915365 2390.17187,144.894531 C2390.17187,147.140625 2389.42318,149.08724 2387.92578,150.734375 C2386.27865,152.231771 2384.33203,152.980469 2382.08594,152.980469 C2379.83984,152.980469 2377.89323,152.231771 2376.24609,150.734375 C2374.7487,149.08724 2374,147.140625 2374,144.894531 C2374,114.048177 2374,81.7786458 2374,20.0859375 C2374,17.8398438 2374.7487,15.8932292 2376.24609,14.2460938 C2377.89323,12.7486979 2379.83984,12 2382.08594,12 C2384.33203,12 2386.27865,12.7486979 2387.92578,14.2460938 C2389.42318,15.8932292 2390.17187,17.8398438 2390.17187,20.0859375 C2390.17187,41.4986979 2390.17187,59.6178385 2390.17187,102.443359 C2399.30599,95.1061198 2412.93229,84.0253906 2431.05078,69.2011719 C2432.84766,67.703776 2434.79427,67.1048177 2436.89062,67.4042969 C2439.13672,67.5540365 2441.00846,68.5273438 2442.50586,70.3242188 C2443.85352,72.1210937 2444.45247,74.1425781 2444.30273,76.3886719 C2444.00326,78.6347656 2443.02995,80.4316406 2441.38281,81.7792969 C2433.74609,88.0683594 2422.21615,97.4270833 2406.79297,109.855469 C2413.38151,114.647135 2419.89518,119.363932 2426.33398,124.005859 C2432.77279,128.797526 2439.21159,133.589193 2445.65039,138.380859 Z M2424.49023,109.630859 C2428.23372,112.475911 2433.9987,116.66862 2441.78516,122.208984 C2441.48568,122.658203 2441.03646,123.332031 2440.4375,124.230469 C2435.94531,120.936198 2429.35677,116.069661 2420.67187,109.630859 C2424.71484,106.336589 2430.7793,101.395182 2438.86523,94.8066406 C2439.01497,94.9563802 2439.16471,95.1061198 2439.31445,95.2558594 C2439.31445,95.405599 2439.38932,95.5553385 2439.53906,95.7050781 C2439.6888,95.8548177 2439.83854,96.0045573 2439.98828,96.1542969 C2440.13802,96.3040365 2440.28776,96.453776 2440.4375,96.6035156 C2437.74219,98.6998698 2435.04687,100.871094 2432.35156,103.117188 C2429.80599,105.213542 2427.18555,107.384766 2424.49023,109.630859 Z M2440.21289,88.7421875 C2440.36263,88.7421875 2440.51237,88.6673177 2440.66211,88.5175781 C2440.66211,88.5175781 2440.73698,88.5175781 2440.88672,88.5175781 C2440.73698,88.5175781 2440.66211,88.5175781 2440.66211,88.5175781 C2440.51237,88.6673177 2440.36263,88.7421875 2440.21289,88.7421875 Z M2440.66211,89.1914062 C2439.91341,89.9401042 2439.38932,90.7636719 2439.08984,91.6621094 C2438.9401,92.5605469 2439.08984,93.4589844 2439.53906,94.3574219 C2439.38932,94.5071615 2439.16471,94.656901 2438.86523,94.8066406 C2438.41602,93.7584635 2438.34115,92.7102865 2438.64062,91.6621094 C2438.79036,90.4641927 2439.31445,89.4908854 2440.21289,88.7421875 C2441.26107,87.9934896 2442.45898,87.6191406 2443.80664,87.6191406 C2445.1543,87.7688802 2446.27734,88.3678385 2447.17578,89.4160156 C2448.07422,90.4641927 2448.44857,91.6621094 2448.29883,93.0097656 C2448.14909,94.3574219 2447.55013,95.4804688 2446.50195,96.3789062 C2445.60352,97.1276042 2444.55534,97.5019531 2443.35742,97.5019531 C2442.30924,97.5019531 2441.33594,97.202474 2440.4375,96.6035156 C2440.58724,96.453776 2440.73698,96.3040365 2440.88672,96.1542969 C2441.63542,96.7532552 2442.53385,96.9778646 2443.58203,96.828125 C2444.48047,96.828125 2445.30404,96.5286458 2446.05273,95.9296875 C2447.10091,95.1809896 2447.625,94.2076823 2447.625,93.0097656 C2447.77474,91.811849 2447.47526,90.7636719 2446.72656,89.8652344 C2445.97786,88.9667969 2445.00456,88.4427083 2443.80664,88.2929688 C2442.60872,88.1432292 2441.56055,88.4427083 2440.66211,89.1914062 Z M2440.21289,88.7421875 C2440.06315,88.8919271 2439.98828,89.0416667 2439.98828,89.1914062 C2439.83854,89.1914062 2439.76367,89.1914062 2439.76367,89.1914062 C2439.76367,89.1914062 2439.83854,89.1914062 2439.98828,89.1914062 C2440.13802,89.0416667 2440.21289,88.8919271 2440.21289,88.7421875 Z M2440.4375,96.6035156 C2440.28776,96.453776 2440.13802,96.3040365 2439.98828,96.1542969 C2439.83854,96.0045573 2439.6888,95.8548177 2439.53906,95.7050781 C2439.53906,95.5553385 2439.46419,95.405599 2439.31445,95.2558594 C2439.16471,95.1061198 2439.08984,94.9563802 2439.08984,94.8066406 C2439.08984,94.656901 2439.23958,94.5071615 2439.53906,94.3574219 C2439.53906,94.5071615 2439.61393,94.656901 2439.76367,94.8066406 C2439.76367,94.9563802 2439.83854,95.1061198 2439.98828,95.2558594 C2440.13802,95.5553385 2440.28776,95.7050781 2440.4375,95.7050781 C2440.58724,95.8548177 2440.73698,96.0045573 2440.88672,96.1542969 C2440.88672,96.1542969 2440.81185,96.2291667 2440.66211,96.3789062 C2440.66211,96.3789062 2440.58724,96.453776 2440.4375,96.6035156 Z M2446.05273,95.9296875 C2445.30404,96.5286458 2444.48047,96.828125 2443.58203,96.828125 C2442.53385,96.9778646 2441.63542,96.7532552 2440.88672,96.1542969 C2441.03646,96.0045573 2441.1862,95.8548177 2441.33594,95.7050781 C2442.08464,96.1542969 2442.83333,96.3789063 2443.58203,96.3789063 C2444.33073,96.3789063 2445.07943,96.0794271 2445.82812,95.4804688 C2445.67839,95.6302083 2445.60352,95.7050781 2445.60352,95.7050781 C2445.45378,95.7050781 2445.37891,95.7799479 2445.37891,95.9296875 C2445.37891,95.7799479 2445.45378,95.7050781 2445.60352,95.7050781 C2445.60352,95.7050781 2445.67839,95.6302083 2445.82812,95.4804688 C2446.57682,94.8815104 2447.02604,94.0579427 2447.17578,93.0097656 C2447.17578,91.9615885 2446.8763,91.063151 2446.27734,90.3144531 C2445.67839,89.5657552 2444.85482,89.1165365 2443.80664,88.9667969 C2442.75846,88.8170573 2441.86003,89.1165365 2441.11133,89.8652344 C2440.36263,90.3144531 2439.91341,90.9134115 2439.76367,91.6621094 C2439.61393,92.5605469 2439.6888,93.3092448 2439.98828,93.9082031 C2439.83854,94.0579427 2439.6888,94.2076823 2439.53906,94.3574219 C2439.08984,93.4589844 2439.01497,92.5605469 2439.31445,91.6621094 C2439.46419,90.7636719 2439.91341,89.9401042 2440.66211,89.1914063 C2441.56055,88.4427083 2442.60872,88.1432292 2443.80664,88.2929688 C2445.00456,88.4427083 2445.97786,88.9667969 2446.72656,89.8652344 C2447.47526,90.7636719 2447.77474,91.811849 2447.625,93.0097656 C2447.47526,94.2076823 2446.95117,95.1809896 2446.05273,95.9296875 Z M2440.4375,95.03125 C2440.58724,95.1809896 2440.73698,95.3307292 2440.88672,95.4804688 C2441.03646,95.6302083 2441.1862,95.7050781 2441.33594,95.7050781 C2441.1862,95.8548177 2441.03646,96.0045573 2440.88672,96.1542969 C2440.73698,96.0045573 2440.58724,95.8548177 2440.4375,95.7050781 C2440.28776,95.7050781 2440.13802,95.5553385 2439.98828,95.2558594 C2439.83854,95.1061198 2439.76367,94.9563802 2439.76367,94.8066406 C2439.61393,94.656901 2439.53906,94.5071615 2439.53906,94.3574219 C2439.53906,94.2076823 2439.6888,94.0579427 2439.98828,93.9082031 C2439.98828,94.2076823 2440.06315,94.4322917 2440.21289,94.5820312 C2440.21289,94.7317708 2440.28776,94.8815104 2440.4375,95.03125 Z M2443,120.5 C2444.75,122.75 2447.40039,126.177083 2450.99414,130.519531 C2448.44857,129.621094 2444.48047,128.123698 2439.08984,126.027344 C2439.38932,125.578125 2442.40104,121.248698 2443,120.5 Z M2362.72266,21.7441406 C2362.8724,21.8938802 2363.02214,21.96875 2363.17187,21.96875 C2363.47135,21.96875 2363.69596,21.96875 2363.8457,21.96875 C2363.99544,21.96875 2364.22005,21.96875 2364.51953,21.96875 C2364.66927,21.96875 2364.81901,21.8938802 2364.96875,21.7441406 C2364.96875,47.7988281 2364.96875,80.7311198 2364.96875,132.541016 C2364.51953,132.541016 2363.77083,132.541016 2362.72266,132.541016 C2362.72266,113.07487 2362.72266,93.608724 2362.72266,74.1425781 C2362.72266,54.6764323 2362.72266,41.2102865 2362.72266,21.7441406 Z M2360.47656,132.541016 C2361.22526,135.386068 2362.34831,139.578776 2363.8457,145.119141 C2364.5944,142.274089 2365.71745,138.08138 2367.21484,132.541016 C2366.76562,132.541016 2361.52474,132.541016 2360.47656,132.541016 Z M2363.8457,12.0859375 C2365.19336,12.0859375 2366.31641,12.610026 2367.21484,13.6582031 C2368.26302,14.5566406 2368.78711,15.6796875 2368.78711,17.0273438 C2368.78711,18.2252604 2368.41276,19.2734375 2367.66406,20.171875 C2366.91536,21.0703125 2366.01693,21.594401 2364.96875,21.7441406 C2364.96875,21.7441406 2364.96875,21.594401 2364.96875,21.2949219 C2365.86719,20.9954427 2366.61589,20.4713542 2367.21484,19.7226563 C2367.8138,18.9739583 2368.11328,18.0755208 2368.11328,17.0273438 C2368.11328,15.8294271 2367.73893,14.8561198 2366.99023,14.1074219 C2366.0918,13.2089844 2365.04362,12.7597656 2363.8457,12.7597656 C2362.64779,12.7597656 2361.59961,13.2089844 2360.70117,14.1074219 C2359.95247,14.8561198 2359.57812,15.8294271 2359.57812,17.0273438 C2359.57812,18.0755208 2359.8776,18.9739583 2360.47656,19.7226563 C2361.07552,20.4713542 2361.82422,20.9954427 2362.72266,21.2949219 C2362.72266,21.4446615 2362.72266,21.594401 2362.72266,21.7441406 C2361.67448,21.594401 2360.77604,21.0703125 2360.02734,20.171875 C2359.27865,19.2734375 2358.9043,18.2252604 2358.9043,17.0273438 C2358.9043,15.6796875 2359.42839,14.5566406 2360.47656,13.6582031 C2361.375,12.610026 2362.49805,12.0859375 2363.8457,12.0859375 Z M2363.8457,21.5195312 C2363.99544,21.5195312 2364.22005,21.4446615 2364.51953,21.2949219 C2364.66927,21.2949219 2364.81901,21.2949219 2364.96875,21.2949219 C2364.96875,21.4446615 2364.96875,21.594401 2364.96875,21.7441406 C2364.81901,21.8938802 2364.66927,21.96875 2364.51953,21.96875 C2364.22005,21.96875 2363.99544,21.96875 2363.8457,21.96875 C2363.69596,21.96875 2363.47135,21.96875 2363.17187,21.96875 C2363.02214,21.96875 2362.8724,21.8938802 2362.72266,21.7441406 C2362.72266,21.7441406 2362.72266,21.594401 2362.72266,21.2949219 C2362.8724,21.2949219 2363.02214,21.2949219 2363.17187,21.2949219 C2363.47135,21.4446615 2363.69596,21.5195312 2363.8457,21.5195312 Z M2360.02734,17.0273438 C2360.02734,17.9257813 2360.32682,18.6744792 2360.92578,19.2734375 C2361.375,19.8723958 2361.97396,20.3216146 2362.72266,20.6210938 C2362.72266,20.7708333 2362.72266,20.9954427 2362.72266,21.2949219 C2361.82422,20.9954427 2361.07552,20.4713542 2360.47656,19.7226563 C2359.8776,18.9739583 2359.57812,18.0755208 2359.57812,17.0273438 C2359.57812,15.8294271 2359.95247,14.8561198 2360.70117,14.1074219 C2361.59961,13.2089844 2362.64779,12.7597656 2363.8457,12.7597656 C2365.04362,12.7597656 2366.0918,13.2089844 2366.99023,14.1074219 C2367.73893,14.8561198 2368.11328,15.8294271 2368.11328,17.0273438 C2368.11328,18.0755208 2367.8138,18.9739583 2367.21484,19.7226563 C2366.61589,20.4713542 2365.86719,20.9954427 2364.96875,21.2949219 C2364.96875,21.1451823 2364.96875,20.9205729 2364.96875,20.6210938 C2365.71745,20.3216146 2366.31641,19.8723958 2366.76562,19.2734375 C2367.36458,18.6744792 2367.66406,17.9257813 2367.66406,17.0273438 C2367.66406,15.9791667 2367.28971,15.155599 2366.54102,14.5566406 C2365.79232,13.8079427 2364.89388,13.4335938 2363.8457,13.4335938 C2362.79753,13.4335938 2361.89909,13.8079427 2361.15039,14.5566406 C2360.40169,15.155599 2360.02734,15.9791667 2360.02734,17.0273438 C2360.02734,16.8776042 2360.02734,16.7278646 2360.02734,16.578125 C2360.02734,16.7278646 2360.02734,16.8776042 2360.02734,17.0273438 C2360.02734,17.3268229 2360.02734,17.4765625 2360.02734,17.4765625 C2360.02734,17.6263021 2360.02734,17.7011719 2360.02734,17.7011719 C2360.02734,17.7011719 2360.02734,17.6263021 2360.02734,17.4765625 C2360.02734,17.4765625 2360.02734,17.3268229 2360.02734,17.0273438 Z M2364.96875,21.2949219 C2364.81901,21.2949219 2364.66927,21.2949219 2364.51953,21.2949219 C2364.22005,21.4446615 2363.99544,21.5195312 2363.8457,21.5195312 C2363.69596,21.5195312 2363.47135,21.4446615 2363.17187,21.2949219 C2363.02214,21.2949219 2362.8724,21.2949219 2362.72266,21.2949219 C2362.72266,21.1451823 2362.72266,20.9205729 2362.72266,20.6210938 C2362.8724,20.6210938 2363.02214,20.6959635 2363.17187,20.8457031 C2363.47135,20.8457031 2363.69596,20.8457031 2363.8457,20.8457031 C2363.99544,20.8457031 2364.22005,20.8457031 2364.51953,20.8457031 C2364.66927,20.6959635 2364.81901,20.6210938 2364.96875,20.6210938 C2364.96875,20.7708333 2364.96875,20.8457031 2364.96875,20.8457031 C2364.96875,20.9954427 2364.96875,21.1451823 2364.96875,21.2949219 Z M2350.81836,13.4335938 C2350.81836,13.4335938 2350.89323,13.5084635 2351.04297,13.6582031 C2351.04297,13.6582031 2351.11784,13.7330729 2351.26758,13.8828125 C2351.26758,13.8828125 2351.26758,13.9576823 2351.26758,14.1074219 C2351.26758,14.1074219 2351.26758,14.1822917 2351.26758,14.3320312 C2351.26758,16.1289062 2351.26758,18.4498698 2351.26758,21.2949219 C2351.26758,24.139974 2351.26758,27.359375 2351.26758,30.953125 C2351.26758,31.1028646 2351.26758,31.2526042 2351.26758,31.4023438 C2351.26758,31.5520833 2351.19271,31.6269531 2351.04297,31.6269531 C2350.89323,31.7766927 2350.81836,31.8515625 2350.81836,31.8515625 C2350.66862,32.0013021 2350.51888,32.0761719 2350.36914,32.0761719 C2350.2194,32.0761719 2350.06966,32.0013021 2349.91992,31.8515625 C2349.91992,31.8515625 2349.84505,31.7766927 2349.69531,31.6269531 C2349.54557,31.6269531 2349.4707,31.5520833 2349.4707,31.4023438 C2349.4707,31.2526042 2349.4707,31.1028646 2349.4707,30.953125 C2349.4707,29.4557292 2349.4707,27.5091146 2349.4707,25.1132812 C2349.4707,22.7174479 2349.4707,19.9472656 2349.4707,16.8027344 C2349.32096,16.8027344 2349.17122,16.8776042 2349.02148,17.0273438 C2349.02148,17.1770833 2348.94661,17.3268229 2348.79687,17.4765625 C2348.64714,17.4765625 2348.4974,17.5514323 2348.34766,17.7011719 C2348.19792,17.7011719 2348.12305,17.7011719 2348.12305,17.7011719 C2347.97331,17.7011719 2347.82357,17.7011719 2347.67383,17.7011719 C2347.52409,17.5514323 2347.44922,17.4765625 2347.44922,17.4765625 C2347.29948,17.3268229 2347.22461,17.1770833 2347.22461,17.0273438 C2347.07487,16.8776042 2347,16.8027344 2347,16.8027344 C2347,16.6529948 2347.07487,16.5032552 2347.22461,16.3535156 C2347.22461,16.203776 2347.29948,16.0540365 2347.44922,15.9042969 C2347.59896,15.7545573 2347.89844,15.4550781 2348.34766,15.0058594 C2348.79687,14.5566406 2349.24609,14.1074219 2349.69531,13.6582031 C2349.69531,13.6582031 2349.77018,13.5833333 2349.91992,13.4335938 C2350.06966,13.4335938 2350.14453,13.4335938 2350.14453,13.4335938 C2350.14453,13.4335938 2350.2194,13.4335938 2350.36914,13.4335938 C2350.36914,13.4335938 2350.44401,13.4335938 2350.59375,13.4335938 C2350.59375,13.4335938 2350.66862,13.4335938 2350.81836,13.4335938 Z M2464.02148,99.0742188 C2464.17122,99.0742188 2464.32096,99.1490885 2464.4707,99.2988281 C2464.62044,99.2988281 2464.69531,99.3736979 2464.69531,99.5234375 C2464.84505,99.5234375 2464.91992,99.5983073 2464.91992,99.7480469 C2465.06966,99.8977865 2465.14453,100.047526 2465.14453,100.197266 C2465.14453,100.347005 2465.06966,100.421875 2464.91992,100.421875 C2464.91992,100.571615 2464.84505,100.721354 2464.69531,100.871094 C2464.69531,100.871094 2464.62044,100.945964 2464.4707,101.095703 C2464.32096,101.095703 2464.17122,101.095703 2464.02148,101.095703 C2463.27279,101.095703 2462.52409,101.095703 2461.77539,101.095703 C2461.02669,101.095703 2460.20312,101.095703 2459.30469,101.095703 C2458.55599,101.095703 2457.80729,101.095703 2457.05859,101.095703 C2456.3099,101.095703 2455.48633,101.095703 2454.58789,101.095703 C2454.43815,101.095703 2454.36328,101.095703 2454.36328,101.095703 C2454.21354,101.095703 2454.13867,101.020833 2454.13867,100.871094 C2454.13867,100.871094 2454.0638,100.871094 2453.91406,100.871094 C2453.91406,100.721354 2453.91406,100.646484 2453.91406,100.646484 C2453.91406,100.646484 2453.83919,100.571615 2453.68945,100.421875 C2453.68945,100.272135 2453.68945,100.197266 2453.68945,100.197266 C2453.68945,100.047526 2453.68945,99.9726562 2453.68945,99.9726562 C2453.68945,99.9726562 2453.76432,99.8977865 2453.91406,99.7480469 C2453.91406,99.4485677 2453.98893,99.0742188 2454.13867,98.625 C2454.13867,98.1757812 2454.28841,97.7265625 2454.58789,97.2773438 C2454.73763,96.6783854 2455.03711,96.1542969 2455.48633,95.7050781 C2455.63607,95.405599 2455.86068,95.1061198 2456.16016,94.8066406 C2456.3099,94.5071615 2456.53451,94.1328125 2456.83398,93.6835938 C2457.13346,93.3841146 2457.43294,93.1595052 2457.73242,93.0097656 C2458.18164,92.7102865 2458.63086,92.4108073 2459.08008,92.1113281 C2459.82878,91.5123698 2460.5026,90.9882812 2461.10156,90.5390625 C2461.55078,90.0898437 2461.92513,89.7154948 2462.22461,89.4160156 C2462.37435,88.9667969 2462.52409,88.5924479 2462.67383,88.2929688 C2462.82357,87.9934896 2462.89844,87.6940104 2462.89844,87.3945312 C2462.89844,87.2447917 2462.89844,87.0950521 2462.89844,86.9453125 C2462.89844,86.9453125 2462.82357,86.8704427 2462.67383,86.7207031 C2462.67383,86.5709635 2462.67383,86.4960938 2462.67383,86.4960938 C2462.67383,86.3463542 2462.67383,86.1966146 2462.67383,86.046875 C2462.52409,85.8971354 2462.37435,85.672526 2462.22461,85.3730469 C2462.07487,85.2233073 2461.85026,85.0735677 2461.55078,84.9238281 C2461.40104,84.7740885 2461.10156,84.624349 2460.65234,84.4746094 C2460.35286,84.4746094 2459.97852,84.4746094 2459.5293,84.4746094 C2459.08008,84.4746094 2458.70573,84.4746094 2458.40625,84.4746094 C2458.10677,84.624349 2457.80729,84.7740885 2457.50781,84.9238281 C2457.20833,85.0735677 2456.98372,85.2981771 2456.83398,85.5976562 C2456.68424,85.7473958 2456.53451,85.9720052 2456.38477,86.2714844 C2456.23503,86.421224 2456.16016,86.5709635 2456.16016,86.7207031 C2456.01042,86.7207031 2455.86068,86.7955729 2455.71094,86.9453125 C2455.5612,86.9453125 2455.41146,86.9453125 2455.26172,86.9453125 C2455.26172,86.9453125 2455.18685,86.8704427 2455.03711,86.7207031 C2454.88737,86.7207031 2454.73763,86.6458333 2454.58789,86.4960938 C2454.58789,86.4960938 2454.58789,86.421224 2454.58789,86.2714844 C2454.43815,86.1217448 2454.36328,85.9720052 2454.36328,85.8222656 C2454.36328,85.8222656 2454.43815,85.7473958 2454.58789,85.5976562 C2454.73763,84.9986979 2454.96224,84.5494792 2455.26172,84.25 C2455.71094,83.8007812 2456.08529,83.5013021 2456.38477,83.3515625 C2456.83398,83.0520833 2457.2832,82.827474 2457.73242,82.6777344 C2458.33138,82.5279948 2458.85547,82.453125 2459.30469,82.453125 C2460.35286,82.453125 2461.2513,82.6028646 2462,82.9023438 C2462.59896,83.2018229 2463.12305,83.5761719 2463.57227,84.0253906 C2464.02148,84.624349 2464.32096,85.1484375 2464.4707,85.5976562 C2464.62044,86.1966146 2464.69531,86.7955729 2464.69531,87.3945312 C2464.69531,87.9934896 2464.62044,88.5924479 2464.4707,89.1914062 C2464.32096,89.640625 2464.02148,90.1647135 2463.57227,90.7636719 C2463.27279,91.2128906 2462.82357,91.7369792 2462.22461,92.3359375 C2461.62565,92.7851563 2460.87695,93.234375 2459.97852,93.6835938 C2459.37956,94.1328125 2458.85547,94.5820312 2458.40625,95.03125 C2457.80729,95.6302083 2457.35807,96.1542969 2457.05859,96.6035156 C2456.75911,97.0527344 2456.53451,97.5019531 2456.38477,97.9511719 C2456.23503,98.4003906 2456.08529,98.7747396 2455.93555,99.0742188 C2456.83398,99.0742188 2457.95703,99.0742188 2459.30469,99.0742188 C2460.65234,99.0742188 2462.22461,99.0742188 2464.02148,99.0742188 Z" transform="translate(-2363 -12)"/></svg>