<svg xmlns="http://www.w3.org/2000/svg" width="120" height="203" viewBox="0 0 120 203"><path fill="#131313" d="M2338.43477,151.076172 C2340.49531,151.076172 2342.21243,151.763021 2343.58613,153.136719 C2345.0972,154.647786 2345.85273,156.433594 2345.85273,158.494141 C2345.85273,160.554687 2345.0972,162.340495 2343.58613,163.851563 C2342.21243,165.22526 2340.49531,165.912109 2338.43477,165.912109 C2325.1099,165.912109 2305.12259,165.912109 2278.47285,165.912109 C2276.4123,165.912109 2274.69518,165.22526 2273.32148,163.851563 C2271.81042,162.340495 2271.05488,160.554687 2271.05488,158.494141 C2271.05488,130.195964 2271.05488,87.7486979 2271.05488,31.1523438 C2271.05488,29.0917969 2271.81042,27.3059896 2273.32148,25.7949219 C2274.69518,24.421224 2276.4123,23.734375 2278.47285,23.734375 C2280.5334,23.734375 2282.31921,24.421224 2283.83027,25.7949219 C2285.34134,27.3059896 2286.09688,29.0917969 2286.09688,31.1523438 C2286.09688,57.8020833 2286.09688,97.7766927 2286.09688,151.076172 C2294.75117,151.076172 2303.47415,151.076172 2312.26582,151.076172 C2320.92012,151.076172 2329.6431,151.076172 2338.43477,151.076172 Z M2327.10176,142.421875 C2319.82116,142.421875 2308.83158,142.421875 2294.13301,142.421875 C2294.13301,119.48112 2294.13301,85.069987 2294.13301,39.1884766 C2294.27038,39.3258464 2294.47643,39.3945312 2294.75117,39.3945312 C2294.88854,39.3945312 2295.02591,39.3945312 2295.16328,39.3945312 C2295.43802,39.3945312 2295.64408,39.3945312 2295.78145,39.3945312 C2295.91882,39.3945312 2296.05618,39.3258464 2296.19355,39.1884766 C2296.19355,61.7171224 2296.19355,95.4414063 2296.19355,140.361328 C2303.06204,140.361328 2313.36478,140.361328 2327.10176,140.361328 C2327.10176,140.636068 2327.10176,140.979492 2327.10176,141.391602 C2327.10176,141.666341 2327.10176,142.009766 2327.10176,142.421875 Z M2291.24824,34.8613281 C2291.24824,35.8229167 2291.52298,36.6471354 2292.07246,37.3339844 C2292.62194,38.0208333 2293.30879,38.5016276 2294.13301,38.7763672 C2294.13301,38.7763672 2294.13301,38.913737 2294.13301,39.1884766 C2293.17142,39.0511068 2292.3472,38.5703125 2291.66035,37.7460938 C2291.11087,36.921875 2290.83613,35.9602865 2290.83613,34.8613281 C2290.83613,33.625 2291.24824,32.5947266 2292.07246,31.7705078 C2292.89668,30.8089193 2293.92695,30.328125 2295.16328,30.328125 C2296.39961,30.328125 2297.49857,30.8089193 2298.46016,31.7705078 C2299.28438,32.5947266 2299.69648,33.625 2299.69648,34.8613281 C2299.69648,35.9602865 2299.35306,36.921875 2298.66621,37.7460938 C2298.11673,38.4329427 2297.29251,38.913737 2296.19355,39.1884766 C2296.19355,39.0511068 2296.19355,38.913737 2296.19355,38.7763672 C2297.15514,38.5016276 2297.91068,38.0208333 2298.46016,37.3339844 C2299.00964,36.6471354 2299.28438,35.8229167 2299.28438,34.8613281 C2299.28438,33.7623698 2298.87227,32.8694661 2298.04805,32.1826172 C2297.22383,31.3583984 2296.26224,30.9462891 2295.16328,30.9462891 C2294.06432,30.9462891 2293.17142,31.3583984 2292.48457,32.1826172 C2291.66035,32.8694661 2291.24824,33.7623698 2291.24824,34.8613281 Z M2296.19355,39.1884766 C2296.05618,39.3258464 2295.91882,39.3945312 2295.78145,39.3945312 C2295.64408,39.3945312 2295.43802,39.3945312 2295.16328,39.3945312 C2295.02591,39.3945312 2294.88854,39.3945312 2294.75117,39.3945312 C2294.47643,39.3945312 2294.27038,39.3258464 2294.13301,39.1884766 C2294.13301,39.0511068 2294.13301,38.913737 2294.13301,38.7763672 C2294.27038,38.7763672 2294.47643,38.7763672 2294.75117,38.7763672 C2294.88854,38.7763672 2295.02591,38.7763672 2295.16328,38.7763672 C2295.43802,38.7763672 2295.64408,38.7763672 2295.78145,38.7763672 C2295.91882,38.7763672 2296.05618,38.7763672 2296.19355,38.7763672 C2296.19355,38.7763672 2296.19355,38.8450521 2296.19355,38.9824219 C2296.19355,39.1197917 2296.19355,39.1884766 2296.19355,39.1884766 Z M2299.28438,34.8613281 C2299.28438,35.8229167 2299.00964,36.6471354 2298.46016,37.3339844 C2297.91068,38.0208333 2297.15514,38.5016276 2296.19355,38.7763672 C2296.19355,38.6389974 2296.19355,38.4329427 2296.19355,38.1582031 C2296.8804,37.8834635 2297.49857,37.4713542 2298.04805,36.921875 C2298.46016,36.3723958 2298.66621,35.6855469 2298.66621,34.8613281 C2298.66621,34.9986979 2298.66621,35.1360677 2298.66621,35.2734375 C2298.66621,35.4108073 2298.66621,35.4794922 2298.66621,35.4794922 C2298.66621,35.4794922 2298.66621,35.4108073 2298.66621,35.2734375 C2298.66621,35.1360677 2298.66621,34.9986979 2298.66621,34.8613281 C2298.66621,34.7239583 2298.66621,34.5865885 2298.66621,34.4492188 C2298.66621,34.311849 2298.66621,34.2431641 2298.66621,34.2431641 C2298.66621,34.2431641 2298.66621,34.311849 2298.66621,34.4492188 C2298.66621,34.5865885 2298.66621,34.7239583 2298.66621,34.8613281 C2298.66621,33.8997396 2298.32279,33.0755208 2297.63594,32.3886719 C2296.94909,31.7018229 2296.12487,31.3583984 2295.16328,31.3583984 C2294.20169,31.3583984 2293.44616,31.7018229 2292.89668,32.3886719 C2292.20983,33.0755208 2291.86641,33.8997396 2291.86641,34.8613281 C2291.86641,35.6855469 2292.07246,36.3723958 2292.48457,36.921875 C2292.89668,37.4713542 2293.44616,37.8834635 2294.13301,38.1582031 C2294.13301,38.2955729 2294.13301,38.5016276 2294.13301,38.7763672 C2293.30879,38.5016276 2292.62194,38.0208333 2292.07246,37.3339844 C2291.52298,36.6471354 2291.24824,35.8229167 2291.24824,34.8613281 C2291.24824,33.7623698 2291.66035,32.8694661 2292.48457,32.1826172 C2293.17142,31.3583984 2294.06432,30.9462891 2295.16328,30.9462891 C2296.26224,30.9462891 2297.22383,31.3583984 2298.04805,32.1826172 C2298.87227,32.8694661 2299.28438,33.7623698 2299.28438,34.8613281 Z M2295.16328,38.3642578 C2295.43802,38.3642578 2295.64408,38.3642578 2295.78145,38.3642578 C2295.91882,38.226888 2296.05618,38.1582031 2296.19355,38.1582031 C2296.19355,38.2955729 2296.19355,38.5016276 2296.19355,38.7763672 C2296.05618,38.7763672 2295.91882,38.7763672 2295.78145,38.7763672 C2295.64408,38.7763672 2295.43802,38.7763672 2295.16328,38.7763672 C2295.02591,38.7763672 2294.88854,38.7763672 2294.75117,38.7763672 C2294.47643,38.7763672 2294.27038,38.7763672 2294.13301,38.7763672 C2294.13301,38.6389974 2294.13301,38.4329427 2294.13301,38.1582031 C2294.27038,38.1582031 2294.47643,38.226888 2294.75117,38.3642578 C2294.88854,38.3642578 2295.02591,38.3642578 2295.16328,38.3642578 Z M2329.1623,140.361328 C2328.7502,140.361328 2328.06335,140.361328 2327.10176,140.361328 C2327.10176,139.811849 2327.10176,139.125 2327.10176,138.300781 C2329.71178,138.98763 2333.55814,140.017904 2338.64082,141.391602 C2336.03079,142.078451 2332.18444,143.108724 2327.10176,144.482422 C2327.10176,143.932943 2327.10176,143.246094 2327.10176,142.421875 C2327.65124,142.421875 2328.33809,142.421875 2329.1623,142.421875 C2329.1623,141.872396 2329.1623,141.185547 2329.1623,140.361328 Z M2327.10176,140.361328 C2327.65124,140.361328 2328.33809,140.361328 2329.1623,140.361328 C2329.1623,140.773438 2329.1623,141.460286 2329.1623,142.421875 C2328.7502,142.421875 2328.06335,142.421875 2327.10176,142.421875 C2327.10176,141.872396 2327.10176,141.185547 2327.10176,140.361328 Z M2306.29023,47.6367188 C2306.15286,47.499349 2306.08418,47.4306641 2306.08418,47.4306641 C2306.08418,47.2932943 2306.01549,47.1559245 2305.87813,47.0185547 C2305.87813,45.507487 2305.87813,43.7216797 2305.87813,41.6611328 C2305.87813,39.4632161 2305.87813,36.8531901 2305.87813,33.8310547 C2305.87813,33.9684245 2305.80944,34.1057943 2305.67207,34.2431641 C2305.5347,34.2431641 2305.39733,34.311849 2305.25996,34.4492188 C2305.25996,34.5865885 2305.19128,34.6552734 2305.05391,34.6552734 C2304.91654,34.7926432 2304.77917,34.8613281 2304.6418,34.8613281 C2304.6418,34.8613281 2304.57311,34.7926432 2304.43574,34.6552734 C2304.29837,34.6552734 2304.161,34.5865885 2304.02363,34.4492188 C2304.02363,34.4492188 2303.95495,34.3805339 2303.81758,34.2431641 C2303.81758,34.1057943 2303.81758,33.9684245 2303.81758,33.8310547 C2303.81758,33.6936849 2303.81758,33.625 2303.81758,33.625 C2303.95495,33.4876302 2304.02363,33.3502604 2304.02363,33.2128906 C2304.29837,32.938151 2304.6418,32.6634115 2305.05391,32.3886719 C2305.32865,31.9765625 2305.74076,31.5644531 2306.29023,31.1523438 C2306.29023,31.014974 2306.35892,30.9462891 2306.49629,30.9462891 C2306.49629,30.9462891 2306.56497,30.9462891 2306.70234,30.9462891 C2306.70234,30.9462891 2306.70234,30.9462891 2306.70234,30.9462891 C2306.83971,30.9462891 2306.9084,30.9462891 2306.9084,30.9462891 C2306.9084,30.9462891 2306.97708,30.9462891 2307.11445,30.9462891 C2307.11445,30.9462891 2307.11445,30.9462891 2307.11445,30.9462891 C2307.25182,30.9462891 2307.38919,30.9462891 2307.52656,30.9462891 C2307.52656,31.0836589 2307.52656,31.1523438 2307.52656,31.1523438 C2307.66393,31.2897135 2307.73262,31.4270833 2307.73262,31.5644531 C2307.73262,31.5644531 2307.73262,31.633138 2307.73262,31.7705078 C2307.73262,33.4189453 2307.73262,35.5481771 2307.73262,38.1582031 C2307.73262,40.6308594 2307.73262,43.5843099 2307.73262,47.0185547 C2307.73262,47.1559245 2307.73262,47.2932943 2307.73262,47.4306641 C2307.73262,47.4306641 2307.66393,47.499349 2307.52656,47.6367188 C2307.38919,47.7740885 2307.25182,47.8427734 2307.11445,47.8427734 C2307.11445,47.8427734 2307.04577,47.8427734 2306.9084,47.8427734 C2306.77103,47.8427734 2306.63366,47.8427734 2306.49629,47.8427734 C2306.35892,47.8427734 2306.29023,47.7740885 2306.29023,47.6367188 Z" transform="translate(-2248.055 -23.734)"/></svg>