<svg xmlns="http://www.w3.org/2000/svg" width="120" height="203" viewBox="0 0 120 203"><path fill="#131313" d="M2338.43477,188.341797 C2340.49531,188.341797 2342.21243,189.028646 2343.58613,190.402344 C2345.0972,191.913411 2345.85273,193.699219 2345.85273,195.759766 C2345.85273,197.820312 2345.0972,199.60612 2343.58613,201.117188 C2342.21243,202.490885 2340.49531,203.177734 2338.43477,203.177734 C2325.1099,203.177734 2305.12259,203.177734 2278.47285,203.177734 C2276.4123,203.177734 2274.69518,202.490885 2273.32148,201.117188 C2271.81042,199.60612 2271.05488,197.820312 2271.05488,195.759766 C2271.05488,167.461589 2271.05488,125.014323 2271.05488,68.4179688 C2271.05488,66.3574219 2271.81042,64.5716146 2273.32148,63.0605469 C2274.69518,61.686849 2276.4123,61 2278.47285,61 C2280.5334,61 2282.31921,61.686849 2283.83027,63.0605469 C2285.34134,64.5716146 2286.09688,66.3574219 2286.09688,68.4179688 C2286.09688,95.0677083 2286.09688,135.042318 2286.09688,188.341797 C2294.75117,188.341797 2303.47415,188.341797 2312.26582,188.341797 C2320.92012,188.341797 2329.6431,188.341797 2338.43477,188.341797 Z M2327.10176,179.6875 C2319.82116,179.6875 2308.83158,179.6875 2294.13301,179.6875 C2294.13301,156.746745 2294.13301,122.335612 2294.13301,76.4541016 C2294.27038,76.5914714 2294.47643,76.6601562 2294.75117,76.6601562 C2294.88854,76.6601562 2295.02591,76.6601562 2295.16328,76.6601562 C2295.43802,76.6601562 2295.64408,76.6601562 2295.78145,76.6601562 C2295.91882,76.6601562 2296.05618,76.5914714 2296.19355,76.4541016 C2296.19355,98.9827474 2296.19355,132.707031 2296.19355,177.626953 C2303.06204,177.626953 2313.36478,177.626953 2327.10176,177.626953 C2327.10176,177.901693 2327.10176,178.245117 2327.10176,178.657227 C2327.10176,178.931966 2327.10176,179.275391 2327.10176,179.6875 Z M2291.24824,72.1269531 C2291.24824,73.0885417 2291.52298,73.9127604 2292.07246,74.5996094 C2292.62194,75.2864583 2293.30879,75.7672526 2294.13301,76.0419922 C2294.13301,76.0419922 2294.13301,76.179362 2294.13301,76.4541016 C2293.17142,76.3167318 2292.3472,75.8359375 2291.66035,75.0117188 C2291.11087,74.1875 2290.83613,73.2259115 2290.83613,72.1269531 C2290.83613,70.890625 2291.24824,69.8603516 2292.07246,69.0361328 C2292.89668,68.0745443 2293.92695,67.59375 2295.16328,67.59375 C2296.39961,67.59375 2297.49857,68.0745443 2298.46016,69.0361328 C2299.28438,69.8603516 2299.69648,70.890625 2299.69648,72.1269531 C2299.69648,73.2259115 2299.35306,74.1875 2298.66621,75.0117188 C2298.11673,75.6985677 2297.29251,76.179362 2296.19355,76.4541016 C2296.19355,76.3167318 2296.19355,76.179362 2296.19355,76.0419922 C2297.15514,75.7672526 2297.91068,75.2864583 2298.46016,74.5996094 C2299.00964,73.9127604 2299.28438,73.0885417 2299.28438,72.1269531 C2299.28438,71.0279948 2298.87227,70.1350911 2298.04805,69.4482422 C2297.22383,68.6240234 2296.26224,68.2119141 2295.16328,68.2119141 C2294.06432,68.2119141 2293.17142,68.6240234 2292.48457,69.4482422 C2291.66035,70.1350911 2291.24824,71.0279948 2291.24824,72.1269531 Z M2296.19355,76.4541016 C2296.05618,76.5914714 2295.91882,76.6601562 2295.78145,76.6601562 C2295.64408,76.6601562 2295.43802,76.6601562 2295.16328,76.6601562 C2295.02591,76.6601562 2294.88854,76.6601562 2294.75117,76.6601562 C2294.47643,76.6601562 2294.27038,76.5914714 2294.13301,76.4541016 C2294.13301,76.3167318 2294.13301,76.179362 2294.13301,76.0419922 C2294.27038,76.0419922 2294.47643,76.0419922 2294.75117,76.0419922 C2294.88854,76.0419922 2295.02591,76.0419922 2295.16328,76.0419922 C2295.43802,76.0419922 2295.64408,76.0419922 2295.78145,76.0419922 C2295.91882,76.0419922 2296.05618,76.0419922 2296.19355,76.0419922 C2296.19355,76.0419922 2296.19355,76.1106771 2296.19355,76.2480469 C2296.19355,76.3854167 2296.19355,76.4541016 2296.19355,76.4541016 Z M2299.28438,72.1269531 C2299.28438,73.0885417 2299.00964,73.9127604 2298.46016,74.5996094 C2297.91068,75.2864583 2297.15514,75.7672526 2296.19355,76.0419922 C2296.19355,75.9046224 2296.19355,75.6985677 2296.19355,75.4238281 C2296.8804,75.1490885 2297.49857,74.7369792 2298.04805,74.1875 C2298.46016,73.6380208 2298.66621,72.9511719 2298.66621,72.1269531 C2298.66621,72.2643229 2298.66621,72.4016927 2298.66621,72.5390625 C2298.66621,72.6764323 2298.66621,72.7451172 2298.66621,72.7451172 C2298.66621,72.7451172 2298.66621,72.6764323 2298.66621,72.5390625 C2298.66621,72.4016927 2298.66621,72.2643229 2298.66621,72.1269531 C2298.66621,71.9895833 2298.66621,71.8522135 2298.66621,71.7148438 C2298.66621,71.577474 2298.66621,71.5087891 2298.66621,71.5087891 C2298.66621,71.5087891 2298.66621,71.577474 2298.66621,71.7148438 C2298.66621,71.8522135 2298.66621,71.9895833 2298.66621,72.1269531 C2298.66621,71.1653646 2298.32279,70.3411458 2297.63594,69.6542969 C2296.94909,68.9674479 2296.12487,68.6240234 2295.16328,68.6240234 C2294.20169,68.6240234 2293.44616,68.9674479 2292.89668,69.6542969 C2292.20983,70.3411458 2291.86641,71.1653646 2291.86641,72.1269531 C2291.86641,72.9511719 2292.07246,73.6380208 2292.48457,74.1875 C2292.89668,74.7369792 2293.44616,75.1490885 2294.13301,75.4238281 C2294.13301,75.5611979 2294.13301,75.7672526 2294.13301,76.0419922 C2293.30879,75.7672526 2292.62194,75.2864583 2292.07246,74.5996094 C2291.52298,73.9127604 2291.24824,73.0885417 2291.24824,72.1269531 C2291.24824,71.0279948 2291.66035,70.1350911 2292.48457,69.4482422 C2293.17142,68.6240234 2294.06432,68.2119141 2295.16328,68.2119141 C2296.26224,68.2119141 2297.22383,68.6240234 2298.04805,69.4482422 C2298.87227,70.1350911 2299.28438,71.0279948 2299.28438,72.1269531 Z M2295.16328,75.6298828 C2295.43802,75.6298828 2295.64408,75.6298828 2295.78145,75.6298828 C2295.91882,75.492513 2296.05618,75.4238281 2296.19355,75.4238281 C2296.19355,75.5611979 2296.19355,75.7672526 2296.19355,76.0419922 C2296.05618,76.0419922 2295.91882,76.0419922 2295.78145,76.0419922 C2295.64408,76.0419922 2295.43802,76.0419922 2295.16328,76.0419922 C2295.02591,76.0419922 2294.88854,76.0419922 2294.75117,76.0419922 C2294.47643,76.0419922 2294.27038,76.0419922 2294.13301,76.0419922 C2294.13301,75.9046224 2294.13301,75.6985677 2294.13301,75.4238281 C2294.27038,75.4238281 2294.47643,75.492513 2294.75117,75.6298828 C2294.88854,75.6298828 2295.02591,75.6298828 2295.16328,75.6298828 Z M2329.1623,177.626953 C2328.7502,177.626953 2328.06335,177.626953 2327.10176,177.626953 C2327.10176,177.077474 2327.10176,176.390625 2327.10176,175.566406 C2329.71178,176.253255 2333.55814,177.283529 2338.64082,178.657227 C2336.03079,179.344076 2332.18444,180.374349 2327.10176,181.748047 C2327.10176,181.198568 2327.10176,180.511719 2327.10176,179.6875 C2327.65124,179.6875 2328.33809,179.6875 2329.1623,179.6875 C2329.1623,179.138021 2329.1623,178.451172 2329.1623,177.626953 Z M2327.10176,177.626953 C2327.65124,177.626953 2328.33809,177.626953 2329.1623,177.626953 C2329.1623,178.039062 2329.1623,178.725911 2329.1623,179.6875 C2328.7502,179.6875 2328.06335,179.6875 2327.10176,179.6875 C2327.10176,179.138021 2327.10176,178.451172 2327.10176,177.626953 Z M2306.29023,84.9023438 C2306.15286,84.764974 2306.08418,84.6962891 2306.08418,84.6962891 C2306.08418,84.5589193 2306.01549,84.4215495 2305.87813,84.2841797 C2305.87813,82.773112 2305.87813,80.9873047 2305.87813,78.9267578 C2305.87813,76.7288411 2305.87813,74.1188151 2305.87813,71.0966797 C2305.87813,71.2340495 2305.80944,71.3714193 2305.67207,71.5087891 C2305.5347,71.5087891 2305.39733,71.577474 2305.25996,71.7148438 C2305.25996,71.8522135 2305.19128,71.9208984 2305.05391,71.9208984 C2304.91654,72.0582682 2304.77917,72.1269531 2304.6418,72.1269531 C2304.6418,72.1269531 2304.57311,72.0582682 2304.43574,71.9208984 C2304.29837,71.9208984 2304.161,71.8522135 2304.02363,71.7148438 C2304.02363,71.7148438 2303.95495,71.6461589 2303.81758,71.5087891 C2303.81758,71.3714193 2303.81758,71.2340495 2303.81758,71.0966797 C2303.81758,70.9593099 2303.81758,70.890625 2303.81758,70.890625 C2303.95495,70.7532552 2304.02363,70.6158854 2304.02363,70.4785156 C2304.29837,70.203776 2304.6418,69.9290365 2305.05391,69.6542969 C2305.32865,69.2421875 2305.74076,68.8300781 2306.29023,68.4179688 C2306.29023,68.280599 2306.35892,68.2119141 2306.49629,68.2119141 C2306.49629,68.2119141 2306.56497,68.2119141 2306.70234,68.2119141 C2306.70234,68.2119141 2306.70234,68.2119141 2306.70234,68.2119141 C2306.83971,68.2119141 2306.9084,68.2119141 2306.9084,68.2119141 C2306.9084,68.2119141 2306.97708,68.2119141 2307.11445,68.2119141 C2307.11445,68.2119141 2307.11445,68.2119141 2307.11445,68.2119141 C2307.25182,68.2119141 2307.38919,68.2119141 2307.52656,68.2119141 C2307.52656,68.3492839 2307.52656,68.4179688 2307.52656,68.4179688 C2307.66393,68.5553385 2307.73262,68.6927083 2307.73262,68.8300781 C2307.73262,68.8300781 2307.73262,68.898763 2307.73262,69.0361328 C2307.73262,70.6845703 2307.73262,72.8138021 2307.73262,75.4238281 C2307.73262,77.8964844 2307.73262,80.8499349 2307.73262,84.2841797 C2307.73262,84.4215495 2307.73262,84.5589193 2307.73262,84.6962891 C2307.73262,84.6962891 2307.66393,84.764974 2307.52656,84.9023438 C2307.38919,85.0397135 2307.25182,85.1083984 2307.11445,85.1083984 C2307.11445,85.1083984 2307.04577,85.1083984 2306.9084,85.1083984 C2306.77103,85.1083984 2306.63366,85.1083984 2306.49629,85.1083984 C2306.35892,85.1083984 2306.29023,85.0397135 2306.29023,84.9023438 Z" transform="translate(-2248.055)"/></svg>