<svg xmlns="http://www.w3.org/2000/svg" width="243" height="243" viewBox="0 0 243 243"><path fill="#131313" d="M113,156.894531 C113,126.048177 113,79.7786458 113,18.0859375 C113,15.8398438 113.748698,13.8932292 115.246094,12.2460938 C116.893229,10.7486979 118.839844,10 121.085938,10 C123.332031,10 125.203776,10.7486979 126.701172,12.2460938 C128.348307,13.8932292 129.171875,15.8398438 129.171875,18.0859375 C129.171875,48.9322917 129.171875,95.2018229 129.171875,156.894531 C129.171875,159.140625 128.348307,161.08724 126.701172,162.734375 C125.203776,164.231771 123.332031,164.980469 121.085938,164.980469 C118.839844,164.980469 116.893229,164.231771 115.246094,162.734375 C113.748698,161.08724 113,159.140625 113,156.894531 Z M98.9472656,22.8027344 C99.2467448,22.952474 99.4713542,23.0273438 99.6210938,23.0273438 C99.7708333,23.0273438 99.9954427,23.0273438 100.294922,23.0273438 C100.444661,23.0273438 100.594401,23.0273438 100.744141,23.0273438 C100.89388,23.0273438 101.11849,22.952474 101.417969,22.8027344 C101.417969,48.8574219 101.417969,87.7897135 101.417969,139.599609 C100.81901,139.599609 99.9954427,139.599609 98.9472656,139.599609 C98.9472656,120.133464 98.9472656,100.667318 98.9472656,81.2011719 C98.9472656,61.735026 98.9472656,42.2688802 98.9472656,22.8027344 Z M98.9472656,141.845703 C98.9472656,141.396484 98.9472656,140.647786 98.9472656,139.599609 C98.4980469,139.599609 97.8242188,139.599609 96.9257812,139.599609 C97.6744792,142.444661 98.797526,146.63737 100.294922,152.177734 C100.89388,149.332682 101.942057,145.139974 103.439453,139.599609 C102.990234,139.599609 102.316406,139.599609 101.417969,139.599609 C101.417969,140.198568 101.417969,140.947266 101.417969,141.845703 C100.81901,141.845703 99.9954427,141.845703 98.9472656,141.845703 Z M98.9472656,141.845703 C99.546224,141.845703 100.369792,141.845703 101.417969,141.845703 C101.417969,141.396484 101.417969,140.647786 101.417969,139.599609 C100.81901,139.599609 99.9954427,139.599609 98.9472656,139.599609 C98.9472656,140.198568 98.9472656,140.947266 98.9472656,141.845703 Z M100.294922,13.3691406 C101.642578,13.3691406 102.765625,13.8183594 103.664062,14.7167969 C104.5625,15.6152344 105.011719,16.7382812 105.011719,18.0859375 C105.011719,19.2838542 104.71224,20.3320312 104.113281,21.2304688 C103.364583,22.1289062 102.466146,22.6529948 101.417969,22.8027344 C101.417969,22.8027344 101.417969,22.6529948 101.417969,22.3535156 C102.316406,22.0540365 103.065104,21.5299479 103.664062,20.78125 C104.263021,20.0325521 104.5625,19.1341146 104.5625,18.0859375 C104.5625,16.8880208 104.113281,15.9147135 103.214844,15.1660156 C102.466146,14.2675781 101.492839,13.8183594 100.294922,13.8183594 C99.0970052,13.8183594 98.0488281,14.2675781 97.1503906,15.1660156 C96.2519531,15.9147135 95.8027344,16.8880208 95.8027344,18.0859375 C95.8027344,19.1341146 96.1022135,20.0325521 96.7011719,20.78125 C97.3001302,21.5299479 98.0488281,22.0540365 98.9472656,22.3535156 C98.9472656,22.5032552 98.9472656,22.6529948 98.9472656,22.8027344 C97.8990885,22.6529948 97.0755208,22.1289062 96.4765625,21.2304688 C95.7278646,20.3320312 95.3535156,19.2838542 95.3535156,18.0859375 C95.3535156,16.7382812 95.8027344,15.6152344 96.7011719,14.7167969 C97.5996094,13.8183594 98.797526,13.3691406 100.294922,13.3691406 Z M100.294922,22.578125 C100.444661,22.578125 100.594401,22.5032552 100.744141,22.3535156 C100.89388,22.3535156 101.11849,22.3535156 101.417969,22.3535156 C101.417969,22.5032552 101.417969,22.6529948 101.417969,22.8027344 C101.11849,22.952474 100.89388,23.0273438 100.744141,23.0273438 C100.594401,23.0273438 100.444661,23.0273438 100.294922,23.0273438 C99.9954427,23.0273438 99.7708333,23.0273438 99.6210938,23.0273438 C99.4713542,23.0273438 99.2467448,22.952474 98.9472656,22.8027344 C98.9472656,22.8027344 98.9472656,22.6529948 98.9472656,22.3535156 C99.2467448,22.3535156 99.4713542,22.3535156 99.6210938,22.3535156 C99.7708333,22.5032552 99.9954427,22.578125 100.294922,22.578125 Z M96.4765625,18.0859375 C96.4765625,18.984375 96.7011719,19.7330729 97.1503906,20.3320312 C97.5996094,21.0807292 98.1985677,21.5299479 98.9472656,21.6796875 C98.9472656,21.8294271 98.9472656,22.0540365 98.9472656,22.3535156 C98.0488281,22.0540365 97.3001302,21.5299479 96.7011719,20.78125 C96.1022135,20.0325521 95.8027344,19.1341146 95.8027344,18.0859375 C95.8027344,16.8880208 96.2519531,15.9147135 97.1503906,15.1660156 C98.0488281,14.2675781 99.0970052,13.8183594 100.294922,13.8183594 C101.492839,13.8183594 102.466146,14.2675781 103.214844,15.1660156 C104.113281,15.9147135 104.5625,16.8880208 104.5625,18.0859375 C104.5625,19.1341146 104.263021,20.0325521 103.664062,20.78125 C103.065104,21.5299479 102.316406,22.0540365 101.417969,22.3535156 C101.417969,22.203776 101.417969,21.9791667 101.417969,21.6796875 C102.166667,21.5299479 102.765625,21.0807292 103.214844,20.3320312 C103.664062,19.7330729 103.888672,18.984375 103.888672,18.0859375 C103.888672,17.0377604 103.514323,16.2141927 102.765625,15.6152344 C102.016927,14.8665365 101.193359,14.4921875 100.294922,14.4921875 C99.2467448,14.4921875 98.3483073,14.8665365 97.5996094,15.6152344 C96.8509115,16.2141927 96.4765625,17.0377604 96.4765625,18.0859375 C96.4765625,17.9361979 96.4765625,17.7864583 96.4765625,17.6367188 C96.4765625,17.6367188 96.4765625,17.6367188 96.4765625,17.6367188 C96.4765625,17.6367188 96.4765625,17.6367188 96.4765625,17.6367188 C96.4765625,17.7864583 96.4765625,17.9361979 96.4765625,18.0859375 C96.4765625,18.3854167 96.4765625,18.5351562 96.4765625,18.5351562 C96.4765625,18.6848958 96.4765625,18.7597656 96.4765625,18.7597656 C96.4765625,18.7597656 96.4765625,18.6848958 96.4765625,18.5351562 C96.4765625,18.5351562 96.4765625,18.3854167 96.4765625,18.0859375 Z M101.417969,22.3535156 C101.11849,22.3535156 100.89388,22.3535156 100.744141,22.3535156 C100.594401,22.5032552 100.444661,22.578125 100.294922,22.578125 C99.9954427,22.578125 99.7708333,22.5032552 99.6210938,22.3535156 C99.4713542,22.3535156 99.2467448,22.3535156 98.9472656,22.3535156 C98.9472656,22.203776 98.9472656,21.9791667 98.9472656,21.6796875 C99.2467448,21.8294271 99.4713542,21.9042969 99.6210938,21.9042969 C99.7708333,21.9042969 99.9954427,21.9042969 100.294922,21.9042969 C100.444661,21.9042969 100.594401,21.9042969 100.744141,21.9042969 C100.89388,21.9042969 101.11849,21.8294271 101.417969,21.6796875 C101.417969,21.8294271 101.417969,21.9042969 101.417969,21.9042969 C101.417969,22.0540365 101.417969,22.203776 101.417969,22.3535156 Z M86.59375,14.4921875 C86.7434896,14.4921875 86.8183594,14.5670573 86.8183594,14.7167969 C86.968099,14.7167969 87.0429688,14.7916667 87.0429688,14.9414062 C87.0429688,14.9414062 87.1178385,15.016276 87.2675781,15.1660156 C87.2675781,15.1660156 87.2675781,15.2408854 87.2675781,15.390625 C87.2675781,17.3372396 87.2675781,19.6582031 87.2675781,22.3535156 C87.2675781,25.1985677 87.2675781,28.4179688 87.2675781,32.0117188 C87.2675781,32.1614583 87.1927083,32.3111979 87.0429688,32.4609375 C87.0429688,32.6106771 86.968099,32.6855469 86.8183594,32.6855469 C86.8183594,32.8352865 86.7434896,32.9101562 86.59375,32.9101562 C86.4440104,33.0598958 86.2942708,33.1347656 86.1445312,33.1347656 C86.1445312,33.1347656 86.0696615,33.0598958 85.9199219,32.9101562 C85.7701823,32.9101562 85.6204427,32.8352865 85.4707031,32.6855469 C85.4707031,32.6855469 85.3958333,32.6106771 85.2460938,32.4609375 C85.2460938,32.3111979 85.2460938,32.1614583 85.2460938,32.0117188 C85.2460938,30.5143229 85.2460938,28.5677083 85.2460938,26.171875 C85.2460938,23.7760417 85.2460938,21.0058594 85.2460938,17.8613281 C85.0963542,17.8613281 85.0214844,17.9361979 85.0214844,18.0859375 C84.8717448,18.2356771 84.7220052,18.3854167 84.5722656,18.5351562 C84.422526,18.5351562 84.3476562,18.610026 84.3476562,18.7597656 C84.1979167,18.7597656 84.0481771,18.7597656 83.8984375,18.7597656 C83.7486979,18.7597656 83.5989583,18.7597656 83.4492188,18.7597656 C83.4492188,18.610026 83.374349,18.5351562 83.2246094,18.5351562 C83.0748698,18.3854167 83,18.2356771 83,18.0859375 C83,18.0859375 83,18.0110677 83,17.8613281 C83,17.7115885 83,17.561849 83,17.4121094 C83,17.2623698 83.0748698,17.1126302 83.2246094,16.9628906 C83.5240885,16.813151 83.8235677,16.5136719 84.1230469,16.0644531 C84.5722656,15.764974 85.0214844,15.3157552 85.4707031,14.7167969 C85.6204427,14.7167969 85.6953125,14.6419271 85.6953125,14.4921875 C85.8450521,14.4921875 85.9947917,14.4921875 86.1445312,14.4921875 C86.1445312,14.4921875 86.1445312,14.4921875 86.1445312,14.4921875 C86.1445312,14.4921875 86.1445312,14.4921875 86.1445312,14.4921875 C86.2942708,14.4921875 86.3691406,14.4921875 86.3691406,14.4921875 C86.5188802,14.4921875 86.59375,14.4921875 86.59375,14.4921875 Z"/></svg>