<svg xmlns="http://www.w3.org/2000/svg" width="43" height="243" viewBox="0 0 43 243"><path fill="#131313" d="M30,156.894531 C30,126.048177 30,79.7786458 30,18.0859375 C30,15.8398438 30.7486979,13.8932292 32.2460938,12.2460938 C33.8932292,10.7486979 35.8398438,10 38.0859375,10 C40.3320312,10 42.203776,10.7486979 43.7011719,12.2460938 C45.3483073,13.8932292 46.171875,15.8398438 46.171875,18.0859375 C46.171875,48.9322917 46.171875,95.2018229 46.171875,156.894531 C46.171875,159.140625 45.3483073,161.08724 43.7011719,162.734375 C42.203776,164.231771 40.3320312,164.980469 38.0859375,164.980469 C35.8398438,164.980469 33.8932292,164.231771 32.2460938,162.734375 C30.7486979,161.08724 30,159.140625 30,156.894531 Z M15.9472656,22.8027344 C16.2467448,22.952474 16.4713542,23.0273438 16.6210938,23.0273438 C16.7708333,23.0273438 16.9954427,23.0273438 17.2949219,23.0273438 C17.4446615,23.0273438 17.594401,23.0273438 17.7441406,23.0273438 C17.8938802,23.0273438 18.1184896,22.952474 18.4179688,22.8027344 C18.4179688,48.8574219 18.4179688,87.7897135 18.4179688,139.599609 C17.8190104,139.599609 16.9954427,139.599609 15.9472656,139.599609 C15.9472656,120.133464 15.9472656,100.667318 15.9472656,81.2011719 C15.9472656,61.735026 15.9472656,42.2688802 15.9472656,22.8027344 Z M15.9472656,141.845703 C15.9472656,141.396484 15.9472656,140.647786 15.9472656,139.599609 C15.4980469,139.599609 14.8242188,139.599609 13.9257812,139.599609 C14.6744792,142.444661 15.797526,146.63737 17.2949219,152.177734 C17.8938802,149.332682 18.9420573,145.139974 20.4394531,139.599609 C19.9902344,139.599609 19.3164062,139.599609 18.4179688,139.599609 C18.4179688,140.198568 18.4179688,140.947266 18.4179688,141.845703 C17.8190104,141.845703 16.9954427,141.845703 15.9472656,141.845703 Z M15.9472656,141.845703 C16.546224,141.845703 17.3697917,141.845703 18.4179688,141.845703 C18.4179688,141.396484 18.4179688,140.647786 18.4179688,139.599609 C17.8190104,139.599609 16.9954427,139.599609 15.9472656,139.599609 C15.9472656,140.198568 15.9472656,140.947266 15.9472656,141.845703 Z M17.2949219,13.3691406 C18.6425781,13.3691406 19.765625,13.8183594 20.6640625,14.7167969 C21.5625,15.6152344 22.0117188,16.7382812 22.0117188,18.0859375 C22.0117188,19.2838542 21.7122396,20.3320312 21.1132812,21.2304688 C20.3645833,22.1289062 19.4661458,22.6529948 18.4179688,22.8027344 C18.4179688,22.8027344 18.4179688,22.6529948 18.4179688,22.3535156 C19.3164062,22.0540365 20.0651042,21.5299479 20.6640625,20.78125 C21.2630208,20.0325521 21.5625,19.1341146 21.5625,18.0859375 C21.5625,16.8880208 21.1132812,15.9147135 20.2148438,15.1660156 C19.4661458,14.2675781 18.4928385,13.8183594 17.2949219,13.8183594 C16.0970052,13.8183594 15.0488281,14.2675781 14.1503906,15.1660156 C13.2519531,15.9147135 12.8027344,16.8880208 12.8027344,18.0859375 C12.8027344,19.1341146 13.1022135,20.0325521 13.7011719,20.78125 C14.3001302,21.5299479 15.0488281,22.0540365 15.9472656,22.3535156 C15.9472656,22.5032552 15.9472656,22.6529948 15.9472656,22.8027344 C14.8990885,22.6529948 14.0755208,22.1289062 13.4765625,21.2304688 C12.7278646,20.3320312 12.3535156,19.2838542 12.3535156,18.0859375 C12.3535156,16.7382812 12.8027344,15.6152344 13.7011719,14.7167969 C14.5996094,13.8183594 15.797526,13.3691406 17.2949219,13.3691406 Z M17.2949219,22.578125 C17.4446615,22.578125 17.594401,22.5032552 17.7441406,22.3535156 C17.8938802,22.3535156 18.1184896,22.3535156 18.4179688,22.3535156 C18.4179688,22.5032552 18.4179688,22.6529948 18.4179688,22.8027344 C18.1184896,22.952474 17.8938802,23.0273438 17.7441406,23.0273438 C17.594401,23.0273438 17.4446615,23.0273438 17.2949219,23.0273438 C16.9954427,23.0273438 16.7708333,23.0273438 16.6210938,23.0273438 C16.4713542,23.0273438 16.2467448,22.952474 15.9472656,22.8027344 C15.9472656,22.8027344 15.9472656,22.6529948 15.9472656,22.3535156 C16.2467448,22.3535156 16.4713542,22.3535156 16.6210938,22.3535156 C16.7708333,22.5032552 16.9954427,22.578125 17.2949219,22.578125 Z M13.4765625,18.0859375 C13.4765625,18.984375 13.7011719,19.7330729 14.1503906,20.3320312 C14.5996094,21.0807292 15.1985677,21.5299479 15.9472656,21.6796875 C15.9472656,21.8294271 15.9472656,22.0540365 15.9472656,22.3535156 C15.0488281,22.0540365 14.3001302,21.5299479 13.7011719,20.78125 C13.1022135,20.0325521 12.8027344,19.1341146 12.8027344,18.0859375 C12.8027344,16.8880208 13.2519531,15.9147135 14.1503906,15.1660156 C15.0488281,14.2675781 16.0970052,13.8183594 17.2949219,13.8183594 C18.4928385,13.8183594 19.4661458,14.2675781 20.2148438,15.1660156 C21.1132812,15.9147135 21.5625,16.8880208 21.5625,18.0859375 C21.5625,19.1341146 21.2630208,20.0325521 20.6640625,20.78125 C20.0651042,21.5299479 19.3164062,22.0540365 18.4179688,22.3535156 C18.4179688,22.203776 18.4179688,21.9791667 18.4179688,21.6796875 C19.1666667,21.5299479 19.765625,21.0807292 20.2148438,20.3320312 C20.6640625,19.7330729 20.8886719,18.984375 20.8886719,18.0859375 C20.8886719,17.0377604 20.5143229,16.2141927 19.765625,15.6152344 C19.0169271,14.8665365 18.1933594,14.4921875 17.2949219,14.4921875 C16.2467448,14.4921875 15.3483073,14.8665365 14.5996094,15.6152344 C13.8509115,16.2141927 13.4765625,17.0377604 13.4765625,18.0859375 C13.4765625,17.9361979 13.4765625,17.7864583 13.4765625,17.6367188 C13.4765625,17.6367188 13.4765625,17.6367188 13.4765625,17.6367188 C13.4765625,17.6367188 13.4765625,17.6367188 13.4765625,17.6367188 C13.4765625,17.7864583 13.4765625,17.9361979 13.4765625,18.0859375 C13.4765625,18.3854167 13.4765625,18.5351562 13.4765625,18.5351562 C13.4765625,18.6848958 13.4765625,18.7597656 13.4765625,18.7597656 C13.4765625,18.7597656 13.4765625,18.6848958 13.4765625,18.5351562 C13.4765625,18.5351562 13.4765625,18.3854167 13.4765625,18.0859375 Z M18.4179688,22.3535156 C18.1184896,22.3535156 17.8938802,22.3535156 17.7441406,22.3535156 C17.594401,22.5032552 17.4446615,22.578125 17.2949219,22.578125 C16.9954427,22.578125 16.7708333,22.5032552 16.6210938,22.3535156 C16.4713542,22.3535156 16.2467448,22.3535156 15.9472656,22.3535156 C15.9472656,22.203776 15.9472656,21.9791667 15.9472656,21.6796875 C16.2467448,21.8294271 16.4713542,21.9042969 16.6210938,21.9042969 C16.7708333,21.9042969 16.9954427,21.9042969 17.2949219,21.9042969 C17.4446615,21.9042969 17.594401,21.9042969 17.7441406,21.9042969 C17.8938802,21.9042969 18.1184896,21.8294271 18.4179688,21.6796875 C18.4179688,21.8294271 18.4179688,21.9042969 18.4179688,21.9042969 C18.4179688,22.0540365 18.4179688,22.203776 18.4179688,22.3535156 Z M3.59375,14.4921875 C3.74348958,14.4921875 3.81835938,14.5670573 3.81835938,14.7167969 C3.96809896,14.7167969 4.04296875,14.7916667 4.04296875,14.9414062 C4.04296875,14.9414062 4.11783854,15.016276 4.26757812,15.1660156 C4.26757812,15.1660156 4.26757812,15.2408854 4.26757812,15.390625 C4.26757812,17.3372396 4.26757812,19.6582031 4.26757812,22.3535156 C4.26757812,25.1985677 4.26757812,28.4179688 4.26757812,32.0117188 C4.26757812,32.1614583 4.19270833,32.3111979 4.04296875,32.4609375 C4.04296875,32.6106771 3.96809896,32.6855469 3.81835938,32.6855469 C3.81835938,32.8352865 3.74348958,32.9101562 3.59375,32.9101562 C3.44401042,33.0598958 3.29427083,33.1347656 3.14453125,33.1347656 C3.14453125,33.1347656 3.06966146,33.0598958 2.91992188,32.9101562 C2.77018229,32.9101562 2.62044271,32.8352865 2.47070312,32.6855469 C2.47070312,32.6855469 2.39583333,32.6106771 2.24609375,32.4609375 C2.24609375,32.3111979 2.24609375,32.1614583 2.24609375,32.0117188 C2.24609375,30.5143229 2.24609375,28.5677083 2.24609375,26.171875 C2.24609375,23.7760417 2.24609375,21.0058594 2.24609375,17.8613281 C2.09635417,17.8613281 2.02148438,17.9361979 2.02148438,18.0859375 C1.87174479,18.2356771 1.72200521,18.3854167 1.57226562,18.5351562 C1.42252604,18.5351562 1.34765625,18.610026 1.34765625,18.7597656 C1.19791667,18.7597656 1.04817708,18.7597656 0.8984375,18.7597656 C0.748697917,18.7597656 0.598958333,18.7597656 0.44921875,18.7597656 C0.44921875,18.610026 0.374348958,18.5351562 0.224609375,18.5351562 C0.0748697917,18.3854167 0,18.2356771 0,18.0859375 C0,18.0859375 0,18.0110677 0,17.8613281 C0,17.7115885 0,17.561849 0,17.4121094 C0,17.2623698 0.0748697917,17.1126302 0.224609375,16.9628906 C0.524088542,16.813151 0.823567708,16.5136719 1.12304688,16.0644531 C1.57226562,15.764974 2.02148438,15.3157552 2.47070312,14.7167969 C2.62044271,14.7167969 2.6953125,14.6419271 2.6953125,14.4921875 C2.84505208,14.4921875 2.99479167,14.4921875 3.14453125,14.4921875 C3.14453125,14.4921875 3.14453125,14.4921875 3.14453125,14.4921875 C3.14453125,14.4921875 3.14453125,14.4921875 3.14453125,14.4921875 C3.29427083,14.4921875 3.36914062,14.4921875 3.36914062,14.4921875 C3.51888021,14.4921875 3.59375,14.4921875 3.59375,14.4921875 Z" transform="translate(-17)"/></svg>