<svg xmlns="http://www.w3.org/2000/svg" width="43" height="203" viewBox="0 0 43 203"><path fill="#131313" d="M2632,144.894531 C2632,114.048177 2632,81.7786458 2632,20.0859375 C2632,17.8398438 2632.7487,15.8932292 2634.24609,14.2460938 C2635.89323,12.7486979 2637.83984,12 2640.08594,12 C2642.33203,12 2644.20378,12.7486979 2645.70117,14.2460938 C2647.34831,15.8932292 2648.17187,17.8398438 2648.17187,20.0859375 C2648.17187,50.9322917 2648.17187,83.2018229 2648.17187,144.894531 C2648.17187,147.140625 2647.34831,149.08724 2645.70117,150.734375 C2644.20378,152.231771 2642.33203,152.980469 2640.08594,152.980469 C2637.83984,152.980469 2635.89323,152.231771 2634.24609,150.734375 C2632.7487,149.08724 2632,147.140625 2632,144.894531 Z M2617.94727,21.8027344 C2618.24674,21.952474 2618.47135,22.0273437 2618.62109,22.0273437 C2618.77083,22.0273437 2618.99544,22.0273437 2619.29492,22.0273437 C2619.44466,22.0273437 2619.5944,22.0273437 2619.74414,22.0273437 C2619.89388,22.0273437 2620.11849,21.952474 2620.41797,21.8027344 C2620.41797,47.8574219 2620.41797,75.7897135 2620.41797,127.599609 C2619.81901,127.599609 2618.99544,127.599609 2617.94727,127.599609 C2617.94727,108.133464 2617.94727,88.6673177 2617.94727,69.2011719 C2617.94727,49.735026 2617.94727,41.2688802 2617.94727,21.8027344 Z M2615.92578,127.599609 C2616.67448,130.444661 2617.79753,134.63737 2619.29492,140.177734 C2619.89388,137.332682 2620.94206,133.139974 2622.43945,127.599609 C2621.99023,127.599609 2616.82422,127.599609 2615.92578,127.599609 Z M2619.29492,12.3691406 C2620.64258,12.3691406 2621.76562,12.8183594 2622.66406,13.7167969 C2623.5625,14.6152344 2624.01172,15.7382813 2624.01172,17.0859375 C2624.01172,18.2838542 2623.71224,19.3320313 2623.11328,20.2304688 C2622.36458,21.1289063 2621.46615,21.6529948 2620.41797,21.8027344 C2620.41797,21.8027344 2620.41797,21.6529948 2620.41797,21.3535156 C2621.31641,21.0540365 2622.0651,20.5299479 2622.66406,19.78125 C2623.26302,19.0325521 2623.5625,18.1341146 2623.5625,17.0859375 C2623.5625,15.8880208 2623.11328,14.9147135 2622.21484,14.1660156 C2621.46615,13.2675781 2620.49284,12.8183594 2619.29492,12.8183594 C2618.09701,12.8183594 2617.04883,13.2675781 2616.15039,14.1660156 C2615.25195,14.9147135 2614.80273,15.8880208 2614.80273,17.0859375 C2614.80273,18.1341146 2615.10221,19.0325521 2615.70117,19.78125 C2616.30013,20.5299479 2617.04883,21.0540365 2617.94727,21.3535156 C2617.94727,21.5032552 2617.94727,21.6529948 2617.94727,21.8027344 C2616.89909,21.6529948 2616.07552,21.1289063 2615.47656,20.2304688 C2614.72786,19.3320313 2614.35352,18.2838542 2614.35352,17.0859375 C2614.35352,15.7382813 2614.80273,14.6152344 2615.70117,13.7167969 C2616.59961,12.8183594 2617.79753,12.3691406 2619.29492,12.3691406 Z M2619.29492,21.578125 C2619.44466,21.578125 2619.5944,21.5032552 2619.74414,21.3535156 C2619.89388,21.3535156 2620.11849,21.3535156 2620.41797,21.3535156 C2620.41797,21.5032552 2620.41797,21.6529948 2620.41797,21.8027344 C2620.11849,21.952474 2619.89388,22.0273438 2619.74414,22.0273438 C2619.5944,22.0273438 2619.44466,22.0273438 2619.29492,22.0273438 C2618.99544,22.0273438 2618.77083,22.0273438 2618.62109,22.0273438 C2618.47135,22.0273438 2618.24674,21.952474 2617.94727,21.8027344 C2617.94727,21.8027344 2617.94727,21.6529948 2617.94727,21.3535156 C2618.24674,21.3535156 2618.47135,21.3535156 2618.62109,21.3535156 C2618.77083,21.5032552 2618.99544,21.578125 2619.29492,21.578125 Z M2615.47656,17.0859375 C2615.47656,17.984375 2615.70117,18.7330729 2616.15039,19.3320312 C2616.59961,20.0807292 2617.19857,20.5299479 2617.94727,20.6796875 C2617.94727,20.8294271 2617.94727,21.0540365 2617.94727,21.3535156 C2617.04883,21.0540365 2616.30013,20.5299479 2615.70117,19.78125 C2615.10221,19.0325521 2614.80273,18.1341146 2614.80273,17.0859375 C2614.80273,15.8880208 2615.25195,14.9147135 2616.15039,14.1660156 C2617.04883,13.2675781 2618.09701,12.8183594 2619.29492,12.8183594 C2620.49284,12.8183594 2621.46615,13.2675781 2622.21484,14.1660156 C2623.11328,14.9147135 2623.5625,15.8880208 2623.5625,17.0859375 C2623.5625,18.1341146 2623.26302,19.0325521 2622.66406,19.78125 C2622.0651,20.5299479 2621.31641,21.0540365 2620.41797,21.3535156 C2620.41797,21.203776 2620.41797,20.9791667 2620.41797,20.6796875 C2621.16667,20.5299479 2621.76562,20.0807292 2622.21484,19.3320312 C2622.66406,18.7330729 2622.88867,17.984375 2622.88867,17.0859375 C2622.88867,16.0377604 2622.51432,15.2141927 2621.76562,14.6152344 C2621.01693,13.8665365 2620.19336,13.4921875 2619.29492,13.4921875 C2618.24674,13.4921875 2617.34831,13.8665365 2616.59961,14.6152344 C2615.85091,15.2141927 2615.47656,16.0377604 2615.47656,17.0859375 C2615.47656,16.9361979 2615.47656,16.7864583 2615.47656,16.6367187 C2615.47656,16.7864583 2615.47656,16.9361979 2615.47656,17.0859375 C2615.47656,17.3854167 2615.47656,17.5351562 2615.47656,17.5351562 C2615.47656,17.6848958 2615.47656,17.7597656 2615.47656,17.7597656 C2615.47656,17.7597656 2615.47656,17.6848958 2615.47656,17.5351562 C2615.47656,17.5351562 2615.47656,17.3854167 2615.47656,17.0859375 Z M2620.41797,21.3535156 C2620.11849,21.3535156 2619.89388,21.3535156 2619.74414,21.3535156 C2619.5944,21.5032552 2619.44466,21.578125 2619.29492,21.578125 C2618.99544,21.578125 2618.77083,21.5032552 2618.62109,21.3535156 C2618.47135,21.3535156 2618.24674,21.3535156 2617.94727,21.3535156 C2617.94727,21.203776 2617.94727,20.9791667 2617.94727,20.6796875 C2618.24674,20.8294271 2618.47135,20.9042969 2618.62109,20.9042969 C2618.77083,20.9042969 2618.99544,20.9042969 2619.29492,20.9042969 C2619.44466,20.9042969 2619.5944,20.9042969 2619.74414,20.9042969 C2619.89388,20.9042969 2620.11849,20.8294271 2620.41797,20.6796875 C2620.41797,20.8294271 2620.41797,20.9042969 2620.41797,20.9042969 C2620.41797,21.0540365 2620.41797,21.203776 2620.41797,21.3535156 Z M2605.59375,13.4921875 C2605.74349,13.4921875 2605.81836,13.5670573 2605.81836,13.7167969 C2605.9681,13.7167969 2606.04297,13.7916667 2606.04297,13.9414063 C2606.04297,13.9414063 2606.11784,14.016276 2606.26758,14.1660156 C2606.26758,14.1660156 2606.26758,14.2408854 2606.26758,14.390625 C2606.26758,16.3372396 2606.26758,18.6582031 2606.26758,21.3535156 C2606.26758,24.1985677 2606.26758,27.4179688 2606.26758,31.0117188 C2606.26758,31.1614583 2606.19271,31.3111979 2606.04297,31.4609375 C2606.04297,31.6106771 2605.9681,31.6855469 2605.81836,31.6855469 C2605.81836,31.8352865 2605.74349,31.9101563 2605.59375,31.9101563 C2605.44401,32.0598958 2605.29427,32.1347656 2605.14453,32.1347656 C2605.14453,32.1347656 2605.06966,32.0598958 2604.91992,31.9101563 C2604.77018,31.9101563 2604.62044,31.8352865 2604.4707,31.6855469 C2604.4707,31.6855469 2604.39583,31.6106771 2604.24609,31.4609375 C2604.24609,31.3111979 2604.24609,31.1614583 2604.24609,31.0117188 C2604.24609,29.5143229 2604.24609,27.5677083 2604.24609,25.171875 C2604.24609,22.7760417 2604.24609,20.0058594 2604.24609,16.8613281 C2604.09635,16.8613281 2604.02148,16.9361979 2604.02148,17.0859375 C2603.87174,17.2356771 2603.72201,17.3854167 2603.57227,17.5351563 C2603.42253,17.5351563 2603.34766,17.610026 2603.34766,17.7597656 C2603.19792,17.7597656 2603.04818,17.7597656 2602.89844,17.7597656 C2602.7487,17.7597656 2602.59896,17.7597656 2602.44922,17.7597656 C2602.44922,17.610026 2602.37435,17.5351563 2602.22461,17.5351563 C2602.07487,17.3854167 2602,17.2356771 2602,17.0859375 C2602,17.0859375 2602,17.0110677 2602,16.8613281 C2602,16.7115885 2602,16.561849 2602,16.4121094 C2602,16.2623698 2602.07487,16.1126302 2602.22461,15.9628906 C2602.52409,15.813151 2602.82357,15.5136719 2603.12305,15.0644531 C2603.57227,14.764974 2604.02148,14.3157552 2604.4707,13.7167969 C2604.62044,13.7167969 2604.69531,13.6419271 2604.69531,13.4921875 C2604.84505,13.4921875 2604.99479,13.4921875 2605.14453,13.4921875 C2605.29427,13.4921875 2605.36914,13.4921875 2605.36914,13.4921875 C2605.51888,13.4921875 2605.59375,13.4921875 2605.59375,13.4921875 Z" transform="translate(-2619 -12)"/></svg>