<svg xmlns="http://www.w3.org/2000/svg" width="72" height="203" viewBox="0 0 72 203"><path d="M1463.88256,117.335112 C1463.88256,126.579725 1464.4708,134.97099 1465.64729,142.508905 C1466.82378,150.046821 1468.6988,157.406955 1471.27236,164.589309 C1473.84593,171.771662 1477.19156,179.060684 1481.30926,186.456375 C1485.42696,193.852066 1490.42702,201.958881 1496.30945,210.776819 C1497.19182,212.341292 1497.22858,213.763541 1496.41975,215.043564 C1495.61092,216.323587 1494.39766,217.319161 1492.78,218.030285 C1491.16233,218.741409 1489.3976,219.061415 1487.48581,218.990303 C1485.57402,218.91919 1484.10341,218.243623 1483.07399,216.963599 C1477.33862,210.563482 1472.30179,203.487797 1467.9635,195.736545 C1463.6252,187.985292 1459.98545,179.807365 1457.04424,171.202763 C1454.10302,162.598161 1451.86034,153.744666 1450.31621,144.642278 C1448.77207,135.539889 1448,126.437501 1448,117.335112 C1448,92.8724427 1453.36772,70.5431458 1464.10315,50.3472212 C1469.5444,40.1070341 1474.06652,32.5691186 1477.6695,27.7334746 C1481.27249,22.8978307 1483.88282,20.337784 1485.50049,20.0533343 C1486.67698,19.9111095 1488.00052,20.0533343 1489.47113,20.4800088 C1490.94174,20.9066832 1492.30205,21.5111387 1493.55206,22.2933752 C1494.80208,23.0756118 1495.72121,23.9645169 1496.30945,24.9600906 C1496.8977,25.9556644 1496.8977,26.8801257 1496.30945,27.7334746 C1490.57408,35.8402895 1485.68432,43.4848736 1481.64014,50.6672271 C1477.59597,57.8495805 1474.25034,64.9608216 1471.60325,72.0009502 C1468.95616,79.0410789 1467.0076,86.2234323 1465.75758,93.5480106 C1464.50757,100.872589 1463.88256,108.801623 1463.88256,117.335112 Z" transform="translate(-1424.514 -18.056)"/></svg>