<svg xmlns="http://www.w3.org/2000/svg" width="62" height="203" viewBox="0 0 62 203"><path d="M1782.072,20 C1784.144,20 1785.883,20.629 1787.289,21.887 C1788.695,23.145 1789.398,25.18 1789.398,27.992 C1789.398,30.656 1788.695,32.58 1787.289,33.764 C1785.883,34.948 1784.144,35.54 1782.072,35.54 L1767.642,35.54 C1764.682,35.54 1762.499,36.021 1761.093,36.983 C1759.687,37.945 1758.984,39.758 1758.984,42.422 L1758.984,196.934 C1758.984,199.746 1759.724,201.559 1761.204,202.373 C1762.684,203.187 1764.83,203.594 1767.642,203.594 L1782.072,203.594 C1784.144,203.594 1785.883,204.186 1787.289,205.37 C1788.695,206.554 1789.398,208.552 1789.398,211.364 C1789.398,214.028 1788.695,215.952 1787.289,217.136 C1785.883,218.32 1784.144,218.912 1782.072,218.912 L1762.314,218.912 C1758.91,218.912 1755.987,218.727 1753.545,218.357 C1751.103,217.987 1749.105,217.173 1747.551,215.915 C1745.997,214.657 1744.85,212.918 1744.11,210.698 C1743.37,208.478 1743,205.518 1743,201.818 L1743,37.316 C1743,25.772 1748.698,20 1760.094,20 L1782.072,20 Z" transform="translate(-1727.805 -18.056)"/></svg>