<svg xmlns="http://www.w3.org/2000/svg" width="120" height="203" viewBox="0 0 120 203"><path fill="#131313" d="M2572.17543,68.1738281 C2572.17543,68.1738281 2572.17543,68.1738281 2572.17543,68.1738281 C2572.17543,68.1738281 2572.17543,68.242513 2572.17543,68.3798828 C2572.17543,96.6780599 2572.17543,139.125326 2572.17543,195.72168 C2572.17543,197.782227 2571.4199,199.568034 2569.90883,201.079102 C2568.53513,202.452799 2566.81801,203.139648 2564.75746,203.139648 C2562.69691,203.139648 2560.91111,202.452799 2559.40004,201.079102 C2557.88897,199.568034 2557.13344,197.782227 2557.13344,195.72168 C2557.13344,177.863607 2557.13344,150.939128 2557.13344,114.948242 C2551.08917,133.493164 2542.02276,161.241862 2529.93422,198.194336 C2529.93422,198.331706 2529.93422,198.469076 2529.93422,198.606445 C2529.79685,198.743815 2529.72816,198.881185 2529.72816,199.018555 C2529.72816,199.018555 2529.65948,199.018555 2529.52211,199.018555 C2529.52211,199.155924 2529.52211,199.224609 2529.52211,199.224609 C2529.38474,199.361979 2529.31605,199.568034 2529.31605,199.842773 C2529.17868,199.980143 2529.04132,200.117513 2528.90395,200.254883 C2528.76658,200.392253 2528.69789,200.460938 2528.69789,200.460938 C2528.69789,200.460938 2528.69789,200.460938 2528.69789,200.460938 C2528.56052,200.598307 2528.42315,200.735677 2528.28578,200.873047 C2528.14841,201.010417 2528.01104,201.147786 2527.87367,201.285156 C2527.87367,201.285156 2527.80499,201.353841 2527.66762,201.491211 C2527.66762,201.491211 2527.66762,201.491211 2527.66762,201.491211 C2527.53025,201.628581 2527.39288,201.765951 2527.25551,201.90332 C2527.11814,201.90332 2526.98077,201.972005 2526.8434,202.109375 C2526.8434,202.109375 2526.77471,202.17806 2526.63734,202.31543 C2526.63734,202.31543 2526.56866,202.31543 2526.43129,202.31543 C2526.29392,202.452799 2526.08786,202.521484 2525.81313,202.521484 C2525.67576,202.658854 2525.53839,202.727539 2525.40102,202.727539 C2525.26365,202.727539 2525.19496,202.796224 2525.19496,202.933594 C2525.19496,202.933594 2525.19496,202.933594 2525.19496,202.933594 C2525.19496,202.933594 2525.19496,202.933594 2525.19496,202.933594 C2525.19496,202.933594 2525.19496,202.933594 2525.19496,202.933594 C2525.05759,202.933594 2524.85154,202.933594 2524.5768,202.933594 C2524.43943,203.070964 2524.30206,203.139648 2524.16469,203.139648 C2524.02732,203.139648 2523.88995,203.139648 2523.75258,203.139648 C2523.75258,203.139648 2523.68389,203.139648 2523.54652,203.139648 C2523.40915,203.139648 2523.27178,203.139648 2523.13441,203.139648 C2523.13441,203.277018 2523.06573,203.345703 2522.92836,203.345703 C2522.79099,203.345703 2522.65362,203.277018 2522.51625,203.139648 C2522.37888,203.139648 2522.24151,203.139648 2522.10414,203.139648 C2522.10414,203.139648 2522.03546,203.139648 2521.89809,203.139648 C2521.89809,203.139648 2521.8294,203.139648 2521.69203,203.139648 C2521.55466,203.139648 2521.34861,203.070964 2521.07387,202.933594 C2520.9365,202.933594 2520.73044,202.933594 2520.4557,202.933594 C2520.4557,202.933594 2520.4557,202.933594 2520.4557,202.933594 C2520.4557,202.933594 2520.4557,202.933594 2520.4557,202.933594 C2520.4557,202.933594 2520.4557,202.933594 2520.4557,202.933594 C2520.4557,202.933594 2520.4557,202.864909 2520.4557,202.727539 C2520.18096,202.727539 2519.97491,202.658854 2519.83754,202.521484 C2519.70017,202.521484 2519.49411,202.452799 2519.21938,202.31543 C2519.21938,202.31543 2519.15069,202.246745 2519.01332,202.109375 C2519.01332,202.109375 2518.94464,202.109375 2518.80727,202.109375 C2518.80727,201.972005 2518.73858,201.90332 2518.60121,201.90332 C2518.46384,201.765951 2518.32647,201.628581 2518.1891,201.491211 C2518.05173,201.491211 2517.98305,201.491211 2517.98305,201.491211 C2517.98305,201.353841 2517.91436,201.285156 2517.77699,201.285156 C2517.63962,201.147786 2517.50225,201.010417 2517.36488,200.873047 C2517.22751,200.735677 2517.15883,200.598307 2517.15883,200.460938 C2517.02146,200.460938 2516.95277,200.460938 2516.95277,200.460938 C2516.95277,200.323568 2516.95277,200.254883 2516.95277,200.254883 C2516.8154,200.117513 2516.67803,199.911458 2516.54066,199.636719 C2516.40329,199.499349 2516.26592,199.361979 2516.12855,199.224609 C2516.12855,199.08724 2516.12855,199.018555 2516.12855,199.018555 C2516.12855,199.018555 2516.12855,198.94987 2516.12855,198.8125 C2515.99118,198.67513 2515.9225,198.53776 2515.9225,198.400391 C2515.78513,198.263021 2515.71645,198.125651 2515.71645,197.988281 C2509.67217,179.580729 2500.60577,151.900716 2488.51723,114.948242 C2488.51723,132.943685 2488.51723,159.868164 2488.51723,195.72168 C2488.51723,197.782227 2487.76169,199.568034 2486.25063,201.079102 C2484.73956,202.452799 2482.95375,203.139648 2480.8932,203.139648 C2478.97003,203.139648 2477.2529,202.452799 2475.74184,201.079102 C2474.23077,199.568034 2473.47523,197.782227 2473.47523,195.72168 C2473.47523,167.423503 2473.47523,124.976237 2473.47523,68.3798828 C2473.47523,68.3798828 2473.47523,68.3111979 2473.47523,68.1738281 C2473.47523,68.1738281 2473.47523,68.1738281 2473.47523,68.1738281 C2473.47523,68.0364583 2473.47523,67.8990885 2473.47523,67.7617188 C2473.6126,67.624349 2473.68129,67.4869792 2473.68129,67.3496094 C2473.68129,67.2122396 2473.68129,67.0748698 2473.68129,66.9375 C2473.68129,66.8001302 2473.68129,66.6627604 2473.68129,66.5253906 C2473.81866,66.5253906 2473.88734,66.4567057 2473.88734,66.3193359 C2473.88734,66.1819661 2473.88734,66.0445964 2473.88734,65.9072266 C2474.02471,65.7698568 2474.0934,65.632487 2474.0934,65.4951172 C2474.0934,65.3577474 2474.16208,65.2890625 2474.29945,65.2890625 C2474.29945,65.1516927 2474.29945,65.0143229 2474.29945,64.8769531 C2474.43682,64.7395833 2474.50551,64.6708984 2474.50551,64.6708984 C2474.64288,64.5335286 2474.71156,64.3961589 2474.71156,64.2587891 C2474.84893,64.1214193 2474.91762,64.0527344 2474.91762,64.0527344 C2475.05499,63.9153646 2475.12367,63.7779948 2475.12367,63.640625 C2475.26104,63.640625 2475.32973,63.5719401 2475.32973,63.4345703 C2475.4671,63.2972005 2475.60447,63.2285156 2475.74184,63.2285156 C2475.74184,63.0911458 2475.81052,63.0224609 2475.94789,63.0224609 C2475.94789,62.8850911 2476.01658,62.7477214 2476.15395,62.6103516 C2476.29132,62.6103516 2476.36,62.5416667 2476.36,62.4042969 C2476.49737,62.4042969 2476.63474,62.335612 2476.77211,62.1982422 C2476.90948,62.1982422 2476.97816,62.1295573 2476.97816,61.9921875 C2477.11553,61.9921875 2477.2529,61.9235026 2477.39027,61.7861328 C2477.52764,61.7861328 2477.59633,61.7861328 2477.59633,61.7861328 C2477.7337,61.648763 2477.87107,61.5800781 2478.00844,61.5800781 C2478.14581,61.4427083 2478.28318,61.3740234 2478.42055,61.3740234 C2478.42055,61.3740234 2478.42055,61.3740234 2478.42055,61.3740234 C2478.55792,61.3740234 2478.6266,61.3053385 2478.6266,61.1679688 C2478.76397,61.1679688 2478.83266,61.1679688 2478.83266,61.1679688 C2478.83266,61.1679688 2478.90134,61.1679688 2479.03871,61.1679688 C2479.17608,61.1679688 2479.31345,61.1679688 2479.45082,61.1679688 C2479.58819,61.030599 2479.72556,60.9619141 2479.86293,60.9619141 C2480.0003,60.9619141 2480.13767,60.9619141 2480.27504,60.9619141 C2480.41241,60.9619141 2480.48109,60.9619141 2480.48109,60.9619141 C2480.61846,60.9619141 2480.68715,60.9619141 2480.68715,60.9619141 C2480.82452,60.9619141 2480.8932,60.9619141 2480.8932,60.9619141 C2481.03057,60.9619141 2481.09926,60.9619141 2481.09926,60.9619141 C2481.09926,60.9619141 2481.16794,60.9619141 2481.30531,60.9619141 C2481.44268,60.9619141 2481.58005,60.9619141 2481.71742,60.9619141 C2481.85479,60.9619141 2481.99216,60.9619141 2482.12953,60.9619141 C2482.12953,60.9619141 2482.19822,60.9619141 2482.33559,60.9619141 C2482.47296,61.0992839 2482.61033,61.1679688 2482.7477,61.1679688 C2482.88507,61.1679688 2483.02243,61.1679688 2483.1598,61.1679688 C2483.1598,61.1679688 2483.22849,61.2366536 2483.36586,61.3740234 C2483.50323,61.3740234 2483.6406,61.3740234 2483.77797,61.3740234 C2483.91534,61.5113932 2484.05271,61.5800781 2484.19008,61.5800781 C2484.19008,61.7174479 2484.25876,61.7861328 2484.39613,61.7861328 C2484.5335,61.7861328 2484.67087,61.8548177 2484.80824,61.9921875 C2484.80824,61.9921875 2484.87693,62.0608724 2485.0143,62.1982422 C2485.15167,62.1982422 2485.28904,62.2669271 2485.42641,62.4042969 C2485.42641,62.4042969 2485.49509,62.4729818 2485.63246,62.6103516 C2485.76983,62.6103516 2485.83852,62.6790365 2485.83852,62.8164062 C2485.97589,62.8164062 2486.11326,62.8850911 2486.25063,63.0224609 C2486.25063,63.1598307 2486.31931,63.2285156 2486.45668,63.2285156 C2486.45668,63.3658854 2486.52536,63.4345703 2486.66273,63.4345703 C2486.8001,63.5719401 2486.86879,63.7093099 2486.86879,63.8466797 C2487.00616,63.9840495 2487.07484,64.0527344 2487.07484,64.0527344 C2487.21221,64.1901042 2487.2809,64.327474 2487.2809,64.4648438 C2487.41827,64.4648438 2487.48695,64.5335286 2487.48695,64.6708984 C2487.48695,64.8082682 2487.55564,64.945638 2487.69301,65.0830078 C2487.69301,65.2203776 2487.76169,65.2890625 2487.89906,65.2890625 C2487.89906,65.4264323 2487.89906,65.5638021 2487.89906,65.7011719 C2487.89906,65.8385417 2487.96775,65.9072266 2488.10512,65.9072266 C2488.10512,65.9072266 2488.10512,65.9072266 2488.10512,65.9072266 C2495.79783,89.5348307 2507.40557,124.838867 2522.92836,171.819336 C2530.62107,148.329102 2542.16013,113.09375 2557.54555,66.1132812 C2557.54555,65.9759115 2557.61423,65.9072266 2557.7516,65.9072266 C2557.7516,65.9072266 2557.7516,65.8385417 2557.7516,65.7011719 C2557.7516,65.5638021 2557.82029,65.4264323 2557.95766,65.2890625 C2557.95766,65.2890625 2557.95766,65.2203776 2557.95766,65.0830078 C2558.09503,64.945638 2558.16371,64.8082682 2558.16371,64.6708984 C2558.30108,64.5335286 2558.36977,64.4648438 2558.36977,64.4648438 C2558.50714,64.327474 2558.57582,64.1901042 2558.57582,64.0527344 C2558.71319,63.9153646 2558.78188,63.8466797 2558.78188,63.8466797 C2558.91924,63.7093099 2558.98793,63.5719401 2558.98793,63.4345703 C2559.1253,63.2972005 2559.19398,63.2285156 2559.19398,63.2285156 C2559.33135,63.0911458 2559.46872,63.0224609 2559.60609,63.0224609 C2559.60609,62.8850911 2559.67478,62.8164062 2559.81215,62.8164062 C2559.81215,62.6790365 2559.88083,62.5416667 2560.0182,62.4042969 C2560.15557,62.4042969 2560.29294,62.335612 2560.43031,62.1982422 C2560.43031,62.1982422 2560.499,62.1295573 2560.63637,61.9921875 C2560.77374,61.9921875 2560.91111,61.9235026 2561.04848,61.7861328 C2561.04848,61.7861328 2561.11716,61.7861328 2561.25453,61.7861328 C2561.3919,61.648763 2561.52927,61.5800781 2561.66664,61.5800781 C2561.66664,61.4427083 2561.73533,61.3740234 2561.8727,61.3740234 C2562.01007,61.3740234 2562.14743,61.3053385 2562.2848,61.1679688 C2562.42217,61.1679688 2562.55954,61.1679688 2562.69691,61.1679688 C2562.69691,61.1679688 2562.7656,61.0992839 2562.90297,60.9619141 C2563.04034,60.9619141 2563.17771,60.9619141 2563.31508,60.9619141 C2563.45245,60.9619141 2563.58982,60.9619141 2563.72719,60.9619141 C2563.86456,60.9619141 2564.00193,60.9619141 2564.1393,60.9619141 C2564.1393,60.8245443 2564.20798,60.7558594 2564.34535,60.7558594 C2564.48272,60.7558594 2564.55141,60.7558594 2564.55141,60.7558594 C2564.68878,60.7558594 2564.75746,60.7558594 2564.75746,60.7558594 C2564.75746,60.7558594 2564.82615,60.7558594 2564.96352,60.7558594 C2564.96352,60.8932292 2565.0322,60.9619141 2565.16957,60.9619141 C2565.30694,60.9619141 2565.44431,60.9619141 2565.58168,60.9619141 C2565.71905,60.9619141 2565.85642,60.9619141 2565.99379,60.9619141 C2566.13116,60.9619141 2566.19984,60.9619141 2566.19984,60.9619141 C2566.33721,61.0992839 2566.47458,61.1679688 2566.61195,61.1679688 C2566.74932,61.1679688 2566.81801,61.1679688 2566.81801,61.1679688 C2566.95538,61.1679688 2567.02406,61.1679688 2567.02406,61.1679688 C2567.02406,61.1679688 2567.09275,61.1679688 2567.23012,61.1679688 C2567.23012,61.3053385 2567.23012,61.3740234 2567.23012,61.3740234 C2567.36749,61.3740234 2567.50486,61.3740234 2567.64223,61.3740234 C2567.7796,61.5113932 2567.91697,61.5800781 2568.05434,61.5800781 C2568.19171,61.7174479 2568.32908,61.7861328 2568.46645,61.7861328 C2568.46645,61.7861328 2568.53513,61.8548177 2568.6725,61.9921875 C2568.80987,61.9921875 2568.87855,62.0608724 2568.87855,62.1982422 C2569.01592,62.1982422 2569.15329,62.2669271 2569.29066,62.4042969 C2569.42803,62.5416667 2569.49672,62.6103516 2569.49672,62.6103516 C2569.63409,62.7477214 2569.77146,62.8164062 2569.90883,62.8164062 C2569.90883,62.953776 2569.97751,63.0224609 2570.11488,63.0224609 C2570.11488,63.1598307 2570.18357,63.2972005 2570.32094,63.4345703 C2570.45831,63.4345703 2570.52699,63.5032552 2570.52699,63.640625 C2570.66436,63.7779948 2570.73305,63.8466797 2570.73305,63.8466797 C2570.87042,63.9840495 2570.9391,64.1214193 2570.9391,64.2587891 C2571.07647,64.3961589 2571.14516,64.4648438 2571.14516,64.4648438 C2571.14516,64.6022135 2571.21384,64.7395833 2571.35121,64.8769531 C2571.35121,65.0143229 2571.4199,65.1516927 2571.55727,65.2890625 C2571.55727,65.2890625 2571.55727,65.3577474 2571.55727,65.4951172 C2571.69464,65.632487 2571.76332,65.7698568 2571.76332,65.9072266 C2571.76332,66.0445964 2571.76332,66.1819661 2571.76332,66.3193359 C2571.90069,66.3193359 2571.96938,66.3880208 2571.96938,66.5253906 C2571.96938,66.6627604 2571.96938,66.8001302 2571.96938,66.9375 C2571.96938,67.0748698 2572.03806,67.2122396 2572.17543,67.3496094 C2572.17543,67.4869792 2572.17543,67.624349 2572.17543,67.7617188 C2572.17543,67.8990885 2572.17543,68.0364583 2572.17543,68.1738281 Z M2547.86098,184.388672 C2548.27309,184.388672 2548.95993,184.388672 2549.92152,184.388672 C2549.92152,178.344401 2549.92152,169.34668 2549.92152,157.395508 C2549.50941,157.395508 2548.82257,157.395508 2547.86098,157.395508 C2547.86098,163.439779 2547.86098,172.4375 2547.86098,184.388672 Z M2548.89125,195.72168 C2549.5781,193.249023 2550.60837,189.471354 2551.98207,184.388672 C2551.56996,184.388672 2550.88311,184.388672 2549.92152,184.388672 C2549.92152,184.800781 2549.92152,185.48763 2549.92152,186.449219 C2549.50941,186.449219 2548.82257,186.449219 2547.86098,186.449219 C2547.86098,186.037109 2547.86098,185.35026 2547.86098,184.388672 C2547.3115,184.388672 2546.62465,184.388672 2545.80043,184.388672 C2546.48728,186.861328 2547.51755,190.638997 2548.89125,195.72168 Z M2547.86098,186.449219 C2548.27309,186.449219 2548.95993,186.449219 2549.92152,186.449219 C2549.92152,186.037109 2549.92152,185.35026 2549.92152,184.388672 C2549.50941,184.388672 2548.82257,184.388672 2547.86098,184.388672 C2547.86098,184.800781 2547.86098,185.48763 2547.86098,186.449219 Z M2499.02602,72.0888672 C2499.16339,71.9514974 2499.30076,71.8828125 2499.43813,71.8828125 C2499.71286,71.8828125 2499.91892,71.8828125 2500.05629,71.8828125 C2500.19366,71.7454427 2500.33103,71.6767578 2500.4684,71.6767578 C2500.60577,71.539388 2500.81182,71.4020182 2501.08656,71.2646484 C2506.03188,86.5126953 2513.51853,109.316081 2523.54652,139.674805 C2524.64548,136.10319 2526.43129,130.608398 2528.90395,123.19043 C2529.31605,123.465169 2530.0029,123.739909 2530.96449,124.014648 C2529.31605,128.959961 2526.8434,136.446615 2523.54652,146.474609 C2519.42543,134.111328 2515.30434,121.679362 2511.18324,109.178711 C2507.06215,96.8154297 2503.00974,84.4521484 2499.02602,72.0888672 Z M2494.0807,68.3798828 C2494.0807,68.3798828 2494.0807,68.3798828 2494.0807,68.3798828 C2494.21807,68.3798828 2494.28676,68.4485677 2494.28676,68.5859375 C2494.28676,68.4485677 2494.21807,68.3798828 2494.0807,68.3798828 C2494.0807,68.3798828 2494.0807,68.3798828 2494.0807,68.3798828 Z M2494.49281,69.6162109 C2494.49281,69.4788411 2494.49281,69.4101562 2494.49281,69.4101562 C2494.49281,69.4101562 2494.49281,69.4101562 2494.49281,69.4101562 C2494.49281,69.4101562 2494.49281,69.4101562 2494.49281,69.4101562 C2494.49281,69.4101562 2494.49281,69.4788411 2494.49281,69.6162109 Z M2494.28676,68.5859375 C2494.28676,68.5859375 2494.28676,68.6546224 2494.28676,68.7919922 C2494.28676,68.7919922 2494.28676,68.8606771 2494.28676,68.9980469 C2494.28676,68.8606771 2494.28676,68.7919922 2494.28676,68.7919922 C2494.28676,68.6546224 2494.28676,68.5859375 2494.28676,68.5859375 Z M2494.49281,69.4101562 C2494.49281,69.2727865 2494.49281,69.2041016 2494.49281,69.2041016 C2494.35544,69.0667318 2494.28676,68.9980469 2494.28676,68.9980469 C2494.28676,68.9980469 2494.35544,69.0667318 2494.49281,69.2041016 C2494.49281,69.2041016 2494.49281,69.2727865 2494.49281,69.4101562 Z M2499.02602,72.0888672 C2497.92706,72.0888672 2496.96547,71.8141276 2496.14125,71.2646484 C2495.31703,70.7151693 2494.69887,69.9596354 2494.28676,68.9980469 C2493.87465,67.7617188 2493.94333,66.5940755 2494.49281,65.4951172 C2495.17966,64.3961589 2496.07257,63.640625 2497.17152,63.2285156 C2498.40785,62.8164062 2499.57549,62.8850911 2500.67445,63.4345703 C2501.77341,64.1214193 2502.52895,65.0143229 2502.94105,66.1132812 C2503.21579,67.0748698 2503.14711,68.0364583 2502.735,68.9980469 C2502.46026,70.0970052 2501.91078,70.8525391 2501.08656,71.2646484 C2500.94919,71.2646484 2500.88051,71.1272786 2500.88051,70.8525391 C2501.56736,70.3030599 2502.04815,69.6162109 2502.32289,68.7919922 C2502.59763,67.9677734 2502.59763,67.1435547 2502.32289,66.3193359 C2502.04815,65.2203776 2501.42999,64.4648438 2500.4684,64.0527344 C2499.50681,63.5032552 2498.47654,63.4345703 2497.37758,63.8466797 C2496.27862,64.1214193 2495.52309,64.7395833 2495.11098,65.7011719 C2494.5615,66.6627604 2494.49281,67.6930339 2494.90492,68.7919922 C2495.17966,69.6162109 2495.66046,70.3030599 2496.3473,70.8525391 C2497.17152,71.2646484 2497.99574,71.4707031 2498.81996,71.4707031 C2498.81996,71.6080729 2498.81996,71.6767578 2498.81996,71.6767578 C2498.95733,71.8141276 2499.02602,71.9514974 2499.02602,72.0888672 Z M2499.85023,71.2646484 C2499.9876,71.2646484 2500.12497,71.1959635 2500.26234,71.0585938 C2500.53708,71.0585938 2500.74314,70.9899089 2500.88051,70.8525391 C2500.88051,70.9899089 2500.88051,71.1272786 2500.88051,71.2646484 C2500.74314,71.4020182 2500.60577,71.539388 2500.4684,71.6767578 C2500.33103,71.6767578 2500.19366,71.7454427 2500.05629,71.8828125 C2499.78155,71.8828125 2499.57549,71.8828125 2499.43813,71.8828125 C2499.30076,72.0201823 2499.16339,72.0888672 2499.02602,72.0888672 C2498.88865,71.9514974 2498.81996,71.7454427 2498.81996,71.4707031 C2498.95733,71.4707031 2499.0947,71.4707031 2499.23207,71.4707031 C2499.50681,71.4707031 2499.71286,71.4020182 2499.85023,71.2646484 Z M2495.31703,68.5859375 C2495.59177,69.2727865 2496.00388,69.8222656 2496.55336,70.234375 C2497.24021,70.6464844 2497.92706,70.8525391 2498.61391,70.8525391 C2498.61391,70.9899089 2498.68259,71.1959635 2498.81996,71.4707031 C2497.99574,71.4707031 2497.17152,71.2646484 2496.3473,70.8525391 C2495.66046,70.3030599 2495.17966,69.6162109 2494.90492,68.7919922 C2494.49281,67.6930339 2494.5615,66.6627604 2495.11098,65.7011719 C2495.66046,64.7395833 2496.41599,64.1214193 2497.37758,63.8466797 C2498.47654,63.4345703 2499.50681,63.5032552 2500.4684,64.0527344 C2501.42999,64.4648438 2502.04815,65.2203776 2502.32289,66.3193359 C2502.59763,67.1435547 2502.59763,67.9677734 2502.32289,68.7919922 C2502.04815,69.6162109 2501.56736,70.3030599 2500.88051,70.8525391 C2500.74314,70.7151693 2500.67445,70.5091146 2500.67445,70.234375 C2501.22393,69.8222656 2501.63604,69.2727865 2501.91078,68.5859375 C2502.18552,67.8990885 2502.18552,67.2122396 2501.91078,66.5253906 C2501.91078,66.5253906 2501.91078,66.5253906 2501.91078,66.5253906 C2501.91078,66.5253906 2501.91078,66.5940755 2501.91078,66.7314453 C2501.91078,66.7314453 2501.91078,66.6627604 2501.91078,66.5253906 C2501.91078,66.5253906 2501.91078,66.5253906 2501.91078,66.5253906 C2501.63604,65.5638021 2501.08656,64.8769531 2500.26234,64.4648438 C2499.30076,64.0527344 2498.40785,63.9840495 2497.58363,64.2587891 C2496.62204,64.5335286 2495.9352,65.0830078 2495.52309,65.9072266 C2495.11098,66.8688151 2495.04229,67.7617188 2495.31703,68.5859375 Z M2500.88051,70.8525391 C2500.74314,70.9899089 2500.53708,71.0585938 2500.26234,71.0585938 C2500.12497,71.1959635 2499.9876,71.2646484 2499.85023,71.2646484 C2499.71286,71.4020182 2499.57549,71.4707031 2499.43813,71.4707031 C2499.16339,71.4707031 2498.95733,71.4707031 2498.81996,71.4707031 C2498.81996,71.3333333 2498.75128,71.1272786 2498.61391,70.8525391 C2498.75128,70.8525391 2498.95733,70.8525391 2499.23207,70.8525391 C2499.36944,70.8525391 2499.50681,70.8525391 2499.64418,70.8525391 C2499.91892,70.7151693 2500.12497,70.6464844 2500.26234,70.6464844 C2500.39971,70.5091146 2500.53708,70.3717448 2500.67445,70.234375 C2500.67445,70.3717448 2500.67445,70.5091146 2500.67445,70.6464844 C2500.67445,70.6464844 2500.74314,70.7151693 2500.88051,70.8525391 Z M2529.52211,121.335938 C2529.38474,121.748047 2529.17868,122.366211 2528.90395,123.19043 C2528.49184,123.05306 2527.80499,122.847005 2526.8434,122.572266 C2528.35447,120.374349 2530.55238,117.077474 2533.43715,112.681641 C2533.29978,115.291667 2533.09372,119.275391 2532.81898,124.632812 C2532.40688,124.495443 2531.78871,124.289388 2530.96449,124.014648 C2531.10186,123.465169 2531.30792,122.77832 2531.58266,121.954102 C2531.03318,121.816732 2530.34633,121.610677 2529.52211,121.335938 Z M2528.90395,123.19043 C2529.04132,122.77832 2529.24737,122.160156 2529.52211,121.335938 C2529.93422,121.473307 2530.62107,121.679362 2531.58266,121.954102 C2531.44529,122.366211 2531.17055,123.05306 2530.75844,124.014648 C2530.34633,123.877279 2529.72816,123.602539 2528.90395,123.19043 Z M2466.26332,77.2402344 C2466.26332,83.2845052 2466.26332,92.2822266 2466.26332,104.233398 C2465.71384,104.233398 2464.95831,104.233398 2463.99672,104.233398 C2463.99672,98.1891276 2463.99672,89.1914062 2463.99672,77.2402344 C2464.27146,77.2402344 2464.47751,77.2402344 2464.61488,77.2402344 C2464.75225,77.3776042 2464.95831,77.4462891 2465.23305,77.4462891 C2465.37042,77.4462891 2465.50779,77.3776042 2465.64516,77.2402344 C2465.78253,77.2402344 2465.98858,77.2402344 2466.26332,77.2402344 Z M2466.26332,104.233398 C2466.26332,104.645508 2466.26332,105.332357 2466.26332,106.293945 C2465.71384,106.293945 2464.95831,106.293945 2463.99672,106.293945 C2463.99672,105.881836 2463.99672,105.194987 2463.99672,104.233398 C2463.58461,104.233398 2462.96645,104.233398 2462.14223,104.233398 C2462.82908,106.706055 2463.85935,110.483724 2465.23305,115.566406 C2465.78253,113.09375 2466.74411,109.316081 2468.11781,104.233398 C2467.7057,104.233398 2467.08754,104.233398 2466.26332,104.233398 Z M2463.99672,106.293945 C2464.5462,106.293945 2465.30173,106.293945 2466.26332,106.293945 C2466.26332,105.881836 2466.26332,105.194987 2466.26332,104.233398 C2465.71384,104.233398 2464.95831,104.233398 2463.99672,104.233398 C2463.99672,104.645508 2463.99672,105.332357 2463.99672,106.293945 Z M2461.11195,72.9130859 C2461.11195,73.7373047 2461.38669,74.5615234 2461.93617,75.3857422 C2462.48565,76.0725911 2463.1725,76.4847005 2463.99672,76.6220703 C2463.99672,76.7594401 2463.99672,76.9654948 2463.99672,77.2402344 C2463.03513,76.9654948 2462.21091,76.4160156 2461.52406,75.5917969 C2460.97458,74.7675781 2460.69984,73.8746745 2460.69984,72.9130859 C2460.69984,71.6767578 2461.11195,70.5777995 2461.93617,69.6162109 C2462.89776,68.7919922 2463.99672,68.3798828 2465.23305,68.3798828 C2466.46938,68.3798828 2467.49965,68.7919922 2468.32387,69.6162109 C2469.14809,70.5777995 2469.5602,71.6767578 2469.5602,72.9130859 C2469.5602,73.8746745 2469.28546,74.7675781 2468.73598,75.5917969 C2468.04913,76.4160156 2467.22491,76.9654948 2466.26332,77.2402344 C2466.26332,77.1028646 2466.26332,76.8968099 2466.26332,76.6220703 C2467.08754,76.4847005 2467.77439,76.0039062 2468.32387,75.1796875 C2468.87335,74.4928385 2469.14809,73.7373047 2469.14809,72.9130859 C2469.14809,71.8141276 2468.73598,70.8525391 2467.91176,70.0283203 C2467.22491,69.3414714 2466.33201,68.9980469 2465.23305,68.9980469 C2464.13409,68.9980469 2463.1725,69.3414714 2462.34828,70.0283203 C2461.52406,70.8525391 2461.11195,71.8141276 2461.11195,72.9130859 Z M2466.26332,77.2402344 C2465.98858,77.2402344 2465.78253,77.2402344 2465.64516,77.2402344 C2465.50779,77.3776042 2465.37042,77.4462891 2465.23305,77.4462891 C2464.95831,77.4462891 2464.75225,77.4462891 2464.61488,77.4462891 C2464.47751,77.3089193 2464.27146,77.2402344 2463.99672,77.2402344 C2463.99672,77.1028646 2463.99672,76.8968099 2463.99672,76.6220703 C2464.27146,76.7594401 2464.47751,76.828125 2464.61488,76.828125 C2464.75225,76.828125 2464.95831,76.828125 2465.23305,76.828125 C2465.37042,76.828125 2465.50779,76.828125 2465.64516,76.828125 C2465.78253,76.828125 2465.98858,76.7594401 2466.26332,76.6220703 C2466.26332,76.7594401 2466.26332,76.8968099 2466.26332,77.0341797 C2466.26332,77.0341797 2466.26332,77.1028646 2466.26332,77.2402344 Z M2469.14809,72.9130859 C2469.14809,73.7373047 2468.87335,74.5615234 2468.32387,75.3857422 C2467.77439,76.0725911 2467.08754,76.4847005 2466.26332,76.6220703 C2466.26332,76.4847005 2466.26332,76.3473307 2466.26332,76.2099609 C2466.95017,75.9352214 2467.49965,75.523112 2467.91176,74.9736328 C2468.32387,74.2867839 2468.52992,73.5999349 2468.52992,72.9130859 C2468.52992,71.9514974 2468.1865,71.1272786 2467.49965,70.4404297 C2466.8128,69.7535807 2466.05727,69.4101562 2465.23305,69.4101562 C2464.27146,69.4101562 2463.44724,69.7535807 2462.76039,70.4404297 C2462.07354,71.1272786 2461.73012,71.9514974 2461.73012,72.9130859 C2461.73012,72.7757161 2461.73012,72.6383464 2461.73012,72.5009766 C2461.73012,72.3636068 2461.73012,72.2949219 2461.73012,72.2949219 C2461.73012,72.2949219 2461.73012,72.3636068 2461.73012,72.5009766 C2461.73012,72.6383464 2461.73012,72.7757161 2461.73012,72.9130859 C2461.73012,73.0504557 2461.73012,73.1878255 2461.73012,73.3251953 C2461.73012,73.3251953 2461.73012,73.3251953 2461.73012,73.3251953 C2461.73012,73.3251953 2461.73012,73.3251953 2461.73012,73.3251953 C2461.73012,73.1878255 2461.73012,73.0504557 2461.73012,72.9130859 C2461.73012,73.5999349 2461.93617,74.2867839 2462.34828,74.9736328 C2462.76039,75.523112 2463.30987,75.9352214 2463.99672,76.2099609 C2463.99672,76.2099609 2463.99672,76.3473307 2463.99672,76.6220703 C2463.1725,76.4847005 2462.48565,76.0039062 2461.93617,75.1796875 C2461.38669,74.4928385 2461.11195,73.7373047 2461.11195,72.9130859 C2461.11195,71.8141276 2461.52406,70.8525391 2462.34828,70.0283203 C2463.1725,69.3414714 2464.13409,68.9980469 2465.23305,68.9980469 C2466.33201,68.9980469 2467.22491,69.3414714 2467.91176,70.0283203 C2468.73598,70.8525391 2469.14809,71.8141276 2469.14809,72.9130859 Z M2465.23305,76.4160156 C2465.37042,76.4160156 2465.50779,76.3473307 2465.64516,76.2099609 C2465.78253,76.2099609 2465.98858,76.2099609 2466.26332,76.2099609 C2466.26332,76.2099609 2466.26332,76.3473307 2466.26332,76.6220703 C2465.98858,76.7594401 2465.78253,76.828125 2465.64516,76.828125 C2465.50779,76.828125 2465.37042,76.828125 2465.23305,76.828125 C2464.95831,76.828125 2464.75225,76.828125 2464.61488,76.828125 C2464.47751,76.828125 2464.27146,76.7594401 2463.99672,76.6220703 C2463.99672,76.4847005 2463.99672,76.3473307 2463.99672,76.2099609 C2464.27146,76.2099609 2464.47751,76.2099609 2464.61488,76.2099609 C2464.75225,76.3473307 2464.95831,76.4160156 2465.23305,76.4160156 Z M2454.10609,68.7919922 C2454.24346,68.929362 2454.31215,68.9980469 2454.31215,68.9980469 C2454.44952,69.1354167 2454.5182,69.2041016 2454.5182,69.2041016 C2454.65557,69.3414714 2454.72426,69.4101562 2454.72426,69.4101562 C2454.72426,69.547526 2454.72426,69.6848958 2454.72426,69.8222656 C2454.72426,71.4707031 2454.72426,73.53125 2454.72426,76.0039062 C2454.72426,78.6139323 2454.72426,81.6360677 2454.72426,85.0703125 C2454.72426,85.2076823 2454.72426,85.2763672 2454.72426,85.2763672 C2454.58689,85.413737 2454.5182,85.5511068 2454.5182,85.6884766 C2454.38083,85.6884766 2454.24346,85.7571615 2454.10609,85.8945312 C2453.96872,85.8945312 2453.90004,85.8945312 2453.90004,85.8945312 C2453.76267,85.8945312 2453.6253,85.8945312 2453.48793,85.8945312 C2453.35056,85.7571615 2453.28188,85.6884766 2453.28188,85.6884766 C2453.14451,85.5511068 2453.07582,85.413737 2453.07582,85.2763672 C2452.93845,85.2763672 2452.86977,85.2076823 2452.86977,85.0703125 C2452.86977,83.5592448 2452.86977,81.7047526 2452.86977,79.5068359 C2452.86977,77.3089193 2452.86977,74.7675781 2452.86977,71.8828125 C2452.86977,72.0201823 2452.80108,72.0888672 2452.66371,72.0888672 C2452.52634,72.226237 2452.38897,72.3636068 2452.2516,72.5009766 C2452.2516,72.6383464 2452.18292,72.7070312 2452.04555,72.7070312 C2451.90818,72.7070312 2451.77081,72.7070312 2451.63344,72.7070312 C2451.49607,72.7070312 2451.42738,72.7070312 2451.42738,72.7070312 C2451.29001,72.7070312 2451.15264,72.6383464 2451.01527,72.5009766 C2451.01527,72.3636068 2450.94659,72.2949219 2450.80922,72.2949219 C2450.80922,72.1575521 2450.80922,72.0201823 2450.80922,71.8828125 C2450.80922,71.7454427 2450.80922,71.6080729 2450.80922,71.4707031 C2450.94659,71.4707031 2451.01527,71.4020182 2451.01527,71.2646484 C2451.29001,70.9899089 2451.63344,70.7151693 2452.04555,70.4404297 C2452.32029,70.0283203 2452.7324,69.547526 2453.28188,68.9980469 C2453.28188,68.9980469 2453.35056,68.9980469 2453.48793,68.9980469 C2453.48793,68.8606771 2453.55661,68.7919922 2453.69398,68.7919922 C2453.69398,68.7919922 2453.69398,68.7919922 2453.69398,68.7919922 C2453.83135,68.7919922 2453.90004,68.7919922 2453.90004,68.7919922 C2453.90004,68.7919922 2453.96872,68.7919922 2454.10609,68.7919922 C2454.10609,68.7919922 2454.10609,68.7919922 2454.10609,68.7919922 Z M2509.32875,80.125 C2509.32875,80.125 2509.32875,80.0563151 2509.32875,79.9189453 C2509.19138,79.9189453 2509.1227,79.8502604 2509.1227,79.7128906 C2509.1227,79.7128906 2509.1227,79.7128906 2509.1227,79.7128906 C2509.1227,79.5755208 2509.1227,79.5068359 2509.1227,79.5068359 C2509.1227,79.5068359 2509.1227,79.5068359 2509.1227,79.5068359 C2509.1227,79.5068359 2509.1227,79.5068359 2509.1227,79.5068359 C2509.1227,79.3694661 2509.19138,79.2320964 2509.32875,79.0947266 C2509.32875,78.819987 2509.39743,78.4765625 2509.5348,78.0644531 C2509.5348,77.6523438 2509.67217,77.2402344 2509.94691,76.828125 C2510.08428,76.4160156 2510.35902,75.9352214 2510.77113,75.3857422 C2510.9085,75.1110026 2511.11456,74.836263 2511.3893,74.5615234 C2511.52667,74.2867839 2511.73272,74.0120443 2512.00746,73.7373047 C2512.2822,73.4625651 2512.55694,73.1878255 2512.83168,72.9130859 C2513.24379,72.6383464 2513.58721,72.3636068 2513.86195,72.0888672 C2514.68617,71.6767578 2515.37302,71.2646484 2515.9225,70.8525391 C2516.33461,70.4404297 2516.67803,70.0283203 2516.95277,69.6162109 C2517.09014,69.3414714 2517.22751,68.9980469 2517.36488,68.5859375 C2517.50225,68.3111979 2517.57094,68.0364583 2517.57094,67.7617188 C2517.57094,67.624349 2517.57094,67.5556641 2517.57094,67.5556641 C2517.57094,67.4182943 2517.50225,67.2809245 2517.36488,67.1435547 C2517.36488,67.1435547 2517.36488,67.0748698 2517.36488,66.9375 C2517.36488,66.8001302 2517.36488,66.6627604 2517.36488,66.5253906 C2517.22751,66.3880208 2517.09014,66.250651 2516.95277,66.1132812 C2516.8154,65.8385417 2516.60935,65.632487 2516.33461,65.4951172 C2516.19724,65.3577474 2515.9225,65.2890625 2515.51039,65.2890625 C2515.23565,65.1516927 2514.82354,65.0830078 2514.27406,65.0830078 C2513.99932,65.0830078 2513.72458,65.1516927 2513.44984,65.2890625 C2513.1751,65.2890625 2512.90036,65.3577474 2512.62563,65.4951172 C2512.35089,65.632487 2512.14483,65.8385417 2512.00746,66.1132812 C2511.87009,66.3880208 2511.73272,66.6627604 2511.59535,66.9375 C2511.45798,66.9375 2511.3893,67.0061849 2511.3893,67.1435547 C2511.25193,67.2809245 2511.11456,67.3496094 2510.97719,67.3496094 C2510.83982,67.3496094 2510.70245,67.3496094 2510.56508,67.3496094 C2510.56508,67.3496094 2510.49639,67.3496094 2510.35902,67.3496094 C2510.22165,67.2122396 2510.08428,67.1435547 2509.94691,67.1435547 C2509.94691,67.0061849 2509.94691,66.8688151 2509.94691,66.7314453 C2509.80954,66.5940755 2509.74086,66.5253906 2509.74086,66.5253906 C2509.74086,66.3880208 2509.80954,66.250651 2509.94691,66.1132812 C2510.08428,65.7011719 2510.29034,65.2890625 2510.56508,64.8769531 C2510.83982,64.6022135 2511.18324,64.327474 2511.59535,64.0527344 C2512.00746,63.7779948 2512.41957,63.640625 2512.83168,63.640625 C2513.38116,63.5032552 2513.86195,63.4345703 2514.27406,63.4345703 C2515.23565,63.4345703 2516.05987,63.5032552 2516.74672,63.640625 C2517.2962,63.9153646 2517.77699,64.327474 2518.1891,64.8769531 C2518.60121,65.2890625 2518.87595,65.7698568 2519.01332,66.3193359 C2519.15069,66.7314453 2519.21938,67.2122396 2519.21938,67.7617188 C2519.21938,68.3111979 2519.15069,68.8606771 2519.01332,69.4101562 C2518.87595,69.9596354 2518.60121,70.4404297 2518.1891,70.8525391 C2517.91436,71.2646484 2517.50225,71.7454427 2516.95277,72.2949219 C2516.40329,72.7070312 2515.71645,73.1878255 2514.89223,73.7373047 C2514.34275,74.1494141 2513.79327,74.5615234 2513.24379,74.9736328 C2512.83168,75.3857422 2512.48826,75.7978516 2512.21352,76.2099609 C2511.93878,76.7594401 2511.73272,77.2402344 2511.59535,77.6523438 C2511.32061,78.0644531 2511.18324,78.4078776 2511.18324,78.6826172 C2512.00746,78.6826172 2513.03773,78.6826172 2514.27406,78.6826172 C2515.51039,78.6826172 2516.95277,78.6826172 2518.60121,78.6826172 C2518.73858,78.6826172 2518.87595,78.6826172 2519.01332,78.6826172 C2519.15069,78.6826172 2519.21938,78.7513021 2519.21938,78.8886719 C2519.35674,79.0260417 2519.42543,79.1634115 2519.42543,79.3007813 C2519.5628,79.3007813 2519.63148,79.3694661 2519.63148,79.5068359 C2519.63148,79.6442057 2519.5628,79.7815755 2519.42543,79.9189453 C2519.42543,80.0563151 2519.35674,80.125 2519.21938,80.125 C2519.21938,80.2623698 2519.15069,80.3310547 2519.01332,80.3310547 C2518.87595,80.3310547 2518.73858,80.3310547 2518.60121,80.3310547 C2517.91436,80.3310547 2517.22751,80.3310547 2516.54066,80.3310547 C2515.85382,80.3310547 2515.09828,80.3310547 2514.27406,80.3310547 C2513.58721,80.3310547 2512.90036,80.3310547 2512.21352,80.3310547 C2511.52667,80.3310547 2510.77113,80.3310547 2509.94691,80.3310547 C2509.94691,80.3310547 2509.94691,80.3310547 2509.94691,80.3310547 C2509.80954,80.3310547 2509.74086,80.3310547 2509.74086,80.3310547 C2509.60349,80.3310547 2509.5348,80.3310547 2509.5348,80.3310547 C2509.5348,80.1936849 2509.46612,80.125 2509.32875,80.125 Z" transform="translate(-2461.055)"/></svg>