<svg xmlns="http://www.w3.org/2000/svg" width="120" height="203" viewBox="0 0 120 203"><path fill="#131313" d="M2572.17543,30.9082031 C2572.17543,30.9082031 2572.17543,30.9082031 2572.17543,30.9082031 C2572.17543,30.9082031 2572.17543,30.976888 2572.17543,31.1142578 C2572.17543,59.4124349 2572.17543,101.859701 2572.17543,158.456055 C2572.17543,160.516602 2571.4199,162.302409 2569.90883,163.813477 C2568.53513,165.187174 2566.81801,165.874023 2564.75746,165.874023 C2562.69691,165.874023 2560.91111,165.187174 2559.40004,163.813477 C2557.88897,162.302409 2557.13344,160.516602 2557.13344,158.456055 C2557.13344,140.597982 2557.13344,113.673503 2557.13344,77.6826172 C2551.08917,96.2275391 2542.02276,123.976237 2529.93422,160.928711 C2529.93422,161.066081 2529.93422,161.203451 2529.93422,161.34082 C2529.79685,161.47819 2529.72816,161.61556 2529.72816,161.75293 C2529.72816,161.75293 2529.65948,161.75293 2529.52211,161.75293 C2529.52211,161.890299 2529.52211,161.958984 2529.52211,161.958984 C2529.38474,162.096354 2529.31605,162.302409 2529.31605,162.577148 C2529.17868,162.714518 2529.04132,162.851888 2528.90395,162.989258 C2528.76658,163.126628 2528.69789,163.195313 2528.69789,163.195313 C2528.69789,163.195313 2528.69789,163.195313 2528.69789,163.195313 C2528.56052,163.332682 2528.42315,163.470052 2528.28578,163.607422 C2528.14841,163.744792 2528.01104,163.882161 2527.87367,164.019531 C2527.87367,164.019531 2527.80499,164.088216 2527.66762,164.225586 C2527.66762,164.225586 2527.66762,164.225586 2527.66762,164.225586 C2527.53025,164.362956 2527.39288,164.500326 2527.25551,164.637695 C2527.11814,164.637695 2526.98077,164.70638 2526.8434,164.84375 C2526.8434,164.84375 2526.77471,164.912435 2526.63734,165.049805 C2526.63734,165.049805 2526.56866,165.049805 2526.43129,165.049805 C2526.29392,165.187174 2526.08786,165.255859 2525.81312,165.255859 C2525.67576,165.393229 2525.53839,165.461914 2525.40102,165.461914 C2525.26365,165.461914 2525.19496,165.530599 2525.19496,165.667969 C2525.19496,165.667969 2525.19496,165.667969 2525.19496,165.667969 C2525.19496,165.667969 2525.19496,165.667969 2525.19496,165.667969 C2525.19496,165.667969 2525.19496,165.667969 2525.19496,165.667969 C2525.05759,165.667969 2524.85154,165.667969 2524.5768,165.667969 C2524.43943,165.805339 2524.30206,165.874023 2524.16469,165.874023 C2524.02732,165.874023 2523.88995,165.874023 2523.75258,165.874023 C2523.75258,165.874023 2523.68389,165.874023 2523.54652,165.874023 C2523.40915,165.874023 2523.27178,165.874023 2523.13441,165.874023 C2523.13441,166.011393 2523.06573,166.080078 2522.92836,166.080078 C2522.79099,166.080078 2522.65362,166.011393 2522.51625,165.874023 C2522.37888,165.874023 2522.24151,165.874023 2522.10414,165.874023 C2522.10414,165.874023 2522.03546,165.874023 2521.89809,165.874023 C2521.89809,165.874023 2521.8294,165.874023 2521.69203,165.874023 C2521.55466,165.874023 2521.34861,165.805339 2521.07387,165.667969 C2520.9365,165.667969 2520.73044,165.667969 2520.4557,165.667969 C2520.4557,165.667969 2520.4557,165.667969 2520.4557,165.667969 C2520.4557,165.667969 2520.4557,165.667969 2520.4557,165.667969 C2520.4557,165.667969 2520.4557,165.667969 2520.4557,165.667969 C2520.4557,165.667969 2520.4557,165.599284 2520.4557,165.461914 C2520.18096,165.461914 2519.97491,165.393229 2519.83754,165.255859 C2519.70017,165.255859 2519.49411,165.187174 2519.21937,165.049805 C2519.21937,165.049805 2519.15069,164.98112 2519.01332,164.84375 C2519.01332,164.84375 2518.94464,164.84375 2518.80727,164.84375 C2518.80727,164.70638 2518.73858,164.637695 2518.60121,164.637695 C2518.46384,164.500326 2518.32647,164.362956 2518.1891,164.225586 C2518.05173,164.225586 2517.98305,164.225586 2517.98305,164.225586 C2517.98305,164.088216 2517.91436,164.019531 2517.77699,164.019531 C2517.63962,163.882161 2517.50225,163.744792 2517.36488,163.607422 C2517.22751,163.470052 2517.15883,163.332682 2517.15883,163.195313 C2517.02146,163.195313 2516.95277,163.195313 2516.95277,163.195313 C2516.95277,163.057943 2516.95277,162.989258 2516.95277,162.989258 C2516.8154,162.851888 2516.67803,162.645833 2516.54066,162.371094 C2516.40329,162.233724 2516.26592,162.096354 2516.12855,161.958984 C2516.12855,161.821615 2516.12855,161.75293 2516.12855,161.75293 C2516.12855,161.75293 2516.12855,161.684245 2516.12855,161.546875 C2515.99118,161.409505 2515.9225,161.272135 2515.9225,161.134766 C2515.78513,160.997396 2515.71645,160.860026 2515.71645,160.722656 C2509.67217,142.315104 2500.60577,114.635091 2488.51723,77.6826172 C2488.51723,95.6780599 2488.51723,122.602539 2488.51723,158.456055 C2488.51723,160.516602 2487.76169,162.302409 2486.25062,163.813477 C2484.73956,165.187174 2482.95375,165.874023 2480.8932,165.874023 C2478.97003,165.874023 2477.2529,165.187174 2475.74184,163.813477 C2474.23077,162.302409 2473.47523,160.516602 2473.47523,158.456055 C2473.47523,130.157878 2473.47523,87.710612 2473.47523,31.1142578 C2473.47523,31.1142578 2473.47523,31.0455729 2473.47523,30.9082031 C2473.47523,30.9082031 2473.47523,30.9082031 2473.47523,30.9082031 C2473.47523,30.7708333 2473.47523,30.6334635 2473.47523,30.4960938 C2473.6126,30.358724 2473.68129,30.2213542 2473.68129,30.0839844 C2473.68129,29.9466146 2473.68129,29.8092448 2473.68129,29.671875 C2473.68129,29.5345052 2473.68129,29.3971354 2473.68129,29.2597656 C2473.81866,29.2597656 2473.88734,29.1910807 2473.88734,29.0537109 C2473.88734,28.9163411 2473.88734,28.7789714 2473.88734,28.6416016 C2474.02471,28.5042318 2474.0934,28.366862 2474.0934,28.2294922 C2474.0934,28.0921224 2474.16208,28.0234375 2474.29945,28.0234375 C2474.29945,27.8860677 2474.29945,27.7486979 2474.29945,27.6113281 C2474.43682,27.4739583 2474.50551,27.4052734 2474.50551,27.4052734 C2474.64288,27.2679036 2474.71156,27.1305339 2474.71156,26.9931641 C2474.84893,26.8557943 2474.91762,26.7871094 2474.91762,26.7871094 C2475.05499,26.6497396 2475.12367,26.5123698 2475.12367,26.375 C2475.26104,26.375 2475.32973,26.3063151 2475.32973,26.1689453 C2475.4671,26.0315755 2475.60447,25.9628906 2475.74184,25.9628906 C2475.74184,25.8255208 2475.81052,25.7568359 2475.94789,25.7568359 C2475.94789,25.6194661 2476.01658,25.4820964 2476.15395,25.3447266 C2476.29132,25.3447266 2476.36,25.2760417 2476.36,25.1386719 C2476.49737,25.1386719 2476.63474,25.069987 2476.77211,24.9326172 C2476.90948,24.9326172 2476.97816,24.8639323 2476.97816,24.7265625 C2477.11553,24.7265625 2477.2529,24.6578776 2477.39027,24.5205078 C2477.52764,24.5205078 2477.59633,24.5205078 2477.59633,24.5205078 C2477.7337,24.383138 2477.87107,24.3144531 2478.00844,24.3144531 C2478.14581,24.1770833 2478.28318,24.1083984 2478.42055,24.1083984 C2478.42055,24.1083984 2478.42055,24.1083984 2478.42055,24.1083984 C2478.55792,24.1083984 2478.6266,24.0397135 2478.6266,23.9023438 C2478.76397,23.9023438 2478.83266,23.9023438 2478.83266,23.9023438 C2478.83266,23.9023438 2478.90134,23.9023438 2479.03871,23.9023438 C2479.17608,23.9023438 2479.31345,23.9023438 2479.45082,23.9023438 C2479.58819,23.764974 2479.72556,23.6962891 2479.86293,23.6962891 C2480.0003,23.6962891 2480.13767,23.6962891 2480.27504,23.6962891 C2480.41241,23.6962891 2480.48109,23.6962891 2480.48109,23.6962891 C2480.61846,23.6962891 2480.68715,23.6962891 2480.68715,23.6962891 C2480.82452,23.6962891 2480.8932,23.6962891 2480.8932,23.6962891 C2481.03057,23.6962891 2481.09926,23.6962891 2481.09926,23.6962891 C2481.09926,23.6962891 2481.16794,23.6962891 2481.30531,23.6962891 C2481.44268,23.6962891 2481.58005,23.6962891 2481.71742,23.6962891 C2481.85479,23.6962891 2481.99216,23.6962891 2482.12953,23.6962891 C2482.12953,23.6962891 2482.19822,23.6962891 2482.33559,23.6962891 C2482.47296,23.8336589 2482.61033,23.9023438 2482.7477,23.9023438 C2482.88507,23.9023438 2483.02243,23.9023438 2483.1598,23.9023438 C2483.1598,23.9023438 2483.22849,23.9710286 2483.36586,24.1083984 C2483.50323,24.1083984 2483.6406,24.1083984 2483.77797,24.1083984 C2483.91534,24.2457682 2484.05271,24.3144531 2484.19008,24.3144531 C2484.19008,24.4518229 2484.25876,24.5205078 2484.39613,24.5205078 C2484.5335,24.5205078 2484.67087,24.5891927 2484.80824,24.7265625 C2484.80824,24.7265625 2484.87693,24.7952474 2485.0143,24.9326172 C2485.15167,24.9326172 2485.28904,25.0013021 2485.42641,25.1386719 C2485.42641,25.1386719 2485.49509,25.2073568 2485.63246,25.3447266 C2485.76983,25.3447266 2485.83852,25.4134115 2485.83852,25.5507812 C2485.97589,25.5507812 2486.11326,25.6194661 2486.25062,25.7568359 C2486.25062,25.8942057 2486.31931,25.9628906 2486.45668,25.9628906 C2486.45668,26.1002604 2486.52536,26.1689453 2486.66273,26.1689453 C2486.8001,26.3063151 2486.86879,26.4436849 2486.86879,26.5810547 C2487.00616,26.7184245 2487.07484,26.7871094 2487.07484,26.7871094 C2487.21221,26.9244792 2487.2809,27.061849 2487.2809,27.1992187 C2487.41827,27.1992187 2487.48695,27.2679036 2487.48695,27.4052734 C2487.48695,27.5426432 2487.55564,27.680013 2487.69301,27.8173828 C2487.69301,27.9547526 2487.76169,28.0234375 2487.89906,28.0234375 C2487.89906,28.1608073 2487.89906,28.2981771 2487.89906,28.4355469 C2487.89906,28.5729167 2487.96775,28.6416016 2488.10512,28.6416016 C2488.10512,28.6416016 2488.10512,28.6416016 2488.10512,28.6416016 C2495.79783,52.2692057 2507.40557,87.5732422 2522.92836,134.553711 C2530.62107,111.063477 2542.16013,75.828125 2557.54555,28.8476562 C2557.54555,28.7102865 2557.61423,28.6416016 2557.7516,28.6416016 C2557.7516,28.6416016 2557.7516,28.5729167 2557.7516,28.4355469 C2557.7516,28.2981771 2557.82029,28.1608073 2557.95766,28.0234375 C2557.95766,28.0234375 2557.95766,27.9547526 2557.95766,27.8173828 C2558.09503,27.680013 2558.16371,27.5426432 2558.16371,27.4052734 C2558.30108,27.2679036 2558.36977,27.1992187 2558.36977,27.1992187 C2558.50714,27.061849 2558.57582,26.9244792 2558.57582,26.7871094 C2558.71319,26.6497396 2558.78187,26.5810547 2558.78187,26.5810547 C2558.91924,26.4436849 2558.98793,26.3063151 2558.98793,26.1689453 C2559.1253,26.0315755 2559.19398,25.9628906 2559.19398,25.9628906 C2559.33135,25.8255208 2559.46872,25.7568359 2559.60609,25.7568359 C2559.60609,25.6194661 2559.67478,25.5507812 2559.81215,25.5507812 C2559.81215,25.4134115 2559.88083,25.2760417 2560.0182,25.1386719 C2560.15557,25.1386719 2560.29294,25.069987 2560.43031,24.9326172 C2560.43031,24.9326172 2560.499,24.8639323 2560.63637,24.7265625 C2560.77374,24.7265625 2560.91111,24.6578776 2561.04848,24.5205078 C2561.04848,24.5205078 2561.11716,24.5205078 2561.25453,24.5205078 C2561.3919,24.383138 2561.52927,24.3144531 2561.66664,24.3144531 C2561.66664,24.1770833 2561.73533,24.1083984 2561.8727,24.1083984 C2562.01007,24.1083984 2562.14743,24.0397135 2562.2848,23.9023438 C2562.42217,23.9023438 2562.55954,23.9023438 2562.69691,23.9023438 C2562.69691,23.9023438 2562.7656,23.8336589 2562.90297,23.6962891 C2563.04034,23.6962891 2563.17771,23.6962891 2563.31508,23.6962891 C2563.45245,23.6962891 2563.58982,23.6962891 2563.72719,23.6962891 C2563.86456,23.6962891 2564.00193,23.6962891 2564.1393,23.6962891 C2564.1393,23.5589193 2564.20798,23.4902344 2564.34535,23.4902344 C2564.48272,23.4902344 2564.55141,23.4902344 2564.55141,23.4902344 C2564.68878,23.4902344 2564.75746,23.4902344 2564.75746,23.4902344 C2564.75746,23.4902344 2564.82615,23.4902344 2564.96352,23.4902344 C2564.96352,23.6276042 2565.0322,23.6962891 2565.16957,23.6962891 C2565.30694,23.6962891 2565.44431,23.6962891 2565.58168,23.6962891 C2565.71905,23.6962891 2565.85642,23.6962891 2565.99379,23.6962891 C2566.13116,23.6962891 2566.19984,23.6962891 2566.19984,23.6962891 C2566.33721,23.8336589 2566.47458,23.9023438 2566.61195,23.9023438 C2566.74932,23.9023438 2566.81801,23.9023438 2566.81801,23.9023438 C2566.95538,23.9023438 2567.02406,23.9023438 2567.02406,23.9023438 C2567.02406,23.9023438 2567.09275,23.9023438 2567.23012,23.9023438 C2567.23012,24.0397135 2567.23012,24.1083984 2567.23012,24.1083984 C2567.36749,24.1083984 2567.50486,24.1083984 2567.64223,24.1083984 C2567.7796,24.2457682 2567.91697,24.3144531 2568.05434,24.3144531 C2568.19171,24.4518229 2568.32908,24.5205078 2568.46645,24.5205078 C2568.46645,24.5205078 2568.53513,24.5891927 2568.6725,24.7265625 C2568.80987,24.7265625 2568.87855,24.7952474 2568.87855,24.9326172 C2569.01592,24.9326172 2569.15329,25.0013021 2569.29066,25.1386719 C2569.42803,25.2760417 2569.49672,25.3447266 2569.49672,25.3447266 C2569.63409,25.4820964 2569.77146,25.5507812 2569.90883,25.5507812 C2569.90883,25.688151 2569.97751,25.7568359 2570.11488,25.7568359 C2570.11488,25.8942057 2570.18357,26.0315755 2570.32094,26.1689453 C2570.45831,26.1689453 2570.52699,26.2376302 2570.52699,26.375 C2570.66436,26.5123698 2570.73305,26.5810547 2570.73305,26.5810547 C2570.87042,26.7184245 2570.9391,26.8557943 2570.9391,26.9931641 C2571.07647,27.1305339 2571.14516,27.1992187 2571.14516,27.1992187 C2571.14516,27.3365885 2571.21384,27.4739583 2571.35121,27.6113281 C2571.35121,27.7486979 2571.4199,27.8860677 2571.55727,28.0234375 C2571.55727,28.0234375 2571.55727,28.0921224 2571.55727,28.2294922 C2571.69464,28.366862 2571.76332,28.5042318 2571.76332,28.6416016 C2571.76332,28.7789714 2571.76332,28.9163411 2571.76332,29.0537109 C2571.90069,29.0537109 2571.96937,29.1223958 2571.96937,29.2597656 C2571.96937,29.3971354 2571.96937,29.5345052 2571.96937,29.671875 C2571.96937,29.8092448 2572.03806,29.9466146 2572.17543,30.0839844 C2572.17543,30.2213542 2572.17543,30.358724 2572.17543,30.4960938 C2572.17543,30.6334635 2572.17543,30.7708333 2572.17543,30.9082031 Z M2547.86098,147.123047 C2548.27309,147.123047 2548.95993,147.123047 2549.92152,147.123047 C2549.92152,141.078776 2549.92152,132.081055 2549.92152,120.129883 C2549.50941,120.129883 2548.82257,120.129883 2547.86098,120.129883 C2547.86098,126.174154 2547.86098,135.171875 2547.86098,147.123047 Z M2548.89125,158.456055 C2549.5781,155.983398 2550.60837,152.205729 2551.98207,147.123047 C2551.56996,147.123047 2550.88311,147.123047 2549.92152,147.123047 C2549.92152,147.535156 2549.92152,148.222005 2549.92152,149.183594 C2549.50941,149.183594 2548.82257,149.183594 2547.86098,149.183594 C2547.86098,148.771484 2547.86098,148.084635 2547.86098,147.123047 C2547.3115,147.123047 2546.62465,147.123047 2545.80043,147.123047 C2546.48728,149.595703 2547.51755,153.373372 2548.89125,158.456055 Z M2547.86098,149.183594 C2548.27309,149.183594 2548.95993,149.183594 2549.92152,149.183594 C2549.92152,148.771484 2549.92152,148.084635 2549.92152,147.123047 C2549.50941,147.123047 2548.82257,147.123047 2547.86098,147.123047 C2547.86098,147.535156 2547.86098,148.222005 2547.86098,149.183594 Z M2499.02602,34.8232422 C2499.16339,34.6858724 2499.30076,34.6171875 2499.43812,34.6171875 C2499.71286,34.6171875 2499.91892,34.6171875 2500.05629,34.6171875 C2500.19366,34.4798177 2500.33103,34.4111328 2500.4684,34.4111328 C2500.60577,34.273763 2500.81182,34.1363932 2501.08656,33.9990234 C2506.03187,49.2470703 2513.51853,72.0504557 2523.54652,102.40918 C2524.64548,98.8375651 2526.43129,93.3427734 2528.90395,85.9248047 C2529.31605,86.1995443 2530.0029,86.4742839 2530.96449,86.7490234 C2529.31605,91.6943359 2526.8434,99.1809896 2523.54652,109.208984 C2519.42543,96.8457031 2515.30434,84.413737 2511.18324,71.9130859 C2507.06215,59.5498047 2503.00974,47.1865234 2499.02602,34.8232422 Z M2494.0807,31.1142578 C2494.0807,31.1142578 2494.0807,31.1142578 2494.0807,31.1142578 C2494.21807,31.1142578 2494.28676,31.1829427 2494.28676,31.3203125 C2494.28676,31.1829427 2494.21807,31.1142578 2494.0807,31.1142578 C2494.0807,31.1142578 2494.0807,31.1142578 2494.0807,31.1142578 Z M2494.49281,32.3505859 C2494.49281,32.2132161 2494.49281,32.1445312 2494.49281,32.1445312 C2494.49281,32.1445312 2494.49281,32.1445312 2494.49281,32.1445312 C2494.49281,32.1445312 2494.49281,32.1445312 2494.49281,32.1445312 C2494.49281,32.1445312 2494.49281,32.2132161 2494.49281,32.3505859 Z M2494.28676,31.3203125 C2494.28676,31.3203125 2494.28676,31.3889974 2494.28676,31.5263672 C2494.28676,31.5263672 2494.28676,31.5950521 2494.28676,31.7324219 C2494.28676,31.5950521 2494.28676,31.5263672 2494.28676,31.5263672 C2494.28676,31.3889974 2494.28676,31.3203125 2494.28676,31.3203125 Z M2494.49281,32.1445312 C2494.49281,32.0071615 2494.49281,31.9384766 2494.49281,31.9384766 C2494.35544,31.8011068 2494.28676,31.7324219 2494.28676,31.7324219 C2494.28676,31.7324219 2494.35544,31.8011068 2494.49281,31.9384766 C2494.49281,31.9384766 2494.49281,32.0071615 2494.49281,32.1445312 Z M2499.02602,34.8232422 C2497.92706,34.8232422 2496.96547,34.5485026 2496.14125,33.9990234 C2495.31703,33.4495443 2494.69887,32.6940104 2494.28676,31.7324219 C2493.87465,30.4960938 2493.94333,29.3284505 2494.49281,28.2294922 C2495.17966,27.1305339 2496.07257,26.375 2497.17152,25.9628906 C2498.40785,25.5507813 2499.57549,25.6194661 2500.67445,26.1689453 C2501.77341,26.8557943 2502.52895,27.7486979 2502.94105,28.8476563 C2503.21579,29.8092448 2503.14711,30.7708333 2502.735,31.7324219 C2502.46026,32.8313802 2501.91078,33.5869141 2501.08656,33.9990234 C2500.94919,33.9990234 2500.88051,33.8616536 2500.88051,33.5869141 C2501.56736,33.0374349 2502.04815,32.3505859 2502.32289,31.5263672 C2502.59763,30.7021484 2502.59763,29.8779297 2502.32289,29.0537109 C2502.04815,27.9547526 2501.42999,27.1992188 2500.4684,26.7871094 C2499.50681,26.2376302 2498.47654,26.1689453 2497.37758,26.5810547 C2496.27862,26.8557943 2495.52309,27.4739583 2495.11098,28.4355469 C2494.5615,29.3971354 2494.49281,30.4274089 2494.90492,31.5263672 C2495.17966,32.3505859 2495.66046,33.0374349 2496.3473,33.5869141 C2497.17152,33.9990234 2497.99574,34.2050781 2498.81996,34.2050781 C2498.81996,34.3424479 2498.81996,34.4111328 2498.81996,34.4111328 C2498.95733,34.5485026 2499.02602,34.6858724 2499.02602,34.8232422 Z M2499.85023,33.9990234 C2499.9876,33.9990234 2500.12497,33.9303385 2500.26234,33.7929688 C2500.53708,33.7929688 2500.74314,33.7242839 2500.88051,33.5869141 C2500.88051,33.7242839 2500.88051,33.8616536 2500.88051,33.9990234 C2500.74314,34.1363932 2500.60577,34.273763 2500.4684,34.4111328 C2500.33103,34.4111328 2500.19366,34.4798177 2500.05629,34.6171875 C2499.78155,34.6171875 2499.57549,34.6171875 2499.43812,34.6171875 C2499.30076,34.7545573 2499.16339,34.8232422 2499.02602,34.8232422 C2498.88865,34.6858724 2498.81996,34.4798177 2498.81996,34.2050781 C2498.95733,34.2050781 2499.0947,34.2050781 2499.23207,34.2050781 C2499.50681,34.2050781 2499.71286,34.1363932 2499.85023,33.9990234 Z M2495.31703,31.3203125 C2495.59177,32.0071615 2496.00388,32.5566406 2496.55336,32.96875 C2497.24021,33.3808594 2497.92706,33.5869141 2498.61391,33.5869141 C2498.61391,33.7242839 2498.68259,33.9303385 2498.81996,34.2050781 C2497.99574,34.2050781 2497.17152,33.9990234 2496.3473,33.5869141 C2495.66046,33.0374349 2495.17966,32.3505859 2494.90492,31.5263672 C2494.49281,30.4274089 2494.5615,29.3971354 2495.11098,28.4355469 C2495.66046,27.4739583 2496.41599,26.8557943 2497.37758,26.5810547 C2498.47654,26.1689453 2499.50681,26.2376302 2500.4684,26.7871094 C2501.42999,27.1992188 2502.04815,27.9547526 2502.32289,29.0537109 C2502.59763,29.8779297 2502.59763,30.7021484 2502.32289,31.5263672 C2502.04815,32.3505859 2501.56736,33.0374349 2500.88051,33.5869141 C2500.74314,33.4495443 2500.67445,33.2434896 2500.67445,32.96875 C2501.22393,32.5566406 2501.63604,32.0071615 2501.91078,31.3203125 C2502.18552,30.6334635 2502.18552,29.9466146 2501.91078,29.2597656 C2501.91078,29.2597656 2501.91078,29.2597656 2501.91078,29.2597656 C2501.91078,29.2597656 2501.91078,29.3284505 2501.91078,29.4658203 C2501.91078,29.4658203 2501.91078,29.3971354 2501.91078,29.2597656 C2501.91078,29.2597656 2501.91078,29.2597656 2501.91078,29.2597656 C2501.63604,28.2981771 2501.08656,27.6113281 2500.26234,27.1992188 C2499.30076,26.7871094 2498.40785,26.7184245 2497.58363,26.9931641 C2496.62204,27.2679036 2495.9352,27.8173828 2495.52309,28.6416016 C2495.11098,29.6031901 2495.04229,30.4960938 2495.31703,31.3203125 Z M2500.88051,33.5869141 C2500.74314,33.7242839 2500.53708,33.7929688 2500.26234,33.7929688 C2500.12497,33.9303385 2499.9876,33.9990234 2499.85023,33.9990234 C2499.71286,34.1363932 2499.57549,34.2050781 2499.43812,34.2050781 C2499.16339,34.2050781 2498.95733,34.2050781 2498.81996,34.2050781 C2498.81996,34.0677083 2498.75128,33.8616536 2498.61391,33.5869141 C2498.75128,33.5869141 2498.95733,33.5869141 2499.23207,33.5869141 C2499.36944,33.5869141 2499.50681,33.5869141 2499.64418,33.5869141 C2499.91892,33.4495443 2500.12497,33.3808594 2500.26234,33.3808594 C2500.39971,33.2434896 2500.53708,33.1061198 2500.67445,32.96875 C2500.67445,33.1061198 2500.67445,33.2434896 2500.67445,33.3808594 C2500.67445,33.3808594 2500.74314,33.4495443 2500.88051,33.5869141 Z M2529.52211,84.0703125 C2529.38474,84.4824219 2529.17868,85.1005859 2528.90395,85.9248047 C2528.49184,85.7874349 2527.80499,85.5813802 2526.8434,85.3066406 C2528.35447,83.108724 2530.55238,79.811849 2533.43715,75.4160156 C2533.29978,78.0260417 2533.09372,82.0097656 2532.81898,87.3671875 C2532.40687,87.2298177 2531.78871,87.023763 2530.96449,86.7490234 C2531.10186,86.1995443 2531.30792,85.5126953 2531.58266,84.6884766 C2531.03318,84.5511068 2530.34633,84.3450521 2529.52211,84.0703125 Z M2528.90395,85.9248047 C2529.04132,85.5126953 2529.24737,84.8945312 2529.52211,84.0703125 C2529.93422,84.2076823 2530.62107,84.413737 2531.58266,84.6884766 C2531.44529,85.1005859 2531.17055,85.7874349 2530.75844,86.7490234 C2530.34633,86.6116536 2529.72816,86.3369141 2528.90395,85.9248047 Z M2466.26332,39.9746094 C2466.26332,46.0188802 2466.26332,55.0166016 2466.26332,66.9677734 C2465.71384,66.9677734 2464.95831,66.9677734 2463.99672,66.9677734 C2463.99672,60.9235026 2463.99672,51.9257812 2463.99672,39.9746094 C2464.27146,39.9746094 2464.47751,39.9746094 2464.61488,39.9746094 C2464.75225,40.1119792 2464.95831,40.1806641 2465.23305,40.1806641 C2465.37042,40.1806641 2465.50779,40.1119792 2465.64516,39.9746094 C2465.78253,39.9746094 2465.98858,39.9746094 2466.26332,39.9746094 Z M2466.26332,66.9677734 C2466.26332,67.3798828 2466.26332,68.0667318 2466.26332,69.0283203 C2465.71384,69.0283203 2464.95831,69.0283203 2463.99672,69.0283203 C2463.99672,68.6162109 2463.99672,67.929362 2463.99672,66.9677734 C2463.58461,66.9677734 2462.96645,66.9677734 2462.14223,66.9677734 C2462.82908,69.4404297 2463.85935,73.218099 2465.23305,78.3007812 C2465.78253,75.828125 2466.74411,72.0504557 2468.11781,66.9677734 C2467.7057,66.9677734 2467.08754,66.9677734 2466.26332,66.9677734 Z M2463.99672,69.0283203 C2464.5462,69.0283203 2465.30173,69.0283203 2466.26332,69.0283203 C2466.26332,68.6162109 2466.26332,67.929362 2466.26332,66.9677734 C2465.71384,66.9677734 2464.95831,66.9677734 2463.99672,66.9677734 C2463.99672,67.3798828 2463.99672,68.0667318 2463.99672,69.0283203 Z M2461.11195,35.6474609 C2461.11195,36.4716797 2461.38669,37.2958984 2461.93617,38.1201172 C2462.48565,38.8069661 2463.1725,39.2190755 2463.99672,39.3564453 C2463.99672,39.4938151 2463.99672,39.6998698 2463.99672,39.9746094 C2463.03513,39.6998698 2462.21091,39.1503906 2461.52406,38.3261719 C2460.97458,37.5019531 2460.69984,36.6090495 2460.69984,35.6474609 C2460.69984,34.4111328 2461.11195,33.3121745 2461.93617,32.3505859 C2462.89776,31.5263672 2463.99672,31.1142578 2465.23305,31.1142578 C2466.46937,31.1142578 2467.49965,31.5263672 2468.32387,32.3505859 C2469.14809,33.3121745 2469.5602,34.4111328 2469.5602,35.6474609 C2469.5602,36.6090495 2469.28546,37.5019531 2468.73598,38.3261719 C2468.04913,39.1503906 2467.22491,39.6998698 2466.26332,39.9746094 C2466.26332,39.8372396 2466.26332,39.6311849 2466.26332,39.3564453 C2467.08754,39.2190755 2467.77439,38.7382812 2468.32387,37.9140625 C2468.87335,37.2272135 2469.14809,36.4716797 2469.14809,35.6474609 C2469.14809,34.5485026 2468.73598,33.5869141 2467.91176,32.7626953 C2467.22491,32.0758464 2466.33201,31.7324219 2465.23305,31.7324219 C2464.13409,31.7324219 2463.1725,32.0758464 2462.34828,32.7626953 C2461.52406,33.5869141 2461.11195,34.5485026 2461.11195,35.6474609 Z M2466.26332,39.9746094 C2465.98858,39.9746094 2465.78253,39.9746094 2465.64516,39.9746094 C2465.50779,40.1119792 2465.37042,40.1806641 2465.23305,40.1806641 C2464.95831,40.1806641 2464.75225,40.1806641 2464.61488,40.1806641 C2464.47751,40.0432943 2464.27146,39.9746094 2463.99672,39.9746094 C2463.99672,39.8372396 2463.99672,39.6311849 2463.99672,39.3564453 C2464.27146,39.4938151 2464.47751,39.5625 2464.61488,39.5625 C2464.75225,39.5625 2464.95831,39.5625 2465.23305,39.5625 C2465.37042,39.5625 2465.50779,39.5625 2465.64516,39.5625 C2465.78253,39.5625 2465.98858,39.4938151 2466.26332,39.3564453 C2466.26332,39.4938151 2466.26332,39.6311849 2466.26332,39.7685547 C2466.26332,39.7685547 2466.26332,39.8372396 2466.26332,39.9746094 Z M2469.14809,35.6474609 C2469.14809,36.4716797 2468.87335,37.2958984 2468.32387,38.1201172 C2467.77439,38.8069661 2467.08754,39.2190755 2466.26332,39.3564453 C2466.26332,39.2190755 2466.26332,39.0817057 2466.26332,38.9443359 C2466.95017,38.6695964 2467.49965,38.257487 2467.91176,37.7080078 C2468.32387,37.0211589 2468.52992,36.3343099 2468.52992,35.6474609 C2468.52992,34.6858724 2468.1865,33.8616536 2467.49965,33.1748047 C2466.8128,32.4879557 2466.05727,32.1445312 2465.23305,32.1445312 C2464.27146,32.1445312 2463.44724,32.4879557 2462.76039,33.1748047 C2462.07354,33.8616536 2461.73012,34.6858724 2461.73012,35.6474609 C2461.73012,35.5100911 2461.73012,35.3727214 2461.73012,35.2353516 C2461.73012,35.0979818 2461.73012,35.0292969 2461.73012,35.0292969 C2461.73012,35.0292969 2461.73012,35.0979818 2461.73012,35.2353516 C2461.73012,35.3727214 2461.73012,35.5100911 2461.73012,35.6474609 C2461.73012,35.7848307 2461.73012,35.9222005 2461.73012,36.0595703 C2461.73012,36.0595703 2461.73012,36.0595703 2461.73012,36.0595703 C2461.73012,36.0595703 2461.73012,36.0595703 2461.73012,36.0595703 C2461.73012,35.9222005 2461.73012,35.7848307 2461.73012,35.6474609 C2461.73012,36.3343099 2461.93617,37.0211589 2462.34828,37.7080078 C2462.76039,38.257487 2463.30987,38.6695964 2463.99672,38.9443359 C2463.99672,38.9443359 2463.99672,39.0817057 2463.99672,39.3564453 C2463.1725,39.2190755 2462.48565,38.7382812 2461.93617,37.9140625 C2461.38669,37.2272135 2461.11195,36.4716797 2461.11195,35.6474609 C2461.11195,34.5485026 2461.52406,33.5869141 2462.34828,32.7626953 C2463.1725,32.0758464 2464.13409,31.7324219 2465.23305,31.7324219 C2466.33201,31.7324219 2467.22491,32.0758464 2467.91176,32.7626953 C2468.73598,33.5869141 2469.14809,34.5485026 2469.14809,35.6474609 Z M2465.23305,39.1503906 C2465.37042,39.1503906 2465.50779,39.0817057 2465.64516,38.9443359 C2465.78253,38.9443359 2465.98858,38.9443359 2466.26332,38.9443359 C2466.26332,38.9443359 2466.26332,39.0817057 2466.26332,39.3564453 C2465.98858,39.4938151 2465.78253,39.5625 2465.64516,39.5625 C2465.50779,39.5625 2465.37042,39.5625 2465.23305,39.5625 C2464.95831,39.5625 2464.75225,39.5625 2464.61488,39.5625 C2464.47751,39.5625 2464.27146,39.4938151 2463.99672,39.3564453 C2463.99672,39.2190755 2463.99672,39.0817057 2463.99672,38.9443359 C2464.27146,38.9443359 2464.47751,38.9443359 2464.61488,38.9443359 C2464.75225,39.0817057 2464.95831,39.1503906 2465.23305,39.1503906 Z M2454.10609,31.5263672 C2454.24346,31.663737 2454.31215,31.7324219 2454.31215,31.7324219 C2454.44952,31.8697917 2454.5182,31.9384766 2454.5182,31.9384766 C2454.65557,32.0758464 2454.72426,32.1445312 2454.72426,32.1445312 C2454.72426,32.281901 2454.72426,32.4192708 2454.72426,32.5566406 C2454.72426,34.2050781 2454.72426,36.265625 2454.72426,38.7382812 C2454.72426,41.3483073 2454.72426,44.3704427 2454.72426,47.8046875 C2454.72426,47.9420573 2454.72426,48.0107422 2454.72426,48.0107422 C2454.58689,48.148112 2454.5182,48.2854818 2454.5182,48.4228516 C2454.38083,48.4228516 2454.24346,48.4915365 2454.10609,48.6289062 C2453.96872,48.6289062 2453.90004,48.6289062 2453.90004,48.6289062 C2453.76267,48.6289062 2453.6253,48.6289062 2453.48793,48.6289062 C2453.35056,48.4915365 2453.28187,48.4228516 2453.28187,48.4228516 C2453.14451,48.2854818 2453.07582,48.148112 2453.07582,48.0107422 C2452.93845,48.0107422 2452.86977,47.9420573 2452.86977,47.8046875 C2452.86977,46.2936198 2452.86977,44.4391276 2452.86977,42.2412109 C2452.86977,40.0432943 2452.86977,37.5019531 2452.86977,34.6171875 C2452.86977,34.7545573 2452.80108,34.8232422 2452.66371,34.8232422 C2452.52634,34.960612 2452.38897,35.0979818 2452.2516,35.2353516 C2452.2516,35.3727214 2452.18292,35.4414062 2452.04555,35.4414062 C2451.90818,35.4414062 2451.77081,35.4414062 2451.63344,35.4414062 C2451.49607,35.4414062 2451.42738,35.4414062 2451.42738,35.4414062 C2451.29001,35.4414062 2451.15264,35.3727214 2451.01527,35.2353516 C2451.01527,35.0979818 2450.94659,35.0292969 2450.80922,35.0292969 C2450.80922,34.8919271 2450.80922,34.7545573 2450.80922,34.6171875 C2450.80922,34.4798177 2450.80922,34.3424479 2450.80922,34.2050781 C2450.94659,34.2050781 2451.01527,34.1363932 2451.01527,33.9990234 C2451.29001,33.7242839 2451.63344,33.4495443 2452.04555,33.1748047 C2452.32029,32.7626953 2452.7324,32.281901 2453.28187,31.7324219 C2453.28187,31.7324219 2453.35056,31.7324219 2453.48793,31.7324219 C2453.48793,31.5950521 2453.55661,31.5263672 2453.69398,31.5263672 C2453.69398,31.5263672 2453.69398,31.5263672 2453.69398,31.5263672 C2453.83135,31.5263672 2453.90004,31.5263672 2453.90004,31.5263672 C2453.90004,31.5263672 2453.96872,31.5263672 2454.10609,31.5263672 C2454.10609,31.5263672 2454.10609,31.5263672 2454.10609,31.5263672 Z M2509.32875,42.859375 C2509.32875,42.859375 2509.32875,42.7906901 2509.32875,42.6533203 C2509.19138,42.6533203 2509.1227,42.5846354 2509.1227,42.4472656 C2509.1227,42.4472656 2509.1227,42.4472656 2509.1227,42.4472656 C2509.1227,42.3098958 2509.1227,42.2412109 2509.1227,42.2412109 C2509.1227,42.2412109 2509.1227,42.2412109 2509.1227,42.2412109 C2509.1227,42.2412109 2509.1227,42.2412109 2509.1227,42.2412109 C2509.1227,42.1038411 2509.19138,41.9664714 2509.32875,41.8291016 C2509.32875,41.554362 2509.39743,41.2109375 2509.5348,40.7988281 C2509.5348,40.3867187 2509.67217,39.9746094 2509.94691,39.5625 C2510.08428,39.1503906 2510.35902,38.6695964 2510.77113,38.1201172 C2510.9085,37.8453776 2511.11456,37.570638 2511.3893,37.2958984 C2511.52667,37.0211589 2511.73272,36.7464193 2512.00746,36.4716797 C2512.2822,36.1969401 2512.55694,35.9222005 2512.83168,35.6474609 C2513.24379,35.3727214 2513.58721,35.0979818 2513.86195,34.8232422 C2514.68617,34.4111328 2515.37302,33.9990234 2515.9225,33.5869141 C2516.33461,33.1748047 2516.67803,32.7626953 2516.95277,32.3505859 C2517.09014,32.0758464 2517.22751,31.7324219 2517.36488,31.3203125 C2517.50225,31.0455729 2517.57094,30.7708333 2517.57094,30.4960938 C2517.57094,30.358724 2517.57094,30.2900391 2517.57094,30.2900391 C2517.57094,30.1526693 2517.50225,30.0152995 2517.36488,29.8779297 C2517.36488,29.8779297 2517.36488,29.8092448 2517.36488,29.671875 C2517.36488,29.5345052 2517.36488,29.3971354 2517.36488,29.2597656 C2517.22751,29.1223958 2517.09014,28.985026 2516.95277,28.8476563 C2516.8154,28.5729167 2516.60935,28.366862 2516.33461,28.2294922 C2516.19724,28.0921224 2515.9225,28.0234375 2515.51039,28.0234375 C2515.23565,27.8860677 2514.82354,27.8173828 2514.27406,27.8173828 C2513.99932,27.8173828 2513.72458,27.8860677 2513.44984,28.0234375 C2513.1751,28.0234375 2512.90036,28.0921224 2512.62562,28.2294922 C2512.35089,28.366862 2512.14483,28.5729167 2512.00746,28.8476563 C2511.87009,29.1223958 2511.73272,29.3971354 2511.59535,29.671875 C2511.45798,29.671875 2511.3893,29.7405599 2511.3893,29.8779297 C2511.25193,30.0152995 2511.11456,30.0839844 2510.97719,30.0839844 C2510.83982,30.0839844 2510.70245,30.0839844 2510.56508,30.0839844 C2510.56508,30.0839844 2510.49639,30.0839844 2510.35902,30.0839844 C2510.22165,29.9466146 2510.08428,29.8779297 2509.94691,29.8779297 C2509.94691,29.7405599 2509.94691,29.6031901 2509.94691,29.4658203 C2509.80954,29.3284505 2509.74086,29.2597656 2509.74086,29.2597656 C2509.74086,29.1223958 2509.80954,28.985026 2509.94691,28.8476563 C2510.08428,28.4355469 2510.29034,28.0234375 2510.56508,27.6113281 C2510.83982,27.3365885 2511.18324,27.061849 2511.59535,26.7871094 C2512.00746,26.5123698 2512.41957,26.375 2512.83168,26.375 C2513.38116,26.2376302 2513.86195,26.1689453 2514.27406,26.1689453 C2515.23565,26.1689453 2516.05987,26.2376302 2516.74672,26.375 C2517.2962,26.6497396 2517.77699,27.061849 2518.1891,27.6113281 C2518.60121,28.0234375 2518.87595,28.5042318 2519.01332,29.0537109 C2519.15069,29.4658203 2519.21937,29.9466146 2519.21937,30.4960938 C2519.21937,31.0455729 2519.15069,31.5950521 2519.01332,32.1445312 C2518.87595,32.6940104 2518.60121,33.1748047 2518.1891,33.5869141 C2517.91436,33.9990234 2517.50225,34.4798177 2516.95277,35.0292969 C2516.40329,35.4414062 2515.71645,35.9222005 2514.89223,36.4716797 C2514.34275,36.8837891 2513.79327,37.2958984 2513.24379,37.7080078 C2512.83168,38.1201172 2512.48826,38.5322266 2512.21352,38.9443359 C2511.93878,39.4938151 2511.73272,39.9746094 2511.59535,40.3867187 C2511.32061,40.7988281 2511.18324,41.1422526 2511.18324,41.4169922 C2512.00746,41.4169922 2513.03773,41.4169922 2514.27406,41.4169922 C2515.51039,41.4169922 2516.95277,41.4169922 2518.60121,41.4169922 C2518.73858,41.4169922 2518.87595,41.4169922 2519.01332,41.4169922 C2519.15069,41.4169922 2519.21937,41.4856771 2519.21937,41.6230469 C2519.35674,41.7604167 2519.42543,41.8977865 2519.42543,42.0351563 C2519.5628,42.0351563 2519.63148,42.1038411 2519.63148,42.2412109 C2519.63148,42.3785807 2519.5628,42.5159505 2519.42543,42.6533203 C2519.42543,42.7906901 2519.35674,42.859375 2519.21937,42.859375 C2519.21937,42.9967448 2519.15069,43.0654297 2519.01332,43.0654297 C2518.87595,43.0654297 2518.73858,43.0654297 2518.60121,43.0654297 C2517.91436,43.0654297 2517.22751,43.0654297 2516.54066,43.0654297 C2515.85382,43.0654297 2515.09828,43.0654297 2514.27406,43.0654297 C2513.58721,43.0654297 2512.90036,43.0654297 2512.21352,43.0654297 C2511.52667,43.0654297 2510.77113,43.0654297 2509.94691,43.0654297 C2509.94691,43.0654297 2509.94691,43.0654297 2509.94691,43.0654297 C2509.80954,43.0654297 2509.74086,43.0654297 2509.74086,43.0654297 C2509.60349,43.0654297 2509.5348,43.0654297 2509.5348,43.0654297 C2509.5348,42.9280599 2509.46612,42.859375 2509.32875,42.859375 Z" transform="translate(-2461.055 -23.734)"/></svg>