<svg xmlns="http://www.w3.org/2000/svg" width="121" height="243" viewBox="0 0 121 243"><path fill="#131313" d="M101.425781,80 C108.613281,80 114.228516,82.4707031 118.271484,87.4121094 C122.464193,92.3535156 124.560547,99.0917969 124.560547,107.626953 C124.560547,118.707682 124.560547,135.328776 124.560547,157.490234 C124.560547,159.736328 123.736979,161.682943 122.089844,163.330078 C120.592448,164.827474 118.720703,165.576172 116.474609,165.576172 C114.228516,165.576172 112.281901,164.827474 110.634766,163.330078 C108.98763,161.682943 108.164062,159.736328 108.164062,157.490234 C108.164062,146.409505 108.164062,129.788411 108.164062,107.626953 C108.164062,101.936849 107.340495,98.6425781 105.693359,97.7441406 C103.896484,96.6959635 102.473958,96.171875 101.425781,96.171875 C98.28125,96.171875 94.8372396,98.0436198 91.09375,101.787109 C87.3502604,105.680339 85.4785156,109.199219 85.4785156,112.34375 C85.4785156,122.376302 85.4785156,137.42513 85.4785156,157.490234 C85.4785156,159.736328 84.6549479,161.682943 83.0078125,163.330078 C81.5104167,164.827474 79.6386719,165.576172 77.3925781,165.576172 C75.1464844,165.576172 73.1998698,164.827474 71.5527344,163.330078 C69.905599,161.682943 69.0820312,159.736328 69.0820312,157.490234 C69.0820312,147.457682 69.0820312,132.408854 69.0820312,112.34375 C69.0820312,111.295573 69.0820312,109.723307 69.0820312,107.626953 C69.0820312,101.936849 68.2584635,98.6425781 66.6113281,97.7441406 C64.8144531,96.6959635 63.3919271,96.171875 62.34375,96.171875 C59.1992188,96.171875 55.7552083,98.0436198 52.0117188,101.787109 C48.2682292,105.680339 46.3964844,109.199219 46.3964844,112.34375 C46.3964844,118.033854 46.3964844,126.56901 46.3964844,137.949219 C46.3964844,142.291667 46.3964844,148.805339 46.3964844,157.490234 C46.3964844,159.736328 45.5729167,161.682943 43.9257812,163.330078 C42.2786458,164.827474 40.3320312,165.576172 38.0859375,165.576172 C35.9895833,165.576172 34.1178385,164.827474 32.4707031,163.330078 C30.8235677,161.682943 30,159.736328 30,157.490234 C30,153.147786 30,146.634115 30,137.949219 C30,132.259115 30,123.649089 30,112.119141 C30,106.878255 30,98.8671875 30,88.0859375 C30,85.8398438 30.8235677,83.8932292 32.4707031,82.2460938 C33.968099,80.7486979 35.8398438,80 38.0859375,80 C40.0325521,80 41.6796875,80.5240885 43.0273438,81.5722656 C44.5247396,82.6204427 45.4980469,83.968099 45.9472656,85.6152344 C48.4928385,83.968099 51.188151,82.6204427 54.0332031,81.5722656 C56.7285156,80.5240885 59.4986979,80 62.34375,80 C66.3867188,80 69.905599,80.7486979 72.9003906,82.2460938 C76.0449219,83.8932292 78.6653646,86.2141927 80.7617188,89.2089844 C83.7565104,86.5136719 87.0507812,84.2675781 90.6445312,82.4707031 C94.2382812,80.8235677 97.8320312,80 101.425781,80 Z M98.3789062,70.15625 C99.7265625,70.15625 101.074219,70.2311198 102.421875,70.3808594 C103.769531,70.530599 105.042318,70.7552083 106.240234,71.0546875 C106.090495,71.5039062 105.791016,72.1777344 105.341797,73.0761719 C104.14388,72.9264323 102.945964,72.7766927 101.748047,72.6269531 C100.69987,72.4772135 99.5768229,72.4023438 98.3789062,72.4023438 C96.5820312,72.4023438 94.7851562,72.5520833 92.9882812,72.8515625 C91.1914062,73.1510417 89.3945312,73.6002604 87.5976562,74.1992188 C87.5976562,74.0494792 87.5227865,73.8248698 87.3730469,73.5253906 C87.3730469,73.2259115 87.2981771,72.9264323 87.1484375,72.6269531 C87.1484375,72.6269531 87.0735677,72.5520833 86.9238281,72.4023438 C86.9238281,72.4023438 86.8489583,72.327474 86.6992188,72.1777344 C88.6458333,71.578776 90.5924479,71.0546875 92.5390625,70.6054688 C94.4856771,70.3059896 96.4322917,70.15625 98.3789062,70.15625 Z M84.9023438,78.9160156 C85.6510417,78.4667969 86.25,77.7929687 86.6992188,76.8945312 C87.1484375,76.1458333 87.2981771,75.3222656 87.1484375,74.4238281 C87.1484375,74.4238281 87.2233073,74.4238281 87.3730469,74.4238281 C87.5227865,74.4238281 87.5976562,74.3489583 87.5976562,74.1992187 C87.7473958,75.2473958 87.5976562,76.2207031 87.1484375,77.1191406 C86.6992188,78.0175781 86.0253906,78.766276 85.1269531,79.3652344 C83.9290365,79.9641927 82.7311198,80.0390625 81.5332031,79.5898437 C80.1855469,79.2903646 79.2122396,78.5416667 78.6132812,77.34375 C77.8645833,76.1458333 77.7148438,74.8730469 78.1640625,73.5253906 C78.6132812,72.327474 79.3619792,71.3541667 80.4101562,70.6054687 C81.6080729,70.0065104 82.8059896,69.8567708 84.0039062,70.15625 C85.2018229,70.4557292 86.1002604,71.1295573 86.6992188,72.1777344 C86.6992188,72.1777344 86.624349,72.1777344 86.4746094,72.1777344 C86.3248698,72.1777344 86.25,72.2526042 86.25,72.4023437 C85.5013021,71.5039062 84.6777344,70.9798177 83.7792969,70.8300781 C82.7311198,70.530599 81.7578125,70.6803385 80.859375,71.2792969 C79.8111979,71.8782552 79.0625,72.7018229 78.6132812,73.75 C78.3138021,74.9479167 78.4635417,76.0709635 79.0625,77.1191406 C79.6614583,78.1673177 80.485026,78.8411458 81.5332031,79.140625 C82.7311198,79.4401042 83.8541667,79.3652344 84.9023438,78.9160156 Z M86.6992188,72.1777344 C86.8489583,72.327474 86.9238281,72.4023438 86.9238281,72.4023438 C87.0735677,72.5520833 87.1484375,72.6269531 87.1484375,72.6269531 C87.2981771,72.9264323 87.3730469,73.2259115 87.3730469,73.5253906 C87.5227865,73.8248698 87.5976562,74.0494792 87.5976562,74.1992188 C87.5976562,74.3489583 87.5227865,74.4238281 87.3730469,74.4238281 C87.2233073,74.4238281 87.1484375,74.4238281 87.1484375,74.4238281 C87.1484375,74.2740885 87.0735677,74.0494792 86.9238281,73.75 C86.9238281,73.4505208 86.8489583,73.2259115 86.6992188,73.0761719 C86.5494792,72.9264323 86.4746094,72.7766927 86.4746094,72.6269531 C86.3248698,72.4772135 86.25,72.4023438 86.25,72.4023438 C86.25,72.4023438 86.3248698,72.327474 86.4746094,72.1777344 C86.624349,72.1777344 86.6992188,72.1777344 86.6992188,72.1777344 Z M80.859375,71.2792969 C81.7578125,70.6803385 82.7311198,70.530599 83.7792969,70.8300781 C84.6777344,70.9798177 85.5013021,71.5039062 86.25,72.4023437 C86.1002604,72.4023437 85.9505208,72.4023437 85.8007813,72.4023437 C85.8007813,72.5520833 85.7259115,72.6269531 85.5761719,72.6269531 C84.9772135,72.0279948 84.3033854,71.578776 83.5546875,71.2792969 C82.65625,71.1295573 81.8326823,71.2792969 81.0839844,71.7285156 C80.1855469,72.1777344 79.5865885,72.9264323 79.2871094,73.9746094 C78.9876302,75.0227865 79.0625,75.9960937 79.5117188,76.8945312 C79.9609375,77.7929687 80.7096354,78.3919271 81.7578125,78.6914062 C82.8059896,78.9908854 83.7792969,78.9160156 84.6777344,78.4667969 C85.2766927,78.0175781 85.7259115,77.4934896 86.0253906,76.8945312 C86.4746094,76.1458333 86.624349,75.3971354 86.4746094,74.6484375 C86.624349,74.6484375 86.7740885,74.6484375 86.9238281,74.6484375 C86.9238281,74.6484375 86.9986979,74.5735677 87.1484375,74.4238281 C87.2981771,75.3222656 87.1484375,76.1458333 86.6992188,76.8945312 C86.25,77.7929687 85.6510417,78.4667969 84.9023438,78.9160156 C83.8541667,79.514974 82.7311198,79.5898437 81.5332031,79.140625 C80.3352865,78.8411458 79.5117188,78.1673177 79.0625,77.1191406 C78.4635417,76.0709635 78.3138021,74.9479167 78.6132813,73.75 C79.0625,72.7018229 79.8111979,71.8782552 80.859375,71.2792969 Z M86.0253906,73.3007812 C86.0253906,73.1510417 85.9505208,73.0013021 85.8007812,72.8515625 C85.8007812,72.8515625 85.7259115,72.7766927 85.5761719,72.6269531 C85.7259115,72.6269531 85.875651,72.5520833 86.0253906,72.4023438 C86.0253906,72.4023438 86.1002604,72.4023438 86.25,72.4023438 C86.25,72.4023438 86.3248698,72.4772135 86.4746094,72.6269531 C86.4746094,72.7766927 86.5494792,72.9264323 86.6992188,73.0761719 C86.8489583,73.2259115 86.9238281,73.4505208 86.9238281,73.75 C87.0735677,74.0494792 87.1484375,74.2740885 87.1484375,74.4238281 C86.9986979,74.4238281 86.9238281,74.4986979 86.9238281,74.6484375 C86.7740885,74.6484375 86.624349,74.6484375 86.4746094,74.6484375 C86.4746094,74.4986979 86.4746094,74.2740885 86.4746094,73.9746094 C86.3248698,73.6751302 86.1751302,73.4505208 86.0253906,73.3007812 Z M106.240234,71.0546875 C106.389974,70.6054688 106.689453,69.8567708 107.138672,68.8085938 C109.384766,70.6054688 112.753906,73.375651 117.246094,77.1191406 C114.401042,76.6699219 110.133464,75.921224 104.443359,74.8730469 C104.593099,74.5735677 104.892578,73.9746094 105.341797,73.0761719 C105.641276,73.2259115 106.015625,73.3007812 106.464844,73.3007812 C106.914062,73.4505208 107.288411,73.6002604 107.587891,73.75 C107.73763,73.3007812 107.96224,72.5520833 108.261719,71.5039062 C107.96224,71.3541667 107.66276,71.2792969 107.363281,71.2792969 C106.914062,71.1295573 106.539714,71.0546875 106.240234,71.0546875 Z M108.261719,71.5039062 C108.111979,71.953125 107.96224,72.7018229 107.8125,73.75 C107.363281,73.6002604 106.914062,73.4505208 106.464844,73.3007812 C106.015625,73.3007812 105.641276,73.2259115 105.341797,73.0761719 C105.491536,72.6269531 105.791016,71.953125 106.240234,71.0546875 C106.539714,71.0546875 106.914062,71.1295573 107.363281,71.2792969 C107.66276,71.2792969 107.96224,71.3541667 108.261719,71.5039062 Z M54.1308594,70.6054688 C56.3769531,70.15625 58.6979167,70.0065104 61.09375,70.15625 C63.3398438,70.3059896 65.5110677,70.6054688 67.6074219,71.0546875 C67.4576823,71.5039062 67.1582031,72.1777344 66.7089844,73.0761719 C64.7623698,72.7766927 62.8157552,72.5520833 60.8691406,72.4023438 C58.7727865,72.2526042 56.6764323,72.4023438 54.5800781,72.8515625 C54.5800781,72.5520833 54.5800781,72.2526042 54.5800781,71.953125 C54.5800781,71.6536458 54.5052083,71.3541667 54.3554688,71.0546875 C54.3554688,70.9049479 54.280599,70.8300781 54.1308594,70.8300781 C54.1308594,70.6803385 54.1308594,70.6054688 54.1308594,70.6054688 Z M51.2109375,76.6699219 C52.109375,76.3704427 52.7832031,75.921224 53.2324219,75.3222656 C53.6816406,74.5735677 53.9811198,73.75 54.1308594,72.8515625 C54.1308594,72.8515625 54.2057292,72.8515625 54.3554687,72.8515625 C54.3554687,72.8515625 54.4303385,72.8515625 54.5800781,72.8515625 C54.5800781,73.75 54.280599,74.6484375 53.6816406,75.546875 C53.0826823,76.2955729 52.3339844,76.8945312 51.4355469,77.34375 C50.0878906,77.7929688 48.8151042,77.718099 47.6171875,77.1191406 C46.4192708,76.5201823 45.5957031,75.6217448 45.1464844,74.4238281 C44.6972656,73.0761719 44.7721354,71.8033854 45.3710937,70.6054688 C45.8203125,69.4075521 46.71875,68.5839844 48.0664062,68.1347656 C49.2643229,67.6855469 50.3873698,67.6855469 51.4355469,68.1347656 C52.6334635,68.5839844 53.531901,69.4075521 54.1308594,70.6054688 C53.9811198,70.6054688 53.8313802,70.6054688 53.6816406,70.6054688 C53.6816406,70.6054688 53.6067708,70.6054688 53.4570312,70.6054688 C53.0078125,69.7070312 52.2591146,69.0332031 51.2109375,68.5839844 C50.3125,68.2845052 49.3391927,68.2845052 48.2910156,68.5839844 C47.093099,69.0332031 46.2695312,69.781901 45.8203125,70.8300781 C45.3710937,71.8782552 45.296224,73.0013021 45.5957031,74.1992188 C46.0449219,75.2473958 46.7936198,76.0709635 47.8417969,76.6699219 C48.889974,77.1191406 50.0130208,77.1191406 51.2109375,76.6699219 Z M54.1308594,70.6054688 C54.1308594,70.6054688 54.1308594,70.6803385 54.1308594,70.8300781 C54.280599,70.8300781 54.3554688,70.9049479 54.3554688,71.0546875 C54.5052083,71.3541667 54.5800781,71.6536458 54.5800781,71.953125 C54.5800781,72.2526042 54.5800781,72.5520833 54.5800781,72.8515625 C54.4303385,72.8515625 54.3554688,72.8515625 54.3554688,72.8515625 C54.2057292,72.8515625 54.1308594,72.8515625 54.1308594,72.8515625 C54.1308594,72.5520833 54.0559896,72.2526042 53.90625,71.953125 C53.90625,71.8033854 53.90625,71.578776 53.90625,71.2792969 C53.7565104,71.1295573 53.6816406,70.9798177 53.6816406,70.8300781 C53.6816406,70.8300781 53.6067708,70.7552083 53.4570312,70.6054688 C53.6067708,70.6054688 53.7565104,70.6054688 53.90625,70.6054688 C53.90625,70.6054688 53.9811198,70.6054688 54.1308594,70.6054688 Z M48.0664062,69.2578125 C48.0664062,69.2578125 48.141276,69.2578125 48.2910156,69.2578125 C48.2910156,69.2578125 48.3658854,69.1829427 48.515625,69.0332031 C48.515625,69.0332031 48.515625,69.0332031 48.515625,69.0332031 C48.515625,69.0332031 48.515625,69.1080729 48.515625,69.2578125 C48.3658854,69.2578125 48.2161458,69.2578125 48.0664062,69.2578125 C48.0664062,69.2578125 48.0664062,69.2578125 48.0664062,69.2578125 Z M48.2910156,68.5839844 C49.3391927,68.2845052 50.3125,68.2845052 51.2109375,68.5839844 C52.2591146,69.0332031 53.0078125,69.7070312 53.4570312,70.6054688 C53.4570312,70.6054688 53.3821615,70.6054688 53.2324219,70.6054688 C53.0826823,70.6054688 53.0078125,70.6803385 53.0078125,70.8300781 C52.5585938,70.0813802 51.8847656,69.5572917 50.9863281,69.2578125 C50.2376302,68.9583333 49.4140625,68.9583333 48.515625,69.2578125 C48.515625,69.2578125 48.515625,69.2578125 48.515625,69.2578125 C48.515625,69.2578125 48.515625,69.2578125 48.515625,69.2578125 C48.515625,69.1080729 48.5904948,69.0332031 48.7402344,69.0332031 C48.7402344,69.0332031 48.7402344,69.0332031 48.7402344,69.0332031 C48.7402344,69.0332031 48.7402344,69.0332031 48.7402344,69.0332031 C48.7402344,69.0332031 48.7402344,69.0332031 48.7402344,69.0332031 C48.7402344,69.0332031 48.7402344,69.0332031 48.7402344,69.0332031 C48.7402344,69.0332031 48.7402344,69.0332031 48.7402344,69.0332031 C48.7402344,69.0332031 48.7402344,69.0332031 48.7402344,69.0332031 C48.5904948,69.0332031 48.515625,69.1080729 48.515625,69.2578125 C48.3658854,69.2578125 48.2910156,69.2578125 48.2910156,69.2578125 C48.141276,69.2578125 48.0664062,69.2578125 48.0664062,69.2578125 C48.0664062,69.2578125 48.0664062,69.2578125 48.0664062,69.2578125 C48.2161458,69.2578125 48.3658854,69.2578125 48.515625,69.2578125 C47.4674479,69.5572917 46.71875,70.15625 46.2695312,71.0546875 C45.8203125,71.953125 45.8203125,72.9264323 46.2695312,73.9746094 C46.5690104,74.8730469 47.1679688,75.546875 48.0664062,75.9960938 C48.9648438,76.4453125 49.938151,76.5201823 50.9863281,76.2207031 C51.735026,75.921224 52.3339844,75.4720052 52.7832031,74.8730469 C53.2324219,74.2740885 53.4570312,73.6751302 53.4570312,73.0761719 C53.6067708,72.9264323 53.6816406,72.8515625 53.6816406,72.8515625 C53.8313802,72.8515625 53.9811198,72.8515625 54.1308594,72.8515625 C53.9811198,73.75 53.6816406,74.5735677 53.2324219,75.3222656 C52.7832031,75.921224 52.109375,76.3704427 51.2109375,76.6699219 C50.0130208,77.1191406 48.889974,77.1191406 47.8417969,76.6699219 C46.7936198,76.0709635 46.0449219,75.2473958 45.5957031,74.1992188 C45.296224,73.0013021 45.3710938,71.8782552 45.8203125,70.8300781 C46.2695312,69.781901 47.093099,69.0332031 48.2910156,68.5839844 Z M53.2324219,71.5039062 C53.2324219,71.3541667 53.1575521,71.2044271 53.0078125,71.0546875 C53.0078125,70.9049479 53.0078125,70.8300781 53.0078125,70.8300781 C53.0078125,70.6803385 53.0826823,70.6054688 53.2324219,70.6054688 C53.3821615,70.6054688 53.4570312,70.6054688 53.4570312,70.6054688 C53.6067708,70.7552083 53.6816406,70.8300781 53.6816406,70.8300781 C53.6816406,70.9798177 53.7565104,71.1295573 53.90625,71.2792969 C53.90625,71.578776 53.90625,71.8033854 53.90625,71.953125 C54.0559896,72.2526042 54.1308594,72.5520833 54.1308594,72.8515625 C53.9811198,72.8515625 53.8313802,72.8515625 53.6816406,72.8515625 C53.6816406,72.8515625 53.6067708,72.9264323 53.4570312,73.0761719 C53.4570312,72.7766927 53.4570312,72.4772135 53.4570312,72.1777344 C53.4570312,71.8782552 53.3821615,71.6536458 53.2324219,71.5039062 Z M67.6074219,71.0546875 C67.906901,70.6054688 68.28125,69.9316406 68.7304688,69.0332031 C70.8268229,70.8300781 74.1210938,73.6002604 78.6132812,77.34375 C75.7682292,76.8945312 71.500651,76.1458333 65.8105469,75.0976562 C65.9602865,74.6484375 66.2597656,74.0494792 66.7089844,73.3007812 C67.1582031,73.3007812 67.5325521,73.375651 67.8320312,73.5253906 C68.28125,73.6751302 68.7304688,73.8248698 69.1796875,73.9746094 C69.3294271,73.375651 69.5540365,72.6269531 69.8535156,71.7285156 C69.4042969,71.578776 69.0299479,71.4290365 68.7304688,71.2792969 C68.4309896,71.2792969 68.0566406,71.2044271 67.6074219,71.0546875 Z M69.8535156,71.7285156 C69.703776,72.1777344 69.4791667,72.8515625 69.1796875,73.75 C68.7304688,73.6002604 68.28125,73.5253906 67.8320312,73.5253906 C67.5325521,73.375651 67.1582031,73.2259115 66.7089844,73.0761719 C66.858724,72.6269531 67.1582031,71.953125 67.6074219,71.0546875 C68.0566406,71.2044271 68.4309896,71.2792969 68.7304688,71.2792969 C69.0299479,71.4290365 69.4042969,71.578776 69.8535156,71.7285156 Z M15.9472656,98.90625 C16.0970052,98.90625 16.3216146,98.90625 16.6210938,98.90625 C16.7708333,98.90625 16.9205729,98.90625 17.0703125,98.90625 C17.2200521,98.90625 17.4446615,98.90625 17.7441406,98.90625 C17.8938802,98.90625 18.0436198,98.90625 18.1933594,98.90625 C18.1933594,109.388021 18.1933594,125.110677 18.1933594,146.074219 C17.7441406,146.074219 16.9954427,146.074219 15.9472656,146.074219 C15.9472656,138.28776 15.9472656,130.426432 15.9472656,122.490234 C15.9472656,114.554036 15.9472656,106.692708 15.9472656,98.90625 Z M15.9472656,148.320312 C15.9472656,147.871094 15.9472656,147.122396 15.9472656,146.074219 C15.4980469,146.074219 14.749349,146.074219 13.7011719,146.074219 C14.4498698,148.919271 15.5729167,153.111979 17.0703125,158.652344 C17.8190104,155.807292 18.9420573,151.614583 20.4394531,146.074219 C19.9902344,146.074219 19.2415365,146.074219 18.1933594,146.074219 C18.1933594,146.673177 18.1933594,147.421875 18.1933594,148.320312 C17.7441406,148.320312 16.9954427,148.320312 15.9472656,148.320312 Z M15.9472656,148.320312 C16.3964844,148.320312 17.1451823,148.320312 18.1933594,148.320312 C18.1933594,147.871094 18.1933594,147.122396 18.1933594,146.074219 C17.7441406,146.074219 16.9954427,146.074219 15.9472656,146.074219 C15.9472656,146.673177 15.9472656,147.421875 15.9472656,148.320312 Z M17.0703125,89.2480469 C18.4179688,89.2480469 19.6158854,89.6972656 20.6640625,90.5957031 C21.5625,91.4941406 22.0117188,92.6920573 22.0117188,94.1894531 C22.0117188,95.2376302 21.6373698,96.2109375 20.8886719,97.109375 C20.139974,98.0078125 19.2415365,98.6067708 18.1933594,98.90625 C18.1933594,98.7565104 18.1933594,98.531901 18.1933594,98.2324219 C19.0917969,97.9329427 19.8404948,97.4088542 20.4394531,96.6601562 C21.0384115,95.9114583 21.3378906,95.0878906 21.3378906,94.1894531 C21.3378906,92.9915365 20.9635417,91.9433594 20.2148438,91.0449219 C19.3164062,90.1464844 18.2682292,89.6972656 17.0703125,89.6972656 C15.8723958,89.6972656 14.8990885,90.1464844 14.1503906,91.0449219 C13.2519531,91.9433594 12.8027344,92.9915365 12.8027344,94.1894531 C12.8027344,95.0878906 13.1022135,95.9114583 13.7011719,96.6601562 C14.3001302,97.4088542 15.0488281,97.9329427 15.9472656,98.2324219 C15.9472656,98.3821615 15.9472656,98.6067708 15.9472656,98.90625 C14.8990885,98.6067708 14.000651,98.0078125 13.2519531,97.109375 C12.5032552,96.2109375 12.1289062,95.2376302 12.1289062,94.1894531 C12.1289062,92.8417969 12.6529948,91.6438802 13.7011719,90.5957031 C14.5996094,89.6972656 15.7226562,89.2480469 17.0703125,89.2480469 Z M17.0703125,98.4570312 C17.3697917,98.4570312 17.594401,98.4570312 17.7441406,98.4570312 C17.8938802,98.3072917 18.0436198,98.2324219 18.1933594,98.2324219 C18.1933594,98.3821615 18.1933594,98.6067708 18.1933594,98.90625 C18.0436198,98.90625 17.8938802,98.90625 17.7441406,98.90625 C17.4446615,98.90625 17.2200521,98.90625 17.0703125,98.90625 C16.9205729,98.90625 16.7708333,98.90625 16.6210938,98.90625 C16.3216146,98.90625 16.0970052,98.90625 15.9472656,98.90625 C15.9472656,98.7565104 15.9472656,98.531901 15.9472656,98.2324219 C16.0970052,98.2324219 16.3216146,98.3072917 16.6210938,98.4570312 C16.7708333,98.4570312 16.9205729,98.4570312 17.0703125,98.4570312 Z M13.2519531,94.1894531 C13.2519531,94.938151 13.5514323,95.6119792 14.1503906,96.2109375 C14.5996094,96.9596354 15.1985677,97.4088542 15.9472656,97.5585938 C15.9472656,97.7083333 15.9472656,97.9329427 15.9472656,98.2324219 C15.0488281,97.9329427 14.3001302,97.4088542 13.7011719,96.6601562 C13.1022135,95.9114583 12.8027344,95.0878906 12.8027344,94.1894531 C12.8027344,92.9915365 13.2519531,91.9433594 14.1503906,91.0449219 C14.8990885,90.1464844 15.8723958,89.6972656 17.0703125,89.6972656 C18.2682292,89.6972656 19.3164062,90.1464844 20.2148438,91.0449219 C20.9635417,91.9433594 21.3378906,92.9915365 21.3378906,94.1894531 C21.3378906,95.0878906 21.0384115,95.9114583 20.4394531,96.6601562 C19.8404948,97.4088542 19.0917969,97.9329427 18.1933594,98.2324219 C18.1933594,98.0826823 18.1933594,97.8580729 18.1933594,97.5585938 C18.9420573,97.4088542 19.6158854,96.9596354 20.2148438,96.2109375 C20.6640625,95.6119792 20.8886719,94.938151 20.8886719,94.1894531 C20.8886719,93.141276 20.5143229,92.2428385 19.765625,91.4941406 C19.0169271,90.7454427 18.1184896,90.3710938 17.0703125,90.3710938 C16.0221354,90.3710938 15.1236979,90.7454427 14.375,91.4941406 C13.6263021,92.2428385 13.2519531,93.141276 13.2519531,94.1894531 C13.2519531,93.889974 13.2519531,93.7402344 13.2519531,93.7402344 C13.2519531,93.5904948 13.2519531,93.515625 13.2519531,93.515625 C13.2519531,93.515625 13.2519531,93.5904948 13.2519531,93.7402344 C13.2519531,93.7402344 13.2519531,93.889974 13.2519531,94.1894531 C13.2519531,94.3391927 13.2519531,94.4140625 13.2519531,94.4140625 C13.2519531,94.5638021 13.2519531,94.6386719 13.2519531,94.6386719 C13.2519531,94.6386719 13.2519531,94.5638021 13.2519531,94.4140625 C13.2519531,94.4140625 13.2519531,94.3391927 13.2519531,94.1894531 Z M18.1933594,98.2324219 C18.0436198,98.2324219 17.8938802,98.3072917 17.7441406,98.4570312 C17.4446615,98.4570312 17.2200521,98.4570312 17.0703125,98.4570312 C16.9205729,98.4570312 16.7708333,98.4570312 16.6210938,98.4570312 C16.3216146,98.3072917 16.0970052,98.2324219 15.9472656,98.2324219 C15.9472656,98.0826823 15.9472656,97.8580729 15.9472656,97.5585938 C16.0970052,97.7083333 16.3216146,97.7832031 16.6210938,97.7832031 C16.7708333,97.7832031 16.9205729,97.7832031 17.0703125,97.7832031 C17.3697917,97.7832031 17.594401,97.7832031 17.7441406,97.7832031 C17.8938802,97.7832031 18.0436198,97.7083333 18.1933594,97.5585938 C18.1933594,97.7083333 18.1933594,97.8580729 18.1933594,98.0078125 C18.1933594,98.0078125 18.1933594,98.0826823 18.1933594,98.2324219 Z M90.2929688,49.7167969 C90.2929688,50.4654948 90.1432292,51.0644531 89.84375,51.5136719 C89.5442708,52.1126302 89.1699219,52.6367188 88.7207031,53.0859375 C88.5709635,53.2356771 88.421224,53.3105469 88.2714844,53.3105469 C88.2714844,53.4602865 88.1966146,53.5351562 88.046875,53.5351562 C87.8971354,53.3854167 87.672526,53.3105469 87.3730469,53.3105469 C87.2233073,53.1608073 87.0735677,53.0859375 86.9238281,53.0859375 C86.4746094,52.9361979 86.1002604,52.7864583 85.8007812,52.6367188 C85.3515625,52.6367188 84.9023438,52.6367188 84.453125,52.6367188 C84.453125,52.6367188 84.453125,52.6367188 84.453125,52.6367188 C84.453125,52.6367188 84.5279948,52.6367188 84.6777344,52.6367188 C85.1269531,52.6367188 85.5761719,52.561849 86.0253906,52.4121094 C86.4746094,52.2623698 86.8489583,52.0377604 87.1484375,51.7382812 C87.5976562,51.4388021 87.8971354,51.1393229 88.046875,50.8398438 C88.1966146,50.5403646 88.2714844,50.1660156 88.2714844,49.7167969 C88.2714844,49.5670573 88.2714844,49.3424479 88.2714844,49.0429688 C88.2714844,48.8932292 88.1966146,48.7434896 88.046875,48.59375 C88.046875,48.4440104 87.9720052,48.2942708 87.8222656,48.1445312 C87.672526,48.1445312 87.5976562,48.0696615 87.5976562,47.9199219 C87.4479167,47.7701823 87.2981771,47.6204427 87.1484375,47.4707031 C86.9986979,47.3209635 86.7740885,47.2460938 86.4746094,47.2460938 C86.3248698,47.0963542 86.1751302,47.0214844 86.0253906,47.0214844 C85.875651,47.0214844 85.6510417,47.0214844 85.3515625,47.0214844 C85.0520833,47.0214844 84.7526042,47.0214844 84.453125,47.0214844 C84.1536458,47.0214844 83.8541667,47.0963542 83.5546875,47.2460938 C83.2552083,47.3958333 83.030599,47.5455729 82.8808594,47.6953125 C82.5813802,47.8450521 82.3567708,47.9947917 82.2070312,48.1445312 C82.2070312,48.2942708 82.1321615,48.3691406 81.9824219,48.3691406 C81.8326823,48.5188802 81.6829427,48.59375 81.5332031,48.59375 C81.3834635,48.59375 81.3085938,48.5188802 81.3085938,48.3691406 C81.1588542,48.3691406 81.0091146,48.3691406 80.859375,48.3691406 C80.7096354,48.219401 80.6347656,48.0696615 80.6347656,47.9199219 C80.6347656,47.9199219 80.6347656,47.8450521 80.6347656,47.6953125 C80.6347656,47.5455729 80.6347656,47.3958333 80.6347656,47.2460938 C80.6347656,47.0963542 80.7096354,46.9466146 80.859375,46.796875 C81.1588542,46.4973958 81.4583333,46.2727865 81.7578125,46.1230469 C82.0572917,45.8235677 82.4316406,45.5989583 82.8808594,45.4492188 C83.1803385,45.2994792 83.5546875,45.1497396 84.0039062,45 C84.453125,45 84.9023438,45 85.3515625,45 C85.8007812,45 86.1751302,45 86.4746094,45 C86.7740885,45.1497396 87.0735677,45.2994792 87.3730469,45.4492188 C87.672526,45.4492188 87.9720052,45.5989583 88.2714844,45.8984375 C88.5709635,46.0481771 88.7955729,46.1979167 88.9453125,46.3476562 C89.2447917,46.6471354 89.469401,46.9466146 89.6191406,47.2460938 C89.7688802,47.3958333 89.9186198,47.6204427 90.0683594,47.9199219 C90.0683594,48.219401 90.1432292,48.5188802 90.2929688,48.8183594 C90.2929688,49.1178385 90.2929688,49.4173177 90.2929688,49.7167969 C90.2929688,49.7167969 90.2929688,49.7167969 90.2929688,49.7167969 C90.2929688,49.7167969 90.2929688,49.7167969 90.2929688,49.7167969 Z M84.453125,52.6367188 C84.9023438,52.6367188 85.3515625,52.6367188 85.8007812,52.6367188 C86.1002604,52.7864583 86.4746094,52.8613281 86.9238281,52.8613281 C87.0735677,53.0110677 87.2233073,53.1608073 87.3730469,53.3105469 C87.672526,53.3105469 87.8971354,53.3854167 88.046875,53.5351562 C87.5976562,53.8346354 87.0735677,54.0592448 86.4746094,54.2089844 C85.875651,54.358724 85.2766927,54.4335938 84.6777344,54.4335938 C84.5279948,54.4335938 84.3782552,54.4335938 84.2285156,54.4335938 C84.078776,54.4335938 84.0039062,54.358724 84.0039062,54.2089844 C83.8541667,54.0592448 83.7792969,53.984375 83.7792969,53.984375 C83.6295573,53.8346354 83.5546875,53.6848958 83.5546875,53.5351562 C83.5546875,53.3854167 83.6295573,53.2356771 83.7792969,53.0859375 C83.7792969,53.0859375 83.8541667,53.0110677 84.0039062,52.8613281 C84.0039062,52.7115885 84.078776,52.6367188 84.2285156,52.6367188 C84.3782552,52.6367188 84.453125,52.6367188 84.453125,52.6367188 Z M84.0039062,54.2089844 C84.0039062,54.358724 84.078776,54.4335938 84.2285156,54.4335938 C84.3782552,54.4335938 84.5279948,54.4335938 84.6777344,54.4335938 C85.2766927,54.4335938 85.875651,54.358724 86.4746094,54.2089844 C87.0735677,54.0592448 87.5976562,53.8346354 88.046875,53.5351562 C88.1966146,53.6848958 88.3463542,53.7597656 88.4960938,53.7597656 C88.6458333,53.9095052 88.7955729,54.0592448 88.9453125,54.2089844 C89.0950521,54.5084635 89.2447917,54.8079427 89.3945312,55.1074219 C89.6940104,55.2571615 89.84375,55.5566406 89.84375,56.0058594 C89.9934896,56.3053385 90.1432292,56.6048177 90.2929688,56.9042969 C90.2929688,57.3535156 90.2929688,57.7278646 90.2929688,58.0273438 C90.2929688,58.9257812 90.1432292,59.6744792 89.84375,60.2734375 C89.5442708,60.8723958 89.0950521,61.4713542 88.4960938,62.0703125 C88.046875,62.5195312 87.4479167,62.8938802 86.6992188,63.1933594 C85.9505208,63.4928385 85.1269531,63.6425781 84.2285156,63.6425781 C83.6295573,63.6425781 83.1054688,63.5677083 82.65625,63.4179688 C82.2070312,63.2682292 81.7578125,63.1184896 81.3085938,62.96875 C80.859375,62.6692708 80.485026,62.3697917 80.1855469,62.0703125 C79.7363281,61.7708333 79.3619792,61.3964844 79.0625,60.9472656 C79.0625,60.797526 79.0625,60.7226562 79.0625,60.7226562 C79.0625,60.5729167 79.0625,60.4231771 79.0625,60.2734375 C79.0625,60.2734375 79.0625,60.2734375 79.0625,60.2734375 C79.0625,60.2734375 79.0625,60.2734375 79.0625,60.2734375 C79.0625,60.1236979 79.0625,59.9739583 79.0625,59.8242188 C79.2122396,59.6744792 79.2871094,59.5996094 79.2871094,59.5996094 C79.436849,59.4498698 79.5865885,59.375 79.7363281,59.375 C79.8860677,59.375 80.0358073,59.375 80.1855469,59.375 C80.3352865,59.375 80.4101562,59.4498698 80.4101562,59.5996094 C80.5598958,59.5996094 80.7096354,59.6744792 80.859375,59.8242188 C81.0091146,60.1236979 81.233724,60.3483073 81.5332031,60.4980469 C81.6829427,60.797526 81.9075521,61.0221354 82.2070312,61.171875 C82.5065104,61.3216146 82.8059896,61.4713542 83.1054688,61.6210938 C83.5546875,61.6210938 83.9290365,61.6210938 84.2285156,61.6210938 C84.6777344,61.6210938 85.1269531,61.546224 85.5761719,61.3964844 C86.1751302,61.2467448 86.624349,61.0221354 86.9238281,60.7226562 C87.3730469,60.4231771 87.7473958,60.0488281 88.046875,59.5996094 C88.1966146,59.1503906 88.2714844,58.6263021 88.2714844,58.0273438 C88.2714844,57.7278646 88.2714844,57.5032552 88.2714844,57.3535156 C88.2714844,57.0540365 88.1966146,56.8294271 88.046875,56.6796875 C88.046875,56.5299479 87.9720052,56.3053385 87.8222656,56.0058594 C87.672526,55.8561198 87.5227865,55.7063802 87.3730469,55.5566406 C87.2233073,55.406901 87.0735677,55.2571615 86.9238281,55.1074219 C86.624349,54.9576823 86.3248698,54.8828125 86.0253906,54.8828125 C85.7259115,54.7330729 85.4264323,54.6582031 85.1269531,54.6582031 C84.827474,54.5084635 84.5279948,54.4335938 84.2285156,54.4335938 C84.078776,54.4335938 83.9290365,54.4335938 83.7792969,54.4335938 C83.6295573,54.4335938 83.5546875,54.358724 83.5546875,54.2089844 C83.4049479,54.0592448 83.3300781,53.984375 83.3300781,53.984375 C83.3300781,53.8346354 83.3300781,53.6848958 83.3300781,53.5351562 C83.3300781,53.3854167 83.3300781,53.2356771 83.3300781,53.0859375 C83.3300781,53.0859375 83.4049479,53.0110677 83.5546875,52.8613281 C83.5546875,52.7115885 83.6295573,52.6367188 83.7792969,52.6367188 C83.9290365,52.6367188 84.078776,52.6367188 84.2285156,52.6367188 C84.2285156,52.6367188 84.2285156,52.6367188 84.2285156,52.6367188 C84.3782552,52.6367188 84.453125,52.6367188 84.453125,52.6367188 C84.453125,52.6367188 84.3782552,52.6367188 84.2285156,52.6367188 C84.078776,52.6367188 84.0039062,52.7115885 84.0039062,52.8613281 C83.8541667,53.0110677 83.7792969,53.0859375 83.7792969,53.0859375 C83.6295573,53.2356771 83.5546875,53.3854167 83.5546875,53.5351562 C83.5546875,53.6848958 83.6295573,53.8346354 83.7792969,53.984375 C83.7792969,53.984375 83.8541667,54.0592448 84.0039062,54.2089844 Z M3.59375,94.8632812 C3.74348958,95.0130208 3.81835938,95.0878906 3.81835938,95.0878906 C3.96809896,95.0878906 4.04296875,95.1627604 4.04296875,95.3125 C4.04296875,95.4622396 4.11783854,95.5371094 4.26757812,95.5371094 C4.26757812,95.686849 4.26757812,95.7617188 4.26757812,95.7617188 C4.26757812,97.7083333 4.26757812,100.029297 4.26757812,102.724609 C4.26757812,105.569661 4.26757812,108.789062 4.26757812,112.382812 C4.26757812,112.532552 4.26757812,112.682292 4.26757812,112.832031 C4.11783854,112.981771 3.96809896,113.13151 3.81835938,113.28125 C3.81835938,113.28125 3.74348958,113.28125 3.59375,113.28125 C3.44401042,113.43099 3.36914062,113.505859 3.36914062,113.505859 C3.21940104,113.505859 3.06966146,113.43099 2.91992188,113.28125 C2.77018229,113.28125 2.62044271,113.28125 2.47070312,113.28125 C2.47070312,113.13151 2.47070312,112.981771 2.47070312,112.832031 C2.32096354,112.682292 2.24609375,112.532552 2.24609375,112.382812 C2.24609375,110.885417 2.24609375,108.938802 2.24609375,106.542969 C2.24609375,104.147135 2.24609375,101.376953 2.24609375,98.2324219 C2.24609375,98.2324219 2.17122396,98.3072917 2.02148438,98.4570312 C1.87174479,98.6067708 1.72200521,98.7565104 1.57226562,98.90625 C1.57226562,98.90625 1.49739583,98.9811198 1.34765625,99.1308594 C1.19791667,99.1308594 1.04817708,99.1308594 0.8984375,99.1308594 C0.748697917,99.1308594 0.673828125,99.1308594 0.673828125,99.1308594 C0.524088542,98.9811198 0.374348958,98.90625 0.224609375,98.90625 C0.0748697917,98.7565104 0,98.6067708 0,98.4570312 C0,98.4570312 0,98.3821615 0,98.2324219 C0,98.0826823 0,97.9329427 0,97.7832031 C0,97.6334635 0.0748697917,97.5585938 0.224609375,97.5585938 C0.524088542,97.2591146 0.8984375,96.8847656 1.34765625,96.4355469 C1.64713542,96.1360677 2.09635417,95.686849 2.6953125,95.0878906 C2.6953125,95.0878906 2.77018229,95.0878906 2.91992188,95.0878906 C2.91992188,94.938151 2.99479167,94.8632812 3.14453125,94.8632812 C3.14453125,94.8632812 3.14453125,94.8632812 3.14453125,94.8632812 C3.14453125,94.8632812 3.21940104,94.8632812 3.36914062,94.8632812 C3.36914062,94.8632812 3.44401042,94.8632812 3.59375,94.8632812 C3.59375,94.8632812 3.59375,94.8632812 3.59375,94.8632812 Z M39.0820312,68.1347656 C39.2317708,68.1347656 39.3066406,68.2096354 39.3066406,68.359375 C39.4563802,68.359375 39.6061198,68.359375 39.7558594,68.359375 C39.7558594,68.5091146 39.8307292,68.6588542 39.9804688,68.8085938 C39.9804688,68.9583333 39.9804688,69.1080729 39.9804688,69.2578125 C39.9804688,69.2578125 39.9804688,69.3326823 39.9804688,69.4824219 C39.8307292,69.6321615 39.7558594,69.781901 39.7558594,69.9316406 C39.6061198,69.9316406 39.4563802,70.0065104 39.3066406,70.15625 C39.3066406,70.15625 39.2317708,70.15625 39.0820312,70.15625 C38.1835938,70.15625 37.360026,70.15625 36.6113281,70.15625 C35.8626302,70.15625 35.1139323,70.15625 34.3652344,70.15625 C33.6165365,70.15625 32.7929688,70.15625 31.8945312,70.15625 C31.1458333,70.15625 30.3971354,70.15625 29.6484375,70.15625 C29.4986979,70.15625 29.4238281,70.15625 29.4238281,70.15625 C29.4238281,70.15625 29.3489583,70.0813802 29.1992188,69.9316406 C29.1992188,69.9316406 29.124349,69.9316406 28.9746094,69.9316406 C28.9746094,69.9316406 28.9746094,69.9316406 28.9746094,69.9316406 C28.8248698,69.781901 28.75,69.7070312 28.75,69.7070312 C28.75,69.5572917 28.75,69.4824219 28.75,69.4824219 C28.75,69.4824219 28.75,69.4075521 28.75,69.2578125 C28.75,69.2578125 28.75,69.2578125 28.75,69.2578125 C28.75,69.1080729 28.75,69.0332031 28.75,69.0332031 C28.75,69.0332031 28.75,69.0332031 28.75,69.0332031 C28.75,69.0332031 28.75,68.8834635 28.75,68.5839844 C28.75,68.4342448 28.8248698,68.1347656 28.9746094,67.6855469 C29.124349,67.2363281 29.2740885,66.7122396 29.4238281,66.1132812 C29.7233073,65.6640625 30.0227865,65.139974 30.3222656,64.5410156 C30.4720052,64.2415365 30.6966146,63.9420573 30.9960938,63.6425781 C31.2955729,63.343099 31.5950521,63.0436198 31.8945312,62.7441406 C32.1940104,62.4446615 32.4934896,62.1451823 32.7929688,61.8457031 C33.0924479,61.546224 33.4667969,61.3216146 33.9160156,61.171875 C34.8144531,60.5729167 35.4882812,60.0488281 35.9375,59.5996094 C36.5364583,59.1503906 36.9108073,58.7760417 37.0605469,58.4765625 C37.360026,58.0273438 37.5097656,57.6529948 37.5097656,57.3535156 C37.6595052,57.0540365 37.734375,56.7545573 37.734375,56.4550781 C37.734375,56.3053385 37.734375,56.155599 37.734375,56.0058594 C37.734375,56.0058594 37.734375,55.9309896 37.734375,55.78125 C37.734375,55.6315104 37.734375,55.4817708 37.734375,55.3320312 C37.5846354,55.3320312 37.5097656,55.2571615 37.5097656,55.1074219 C37.360026,54.8079427 37.2102865,54.5833333 37.0605469,54.4335938 C36.9108073,54.2838542 36.7610677,54.1341146 36.6113281,53.984375 C36.311849,53.8346354 36.0123698,53.6848958 35.7128906,53.5351562 C35.2636719,53.5351562 34.8144531,53.5351562 34.3652344,53.5351562 C33.9160156,53.5351562 33.5416667,53.5351562 33.2421875,53.5351562 C32.9427083,53.6848958 32.6432292,53.8346354 32.34375,53.984375 C32.1940104,54.1341146 31.969401,54.2838542 31.6699219,54.4335938 C31.5201823,54.7330729 31.3704427,55.0325521 31.2207031,55.3320312 C31.2207031,55.4817708 31.1458333,55.6315104 30.9960938,55.78125 C30.8463542,55.78125 30.6966146,55.78125 30.546875,55.78125 C30.546875,55.9309896 30.4720052,56.0058594 30.3222656,56.0058594 C30.172526,56.0058594 30.0227865,55.9309896 29.8730469,55.78125 C29.7233073,55.78125 29.6484375,55.7063802 29.6484375,55.5566406 C29.4986979,55.5566406 29.4238281,55.4817708 29.4238281,55.3320312 C29.4238281,55.1822917 29.4238281,55.0325521 29.4238281,54.8828125 C29.4238281,54.7330729 29.4238281,54.5833333 29.4238281,54.4335938 C29.7233073,53.984375 30.0227865,53.610026 30.3222656,53.3105469 C30.6217448,52.8613281 30.9960938,52.4869792 31.4453125,52.1875 C31.7447917,52.0377604 32.1940104,51.8880208 32.7929688,51.7382812 C33.2421875,51.5885417 33.766276,51.5136719 34.3652344,51.5136719 C35.2636719,51.5136719 36.0872396,51.6634115 36.8359375,51.9628906 C37.5846354,52.2623698 38.108724,52.6367188 38.4082031,53.0859375 C38.8574219,53.5351562 39.156901,54.0592448 39.3066406,54.6582031 C39.6061198,55.2571615 39.7558594,55.8561198 39.7558594,56.4550781 C39.7558594,57.0540365 39.6809896,57.578125 39.53125,58.0273438 C39.2317708,58.6263021 38.9322917,59.1503906 38.6328125,59.5996094 C38.1835938,60.1985677 37.6595052,60.7226562 37.0605469,61.171875 C36.4615885,61.7708333 35.7877604,62.2949219 35.0390625,62.7441406 C34.2903646,63.1933594 33.6914062,63.6425781 33.2421875,64.0917969 C32.7929688,64.5410156 32.4186198,65.0651042 32.1191406,65.6640625 C31.8196615,66.1132812 31.5201823,66.5625 31.2207031,67.0117188 C31.0709635,67.4609375 30.921224,67.8352865 30.7714844,68.1347656 C31.6699219,68.1347656 32.7929688,68.1347656 34.140625,68.1347656 C35.4882812,68.1347656 37.1354167,68.1347656 39.0820312,68.1347656 Z" transform="translate(-17)"/></svg>