<svg xmlns="http://www.w3.org/2000/svg" width="121" height="203" viewBox="0 0 121 203"><path fill="#131313" d="M2897.42578,68 C2904.61328,68 2910.22852,70.4707031 2914.27148,75.4121094 C2918.46419,80.3535156 2920.56055,87.0917969 2920.56055,95.6269531 C2920.56055,106.707682 2920.56055,123.328776 2920.56055,145.490234 C2920.56055,147.736328 2919.73698,149.682943 2918.08984,151.330078 C2916.59245,152.827474 2914.7207,153.576172 2912.47461,153.576172 C2910.22852,153.576172 2908.2819,152.827474 2906.63477,151.330078 C2904.98763,149.682943 2904.16406,147.736328 2904.16406,145.490234 C2904.16406,134.409505 2904.16406,117.788411 2904.16406,95.6269531 C2904.16406,89.936849 2903.34049,86.6425781 2901.69336,85.7441406 C2899.89648,84.6959635 2898.47396,84.171875 2897.42578,84.171875 C2894.28125,84.171875 2890.83724,86.0436198 2887.09375,89.7871094 C2883.35026,93.6803385 2881.47852,97.1992188 2881.47852,100.34375 C2881.47852,110.376302 2881.47852,125.42513 2881.47852,145.490234 C2881.47852,147.736328 2880.65495,149.682943 2879.00781,151.330078 C2877.51042,152.827474 2875.63867,153.576172 2873.39258,153.576172 C2871.14648,153.576172 2869.19987,152.827474 2867.55273,151.330078 C2865.9056,149.682943 2865.08203,147.736328 2865.08203,145.490234 C2865.08203,135.457682 2865.08203,120.408854 2865.08203,100.34375 C2865.08203,99.2955729 2865.08203,97.7233073 2865.08203,95.6269531 C2865.08203,89.936849 2864.25846,86.6425781 2862.61133,85.7441406 C2860.81445,84.6959635 2859.39193,84.171875 2858.34375,84.171875 C2855.19922,84.171875 2851.75521,86.0436198 2848.01172,89.7871094 C2844.26823,93.6803385 2842.39648,97.1992188 2842.39648,100.34375 C2842.39648,106.033854 2842.39648,114.56901 2842.39648,125.949219 C2842.39648,130.291667 2842.39648,136.805339 2842.39648,145.490234 C2842.39648,147.736328 2841.57292,149.682943 2839.92578,151.330078 C2838.27865,152.827474 2836.33203,153.576172 2834.08594,153.576172 C2831.98958,153.576172 2830.11784,152.827474 2828.4707,151.330078 C2826.82357,149.682943 2826,147.736328 2826,145.490234 C2826,141.147786 2826,134.634115 2826,125.949219 C2826,120.259115 2826,111.649089 2826,100.119141 C2826,94.8782552 2826,86.8671875 2826,76.0859375 C2826,73.8398438 2826.82357,71.8932292 2828.4707,70.2460938 C2829.9681,68.7486979 2831.83984,68 2834.08594,68 C2836.03255,68 2837.67969,68.5240885 2839.02734,69.5722656 C2840.52474,70.6204427 2841.49805,71.968099 2841.94727,73.6152344 C2844.49284,71.968099 2847.18815,70.6204427 2850.0332,69.5722656 C2852.72852,68.5240885 2855.4987,68 2858.34375,68 C2862.38672,68 2865.9056,68.7486979 2868.90039,70.2460938 C2872.04492,71.8932292 2874.66536,74.2141927 2876.76172,77.2089844 C2879.75651,74.5136719 2883.05078,72.2675781 2886.64453,70.4707031 C2890.23828,68.8235677 2893.83203,68 2897.42578,68 Z M2894.37891,58.15625 C2895.72656,58.15625 2897.07422,58.2311198 2898.42187,58.3808594 C2899.76953,58.530599 2901.04232,58.7552083 2902.24023,59.0546875 C2902.09049,59.5039062 2901.79102,60.1777344 2901.3418,61.0761719 C2900.14388,60.9264323 2898.94596,60.7766927 2897.74805,60.6269531 C2896.69987,60.4772135 2895.57682,60.4023438 2894.37891,60.4023438 C2892.58203,60.4023438 2890.78516,60.5520833 2888.98828,60.8515625 C2887.19141,61.1510417 2885.39453,61.6002604 2883.59766,62.1992188 C2883.59766,62.0494792 2883.52279,61.8248698 2883.37305,61.5253906 C2883.37305,61.2259115 2883.29818,60.9264323 2883.14844,60.6269531 C2883.14844,60.6269531 2883.07357,60.5520833 2882.92383,60.4023438 C2882.92383,60.4023438 2882.84896,60.327474 2882.69922,60.1777344 C2884.64583,59.578776 2886.59245,59.0546875 2888.53906,58.6054688 C2890.48568,58.3059896 2892.43229,58.15625 2894.37891,58.15625 Z M2880.90234,66.9160156 C2881.65104,66.4667969 2882.25,65.7929688 2882.69922,64.8945313 C2883.14844,64.1458333 2883.29818,63.3222656 2883.14844,62.4238281 C2883.14844,62.4238281 2883.22331,62.4238281 2883.37305,62.4238281 C2883.52279,62.4238281 2883.59766,62.3489583 2883.59766,62.1992188 C2883.7474,63.2473958 2883.59766,64.2207031 2883.14844,65.1191406 C2882.69922,66.0175781 2882.02539,66.766276 2881.12695,67.3652344 C2879.92904,67.9641927 2878.73112,68.0390625 2877.5332,67.5898438 C2876.18555,67.2903646 2875.21224,66.5416667 2874.61328,65.34375 C2873.86458,64.1458333 2873.71484,62.8730469 2874.16406,61.5253906 C2874.61328,60.327474 2875.36198,59.3541667 2876.41016,58.6054688 C2877.60807,58.0065104 2878.80599,57.8567708 2880.00391,58.15625 C2881.20182,58.4557292 2882.10026,59.1295573 2882.69922,60.1777344 C2882.69922,60.1777344 2882.62435,60.1777344 2882.47461,60.1777344 C2882.32487,60.1777344 2882.25,60.2526042 2882.25,60.4023438 C2881.5013,59.5039063 2880.67773,58.9798177 2879.7793,58.8300781 C2878.73112,58.530599 2877.75781,58.6803385 2876.85937,59.2792969 C2875.8112,59.8782552 2875.0625,60.7018229 2874.61328,61.75 C2874.3138,62.9479167 2874.46354,64.0709635 2875.0625,65.1191406 C2875.66146,66.1673177 2876.48503,66.8411458 2877.5332,67.140625 C2878.73112,67.4401042 2879.85417,67.3652344 2880.90234,66.9160156 Z M2882.69922,60.1777344 C2882.84896,60.327474 2882.92383,60.4023438 2882.92383,60.4023438 C2883.07357,60.5520833 2883.14844,60.6269531 2883.14844,60.6269531 C2883.29818,60.9264323 2883.37305,61.2259115 2883.37305,61.5253906 C2883.52279,61.8248698 2883.59766,62.0494792 2883.59766,62.1992188 C2883.59766,62.3489583 2883.52279,62.4238281 2883.37305,62.4238281 C2883.22331,62.4238281 2883.14844,62.4238281 2883.14844,62.4238281 C2883.14844,62.2740885 2883.07357,62.0494792 2882.92383,61.75 C2882.92383,61.4505208 2882.84896,61.2259115 2882.69922,61.0761719 C2882.54948,60.9264323 2882.47461,60.7766927 2882.47461,60.6269531 C2882.32487,60.4772135 2882.25,60.4023438 2882.25,60.4023438 C2882.25,60.4023438 2882.32487,60.327474 2882.47461,60.1777344 C2882.62435,60.1777344 2882.69922,60.1777344 2882.69922,60.1777344 Z M2876.85937,59.2792969 C2877.75781,58.6803385 2878.73112,58.530599 2879.7793,58.8300781 C2880.67773,58.9798177 2881.5013,59.5039063 2882.25,60.4023438 C2882.10026,60.4023438 2881.95052,60.4023438 2881.80078,60.4023438 C2881.80078,60.5520833 2881.72591,60.6269531 2881.57617,60.6269531 C2880.97721,60.0279948 2880.30339,59.578776 2879.55469,59.2792969 C2878.65625,59.1295573 2877.83268,59.2792969 2877.08398,59.7285156 C2876.18555,60.1777344 2875.58659,60.9264323 2875.28711,61.9746094 C2874.98763,63.0227865 2875.0625,63.9960938 2875.51172,64.8945313 C2875.96094,65.7929688 2876.70964,66.3919271 2877.75781,66.6914063 C2878.80599,66.9908854 2879.7793,66.9160156 2880.67773,66.4667969 C2881.27669,66.0175781 2881.72591,65.4934896 2882.02539,64.8945313 C2882.47461,64.1458333 2882.62435,63.3971354 2882.47461,62.6484375 C2882.62435,62.6484375 2882.77409,62.6484375 2882.92383,62.6484375 C2882.92383,62.6484375 2882.9987,62.5735677 2883.14844,62.4238281 C2883.29818,63.3222656 2883.14844,64.1458333 2882.69922,64.8945313 C2882.25,65.7929688 2881.65104,66.4667969 2880.90234,66.9160156 C2879.85417,67.514974 2878.73112,67.5898438 2877.5332,67.140625 C2876.33529,66.8411458 2875.51172,66.1673177 2875.0625,65.1191406 C2874.46354,64.0709635 2874.3138,62.9479167 2874.61328,61.75 C2875.0625,60.7018229 2875.8112,59.8782552 2876.85937,59.2792969 Z M2882.02539,61.3007812 C2882.02539,61.1510417 2881.95052,61.0013021 2881.80078,60.8515625 C2881.80078,60.8515625 2881.72591,60.7766927 2881.57617,60.6269531 C2881.72591,60.6269531 2881.87565,60.5520833 2882.02539,60.4023438 C2882.02539,60.4023438 2882.10026,60.4023438 2882.25,60.4023438 C2882.25,60.4023438 2882.32487,60.4772135 2882.47461,60.6269531 C2882.47461,60.7766927 2882.54948,60.9264323 2882.69922,61.0761719 C2882.84896,61.2259115 2882.92383,61.4505208 2882.92383,61.75 C2883.07357,62.0494792 2883.14844,62.2740885 2883.14844,62.4238281 C2882.9987,62.4238281 2882.92383,62.4986979 2882.92383,62.6484375 C2882.77409,62.6484375 2882.62435,62.6484375 2882.47461,62.6484375 C2882.47461,62.4986979 2882.47461,62.2740885 2882.47461,61.9746094 C2882.32487,61.6751302 2882.17513,61.4505208 2882.02539,61.3007812 Z M2902.24023,59.0546875 C2902.38997,58.6054688 2902.68945,57.8567708 2903.13867,56.8085938 C2905.38477,58.6054688 2908.75391,61.375651 2913.24609,65.1191406 C2910.40104,64.6699219 2906.13346,63.921224 2900.44336,62.8730469 C2900.5931,62.5735677 2900.89258,61.9746094 2901.3418,61.0761719 C2901.64128,61.2259115 2902.01562,61.3007812 2902.46484,61.3007812 C2902.91406,61.4505208 2903.28841,61.6002604 2903.58789,61.75 C2903.73763,61.3007812 2903.96224,60.5520833 2904.26172,59.5039062 C2903.96224,59.3541667 2903.66276,59.2792969 2903.36328,59.2792969 C2902.91406,59.1295573 2902.53971,59.0546875 2902.24023,59.0546875 Z M2904.26172,59.5039062 C2904.11198,59.953125 2903.96224,60.7018229 2903.8125,61.75 C2903.36328,61.6002604 2902.91406,61.4505208 2902.46484,61.3007812 C2902.01562,61.3007812 2901.64128,61.2259115 2901.3418,61.0761719 C2901.49154,60.6269531 2901.79102,59.953125 2902.24023,59.0546875 C2902.53971,59.0546875 2902.91406,59.1295573 2903.36328,59.2792969 C2903.66276,59.2792969 2903.96224,59.3541667 2904.26172,59.5039062 Z M2850.13086,58.6054688 C2852.37695,58.15625 2854.69792,58.0065104 2857.09375,58.15625 C2859.33984,58.3059896 2861.51107,58.6054688 2863.60742,59.0546875 C2863.45768,59.5039062 2863.1582,60.1777344 2862.70898,61.0761719 C2860.76237,60.7766927 2858.81576,60.5520833 2856.86914,60.4023438 C2854.77279,60.2526042 2852.67643,60.4023438 2850.58008,60.8515625 C2850.58008,60.5520833 2850.58008,60.2526042 2850.58008,59.953125 C2850.58008,59.6536458 2850.50521,59.3541667 2850.35547,59.0546875 C2850.35547,58.9049479 2850.2806,58.8300781 2850.13086,58.8300781 C2850.13086,58.6803385 2850.13086,58.6054688 2850.13086,58.6054688 Z M2847.21094,64.6699219 C2848.10937,64.3704427 2848.7832,63.921224 2849.23242,63.3222656 C2849.68164,62.5735677 2849.98112,61.75 2850.13086,60.8515625 C2850.13086,60.8515625 2850.20573,60.8515625 2850.35547,60.8515625 C2850.35547,60.8515625 2850.43034,60.8515625 2850.58008,60.8515625 C2850.58008,61.75 2850.2806,62.6484375 2849.68164,63.546875 C2849.08268,64.2955729 2848.33398,64.8945312 2847.43555,65.34375 C2846.08789,65.7929688 2844.8151,65.718099 2843.61719,65.1191406 C2842.41927,64.5201823 2841.5957,63.6217448 2841.14648,62.4238281 C2840.69727,61.0761719 2840.77214,59.8033854 2841.37109,58.6054688 C2841.82031,57.4075521 2842.71875,56.5839844 2844.06641,56.1347656 C2845.26432,55.6855469 2846.38737,55.6855469 2847.43555,56.1347656 C2848.63346,56.5839844 2849.5319,57.4075521 2850.13086,58.6054688 C2849.98112,58.6054688 2849.83138,58.6054688 2849.68164,58.6054688 C2849.68164,58.6054688 2849.60677,58.6054688 2849.45703,58.6054688 C2849.00781,57.7070312 2848.25911,57.0332031 2847.21094,56.5839844 C2846.3125,56.2845052 2845.33919,56.2845052 2844.29102,56.5839844 C2843.0931,57.0332031 2842.26953,57.781901 2841.82031,58.8300781 C2841.37109,59.8782552 2841.29622,61.0013021 2841.5957,62.1992188 C2842.04492,63.2473958 2842.79362,64.0709635 2843.8418,64.6699219 C2844.88997,65.1191406 2846.01302,65.1191406 2847.21094,64.6699219 Z M2850.13086,58.6054688 C2850.13086,58.6054688 2850.13086,58.6803385 2850.13086,58.8300781 C2850.2806,58.8300781 2850.35547,58.9049479 2850.35547,59.0546875 C2850.50521,59.3541667 2850.58008,59.6536458 2850.58008,59.953125 C2850.58008,60.2526042 2850.58008,60.5520833 2850.58008,60.8515625 C2850.43034,60.8515625 2850.35547,60.8515625 2850.35547,60.8515625 C2850.20573,60.8515625 2850.13086,60.8515625 2850.13086,60.8515625 C2850.13086,60.5520833 2850.05599,60.2526042 2849.90625,59.953125 C2849.90625,59.8033854 2849.90625,59.578776 2849.90625,59.2792969 C2849.75651,59.1295573 2849.68164,58.9798177 2849.68164,58.8300781 C2849.68164,58.8300781 2849.60677,58.7552083 2849.45703,58.6054688 C2849.60677,58.6054688 2849.75651,58.6054688 2849.90625,58.6054688 C2849.90625,58.6054688 2849.98112,58.6054688 2850.13086,58.6054688 Z M2844.06641,57.2578125 C2844.06641,57.2578125 2844.14128,57.2578125 2844.29102,57.2578125 C2844.29102,57.2578125 2844.36589,57.1829427 2844.51562,57.0332031 C2844.51562,57.0332031 2844.51562,57.0332031 2844.51562,57.0332031 C2844.51562,57.0332031 2844.51562,57.1080729 2844.51562,57.2578125 C2844.36589,57.2578125 2844.21615,57.2578125 2844.06641,57.2578125 C2844.06641,57.2578125 2844.06641,57.2578125 2844.06641,57.2578125 Z M2844.29102,56.5839844 C2845.33919,56.2845052 2846.3125,56.2845052 2847.21094,56.5839844 C2848.25911,57.0332031 2849.00781,57.7070312 2849.45703,58.6054688 C2849.45703,58.6054688 2849.38216,58.6054688 2849.23242,58.6054688 C2849.08268,58.6054688 2849.00781,58.6803385 2849.00781,58.8300781 C2848.55859,58.0813802 2847.88477,57.5572917 2846.98633,57.2578125 C2846.23763,56.9583333 2845.41406,56.9583333 2844.51562,57.2578125 C2844.51562,57.2578125 2844.51562,57.2578125 2844.51562,57.2578125 C2844.51562,57.2578125 2844.51562,57.2578125 2844.51562,57.2578125 C2844.51562,57.1080729 2844.59049,57.0332031 2844.74023,57.0332031 C2844.74023,57.0332031 2844.74023,57.0332031 2844.74023,57.0332031 C2844.74023,57.0332031 2844.74023,57.0332031 2844.74023,57.0332031 C2844.74023,57.0332031 2844.74023,57.0332031 2844.74023,57.0332031 C2844.74023,57.0332031 2844.74023,57.0332031 2844.74023,57.0332031 C2844.74023,57.0332031 2844.74023,57.0332031 2844.74023,57.0332031 C2844.74023,57.0332031 2844.74023,57.0332031 2844.74023,57.0332031 C2844.59049,57.0332031 2844.51562,57.1080729 2844.51562,57.2578125 C2844.36589,57.2578125 2844.29102,57.2578125 2844.29102,57.2578125 C2844.14128,57.2578125 2844.06641,57.2578125 2844.06641,57.2578125 C2844.06641,57.2578125 2844.06641,57.2578125 2844.06641,57.2578125 C2844.21615,57.2578125 2844.36589,57.2578125 2844.51562,57.2578125 C2843.46745,57.5572917 2842.71875,58.15625 2842.26953,59.0546875 C2841.82031,59.953125 2841.82031,60.9264323 2842.26953,61.9746094 C2842.56901,62.8730469 2843.16797,63.546875 2844.06641,63.9960938 C2844.96484,64.4453125 2845.93815,64.5201823 2846.98633,64.2207031 C2847.73503,63.921224 2848.33398,63.4720052 2848.7832,62.8730469 C2849.23242,62.2740885 2849.45703,61.6751302 2849.45703,61.0761719 C2849.60677,60.9264323 2849.68164,60.8515625 2849.68164,60.8515625 C2849.83138,60.8515625 2849.98112,60.8515625 2850.13086,60.8515625 C2849.98112,61.75 2849.68164,62.5735677 2849.23242,63.3222656 C2848.7832,63.921224 2848.10937,64.3704427 2847.21094,64.6699219 C2846.01302,65.1191406 2844.88997,65.1191406 2843.8418,64.6699219 C2842.79362,64.0709635 2842.04492,63.2473958 2841.5957,62.1992188 C2841.29622,61.0013021 2841.37109,59.8782552 2841.82031,58.8300781 C2842.26953,57.781901 2843.0931,57.0332031 2844.29102,56.5839844 Z M2849.23242,59.5039062 C2849.23242,59.3541667 2849.15755,59.2044271 2849.00781,59.0546875 C2849.00781,58.9049479 2849.00781,58.8300781 2849.00781,58.8300781 C2849.00781,58.6803385 2849.08268,58.6054688 2849.23242,58.6054688 C2849.38216,58.6054688 2849.45703,58.6054688 2849.45703,58.6054688 C2849.60677,58.7552083 2849.68164,58.8300781 2849.68164,58.8300781 C2849.68164,58.9798177 2849.75651,59.1295573 2849.90625,59.2792969 C2849.90625,59.578776 2849.90625,59.8033854 2849.90625,59.953125 C2850.05599,60.2526042 2850.13086,60.5520833 2850.13086,60.8515625 C2849.98112,60.8515625 2849.83138,60.8515625 2849.68164,60.8515625 C2849.68164,60.8515625 2849.60677,60.9264323 2849.45703,61.0761719 C2849.45703,60.7766927 2849.45703,60.4772135 2849.45703,60.1777344 C2849.45703,59.8782552 2849.38216,59.6536458 2849.23242,59.5039062 Z M2863.60742,59.0546875 C2863.9069,58.6054688 2864.28125,57.9316406 2864.73047,57.0332031 C2866.82682,58.8300781 2870.12109,61.6002604 2874.61328,65.34375 C2871.76823,64.8945312 2867.50065,64.1458333 2861.81055,63.0976562 C2861.96029,62.6484375 2862.25977,62.0494792 2862.70898,61.3007812 C2863.1582,61.3007812 2863.53255,61.375651 2863.83203,61.5253906 C2864.28125,61.6751302 2864.73047,61.8248698 2865.17969,61.9746094 C2865.32943,61.375651 2865.55404,60.6269531 2865.85352,59.7285156 C2865.4043,59.578776 2865.02995,59.4290365 2864.73047,59.2792969 C2864.43099,59.2792969 2864.05664,59.2044271 2863.60742,59.0546875 Z M2865.85352,59.7285156 C2865.70378,60.1777344 2865.47917,60.8515625 2865.17969,61.75 C2864.73047,61.6002604 2864.28125,61.5253906 2863.83203,61.5253906 C2863.53255,61.375651 2863.1582,61.2259115 2862.70898,61.0761719 C2862.85872,60.6269531 2863.1582,59.953125 2863.60742,59.0546875 C2864.05664,59.2044271 2864.43099,59.2792969 2864.73047,59.2792969 C2865.02995,59.4290365 2865.4043,59.578776 2865.85352,59.7285156 Z M2811.94727,86.90625 C2812.09701,86.90625 2812.32161,86.90625 2812.62109,86.90625 C2812.77083,86.90625 2812.92057,86.90625 2813.07031,86.90625 C2813.22005,86.90625 2813.44466,86.90625 2813.74414,86.90625 C2813.89388,86.90625 2814.04362,86.90625 2814.19336,86.90625 C2814.19336,97.3880208 2814.19336,113.110677 2814.19336,134.074219 C2813.74414,134.074219 2812.99544,134.074219 2811.94727,134.074219 C2811.94727,126.28776 2811.94727,118.426432 2811.94727,110.490234 C2811.94727,102.554036 2811.94727,94.6927083 2811.94727,86.90625 Z M2811.94727,136.320312 C2811.94727,135.871094 2811.94727,135.122396 2811.94727,134.074219 C2811.49805,134.074219 2810.74935,134.074219 2809.70117,134.074219 C2810.44987,136.919271 2811.57292,141.111979 2813.07031,146.652344 C2813.81901,143.807292 2814.94206,139.614583 2816.43945,134.074219 C2815.99023,134.074219 2815.24154,134.074219 2814.19336,134.074219 C2814.19336,134.673177 2814.19336,135.421875 2814.19336,136.320312 C2813.74414,136.320312 2812.99544,136.320312 2811.94727,136.320312 Z M2811.94727,136.320312 C2812.39648,136.320312 2813.14518,136.320312 2814.19336,136.320312 C2814.19336,135.871094 2814.19336,135.122396 2814.19336,134.074219 C2813.74414,134.074219 2812.99544,134.074219 2811.94727,134.074219 C2811.94727,134.673177 2811.94727,135.421875 2811.94727,136.320312 Z M2813.07031,77.2480469 C2814.41797,77.2480469 2815.61589,77.6972656 2816.66406,78.5957031 C2817.5625,79.4941406 2818.01172,80.6920573 2818.01172,82.1894531 C2818.01172,83.2376302 2817.63737,84.2109375 2816.88867,85.109375 C2816.13997,86.0078125 2815.24154,86.6067708 2814.19336,86.90625 C2814.19336,86.7565104 2814.19336,86.531901 2814.19336,86.2324219 C2815.0918,85.9329427 2815.84049,85.4088542 2816.43945,84.6601562 C2817.03841,83.9114583 2817.33789,83.0878906 2817.33789,82.1894531 C2817.33789,80.9915365 2816.96354,79.9433594 2816.21484,79.0449219 C2815.31641,78.1464844 2814.26823,77.6972656 2813.07031,77.6972656 C2811.8724,77.6972656 2810.89909,78.1464844 2810.15039,79.0449219 C2809.25195,79.9433594 2808.80273,80.9915365 2808.80273,82.1894531 C2808.80273,83.0878906 2809.10221,83.9114583 2809.70117,84.6601562 C2810.30013,85.4088542 2811.04883,85.9329427 2811.94727,86.2324219 C2811.94727,86.3821615 2811.94727,86.6067708 2811.94727,86.90625 C2810.89909,86.6067708 2810.00065,86.0078125 2809.25195,85.109375 C2808.50326,84.2109375 2808.12891,83.2376302 2808.12891,82.1894531 C2808.12891,80.8417969 2808.65299,79.6438802 2809.70117,78.5957031 C2810.59961,77.6972656 2811.72266,77.2480469 2813.07031,77.2480469 Z M2813.07031,86.4570312 C2813.36979,86.4570312 2813.5944,86.4570312 2813.74414,86.4570312 C2813.89388,86.3072917 2814.04362,86.2324219 2814.19336,86.2324219 C2814.19336,86.3821615 2814.19336,86.6067708 2814.19336,86.90625 C2814.04362,86.90625 2813.89388,86.90625 2813.74414,86.90625 C2813.44466,86.90625 2813.22005,86.90625 2813.07031,86.90625 C2812.92057,86.90625 2812.77083,86.90625 2812.62109,86.90625 C2812.32161,86.90625 2812.09701,86.90625 2811.94727,86.90625 C2811.94727,86.7565104 2811.94727,86.531901 2811.94727,86.2324219 C2812.09701,86.2324219 2812.32161,86.3072917 2812.62109,86.4570312 C2812.77083,86.4570312 2812.92057,86.4570312 2813.07031,86.4570312 Z M2809.25195,82.1894531 C2809.25195,82.938151 2809.55143,83.6119792 2810.15039,84.2109375 C2810.59961,84.9596354 2811.19857,85.4088542 2811.94727,85.5585938 C2811.94727,85.7083333 2811.94727,85.9329427 2811.94727,86.2324219 C2811.04883,85.9329427 2810.30013,85.4088542 2809.70117,84.6601562 C2809.10221,83.9114583 2808.80273,83.0878906 2808.80273,82.1894531 C2808.80273,80.9915365 2809.25195,79.9433594 2810.15039,79.0449219 C2810.89909,78.1464844 2811.8724,77.6972656 2813.07031,77.6972656 C2814.26823,77.6972656 2815.31641,78.1464844 2816.21484,79.0449219 C2816.96354,79.9433594 2817.33789,80.9915365 2817.33789,82.1894531 C2817.33789,83.0878906 2817.03841,83.9114583 2816.43945,84.6601562 C2815.84049,85.4088542 2815.0918,85.9329427 2814.19336,86.2324219 C2814.19336,86.0826823 2814.19336,85.8580729 2814.19336,85.5585938 C2814.94206,85.4088542 2815.61589,84.9596354 2816.21484,84.2109375 C2816.66406,83.6119792 2816.88867,82.938151 2816.88867,82.1894531 C2816.88867,81.141276 2816.51432,80.2428385 2815.76562,79.4941406 C2815.01693,78.7454427 2814.11849,78.3710938 2813.07031,78.3710938 C2812.02214,78.3710938 2811.1237,78.7454427 2810.375,79.4941406 C2809.6263,80.2428385 2809.25195,81.141276 2809.25195,82.1894531 C2809.25195,81.889974 2809.25195,81.7402344 2809.25195,81.7402344 C2809.25195,81.5904948 2809.25195,81.515625 2809.25195,81.515625 C2809.25195,81.515625 2809.25195,81.5904948 2809.25195,81.7402344 C2809.25195,81.7402344 2809.25195,81.889974 2809.25195,82.1894531 C2809.25195,82.3391927 2809.25195,82.4140625 2809.25195,82.4140625 C2809.25195,82.5638021 2809.25195,82.6386719 2809.25195,82.6386719 C2809.25195,82.6386719 2809.25195,82.5638021 2809.25195,82.4140625 C2809.25195,82.4140625 2809.25195,82.3391927 2809.25195,82.1894531 Z M2814.19336,86.2324219 C2814.04362,86.2324219 2813.89388,86.3072917 2813.74414,86.4570312 C2813.44466,86.4570312 2813.22005,86.4570312 2813.07031,86.4570312 C2812.92057,86.4570312 2812.77083,86.4570312 2812.62109,86.4570312 C2812.32161,86.3072917 2812.09701,86.2324219 2811.94727,86.2324219 C2811.94727,86.0826823 2811.94727,85.8580729 2811.94727,85.5585938 C2812.09701,85.7083333 2812.32161,85.7832031 2812.62109,85.7832031 C2812.77083,85.7832031 2812.92057,85.7832031 2813.07031,85.7832031 C2813.36979,85.7832031 2813.5944,85.7832031 2813.74414,85.7832031 C2813.89388,85.7832031 2814.04362,85.7083333 2814.19336,85.5585938 C2814.19336,85.7083333 2814.19336,85.8580729 2814.19336,86.0078125 C2814.19336,86.0078125 2814.19336,86.0826823 2814.19336,86.2324219 Z M2886.29297,37.7167969 C2886.29297,38.4654948 2886.14323,39.0644531 2885.84375,39.5136719 C2885.54427,40.1126302 2885.16992,40.6367188 2884.7207,41.0859375 C2884.57096,41.2356771 2884.42122,41.3105469 2884.27148,41.3105469 C2884.27148,41.4602865 2884.19661,41.5351562 2884.04687,41.5351562 C2883.89714,41.3854167 2883.67253,41.3105469 2883.37305,41.3105469 C2883.22331,41.1608073 2883.07357,41.0859375 2882.92383,41.0859375 C2882.47461,40.9361979 2882.10026,40.7864583 2881.80078,40.6367188 C2881.35156,40.6367188 2880.90234,40.6367188 2880.45312,40.6367188 C2880.45312,40.6367188 2880.45312,40.6367188 2880.45312,40.6367188 C2880.45312,40.6367188 2880.52799,40.6367188 2880.67773,40.6367188 C2881.12695,40.6367188 2881.57617,40.561849 2882.02539,40.4121094 C2882.47461,40.2623698 2882.84896,40.0377604 2883.14844,39.7382812 C2883.59766,39.4388021 2883.89714,39.1393229 2884.04687,38.8398438 C2884.19661,38.5403646 2884.27148,38.1660156 2884.27148,37.7167969 C2884.27148,37.5670573 2884.27148,37.3424479 2884.27148,37.0429688 C2884.27148,36.8932292 2884.19661,36.7434896 2884.04687,36.59375 C2884.04687,36.4440104 2883.97201,36.2942708 2883.82227,36.1445312 C2883.67253,36.1445312 2883.59766,36.0696615 2883.59766,35.9199219 C2883.44792,35.7701823 2883.29818,35.6204427 2883.14844,35.4707031 C2882.9987,35.3209635 2882.77409,35.2460938 2882.47461,35.2460938 C2882.32487,35.0963542 2882.17513,35.0214844 2882.02539,35.0214844 C2881.87565,35.0214844 2881.65104,35.0214844 2881.35156,35.0214844 C2881.05208,35.0214844 2880.7526,35.0214844 2880.45312,35.0214844 C2880.15365,35.0214844 2879.85417,35.0963542 2879.55469,35.2460938 C2879.25521,35.3958333 2879.0306,35.5455729 2878.88086,35.6953125 C2878.58138,35.8450521 2878.35677,35.9947917 2878.20703,36.1445312 C2878.20703,36.2942708 2878.13216,36.3691406 2877.98242,36.3691406 C2877.83268,36.5188802 2877.68294,36.59375 2877.5332,36.59375 C2877.38346,36.59375 2877.30859,36.5188802 2877.30859,36.3691406 C2877.15885,36.3691406 2877.00911,36.3691406 2876.85937,36.3691406 C2876.70964,36.219401 2876.63477,36.0696615 2876.63477,35.9199219 C2876.63477,35.9199219 2876.63477,35.8450521 2876.63477,35.6953125 C2876.63477,35.5455729 2876.63477,35.3958333 2876.63477,35.2460938 C2876.63477,35.0963542 2876.70964,34.9466146 2876.85937,34.796875 C2877.15885,34.4973958 2877.45833,34.2727865 2877.75781,34.1230469 C2878.05729,33.8235677 2878.43164,33.5989583 2878.88086,33.4492188 C2879.18034,33.2994792 2879.55469,33.1497396 2880.00391,33 C2880.45312,33 2880.90234,33 2881.35156,33 C2881.80078,33 2882.17513,33 2882.47461,33 C2882.77409,33.1497396 2883.07357,33.2994792 2883.37305,33.4492188 C2883.67253,33.4492188 2883.97201,33.5989583 2884.27148,33.8984375 C2884.57096,34.0481771 2884.79557,34.1979167 2884.94531,34.3476562 C2885.24479,34.6471354 2885.4694,34.9466146 2885.61914,35.2460938 C2885.76888,35.3958333 2885.91862,35.6204427 2886.06836,35.9199219 C2886.06836,36.219401 2886.14323,36.5188802 2886.29297,36.8183594 C2886.29297,37.1178385 2886.29297,37.4173177 2886.29297,37.7167969 C2886.29297,37.7167969 2886.29297,37.7167969 2886.29297,37.7167969 C2886.29297,37.7167969 2886.29297,37.7167969 2886.29297,37.7167969 Z M2880.45312,40.6367188 C2880.90234,40.6367188 2881.35156,40.6367188 2881.80078,40.6367188 C2882.10026,40.7864583 2882.47461,40.8613281 2882.92383,40.8613281 C2883.07357,41.0110677 2883.22331,41.1608073 2883.37305,41.3105469 C2883.67253,41.3105469 2883.89714,41.3854167 2884.04687,41.5351562 C2883.59766,41.8346354 2883.07357,42.0592448 2882.47461,42.2089844 C2881.87565,42.358724 2881.27669,42.4335938 2880.67773,42.4335938 C2880.52799,42.4335938 2880.37826,42.4335938 2880.22852,42.4335938 C2880.07878,42.4335938 2880.00391,42.358724 2880.00391,42.2089844 C2879.85417,42.0592448 2879.7793,41.984375 2879.7793,41.984375 C2879.62956,41.8346354 2879.55469,41.6848958 2879.55469,41.5351562 C2879.55469,41.3854167 2879.62956,41.2356771 2879.7793,41.0859375 C2879.7793,41.0859375 2879.85417,41.0110677 2880.00391,40.8613281 C2880.00391,40.7115885 2880.07878,40.6367188 2880.22852,40.6367188 C2880.37826,40.6367188 2880.45312,40.6367188 2880.45312,40.6367188 Z M2880.00391,42.2089844 C2880.00391,42.358724 2880.07878,42.4335938 2880.22852,42.4335938 C2880.37826,42.4335938 2880.52799,42.4335938 2880.67773,42.4335938 C2881.27669,42.4335938 2881.87565,42.358724 2882.47461,42.2089844 C2883.07357,42.0592448 2883.59766,41.8346354 2884.04687,41.5351562 C2884.19661,41.6848958 2884.34635,41.7597656 2884.49609,41.7597656 C2884.64583,41.9095052 2884.79557,42.0592448 2884.94531,42.2089844 C2885.09505,42.5084635 2885.24479,42.8079427 2885.39453,43.1074219 C2885.69401,43.2571615 2885.84375,43.5566406 2885.84375,44.0058594 C2885.99349,44.3053385 2886.14323,44.6048177 2886.29297,44.9042969 C2886.29297,45.3535156 2886.29297,45.7278646 2886.29297,46.0273438 C2886.29297,46.9257813 2886.14323,47.6744792 2885.84375,48.2734375 C2885.54427,48.8723958 2885.09505,49.4713542 2884.49609,50.0703125 C2884.04687,50.5195313 2883.44792,50.8938802 2882.69922,51.1933594 C2881.95052,51.4928385 2881.12695,51.6425781 2880.22852,51.6425781 C2879.62956,51.6425781 2879.10547,51.5677083 2878.65625,51.4179688 C2878.20703,51.2682292 2877.75781,51.1184896 2877.30859,50.96875 C2876.85937,50.6692708 2876.48503,50.3697917 2876.18555,50.0703125 C2875.73633,49.7708333 2875.36198,49.3964844 2875.0625,48.9472656 C2875.0625,48.797526 2875.0625,48.7226563 2875.0625,48.7226563 C2875.0625,48.5729167 2875.0625,48.4231771 2875.0625,48.2734375 C2875.0625,48.2734375 2875.0625,48.2734375 2875.0625,48.2734375 C2875.0625,48.2734375 2875.0625,48.2734375 2875.0625,48.2734375 C2875.0625,48.1236979 2875.0625,47.9739583 2875.0625,47.8242188 C2875.21224,47.6744792 2875.28711,47.5996094 2875.28711,47.5996094 C2875.43685,47.4498698 2875.58659,47.375 2875.73633,47.375 C2875.88607,47.375 2876.03581,47.375 2876.18555,47.375 C2876.33529,47.375 2876.41016,47.4498698 2876.41016,47.5996094 C2876.5599,47.5996094 2876.70964,47.6744792 2876.85937,47.8242188 C2877.00911,48.1236979 2877.23372,48.3483073 2877.5332,48.4980469 C2877.68294,48.797526 2877.90755,49.0221354 2878.20703,49.171875 C2878.50651,49.3216146 2878.80599,49.4713542 2879.10547,49.6210938 C2879.55469,49.6210938 2879.92904,49.6210938 2880.22852,49.6210938 C2880.67773,49.6210938 2881.12695,49.546224 2881.57617,49.3964844 C2882.17513,49.2467448 2882.62435,49.0221354 2882.92383,48.7226563 C2883.37305,48.4231771 2883.7474,48.0488281 2884.04687,47.5996094 C2884.19661,47.1503906 2884.27148,46.6263021 2884.27148,46.0273438 C2884.27148,45.7278646 2884.27148,45.5032552 2884.27148,45.3535156 C2884.27148,45.0540365 2884.19661,44.8294271 2884.04687,44.6796875 C2884.04687,44.5299479 2883.97201,44.3053385 2883.82227,44.0058594 C2883.67253,43.8561198 2883.52279,43.7063802 2883.37305,43.5566406 C2883.22331,43.406901 2883.07357,43.2571615 2882.92383,43.1074219 C2882.62435,42.9576823 2882.32487,42.8828125 2882.02539,42.8828125 C2881.72591,42.7330729 2881.42643,42.6582031 2881.12695,42.6582031 C2880.82747,42.5084635 2880.52799,42.4335938 2880.22852,42.4335938 C2880.07878,42.4335938 2879.92904,42.4335938 2879.7793,42.4335938 C2879.62956,42.4335938 2879.55469,42.358724 2879.55469,42.2089844 C2879.40495,42.0592448 2879.33008,41.984375 2879.33008,41.984375 C2879.33008,41.8346354 2879.33008,41.6848958 2879.33008,41.5351562 C2879.33008,41.3854167 2879.33008,41.2356771 2879.33008,41.0859375 C2879.33008,41.0859375 2879.40495,41.0110677 2879.55469,40.8613281 C2879.55469,40.7115885 2879.62956,40.6367188 2879.7793,40.6367188 C2879.92904,40.6367188 2880.07878,40.6367188 2880.22852,40.6367188 C2880.22852,40.6367188 2880.22852,40.6367188 2880.22852,40.6367188 C2880.37826,40.6367188 2880.45312,40.6367188 2880.45312,40.6367188 C2880.45312,40.6367188 2880.37826,40.6367188 2880.22852,40.6367188 C2880.07878,40.6367188 2880.00391,40.7115885 2880.00391,40.8613281 C2879.85417,41.0110677 2879.7793,41.0859375 2879.7793,41.0859375 C2879.62956,41.2356771 2879.55469,41.3854167 2879.55469,41.5351562 C2879.55469,41.6848958 2879.62956,41.8346354 2879.7793,41.984375 C2879.7793,41.984375 2879.85417,42.0592448 2880.00391,42.2089844 Z M2799.59375,82.8632812 C2799.74349,83.0130208 2799.81836,83.0878906 2799.81836,83.0878906 C2799.9681,83.0878906 2800.04297,83.1627604 2800.04297,83.3125 C2800.04297,83.4622396 2800.11784,83.5371094 2800.26758,83.5371094 C2800.26758,83.686849 2800.26758,83.7617188 2800.26758,83.7617188 C2800.26758,85.7083333 2800.26758,88.0292969 2800.26758,90.7246094 C2800.26758,93.5696615 2800.26758,96.7890625 2800.26758,100.382812 C2800.26758,100.532552 2800.26758,100.682292 2800.26758,100.832031 C2800.11784,100.981771 2799.9681,101.13151 2799.81836,101.28125 C2799.81836,101.28125 2799.74349,101.28125 2799.59375,101.28125 C2799.44401,101.43099 2799.36914,101.505859 2799.36914,101.505859 C2799.2194,101.505859 2799.06966,101.43099 2798.91992,101.28125 C2798.77018,101.28125 2798.62044,101.28125 2798.4707,101.28125 C2798.4707,101.13151 2798.4707,100.981771 2798.4707,100.832031 C2798.32096,100.682292 2798.24609,100.532552 2798.24609,100.382812 C2798.24609,98.8854167 2798.24609,96.9388021 2798.24609,94.5429688 C2798.24609,92.1471354 2798.24609,89.3769531 2798.24609,86.2324219 C2798.24609,86.2324219 2798.17122,86.3072917 2798.02148,86.4570312 C2797.87174,86.6067708 2797.72201,86.7565104 2797.57227,86.90625 C2797.57227,86.90625 2797.4974,86.9811198 2797.34766,87.1308594 C2797.19792,87.1308594 2797.04818,87.1308594 2796.89844,87.1308594 C2796.7487,87.1308594 2796.67383,87.1308594 2796.67383,87.1308594 C2796.52409,86.9811198 2796.37435,86.90625 2796.22461,86.90625 C2796.07487,86.7565104 2796,86.6067708 2796,86.4570312 C2796,86.4570312 2796,86.3821615 2796,86.2324219 C2796,86.0826823 2796,85.9329427 2796,85.7832031 C2796,85.6334635 2796.07487,85.5585938 2796.22461,85.5585938 C2796.52409,85.2591146 2796.89844,84.8847656 2797.34766,84.4355469 C2797.64714,84.1360677 2798.09635,83.686849 2798.69531,83.0878906 C2798.69531,83.0878906 2798.77018,83.0878906 2798.91992,83.0878906 C2798.91992,82.938151 2798.99479,82.8632812 2799.14453,82.8632812 C2799.14453,82.8632812 2799.14453,82.8632812 2799.14453,82.8632812 C2799.14453,82.8632812 2799.2194,82.8632812 2799.36914,82.8632812 C2799.36914,82.8632812 2799.44401,82.8632812 2799.59375,82.8632812 C2799.59375,82.8632812 2799.59375,82.8632812 2799.59375,82.8632812 Z M2835.08203,56.1347656 C2835.23177,56.1347656 2835.30664,56.2096354 2835.30664,56.359375 C2835.45638,56.359375 2835.60612,56.359375 2835.75586,56.359375 C2835.75586,56.5091146 2835.83073,56.6588542 2835.98047,56.8085938 C2835.98047,56.9583333 2835.98047,57.1080729 2835.98047,57.2578125 C2835.98047,57.2578125 2835.98047,57.3326823 2835.98047,57.4824219 C2835.83073,57.6321615 2835.75586,57.781901 2835.75586,57.9316406 C2835.60612,57.9316406 2835.45638,58.0065104 2835.30664,58.15625 C2835.30664,58.15625 2835.23177,58.15625 2835.08203,58.15625 C2834.18359,58.15625 2833.36003,58.15625 2832.61133,58.15625 C2831.86263,58.15625 2831.11393,58.15625 2830.36523,58.15625 C2829.61654,58.15625 2828.79297,58.15625 2827.89453,58.15625 C2827.14583,58.15625 2826.39714,58.15625 2825.64844,58.15625 C2825.4987,58.15625 2825.42383,58.15625 2825.42383,58.15625 C2825.42383,58.15625 2825.34896,58.0813802 2825.19922,57.9316406 C2825.19922,57.9316406 2825.12435,57.9316406 2824.97461,57.9316406 C2824.97461,57.9316406 2824.97461,57.9316406 2824.97461,57.9316406 C2824.82487,57.781901 2824.75,57.7070312 2824.75,57.7070312 C2824.75,57.5572917 2824.75,57.4824219 2824.75,57.4824219 C2824.75,57.4824219 2824.75,57.4075521 2824.75,57.2578125 C2824.75,57.2578125 2824.75,57.2578125 2824.75,57.2578125 C2824.75,57.1080729 2824.75,57.0332031 2824.75,57.0332031 C2824.75,57.0332031 2824.75,57.0332031 2824.75,57.0332031 C2824.75,57.0332031 2824.75,56.8834635 2824.75,56.5839844 C2824.75,56.4342448 2824.82487,56.1347656 2824.97461,55.6855469 C2825.12435,55.2363281 2825.27409,54.7122396 2825.42383,54.1132812 C2825.72331,53.6640625 2826.02279,53.139974 2826.32227,52.5410156 C2826.47201,52.2415365 2826.69661,51.9420573 2826.99609,51.6425781 C2827.29557,51.343099 2827.59505,51.0436198 2827.89453,50.7441406 C2828.19401,50.4446615 2828.49349,50.1451823 2828.79297,49.8457031 C2829.09245,49.546224 2829.4668,49.3216146 2829.91602,49.171875 C2830.81445,48.5729167 2831.48828,48.0488281 2831.9375,47.5996094 C2832.53646,47.1503906 2832.91081,46.7760417 2833.06055,46.4765625 C2833.36003,46.0273438 2833.50977,45.6529948 2833.50977,45.3535156 C2833.65951,45.0540365 2833.73437,44.7545573 2833.73437,44.4550781 C2833.73437,44.3053385 2833.73437,44.155599 2833.73437,44.0058594 C2833.73437,44.0058594 2833.73437,43.9309896 2833.73437,43.78125 C2833.73437,43.6315104 2833.73437,43.4817708 2833.73437,43.3320313 C2833.58464,43.3320313 2833.50977,43.2571615 2833.50977,43.1074219 C2833.36003,42.8079427 2833.21029,42.5833333 2833.06055,42.4335937 C2832.91081,42.2838542 2832.76107,42.1341146 2832.61133,41.984375 C2832.31185,41.8346354 2832.01237,41.6848958 2831.71289,41.5351562 C2831.26367,41.5351562 2830.81445,41.5351562 2830.36523,41.5351562 C2829.91602,41.5351562 2829.54167,41.5351562 2829.24219,41.5351562 C2828.94271,41.6848958 2828.64323,41.8346354 2828.34375,41.984375 C2828.19401,42.1341146 2827.9694,42.2838542 2827.66992,42.4335937 C2827.52018,42.7330729 2827.37044,43.0325521 2827.2207,43.3320313 C2827.2207,43.4817708 2827.14583,43.6315104 2826.99609,43.78125 C2826.84635,43.78125 2826.69661,43.78125 2826.54687,43.78125 C2826.54687,43.9309896 2826.47201,44.0058594 2826.32227,44.0058594 C2826.17253,44.0058594 2826.02279,43.9309896 2825.87305,43.78125 C2825.72331,43.78125 2825.64844,43.7063802 2825.64844,43.5566406 C2825.4987,43.5566406 2825.42383,43.4817708 2825.42383,43.3320313 C2825.42383,43.1822917 2825.42383,43.0325521 2825.42383,42.8828125 C2825.42383,42.7330729 2825.42383,42.5833333 2825.42383,42.4335937 C2825.72331,41.984375 2826.02279,41.610026 2826.32227,41.3105469 C2826.62174,40.8613281 2826.99609,40.4869792 2827.44531,40.1875 C2827.74479,40.0377604 2828.19401,39.8880208 2828.79297,39.7382812 C2829.24219,39.5885417 2829.76628,39.5136719 2830.36523,39.5136719 C2831.26367,39.5136719 2832.08724,39.6634115 2832.83594,39.9628906 C2833.58464,40.2623698 2834.10872,40.6367188 2834.4082,41.0859375 C2834.85742,41.5351562 2835.1569,42.0592448 2835.30664,42.6582031 C2835.60612,43.2571615 2835.75586,43.8561198 2835.75586,44.4550781 C2835.75586,45.0540365 2835.68099,45.578125 2835.53125,46.0273438 C2835.23177,46.6263021 2834.93229,47.1503906 2834.63281,47.5996094 C2834.18359,48.1985677 2833.65951,48.7226562 2833.06055,49.171875 C2832.46159,49.7708333 2831.78776,50.2949219 2831.03906,50.7441406 C2830.29036,51.1933594 2829.69141,51.6425781 2829.24219,52.0917969 C2828.79297,52.5410156 2828.41862,53.0651042 2828.11914,53.6640625 C2827.81966,54.1132812 2827.52018,54.5625 2827.2207,55.0117187 C2827.07096,55.4609375 2826.92122,55.8352865 2826.77148,56.1347656 C2827.66992,56.1347656 2828.79297,56.1347656 2830.14062,56.1347656 C2831.48828,56.1347656 2833.13542,56.1347656 2835.08203,56.1347656 Z" transform="translate(-2813 -12)"/></svg>