<svg xmlns="http://www.w3.org/2000/svg" width="121" height="203" viewBox="0 0 121 203"><path fill="#131313" d="M2897.42578,117 C2904.61328,117 2910.22852,119.470703 2914.27148,124.412109 C2918.46419,129.353516 2920.56055,136.091797 2920.56055,144.626953 C2920.56055,155.707682 2920.56055,172.328776 2920.56055,194.490234 C2920.56055,196.736328 2919.73698,198.682943 2918.08984,200.330078 C2916.59245,201.827474 2914.7207,202.576172 2912.47461,202.576172 C2910.22852,202.576172 2908.2819,201.827474 2906.63477,200.330078 C2904.98763,198.682943 2904.16406,196.736328 2904.16406,194.490234 C2904.16406,183.409505 2904.16406,166.788411 2904.16406,144.626953 C2904.16406,138.936849 2903.34049,135.642578 2901.69336,134.744141 C2899.89648,133.695964 2898.47396,133.171875 2897.42578,133.171875 C2894.28125,133.171875 2890.83724,135.04362 2887.09375,138.787109 C2883.35026,142.680339 2881.47852,146.199219 2881.47852,149.34375 C2881.47852,159.376302 2881.47852,174.42513 2881.47852,194.490234 C2881.47852,196.736328 2880.65495,198.682943 2879.00781,200.330078 C2877.51042,201.827474 2875.63867,202.576172 2873.39258,202.576172 C2871.14648,202.576172 2869.19987,201.827474 2867.55273,200.330078 C2865.9056,198.682943 2865.08203,196.736328 2865.08203,194.490234 C2865.08203,184.457682 2865.08203,169.408854 2865.08203,149.34375 C2865.08203,148.295573 2865.08203,146.723307 2865.08203,144.626953 C2865.08203,138.936849 2864.25846,135.642578 2862.61133,134.744141 C2860.81445,133.695964 2859.39193,133.171875 2858.34375,133.171875 C2855.19922,133.171875 2851.75521,135.04362 2848.01172,138.787109 C2844.26823,142.680339 2842.39648,146.199219 2842.39648,149.34375 C2842.39648,155.033854 2842.39648,163.56901 2842.39648,174.949219 C2842.39648,179.291667 2842.39648,185.805339 2842.39648,194.490234 C2842.39648,196.736328 2841.57292,198.682943 2839.92578,200.330078 C2838.27865,201.827474 2836.33203,202.576172 2834.08594,202.576172 C2831.98958,202.576172 2830.11784,201.827474 2828.4707,200.330078 C2826.82357,198.682943 2826,196.736328 2826,194.490234 C2826,190.147786 2826,183.634115 2826,174.949219 C2826,169.259115 2826,160.649089 2826,149.119141 C2826,143.878255 2826,135.867188 2826,125.085938 C2826,122.839844 2826.82357,120.893229 2828.4707,119.246094 C2829.9681,117.748698 2831.83984,117 2834.08594,117 C2836.03255,117 2837.67969,117.524089 2839.02734,118.572266 C2840.52474,119.620443 2841.49805,120.968099 2841.94727,122.615234 C2844.49284,120.968099 2847.18815,119.620443 2850.0332,118.572266 C2852.72852,117.524089 2855.4987,117 2858.34375,117 C2862.38672,117 2865.9056,117.748698 2868.90039,119.246094 C2872.04492,120.893229 2874.66536,123.214193 2876.76172,126.208984 C2879.75651,123.513672 2883.05078,121.267578 2886.64453,119.470703 C2890.23828,117.823568 2893.83203,117 2897.42578,117 Z M2894.37891,107.15625 C2895.72656,107.15625 2897.07422,107.23112 2898.42188,107.380859 C2899.76953,107.530599 2901.04232,107.755208 2902.24023,108.054688 C2902.09049,108.503906 2901.79102,109.177734 2901.3418,110.076172 C2900.14388,109.926432 2898.94596,109.776693 2897.74805,109.626953 C2896.69987,109.477214 2895.57682,109.402344 2894.37891,109.402344 C2892.58203,109.402344 2890.78516,109.552083 2888.98828,109.851562 C2887.19141,110.151042 2885.39453,110.60026 2883.59766,111.199219 C2883.59766,111.049479 2883.52279,110.82487 2883.37305,110.525391 C2883.37305,110.225911 2883.29818,109.926432 2883.14844,109.626953 C2883.14844,109.626953 2883.07357,109.552083 2882.92383,109.402344 C2882.92383,109.402344 2882.84896,109.327474 2882.69922,109.177734 C2884.64583,108.578776 2886.59245,108.054688 2888.53906,107.605469 C2890.48568,107.30599 2892.43229,107.15625 2894.37891,107.15625 Z M2880.90234,115.916016 C2881.65104,115.466797 2882.25,114.792969 2882.69922,113.894531 C2883.14844,113.145833 2883.29818,112.322266 2883.14844,111.423828 C2883.14844,111.423828 2883.22331,111.423828 2883.37305,111.423828 C2883.52279,111.423828 2883.59766,111.348958 2883.59766,111.199219 C2883.7474,112.247396 2883.59766,113.220703 2883.14844,114.119141 C2882.69922,115.017578 2882.02539,115.766276 2881.12695,116.365234 C2879.92904,116.964193 2878.73112,117.039062 2877.5332,116.589844 C2876.18555,116.290365 2875.21224,115.541667 2874.61328,114.34375 C2873.86458,113.145833 2873.71484,111.873047 2874.16406,110.525391 C2874.61328,109.327474 2875.36198,108.354167 2876.41016,107.605469 C2877.60807,107.00651 2878.80599,106.856771 2880.00391,107.15625 C2881.20182,107.455729 2882.10026,108.129557 2882.69922,109.177734 C2882.69922,109.177734 2882.62435,109.177734 2882.47461,109.177734 C2882.32487,109.177734 2882.25,109.252604 2882.25,109.402344 C2881.5013,108.503906 2880.67773,107.979818 2879.7793,107.830078 C2878.73112,107.530599 2877.75781,107.680339 2876.85938,108.279297 C2875.8112,108.878255 2875.0625,109.701823 2874.61328,110.75 C2874.3138,111.947917 2874.46354,113.070964 2875.0625,114.119141 C2875.66146,115.167318 2876.48503,115.841146 2877.5332,116.140625 C2878.73112,116.440104 2879.85417,116.365234 2880.90234,115.916016 Z M2882.69922,109.177734 C2882.84896,109.327474 2882.92383,109.402344 2882.92383,109.402344 C2883.07357,109.552083 2883.14844,109.626953 2883.14844,109.626953 C2883.29818,109.926432 2883.37305,110.225911 2883.37305,110.525391 C2883.52279,110.82487 2883.59766,111.049479 2883.59766,111.199219 C2883.59766,111.348958 2883.52279,111.423828 2883.37305,111.423828 C2883.22331,111.423828 2883.14844,111.423828 2883.14844,111.423828 C2883.14844,111.274089 2883.07357,111.049479 2882.92383,110.75 C2882.92383,110.450521 2882.84896,110.225911 2882.69922,110.076172 C2882.54948,109.926432 2882.47461,109.776693 2882.47461,109.626953 C2882.32487,109.477214 2882.25,109.402344 2882.25,109.402344 C2882.25,109.402344 2882.32487,109.327474 2882.47461,109.177734 C2882.62435,109.177734 2882.69922,109.177734 2882.69922,109.177734 Z M2876.85938,108.279297 C2877.75781,107.680339 2878.73112,107.530599 2879.7793,107.830078 C2880.67773,107.979818 2881.5013,108.503906 2882.25,109.402344 C2882.10026,109.402344 2881.95052,109.402344 2881.80078,109.402344 C2881.80078,109.552083 2881.72591,109.626953 2881.57617,109.626953 C2880.97721,109.027995 2880.30339,108.578776 2879.55469,108.279297 C2878.65625,108.129557 2877.83268,108.279297 2877.08398,108.728516 C2876.18555,109.177734 2875.58659,109.926432 2875.28711,110.974609 C2874.98763,112.022786 2875.0625,112.996094 2875.51172,113.894531 C2875.96094,114.792969 2876.70964,115.391927 2877.75781,115.691406 C2878.80599,115.990885 2879.7793,115.916016 2880.67773,115.466797 C2881.27669,115.017578 2881.72591,114.49349 2882.02539,113.894531 C2882.47461,113.145833 2882.62435,112.397135 2882.47461,111.648438 C2882.62435,111.648438 2882.77409,111.648438 2882.92383,111.648438 C2882.92383,111.648438 2882.9987,111.573568 2883.14844,111.423828 C2883.29818,112.322266 2883.14844,113.145833 2882.69922,113.894531 C2882.25,114.792969 2881.65104,115.466797 2880.90234,115.916016 C2879.85417,116.514974 2878.73112,116.589844 2877.5332,116.140625 C2876.33529,115.841146 2875.51172,115.167318 2875.0625,114.119141 C2874.46354,113.070964 2874.3138,111.947917 2874.61328,110.75 C2875.0625,109.701823 2875.8112,108.878255 2876.85938,108.279297 Z M2882.02539,110.300781 C2882.02539,110.151042 2881.95052,110.001302 2881.80078,109.851562 C2881.80078,109.851562 2881.72591,109.776693 2881.57617,109.626953 C2881.72591,109.626953 2881.87565,109.552083 2882.02539,109.402344 C2882.02539,109.402344 2882.10026,109.402344 2882.25,109.402344 C2882.25,109.402344 2882.32487,109.477214 2882.47461,109.626953 C2882.47461,109.776693 2882.54948,109.926432 2882.69922,110.076172 C2882.84896,110.225911 2882.92383,110.450521 2882.92383,110.75 C2883.07357,111.049479 2883.14844,111.274089 2883.14844,111.423828 C2882.9987,111.423828 2882.92383,111.498698 2882.92383,111.648438 C2882.77409,111.648438 2882.62435,111.648438 2882.47461,111.648438 C2882.47461,111.498698 2882.47461,111.274089 2882.47461,110.974609 C2882.32487,110.67513 2882.17513,110.450521 2882.02539,110.300781 Z M2902.24023,108.054688 C2902.38997,107.605469 2902.68945,106.856771 2903.13867,105.808594 C2905.38477,107.605469 2908.75391,110.375651 2913.24609,114.119141 C2910.40104,113.669922 2906.13346,112.921224 2900.44336,111.873047 C2900.5931,111.573568 2900.89258,110.974609 2901.3418,110.076172 C2901.64128,110.225911 2902.01562,110.300781 2902.46484,110.300781 C2902.91406,110.450521 2903.28841,110.60026 2903.58789,110.75 C2903.73763,110.300781 2903.96224,109.552083 2904.26172,108.503906 C2903.96224,108.354167 2903.66276,108.279297 2903.36328,108.279297 C2902.91406,108.129557 2902.53971,108.054688 2902.24023,108.054688 Z M2904.26172,108.503906 C2904.11198,108.953125 2903.96224,109.701823 2903.8125,110.75 C2903.36328,110.60026 2902.91406,110.450521 2902.46484,110.300781 C2902.01562,110.300781 2901.64128,110.225911 2901.3418,110.076172 C2901.49154,109.626953 2901.79102,108.953125 2902.24023,108.054688 C2902.53971,108.054688 2902.91406,108.129557 2903.36328,108.279297 C2903.66276,108.279297 2903.96224,108.354167 2904.26172,108.503906 Z M2850.13086,107.605469 C2852.37695,107.15625 2854.69792,107.00651 2857.09375,107.15625 C2859.33984,107.30599 2861.51107,107.605469 2863.60742,108.054688 C2863.45768,108.503906 2863.1582,109.177734 2862.70898,110.076172 C2860.76237,109.776693 2858.81576,109.552083 2856.86914,109.402344 C2854.77279,109.252604 2852.67643,109.402344 2850.58008,109.851562 C2850.58008,109.552083 2850.58008,109.252604 2850.58008,108.953125 C2850.58008,108.653646 2850.50521,108.354167 2850.35547,108.054688 C2850.35547,107.904948 2850.2806,107.830078 2850.13086,107.830078 C2850.13086,107.680339 2850.13086,107.605469 2850.13086,107.605469 Z M2847.21094,113.669922 C2848.10937,113.370443 2848.7832,112.921224 2849.23242,112.322266 C2849.68164,111.573568 2849.98112,110.75 2850.13086,109.851562 C2850.13086,109.851562 2850.20573,109.851562 2850.35547,109.851562 C2850.35547,109.851562 2850.43034,109.851562 2850.58008,109.851562 C2850.58008,110.75 2850.2806,111.648438 2849.68164,112.546875 C2849.08268,113.295573 2848.33398,113.894531 2847.43555,114.34375 C2846.08789,114.792969 2844.8151,114.718099 2843.61719,114.119141 C2842.41927,113.520182 2841.5957,112.621745 2841.14648,111.423828 C2840.69727,110.076172 2840.77214,108.803385 2841.37109,107.605469 C2841.82031,106.407552 2842.71875,105.583984 2844.06641,105.134766 C2845.26432,104.685547 2846.38737,104.685547 2847.43555,105.134766 C2848.63346,105.583984 2849.5319,106.407552 2850.13086,107.605469 C2849.98112,107.605469 2849.83138,107.605469 2849.68164,107.605469 C2849.68164,107.605469 2849.60677,107.605469 2849.45703,107.605469 C2849.00781,106.707031 2848.25911,106.033203 2847.21094,105.583984 C2846.3125,105.284505 2845.33919,105.284505 2844.29102,105.583984 C2843.0931,106.033203 2842.26953,106.781901 2841.82031,107.830078 C2841.37109,108.878255 2841.29622,110.001302 2841.5957,111.199219 C2842.04492,112.247396 2842.79362,113.070964 2843.8418,113.669922 C2844.88997,114.119141 2846.01302,114.119141 2847.21094,113.669922 Z M2850.13086,107.605469 C2850.13086,107.605469 2850.13086,107.680339 2850.13086,107.830078 C2850.2806,107.830078 2850.35547,107.904948 2850.35547,108.054688 C2850.50521,108.354167 2850.58008,108.653646 2850.58008,108.953125 C2850.58008,109.252604 2850.58008,109.552083 2850.58008,109.851562 C2850.43034,109.851562 2850.35547,109.851562 2850.35547,109.851562 C2850.20573,109.851562 2850.13086,109.851562 2850.13086,109.851562 C2850.13086,109.552083 2850.05599,109.252604 2849.90625,108.953125 C2849.90625,108.803385 2849.90625,108.578776 2849.90625,108.279297 C2849.75651,108.129557 2849.68164,107.979818 2849.68164,107.830078 C2849.68164,107.830078 2849.60677,107.755208 2849.45703,107.605469 C2849.60677,107.605469 2849.75651,107.605469 2849.90625,107.605469 C2849.90625,107.605469 2849.98112,107.605469 2850.13086,107.605469 Z M2844.06641,106.257812 C2844.06641,106.257812 2844.14128,106.257812 2844.29102,106.257812 C2844.29102,106.257812 2844.36589,106.182943 2844.51562,106.033203 C2844.51562,106.033203 2844.51562,106.033203 2844.51562,106.033203 C2844.51562,106.033203 2844.51562,106.108073 2844.51562,106.257812 C2844.36589,106.257812 2844.21615,106.257812 2844.06641,106.257812 C2844.06641,106.257812 2844.06641,106.257812 2844.06641,106.257812 Z M2844.29102,105.583984 C2845.33919,105.284505 2846.3125,105.284505 2847.21094,105.583984 C2848.25911,106.033203 2849.00781,106.707031 2849.45703,107.605469 C2849.45703,107.605469 2849.38216,107.605469 2849.23242,107.605469 C2849.08268,107.605469 2849.00781,107.680339 2849.00781,107.830078 C2848.55859,107.08138 2847.88477,106.557292 2846.98633,106.257812 C2846.23763,105.958333 2845.41406,105.958333 2844.51562,106.257812 C2844.51562,106.257812 2844.51562,106.257812 2844.51562,106.257812 C2844.51562,106.257812 2844.51562,106.257812 2844.51562,106.257812 C2844.51562,106.108073 2844.59049,106.033203 2844.74023,106.033203 C2844.74023,106.033203 2844.74023,106.033203 2844.74023,106.033203 C2844.74023,106.033203 2844.74023,106.033203 2844.74023,106.033203 C2844.74023,106.033203 2844.74023,106.033203 2844.74023,106.033203 C2844.74023,106.033203 2844.74023,106.033203 2844.74023,106.033203 C2844.74023,106.033203 2844.74023,106.033203 2844.74023,106.033203 C2844.74023,106.033203 2844.74023,106.033203 2844.74023,106.033203 C2844.59049,106.033203 2844.51562,106.108073 2844.51562,106.257812 C2844.36589,106.257812 2844.29102,106.257812 2844.29102,106.257812 C2844.14128,106.257812 2844.06641,106.257812 2844.06641,106.257812 C2844.06641,106.257812 2844.06641,106.257812 2844.06641,106.257812 C2844.21615,106.257812 2844.36589,106.257812 2844.51562,106.257812 C2843.46745,106.557292 2842.71875,107.15625 2842.26953,108.054688 C2841.82031,108.953125 2841.82031,109.926432 2842.26953,110.974609 C2842.56901,111.873047 2843.16797,112.546875 2844.06641,112.996094 C2844.96484,113.445312 2845.93815,113.520182 2846.98633,113.220703 C2847.73503,112.921224 2848.33398,112.472005 2848.7832,111.873047 C2849.23242,111.274089 2849.45703,110.67513 2849.45703,110.076172 C2849.60677,109.926432 2849.68164,109.851562 2849.68164,109.851562 C2849.83138,109.851562 2849.98112,109.851562 2850.13086,109.851562 C2849.98112,110.75 2849.68164,111.573568 2849.23242,112.322266 C2848.7832,112.921224 2848.10938,113.370443 2847.21094,113.669922 C2846.01302,114.119141 2844.88997,114.119141 2843.8418,113.669922 C2842.79362,113.070964 2842.04492,112.247396 2841.5957,111.199219 C2841.29622,110.001302 2841.37109,108.878255 2841.82031,107.830078 C2842.26953,106.781901 2843.0931,106.033203 2844.29102,105.583984 Z M2849.23242,108.503906 C2849.23242,108.354167 2849.15755,108.204427 2849.00781,108.054688 C2849.00781,107.904948 2849.00781,107.830078 2849.00781,107.830078 C2849.00781,107.680339 2849.08268,107.605469 2849.23242,107.605469 C2849.38216,107.605469 2849.45703,107.605469 2849.45703,107.605469 C2849.60677,107.755208 2849.68164,107.830078 2849.68164,107.830078 C2849.68164,107.979818 2849.75651,108.129557 2849.90625,108.279297 C2849.90625,108.578776 2849.90625,108.803385 2849.90625,108.953125 C2850.05599,109.252604 2850.13086,109.552083 2850.13086,109.851562 C2849.98112,109.851562 2849.83138,109.851562 2849.68164,109.851562 C2849.68164,109.851562 2849.60677,109.926432 2849.45703,110.076172 C2849.45703,109.776693 2849.45703,109.477214 2849.45703,109.177734 C2849.45703,108.878255 2849.38216,108.653646 2849.23242,108.503906 Z M2863.60742,108.054688 C2863.9069,107.605469 2864.28125,106.931641 2864.73047,106.033203 C2866.82682,107.830078 2870.12109,110.60026 2874.61328,114.34375 C2871.76823,113.894531 2867.50065,113.145833 2861.81055,112.097656 C2861.96029,111.648438 2862.25977,111.049479 2862.70898,110.300781 C2863.1582,110.300781 2863.53255,110.375651 2863.83203,110.525391 C2864.28125,110.67513 2864.73047,110.82487 2865.17969,110.974609 C2865.32943,110.375651 2865.55404,109.626953 2865.85352,108.728516 C2865.4043,108.578776 2865.02995,108.429036 2864.73047,108.279297 C2864.43099,108.279297 2864.05664,108.204427 2863.60742,108.054688 Z M2865.85352,108.728516 C2865.70378,109.177734 2865.47917,109.851562 2865.17969,110.75 C2864.73047,110.60026 2864.28125,110.525391 2863.83203,110.525391 C2863.53255,110.375651 2863.1582,110.225911 2862.70898,110.076172 C2862.85872,109.626953 2863.1582,108.953125 2863.60742,108.054688 C2864.05664,108.204427 2864.43099,108.279297 2864.73047,108.279297 C2865.02995,108.429036 2865.4043,108.578776 2865.85352,108.728516 Z M2811.94727,135.90625 C2812.09701,135.90625 2812.32161,135.90625 2812.62109,135.90625 C2812.77083,135.90625 2812.92057,135.90625 2813.07031,135.90625 C2813.22005,135.90625 2813.44466,135.90625 2813.74414,135.90625 C2813.89388,135.90625 2814.04362,135.90625 2814.19336,135.90625 C2814.19336,146.388021 2814.19336,162.110677 2814.19336,183.074219 C2813.74414,183.074219 2812.99544,183.074219 2811.94727,183.074219 C2811.94727,175.28776 2811.94727,167.426432 2811.94727,159.490234 C2811.94727,151.554036 2811.94727,143.692708 2811.94727,135.90625 Z M2811.94727,185.320312 C2811.94727,184.871094 2811.94727,184.122396 2811.94727,183.074219 C2811.49805,183.074219 2810.74935,183.074219 2809.70117,183.074219 C2810.44987,185.919271 2811.57292,190.111979 2813.07031,195.652344 C2813.81901,192.807292 2814.94206,188.614583 2816.43945,183.074219 C2815.99023,183.074219 2815.24154,183.074219 2814.19336,183.074219 C2814.19336,183.673177 2814.19336,184.421875 2814.19336,185.320312 C2813.74414,185.320312 2812.99544,185.320312 2811.94727,185.320312 Z M2811.94727,185.320312 C2812.39648,185.320312 2813.14518,185.320312 2814.19336,185.320312 C2814.19336,184.871094 2814.19336,184.122396 2814.19336,183.074219 C2813.74414,183.074219 2812.99544,183.074219 2811.94727,183.074219 C2811.94727,183.673177 2811.94727,184.421875 2811.94727,185.320312 Z M2813.07031,126.248047 C2814.41797,126.248047 2815.61589,126.697266 2816.66406,127.595703 C2817.5625,128.494141 2818.01172,129.692057 2818.01172,131.189453 C2818.01172,132.23763 2817.63737,133.210938 2816.88867,134.109375 C2816.13997,135.007812 2815.24154,135.606771 2814.19336,135.90625 C2814.19336,135.75651 2814.19336,135.531901 2814.19336,135.232422 C2815.0918,134.932943 2815.84049,134.408854 2816.43945,133.660156 C2817.03841,132.911458 2817.33789,132.087891 2817.33789,131.189453 C2817.33789,129.991536 2816.96354,128.943359 2816.21484,128.044922 C2815.31641,127.146484 2814.26823,126.697266 2813.07031,126.697266 C2811.8724,126.697266 2810.89909,127.146484 2810.15039,128.044922 C2809.25195,128.943359 2808.80273,129.991536 2808.80273,131.189453 C2808.80273,132.087891 2809.10221,132.911458 2809.70117,133.660156 C2810.30013,134.408854 2811.04883,134.932943 2811.94727,135.232422 C2811.94727,135.382161 2811.94727,135.606771 2811.94727,135.90625 C2810.89909,135.606771 2810.00065,135.007812 2809.25195,134.109375 C2808.50326,133.210938 2808.12891,132.23763 2808.12891,131.189453 C2808.12891,129.841797 2808.65299,128.64388 2809.70117,127.595703 C2810.59961,126.697266 2811.72266,126.248047 2813.07031,126.248047 Z M2813.07031,135.457031 C2813.36979,135.457031 2813.5944,135.457031 2813.74414,135.457031 C2813.89388,135.307292 2814.04362,135.232422 2814.19336,135.232422 C2814.19336,135.382161 2814.19336,135.606771 2814.19336,135.90625 C2814.04362,135.90625 2813.89388,135.90625 2813.74414,135.90625 C2813.44466,135.90625 2813.22005,135.90625 2813.07031,135.90625 C2812.92057,135.90625 2812.77083,135.90625 2812.62109,135.90625 C2812.32161,135.90625 2812.09701,135.90625 2811.94727,135.90625 C2811.94727,135.75651 2811.94727,135.531901 2811.94727,135.232422 C2812.09701,135.232422 2812.32161,135.307292 2812.62109,135.457031 C2812.77083,135.457031 2812.92057,135.457031 2813.07031,135.457031 Z M2809.25195,131.189453 C2809.25195,131.938151 2809.55143,132.611979 2810.15039,133.210938 C2810.59961,133.959635 2811.19857,134.408854 2811.94727,134.558594 C2811.94727,134.708333 2811.94727,134.932943 2811.94727,135.232422 C2811.04883,134.932943 2810.30013,134.408854 2809.70117,133.660156 C2809.10221,132.911458 2808.80273,132.087891 2808.80273,131.189453 C2808.80273,129.991536 2809.25195,128.943359 2810.15039,128.044922 C2810.89909,127.146484 2811.8724,126.697266 2813.07031,126.697266 C2814.26823,126.697266 2815.31641,127.146484 2816.21484,128.044922 C2816.96354,128.943359 2817.33789,129.991536 2817.33789,131.189453 C2817.33789,132.087891 2817.03841,132.911458 2816.43945,133.660156 C2815.84049,134.408854 2815.0918,134.932943 2814.19336,135.232422 C2814.19336,135.082682 2814.19336,134.858073 2814.19336,134.558594 C2814.94206,134.408854 2815.61589,133.959635 2816.21484,133.210938 C2816.66406,132.611979 2816.88867,131.938151 2816.88867,131.189453 C2816.88867,130.141276 2816.51432,129.242839 2815.76562,128.494141 C2815.01693,127.745443 2814.11849,127.371094 2813.07031,127.371094 C2812.02214,127.371094 2811.1237,127.745443 2810.375,128.494141 C2809.6263,129.242839 2809.25195,130.141276 2809.25195,131.189453 C2809.25195,130.889974 2809.25195,130.740234 2809.25195,130.740234 C2809.25195,130.590495 2809.25195,130.515625 2809.25195,130.515625 C2809.25195,130.515625 2809.25195,130.590495 2809.25195,130.740234 C2809.25195,130.740234 2809.25195,130.889974 2809.25195,131.189453 C2809.25195,131.339193 2809.25195,131.414062 2809.25195,131.414062 C2809.25195,131.563802 2809.25195,131.638672 2809.25195,131.638672 C2809.25195,131.638672 2809.25195,131.563802 2809.25195,131.414062 C2809.25195,131.414062 2809.25195,131.339193 2809.25195,131.189453 Z M2814.19336,135.232422 C2814.04362,135.232422 2813.89388,135.307292 2813.74414,135.457031 C2813.44466,135.457031 2813.22005,135.457031 2813.07031,135.457031 C2812.92057,135.457031 2812.77083,135.457031 2812.62109,135.457031 C2812.32161,135.307292 2812.09701,135.232422 2811.94727,135.232422 C2811.94727,135.082682 2811.94727,134.858073 2811.94727,134.558594 C2812.09701,134.708333 2812.32161,134.783203 2812.62109,134.783203 C2812.77083,134.783203 2812.92057,134.783203 2813.07031,134.783203 C2813.36979,134.783203 2813.5944,134.783203 2813.74414,134.783203 C2813.89388,134.783203 2814.04362,134.708333 2814.19336,134.558594 C2814.19336,134.708333 2814.19336,134.858073 2814.19336,135.007812 C2814.19336,135.007812 2814.19336,135.082682 2814.19336,135.232422 Z M2886.29297,86.7167969 C2886.29297,87.4654948 2886.14323,88.0644531 2885.84375,88.5136719 C2885.54427,89.1126302 2885.16992,89.6367188 2884.7207,90.0859375 C2884.57096,90.2356771 2884.42122,90.3105469 2884.27148,90.3105469 C2884.27148,90.4602865 2884.19661,90.5351562 2884.04688,90.5351562 C2883.89714,90.3854167 2883.67253,90.3105469 2883.37305,90.3105469 C2883.22331,90.1608073 2883.07357,90.0859375 2882.92383,90.0859375 C2882.47461,89.9361979 2882.10026,89.7864583 2881.80078,89.6367188 C2881.35156,89.6367188 2880.90234,89.6367188 2880.45312,89.6367188 C2880.45312,89.6367188 2880.45312,89.6367188 2880.45312,89.6367188 C2880.45312,89.6367188 2880.52799,89.6367188 2880.67773,89.6367188 C2881.12695,89.6367188 2881.57617,89.561849 2882.02539,89.4121094 C2882.47461,89.2623698 2882.84896,89.0377604 2883.14844,88.7382812 C2883.59766,88.4388021 2883.89714,88.1393229 2884.04688,87.8398438 C2884.19661,87.5403646 2884.27148,87.1660156 2884.27148,86.7167969 C2884.27148,86.5670573 2884.27148,86.3424479 2884.27148,86.0429688 C2884.27148,85.8932292 2884.19661,85.7434896 2884.04688,85.59375 C2884.04688,85.4440104 2883.97201,85.2942708 2883.82227,85.1445312 C2883.67253,85.1445312 2883.59766,85.0696615 2883.59766,84.9199219 C2883.44792,84.7701823 2883.29818,84.6204427 2883.14844,84.4707031 C2882.9987,84.3209635 2882.77409,84.2460938 2882.47461,84.2460938 C2882.32487,84.0963542 2882.17513,84.0214844 2882.02539,84.0214844 C2881.87565,84.0214844 2881.65104,84.0214844 2881.35156,84.0214844 C2881.05208,84.0214844 2880.7526,84.0214844 2880.45312,84.0214844 C2880.15365,84.0214844 2879.85417,84.0963542 2879.55469,84.2460938 C2879.25521,84.3958333 2879.0306,84.5455729 2878.88086,84.6953125 C2878.58138,84.8450521 2878.35677,84.9947917 2878.20703,85.1445312 C2878.20703,85.2942708 2878.13216,85.3691406 2877.98242,85.3691406 C2877.83268,85.5188802 2877.68294,85.59375 2877.5332,85.59375 C2877.38346,85.59375 2877.30859,85.5188802 2877.30859,85.3691406 C2877.15885,85.3691406 2877.00911,85.3691406 2876.85938,85.3691406 C2876.70964,85.219401 2876.63477,85.0696615 2876.63477,84.9199219 C2876.63477,84.9199219 2876.63477,84.8450521 2876.63477,84.6953125 C2876.63477,84.5455729 2876.63477,84.3958333 2876.63477,84.2460938 C2876.63477,84.0963542 2876.70964,83.9466146 2876.85938,83.796875 C2877.15885,83.4973958 2877.45833,83.2727865 2877.75781,83.1230469 C2878.05729,82.8235677 2878.43164,82.5989583 2878.88086,82.4492188 C2879.18034,82.2994792 2879.55469,82.1497396 2880.00391,82 C2880.45312,82 2880.90234,82 2881.35156,82 C2881.80078,82 2882.17513,82 2882.47461,82 C2882.77409,82.1497396 2883.07357,82.2994792 2883.37305,82.4492188 C2883.67253,82.4492188 2883.97201,82.5989583 2884.27148,82.8984375 C2884.57096,83.0481771 2884.79557,83.1979167 2884.94531,83.3476562 C2885.24479,83.6471354 2885.4694,83.9466146 2885.61914,84.2460938 C2885.76888,84.3958333 2885.91862,84.6204427 2886.06836,84.9199219 C2886.06836,85.219401 2886.14323,85.5188802 2886.29297,85.8183594 C2886.29297,86.1178385 2886.29297,86.4173177 2886.29297,86.7167969 C2886.29297,86.7167969 2886.29297,86.7167969 2886.29297,86.7167969 C2886.29297,86.7167969 2886.29297,86.7167969 2886.29297,86.7167969 Z M2880.45312,89.6367188 C2880.90234,89.6367188 2881.35156,89.6367188 2881.80078,89.6367188 C2882.10026,89.7864583 2882.47461,89.8613281 2882.92383,89.8613281 C2883.07357,90.0110677 2883.22331,90.1608073 2883.37305,90.3105469 C2883.67253,90.3105469 2883.89714,90.3854167 2884.04688,90.5351562 C2883.59766,90.8346354 2883.07357,91.0592448 2882.47461,91.2089844 C2881.87565,91.358724 2881.27669,91.4335938 2880.67773,91.4335938 C2880.52799,91.4335938 2880.37826,91.4335938 2880.22852,91.4335938 C2880.07878,91.4335938 2880.00391,91.358724 2880.00391,91.2089844 C2879.85417,91.0592448 2879.7793,90.984375 2879.7793,90.984375 C2879.62956,90.8346354 2879.55469,90.6848958 2879.55469,90.5351562 C2879.55469,90.3854167 2879.62956,90.2356771 2879.7793,90.0859375 C2879.7793,90.0859375 2879.85417,90.0110677 2880.00391,89.8613281 C2880.00391,89.7115885 2880.07878,89.6367188 2880.22852,89.6367188 C2880.37826,89.6367188 2880.45312,89.6367188 2880.45312,89.6367188 Z M2880.00391,91.2089844 C2880.00391,91.358724 2880.07878,91.4335938 2880.22852,91.4335938 C2880.37826,91.4335938 2880.52799,91.4335938 2880.67773,91.4335938 C2881.27669,91.4335938 2881.87565,91.358724 2882.47461,91.2089844 C2883.07357,91.0592448 2883.59766,90.8346354 2884.04688,90.5351562 C2884.19661,90.6848958 2884.34635,90.7597656 2884.49609,90.7597656 C2884.64583,90.9095052 2884.79557,91.0592448 2884.94531,91.2089844 C2885.09505,91.5084635 2885.24479,91.8079427 2885.39453,92.1074219 C2885.69401,92.2571615 2885.84375,92.5566406 2885.84375,93.0058594 C2885.99349,93.3053385 2886.14323,93.6048177 2886.29297,93.9042969 C2886.29297,94.3535156 2886.29297,94.7278646 2886.29297,95.0273438 C2886.29297,95.9257812 2886.14323,96.6744792 2885.84375,97.2734375 C2885.54427,97.8723958 2885.09505,98.4713542 2884.49609,99.0703125 C2884.04688,99.5195312 2883.44792,99.8938802 2882.69922,100.193359 C2881.95052,100.492839 2881.12695,100.642578 2880.22852,100.642578 C2879.62956,100.642578 2879.10547,100.567708 2878.65625,100.417969 C2878.20703,100.268229 2877.75781,100.11849 2877.30859,99.96875 C2876.85938,99.6692708 2876.48503,99.3697917 2876.18555,99.0703125 C2875.73633,98.7708333 2875.36198,98.3964844 2875.0625,97.9472656 C2875.0625,97.797526 2875.0625,97.7226562 2875.0625,97.7226562 C2875.0625,97.5729167 2875.0625,97.4231771 2875.0625,97.2734375 C2875.0625,97.2734375 2875.0625,97.2734375 2875.0625,97.2734375 C2875.0625,97.2734375 2875.0625,97.2734375 2875.0625,97.2734375 C2875.0625,97.1236979 2875.0625,96.9739583 2875.0625,96.8242188 C2875.21224,96.6744792 2875.28711,96.5996094 2875.28711,96.5996094 C2875.43685,96.4498698 2875.58659,96.375 2875.73633,96.375 C2875.88607,96.375 2876.03581,96.375 2876.18555,96.375 C2876.33529,96.375 2876.41016,96.4498698 2876.41016,96.5996094 C2876.5599,96.5996094 2876.70964,96.6744792 2876.85938,96.8242188 C2877.00911,97.1236979 2877.23372,97.3483073 2877.5332,97.4980469 C2877.68294,97.797526 2877.90755,98.0221354 2878.20703,98.171875 C2878.50651,98.3216146 2878.80599,98.4713542 2879.10547,98.6210938 C2879.55469,98.6210938 2879.92904,98.6210938 2880.22852,98.6210938 C2880.67773,98.6210938 2881.12695,98.546224 2881.57617,98.3964844 C2882.17513,98.2467448 2882.62435,98.0221354 2882.92383,97.7226562 C2883.37305,97.4231771 2883.7474,97.0488281 2884.04688,96.5996094 C2884.19661,96.1503906 2884.27148,95.6263021 2884.27148,95.0273438 C2884.27148,94.7278646 2884.27148,94.5032552 2884.27148,94.3535156 C2884.27148,94.0540365 2884.19661,93.8294271 2884.04688,93.6796875 C2884.04688,93.5299479 2883.97201,93.3053385 2883.82227,93.0058594 C2883.67253,92.8561198 2883.52279,92.7063802 2883.37305,92.5566406 C2883.22331,92.406901 2883.07357,92.2571615 2882.92383,92.1074219 C2882.62435,91.9576823 2882.32487,91.8828125 2882.02539,91.8828125 C2881.72591,91.7330729 2881.42643,91.6582031 2881.12695,91.6582031 C2880.82747,91.5084635 2880.52799,91.4335938 2880.22852,91.4335938 C2880.07878,91.4335938 2879.92904,91.4335938 2879.7793,91.4335938 C2879.62956,91.4335938 2879.55469,91.358724 2879.55469,91.2089844 C2879.40495,91.0592448 2879.33008,90.984375 2879.33008,90.984375 C2879.33008,90.8346354 2879.33008,90.6848958 2879.33008,90.5351562 C2879.33008,90.3854167 2879.33008,90.2356771 2879.33008,90.0859375 C2879.33008,90.0859375 2879.40495,90.0110677 2879.55469,89.8613281 C2879.55469,89.7115885 2879.62956,89.6367188 2879.7793,89.6367188 C2879.92904,89.6367188 2880.07878,89.6367188 2880.22852,89.6367188 C2880.22852,89.6367188 2880.22852,89.6367188 2880.22852,89.6367188 C2880.37826,89.6367188 2880.45312,89.6367188 2880.45312,89.6367188 C2880.45312,89.6367188 2880.37826,89.6367188 2880.22852,89.6367188 C2880.07878,89.6367188 2880.00391,89.7115885 2880.00391,89.8613281 C2879.85417,90.0110677 2879.7793,90.0859375 2879.7793,90.0859375 C2879.62956,90.2356771 2879.55469,90.3854167 2879.55469,90.5351562 C2879.55469,90.6848958 2879.62956,90.8346354 2879.7793,90.984375 C2879.7793,90.984375 2879.85417,91.0592448 2880.00391,91.2089844 Z M2799.59375,131.863281 C2799.74349,132.013021 2799.81836,132.087891 2799.81836,132.087891 C2799.9681,132.087891 2800.04297,132.16276 2800.04297,132.3125 C2800.04297,132.46224 2800.11784,132.537109 2800.26758,132.537109 C2800.26758,132.686849 2800.26758,132.761719 2800.26758,132.761719 C2800.26758,134.708333 2800.26758,137.029297 2800.26758,139.724609 C2800.26758,142.569661 2800.26758,145.789062 2800.26758,149.382812 C2800.26758,149.532552 2800.26758,149.682292 2800.26758,149.832031 C2800.11784,149.981771 2799.9681,150.13151 2799.81836,150.28125 C2799.81836,150.28125 2799.74349,150.28125 2799.59375,150.28125 C2799.44401,150.43099 2799.36914,150.505859 2799.36914,150.505859 C2799.2194,150.505859 2799.06966,150.43099 2798.91992,150.28125 C2798.77018,150.28125 2798.62044,150.28125 2798.4707,150.28125 C2798.4707,150.13151 2798.4707,149.981771 2798.4707,149.832031 C2798.32096,149.682292 2798.24609,149.532552 2798.24609,149.382812 C2798.24609,147.885417 2798.24609,145.938802 2798.24609,143.542969 C2798.24609,141.147135 2798.24609,138.376953 2798.24609,135.232422 C2798.24609,135.232422 2798.17122,135.307292 2798.02148,135.457031 C2797.87174,135.606771 2797.72201,135.75651 2797.57227,135.90625 C2797.57227,135.90625 2797.4974,135.98112 2797.34766,136.130859 C2797.19792,136.130859 2797.04818,136.130859 2796.89844,136.130859 C2796.7487,136.130859 2796.67383,136.130859 2796.67383,136.130859 C2796.52409,135.98112 2796.37435,135.90625 2796.22461,135.90625 C2796.07487,135.75651 2796,135.606771 2796,135.457031 C2796,135.457031 2796,135.382161 2796,135.232422 C2796,135.082682 2796,134.932943 2796,134.783203 C2796,134.633464 2796.07487,134.558594 2796.22461,134.558594 C2796.52409,134.259115 2796.89844,133.884766 2797.34766,133.435547 C2797.64714,133.136068 2798.09635,132.686849 2798.69531,132.087891 C2798.69531,132.087891 2798.77018,132.087891 2798.91992,132.087891 C2798.91992,131.938151 2798.99479,131.863281 2799.14453,131.863281 C2799.14453,131.863281 2799.14453,131.863281 2799.14453,131.863281 C2799.14453,131.863281 2799.2194,131.863281 2799.36914,131.863281 C2799.36914,131.863281 2799.44401,131.863281 2799.59375,131.863281 C2799.59375,131.863281 2799.59375,131.863281 2799.59375,131.863281 Z M2835.08203,105.134766 C2835.23177,105.134766 2835.30664,105.209635 2835.30664,105.359375 C2835.45638,105.359375 2835.60612,105.359375 2835.75586,105.359375 C2835.75586,105.509115 2835.83073,105.658854 2835.98047,105.808594 C2835.98047,105.958333 2835.98047,106.108073 2835.98047,106.257812 C2835.98047,106.257812 2835.98047,106.332682 2835.98047,106.482422 C2835.83073,106.632161 2835.75586,106.781901 2835.75586,106.931641 C2835.60612,106.931641 2835.45638,107.00651 2835.30664,107.15625 C2835.30664,107.15625 2835.23177,107.15625 2835.08203,107.15625 C2834.18359,107.15625 2833.36003,107.15625 2832.61133,107.15625 C2831.86263,107.15625 2831.11393,107.15625 2830.36523,107.15625 C2829.61654,107.15625 2828.79297,107.15625 2827.89453,107.15625 C2827.14583,107.15625 2826.39714,107.15625 2825.64844,107.15625 C2825.4987,107.15625 2825.42383,107.15625 2825.42383,107.15625 C2825.42383,107.15625 2825.34896,107.08138 2825.19922,106.931641 C2825.19922,106.931641 2825.12435,106.931641 2824.97461,106.931641 C2824.97461,106.931641 2824.97461,106.931641 2824.97461,106.931641 C2824.82487,106.781901 2824.75,106.707031 2824.75,106.707031 C2824.75,106.557292 2824.75,106.482422 2824.75,106.482422 C2824.75,106.482422 2824.75,106.407552 2824.75,106.257812 C2824.75,106.257812 2824.75,106.257812 2824.75,106.257812 C2824.75,106.108073 2824.75,106.033203 2824.75,106.033203 C2824.75,106.033203 2824.75,106.033203 2824.75,106.033203 C2824.75,106.033203 2824.75,105.883464 2824.75,105.583984 C2824.75,105.434245 2824.82487,105.134766 2824.97461,104.685547 C2825.12435,104.236328 2825.27409,103.71224 2825.42383,103.113281 C2825.72331,102.664062 2826.02279,102.139974 2826.32227,101.541016 C2826.47201,101.241536 2826.69661,100.942057 2826.99609,100.642578 C2827.29557,100.343099 2827.59505,100.04362 2827.89453,99.7441406 C2828.19401,99.4446615 2828.49349,99.1451823 2828.79297,98.8457031 C2829.09245,98.546224 2829.4668,98.3216146 2829.91602,98.171875 C2830.81445,97.5729167 2831.48828,97.0488281 2831.9375,96.5996094 C2832.53646,96.1503906 2832.91081,95.7760417 2833.06055,95.4765625 C2833.36003,95.0273438 2833.50977,94.6529948 2833.50977,94.3535156 C2833.65951,94.0540365 2833.73438,93.7545573 2833.73438,93.4550781 C2833.73438,93.3053385 2833.73438,93.155599 2833.73438,93.0058594 C2833.73438,93.0058594 2833.73438,92.9309896 2833.73438,92.78125 C2833.73438,92.6315104 2833.73438,92.4817708 2833.73438,92.3320312 C2833.58464,92.3320312 2833.50977,92.2571615 2833.50977,92.1074219 C2833.36003,91.8079427 2833.21029,91.5833333 2833.06055,91.4335938 C2832.91081,91.2838542 2832.76107,91.1341146 2832.61133,90.984375 C2832.31185,90.8346354 2832.01237,90.6848958 2831.71289,90.5351562 C2831.26367,90.5351562 2830.81445,90.5351562 2830.36523,90.5351562 C2829.91602,90.5351562 2829.54167,90.5351562 2829.24219,90.5351562 C2828.94271,90.6848958 2828.64323,90.8346354 2828.34375,90.984375 C2828.19401,91.1341146 2827.9694,91.2838542 2827.66992,91.4335938 C2827.52018,91.7330729 2827.37044,92.0325521 2827.2207,92.3320312 C2827.2207,92.4817708 2827.14583,92.6315104 2826.99609,92.78125 C2826.84635,92.78125 2826.69661,92.78125 2826.54688,92.78125 C2826.54688,92.9309896 2826.47201,93.0058594 2826.32227,93.0058594 C2826.17253,93.0058594 2826.02279,92.9309896 2825.87305,92.78125 C2825.72331,92.78125 2825.64844,92.7063802 2825.64844,92.5566406 C2825.4987,92.5566406 2825.42383,92.4817708 2825.42383,92.3320312 C2825.42383,92.1822917 2825.42383,92.0325521 2825.42383,91.8828125 C2825.42383,91.7330729 2825.42383,91.5833333 2825.42383,91.4335938 C2825.72331,90.984375 2826.02279,90.610026 2826.32227,90.3105469 C2826.62174,89.8613281 2826.99609,89.4869792 2827.44531,89.1875 C2827.74479,89.0377604 2828.19401,88.8880208 2828.79297,88.7382812 C2829.24219,88.5885417 2829.76628,88.5136719 2830.36523,88.5136719 C2831.26367,88.5136719 2832.08724,88.6634115 2832.83594,88.9628906 C2833.58464,89.2623698 2834.10872,89.6367188 2834.4082,90.0859375 C2834.85742,90.5351562 2835.1569,91.0592448 2835.30664,91.6582031 C2835.60612,92.2571615 2835.75586,92.8561198 2835.75586,93.4550781 C2835.75586,94.0540365 2835.68099,94.578125 2835.53125,95.0273438 C2835.23177,95.6263021 2834.93229,96.1503906 2834.63281,96.5996094 C2834.18359,97.1985677 2833.65951,97.7226562 2833.06055,98.171875 C2832.46159,98.7708333 2831.78776,99.2949219 2831.03906,99.7441406 C2830.29036,100.193359 2829.69141,100.642578 2829.24219,101.091797 C2828.79297,101.541016 2828.41862,102.065104 2828.11914,102.664062 C2827.81966,103.113281 2827.52018,103.5625 2827.2207,104.011719 C2827.07096,104.460938 2826.92122,104.835286 2826.77148,105.134766 C2827.66992,105.134766 2828.79297,105.134766 2830.14062,105.134766 C2831.48828,105.134766 2833.13542,105.134766 2835.08203,105.134766 Z" transform="translate(-2813)"/></svg>