<svg xmlns="http://www.w3.org/2000/svg" width="120" height="243" viewBox="0 0 120 243"><path fill="#131313" d="M110.749023,31.3798828 C110.749023,59.6780599 110.749023,102.125326 110.749023,158.72168 C110.749023,158.859049 110.749023,158.927734 110.749023,158.927734 C110.611654,158.927734 110.542969,158.927734 110.542969,158.927734 C110.542969,159.202474 110.542969,159.408529 110.542969,159.545898 C110.542969,159.683268 110.542969,159.820638 110.542969,159.958008 C110.542969,159.958008 110.542969,160.026693 110.542969,160.164062 C110.542969,160.301432 110.542969,160.438802 110.542969,160.576172 C110.405599,160.713542 110.336914,160.850911 110.336914,160.988281 C110.336914,161.125651 110.268229,161.194336 110.130859,161.194336 C110.130859,161.331706 110.130859,161.469076 110.130859,161.606445 C110.130859,161.743815 110.062174,161.8125 109.924805,161.8125 C109.924805,161.94987 109.85612,162.08724 109.71875,162.224609 C109.71875,162.361979 109.650065,162.499349 109.512695,162.636719 C109.512695,162.636719 109.512695,162.705404 109.512695,162.842773 C109.375326,162.980143 109.306641,163.048828 109.306641,163.048828 C109.169271,163.186198 109.100586,163.323568 109.100586,163.460938 C108.963216,163.598307 108.825846,163.666992 108.688477,163.666992 C108.688477,163.804362 108.619792,163.941732 108.482422,164.079102 C108.482422,164.079102 108.413737,164.147786 108.276367,164.285156 C108.138997,164.285156 108.070312,164.353841 108.070312,164.491211 C107.932943,164.491211 107.795573,164.559896 107.658203,164.697266 C107.658203,164.834635 107.589518,164.90332 107.452148,164.90332 C107.314779,165.04069 107.177409,165.109375 107.040039,165.109375 C107.040039,165.109375 107.040039,165.109375 107.040039,165.109375 C106.902669,165.246745 106.833984,165.31543 106.833984,165.31543 C106.696615,165.31543 106.62793,165.384115 106.62793,165.521484 C106.49056,165.521484 106.35319,165.521484 106.21582,165.521484 C106.21582,165.521484 106.21582,165.590169 106.21582,165.727539 C106.21582,165.727539 106.147135,165.727539 106.009766,165.727539 C105.872396,165.727539 105.666341,165.796224 105.391602,165.933594 C105.254232,165.933594 105.048177,166.002279 104.773438,166.139648 C104.773438,166.139648 104.773438,166.139648 104.773438,166.139648 C104.636068,166.139648 104.567383,166.139648 104.567383,166.139648 C104.292643,166.139648 104.086589,166.139648 103.949219,166.139648 C103.674479,166.277018 103.39974,166.345703 103.125,166.345703 C102.98763,166.345703 102.781576,166.277018 102.506836,166.139648 C102.369466,166.139648 102.163411,166.139648 101.888672,166.139648 C101.888672,166.139648 101.819987,166.139648 101.682617,166.139648 C101.682617,166.139648 101.613932,166.139648 101.476562,166.139648 C101.339193,166.002279 101.133138,165.933594 100.858398,165.933594 C100.721029,165.796224 100.514974,165.727539 100.240234,165.727539 C100.240234,165.727539 100.240234,165.727539 100.240234,165.727539 C100.240234,165.590169 100.240234,165.521484 100.240234,165.521484 C99.9654948,165.521484 99.7594401,165.452799 99.6220703,165.31543 C99.4847005,165.31543 99.3473307,165.246745 99.2099609,165.109375 C99.0725911,165.109375 99.0039062,165.04069 99.0039062,164.90332 C99.0039062,164.90332 98.9352214,164.90332 98.7978516,164.90332 C98.523112,164.628581 98.2483724,164.353841 97.9736328,164.079102 C97.6988932,163.804362 97.4241536,163.460938 97.1494141,163.048828 C97.1494141,163.048828 97.0807292,162.980143 96.9433594,162.842773 C96.9433594,162.842773 96.9433594,162.842773 96.9433594,162.842773 C96.8059896,162.705404 96.7373047,162.636719 96.7373047,162.636719 C96.7373047,162.499349 96.7373047,162.430664 96.7373047,162.430664 C83.8245443,139.627279 64.5240885,105.422201 38.8359375,59.8154297 C38.8359375,81.7945964 38.8359375,114.763346 38.8359375,158.72168 C38.8359375,160.782227 38.1490885,162.568034 36.7753906,164.079102 C35.2643229,165.452799 33.4785156,166.139648 31.4179688,166.139648 C29.3574219,166.139648 27.5716146,165.452799 26.0605469,164.079102 C24.686849,162.568034 24,160.782227 24,158.72168 C24,130.423503 24,87.976237 24,31.3798828 C24,31.3798828 24,31.3111979 24,31.1738281 C24,31.1738281 24,31.1738281 24,31.1738281 C24,31.0364583 24,30.8990885 24,30.7617188 C24,30.624349 24,30.4869792 24,30.3496094 C24,30.2122396 24.0686849,30.0748698 24.2060547,29.9375 C24.2060547,29.8001302 24.2060547,29.6627604 24.2060547,29.5253906 C24.2060547,29.3880208 24.2060547,29.3193359 24.2060547,29.3193359 C24.3434245,29.1819661 24.4121094,29.0445964 24.4121094,28.9072266 C24.4121094,28.7698568 24.4121094,28.632487 24.4121094,28.4951172 C24.5494792,28.3577474 24.6181641,28.2890625 24.6181641,28.2890625 C24.6181641,28.1516927 24.686849,28.0143229 24.8242188,27.8769531 C24.8242188,27.7395833 24.8929036,27.6708984 25.0302734,27.6708984 C25.0302734,27.5335286 25.0989583,27.3961589 25.2363281,27.2587891 C25.2363281,27.1214193 25.305013,27.0527344 25.4423828,27.0527344 C25.4423828,26.9153646 25.5110677,26.7779948 25.6484375,26.640625 C25.6484375,26.640625 25.7171224,26.5719401 25.8544922,26.4345703 C25.8544922,26.2972005 25.9231771,26.2285156 26.0605469,26.2285156 C26.1979167,26.0911458 26.2666016,25.953776 26.2666016,25.8164062 C26.4039714,25.8164062 26.4726562,25.7477214 26.4726562,25.6103516 C26.610026,25.6103516 26.7473958,25.5416667 26.8847656,25.4042969 C27.0221354,25.4042969 27.0908203,25.335612 27.0908203,25.1982422 C27.2281901,25.0608724 27.3655599,24.9921875 27.5029297,24.9921875 C27.5029297,24.9921875 27.5029297,24.9235026 27.5029297,24.7861328 C27.6402995,24.7861328 27.7089844,24.7861328 27.7089844,24.7861328 C27.8463542,24.7861328 27.9150391,24.7861328 27.9150391,24.7861328 C27.9150391,24.7861328 27.983724,24.7174479 28.1210938,24.5800781 C28.2584635,24.5800781 28.3958333,24.5800781 28.5332031,24.5800781 C28.5332031,24.4427083 28.601888,24.3740234 28.7392578,24.3740234 C28.8766276,24.3740234 29.0139974,24.3053385 29.1513672,24.1679688 C29.288737,24.1679688 29.4261068,24.1679688 29.5634766,24.1679688 C29.7008464,24.1679688 29.7695312,24.0992839 29.7695312,23.9619141 C29.906901,23.9619141 30.0442708,23.9619141 30.1816406,23.9619141 C30.3190104,23.9619141 30.4563802,23.9619141 30.59375,23.9619141 C30.7311198,23.9619141 30.8684896,23.9619141 31.0058594,23.9619141 C31.0058594,23.9619141 31.0745443,23.9619141 31.2119141,23.9619141 C31.2119141,23.9619141 31.280599,23.9619141 31.4179688,23.9619141 C31.4179688,23.9619141 31.4179688,23.9619141 31.4179688,23.9619141 C31.5553385,23.9619141 31.6240234,23.9619141 31.6240234,23.9619141 C31.7613932,23.9619141 31.898763,23.9619141 32.0361328,23.9619141 C32.1735026,23.9619141 32.3108724,23.9619141 32.4482422,23.9619141 C32.585612,23.9619141 32.7229818,23.9619141 32.8603516,23.9619141 C32.8603516,24.0992839 32.9290365,24.1679688 33.0664062,24.1679688 C33.203776,24.1679688 33.3411458,24.1679688 33.4785156,24.1679688 C33.6158854,24.3053385 33.7532552,24.3740234 33.890625,24.3740234 C33.890625,24.3740234 33.9593099,24.3740234 34.0966797,24.3740234 C34.2340495,24.5113932 34.3714193,24.5800781 34.5087891,24.5800781 C34.6461589,24.5800781 34.7835286,24.648763 34.9208984,24.7861328 C34.9208984,24.7861328 34.9895833,24.8548177 35.1269531,24.9921875 C35.2643229,24.9921875 35.4016927,25.0608724 35.5390625,25.1982422 C35.5390625,25.1982422 35.6077474,25.2669271 35.7451172,25.4042969 C35.882487,25.4042969 35.9511719,25.4729818 35.9511719,25.6103516 C36.0885417,25.6103516 36.2259115,25.6790365 36.3632812,25.8164062 C36.3632812,25.8164062 36.4319661,25.8850911 36.5693359,26.0224609 C36.7067057,26.1598307 36.7753906,26.2285156 36.7753906,26.2285156 C36.9127604,26.3658854 36.9814453,26.4345703 36.9814453,26.4345703 C37.1188151,26.5719401 37.1875,26.7093099 37.1875,26.8466797 C37.3248698,26.9840495 37.4622396,27.0527344 37.5996094,27.0527344 C37.5996094,27.1901042 37.6682943,27.327474 37.8056641,27.4648438 C37.8056641,27.4648438 37.8056641,27.4648438 37.8056641,27.4648438 C37.8056641,27.6022135 37.874349,27.6708984 38.0117188,27.6708984 C50.7871094,50.4742839 70.0188802,84.679362 95.7070312,130.286133 C95.7070312,108.306966 95.7070312,75.3382161 95.7070312,31.3798828 C95.7070312,29.3193359 96.4625651,27.5335286 97.9736328,26.0224609 C99.3473307,24.648763 101.064453,23.9619141 103.125,23.9619141 C105.185547,23.9619141 106.971354,24.648763 108.482422,26.0224609 C109.99349,27.5335286 110.749023,29.3193359 110.749023,31.3798828 Z M54.6044922,37.7675781 C54.741862,37.7675781 54.8792318,37.6988932 55.0166016,37.5615234 C55.1539714,37.4241536 55.2913411,37.2867839 55.4287109,37.1494141 C62.1598307,49.1005859 72.1878255,66.9586589 85.5126953,90.7236328 C85.5126953,88.5257161 85.5126953,85.297526 85.5126953,81.0390625 C86.0621745,81.0390625 86.7490234,81.0390625 87.5732422,81.0390625 C87.5732422,85.0227865 87.5732422,90.9296875 87.5732422,98.7597656 C80.0179036,85.297526 68.6848958,65.1041667 53.5742188,38.1796875 C53.7115885,38.1796875 53.8489583,38.1110026 53.9863281,37.9736328 C54.2610677,37.9736328 54.4671224,37.9049479 54.6044922,37.7675781 Z M48.4228516,36.1191406 C47.8733724,35.0201823 47.7360026,33.921224 48.0107422,32.8222656 C48.2854818,31.5859375 48.9723307,30.624349 50.0712891,29.9375 C51.1702474,29.3880208 52.3378906,29.250651 53.5742187,29.5253906 C54.8105469,29.9375 55.7034505,30.6930339 56.2529297,31.7919922 C56.8024089,32.6162109 56.9397786,33.5777995 56.6650391,34.6767578 C56.5276693,35.6383464 56.1155599,36.4625651 55.4287109,37.1494141 C55.2913411,37.1494141 55.1539714,37.0120443 55.0166016,36.7373047 C55.7034505,36.1878255 56.1155599,35.4322917 56.2529297,34.4707031 C56.3902995,33.6464844 56.2529297,32.8222656 55.8408203,31.9980469 C55.2913411,31.0364583 54.4671224,30.4182943 53.3681641,30.1435547 C52.2692057,29.8688151 51.2389323,30.0061849 50.2773437,30.5556641 C49.453125,31.1051432 48.8349609,31.8606771 48.4228516,32.8222656 C48.148112,33.921224 48.2854818,34.9514974 48.8349609,35.9130859 C49.2470703,36.7373047 49.8652344,37.2867839 50.6894531,37.5615234 C51.5136719,37.836263 52.4065755,37.9049479 53.3681641,37.7675781 C53.3681641,37.9049479 53.436849,38.0423177 53.5742187,38.1796875 C52.6126302,38.4544271 51.6510417,38.3857422 50.6894531,37.9736328 C49.7278646,37.6988932 48.9723307,37.0807292 48.4228516,36.1191406 Z M54.1923828,37.3554688 C54.4671224,37.218099 54.6731771,37.1494141 54.8105469,37.1494141 C54.9479167,37.0120443 55.0852865,36.8746745 55.2226562,36.7373047 C55.2226562,36.8746745 55.2913411,37.0120443 55.4287109,37.1494141 C55.2913411,37.2867839 55.1539714,37.4241536 55.0166016,37.5615234 C54.8792318,37.6988932 54.741862,37.7675781 54.6044922,37.7675781 C54.4671224,37.9049479 54.2610677,38.0423177 53.9863281,38.1796875 C53.8489583,38.1796875 53.7115885,38.1796875 53.5742188,38.1796875 C53.5742188,38.1796875 53.5055339,38.0423177 53.3681641,37.7675781 C53.5055339,37.7675781 53.6429036,37.6988932 53.7802734,37.5615234 C53.9176432,37.5615234 54.055013,37.4928385 54.1923828,37.3554688 Z M49.2470703,35.7070312 C49.6591797,36.2565104 50.2086589,36.7373047 50.8955078,37.1494141 C51.5823568,37.4241536 52.2692057,37.4928385 52.9560547,37.3554688 C53.0934245,37.3554688 53.2307943,37.4928385 53.3681641,37.7675781 C52.4065755,37.9049479 51.5136719,37.836263 50.6894531,37.5615234 C49.8652344,37.2867839 49.2470703,36.7373047 48.8349609,35.9130859 C48.2854818,34.9514974 48.2167969,33.921224 48.6289063,32.8222656 C48.9036458,31.7233073 49.5218099,30.9677734 50.4833984,30.5556641 C51.444987,30.0061849 52.4065755,29.8688151 53.3681641,30.1435547 C54.4671224,30.4182943 55.2913411,31.0364583 55.8408203,31.9980469 C56.2529297,32.8222656 56.3902995,33.6464844 56.2529297,34.4707031 C56.1155599,35.4322917 55.7721354,36.1878255 55.2226563,36.7373047 C55.0852865,36.5999349 54.9479167,36.4625651 54.8105469,36.3251953 C55.360026,35.7757161 55.7034505,35.0888672 55.8408203,34.2646484 C55.8408203,33.5777995 55.7034505,32.8909505 55.4287109,32.2041016 C55.4287109,32.3414714 55.4287109,32.4101562 55.4287109,32.4101562 C55.4287109,32.547526 55.4973958,32.6162109 55.6347656,32.6162109 C55.4973958,32.6162109 55.4287109,32.547526 55.4287109,32.4101562 C55.4287109,32.4101562 55.4287109,32.3414714 55.4287109,32.2041016 C54.8792318,31.3798828 54.1923828,30.8304036 53.3681641,30.5556641 C52.4065755,30.2809245 51.5136719,30.4182943 50.6894531,30.9677734 C49.8652344,31.3798828 49.3157552,32.0667318 49.0410156,33.0283203 C48.766276,33.9899089 48.8349609,34.8828125 49.2470703,35.7070312 Z M55.2226562,36.7373047 C55.0852865,36.8746745 54.9479167,37.0120443 54.8105469,37.1494141 C54.6731771,37.1494141 54.4671224,37.218099 54.1923828,37.3554688 C54.055013,37.4928385 53.9176432,37.5615234 53.7802734,37.5615234 C53.6429036,37.6988932 53.5055339,37.7675781 53.3681641,37.7675781 C53.2307943,37.6302083 53.0934245,37.4928385 52.9560547,37.3554688 C53.2307943,37.218099 53.436849,37.1494141 53.5742188,37.1494141 C53.7115885,37.1494141 53.8489583,37.0807292 53.9863281,36.9433594 C54.1236979,36.8059896 54.2610677,36.6686198 54.3984375,36.53125 C54.5358073,36.3938802 54.6731771,36.3251953 54.8105469,36.3251953 C54.9479167,36.3251953 55.0166016,36.3938802 55.0166016,36.53125 C55.0166016,36.53125 55.0852865,36.5999349 55.2226562,36.7373047 Z M85.5126953,78.9785156 C85.5126953,79.390625 85.5126953,80.077474 85.5126953,81.0390625 C85.1005859,81.0390625 84.413737,81.0390625 83.4521484,81.0390625 C84.1389974,78.5664062 85.1692708,74.788737 86.5429688,69.7060547 C87.2298177,72.1787109 88.2600911,75.9563802 89.6337891,81.0390625 C89.2216797,81.0390625 88.5348307,81.0390625 87.5732422,81.0390625 C87.5732422,80.6269531 87.5732422,79.9401042 87.5732422,78.9785156 C87.1611328,78.9785156 86.4742839,78.9785156 85.5126953,78.9785156 Z M85.5126953,81.0390625 C86.0621745,81.0390625 86.7490234,81.0390625 87.5732422,81.0390625 C87.5732422,80.6269531 87.5732422,79.9401042 87.5732422,78.9785156 C87.1611328,78.9785156 86.4742839,78.9785156 85.5126953,78.9785156 C85.5126953,79.390625 85.5126953,80.077474 85.5126953,81.0390625 Z M13.8056641,38.7978516 C13.9430339,38.9352214 14.0804036,39.0039062 14.2177734,39.0039062 C14.492513,39.0039062 14.6985677,39.0039062 14.8359375,39.0039062 C14.9733073,39.0039062 15.1106771,39.0039062 15.2480469,39.0039062 C15.5227865,39.0039062 15.7288411,38.9352214 15.8662109,38.7978516 C15.8662109,62.7001953 15.8662109,98.4163411 15.8662109,145.946289 C15.4541016,145.946289 14.7672526,145.946289 13.8056641,145.946289 C13.8056641,128.088216 13.8056641,110.230143 13.8056641,92.3720703 C13.8056641,74.5139974 13.8056641,56.6559245 13.8056641,38.7978516 Z M13.8056641,148.006836 C13.8056641,147.594727 13.8056641,146.907878 13.8056641,145.946289 C13.2561849,145.946289 12.5693359,145.946289 11.7451172,145.946289 C12.4319661,148.556315 13.4622396,152.402669 14.8359375,157.485352 C15.5227865,154.875326 16.5530599,151.028971 17.9267578,145.946289 C17.3772786,145.946289 16.6904297,145.946289 15.8662109,145.946289 C15.8662109,146.495768 15.8662109,147.182617 15.8662109,148.006836 C15.4541016,148.006836 14.7672526,148.006836 13.8056641,148.006836 Z M13.8056641,148.006836 C14.2177734,148.006836 14.9046224,148.006836 15.8662109,148.006836 C15.8662109,147.594727 15.8662109,146.907878 15.8662109,145.946289 C15.4541016,145.946289 14.7672526,145.946289 13.8056641,145.946289 C13.8056641,146.495768 13.8056641,147.182617 13.8056641,148.006836 Z M14.8359375,29.9375 C16.0722656,29.9375 17.1025391,30.4182943 17.9267578,31.3798828 C18.8883464,32.2041016 19.3691406,33.234375 19.3691406,34.4707031 C19.3691406,35.5696615 19.0257161,36.53125 18.3388672,37.3554688 C17.6520182,38.0423177 16.8277995,38.523112 15.8662109,38.7978516 C15.8662109,38.6604818 15.8662109,38.523112 15.8662109,38.3857422 C16.6904297,38.1110026 17.3772786,37.6302083 17.9267578,36.9433594 C18.476237,36.2565104 18.7509766,35.4322917 18.7509766,34.4707031 C18.7509766,33.3717448 18.3388672,32.4788411 17.5146484,31.7919922 C16.8277995,30.9677734 15.9348958,30.5556641 14.8359375,30.5556641 C13.7369792,30.5556641 12.7753906,30.9677734 11.9511719,31.7919922 C11.2643229,32.4788411 10.9208984,33.3717448 10.9208984,34.4707031 C10.9208984,35.4322917 11.195638,36.2565104 11.7451172,36.9433594 C12.2945964,37.6302083 12.9814453,38.1110026 13.8056641,38.3857422 C13.8056641,38.523112 13.8056641,38.6604818 13.8056641,38.7978516 C12.8440755,38.6604818 12.0198568,38.1796875 11.3330078,37.3554688 C10.6461589,36.53125 10.3027344,35.5696615 10.3027344,34.4707031 C10.3027344,33.234375 10.7148438,32.2041016 11.5390625,31.3798828 C12.500651,30.4182943 13.5996094,29.9375 14.8359375,29.9375 Z M14.8359375,38.3857422 C14.9733073,38.3857422 15.1106771,38.3857422 15.2480469,38.3857422 C15.5227865,38.3857422 15.7288411,38.3857422 15.8662109,38.3857422 C15.8662109,38.523112 15.8662109,38.6604818 15.8662109,38.7978516 C15.7288411,38.9352214 15.5227865,39.0039062 15.2480469,39.0039062 C15.1106771,39.0039062 14.9733073,39.0039062 14.8359375,39.0039062 C14.6985677,39.0039062 14.492513,39.0039062 14.2177734,39.0039062 C14.0804036,39.0039062 13.9430339,38.9352214 13.8056641,38.7978516 C13.8056641,38.6604818 13.8056641,38.523112 13.8056641,38.3857422 C13.9430339,38.3857422 14.0804036,38.3857422 14.2177734,38.3857422 C14.492513,38.3857422 14.6985677,38.3857422 14.8359375,38.3857422 Z M11.3330078,34.4707031 C11.3330078,35.2949219 11.5390625,35.9817708 11.9511719,36.53125 C12.500651,37.0807292 13.1188151,37.4928385 13.8056641,37.7675781 C13.8056641,37.9049479 13.8056641,38.1110026 13.8056641,38.3857422 C12.9814453,38.1110026 12.2945964,37.6302083 11.7451172,36.9433594 C11.195638,36.2565104 10.9208984,35.4322917 10.9208984,34.4707031 C10.9208984,33.3717448 11.2643229,32.4788411 11.9511719,31.7919922 C12.7753906,30.9677734 13.7369792,30.5556641 14.8359375,30.5556641 C15.9348958,30.5556641 16.8277995,30.9677734 17.5146484,31.7919922 C18.3388672,32.4788411 18.7509766,33.3717448 18.7509766,34.4707031 C18.7509766,35.4322917 18.476237,36.2565104 17.9267578,36.9433594 C17.3772786,37.6302083 16.6904297,38.1110026 15.8662109,38.3857422 C15.8662109,38.2483724 15.8662109,38.0423177 15.8662109,37.7675781 C16.5530599,37.4928385 17.1025391,37.0807292 17.5146484,36.53125 C18.0641276,35.9817708 18.3388672,35.2949219 18.3388672,34.4707031 C18.3388672,33.5091146 17.9954427,32.6848958 17.3085938,31.9980469 C16.6217448,31.3111979 15.797526,30.9677734 14.8359375,30.9677734 C13.874349,30.9677734 13.0501302,31.3111979 12.3632812,31.9980469 C11.6764323,32.6848958 11.3330078,33.5091146 11.3330078,34.4707031 C11.3330078,34.3333333 11.3330078,34.1959635 11.3330078,34.0585938 C11.3330078,33.921224 11.3330078,33.8525391 11.3330078,33.8525391 C11.3330078,33.8525391 11.3330078,33.921224 11.3330078,34.0585938 C11.3330078,34.1959635 11.3330078,34.3333333 11.3330078,34.4707031 C11.3330078,34.6080729 11.3330078,34.7454427 11.3330078,34.8828125 C11.3330078,35.0201823 11.3330078,35.0888672 11.3330078,35.0888672 C11.3330078,35.0888672 11.3330078,35.0201823 11.3330078,34.8828125 C11.3330078,34.7454427 11.3330078,34.6080729 11.3330078,34.4707031 Z M15.8662109,38.3857422 C15.7288411,38.3857422 15.5227865,38.3857422 15.2480469,38.3857422 C15.1106771,38.523112 14.9733073,38.5917969 14.8359375,38.5917969 C14.6985677,38.5917969 14.492513,38.523112 14.2177734,38.3857422 C14.0804036,38.3857422 13.9430339,38.3857422 13.8056641,38.3857422 C13.8056641,38.2483724 13.8056641,38.0423177 13.8056641,37.7675781 C13.9430339,37.7675781 14.0804036,37.836263 14.2177734,37.9736328 C14.3551432,37.9736328 14.5611979,37.9736328 14.8359375,37.9736328 C14.9733073,37.9736328 15.1106771,37.9736328 15.2480469,37.9736328 C15.5227865,37.836263 15.7288411,37.7675781 15.8662109,37.7675781 C15.8662109,37.9049479 15.8662109,37.9736328 15.8662109,37.9736328 C15.8662109,38.1110026 15.8662109,38.2483724 15.8662109,38.3857422 Z M3.50292969,30.5556641 C3.50292969,30.5556641 3.57161458,30.624349 3.70898438,30.7617188 C3.70898438,30.7617188 3.77766927,30.8304036 3.91503906,30.9677734 C3.91503906,30.9677734 3.91503906,31.0364583 3.91503906,31.1738281 C3.91503906,31.1738281 3.91503906,31.242513 3.91503906,31.3798828 C3.91503906,33.0283203 3.91503906,35.1575521 3.91503906,37.7675781 C3.91503906,40.2402344 3.91503906,43.1936849 3.91503906,46.6279297 C3.91503906,46.7652995 3.91503906,46.9026693 3.91503906,47.0400391 C3.91503906,47.0400391 3.84635417,47.108724 3.70898438,47.2460938 C3.57161458,47.3834635 3.50292969,47.4521484 3.50292969,47.4521484 C3.3655599,47.4521484 3.2281901,47.4521484 3.09082031,47.4521484 C2.95345052,47.4521484 2.81608073,47.4521484 2.67871094,47.4521484 C2.67871094,47.4521484 2.61002604,47.3834635 2.47265625,47.2460938 C2.33528646,47.108724 2.26660156,47.0400391 2.26660156,47.0400391 C2.26660156,46.9026693 2.26660156,46.7652995 2.26660156,46.6279297 C2.26660156,45.116862 2.26660156,43.3310547 2.26660156,41.2705078 C2.26660156,39.0725911 2.26660156,36.4625651 2.26660156,33.4404297 C2.12923177,33.5777995 1.99186198,33.7151693 1.85449219,33.8525391 C1.85449219,33.8525391 1.78580729,33.921224 1.6484375,34.0585938 C1.51106771,34.1959635 1.37369792,34.2646484 1.23632812,34.2646484 C1.23632812,34.4020182 1.16764323,34.4707031 1.03027344,34.4707031 C0.892903646,34.4707031 0.755533854,34.4020182 0.618164062,34.2646484 C0.480794271,34.2646484 0.412109375,34.1959635 0.412109375,34.0585938 C0.274739583,34.0585938 0.206054688,33.9899089 0.206054688,33.8525391 C0.0686848958,33.7151693 0,33.5777995 0,33.4404297 C0,33.3030599 0.0686848958,33.234375 0.206054688,33.234375 C0.206054688,33.0970052 0.274739583,32.9596354 0.412109375,32.8222656 C0.549479167,32.547526 0.82421875,32.2727865 1.23632812,31.9980469 C1.6484375,31.5859375 2.06054688,31.1738281 2.47265625,30.7617188 C2.61002604,30.624349 2.67871094,30.5556641 2.67871094,30.5556641 C2.81608073,30.5556641 2.88476562,30.5556641 2.88476562,30.5556641 C2.88476562,30.5556641 2.95345052,30.5556641 3.09082031,30.5556641 C3.09082031,30.5556641 3.09082031,30.5556641 3.09082031,30.5556641 C3.2281901,30.5556641 3.296875,30.5556641 3.296875,30.5556641 C3.296875,30.5556641 3.3655599,30.5556641 3.50292969,30.5556641 Z M64.0830078,41.6826172 C64.0830078,41.6826172 64.0830078,41.6826172 64.0830078,41.6826172 C64.0830078,41.5452474 64.0143229,41.4765625 63.8769531,41.4765625 C63.8769531,41.3391927 63.8769531,41.2705078 63.8769531,41.2705078 C63.8769531,41.2705078 63.8769531,41.2018229 63.8769531,41.0644531 C63.8769531,41.0644531 63.8769531,41.0644531 63.8769531,41.0644531 C63.8769531,41.0644531 63.8769531,41.0644531 63.8769531,41.0644531 C63.8769531,41.0644531 63.945638,40.9270833 64.0830078,40.6523438 C64.0830078,40.514974 64.1516927,40.2402344 64.2890625,39.828125 C64.2890625,39.4160156 64.4264323,38.9352214 64.7011719,38.3857422 C64.8385417,37.9736328 65.1132812,37.4928385 65.5253906,36.9433594 C65.6627604,36.6686198 65.8688151,36.3938802 66.1435547,36.1191406 C66.2809245,35.844401 66.4869792,35.5696615 66.7617188,35.2949219 C67.0364583,35.0201823 67.3798828,34.7454427 67.7919922,34.4707031 C68.0667318,34.1959635 68.4101562,33.9899089 68.8222656,33.8525391 C69.5091146,33.3030599 70.1272786,32.8222656 70.6767578,32.4101562 C71.0888672,31.9980469 71.4322917,31.5859375 71.7070312,31.1738281 C71.844401,30.8990885 71.9817708,30.624349 72.1191406,30.3496094 C72.2565104,29.9375 72.3251953,29.5940755 72.3251953,29.3193359 C72.3251953,29.3193359 72.3251953,29.250651 72.3251953,29.1132812 C72.3251953,28.9759115 72.3251953,28.9072266 72.3251953,28.9072266 C72.3251953,28.7698568 72.2565104,28.632487 72.1191406,28.4951172 C72.1191406,28.3577474 72.1191406,28.2890625 72.1191406,28.2890625 C71.9817708,28.0143229 71.844401,27.8082682 71.7070312,27.6708984 C71.5696615,27.5335286 71.3636068,27.3961589 71.0888672,27.2587891 C70.9514974,27.1214193 70.6767578,26.9840495 70.2646484,26.8466797 C69.9899089,26.8466797 69.6464844,26.8466797 69.234375,26.8466797 C68.8222656,26.8466797 68.4788411,26.8466797 68.2041016,26.8466797 C67.929362,26.9840495 67.6546224,27.1214193 67.3798828,27.2587891 C67.1051432,27.3961589 66.8990885,27.5335286 66.7617188,27.6708984 C66.624349,27.945638 66.4869792,28.2203776 66.3496094,28.4951172 C66.2122396,28.632487 66.1435547,28.7011719 66.1435547,28.7011719 C66.0061849,28.8385417 65.8688151,28.9072266 65.7314453,28.9072266 C65.5940755,29.0445964 65.5253906,29.0445964 65.5253906,28.9072266 C65.3880208,28.9072266 65.250651,28.9072266 65.1132812,28.9072266 C64.9759115,28.9072266 64.9072266,28.8385417 64.9072266,28.7011719 C64.7698568,28.7011719 64.7011719,28.632487 64.7011719,28.4951172 C64.5638021,28.3577474 64.4951172,28.2203776 64.4951172,28.0830078 C64.4951172,27.945638 64.5638021,27.8082682 64.7011719,27.6708984 C64.8385417,27.2587891 65.1132812,26.9153646 65.5253906,26.640625 C65.8001302,26.2285156 66.0748698,25.8850911 66.3496094,25.6103516 C66.7617188,25.4729818 67.1738281,25.335612 67.5859375,25.1982422 C68.1354167,25.0608724 68.6848958,24.9921875 69.234375,24.9921875 C70.0585938,24.9921875 70.8141276,25.1295573 71.5009766,25.4042969 C72.0504557,25.5416667 72.53125,25.8850911 72.9433594,26.4345703 C73.3554688,26.8466797 73.6302083,27.327474 73.7675781,27.8769531 C73.9049479,28.4264323 73.9736328,28.9759115 73.9736328,29.5253906 C73.9736328,30.0748698 73.9049479,30.5556641 73.7675781,30.9677734 C73.6302083,31.5172526 73.3554688,31.9980469 72.9433594,32.4101562 C72.6686198,32.9596354 72.2565104,33.4404297 71.7070312,33.8525391 C71.1575521,34.4020182 70.4707031,34.8828125 69.6464844,35.2949219 C69.0970052,35.7070312 68.6162109,36.1191406 68.2041016,36.53125 C67.6546224,36.9433594 67.242513,37.4241536 66.9677734,37.9736328 C66.6930339,38.3857422 66.4869792,38.7978516 66.3496094,39.2099609 C66.2122396,39.6220703 66.0748698,39.9654948 65.9375,40.2402344 C66.7617188,40.2402344 67.7919922,40.2402344 69.0283203,40.2402344 C70.2646484,40.2402344 71.7070312,40.2402344 73.3554688,40.2402344 C73.4928385,40.2402344 73.6302083,40.3089193 73.7675781,40.4462891 C73.9049479,40.4462891 73.9736328,40.4462891 73.9736328,40.4462891 C74.1110026,40.5836589 74.1796875,40.7210286 74.1796875,40.8583984 C74.3170573,40.9957682 74.3857422,41.133138 74.3857422,41.2705078 C74.3857422,41.2705078 74.3170573,41.3391927 74.1796875,41.4765625 C74.1796875,41.6139323 74.1110026,41.7513021 73.9736328,41.8886719 C73.9736328,41.8886719 73.9049479,41.9573568 73.7675781,42.0947266 C73.6302083,42.0947266 73.4928385,42.0947266 73.3554688,42.0947266 C72.6686198,42.0947266 71.9817708,42.0947266 71.2949219,42.0947266 C70.6080729,42.0947266 69.8525391,42.0947266 69.0283203,42.0947266 C68.3414714,42.0947266 67.6546224,42.0947266 66.9677734,42.0947266 C66.2809245,42.0947266 65.5253906,42.0947266 64.7011719,42.0947266 C64.7011719,42.0947266 64.7011719,42.0947266 64.7011719,42.0947266 C64.5638021,42.0947266 64.4951172,42.0260417 64.4951172,41.8886719 C64.3577474,41.8886719 64.2890625,41.8886719 64.2890625,41.8886719 C64.2890625,41.8886719 64.2203776,41.819987 64.0830078,41.6826172 Z" transform="translate(-7.726)"/></svg>