<svg xmlns="http://www.w3.org/2000/svg" width="207" height="207" viewBox="0 0 207 207"><path fill="#131313" d="M164.166016,34.0859375 C164.166016,64.9322917 164.166016,111.201823 164.166016,172.894531 C164.166016,173.044271 164.166016,173.119141 164.166016,173.119141 C164.016276,173.119141 163.941406,173.119141 163.941406,173.119141 C163.941406,173.41862 163.941406,173.643229 163.941406,173.792969 C163.941406,173.942708 163.941406,174.092448 163.941406,174.242188 C163.941406,174.242188 163.941406,174.317057 163.941406,174.466797 C163.941406,174.616536 163.941406,174.766276 163.941406,174.916016 C163.791667,175.065755 163.716797,175.215495 163.716797,175.365234 C163.716797,175.514974 163.641927,175.589844 163.492188,175.589844 C163.492188,175.739583 163.492188,175.889323 163.492188,176.039062 C163.492188,176.188802 163.417318,176.263672 163.267578,176.263672 C163.267578,176.413411 163.192708,176.563151 163.042969,176.712891 C163.042969,176.86263 162.968099,177.01237 162.818359,177.162109 C162.818359,177.162109 162.818359,177.236979 162.818359,177.386719 C162.66862,177.536458 162.59375,177.611328 162.59375,177.611328 C162.44401,177.761068 162.369141,177.910807 162.369141,178.060547 C162.219401,178.210286 162.069661,178.285156 161.919922,178.285156 C161.919922,178.434896 161.845052,178.584635 161.695312,178.734375 C161.695312,178.734375 161.620443,178.809245 161.470703,178.958984 C161.320964,178.958984 161.246094,179.033854 161.246094,179.183594 C161.096354,179.183594 160.946615,179.258464 160.796875,179.408203 C160.796875,179.557943 160.722005,179.632812 160.572266,179.632812 C160.422526,179.782552 160.272786,179.857422 160.123047,179.857422 C160.123047,179.857422 160.123047,179.857422 160.123047,179.857422 C159.973307,180.007161 159.898438,180.082031 159.898438,180.082031 C159.748698,180.082031 159.673828,180.156901 159.673828,180.306641 C159.524089,180.306641 159.374349,180.306641 159.224609,180.306641 C159.224609,180.306641 159.224609,180.38151 159.224609,180.53125 C159.224609,180.53125 159.14974,180.53125 159,180.53125 C158.85026,180.53125 158.625651,180.60612 158.326172,180.755859 C158.176432,180.755859 157.951823,180.830729 157.652344,180.980469 C157.652344,180.980469 157.652344,180.980469 157.652344,180.980469 C157.502604,180.980469 157.427734,180.980469 157.427734,180.980469 C157.128255,180.980469 156.903646,180.980469 156.753906,180.980469 C156.454427,181.130208 156.154948,181.205078 155.855469,181.205078 C155.705729,181.205078 155.48112,181.130208 155.181641,180.980469 C155.031901,180.980469 154.807292,180.980469 154.507812,180.980469 C154.507812,180.980469 154.432943,180.980469 154.283203,180.980469 C154.283203,180.980469 154.208333,180.980469 154.058594,180.980469 C153.908854,180.830729 153.684245,180.755859 153.384766,180.755859 C153.235026,180.60612 153.010417,180.53125 152.710938,180.53125 C152.710938,180.53125 152.710938,180.53125 152.710938,180.53125 C152.710938,180.38151 152.710938,180.306641 152.710938,180.306641 C152.411458,180.306641 152.186849,180.231771 152.037109,180.082031 C151.88737,180.082031 151.73763,180.007161 151.587891,179.857422 C151.438151,179.857422 151.363281,179.782552 151.363281,179.632812 C151.363281,179.632812 151.288411,179.632812 151.138672,179.632812 C150.839193,179.333333 150.539714,179.033854 150.240234,178.734375 C149.940755,178.434896 149.641276,178.060547 149.341797,177.611328 C149.341797,177.611328 149.266927,177.536458 149.117188,177.386719 C149.117188,177.386719 149.117188,177.386719 149.117188,177.386719 C148.967448,177.236979 148.892578,177.162109 148.892578,177.162109 C148.892578,177.01237 148.892578,176.9375 148.892578,176.9375 C134.817057,152.080729 113.778646,114.795573 85.7773438,65.0820312 C85.7773438,89.0403646 85.7773438,124.977865 85.7773438,172.894531 C85.7773438,175.140625 85.0286458,177.08724 83.53125,178.734375 C81.8841146,180.231771 79.9375,180.980469 77.6914062,180.980469 C75.4453125,180.980469 73.4986979,180.231771 71.8515625,178.734375 C70.3541667,177.08724 69.6054688,175.140625 69.6054688,172.894531 C69.6054688,142.048177 69.6054688,95.7786458 69.6054688,34.0859375 C69.6054688,34.0859375 69.6054688,34.0110677 69.6054688,33.8613281 C69.6054688,33.8613281 69.6054688,33.8613281 69.6054688,33.8613281 C69.6054688,33.7115885 69.6054688,33.561849 69.6054688,33.4121094 C69.6054688,33.2623698 69.6054688,33.1126302 69.6054688,32.9628906 C69.6054688,32.813151 69.6803385,32.6634115 69.8300781,32.5136719 C69.8300781,32.3639323 69.8300781,32.2141927 69.8300781,32.0644531 C69.8300781,31.9147135 69.8300781,31.8398438 69.8300781,31.8398438 C69.9798177,31.6901042 70.0546875,31.5403646 70.0546875,31.390625 C70.0546875,31.2408854 70.0546875,31.0911458 70.0546875,30.9414062 C70.2044271,30.7916667 70.2792969,30.7167969 70.2792969,30.7167969 C70.2792969,30.5670573 70.3541667,30.4173177 70.5039062,30.2675781 C70.5039062,30.1178385 70.578776,30.0429688 70.7285156,30.0429688 C70.7285156,29.8932292 70.8033854,29.7434896 70.953125,29.59375 C70.953125,29.4440104 71.0279948,29.3691406 71.1777344,29.3691406 C71.1777344,29.219401 71.2526042,29.0696615 71.4023438,28.9199219 C71.4023438,28.9199219 71.4772135,28.8450521 71.6269531,28.6953125 C71.6269531,28.5455729 71.7018229,28.4707031 71.8515625,28.4707031 C72.0013021,28.3209635 72.0761719,28.171224 72.0761719,28.0214844 C72.2259115,28.0214844 72.3007812,27.9466146 72.3007812,27.796875 C72.4505208,27.796875 72.6002604,27.7220052 72.75,27.5722656 C72.8997396,27.5722656 72.9746094,27.4973958 72.9746094,27.3476562 C73.124349,27.1979167 73.2740885,27.1230469 73.4238281,27.1230469 C73.4238281,27.1230469 73.4238281,27.0481771 73.4238281,26.8984375 C73.5735677,26.8984375 73.6484375,26.8984375 73.6484375,26.8984375 C73.7981771,26.8984375 73.8730469,26.8984375 73.8730469,26.8984375 C73.8730469,26.8984375 73.9479167,26.8235677 74.0976562,26.6738281 C74.2473958,26.6738281 74.3971354,26.6738281 74.546875,26.6738281 C74.546875,26.5240885 74.6217448,26.4492188 74.7714844,26.4492188 C74.921224,26.4492188 75.0709635,26.374349 75.2207031,26.2246094 C75.3704427,26.2246094 75.5201823,26.2246094 75.6699219,26.2246094 C75.8196615,26.2246094 75.8945312,26.1497396 75.8945312,26 C76.0442708,26 76.1940104,26 76.34375,26 C76.4934896,26 76.6432292,26 76.7929688,26 C76.9427083,26 77.0924479,26 77.2421875,26 C77.2421875,26 77.3170573,26 77.4667969,26 C77.4667969,26 77.5416667,26 77.6914062,26 C77.6914062,26 77.6914062,26 77.6914062,26 C77.8411458,26 77.9160156,26 77.9160156,26 C78.0657552,26 78.2154948,26 78.3652344,26 C78.514974,26 78.6647135,26 78.8144531,26 C78.9641927,26 79.1139323,26 79.2636719,26 C79.2636719,26.1497396 79.3385417,26.2246094 79.4882812,26.2246094 C79.6380208,26.2246094 79.7877604,26.2246094 79.9375,26.2246094 C80.0872396,26.374349 80.2369792,26.4492188 80.3867188,26.4492188 C80.3867188,26.4492188 80.4615885,26.4492188 80.6113281,26.4492188 C80.7610677,26.5989583 80.9108073,26.6738281 81.0605469,26.6738281 C81.2102865,26.6738281 81.360026,26.7486979 81.5097656,26.8984375 C81.5097656,26.8984375 81.5846354,26.9733073 81.734375,27.1230469 C81.8841146,27.1230469 82.0338542,27.1979167 82.1835938,27.3476562 C82.1835938,27.3476562 82.2584635,27.422526 82.4082031,27.5722656 C82.5579427,27.5722656 82.6328125,27.6471354 82.6328125,27.796875 C82.7825521,27.796875 82.9322917,27.8717448 83.0820312,28.0214844 C83.0820312,28.0214844 83.156901,28.0963542 83.3066406,28.2460938 C83.4563802,28.3958333 83.53125,28.4707031 83.53125,28.4707031 C83.6809896,28.6204427 83.7558594,28.6953125 83.7558594,28.6953125 C83.905599,28.8450521 83.9804688,28.9947917 83.9804688,29.1445312 C84.1302083,29.2942708 84.2799479,29.3691406 84.4296875,29.3691406 C84.4296875,29.5188802 84.5045573,29.6686198 84.6542969,29.8183594 C84.6542969,29.8183594 84.6542969,29.8183594 84.6542969,29.8183594 C84.6542969,29.968099 84.7291667,30.0429688 84.8789062,30.0429688 C98.8046875,54.8997396 119.768229,92.1848958 147.769531,141.898438 C147.769531,117.940104 147.769531,82.0026042 147.769531,34.0859375 C147.769531,31.8398438 148.593099,29.8932292 150.240234,28.2460938 C151.73763,26.7486979 153.609375,26 155.855469,26 C158.101562,26 160.048177,26.7486979 161.695312,28.2460938 C163.342448,29.8932292 164.166016,31.8398438 164.166016,34.0859375 Z M103.521484,41.0488281 C103.671224,41.0488281 103.820964,40.9739583 103.970703,40.8242188 C104.120443,40.6744792 104.270182,40.5247396 104.419922,40.375 C111.757161,53.4023438 122.688151,72.8684896 137.212891,98.7734375 C137.212891,96.3776042 137.212891,92.858724 137.212891,88.2167969 C137.811849,88.2167969 138.560547,88.2167969 139.458984,88.2167969 C139.458984,92.5592448 139.458984,98.9980469 139.458984,107.533203 C131.223307,92.858724 118.869792,70.8470052 102.398438,41.4980469 C102.548177,41.4980469 102.697917,41.4231771 102.847656,41.2734375 C103.147135,41.2734375 103.371745,41.1985677 103.521484,41.0488281 Z M97.2324219,39.9257812 C97.2324219,39.9257812 97.1575521,39.9257812 97.0078125,39.9257812 C97.0078125,39.7760417 97.0078125,39.7011719 97.0078125,39.7011719 C97.0078125,39.7011719 97.0078125,39.7760417 97.0078125,39.9257812 C97.1575521,39.9257812 97.2324219,39.9257812 97.2324219,39.9257812 Z M96.3339844,38.578125 C96.3339844,38.578125 96.4088542,38.6529948 96.5585938,38.8027344 C96.5585938,38.8027344 96.5585938,38.8027344 96.5585938,38.8027344 C96.5585938,38.8027344 96.5585938,38.8027344 96.5585938,38.8027344 C96.4088542,38.6529948 96.3339844,38.578125 96.3339844,38.578125 Z M96.7832031,39.2519531 C96.7832031,39.1022135 96.7083333,39.0273438 96.5585938,39.0273438 C96.5585938,38.8776042 96.5585938,38.8027344 96.5585938,38.8027344 C96.5585938,38.8027344 96.5585938,38.8776042 96.5585938,39.0273438 C96.7083333,39.0273438 96.7832031,39.1022135 96.7832031,39.2519531 Z M96.7832031,39.2519531 C96.7832031,39.2519531 96.7832031,39.3268229 96.7832031,39.4765625 C96.9329427,39.4765625 97.0078125,39.5514323 97.0078125,39.7011719 C97.0078125,39.5514323 96.9329427,39.4765625 96.7832031,39.4765625 C96.7832031,39.3268229 96.7832031,39.2519531 96.7832031,39.2519531 Z M96.7832031,39.2519531 C96.1842448,38.0540365 96.0345052,36.8561198 96.3339844,35.6582031 C96.6334635,34.3105469 97.3821615,33.2623698 98.5800781,32.5136719 C99.7779948,31.9147135 101.050781,31.764974 102.398438,32.0644531 C103.746094,32.5136719 104.719401,33.3372396 105.318359,34.5351562 C105.917318,35.4335938 106.067057,36.4817708 105.767578,37.6796875 C105.617839,38.7278646 105.16862,39.6263021 104.419922,40.375 C104.270182,40.375 104.120443,40.2252604 103.970703,39.9257812 C104.719401,39.3268229 105.16862,38.5032552 105.318359,37.4550781 C105.468099,36.5566406 105.318359,35.6582031 104.869141,34.7597656 C104.270182,33.7115885 103.371745,33.0377604 102.173828,32.7382812 C100.975911,32.4388021 99.8528646,32.5885417 98.8046875,33.1875 C97.90625,33.7864583 97.2324219,34.610026 96.7832031,35.6582031 C96.483724,36.8561198 96.6334635,37.9791667 97.2324219,39.0273438 C97.6816406,39.9257812 98.3554688,40.5247396 99.2539062,40.8242188 C100.152344,41.1236979 101.125651,41.1985677 102.173828,41.0488281 C102.173828,41.1985677 102.248698,41.3483073 102.398438,41.4980469 C101.35026,41.797526 100.302083,41.7226562 99.2539062,41.2734375 C98.2057292,40.9739583 97.3821615,40.3001302 96.7832031,39.2519531 Z M103.072266,40.5996094 C103.371745,40.4498698 103.596354,40.375 103.746094,40.375 C103.895833,40.2252604 104.045573,40.0755208 104.195312,39.9257812 C104.195312,40.0755208 104.270182,40.2252604 104.419922,40.375 C104.270182,40.5247396 104.120443,40.6744792 103.970703,40.8242188 C103.820964,40.9739583 103.671224,41.0488281 103.521484,41.0488281 C103.371745,41.1985677 103.147135,41.3483073 102.847656,41.4980469 C102.697917,41.4980469 102.548177,41.4980469 102.398438,41.4980469 C102.398438,41.4980469 102.323568,41.3483073 102.173828,41.0488281 C102.323568,41.0488281 102.473307,40.9739583 102.623047,40.8242188 C102.772786,40.8242188 102.922526,40.749349 103.072266,40.5996094 Z M97.6816406,38.8027344 C98.1308594,39.4016927 98.7298177,39.9257812 99.4785156,40.375 C100.227214,40.6744792 100.975911,40.749349 101.724609,40.5996094 C101.874349,40.5996094 102.024089,40.749349 102.173828,41.0488281 C101.125651,41.1985677 100.152344,41.1236979 99.2539062,40.8242188 C98.3554688,40.5247396 97.6816406,39.9257812 97.2324219,39.0273438 C96.6334635,37.9791667 96.5585938,36.8561198 97.0078125,35.6582031 C97.3072917,34.4602865 97.9811198,33.6367188 99.0292969,33.1875 C100.077474,32.5885417 101.125651,32.4388021 102.173828,32.7382812 C103.371745,33.0377604 104.270182,33.7115885 104.869141,34.7597656 C105.318359,35.6582031 105.468099,36.5566406 105.318359,37.4550781 C105.16862,38.5032552 104.794271,39.3268229 104.195312,39.9257812 C104.045573,39.7760417 103.895833,39.6263021 103.746094,39.4765625 C104.345052,38.8776042 104.719401,38.1289062 104.869141,37.2304688 C104.869141,36.4817708 104.719401,35.7330729 104.419922,34.984375 C104.419922,35.1341146 104.419922,35.2089844 104.419922,35.2089844 C104.419922,35.358724 104.494792,35.4335938 104.644531,35.4335938 C104.494792,35.4335938 104.419922,35.358724 104.419922,35.2089844 C104.419922,35.2089844 104.419922,35.1341146 104.419922,34.984375 C103.820964,34.0859375 103.072266,33.4869792 102.173828,33.1875 C101.125651,32.8880208 100.152344,33.0377604 99.2539062,33.6367188 C98.3554688,34.0859375 97.7565104,34.8346354 97.4570312,35.8828125 C97.1575521,36.9309896 97.2324219,37.9042969 97.6816406,38.8027344 Z M104.195312,39.9257812 C104.045573,40.0755208 103.895833,40.2252604 103.746094,40.375 C103.596354,40.375 103.371745,40.4498698 103.072266,40.5996094 C102.922526,40.749349 102.772786,40.8242188 102.623047,40.8242188 C102.473307,40.9739583 102.323568,41.0488281 102.173828,41.0488281 C102.024089,40.8990885 101.874349,40.749349 101.724609,40.5996094 C102.024089,40.4498698 102.248698,40.375 102.398438,40.375 C102.548177,40.375 102.697917,40.3001302 102.847656,40.1503906 C102.997396,40.000651 103.147135,39.8509115 103.296875,39.7011719 C103.446615,39.5514323 103.596354,39.4765625 103.746094,39.4765625 C103.895833,39.4765625 103.970703,39.5514323 103.970703,39.7011719 C103.970703,39.7011719 104.045573,39.7760417 104.195312,39.9257812 Z M137.212891,85.9707031 C137.212891,86.4199219 137.212891,87.1686198 137.212891,88.2167969 C136.763672,88.2167969 136.014974,88.2167969 134.966797,88.2167969 C135.715495,85.5214844 136.838542,81.4036458 138.335938,75.8632812 C139.084635,78.5585938 140.207682,82.6764323 141.705078,88.2167969 C141.255859,88.2167969 140.507161,88.2167969 139.458984,88.2167969 C139.458984,87.7675781 139.458984,87.0188802 139.458984,85.9707031 C139.009766,85.9707031 138.261068,85.9707031 137.212891,85.9707031 Z M137.212891,88.2167969 C137.811849,88.2167969 138.560547,88.2167969 139.458984,88.2167969 C139.458984,87.7675781 139.458984,87.0188802 139.458984,85.9707031 C139.009766,85.9707031 138.261068,85.9707031 137.212891,85.9707031 C137.212891,86.4199219 137.212891,87.1686198 137.212891,88.2167969 Z M59.0488281,42.171875 C59.1985677,42.3216146 59.3483073,42.3964844 59.4980469,42.3964844 C59.797526,42.3964844 60.0221354,42.3964844 60.171875,42.3964844 C60.3216146,42.3964844 60.4713542,42.3964844 60.6210938,42.3964844 C60.9205729,42.3964844 61.1451823,42.3216146 61.2949219,42.171875 C61.2949219,68.2265625 61.2949219,107.158854 61.2949219,158.96875 C60.8457031,158.96875 60.0970052,158.96875 59.0488281,158.96875 C59.0488281,139.502604 59.0488281,120.036458 59.0488281,100.570312 C59.0488281,81.1041667 59.0488281,61.6380208 59.0488281,42.171875 Z M59.0488281,161.214844 C59.0488281,160.765625 59.0488281,160.016927 59.0488281,158.96875 C58.4498698,158.96875 57.7011719,158.96875 56.8027344,158.96875 C57.5514323,161.813802 58.6744792,166.00651 60.171875,171.546875 C60.9205729,168.701823 62.0436198,164.509115 63.5410156,158.96875 C62.9420573,158.96875 62.1933594,158.96875 61.2949219,158.96875 C61.2949219,159.567708 61.2949219,160.316406 61.2949219,161.214844 C60.8457031,161.214844 60.0970052,161.214844 59.0488281,161.214844 Z M59.0488281,161.214844 C59.4980469,161.214844 60.2467448,161.214844 61.2949219,161.214844 C61.2949219,160.765625 61.2949219,160.016927 61.2949219,158.96875 C60.8457031,158.96875 60.0970052,158.96875 59.0488281,158.96875 C59.0488281,159.567708 59.0488281,160.316406 59.0488281,161.214844 Z M60.171875,32.5136719 C61.5195312,32.5136719 62.6425781,33.0377604 63.5410156,34.0859375 C64.5891927,34.984375 65.1132812,36.1074219 65.1132812,37.4550781 C65.1132812,38.6529948 64.7389323,39.7011719 63.9902344,40.5996094 C63.2415365,41.3483073 62.343099,41.8723958 61.2949219,42.171875 C61.2949219,42.0221354 61.2949219,41.8723958 61.2949219,41.7226562 C62.1933594,41.4231771 62.9420573,40.8990885 63.5410156,40.1503906 C64.139974,39.4016927 64.4394531,38.5032552 64.4394531,37.4550781 C64.4394531,36.2571615 63.9902344,35.2838542 63.0917969,34.5351562 C62.343099,33.6367188 61.3697917,33.1875 60.171875,33.1875 C58.9739583,33.1875 57.9257812,33.6367188 57.0273438,34.5351562 C56.2786458,35.2838542 55.9042969,36.2571615 55.9042969,37.4550781 C55.9042969,38.5032552 56.203776,39.4016927 56.8027344,40.1503906 C57.4016927,40.8990885 58.1503906,41.4231771 59.0488281,41.7226562 C59.0488281,41.8723958 59.0488281,42.0221354 59.0488281,42.171875 C58.000651,42.0221354 57.1022135,41.4980469 56.3535156,40.5996094 C55.6048177,39.7011719 55.2304688,38.6529948 55.2304688,37.4550781 C55.2304688,36.1074219 55.6796875,34.984375 56.578125,34.0859375 C57.6263021,33.0377604 58.8242188,32.5136719 60.171875,32.5136719 Z M60.171875,41.7226562 C60.3216146,41.7226562 60.4713542,41.7226562 60.6210938,41.7226562 C60.9205729,41.7226562 61.1451823,41.7226562 61.2949219,41.7226562 C61.2949219,41.8723958 61.2949219,42.0221354 61.2949219,42.171875 C61.1451823,42.3216146 60.9205729,42.3964844 60.6210938,42.3964844 C60.4713542,42.3964844 60.3216146,42.3964844 60.171875,42.3964844 C60.0221354,42.3964844 59.797526,42.3964844 59.4980469,42.3964844 C59.3483073,42.3964844 59.1985677,42.3216146 59.0488281,42.171875 C59.0488281,42.0221354 59.0488281,41.8723958 59.0488281,41.7226562 C59.1985677,41.7226562 59.3483073,41.7226562 59.4980469,41.7226562 C59.797526,41.7226562 60.0221354,41.7226562 60.171875,41.7226562 Z M56.3535156,37.4550781 C56.3535156,38.3535156 56.578125,39.1022135 57.0273438,39.7011719 C57.6263021,40.3001302 58.3001302,40.749349 59.0488281,41.0488281 C59.0488281,41.1985677 59.0488281,41.4231771 59.0488281,41.7226562 C58.1503906,41.4231771 57.4016927,40.8990885 56.8027344,40.1503906 C56.203776,39.4016927 55.9042969,38.5032552 55.9042969,37.4550781 C55.9042969,36.2571615 56.2786458,35.2838542 57.0273438,34.5351562 C57.9257812,33.6367188 58.9739583,33.1875 60.171875,33.1875 C61.3697917,33.1875 62.343099,33.6367188 63.0917969,34.5351562 C63.9902344,35.2838542 64.4394531,36.2571615 64.4394531,37.4550781 C64.4394531,38.5032552 64.139974,39.4016927 63.5410156,40.1503906 C62.9420573,40.8990885 62.1933594,41.4231771 61.2949219,41.7226562 C61.2949219,41.5729167 61.2949219,41.3483073 61.2949219,41.0488281 C62.0436198,40.749349 62.6425781,40.3001302 63.0917969,39.7011719 C63.6907552,39.1022135 63.9902344,38.3535156 63.9902344,37.4550781 C63.9902344,36.406901 63.6158854,35.5084635 62.8671875,34.7597656 C62.1184896,34.0110677 61.2200521,33.6367188 60.171875,33.6367188 C59.1236979,33.6367188 58.2252604,34.0110677 57.4765625,34.7597656 C56.7278646,35.5084635 56.3535156,36.406901 56.3535156,37.4550781 C56.3535156,37.3053385 56.3535156,37.155599 56.3535156,37.0058594 C56.3535156,36.8561198 56.3535156,36.78125 56.3535156,36.78125 C56.3535156,36.78125 56.3535156,36.8561198 56.3535156,37.0058594 C56.3535156,37.155599 56.3535156,37.3053385 56.3535156,37.4550781 C56.3535156,37.6048177 56.3535156,37.7545573 56.3535156,37.9042969 C56.3535156,38.0540365 56.3535156,38.1289062 56.3535156,38.1289062 C56.3535156,38.1289062 56.3535156,38.0540365 56.3535156,37.9042969 C56.3535156,37.7545573 56.3535156,37.6048177 56.3535156,37.4550781 Z M61.2949219,41.7226562 C61.1451823,41.7226562 60.9205729,41.7226562 60.6210938,41.7226562 C60.4713542,41.8723958 60.3216146,41.9472656 60.171875,41.9472656 C60.0221354,41.9472656 59.797526,41.8723958 59.4980469,41.7226562 C59.3483073,41.7226562 59.1985677,41.7226562 59.0488281,41.7226562 C59.0488281,41.5729167 59.0488281,41.3483073 59.0488281,41.0488281 C59.1985677,41.0488281 59.3483073,41.1236979 59.4980469,41.2734375 C59.6477865,41.2734375 59.8723958,41.2734375 60.171875,41.2734375 C60.3216146,41.2734375 60.4713542,41.2734375 60.6210938,41.2734375 C60.9205729,41.1236979 61.1451823,41.0488281 61.2949219,41.0488281 C61.2949219,41.1985677 61.2949219,41.2734375 61.2949219,41.2734375 C61.2949219,41.4231771 61.2949219,41.5729167 61.2949219,41.7226562 Z M47.8183594,33.1875 C47.8183594,33.1875 47.8932292,33.2623698 48.0429688,33.4121094 C48.0429688,33.4121094 48.1178385,33.4869792 48.2675781,33.6367188 C48.2675781,33.6367188 48.2675781,33.7115885 48.2675781,33.8613281 C48.2675781,33.8613281 48.2675781,33.9361979 48.2675781,34.0859375 C48.2675781,35.8828125 48.2675781,38.203776 48.2675781,41.0488281 C48.2675781,43.7441406 48.2675781,46.9635417 48.2675781,50.7070312 C48.2675781,50.8567708 48.2675781,51.0065104 48.2675781,51.15625 C48.2675781,51.15625 48.1927083,51.2311198 48.0429688,51.3808594 C47.8932292,51.530599 47.8183594,51.6054688 47.8183594,51.6054688 C47.6686198,51.6054688 47.5188802,51.6054688 47.3691406,51.6054688 C47.219401,51.6054688 47.0696615,51.6054688 46.9199219,51.6054688 C46.9199219,51.6054688 46.8450521,51.530599 46.6953125,51.3808594 C46.5455729,51.2311198 46.4707031,51.15625 46.4707031,51.15625 C46.4707031,51.0065104 46.4707031,50.8567708 46.4707031,50.7070312 C46.4707031,49.0598958 46.4707031,47.1132812 46.4707031,44.8671875 C46.4707031,42.4713542 46.4707031,39.6263021 46.4707031,36.3320312 C46.3209635,36.4817708 46.171224,36.6315104 46.0214844,36.78125 C46.0214844,36.78125 45.9466146,36.8561198 45.796875,37.0058594 C45.6471354,37.155599 45.4973958,37.2304688 45.3476562,37.2304688 C45.3476562,37.3802083 45.2727865,37.4550781 45.1230469,37.4550781 C44.9733073,37.4550781 44.8235677,37.3802083 44.6738281,37.2304688 C44.5240885,37.2304688 44.4492188,37.155599 44.4492188,37.0058594 C44.2994792,37.0058594 44.2246094,36.9309896 44.2246094,36.78125 C44.0748698,36.6315104 44,36.4817708 44,36.3320312 C44,36.1822917 44.0748698,36.1074219 44.2246094,36.1074219 C44.2246094,35.9576823 44.2994792,35.8079427 44.4492188,35.6582031 C44.5989583,35.358724 44.8984375,35.0592448 45.3476562,34.7597656 C45.796875,34.3105469 46.2460938,33.8613281 46.6953125,33.4121094 C46.8450521,33.2623698 46.9199219,33.1875 46.9199219,33.1875 C47.0696615,33.1875 47.1445312,33.1875 47.1445312,33.1875 C47.1445312,33.1875 47.219401,33.1875 47.3691406,33.1875 C47.3691406,33.1875 47.3691406,33.1875 47.3691406,33.1875 C47.5188802,33.1875 47.59375,33.1875 47.59375,33.1875 C47.59375,33.1875 47.6686198,33.1875 47.8183594,33.1875 Z M113.853516,45.3164062 C113.853516,45.3164062 113.853516,45.3164062 113.853516,45.3164062 C113.853516,45.1666667 113.778646,45.0917969 113.628906,45.0917969 C113.628906,44.9420573 113.628906,44.8671875 113.628906,44.8671875 C113.628906,44.8671875 113.628906,44.7923177 113.628906,44.6425781 C113.628906,44.6425781 113.628906,44.6425781 113.628906,44.6425781 C113.628906,44.6425781 113.628906,44.6425781 113.628906,44.6425781 C113.628906,44.6425781 113.703776,44.4928385 113.853516,44.1933594 C113.853516,44.0436198 113.928385,43.7441406 114.078125,43.2949219 C114.078125,42.8457031 114.227865,42.3216146 114.527344,41.7226562 C114.677083,41.2734375 114.976562,40.749349 115.425781,40.1503906 C115.575521,39.8509115 115.80013,39.5514323 116.099609,39.2519531 C116.249349,38.952474 116.473958,38.6529948 116.773438,38.3535156 C117.072917,38.0540365 117.447266,37.7545573 117.896484,37.4550781 C118.195964,37.155599 118.570312,36.9309896 119.019531,36.78125 C119.768229,36.1822917 120.442057,35.6582031 121.041016,35.2089844 C121.490234,34.7597656 121.864583,34.3105469 122.164062,33.8613281 C122.313802,33.561849 122.463542,33.2623698 122.613281,32.9628906 C122.763021,32.5136719 122.837891,32.1393229 122.837891,31.8398438 C122.837891,31.8398438 122.837891,31.764974 122.837891,31.6152344 C122.837891,31.4654948 122.837891,31.390625 122.837891,31.390625 C122.837891,31.2408854 122.763021,31.0911458 122.613281,30.9414062 C122.613281,30.7916667 122.613281,30.7167969 122.613281,30.7167969 C122.463542,30.4173177 122.313802,30.1927083 122.164062,30.0429688 C122.014323,29.8932292 121.789714,29.7434896 121.490234,29.59375 C121.340495,29.4440104 121.041016,29.2942708 120.591797,29.1445312 C120.292318,29.1445312 119.917969,29.1445312 119.46875,29.1445312 C119.019531,29.1445312 118.645182,29.1445312 118.345703,29.1445312 C118.046224,29.2942708 117.746745,29.4440104 117.447266,29.59375 C117.147786,29.7434896 116.923177,29.8932292 116.773438,30.0429688 C116.623698,30.3424479 116.473958,30.6419271 116.324219,30.9414062 C116.174479,31.0911458 116.099609,31.1660156 116.099609,31.1660156 C115.94987,31.3157552 115.80013,31.390625 115.650391,31.390625 C115.500651,31.5403646 115.425781,31.5403646 115.425781,31.390625 C115.276042,31.390625 115.126302,31.390625 114.976562,31.390625 C114.826823,31.390625 114.751953,31.3157552 114.751953,31.1660156 C114.602214,31.1660156 114.527344,31.0911458 114.527344,30.9414062 C114.377604,30.7916667 114.302734,30.6419271 114.302734,30.4921875 C114.302734,30.3424479 114.377604,30.1927083 114.527344,30.0429688 C114.677083,29.59375 114.976562,29.219401 115.425781,28.9199219 C115.72526,28.4707031 116.02474,28.0963542 116.324219,27.796875 C116.773438,27.6471354 117.222656,27.4973958 117.671875,27.3476562 C118.270833,27.1979167 118.869792,27.1230469 119.46875,27.1230469 C120.367188,27.1230469 121.190755,27.2727865 121.939453,27.5722656 C122.538411,27.7220052 123.0625,28.0963542 123.511719,28.6953125 C123.960938,29.1445312 124.260417,29.6686198 124.410156,30.2675781 C124.559896,30.8665365 124.634766,31.4654948 124.634766,32.0644531 C124.634766,32.6634115 124.559896,33.1875 124.410156,33.6367188 C124.260417,34.2356771 123.960938,34.7597656 123.511719,35.2089844 C123.21224,35.8079427 122.763021,36.3320312 122.164062,36.78125 C121.565104,37.3802083 120.816406,37.9042969 119.917969,38.3535156 C119.31901,38.8027344 118.794922,39.2519531 118.345703,39.7011719 C117.746745,40.1503906 117.297526,40.6744792 116.998047,41.2734375 C116.698568,41.7226562 116.473958,42.171875 116.324219,42.6210938 C116.174479,43.0703125 116.02474,43.4446615 115.875,43.7441406 C116.773438,43.7441406 117.896484,43.7441406 119.244141,43.7441406 C120.591797,43.7441406 122.164062,43.7441406 123.960938,43.7441406 C124.110677,43.7441406 124.260417,43.8190104 124.410156,43.96875 C124.559896,43.96875 124.634766,43.96875 124.634766,43.96875 C124.784505,44.1184896 124.859375,44.2682292 124.859375,44.4179688 C125.009115,44.5677083 125.083984,44.7174479 125.083984,44.8671875 C125.083984,44.8671875 125.009115,44.9420573 124.859375,45.0917969 C124.859375,45.2415365 124.784505,45.391276 124.634766,45.5410156 C124.634766,45.5410156 124.559896,45.6158854 124.410156,45.765625 C124.260417,45.765625 124.110677,45.765625 123.960938,45.765625 C123.21224,45.765625 122.463542,45.765625 121.714844,45.765625 C120.966146,45.765625 120.142578,45.765625 119.244141,45.765625 C118.495443,45.765625 117.746745,45.765625 116.998047,45.765625 C116.249349,45.765625 115.425781,45.765625 114.527344,45.765625 C114.527344,45.765625 114.527344,45.765625 114.527344,45.765625 C114.377604,45.765625 114.302734,45.6907552 114.302734,45.5410156 C114.152995,45.5410156 114.078125,45.5410156 114.078125,45.5410156 C114.078125,45.5410156 114.003255,45.4661458 113.853516,45.3164062 Z"/></svg>