<svg xmlns="http://www.w3.org/2000/svg" width="120" height="203" viewBox="0 0 120 203"><path fill="#131313" d="M2784.52281,31.1142578 C2784.52281,59.4124349 2784.52281,101.859701 2784.52281,158.456055 C2784.52281,158.593424 2784.52281,158.662109 2784.52281,158.662109 C2784.38544,158.662109 2784.31676,158.662109 2784.31676,158.662109 C2784.31676,158.936849 2784.31676,159.142904 2784.31676,159.280273 C2784.31676,159.417643 2784.31676,159.555013 2784.31676,159.692383 C2784.31676,159.692383 2784.31676,159.761068 2784.31676,159.898437 C2784.31676,160.035807 2784.31676,160.173177 2784.31676,160.310547 C2784.17939,160.447917 2784.1107,160.585286 2784.1107,160.722656 C2784.1107,160.860026 2784.04202,160.928711 2783.90465,160.928711 C2783.90465,161.066081 2783.90465,161.203451 2783.90465,161.34082 C2783.90465,161.47819 2783.83596,161.546875 2783.69859,161.546875 C2783.69859,161.684245 2783.62991,161.821615 2783.49254,161.958984 C2783.49254,162.096354 2783.42385,162.233724 2783.28648,162.371094 C2783.28648,162.371094 2783.28648,162.439779 2783.28648,162.577148 C2783.14911,162.714518 2783.08043,162.783203 2783.08043,162.783203 C2782.94306,162.920573 2782.87437,163.057943 2782.87437,163.195312 C2782.73701,163.332682 2782.59964,163.401367 2782.46227,163.401367 C2782.46227,163.538737 2782.39358,163.676107 2782.25621,163.813477 C2782.25621,163.813477 2782.18753,163.882161 2782.05016,164.019531 C2781.91279,164.019531 2781.8441,164.088216 2781.8441,164.225586 C2781.70673,164.225586 2781.56936,164.294271 2781.43199,164.431641 C2781.43199,164.56901 2781.36331,164.637695 2781.22594,164.637695 C2781.08857,164.775065 2780.9512,164.84375 2780.81383,164.84375 C2780.81383,164.84375 2780.81383,164.84375 2780.81383,164.84375 C2780.67646,164.98112 2780.60777,165.049805 2780.60777,165.049805 C2780.4704,165.049805 2780.40172,165.11849 2780.40172,165.255859 C2780.26435,165.255859 2780.12698,165.255859 2779.98961,165.255859 C2779.98961,165.255859 2779.98961,165.324544 2779.98961,165.461914 C2779.98961,165.461914 2779.92092,165.461914 2779.78355,165.461914 C2779.64618,165.461914 2779.44013,165.530599 2779.16539,165.667969 C2779.02802,165.667969 2778.82197,165.736654 2778.54723,165.874023 C2778.54723,165.874023 2778.54723,165.874023 2778.54723,165.874023 C2778.40986,165.874023 2778.34117,165.874023 2778.34117,165.874023 C2778.06643,165.874023 2777.86038,165.874023 2777.72301,165.874023 C2777.44827,166.011393 2777.17353,166.080078 2776.89879,166.080078 C2776.76142,166.080078 2776.55536,166.011393 2776.28062,165.874023 C2776.14326,165.874023 2775.9372,165.874023 2775.66246,165.874023 C2775.66246,165.874023 2775.59378,165.874023 2775.45641,165.874023 C2775.45641,165.874023 2775.38772,165.874023 2775.25035,165.874023 C2775.11298,165.736654 2774.90693,165.667969 2774.63219,165.667969 C2774.49482,165.530599 2774.28876,165.461914 2774.01402,165.461914 C2774.01402,165.461914 2774.01402,165.461914 2774.01402,165.461914 C2774.01402,165.324544 2774.01402,165.255859 2774.01402,165.255859 C2773.73928,165.255859 2773.53323,165.187174 2773.39586,165.049805 C2773.25849,165.049805 2773.12112,164.98112 2772.98375,164.84375 C2772.84638,164.84375 2772.7777,164.775065 2772.7777,164.637695 C2772.7777,164.637695 2772.70901,164.637695 2772.57164,164.637695 C2772.2969,164.362956 2772.02216,164.088216 2771.74742,163.813477 C2771.47268,163.538737 2771.19794,163.195312 2770.9232,162.783203 C2770.9232,162.783203 2770.85452,162.714518 2770.71715,162.577148 C2770.71715,162.577148 2770.71715,162.577148 2770.71715,162.577148 C2770.57978,162.439779 2770.51109,162.371094 2770.51109,162.371094 C2770.51109,162.233724 2770.51109,162.165039 2770.51109,162.165039 C2757.59833,139.361654 2738.29788,105.156576 2712.60973,59.5498047 C2712.60973,81.5289714 2712.60973,114.497721 2712.60973,158.456055 C2712.60973,160.516602 2711.92288,162.302409 2710.54918,163.813477 C2709.03811,165.187174 2707.2523,165.874023 2705.19176,165.874023 C2703.13121,165.874023 2701.3454,165.187174 2699.83434,163.813477 C2698.46064,162.302409 2697.77379,160.516602 2697.77379,158.456055 C2697.77379,130.157878 2697.77379,87.710612 2697.77379,31.1142578 C2697.77379,31.1142578 2697.77379,31.0455729 2697.77379,30.9082031 C2697.77379,30.9082031 2697.77379,30.9082031 2697.77379,30.9082031 C2697.77379,30.7708333 2697.77379,30.6334635 2697.77379,30.4960937 C2697.77379,30.358724 2697.77379,30.2213542 2697.77379,30.0839844 C2697.77379,29.9466146 2697.84247,29.8092448 2697.97984,29.671875 C2697.97984,29.5345052 2697.97984,29.3971354 2697.97984,29.2597656 C2697.97984,29.1223958 2697.97984,29.0537109 2697.97984,29.0537109 C2698.11721,28.9163411 2698.1859,28.7789714 2698.1859,28.6416016 C2698.1859,28.5042318 2698.1859,28.366862 2698.1859,28.2294922 C2698.32327,28.0921224 2698.39195,28.0234375 2698.39195,28.0234375 C2698.39195,27.8860677 2698.46064,27.7486979 2698.59801,27.6113281 C2698.59801,27.4739583 2698.66669,27.4052734 2698.80406,27.4052734 C2698.80406,27.2679036 2698.87275,27.1305339 2699.01012,26.9931641 C2699.01012,26.8557943 2699.0788,26.7871094 2699.21617,26.7871094 C2699.21617,26.6497396 2699.28486,26.5123698 2699.42223,26.375 C2699.42223,26.375 2699.49091,26.3063151 2699.62828,26.1689453 C2699.62828,26.0315755 2699.69697,25.9628906 2699.83434,25.9628906 C2699.97171,25.8255208 2700.04039,25.688151 2700.04039,25.5507812 C2700.17776,25.5507812 2700.24645,25.4820964 2700.24645,25.3447266 C2700.38382,25.3447266 2700.52118,25.2760417 2700.65855,25.1386719 C2700.79592,25.1386719 2700.86461,25.069987 2700.86461,24.9326172 C2701.00198,24.7952474 2701.13935,24.7265625 2701.27672,24.7265625 C2701.27672,24.7265625 2701.27672,24.6578776 2701.27672,24.5205078 C2701.41409,24.5205078 2701.48277,24.5205078 2701.48277,24.5205078 C2701.62014,24.5205078 2701.68883,24.5205078 2701.68883,24.5205078 C2701.68883,24.5205078 2701.75751,24.4518229 2701.89488,24.3144531 C2702.03225,24.3144531 2702.16962,24.3144531 2702.30699,24.3144531 C2702.30699,24.1770833 2702.37568,24.1083984 2702.51305,24.1083984 C2702.65042,24.1083984 2702.78779,24.0397135 2702.92516,23.9023438 C2703.06253,23.9023438 2703.1999,23.9023438 2703.33727,23.9023438 C2703.47464,23.9023438 2703.54332,23.8336589 2703.54332,23.6962891 C2703.68069,23.6962891 2703.81806,23.6962891 2703.95543,23.6962891 C2704.0928,23.6962891 2704.23017,23.6962891 2704.36754,23.6962891 C2704.50491,23.6962891 2704.64228,23.6962891 2704.77965,23.6962891 C2704.77965,23.6962891 2704.84833,23.6962891 2704.9857,23.6962891 C2704.9857,23.6962891 2705.05439,23.6962891 2705.19176,23.6962891 C2705.19176,23.6962891 2705.19176,23.6962891 2705.19176,23.6962891 C2705.32913,23.6962891 2705.39781,23.6962891 2705.39781,23.6962891 C2705.53518,23.6962891 2705.67255,23.6962891 2705.80992,23.6962891 C2705.94729,23.6962891 2706.08466,23.6962891 2706.22203,23.6962891 C2706.3594,23.6962891 2706.49677,23.6962891 2706.63414,23.6962891 C2706.63414,23.8336589 2706.70283,23.9023438 2706.8402,23.9023438 C2706.97757,23.9023438 2707.11493,23.9023438 2707.2523,23.9023438 C2707.38967,24.0397135 2707.52704,24.1083984 2707.66441,24.1083984 C2707.66441,24.1083984 2707.7331,24.1083984 2707.87047,24.1083984 C2708.00784,24.2457682 2708.14521,24.3144531 2708.28258,24.3144531 C2708.41995,24.3144531 2708.55732,24.383138 2708.69469,24.5205078 C2708.69469,24.5205078 2708.76337,24.5891927 2708.90074,24.7265625 C2709.03811,24.7265625 2709.17548,24.7952474 2709.31285,24.9326172 C2709.31285,24.9326172 2709.38154,25.0013021 2709.51891,25.1386719 C2709.65628,25.1386719 2709.72496,25.2073568 2709.72496,25.3447266 C2709.86233,25.3447266 2709.9997,25.4134115 2710.13707,25.5507812 C2710.13707,25.5507812 2710.20576,25.6194661 2710.34312,25.7568359 C2710.48049,25.8942057 2710.54918,25.9628906 2710.54918,25.9628906 C2710.68655,26.1002604 2710.75523,26.1689453 2710.75523,26.1689453 C2710.8926,26.3063151 2710.96129,26.4436849 2710.96129,26.5810547 C2711.09866,26.7184245 2711.23603,26.7871094 2711.3734,26.7871094 C2711.3734,26.9244792 2711.44208,27.061849 2711.57945,27.1992188 C2711.57945,27.1992188 2711.57945,27.1992188 2711.57945,27.1992188 C2711.57945,27.3365885 2711.64814,27.4052734 2711.78551,27.4052734 C2724.5609,50.2086589 2743.79267,84.413737 2769.48082,130.020508 C2769.48082,108.041341 2769.48082,75.0725911 2769.48082,31.1142578 C2769.48082,29.0537109 2770.23635,27.2679036 2771.74742,25.7568359 C2773.12112,24.383138 2774.83824,23.6962891 2776.89879,23.6962891 C2778.95934,23.6962891 2780.74514,24.383138 2782.25621,25.7568359 C2783.76728,27.2679036 2784.52281,29.0537109 2784.52281,31.1142578 Z M2728.37828,37.5019531 C2728.51565,37.5019531 2728.65302,37.4332682 2728.79039,37.2958984 C2728.92776,37.1585286 2729.06513,37.0211589 2729.2025,36.8837891 C2735.93362,48.8349609 2745.96161,66.6930339 2759.28648,90.4580078 C2759.28648,88.2600911 2759.28648,85.031901 2759.28648,80.7734375 C2759.83596,80.7734375 2760.52281,80.7734375 2761.34703,80.7734375 C2761.34703,84.7571615 2761.34703,90.6640625 2761.34703,98.4941406 C2753.79169,85.031901 2742.45868,64.8385417 2727.34801,37.9140625 C2727.48538,37.9140625 2727.62275,37.8453776 2727.76012,37.7080078 C2728.03486,37.7080078 2728.24091,37.6393229 2728.37828,37.5019531 Z M2722.19664,35.8535156 C2721.64716,34.7545573 2721.50979,33.655599 2721.78453,32.5566406 C2722.05927,31.3203125 2722.74612,30.358724 2723.84508,29.671875 C2724.94404,29.1223958 2726.11168,28.985026 2727.34801,29.2597656 C2728.58434,29.671875 2729.47724,30.4274089 2730.02672,31.5263672 C2730.5762,32.3505859 2730.71357,33.3121745 2730.43883,34.4111328 C2730.30146,35.3727214 2729.88935,36.1969401 2729.2025,36.8837891 C2729.06513,36.8837891 2728.92776,36.7464193 2728.79039,36.4716797 C2729.47724,35.9222005 2729.88935,35.1666667 2730.02672,34.2050781 C2730.16409,33.3808594 2730.02672,32.5566406 2729.61461,31.7324219 C2729.06513,30.7708333 2728.24091,30.1526693 2727.14195,29.8779297 C2726.04299,29.6031901 2725.01272,29.7405599 2724.05113,30.2900391 C2723.22691,30.8395182 2722.60875,31.5950521 2722.19664,32.5566406 C2721.9219,33.655599 2722.05927,34.6858724 2722.60875,35.6474609 C2723.02086,36.4716797 2723.63902,37.0211589 2724.46324,37.2958984 C2725.28746,37.570638 2726.18036,37.6393229 2727.14195,37.5019531 C2727.14195,37.6393229 2727.21064,37.7766927 2727.34801,37.9140625 C2726.38642,38.1888021 2725.42483,38.1201172 2724.46324,37.7080078 C2723.50165,37.4332682 2722.74612,36.8151042 2722.19664,35.8535156 Z M2727.96617,37.0898438 C2728.24091,36.952474 2728.44697,36.8837891 2728.58434,36.8837891 C2728.72171,36.7464193 2728.85908,36.6090495 2728.99645,36.4716797 C2728.99645,36.6090495 2729.06513,36.7464193 2729.2025,36.8837891 C2729.06513,37.0211589 2728.92776,37.1585286 2728.79039,37.2958984 C2728.65302,37.4332682 2728.51565,37.5019531 2728.37828,37.5019531 C2728.24091,37.6393229 2728.03486,37.7766927 2727.76012,37.9140625 C2727.62275,37.9140625 2727.48538,37.9140625 2727.34801,37.9140625 C2727.34801,37.9140625 2727.27932,37.7766927 2727.14195,37.5019531 C2727.27932,37.5019531 2727.41669,37.4332682 2727.55406,37.2958984 C2727.69143,37.2958984 2727.8288,37.2272135 2727.96617,37.0898438 Z M2723.02086,35.4414062 C2723.43297,35.9908854 2723.98245,36.4716797 2724.6693,36.8837891 C2725.35615,37.1585286 2726.04299,37.2272135 2726.72984,37.0898438 C2726.86721,37.0898438 2727.00458,37.2272135 2727.14195,37.5019531 C2726.18036,37.6393229 2725.28746,37.570638 2724.46324,37.2958984 C2723.63902,37.0211589 2723.02086,36.4716797 2722.60875,35.6474609 C2722.05927,34.6858724 2721.99059,33.655599 2722.4027,32.5566406 C2722.67743,31.4576823 2723.2956,30.7021484 2724.25719,30.2900391 C2725.21878,29.7405599 2726.18036,29.6031901 2727.14195,29.8779297 C2728.24091,30.1526693 2729.06513,30.7708333 2729.61461,31.7324219 C2730.02672,32.5566406 2730.16409,33.3808594 2730.02672,34.2050781 C2729.88935,35.1666667 2729.54592,35.9222005 2728.99645,36.4716797 C2728.85908,36.3343099 2728.72171,36.1969401 2728.58434,36.0595703 C2729.13382,35.5100911 2729.47724,34.8232422 2729.61461,33.9990234 C2729.61461,33.3121745 2729.47724,32.6253255 2729.2025,31.9384766 C2729.2025,32.0758464 2729.2025,32.1445312 2729.2025,32.1445312 C2729.2025,32.281901 2729.27118,32.3505859 2729.40855,32.3505859 C2729.27118,32.3505859 2729.2025,32.281901 2729.2025,32.1445312 C2729.2025,32.1445312 2729.2025,32.0758464 2729.2025,31.9384766 C2728.65302,31.1142578 2727.96617,30.5647786 2727.14195,30.2900391 C2726.18036,30.0152995 2725.28746,30.1526693 2724.46324,30.7021484 C2723.63902,31.1142578 2723.08954,31.8011068 2722.8148,32.7626953 C2722.54007,33.7242839 2722.60875,34.6171875 2723.02086,35.4414062 Z M2728.99645,36.4716797 C2728.85908,36.6090495 2728.72171,36.7464193 2728.58434,36.8837891 C2728.44697,36.8837891 2728.24091,36.952474 2727.96617,37.0898438 C2727.8288,37.2272135 2727.69143,37.2958984 2727.55406,37.2958984 C2727.41669,37.4332682 2727.27932,37.5019531 2727.14195,37.5019531 C2727.00458,37.3645833 2726.86721,37.2272135 2726.72984,37.0898438 C2727.00458,36.952474 2727.21064,36.8837891 2727.34801,36.8837891 C2727.48538,36.8837891 2727.62275,36.8151042 2727.76012,36.6777344 C2727.89749,36.5403646 2728.03486,36.4029948 2728.17223,36.265625 C2728.3096,36.1282552 2728.44697,36.0595703 2728.58434,36.0595703 C2728.72171,36.0595703 2728.79039,36.1282552 2728.79039,36.265625 C2728.79039,36.265625 2728.85908,36.3343099 2728.99645,36.4716797 Z M2759.28648,78.7128906 C2759.28648,79.125 2759.28648,79.811849 2759.28648,80.7734375 C2758.87437,80.7734375 2758.18753,80.7734375 2757.22594,80.7734375 C2757.91279,78.3007812 2758.94306,74.523112 2760.31676,69.4404297 C2761.00361,71.9130859 2762.03388,75.6907552 2763.40758,80.7734375 C2762.99547,80.7734375 2762.30862,80.7734375 2761.34703,80.7734375 C2761.34703,80.3613281 2761.34703,79.6744792 2761.34703,78.7128906 C2760.93492,78.7128906 2760.24807,78.7128906 2759.28648,78.7128906 Z M2759.28648,80.7734375 C2759.83596,80.7734375 2760.52281,80.7734375 2761.34703,80.7734375 C2761.34703,80.3613281 2761.34703,79.6744792 2761.34703,78.7128906 C2760.93492,78.7128906 2760.24807,78.7128906 2759.28648,78.7128906 C2759.28648,79.125 2759.28648,79.811849 2759.28648,80.7734375 Z M2687.57945,38.5322266 C2687.71682,38.6695964 2687.85419,38.7382812 2687.99156,38.7382812 C2688.2663,38.7382812 2688.47236,38.7382812 2688.60973,38.7382812 C2688.7471,38.7382812 2688.88447,38.7382812 2689.02184,38.7382812 C2689.29658,38.7382812 2689.50263,38.6695964 2689.64,38.5322266 C2689.64,62.4345703 2689.64,98.1507161 2689.64,145.680664 C2689.22789,145.680664 2688.54104,145.680664 2687.57945,145.680664 C2687.57945,127.822591 2687.57945,109.964518 2687.57945,92.1064453 C2687.57945,74.2483724 2687.57945,56.3902995 2687.57945,38.5322266 Z M2687.57945,147.741211 C2687.57945,147.329102 2687.57945,146.642253 2687.57945,145.680664 C2687.02997,145.680664 2686.34312,145.680664 2685.51891,145.680664 C2686.20576,148.29069 2687.23603,152.137044 2688.60973,157.219727 C2689.29658,154.609701 2690.32685,150.763346 2691.70055,145.680664 C2691.15107,145.680664 2690.46422,145.680664 2689.64,145.680664 C2689.64,146.230143 2689.64,146.916992 2689.64,147.741211 C2689.22789,147.741211 2688.54104,147.741211 2687.57945,147.741211 Z M2687.57945,147.741211 C2687.99156,147.741211 2688.67841,147.741211 2689.64,147.741211 C2689.64,147.329102 2689.64,146.642253 2689.64,145.680664 C2689.22789,145.680664 2688.54104,145.680664 2687.57945,145.680664 C2687.57945,146.230143 2687.57945,146.916992 2687.57945,147.741211 Z M2688.60973,29.671875 C2689.84605,29.671875 2690.87633,30.1526693 2691.70055,31.1142578 C2692.66214,31.9384766 2693.14293,32.96875 2693.14293,34.2050781 C2693.14293,35.3040365 2692.79951,36.265625 2692.11266,37.0898438 C2691.42581,37.7766927 2690.60159,38.257487 2689.64,38.5322266 C2689.64,38.3948568 2689.64,38.257487 2689.64,38.1201172 C2690.46422,37.8453776 2691.15107,37.3645833 2691.70055,36.6777344 C2692.25003,35.9908854 2692.52477,35.1666667 2692.52477,34.2050781 C2692.52477,33.1061198 2692.11266,32.2132161 2691.28844,31.5263672 C2690.60159,30.7021484 2689.70868,30.2900391 2688.60973,30.2900391 C2687.51077,30.2900391 2686.54918,30.7021484 2685.72496,31.5263672 C2685.03811,32.2132161 2684.69469,33.1061198 2684.69469,34.2050781 C2684.69469,35.1666667 2684.96943,35.9908854 2685.51891,36.6777344 C2686.06839,37.3645833 2686.75523,37.8453776 2687.57945,38.1201172 C2687.57945,38.257487 2687.57945,38.3948568 2687.57945,38.5322266 C2686.61786,38.3948568 2685.79365,37.9140625 2685.1068,37.0898438 C2684.41995,36.265625 2684.07652,35.3040365 2684.07652,34.2050781 C2684.07652,32.96875 2684.48863,31.9384766 2685.31285,31.1142578 C2686.27444,30.1526693 2687.3734,29.671875 2688.60973,29.671875 Z M2688.60973,38.1201172 C2688.7471,38.1201172 2688.88447,38.1201172 2689.02184,38.1201172 C2689.29658,38.1201172 2689.50263,38.1201172 2689.64,38.1201172 C2689.64,38.257487 2689.64,38.3948568 2689.64,38.5322266 C2689.50263,38.6695964 2689.29658,38.7382812 2689.02184,38.7382812 C2688.88447,38.7382812 2688.7471,38.7382812 2688.60973,38.7382812 C2688.47236,38.7382812 2688.2663,38.7382812 2687.99156,38.7382812 C2687.85419,38.7382812 2687.71682,38.6695964 2687.57945,38.5322266 C2687.57945,38.3948568 2687.57945,38.257487 2687.57945,38.1201172 C2687.71682,38.1201172 2687.85419,38.1201172 2687.99156,38.1201172 C2688.2663,38.1201172 2688.47236,38.1201172 2688.60973,38.1201172 Z M2685.1068,34.2050781 C2685.1068,35.0292969 2685.31285,35.7161458 2685.72496,36.265625 C2686.27444,36.8151042 2686.8926,37.2272135 2687.57945,37.5019531 C2687.57945,37.6393229 2687.57945,37.8453776 2687.57945,38.1201172 C2686.75523,37.8453776 2686.06839,37.3645833 2685.51891,36.6777344 C2684.96943,35.9908854 2684.69469,35.1666667 2684.69469,34.2050781 C2684.69469,33.1061198 2685.03811,32.2132161 2685.72496,31.5263672 C2686.54918,30.7021484 2687.51077,30.2900391 2688.60973,30.2900391 C2689.70868,30.2900391 2690.60159,30.7021484 2691.28844,31.5263672 C2692.11266,32.2132161 2692.52477,33.1061198 2692.52477,34.2050781 C2692.52477,35.1666667 2692.25003,35.9908854 2691.70055,36.6777344 C2691.15107,37.3645833 2690.46422,37.8453776 2689.64,38.1201172 C2689.64,37.9827474 2689.64,37.7766927 2689.64,37.5019531 C2690.32685,37.2272135 2690.87633,36.8151042 2691.28844,36.265625 C2691.83792,35.7161458 2692.11266,35.0292969 2692.11266,34.2050781 C2692.11266,33.2434896 2691.76923,32.4192708 2691.08238,31.7324219 C2690.39553,31.0455729 2689.57132,30.7021484 2688.60973,30.7021484 C2687.64814,30.7021484 2686.82392,31.0455729 2686.13707,31.7324219 C2685.45022,32.4192708 2685.1068,33.2434896 2685.1068,34.2050781 C2685.1068,34.0677083 2685.1068,33.9303385 2685.1068,33.7929688 C2685.1068,33.655599 2685.1068,33.5869141 2685.1068,33.5869141 C2685.1068,33.5869141 2685.1068,33.655599 2685.1068,33.7929688 C2685.1068,33.9303385 2685.1068,34.0677083 2685.1068,34.2050781 C2685.1068,34.3424479 2685.1068,34.4798177 2685.1068,34.6171875 C2685.1068,34.7545573 2685.1068,34.8232422 2685.1068,34.8232422 C2685.1068,34.8232422 2685.1068,34.7545573 2685.1068,34.6171875 C2685.1068,34.4798177 2685.1068,34.3424479 2685.1068,34.2050781 Z M2689.64,38.1201172 C2689.50263,38.1201172 2689.29658,38.1201172 2689.02184,38.1201172 C2688.88447,38.257487 2688.7471,38.3261719 2688.60973,38.3261719 C2688.47236,38.3261719 2688.2663,38.257487 2687.99156,38.1201172 C2687.85419,38.1201172 2687.71682,38.1201172 2687.57945,38.1201172 C2687.57945,37.9827474 2687.57945,37.7766927 2687.57945,37.5019531 C2687.71682,37.5019531 2687.85419,37.570638 2687.99156,37.7080078 C2688.12893,37.7080078 2688.33499,37.7080078 2688.60973,37.7080078 C2688.7471,37.7080078 2688.88447,37.7080078 2689.02184,37.7080078 C2689.29658,37.570638 2689.50263,37.5019531 2689.64,37.5019531 C2689.64,37.6393229 2689.64,37.7080078 2689.64,37.7080078 C2689.64,37.8453776 2689.64,37.9827474 2689.64,38.1201172 Z M2677.27672,30.2900391 C2677.27672,30.2900391 2677.3454,30.358724 2677.48277,30.4960938 C2677.48277,30.4960938 2677.55146,30.5647786 2677.68883,30.7021484 C2677.68883,30.7021484 2677.68883,30.7708333 2677.68883,30.9082031 C2677.68883,30.9082031 2677.68883,30.976888 2677.68883,31.1142578 C2677.68883,32.7626953 2677.68883,34.8919271 2677.68883,37.5019531 C2677.68883,39.9746094 2677.68883,42.9280599 2677.68883,46.3623047 C2677.68883,46.4996745 2677.68883,46.6370443 2677.68883,46.7744141 C2677.68883,46.7744141 2677.62014,46.843099 2677.48277,46.9804688 C2677.3454,47.1178385 2677.27672,47.1865234 2677.27672,47.1865234 C2677.13935,47.1865234 2677.00198,47.1865234 2676.86461,47.1865234 C2676.72724,47.1865234 2676.58987,47.1865234 2676.4525,47.1865234 C2676.4525,47.1865234 2676.38382,47.1178385 2676.24645,46.9804688 C2676.10908,46.843099 2676.04039,46.7744141 2676.04039,46.7744141 C2676.04039,46.6370443 2676.04039,46.4996745 2676.04039,46.3623047 C2676.04039,44.851237 2676.04039,43.0654297 2676.04039,41.0048828 C2676.04039,38.8069661 2676.04039,36.1969401 2676.04039,33.1748047 C2675.90302,33.3121745 2675.76565,33.4495443 2675.62828,33.5869141 C2675.62828,33.5869141 2675.5596,33.655599 2675.42223,33.7929688 C2675.28486,33.9303385 2675.14749,33.9990234 2675.01012,33.9990234 C2675.01012,34.1363932 2674.94143,34.2050781 2674.80406,34.2050781 C2674.66669,34.2050781 2674.52932,34.1363932 2674.39195,33.9990234 C2674.25458,33.9990234 2674.1859,33.9303385 2674.1859,33.7929688 C2674.04853,33.7929688 2673.97984,33.7242839 2673.97984,33.5869141 C2673.84247,33.4495443 2673.77379,33.3121745 2673.77379,33.1748047 C2673.77379,33.0374349 2673.84247,32.96875 2673.97984,32.96875 C2673.97984,32.8313802 2674.04853,32.6940104 2674.1859,32.5566406 C2674.32327,32.281901 2674.59801,32.0071615 2675.01012,31.7324219 C2675.42223,31.3203125 2675.83434,30.9082031 2676.24645,30.4960938 C2676.38382,30.358724 2676.4525,30.2900391 2676.4525,30.2900391 C2676.58987,30.2900391 2676.65855,30.2900391 2676.65855,30.2900391 C2676.65855,30.2900391 2676.72724,30.2900391 2676.86461,30.2900391 C2676.86461,30.2900391 2676.86461,30.2900391 2676.86461,30.2900391 C2677.00198,30.2900391 2677.07066,30.2900391 2677.07066,30.2900391 C2677.07066,30.2900391 2677.13935,30.2900391 2677.27672,30.2900391 Z M2737.8568,41.4169922 C2737.8568,41.4169922 2737.8568,41.4169922 2737.8568,41.4169922 C2737.8568,41.2796224 2737.78811,41.2109375 2737.65074,41.2109375 C2737.65074,41.0735677 2737.65074,41.0048828 2737.65074,41.0048828 C2737.65074,41.0048828 2737.65074,40.9361979 2737.65074,40.7988281 C2737.65074,40.7988281 2737.65074,40.7988281 2737.65074,40.7988281 C2737.65074,40.7988281 2737.65074,40.7988281 2737.65074,40.7988281 C2737.65074,40.7988281 2737.71943,40.6614583 2737.8568,40.3867188 C2737.8568,40.249349 2737.92548,39.9746094 2738.06285,39.5625 C2738.06285,39.1503906 2738.20022,38.6695964 2738.47496,38.1201172 C2738.61233,37.7080078 2738.88707,37.2272135 2739.29918,36.6777344 C2739.43655,36.4029948 2739.6426,36.1282552 2739.91734,35.8535156 C2740.05471,35.578776 2740.26077,35.3040365 2740.53551,35.0292969 C2740.81025,34.7545573 2741.15367,34.4798177 2741.56578,34.2050781 C2741.84052,33.9303385 2742.18395,33.7242839 2742.59605,33.5869141 C2743.2829,33.0374349 2743.90107,32.5566406 2744.45055,32.1445312 C2744.86266,31.7324219 2745.20608,31.3203125 2745.48082,30.9082031 C2745.61819,30.6334635 2745.75556,30.358724 2745.89293,30.0839844 C2746.0303,29.671875 2746.09898,29.3284505 2746.09898,29.0537109 C2746.09898,29.0537109 2746.09898,28.985026 2746.09898,28.8476563 C2746.09898,28.7102865 2746.09898,28.6416016 2746.09898,28.6416016 C2746.09898,28.5042318 2746.0303,28.366862 2745.89293,28.2294922 C2745.89293,28.0921224 2745.89293,28.0234375 2745.89293,28.0234375 C2745.75556,27.7486979 2745.61819,27.5426432 2745.48082,27.4052734 C2745.34345,27.2679036 2745.1374,27.1305339 2744.86266,26.9931641 C2744.72529,26.8557943 2744.45055,26.7184245 2744.03844,26.5810547 C2743.7637,26.5810547 2743.42027,26.5810547 2743.00816,26.5810547 C2742.59605,26.5810547 2742.25263,26.5810547 2741.97789,26.5810547 C2741.70315,26.7184245 2741.42841,26.8557943 2741.15367,26.9931641 C2740.87893,27.1305339 2740.67288,27.2679036 2740.53551,27.4052734 C2740.39814,27.680013 2740.26077,27.9547526 2740.1234,28.2294922 C2739.98603,28.366862 2739.91734,28.4355469 2739.91734,28.4355469 C2739.77997,28.5729167 2739.6426,28.6416016 2739.50523,28.6416016 C2739.36786,28.7789714 2739.29918,28.7789714 2739.29918,28.6416016 C2739.16181,28.6416016 2739.02444,28.6416016 2738.88707,28.6416016 C2738.7497,28.6416016 2738.68102,28.5729167 2738.68102,28.4355469 C2738.54365,28.4355469 2738.47496,28.366862 2738.47496,28.2294922 C2738.33759,28.0921224 2738.26891,27.9547526 2738.26891,27.8173828 C2738.26891,27.680013 2738.33759,27.5426432 2738.47496,27.4052734 C2738.61233,26.9931641 2738.88707,26.6497396 2739.29918,26.375 C2739.57392,25.9628906 2739.84866,25.6194661 2740.1234,25.3447266 C2740.53551,25.2073568 2740.94762,25.069987 2741.35973,24.9326172 C2741.90921,24.7952474 2742.45868,24.7265625 2743.00816,24.7265625 C2743.83238,24.7265625 2744.58792,24.8639323 2745.27477,25.1386719 C2745.82424,25.2760417 2746.30504,25.6194661 2746.71715,26.1689453 C2747.12926,26.5810547 2747.404,27.061849 2747.54137,27.6113281 C2747.67874,28.1608073 2747.74742,28.7102865 2747.74742,29.2597656 C2747.74742,29.8092448 2747.67874,30.2900391 2747.54137,30.7021484 C2747.404,31.2516276 2747.12926,31.7324219 2746.71715,32.1445312 C2746.44241,32.6940104 2746.0303,33.1748047 2745.48082,33.5869141 C2744.93134,34.1363932 2744.24449,34.6171875 2743.42027,35.0292969 C2742.87079,35.4414063 2742.39,35.8535156 2741.97789,36.265625 C2741.42841,36.6777344 2741.0163,37.1585286 2740.74156,37.7080078 C2740.46682,38.1201172 2740.26077,38.5322266 2740.1234,38.9443359 C2739.98603,39.3564453 2739.84866,39.6998698 2739.71129,39.9746094 C2740.53551,39.9746094 2741.56578,39.9746094 2742.80211,39.9746094 C2744.03844,39.9746094 2745.48082,39.9746094 2747.12926,39.9746094 C2747.26663,39.9746094 2747.404,40.0432943 2747.54137,40.1806641 C2747.67874,40.1806641 2747.74742,40.1806641 2747.74742,40.1806641 C2747.88479,40.3180339 2747.95348,40.4554036 2747.95348,40.5927734 C2748.09085,40.7301432 2748.15953,40.867513 2748.15953,41.0048828 C2748.15953,41.0048828 2748.09085,41.0735677 2747.95348,41.2109375 C2747.95348,41.3483073 2747.88479,41.4856771 2747.74742,41.6230469 C2747.74742,41.6230469 2747.67874,41.6917318 2747.54137,41.8291016 C2747.404,41.8291016 2747.26663,41.8291016 2747.12926,41.8291016 C2746.44241,41.8291016 2745.75556,41.8291016 2745.06871,41.8291016 C2744.38186,41.8291016 2743.62633,41.8291016 2742.80211,41.8291016 C2742.11526,41.8291016 2741.42841,41.8291016 2740.74156,41.8291016 C2740.05471,41.8291016 2739.29918,41.8291016 2738.47496,41.8291016 C2738.47496,41.8291016 2738.47496,41.8291016 2738.47496,41.8291016 C2738.33759,41.8291016 2738.26891,41.7604167 2738.26891,41.6230469 C2738.13154,41.6230469 2738.06285,41.6230469 2738.06285,41.6230469 C2738.06285,41.6230469 2737.99417,41.554362 2737.8568,41.4169922 Z" transform="translate(-2681.5 -23.734)"/></svg>