<svg xmlns="http://www.w3.org/2000/svg" width="95" height="243" viewBox="0 0 95 243"><path fill="#131313" d="M71.2480469,79 C76.6386719,79 81.1308594,79.7486979 84.7246094,81.2460938 C88.3183594,82.7434896 91.2382812,84.6901042 93.484375,87.0859375 C97.6770833,91.578125 100.147786,96.7441406 100.896484,102.583984 C101.495443,108.423828 101.794922,113.065755 101.794922,116.509766 C101.794922,125.344401 101.794922,138.671224 101.794922,156.490234 C101.794922,158.736328 101.046224,160.682943 99.5488281,162.330078 C97.9016927,163.827474 95.9550781,164.576172 93.7089844,164.576172 C91.4628906,164.576172 89.5911458,163.827474 88.09375,162.330078 C86.4466146,160.682943 85.6230469,158.736328 85.6230469,156.490234 C85.6230469,147.655599 85.6230469,134.328776 85.6230469,116.509766 C85.6230469,108.124349 84.6497396,102.509115 82.703125,99.6640625 C80.7565104,96.6692708 76.938151,95.171875 71.2480469,95.171875 C64.6595052,95.171875 58.3704427,97.5677083 52.3808594,102.359375 C46.2415365,107.151042 43.171875,113.365234 43.171875,121.001953 C43.171875,124.595703 43.171875,129.911458 43.171875,136.949219 C43.171875,141.291667 43.171875,147.805339 43.171875,156.490234 C43.171875,158.736328 42.4231771,160.682943 40.9257812,162.330078 C39.2786458,163.827474 37.3320312,164.576172 35.0859375,164.576172 C32.8398438,164.576172 30.8932292,163.827474 29.2460938,162.330078 C27.7486979,160.682943 27,158.736328 27,156.490234 C27,152.147786 27,145.634115 27,136.949219 C27,133.355469 27,128.039714 27,121.001953 C27,113.514974 27,102.209635 27,87.0859375 C27,84.8398438 27.7486979,82.8932292 29.2460938,81.2460938 C30.8932292,79.7486979 32.8398438,79 35.0859375,79 C37.3320312,79 39.2786458,79.7486979 40.9257812,81.2460938 C42.4231771,82.8932292 43.171875,84.8398438 43.171875,87.0859375 C43.171875,87.3854167 43.171875,87.9095052 43.171875,88.6582031 C46.9153646,85.6634115 51.1829427,83.3424479 55.9746094,81.6953125 C60.6165365,79.8984375 65.7076823,79 71.2480469,79 Z M71.4257812,68.5195312 C76.8164062,68.5195312 82.281901,69.343099 87.8222656,70.9902344 C93.5123698,72.7871094 98.453776,76.15625 102.646484,81.0976562 C104.892578,83.7929688 106.839193,87.0872396 108.486328,90.9804688 C110.133464,94.7239583 111.33138,99.2161458 112.080078,104.457031 C111.630859,104.457031 110.882161,104.457031 109.833984,104.457031 C108.636068,96.5208333 105.341797,88.9589844 99.9511719,81.7714844 C94.5605469,74.4342448 85.0520833,70.765625 71.4257812,70.765625 C69.0299479,70.765625 66.6341146,70.9153646 64.2382812,71.2148438 C61.8424479,71.5143229 59.5214844,71.9635417 57.2753906,72.5625 C57.2753906,72.4127604 57.2753906,72.188151 57.2753906,71.8886719 C57.125651,71.5891927 57.0507812,71.3645833 57.0507812,71.2148438 C56.9010417,71.0651042 56.8261719,70.9153646 56.8261719,70.765625 C56.6764323,70.6158854 56.6015625,70.5410156 56.6015625,70.5410156 C58.9973958,69.7923177 61.3932292,69.2682292 63.7890625,68.96875 C66.3346354,68.6692708 68.8802083,68.5195312 71.4257812,68.5195312 Z M54.1308594,77.0546875 C55.0292969,76.6054688 55.703125,76.0065104 56.1523438,75.2578125 C56.6015625,74.5091146 56.8261719,73.6855469 56.8261719,72.7871094 C56.8261719,72.7871094 56.9010417,72.7871094 57.0507812,72.7871094 C57.2005208,72.6373698 57.2753906,72.5625 57.2753906,72.5625 C57.4251302,73.6106771 57.2005208,74.5839844 56.6015625,75.4824219 C56.1523438,76.3808594 55.4036458,77.0546875 54.3554688,77.5039062 C53.0078125,78.1028646 51.735026,78.1028646 50.5371094,77.5039062 C49.3391927,77.0546875 48.4407552,76.15625 47.8417969,74.8085938 C47.3925781,73.6106771 47.3925781,72.4127604 47.8417969,71.2148438 C48.4407552,69.8671875 49.3391927,68.96875 50.5371094,68.5195312 C51.735026,68.0703125 52.8580729,67.9954427 53.90625,68.2949219 C55.1041667,68.7441406 56.0026042,69.4179688 56.6015625,70.3164062 C56.4518229,70.4661458 56.3769531,70.5410156 56.3769531,70.5410156 C56.2272135,70.5410156 56.077474,70.5410156 55.9277344,70.5410156 C55.4785156,69.7923177 54.7298177,69.2682292 53.6816406,68.96875 C52.7832031,68.6692708 51.8098958,68.6692708 50.7617188,68.96875 C49.7135417,69.4179688 48.9648438,70.2415365 48.515625,71.4394531 C48.0664062,72.4876302 48.0664062,73.5358073 48.515625,74.5839844 C48.9648438,75.781901 49.7135417,76.6054688 50.7617188,77.0546875 C51.8098958,77.5039062 52.9329427,77.5039062 54.1308594,77.0546875 Z M54.3554688,77.5039062 C54.5052083,77.5039062 54.6549479,77.4290365 54.8046875,77.2792969 C54.9544271,77.2792969 55.0292969,77.2792969 55.0292969,77.2792969 C54.8795573,77.2792969 54.8046875,77.2792969 54.8046875,77.2792969 C54.6549479,77.4290365 54.5052083,77.5039062 54.3554688,77.5039062 Z M56.6015625,70.5410156 C56.6015625,70.5410156 56.6764323,70.6158854 56.8261719,70.765625 C56.8261719,70.9153646 56.9010417,71.0651042 57.0507812,71.2148438 C57.0507812,71.5143229 57.125651,71.7389323 57.2753906,71.8886719 C57.2753906,72.188151 57.2753906,72.4127604 57.2753906,72.5625 C57.125651,72.7122396 57.0507812,72.7871094 57.0507812,72.7871094 C56.9010417,72.7871094 56.8261719,72.7871094 56.8261719,72.7871094 C56.8261719,72.6373698 56.7513021,72.4127604 56.6015625,72.1132812 C56.6015625,71.8138021 56.5266927,71.5891927 56.3769531,71.4394531 C56.3769531,71.2897135 56.3020833,71.139974 56.1523438,70.9902344 C56.1523438,70.8404948 56.077474,70.6907552 55.9277344,70.5410156 C56.077474,70.5410156 56.2272135,70.5410156 56.3769531,70.5410156 C56.3769531,70.5410156 56.4518229,70.5410156 56.6015625,70.5410156 Z M50.7617188,68.96875 C51.8098958,68.6692708 52.7832031,68.6692708 53.6816406,68.96875 C54.7298177,69.2682292 55.4785156,69.7923177 55.9277344,70.5410156 C55.9277344,70.5410156 55.8528646,70.6158854 55.703125,70.765625 C55.5533854,70.765625 55.4785156,70.765625 55.4785156,70.765625 C54.8795573,70.1666667 54.2057292,69.7174479 53.4570312,69.4179688 C52.5585938,69.1184896 51.735026,69.1933594 50.9863281,69.6425781 C50.9863281,69.4928385 51.0611979,69.4179688 51.2109375,69.4179688 C51.2109375,69.4179688 51.2109375,69.4179688 51.2109375,69.4179688 C51.2109375,69.4179688 51.2109375,69.4179688 51.2109375,69.4179688 C51.3606771,69.4179688 51.4355469,69.4179688 51.4355469,69.4179688 C51.4355469,69.4179688 51.3606771,69.4179688 51.2109375,69.4179688 C51.2109375,69.4179688 51.2109375,69.4179688 51.2109375,69.4179688 C51.2109375,69.4179688 51.2109375,69.4179688 51.2109375,69.4179688 C51.0611979,69.4179688 50.9863281,69.4928385 50.9863281,69.6425781 C50.9863281,69.6425781 50.9114583,69.6425781 50.7617188,69.6425781 C50.7617188,69.6425781 50.7617188,69.6425781 50.7617188,69.6425781 C50.7617188,69.6425781 50.7617188,69.6425781 50.7617188,69.6425781 C50.7617188,69.6425781 50.686849,69.6425781 50.5371094,69.6425781 C50.5371094,69.6425781 50.6119792,69.6425781 50.7617188,69.6425781 C50.7617188,69.6425781 50.7617188,69.6425781 50.7617188,69.6425781 C50.7617188,69.6425781 50.7617188,69.6425781 50.7617188,69.6425781 C50.9114583,69.6425781 50.9863281,69.6425781 50.9863281,69.6425781 C50.0878906,69.9420573 49.4140625,70.6158854 48.9648438,71.6640625 C48.515625,72.5625 48.515625,73.4609375 48.9648438,74.359375 C49.4140625,75.4075521 50.0878906,76.0813802 50.9863281,76.3808594 C51.8847656,76.8300781 52.8580729,76.8300781 53.90625,76.3808594 C54.6549479,76.0813802 55.1790365,75.6321615 55.4785156,75.0332031 C55.9277344,74.4342448 56.1523438,73.7604167 56.1523438,73.0117188 C56.3020833,73.0117188 56.3769531,72.936849 56.3769531,72.7871094 C56.5266927,72.7871094 56.6764323,72.7871094 56.8261719,72.7871094 C56.8261719,73.6855469 56.6015625,74.5091146 56.1523438,75.2578125 C55.5533854,76.0065104 54.8795573,76.6054688 54.1308594,77.0546875 C52.9329427,77.5039062 51.8098958,77.5039062 50.7617188,77.0546875 C49.7135417,76.6054688 48.9648438,75.781901 48.515625,74.5839844 C48.0664062,73.5358073 48.0664062,72.4876302 48.515625,71.4394531 C48.9648438,70.2415365 49.7135417,69.4179688 50.7617188,68.96875 Z M55.9277344,71.6640625 C55.7779948,71.5143229 55.703125,71.3645833 55.703125,71.2148438 C55.5533854,71.0651042 55.4785156,70.9153646 55.4785156,70.765625 C55.4785156,70.765625 55.5533854,70.765625 55.703125,70.765625 C55.8528646,70.6158854 55.9277344,70.5410156 55.9277344,70.5410156 C56.077474,70.6907552 56.1523438,70.8404948 56.1523438,70.9902344 C56.3020833,71.139974 56.3769531,71.2897135 56.3769531,71.4394531 C56.5266927,71.5891927 56.6015625,71.8138021 56.6015625,72.1132812 C56.6015625,72.2630208 56.6764323,72.4876302 56.8261719,72.7871094 C56.6764323,72.7871094 56.5266927,72.8619792 56.3769531,73.0117188 C56.3769531,73.0117188 56.3020833,73.0117188 56.1523438,73.0117188 C56.1523438,72.7122396 56.1523438,72.4876302 56.1523438,72.3378906 C56.0026042,72.0384115 55.9277344,71.8138021 55.9277344,71.6640625 Z M112.529297,106.478516 C112.379557,106.179036 112.304688,105.879557 112.304688,105.580078 C112.304688,105.130859 112.229818,104.75651 112.080078,104.457031 C112.679036,104.307292 113.427734,104.232422 114.326172,104.232422 C113.727214,107.077474 112.903646,111.270182 111.855469,116.810547 C110.957031,114.115234 109.534505,110.072266 107.587891,104.681641 C108.186849,104.681641 108.935547,104.606771 109.833984,104.457031 C109.833984,104.90625 109.908854,105.355469 110.058594,105.804688 C110.058594,106.104167 110.058594,106.478516 110.058594,106.927734 C110.507812,106.777995 110.882161,106.703125 111.181641,106.703125 C111.630859,106.703125 112.080078,106.628255 112.529297,106.478516 Z M112.529297,106.478516 C111.930339,106.628255 111.106771,106.777995 110.058594,106.927734 C110.058594,106.478516 110.058594,106.104167 110.058594,105.804688 C109.908854,105.355469 109.833984,104.90625 109.833984,104.457031 C110.283203,104.457031 111.031901,104.457031 112.080078,104.457031 C112.229818,104.75651 112.304688,105.05599 112.304688,105.355469 C112.304688,105.804688 112.379557,106.179036 112.529297,106.478516 Z M16.171875,97.2695312 C16.3216146,97.2695312 16.4713542,97.2695312 16.6210938,97.2695312 C16.9205729,97.2695312 17.1451823,97.2695312 17.2949219,97.2695312 C17.4446615,97.2695312 17.6692708,97.2695312 17.96875,97.2695312 C18.1184896,97.2695312 18.2682292,97.2695312 18.4179688,97.2695312 C18.4179688,107.751302 18.4179688,123.473958 18.4179688,144.4375 C17.96875,144.4375 17.2200521,144.4375 16.171875,144.4375 C16.171875,136.651042 16.171875,128.789714 16.171875,120.853516 C16.171875,112.917318 16.171875,105.05599 16.171875,97.2695312 Z M16.171875,146.908203 C16.171875,146.309245 16.171875,145.485677 16.171875,144.4375 C15.7226562,144.4375 14.9739583,144.4375 13.9257812,144.4375 C14.6744792,147.282552 15.797526,151.47526 17.2949219,157.015625 C18.0436198,154.170573 19.1666667,149.977865 20.6640625,144.4375 C20.2148438,144.4375 19.4661458,144.4375 18.4179688,144.4375 C18.4179688,145.036458 18.4179688,145.860026 18.4179688,146.908203 C17.96875,146.908203 17.2200521,146.908203 16.171875,146.908203 Z M16.171875,146.908203 C16.6210938,146.908203 17.3697917,146.908203 18.4179688,146.908203 C18.4179688,146.309245 18.4179688,145.485677 18.4179688,144.4375 C17.96875,144.4375 17.2200521,144.4375 16.171875,144.4375 C16.171875,145.036458 16.171875,145.860026 16.171875,146.908203 Z M17.2949219,87.6113281 C18.6425781,87.6113281 19.765625,88.0605469 20.6640625,88.9589844 C21.7122396,90.0071615 22.2363281,91.2050781 22.2363281,92.5527344 C22.2363281,93.6009115 21.8619792,94.5742188 21.1132812,95.4726562 C20.3645833,96.3710938 19.4661458,96.9700521 18.4179688,97.2695312 C18.4179688,97.1197917 18.4179688,96.8951823 18.4179688,96.5957031 C19.3164062,96.296224 20.0651042,95.7721354 20.6640625,95.0234375 C21.2630208,94.2747396 21.5625,93.4511719 21.5625,92.5527344 C21.5625,91.3548177 21.188151,90.3066406 20.4394531,89.4082031 C19.5410156,88.5097656 18.4928385,88.0605469 17.2949219,88.0605469 C16.0970052,88.0605469 15.0488281,88.5097656 14.1503906,89.4082031 C13.4016927,90.3066406 13.0273438,91.3548177 13.0273438,92.5527344 C13.0273438,93.4511719 13.3268229,94.2747396 13.9257812,95.0234375 C14.5247396,95.7721354 15.2734375,96.296224 16.171875,96.5957031 C16.171875,96.7454427 16.171875,96.9700521 16.171875,97.2695312 C15.1236979,96.9700521 14.2252604,96.3710938 13.4765625,95.4726562 C12.7278646,94.5742188 12.3535156,93.6009115 12.3535156,92.5527344 C12.3535156,91.2050781 12.8776042,90.0071615 13.9257812,88.9589844 C14.8242188,88.0605469 15.9472656,87.6113281 17.2949219,87.6113281 Z M17.2949219,96.8203125 C17.4446615,96.8203125 17.6692708,96.8203125 17.96875,96.8203125 C18.1184896,96.6705729 18.2682292,96.5957031 18.4179688,96.5957031 C18.4179688,96.7454427 18.4179688,96.9700521 18.4179688,97.2695312 C18.2682292,97.2695312 18.1184896,97.2695312 17.96875,97.2695312 C17.6692708,97.2695312 17.4446615,97.2695312 17.2949219,97.2695312 C17.1451823,97.2695312 16.9205729,97.2695312 16.6210938,97.2695312 C16.4713542,97.2695312 16.3216146,97.2695312 16.171875,97.2695312 C16.171875,97.1197917 16.171875,96.8951823 16.171875,96.5957031 C16.3216146,96.5957031 16.4713542,96.6705729 16.6210938,96.8203125 C16.9205729,96.8203125 17.1451823,96.8203125 17.2949219,96.8203125 Z M13.4765625,92.5527344 C13.4765625,93.3014323 13.7760417,93.9752604 14.375,94.5742188 C14.8242188,95.3229167 15.4231771,95.7721354 16.171875,95.921875 C16.171875,96.0716146 16.171875,96.296224 16.171875,96.5957031 C15.2734375,96.296224 14.5247396,95.7721354 13.9257812,95.0234375 C13.3268229,94.2747396 13.0273438,93.4511719 13.0273438,92.5527344 C13.0273438,91.3548177 13.4016927,90.3066406 14.1503906,89.4082031 C15.0488281,88.5097656 16.0970052,88.0605469 17.2949219,88.0605469 C18.4928385,88.0605469 19.5410156,88.5097656 20.4394531,89.4082031 C21.188151,90.3066406 21.5625,91.3548177 21.5625,92.5527344 C21.5625,93.4511719 21.2630208,94.2747396 20.6640625,95.0234375 C20.0651042,95.7721354 19.3164062,96.296224 18.4179688,96.5957031 C18.4179688,96.4459635 18.4179688,96.2213542 18.4179688,95.921875 C19.1666667,95.7721354 19.765625,95.3229167 20.2148438,94.5742188 C20.8138021,93.9752604 21.1132812,93.3014323 21.1132812,92.5527344 C21.1132812,91.5045573 20.7389323,90.6061198 19.9902344,89.8574219 C19.2415365,89.108724 18.343099,88.734375 17.2949219,88.734375 C16.2467448,88.734375 15.3483073,89.108724 14.5996094,89.8574219 C13.8509115,90.6061198 13.4765625,91.5045573 13.4765625,92.5527344 C13.4765625,92.2532552 13.4765625,92.1035156 13.4765625,92.1035156 C13.4765625,91.953776 13.4765625,91.8789062 13.4765625,91.8789062 C13.4765625,91.8789062 13.4765625,91.953776 13.4765625,92.1035156 C13.4765625,92.1035156 13.4765625,92.2532552 13.4765625,92.5527344 C13.4765625,92.702474 13.4765625,92.7773438 13.4765625,92.7773438 C13.4765625,92.9270833 13.4765625,93.0019531 13.4765625,93.0019531 C13.4765625,93.0019531 13.4765625,92.9270833 13.4765625,92.7773438 C13.4765625,92.7773438 13.4765625,92.702474 13.4765625,92.5527344 Z M18.4179688,96.5957031 C18.2682292,96.5957031 18.1184896,96.6705729 17.96875,96.8203125 C17.6692708,96.8203125 17.4446615,96.8203125 17.2949219,96.8203125 C17.1451823,96.8203125 16.9205729,96.8203125 16.6210938,96.8203125 C16.4713542,96.6705729 16.3216146,96.5957031 16.171875,96.5957031 C16.171875,96.4459635 16.171875,96.2213542 16.171875,95.921875 C16.3216146,96.0716146 16.4713542,96.1464844 16.6210938,96.1464844 C16.9205729,96.1464844 17.1451823,96.1464844 17.2949219,96.1464844 C17.4446615,96.1464844 17.6692708,96.1464844 17.96875,96.1464844 C18.1184896,96.1464844 18.2682292,96.0716146 18.4179688,95.921875 C18.4179688,96.0716146 18.4179688,96.2213542 18.4179688,96.3710938 C18.4179688,96.3710938 18.4179688,96.4459635 18.4179688,96.5957031 Z M3.59375,92.328125 C3.74348958,92.328125 3.81835938,92.4029948 3.81835938,92.5527344 C3.96809896,92.5527344 4.04296875,92.6276042 4.04296875,92.7773438 C4.19270833,92.7773438 4.26757812,92.8522135 4.26757812,93.0019531 C4.26757812,93.0019531 4.26757812,93.0768229 4.26757812,93.2265625 C4.26757812,95.0234375 4.26757812,97.344401 4.26757812,100.189453 C4.26757812,102.884766 4.26757812,106.104167 4.26757812,109.847656 C4.26757812,109.997396 4.26757812,110.147135 4.26757812,110.296875 C4.11783854,110.296875 4.04296875,110.371745 4.04296875,110.521484 C3.89322917,110.671224 3.74348958,110.746094 3.59375,110.746094 C3.44401042,110.746094 3.36914062,110.746094 3.36914062,110.746094 C3.21940104,110.746094 3.06966146,110.746094 2.91992188,110.746094 C2.77018229,110.746094 2.6953125,110.671224 2.6953125,110.521484 C2.54557292,110.521484 2.47070312,110.446615 2.47070312,110.296875 C2.32096354,110.147135 2.24609375,109.997396 2.24609375,109.847656 C2.24609375,108.200521 2.24609375,106.253906 2.24609375,104.007812 C2.24609375,101.611979 2.24609375,98.7669271 2.24609375,95.4726562 C2.24609375,95.6223958 2.17122396,95.7721354 2.02148438,95.921875 C1.87174479,95.921875 1.72200521,95.9967448 1.57226562,96.1464844 C1.57226562,96.296224 1.49739583,96.3710938 1.34765625,96.3710938 C1.19791667,96.5208333 1.04817708,96.5957031 0.8984375,96.5957031 C0.748697917,96.5957031 0.673828125,96.5208333 0.673828125,96.3710938 C0.524088542,96.3710938 0.374348958,96.296224 0.224609375,96.1464844 C0.224609375,96.1464844 0.149739583,96.0716146 0,95.921875 C0,95.7721354 0,95.6223958 0,95.4726562 C0,95.3229167 0,95.2480469 0,95.2480469 C0.149739583,95.0983073 0.224609375,94.9485677 0.224609375,94.7988281 C0.524088542,94.6490885 0.8984375,94.3496094 1.34765625,93.9003906 C1.64713542,93.4511719 2.09635417,93.0019531 2.6953125,92.5527344 C2.6953125,92.4029948 2.77018229,92.328125 2.91992188,92.328125 C2.91992188,92.328125 2.99479167,92.328125 3.14453125,92.328125 C3.14453125,92.328125 3.14453125,92.328125 3.14453125,92.328125 C3.29427083,92.328125 3.36914062,92.328125 3.36914062,92.328125 C3.36914062,92.328125 3.44401042,92.328125 3.59375,92.328125 C3.59375,92.328125 3.59375,92.328125 3.59375,92.328125 Z M42.0019531,67.6210938 C42.1516927,67.6210938 42.3014323,67.6210938 42.4511719,67.6210938 C42.6009115,67.6210938 42.6757812,67.6959635 42.6757812,67.8457031 C42.8255208,67.9954427 42.9003906,68.0703125 42.9003906,68.0703125 C43.0501302,68.2200521 43.125,68.3697917 43.125,68.5195312 C43.125,68.6692708 43.0501302,68.8190104 42.9003906,68.96875 C42.9003906,69.1184896 42.8255208,69.1933594 42.6757812,69.1933594 C42.6757812,69.343099 42.6009115,69.4179688 42.4511719,69.4179688 C42.3014323,69.4179688 42.1516927,69.4179688 42.0019531,69.4179688 C41.2532552,69.4179688 40.5045573,69.4179688 39.7558594,69.4179688 C39.0071615,69.4179688 38.1835938,69.4179688 37.2851562,69.4179688 C36.5364583,69.4179688 35.7877604,69.4179688 35.0390625,69.4179688 C34.2903646,69.4179688 33.4667969,69.4179688 32.5683594,69.4179688 C32.5683594,69.4179688 32.5683594,69.4179688 32.5683594,69.4179688 C32.4186198,69.4179688 32.34375,69.4179688 32.34375,69.4179688 C32.1940104,69.4179688 32.1191406,69.4179688 32.1191406,69.4179688 C32.1191406,69.2682292 32.0442708,69.1933594 31.8945312,69.1933594 C31.8945312,69.1933594 31.8945312,69.1184896 31.8945312,68.96875 C31.8945312,68.96875 31.8945312,68.8938802 31.8945312,68.7441406 C31.7447917,68.7441406 31.6699219,68.7441406 31.6699219,68.7441406 C31.6699219,68.594401 31.6699219,68.5195312 31.6699219,68.5195312 C31.6699219,68.5195312 31.6699219,68.5195312 31.6699219,68.5195312 C31.6699219,68.5195312 31.6699219,68.5195312 31.6699219,68.5195312 C31.6699219,68.3697917 31.7447917,68.2200521 31.8945312,68.0703125 C31.8945312,67.7708333 31.969401,67.3964844 32.1191406,66.9472656 C32.1191406,66.4980469 32.2688802,66.0488281 32.5683594,65.5996094 C32.718099,65.1503906 33.0175781,64.6263021 33.4667969,64.0273438 C33.6165365,63.7278646 33.8411458,63.4283854 34.140625,63.1289062 C34.2903646,62.8294271 34.514974,62.5299479 34.8144531,62.2304688 C35.1139323,61.9309896 35.4882812,61.6315104 35.9375,61.3320312 C36.2369792,61.0325521 36.6113281,60.7330729 37.0605469,60.4335938 C37.8092448,59.984375 38.4830729,59.5351562 39.0820312,59.0859375 C39.53125,58.6367188 39.905599,58.1875 40.2050781,57.7382812 C40.3548177,57.4388021 40.5045573,57.0644531 40.6542969,56.6152344 C40.8040365,56.3157552 40.8789062,56.016276 40.8789062,55.7167969 C40.8789062,55.5670573 40.8789062,55.4921875 40.8789062,55.4921875 C40.8789062,55.3424479 40.8789062,55.1927083 40.8789062,55.0429688 C40.7291667,55.0429688 40.6542969,54.968099 40.6542969,54.8183594 C40.6542969,54.6686198 40.6542969,54.5188802 40.6542969,54.3691406 C40.5045573,54.219401 40.3548177,54.0696615 40.2050781,53.9199219 C40.0553385,53.6204427 39.8307292,53.3958333 39.53125,53.2460938 C39.3815104,53.0963542 39.0820312,53.0214844 38.6328125,53.0214844 C38.3333333,52.8717448 37.9589844,52.796875 37.5097656,52.796875 C37.0605469,52.796875 36.6861979,52.8717448 36.3867188,53.0214844 C36.0872396,53.0214844 35.7877604,53.0963542 35.4882812,53.2460938 C35.1888021,53.3958333 34.9641927,53.6204427 34.8144531,53.9199219 C34.6647135,54.219401 34.514974,54.5188802 34.3652344,54.8183594 C34.2154948,54.8183594 34.140625,54.8932292 34.140625,55.0429688 C33.9908854,55.1927083 33.8411458,55.2675781 33.6914062,55.2675781 C33.5416667,55.2675781 33.4667969,55.2675781 33.4667969,55.2675781 C33.3170573,55.2675781 33.1673177,55.2675781 33.0175781,55.2675781 C32.8678385,55.1178385 32.7929688,55.0429688 32.7929688,55.0429688 C32.6432292,54.8932292 32.5683594,54.7434896 32.5683594,54.59375 C32.4186198,54.4440104 32.34375,54.3691406 32.34375,54.3691406 C32.34375,54.219401 32.4186198,54.0696615 32.5683594,53.9199219 C32.718099,53.4707031 32.9427083,53.0214844 33.2421875,52.5722656 C33.6914062,52.2727865 34.0657552,51.9733073 34.3652344,51.6738281 C34.8144531,51.374349 35.2636719,51.1497396 35.7128906,51 C36.311849,51 36.9108073,51 37.5097656,51 C38.4082031,51 39.2317708,51.0748698 39.9804688,51.2246094 C40.5794271,51.5240885 41.1035156,51.8984375 41.5527344,52.3476562 C42.0019531,52.9466146 42.3014323,53.5455729 42.4511719,54.1445312 C42.6009115,54.59375 42.6757812,55.1178385 42.6757812,55.7167969 C42.6757812,56.3157552 42.6009115,56.9147135 42.4511719,57.5136719 C42.3014323,58.1126302 42.0019531,58.6367188 41.5527344,59.0859375 C41.2532552,59.5351562 40.8040365,60.0592448 40.2050781,60.6582031 C39.6061198,61.1074219 38.8574219,61.6315104 37.9589844,62.2304688 C37.360026,62.6796875 36.8359375,63.1289062 36.3867188,63.578125 C35.7877604,64.0273438 35.3385417,64.4765625 35.0390625,64.9257812 C34.7395833,65.5247396 34.514974,66.0488281 34.3652344,66.4980469 C34.2154948,66.797526 34.0657552,67.171875 33.9160156,67.6210938 C34.8144531,67.6210938 35.9375,67.6210938 37.2851562,67.6210938 C38.6328125,67.6210938 40.2050781,67.6210938 42.0019531,67.6210938 Z" transform="translate(-17)"/></svg>