<svg xmlns="http://www.w3.org/2000/svg" width="95" height="203" viewBox="0 0 95 203"><path fill="#131313" d="M3143.24805,116 C3148.63867,116 3153.13086,116.748698 3156.72461,118.246094 C3160.31836,119.74349 3163.23828,121.690104 3165.48438,124.085938 C3169.67708,128.578125 3172.14779,133.744141 3172.89648,139.583984 C3173.49544,145.423828 3173.79492,150.065755 3173.79492,153.509766 C3173.79492,162.344401 3173.79492,175.671224 3173.79492,193.490234 C3173.79492,195.736328 3173.04622,197.682943 3171.54883,199.330078 C3169.90169,200.827474 3167.95508,201.576172 3165.70898,201.576172 C3163.46289,201.576172 3161.59115,200.827474 3160.09375,199.330078 C3158.44661,197.682943 3157.62305,195.736328 3157.62305,193.490234 C3157.62305,184.655599 3157.62305,171.328776 3157.62305,153.509766 C3157.62305,145.124349 3156.64974,139.509115 3154.70312,136.664062 C3152.75651,133.669271 3148.93815,132.171875 3143.24805,132.171875 C3136.65951,132.171875 3130.37044,134.567708 3124.38086,139.359375 C3118.24154,144.151042 3115.17188,150.365234 3115.17188,158.001953 C3115.17188,161.595703 3115.17188,166.911458 3115.17188,173.949219 C3115.17188,178.291667 3115.17188,184.805339 3115.17188,193.490234 C3115.17188,195.736328 3114.42318,197.682943 3112.92578,199.330078 C3111.27865,200.827474 3109.33203,201.576172 3107.08594,201.576172 C3104.83984,201.576172 3102.89323,200.827474 3101.24609,199.330078 C3099.7487,197.682943 3099,195.736328 3099,193.490234 C3099,189.147786 3099,182.634115 3099,173.949219 C3099,170.355469 3099,165.039714 3099,158.001953 C3099,150.514974 3099,139.209635 3099,124.085938 C3099,121.839844 3099.7487,119.893229 3101.24609,118.246094 C3102.89323,116.748698 3104.83984,116 3107.08594,116 C3109.33203,116 3111.27865,116.748698 3112.92578,118.246094 C3114.42318,119.893229 3115.17188,121.839844 3115.17188,124.085938 C3115.17188,124.385417 3115.17188,124.909505 3115.17188,125.658203 C3118.91536,122.663411 3123.18294,120.342448 3127.97461,118.695312 C3132.61654,116.898438 3137.70768,116 3143.24805,116 Z M3143.42578,105.519531 C3148.81641,105.519531 3154.2819,106.343099 3159.82227,107.990234 C3165.51237,109.787109 3170.45378,113.15625 3174.64648,118.097656 C3176.89258,120.792969 3178.83919,124.08724 3180.48633,127.980469 C3182.13346,131.723958 3183.33138,136.216146 3184.08008,141.457031 C3183.63086,141.457031 3182.88216,141.457031 3181.83398,141.457031 C3180.63607,133.520833 3177.3418,125.958984 3171.95117,118.771484 C3166.56055,111.434245 3157.05208,107.765625 3143.42578,107.765625 C3141.02995,107.765625 3138.63411,107.915365 3136.23828,108.214844 C3133.84245,108.514323 3131.52148,108.963542 3129.27539,109.5625 C3129.27539,109.41276 3129.27539,109.188151 3129.27539,108.888672 C3129.12565,108.589193 3129.05078,108.364583 3129.05078,108.214844 C3128.90104,108.065104 3128.82617,107.915365 3128.82617,107.765625 C3128.67643,107.615885 3128.60156,107.541016 3128.60156,107.541016 C3130.9974,106.792318 3133.39323,106.268229 3135.78906,105.96875 C3138.33464,105.669271 3140.88021,105.519531 3143.42578,105.519531 Z M3126.13086,114.054688 C3127.0293,113.605469 3127.70312,113.00651 3128.15234,112.257812 C3128.60156,111.509115 3128.82617,110.685547 3128.82617,109.787109 C3128.82617,109.787109 3128.90104,109.787109 3129.05078,109.787109 C3129.20052,109.63737 3129.27539,109.5625 3129.27539,109.5625 C3129.42513,110.610677 3129.20052,111.583984 3128.60156,112.482422 C3128.15234,113.380859 3127.40365,114.054688 3126.35547,114.503906 C3125.00781,115.102865 3123.73503,115.102865 3122.53711,114.503906 C3121.33919,114.054688 3120.44076,113.15625 3119.8418,111.808594 C3119.39258,110.610677 3119.39258,109.41276 3119.8418,108.214844 C3120.44076,106.867188 3121.33919,105.96875 3122.53711,105.519531 C3123.73503,105.070312 3124.85807,104.995443 3125.90625,105.294922 C3127.10417,105.744141 3128.0026,106.417969 3128.60156,107.316406 C3128.45182,107.466146 3128.37695,107.541016 3128.37695,107.541016 C3128.22721,107.541016 3128.07747,107.541016 3127.92773,107.541016 C3127.47852,106.792318 3126.72982,106.268229 3125.68164,105.96875 C3124.7832,105.669271 3123.8099,105.669271 3122.76172,105.96875 C3121.71354,106.417969 3120.96484,107.241536 3120.51562,108.439453 C3120.06641,109.48763 3120.06641,110.535807 3120.51562,111.583984 C3120.96484,112.781901 3121.71354,113.605469 3122.76172,114.054688 C3123.8099,114.503906 3124.93294,114.503906 3126.13086,114.054688 Z M3126.35547,114.503906 C3126.50521,114.503906 3126.65495,114.429036 3126.80469,114.279297 C3126.95443,114.279297 3127.0293,114.279297 3127.0293,114.279297 C3126.87956,114.279297 3126.80469,114.279297 3126.80469,114.279297 C3126.65495,114.429036 3126.50521,114.503906 3126.35547,114.503906 Z M3128.60156,107.541016 C3128.60156,107.541016 3128.67643,107.615885 3128.82617,107.765625 C3128.82617,107.915365 3128.90104,108.065104 3129.05078,108.214844 C3129.05078,108.514323 3129.12565,108.738932 3129.27539,108.888672 C3129.27539,109.188151 3129.27539,109.41276 3129.27539,109.5625 C3129.12565,109.71224 3129.05078,109.787109 3129.05078,109.787109 C3128.90104,109.787109 3128.82617,109.787109 3128.82617,109.787109 C3128.82617,109.63737 3128.7513,109.41276 3128.60156,109.113281 C3128.60156,108.813802 3128.52669,108.589193 3128.37695,108.439453 C3128.37695,108.289714 3128.30208,108.139974 3128.15234,107.990234 C3128.15234,107.840495 3128.07747,107.690755 3127.92773,107.541016 C3128.07747,107.541016 3128.22721,107.541016 3128.37695,107.541016 C3128.37695,107.541016 3128.45182,107.541016 3128.60156,107.541016 Z M3122.76172,105.96875 C3123.8099,105.669271 3124.7832,105.669271 3125.68164,105.96875 C3126.72982,106.268229 3127.47852,106.792318 3127.92773,107.541016 C3127.92773,107.541016 3127.85286,107.615885 3127.70312,107.765625 C3127.55339,107.765625 3127.47852,107.765625 3127.47852,107.765625 C3126.87956,107.166667 3126.20573,106.717448 3125.45703,106.417969 C3124.55859,106.11849 3123.73503,106.193359 3122.98633,106.642578 C3122.98633,106.492839 3123.0612,106.417969 3123.21094,106.417969 C3123.21094,106.417969 3123.21094,106.417969 3123.21094,106.417969 C3123.21094,106.417969 3123.21094,106.417969 3123.21094,106.417969 C3123.36068,106.417969 3123.43555,106.417969 3123.43555,106.417969 C3123.43555,106.417969 3123.36068,106.417969 3123.21094,106.417969 C3123.21094,106.417969 3123.21094,106.417969 3123.21094,106.417969 C3123.21094,106.417969 3123.21094,106.417969 3123.21094,106.417969 C3123.0612,106.417969 3122.98633,106.492839 3122.98633,106.642578 C3122.98633,106.642578 3122.91146,106.642578 3122.76172,106.642578 C3122.76172,106.642578 3122.76172,106.642578 3122.76172,106.642578 C3122.76172,106.642578 3122.76172,106.642578 3122.76172,106.642578 C3122.76172,106.642578 3122.68685,106.642578 3122.53711,106.642578 C3122.53711,106.642578 3122.61198,106.642578 3122.76172,106.642578 C3122.76172,106.642578 3122.76172,106.642578 3122.76172,106.642578 C3122.76172,106.642578 3122.76172,106.642578 3122.76172,106.642578 C3122.91146,106.642578 3122.98633,106.642578 3122.98633,106.642578 C3122.08789,106.942057 3121.41406,107.615885 3120.96484,108.664062 C3120.51562,109.5625 3120.51562,110.460938 3120.96484,111.359375 C3121.41406,112.407552 3122.08789,113.08138 3122.98633,113.380859 C3123.88477,113.830078 3124.85807,113.830078 3125.90625,113.380859 C3126.65495,113.08138 3127.17904,112.632161 3127.47852,112.033203 C3127.92773,111.434245 3128.15234,110.760417 3128.15234,110.011719 C3128.30208,110.011719 3128.37695,109.936849 3128.37695,109.787109 C3128.52669,109.787109 3128.67643,109.787109 3128.82617,109.787109 C3128.82617,110.685547 3128.60156,111.509115 3128.15234,112.257812 C3127.55339,113.00651 3126.87956,113.605469 3126.13086,114.054688 C3124.93294,114.503906 3123.8099,114.503906 3122.76172,114.054688 C3121.71354,113.605469 3120.96484,112.781901 3120.51562,111.583984 C3120.06641,110.535807 3120.06641,109.48763 3120.51562,108.439453 C3120.96484,107.241536 3121.71354,106.417969 3122.76172,105.96875 Z M3127.92773,108.664062 C3127.77799,108.514323 3127.70312,108.364583 3127.70312,108.214844 C3127.55339,108.065104 3127.47852,107.915365 3127.47852,107.765625 C3127.47852,107.765625 3127.55339,107.765625 3127.70312,107.765625 C3127.85286,107.615885 3127.92773,107.541016 3127.92773,107.541016 C3128.07747,107.690755 3128.15234,107.840495 3128.15234,107.990234 C3128.30208,108.139974 3128.37695,108.289714 3128.37695,108.439453 C3128.52669,108.589193 3128.60156,108.813802 3128.60156,109.113281 C3128.60156,109.263021 3128.67643,109.48763 3128.82617,109.787109 C3128.67643,109.787109 3128.52669,109.861979 3128.37695,110.011719 C3128.37695,110.011719 3128.30208,110.011719 3128.15234,110.011719 C3128.15234,109.71224 3128.15234,109.48763 3128.15234,109.337891 C3128.0026,109.038411 3127.92773,108.813802 3127.92773,108.664062 Z M3184.5293,143.478516 C3184.37956,143.179036 3184.30469,142.879557 3184.30469,142.580078 C3184.30469,142.130859 3184.22982,141.75651 3184.08008,141.457031 C3184.67904,141.307292 3185.42773,141.232422 3186.32617,141.232422 C3185.72721,144.077474 3184.90365,148.270182 3183.85547,153.810547 C3182.95703,151.115234 3181.53451,147.072266 3179.58789,141.681641 C3180.18685,141.681641 3180.93555,141.606771 3181.83398,141.457031 C3181.83398,141.90625 3181.90885,142.355469 3182.05859,142.804688 C3182.05859,143.104167 3182.05859,143.478516 3182.05859,143.927734 C3182.50781,143.777995 3182.88216,143.703125 3183.18164,143.703125 C3183.63086,143.703125 3184.08008,143.628255 3184.5293,143.478516 Z M3184.5293,143.478516 C3183.93034,143.628255 3183.10677,143.777995 3182.05859,143.927734 C3182.05859,143.478516 3182.05859,143.104167 3182.05859,142.804688 C3181.90885,142.355469 3181.83398,141.90625 3181.83398,141.457031 C3182.2832,141.457031 3183.0319,141.457031 3184.08008,141.457031 C3184.22982,141.75651 3184.30469,142.05599 3184.30469,142.355469 C3184.30469,142.804688 3184.37956,143.179036 3184.5293,143.478516 Z M3088.17188,134.269531 C3088.32161,134.269531 3088.47135,134.269531 3088.62109,134.269531 C3088.92057,134.269531 3089.14518,134.269531 3089.29492,134.269531 C3089.44466,134.269531 3089.66927,134.269531 3089.96875,134.269531 C3090.11849,134.269531 3090.26823,134.269531 3090.41797,134.269531 C3090.41797,144.751302 3090.41797,160.473958 3090.41797,181.4375 C3089.96875,181.4375 3089.22005,181.4375 3088.17188,181.4375 C3088.17188,173.651042 3088.17188,165.789714 3088.17188,157.853516 C3088.17188,149.917318 3088.17188,142.05599 3088.17188,134.269531 Z M3088.17188,183.908203 C3088.17188,183.309245 3088.17188,182.485677 3088.17188,181.4375 C3087.72266,181.4375 3086.97396,181.4375 3085.92578,181.4375 C3086.67448,184.282552 3087.79753,188.47526 3089.29492,194.015625 C3090.04362,191.170573 3091.16667,186.977865 3092.66406,181.4375 C3092.21484,181.4375 3091.46615,181.4375 3090.41797,181.4375 C3090.41797,182.036458 3090.41797,182.860026 3090.41797,183.908203 C3089.96875,183.908203 3089.22005,183.908203 3088.17188,183.908203 Z M3088.17188,183.908203 C3088.62109,183.908203 3089.36979,183.908203 3090.41797,183.908203 C3090.41797,183.309245 3090.41797,182.485677 3090.41797,181.4375 C3089.96875,181.4375 3089.22005,181.4375 3088.17188,181.4375 C3088.17188,182.036458 3088.17188,182.860026 3088.17188,183.908203 Z M3089.29492,124.611328 C3090.64258,124.611328 3091.76562,125.060547 3092.66406,125.958984 C3093.71224,127.007161 3094.23633,128.205078 3094.23633,129.552734 C3094.23633,130.600911 3093.86198,131.574219 3093.11328,132.472656 C3092.36458,133.371094 3091.46615,133.970052 3090.41797,134.269531 C3090.41797,134.119792 3090.41797,133.895182 3090.41797,133.595703 C3091.31641,133.296224 3092.0651,132.772135 3092.66406,132.023438 C3093.26302,131.27474 3093.5625,130.451172 3093.5625,129.552734 C3093.5625,128.354818 3093.18815,127.306641 3092.43945,126.408203 C3091.54102,125.509766 3090.49284,125.060547 3089.29492,125.060547 C3088.09701,125.060547 3087.04883,125.509766 3086.15039,126.408203 C3085.40169,127.306641 3085.02734,128.354818 3085.02734,129.552734 C3085.02734,130.451172 3085.32682,131.27474 3085.92578,132.023438 C3086.52474,132.772135 3087.27344,133.296224 3088.17188,133.595703 C3088.17188,133.745443 3088.17188,133.970052 3088.17188,134.269531 C3087.1237,133.970052 3086.22526,133.371094 3085.47656,132.472656 C3084.72786,131.574219 3084.35352,130.600911 3084.35352,129.552734 C3084.35352,128.205078 3084.8776,127.007161 3085.92578,125.958984 C3086.82422,125.060547 3087.94727,124.611328 3089.29492,124.611328 Z M3089.29492,133.820312 C3089.44466,133.820312 3089.66927,133.820312 3089.96875,133.820312 C3090.11849,133.670573 3090.26823,133.595703 3090.41797,133.595703 C3090.41797,133.745443 3090.41797,133.970052 3090.41797,134.269531 C3090.26823,134.269531 3090.11849,134.269531 3089.96875,134.269531 C3089.66927,134.269531 3089.44466,134.269531 3089.29492,134.269531 C3089.14518,134.269531 3088.92057,134.269531 3088.62109,134.269531 C3088.47135,134.269531 3088.32161,134.269531 3088.17188,134.269531 C3088.17188,134.119792 3088.17188,133.895182 3088.17188,133.595703 C3088.32161,133.595703 3088.47135,133.670573 3088.62109,133.820312 C3088.92057,133.820312 3089.14518,133.820312 3089.29492,133.820312 Z M3085.47656,129.552734 C3085.47656,130.301432 3085.77604,130.97526 3086.375,131.574219 C3086.82422,132.322917 3087.42318,132.772135 3088.17188,132.921875 C3088.17188,133.071615 3088.17188,133.296224 3088.17188,133.595703 C3087.27344,133.296224 3086.52474,132.772135 3085.92578,132.023438 C3085.32682,131.27474 3085.02734,130.451172 3085.02734,129.552734 C3085.02734,128.354818 3085.40169,127.306641 3086.15039,126.408203 C3087.04883,125.509766 3088.09701,125.060547 3089.29492,125.060547 C3090.49284,125.060547 3091.54102,125.509766 3092.43945,126.408203 C3093.18815,127.306641 3093.5625,128.354818 3093.5625,129.552734 C3093.5625,130.451172 3093.26302,131.27474 3092.66406,132.023438 C3092.0651,132.772135 3091.31641,133.296224 3090.41797,133.595703 C3090.41797,133.445964 3090.41797,133.221354 3090.41797,132.921875 C3091.16667,132.772135 3091.76562,132.322917 3092.21484,131.574219 C3092.8138,130.97526 3093.11328,130.301432 3093.11328,129.552734 C3093.11328,128.504557 3092.73893,127.60612 3091.99023,126.857422 C3091.24154,126.108724 3090.3431,125.734375 3089.29492,125.734375 C3088.24674,125.734375 3087.34831,126.108724 3086.59961,126.857422 C3085.85091,127.60612 3085.47656,128.504557 3085.47656,129.552734 C3085.47656,129.253255 3085.47656,129.103516 3085.47656,129.103516 C3085.47656,128.953776 3085.47656,128.878906 3085.47656,128.878906 C3085.47656,128.878906 3085.47656,128.953776 3085.47656,129.103516 C3085.47656,129.103516 3085.47656,129.253255 3085.47656,129.552734 C3085.47656,129.702474 3085.47656,129.777344 3085.47656,129.777344 C3085.47656,129.927083 3085.47656,130.001953 3085.47656,130.001953 C3085.47656,130.001953 3085.47656,129.927083 3085.47656,129.777344 C3085.47656,129.777344 3085.47656,129.702474 3085.47656,129.552734 Z M3090.41797,133.595703 C3090.26823,133.595703 3090.11849,133.670573 3089.96875,133.820312 C3089.66927,133.820312 3089.44466,133.820312 3089.29492,133.820312 C3089.14518,133.820312 3088.92057,133.820312 3088.62109,133.820312 C3088.47135,133.670573 3088.32161,133.595703 3088.17188,133.595703 C3088.17188,133.445964 3088.17188,133.221354 3088.17188,132.921875 C3088.32161,133.071615 3088.47135,133.146484 3088.62109,133.146484 C3088.92057,133.146484 3089.14518,133.146484 3089.29492,133.146484 C3089.44466,133.146484 3089.66927,133.146484 3089.96875,133.146484 C3090.11849,133.146484 3090.26823,133.071615 3090.41797,132.921875 C3090.41797,133.071615 3090.41797,133.221354 3090.41797,133.371094 C3090.41797,133.371094 3090.41797,133.445964 3090.41797,133.595703 Z M3075.59375,129.328125 C3075.74349,129.328125 3075.81836,129.402995 3075.81836,129.552734 C3075.9681,129.552734 3076.04297,129.627604 3076.04297,129.777344 C3076.19271,129.777344 3076.26758,129.852214 3076.26758,130.001953 C3076.26758,130.001953 3076.26758,130.076823 3076.26758,130.226562 C3076.26758,132.023438 3076.26758,134.344401 3076.26758,137.189453 C3076.26758,139.884766 3076.26758,143.104167 3076.26758,146.847656 C3076.26758,146.997396 3076.26758,147.147135 3076.26758,147.296875 C3076.11784,147.296875 3076.04297,147.371745 3076.04297,147.521484 C3075.89323,147.671224 3075.74349,147.746094 3075.59375,147.746094 C3075.44401,147.746094 3075.36914,147.746094 3075.36914,147.746094 C3075.2194,147.746094 3075.06966,147.746094 3074.91992,147.746094 C3074.77018,147.746094 3074.69531,147.671224 3074.69531,147.521484 C3074.54557,147.521484 3074.4707,147.446615 3074.4707,147.296875 C3074.32096,147.147135 3074.24609,146.997396 3074.24609,146.847656 C3074.24609,145.200521 3074.24609,143.253906 3074.24609,141.007812 C3074.24609,138.611979 3074.24609,135.766927 3074.24609,132.472656 C3074.24609,132.622396 3074.17122,132.772135 3074.02148,132.921875 C3073.87174,132.921875 3073.72201,132.996745 3073.57227,133.146484 C3073.57227,133.296224 3073.4974,133.371094 3073.34766,133.371094 C3073.19792,133.520833 3073.04818,133.595703 3072.89844,133.595703 C3072.7487,133.595703 3072.67383,133.520833 3072.67383,133.371094 C3072.52409,133.371094 3072.37435,133.296224 3072.22461,133.146484 C3072.22461,133.146484 3072.14974,133.071615 3072,132.921875 C3072,132.772135 3072,132.622396 3072,132.472656 C3072,132.322917 3072,132.248047 3072,132.248047 C3072.14974,132.098307 3072.22461,131.948568 3072.22461,131.798828 C3072.52409,131.649089 3072.89844,131.349609 3073.34766,130.900391 C3073.64714,130.451172 3074.09635,130.001953 3074.69531,129.552734 C3074.69531,129.402995 3074.77018,129.328125 3074.91992,129.328125 C3074.91992,129.328125 3074.99479,129.328125 3075.14453,129.328125 C3075.14453,129.328125 3075.14453,129.328125 3075.14453,129.328125 C3075.29427,129.328125 3075.36914,129.328125 3075.36914,129.328125 C3075.36914,129.328125 3075.44401,129.328125 3075.59375,129.328125 C3075.59375,129.328125 3075.59375,129.328125 3075.59375,129.328125 Z M3114.00195,104.621094 C3114.15169,104.621094 3114.30143,104.621094 3114.45117,104.621094 C3114.60091,104.621094 3114.67578,104.695964 3114.67578,104.845703 C3114.82552,104.995443 3114.90039,105.070312 3114.90039,105.070312 C3115.05013,105.220052 3115.125,105.369792 3115.125,105.519531 C3115.125,105.669271 3115.05013,105.81901 3114.90039,105.96875 C3114.90039,106.11849 3114.82552,106.193359 3114.67578,106.193359 C3114.67578,106.343099 3114.60091,106.417969 3114.45117,106.417969 C3114.30143,106.417969 3114.15169,106.417969 3114.00195,106.417969 C3113.25326,106.417969 3112.50456,106.417969 3111.75586,106.417969 C3111.00716,106.417969 3110.18359,106.417969 3109.28516,106.417969 C3108.53646,106.417969 3107.78776,106.417969 3107.03906,106.417969 C3106.29036,106.417969 3105.4668,106.417969 3104.56836,106.417969 C3104.56836,106.417969 3104.56836,106.417969 3104.56836,106.417969 C3104.41862,106.417969 3104.34375,106.417969 3104.34375,106.417969 C3104.19401,106.417969 3104.11914,106.417969 3104.11914,106.417969 C3104.11914,106.268229 3104.04427,106.193359 3103.89453,106.193359 C3103.89453,106.193359 3103.89453,106.11849 3103.89453,105.96875 C3103.89453,105.96875 3103.89453,105.89388 3103.89453,105.744141 C3103.74479,105.744141 3103.66992,105.744141 3103.66992,105.744141 C3103.66992,105.594401 3103.66992,105.519531 3103.66992,105.519531 C3103.66992,105.519531 3103.66992,105.519531 3103.66992,105.519531 C3103.66992,105.519531 3103.66992,105.519531 3103.66992,105.519531 C3103.66992,105.369792 3103.74479,105.220052 3103.89453,105.070312 C3103.89453,104.770833 3103.9694,104.396484 3104.11914,103.947266 C3104.11914,103.498047 3104.26888,103.048828 3104.56836,102.599609 C3104.7181,102.150391 3105.01758,101.626302 3105.4668,101.027344 C3105.61654,100.727865 3105.84115,100.428385 3106.14062,100.128906 C3106.29036,99.8294271 3106.51497,99.5299479 3106.81445,99.2304688 C3107.11393,98.9309896 3107.48828,98.6315104 3107.9375,98.3320312 C3108.23698,98.0325521 3108.61133,97.7330729 3109.06055,97.4335938 C3109.80924,96.984375 3110.48307,96.5351563 3111.08203,96.0859375 C3111.53125,95.6367188 3111.9056,95.1875 3112.20508,94.7382812 C3112.35482,94.4388021 3112.50456,94.0644531 3112.6543,93.6152344 C3112.80404,93.3157552 3112.87891,93.016276 3112.87891,92.7167969 C3112.87891,92.5670573 3112.87891,92.4921875 3112.87891,92.4921875 C3112.87891,92.3424479 3112.87891,92.1927083 3112.87891,92.0429688 C3112.72917,92.0429688 3112.6543,91.968099 3112.6543,91.8183594 C3112.6543,91.6686198 3112.6543,91.5188802 3112.6543,91.3691406 C3112.50456,91.219401 3112.35482,91.0696615 3112.20508,90.9199219 C3112.05534,90.6204427 3111.83073,90.3958333 3111.53125,90.2460938 C3111.38151,90.0963542 3111.08203,90.0214844 3110.63281,90.0214844 C3110.33333,89.8717448 3109.95898,89.796875 3109.50977,89.796875 C3109.06055,89.796875 3108.6862,89.8717448 3108.38672,90.0214844 C3108.08724,90.0214844 3107.78776,90.0963542 3107.48828,90.2460938 C3107.1888,90.3958333 3106.96419,90.6204427 3106.81445,90.9199219 C3106.66471,91.219401 3106.51497,91.5188802 3106.36523,91.8183594 C3106.21549,91.8183594 3106.14062,91.8932292 3106.14062,92.0429688 C3105.99089,92.1927083 3105.84115,92.2675781 3105.69141,92.2675781 C3105.54167,92.2675781 3105.4668,92.2675781 3105.4668,92.2675781 C3105.31706,92.2675781 3105.16732,92.2675781 3105.01758,92.2675781 C3104.86784,92.1178385 3104.79297,92.0429688 3104.79297,92.0429688 C3104.64323,91.8932292 3104.56836,91.7434896 3104.56836,91.59375 C3104.41862,91.4440104 3104.34375,91.3691406 3104.34375,91.3691406 C3104.34375,91.219401 3104.41862,91.0696615 3104.56836,90.9199219 C3104.7181,90.4707031 3104.94271,90.0214844 3105.24219,89.5722656 C3105.69141,89.2727865 3106.06576,88.9733073 3106.36523,88.6738281 C3106.81445,88.374349 3107.26367,88.1497396 3107.71289,88 C3108.31185,88 3108.91081,88 3109.50977,88 C3110.4082,88 3111.23177,88.0748698 3111.98047,88.2246094 C3112.57943,88.5240885 3113.10352,88.8984375 3113.55273,89.3476562 C3114.00195,89.9466146 3114.30143,90.5455729 3114.45117,91.1445312 C3114.60091,91.59375 3114.67578,92.1178385 3114.67578,92.7167969 C3114.67578,93.3157552 3114.60091,93.9147135 3114.45117,94.5136719 C3114.30143,95.1126302 3114.00195,95.6367188 3113.55273,96.0859375 C3113.25326,96.5351563 3112.80404,97.0592448 3112.20508,97.6582031 C3111.60612,98.1074219 3110.85742,98.6315104 3109.95898,99.2304688 C3109.36003,99.6796875 3108.83594,100.128906 3108.38672,100.578125 C3107.78776,101.027344 3107.33854,101.476562 3107.03906,101.925781 C3106.73958,102.52474 3106.51497,103.048828 3106.36523,103.498047 C3106.21549,103.797526 3106.06576,104.171875 3105.91602,104.621094 C3106.81445,104.621094 3107.9375,104.621094 3109.28516,104.621094 C3110.63281,104.621094 3112.20508,104.621094 3114.00195,104.621094 Z" transform="translate(-3089)"/></svg>