<svg xmlns="http://www.w3.org/2000/svg" width="243" height="243" viewBox="0 0 243 243"><path fill="#131313" d="M128.248047,79 C133.638672,79 138.130859,79.7486979 141.724609,81.2460938 C145.318359,82.7434896 148.238281,84.6901042 150.484375,87.0859375 C154.677083,91.578125 157.147786,96.7441406 157.896484,102.583984 C158.495443,108.423828 158.794922,113.065755 158.794922,116.509766 C158.794922,125.344401 158.794922,138.671224 158.794922,156.490234 C158.794922,158.736328 158.046224,160.682943 156.548828,162.330078 C154.901693,163.827474 152.955078,164.576172 150.708984,164.576172 C148.462891,164.576172 146.591146,163.827474 145.09375,162.330078 C143.446615,160.682943 142.623047,158.736328 142.623047,156.490234 C142.623047,147.655599 142.623047,134.328776 142.623047,116.509766 C142.623047,108.124349 141.64974,102.509115 139.703125,99.6640625 C137.75651,96.6692708 133.938151,95.171875 128.248047,95.171875 C121.659505,95.171875 115.370443,97.5677083 109.380859,102.359375 C103.241536,107.151042 100.171875,113.365234 100.171875,121.001953 C100.171875,124.595703 100.171875,129.911458 100.171875,136.949219 C100.171875,141.291667 100.171875,147.805339 100.171875,156.490234 C100.171875,158.736328 99.4231771,160.682943 97.9257812,162.330078 C96.2786458,163.827474 94.3320312,164.576172 92.0859375,164.576172 C89.8398438,164.576172 87.8932292,163.827474 86.2460938,162.330078 C84.7486979,160.682943 84,158.736328 84,156.490234 C84,152.147786 84,145.634115 84,136.949219 C84,133.355469 84,128.039714 84,121.001953 C84,113.514974 84,102.209635 84,87.0859375 C84,84.8398438 84.7486979,82.8932292 86.2460938,81.2460938 C87.8932292,79.7486979 89.8398438,79 92.0859375,79 C94.3320312,79 96.2786458,79.7486979 97.9257812,81.2460938 C99.4231771,82.8932292 100.171875,84.8398438 100.171875,87.0859375 C100.171875,87.3854167 100.171875,87.9095052 100.171875,88.6582031 C103.915365,85.6634115 108.182943,83.3424479 112.974609,81.6953125 C117.616536,79.8984375 122.707682,79 128.248047,79 Z M128.425781,68.5195312 C133.816406,68.5195312 139.281901,69.343099 144.822266,70.9902344 C150.51237,72.7871094 155.453776,76.15625 159.646484,81.0976562 C161.892578,83.7929688 163.839193,87.0872396 165.486328,90.9804688 C167.133464,94.7239583 168.33138,99.2161458 169.080078,104.457031 C168.630859,104.457031 167.882161,104.457031 166.833984,104.457031 C165.636068,96.5208333 162.341797,88.9589844 156.951172,81.7714844 C151.560547,74.4342448 142.052083,70.765625 128.425781,70.765625 C126.029948,70.765625 123.634115,70.9153646 121.238281,71.2148438 C118.842448,71.5143229 116.521484,71.9635417 114.275391,72.5625 C114.275391,72.4127604 114.275391,72.188151 114.275391,71.8886719 C114.125651,71.5891927 114.050781,71.3645833 114.050781,71.2148438 C113.901042,71.0651042 113.826172,70.9153646 113.826172,70.765625 C113.676432,70.6158854 113.601562,70.5410156 113.601562,70.5410156 C115.997396,69.7923177 118.393229,69.2682292 120.789062,68.96875 C123.334635,68.6692708 125.880208,68.5195312 128.425781,68.5195312 Z M111.355469,77.5039062 C111.205729,77.5039062 111.130859,77.578776 111.130859,77.7285156 C111.130859,77.7285156 111.05599,77.7285156 110.90625,77.7285156 C111.05599,77.7285156 111.130859,77.7285156 111.130859,77.7285156 C111.130859,77.578776 111.205729,77.5039062 111.355469,77.5039062 Z M110.681641,77.7285156 C110.681641,77.7285156 110.75651,77.7285156 110.90625,77.7285156 C110.90625,77.7285156 110.90625,77.7285156 110.90625,77.7285156 C110.90625,77.7285156 110.90625,77.7285156 110.90625,77.7285156 C110.75651,77.7285156 110.681641,77.7285156 110.681641,77.7285156 Z M111.130859,77.0546875 C112.029297,76.6054688 112.703125,76.0065104 113.152344,75.2578125 C113.601562,74.5091146 113.826172,73.6855469 113.826172,72.7871094 C113.826172,72.7871094 113.901042,72.7871094 114.050781,72.7871094 C114.200521,72.6373698 114.275391,72.5625 114.275391,72.5625 C114.42513,73.6106771 114.200521,74.5839844 113.601562,75.4824219 C113.152344,76.3808594 112.403646,77.0546875 111.355469,77.5039062 C110.007812,78.1028646 108.735026,78.1028646 107.537109,77.5039062 C106.339193,77.0546875 105.440755,76.15625 104.841797,74.8085938 C104.392578,73.6106771 104.392578,72.4127604 104.841797,71.2148438 C105.440755,69.8671875 106.339193,68.96875 107.537109,68.5195312 C108.735026,68.0703125 109.858073,67.9954427 110.90625,68.2949219 C112.104167,68.7441406 113.002604,69.4179688 113.601562,70.3164062 C113.451823,70.4661458 113.376953,70.5410156 113.376953,70.5410156 C113.227214,70.5410156 113.077474,70.5410156 112.927734,70.5410156 C112.478516,69.7923177 111.729818,69.2682292 110.681641,68.96875 C109.783203,68.6692708 108.809896,68.6692708 107.761719,68.96875 C106.713542,69.4179688 105.964844,70.2415365 105.515625,71.4394531 C105.066406,72.4876302 105.066406,73.5358073 105.515625,74.5839844 C105.964844,75.781901 106.713542,76.6054688 107.761719,77.0546875 C108.809896,77.5039062 109.932943,77.5039062 111.130859,77.0546875 Z M111.355469,77.5039062 C111.505208,77.5039062 111.654948,77.4290365 111.804688,77.2792969 C111.954427,77.2792969 112.029297,77.2792969 112.029297,77.2792969 C111.879557,77.2792969 111.804688,77.2792969 111.804688,77.2792969 C111.654948,77.4290365 111.505208,77.5039062 111.355469,77.5039062 Z M113.601562,70.5410156 C113.601562,70.5410156 113.676432,70.6158854 113.826172,70.765625 C113.826172,70.9153646 113.901042,71.0651042 114.050781,71.2148438 C114.050781,71.5143229 114.125651,71.7389323 114.275391,71.8886719 C114.275391,72.188151 114.275391,72.4127604 114.275391,72.5625 C114.125651,72.7122396 114.050781,72.7871094 114.050781,72.7871094 C113.901042,72.7871094 113.826172,72.7871094 113.826172,72.7871094 C113.826172,72.6373698 113.751302,72.4127604 113.601562,72.1132812 C113.601562,71.8138021 113.526693,71.5891927 113.376953,71.4394531 C113.376953,71.2897135 113.302083,71.139974 113.152344,70.9902344 C113.152344,70.8404948 113.077474,70.6907552 112.927734,70.5410156 C113.077474,70.5410156 113.227214,70.5410156 113.376953,70.5410156 C113.376953,70.5410156 113.451823,70.5410156 113.601562,70.5410156 Z M108.210938,69.4179688 C108.210938,69.4179688 108.210938,69.4179688 108.210938,69.4179688 C108.061198,69.4179688 107.986328,69.4928385 107.986328,69.6425781 C107.986328,69.4928385 108.061198,69.4179688 108.210938,69.4179688 C108.210938,69.4179688 108.210938,69.4179688 108.210938,69.4179688 Z M107.761719,69.6425781 C107.761719,69.6425781 107.761719,69.6425781 107.761719,69.6425781 C107.761719,69.6425781 107.686849,69.6425781 107.537109,69.6425781 C107.686849,69.6425781 107.761719,69.6425781 107.761719,69.6425781 C107.761719,69.6425781 107.761719,69.6425781 107.761719,69.6425781 Z M107.761719,68.96875 C108.809896,68.6692708 109.783203,68.6692708 110.681641,68.96875 C111.729818,69.2682292 112.478516,69.7923177 112.927734,70.5410156 C112.927734,70.5410156 112.852865,70.6158854 112.703125,70.765625 C112.553385,70.765625 112.478516,70.765625 112.478516,70.765625 C111.879557,70.1666667 111.205729,69.7174479 110.457031,69.4179688 C109.558594,69.1184896 108.735026,69.1933594 107.986328,69.6425781 C107.986328,69.4928385 108.061198,69.4179688 108.210938,69.4179688 C108.210938,69.4179688 108.210938,69.4179688 108.210938,69.4179688 C108.210938,69.4179688 108.210938,69.4179688 108.210938,69.4179688 C108.360677,69.4179688 108.435547,69.4179688 108.435547,69.4179688 C108.435547,69.4179688 108.360677,69.4179688 108.210938,69.4179688 C108.210938,69.4179688 108.210938,69.4179688 108.210938,69.4179688 C108.210938,69.4179688 108.210938,69.4179688 108.210938,69.4179688 C108.061198,69.4179688 107.986328,69.4928385 107.986328,69.6425781 C107.986328,69.6425781 107.911458,69.6425781 107.761719,69.6425781 C107.761719,69.6425781 107.761719,69.6425781 107.761719,69.6425781 C107.761719,69.6425781 107.761719,69.6425781 107.761719,69.6425781 C107.761719,69.6425781 107.686849,69.6425781 107.537109,69.6425781 C107.537109,69.6425781 107.611979,69.6425781 107.761719,69.6425781 C107.761719,69.6425781 107.761719,69.6425781 107.761719,69.6425781 C107.761719,69.6425781 107.761719,69.6425781 107.761719,69.6425781 C107.911458,69.6425781 107.986328,69.6425781 107.986328,69.6425781 C107.087891,69.9420573 106.414062,70.6158854 105.964844,71.6640625 C105.515625,72.5625 105.515625,73.4609375 105.964844,74.359375 C106.414062,75.4075521 107.087891,76.0813802 107.986328,76.3808594 C108.884766,76.8300781 109.858073,76.8300781 110.90625,76.3808594 C111.654948,76.0813802 112.179036,75.6321615 112.478516,75.0332031 C112.927734,74.4342448 113.152344,73.7604167 113.152344,73.0117188 C113.302083,73.0117188 113.376953,72.936849 113.376953,72.7871094 C113.526693,72.7871094 113.676432,72.7871094 113.826172,72.7871094 C113.826172,73.6855469 113.601562,74.5091146 113.152344,75.2578125 C112.553385,76.0065104 111.879557,76.6054688 111.130859,77.0546875 C109.932943,77.5039062 108.809896,77.5039062 107.761719,77.0546875 C106.713542,76.6054688 105.964844,75.781901 105.515625,74.5839844 C105.066406,73.5358073 105.066406,72.4876302 105.515625,71.4394531 C105.964844,70.2415365 106.713542,69.4179688 107.761719,68.96875 Z M112.927734,71.6640625 C112.777995,71.5143229 112.703125,71.3645833 112.703125,71.2148438 C112.553385,71.0651042 112.478516,70.9153646 112.478516,70.765625 C112.478516,70.765625 112.553385,70.765625 112.703125,70.765625 C112.852865,70.6158854 112.927734,70.5410156 112.927734,70.5410156 C113.077474,70.6907552 113.152344,70.8404948 113.152344,70.9902344 C113.302083,71.139974 113.376953,71.2897135 113.376953,71.4394531 C113.526693,71.5891927 113.601562,71.8138021 113.601562,72.1132812 C113.601562,72.2630208 113.676432,72.4876302 113.826172,72.7871094 C113.676432,72.7871094 113.526693,72.8619792 113.376953,73.0117188 C113.376953,73.0117188 113.302083,73.0117188 113.152344,73.0117188 C113.152344,72.7122396 113.152344,72.4876302 113.152344,72.3378906 C113.002604,72.0384115 112.927734,71.8138021 112.927734,71.6640625 Z M169.529297,106.478516 C169.379557,106.179036 169.304688,105.879557 169.304688,105.580078 C169.304688,105.130859 169.229818,104.75651 169.080078,104.457031 C169.679036,104.307292 170.427734,104.232422 171.326172,104.232422 C170.727214,107.077474 169.903646,111.270182 168.855469,116.810547 C167.957031,114.115234 166.534505,110.072266 164.587891,104.681641 C165.186849,104.681641 165.935547,104.606771 166.833984,104.457031 C166.833984,104.90625 166.908854,105.355469 167.058594,105.804688 C167.058594,106.104167 167.058594,106.478516 167.058594,106.927734 C167.507812,106.777995 167.882161,106.703125 168.181641,106.703125 C168.630859,106.703125 169.080078,106.628255 169.529297,106.478516 Z M169.529297,106.478516 C168.930339,106.628255 168.106771,106.777995 167.058594,106.927734 C167.058594,106.478516 167.058594,106.104167 167.058594,105.804688 C166.908854,105.355469 166.833984,104.90625 166.833984,104.457031 C167.283203,104.457031 168.031901,104.457031 169.080078,104.457031 C169.229818,104.75651 169.304688,105.05599 169.304688,105.355469 C169.304688,105.804688 169.379557,106.179036 169.529297,106.478516 Z M73.171875,97.2695312 C73.3216146,97.2695312 73.4713542,97.2695312 73.6210938,97.2695312 C73.9205729,97.2695312 74.1451823,97.2695312 74.2949219,97.2695312 C74.4446615,97.2695312 74.6692708,97.2695312 74.96875,97.2695312 C75.1184896,97.2695312 75.2682292,97.2695312 75.4179688,97.2695312 C75.4179688,107.751302 75.4179688,123.473958 75.4179688,144.4375 C74.96875,144.4375 74.2200521,144.4375 73.171875,144.4375 C73.171875,136.651042 73.171875,128.789714 73.171875,120.853516 C73.171875,112.917318 73.171875,105.05599 73.171875,97.2695312 Z M73.171875,146.908203 C73.171875,146.309245 73.171875,145.485677 73.171875,144.4375 C72.7226562,144.4375 71.9739583,144.4375 70.9257812,144.4375 C71.6744792,147.282552 72.797526,151.47526 74.2949219,157.015625 C75.0436198,154.170573 76.1666667,149.977865 77.6640625,144.4375 C77.2148438,144.4375 76.4661458,144.4375 75.4179688,144.4375 C75.4179688,145.036458 75.4179688,145.860026 75.4179688,146.908203 C74.96875,146.908203 74.2200521,146.908203 73.171875,146.908203 Z M73.171875,146.908203 C73.6210938,146.908203 74.3697917,146.908203 75.4179688,146.908203 C75.4179688,146.309245 75.4179688,145.485677 75.4179688,144.4375 C74.96875,144.4375 74.2200521,144.4375 73.171875,144.4375 C73.171875,145.036458 73.171875,145.860026 73.171875,146.908203 Z M74.2949219,87.6113281 C75.6425781,87.6113281 76.765625,88.0605469 77.6640625,88.9589844 C78.7122396,90.0071615 79.2363281,91.2050781 79.2363281,92.5527344 C79.2363281,93.6009115 78.8619792,94.5742188 78.1132812,95.4726562 C77.3645833,96.3710938 76.4661458,96.9700521 75.4179688,97.2695312 C75.4179688,97.1197917 75.4179688,96.8951823 75.4179688,96.5957031 C76.3164062,96.296224 77.0651042,95.7721354 77.6640625,95.0234375 C78.2630208,94.2747396 78.5625,93.4511719 78.5625,92.5527344 C78.5625,91.3548177 78.188151,90.3066406 77.4394531,89.4082031 C76.5410156,88.5097656 75.4928385,88.0605469 74.2949219,88.0605469 C73.0970052,88.0605469 72.0488281,88.5097656 71.1503906,89.4082031 C70.4016927,90.3066406 70.0273438,91.3548177 70.0273438,92.5527344 C70.0273438,93.4511719 70.3268229,94.2747396 70.9257812,95.0234375 C71.5247396,95.7721354 72.2734375,96.296224 73.171875,96.5957031 C73.171875,96.7454427 73.171875,96.9700521 73.171875,97.2695312 C72.1236979,96.9700521 71.2252604,96.3710938 70.4765625,95.4726562 C69.7278646,94.5742188 69.3535156,93.6009115 69.3535156,92.5527344 C69.3535156,91.2050781 69.8776042,90.0071615 70.9257812,88.9589844 C71.8242188,88.0605469 72.9472656,87.6113281 74.2949219,87.6113281 Z M74.2949219,96.8203125 C74.4446615,96.8203125 74.6692708,96.8203125 74.96875,96.8203125 C75.1184896,96.6705729 75.2682292,96.5957031 75.4179688,96.5957031 C75.4179688,96.7454427 75.4179688,96.9700521 75.4179688,97.2695312 C75.2682292,97.2695312 75.1184896,97.2695312 74.96875,97.2695312 C74.6692708,97.2695312 74.4446615,97.2695312 74.2949219,97.2695312 C74.1451823,97.2695312 73.9205729,97.2695312 73.6210938,97.2695312 C73.4713542,97.2695312 73.3216146,97.2695312 73.171875,97.2695312 C73.171875,97.1197917 73.171875,96.8951823 73.171875,96.5957031 C73.3216146,96.5957031 73.4713542,96.6705729 73.6210938,96.8203125 C73.9205729,96.8203125 74.1451823,96.8203125 74.2949219,96.8203125 Z M70.4765625,92.5527344 C70.4765625,93.3014323 70.7760417,93.9752604 71.375,94.5742188 C71.8242188,95.3229167 72.4231771,95.7721354 73.171875,95.921875 C73.171875,96.0716146 73.171875,96.296224 73.171875,96.5957031 C72.2734375,96.296224 71.5247396,95.7721354 70.9257812,95.0234375 C70.3268229,94.2747396 70.0273438,93.4511719 70.0273438,92.5527344 C70.0273438,91.3548177 70.4016927,90.3066406 71.1503906,89.4082031 C72.0488281,88.5097656 73.0970052,88.0605469 74.2949219,88.0605469 C75.4928385,88.0605469 76.5410156,88.5097656 77.4394531,89.4082031 C78.188151,90.3066406 78.5625,91.3548177 78.5625,92.5527344 C78.5625,93.4511719 78.2630208,94.2747396 77.6640625,95.0234375 C77.0651042,95.7721354 76.3164062,96.296224 75.4179688,96.5957031 C75.4179688,96.4459635 75.4179688,96.2213542 75.4179688,95.921875 C76.1666667,95.7721354 76.765625,95.3229167 77.2148438,94.5742188 C77.8138021,93.9752604 78.1132812,93.3014323 78.1132812,92.5527344 C78.1132812,91.5045573 77.7389323,90.6061198 76.9902344,89.8574219 C76.2415365,89.108724 75.343099,88.734375 74.2949219,88.734375 C73.2467448,88.734375 72.3483073,89.108724 71.5996094,89.8574219 C70.8509115,90.6061198 70.4765625,91.5045573 70.4765625,92.5527344 C70.4765625,92.2532552 70.4765625,92.1035156 70.4765625,92.1035156 C70.4765625,91.953776 70.4765625,91.8789062 70.4765625,91.8789062 C70.4765625,91.8789062 70.4765625,91.953776 70.4765625,92.1035156 C70.4765625,92.1035156 70.4765625,92.2532552 70.4765625,92.5527344 C70.4765625,92.702474 70.4765625,92.7773438 70.4765625,92.7773438 C70.4765625,92.9270833 70.4765625,93.0019531 70.4765625,93.0019531 C70.4765625,93.0019531 70.4765625,92.9270833 70.4765625,92.7773438 C70.4765625,92.7773438 70.4765625,92.702474 70.4765625,92.5527344 Z M75.4179688,96.5957031 C75.2682292,96.5957031 75.1184896,96.6705729 74.96875,96.8203125 C74.6692708,96.8203125 74.4446615,96.8203125 74.2949219,96.8203125 C74.1451823,96.8203125 73.9205729,96.8203125 73.6210938,96.8203125 C73.4713542,96.6705729 73.3216146,96.5957031 73.171875,96.5957031 C73.171875,96.4459635 73.171875,96.2213542 73.171875,95.921875 C73.3216146,96.0716146 73.4713542,96.1464844 73.6210938,96.1464844 C73.9205729,96.1464844 74.1451823,96.1464844 74.2949219,96.1464844 C74.4446615,96.1464844 74.6692708,96.1464844 74.96875,96.1464844 C75.1184896,96.1464844 75.2682292,96.0716146 75.4179688,95.921875 C75.4179688,96.0716146 75.4179688,96.2213542 75.4179688,96.3710938 C75.4179688,96.3710938 75.4179688,96.4459635 75.4179688,96.5957031 Z M60.59375,92.328125 C60.7434896,92.328125 60.8183594,92.4029948 60.8183594,92.5527344 C60.968099,92.5527344 61.0429688,92.6276042 61.0429688,92.7773438 C61.1927083,92.7773438 61.2675781,92.8522135 61.2675781,93.0019531 C61.2675781,93.0019531 61.2675781,93.0768229 61.2675781,93.2265625 C61.2675781,95.0234375 61.2675781,97.344401 61.2675781,100.189453 C61.2675781,102.884766 61.2675781,106.104167 61.2675781,109.847656 C61.2675781,109.997396 61.2675781,110.147135 61.2675781,110.296875 C61.1178385,110.296875 61.0429688,110.371745 61.0429688,110.521484 C60.8932292,110.671224 60.7434896,110.746094 60.59375,110.746094 C60.4440104,110.746094 60.3691406,110.746094 60.3691406,110.746094 C60.219401,110.746094 60.0696615,110.746094 59.9199219,110.746094 C59.7701823,110.746094 59.6953125,110.671224 59.6953125,110.521484 C59.5455729,110.521484 59.4707031,110.446615 59.4707031,110.296875 C59.3209635,110.147135 59.2460938,109.997396 59.2460938,109.847656 C59.2460938,108.200521 59.2460938,106.253906 59.2460938,104.007812 C59.2460938,101.611979 59.2460938,98.7669271 59.2460938,95.4726562 C59.2460938,95.6223958 59.171224,95.7721354 59.0214844,95.921875 C58.8717448,95.921875 58.7220052,95.9967448 58.5722656,96.1464844 C58.5722656,96.296224 58.4973958,96.3710938 58.3476562,96.3710938 C58.1979167,96.5208333 58.0481771,96.5957031 57.8984375,96.5957031 C57.7486979,96.5957031 57.6738281,96.5208333 57.6738281,96.3710938 C57.5240885,96.3710938 57.374349,96.296224 57.2246094,96.1464844 C57.2246094,96.1464844 57.1497396,96.0716146 57,95.921875 C57,95.7721354 57,95.6223958 57,95.4726562 C57,95.3229167 57,95.2480469 57,95.2480469 C57.1497396,95.0983073 57.2246094,94.9485677 57.2246094,94.7988281 C57.5240885,94.6490885 57.8984375,94.3496094 58.3476562,93.9003906 C58.6471354,93.4511719 59.0963542,93.0019531 59.6953125,92.5527344 C59.6953125,92.4029948 59.7701823,92.328125 59.9199219,92.328125 C59.9199219,92.328125 59.9947917,92.328125 60.1445312,92.328125 C60.1445312,92.328125 60.1445312,92.328125 60.1445312,92.328125 C60.2942708,92.328125 60.3691406,92.328125 60.3691406,92.328125 C60.3691406,92.328125 60.4440104,92.328125 60.59375,92.328125 C60.59375,92.328125 60.59375,92.328125 60.59375,92.328125 Z M99.0019531,67.6210938 C99.1516927,67.6210938 99.3014323,67.6210938 99.4511719,67.6210938 C99.6009115,67.6210938 99.6757812,67.6959635 99.6757812,67.8457031 C99.8255208,67.9954427 99.9003906,68.0703125 99.9003906,68.0703125 C100.05013,68.2200521 100.125,68.3697917 100.125,68.5195312 C100.125,68.6692708 100.05013,68.8190104 99.9003906,68.96875 C99.9003906,69.1184896 99.8255208,69.1933594 99.6757812,69.1933594 C99.6757812,69.343099 99.6009115,69.4179688 99.4511719,69.4179688 C99.3014323,69.4179688 99.1516927,69.4179688 99.0019531,69.4179688 C98.2532552,69.4179688 97.5045573,69.4179688 96.7558594,69.4179688 C96.0071615,69.4179688 95.1835938,69.4179688 94.2851562,69.4179688 C93.5364583,69.4179688 92.7877604,69.4179688 92.0390625,69.4179688 C91.2903646,69.4179688 90.4667969,69.4179688 89.5683594,69.4179688 C89.5683594,69.4179688 89.5683594,69.4179688 89.5683594,69.4179688 C89.4186198,69.4179688 89.34375,69.4179688 89.34375,69.4179688 C89.1940104,69.4179688 89.1191406,69.4179688 89.1191406,69.4179688 C89.1191406,69.2682292 89.0442708,69.1933594 88.8945312,69.1933594 C88.8945312,69.1933594 88.8945312,69.1184896 88.8945312,68.96875 C88.8945312,68.96875 88.8945312,68.8938802 88.8945312,68.7441406 C88.7447917,68.7441406 88.6699219,68.7441406 88.6699219,68.7441406 C88.6699219,68.594401 88.6699219,68.5195312 88.6699219,68.5195312 C88.6699219,68.5195312 88.6699219,68.5195312 88.6699219,68.5195312 C88.6699219,68.5195312 88.6699219,68.5195312 88.6699219,68.5195312 C88.6699219,68.3697917 88.7447917,68.2200521 88.8945312,68.0703125 C88.8945312,67.7708333 88.969401,67.3964844 89.1191406,66.9472656 C89.1191406,66.4980469 89.2688802,66.0488281 89.5683594,65.5996094 C89.718099,65.1503906 90.0175781,64.6263021 90.4667969,64.0273438 C90.6165365,63.7278646 90.8411458,63.4283854 91.140625,63.1289062 C91.2903646,62.8294271 91.514974,62.5299479 91.8144531,62.2304688 C92.1139323,61.9309896 92.4882812,61.6315104 92.9375,61.3320312 C93.2369792,61.0325521 93.6113281,60.7330729 94.0605469,60.4335938 C94.8092448,59.984375 95.4830729,59.5351562 96.0820312,59.0859375 C96.53125,58.6367188 96.905599,58.1875 97.2050781,57.7382812 C97.3548177,57.4388021 97.5045573,57.0644531 97.6542969,56.6152344 C97.8040365,56.3157552 97.8789062,56.016276 97.8789062,55.7167969 C97.8789062,55.5670573 97.8789062,55.4921875 97.8789062,55.4921875 C97.8789062,55.3424479 97.8789062,55.1927083 97.8789062,55.0429688 C97.7291667,55.0429688 97.6542969,54.968099 97.6542969,54.8183594 C97.6542969,54.6686198 97.6542969,54.5188802 97.6542969,54.3691406 C97.5045573,54.219401 97.3548177,54.0696615 97.2050781,53.9199219 C97.0553385,53.6204427 96.8307292,53.3958333 96.53125,53.2460938 C96.3815104,53.0963542 96.0820312,53.0214844 95.6328125,53.0214844 C95.3333333,52.8717448 94.9589844,52.796875 94.5097656,52.796875 C94.0605469,52.796875 93.6861979,52.8717448 93.3867188,53.0214844 C93.0872396,53.0214844 92.7877604,53.0963542 92.4882812,53.2460938 C92.1888021,53.3958333 91.9641927,53.6204427 91.8144531,53.9199219 C91.6647135,54.219401 91.514974,54.5188802 91.3652344,54.8183594 C91.2154948,54.8183594 91.140625,54.8932292 91.140625,55.0429688 C90.9908854,55.1927083 90.8411458,55.2675781 90.6914062,55.2675781 C90.5416667,55.2675781 90.4667969,55.2675781 90.4667969,55.2675781 C90.3170573,55.2675781 90.1673177,55.2675781 90.0175781,55.2675781 C89.8678385,55.1178385 89.7929688,55.0429688 89.7929688,55.0429688 C89.6432292,54.8932292 89.5683594,54.7434896 89.5683594,54.59375 C89.4186198,54.4440104 89.34375,54.3691406 89.34375,54.3691406 C89.34375,54.219401 89.4186198,54.0696615 89.5683594,53.9199219 C89.718099,53.4707031 89.9427083,53.0214844 90.2421875,52.5722656 C90.6914062,52.2727865 91.0657552,51.9733073 91.3652344,51.6738281 C91.8144531,51.374349 92.2636719,51.1497396 92.7128906,51 C93.311849,51 93.9108073,51 94.5097656,51 C95.4082031,51 96.2317708,51.0748698 96.9804688,51.2246094 C97.5794271,51.5240885 98.1035156,51.8984375 98.5527344,52.3476562 C99.0019531,52.9466146 99.3014323,53.5455729 99.4511719,54.1445312 C99.6009115,54.59375 99.6757812,55.1178385 99.6757812,55.7167969 C99.6757812,56.3157552 99.6009115,56.9147135 99.4511719,57.5136719 C99.3014323,58.1126302 99.0019531,58.6367188 98.5527344,59.0859375 C98.2532552,59.5351562 97.8040365,60.0592448 97.2050781,60.6582031 C96.6061198,61.1074219 95.8574219,61.6315104 94.9589844,62.2304688 C94.360026,62.6796875 93.8359375,63.1289062 93.3867188,63.578125 C92.7877604,64.0273438 92.3385417,64.4765625 92.0390625,64.9257812 C91.7395833,65.5247396 91.514974,66.0488281 91.3652344,66.4980469 C91.2154948,66.797526 91.0657552,67.171875 90.9160156,67.6210938 C91.8144531,67.6210938 92.9375,67.6210938 94.2851562,67.6210938 C95.6328125,67.6210938 97.2050781,67.6210938 99.0019531,67.6210938 Z"/></svg>