<svg xmlns="http://www.w3.org/2000/svg" width="95" height="203" viewBox="0 0 95 203"><path fill="#131313" d="M3143.24805,67 C3148.63867,67 3153.13086,67.7486979 3156.72461,69.2460938 C3160.31836,70.7434896 3163.23828,72.6901042 3165.48437,75.0859375 C3169.67708,79.578125 3172.14779,84.7441406 3172.89648,90.5839844 C3173.49544,96.4238281 3173.79492,101.065755 3173.79492,104.509766 C3173.79492,113.344401 3173.79492,126.671224 3173.79492,144.490234 C3173.79492,146.736328 3173.04622,148.682943 3171.54883,150.330078 C3169.90169,151.827474 3167.95508,152.576172 3165.70898,152.576172 C3163.46289,152.576172 3161.59115,151.827474 3160.09375,150.330078 C3158.44661,148.682943 3157.62305,146.736328 3157.62305,144.490234 C3157.62305,135.655599 3157.62305,122.328776 3157.62305,104.509766 C3157.62305,96.124349 3156.64974,90.5091146 3154.70312,87.6640625 C3152.75651,84.6692708 3148.93815,83.171875 3143.24805,83.171875 C3136.65951,83.171875 3130.37044,85.5677083 3124.38086,90.359375 C3118.24154,95.1510417 3115.17187,101.365234 3115.17187,109.001953 C3115.17187,112.595703 3115.17187,117.911458 3115.17187,124.949219 C3115.17187,129.291667 3115.17187,135.805339 3115.17187,144.490234 C3115.17187,146.736328 3114.42318,148.682943 3112.92578,150.330078 C3111.27865,151.827474 3109.33203,152.576172 3107.08594,152.576172 C3104.83984,152.576172 3102.89323,151.827474 3101.24609,150.330078 C3099.7487,148.682943 3099,146.736328 3099,144.490234 C3099,140.147786 3099,133.634115 3099,124.949219 C3099,121.355469 3099,116.039714 3099,109.001953 C3099,101.514974 3099,90.2096354 3099,75.0859375 C3099,72.8398438 3099.7487,70.8932292 3101.24609,69.2460938 C3102.89323,67.7486979 3104.83984,67 3107.08594,67 C3109.33203,67 3111.27865,67.7486979 3112.92578,69.2460938 C3114.42318,70.8932292 3115.17187,72.8398438 3115.17187,75.0859375 C3115.17187,75.3854167 3115.17187,75.9095052 3115.17187,76.6582031 C3118.91536,73.6634115 3123.18294,71.3424479 3127.97461,69.6953125 C3132.61654,67.8984375 3137.70768,67 3143.24805,67 Z M3143.42578,56.5195312 C3148.81641,56.5195312 3154.2819,57.343099 3159.82227,58.9902344 C3165.51237,60.7871094 3170.45378,64.15625 3174.64648,69.0976562 C3176.89258,71.7929688 3178.83919,75.0872396 3180.48633,78.9804688 C3182.13346,82.7239583 3183.33138,87.2161458 3184.08008,92.4570312 C3183.63086,92.4570312 3182.88216,92.4570312 3181.83398,92.4570312 C3180.63607,84.5208333 3177.3418,76.9589844 3171.95117,69.7714844 C3166.56055,62.4342448 3157.05208,58.765625 3143.42578,58.765625 C3141.02995,58.765625 3138.63411,58.9153646 3136.23828,59.2148438 C3133.84245,59.5143229 3131.52148,59.9635417 3129.27539,60.5625 C3129.27539,60.4127604 3129.27539,60.188151 3129.27539,59.8886719 C3129.12565,59.5891927 3129.05078,59.3645833 3129.05078,59.2148438 C3128.90104,59.0651042 3128.82617,58.9153646 3128.82617,58.765625 C3128.67643,58.6158854 3128.60156,58.5410156 3128.60156,58.5410156 C3130.9974,57.7923177 3133.39323,57.2682292 3135.78906,56.96875 C3138.33464,56.6692708 3140.88021,56.5195312 3143.42578,56.5195312 Z M3126.13086,65.0546875 C3127.0293,64.6054688 3127.70312,64.0065104 3128.15234,63.2578125 C3128.60156,62.5091146 3128.82617,61.6855469 3128.82617,60.7871094 C3128.82617,60.7871094 3128.90104,60.7871094 3129.05078,60.7871094 C3129.20052,60.6373698 3129.27539,60.5625 3129.27539,60.5625 C3129.42513,61.6106771 3129.20052,62.5839844 3128.60156,63.4824219 C3128.15234,64.3808594 3127.40365,65.0546875 3126.35547,65.5039062 C3125.00781,66.1028646 3123.73503,66.1028646 3122.53711,65.5039062 C3121.33919,65.0546875 3120.44076,64.15625 3119.8418,62.8085938 C3119.39258,61.6106771 3119.39258,60.4127604 3119.8418,59.2148438 C3120.44076,57.8671875 3121.33919,56.96875 3122.53711,56.5195312 C3123.73503,56.0703125 3124.85807,55.9954427 3125.90625,56.2949219 C3127.10417,56.7441406 3128.0026,57.4179688 3128.60156,58.3164062 C3128.45182,58.4661458 3128.37695,58.5410156 3128.37695,58.5410156 C3128.22721,58.5410156 3128.07747,58.5410156 3127.92773,58.5410156 C3127.47852,57.7923177 3126.72982,57.2682292 3125.68164,56.96875 C3124.7832,56.6692708 3123.8099,56.6692708 3122.76172,56.96875 C3121.71354,57.4179688 3120.96484,58.2415365 3120.51562,59.4394531 C3120.06641,60.4876302 3120.06641,61.5358073 3120.51562,62.5839844 C3120.96484,63.781901 3121.71354,64.6054688 3122.76172,65.0546875 C3123.8099,65.5039062 3124.93294,65.5039062 3126.13086,65.0546875 Z M3126.35547,65.5039062 C3126.50521,65.5039062 3126.65495,65.4290365 3126.80469,65.2792969 C3126.95443,65.2792969 3127.0293,65.2792969 3127.0293,65.2792969 C3126.87956,65.2792969 3126.80469,65.2792969 3126.80469,65.2792969 C3126.65495,65.4290365 3126.50521,65.5039062 3126.35547,65.5039062 Z M3128.60156,58.5410156 C3128.60156,58.5410156 3128.67643,58.6158854 3128.82617,58.765625 C3128.82617,58.9153646 3128.90104,59.0651042 3129.05078,59.2148438 C3129.05078,59.5143229 3129.12565,59.7389323 3129.27539,59.8886719 C3129.27539,60.188151 3129.27539,60.4127604 3129.27539,60.5625 C3129.12565,60.7122396 3129.05078,60.7871094 3129.05078,60.7871094 C3128.90104,60.7871094 3128.82617,60.7871094 3128.82617,60.7871094 C3128.82617,60.6373698 3128.7513,60.4127604 3128.60156,60.1132812 C3128.60156,59.8138021 3128.52669,59.5891927 3128.37695,59.4394531 C3128.37695,59.2897135 3128.30208,59.139974 3128.15234,58.9902344 C3128.15234,58.8404948 3128.07747,58.6907552 3127.92773,58.5410156 C3128.07747,58.5410156 3128.22721,58.5410156 3128.37695,58.5410156 C3128.37695,58.5410156 3128.45182,58.5410156 3128.60156,58.5410156 Z M3122.76172,56.96875 C3123.8099,56.6692708 3124.7832,56.6692708 3125.68164,56.96875 C3126.72982,57.2682292 3127.47852,57.7923177 3127.92773,58.5410156 C3127.92773,58.5410156 3127.85286,58.6158854 3127.70312,58.765625 C3127.55339,58.765625 3127.47852,58.765625 3127.47852,58.765625 C3126.87956,58.1666667 3126.20573,57.7174479 3125.45703,57.4179688 C3124.55859,57.1184896 3123.73503,57.1933594 3122.98633,57.6425781 C3122.98633,57.4928385 3123.0612,57.4179688 3123.21094,57.4179688 C3123.21094,57.4179688 3123.21094,57.4179688 3123.21094,57.4179688 C3123.21094,57.4179688 3123.21094,57.4179688 3123.21094,57.4179688 C3123.36068,57.4179688 3123.43555,57.4179688 3123.43555,57.4179688 C3123.43555,57.4179688 3123.36068,57.4179688 3123.21094,57.4179688 C3123.21094,57.4179688 3123.21094,57.4179688 3123.21094,57.4179688 C3123.21094,57.4179688 3123.21094,57.4179688 3123.21094,57.4179688 C3123.0612,57.4179688 3122.98633,57.4928385 3122.98633,57.6425781 C3122.98633,57.6425781 3122.91146,57.6425781 3122.76172,57.6425781 C3122.76172,57.6425781 3122.76172,57.6425781 3122.76172,57.6425781 C3122.76172,57.6425781 3122.76172,57.6425781 3122.76172,57.6425781 C3122.76172,57.6425781 3122.68685,57.6425781 3122.53711,57.6425781 C3122.53711,57.6425781 3122.61198,57.6425781 3122.76172,57.6425781 C3122.76172,57.6425781 3122.76172,57.6425781 3122.76172,57.6425781 C3122.76172,57.6425781 3122.76172,57.6425781 3122.76172,57.6425781 C3122.91146,57.6425781 3122.98633,57.6425781 3122.98633,57.6425781 C3122.08789,57.9420573 3121.41406,58.6158854 3120.96484,59.6640625 C3120.51562,60.5625 3120.51562,61.4609375 3120.96484,62.359375 C3121.41406,63.4075521 3122.08789,64.0813802 3122.98633,64.3808594 C3123.88477,64.8300781 3124.85807,64.8300781 3125.90625,64.3808594 C3126.65495,64.0813802 3127.17904,63.6321615 3127.47852,63.0332031 C3127.92773,62.4342448 3128.15234,61.7604167 3128.15234,61.0117188 C3128.30208,61.0117188 3128.37695,60.936849 3128.37695,60.7871094 C3128.52669,60.7871094 3128.67643,60.7871094 3128.82617,60.7871094 C3128.82617,61.6855469 3128.60156,62.5091146 3128.15234,63.2578125 C3127.55339,64.0065104 3126.87956,64.6054688 3126.13086,65.0546875 C3124.93294,65.5039062 3123.8099,65.5039062 3122.76172,65.0546875 C3121.71354,64.6054688 3120.96484,63.781901 3120.51562,62.5839844 C3120.06641,61.5358073 3120.06641,60.4876302 3120.51562,59.4394531 C3120.96484,58.2415365 3121.71354,57.4179688 3122.76172,56.96875 Z M3127.92773,59.6640625 C3127.77799,59.5143229 3127.70312,59.3645833 3127.70312,59.2148438 C3127.55339,59.0651042 3127.47852,58.9153646 3127.47852,58.765625 C3127.47852,58.765625 3127.55339,58.765625 3127.70312,58.765625 C3127.85286,58.6158854 3127.92773,58.5410156 3127.92773,58.5410156 C3128.07747,58.6907552 3128.15234,58.8404948 3128.15234,58.9902344 C3128.30208,59.139974 3128.37695,59.2897135 3128.37695,59.4394531 C3128.52669,59.5891927 3128.60156,59.8138021 3128.60156,60.1132812 C3128.60156,60.2630208 3128.67643,60.4876302 3128.82617,60.7871094 C3128.67643,60.7871094 3128.52669,60.8619792 3128.37695,61.0117188 C3128.37695,61.0117188 3128.30208,61.0117188 3128.15234,61.0117188 C3128.15234,60.7122396 3128.15234,60.4876302 3128.15234,60.3378906 C3128.0026,60.0384115 3127.92773,59.8138021 3127.92773,59.6640625 Z M3184.5293,94.4785156 C3184.37956,94.1790365 3184.30469,93.8795573 3184.30469,93.5800781 C3184.30469,93.1308594 3184.22982,92.7565104 3184.08008,92.4570312 C3184.67904,92.3072917 3185.42773,92.2324219 3186.32617,92.2324219 C3185.72721,95.077474 3184.90365,99.2701823 3183.85547,104.810547 C3182.95703,102.115234 3181.53451,98.0722656 3179.58789,92.6816406 C3180.18685,92.6816406 3180.93555,92.6067708 3181.83398,92.4570312 C3181.83398,92.90625 3181.90885,93.3554688 3182.05859,93.8046875 C3182.05859,94.1041667 3182.05859,94.4785156 3182.05859,94.9277344 C3182.50781,94.7779948 3182.88216,94.703125 3183.18164,94.703125 C3183.63086,94.703125 3184.08008,94.6282552 3184.5293,94.4785156 Z M3184.5293,94.4785156 C3183.93034,94.6282552 3183.10677,94.7779948 3182.05859,94.9277344 C3182.05859,94.4785156 3182.05859,94.1041667 3182.05859,93.8046875 C3181.90885,93.3554688 3181.83398,92.90625 3181.83398,92.4570312 C3182.2832,92.4570312 3183.0319,92.4570312 3184.08008,92.4570312 C3184.22982,92.7565104 3184.30469,93.0559896 3184.30469,93.3554688 C3184.30469,93.8046875 3184.37956,94.1790365 3184.5293,94.4785156 Z M3088.17187,85.2695312 C3088.32161,85.2695312 3088.47135,85.2695312 3088.62109,85.2695312 C3088.92057,85.2695312 3089.14518,85.2695312 3089.29492,85.2695312 C3089.44466,85.2695312 3089.66927,85.2695312 3089.96875,85.2695312 C3090.11849,85.2695312 3090.26823,85.2695312 3090.41797,85.2695312 C3090.41797,95.7513021 3090.41797,111.473958 3090.41797,132.4375 C3089.96875,132.4375 3089.22005,132.4375 3088.17187,132.4375 C3088.17187,124.651042 3088.17187,116.789714 3088.17187,108.853516 C3088.17187,100.917318 3088.17187,93.0559896 3088.17187,85.2695312 Z M3088.17187,134.908203 C3088.17187,134.309245 3088.17187,133.485677 3088.17187,132.4375 C3087.72266,132.4375 3086.97396,132.4375 3085.92578,132.4375 C3086.67448,135.282552 3087.79753,139.47526 3089.29492,145.015625 C3090.04362,142.170573 3091.16667,137.977865 3092.66406,132.4375 C3092.21484,132.4375 3091.46615,132.4375 3090.41797,132.4375 C3090.41797,133.036458 3090.41797,133.860026 3090.41797,134.908203 C3089.96875,134.908203 3089.22005,134.908203 3088.17187,134.908203 Z M3088.17187,134.908203 C3088.62109,134.908203 3089.36979,134.908203 3090.41797,134.908203 C3090.41797,134.309245 3090.41797,133.485677 3090.41797,132.4375 C3089.96875,132.4375 3089.22005,132.4375 3088.17187,132.4375 C3088.17187,133.036458 3088.17187,133.860026 3088.17187,134.908203 Z M3089.29492,75.6113281 C3090.64258,75.6113281 3091.76562,76.0605469 3092.66406,76.9589844 C3093.71224,78.0071615 3094.23633,79.2050781 3094.23633,80.5527344 C3094.23633,81.6009115 3093.86198,82.5742188 3093.11328,83.4726562 C3092.36458,84.3710938 3091.46615,84.9700521 3090.41797,85.2695312 C3090.41797,85.1197917 3090.41797,84.8951823 3090.41797,84.5957031 C3091.31641,84.296224 3092.0651,83.7721354 3092.66406,83.0234375 C3093.26302,82.2747396 3093.5625,81.4511719 3093.5625,80.5527344 C3093.5625,79.3548177 3093.18815,78.3066406 3092.43945,77.4082031 C3091.54102,76.5097656 3090.49284,76.0605469 3089.29492,76.0605469 C3088.09701,76.0605469 3087.04883,76.5097656 3086.15039,77.4082031 C3085.40169,78.3066406 3085.02734,79.3548177 3085.02734,80.5527344 C3085.02734,81.4511719 3085.32682,82.2747396 3085.92578,83.0234375 C3086.52474,83.7721354 3087.27344,84.296224 3088.17187,84.5957031 C3088.17187,84.7454427 3088.17187,84.9700521 3088.17187,85.2695312 C3087.1237,84.9700521 3086.22526,84.3710938 3085.47656,83.4726562 C3084.72786,82.5742188 3084.35352,81.6009115 3084.35352,80.5527344 C3084.35352,79.2050781 3084.8776,78.0071615 3085.92578,76.9589844 C3086.82422,76.0605469 3087.94727,75.6113281 3089.29492,75.6113281 Z M3089.29492,84.8203125 C3089.44466,84.8203125 3089.66927,84.8203125 3089.96875,84.8203125 C3090.11849,84.6705729 3090.26823,84.5957031 3090.41797,84.5957031 C3090.41797,84.7454427 3090.41797,84.9700521 3090.41797,85.2695312 C3090.26823,85.2695312 3090.11849,85.2695312 3089.96875,85.2695312 C3089.66927,85.2695312 3089.44466,85.2695312 3089.29492,85.2695312 C3089.14518,85.2695312 3088.92057,85.2695312 3088.62109,85.2695312 C3088.47135,85.2695312 3088.32161,85.2695312 3088.17187,85.2695312 C3088.17187,85.1197917 3088.17187,84.8951823 3088.17187,84.5957031 C3088.32161,84.5957031 3088.47135,84.6705729 3088.62109,84.8203125 C3088.92057,84.8203125 3089.14518,84.8203125 3089.29492,84.8203125 Z M3085.47656,80.5527344 C3085.47656,81.3014323 3085.77604,81.9752604 3086.375,82.5742188 C3086.82422,83.3229167 3087.42318,83.7721354 3088.17187,83.921875 C3088.17187,84.0716146 3088.17187,84.296224 3088.17187,84.5957031 C3087.27344,84.296224 3086.52474,83.7721354 3085.92578,83.0234375 C3085.32682,82.2747396 3085.02734,81.4511719 3085.02734,80.5527344 C3085.02734,79.3548177 3085.40169,78.3066406 3086.15039,77.4082031 C3087.04883,76.5097656 3088.09701,76.0605469 3089.29492,76.0605469 C3090.49284,76.0605469 3091.54102,76.5097656 3092.43945,77.4082031 C3093.18815,78.3066406 3093.5625,79.3548177 3093.5625,80.5527344 C3093.5625,81.4511719 3093.26302,82.2747396 3092.66406,83.0234375 C3092.0651,83.7721354 3091.31641,84.296224 3090.41797,84.5957031 C3090.41797,84.4459635 3090.41797,84.2213542 3090.41797,83.921875 C3091.16667,83.7721354 3091.76562,83.3229167 3092.21484,82.5742188 C3092.8138,81.9752604 3093.11328,81.3014323 3093.11328,80.5527344 C3093.11328,79.5045573 3092.73893,78.6061198 3091.99023,77.8574219 C3091.24154,77.108724 3090.3431,76.734375 3089.29492,76.734375 C3088.24674,76.734375 3087.34831,77.108724 3086.59961,77.8574219 C3085.85091,78.6061198 3085.47656,79.5045573 3085.47656,80.5527344 C3085.47656,80.2532552 3085.47656,80.1035156 3085.47656,80.1035156 C3085.47656,79.953776 3085.47656,79.8789062 3085.47656,79.8789062 C3085.47656,79.8789062 3085.47656,79.953776 3085.47656,80.1035156 C3085.47656,80.1035156 3085.47656,80.2532552 3085.47656,80.5527344 C3085.47656,80.702474 3085.47656,80.7773438 3085.47656,80.7773438 C3085.47656,80.9270833 3085.47656,81.0019531 3085.47656,81.0019531 C3085.47656,81.0019531 3085.47656,80.9270833 3085.47656,80.7773438 C3085.47656,80.7773438 3085.47656,80.702474 3085.47656,80.5527344 Z M3090.41797,84.5957031 C3090.26823,84.5957031 3090.11849,84.6705729 3089.96875,84.8203125 C3089.66927,84.8203125 3089.44466,84.8203125 3089.29492,84.8203125 C3089.14518,84.8203125 3088.92057,84.8203125 3088.62109,84.8203125 C3088.47135,84.6705729 3088.32161,84.5957031 3088.17187,84.5957031 C3088.17187,84.4459635 3088.17187,84.2213542 3088.17187,83.921875 C3088.32161,84.0716146 3088.47135,84.1464844 3088.62109,84.1464844 C3088.92057,84.1464844 3089.14518,84.1464844 3089.29492,84.1464844 C3089.44466,84.1464844 3089.66927,84.1464844 3089.96875,84.1464844 C3090.11849,84.1464844 3090.26823,84.0716146 3090.41797,83.921875 C3090.41797,84.0716146 3090.41797,84.2213542 3090.41797,84.3710938 C3090.41797,84.3710938 3090.41797,84.4459635 3090.41797,84.5957031 Z M3075.59375,80.328125 C3075.74349,80.328125 3075.81836,80.4029948 3075.81836,80.5527344 C3075.9681,80.5527344 3076.04297,80.6276042 3076.04297,80.7773438 C3076.19271,80.7773438 3076.26758,80.8522135 3076.26758,81.0019531 C3076.26758,81.0019531 3076.26758,81.0768229 3076.26758,81.2265625 C3076.26758,83.0234375 3076.26758,85.344401 3076.26758,88.1894531 C3076.26758,90.8847656 3076.26758,94.1041667 3076.26758,97.8476562 C3076.26758,97.9973958 3076.26758,98.1471354 3076.26758,98.296875 C3076.11784,98.296875 3076.04297,98.3717448 3076.04297,98.5214844 C3075.89323,98.671224 3075.74349,98.7460938 3075.59375,98.7460938 C3075.44401,98.7460938 3075.36914,98.7460938 3075.36914,98.7460938 C3075.2194,98.7460938 3075.06966,98.7460938 3074.91992,98.7460938 C3074.77018,98.7460938 3074.69531,98.671224 3074.69531,98.5214844 C3074.54557,98.5214844 3074.4707,98.4466146 3074.4707,98.296875 C3074.32096,98.1471354 3074.24609,97.9973958 3074.24609,97.8476562 C3074.24609,96.2005208 3074.24609,94.2539062 3074.24609,92.0078125 C3074.24609,89.6119792 3074.24609,86.7669271 3074.24609,83.4726562 C3074.24609,83.6223958 3074.17122,83.7721354 3074.02148,83.921875 C3073.87174,83.921875 3073.72201,83.9967448 3073.57227,84.1464844 C3073.57227,84.296224 3073.4974,84.3710938 3073.34766,84.3710938 C3073.19792,84.5208333 3073.04818,84.5957031 3072.89844,84.5957031 C3072.7487,84.5957031 3072.67383,84.5208333 3072.67383,84.3710938 C3072.52409,84.3710938 3072.37435,84.296224 3072.22461,84.1464844 C3072.22461,84.1464844 3072.14974,84.0716146 3072,83.921875 C3072,83.7721354 3072,83.6223958 3072,83.4726562 C3072,83.3229167 3072,83.2480469 3072,83.2480469 C3072.14974,83.0983073 3072.22461,82.9485677 3072.22461,82.7988281 C3072.52409,82.6490885 3072.89844,82.3496094 3073.34766,81.9003906 C3073.64714,81.4511719 3074.09635,81.0019531 3074.69531,80.5527344 C3074.69531,80.4029948 3074.77018,80.328125 3074.91992,80.328125 C3074.91992,80.328125 3074.99479,80.328125 3075.14453,80.328125 C3075.14453,80.328125 3075.14453,80.328125 3075.14453,80.328125 C3075.29427,80.328125 3075.36914,80.328125 3075.36914,80.328125 C3075.36914,80.328125 3075.44401,80.328125 3075.59375,80.328125 C3075.59375,80.328125 3075.59375,80.328125 3075.59375,80.328125 Z M3114.00195,55.6210938 C3114.15169,55.6210938 3114.30143,55.6210938 3114.45117,55.6210938 C3114.60091,55.6210938 3114.67578,55.6959635 3114.67578,55.8457031 C3114.82552,55.9954427 3114.90039,56.0703125 3114.90039,56.0703125 C3115.05013,56.2200521 3115.125,56.3697917 3115.125,56.5195312 C3115.125,56.6692708 3115.05013,56.8190104 3114.90039,56.96875 C3114.90039,57.1184896 3114.82552,57.1933594 3114.67578,57.1933594 C3114.67578,57.343099 3114.60091,57.4179688 3114.45117,57.4179688 C3114.30143,57.4179688 3114.15169,57.4179688 3114.00195,57.4179688 C3113.25326,57.4179688 3112.50456,57.4179688 3111.75586,57.4179688 C3111.00716,57.4179688 3110.18359,57.4179688 3109.28516,57.4179688 C3108.53646,57.4179688 3107.78776,57.4179688 3107.03906,57.4179688 C3106.29036,57.4179688 3105.4668,57.4179688 3104.56836,57.4179688 C3104.56836,57.4179688 3104.56836,57.4179688 3104.56836,57.4179688 C3104.41862,57.4179688 3104.34375,57.4179688 3104.34375,57.4179688 C3104.19401,57.4179688 3104.11914,57.4179688 3104.11914,57.4179688 C3104.11914,57.2682292 3104.04427,57.1933594 3103.89453,57.1933594 C3103.89453,57.1933594 3103.89453,57.1184896 3103.89453,56.96875 C3103.89453,56.96875 3103.89453,56.8938802 3103.89453,56.7441406 C3103.74479,56.7441406 3103.66992,56.7441406 3103.66992,56.7441406 C3103.66992,56.594401 3103.66992,56.5195312 3103.66992,56.5195312 C3103.66992,56.5195312 3103.66992,56.5195312 3103.66992,56.5195312 C3103.66992,56.5195312 3103.66992,56.5195312 3103.66992,56.5195312 C3103.66992,56.3697917 3103.74479,56.2200521 3103.89453,56.0703125 C3103.89453,55.7708333 3103.9694,55.3964844 3104.11914,54.9472656 C3104.11914,54.4980469 3104.26888,54.0488281 3104.56836,53.5996094 C3104.7181,53.1503906 3105.01758,52.6263021 3105.4668,52.0273438 C3105.61654,51.7278646 3105.84115,51.4283854 3106.14062,51.1289063 C3106.29036,50.8294271 3106.51497,50.5299479 3106.81445,50.2304688 C3107.11393,49.9309896 3107.48828,49.6315104 3107.9375,49.3320313 C3108.23698,49.0325521 3108.61133,48.7330729 3109.06055,48.4335938 C3109.80924,47.984375 3110.48307,47.5351563 3111.08203,47.0859375 C3111.53125,46.6367187 3111.9056,46.1875 3112.20508,45.7382812 C3112.35482,45.4388021 3112.50456,45.0644531 3112.6543,44.6152344 C3112.80404,44.3157552 3112.87891,44.016276 3112.87891,43.7167969 C3112.87891,43.5670573 3112.87891,43.4921875 3112.87891,43.4921875 C3112.87891,43.3424479 3112.87891,43.1927083 3112.87891,43.0429687 C3112.72917,43.0429687 3112.6543,42.968099 3112.6543,42.8183594 C3112.6543,42.6686198 3112.6543,42.5188802 3112.6543,42.3691406 C3112.50456,42.219401 3112.35482,42.0696615 3112.20508,41.9199219 C3112.05534,41.6204427 3111.83073,41.3958333 3111.53125,41.2460938 C3111.38151,41.0963542 3111.08203,41.0214844 3110.63281,41.0214844 C3110.33333,40.8717448 3109.95898,40.796875 3109.50977,40.796875 C3109.06055,40.796875 3108.6862,40.8717448 3108.38672,41.0214844 C3108.08724,41.0214844 3107.78776,41.0963542 3107.48828,41.2460938 C3107.1888,41.3958333 3106.96419,41.6204427 3106.81445,41.9199219 C3106.66471,42.219401 3106.51497,42.5188802 3106.36523,42.8183594 C3106.21549,42.8183594 3106.14062,42.8932292 3106.14062,43.0429687 C3105.99089,43.1927083 3105.84115,43.2675781 3105.69141,43.2675781 C3105.54167,43.2675781 3105.4668,43.2675781 3105.4668,43.2675781 C3105.31706,43.2675781 3105.16732,43.2675781 3105.01758,43.2675781 C3104.86784,43.1178385 3104.79297,43.0429687 3104.79297,43.0429687 C3104.64323,42.8932292 3104.56836,42.7434896 3104.56836,42.59375 C3104.41862,42.4440104 3104.34375,42.3691406 3104.34375,42.3691406 C3104.34375,42.219401 3104.41862,42.0696615 3104.56836,41.9199219 C3104.7181,41.4707031 3104.94271,41.0214844 3105.24219,40.5722656 C3105.69141,40.2727865 3106.06576,39.9733073 3106.36523,39.6738281 C3106.81445,39.374349 3107.26367,39.1497396 3107.71289,39 C3108.31185,39 3108.91081,39 3109.50977,39 C3110.4082,39 3111.23177,39.0748698 3111.98047,39.2246094 C3112.57943,39.5240885 3113.10352,39.8984375 3113.55273,40.3476562 C3114.00195,40.9466146 3114.30143,41.5455729 3114.45117,42.1445312 C3114.60091,42.59375 3114.67578,43.1178385 3114.67578,43.7167969 C3114.67578,44.3157552 3114.60091,44.9147135 3114.45117,45.5136719 C3114.30143,46.1126302 3114.00195,46.6367187 3113.55273,47.0859375 C3113.25326,47.5351563 3112.80404,48.0592448 3112.20508,48.6582031 C3111.60612,49.1074219 3110.85742,49.6315104 3109.95898,50.2304688 C3109.36003,50.6796875 3108.83594,51.1289063 3108.38672,51.578125 C3107.78776,52.0273438 3107.33854,52.4765625 3107.03906,52.9257812 C3106.73958,53.5247396 3106.51497,54.0488281 3106.36523,54.4980469 C3106.21549,54.797526 3106.06576,55.171875 3105.91602,55.6210938 C3106.81445,55.6210938 3107.9375,55.6210938 3109.28516,55.6210938 C3110.63281,55.6210938 3112.20508,55.6210938 3114.00195,55.6210938 Z" transform="translate(-3089 -12)"/></svg>