<svg xmlns="http://www.w3.org/2000/svg" width="120" height="243" viewBox="0 0 120 243"><path fill="#131313" d="M11.0684375,94.8935547 C11.0684375,73.3264974 15.5329557,56.0865885 24.4619922,43.1738281 C33.3910286,30.2610677 45.3422005,23.8046875 60.3155078,23.8046875 C75.2888151,23.8046875 87.239987,30.2610677 96.1690234,43.1738281 C105.23543,56.0865885 109.768633,73.3264974 109.768633,94.8935547 C109.768633,116.185872 105.23543,133.357096 96.1690234,146.407227 C87.1026172,159.457357 75.1514453,165.982422 60.3155078,165.982422 C45.6169401,165.982422 33.7344531,159.457357 24.6680469,146.407227 C15.6016406,133.357096 11.0684375,116.185872 11.0684375,94.8935547 Z M26.0684375,95.0576172 C26.0684375,111.816732 29.2279427,125.416341 35.5469531,135.856445 C41.8659635,146.15918 50.1768359,151.310547 60.4795703,151.310547 C70.7823047,151.310547 79.0931771,146.15918 85.4121875,135.856445 C91.7311979,125.416341 94.8907031,111.816732 94.8907031,95.0576172 C94.8907031,86.6780599 93.8604297,78.1611328 91.7998828,69.5068359 C89.7393359,60.9899089 86.3050911,53.9840495 81.4971484,48.4892578 C78.8871224,45.4671224 75.864987,43.1318359 72.4307422,41.4833984 C68.8591276,39.6975911 64.8754036,38.8046875 60.4795703,38.8046875 C52.2373828,38.8046875 45.6436328,41.6207682 40.6983203,47.2529297 C35.7530078,52.8850911 32.1127083,59.6848958 29.7774219,67.6523438 C28.5410938,72.0481771 27.5795052,76.5813802 26.8926563,81.2519531 C26.3431771,85.922526 26.0684375,90.5244141 26.0684375,95.0576172 Z M97.7871875,28.4951172 C97.5124479,28.632487 97.3063932,28.8385417 97.1690234,29.1132812 C97.0316536,29.250651 96.8942839,29.3880208 96.7569141,29.5253906 C93.3226693,25.953776 89.545,23.0690104 85.4239063,20.8710938 C81.3028125,18.6731771 76.9069792,17.0247396 72.2364063,15.9257812 C72.2364063,15.5136719 72.3050911,14.8268229 72.4424609,13.8652344 C77.3877734,14.9641927 82.0583464,16.6813151 86.4541797,19.0166016 C90.7126432,21.351888 94.6963672,24.3740234 98.4053516,28.0830078 C98.2679818,28.2203776 98.130612,28.2890625 97.9932422,28.2890625 C97.8558724,28.4264323 97.7871875,28.4951172 97.7871875,28.4951172 Z M70.3819141,13.453125 C70.3819141,14.0026042 70.3132292,14.6894531 70.1758594,15.5136719 C70.450599,15.6510417 70.7940234,15.7197266 71.2061328,15.7197266 C71.4808724,15.8570964 71.8242969,15.9257812 72.2364063,15.9257812 C72.0990365,16.4752604 72.0303516,17.1621094 72.0303516,17.9863281 C69.5576953,17.0247396 65.8487109,15.6510417 60.9033984,13.8652344 C63.5134245,13.3157552 67.4284635,12.6289062 72.6485156,11.8046875 C72.5111458,12.3541667 72.4424609,13.0410156 72.4424609,13.8652344 C72.0303516,13.8652344 71.6869271,13.7965495 71.4121875,13.6591797 C71.1374479,13.6591797 70.7940234,13.5904948 70.3819141,13.453125 Z M70.3819141,13.453125 C70.7940234,13.5904948 71.1374479,13.6591797 71.4121875,13.6591797 C71.6869271,13.7965495 72.0303516,13.8652344 72.4424609,13.8652344 C72.3050911,14.4147135 72.2364063,15.1015625 72.2364063,15.9257812 C71.8242969,15.9257812 71.4808724,15.8570964 71.2061328,15.7197266 C70.7940234,15.7197266 70.450599,15.6510417 70.1758594,15.5136719 C70.1758594,15.2389323 70.1758594,14.8955078 70.1758594,14.4833984 C70.3132292,14.2086589 70.3819141,13.8652344 70.3819141,13.453125 Z M98.4053516,28.0830078 C99.3669401,27.6708984 100.397214,27.5335286 101.496172,27.6708984 C102.45776,27.8082682 103.281979,28.2890625 103.968828,29.1132812 C104.793047,30.0748698 105.136471,31.1738281 104.999102,32.4101562 C104.861732,33.6464844 104.312253,34.6767578 103.350664,35.5009766 C102.389076,36.3251953 101.290117,36.6686198 100.053789,36.53125 C98.8174609,36.3938802 97.7871875,35.844401 96.9629688,34.8828125 C96.4134896,34.0585938 96.13875,33.1656901 96.13875,32.2041016 C96.0013802,31.242513 96.2074349,30.3496094 96.7569141,29.5253906 C96.8942839,29.5253906 96.9629688,29.5940755 96.9629688,29.7314453 C97.1003385,29.7314453 97.1690234,29.8001302 97.1690234,29.9375 C96.7569141,30.624349 96.5508594,31.3798828 96.5508594,32.2041016 C96.5508594,33.0283203 96.825599,33.7838542 97.3750781,34.4707031 C98.0619271,35.4322917 98.9548307,35.9130859 100.053789,35.9130859 C101.152747,36.0504557 102.114336,35.7757161 102.938555,35.0888672 C103.900143,34.4020182 104.380938,33.5091146 104.380938,32.4101562 C104.518307,31.3111979 104.243568,30.3496094 103.556719,29.5253906 C103.00724,28.8385417 102.251706,28.4264323 101.290117,28.2890625 C100.465898,28.0143229 99.6416797,28.0830078 98.8174609,28.4951172 C98.6800911,28.4951172 98.6114063,28.4264323 98.6114063,28.2890625 C98.6114063,28.2890625 98.5427214,28.2203776 98.4053516,28.0830078 Z M96.9629688,34.8828125 C97.1003385,35.0201823 97.2377083,35.1575521 97.3750781,35.2949219 C97.3750781,35.2949219 97.3750781,35.3636068 97.3750781,35.5009766 C97.3750781,35.3636068 97.3750781,35.2949219 97.3750781,35.2949219 C97.2377083,35.1575521 97.1003385,35.0201823 96.9629688,34.8828125 Z M97.9932422,28.9072266 C97.8558724,29.0445964 97.7185026,29.250651 97.5811328,29.5253906 C97.443763,29.6627604 97.3063932,29.8001302 97.1690234,29.9375 C97.1690234,29.8001302 97.1003385,29.7314453 96.9629688,29.7314453 C96.9629688,29.5940755 96.8942839,29.5253906 96.7569141,29.5253906 C96.8942839,29.3880208 97.0316536,29.250651 97.1690234,29.1132812 C97.3063932,28.8385417 97.5124479,28.632487 97.7871875,28.4951172 C97.7871875,28.4951172 97.8558724,28.4264323 97.9932422,28.2890625 C98.130612,28.2890625 98.2679818,28.2203776 98.4053516,28.0830078 C98.5427214,28.2203776 98.6114063,28.2890625 98.6114063,28.2890625 C98.6114063,28.4264323 98.6800911,28.4951172 98.8174609,28.4951172 C98.6800911,28.632487 98.5427214,28.7011719 98.4053516,28.7011719 C98.2679818,28.8385417 98.130612,28.9072266 97.9932422,28.9072266 Z M103.144609,29.9375 C102.7325,29.250651 102.114336,28.8385417 101.290117,28.7011719 C100.603268,28.5638021 99.9164193,28.632487 99.2295703,28.9072266 C99.0922005,28.9072266 99.0235156,28.8385417 99.0235156,28.7011719 C98.8861458,28.7011719 98.8174609,28.632487 98.8174609,28.4951172 C99.6416797,28.0830078 100.465898,28.0143229 101.290117,28.2890625 C102.251706,28.4264323 103.00724,28.8385417 103.556719,29.5253906 C104.243568,30.4869792 104.518307,31.4485677 104.380938,32.4101563 C104.380938,33.5091146 103.900143,34.4020182 102.938555,35.0888672 C102.114336,35.7757161 101.152747,36.1191406 100.053789,36.1191406 C98.9548307,35.9817708 98.0619271,35.5009766 97.3750781,34.6767578 C96.825599,33.9899089 96.5508594,33.1656901 96.5508594,32.2041016 C96.5508594,31.3798828 96.7569141,30.624349 97.1690234,29.9375 C97.3063932,29.9375 97.3750781,30.0061849 97.3750781,30.1435547 C97.5124479,30.1435547 97.5811328,30.2122396 97.5811328,30.3496094 C97.1690234,30.8990885 97.0316536,31.5859375 97.1690234,32.4101563 C97.1690234,33.0970052 97.3750781,33.7151693 97.7871875,34.2646484 C98.4740365,34.9514974 99.2982552,35.3636068 100.259844,35.5009766 C101.084063,35.6383464 101.908281,35.3636068 102.7325,34.6767578 C103.419349,34.1272786 103.831458,33.3717448 103.968828,32.4101563 C104.106198,31.4485677 103.831458,30.624349 103.144609,29.9375 Z M97.1690234,29.9375 C97.3063932,29.8001302 97.443763,29.6627604 97.5811328,29.5253906 C97.7185026,29.250651 97.8558724,29.1132812 97.9932422,29.1132812 C98.130612,28.9759115 98.2679818,28.8385417 98.4053516,28.7011719 C98.5427214,28.7011719 98.6800911,28.632487 98.8174609,28.4951172 C98.8174609,28.632487 98.8861458,28.7011719 99.0235156,28.7011719 C99.0235156,28.8385417 99.0922005,28.9072266 99.2295703,28.9072266 C99.0922005,29.0445964 98.9548307,29.1132812 98.8174609,29.1132812 C98.6800911,29.250651 98.5427214,29.3193359 98.4053516,29.3193359 C98.2679818,29.4567057 98.130612,29.6627604 97.9932422,29.9375 C97.8558724,30.0748698 97.7185026,30.2122396 97.5811328,30.3496094 C97.443763,30.2122396 97.3750781,30.1435547 97.3750781,30.1435547 C97.3750781,30.0061849 97.3063932,29.9375 97.1690234,29.9375 Z M113.035234,30.7617188 C112.897865,30.7617188 112.82918,30.7617188 112.82918,30.7617188 C112.82918,30.7617188 112.82918,30.7617188 112.82918,30.7617188 C112.69181,30.7617188 112.55444,30.7617188 112.41707,30.7617188 C112.41707,30.7617188 112.348385,30.8304036 112.211016,30.9677734 C111.798906,31.3798828 111.386797,31.7919922 110.974688,32.2041016 C110.699948,32.4788411 110.425208,32.7535807 110.150469,33.0283203 C110.013099,33.1656901 109.944414,33.3030599 109.944414,33.4404297 C109.944414,33.4404297 109.944414,33.5091146 109.944414,33.6464844 C109.944414,33.7838542 109.944414,33.921224 109.944414,34.0585938 C109.944414,34.1959635 110.013099,34.2646484 110.150469,34.2646484 C110.287839,34.4020182 110.356523,34.4707031 110.356523,34.4707031 C110.493893,34.6080729 110.631263,34.6767578 110.768633,34.6767578 C110.906003,34.6767578 111.043372,34.6080729 111.180742,34.4707031 C111.180742,34.4707031 111.249427,34.4020182 111.386797,34.2646484 C111.524167,34.1272786 111.661536,34.0585938 111.798906,34.0585938 C111.936276,33.921224 112.004961,33.7838542 112.004961,33.6464844 C112.004961,36.6686198 112.004961,39.2099609 112.004961,41.2705078 C112.004961,43.4684245 112.004961,45.3229167 112.004961,46.8339844 C112.004961,46.9713542 112.004961,47.108724 112.004961,47.2460938 C112.142331,47.2460938 112.211016,47.3147786 112.211016,47.4521484 C112.348385,47.5895182 112.485755,47.6582031 112.623125,47.6582031 C112.760495,47.6582031 112.82918,47.6582031 112.82918,47.6582031 C112.966549,47.6582031 113.103919,47.6582031 113.241289,47.6582031 C113.378659,47.6582031 113.447344,47.5895182 113.447344,47.4521484 C113.584714,47.3147786 113.653398,47.2460938 113.653398,47.2460938 C113.790768,47.108724 113.859453,46.9713542 113.859453,46.8339844 C113.859453,43.3997396 113.859453,40.4462891 113.859453,37.9736328 C113.859453,35.3636068 113.859453,33.234375 113.859453,31.5859375 C113.859453,31.4485677 113.859453,31.3798828 113.859453,31.3798828 C113.722083,31.242513 113.653398,31.1051432 113.653398,30.9677734 C113.653398,30.9677734 113.584714,30.8990885 113.447344,30.7617188 C113.447344,30.7617188 113.378659,30.7617188 113.241289,30.7617188 C113.241289,30.7617188 113.172604,30.7617188 113.035234,30.7617188 C113.035234,30.7617188 113.035234,30.7617188 113.035234,30.7617188 Z"/></svg>