<svg xmlns="http://www.w3.org/2000/svg" width="207" height="207" viewBox="0 0 207 207"><path fill="#131313" d="M48,103.742188 C48,80.2330729 52.8665365,61.4407552 62.5996094,47.3652344 C72.3326823,33.2897135 85.360026,26.2519531 101.681641,26.2519531 C118.003255,26.2519531 131.030599,33.2897135 140.763672,47.3652344 C150.646484,61.4407552 155.587891,80.2330729 155.587891,103.742188 C155.587891,126.951823 150.646484,145.669271 140.763672,159.894531 C130.880859,174.119792 117.853516,181.232422 101.681641,181.232422 C85.6595052,181.232422 72.7070312,174.119792 62.8242188,159.894531 C52.9414062,145.669271 48,126.951823 48,103.742188 Z M64.171875,103.742188 C64.171875,122.010417 67.6158854,136.834635 74.5039062,148.214844 C81.3919271,159.445312 90.4511719,165.060547 101.681641,165.060547 C112.912109,165.060547 121.971354,159.445312 128.859375,148.214844 C135.747396,136.834635 139.191406,122.010417 139.191406,103.742188 C139.191406,94.6080729 138.068359,85.3242188 135.822266,75.890625 C133.576172,66.6067708 129.832682,58.9700521 124.591797,52.9804688 C121.746745,49.6861979 118.452474,47.140625 114.708984,45.34375 C110.815755,43.3971354 106.473307,42.4238281 101.681641,42.4238281 C92.6972656,42.4238281 85.5097656,45.4934896 80.1191406,51.6328125 C74.7285156,57.7721354 70.7604167,65.1842448 68.2148438,73.8691406 C66.8671875,78.6608073 65.8190104,83.6022135 65.0703125,88.6933594 C64.4713542,93.7845052 64.171875,98.8007812 64.171875,103.742188 Z M141.4375,31.1933594 C141.138021,31.343099 140.913411,31.5677083 140.763672,31.8671875 C140.613932,32.0169271 140.464193,32.1666667 140.314453,32.3164062 C136.570964,28.4231771 132.453125,25.2786458 127.960938,22.8828125 C123.46875,20.4869792 118.677083,18.6901042 113.585938,17.4921875 C113.585938,17.0429688 113.660807,16.2942708 113.810547,15.2460938 C119.201172,16.4440104 124.292318,18.3157552 129.083984,20.8613281 C133.725911,23.406901 138.068359,26.7011719 142.111328,30.7441406 C141.961589,30.8938802 141.811849,30.96875 141.662109,30.96875 C141.51237,31.1184896 141.4375,31.1933594 141.4375,31.1933594 Z M111.564453,14.796875 C111.564453,15.3958333 111.489583,16.1445312 111.339844,17.0429688 C111.639323,17.1927083 112.013672,17.2675781 112.462891,17.2675781 C112.76237,17.4173177 113.136719,17.4921875 113.585938,17.4921875 C113.436198,18.0911458 113.361328,18.8398438 113.361328,19.7382812 C110.666016,18.6901042 106.623047,17.1927083 101.232422,15.2460938 C104.077474,14.6471354 108.345052,13.8984375 114.035156,13 C113.885417,13.5989583 113.810547,14.3476562 113.810547,15.2460938 C113.361328,15.2460938 112.986979,15.171224 112.6875,15.0214844 C112.388021,15.0214844 112.013672,14.9466146 111.564453,14.796875 Z M111.564453,14.796875 C112.013672,14.9466146 112.388021,15.0214844 112.6875,15.0214844 C112.986979,15.171224 113.361328,15.2460938 113.810547,15.2460938 C113.660807,15.8450521 113.585938,16.59375 113.585938,17.4921875 C113.136719,17.4921875 112.76237,17.4173177 112.462891,17.2675781 C112.013672,17.2675781 111.639323,17.1927083 111.339844,17.0429688 C111.339844,16.7434896 111.339844,16.3691406 111.339844,15.9199219 C111.489583,15.6204427 111.564453,15.2460938 111.564453,14.796875 Z M140.314453,37.9316406 C140.314453,37.781901 140.314453,37.7070312 140.314453,37.7070312 C140.164714,37.7070312 140.089844,37.7070312 140.089844,37.7070312 C140.089844,37.7070312 140.164714,37.7070312 140.314453,37.7070312 C140.314453,37.7070312 140.314453,37.781901 140.314453,37.9316406 Z M142.111328,30.7441406 C143.159505,30.2949219 144.282552,30.1451823 145.480469,30.2949219 C146.528646,30.4446615 147.427083,30.96875 148.175781,31.8671875 C149.074219,32.9153646 149.448568,34.1132812 149.298828,35.4609375 C149.149089,36.8085938 148.55013,37.9316406 147.501953,38.8300781 C146.453776,39.7285156 145.255859,40.1028646 143.908203,39.953125 C142.560547,39.8033854 141.4375,39.2044271 140.539062,38.15625 C139.940104,37.2578125 139.640625,36.2845052 139.640625,35.2363281 C139.490885,34.188151 139.715495,33.2148438 140.314453,32.3164062 C140.464193,32.3164062 140.539062,32.391276 140.539062,32.5410156 C140.688802,32.5410156 140.763672,32.6158854 140.763672,32.765625 C140.314453,33.5143229 140.089844,34.3378906 140.089844,35.2363281 C140.089844,36.1347656 140.389323,36.9583333 140.988281,37.7070312 C141.736979,38.7552083 142.710286,39.2792969 143.908203,39.2792969 C145.10612,39.4290365 146.154297,39.1295573 147.052734,38.3808594 C148.100911,37.6321615 148.625,36.6588542 148.625,35.4609375 C148.77474,34.2630208 148.47526,33.2148438 147.726562,32.3164062 C147.127604,31.5677083 146.304036,31.1184896 145.255859,30.96875 C144.357422,30.6692708 143.458984,30.7441406 142.560547,31.1933594 C142.410807,31.1933594 142.335938,31.1184896 142.335938,30.96875 C142.335938,30.96875 142.261068,30.8938802 142.111328,30.7441406 Z M140.539062,38.15625 C140.688802,38.3059896 140.838542,38.4557292 140.988281,38.6054688 C140.988281,38.6054688 140.988281,38.6803385 140.988281,38.8300781 C140.988281,38.6803385 140.988281,38.6054688 140.988281,38.6054688 C140.838542,38.4557292 140.688802,38.3059896 140.539062,38.15625 Z M140.539062,38.15625 C140.539062,38.15625 140.539062,38.0813802 140.539062,37.9316406 C140.389323,37.9316406 140.314453,37.9316406 140.314453,37.9316406 C140.314453,37.9316406 140.389323,37.9316406 140.539062,37.9316406 C140.539062,38.0813802 140.539062,38.15625 140.539062,38.15625 Z M141.662109,31.6425781 C141.51237,31.7923177 141.36263,32.0169271 141.212891,32.3164062 C141.063151,32.4661458 140.913411,32.6158854 140.763672,32.765625 C140.763672,32.6158854 140.688802,32.5410156 140.539062,32.5410156 C140.539062,32.391276 140.464193,32.3164062 140.314453,32.3164062 C140.464193,32.1666667 140.613932,32.0169271 140.763672,31.8671875 C140.913411,31.5677083 141.138021,31.343099 141.4375,31.1933594 C141.4375,31.1933594 141.51237,31.1184896 141.662109,30.96875 C141.811849,30.96875 141.961589,30.8938802 142.111328,30.7441406 C142.261068,30.8938802 142.335938,30.96875 142.335938,30.96875 C142.335938,31.1184896 142.410807,31.1933594 142.560547,31.1933594 C142.410807,31.343099 142.261068,31.4179688 142.111328,31.4179688 C141.961589,31.5677083 141.811849,31.6425781 141.662109,31.6425781 Z M147.277344,32.765625 C146.828125,32.0169271 146.154297,31.5677083 145.255859,31.4179688 C144.507161,31.2682292 143.758464,31.343099 143.009766,31.6425781 C142.860026,31.6425781 142.785156,31.5677083 142.785156,31.4179688 C142.635417,31.4179688 142.560547,31.343099 142.560547,31.1933594 C143.458984,30.7441406 144.357422,30.6692708 145.255859,30.96875 C146.304036,31.1184896 147.127604,31.5677083 147.726562,32.3164062 C148.47526,33.3645833 148.77474,34.4127604 148.625,35.4609375 C148.625,36.6588542 148.100911,37.6321615 147.052734,38.3808594 C146.154297,39.1295573 145.10612,39.5039062 143.908203,39.5039062 C142.710286,39.3541667 141.736979,38.8300781 140.988281,37.9316406 C140.389323,37.1829427 140.089844,36.2845052 140.089844,35.2363281 C140.089844,34.3378906 140.314453,33.5143229 140.763672,32.765625 C140.913411,32.765625 140.988281,32.8404948 140.988281,32.9902344 C141.138021,32.9902344 141.212891,33.0651042 141.212891,33.2148438 C140.763672,33.8138021 140.613932,34.5625 140.763672,35.4609375 C140.763672,36.2096354 140.988281,36.8834635 141.4375,37.4824219 C142.186198,38.2311198 143.084635,38.6803385 144.132812,38.8300781 C145.03125,38.9798177 145.929688,38.6803385 146.828125,37.9316406 C147.576823,37.3326823 148.026042,36.5091146 148.175781,35.4609375 C148.325521,34.4127604 148.026042,33.5143229 147.277344,32.765625 Z M140.763672,32.765625 C140.913411,32.6158854 141.063151,32.4661458 141.212891,32.3164062 C141.36263,32.0169271 141.51237,31.8671875 141.662109,31.8671875 C141.811849,31.7174479 141.961589,31.5677083 142.111328,31.4179688 C142.261068,31.4179688 142.410807,31.343099 142.560547,31.1933594 C142.560547,31.343099 142.635417,31.4179688 142.785156,31.4179688 C142.785156,31.5677083 142.860026,31.6425781 143.009766,31.6425781 C142.860026,31.7923177 142.710286,31.8671875 142.560547,31.8671875 C142.410807,32.0169271 142.261068,32.0917969 142.111328,32.0917969 C141.961589,32.2415365 141.811849,32.4661458 141.662109,32.765625 C141.51237,32.9153646 141.36263,33.0651042 141.212891,33.2148438 C141.063151,33.0651042 140.988281,32.9902344 140.988281,32.9902344 C140.988281,32.8404948 140.913411,32.765625 140.763672,32.765625 Z M158.058594,33.6640625 C157.908854,33.6640625 157.833984,33.6640625 157.833984,33.6640625 C157.833984,33.6640625 157.833984,33.6640625 157.833984,33.6640625 C157.684245,33.6640625 157.534505,33.6640625 157.384766,33.6640625 C157.384766,33.6640625 157.309896,33.7389323 157.160156,33.8886719 C156.710938,34.3378906 156.261719,34.7871094 155.8125,35.2363281 C155.513021,35.5358073 155.213542,35.8352865 154.914062,36.1347656 C154.764323,36.2845052 154.689453,36.4342448 154.689453,36.5839844 C154.689453,36.5839844 154.689453,36.6588542 154.689453,36.8085938 C154.689453,36.9583333 154.689453,37.1080729 154.689453,37.2578125 C154.689453,37.4075521 154.764323,37.4824219 154.914062,37.4824219 C155.063802,37.6321615 155.138672,37.7070312 155.138672,37.7070312 C155.288411,37.8567708 155.438151,37.9316406 155.587891,37.9316406 C155.73763,37.9316406 155.88737,37.8567708 156.037109,37.7070312 C156.037109,37.7070312 156.111979,37.6321615 156.261719,37.4824219 C156.411458,37.3326823 156.561198,37.2578125 156.710938,37.2578125 C156.860677,37.1080729 156.935547,36.9583333 156.935547,36.8085938 C156.935547,40.1028646 156.935547,42.8730469 156.935547,45.1191406 C156.935547,47.514974 156.935547,49.5364583 156.935547,51.1835938 C156.935547,51.3333333 156.935547,51.4830729 156.935547,51.6328125 C157.085286,51.6328125 157.160156,51.7076823 157.160156,51.8574219 C157.309896,52.0071615 157.459635,52.0820312 157.609375,52.0820312 C157.759115,52.0820312 157.833984,52.0820312 157.833984,52.0820312 C157.983724,52.0820312 158.133464,52.0820312 158.283203,52.0820312 C158.432943,52.0820312 158.507812,52.0071615 158.507812,51.8574219 C158.657552,51.7076823 158.732422,51.6328125 158.732422,51.6328125 C158.882161,51.4830729 158.957031,51.3333333 158.957031,51.1835938 C158.957031,47.4401042 158.957031,44.2207031 158.957031,41.5253906 C158.957031,38.6803385 158.957031,36.359375 158.957031,34.5625 C158.957031,34.4127604 158.957031,34.3378906 158.957031,34.3378906 C158.807292,34.188151 158.732422,34.0384115 158.732422,33.8886719 C158.732422,33.8886719 158.657552,33.8138021 158.507812,33.6640625 C158.507812,33.6640625 158.432943,33.6640625 158.283203,33.6640625 C158.283203,33.6640625 158.208333,33.6640625 158.058594,33.6640625 C158.058594,33.6640625 158.058594,33.6640625 158.058594,33.6640625 Z"/></svg>