<svg xmlns="http://www.w3.org/2000/svg" width="120" height="203" viewBox="0 0 120 203"><path fill="#131313" d="M2912.56844,94.6279297 C2912.56844,73.0608724 2917.03296,55.8209635 2925.96199,42.9082031 C2934.89103,29.9954427 2946.8422,23.5390625 2961.81551,23.5390625 C2976.78882,23.5390625 2988.73999,29.9954427 2997.66902,42.9082031 C3006.73543,55.8209635 3011.26863,73.0608724 3011.26863,94.6279297 C3011.26863,115.920247 3006.73543,133.091471 2997.66902,146.141602 C2988.60262,159.191732 2976.65145,165.716797 2961.81551,165.716797 C2947.11694,165.716797 2935.23445,159.191732 2926.16805,146.141602 C2917.10164,133.091471 2912.56844,115.920247 2912.56844,94.6279297 Z M2927.56844,94.7919922 C2927.56844,111.551107 2930.72794,125.150716 2937.04695,135.59082 C2943.36596,145.893555 2951.67684,151.044922 2961.97957,151.044922 C2972.2823,151.044922 2980.59318,145.893555 2986.91219,135.59082 C2993.2312,125.150716 2996.3907,111.551107 2996.3907,94.7919922 C2996.3907,86.4124349 2995.36043,77.8955078 2993.29988,69.2412109 C2991.23934,60.7242839 2987.80509,53.7184245 2982.99715,48.2236328 C2980.38712,45.2014974 2977.36499,42.8662109 2973.93074,41.2177734 C2970.35913,39.4319661 2966.3754,38.5390625 2961.97957,38.5390625 C2953.73738,38.5390625 2947.14363,41.3551432 2942.19832,46.9873047 C2937.25301,52.6194661 2933.61271,59.4192708 2931.27742,67.3867187 C2930.04109,71.7825521 2929.07951,76.3157552 2928.39266,80.9863281 C2927.84318,85.656901 2927.56844,90.2587891 2927.56844,94.7919922 Z M2999.28719,28.2294922 C2999.01245,28.366862 2998.80639,28.5729167 2998.66902,28.8476563 C2998.53165,28.985026 2998.39428,29.1223958 2998.25691,29.2597656 C2994.82267,25.688151 2991.045,22.8033854 2986.92391,20.6054688 C2982.80281,18.4075521 2978.40698,16.7591146 2973.73641,15.6601562 C2973.73641,15.2480469 2973.80509,14.5611979 2973.94246,13.5996094 C2978.88777,14.6985677 2983.55835,16.4156901 2987.95418,18.7509766 C2992.21264,21.086263 2996.19637,24.1083984 2999.90535,27.8173828 C2999.76798,27.9547526 2999.63061,28.0234375 2999.49324,28.0234375 C2999.35587,28.1608073 2999.28719,28.2294922 2999.28719,28.2294922 Z M2971.88191,13.1875 C2971.88191,13.7369792 2971.81323,14.4238281 2971.67586,15.2480469 C2971.9506,15.3854167 2972.29402,15.4541016 2972.70613,15.4541016 C2972.98087,15.5914714 2973.3243,15.6601563 2973.73641,15.6601563 C2973.59904,16.2096354 2973.53035,16.8964844 2973.53035,17.7207031 C2971.0577,16.7591146 2967.34871,15.3854167 2962.4034,13.5996094 C2965.01342,13.0501302 2968.92846,12.3632812 2974.14852,11.5390625 C2974.01115,12.0885417 2973.94246,12.7753906 2973.94246,13.5996094 C2973.53035,13.5996094 2973.18693,13.5309245 2972.91219,13.3935547 C2972.63745,13.3935547 2972.29402,13.3248698 2971.88191,13.1875 Z M2971.88191,13.1875 C2972.29402,13.3248698 2972.63745,13.3935547 2972.91219,13.3935547 C2973.18693,13.5309245 2973.53035,13.5996094 2973.94246,13.5996094 C2973.80509,14.1490885 2973.73641,14.8359375 2973.73641,15.6601562 C2973.3243,15.6601562 2972.98087,15.5914714 2972.70613,15.4541016 C2972.29402,15.4541016 2971.9506,15.3854167 2971.67586,15.2480469 C2971.67586,14.9733073 2971.67586,14.6298828 2971.67586,14.2177734 C2971.81323,13.9430339 2971.88191,13.5996094 2971.88191,13.1875 Z M2999.90535,27.8173828 C3000.86694,27.4052734 3001.89721,27.2679036 3002.99617,27.4052734 C3003.95776,27.5426432 3004.78198,28.0234375 3005.46883,28.8476562 C3006.29305,29.8092448 3006.63647,30.9082031 3006.4991,32.1445312 C3006.36173,33.3808594 3005.81225,34.4111328 3004.85066,35.2353516 C3003.88908,36.0595703 3002.79012,36.4029948 3001.55379,36.265625 C3000.31746,36.1282552 2999.28719,35.578776 2998.46297,34.6171875 C2997.91349,33.7929688 2997.63875,32.9000651 2997.63875,31.9384766 C2997.50138,30.976888 2997.70743,30.0839844 2998.25691,29.2597656 C2998.39428,29.2597656 2998.46297,29.3284505 2998.46297,29.4658203 C2998.60034,29.4658203 2998.66902,29.5345052 2998.66902,29.671875 C2998.25691,30.358724 2998.05086,31.1142578 2998.05086,31.9384766 C2998.05086,32.7626953 2998.3256,33.5182292 2998.87508,34.2050781 C2999.56193,35.1666667 3000.45483,35.6474609 3001.55379,35.6474609 C3002.65275,35.7848307 3003.61434,35.5100911 3004.43855,34.8232422 C3005.40014,34.1363932 3005.88094,33.2434896 3005.88094,32.1445312 C3006.01831,31.0455729 3005.74357,30.0839844 3005.05672,29.2597656 C3004.50724,28.5729167 3003.75171,28.1608073 3002.79012,28.0234375 C3001.9659,27.7486979 3001.14168,27.8173828 3000.31746,28.2294922 C3000.18009,28.2294922 3000.11141,28.1608073 3000.11141,28.0234375 C3000.11141,28.0234375 3000.04272,27.9547526 2999.90535,27.8173828 Z M2998.46297,34.6171875 C2998.60034,34.7545573 2998.73771,34.8919271 2998.87508,35.0292969 C2998.87508,35.0292969 2998.87508,35.0979818 2998.87508,35.2353516 C2998.87508,35.0979818 2998.87508,35.0292969 2998.87508,35.0292969 C2998.73771,34.8919271 2998.60034,34.7545573 2998.46297,34.6171875 Z M2999.49324,28.6416016 C2999.35587,28.7789714 2999.2185,28.985026 2999.08113,29.2597656 C2998.94376,29.3971354 2998.80639,29.5345052 2998.66902,29.671875 C2998.66902,29.5345052 2998.60034,29.4658203 2998.46297,29.4658203 C2998.46297,29.3284505 2998.39428,29.2597656 2998.25691,29.2597656 C2998.39428,29.1223958 2998.53165,28.985026 2998.66902,28.8476562 C2998.80639,28.5729167 2999.01245,28.366862 2999.28719,28.2294922 C2999.28719,28.2294922 2999.35587,28.1608073 2999.49324,28.0234375 C2999.63061,28.0234375 2999.76798,27.9547526 2999.90535,27.8173828 C3000.04272,27.9547526 3000.11141,28.0234375 3000.11141,28.0234375 C3000.11141,28.1608073 3000.18009,28.2294922 3000.31746,28.2294922 C3000.18009,28.366862 3000.04272,28.4355469 2999.90535,28.4355469 C2999.76798,28.5729167 2999.63061,28.6416016 2999.49324,28.6416016 Z M3004.64461,29.671875 C3004.2325,28.985026 3003.61434,28.5729167 3002.79012,28.4355469 C3002.10327,28.2981771 3001.41642,28.366862 3000.72957,28.6416016 C3000.5922,28.6416016 3000.52352,28.5729167 3000.52352,28.4355469 C3000.38615,28.4355469 3000.31746,28.366862 3000.31746,28.2294922 C3001.14168,27.8173828 3001.9659,27.7486979 3002.79012,28.0234375 C3003.75171,28.1608073 3004.50724,28.5729167 3005.05672,29.2597656 C3005.74357,30.2213542 3006.01831,31.1829427 3005.88094,32.1445312 C3005.88094,33.2434896 3005.40014,34.1363932 3004.43855,34.8232422 C3003.61434,35.5100911 3002.65275,35.8535156 3001.55379,35.8535156 C3000.45483,35.7161458 2999.56193,35.2353516 2998.87508,34.4111328 C2998.3256,33.7242839 2998.05086,32.9000651 2998.05086,31.9384766 C2998.05086,31.1142578 2998.25691,30.358724 2998.66902,29.671875 C2998.80639,29.671875 2998.87508,29.7405599 2998.87508,29.8779297 C2999.01245,29.8779297 2999.08113,29.9466146 2999.08113,30.0839844 C2998.66902,30.6334635 2998.53165,31.3203125 2998.66902,32.1445312 C2998.66902,32.8313802 2998.87508,33.4495443 2999.28719,33.9990234 C2999.97404,34.6858724 3000.79826,35.0979818 3001.75984,35.2353516 C3002.58406,35.3727214 3003.40828,35.0979818 3004.2325,34.4111328 C3004.91935,33.8616536 3005.33146,33.1061198 3005.46883,32.1445312 C3005.6062,31.1829427 3005.33146,30.358724 3004.64461,29.671875 Z M2998.66902,29.671875 C2998.80639,29.5345052 2998.94376,29.3971354 2999.08113,29.2597656 C2999.2185,28.985026 2999.35587,28.8476562 2999.49324,28.8476562 C2999.63061,28.7102865 2999.76798,28.5729167 2999.90535,28.4355469 C3000.04272,28.4355469 3000.18009,28.366862 3000.31746,28.2294922 C3000.31746,28.366862 3000.38615,28.4355469 3000.52352,28.4355469 C3000.52352,28.5729167 3000.5922,28.6416016 3000.72957,28.6416016 C3000.5922,28.7789714 3000.45483,28.8476562 3000.31746,28.8476562 C3000.18009,28.985026 3000.04272,29.0537109 2999.90535,29.0537109 C2999.76798,29.1910807 2999.63061,29.3971354 2999.49324,29.671875 C2999.35587,29.8092448 2999.2185,29.9466146 2999.08113,30.0839844 C2998.94376,29.9466146 2998.87508,29.8779297 2998.87508,29.8779297 C2998.87508,29.7405599 2998.80639,29.671875 2998.66902,29.671875 Z M3014.53523,30.4960938 C3014.39786,30.4960938 3014.32918,30.4960938 3014.32918,30.4960938 C3014.32918,30.4960938 3014.32918,30.4960938 3014.32918,30.4960938 C3014.19181,30.4960938 3014.05444,30.4960938 3013.91707,30.4960938 C3013.91707,30.4960938 3013.84839,30.5647786 3013.71102,30.7021484 C3013.29891,31.1142578 3012.8868,31.5263672 3012.47469,31.9384766 C3012.19995,32.2132161 3011.92521,32.4879557 3011.65047,32.7626953 C3011.5131,32.9000651 3011.44441,33.0374349 3011.44441,33.1748047 C3011.44441,33.1748047 3011.44441,33.2434896 3011.44441,33.3808594 C3011.44441,33.5182292 3011.44441,33.655599 3011.44441,33.7929688 C3011.44441,33.9303385 3011.5131,33.9990234 3011.65047,33.9990234 C3011.78784,34.1363932 3011.85652,34.2050781 3011.85652,34.2050781 C3011.99389,34.3424479 3012.13126,34.4111328 3012.26863,34.4111328 C3012.406,34.4111328 3012.54337,34.3424479 3012.68074,34.2050781 C3012.68074,34.2050781 3012.74943,34.1363932 3012.8868,33.9990234 C3013.02417,33.8616536 3013.16154,33.7929688 3013.29891,33.7929688 C3013.43628,33.655599 3013.50496,33.5182292 3013.50496,33.3808594 C3013.50496,36.4029948 3013.50496,38.9443359 3013.50496,41.0048828 C3013.50496,43.2027995 3013.50496,45.0572917 3013.50496,46.5683594 C3013.50496,46.7057292 3013.50496,46.843099 3013.50496,46.9804688 C3013.64233,46.9804688 3013.71102,47.0491536 3013.71102,47.1865234 C3013.84839,47.3238932 3013.98576,47.3925781 3014.12313,47.3925781 C3014.26049,47.3925781 3014.32918,47.3925781 3014.32918,47.3925781 C3014.46655,47.3925781 3014.60392,47.3925781 3014.74129,47.3925781 C3014.87866,47.3925781 3014.94734,47.3238932 3014.94734,47.1865234 C3015.08471,47.0491536 3015.1534,46.9804688 3015.1534,46.9804688 C3015.29077,46.843099 3015.35945,46.7057292 3015.35945,46.5683594 C3015.35945,43.1341146 3015.35945,40.1806641 3015.35945,37.7080078 C3015.35945,35.0979818 3015.35945,32.96875 3015.35945,31.3203125 C3015.35945,31.1829427 3015.35945,31.1142578 3015.35945,31.1142578 C3015.22208,30.976888 3015.1534,30.8395182 3015.1534,30.7021484 C3015.1534,30.7021484 3015.08471,30.6334635 3014.94734,30.4960938 C3014.94734,30.4960938 3014.87866,30.4960938 3014.74129,30.4960938 C3014.74129,30.4960938 3014.6726,30.4960938 3014.53523,30.4960938 C3014.53523,30.4960938 3014.53523,30.4960938 3014.53523,30.4960938 Z" transform="translate(-2901.5 -23.734)"/></svg>