<svg xmlns="http://www.w3.org/2000/svg" width="120" height="203" viewBox="0 0 120 203"><path fill="#131313" d="M2912.56844,131.893555 C2912.56844,110.326497 2917.03296,93.0865885 2925.96199,80.1738281 C2934.89103,67.2610677 2946.8422,60.8046875 2961.81551,60.8046875 C2976.78882,60.8046875 2988.73999,67.2610677 2997.66902,80.1738281 C3006.73543,93.0865885 3011.26863,110.326497 3011.26863,131.893555 C3011.26863,153.185872 3006.73543,170.357096 2997.66902,183.407227 C2988.60262,196.457357 2976.65145,202.982422 2961.81551,202.982422 C2947.11694,202.982422 2935.23445,196.457357 2926.16805,183.407227 C2917.10164,170.357096 2912.56844,153.185872 2912.56844,131.893555 Z M2927.56844,132.057617 C2927.56844,148.816732 2930.72794,162.416341 2937.04695,172.856445 C2943.36596,183.15918 2951.67684,188.310547 2961.97957,188.310547 C2972.2823,188.310547 2980.59318,183.15918 2986.91219,172.856445 C2993.2312,162.416341 2996.3907,148.816732 2996.3907,132.057617 C2996.3907,123.67806 2995.36043,115.161133 2993.29988,106.506836 C2991.23934,97.9899089 2987.80509,90.9840495 2982.99715,85.4892578 C2980.38712,82.4671224 2977.36499,80.1318359 2973.93074,78.4833984 C2970.35913,76.6975911 2966.3754,75.8046875 2961.97957,75.8046875 C2953.73738,75.8046875 2947.14363,78.6207682 2942.19832,84.2529297 C2937.25301,89.8850911 2933.61271,96.6848958 2931.27742,104.652344 C2930.04109,109.048177 2929.07951,113.58138 2928.39266,118.251953 C2927.84318,122.922526 2927.56844,127.524414 2927.56844,132.057617 Z M2999.28719,65.4951172 C2999.01245,65.632487 2998.80639,65.8385417 2998.66902,66.1132812 C2998.53165,66.250651 2998.39428,66.3880208 2998.25691,66.5253906 C2994.82267,62.953776 2991.045,60.0690104 2986.92391,57.8710938 C2982.80281,55.6731771 2978.40698,54.0247396 2973.73641,52.9257812 C2973.73641,52.5136719 2973.80509,51.8268229 2973.94246,50.8652344 C2978.88777,51.9641927 2983.55835,53.6813151 2987.95418,56.0166016 C2992.21264,58.351888 2996.19637,61.3740234 2999.90535,65.0830078 C2999.76798,65.2203776 2999.63061,65.2890625 2999.49324,65.2890625 C2999.35587,65.4264323 2999.28719,65.4951172 2999.28719,65.4951172 Z M2971.88191,50.453125 C2971.88191,51.0026042 2971.81323,51.6894531 2971.67586,52.5136719 C2971.9506,52.6510417 2972.29402,52.7197266 2972.70613,52.7197266 C2972.98087,52.8570964 2973.3243,52.9257812 2973.73641,52.9257812 C2973.59904,53.4752604 2973.53035,54.1621094 2973.53035,54.9863281 C2971.0577,54.0247396 2967.34871,52.6510417 2962.4034,50.8652344 C2965.01342,50.3157552 2968.92846,49.6289062 2974.14852,48.8046875 C2974.01115,49.3541667 2973.94246,50.0410156 2973.94246,50.8652344 C2973.53035,50.8652344 2973.18693,50.7965495 2972.91219,50.6591797 C2972.63745,50.6591797 2972.29402,50.5904948 2971.88191,50.453125 Z M2971.88191,50.453125 C2972.29402,50.5904948 2972.63745,50.6591797 2972.91219,50.6591797 C2973.18693,50.7965495 2973.53035,50.8652344 2973.94246,50.8652344 C2973.80509,51.4147135 2973.73641,52.1015625 2973.73641,52.9257812 C2973.3243,52.9257812 2972.98087,52.8570964 2972.70613,52.7197266 C2972.29402,52.7197266 2971.9506,52.6510417 2971.67586,52.5136719 C2971.67586,52.2389323 2971.67586,51.8955078 2971.67586,51.4833984 C2971.81323,51.2086589 2971.88191,50.8652344 2971.88191,50.453125 Z M2999.90535,65.0830078 C3000.86694,64.6708984 3001.89721,64.5335286 3002.99617,64.6708984 C3003.95776,64.8082682 3004.78198,65.2890625 3005.46883,66.1132812 C3006.29305,67.0748698 3006.63647,68.1738281 3006.4991,69.4101562 C3006.36173,70.6464844 3005.81225,71.6767578 3004.85066,72.5009766 C3003.88908,73.3251953 3002.79012,73.6686198 3001.55379,73.53125 C3000.31746,73.3938802 2999.28719,72.844401 2998.46297,71.8828125 C2997.91349,71.0585938 2997.63875,70.1656901 2997.63875,69.2041016 C2997.50138,68.242513 2997.70743,67.3496094 2998.25691,66.5253906 C2998.39428,66.5253906 2998.46297,66.5940755 2998.46297,66.7314453 C2998.60034,66.7314453 2998.66902,66.8001302 2998.66902,66.9375 C2998.25691,67.624349 2998.05086,68.3798828 2998.05086,69.2041016 C2998.05086,70.0283203 2998.3256,70.7838542 2998.87508,71.4707031 C2999.56193,72.4322917 3000.45483,72.9130859 3001.55379,72.9130859 C3002.65275,73.0504557 3003.61434,72.7757161 3004.43855,72.0888672 C3005.40014,71.4020182 3005.88094,70.5091146 3005.88094,69.4101562 C3006.01831,68.3111979 3005.74357,67.3496094 3005.05672,66.5253906 C3004.50724,65.8385417 3003.75171,65.4264323 3002.79012,65.2890625 C3001.9659,65.0143229 3001.14168,65.0830078 3000.31746,65.4951172 C3000.18009,65.4951172 3000.11141,65.4264323 3000.11141,65.2890625 C3000.11141,65.2890625 3000.04272,65.2203776 2999.90535,65.0830078 Z M2998.46297,71.8828125 C2998.60034,72.0201823 2998.73771,72.1575521 2998.87508,72.2949219 C2998.87508,72.2949219 2998.87508,72.3636068 2998.87508,72.5009766 C2998.87508,72.3636068 2998.87508,72.2949219 2998.87508,72.2949219 C2998.73771,72.1575521 2998.60034,72.0201823 2998.46297,71.8828125 Z M2999.49324,65.9072266 C2999.35587,66.0445964 2999.2185,66.250651 2999.08113,66.5253906 C2998.94376,66.6627604 2998.80639,66.8001302 2998.66902,66.9375 C2998.66902,66.8001302 2998.60034,66.7314453 2998.46297,66.7314453 C2998.46297,66.5940755 2998.39428,66.5253906 2998.25691,66.5253906 C2998.39428,66.3880208 2998.53165,66.250651 2998.66902,66.1132812 C2998.80639,65.8385417 2999.01245,65.632487 2999.28719,65.4951172 C2999.28719,65.4951172 2999.35587,65.4264323 2999.49324,65.2890625 C2999.63061,65.2890625 2999.76798,65.2203776 2999.90535,65.0830078 C3000.04272,65.2203776 3000.11141,65.2890625 3000.11141,65.2890625 C3000.11141,65.4264323 3000.18009,65.4951172 3000.31746,65.4951172 C3000.18009,65.632487 3000.04272,65.7011719 2999.90535,65.7011719 C2999.76798,65.8385417 2999.63061,65.9072266 2999.49324,65.9072266 Z M3004.64461,66.9375 C3004.2325,66.250651 3003.61434,65.8385417 3002.79012,65.7011719 C3002.10327,65.5638021 3001.41642,65.632487 3000.72957,65.9072266 C3000.5922,65.9072266 3000.52352,65.8385417 3000.52352,65.7011719 C3000.38615,65.7011719 3000.31746,65.632487 3000.31746,65.4951172 C3001.14168,65.0830078 3001.9659,65.0143229 3002.79012,65.2890625 C3003.75171,65.4264323 3004.50724,65.8385417 3005.05672,66.5253906 C3005.74357,67.4869792 3006.01831,68.4485677 3005.88094,69.4101562 C3005.88094,70.5091146 3005.40014,71.4020182 3004.43855,72.0888672 C3003.61434,72.7757161 3002.65275,73.1191406 3001.55379,73.1191406 C3000.45483,72.9817708 2999.56193,72.5009766 2998.87508,71.6767578 C2998.3256,70.9899089 2998.05086,70.1656901 2998.05086,69.2041016 C2998.05086,68.3798828 2998.25691,67.624349 2998.66902,66.9375 C2998.80639,66.9375 2998.87508,67.0061849 2998.87508,67.1435547 C2999.01245,67.1435547 2999.08113,67.2122396 2999.08113,67.3496094 C2998.66902,67.8990885 2998.53165,68.5859375 2998.66902,69.4101562 C2998.66902,70.0970052 2998.87508,70.7151693 2999.28719,71.2646484 C2999.97404,71.9514974 3000.79826,72.3636068 3001.75984,72.5009766 C3002.58406,72.6383464 3003.40828,72.3636068 3004.2325,71.6767578 C3004.91935,71.1272786 3005.33146,70.3717448 3005.46883,69.4101562 C3005.6062,68.4485677 3005.33146,67.624349 3004.64461,66.9375 Z M2998.66902,66.9375 C2998.80639,66.8001302 2998.94376,66.6627604 2999.08113,66.5253906 C2999.2185,66.250651 2999.35587,66.1132812 2999.49324,66.1132812 C2999.63061,65.9759115 2999.76798,65.8385417 2999.90535,65.7011719 C3000.04272,65.7011719 3000.18009,65.632487 3000.31746,65.4951172 C3000.31746,65.632487 3000.38615,65.7011719 3000.52352,65.7011719 C3000.52352,65.8385417 3000.5922,65.9072266 3000.72957,65.9072266 C3000.5922,66.0445964 3000.45483,66.1132812 3000.31746,66.1132812 C3000.18009,66.250651 3000.04272,66.3193359 2999.90535,66.3193359 C2999.76798,66.4567057 2999.63061,66.6627604 2999.49324,66.9375 C2999.35587,67.0748698 2999.2185,67.2122396 2999.08113,67.3496094 C2998.94376,67.2122396 2998.87508,67.1435547 2998.87508,67.1435547 C2998.87508,67.0061849 2998.80639,66.9375 2998.66902,66.9375 Z M3014.53523,67.7617188 C3014.39786,67.7617188 3014.32918,67.7617188 3014.32918,67.7617188 C3014.32918,67.7617188 3014.32918,67.7617188 3014.32918,67.7617188 C3014.19181,67.7617188 3014.05444,67.7617188 3013.91707,67.7617188 C3013.91707,67.7617188 3013.84839,67.8304036 3013.71102,67.9677734 C3013.29891,68.3798828 3012.8868,68.7919922 3012.47469,69.2041016 C3012.19995,69.4788411 3011.92521,69.7535807 3011.65047,70.0283203 C3011.5131,70.1656901 3011.44441,70.3030599 3011.44441,70.4404297 C3011.44441,70.4404297 3011.44441,70.5091146 3011.44441,70.6464844 C3011.44441,70.7838542 3011.44441,70.921224 3011.44441,71.0585938 C3011.44441,71.1959635 3011.5131,71.2646484 3011.65047,71.2646484 C3011.78784,71.4020182 3011.85652,71.4707031 3011.85652,71.4707031 C3011.99389,71.6080729 3012.13126,71.6767578 3012.26863,71.6767578 C3012.406,71.6767578 3012.54337,71.6080729 3012.68074,71.4707031 C3012.68074,71.4707031 3012.74943,71.4020182 3012.8868,71.2646484 C3013.02417,71.1272786 3013.16154,71.0585938 3013.29891,71.0585938 C3013.43628,70.921224 3013.50496,70.7838542 3013.50496,70.6464844 C3013.50496,73.6686198 3013.50496,76.2099609 3013.50496,78.2705078 C3013.50496,80.4684245 3013.50496,82.3229167 3013.50496,83.8339844 C3013.50496,83.9713542 3013.50496,84.108724 3013.50496,84.2460938 C3013.64233,84.2460938 3013.71102,84.3147786 3013.71102,84.4521484 C3013.84839,84.5895182 3013.98576,84.6582031 3014.12313,84.6582031 C3014.26049,84.6582031 3014.32918,84.6582031 3014.32918,84.6582031 C3014.46655,84.6582031 3014.60392,84.6582031 3014.74129,84.6582031 C3014.87866,84.6582031 3014.94734,84.5895182 3014.94734,84.4521484 C3015.08471,84.3147786 3015.1534,84.2460938 3015.1534,84.2460938 C3015.29077,84.108724 3015.35945,83.9713542 3015.35945,83.8339844 C3015.35945,80.3997396 3015.35945,77.4462891 3015.35945,74.9736328 C3015.35945,72.3636068 3015.35945,70.234375 3015.35945,68.5859375 C3015.35945,68.4485677 3015.35945,68.3798828 3015.35945,68.3798828 C3015.22208,68.242513 3015.1534,68.1051432 3015.1534,67.9677734 C3015.1534,67.9677734 3015.08471,67.8990885 3014.94734,67.7617188 C3014.94734,67.7617188 3014.87866,67.7617188 3014.74129,67.7617188 C3014.74129,67.7617188 3014.6726,67.7617188 3014.53523,67.7617188 C3014.53523,67.7617188 3014.53523,67.7617188 3014.53523,67.7617188 Z" transform="translate(-2901.5)"/></svg>