<svg xmlns="http://www.w3.org/2000/svg" width="103" height="203" viewBox="0 0 103 203"><path fill="#131313" d="M3349,110.023438 C3349,96.8463542 3352.74349,86.2148437 3360.23047,78.1289062 C3367.71745,70.0429688 3377.60026,66 3389.87891,66 C3402.00781,66 3411.81576,70.0429688 3419.30273,78.1289062 C3426.78971,86.2148437 3430.5332,96.8463542 3430.5332,110.023438 C3430.5332,122.901042 3426.71484,133.457682 3419.07812,141.693359 C3411.59115,149.779297 3401.85807,153.822266 3389.87891,153.822266 C3377.89974,153.822266 3368.0918,149.779297 3360.45508,141.693359 C3352.81836,133.457682 3349,122.901042 3349,110.023438 Z M3365,109.851563 C3365,116.440104 3366.79687,122.729167 3370.39062,128.71875 C3373.98437,134.558594 3380.34831,137.478516 3389.48242,137.478516 C3398.4668,137.478516 3404.75586,134.558594 3408.34961,128.71875 C3411.94336,122.729167 3413.74023,116.440104 3413.74023,109.851563 C3413.74023,101.166667 3411.64388,94.3535156 3407.45117,89.4121094 C3403.10872,84.4707031 3397.11914,82 3389.48242,82 C3381.69596,82 3375.70638,84.4707031 3371.51367,89.4121094 C3367.17122,94.3535156 3365,101.166667 3365,109.851563 Z M3421.30273,63.8027344 C3421.15299,63.8027344 3421.07812,63.8776042 3421.07812,64.0273438 C3420.92839,64.0273438 3420.85352,64.1022135 3420.85352,64.2519531 C3420.55404,64.4016927 3420.32943,64.6263021 3420.17969,64.9257812 C3420.17969,65.0755208 3420.10482,65.3001302 3419.95508,65.5996094 C3417.70898,64.1022135 3415.31315,62.8294271 3412.76758,61.78125 C3410.22201,60.7330729 3407.52669,59.8346354 3404.68164,59.0859375 C3404.68164,58.6367188 3404.75651,57.8880208 3404.90625,56.8398438 C3407.90104,57.4388021 3410.74609,58.3372396 3413.44141,59.5351562 C3416.28646,60.7330729 3418.9069,62.155599 3421.30273,63.8027344 Z M3402.66016,56.390625 C3402.66016,56.8398438 3402.58529,57.5885417 3402.43555,58.6367188 C3402.73503,58.7864583 3403.10937,58.8613281 3403.55859,58.8613281 C3403.85807,59.0110677 3404.23242,59.0859375 3404.68164,59.0859375 C3404.68164,59.5351562 3404.60677,60.2089844 3404.45703,61.1074219 C3401.76172,60.2089844 3397.71875,58.7115885 3392.32812,56.6152344 C3395.17318,56.1660156 3399.44076,55.4921875 3405.13086,54.59375 C3405.13086,55.0429688 3405.05599,55.7916667 3404.90625,56.8398438 C3404.60677,56.6901042 3404.23242,56.6152344 3403.7832,56.6152344 C3403.48372,56.4654948 3403.10937,56.390625 3402.66016,56.390625 Z M3402.66016,56.390625 C3403.10937,56.390625 3403.48372,56.4654948 3403.7832,56.6152344 C3404.23242,56.6152344 3404.60677,56.6901042 3404.90625,56.8398438 C3404.90625,57.2890625 3404.83138,58.0377604 3404.68164,59.0859375 C3404.23242,59.0859375 3403.85807,59.0110677 3403.55859,58.8613281 C3403.10937,58.8613281 3402.73503,58.7864583 3402.43555,58.6367188 C3402.43555,58.1875 3402.51042,57.813151 3402.66016,57.5136719 C3402.66016,57.0644531 3402.66016,56.6901042 3402.66016,56.390625 Z M3421.30273,63.8027344 C3422.20117,63.0540365 3423.24935,62.6796875 3424.44727,62.6796875 C3425.64518,62.6796875 3426.76823,63.0540365 3427.81641,63.8027344 C3428.71484,64.7011719 3429.23893,65.8242188 3429.38867,67.171875 C3429.38867,68.5195312 3428.93945,69.7174479 3428.04102,70.765625 C3427.14258,71.8138021 3426.01953,72.3378906 3424.67187,72.3378906 C3423.32422,72.4876302 3422.1263,72.1132812 3421.07812,71.2148438 C3420.32943,70.4661458 3419.80534,69.5677083 3419.50586,68.5195312 C3419.35612,67.4713542 3419.50586,66.4980469 3419.95508,65.5996094 C3419.95508,65.749349 3420.02995,65.8242188 3420.17969,65.8242188 C3420.17969,65.8242188 3420.25456,65.8990885 3420.4043,66.0488281 C3420.10482,66.797526 3420.02995,67.6210938 3420.17969,68.5195312 C3420.32943,69.4179688 3420.77865,70.1666667 3421.52734,70.765625 C3422.42578,71.5143229 3423.47396,71.8886719 3424.67187,71.8886719 C3425.86979,71.7389323 3426.8431,71.2148438 3427.5918,70.3164062 C3428.34049,69.5677083 3428.71484,68.594401 3428.71484,67.3964844 C3428.71484,66.1985677 3428.26562,65.1503906 3427.36719,64.2519531 C3426.61849,63.5032552 3425.64518,63.1289062 3424.44727,63.1289062 C3423.39909,63.1289062 3422.50065,63.4283854 3421.75195,64.0273438 C3421.60221,64.0273438 3421.52734,64.0273438 3421.52734,64.0273438 C3421.3776,63.8776042 3421.30273,63.8027344 3421.30273,63.8027344 Z M3421.30273,64.7011719 C3421.00326,64.8509115 3420.77865,65.000651 3420.62891,65.1503906 C3420.62891,65.4498698 3420.55404,65.749349 3420.4043,66.0488281 C3420.25456,65.8990885 3420.17969,65.8242188 3420.17969,65.8242188 C3420.02995,65.8242188 3419.95508,65.749349 3419.95508,65.5996094 C3420.10482,65.4498698 3420.17969,65.2252604 3420.17969,64.9257812 C3420.32943,64.6263021 3420.55404,64.4016927 3420.85352,64.2519531 C3420.85352,64.1022135 3420.92839,64.0273438 3421.07812,64.0273438 C3421.07812,63.8776042 3421.15299,63.8027344 3421.30273,63.8027344 C3421.30273,63.8027344 3421.3776,63.8776042 3421.52734,64.0273438 C3421.52734,64.0273438 3421.60221,64.0273438 3421.75195,64.0273438 C3421.60221,64.1770833 3421.52734,64.2519531 3421.52734,64.2519531 C3421.3776,64.4016927 3421.30273,64.5514323 3421.30273,64.7011719 Z M3426.91797,64.7011719 C3426.31901,64.1022135 3425.57031,63.8027344 3424.67187,63.8027344 C3423.77344,63.8027344 3422.94987,64.0273438 3422.20117,64.4765625 C3422.20117,64.3268229 3422.1263,64.2519531 3421.97656,64.2519531 C3421.97656,64.2519531 3421.90169,64.1770833 3421.75195,64.0273438 C3422.65039,63.4283854 3423.6237,63.1289062 3424.67187,63.1289062 C3425.72005,63.1289062 3426.61849,63.5032552 3427.36719,64.2519531 C3428.26562,65.1503906 3428.71484,66.1985677 3428.71484,67.3964844 C3428.86458,68.594401 3428.49023,69.5677083 3427.5918,70.3164062 C3426.8431,71.2148438 3425.86979,71.7389323 3424.67187,71.8886719 C3423.47396,71.8886719 3422.42578,71.5143229 3421.52734,70.765625 C3420.77865,70.1666667 3420.32943,69.4179688 3420.17969,68.5195312 C3420.02995,67.6210938 3420.10482,66.797526 3420.4043,66.0488281 C3420.55404,66.0488281 3420.62891,66.0488281 3420.62891,66.0488281 C3420.77865,66.1985677 3420.85352,66.2734375 3420.85352,66.2734375 C3420.70378,67.0221354 3420.70378,67.6959635 3420.85352,68.2949219 C3421.00326,69.0436198 3421.3776,69.7174479 3421.97656,70.3164062 C3422.72526,70.9153646 3423.6237,71.2148438 3424.67187,71.2148438 C3425.72005,71.2148438 3426.54362,70.8404948 3427.14258,70.0917969 C3427.89128,69.343099 3428.26562,68.4446615 3428.26562,67.3964844 C3428.11589,66.3483073 3427.66667,65.4498698 3426.91797,64.7011719 C3427.51693,65.1503906 3427.66667,65.2252604 3427.36719,64.9257812 C3426.91797,64.6263021 3426.61849,64.4765625 3426.46875,64.4765625 C3426.61849,64.4765625 3426.69336,64.4765625 3426.69336,64.4765625 C3426.69336,64.6263021 3426.76823,64.7011719 3426.91797,64.7011719 Z M3426.91797,64.7011719 C3427.51693,65.1503906 3427.66667,65.2252604 3427.36719,64.9257812 C3426.91797,64.6263021 3426.61849,64.4765625 3426.46875,64.4765625 C3426.61849,64.4765625 3426.69336,64.4765625 3426.69336,64.4765625 C3426.69336,64.6263021 3426.76823,64.7011719 3426.91797,64.7011719 Z M3420.4043,66.0488281 C3420.55404,65.749349 3420.62891,65.4498698 3420.62891,65.1503906 C3420.77865,65.000651 3420.92839,64.7760417 3421.07812,64.4765625 C3421.22786,64.4765625 3421.3776,64.4016927 3421.52734,64.2519531 C3421.52734,64.2519531 3421.60221,64.1770833 3421.75195,64.0273438 C3421.75195,64.1770833 3421.82682,64.2519531 3421.97656,64.2519531 C3422.1263,64.2519531 3422.20117,64.3268229 3422.20117,64.4765625 C3422.05143,64.4765625 3421.97656,64.5514323 3421.97656,64.7011719 C3421.82682,64.8509115 3421.67708,64.9257812 3421.52734,64.9257812 C3421.3776,65.2252604 3421.22786,65.4498698 3421.07812,65.5996094 C3421.07812,65.749349 3421.00326,65.9739583 3420.85352,66.2734375 C3420.70378,66.2734375 3420.62891,66.1985677 3420.62891,66.0488281 C3420.47917,66.0488281 3420.4043,66.0488281 3420.4043,66.0488281 Z M3438.37305,51 C3438.52279,51 3438.59766,51.0748698 3438.59766,51.2246094 C3438.7474,51.2246094 3438.82227,51.2994792 3438.82227,51.4492188 C3438.82227,51.4492188 3438.82227,51.5240885 3438.82227,51.6738281 C3438.97201,51.8235677 3439.04687,51.8984375 3439.04687,51.8984375 C3439.04687,53.8450521 3439.04687,56.1660156 3439.04687,58.8613281 C3439.04687,61.7063802 3439.04687,64.9257812 3439.04687,68.5195312 C3439.04687,68.6692708 3438.97201,68.8190104 3438.82227,68.96875 C3438.82227,69.1184896 3438.7474,69.1933594 3438.59766,69.1933594 C3438.59766,69.343099 3438.52279,69.4179688 3438.37305,69.4179688 C3438.22331,69.5677083 3438.07357,69.6425781 3437.92383,69.6425781 C3437.77409,69.6425781 3437.69922,69.5677083 3437.69922,69.4179688 C3437.54948,69.4179688 3437.39974,69.343099 3437.25,69.1933594 C3437.25,69.1933594 3437.17513,69.1184896 3437.02539,68.96875 C3437.02539,68.8190104 3437.02539,68.6692708 3437.02539,68.5195312 C3437.02539,67.0221354 3437.02539,65.0755208 3437.02539,62.6796875 C3437.02539,60.2838542 3437.02539,57.5136719 3437.02539,54.3691406 C3436.87565,54.3691406 3436.80078,54.4440104 3436.80078,54.59375 C3436.65104,54.7434896 3436.5013,54.8932292 3436.35156,55.0429688 C3436.20182,55.0429688 3436.12695,55.1178385 3436.12695,55.2675781 C3435.97721,55.2675781 3435.82747,55.2675781 3435.67773,55.2675781 C3435.52799,55.2675781 3435.37826,55.2675781 3435.22852,55.2675781 C3435.22852,55.1178385 3435.15365,55.0429688 3435.00391,55.0429688 C3434.85417,54.8932292 3434.7793,54.7434896 3434.7793,54.59375 C3434.7793,54.4440104 3434.7793,54.3691406 3434.7793,54.3691406 C3434.7793,54.219401 3434.7793,54.0696615 3434.7793,53.9199219 C3434.7793,53.7701823 3434.85417,53.6953125 3435.00391,53.6953125 C3435.30339,53.3958333 3435.60286,53.0214844 3435.90234,52.5722656 C3436.35156,52.2727865 3436.80078,51.8235677 3437.25,51.2246094 C3437.39974,51.2246094 3437.47461,51.1497396 3437.47461,51 C3437.62435,51 3437.77409,51 3437.92383,51 C3437.92383,51 3437.92383,51 3437.92383,51 C3437.92383,51 3437.92383,51 3437.92383,51 C3438.07357,51 3438.14844,51 3438.14844,51 C3438.29818,51 3438.37305,51 3438.37305,51 Z" transform="translate(-3338 -12)"/></svg>