<svg xmlns="http://www.w3.org/2000/svg" width="243" height="243" viewBox="0 0 243 243"><path fill="#131313" d="M81,122.023438 C81,108.846354 84.7434896,98.2148438 92.2304688,90.1289062 C99.7174479,82.0429688 109.60026,78 121.878906,78 C134.007812,78 143.815755,82.0429688 151.302734,90.1289062 C158.789714,98.2148438 162.533203,108.846354 162.533203,122.023438 C162.533203,134.901042 158.714844,145.457682 151.078125,153.693359 C143.591146,161.779297 133.858073,165.822266 121.878906,165.822266 C109.89974,165.822266 100.091797,161.779297 92.4550781,153.693359 C84.8183594,145.457682 81,134.901042 81,122.023438 Z M97,121.851562 C97,128.440104 98.796875,134.729167 102.390625,140.71875 C105.984375,146.558594 112.348307,149.478516 121.482422,149.478516 C130.466797,149.478516 136.755859,146.558594 140.349609,140.71875 C143.943359,134.729167 145.740234,128.440104 145.740234,121.851562 C145.740234,113.166667 143.64388,106.353516 139.451172,101.412109 C135.108724,96.4707031 129.119141,94 121.482422,94 C113.695964,94 107.70638,96.4707031 103.513672,101.412109 C99.171224,106.353516 97,113.166667 97,121.851562 Z M153.302734,75.8027344 C153.152995,75.8027344 153.078125,75.8776042 153.078125,76.0273438 C152.928385,76.0273438 152.853516,76.1022135 152.853516,76.2519531 C152.554036,76.4016927 152.329427,76.6263021 152.179688,76.9257812 C152.179688,77.0755208 152.104818,77.3001302 151.955078,77.5996094 C149.708984,76.1022135 147.313151,74.8294271 144.767578,73.78125 C142.222005,72.7330729 139.526693,71.8346354 136.681641,71.0859375 C136.681641,70.6367188 136.75651,69.8880208 136.90625,68.8398438 C139.901042,69.4388021 142.746094,70.3372396 145.441406,71.5351562 C148.286458,72.7330729 150.906901,74.155599 153.302734,75.8027344 Z M134.660156,68.390625 C134.660156,68.8398438 134.585286,69.5885417 134.435547,70.6367188 C134.735026,70.7864583 135.109375,70.8613281 135.558594,70.8613281 C135.858073,71.0110677 136.232422,71.0859375 136.681641,71.0859375 C136.681641,71.5351562 136.606771,72.2089844 136.457031,73.1074219 C133.761719,72.2089844 129.71875,70.7115885 124.328125,68.6152344 C127.173177,68.1660156 131.440755,67.4921875 137.130859,66.59375 C137.130859,67.0429688 137.05599,67.7916667 136.90625,68.8398438 C136.606771,68.6901042 136.232422,68.6152344 135.783203,68.6152344 C135.483724,68.4654948 135.109375,68.390625 134.660156,68.390625 Z M134.660156,68.390625 C135.109375,68.390625 135.483724,68.4654948 135.783203,68.6152344 C136.232422,68.6152344 136.606771,68.6901042 136.90625,68.8398438 C136.90625,69.2890625 136.83138,70.0377604 136.681641,71.0859375 C136.232422,71.0859375 135.858073,71.0110677 135.558594,70.8613281 C135.109375,70.8613281 134.735026,70.7864583 134.435547,70.6367188 C134.435547,70.1875 134.510417,69.813151 134.660156,69.5136719 C134.660156,69.0644531 134.660156,68.6901042 134.660156,68.390625 Z M153.302734,75.8027344 C154.201172,75.0540365 155.249349,74.6796875 156.447266,74.6796875 C157.645182,74.6796875 158.768229,75.0540365 159.816406,75.8027344 C160.714844,76.7011719 161.238932,77.8242188 161.388672,79.171875 C161.388672,80.5195313 160.939453,81.7174479 160.041016,82.765625 C159.142578,83.8138021 158.019531,84.3378906 156.671875,84.3378906 C155.324219,84.4876302 154.126302,84.1132813 153.078125,83.2148438 C152.329427,82.4661458 151.805339,81.5677083 151.505859,80.5195313 C151.35612,79.4713542 151.505859,78.4980469 151.955078,77.5996094 C151.955078,77.749349 152.029948,77.8242188 152.179688,77.8242188 C152.179688,77.8242188 152.254557,77.8990885 152.404297,78.0488281 C152.104818,78.797526 152.029948,79.6210938 152.179688,80.5195313 C152.329427,81.4179688 152.778646,82.1666667 153.527344,82.765625 C154.425781,83.5143229 155.473958,83.8886719 156.671875,83.8886719 C157.869792,83.7389323 158.843099,83.2148438 159.591797,82.3164063 C160.340495,81.5677083 160.714844,80.594401 160.714844,79.3964844 C160.714844,78.1985677 160.265625,77.1503906 159.367188,76.2519531 C158.61849,75.5032552 157.645182,75.1289063 156.447266,75.1289063 C155.399089,75.1289063 154.500651,75.4283854 153.751953,76.0273438 C153.602214,76.0273438 153.527344,76.0273438 153.527344,76.0273438 C153.377604,75.8776042 153.302734,75.8027344 153.302734,75.8027344 Z M153.302734,76.7011719 C153.003255,76.8509115 152.778646,77.000651 152.628906,77.1503906 C152.628906,77.4498698 152.554036,77.749349 152.404297,78.0488281 C152.254557,77.8990885 152.179688,77.8242188 152.179688,77.8242188 C152.029948,77.8242188 151.955078,77.749349 151.955078,77.5996094 C152.104818,77.4498698 152.179688,77.2252604 152.179688,76.9257812 C152.329427,76.6263021 152.554036,76.4016927 152.853516,76.2519531 C152.853516,76.1022135 152.928385,76.0273438 153.078125,76.0273438 C153.078125,75.8776042 153.152995,75.8027344 153.302734,75.8027344 C153.302734,75.8027344 153.377604,75.8776042 153.527344,76.0273438 C153.527344,76.0273438 153.602214,76.0273438 153.751953,76.0273438 C153.602214,76.1770833 153.527344,76.2519531 153.527344,76.2519531 C153.377604,76.4016927 153.302734,76.5514323 153.302734,76.7011719 Z M158.917969,76.7011719 C158.31901,76.1022135 157.570312,75.8027344 156.671875,75.8027344 C155.773437,75.8027344 154.94987,76.0273438 154.201172,76.4765625 C154.201172,76.3268229 154.126302,76.2519531 153.976562,76.2519531 C153.976562,76.2519531 153.901693,76.1770833 153.751953,76.0273438 C154.650391,75.4283854 155.623698,75.1289062 156.671875,75.1289062 C157.720052,75.1289062 158.61849,75.5032552 159.367187,76.2519531 C160.265625,77.1503906 160.714844,78.1985677 160.714844,79.3964844 C160.864583,80.594401 160.490234,81.5677083 159.591797,82.3164062 C158.843099,83.2148438 157.869792,83.7389323 156.671875,83.8886719 C155.473958,83.8886719 154.425781,83.5143229 153.527344,82.765625 C152.778646,82.1666667 152.329427,81.4179688 152.179687,80.5195312 C152.029948,79.6210938 152.104818,78.797526 152.404297,78.0488281 C152.554036,78.0488281 152.628906,78.0488281 152.628906,78.0488281 C152.778646,78.1985677 152.853516,78.2734375 152.853516,78.2734375 C152.703776,79.0221354 152.703776,79.6959635 152.853516,80.2949219 C153.003255,81.0436198 153.377604,81.7174479 153.976562,82.3164062 C154.72526,82.9153646 155.623698,83.2148438 156.671875,83.2148438 C157.720052,83.2148438 158.54362,82.8404948 159.142578,82.0917969 C159.891276,81.343099 160.265625,80.4446615 160.265625,79.3964844 C160.115885,78.3483073 159.666667,77.4498698 158.917969,76.7011719 C159.516927,77.1503906 159.666667,77.2252604 159.367187,76.9257812 C158.917969,76.6263021 158.61849,76.4765625 158.46875,76.4765625 C158.61849,76.4765625 158.693359,76.4765625 158.693359,76.4765625 C158.693359,76.6263021 158.768229,76.7011719 158.917969,76.7011719 Z M158.917969,76.7011719 C159.516927,77.1503906 159.666667,77.2252604 159.367188,76.9257812 C158.917969,76.6263021 158.61849,76.4765625 158.46875,76.4765625 C158.61849,76.4765625 158.693359,76.4765625 158.693359,76.4765625 C158.693359,76.6263021 158.768229,76.7011719 158.917969,76.7011719 Z M152.404297,78.0488281 C152.554036,77.749349 152.628906,77.4498698 152.628906,77.1503906 C152.778646,77.000651 152.928385,76.7760417 153.078125,76.4765625 C153.227865,76.4765625 153.377604,76.4016927 153.527344,76.2519531 C153.527344,76.2519531 153.602214,76.1770833 153.751953,76.0273438 C153.751953,76.1770833 153.826823,76.2519531 153.976562,76.2519531 C154.126302,76.2519531 154.201172,76.3268229 154.201172,76.4765625 C154.051432,76.4765625 153.976562,76.5514323 153.976562,76.7011719 C153.826823,76.8509115 153.677083,76.9257812 153.527344,76.9257812 C153.377604,77.2252604 153.227865,77.4498698 153.078125,77.5996094 C153.078125,77.749349 153.003255,77.9739583 152.853516,78.2734375 C152.703776,78.2734375 152.628906,78.1985677 152.628906,78.0488281 C152.479167,78.0488281 152.404297,78.0488281 152.404297,78.0488281 Z M170.373047,63 C170.522786,63 170.597656,63.0748698 170.597656,63.2246094 C170.747396,63.2246094 170.822266,63.2994792 170.822266,63.4492188 C170.822266,63.4492188 170.822266,63.5240885 170.822266,63.6738281 C170.972005,63.8235677 171.046875,63.8984375 171.046875,63.8984375 C171.046875,65.8450521 171.046875,68.1660156 171.046875,70.8613281 C171.046875,73.7063802 171.046875,76.9257812 171.046875,80.5195312 C171.046875,80.6692708 170.972005,80.8190104 170.822266,80.96875 C170.822266,81.1184896 170.747396,81.1933594 170.597656,81.1933594 C170.597656,81.343099 170.522786,81.4179688 170.373047,81.4179688 C170.223307,81.5677083 170.073568,81.6425781 169.923828,81.6425781 C169.774089,81.6425781 169.699219,81.5677083 169.699219,81.4179688 C169.549479,81.4179688 169.39974,81.343099 169.25,81.1933594 C169.25,81.1933594 169.17513,81.1184896 169.025391,80.96875 C169.025391,80.8190104 169.025391,80.6692708 169.025391,80.5195312 C169.025391,79.0221354 169.025391,77.0755208 169.025391,74.6796875 C169.025391,72.2838542 169.025391,69.5136719 169.025391,66.3691406 C168.875651,66.3691406 168.800781,66.4440104 168.800781,66.59375 C168.651042,66.7434896 168.501302,66.8932292 168.351562,67.0429688 C168.201823,67.0429688 168.126953,67.1178385 168.126953,67.2675781 C167.977214,67.2675781 167.827474,67.2675781 167.677734,67.2675781 C167.527995,67.2675781 167.378255,67.2675781 167.228516,67.2675781 C167.228516,67.1178385 167.153646,67.0429688 167.003906,67.0429688 C166.854167,66.8932292 166.779297,66.7434896 166.779297,66.59375 C166.779297,66.4440104 166.779297,66.3691406 166.779297,66.3691406 C166.779297,66.219401 166.779297,66.0696615 166.779297,65.9199219 C166.779297,65.7701823 166.854167,65.6953125 167.003906,65.6953125 C167.303385,65.3958333 167.602865,65.0214844 167.902344,64.5722656 C168.351562,64.2727865 168.800781,63.8235677 169.25,63.2246094 C169.39974,63.2246094 169.474609,63.1497396 169.474609,63 C169.624349,63 169.774089,63 169.923828,63 C169.923828,63 169.923828,63 169.923828,63 C169.923828,63 169.923828,63 169.923828,63 C170.073568,63 170.148438,63 170.148438,63 C170.298177,63 170.373047,63 170.373047,63 Z"/></svg>