<svg xmlns="http://www.w3.org/2000/svg" width="103" height="243" viewBox="0 0 103 243"><path fill="#131313" d="M11,122.023438 C11,108.846354 14.7434896,98.2148438 22.2304688,90.1289062 C29.7174479,82.0429688 39.6002604,78 51.8789062,78 C64.0078125,78 73.8157552,82.0429688 81.3027344,90.1289062 C88.7897135,98.2148438 92.5332031,108.846354 92.5332031,122.023438 C92.5332031,134.901042 88.7148438,145.457682 81.078125,153.693359 C73.5911458,161.779297 63.8580729,165.822266 51.8789062,165.822266 C39.8997396,165.822266 30.0917969,161.779297 22.4550781,153.693359 C14.8183594,145.457682 11,134.901042 11,122.023438 Z M27,121.851562 C27,128.440104 28.796875,134.729167 32.390625,140.71875 C35.984375,146.558594 42.3483073,149.478516 51.4824219,149.478516 C60.4667969,149.478516 66.7558594,146.558594 70.3496094,140.71875 C73.9433594,134.729167 75.7402344,128.440104 75.7402344,121.851562 C75.7402344,113.166667 73.6438802,106.353516 69.4511719,101.412109 C65.108724,96.4707031 59.1191406,94 51.4824219,94 C43.6959635,94 37.7063802,96.4707031 33.5136719,101.412109 C29.171224,106.353516 27,113.166667 27,121.851562 Z M83.3027344,75.8027344 C83.1529948,75.8027344 83.078125,75.8776042 83.078125,76.0273438 C82.9283854,76.0273438 82.8535156,76.1022135 82.8535156,76.2519531 C82.5540365,76.4016927 82.3294271,76.6263021 82.1796875,76.9257812 C82.1796875,77.0755208 82.1048177,77.3001302 81.9550781,77.5996094 C79.7089844,76.1022135 77.313151,74.8294271 74.7675781,73.78125 C72.2220052,72.7330729 69.5266927,71.8346354 66.6816406,71.0859375 C66.6816406,70.6367188 66.7565104,69.8880208 66.90625,68.8398438 C69.9010417,69.4388021 72.7460938,70.3372396 75.4414062,71.5351562 C78.2864583,72.7330729 80.906901,74.155599 83.3027344,75.8027344 Z M64.6601562,68.390625 C64.6601562,68.8398438 64.5852865,69.5885417 64.4355469,70.6367188 C64.735026,70.7864583 65.109375,70.8613281 65.5585938,70.8613281 C65.8580729,71.0110677 66.2324219,71.0859375 66.6816406,71.0859375 C66.6816406,71.5351562 66.6067708,72.2089844 66.4570312,73.1074219 C63.7617188,72.2089844 59.71875,70.7115885 54.328125,68.6152344 C57.1731771,68.1660156 61.4407552,67.4921875 67.1308594,66.59375 C67.1308594,67.0429688 67.0559896,67.7916667 66.90625,68.8398438 C66.6067708,68.6901042 66.2324219,68.6152344 65.7832031,68.6152344 C65.483724,68.4654948 65.109375,68.390625 64.6601562,68.390625 Z M64.6601562,68.390625 C65.109375,68.390625 65.483724,68.4654948 65.7832031,68.6152344 C66.2324219,68.6152344 66.6067708,68.6901042 66.90625,68.8398438 C66.90625,69.2890625 66.8313802,70.0377604 66.6816406,71.0859375 C66.2324219,71.0859375 65.8580729,71.0110677 65.5585938,70.8613281 C65.109375,70.8613281 64.735026,70.7864583 64.4355469,70.6367188 C64.4355469,70.1875 64.5104167,69.813151 64.6601562,69.5136719 C64.6601562,69.0644531 64.6601562,68.6901042 64.6601562,68.390625 Z M83.3027344,75.8027344 C84.2011719,75.0540365 85.249349,74.6796875 86.4472656,74.6796875 C87.6451823,74.6796875 88.7682292,75.0540365 89.8164062,75.8027344 C90.7148438,76.7011719 91.2389323,77.8242188 91.3886719,79.171875 C91.3886719,80.5195313 90.9394531,81.7174479 90.0410156,82.765625 C89.1425781,83.8138021 88.0195312,84.3378906 86.671875,84.3378906 C85.3242188,84.4876302 84.1263021,84.1132813 83.078125,83.2148438 C82.3294271,82.4661458 81.8053385,81.5677083 81.5058594,80.5195313 C81.3561198,79.4713542 81.5058594,78.4980469 81.9550781,77.5996094 C81.9550781,77.749349 82.0299479,77.8242188 82.1796875,77.8242188 C82.1796875,77.8242188 82.2545573,77.8990885 82.4042969,78.0488281 C82.1048177,78.797526 82.0299479,79.6210938 82.1796875,80.5195313 C82.3294271,81.4179688 82.7786458,82.1666667 83.5273438,82.765625 C84.4257812,83.5143229 85.4739583,83.8886719 86.671875,83.8886719 C87.8697917,83.7389323 88.843099,83.2148438 89.5917969,82.3164063 C90.3404948,81.5677083 90.7148438,80.594401 90.7148438,79.3964844 C90.7148438,78.1985677 90.265625,77.1503906 89.3671875,76.2519531 C88.6184896,75.5032552 87.6451823,75.1289063 86.4472656,75.1289063 C85.3990885,75.1289063 84.500651,75.4283854 83.7519531,76.0273438 C83.6022135,76.0273438 83.5273438,76.0273438 83.5273438,76.0273438 C83.3776042,75.8776042 83.3027344,75.8027344 83.3027344,75.8027344 Z M83.3027344,76.7011719 C83.0032552,76.8509115 82.7786458,77.000651 82.6289062,77.1503906 C82.6289062,77.4498698 82.5540365,77.749349 82.4042969,78.0488281 C82.2545573,77.8990885 82.1796875,77.8242188 82.1796875,77.8242188 C82.0299479,77.8242188 81.9550781,77.749349 81.9550781,77.5996094 C82.1048177,77.4498698 82.1796875,77.2252604 82.1796875,76.9257812 C82.3294271,76.6263021 82.5540365,76.4016927 82.8535156,76.2519531 C82.8535156,76.1022135 82.9283854,76.0273438 83.078125,76.0273438 C83.078125,75.8776042 83.1529948,75.8027344 83.3027344,75.8027344 C83.3027344,75.8027344 83.3776042,75.8776042 83.5273438,76.0273438 C83.5273438,76.0273438 83.6022135,76.0273438 83.7519531,76.0273438 C83.6022135,76.1770833 83.5273438,76.2519531 83.5273438,76.2519531 C83.3776042,76.4016927 83.3027344,76.5514323 83.3027344,76.7011719 Z M88.9179687,76.7011719 C88.3190104,76.1022135 87.5703125,75.8027344 86.671875,75.8027344 C85.7734375,75.8027344 84.9498698,76.0273438 84.2011719,76.4765625 C84.2011719,76.3268229 84.1263021,76.2519531 83.9765625,76.2519531 C83.9765625,76.2519531 83.9016927,76.1770833 83.7519531,76.0273438 C84.6503906,75.4283854 85.6236979,75.1289062 86.671875,75.1289062 C87.7200521,75.1289062 88.6184896,75.5032552 89.3671875,76.2519531 C90.265625,77.1503906 90.7148437,78.1985677 90.7148437,79.3964844 C90.8645833,80.594401 90.4902344,81.5677083 89.5917969,82.3164062 C88.843099,83.2148438 87.8697917,83.7389323 86.671875,83.8886719 C85.4739583,83.8886719 84.4257812,83.5143229 83.5273437,82.765625 C82.7786458,82.1666667 82.3294271,81.4179688 82.1796875,80.5195312 C82.0299479,79.6210938 82.1048177,78.797526 82.4042969,78.0488281 C82.5540365,78.0488281 82.6289062,78.0488281 82.6289062,78.0488281 C82.7786458,78.1985677 82.8535156,78.2734375 82.8535156,78.2734375 C82.703776,79.0221354 82.703776,79.6959635 82.8535156,80.2949219 C83.0032552,81.0436198 83.3776042,81.7174479 83.9765625,82.3164062 C84.7252604,82.9153646 85.6236979,83.2148438 86.671875,83.2148438 C87.7200521,83.2148438 88.5436198,82.8404948 89.1425781,82.0917969 C89.891276,81.343099 90.265625,80.4446615 90.265625,79.3964844 C90.1158854,78.3483073 89.6666667,77.4498698 88.9179687,76.7011719 C89.5169271,77.1503906 89.6666667,77.2252604 89.3671875,76.9257812 C88.9179687,76.6263021 88.6184896,76.4765625 88.46875,76.4765625 C88.6184896,76.4765625 88.6933594,76.4765625 88.6933594,76.4765625 C88.6933594,76.6263021 88.7682292,76.7011719 88.9179687,76.7011719 Z M88.9179688,76.7011719 C89.5169271,77.1503906 89.6666667,77.2252604 89.3671875,76.9257812 C88.9179688,76.6263021 88.6184896,76.4765625 88.46875,76.4765625 C88.6184896,76.4765625 88.6933594,76.4765625 88.6933594,76.4765625 C88.6933594,76.6263021 88.7682292,76.7011719 88.9179688,76.7011719 Z M82.4042969,78.0488281 C82.5540365,77.749349 82.6289062,77.4498698 82.6289062,77.1503906 C82.7786458,77.000651 82.9283854,76.7760417 83.078125,76.4765625 C83.2278646,76.4765625 83.3776042,76.4016927 83.5273438,76.2519531 C83.5273438,76.2519531 83.6022135,76.1770833 83.7519531,76.0273438 C83.7519531,76.1770833 83.8268229,76.2519531 83.9765625,76.2519531 C84.1263021,76.2519531 84.2011719,76.3268229 84.2011719,76.4765625 C84.0514323,76.4765625 83.9765625,76.5514323 83.9765625,76.7011719 C83.8268229,76.8509115 83.6770833,76.9257812 83.5273438,76.9257812 C83.3776042,77.2252604 83.2278646,77.4498698 83.078125,77.5996094 C83.078125,77.749349 83.0032552,77.9739583 82.8535156,78.2734375 C82.703776,78.2734375 82.6289062,78.1985677 82.6289062,78.0488281 C82.4791667,78.0488281 82.4042969,78.0488281 82.4042969,78.0488281 Z M100.373047,63 C100.522786,63 100.597656,63.0748698 100.597656,63.2246094 C100.747396,63.2246094 100.822266,63.2994792 100.822266,63.4492188 C100.822266,63.4492188 100.822266,63.5240885 100.822266,63.6738281 C100.972005,63.8235677 101.046875,63.8984375 101.046875,63.8984375 C101.046875,65.8450521 101.046875,68.1660156 101.046875,70.8613281 C101.046875,73.7063802 101.046875,76.9257812 101.046875,80.5195312 C101.046875,80.6692708 100.972005,80.8190104 100.822266,80.96875 C100.822266,81.1184896 100.747396,81.1933594 100.597656,81.1933594 C100.597656,81.343099 100.522786,81.4179688 100.373047,81.4179688 C100.223307,81.5677083 100.073568,81.6425781 99.9238281,81.6425781 C99.7740885,81.6425781 99.6992188,81.5677083 99.6992188,81.4179688 C99.5494792,81.4179688 99.3997396,81.343099 99.25,81.1933594 C99.25,81.1933594 99.1751302,81.1184896 99.0253906,80.96875 C99.0253906,80.8190104 99.0253906,80.6692708 99.0253906,80.5195312 C99.0253906,79.0221354 99.0253906,77.0755208 99.0253906,74.6796875 C99.0253906,72.2838542 99.0253906,69.5136719 99.0253906,66.3691406 C98.875651,66.3691406 98.8007812,66.4440104 98.8007812,66.59375 C98.6510417,66.7434896 98.5013021,66.8932292 98.3515625,67.0429688 C98.2018229,67.0429688 98.1269531,67.1178385 98.1269531,67.2675781 C97.9772135,67.2675781 97.827474,67.2675781 97.6777344,67.2675781 C97.5279948,67.2675781 97.3782552,67.2675781 97.2285156,67.2675781 C97.2285156,67.1178385 97.1536458,67.0429688 97.0039062,67.0429688 C96.8541667,66.8932292 96.7792969,66.7434896 96.7792969,66.59375 C96.7792969,66.4440104 96.7792969,66.3691406 96.7792969,66.3691406 C96.7792969,66.219401 96.7792969,66.0696615 96.7792969,65.9199219 C96.7792969,65.7701823 96.8541667,65.6953125 97.0039062,65.6953125 C97.3033854,65.3958333 97.6028646,65.0214844 97.9023438,64.5722656 C98.3515625,64.2727865 98.8007812,63.8235677 99.25,63.2246094 C99.3997396,63.2246094 99.4746094,63.1497396 99.4746094,63 C99.624349,63 99.7740885,63 99.9238281,63 C99.9238281,63 99.9238281,63 99.9238281,63 C99.9238281,63 99.9238281,63 99.9238281,63 C100.073568,63 100.148438,63 100.148438,63 C100.298177,63 100.373047,63 100.373047,63 Z"/></svg>