<svg xmlns="http://www.w3.org/2000/svg" width="120" height="203" viewBox="0 0 120 203"><path fill="#131313" d="M3210.73125,44.1337891 C3213.06654,47.7054036 3214.92103,52.4446615 3216.29473,58.3515625 C3217.53105,64.2584635 3216.50078,71.3330078 3213.20391,79.5751953 C3211.69284,83.4215495 3209.42624,86.6497396 3206.4041,89.2597656 C3203.51934,92.0071615 3200.22246,94.3424479 3196.51348,96.265625 C3189.50762,99.6998698 3181.74622,101.897786 3173.2293,102.859375 C3164.84974,103.958333 3157.43177,104.507813 3150.97539,104.507813 C3149.87643,104.507813 3148.77747,104.507813 3147.67852,104.507813 C3146.71693,104.507813 3145.75534,104.439128 3144.79375,104.301758 C3144.79375,116.390299 3144.79375,134.454427 3144.79375,158.494141 C3144.79375,160.554687 3144.03822,162.340495 3142.52715,163.851563 C3141.15345,165.22526 3139.43633,165.912109 3137.37578,165.912109 C3135.31523,165.912109 3133.52943,165.22526 3132.01836,163.851563 C3130.50729,162.340495 3129.75176,160.554687 3129.75176,158.494141 C3129.75176,130.195964 3129.75176,87.7486979 3129.75176,31.1523438 C3129.75176,31.1523438 3129.75176,31.1523438 3129.75176,31.1523438 C3129.75176,31.1523438 3129.75176,31.1523438 3129.75176,31.1523438 C3129.75176,29.641276 3130.23255,28.2675781 3131.19414,27.03125 C3132.01836,25.7949219 3133.11732,24.8333333 3134.49102,24.1464844 C3134.90312,24.0091146 3135.31523,23.8717448 3135.72734,23.734375 C3136.27682,23.734375 3136.8263,23.734375 3137.37578,23.734375 C3143.55742,23.734375 3152.82988,23.734375 3165.19316,23.734375 C3174.94642,23.734375 3183.94414,25.5201823 3192.18633,29.0917969 C3200.29115,32.8007812 3206.47279,37.8147786 3210.73125,44.1337891 Z M3198.74297,74.265625 C3200.52878,70.1445313 3201.35299,66.2294922 3201.21562,62.5205078 C3200.94089,58.9488932 3199.84193,55.7207031 3197.91875,52.8359375 C3195.03398,48.577474 3190.56947,45.2119141 3184.5252,42.7392578 C3178.48092,40.1292318 3171.88717,38.8242188 3164.74395,38.8242188 C3160.21074,38.8242188 3153.41094,38.8242188 3144.34453,38.8242188 C3144.34453,50.0885417 3144.34453,66.985026 3144.34453,89.5136719 C3147.09193,89.6510417 3150.45749,89.7197266 3154.44121,89.7197266 C3158.42493,89.5823568 3162.54603,89.2389323 3166.80449,88.6894531 C3175.59616,87.7278646 3182.73939,86.0107422 3188.23418,83.5380859 C3193.72897,81.0654297 3197.2319,77.9746094 3198.74297,74.265625 Z M3164.12578,12.6552734 C3173.19219,12.6552734 3181.70911,14.0976562 3189.67656,16.9824219 C3197.78138,19.7298177 3204.71855,23.7135417 3210.48809,28.9335938 C3210.07598,29.2083333 3209.5265,29.6891276 3208.83965,30.3759766 C3203.34486,25.4306641 3196.68242,21.5843099 3188.85234,18.8369141 C3181.15964,16.0895182 3172.91745,14.7158203 3164.12578,14.7158203 C3159.86732,14.7158203 3153.54831,14.7158203 3145.16875,14.7158203 C3145.16875,14.5784505 3145.16875,14.4410807 3145.16875,14.3037109 C3145.30612,14.0289714 3145.3748,13.8229167 3145.3748,13.6855469 C3145.3748,13.5481771 3145.30612,13.4108073 3145.16875,13.2734375 C3145.16875,12.9986979 3145.16875,12.7926432 3145.16875,12.6552734 C3148.32826,12.6552734 3151.48776,12.6552734 3154.64727,12.6552734 C3157.80677,12.6552734 3160.96628,12.6552734 3164.12578,12.6552734 Z M3140.8416,17.6005859 C3141.66582,17.6005859 3142.42135,17.3258464 3143.1082,16.7763672 C3143.79505,16.226888 3144.27585,15.5400391 3144.55059,14.7158203 C3144.68796,14.7158203 3144.89401,14.7158203 3145.16875,14.7158203 C3144.89401,15.6774089 3144.34453,16.5016276 3143.52031,17.1884766 C3142.69609,17.8753255 3141.80319,18.21875 3140.8416,18.21875 C3139.60527,18.21875 3138.50632,17.8066406 3137.54473,16.9824219 C3136.72051,16.0208333 3136.3084,14.921875 3136.3084,13.6855469 C3136.3084,12.4492188 3136.72051,11.4189453 3137.54473,10.5947266 C3138.50632,9.63313802 3139.60527,9.15234375 3140.8416,9.15234375 C3141.80319,9.15234375 3142.69609,9.49576823 3143.52031,10.1826172 C3144.34453,10.8694661 3144.89401,11.6936849 3145.16875,12.6552734 C3145.03138,12.6552734 3144.82533,12.6552734 3144.55059,12.6552734 C3144.27585,11.8310547 3143.79505,11.1442057 3143.1082,10.5947266 C3142.42135,10.0452474 3141.66582,9.77050781 3140.8416,9.77050781 C3139.74264,9.77050781 3138.78105,10.1826172 3137.95684,11.0068359 C3137.13262,11.6936849 3136.72051,12.5865885 3136.72051,13.6855469 C3136.72051,14.7845052 3137.13262,15.7460937 3137.95684,16.5703125 C3138.78105,17.2571615 3139.74264,17.6005859 3140.8416,17.6005859 Z M3145.16875,12.6552734 C3145.16875,12.7926432 3145.16875,12.9986979 3145.16875,13.2734375 C3145.16875,13.4108073 3145.16875,13.5481771 3145.16875,13.6855469 C3145.16875,13.8229167 3145.16875,14.0289714 3145.16875,14.3037109 C3145.16875,14.4410807 3145.16875,14.5784505 3145.16875,14.7158203 C3145.03138,14.7158203 3144.82533,14.7158203 3144.55059,14.7158203 C3144.55059,14.5784505 3144.61927,14.4410807 3144.75664,14.3037109 C3144.75664,14.0289714 3144.75664,13.8229167 3144.75664,13.6855469 C3144.75664,13.5481771 3144.75664,13.4108073 3144.75664,13.2734375 C3144.61927,12.9986979 3144.55059,12.7926432 3144.55059,12.6552734 C3144.68796,12.6552734 3144.75664,12.6552734 3144.75664,12.6552734 C3144.89401,12.6552734 3145.03138,12.6552734 3145.16875,12.6552734 Z M3140.8416,9.77050781 C3141.66582,9.77050781 3142.42135,10.0452474 3143.1082,10.5947266 C3143.79505,11.1442057 3144.27585,11.8310547 3144.55059,12.6552734 C3144.41322,12.6552734 3144.20716,12.6552734 3143.93242,12.6552734 C3143.79505,11.9684245 3143.38294,11.4189453 3142.69609,11.0068359 C3142.14661,10.4573568 3141.52845,10.1826172 3140.8416,10.1826172 C3140.97897,10.1826172 3141.11634,10.1826172 3141.25371,10.1826172 C3141.25371,10.1826172 3141.25371,10.1826172 3141.25371,10.1826172 C3141.25371,10.1826172 3141.25371,10.1826172 3141.25371,10.1826172 C3141.11634,10.1826172 3140.97897,10.1826172 3140.8416,10.1826172 C3140.70423,10.1826172 3140.56686,10.1826172 3140.42949,10.1826172 C3140.29212,10.1826172 3140.22344,10.1826172 3140.22344,10.1826172 C3140.22344,10.1826172 3140.29212,10.1826172 3140.42949,10.1826172 C3140.56686,10.1826172 3140.70423,10.1826172 3140.8416,10.1826172 C3139.88001,10.1826172 3139.05579,10.5260417 3138.36895,11.2128906 C3137.6821,11.8997396 3137.33867,12.7239583 3137.33867,13.6855469 C3137.33867,14.6471354 3137.6821,15.4713542 3138.36895,16.1582031 C3139.05579,16.8450521 3139.88001,17.1884766 3140.8416,17.1884766 C3141.52845,17.1884766 3142.14661,16.9824219 3142.69609,16.5703125 C3143.38294,16.0208333 3143.79505,15.4026693 3143.93242,14.7158203 C3144.06979,14.7158203 3144.27585,14.7158203 3144.55059,14.7158203 C3144.27585,15.5400391 3143.79505,16.226888 3143.1082,16.7763672 C3142.42135,17.3258464 3141.66582,17.6005859 3140.8416,17.6005859 C3139.74264,17.6005859 3138.78105,17.2571615 3137.95684,16.5703125 C3137.13262,15.7460938 3136.72051,14.7845052 3136.72051,13.6855469 C3136.72051,12.5865885 3137.13262,11.6936849 3137.95684,11.0068359 C3138.78105,10.1826172 3139.74264,9.77050781 3140.8416,9.77050781 Z M3144.13848,13.6855469 C3144.13848,13.5481771 3144.13848,13.4108073 3144.13848,13.2734375 C3144.13848,12.9986979 3144.06979,12.7926432 3143.93242,12.6552734 C3144.06979,12.6552734 3144.27585,12.6552734 3144.55059,12.6552734 C3144.55059,12.7926432 3144.61927,12.9986979 3144.75664,13.2734375 C3144.75664,13.4108073 3144.75664,13.5481771 3144.75664,13.6855469 C3144.75664,13.8229167 3144.75664,14.0289714 3144.75664,14.3037109 C3144.61927,14.4410807 3144.55059,14.5784505 3144.55059,14.7158203 C3144.41322,14.7158203 3144.20716,14.7158203 3143.93242,14.7158203 C3144.06979,14.5784505 3144.13848,14.4410807 3144.13848,14.3037109 C3144.13848,14.1663411 3144.13848,13.9602865 3144.13848,13.6855469 Z M3210.48809,28.9335938 C3210.76283,28.6588542 3211.3123,28.1780599 3212.13652,27.4912109 C3213.23548,29.9638672 3214.88392,33.5354818 3217.08184,38.2060547 C3215.02129,36.694987 3211.7931,34.4970703 3207.39727,31.6123047 C3207.67201,31.3375651 3208.1528,30.9254557 3208.83965,30.3759766 C3209.11439,30.6507161 3209.38913,30.8567708 3209.66387,30.9941406 C3209.93861,31.2688802 3210.21335,31.5436198 3210.48809,31.8183594 C3210.76283,31.5436198 3211.24362,31.0628255 3211.93047,30.3759766 C3211.65573,30.101237 3211.38099,29.8264974 3211.10625,29.5517578 C3210.83151,29.414388 3210.62546,29.2083333 3210.48809,28.9335938 Z M3211.93047,30.3759766 C3211.51836,30.6507161 3211.03757,31.1315104 3210.48809,31.8183594 C3210.21335,31.5436198 3209.93861,31.2688802 3209.66387,30.9941406 C3209.38913,30.8567708 3209.11439,30.6507161 3208.83965,30.3759766 C3209.11439,30.101237 3209.66387,29.6204427 3210.48809,28.9335938 C3210.62546,29.2083333 3210.83151,29.414388 3211.10625,29.5517578 C3211.38099,29.8264974 3211.65573,30.101237 3211.93047,30.3759766 Z M3118.79375,66.0234375 C3119.20586,66.0234375 3119.89271,66.0234375 3120.8543,66.0234375 C3120.8543,59.9791667 3120.8543,50.9814453 3120.8543,39.0302734 C3120.71693,39.0302734 3120.57956,39.0302734 3120.44219,39.0302734 C3120.16745,39.1676432 3119.96139,39.2363281 3119.82402,39.2363281 C3119.68665,39.2363281 3119.4806,39.1676432 3119.20586,39.0302734 C3119.06849,39.0302734 3118.93112,39.0302734 3118.79375,39.0302734 C3118.79375,43.5634766 3118.79375,48.0279948 3118.79375,52.4238281 C3118.79375,56.9570312 3118.79375,61.4902344 3118.79375,66.0234375 Z M3118.79375,68.0839844 C3118.79375,67.671875 3118.79375,66.985026 3118.79375,66.0234375 C3118.38164,66.0234375 3117.69479,66.0234375 3116.7332,66.0234375 C3117.42005,68.4960938 3118.45033,72.273763 3119.82402,77.3564453 C3120.51087,74.8837891 3121.54115,71.1061198 3122.91484,66.0234375 C3122.50273,66.0234375 3121.81589,66.0234375 3120.8543,66.0234375 C3120.8543,66.4355469 3120.8543,67.1223958 3120.8543,68.0839844 C3120.44219,68.0839844 3119.75534,68.0839844 3118.79375,68.0839844 Z M3118.79375,68.0839844 C3119.20586,68.0839844 3119.89271,68.0839844 3120.8543,68.0839844 C3120.8543,67.671875 3120.8543,66.985026 3120.8543,66.0234375 C3120.44219,66.0234375 3119.75534,66.0234375 3118.79375,66.0234375 C3118.79375,66.4355469 3118.79375,67.1223958 3118.79375,68.0839844 Z M3124.35723,35.3212891 C3124.35723,35.1839193 3124.35723,35.0465495 3124.35723,34.9091797 C3124.35723,34.9091797 3124.35723,34.8404948 3124.35723,34.703125 C3124.35723,34.8404948 3124.35723,34.9778646 3124.35723,35.1152344 C3124.35723,35.1152344 3124.35723,35.1839193 3124.35723,35.3212891 Z M3115.29082,34.703125 C3115.29082,35.8020833 3115.63424,36.694987 3116.32109,37.3818359 C3117.00794,38.2060547 3117.83216,38.7555339 3118.79375,39.0302734 C3118.79375,38.8929036 3118.79375,38.686849 3118.79375,38.4121094 C3117.96953,38.2747396 3117.28268,37.8626302 3116.7332,37.1757812 C3116.18372,36.3515625 3115.90898,35.5273438 3115.90898,34.703125 C3115.90898,33.6041667 3116.25241,32.6425781 3116.93926,31.8183594 C3117.76348,31.1315104 3118.72507,30.7880859 3119.82402,30.7880859 C3120.92298,30.7880859 3121.88457,31.1315104 3122.70879,31.8183594 C3123.39564,32.6425781 3123.73906,33.6041667 3123.73906,34.703125 C3123.73906,35.5273438 3123.46432,36.3515625 3122.91484,37.1757812 C3122.36536,37.8626302 3121.67852,38.2747396 3120.8543,38.4121094 C3120.8543,38.5494792 3120.8543,38.7555339 3120.8543,39.0302734 C3121.81589,38.7555339 3122.6401,38.2060547 3123.32695,37.3818359 C3124.0138,36.694987 3124.35723,35.8020833 3124.35723,34.703125 C3124.35723,33.4667969 3123.87643,32.3678385 3122.91484,31.40625 C3122.09062,30.5820312 3121.06035,30.1699219 3119.82402,30.1699219 C3118.5877,30.1699219 3117.55742,30.5820312 3116.7332,31.40625 C3115.77161,32.3678385 3115.29082,33.4667969 3115.29082,34.703125 Z M3124.35723,34.703125 C3124.35723,34.5657552 3124.35723,34.4283854 3124.35723,34.2910156 C3124.35723,34.1536458 3124.35723,34.0849609 3124.35723,34.0849609 C3124.35723,34.0849609 3124.35723,34.1536458 3124.35723,34.2910156 C3124.35723,34.4283854 3124.35723,34.5657552 3124.35723,34.703125 Z M3118.79375,38.4121094 C3118.79375,38.5494792 3118.79375,38.7555339 3118.79375,39.0302734 C3118.93112,39.0302734 3119.06849,39.0302734 3119.20586,39.0302734 C3119.4806,39.1676432 3119.68665,39.2363281 3119.82402,39.2363281 C3119.96139,39.2363281 3120.16745,39.1676432 3120.44219,39.0302734 C3120.57956,39.0302734 3120.71693,39.0302734 3120.8543,39.0302734 C3120.8543,38.8929036 3120.8543,38.686849 3120.8543,38.4121094 C3120.71693,38.5494792 3120.57956,38.6181641 3120.44219,38.6181641 C3120.16745,38.6181641 3119.96139,38.6181641 3119.82402,38.6181641 C3119.68665,38.6181641 3119.4806,38.6181641 3119.20586,38.6181641 C3119.06849,38.6181641 3118.93112,38.5494792 3118.79375,38.4121094 Z M3116.32109,35.1152344 C3116.32109,35.1152344 3116.32109,35.1152344 3116.32109,35.1152344 C3116.32109,35.1152344 3116.32109,35.1839193 3116.32109,35.3212891 C3116.32109,35.1839193 3116.32109,35.1152344 3116.32109,35.1152344 C3116.32109,35.1152344 3116.32109,35.1152344 3116.32109,35.1152344 C3116.32109,34.9778646 3116.32109,34.8404948 3116.32109,34.703125 C3116.32109,34.4283854 3116.32109,34.2910156 3116.32109,34.2910156 C3116.32109,34.1536458 3116.32109,34.0849609 3116.32109,34.0849609 C3116.32109,34.0849609 3116.32109,34.0849609 3116.32109,34.0849609 C3116.32109,34.0849609 3116.32109,34.0849609 3116.32109,34.0849609 C3116.32109,34.0849609 3116.32109,34.1536458 3116.32109,34.2910156 C3116.32109,34.2910156 3116.32109,34.2910156 3116.32109,34.2910156 C3116.32109,34.4283854 3116.32109,34.5657552 3116.32109,34.703125 C3116.32109,33.7415365 3116.66452,32.9173177 3117.35137,32.2304688 C3118.03822,31.5436198 3118.86243,31.2001953 3119.82402,31.2001953 C3120.78561,31.2001953 3121.60983,31.5436198 3122.29668,32.2304688 C3122.98353,32.9173177 3123.32695,33.7415365 3123.32695,34.703125 C3123.32695,35.389974 3123.05221,36.0768229 3122.50273,36.7636719 C3122.09062,37.313151 3121.54115,37.7252604 3120.8543,38 C3120.8543,38.1373698 3120.8543,38.2747396 3120.8543,38.4121094 C3121.67852,38.2747396 3122.36536,37.8626302 3122.91484,37.1757812 C3123.46432,36.3515625 3123.73906,35.5273438 3123.73906,34.703125 C3123.73906,33.6041667 3123.39564,32.6425781 3122.70879,31.8183594 C3121.88457,31.1315104 3120.92298,30.7880859 3119.82402,30.7880859 C3118.72507,30.7880859 3117.76348,31.1315104 3116.93926,31.8183594 C3116.25241,32.6425781 3115.90898,33.6041667 3115.90898,34.703125 C3115.90898,35.5273438 3116.18372,36.3515625 3116.7332,37.1757812 C3117.28268,37.8626302 3117.96953,38.2747396 3118.79375,38.4121094 C3118.79375,38.2747396 3118.79375,38.1373698 3118.79375,38 C3118.1069,37.7252604 3117.55742,37.313151 3117.14531,36.7636719 C3116.59583,36.0768229 3116.32109,35.389974 3116.32109,34.703125 C3116.32109,34.8404948 3116.32109,34.9091797 3116.32109,34.9091797 C3116.32109,35.0465495 3116.32109,35.1152344 3116.32109,35.1152344 Z M3116.32109,34.703125 C3116.32109,34.5657552 3116.32109,34.4283854 3116.32109,34.2910156 C3116.32109,34.2910156 3116.32109,34.2910156 3116.32109,34.2910156 C3116.32109,34.2910156 3116.32109,34.4283854 3116.32109,34.703125 C3116.32109,34.8404948 3116.32109,34.9778646 3116.32109,35.1152344 C3116.32109,35.1152344 3116.32109,35.0465495 3116.32109,34.9091797 C3116.32109,34.9091797 3116.32109,34.8404948 3116.32109,34.703125 Z M3120.8543,38 C3120.71693,38 3120.57956,38 3120.44219,38 C3120.16745,38.1373698 3119.96139,38.2060547 3119.82402,38.2060547 C3119.68665,38.2060547 3119.4806,38.1373698 3119.20586,38 C3119.06849,38 3118.93112,38 3118.79375,38 C3118.79375,38.1373698 3118.79375,38.2747396 3118.79375,38.4121094 C3118.93112,38.5494792 3119.06849,38.6181641 3119.20586,38.6181641 C3119.4806,38.6181641 3119.68665,38.6181641 3119.82402,38.6181641 C3119.96139,38.6181641 3120.16745,38.6181641 3120.44219,38.6181641 C3120.57956,38.6181641 3120.71693,38.5494792 3120.8543,38.4121094 C3120.8543,38.4121094 3120.8543,38.3434245 3120.8543,38.2060547 C3120.8543,38.0686849 3120.8543,38 3120.8543,38 Z M3107.04863,30.7880859 C3107.186,30.7880859 3107.25469,30.7880859 3107.25469,30.7880859 C3107.39206,30.9254557 3107.46074,30.9941406 3107.46074,30.9941406 C3107.46074,31.1315104 3107.46074,31.2001953 3107.46074,31.2001953 C3107.59811,31.3375651 3107.6668,31.4749349 3107.6668,31.6123047 C3107.6668,33.2607422 3107.6668,35.3212891 3107.6668,37.7939453 C3107.6668,40.4039714 3107.6668,43.4261068 3107.6668,46.8603516 C3107.6668,46.8603516 3107.59811,46.9290365 3107.46074,47.0664062 C3107.46074,47.203776 3107.39206,47.3411458 3107.25469,47.4785156 C3107.25469,47.4785156 3107.186,47.5472005 3107.04863,47.6845703 C3106.91126,47.6845703 3106.77389,47.6845703 3106.63652,47.6845703 C3106.49915,47.6845703 3106.43047,47.6845703 3106.43047,47.6845703 C3106.2931,47.5472005 3106.15573,47.4785156 3106.01836,47.4785156 C3106.01836,47.3411458 3105.94967,47.203776 3105.8123,47.0664062 C3105.8123,47.0664062 3105.8123,46.9977214 3105.8123,46.8603516 C3105.8123,45.3492839 3105.8123,43.4947917 3105.8123,41.296875 C3105.8123,39.0989583 3105.8123,36.5576172 3105.8123,33.6728516 C3105.8123,33.6728516 3105.74362,33.7415365 3105.60625,33.8789062 C3105.46888,34.016276 3105.33151,34.1536458 3105.19414,34.2910156 C3105.05677,34.4283854 3104.98809,34.4970703 3104.98809,34.4970703 C3104.85072,34.4970703 3104.71335,34.4970703 3104.57598,34.4970703 C3104.43861,34.4970703 3104.30124,34.4970703 3104.16387,34.4970703 C3104.16387,34.4970703 3104.09518,34.4283854 3103.95781,34.2910156 C3103.82044,34.1536458 3103.75176,34.0849609 3103.75176,34.0849609 C3103.75176,33.9475911 3103.75176,33.8102214 3103.75176,33.6728516 C3103.75176,33.5354818 3103.75176,33.398112 3103.75176,33.2607422 C3103.75176,33.2607422 3103.82044,33.1920573 3103.95781,33.0546875 C3104.23255,32.7799479 3104.50729,32.5052083 3104.78203,32.2304688 C3105.19414,31.8183594 3105.60625,31.40625 3106.01836,30.9941406 C3106.15573,30.8567708 3106.22441,30.7880859 3106.22441,30.7880859 C3106.36178,30.6507161 3106.49915,30.5820312 3106.63652,30.5820312 C3106.63652,30.5820312 3106.63652,30.5820312 3106.63652,30.5820312 C3106.63652,30.5820312 3106.70521,30.5820312 3106.84258,30.5820312 C3106.84258,30.5820312 3106.84258,30.5820312 3106.84258,30.5820312 C3106.97995,30.5820312 3107.04863,30.6507161 3107.04863,30.7880859 Z M3130.12676,17.1884766 C3130.26413,17.1884766 3130.4015,17.1884766 3130.53887,17.1884766 C3130.53887,17.1884766 3130.60755,17.2571615 3130.74492,17.3945313 C3130.88229,17.531901 3130.95098,17.6005859 3130.95098,17.6005859 C3130.95098,17.7379557 3130.95098,17.8753255 3130.95098,18.0126953 C3130.95098,18.1500651 3130.95098,18.2874349 3130.95098,18.4248047 C3130.95098,18.4248047 3130.88229,18.4934896 3130.74492,18.6308594 C3130.60755,18.7682292 3130.53887,18.8369141 3130.53887,18.8369141 C3130.4015,18.8369141 3130.26413,18.8369141 3130.12676,18.8369141 C3129.43991,18.8369141 3128.68437,18.8369141 3127.86016,18.8369141 C3127.17331,18.8369141 3126.48646,18.8369141 3125.79961,18.8369141 C3125.11276,18.8369141 3124.42591,18.8369141 3123.73906,18.8369141 C3122.91484,18.8369141 3122.15931,18.8369141 3121.47246,18.8369141 C3121.47246,18.8369141 3121.40378,18.8369141 3121.26641,18.8369141 C3121.26641,18.8369141 3121.19772,18.8369141 3121.06035,18.8369141 C3121.06035,18.8369141 3121.06035,18.7682292 3121.06035,18.6308594 C3120.92298,18.6308594 3120.8543,18.6308594 3120.8543,18.6308594 C3120.8543,18.6308594 3120.78561,18.5621745 3120.64824,18.4248047 C3120.64824,18.4248047 3120.64824,18.3561198 3120.64824,18.21875 C3120.64824,18.21875 3120.64824,18.21875 3120.64824,18.21875 C3120.64824,18.0813802 3120.64824,18.0126953 3120.64824,18.0126953 C3120.64824,18.0126953 3120.64824,18.0126953 3120.64824,18.0126953 C3120.64824,18.0126953 3120.64824,18.0126953 3120.64824,18.0126953 C3120.64824,17.8753255 3120.64824,17.7379557 3120.64824,17.6005859 C3120.78561,17.3258464 3120.8543,16.9824219 3120.8543,16.5703125 C3120.99167,16.1582031 3121.12904,15.7460938 3121.26641,15.3339844 C3121.54115,14.7845052 3121.81589,14.3037109 3122.09062,13.8916016 C3122.36536,13.616862 3122.57142,13.3421224 3122.70879,13.0673828 C3122.98353,12.7926432 3123.25827,12.5179036 3123.53301,12.2431641 C3123.80775,11.9684245 3124.08249,11.6936849 3124.35723,11.4189453 C3124.63197,11.1442057 3124.97539,10.8694661 3125.3875,10.5947266 C3126.21172,10.0452474 3126.82988,9.56445313 3127.24199,9.15234375 C3127.79147,8.74023437 3128.20358,8.3968099 3128.47832,8.12207031 C3128.61569,7.70996094 3128.75306,7.36653646 3128.89043,7.09179688 C3128.89043,6.81705729 3128.89043,6.54231771 3128.89043,6.26757812 C3128.89043,6.13020833 3128.89043,6.06152344 3128.89043,6.06152344 C3128.89043,5.92415365 3128.89043,5.78678385 3128.89043,5.64941406 C3128.89043,5.51204427 3128.89043,5.44335937 3128.89043,5.44335937 C3128.89043,5.30598958 3128.82174,5.16861979 3128.68437,5.03125 C3128.68437,4.89388021 3128.61569,4.68782552 3128.47832,4.41308594 C3128.20358,4.27571615 3127.99753,4.13834635 3127.86016,4.00097656 C3127.58542,3.86360677 3127.31068,3.79492187 3127.03594,3.79492187 C3126.62383,3.65755208 3126.21172,3.58886719 3125.79961,3.58886719 C3125.52487,3.58886719 3125.25013,3.65755208 3124.97539,3.79492187 C3124.70065,3.79492187 3124.42591,3.86360677 3124.15117,4.00097656 C3123.87643,4.13834635 3123.67038,4.34440104 3123.53301,4.61914063 C3123.25827,4.75651042 3123.05221,4.9625651 3122.91484,5.23730469 C3122.91484,5.37467448 3122.84616,5.51204427 3122.70879,5.64941406 C3122.70879,5.64941406 3122.6401,5.71809896 3122.50273,5.85546875 C3122.36536,5.85546875 3122.22799,5.85546875 3122.09062,5.85546875 C3121.95326,5.85546875 3121.88457,5.78678385 3121.88457,5.64941406 C3121.7472,5.64941406 3121.60983,5.64941406 3121.47246,5.64941406 C3121.47246,5.51204427 3121.40378,5.37467448 3121.26641,5.23730469 C3121.26641,5.0999349 3121.26641,4.9625651 3121.26641,4.82519531 C3121.26641,4.82519531 3121.26641,4.75651042 3121.26641,4.61914063 C3121.54115,4.06966146 3121.81589,3.65755208 3122.09062,3.3828125 C3122.36536,3.10807292 3122.70879,2.83333333 3123.1209,2.55859375 C3123.53301,2.28385417 3123.94512,2.07779948 3124.35723,1.94042969 C3124.76934,1.8030599 3125.25013,1.734375 3125.79961,1.734375 C3126.7612,1.734375 3127.51673,1.87174479 3128.06621,2.14648438 C3128.75306,2.42122396 3129.30254,2.76464844 3129.71465,3.17675781 C3129.98939,3.72623698 3130.26413,4.20703125 3130.53887,4.61914063 C3130.67624,5.16861979 3130.74492,5.71809896 3130.74492,6.26757812 C3130.74492,6.81705729 3130.67624,7.36653646 3130.53887,7.91601562 C3130.4015,8.328125 3130.12676,8.80891927 3129.71465,9.35839844 C3129.43991,9.77050781 3129.0278,10.2513021 3128.47832,10.8007813 C3127.92884,11.2128906 3127.24199,11.6936849 3126.41777,12.2431641 C3125.73092,12.5179036 3125.18145,12.8613281 3124.76934,13.2734375 C3124.35723,13.8229167 3124.0138,14.3037109 3123.73906,14.7158203 C3123.46432,15.2652995 3123.25827,15.6774089 3123.1209,15.9521484 C3122.84616,16.3642578 3122.70879,16.7763672 3122.70879,17.1884766 C3123.53301,17.1884766 3124.56328,17.1884766 3125.79961,17.1884766 C3127.03594,17.1884766 3128.47832,17.1884766 3130.12676,17.1884766 Z" transform="translate(-3113.752 -23.734)"/></svg>