<svg xmlns="http://www.w3.org/2000/svg" width="120" height="243" viewBox="0 0 120 243"><path fill="#131313" d="M106.979492,44.3994141 C109.314779,47.9710286 111.169271,52.7102865 112.542969,58.6171875 C113.779297,64.5240885 112.749023,71.5986328 109.452148,79.8408203 C107.941081,83.6871745 105.674479,86.9153646 102.652344,89.5253906 C99.7675781,92.2727865 96.4707031,94.6080729 92.7617188,96.53125 C85.7558594,99.9654948 77.9944661,102.163411 69.4775391,103.125 C61.0979818,104.223958 53.680013,104.773438 47.2236328,104.773438 C46.1246745,104.773438 45.0257161,104.773438 43.9267578,104.773438 C42.9651693,104.773438 42.0035807,104.704753 41.0419922,104.567383 C41.0419922,116.655924 41.0419922,134.720052 41.0419922,158.759766 C41.0419922,160.820312 40.2864583,162.60612 38.7753906,164.117188 C37.4016927,165.490885 35.6845703,166.177734 33.6240234,166.177734 C31.5634766,166.177734 29.7776693,165.490885 28.2666016,164.117188 C26.7555339,162.60612 26,160.820312 26,158.759766 C26,130.461589 26,88.0143229 26,31.4179688 C26,31.4179688 26,31.4179688 26,31.4179688 C26,31.4179688 26,31.4179688 26,31.4179688 C26,29.906901 26.4807943,28.5332031 27.4423828,27.296875 C28.2666016,26.0605469 29.3655599,25.0989583 30.7392578,24.4121094 C31.1513672,24.2747396 31.5634766,24.1373698 31.9755859,24 C32.5250651,24 33.0745443,24 33.6240234,24 C39.8056641,24 49.078125,24 61.4414062,24 C71.1946615,24 80.1923828,25.7858073 88.4345703,29.3574219 C96.539388,33.0664062 102.721029,38.0804036 106.979492,44.3994141 Z M94.9912109,74.53125 C96.7770182,70.4101562 97.601237,66.4951172 97.4638672,62.7861328 C97.1891276,59.2145182 96.0901693,55.9863281 94.1669922,53.1015625 C91.2822266,48.843099 86.8177083,45.4775391 80.7734375,43.0048828 C74.7291667,40.3948568 68.1354167,39.0898438 60.9921875,39.0898438 C56.4589844,39.0898438 49.6591797,39.0898438 40.5927734,39.0898438 C40.5927734,50.3541667 40.5927734,67.250651 40.5927734,89.7792969 C43.3401693,89.9166667 46.7057292,89.9853516 50.6894531,89.9853516 C54.6731771,89.8479818 58.7942708,89.5045573 63.0527344,88.9550781 C71.844401,87.9934896 78.9876302,86.2763672 84.4824219,83.8037109 C89.9772135,81.3310547 93.4801432,78.2402344 94.9912109,74.53125 Z M60.3740234,12.9208984 C69.4404297,12.9208984 77.9573568,14.3632812 85.9248047,17.2480469 C94.0296224,19.9954427 100.966797,23.9791667 106.736328,29.1992188 C106.324219,29.4739583 105.77474,29.9547526 105.087891,30.6416016 C99.593099,25.6962891 92.9306641,21.8499349 85.1005859,19.1025391 C77.4078776,16.3551432 69.1656901,14.9814453 60.3740234,14.9814453 C56.1155599,14.9814453 49.7965495,14.9814453 41.4169922,14.9814453 C41.4169922,14.8440755 41.4169922,14.7067057 41.4169922,14.5693359 C41.554362,14.2945964 41.6230469,14.0885417 41.6230469,13.9511719 C41.6230469,13.8138021 41.554362,13.6764323 41.4169922,13.5390625 C41.4169922,13.2643229 41.4169922,13.0582682 41.4169922,12.9208984 C44.5764974,12.9208984 47.7360026,12.9208984 50.8955078,12.9208984 C54.055013,12.9208984 57.2145182,12.9208984 60.3740234,12.9208984 Z M37.0898438,17.8662109 C37.9140625,17.8662109 38.6695964,17.5914714 39.3564453,17.0419922 C40.0432943,16.492513 40.5240885,15.8056641 40.7988281,14.9814453 C40.9361979,14.9814453 41.1422526,14.9814453 41.4169922,14.9814453 C41.1422526,15.9430339 40.5927734,16.7672526 39.7685547,17.4541016 C38.9443359,18.1409505 38.0514323,18.484375 37.0898438,18.484375 C35.8535156,18.484375 34.7545573,18.0722656 33.7929688,17.2480469 C32.96875,16.2864583 32.5566406,15.1875 32.5566406,13.9511719 C32.5566406,12.7148438 32.96875,11.6845703 33.7929688,10.8603516 C34.7545573,9.89876302 35.8535156,9.41796875 37.0898438,9.41796875 C38.0514323,9.41796875 38.9443359,9.76139323 39.7685547,10.4482422 C40.5927734,11.1350911 41.1422526,11.9593099 41.4169922,12.9208984 C41.2796224,12.9208984 41.0735677,12.9208984 40.7988281,12.9208984 C40.5240885,12.0966797 40.0432943,11.4098307 39.3564453,10.8603516 C38.6695964,10.3108724 37.9140625,10.0361328 37.0898438,10.0361328 C35.9908854,10.0361328 35.0292969,10.4482422 34.2050781,11.2724609 C33.3808594,11.9593099 32.96875,12.8522135 32.96875,13.9511719 C32.96875,15.0501302 33.3808594,16.0117188 34.2050781,16.8359375 C35.0292969,17.5227865 35.9908854,17.8662109 37.0898438,17.8662109 Z M41.4169922,12.9208984 C41.4169922,13.0582682 41.4169922,13.2643229 41.4169922,13.5390625 C41.4169922,13.6764323 41.4169922,13.8138021 41.4169922,13.9511719 C41.4169922,14.0885417 41.4169922,14.2945964 41.4169922,14.5693359 C41.4169922,14.7067057 41.4169922,14.8440755 41.4169922,14.9814453 C41.2796224,14.9814453 41.0735677,14.9814453 40.7988281,14.9814453 C40.7988281,14.8440755 40.867513,14.7067057 41.0048828,14.5693359 C41.0048828,14.2945964 41.0048828,14.0885417 41.0048828,13.9511719 C41.0048828,13.8138021 41.0048828,13.6764323 41.0048828,13.5390625 C40.867513,13.2643229 40.7988281,13.0582682 40.7988281,12.9208984 C40.9361979,12.9208984 41.0048828,12.9208984 41.0048828,12.9208984 C41.1422526,12.9208984 41.2796224,12.9208984 41.4169922,12.9208984 Z M37.0898438,10.0361328 C37.9140625,10.0361328 38.6695964,10.3108724 39.3564453,10.8603516 C40.0432943,11.4098307 40.5240885,12.0966797 40.7988281,12.9208984 C40.6614583,12.9208984 40.4554036,12.9208984 40.1806641,12.9208984 C40.0432943,12.2340495 39.6311849,11.6845703 38.9443359,11.2724609 C38.3948568,10.7229818 37.7766927,10.4482422 37.0898438,10.4482422 C37.2272135,10.4482422 37.3645833,10.4482422 37.5019531,10.4482422 C37.5019531,10.4482422 37.5019531,10.4482422 37.5019531,10.4482422 C37.5019531,10.4482422 37.5019531,10.4482422 37.5019531,10.4482422 C37.3645833,10.4482422 37.2272135,10.4482422 37.0898438,10.4482422 C36.952474,10.4482422 36.8151042,10.4482422 36.6777344,10.4482422 C36.5403646,10.4482422 36.4716797,10.4482422 36.4716797,10.4482422 C36.4716797,10.4482422 36.5403646,10.4482422 36.6777344,10.4482422 C36.8151042,10.4482422 36.952474,10.4482422 37.0898438,10.4482422 C36.1282552,10.4482422 35.3040365,10.7916667 34.6171875,11.4785156 C33.9303385,12.1653646 33.5869141,12.9895833 33.5869141,13.9511719 C33.5869141,14.9127604 33.9303385,15.7369792 34.6171875,16.4238281 C35.3040365,17.1106771 36.1282552,17.4541016 37.0898438,17.4541016 C37.7766927,17.4541016 38.3948568,17.2480469 38.9443359,16.8359375 C39.6311849,16.2864583 40.0432943,15.6682943 40.1806641,14.9814453 C40.3180339,14.9814453 40.5240885,14.9814453 40.7988281,14.9814453 C40.5240885,15.8056641 40.0432943,16.492513 39.3564453,17.0419922 C38.6695964,17.5914714 37.9140625,17.8662109 37.0898438,17.8662109 C35.9908854,17.8662109 35.0292969,17.5227865 34.2050781,16.8359375 C33.3808594,16.0117188 32.96875,15.0501302 32.96875,13.9511719 C32.96875,12.8522135 33.3808594,11.9593099 34.2050781,11.2724609 C35.0292969,10.4482422 35.9908854,10.0361328 37.0898438,10.0361328 Z M40.3867188,13.9511719 C40.3867188,13.8138021 40.3867188,13.6764323 40.3867188,13.5390625 C40.3867188,13.2643229 40.3180339,13.0582682 40.1806641,12.9208984 C40.3180339,12.9208984 40.5240885,12.9208984 40.7988281,12.9208984 C40.7988281,13.0582682 40.867513,13.2643229 41.0048828,13.5390625 C41.0048828,13.6764323 41.0048828,13.8138021 41.0048828,13.9511719 C41.0048828,14.0885417 41.0048828,14.2945964 41.0048828,14.5693359 C40.867513,14.7067057 40.7988281,14.8440755 40.7988281,14.9814453 C40.6614583,14.9814453 40.4554036,14.9814453 40.1806641,14.9814453 C40.3180339,14.8440755 40.3867188,14.7067057 40.3867188,14.5693359 C40.3867188,14.4319661 40.3867188,14.2259115 40.3867188,13.9511719 Z M106.736328,29.1992188 C107.011068,28.9244792 107.560547,28.4436849 108.384766,27.7568359 C109.483724,30.2294922 111.132161,33.8011068 113.330078,38.4716797 C111.269531,36.960612 108.041341,34.7626953 103.645508,31.8779297 C103.920247,31.6031901 104.401042,31.1910807 105.087891,30.6416016 C105.36263,30.9163411 105.63737,31.1223958 105.912109,31.2597656 C106.186849,31.5345052 106.461589,31.8092448 106.736328,32.0839844 C107.011068,31.8092448 107.491862,31.3284505 108.178711,30.6416016 C107.903971,30.366862 107.629232,30.0921224 107.354492,29.8173828 C107.079753,29.680013 106.873698,29.4739583 106.736328,29.1992188 Z M108.178711,30.6416016 C107.766602,30.9163411 107.285807,31.3971354 106.736328,32.0839844 C106.461589,31.8092448 106.186849,31.5345052 105.912109,31.2597656 C105.63737,31.1223958 105.36263,30.9163411 105.087891,30.6416016 C105.36263,30.366862 105.912109,29.8860677 106.736328,29.1992188 C106.873698,29.4739583 107.079753,29.680013 107.354492,29.8173828 C107.629232,30.0921224 107.903971,30.366862 108.178711,30.6416016 Z M15.0419922,66.2890625 C15.4541016,66.2890625 16.1409505,66.2890625 17.1025391,66.2890625 C17.1025391,60.2447917 17.1025391,51.2470703 17.1025391,39.2958984 C16.9651693,39.2958984 16.8277995,39.2958984 16.6904297,39.2958984 C16.4156901,39.4332682 16.2096354,39.5019531 16.0722656,39.5019531 C15.9348958,39.5019531 15.7288411,39.4332682 15.4541016,39.2958984 C15.3167318,39.2958984 15.179362,39.2958984 15.0419922,39.2958984 C15.0419922,43.8291016 15.0419922,48.2936198 15.0419922,52.6894531 C15.0419922,57.2226562 15.0419922,61.7558594 15.0419922,66.2890625 Z M15.0419922,68.3496094 C15.0419922,67.9375 15.0419922,67.250651 15.0419922,66.2890625 C14.6298828,66.2890625 13.9430339,66.2890625 12.9814453,66.2890625 C13.6682943,68.7617188 14.6985677,72.539388 16.0722656,77.6220703 C16.7591146,75.1494141 17.789388,71.3717448 19.1630859,66.2890625 C18.7509766,66.2890625 18.0641276,66.2890625 17.1025391,66.2890625 C17.1025391,66.7011719 17.1025391,67.3880208 17.1025391,68.3496094 C16.6904297,68.3496094 16.0035807,68.3496094 15.0419922,68.3496094 Z M15.0419922,68.3496094 C15.4541016,68.3496094 16.1409505,68.3496094 17.1025391,68.3496094 C17.1025391,67.9375 17.1025391,67.250651 17.1025391,66.2890625 C16.6904297,66.2890625 16.0035807,66.2890625 15.0419922,66.2890625 C15.0419922,66.7011719 15.0419922,67.3880208 15.0419922,68.3496094 Z M20.6054688,35.5869141 C20.6054688,35.4495443 20.6054688,35.3121745 20.6054688,35.1748047 C20.6054688,35.1748047 20.6054688,35.1061198 20.6054688,34.96875 C20.6054688,35.1061198 20.6054688,35.2434896 20.6054688,35.3808594 C20.6054688,35.3808594 20.6054688,35.4495443 20.6054688,35.5869141 Z M11.5390625,34.96875 C11.5390625,36.0677083 11.882487,36.960612 12.5693359,37.6474609 C13.2561849,38.4716797 14.0804036,39.0211589 15.0419922,39.2958984 C15.0419922,39.1585286 15.0419922,38.952474 15.0419922,38.6777344 C14.2177734,38.5403646 13.5309245,38.1282552 12.9814453,37.4414062 C12.4319661,36.6171875 12.1572266,35.7929688 12.1572266,34.96875 C12.1572266,33.8697917 12.500651,32.9082031 13.1875,32.0839844 C14.0117188,31.3971354 14.9733073,31.0537109 16.0722656,31.0537109 C17.171224,31.0537109 18.1328125,31.3971354 18.9570312,32.0839844 C19.6438802,32.9082031 19.9873047,33.8697917 19.9873047,34.96875 C19.9873047,35.7929688 19.7125651,36.6171875 19.1630859,37.4414062 C18.6136068,38.1282552 17.9267578,38.5403646 17.1025391,38.6777344 C17.1025391,38.8151042 17.1025391,39.0211589 17.1025391,39.2958984 C18.0641276,39.0211589 18.8883464,38.4716797 19.5751953,37.6474609 C20.2620443,36.960612 20.6054688,36.0677083 20.6054688,34.96875 C20.6054688,33.7324219 20.1246745,32.6334635 19.1630859,31.671875 C18.3388672,30.8476562 17.3085938,30.4355469 16.0722656,30.4355469 C14.8359375,30.4355469 13.8056641,30.8476562 12.9814453,31.671875 C12.0198568,32.6334635 11.5390625,33.7324219 11.5390625,34.96875 Z M20.6054688,34.96875 C20.6054688,34.8313802 20.6054688,34.6940104 20.6054688,34.5566406 C20.6054688,34.4192708 20.6054688,34.3505859 20.6054688,34.3505859 C20.6054688,34.3505859 20.6054688,34.4192708 20.6054688,34.5566406 C20.6054688,34.6940104 20.6054688,34.8313802 20.6054688,34.96875 Z M15.0419922,38.6777344 C15.0419922,38.8151042 15.0419922,39.0211589 15.0419922,39.2958984 C15.179362,39.2958984 15.3167318,39.2958984 15.4541016,39.2958984 C15.7288411,39.4332682 15.9348958,39.5019531 16.0722656,39.5019531 C16.2096354,39.5019531 16.4156901,39.4332682 16.6904297,39.2958984 C16.8277995,39.2958984 16.9651693,39.2958984 17.1025391,39.2958984 C17.1025391,39.1585286 17.1025391,38.952474 17.1025391,38.6777344 C16.9651693,38.8151042 16.8277995,38.8837891 16.6904297,38.8837891 C16.4156901,38.8837891 16.2096354,38.8837891 16.0722656,38.8837891 C15.9348958,38.8837891 15.7288411,38.8837891 15.4541016,38.8837891 C15.3167318,38.8837891 15.179362,38.8151042 15.0419922,38.6777344 Z M12.5693359,35.3808594 C12.5693359,35.3808594 12.5693359,35.3808594 12.5693359,35.3808594 C12.5693359,35.3808594 12.5693359,35.4495443 12.5693359,35.5869141 C12.5693359,35.4495443 12.5693359,35.3808594 12.5693359,35.3808594 C12.5693359,35.3808594 12.5693359,35.3808594 12.5693359,35.3808594 C12.5693359,35.2434896 12.5693359,35.1061198 12.5693359,34.96875 C12.5693359,34.6940104 12.5693359,34.5566406 12.5693359,34.5566406 C12.5693359,34.4192708 12.5693359,34.3505859 12.5693359,34.3505859 C12.5693359,34.3505859 12.5693359,34.3505859 12.5693359,34.3505859 C12.5693359,34.3505859 12.5693359,34.3505859 12.5693359,34.3505859 C12.5693359,34.3505859 12.5693359,34.4192708 12.5693359,34.5566406 C12.5693359,34.5566406 12.5693359,34.5566406 12.5693359,34.5566406 C12.5693359,34.6940104 12.5693359,34.8313802 12.5693359,34.96875 C12.5693359,34.0071615 12.9127604,33.1829427 13.5996094,32.4960938 C14.2864583,31.8092448 15.1106771,31.4658203 16.0722656,31.4658203 C17.0338542,31.4658203 17.8580729,31.8092448 18.5449219,32.4960938 C19.2317708,33.1829427 19.5751953,34.0071615 19.5751953,34.96875 C19.5751953,35.655599 19.3004557,36.3424479 18.7509766,37.0292969 C18.3388672,37.578776 17.789388,37.9908854 17.1025391,38.265625 C17.1025391,38.4029948 17.1025391,38.5403646 17.1025391,38.6777344 C17.9267578,38.5403646 18.6136068,38.1282552 19.1630859,37.4414062 C19.7125651,36.6171875 19.9873047,35.7929688 19.9873047,34.96875 C19.9873047,33.8697917 19.6438802,32.9082031 18.9570312,32.0839844 C18.1328125,31.3971354 17.171224,31.0537109 16.0722656,31.0537109 C14.9733073,31.0537109 14.0117188,31.3971354 13.1875,32.0839844 C12.500651,32.9082031 12.1572266,33.8697917 12.1572266,34.96875 C12.1572266,35.7929688 12.4319661,36.6171875 12.9814453,37.4414062 C13.5309245,38.1282552 14.2177734,38.5403646 15.0419922,38.6777344 C15.0419922,38.5403646 15.0419922,38.4029948 15.0419922,38.265625 C14.3551432,37.9908854 13.8056641,37.578776 13.3935547,37.0292969 C12.8440755,36.3424479 12.5693359,35.655599 12.5693359,34.96875 C12.5693359,35.1061198 12.5693359,35.1748047 12.5693359,35.1748047 C12.5693359,35.3121745 12.5693359,35.3808594 12.5693359,35.3808594 Z M12.5693359,34.96875 C12.5693359,34.8313802 12.5693359,34.6940104 12.5693359,34.5566406 C12.5693359,34.5566406 12.5693359,34.5566406 12.5693359,34.5566406 C12.5693359,34.5566406 12.5693359,34.6940104 12.5693359,34.96875 C12.5693359,35.1061198 12.5693359,35.2434896 12.5693359,35.3808594 C12.5693359,35.3808594 12.5693359,35.3121745 12.5693359,35.1748047 C12.5693359,35.1748047 12.5693359,35.1061198 12.5693359,34.96875 Z M17.1025391,38.265625 C16.9651693,38.265625 16.8277995,38.265625 16.6904297,38.265625 C16.4156901,38.4029948 16.2096354,38.4716797 16.0722656,38.4716797 C15.9348958,38.4716797 15.7288411,38.4029948 15.4541016,38.265625 C15.3167318,38.265625 15.179362,38.265625 15.0419922,38.265625 C15.0419922,38.4029948 15.0419922,38.5403646 15.0419922,38.6777344 C15.179362,38.8151042 15.3167318,38.8837891 15.4541016,38.8837891 C15.7288411,38.8837891 15.9348958,38.8837891 16.0722656,38.8837891 C16.2096354,38.8837891 16.4156901,38.8837891 16.6904297,38.8837891 C16.8277995,38.8837891 16.9651693,38.8151042 17.1025391,38.6777344 C17.1025391,38.6777344 17.1025391,38.6090495 17.1025391,38.4716797 C17.1025391,38.3343099 17.1025391,38.265625 17.1025391,38.265625 Z M3.296875,31.0537109 C3.43424479,31.0537109 3.50292969,31.0537109 3.50292969,31.0537109 C3.64029948,31.1910807 3.70898438,31.2597656 3.70898438,31.2597656 C3.70898438,31.3971354 3.70898438,31.4658203 3.70898438,31.4658203 C3.84635417,31.6031901 3.91503906,31.7405599 3.91503906,31.8779297 C3.91503906,33.5263672 3.91503906,35.5869141 3.91503906,38.0595703 C3.91503906,40.6695964 3.91503906,43.6917318 3.91503906,47.1259766 C3.91503906,47.1259766 3.84635417,47.1946615 3.70898438,47.3320312 C3.70898438,47.469401 3.64029948,47.6067708 3.50292969,47.7441406 C3.50292969,47.7441406 3.43424479,47.8128255 3.296875,47.9501953 C3.15950521,47.9501953 3.02213542,47.9501953 2.88476562,47.9501953 C2.74739583,47.9501953 2.67871094,47.9501953 2.67871094,47.9501953 C2.54134115,47.8128255 2.40397135,47.7441406 2.26660156,47.7441406 C2.26660156,47.6067708 2.19791667,47.469401 2.06054688,47.3320312 C2.06054688,47.3320312 2.06054688,47.2633464 2.06054688,47.1259766 C2.06054688,45.6149089 2.06054688,43.7604167 2.06054688,41.5625 C2.06054688,39.3645833 2.06054688,36.8232422 2.06054688,33.9384766 C2.06054688,33.9384766 1.99186198,34.0071615 1.85449219,34.1445312 C1.7171224,34.281901 1.5797526,34.4192708 1.44238281,34.5566406 C1.30501302,34.6940104 1.23632812,34.7626953 1.23632812,34.7626953 C1.09895833,34.7626953 0.961588542,34.7626953 0.82421875,34.7626953 C0.686848958,34.7626953 0.549479167,34.7626953 0.412109375,34.7626953 C0.412109375,34.7626953 0.343424479,34.6940104 0.206054688,34.5566406 C0.0686848958,34.4192708 0,34.3505859 0,34.3505859 C0,34.2132161 0,34.0758464 0,33.9384766 C0,33.8011068 0,33.663737 0,33.5263672 C0,33.5263672 0.0686848958,33.4576823 0.206054688,33.3203125 C0.480794271,33.0455729 0.755533854,32.7708333 1.03027344,32.4960938 C1.44238281,32.0839844 1.85449219,31.671875 2.26660156,31.2597656 C2.40397135,31.1223958 2.47265625,31.0537109 2.47265625,31.0537109 C2.61002604,30.9163411 2.74739583,30.8476562 2.88476562,30.8476562 C2.88476562,30.8476562 2.88476562,30.8476562 2.88476562,30.8476562 C2.88476562,30.8476562 2.95345052,30.8476562 3.09082031,30.8476562 C3.09082031,30.8476562 3.09082031,30.8476562 3.09082031,30.8476562 C3.2281901,30.8476562 3.296875,30.9163411 3.296875,31.0537109 Z M26.375,17.4541016 C26.5123698,17.4541016 26.6497396,17.4541016 26.7871094,17.4541016 C26.7871094,17.4541016 26.8557943,17.5227865 26.9931641,17.6601562 C27.1305339,17.797526 27.1992188,17.8662109 27.1992188,17.8662109 C27.1992188,18.0035807 27.1992188,18.1409505 27.1992188,18.2783203 C27.1992188,18.4156901 27.1992188,18.5530599 27.1992188,18.6904297 C27.1992188,18.6904297 27.1305339,18.7591146 26.9931641,18.8964844 C26.8557943,19.0338542 26.7871094,19.1025391 26.7871094,19.1025391 C26.6497396,19.1025391 26.5123698,19.1025391 26.375,19.1025391 C25.688151,19.1025391 24.9326172,19.1025391 24.1083984,19.1025391 C23.4215495,19.1025391 22.7347005,19.1025391 22.0478516,19.1025391 C21.3610026,19.1025391 20.6741536,19.1025391 19.9873047,19.1025391 C19.1630859,19.1025391 18.4075521,19.1025391 17.7207031,19.1025391 C17.7207031,19.1025391 17.6520182,19.1025391 17.5146484,19.1025391 C17.5146484,19.1025391 17.4459635,19.1025391 17.3085938,19.1025391 C17.3085938,19.1025391 17.3085938,19.0338542 17.3085938,18.8964844 C17.171224,18.8964844 17.1025391,18.8964844 17.1025391,18.8964844 C17.1025391,18.8964844 17.0338542,18.8277995 16.8964844,18.6904297 C16.8964844,18.6904297 16.8964844,18.6217448 16.8964844,18.484375 C16.8964844,18.484375 16.8964844,18.484375 16.8964844,18.484375 C16.8964844,18.3470052 16.8964844,18.2783203 16.8964844,18.2783203 C16.8964844,18.2783203 16.8964844,18.2783203 16.8964844,18.2783203 C16.8964844,18.2783203 16.8964844,18.2783203 16.8964844,18.2783203 C16.8964844,18.1409505 16.8964844,18.0035807 16.8964844,17.8662109 C17.0338542,17.5914714 17.1025391,17.2480469 17.1025391,16.8359375 C17.2399089,16.4238281 17.3772786,16.0117188 17.5146484,15.5996094 C17.789388,15.0501302 18.0641276,14.5693359 18.3388672,14.1572266 C18.6136068,13.882487 18.8196615,13.6077474 18.9570312,13.3330078 C19.2317708,13.0582682 19.5065104,12.7835286 19.78125,12.5087891 C20.0559896,12.2340495 20.3307292,11.9593099 20.6054688,11.6845703 C20.8802083,11.4098307 21.2236328,11.1350911 21.6357422,10.8603516 C22.4599609,10.3108724 23.078125,9.83007812 23.4902344,9.41796875 C24.0397135,9.00585938 24.4518229,8.6624349 24.7265625,8.38769531 C24.8639323,7.97558594 25.0013021,7.63216146 25.1386719,7.35742188 C25.1386719,7.08268229 25.1386719,6.80794271 25.1386719,6.53320312 C25.1386719,6.39583333 25.1386719,6.32714844 25.1386719,6.32714844 C25.1386719,6.18977865 25.1386719,6.05240885 25.1386719,5.91503906 C25.1386719,5.77766927 25.1386719,5.70898438 25.1386719,5.70898438 C25.1386719,5.57161458 25.069987,5.43424479 24.9326172,5.296875 C24.9326172,5.15950521 24.8639323,4.95345052 24.7265625,4.67871094 C24.4518229,4.54134115 24.2457682,4.40397135 24.1083984,4.26660156 C23.8336589,4.12923177 23.5589193,4.06054688 23.2841797,4.06054688 C22.8720703,3.92317708 22.4599609,3.85449219 22.0478516,3.85449219 C21.773112,3.85449219 21.4983724,3.92317708 21.2236328,4.06054688 C20.9488932,4.06054688 20.6741536,4.12923177 20.3994141,4.26660156 C20.1246745,4.40397135 19.9186198,4.61002604 19.78125,4.88476562 C19.5065104,5.02213542 19.3004557,5.2281901 19.1630859,5.50292969 C19.1630859,5.64029948 19.094401,5.77766927 18.9570312,5.91503906 C18.9570312,5.91503906 18.8883464,5.98372396 18.7509766,6.12109375 C18.6136068,6.12109375 18.476237,6.12109375 18.3388672,6.12109375 C18.2014974,6.12109375 18.1328125,6.05240885 18.1328125,5.91503906 C17.9954427,5.91503906 17.8580729,5.91503906 17.7207031,5.91503906 C17.7207031,5.77766927 17.6520182,5.64029948 17.5146484,5.50292969 C17.5146484,5.3655599 17.5146484,5.2281901 17.5146484,5.09082031 C17.5146484,5.09082031 17.5146484,5.02213542 17.5146484,4.88476562 C17.789388,4.33528646 18.0641276,3.92317708 18.3388672,3.6484375 C18.6136068,3.37369792 18.9570312,3.09895833 19.3691406,2.82421875 C19.78125,2.54947917 20.1933594,2.34342448 20.6054688,2.20605469 C21.0175781,2.0686849 21.4983724,2 22.0478516,2 C23.0094401,2 23.764974,2.13736979 24.3144531,2.41210938 C25.0013021,2.68684896 25.5507812,3.03027344 25.9628906,3.44238281 C26.2376302,3.99186198 26.5123698,4.47265625 26.7871094,4.88476562 C26.9244792,5.43424479 26.9931641,5.98372396 26.9931641,6.53320312 C26.9931641,7.08268229 26.9244792,7.63216146 26.7871094,8.18164062 C26.6497396,8.59375 26.375,9.07454427 25.9628906,9.62402344 C25.688151,10.0361328 25.2760417,10.5169271 24.7265625,11.0664062 C24.1770833,11.4785156 23.4902344,11.9593099 22.6660156,12.5087891 C21.9791667,12.7835286 21.4296875,13.1269531 21.0175781,13.5390625 C20.6054688,14.0885417 20.2620443,14.5693359 19.9873047,14.9814453 C19.7125651,15.5309245 19.5065104,15.9430339 19.3691406,16.2177734 C19.094401,16.6298828 18.9570312,17.0419922 18.9570312,17.4541016 C19.78125,17.4541016 20.8115234,17.4541016 22.0478516,17.4541016 C23.2841797,17.4541016 24.7265625,17.4541016 26.375,17.4541016 Z" transform="translate(-10)"/></svg>