<svg xmlns="http://www.w3.org/2000/svg" width="99" height="243" viewBox="0 0 99 243"><path fill="#131313" d="M93.2382812,92.1448103 C96.6822917,95.4390811 99.6770833,100.380487 102.222656,106.969029 C103.420573,110.2633 104.019531,114.231399 104.019531,118.873326 C104.019531,123.215774 103.420573,128.08231 102.222656,133.472935 C101.174479,138.713821 99.2278646,143.355748 96.3828125,147.398717 C93.6875,151.441685 90.1686198,154.885696 85.8261719,157.730748 C79.3873698,161.773717 72.3496094,164.09468 64.7128906,164.693638 C57.0761719,165.292597 50.5625,165.292597 45.171875,164.693638 C45.171875,180.266555 45.171875,203.62593 45.171875,234.771763 C45.171875,237.017857 44.4231771,238.889602 42.9257812,240.386998 C41.2786458,242.034133 39.3320312,242.857701 37.0859375,242.857701 C34.8398438,242.857701 32.8932292,242.034133 31.2460938,240.386998 C29.7486979,238.889602 29,237.017857 29,234.771763 C29,217.102493 29,190.673456 29,155.484654 C29,155.334914 29,155.260045 29,155.260045 C29,155.260045 29,155.185175 29,155.035435 C29,140.660435 29,118.948196 29,89.8987165 C29,87.9521019 29.5989583,86.3049665 30.796875,84.9573103 C31.8450521,83.4599144 33.3424479,82.4866071 35.2890625,82.0373884 C44.5729167,79.7912946 54.7552083,79.1174665 65.8359375,80.015904 C76.9166667,80.9143415 86.0507812,84.9573103 93.2382812,92.1448103 Z M87.328125,129.944261 C88.5260417,123.954677 88.750651,118.713792 88.0019531,114.221605 C87.2532552,109.879157 85.4563802,106.285407 82.6113281,103.440355 C78.718099,99.696865 73.327474,97.3010317 66.4394531,96.2528546 C59.7011719,95.3544171 52.8880208,95.4292869 46,96.4774639 C46,108.007412 46,125.227464 46,148.13762 C50.4921875,148.736579 55.8079427,148.811448 61.9472656,148.36223 C68.0865885,148.06275 73.4023438,146.490485 77.8945312,143.645433 C80.4401042,142.148037 82.4615885,140.276292 83.9589844,138.030198 C85.4563802,135.634365 86.5794271,132.939052 87.328125,129.944261 Z M55.4785156,66.0644531 C62.2167969,66.0644531 68.5058594,66.7382812 74.3457031,68.0859375 C80.0358073,69.5833333 85.2766927,71.6796875 90.0683594,74.375 C89.7688802,74.6744792 89.3196615,75.2734375 88.7207031,76.171875 C84.078776,73.6263021 78.9876302,71.6796875 73.4472656,70.3320312 C67.906901,68.984375 61.9173177,68.3105469 55.4785156,68.3105469 C53.2324219,68.3105469 50.9863281,68.4602865 48.7402344,68.7597656 C46.4941406,68.9095052 44.1731771,69.1341146 41.7773438,69.4335938 C41.7773438,69.1341146 41.7773438,68.9095052 41.7773438,68.7597656 C41.7773438,68.4602865 41.7773438,68.2356771 41.7773438,68.0859375 C41.7773438,67.9361979 41.7773438,67.7864583 41.7773438,67.6367188 C41.6276042,67.4869792 41.5527344,67.3372396 41.5527344,67.1875 C43.7988281,66.8880208 46.1197917,66.5885417 48.515625,66.2890625 C50.9114583,66.1393229 53.2324219,66.0644531 55.4785156,66.0644531 Z M38.1835938,73.7011719 C38.0338542,73.8509115 37.8841146,73.9257812 37.734375,73.9257812 C37.5846354,73.9257812 37.4348958,73.9257812 37.2851562,73.9257812 C37.4348958,73.9257812 37.5097656,73.9257812 37.5097656,73.9257812 C37.6595052,73.9257812 37.8092448,73.9257812 37.9589844,73.9257812 C37.9589844,73.9257812 38.0338542,73.9257812 38.1835938,73.9257812 C38.1835938,73.7760417 38.1835938,73.7011719 38.1835938,73.7011719 Z M37.734375,73.2519531 C38.7825521,73.1022135 39.6061198,72.6529948 40.2050781,71.9042969 C40.8040365,71.155599 41.1783854,70.3320312 41.328125,69.4335938 C41.328125,69.4335938 41.4029948,69.4335938 41.5527344,69.4335938 C41.702474,69.4335938 41.7773438,69.4335938 41.7773438,69.4335938 C41.7773438,70.4817708 41.4029948,71.3802083 40.6542969,72.1289062 C39.905599,73.0273438 39.0071615,73.5514323 37.9589844,73.7011719 C36.6113281,74.000651 35.4134115,73.7760417 34.3652344,73.0273438 C33.1673177,72.2786458 32.4186198,71.2304688 32.1191406,69.8828125 C31.8196615,68.6848958 32.0442708,67.4869792 32.7929688,66.2890625 C33.5416667,65.2408854 34.5898438,64.5670573 35.9375,64.2675781 C37.1354167,63.968099 38.2584635,64.1178385 39.3066406,64.7167969 C40.3548177,65.3157552 41.1035156,66.1393229 41.5527344,67.1875 C41.4029948,67.1875 41.2532552,67.1875 41.1035156,67.1875 C41.1035156,67.1875 41.0286458,67.1875 40.8789063,67.1875 C40.4296875,66.2890625 39.7558594,65.6152344 38.8574219,65.1660156 C37.9589844,64.7167969 37.0605469,64.5670573 36.1621094,64.7167969 C34.9641927,65.016276 34.0657552,65.6901042 33.4667969,66.7382812 C32.718099,67.6367188 32.4934896,68.6848958 32.7929688,69.8828125 C32.9427083,71.0807292 33.5416667,71.9791667 34.5898438,72.578125 C35.6380208,73.3268229 36.6861979,73.5514323 37.734375,73.2519531 Z M41.7773438,68.0859375 C41.7773438,68.2356771 41.7773438,68.4602865 41.7773438,68.7597656 C41.7773438,68.9095052 41.7773438,69.1341146 41.7773438,69.4335938 C41.7773438,69.4335938 41.702474,69.4335938 41.5527344,69.4335938 C41.4029948,69.4335938 41.328125,69.4335938 41.328125,69.4335938 C41.328125,69.2838542 41.328125,69.0592448 41.328125,68.7597656 C41.328125,68.610026 41.2532552,68.3854167 41.1035156,68.0859375 C41.1035156,67.9361979 41.1035156,67.7864583 41.1035156,67.6367188 C40.953776,67.4869792 40.8789062,67.3372396 40.8789062,67.1875 C41.0286458,67.1875 41.1035156,67.1875 41.1035156,67.1875 C41.2532552,67.1875 41.4029948,67.1875 41.5527344,67.1875 C41.5527344,67.3372396 41.5527344,67.4869792 41.5527344,67.6367188 C41.702474,67.7864583 41.7773438,67.9361979 41.7773438,68.0859375 Z M36.1621094,64.7167969 C37.0605469,64.5670573 37.9589844,64.7167969 38.8574219,65.1660156 C39.7558594,65.6152344 40.4296875,66.2890625 40.8789063,67.1875 C40.7291667,67.1875 40.6542969,67.1875 40.6542969,67.1875 C40.5045573,67.3372396 40.3548177,67.4121094 40.2050781,67.4121094 C39.905599,66.6634115 39.3815104,66.0644531 38.6328125,65.6152344 C37.8841146,65.3157552 37.0605469,65.2408854 36.1621094,65.390625 C36.311849,65.390625 36.4615885,65.390625 36.6113281,65.390625 C36.6113281,65.390625 36.6113281,65.390625 36.6113281,65.390625 C36.7610677,65.2408854 36.8359375,65.1660156 36.8359375,65.1660156 C36.8359375,65.1660156 36.8359375,65.1660156 36.8359375,65.1660156 C36.8359375,65.3157552 36.8359375,65.390625 36.8359375,65.390625 C36.8359375,65.390625 36.7610677,65.390625 36.6113281,65.390625 C36.6113281,65.390625 36.6113281,65.390625 36.6113281,65.390625 C36.4615885,65.390625 36.311849,65.390625 36.1621094,65.390625 C36.0123698,65.390625 35.9375,65.390625 35.9375,65.390625 C35.7877604,65.390625 35.7128906,65.390625 35.7128906,65.390625 C35.7128906,65.390625 35.7877604,65.390625 35.9375,65.390625 C36.0872396,65.390625 36.1621094,65.390625 36.1621094,65.390625 C35.2636719,65.5403646 34.514974,66.0644531 33.9160156,66.9628906 C33.3170573,67.8613281 33.0924479,68.8346354 33.2421875,69.8828125 C33.5416667,70.78125 34.0657552,71.5299479 34.8144531,72.1289062 C35.7128906,72.7278646 36.6861979,72.952474 37.734375,72.8027344 C38.4830729,72.6529948 39.156901,72.2786458 39.7558594,71.6796875 C40.2050781,71.0807292 40.5045573,70.406901 40.6542969,69.6582031 C40.8040365,69.6582031 40.8789063,69.5833333 40.8789063,69.4335938 C41.0286458,69.4335938 41.1783854,69.4335938 41.328125,69.4335938 C41.1783854,70.3320312 40.8040365,71.155599 40.2050781,71.9042969 C39.6061198,72.6529948 38.7825521,73.1022135 37.734375,73.2519531 C36.6861979,73.5514323 35.6380208,73.3268229 34.5898438,72.578125 C33.5416667,71.9791667 32.9427083,71.0807292 32.7929688,69.8828125 C32.4934896,68.6848958 32.718099,67.6367188 33.4667969,66.7382812 C34.0657552,65.6901042 34.9641927,65.016276 36.1621094,64.7167969 Z M40.6542969,68.3105469 C40.6542969,68.1608073 40.5794271,68.0110677 40.4296875,67.8613281 C40.4296875,67.7115885 40.3548177,67.4869792 40.2050781,67.1875 C40.3548177,67.1875 40.5045573,67.1875 40.6542969,67.1875 C40.6542969,67.1875 40.7291667,67.1875 40.8789062,67.1875 C40.8789062,67.3372396 40.953776,67.4869792 41.1035156,67.6367188 C41.1035156,67.7864583 41.1035156,67.9361979 41.1035156,68.0859375 C41.2532552,68.3854167 41.328125,68.610026 41.328125,68.7597656 C41.328125,69.0592448 41.328125,69.2838542 41.328125,69.4335938 C41.1783854,69.4335938 41.0286458,69.4335938 40.8789062,69.4335938 C40.8789062,69.4335938 40.8040365,69.5084635 40.6542969,69.6582031 C40.6542969,69.358724 40.6542969,69.1341146 40.6542969,68.984375 C40.6542969,68.6848958 40.6542969,68.4602865 40.6542969,68.3105469 Z M90.0683594,74.375 C90.3678385,73.9257812 90.8170573,73.2519531 91.4160156,72.3535156 C93.2128906,74.5996094 95.8333333,78.0436198 99.2773438,82.6855469 C96.5820312,81.4876302 92.6139323,79.8404948 87.3730469,77.7441406 C87.672526,77.2949219 88.046875,76.7708333 88.4960938,76.171875 C88.9453125,76.3216146 89.3196615,76.4713542 89.6191406,76.6210938 C89.9186198,76.9205729 90.2929688,77.1451823 90.7421875,77.2949219 C91.0416667,76.8457031 91.4160156,76.171875 91.8652344,75.2734375 C91.5657552,75.1236979 91.266276,74.9739583 90.9667969,74.8242188 C90.6673177,74.6744792 90.3678385,74.5247396 90.0683594,74.375 Z M91.8652344,75.2734375 C91.7154948,75.7226562 91.3411458,76.3964844 90.7421875,77.2949219 C90.4427083,77.1451823 90.0683594,76.9205729 89.6191406,76.6210938 C89.3196615,76.4713542 89.0201823,76.3216146 88.7207031,76.171875 C89.0201823,75.7226562 89.469401,75.1236979 90.0683594,74.375 C90.3678385,74.5247396 90.6673177,74.6744792 90.9667969,74.8242188 C91.266276,74.9739583 91.5657552,75.1236979 91.8652344,75.2734375 Z M17.2949219,97.0605469 C17.4446615,97.2102865 17.594401,97.2851562 17.7441406,97.2851562 C17.8938802,97.2851562 18.1184896,97.2851562 18.4179688,97.2851562 C18.5677083,97.2851562 18.7174479,97.2851562 18.8671875,97.2851562 C19.1666667,97.2851562 19.391276,97.2102865 19.5410156,97.0605469 C19.5410156,124.313151 19.5410156,165.192057 19.5410156,219.697266 C18.9420573,219.697266 18.1933594,219.697266 17.2949219,219.697266 C17.2949219,199.332682 17.2949219,178.893229 17.2949219,158.378906 C17.2949219,138.014323 17.2949219,117.57487 17.2949219,97.0605469 Z M17.2949219,221.943359 C17.2949219,221.494141 17.2949219,220.745443 17.2949219,219.697266 C16.6959635,219.697266 15.9472656,219.697266 15.0488281,219.697266 C15.797526,222.542318 16.9205729,226.735026 18.4179688,232.275391 C19.1666667,229.430339 20.2897135,225.23763 21.7871094,219.697266 C21.188151,219.697266 20.4394531,219.697266 19.5410156,219.697266 C19.5410156,220.296224 19.5410156,221.044922 19.5410156,221.943359 C18.9420573,221.943359 18.1933594,221.943359 17.2949219,221.943359 Z M17.2949219,221.943359 C17.7441406,221.943359 18.4928385,221.943359 19.5410156,221.943359 C19.5410156,221.494141 19.5410156,220.745443 19.5410156,219.697266 C18.9420573,219.697266 18.1933594,219.697266 17.2949219,219.697266 C17.2949219,220.296224 17.2949219,221.044922 17.2949219,221.943359 Z M18.4179688,87.4023438 C19.765625,87.4023438 20.8886719,87.9264323 21.7871094,88.9746094 C22.6855469,89.8730469 23.1347656,90.9960938 23.1347656,92.34375 C23.1347656,93.5416667 22.8352865,94.5898438 22.2363281,95.4882812 C21.4876302,96.2369792 20.5891927,96.7610677 19.5410156,97.0605469 C19.5410156,96.9108073 19.5410156,96.7610677 19.5410156,96.6113281 C20.4394531,96.311849 21.188151,95.7877604 21.7871094,95.0390625 C22.3860677,94.2903646 22.6855469,93.3919271 22.6855469,92.34375 C22.6855469,91.1458333 22.2363281,90.172526 21.3378906,89.4238281 C20.5891927,88.5253906 19.6158854,88.0761719 18.4179688,88.0761719 C17.2200521,88.0761719 16.171875,88.5253906 15.2734375,89.4238281 C14.375,90.172526 13.9257812,91.1458333 13.9257812,92.34375 C13.9257812,93.3919271 14.2252604,94.2903646 14.8242188,95.0390625 C15.4231771,95.7877604 16.2467448,96.311849 17.2949219,96.6113281 C17.2949219,96.6113281 17.2949219,96.7610677 17.2949219,97.0605469 C16.0970052,96.9108073 15.1985677,96.3867188 14.5996094,95.4882812 C13.8509115,94.5898438 13.4765625,93.5416667 13.4765625,92.34375 C13.4765625,90.9960938 13.9257812,89.8730469 14.8242188,88.9746094 C15.8723958,87.9264323 17.0703125,87.4023438 18.4179688,87.4023438 Z M18.4179688,96.6113281 C18.5677083,96.6113281 18.7174479,96.6113281 18.8671875,96.6113281 C19.1666667,96.6113281 19.391276,96.6113281 19.5410156,96.6113281 C19.5410156,96.6113281 19.5410156,96.7610677 19.5410156,97.0605469 C19.391276,97.2102865 19.1666667,97.2851562 18.8671875,97.2851562 C18.7174479,97.2851562 18.5677083,97.2851562 18.4179688,97.2851562 C18.1184896,97.2851562 17.8938802,97.2851562 17.7441406,97.2851562 C17.594401,97.2851562 17.4446615,97.2102865 17.2949219,97.0605469 C17.2949219,96.9108073 17.2949219,96.7610677 17.2949219,96.6113281 C17.4446615,96.6113281 17.594401,96.6113281 17.7441406,96.6113281 C17.8938802,96.6113281 18.1184896,96.6113281 18.4179688,96.6113281 Z M14.5996094,92.34375 C14.5996094,93.2421875 14.8242188,93.9908854 15.2734375,94.5898438 C15.8723958,95.1888021 16.546224,95.6380208 17.2949219,95.9375 C17.2949219,96.0872396 17.2949219,96.311849 17.2949219,96.6113281 C16.2467448,96.311849 15.4231771,95.7877604 14.8242188,95.0390625 C14.2252604,94.2903646 13.9257812,93.3919271 13.9257812,92.34375 C13.9257812,91.1458333 14.375,90.172526 15.2734375,89.4238281 C16.171875,88.5253906 17.2200521,88.0761719 18.4179688,88.0761719 C19.6158854,88.0761719 20.5891927,88.5253906 21.3378906,89.4238281 C22.2363281,90.172526 22.6855469,91.1458333 22.6855469,92.34375 C22.6855469,93.3919271 22.3860677,94.2903646 21.7871094,95.0390625 C21.188151,95.7877604 20.4394531,96.311849 19.5410156,96.6113281 C19.5410156,96.4615885 19.5410156,96.2369792 19.5410156,95.9375 C20.2897135,95.6380208 20.8886719,95.1888021 21.3378906,94.5898438 C21.7871094,93.9908854 22.0117188,93.2421875 22.0117188,92.34375 C22.0117188,91.2955729 21.6373698,90.3971354 20.8886719,89.6484375 C20.2897135,88.8997396 19.4661458,88.5253906 18.4179688,88.5253906 C17.3697917,88.5253906 16.4713542,88.8997396 15.7226562,89.6484375 C14.9739583,90.3971354 14.5996094,91.2955729 14.5996094,92.34375 C14.5996094,92.1940104 14.5996094,92.0442708 14.5996094,91.8945312 C14.5996094,91.7447917 14.5996094,91.6699219 14.5996094,91.6699219 C14.5996094,91.6699219 14.5996094,91.7447917 14.5996094,91.8945312 C14.5996094,92.0442708 14.5996094,92.1940104 14.5996094,92.34375 C14.5996094,92.4934896 14.5996094,92.6432292 14.5996094,92.7929688 C14.5996094,92.9427083 14.5996094,93.0175781 14.5996094,93.0175781 C14.5996094,93.0175781 14.5996094,92.9427083 14.5996094,92.7929688 C14.5996094,92.6432292 14.5996094,92.4934896 14.5996094,92.34375 Z M19.5410156,96.6113281 C19.391276,96.6113281 19.1666667,96.6113281 18.8671875,96.6113281 C18.7174479,96.6113281 18.5677083,96.6113281 18.4179688,96.6113281 C18.1184896,96.6113281 17.8938802,96.6113281 17.7441406,96.6113281 C17.594401,96.6113281 17.4446615,96.6113281 17.2949219,96.6113281 C17.2949219,96.4615885 17.2949219,96.2369792 17.2949219,95.9375 C17.4446615,95.9375 17.594401,96.0123698 17.7441406,96.1621094 C17.8938802,96.1621094 18.1184896,96.1621094 18.4179688,96.1621094 C18.5677083,96.1621094 18.7174479,96.1621094 18.8671875,96.1621094 C19.1666667,96.0123698 19.391276,95.9375 19.5410156,95.9375 C19.5410156,96.0872396 19.5410156,96.1621094 19.5410156,96.1621094 C19.5410156,96.311849 19.5410156,96.4615885 19.5410156,96.6113281 Z M3.81835938,90.9960938 C3.81835938,90.9960938 3.89322917,91.0709635 4.04296875,91.2207031 C4.04296875,91.2207031 4.04296875,91.2955729 4.04296875,91.4453125 C4.19270833,91.4453125 4.26757812,91.5201823 4.26757812,91.6699219 C4.26757812,91.6699219 4.26757812,91.7447917 4.26757812,91.8945312 C4.26757812,93.6914062 4.26757812,96.0123698 4.26757812,98.8574219 C4.26757812,101.552734 4.26757812,104.772135 4.26757812,108.515625 C4.26757812,108.665365 4.26757812,108.815104 4.26757812,108.964844 C4.11783854,108.964844 4.04296875,109.039714 4.04296875,109.189453 C3.89322917,109.339193 3.74348958,109.414062 3.59375,109.414062 C3.59375,109.414062 3.51888021,109.414062 3.36914062,109.414062 C3.21940104,109.414062 3.06966146,109.414062 2.91992188,109.414062 C2.77018229,109.414062 2.6953125,109.339193 2.6953125,109.189453 C2.54557292,109.039714 2.47070312,108.964844 2.47070312,108.964844 C2.32096354,108.815104 2.24609375,108.665365 2.24609375,108.515625 C2.24609375,106.86849 2.24609375,104.921875 2.24609375,102.675781 C2.24609375,100.279948 2.24609375,97.4348958 2.24609375,94.140625 C2.24609375,94.2903646 2.17122396,94.4401042 2.02148438,94.5898438 C1.87174479,94.5898438 1.72200521,94.6647135 1.57226562,94.8144531 C1.57226562,94.9641927 1.49739583,95.0390625 1.34765625,95.0390625 C1.19791667,95.1888021 1.04817708,95.2636719 0.8984375,95.2636719 C0.8984375,95.2636719 0.823567708,95.1888021 0.673828125,95.0390625 C0.524088542,95.0390625 0.374348958,94.9641927 0.224609375,94.8144531 C0.224609375,94.8144531 0.149739583,94.7395833 0,94.5898438 C0,94.4401042 0,94.2903646 0,94.140625 C0,94.140625 0,94.0657552 0,93.9160156 C0.149739583,93.766276 0.224609375,93.6165365 0.224609375,93.4667969 C0.524088542,93.3170573 0.8984375,93.0175781 1.34765625,92.5683594 C1.64713542,92.1191406 2.09635417,91.6699219 2.6953125,91.2207031 C2.6953125,91.0709635 2.77018229,90.9960938 2.91992188,90.9960938 C2.91992188,90.9960938 2.99479167,90.9960938 3.14453125,90.9960938 C3.14453125,90.9960938 3.21940104,90.9960938 3.36914062,90.9960938 C3.36914062,90.9960938 3.36914062,90.9960938 3.36914062,90.9960938 C3.36914062,90.9960938 3.44401042,90.9960938 3.59375,90.9960938 C3.59375,90.9960938 3.66861979,90.9960938 3.81835938,90.9960938 Z M23.8085938,73.2519531 C23.9583333,73.2519531 24.1080729,73.3268229 24.2578125,73.4765625 C24.4075521,73.4765625 24.4824219,73.5514323 24.4824219,73.7011719 C24.6321615,73.7011719 24.7070312,73.7760417 24.7070312,73.9257812 C24.8567708,74.0755208 24.9316406,74.2252604 24.9316406,74.375 C24.9316406,74.5247396 24.8567708,74.5996094 24.7070312,74.5996094 C24.7070312,74.749349 24.6321615,74.8990885 24.4824219,75.0488281 C24.4824219,75.0488281 24.4075521,75.1236979 24.2578125,75.2734375 C24.1080729,75.2734375 23.9583333,75.2734375 23.8085938,75.2734375 C23.0598958,75.2734375 22.3111979,75.2734375 21.5625,75.2734375 C20.8138021,75.2734375 19.9902344,75.2734375 19.0917969,75.2734375 C18.343099,75.2734375 17.594401,75.2734375 16.8457031,75.2734375 C16.0970052,75.2734375 15.2734375,75.2734375 14.375,75.2734375 C14.375,75.2734375 14.375,75.2734375 14.375,75.2734375 C14.2252604,75.2734375 14.1503906,75.2734375 14.1503906,75.2734375 C14.000651,75.2734375 13.9257812,75.1985677 13.9257812,75.0488281 C13.9257812,75.0488281 13.8509115,75.0488281 13.7011719,75.0488281 C13.7011719,74.8990885 13.7011719,74.8242188 13.7011719,74.8242188 C13.7011719,74.8242188 13.6263021,74.749349 13.4765625,74.5996094 C13.4765625,74.5996094 13.4765625,74.5247396 13.4765625,74.375 C13.4765625,74.375 13.4765625,74.375 13.4765625,74.375 C13.4765625,74.375 13.4765625,74.375 13.4765625,74.375 C13.4765625,74.2252604 13.4765625,74.1503906 13.4765625,74.1503906 C13.4765625,74.1503906 13.5514323,74.0755208 13.7011719,73.9257812 C13.7011719,73.6263021 13.7011719,73.2519531 13.7011719,72.8027344 C13.8509115,72.3535156 14.0755208,71.9042969 14.375,71.4550781 C14.5247396,70.8561198 14.8242188,70.2571615 15.2734375,69.6582031 C15.4231771,69.358724 15.6477865,69.0592448 15.9472656,68.7597656 C16.0970052,68.4602865 16.3216146,68.1608073 16.6210938,67.8613281 C16.9205729,67.561849 17.2200521,67.3372396 17.5195312,67.1875 C17.96875,66.8880208 18.343099,66.5885417 18.6425781,66.2890625 C19.5410156,65.6901042 20.2897135,65.1660156 20.8886719,64.7167969 C21.3378906,64.2675781 21.7122396,63.8932292 22.0117188,63.59375 C22.1614583,63.1445312 22.3111979,62.7701823 22.4609375,62.4707031 C22.6106771,62.171224 22.6855469,61.8717448 22.6855469,61.5722656 C22.6855469,61.422526 22.6855469,61.2727865 22.6855469,61.1230469 C22.6855469,61.1230469 22.6106771,61.0481771 22.4609375,60.8984375 C22.4609375,60.7486979 22.4609375,60.5989583 22.4609375,60.4492188 C22.4609375,60.4492188 22.4609375,60.374349 22.4609375,60.2246094 C22.3111979,60.0748698 22.1614583,59.8502604 22.0117188,59.5507812 C21.8619792,59.4010417 21.6373698,59.2513021 21.3378906,59.1015625 C21.188151,58.9518229 20.8886719,58.8020833 20.4394531,58.6523438 C20.139974,58.6523438 19.765625,58.6523438 19.3164062,58.6523438 C18.8671875,58.6523438 18.4928385,58.6523438 18.1933594,58.6523438 C17.8938802,58.8020833 17.594401,58.9518229 17.2949219,59.1015625 C16.9954427,59.2513021 16.7708333,59.4759115 16.6210938,59.7753906 C16.4713542,59.9251302 16.3216146,60.1497396 16.171875,60.4492188 C16.0221354,60.5989583 15.9472656,60.7486979 15.9472656,60.8984375 C15.797526,60.8984375 15.6477865,60.8984375 15.4980469,60.8984375 C15.3483073,61.0481771 15.1985677,61.1230469 15.0488281,61.1230469 C15.0488281,61.1230469 14.9739583,61.0481771 14.8242188,60.8984375 C14.6744792,60.8984375 14.5247396,60.8235677 14.375,60.6738281 C14.375,60.6738281 14.375,60.5989583 14.375,60.4492188 C14.2252604,60.2994792 14.1503906,60.1497396 14.1503906,60 C14.1503906,59.8502604 14.2252604,59.7753906 14.375,59.7753906 C14.5247396,59.1764323 14.749349,58.7272135 15.0488281,58.4277344 C15.4980469,57.9785156 15.8723958,57.6790365 16.171875,57.5292969 C16.6210938,57.2298177 17.0703125,57.0052083 17.5195312,56.8554688 C18.1184896,56.7057292 18.6425781,56.6308594 19.0917969,56.6308594 C20.139974,56.6308594 21.0384115,56.780599 21.7871094,57.0800781 C22.3860677,57.3795573 22.9101562,57.7539062 23.359375,58.203125 C23.8085938,58.8020833 24.1080729,59.3261719 24.2578125,59.7753906 C24.4075521,60.374349 24.4824219,60.9733073 24.4824219,61.5722656 C24.4824219,62.171224 24.4075521,62.6953125 24.2578125,63.1445312 C24.1080729,63.7434896 23.8085938,64.3424479 23.359375,64.9414062 C23.0598958,65.390625 22.6106771,65.8398438 22.0117188,66.2890625 C21.4127604,66.8880208 20.6640625,67.4121094 19.765625,67.8613281 C19.1666667,68.3105469 18.5677083,68.7597656 17.96875,69.2089844 C17.5195312,69.6582031 17.1451823,70.1822917 16.8457031,70.78125 C16.546224,71.2304688 16.3216146,71.6796875 16.171875,72.1289062 C16.0221354,72.578125 15.8723958,72.952474 15.7226562,73.2519531 C16.6210938,73.2519531 17.7441406,73.2519531 19.0917969,73.2519531 C20.4394531,73.2519531 22.0117188,73.2519531 23.8085938,73.2519531 Z" transform="translate(-17.428)"/></svg>