<svg xmlns="http://www.w3.org/2000/svg" width="99" height="203" viewBox="0 0 99 203"><path fill="#131313" d="M3658.81055,80.1448103 C3662.25456,83.4390811 3665.24935,88.3804874 3667.79492,94.969029 C3668.99284,98.2632999 3669.5918,102.231399 3669.5918,106.873326 C3669.5918,111.215774 3668.99284,116.08231 3667.79492,121.472935 C3666.74674,126.713821 3664.80013,131.355748 3661.95508,135.398717 C3659.25977,139.441685 3655.74089,142.885696 3651.39844,145.730748 C3644.95964,149.773717 3637.92187,152.09468 3630.28516,152.693638 C3622.64844,153.292597 3616.13477,153.292597 3610.74414,152.693638 C3610.74414,168.266555 3610.74414,175.62593 3610.74414,206.771763 C3610.74414,209.017857 3609.99544,210.889602 3608.49805,212.386998 C3606.85091,214.034133 3604.9043,214.857701 3602.6582,214.857701 C3600.41211,214.857701 3598.46549,214.034133 3596.81836,212.386998 C3595.32096,210.889602 3594.57227,209.017857 3594.57227,206.771763 C3594.57227,189.102493 3594.57227,178.673456 3594.57227,143.484654 C3594.57227,143.334914 3594.57227,143.260045 3594.57227,143.260045 C3594.57227,143.260045 3594.57227,143.185175 3594.57227,143.035435 C3594.57227,128.660435 3594.57227,106.948196 3594.57227,77.8987165 C3594.57227,75.9521019 3595.17122,74.3049665 3596.36914,72.9573103 C3597.41732,71.4599144 3598.91471,70.4866071 3600.86133,70.0373884 C3610.14518,67.7912946 3620.32747,67.1174665 3631.4082,68.015904 C3642.48893,68.9143415 3651.62305,72.9573103 3658.81055,80.1448103 Z M3652.90039,117.944261 C3654.09831,111.954677 3654.32292,106.713792 3653.57422,102.221605 C3652.82552,97.8791567 3651.02865,94.2854067 3648.18359,91.4403546 C3644.29036,87.696865 3638.89974,85.3010317 3632.01172,84.2528546 C3625.27344,83.3544171 3618.46029,83.4292869 3611.57227,84.4774639 C3611.57227,96.0074119 3611.57227,113.227464 3611.57227,136.13762 C3616.06445,136.736579 3621.38021,136.811448 3627.51953,136.36223 C3633.65885,136.06275 3638.97461,134.490485 3643.4668,131.645433 C3646.01237,130.148037 3648.03385,128.276292 3649.53125,126.030198 C3651.02865,123.634365 3652.15169,120.939052 3652.90039,117.944261 Z M3621.05078,54.0644531 C3627.78906,54.0644531 3634.07812,54.7382812 3639.91797,56.0859375 C3645.60807,57.5833333 3650.84896,59.6796875 3655.64062,62.375 C3655.34115,62.6744792 3654.89193,63.2734375 3654.29297,64.171875 C3649.65104,61.6263021 3644.5599,59.6796875 3639.01953,58.3320312 C3633.47917,56.984375 3627.48958,56.3105469 3621.05078,56.3105469 C3618.80469,56.3105469 3616.55859,56.4602865 3614.3125,56.7597656 C3612.06641,56.9095052 3609.74544,57.1341146 3607.34961,57.4335938 C3607.34961,57.1341146 3607.34961,56.9095052 3607.34961,56.7597656 C3607.34961,56.4602865 3607.34961,56.2356771 3607.34961,56.0859375 C3607.34961,55.9361979 3607.34961,55.7864583 3607.34961,55.6367188 C3607.19987,55.4869792 3607.125,55.3372396 3607.125,55.1875 C3609.37109,54.8880208 3611.69206,54.5885417 3614.08789,54.2890625 C3616.48372,54.1393229 3618.80469,54.0644531 3621.05078,54.0644531 Z M3603.75586,61.7011719 C3603.60612,61.8509115 3603.45638,61.9257812 3603.30664,61.9257812 C3603.1569,61.9257812 3603.00716,61.9257812 3602.85742,61.9257812 C3603.00716,61.9257812 3603.08203,61.9257812 3603.08203,61.9257812 C3603.23177,61.9257812 3603.38151,61.9257812 3603.53125,61.9257812 C3603.53125,61.9257812 3603.60612,61.9257812 3603.75586,61.9257812 C3603.75586,61.7760417 3603.75586,61.7011719 3603.75586,61.7011719 Z M3603.30664,61.2519531 C3604.35482,61.1022135 3605.17839,60.6529948 3605.77734,59.9042969 C3606.3763,59.155599 3606.75065,58.3320313 3606.90039,57.4335938 C3606.90039,57.4335938 3606.97526,57.4335938 3607.125,57.4335938 C3607.27474,57.4335938 3607.34961,57.4335938 3607.34961,57.4335938 C3607.34961,58.4817708 3606.97526,59.3802083 3606.22656,60.1289063 C3605.47786,61.0273438 3604.57943,61.5514323 3603.53125,61.7011719 C3602.18359,62.000651 3600.98568,61.7760417 3599.9375,61.0273438 C3598.73958,60.2786458 3597.99089,59.2304688 3597.69141,57.8828125 C3597.39193,56.6848958 3597.61654,55.4869792 3598.36523,54.2890625 C3599.11393,53.2408854 3600.16211,52.5670573 3601.50977,52.2675781 C3602.70768,51.968099 3603.83073,52.1178385 3604.87891,52.7167969 C3605.92708,53.3157552 3606.67578,54.1393229 3607.125,55.1875 C3606.97526,55.1875 3606.82552,55.1875 3606.67578,55.1875 C3606.67578,55.1875 3606.60091,55.1875 3606.45117,55.1875 C3606.00195,54.2890625 3605.32812,53.6152344 3604.42969,53.1660156 C3603.53125,52.7167969 3602.63281,52.5670573 3601.73437,52.7167969 C3600.53646,53.016276 3599.63802,53.6901042 3599.03906,54.7382813 C3598.29036,55.6367188 3598.06576,56.6848958 3598.36523,57.8828125 C3598.51497,59.0807292 3599.11393,59.9791667 3600.16211,60.578125 C3601.21029,61.3268229 3602.25846,61.5514323 3603.30664,61.2519531 Z M3607.34961,56.0859375 C3607.34961,56.2356771 3607.34961,56.4602865 3607.34961,56.7597656 C3607.34961,56.9095052 3607.34961,57.1341146 3607.34961,57.4335938 C3607.34961,57.4335938 3607.27474,57.4335938 3607.125,57.4335938 C3606.97526,57.4335938 3606.90039,57.4335938 3606.90039,57.4335938 C3606.90039,57.2838542 3606.90039,57.0592448 3606.90039,56.7597656 C3606.90039,56.610026 3606.82552,56.3854167 3606.67578,56.0859375 C3606.67578,55.9361979 3606.67578,55.7864583 3606.67578,55.6367188 C3606.52604,55.4869792 3606.45117,55.3372396 3606.45117,55.1875 C3606.60091,55.1875 3606.67578,55.1875 3606.67578,55.1875 C3606.82552,55.1875 3606.97526,55.1875 3607.125,55.1875 C3607.125,55.3372396 3607.125,55.4869792 3607.125,55.6367188 C3607.27474,55.7864583 3607.34961,55.9361979 3607.34961,56.0859375 Z M3601.73437,52.7167969 C3602.63281,52.5670573 3603.53125,52.7167969 3604.42969,53.1660156 C3605.32812,53.6152344 3606.00195,54.2890625 3606.45117,55.1875 C3606.30143,55.1875 3606.22656,55.1875 3606.22656,55.1875 C3606.07682,55.3372396 3605.92708,55.4121094 3605.77734,55.4121094 C3605.47786,54.6634115 3604.95378,54.0644531 3604.20508,53.6152344 C3603.45638,53.3157552 3602.63281,53.2408854 3601.73437,53.390625 C3601.88411,53.390625 3602.03385,53.390625 3602.18359,53.390625 C3602.18359,53.390625 3602.18359,53.390625 3602.18359,53.390625 C3602.33333,53.2408854 3602.4082,53.1660156 3602.4082,53.1660156 C3602.4082,53.1660156 3602.4082,53.1660156 3602.4082,53.1660156 C3602.4082,53.3157552 3602.4082,53.390625 3602.4082,53.390625 C3602.4082,53.390625 3602.33333,53.390625 3602.18359,53.390625 C3602.18359,53.390625 3602.18359,53.390625 3602.18359,53.390625 C3602.03385,53.390625 3601.88411,53.390625 3601.73437,53.390625 C3601.58464,53.390625 3601.50977,53.390625 3601.50977,53.390625 C3601.36003,53.390625 3601.28516,53.390625 3601.28516,53.390625 C3601.28516,53.390625 3601.36003,53.390625 3601.50977,53.390625 C3601.65951,53.390625 3601.73437,53.390625 3601.73437,53.390625 C3600.83594,53.5403646 3600.08724,54.0644531 3599.48828,54.9628906 C3598.88932,55.8613281 3598.66471,56.8346354 3598.81445,57.8828125 C3599.11393,58.78125 3599.63802,59.5299479 3600.38672,60.1289062 C3601.28516,60.7278646 3602.25846,60.952474 3603.30664,60.8027344 C3604.05534,60.6529948 3604.72917,60.2786458 3605.32812,59.6796875 C3605.77734,59.0807292 3606.07682,58.406901 3606.22656,57.6582031 C3606.3763,57.6582031 3606.45117,57.5833333 3606.45117,57.4335938 C3606.60091,57.4335938 3606.75065,57.4335938 3606.90039,57.4335938 C3606.75065,58.3320312 3606.3763,59.155599 3605.77734,59.9042969 C3605.17839,60.6529948 3604.35482,61.1022135 3603.30664,61.2519531 C3602.25846,61.5514323 3601.21029,61.3268229 3600.16211,60.578125 C3599.11393,59.9791667 3598.51497,59.0807292 3598.36523,57.8828125 C3598.06576,56.6848958 3598.29036,55.6367188 3599.03906,54.7382812 C3599.63802,53.6901042 3600.53646,53.016276 3601.73437,52.7167969 Z M3606.22656,56.3105469 C3606.22656,56.1608073 3606.15169,56.0110677 3606.00195,55.8613281 C3606.00195,55.7115885 3605.92708,55.4869792 3605.77734,55.1875 C3605.92708,55.1875 3606.07682,55.1875 3606.22656,55.1875 C3606.22656,55.1875 3606.30143,55.1875 3606.45117,55.1875 C3606.45117,55.3372396 3606.52604,55.4869792 3606.67578,55.6367188 C3606.67578,55.7864583 3606.67578,55.9361979 3606.67578,56.0859375 C3606.82552,56.3854167 3606.90039,56.610026 3606.90039,56.7597656 C3606.90039,57.0592448 3606.90039,57.2838542 3606.90039,57.4335938 C3606.75065,57.4335938 3606.60091,57.4335938 3606.45117,57.4335938 C3606.45117,57.4335938 3606.3763,57.5084635 3606.22656,57.6582031 C3606.22656,57.358724 3606.22656,57.1341146 3606.22656,56.984375 C3606.22656,56.6848958 3606.22656,56.4602865 3606.22656,56.3105469 Z M3655.64062,62.375 C3655.9401,61.9257812 3656.38932,61.2519531 3656.98828,60.3535156 C3658.78516,62.5996094 3661.4056,66.0436198 3664.84961,70.6855469 C3662.1543,69.4876302 3658.1862,67.8404948 3652.94531,65.7441406 C3653.24479,65.2949219 3653.61914,64.7708333 3654.06836,64.171875 C3654.51758,64.3216146 3654.89193,64.4713542 3655.19141,64.6210938 C3655.49089,64.9205729 3655.86523,65.1451823 3656.31445,65.2949219 C3656.61393,64.8457031 3656.98828,64.171875 3657.4375,63.2734375 C3657.13802,63.1236979 3656.83854,62.9739583 3656.53906,62.8242188 C3656.23958,62.6744792 3655.9401,62.5247396 3655.64062,62.375 Z M3657.4375,63.2734375 C3657.28776,63.7226562 3656.91341,64.3964844 3656.31445,65.2949219 C3656.01497,65.1451823 3655.64062,64.9205729 3655.19141,64.6210938 C3654.89193,64.4713542 3654.59245,64.3216146 3654.29297,64.171875 C3654.59245,63.7226562 3655.04167,63.1236979 3655.64062,62.375 C3655.9401,62.5247396 3656.23958,62.6744792 3656.53906,62.8242188 C3656.83854,62.9739583 3657.13802,63.1236979 3657.4375,63.2734375 Z M3582.86719,85.0605469 C3583.01693,85.2102865 3583.16667,85.2851562 3583.31641,85.2851562 C3583.46615,85.2851562 3583.69076,85.2851562 3583.99023,85.2851562 C3584.13997,85.2851562 3584.28971,85.2851562 3584.43945,85.2851562 C3584.73893,85.2851562 3584.96354,85.2102865 3585.11328,85.0605469 C3585.11328,112.313151 3585.11328,147.192057 3585.11328,201.697266 C3584.51432,201.697266 3583.76562,201.697266 3582.86719,201.697266 C3582.86719,181.332682 3582.86719,166.893229 3582.86719,146.378906 C3582.86719,126.014323 3582.86719,105.57487 3582.86719,85.0605469 Z M3580.62109,201.697266 C3581.36979,204.542318 3582.49284,208.735026 3583.99023,214.275391 C3584.73893,211.430339 3585.86198,207.23763 3587.35937,201.697266 C3586.76042,201.697266 3581.51953,201.697266 3580.62109,201.697266 Z M3583.99023,75.4023438 C3585.33789,75.4023438 3586.46094,75.9264323 3587.35937,76.9746094 C3588.25781,77.8730469 3588.70703,78.9960938 3588.70703,80.34375 C3588.70703,81.5416667 3588.40755,82.5898438 3587.80859,83.4882812 C3587.0599,84.2369792 3586.16146,84.7610677 3585.11328,85.0605469 C3585.11328,84.9108073 3585.11328,84.7610677 3585.11328,84.6113281 C3586.01172,84.311849 3586.76042,83.7877604 3587.35937,83.0390625 C3587.95833,82.2903646 3588.25781,81.3919271 3588.25781,80.34375 C3588.25781,79.1458333 3587.80859,78.172526 3586.91016,77.4238281 C3586.16146,76.5253906 3585.18815,76.0761719 3583.99023,76.0761719 C3582.79232,76.0761719 3581.74414,76.5253906 3580.8457,77.4238281 C3579.94727,78.172526 3579.49805,79.1458333 3579.49805,80.34375 C3579.49805,81.3919271 3579.79753,82.2903646 3580.39648,83.0390625 C3580.99544,83.7877604 3581.81901,84.311849 3582.86719,84.6113281 C3582.86719,84.6113281 3582.86719,84.7610677 3582.86719,85.0605469 C3581.66927,84.9108073 3580.77083,84.3867188 3580.17187,83.4882812 C3579.42318,82.5898438 3579.04883,81.5416667 3579.04883,80.34375 C3579.04883,78.9960938 3579.49805,77.8730469 3580.39648,76.9746094 C3581.44466,75.9264323 3582.64258,75.4023438 3583.99023,75.4023438 Z M3583.99023,84.6113281 C3584.13997,84.6113281 3584.28971,84.6113281 3584.43945,84.6113281 C3584.73893,84.6113281 3584.96354,84.6113281 3585.11328,84.6113281 C3585.11328,84.6113281 3585.11328,84.7610677 3585.11328,85.0605469 C3584.96354,85.2102865 3584.73893,85.2851562 3584.43945,85.2851562 C3584.28971,85.2851562 3584.13997,85.2851562 3583.99023,85.2851562 C3583.69076,85.2851562 3583.46615,85.2851562 3583.31641,85.2851562 C3583.16667,85.2851562 3583.01693,85.2102865 3582.86719,85.0605469 C3582.86719,84.9108073 3582.86719,84.7610677 3582.86719,84.6113281 C3583.01693,84.6113281 3583.16667,84.6113281 3583.31641,84.6113281 C3583.46615,84.6113281 3583.69076,84.6113281 3583.99023,84.6113281 Z M3580.17187,80.34375 C3580.17187,81.2421875 3580.39648,81.9908854 3580.8457,82.5898438 C3581.44466,83.1888021 3582.11849,83.6380208 3582.86719,83.9375 C3582.86719,84.0872396 3582.86719,84.311849 3582.86719,84.6113281 C3581.81901,84.311849 3580.99544,83.7877604 3580.39648,83.0390625 C3579.79753,82.2903646 3579.49805,81.3919271 3579.49805,80.34375 C3579.49805,79.1458333 3579.94727,78.172526 3580.8457,77.4238281 C3581.74414,76.5253906 3582.79232,76.0761719 3583.99023,76.0761719 C3585.18815,76.0761719 3586.16146,76.5253906 3586.91016,77.4238281 C3587.80859,78.172526 3588.25781,79.1458333 3588.25781,80.34375 C3588.25781,81.3919271 3587.95833,82.2903646 3587.35937,83.0390625 C3586.76042,83.7877604 3586.01172,84.311849 3585.11328,84.6113281 C3585.11328,84.4615885 3585.11328,84.2369792 3585.11328,83.9375 C3585.86198,83.6380208 3586.46094,83.1888021 3586.91016,82.5898438 C3587.35937,81.9908854 3587.58398,81.2421875 3587.58398,80.34375 C3587.58398,79.2955729 3587.20964,78.3971354 3586.46094,77.6484375 C3585.86198,76.8997396 3585.03841,76.5253906 3583.99023,76.5253906 C3582.94206,76.5253906 3582.04362,76.8997396 3581.29492,77.6484375 C3580.54622,78.3971354 3580.17187,79.2955729 3580.17187,80.34375 C3580.17187,80.1940104 3580.17187,80.0442708 3580.17187,79.8945312 C3580.17187,79.7447917 3580.17187,79.6699219 3580.17187,79.6699219 C3580.17187,79.6699219 3580.17187,79.7447917 3580.17187,79.8945312 C3580.17187,80.0442708 3580.17187,80.1940104 3580.17187,80.34375 C3580.17187,80.4934896 3580.17187,80.6432292 3580.17187,80.7929688 C3580.17187,80.9427083 3580.17187,81.0175781 3580.17187,81.0175781 C3580.17187,81.0175781 3580.17187,80.9427083 3580.17187,80.7929688 C3580.17187,80.6432292 3580.17187,80.4934896 3580.17187,80.34375 Z M3585.11328,84.6113281 C3584.96354,84.6113281 3584.73893,84.6113281 3584.43945,84.6113281 C3584.28971,84.6113281 3584.13997,84.6113281 3583.99023,84.6113281 C3583.69076,84.6113281 3583.46615,84.6113281 3583.31641,84.6113281 C3583.16667,84.6113281 3583.01693,84.6113281 3582.86719,84.6113281 C3582.86719,84.4615885 3582.86719,84.2369792 3582.86719,83.9375 C3583.01693,83.9375 3583.16667,84.0123698 3583.31641,84.1621094 C3583.46615,84.1621094 3583.69076,84.1621094 3583.99023,84.1621094 C3584.13997,84.1621094 3584.28971,84.1621094 3584.43945,84.1621094 C3584.73893,84.0123698 3584.96354,83.9375 3585.11328,83.9375 C3585.11328,84.0872396 3585.11328,84.1621094 3585.11328,84.1621094 C3585.11328,84.311849 3585.11328,84.4615885 3585.11328,84.6113281 Z M3569.39062,78.9960938 C3569.39062,78.9960938 3569.46549,79.0709635 3569.61523,79.2207031 C3569.61523,79.2207031 3569.61523,79.2955729 3569.61523,79.4453125 C3569.76497,79.4453125 3569.83984,79.5201823 3569.83984,79.6699219 C3569.83984,79.6699219 3569.83984,79.7447917 3569.83984,79.8945312 C3569.83984,81.6914062 3569.83984,84.0123698 3569.83984,86.8574219 C3569.83984,89.5527344 3569.83984,92.7721354 3569.83984,96.515625 C3569.83984,96.6653646 3569.83984,96.8151042 3569.83984,96.9648438 C3569.6901,96.9648438 3569.61523,97.0397135 3569.61523,97.1894531 C3569.46549,97.3391927 3569.31576,97.4140625 3569.16602,97.4140625 C3569.16602,97.4140625 3569.09115,97.4140625 3568.94141,97.4140625 C3568.79167,97.4140625 3568.64193,97.4140625 3568.49219,97.4140625 C3568.34245,97.4140625 3568.26758,97.3391927 3568.26758,97.1894531 C3568.11784,97.0397135 3568.04297,96.9648438 3568.04297,96.9648438 C3567.89323,96.8151042 3567.81836,96.6653646 3567.81836,96.515625 C3567.81836,94.8684896 3567.81836,92.921875 3567.81836,90.6757812 C3567.81836,88.2799479 3567.81836,85.4348958 3567.81836,82.140625 C3567.81836,82.2903646 3567.74349,82.4401042 3567.59375,82.5898438 C3567.44401,82.5898438 3567.29427,82.6647135 3567.14453,82.8144531 C3567.14453,82.9641927 3567.06966,83.0390625 3566.91992,83.0390625 C3566.77018,83.1888021 3566.62044,83.2636719 3566.4707,83.2636719 C3566.4707,83.2636719 3566.39583,83.1888021 3566.24609,83.0390625 C3566.09635,83.0390625 3565.94661,82.9641927 3565.79687,82.8144531 C3565.79687,82.8144531 3565.72201,82.7395833 3565.57227,82.5898438 C3565.57227,82.4401042 3565.57227,82.2903646 3565.57227,82.140625 C3565.57227,82.140625 3565.57227,82.0657552 3565.57227,81.9160156 C3565.72201,81.766276 3565.79687,81.6165365 3565.79687,81.4667969 C3566.09635,81.3170573 3566.4707,81.0175781 3566.91992,80.5683594 C3567.2194,80.1191406 3567.66862,79.6699219 3568.26758,79.2207031 C3568.26758,79.0709635 3568.34245,78.9960938 3568.49219,78.9960938 C3568.49219,78.9960938 3568.56706,78.9960938 3568.7168,78.9960938 C3568.7168,78.9960938 3568.79167,78.9960938 3568.94141,78.9960938 C3568.94141,78.9960938 3568.94141,78.9960938 3568.94141,78.9960938 C3568.94141,78.9960938 3569.01628,78.9960938 3569.16602,78.9960938 C3569.16602,78.9960938 3569.24089,78.9960938 3569.39062,78.9960938 Z M3589.38086,61.2519531 C3589.5306,61.2519531 3589.68034,61.3268229 3589.83008,61.4765625 C3589.97982,61.4765625 3590.05469,61.5514323 3590.05469,61.7011719 C3590.20443,61.7011719 3590.2793,61.7760417 3590.2793,61.9257812 C3590.42904,62.0755208 3590.50391,62.2252604 3590.50391,62.375 C3590.50391,62.5247396 3590.42904,62.5996094 3590.2793,62.5996094 C3590.2793,62.749349 3590.20443,62.8990885 3590.05469,63.0488281 C3590.05469,63.0488281 3589.97982,63.1236979 3589.83008,63.2734375 C3589.68034,63.2734375 3589.5306,63.2734375 3589.38086,63.2734375 C3588.63216,63.2734375 3587.88346,63.2734375 3587.13477,63.2734375 C3586.38607,63.2734375 3585.5625,63.2734375 3584.66406,63.2734375 C3583.91536,63.2734375 3583.16667,63.2734375 3582.41797,63.2734375 C3581.66927,63.2734375 3580.8457,63.2734375 3579.94727,63.2734375 C3579.94727,63.2734375 3579.94727,63.2734375 3579.94727,63.2734375 C3579.79753,63.2734375 3579.72266,63.2734375 3579.72266,63.2734375 C3579.57292,63.2734375 3579.49805,63.1985677 3579.49805,63.0488281 C3579.49805,63.0488281 3579.42318,63.0488281 3579.27344,63.0488281 C3579.27344,62.8990885 3579.27344,62.8242187 3579.27344,62.8242187 C3579.27344,62.8242187 3579.19857,62.749349 3579.04883,62.5996094 C3579.04883,62.5996094 3579.04883,62.5247396 3579.04883,62.375 C3579.04883,62.375 3579.04883,62.375 3579.04883,62.375 C3579.04883,62.375 3579.04883,62.375 3579.04883,62.375 C3579.04883,62.2252604 3579.04883,62.1503906 3579.04883,62.1503906 C3579.04883,62.1503906 3579.1237,62.0755208 3579.27344,61.9257812 C3579.27344,61.6263021 3579.27344,61.2519531 3579.27344,60.8027344 C3579.42318,60.3535156 3579.64779,59.9042969 3579.94727,59.4550781 C3580.09701,58.8561198 3580.39648,58.2571615 3580.8457,57.6582031 C3580.99544,57.358724 3581.22005,57.0592448 3581.51953,56.7597656 C3581.66927,56.4602865 3581.89388,56.1608073 3582.19336,55.8613281 C3582.49284,55.561849 3582.79232,55.3372396 3583.0918,55.1875 C3583.54102,54.8880208 3583.91536,54.5885417 3584.21484,54.2890625 C3585.11328,53.6901042 3585.86198,53.1660156 3586.46094,52.7167969 C3586.91016,52.2675781 3587.28451,51.8932292 3587.58398,51.59375 C3587.73372,51.1445313 3587.88346,50.7701823 3588.0332,50.4707031 C3588.18294,50.171224 3588.25781,49.8717448 3588.25781,49.5722656 C3588.25781,49.422526 3588.25781,49.2727865 3588.25781,49.1230469 C3588.25781,49.1230469 3588.18294,49.0481771 3588.0332,48.8984375 C3588.0332,48.7486979 3588.0332,48.5989583 3588.0332,48.4492188 C3588.0332,48.4492188 3588.0332,48.374349 3588.0332,48.2246094 C3587.88346,48.0748698 3587.73372,47.8502604 3587.58398,47.5507812 C3587.43424,47.4010417 3587.20964,47.2513021 3586.91016,47.1015625 C3586.76042,46.9518229 3586.46094,46.8020833 3586.01172,46.6523438 C3585.71224,46.6523438 3585.33789,46.6523438 3584.88867,46.6523438 C3584.43945,46.6523438 3584.0651,46.6523438 3583.76562,46.6523438 C3583.46615,46.8020833 3583.16667,46.9518229 3582.86719,47.1015625 C3582.56771,47.2513021 3582.3431,47.4759115 3582.19336,47.7753906 C3582.04362,47.9251302 3581.89388,48.1497396 3581.74414,48.4492188 C3581.5944,48.5989583 3581.51953,48.7486979 3581.51953,48.8984375 C3581.36979,48.8984375 3581.22005,48.8984375 3581.07031,48.8984375 C3580.92057,49.0481771 3580.77083,49.1230469 3580.62109,49.1230469 C3580.62109,49.1230469 3580.54622,49.0481771 3580.39648,48.8984375 C3580.24674,48.8984375 3580.09701,48.8235677 3579.94727,48.6738281 C3579.94727,48.6738281 3579.94727,48.5989583 3579.94727,48.4492188 C3579.79753,48.2994792 3579.72266,48.1497396 3579.72266,48 C3579.72266,47.8502604 3579.79753,47.7753906 3579.94727,47.7753906 C3580.09701,47.1764323 3580.32161,46.7272135 3580.62109,46.4277344 C3581.07031,45.9785156 3581.44466,45.6790365 3581.74414,45.5292969 C3582.19336,45.2298177 3582.64258,45.0052083 3583.0918,44.8554688 C3583.69076,44.7057292 3584.21484,44.6308594 3584.66406,44.6308594 C3585.71224,44.6308594 3586.61068,44.780599 3587.35937,45.0800781 C3587.95833,45.3795573 3588.48242,45.7539062 3588.93164,46.203125 C3589.38086,46.8020833 3589.68034,47.3261719 3589.83008,47.7753906 C3589.97982,48.374349 3590.05469,48.9733073 3590.05469,49.5722656 C3590.05469,50.171224 3589.97982,50.6953125 3589.83008,51.1445313 C3589.68034,51.7434896 3589.38086,52.3424479 3588.93164,52.9414063 C3588.63216,53.390625 3588.18294,53.8398438 3587.58398,54.2890625 C3586.98503,54.8880208 3586.23633,55.4121094 3585.33789,55.8613281 C3584.73893,56.3105469 3584.13997,56.7597656 3583.54102,57.2089844 C3583.0918,57.6582031 3582.71745,58.1822917 3582.41797,58.78125 C3582.11849,59.2304688 3581.89388,59.6796875 3581.74414,60.1289062 C3581.5944,60.578125 3581.44466,60.952474 3581.29492,61.2519531 C3582.19336,61.2519531 3583.31641,61.2519531 3584.66406,61.2519531 C3586.01172,61.2519531 3587.58398,61.2519531 3589.38086,61.2519531 Z" transform="translate(-3583 -12)"/></svg>