<svg xmlns="http://www.w3.org/2000/svg" width="99" height="203" viewBox="0 0 99 203"><path fill="#131313" d="M3658.81055,129.14481 C3662.25456,132.439081 3665.24935,137.380487 3667.79492,143.969029 C3668.99284,147.2633 3669.5918,151.231399 3669.5918,155.873326 C3669.5918,160.215774 3668.99284,165.08231 3667.79492,170.472935 C3666.74674,175.713821 3664.80013,180.355748 3661.95508,184.398717 C3659.25977,188.441685 3655.74089,191.885696 3651.39844,194.730748 C3644.95964,198.773717 3637.92188,201.09468 3630.28516,201.693638 C3622.64844,202.292597 3616.13477,202.292597 3610.74414,201.693638 C3610.74414,217.266555 3610.74414,224.62593 3610.74414,255.771763 C3610.74414,258.017857 3609.99544,259.889602 3608.49805,261.386998 C3606.85091,263.034133 3604.9043,263.857701 3602.6582,263.857701 C3600.41211,263.857701 3598.46549,263.034133 3596.81836,261.386998 C3595.32096,259.889602 3594.57227,258.017857 3594.57227,255.771763 C3594.57227,238.102493 3594.57227,227.673456 3594.57227,192.484654 C3594.57227,192.334914 3594.57227,192.260045 3594.57227,192.260045 C3594.57227,192.260045 3594.57227,192.185175 3594.57227,192.035435 C3594.57227,177.660435 3594.57227,155.948196 3594.57227,126.898717 C3594.57227,124.952102 3595.17122,123.304967 3596.36914,121.95731 C3597.41732,120.459914 3598.91471,119.486607 3600.86133,119.037388 C3610.14518,116.791295 3620.32747,116.117467 3631.4082,117.015904 C3642.48893,117.914342 3651.62305,121.95731 3658.81055,129.14481 Z M3652.90039,166.944261 C3654.09831,160.954677 3654.32292,155.713792 3653.57422,151.221605 C3652.82552,146.879157 3651.02865,143.285407 3648.18359,140.440355 C3644.29036,136.696865 3638.89974,134.301032 3632.01172,133.252855 C3625.27344,132.354417 3618.46029,132.429287 3611.57227,133.477464 C3611.57227,145.007412 3611.57227,162.227464 3611.57227,185.13762 C3616.06445,185.736579 3621.38021,185.811448 3627.51953,185.36223 C3633.65885,185.06275 3638.97461,183.490485 3643.4668,180.645433 C3646.01237,179.148037 3648.03385,177.276292 3649.53125,175.030198 C3651.02865,172.634365 3652.15169,169.939052 3652.90039,166.944261 Z M3621.05078,103.064453 C3627.78906,103.064453 3634.07812,103.738281 3639.91797,105.085938 C3645.60807,106.583333 3650.84896,108.679688 3655.64062,111.375 C3655.34115,111.674479 3654.89193,112.273438 3654.29297,113.171875 C3649.65104,110.626302 3644.5599,108.679688 3639.01953,107.332031 C3633.47917,105.984375 3627.48958,105.310547 3621.05078,105.310547 C3618.80469,105.310547 3616.55859,105.460286 3614.3125,105.759766 C3612.06641,105.909505 3609.74544,106.134115 3607.34961,106.433594 C3607.34961,106.134115 3607.34961,105.909505 3607.34961,105.759766 C3607.34961,105.460286 3607.34961,105.235677 3607.34961,105.085938 C3607.34961,104.936198 3607.34961,104.786458 3607.34961,104.636719 C3607.19987,104.486979 3607.125,104.33724 3607.125,104.1875 C3609.37109,103.888021 3611.69206,103.588542 3614.08789,103.289063 C3616.48372,103.139323 3618.80469,103.064453 3621.05078,103.064453 Z M3603.75586,110.701172 C3603.60612,110.850911 3603.45638,110.925781 3603.30664,110.925781 C3603.1569,110.925781 3603.00716,110.925781 3602.85742,110.925781 C3603.00716,110.925781 3603.08203,110.925781 3603.08203,110.925781 C3603.23177,110.925781 3603.38151,110.925781 3603.53125,110.925781 C3603.53125,110.925781 3603.60612,110.925781 3603.75586,110.925781 C3603.75586,110.776042 3603.75586,110.701172 3603.75586,110.701172 Z M3603.30664,110.251953 C3604.35482,110.102214 3605.17839,109.652995 3605.77734,108.904297 C3606.3763,108.155599 3606.75065,107.332031 3606.90039,106.433594 C3606.90039,106.433594 3606.97526,106.433594 3607.125,106.433594 C3607.27474,106.433594 3607.34961,106.433594 3607.34961,106.433594 C3607.34961,107.481771 3606.97526,108.380208 3606.22656,109.128906 C3605.47786,110.027344 3604.57943,110.551432 3603.53125,110.701172 C3602.18359,111.000651 3600.98568,110.776042 3599.9375,110.027344 C3598.73958,109.278646 3597.99089,108.230469 3597.69141,106.882813 C3597.39193,105.684896 3597.61654,104.486979 3598.36523,103.289063 C3599.11393,102.240885 3600.16211,101.567057 3601.50977,101.267578 C3602.70768,100.968099 3603.83073,101.117839 3604.87891,101.716797 C3605.92708,102.315755 3606.67578,103.139323 3607.125,104.1875 C3606.97526,104.1875 3606.82552,104.1875 3606.67578,104.1875 C3606.67578,104.1875 3606.60091,104.1875 3606.45117,104.1875 C3606.00195,103.289063 3605.32813,102.615234 3604.42969,102.166016 C3603.53125,101.716797 3602.63281,101.567057 3601.73438,101.716797 C3600.53646,102.016276 3599.63802,102.690104 3599.03906,103.738281 C3598.29036,104.636719 3598.06576,105.684896 3598.36523,106.882813 C3598.51497,108.080729 3599.11393,108.979167 3600.16211,109.578125 C3601.21029,110.326823 3602.25846,110.551432 3603.30664,110.251953 Z M3607.34961,105.085938 C3607.34961,105.235677 3607.34961,105.460286 3607.34961,105.759766 C3607.34961,105.909505 3607.34961,106.134115 3607.34961,106.433594 C3607.34961,106.433594 3607.27474,106.433594 3607.125,106.433594 C3606.97526,106.433594 3606.90039,106.433594 3606.90039,106.433594 C3606.90039,106.283854 3606.90039,106.059245 3606.90039,105.759766 C3606.90039,105.610026 3606.82552,105.385417 3606.67578,105.085938 C3606.67578,104.936198 3606.67578,104.786458 3606.67578,104.636719 C3606.52604,104.486979 3606.45117,104.33724 3606.45117,104.1875 C3606.60091,104.1875 3606.67578,104.1875 3606.67578,104.1875 C3606.82552,104.1875 3606.97526,104.1875 3607.125,104.1875 C3607.125,104.33724 3607.125,104.486979 3607.125,104.636719 C3607.27474,104.786458 3607.34961,104.936198 3607.34961,105.085938 Z M3601.73438,101.716797 C3602.63281,101.567057 3603.53125,101.716797 3604.42969,102.166016 C3605.32813,102.615234 3606.00195,103.289063 3606.45117,104.1875 C3606.30143,104.1875 3606.22656,104.1875 3606.22656,104.1875 C3606.07682,104.33724 3605.92708,104.412109 3605.77734,104.412109 C3605.47786,103.663411 3604.95378,103.064453 3604.20508,102.615234 C3603.45638,102.315755 3602.63281,102.240885 3601.73438,102.390625 C3601.88411,102.390625 3602.03385,102.390625 3602.18359,102.390625 C3602.18359,102.390625 3602.18359,102.390625 3602.18359,102.390625 C3602.33333,102.240885 3602.4082,102.166016 3602.4082,102.166016 C3602.4082,102.166016 3602.4082,102.166016 3602.4082,102.166016 C3602.4082,102.315755 3602.4082,102.390625 3602.4082,102.390625 C3602.4082,102.390625 3602.33333,102.390625 3602.18359,102.390625 C3602.18359,102.390625 3602.18359,102.390625 3602.18359,102.390625 C3602.03385,102.390625 3601.88411,102.390625 3601.73438,102.390625 C3601.58464,102.390625 3601.50977,102.390625 3601.50977,102.390625 C3601.36003,102.390625 3601.28516,102.390625 3601.28516,102.390625 C3601.28516,102.390625 3601.36003,102.390625 3601.50977,102.390625 C3601.65951,102.390625 3601.73438,102.390625 3601.73438,102.390625 C3600.83594,102.540365 3600.08724,103.064453 3599.48828,103.962891 C3598.88932,104.861328 3598.66471,105.834635 3598.81445,106.882813 C3599.11393,107.78125 3599.63802,108.529948 3600.38672,109.128906 C3601.28516,109.727865 3602.25846,109.952474 3603.30664,109.802734 C3604.05534,109.652995 3604.72917,109.278646 3605.32813,108.679688 C3605.77734,108.080729 3606.07682,107.406901 3606.22656,106.658203 C3606.3763,106.658203 3606.45117,106.583333 3606.45117,106.433594 C3606.60091,106.433594 3606.75065,106.433594 3606.90039,106.433594 C3606.75065,107.332031 3606.3763,108.155599 3605.77734,108.904297 C3605.17839,109.652995 3604.35482,110.102214 3603.30664,110.251953 C3602.25846,110.551432 3601.21029,110.326823 3600.16211,109.578125 C3599.11393,108.979167 3598.51497,108.080729 3598.36523,106.882813 C3598.06576,105.684896 3598.29036,104.636719 3599.03906,103.738281 C3599.63802,102.690104 3600.53646,102.016276 3601.73438,101.716797 Z M3606.22656,105.310547 C3606.22656,105.160807 3606.15169,105.011068 3606.00195,104.861328 C3606.00195,104.711589 3605.92708,104.486979 3605.77734,104.1875 C3605.92708,104.1875 3606.07682,104.1875 3606.22656,104.1875 C3606.22656,104.1875 3606.30143,104.1875 3606.45117,104.1875 C3606.45117,104.33724 3606.52604,104.486979 3606.67578,104.636719 C3606.67578,104.786458 3606.67578,104.936198 3606.67578,105.085938 C3606.82552,105.385417 3606.90039,105.610026 3606.90039,105.759766 C3606.90039,106.059245 3606.90039,106.283854 3606.90039,106.433594 C3606.75065,106.433594 3606.60091,106.433594 3606.45117,106.433594 C3606.45117,106.433594 3606.3763,106.508464 3606.22656,106.658203 C3606.22656,106.358724 3606.22656,106.134115 3606.22656,105.984375 C3606.22656,105.684896 3606.22656,105.460286 3606.22656,105.310547 Z M3655.64062,111.375 C3655.9401,110.925781 3656.38932,110.251953 3656.98828,109.353516 C3658.78516,111.599609 3661.4056,115.04362 3664.84961,119.685547 C3662.1543,118.48763 3658.1862,116.840495 3652.94531,114.744141 C3653.24479,114.294922 3653.61914,113.770833 3654.06836,113.171875 C3654.51758,113.321615 3654.89193,113.471354 3655.19141,113.621094 C3655.49089,113.920573 3655.86523,114.145182 3656.31445,114.294922 C3656.61393,113.845703 3656.98828,113.171875 3657.4375,112.273438 C3657.13802,112.123698 3656.83854,111.973958 3656.53906,111.824219 C3656.23958,111.674479 3655.9401,111.52474 3655.64062,111.375 Z M3657.4375,112.273438 C3657.28776,112.722656 3656.91341,113.396484 3656.31445,114.294922 C3656.01497,114.145182 3655.64062,113.920573 3655.19141,113.621094 C3654.89193,113.471354 3654.59245,113.321615 3654.29297,113.171875 C3654.59245,112.722656 3655.04167,112.123698 3655.64062,111.375 C3655.9401,111.52474 3656.23958,111.674479 3656.53906,111.824219 C3656.83854,111.973958 3657.13802,112.123698 3657.4375,112.273438 Z M3582.86719,134.060547 C3583.01693,134.210286 3583.16667,134.285156 3583.31641,134.285156 C3583.46615,134.285156 3583.69076,134.285156 3583.99023,134.285156 C3584.13997,134.285156 3584.28971,134.285156 3584.43945,134.285156 C3584.73893,134.285156 3584.96354,134.210286 3585.11328,134.060547 C3585.11328,161.313151 3585.11328,196.192057 3585.11328,250.697266 C3584.51432,250.697266 3583.76562,250.697266 3582.86719,250.697266 C3582.86719,230.332682 3582.86719,215.893229 3582.86719,195.378906 C3582.86719,175.014323 3582.86719,154.57487 3582.86719,134.060547 Z M3580.62109,250.697266 C3581.36979,253.542318 3582.49284,257.735026 3583.99023,263.275391 C3584.73893,260.430339 3585.86198,256.23763 3587.35938,250.697266 C3586.76042,250.697266 3581.51953,250.697266 3580.62109,250.697266 Z M3583.99023,124.402344 C3585.33789,124.402344 3586.46094,124.926432 3587.35938,125.974609 C3588.25781,126.873047 3588.70703,127.996094 3588.70703,129.34375 C3588.70703,130.541667 3588.40755,131.589844 3587.80859,132.488281 C3587.0599,133.236979 3586.16146,133.761068 3585.11328,134.060547 C3585.11328,133.910807 3585.11328,133.761068 3585.11328,133.611328 C3586.01172,133.311849 3586.76042,132.78776 3587.35938,132.039062 C3587.95833,131.290365 3588.25781,130.391927 3588.25781,129.34375 C3588.25781,128.145833 3587.80859,127.172526 3586.91016,126.423828 C3586.16146,125.525391 3585.18815,125.076172 3583.99023,125.076172 C3582.79232,125.076172 3581.74414,125.525391 3580.8457,126.423828 C3579.94727,127.172526 3579.49805,128.145833 3579.49805,129.34375 C3579.49805,130.391927 3579.79753,131.290365 3580.39648,132.039062 C3580.99544,132.78776 3581.81901,133.311849 3582.86719,133.611328 C3582.86719,133.611328 3582.86719,133.761068 3582.86719,134.060547 C3581.66927,133.910807 3580.77083,133.386719 3580.17188,132.488281 C3579.42318,131.589844 3579.04883,130.541667 3579.04883,129.34375 C3579.04883,127.996094 3579.49805,126.873047 3580.39648,125.974609 C3581.44466,124.926432 3582.64258,124.402344 3583.99023,124.402344 Z M3583.99023,133.611328 C3584.13997,133.611328 3584.28971,133.611328 3584.43945,133.611328 C3584.73893,133.611328 3584.96354,133.611328 3585.11328,133.611328 C3585.11328,133.611328 3585.11328,133.761068 3585.11328,134.060547 C3584.96354,134.210286 3584.73893,134.285156 3584.43945,134.285156 C3584.28971,134.285156 3584.13997,134.285156 3583.99023,134.285156 C3583.69076,134.285156 3583.46615,134.285156 3583.31641,134.285156 C3583.16667,134.285156 3583.01693,134.210286 3582.86719,134.060547 C3582.86719,133.910807 3582.86719,133.761068 3582.86719,133.611328 C3583.01693,133.611328 3583.16667,133.611328 3583.31641,133.611328 C3583.46615,133.611328 3583.69076,133.611328 3583.99023,133.611328 Z M3580.17188,129.34375 C3580.17188,130.242188 3580.39648,130.990885 3580.8457,131.589844 C3581.44466,132.188802 3582.11849,132.638021 3582.86719,132.9375 C3582.86719,133.08724 3582.86719,133.311849 3582.86719,133.611328 C3581.81901,133.311849 3580.99544,132.78776 3580.39648,132.039062 C3579.79753,131.290365 3579.49805,130.391927 3579.49805,129.34375 C3579.49805,128.145833 3579.94727,127.172526 3580.8457,126.423828 C3581.74414,125.525391 3582.79232,125.076172 3583.99023,125.076172 C3585.18815,125.076172 3586.16146,125.525391 3586.91016,126.423828 C3587.80859,127.172526 3588.25781,128.145833 3588.25781,129.34375 C3588.25781,130.391927 3587.95833,131.290365 3587.35938,132.039062 C3586.76042,132.78776 3586.01172,133.311849 3585.11328,133.611328 C3585.11328,133.461589 3585.11328,133.236979 3585.11328,132.9375 C3585.86198,132.638021 3586.46094,132.188802 3586.91016,131.589844 C3587.35938,130.990885 3587.58398,130.242188 3587.58398,129.34375 C3587.58398,128.295573 3587.20964,127.397135 3586.46094,126.648438 C3585.86198,125.89974 3585.03841,125.525391 3583.99023,125.525391 C3582.94206,125.525391 3582.04362,125.89974 3581.29492,126.648438 C3580.54622,127.397135 3580.17188,128.295573 3580.17188,129.34375 C3580.17188,129.19401 3580.17188,129.044271 3580.17188,128.894531 C3580.17188,128.744792 3580.17188,128.669922 3580.17188,128.669922 C3580.17188,128.669922 3580.17188,128.744792 3580.17188,128.894531 C3580.17188,129.044271 3580.17188,129.19401 3580.17188,129.34375 C3580.17188,129.49349 3580.17188,129.643229 3580.17188,129.792969 C3580.17188,129.942708 3580.17188,130.017578 3580.17188,130.017578 C3580.17188,130.017578 3580.17188,129.942708 3580.17188,129.792969 C3580.17188,129.643229 3580.17188,129.49349 3580.17188,129.34375 Z M3585.11328,133.611328 C3584.96354,133.611328 3584.73893,133.611328 3584.43945,133.611328 C3584.28971,133.611328 3584.13997,133.611328 3583.99023,133.611328 C3583.69076,133.611328 3583.46615,133.611328 3583.31641,133.611328 C3583.16667,133.611328 3583.01693,133.611328 3582.86719,133.611328 C3582.86719,133.461589 3582.86719,133.236979 3582.86719,132.9375 C3583.01693,132.9375 3583.16667,133.01237 3583.31641,133.162109 C3583.46615,133.162109 3583.69076,133.162109 3583.99023,133.162109 C3584.13997,133.162109 3584.28971,133.162109 3584.43945,133.162109 C3584.73893,133.01237 3584.96354,132.9375 3585.11328,132.9375 C3585.11328,133.08724 3585.11328,133.162109 3585.11328,133.162109 C3585.11328,133.311849 3585.11328,133.461589 3585.11328,133.611328 Z M3569.39062,127.996094 C3569.39062,127.996094 3569.46549,128.070964 3569.61523,128.220703 C3569.61523,128.220703 3569.61523,128.295573 3569.61523,128.445312 C3569.76497,128.445312 3569.83984,128.520182 3569.83984,128.669922 C3569.83984,128.669922 3569.83984,128.744792 3569.83984,128.894531 C3569.83984,130.691406 3569.83984,133.01237 3569.83984,135.857422 C3569.83984,138.552734 3569.83984,141.772135 3569.83984,145.515625 C3569.83984,145.665365 3569.83984,145.815104 3569.83984,145.964844 C3569.6901,145.964844 3569.61523,146.039714 3569.61523,146.189453 C3569.46549,146.339193 3569.31576,146.414062 3569.16602,146.414062 C3569.16602,146.414062 3569.09115,146.414062 3568.94141,146.414062 C3568.79167,146.414062 3568.64193,146.414062 3568.49219,146.414062 C3568.34245,146.414062 3568.26758,146.339193 3568.26758,146.189453 C3568.11784,146.039714 3568.04297,145.964844 3568.04297,145.964844 C3567.89323,145.815104 3567.81836,145.665365 3567.81836,145.515625 C3567.81836,143.86849 3567.81836,141.921875 3567.81836,139.675781 C3567.81836,137.279948 3567.81836,134.434896 3567.81836,131.140625 C3567.81836,131.290365 3567.74349,131.440104 3567.59375,131.589844 C3567.44401,131.589844 3567.29427,131.664714 3567.14453,131.814453 C3567.14453,131.964193 3567.06966,132.039062 3566.91992,132.039062 C3566.77018,132.188802 3566.62044,132.263672 3566.4707,132.263672 C3566.4707,132.263672 3566.39583,132.188802 3566.24609,132.039062 C3566.09635,132.039062 3565.94661,131.964193 3565.79688,131.814453 C3565.79688,131.814453 3565.72201,131.739583 3565.57227,131.589844 C3565.57227,131.440104 3565.57227,131.290365 3565.57227,131.140625 C3565.57227,131.140625 3565.57227,131.065755 3565.57227,130.916016 C3565.72201,130.766276 3565.79688,130.616536 3565.79688,130.466797 C3566.09635,130.317057 3566.4707,130.017578 3566.91992,129.568359 C3567.2194,129.119141 3567.66862,128.669922 3568.26758,128.220703 C3568.26758,128.070964 3568.34245,127.996094 3568.49219,127.996094 C3568.49219,127.996094 3568.56706,127.996094 3568.7168,127.996094 C3568.7168,127.996094 3568.79167,127.996094 3568.94141,127.996094 C3568.94141,127.996094 3568.94141,127.996094 3568.94141,127.996094 C3568.94141,127.996094 3569.01628,127.996094 3569.16602,127.996094 C3569.16602,127.996094 3569.24089,127.996094 3569.39062,127.996094 Z M3589.38086,110.251953 C3589.5306,110.251953 3589.68034,110.326823 3589.83008,110.476562 C3589.97982,110.476562 3590.05469,110.551432 3590.05469,110.701172 C3590.20443,110.701172 3590.2793,110.776042 3590.2793,110.925781 C3590.42904,111.075521 3590.50391,111.22526 3590.50391,111.375 C3590.50391,111.52474 3590.42904,111.599609 3590.2793,111.599609 C3590.2793,111.749349 3590.20443,111.899089 3590.05469,112.048828 C3590.05469,112.048828 3589.97982,112.123698 3589.83008,112.273438 C3589.68034,112.273438 3589.5306,112.273438 3589.38086,112.273438 C3588.63216,112.273438 3587.88346,112.273438 3587.13477,112.273438 C3586.38607,112.273438 3585.5625,112.273438 3584.66406,112.273438 C3583.91536,112.273438 3583.16667,112.273438 3582.41797,112.273438 C3581.66927,112.273438 3580.8457,112.273438 3579.94727,112.273438 C3579.94727,112.273438 3579.94727,112.273438 3579.94727,112.273438 C3579.79753,112.273438 3579.72266,112.273438 3579.72266,112.273438 C3579.57292,112.273438 3579.49805,112.198568 3579.49805,112.048828 C3579.49805,112.048828 3579.42318,112.048828 3579.27344,112.048828 C3579.27344,111.899089 3579.27344,111.824219 3579.27344,111.824219 C3579.27344,111.824219 3579.19857,111.749349 3579.04883,111.599609 C3579.04883,111.599609 3579.04883,111.52474 3579.04883,111.375 C3579.04883,111.375 3579.04883,111.375 3579.04883,111.375 C3579.04883,111.375 3579.04883,111.375 3579.04883,111.375 C3579.04883,111.22526 3579.04883,111.150391 3579.04883,111.150391 C3579.04883,111.150391 3579.1237,111.075521 3579.27344,110.925781 C3579.27344,110.626302 3579.27344,110.251953 3579.27344,109.802734 C3579.42318,109.353516 3579.64779,108.904297 3579.94727,108.455078 C3580.09701,107.85612 3580.39648,107.257161 3580.8457,106.658203 C3580.99544,106.358724 3581.22005,106.059245 3581.51953,105.759766 C3581.66927,105.460286 3581.89388,105.160807 3582.19336,104.861328 C3582.49284,104.561849 3582.79232,104.33724 3583.0918,104.1875 C3583.54102,103.888021 3583.91536,103.588542 3584.21484,103.289063 C3585.11328,102.690104 3585.86198,102.166016 3586.46094,101.716797 C3586.91016,101.267578 3587.28451,100.893229 3587.58398,100.59375 C3587.73372,100.144531 3587.88346,99.7701823 3588.0332,99.4707031 C3588.18294,99.171224 3588.25781,98.8717448 3588.25781,98.5722656 C3588.25781,98.422526 3588.25781,98.2727865 3588.25781,98.1230469 C3588.25781,98.1230469 3588.18294,98.0481771 3588.0332,97.8984375 C3588.0332,97.7486979 3588.0332,97.5989583 3588.0332,97.4492188 C3588.0332,97.4492188 3588.0332,97.374349 3588.0332,97.2246094 C3587.88346,97.0748698 3587.73372,96.8502604 3587.58398,96.5507812 C3587.43424,96.4010417 3587.20964,96.2513021 3586.91016,96.1015625 C3586.76042,95.9518229 3586.46094,95.8020833 3586.01172,95.6523438 C3585.71224,95.6523438 3585.33789,95.6523438 3584.88867,95.6523438 C3584.43945,95.6523438 3584.0651,95.6523438 3583.76562,95.6523438 C3583.46615,95.8020833 3583.16667,95.9518229 3582.86719,96.1015625 C3582.56771,96.2513021 3582.3431,96.4759115 3582.19336,96.7753906 C3582.04362,96.9251302 3581.89388,97.1497396 3581.74414,97.4492188 C3581.5944,97.5989583 3581.51953,97.7486979 3581.51953,97.8984375 C3581.36979,97.8984375 3581.22005,97.8984375 3581.07031,97.8984375 C3580.92057,98.0481771 3580.77083,98.1230469 3580.62109,98.1230469 C3580.62109,98.1230469 3580.54622,98.0481771 3580.39648,97.8984375 C3580.24674,97.8984375 3580.09701,97.8235677 3579.94727,97.6738281 C3579.94727,97.6738281 3579.94727,97.5989583 3579.94727,97.4492188 C3579.79753,97.2994792 3579.72266,97.1497396 3579.72266,97 C3579.72266,96.8502604 3579.79753,96.7753906 3579.94727,96.7753906 C3580.09701,96.1764323 3580.32161,95.7272135 3580.62109,95.4277344 C3581.07031,94.9785156 3581.44466,94.6790365 3581.74414,94.5292969 C3582.19336,94.2298177 3582.64258,94.0052083 3583.0918,93.8554688 C3583.69076,93.7057292 3584.21484,93.6308594 3584.66406,93.6308594 C3585.71224,93.6308594 3586.61068,93.780599 3587.35938,94.0800781 C3587.95833,94.3795573 3588.48242,94.7539063 3588.93164,95.203125 C3589.38086,95.8020833 3589.68034,96.3261719 3589.83008,96.7753906 C3589.97982,97.374349 3590.05469,97.9733073 3590.05469,98.5722656 C3590.05469,99.171224 3589.97982,99.6953125 3589.83008,100.144531 C3589.68034,100.74349 3589.38086,101.342448 3588.93164,101.941406 C3588.63216,102.390625 3588.18294,102.839844 3587.58398,103.289063 C3586.98503,103.888021 3586.23633,104.412109 3585.33789,104.861328 C3584.73893,105.310547 3584.13997,105.759766 3583.54102,106.208984 C3583.0918,106.658203 3582.71745,107.182292 3582.41797,107.78125 C3582.11849,108.230469 3581.89388,108.679688 3581.74414,109.128906 C3581.5944,109.578125 3581.44466,109.952474 3581.29492,110.251953 C3582.19336,110.251953 3583.31641,110.251953 3584.66406,110.251953 C3586.01172,110.251953 3587.58398,110.251953 3589.38086,110.251953 Z" transform="translate(-3583)"/></svg>