<svg xmlns="http://www.w3.org/2000/svg" width="243" height="243" viewBox="0 0 243 243"><path fill="#131313" d="M147.810547,92.1448103 C151.254557,95.4390811 154.249349,100.380487 156.794922,106.969029 C157.992839,110.2633 158.591797,114.231399 158.591797,118.873326 C158.591797,123.215774 157.992839,128.08231 156.794922,133.472935 C155.746745,138.713821 153.80013,143.355748 150.955078,147.398717 C148.259766,151.441685 144.740885,154.885696 140.398438,157.730748 C133.959635,161.773717 126.921875,164.09468 119.285156,164.693638 C111.648438,165.292597 105.134766,165.292597 99.7441406,164.693638 C99.7441406,180.266555 99.7441406,203.62593 99.7441406,234.771763 C99.7441406,237.017857 98.9954427,238.889602 97.4980469,240.386998 C95.8509115,242.034133 93.9042969,242.857701 91.6582031,242.857701 C89.4121094,242.857701 87.4654948,242.034133 85.8183594,240.386998 C84.3209635,238.889602 83.5722656,237.017857 83.5722656,234.771763 C83.5722656,217.102493 83.5722656,190.673456 83.5722656,155.484654 C83.5722656,155.334914 83.5722656,155.260045 83.5722656,155.260045 C83.5722656,155.260045 83.5722656,155.185175 83.5722656,155.035435 C83.5722656,140.660435 83.5722656,118.948196 83.5722656,89.8987165 C83.5722656,87.9521019 84.171224,86.3049665 85.3691406,84.9573103 C86.4173177,83.4599144 87.9147135,82.4866071 89.8613281,82.0373884 C99.1451823,79.7912946 109.327474,79.1174665 120.408203,80.015904 C131.488932,80.9143415 140.623047,84.9573103 147.810547,92.1448103 Z M141.900391,129.944261 C143.098307,123.954677 143.322917,118.713792 142.574219,114.221605 C141.825521,109.879157 140.028646,106.285407 137.183594,103.440355 C133.290365,99.696865 127.89974,97.3010317 121.011719,96.2528546 C114.273438,95.3544171 107.460286,95.4292869 100.572266,96.4774639 C100.572266,108.007412 100.572266,125.227464 100.572266,148.13762 C105.064453,148.736579 110.380208,148.811448 116.519531,148.36223 C122.658854,148.06275 127.974609,146.490485 132.466797,143.645433 C135.01237,142.148037 137.033854,140.276292 138.53125,138.030198 C140.028646,135.634365 141.151693,132.939052 141.900391,129.944261 Z M110.050781,66.0644531 C116.789062,66.0644531 123.078125,66.7382812 128.917969,68.0859375 C134.608073,69.5833333 139.848958,71.6796875 144.640625,74.375 C144.341146,74.6744792 143.891927,75.2734375 143.292969,76.171875 C138.651042,73.6263021 133.559896,71.6796875 128.019531,70.3320312 C122.479167,68.984375 116.489583,68.3105469 110.050781,68.3105469 C107.804688,68.3105469 105.558594,68.4602865 103.3125,68.7597656 C101.066406,68.9095052 98.7454427,69.1341146 96.3496094,69.4335938 C96.3496094,69.1341146 96.3496094,68.9095052 96.3496094,68.7597656 C96.3496094,68.4602865 96.3496094,68.2356771 96.3496094,68.0859375 C96.3496094,67.9361979 96.3496094,67.7864583 96.3496094,67.6367188 C96.1998698,67.4869792 96.125,67.3372396 96.125,67.1875 C98.3710938,66.8880208 100.692057,66.5885417 103.087891,66.2890625 C105.483724,66.1393229 107.804688,66.0644531 110.050781,66.0644531 Z M92.7558594,73.7011719 C92.6061198,73.8509115 92.4563802,73.9257812 92.3066406,73.9257812 C92.156901,73.9257812 92.0071615,73.9257812 91.8574219,73.9257812 C92.0071615,73.9257812 92.0820312,73.9257812 92.0820312,73.9257812 C92.2317708,73.9257812 92.3815104,73.9257812 92.53125,73.9257812 C92.53125,73.9257812 92.6061198,73.9257812 92.7558594,73.9257812 C92.7558594,73.7760417 92.7558594,73.7011719 92.7558594,73.7011719 Z M92.3066406,73.2519531 C93.3548177,73.1022135 94.1783854,72.6529948 94.7773438,71.9042969 C95.3763021,71.155599 95.750651,70.3320312 95.9003906,69.4335938 C95.9003906,69.4335938 95.9752604,69.4335938 96.125,69.4335938 C96.2747396,69.4335938 96.3496094,69.4335938 96.3496094,69.4335938 C96.3496094,70.4817708 95.9752604,71.3802083 95.2265625,72.1289062 C94.4778646,73.0273438 93.5794271,73.5514323 92.53125,73.7011719 C91.1835938,74.000651 89.9856771,73.7760417 88.9375,73.0273438 C87.7395833,72.2786458 86.9908854,71.2304688 86.6914063,69.8828125 C86.3919271,68.6848958 86.6165365,67.4869792 87.3652344,66.2890625 C88.1139323,65.2408854 89.1621094,64.5670573 90.5097656,64.2675781 C91.7076823,63.968099 92.8307292,64.1178385 93.8789063,64.7167969 C94.9270833,65.3157552 95.6757813,66.1393229 96.125,67.1875 C95.9752604,67.1875 95.8255208,67.1875 95.6757813,67.1875 C95.6757813,67.1875 95.6009115,67.1875 95.4511719,67.1875 C95.0019531,66.2890625 94.328125,65.6152344 93.4296875,65.1660156 C92.53125,64.7167969 91.6328125,64.5670573 90.734375,64.7167969 C89.5364583,65.016276 88.6380208,65.6901042 88.0390625,66.7382812 C87.2903646,67.6367188 87.0657552,68.6848958 87.3652344,69.8828125 C87.514974,71.0807292 88.1139323,71.9791667 89.1621094,72.578125 C90.2102865,73.3268229 91.2584635,73.5514323 92.3066406,73.2519531 Z M93.2050781,73.7011719 C93.0553385,73.7011719 92.9804688,73.7011719 92.9804688,73.7011719 C92.9804688,73.7011719 92.905599,73.7011719 92.7558594,73.7011719 C92.905599,73.7011719 92.9804688,73.7011719 92.9804688,73.7011719 C92.9804688,73.7011719 93.0553385,73.7011719 93.2050781,73.7011719 Z M96.3496094,68.0859375 C96.3496094,68.2356771 96.3496094,68.4602865 96.3496094,68.7597656 C96.3496094,68.9095052 96.3496094,69.1341146 96.3496094,69.4335938 C96.3496094,69.4335938 96.2747396,69.4335938 96.125,69.4335938 C95.9752604,69.4335938 95.9003906,69.4335938 95.9003906,69.4335938 C95.9003906,69.2838542 95.9003906,69.0592448 95.9003906,68.7597656 C95.9003906,68.610026 95.8255208,68.3854167 95.6757812,68.0859375 C95.6757812,67.9361979 95.6757812,67.7864583 95.6757812,67.6367188 C95.5260417,67.4869792 95.4511719,67.3372396 95.4511719,67.1875 C95.6009115,67.1875 95.6757812,67.1875 95.6757812,67.1875 C95.8255208,67.1875 95.9752604,67.1875 96.125,67.1875 C96.125,67.3372396 96.125,67.4869792 96.125,67.6367188 C96.2747396,67.7864583 96.3496094,67.9361979 96.3496094,68.0859375 Z M91.1835938,65.1660156 C91.3333333,65.1660156 91.4082031,65.1660156 91.4082031,65.1660156 C91.4082031,65.1660156 91.4082031,65.1660156 91.4082031,65.1660156 C91.4082031,65.1660156 91.4082031,65.1660156 91.4082031,65.1660156 C91.2584635,65.1660156 91.1835938,65.1660156 91.1835938,65.1660156 Z M90.734375,64.7167969 C91.6328125,64.5670573 92.53125,64.7167969 93.4296875,65.1660156 C94.328125,65.6152344 95.0019531,66.2890625 95.4511719,67.1875 C95.3014323,67.1875 95.2265625,67.1875 95.2265625,67.1875 C95.0768229,67.3372396 94.9270833,67.4121094 94.7773438,67.4121094 C94.4778646,66.6634115 93.953776,66.0644531 93.2050781,65.6152344 C92.4563802,65.3157552 91.6328125,65.2408854 90.734375,65.390625 C90.8841146,65.390625 91.0338542,65.390625 91.1835938,65.390625 C91.1835938,65.390625 91.1835938,65.390625 91.1835938,65.390625 C91.3333333,65.2408854 91.4082031,65.1660156 91.4082031,65.1660156 C91.4082031,65.1660156 91.4082031,65.1660156 91.4082031,65.1660156 C91.4082031,65.3157552 91.4082031,65.390625 91.4082031,65.390625 C91.4082031,65.390625 91.3333333,65.390625 91.1835938,65.390625 C91.1835938,65.390625 91.1835938,65.390625 91.1835938,65.390625 C91.0338542,65.390625 90.8841146,65.390625 90.734375,65.390625 C90.5846354,65.390625 90.5097656,65.390625 90.5097656,65.390625 C90.360026,65.390625 90.2851563,65.390625 90.2851563,65.390625 C90.2851563,65.390625 90.360026,65.390625 90.5097656,65.390625 C90.6595052,65.390625 90.734375,65.390625 90.734375,65.390625 C89.8359375,65.5403646 89.0872396,66.0644531 88.4882813,66.9628906 C87.8893229,67.8613281 87.6647135,68.8346354 87.8144531,69.8828125 C88.1139323,70.78125 88.6380208,71.5299479 89.3867188,72.1289062 C90.2851563,72.7278646 91.2584635,72.952474 92.3066406,72.8027344 C93.0553385,72.6529948 93.7291667,72.2786458 94.328125,71.6796875 C94.7773438,71.0807292 95.0768229,70.406901 95.2265625,69.6582031 C95.3763021,69.6582031 95.4511719,69.5833333 95.4511719,69.4335938 C95.6009115,69.4335938 95.750651,69.4335938 95.9003906,69.4335938 C95.750651,70.3320312 95.3763021,71.155599 94.7773438,71.9042969 C94.1783854,72.6529948 93.3548177,73.1022135 92.3066406,73.2519531 C91.2584635,73.5514323 90.2102865,73.3268229 89.1621094,72.578125 C88.1139323,71.9791667 87.514974,71.0807292 87.3652344,69.8828125 C87.0657552,68.6848958 87.2903646,67.6367188 88.0390625,66.7382812 C88.6380208,65.6901042 89.5364583,65.016276 90.734375,64.7167969 Z M95.2265625,68.3105469 C95.2265625,68.1608073 95.1516927,68.0110677 95.0019531,67.8613281 C95.0019531,67.7115885 94.9270833,67.4869792 94.7773438,67.1875 C94.9270833,67.1875 95.0768229,67.1875 95.2265625,67.1875 C95.2265625,67.1875 95.3014323,67.1875 95.4511719,67.1875 C95.4511719,67.3372396 95.5260417,67.4869792 95.6757812,67.6367188 C95.6757812,67.7864583 95.6757812,67.9361979 95.6757812,68.0859375 C95.8255208,68.3854167 95.9003906,68.610026 95.9003906,68.7597656 C95.9003906,69.0592448 95.9003906,69.2838542 95.9003906,69.4335938 C95.750651,69.4335938 95.6009115,69.4335938 95.4511719,69.4335938 C95.4511719,69.4335938 95.3763021,69.5084635 95.2265625,69.6582031 C95.2265625,69.358724 95.2265625,69.1341146 95.2265625,68.984375 C95.2265625,68.6848958 95.2265625,68.4602865 95.2265625,68.3105469 Z M144.640625,74.375 C144.940104,73.9257812 145.389323,73.2519531 145.988281,72.3535156 C147.785156,74.5996094 150.405599,78.0436198 153.849609,82.6855469 C151.154297,81.4876302 147.186198,79.8404948 141.945312,77.7441406 C142.244792,77.2949219 142.619141,76.7708333 143.068359,76.171875 C143.517578,76.3216146 143.891927,76.4713542 144.191406,76.6210938 C144.490885,76.9205729 144.865234,77.1451823 145.314453,77.2949219 C145.613932,76.8457031 145.988281,76.171875 146.4375,75.2734375 C146.138021,75.1236979 145.838542,74.9739583 145.539062,74.8242188 C145.239583,74.6744792 144.940104,74.5247396 144.640625,74.375 Z M146.4375,75.2734375 C146.28776,75.7226562 145.913411,76.3964844 145.314453,77.2949219 C145.014974,77.1451823 144.640625,76.9205729 144.191406,76.6210938 C143.891927,76.4713542 143.592448,76.3216146 143.292969,76.171875 C143.592448,75.7226562 144.041667,75.1236979 144.640625,74.375 C144.940104,74.5247396 145.239583,74.6744792 145.539062,74.8242188 C145.838542,74.9739583 146.138021,75.1236979 146.4375,75.2734375 Z M71.8671875,97.0605469 C72.0169271,97.2102865 72.1666667,97.2851562 72.3164062,97.2851562 C72.4661458,97.2851562 72.6907552,97.2851562 72.9902344,97.2851562 C73.139974,97.2851562 73.2897135,97.2851562 73.4394531,97.2851562 C73.7389323,97.2851562 73.9635417,97.2102865 74.1132812,97.0605469 C74.1132812,124.313151 74.1132812,165.192057 74.1132812,219.697266 C73.5143229,219.697266 72.765625,219.697266 71.8671875,219.697266 C71.8671875,199.332682 71.8671875,178.893229 71.8671875,158.378906 C71.8671875,138.014323 71.8671875,117.57487 71.8671875,97.0605469 Z M71.8671875,221.943359 C71.8671875,221.494141 71.8671875,220.745443 71.8671875,219.697266 C71.2682292,219.697266 70.5195312,219.697266 69.6210938,219.697266 C70.3697917,222.542318 71.4928385,226.735026 72.9902344,232.275391 C73.7389323,229.430339 74.8619792,225.23763 76.359375,219.697266 C75.7604167,219.697266 75.0117188,219.697266 74.1132812,219.697266 C74.1132812,220.296224 74.1132812,221.044922 74.1132812,221.943359 C73.5143229,221.943359 72.765625,221.943359 71.8671875,221.943359 Z M71.8671875,221.943359 C72.3164062,221.943359 73.0651042,221.943359 74.1132812,221.943359 C74.1132812,221.494141 74.1132812,220.745443 74.1132812,219.697266 C73.5143229,219.697266 72.765625,219.697266 71.8671875,219.697266 C71.8671875,220.296224 71.8671875,221.044922 71.8671875,221.943359 Z M72.9902344,87.4023438 C74.3378906,87.4023438 75.4609375,87.9264323 76.359375,88.9746094 C77.2578125,89.8730469 77.7070312,90.9960938 77.7070312,92.34375 C77.7070312,93.5416667 77.4075521,94.5898438 76.8085938,95.4882812 C76.0598958,96.2369792 75.1614583,96.7610677 74.1132812,97.0605469 C74.1132812,96.9108073 74.1132812,96.7610677 74.1132812,96.6113281 C75.0117188,96.311849 75.7604167,95.7877604 76.359375,95.0390625 C76.9583333,94.2903646 77.2578125,93.3919271 77.2578125,92.34375 C77.2578125,91.1458333 76.8085938,90.172526 75.9101562,89.4238281 C75.1614583,88.5253906 74.188151,88.0761719 72.9902344,88.0761719 C71.7923177,88.0761719 70.7441406,88.5253906 69.8457031,89.4238281 C68.9472656,90.172526 68.4980469,91.1458333 68.4980469,92.34375 C68.4980469,93.3919271 68.797526,94.2903646 69.3964844,95.0390625 C69.9954427,95.7877604 70.8190104,96.311849 71.8671875,96.6113281 C71.8671875,96.6113281 71.8671875,96.7610677 71.8671875,97.0605469 C70.6692708,96.9108073 69.7708333,96.3867188 69.171875,95.4882812 C68.4231771,94.5898438 68.0488281,93.5416667 68.0488281,92.34375 C68.0488281,90.9960938 68.4980469,89.8730469 69.3964844,88.9746094 C70.4446615,87.9264323 71.6425781,87.4023438 72.9902344,87.4023438 Z M72.9902344,96.6113281 C73.139974,96.6113281 73.2897135,96.6113281 73.4394531,96.6113281 C73.7389323,96.6113281 73.9635417,96.6113281 74.1132812,96.6113281 C74.1132812,96.6113281 74.1132812,96.7610677 74.1132812,97.0605469 C73.9635417,97.2102865 73.7389323,97.2851562 73.4394531,97.2851562 C73.2897135,97.2851562 73.139974,97.2851562 72.9902344,97.2851562 C72.6907552,97.2851562 72.4661458,97.2851562 72.3164062,97.2851562 C72.1666667,97.2851562 72.0169271,97.2102865 71.8671875,97.0605469 C71.8671875,96.9108073 71.8671875,96.7610677 71.8671875,96.6113281 C72.0169271,96.6113281 72.1666667,96.6113281 72.3164062,96.6113281 C72.4661458,96.6113281 72.6907552,96.6113281 72.9902344,96.6113281 Z M69.171875,92.34375 C69.171875,93.2421875 69.3964844,93.9908854 69.8457031,94.5898438 C70.4446615,95.1888021 71.1184896,95.6380208 71.8671875,95.9375 C71.8671875,96.0872396 71.8671875,96.311849 71.8671875,96.6113281 C70.8190104,96.311849 69.9954427,95.7877604 69.3964844,95.0390625 C68.797526,94.2903646 68.4980469,93.3919271 68.4980469,92.34375 C68.4980469,91.1458333 68.9472656,90.172526 69.8457031,89.4238281 C70.7441406,88.5253906 71.7923177,88.0761719 72.9902344,88.0761719 C74.188151,88.0761719 75.1614583,88.5253906 75.9101562,89.4238281 C76.8085938,90.172526 77.2578125,91.1458333 77.2578125,92.34375 C77.2578125,93.3919271 76.9583333,94.2903646 76.359375,95.0390625 C75.7604167,95.7877604 75.0117188,96.311849 74.1132812,96.6113281 C74.1132812,96.4615885 74.1132812,96.2369792 74.1132812,95.9375 C74.8619792,95.6380208 75.4609375,95.1888021 75.9101562,94.5898438 C76.359375,93.9908854 76.5839844,93.2421875 76.5839844,92.34375 C76.5839844,91.2955729 76.2096354,90.3971354 75.4609375,89.6484375 C74.8619792,88.8997396 74.0384115,88.5253906 72.9902344,88.5253906 C71.9420573,88.5253906 71.0436198,88.8997396 70.2949219,89.6484375 C69.546224,90.3971354 69.171875,91.2955729 69.171875,92.34375 C69.171875,92.1940104 69.171875,92.0442708 69.171875,91.8945312 C69.171875,91.7447917 69.171875,91.6699219 69.171875,91.6699219 C69.171875,91.6699219 69.171875,91.7447917 69.171875,91.8945312 C69.171875,92.0442708 69.171875,92.1940104 69.171875,92.34375 C69.171875,92.4934896 69.171875,92.6432292 69.171875,92.7929688 C69.171875,92.9427083 69.171875,93.0175781 69.171875,93.0175781 C69.171875,93.0175781 69.171875,92.9427083 69.171875,92.7929688 C69.171875,92.6432292 69.171875,92.4934896 69.171875,92.34375 Z M74.1132812,96.6113281 C73.9635417,96.6113281 73.7389323,96.6113281 73.4394531,96.6113281 C73.2897135,96.6113281 73.139974,96.6113281 72.9902344,96.6113281 C72.6907552,96.6113281 72.4661458,96.6113281 72.3164062,96.6113281 C72.1666667,96.6113281 72.0169271,96.6113281 71.8671875,96.6113281 C71.8671875,96.4615885 71.8671875,96.2369792 71.8671875,95.9375 C72.0169271,95.9375 72.1666667,96.0123698 72.3164062,96.1621094 C72.4661458,96.1621094 72.6907552,96.1621094 72.9902344,96.1621094 C73.139974,96.1621094 73.2897135,96.1621094 73.4394531,96.1621094 C73.7389323,96.0123698 73.9635417,95.9375 74.1132812,95.9375 C74.1132812,96.0872396 74.1132812,96.1621094 74.1132812,96.1621094 C74.1132812,96.311849 74.1132812,96.4615885 74.1132812,96.6113281 Z M58.390625,90.9960938 C58.390625,90.9960938 58.4654948,91.0709635 58.6152344,91.2207031 C58.6152344,91.2207031 58.6152344,91.2955729 58.6152344,91.4453125 C58.764974,91.4453125 58.8398438,91.5201823 58.8398438,91.6699219 C58.8398438,91.6699219 58.8398438,91.7447917 58.8398438,91.8945312 C58.8398438,93.6914062 58.8398438,96.0123698 58.8398438,98.8574219 C58.8398438,101.552734 58.8398438,104.772135 58.8398438,108.515625 C58.8398438,108.665365 58.8398438,108.815104 58.8398438,108.964844 C58.6901042,108.964844 58.6152344,109.039714 58.6152344,109.189453 C58.4654948,109.339193 58.3157552,109.414062 58.1660156,109.414062 C58.1660156,109.414062 58.0911458,109.414062 57.9414062,109.414062 C57.7916667,109.414062 57.6419271,109.414062 57.4921875,109.414062 C57.3424479,109.414062 57.2675781,109.339193 57.2675781,109.189453 C57.1178385,109.039714 57.0429688,108.964844 57.0429688,108.964844 C56.8932292,108.815104 56.8183594,108.665365 56.8183594,108.515625 C56.8183594,106.86849 56.8183594,104.921875 56.8183594,102.675781 C56.8183594,100.279948 56.8183594,97.4348958 56.8183594,94.140625 C56.8183594,94.2903646 56.7434896,94.4401042 56.59375,94.5898438 C56.4440104,94.5898438 56.2942708,94.6647135 56.1445312,94.8144531 C56.1445312,94.9641927 56.0696615,95.0390625 55.9199219,95.0390625 C55.7701823,95.1888021 55.6204427,95.2636719 55.4707031,95.2636719 C55.4707031,95.2636719 55.3958333,95.1888021 55.2460938,95.0390625 C55.0963542,95.0390625 54.9466146,94.9641927 54.796875,94.8144531 C54.796875,94.8144531 54.7220052,94.7395833 54.5722656,94.5898438 C54.5722656,94.4401042 54.5722656,94.2903646 54.5722656,94.140625 C54.5722656,94.140625 54.5722656,94.0657552 54.5722656,93.9160156 C54.7220052,93.766276 54.796875,93.6165365 54.796875,93.4667969 C55.0963542,93.3170573 55.4707031,93.0175781 55.9199219,92.5683594 C56.219401,92.1191406 56.6686198,91.6699219 57.2675781,91.2207031 C57.2675781,91.0709635 57.3424479,90.9960938 57.4921875,90.9960938 C57.4921875,90.9960938 57.5670573,90.9960938 57.7167969,90.9960938 C57.7167969,90.9960938 57.7916667,90.9960938 57.9414062,90.9960938 C57.9414062,90.9960938 57.9414062,90.9960938 57.9414062,90.9960938 C57.9414062,90.9960938 58.016276,90.9960938 58.1660156,90.9960938 C58.1660156,90.9960938 58.2408854,90.9960938 58.390625,90.9960938 Z M78.3808594,73.2519531 C78.530599,73.2519531 78.6803385,73.3268229 78.8300781,73.4765625 C78.9798177,73.4765625 79.0546875,73.5514323 79.0546875,73.7011719 C79.2044271,73.7011719 79.2792969,73.7760417 79.2792969,73.9257812 C79.4290365,74.0755208 79.5039062,74.2252604 79.5039062,74.375 C79.5039062,74.5247396 79.4290365,74.5996094 79.2792969,74.5996094 C79.2792969,74.749349 79.2044271,74.8990885 79.0546875,75.0488281 C79.0546875,75.0488281 78.9798177,75.1236979 78.8300781,75.2734375 C78.6803385,75.2734375 78.530599,75.2734375 78.3808594,75.2734375 C77.6321615,75.2734375 76.8834635,75.2734375 76.1347656,75.2734375 C75.3860677,75.2734375 74.5625,75.2734375 73.6640625,75.2734375 C72.9153646,75.2734375 72.1666667,75.2734375 71.4179688,75.2734375 C70.6692708,75.2734375 69.8457031,75.2734375 68.9472656,75.2734375 C68.9472656,75.2734375 68.9472656,75.2734375 68.9472656,75.2734375 C68.797526,75.2734375 68.7226562,75.2734375 68.7226562,75.2734375 C68.5729167,75.2734375 68.4980469,75.1985677 68.4980469,75.0488281 C68.4980469,75.0488281 68.4231771,75.0488281 68.2734375,75.0488281 C68.2734375,74.8990885 68.2734375,74.8242188 68.2734375,74.8242188 C68.2734375,74.8242188 68.1985677,74.749349 68.0488281,74.5996094 C68.0488281,74.5996094 68.0488281,74.5247396 68.0488281,74.375 C68.0488281,74.375 68.0488281,74.375 68.0488281,74.375 C68.0488281,74.375 68.0488281,74.375 68.0488281,74.375 C68.0488281,74.2252604 68.0488281,74.1503906 68.0488281,74.1503906 C68.0488281,74.1503906 68.1236979,74.0755208 68.2734375,73.9257812 C68.2734375,73.6263021 68.2734375,73.2519531 68.2734375,72.8027344 C68.4231771,72.3535156 68.6477865,71.9042969 68.9472656,71.4550781 C69.0970052,70.8561198 69.3964844,70.2571615 69.8457031,69.6582031 C69.9954427,69.358724 70.2200521,69.0592448 70.5195312,68.7597656 C70.6692708,68.4602865 70.8938802,68.1608073 71.1933594,67.8613281 C71.4928385,67.561849 71.7923177,67.3372396 72.0917969,67.1875 C72.5410156,66.8880208 72.9153646,66.5885417 73.2148438,66.2890625 C74.1132812,65.6901042 74.8619792,65.1660156 75.4609375,64.7167969 C75.9101562,64.2675781 76.2845052,63.8932292 76.5839844,63.59375 C76.733724,63.1445312 76.8834635,62.7701823 77.0332031,62.4707031 C77.1829427,62.171224 77.2578125,61.8717448 77.2578125,61.5722656 C77.2578125,61.422526 77.2578125,61.2727865 77.2578125,61.1230469 C77.2578125,61.1230469 77.1829427,61.0481771 77.0332031,60.8984375 C77.0332031,60.7486979 77.0332031,60.5989583 77.0332031,60.4492188 C77.0332031,60.4492188 77.0332031,60.374349 77.0332031,60.2246094 C76.8834635,60.0748698 76.733724,59.8502604 76.5839844,59.5507812 C76.4342448,59.4010417 76.2096354,59.2513021 75.9101562,59.1015625 C75.7604167,58.9518229 75.4609375,58.8020833 75.0117188,58.6523438 C74.7122396,58.6523438 74.3378906,58.6523438 73.8886719,58.6523438 C73.4394531,58.6523438 73.0651042,58.6523438 72.765625,58.6523438 C72.4661458,58.8020833 72.1666667,58.9518229 71.8671875,59.1015625 C71.5677083,59.2513021 71.343099,59.4759115 71.1933594,59.7753906 C71.0436198,59.9251302 70.8938802,60.1497396 70.7441406,60.4492188 C70.594401,60.5989583 70.5195312,60.7486979 70.5195312,60.8984375 C70.3697917,60.8984375 70.2200521,60.8984375 70.0703125,60.8984375 C69.9205729,61.0481771 69.7708333,61.1230469 69.6210938,61.1230469 C69.6210938,61.1230469 69.546224,61.0481771 69.3964844,60.8984375 C69.2467448,60.8984375 69.0970052,60.8235677 68.9472656,60.6738281 C68.9472656,60.6738281 68.9472656,60.5989583 68.9472656,60.4492188 C68.797526,60.2994792 68.7226562,60.1497396 68.7226562,60 C68.7226562,59.8502604 68.797526,59.7753906 68.9472656,59.7753906 C69.0970052,59.1764323 69.3216146,58.7272135 69.6210938,58.4277344 C70.0703125,57.9785156 70.4446615,57.6790365 70.7441406,57.5292969 C71.1933594,57.2298177 71.6425781,57.0052083 72.0917969,56.8554688 C72.6907552,56.7057292 73.2148438,56.6308594 73.6640625,56.6308594 C74.7122396,56.6308594 75.6106771,56.780599 76.359375,57.0800781 C76.9583333,57.3795573 77.4824219,57.7539062 77.9316406,58.203125 C78.3808594,58.8020833 78.6803385,59.3261719 78.8300781,59.7753906 C78.9798177,60.374349 79.0546875,60.9733073 79.0546875,61.5722656 C79.0546875,62.171224 78.9798177,62.6953125 78.8300781,63.1445312 C78.6803385,63.7434896 78.3808594,64.3424479 77.9316406,64.9414062 C77.6321615,65.390625 77.1829427,65.8398438 76.5839844,66.2890625 C75.985026,66.8880208 75.2363281,67.4121094 74.3378906,67.8613281 C73.7389323,68.3105469 73.139974,68.7597656 72.5410156,69.2089844 C72.0917969,69.6582031 71.7174479,70.1822917 71.4179688,70.78125 C71.1184896,71.2304688 70.8938802,71.6796875 70.7441406,72.1289062 C70.594401,72.578125 70.4446615,72.952474 70.2949219,73.2519531 C71.1933594,73.2519531 72.3164062,73.2519531 73.6640625,73.2519531 C75.0117188,73.2519531 76.5839844,73.2519531 78.3808594,73.2519531 Z"/></svg>