<svg xmlns="http://www.w3.org/2000/svg" width="120" height="203" viewBox="0 0 120 203"><path fill="#131313" d="M3440.47121,190.292969 C3441.98228,191.804036 3442.73781,193.589844 3442.73781,195.650391 C3442.73781,197.710937 3441.98228,199.496745 3440.47121,201.007813 C3439.78436,201.694661 3438.96014,202.244141 3437.99855,202.65625 C3437.17434,202.93099 3436.28143,203.068359 3435.31984,203.068359 C3434.35826,203.068359 3433.39667,202.93099 3432.43508,202.65625 C3431.47349,202.244141 3430.64927,201.694661 3429.96242,201.007813 C3428.03924,199.084635 3425.15448,196.19987 3421.30813,192.353516 C3417.46177,195.78776 3413.20331,198.466471 3408.53273,200.389648 C3403.86216,202.175456 3398.77948,203.068359 3393.28469,203.068359 C3378.58612,203.068359 3366.70363,196.543294 3357.63723,183.493164 C3348.57082,170.443034 3344.03762,153.27181 3344.03762,131.979492 C3344.03762,110.412435 3348.50214,93.172526 3357.43117,80.2597656 C3366.36021,67.3470052 3378.31138,60.890625 3393.28469,60.890625 C3408.25799,60.890625 3420.27785,67.3470052 3429.34426,80.2597656 C3438.27329,93.172526 3442.73781,110.412435 3442.73781,131.979492 C3442.73781,141.870117 3441.70754,150.936523 3439.64699,159.178711 C3437.58645,167.420898 3434.63299,174.632812 3430.78664,180.814453 C3432.43508,182.325521 3434.08352,183.905273 3435.73195,185.553711 C3437.24302,187.202148 3438.82277,188.781901 3440.47121,190.292969 Z M3393.44875,188.396484 C3396.74563,188.396484 3399.83645,187.847005 3402.72121,186.748047 C3405.60598,185.649089 3408.28469,184.000651 3410.75734,181.802734 C3408.42206,179.467448 3404.91913,175.964518 3400.24855,171.293945 C3398.73749,169.782878 3397.98195,167.99707 3397.98195,165.936523 C3397.98195,163.875977 3398.73749,162.090169 3400.24855,160.579102 C3401.75962,159.205404 3403.54543,158.518555 3405.60598,158.518555 C3407.66652,158.518555 3409.38365,159.205404 3410.75734,160.579102 C3412.81789,162.639648 3415.90871,165.730469 3420.0298,169.851562 C3422.50246,165.04362 3424.42564,159.480143 3425.79934,153.161133 C3427.17303,146.704753 3427.85988,139.698893 3427.85988,132.143555 C3427.85988,127.610352 3427.58514,123.008464 3427.03566,118.337891 C3426.48618,113.667318 3425.59328,109.134115 3424.35695,104.738281 C3422.02167,96.7708333 3418.38137,89.9710286 3413.43605,84.3388672 C3408.35337,78.7067057 3401.69094,75.890625 3393.44875,75.890625 C3385.20656,75.890625 3378.61281,78.7067057 3373.6675,84.3388672 C3368.72219,89.9710286 3365.08189,96.7708333 3362.7466,104.738281 C3361.51027,109.134115 3360.61737,113.667318 3360.06789,118.337891 C3359.38104,123.008464 3359.03762,127.610352 3359.03762,132.143555 C3359.03762,148.902669 3362.19712,162.502279 3368.51613,172.942383 C3374.83514,183.245117 3383.14602,188.396484 3393.44875,188.396484 Z M3429.9927,69.0839844 C3426.28371,64.8255208 3422.16262,61.391276 3417.62941,58.78125 C3413.09621,56.0338542 3408.21958,54.1106771 3402.99953,53.0117188 C3403.1369,52.5996094 3403.20559,51.9127604 3403.20559,50.9511719 C3408.70038,52.0501302 3413.85174,54.0419922 3418.65969,56.9267578 C3423.46763,59.6741536 3427.79478,63.2457682 3431.64113,67.6416016 C3431.50376,67.7789714 3431.36639,67.8476562 3431.22902,67.8476562 C3431.09165,67.985026 3430.95428,68.0537109 3430.81691,68.0537109 C3430.67954,68.1910807 3430.54217,68.3284505 3430.4048,68.4658203 C3430.26743,68.6031901 3430.13007,68.8092448 3429.9927,69.0839844 Z M3402.99953,53.0117188 C3402.99953,53.4238281 3402.93085,54.0419922 3402.79348,54.8662109 C3400.32082,54.0419922 3396.68052,52.6682943 3391.87258,50.7451172 C3394.4826,50.3330078 3398.32896,49.7148438 3403.41164,48.890625 C3403.41164,49.3027344 3403.34296,49.9895833 3403.20559,50.9511719 C3402.93085,50.8138021 3402.65611,50.7451172 3402.38137,50.7451172 C3401.96926,50.6077474 3401.62583,50.5390625 3401.35109,50.5390625 C3401.21372,50.9511719 3401.07635,51.6380208 3400.93898,52.5996094 C3401.35109,52.5996094 3401.69452,52.6682943 3401.96926,52.8056641 C3402.38137,52.8056641 3402.72479,52.874349 3402.99953,53.0117188 Z M3400.93898,52.5996094 C3401.07635,52.0501302 3401.21372,51.3632812 3401.35109,50.5390625 C3401.62583,50.5390625 3401.96926,50.6077474 3402.38137,50.7451172 C3402.65611,50.7451172 3402.93085,50.8138021 3403.20559,50.9511719 C3403.20559,51.3632812 3403.1369,52.0501302 3402.99953,53.0117188 C3402.72479,52.874349 3402.38137,52.8056641 3401.96926,52.8056641 C3401.69452,52.6682943 3401.35109,52.5996094 3400.93898,52.5996094 Z M3435.96828,74.8535156 C3435.00669,75.5403646 3433.97642,75.8151042 3432.87746,75.6777344 C3431.7785,75.5403646 3430.95428,74.9908854 3430.4048,74.0292969 C3429.85533,73.3424479 3429.58059,72.5869141 3429.58059,71.7626953 C3429.58059,70.9384766 3429.85533,70.1829427 3430.4048,69.4960938 C3430.26743,69.358724 3430.19875,69.2900391 3430.19875,69.2900391 C3430.06138,69.1526693 3429.9927,69.0839844 3429.9927,69.0839844 C3429.44322,69.7708333 3429.09979,70.5950521 3428.96242,71.5566406 C3428.96242,72.655599 3429.30585,73.6171875 3429.9927,74.4414062 C3430.67954,75.4029948 3431.64113,75.952474 3432.87746,76.0898438 C3434.11379,76.3645833 3435.21275,76.1585286 3436.17434,75.4716797 C3437.13592,74.6474609 3437.75409,73.6171875 3438.02883,72.3808594 C3438.1662,71.1445312 3437.89146,70.0455729 3437.20461,69.0839844 C3436.51776,68.2597656 3435.69354,67.7102865 3434.73195,67.4355469 C3433.63299,67.1608073 3432.60272,67.2294922 3431.64113,67.6416016 C3431.7785,67.7789714 3431.84719,67.8476562 3431.84719,67.8476562 C3431.84719,67.985026 3431.91587,68.0537109 3432.05324,68.0537109 C3432.87746,67.7789714 3433.70168,67.7102865 3434.5259,67.8476562 C3435.48749,68.1223958 3436.24302,68.671875 3436.7925,69.4960938 C3437.34198,70.3203125 3437.54803,71.281901 3437.41066,72.3808594 C3437.27329,73.4798177 3436.7925,74.3040365 3435.96828,74.8535156 Z M3430.4048,69.4960938 C3430.54217,69.2213542 3430.67954,69.0152995 3430.81691,68.8779297 C3430.95428,68.7405599 3431.09165,68.6031901 3431.22902,68.4658203 C3431.36639,68.4658203 3431.50376,68.3971354 3431.64113,68.2597656 C3431.7785,68.2597656 3431.91587,68.1910807 3432.05324,68.0537109 C3431.91587,68.0537109 3431.84719,67.985026 3431.84719,67.8476562 C3431.70982,67.8476562 3431.64113,67.7789714 3431.64113,67.6416016 C3431.50376,67.7789714 3431.36639,67.8476562 3431.22902,67.8476562 C3431.09165,67.985026 3430.95428,68.0537109 3430.81691,68.0537109 C3430.67954,68.1910807 3430.54217,68.3284505 3430.4048,68.4658203 C3430.26743,68.6031901 3430.13007,68.8092448 3429.9927,69.0839844 C3430.13007,69.0839844 3430.19875,69.0839844 3430.19875,69.0839844 C3430.19875,69.2213542 3430.26743,69.358724 3430.4048,69.4960938 Z M3435.96828,74.8535156 C3436.7925,74.3040365 3437.27329,73.4798177 3437.41066,72.3808594 C3437.54803,71.281901 3437.34198,70.3203125 3436.7925,69.4960938 C3436.24302,68.671875 3435.48749,68.1223958 3434.5259,67.8476563 C3433.70168,67.7102865 3432.87746,67.7789714 3432.05324,68.0537109 C3432.05324,68.1910807 3432.12193,68.2597656 3432.2593,68.2597656 C3432.2593,68.3971354 3432.32798,68.4658203 3432.46535,68.4658203 C3433.1522,68.3284505 3433.83905,68.3284505 3434.5259,68.4658203 C3435.21275,68.7405599 3435.83091,69.1526693 3436.38039,69.7021484 C3436.24302,69.5647786 3436.17434,69.4960938 3436.17434,69.4960938 C3436.17434,69.4960938 3436.10565,69.4274089 3435.96828,69.2900391 C3436.10565,69.4274089 3436.17434,69.4960938 3436.17434,69.4960938 C3436.17434,69.6334635 3436.24302,69.7021484 3436.38039,69.7021484 C3436.92987,70.5263672 3437.13592,71.4192708 3436.99855,72.3808594 C3436.86118,73.2050781 3436.38039,73.8919271 3435.55617,74.4414063 C3434.73195,75.1282552 3433.90773,75.3343099 3433.08352,75.0595703 C3432.12193,74.9222005 3431.36639,74.5100911 3430.81691,73.8232422 C3430.26743,73.1363932 3429.9927,72.4495443 3429.9927,71.7626953 C3429.9927,71.0758464 3430.19875,70.4576823 3430.61086,69.9082031 C3430.61086,69.7708333 3430.54217,69.7021484 3430.4048,69.7021484 C3430.4048,69.5647786 3430.4048,69.4960938 3430.4048,69.4960938 C3429.85533,70.0455729 3429.58059,70.8011068 3429.58059,71.7626953 C3429.58059,72.5869141 3429.85533,73.3424479 3430.4048,74.0292969 C3430.95428,74.9908854 3431.7785,75.5403646 3432.87746,75.6777344 C3433.97642,75.8151042 3435.00669,75.5403646 3435.96828,74.8535156 Z M3432.2593,68.4658203 C3432.2593,68.4658203 3432.2593,68.3971354 3432.2593,68.2597656 C3432.12193,68.2597656 3432.05324,68.1910807 3432.05324,68.0537109 C3431.91587,68.1910807 3431.7785,68.2597656 3431.64113,68.2597656 C3431.50376,68.3971354 3431.36639,68.4658203 3431.22902,68.4658203 C3431.09165,68.6031901 3430.95428,68.7405599 3430.81691,68.8779297 C3430.67954,69.0152995 3430.54217,69.1526693 3430.4048,69.2900391 C3430.4048,69.4274089 3430.47349,69.4960938 3430.61086,69.4960938 C3430.61086,69.6334635 3430.61086,69.7708333 3430.61086,69.9082031 C3430.74823,69.6334635 3430.8856,69.4274089 3431.02297,69.2900391 C3431.16034,69.1526693 3431.29771,69.0152995 3431.43508,68.8779297 C3431.57245,68.8779297 3431.70982,68.8092448 3431.84719,68.671875 C3431.98456,68.671875 3432.12193,68.6031901 3432.2593,68.4658203 Z M3421.75051,157.893555 C3426.28371,162.426758 3433.08352,169.226562 3442.14992,178.292969 C3441.87518,178.705078 3441.39439,179.254557 3440.70754,179.941406 C3436.17434,175.270833 3429.37453,168.402344 3420.30813,159.335938 C3420.44549,159.335938 3420.58286,159.267253 3420.72023,159.129883 C3420.8576,158.992513 3420.99497,158.855143 3421.13234,158.717773 C3421.26971,158.580404 3421.3384,158.443034 3421.3384,158.305664 C3421.47577,158.168294 3421.61314,158.030924 3421.75051,157.893555 Z M3443.5923,176.850586 C3444.82863,179.185872 3446.82049,182.620117 3449.56789,187.15332 C3447.2326,185.916992 3443.79836,183.92513 3439.26516,181.177734 C3439.5399,180.902995 3440.02069,180.490885 3440.70754,179.941406 C3440.98228,180.216146 3441.46307,180.69694 3442.14992,181.383789 C3442.42466,180.97168 3442.90546,180.422201 3443.5923,179.735352 C3443.31757,179.460612 3442.83677,178.979818 3442.14992,178.292969 C3442.42466,178.018229 3442.90546,177.537435 3443.5923,176.850586 Z M3440.70754,179.735352 C3440.98228,179.460612 3441.46307,178.979818 3442.14992,178.292969 C3442.42466,178.705078 3442.90546,179.185872 3443.5923,179.735352 C3443.31757,180.147461 3442.83677,180.69694 3442.14992,181.383789 C3441.87518,180.97168 3441.39439,180.422201 3440.70754,179.735352 Z M3421.13234,152.330078 C3421.26971,152.467448 3421.3384,152.604818 3421.3384,152.742188 C3421.47577,152.742188 3421.54445,152.742188 3421.54445,152.742188 C3421.54445,152.742188 3421.47577,152.742188 3421.3384,152.742188 C3421.20103,152.604818 3421.13234,152.467448 3421.13234,152.330078 Z M3415.15676,152.742188 C3415.84361,152.055339 3416.73651,151.711914 3417.83547,151.711914 C3418.93443,151.711914 3419.89602,152.055339 3420.72023,152.742188 C3421.40708,153.429036 3421.75051,154.18457 3421.75051,155.008789 C3421.88788,155.970378 3421.75051,156.794596 3421.3384,157.481445 C3421.47577,157.618815 3421.61314,157.756185 3421.75051,157.893555 C3422.29999,157.069336 3422.50604,156.107747 3422.36867,155.008789 C3422.2313,154.047201 3421.81919,153.154297 3421.13234,152.330078 C3420.17076,151.505859 3419.0718,151.09375 3417.83547,151.09375 C3416.59914,151.09375 3415.56887,151.505859 3414.74465,152.330078 C3413.92043,153.291667 3413.50832,154.390625 3413.50832,155.626953 C3413.50832,156.863281 3413.92043,157.893555 3414.74465,158.717773 C3415.4315,159.541992 3416.3244,159.954102 3417.42336,159.954102 C3418.38495,160.091471 3419.34654,159.885417 3420.30813,159.335938 C3420.17076,159.335938 3420.03339,159.198568 3419.89602,158.923828 C3419.0718,159.473307 3418.24758,159.679362 3417.42336,159.541992 C3416.46177,159.404622 3415.70624,158.992513 3415.15676,158.305664 C3414.33254,157.618815 3413.92043,156.725911 3413.92043,155.626953 C3413.92043,154.527995 3414.33254,153.566406 3415.15676,152.742188 Z M3420.72023,152.124023 C3420.8576,152.124023 3420.92629,152.192708 3420.92629,152.330078 C3420.92629,152.330078 3420.99497,152.330078 3421.13234,152.330078 C3420.99497,152.330078 3420.92629,152.330078 3420.92629,152.330078 C3420.92629,152.192708 3420.8576,152.124023 3420.72023,152.124023 Z M3421.75051,157.893555 C3421.61314,158.030924 3421.47577,158.168294 3421.3384,158.305664 C3421.3384,158.443034 3421.26971,158.580404 3421.13234,158.717773 C3420.99497,158.855143 3420.8576,158.992513 3420.72023,159.129883 C3420.58286,159.267253 3420.44549,159.335938 3420.30813,159.335938 C3420.17076,159.335938 3420.03339,159.267253 3419.89602,159.129883 C3420.03339,158.992513 3420.17076,158.855143 3420.30813,158.717773 C3420.44549,158.580404 3420.58286,158.443034 3420.72023,158.305664 C3420.8576,158.168294 3420.99497,158.030924 3421.13234,157.893555 C3421.13234,157.756185 3421.20103,157.618815 3421.3384,157.481445 C3421.47577,157.618815 3421.54445,157.6875 3421.54445,157.6875 C3421.54445,157.82487 3421.61314,157.893555 3421.75051,157.893555 Z M3415.15676,152.742188 C3414.33254,153.566406 3413.92043,154.527995 3413.92043,155.626953 C3413.92043,156.725911 3414.33254,157.618815 3415.15676,158.305664 C3415.70624,158.992513 3416.46177,159.404622 3417.42336,159.541992 C3418.24758,159.679362 3419.0718,159.473307 3419.89602,158.923828 C3419.75865,158.923828 3419.62128,158.855143 3419.48391,158.717773 C3418.79706,158.992513 3418.11021,159.061198 3417.42336,158.923828 C3416.73651,158.923828 3416.11835,158.649089 3415.56887,158.099609 C3415.4315,157.96224 3415.29413,157.82487 3415.15676,157.6875 C3415.15676,157.6875 3415.15676,157.6875 3415.15676,157.6875 C3415.15676,157.6875 3415.15676,157.6875 3415.15676,157.6875 C3415.29413,157.82487 3415.4315,157.96224 3415.56887,158.099609 C3414.88202,157.41276 3414.53859,156.588542 3414.53859,155.626953 C3414.53859,154.665365 3414.88202,153.841146 3415.56887,153.154297 C3416.25572,152.467448 3417.01125,152.124023 3417.83547,152.124023 C3418.79706,152.124023 3419.62128,152.467448 3420.30813,153.154297 C3420.8576,153.703776 3421.20103,154.32194 3421.3384,155.008789 C3421.47577,155.833008 3421.3384,156.519857 3420.92629,157.069336 C3421.06366,157.206706 3421.20103,157.344076 3421.3384,157.481445 C3421.75051,156.794596 3421.88788,155.970378 3421.75051,155.008789 C3421.75051,154.18457 3421.40708,153.429036 3420.72023,152.742188 C3419.89602,152.055339 3418.93443,151.711914 3417.83547,151.711914 C3416.73651,151.711914 3415.84361,152.055339 3415.15676,152.742188 Z M3420.30813,158.099609 C3420.44549,157.96224 3420.58286,157.82487 3420.72023,157.6875 C3420.8576,157.41276 3420.92629,157.206706 3420.92629,157.069336 C3421.06366,157.206706 3421.20103,157.344076 3421.3384,157.481445 C3421.20103,157.618815 3421.13234,157.756185 3421.13234,157.893555 C3420.99497,158.030924 3420.8576,158.168294 3420.72023,158.305664 C3420.58286,158.443034 3420.44549,158.580404 3420.30813,158.717773 C3420.17076,158.855143 3420.03339,158.923828 3419.89602,158.923828 C3419.75865,158.923828 3419.62128,158.855143 3419.48391,158.717773 C3419.62128,158.580404 3419.75865,158.443034 3419.89602,158.305664 C3420.03339,158.305664 3420.17076,158.236979 3420.30813,158.099609 Z M3442.35598,71.96875 C3442.49335,71.8313802 3442.63072,71.6940104 3442.76809,71.5566406 C3442.90546,71.4192708 3442.97414,71.3505859 3442.97414,71.3505859 C3442.97414,74.2353516 3442.97414,76.7766927 3442.97414,78.9746094 C3442.97414,81.172526 3442.97414,83.0270182 3442.97414,84.5380859 C3442.97414,84.5380859 3443.04283,84.6067708 3443.1802,84.7441406 C3443.1802,84.8815104 3443.1802,85.0188802 3443.1802,85.15625 C3443.31757,85.15625 3443.45493,85.2249349 3443.5923,85.3623047 C3443.72967,85.3623047 3443.86704,85.3623047 3444.00441,85.3623047 C3444.00441,85.3623047 3444.0731,85.3623047 3444.21047,85.3623047 C3444.34784,85.2249349 3444.48521,85.15625 3444.62258,85.15625 C3444.62258,85.0188802 3444.69126,84.8815104 3444.82863,84.7441406 C3444.82863,84.6067708 3444.82863,84.5380859 3444.82863,84.5380859 C3444.82863,81.1038411 3444.82863,78.0817057 3444.82863,75.4716797 C3444.82863,72.9990234 3444.82863,70.8697917 3444.82863,69.0839844 C3444.82863,69.0839844 3444.82863,69.0152995 3444.82863,68.8779297 C3444.82863,68.8779297 3444.75995,68.8092448 3444.62258,68.671875 C3444.62258,68.671875 3444.55389,68.6031901 3444.41652,68.4658203 C3444.41652,68.4658203 3444.34784,68.3971354 3444.21047,68.2597656 C3444.21047,68.2597656 3444.14178,68.2597656 3444.00441,68.2597656 C3444.00441,68.2597656 3444.00441,68.2597656 3444.00441,68.2597656 C3443.86704,68.2597656 3443.79836,68.2597656 3443.79836,68.2597656 C3443.79836,68.2597656 3443.79836,68.2597656 3443.79836,68.2597656 C3443.66099,68.2597656 3443.52362,68.3284505 3443.38625,68.4658203 C3443.38625,68.4658203 3443.31757,68.4658203 3443.1802,68.4658203 C3442.76809,69.0152995 3442.35598,69.4960938 3441.94387,69.9082031 C3441.66913,70.1829427 3441.39439,70.4576823 3441.11965,70.7324219 C3440.98228,70.8697917 3440.91359,70.9384766 3440.91359,70.9384766 C3440.91359,71.0758464 3440.91359,71.2132161 3440.91359,71.3505859 C3440.91359,71.4879557 3440.91359,71.6253255 3440.91359,71.7626953 C3440.91359,71.7626953 3440.98228,71.8313802 3441.11965,71.96875 C3441.25702,72.1061198 3441.39439,72.1748047 3441.53176,72.1748047 C3441.53176,72.1748047 3441.60044,72.1748047 3441.73781,72.1748047 C3441.87518,72.1748047 3442.01255,72.1748047 3442.14992,72.1748047 C3442.28729,72.1748047 3442.35598,72.1061198 3442.35598,71.96875 Z M3402.79348,149.033203 C3402.93085,148.758464 3403.06822,148.415039 3403.20559,148.00293 C3403.48033,147.59082 3403.75507,147.178711 3404.0298,146.766602 C3404.30454,146.217122 3404.64797,145.736328 3405.06008,145.324219 C3405.47219,144.912109 3406.02167,144.5 3406.70852,144.087891 C3407.53273,143.675781 3408.21958,143.194987 3408.76906,142.645508 C3409.31854,142.233398 3409.73065,141.752604 3410.00539,141.203125 C3410.4175,140.791016 3410.69224,140.310221 3410.82961,139.760742 C3410.96698,139.348633 3411.03566,138.867839 3411.03566,138.318359 C3411.03566,137.76888 3410.96698,137.219401 3410.82961,136.669922 C3410.55487,136.120443 3410.28013,135.639648 3410.00539,135.227539 C3409.59328,134.67806 3409.0438,134.334635 3408.35695,134.197266 C3407.80747,133.922526 3407.05194,133.785156 3406.09035,133.785156 C3405.54087,133.785156 3405.06008,133.853841 3404.64797,133.991211 C3404.23586,134.128581 3403.82375,134.265951 3403.41164,134.40332 C3402.99953,134.67806 3402.65611,135.021484 3402.38137,135.433594 C3402.10663,135.708333 3401.83189,136.051758 3401.55715,136.463867 C3401.55715,136.601237 3401.55715,136.738607 3401.55715,136.875977 C3401.55715,137.013346 3401.55715,137.150716 3401.55715,137.288086 C3401.69452,137.425456 3401.7632,137.494141 3401.7632,137.494141 C3401.90057,137.63151 3401.96926,137.700195 3401.96926,137.700195 C3402.10663,137.837565 3402.244,137.90625 3402.38137,137.90625 C3402.51874,137.90625 3402.65611,137.837565 3402.79348,137.700195 C3402.93085,137.700195 3402.99953,137.63151 3402.99953,137.494141 C3403.1369,137.494141 3403.20559,137.425456 3403.20559,137.288086 C3403.34296,137.013346 3403.54901,136.738607 3403.82375,136.463867 C3403.96112,136.326497 3404.16717,136.189128 3404.44191,136.051758 C3404.57928,135.914388 3404.85402,135.777018 3405.26613,135.639648 C3405.54087,135.639648 3405.81561,135.639648 3406.09035,135.639648 C3406.50246,135.639648 3406.91457,135.639648 3407.32668,135.639648 C3407.60142,135.777018 3407.87616,135.914388 3408.1509,136.051758 C3408.28827,136.189128 3408.49432,136.326497 3408.76906,136.463867 C3408.90643,136.601237 3408.97512,136.807292 3408.97512,137.082031 C3409.11249,137.219401 3409.18117,137.288086 3409.18117,137.288086 C3409.18117,137.425456 3409.18117,137.562826 3409.18117,137.700195 C3409.18117,137.837565 3409.18117,137.90625 3409.18117,137.90625 C3409.18117,138.04362 3409.18117,138.18099 3409.18117,138.318359 C3409.18117,138.593099 3409.11249,138.867839 3408.97512,139.142578 C3408.97512,139.417318 3408.83775,139.760742 3408.56301,140.172852 C3408.42564,140.447591 3408.08221,140.791016 3407.53273,141.203125 C3407.12063,141.615234 3406.50246,142.096029 3405.67824,142.645508 C3405.26613,142.920247 3404.92271,143.126302 3404.64797,143.263672 C3404.37323,143.538411 3404.09849,143.813151 3403.82375,144.087891 C3403.54901,144.36263 3403.27427,144.63737 3402.99953,144.912109 C3402.86216,145.186849 3402.65611,145.461589 3402.38137,145.736328 C3402.10663,146.285807 3401.83189,146.766602 3401.55715,147.178711 C3401.41978,147.72819 3401.28241,148.208984 3401.14504,148.621094 C3401.00767,149.033203 3400.93898,149.307943 3400.93898,149.445312 C3400.93898,149.720052 3400.93898,149.857422 3400.93898,149.857422 C3400.93898,149.857422 3400.93898,149.857422 3400.93898,149.857422 C3400.93898,149.857422 3400.93898,149.926107 3400.93898,150.063477 C3400.93898,150.063477 3400.93898,150.063477 3400.93898,150.063477 C3400.93898,150.200846 3400.93898,150.269531 3400.93898,150.269531 C3400.93898,150.269531 3400.93898,150.338216 3400.93898,150.475586 C3401.07635,150.475586 3401.14504,150.544271 3401.14504,150.681641 C3401.14504,150.681641 3401.21372,150.681641 3401.35109,150.681641 C3401.35109,150.681641 3401.35109,150.750326 3401.35109,150.887695 C3401.48846,150.887695 3401.55715,150.887695 3401.55715,150.887695 C3401.69452,150.887695 3401.7632,150.887695 3401.7632,150.887695 C3402.45005,150.887695 3403.1369,150.887695 3403.82375,150.887695 C3404.64797,150.887695 3405.4035,150.887695 3406.09035,150.887695 C3406.7772,150.887695 3407.46405,150.887695 3408.1509,150.887695 C3408.97512,150.887695 3409.73065,150.887695 3410.4175,150.887695 C3410.55487,150.887695 3410.62355,150.887695 3410.62355,150.887695 C3410.76092,150.750326 3410.89829,150.681641 3411.03566,150.681641 C3411.03566,150.544271 3411.10435,150.406901 3411.24172,150.269531 C3411.24172,150.132161 3411.24172,150.063477 3411.24172,150.063477 C3411.24172,149.926107 3411.24172,149.788737 3411.24172,149.651367 C3411.10435,149.513997 3411.03566,149.445312 3411.03566,149.445312 C3410.89829,149.307943 3410.82961,149.239258 3410.82961,149.239258 C3410.69224,149.101888 3410.55487,149.033203 3410.4175,149.033203 C3408.76906,149.033203 3407.32668,149.033203 3406.09035,149.033203 C3404.85402,149.033203 3403.75507,149.033203 3402.79348,149.033203 Z" transform="translate(-3333.752)"/></svg>