<svg xmlns="http://www.w3.org/2000/svg" width="207" height="207" viewBox="0 0 207 207"><path fill="#131313" d="M151.117188,167.53125 C152.764323,169.178385 153.587891,171.125 153.587891,173.371094 C153.587891,175.617188 152.764323,177.563802 151.117188,179.210938 C150.36849,179.959635 149.470052,180.558594 148.421875,181.007812 C147.523438,181.307292 146.55013,181.457031 145.501953,181.457031 C144.453776,181.457031 143.405599,181.307292 142.357422,181.007812 C141.309245,180.558594 140.410807,179.959635 139.662109,179.210938 C137.565755,177.114583 134.421224,173.970052 130.228516,169.777344 C126.035807,173.520833 121.39388,176.440755 116.302734,178.537109 C111.211589,180.483724 105.671224,181.457031 99.6816406,181.457031 C83.6595052,181.457031 70.7070312,174.344401 60.8242188,160.119141 C50.9414062,145.89388 46,127.176432 46,103.966797 C46,80.4576823 50.8665365,61.6653646 60.5996094,47.5898438 C70.3326823,33.5143229 83.360026,26.4765625 99.6816406,26.4765625 C116.003255,26.4765625 129.105469,33.5143229 138.988281,47.5898438 C148.721354,61.6653646 153.587891,80.4576823 153.587891,103.966797 C153.587891,114.748047 152.464844,124.630859 150.21875,133.615234 C147.972656,142.599609 144.753255,150.460938 140.560547,157.199219 C142.357422,158.846354 144.154297,160.568359 145.951172,162.365234 C147.598307,164.162109 149.320312,165.884115 151.117188,167.53125 Z M99.6816406,165.285156 C103.275391,165.285156 106.644531,164.686198 109.789062,163.488281 C112.933594,162.290365 115.853516,160.49349 118.548828,158.097656 C116.003255,155.552083 112.184896,151.733724 107.09375,146.642578 C105.446615,144.995443 104.623047,143.048828 104.623047,140.802734 C104.623047,138.556641 105.446615,136.610026 107.09375,134.962891 C108.740885,133.465495 110.6875,132.716797 112.933594,132.716797 C115.179688,132.716797 117.051432,133.465495 118.548828,134.962891 C120.794922,137.208984 124.164062,140.578125 128.65625,145.070312 C131.351562,139.829427 133.447917,133.764974 134.945312,126.876953 C136.442708,119.839193 137.191406,112.202474 137.191406,103.966797 C137.191406,99.0253906 136.891927,94.0091146 136.292969,88.9179688 C135.69401,83.8268229 134.720703,78.8854167 133.373047,74.09375 C130.827474,65.4088542 126.859375,57.9967448 121.46875,51.8574219 C115.928385,45.718099 108.666016,42.6484375 99.6816406,42.6484375 C90.6972656,42.6484375 83.5097656,45.718099 78.1191406,51.8574219 C72.7285156,57.9967448 68.7604167,65.4088542 66.2148438,74.09375 C64.8671875,78.8854167 63.8938802,83.8268229 63.2949219,88.9179688 C62.546224,94.0091146 62.171875,99.0253906 62.171875,103.966797 C62.171875,122.235026 65.6158854,137.059245 72.5039062,148.439453 C79.3919271,159.669922 88.4511719,165.285156 99.6816406,165.285156 Z M140.785156,35.0117188 C136.742188,30.3697917 132.25,26.6263021 127.308594,23.78125 C122.367188,20.7864583 117.051432,18.6901042 111.361328,17.4921875 C111.511068,17.0429688 111.585938,16.2942708 111.585938,15.2460938 C117.575521,16.4440104 123.190755,18.6152344 128.431641,21.7597656 C133.672526,24.7545573 138.389323,28.6477865 142.582031,33.4394531 C142.432292,33.5891927 142.282552,33.6640625 142.132812,33.6640625 C141.983073,33.8138021 141.833333,33.8886719 141.683594,33.8886719 C141.533854,34.0384115 141.384115,34.188151 141.234375,34.3378906 C141.084635,34.4876302 140.934896,34.7122396 140.785156,35.0117188 Z M111.361328,17.4921875 C111.361328,17.9414062 111.286458,18.6152344 111.136719,19.5136719 C108.441406,18.6152344 104.473307,17.1178385 99.2324219,15.0214844 C102.077474,14.5722656 106.270182,13.8984375 111.810547,13 C111.810547,13.4492188 111.735677,14.1979167 111.585938,15.2460938 C111.286458,15.0963542 110.986979,15.0214844 110.6875,15.0214844 C110.238281,14.8717448 109.863932,14.796875 109.564453,14.796875 C109.414714,15.2460938 109.264974,15.9947917 109.115234,17.0429688 C109.564453,17.0429688 109.938802,17.1178385 110.238281,17.2675781 C110.6875,17.2675781 111.061849,17.3424479 111.361328,17.4921875 Z M109.115234,17.0429688 C109.264974,16.4440104 109.414714,15.6953125 109.564453,14.796875 C109.863932,14.796875 110.238281,14.8717448 110.6875,15.0214844 C110.986979,15.0214844 111.286458,15.0963542 111.585938,15.2460938 C111.585938,15.6953125 111.511068,16.4440104 111.361328,17.4921875 C111.061849,17.3424479 110.6875,17.2675781 110.238281,17.2675781 C109.938802,17.1178385 109.564453,17.0429688 109.115234,17.0429688 Z M147.298828,41.3007812 C146.250651,42.0494792 145.127604,42.3489583 143.929688,42.1992188 C142.731771,42.0494792 141.833333,41.4505208 141.234375,40.4023438 C140.635417,39.6536458 140.335938,38.8300781 140.335938,37.9316406 C140.335938,37.0332031 140.635417,36.2096354 141.234375,35.4609375 C141.084635,35.3111979 141.009766,35.2363281 141.009766,35.2363281 C140.860026,35.0865885 140.785156,35.0117188 140.785156,35.0117188 C140.186198,35.7604167 139.811849,36.6588542 139.662109,37.7070312 C139.662109,38.9049479 140.036458,39.953125 140.785156,40.8515625 C141.533854,41.8997396 142.582031,42.4986979 143.929688,42.6484375 C145.277344,42.9479167 146.47526,42.7233073 147.523438,41.9746094 C148.571615,41.0761719 149.245443,39.953125 149.544922,38.6054688 C149.694661,37.2578125 149.395182,36.0598958 148.646484,35.0117188 C147.897786,34.1132812 146.999349,33.5143229 145.951172,33.2148438 C144.753255,32.9153646 143.630208,32.9902344 142.582031,33.4394531 C142.731771,33.5891927 142.806641,33.6640625 142.806641,33.6640625 C142.806641,33.8138021 142.88151,33.8886719 143.03125,33.8886719 C143.929688,33.5891927 144.828125,33.5143229 145.726562,33.6640625 C146.77474,33.9635417 147.598307,34.5625 148.197266,35.4609375 C148.796224,36.359375 149.020833,37.4075521 148.871094,38.6054688 C148.721354,39.8033854 148.197266,40.7018229 147.298828,41.3007812 Z M140.560547,40.4023438 C140.410807,40.4023438 140.335938,40.4023438 140.335938,40.4023438 C140.335938,40.2526042 140.335938,40.1777344 140.335938,40.1777344 C140.335938,40.1777344 140.335938,40.2526042 140.335938,40.4023438 C140.335938,40.4023438 140.410807,40.4023438 140.560547,40.4023438 Z M140.785156,40.8515625 C140.635417,40.7018229 140.560547,40.6269531 140.560547,40.6269531 C140.560547,40.6269531 140.560547,40.5520833 140.560547,40.4023438 C140.560547,40.5520833 140.560547,40.6269531 140.560547,40.6269531 C140.560547,40.6269531 140.635417,40.7018229 140.785156,40.8515625 Z M140.785156,40.8515625 C140.785156,40.8515625 140.785156,40.8515625 140.785156,40.8515625 C140.785156,41.0013021 140.860026,41.0761719 141.009766,41.0761719 C140.860026,41.0761719 140.785156,41.0761719 140.785156,41.0761719 C140.785156,40.9264323 140.785156,40.8515625 140.785156,40.8515625 Z M141.009766,41.0761719 C141.009766,41.2259115 141.009766,41.3007812 141.009766,41.3007812 C141.009766,41.3007812 141.009766,41.3007812 141.009766,41.3007812 C141.009766,41.3007812 141.009766,41.3007812 141.009766,41.3007812 C141.009766,41.3007812 141.009766,41.2259115 141.009766,41.0761719 Z M141.234375,35.4609375 C141.384115,35.1614583 141.533854,34.936849 141.683594,34.7871094 C141.833333,34.6373698 141.983073,34.4876302 142.132812,34.3378906 C142.282552,34.3378906 142.432292,34.2630208 142.582031,34.1132812 C142.731771,34.1132812 142.88151,34.0384115 143.03125,33.8886719 C142.88151,33.8886719 142.806641,33.8138021 142.806641,33.6640625 C142.656901,33.6640625 142.582031,33.5891927 142.582031,33.4394531 C142.432292,33.5891927 142.282552,33.6640625 142.132812,33.6640625 C141.983073,33.8138021 141.833333,33.8886719 141.683594,33.8886719 C141.533854,34.0384115 141.384115,34.188151 141.234375,34.3378906 C141.084635,34.4876302 140.934896,34.7122396 140.785156,35.0117188 C140.934896,35.0117188 141.009766,35.0117188 141.009766,35.0117188 C141.009766,35.1614583 141.084635,35.3111979 141.234375,35.4609375 Z M147.748047,35.6855469 C147.598307,35.5358073 147.523438,35.4609375 147.523438,35.4609375 C147.523438,35.4609375 147.448568,35.3860677 147.298828,35.2363281 C147.448568,35.3860677 147.523438,35.4609375 147.523438,35.4609375 C147.523438,35.6106771 147.598307,35.6855469 147.748047,35.6855469 Z M147.298828,41.3007812 C148.197266,40.7018229 148.721354,39.8033854 148.871094,38.6054688 C149.020833,37.4075521 148.796224,36.359375 148.197266,35.4609375 C147.598307,34.5625 146.77474,33.9635417 145.726562,33.6640625 C144.828125,33.5143229 143.929688,33.5891927 143.03125,33.8886719 C143.03125,34.0384115 143.10612,34.1132812 143.255859,34.1132812 C143.255859,34.2630208 143.330729,34.3378906 143.480469,34.3378906 C144.229167,34.188151 144.977865,34.188151 145.726562,34.3378906 C146.47526,34.6373698 147.149089,35.0865885 147.748047,35.6855469 C147.598307,35.5358073 147.523438,35.4609375 147.523438,35.4609375 C147.523438,35.4609375 147.448568,35.3860677 147.298828,35.2363281 C147.448568,35.3860677 147.523438,35.4609375 147.523438,35.4609375 C147.523438,35.6106771 147.598307,35.6855469 147.748047,35.6855469 C148.347005,36.5839844 148.571615,37.5572917 148.421875,38.6054688 C148.272135,39.5039062 147.748047,40.2526042 146.849609,40.8515625 C145.951172,41.6002604 145.052734,41.8248698 144.154297,41.5253906 C143.10612,41.375651 142.282552,40.9264323 141.683594,40.1777344 C141.084635,39.4290365 140.785156,38.6803385 140.785156,37.9316406 C140.785156,37.1829427 141.009766,36.5091146 141.458984,35.9101562 C141.458984,35.7604167 141.384115,35.6855469 141.234375,35.6855469 C141.234375,35.5358073 141.234375,35.4609375 141.234375,35.4609375 C140.635417,36.0598958 140.335938,36.8834635 140.335938,37.9316406 C140.335938,38.8300781 140.635417,39.6536458 141.234375,40.4023438 C141.833333,41.4505208 142.731771,42.0494792 143.929688,42.1992188 C145.127604,42.3489583 146.250651,42.0494792 147.298828,41.3007812 Z M143.255859,34.3378906 C143.255859,34.3378906 143.255859,34.2630208 143.255859,34.1132812 C143.10612,34.1132812 143.03125,34.0384115 143.03125,33.8886719 C142.88151,34.0384115 142.731771,34.1132812 142.582031,34.1132812 C142.432292,34.2630208 142.282552,34.3378906 142.132812,34.3378906 C141.983073,34.4876302 141.833333,34.6373698 141.683594,34.7871094 C141.533854,34.936849 141.384115,35.0865885 141.234375,35.2363281 C141.234375,35.3860677 141.309245,35.4609375 141.458984,35.4609375 C141.458984,35.6106771 141.458984,35.7604167 141.458984,35.9101562 C141.608724,35.6106771 141.758464,35.3860677 141.908203,35.2363281 C142.057943,35.0865885 142.207682,34.936849 142.357422,34.7871094 C142.507161,34.7871094 142.656901,34.7122396 142.806641,34.5625 C142.95638,34.5625 143.10612,34.4876302 143.255859,34.3378906 Z M131.800781,131.818359 C136.742188,136.759766 144.154297,144.171875 154.037109,154.054688 C153.73763,154.503906 153.213542,155.102865 152.464844,155.851562 C147.523438,150.760417 140.111328,143.273438 130.228516,133.390625 C130.378255,133.390625 130.527995,133.315755 130.677734,133.166016 C130.827474,133.016276 130.977214,132.866536 131.126953,132.716797 C131.276693,132.567057 131.351562,132.417318 131.351562,132.267578 C131.501302,132.117839 131.651042,131.968099 131.800781,131.818359 Z M155.609375,152.482422 C156.957031,155.027995 159.128255,158.771484 162.123047,163.712891 C159.577474,162.365234 155.833984,160.19401 150.892578,157.199219 C151.192057,156.89974 151.716146,156.450521 152.464844,155.851562 C152.764323,156.151042 153.288411,156.67513 154.037109,157.423828 C154.336589,156.974609 154.860677,156.375651 155.609375,155.626953 C155.309896,155.327474 154.785807,154.803385 154.037109,154.054688 C154.336589,153.755208 154.860677,153.23112 155.609375,152.482422 Z M152.464844,155.626953 C152.764323,155.327474 153.288411,154.803385 154.037109,154.054688 C154.336589,154.503906 154.860677,155.027995 155.609375,155.626953 C155.309896,156.076172 154.785807,156.67513 154.037109,157.423828 C153.73763,156.974609 153.213542,156.375651 152.464844,155.626953 Z M131.126953,125.753906 C131.276693,125.903646 131.351562,126.053385 131.351562,126.203125 C131.501302,126.203125 131.576172,126.203125 131.576172,126.203125 C131.576172,126.203125 131.501302,126.203125 131.351562,126.203125 C131.201823,126.053385 131.126953,125.903646 131.126953,125.753906 Z M124.613281,126.203125 C125.361979,125.454427 126.335286,125.080078 127.533203,125.080078 C128.73112,125.080078 129.779297,125.454427 130.677734,126.203125 C131.426432,126.951823 131.800781,127.775391 131.800781,128.673828 C131.950521,129.722005 131.800781,130.620443 131.351562,131.369141 C131.501302,131.51888 131.651042,131.66862 131.800781,131.818359 C132.39974,130.919922 132.624349,129.871745 132.474609,128.673828 C132.32487,127.625651 131.875651,126.652344 131.126953,125.753906 C130.078776,124.855469 128.880859,124.40625 127.533203,124.40625 C126.185547,124.40625 125.0625,124.855469 124.164062,125.753906 C123.265625,126.802083 122.816406,128 122.816406,129.347656 C122.816406,130.695312 123.265625,131.818359 124.164062,132.716797 C124.91276,133.615234 125.886068,134.064453 127.083984,134.064453 C128.132161,134.214193 129.180339,133.989583 130.228516,133.390625 C130.078776,133.390625 129.929036,133.240885 129.779297,132.941406 C128.880859,133.540365 127.982422,133.764974 127.083984,133.615234 C126.035807,133.465495 125.21224,133.016276 124.613281,132.267578 C123.714844,131.51888 123.265625,130.545573 123.265625,129.347656 C123.265625,128.14974 123.714844,127.101562 124.613281,126.203125 Z M130.677734,125.529297 C130.827474,125.529297 130.902344,125.604167 130.902344,125.753906 C130.902344,125.753906 130.977214,125.753906 131.126953,125.753906 C130.977214,125.753906 130.902344,125.753906 130.902344,125.753906 C130.902344,125.604167 130.827474,125.529297 130.677734,125.529297 Z M131.800781,131.818359 C131.651042,131.968099 131.501302,132.117839 131.351562,132.267578 C131.351562,132.417318 131.276693,132.567057 131.126953,132.716797 C130.977214,132.866536 130.827474,133.016276 130.677734,133.166016 C130.527995,133.315755 130.378255,133.390625 130.228516,133.390625 C130.078776,133.390625 129.929036,133.315755 129.779297,133.166016 C129.929036,133.016276 130.078776,132.866536 130.228516,132.716797 C130.378255,132.567057 130.527995,132.417318 130.677734,132.267578 C130.827474,132.117839 130.977214,131.968099 131.126953,131.818359 C131.126953,131.66862 131.201823,131.51888 131.351562,131.369141 C131.501302,131.51888 131.576172,131.59375 131.576172,131.59375 C131.576172,131.74349 131.651042,131.818359 131.800781,131.818359 Z M124.613281,126.203125 C123.714844,127.101562 123.265625,128.14974 123.265625,129.347656 C123.265625,130.545573 123.714844,131.51888 124.613281,132.267578 C125.21224,133.016276 126.035807,133.465495 127.083984,133.615234 C127.982422,133.764974 128.880859,133.540365 129.779297,132.941406 C129.629557,132.941406 129.479818,132.866536 129.330078,132.716797 C128.58138,133.016276 127.832682,133.091146 127.083984,132.941406 C126.335286,132.941406 125.661458,132.641927 125.0625,132.042969 C124.91276,131.893229 124.763021,131.74349 124.613281,131.59375 C124.613281,131.59375 124.613281,131.59375 124.613281,131.59375 C124.613281,131.59375 124.613281,131.59375 124.613281,131.59375 C124.763021,131.74349 124.91276,131.893229 125.0625,132.042969 C124.313802,131.294271 123.939453,130.395833 123.939453,129.347656 C123.939453,128.299479 124.313802,127.401042 125.0625,126.652344 C125.811198,125.903646 126.634766,125.529297 127.533203,125.529297 C128.58138,125.529297 129.479818,125.903646 130.228516,126.652344 C130.827474,127.251302 131.201823,127.92513 131.351562,128.673828 C131.501302,129.572266 131.351562,130.320964 130.902344,130.919922 C131.052083,131.069661 131.201823,131.219401 131.351562,131.369141 C131.800781,130.620443 131.950521,129.722005 131.800781,128.673828 C131.800781,127.775391 131.426432,126.951823 130.677734,126.203125 C129.779297,125.454427 128.73112,125.080078 127.533203,125.080078 C126.335286,125.080078 125.361979,125.454427 124.613281,126.203125 Z M130.228516,132.042969 C130.378255,131.893229 130.527995,131.74349 130.677734,131.59375 C130.827474,131.294271 130.902344,131.069661 130.902344,130.919922 C131.052083,131.069661 131.201823,131.219401 131.351562,131.369141 C131.201823,131.51888 131.126953,131.66862 131.126953,131.818359 C130.977214,131.968099 130.827474,132.117839 130.677734,132.267578 C130.527995,132.417318 130.378255,132.567057 130.228516,132.716797 C130.078776,132.866536 129.929036,132.941406 129.779297,132.941406 C129.629557,132.941406 129.479818,132.866536 129.330078,132.716797 C129.479818,132.567057 129.629557,132.417318 129.779297,132.267578 C129.929036,132.267578 130.078776,132.192708 130.228516,132.042969 Z M154.261719,38.15625 C154.411458,38.0065104 154.561198,37.8567708 154.710938,37.7070312 C154.860677,37.5572917 154.935547,37.4824219 154.935547,37.4824219 C154.935547,40.6269531 154.935547,43.3971354 154.935547,45.7929688 C154.935547,48.1888021 154.935547,50.2102865 154.935547,51.8574219 C154.935547,51.8574219 155.010417,51.9322917 155.160156,52.0820312 C155.160156,52.2317708 155.160156,52.3815104 155.160156,52.53125 C155.309896,52.53125 155.459635,52.6061198 155.609375,52.7558594 C155.759115,52.7558594 155.908854,52.7558594 156.058594,52.7558594 C156.058594,52.7558594 156.133464,52.7558594 156.283203,52.7558594 C156.432943,52.6061198 156.582682,52.53125 156.732422,52.53125 C156.732422,52.3815104 156.807292,52.2317708 156.957031,52.0820312 C156.957031,51.9322917 156.957031,51.8574219 156.957031,51.8574219 C156.957031,48.1139323 156.957031,44.8196615 156.957031,41.9746094 C156.957031,39.2792969 156.957031,36.9583333 156.957031,35.0117188 C156.957031,35.0117188 156.957031,34.936849 156.957031,34.7871094 C156.957031,34.7871094 156.882161,34.7122396 156.732422,34.5625 C156.732422,34.5625 156.657552,34.4876302 156.507812,34.3378906 C156.507812,34.3378906 156.432943,34.2630208 156.283203,34.1132812 C156.283203,34.1132812 156.208333,34.1132812 156.058594,34.1132812 C156.058594,34.1132812 156.058594,34.1132812 156.058594,34.1132812 C155.908854,34.1132812 155.833984,34.1132812 155.833984,34.1132812 C155.833984,34.1132812 155.833984,34.1132812 155.833984,34.1132812 C155.684245,34.1132812 155.534505,34.188151 155.384766,34.3378906 C155.384766,34.3378906 155.309896,34.3378906 155.160156,34.3378906 C154.710938,34.936849 154.261719,35.4609375 153.8125,35.9101562 C153.513021,36.2096354 153.213542,36.5091146 152.914062,36.8085938 C152.764323,36.9583333 152.689453,37.0332031 152.689453,37.0332031 C152.689453,37.1829427 152.689453,37.3326823 152.689453,37.4824219 C152.689453,37.6321615 152.689453,37.781901 152.689453,37.9316406 C152.689453,37.9316406 152.764323,38.0065104 152.914062,38.15625 C153.063802,38.3059896 153.213542,38.3808594 153.363281,38.3808594 C153.363281,38.3808594 153.438151,38.3808594 153.587891,38.3808594 C153.73763,38.3808594 153.88737,38.3808594 154.037109,38.3808594 C154.186849,38.3808594 154.261719,38.3059896 154.261719,38.15625 Z M111.136719,122.160156 C111.286458,121.860677 111.436198,121.486328 111.585938,121.037109 C111.885417,120.587891 112.184896,120.138672 112.484375,119.689453 C112.783854,119.090495 113.158203,118.566406 113.607422,118.117188 C114.056641,117.667969 114.655599,117.21875 115.404297,116.769531 C116.302734,116.320312 117.051432,115.796224 117.650391,115.197266 C118.249349,114.748047 118.698568,114.223958 118.998047,113.625 C119.447266,113.175781 119.746745,112.651693 119.896484,112.052734 C120.046224,111.603516 120.121094,111.079427 120.121094,110.480469 C120.121094,109.88151 120.046224,109.282552 119.896484,108.683594 C119.597005,108.084635 119.297526,107.560547 118.998047,107.111328 C118.548828,106.51237 117.94987,106.138021 117.201172,105.988281 C116.602214,105.688802 115.778646,105.539062 114.730469,105.539062 C114.13151,105.539062 113.607422,105.613932 113.158203,105.763672 C112.708984,105.913411 112.259766,106.063151 111.810547,106.212891 C111.361328,106.51237 110.986979,106.886719 110.6875,107.335938 C110.388021,107.635417 110.088542,108.009766 109.789062,108.458984 C109.789062,108.608724 109.789062,108.758464 109.789062,108.908203 C109.789062,109.057943 109.789062,109.207682 109.789062,109.357422 C109.938802,109.507161 110.013672,109.582031 110.013672,109.582031 C110.163411,109.731771 110.238281,109.806641 110.238281,109.806641 C110.388021,109.95638 110.53776,110.03125 110.6875,110.03125 C110.83724,110.03125 110.986979,109.95638 111.136719,109.806641 C111.286458,109.806641 111.361328,109.731771 111.361328,109.582031 C111.511068,109.582031 111.585938,109.507161 111.585938,109.357422 C111.735677,109.057943 111.960286,108.758464 112.259766,108.458984 C112.409505,108.309245 112.634115,108.159505 112.933594,108.009766 C113.083333,107.860026 113.382812,107.710286 113.832031,107.560547 C114.13151,107.560547 114.43099,107.560547 114.730469,107.560547 C115.179688,107.560547 115.628906,107.560547 116.078125,107.560547 C116.377604,107.710286 116.677083,107.860026 116.976562,108.009766 C117.126302,108.159505 117.350911,108.309245 117.650391,108.458984 C117.80013,108.608724 117.875,108.833333 117.875,109.132812 C118.02474,109.282552 118.099609,109.357422 118.099609,109.357422 C118.099609,109.507161 118.099609,109.656901 118.099609,109.806641 C118.099609,109.95638 118.099609,110.03125 118.099609,110.03125 C118.099609,110.18099 118.099609,110.330729 118.099609,110.480469 C118.099609,110.779948 118.02474,111.079427 117.875,111.378906 C117.875,111.678385 117.72526,112.052734 117.425781,112.501953 C117.276042,112.801432 116.901693,113.175781 116.302734,113.625 C115.853516,114.074219 115.179688,114.598307 114.28125,115.197266 C113.832031,115.496745 113.457682,115.721354 113.158203,115.871094 C112.858724,116.170573 112.559245,116.470052 112.259766,116.769531 C111.960286,117.06901 111.660807,117.36849 111.361328,117.667969 C111.211589,117.967448 110.986979,118.266927 110.6875,118.566406 C110.388021,119.165365 110.088542,119.689453 109.789062,120.138672 C109.639323,120.73763 109.489583,121.261719 109.339844,121.710938 C109.190104,122.160156 109.115234,122.459635 109.115234,122.609375 C109.115234,122.908854 109.115234,123.058594 109.115234,123.058594 C109.115234,123.058594 109.115234,123.058594 109.115234,123.058594 C109.115234,123.058594 109.115234,123.133464 109.115234,123.283203 C109.115234,123.283203 109.115234,123.283203 109.115234,123.283203 C109.115234,123.432943 109.115234,123.507812 109.115234,123.507812 C109.115234,123.507812 109.115234,123.582682 109.115234,123.732422 C109.264974,123.732422 109.339844,123.807292 109.339844,123.957031 C109.339844,123.957031 109.414714,123.957031 109.564453,123.957031 C109.564453,123.957031 109.564453,124.031901 109.564453,124.181641 C109.714193,124.181641 109.789062,124.181641 109.789062,124.181641 C109.938802,124.181641 110.013672,124.181641 110.013672,124.181641 C110.76237,124.181641 111.511068,124.181641 112.259766,124.181641 C113.158203,124.181641 113.981771,124.181641 114.730469,124.181641 C115.479167,124.181641 116.227865,124.181641 116.976562,124.181641 C117.875,124.181641 118.698568,124.181641 119.447266,124.181641 C119.597005,124.181641 119.671875,124.181641 119.671875,124.181641 C119.821615,124.031901 119.971354,123.957031 120.121094,123.957031 C120.121094,123.807292 120.195964,123.657552 120.345703,123.507812 C120.345703,123.358073 120.345703,123.283203 120.345703,123.283203 C120.345703,123.133464 120.345703,122.983724 120.345703,122.833984 C120.195964,122.684245 120.121094,122.609375 120.121094,122.609375 C119.971354,122.459635 119.896484,122.384766 119.896484,122.384766 C119.746745,122.235026 119.597005,122.160156 119.447266,122.160156 C117.650391,122.160156 116.078125,122.160156 114.730469,122.160156 C113.382812,122.160156 112.184896,122.160156 111.136719,122.160156 Z"/></svg>