<svg xmlns="http://www.w3.org/2000/svg" width="120" height="243" viewBox="0 0 120 243"><path fill="#131313" d="M106.719453,153.292969 C108.230521,154.804036 108.986055,156.589844 108.986055,158.650391 C108.986055,160.710938 108.230521,162.496745 106.719453,164.007812 C106.032604,164.694661 105.208385,165.244141 104.246797,165.65625 C103.422578,165.93099 102.529674,166.068359 101.568086,166.068359 C100.606497,166.068359 99.6449089,165.93099 98.6833203,165.65625 C97.7217318,165.244141 96.897513,164.694661 96.2106641,164.007812 C94.287487,162.084635 91.4027214,159.19987 87.5563672,155.353516 C83.710013,158.78776 79.4515495,161.466471 74.7809766,163.389648 C70.1104036,165.175456 65.0277214,166.068359 59.5329297,166.068359 C44.834362,166.068359 32.951875,159.543294 23.8854687,146.493164 C14.8190625,133.443034 10.2858594,116.27181 10.2858594,94.9794922 C10.2858594,73.4124349 14.7503776,56.172526 23.6794141,43.2597656 C32.6084505,30.3470052 44.5596224,23.890625 59.5329297,23.890625 C74.506237,23.890625 86.5260937,30.3470052 95.5925,43.2597656 C104.521536,56.172526 108.986055,73.4124349 108.986055,94.9794922 C108.986055,104.870117 107.955781,113.936523 105.895234,122.178711 C103.834687,130.420898 100.881237,137.632812 97.0348828,143.814453 C98.6833203,145.325521 100.331758,146.905273 101.980195,148.553711 C103.491263,150.202148 105.071016,151.781901 106.719453,153.292969 Z M59.6969922,151.396484 C62.9938672,151.396484 66.0846875,150.847005 68.9694531,149.748047 C71.8542187,148.649089 74.5329297,147.000651 77.0055859,144.802734 C74.6702995,142.467448 71.1673698,138.964518 66.4967969,134.293945 C64.9857292,132.782878 64.2301953,130.99707 64.2301953,128.936523 C64.2301953,126.875977 64.9857292,125.090169 66.4967969,123.579102 C68.0078646,122.205404 69.7936719,121.518555 71.8542187,121.518555 C73.9147656,121.518555 75.631888,122.205404 77.0055859,123.579102 C79.0661328,125.639648 82.1569531,128.730469 86.2780469,132.851562 C88.7507031,128.04362 90.6738802,122.480143 92.0475781,116.161133 C93.421276,109.704753 94.108125,102.698893 94.108125,95.1435547 C94.108125,90.6103516 93.8333854,86.0084635 93.2839062,81.3378906 C92.7344271,76.6673177 91.8415234,72.1341146 90.6051953,67.7382812 C88.2699089,59.7708333 84.6296094,52.9710286 79.6842969,47.3388672 C74.6016146,41.7067057 67.9391797,38.890625 59.6969922,38.890625 C51.4548047,38.890625 44.8610547,41.7067057 39.9157422,47.3388672 C34.9704297,52.9710286 31.3301302,59.7708333 28.9948437,67.7382812 C27.7585156,72.1341146 26.865612,76.6673177 26.3161328,81.3378906 C25.6292839,86.0084635 25.2858594,90.6103516 25.2858594,95.1435547 C25.2858594,111.902669 28.4453646,125.502279 34.764375,135.942383 C41.0833854,146.245117 49.3942578,151.396484 59.6969922,151.396484 Z M96.2409375,32.0839844 C92.5319531,27.8255208 88.4108594,24.391276 83.8776562,21.78125 C79.3444531,19.0338542 74.4678255,17.1106771 69.2477734,16.0117188 C69.3851432,15.5996094 69.4538281,14.9127604 69.4538281,13.9511719 C74.9486198,15.0501302 80.099987,17.0419922 84.9079297,19.9267578 C89.7158724,22.6741536 94.0430208,26.2457682 97.889375,30.6416016 C97.7520052,30.7789714 97.6146354,30.8476562 97.4772656,30.8476562 C97.3398958,30.985026 97.202526,31.0537109 97.0651562,31.0537109 C96.9277865,31.1910807 96.7904167,31.3284505 96.6530469,31.4658203 C96.5156771,31.6031901 96.3783073,31.8092448 96.2409375,32.0839844 Z M69.2477734,16.0117188 C69.2477734,16.4238281 69.1790885,17.0419922 69.0417187,17.8662109 C66.5690625,17.0419922 62.928763,15.6682943 58.1208203,13.7451172 C60.7308464,13.3330078 64.5772005,12.7148438 69.6598828,11.890625 C69.6598828,12.3027344 69.5911979,12.9895833 69.4538281,13.9511719 C69.1790885,13.8138021 68.904349,13.7451172 68.6296094,13.7451172 C68.2175,13.6077474 67.8740755,13.5390625 67.5993359,13.5390625 C67.4619661,13.9511719 67.3245964,14.6380208 67.1872266,15.5996094 C67.5993359,15.5996094 67.9427604,15.6682943 68.2175,15.8056641 C68.6296094,15.8056641 68.9730339,15.874349 69.2477734,16.0117188 Z M67.1872266,15.5996094 C67.3245964,15.0501302 67.4619661,14.3632812 67.5993359,13.5390625 C67.8740755,13.5390625 68.2175,13.6077474 68.6296094,13.7451172 C68.904349,13.7451172 69.1790885,13.8138021 69.4538281,13.9511719 C69.4538281,14.3632812 69.3851432,15.0501302 69.2477734,16.0117188 C68.9730339,15.874349 68.6296094,15.8056641 68.2175,15.8056641 C67.9427604,15.6682943 67.5993359,15.5996094 67.1872266,15.5996094 Z M102.216523,37.8535156 C101.254935,38.5403646 100.224661,38.8151042 99.1257031,38.6777344 C98.0267448,38.5403646 97.202526,37.9908854 96.6530469,37.0292969 C96.1035677,36.3424479 95.8288281,35.5869141 95.8288281,34.7626953 C95.8288281,33.9384766 96.1035677,33.1829427 96.6530469,32.4960938 C96.5156771,32.358724 96.4469922,32.2900391 96.4469922,32.2900391 C96.3096224,32.1526693 96.2409375,32.0839844 96.2409375,32.0839844 C95.6914583,32.7708333 95.3480339,33.5950521 95.2106641,34.5566406 C95.2106641,35.655599 95.5540885,36.6171875 96.2409375,37.4414063 C96.9277865,38.4029948 97.889375,38.952474 99.1257031,39.0898438 C100.362031,39.3645833 101.46099,39.1585286 102.422578,38.4716797 C103.384167,37.6474609 104.002331,36.6171875 104.27707,35.3808594 C104.41444,34.1445313 104.139701,33.0455729 103.452852,32.0839844 C102.766003,31.2597656 101.941784,30.7102865 100.980195,30.4355469 C99.881237,30.1608073 98.8509635,30.2294922 97.889375,30.6416016 C98.0267448,30.7789714 98.0954297,30.8476563 98.0954297,30.8476563 C98.0954297,30.985026 98.1641146,31.0537109 98.3014844,31.0537109 C99.1257031,30.7789714 99.9499219,30.7102865 100.774141,30.8476563 C101.735729,31.1223958 102.491263,31.671875 103.040742,32.4960938 C103.590221,33.3203125 103.796276,34.281901 103.658906,35.3808594 C103.521536,36.4798177 103.040742,37.3040365 102.216523,37.8535156 Z M96.6530469,32.4960938 C96.7904167,32.2213542 96.9277865,32.0152995 97.0651562,31.8779297 C97.202526,31.7405599 97.3398958,31.6031901 97.4772656,31.4658203 C97.6146354,31.4658203 97.7520052,31.3971354 97.889375,31.2597656 C98.0267448,31.2597656 98.1641146,31.1910807 98.3014844,31.0537109 C98.1641146,31.0537109 98.0954297,30.985026 98.0954297,30.8476562 C97.9580599,30.8476562 97.889375,30.7789714 97.889375,30.6416016 C97.7520052,30.7789714 97.6146354,30.8476562 97.4772656,30.8476562 C97.3398958,30.985026 97.202526,31.0537109 97.0651562,31.0537109 C96.9277865,31.1910807 96.7904167,31.3284505 96.6530469,31.4658203 C96.5156771,31.6031901 96.3783073,31.8092448 96.2409375,32.0839844 C96.3783073,32.0839844 96.4469922,32.0839844 96.4469922,32.0839844 C96.4469922,32.2213542 96.5156771,32.358724 96.6530469,32.4960938 Z M102.216523,37.8535156 C103.040742,37.3040365 103.521536,36.4798177 103.658906,35.3808594 C103.796276,34.281901 103.590221,33.3203125 103.040742,32.4960938 C102.491263,31.671875 101.735729,31.1223958 100.774141,30.8476563 C99.9499219,30.7102865 99.1257031,30.7789714 98.3014844,31.0537109 C98.3014844,31.1910807 98.3701693,31.2597656 98.5075391,31.2597656 C98.5075391,31.3971354 98.576224,31.4658203 98.7135937,31.4658203 C99.4004427,31.3284505 100.087292,31.3284505 100.774141,31.4658203 C101.46099,31.7405599 102.079154,32.1526693 102.628633,32.7021484 C102.491263,32.5647786 102.422578,32.4960938 102.422578,32.4960938 C102.422578,32.4960938 102.353893,32.4274089 102.216523,32.2900391 C102.353893,32.4274089 102.422578,32.4960938 102.422578,32.4960938 C102.422578,32.6334635 102.491263,32.7021484 102.628633,32.7021484 C103.178112,33.5263672 103.384167,34.4192708 103.246797,35.3808594 C103.109427,36.2050781 102.628633,36.8919271 101.804414,37.4414062 C100.980195,38.1282552 100.155977,38.3343099 99.3317578,38.0595703 C98.3701693,37.9222005 97.6146354,37.5100911 97.0651562,36.8232422 C96.5156771,36.1363932 96.2409375,35.4495443 96.2409375,34.7626953 C96.2409375,34.0758464 96.4469922,33.4576823 96.8591016,32.9082031 C96.8591016,32.7708333 96.7904167,32.7021484 96.6530469,32.7021484 C96.6530469,32.5647786 96.6530469,32.4960938 96.6530469,32.4960938 C96.1035677,33.0455729 95.8288281,33.8011068 95.8288281,34.7626953 C95.8288281,35.5869141 96.1035677,36.3424479 96.6530469,37.0292969 C97.202526,37.9908854 98.0267448,38.5403646 99.1257031,38.6777344 C100.224661,38.8151042 101.254935,38.5403646 102.216523,37.8535156 Z M98.5075391,31.4658203 C98.5075391,31.4658203 98.5075391,31.3971354 98.5075391,31.2597656 C98.3701693,31.2597656 98.3014844,31.1910807 98.3014844,31.0537109 C98.1641146,31.1910807 98.0267448,31.2597656 97.889375,31.2597656 C97.7520052,31.3971354 97.6146354,31.4658203 97.4772656,31.4658203 C97.3398958,31.6031901 97.202526,31.7405599 97.0651562,31.8779297 C96.9277865,32.0152995 96.7904167,32.1526693 96.6530469,32.2900391 C96.6530469,32.4274089 96.7217318,32.4960938 96.8591016,32.4960938 C96.8591016,32.6334635 96.8591016,32.7708333 96.8591016,32.9082031 C96.9964714,32.6334635 97.1338411,32.4274089 97.2712109,32.2900391 C97.4085807,32.1526693 97.5459505,32.0152995 97.6833203,31.8779297 C97.8206901,31.8779297 97.9580599,31.8092448 98.0954297,31.671875 C98.2327995,31.671875 98.3701693,31.6031901 98.5075391,31.4658203 Z M87.99875,120.893555 C92.5319531,125.426758 99.3317578,132.226562 108.398164,141.292969 C108.123424,141.705078 107.64263,142.254557 106.955781,142.941406 C102.422578,138.270833 95.6227734,131.402344 86.5563672,122.335938 C86.693737,122.335938 86.8311068,122.267253 86.9684766,122.129883 C87.1058464,121.992513 87.2432161,121.855143 87.3805859,121.717773 C87.5179557,121.580404 87.5866406,121.443034 87.5866406,121.305664 C87.7240104,121.168294 87.8613802,121.030924 87.99875,120.893555 Z M109.840547,139.850586 C111.076875,142.185872 113.068737,145.620117 115.816133,150.15332 C113.480846,148.916992 110.046602,146.92513 105.513398,144.177734 C105.788138,143.902995 106.268932,143.490885 106.955781,142.941406 C107.230521,143.216146 107.711315,143.69694 108.398164,144.383789 C108.672904,143.97168 109.153698,143.422201 109.840547,142.735352 C109.565807,142.460612 109.085013,141.979818 108.398164,141.292969 C108.672904,141.018229 109.153698,140.537435 109.840547,139.850586 Z M106.955781,142.735352 C107.230521,142.460612 107.711315,141.979818 108.398164,141.292969 C108.672904,141.705078 109.153698,142.185872 109.840547,142.735352 C109.565807,143.147461 109.085013,143.69694 108.398164,144.383789 C108.123424,143.97168 107.64263,143.422201 106.955781,142.735352 Z M87.3805859,115.330078 C87.5179557,115.467448 87.5866406,115.604818 87.5866406,115.742188 C87.7240104,115.742188 87.7926953,115.742188 87.7926953,115.742188 C87.7926953,115.742188 87.7240104,115.742188 87.5866406,115.742188 C87.4492708,115.604818 87.3805859,115.467448 87.3805859,115.330078 Z M81.405,115.742188 C82.091849,115.055339 82.9847526,114.711914 84.0837109,114.711914 C85.1826693,114.711914 86.1442578,115.055339 86.9684766,115.742188 C87.6553255,116.429036 87.99875,117.18457 87.99875,118.008789 C88.1361198,118.970378 87.99875,119.794596 87.5866406,120.481445 C87.7240104,120.618815 87.8613802,120.756185 87.99875,120.893555 C88.5482292,120.069336 88.7542839,119.107747 88.6169141,118.008789 C88.4795443,117.047201 88.0674349,116.154297 87.3805859,115.330078 C86.4189974,114.505859 85.3200391,114.09375 84.0837109,114.09375 C82.8473828,114.09375 81.8171094,114.505859 80.9928906,115.330078 C80.1686719,116.291667 79.7565625,117.390625 79.7565625,118.626953 C79.7565625,119.863281 80.1686719,120.893555 80.9928906,121.717773 C81.6797396,122.541992 82.5726432,122.954102 83.6716016,122.954102 C84.6331901,123.091471 85.5947786,122.885417 86.5563672,122.335938 C86.4189974,122.335938 86.2816276,122.198568 86.1442578,121.923828 C85.3200391,122.473307 84.4958203,122.679362 83.6716016,122.541992 C82.710013,122.404622 81.9544792,121.992513 81.405,121.305664 C80.5807812,120.618815 80.1686719,119.725911 80.1686719,118.626953 C80.1686719,117.527995 80.5807812,116.566406 81.405,115.742188 Z M86.9684766,115.124023 C87.1058464,115.124023 87.1745312,115.192708 87.1745312,115.330078 C87.1745312,115.330078 87.2432161,115.330078 87.3805859,115.330078 C87.2432161,115.330078 87.1745312,115.330078 87.1745312,115.330078 C87.1745312,115.192708 87.1058464,115.124023 86.9684766,115.124023 Z M87.99875,120.893555 C87.8613802,121.030924 87.7240104,121.168294 87.5866406,121.305664 C87.5866406,121.443034 87.5179557,121.580404 87.3805859,121.717773 C87.2432161,121.855143 87.1058464,121.992513 86.9684766,122.129883 C86.8311068,122.267253 86.693737,122.335938 86.5563672,122.335938 C86.4189974,122.335938 86.2816276,122.267253 86.1442578,122.129883 C86.2816276,121.992513 86.4189974,121.855143 86.5563672,121.717773 C86.693737,121.580404 86.8311068,121.443034 86.9684766,121.305664 C87.1058464,121.168294 87.2432161,121.030924 87.3805859,120.893555 C87.3805859,120.756185 87.4492708,120.618815 87.5866406,120.481445 C87.7240104,120.618815 87.7926953,120.6875 87.7926953,120.6875 C87.7926953,120.82487 87.8613802,120.893555 87.99875,120.893555 Z M81.405,115.742188 C80.5807812,116.566406 80.1686719,117.527995 80.1686719,118.626953 C80.1686719,119.725911 80.5807812,120.618815 81.405,121.305664 C81.9544792,121.992513 82.710013,122.404622 83.6716016,122.541992 C84.4958203,122.679362 85.3200391,122.473307 86.1442578,121.923828 C86.006888,121.923828 85.8695182,121.855143 85.7321484,121.717773 C85.0452995,121.992513 84.3584505,122.061198 83.6716016,121.923828 C82.9847526,121.923828 82.3665885,121.649089 81.8171094,121.099609 C81.6797396,120.96224 81.5423698,120.82487 81.405,120.6875 C81.405,120.6875 81.405,120.6875 81.405,120.6875 C81.405,120.6875 81.405,120.6875 81.405,120.6875 C81.5423698,120.82487 81.6797396,120.96224 81.8171094,121.099609 C81.1302604,120.41276 80.7868359,119.588542 80.7868359,118.626953 C80.7868359,117.665365 81.1302604,116.841146 81.8171094,116.154297 C82.5039583,115.467448 83.2594922,115.124023 84.0837109,115.124023 C85.0452995,115.124023 85.8695182,115.467448 86.5563672,116.154297 C87.1058464,116.703776 87.4492708,117.32194 87.5866406,118.008789 C87.7240104,118.833008 87.5866406,119.519857 87.1745312,120.069336 C87.311901,120.206706 87.4492708,120.344076 87.5866406,120.481445 C87.99875,119.794596 88.1361198,118.970378 87.99875,118.008789 C87.99875,117.18457 87.6553255,116.429036 86.9684766,115.742188 C86.1442578,115.055339 85.1826693,114.711914 84.0837109,114.711914 C82.9847526,114.711914 82.091849,115.055339 81.405,115.742188 Z M86.5563672,121.099609 C86.693737,120.96224 86.8311068,120.82487 86.9684766,120.6875 C87.1058464,120.41276 87.1745312,120.206706 87.1745312,120.069336 C87.311901,120.206706 87.4492708,120.344076 87.5866406,120.481445 C87.4492708,120.618815 87.3805859,120.756185 87.3805859,120.893555 C87.2432161,121.030924 87.1058464,121.168294 86.9684766,121.305664 C86.8311068,121.443034 86.693737,121.580404 86.5563672,121.717773 C86.4189974,121.855143 86.2816276,121.923828 86.1442578,121.923828 C86.006888,121.923828 85.8695182,121.855143 85.7321484,121.717773 C85.8695182,121.580404 86.006888,121.443034 86.1442578,121.305664 C86.2816276,121.305664 86.4189974,121.236979 86.5563672,121.099609 Z M108.604219,34.96875 C108.741589,34.8313802 108.878958,34.6940104 109.016328,34.5566406 C109.153698,34.4192708 109.222383,34.3505859 109.222383,34.3505859 C109.222383,37.2353516 109.222383,39.7766927 109.222383,41.9746094 C109.222383,44.172526 109.222383,46.0270182 109.222383,47.5380859 C109.222383,47.5380859 109.291068,47.6067708 109.428437,47.7441406 C109.428437,47.8815104 109.428437,48.0188802 109.428437,48.15625 C109.565807,48.15625 109.703177,48.2249349 109.840547,48.3623047 C109.977917,48.3623047 110.115286,48.3623047 110.252656,48.3623047 C110.252656,48.3623047 110.321341,48.3623047 110.458711,48.3623047 C110.596081,48.2249349 110.733451,48.15625 110.87082,48.15625 C110.87082,48.0188802 110.939505,47.8815104 111.076875,47.7441406 C111.076875,47.6067708 111.076875,47.5380859 111.076875,47.5380859 C111.076875,44.1038411 111.076875,41.0817057 111.076875,38.4716797 C111.076875,35.9990234 111.076875,33.8697917 111.076875,32.0839844 C111.076875,32.0839844 111.076875,32.0152995 111.076875,31.8779297 C111.076875,31.8779297 111.00819,31.8092448 110.87082,31.671875 C110.87082,31.671875 110.802135,31.6031901 110.664766,31.4658203 C110.664766,31.4658203 110.596081,31.3971354 110.458711,31.2597656 C110.458711,31.2597656 110.390026,31.2597656 110.252656,31.2597656 C110.252656,31.2597656 110.252656,31.2597656 110.252656,31.2597656 C110.115286,31.2597656 110.046602,31.2597656 110.046602,31.2597656 C110.046602,31.2597656 110.046602,31.2597656 110.046602,31.2597656 C109.909232,31.2597656 109.771862,31.3284505 109.634492,31.4658203 C109.634492,31.4658203 109.565807,31.4658203 109.428437,31.4658203 C109.016328,32.0152995 108.604219,32.4960938 108.192109,32.9082031 C107.91737,33.1829427 107.64263,33.4576823 107.367891,33.7324219 C107.230521,33.8697917 107.161836,33.9384766 107.161836,33.9384766 C107.161836,34.0758464 107.161836,34.2132161 107.161836,34.3505859 C107.161836,34.4879557 107.161836,34.6253255 107.161836,34.7626953 C107.161836,34.7626953 107.230521,34.8313802 107.367891,34.96875 C107.50526,35.1061198 107.64263,35.1748047 107.78,35.1748047 C107.78,35.1748047 107.848685,35.1748047 107.986055,35.1748047 C108.123424,35.1748047 108.260794,35.1748047 108.398164,35.1748047 C108.535534,35.1748047 108.604219,35.1061198 108.604219,34.96875 Z M69.0417187,112.033203 C69.1790885,111.758464 69.3164583,111.415039 69.4538281,111.00293 C69.7285677,110.59082 70.0033073,110.178711 70.2780469,109.766602 C70.5527865,109.217122 70.8962109,108.736328 71.3083203,108.324219 C71.7204297,107.912109 72.2699089,107.5 72.9567578,107.087891 C73.7809766,106.675781 74.4678255,106.194987 75.0173047,105.645508 C75.5667839,105.233398 75.9788932,104.752604 76.2536328,104.203125 C76.6657422,103.791016 76.9404818,103.310221 77.0778516,102.760742 C77.2152214,102.348633 77.2839062,101.867839 77.2839062,101.318359 C77.2839062,100.76888 77.2152214,100.219401 77.0778516,99.6699219 C76.803112,99.1204427 76.5283724,98.6396484 76.2536328,98.2275391 C75.8415234,97.6780599 75.2920443,97.3346354 74.6051953,97.1972656 C74.0557161,96.922526 73.3001823,96.7851562 72.3385937,96.7851562 C71.7891146,96.7851562 71.3083203,96.8538411 70.8962109,96.9912109 C70.4841016,97.1285807 70.0719922,97.2659505 69.6598828,97.4033203 C69.2477734,97.6780599 68.904349,98.0214844 68.6296094,98.4335938 C68.3548698,98.7083333 68.0801302,99.0517578 67.8053906,99.4638672 C67.8053906,99.601237 67.8053906,99.7386068 67.8053906,99.8759766 C67.8053906,100.013346 67.8053906,100.150716 67.8053906,100.288086 C67.9427604,100.425456 68.0114453,100.494141 68.0114453,100.494141 C68.1488151,100.63151 68.2175,100.700195 68.2175,100.700195 C68.3548698,100.837565 68.4922396,100.90625 68.6296094,100.90625 C68.7669792,100.90625 68.904349,100.837565 69.0417187,100.700195 C69.1790885,100.700195 69.2477734,100.63151 69.2477734,100.494141 C69.3851432,100.494141 69.4538281,100.425456 69.4538281,100.288086 C69.5911979,100.013346 69.7972526,99.7386068 70.0719922,99.4638672 C70.209362,99.3264974 70.4154167,99.1891276 70.6901562,99.0517578 C70.827526,98.914388 71.1022656,98.7770182 71.514375,98.6396484 C71.7891146,98.6396484 72.0638542,98.6396484 72.3385937,98.6396484 C72.7507031,98.6396484 73.1628125,98.6396484 73.5749219,98.6396484 C73.8496615,98.7770182 74.124401,98.914388 74.3991406,99.0517578 C74.5365104,99.1891276 74.7425651,99.3264974 75.0173047,99.4638672 C75.1546745,99.601237 75.2233594,99.8072917 75.2233594,100.082031 C75.3607292,100.219401 75.4294141,100.288086 75.4294141,100.288086 C75.4294141,100.425456 75.4294141,100.562826 75.4294141,100.700195 C75.4294141,100.837565 75.4294141,100.90625 75.4294141,100.90625 C75.4294141,101.04362 75.4294141,101.18099 75.4294141,101.318359 C75.4294141,101.593099 75.3607292,101.867839 75.2233594,102.142578 C75.2233594,102.417318 75.0859896,102.760742 74.81125,103.172852 C74.6738802,103.447591 74.3304557,103.791016 73.7809766,104.203125 C73.3688672,104.615234 72.7507031,105.096029 71.9264844,105.645508 C71.514375,105.920247 71.1709505,106.126302 70.8962109,106.263672 C70.6214714,106.538411 70.3467318,106.813151 70.0719922,107.087891 C69.7972526,107.36263 69.522513,107.63737 69.2477734,107.912109 C69.1104036,108.186849 68.904349,108.461589 68.6296094,108.736328 C68.3548698,109.285807 68.0801302,109.766602 67.8053906,110.178711 C67.6680208,110.72819 67.530651,111.208984 67.3932812,111.621094 C67.2559115,112.033203 67.1872266,112.307943 67.1872266,112.445312 C67.1872266,112.720052 67.1872266,112.857422 67.1872266,112.857422 C67.1872266,112.857422 67.1872266,112.857422 67.1872266,112.857422 C67.1872266,112.857422 67.1872266,112.926107 67.1872266,113.063477 C67.1872266,113.063477 67.1872266,113.063477 67.1872266,113.063477 C67.1872266,113.200846 67.1872266,113.269531 67.1872266,113.269531 C67.1872266,113.269531 67.1872266,113.338216 67.1872266,113.475586 C67.3245964,113.475586 67.3932812,113.544271 67.3932812,113.681641 C67.3932812,113.681641 67.4619661,113.681641 67.5993359,113.681641 C67.5993359,113.681641 67.5993359,113.750326 67.5993359,113.887695 C67.7367057,113.887695 67.8053906,113.887695 67.8053906,113.887695 C67.9427604,113.887695 68.0114453,113.887695 68.0114453,113.887695 C68.6982943,113.887695 69.3851432,113.887695 70.0719922,113.887695 C70.8962109,113.887695 71.6517448,113.887695 72.3385937,113.887695 C73.0254427,113.887695 73.7122917,113.887695 74.3991406,113.887695 C75.2233594,113.887695 75.9788932,113.887695 76.6657422,113.887695 C76.803112,113.887695 76.8717969,113.887695 76.8717969,113.887695 C77.0091667,113.750326 77.1465365,113.681641 77.2839062,113.681641 C77.2839062,113.544271 77.3525911,113.406901 77.4899609,113.269531 C77.4899609,113.132161 77.4899609,113.063477 77.4899609,113.063477 C77.4899609,112.926107 77.4899609,112.788737 77.4899609,112.651367 C77.3525911,112.513997 77.2839062,112.445312 77.2839062,112.445312 C77.1465365,112.307943 77.0778516,112.239258 77.0778516,112.239258 C76.9404818,112.101888 76.803112,112.033203 76.6657422,112.033203 C75.0173047,112.033203 73.5749219,112.033203 72.3385937,112.033203 C71.1022656,112.033203 70.0033073,112.033203 69.0417187,112.033203 Z"/></svg>