<svg xmlns="http://www.w3.org/2000/svg" width="115" height="203" viewBox="0 0 115 203"><path fill="#131313" d="M3953.08984,181.824219 C3954.73698,183.321615 3955.56055,185.193359 3955.56055,187.439453 C3955.56055,189.835286 3954.73698,191.781901 3953.08984,193.279297 C3948.7474,197.621745 3942.23372,204.135417 3933.54883,212.820313 C3932.80013,213.56901 3931.90169,214.167969 3930.85352,214.617187 C3929.80534,215.066406 3928.75716,215.291016 3927.70898,215.291016 C3927.25977,215.291016 3926.73568,215.216146 3926.13672,215.066406 C3925.6875,215.066406 3925.16341,214.916667 3924.56445,214.617187 C3923.06706,214.018229 3921.86914,213.044922 3920.9707,211.697266 C3920.07227,210.349609 3919.62305,208.852214 3919.62305,207.205078 C3919.62305,190.434245 3919.62305,181.277995 3919.62305,147.736328 C3915.87956,149.533203 3911.91146,150.955729 3907.71875,152.003906 C3903.3763,153.201823 3899.18359,153.800781 3895.14062,153.800781 C3890.34896,153.800781 3885.93164,152.977214 3881.88867,151.330078 C3877.8457,149.832682 3874.32682,147.661458 3871.33203,144.816406 C3867.88802,141.372396 3865.26758,137.179688 3863.4707,132.238281 C3861.82357,127.296875 3861,121.606771 3861,115.167969 C3861,101.242188 3864.44401,90.3860677 3871.33203,82.5996094 C3878.36979,74.813151 3886.00651,70.171224 3894.24219,68.6738281 C3898.88411,67.7753906 3903.3763,67.7753906 3907.71875,68.6738281 C3912.21094,69.5722656 3916.32878,71.2942708 3920.07227,73.8398438 C3920.52148,72.1927083 3921.41992,70.7701823 3922.76758,69.5722656 C3924.26497,68.5240885 3925.91211,68 3927.70898,68 C3929.95508,68 3931.90169,68.7486979 3933.54883,70.2460938 C3935.19596,71.8932292 3936.01953,73.8398438 3936.01953,76.0859375 C3936.01953,79.5299479 3936.01953,82.9739583 3936.01953,86.4179688 C3936.01953,89.7122396 3936.01953,93.0813802 3936.01953,96.5253906 C3936.01953,120.333984 3936.01953,139.972005 3936.01953,187.439453 C3937.21745,186.241536 3939.08919,184.369792 3941.63477,181.824219 C3943.13216,180.177083 3945.00391,179.353516 3947.25,179.353516 C3949.49609,179.353516 3951.44271,180.177083 3953.08984,181.824219 Z M3919.65039,111.607422 C3919.65039,108.61263 3919.65039,104.195312 3919.65039,98.3554687 C3917.4043,93.2643229 3914.55924,89.6705729 3911.11523,87.5742188 C3907.67122,85.4778646 3904.22721,84.4296875 3900.7832,84.4296875 C3900.18424,84.4296875 3899.58529,84.5045573 3898.98633,84.6542969 C3898.38737,84.6542969 3897.86328,84.7291667 3897.41406,84.8789062 C3892.32292,85.7773438 3887.68099,88.7721354 3883.48828,93.8632812 C3879.29557,98.9544271 3877.19922,106.067057 3877.19922,115.201172 C3877.19922,124.784505 3878.99609,130.774089 3882.58984,133.169922 C3886.03385,135.416016 3888.50456,136.763672 3890.00195,137.212891 C3896.14128,138.560547 3902.35547,137.811849 3908.64453,134.966797 C3914.78385,132.121745 3918.45247,129.800781 3919.65039,128.003906 C3919.65039,125.158854 3919.65039,122.388672 3919.65039,119.693359 C3919.65039,116.998047 3919.65039,114.302734 3919.65039,111.607422 Z M3890.22656,56.3535156 C3890.22656,56.5032552 3890.22656,56.6529948 3890.22656,56.8027344 C3890.22656,56.952474 3890.22656,57.0273438 3890.22656,57.0273438 C3890.22656,57.3268229 3890.30143,57.6263021 3890.45117,57.9257812 C3890.45117,58.2252604 3890.52604,58.5247396 3890.67578,58.8242188 C3883.03906,60.4713542 3875.32747,64.6640625 3867.54102,71.4023438 C3859.9043,78.140625 3854.96289,88.0234375 3852.7168,101.050781 C3852.11784,101.050781 3851.29427,100.975911 3850.24609,100.826172 C3852.64193,87.1998698 3857.88281,76.7929688 3865.96875,69.6054688 C3874.20443,62.5677083 3882.29036,58.1503906 3890.22656,56.3535156 Z M3850.02148,103.072266 C3850.4707,103.222005 3851.2194,103.296875 3852.26758,103.296875 C3852.26758,102.997396 3852.34245,102.623047 3852.49219,102.173828 C3852.49219,101.874349 3852.56706,101.5 3852.7168,101.050781 C3853.16602,101.050781 3853.83984,101.125651 3854.73828,101.275391 C3853.6901,103.970703 3852.26758,108.013672 3850.4707,113.404297 C3849.87174,110.559245 3849.04818,106.366536 3848,100.826172 C3848.44922,100.826172 3849.19792,100.826172 3850.24609,100.826172 C3850.24609,101.275391 3850.17122,101.64974 3850.02148,101.949219 C3850.02148,102.248698 3850.02148,102.623047 3850.02148,103.072266 Z M3850.02148,103.072266 C3850.02148,102.772786 3850.02148,102.398438 3850.02148,101.949219 C3850.17122,101.64974 3850.24609,101.275391 3850.24609,100.826172 C3850.84505,100.975911 3851.66862,101.050781 3852.7168,101.050781 C3852.56706,101.5 3852.49219,101.874349 3852.49219,102.173828 C3852.34245,102.623047 3852.26758,102.997396 3852.26758,103.296875 C3851.81836,103.296875 3851.44401,103.296875 3851.14453,103.296875 C3850.69531,103.147135 3850.32096,103.072266 3850.02148,103.072266 Z M3894.94336,51.8613281 C3896.29102,51.8613281 3897.41406,52.3105469 3898.3125,53.2089844 C3899.36068,54.1074219 3899.95964,55.2304688 3900.10937,56.578125 C3900.10937,57.9257812 3899.66016,59.1236979 3898.76172,60.171875 C3897.86328,61.0703125 3896.74023,61.594401 3895.39258,61.7441406 C3894.3444,61.7441406 3893.37109,61.4446615 3892.47266,60.8457031 C3891.72396,60.3964844 3891.125,59.7226563 3890.67578,58.8242188 C3890.82552,58.6744792 3890.90039,58.5996094 3890.90039,58.5996094 C3891.05013,58.5996094 3891.125,58.5996094 3891.125,58.5996094 C3891.57422,59.3483073 3892.17318,59.9472656 3892.92187,60.3964844 C3893.67057,60.9954427 3894.49414,61.2200521 3895.39258,61.0703125 C3896.59049,61.0703125 3897.5638,60.6210938 3898.3125,59.7226563 C3899.21094,58.8242188 3899.58529,57.7760417 3899.43555,56.578125 C3899.43555,55.3802083 3898.98633,54.406901 3898.08789,53.6582031 C3897.18945,52.7597656 3896.14128,52.3854167 3894.94336,52.5351562 C3893.89518,52.5351562 3892.99674,52.9095052 3892.24805,53.6582031 C3891.49935,54.406901 3891.05013,55.3053385 3890.90039,56.3535156 C3890.75065,56.3535156 3890.67578,56.3535156 3890.67578,56.3535156 C3890.52604,56.3535156 3890.3763,56.3535156 3890.22656,56.3535156 C3890.3763,55.155599 3890.90039,54.1822917 3891.79883,53.4335938 C3892.54753,52.5351562 3893.5957,52.0110677 3894.94336,51.8613281 Z M3890.90039,57.0273438 C3890.90039,57.3268229 3890.90039,57.6263021 3890.90039,57.9257812 C3891.05013,58.0755208 3891.125,58.3001302 3891.125,58.5996094 C3891.125,58.5996094 3891.05013,58.5996094 3890.90039,58.5996094 C3890.75065,58.749349 3890.67578,58.8242188 3890.67578,58.8242188 C3890.52604,58.5247396 3890.45117,58.2252604 3890.45117,57.9257812 C3890.30143,57.6263021 3890.22656,57.4016927 3890.22656,57.2519531 C3890.22656,57.1022135 3890.22656,56.952474 3890.22656,56.8027344 C3890.22656,56.6529948 3890.22656,56.578125 3890.22656,56.578125 C3890.3763,56.4283854 3890.52604,56.3535156 3890.67578,56.3535156 C3890.67578,56.3535156 3890.75065,56.3535156 3890.90039,56.3535156 C3890.90039,56.5032552 3890.90039,56.6529948 3890.90039,56.8027344 C3890.90039,56.8027344 3890.90039,56.8776042 3890.90039,57.0273438 Z M3894.94336,52.984375 C3895.0931,52.984375 3895.16797,52.984375 3895.16797,52.984375 C3895.31771,52.984375 3895.39258,52.984375 3895.39258,52.984375 C3895.39258,52.984375 3895.31771,52.984375 3895.16797,52.984375 C3895.16797,52.984375 3895.0931,52.984375 3894.94336,52.984375 Z M3894.94336,53.2089844 C3894.04492,53.2089844 3893.29622,53.5084635 3892.69727,54.1074219 C3891.94857,54.7063802 3891.49935,55.3802083 3891.34961,56.1289062 C3891.34961,56.2786458 3891.27474,56.3535156 3891.125,56.3535156 C3890.97526,56.3535156 3890.90039,56.3535156 3890.90039,56.3535156 C3890.90039,55.3053385 3891.34961,54.406901 3892.24805,53.6582031 C3892.99674,53.0592448 3893.89518,52.6848958 3894.94336,52.5351562 C3896.14128,52.5351562 3897.18945,52.9095052 3898.08789,53.6582031 C3898.98633,54.406901 3899.43555,55.3802083 3899.43555,56.578125 C3899.58529,57.7760417 3899.21094,58.8242188 3898.3125,59.7226562 C3897.5638,60.6210938 3896.59049,61.0703125 3895.39258,61.0703125 C3894.49414,61.2200521 3893.67057,61.0703125 3892.92187,60.6210938 C3892.17318,60.0221354 3891.57422,59.3483073 3891.125,58.5996094 C3891.27474,58.5996094 3891.42448,58.5996094 3891.57422,58.5996094 C3891.57422,58.5996094 3891.64909,58.5247396 3891.79883,58.375 C3892.09831,59.1236979 3892.54753,59.6477865 3893.14648,59.9472656 C3893.89518,60.3964844 3894.64388,60.6210938 3895.39258,60.6210938 C3896.44076,60.4713542 3897.26432,60.0221354 3897.86328,59.2734375 C3898.61198,58.5247396 3898.98633,57.6263021 3898.98633,56.578125 C3898.83659,55.5299479 3898.38737,54.7063802 3897.63867,54.1074219 C3896.88997,53.358724 3895.99154,53.0592448 3894.94336,53.2089844 C3894.94336,53.0592448 3894.94336,52.984375 3894.94336,52.984375 C3894.94336,52.984375 3894.94336,53.0592448 3894.94336,53.2089844 C3895.0931,53.2089844 3895.16797,53.1341146 3895.16797,52.984375 C3895.31771,52.984375 3895.39258,52.984375 3895.39258,52.984375 C3895.39258,52.984375 3895.31771,52.984375 3895.16797,52.984375 C3895.16797,53.1341146 3895.0931,53.2089844 3894.94336,53.2089844 C3894.94336,53.2089844 3894.94336,53.2089844 3894.94336,53.2089844 C3894.94336,53.2089844 3894.94336,53.2089844 3894.94336,53.2089844 C3894.79362,53.2089844 3894.71875,53.2089844 3894.71875,53.2089844 C3894.56901,53.2089844 3894.49414,53.2089844 3894.49414,53.2089844 C3894.49414,53.2089844 3894.56901,53.2089844 3894.71875,53.2089844 C3894.71875,53.2089844 3894.79362,53.2089844 3894.94336,53.2089844 Z M3891.125,58.5996094 C3891.125,58.3001302 3891.05013,58.0755208 3890.90039,57.9257812 C3890.90039,57.6263021 3890.90039,57.3268229 3890.90039,57.0273438 C3890.90039,56.8776042 3890.90039,56.7278646 3890.90039,56.578125 C3890.90039,56.578125 3890.90039,56.5032552 3890.90039,56.3535156 C3890.90039,56.3535156 3890.97526,56.2786458 3891.125,56.1289062 C3891.27474,56.1289062 3891.34961,56.1289062 3891.34961,56.1289062 C3891.34961,56.2786458 3891.34961,56.4283854 3891.34961,56.578125 C3891.34961,56.7278646 3891.34961,56.8776042 3891.34961,57.0273438 C3891.34961,57.3268229 3891.42448,57.5514323 3891.57422,57.7011719 C3891.57422,58.000651 3891.64909,58.2252604 3891.79883,58.375 C3891.64909,58.5247396 3891.57422,58.5996094 3891.57422,58.5996094 C3891.42448,58.5996094 3891.27474,58.5996094 3891.125,58.5996094 Z M3946.1543,162.236328 C3947.05273,161.188151 3948.55013,159.690755 3950.64648,157.744141 C3951.0957,158.04362 3951.61979,158.567708 3952.21875,159.316406 C3950.42187,161.113281 3947.57682,163.958333 3943.68359,167.851562 C3943.68359,145.540365 3943.68359,131.223307 3943.68359,86.9003906 C3943.98307,86.9003906 3944.20768,86.9003906 3944.35742,86.9003906 C3944.50716,86.9003906 3944.6569,86.9003906 3944.80664,86.9003906 C3945.10612,86.9003906 3945.33073,86.9003906 3945.48047,86.9003906 C3945.63021,86.9003906 3945.85482,86.9003906 3946.1543,86.9003906 C3946.1543,102.623047 3946.1543,118.345703 3946.1543,134.068359 C3946.1543,149.791016 3946.1543,146.513672 3946.1543,162.236328 Z M3949.07422,156.171875 C3951.61979,154.674479 3955.36328,152.503255 3960.30469,149.658203 C3958.80729,152.203776 3956.63607,155.947266 3953.79102,160.888672 C3953.49154,160.439453 3950,157.25 3949.07422,156.171875 Z M3940.53906,82.1835938 C3940.53906,83.0820312 3940.83854,83.905599 3941.4375,84.6542969 C3942.03646,85.4029948 3942.78516,85.9270833 3943.68359,86.2265625 C3943.68359,86.3763021 3943.68359,86.6009115 3943.68359,86.9003906 C3942.63542,86.6009115 3941.73698,86.0019531 3940.98828,85.1035156 C3940.38932,84.2050781 3940.08984,83.2317708 3940.08984,82.1835938 C3940.08984,80.8359375 3940.53906,79.6380208 3941.4375,78.5898438 C3942.33594,77.6914062 3943.45898,77.2421875 3944.80664,77.2421875 C3946.1543,77.2421875 3947.35221,77.6914062 3948.40039,78.5898438 C3949.29883,79.6380208 3949.74805,80.8359375 3949.74805,82.1835938 C3949.74805,83.2317708 3949.3737,84.2050781 3948.625,85.1035156 C3948.02604,86.0019531 3947.20247,86.6009115 3946.1543,86.9003906 C3946.1543,86.750651 3946.1543,86.5260417 3946.1543,86.2265625 C3947.05273,85.9270833 3947.80143,85.4029948 3948.40039,84.6542969 C3948.99935,83.905599 3949.29883,83.0820312 3949.29883,82.1835938 C3949.29883,80.9856771 3948.84961,79.9375 3947.95117,79.0390625 C3947.05273,78.140625 3946.00456,77.6914062 3944.80664,77.6914062 C3943.60872,77.6914062 3942.63542,78.140625 3941.88672,79.0390625 C3940.98828,79.9375 3940.53906,80.9856771 3940.53906,82.1835938 Z M3946.1543,86.9003906 C3945.85482,86.9003906 3945.63021,86.9003906 3945.48047,86.9003906 C3945.33073,86.9003906 3945.10612,86.9003906 3944.80664,86.9003906 C3944.6569,86.9003906 3944.50716,86.9003906 3944.35742,86.9003906 C3944.20768,86.9003906 3943.98307,86.9003906 3943.68359,86.9003906 C3943.68359,86.750651 3943.68359,86.5260417 3943.68359,86.2265625 C3943.98307,86.2265625 3944.20768,86.3014323 3944.35742,86.4511719 C3944.50716,86.4511719 3944.6569,86.4511719 3944.80664,86.4511719 C3945.10612,86.4511719 3945.33073,86.4511719 3945.48047,86.4511719 C3945.63021,86.3014323 3945.85482,86.2265625 3946.1543,86.2265625 C3946.1543,86.3763021 3946.1543,86.4511719 3946.1543,86.4511719 C3946.1543,86.6009115 3946.1543,86.750651 3946.1543,86.9003906 Z M3949.29883,82.1835938 C3949.29883,83.0820312 3948.99935,83.905599 3948.40039,84.6542969 C3947.80143,85.4029948 3947.05273,85.9270833 3946.1543,86.2265625 C3946.1543,86.0768229 3946.1543,85.8522135 3946.1543,85.5527344 C3946.90299,85.4029948 3947.50195,84.953776 3947.95117,84.2050781 C3948.40039,83.6061198 3948.625,82.9322917 3948.625,82.1835938 C3948.625,81.1354167 3948.25065,80.2369792 3947.50195,79.4882812 C3946.75326,78.7395833 3945.85482,78.3652344 3944.80664,78.3652344 C3943.9082,78.3652344 3943.08464,78.7395833 3942.33594,79.4882812 C3941.58724,80.2369792 3941.21289,81.1354167 3941.21289,82.1835938 C3941.21289,82.0338542 3941.21289,81.8841146 3941.21289,81.734375 C3941.21289,81.5846354 3941.21289,81.5097656 3941.21289,81.5097656 C3941.21289,81.5097656 3941.21289,81.5846354 3941.21289,81.734375 C3941.21289,81.8841146 3941.21289,82.0338542 3941.21289,82.1835938 C3941.21289,82.3333333 3941.21289,82.4830729 3941.21289,82.6328125 C3941.21289,82.6328125 3941.21289,82.6328125 3941.21289,82.6328125 C3941.21289,82.6328125 3941.21289,82.6328125 3941.21289,82.6328125 C3941.21289,82.4830729 3941.21289,82.3333333 3941.21289,82.1835938 C3941.21289,82.9322917 3941.4375,83.6061198 3941.88672,84.2050781 C3942.33594,84.953776 3942.9349,85.4029948 3943.68359,85.5527344 C3943.68359,85.702474 3943.68359,85.9270833 3943.68359,86.2265625 C3942.78516,85.9270833 3942.03646,85.4029948 3941.4375,84.6542969 C3940.83854,83.905599 3940.53906,83.0820312 3940.53906,82.1835938 C3940.53906,80.9856771 3940.98828,79.9375 3941.88672,79.0390625 C3942.63542,78.140625 3943.60872,77.6914062 3944.80664,77.6914062 C3946.00456,77.6914062 3947.05273,78.140625 3947.95117,79.0390625 C3948.84961,79.9375 3949.29883,80.9856771 3949.29883,82.1835938 Z M3944.80664,85.7773438 C3945.10612,85.7773438 3945.33073,85.7773438 3945.48047,85.7773438 C3945.63021,85.7773438 3945.85482,85.702474 3946.1543,85.5527344 C3946.1543,85.702474 3946.1543,85.9270833 3946.1543,86.2265625 C3945.85482,86.2265625 3945.63021,86.3014323 3945.48047,86.4511719 C3945.33073,86.4511719 3945.10612,86.4511719 3944.80664,86.4511719 C3944.6569,86.4511719 3944.50716,86.4511719 3944.35742,86.4511719 C3944.20768,86.3014323 3943.98307,86.2265625 3943.68359,86.2265625 C3943.68359,86.0768229 3943.68359,85.8522135 3943.68359,85.5527344 C3943.98307,85.702474 3944.20768,85.7773438 3944.35742,85.7773438 C3944.50716,85.7773438 3944.6569,85.7773438 3944.80664,85.7773438 Z M3907.9707,44 C3908.12044,44.1497396 3908.19531,44.2246094 3908.19531,44.2246094 C3908.34505,44.374349 3908.41992,44.4492188 3908.41992,44.4492188 C3908.41992,44.5989583 3908.41992,44.6738281 3908.41992,44.6738281 C3908.56966,44.8235677 3908.64453,44.8984375 3908.64453,44.8984375 C3908.64453,46.8450521 3908.64453,49.1660156 3908.64453,51.8613281 C3908.64453,54.7063802 3908.64453,58.000651 3908.64453,61.7441406 C3908.64453,61.7441406 3908.56966,61.8190104 3908.41992,61.96875 C3908.41992,62.1184896 3908.34505,62.2682292 3908.19531,62.4179688 C3908.19531,62.4179688 3908.12044,62.4928385 3907.9707,62.6425781 C3907.82096,62.6425781 3907.67122,62.6425781 3907.52148,62.6425781 C3907.52148,62.6425781 3907.44661,62.6425781 3907.29687,62.6425781 C3907.14714,62.4928385 3906.9974,62.4179688 3906.84766,62.4179688 C3906.84766,62.2682292 3906.77279,62.1184896 3906.62305,61.96875 C3906.62305,61.96875 3906.62305,61.8938802 3906.62305,61.7441406 C3906.62305,60.0970052 3906.62305,58.0755208 3906.62305,55.6796875 C3906.62305,53.2838542 3906.62305,50.5136719 3906.62305,47.3691406 C3906.62305,47.3691406 3906.54818,47.4440104 3906.39844,47.59375 C3906.2487,47.7434896 3906.09896,47.8932292 3905.94922,48.0429688 C3905.79948,48.1927083 3905.72461,48.2675781 3905.72461,48.2675781 C3905.57487,48.2675781 3905.42513,48.2675781 3905.27539,48.2675781 C3905.12565,48.2675781 3904.97591,48.2675781 3904.82617,48.2675781 C3904.82617,48.2675781 3904.7513,48.1927083 3904.60156,48.0429688 C3904.45182,47.8932292 3904.37695,47.8183594 3904.37695,47.8183594 C3904.37695,47.6686198 3904.37695,47.5188802 3904.37695,47.3691406 C3904.37695,47.219401 3904.37695,47.0696615 3904.37695,46.9199219 C3904.37695,46.9199219 3904.45182,46.8450521 3904.60156,46.6953125 C3904.90104,46.3958333 3905.20052,46.0214844 3905.5,45.5722656 C3905.94922,45.2727865 3906.39844,44.8235677 3906.84766,44.2246094 C3906.9974,44.2246094 3907.07227,44.2246094 3907.07227,44.2246094 C3907.22201,44.0748698 3907.37174,44 3907.52148,44 C3907.52148,44 3907.52148,44 3907.52148,44 C3907.52148,44 3907.52148,44 3907.52148,44 C3907.67122,44 3907.74609,44 3907.74609,44 C3907.89583,44 3907.9707,44 3907.9707,44 Z M3965.69531,98.1308594 C3965.84505,98.1308594 3965.99479,98.1308594 3966.14453,98.1308594 C3966.29427,98.1308594 3966.36914,98.2057292 3966.36914,98.3554688 C3966.51888,98.3554688 3966.59375,98.4303385 3966.59375,98.5800781 C3966.74349,98.7298177 3966.81836,98.8795573 3966.81836,99.0292969 C3966.81836,99.1790365 3966.74349,99.2539062 3966.59375,99.2539062 C3966.59375,99.4036458 3966.51888,99.5533854 3966.36914,99.703125 C3966.36914,99.703125 3966.29427,99.7779948 3966.14453,99.9277344 C3965.99479,99.9277344 3965.84505,99.9277344 3965.69531,99.9277344 C3964.94661,99.9277344 3964.19792,99.9277344 3963.44922,99.9277344 C3962.70052,99.9277344 3961.95182,99.9277344 3961.20312,99.9277344 C3960.30469,99.9277344 3959.48112,99.9277344 3958.73242,99.9277344 C3957.98372,99.9277344 3957.23503,99.9277344 3956.48633,99.9277344 C3956.33659,99.9277344 3956.26172,99.9277344 3956.26172,99.9277344 C3956.11198,99.9277344 3956.03711,99.9277344 3956.03711,99.9277344 C3956.03711,99.9277344 3955.96224,99.8528646 3955.8125,99.703125 C3955.8125,99.703125 3955.73763,99.703125 3955.58789,99.703125 C3955.58789,99.5533854 3955.58789,99.4785156 3955.58789,99.4785156 C3955.58789,99.4785156 3955.58789,99.4036458 3955.58789,99.2539062 C3955.43815,99.2539062 3955.36328,99.2539062 3955.36328,99.2539062 C3955.36328,99.1041667 3955.36328,99.0292969 3955.36328,99.0292969 C3955.36328,99.0292969 3955.36328,99.0292969 3955.36328,99.0292969 C3955.36328,98.8795573 3955.36328,98.8046875 3955.36328,98.8046875 C3955.36328,98.8046875 3955.43815,98.7298177 3955.58789,98.5800781 C3955.58789,98.280599 3955.66276,97.90625 3955.8125,97.4570312 C3955.8125,97.0078125 3955.96224,96.5585938 3956.26172,96.109375 C3956.41146,95.5104167 3956.71094,94.9863281 3957.16016,94.5371094 C3957.3099,94.2376302 3957.53451,93.938151 3957.83398,93.6386719 C3957.98372,93.3391927 3958.20833,92.9648438 3958.50781,92.515625 C3958.80729,92.2161458 3959.18164,91.9915365 3959.63086,91.8417969 C3959.93034,91.5423177 3960.30469,91.2428385 3960.75391,90.9433594 C3961.5026,90.344401 3962.17643,89.8203125 3962.77539,89.3710938 C3963.22461,88.921875 3963.59896,88.547526 3963.89844,88.2480469 C3964.04818,87.7988281 3964.19792,87.4244792 3964.34766,87.125 C3964.4974,86.8255208 3964.57227,86.5260417 3964.57227,86.2265625 C3964.57227,86.0768229 3964.57227,85.9270833 3964.57227,85.7773438 C3964.57227,85.7773438 3964.57227,85.702474 3964.57227,85.5527344 C3964.57227,85.4029948 3964.4974,85.328125 3964.34766,85.328125 C3964.34766,85.1783854 3964.34766,85.0286458 3964.34766,84.8789062 C3964.19792,84.7291667 3964.04818,84.5045573 3963.89844,84.2050781 C3963.7487,84.0553385 3963.52409,83.905599 3963.22461,83.7558594 C3963.07487,83.6061198 3962.77539,83.53125 3962.32617,83.53125 C3962.02669,83.3815104 3961.65234,83.3066406 3961.20312,83.3066406 C3960.75391,83.3066406 3960.37956,83.3066406 3960.08008,83.3066406 C3959.7806,83.4563802 3959.48112,83.6061198 3959.18164,83.7558594 C3958.88216,83.905599 3958.65755,84.1302083 3958.50781,84.4296875 C3958.35807,84.5794271 3958.20833,84.8040365 3958.05859,85.1035156 C3957.90885,85.2532552 3957.83398,85.4029948 3957.83398,85.5527344 C3957.68424,85.5527344 3957.53451,85.6276042 3957.38477,85.7773438 C3957.23503,85.7773438 3957.16016,85.7773438 3957.16016,85.7773438 C3957.01042,85.7773438 3956.86068,85.702474 3956.71094,85.5527344 C3956.5612,85.5527344 3956.48633,85.5527344 3956.48633,85.5527344 C3956.33659,85.4029948 3956.26172,85.2532552 3956.26172,85.1035156 C3956.11198,84.953776 3956.03711,84.8040365 3956.03711,84.6542969 C3956.03711,84.6542969 3956.11198,84.5794271 3956.26172,84.4296875 C3956.41146,83.8307292 3956.71094,83.3815104 3957.16016,83.0820312 C3957.45964,82.6328125 3957.75911,82.3333333 3958.05859,82.1835938 C3958.50781,81.8841146 3958.95703,81.6595052 3959.40625,81.5097656 C3960.00521,81.360026 3960.60417,81.2851562 3961.20312,81.2851562 C3962.10156,81.2851562 3962.92513,81.4348958 3963.67383,81.734375 C3964.27279,82.0338542 3964.79687,82.4082031 3965.24609,82.8574219 C3965.69531,83.4563802 3965.99479,83.9804688 3966.14453,84.4296875 C3966.44401,85.0286458 3966.59375,85.6276042 3966.59375,86.2265625 C3966.59375,86.8255208 3966.44401,87.4244792 3966.14453,88.0234375 C3965.99479,88.4726562 3965.77018,88.9967448 3965.4707,89.5957031 C3965.02148,90.0449219 3964.4974,90.5690104 3963.89844,91.1679688 C3963.29948,91.6171875 3962.55078,92.0664062 3961.65234,92.515625 C3961.05339,92.9648438 3960.5293,93.4140625 3960.08008,93.8632812 C3959.48112,94.4622396 3959.0319,94.9863281 3958.73242,95.4355469 C3958.43294,95.8847656 3958.20833,96.3339844 3958.05859,96.7832031 C3957.90885,97.2324219 3957.75911,97.6816406 3957.60937,98.1308594 C3958.50781,98.1308594 3959.63086,98.1308594 3960.97852,98.1308594 C3962.32617,98.1308594 3963.89844,98.1308594 3965.69531,98.1308594 Z" transform="translate(-3851 -12)"/></svg>