<svg xmlns="http://www.w3.org/2000/svg" width="243" height="243" viewBox="0 0 243 243"><path fill="#131313" d="M166.089844,209.824219 C167.736979,211.321615 168.560547,213.193359 168.560547,215.439453 C168.560547,217.835286 167.736979,219.781901 166.089844,221.279297 C161.747396,225.621745 155.233724,232.135417 146.548828,240.820312 C145.80013,241.56901 144.901693,242.167969 143.853516,242.617188 C142.805339,243.066406 141.757161,243.291016 140.708984,243.291016 C140.259766,243.291016 139.735677,243.216146 139.136719,243.066406 C138.6875,243.066406 138.163411,242.916667 137.564453,242.617188 C136.067057,242.018229 134.869141,241.044922 133.970703,239.697266 C133.072266,238.349609 132.623047,236.852214 132.623047,235.205078 C132.623047,218.434245 132.623047,193.277995 132.623047,159.736328 C128.879557,161.533203 124.911458,162.955729 120.71875,164.003906 C116.376302,165.201823 112.183594,165.800781 108.140625,165.800781 C103.348958,165.800781 98.9316406,164.977214 94.8886719,163.330078 C90.8457031,161.832682 87.3268229,159.661458 84.3320312,156.816406 C80.8880208,153.372396 78.2675781,149.179688 76.4707031,144.238281 C74.8235677,139.296875 74,133.606771 74,127.167969 C74,113.242188 77.4440104,102.386068 84.3320312,94.5996094 C91.3697917,86.813151 99.0065104,82.171224 107.242188,80.6738281 C111.884115,79.7753906 116.376302,79.7753906 120.71875,80.6738281 C125.210938,81.5722656 129.328776,83.2942708 133.072266,85.8398438 C133.521484,84.1927083 134.419922,82.7701823 135.767578,81.5722656 C137.264974,80.5240885 138.912109,80 140.708984,80 C142.955078,80 144.901693,80.7486979 146.548828,82.2460938 C148.195964,83.8932292 149.019531,85.8398438 149.019531,88.0859375 C149.019531,91.5299479 149.019531,94.9739583 149.019531,98.4179688 C149.019531,101.71224 149.019531,105.08138 149.019531,108.525391 C149.019531,132.333984 149.019531,167.972005 149.019531,215.439453 C150.217448,214.241536 152.089193,212.369792 154.634766,209.824219 C156.132161,208.177083 158.003906,207.353516 160.25,207.353516 C162.496094,207.353516 164.442708,208.177083 166.089844,209.824219 Z M132.650391,123.607422 C132.650391,120.61263 132.650391,116.195312 132.650391,110.355469 C130.404297,105.264323 127.559245,101.670573 124.115234,99.5742188 C120.671224,97.4778646 117.227214,96.4296875 113.783203,96.4296875 C113.184245,96.4296875 112.585286,96.5045573 111.986328,96.6542969 C111.38737,96.6542969 110.863281,96.7291667 110.414062,96.8789062 C105.322917,97.7773438 100.68099,100.772135 96.4882812,105.863281 C92.2955729,110.954427 90.1992188,118.067057 90.1992188,127.201172 C90.1992188,136.784505 91.9960938,142.774089 95.5898438,145.169922 C99.0338542,147.416016 101.504557,148.763672 103.001953,149.212891 C109.141276,150.560547 115.355469,149.811849 121.644531,146.966797 C127.783854,144.121745 131.452474,141.800781 132.650391,140.003906 C132.650391,137.158854 132.650391,134.388672 132.650391,131.693359 C132.650391,128.998047 132.650391,126.302734 132.650391,123.607422 Z M103.226562,68.3535156 C103.226562,68.5032552 103.226562,68.6529948 103.226562,68.8027344 C103.226562,68.952474 103.226562,69.0273438 103.226562,69.0273438 C103.226562,69.3268229 103.301432,69.6263021 103.451172,69.9257812 C103.451172,70.2252604 103.526042,70.5247396 103.675781,70.8242188 C96.0390625,72.4713542 88.327474,76.6640625 80.5410156,83.4023438 C72.9042969,90.140625 67.9628906,100.023438 65.7167969,113.050781 C65.1178385,113.050781 64.2942708,112.975911 63.2460938,112.826172 C65.6419271,99.1998698 70.8828125,88.7929688 78.96875,81.6054688 C87.2044271,74.5677083 95.2903646,70.1503906 103.226562,68.3535156 Z M63.0214844,115.072266 C63.4707031,115.222005 64.219401,115.296875 65.2675781,115.296875 C65.2675781,114.997396 65.3424479,114.623047 65.4921875,114.173828 C65.4921875,113.874349 65.5670573,113.5 65.7167969,113.050781 C66.1660156,113.050781 66.8398438,113.125651 67.7382812,113.275391 C66.6901042,115.970703 65.2675781,120.013672 63.4707031,125.404297 C62.8717448,122.559245 62.0481771,118.366536 61,112.826172 C61.4492188,112.826172 62.1979167,112.826172 63.2460938,112.826172 C63.2460938,113.275391 63.171224,113.64974 63.0214844,113.949219 C63.0214844,114.248698 63.0214844,114.623047 63.0214844,115.072266 Z M63.0214844,115.072266 C63.0214844,114.772786 63.0214844,114.398438 63.0214844,113.949219 C63.171224,113.64974 63.2460938,113.275391 63.2460938,112.826172 C63.8450521,112.975911 64.6686198,113.050781 65.7167969,113.050781 C65.5670573,113.5 65.4921875,113.874349 65.4921875,114.173828 C65.3424479,114.623047 65.2675781,114.997396 65.2675781,115.296875 C64.8183594,115.296875 64.4440104,115.296875 64.1445312,115.296875 C63.6953125,115.147135 63.3209635,115.072266 63.0214844,115.072266 Z M107.943359,63.8613281 C109.291016,63.8613281 110.414062,64.3105469 111.3125,65.2089844 C112.360677,66.1074219 112.959635,67.2304688 113.109375,68.578125 C113.109375,69.9257812 112.660156,71.1236979 111.761719,72.171875 C110.863281,73.0703125 109.740234,73.594401 108.392578,73.7441406 C107.344401,73.7441406 106.371094,73.4446615 105.472656,72.8457031 C104.723958,72.3964844 104.125,71.7226562 103.675781,70.8242188 C103.825521,70.6744792 103.900391,70.5996094 103.900391,70.5996094 C104.05013,70.5996094 104.125,70.5996094 104.125,70.5996094 C104.574219,71.3483073 105.173177,71.9472656 105.921875,72.3964844 C106.670573,72.9954427 107.494141,73.2200521 108.392578,73.0703125 C109.590495,73.0703125 110.563802,72.6210938 111.3125,71.7226562 C112.210938,70.8242188 112.585286,69.7760417 112.435547,68.578125 C112.435547,67.3802083 111.986328,66.406901 111.087891,65.6582031 C110.189453,64.7597656 109.141276,64.3854167 107.943359,64.5351562 C106.895182,64.5351562 105.996745,64.9095052 105.248047,65.6582031 C104.499349,66.406901 104.05013,67.3053385 103.900391,68.3535156 C103.750651,68.3535156 103.675781,68.3535156 103.675781,68.3535156 C103.526042,68.3535156 103.376302,68.3535156 103.226562,68.3535156 C103.376302,67.155599 103.900391,66.1822917 104.798828,65.4335938 C105.547526,64.5351562 106.595703,64.0110677 107.943359,63.8613281 Z M103.900391,69.0273438 C103.900391,69.3268229 103.900391,69.6263021 103.900391,69.9257812 C104.05013,70.0755208 104.125,70.3001302 104.125,70.5996094 C104.125,70.5996094 104.05013,70.5996094 103.900391,70.5996094 C103.750651,70.749349 103.675781,70.8242188 103.675781,70.8242188 C103.526042,70.5247396 103.451172,70.2252604 103.451172,69.9257812 C103.301432,69.6263021 103.226562,69.4016927 103.226562,69.2519531 C103.226562,69.1022135 103.226562,68.952474 103.226562,68.8027344 C103.226562,68.6529948 103.226562,68.578125 103.226562,68.578125 C103.376302,68.4283854 103.526042,68.3535156 103.675781,68.3535156 C103.675781,68.3535156 103.750651,68.3535156 103.900391,68.3535156 C103.900391,68.5032552 103.900391,68.6529948 103.900391,68.8027344 C103.900391,68.8027344 103.900391,68.8776042 103.900391,69.0273438 Z M107.943359,64.984375 C108.093099,64.984375 108.167969,64.984375 108.167969,64.984375 C108.317708,64.984375 108.392578,64.984375 108.392578,64.984375 C108.392578,64.984375 108.317708,64.984375 108.167969,64.984375 C108.167969,64.984375 108.093099,64.984375 107.943359,64.984375 Z M107.943359,65.2089844 C107.044922,65.2089844 106.296224,65.5084635 105.697266,66.1074219 C104.948568,66.7063802 104.499349,67.3802083 104.349609,68.1289062 C104.349609,68.2786458 104.27474,68.3535156 104.125,68.3535156 C103.97526,68.3535156 103.900391,68.3535156 103.900391,68.3535156 C103.900391,67.3053385 104.349609,66.406901 105.248047,65.6582031 C105.996745,65.0592448 106.895182,64.6848958 107.943359,64.5351562 C109.141276,64.5351562 110.189453,64.9095052 111.087891,65.6582031 C111.986328,66.406901 112.435547,67.3802083 112.435547,68.578125 C112.585286,69.7760417 112.210938,70.8242188 111.3125,71.7226562 C110.563802,72.6210938 109.590495,73.0703125 108.392578,73.0703125 C107.494141,73.2200521 106.670573,73.0703125 105.921875,72.6210938 C105.173177,72.0221354 104.574219,71.3483073 104.125,70.5996094 C104.27474,70.5996094 104.424479,70.5996094 104.574219,70.5996094 C104.574219,70.5996094 104.649089,70.5247396 104.798828,70.375 C105.098307,71.1236979 105.547526,71.6477865 106.146484,71.9472656 C106.895182,72.3964844 107.64388,72.6210938 108.392578,72.6210938 C109.440755,72.4713542 110.264323,72.0221354 110.863281,71.2734375 C111.611979,70.5247396 111.986328,69.6263021 111.986328,68.578125 C111.836589,67.5299479 111.38737,66.7063802 110.638672,66.1074219 C109.889974,65.358724 108.991536,65.0592448 107.943359,65.2089844 C107.943359,65.0592448 107.943359,64.984375 107.943359,64.984375 C107.943359,64.984375 107.943359,65.0592448 107.943359,65.2089844 C108.093099,65.2089844 108.167969,65.1341146 108.167969,64.984375 C108.317708,64.984375 108.392578,64.984375 108.392578,64.984375 C108.392578,64.984375 108.317708,64.984375 108.167969,64.984375 C108.167969,65.1341146 108.093099,65.2089844 107.943359,65.2089844 C107.943359,65.2089844 107.943359,65.2089844 107.943359,65.2089844 C107.943359,65.2089844 107.943359,65.2089844 107.943359,65.2089844 C107.79362,65.2089844 107.71875,65.2089844 107.71875,65.2089844 C107.56901,65.2089844 107.494141,65.2089844 107.494141,65.2089844 C107.494141,65.2089844 107.56901,65.2089844 107.71875,65.2089844 C107.71875,65.2089844 107.79362,65.2089844 107.943359,65.2089844 Z M104.125,70.5996094 C104.125,70.3001302 104.05013,70.0755208 103.900391,69.9257812 C103.900391,69.6263021 103.900391,69.3268229 103.900391,69.0273438 C103.900391,68.8776042 103.900391,68.7278646 103.900391,68.578125 C103.900391,68.578125 103.900391,68.5032552 103.900391,68.3535156 C103.900391,68.3535156 103.97526,68.2786458 104.125,68.1289062 C104.27474,68.1289062 104.349609,68.1289062 104.349609,68.1289062 C104.349609,68.2786458 104.349609,68.4283854 104.349609,68.578125 C104.349609,68.7278646 104.349609,68.8776042 104.349609,69.0273438 C104.349609,69.3268229 104.424479,69.5514323 104.574219,69.7011719 C104.574219,70.000651 104.649089,70.2252604 104.798828,70.375 C104.649089,70.5247396 104.574219,70.5996094 104.574219,70.5996094 C104.424479,70.5996094 104.27474,70.5996094 104.125,70.5996094 Z M159.154297,193.236328 C160.052734,192.188151 161.55013,190.690755 163.646484,188.744141 C164.095703,189.04362 164.619792,189.567708 165.21875,190.316406 C163.421875,192.113281 160.576823,194.958333 156.683594,198.851562 C156.683594,176.540365 156.683594,143.223307 156.683594,98.9003906 C156.983073,98.9003906 157.207682,98.9003906 157.357422,98.9003906 C157.507161,98.9003906 157.656901,98.9003906 157.806641,98.9003906 C158.10612,98.9003906 158.330729,98.9003906 158.480469,98.9003906 C158.630208,98.9003906 158.854818,98.9003906 159.154297,98.9003906 C159.154297,114.623047 159.154297,130.345703 159.154297,146.068359 C159.154297,161.791016 159.154297,177.513672 159.154297,193.236328 Z M162.074219,187.171875 C164.619792,185.674479 168.363281,183.503255 173.304688,180.658203 C171.807292,183.203776 169.636068,186.947266 166.791016,191.888672 C166.491536,191.439453 165.967448,190.915365 165.21875,190.316406 C165.667969,189.867188 166.266927,189.343099 167.015625,188.744141 C166.566406,188.294922 165.967448,187.695964 165.21875,186.947266 C164.919271,187.396484 164.395182,187.995443 163.646484,188.744141 C163.347005,188.294922 162.822917,187.770833 162.074219,187.171875 Z M163.646484,188.744141 C164.095703,188.294922 164.619792,187.695964 165.21875,186.947266 C165.667969,187.396484 166.266927,187.995443 167.015625,188.744141 C166.566406,189.04362 165.967448,189.567708 165.21875,190.316406 C164.919271,189.867188 164.395182,189.343099 163.646484,188.744141 Z M153.539062,94.1835938 C153.539062,95.0820312 153.838542,95.905599 154.4375,96.6542969 C155.036458,97.4029948 155.785156,97.9270833 156.683594,98.2265625 C156.683594,98.3763021 156.683594,98.6009115 156.683594,98.9003906 C155.635417,98.6009115 154.736979,98.0019531 153.988281,97.1035156 C153.389323,96.2050781 153.089844,95.2317708 153.089844,94.1835938 C153.089844,92.8359375 153.539062,91.6380208 154.4375,90.5898438 C155.335938,89.6914062 156.458984,89.2421875 157.806641,89.2421875 C159.154297,89.2421875 160.352214,89.6914062 161.400391,90.5898438 C162.298828,91.6380208 162.748047,92.8359375 162.748047,94.1835938 C162.748047,95.2317708 162.373698,96.2050781 161.625,97.1035156 C161.026042,98.0019531 160.202474,98.6009115 159.154297,98.9003906 C159.154297,98.750651 159.154297,98.5260417 159.154297,98.2265625 C160.052734,97.9270833 160.801432,97.4029948 161.400391,96.6542969 C161.999349,95.905599 162.298828,95.0820312 162.298828,94.1835938 C162.298828,92.9856771 161.849609,91.9375 160.951172,91.0390625 C160.052734,90.140625 159.004557,89.6914062 157.806641,89.6914062 C156.608724,89.6914062 155.635417,90.140625 154.886719,91.0390625 C153.988281,91.9375 153.539062,92.9856771 153.539062,94.1835938 Z M159.154297,98.9003906 C158.854818,98.9003906 158.630208,98.9003906 158.480469,98.9003906 C158.330729,98.9003906 158.10612,98.9003906 157.806641,98.9003906 C157.656901,98.9003906 157.507161,98.9003906 157.357422,98.9003906 C157.207682,98.9003906 156.983073,98.9003906 156.683594,98.9003906 C156.683594,98.750651 156.683594,98.5260417 156.683594,98.2265625 C156.983073,98.2265625 157.207682,98.3014323 157.357422,98.4511719 C157.507161,98.4511719 157.656901,98.4511719 157.806641,98.4511719 C158.10612,98.4511719 158.330729,98.4511719 158.480469,98.4511719 C158.630208,98.3014323 158.854818,98.2265625 159.154297,98.2265625 C159.154297,98.3763021 159.154297,98.4511719 159.154297,98.4511719 C159.154297,98.6009115 159.154297,98.750651 159.154297,98.9003906 Z M162.298828,94.1835938 C162.298828,95.0820312 161.999349,95.905599 161.400391,96.6542969 C160.801432,97.4029948 160.052734,97.9270833 159.154297,98.2265625 C159.154297,98.0768229 159.154297,97.8522135 159.154297,97.5527344 C159.902995,97.4029948 160.501953,96.953776 160.951172,96.2050781 C161.400391,95.6061198 161.625,94.9322917 161.625,94.1835938 C161.625,93.1354167 161.250651,92.2369792 160.501953,91.4882812 C159.753255,90.7395833 158.854818,90.3652344 157.806641,90.3652344 C156.908203,90.3652344 156.084635,90.7395833 155.335938,91.4882812 C154.58724,92.2369792 154.212891,93.1354167 154.212891,94.1835938 C154.212891,94.0338542 154.212891,93.8841146 154.212891,93.734375 C154.212891,93.5846354 154.212891,93.5097656 154.212891,93.5097656 C154.212891,93.5097656 154.212891,93.5846354 154.212891,93.734375 C154.212891,93.8841146 154.212891,94.0338542 154.212891,94.1835938 C154.212891,94.3333333 154.212891,94.4830729 154.212891,94.6328125 C154.212891,94.6328125 154.212891,94.6328125 154.212891,94.6328125 C154.212891,94.6328125 154.212891,94.6328125 154.212891,94.6328125 C154.212891,94.4830729 154.212891,94.3333333 154.212891,94.1835938 C154.212891,94.9322917 154.4375,95.6061198 154.886719,96.2050781 C155.335938,96.953776 155.934896,97.4029948 156.683594,97.5527344 C156.683594,97.702474 156.683594,97.9270833 156.683594,98.2265625 C155.785156,97.9270833 155.036458,97.4029948 154.4375,96.6542969 C153.838542,95.905599 153.539062,95.0820312 153.539062,94.1835938 C153.539062,92.9856771 153.988281,91.9375 154.886719,91.0390625 C155.635417,90.140625 156.608724,89.6914062 157.806641,89.6914062 C159.004557,89.6914062 160.052734,90.140625 160.951172,91.0390625 C161.849609,91.9375 162.298828,92.9856771 162.298828,94.1835938 Z M157.806641,97.7773438 C158.10612,97.7773438 158.330729,97.7773438 158.480469,97.7773438 C158.630208,97.7773438 158.854818,97.702474 159.154297,97.5527344 C159.154297,97.702474 159.154297,97.9270833 159.154297,98.2265625 C158.854818,98.2265625 158.630208,98.3014323 158.480469,98.4511719 C158.330729,98.4511719 158.10612,98.4511719 157.806641,98.4511719 C157.656901,98.4511719 157.507161,98.4511719 157.357422,98.4511719 C157.207682,98.3014323 156.983073,98.2265625 156.683594,98.2265625 C156.683594,98.0768229 156.683594,97.8522135 156.683594,97.5527344 C156.983073,97.702474 157.207682,97.7773438 157.357422,97.7773438 C157.507161,97.7773438 157.656901,97.7773438 157.806641,97.7773438 Z M120.970703,56 C121.120443,56.1497396 121.195312,56.2246094 121.195312,56.2246094 C121.345052,56.374349 121.419922,56.4492188 121.419922,56.4492188 C121.419922,56.5989583 121.419922,56.6738281 121.419922,56.6738281 C121.569661,56.8235677 121.644531,56.8984375 121.644531,56.8984375 C121.644531,58.8450521 121.644531,61.1660156 121.644531,63.8613281 C121.644531,66.7063802 121.644531,70.000651 121.644531,73.7441406 C121.644531,73.7441406 121.569661,73.8190104 121.419922,73.96875 C121.419922,74.1184896 121.345052,74.2682292 121.195312,74.4179688 C121.195312,74.4179688 121.120443,74.4928385 120.970703,74.6425781 C120.820964,74.6425781 120.671224,74.6425781 120.521484,74.6425781 C120.521484,74.6425781 120.446615,74.6425781 120.296875,74.6425781 C120.147135,74.4928385 119.997396,74.4179688 119.847656,74.4179688 C119.847656,74.2682292 119.772786,74.1184896 119.623047,73.96875 C119.623047,73.96875 119.623047,73.8938802 119.623047,73.7441406 C119.623047,72.0970052 119.623047,70.0755208 119.623047,67.6796875 C119.623047,65.2838542 119.623047,62.5136719 119.623047,59.3691406 C119.623047,59.3691406 119.548177,59.4440104 119.398438,59.59375 C119.248698,59.7434896 119.098958,59.8932292 118.949219,60.0429688 C118.799479,60.1927083 118.724609,60.2675781 118.724609,60.2675781 C118.57487,60.2675781 118.42513,60.2675781 118.275391,60.2675781 C118.125651,60.2675781 117.975911,60.2675781 117.826172,60.2675781 C117.826172,60.2675781 117.751302,60.1927083 117.601562,60.0429688 C117.451823,59.8932292 117.376953,59.8183594 117.376953,59.8183594 C117.376953,59.6686198 117.376953,59.5188802 117.376953,59.3691406 C117.376953,59.219401 117.376953,59.0696615 117.376953,58.9199219 C117.376953,58.9199219 117.451823,58.8450521 117.601562,58.6953125 C117.901042,58.3958333 118.200521,58.0214844 118.5,57.5722656 C118.949219,57.2727865 119.398438,56.8235677 119.847656,56.2246094 C119.997396,56.2246094 120.072266,56.2246094 120.072266,56.2246094 C120.222005,56.0748698 120.371745,56 120.521484,56 C120.521484,56 120.521484,56 120.521484,56 C120.521484,56 120.521484,56 120.521484,56 C120.671224,56 120.746094,56 120.746094,56 C120.895833,56 120.970703,56 120.970703,56 Z M178.695312,110.130859 C178.845052,110.130859 178.994792,110.130859 179.144531,110.130859 C179.294271,110.130859 179.369141,110.205729 179.369141,110.355469 C179.51888,110.355469 179.59375,110.430339 179.59375,110.580078 C179.74349,110.729818 179.818359,110.879557 179.818359,111.029297 C179.818359,111.179036 179.74349,111.253906 179.59375,111.253906 C179.59375,111.403646 179.51888,111.553385 179.369141,111.703125 C179.369141,111.703125 179.294271,111.777995 179.144531,111.927734 C178.994792,111.927734 178.845052,111.927734 178.695312,111.927734 C177.946615,111.927734 177.197917,111.927734 176.449219,111.927734 C175.700521,111.927734 174.951823,111.927734 174.203125,111.927734 C173.304688,111.927734 172.48112,111.927734 171.732422,111.927734 C170.983724,111.927734 170.235026,111.927734 169.486328,111.927734 C169.336589,111.927734 169.261719,111.927734 169.261719,111.927734 C169.111979,111.927734 169.037109,111.927734 169.037109,111.927734 C169.037109,111.927734 168.96224,111.852865 168.8125,111.703125 C168.8125,111.703125 168.73763,111.703125 168.587891,111.703125 C168.587891,111.553385 168.587891,111.478516 168.587891,111.478516 C168.587891,111.478516 168.587891,111.403646 168.587891,111.253906 C168.438151,111.253906 168.363281,111.253906 168.363281,111.253906 C168.363281,111.104167 168.363281,111.029297 168.363281,111.029297 C168.363281,111.029297 168.363281,111.029297 168.363281,111.029297 C168.363281,110.879557 168.363281,110.804688 168.363281,110.804688 C168.363281,110.804688 168.438151,110.729818 168.587891,110.580078 C168.587891,110.280599 168.66276,109.90625 168.8125,109.457031 C168.8125,109.007812 168.96224,108.558594 169.261719,108.109375 C169.411458,107.510417 169.710938,106.986328 170.160156,106.537109 C170.309896,106.23763 170.534505,105.938151 170.833984,105.638672 C170.983724,105.339193 171.208333,104.964844 171.507812,104.515625 C171.807292,104.216146 172.181641,103.991536 172.630859,103.841797 C172.930339,103.542318 173.304688,103.242839 173.753906,102.943359 C174.502604,102.344401 175.176432,101.820312 175.775391,101.371094 C176.224609,100.921875 176.598958,100.547526 176.898438,100.248047 C177.048177,99.7988281 177.197917,99.4244792 177.347656,99.125 C177.497396,98.8255208 177.572266,98.5260417 177.572266,98.2265625 C177.572266,98.0768229 177.572266,97.9270833 177.572266,97.7773438 C177.572266,97.7773438 177.572266,97.702474 177.572266,97.5527344 C177.572266,97.4029948 177.497396,97.328125 177.347656,97.328125 C177.347656,97.1783854 177.347656,97.0286458 177.347656,96.8789062 C177.197917,96.7291667 177.048177,96.5045573 176.898438,96.2050781 C176.748698,96.0553385 176.524089,95.905599 176.224609,95.7558594 C176.07487,95.6061198 175.775391,95.53125 175.326172,95.53125 C175.026693,95.3815104 174.652344,95.3066406 174.203125,95.3066406 C173.753906,95.3066406 173.379557,95.3066406 173.080078,95.3066406 C172.780599,95.4563802 172.48112,95.6061198 172.181641,95.7558594 C171.882161,95.905599 171.657552,96.1302083 171.507812,96.4296875 C171.358073,96.5794271 171.208333,96.8040365 171.058594,97.1035156 C170.908854,97.2532552 170.833984,97.4029948 170.833984,97.5527344 C170.684245,97.5527344 170.534505,97.6276042 170.384766,97.7773438 C170.235026,97.7773438 170.160156,97.7773438 170.160156,97.7773438 C170.010417,97.7773438 169.860677,97.702474 169.710938,97.5527344 C169.561198,97.5527344 169.486328,97.5527344 169.486328,97.5527344 C169.336589,97.4029948 169.261719,97.2532552 169.261719,97.1035156 C169.111979,96.953776 169.037109,96.8040365 169.037109,96.6542969 C169.037109,96.6542969 169.111979,96.5794271 169.261719,96.4296875 C169.411458,95.8307292 169.710938,95.3815104 170.160156,95.0820312 C170.459635,94.6328125 170.759115,94.3333333 171.058594,94.1835938 C171.507812,93.8841146 171.957031,93.6595052 172.40625,93.5097656 C173.005208,93.360026 173.604167,93.2851562 174.203125,93.2851562 C175.101562,93.2851562 175.92513,93.4348958 176.673828,93.734375 C177.272786,94.0338542 177.796875,94.4082031 178.246094,94.8574219 C178.695312,95.4563802 178.994792,95.9804688 179.144531,96.4296875 C179.44401,97.0286458 179.59375,97.6276042 179.59375,98.2265625 C179.59375,98.8255208 179.44401,99.4244792 179.144531,100.023438 C178.994792,100.472656 178.770182,100.996745 178.470703,101.595703 C178.021484,102.044922 177.497396,102.56901 176.898438,103.167969 C176.299479,103.617188 175.550781,104.066406 174.652344,104.515625 C174.053385,104.964844 173.529297,105.414062 173.080078,105.863281 C172.48112,106.46224 172.031901,106.986328 171.732422,107.435547 C171.432943,107.884766 171.208333,108.333984 171.058594,108.783203 C170.908854,109.232422 170.759115,109.681641 170.609375,110.130859 C171.507812,110.130859 172.630859,110.130859 173.978516,110.130859 C175.326172,110.130859 176.898438,110.130859 178.695312,110.130859 Z"/></svg>