<svg xmlns="http://www.w3.org/2000/svg" width="115" height="243" viewBox="0 0 115 243"><path fill="#131313" d="M105.089844,209.824219 C106.736979,211.321615 107.560547,213.193359 107.560547,215.439453 C107.560547,217.835286 106.736979,219.781901 105.089844,221.279297 C100.747396,225.621745 94.233724,232.135417 85.5488281,240.820312 C84.8001302,241.56901 83.9016927,242.167969 82.8535156,242.617188 C81.8053385,243.066406 80.7571615,243.291016 79.7089844,243.291016 C79.2597656,243.291016 78.7356771,243.216146 78.1367188,243.066406 C77.6875,243.066406 77.1634115,242.916667 76.5644531,242.617188 C75.0670573,242.018229 73.8691406,241.044922 72.9707031,239.697266 C72.0722656,238.349609 71.6230469,236.852214 71.6230469,235.205078 C71.6230469,218.434245 71.6230469,193.277995 71.6230469,159.736328 C67.8795573,161.533203 63.9114583,162.955729 59.71875,164.003906 C55.3763021,165.201823 51.1835938,165.800781 47.140625,165.800781 C42.3489583,165.800781 37.9316406,164.977214 33.8886719,163.330078 C29.8457031,161.832682 26.3268229,159.661458 23.3320312,156.816406 C19.8880208,153.372396 17.2675781,149.179688 15.4707031,144.238281 C13.8235677,139.296875 13,133.606771 13,127.167969 C13,113.242188 16.4440104,102.386068 23.3320312,94.5996094 C30.3697917,86.813151 38.0065104,82.171224 46.2421875,80.6738281 C50.8841146,79.7753906 55.3763021,79.7753906 59.71875,80.6738281 C64.2109375,81.5722656 68.328776,83.2942708 72.0722656,85.8398438 C72.5214844,84.1927083 73.4199219,82.7701823 74.7675781,81.5722656 C76.264974,80.5240885 77.9121094,80 79.7089844,80 C81.9550781,80 83.9016927,80.7486979 85.5488281,82.2460938 C87.1959635,83.8932292 88.0195312,85.8398438 88.0195312,88.0859375 C88.0195312,91.5299479 88.0195312,94.9739583 88.0195312,98.4179688 C88.0195312,101.71224 88.0195312,105.08138 88.0195312,108.525391 C88.0195312,132.333984 88.0195312,167.972005 88.0195312,215.439453 C89.2174479,214.241536 91.0891927,212.369792 93.6347656,209.824219 C95.1321615,208.177083 97.0039062,207.353516 99.25,207.353516 C101.496094,207.353516 103.442708,208.177083 105.089844,209.824219 Z M71.6503906,123.607422 C71.6503906,120.61263 71.6503906,116.195312 71.6503906,110.355469 C69.4042969,105.264323 66.5592448,101.670573 63.1152344,99.5742188 C59.671224,97.4778646 56.2272135,96.4296875 52.7832031,96.4296875 C52.1842448,96.4296875 51.5852865,96.5045573 50.9863281,96.6542969 C50.3873698,96.6542969 49.8632812,96.7291667 49.4140625,96.8789062 C44.3229167,97.7773438 39.6809896,100.772135 35.4882812,105.863281 C31.2955729,110.954427 29.1992188,118.067057 29.1992188,127.201172 C29.1992188,136.784505 30.9960938,142.774089 34.5898438,145.169922 C38.0338542,147.416016 40.5045573,148.763672 42.0019531,149.212891 C48.141276,150.560547 54.3554688,149.811849 60.6445312,146.966797 C66.7838542,144.121745 70.452474,141.800781 71.6503906,140.003906 C71.6503906,137.158854 71.6503906,134.388672 71.6503906,131.693359 C71.6503906,128.998047 71.6503906,126.302734 71.6503906,123.607422 Z M42.2265625,68.3535156 C42.2265625,68.5032552 42.2265625,68.6529948 42.2265625,68.8027344 C42.2265625,68.952474 42.2265625,69.0273438 42.2265625,69.0273438 C42.2265625,69.3268229 42.3014323,69.6263021 42.4511719,69.9257812 C42.4511719,70.2252604 42.5260417,70.5247396 42.6757812,70.8242188 C35.0390625,72.4713542 27.327474,76.6640625 19.5410156,83.4023438 C11.9042969,90.140625 6.96289062,100.023438 4.71679688,113.050781 C4.11783854,113.050781 3.29427083,112.975911 2.24609375,112.826172 C4.64192708,99.1998698 9.8828125,88.7929688 17.96875,81.6054688 C26.2044271,74.5677083 34.2903646,70.1503906 42.2265625,68.3535156 Z M2.02148438,115.072266 C2.47070312,115.222005 3.21940104,115.296875 4.26757812,115.296875 C4.26757812,114.997396 4.34244792,114.623047 4.4921875,114.173828 C4.4921875,113.874349 4.56705729,113.5 4.71679688,113.050781 C5.16601562,113.050781 5.83984375,113.125651 6.73828125,113.275391 C5.69010417,115.970703 4.26757812,120.013672 2.47070312,125.404297 C1.87174479,122.559245 1.04817708,118.366536 0,112.826172 C0.44921875,112.826172 1.19791667,112.826172 2.24609375,112.826172 C2.24609375,113.275391 2.17122396,113.64974 2.02148438,113.949219 C2.02148438,114.248698 2.02148438,114.623047 2.02148438,115.072266 Z M2.02148438,115.072266 C2.02148438,114.772786 2.02148438,114.398438 2.02148438,113.949219 C2.17122396,113.64974 2.24609375,113.275391 2.24609375,112.826172 C2.84505208,112.975911 3.66861979,113.050781 4.71679688,113.050781 C4.56705729,113.5 4.4921875,113.874349 4.4921875,114.173828 C4.34244792,114.623047 4.26757812,114.997396 4.26757812,115.296875 C3.81835938,115.296875 3.44401042,115.296875 3.14453125,115.296875 C2.6953125,115.147135 2.32096354,115.072266 2.02148438,115.072266 Z M46.9433594,63.8613281 C48.2910156,63.8613281 49.4140625,64.3105469 50.3125,65.2089844 C51.3606771,66.1074219 51.9596354,67.2304688 52.109375,68.578125 C52.109375,69.9257812 51.6601562,71.1236979 50.7617188,72.171875 C49.8632812,73.0703125 48.7402344,73.594401 47.3925781,73.7441406 C46.344401,73.7441406 45.3710938,73.4446615 44.4726562,72.8457031 C43.7239583,72.3964844 43.125,71.7226562 42.6757812,70.8242188 C42.8255208,70.6744792 42.9003906,70.5996094 42.9003906,70.5996094 C43.0501302,70.5996094 43.125,70.5996094 43.125,70.5996094 C43.5742188,71.3483073 44.1731771,71.9472656 44.921875,72.3964844 C45.6705729,72.9954427 46.4941406,73.2200521 47.3925781,73.0703125 C48.5904948,73.0703125 49.5638021,72.6210938 50.3125,71.7226562 C51.2109375,70.8242188 51.5852865,69.7760417 51.4355469,68.578125 C51.4355469,67.3802083 50.9863281,66.406901 50.0878906,65.6582031 C49.1894531,64.7597656 48.141276,64.3854167 46.9433594,64.5351562 C45.8951823,64.5351562 44.9967448,64.9095052 44.2480469,65.6582031 C43.499349,66.406901 43.0501302,67.3053385 42.9003906,68.3535156 C42.750651,68.3535156 42.6757812,68.3535156 42.6757812,68.3535156 C42.5260417,68.3535156 42.3763021,68.3535156 42.2265625,68.3535156 C42.3763021,67.155599 42.9003906,66.1822917 43.7988281,65.4335938 C44.547526,64.5351562 45.5957031,64.0110677 46.9433594,63.8613281 Z M42.9003906,69.0273438 C42.9003906,69.3268229 42.9003906,69.6263021 42.9003906,69.9257812 C43.0501302,70.0755208 43.125,70.3001302 43.125,70.5996094 C43.125,70.5996094 43.0501302,70.5996094 42.9003906,70.5996094 C42.750651,70.749349 42.6757812,70.8242188 42.6757812,70.8242188 C42.5260417,70.5247396 42.4511719,70.2252604 42.4511719,69.9257812 C42.3014323,69.6263021 42.2265625,69.4016927 42.2265625,69.2519531 C42.2265625,69.1022135 42.2265625,68.952474 42.2265625,68.8027344 C42.2265625,68.6529948 42.2265625,68.578125 42.2265625,68.578125 C42.3763021,68.4283854 42.5260417,68.3535156 42.6757812,68.3535156 C42.6757812,68.3535156 42.750651,68.3535156 42.9003906,68.3535156 C42.9003906,68.5032552 42.9003906,68.6529948 42.9003906,68.8027344 C42.9003906,68.8027344 42.9003906,68.8776042 42.9003906,69.0273438 Z M46.9433594,64.984375 C47.093099,64.984375 47.1679688,64.984375 47.1679688,64.984375 C47.3177083,64.984375 47.3925781,64.984375 47.3925781,64.984375 C47.3925781,64.984375 47.3177083,64.984375 47.1679688,64.984375 C47.1679688,64.984375 47.093099,64.984375 46.9433594,64.984375 Z M46.9433594,65.2089844 C46.0449219,65.2089844 45.296224,65.5084635 44.6972656,66.1074219 C43.9485677,66.7063802 43.499349,67.3802083 43.3496094,68.1289062 C43.3496094,68.2786458 43.2747396,68.3535156 43.125,68.3535156 C42.9752604,68.3535156 42.9003906,68.3535156 42.9003906,68.3535156 C42.9003906,67.3053385 43.3496094,66.406901 44.2480469,65.6582031 C44.9967448,65.0592448 45.8951823,64.6848958 46.9433594,64.5351562 C48.141276,64.5351562 49.1894531,64.9095052 50.0878906,65.6582031 C50.9863281,66.406901 51.4355469,67.3802083 51.4355469,68.578125 C51.5852865,69.7760417 51.2109375,70.8242188 50.3125,71.7226562 C49.5638021,72.6210938 48.5904948,73.0703125 47.3925781,73.0703125 C46.4941406,73.2200521 45.6705729,73.0703125 44.921875,72.6210938 C44.1731771,72.0221354 43.5742188,71.3483073 43.125,70.5996094 C43.2747396,70.5996094 43.4244792,70.5996094 43.5742188,70.5996094 C43.5742188,70.5996094 43.6490885,70.5247396 43.7988281,70.375 C44.0983073,71.1236979 44.547526,71.6477865 45.1464844,71.9472656 C45.8951823,72.3964844 46.6438802,72.6210938 47.3925781,72.6210938 C48.4407552,72.4713542 49.2643229,72.0221354 49.8632812,71.2734375 C50.6119792,70.5247396 50.9863281,69.6263021 50.9863281,68.578125 C50.8365885,67.5299479 50.3873698,66.7063802 49.6386719,66.1074219 C48.889974,65.358724 47.9915365,65.0592448 46.9433594,65.2089844 C46.9433594,65.0592448 46.9433594,64.984375 46.9433594,64.984375 C46.9433594,64.984375 46.9433594,65.0592448 46.9433594,65.2089844 C47.093099,65.2089844 47.1679688,65.1341146 47.1679688,64.984375 C47.3177083,64.984375 47.3925781,64.984375 47.3925781,64.984375 C47.3925781,64.984375 47.3177083,64.984375 47.1679688,64.984375 C47.1679688,65.1341146 47.093099,65.2089844 46.9433594,65.2089844 C46.9433594,65.2089844 46.9433594,65.2089844 46.9433594,65.2089844 C46.9433594,65.2089844 46.9433594,65.2089844 46.9433594,65.2089844 C46.7936198,65.2089844 46.71875,65.2089844 46.71875,65.2089844 C46.5690104,65.2089844 46.4941406,65.2089844 46.4941406,65.2089844 C46.4941406,65.2089844 46.5690104,65.2089844 46.71875,65.2089844 C46.71875,65.2089844 46.7936198,65.2089844 46.9433594,65.2089844 Z M43.125,70.5996094 C43.125,70.3001302 43.0501302,70.0755208 42.9003906,69.9257812 C42.9003906,69.6263021 42.9003906,69.3268229 42.9003906,69.0273438 C42.9003906,68.8776042 42.9003906,68.7278646 42.9003906,68.578125 C42.9003906,68.578125 42.9003906,68.5032552 42.9003906,68.3535156 C42.9003906,68.3535156 42.9752604,68.2786458 43.125,68.1289062 C43.2747396,68.1289062 43.3496094,68.1289062 43.3496094,68.1289062 C43.3496094,68.2786458 43.3496094,68.4283854 43.3496094,68.578125 C43.3496094,68.7278646 43.3496094,68.8776042 43.3496094,69.0273438 C43.3496094,69.3268229 43.4244792,69.5514323 43.5742188,69.7011719 C43.5742188,70.000651 43.6490885,70.2252604 43.7988281,70.375 C43.6490885,70.5247396 43.5742188,70.5996094 43.5742188,70.5996094 C43.4244792,70.5996094 43.2747396,70.5996094 43.125,70.5996094 Z M98.1542969,193.236328 C99.0527344,192.188151 100.55013,190.690755 102.646484,188.744141 C103.095703,189.04362 103.619792,189.567708 104.21875,190.316406 C102.421875,192.113281 99.5768229,194.958333 95.6835938,198.851562 C95.6835938,176.540365 95.6835938,143.223307 95.6835938,98.9003906 C95.9830729,98.9003906 96.2076823,98.9003906 96.3574219,98.9003906 C96.5071615,98.9003906 96.656901,98.9003906 96.8066406,98.9003906 C97.1061198,98.9003906 97.3307292,98.9003906 97.4804688,98.9003906 C97.6302083,98.9003906 97.8548177,98.9003906 98.1542969,98.9003906 C98.1542969,114.623047 98.1542969,130.345703 98.1542969,146.068359 C98.1542969,161.791016 98.1542969,177.513672 98.1542969,193.236328 Z M101.074219,187.171875 C103.619792,185.674479 107.363281,183.503255 112.304688,180.658203 C110.807292,183.203776 108.636068,186.947266 105.791016,191.888672 C105.491536,191.439453 104.967448,190.915365 104.21875,190.316406 C104.667969,189.867188 105.266927,189.343099 106.015625,188.744141 C105.566406,188.294922 104.967448,187.695964 104.21875,186.947266 C103.919271,187.396484 103.395182,187.995443 102.646484,188.744141 C102.347005,188.294922 101.822917,187.770833 101.074219,187.171875 Z M102.646484,188.744141 C103.095703,188.294922 103.619792,187.695964 104.21875,186.947266 C104.667969,187.396484 105.266927,187.995443 106.015625,188.744141 C105.566406,189.04362 104.967448,189.567708 104.21875,190.316406 C103.919271,189.867188 103.395182,189.343099 102.646484,188.744141 Z M92.5390625,94.1835938 C92.5390625,95.0820312 92.8385417,95.905599 93.4375,96.6542969 C94.0364583,97.4029948 94.7851562,97.9270833 95.6835938,98.2265625 C95.6835938,98.3763021 95.6835938,98.6009115 95.6835938,98.9003906 C94.6354167,98.6009115 93.7369792,98.0019531 92.9882812,97.1035156 C92.3893229,96.2050781 92.0898438,95.2317708 92.0898438,94.1835938 C92.0898438,92.8359375 92.5390625,91.6380208 93.4375,90.5898438 C94.3359375,89.6914062 95.4589844,89.2421875 96.8066406,89.2421875 C98.1542969,89.2421875 99.3522135,89.6914062 100.400391,90.5898438 C101.298828,91.6380208 101.748047,92.8359375 101.748047,94.1835938 C101.748047,95.2317708 101.373698,96.2050781 100.625,97.1035156 C100.026042,98.0019531 99.202474,98.6009115 98.1542969,98.9003906 C98.1542969,98.750651 98.1542969,98.5260417 98.1542969,98.2265625 C99.0527344,97.9270833 99.8014323,97.4029948 100.400391,96.6542969 C100.999349,95.905599 101.298828,95.0820312 101.298828,94.1835938 C101.298828,92.9856771 100.849609,91.9375 99.9511719,91.0390625 C99.0527344,90.140625 98.0045573,89.6914062 96.8066406,89.6914062 C95.608724,89.6914062 94.6354167,90.140625 93.8867188,91.0390625 C92.9882812,91.9375 92.5390625,92.9856771 92.5390625,94.1835938 Z M98.1542969,98.9003906 C97.8548177,98.9003906 97.6302083,98.9003906 97.4804688,98.9003906 C97.3307292,98.9003906 97.1061198,98.9003906 96.8066406,98.9003906 C96.656901,98.9003906 96.5071615,98.9003906 96.3574219,98.9003906 C96.2076823,98.9003906 95.9830729,98.9003906 95.6835938,98.9003906 C95.6835938,98.750651 95.6835938,98.5260417 95.6835938,98.2265625 C95.9830729,98.2265625 96.2076823,98.3014323 96.3574219,98.4511719 C96.5071615,98.4511719 96.656901,98.4511719 96.8066406,98.4511719 C97.1061198,98.4511719 97.3307292,98.4511719 97.4804688,98.4511719 C97.6302083,98.3014323 97.8548177,98.2265625 98.1542969,98.2265625 C98.1542969,98.3763021 98.1542969,98.4511719 98.1542969,98.4511719 C98.1542969,98.6009115 98.1542969,98.750651 98.1542969,98.9003906 Z M101.298828,94.1835938 C101.298828,95.0820312 100.999349,95.905599 100.400391,96.6542969 C99.8014323,97.4029948 99.0527344,97.9270833 98.1542969,98.2265625 C98.1542969,98.0768229 98.1542969,97.8522135 98.1542969,97.5527344 C98.9029948,97.4029948 99.5019531,96.953776 99.9511719,96.2050781 C100.400391,95.6061198 100.625,94.9322917 100.625,94.1835938 C100.625,93.1354167 100.250651,92.2369792 99.5019531,91.4882812 C98.7532552,90.7395833 97.8548177,90.3652344 96.8066406,90.3652344 C95.9082031,90.3652344 95.0846354,90.7395833 94.3359375,91.4882812 C93.5872396,92.2369792 93.2128906,93.1354167 93.2128906,94.1835938 C93.2128906,94.0338542 93.2128906,93.8841146 93.2128906,93.734375 C93.2128906,93.5846354 93.2128906,93.5097656 93.2128906,93.5097656 C93.2128906,93.5097656 93.2128906,93.5846354 93.2128906,93.734375 C93.2128906,93.8841146 93.2128906,94.0338542 93.2128906,94.1835938 C93.2128906,94.3333333 93.2128906,94.4830729 93.2128906,94.6328125 C93.2128906,94.6328125 93.2128906,94.6328125 93.2128906,94.6328125 C93.2128906,94.6328125 93.2128906,94.6328125 93.2128906,94.6328125 C93.2128906,94.4830729 93.2128906,94.3333333 93.2128906,94.1835938 C93.2128906,94.9322917 93.4375,95.6061198 93.8867188,96.2050781 C94.3359375,96.953776 94.9348958,97.4029948 95.6835938,97.5527344 C95.6835938,97.702474 95.6835938,97.9270833 95.6835938,98.2265625 C94.7851562,97.9270833 94.0364583,97.4029948 93.4375,96.6542969 C92.8385417,95.905599 92.5390625,95.0820312 92.5390625,94.1835938 C92.5390625,92.9856771 92.9882812,91.9375 93.8867188,91.0390625 C94.6354167,90.140625 95.608724,89.6914062 96.8066406,89.6914062 C98.0045573,89.6914062 99.0527344,90.140625 99.9511719,91.0390625 C100.849609,91.9375 101.298828,92.9856771 101.298828,94.1835938 Z M96.8066406,97.7773438 C97.1061198,97.7773438 97.3307292,97.7773438 97.4804688,97.7773438 C97.6302083,97.7773438 97.8548177,97.702474 98.1542969,97.5527344 C98.1542969,97.702474 98.1542969,97.9270833 98.1542969,98.2265625 C97.8548177,98.2265625 97.6302083,98.3014323 97.4804688,98.4511719 C97.3307292,98.4511719 97.1061198,98.4511719 96.8066406,98.4511719 C96.656901,98.4511719 96.5071615,98.4511719 96.3574219,98.4511719 C96.2076823,98.3014323 95.9830729,98.2265625 95.6835938,98.2265625 C95.6835938,98.0768229 95.6835938,97.8522135 95.6835938,97.5527344 C95.9830729,97.702474 96.2076823,97.7773438 96.3574219,97.7773438 C96.5071615,97.7773438 96.656901,97.7773438 96.8066406,97.7773438 Z M59.9707031,56 C60.1204427,56.1497396 60.1953125,56.2246094 60.1953125,56.2246094 C60.3450521,56.374349 60.4199219,56.4492188 60.4199219,56.4492188 C60.4199219,56.5989583 60.4199219,56.6738281 60.4199219,56.6738281 C60.5696615,56.8235677 60.6445312,56.8984375 60.6445312,56.8984375 C60.6445312,58.8450521 60.6445312,61.1660156 60.6445312,63.8613281 C60.6445312,66.7063802 60.6445312,70.000651 60.6445312,73.7441406 C60.6445312,73.7441406 60.5696615,73.8190104 60.4199219,73.96875 C60.4199219,74.1184896 60.3450521,74.2682292 60.1953125,74.4179688 C60.1953125,74.4179688 60.1204427,74.4928385 59.9707031,74.6425781 C59.8209635,74.6425781 59.671224,74.6425781 59.5214844,74.6425781 C59.5214844,74.6425781 59.4466146,74.6425781 59.296875,74.6425781 C59.1471354,74.4928385 58.9973958,74.4179688 58.8476562,74.4179688 C58.8476562,74.2682292 58.7727865,74.1184896 58.6230469,73.96875 C58.6230469,73.96875 58.6230469,73.8938802 58.6230469,73.7441406 C58.6230469,72.0970052 58.6230469,70.0755208 58.6230469,67.6796875 C58.6230469,65.2838542 58.6230469,62.5136719 58.6230469,59.3691406 C58.6230469,59.3691406 58.5481771,59.4440104 58.3984375,59.59375 C58.2486979,59.7434896 58.0989583,59.8932292 57.9492188,60.0429688 C57.7994792,60.1927083 57.7246094,60.2675781 57.7246094,60.2675781 C57.5748698,60.2675781 57.4251302,60.2675781 57.2753906,60.2675781 C57.125651,60.2675781 56.9759115,60.2675781 56.8261719,60.2675781 C56.8261719,60.2675781 56.7513021,60.1927083 56.6015625,60.0429688 C56.4518229,59.8932292 56.3769531,59.8183594 56.3769531,59.8183594 C56.3769531,59.6686198 56.3769531,59.5188802 56.3769531,59.3691406 C56.3769531,59.219401 56.3769531,59.0696615 56.3769531,58.9199219 C56.3769531,58.9199219 56.4518229,58.8450521 56.6015625,58.6953125 C56.9010417,58.3958333 57.2005208,58.0214844 57.5,57.5722656 C57.9492188,57.2727865 58.3984375,56.8235677 58.8476562,56.2246094 C58.9973958,56.2246094 59.0722656,56.2246094 59.0722656,56.2246094 C59.2220052,56.0748698 59.3717448,56 59.5214844,56 C59.5214844,56 59.5214844,56 59.5214844,56 C59.5214844,56 59.5214844,56 59.5214844,56 C59.671224,56 59.7460938,56 59.7460938,56 C59.8958333,56 59.9707031,56 59.9707031,56 Z M117.695312,110.130859 C117.845052,110.130859 117.994792,110.130859 118.144531,110.130859 C118.294271,110.130859 118.369141,110.205729 118.369141,110.355469 C118.51888,110.355469 118.59375,110.430339 118.59375,110.580078 C118.74349,110.729818 118.818359,110.879557 118.818359,111.029297 C118.818359,111.179036 118.74349,111.253906 118.59375,111.253906 C118.59375,111.403646 118.51888,111.553385 118.369141,111.703125 C118.369141,111.703125 118.294271,111.777995 118.144531,111.927734 C117.994792,111.927734 117.845052,111.927734 117.695312,111.927734 C116.946615,111.927734 116.197917,111.927734 115.449219,111.927734 C114.700521,111.927734 113.951823,111.927734 113.203125,111.927734 C112.304688,111.927734 111.48112,111.927734 110.732422,111.927734 C109.983724,111.927734 109.235026,111.927734 108.486328,111.927734 C108.336589,111.927734 108.261719,111.927734 108.261719,111.927734 C108.111979,111.927734 108.037109,111.927734 108.037109,111.927734 C108.037109,111.927734 107.96224,111.852865 107.8125,111.703125 C107.8125,111.703125 107.73763,111.703125 107.587891,111.703125 C107.587891,111.553385 107.587891,111.478516 107.587891,111.478516 C107.587891,111.478516 107.587891,111.403646 107.587891,111.253906 C107.438151,111.253906 107.363281,111.253906 107.363281,111.253906 C107.363281,111.104167 107.363281,111.029297 107.363281,111.029297 C107.363281,111.029297 107.363281,111.029297 107.363281,111.029297 C107.363281,110.879557 107.363281,110.804688 107.363281,110.804688 C107.363281,110.804688 107.438151,110.729818 107.587891,110.580078 C107.587891,110.280599 107.66276,109.90625 107.8125,109.457031 C107.8125,109.007812 107.96224,108.558594 108.261719,108.109375 C108.411458,107.510417 108.710938,106.986328 109.160156,106.537109 C109.309896,106.23763 109.534505,105.938151 109.833984,105.638672 C109.983724,105.339193 110.208333,104.964844 110.507812,104.515625 C110.807292,104.216146 111.181641,103.991536 111.630859,103.841797 C111.930339,103.542318 112.304688,103.242839 112.753906,102.943359 C113.502604,102.344401 114.176432,101.820312 114.775391,101.371094 C115.224609,100.921875 115.598958,100.547526 115.898438,100.248047 C116.048177,99.7988281 116.197917,99.4244792 116.347656,99.125 C116.497396,98.8255208 116.572266,98.5260417 116.572266,98.2265625 C116.572266,98.0768229 116.572266,97.9270833 116.572266,97.7773438 C116.572266,97.7773438 116.572266,97.702474 116.572266,97.5527344 C116.572266,97.4029948 116.497396,97.328125 116.347656,97.328125 C116.347656,97.1783854 116.347656,97.0286458 116.347656,96.8789062 C116.197917,96.7291667 116.048177,96.5045573 115.898438,96.2050781 C115.748698,96.0553385 115.524089,95.905599 115.224609,95.7558594 C115.07487,95.6061198 114.775391,95.53125 114.326172,95.53125 C114.026693,95.3815104 113.652344,95.3066406 113.203125,95.3066406 C112.753906,95.3066406 112.379557,95.3066406 112.080078,95.3066406 C111.780599,95.4563802 111.48112,95.6061198 111.181641,95.7558594 C110.882161,95.905599 110.657552,96.1302083 110.507812,96.4296875 C110.358073,96.5794271 110.208333,96.8040365 110.058594,97.1035156 C109.908854,97.2532552 109.833984,97.4029948 109.833984,97.5527344 C109.684245,97.5527344 109.534505,97.6276042 109.384766,97.7773438 C109.235026,97.7773438 109.160156,97.7773438 109.160156,97.7773438 C109.010417,97.7773438 108.860677,97.702474 108.710938,97.5527344 C108.561198,97.5527344 108.486328,97.5527344 108.486328,97.5527344 C108.336589,97.4029948 108.261719,97.2532552 108.261719,97.1035156 C108.111979,96.953776 108.037109,96.8040365 108.037109,96.6542969 C108.037109,96.6542969 108.111979,96.5794271 108.261719,96.4296875 C108.411458,95.8307292 108.710938,95.3815104 109.160156,95.0820312 C109.459635,94.6328125 109.759115,94.3333333 110.058594,94.1835938 C110.507812,93.8841146 110.957031,93.6595052 111.40625,93.5097656 C112.005208,93.360026 112.604167,93.2851562 113.203125,93.2851562 C114.101562,93.2851562 114.92513,93.4348958 115.673828,93.734375 C116.272786,94.0338542 116.796875,94.4082031 117.246094,94.8574219 C117.695312,95.4563802 117.994792,95.9804688 118.144531,96.4296875 C118.44401,97.0286458 118.59375,97.6276042 118.59375,98.2265625 C118.59375,98.8255208 118.44401,99.4244792 118.144531,100.023438 C117.994792,100.472656 117.770182,100.996745 117.470703,101.595703 C117.021484,102.044922 116.497396,102.56901 115.898438,103.167969 C115.299479,103.617188 114.550781,104.066406 113.652344,104.515625 C113.053385,104.964844 112.529297,105.414062 112.080078,105.863281 C111.48112,106.46224 111.031901,106.986328 110.732422,107.435547 C110.432943,107.884766 110.208333,108.333984 110.058594,108.783203 C109.908854,109.232422 109.759115,109.681641 109.609375,110.130859 C110.507812,110.130859 111.630859,110.130859 112.978516,110.130859 C114.326172,110.130859 115.898438,110.130859 117.695312,110.130859 Z" transform="translate(-3)"/></svg>