<svg xmlns="http://www.w3.org/2000/svg" width="115" height="203" viewBox="0 0 115 203"><path fill="#131313" d="M3953.08984,230.824219 C3954.73698,232.321615 3955.56055,234.193359 3955.56055,236.439453 C3955.56055,238.835286 3954.73698,240.781901 3953.08984,242.279297 C3948.7474,246.621745 3942.23372,253.135417 3933.54883,261.820313 C3932.80013,262.56901 3931.90169,263.167969 3930.85352,263.617188 C3929.80534,264.066406 3928.75716,264.291016 3927.70898,264.291016 C3927.25977,264.291016 3926.73568,264.216146 3926.13672,264.066406 C3925.6875,264.066406 3925.16341,263.916667 3924.56445,263.617188 C3923.06706,263.018229 3921.86914,262.044922 3920.9707,260.697266 C3920.07227,259.349609 3919.62305,257.852214 3919.62305,256.205078 C3919.62305,239.434245 3919.62305,230.277995 3919.62305,196.736328 C3915.87956,198.533203 3911.91146,199.955729 3907.71875,201.003906 C3903.3763,202.201823 3899.18359,202.800781 3895.14062,202.800781 C3890.34896,202.800781 3885.93164,201.977214 3881.88867,200.330078 C3877.8457,198.832682 3874.32682,196.661458 3871.33203,193.816406 C3867.88802,190.372396 3865.26758,186.179688 3863.4707,181.238281 C3861.82357,176.296875 3861,170.606771 3861,164.167969 C3861,150.242188 3864.44401,139.386068 3871.33203,131.599609 C3878.36979,123.813151 3886.00651,119.171224 3894.24219,117.673828 C3898.88411,116.775391 3903.3763,116.775391 3907.71875,117.673828 C3912.21094,118.572266 3916.32878,120.294271 3920.07227,122.839844 C3920.52148,121.192708 3921.41992,119.770182 3922.76758,118.572266 C3924.26497,117.524089 3925.91211,117 3927.70898,117 C3929.95508,117 3931.90169,117.748698 3933.54883,119.246094 C3935.19596,120.893229 3936.01953,122.839844 3936.01953,125.085938 C3936.01953,128.529948 3936.01953,131.973958 3936.01953,135.417969 C3936.01953,138.71224 3936.01953,142.08138 3936.01953,145.525391 C3936.01953,169.333984 3936.01953,188.972005 3936.01953,236.439453 C3937.21745,235.241536 3939.08919,233.369792 3941.63477,230.824219 C3943.13216,229.177083 3945.00391,228.353516 3947.25,228.353516 C3949.49609,228.353516 3951.44271,229.177083 3953.08984,230.824219 Z M3919.65039,160.607422 C3919.65039,157.61263 3919.65039,153.195312 3919.65039,147.355469 C3917.4043,142.264323 3914.55924,138.670573 3911.11523,136.574219 C3907.67122,134.477865 3904.22721,133.429688 3900.7832,133.429688 C3900.18424,133.429688 3899.58529,133.504557 3898.98633,133.654297 C3898.38737,133.654297 3897.86328,133.729167 3897.41406,133.878906 C3892.32292,134.777344 3887.68099,137.772135 3883.48828,142.863281 C3879.29557,147.954427 3877.19922,155.067057 3877.19922,164.201172 C3877.19922,173.784505 3878.99609,179.774089 3882.58984,182.169922 C3886.03385,184.416016 3888.50456,185.763672 3890.00195,186.212891 C3896.14128,187.560547 3902.35547,186.811849 3908.64453,183.966797 C3914.78385,181.121745 3918.45247,178.800781 3919.65039,177.003906 C3919.65039,174.158854 3919.65039,171.388672 3919.65039,168.693359 C3919.65039,165.998047 3919.65039,163.302734 3919.65039,160.607422 Z M3890.22656,105.353516 C3890.22656,105.503255 3890.22656,105.652995 3890.22656,105.802734 C3890.22656,105.952474 3890.22656,106.027344 3890.22656,106.027344 C3890.22656,106.326823 3890.30143,106.626302 3890.45117,106.925781 C3890.45117,107.22526 3890.52604,107.52474 3890.67578,107.824219 C3883.03906,109.471354 3875.32747,113.664062 3867.54102,120.402344 C3859.9043,127.140625 3854.96289,137.023438 3852.7168,150.050781 C3852.11784,150.050781 3851.29427,149.975911 3850.24609,149.826172 C3852.64193,136.19987 3857.88281,125.792969 3865.96875,118.605469 C3874.20443,111.567708 3882.29036,107.150391 3890.22656,105.353516 Z M3850.02148,152.072266 C3850.4707,152.222005 3851.2194,152.296875 3852.26758,152.296875 C3852.26758,151.997396 3852.34245,151.623047 3852.49219,151.173828 C3852.49219,150.874349 3852.56706,150.5 3852.7168,150.050781 C3853.16602,150.050781 3853.83984,150.125651 3854.73828,150.275391 C3853.6901,152.970703 3852.26758,157.013672 3850.4707,162.404297 C3849.87174,159.559245 3849.04818,155.366536 3848,149.826172 C3848.44922,149.826172 3849.19792,149.826172 3850.24609,149.826172 C3850.24609,150.275391 3850.17122,150.64974 3850.02148,150.949219 C3850.02148,151.248698 3850.02148,151.623047 3850.02148,152.072266 Z M3850.02148,152.072266 C3850.02148,151.772786 3850.02148,151.398438 3850.02148,150.949219 C3850.17122,150.64974 3850.24609,150.275391 3850.24609,149.826172 C3850.84505,149.975911 3851.66862,150.050781 3852.7168,150.050781 C3852.56706,150.5 3852.49219,150.874349 3852.49219,151.173828 C3852.34245,151.623047 3852.26758,151.997396 3852.26758,152.296875 C3851.81836,152.296875 3851.44401,152.296875 3851.14453,152.296875 C3850.69531,152.147135 3850.32096,152.072266 3850.02148,152.072266 Z M3894.94336,100.861328 C3896.29102,100.861328 3897.41406,101.310547 3898.3125,102.208984 C3899.36068,103.107422 3899.95964,104.230469 3900.10938,105.578125 C3900.10938,106.925781 3899.66016,108.123698 3898.76172,109.171875 C3897.86328,110.070312 3896.74023,110.594401 3895.39258,110.744141 C3894.3444,110.744141 3893.37109,110.444661 3892.47266,109.845703 C3891.72396,109.396484 3891.125,108.722656 3890.67578,107.824219 C3890.82552,107.674479 3890.90039,107.599609 3890.90039,107.599609 C3891.05013,107.599609 3891.125,107.599609 3891.125,107.599609 C3891.57422,108.348307 3892.17318,108.947266 3892.92188,109.396484 C3893.67057,109.995443 3894.49414,110.220052 3895.39258,110.070312 C3896.59049,110.070312 3897.5638,109.621094 3898.3125,108.722656 C3899.21094,107.824219 3899.58529,106.776042 3899.43555,105.578125 C3899.43555,104.380208 3898.98633,103.406901 3898.08789,102.658203 C3897.18945,101.759766 3896.14128,101.385417 3894.94336,101.535156 C3893.89518,101.535156 3892.99674,101.909505 3892.24805,102.658203 C3891.49935,103.406901 3891.05013,104.305339 3890.90039,105.353516 C3890.75065,105.353516 3890.67578,105.353516 3890.67578,105.353516 C3890.52604,105.353516 3890.3763,105.353516 3890.22656,105.353516 C3890.3763,104.155599 3890.90039,103.182292 3891.79883,102.433594 C3892.54753,101.535156 3893.5957,101.011068 3894.94336,100.861328 Z M3890.90039,106.027344 C3890.90039,106.326823 3890.90039,106.626302 3890.90039,106.925781 C3891.05013,107.075521 3891.125,107.30013 3891.125,107.599609 C3891.125,107.599609 3891.05013,107.599609 3890.90039,107.599609 C3890.75065,107.749349 3890.67578,107.824219 3890.67578,107.824219 C3890.52604,107.52474 3890.45117,107.22526 3890.45117,106.925781 C3890.30143,106.626302 3890.22656,106.401693 3890.22656,106.251953 C3890.22656,106.102214 3890.22656,105.952474 3890.22656,105.802734 C3890.22656,105.652995 3890.22656,105.578125 3890.22656,105.578125 C3890.3763,105.428385 3890.52604,105.353516 3890.67578,105.353516 C3890.67578,105.353516 3890.75065,105.353516 3890.90039,105.353516 C3890.90039,105.503255 3890.90039,105.652995 3890.90039,105.802734 C3890.90039,105.802734 3890.90039,105.877604 3890.90039,106.027344 Z M3894.94336,101.984375 C3895.0931,101.984375 3895.16797,101.984375 3895.16797,101.984375 C3895.31771,101.984375 3895.39258,101.984375 3895.39258,101.984375 C3895.39258,101.984375 3895.31771,101.984375 3895.16797,101.984375 C3895.16797,101.984375 3895.0931,101.984375 3894.94336,101.984375 Z M3894.94336,102.208984 C3894.04492,102.208984 3893.29622,102.508464 3892.69727,103.107422 C3891.94857,103.70638 3891.49935,104.380208 3891.34961,105.128906 C3891.34961,105.278646 3891.27474,105.353516 3891.125,105.353516 C3890.97526,105.353516 3890.90039,105.353516 3890.90039,105.353516 C3890.90039,104.305339 3891.34961,103.406901 3892.24805,102.658203 C3892.99674,102.059245 3893.89518,101.684896 3894.94336,101.535156 C3896.14128,101.535156 3897.18945,101.909505 3898.08789,102.658203 C3898.98633,103.406901 3899.43555,104.380208 3899.43555,105.578125 C3899.58529,106.776042 3899.21094,107.824219 3898.3125,108.722656 C3897.5638,109.621094 3896.59049,110.070312 3895.39258,110.070312 C3894.49414,110.220052 3893.67057,110.070312 3892.92188,109.621094 C3892.17318,109.022135 3891.57422,108.348307 3891.125,107.599609 C3891.27474,107.599609 3891.42448,107.599609 3891.57422,107.599609 C3891.57422,107.599609 3891.64909,107.52474 3891.79883,107.375 C3892.09831,108.123698 3892.54753,108.647786 3893.14648,108.947266 C3893.89518,109.396484 3894.64388,109.621094 3895.39258,109.621094 C3896.44076,109.471354 3897.26432,109.022135 3897.86328,108.273438 C3898.61198,107.52474 3898.98633,106.626302 3898.98633,105.578125 C3898.83659,104.529948 3898.38737,103.70638 3897.63867,103.107422 C3896.88997,102.358724 3895.99154,102.059245 3894.94336,102.208984 C3894.94336,102.059245 3894.94336,101.984375 3894.94336,101.984375 C3894.94336,101.984375 3894.94336,102.059245 3894.94336,102.208984 C3895.0931,102.208984 3895.16797,102.134115 3895.16797,101.984375 C3895.31771,101.984375 3895.39258,101.984375 3895.39258,101.984375 C3895.39258,101.984375 3895.31771,101.984375 3895.16797,101.984375 C3895.16797,102.134115 3895.0931,102.208984 3894.94336,102.208984 C3894.94336,102.208984 3894.94336,102.208984 3894.94336,102.208984 C3894.94336,102.208984 3894.94336,102.208984 3894.94336,102.208984 C3894.79362,102.208984 3894.71875,102.208984 3894.71875,102.208984 C3894.56901,102.208984 3894.49414,102.208984 3894.49414,102.208984 C3894.49414,102.208984 3894.56901,102.208984 3894.71875,102.208984 C3894.71875,102.208984 3894.79362,102.208984 3894.94336,102.208984 Z M3891.125,107.599609 C3891.125,107.30013 3891.05013,107.075521 3890.90039,106.925781 C3890.90039,106.626302 3890.90039,106.326823 3890.90039,106.027344 C3890.90039,105.877604 3890.90039,105.727865 3890.90039,105.578125 C3890.90039,105.578125 3890.90039,105.503255 3890.90039,105.353516 C3890.90039,105.353516 3890.97526,105.278646 3891.125,105.128906 C3891.27474,105.128906 3891.34961,105.128906 3891.34961,105.128906 C3891.34961,105.278646 3891.34961,105.428385 3891.34961,105.578125 C3891.34961,105.727865 3891.34961,105.877604 3891.34961,106.027344 C3891.34961,106.326823 3891.42448,106.551432 3891.57422,106.701172 C3891.57422,107.000651 3891.64909,107.22526 3891.79883,107.375 C3891.64909,107.52474 3891.57422,107.599609 3891.57422,107.599609 C3891.42448,107.599609 3891.27474,107.599609 3891.125,107.599609 Z M3946.1543,211.236328 C3947.05273,210.188151 3948.55013,208.690755 3950.64648,206.744141 C3951.0957,207.04362 3951.61979,207.567708 3952.21875,208.316406 C3950.42187,210.113281 3947.57682,212.958333 3943.68359,216.851562 C3943.68359,194.540365 3943.68359,180.223307 3943.68359,135.900391 C3943.98307,135.900391 3944.20768,135.900391 3944.35742,135.900391 C3944.50716,135.900391 3944.6569,135.900391 3944.80664,135.900391 C3945.10612,135.900391 3945.33073,135.900391 3945.48047,135.900391 C3945.63021,135.900391 3945.85482,135.900391 3946.1543,135.900391 C3946.1543,151.623047 3946.1543,167.345703 3946.1543,183.068359 C3946.1543,198.791016 3946.1543,195.513672 3946.1543,211.236328 Z M3949.07422,205.171875 C3951.61979,203.674479 3955.36328,201.503255 3960.30469,198.658203 C3958.80729,201.203776 3956.63607,204.947266 3953.79102,209.888672 C3953.49154,209.439453 3950,206.25 3949.07422,205.171875 Z M3940.53906,131.183594 C3940.53906,132.082031 3940.83854,132.905599 3941.4375,133.654297 C3942.03646,134.402995 3942.78516,134.927083 3943.68359,135.226562 C3943.68359,135.376302 3943.68359,135.600911 3943.68359,135.900391 C3942.63542,135.600911 3941.73698,135.001953 3940.98828,134.103516 C3940.38932,133.205078 3940.08984,132.231771 3940.08984,131.183594 C3940.08984,129.835938 3940.53906,128.638021 3941.4375,127.589844 C3942.33594,126.691406 3943.45898,126.242188 3944.80664,126.242188 C3946.1543,126.242188 3947.35221,126.691406 3948.40039,127.589844 C3949.29883,128.638021 3949.74805,129.835938 3949.74805,131.183594 C3949.74805,132.231771 3949.3737,133.205078 3948.625,134.103516 C3948.02604,135.001953 3947.20247,135.600911 3946.1543,135.900391 C3946.1543,135.750651 3946.1543,135.526042 3946.1543,135.226562 C3947.05273,134.927083 3947.80143,134.402995 3948.40039,133.654297 C3948.99935,132.905599 3949.29883,132.082031 3949.29883,131.183594 C3949.29883,129.985677 3948.84961,128.9375 3947.95117,128.039062 C3947.05273,127.140625 3946.00456,126.691406 3944.80664,126.691406 C3943.60872,126.691406 3942.63542,127.140625 3941.88672,128.039062 C3940.98828,128.9375 3940.53906,129.985677 3940.53906,131.183594 Z M3946.1543,135.900391 C3945.85482,135.900391 3945.63021,135.900391 3945.48047,135.900391 C3945.33073,135.900391 3945.10612,135.900391 3944.80664,135.900391 C3944.6569,135.900391 3944.50716,135.900391 3944.35742,135.900391 C3944.20768,135.900391 3943.98307,135.900391 3943.68359,135.900391 C3943.68359,135.750651 3943.68359,135.526042 3943.68359,135.226562 C3943.98307,135.226562 3944.20768,135.301432 3944.35742,135.451172 C3944.50716,135.451172 3944.6569,135.451172 3944.80664,135.451172 C3945.10612,135.451172 3945.33073,135.451172 3945.48047,135.451172 C3945.63021,135.301432 3945.85482,135.226562 3946.1543,135.226562 C3946.1543,135.376302 3946.1543,135.451172 3946.1543,135.451172 C3946.1543,135.600911 3946.1543,135.750651 3946.1543,135.900391 Z M3949.29883,131.183594 C3949.29883,132.082031 3948.99935,132.905599 3948.40039,133.654297 C3947.80143,134.402995 3947.05273,134.927083 3946.1543,135.226562 C3946.1543,135.076823 3946.1543,134.852214 3946.1543,134.552734 C3946.90299,134.402995 3947.50195,133.953776 3947.95117,133.205078 C3948.40039,132.60612 3948.625,131.932292 3948.625,131.183594 C3948.625,130.135417 3948.25065,129.236979 3947.50195,128.488281 C3946.75326,127.739583 3945.85482,127.365234 3944.80664,127.365234 C3943.9082,127.365234 3943.08464,127.739583 3942.33594,128.488281 C3941.58724,129.236979 3941.21289,130.135417 3941.21289,131.183594 C3941.21289,131.033854 3941.21289,130.884115 3941.21289,130.734375 C3941.21289,130.584635 3941.21289,130.509766 3941.21289,130.509766 C3941.21289,130.509766 3941.21289,130.584635 3941.21289,130.734375 C3941.21289,130.884115 3941.21289,131.033854 3941.21289,131.183594 C3941.21289,131.333333 3941.21289,131.483073 3941.21289,131.632812 C3941.21289,131.632812 3941.21289,131.632812 3941.21289,131.632812 C3941.21289,131.632812 3941.21289,131.632812 3941.21289,131.632812 C3941.21289,131.483073 3941.21289,131.333333 3941.21289,131.183594 C3941.21289,131.932292 3941.4375,132.60612 3941.88672,133.205078 C3942.33594,133.953776 3942.9349,134.402995 3943.68359,134.552734 C3943.68359,134.702474 3943.68359,134.927083 3943.68359,135.226562 C3942.78516,134.927083 3942.03646,134.402995 3941.4375,133.654297 C3940.83854,132.905599 3940.53906,132.082031 3940.53906,131.183594 C3940.53906,129.985677 3940.98828,128.9375 3941.88672,128.039062 C3942.63542,127.140625 3943.60872,126.691406 3944.80664,126.691406 C3946.00456,126.691406 3947.05273,127.140625 3947.95117,128.039062 C3948.84961,128.9375 3949.29883,129.985677 3949.29883,131.183594 Z M3944.80664,134.777344 C3945.10612,134.777344 3945.33073,134.777344 3945.48047,134.777344 C3945.63021,134.777344 3945.85482,134.702474 3946.1543,134.552734 C3946.1543,134.702474 3946.1543,134.927083 3946.1543,135.226562 C3945.85482,135.226562 3945.63021,135.301432 3945.48047,135.451172 C3945.33073,135.451172 3945.10612,135.451172 3944.80664,135.451172 C3944.6569,135.451172 3944.50716,135.451172 3944.35742,135.451172 C3944.20768,135.301432 3943.98307,135.226562 3943.68359,135.226562 C3943.68359,135.076823 3943.68359,134.852214 3943.68359,134.552734 C3943.98307,134.702474 3944.20768,134.777344 3944.35742,134.777344 C3944.50716,134.777344 3944.6569,134.777344 3944.80664,134.777344 Z M3907.9707,93 C3908.12044,93.1497396 3908.19531,93.2246094 3908.19531,93.2246094 C3908.34505,93.374349 3908.41992,93.4492188 3908.41992,93.4492188 C3908.41992,93.5989583 3908.41992,93.6738281 3908.41992,93.6738281 C3908.56966,93.8235677 3908.64453,93.8984375 3908.64453,93.8984375 C3908.64453,95.8450521 3908.64453,98.1660156 3908.64453,100.861328 C3908.64453,103.70638 3908.64453,107.000651 3908.64453,110.744141 C3908.64453,110.744141 3908.56966,110.81901 3908.41992,110.96875 C3908.41992,111.11849 3908.34505,111.268229 3908.19531,111.417969 C3908.19531,111.417969 3908.12044,111.492839 3907.9707,111.642578 C3907.82096,111.642578 3907.67122,111.642578 3907.52148,111.642578 C3907.52148,111.642578 3907.44661,111.642578 3907.29688,111.642578 C3907.14714,111.492839 3906.9974,111.417969 3906.84766,111.417969 C3906.84766,111.268229 3906.77279,111.11849 3906.62305,110.96875 C3906.62305,110.96875 3906.62305,110.89388 3906.62305,110.744141 C3906.62305,109.097005 3906.62305,107.075521 3906.62305,104.679688 C3906.62305,102.283854 3906.62305,99.5136719 3906.62305,96.3691406 C3906.62305,96.3691406 3906.54818,96.4440104 3906.39844,96.59375 C3906.2487,96.7434896 3906.09896,96.8932292 3905.94922,97.0429688 C3905.79948,97.1927083 3905.72461,97.2675781 3905.72461,97.2675781 C3905.57487,97.2675781 3905.42513,97.2675781 3905.27539,97.2675781 C3905.12565,97.2675781 3904.97591,97.2675781 3904.82617,97.2675781 C3904.82617,97.2675781 3904.7513,97.1927083 3904.60156,97.0429688 C3904.45182,96.8932292 3904.37695,96.8183594 3904.37695,96.8183594 C3904.37695,96.6686198 3904.37695,96.5188802 3904.37695,96.3691406 C3904.37695,96.219401 3904.37695,96.0696615 3904.37695,95.9199219 C3904.37695,95.9199219 3904.45182,95.8450521 3904.60156,95.6953125 C3904.90104,95.3958333 3905.20052,95.0214844 3905.5,94.5722656 C3905.94922,94.2727865 3906.39844,93.8235677 3906.84766,93.2246094 C3906.9974,93.2246094 3907.07227,93.2246094 3907.07227,93.2246094 C3907.22201,93.0748698 3907.37174,93 3907.52148,93 C3907.52148,93 3907.52148,93 3907.52148,93 C3907.52148,93 3907.52148,93 3907.52148,93 C3907.67122,93 3907.74609,93 3907.74609,93 C3907.89583,93 3907.9707,93 3907.9707,93 Z M3965.69531,147.130859 C3965.84505,147.130859 3965.99479,147.130859 3966.14453,147.130859 C3966.29427,147.130859 3966.36914,147.205729 3966.36914,147.355469 C3966.51888,147.355469 3966.59375,147.430339 3966.59375,147.580078 C3966.74349,147.729818 3966.81836,147.879557 3966.81836,148.029297 C3966.81836,148.179036 3966.74349,148.253906 3966.59375,148.253906 C3966.59375,148.403646 3966.51888,148.553385 3966.36914,148.703125 C3966.36914,148.703125 3966.29427,148.777995 3966.14453,148.927734 C3965.99479,148.927734 3965.84505,148.927734 3965.69531,148.927734 C3964.94661,148.927734 3964.19792,148.927734 3963.44922,148.927734 C3962.70052,148.927734 3961.95182,148.927734 3961.20312,148.927734 C3960.30469,148.927734 3959.48112,148.927734 3958.73242,148.927734 C3957.98372,148.927734 3957.23503,148.927734 3956.48633,148.927734 C3956.33659,148.927734 3956.26172,148.927734 3956.26172,148.927734 C3956.11198,148.927734 3956.03711,148.927734 3956.03711,148.927734 C3956.03711,148.927734 3955.96224,148.852865 3955.8125,148.703125 C3955.8125,148.703125 3955.73763,148.703125 3955.58789,148.703125 C3955.58789,148.553385 3955.58789,148.478516 3955.58789,148.478516 C3955.58789,148.478516 3955.58789,148.403646 3955.58789,148.253906 C3955.43815,148.253906 3955.36328,148.253906 3955.36328,148.253906 C3955.36328,148.104167 3955.36328,148.029297 3955.36328,148.029297 C3955.36328,148.029297 3955.36328,148.029297 3955.36328,148.029297 C3955.36328,147.879557 3955.36328,147.804688 3955.36328,147.804688 C3955.36328,147.804688 3955.43815,147.729818 3955.58789,147.580078 C3955.58789,147.280599 3955.66276,146.90625 3955.8125,146.457031 C3955.8125,146.007812 3955.96224,145.558594 3956.26172,145.109375 C3956.41146,144.510417 3956.71094,143.986328 3957.16016,143.537109 C3957.3099,143.23763 3957.53451,142.938151 3957.83398,142.638672 C3957.98372,142.339193 3958.20833,141.964844 3958.50781,141.515625 C3958.80729,141.216146 3959.18164,140.991536 3959.63086,140.841797 C3959.93034,140.542318 3960.30469,140.242839 3960.75391,139.943359 C3961.5026,139.344401 3962.17643,138.820312 3962.77539,138.371094 C3963.22461,137.921875 3963.59896,137.547526 3963.89844,137.248047 C3964.04818,136.798828 3964.19792,136.424479 3964.34766,136.125 C3964.4974,135.825521 3964.57227,135.526042 3964.57227,135.226562 C3964.57227,135.076823 3964.57227,134.927083 3964.57227,134.777344 C3964.57227,134.777344 3964.57227,134.702474 3964.57227,134.552734 C3964.57227,134.402995 3964.4974,134.328125 3964.34766,134.328125 C3964.34766,134.178385 3964.34766,134.028646 3964.34766,133.878906 C3964.19792,133.729167 3964.04818,133.504557 3963.89844,133.205078 C3963.7487,133.055339 3963.52409,132.905599 3963.22461,132.755859 C3963.07487,132.60612 3962.77539,132.53125 3962.32617,132.53125 C3962.02669,132.38151 3961.65234,132.306641 3961.20312,132.306641 C3960.75391,132.306641 3960.37956,132.306641 3960.08008,132.306641 C3959.7806,132.45638 3959.48112,132.60612 3959.18164,132.755859 C3958.88216,132.905599 3958.65755,133.130208 3958.50781,133.429688 C3958.35807,133.579427 3958.20833,133.804036 3958.05859,134.103516 C3957.90885,134.253255 3957.83398,134.402995 3957.83398,134.552734 C3957.68424,134.552734 3957.53451,134.627604 3957.38477,134.777344 C3957.23503,134.777344 3957.16016,134.777344 3957.16016,134.777344 C3957.01042,134.777344 3956.86068,134.702474 3956.71094,134.552734 C3956.5612,134.552734 3956.48633,134.552734 3956.48633,134.552734 C3956.33659,134.402995 3956.26172,134.253255 3956.26172,134.103516 C3956.11198,133.953776 3956.03711,133.804036 3956.03711,133.654297 C3956.03711,133.654297 3956.11198,133.579427 3956.26172,133.429688 C3956.41146,132.830729 3956.71094,132.38151 3957.16016,132.082031 C3957.45964,131.632812 3957.75911,131.333333 3958.05859,131.183594 C3958.50781,130.884115 3958.95703,130.659505 3959.40625,130.509766 C3960.00521,130.360026 3960.60417,130.285156 3961.20312,130.285156 C3962.10156,130.285156 3962.92513,130.434896 3963.67383,130.734375 C3964.27279,131.033854 3964.79688,131.408203 3965.24609,131.857422 C3965.69531,132.45638 3965.99479,132.980469 3966.14453,133.429688 C3966.44401,134.028646 3966.59375,134.627604 3966.59375,135.226562 C3966.59375,135.825521 3966.44401,136.424479 3966.14453,137.023438 C3965.99479,137.472656 3965.77018,137.996745 3965.4707,138.595703 C3965.02148,139.044922 3964.4974,139.56901 3963.89844,140.167969 C3963.29948,140.617188 3962.55078,141.066406 3961.65234,141.515625 C3961.05339,141.964844 3960.5293,142.414062 3960.08008,142.863281 C3959.48112,143.46224 3959.0319,143.986328 3958.73242,144.435547 C3958.43294,144.884766 3958.20833,145.333984 3958.05859,145.783203 C3957.90885,146.232422 3957.75911,146.681641 3957.60938,147.130859 C3958.50781,147.130859 3959.63086,147.130859 3960.97852,147.130859 C3962.32617,147.130859 3963.89844,147.130859 3965.69531,147.130859 Z" transform="translate(-3851)"/></svg>