<svg xmlns="http://www.w3.org/2000/svg" width="67.986" height="203" viewBox="0 0 67.986 203"><path d="M1012 98.306C1008 98.306 1006.5 94.056 1006.233 91.89L1000.233 52.102C1000.233 48.698 1000.862 46.33 1002.12 44.998 1003.378 43.666 1005.413 43 1008.225 43 1011.037 43 1013.072 43.629 1014.33 44.887 1015.588 46.145 1016.217 48.624 1016.217 52.324L1018.217 91.668C1018.25 94.556 1016 98.306 1012 98.306ZM1028 98.306C1024.25 98.306 1022.25 94.806 1022.233 91.89L1024.233 52.102C1024.233 48.698 1024.862 46.33 1026.12 44.998 1027.378 43.666 1029.413 43 1032.225 43 1035.037 43 1037.072 43.629 1038.33 44.887 1039.588 46.145 1040.217 48.624 1040.217 52.324L1034.217 91.668C1033.75 95.056 1031.75 98.306 1028 98.306Z" transform="translate(-986.514 -.056)"/></svg>