<svg xmlns="http://www.w3.org/2000/svg" width="120" height="203" viewBox="0 0 120 203"><path fill="#131313" d="M3647.26684,190.492188 C3648.64053,191.865885 3649.32738,193.583008 3649.32738,195.643555 C3649.32738,197.704102 3648.64053,199.489909 3647.26684,201.000977 C3646.44262,201.687826 3645.6184,202.237305 3644.79418,202.649414 C3643.83259,202.924154 3642.871,203.061523 3641.90941,203.061523 C3640.94783,203.061523 3639.98624,202.924154 3639.02465,202.649414 C3638.20043,202.237305 3637.37621,201.687826 3636.55199,201.000977 C3623.50186,187.813477 3603.85798,168.032227 3577.62035,141.657227 C3577.62035,153.745768 3577.62035,171.741211 3577.62035,195.643555 C3577.62035,197.704102 3576.86482,199.489909 3575.35375,201.000977 C3573.98005,202.374674 3572.26293,203.061523 3570.20238,203.061523 C3568.14184,203.061523 3566.35603,202.374674 3564.84496,201.000977 C3563.33389,199.489909 3562.57836,197.704102 3562.57836,195.643555 C3562.57836,167.345378 3562.57836,124.898112 3562.57836,68.3017578 C3562.57836,66.2412109 3563.33389,64.4554036 3564.84496,62.9443359 C3566.35603,61.570638 3568.14184,60.8837891 3570.20238,60.8837891 C3576.38402,60.8837891 3585.65648,60.8837891 3598.01977,60.8837891 C3606.67406,60.8837891 3614.57283,62.6695964 3621.71605,66.2412109 C3628.99665,69.9501953 3634.62882,74.9641927 3638.61254,81.2832031 C3641.90941,86.640625 3643.62654,92.4101563 3643.76391,98.5917969 C3643.90128,104.773438 3642.45889,111.023763 3639.43676,117.342773 C3636.27725,123.524414 3631.26326,128.538411 3624.39477,132.384766 C3617.38891,136.23112 3608.52855,138.841146 3597.81371,140.214844 C3597.81371,140.214844 3597.74503,140.214844 3597.60766,140.214844 C3597.47029,140.214844 3597.4016,140.283529 3597.4016,140.420898 C3605.64379,148.663086 3613.95466,156.973958 3622.33422,165.353516 C3630.57641,173.733073 3638.88728,182.11263 3647.26684,190.492188 Z M3626.12133,89.1914063 C3623.5113,85.0703125 3619.73363,81.8421224 3614.78832,79.5068359 C3609.84301,77.0341797 3604.34822,75.7978516 3598.30395,75.7978516 C3593.77074,75.7978516 3586.97094,75.7978516 3577.90453,75.7978516 C3577.90453,87.0621745 3577.90453,103.958659 3577.90453,126.487305 C3582.84984,126.624674 3588.61938,126.349935 3595.21313,125.663086 C3601.80688,124.976237 3607.85115,123.533854 3613.34594,121.335938 C3616.2307,120.099609 3618.84073,118.588542 3621.17602,116.802734 C3623.37393,115.154297 3625.09105,113.09375 3626.32738,110.621094 C3628.25056,106.77474 3629.21215,103.065755 3629.21215,99.4941406 C3629.07478,95.7851563 3628.04451,92.3509115 3626.12133,89.1914063 Z M3622.41234,149.771484 C3627.76977,155.128906 3635.73721,163.096354 3646.31469,173.673828 C3645.90258,174.085938 3645.42178,174.635417 3644.8723,175.322266 C3639.51488,169.964844 3631.54743,161.928711 3620.96996,151.213867 C3621.10733,151.213867 3621.2447,151.145182 3621.38207,151.007812 C3621.51944,150.870443 3621.65681,150.733073 3621.79418,150.595703 C3621.93155,150.458333 3622.06892,150.320964 3622.20629,150.183594 C3622.20629,150.046224 3622.27497,149.908854 3622.41234,149.771484 Z M3615.81859,150.183594 C3616.36807,150.870443 3617.12361,151.282552 3618.0852,151.419922 C3618.90941,151.557292 3619.73363,151.351237 3620.55785,150.801758 C3620.69522,150.939128 3620.83259,151.076497 3620.96996,151.213867 C3620.00837,151.763346 3619.04678,151.969401 3618.0852,151.832031 C3617.12361,151.832031 3616.2307,151.419922 3615.40648,150.595703 C3614.58227,149.771484 3614.17016,148.741211 3614.17016,147.504883 C3614.17016,146.268555 3614.58227,145.169596 3615.40648,144.208008 C3616.36807,143.383789 3617.46703,142.97168 3618.70336,142.97168 C3619.93969,142.97168 3620.96996,143.383789 3621.79418,144.208008 C3622.48103,145.032227 3622.89314,145.92513 3623.03051,146.886719 C3623.16788,147.985677 3622.96182,148.947266 3622.41234,149.771484 C3622.27497,149.771484 3622.1376,149.634115 3622.00023,149.359375 C3622.41234,148.672526 3622.54971,147.848307 3622.41234,146.886719 C3622.41234,146.0625 3622.06892,145.306966 3621.38207,144.620117 C3620.55785,143.933268 3619.59626,143.589844 3618.4973,143.589844 C3617.39835,143.589844 3616.50544,143.933268 3615.81859,144.620117 C3614.99438,145.444336 3614.58227,146.405924 3614.58227,147.504883 C3614.58227,148.603841 3614.99438,149.496745 3615.81859,150.183594 Z M3622.41234,149.771484 C3622.27497,149.908854 3622.20629,150.046224 3622.20629,150.183594 C3622.06892,150.320964 3621.93155,150.458333 3621.79418,150.595703 C3621.65681,150.733073 3621.51944,150.870443 3621.38207,151.007812 C3621.2447,151.145182 3621.10733,151.213867 3620.96996,151.213867 C3620.83259,151.213867 3620.69522,151.145182 3620.55785,151.007812 C3620.69522,150.870443 3620.83259,150.733073 3620.96996,150.595703 C3621.10733,150.458333 3621.2447,150.320964 3621.38207,150.183594 C3621.51944,150.046224 3621.65681,149.908854 3621.79418,149.771484 C3621.93155,149.634115 3622.00023,149.496745 3622.00023,149.359375 C3622.1376,149.496745 3622.20629,149.56543 3622.20629,149.56543 C3622.34366,149.702799 3622.41234,149.771484 3622.41234,149.771484 Z M3621.17602,145.238281 C3621.17602,145.238281 3621.17602,145.238281 3621.17602,145.238281 C3621.31339,145.238281 3621.38207,145.238281 3621.38207,145.238281 C3621.38207,145.238281 3621.31339,145.238281 3621.17602,145.238281 C3621.17602,145.238281 3621.17602,145.238281 3621.17602,145.238281 Z M3621.38207,144.620117 C3622.06892,145.306966 3622.48103,146.0625 3622.6184,146.886719 C3622.6184,147.848307 3622.41234,148.672526 3622.00023,149.359375 C3621.86286,149.222005 3621.72549,149.084635 3621.58813,148.947266 C3622.00023,148.397786 3622.1376,147.710938 3622.00023,146.886719 C3621.86286,146.19987 3621.51944,145.581706 3620.96996,145.032227 C3621.10733,145.032227 3621.17602,145.032227 3621.17602,145.032227 C3621.17602,145.169596 3621.17602,145.238281 3621.17602,145.238281 C3621.17602,145.238281 3621.17602,145.238281 3621.17602,145.238281 C3621.31339,145.238281 3621.38207,145.238281 3621.38207,145.238281 C3621.38207,145.238281 3621.31339,145.238281 3621.17602,145.238281 C3621.17602,145.238281 3621.17602,145.238281 3621.17602,145.238281 C3621.17602,145.238281 3621.17602,145.169596 3621.17602,145.032227 C3621.17602,145.032227 3621.10733,145.032227 3620.96996,145.032227 C3620.28311,144.345378 3619.52758,144.001953 3618.70336,144.001953 C3617.74177,144.001953 3616.91755,144.345378 3616.2307,145.032227 C3615.54385,145.719076 3615.20043,146.543294 3615.20043,147.504883 C3615.20043,148.466471 3615.54385,149.222005 3616.2307,149.771484 C3616.78018,150.320964 3617.39835,150.664388 3618.0852,150.801758 C3618.77204,150.939128 3619.45889,150.801758 3620.14574,150.389648 C3620.28311,150.527018 3620.42048,150.664388 3620.55785,150.801758 C3619.73363,151.213867 3618.90941,151.419922 3618.0852,151.419922 C3617.26098,151.282552 3616.50544,150.870443 3615.81859,150.183594 C3614.99438,149.496745 3614.58227,148.603841 3614.58227,147.504883 C3614.58227,146.405924 3614.99438,145.444336 3615.81859,144.620117 C3616.64281,143.795898 3617.6044,143.383789 3618.70336,143.383789 C3619.80232,143.383789 3620.69522,143.795898 3621.38207,144.620117 Z M3620.96996,149.977539 C3621.10733,149.840169 3621.2447,149.702799 3621.38207,149.56543 C3621.51944,149.29069 3621.58813,149.084635 3621.58813,148.947266 C3621.72549,149.084635 3621.86286,149.222005 3622.00023,149.359375 C3621.86286,149.496745 3621.79418,149.634115 3621.79418,149.771484 C3621.65681,149.908854 3621.51944,150.046224 3621.38207,150.183594 C3621.2447,150.320964 3621.10733,150.458333 3620.96996,150.595703 C3620.83259,150.733073 3620.69522,150.801758 3620.55785,150.801758 C3620.42048,150.801758 3620.28311,150.733073 3620.14574,150.595703 C3620.28311,150.458333 3620.42048,150.320964 3620.55785,150.183594 C3620.69522,150.183594 3620.83259,150.114909 3620.96996,149.977539 Z M3643.42992,176.764648 C3643.70466,176.352539 3644.18546,175.871745 3644.8723,175.322266 C3645.14704,175.597005 3645.62784,176.077799 3646.31469,176.764648 C3646.58943,176.352539 3647.07022,175.871745 3647.75707,175.322266 C3647.48233,174.910156 3647.00154,174.360677 3646.31469,173.673828 C3646.58943,173.399089 3647.07022,172.986979 3647.75707,172.4375 C3648.9934,174.635417 3650.91658,178.000977 3653.5266,182.53418 C3651.32868,181.297852 3647.96313,179.374674 3643.42992,176.764648 Z M3644.8723,175.322266 C3645.14704,174.910156 3645.62784,174.360677 3646.31469,173.673828 C3646.58943,174.085938 3647.07022,174.635417 3647.75707,175.322266 C3647.48233,175.597005 3647.00154,176.077799 3646.31469,176.764648 C3645.90258,176.352539 3645.42178,175.871745 3644.8723,175.322266 Z M3638.27855,66.7314453 C3633.19587,61.9235026 3627.1516,58.1458333 3620.14574,55.3984375 C3613.13988,52.7884115 3605.7906,51.4833984 3598.09789,51.4833984 C3593.83943,51.4833984 3587.52042,51.4833984 3579.14086,51.4833984 C3579.14086,51.3460286 3579.14086,51.139974 3579.14086,50.8652344 C3579.14086,50.7278646 3579.14086,50.5904948 3579.14086,50.453125 C3579.14086,50.1783854 3579.14086,49.9723307 3579.14086,49.8349609 C3579.14086,49.6975911 3579.14086,49.4915365 3579.14086,49.2167969 C3583.26195,49.2167969 3589.58096,49.2167969 3598.09789,49.2167969 C3606.20271,49.2167969 3613.89542,50.6591797 3621.17602,53.5439453 C3628.31924,56.2913411 3634.56957,60.2750651 3639.92699,65.4951172 C3639.65225,65.7698568 3639.37751,65.9759115 3639.10277,66.1132812 C3638.82803,66.3880208 3638.55329,66.5940755 3638.27855,66.7314453 Z M3574.60766,54.3681641 C3575.56924,54.3681641 3576.39346,54.0934245 3577.08031,53.5439453 C3577.76716,52.9944661 3578.24796,52.3076172 3578.5227,51.4833984 C3578.66007,51.4833984 3578.86612,51.4833984 3579.14086,51.4833984 C3578.86612,52.444987 3578.31664,53.2692057 3577.49242,53.9560547 C3576.6682,54.5055339 3575.70661,54.7802734 3574.60766,54.7802734 C3573.37133,54.7802734 3572.34105,54.3681641 3571.51684,53.5439453 C3570.69262,52.7197266 3570.28051,51.6894531 3570.28051,50.453125 C3570.28051,49.2167969 3570.69262,48.1178385 3571.51684,47.15625 C3572.34105,46.3320312 3573.37133,45.9199219 3574.60766,45.9199219 C3575.70661,45.9199219 3576.6682,46.2633464 3577.49242,46.9501953 C3578.31664,47.4996745 3578.86612,48.2552083 3579.14086,49.2167969 C3579.00349,49.2167969 3578.79743,49.2167969 3578.5227,49.2167969 C3578.24796,48.3925781 3577.76716,47.7057292 3577.08031,47.15625 C3576.39346,46.6067708 3575.56924,46.3320312 3574.60766,46.3320312 C3573.5087,46.3320312 3572.61579,46.7441406 3571.92895,47.5683594 C3571.10473,48.3925781 3570.69262,49.3541667 3570.69262,50.453125 C3570.69262,51.5520833 3571.10473,52.444987 3571.92895,53.1318359 C3572.61579,53.9560547 3573.5087,54.3681641 3574.60766,54.3681641 Z M3579.14086,49.2167969 C3579.14086,49.4915365 3579.14086,49.6975911 3579.14086,49.8349609 C3579.14086,49.9723307 3579.14086,50.1783854 3579.14086,50.453125 C3579.14086,50.5904948 3579.14086,50.7278646 3579.14086,50.8652344 C3579.14086,51.139974 3579.14086,51.3460286 3579.14086,51.4833984 C3579.00349,51.4833984 3578.79743,51.4833984 3578.5227,51.4833984 C3578.5227,51.3460286 3578.5227,51.139974 3578.5227,50.8652344 C3578.66007,50.7278646 3578.72875,50.5904948 3578.72875,50.453125 C3578.72875,50.1783854 3578.66007,49.9723307 3578.5227,49.8349609 C3578.5227,49.6975911 3578.5227,49.4915365 3578.5227,49.2167969 C3578.66007,49.2167969 3578.72875,49.2167969 3578.72875,49.2167969 C3578.86612,49.2167969 3579.00349,49.2167969 3579.14086,49.2167969 Z M3574.60766,46.3320312 C3575.56924,46.3320312 3576.39346,46.6067708 3577.08031,47.15625 C3577.76716,47.7057292 3578.24796,48.3925781 3578.5227,49.2167969 C3578.38533,49.2167969 3578.17927,49.2167969 3577.90453,49.2167969 C3577.76716,48.5299479 3577.35505,47.9804688 3576.6682,47.5683594 C3576.11872,47.15625 3575.43188,46.9501953 3574.60766,46.9501953 C3574.8824,46.9501953 3575.01977,46.9501953 3575.01977,46.9501953 C3575.15714,46.9501953 3575.22582,46.9501953 3575.22582,46.9501953 C3575.22582,46.9501953 3575.15714,46.9501953 3575.01977,46.9501953 C3575.01977,46.9501953 3574.8824,46.9501953 3574.60766,46.9501953 C3574.47029,46.9501953 3574.33292,46.9501953 3574.19555,46.9501953 C3574.19555,46.9501953 3574.19555,46.9501953 3574.19555,46.9501953 C3574.19555,46.9501953 3574.19555,46.9501953 3574.19555,46.9501953 C3574.33292,46.9501953 3574.47029,46.9501953 3574.60766,46.9501953 C3573.78344,46.9501953 3573.0279,47.2936198 3572.34105,47.9804688 C3571.65421,48.6673177 3571.31078,49.4915365 3571.31078,50.453125 C3571.31078,51.4147135 3571.65421,52.1702474 3572.34105,52.7197266 C3573.0279,53.4065755 3573.78344,53.75 3574.60766,53.75 C3575.43188,53.75 3576.11872,53.5439453 3576.6682,53.1318359 C3577.35505,52.7197266 3577.76716,52.1702474 3577.90453,51.4833984 C3578.0419,51.4833984 3578.24796,51.4833984 3578.5227,51.4833984 C3578.24796,52.3076172 3577.76716,52.9944661 3577.08031,53.5439453 C3576.39346,54.0934245 3575.56924,54.3681641 3574.60766,54.3681641 C3573.5087,54.3681641 3572.61579,53.9560547 3571.92895,53.1318359 C3571.10473,52.444987 3570.69262,51.5520833 3570.69262,50.453125 C3570.69262,49.3541667 3571.10473,48.3925781 3571.92895,47.5683594 C3572.61579,46.7441406 3573.5087,46.3320312 3574.60766,46.3320312 Z M3578.11059,50.453125 C3578.11059,50.1783854 3578.11059,49.9723307 3578.11059,49.8349609 C3578.11059,49.6975911 3578.0419,49.4915365 3577.90453,49.2167969 C3578.0419,49.2167969 3578.24796,49.2167969 3578.5227,49.2167969 C3578.5227,49.4915365 3578.5227,49.6975911 3578.5227,49.8349609 C3578.66007,49.9723307 3578.72875,50.1783854 3578.72875,50.453125 C3578.72875,50.5904948 3578.66007,50.7278646 3578.5227,50.8652344 C3578.5227,51.139974 3578.5227,51.3460286 3578.5227,51.4833984 C3578.38533,51.4833984 3578.17927,51.4833984 3577.90453,51.4833984 C3578.0419,51.3460286 3578.11059,51.139974 3578.11059,50.8652344 C3578.11059,50.7278646 3578.11059,50.5904948 3578.11059,50.453125 Z M3639.72094,68.3798828 C3640.13305,68.1051432 3640.68253,67.624349 3641.36938,66.9375 C3641.09464,66.6627604 3640.8199,66.3880208 3640.54516,66.1132812 C3640.40779,65.9759115 3640.20173,65.7698568 3639.92699,65.4951172 C3640.20173,65.2203776 3640.75121,64.8082682 3641.57543,64.2587891 C3642.67439,66.5940755 3644.25414,70.1656901 3646.31469,74.9736328 C3644.11677,73.4625651 3640.95727,71.1272786 3636.83617,67.9677734 C3637.11091,67.6930339 3637.59171,67.2809245 3638.27855,66.7314453 C3638.55329,67.0061849 3638.75935,67.2809245 3638.89672,67.5556641 C3639.17146,67.8304036 3639.4462,68.1051432 3639.72094,68.3798828 Z M3639.72094,68.3798828 C3639.4462,68.1051432 3639.17146,67.8304036 3638.89672,67.5556641 C3638.62198,67.2809245 3638.41592,67.0061849 3638.27855,66.7314453 C3638.55329,66.4567057 3639.10277,66.0445964 3639.92699,65.4951172 C3640.20173,65.7698568 3640.40779,65.9759115 3640.54516,66.1132812 C3640.8199,66.3880208 3641.09464,66.6627604 3641.36938,66.9375 C3641.09464,67.2122396 3640.8199,67.4182943 3640.54516,67.5556641 C3640.27042,67.8304036 3639.99568,68.1051432 3639.72094,68.3798828 Z M3552.76586,75.5917969 C3552.76586,81.6360677 3552.76586,90.6337891 3552.76586,102.584961 C3553.17797,102.584961 3553.86482,102.584961 3554.82641,102.584961 C3554.82641,96.6780599 3554.82641,87.6803385 3554.82641,75.5917969 C3554.68904,75.7291667 3554.48298,75.7978516 3554.20824,75.7978516 C3554.07087,75.7978516 3553.9335,75.7978516 3553.79613,75.7978516 C3553.52139,75.7978516 3553.31534,75.7978516 3553.17797,75.7978516 C3553.0406,75.7978516 3552.90323,75.7291667 3552.76586,75.5917969 Z M3552.76586,104.645508 C3552.76586,104.233398 3552.76586,103.546549 3552.76586,102.584961 C3552.21638,102.584961 3551.52953,102.584961 3550.70531,102.584961 C3551.39216,105.194987 3552.42243,109.041341 3553.79613,114.124023 C3554.48298,111.513997 3555.51326,107.667643 3556.88695,102.584961 C3556.33747,102.584961 3555.65063,102.584961 3554.82641,102.584961 C3554.82641,103.13444 3554.82641,103.821289 3554.82641,104.645508 C3554.27693,104.645508 3553.59008,104.645508 3552.76586,104.645508 Z M3552.76586,104.645508 C3553.17797,104.645508 3553.86482,104.645508 3554.82641,104.645508 C3554.82641,104.233398 3554.82641,103.546549 3554.82641,102.584961 C3554.27693,102.584961 3553.59008,102.584961 3552.76586,102.584961 C3552.76586,103.13444 3552.76586,103.821289 3552.76586,104.645508 Z M3553.79613,67.3496094 C3554.89509,67.3496094 3555.78799,67.7617188 3556.47484,68.5859375 C3557.29906,69.2727865 3557.71117,70.1656901 3557.71117,71.2646484 C3557.71117,72.226237 3557.43643,73.0504557 3556.88695,73.7373047 C3556.33747,74.4241536 3555.65063,74.9049479 3554.82641,75.1796875 C3554.82641,75.3170573 3554.82641,75.4544271 3554.82641,75.5917969 C3555.78799,75.4544271 3556.61221,74.9736328 3557.29906,74.1494141 C3557.98591,73.3251953 3558.32934,72.3636068 3558.32934,71.2646484 C3558.32934,70.0283203 3557.84854,68.9980469 3556.88695,68.1738281 C3556.06273,67.2122396 3555.03246,66.7314453 3553.79613,66.7314453 C3552.5598,66.7314453 3551.46085,67.2122396 3550.49926,68.1738281 C3549.67504,68.9980469 3549.26293,70.0283203 3549.26293,71.2646484 C3549.26293,72.3636068 3549.60635,73.3251953 3550.2932,74.1494141 C3550.84268,74.9736328 3551.6669,75.4544271 3552.76586,75.5917969 C3552.76586,75.4544271 3552.76586,75.3170573 3552.76586,75.1796875 C3551.94164,74.9049479 3551.25479,74.4241536 3550.70531,73.7373047 C3550.01846,73.0504557 3549.67504,72.226237 3549.67504,71.2646484 C3549.67504,70.1656901 3550.08715,69.2727865 3550.91137,68.5859375 C3551.73559,67.7617188 3552.69717,67.3496094 3553.79613,67.3496094 Z M3554.82641,75.1796875 C3554.68904,75.1796875 3554.48298,75.1796875 3554.20824,75.1796875 C3554.07087,75.3170573 3553.9335,75.3857422 3553.79613,75.3857422 C3553.52139,75.3857422 3553.31534,75.3170573 3553.17797,75.1796875 C3553.0406,75.1796875 3552.90323,75.1796875 3552.76586,75.1796875 C3552.76586,75.3170573 3552.76586,75.4544271 3552.76586,75.5917969 C3552.90323,75.7291667 3553.0406,75.7978516 3553.17797,75.7978516 C3553.31534,75.7978516 3553.52139,75.7978516 3553.79613,75.7978516 C3553.9335,75.7978516 3554.07087,75.7978516 3554.20824,75.7978516 C3554.48298,75.7978516 3554.68904,75.7291667 3554.82641,75.5917969 C3554.82641,75.5917969 3554.82641,75.523112 3554.82641,75.3857422 C3554.82641,75.2483724 3554.82641,75.1796875 3554.82641,75.1796875 Z M3553.79613,67.3496094 C3552.69717,67.3496094 3551.73559,67.7617188 3550.91137,68.5859375 C3550.08715,69.2727865 3549.67504,70.1656901 3549.67504,71.2646484 C3549.67504,72.226237 3550.01846,73.0504557 3550.70531,73.7373047 C3551.25479,74.4241536 3551.94164,74.9049479 3552.76586,75.1796875 C3552.76586,75.0423177 3552.76586,74.836263 3552.76586,74.5615234 C3552.07901,74.2867839 3551.46085,73.8746745 3550.91137,73.3251953 C3550.49926,72.7757161 3550.2932,72.0888672 3550.2932,71.2646484 C3550.2932,71.4020182 3550.2932,71.539388 3550.2932,71.6767578 C3550.2932,71.8141276 3550.2932,71.8828125 3550.2932,71.8828125 C3550.2932,71.8828125 3550.2932,71.8141276 3550.2932,71.6767578 C3550.2932,71.539388 3550.2932,71.4020182 3550.2932,71.2646484 C3550.2932,71.1272786 3550.2932,70.9899089 3550.2932,70.8525391 C3550.2932,70.7151693 3550.2932,70.7151693 3550.2932,70.8525391 C3550.2932,70.7151693 3550.2932,70.7151693 3550.2932,70.8525391 C3550.2932,70.9899089 3550.2932,71.1272786 3550.2932,71.2646484 C3550.2932,70.3030599 3550.63663,69.4788411 3551.32348,68.7919922 C3552.01033,68.242513 3552.83454,67.9677734 3553.79613,67.9677734 C3554.75772,67.9677734 3555.58194,68.242513 3556.26879,68.7919922 C3556.81827,69.4788411 3557.09301,70.3030599 3557.09301,71.2646484 C3557.09301,72.0888672 3556.88695,72.7757161 3556.47484,73.3251953 C3556.06273,73.8746745 3555.51326,74.2867839 3554.82641,74.5615234 C3554.82641,74.6988932 3554.82641,74.9049479 3554.82641,75.1796875 C3555.65063,74.9049479 3556.33747,74.4241536 3556.88695,73.7373047 C3557.43643,73.0504557 3557.71117,72.226237 3557.71117,71.2646484 C3557.71117,70.1656901 3557.29906,69.2727865 3556.47484,68.5859375 C3555.78799,67.7617188 3554.89509,67.3496094 3553.79613,67.3496094 Z M3552.76586,74.5615234 C3552.76586,74.6988932 3552.76586,74.9049479 3552.76586,75.1796875 C3552.90323,75.1796875 3553.0406,75.1796875 3553.17797,75.1796875 C3553.31534,75.1796875 3553.52139,75.1796875 3553.79613,75.1796875 C3553.9335,75.1796875 3554.07087,75.1796875 3554.20824,75.1796875 C3554.48298,75.1796875 3554.68904,75.1796875 3554.82641,75.1796875 C3554.82641,75.0423177 3554.82641,74.836263 3554.82641,74.5615234 C3554.68904,74.5615234 3554.48298,74.6302083 3554.20824,74.7675781 C3554.07087,74.7675781 3553.9335,74.7675781 3553.79613,74.7675781 C3553.52139,74.7675781 3553.31534,74.7675781 3553.17797,74.7675781 C3553.0406,74.6302083 3552.90323,74.5615234 3552.76586,74.5615234 Z M3637.66039,138.644531 C3637.66039,139.19401 3637.52302,139.74349 3637.24828,140.292969 C3636.97354,140.842448 3636.56143,141.323242 3636.01195,141.735352 C3636.01195,141.735352 3635.94327,141.804036 3635.8059,141.941406 C3635.66853,141.941406 3635.59984,141.941406 3635.59984,141.941406 C3635.3251,141.941406 3635.11905,141.872721 3634.98168,141.735352 C3634.84431,141.597982 3634.63826,141.529297 3634.36352,141.529297 C3634.08878,141.391927 3633.74535,141.323242 3633.33324,141.323242 C3633.0585,141.185872 3632.71508,141.117188 3632.30297,141.117188 C3632.30297,141.117188 3632.30297,141.117188 3632.30297,141.117188 C3632.30297,141.117188 3632.30297,141.117188 3632.30297,141.117188 C3632.85245,141.117188 3633.33324,141.048503 3633.74535,140.911133 C3634.15746,140.773763 3634.50089,140.567708 3634.77563,140.292969 C3635.18773,140.155599 3635.46247,139.880859 3635.59984,139.46875 C3635.73721,139.19401 3635.8059,138.850586 3635.8059,138.438477 C3635.8059,138.301107 3635.8059,138.163737 3635.8059,138.026367 C3635.66853,137.751628 3635.59984,137.545573 3635.59984,137.408203 C3635.46247,137.270833 3635.39379,137.202148 3635.39379,137.202148 C3635.25642,137.064779 3635.18773,136.927409 3635.18773,136.790039 C3635.05036,136.652669 3634.91299,136.515299 3634.77563,136.37793 C3634.50089,136.37793 3634.29483,136.309245 3634.15746,136.171875 C3634.02009,136.034505 3633.88272,135.96582 3633.74535,135.96582 C3633.47061,135.96582 3633.26456,135.96582 3633.12719,135.96582 C3632.85245,135.96582 3632.57771,135.96582 3632.30297,135.96582 C3632.02823,136.10319 3631.75349,136.171875 3631.47875,136.171875 C3631.20401,136.309245 3630.99796,136.446615 3630.86059,136.583984 C3630.58585,136.721354 3630.37979,136.858724 3630.24242,136.996094 C3630.10505,137.133464 3630.03637,137.270833 3630.03637,137.408203 C3629.899,137.408203 3629.76163,137.408203 3629.62426,137.408203 C3629.48689,137.408203 3629.34952,137.408203 3629.21215,137.408203 C3629.21215,137.270833 3629.14346,137.202148 3629.00609,137.202148 C3628.86872,137.064779 3628.80004,136.996094 3628.80004,136.996094 C3628.66267,136.858724 3628.59398,136.721354 3628.59398,136.583984 C3628.59398,136.446615 3628.66267,136.309245 3628.80004,136.171875 C3628.80004,136.034505 3628.80004,135.96582 3628.80004,135.96582 C3629.07478,135.691081 3629.4182,135.416341 3629.83031,135.141602 C3630.10505,134.866862 3630.44848,134.660807 3630.86059,134.523438 C3631.13533,134.386068 3631.47875,134.317383 3631.89086,134.317383 C3632.30297,134.180013 3632.71508,134.111328 3633.12719,134.111328 C3633.40193,134.111328 3633.67667,134.180013 3633.95141,134.317383 C3634.36352,134.317383 3634.70694,134.386068 3634.98168,134.523438 C3635.25642,134.660807 3635.53116,134.798177 3635.8059,134.935547 C3635.94327,135.072917 3636.14932,135.278971 3636.42406,135.553711 C3636.56143,135.691081 3636.6988,135.897135 3636.83617,136.171875 C3637.11091,136.446615 3637.24828,136.721354 3637.24828,136.996094 C3637.38565,137.133464 3637.45434,137.339518 3637.45434,137.614258 C3637.59171,137.888997 3637.66039,138.163737 3637.66039,138.438477 C3637.66039,138.438477 3637.66039,138.438477 3637.66039,138.438477 C3637.66039,138.438477 3637.66039,138.507161 3637.66039,138.644531 Z M3631.89086,142.55957 C3631.89086,142.69694 3631.95954,142.765625 3632.09691,142.765625 C3632.23428,142.902995 3632.30297,142.97168 3632.30297,142.97168 C3632.98982,142.97168 3633.60798,142.902995 3634.15746,142.765625 C3634.56957,142.628255 3635.05036,142.353516 3635.59984,141.941406 C3635.73721,142.078776 3635.87458,142.216146 3636.01195,142.353516 C3636.01195,142.490885 3636.08064,142.55957 3636.21801,142.55957 C3636.49275,142.83431 3636.6988,143.109049 3636.83617,143.383789 C3636.97354,143.658529 3637.11091,143.933268 3637.24828,144.208008 C3637.38565,144.482747 3637.45434,144.826172 3637.45434,145.238281 C3637.59171,145.513021 3637.66039,145.856445 3637.66039,146.268555 C3637.66039,146.955404 3637.52302,147.573568 3637.24828,148.123047 C3636.97354,148.809896 3636.56143,149.359375 3636.01195,149.771484 C3635.46247,150.320964 3634.91299,150.664388 3634.36352,150.801758 C3633.67667,151.076497 3632.92113,151.213867 3632.09691,151.213867 C3631.54743,151.213867 3631.06664,151.145182 3630.65453,151.007812 C3630.24242,150.870443 3629.83031,150.733073 3629.4182,150.595703 C3629.00609,150.320964 3628.66267,150.046224 3628.38793,149.771484 C3627.97582,149.496745 3627.6324,149.15332 3627.35766,148.741211 C3627.35766,148.603841 3627.35766,148.535156 3627.35766,148.535156 C3627.22029,148.397786 3627.1516,148.329102 3627.1516,148.329102 C3627.1516,148.329102 3627.1516,148.260417 3627.1516,148.123047 C3627.1516,148.123047 3627.22029,148.123047 3627.35766,148.123047 C3627.35766,147.985677 3627.35766,147.848307 3627.35766,147.710938 C3627.49503,147.710938 3627.56371,147.642253 3627.56371,147.504883 C3627.70108,147.504883 3627.83845,147.436198 3627.97582,147.298828 C3628.11319,147.298828 3628.25056,147.298828 3628.38793,147.298828 C3628.5253,147.436198 3628.59398,147.504883 3628.59398,147.504883 C3628.73135,147.642253 3628.80004,147.710938 3628.80004,147.710938 C3629.07478,147.985677 3629.28083,148.260417 3629.4182,148.535156 C3629.69294,148.672526 3629.96768,148.809896 3630.24242,148.947266 C3630.51716,149.084635 3630.7919,149.222005 3631.06664,149.359375 C3631.34138,149.359375 3631.6848,149.359375 3632.09691,149.359375 C3632.50902,149.359375 3632.92113,149.29069 3633.33324,149.15332 C3633.74535,149.15332 3634.15746,149.015951 3634.56957,148.741211 C3634.98168,148.466471 3635.3251,148.123047 3635.59984,147.710938 C3635.73721,147.298828 3635.8059,146.818034 3635.8059,146.268555 C3635.8059,145.993815 3635.8059,145.719076 3635.8059,145.444336 C3635.8059,145.306966 3635.73721,145.100911 3635.59984,144.826172 C3635.59984,144.688802 3635.53116,144.551432 3635.39379,144.414062 C3635.25642,144.139323 3635.11905,144.001953 3634.98168,144.001953 C3634.84431,143.727214 3634.70694,143.521159 3634.56957,143.383789 C3634.29483,143.383789 3634.02009,143.315104 3633.74535,143.177734 C3633.47061,143.040365 3633.19587,142.97168 3632.92113,142.97168 C3632.64639,142.97168 3632.37165,142.97168 3632.09691,142.97168 C3631.95954,142.97168 3631.82217,142.902995 3631.6848,142.765625 C3631.54743,142.765625 3631.47875,142.69694 3631.47875,142.55957 C3631.34138,142.55957 3631.2727,142.490885 3631.2727,142.353516 C3631.13533,142.216146 3631.06664,142.078776 3631.06664,141.941406 C3631.06664,141.804036 3631.13533,141.735352 3631.2727,141.735352 C3631.2727,141.597982 3631.34138,141.460612 3631.47875,141.323242 C3631.47875,141.323242 3631.54743,141.254557 3631.6848,141.117188 C3631.82217,141.117188 3631.95954,141.117188 3632.09691,141.117188 C3632.09691,141.117188 3632.09691,141.117188 3632.09691,141.117188 C3632.23428,141.117188 3632.30297,141.117188 3632.30297,141.117188 C3632.1656,141.117188 3632.09691,141.117188 3632.09691,141.117188 C3631.95954,141.254557 3631.89086,141.323242 3631.89086,141.323242 C3631.75349,141.460612 3631.6848,141.597982 3631.6848,141.735352 C3631.54743,141.735352 3631.47875,141.804036 3631.47875,141.941406 C3631.47875,142.078776 3631.54743,142.216146 3631.6848,142.353516 C3631.6848,142.490885 3631.75349,142.55957 3631.89086,142.55957 Z M3632.30297,141.117188 C3632.71508,141.117188 3633.0585,141.185872 3633.33324,141.323242 C3633.74535,141.323242 3634.08878,141.391927 3634.36352,141.529297 C3634.63826,141.529297 3634.84431,141.597982 3634.98168,141.735352 C3635.11905,141.872721 3635.3251,141.941406 3635.59984,141.941406 C3635.05036,142.353516 3634.56957,142.628255 3634.15746,142.765625 C3633.60798,142.902995 3632.98982,142.97168 3632.30297,142.97168 C3632.30297,142.97168 3632.23428,142.902995 3632.09691,142.765625 C3631.95954,142.765625 3631.89086,142.69694 3631.89086,142.55957 C3631.75349,142.55957 3631.6848,142.490885 3631.6848,142.353516 C3631.54743,142.216146 3631.47875,142.078776 3631.47875,141.941406 C3631.47875,141.804036 3631.54743,141.735352 3631.6848,141.735352 C3631.6848,141.597982 3631.75349,141.460612 3631.89086,141.323242 C3631.89086,141.323242 3631.95954,141.254557 3632.09691,141.117188 C3632.09691,141.117188 3632.1656,141.117188 3632.30297,141.117188 Z M3542.87523,67.9677734 C3543.0126,67.9677734 3543.08129,68.0364583 3543.08129,68.1738281 C3543.08129,68.1738281 3543.14997,68.242513 3543.28734,68.3798828 C3543.28734,68.3798828 3543.28734,68.4485677 3543.28734,68.5859375 C3543.42471,68.5859375 3543.4934,68.6546224 3543.4934,68.7919922 C3543.4934,70.4404297 3543.4934,72.5696615 3543.4934,75.1796875 C3543.4934,77.7897135 3543.4934,80.7431641 3543.4934,84.0400391 C3543.4934,84.1774089 3543.42471,84.3147786 3543.28734,84.4521484 C3543.28734,84.5895182 3543.21866,84.6582031 3543.08129,84.6582031 C3543.08129,84.7955729 3543.0126,84.8642578 3542.87523,84.8642578 C3542.73786,85.0016276 3542.60049,85.0703125 3542.46313,85.0703125 C3542.32576,85.0703125 3542.25707,85.0016276 3542.25707,84.8642578 C3542.1197,84.8642578 3541.98233,84.7955729 3541.84496,84.6582031 C3541.84496,84.6582031 3541.77628,84.5895182 3541.63891,84.4521484 C3541.63891,84.3147786 3541.63891,84.1774089 3541.63891,84.0400391 C3541.63891,82.6663411 3541.63891,80.8805339 3541.63891,78.6826172 C3541.63891,76.4847005 3541.63891,73.9433594 3541.63891,71.0585938 C3541.50154,71.0585938 3541.43285,71.1272786 3541.43285,71.2646484 C3541.29548,71.4020182 3541.15811,71.539388 3541.02074,71.6767578 C3540.88337,71.6767578 3540.81469,71.7454427 3540.81469,71.8828125 C3540.67732,71.8828125 3540.53995,71.8828125 3540.40258,71.8828125 C3540.26521,71.8828125 3540.12784,71.8828125 3539.99047,71.8828125 C3539.99047,71.7454427 3539.92178,71.6767578 3539.78441,71.6767578 C3539.64704,71.539388 3539.57836,71.4020182 3539.57836,71.2646484 C3539.57836,71.1272786 3539.57836,71.0585938 3539.57836,71.0585938 C3539.57836,70.921224 3539.57836,70.7838542 3539.57836,70.6464844 C3539.57836,70.5091146 3539.64704,70.3717448 3539.78441,70.234375 C3540.05915,70.0970052 3540.33389,69.8222656 3540.60863,69.4101562 C3541.02074,68.9980469 3541.43285,68.5859375 3541.84496,68.1738281 C3541.98233,68.1738281 3542.05102,68.1051432 3542.05102,67.9677734 C3542.18839,67.9677734 3542.32576,67.9677734 3542.46313,67.9677734 C3542.46313,67.9677734 3542.46313,67.9677734 3542.46313,67.9677734 C3542.46313,67.9677734 3542.46313,67.9677734 3542.46313,67.9677734 C3542.60049,67.9677734 3542.66918,67.9677734 3542.66918,67.9677734 C3542.80655,67.9677734 3542.87523,67.9677734 3542.87523,67.9677734 Z M3555.23852,54.7802734 C3555.23852,54.7802734 3555.23852,54.7115885 3555.23852,54.5742188 C3555.10115,54.5742188 3555.03246,54.5055339 3555.03246,54.3681641 C3555.03246,54.3681641 3555.03246,54.3681641 3555.03246,54.3681641 C3555.03246,54.2307943 3555.03246,54.1621094 3555.03246,54.1621094 C3555.03246,54.1621094 3555.03246,54.1621094 3555.03246,54.1621094 C3555.03246,54.1621094 3555.03246,54.1621094 3555.03246,54.1621094 C3555.03246,54.0247396 3555.03246,53.8873698 3555.03246,53.75 C3555.16983,53.4752604 3555.23852,53.1318359 3555.23852,52.7197266 C3555.37589,52.3076172 3555.51326,51.8955078 3555.65063,51.4833984 C3555.92536,50.9339193 3556.2001,50.453125 3556.47484,50.0410156 C3556.74958,49.766276 3556.95564,49.4915365 3557.09301,49.2167969 C3557.36775,48.9420573 3557.64249,48.6673177 3557.91723,48.3925781 C3558.19197,48.1178385 3558.46671,47.843099 3558.74145,47.5683594 C3559.15355,47.2936198 3559.49698,47.0188802 3559.77172,46.7441406 C3560.59594,46.1946615 3561.28279,45.7138672 3561.83227,45.3017578 C3562.24438,44.8896484 3562.5878,44.546224 3562.86254,44.2714844 C3562.99991,43.859375 3563.13728,43.5159505 3563.27465,43.2412109 C3563.27465,42.9664714 3563.27465,42.6917318 3563.27465,42.4169922 C3563.27465,42.2796224 3563.27465,42.1422526 3563.27465,42.0048828 C3563.27465,42.0048828 3563.27465,41.9361979 3563.27465,41.7988281 C3563.27465,41.6614583 3563.27465,41.5927734 3563.27465,41.5927734 C3563.27465,41.4554036 3563.20596,41.3180339 3563.06859,41.1806641 C3563.06859,41.0432943 3562.99991,40.8372396 3562.86254,40.5625 C3562.72517,40.4251302 3562.51911,40.2877604 3562.24438,40.1503906 C3561.96964,40.0130208 3561.6949,39.9443359 3561.42016,39.9443359 C3561.14542,39.8069661 3560.73331,39.7382812 3560.18383,39.7382812 C3559.90909,39.7382812 3559.63435,39.8069661 3559.35961,39.9443359 C3559.08487,39.9443359 3558.81013,40.0130208 3558.53539,40.1503906 C3558.26065,40.2877604 3558.0546,40.4938151 3557.91723,40.7685547 C3557.64249,40.9059245 3557.43643,41.1119792 3557.29906,41.3867188 C3557.29906,41.5240885 3557.23038,41.6614583 3557.09301,41.7988281 C3557.09301,41.7988281 3557.02432,41.867513 3556.88695,42.0048828 C3556.74958,42.0048828 3556.61221,42.0048828 3556.47484,42.0048828 C3556.33747,42.0048828 3556.26879,41.9361979 3556.26879,41.7988281 C3556.13142,41.7988281 3555.99405,41.7988281 3555.85668,41.7988281 C3555.85668,41.6614583 3555.78799,41.5240885 3555.65063,41.3867188 C3555.65063,41.249349 3555.65063,41.1119792 3555.65063,40.9746094 C3555.65063,40.9746094 3555.71931,40.9059245 3555.85668,40.7685547 C3555.99405,40.2190755 3556.2001,39.8069661 3556.47484,39.5322266 C3556.74958,39.1201172 3557.09301,38.8453776 3557.50512,38.7080078 C3557.91723,38.4332682 3558.32934,38.2272135 3558.74145,38.0898438 C3559.15355,37.952474 3559.63435,37.8837891 3560.18383,37.8837891 C3561.14542,37.8837891 3561.96964,38.0211589 3562.65648,38.2958984 C3563.20596,38.570638 3563.68676,38.9140625 3564.09887,39.3261719 C3564.51098,39.875651 3564.78572,40.3564453 3564.92309,40.7685547 C3565.06046,41.3180339 3565.12914,41.867513 3565.12914,42.4169922 C3565.12914,42.9664714 3565.06046,43.5159505 3564.92309,44.0654297 C3564.78572,44.4775391 3564.51098,44.9583333 3564.09887,45.5078125 C3563.82413,45.9199219 3563.41202,46.4007161 3562.86254,46.9501953 C3562.31306,47.3623047 3561.62621,47.843099 3560.80199,48.3925781 C3560.25251,48.6673177 3559.70303,49.0794271 3559.15355,49.6289062 C3558.74145,50.0410156 3558.39802,50.453125 3558.12328,50.8652344 C3557.84854,51.4147135 3557.64249,51.8268229 3557.50512,52.1015625 C3557.23038,52.5136719 3557.09301,52.9257813 3557.09301,53.3378906 C3557.91723,53.3378906 3558.9475,53.3378906 3560.18383,53.3378906 C3561.42016,53.3378906 3562.86254,53.3378906 3564.51098,53.3378906 C3564.64835,53.3378906 3564.78572,53.3378906 3564.92309,53.3378906 C3564.92309,53.3378906 3564.99177,53.4065755 3565.12914,53.5439453 C3565.26651,53.5439453 3565.3352,53.6126302 3565.3352,53.75 C3565.3352,53.8873698 3565.3352,54.0247396 3565.3352,54.1621094 C3565.3352,54.2994792 3565.3352,54.436849 3565.3352,54.5742188 C3565.3352,54.5742188 3565.26651,54.6429036 3565.12914,54.7802734 C3564.99177,54.9176432 3564.92309,54.9863281 3564.92309,54.9863281 C3564.78572,54.9863281 3564.64835,54.9863281 3564.51098,54.9863281 C3563.82413,54.9863281 3563.13728,54.9863281 3562.45043,54.9863281 C3561.62621,54.9863281 3560.87068,54.9863281 3560.18383,54.9863281 C3559.49698,54.9863281 3558.81013,54.9863281 3558.12328,54.9863281 C3557.29906,54.9863281 3556.54353,54.9863281 3555.85668,54.9863281 C3555.85668,54.9863281 3555.78799,54.9863281 3555.65063,54.9863281 C3555.65063,54.9863281 3555.65063,54.9863281 3555.65063,54.9863281 C3555.51326,54.9863281 3555.44457,54.9176432 3555.44457,54.7802734 C3555.3072,54.7802734 3555.23852,54.7802734 3555.23852,54.7802734 Z" transform="translate(-3545.5)"/></svg>