<svg xmlns="http://www.w3.org/2000/svg" width="83" height="203" viewBox="0 0 83 203"><path fill="#131313" d="M4167.64453,79.0058594 C4168.84245,80.952474 4169.2168,82.9739583 4168.76758,85.0703125 C4168.31836,87.3164063 4167.12044,89.0384115 4165.17383,90.2363281 C4163.22721,91.4342448 4161.20573,91.8085938 4159.10937,91.359375 C4156.86328,90.7604167 4155.14128,89.5625 4153.94336,87.765625 C4153.3444,86.8671875 4152.52083,86.0436198 4151.47266,85.2949219 C4150.27474,84.546224 4148.40299,84.171875 4145.85742,84.171875 C4142.11393,84.171875 4138.59505,86.4179688 4135.30078,90.9101563 C4131.85677,95.4023438 4129.08659,100.49349 4126.99023,106.183594 C4125.79232,109.328125 4124.89388,112.397786 4124.29492,115.392578 C4123.69596,118.38737 4123.39648,121.157552 4123.39648,123.703125 C4123.39648,128.644531 4123.39648,135.906901 4123.39648,145.490234 C4123.39648,147.736328 4122.57292,149.682943 4120.92578,151.330078 C4119.27865,152.827474 4117.4069,153.576172 4115.31055,153.576172 C4113.06445,153.576172 4111.11784,152.827474 4109.4707,151.330078 C4107.82357,149.682943 4107,147.736328 4107,145.490234 C4107,141.147786 4107,134.634115 4107,125.949219 C4107,125.949219 4107,125.949219 4107,125.949219 C4107,125.949219 4107,125.949219 4107,125.949219 C4107,114.86849 4107,98.2473958 4107,76.0859375 C4107,73.8398438 4107.82357,71.8932292 4109.4707,70.2460938 C4111.11784,68.7486979 4113.06445,68 4115.31055,68 C4117.4069,68 4119.27865,68.7486979 4120.92578,70.2460938 C4122.57292,71.8932292 4123.39648,73.8398438 4123.39648,76.0859375 C4123.39648,76.984375 4123.39648,78.2571615 4123.39648,79.9042969 C4126.69076,76.0110677 4130.20964,73.016276 4133.95312,70.9199219 C4137.84635,68.9733073 4141.81445,68 4145.85742,68 C4151.99674,68 4156.78841,69.1979167 4160.23242,71.59375 C4163.67643,73.9895833 4166.14714,76.4602865 4167.64453,79.0058594 Z M4144.81055,55.5996094 C4149.15299,55.5996094 4153.19596,56.1985677 4156.93945,57.3964844 C4160.68294,58.594401 4164.12695,60.3164063 4167.27148,62.5625 C4166.82227,62.8619792 4166.22331,63.3860677 4165.47461,64.1347656 C4162.62956,62.0384115 4159.48503,60.4661458 4156.04102,59.4179688 C4152.59701,58.3697917 4148.85352,57.8457031 4144.81055,57.8457031 C4143.31315,57.8457031 4141.81576,57.9954427 4140.31836,58.2949219 C4138.82096,58.4446615 4137.32357,58.7441406 4135.82617,59.1933594 C4135.82617,58.8938802 4135.82617,58.594401 4135.82617,58.2949219 C4135.67643,57.9954427 4135.52669,57.6959635 4135.37695,57.3964844 C4135.37695,57.3964844 4135.37695,57.3216146 4135.37695,57.171875 C4135.22721,57.171875 4135.15234,57.0970052 4135.15234,56.9472656 C4136.79948,56.4980469 4138.37174,56.1985677 4139.86914,56.0488281 C4141.51628,55.749349 4143.16341,55.5996094 4144.81055,55.5996094 Z M4132.90625,64.359375 C4132.90625,64.2096354 4132.98112,64.1347656 4133.13086,64.1347656 C4133.13086,64.1347656 4133.20573,64.1347656 4133.35547,64.1347656 C4133.20573,64.1347656 4133.13086,64.1347656 4133.13086,64.1347656 C4132.98112,64.1347656 4132.90625,64.2096354 4132.90625,64.359375 Z M4132.68164,64.359375 C4132.68164,64.359375 4132.68164,64.359375 4132.68164,64.359375 C4132.68164,64.359375 4132.75651,64.359375 4132.90625,64.359375 C4132.75651,64.359375 4132.68164,64.359375 4132.68164,64.359375 C4132.68164,64.359375 4132.68164,64.359375 4132.68164,64.359375 Z M4133.13086,63.4609375 C4133.87956,63.1614583 4134.47852,62.5625 4134.92773,61.6640625 C4135.22721,60.9153646 4135.37695,60.1666667 4135.37695,59.4179688 C4135.52669,59.2682292 4135.60156,59.1933594 4135.60156,59.1933594 C4135.7513,59.1933594 4135.90104,59.1933594 4136.05078,59.1933594 C4136.05078,60.0917969 4135.82617,60.9902344 4135.37695,61.8886719 C4134.92773,62.7871094 4134.25391,63.4609375 4133.35547,63.9101563 C4132.15755,64.6588542 4130.88477,64.8085938 4129.53711,64.359375 C4128.33919,63.9101563 4127.36589,63.0865885 4126.61719,61.8886719 C4126.01823,60.6907552 4125.94336,59.4179688 4126.39258,58.0703125 C4126.8418,56.8723958 4127.66536,55.9739583 4128.86328,55.375 C4129.91146,54.7760417 4131.03451,54.6263021 4132.23242,54.9257813 C4133.43034,55.2252604 4134.40365,55.8990885 4135.15234,56.9472656 C4135.0026,57.0970052 4134.92773,57.171875 4134.92773,57.171875 C4134.77799,57.171875 4134.62826,57.171875 4134.47852,57.171875 C4133.87956,56.2734375 4133.05599,55.749349 4132.00781,55.5996094 C4130.95964,55.3001302 4129.98633,55.375 4129.08789,55.8242188 C4128.03971,56.4231771 4127.36589,57.2467448 4127.06641,58.2949219 C4126.61719,59.4928385 4126.69206,60.6158854 4127.29102,61.6640625 C4127.74023,62.7122396 4128.5638,63.3860677 4129.76172,63.6855469 C4130.95964,64.1347656 4132.08268,64.0598958 4133.13086,63.4609375 Z M4133.58008,63.9101562 C4133.58008,63.9101562 4133.58008,63.9101562 4133.58008,63.9101562 C4133.43034,63.9101562 4133.35547,63.985026 4133.35547,64.1347656 C4133.35547,63.985026 4133.43034,63.9101562 4133.58008,63.9101562 C4133.58008,63.9101562 4133.58008,63.9101562 4133.58008,63.9101562 Z M4134.0293,63.6855469 C4133.87956,63.6855469 4133.80469,63.6855469 4133.80469,63.6855469 C4133.80469,63.6855469 4133.80469,63.7604167 4133.80469,63.9101562 C4133.80469,63.7604167 4133.80469,63.6855469 4133.80469,63.6855469 C4133.80469,63.6855469 4133.87956,63.6855469 4134.0293,63.6855469 Z M4135.15234,56.9472656 C4135.15234,57.0970052 4135.22721,57.171875 4135.37695,57.171875 C4135.37695,57.3216146 4135.37695,57.3964844 4135.37695,57.3964844 C4135.52669,57.6959635 4135.67643,57.9954427 4135.82617,58.2949219 C4135.82617,58.594401 4135.82617,58.8938802 4135.82617,59.1933594 C4135.82617,59.1933594 4135.7513,59.1933594 4135.60156,59.1933594 C4135.60156,59.343099 4135.52669,59.4179688 4135.37695,59.4179688 C4135.37695,59.1184896 4135.30208,58.8190104 4135.15234,58.5195312 C4135.15234,58.2200521 4135.07747,57.9205729 4134.92773,57.6210938 C4134.92773,57.6210938 4134.85286,57.546224 4134.70312,57.3964844 C4134.70312,57.3964844 4134.62826,57.3216146 4134.47852,57.171875 C4134.62826,57.171875 4134.77799,57.171875 4134.92773,57.171875 C4134.92773,57.171875 4135.0026,57.0970052 4135.15234,56.9472656 Z M4129.08789,55.8242188 C4130.13607,55.375 4131.10937,55.3001302 4132.00781,55.5996094 C4133.05599,55.749349 4133.87956,56.2734375 4134.47852,57.171875 C4134.47852,57.171875 4134.40365,57.171875 4134.25391,57.171875 C4134.25391,57.3216146 4134.17904,57.3964844 4134.0293,57.3964844 C4133.43034,56.6477865 4132.68164,56.1985677 4131.7832,56.0488281 C4131.03451,55.8990885 4130.21094,55.9739583 4129.3125,56.2734375 C4128.41406,56.7226562 4127.8151,57.4713542 4127.51562,58.5195312 C4127.21615,59.5677083 4127.29102,60.5410156 4127.74023,61.4394531 C4128.18945,62.3378906 4128.93815,62.936849 4129.98633,63.2363281 C4130.88477,63.5358073 4131.7832,63.4609375 4132.68164,63.0117188 C4133.43034,62.7122396 4133.95443,62.188151 4134.25391,61.4394531 C4134.70312,60.8404948 4134.85286,60.1666667 4134.70312,59.4179688 C4134.85286,59.4179688 4135.0026,59.4179688 4135.15234,59.4179688 C4135.15234,59.4179688 4135.22721,59.4179688 4135.37695,59.4179688 C4135.37695,60.1666667 4135.22721,60.9153646 4134.92773,61.6640625 C4134.47852,62.4127604 4133.87956,63.0117188 4133.13086,63.4609375 C4132.08268,64.0598958 4130.95964,64.1347656 4129.76172,63.6855469 C4128.5638,63.3860677 4127.74023,62.7122396 4127.29102,61.6640625 C4126.69206,60.6158854 4126.54232,59.4928385 4126.8418,58.2949219 C4127.29102,57.2467448 4128.03971,56.4231771 4129.08789,55.8242188 Z M4134.47852,58.0703125 C4134.32878,57.9205729 4134.25391,57.7708333 4134.25391,57.6210938 C4134.10417,57.4713542 4134.0293,57.3964844 4134.0293,57.3964844 C4134.17904,57.3964844 4134.25391,57.3216146 4134.25391,57.171875 C4134.40365,57.171875 4134.47852,57.171875 4134.47852,57.171875 C4134.62826,57.3216146 4134.70312,57.3964844 4134.70312,57.3964844 C4134.85286,57.546224 4134.92773,57.6210938 4134.92773,57.6210938 C4135.07747,57.9205729 4135.15234,58.2200521 4135.15234,58.5195312 C4135.30208,58.8190104 4135.37695,59.1184896 4135.37695,59.4179688 C4135.22721,59.4179688 4135.15234,59.4179688 4135.15234,59.4179688 C4135.0026,59.4179688 4134.85286,59.4179688 4134.70312,59.4179688 C4134.70312,59.2682292 4134.70312,59.0436198 4134.70312,58.7441406 C4134.55339,58.4446615 4134.47852,58.2200521 4134.47852,58.0703125 Z M4167.27148,62.5625 C4167.7207,62.1132812 4168.31966,61.5891927 4169.06836,60.9902344 C4170.26628,63.5358073 4172.21289,67.3541667 4174.9082,72.4453125 C4172.51237,70.7981771 4168.91862,68.4772135 4164.12695,65.4824219 C4164.42643,65.1829427 4164.87565,64.733724 4165.47461,64.1347656 C4165.92383,64.4342448 4166.29818,64.6588542 4166.59766,64.8085938 C4166.89714,65.1080729 4167.19661,65.4075521 4167.49609,65.7070312 C4167.79557,65.2578125 4168.31966,64.6588542 4169.06836,63.9101562 C4168.76888,63.6106771 4168.4694,63.3860677 4168.16992,63.2363281 C4167.87044,62.936849 4167.57096,62.7122396 4167.27148,62.5625 Z M4169.06836,63.9101562 C4168.61914,64.2096354 4168.09505,64.733724 4167.49609,65.4824219 C4167.19661,65.3326823 4166.89714,65.1080729 4166.59766,64.8085938 C4166.29818,64.5091146 4165.92383,64.2845052 4165.47461,64.1347656 C4165.92383,63.6855469 4166.52279,63.1614583 4167.27148,62.5625 C4167.57096,62.7122396 4167.87044,62.936849 4168.16992,63.2363281 C4168.4694,63.3860677 4168.76888,63.6106771 4169.06836,63.9101562 Z M4095.17187,84.3496094 C4095.32161,84.3496094 4095.47135,84.4244792 4095.62109,84.5742188 C4095.77083,84.5742188 4095.99544,84.5742188 4096.29492,84.5742188 C4096.44466,84.5742188 4096.5944,84.5742188 4096.74414,84.5742188 C4097.04362,84.4244792 4097.26823,84.3496094 4097.41797,84.3496094 C4097.41797,94.8313802 4097.41797,110.628906 4097.41797,131.742188 C4096.81901,131.742188 4096.07031,131.742188 4095.17187,131.742188 C4095.17187,123.80599 4095.17187,115.869792 4095.17187,107.933594 C4095.17187,100.147135 4095.17187,92.2858073 4095.17187,84.3496094 Z M4095.17187,133.988281 C4095.17187,133.539062 4095.17187,132.790365 4095.17187,131.742188 C4094.57292,131.742188 4093.82422,131.742188 4092.92578,131.742188 C4093.67448,134.4375 4094.79753,138.555339 4096.29492,144.095703 C4097.04362,141.400391 4098.16667,137.282552 4099.66406,131.742188 C4099.0651,131.742188 4098.31641,131.742188 4097.41797,131.742188 C4097.41797,132.191406 4097.41797,132.940104 4097.41797,133.988281 C4096.81901,133.988281 4096.07031,133.988281 4095.17187,133.988281 Z M4095.17187,133.988281 C4095.62109,133.988281 4096.36979,133.988281 4097.41797,133.988281 C4097.41797,133.539062 4097.41797,132.790365 4097.41797,131.742188 C4096.81901,131.742188 4096.07031,131.742188 4095.17187,131.742188 C4095.17187,132.191406 4095.17187,132.940104 4095.17187,133.988281 Z M4096.29492,74.6914062 C4097.64258,74.6914062 4098.76562,75.140625 4099.66406,76.0390625 C4100.5625,77.0872396 4101.01172,78.2851562 4101.01172,79.6328125 C4101.01172,80.8307292 4100.71224,81.8040365 4100.11328,82.5527344 C4099.36458,83.4511719 4098.46615,84.0501302 4097.41797,84.3496094 C4097.41797,84.1998698 4097.41797,83.9752604 4097.41797,83.6757812 C4098.31641,83.5260417 4099.0651,83.0768229 4099.66406,82.328125 C4100.26302,81.5794271 4100.5625,80.6809896 4100.5625,79.6328125 C4100.5625,78.4348958 4100.11328,77.3867188 4099.21484,76.4882812 C4098.46615,75.7395833 4097.49284,75.3652344 4096.29492,75.3652344 C4095.09701,75.3652344 4094.04883,75.7395833 4093.15039,76.4882812 C4092.25195,77.3867188 4091.80273,78.4348958 4091.80273,79.6328125 C4091.80273,80.6809896 4092.10221,81.5794271 4092.70117,82.328125 C4093.30013,83.0768229 4094.1237,83.5260417 4095.17187,83.6757812 C4095.17187,83.8255208 4095.17187,84.0501302 4095.17187,84.3496094 C4093.97396,84.0501302 4093.07552,83.4511719 4092.47656,82.5527344 C4091.72786,81.8040365 4091.35352,80.8307292 4091.35352,79.6328125 C4091.35352,78.2851562 4091.80273,77.1621094 4092.70117,76.2636719 C4093.74935,75.2154948 4094.94727,74.6914062 4096.29492,74.6914062 Z M4096.29492,83.9003906 C4096.44466,83.9003906 4096.5944,83.9003906 4096.74414,83.9003906 C4097.04362,83.9003906 4097.26823,83.8255208 4097.41797,83.6757812 C4097.41797,83.8255208 4097.41797,84.0501302 4097.41797,84.3496094 C4097.26823,84.3496094 4097.04362,84.4244792 4096.74414,84.5742188 C4096.5944,84.5742188 4096.44466,84.5742188 4096.29492,84.5742188 C4095.99544,84.5742188 4095.77083,84.5742188 4095.62109,84.5742188 C4095.47135,84.4244792 4095.32161,84.3496094 4095.17187,84.3496094 C4095.17187,84.1998698 4095.17187,83.9752604 4095.17187,83.6757812 C4095.32161,83.8255208 4095.47135,83.9003906 4095.62109,83.9003906 C4095.77083,83.9003906 4095.99544,83.9003906 4096.29492,83.9003906 Z M4092.47656,79.6328125 C4092.47656,80.3815104 4092.70117,81.1302083 4093.15039,81.8789062 C4093.74935,82.4778646 4094.42318,82.9270833 4095.17187,83.2265625 C4095.17187,83.3763021 4095.17187,83.5260417 4095.17187,83.6757812 C4094.1237,83.5260417 4093.30013,83.0768229 4092.70117,82.328125 C4092.10221,81.5794271 4091.80273,80.6809896 4091.80273,79.6328125 C4091.80273,78.4348958 4092.25195,77.3867188 4093.15039,76.4882812 C4094.04883,75.7395833 4095.09701,75.3652344 4096.29492,75.3652344 C4097.49284,75.3652344 4098.46615,75.7395833 4099.21484,76.4882812 C4100.11328,77.3867188 4100.5625,78.4348958 4100.5625,79.6328125 C4100.5625,80.6809896 4100.26302,81.5794271 4099.66406,82.328125 C4099.0651,83.0768229 4098.31641,83.5260417 4097.41797,83.6757812 C4097.41797,83.5260417 4097.41797,83.3763021 4097.41797,83.2265625 C4098.16667,82.9270833 4098.76562,82.4778646 4099.21484,81.8789062 C4099.66406,81.1302083 4099.88867,80.3815104 4099.88867,79.6328125 C4099.88867,78.5846354 4099.51432,77.6861979 4098.76562,76.9375 C4098.16667,76.1888021 4097.3431,75.8144531 4096.29492,75.8144531 C4095.24674,75.8144531 4094.34831,76.1888021 4093.59961,76.9375 C4092.85091,77.6861979 4092.47656,78.5846354 4092.47656,79.6328125 C4092.47656,79.4830729 4092.47656,79.3333333 4092.47656,79.1835938 C4092.47656,79.0338542 4092.47656,78.9589844 4092.47656,78.9589844 C4092.47656,78.9589844 4092.47656,79.0338542 4092.47656,79.1835938 C4092.47656,79.3333333 4092.47656,79.4830729 4092.47656,79.6328125 C4092.47656,79.7825521 4092.47656,79.9322917 4092.47656,80.0820312 C4092.47656,80.0820312 4092.47656,80.156901 4092.47656,80.3066406 C4092.47656,80.156901 4092.47656,80.0820312 4092.47656,80.0820312 C4092.47656,79.9322917 4092.47656,79.7825521 4092.47656,79.6328125 Z M4097.41797,83.6757812 C4097.26823,83.8255208 4097.04362,83.9003906 4096.74414,83.9003906 C4096.5944,83.9003906 4096.44466,83.9003906 4096.29492,83.9003906 C4095.99544,83.9003906 4095.77083,83.9003906 4095.62109,83.9003906 C4095.47135,83.9003906 4095.32161,83.8255208 4095.17187,83.6757812 C4095.17187,83.5260417 4095.17187,83.3763021 4095.17187,83.2265625 C4095.32161,83.2265625 4095.47135,83.2265625 4095.62109,83.2265625 C4095.77083,83.3763021 4095.99544,83.4511719 4096.29492,83.4511719 C4096.44466,83.4511719 4096.5944,83.3763021 4096.74414,83.2265625 C4097.04362,83.2265625 4097.26823,83.2265625 4097.41797,83.2265625 C4097.41797,83.2265625 4097.41797,83.3014323 4097.41797,83.4511719 C4097.41797,83.6009115 4097.41797,83.6757812 4097.41797,83.6757812 Z M4082.59375,79.8574219 C4082.74349,79.8574219 4082.81836,79.9322917 4082.81836,80.0820312 C4082.9681,80.0820312 4083.04297,80.156901 4083.04297,80.3066406 C4083.19271,80.3066406 4083.26758,80.3815104 4083.26758,80.53125 C4083.26758,80.53125 4083.26758,80.6061198 4083.26758,80.7558594 C4083.26758,82.702474 4083.26758,85.0234375 4083.26758,87.71875 C4083.26758,90.5638021 4083.26758,93.7832031 4083.26758,97.3769531 C4083.26758,97.5266927 4083.26758,97.6764323 4083.26758,97.8261719 C4083.11784,97.9759115 4083.04297,98.0507812 4083.04297,98.0507812 C4082.89323,98.2005208 4082.74349,98.2753906 4082.59375,98.2753906 C4082.44401,98.4251302 4082.36914,98.5 4082.36914,98.5 C4082.2194,98.5 4082.06966,98.4251302 4081.91992,98.2753906 C4081.77018,98.2753906 4081.69531,98.2005208 4081.69531,98.0507812 C4081.54557,98.0507812 4081.4707,97.9759115 4081.4707,97.8261719 C4081.32096,97.6764323 4081.24609,97.5266927 4081.24609,97.3769531 C4081.24609,95.8795573 4081.24609,93.9329427 4081.24609,91.5371094 C4081.24609,89.141276 4081.24609,86.3710938 4081.24609,83.2265625 C4081.24609,83.2265625 4081.17122,83.3014323 4081.02148,83.4511719 C4080.87174,83.6009115 4080.72201,83.750651 4080.57227,83.9003906 C4080.57227,83.9003906 4080.4974,83.9752604 4080.34766,84.125 C4080.19792,84.125 4080.04818,84.125 4079.89844,84.125 C4079.7487,84.125 4079.67383,84.125 4079.67383,84.125 C4079.52409,83.9752604 4079.37435,83.9003906 4079.22461,83.9003906 C4079.22461,83.750651 4079.14974,83.6009115 4079,83.4511719 C4079,83.3014323 4079,83.2265625 4079,83.2265625 C4079,83.0768229 4079,82.9270833 4079,82.7773438 C4079.14974,82.6276042 4079.22461,82.5527344 4079.22461,82.5527344 C4079.52409,82.2532552 4079.89844,81.8789062 4080.34766,81.4296875 C4080.64714,81.1302083 4081.09635,80.6809896 4081.69531,80.0820312 C4081.69531,80.0820312 4081.77018,80.0071615 4081.91992,79.8574219 C4081.91992,79.8574219 4081.99479,79.8574219 4082.14453,79.8574219 C4082.14453,79.8574219 4082.14453,79.8574219 4082.14453,79.8574219 C4082.29427,79.8574219 4082.36914,79.8574219 4082.36914,79.8574219 C4082.36914,79.8574219 4082.44401,79.8574219 4082.59375,79.8574219 C4082.59375,79.8574219 4082.59375,79.8574219 4082.59375,79.8574219 Z M4120.10352,57.6210938 C4120.25326,57.6210938 4120.40299,57.6959635 4120.55273,57.8457031 C4120.55273,57.8457031 4120.6276,57.8457031 4120.77734,57.8457031 C4120.92708,57.9954427 4121.00195,58.1451823 4121.00195,58.2949219 C4121.00195,58.4446615 4121.00195,58.594401 4121.00195,58.7441406 C4121.00195,58.7441406 4121.00195,58.8190104 4121.00195,58.96875 C4121.00195,59.1184896 4120.92708,59.2682292 4120.77734,59.4179688 C4120.6276,59.4179688 4120.55273,59.4928385 4120.55273,59.6425781 C4120.40299,59.6425781 4120.25326,59.6425781 4120.10352,59.6425781 C4119.35482,59.6425781 4118.60612,59.6425781 4117.85742,59.6425781 C4116.95898,59.6425781 4116.13542,59.6425781 4115.38672,59.6425781 C4114.63802,59.6425781 4113.88932,59.6425781 4113.14062,59.6425781 C4112.24219,59.6425781 4111.41862,59.6425781 4110.66992,59.6425781 C4110.66992,59.6425781 4110.59505,59.6425781 4110.44531,59.6425781 C4110.44531,59.6425781 4110.37044,59.5677083 4110.2207,59.4179688 C4110.2207,59.4179688 4110.2207,59.4179688 4110.2207,59.4179688 C4110.07096,59.4179688 4109.99609,59.343099 4109.99609,59.1933594 C4109.99609,59.1933594 4109.92122,59.1933594 4109.77148,59.1933594 C4109.77148,59.0436198 4109.77148,58.96875 4109.77148,58.96875 C4109.77148,58.96875 4109.77148,58.8938802 4109.77148,58.7441406 C4109.77148,58.7441406 4109.77148,58.7441406 4109.77148,58.7441406 C4109.77148,58.594401 4109.77148,58.5195312 4109.77148,58.5195312 C4109.77148,58.5195312 4109.77148,58.5195312 4109.77148,58.5195312 C4109.77148,58.5195312 4109.77148,58.3697917 4109.77148,58.0703125 C4109.92122,57.9205729 4109.99609,57.6210938 4109.99609,57.171875 C4110.14583,56.7226563 4110.29557,56.1985677 4110.44531,55.5996094 C4110.74479,55.1503906 4111.04427,54.6263021 4111.34375,54.0273438 C4111.64323,53.7278646 4111.86784,53.4283854 4112.01758,53.1289062 C4112.31706,52.8294271 4112.61654,52.5299479 4112.91602,52.2304688 C4113.21549,51.9309896 4113.51497,51.6315104 4113.81445,51.3320313 C4114.11393,51.0325521 4114.48828,50.8079427 4114.9375,50.6582031 C4115.83594,50.0592448 4116.50977,49.5351562 4116.95898,49.0859375 C4117.55794,48.6367187 4117.93229,48.2623698 4118.08203,47.9628906 C4118.38151,47.5136719 4118.60612,47.1393229 4118.75586,46.8398438 C4118.75586,46.5403646 4118.75586,46.1660156 4118.75586,45.7167969 C4118.75586,45.7167969 4118.75586,45.6419271 4118.75586,45.4921875 C4118.75586,45.3424479 4118.75586,45.2675781 4118.75586,45.2675781 C4118.75586,45.1178385 4118.75586,44.968099 4118.75586,44.8183594 C4118.75586,44.8183594 4118.68099,44.7434896 4118.53125,44.59375 C4118.53125,44.2942708 4118.45638,44.0696615 4118.30664,43.9199219 C4118.00716,43.7701823 4117.78255,43.6204427 4117.63281,43.4707031 C4117.33333,43.3209635 4117.03385,43.171224 4116.73437,43.0214844 C4116.28516,43.0214844 4115.83594,43.0214844 4115.38672,43.0214844 C4115.08724,43.0214844 4114.78776,43.0214844 4114.48828,43.0214844 C4114.03906,43.171224 4113.73958,43.3209635 4113.58984,43.4707031 C4113.29036,43.6204427 4113.06576,43.7701823 4112.91602,43.9199219 C4112.61654,44.219401 4112.39193,44.5188802 4112.24219,44.8183594 C4112.24219,44.968099 4112.16732,45.0429688 4112.01758,45.0429688 C4112.01758,45.1927083 4111.94271,45.2675781 4111.79297,45.2675781 C4111.64323,45.4173177 4111.49349,45.4921875 4111.34375,45.4921875 C4111.19401,45.4921875 4111.11914,45.4173177 4111.11914,45.2675781 C4110.9694,45.2675781 4110.81966,45.1927083 4110.66992,45.0429688 C4110.66992,45.0429688 4110.59505,44.968099 4110.44531,44.8183594 C4110.44531,44.6686198 4110.44531,44.5188802 4110.44531,44.3691406 C4110.44531,44.219401 4110.44531,44.0696615 4110.44531,43.9199219 C4110.74479,43.4707031 4111.04427,43.0963542 4111.34375,42.796875 C4111.64323,42.3476562 4112.01758,41.9733073 4112.4668,41.6738281 C4112.91602,41.5240885 4113.36523,41.374349 4113.81445,41.2246094 C4114.26367,41.0748698 4114.78776,41 4115.38672,41 C4116.4349,41 4117.25846,41.1497396 4117.85742,41.4492188 C4118.60612,41.5989583 4119.20508,41.9733073 4119.6543,42.5722656 C4119.95378,43.0214844 4120.25326,43.5455729 4120.55273,44.1445313 C4120.70247,44.7434896 4120.77734,45.3424479 4120.77734,45.9414062 C4120.77734,46.5403646 4120.70247,47.0644531 4120.55273,47.5136719 C4120.40299,48.1126302 4120.10352,48.6367187 4119.6543,49.0859375 C4119.35482,49.6848958 4118.9056,50.2089844 4118.30664,50.6582031 C4117.70768,51.2571615 4116.95898,51.78125 4116.06055,52.2304688 C4115.31185,52.6796875 4114.71289,53.1289062 4114.26367,53.578125 C4113.81445,54.0273438 4113.4401,54.5514323 4113.14062,55.1503906 C4112.84115,55.5996094 4112.61654,56.0488281 4112.4668,56.4980469 C4112.16732,56.9472656 4112.01758,57.3216146 4112.01758,57.6210938 C4112.91602,57.6210938 4114.03906,57.6210938 4115.38672,57.6210938 C4116.73437,57.6210938 4118.30664,57.6210938 4120.10352,57.6210938 Z" transform="translate(-4096 -12)"/></svg>