<svg xmlns="http://www.w3.org/2000/svg" width="243" height="243" viewBox="0 0 243 243"><path fill="#131313" d="M151.644531,91.0058594 C152.842448,92.952474 153.216797,94.9739583 152.767578,97.0703125 C152.318359,99.3164062 151.120443,101.038411 149.173828,102.236328 C147.227214,103.434245 145.205729,103.808594 143.109375,103.359375 C140.863281,102.760417 139.141276,101.5625 137.943359,99.765625 C137.344401,98.8671875 136.520833,98.0436198 135.472656,97.2949219 C134.27474,96.546224 132.402995,96.171875 129.857422,96.171875 C126.113932,96.171875 122.595052,98.4179688 119.300781,102.910156 C115.856771,107.402344 113.086589,112.49349 110.990234,118.183594 C109.792318,121.328125 108.89388,124.397786 108.294922,127.392578 C107.695964,130.38737 107.396484,133.157552 107.396484,135.703125 C107.396484,140.644531 107.396484,147.906901 107.396484,157.490234 C107.396484,159.736328 106.572917,161.682943 104.925781,163.330078 C103.278646,164.827474 101.406901,165.576172 99.3105469,165.576172 C97.0644531,165.576172 95.1178385,164.827474 93.4707031,163.330078 C91.8235677,161.682943 91,159.736328 91,157.490234 C91,153.147786 91,146.634115 91,137.949219 C91,137.949219 91,137.949219 91,137.949219 C91,137.949219 91,137.949219 91,137.949219 C91,126.86849 91,110.247396 91,88.0859375 C91,85.8398438 91.8235677,83.8932292 93.4707031,82.2460938 C95.1178385,80.7486979 97.0644531,80 99.3105469,80 C101.406901,80 103.278646,80.7486979 104.925781,82.2460938 C106.572917,83.8932292 107.396484,85.8398438 107.396484,88.0859375 C107.396484,88.984375 107.396484,90.2571615 107.396484,91.9042969 C110.690755,88.0110677 114.209635,85.016276 117.953125,82.9199219 C121.846354,80.9733073 125.814453,80 129.857422,80 C135.996745,80 140.788411,81.1979167 144.232422,83.59375 C147.676432,85.9895833 150.147135,88.4602865 151.644531,91.0058594 Z M128.810547,67.5996094 C133.152995,67.5996094 137.195964,68.1985677 140.939453,69.3964844 C144.682943,70.594401 148.126953,72.3164062 151.271484,74.5625 C150.822266,74.8619792 150.223307,75.3860677 149.474609,76.1347656 C146.629557,74.0384115 143.485026,72.4661458 140.041016,71.4179688 C136.597005,70.3697917 132.853516,69.8457031 128.810547,69.8457031 C127.313151,69.8457031 125.815755,69.9954427 124.318359,70.2949219 C122.820964,70.4446615 121.323568,70.7441406 119.826172,71.1933594 C119.826172,70.8938802 119.826172,70.594401 119.826172,70.2949219 C119.676432,69.9954427 119.526693,69.6959635 119.376953,69.3964844 C119.376953,69.3964844 119.376953,69.3216146 119.376953,69.171875 C119.227214,69.171875 119.152344,69.0970052 119.152344,68.9472656 C120.799479,68.4980469 122.371745,68.1985677 123.869141,68.0488281 C125.516276,67.749349 127.163411,67.5996094 128.810547,67.5996094 Z M116.90625,76.359375 C116.90625,76.2096354 116.98112,76.1347656 117.130859,76.1347656 C117.130859,76.1347656 117.205729,76.1347656 117.355469,76.1347656 C117.205729,76.1347656 117.130859,76.1347656 117.130859,76.1347656 C116.98112,76.1347656 116.90625,76.2096354 116.90625,76.359375 Z M116.681641,76.359375 C116.681641,76.359375 116.681641,76.359375 116.681641,76.359375 C116.681641,76.359375 116.75651,76.359375 116.90625,76.359375 C116.75651,76.359375 116.681641,76.359375 116.681641,76.359375 C116.681641,76.359375 116.681641,76.359375 116.681641,76.359375 Z M117.130859,75.4609375 C117.879557,75.1614583 118.478516,74.5625 118.927734,73.6640625 C119.227214,72.9153646 119.376953,72.1666667 119.376953,71.4179688 C119.526693,71.2682292 119.601562,71.1933594 119.601562,71.1933594 C119.751302,71.1933594 119.901042,71.1933594 120.050781,71.1933594 C120.050781,72.0917969 119.826172,72.9902344 119.376953,73.8886719 C118.927734,74.7871094 118.253906,75.4609375 117.355469,75.9101562 C116.157552,76.6588542 114.884766,76.8085938 113.537109,76.359375 C112.339193,75.9101562 111.365885,75.0865885 110.617187,73.8886719 C110.018229,72.6907552 109.943359,71.4179688 110.392578,70.0703125 C110.841797,68.8723958 111.665365,67.9739583 112.863281,67.375 C113.911458,66.7760417 115.034505,66.6263021 116.232422,66.9257812 C117.430339,67.2252604 118.403646,67.8990885 119.152344,68.9472656 C119.002604,69.0970052 118.927734,69.171875 118.927734,69.171875 C118.777995,69.171875 118.628255,69.171875 118.478516,69.171875 C117.879557,68.2734375 117.05599,67.749349 116.007812,67.5996094 C114.959635,67.3001302 113.986328,67.375 113.087891,67.8242188 C112.039714,68.4231771 111.365885,69.2467448 111.066406,70.2949219 C110.617187,71.4928385 110.692057,72.6158854 111.291016,73.6640625 C111.740234,74.7122396 112.563802,75.3860677 113.761719,75.6855469 C114.959635,76.1347656 116.082682,76.0598958 117.130859,75.4609375 Z M117.580078,75.9101562 C117.580078,75.9101562 117.580078,75.9101562 117.580078,75.9101562 C117.430339,75.9101562 117.355469,75.985026 117.355469,76.1347656 C117.355469,75.985026 117.430339,75.9101562 117.580078,75.9101562 C117.580078,75.9101562 117.580078,75.9101562 117.580078,75.9101562 Z M118.029297,75.6855469 C117.879557,75.6855469 117.804688,75.6855469 117.804688,75.6855469 C117.804688,75.6855469 117.804688,75.7604167 117.804688,75.9101562 C117.804688,75.7604167 117.804688,75.6855469 117.804688,75.6855469 C117.804688,75.6855469 117.879557,75.6855469 118.029297,75.6855469 Z M119.152344,68.9472656 C119.152344,69.0970052 119.227214,69.171875 119.376953,69.171875 C119.376953,69.3216146 119.376953,69.3964844 119.376953,69.3964844 C119.526693,69.6959635 119.676432,69.9954427 119.826172,70.2949219 C119.826172,70.594401 119.826172,70.8938802 119.826172,71.1933594 C119.826172,71.1933594 119.751302,71.1933594 119.601562,71.1933594 C119.601562,71.343099 119.526693,71.4179688 119.376953,71.4179688 C119.376953,71.1184896 119.302083,70.8190104 119.152344,70.5195312 C119.152344,70.2200521 119.077474,69.9205729 118.927734,69.6210938 C118.927734,69.6210938 118.852865,69.546224 118.703125,69.3964844 C118.703125,69.3964844 118.628255,69.3216146 118.478516,69.171875 C118.628255,69.171875 118.777995,69.171875 118.927734,69.171875 C118.927734,69.171875 119.002604,69.0970052 119.152344,68.9472656 Z M113.087891,67.8242188 C114.136068,67.375 115.109375,67.3001302 116.007813,67.5996094 C117.05599,67.749349 117.879557,68.2734375 118.478516,69.171875 C118.478516,69.171875 118.403646,69.171875 118.253906,69.171875 C118.253906,69.3216146 118.179036,69.3964844 118.029297,69.3964844 C117.430339,68.6477865 116.681641,68.1985677 115.783203,68.0488281 C115.034505,67.8990885 114.210938,67.9739583 113.3125,68.2734375 C112.414063,68.7226562 111.815104,69.4713542 111.515625,70.5195312 C111.216146,71.5677083 111.291016,72.5410156 111.740234,73.4394531 C112.189453,74.3378906 112.938151,74.936849 113.986328,75.2363281 C114.884766,75.5358073 115.783203,75.4609375 116.681641,75.0117188 C117.430339,74.7122396 117.954427,74.188151 118.253906,73.4394531 C118.703125,72.8404948 118.852865,72.1666667 118.703125,71.4179688 C118.852865,71.4179688 119.002604,71.4179688 119.152344,71.4179688 C119.152344,71.4179688 119.227214,71.4179688 119.376953,71.4179688 C119.376953,72.1666667 119.227214,72.9153646 118.927734,73.6640625 C118.478516,74.4127604 117.879557,75.0117188 117.130859,75.4609375 C116.082682,76.0598958 114.959635,76.1347656 113.761719,75.6855469 C112.563802,75.3860677 111.740234,74.7122396 111.291016,73.6640625 C110.692057,72.6158854 110.542318,71.4928385 110.841797,70.2949219 C111.291016,69.2467448 112.039714,68.4231771 113.087891,67.8242188 Z M118.478516,70.0703125 C118.328776,69.9205729 118.253906,69.7708333 118.253906,69.6210938 C118.104167,69.4713542 118.029297,69.3964844 118.029297,69.3964844 C118.179036,69.3964844 118.253906,69.3216146 118.253906,69.171875 C118.403646,69.171875 118.478516,69.171875 118.478516,69.171875 C118.628255,69.3216146 118.703125,69.3964844 118.703125,69.3964844 C118.852865,69.546224 118.927734,69.6210938 118.927734,69.6210938 C119.077474,69.9205729 119.152344,70.2200521 119.152344,70.5195312 C119.302083,70.8190104 119.376953,71.1184896 119.376953,71.4179688 C119.227214,71.4179688 119.152344,71.4179688 119.152344,71.4179688 C119.002604,71.4179688 118.852865,71.4179688 118.703125,71.4179688 C118.703125,71.2682292 118.703125,71.0436198 118.703125,70.7441406 C118.553385,70.4446615 118.478516,70.2200521 118.478516,70.0703125 Z M151.271484,74.5625 C151.720703,74.1132812 152.319661,73.5891927 153.068359,72.9902344 C154.266276,75.5358073 156.212891,79.3541667 158.908203,84.4453125 C156.51237,82.7981771 152.91862,80.4772135 148.126953,77.4824219 C148.426432,77.1829427 148.875651,76.733724 149.474609,76.1347656 C149.923828,76.4342448 150.298177,76.6588542 150.597656,76.8085938 C150.897135,77.1080729 151.196615,77.4075521 151.496094,77.7070312 C151.795573,77.2578125 152.319661,76.6588542 153.068359,75.9101562 C152.76888,75.6106771 152.469401,75.3860677 152.169922,75.2363281 C151.870443,74.936849 151.570964,74.7122396 151.271484,74.5625 Z M153.068359,75.9101562 C152.619141,76.2096354 152.095052,76.733724 151.496094,77.4824219 C151.196615,77.3326823 150.897135,77.1080729 150.597656,76.8085938 C150.298177,76.5091146 149.923828,76.2845052 149.474609,76.1347656 C149.923828,75.6855469 150.522786,75.1614583 151.271484,74.5625 C151.570964,74.7122396 151.870443,74.936849 152.169922,75.2363281 C152.469401,75.3860677 152.76888,75.6106771 153.068359,75.9101562 Z M79.171875,96.3496094 C79.3216146,96.3496094 79.4713542,96.4244792 79.6210938,96.5742188 C79.7708333,96.5742188 79.9954427,96.5742188 80.2949219,96.5742188 C80.4446615,96.5742188 80.594401,96.5742188 80.7441406,96.5742188 C81.0436198,96.4244792 81.2682292,96.3496094 81.4179688,96.3496094 C81.4179688,106.83138 81.4179688,122.628906 81.4179688,143.742188 C80.8190104,143.742188 80.0703125,143.742188 79.171875,143.742188 C79.171875,135.80599 79.171875,127.869792 79.171875,119.933594 C79.171875,112.147135 79.171875,104.285807 79.171875,96.3496094 Z M79.171875,145.988281 C79.171875,145.539062 79.171875,144.790365 79.171875,143.742188 C78.5729167,143.742188 77.8242188,143.742188 76.9257812,143.742188 C77.6744792,146.4375 78.797526,150.555339 80.2949219,156.095703 C81.0436198,153.400391 82.1666667,149.282552 83.6640625,143.742188 C83.0651042,143.742188 82.3164062,143.742188 81.4179688,143.742188 C81.4179688,144.191406 81.4179688,144.940104 81.4179688,145.988281 C80.8190104,145.988281 80.0703125,145.988281 79.171875,145.988281 Z M79.171875,145.988281 C79.6210938,145.988281 80.3697917,145.988281 81.4179688,145.988281 C81.4179688,145.539062 81.4179688,144.790365 81.4179688,143.742188 C80.8190104,143.742188 80.0703125,143.742188 79.171875,143.742188 C79.171875,144.191406 79.171875,144.940104 79.171875,145.988281 Z M80.2949219,86.6914062 C81.6425781,86.6914062 82.765625,87.140625 83.6640625,88.0390625 C84.5625,89.0872396 85.0117188,90.2851562 85.0117188,91.6328125 C85.0117188,92.8307292 84.7122396,93.8040365 84.1132812,94.5527344 C83.3645833,95.4511719 82.4661458,96.0501302 81.4179688,96.3496094 C81.4179688,96.1998698 81.4179688,95.9752604 81.4179688,95.6757812 C82.3164062,95.5260417 83.0651042,95.0768229 83.6640625,94.328125 C84.2630208,93.5794271 84.5625,92.6809896 84.5625,91.6328125 C84.5625,90.4348958 84.1132812,89.3867188 83.2148438,88.4882812 C82.4661458,87.7395833 81.4928385,87.3652344 80.2949219,87.3652344 C79.0970052,87.3652344 78.0488281,87.7395833 77.1503906,88.4882812 C76.2519531,89.3867188 75.8027344,90.4348958 75.8027344,91.6328125 C75.8027344,92.6809896 76.1022135,93.5794271 76.7011719,94.328125 C77.3001302,95.0768229 78.1236979,95.5260417 79.171875,95.6757812 C79.171875,95.8255208 79.171875,96.0501302 79.171875,96.3496094 C77.9739583,96.0501302 77.0755208,95.4511719 76.4765625,94.5527344 C75.7278646,93.8040365 75.3535156,92.8307292 75.3535156,91.6328125 C75.3535156,90.2851562 75.8027344,89.1621094 76.7011719,88.2636719 C77.749349,87.2154948 78.9472656,86.6914062 80.2949219,86.6914062 Z M80.2949219,95.9003906 C80.4446615,95.9003906 80.594401,95.9003906 80.7441406,95.9003906 C81.0436198,95.9003906 81.2682292,95.8255208 81.4179688,95.6757812 C81.4179688,95.8255208 81.4179688,96.0501302 81.4179688,96.3496094 C81.2682292,96.3496094 81.0436198,96.4244792 80.7441406,96.5742188 C80.594401,96.5742188 80.4446615,96.5742188 80.2949219,96.5742188 C79.9954427,96.5742188 79.7708333,96.5742188 79.6210938,96.5742188 C79.4713542,96.4244792 79.3216146,96.3496094 79.171875,96.3496094 C79.171875,96.1998698 79.171875,95.9752604 79.171875,95.6757812 C79.3216146,95.8255208 79.4713542,95.9003906 79.6210938,95.9003906 C79.7708333,95.9003906 79.9954427,95.9003906 80.2949219,95.9003906 Z M76.4765625,91.6328125 C76.4765625,92.3815104 76.7011719,93.1302083 77.1503906,93.8789062 C77.749349,94.4778646 78.4231771,94.9270833 79.171875,95.2265625 C79.171875,95.3763021 79.171875,95.5260417 79.171875,95.6757812 C78.1236979,95.5260417 77.3001302,95.0768229 76.7011719,94.328125 C76.1022135,93.5794271 75.8027344,92.6809896 75.8027344,91.6328125 C75.8027344,90.4348958 76.2519531,89.3867188 77.1503906,88.4882812 C78.0488281,87.7395833 79.0970052,87.3652344 80.2949219,87.3652344 C81.4928385,87.3652344 82.4661458,87.7395833 83.2148438,88.4882812 C84.1132812,89.3867188 84.5625,90.4348958 84.5625,91.6328125 C84.5625,92.6809896 84.2630208,93.5794271 83.6640625,94.328125 C83.0651042,95.0768229 82.3164062,95.5260417 81.4179688,95.6757812 C81.4179688,95.5260417 81.4179688,95.3763021 81.4179688,95.2265625 C82.1666667,94.9270833 82.765625,94.4778646 83.2148438,93.8789062 C83.6640625,93.1302083 83.8886719,92.3815104 83.8886719,91.6328125 C83.8886719,90.5846354 83.5143229,89.6861979 82.765625,88.9375 C82.1666667,88.1888021 81.343099,87.8144531 80.2949219,87.8144531 C79.2467448,87.8144531 78.3483073,88.1888021 77.5996094,88.9375 C76.8509115,89.6861979 76.4765625,90.5846354 76.4765625,91.6328125 C76.4765625,91.4830729 76.4765625,91.3333333 76.4765625,91.1835938 C76.4765625,91.0338542 76.4765625,90.9589844 76.4765625,90.9589844 C76.4765625,90.9589844 76.4765625,91.0338542 76.4765625,91.1835938 C76.4765625,91.3333333 76.4765625,91.4830729 76.4765625,91.6328125 C76.4765625,91.7825521 76.4765625,91.9322917 76.4765625,92.0820312 C76.4765625,92.0820312 76.4765625,92.156901 76.4765625,92.3066406 C76.4765625,92.156901 76.4765625,92.0820312 76.4765625,92.0820312 C76.4765625,91.9322917 76.4765625,91.7825521 76.4765625,91.6328125 Z M81.4179688,95.6757812 C81.2682292,95.8255208 81.0436198,95.9003906 80.7441406,95.9003906 C80.594401,95.9003906 80.4446615,95.9003906 80.2949219,95.9003906 C79.9954427,95.9003906 79.7708333,95.9003906 79.6210938,95.9003906 C79.4713542,95.9003906 79.3216146,95.8255208 79.171875,95.6757812 C79.171875,95.5260417 79.171875,95.3763021 79.171875,95.2265625 C79.3216146,95.2265625 79.4713542,95.2265625 79.6210938,95.2265625 C79.7708333,95.3763021 79.9954427,95.4511719 80.2949219,95.4511719 C80.4446615,95.4511719 80.594401,95.3763021 80.7441406,95.2265625 C81.0436198,95.2265625 81.2682292,95.2265625 81.4179688,95.2265625 C81.4179688,95.2265625 81.4179688,95.3014323 81.4179688,95.4511719 C81.4179688,95.6009115 81.4179688,95.6757812 81.4179688,95.6757812 Z M66.59375,91.8574219 C66.7434896,91.8574219 66.8183594,91.9322917 66.8183594,92.0820312 C66.968099,92.0820312 67.0429688,92.156901 67.0429688,92.3066406 C67.1927083,92.3066406 67.2675781,92.3815104 67.2675781,92.53125 C67.2675781,92.53125 67.2675781,92.6061198 67.2675781,92.7558594 C67.2675781,94.702474 67.2675781,97.0234375 67.2675781,99.71875 C67.2675781,102.563802 67.2675781,105.783203 67.2675781,109.376953 C67.2675781,109.526693 67.2675781,109.676432 67.2675781,109.826172 C67.1178385,109.975911 67.0429688,110.050781 67.0429688,110.050781 C66.8932292,110.200521 66.7434896,110.275391 66.59375,110.275391 C66.4440104,110.42513 66.3691406,110.5 66.3691406,110.5 C66.219401,110.5 66.0696615,110.42513 65.9199219,110.275391 C65.7701823,110.275391 65.6953125,110.200521 65.6953125,110.050781 C65.5455729,110.050781 65.4707031,109.975911 65.4707031,109.826172 C65.3209635,109.676432 65.2460938,109.526693 65.2460938,109.376953 C65.2460938,107.879557 65.2460938,105.932943 65.2460938,103.537109 C65.2460938,101.141276 65.2460938,98.3710938 65.2460938,95.2265625 C65.2460938,95.2265625 65.171224,95.3014323 65.0214844,95.4511719 C64.8717448,95.6009115 64.7220052,95.750651 64.5722656,95.9003906 C64.5722656,95.9003906 64.4973958,95.9752604 64.3476562,96.125 C64.1979167,96.125 64.0481771,96.125 63.8984375,96.125 C63.7486979,96.125 63.6738281,96.125 63.6738281,96.125 C63.5240885,95.9752604 63.374349,95.9003906 63.2246094,95.9003906 C63.2246094,95.750651 63.1497396,95.6009115 63,95.4511719 C63,95.3014323 63,95.2265625 63,95.2265625 C63,95.0768229 63,94.9270833 63,94.7773438 C63.1497396,94.6276042 63.2246094,94.5527344 63.2246094,94.5527344 C63.5240885,94.2532552 63.8984375,93.8789062 64.3476562,93.4296875 C64.6471354,93.1302083 65.0963542,92.6809896 65.6953125,92.0820312 C65.6953125,92.0820312 65.7701823,92.0071615 65.9199219,91.8574219 C65.9199219,91.8574219 65.9947917,91.8574219 66.1445312,91.8574219 C66.1445312,91.8574219 66.1445312,91.8574219 66.1445312,91.8574219 C66.2942708,91.8574219 66.3691406,91.8574219 66.3691406,91.8574219 C66.3691406,91.8574219 66.4440104,91.8574219 66.59375,91.8574219 C66.59375,91.8574219 66.59375,91.8574219 66.59375,91.8574219 Z M104.103516,69.6210938 C104.253255,69.6210938 104.402995,69.6959635 104.552734,69.8457031 C104.552734,69.8457031 104.627604,69.8457031 104.777344,69.8457031 C104.927083,69.9954427 105.001953,70.1451823 105.001953,70.2949219 C105.001953,70.4446615 105.001953,70.594401 105.001953,70.7441406 C105.001953,70.7441406 105.001953,70.8190104 105.001953,70.96875 C105.001953,71.1184896 104.927083,71.2682292 104.777344,71.4179688 C104.627604,71.4179688 104.552734,71.4928385 104.552734,71.6425781 C104.402995,71.6425781 104.253255,71.6425781 104.103516,71.6425781 C103.354818,71.6425781 102.60612,71.6425781 101.857422,71.6425781 C100.958984,71.6425781 100.135417,71.6425781 99.3867188,71.6425781 C98.6380208,71.6425781 97.8893229,71.6425781 97.140625,71.6425781 C96.2421875,71.6425781 95.4186198,71.6425781 94.6699219,71.6425781 C94.6699219,71.6425781 94.5950521,71.6425781 94.4453125,71.6425781 C94.4453125,71.6425781 94.3704427,71.5677083 94.2207031,71.4179688 C94.2207031,71.4179688 94.2207031,71.4179688 94.2207031,71.4179688 C94.0709635,71.4179688 93.9960938,71.343099 93.9960938,71.1933594 C93.9960938,71.1933594 93.921224,71.1933594 93.7714844,71.1933594 C93.7714844,71.0436198 93.7714844,70.96875 93.7714844,70.96875 C93.7714844,70.96875 93.7714844,70.8938802 93.7714844,70.7441406 C93.7714844,70.7441406 93.7714844,70.7441406 93.7714844,70.7441406 C93.7714844,70.594401 93.7714844,70.5195312 93.7714844,70.5195312 C93.7714844,70.5195312 93.7714844,70.5195312 93.7714844,70.5195312 C93.7714844,70.5195312 93.7714844,70.3697917 93.7714844,70.0703125 C93.921224,69.9205729 93.9960938,69.6210938 93.9960938,69.171875 C94.1458333,68.7226562 94.2955729,68.1985677 94.4453125,67.5996094 C94.7447917,67.1503906 95.0442708,66.6263021 95.34375,66.0273438 C95.6432292,65.7278646 95.8678385,65.4283854 96.0175781,65.1289062 C96.3170573,64.8294271 96.6165365,64.5299479 96.9160156,64.2304688 C97.2154948,63.9309896 97.514974,63.6315104 97.8144531,63.3320312 C98.1139323,63.0325521 98.4882812,62.8079427 98.9375,62.6582031 C99.8359375,62.0592448 100.509766,61.5351562 100.958984,61.0859375 C101.557943,60.6367188 101.932292,60.2623698 102.082031,59.9628906 C102.38151,59.5136719 102.60612,59.1393229 102.755859,58.8398438 C102.755859,58.5403646 102.755859,58.1660156 102.755859,57.7167969 C102.755859,57.7167969 102.755859,57.6419271 102.755859,57.4921875 C102.755859,57.3424479 102.755859,57.2675781 102.755859,57.2675781 C102.755859,57.1178385 102.755859,56.968099 102.755859,56.8183594 C102.755859,56.8183594 102.68099,56.7434896 102.53125,56.59375 C102.53125,56.2942708 102.45638,56.0696615 102.306641,55.9199219 C102.007161,55.7701823 101.782552,55.6204427 101.632812,55.4707031 C101.333333,55.3209635 101.033854,55.171224 100.734375,55.0214844 C100.285156,55.0214844 99.8359375,55.0214844 99.3867188,55.0214844 C99.0872396,55.0214844 98.7877604,55.0214844 98.4882812,55.0214844 C98.0390625,55.171224 97.7395833,55.3209635 97.5898438,55.4707031 C97.2903646,55.6204427 97.0657552,55.7701823 96.9160156,55.9199219 C96.6165365,56.219401 96.3919271,56.5188802 96.2421875,56.8183594 C96.2421875,56.968099 96.1673177,57.0429688 96.0175781,57.0429688 C96.0175781,57.1927083 95.9427083,57.2675781 95.7929688,57.2675781 C95.6432292,57.4173177 95.4934896,57.4921875 95.34375,57.4921875 C95.1940104,57.4921875 95.1191406,57.4173177 95.1191406,57.2675781 C94.969401,57.2675781 94.8196615,57.1927083 94.6699219,57.0429688 C94.6699219,57.0429688 94.5950521,56.968099 94.4453125,56.8183594 C94.4453125,56.6686198 94.4453125,56.5188802 94.4453125,56.3691406 C94.4453125,56.219401 94.4453125,56.0696615 94.4453125,55.9199219 C94.7447917,55.4707031 95.0442708,55.0963542 95.34375,54.796875 C95.6432292,54.3476562 96.0175781,53.9733073 96.4667969,53.6738281 C96.9160156,53.5240885 97.3652344,53.374349 97.8144531,53.2246094 C98.2636719,53.0748698 98.7877604,53 99.3867188,53 C100.434896,53 101.258464,53.1497396 101.857422,53.4492188 C102.60612,53.5989583 103.205078,53.9733073 103.654297,54.5722656 C103.953776,55.0214844 104.253255,55.5455729 104.552734,56.1445312 C104.702474,56.7434896 104.777344,57.3424479 104.777344,57.9414062 C104.777344,58.5403646 104.702474,59.0644531 104.552734,59.5136719 C104.402995,60.1126302 104.103516,60.6367188 103.654297,61.0859375 C103.354818,61.6848958 102.905599,62.2089844 102.306641,62.6582031 C101.707682,63.2571615 100.958984,63.78125 100.060547,64.2304688 C99.311849,64.6796875 98.7128906,65.1289062 98.2636719,65.578125 C97.8144531,66.0273438 97.4401042,66.5514323 97.140625,67.1503906 C96.8411458,67.5996094 96.6165365,68.0488281 96.4667969,68.4980469 C96.1673177,68.9472656 96.0175781,69.3216146 96.0175781,69.6210938 C96.9160156,69.6210938 98.0390625,69.6210938 99.3867188,69.6210938 C100.734375,69.6210938 102.306641,69.6210938 104.103516,69.6210938 Z"/></svg>