<svg xmlns="http://www.w3.org/2000/svg" width="83" height="243" viewBox="0 0 83 243"><path fill="#131313" d="M88.6445312,91.0058594 C89.8424479,92.952474 90.2167969,94.9739583 89.7675781,97.0703125 C89.3183594,99.3164062 88.1204427,101.038411 86.1738281,102.236328 C84.2272135,103.434245 82.2057292,103.808594 80.109375,103.359375 C77.8632812,102.760417 76.141276,101.5625 74.9433594,99.765625 C74.344401,98.8671875 73.5208333,98.0436198 72.4726562,97.2949219 C71.2747396,96.546224 69.4029948,96.171875 66.8574219,96.171875 C63.1139323,96.171875 59.5950521,98.4179688 56.3007812,102.910156 C52.8567708,107.402344 50.0865885,112.49349 47.9902344,118.183594 C46.7923177,121.328125 45.8938802,124.397786 45.2949219,127.392578 C44.6959635,130.38737 44.3964844,133.157552 44.3964844,135.703125 C44.3964844,140.644531 44.3964844,147.906901 44.3964844,157.490234 C44.3964844,159.736328 43.5729167,161.682943 41.9257812,163.330078 C40.2786458,164.827474 38.406901,165.576172 36.3105469,165.576172 C34.0644531,165.576172 32.1178385,164.827474 30.4707031,163.330078 C28.8235677,161.682943 28,159.736328 28,157.490234 C28,153.147786 28,146.634115 28,137.949219 C28,137.949219 28,137.949219 28,137.949219 C28,137.949219 28,137.949219 28,137.949219 C28,126.86849 28,110.247396 28,88.0859375 C28,85.8398438 28.8235677,83.8932292 30.4707031,82.2460938 C32.1178385,80.7486979 34.0644531,80 36.3105469,80 C38.406901,80 40.2786458,80.7486979 41.9257812,82.2460938 C43.5729167,83.8932292 44.3964844,85.8398438 44.3964844,88.0859375 C44.3964844,88.984375 44.3964844,90.2571615 44.3964844,91.9042969 C47.6907552,88.0110677 51.2096354,85.016276 54.953125,82.9199219 C58.8463542,80.9733073 62.8144531,80 66.8574219,80 C72.9967448,80 77.7884115,81.1979167 81.2324219,83.59375 C84.6764323,85.9895833 87.1471354,88.4602865 88.6445312,91.0058594 Z M65.8105469,67.5996094 C70.1529948,67.5996094 74.1959635,68.1985677 77.9394531,69.3964844 C81.6829427,70.594401 85.1269531,72.3164062 88.2714844,74.5625 C87.8222656,74.8619792 87.2233073,75.3860677 86.4746094,76.1347656 C83.6295573,74.0384115 80.485026,72.4661458 77.0410156,71.4179688 C73.5970052,70.3697917 69.8535156,69.8457031 65.8105469,69.8457031 C64.313151,69.8457031 62.8157552,69.9954427 61.3183594,70.2949219 C59.8209635,70.4446615 58.3235677,70.7441406 56.8261719,71.1933594 C56.8261719,70.8938802 56.8261719,70.594401 56.8261719,70.2949219 C56.6764323,69.9954427 56.5266927,69.6959635 56.3769531,69.3964844 C56.3769531,69.3964844 56.3769531,69.3216146 56.3769531,69.171875 C56.2272135,69.171875 56.1523438,69.0970052 56.1523438,68.9472656 C57.7994792,68.4980469 59.3717448,68.1985677 60.8691406,68.0488281 C62.516276,67.749349 64.1634115,67.5996094 65.8105469,67.5996094 Z M53.90625,76.359375 C53.90625,76.2096354 53.9811198,76.1347656 54.1308594,76.1347656 C54.1308594,76.1347656 54.2057292,76.1347656 54.3554688,76.1347656 C54.2057292,76.1347656 54.1308594,76.1347656 54.1308594,76.1347656 C53.9811198,76.1347656 53.90625,76.2096354 53.90625,76.359375 Z M53.6816406,76.359375 C53.6816406,76.359375 53.6816406,76.359375 53.6816406,76.359375 C53.6816406,76.359375 53.7565104,76.359375 53.90625,76.359375 C53.7565104,76.359375 53.6816406,76.359375 53.6816406,76.359375 C53.6816406,76.359375 53.6816406,76.359375 53.6816406,76.359375 Z M54.1308594,75.4609375 C54.8795573,75.1614583 55.4785156,74.5625 55.9277344,73.6640625 C56.2272135,72.9153646 56.3769531,72.1666667 56.3769531,71.4179688 C56.5266927,71.2682292 56.6015625,71.1933594 56.6015625,71.1933594 C56.7513021,71.1933594 56.9010417,71.1933594 57.0507812,71.1933594 C57.0507812,72.0917969 56.8261719,72.9902344 56.3769531,73.8886719 C55.9277344,74.7871094 55.2539062,75.4609375 54.3554687,75.9101562 C53.1575521,76.6588542 51.8847656,76.8085938 50.5371094,76.359375 C49.3391927,75.9101562 48.3658854,75.0865885 47.6171875,73.8886719 C47.0182292,72.6907552 46.9433594,71.4179688 47.3925781,70.0703125 C47.8417969,68.8723958 48.6653646,67.9739583 49.8632812,67.375 C50.9114583,66.7760417 52.0345052,66.6263021 53.2324219,66.9257812 C54.4303385,67.2252604 55.4036458,67.8990885 56.1523437,68.9472656 C56.0026042,69.0970052 55.9277344,69.171875 55.9277344,69.171875 C55.7779948,69.171875 55.6282552,69.171875 55.4785156,69.171875 C54.8795573,68.2734375 54.0559896,67.749349 53.0078125,67.5996094 C51.9596354,67.3001302 50.9863281,67.375 50.0878906,67.8242188 C49.0397135,68.4231771 48.3658854,69.2467448 48.0664062,70.2949219 C47.6171875,71.4928385 47.6920573,72.6158854 48.2910156,73.6640625 C48.7402344,74.7122396 49.5638021,75.3860677 50.7617187,75.6855469 C51.9596354,76.1347656 53.0826823,76.0598958 54.1308594,75.4609375 Z M54.5800781,75.9101562 C54.5800781,75.9101562 54.5800781,75.9101562 54.5800781,75.9101562 C54.4303385,75.9101562 54.3554688,75.985026 54.3554688,76.1347656 C54.3554688,75.985026 54.4303385,75.9101562 54.5800781,75.9101562 C54.5800781,75.9101562 54.5800781,75.9101562 54.5800781,75.9101562 Z M55.0292969,75.6855469 C54.8795573,75.6855469 54.8046875,75.6855469 54.8046875,75.6855469 C54.8046875,75.6855469 54.8046875,75.7604167 54.8046875,75.9101562 C54.8046875,75.7604167 54.8046875,75.6855469 54.8046875,75.6855469 C54.8046875,75.6855469 54.8795573,75.6855469 55.0292969,75.6855469 Z M56.1523438,68.9472656 C56.1523438,69.0970052 56.2272135,69.171875 56.3769531,69.171875 C56.3769531,69.3216146 56.3769531,69.3964844 56.3769531,69.3964844 C56.5266927,69.6959635 56.6764323,69.9954427 56.8261719,70.2949219 C56.8261719,70.594401 56.8261719,70.8938802 56.8261719,71.1933594 C56.8261719,71.1933594 56.7513021,71.1933594 56.6015625,71.1933594 C56.6015625,71.343099 56.5266927,71.4179688 56.3769531,71.4179688 C56.3769531,71.1184896 56.3020833,70.8190104 56.1523438,70.5195312 C56.1523438,70.2200521 56.077474,69.9205729 55.9277344,69.6210938 C55.9277344,69.6210938 55.8528646,69.546224 55.703125,69.3964844 C55.703125,69.3964844 55.6282552,69.3216146 55.4785156,69.171875 C55.6282552,69.171875 55.7779948,69.171875 55.9277344,69.171875 C55.9277344,69.171875 56.0026042,69.0970052 56.1523438,68.9472656 Z M50.0878906,67.8242188 C51.1360677,67.375 52.109375,67.3001302 53.0078125,67.5996094 C54.0559896,67.749349 54.8795573,68.2734375 55.4785156,69.171875 C55.4785156,69.171875 55.4036458,69.171875 55.2539063,69.171875 C55.2539063,69.3216146 55.1790365,69.3964844 55.0292969,69.3964844 C54.4303385,68.6477865 53.6816406,68.1985677 52.7832031,68.0488281 C52.0345052,67.8990885 51.2109375,67.9739583 50.3125,68.2734375 C49.4140625,68.7226562 48.8151042,69.4713542 48.515625,70.5195312 C48.2161458,71.5677083 48.2910156,72.5410156 48.7402344,73.4394531 C49.1894531,74.3378906 49.938151,74.936849 50.9863281,75.2363281 C51.8847656,75.5358073 52.7832031,75.4609375 53.6816406,75.0117188 C54.4303385,74.7122396 54.9544271,74.188151 55.2539063,73.4394531 C55.703125,72.8404948 55.8528646,72.1666667 55.703125,71.4179688 C55.8528646,71.4179688 56.0026042,71.4179688 56.1523438,71.4179688 C56.1523438,71.4179688 56.2272135,71.4179688 56.3769531,71.4179688 C56.3769531,72.1666667 56.2272135,72.9153646 55.9277344,73.6640625 C55.4785156,74.4127604 54.8795573,75.0117188 54.1308594,75.4609375 C53.0826823,76.0598958 51.9596354,76.1347656 50.7617188,75.6855469 C49.5638021,75.3860677 48.7402344,74.7122396 48.2910156,73.6640625 C47.6920573,72.6158854 47.5423177,71.4928385 47.8417969,70.2949219 C48.2910156,69.2467448 49.0397135,68.4231771 50.0878906,67.8242188 Z M55.4785156,70.0703125 C55.328776,69.9205729 55.2539062,69.7708333 55.2539062,69.6210938 C55.1041667,69.4713542 55.0292969,69.3964844 55.0292969,69.3964844 C55.1790365,69.3964844 55.2539062,69.3216146 55.2539062,69.171875 C55.4036458,69.171875 55.4785156,69.171875 55.4785156,69.171875 C55.6282552,69.3216146 55.703125,69.3964844 55.703125,69.3964844 C55.8528646,69.546224 55.9277344,69.6210938 55.9277344,69.6210938 C56.077474,69.9205729 56.1523438,70.2200521 56.1523438,70.5195312 C56.3020833,70.8190104 56.3769531,71.1184896 56.3769531,71.4179688 C56.2272135,71.4179688 56.1523438,71.4179688 56.1523438,71.4179688 C56.0026042,71.4179688 55.8528646,71.4179688 55.703125,71.4179688 C55.703125,71.2682292 55.703125,71.0436198 55.703125,70.7441406 C55.5533854,70.4446615 55.4785156,70.2200521 55.4785156,70.0703125 Z M88.2714844,74.5625 C88.7207031,74.1132812 89.3196615,73.5891927 90.0683594,72.9902344 C91.266276,75.5358073 93.2128906,79.3541667 95.9082031,84.4453125 C93.5123698,82.7981771 89.9186198,80.4772135 85.1269531,77.4824219 C85.4264323,77.1829427 85.875651,76.733724 86.4746094,76.1347656 C86.9238281,76.4342448 87.2981771,76.6588542 87.5976562,76.8085938 C87.8971354,77.1080729 88.1966146,77.4075521 88.4960938,77.7070312 C88.7955729,77.2578125 89.3196615,76.6588542 90.0683594,75.9101562 C89.7688802,75.6106771 89.469401,75.3860677 89.1699219,75.2363281 C88.8704427,74.936849 88.5709635,74.7122396 88.2714844,74.5625 Z M90.0683594,75.9101562 C89.6191406,76.2096354 89.0950521,76.733724 88.4960938,77.4824219 C88.1966146,77.3326823 87.8971354,77.1080729 87.5976562,76.8085938 C87.2981771,76.5091146 86.9238281,76.2845052 86.4746094,76.1347656 C86.9238281,75.6855469 87.5227865,75.1614583 88.2714844,74.5625 C88.5709635,74.7122396 88.8704427,74.936849 89.1699219,75.2363281 C89.469401,75.3860677 89.7688802,75.6106771 90.0683594,75.9101562 Z M16.171875,96.3496094 C16.3216146,96.3496094 16.4713542,96.4244792 16.6210938,96.5742188 C16.7708333,96.5742188 16.9954427,96.5742188 17.2949219,96.5742188 C17.4446615,96.5742188 17.594401,96.5742188 17.7441406,96.5742188 C18.0436198,96.4244792 18.2682292,96.3496094 18.4179688,96.3496094 C18.4179688,106.83138 18.4179688,122.628906 18.4179688,143.742188 C17.8190104,143.742188 17.0703125,143.742188 16.171875,143.742188 C16.171875,135.80599 16.171875,127.869792 16.171875,119.933594 C16.171875,112.147135 16.171875,104.285807 16.171875,96.3496094 Z M16.171875,145.988281 C16.171875,145.539062 16.171875,144.790365 16.171875,143.742188 C15.5729167,143.742188 14.8242188,143.742188 13.9257812,143.742188 C14.6744792,146.4375 15.797526,150.555339 17.2949219,156.095703 C18.0436198,153.400391 19.1666667,149.282552 20.6640625,143.742188 C20.0651042,143.742188 19.3164062,143.742188 18.4179688,143.742188 C18.4179688,144.191406 18.4179688,144.940104 18.4179688,145.988281 C17.8190104,145.988281 17.0703125,145.988281 16.171875,145.988281 Z M16.171875,145.988281 C16.6210938,145.988281 17.3697917,145.988281 18.4179688,145.988281 C18.4179688,145.539062 18.4179688,144.790365 18.4179688,143.742188 C17.8190104,143.742188 17.0703125,143.742188 16.171875,143.742188 C16.171875,144.191406 16.171875,144.940104 16.171875,145.988281 Z M17.2949219,86.6914062 C18.6425781,86.6914062 19.765625,87.140625 20.6640625,88.0390625 C21.5625,89.0872396 22.0117188,90.2851562 22.0117188,91.6328125 C22.0117188,92.8307292 21.7122396,93.8040365 21.1132812,94.5527344 C20.3645833,95.4511719 19.4661458,96.0501302 18.4179688,96.3496094 C18.4179688,96.1998698 18.4179688,95.9752604 18.4179688,95.6757812 C19.3164062,95.5260417 20.0651042,95.0768229 20.6640625,94.328125 C21.2630208,93.5794271 21.5625,92.6809896 21.5625,91.6328125 C21.5625,90.4348958 21.1132812,89.3867188 20.2148438,88.4882812 C19.4661458,87.7395833 18.4928385,87.3652344 17.2949219,87.3652344 C16.0970052,87.3652344 15.0488281,87.7395833 14.1503906,88.4882812 C13.2519531,89.3867188 12.8027344,90.4348958 12.8027344,91.6328125 C12.8027344,92.6809896 13.1022135,93.5794271 13.7011719,94.328125 C14.3001302,95.0768229 15.1236979,95.5260417 16.171875,95.6757812 C16.171875,95.8255208 16.171875,96.0501302 16.171875,96.3496094 C14.9739583,96.0501302 14.0755208,95.4511719 13.4765625,94.5527344 C12.7278646,93.8040365 12.3535156,92.8307292 12.3535156,91.6328125 C12.3535156,90.2851562 12.8027344,89.1621094 13.7011719,88.2636719 C14.749349,87.2154948 15.9472656,86.6914062 17.2949219,86.6914062 Z M17.2949219,95.9003906 C17.4446615,95.9003906 17.594401,95.9003906 17.7441406,95.9003906 C18.0436198,95.9003906 18.2682292,95.8255208 18.4179688,95.6757812 C18.4179688,95.8255208 18.4179688,96.0501302 18.4179688,96.3496094 C18.2682292,96.3496094 18.0436198,96.4244792 17.7441406,96.5742188 C17.594401,96.5742188 17.4446615,96.5742188 17.2949219,96.5742188 C16.9954427,96.5742188 16.7708333,96.5742188 16.6210938,96.5742188 C16.4713542,96.4244792 16.3216146,96.3496094 16.171875,96.3496094 C16.171875,96.1998698 16.171875,95.9752604 16.171875,95.6757812 C16.3216146,95.8255208 16.4713542,95.9003906 16.6210938,95.9003906 C16.7708333,95.9003906 16.9954427,95.9003906 17.2949219,95.9003906 Z M13.4765625,91.6328125 C13.4765625,92.3815104 13.7011719,93.1302083 14.1503906,93.8789062 C14.749349,94.4778646 15.4231771,94.9270833 16.171875,95.2265625 C16.171875,95.3763021 16.171875,95.5260417 16.171875,95.6757812 C15.1236979,95.5260417 14.3001302,95.0768229 13.7011719,94.328125 C13.1022135,93.5794271 12.8027344,92.6809896 12.8027344,91.6328125 C12.8027344,90.4348958 13.2519531,89.3867188 14.1503906,88.4882812 C15.0488281,87.7395833 16.0970052,87.3652344 17.2949219,87.3652344 C18.4928385,87.3652344 19.4661458,87.7395833 20.2148438,88.4882812 C21.1132812,89.3867188 21.5625,90.4348958 21.5625,91.6328125 C21.5625,92.6809896 21.2630208,93.5794271 20.6640625,94.328125 C20.0651042,95.0768229 19.3164062,95.5260417 18.4179688,95.6757812 C18.4179688,95.5260417 18.4179688,95.3763021 18.4179688,95.2265625 C19.1666667,94.9270833 19.765625,94.4778646 20.2148438,93.8789062 C20.6640625,93.1302083 20.8886719,92.3815104 20.8886719,91.6328125 C20.8886719,90.5846354 20.5143229,89.6861979 19.765625,88.9375 C19.1666667,88.1888021 18.343099,87.8144531 17.2949219,87.8144531 C16.2467448,87.8144531 15.3483073,88.1888021 14.5996094,88.9375 C13.8509115,89.6861979 13.4765625,90.5846354 13.4765625,91.6328125 C13.4765625,91.4830729 13.4765625,91.3333333 13.4765625,91.1835938 C13.4765625,91.0338542 13.4765625,90.9589844 13.4765625,90.9589844 C13.4765625,90.9589844 13.4765625,91.0338542 13.4765625,91.1835938 C13.4765625,91.3333333 13.4765625,91.4830729 13.4765625,91.6328125 C13.4765625,91.7825521 13.4765625,91.9322917 13.4765625,92.0820312 C13.4765625,92.0820312 13.4765625,92.156901 13.4765625,92.3066406 C13.4765625,92.156901 13.4765625,92.0820312 13.4765625,92.0820312 C13.4765625,91.9322917 13.4765625,91.7825521 13.4765625,91.6328125 Z M18.4179688,95.6757812 C18.2682292,95.8255208 18.0436198,95.9003906 17.7441406,95.9003906 C17.594401,95.9003906 17.4446615,95.9003906 17.2949219,95.9003906 C16.9954427,95.9003906 16.7708333,95.9003906 16.6210938,95.9003906 C16.4713542,95.9003906 16.3216146,95.8255208 16.171875,95.6757812 C16.171875,95.5260417 16.171875,95.3763021 16.171875,95.2265625 C16.3216146,95.2265625 16.4713542,95.2265625 16.6210938,95.2265625 C16.7708333,95.3763021 16.9954427,95.4511719 17.2949219,95.4511719 C17.4446615,95.4511719 17.594401,95.3763021 17.7441406,95.2265625 C18.0436198,95.2265625 18.2682292,95.2265625 18.4179688,95.2265625 C18.4179688,95.2265625 18.4179688,95.3014323 18.4179688,95.4511719 C18.4179688,95.6009115 18.4179688,95.6757812 18.4179688,95.6757812 Z M3.59375,91.8574219 C3.74348958,91.8574219 3.81835938,91.9322917 3.81835938,92.0820312 C3.96809896,92.0820312 4.04296875,92.156901 4.04296875,92.3066406 C4.19270833,92.3066406 4.26757812,92.3815104 4.26757812,92.53125 C4.26757812,92.53125 4.26757812,92.6061198 4.26757812,92.7558594 C4.26757812,94.702474 4.26757812,97.0234375 4.26757812,99.71875 C4.26757812,102.563802 4.26757812,105.783203 4.26757812,109.376953 C4.26757812,109.526693 4.26757812,109.676432 4.26757812,109.826172 C4.11783854,109.975911 4.04296875,110.050781 4.04296875,110.050781 C3.89322917,110.200521 3.74348958,110.275391 3.59375,110.275391 C3.44401042,110.42513 3.36914062,110.5 3.36914062,110.5 C3.21940104,110.5 3.06966146,110.42513 2.91992188,110.275391 C2.77018229,110.275391 2.6953125,110.200521 2.6953125,110.050781 C2.54557292,110.050781 2.47070312,109.975911 2.47070312,109.826172 C2.32096354,109.676432 2.24609375,109.526693 2.24609375,109.376953 C2.24609375,107.879557 2.24609375,105.932943 2.24609375,103.537109 C2.24609375,101.141276 2.24609375,98.3710938 2.24609375,95.2265625 C2.24609375,95.2265625 2.17122396,95.3014323 2.02148438,95.4511719 C1.87174479,95.6009115 1.72200521,95.750651 1.57226562,95.9003906 C1.57226562,95.9003906 1.49739583,95.9752604 1.34765625,96.125 C1.19791667,96.125 1.04817708,96.125 0.8984375,96.125 C0.748697917,96.125 0.673828125,96.125 0.673828125,96.125 C0.524088542,95.9752604 0.374348958,95.9003906 0.224609375,95.9003906 C0.224609375,95.750651 0.149739583,95.6009115 0,95.4511719 C0,95.3014323 0,95.2265625 0,95.2265625 C0,95.0768229 0,94.9270833 0,94.7773438 C0.149739583,94.6276042 0.224609375,94.5527344 0.224609375,94.5527344 C0.524088542,94.2532552 0.8984375,93.8789062 1.34765625,93.4296875 C1.64713542,93.1302083 2.09635417,92.6809896 2.6953125,92.0820312 C2.6953125,92.0820312 2.77018229,92.0071615 2.91992188,91.8574219 C2.91992188,91.8574219 2.99479167,91.8574219 3.14453125,91.8574219 C3.14453125,91.8574219 3.14453125,91.8574219 3.14453125,91.8574219 C3.29427083,91.8574219 3.36914062,91.8574219 3.36914062,91.8574219 C3.36914062,91.8574219 3.44401042,91.8574219 3.59375,91.8574219 C3.59375,91.8574219 3.59375,91.8574219 3.59375,91.8574219 Z M41.1035156,69.6210938 C41.2532552,69.6210938 41.4029948,69.6959635 41.5527344,69.8457031 C41.5527344,69.8457031 41.6276042,69.8457031 41.7773438,69.8457031 C41.9270833,69.9954427 42.0019531,70.1451823 42.0019531,70.2949219 C42.0019531,70.4446615 42.0019531,70.594401 42.0019531,70.7441406 C42.0019531,70.7441406 42.0019531,70.8190104 42.0019531,70.96875 C42.0019531,71.1184896 41.9270833,71.2682292 41.7773438,71.4179688 C41.6276042,71.4179688 41.5527344,71.4928385 41.5527344,71.6425781 C41.4029948,71.6425781 41.2532552,71.6425781 41.1035156,71.6425781 C40.3548177,71.6425781 39.6061198,71.6425781 38.8574219,71.6425781 C37.9589844,71.6425781 37.1354167,71.6425781 36.3867188,71.6425781 C35.6380208,71.6425781 34.8893229,71.6425781 34.140625,71.6425781 C33.2421875,71.6425781 32.4186198,71.6425781 31.6699219,71.6425781 C31.6699219,71.6425781 31.5950521,71.6425781 31.4453125,71.6425781 C31.4453125,71.6425781 31.3704427,71.5677083 31.2207031,71.4179688 C31.2207031,71.4179688 31.2207031,71.4179688 31.2207031,71.4179688 C31.0709635,71.4179688 30.9960938,71.343099 30.9960938,71.1933594 C30.9960938,71.1933594 30.921224,71.1933594 30.7714844,71.1933594 C30.7714844,71.0436198 30.7714844,70.96875 30.7714844,70.96875 C30.7714844,70.96875 30.7714844,70.8938802 30.7714844,70.7441406 C30.7714844,70.7441406 30.7714844,70.7441406 30.7714844,70.7441406 C30.7714844,70.594401 30.7714844,70.5195312 30.7714844,70.5195312 C30.7714844,70.5195312 30.7714844,70.5195312 30.7714844,70.5195312 C30.7714844,70.5195312 30.7714844,70.3697917 30.7714844,70.0703125 C30.921224,69.9205729 30.9960938,69.6210938 30.9960938,69.171875 C31.1458333,68.7226562 31.2955729,68.1985677 31.4453125,67.5996094 C31.7447917,67.1503906 32.0442708,66.6263021 32.34375,66.0273438 C32.6432292,65.7278646 32.8678385,65.4283854 33.0175781,65.1289062 C33.3170573,64.8294271 33.6165365,64.5299479 33.9160156,64.2304688 C34.2154948,63.9309896 34.514974,63.6315104 34.8144531,63.3320312 C35.1139323,63.0325521 35.4882812,62.8079427 35.9375,62.6582031 C36.8359375,62.0592448 37.5097656,61.5351562 37.9589844,61.0859375 C38.5579427,60.6367188 38.9322917,60.2623698 39.0820312,59.9628906 C39.3815104,59.5136719 39.6061198,59.1393229 39.7558594,58.8398438 C39.7558594,58.5403646 39.7558594,58.1660156 39.7558594,57.7167969 C39.7558594,57.7167969 39.7558594,57.6419271 39.7558594,57.4921875 C39.7558594,57.3424479 39.7558594,57.2675781 39.7558594,57.2675781 C39.7558594,57.1178385 39.7558594,56.968099 39.7558594,56.8183594 C39.7558594,56.8183594 39.6809896,56.7434896 39.53125,56.59375 C39.53125,56.2942708 39.4563802,56.0696615 39.3066406,55.9199219 C39.0071615,55.7701823 38.7825521,55.6204427 38.6328125,55.4707031 C38.3333333,55.3209635 38.0338542,55.171224 37.734375,55.0214844 C37.2851562,55.0214844 36.8359375,55.0214844 36.3867188,55.0214844 C36.0872396,55.0214844 35.7877604,55.0214844 35.4882812,55.0214844 C35.0390625,55.171224 34.7395833,55.3209635 34.5898438,55.4707031 C34.2903646,55.6204427 34.0657552,55.7701823 33.9160156,55.9199219 C33.6165365,56.219401 33.3919271,56.5188802 33.2421875,56.8183594 C33.2421875,56.968099 33.1673177,57.0429688 33.0175781,57.0429688 C33.0175781,57.1927083 32.9427083,57.2675781 32.7929688,57.2675781 C32.6432292,57.4173177 32.4934896,57.4921875 32.34375,57.4921875 C32.1940104,57.4921875 32.1191406,57.4173177 32.1191406,57.2675781 C31.969401,57.2675781 31.8196615,57.1927083 31.6699219,57.0429688 C31.6699219,57.0429688 31.5950521,56.968099 31.4453125,56.8183594 C31.4453125,56.6686198 31.4453125,56.5188802 31.4453125,56.3691406 C31.4453125,56.219401 31.4453125,56.0696615 31.4453125,55.9199219 C31.7447917,55.4707031 32.0442708,55.0963542 32.34375,54.796875 C32.6432292,54.3476562 33.0175781,53.9733073 33.4667969,53.6738281 C33.9160156,53.5240885 34.3652344,53.374349 34.8144531,53.2246094 C35.2636719,53.0748698 35.7877604,53 36.3867188,53 C37.4348958,53 38.2584635,53.1497396 38.8574219,53.4492188 C39.6061198,53.5989583 40.2050781,53.9733073 40.6542969,54.5722656 C40.953776,55.0214844 41.2532552,55.5455729 41.5527344,56.1445312 C41.702474,56.7434896 41.7773438,57.3424479 41.7773438,57.9414062 C41.7773438,58.5403646 41.702474,59.0644531 41.5527344,59.5136719 C41.4029948,60.1126302 41.1035156,60.6367188 40.6542969,61.0859375 C40.3548177,61.6848958 39.905599,62.2089844 39.3066406,62.6582031 C38.7076823,63.2571615 37.9589844,63.78125 37.0605469,64.2304688 C36.311849,64.6796875 35.7128906,65.1289062 35.2636719,65.578125 C34.8144531,66.0273438 34.4401042,66.5514323 34.140625,67.1503906 C33.8411458,67.5996094 33.6165365,68.0488281 33.4667969,68.4980469 C33.1673177,68.9472656 33.0175781,69.3216146 33.0175781,69.6210938 C33.9160156,69.6210938 35.0390625,69.6210938 36.3867188,69.6210938 C37.734375,69.6210938 39.3066406,69.6210938 41.1035156,69.6210938 Z" transform="translate(-17)"/></svg>