<svg xmlns="http://www.w3.org/2000/svg" width="72" height="203" viewBox="0 0 72 203"><path d="M1585.09951,117.578326 C1585.09951,109.037554 1584.4738,101.101753 1583.22237,93.7709227 C1581.97095,86.440093 1580.02019,79.2516094 1577.37011,72.2054721 C1574.72003,65.1593348 1571.37062,58.0420243 1567.32189,50.8535408 C1563.27315,43.6650572 1558.37786,36.0139485 1552.63602,27.9002146 C1552.04711,27.0461373 1552.08392,26.1564735 1552.74644,25.2312232 C1553.40896,24.3059728 1554.32913,23.4518956 1555.50694,22.6689914 C1556.68475,21.8860873 1558.0098,21.2455293 1559.48206,20.7473176 C1560.95433,20.2491059 1562.20576,20 1563.23634,20 C1566.76979,20 1573.9839,30.1777539 1584.87867,50.5332618 C1595.62622,70.7464235 1601,93.0947783 1601,117.578326 C1601,126.119099 1600.41109,134.446352 1599.23328,142.560086 C1598.05547,150.67382 1596.10471,158.751967 1593.38102,166.794528 C1590.65732,174.837089 1587.05027,183.021996 1582.55985,191.349249 C1578.06944,199.676502 1572.51163,208.324034 1565.88643,217.291845 C1565.00306,218.430615 1563.67802,219 1561.9113,219 C1560.14458,219 1558.41467,218.644134 1556.72156,217.932403 C1555.02845,217.220672 1553.70341,216.259835 1552.74644,215.049893 C1551.78947,213.83995 1551.75266,212.523247 1552.63602,211.099785 C1558.52509,202.27432 1563.5308,194.160587 1567.65315,186.758584 C1571.77549,179.356581 1575.1249,172.061338 1577.70137,164.872854 C1580.27784,157.684371 1582.15498,150.317954 1583.33279,142.773605 C1584.51061,135.229256 1585.09951,126.83083 1585.09951,117.578326 Z" transform="translate(-1552.384 -18.056)"/></svg>