<svg xmlns="http://www.w3.org/2000/svg" width="120" height="203" viewBox="0 0 120 203"><path fill="#131313" d="M3775.02145,151.353516 C3773.51038,149.842448 3772.75484,148.056641 3772.75484,145.996094 C3772.61747,143.935547 3773.30432,142.14974 3774.81539,140.638672 C3776.18909,139.264974 3777.90621,138.50944 3779.96676,138.37207 C3782.0273,138.37207 3783.81311,139.127604 3785.32418,140.638672 C3789.58264,144.622396 3794.66533,147.369792 3800.57223,148.880859 C3806.6165,150.254557 3811.1497,150.941406 3814.17184,150.941406 C3822.82613,150.941406 3829.62594,149.086914 3834.57125,145.37793 C3839.65393,141.668945 3842.81344,136.174154 3844.04977,128.893555 C3844.59924,125.734049 3844.59924,122.711914 3844.04977,119.827148 C3843.36292,117.079753 3842.12659,114.469727 3840.34078,111.99707 C3837.73076,108.150716 3834.02177,104.922526 3829.21383,102.3125 C3824.54326,99.8398437 3819.11715,98.0540365 3812.93551,96.9550781 C3799.88538,94.7571615 3790.06344,90.0179036 3783.46969,82.7373047 C3777.01331,75.5940755 3774.54065,66.733724 3776.05172,56.15625 C3776.73857,51.3483073 3778.38701,46.4029948 3780.99703,41.3203125 C3783.46969,36.375 3787.5221,32.3225911 3793.15426,29.1630859 C3796.17639,27.3772786 3799.67932,26.0035807 3803.66305,25.0419922 C3807.78414,24.0804036 3812.5234,23.5996094 3817.88082,23.5996094 C3821.72717,23.5996094 3827.63408,24.5611979 3835.60152,26.484375 C3843.70634,28.5449219 3850.16272,32.1852214 3854.97066,37.4052734 C3856.34436,38.9163411 3856.96253,40.7021484 3856.82516,42.7626953 C3856.82516,44.8232422 3856.06962,46.6090495 3854.55855,48.1201172 C3853.04749,49.4938151 3851.26168,50.1119792 3849.20113,49.9746094 C3847.14059,49.9746094 3845.35478,49.2190755 3843.84371,47.7080078 C3841.23368,44.6858724 3836.97522,42.4192708 3831.06832,40.9082031 C3825.29879,39.2597656 3820.90296,38.4355469 3817.88082,38.4355469 C3807.16598,38.4355469 3800.16012,40.6334635 3796.86324,45.0292969 C3793.56637,49.2877604 3791.57451,53.6835938 3790.88766,58.2167969 C3789.92607,64.6731771 3791.50582,69.8932292 3795.62691,73.8769531 C3799.74801,77.8606771 3806.34176,80.6080729 3815.40816,82.1191406 C3823.51298,83.4928385 3830.79358,86.0341797 3837.24996,89.7431641 C3843.70634,93.4521484 3848.85771,97.9853516 3852.70406,103.342773 C3855.58883,107.463867 3857.51201,111.859701 3858.47359,116.530273 C3859.57255,121.338216 3859.64124,126.283529 3858.67965,131.366211 C3856.75647,142.355794 3851.94853,150.872721 3844.25582,156.916992 C3836.42574,162.823893 3826.39775,165.777344 3814.17184,165.777344 C3809.776,165.777344 3803.59436,164.815755 3795.62691,162.892578 C3787.79684,160.969401 3780.92835,157.123047 3775.02145,151.353516 Z M3855.82516,25.7568359 C3855.68779,25.7568359 3855.6191,25.8255208 3855.6191,25.9628906 C3855.48173,25.9628906 3855.34436,26.0315755 3855.20699,26.1689453 C3855.06962,26.3063151 3854.93225,26.5123698 3854.79488,26.7871094 C3854.65751,26.9244792 3854.52014,27.1305339 3854.38277,27.4052734 C3850.26168,24.5205078 3845.86585,22.3225911 3841.19527,20.8115234 C3836.66207,19.3004557 3832.74703,18.2701823 3829.45016,17.7207031 C3829.45016,17.171224 3829.51884,16.484375 3829.65621,15.6601562 C3833.09046,16.2096354 3837.21155,17.2399089 3842.01949,18.7509766 C3846.82743,20.3994141 3851.42932,22.7347005 3855.82516,25.7568359 Z M3827.59566,15.2480469 C3827.59566,15.6601563 3827.52698,16.3470052 3827.38961,17.3085938 C3827.66435,17.3085938 3828.00777,17.3772786 3828.41988,17.5146484 C3828.69462,17.5146484 3829.03805,17.5833333 3829.45016,17.7207031 C3829.45016,18.1328125 3829.38147,18.7509766 3829.2441,19.5751953 C3826.77145,18.6136068 3823.06246,17.2399089 3818.11715,15.4541016 C3820.72717,15.0419922 3824.64221,14.4238281 3829.86227,13.5996094 C3829.86227,14.0117188 3829.79358,14.6985677 3829.65621,15.6601563 C3829.2441,15.5227865 3828.90068,15.4541016 3828.62594,15.4541016 C3828.21383,15.3167318 3827.8704,15.2480469 3827.59566,15.2480469 Z M3827.59566,15.2480469 C3827.8704,15.2480469 3828.21383,15.3167318 3828.62594,15.4541016 C3828.90068,15.4541016 3829.2441,15.5227865 3829.65621,15.6601562 C3829.65621,16.0722656 3829.58753,16.7591146 3829.45016,17.7207031 C3829.03805,17.5833333 3828.69462,17.5146484 3828.41988,17.5146484 C3828.00777,17.3772786 3827.66435,17.3085938 3827.38961,17.3085938 C3827.38961,17.0338542 3827.38961,16.6904297 3827.38961,16.2783203 C3827.52698,15.8662109 3827.59566,15.5227865 3827.59566,15.2480469 Z M3855.82516,25.7568359 C3856.64938,25.069987 3857.61096,24.7265625 3858.70992,24.7265625 C3859.80888,24.7265625 3860.77047,25.1386719 3861.59469,25.9628906 C3862.55628,26.7871094 3863.03707,27.8173828 3863.03707,29.0537109 C3863.03707,30.2900391 3862.62496,31.3889974 3861.80074,32.3505859 C3860.97652,33.1748047 3859.94625,33.5869141 3858.70992,33.5869141 C3857.47359,33.7242839 3856.37464,33.3121745 3855.41305,32.3505859 C3854.7262,31.8011068 3854.31409,31.0455729 3854.17672,30.0839844 C3854.03935,29.1223958 3854.17672,28.2294922 3854.58883,27.4052734 C3854.58883,27.4052734 3854.65751,27.4739583 3854.79488,27.6113281 C3854.79488,27.6113281 3854.86357,27.6113281 3855.00094,27.6113281 C3854.58883,28.4355469 3854.45146,29.2597656 3854.58883,30.0839844 C3854.86357,30.7708333 3855.27568,31.4576823 3855.82516,32.1445312 C3856.64938,32.8313802 3857.61096,33.1748047 3858.70992,33.1748047 C3859.80888,33.1748047 3860.70178,32.7626953 3861.38863,31.9384766 C3862.21285,31.1142578 3862.62496,30.1526693 3862.62496,29.0537109 C3862.48759,27.9547526 3862.0068,27.061849 3861.18258,26.375 C3860.49573,25.688151 3859.67151,25.2760417 3858.70992,25.1386719 C3857.74833,25.1386719 3856.92411,25.4134115 3856.23727,25.9628906 C3856.0999,25.9628906 3856.03121,25.8942057 3856.03121,25.7568359 C3855.89384,25.7568359 3855.82516,25.7568359 3855.82516,25.7568359 Z M3855.6191,26.375 C3855.48173,26.6497396 3855.34436,26.8557943 3855.20699,26.9931641 C3855.06962,27.2679036 3854.93225,27.4739583 3854.79488,27.6113281 C3854.79488,27.6113281 3854.7262,27.5426432 3854.58883,27.4052734 C3854.58883,27.4052734 3854.52014,27.4052734 3854.38277,27.4052734 C3854.52014,27.1305339 3854.65751,26.8557943 3854.79488,26.5810547 C3854.93225,26.4436849 3855.06962,26.3063151 3855.20699,26.1689453 C3855.34436,26.0315755 3855.48173,25.9628906 3855.6191,25.9628906 C3855.6191,25.8255208 3855.68779,25.7568359 3855.82516,25.7568359 C3855.82516,25.7568359 3855.89384,25.7568359 3856.03121,25.7568359 C3856.03121,25.8942057 3856.0999,25.9628906 3856.23727,25.9628906 C3856.0999,26.1002604 3855.96253,26.1689453 3855.82516,26.1689453 C3855.82516,26.3063151 3855.75647,26.375 3855.6191,26.375 Z M3860.97652,26.5810547 C3860.28967,26.0315755 3859.60283,25.7568359 3858.91598,25.7568359 C3858.09176,25.6194661 3857.33622,25.7568359 3856.64938,26.1689453 C3856.51201,26.1689453 3856.44332,26.1689453 3856.44332,26.1689453 C3856.30595,26.0315755 3856.23727,25.9628906 3856.23727,25.9628906 C3856.92411,25.4134115 3857.74833,25.1386719 3858.70992,25.1386719 C3859.67151,25.1386719 3860.49573,25.4820964 3861.18258,26.1689453 C3862.0068,26.9931641 3862.48759,27.9547526 3862.62496,29.0537109 C3862.62496,30.1526693 3862.21285,31.1142578 3861.38863,31.9384766 C3860.70178,32.6253255 3859.80888,33.0374349 3858.70992,33.1748047 C3857.61096,33.1748047 3856.64938,32.7626953 3855.82516,31.9384766 C3855.27568,31.3889974 3854.86357,30.7021484 3854.58883,29.8779297 C3854.45146,29.0537109 3854.58883,28.2981771 3855.00094,27.6113281 C3855.00094,27.7486979 3855.06962,27.8173828 3855.20699,27.8173828 C3855.20699,27.8173828 3855.27568,27.8860677 3855.41305,28.0234375 C3855.13831,28.5729167 3855.06962,29.1910807 3855.20699,29.8779297 C3855.34436,30.5647786 3855.68779,31.1829427 3856.23727,31.7324219 C3856.92411,32.281901 3857.74833,32.5566406 3858.70992,32.5566406 C3859.67151,32.5566406 3860.42704,32.2132161 3860.97652,31.5263672 C3861.66337,30.8395182 3862.0068,30.0152995 3862.0068,29.0537109 C3862.0068,28.0921224 3861.66337,27.2679036 3860.97652,26.5810547 Z M3855.00094,27.6113281 C3855.00094,27.4739583 3855.06962,27.2679036 3855.20699,26.9931641 C3855.34436,26.8557943 3855.48173,26.6497396 3855.6191,26.375 C3855.75647,26.375 3855.82516,26.3063151 3855.82516,26.1689453 C3855.96253,26.1689453 3856.0999,26.1002604 3856.23727,25.9628906 C3856.23727,26.1002604 3856.30595,26.1689453 3856.44332,26.1689453 C3856.44332,26.1689453 3856.51201,26.2376302 3856.64938,26.375 C3856.51201,26.375 3856.44332,26.4436849 3856.44332,26.5810547 C3856.30595,26.5810547 3856.16858,26.6497396 3856.03121,26.7871094 C3855.89384,26.9244792 3855.75647,27.1305339 3855.6191,27.4052734 C3855.48173,27.5426432 3855.41305,27.7486979 3855.41305,28.0234375 C3855.27568,27.8860677 3855.20699,27.8173828 3855.20699,27.8173828 C3855.06962,27.8173828 3855.00094,27.7486979 3855.00094,27.6113281 Z M3870.86715,32.96875 C3871.00452,32.96875 3871.0732,33.0374349 3871.0732,33.1748047 C3871.21057,33.1748047 3871.27926,33.2434896 3871.27926,33.3808594 C3871.27926,33.3808594 3871.34794,33.4495443 3871.48531,33.5869141 C3871.48531,33.7242839 3871.48531,33.7929688 3871.48531,33.7929688 C3871.48531,35.578776 3871.48531,37.7080078 3871.48531,40.1806641 C3871.48531,42.7906901 3871.48531,45.7441406 3871.48531,49.0410156 C3871.48531,49.1783854 3871.41663,49.3157552 3871.27926,49.453125 C3871.27926,49.5904948 3871.21057,49.6591797 3871.0732,49.6591797 C3871.0732,49.7965495 3871.00452,49.8652344 3870.86715,49.8652344 C3870.72978,50.0026042 3870.59241,50.0712891 3870.45504,50.0712891 C3870.45504,50.0712891 3870.38635,50.0026042 3870.24898,49.8652344 C3870.11161,49.8652344 3869.97424,49.7965495 3869.83688,49.6591797 C3869.83688,49.6591797 3869.76819,49.5904948 3869.63082,49.453125 C3869.63082,49.3157552 3869.63082,49.1783854 3869.63082,49.0410156 C3869.63082,47.6673177 3869.63082,45.8815104 3869.63082,43.6835938 C3869.63082,41.4856771 3869.63082,38.9443359 3869.63082,36.0595703 C3869.63082,36.0595703 3869.56214,36.1282552 3869.42477,36.265625 C3869.2874,36.4029948 3869.15003,36.5403646 3869.01266,36.6777344 C3868.87529,36.6777344 3868.8066,36.7464193 3868.8066,36.8837891 C3868.66923,36.8837891 3868.53186,36.8837891 3868.39449,36.8837891 C3868.25712,36.8837891 3868.11975,36.8837891 3867.98238,36.8837891 C3867.98238,36.7464193 3867.9137,36.6777344 3867.77633,36.6777344 C3867.63896,36.5403646 3867.57027,36.4029948 3867.57027,36.265625 C3867.57027,36.265625 3867.57027,36.1969401 3867.57027,36.0595703 C3867.57027,35.9222005 3867.57027,35.7848307 3867.57027,35.6474609 C3867.57027,35.5100911 3867.63896,35.4414062 3867.77633,35.4414062 C3868.05107,35.1666667 3868.32581,34.8232422 3868.60055,34.4111328 C3869.01266,34.1363932 3869.42477,33.7242839 3869.83688,33.1748047 C3869.97424,33.1748047 3870.04293,33.1061198 3870.04293,32.96875 C3870.1803,32.96875 3870.31767,32.96875 3870.45504,32.96875 C3870.45504,32.96875 3870.45504,32.96875 3870.45504,32.96875 C3870.45504,32.96875 3870.52372,32.96875 3870.66109,32.96875 C3870.66109,32.96875 3870.66109,32.96875 3870.66109,32.96875 C3870.79846,32.96875 3870.86715,32.96875 3870.86715,32.96875 Z" transform="translate(-3756.5 -23.734)"/></svg>