<svg xmlns="http://www.w3.org/2000/svg" width="120" height="243" viewBox="0 0 120 243"><path fill="#131313" d="M18.5214453,151.619141 C17.0103776,150.108073 16.2548438,148.322266 16.2548438,146.261719 C16.117474,144.201172 16.8043229,142.415365 18.3153906,140.904297 C19.6890885,139.530599 21.4062109,138.775065 23.4667578,138.637695 C25.5273047,138.637695 27.313112,139.393229 28.8241797,140.904297 C33.0826432,144.888021 38.1653255,147.635417 44.0722266,149.146484 C50.1164974,150.520182 54.6497005,151.207031 57.6718359,151.207031 C66.3261328,151.207031 73.1259375,149.352539 78.07125,145.643555 C83.1539323,141.93457 86.3134375,136.439779 87.5497656,129.15918 C88.0992448,125.999674 88.0992448,122.977539 87.5497656,120.092773 C86.8629167,117.345378 85.6265885,114.735352 83.8407813,112.262695 C81.2307552,108.416341 77.5217708,105.188151 72.7138281,102.578125 C68.0432552,100.105469 62.6171484,98.3196615 56.4355078,97.2207031 C43.3853776,95.0227865 33.5634375,90.2835286 26.9696875,83.0029297 C20.5133073,75.8597005 18.040651,66.999349 19.5517188,56.421875 C20.2385677,51.6139323 21.8870052,46.6686198 24.4970313,41.5859375 C26.9696875,36.640625 31.0220964,32.5882161 36.6542578,29.4287109 C39.6763932,27.6429036 43.1793229,26.2692057 47.1630469,25.3076172 C51.2841406,24.3460286 56.0233984,23.8652344 61.3808203,23.8652344 C65.2271745,23.8652344 71.1340755,24.8268229 79.1015234,26.75 C87.2063411,28.8105469 93.6627214,32.4508464 98.4706641,37.6708984 C99.844362,39.1819661 100.462526,40.9677734 100.325156,43.0283203 C100.325156,45.0888672 99.5696224,46.8746745 98.0585547,48.3857422 C96.547487,49.7594401 94.7616797,50.3776042 92.7011328,50.2402344 C90.6405859,50.2402344 88.8547786,49.4847005 87.3437109,47.9736328 C84.7336849,44.9514974 80.4752214,42.6848958 74.5683203,41.1738281 C68.7987891,39.5253906 64.4029557,38.7011719 61.3808203,38.7011719 C50.6659766,38.7011719 43.6601172,40.8990885 40.3632422,45.2949219 C37.0663672,49.5533854 35.0745052,53.9492188 34.3876563,58.4824219 C33.4260677,64.9388021 35.0058203,70.1588542 39.1269141,74.1425781 C43.2480078,78.1263021 49.8417578,80.8736979 58.9081641,82.3847656 C67.0129818,83.7584635 74.2935807,86.2998047 80.7499609,90.0087891 C87.2063411,93.7177734 92.3577083,98.2509766 96.2040625,103.608398 C99.0888281,107.729492 101.012005,112.125326 101.973594,116.795898 C103.072552,121.603841 103.141237,126.549154 102.179648,131.631836 C100.256471,142.621419 95.4485286,151.138346 87.7558203,157.182617 C79.9257422,163.089518 69.8977474,166.042969 57.6718359,166.042969 C53.2760026,166.042969 47.094362,165.08138 39.1269141,163.158203 C31.2968359,161.235026 24.4283464,157.388672 18.5214453,151.619141 Z M99.3251563,26.0224609 C99.1877865,26.0224609 99.1191016,26.0911458 99.1191016,26.2285156 C98.9817318,26.2285156 98.844362,26.2972005 98.7069922,26.4345703 C98.5696224,26.5719401 98.4322526,26.7779948 98.2948828,27.0527344 C98.157513,27.1901042 98.0201432,27.3961589 97.8827734,27.6708984 C93.7616797,24.7861328 89.3658464,22.5882161 84.6952734,21.0771484 C80.1620703,19.5660807 76.2470313,18.5358073 72.9501563,17.9863281 C72.9501563,17.436849 73.0188411,16.75 73.1562109,15.9257812 C76.5904557,16.4752604 80.7115495,17.5055339 85.5194922,19.0166016 C90.3274349,20.6650391 94.9293229,23.0003255 99.3251563,26.0224609 Z M71.0956641,15.5136719 C71.0956641,15.9257812 71.0269792,16.6126302 70.8896094,17.5742188 C71.164349,17.5742188 71.5077734,17.6429036 71.9198828,17.7802734 C72.1946224,17.7802734 72.5380469,17.8489583 72.9501563,17.9863281 C72.9501563,18.3984375 72.8814714,19.0166016 72.7441016,19.8408203 C70.2714453,18.8792318 66.5624609,17.5055339 61.6171484,15.7197266 C64.2271745,15.3076172 68.1422135,14.6894531 73.3622656,13.8652344 C73.3622656,14.2773438 73.2935807,14.9641927 73.1562109,15.9257812 C72.7441016,15.7884115 72.4006771,15.7197266 72.1259375,15.7197266 C71.7138281,15.5823568 71.3704036,15.5136719 71.0956641,15.5136719 Z M71.0956641,15.5136719 C71.3704036,15.5136719 71.7138281,15.5823568 72.1259375,15.7197266 C72.4006771,15.7197266 72.7441016,15.7884115 73.1562109,15.9257812 C73.1562109,16.3378906 73.087526,17.0247396 72.9501563,17.9863281 C72.5380469,17.8489583 72.1946224,17.7802734 71.9198828,17.7802734 C71.5077734,17.6429036 71.164349,17.5742188 70.8896094,17.5742188 C70.8896094,17.2994792 70.8896094,16.9560547 70.8896094,16.5439453 C71.0269792,16.1318359 71.0956641,15.7884115 71.0956641,15.5136719 Z M99.3251563,26.0224609 C100.149375,25.335612 101.110964,24.9921875 102.209922,24.9921875 C103.30888,24.9921875 104.270469,25.4042969 105.094688,26.2285156 C106.056276,27.0527344 106.53707,28.0830078 106.53707,29.3193359 C106.53707,30.5556641 106.124961,31.6546224 105.300742,32.6162109 C104.476523,33.4404297 103.44625,33.8525391 102.209922,33.8525391 C100.973594,33.9899089 99.8746354,33.5777995 98.9130469,32.6162109 C98.2261979,32.0667318 97.8140885,31.3111979 97.6767188,30.3496094 C97.539349,29.3880208 97.6767188,28.4951172 98.0888281,27.6708984 C98.0888281,27.6708984 98.157513,27.7395833 98.2948828,27.8769531 C98.2948828,27.8769531 98.3635677,27.8769531 98.5009375,27.8769531 C98.0888281,28.7011719 97.9514583,29.5253906 98.0888281,30.3496094 C98.3635677,31.0364583 98.7756771,31.7233073 99.3251563,32.4101562 C100.149375,33.0970052 101.110964,33.4404297 102.209922,33.4404297 C103.30888,33.4404297 104.201784,33.0283203 104.888633,32.2041016 C105.712852,31.3798828 106.124961,30.4182943 106.124961,29.3193359 C105.987591,28.2203776 105.506797,27.327474 104.682578,26.640625 C103.995729,25.953776 103.17151,25.5416667 102.209922,25.4042969 C101.248333,25.4042969 100.424115,25.6790365 99.7372656,26.2285156 C99.5998958,26.2285156 99.5312109,26.1598307 99.5312109,26.0224609 C99.3938411,26.0224609 99.3251563,26.0224609 99.3251563,26.0224609 Z M99.1191016,26.640625 C98.9817318,26.9153646 98.844362,27.1214193 98.7069922,27.2587891 C98.5696224,27.5335286 98.4322526,27.7395833 98.2948828,27.8769531 C98.2948828,27.8769531 98.2261979,27.8082682 98.0888281,27.6708984 C98.0888281,27.6708984 98.0201432,27.6708984 97.8827734,27.6708984 C98.0201432,27.3961589 98.157513,27.1214193 98.2948828,26.8466797 C98.4322526,26.7093099 98.5696224,26.5719401 98.7069922,26.4345703 C98.844362,26.2972005 98.9817318,26.2285156 99.1191016,26.2285156 C99.1191016,26.0911458 99.1877865,26.0224609 99.3251563,26.0224609 C99.3251563,26.0224609 99.3938411,26.0224609 99.5312109,26.0224609 C99.5312109,26.1598307 99.5998958,26.2285156 99.7372656,26.2285156 C99.5998958,26.3658854 99.462526,26.4345703 99.3251563,26.4345703 C99.3251563,26.5719401 99.2564714,26.640625 99.1191016,26.640625 Z M104.476523,26.8466797 C103.789674,26.2972005 103.102826,26.0224609 102.415977,26.0224609 C101.591758,25.8850911 100.836224,26.0224609 100.149375,26.4345703 C100.012005,26.4345703 99.9433203,26.4345703 99.9433203,26.4345703 C99.8059505,26.2972005 99.7372656,26.2285156 99.7372656,26.2285156 C100.424115,25.6790365 101.248333,25.4042969 102.209922,25.4042969 C103.17151,25.4042969 103.995729,25.7477214 104.682578,26.4345703 C105.506797,27.2587891 105.987591,28.2203776 106.124961,29.3193359 C106.124961,30.4182943 105.712852,31.3798828 104.888633,32.2041016 C104.201784,32.8909505 103.30888,33.3030599 102.209922,33.4404297 C101.110964,33.4404297 100.149375,33.0283203 99.3251563,32.2041016 C98.7756771,31.6546224 98.3635677,30.9677734 98.0888281,30.1435547 C97.9514583,29.3193359 98.0888281,28.5638021 98.5009375,27.8769531 C98.5009375,28.0143229 98.5696224,28.0830078 98.7069922,28.0830078 C98.7069922,28.0830078 98.7756771,28.1516927 98.9130469,28.2890625 C98.6383073,28.8385417 98.5696224,29.4567057 98.7069922,30.1435547 C98.844362,30.8304036 99.1877865,31.4485677 99.7372656,31.9980469 C100.424115,32.547526 101.248333,32.8222656 102.209922,32.8222656 C103.17151,32.8222656 103.927044,32.4788411 104.476523,31.7919922 C105.163372,31.1051432 105.506797,30.2809245 105.506797,29.3193359 C105.506797,28.3577474 105.163372,27.5335286 104.476523,26.8466797 Z M98.5009375,27.8769531 C98.5009375,27.7395833 98.5696224,27.5335286 98.7069922,27.2587891 C98.844362,27.1214193 98.9817318,26.9153646 99.1191016,26.640625 C99.2564714,26.640625 99.3251563,26.5719401 99.3251563,26.4345703 C99.462526,26.4345703 99.5998958,26.3658854 99.7372656,26.2285156 C99.7372656,26.3658854 99.8059505,26.4345703 99.9433203,26.4345703 C99.9433203,26.4345703 100.012005,26.5032552 100.149375,26.640625 C100.012005,26.640625 99.9433203,26.7093099 99.9433203,26.8466797 C99.8059505,26.8466797 99.6685807,26.9153646 99.5312109,27.0527344 C99.3938411,27.1901042 99.2564714,27.3961589 99.1191016,27.6708984 C98.9817318,27.8082682 98.9130469,28.0143229 98.9130469,28.2890625 C98.7756771,28.1516927 98.7069922,28.0830078 98.7069922,28.0830078 C98.5696224,28.0830078 98.5009375,28.0143229 98.5009375,27.8769531 Z M114.367148,33.234375 C114.504518,33.234375 114.573203,33.3030599 114.573203,33.4404297 C114.710573,33.4404297 114.779258,33.5091146 114.779258,33.6464844 C114.779258,33.6464844 114.847943,33.7151693 114.985313,33.8525391 C114.985313,33.9899089 114.985313,34.0585938 114.985313,34.0585938 C114.985313,35.844401 114.985313,37.9736328 114.985313,40.4462891 C114.985313,43.0563151 114.985313,46.0097656 114.985313,49.3066406 C114.985313,49.4440104 114.916628,49.5813802 114.779258,49.71875 C114.779258,49.8561198 114.710573,49.9248047 114.573203,49.9248047 C114.573203,50.0621745 114.504518,50.1308594 114.367148,50.1308594 C114.229779,50.2682292 114.092409,50.3369141 113.955039,50.3369141 C113.955039,50.3369141 113.886354,50.2682292 113.748984,50.1308594 C113.611615,50.1308594 113.474245,50.0621745 113.336875,49.9248047 C113.336875,49.9248047 113.26819,49.8561198 113.13082,49.71875 C113.13082,49.5813802 113.13082,49.4440104 113.13082,49.3066406 C113.13082,47.9329427 113.13082,46.1471354 113.13082,43.9492188 C113.13082,41.7513021 113.13082,39.2099609 113.13082,36.3251953 C113.13082,36.3251953 113.062135,36.3938802 112.924766,36.53125 C112.787396,36.6686198 112.650026,36.8059896 112.512656,36.9433594 C112.375286,36.9433594 112.306602,37.0120443 112.306602,37.1494141 C112.169232,37.1494141 112.031862,37.1494141 111.894492,37.1494141 C111.757122,37.1494141 111.619753,37.1494141 111.482383,37.1494141 C111.482383,37.0120443 111.413698,36.9433594 111.276328,36.9433594 C111.138958,36.8059896 111.070273,36.6686198 111.070273,36.53125 C111.070273,36.53125 111.070273,36.4625651 111.070273,36.3251953 C111.070273,36.1878255 111.070273,36.0504557 111.070273,35.9130859 C111.070273,35.7757161 111.138958,35.7070312 111.276328,35.7070312 C111.551068,35.4322917 111.825807,35.0888672 112.100547,34.6767578 C112.512656,34.4020182 112.924766,33.9899089 113.336875,33.4404297 C113.474245,33.4404297 113.54293,33.3717448 113.54293,33.234375 C113.680299,33.234375 113.817669,33.234375 113.955039,33.234375 C113.955039,33.234375 113.955039,33.234375 113.955039,33.234375 C113.955039,33.234375 114.023724,33.234375 114.161094,33.234375 C114.161094,33.234375 114.161094,33.234375 114.161094,33.234375 C114.298464,33.234375 114.367148,33.234375 114.367148,33.234375 Z"/></svg>