<svg xmlns="http://www.w3.org/2000/svg" width="81" height="203" viewBox="0 0 81 203"><path fill="#131313" d="M4351.94238,145.041016 C4350.29525,143.54362 4349.32194,141.671875 4349.02246,139.425781 C4348.87272,137.179688 4349.47168,135.233073 4350.81934,133.585938 C4352.31673,131.789063 4354.18848,130.815755 4356.43457,130.666016 C4358.68066,130.366536 4360.62728,130.965495 4362.27441,132.462891 C4364.52051,134.259766 4367.36556,135.532552 4370.80957,136.28125 C4374.10384,137.029948 4376.79915,137.404297 4378.89551,137.404297 C4385.78353,137.404297 4390.05111,136.20638 4391.69824,133.810547 C4393.34538,131.264974 4394.31868,129.468099 4394.61816,128.419922 C4394.7679,127.521484 4394.7679,126.697917 4394.61816,125.949219 C4394.46842,125.050781 4394.09408,124.227214 4393.49512,123.478516 C4392.2972,121.681641 4390.27572,120.109375 4387.43066,118.761719 C4384.58561,117.563802 4381.36621,116.665365 4377.77246,116.066406 C4372.2321,115.317708 4367.5153,113.970052 4363.62207,112.023438 C4359.87858,110.076823 4356.88379,107.60612 4354.6377,104.611328 C4352.99056,102.365234 4351.86751,99.8945313 4351.26855,97.1992188 C4350.81934,94.6536458 4350.81934,91.8834635 4351.26855,88.8886719 C4351.86751,84.9954427 4354.18848,80.5032552 4358.23145,75.4121094 C4362.12467,70.4707031 4369.76139,68 4381.1416,68 C4383.83691,68 4387.95475,68.5989583 4393.49512,69.796875 C4398.88574,70.9947917 4403.30306,73.1660156 4406.74707,76.3105469 C4408.39421,77.9576823 4409.29264,79.9042969 4409.44238,82.1503906 C4409.44238,84.3964844 4408.69368,86.343099 4407.19629,87.9902344 C4405.69889,89.6373698 4403.82715,90.4609375 4401.58105,90.4609375 C4399.33496,90.6106771 4397.38835,89.8619792 4395.74121,88.2148438 C4394.54329,87.1666667 4392.2972,86.2682292 4389.00293,85.5195313 C4385.70866,84.6210938 4383.08822,84.171875 4381.1416,84.171875 C4374.85254,84.171875 4371.03418,85.1451823 4369.68652,87.0917969 C4368.33887,88.8886719 4367.5153,90.4609375 4367.21582,91.8085938 C4367.06608,92.7070313 4367.06608,93.3808594 4367.21582,93.8300781 C4367.36556,94.2792969 4367.59017,94.6536458 4367.88965,94.953125 C4368.18913,95.4023438 4369.16243,96.2259115 4370.80957,97.4238281 C4372.45671,98.4720052 4375.52637,99.2955729 4380.01855,99.8945313 C4386.00814,100.792969 4391.32389,102.514974 4395.96582,105.060547 C4400.60775,107.45638 4404.27637,110.526042 4406.97168,114.269531 C4408.76855,116.815104 4409.96647,119.585286 4410.56543,122.580078 C4411.16439,125.57487 4411.16439,128.644531 4410.56543,131.789063 C4409.06803,138.677083 4405.54915,144.067708 4400.00879,147.960938 C4394.46842,151.704427 4387.43066,153.576172 4378.89551,153.576172 C4377.99707,153.576172 4374.55306,153.201823 4368.56348,152.453125 C4362.57389,151.704427 4357.03353,149.233724 4351.94238,145.041016 Z M4404.46289,62.0058594 C4404.46289,62.0058594 4404.46289,62.0807292 4404.46289,62.2304687 C4404.31315,62.2304687 4404.23828,62.2304687 4404.23828,62.2304687 C4403.9388,62.5299479 4403.71419,62.8294271 4403.56445,63.1289062 C4403.41471,63.4283854 4403.33984,63.7278646 4403.33984,64.0273438 C4398.69792,61.78125 4394.05599,60.2838542 4389.41406,59.5351563 C4384.77214,58.7864583 4381.47786,58.4121094 4379.53125,58.4121094 C4378.48307,58.4121094 4377.06055,58.4869792 4375.26367,58.6367188 C4373.61654,58.7864583 4371.66992,59.0110677 4369.42383,59.3105469 C4365.38086,60.2089844 4361.11328,61.78125 4356.62109,64.0273438 C4351.97917,66.4231771 4348.23568,70.0917969 4345.39062,75.0332031 C4344.79167,74.8834635 4344.04297,74.6588542 4343.14453,74.359375 C4344.79167,71.3645833 4346.73828,68.8190104 4348.98437,66.7226563 C4351.23047,64.7760417 4353.6263,63.1289062 4356.17187,61.78125 C4360.8138,59.2356771 4365.38086,57.6634115 4369.87305,57.0644531 C4374.36523,56.4654948 4377.58464,56.1660156 4379.53125,56.1660156 C4382.07682,56.1660156 4385.74544,56.5403646 4390.53711,57.2890625 C4395.32878,58.1875 4399.9707,59.7597656 4404.46289,62.0058594 Z M4342.02148,76.15625 C4342.4707,76.4557292 4343.2194,76.8300781 4344.26758,77.2792969 C4344.41732,76.8300781 4344.56706,76.4557292 4344.7168,76.15625 C4344.86654,75.7070312 4345.09115,75.3326823 4345.39062,75.0332031 C4345.83984,75.1829427 4346.4388,75.4075521 4347.1875,75.7070312 C4345.6901,78.1028646 4343.29427,81.6966146 4340,86.4882812 C4340.29948,83.6432292 4340.59896,79.3007812 4340.89844,73.4609375 C4341.34766,73.6106771 4342.09635,73.9101562 4343.14453,74.359375 C4342.99479,74.6588542 4342.84505,74.9583333 4342.69531,75.2578125 C4342.39583,75.5572917 4342.17122,75.8567708 4342.02148,76.15625 Z M4342.02148,76.15625 C4342.17122,75.8567708 4342.39583,75.5572917 4342.69531,75.2578125 C4342.84505,74.9583333 4342.99479,74.6588542 4343.14453,74.359375 C4343.59375,74.5091146 4344.34245,74.733724 4345.39062,75.0332031 C4345.09115,75.3326823 4344.86654,75.7070312 4344.7168,76.15625 C4344.56706,76.4557292 4344.41732,76.8300781 4344.26758,77.2792969 C4343.81836,76.9798177 4343.44401,76.7552083 4343.14453,76.6054688 C4342.84505,76.4557292 4342.4707,76.3059896 4342.02148,76.15625 Z M4404.91211,68.96875 C4404.91211,69.1184896 4404.91211,69.1933594 4404.91211,69.1933594 C4404.91211,69.1933594 4404.98698,69.1933594 4405.13672,69.1933594 C4404.98698,69.1933594 4404.91211,69.1933594 4404.91211,69.1933594 C4404.91211,69.0436198 4404.91211,68.96875 4404.91211,68.96875 Z M4404.6875,68.96875 C4404.6875,68.96875 4404.6875,68.96875 4404.6875,68.96875 C4404.6875,68.96875 4404.76237,68.96875 4404.91211,68.96875 C4404.76237,68.96875 4404.6875,68.96875 4404.6875,68.96875 C4404.6875,68.96875 4404.6875,68.96875 4404.6875,68.96875 Z M4404.46289,68.7441406 C4404.46289,68.7441406 4404.46289,68.7441406 4404.46289,68.7441406 C4404.61263,68.7441406 4404.6875,68.8190104 4404.6875,68.96875 C4404.6875,68.8190104 4404.61263,68.7441406 4404.46289,68.7441406 C4404.46289,68.7441406 4404.46289,68.7441406 4404.46289,68.7441406 Z M4405.58594,69.6425781 C4405.58594,69.6425781 4405.51107,69.5677083 4405.36133,69.4179688 C4405.36133,69.4179688 4405.28646,69.343099 4405.13672,69.1933594 C4405.13672,69.343099 4405.21159,69.4179688 4405.36133,69.4179688 C4405.51107,69.5677083 4405.58594,69.6425781 4405.58594,69.6425781 Z M4410.97656,61.5566406 C4412.17448,62.3053385 4412.84831,63.3535156 4412.99805,64.7011719 C4413.14779,66.0488281 4412.77344,67.2467448 4411.875,68.2949219 C4411.1263,69.343099 4410.07812,69.9420573 4408.73047,70.0917969 C4407.38281,70.391276 4406.11003,70.0917969 4404.91211,69.1933594 C4404.16341,68.594401 4403.63932,67.7708333 4403.33984,66.7226562 C4403.04036,65.8242188 4403.04036,64.9257812 4403.33984,64.0273438 C4403.48958,64.0273438 4403.56445,64.0273438 4403.56445,64.0273438 C4403.71419,64.1770833 4403.78906,64.2519531 4403.78906,64.2519531 C4403.63932,65.000651 4403.71419,65.8242188 4404.01367,66.7226562 C4404.16341,67.4713542 4404.61263,68.1451823 4405.36133,68.7441406 C4406.25977,69.4928385 4407.30794,69.7923177 4408.50586,69.6425781 C4409.70378,69.4928385 4410.67708,68.96875 4411.42578,68.0703125 C4412.17448,67.0221354 4412.47396,65.8990885 4412.32422,64.7011719 C4412.17448,63.6529948 4411.65039,62.7545573 4410.75195,62.0058594 C4409.85352,61.2571615 4408.88021,60.9576823 4407.83203,61.1074219 C4406.78385,61.1074219 4405.88542,61.4817708 4405.13672,62.2304688 C4404.98698,62.2304688 4404.83724,62.2304688 4404.6875,62.2304688 C4404.6875,62.0807292 4404.61263,62.0058594 4404.46289,62.0058594 C4405.36133,61.1074219 4406.40951,60.5833333 4407.60742,60.4335938 C4408.95508,60.2838542 4410.07812,60.6582031 4410.97656,61.5566406 Z M4404.6875,62.6796875 C4404.53776,62.9791667 4404.38802,63.203776 4404.23828,63.3535156 C4404.08854,63.6529948 4403.9388,63.952474 4403.78906,64.2519531 C4403.78906,64.2519531 4403.71419,64.1770833 4403.56445,64.0273438 C4403.56445,64.0273438 4403.48958,64.0273438 4403.33984,64.0273438 C4403.48958,63.7278646 4403.63932,63.4283854 4403.78906,63.1289062 C4403.78906,62.8294271 4403.9388,62.5299479 4404.23828,62.2304688 C4404.23828,62.2304688 4404.23828,62.2304688 4404.23828,62.2304688 C4404.38802,62.0807292 4404.46289,62.0058594 4404.46289,62.0058594 C4404.61263,62.0058594 4404.6875,62.0807292 4404.6875,62.2304688 C4404.83724,62.2304688 4404.98698,62.2304688 4405.13672,62.2304688 C4404.98698,62.3802083 4404.91211,62.4550781 4404.91211,62.4550781 C4404.76237,62.4550781 4404.6875,62.5299479 4404.6875,62.6796875 Z M4410.30273,62.4550781 C4409.55404,61.8561198 4408.73047,61.5566406 4407.83203,61.5566406 C4406.93359,61.5566406 4406.1849,61.8561198 4405.58594,62.4550781 C4405.58594,62.4550781 4405.51107,62.4550781 4405.36133,62.4550781 C4405.21159,62.3053385 4405.13672,62.2304688 4405.13672,62.2304688 C4405.88542,61.4817708 4406.78385,61.1074219 4407.83203,61.1074219 C4408.88021,60.9576823 4409.85352,61.2571615 4410.75195,62.0058594 C4411.65039,62.7545573 4412.17448,63.6529948 4412.32422,64.7011719 C4412.47396,65.8990885 4412.17448,67.0221354 4411.42578,68.0703125 C4410.67708,68.96875 4409.70378,69.4928385 4408.50586,69.6425781 C4407.30794,69.7923177 4406.25977,69.4928385 4405.36133,68.7441406 C4404.76237,68.1451823 4404.31315,67.4713542 4404.01367,66.7226563 C4403.71419,65.8242188 4403.63932,65.000651 4403.78906,64.2519531 C4403.9388,64.2519531 4404.08854,64.3268229 4404.23828,64.4765625 C4404.23828,64.4765625 4404.31315,64.4765625 4404.46289,64.4765625 C4404.31315,65.2252604 4404.31315,65.8990885 4404.46289,66.4980469 C4404.76237,67.2467448 4405.21159,67.8457031 4405.81055,68.2949219 C4406.55924,68.8938802 4407.45768,69.1184896 4408.50586,68.96875 C4409.55404,68.96875 4410.3776,68.5195313 4410.97656,67.6210938 C4411.57552,66.8723958 4411.875,65.9739583 4411.875,64.9257813 C4411.72526,63.8776042 4411.20117,63.0540365 4410.30273,62.4550781 C4410.30273,62.3053385 4410.22786,62.2304688 4410.07812,62.2304688 C4410.07812,62.0807292 4410.07812,62.0058594 4410.07812,62.0058594 C4409.92839,62.0058594 4409.85352,62.0058594 4409.85352,62.0058594 C4409.85352,62.0058594 4409.85352,62.0058594 4409.85352,62.0058594 C4409.85352,62.0058594 4409.85352,62.0058594 4409.85352,62.0058594 C4409.85352,62.0058594 4409.92839,62.0058594 4410.07812,62.0058594 C4410.07812,62.0058594 4410.07812,62.0807292 4410.07812,62.2304688 C4410.22786,62.2304688 4410.30273,62.3053385 4410.30273,62.4550781 Z M4403.78906,64.2519531 C4403.9388,63.952474 4404.08854,63.6529948 4404.23828,63.3535156 C4404.38802,63.203776 4404.53776,62.9791667 4404.6875,62.6796875 C4404.6875,62.6796875 4404.76237,62.6048177 4404.91211,62.4550781 C4404.91211,62.4550781 4404.98698,62.3802083 4405.13672,62.2304688 C4405.13672,62.2304688 4405.21159,62.3053385 4405.36133,62.4550781 C4405.36133,62.4550781 4405.4362,62.4550781 4405.58594,62.4550781 C4405.4362,62.6048177 4405.36133,62.6796875 4405.36133,62.6796875 C4405.21159,62.8294271 4405.13672,62.9791667 4405.13672,63.1289062 C4404.98698,63.2786458 4404.83724,63.5032552 4404.6875,63.8027344 C4404.53776,64.1022135 4404.46289,64.3268229 4404.46289,64.4765625 C4404.31315,64.4765625 4404.23828,64.4765625 4404.23828,64.4765625 C4404.08854,64.3268229 4403.9388,64.2519531 4403.78906,64.2519531 Z M4420.85937,51 C4421.00911,51 4421.08398,51.0748698 4421.08398,51.2246094 C4421.08398,51.2246094 4421.15885,51.2994792 4421.30859,51.4492188 C4421.30859,51.4492188 4421.30859,51.5240885 4421.30859,51.6738281 C4421.45833,51.6738281 4421.5332,51.7486979 4421.5332,51.8984375 C4421.5332,53.6953125 4421.5332,56.016276 4421.5332,58.8613281 C4421.5332,61.5566406 4421.5332,64.7760417 4421.5332,68.5195312 C4421.5332,68.6692708 4421.45833,68.8190104 4421.30859,68.96875 C4421.30859,69.1184896 4421.23372,69.1933594 4421.08398,69.1933594 C4421.08398,69.343099 4421.00911,69.4179688 4420.85937,69.4179688 C4420.70964,69.4179688 4420.5599,69.4179688 4420.41016,69.4179688 C4420.26042,69.4179688 4420.18555,69.4179688 4420.18555,69.4179688 C4420.03581,69.4179688 4419.88607,69.343099 4419.73633,69.1933594 C4419.73633,69.1933594 4419.66146,69.1184896 4419.51172,68.96875 C4419.51172,68.8190104 4419.51172,68.6692708 4419.51172,68.5195312 C4419.51172,67.0221354 4419.51172,65.0755208 4419.51172,62.6796875 C4419.51172,60.2838542 4419.51172,57.4388021 4419.51172,54.1445312 C4419.36198,54.2942708 4419.28711,54.4440104 4419.28711,54.59375 C4419.13737,54.7434896 4418.98763,54.8932292 4418.83789,55.0429687 C4418.68815,55.0429687 4418.61328,55.0429687 4418.61328,55.0429687 C4418.46354,55.1927083 4418.3138,55.2675781 4418.16406,55.2675781 C4418.01432,55.2675781 4417.86458,55.1927083 4417.71484,55.0429687 C4417.71484,55.0429687 4417.63997,55.0429687 4417.49023,55.0429687 C4417.34049,54.8932292 4417.26562,54.7434896 4417.26562,54.59375 C4417.26562,54.4440104 4417.26562,54.2942708 4417.26562,54.1445312 C4417.26562,54.1445312 4417.26562,54.0696615 4417.26562,53.9199219 C4417.26562,53.7701823 4417.34049,53.6204427 4417.49023,53.4707031 C4417.78971,53.3209635 4418.08919,53.0214844 4418.38867,52.5722656 C4418.83789,52.1230469 4419.28711,51.6738281 4419.73633,51.2246094 C4419.88607,51.0748698 4419.96094,51 4419.96094,51 C4420.11068,51 4420.26042,51 4420.41016,51 C4420.41016,51 4420.41016,51 4420.41016,51 C4420.41016,51 4420.41016,51 4420.41016,51 C4420.5599,51 4420.63477,51 4420.63477,51 C4420.78451,51 4420.85937,51 4420.85937,51 Z" transform="translate(-4340 -12)"/></svg>