<svg xmlns="http://www.w3.org/2000/svg" width="81" height="203" viewBox="0 0 81 203"><path fill="#131313" d="M4351.94238,194.041016 C4350.29525,192.54362 4349.32194,190.671875 4349.02246,188.425781 C4348.87272,186.179688 4349.47168,184.233073 4350.81934,182.585938 C4352.31673,180.789063 4354.18848,179.815755 4356.43457,179.666016 C4358.68066,179.366536 4360.62728,179.965495 4362.27441,181.462891 C4364.52051,183.259766 4367.36556,184.532552 4370.80957,185.28125 C4374.10384,186.029948 4376.79915,186.404297 4378.89551,186.404297 C4385.78353,186.404297 4390.05111,185.20638 4391.69824,182.810547 C4393.34538,180.264974 4394.31868,178.468099 4394.61816,177.419922 C4394.7679,176.521484 4394.7679,175.697917 4394.61816,174.949219 C4394.46842,174.050781 4394.09408,173.227214 4393.49512,172.478516 C4392.2972,170.681641 4390.27572,169.109375 4387.43066,167.761719 C4384.58561,166.563802 4381.36621,165.665365 4377.77246,165.066406 C4372.2321,164.317708 4367.5153,162.970052 4363.62207,161.023438 C4359.87858,159.076823 4356.88379,156.60612 4354.6377,153.611328 C4352.99056,151.365234 4351.86751,148.894531 4351.26855,146.199219 C4350.81934,143.653646 4350.81934,140.883464 4351.26855,137.888672 C4351.86751,133.995443 4354.18848,129.503255 4358.23145,124.412109 C4362.12467,119.470703 4369.76139,117 4381.1416,117 C4383.83691,117 4387.95475,117.598958 4393.49512,118.796875 C4398.88574,119.994792 4403.30306,122.166016 4406.74707,125.310547 C4408.39421,126.957682 4409.29264,128.904297 4409.44238,131.150391 C4409.44238,133.396484 4408.69368,135.343099 4407.19629,136.990234 C4405.69889,138.63737 4403.82715,139.460938 4401.58105,139.460938 C4399.33496,139.610677 4397.38835,138.861979 4395.74121,137.214844 C4394.54329,136.166667 4392.2972,135.268229 4389.00293,134.519531 C4385.70866,133.621094 4383.08822,133.171875 4381.1416,133.171875 C4374.85254,133.171875 4371.03418,134.145182 4369.68652,136.091797 C4368.33887,137.888672 4367.5153,139.460938 4367.21582,140.808594 C4367.06608,141.707031 4367.06608,142.380859 4367.21582,142.830078 C4367.36556,143.279297 4367.59017,143.653646 4367.88965,143.953125 C4368.18913,144.402344 4369.16243,145.225911 4370.80957,146.423828 C4372.45671,147.472005 4375.52637,148.295573 4380.01855,148.894531 C4386.00814,149.792969 4391.32389,151.514974 4395.96582,154.060547 C4400.60775,156.45638 4404.27637,159.526042 4406.97168,163.269531 C4408.76855,165.815104 4409.96647,168.585286 4410.56543,171.580078 C4411.16439,174.57487 4411.16439,177.644531 4410.56543,180.789063 C4409.06803,187.677083 4405.54915,193.067708 4400.00879,196.960938 C4394.46842,200.704427 4387.43066,202.576172 4378.89551,202.576172 C4377.99707,202.576172 4374.55306,202.201823 4368.56348,201.453125 C4362.57389,200.704427 4357.03353,198.233724 4351.94238,194.041016 Z M4404.46289,111.005859 C4404.46289,111.005859 4404.46289,111.080729 4404.46289,111.230469 C4404.31315,111.230469 4404.23828,111.230469 4404.23828,111.230469 C4403.9388,111.529948 4403.71419,111.829427 4403.56445,112.128906 C4403.41471,112.428385 4403.33984,112.727865 4403.33984,113.027344 C4398.69792,110.78125 4394.05599,109.283854 4389.41406,108.535156 C4384.77214,107.786458 4381.47786,107.412109 4379.53125,107.412109 C4378.48307,107.412109 4377.06055,107.486979 4375.26367,107.636719 C4373.61654,107.786458 4371.66992,108.011068 4369.42383,108.310547 C4365.38086,109.208984 4361.11328,110.78125 4356.62109,113.027344 C4351.97917,115.423177 4348.23568,119.091797 4345.39062,124.033203 C4344.79167,123.883464 4344.04297,123.658854 4343.14453,123.359375 C4344.79167,120.364583 4346.73828,117.81901 4348.98438,115.722656 C4351.23047,113.776042 4353.6263,112.128906 4356.17188,110.78125 C4360.8138,108.235677 4365.38086,106.663411 4369.87305,106.064453 C4374.36523,105.465495 4377.58464,105.166016 4379.53125,105.166016 C4382.07682,105.166016 4385.74544,105.540365 4390.53711,106.289062 C4395.32878,107.1875 4399.9707,108.759766 4404.46289,111.005859 Z M4342.02148,125.15625 C4342.4707,125.455729 4343.2194,125.830078 4344.26758,126.279297 C4344.41732,125.830078 4344.56706,125.455729 4344.7168,125.15625 C4344.86654,124.707031 4345.09115,124.332682 4345.39062,124.033203 C4345.83984,124.182943 4346.4388,124.407552 4347.1875,124.707031 C4345.6901,127.102865 4343.29427,130.696615 4340,135.488281 C4340.29948,132.643229 4340.59896,128.300781 4340.89844,122.460938 C4341.34766,122.610677 4342.09635,122.910156 4343.14453,123.359375 C4342.99479,123.658854 4342.84505,123.958333 4342.69531,124.257812 C4342.39583,124.557292 4342.17122,124.856771 4342.02148,125.15625 Z M4342.02148,125.15625 C4342.17122,124.856771 4342.39583,124.557292 4342.69531,124.257812 C4342.84505,123.958333 4342.99479,123.658854 4343.14453,123.359375 C4343.59375,123.509115 4344.34245,123.733724 4345.39062,124.033203 C4345.09115,124.332682 4344.86654,124.707031 4344.7168,125.15625 C4344.56706,125.455729 4344.41732,125.830078 4344.26758,126.279297 C4343.81836,125.979818 4343.44401,125.755208 4343.14453,125.605469 C4342.84505,125.455729 4342.4707,125.30599 4342.02148,125.15625 Z M4404.91211,117.96875 C4404.91211,118.11849 4404.91211,118.193359 4404.91211,118.193359 C4404.91211,118.193359 4404.98698,118.193359 4405.13672,118.193359 C4404.98698,118.193359 4404.91211,118.193359 4404.91211,118.193359 C4404.91211,118.04362 4404.91211,117.96875 4404.91211,117.96875 Z M4404.6875,117.96875 C4404.6875,117.96875 4404.6875,117.96875 4404.6875,117.96875 C4404.6875,117.96875 4404.76237,117.96875 4404.91211,117.96875 C4404.76237,117.96875 4404.6875,117.96875 4404.6875,117.96875 C4404.6875,117.96875 4404.6875,117.96875 4404.6875,117.96875 Z M4404.46289,117.744141 C4404.46289,117.744141 4404.46289,117.744141 4404.46289,117.744141 C4404.61263,117.744141 4404.6875,117.81901 4404.6875,117.96875 C4404.6875,117.81901 4404.61263,117.744141 4404.46289,117.744141 C4404.46289,117.744141 4404.46289,117.744141 4404.46289,117.744141 Z M4405.58594,118.642578 C4405.58594,118.642578 4405.51107,118.567708 4405.36133,118.417969 C4405.36133,118.417969 4405.28646,118.343099 4405.13672,118.193359 C4405.13672,118.343099 4405.21159,118.417969 4405.36133,118.417969 C4405.51107,118.567708 4405.58594,118.642578 4405.58594,118.642578 Z M4410.97656,110.556641 C4412.17448,111.305339 4412.84831,112.353516 4412.99805,113.701172 C4413.14779,115.048828 4412.77344,116.246745 4411.875,117.294922 C4411.1263,118.343099 4410.07812,118.942057 4408.73047,119.091797 C4407.38281,119.391276 4406.11003,119.091797 4404.91211,118.193359 C4404.16341,117.594401 4403.63932,116.770833 4403.33984,115.722656 C4403.04036,114.824219 4403.04036,113.925781 4403.33984,113.027344 C4403.48958,113.027344 4403.56445,113.027344 4403.56445,113.027344 C4403.71419,113.177083 4403.78906,113.251953 4403.78906,113.251953 C4403.63932,114.000651 4403.71419,114.824219 4404.01367,115.722656 C4404.16341,116.471354 4404.61263,117.145182 4405.36133,117.744141 C4406.25977,118.492839 4407.30794,118.792318 4408.50586,118.642578 C4409.70378,118.492839 4410.67708,117.96875 4411.42578,117.070312 C4412.17448,116.022135 4412.47396,114.899089 4412.32422,113.701172 C4412.17448,112.652995 4411.65039,111.754557 4410.75195,111.005859 C4409.85352,110.257161 4408.88021,109.957682 4407.83203,110.107422 C4406.78385,110.107422 4405.88542,110.481771 4405.13672,111.230469 C4404.98698,111.230469 4404.83724,111.230469 4404.6875,111.230469 C4404.6875,111.080729 4404.61263,111.005859 4404.46289,111.005859 C4405.36133,110.107422 4406.40951,109.583333 4407.60742,109.433594 C4408.95508,109.283854 4410.07812,109.658203 4410.97656,110.556641 Z M4404.6875,111.679688 C4404.53776,111.979167 4404.38802,112.203776 4404.23828,112.353516 C4404.08854,112.652995 4403.9388,112.952474 4403.78906,113.251953 C4403.78906,113.251953 4403.71419,113.177083 4403.56445,113.027344 C4403.56445,113.027344 4403.48958,113.027344 4403.33984,113.027344 C4403.48958,112.727865 4403.63932,112.428385 4403.78906,112.128906 C4403.78906,111.829427 4403.9388,111.529948 4404.23828,111.230469 C4404.23828,111.230469 4404.23828,111.230469 4404.23828,111.230469 C4404.38802,111.080729 4404.46289,111.005859 4404.46289,111.005859 C4404.61263,111.005859 4404.6875,111.080729 4404.6875,111.230469 C4404.83724,111.230469 4404.98698,111.230469 4405.13672,111.230469 C4404.98698,111.380208 4404.91211,111.455078 4404.91211,111.455078 C4404.76237,111.455078 4404.6875,111.529948 4404.6875,111.679688 Z M4410.30273,111.455078 C4409.55404,110.85612 4408.73047,110.556641 4407.83203,110.556641 C4406.93359,110.556641 4406.1849,110.85612 4405.58594,111.455078 C4405.58594,111.455078 4405.51107,111.455078 4405.36133,111.455078 C4405.21159,111.305339 4405.13672,111.230469 4405.13672,111.230469 C4405.88542,110.481771 4406.78385,110.107422 4407.83203,110.107422 C4408.88021,109.957682 4409.85352,110.257161 4410.75195,111.005859 C4411.65039,111.754557 4412.17448,112.652995 4412.32422,113.701172 C4412.47396,114.899089 4412.17448,116.022135 4411.42578,117.070313 C4410.67708,117.96875 4409.70378,118.492839 4408.50586,118.642578 C4407.30794,118.792318 4406.25977,118.492839 4405.36133,117.744141 C4404.76237,117.145182 4404.31315,116.471354 4404.01367,115.722656 C4403.71419,114.824219 4403.63932,114.000651 4403.78906,113.251953 C4403.9388,113.251953 4404.08854,113.326823 4404.23828,113.476563 C4404.23828,113.476563 4404.31315,113.476563 4404.46289,113.476563 C4404.31315,114.22526 4404.31315,114.899089 4404.46289,115.498047 C4404.76237,116.246745 4405.21159,116.845703 4405.81055,117.294922 C4406.55924,117.89388 4407.45768,118.11849 4408.50586,117.96875 C4409.55404,117.96875 4410.3776,117.519531 4410.97656,116.621094 C4411.57552,115.872396 4411.875,114.973958 4411.875,113.925781 C4411.72526,112.877604 4411.20117,112.054036 4410.30273,111.455078 C4410.30273,111.305339 4410.22786,111.230469 4410.07812,111.230469 C4410.07812,111.080729 4410.07812,111.005859 4410.07812,111.005859 C4409.92839,111.005859 4409.85352,111.005859 4409.85352,111.005859 C4409.85352,111.005859 4409.85352,111.005859 4409.85352,111.005859 C4409.85352,111.005859 4409.85352,111.005859 4409.85352,111.005859 C4409.85352,111.005859 4409.92839,111.005859 4410.07812,111.005859 C4410.07812,111.005859 4410.07812,111.080729 4410.07812,111.230469 C4410.22786,111.230469 4410.30273,111.305339 4410.30273,111.455078 Z M4403.78906,113.251953 C4403.9388,112.952474 4404.08854,112.652995 4404.23828,112.353516 C4404.38802,112.203776 4404.53776,111.979167 4404.6875,111.679688 C4404.6875,111.679688 4404.76237,111.604818 4404.91211,111.455078 C4404.91211,111.455078 4404.98698,111.380208 4405.13672,111.230469 C4405.13672,111.230469 4405.21159,111.305339 4405.36133,111.455078 C4405.36133,111.455078 4405.4362,111.455078 4405.58594,111.455078 C4405.4362,111.604818 4405.36133,111.679688 4405.36133,111.679688 C4405.21159,111.829427 4405.13672,111.979167 4405.13672,112.128906 C4404.98698,112.278646 4404.83724,112.503255 4404.6875,112.802734 C4404.53776,113.102214 4404.46289,113.326823 4404.46289,113.476562 C4404.31315,113.476562 4404.23828,113.476562 4404.23828,113.476562 C4404.08854,113.326823 4403.9388,113.251953 4403.78906,113.251953 Z M4420.85938,100 C4421.00911,100 4421.08398,100.07487 4421.08398,100.224609 C4421.08398,100.224609 4421.15885,100.299479 4421.30859,100.449219 C4421.30859,100.449219 4421.30859,100.524089 4421.30859,100.673828 C4421.45833,100.673828 4421.5332,100.748698 4421.5332,100.898438 C4421.5332,102.695312 4421.5332,105.016276 4421.5332,107.861328 C4421.5332,110.556641 4421.5332,113.776042 4421.5332,117.519531 C4421.5332,117.669271 4421.45833,117.81901 4421.30859,117.96875 C4421.30859,118.11849 4421.23372,118.193359 4421.08398,118.193359 C4421.08398,118.343099 4421.00911,118.417969 4420.85938,118.417969 C4420.70964,118.417969 4420.5599,118.417969 4420.41016,118.417969 C4420.26042,118.417969 4420.18555,118.417969 4420.18555,118.417969 C4420.03581,118.417969 4419.88607,118.343099 4419.73633,118.193359 C4419.73633,118.193359 4419.66146,118.11849 4419.51172,117.96875 C4419.51172,117.81901 4419.51172,117.669271 4419.51172,117.519531 C4419.51172,116.022135 4419.51172,114.075521 4419.51172,111.679688 C4419.51172,109.283854 4419.51172,106.438802 4419.51172,103.144531 C4419.36198,103.294271 4419.28711,103.44401 4419.28711,103.59375 C4419.13737,103.74349 4418.98763,103.893229 4418.83789,104.042969 C4418.68815,104.042969 4418.61328,104.042969 4418.61328,104.042969 C4418.46354,104.192708 4418.3138,104.267578 4418.16406,104.267578 C4418.01432,104.267578 4417.86458,104.192708 4417.71484,104.042969 C4417.71484,104.042969 4417.63997,104.042969 4417.49023,104.042969 C4417.34049,103.893229 4417.26562,103.74349 4417.26562,103.59375 C4417.26562,103.44401 4417.26562,103.294271 4417.26562,103.144531 C4417.26562,103.144531 4417.26562,103.069661 4417.26562,102.919922 C4417.26562,102.770182 4417.34049,102.620443 4417.49023,102.470703 C4417.78971,102.320964 4418.08919,102.021484 4418.38867,101.572266 C4418.83789,101.123047 4419.28711,100.673828 4419.73633,100.224609 C4419.88607,100.07487 4419.96094,100 4419.96094,100 C4420.11068,100 4420.26042,100 4420.41016,100 C4420.41016,100 4420.41016,100 4420.41016,100 C4420.41016,100 4420.41016,100 4420.41016,100 C4420.5599,100 4420.63477,100 4420.63477,100 C4420.78451,100 4420.85938,100 4420.85938,100 Z" transform="translate(-4340)"/></svg>