<svg xmlns="http://www.w3.org/2000/svg" width="81" height="243" viewBox="0 0 81 243"><path fill="#131313" d="M11.9423828,157.041016 C10.2952474,155.54362 9.3219401,153.671875 9.02246094,151.425781 C8.87272135,149.179688 9.47167969,147.233073 10.8193359,145.585938 C12.3167318,143.789062 14.1884766,142.815755 16.4345703,142.666016 C18.6806641,142.366536 20.6272786,142.965495 22.2744141,144.462891 C24.5205078,146.259766 27.3655599,147.532552 30.8095703,148.28125 C34.1038411,149.029948 36.7991536,149.404297 38.8955078,149.404297 C45.7835286,149.404297 50.0511068,148.20638 51.6982422,145.810547 C53.3453776,143.264974 54.3186849,141.468099 54.6181641,140.419922 C54.7679036,139.521484 54.7679036,138.697917 54.6181641,137.949219 C54.4684245,137.050781 54.0940755,136.227214 53.4951172,135.478516 C52.2972005,133.681641 50.2757161,132.109375 47.4306641,130.761719 C44.585612,129.563802 41.3662109,128.665365 37.7724609,128.066406 C32.2320964,127.317708 27.5152995,125.970052 23.6220703,124.023438 C19.8785807,122.076823 16.8837891,119.60612 14.6376953,116.611328 C12.9905599,114.365234 11.867513,111.894531 11.2685547,109.199219 C10.8193359,106.653646 10.8193359,103.883464 11.2685547,100.888672 C11.867513,96.9954427 14.1884766,92.5032552 18.2314453,87.4121094 C22.1246745,82.4707031 29.7613932,80 41.1416016,80 C43.8369141,80 47.9547526,80.5989583 53.4951172,81.796875 C58.8857422,82.9947917 63.3030599,85.1660156 66.7470703,88.3105469 C68.3942057,89.9576823 69.2926432,91.9042969 69.4423828,94.1503906 C69.4423828,96.3964844 68.6936849,98.343099 67.1962891,99.9902344 C65.6988932,101.63737 63.8271484,102.460938 61.5810547,102.460938 C59.3349609,102.610677 57.3883464,101.861979 55.7412109,100.214844 C54.5432943,99.1666667 52.2972005,98.2682292 49.0029297,97.5195312 C45.7086589,96.6210938 43.0882161,96.171875 41.1416016,96.171875 C34.8525391,96.171875 31.0341797,97.1451823 29.6865234,99.0917969 C28.3388672,100.888672 27.5152995,102.460938 27.2158203,103.808594 C27.0660807,104.707031 27.0660807,105.380859 27.2158203,105.830078 C27.3655599,106.279297 27.5901693,106.653646 27.8896484,106.953125 C28.1891276,107.402344 29.1624349,108.225911 30.8095703,109.423828 C32.4567057,110.472005 35.5263672,111.295573 40.0185547,111.894531 C46.008138,112.792969 51.3238932,114.514974 55.9658203,117.060547 C60.6077474,119.45638 64.2763672,122.526042 66.9716797,126.269531 C68.7685547,128.815104 69.9664714,131.585286 70.5654297,134.580078 C71.164388,137.57487 71.164388,140.644531 70.5654297,143.789062 C69.0680339,150.677083 65.5491536,156.067708 60.0087891,159.960938 C54.4684245,163.704427 47.4306641,165.576172 38.8955078,165.576172 C37.9970703,165.576172 34.5530599,165.201823 28.5634766,164.453125 C22.5738932,163.704427 17.0335286,161.233724 11.9423828,157.041016 Z M64.4628906,74.0058594 C64.4628906,74.0058594 64.4628906,74.0807292 64.4628906,74.2304688 C64.313151,74.2304688 64.2382812,74.2304688 64.2382812,74.2304688 C63.9388021,74.5299479 63.7141927,74.8294271 63.5644531,75.1289062 C63.4147135,75.4283854 63.3398438,75.7278646 63.3398438,76.0273438 C58.6979167,73.78125 54.0559896,72.2838542 49.4140625,71.5351562 C44.7721354,70.7864583 41.4778646,70.4121094 39.53125,70.4121094 C38.4830729,70.4121094 37.0605469,70.4869792 35.2636719,70.6367188 C33.6165365,70.7864583 31.6699219,71.0110677 29.4238281,71.3105469 C25.3808594,72.2089844 21.1132812,73.78125 16.6210938,76.0273438 C11.9791667,78.4231771 8.23567708,82.0917969 5.390625,87.0332031 C4.79166667,86.8834635 4.04296875,86.6588542 3.14453125,86.359375 C4.79166667,83.3645833 6.73828125,80.8190104 8.984375,78.7226562 C11.2304688,76.7760417 13.6263021,75.1289062 16.171875,73.78125 C20.8138021,71.2356771 25.3808594,69.6634115 29.8730469,69.0644531 C34.3652344,68.4654948 37.5846354,68.1660156 39.53125,68.1660156 C42.0768229,68.1660156 45.7454427,68.5403646 50.5371094,69.2890625 C55.328776,70.1875 59.9707031,71.7597656 64.4628906,74.0058594 Z M2.02148438,88.15625 C2.47070312,88.4557292 3.21940104,88.8300781 4.26757812,89.2792969 C4.41731771,88.8300781 4.56705729,88.4557292 4.71679688,88.15625 C4.86653646,87.7070312 5.09114583,87.3326823 5.390625,87.0332031 C5.83984375,87.1829427 6.43880208,87.4075521 7.1875,87.7070312 C5.69010417,90.1028646 3.29427083,93.6966146 0,98.4882812 C0.299479167,95.6432292 0.598958333,91.3007812 0.8984375,85.4609375 C1.34765625,85.6106771 2.09635417,85.9101562 3.14453125,86.359375 C2.99479167,86.6588542 2.84505208,86.9583333 2.6953125,87.2578125 C2.39583333,87.5572917 2.17122396,87.8567708 2.02148438,88.15625 Z M2.02148438,88.15625 C2.17122396,87.8567708 2.39583333,87.5572917 2.6953125,87.2578125 C2.84505208,86.9583333 2.99479167,86.6588542 3.14453125,86.359375 C3.59375,86.5091146 4.34244792,86.733724 5.390625,87.0332031 C5.09114583,87.3326823 4.86653646,87.7070312 4.71679688,88.15625 C4.56705729,88.4557292 4.41731771,88.8300781 4.26757812,89.2792969 C3.81835938,88.9798177 3.44401042,88.7552083 3.14453125,88.6054688 C2.84505208,88.4557292 2.47070312,88.3059896 2.02148438,88.15625 Z M64.9121094,80.96875 C64.9121094,81.1184896 64.9121094,81.1933594 64.9121094,81.1933594 C64.9121094,81.1933594 64.9869792,81.1933594 65.1367188,81.1933594 C64.9869792,81.1933594 64.9121094,81.1933594 64.9121094,81.1933594 C64.9121094,81.0436198 64.9121094,80.96875 64.9121094,80.96875 Z M64.6875,80.96875 C64.6875,80.96875 64.6875,80.96875 64.6875,80.96875 C64.6875,80.96875 64.7623698,80.96875 64.9121094,80.96875 C64.7623698,80.96875 64.6875,80.96875 64.6875,80.96875 C64.6875,80.96875 64.6875,80.96875 64.6875,80.96875 Z M64.4628906,80.7441406 C64.4628906,80.7441406 64.4628906,80.7441406 64.4628906,80.7441406 C64.6126302,80.7441406 64.6875,80.8190104 64.6875,80.96875 C64.6875,80.8190104 64.6126302,80.7441406 64.4628906,80.7441406 C64.4628906,80.7441406 64.4628906,80.7441406 64.4628906,80.7441406 Z M65.5859375,81.6425781 C65.5859375,81.6425781 65.5110677,81.5677083 65.3613281,81.4179688 C65.3613281,81.4179688 65.2864583,81.343099 65.1367188,81.1933594 C65.1367188,81.343099 65.2115885,81.4179688 65.3613281,81.4179688 C65.5110677,81.5677083 65.5859375,81.6425781 65.5859375,81.6425781 Z M70.9765625,73.5566406 C72.1744792,74.3053385 72.8483073,75.3535156 72.9980469,76.7011719 C73.1477865,78.0488281 72.7734375,79.2467448 71.875,80.2949219 C71.1263021,81.343099 70.078125,81.9420573 68.7304688,82.0917969 C67.3828125,82.391276 66.110026,82.0917969 64.9121094,81.1933594 C64.1634115,80.594401 63.6393229,79.7708333 63.3398438,78.7226562 C63.0403646,77.8242188 63.0403646,76.9257812 63.3398438,76.0273438 C63.4895833,76.0273438 63.5644531,76.0273438 63.5644531,76.0273438 C63.7141927,76.1770833 63.7890625,76.2519531 63.7890625,76.2519531 C63.6393229,77.000651 63.7141927,77.8242188 64.0136719,78.7226562 C64.1634115,79.4713542 64.6126302,80.1451823 65.3613281,80.7441406 C66.2597656,81.4928385 67.3079427,81.7923177 68.5058594,81.6425781 C69.703776,81.4928385 70.6770833,80.96875 71.4257812,80.0703125 C72.1744792,79.0221354 72.4739583,77.8990885 72.3242188,76.7011719 C72.1744792,75.6529948 71.6503906,74.7545573 70.7519531,74.0058594 C69.8535156,73.2571615 68.8802083,72.9576823 67.8320312,73.1074219 C66.7838542,73.1074219 65.8854167,73.4817708 65.1367188,74.2304688 C64.9869792,74.2304688 64.8372396,74.2304688 64.6875,74.2304688 C64.6875,74.0807292 64.6126302,74.0058594 64.4628906,74.0058594 C65.3613281,73.1074219 66.4095052,72.5833333 67.6074219,72.4335938 C68.9550781,72.2838542 70.078125,72.6582031 70.9765625,73.5566406 Z M64.6875,74.6796875 C64.5377604,74.9791667 64.3880208,75.203776 64.2382812,75.3535156 C64.0885417,75.6529948 63.9388021,75.952474 63.7890625,76.2519531 C63.7890625,76.2519531 63.7141927,76.1770833 63.5644531,76.0273438 C63.5644531,76.0273438 63.4895833,76.0273438 63.3398438,76.0273438 C63.4895833,75.7278646 63.6393229,75.4283854 63.7890625,75.1289062 C63.7890625,74.8294271 63.9388021,74.5299479 64.2382812,74.2304688 C64.2382812,74.2304688 64.2382812,74.2304688 64.2382812,74.2304688 C64.3880208,74.0807292 64.4628906,74.0058594 64.4628906,74.0058594 C64.6126302,74.0058594 64.6875,74.0807292 64.6875,74.2304688 C64.8372396,74.2304688 64.9869792,74.2304688 65.1367188,74.2304688 C64.9869792,74.3802083 64.9121094,74.4550781 64.9121094,74.4550781 C64.7623698,74.4550781 64.6875,74.5299479 64.6875,74.6796875 Z M70.3027344,74.4550781 C69.5540365,73.8561198 68.7304687,73.5566406 67.8320312,73.5566406 C66.9335937,73.5566406 66.1848958,73.8561198 65.5859375,74.4550781 C65.5859375,74.4550781 65.5110677,74.4550781 65.3613281,74.4550781 C65.2115885,74.3053385 65.1367187,74.2304688 65.1367187,74.2304688 C65.8854167,73.4817708 66.7838542,73.1074219 67.8320312,73.1074219 C68.8802083,72.9576823 69.8535156,73.2571615 70.7519531,74.0058594 C71.6503906,74.7545573 72.1744792,75.6529948 72.3242187,76.7011719 C72.4739583,77.8990885 72.1744792,79.0221354 71.4257812,80.0703125 C70.6770833,80.96875 69.703776,81.4928385 68.5058594,81.6425781 C67.3079427,81.7923177 66.2597656,81.4928385 65.3613281,80.7441406 C64.7623698,80.1451823 64.313151,79.4713542 64.0136719,78.7226562 C63.7141927,77.8242188 63.6393229,77.000651 63.7890625,76.2519531 C63.9388021,76.2519531 64.0885417,76.3268229 64.2382812,76.4765625 C64.2382812,76.4765625 64.313151,76.4765625 64.4628906,76.4765625 C64.313151,77.2252604 64.313151,77.8990885 64.4628906,78.4980469 C64.7623698,79.2467448 65.2115885,79.8457031 65.8105469,80.2949219 C66.5592448,80.8938802 67.4576823,81.1184896 68.5058594,80.96875 C69.5540365,80.96875 70.3776042,80.5195312 70.9765625,79.6210938 C71.5755208,78.8723958 71.875,77.9739583 71.875,76.9257812 C71.7252604,75.8776042 71.2011719,75.0540365 70.3027344,74.4550781 C70.3027344,74.3053385 70.2278646,74.2304688 70.078125,74.2304688 C70.078125,74.0807292 70.078125,74.0058594 70.078125,74.0058594 C69.9283854,74.0058594 69.8535156,74.0058594 69.8535156,74.0058594 C69.8535156,74.0058594 69.8535156,74.0058594 69.8535156,74.0058594 C69.8535156,74.0058594 69.8535156,74.0058594 69.8535156,74.0058594 C69.8535156,74.0058594 69.9283854,74.0058594 70.078125,74.0058594 C70.078125,74.0058594 70.078125,74.0807292 70.078125,74.2304688 C70.2278646,74.2304688 70.3027344,74.3053385 70.3027344,74.4550781 Z M63.7890625,76.2519531 C63.9388021,75.952474 64.0885417,75.6529948 64.2382812,75.3535156 C64.3880208,75.203776 64.5377604,74.9791667 64.6875,74.6796875 C64.6875,74.6796875 64.7623698,74.6048177 64.9121094,74.4550781 C64.9121094,74.4550781 64.9869792,74.3802083 65.1367188,74.2304688 C65.1367188,74.2304688 65.2115885,74.3053385 65.3613281,74.4550781 C65.3613281,74.4550781 65.4361979,74.4550781 65.5859375,74.4550781 C65.4361979,74.6048177 65.3613281,74.6796875 65.3613281,74.6796875 C65.2115885,74.8294271 65.1367188,74.9791667 65.1367188,75.1289062 C64.9869792,75.2786458 64.8372396,75.5032552 64.6875,75.8027344 C64.5377604,76.1022135 64.4628906,76.3268229 64.4628906,76.4765625 C64.313151,76.4765625 64.2382812,76.4765625 64.2382812,76.4765625 C64.0885417,76.3268229 63.9388021,76.2519531 63.7890625,76.2519531 Z M80.859375,63 C81.0091146,63 81.0839844,63.0748698 81.0839844,63.2246094 C81.0839844,63.2246094 81.1588542,63.2994792 81.3085938,63.4492188 C81.3085938,63.4492188 81.3085938,63.5240885 81.3085938,63.6738281 C81.4583333,63.6738281 81.5332031,63.7486979 81.5332031,63.8984375 C81.5332031,65.6953125 81.5332031,68.016276 81.5332031,70.8613281 C81.5332031,73.5566406 81.5332031,76.7760417 81.5332031,80.5195312 C81.5332031,80.6692708 81.4583333,80.8190104 81.3085938,80.96875 C81.3085938,81.1184896 81.233724,81.1933594 81.0839844,81.1933594 C81.0839844,81.343099 81.0091146,81.4179688 80.859375,81.4179688 C80.7096354,81.4179688 80.5598958,81.4179688 80.4101562,81.4179688 C80.2604167,81.4179688 80.1855469,81.4179688 80.1855469,81.4179688 C80.0358073,81.4179688 79.8860677,81.343099 79.7363281,81.1933594 C79.7363281,81.1933594 79.6614583,81.1184896 79.5117188,80.96875 C79.5117188,80.8190104 79.5117188,80.6692708 79.5117188,80.5195312 C79.5117188,79.0221354 79.5117188,77.0755208 79.5117188,74.6796875 C79.5117188,72.2838542 79.5117188,69.4388021 79.5117188,66.1445312 C79.3619792,66.2942708 79.2871094,66.4440104 79.2871094,66.59375 C79.1373698,66.7434896 78.9876302,66.8932292 78.8378906,67.0429688 C78.688151,67.0429688 78.6132812,67.0429688 78.6132812,67.0429688 C78.4635417,67.1927083 78.3138021,67.2675781 78.1640625,67.2675781 C78.0143229,67.2675781 77.8645833,67.1927083 77.7148438,67.0429688 C77.7148438,67.0429688 77.639974,67.0429688 77.4902344,67.0429688 C77.3404948,66.8932292 77.265625,66.7434896 77.265625,66.59375 C77.265625,66.4440104 77.265625,66.2942708 77.265625,66.1445312 C77.265625,66.1445312 77.265625,66.0696615 77.265625,65.9199219 C77.265625,65.7701823 77.3404948,65.6204427 77.4902344,65.4707031 C77.7897135,65.3209635 78.0891927,65.0214844 78.3886719,64.5722656 C78.8378906,64.1230469 79.2871094,63.6738281 79.7363281,63.2246094 C79.8860677,63.0748698 79.9609375,63 79.9609375,63 C80.1106771,63 80.2604167,63 80.4101562,63 C80.4101562,63 80.4101562,63 80.4101562,63 C80.4101562,63 80.4101562,63 80.4101562,63 C80.5598958,63 80.6347656,63 80.6347656,63 C80.7845052,63 80.859375,63 80.859375,63 Z"/></svg>