<svg xmlns="http://www.w3.org/2000/svg" width="120" height="203" viewBox="0 0 120 203"><path fill="#131313" d="M4048.25066,24 C4050.31121,24 4052.09702,24.686849 4053.60809,26.0605469 C4054.98178,27.5716146 4055.66863,29.3574219 4055.66863,31.4179688 C4055.66863,33.4785156 4054.98178,35.195638 4053.60809,36.5693359 C4052.09702,38.0804036 4050.31121,38.8359375 4048.25066,38.8359375 C4041.93165,38.8359375 4032.45314,38.8359375 4019.81512,38.8359375 C4019.81512,65.4856771 4019.81512,105.460286 4019.81512,158.759766 C4019.81512,160.820312 4019.05958,162.60612 4017.54852,164.117188 C4016.17482,165.490885 4014.4577,166.177734 4012.39715,166.177734 C4010.3366,166.177734 4008.55079,165.490885 4007.03973,164.117188 C4005.66603,162.60612 4004.97918,160.820312 4004.97918,158.759766 C4004.97918,132.110026 4004.97918,92.1354167 4004.97918,38.8359375 C3998.66017,38.8359375 3989.18165,38.8359375 3976.54363,38.8359375 C3974.48309,38.8359375 3972.69728,38.0804036 3971.18621,36.5693359 C3969.81251,35.195638 3969.12566,33.4785156 3969.12566,31.4179688 C3969.12566,29.3574219 3969.81251,27.5716146 3971.18621,26.0605469 C3972.69728,24.686849 3974.48309,24 3976.54363,24 C3988.4948,24 4000.44598,24 4012.39715,24 C4024.34832,24 4036.29949,24 4048.25066,24 Z M3985.28875,12.9814453 C3996.69044,12.9814453 4013.86167,12.9814453 4036.80242,12.9814453 C4036.80242,13.3935547 4036.80242,14.0804036 4036.80242,15.0419922 C4025.40073,15.0419922 4008.22951,15.0419922 3985.28875,15.0419922 C3985.28875,14.9046224 3985.28875,14.7672526 3985.28875,14.6298828 C3985.42612,14.3551432 3985.4948,14.1490885 3985.4948,14.0117188 C3985.4948,13.874349 3985.42612,13.6682943 3985.28875,13.3935547 C3985.28875,13.2561849 3985.28875,13.1188151 3985.28875,12.9814453 Z M3980.9616,17.9267578 C3981.78582,17.9267578 3982.61004,17.6520182 3983.43426,17.1025391 C3984.12111,16.5530599 3984.53322,15.8662109 3984.67059,15.0419922 C3984.80796,15.0419922 3985.01401,15.0419922 3985.28875,15.0419922 C3985.01401,16.0035807 3984.46453,16.8277995 3983.64031,17.5146484 C3982.95346,18.2014974 3982.06056,18.5449219 3980.9616,18.5449219 C3979.72527,18.5449219 3978.62632,18.0641276 3977.66473,17.1025391 C3976.84051,16.2783203 3976.4284,15.2480469 3976.4284,14.0117188 C3976.4284,12.7753906 3976.84051,11.7451172 3977.66473,10.9208984 C3978.62632,9.9593099 3979.72527,9.47851562 3980.9616,9.47851562 C3982.06056,9.47851562 3982.95346,9.8219401 3983.64031,10.5087891 C3984.46453,11.195638 3985.01401,12.0198568 3985.28875,12.9814453 C3985.15138,12.9814453 3984.94533,12.9814453 3984.67059,12.9814453 C3984.53322,12.1572266 3984.12111,11.4703776 3983.43426,10.9208984 C3982.61004,10.3714193 3981.78582,10.0966797 3980.9616,10.0966797 C3979.86264,10.0966797 3978.90105,10.4401042 3978.07684,11.1269531 C3977.38999,11.9511719 3977.04656,12.9127604 3977.04656,14.0117188 C3977.04656,15.1106771 3977.38999,16.0722656 3978.07684,16.8964844 C3978.90105,17.5833333 3979.86264,17.9267578 3980.9616,17.9267578 Z M3985.28875,12.9814453 C3985.28875,13.1188151 3985.28875,13.2561849 3985.28875,13.3935547 C3985.42612,13.6682943 3985.4948,13.874349 3985.4948,14.0117188 C3985.4948,14.1490885 3985.42612,14.3551432 3985.28875,14.6298828 C3985.28875,14.7672526 3985.28875,14.9046224 3985.28875,15.0419922 C3985.15138,15.0419922 3984.94533,15.0419922 3984.67059,15.0419922 C3984.80796,14.9046224 3984.87664,14.7672526 3984.87664,14.6298828 C3984.87664,14.3551432 3984.87664,14.1490885 3984.87664,14.0117188 C3984.87664,13.874349 3984.87664,13.6682943 3984.87664,13.3935547 C3984.87664,13.2561849 3984.80796,13.1188151 3984.67059,12.9814453 C3984.80796,12.9814453 3984.94533,12.9814453 3985.0827,12.9814453 C3985.0827,12.9814453 3985.15138,12.9814453 3985.28875,12.9814453 Z M3980.9616,10.0966797 C3981.78582,10.0966797 3982.61004,10.3714193 3983.43426,10.9208984 C3984.12111,11.4703776 3984.53322,12.1572266 3984.67059,12.9814453 C3984.53322,12.9814453 3984.39585,12.9814453 3984.25848,12.9814453 C3983.98374,12.2945964 3983.57163,11.7451172 3983.02215,11.3330078 C3982.3353,10.7835286 3981.64845,10.5087891 3980.9616,10.5087891 C3981.09897,10.5087891 3981.23634,10.5087891 3981.37371,10.5087891 C3981.37371,10.5087891 3981.4424,10.5087891 3981.57977,10.5087891 C3981.4424,10.5087891 3981.37371,10.5087891 3981.37371,10.5087891 C3981.23634,10.5087891 3981.09897,10.5087891 3980.9616,10.5087891 C3980.82423,10.5087891 3980.68686,10.5087891 3980.54949,10.5087891 C3980.41212,10.5087891 3980.34344,10.5087891 3980.34344,10.5087891 C3980.34344,10.5087891 3980.41212,10.5087891 3980.54949,10.5087891 C3980.68686,10.5087891 3980.82423,10.5087891 3980.9616,10.5087891 C3980.00001,10.5087891 3979.17579,10.8522135 3978.48895,11.5390625 C3977.8021,12.2259115 3977.45867,13.0501302 3977.45867,14.0117188 C3977.45867,14.9733073 3977.8021,15.797526 3978.48895,16.484375 C3979.17579,17.171224 3980.00001,17.5146484 3980.9616,17.5146484 C3981.64845,17.5146484 3982.3353,17.2399089 3983.02215,16.6904297 C3983.57163,16.2783203 3983.98374,15.7288411 3984.25848,15.0419922 C3984.39585,15.0419922 3984.53322,15.0419922 3984.67059,15.0419922 C3984.53322,15.8662109 3984.12111,16.5530599 3983.43426,17.1025391 C3982.61004,17.6520182 3981.78582,17.9267578 3980.9616,17.9267578 C3979.86264,17.9267578 3978.90105,17.5833333 3978.07684,16.8964844 C3977.38999,16.0722656 3977.04656,15.1106771 3977.04656,14.0117188 C3977.04656,12.9127604 3977.38999,11.9511719 3978.07684,11.1269531 C3978.90105,10.4401042 3979.86264,10.0966797 3980.9616,10.0966797 Z M3984.46453,14.0117188 C3984.46453,13.874349 3984.39585,13.6682943 3984.25848,13.3935547 C3984.25848,13.2561849 3984.25848,13.1188151 3984.25848,12.9814453 C3984.39585,12.9814453 3984.53322,12.9814453 3984.67059,12.9814453 C3984.80796,13.1188151 3984.87664,13.2561849 3984.87664,13.3935547 C3984.87664,13.6682943 3984.87664,13.874349 3984.87664,14.0117188 C3984.87664,14.1490885 3984.87664,14.3551432 3984.87664,14.6298828 C3984.87664,14.7672526 3984.80796,14.9046224 3984.67059,15.0419922 C3984.53322,15.0419922 3984.39585,15.0419922 3984.25848,15.0419922 C3984.25848,14.9046224 3984.25848,14.7672526 3984.25848,14.6298828 C3984.39585,14.3551432 3984.46453,14.1490885 3984.46453,14.0117188 Z M4036.80242,17.1025391 C4036.80242,16.6904297 4036.80242,16.0035807 4036.80242,15.0419922 C4037.21453,15.0419922 4037.90138,15.0419922 4038.86297,15.0419922 C4038.86297,14.6298828 4038.86297,13.9430339 4038.86297,12.9814453 C4038.45086,12.9814453 4037.76401,12.9814453 4036.80242,12.9814453 C4036.80242,12.5693359 4036.80242,11.882487 4036.80242,10.9208984 C4039.27508,11.6077474 4043.05275,12.6380208 4048.13543,14.0117188 C4045.66277,14.6985677 4041.8851,15.7288411 4036.80242,17.1025391 Z M4036.80242,12.9814453 C4037.21453,12.9814453 4037.90138,12.9814453 4038.86297,12.9814453 C4038.86297,13.3935547 4038.86297,14.0804036 4038.86297,15.0419922 C4038.45086,15.0419922 4037.76401,15.0419922 4036.80242,15.0419922 C4036.80242,14.6298828 4036.80242,13.9430339 4036.80242,12.9814453 Z M3994.76727,55.8408203 C3994.90464,55.8408203 3995.11069,55.8408203 3995.38543,55.8408203 C3995.5228,55.8408203 3995.66017,55.8408203 3995.79754,55.8408203 C3996.07228,55.8408203 3996.27833,55.8408203 3996.4157,55.8408203 C3996.55307,55.8408203 3996.69044,55.8408203 3996.82781,55.8408203 C3996.82781,75.8968099 3996.82781,106.118164 3996.82781,146.504883 C3996.4157,146.504883 3995.72885,146.504883 3994.76727,146.504883 C3994.76727,131.394206 3994.76727,116.283529 3994.76727,101.172852 C3994.76727,86.0621745 3994.76727,70.9514974 3994.76727,55.8408203 Z M3996.82781,148.56543 C3996.82781,148.015951 3996.82781,147.329102 3996.82781,146.504883 C3997.37729,146.504883 3998.06414,146.504883 3998.88836,146.504883 C3998.20151,148.977539 3997.17124,152.755208 3995.79754,157.837891 C3995.11069,155.365234 3994.1491,151.587565 3992.91277,146.504883 C3993.32488,146.504883 3993.94305,146.504883 3994.76727,146.504883 C3994.76727,146.916992 3994.76727,147.603841 3994.76727,148.56543 C3995.31674,148.56543 3996.00359,148.56543 3996.82781,148.56543 Z M3994.76727,146.504883 C3995.31674,146.504883 3996.00359,146.504883 3996.82781,146.504883 C3996.82781,146.916992 3996.82781,147.603841 3996.82781,148.56543 C3996.4157,148.56543 3995.72885,148.56543 3994.76727,148.56543 C3994.76727,148.015951 3994.76727,147.329102 3994.76727,146.504883 Z M3995.79754,46.9804688 C3997.03387,46.9804688 3998.13283,47.3925781 3999.09441,48.2167969 C3999.91863,49.0410156 4000.33074,50.0712891 4000.33074,51.3076172 C4000.33074,52.4065755 3999.98732,53.3681641 3999.30047,54.1923828 C3998.75099,55.0166016 3997.92677,55.5660807 3996.82781,55.8408203 C3996.82781,55.7034505 3996.82781,55.4973958 3996.82781,55.2226562 C3997.7894,54.9479167 3998.54493,54.4671224 3999.09441,53.7802734 C3999.64389,53.0934245 3999.91863,52.2692057 3999.91863,51.3076172 C3999.91863,50.2086589 3999.50652,49.3157552 3998.6823,48.6289062 C3997.85809,47.8046875 3996.8965,47.3925781 3995.79754,47.3925781 C3994.69858,47.3925781 3993.80568,47.8046875 3993.11883,48.6289062 C3992.29461,49.3157552 3991.8825,50.2086589 3991.8825,51.3076172 C3991.8825,52.2692057 3992.15724,53.0934245 3992.70672,53.7802734 C3993.2562,54.4671224 3993.94305,54.9479167 3994.76727,55.2226562 C3994.76727,55.360026 3994.76727,55.5660807 3994.76727,55.8408203 C3993.80568,55.5660807 3992.98146,55.0166016 3992.29461,54.1923828 C3991.74513,53.3681641 3991.47039,52.4065755 3991.47039,51.3076172 C3991.47039,50.2086589 3991.8825,49.1783854 3992.70672,48.2167969 C3993.53094,47.3925781 3994.56121,46.9804688 3995.79754,46.9804688 Z M3995.79754,55.4287109 C3996.07228,55.4287109 3996.27833,55.360026 3996.4157,55.2226562 C3996.55307,55.2226562 3996.69044,55.2226562 3996.82781,55.2226562 C3996.82781,55.360026 3996.82781,55.5660807 3996.82781,55.8408203 C3996.69044,55.8408203 3996.55307,55.8408203 3996.4157,55.8408203 C3996.27833,55.8408203 3996.07228,55.8408203 3995.79754,55.8408203 C3995.66017,55.8408203 3995.5228,55.8408203 3995.38543,55.8408203 C3995.11069,55.8408203 3994.90464,55.8408203 3994.76727,55.8408203 C3994.76727,55.7034505 3994.76727,55.4973958 3994.76727,55.2226562 C3994.90464,55.2226562 3995.11069,55.2913411 3995.38543,55.4287109 C3995.5228,55.4287109 3995.66017,55.4287109 3995.79754,55.4287109 Z M3992.50066,51.3076172 C3992.50066,52.1318359 3992.70672,52.8186849 3993.11883,53.3681641 C3993.53094,54.055013 3994.08042,54.4671224 3994.76727,54.6044922 C3994.76727,54.741862 3994.76727,54.9479167 3994.76727,55.2226562 C3993.94305,54.9479167 3993.2562,54.4671224 3992.70672,53.7802734 C3992.15724,53.0934245 3991.8825,52.2692057 3991.8825,51.3076172 C3991.8825,50.2086589 3992.29461,49.3157552 3993.11883,48.6289062 C3993.80568,47.8046875 3994.69858,47.3925781 3995.79754,47.3925781 C3996.8965,47.3925781 3997.85809,47.8046875 3998.6823,48.6289062 C3999.50652,49.3157552 3999.91863,50.2086589 3999.91863,51.3076172 C3999.91863,52.2692057 3999.64389,53.0934245 3999.09441,53.7802734 C3998.54493,54.4671224 3997.7894,54.9479167 3996.82781,55.2226562 C3996.82781,55.0852865 3996.82781,54.8792318 3996.82781,54.6044922 C3997.51466,54.4671224 3998.13283,54.055013 3998.6823,53.3681641 C3999.09441,52.8186849 3999.30047,52.1318359 3999.30047,51.3076172 C3999.30047,50.4833984 3998.95704,49.7278646 3998.2702,49.0410156 C3997.58335,48.3541667 3996.75913,48.0107422 3995.79754,48.0107422 C3994.83595,48.0107422 3994.08042,48.3541667 3993.53094,49.0410156 C3992.84409,49.7278646 3992.50066,50.4833984 3992.50066,51.3076172 C3992.50066,51.1702474 3992.50066,51.1015625 3992.50066,51.1015625 C3992.50066,50.9641927 3992.50066,50.8955078 3992.50066,50.8955078 C3992.50066,50.8955078 3992.50066,50.9641927 3992.50066,51.1015625 C3992.50066,51.1015625 3992.50066,51.1702474 3992.50066,51.3076172 C3992.50066,51.5823568 3992.50066,51.7197266 3992.50066,51.7197266 C3992.50066,51.8570964 3992.50066,51.9257812 3992.50066,51.9257812 C3992.50066,51.9257812 3992.50066,51.8570964 3992.50066,51.7197266 C3992.50066,51.7197266 3992.50066,51.5823568 3992.50066,51.3076172 Z M3996.82781,55.2226562 C3996.69044,55.2226562 3996.55307,55.2226562 3996.4157,55.2226562 C3996.27833,55.360026 3996.07228,55.4287109 3995.79754,55.4287109 C3995.66017,55.4287109 3995.5228,55.360026 3995.38543,55.2226562 C3995.11069,55.2226562 3994.90464,55.2226562 3994.76727,55.2226562 C3994.76727,55.0852865 3994.76727,54.8792318 3994.76727,54.6044922 C3994.90464,54.741862 3995.11069,54.8105469 3995.38543,54.8105469 C3995.5228,54.8105469 3995.66017,54.8105469 3995.79754,54.8105469 C3996.07228,54.8105469 3996.27833,54.8105469 3996.4157,54.8105469 C3996.55307,54.8105469 3996.69044,54.741862 3996.82781,54.6044922 C3996.82781,54.741862 3996.82781,54.8792318 3996.82781,55.0166016 C3996.82781,55.0166016 3996.82781,55.0852865 3996.82781,55.2226562 Z M3969.62859,0 C3969.62859,0 3969.69728,0.0686848958 3969.83465,0.206054687 C3969.83465,0.206054687 3969.90333,0.274739583 3970.0407,0.412109375 C3970.0407,0.412109375 3970.0407,0.480794271 3970.0407,0.618164062 C3970.0407,0.618164062 3970.0407,0.686848958 3970.0407,0.82421875 C3970.0407,2.61002604 3970.0407,4.73925781 3970.0407,7.21191406 C3970.0407,9.8219401 3970.0407,12.7753906 3970.0407,16.0722656 C3970.0407,16.2096354 3970.0407,16.3470052 3970.0407,16.484375 C3970.0407,16.6217448 3969.97202,16.6904297 3969.83465,16.6904297 C3969.69728,16.8277995 3969.62859,16.8964844 3969.62859,16.8964844 C3969.49122,17.0338542 3969.35385,17.1025391 3969.21648,17.1025391 C3969.07911,17.1025391 3968.94174,17.0338542 3968.80438,16.8964844 C3968.80438,16.8964844 3968.73569,16.8277995 3968.59832,16.6904297 C3968.46095,16.6904297 3968.39227,16.6217448 3968.39227,16.484375 C3968.39227,16.3470052 3968.39227,16.2096354 3968.39227,16.0722656 C3968.39227,14.6985677 3968.39227,12.9127604 3968.39227,10.7148438 C3968.39227,8.51692708 3968.39227,5.97558594 3968.39227,3.09082031 C3968.2549,3.09082031 3968.11753,3.15950521 3967.98016,3.296875 C3967.98016,3.43424479 3967.91147,3.57161458 3967.7741,3.70898437 C3967.63673,3.70898437 3967.49936,3.77766927 3967.36199,3.91503906 C3967.22462,3.91503906 3967.15594,3.91503906 3967.15594,3.91503906 C3967.01857,3.91503906 3966.8812,3.91503906 3966.74383,3.91503906 C3966.60646,3.77766927 3966.53777,3.70898437 3966.53777,3.70898437 C3966.4004,3.57161458 3966.33172,3.43424479 3966.33172,3.296875 C3966.19435,3.296875 3966.12566,3.2281901 3966.12566,3.09082031 C3966.12566,2.95345052 3966.19435,2.81608073 3966.33172,2.67871094 C3966.33172,2.54134115 3966.4004,2.47265625 3966.53777,2.47265625 C3966.67514,2.19791667 3966.94988,1.85449219 3967.36199,1.44238281 C3967.7741,1.16764323 3968.18621,0.755533854 3968.59832,0.206054687 C3968.59832,0.206054687 3968.66701,0.137369792 3968.80438,0 C3968.94174,0 3969.01043,0 3969.01043,0 C3969.01043,0 3969.07911,0 3969.21648,0 C3969.21648,0 3969.21648,0 3969.21648,0 C3969.21648,0 3969.28517,0 3969.42254,0 C3969.42254,0 3969.49122,0 3969.62859,0 Z M3986.31902,60.1679688 C3986.18165,60.3053385 3986.04428,60.3740234 3985.90691,60.3740234 C3985.90691,60.3740234 3985.83823,60.3740234 3985.70086,60.3740234 C3984.87664,60.3740234 3984.12111,60.3740234 3983.43426,60.3740234 C3982.74741,60.3740234 3982.06056,60.3740234 3981.37371,60.3740234 C3980.68686,60.3740234 3979.93133,60.3740234 3979.10711,60.3740234 C3978.42026,60.3740234 3977.73341,60.3740234 3977.04656,60.3740234 C3976.90919,60.3740234 3976.84051,60.3740234 3976.84051,60.3740234 C3976.84051,60.3740234 3976.77182,60.3740234 3976.63445,60.3740234 C3976.63445,60.3740234 3976.56577,60.3740234 3976.4284,60.3740234 C3976.4284,60.2366536 3976.4284,60.1679688 3976.4284,60.1679688 C3976.29103,60.1679688 3976.22234,60.0992839 3976.22234,59.9619141 C3976.22234,59.9619141 3976.22234,59.9619141 3976.22234,59.9619141 C3976.22234,59.8245443 3976.22234,59.7558594 3976.22234,59.7558594 C3976.22234,59.6184896 3976.22234,59.5498047 3976.22234,59.5498047 C3976.22234,59.5498047 3976.22234,59.5498047 3976.22234,59.5498047 C3976.22234,59.5498047 3976.22234,59.5498047 3976.22234,59.5498047 C3976.22234,59.4124349 3976.22234,59.2750651 3976.22234,59.1376953 C3976.22234,58.8629557 3976.29103,58.5195313 3976.4284,58.1074219 C3976.56577,57.6953125 3976.70314,57.2832031 3976.84051,56.8710937 C3977.11525,56.4589844 3977.38999,55.9781901 3977.66473,55.4287109 C3977.8021,55.1539714 3978.00815,54.8792318 3978.28289,54.6044922 C3978.55763,54.3297526 3978.83237,54.055013 3979.10711,53.7802734 C3979.38185,53.5055339 3979.65659,53.2307943 3979.93133,52.9560547 C3980.20607,52.6813151 3980.54949,52.4065755 3980.9616,52.1318359 C3981.78582,51.7197266 3982.40398,51.3076172 3982.81609,50.8955078 C3983.36557,50.4833984 3983.709,50.0712891 3983.84637,49.6591797 C3984.12111,49.3844401 3984.25848,49.0410156 3984.25848,48.6289062 C3984.39585,48.3541667 3984.46453,48.0794271 3984.46453,47.8046875 C3984.46453,47.6673177 3984.46453,47.5986328 3984.46453,47.5986328 C3984.46453,47.461263 3984.46453,47.3238932 3984.46453,47.1865234 C3984.46453,47.1865234 3984.46453,47.1178385 3984.46453,46.9804688 C3984.32716,46.843099 3984.25848,46.7057292 3984.25848,46.5683594 C3984.12111,46.4309896 3983.98374,46.2936198 3983.84637,46.15625 C3983.709,46.0188802 3983.57163,45.8128255 3983.43426,45.5380859 C3983.15952,45.4007161 3982.88478,45.3320313 3982.61004,45.3320313 C3982.19793,45.1946615 3981.78582,45.1259766 3981.37371,45.1259766 C3980.9616,45.1259766 3980.61818,45.1946615 3980.34344,45.3320313 C3980.0687,45.3320313 3979.86264,45.4007161 3979.72527,45.5380859 C3979.45053,45.6754557 3979.17579,45.8815104 3978.90105,46.15625 C3978.76368,46.4309896 3978.62632,46.7057292 3978.48895,46.9804688 C3978.48895,47.1178385 3978.42026,47.1865234 3978.28289,47.1865234 C3978.14552,47.3238932 3978.07684,47.3925781 3978.07684,47.3925781 C3977.93947,47.3925781 3977.8021,47.3925781 3977.66473,47.3925781 C3977.52736,47.3925781 3977.38999,47.3925781 3977.25262,47.3925781 C3977.11525,47.2552083 3977.04656,47.1865234 3977.04656,47.1865234 C3976.90919,47.0491536 3976.84051,46.9117839 3976.84051,46.7744141 C3976.84051,46.7744141 3976.84051,46.7057292 3976.84051,46.5683594 C3976.84051,46.4309896 3976.84051,46.2936198 3976.84051,46.15625 C3977.11525,45.7441406 3977.38999,45.3320313 3977.66473,44.9199219 C3977.93947,44.6451823 3978.28289,44.3704427 3978.695,44.0957031 C3979.10711,43.8209635 3979.51922,43.6835938 3979.93133,43.6835938 C3980.34344,43.546224 3980.82423,43.4775391 3981.37371,43.4775391 C3982.3353,43.4775391 3983.09083,43.546224 3983.64031,43.6835938 C3984.32716,43.9583333 3984.87664,44.3704427 3985.28875,44.9199219 C3985.56349,45.3320313 3985.83823,45.8128255 3986.11297,46.3623047 C3986.25034,46.7744141 3986.31902,47.2552083 3986.31902,47.8046875 C3986.31902,48.3541667 3986.25034,48.9036458 3986.11297,49.453125 C3985.83823,50.0026042 3985.56349,50.4833984 3985.28875,50.8955078 C3984.87664,51.444987 3984.39585,51.9257812 3983.84637,52.3378906 C3983.29689,52.75 3982.67872,53.2307943 3981.99188,53.7802734 C3981.30503,54.1923828 3980.75555,54.6044922 3980.34344,55.0166016 C3979.93133,55.4287109 3979.5879,55.8408203 3979.31316,56.2529297 C3979.03842,56.8024089 3978.76368,57.2832031 3978.48895,57.6953125 C3978.35158,58.1074219 3978.21421,58.4508464 3978.07684,58.7255859 C3978.90105,58.7255859 3980.00001,58.7255859 3981.37371,58.7255859 C3982.61004,58.7255859 3984.05242,58.7255859 3985.70086,58.7255859 C3985.83823,58.7255859 3985.90691,58.7255859 3985.90691,58.7255859 C3986.04428,58.8629557 3986.18165,58.9316406 3986.31902,58.9316406 C3986.31902,59.0690104 3986.38771,59.2063802 3986.52508,59.34375 C3986.52508,59.34375 3986.52508,59.4124349 3986.52508,59.5498047 C3986.52508,59.6871745 3986.52508,59.8245443 3986.52508,59.9619141 C3986.38771,60.0992839 3986.31902,60.1679688 3986.31902,60.1679688 Z" transform="translate(-3952.5 -23.734)"/></svg>