<svg xmlns="http://www.w3.org/2000/svg" width="207" height="207" viewBox="0 0 207 207"><path fill="#131313" d="M144.966797,26.8300781 C147.212891,26.8300781 149.159505,27.578776 150.806641,29.0761719 C152.304036,30.7233073 153.052734,32.6699219 153.052734,34.9160156 C153.052734,37.1621094 152.304036,39.0338542 150.806641,40.53125 C149.159505,42.1783854 147.212891,43.0019531 144.966797,43.0019531 C138.078776,43.0019531 127.746745,43.0019531 113.970703,43.0019531 C113.970703,72.0514323 113.970703,115.625651 113.970703,173.724609 C113.970703,175.970703 113.147135,177.917318 111.5,179.564453 C110.002604,181.061849 108.130859,181.810547 105.884766,181.810547 C103.638672,181.810547 101.692057,181.061849 100.044922,179.564453 C98.547526,177.917318 97.7988281,175.970703 97.7988281,173.724609 C97.7988281,144.67513 97.7988281,101.100911 97.7988281,43.0019531 C90.9108073,43.0019531 80.578776,43.0019531 66.8027344,43.0019531 C64.5566406,43.0019531 62.610026,42.1783854 60.9628906,40.53125 C59.4654948,39.0338542 58.7167969,37.1621094 58.7167969,34.9160156 C58.7167969,32.6699219 59.4654948,30.7233073 60.9628906,29.0761719 C62.610026,27.578776 64.5566406,26.8300781 66.8027344,26.8300781 C79.8300781,26.8300781 92.8574219,26.8300781 105.884766,26.8300781 C118.912109,26.8300781 131.939453,26.8300781 144.966797,26.8300781 Z M74.8886719,15.1503906 C87.3170573,15.1503906 106.034505,15.1503906 131.041016,15.1503906 C131.041016,15.5996094 131.041016,16.3483073 131.041016,17.3964844 C118.61263,17.3964844 99.8951823,17.3964844 74.8886719,17.3964844 C74.8886719,17.2467448 74.8886719,17.0970052 74.8886719,16.9472656 C75.0384115,16.6477865 75.1132812,16.4231771 75.1132812,16.2734375 C75.1132812,16.1236979 75.0384115,15.8990885 74.8886719,15.5996094 C74.8886719,15.4498698 74.8886719,15.3001302 74.8886719,15.1503906 Z M70.171875,20.5410156 C71.0703125,20.5410156 71.96875,20.2415365 72.8671875,19.6425781 C73.6158854,19.0436198 74.0651042,18.2949219 74.2148438,17.3964844 C74.3645833,17.3964844 74.5891927,17.3964844 74.8886719,17.3964844 C74.5891927,18.4446615 73.9902344,19.343099 73.0917969,20.0917969 C72.343099,20.8404948 71.3697917,21.2148438 70.171875,21.2148438 C68.8242188,21.2148438 67.6263021,20.6907552 66.578125,19.6425781 C65.6796875,18.7441406 65.2304688,17.6210938 65.2304688,16.2734375 C65.2304688,14.9257812 65.6796875,13.8027344 66.578125,12.9042969 C67.6263021,11.8561198 68.8242188,11.3320312 70.171875,11.3320312 C71.3697917,11.3320312 72.343099,11.7063802 73.0917969,12.4550781 C73.9902344,13.203776 74.5891927,14.1022135 74.8886719,15.1503906 C74.7389323,15.1503906 74.5143229,15.1503906 74.2148438,15.1503906 C74.0651042,14.2519531 73.6158854,13.5032552 72.8671875,12.9042969 C71.96875,12.3053385 71.0703125,12.0058594 70.171875,12.0058594 C68.9739583,12.0058594 67.9257812,12.3802083 67.0273438,13.1289062 C66.2786458,14.0273438 65.9042969,15.0755208 65.9042969,16.2734375 C65.9042969,17.4713542 66.2786458,18.5195312 67.0273438,19.4179688 C67.9257812,20.1666667 68.9739583,20.5410156 70.171875,20.5410156 Z M74.8886719,15.1503906 C74.8886719,15.3001302 74.8886719,15.4498698 74.8886719,15.5996094 C75.0384115,15.8990885 75.1132812,16.1236979 75.1132812,16.2734375 C75.1132812,16.4231771 75.0384115,16.6477865 74.8886719,16.9472656 C74.8886719,17.0970052 74.8886719,17.2467448 74.8886719,17.3964844 C74.7389323,17.3964844 74.5143229,17.3964844 74.2148438,17.3964844 C74.3645833,17.2467448 74.4394531,17.0970052 74.4394531,16.9472656 C74.4394531,16.6477865 74.4394531,16.4231771 74.4394531,16.2734375 C74.4394531,16.1236979 74.4394531,15.8990885 74.4394531,15.5996094 C74.4394531,15.4498698 74.3645833,15.3001302 74.2148438,15.1503906 C74.3645833,15.1503906 74.5143229,15.1503906 74.6640625,15.1503906 C74.6640625,15.1503906 74.7389323,15.1503906 74.8886719,15.1503906 Z M70.171875,12.0058594 C71.0703125,12.0058594 71.96875,12.3053385 72.8671875,12.9042969 C73.6158854,13.5032552 74.0651042,14.2519531 74.2148438,15.1503906 C74.0651042,15.1503906 73.9153646,15.1503906 73.765625,15.1503906 C73.4661458,14.4016927 73.0169271,13.8027344 72.4179688,13.3535156 C71.6692708,12.7545573 70.9205729,12.4550781 70.171875,12.4550781 C70.3216146,12.4550781 70.4713542,12.4550781 70.6210938,12.4550781 C70.6210938,12.4550781 70.6959635,12.4550781 70.8457031,12.4550781 C70.6959635,12.4550781 70.6210938,12.4550781 70.6210938,12.4550781 C70.4713542,12.4550781 70.3216146,12.4550781 70.171875,12.4550781 C70.0221354,12.4550781 69.8723958,12.4550781 69.7226562,12.4550781 C69.5729167,12.4550781 69.4980469,12.4550781 69.4980469,12.4550781 C69.4980469,12.4550781 69.5729167,12.4550781 69.7226562,12.4550781 C69.8723958,12.4550781 70.0221354,12.4550781 70.171875,12.4550781 C69.1236979,12.4550781 68.2252604,12.8294271 67.4765625,13.578125 C66.7278646,14.3268229 66.3535156,15.2252604 66.3535156,16.2734375 C66.3535156,17.3216146 66.7278646,18.2200521 67.4765625,18.96875 C68.2252604,19.7174479 69.1236979,20.0917969 70.171875,20.0917969 C70.9205729,20.0917969 71.6692708,19.7923177 72.4179688,19.1933594 C73.0169271,18.7441406 73.4661458,18.1451823 73.765625,17.3964844 C73.9153646,17.3964844 74.0651042,17.3964844 74.2148438,17.3964844 C74.0651042,18.2949219 73.6158854,19.0436198 72.8671875,19.6425781 C71.96875,20.2415365 71.0703125,20.5410156 70.171875,20.5410156 C68.9739583,20.5410156 67.9257812,20.1666667 67.0273438,19.4179688 C66.2786458,18.5195312 65.9042969,17.4713542 65.9042969,16.2734375 C65.9042969,15.0755208 66.2786458,14.0273438 67.0273438,13.1289062 C67.9257812,12.3802083 68.9739583,12.0058594 70.171875,12.0058594 Z M73.9902344,16.2734375 C73.9902344,16.1236979 73.9153646,15.8990885 73.765625,15.5996094 C73.765625,15.4498698 73.765625,15.3001302 73.765625,15.1503906 C73.9153646,15.1503906 74.0651042,15.1503906 74.2148438,15.1503906 C74.3645833,15.3001302 74.4394531,15.4498698 74.4394531,15.5996094 C74.4394531,15.8990885 74.4394531,16.1236979 74.4394531,16.2734375 C74.4394531,16.4231771 74.4394531,16.6477865 74.4394531,16.9472656 C74.4394531,17.0970052 74.3645833,17.2467448 74.2148438,17.3964844 C74.0651042,17.3964844 73.9153646,17.3964844 73.765625,17.3964844 C73.765625,17.2467448 73.765625,17.0970052 73.765625,16.9472656 C73.9153646,16.6477865 73.9902344,16.4231771 73.9902344,16.2734375 Z M131.041016,19.6425781 C131.041016,19.1933594 131.041016,18.4446615 131.041016,17.3964844 C131.490234,17.3964844 132.238932,17.3964844 133.287109,17.3964844 C133.287109,16.9472656 133.287109,16.1985677 133.287109,15.1503906 C132.837891,15.1503906 132.089193,15.1503906 131.041016,15.1503906 C131.041016,14.7011719 131.041016,13.952474 131.041016,12.9042969 C133.736328,13.6529948 137.854167,14.7760417 143.394531,16.2734375 C140.699219,17.0221354 136.58138,18.1451823 131.041016,19.6425781 Z M131.041016,15.1503906 C131.490234,15.1503906 132.238932,15.1503906 133.287109,15.1503906 C133.287109,15.5996094 133.287109,16.3483073 133.287109,17.3964844 C132.837891,17.3964844 132.089193,17.3964844 131.041016,17.3964844 C131.041016,16.9472656 131.041016,16.1985677 131.041016,15.1503906 Z M85.2207031,61.8691406 C85.3704427,61.8691406 85.5950521,61.8691406 85.8945312,61.8691406 C86.0442708,61.8691406 86.1940104,61.8691406 86.34375,61.8691406 C86.6432292,61.8691406 86.8678385,61.8691406 87.0175781,61.8691406 C87.1673177,61.8691406 87.3170573,61.8691406 87.4667969,61.8691406 C87.4667969,83.7311198 87.4667969,116.673828 87.4667969,160.697266 C87.0175781,160.697266 86.2688802,160.697266 85.2207031,160.697266 C85.2207031,144.225911 85.2207031,127.754557 85.2207031,111.283203 C85.2207031,94.811849 85.2207031,78.3404948 85.2207031,61.8691406 Z M87.4667969,162.943359 C87.4667969,162.344401 87.4667969,161.595703 87.4667969,160.697266 C88.0657552,160.697266 88.8144531,160.697266 89.7128906,160.697266 C88.9641927,163.392578 87.8411458,167.510417 86.34375,173.050781 C85.5950521,170.355469 84.546875,166.23763 83.1992188,160.697266 C83.6484375,160.697266 84.3222656,160.697266 85.2207031,160.697266 C85.2207031,161.146484 85.2207031,161.895182 85.2207031,162.943359 C85.8196615,162.943359 86.5683594,162.943359 87.4667969,162.943359 Z M85.2207031,160.697266 C85.8196615,160.697266 86.5683594,160.697266 87.4667969,160.697266 C87.4667969,161.146484 87.4667969,161.895182 87.4667969,162.943359 C87.0175781,162.943359 86.2688802,162.943359 85.2207031,162.943359 C85.2207031,162.344401 85.2207031,161.595703 85.2207031,160.697266 Z M86.34375,52.2109375 C87.6914062,52.2109375 88.8893229,52.6601562 89.9375,53.5585938 C90.8359375,54.4570312 91.2851562,55.5800781 91.2851562,56.9277344 C91.2851562,58.125651 90.9108073,59.1738281 90.1621094,60.0722656 C89.563151,60.9707031 88.6647135,61.5696615 87.4667969,61.8691406 C87.4667969,61.719401 87.4667969,61.4947917 87.4667969,61.1953125 C88.514974,60.8958333 89.3385417,60.3717448 89.9375,59.6230469 C90.5364583,58.874349 90.8359375,57.9759115 90.8359375,56.9277344 C90.8359375,55.7298177 90.3867188,54.7565104 89.4882812,54.0078125 C88.5898438,53.109375 87.5416667,52.6601562 86.34375,52.6601562 C85.1458333,52.6601562 84.172526,53.109375 83.4238281,54.0078125 C82.5253906,54.7565104 82.0761719,55.7298177 82.0761719,56.9277344 C82.0761719,57.9759115 82.375651,58.874349 82.9746094,59.6230469 C83.5735677,60.3717448 84.3222656,60.8958333 85.2207031,61.1953125 C85.2207031,61.3450521 85.2207031,61.5696615 85.2207031,61.8691406 C84.172526,61.5696615 83.2740885,60.9707031 82.5253906,60.0722656 C81.9264323,59.1738281 81.6269531,58.125651 81.6269531,56.9277344 C81.6269531,55.7298177 82.0761719,54.6067708 82.9746094,53.5585938 C83.8730469,52.6601562 84.9960938,52.2109375 86.34375,52.2109375 Z M86.34375,61.4199219 C86.6432292,61.4199219 86.8678385,61.3450521 87.0175781,61.1953125 C87.1673177,61.1953125 87.3170573,61.1953125 87.4667969,61.1953125 C87.4667969,61.3450521 87.4667969,61.5696615 87.4667969,61.8691406 C87.3170573,61.8691406 87.1673177,61.8691406 87.0175781,61.8691406 C86.8678385,61.8691406 86.6432292,61.8691406 86.34375,61.8691406 C86.1940104,61.8691406 86.0442708,61.8691406 85.8945312,61.8691406 C85.5950521,61.8691406 85.3704427,61.8691406 85.2207031,61.8691406 C85.2207031,61.719401 85.2207031,61.4947917 85.2207031,61.1953125 C85.3704427,61.1953125 85.5950521,61.2701823 85.8945312,61.4199219 C86.0442708,61.4199219 86.1940104,61.4199219 86.34375,61.4199219 Z M82.75,56.9277344 C82.75,57.8261719 82.9746094,58.5748698 83.4238281,59.1738281 C83.8730469,59.922526 84.4720052,60.3717448 85.2207031,60.5214844 C85.2207031,60.671224 85.2207031,60.8958333 85.2207031,61.1953125 C84.3222656,60.8958333 83.5735677,60.3717448 82.9746094,59.6230469 C82.375651,58.874349 82.0761719,57.9759115 82.0761719,56.9277344 C82.0761719,55.7298177 82.5253906,54.7565104 83.4238281,54.0078125 C84.172526,53.109375 85.1458333,52.6601562 86.34375,52.6601562 C87.5416667,52.6601562 88.5898438,53.109375 89.4882812,54.0078125 C90.3867188,54.7565104 90.8359375,55.7298177 90.8359375,56.9277344 C90.8359375,57.9759115 90.5364583,58.874349 89.9375,59.6230469 C89.3385417,60.3717448 88.514974,60.8958333 87.4667969,61.1953125 C87.4667969,61.0455729 87.4667969,60.8209635 87.4667969,60.5214844 C88.2154948,60.3717448 88.8893229,59.922526 89.4882812,59.1738281 C89.9375,58.5748698 90.1621094,57.8261719 90.1621094,56.9277344 C90.1621094,56.0292969 89.7877604,55.2057292 89.0390625,54.4570312 C88.2903646,53.7083333 87.3919271,53.3339844 86.34375,53.3339844 C85.2955729,53.3339844 84.4720052,53.7083333 83.8730469,54.4570312 C83.124349,55.2057292 82.75,56.0292969 82.75,56.9277344 C82.75,56.7779948 82.75,56.703125 82.75,56.703125 C82.75,56.5533854 82.75,56.4785156 82.75,56.4785156 C82.75,56.4785156 82.75,56.5533854 82.75,56.703125 C82.75,56.703125 82.75,56.7779948 82.75,56.9277344 C82.75,57.2272135 82.75,57.3769531 82.75,57.3769531 C82.75,57.5266927 82.75,57.6015625 82.75,57.6015625 C82.75,57.6015625 82.75,57.5266927 82.75,57.3769531 C82.75,57.3769531 82.75,57.2272135 82.75,56.9277344 Z M87.4667969,61.1953125 C87.3170573,61.1953125 87.1673177,61.1953125 87.0175781,61.1953125 C86.8678385,61.3450521 86.6432292,61.4199219 86.34375,61.4199219 C86.1940104,61.4199219 86.0442708,61.3450521 85.8945312,61.1953125 C85.5950521,61.1953125 85.3704427,61.1953125 85.2207031,61.1953125 C85.2207031,61.0455729 85.2207031,60.8209635 85.2207031,60.5214844 C85.3704427,60.671224 85.5950521,60.7460938 85.8945312,60.7460938 C86.0442708,60.7460938 86.1940104,60.7460938 86.34375,60.7460938 C86.6432292,60.7460938 86.8678385,60.7460938 87.0175781,60.7460938 C87.1673177,60.7460938 87.3170573,60.671224 87.4667969,60.5214844 C87.4667969,60.671224 87.4667969,60.8209635 87.4667969,60.9707031 C87.4667969,60.9707031 87.4667969,61.0455729 87.4667969,61.1953125 Z M57.8183594,1 C57.8183594,1 57.8932292,1.07486979 58.0429688,1.22460938 C58.0429688,1.22460938 58.1178385,1.29947917 58.2675781,1.44921875 C58.2675781,1.44921875 58.2675781,1.52408854 58.2675781,1.67382812 C58.2675781,1.67382812 58.2675781,1.74869792 58.2675781,1.8984375 C58.2675781,3.84505208 58.2675781,6.16601562 58.2675781,8.86132812 C58.2675781,11.7063802 58.2675781,14.9257812 58.2675781,18.5195312 C58.2675781,18.6692708 58.2675781,18.8190104 58.2675781,18.96875 C58.2675781,19.1184896 58.1927083,19.1933594 58.0429688,19.1933594 C57.8932292,19.343099 57.8183594,19.4179688 57.8183594,19.4179688 C57.6686198,19.5677083 57.5188802,19.6425781 57.3691406,19.6425781 C57.219401,19.6425781 57.0696615,19.5677083 56.9199219,19.4179688 C56.9199219,19.4179688 56.8450521,19.343099 56.6953125,19.1933594 C56.5455729,19.1933594 56.4707031,19.1184896 56.4707031,18.96875 C56.4707031,18.8190104 56.4707031,18.6692708 56.4707031,18.5195312 C56.4707031,17.0221354 56.4707031,15.0755208 56.4707031,12.6796875 C56.4707031,10.2838542 56.4707031,7.51367188 56.4707031,4.36914062 C56.3209635,4.36914062 56.171224,4.44401042 56.0214844,4.59375 C56.0214844,4.74348958 55.9466146,4.89322917 55.796875,5.04296875 C55.6471354,5.04296875 55.4973958,5.11783854 55.3476562,5.26757812 C55.1979167,5.26757812 55.1230469,5.26757812 55.1230469,5.26757812 C54.9733073,5.26757812 54.8235677,5.26757812 54.6738281,5.26757812 C54.5240885,5.11783854 54.4492188,5.04296875 54.4492188,5.04296875 C54.2994792,4.89322917 54.2246094,4.74348958 54.2246094,4.59375 C54.0748698,4.59375 54,4.51888021 54,4.36914062 C54,4.21940104 54.0748698,4.06966146 54.2246094,3.91992188 C54.2246094,3.77018229 54.2994792,3.6953125 54.4492188,3.6953125 C54.5989583,3.39583333 54.8984375,3.02148438 55.3476562,2.57226562 C55.796875,2.27278646 56.2460938,1.82356771 56.6953125,1.22460938 C56.6953125,1.22460938 56.7701823,1.14973958 56.9199219,1 C57.0696615,1 57.1445312,1 57.1445312,1 C57.1445312,1 57.219401,1 57.3691406,1 C57.3691406,1 57.3691406,1 57.3691406,1 C57.3691406,1 57.4440104,1 57.59375,1 C57.59375,1 57.6686198,1 57.8183594,1 Z M76.0117188,66.5859375 C75.8619792,66.7356771 75.7122396,66.8105469 75.5625,66.8105469 C75.5625,66.8105469 75.4876302,66.8105469 75.3378906,66.8105469 C74.4394531,66.8105469 73.6158854,66.8105469 72.8671875,66.8105469 C72.1184896,66.8105469 71.3697917,66.8105469 70.6210938,66.8105469 C69.8723958,66.8105469 69.0488281,66.8105469 68.1503906,66.8105469 C67.4016927,66.8105469 66.6529948,66.8105469 65.9042969,66.8105469 C65.7545573,66.8105469 65.6796875,66.8105469 65.6796875,66.8105469 C65.6796875,66.8105469 65.6048177,66.8105469 65.4550781,66.8105469 C65.4550781,66.8105469 65.3802083,66.8105469 65.2304688,66.8105469 C65.2304688,66.6608073 65.2304688,66.5859375 65.2304688,66.5859375 C65.0807292,66.5859375 65.0058594,66.5110677 65.0058594,66.3613281 C65.0058594,66.3613281 65.0058594,66.3613281 65.0058594,66.3613281 C65.0058594,66.2115885 65.0058594,66.1367188 65.0058594,66.1367188 C65.0058594,65.9869792 65.0058594,65.9121094 65.0058594,65.9121094 C65.0058594,65.9121094 65.0058594,65.9121094 65.0058594,65.9121094 C65.0058594,65.9121094 65.0058594,65.9121094 65.0058594,65.9121094 C65.0058594,65.7623698 65.0058594,65.6126302 65.0058594,65.4628906 C65.0058594,65.1634115 65.0807292,64.7890625 65.2304688,64.3398438 C65.3802083,63.890625 65.5299479,63.4414062 65.6796875,62.9921875 C65.9791667,62.5429688 66.2786458,62.0188802 66.578125,61.4199219 C66.7278646,61.1204427 66.952474,60.8209635 67.2519531,60.5214844 C67.5514323,60.2220052 67.8509115,59.922526 68.1503906,59.6230469 C68.4498698,59.3235677 68.749349,59.0240885 69.0488281,58.7246094 C69.3483073,58.4251302 69.7226562,58.125651 70.171875,57.8261719 C71.0703125,57.3769531 71.7441406,56.9277344 72.1933594,56.4785156 C72.7923177,56.0292969 73.1666667,55.5800781 73.3164062,55.1308594 C73.6158854,54.8313802 73.765625,54.4570312 73.765625,54.0078125 C73.9153646,53.7083333 73.9902344,53.4088542 73.9902344,53.109375 C73.9902344,52.9596354 73.9902344,52.8847656 73.9902344,52.8847656 C73.9902344,52.735026 73.9902344,52.5852865 73.9902344,52.4355469 C73.9902344,52.4355469 73.9902344,52.3606771 73.9902344,52.2109375 C73.8404948,52.0611979 73.765625,51.9114583 73.765625,51.7617188 C73.6158854,51.6119792 73.4661458,51.4622396 73.3164062,51.3125 C73.1666667,51.1627604 73.0169271,50.938151 72.8671875,50.6386719 C72.5677083,50.4889323 72.2682292,50.4140625 71.96875,50.4140625 C71.5195312,50.2643229 71.0703125,50.1894531 70.6210938,50.1894531 C70.171875,50.1894531 69.797526,50.2643229 69.4980469,50.4140625 C69.1985677,50.4140625 68.9739583,50.4889323 68.8242188,50.6386719 C68.5247396,50.7884115 68.2252604,51.0130208 67.9257812,51.3125 C67.7760417,51.6119792 67.6263021,51.9114583 67.4765625,52.2109375 C67.4765625,52.3606771 67.4016927,52.4355469 67.2519531,52.4355469 C67.1022135,52.5852865 67.0273438,52.6601562 67.0273438,52.6601562 C66.8776042,52.6601562 66.7278646,52.6601562 66.578125,52.6601562 C66.4283854,52.6601562 66.2786458,52.6601562 66.1289062,52.6601562 C65.9791667,52.5104167 65.9042969,52.4355469 65.9042969,52.4355469 C65.7545573,52.2858073 65.6796875,52.1360677 65.6796875,51.9863281 C65.6796875,51.9863281 65.6796875,51.9114583 65.6796875,51.7617188 C65.6796875,51.6119792 65.6796875,51.4622396 65.6796875,51.3125 C65.9791667,50.8632812 66.2786458,50.4140625 66.578125,49.9648438 C66.8776042,49.6653646 67.2519531,49.3658854 67.7011719,49.0664062 C68.1503906,48.7669271 68.5996094,48.6171875 69.0488281,48.6171875 C69.4980469,48.4674479 70.0221354,48.3925781 70.6210938,48.3925781 C71.6692708,48.3925781 72.4928385,48.4674479 73.0917969,48.6171875 C73.8404948,48.9166667 74.4394531,49.3658854 74.8886719,49.9648438 C75.188151,50.4140625 75.4876302,50.938151 75.7871094,51.5371094 C75.936849,51.9863281 76.0117188,52.5104167 76.0117188,53.109375 C76.0117188,53.7083333 75.936849,54.3072917 75.7871094,54.90625 C75.4876302,55.5052083 75.188151,56.0292969 74.8886719,56.4785156 C74.4394531,57.077474 73.9153646,57.6015625 73.3164062,58.0507812 C72.7174479,58.5 72.0436198,59.0240885 71.2949219,59.6230469 C70.546224,60.0722656 69.9472656,60.5214844 69.4980469,60.9707031 C69.0488281,61.4199219 68.6744792,61.8691406 68.375,62.3183594 C68.0755208,62.9173177 67.7760417,63.4414062 67.4765625,63.890625 C67.3268229,64.3398438 67.1770833,64.7141927 67.0273438,65.0136719 C67.9257812,65.0136719 69.1236979,65.0136719 70.6210938,65.0136719 C71.96875,65.0136719 73.5410156,65.0136719 75.3378906,65.0136719 C75.4876302,65.0136719 75.5625,65.0136719 75.5625,65.0136719 C75.7122396,65.1634115 75.8619792,65.2382812 76.0117188,65.2382812 C76.0117188,65.3880208 76.0865885,65.5377604 76.2363281,65.6875 C76.2363281,65.6875 76.2363281,65.7623698 76.2363281,65.9121094 C76.2363281,66.061849 76.2363281,66.2115885 76.2363281,66.3613281 C76.0865885,66.5110677 76.0117188,66.5859375 76.0117188,66.5859375 Z"/></svg>