<svg xmlns="http://www.w3.org/2000/svg" width="120" height="243" viewBox="0 0 120 243"><path fill="#131313" d="M95.7506641,24.265625 C97.8112109,24.265625 99.5970182,24.952474 101.108086,26.3261719 C102.481784,27.8372396 103.168633,29.6230469 103.168633,31.6835938 C103.168633,33.7441406 102.481784,35.461263 101.108086,36.8349609 C99.5970182,38.3460286 97.8112109,39.1015625 95.7506641,39.1015625 C89.4316536,39.1015625 79.953138,39.1015625 67.3151172,39.1015625 C67.3151172,65.7513021 67.3151172,105.725911 67.3151172,159.025391 C67.3151172,161.085938 66.5595833,162.871745 65.0485156,164.382812 C63.6748177,165.75651 61.9576953,166.443359 59.8971484,166.443359 C57.8366016,166.443359 56.0507943,165.75651 54.5397266,164.382812 C53.1660286,162.871745 52.4791797,161.085938 52.4791797,159.025391 C52.4791797,132.375651 52.4791797,92.4010417 52.4791797,39.1015625 C46.1601693,39.1015625 36.6816536,39.1015625 24.0436328,39.1015625 C21.9830859,39.1015625 20.1972786,38.3460286 18.6862109,36.8349609 C17.312513,35.461263 16.6256641,33.7441406 16.6256641,31.6835938 C16.6256641,29.6230469 17.312513,27.8372396 18.6862109,26.3261719 C20.1972786,24.952474 21.9830859,24.265625 24.0436328,24.265625 C35.9948047,24.265625 47.9459766,24.265625 59.8971484,24.265625 C71.8483203,24.265625 83.7994922,24.265625 95.7506641,24.265625 Z M32.78875,13.2470703 C44.1904427,13.2470703 61.3616667,13.2470703 84.3024219,13.2470703 C84.3024219,13.6591797 84.3024219,14.3460286 84.3024219,15.3076172 C72.9007292,15.3076172 55.7295052,15.3076172 32.78875,15.3076172 C32.78875,15.1702474 32.78875,15.0328776 32.78875,14.8955078 C32.9261198,14.6207682 32.9948047,14.4147135 32.9948047,14.2773438 C32.9948047,14.139974 32.9261198,13.9339193 32.78875,13.6591797 C32.78875,13.5218099 32.78875,13.3844401 32.78875,13.2470703 Z M28.4616016,18.1923828 C29.2858203,18.1923828 30.1100391,17.9176432 30.9342578,17.3681641 C31.6211068,16.8186849 32.0332161,16.1318359 32.1705859,15.3076172 C32.3079557,15.3076172 32.5140104,15.3076172 32.78875,15.3076172 C32.5140104,16.2692057 31.9645313,17.0934245 31.1403125,17.7802734 C30.4534635,18.4671224 29.5605599,18.8105469 28.4616016,18.8105469 C27.2252734,18.8105469 26.1263151,18.3297526 25.1647266,17.3681641 C24.3405078,16.5439453 23.9283984,15.5136719 23.9283984,14.2773438 C23.9283984,13.0410156 24.3405078,12.0107422 25.1647266,11.1865234 C26.1263151,10.2249349 27.2252734,9.74414062 28.4616016,9.74414062 C29.5605599,9.74414062 30.4534635,10.0875651 31.1403125,10.7744141 C31.9645313,11.461263 32.5140104,12.2854818 32.78875,13.2470703 C32.6513802,13.2470703 32.4453255,13.2470703 32.1705859,13.2470703 C32.0332161,12.4228516 31.6211068,11.7360026 30.9342578,11.1865234 C30.1100391,10.6370443 29.2858203,10.3623047 28.4616016,10.3623047 C27.3626432,10.3623047 26.4010547,10.7057292 25.5768359,11.3925781 C24.889987,12.2167969 24.5465625,13.1783854 24.5465625,14.2773438 C24.5465625,15.3763021 24.889987,16.3378906 25.5768359,17.1621094 C26.4010547,17.8489583 27.3626432,18.1923828 28.4616016,18.1923828 Z M32.78875,13.2470703 C32.78875,13.3844401 32.78875,13.5218099 32.78875,13.6591797 C32.9261198,13.9339193 32.9948047,14.139974 32.9948047,14.2773438 C32.9948047,14.4147135 32.9261198,14.6207682 32.78875,14.8955078 C32.78875,15.0328776 32.78875,15.1702474 32.78875,15.3076172 C32.6513802,15.3076172 32.4453255,15.3076172 32.1705859,15.3076172 C32.3079557,15.1702474 32.3766406,15.0328776 32.3766406,14.8955078 C32.3766406,14.6207682 32.3766406,14.4147135 32.3766406,14.2773438 C32.3766406,14.139974 32.3766406,13.9339193 32.3766406,13.6591797 C32.3766406,13.5218099 32.3079557,13.3844401 32.1705859,13.2470703 C32.3079557,13.2470703 32.4453255,13.2470703 32.5826953,13.2470703 C32.5826953,13.2470703 32.6513802,13.2470703 32.78875,13.2470703 Z M28.4616016,10.3623047 C29.2858203,10.3623047 30.1100391,10.6370443 30.9342578,11.1865234 C31.6211068,11.7360026 32.0332161,12.4228516 32.1705859,13.2470703 C32.0332161,13.2470703 31.8958464,13.2470703 31.7584766,13.2470703 C31.483737,12.5602214 31.0716276,12.0107422 30.5221484,11.5986328 C29.8352995,11.0491536 29.1484505,10.7744141 28.4616016,10.7744141 C28.5989714,10.7744141 28.7363411,10.7744141 28.8737109,10.7744141 C28.8737109,10.7744141 28.9423958,10.7744141 29.0797656,10.7744141 C28.9423958,10.7744141 28.8737109,10.7744141 28.8737109,10.7744141 C28.7363411,10.7744141 28.5989714,10.7744141 28.4616016,10.7744141 C28.3242318,10.7744141 28.186862,10.7744141 28.0494922,10.7744141 C27.9121224,10.7744141 27.8434375,10.7744141 27.8434375,10.7744141 C27.8434375,10.7744141 27.9121224,10.7744141 28.0494922,10.7744141 C28.186862,10.7744141 28.3242318,10.7744141 28.4616016,10.7744141 C27.500013,10.7744141 26.6757943,11.1178385 25.9889453,11.8046875 C25.3020964,12.4915365 24.9586719,13.3157552 24.9586719,14.2773438 C24.9586719,15.2389323 25.3020964,16.063151 25.9889453,16.75 C26.6757943,17.436849 27.500013,17.7802734 28.4616016,17.7802734 C29.1484505,17.7802734 29.8352995,17.5055339 30.5221484,16.9560547 C31.0716276,16.5439453 31.483737,15.9944661 31.7584766,15.3076172 C31.8958464,15.3076172 32.0332161,15.3076172 32.1705859,15.3076172 C32.0332161,16.1318359 31.6211068,16.8186849 30.9342578,17.3681641 C30.1100391,17.9176432 29.2858203,18.1923828 28.4616016,18.1923828 C27.3626432,18.1923828 26.4010547,17.8489583 25.5768359,17.1621094 C24.889987,16.3378906 24.5465625,15.3763021 24.5465625,14.2773438 C24.5465625,13.1783854 24.889987,12.2167969 25.5768359,11.3925781 C26.4010547,10.7057292 27.3626432,10.3623047 28.4616016,10.3623047 Z M31.9645313,14.2773438 C31.9645313,14.139974 31.8958464,13.9339193 31.7584766,13.6591797 C31.7584766,13.5218099 31.7584766,13.3844401 31.7584766,13.2470703 C31.8958464,13.2470703 32.0332161,13.2470703 32.1705859,13.2470703 C32.3079557,13.3844401 32.3766406,13.5218099 32.3766406,13.6591797 C32.3766406,13.9339193 32.3766406,14.139974 32.3766406,14.2773438 C32.3766406,14.4147135 32.3766406,14.6207682 32.3766406,14.8955078 C32.3766406,15.0328776 32.3079557,15.1702474 32.1705859,15.3076172 C32.0332161,15.3076172 31.8958464,15.3076172 31.7584766,15.3076172 C31.7584766,15.1702474 31.7584766,15.0328776 31.7584766,14.8955078 C31.8958464,14.6207682 31.9645313,14.4147135 31.9645313,14.2773438 Z M84.3024219,17.3681641 C84.3024219,16.9560547 84.3024219,16.2692057 84.3024219,15.3076172 C84.7145313,15.3076172 85.4013802,15.3076172 86.3629688,15.3076172 C86.3629688,14.8955078 86.3629688,14.2086589 86.3629688,13.2470703 C85.9508594,13.2470703 85.2640104,13.2470703 84.3024219,13.2470703 C84.3024219,12.8349609 84.3024219,12.148112 84.3024219,11.1865234 C86.7750781,11.8733724 90.5527474,12.9036458 95.6354297,14.2773438 C93.1627734,14.9641927 89.3851042,15.9944661 84.3024219,17.3681641 Z M84.3024219,13.2470703 C84.7145313,13.2470703 85.4013802,13.2470703 86.3629688,13.2470703 C86.3629688,13.6591797 86.3629688,14.3460286 86.3629688,15.3076172 C85.9508594,15.3076172 85.2640104,15.3076172 84.3024219,15.3076172 C84.3024219,14.8955078 84.3024219,14.2086589 84.3024219,13.2470703 Z M42.2672656,56.1064453 C42.4046354,56.1064453 42.6106901,56.1064453 42.8854297,56.1064453 C43.0227995,56.1064453 43.1601693,56.1064453 43.2975391,56.1064453 C43.5722786,56.1064453 43.7783333,56.1064453 43.9157031,56.1064453 C44.0530729,56.1064453 44.1904427,56.1064453 44.3278125,56.1064453 C44.3278125,76.1624349 44.3278125,106.383789 44.3278125,146.770508 C43.9157031,146.770508 43.2288542,146.770508 42.2672656,146.770508 C42.2672656,131.659831 42.2672656,116.549154 42.2672656,101.438477 C42.2672656,86.3277995 42.2672656,71.2171224 42.2672656,56.1064453 Z M44.3278125,148.831055 C44.3278125,148.281576 44.3278125,147.594727 44.3278125,146.770508 C44.8772917,146.770508 45.5641406,146.770508 46.3883594,146.770508 C45.7015104,149.243164 44.671237,153.020833 43.2975391,158.103516 C42.6106901,155.630859 41.6491016,151.85319 40.4127734,146.770508 C40.8248828,146.770508 41.4430469,146.770508 42.2672656,146.770508 C42.2672656,147.182617 42.2672656,147.869466 42.2672656,148.831055 C42.8167448,148.831055 43.5035938,148.831055 44.3278125,148.831055 Z M42.2672656,146.770508 C42.8167448,146.770508 43.5035938,146.770508 44.3278125,146.770508 C44.3278125,147.182617 44.3278125,147.869466 44.3278125,148.831055 C43.9157031,148.831055 43.2288542,148.831055 42.2672656,148.831055 C42.2672656,148.281576 42.2672656,147.594727 42.2672656,146.770508 Z M43.2975391,47.2460938 C44.5338672,47.2460938 45.6328255,47.6582031 46.5944141,48.4824219 C47.4186328,49.3066406 47.8307422,50.3369141 47.8307422,51.5732422 C47.8307422,52.6722005 47.4873177,53.6337891 46.8004688,54.4580078 C46.2509896,55.2822266 45.4267708,55.8317057 44.3278125,56.1064453 C44.3278125,55.9690755 44.3278125,55.7630208 44.3278125,55.4882812 C45.289401,55.2135417 46.0449349,54.7327474 46.5944141,54.0458984 C47.1438932,53.3590495 47.4186328,52.5348307 47.4186328,51.5732422 C47.4186328,50.4742839 47.0065234,49.5813802 46.1823047,48.8945312 C45.3580859,48.0703125 44.3964974,47.6582031 43.2975391,47.6582031 C42.1985807,47.6582031 41.3056771,48.0703125 40.6188281,48.8945312 C39.7946094,49.5813802 39.3825,50.4742839 39.3825,51.5732422 C39.3825,52.5348307 39.6572396,53.3590495 40.2067188,54.0458984 C40.7561979,54.7327474 41.4430469,55.2135417 42.2672656,55.4882812 C42.2672656,55.625651 42.2672656,55.8317057 42.2672656,56.1064453 C41.3056771,55.8317057 40.4814583,55.2822266 39.7946094,54.4580078 C39.2451302,53.6337891 38.9703906,52.6722005 38.9703906,51.5732422 C38.9703906,50.4742839 39.3825,49.4440104 40.2067188,48.4824219 C41.0309375,47.6582031 42.0612109,47.2460938 43.2975391,47.2460938 Z M43.2975391,55.6943359 C43.5722786,55.6943359 43.7783333,55.625651 43.9157031,55.4882812 C44.0530729,55.4882812 44.1904427,55.4882812 44.3278125,55.4882812 C44.3278125,55.625651 44.3278125,55.8317057 44.3278125,56.1064453 C44.1904427,56.1064453 44.0530729,56.1064453 43.9157031,56.1064453 C43.7783333,56.1064453 43.5722786,56.1064453 43.2975391,56.1064453 C43.1601693,56.1064453 43.0227995,56.1064453 42.8854297,56.1064453 C42.6106901,56.1064453 42.4046354,56.1064453 42.2672656,56.1064453 C42.2672656,55.9690755 42.2672656,55.7630208 42.2672656,55.4882812 C42.4046354,55.4882812 42.6106901,55.5569661 42.8854297,55.6943359 C43.0227995,55.6943359 43.1601693,55.6943359 43.2975391,55.6943359 Z M40.0006641,51.5732422 C40.0006641,52.3974609 40.2067188,53.0843099 40.6188281,53.6337891 C41.0309375,54.320638 41.5804167,54.7327474 42.2672656,54.8701172 C42.2672656,55.007487 42.2672656,55.2135417 42.2672656,55.4882812 C41.4430469,55.2135417 40.7561979,54.7327474 40.2067188,54.0458984 C39.6572396,53.3590495 39.3825,52.5348307 39.3825,51.5732422 C39.3825,50.4742839 39.7946094,49.5813802 40.6188281,48.8945312 C41.3056771,48.0703125 42.1985807,47.6582031 43.2975391,47.6582031 C44.3964974,47.6582031 45.3580859,48.0703125 46.1823047,48.8945312 C47.0065234,49.5813802 47.4186328,50.4742839 47.4186328,51.5732422 C47.4186328,52.5348307 47.1438932,53.3590495 46.5944141,54.0458984 C46.0449349,54.7327474 45.289401,55.2135417 44.3278125,55.4882812 C44.3278125,55.3509115 44.3278125,55.1448568 44.3278125,54.8701172 C45.0146615,54.7327474 45.6328255,54.320638 46.1823047,53.6337891 C46.5944141,53.0843099 46.8004688,52.3974609 46.8004688,51.5732422 C46.8004688,50.7490234 46.4570443,49.9934896 45.7701953,49.3066406 C45.0833464,48.6197917 44.2591276,48.2763672 43.2975391,48.2763672 C42.3359505,48.2763672 41.5804167,48.6197917 41.0309375,49.3066406 C40.3440885,49.9934896 40.0006641,50.7490234 40.0006641,51.5732422 C40.0006641,51.4358724 40.0006641,51.3671875 40.0006641,51.3671875 C40.0006641,51.2298177 40.0006641,51.1611328 40.0006641,51.1611328 C40.0006641,51.1611328 40.0006641,51.2298177 40.0006641,51.3671875 C40.0006641,51.3671875 40.0006641,51.4358724 40.0006641,51.5732422 C40.0006641,51.8479818 40.0006641,51.9853516 40.0006641,51.9853516 C40.0006641,52.1227214 40.0006641,52.1914062 40.0006641,52.1914062 C40.0006641,52.1914062 40.0006641,52.1227214 40.0006641,51.9853516 C40.0006641,51.9853516 40.0006641,51.8479818 40.0006641,51.5732422 Z M44.3278125,55.4882812 C44.1904427,55.4882812 44.0530729,55.4882812 43.9157031,55.4882812 C43.7783333,55.625651 43.5722786,55.6943359 43.2975391,55.6943359 C43.1601693,55.6943359 43.0227995,55.625651 42.8854297,55.4882812 C42.6106901,55.4882812 42.4046354,55.4882812 42.2672656,55.4882812 C42.2672656,55.3509115 42.2672656,55.1448568 42.2672656,54.8701172 C42.4046354,55.007487 42.6106901,55.0761719 42.8854297,55.0761719 C43.0227995,55.0761719 43.1601693,55.0761719 43.2975391,55.0761719 C43.5722786,55.0761719 43.7783333,55.0761719 43.9157031,55.0761719 C44.0530729,55.0761719 44.1904427,55.007487 44.3278125,54.8701172 C44.3278125,55.007487 44.3278125,55.1448568 44.3278125,55.2822266 C44.3278125,55.2822266 44.3278125,55.3509115 44.3278125,55.4882812 Z M17.1285938,0.265625 C17.1285938,0.265625 17.1972786,0.334309896 17.3346484,0.471679688 C17.3346484,0.471679688 17.4033333,0.540364583 17.5407031,0.677734375 C17.5407031,0.677734375 17.5407031,0.746419271 17.5407031,0.883789062 C17.5407031,0.883789062 17.5407031,0.952473958 17.5407031,1.08984375 C17.5407031,2.87565104 17.5407031,5.00488281 17.5407031,7.47753906 C17.5407031,10.0875651 17.5407031,13.0410156 17.5407031,16.3378906 C17.5407031,16.4752604 17.5407031,16.6126302 17.5407031,16.75 C17.5407031,16.8873698 17.4720182,16.9560547 17.3346484,16.9560547 C17.1972786,17.0934245 17.1285938,17.1621094 17.1285938,17.1621094 C16.991224,17.2994792 16.8538542,17.3681641 16.7164844,17.3681641 C16.5791146,17.3681641 16.4417448,17.2994792 16.304375,17.1621094 C16.304375,17.1621094 16.2356901,17.0934245 16.0983203,16.9560547 C15.9609505,16.9560547 15.8922656,16.8873698 15.8922656,16.75 C15.8922656,16.6126302 15.8922656,16.4752604 15.8922656,16.3378906 C15.8922656,14.9641927 15.8922656,13.1783854 15.8922656,10.9804688 C15.8922656,8.78255208 15.8922656,6.24121094 15.8922656,3.35644531 C15.7548958,3.35644531 15.617526,3.42513021 15.4801563,3.5625 C15.4801563,3.69986979 15.4114714,3.83723958 15.2741016,3.97460938 C15.1367318,3.97460938 14.999362,4.04329427 14.8619922,4.18066406 C14.7246224,4.18066406 14.6559375,4.18066406 14.6559375,4.18066406 C14.5185677,4.18066406 14.3811979,4.18066406 14.2438281,4.18066406 C14.1064583,4.04329427 14.0377734,3.97460938 14.0377734,3.97460938 C13.9004036,3.83723958 13.8317188,3.69986979 13.8317188,3.5625 C13.694349,3.5625 13.6256641,3.4938151 13.6256641,3.35644531 C13.6256641,3.21907552 13.694349,3.08170573 13.8317188,2.94433594 C13.8317188,2.80696615 13.9004036,2.73828125 14.0377734,2.73828125 C14.1751432,2.46354167 14.4498828,2.12011719 14.8619922,1.70800781 C15.2741016,1.43326823 15.6862109,1.02115885 16.0983203,0.471679688 C16.0983203,0.471679688 16.1670052,0.402994792 16.304375,0.265625 C16.4417448,0.265625 16.5104297,0.265625 16.5104297,0.265625 C16.5104297,0.265625 16.5791146,0.265625 16.7164844,0.265625 C16.7164844,0.265625 16.7164844,0.265625 16.7164844,0.265625 C16.7164844,0.265625 16.7851693,0.265625 16.9225391,0.265625 C16.9225391,0.265625 16.991224,0.265625 17.1285938,0.265625 Z M33.8190234,60.4335938 C33.6816536,60.5709635 33.5442839,60.6396484 33.4069141,60.6396484 C33.4069141,60.6396484 33.3382292,60.6396484 33.2008594,60.6396484 C32.3766406,60.6396484 31.6211068,60.6396484 30.9342578,60.6396484 C30.2474089,60.6396484 29.5605599,60.6396484 28.8737109,60.6396484 C28.186862,60.6396484 27.4313281,60.6396484 26.6071094,60.6396484 C25.9202604,60.6396484 25.2334115,60.6396484 24.5465625,60.6396484 C24.4091927,60.6396484 24.3405078,60.6396484 24.3405078,60.6396484 C24.3405078,60.6396484 24.2718229,60.6396484 24.1344531,60.6396484 C24.1344531,60.6396484 24.0657682,60.6396484 23.9283984,60.6396484 C23.9283984,60.5022786 23.9283984,60.4335938 23.9283984,60.4335938 C23.7910286,60.4335938 23.7223438,60.3649089 23.7223438,60.2275391 C23.7223438,60.2275391 23.7223438,60.2275391 23.7223438,60.2275391 C23.7223438,60.0901693 23.7223438,60.0214844 23.7223438,60.0214844 C23.7223438,59.8841146 23.7223438,59.8154297 23.7223438,59.8154297 C23.7223438,59.8154297 23.7223438,59.8154297 23.7223438,59.8154297 C23.7223438,59.8154297 23.7223438,59.8154297 23.7223438,59.8154297 C23.7223438,59.6780599 23.7223438,59.5406901 23.7223438,59.4033203 C23.7223438,59.1285807 23.7910286,58.7851562 23.9283984,58.3730469 C24.0657682,57.9609375 24.203138,57.5488281 24.3405078,57.1367188 C24.6152474,56.7246094 24.889987,56.2438151 25.1647266,55.6943359 C25.3020964,55.4195964 25.508151,55.1448568 25.7828906,54.8701172 C26.0576302,54.5953776 26.3323698,54.320638 26.6071094,54.0458984 C26.881849,53.7711589 27.1565885,53.4964193 27.4313281,53.2216797 C27.7060677,52.9469401 28.0494922,52.6722005 28.4616016,52.3974609 C29.2858203,51.9853516 29.9039844,51.5732422 30.3160938,51.1611328 C30.8655729,50.7490234 31.2089974,50.3369141 31.3463672,49.9248047 C31.6211068,49.6500651 31.7584766,49.3066406 31.7584766,48.8945312 C31.8958464,48.6197917 31.9645313,48.3450521 31.9645313,48.0703125 C31.9645313,47.9329427 31.9645313,47.8642578 31.9645313,47.8642578 C31.9645313,47.726888 31.9645313,47.5895182 31.9645313,47.4521484 C31.9645313,47.4521484 31.9645313,47.3834635 31.9645313,47.2460938 C31.8271615,47.108724 31.7584766,46.9713542 31.7584766,46.8339844 C31.6211068,46.6966146 31.483737,46.5592448 31.3463672,46.421875 C31.2089974,46.2845052 31.0716276,46.0784505 30.9342578,45.8037109 C30.6595182,45.6663411 30.3847786,45.5976562 30.1100391,45.5976562 C29.6979297,45.4602865 29.2858203,45.3916016 28.8737109,45.3916016 C28.4616016,45.3916016 28.1181771,45.4602865 27.8434375,45.5976562 C27.5686979,45.5976562 27.3626432,45.6663411 27.2252734,45.8037109 C26.9505339,45.9410807 26.6757943,46.1471354 26.4010547,46.421875 C26.2636849,46.6966146 26.1263151,46.9713542 25.9889453,47.2460938 C25.9889453,47.3834635 25.9202604,47.4521484 25.7828906,47.4521484 C25.6455208,47.5895182 25.5768359,47.6582031 25.5768359,47.6582031 C25.4394661,47.6582031 25.3020964,47.6582031 25.1647266,47.6582031 C25.0273568,47.6582031 24.889987,47.6582031 24.7526172,47.6582031 C24.6152474,47.5208333 24.5465625,47.4521484 24.5465625,47.4521484 C24.4091927,47.3147786 24.3405078,47.1774089 24.3405078,47.0400391 C24.3405078,47.0400391 24.3405078,46.9713542 24.3405078,46.8339844 C24.3405078,46.6966146 24.3405078,46.5592448 24.3405078,46.421875 C24.6152474,46.0097656 24.889987,45.5976562 25.1647266,45.1855469 C25.4394661,44.9108073 25.7828906,44.6360677 26.195,44.3613281 C26.6071094,44.0865885 27.0192188,43.9492188 27.4313281,43.9492188 C27.8434375,43.811849 28.3242318,43.7431641 28.8737109,43.7431641 C29.8352995,43.7431641 30.5908333,43.811849 31.1403125,43.9492188 C31.8271615,44.2239583 32.3766406,44.6360677 32.78875,45.1855469 C33.0634896,45.5976562 33.3382292,46.0784505 33.6129688,46.6279297 C33.7503385,47.0400391 33.8190234,47.5208333 33.8190234,48.0703125 C33.8190234,48.6197917 33.7503385,49.1692708 33.6129688,49.71875 C33.3382292,50.2682292 33.0634896,50.7490234 32.78875,51.1611328 C32.3766406,51.710612 31.8958464,52.1914062 31.3463672,52.6035156 C30.796888,53.015625 30.178724,53.4964193 29.491875,54.0458984 C28.805026,54.4580078 28.2555469,54.8701172 27.8434375,55.2822266 C27.4313281,55.6943359 27.0879036,56.1064453 26.8131641,56.5185547 C26.5384245,57.0680339 26.2636849,57.5488281 25.9889453,57.9609375 C25.8515755,58.3730469 25.7142057,58.7164714 25.5768359,58.9912109 C26.4010547,58.9912109 27.500013,58.9912109 28.8737109,58.9912109 C30.1100391,58.9912109 31.5524219,58.9912109 33.2008594,58.9912109 C33.3382292,58.9912109 33.4069141,58.9912109 33.4069141,58.9912109 C33.5442839,59.1285807 33.6816536,59.1972656 33.8190234,59.1972656 C33.8190234,59.3346354 33.8877083,59.4720052 34.0250781,59.609375 C34.0250781,59.609375 34.0250781,59.6780599 34.0250781,59.8154297 C34.0250781,59.9527995 34.0250781,60.0901693 34.0250781,60.2275391 C33.8877083,60.3649089 33.8190234,60.4335938 33.8190234,60.4335938 Z"/></svg>