<svg xmlns="http://www.w3.org/2000/svg" width="120" height="203" viewBox="0 0 120 203"><path fill="#131313" d="M4048.25066,61.265625 C4050.31121,61.265625 4052.09702,61.952474 4053.60809,63.3261719 C4054.98178,64.8372396 4055.66863,66.6230469 4055.66863,68.6835938 C4055.66863,70.7441406 4054.98178,72.461263 4053.60809,73.8349609 C4052.09702,75.3460286 4050.31121,76.1015625 4048.25066,76.1015625 C4041.93165,76.1015625 4032.45314,76.1015625 4019.81512,76.1015625 C4019.81512,102.751302 4019.81512,142.725911 4019.81512,196.025391 C4019.81512,198.085937 4019.05958,199.871745 4017.54852,201.382813 C4016.17482,202.75651 4014.4577,203.443359 4012.39715,203.443359 C4010.3366,203.443359 4008.55079,202.75651 4007.03973,201.382813 C4005.66603,199.871745 4004.97918,198.085937 4004.97918,196.025391 C4004.97918,169.375651 4004.97918,129.401042 4004.97918,76.1015625 C3998.66017,76.1015625 3989.18165,76.1015625 3976.54363,76.1015625 C3974.48309,76.1015625 3972.69728,75.3460286 3971.18621,73.8349609 C3969.81251,72.461263 3969.12566,70.7441406 3969.12566,68.6835938 C3969.12566,66.6230469 3969.81251,64.8372396 3971.18621,63.3261719 C3972.69728,61.952474 3974.48309,61.265625 3976.54363,61.265625 C3988.4948,61.265625 4000.44598,61.265625 4012.39715,61.265625 C4024.34832,61.265625 4036.29949,61.265625 4048.25066,61.265625 Z M3985.28875,50.2470703 C3996.69044,50.2470703 4013.86167,50.2470703 4036.80242,50.2470703 C4036.80242,50.6591797 4036.80242,51.3460286 4036.80242,52.3076172 C4025.40073,52.3076172 4008.22951,52.3076172 3985.28875,52.3076172 C3985.28875,52.1702474 3985.28875,52.0328776 3985.28875,51.8955078 C3985.42612,51.6207682 3985.4948,51.4147135 3985.4948,51.2773438 C3985.4948,51.139974 3985.42612,50.9339193 3985.28875,50.6591797 C3985.28875,50.5218099 3985.28875,50.3844401 3985.28875,50.2470703 Z M3980.9616,55.1923828 C3981.78582,55.1923828 3982.61004,54.9176432 3983.43426,54.3681641 C3984.12111,53.8186849 3984.53322,53.1318359 3984.67059,52.3076172 C3984.80796,52.3076172 3985.01401,52.3076172 3985.28875,52.3076172 C3985.01401,53.2692057 3984.46453,54.0934245 3983.64031,54.7802734 C3982.95346,55.4671224 3982.06056,55.8105469 3980.9616,55.8105469 C3979.72527,55.8105469 3978.62632,55.3297526 3977.66473,54.3681641 C3976.84051,53.5439453 3976.4284,52.5136719 3976.4284,51.2773438 C3976.4284,50.0410156 3976.84051,49.0107422 3977.66473,48.1865234 C3978.62632,47.2249349 3979.72527,46.7441406 3980.9616,46.7441406 C3982.06056,46.7441406 3982.95346,47.0875651 3983.64031,47.7744141 C3984.46453,48.461263 3985.01401,49.2854818 3985.28875,50.2470703 C3985.15138,50.2470703 3984.94533,50.2470703 3984.67059,50.2470703 C3984.53322,49.4228516 3984.12111,48.7360026 3983.43426,48.1865234 C3982.61004,47.6370443 3981.78582,47.3623047 3980.9616,47.3623047 C3979.86264,47.3623047 3978.90105,47.7057292 3978.07684,48.3925781 C3977.38999,49.2167969 3977.04656,50.1783854 3977.04656,51.2773438 C3977.04656,52.3763021 3977.38999,53.3378906 3978.07684,54.1621094 C3978.90105,54.8489583 3979.86264,55.1923828 3980.9616,55.1923828 Z M3985.28875,50.2470703 C3985.28875,50.3844401 3985.28875,50.5218099 3985.28875,50.6591797 C3985.42612,50.9339193 3985.4948,51.139974 3985.4948,51.2773438 C3985.4948,51.4147135 3985.42612,51.6207682 3985.28875,51.8955078 C3985.28875,52.0328776 3985.28875,52.1702474 3985.28875,52.3076172 C3985.15138,52.3076172 3984.94533,52.3076172 3984.67059,52.3076172 C3984.80796,52.1702474 3984.87664,52.0328776 3984.87664,51.8955078 C3984.87664,51.6207682 3984.87664,51.4147135 3984.87664,51.2773438 C3984.87664,51.139974 3984.87664,50.9339193 3984.87664,50.6591797 C3984.87664,50.5218099 3984.80796,50.3844401 3984.67059,50.2470703 C3984.80796,50.2470703 3984.94533,50.2470703 3985.0827,50.2470703 C3985.0827,50.2470703 3985.15138,50.2470703 3985.28875,50.2470703 Z M3980.9616,47.3623047 C3981.78582,47.3623047 3982.61004,47.6370443 3983.43426,48.1865234 C3984.12111,48.7360026 3984.53322,49.4228516 3984.67059,50.2470703 C3984.53322,50.2470703 3984.39585,50.2470703 3984.25848,50.2470703 C3983.98374,49.5602214 3983.57163,49.0107422 3983.02215,48.5986328 C3982.3353,48.0491536 3981.64845,47.7744141 3980.9616,47.7744141 C3981.09897,47.7744141 3981.23634,47.7744141 3981.37371,47.7744141 C3981.37371,47.7744141 3981.4424,47.7744141 3981.57977,47.7744141 C3981.4424,47.7744141 3981.37371,47.7744141 3981.37371,47.7744141 C3981.23634,47.7744141 3981.09897,47.7744141 3980.9616,47.7744141 C3980.82423,47.7744141 3980.68686,47.7744141 3980.54949,47.7744141 C3980.41212,47.7744141 3980.34344,47.7744141 3980.34344,47.7744141 C3980.34344,47.7744141 3980.41212,47.7744141 3980.54949,47.7744141 C3980.68686,47.7744141 3980.82423,47.7744141 3980.9616,47.7744141 C3980.00001,47.7744141 3979.17579,48.1178385 3978.48895,48.8046875 C3977.8021,49.4915365 3977.45867,50.3157552 3977.45867,51.2773438 C3977.45867,52.2389323 3977.8021,53.063151 3978.48895,53.75 C3979.17579,54.436849 3980.00001,54.7802734 3980.9616,54.7802734 C3981.64845,54.7802734 3982.3353,54.5055339 3983.02215,53.9560547 C3983.57163,53.5439453 3983.98374,52.9944661 3984.25848,52.3076172 C3984.39585,52.3076172 3984.53322,52.3076172 3984.67059,52.3076172 C3984.53322,53.1318359 3984.12111,53.8186849 3983.43426,54.3681641 C3982.61004,54.9176432 3981.78582,55.1923828 3980.9616,55.1923828 C3979.86264,55.1923828 3978.90105,54.8489583 3978.07684,54.1621094 C3977.38999,53.3378906 3977.04656,52.3763021 3977.04656,51.2773438 C3977.04656,50.1783854 3977.38999,49.2167969 3978.07684,48.3925781 C3978.90105,47.7057292 3979.86264,47.3623047 3980.9616,47.3623047 Z M3984.46453,51.2773438 C3984.46453,51.139974 3984.39585,50.9339193 3984.25848,50.6591797 C3984.25848,50.5218099 3984.25848,50.3844401 3984.25848,50.2470703 C3984.39585,50.2470703 3984.53322,50.2470703 3984.67059,50.2470703 C3984.80796,50.3844401 3984.87664,50.5218099 3984.87664,50.6591797 C3984.87664,50.9339193 3984.87664,51.139974 3984.87664,51.2773438 C3984.87664,51.4147135 3984.87664,51.6207682 3984.87664,51.8955078 C3984.87664,52.0328776 3984.80796,52.1702474 3984.67059,52.3076172 C3984.53322,52.3076172 3984.39585,52.3076172 3984.25848,52.3076172 C3984.25848,52.1702474 3984.25848,52.0328776 3984.25848,51.8955078 C3984.39585,51.6207682 3984.46453,51.4147135 3984.46453,51.2773438 Z M4036.80242,54.3681641 C4036.80242,53.9560547 4036.80242,53.2692057 4036.80242,52.3076172 C4037.21453,52.3076172 4037.90138,52.3076172 4038.86297,52.3076172 C4038.86297,51.8955078 4038.86297,51.2086589 4038.86297,50.2470703 C4038.45086,50.2470703 4037.76401,50.2470703 4036.80242,50.2470703 C4036.80242,49.8349609 4036.80242,49.148112 4036.80242,48.1865234 C4039.27508,48.8733724 4043.05275,49.9036458 4048.13543,51.2773438 C4045.66277,51.9641927 4041.8851,52.9944661 4036.80242,54.3681641 Z M4036.80242,50.2470703 C4037.21453,50.2470703 4037.90138,50.2470703 4038.86297,50.2470703 C4038.86297,50.6591797 4038.86297,51.3460286 4038.86297,52.3076172 C4038.45086,52.3076172 4037.76401,52.3076172 4036.80242,52.3076172 C4036.80242,51.8955078 4036.80242,51.2086589 4036.80242,50.2470703 Z M3994.76727,93.1064453 C3994.90464,93.1064453 3995.11069,93.1064453 3995.38543,93.1064453 C3995.5228,93.1064453 3995.66017,93.1064453 3995.79754,93.1064453 C3996.07228,93.1064453 3996.27833,93.1064453 3996.4157,93.1064453 C3996.55307,93.1064453 3996.69044,93.1064453 3996.82781,93.1064453 C3996.82781,113.162435 3996.82781,143.383789 3996.82781,183.770508 C3996.4157,183.770508 3995.72885,183.770508 3994.76727,183.770508 C3994.76727,168.659831 3994.76727,153.549154 3994.76727,138.438477 C3994.76727,123.327799 3994.76727,108.217122 3994.76727,93.1064453 Z M3996.82781,185.831055 C3996.82781,185.281576 3996.82781,184.594727 3996.82781,183.770508 C3997.37729,183.770508 3998.06414,183.770508 3998.88836,183.770508 C3998.20151,186.243164 3997.17124,190.020833 3995.79754,195.103516 C3995.11069,192.630859 3994.1491,188.85319 3992.91277,183.770508 C3993.32488,183.770508 3993.94305,183.770508 3994.76727,183.770508 C3994.76727,184.182617 3994.76727,184.869466 3994.76727,185.831055 C3995.31674,185.831055 3996.00359,185.831055 3996.82781,185.831055 Z M3994.76727,183.770508 C3995.31674,183.770508 3996.00359,183.770508 3996.82781,183.770508 C3996.82781,184.182617 3996.82781,184.869466 3996.82781,185.831055 C3996.4157,185.831055 3995.72885,185.831055 3994.76727,185.831055 C3994.76727,185.281576 3994.76727,184.594727 3994.76727,183.770508 Z M3995.79754,84.2460938 C3997.03387,84.2460938 3998.13283,84.6582031 3999.09441,85.4824219 C3999.91863,86.3066406 4000.33074,87.3369141 4000.33074,88.5732422 C4000.33074,89.6722005 3999.98732,90.6337891 3999.30047,91.4580078 C3998.75099,92.2822266 3997.92677,92.8317057 3996.82781,93.1064453 C3996.82781,92.9690755 3996.82781,92.7630208 3996.82781,92.4882812 C3997.7894,92.2135417 3998.54493,91.7327474 3999.09441,91.0458984 C3999.64389,90.3590495 3999.91863,89.5348307 3999.91863,88.5732422 C3999.91863,87.4742839 3999.50652,86.5813802 3998.6823,85.8945312 C3997.85809,85.0703125 3996.8965,84.6582031 3995.79754,84.6582031 C3994.69858,84.6582031 3993.80568,85.0703125 3993.11883,85.8945312 C3992.29461,86.5813802 3991.8825,87.4742839 3991.8825,88.5732422 C3991.8825,89.5348307 3992.15724,90.3590495 3992.70672,91.0458984 C3993.2562,91.7327474 3993.94305,92.2135417 3994.76727,92.4882812 C3994.76727,92.625651 3994.76727,92.8317057 3994.76727,93.1064453 C3993.80568,92.8317057 3992.98146,92.2822266 3992.29461,91.4580078 C3991.74513,90.6337891 3991.47039,89.6722005 3991.47039,88.5732422 C3991.47039,87.4742839 3991.8825,86.4440104 3992.70672,85.4824219 C3993.53094,84.6582031 3994.56121,84.2460938 3995.79754,84.2460938 Z M3995.79754,92.6943359 C3996.07228,92.6943359 3996.27833,92.625651 3996.4157,92.4882812 C3996.55307,92.4882812 3996.69044,92.4882812 3996.82781,92.4882812 C3996.82781,92.625651 3996.82781,92.8317057 3996.82781,93.1064453 C3996.69044,93.1064453 3996.55307,93.1064453 3996.4157,93.1064453 C3996.27833,93.1064453 3996.07228,93.1064453 3995.79754,93.1064453 C3995.66017,93.1064453 3995.5228,93.1064453 3995.38543,93.1064453 C3995.11069,93.1064453 3994.90464,93.1064453 3994.76727,93.1064453 C3994.76727,92.9690755 3994.76727,92.7630208 3994.76727,92.4882812 C3994.90464,92.4882812 3995.11069,92.5569661 3995.38543,92.6943359 C3995.5228,92.6943359 3995.66017,92.6943359 3995.79754,92.6943359 Z M3992.50066,88.5732422 C3992.50066,89.3974609 3992.70672,90.0843099 3993.11883,90.6337891 C3993.53094,91.320638 3994.08042,91.7327474 3994.76727,91.8701172 C3994.76727,92.007487 3994.76727,92.2135417 3994.76727,92.4882812 C3993.94305,92.2135417 3993.2562,91.7327474 3992.70672,91.0458984 C3992.15724,90.3590495 3991.8825,89.5348307 3991.8825,88.5732422 C3991.8825,87.4742839 3992.29461,86.5813802 3993.11883,85.8945312 C3993.80568,85.0703125 3994.69858,84.6582031 3995.79754,84.6582031 C3996.8965,84.6582031 3997.85809,85.0703125 3998.6823,85.8945312 C3999.50652,86.5813802 3999.91863,87.4742839 3999.91863,88.5732422 C3999.91863,89.5348307 3999.64389,90.3590495 3999.09441,91.0458984 C3998.54493,91.7327474 3997.7894,92.2135417 3996.82781,92.4882812 C3996.82781,92.3509115 3996.82781,92.1448568 3996.82781,91.8701172 C3997.51466,91.7327474 3998.13283,91.320638 3998.6823,90.6337891 C3999.09441,90.0843099 3999.30047,89.3974609 3999.30047,88.5732422 C3999.30047,87.7490234 3998.95704,86.9934896 3998.2702,86.3066406 C3997.58335,85.6197917 3996.75913,85.2763672 3995.79754,85.2763672 C3994.83595,85.2763672 3994.08042,85.6197917 3993.53094,86.3066406 C3992.84409,86.9934896 3992.50066,87.7490234 3992.50066,88.5732422 C3992.50066,88.4358724 3992.50066,88.3671875 3992.50066,88.3671875 C3992.50066,88.2298177 3992.50066,88.1611328 3992.50066,88.1611328 C3992.50066,88.1611328 3992.50066,88.2298177 3992.50066,88.3671875 C3992.50066,88.3671875 3992.50066,88.4358724 3992.50066,88.5732422 C3992.50066,88.8479818 3992.50066,88.9853516 3992.50066,88.9853516 C3992.50066,89.1227214 3992.50066,89.1914062 3992.50066,89.1914062 C3992.50066,89.1914062 3992.50066,89.1227214 3992.50066,88.9853516 C3992.50066,88.9853516 3992.50066,88.8479818 3992.50066,88.5732422 Z M3996.82781,92.4882812 C3996.69044,92.4882812 3996.55307,92.4882812 3996.4157,92.4882812 C3996.27833,92.625651 3996.07228,92.6943359 3995.79754,92.6943359 C3995.66017,92.6943359 3995.5228,92.625651 3995.38543,92.4882812 C3995.11069,92.4882812 3994.90464,92.4882812 3994.76727,92.4882812 C3994.76727,92.3509115 3994.76727,92.1448568 3994.76727,91.8701172 C3994.90464,92.007487 3995.11069,92.0761719 3995.38543,92.0761719 C3995.5228,92.0761719 3995.66017,92.0761719 3995.79754,92.0761719 C3996.07228,92.0761719 3996.27833,92.0761719 3996.4157,92.0761719 C3996.55307,92.0761719 3996.69044,92.007487 3996.82781,91.8701172 C3996.82781,92.007487 3996.82781,92.1448568 3996.82781,92.2822266 C3996.82781,92.2822266 3996.82781,92.3509115 3996.82781,92.4882812 Z M3969.62859,37.265625 C3969.62859,37.265625 3969.69728,37.3343099 3969.83465,37.4716797 C3969.83465,37.4716797 3969.90333,37.5403646 3970.0407,37.6777344 C3970.0407,37.6777344 3970.0407,37.7464193 3970.0407,37.8837891 C3970.0407,37.8837891 3970.0407,37.952474 3970.0407,38.0898438 C3970.0407,39.875651 3970.0407,42.0048828 3970.0407,44.4775391 C3970.0407,47.0875651 3970.0407,50.0410156 3970.0407,53.3378906 C3970.0407,53.4752604 3970.0407,53.6126302 3970.0407,53.75 C3970.0407,53.8873698 3969.97202,53.9560547 3969.83465,53.9560547 C3969.69728,54.0934245 3969.62859,54.1621094 3969.62859,54.1621094 C3969.49122,54.2994792 3969.35385,54.3681641 3969.21648,54.3681641 C3969.07911,54.3681641 3968.94174,54.2994792 3968.80438,54.1621094 C3968.80438,54.1621094 3968.73569,54.0934245 3968.59832,53.9560547 C3968.46095,53.9560547 3968.39227,53.8873698 3968.39227,53.75 C3968.39227,53.6126302 3968.39227,53.4752604 3968.39227,53.3378906 C3968.39227,51.9641927 3968.39227,50.1783854 3968.39227,47.9804688 C3968.39227,45.7825521 3968.39227,43.2412109 3968.39227,40.3564453 C3968.2549,40.3564453 3968.11753,40.4251302 3967.98016,40.5625 C3967.98016,40.6998698 3967.91147,40.8372396 3967.7741,40.9746094 C3967.63673,40.9746094 3967.49936,41.0432943 3967.36199,41.1806641 C3967.22462,41.1806641 3967.15594,41.1806641 3967.15594,41.1806641 C3967.01857,41.1806641 3966.8812,41.1806641 3966.74383,41.1806641 C3966.60646,41.0432943 3966.53777,40.9746094 3966.53777,40.9746094 C3966.4004,40.8372396 3966.33172,40.6998698 3966.33172,40.5625 C3966.19435,40.5625 3966.12566,40.4938151 3966.12566,40.3564453 C3966.12566,40.2190755 3966.19435,40.0817057 3966.33172,39.9443359 C3966.33172,39.8069661 3966.4004,39.7382812 3966.53777,39.7382812 C3966.67514,39.4635417 3966.94988,39.1201172 3967.36199,38.7080078 C3967.7741,38.4332682 3968.18621,38.0211589 3968.59832,37.4716797 C3968.59832,37.4716797 3968.66701,37.4029948 3968.80438,37.265625 C3968.94174,37.265625 3969.01043,37.265625 3969.01043,37.265625 C3969.01043,37.265625 3969.07911,37.265625 3969.21648,37.265625 C3969.21648,37.265625 3969.21648,37.265625 3969.21648,37.265625 C3969.21648,37.265625 3969.28517,37.265625 3969.42254,37.265625 C3969.42254,37.265625 3969.49122,37.265625 3969.62859,37.265625 Z M3986.31902,97.4335938 C3986.18165,97.5709635 3986.04428,97.6396484 3985.90691,97.6396484 C3985.90691,97.6396484 3985.83823,97.6396484 3985.70086,97.6396484 C3984.87664,97.6396484 3984.12111,97.6396484 3983.43426,97.6396484 C3982.74741,97.6396484 3982.06056,97.6396484 3981.37371,97.6396484 C3980.68686,97.6396484 3979.93133,97.6396484 3979.10711,97.6396484 C3978.42026,97.6396484 3977.73341,97.6396484 3977.04656,97.6396484 C3976.90919,97.6396484 3976.84051,97.6396484 3976.84051,97.6396484 C3976.84051,97.6396484 3976.77182,97.6396484 3976.63445,97.6396484 C3976.63445,97.6396484 3976.56577,97.6396484 3976.4284,97.6396484 C3976.4284,97.5022786 3976.4284,97.4335938 3976.4284,97.4335938 C3976.29103,97.4335938 3976.22234,97.3649089 3976.22234,97.2275391 C3976.22234,97.2275391 3976.22234,97.2275391 3976.22234,97.2275391 C3976.22234,97.0901693 3976.22234,97.0214844 3976.22234,97.0214844 C3976.22234,96.8841146 3976.22234,96.8154297 3976.22234,96.8154297 C3976.22234,96.8154297 3976.22234,96.8154297 3976.22234,96.8154297 C3976.22234,96.8154297 3976.22234,96.8154297 3976.22234,96.8154297 C3976.22234,96.6780599 3976.22234,96.5406901 3976.22234,96.4033203 C3976.22234,96.1285807 3976.29103,95.7851562 3976.4284,95.3730469 C3976.56577,94.9609375 3976.70314,94.5488281 3976.84051,94.1367188 C3977.11525,93.7246094 3977.38999,93.2438151 3977.66473,92.6943359 C3977.8021,92.4195964 3978.00815,92.1448568 3978.28289,91.8701172 C3978.55763,91.5953776 3978.83237,91.320638 3979.10711,91.0458984 C3979.38185,90.7711589 3979.65659,90.4964193 3979.93133,90.2216797 C3980.20607,89.9469401 3980.54949,89.6722005 3980.9616,89.3974609 C3981.78582,88.9853516 3982.40398,88.5732422 3982.81609,88.1611328 C3983.36557,87.7490234 3983.709,87.3369141 3983.84637,86.9248047 C3984.12111,86.6500651 3984.25848,86.3066406 3984.25848,85.8945312 C3984.39585,85.6197917 3984.46453,85.3450521 3984.46453,85.0703125 C3984.46453,84.9329427 3984.46453,84.8642578 3984.46453,84.8642578 C3984.46453,84.726888 3984.46453,84.5895182 3984.46453,84.4521484 C3984.46453,84.4521484 3984.46453,84.3834635 3984.46453,84.2460938 C3984.32716,84.108724 3984.25848,83.9713542 3984.25848,83.8339844 C3984.12111,83.6966146 3983.98374,83.5592448 3983.84637,83.421875 C3983.709,83.2845052 3983.57163,83.0784505 3983.43426,82.8037109 C3983.15952,82.6663411 3982.88478,82.5976562 3982.61004,82.5976562 C3982.19793,82.4602865 3981.78582,82.3916016 3981.37371,82.3916016 C3980.9616,82.3916016 3980.61818,82.4602865 3980.34344,82.5976562 C3980.0687,82.5976562 3979.86264,82.6663411 3979.72527,82.8037109 C3979.45053,82.9410807 3979.17579,83.1471354 3978.90105,83.421875 C3978.76368,83.6966146 3978.62632,83.9713542 3978.48895,84.2460938 C3978.48895,84.3834635 3978.42026,84.4521484 3978.28289,84.4521484 C3978.14552,84.5895182 3978.07684,84.6582031 3978.07684,84.6582031 C3977.93947,84.6582031 3977.8021,84.6582031 3977.66473,84.6582031 C3977.52736,84.6582031 3977.38999,84.6582031 3977.25262,84.6582031 C3977.11525,84.5208333 3977.04656,84.4521484 3977.04656,84.4521484 C3976.90919,84.3147786 3976.84051,84.1774089 3976.84051,84.0400391 C3976.84051,84.0400391 3976.84051,83.9713542 3976.84051,83.8339844 C3976.84051,83.6966146 3976.84051,83.5592448 3976.84051,83.421875 C3977.11525,83.0097656 3977.38999,82.5976562 3977.66473,82.1855469 C3977.93947,81.9108073 3978.28289,81.6360677 3978.695,81.3613281 C3979.10711,81.0865885 3979.51922,80.9492188 3979.93133,80.9492188 C3980.34344,80.811849 3980.82423,80.7431641 3981.37371,80.7431641 C3982.3353,80.7431641 3983.09083,80.811849 3983.64031,80.9492188 C3984.32716,81.2239583 3984.87664,81.6360677 3985.28875,82.1855469 C3985.56349,82.5976562 3985.83823,83.0784505 3986.11297,83.6279297 C3986.25034,84.0400391 3986.31902,84.5208333 3986.31902,85.0703125 C3986.31902,85.6197917 3986.25034,86.1692708 3986.11297,86.71875 C3985.83823,87.2682292 3985.56349,87.7490234 3985.28875,88.1611328 C3984.87664,88.710612 3984.39585,89.1914062 3983.84637,89.6035156 C3983.29689,90.015625 3982.67872,90.4964193 3981.99188,91.0458984 C3981.30503,91.4580078 3980.75555,91.8701172 3980.34344,92.2822266 C3979.93133,92.6943359 3979.5879,93.1064453 3979.31316,93.5185547 C3979.03842,94.0680339 3978.76368,94.5488281 3978.48895,94.9609375 C3978.35158,95.3730469 3978.21421,95.7164714 3978.07684,95.9912109 C3978.90105,95.9912109 3980.00001,95.9912109 3981.37371,95.9912109 C3982.61004,95.9912109 3984.05242,95.9912109 3985.70086,95.9912109 C3985.83823,95.9912109 3985.90691,95.9912109 3985.90691,95.9912109 C3986.04428,96.1285807 3986.18165,96.1972656 3986.31902,96.1972656 C3986.31902,96.3346354 3986.38771,96.4720052 3986.52508,96.609375 C3986.52508,96.609375 3986.52508,96.6780599 3986.52508,96.8154297 C3986.52508,96.9527995 3986.52508,97.0901693 3986.52508,97.2275391 C3986.38771,97.3649089 3986.31902,97.4335938 3986.31902,97.4335938 Z" transform="translate(-3952.5)"/></svg>