<svg xmlns="http://www.w3.org/2000/svg" width="91" height="203" viewBox="0 0 91 203"><path fill="#131313" d="M4646.03516,134.5625 C4647.68229,136.059896 4648.50586,138.00651 4648.50586,140.402344 C4648.50586,142.648437 4647.68229,144.520182 4646.03516,146.017578 C4643.78906,148.263672 4641.24349,149.985677 4638.39844,151.183594 C4635.40365,152.38151 4632.33398,152.980469 4629.18945,152.980469 C4629.03971,152.980469 4628.96484,152.980469 4628.96484,152.980469 C4622.3763,152.980469 4616.6862,150.659505 4611.89453,146.017578 C4607.2526,141.375651 4604.93164,135.760417 4604.93164,129.171875 C4604.93164,118.989583 4604.93164,103.791016 4604.93164,83.5761719 C4601.18815,83.5761719 4595.57292,83.5761719 4588.08594,83.5761719 C4585.83984,83.5761719 4583.9681,82.827474 4582.4707,81.3300781 C4580.82357,79.6829427 4580,77.7363281 4580,75.4902344 C4580,73.2441406 4580.82357,71.297526 4582.4707,69.6503906 C4583.9681,68.1529948 4585.83984,67.4042969 4588.08594,67.4042969 C4591.82943,67.4042969 4597.44466,67.4042969 4604.93164,67.4042969 C4604.93164,53.7779948 4604.93164,47.3385417 4604.93164,20.0859375 C4604.93164,17.8398438 4605.75521,15.8932292 4607.40234,14.2460938 C4608.89974,12.7486979 4610.77148,12 4613.01758,12 C4615.26367,12 4617.21029,12.7486979 4618.85742,14.2460938 C4620.50456,15.8932292 4621.32813,17.8398438 4621.32813,20.0859375 C4621.32813,33.7122396 4621.32812,40.1516927 4621.32812,67.4042969 C4625.52083,67.4042969 4631.88477,67.4042969 4640.41992,67.4042969 C4642.66602,67.4042969 4644.53776,68.1529948 4646.03516,69.6503906 C4647.68229,71.297526 4648.50586,73.2441406 4648.50586,75.4902344 C4648.50586,77.7363281 4647.68229,79.6829427 4646.03516,81.3300781 C4644.53776,82.827474 4642.66602,83.5761719 4640.41992,83.5761719 C4636.07747,83.5761719 4629.71354,83.5761719 4621.32812,83.5761719 C4621.32812,93.7584635 4621.32812,108.957031 4621.32812,129.171875 C4621.32812,131.268229 4622.07682,133.065104 4623.57422,134.5625 C4624.92187,136.059896 4626.71875,136.808594 4628.96484,136.808594 C4628.96484,136.808594 4629.03971,136.808594 4629.18945,136.808594 C4630.23763,136.808594 4631.21094,136.583984 4632.10937,136.134766 C4633.00781,135.835286 4633.83138,135.311198 4634.58008,134.5625 C4636.07747,132.915365 4637.94922,132.091797 4640.19531,132.091797 C4642.59115,132.091797 4644.53776,132.915365 4646.03516,134.5625 Z M4594.46094,23.7441406 C4594.76042,23.7441406 4594.98503,23.8190104 4595.13477,23.96875 C4595.28451,23.96875 4595.43424,23.96875 4595.58398,23.96875 C4595.88346,23.96875 4596.10807,23.96875 4596.25781,23.96875 C4596.40755,23.8190104 4596.63216,23.7441406 4596.93164,23.7441406 C4596.93164,30.3326823 4596.93164,36.140625 4596.93164,49.1679687 C4596.33268,49.1679687 4595.50911,49.1679687 4594.46094,49.1679687 C4594.46094,44.2265625 4594.46094,43.2851563 4594.46094,38.34375 C4594.46094,33.5520833 4594.46094,28.6855469 4594.46094,23.7441406 Z M4598.95312,49.1679688 C4598.20443,51.8632813 4597.08138,55.9811198 4595.58398,61.5214844 C4594.98503,58.8261719 4593.93685,54.7083333 4592.43945,49.1679688 C4592.88867,49.1679688 4598.05469,49.1679688 4598.95312,49.1679688 Z M4594.46094,23.7441406 C4593.41276,23.4446615 4592.51432,22.8457031 4591.76562,21.9472656 C4591.16667,21.1985677 4590.86719,20.2252604 4590.86719,19.0273438 C4590.86719,17.6796875 4591.31641,16.4817708 4592.21484,15.4335938 C4593.11328,14.5351563 4594.23633,14.0859375 4595.58398,14.0859375 C4596.93164,14.0859375 4598.12956,14.610026 4599.17773,15.6582031 C4600.07617,16.5566406 4600.52539,17.6796875 4600.52539,19.0273438 C4600.52539,20.2252604 4600.22591,21.1985677 4599.62695,21.9472656 C4598.87826,22.8457031 4597.97982,23.4446615 4596.93164,23.7441406 C4596.93164,23.594401 4596.93164,23.3697917 4596.93164,23.0703125 C4597.83008,22.9205729 4598.57878,22.4713542 4599.17773,21.7226562 C4599.77669,20.9739583 4600.07617,20.0755208 4600.07617,19.0273438 C4600.07617,17.8294271 4599.62695,16.78125 4598.72852,15.8828125 C4597.83008,15.1341146 4596.7819,14.7597656 4595.58398,14.7597656 C4594.38607,14.7597656 4593.41276,15.1341146 4592.66406,15.8828125 C4591.76562,16.78125 4591.31641,17.8294271 4591.31641,19.0273438 C4591.31641,20.0755208 4591.61589,20.9739583 4592.21484,21.7226562 C4592.8138,22.4713542 4593.5625,22.9205729 4594.46094,23.0703125 C4594.46094,23.2200521 4594.46094,23.3697917 4594.46094,23.5195313 C4594.46094,23.5195313 4594.46094,23.594401 4594.46094,23.7441406 Z M4595.58398,23.2949219 C4595.88346,23.2949219 4596.10807,23.2949219 4596.25781,23.2949219 C4596.40755,23.2949219 4596.63216,23.2200521 4596.93164,23.0703125 C4596.93164,23.2200521 4596.93164,23.4446615 4596.93164,23.7441406 C4596.63216,23.7441406 4596.40755,23.8190104 4596.25781,23.96875 C4596.10807,23.96875 4595.88346,23.96875 4595.58398,23.96875 C4595.43424,23.96875 4595.28451,23.96875 4595.13477,23.96875 C4594.98503,23.8190104 4594.76042,23.7441406 4594.46094,23.7441406 C4594.46094,23.594401 4594.46094,23.3697917 4594.46094,23.0703125 C4594.76042,23.2200521 4594.98503,23.2949219 4595.13477,23.2949219 C4595.28451,23.2949219 4595.43424,23.2949219 4595.58398,23.2949219 Z M4591.99023,19.0273438 C4591.99023,19.7760417 4592.21484,20.5247396 4592.66406,21.2734375 C4593.11328,21.8723958 4593.71224,22.3216146 4594.46094,22.6210938 C4594.46094,22.7708333 4594.46094,22.9205729 4594.46094,23.0703125 C4593.5625,22.9205729 4592.8138,22.4713542 4592.21484,21.7226563 C4591.61589,20.9739583 4591.31641,20.0755208 4591.31641,19.0273438 C4591.31641,17.8294271 4591.76562,16.78125 4592.66406,15.8828125 C4593.41276,15.1341146 4594.38607,14.7597656 4595.58398,14.7597656 C4596.7819,14.7597656 4597.83008,15.1341146 4598.72852,15.8828125 C4599.62695,16.78125 4600.07617,17.8294271 4600.07617,19.0273438 C4600.07617,20.0755208 4599.77669,20.9739583 4599.17773,21.7226563 C4598.57878,22.4713542 4597.83008,22.9205729 4596.93164,23.0703125 C4596.93164,22.9205729 4596.93164,22.7708333 4596.93164,22.6210938 C4597.68034,22.3216146 4598.2793,21.8723958 4598.72852,21.2734375 C4599.17773,20.5247396 4599.40234,19.7760417 4599.40234,19.0273438 C4599.40234,17.9791667 4599.02799,17.0807292 4598.2793,16.3320312 C4597.5306,15.5833333 4596.63216,15.2089844 4595.58398,15.2089844 C4594.68555,15.2089844 4593.86198,15.5833333 4593.11328,16.3320312 C4592.36458,17.0807292 4591.99023,17.9791667 4591.99023,19.0273438 C4591.99023,18.8776042 4591.99023,18.7278646 4591.99023,18.578125 C4591.99023,18.4283854 4591.99023,18.3535156 4591.99023,18.3535156 C4591.99023,18.3535156 4591.99023,18.4283854 4591.99023,18.578125 C4591.99023,18.7278646 4591.99023,18.8776042 4591.99023,19.0273438 C4591.99023,19.1770833 4591.99023,19.3268229 4591.99023,19.4765625 C4591.99023,19.4765625 4591.99023,19.5514323 4591.99023,19.7011719 C4591.99023,19.5514323 4591.99023,19.4765625 4591.99023,19.4765625 C4591.99023,19.3268229 4591.99023,19.1770833 4591.99023,19.0273438 Z M4596.93164,23.0703125 C4596.63216,23.2200521 4596.40755,23.2949219 4596.25781,23.2949219 C4596.10807,23.2949219 4595.88346,23.2949219 4595.58398,23.2949219 C4595.43424,23.2949219 4595.28451,23.2949219 4595.13477,23.2949219 C4594.98503,23.2949219 4594.76042,23.2200521 4594.46094,23.0703125 C4594.46094,22.9205729 4594.46094,22.7708333 4594.46094,22.6210938 C4594.76042,22.6210938 4594.98503,22.6210938 4595.13477,22.6210938 C4595.28451,22.7708333 4595.43424,22.8457031 4595.58398,22.8457031 C4595.88346,22.8457031 4596.10807,22.7708333 4596.25781,22.6210938 C4596.40755,22.6210938 4596.63216,22.6210938 4596.93164,22.6210938 C4596.93164,22.6210938 4596.93164,22.6959635 4596.93164,22.8457031 C4596.93164,22.9954427 4596.93164,23.0703125 4596.93164,23.0703125 Z M4598.05469,93.4589844 C4598.05469,93.608724 4598.05469,93.8333333 4598.05469,94.1328125 C4598.05469,94.2825521 4598.05469,94.4322917 4598.05469,94.5820312 C4599.40234,94.5820312 4602.08495,94.5820312 4604.93,94.5820312 C4604.93,94.1328125 4604.93,93.3841146 4604.93,92.3359375 C4603.4326,92.3359375 4600.75,92.3359375 4598.05469,92.3359375 C4598.05469,92.4856771 4598.05469,92.6354167 4598.05469,92.7851562 C4598.05469,93.0846354 4598.05469,93.3092448 4598.05469,93.4589844 Z M4626.13086,92.3359375 C4626.13086,94.0164807 4626.13086,93.5996125 4626.13086,94.5820312 C4626.13086,95.03125 4626.13086,95.7799479 4626.13086,96.828125 C4628.97591,96.0794271 4633.16862,94.9563802 4638.70898,93.4589844 C4635.86393,92.7102865 4631.67122,91.5872396 4626.13086,90.0898438 C4626.13086,90.5390625 4626.13086,91.2877604 4626.13086,92.3359375 Z M4589.29492,93.4589844 C4589.29492,92.2610677 4589.74414,91.2128906 4590.64258,90.3144531 C4591.39128,89.5657552 4592.36458,89.1914062 4593.5625,89.1914062 C4594.61068,89.1914062 4595.50911,89.4908854 4596.25781,90.0898438 C4597.00651,90.6888021 4597.5306,91.4375 4597.83008,92.3359375 C4597.83008,92.3359375 4597.97982,92.3359375 4598.2793,92.3359375 C4597.97982,91.2877604 4597.45573,90.3893229 4596.70703,89.640625 C4595.80859,88.8919271 4594.76042,88.5175781 4593.5625,88.5175781 C4592.21484,88.5175781 4591.0918,89.0416667 4590.19336,90.0898438 C4589.14518,90.9882812 4588.62109,92.1113281 4588.62109,93.4589844 C4588.62109,94.8066406 4589.14518,95.9296875 4590.19336,96.828125 C4591.0918,97.8763021 4592.21484,98.4003906 4593.5625,98.4003906 C4594.76042,98.4003906 4595.80859,98.0260417 4596.70703,97.2773438 C4597.60547,96.5286458 4598.12956,95.6302083 4598.2793,94.5820312 C4598.12956,94.5820312 4597.97982,94.5820312 4597.83008,94.5820312 C4597.5306,95.4804688 4597.00651,96.2291667 4596.25781,96.828125 C4595.50911,97.4270833 4594.61068,97.7265625 4593.5625,97.7265625 C4592.36458,97.7265625 4591.39128,97.3522135 4590.64258,96.6035156 C4589.74414,95.7050781 4589.29492,94.656901 4589.29492,93.4589844 Z M4597.83008,92.3359375 C4597.83008,92.4856771 4597.83008,92.6354167 4597.83008,92.7851562 C4597.83008,93.0846354 4597.83008,93.3092448 4597.83008,93.4589844 C4597.83008,93.608724 4597.83008,93.8333333 4597.83008,94.1328125 C4597.83008,94.2825521 4597.83008,94.4322917 4597.83008,94.5820312 C4597.83008,94.5820312 4597.97982,94.5820312 4598.2793,94.5820312 C4598.42904,94.4322917 4598.50391,94.2825521 4598.50391,94.1328125 C4598.50391,93.8333333 4598.50391,93.608724 4598.50391,93.4589844 C4598.50391,93.3092448 4598.50391,93.0846354 4598.50391,92.7851562 C4598.50391,92.6354167 4598.42904,92.4856771 4598.2793,92.3359375 C4598.2793,92.3359375 4598.20443,92.3359375 4598.05469,92.3359375 C4597.90495,92.3359375 4597.83008,92.3359375 4597.83008,92.3359375 Z M4589.29492,93.4589844 C4589.29492,94.656901 4589.74414,95.7050781 4590.64258,96.6035156 C4591.39128,97.3522135 4592.36458,97.7265625 4593.5625,97.7265625 C4594.61068,97.7265625 4595.50911,97.4270833 4596.25781,96.828125 C4597.00651,96.2291667 4597.5306,95.4804688 4597.83008,94.5820312 C4597.68034,94.5820312 4597.45573,94.5820312 4597.15625,94.5820312 C4596.85677,95.3307292 4596.40755,95.9296875 4595.80859,96.3789062 C4595.20964,96.9778646 4594.46094,97.2773438 4593.5625,97.2773438 C4593.71224,97.2773438 4593.86198,97.2773438 4594.01172,97.2773438 C4594.16146,97.2773438 4594.23633,97.2773438 4594.23633,97.2773438 C4594.23633,97.2773438 4594.16146,97.2773438 4594.01172,97.2773438 C4593.86198,97.2773438 4593.71224,97.2773438 4593.5625,97.2773438 C4593.41276,97.2773438 4593.26302,97.2773438 4593.11328,97.2773438 C4592.96354,97.2773438 4592.88867,97.2773438 4592.88867,97.2773438 C4592.88867,97.2773438 4592.96354,97.2773438 4593.11328,97.2773438 C4593.26302,97.2773438 4593.41276,97.2773438 4593.5625,97.2773438 C4592.51432,97.2773438 4591.61589,96.9029948 4590.86719,96.1542969 C4590.11849,95.405599 4589.74414,94.5071615 4589.74414,93.4589844 C4589.74414,92.4108073 4590.11849,91.5123698 4590.86719,90.7636719 C4591.61589,90.014974 4592.51432,89.640625 4593.5625,89.640625 C4594.46094,89.640625 4595.20964,89.9401042 4595.80859,90.5390625 C4596.40755,90.9882812 4596.85677,91.5872396 4597.15625,92.3359375 C4597.30599,92.3359375 4597.5306,92.3359375 4597.83008,92.3359375 C4597.5306,91.4375 4597.00651,90.6888021 4596.25781,90.0898438 C4595.50911,89.4908854 4594.61068,89.1914062 4593.5625,89.1914062 C4592.36458,89.1914062 4591.39128,89.5657552 4590.64258,90.3144531 C4589.74414,91.2128906 4589.29492,92.2610677 4589.29492,93.4589844 Z M4597.15625,94.5820312 C4597.30599,94.5820312 4597.45573,94.5820312 4597.60547,94.5820312 C4597.75521,94.4322917 4597.83008,94.2825521 4597.83008,94.1328125 C4597.83008,93.8333333 4597.83008,93.608724 4597.83008,93.4589844 C4597.83008,93.3092448 4597.83008,93.0846354 4597.83008,92.7851562 C4597.83008,92.6354167 4597.75521,92.4856771 4597.60547,92.3359375 C4597.60547,92.3359375 4597.45573,92.3359375 4597.15625,92.3359375 C4597.15625,92.4856771 4597.23112,92.6354167 4597.38086,92.7851562 C4597.38086,93.0846354 4597.38086,93.3092448 4597.38086,93.4589844 C4597.38086,93.608724 4597.30599,93.8333333 4597.15625,94.1328125 C4597.15625,94.2825521 4597.15625,94.4322917 4597.15625,94.5820312 Z M4583.45508,11.6152344 C4583.60482,11.764974 4583.67969,11.8398437 4583.67969,11.8398437 C4583.82943,11.9895833 4583.9043,12.0644531 4583.9043,12.0644531 C4583.9043,12.2141927 4583.97917,12.2890625 4584.12891,12.2890625 C4584.12891,12.4388021 4584.12891,12.5885417 4584.12891,12.7382812 C4584.12891,14.5351562 4584.12891,16.8561198 4584.12891,19.7011719 C4584.12891,22.3964844 4584.12891,25.6158854 4584.12891,29.359375 C4584.12891,29.5091146 4584.05404,29.5839844 4583.9043,29.5839844 C4583.9043,29.733724 4583.82943,29.8834635 4583.67969,30.0332031 C4583.67969,30.0332031 4583.60482,30.1080729 4583.45508,30.2578125 C4583.30534,30.2578125 4583.1556,30.2578125 4583.00586,30.2578125 C4583.00586,30.2578125 4582.93099,30.2578125 4582.78125,30.2578125 C4582.63151,30.1080729 4582.48177,30.0332031 4582.33203,30.0332031 C4582.33203,29.8834635 4582.25716,29.8085938 4582.10742,29.8085938 C4582.10742,29.6588542 4582.10742,29.5091146 4582.10742,29.359375 C4582.10742,27.7122396 4582.10742,25.6907552 4582.10742,23.2949219 C4582.10742,20.8990885 4582.10742,18.1289062 4582.10742,14.984375 C4582.10742,15.1341146 4582.03255,15.2089844 4581.88281,15.2089844 C4581.73307,15.358724 4581.58333,15.5084635 4581.43359,15.6582031 C4581.28385,15.8079427 4581.20898,15.8828125 4581.20898,15.8828125 C4581.05924,15.8828125 4580.90951,15.8828125 4580.75977,15.8828125 C4580.61003,15.8828125 4580.46029,15.8828125 4580.31055,15.8828125 C4580.31055,15.8828125 4580.23568,15.8079427 4580.08594,15.6582031 C4579.9362,15.5084635 4579.86133,15.4335937 4579.86133,15.4335937 C4579.86133,15.2838542 4579.86133,15.1341146 4579.86133,14.984375 C4579.86133,14.8346354 4579.86133,14.6848958 4579.86133,14.5351562 C4579.86133,14.5351562 4579.9362,14.4602865 4580.08594,14.3105469 C4580.38542,14.0110677 4580.6849,13.7115885 4580.98437,13.4121094 C4581.43359,12.9628906 4581.88281,12.4388021 4582.33203,11.8398437 C4582.48177,11.8398437 4582.55664,11.8398437 4582.55664,11.8398437 C4582.70638,11.6901042 4582.85612,11.6152344 4583.00586,11.6152344 C4583.1556,11.6152344 4583.23047,11.6152344 4583.23047,11.6152344 C4583.38021,11.6152344 4583.45508,11.6152344 4583.45508,11.6152344 Z M4582.33203,104.015625 C4582.48177,104.015625 4582.63151,104.090495 4582.78125,104.240234 C4582.93099,104.240234 4583.00586,104.315104 4583.00586,104.464844 C4583.1556,104.464844 4583.23047,104.539714 4583.23047,104.689453 C4583.23047,104.839193 4583.23047,104.988932 4583.23047,105.138672 C4583.23047,105.138672 4583.23047,105.213542 4583.23047,105.363281 C4583.23047,105.513021 4583.1556,105.66276 4583.00586,105.8125 C4583.00586,105.8125 4582.93099,105.88737 4582.78125,106.037109 C4582.63151,106.037109 4582.48177,106.037109 4582.33203,106.037109 C4581.58333,106.037109 4580.83464,106.037109 4580.08594,106.037109 C4579.33724,106.037109 4578.51367,106.037109 4577.61523,106.037109 C4576.86654,106.037109 4576.11784,106.037109 4575.36914,106.037109 C4574.62044,106.037109 4573.79687,106.037109 4572.89844,106.037109 C4572.89844,106.037109 4572.82357,106.037109 4572.67383,106.037109 C4572.67383,106.037109 4572.67383,106.037109 4572.67383,106.037109 C4572.52409,105.88737 4572.44922,105.8125 4572.44922,105.8125 C4572.44922,105.8125 4572.37435,105.8125 4572.22461,105.8125 C4572.22461,105.66276 4572.22461,105.587891 4572.22461,105.587891 C4572.07487,105.438151 4572,105.363281 4572,105.363281 C4572,105.363281 4572,105.288411 4572,105.138672 C4572,105.138672 4572,105.138672 4572,105.138672 C4572,104.988932 4572,104.914062 4572,104.914062 C4572,104.914062 4572,104.914062 4572,104.914062 C4572,104.914062 4572.07487,104.764323 4572.22461,104.464844 C4572.22461,104.315104 4572.29948,104.015625 4572.44922,103.566406 C4572.44922,103.117188 4572.59896,102.667969 4572.89844,102.21875 C4573.04818,101.619792 4573.34766,101.020833 4573.79687,100.421875 C4573.94661,100.122396 4574.17122,99.8229167 4574.4707,99.5234375 C4574.62044,99.2239583 4574.84505,98.9244792 4575.14453,98.625 C4575.44401,98.3255208 4575.74349,98.0260417 4576.04297,97.7265625 C4576.49219,97.5768229 4576.94141,97.3522135 4577.39062,97.0527344 C4578.13932,96.453776 4578.81315,95.9296875 4579.41211,95.4804688 C4579.86133,95.03125 4580.23568,94.656901 4580.53516,94.3574219 C4580.6849,93.9082031 4580.83464,93.5338542 4580.98437,93.234375 C4581.13411,92.9348958 4581.20898,92.6354167 4581.20898,92.3359375 C4581.20898,92.1861979 4581.20898,92.0364583 4581.20898,91.8867188 C4581.20898,91.8867188 4581.13411,91.811849 4580.98437,91.6621094 C4580.98437,91.5123698 4580.98437,91.3626302 4580.98437,91.2128906 C4580.98437,91.2128906 4580.98437,91.1380208 4580.98437,90.9882812 C4580.83464,90.6888021 4580.6849,90.4641927 4580.53516,90.3144531 C4580.38542,90.1647135 4580.16081,90.014974 4579.86133,89.8652344 C4579.71159,89.7154948 4579.41211,89.5657552 4578.96289,89.4160156 C4578.66341,89.4160156 4578.21419,89.4160156 4577.61523,89.4160156 C4577.31576,89.4160156 4577.01628,89.4160156 4576.7168,89.4160156 C4576.41732,89.5657552 4576.11784,89.7154948 4575.81836,89.8652344 C4575.51888,90.014974 4575.29427,90.2395833 4575.14453,90.5390625 C4574.99479,90.6888021 4574.84505,90.9134115 4574.69531,91.2128906 C4574.54557,91.3626302 4574.4707,91.5123698 4574.4707,91.6621094 C4574.32096,91.6621094 4574.17122,91.6621094 4574.02148,91.6621094 C4573.87174,91.811849 4573.72201,91.8867188 4573.57227,91.8867188 C4573.57227,91.8867188 4573.4974,91.811849 4573.34766,91.6621094 C4573.19792,91.6621094 4573.04818,91.5872396 4572.89844,91.4375 C4572.89844,91.4375 4572.89844,91.3626302 4572.89844,91.2128906 C4572.7487,91.063151 4572.67383,90.9134115 4572.67383,90.7636719 C4572.67383,90.6139323 4572.7487,90.5390625 4572.89844,90.5390625 C4573.04818,89.9401042 4573.27279,89.4908854 4573.57227,89.1914062 C4574.02148,88.7421875 4574.39583,88.4427083 4574.69531,88.2929688 C4575.14453,87.9934896 4575.59375,87.7688802 4576.04297,87.6191406 C4576.64193,87.469401 4577.16602,87.3945312 4577.61523,87.3945312 C4578.66341,87.3945312 4579.56185,87.5442708 4580.31055,87.84375 C4580.90951,88.1432292 4581.43359,88.5175781 4581.88281,88.9667969 C4582.33203,89.5657552 4582.63151,90.0898438 4582.78125,90.5390625 C4582.93099,91.1380208 4583.00586,91.7369792 4583.00586,92.3359375 C4583.00586,92.9348958 4582.93099,93.4589844 4582.78125,93.9082031 C4582.63151,94.5071615 4582.33203,95.1061198 4581.88281,95.7050781 C4581.58333,96.1542969 4581.13411,96.6035156 4580.53516,97.0527344 C4579.9362,97.6516927 4579.1875,98.1757812 4578.28906,98.625 C4577.6901,99.0742188 4577.09115,99.5234375 4576.49219,99.9726562 C4576.04297,100.421875 4575.66862,100.945964 4575.36914,101.544922 C4575.06966,101.994141 4574.84505,102.443359 4574.69531,102.892578 C4574.54557,103.341797 4574.39583,103.716146 4574.24609,104.015625 C4575.14453,104.015625 4576.26758,104.015625 4577.61523,104.015625 C4578.96289,104.015625 4580.53516,104.015625 4582.33203,104.015625 Z M4621.33,93.6835938 C4621.33,93.9830729 4621.33,94.2076823 4621.33,94.3574219 C4621.33,94.5071615 4621.33,94.7317708 4621.33,95.03125 C4622.40143,95.03125 4624.0681,95.03125 4626.33,95.03125 C4626.33,94.4322917 4626.33,93.608724 4626.33,92.5605469 C4625.13952,92.5605469 4623.47286,92.5605469 4621.33,92.5605469 C4621.33,92.860026 4621.33,93.0846354 4621.33,93.234375 C4621.33,93.3841146 4621.33,93.5338542 4621.33,93.6835938 Z" transform="translate(-4569 -12)"/></svg>