<svg xmlns="http://www.w3.org/2000/svg" width="243" height="243" viewBox="0 0 243 243"><path fill="#131313" d="M153.035156,146.5625 C154.682292,148.059896 155.505859,150.00651 155.505859,152.402344 C155.505859,154.648438 154.682292,156.520182 153.035156,158.017578 C150.789062,160.263672 148.24349,161.985677 145.398438,163.183594 C142.403646,164.38151 139.333984,164.980469 136.189453,164.980469 C136.039714,164.980469 135.964844,164.980469 135.964844,164.980469 C129.376302,164.980469 123.686198,162.659505 118.894531,158.017578 C114.252604,153.375651 111.931641,147.760417 111.931641,141.171875 C111.931641,130.989583 111.931641,115.791016 111.931641,95.5761719 C108.188151,95.5761719 102.572917,95.5761719 95.0859375,95.5761719 C92.8398438,95.5761719 90.968099,94.827474 89.4707031,93.3300781 C87.8235677,91.6829427 87,89.7363281 87,87.4902344 C87,85.2441406 87.8235677,83.297526 89.4707031,81.6503906 C90.968099,80.1529948 92.8398438,79.4042969 95.0859375,79.4042969 C98.8294271,79.4042969 104.444661,79.4042969 111.931641,79.4042969 C111.931641,65.7779948 111.931641,45.3385417 111.931641,18.0859375 C111.931641,15.8398438 112.755208,13.8932292 114.402344,12.2460938 C115.89974,10.7486979 117.771484,10 120.017578,10 C122.263672,10 124.210286,10.7486979 125.857422,12.2460938 C127.504557,13.8932292 128.328125,15.8398438 128.328125,18.0859375 C128.328125,31.7122396 128.328125,52.1516927 128.328125,79.4042969 C132.520833,79.4042969 138.884766,79.4042969 147.419922,79.4042969 C149.666016,79.4042969 151.53776,80.1529948 153.035156,81.6503906 C154.682292,83.297526 155.505859,85.2441406 155.505859,87.4902344 C155.505859,89.7363281 154.682292,91.6829427 153.035156,93.3300781 C151.53776,94.827474 149.666016,95.5761719 147.419922,95.5761719 C143.077474,95.5761719 136.713542,95.5761719 128.328125,95.5761719 C128.328125,105.758464 128.328125,120.957031 128.328125,141.171875 C128.328125,143.268229 129.076823,145.065104 130.574219,146.5625 C131.921875,148.059896 133.71875,148.808594 135.964844,148.808594 C135.964844,148.808594 136.039714,148.808594 136.189453,148.808594 C137.23763,148.808594 138.210938,148.583984 139.109375,148.134766 C140.007812,147.835286 140.83138,147.311198 141.580078,146.5625 C143.077474,144.915365 144.949219,144.091797 147.195312,144.091797 C149.591146,144.091797 151.53776,144.915365 153.035156,146.5625 Z M101.460938,27.7441406 C101.760417,27.7441406 101.985026,27.8190104 102.134766,27.96875 C102.284505,27.96875 102.434245,27.96875 102.583984,27.96875 C102.883464,27.96875 103.108073,27.96875 103.257812,27.96875 C103.407552,27.8190104 103.632161,27.7441406 103.931641,27.7441406 C103.931641,34.3326823 103.931641,44.140625 103.931641,57.1679688 C103.332682,57.1679688 102.509115,57.1679688 101.460938,57.1679688 C101.460938,52.2265625 101.460938,47.2851562 101.460938,42.34375 C101.460938,37.5520833 101.460938,32.6855469 101.460938,27.7441406 Z M103.931641,59.4140625 C103.931641,58.9648438 103.931641,58.2161458 103.931641,57.1679688 C104.380859,57.1679688 105.054688,57.1679688 105.953125,57.1679688 C105.204427,59.8632812 104.08138,63.9811198 102.583984,69.5214844 C101.985026,66.8261719 100.936849,62.7083333 99.4394531,57.1679688 C99.8886719,57.1679688 100.5625,57.1679688 101.460938,57.1679688 C101.460938,57.6171875 101.460938,58.3658854 101.460938,59.4140625 C102.059896,59.4140625 102.883464,59.4140625 103.931641,59.4140625 Z M101.460938,57.1679688 C102.059896,57.1679688 102.883464,57.1679688 103.931641,57.1679688 C103.931641,57.6171875 103.931641,58.3658854 103.931641,59.4140625 C103.332682,59.4140625 102.509115,59.4140625 101.460938,59.4140625 C101.460938,58.9648438 101.460938,58.2161458 101.460938,57.1679688 Z M101.460938,27.7441406 C100.41276,27.4446615 99.5143229,26.8457031 98.765625,25.9472656 C98.1666667,25.1985677 97.8671875,24.2252604 97.8671875,23.0273438 C97.8671875,21.6796875 98.3164062,20.4817708 99.2148438,19.4335938 C100.113281,18.5351562 101.236328,18.0859375 102.583984,18.0859375 C103.931641,18.0859375 105.129557,18.610026 106.177734,19.6582031 C107.076172,20.5566406 107.525391,21.6796875 107.525391,23.0273438 C107.525391,24.2252604 107.225911,25.1985677 106.626953,25.9472656 C105.878255,26.8457031 104.979818,27.4446615 103.931641,27.7441406 C103.931641,27.594401 103.931641,27.3697917 103.931641,27.0703125 C104.830078,26.9205729 105.578776,26.4713542 106.177734,25.7226562 C106.776693,24.9739583 107.076172,24.0755208 107.076172,23.0273438 C107.076172,21.8294271 106.626953,20.78125 105.728516,19.8828125 C104.830078,19.1341146 103.781901,18.7597656 102.583984,18.7597656 C101.386068,18.7597656 100.41276,19.1341146 99.6640625,19.8828125 C98.765625,20.78125 98.3164062,21.8294271 98.3164062,23.0273438 C98.3164062,24.0755208 98.6158854,24.9739583 99.2148438,25.7226562 C99.8138021,26.4713542 100.5625,26.9205729 101.460938,27.0703125 C101.460938,27.2200521 101.460938,27.3697917 101.460938,27.5195312 C101.460938,27.5195312 101.460938,27.594401 101.460938,27.7441406 Z M102.583984,27.2949219 C102.883464,27.2949219 103.108073,27.2949219 103.257812,27.2949219 C103.407552,27.2949219 103.632161,27.2200521 103.931641,27.0703125 C103.931641,27.2200521 103.931641,27.4446615 103.931641,27.7441406 C103.632161,27.7441406 103.407552,27.8190104 103.257812,27.96875 C103.108073,27.96875 102.883464,27.96875 102.583984,27.96875 C102.434245,27.96875 102.284505,27.96875 102.134766,27.96875 C101.985026,27.8190104 101.760417,27.7441406 101.460938,27.7441406 C101.460938,27.594401 101.460938,27.3697917 101.460938,27.0703125 C101.760417,27.2200521 101.985026,27.2949219 102.134766,27.2949219 C102.284505,27.2949219 102.434245,27.2949219 102.583984,27.2949219 Z M98.9902344,23.0273438 C98.9902344,23.7760417 99.2148438,24.5247396 99.6640625,25.2734375 C100.113281,25.8723958 100.71224,26.3216146 101.460938,26.6210938 C101.460938,26.7708333 101.460938,26.9205729 101.460938,27.0703125 C100.5625,26.9205729 99.8138021,26.4713542 99.2148438,25.7226562 C98.6158854,24.9739583 98.3164062,24.0755208 98.3164062,23.0273438 C98.3164062,21.8294271 98.765625,20.78125 99.6640625,19.8828125 C100.41276,19.1341146 101.386068,18.7597656 102.583984,18.7597656 C103.781901,18.7597656 104.830078,19.1341146 105.728516,19.8828125 C106.626953,20.78125 107.076172,21.8294271 107.076172,23.0273438 C107.076172,24.0755208 106.776693,24.9739583 106.177734,25.7226562 C105.578776,26.4713542 104.830078,26.9205729 103.931641,27.0703125 C103.931641,26.9205729 103.931641,26.7708333 103.931641,26.6210938 C104.680339,26.3216146 105.279297,25.8723958 105.728516,25.2734375 C106.177734,24.5247396 106.402344,23.7760417 106.402344,23.0273438 C106.402344,21.9791667 106.027995,21.0807292 105.279297,20.3320312 C104.530599,19.5833333 103.632161,19.2089844 102.583984,19.2089844 C101.685547,19.2089844 100.861979,19.5833333 100.113281,20.3320312 C99.3645833,21.0807292 98.9902344,21.9791667 98.9902344,23.0273438 C98.9902344,22.8776042 98.9902344,22.7278646 98.9902344,22.578125 C98.9902344,22.4283854 98.9902344,22.3535156 98.9902344,22.3535156 C98.9902344,22.3535156 98.9902344,22.4283854 98.9902344,22.578125 C98.9902344,22.7278646 98.9902344,22.8776042 98.9902344,23.0273438 C98.9902344,23.1770833 98.9902344,23.3268229 98.9902344,23.4765625 C98.9902344,23.4765625 98.9902344,23.5514323 98.9902344,23.7011719 C98.9902344,23.5514323 98.9902344,23.4765625 98.9902344,23.4765625 C98.9902344,23.3268229 98.9902344,23.1770833 98.9902344,23.0273438 Z M103.931641,27.0703125 C103.632161,27.2200521 103.407552,27.2949219 103.257812,27.2949219 C103.108073,27.2949219 102.883464,27.2949219 102.583984,27.2949219 C102.434245,27.2949219 102.284505,27.2949219 102.134766,27.2949219 C101.985026,27.2949219 101.760417,27.2200521 101.460938,27.0703125 C101.460938,26.9205729 101.460938,26.7708333 101.460938,26.6210938 C101.760417,26.6210938 101.985026,26.6210938 102.134766,26.6210938 C102.284505,26.7708333 102.434245,26.8457031 102.583984,26.8457031 C102.883464,26.8457031 103.108073,26.7708333 103.257812,26.6210938 C103.407552,26.6210938 103.632161,26.6210938 103.931641,26.6210938 C103.931641,26.6210938 103.931641,26.6959635 103.931641,26.8457031 C103.931641,26.9954427 103.931641,27.0703125 103.931641,27.0703125 Z M105.054688,105.458984 C105.054688,105.608724 105.054688,105.833333 105.054688,106.132812 C105.054688,106.282552 105.054688,106.432292 105.054688,106.582031 C106.402344,106.582031 109.084948,106.582031 111.93,106.582031 C111.93,106.132812 111.93,105.384115 111.93,104.335938 C110.432604,104.335938 107.75,104.335938 105.054688,104.335938 C105.054688,104.485677 105.054688,104.635417 105.054688,104.785156 C105.054688,105.084635 105.054688,105.309245 105.054688,105.458984 Z M133.130859,104.335938 C133.130859,106.016481 133.130859,105.599613 133.130859,106.582031 C133.130859,107.03125 133.130859,107.779948 133.130859,108.828125 C135.975911,108.079427 140.16862,106.95638 145.708984,105.458984 C142.863932,104.710286 138.671224,103.58724 133.130859,102.089844 C133.130859,102.539062 133.130859,103.28776 133.130859,104.335938 Z M96.2949219,105.458984 C96.2949219,104.261068 96.7441406,103.212891 97.6425781,102.314453 C98.391276,101.565755 99.3645833,101.191406 100.5625,101.191406 C101.610677,101.191406 102.509115,101.490885 103.257812,102.089844 C104.00651,102.688802 104.530599,103.4375 104.830078,104.335938 C104.830078,104.335938 104.979818,104.335938 105.279297,104.335938 C104.979818,103.28776 104.455729,102.389323 103.707031,101.640625 C102.808594,100.891927 101.760417,100.517578 100.5625,100.517578 C99.2148438,100.517578 98.0917969,101.041667 97.1933594,102.089844 C96.1451823,102.988281 95.6210938,104.111328 95.6210938,105.458984 C95.6210938,106.806641 96.1451823,107.929688 97.1933594,108.828125 C98.0917969,109.876302 99.2148438,110.400391 100.5625,110.400391 C101.760417,110.400391 102.808594,110.026042 103.707031,109.277344 C104.605469,108.528646 105.129557,107.630208 105.279297,106.582031 C105.129557,106.582031 104.979818,106.582031 104.830078,106.582031 C104.530599,107.480469 104.00651,108.229167 103.257812,108.828125 C102.509115,109.427083 101.610677,109.726562 100.5625,109.726562 C99.3645833,109.726562 98.391276,109.352214 97.6425781,108.603516 C96.7441406,107.705078 96.2949219,106.656901 96.2949219,105.458984 Z M104.830078,104.335938 C104.830078,104.485677 104.830078,104.635417 104.830078,104.785156 C104.830078,105.084635 104.830078,105.309245 104.830078,105.458984 C104.830078,105.608724 104.830078,105.833333 104.830078,106.132812 C104.830078,106.282552 104.830078,106.432292 104.830078,106.582031 C104.830078,106.582031 104.979818,106.582031 105.279297,106.582031 C105.429036,106.432292 105.503906,106.282552 105.503906,106.132812 C105.503906,105.833333 105.503906,105.608724 105.503906,105.458984 C105.503906,105.309245 105.503906,105.084635 105.503906,104.785156 C105.503906,104.635417 105.429036,104.485677 105.279297,104.335938 C105.279297,104.335938 105.204427,104.335938 105.054688,104.335938 C104.904948,104.335938 104.830078,104.335938 104.830078,104.335938 Z M96.2949219,105.458984 C96.2949219,106.656901 96.7441406,107.705078 97.6425781,108.603516 C98.391276,109.352214 99.3645833,109.726562 100.5625,109.726562 C101.610677,109.726562 102.509115,109.427083 103.257812,108.828125 C104.00651,108.229167 104.530599,107.480469 104.830078,106.582031 C104.680339,106.582031 104.455729,106.582031 104.15625,106.582031 C103.856771,107.330729 103.407552,107.929688 102.808594,108.378906 C102.209635,108.977865 101.460938,109.277344 100.5625,109.277344 C100.71224,109.277344 100.861979,109.277344 101.011719,109.277344 C101.161458,109.277344 101.236328,109.277344 101.236328,109.277344 C101.236328,109.277344 101.161458,109.277344 101.011719,109.277344 C100.861979,109.277344 100.71224,109.277344 100.5625,109.277344 C100.41276,109.277344 100.263021,109.277344 100.113281,109.277344 C99.9635417,109.277344 99.8886719,109.277344 99.8886719,109.277344 C99.8886719,109.277344 99.9635417,109.277344 100.113281,109.277344 C100.263021,109.277344 100.41276,109.277344 100.5625,109.277344 C99.5143229,109.277344 98.6158854,108.902995 97.8671875,108.154297 C97.1184896,107.405599 96.7441406,106.507161 96.7441406,105.458984 C96.7441406,104.410807 97.1184896,103.51237 97.8671875,102.763672 C98.6158854,102.014974 99.5143229,101.640625 100.5625,101.640625 C101.460938,101.640625 102.209635,101.940104 102.808594,102.539062 C103.407552,102.988281 103.856771,103.58724 104.15625,104.335938 C104.30599,104.335938 104.530599,104.335938 104.830078,104.335938 C104.530599,103.4375 104.00651,102.688802 103.257812,102.089844 C102.509115,101.490885 101.610677,101.191406 100.5625,101.191406 C99.3645833,101.191406 98.391276,101.565755 97.6425781,102.314453 C96.7441406,103.212891 96.2949219,104.261068 96.2949219,105.458984 Z M104.15625,106.582031 C104.30599,106.582031 104.455729,106.582031 104.605469,106.582031 C104.755208,106.432292 104.830078,106.282552 104.830078,106.132812 C104.830078,105.833333 104.830078,105.608724 104.830078,105.458984 C104.830078,105.309245 104.830078,105.084635 104.830078,104.785156 C104.830078,104.635417 104.755208,104.485677 104.605469,104.335938 C104.605469,104.335938 104.455729,104.335938 104.15625,104.335938 C104.15625,104.485677 104.23112,104.635417 104.380859,104.785156 C104.380859,105.084635 104.380859,105.309245 104.380859,105.458984 C104.380859,105.608724 104.30599,105.833333 104.15625,106.132812 C104.15625,106.282552 104.15625,106.432292 104.15625,106.582031 Z M90.4550781,15.6152344 C90.6048177,15.764974 90.6796875,15.8398438 90.6796875,15.8398438 C90.8294271,15.9895833 90.9042969,16.0644531 90.9042969,16.0644531 C90.9042969,16.2141927 90.9791667,16.2890625 91.1289062,16.2890625 C91.1289062,16.4388021 91.1289062,16.5885417 91.1289062,16.7382812 C91.1289062,18.5351562 91.1289062,20.8561198 91.1289062,23.7011719 C91.1289062,26.3964844 91.1289062,29.6158854 91.1289062,33.359375 C91.1289062,33.5091146 91.0540365,33.5839844 90.9042969,33.5839844 C90.9042969,33.733724 90.8294271,33.8834635 90.6796875,34.0332031 C90.6796875,34.0332031 90.6048177,34.1080729 90.4550781,34.2578125 C90.3053385,34.2578125 90.155599,34.2578125 90.0058594,34.2578125 C90.0058594,34.2578125 89.9309896,34.2578125 89.78125,34.2578125 C89.6315104,34.1080729 89.4817708,34.0332031 89.3320312,34.0332031 C89.3320312,33.8834635 89.2571615,33.8085938 89.1074219,33.8085938 C89.1074219,33.6588542 89.1074219,33.5091146 89.1074219,33.359375 C89.1074219,31.7122396 89.1074219,29.6907552 89.1074219,27.2949219 C89.1074219,24.8990885 89.1074219,22.1289062 89.1074219,18.984375 C89.1074219,19.1341146 89.0325521,19.2089844 88.8828125,19.2089844 C88.7330729,19.358724 88.5833333,19.5084635 88.4335938,19.6582031 C88.2838542,19.8079427 88.2089844,19.8828125 88.2089844,19.8828125 C88.0592448,19.8828125 87.9095052,19.8828125 87.7597656,19.8828125 C87.610026,19.8828125 87.4602865,19.8828125 87.3105469,19.8828125 C87.3105469,19.8828125 87.2356771,19.8079427 87.0859375,19.6582031 C86.9361979,19.5084635 86.8613281,19.4335938 86.8613281,19.4335938 C86.8613281,19.2838542 86.8613281,19.1341146 86.8613281,18.984375 C86.8613281,18.8346354 86.8613281,18.6848958 86.8613281,18.5351562 C86.8613281,18.5351562 86.9361979,18.4602865 87.0859375,18.3105469 C87.3854167,18.0110677 87.6848958,17.7115885 87.984375,17.4121094 C88.4335938,16.9628906 88.8828125,16.4388021 89.3320312,15.8398438 C89.4817708,15.8398438 89.5566406,15.8398438 89.5566406,15.8398438 C89.7063802,15.6901042 89.8561198,15.6152344 90.0058594,15.6152344 C90.0058594,15.6152344 90.0058594,15.6152344 90.0058594,15.6152344 C90.0058594,15.6152344 90.0058594,15.6152344 90.0058594,15.6152344 C90.155599,15.6152344 90.2304688,15.6152344 90.2304688,15.6152344 C90.3802083,15.6152344 90.4550781,15.6152344 90.4550781,15.6152344 Z M89.3320312,116.015625 C89.4817708,116.015625 89.6315104,116.090495 89.78125,116.240234 C89.9309896,116.240234 90.0058594,116.315104 90.0058594,116.464844 C90.155599,116.464844 90.2304688,116.539714 90.2304688,116.689453 C90.2304688,116.839193 90.2304688,116.988932 90.2304688,117.138672 C90.2304688,117.138672 90.2304688,117.213542 90.2304688,117.363281 C90.2304688,117.513021 90.155599,117.66276 90.0058594,117.8125 C90.0058594,117.8125 89.9309896,117.88737 89.78125,118.037109 C89.6315104,118.037109 89.4817708,118.037109 89.3320312,118.037109 C88.5833333,118.037109 87.8346354,118.037109 87.0859375,118.037109 C86.3372396,118.037109 85.5136719,118.037109 84.6152344,118.037109 C83.8665365,118.037109 83.1178385,118.037109 82.3691406,118.037109 C81.6204427,118.037109 80.796875,118.037109 79.8984375,118.037109 C79.8984375,118.037109 79.8235677,118.037109 79.6738281,118.037109 C79.6738281,118.037109 79.6738281,118.037109 79.6738281,118.037109 C79.5240885,117.88737 79.4492188,117.8125 79.4492188,117.8125 C79.4492188,117.8125 79.374349,117.8125 79.2246094,117.8125 C79.2246094,117.66276 79.2246094,117.587891 79.2246094,117.587891 C79.0748698,117.438151 79,117.363281 79,117.363281 C79,117.363281 79,117.288411 79,117.138672 C79,117.138672 79,117.138672 79,117.138672 C79,116.988932 79,116.914062 79,116.914062 C79,116.914062 79,116.914062 79,116.914062 C79,116.914062 79.0748698,116.764323 79.2246094,116.464844 C79.2246094,116.315104 79.2994792,116.015625 79.4492188,115.566406 C79.4492188,115.117188 79.5989583,114.667969 79.8984375,114.21875 C80.0481771,113.619792 80.3476562,113.020833 80.796875,112.421875 C80.9466146,112.122396 81.171224,111.822917 81.4707031,111.523438 C81.6204427,111.223958 81.8450521,110.924479 82.1445312,110.625 C82.4440104,110.325521 82.7434896,110.026042 83.0429688,109.726562 C83.4921875,109.576823 83.9414062,109.352214 84.390625,109.052734 C85.1393229,108.453776 85.813151,107.929688 86.4121094,107.480469 C86.8613281,107.03125 87.2356771,106.656901 87.5351562,106.357422 C87.6848958,105.908203 87.8346354,105.533854 87.984375,105.234375 C88.1341146,104.934896 88.2089844,104.635417 88.2089844,104.335938 C88.2089844,104.186198 88.2089844,104.036458 88.2089844,103.886719 C88.2089844,103.886719 88.1341146,103.811849 87.984375,103.662109 C87.984375,103.51237 87.984375,103.36263 87.984375,103.212891 C87.984375,103.212891 87.984375,103.138021 87.984375,102.988281 C87.8346354,102.688802 87.6848958,102.464193 87.5351562,102.314453 C87.3854167,102.164714 87.1608073,102.014974 86.8613281,101.865234 C86.7115885,101.715495 86.4121094,101.565755 85.9628906,101.416016 C85.6634115,101.416016 85.2141927,101.416016 84.6152344,101.416016 C84.3157552,101.416016 84.016276,101.416016 83.7167969,101.416016 C83.4173177,101.565755 83.1178385,101.715495 82.8183594,101.865234 C82.5188802,102.014974 82.2942708,102.239583 82.1445312,102.539062 C81.9947917,102.688802 81.8450521,102.913411 81.6953125,103.212891 C81.5455729,103.36263 81.4707031,103.51237 81.4707031,103.662109 C81.3209635,103.662109 81.171224,103.662109 81.0214844,103.662109 C80.8717448,103.811849 80.7220052,103.886719 80.5722656,103.886719 C80.5722656,103.886719 80.4973958,103.811849 80.3476562,103.662109 C80.1979167,103.662109 80.0481771,103.58724 79.8984375,103.4375 C79.8984375,103.4375 79.8984375,103.36263 79.8984375,103.212891 C79.7486979,103.063151 79.6738281,102.913411 79.6738281,102.763672 C79.6738281,102.613932 79.7486979,102.539062 79.8984375,102.539062 C80.0481771,101.940104 80.2727865,101.490885 80.5722656,101.191406 C81.0214844,100.742188 81.3958333,100.442708 81.6953125,100.292969 C82.1445312,99.9934896 82.59375,99.7688802 83.0429688,99.6191406 C83.6419271,99.469401 84.1660156,99.3945312 84.6152344,99.3945312 C85.6634115,99.3945312 86.561849,99.5442708 87.3105469,99.84375 C87.9095052,100.143229 88.4335938,100.517578 88.8828125,100.966797 C89.3320312,101.565755 89.6315104,102.089844 89.78125,102.539062 C89.9309896,103.138021 90.0058594,103.736979 90.0058594,104.335938 C90.0058594,104.934896 89.9309896,105.458984 89.78125,105.908203 C89.6315104,106.507161 89.3320312,107.10612 88.8828125,107.705078 C88.5833333,108.154297 88.1341146,108.603516 87.5351562,109.052734 C86.9361979,109.651693 86.1875,110.175781 85.2890625,110.625 C84.6901042,111.074219 84.0911458,111.523438 83.4921875,111.972656 C83.0429688,112.421875 82.6686198,112.945964 82.3691406,113.544922 C82.0696615,113.994141 81.8450521,114.443359 81.6953125,114.892578 C81.5455729,115.341797 81.3958333,115.716146 81.2460938,116.015625 C82.1445312,116.015625 83.2675781,116.015625 84.6152344,116.015625 C85.9628906,116.015625 87.5351562,116.015625 89.3320312,116.015625 Z M128.33,105.683594 C128.33,105.983073 128.33,106.207682 128.33,106.357422 C128.33,106.507161 128.33,106.731771 128.33,107.03125 C129.401429,107.03125 131.068095,107.03125 133.33,107.03125 C133.33,106.432292 133.33,105.608724 133.33,104.560547 C132.139524,104.560547 130.472857,104.560547 128.33,104.560547 C128.33,104.860026 128.33,105.084635 128.33,105.234375 C128.33,105.384115 128.33,105.533854 128.33,105.683594 Z"/></svg>