<svg xmlns="http://www.w3.org/2000/svg" width="91" height="243" viewBox="0 0 91 243"><path fill="#131313" d="M77.0351562,146.5625 C78.6822917,148.059896 79.5058594,150.00651 79.5058594,152.402344 C79.5058594,154.648438 78.6822917,156.520182 77.0351562,158.017578 C74.7890625,160.263672 72.2434896,161.985677 69.3984375,163.183594 C66.4036458,164.38151 63.3339844,164.980469 60.1894531,164.980469 C60.0397135,164.980469 59.9648438,164.980469 59.9648438,164.980469 C53.3763021,164.980469 47.6861979,162.659505 42.8945312,158.017578 C38.2526042,153.375651 35.9316406,147.760417 35.9316406,141.171875 C35.9316406,130.989583 35.9316406,115.791016 35.9316406,95.5761719 C32.188151,95.5761719 26.5729167,95.5761719 19.0859375,95.5761719 C16.8398438,95.5761719 14.968099,94.827474 13.4707031,93.3300781 C11.8235677,91.6829427 11,89.7363281 11,87.4902344 C11,85.2441406 11.8235677,83.297526 13.4707031,81.6503906 C14.968099,80.1529948 16.8398438,79.4042969 19.0859375,79.4042969 C22.8294271,79.4042969 28.4446615,79.4042969 35.9316406,79.4042969 C35.9316406,65.7779948 35.9316406,45.3385417 35.9316406,18.0859375 C35.9316406,15.8398438 36.7552083,13.8932292 38.4023438,12.2460938 C39.8997396,10.7486979 41.7714844,10 44.0175781,10 C46.2636719,10 48.2102865,10.7486979 49.8574219,12.2460938 C51.5045573,13.8932292 52.328125,15.8398438 52.328125,18.0859375 C52.328125,31.7122396 52.328125,52.1516927 52.328125,79.4042969 C56.5208333,79.4042969 62.8847656,79.4042969 71.4199219,79.4042969 C73.6660156,79.4042969 75.5377604,80.1529948 77.0351562,81.6503906 C78.6822917,83.297526 79.5058594,85.2441406 79.5058594,87.4902344 C79.5058594,89.7363281 78.6822917,91.6829427 77.0351562,93.3300781 C75.5377604,94.827474 73.6660156,95.5761719 71.4199219,95.5761719 C67.077474,95.5761719 60.7135417,95.5761719 52.328125,95.5761719 C52.328125,105.758464 52.328125,120.957031 52.328125,141.171875 C52.328125,143.268229 53.0768229,145.065104 54.5742188,146.5625 C55.921875,148.059896 57.71875,148.808594 59.9648438,148.808594 C59.9648438,148.808594 60.0397135,148.808594 60.1894531,148.808594 C61.2376302,148.808594 62.2109375,148.583984 63.109375,148.134766 C64.0078125,147.835286 64.8313802,147.311198 65.5800781,146.5625 C67.077474,144.915365 68.9492188,144.091797 71.1953125,144.091797 C73.5911458,144.091797 75.5377604,144.915365 77.0351562,146.5625 Z M25.4609375,27.7441406 C25.7604167,27.7441406 25.985026,27.8190104 26.1347656,27.96875 C26.2845052,27.96875 26.4342448,27.96875 26.5839844,27.96875 C26.8834635,27.96875 27.1080729,27.96875 27.2578125,27.96875 C27.4075521,27.8190104 27.6321615,27.7441406 27.9316406,27.7441406 C27.9316406,34.3326823 27.9316406,44.140625 27.9316406,57.1679688 C27.3326823,57.1679688 26.5091146,57.1679688 25.4609375,57.1679688 C25.4609375,52.2265625 25.4609375,47.2851562 25.4609375,42.34375 C25.4609375,37.5520833 25.4609375,32.6855469 25.4609375,27.7441406 Z M27.9316406,59.4140625 C27.9316406,58.9648438 27.9316406,58.2161458 27.9316406,57.1679688 C28.3808594,57.1679688 29.0546875,57.1679688 29.953125,57.1679688 C29.2044271,59.8632812 28.0813802,63.9811198 26.5839844,69.5214844 C25.985026,66.8261719 24.936849,62.7083333 23.4394531,57.1679688 C23.8886719,57.1679688 24.5625,57.1679688 25.4609375,57.1679688 C25.4609375,57.6171875 25.4609375,58.3658854 25.4609375,59.4140625 C26.0598958,59.4140625 26.8834635,59.4140625 27.9316406,59.4140625 Z M25.4609375,57.1679688 C26.0598958,57.1679688 26.8834635,57.1679688 27.9316406,57.1679688 C27.9316406,57.6171875 27.9316406,58.3658854 27.9316406,59.4140625 C27.3326823,59.4140625 26.5091146,59.4140625 25.4609375,59.4140625 C25.4609375,58.9648438 25.4609375,58.2161458 25.4609375,57.1679688 Z M25.4609375,27.7441406 C24.4127604,27.4446615 23.5143229,26.8457031 22.765625,25.9472656 C22.1666667,25.1985677 21.8671875,24.2252604 21.8671875,23.0273438 C21.8671875,21.6796875 22.3164062,20.4817708 23.2148438,19.4335938 C24.1132812,18.5351562 25.2363281,18.0859375 26.5839844,18.0859375 C27.9316406,18.0859375 29.1295573,18.610026 30.1777344,19.6582031 C31.0761719,20.5566406 31.5253906,21.6796875 31.5253906,23.0273438 C31.5253906,24.2252604 31.2259115,25.1985677 30.6269531,25.9472656 C29.8782552,26.8457031 28.9798177,27.4446615 27.9316406,27.7441406 C27.9316406,27.594401 27.9316406,27.3697917 27.9316406,27.0703125 C28.8300781,26.9205729 29.578776,26.4713542 30.1777344,25.7226562 C30.7766927,24.9739583 31.0761719,24.0755208 31.0761719,23.0273438 C31.0761719,21.8294271 30.6269531,20.78125 29.7285156,19.8828125 C28.8300781,19.1341146 27.781901,18.7597656 26.5839844,18.7597656 C25.3860677,18.7597656 24.4127604,19.1341146 23.6640625,19.8828125 C22.765625,20.78125 22.3164062,21.8294271 22.3164062,23.0273438 C22.3164062,24.0755208 22.6158854,24.9739583 23.2148438,25.7226562 C23.8138021,26.4713542 24.5625,26.9205729 25.4609375,27.0703125 C25.4609375,27.2200521 25.4609375,27.3697917 25.4609375,27.5195312 C25.4609375,27.5195312 25.4609375,27.594401 25.4609375,27.7441406 Z M26.5839844,27.2949219 C26.8834635,27.2949219 27.1080729,27.2949219 27.2578125,27.2949219 C27.4075521,27.2949219 27.6321615,27.2200521 27.9316406,27.0703125 C27.9316406,27.2200521 27.9316406,27.4446615 27.9316406,27.7441406 C27.6321615,27.7441406 27.4075521,27.8190104 27.2578125,27.96875 C27.1080729,27.96875 26.8834635,27.96875 26.5839844,27.96875 C26.4342448,27.96875 26.2845052,27.96875 26.1347656,27.96875 C25.985026,27.8190104 25.7604167,27.7441406 25.4609375,27.7441406 C25.4609375,27.594401 25.4609375,27.3697917 25.4609375,27.0703125 C25.7604167,27.2200521 25.985026,27.2949219 26.1347656,27.2949219 C26.2845052,27.2949219 26.4342448,27.2949219 26.5839844,27.2949219 Z M22.9902344,23.0273438 C22.9902344,23.7760417 23.2148438,24.5247396 23.6640625,25.2734375 C24.1132812,25.8723958 24.7122396,26.3216146 25.4609375,26.6210938 C25.4609375,26.7708333 25.4609375,26.9205729 25.4609375,27.0703125 C24.5625,26.9205729 23.8138021,26.4713542 23.2148438,25.7226562 C22.6158854,24.9739583 22.3164062,24.0755208 22.3164062,23.0273438 C22.3164062,21.8294271 22.765625,20.78125 23.6640625,19.8828125 C24.4127604,19.1341146 25.3860677,18.7597656 26.5839844,18.7597656 C27.781901,18.7597656 28.8300781,19.1341146 29.7285156,19.8828125 C30.6269531,20.78125 31.0761719,21.8294271 31.0761719,23.0273438 C31.0761719,24.0755208 30.7766927,24.9739583 30.1777344,25.7226562 C29.578776,26.4713542 28.8300781,26.9205729 27.9316406,27.0703125 C27.9316406,26.9205729 27.9316406,26.7708333 27.9316406,26.6210938 C28.6803385,26.3216146 29.2792969,25.8723958 29.7285156,25.2734375 C30.1777344,24.5247396 30.4023438,23.7760417 30.4023438,23.0273438 C30.4023438,21.9791667 30.0279948,21.0807292 29.2792969,20.3320312 C28.530599,19.5833333 27.6321615,19.2089844 26.5839844,19.2089844 C25.6855469,19.2089844 24.8619792,19.5833333 24.1132812,20.3320312 C23.3645833,21.0807292 22.9902344,21.9791667 22.9902344,23.0273438 C22.9902344,22.8776042 22.9902344,22.7278646 22.9902344,22.578125 C22.9902344,22.4283854 22.9902344,22.3535156 22.9902344,22.3535156 C22.9902344,22.3535156 22.9902344,22.4283854 22.9902344,22.578125 C22.9902344,22.7278646 22.9902344,22.8776042 22.9902344,23.0273438 C22.9902344,23.1770833 22.9902344,23.3268229 22.9902344,23.4765625 C22.9902344,23.4765625 22.9902344,23.5514323 22.9902344,23.7011719 C22.9902344,23.5514323 22.9902344,23.4765625 22.9902344,23.4765625 C22.9902344,23.3268229 22.9902344,23.1770833 22.9902344,23.0273438 Z M27.9316406,27.0703125 C27.6321615,27.2200521 27.4075521,27.2949219 27.2578125,27.2949219 C27.1080729,27.2949219 26.8834635,27.2949219 26.5839844,27.2949219 C26.4342448,27.2949219 26.2845052,27.2949219 26.1347656,27.2949219 C25.985026,27.2949219 25.7604167,27.2200521 25.4609375,27.0703125 C25.4609375,26.9205729 25.4609375,26.7708333 25.4609375,26.6210938 C25.7604167,26.6210938 25.985026,26.6210938 26.1347656,26.6210938 C26.2845052,26.7708333 26.4342448,26.8457031 26.5839844,26.8457031 C26.8834635,26.8457031 27.1080729,26.7708333 27.2578125,26.6210938 C27.4075521,26.6210938 27.6321615,26.6210938 27.9316406,26.6210938 C27.9316406,26.6210938 27.9316406,26.6959635 27.9316406,26.8457031 C27.9316406,26.9954427 27.9316406,27.0703125 27.9316406,27.0703125 Z M29.0546875,105.458984 C29.0546875,105.608724 29.0546875,105.833333 29.0546875,106.132812 C29.0546875,106.282552 29.0546875,106.432292 29.0546875,106.582031 C30.4023438,106.582031 33.0849479,106.582031 35.93,106.582031 C35.93,106.132812 35.93,105.384115 35.93,104.335938 C34.4326042,104.335938 31.75,104.335938 29.0546875,104.335938 C29.0546875,104.485677 29.0546875,104.635417 29.0546875,104.785156 C29.0546875,105.084635 29.0546875,105.309245 29.0546875,105.458984 Z M57.1308594,104.335938 C57.1308594,106.016481 57.1308594,105.599613 57.1308594,106.582031 C57.1308594,107.03125 57.1308594,107.779948 57.1308594,108.828125 C59.9759115,108.079427 64.1686198,106.95638 69.7089844,105.458984 C66.8639323,104.710286 62.671224,103.58724 57.1308594,102.089844 C57.1308594,102.539062 57.1308594,103.28776 57.1308594,104.335938 Z M20.2949219,105.458984 C20.2949219,104.261068 20.7441406,103.212891 21.6425781,102.314453 C22.391276,101.565755 23.3645833,101.191406 24.5625,101.191406 C25.6106771,101.191406 26.5091146,101.490885 27.2578125,102.089844 C28.0065104,102.688802 28.530599,103.4375 28.8300781,104.335938 C28.8300781,104.335938 28.9798177,104.335938 29.2792969,104.335938 C28.9798177,103.28776 28.4557292,102.389323 27.7070312,101.640625 C26.8085938,100.891927 25.7604167,100.517578 24.5625,100.517578 C23.2148438,100.517578 22.0917969,101.041667 21.1933594,102.089844 C20.1451823,102.988281 19.6210938,104.111328 19.6210938,105.458984 C19.6210938,106.806641 20.1451823,107.929688 21.1933594,108.828125 C22.0917969,109.876302 23.2148438,110.400391 24.5625,110.400391 C25.7604167,110.400391 26.8085938,110.026042 27.7070312,109.277344 C28.6054688,108.528646 29.1295573,107.630208 29.2792969,106.582031 C29.1295573,106.582031 28.9798177,106.582031 28.8300781,106.582031 C28.530599,107.480469 28.0065104,108.229167 27.2578125,108.828125 C26.5091146,109.427083 25.6106771,109.726562 24.5625,109.726562 C23.3645833,109.726562 22.391276,109.352214 21.6425781,108.603516 C20.7441406,107.705078 20.2949219,106.656901 20.2949219,105.458984 Z M28.8300781,104.335938 C28.8300781,104.485677 28.8300781,104.635417 28.8300781,104.785156 C28.8300781,105.084635 28.8300781,105.309245 28.8300781,105.458984 C28.8300781,105.608724 28.8300781,105.833333 28.8300781,106.132812 C28.8300781,106.282552 28.8300781,106.432292 28.8300781,106.582031 C28.8300781,106.582031 28.9798177,106.582031 29.2792969,106.582031 C29.4290365,106.432292 29.5039062,106.282552 29.5039062,106.132812 C29.5039062,105.833333 29.5039062,105.608724 29.5039062,105.458984 C29.5039062,105.309245 29.5039062,105.084635 29.5039062,104.785156 C29.5039062,104.635417 29.4290365,104.485677 29.2792969,104.335938 C29.2792969,104.335938 29.2044271,104.335938 29.0546875,104.335938 C28.9049479,104.335938 28.8300781,104.335938 28.8300781,104.335938 Z M20.2949219,105.458984 C20.2949219,106.656901 20.7441406,107.705078 21.6425781,108.603516 C22.391276,109.352214 23.3645833,109.726562 24.5625,109.726562 C25.6106771,109.726562 26.5091146,109.427083 27.2578125,108.828125 C28.0065104,108.229167 28.530599,107.480469 28.8300781,106.582031 C28.6803385,106.582031 28.4557292,106.582031 28.15625,106.582031 C27.8567708,107.330729 27.4075521,107.929688 26.8085938,108.378906 C26.2096354,108.977865 25.4609375,109.277344 24.5625,109.277344 C24.7122396,109.277344 24.8619792,109.277344 25.0117188,109.277344 C25.1614583,109.277344 25.2363281,109.277344 25.2363281,109.277344 C25.2363281,109.277344 25.1614583,109.277344 25.0117188,109.277344 C24.8619792,109.277344 24.7122396,109.277344 24.5625,109.277344 C24.4127604,109.277344 24.2630208,109.277344 24.1132812,109.277344 C23.9635417,109.277344 23.8886719,109.277344 23.8886719,109.277344 C23.8886719,109.277344 23.9635417,109.277344 24.1132812,109.277344 C24.2630208,109.277344 24.4127604,109.277344 24.5625,109.277344 C23.5143229,109.277344 22.6158854,108.902995 21.8671875,108.154297 C21.1184896,107.405599 20.7441406,106.507161 20.7441406,105.458984 C20.7441406,104.410807 21.1184896,103.51237 21.8671875,102.763672 C22.6158854,102.014974 23.5143229,101.640625 24.5625,101.640625 C25.4609375,101.640625 26.2096354,101.940104 26.8085938,102.539062 C27.4075521,102.988281 27.8567708,103.58724 28.15625,104.335938 C28.3059896,104.335938 28.530599,104.335938 28.8300781,104.335938 C28.530599,103.4375 28.0065104,102.688802 27.2578125,102.089844 C26.5091146,101.490885 25.6106771,101.191406 24.5625,101.191406 C23.3645833,101.191406 22.391276,101.565755 21.6425781,102.314453 C20.7441406,103.212891 20.2949219,104.261068 20.2949219,105.458984 Z M28.15625,106.582031 C28.3059896,106.582031 28.4557292,106.582031 28.6054688,106.582031 C28.7552083,106.432292 28.8300781,106.282552 28.8300781,106.132812 C28.8300781,105.833333 28.8300781,105.608724 28.8300781,105.458984 C28.8300781,105.309245 28.8300781,105.084635 28.8300781,104.785156 C28.8300781,104.635417 28.7552083,104.485677 28.6054688,104.335938 C28.6054688,104.335938 28.4557292,104.335938 28.15625,104.335938 C28.15625,104.485677 28.2311198,104.635417 28.3808594,104.785156 C28.3808594,105.084635 28.3808594,105.309245 28.3808594,105.458984 C28.3808594,105.608724 28.3059896,105.833333 28.15625,106.132812 C28.15625,106.282552 28.15625,106.432292 28.15625,106.582031 Z M14.4550781,15.6152344 C14.6048177,15.764974 14.6796875,15.8398438 14.6796875,15.8398438 C14.8294271,15.9895833 14.9042969,16.0644531 14.9042969,16.0644531 C14.9042969,16.2141927 14.9791667,16.2890625 15.1289062,16.2890625 C15.1289062,16.4388021 15.1289062,16.5885417 15.1289062,16.7382812 C15.1289062,18.5351562 15.1289062,20.8561198 15.1289062,23.7011719 C15.1289062,26.3964844 15.1289062,29.6158854 15.1289062,33.359375 C15.1289062,33.5091146 15.0540365,33.5839844 14.9042969,33.5839844 C14.9042969,33.733724 14.8294271,33.8834635 14.6796875,34.0332031 C14.6796875,34.0332031 14.6048177,34.1080729 14.4550781,34.2578125 C14.3053385,34.2578125 14.155599,34.2578125 14.0058594,34.2578125 C14.0058594,34.2578125 13.9309896,34.2578125 13.78125,34.2578125 C13.6315104,34.1080729 13.4817708,34.0332031 13.3320312,34.0332031 C13.3320312,33.8834635 13.2571615,33.8085938 13.1074219,33.8085938 C13.1074219,33.6588542 13.1074219,33.5091146 13.1074219,33.359375 C13.1074219,31.7122396 13.1074219,29.6907552 13.1074219,27.2949219 C13.1074219,24.8990885 13.1074219,22.1289062 13.1074219,18.984375 C13.1074219,19.1341146 13.0325521,19.2089844 12.8828125,19.2089844 C12.7330729,19.358724 12.5833333,19.5084635 12.4335938,19.6582031 C12.2838542,19.8079427 12.2089844,19.8828125 12.2089844,19.8828125 C12.0592448,19.8828125 11.9095052,19.8828125 11.7597656,19.8828125 C11.610026,19.8828125 11.4602865,19.8828125 11.3105469,19.8828125 C11.3105469,19.8828125 11.2356771,19.8079427 11.0859375,19.6582031 C10.9361979,19.5084635 10.8613281,19.4335938 10.8613281,19.4335938 C10.8613281,19.2838542 10.8613281,19.1341146 10.8613281,18.984375 C10.8613281,18.8346354 10.8613281,18.6848958 10.8613281,18.5351562 C10.8613281,18.5351562 10.9361979,18.4602865 11.0859375,18.3105469 C11.3854167,18.0110677 11.6848958,17.7115885 11.984375,17.4121094 C12.4335938,16.9628906 12.8828125,16.4388021 13.3320312,15.8398438 C13.4817708,15.8398438 13.5566406,15.8398438 13.5566406,15.8398438 C13.7063802,15.6901042 13.8561198,15.6152344 14.0058594,15.6152344 C14.0058594,15.6152344 14.0058594,15.6152344 14.0058594,15.6152344 C14.0058594,15.6152344 14.0058594,15.6152344 14.0058594,15.6152344 C14.155599,15.6152344 14.2304688,15.6152344 14.2304688,15.6152344 C14.3802083,15.6152344 14.4550781,15.6152344 14.4550781,15.6152344 Z M13.3320312,116.015625 C13.4817708,116.015625 13.6315104,116.090495 13.78125,116.240234 C13.9309896,116.240234 14.0058594,116.315104 14.0058594,116.464844 C14.155599,116.464844 14.2304688,116.539714 14.2304688,116.689453 C14.2304688,116.839193 14.2304688,116.988932 14.2304688,117.138672 C14.2304688,117.138672 14.2304688,117.213542 14.2304688,117.363281 C14.2304688,117.513021 14.155599,117.66276 14.0058594,117.8125 C14.0058594,117.8125 13.9309896,117.88737 13.78125,118.037109 C13.6315104,118.037109 13.4817708,118.037109 13.3320312,118.037109 C12.5833333,118.037109 11.8346354,118.037109 11.0859375,118.037109 C10.3372396,118.037109 9.51367188,118.037109 8.61523438,118.037109 C7.86653646,118.037109 7.11783854,118.037109 6.36914062,118.037109 C5.62044271,118.037109 4.796875,118.037109 3.8984375,118.037109 C3.8984375,118.037109 3.82356771,118.037109 3.67382812,118.037109 C3.67382812,118.037109 3.67382812,118.037109 3.67382812,118.037109 C3.52408854,117.88737 3.44921875,117.8125 3.44921875,117.8125 C3.44921875,117.8125 3.37434896,117.8125 3.22460938,117.8125 C3.22460938,117.66276 3.22460938,117.587891 3.22460938,117.587891 C3.07486979,117.438151 3,117.363281 3,117.363281 C3,117.363281 3,117.288411 3,117.138672 C3,117.138672 3,117.138672 3,117.138672 C3,116.988932 3,116.914062 3,116.914062 C3,116.914062 3,116.914062 3,116.914062 C3,116.914062 3.07486979,116.764323 3.22460938,116.464844 C3.22460938,116.315104 3.29947917,116.015625 3.44921875,115.566406 C3.44921875,115.117188 3.59895833,114.667969 3.8984375,114.21875 C4.04817708,113.619792 4.34765625,113.020833 4.796875,112.421875 C4.94661458,112.122396 5.17122396,111.822917 5.47070312,111.523438 C5.62044271,111.223958 5.84505208,110.924479 6.14453125,110.625 C6.44401042,110.325521 6.74348958,110.026042 7.04296875,109.726562 C7.4921875,109.576823 7.94140625,109.352214 8.390625,109.052734 C9.13932292,108.453776 9.81315104,107.929688 10.4121094,107.480469 C10.8613281,107.03125 11.2356771,106.656901 11.5351562,106.357422 C11.6848958,105.908203 11.8346354,105.533854 11.984375,105.234375 C12.1341146,104.934896 12.2089844,104.635417 12.2089844,104.335938 C12.2089844,104.186198 12.2089844,104.036458 12.2089844,103.886719 C12.2089844,103.886719 12.1341146,103.811849 11.984375,103.662109 C11.984375,103.51237 11.984375,103.36263 11.984375,103.212891 C11.984375,103.212891 11.984375,103.138021 11.984375,102.988281 C11.8346354,102.688802 11.6848958,102.464193 11.5351562,102.314453 C11.3854167,102.164714 11.1608073,102.014974 10.8613281,101.865234 C10.7115885,101.715495 10.4121094,101.565755 9.96289062,101.416016 C9.66341146,101.416016 9.21419271,101.416016 8.61523438,101.416016 C8.31575521,101.416016 8.01627604,101.416016 7.71679688,101.416016 C7.41731771,101.565755 7.11783854,101.715495 6.81835938,101.865234 C6.51888021,102.014974 6.29427083,102.239583 6.14453125,102.539062 C5.99479167,102.688802 5.84505208,102.913411 5.6953125,103.212891 C5.54557292,103.36263 5.47070312,103.51237 5.47070312,103.662109 C5.32096354,103.662109 5.17122396,103.662109 5.02148438,103.662109 C4.87174479,103.811849 4.72200521,103.886719 4.57226562,103.886719 C4.57226562,103.886719 4.49739583,103.811849 4.34765625,103.662109 C4.19791667,103.662109 4.04817708,103.58724 3.8984375,103.4375 C3.8984375,103.4375 3.8984375,103.36263 3.8984375,103.212891 C3.74869792,103.063151 3.67382812,102.913411 3.67382812,102.763672 C3.67382812,102.613932 3.74869792,102.539062 3.8984375,102.539062 C4.04817708,101.940104 4.27278646,101.490885 4.57226562,101.191406 C5.02148438,100.742188 5.39583333,100.442708 5.6953125,100.292969 C6.14453125,99.9934896 6.59375,99.7688802 7.04296875,99.6191406 C7.64192708,99.469401 8.16601562,99.3945312 8.61523438,99.3945312 C9.66341146,99.3945312 10.561849,99.5442708 11.3105469,99.84375 C11.9095052,100.143229 12.4335938,100.517578 12.8828125,100.966797 C13.3320312,101.565755 13.6315104,102.089844 13.78125,102.539062 C13.9309896,103.138021 14.0058594,103.736979 14.0058594,104.335938 C14.0058594,104.934896 13.9309896,105.458984 13.78125,105.908203 C13.6315104,106.507161 13.3320312,107.10612 12.8828125,107.705078 C12.5833333,108.154297 12.1341146,108.603516 11.5351562,109.052734 C10.9361979,109.651693 10.1875,110.175781 9.2890625,110.625 C8.69010417,111.074219 8.09114583,111.523438 7.4921875,111.972656 C7.04296875,112.421875 6.66861979,112.945964 6.36914062,113.544922 C6.06966146,113.994141 5.84505208,114.443359 5.6953125,114.892578 C5.54557292,115.341797 5.39583333,115.716146 5.24609375,116.015625 C6.14453125,116.015625 7.26757812,116.015625 8.61523438,116.015625 C9.96289062,116.015625 11.5351562,116.015625 13.3320312,116.015625 Z M52.33,105.683594 C52.33,105.983073 52.33,106.207682 52.33,106.357422 C52.33,106.507161 52.33,106.731771 52.33,107.03125 C53.4014286,107.03125 55.0680952,107.03125 57.33,107.03125 C57.33,106.432292 57.33,105.608724 57.33,104.560547 C56.1395238,104.560547 54.4728571,104.560547 52.33,104.560547 C52.33,104.860026 52.33,105.084635 52.33,105.234375 C52.33,105.384115 52.33,105.533854 52.33,105.683594 Z"/></svg>