<svg xmlns="http://www.w3.org/2000/svg" width="120" height="203" viewBox="0 0 120 203"><path fill="#131313" d="M4178.35195,116.626953 C4178.35195,97.6699219 4178.35195,69.0970052 4178.35195,30.9082031 C4178.35195,28.8476563 4179.10749,27.061849 4180.61855,25.5507812 C4182.12962,24.1770833 4183.91543,23.4902344 4185.97598,23.4902344 C4188.03652,23.4902344 4189.75365,24.1770833 4191.12734,25.5507812 C4192.63841,27.061849 4193.39395,28.8476563 4193.39395,30.9082031 C4193.39395,50.0026042 4193.39395,78.5755208 4193.39395,116.626953 C4193.39395,116.764323 4193.73737,119.649089 4194.42422,125.28125 C4195.11107,130.913411 4197.37767,136.270833 4201.22402,141.353516 C4203.28457,143.963542 4206.03197,146.161458 4209.46621,147.947266 C4212.76309,149.870443 4216.88418,150.832031 4221.82949,150.832031 C4226.7748,150.832031 4230.8959,149.870443 4234.19277,147.947266 C4237.48965,146.161458 4240.16836,143.963542 4242.22891,141.353516 C4246.07526,136.270833 4248.34186,130.913411 4249.02871,125.28125 C4249.85293,119.649089 4250.26504,116.764323 4250.26504,116.626953 C4250.26504,97.6699219 4250.26504,69.0970052 4250.26504,30.9082031 C4250.26504,28.8476563 4250.95189,27.061849 4252.32559,25.5507812 C4253.83665,24.1770833 4255.62246,23.4902344 4257.68301,23.4902344 C4259.74355,23.4902344 4261.46068,24.1770833 4262.83438,25.5507812 C4264.34544,27.061849 4265.10098,28.8476563 4265.10098,30.9082031 C4265.10098,50.0026042 4265.10098,78.5755208 4265.10098,116.626953 C4265.10098,120.061198 4264.75755,123.770182 4264.0707,127.753906 C4263.24648,131.60026 4262.07884,135.446615 4260.56777,139.292969 C4257.54564,146.298828 4252.94375,152.480469 4246.76211,157.837891 C4240.4431,163.057943 4232.13223,165.667969 4221.82949,165.667969 C4216.19733,165.667969 4211.18333,164.84375 4206.7875,163.195313 C4202.52904,161.546875 4198.75137,159.348958 4195.45449,156.601562 C4189.41022,151.51888 4185.08307,145.19987 4182.47305,137.644531 C4179.72565,130.089193 4178.35195,123.083333 4178.35195,116.626953 Z M4168.77578,35.0292969 C4168.91315,35.0292969 4169.05052,35.0292969 4169.18789,35.0292969 C4169.46263,35.0292969 4169.66868,34.960612 4169.80605,34.8232422 C4169.80605,40.867513 4169.80605,49.8652344 4169.80605,61.8164062 C4169.25658,61.8164062 4168.56973,61.8164062 4167.74551,61.8164062 C4167.74551,55.9095052 4167.74551,46.9117839 4167.74551,34.8232422 C4167.88288,34.960612 4168.02025,35.0292969 4168.15762,35.0292969 C4168.29499,35.0292969 4168.50104,35.0292969 4168.77578,35.0292969 Z M4167.74551,63.8769531 C4167.74551,63.4648438 4167.74551,62.7779948 4167.74551,61.8164062 C4167.19603,61.8164062 4166.50918,61.8164062 4165.68496,61.8164062 C4166.37181,64.4264323 4167.40208,68.2727865 4168.77578,73.3554688 C4169.46263,70.7454427 4170.4929,66.8990885 4171.8666,61.8164062 C4171.31712,61.8164062 4170.63027,61.8164062 4169.80605,61.8164062 C4169.80605,62.3658854 4169.80605,63.0527344 4169.80605,63.8769531 C4169.25658,63.8769531 4168.56973,63.8769531 4167.74551,63.8769531 Z M4167.74551,63.8769531 C4168.15762,63.8769531 4168.84447,63.8769531 4169.80605,63.8769531 C4169.80605,63.4648438 4169.80605,62.7779948 4169.80605,61.8164062 C4169.25658,61.8164062 4168.56973,61.8164062 4167.74551,61.8164062 C4167.74551,62.3658854 4167.74551,63.0527344 4167.74551,63.8769531 Z M4164.86074,30.4960938 C4164.86074,31.4576823 4165.13548,32.281901 4165.68496,32.96875 C4166.23444,33.655599 4166.92129,34.1363932 4167.74551,34.4111328 C4167.74551,34.5485026 4167.74551,34.6858724 4167.74551,34.8232422 C4166.64655,34.6858724 4165.82233,34.2050781 4165.27285,33.3808594 C4164.586,32.5566406 4164.24258,31.5950521 4164.24258,30.4960938 C4164.24258,29.2597656 4164.65469,28.2294922 4165.47891,27.4052734 C4166.44049,26.5810547 4167.53945,26.1689453 4168.77578,26.1689453 C4170.01211,26.1689453 4171.04238,26.5810547 4171.8666,27.4052734 C4172.82819,28.2294922 4173.30898,29.2597656 4173.30898,30.4960938 C4173.30898,31.5950521 4172.96556,32.5566406 4172.27871,33.3808594 C4171.59186,34.2050781 4170.76764,34.6858724 4169.80605,34.8232422 C4169.80605,34.8232422 4169.80605,34.6858724 4169.80605,34.4111328 C4170.63027,34.1363932 4171.31712,33.655599 4171.8666,32.96875 C4172.41608,32.281901 4172.69082,31.4576823 4172.69082,30.4960938 C4172.69082,29.3971354 4172.27871,28.5042318 4171.45449,27.8173828 C4170.76764,26.9931641 4169.87474,26.5810547 4168.77578,26.5810547 C4167.67682,26.5810547 4166.71523,26.9931641 4165.89102,27.8173828 C4165.20417,28.5042318 4164.86074,29.3971354 4164.86074,30.4960938 Z M4169.80605,34.8232422 C4169.66868,34.960612 4169.46263,35.0292969 4169.18789,35.0292969 C4169.05052,35.0292969 4168.91315,35.0292969 4168.77578,35.0292969 C4168.50104,35.0292969 4168.29499,35.0292969 4168.15762,35.0292969 C4168.02025,35.0292969 4167.88288,34.960612 4167.74551,34.8232422 C4167.74551,34.8232422 4167.74551,34.6858724 4167.74551,34.4111328 C4167.88288,34.4111328 4168.02025,34.4111328 4168.15762,34.4111328 C4168.29499,34.5485026 4168.50104,34.6171875 4168.77578,34.6171875 C4168.91315,34.6171875 4169.05052,34.5485026 4169.18789,34.4111328 C4169.46263,34.4111328 4169.66868,34.4111328 4169.80605,34.4111328 C4169.80605,34.4111328 4169.80605,34.4798177 4169.80605,34.6171875 C4169.80605,34.7545573 4169.80605,34.8232422 4169.80605,34.8232422 Z M4172.69082,30.4960938 C4172.69082,31.4576823 4172.41608,32.281901 4171.8666,32.96875 C4171.31712,33.655599 4170.63027,34.1363932 4169.80605,34.4111328 C4169.80605,34.273763 4169.80605,34.0677083 4169.80605,33.7929688 C4170.4929,33.655599 4171.04238,33.2434896 4171.45449,32.5566406 C4171.8666,32.0071615 4172.07266,31.3203125 4172.07266,30.4960938 C4172.07266,29.5345052 4171.79792,28.7789714 4171.24844,28.2294922 C4170.56159,27.5426432 4169.73737,27.1992188 4168.77578,27.1992188 C4167.81419,27.1992188 4166.98997,27.5426432 4166.30313,28.2294922 C4165.61628,28.7789714 4165.27285,29.5345052 4165.27285,30.4960938 C4165.27285,30.358724 4165.27285,30.2213542 4165.27285,30.0839844 C4165.27285,30.0839844 4165.27285,30.0839844 4165.27285,30.0839844 C4165.27285,30.0839844 4165.27285,30.0839844 4165.27285,30.0839844 C4165.27285,30.2213542 4165.27285,30.358724 4165.27285,30.4960938 C4165.27285,30.7708333 4165.27285,30.9082031 4165.27285,30.9082031 C4165.27285,31.0455729 4165.27285,31.1142578 4165.27285,31.1142578 C4165.27285,31.1142578 4165.27285,31.0455729 4165.27285,30.9082031 C4165.27285,30.9082031 4165.27285,30.7708333 4165.27285,30.4960938 C4165.27285,31.3203125 4165.47891,32.0071615 4165.89102,32.5566406 C4166.44049,33.2434896 4167.05866,33.655599 4167.74551,33.7929688 C4167.74551,33.9303385 4167.74551,34.1363932 4167.74551,34.4111328 C4166.92129,34.1363932 4166.23444,33.655599 4165.68496,32.96875 C4165.13548,32.281901 4164.86074,31.4576823 4164.86074,30.4960938 C4164.86074,29.3971354 4165.20417,28.5042318 4165.89102,27.8173828 C4166.71523,26.9931641 4167.67682,26.5810547 4168.77578,26.5810547 C4169.87474,26.5810547 4170.76764,26.9931641 4171.45449,27.8173828 C4172.27871,28.5042318 4172.69082,29.3971354 4172.69082,30.4960938 Z M4168.77578,33.9990234 C4168.91315,33.9990234 4169.05052,33.9990234 4169.18789,33.9990234 C4169.46263,33.9990234 4169.66868,33.9303385 4169.80605,33.7929688 C4169.80605,33.9303385 4169.80605,34.1363932 4169.80605,34.4111328 C4169.66868,34.4111328 4169.46263,34.4111328 4169.18789,34.4111328 C4169.05052,34.5485026 4168.91315,34.6171875 4168.77578,34.6171875 C4168.50104,34.6171875 4168.29499,34.5485026 4168.15762,34.4111328 C4168.02025,34.4111328 4167.88288,34.4111328 4167.74551,34.4111328 C4167.74551,34.273763 4167.74551,34.0677083 4167.74551,33.7929688 C4167.88288,33.9303385 4168.02025,33.9990234 4168.15762,33.9990234 C4168.29499,33.9990234 4168.50104,33.9990234 4168.77578,33.9990234 Z M4157.64883,23.4902344 C4157.7862,23.4902344 4157.85488,23.5589193 4157.85488,23.6962891 C4157.85488,23.6962891 4157.92357,23.764974 4158.06094,23.9023438 C4158.06094,23.9023438 4158.06094,23.9710286 4158.06094,24.1083984 C4158.19831,24.1083984 4158.26699,24.1770833 4158.26699,24.3144531 C4158.26699,26.1002604 4158.26699,28.2294922 4158.26699,30.7021484 C4158.26699,33.3121745 4158.26699,36.265625 4158.26699,39.5625 C4158.26699,39.6998698 4158.19831,39.8372396 4158.06094,39.9746094 C4158.06094,40.1119792 4157.99225,40.1806641 4157.85488,40.1806641 C4157.85488,40.3180339 4157.7862,40.3867188 4157.64883,40.3867188 C4157.51146,40.5240885 4157.37409,40.5927734 4157.23672,40.5927734 C4157.09935,40.5927734 4157.03066,40.5240885 4157.03066,40.3867188 C4156.89329,40.3867188 4156.75592,40.3180339 4156.61855,40.1806641 C4156.61855,40.1806641 4156.54987,40.1119792 4156.4125,39.9746094 C4156.4125,39.8372396 4156.4125,39.6998698 4156.4125,39.5625 C4156.4125,38.1888021 4156.4125,36.4029948 4156.4125,34.2050781 C4156.4125,32.0071615 4156.4125,29.4658203 4156.4125,26.5810547 C4156.27513,26.5810547 4156.20645,26.6497396 4156.20645,26.7871094 C4156.06908,26.9244792 4155.93171,27.061849 4155.79434,27.1992188 C4155.65697,27.1992188 4155.58828,27.2679036 4155.58828,27.4052734 C4155.45091,27.4052734 4155.31354,27.4052734 4155.17617,27.4052734 C4155.0388,27.4052734 4154.90143,27.4052734 4154.76406,27.4052734 C4154.76406,27.2679036 4154.69538,27.1992188 4154.55801,27.1992188 C4154.42064,27.061849 4154.35195,26.9244792 4154.35195,26.7871094 C4154.35195,26.7871094 4154.35195,26.7184245 4154.35195,26.5810547 C4154.35195,26.4436849 4154.35195,26.3063151 4154.35195,26.1689453 C4154.35195,26.0315755 4154.42064,25.9628906 4154.55801,25.9628906 C4154.83275,25.688151 4155.10749,25.3447266 4155.38223,24.9326172 C4155.79434,24.6578776 4156.20645,24.2457682 4156.61855,23.6962891 C4156.75592,23.6962891 4156.82461,23.6276042 4156.82461,23.4902344 C4156.96198,23.4902344 4157.09935,23.4902344 4157.23672,23.4902344 C4157.23672,23.4902344 4157.23672,23.4902344 4157.23672,23.4902344 C4157.23672,23.4902344 4157.23672,23.4902344 4157.23672,23.4902344 C4157.37409,23.4902344 4157.44277,23.4902344 4157.44277,23.4902344 C4157.58014,23.4902344 4157.64883,23.4902344 4157.64883,23.4902344 Z" transform="translate(-4161.5 -23.734)"/></svg>