<svg xmlns="http://www.w3.org/2000/svg" width="95" height="243" viewBox="0 0 95 243"><path fill="#131313" d="M91.7089844,80 C93.9550781,80 95.9016927,80.7486979 97.5488281,82.2460938 C99.1959635,83.8932292 100.019531,85.8398438 100.019531,88.0859375 C100.019531,92.4283854 100.019531,98.9420573 100.019531,107.626953 C100.019531,111.220703 100.019531,116.536458 100.019531,123.574219 C100.019531,131.061198 100.019531,142.366536 100.019531,157.490234 C100.019531,159.736328 99.1959635,161.682943 97.5488281,163.330078 C95.9016927,164.827474 93.9550781,165.576172 91.7089844,165.576172 C89.4628906,165.576172 87.5911458,164.827474 86.09375,163.330078 C84.4466146,161.682943 83.6230469,159.736328 83.6230469,157.490234 C83.6230469,157.190755 83.6230469,156.666667 83.6230469,155.917969 C79.8795573,158.91276 75.686849,161.233724 71.0449219,162.880859 C66.2532552,164.677734 61.0872396,165.576172 55.546875,165.576172 C50.15625,165.576172 45.6640625,164.827474 42.0703125,163.330078 C38.4765625,161.832682 35.5566406,159.886068 33.3105469,157.490234 C29.1178385,152.998047 26.7220052,147.832031 26.1230469,141.992188 C25.374349,136.152344 25,131.510417 25,128.066406 C25,119.231771 25,105.904948 25,88.0859375 C25,85.8398438 25.8235677,83.8932292 27.4707031,82.2460938 C28.968099,80.7486979 30.8398438,80 33.0859375,80 C35.3320312,80 37.2786458,80.7486979 38.9257812,82.2460938 C40.4231771,83.8932292 41.171875,85.8398438 41.171875,88.0859375 C41.171875,96.9205729 41.171875,110.247396 41.171875,128.066406 C41.171875,136.451823 42.1451823,142.067057 44.0917969,144.912109 C46.188151,147.906901 50.0065104,149.404297 55.546875,149.404297 C62.1354167,149.404297 68.499349,147.008464 74.6386719,142.216797 C80.6282552,137.42513 83.6230469,131.210938 83.6230469,123.574219 C83.6230469,119.980469 83.6230469,114.664714 83.6230469,107.626953 C83.6230469,103.284505 83.6230469,96.7708333 83.6230469,88.0859375 C83.6230469,85.8398438 84.4466146,83.8932292 86.09375,82.2460938 C87.5911458,80.7486979 89.4628906,80 91.7089844,80 Z M73.8964844,98.1933594 C74.046224,98.1933594 74.1959635,98.1933594 74.3457031,98.1933594 C74.6451823,98.1933594 74.8697917,98.1933594 75.0195312,98.1933594 C75.1692708,98.1933594 75.3938802,98.1933594 75.6933594,98.1933594 C75.843099,98.1933594 75.9928385,98.1933594 76.1425781,98.1933594 C76.1425781,101.038411 76.1425781,105.455729 76.1425781,111.445312 C75.6933594,111.445312 74.9446615,111.445312 73.8964844,111.445312 C73.8964844,109.199219 73.8964844,106.953125 73.8964844,104.707031 C73.8964844,102.460938 73.8964844,100.289714 73.8964844,98.1933594 Z M76.1425781,113.691406 C76.1425781,113.242188 76.1425781,112.49349 76.1425781,111.445312 C76.5917969,111.445312 77.3404948,111.445312 78.3886719,111.445312 C77.639974,114.290365 76.5169271,118.483073 75.0195312,124.023438 C74.2708333,121.178385 73.1477865,116.985677 71.6503906,111.445312 C72.0996094,111.445312 72.8483073,111.445312 73.8964844,111.445312 C73.8964844,111.894531 73.8964844,112.643229 73.8964844,113.691406 C74.3457031,113.691406 75.094401,113.691406 76.1425781,113.691406 Z M73.8964844,111.445312 C74.3457031,111.445312 75.094401,111.445312 76.1425781,111.445312 C76.1425781,111.894531 76.1425781,112.643229 76.1425781,113.691406 C75.6933594,113.691406 74.9446615,113.691406 73.8964844,113.691406 C73.8964844,113.242188 73.8964844,112.49349 73.8964844,111.445312 Z M75.0195312,88.5351562 C76.3671875,88.5351562 77.4902344,88.984375 78.3886719,89.8828125 C79.436849,90.78125 79.9609375,91.9042969 79.9609375,93.2519531 C79.9609375,94.4498698 79.5865885,95.4980469 78.8378906,96.3964844 C78.0891927,97.2949219 77.1907552,97.8938802 76.1425781,98.1933594 C76.1425781,98.0436198 76.1425781,97.8190104 76.1425781,97.5195312 C77.0410156,97.2200521 77.7897135,96.6959635 78.3886719,95.9472656 C78.9876302,95.1985677 79.2871094,94.3001302 79.2871094,93.2519531 C79.2871094,92.0540365 78.9127604,91.0807292 78.1640625,90.3320312 C77.265625,89.4335938 76.2174479,88.984375 75.0195312,88.984375 C73.8216146,88.984375 72.7734375,89.4335938 71.875,90.3320312 C71.1263021,91.0807292 70.7519531,92.0540365 70.7519531,93.2519531 C70.7519531,94.3001302 71.0514323,95.1985677 71.6503906,95.9472656 C72.249349,96.6959635 72.9980469,97.2200521 73.8964844,97.5195312 C73.8964844,97.6692708 73.8964844,97.8938802 73.8964844,98.1933594 C72.8483073,97.8938802 71.9498698,97.2949219 71.2011719,96.3964844 C70.452474,95.4980469 70.078125,94.4498698 70.078125,93.2519531 C70.078125,91.9042969 70.6022135,90.78125 71.6503906,89.8828125 C72.5488281,88.984375 73.671875,88.5351562 75.0195312,88.5351562 Z M75.0195312,97.7441406 C75.1692708,97.7441406 75.3938802,97.6692708 75.6933594,97.5195312 C75.843099,97.5195312 75.9928385,97.5195312 76.1425781,97.5195312 C76.1425781,97.6692708 76.1425781,97.8938802 76.1425781,98.1933594 C75.9928385,98.1933594 75.843099,98.1933594 75.6933594,98.1933594 C75.3938802,98.1933594 75.1692708,98.1933594 75.0195312,98.1933594 C74.8697917,98.1933594 74.6451823,98.1933594 74.3457031,98.1933594 C74.1959635,98.1933594 74.046224,98.1933594 73.8964844,98.1933594 C73.8964844,98.0436198 73.8964844,97.8190104 73.8964844,97.5195312 C74.046224,97.5195312 74.1959635,97.5195312 74.3457031,97.5195312 C74.6451823,97.6692708 74.8697917,97.7441406 75.0195312,97.7441406 Z M71.2011719,93.2519531 C71.2011719,94.1503906 71.500651,94.8990885 72.0996094,95.4980469 C72.5488281,96.2467448 73.1477865,96.6959635 73.8964844,96.8457031 C73.8964844,96.9954427 73.8964844,97.2200521 73.8964844,97.5195312 C72.9980469,97.2200521 72.249349,96.6959635 71.6503906,95.9472656 C71.0514323,95.1985677 70.7519531,94.3001302 70.7519531,93.2519531 C70.7519531,92.0540365 71.1263021,91.0807292 71.875,90.3320312 C72.7734375,89.4335938 73.8216146,88.984375 75.0195312,88.984375 C76.2174479,88.984375 77.265625,89.4335938 78.1640625,90.3320312 C78.9127604,91.0807292 79.2871094,92.0540365 79.2871094,93.2519531 C79.2871094,94.3001302 78.9876302,95.1985677 78.3886719,95.9472656 C77.7897135,96.6959635 77.0410156,97.2200521 76.1425781,97.5195312 C76.1425781,97.3697917 76.1425781,97.1451823 76.1425781,96.8457031 C76.891276,96.6959635 77.4902344,96.2467448 77.9394531,95.4980469 C78.5384115,94.8990885 78.8378906,94.1503906 78.8378906,93.2519531 C78.8378906,92.3535156 78.4635417,91.5299479 77.7148438,90.78125 C76.9661458,90.0325521 76.0677083,89.6582031 75.0195312,89.6582031 C73.9713542,89.6582031 73.0729167,90.0325521 72.3242188,90.78125 C71.5755208,91.5299479 71.2011719,92.3535156 71.2011719,93.2519531 C71.2011719,93.1022135 71.2011719,92.952474 71.2011719,92.8027344 C71.2011719,92.8027344 71.2011719,92.8027344 71.2011719,92.8027344 C71.2011719,92.8027344 71.2011719,92.8027344 71.2011719,92.8027344 C71.2011719,92.952474 71.2011719,93.1022135 71.2011719,93.2519531 C71.2011719,93.5514323 71.2011719,93.7011719 71.2011719,93.7011719 C71.2011719,93.8509115 71.2011719,93.9257812 71.2011719,93.9257812 C71.2011719,93.9257812 71.2011719,93.8509115 71.2011719,93.7011719 C71.2011719,93.7011719 71.2011719,93.5514323 71.2011719,93.2519531 Z M76.1425781,97.5195312 C75.9928385,97.5195312 75.843099,97.5195312 75.6933594,97.5195312 C75.3938802,97.6692708 75.1692708,97.7441406 75.0195312,97.7441406 C74.8697917,97.7441406 74.6451823,97.6692708 74.3457031,97.5195312 C74.1959635,97.5195312 74.046224,97.5195312 73.8964844,97.5195312 C73.8964844,97.3697917 73.8964844,97.1451823 73.8964844,96.8457031 C74.046224,96.9954427 74.1959635,97.0703125 74.3457031,97.0703125 C74.6451823,97.0703125 74.8697917,97.0703125 75.0195312,97.0703125 C75.1692708,97.0703125 75.3938802,97.0703125 75.6933594,97.0703125 C75.843099,97.0703125 75.9928385,96.9954427 76.1425781,96.8457031 C76.1425781,96.9954427 76.1425781,97.1451823 76.1425781,97.2949219 C76.1425781,97.2949219 76.1425781,97.3697917 76.1425781,97.5195312 Z M17.5195312,128.515625 C17.5195312,141.09375 19.765625,151.126302 24.2578125,158.613281 C28.75,166.10026 35.4882812,170.966797 44.4726562,173.212891 C44.4726562,173.662109 44.3977865,174.410807 44.2480469,175.458984 C40.0553385,174.410807 36.3867188,172.913411 33.2421875,170.966797 C30.2473958,168.870443 27.6269531,166.549479 25.3808594,164.003906 C21.3378906,159.0625 18.6425781,153.372396 17.2949219,146.933594 C15.9472656,140.644531 15.2734375,134.505208 15.2734375,128.515625 C15.2734375,121.777344 15.2734375,111.669922 15.2734375,98.1933594 C15.4231771,98.1933594 15.5729167,98.1933594 15.7226562,98.1933594 C16.0221354,98.1933594 16.2467448,98.1933594 16.3964844,98.1933594 C16.546224,98.1933594 16.6959635,98.1933594 16.8457031,98.1933594 C17.1451823,98.1933594 17.3697917,98.1933594 17.5195312,98.1933594 C17.5195312,103.134766 17.5195312,108.151042 17.5195312,113.242188 C17.5195312,118.333333 17.5195312,123.424479 17.5195312,128.515625 Z M44.4726562,173.212891 C44.4726562,172.763672 44.547526,172.089844 44.6972656,171.191406 C47.3925781,172.239583 51.4355469,173.811849 56.8261719,175.908203 C53.9811198,176.357422 49.7135417,177.03125 44.0234375,177.929688 C44.0234375,177.330729 44.0983073,176.507161 44.2480469,175.458984 C44.547526,175.608724 44.921875,175.683594 45.3710938,175.683594 C45.6705729,175.833333 45.9700521,175.908203 46.2695312,175.908203 C46.4192708,175.458984 46.5690104,174.710286 46.71875,173.662109 C46.4192708,173.662109 46.0449219,173.58724 45.5957031,173.4375 C45.296224,173.4375 44.921875,173.36263 44.4726562,173.212891 Z M46.71875,173.662109 C46.71875,174.261068 46.5690104,175.009766 46.2695312,175.908203 C45.9700521,175.908203 45.6705729,175.833333 45.3710938,175.683594 C44.921875,175.683594 44.547526,175.608724 44.2480469,175.458984 C44.2480469,175.009766 44.3229167,174.261068 44.4726562,173.212891 C44.921875,173.36263 45.296224,173.4375 45.5957031,173.4375 C46.0449219,173.58724 46.4192708,173.662109 46.71875,173.662109 Z M12.1289062,93.2519531 C12.1289062,94.3001302 12.4283854,95.1985677 13.0273438,95.9472656 C13.6263021,96.6959635 14.375,97.2200521 15.2734375,97.5195312 C15.2734375,97.6692708 15.2734375,97.8938802 15.2734375,98.1933594 C14.2252604,97.8938802 13.3268229,97.2949219 12.578125,96.3964844 C11.8294271,95.4980469 11.4550781,94.4498698 11.4550781,93.2519531 C11.4550781,91.9042969 11.9042969,90.78125 12.8027344,89.8828125 C13.8509115,88.984375 15.0488281,88.5351562 16.3964844,88.5351562 C17.7441406,88.5351562 18.8671875,88.984375 19.765625,89.8828125 C20.8138021,90.78125 21.3378906,91.9042969 21.3378906,93.2519531 C21.3378906,94.4498698 20.9635417,95.4980469 20.2148438,96.3964844 C19.4661458,97.2949219 18.5677083,97.8938802 17.5195312,98.1933594 C17.5195312,98.0436198 17.5195312,97.8190104 17.5195312,97.5195312 C18.4179688,97.2200521 19.1666667,96.6959635 19.765625,95.9472656 C20.3645833,95.1985677 20.6640625,94.3001302 20.6640625,93.2519531 C20.6640625,92.0540365 20.2148438,91.0807292 19.3164062,90.3320312 C18.5677083,89.4335938 17.594401,88.984375 16.3964844,88.984375 C15.1985677,88.984375 14.1503906,89.4335938 13.2519531,90.3320312 C12.5032552,91.0807292 12.1289062,92.0540365 12.1289062,93.2519531 Z M17.5195312,98.1933594 C17.3697917,98.1933594 17.1451823,98.1933594 16.8457031,98.1933594 C16.6959635,98.1933594 16.546224,98.1933594 16.3964844,98.1933594 C16.2467448,98.1933594 16.0221354,98.1933594 15.7226562,98.1933594 C15.5729167,98.1933594 15.4231771,98.1933594 15.2734375,98.1933594 C15.2734375,98.0436198 15.2734375,97.8190104 15.2734375,97.5195312 C15.4231771,97.5195312 15.5729167,97.5195312 15.7226562,97.5195312 C16.0221354,97.6692708 16.2467448,97.7441406 16.3964844,97.7441406 C16.546224,97.7441406 16.6959635,97.6692708 16.8457031,97.5195312 C17.1451823,97.5195312 17.3697917,97.5195312 17.5195312,97.5195312 C17.5195312,97.6692708 17.5195312,97.7441406 17.5195312,97.7441406 C17.5195312,97.8938802 17.5195312,98.0436198 17.5195312,98.1933594 Z M20.6640625,93.2519531 C20.6640625,94.3001302 20.3645833,95.1985677 19.765625,95.9472656 C19.1666667,96.6959635 18.4179688,97.2200521 17.5195312,97.5195312 C17.5195312,97.3697917 17.5195312,97.1451823 17.5195312,96.8457031 C18.2682292,96.6959635 18.8671875,96.2467448 19.3164062,95.4980469 C19.9153646,94.8990885 20.2148438,94.1503906 20.2148438,93.2519531 C20.2148438,92.3535156 19.8404948,91.5299479 19.0917969,90.78125 C18.343099,90.0325521 17.4446615,89.6582031 16.3964844,89.6582031 C15.3483073,89.6582031 14.4498698,90.0325521 13.7011719,90.78125 C12.952474,91.5299479 12.578125,92.3535156 12.578125,93.2519531 C12.578125,93.1022135 12.578125,92.952474 12.578125,92.8027344 C12.578125,92.8027344 12.578125,92.8027344 12.578125,92.8027344 C12.578125,92.8027344 12.578125,92.8027344 12.578125,92.8027344 C12.578125,92.952474 12.578125,93.1022135 12.578125,93.2519531 C12.578125,93.5514323 12.578125,93.7011719 12.578125,93.7011719 C12.578125,93.8509115 12.578125,93.9257812 12.578125,93.9257812 C12.578125,93.9257812 12.578125,93.8509115 12.578125,93.7011719 C12.578125,93.7011719 12.578125,93.5514323 12.578125,93.2519531 C12.578125,94.1503906 12.8027344,94.8990885 13.2519531,95.4980469 C13.8509115,96.2467448 14.5247396,96.6959635 15.2734375,96.8457031 C15.2734375,96.9954427 15.2734375,97.2200521 15.2734375,97.5195312 C14.375,97.2200521 13.6263021,96.6959635 13.0273438,95.9472656 C12.4283854,95.1985677 12.1289062,94.3001302 12.1289062,93.2519531 C12.1289062,92.0540365 12.5032552,91.0807292 13.2519531,90.3320312 C14.1503906,89.4335938 15.1985677,88.984375 16.3964844,88.984375 C17.594401,88.984375 18.5677083,89.4335938 19.3164062,90.3320312 C20.2148438,91.0807292 20.6640625,92.0540365 20.6640625,93.2519531 Z M16.3964844,97.0703125 C16.546224,97.0703125 16.6959635,97.0703125 16.8457031,97.0703125 C17.1451823,97.0703125 17.3697917,96.9954427 17.5195312,96.8457031 C17.5195312,96.9954427 17.5195312,97.2200521 17.5195312,97.5195312 C17.3697917,97.5195312 17.1451823,97.5195312 16.8457031,97.5195312 C16.6959635,97.6692708 16.546224,97.7441406 16.3964844,97.7441406 C16.2467448,97.7441406 16.0221354,97.6692708 15.7226562,97.5195312 C15.5729167,97.5195312 15.4231771,97.5195312 15.2734375,97.5195312 C15.2734375,97.3697917 15.2734375,97.1451823 15.2734375,96.8457031 C15.4231771,96.9954427 15.5729167,97.0703125 15.7226562,97.0703125 C15.8723958,97.0703125 16.0970052,97.0703125 16.3964844,97.0703125 Z M3.81835938,92.578125 C3.81835938,92.578125 3.89322917,92.6529948 4.04296875,92.8027344 C4.04296875,92.8027344 4.11783854,92.8776042 4.26757812,93.0273438 C4.26757812,93.0273438 4.26757812,93.1022135 4.26757812,93.2519531 C4.26757812,93.2519531 4.26757812,93.3268229 4.26757812,93.4765625 C4.26757812,95.4231771 4.26757812,97.7441406 4.26757812,100.439453 C4.26757812,103.284505 4.26757812,106.503906 4.26757812,110.097656 C4.26757812,110.247396 4.26757812,110.397135 4.26757812,110.546875 C4.26757812,110.696615 4.19270833,110.771484 4.04296875,110.771484 C3.89322917,110.921224 3.81835938,110.996094 3.81835938,110.996094 C3.66861979,111.145833 3.51888021,111.220703 3.36914062,111.220703 C3.21940104,111.220703 3.06966146,111.145833 2.91992188,110.996094 C2.91992188,110.996094 2.84505208,110.921224 2.6953125,110.771484 C2.54557292,110.771484 2.47070312,110.696615 2.47070312,110.546875 C2.47070312,110.397135 2.47070312,110.247396 2.47070312,110.097656 C2.47070312,108.60026 2.47070312,106.653646 2.47070312,104.257812 C2.47070312,101.861979 2.47070312,99.0917969 2.47070312,95.9472656 C2.32096354,95.9472656 2.17122396,96.0221354 2.02148438,96.171875 C2.02148438,96.3216146 1.94661458,96.4713542 1.796875,96.6210938 C1.64713542,96.6210938 1.49739583,96.6959635 1.34765625,96.8457031 C1.19791667,96.8457031 1.12304688,96.8457031 1.12304688,96.8457031 C0.973307292,96.8457031 0.823567708,96.8457031 0.673828125,96.8457031 C0.524088542,96.6959635 0.44921875,96.6210938 0.44921875,96.6210938 C0.299479167,96.4713542 0.224609375,96.3216146 0.224609375,96.171875 C0.0748697917,96.0221354 0,95.9472656 0,95.9472656 C0,95.797526 0.0748697917,95.6477865 0.224609375,95.4980469 C0.224609375,95.3483073 0.299479167,95.2734375 0.44921875,95.2734375 C0.598958333,94.9739583 0.8984375,94.5996094 1.34765625,94.1503906 C1.796875,93.8509115 2.24609375,93.4016927 2.6953125,92.8027344 C2.6953125,92.8027344 2.77018229,92.7278646 2.91992188,92.578125 C3.06966146,92.578125 3.14453125,92.578125 3.14453125,92.578125 C3.14453125,92.578125 3.21940104,92.578125 3.36914062,92.578125 C3.36914062,92.578125 3.36914062,92.578125 3.36914062,92.578125 C3.51888021,92.578125 3.59375,92.578125 3.59375,92.578125 C3.59375,92.578125 3.66861979,92.578125 3.81835938,92.578125 Z M66.484375,109.873047 C66.6341146,109.873047 66.7838542,109.873047 66.9335938,109.873047 C66.9335938,110.022786 67.0084635,110.097656 67.1582031,110.097656 C67.3079427,110.247396 67.3828125,110.397135 67.3828125,110.546875 C67.3828125,110.696615 67.3828125,110.771484 67.3828125,110.771484 C67.3828125,110.921224 67.3828125,111.070964 67.3828125,111.220703 C67.3828125,111.370443 67.3079427,111.520182 67.1582031,111.669922 C67.0084635,111.669922 66.9335938,111.669922 66.9335938,111.669922 C66.7838542,111.819661 66.6341146,111.894531 66.484375,111.894531 C65.7356771,111.894531 64.9121094,111.894531 64.0136719,111.894531 C63.264974,111.894531 62.516276,111.894531 61.7675781,111.894531 C61.0188802,111.894531 60.2701823,111.894531 59.5214844,111.894531 C58.6230469,111.894531 57.7994792,111.894531 57.0507812,111.894531 C57.0507812,111.894531 56.9759115,111.894531 56.8261719,111.894531 C56.8261719,111.894531 56.7513021,111.819661 56.6015625,111.669922 C56.6015625,111.669922 56.6015625,111.669922 56.6015625,111.669922 C56.4518229,111.669922 56.3769531,111.595052 56.3769531,111.445312 C56.3769531,111.445312 56.3020833,111.445312 56.1523438,111.445312 C56.1523438,111.295573 56.1523438,111.220703 56.1523438,111.220703 C56.1523438,111.220703 56.1523438,111.145833 56.1523438,110.996094 C56.1523438,110.996094 56.1523438,110.921224 56.1523438,110.771484 C56.1523438,110.771484 56.1523438,110.771484 56.1523438,110.771484 C56.1523438,110.771484 56.1523438,110.771484 56.1523438,110.771484 C56.1523438,110.771484 56.1523438,110.621745 56.1523438,110.322266 C56.3020833,110.172526 56.3769531,109.873047 56.3769531,109.423828 C56.5266927,108.974609 56.6764323,108.450521 56.8261719,107.851562 C57.125651,107.402344 57.4251302,106.878255 57.7246094,106.279297 C58.0240885,105.979818 58.2486979,105.680339 58.3984375,105.380859 C58.6979167,105.08138 58.9973958,104.781901 59.296875,104.482422 C59.5963542,104.182943 59.8958333,103.883464 60.1953125,103.583984 C60.4947917,103.284505 60.8691406,103.059896 61.3183594,102.910156 C62.2167969,102.311198 62.890625,101.787109 63.3398438,101.337891 C63.9388021,100.888672 64.313151,100.514323 64.4628906,100.214844 C64.7623698,99.765625 64.9869792,99.391276 65.1367188,99.0917969 C65.1367188,98.6425781 65.1367188,98.2682292 65.1367188,97.96875 C65.1367188,97.96875 65.1367188,97.8938802 65.1367188,97.7441406 C65.1367188,97.594401 65.1367188,97.5195312 65.1367188,97.5195312 C65.1367188,97.3697917 65.1367188,97.2200521 65.1367188,97.0703125 C65.1367188,96.9205729 65.061849,96.8457031 64.9121094,96.8457031 C64.9121094,96.546224 64.8372396,96.3216146 64.6875,96.171875 C64.3880208,96.0221354 64.1634115,95.8723958 64.0136719,95.7226562 C63.7141927,95.5729167 63.4147135,95.4231771 63.1152344,95.2734375 C62.6660156,95.2734375 62.2167969,95.2734375 61.7675781,95.2734375 C61.468099,95.2734375 61.1686198,95.2734375 60.8691406,95.2734375 C60.4199219,95.4231771 60.1204427,95.5729167 59.9707031,95.7226562 C59.671224,95.8723958 59.4466146,96.0221354 59.296875,96.171875 C58.9973958,96.4713542 58.7727865,96.7708333 58.6230469,97.0703125 C58.6230469,97.2200521 58.5481771,97.2949219 58.3984375,97.2949219 C58.3984375,97.4446615 58.3235677,97.5195312 58.1738281,97.5195312 C58.0240885,97.6692708 57.874349,97.7441406 57.7246094,97.7441406 C57.5748698,97.594401 57.4251302,97.5195312 57.2753906,97.5195312 C57.2753906,97.5195312 57.2005208,97.4446615 57.0507812,97.2949219 C57.0507812,97.2949219 56.9759115,97.2200521 56.8261719,97.0703125 C56.8261719,96.9205729 56.8261719,96.7708333 56.8261719,96.6210938 C56.8261719,96.4713542 56.8261719,96.3216146 56.8261719,96.171875 C57.125651,95.7226562 57.4251302,95.3483073 57.7246094,95.0488281 C58.0240885,94.5996094 58.3984375,94.2252604 58.8476562,93.9257812 C59.296875,93.7760417 59.7460938,93.6263021 60.1953125,93.4765625 C60.6445312,93.3268229 61.1686198,93.2519531 61.7675781,93.2519531 C62.8157552,93.2519531 63.6393229,93.4016927 64.2382812,93.7011719 C64.9869792,93.8509115 65.5859375,94.2252604 66.0351562,94.8242188 C66.3346354,95.2734375 66.6341146,95.797526 66.9335938,96.3964844 C67.0833333,96.9954427 67.1582031,97.594401 67.1582031,98.1933594 C67.1582031,98.7923177 67.0833333,99.3164062 66.9335938,99.765625 C66.7838542,100.364583 66.484375,100.888672 66.0351562,101.337891 C65.7356771,101.936849 65.2864583,102.460938 64.6875,102.910156 C64.0885417,103.509115 63.3398438,104.033203 62.4414062,104.482422 C61.6927083,104.931641 61.09375,105.380859 60.6445312,105.830078 C60.1953125,106.279297 59.8209635,106.803385 59.5214844,107.402344 C59.2220052,107.851562 58.9973958,108.300781 58.8476562,108.75 C58.5481771,109.199219 58.3235677,109.573568 58.1738281,109.873047 C59.2220052,109.873047 60.4199219,109.873047 61.7675781,109.873047 C63.1152344,109.873047 64.6875,109.873047 66.484375,109.873047 Z" transform="translate(-15)"/></svg>