<svg xmlns="http://www.w3.org/2000/svg" width="243" height="243" viewBox="0 0 243 243"><path fill="#131313" d="M150.708984,80 C152.955078,80 154.901693,80.7486979 156.548828,82.2460938 C158.195964,83.8932292 159.019531,85.8398438 159.019531,88.0859375 C159.019531,92.4283854 159.019531,98.9420573 159.019531,107.626953 C159.019531,111.220703 159.019531,116.536458 159.019531,123.574219 C159.019531,131.061198 159.019531,142.366536 159.019531,157.490234 C159.019531,159.736328 158.195964,161.682943 156.548828,163.330078 C154.901693,164.827474 152.955078,165.576172 150.708984,165.576172 C148.462891,165.576172 146.591146,164.827474 145.09375,163.330078 C143.446615,161.682943 142.623047,159.736328 142.623047,157.490234 C142.623047,157.190755 142.623047,156.666667 142.623047,155.917969 C138.879557,158.91276 134.686849,161.233724 130.044922,162.880859 C125.253255,164.677734 120.08724,165.576172 114.546875,165.576172 C109.15625,165.576172 104.664062,164.827474 101.070312,163.330078 C97.4765625,161.832682 94.5566406,159.886068 92.3105469,157.490234 C88.1178385,152.998047 85.7220052,147.832031 85.1230469,141.992188 C84.374349,136.152344 84,131.510417 84,128.066406 C84,119.231771 84,105.904948 84,88.0859375 C84,85.8398438 84.8235677,83.8932292 86.4707031,82.2460938 C87.968099,80.7486979 89.8398438,80 92.0859375,80 C94.3320312,80 96.2786458,80.7486979 97.9257812,82.2460938 C99.4231771,83.8932292 100.171875,85.8398438 100.171875,88.0859375 C100.171875,96.9205729 100.171875,110.247396 100.171875,128.066406 C100.171875,136.451823 101.145182,142.067057 103.091797,144.912109 C105.188151,147.906901 109.00651,149.404297 114.546875,149.404297 C121.135417,149.404297 127.499349,147.008464 133.638672,142.216797 C139.628255,137.42513 142.623047,131.210938 142.623047,123.574219 C142.623047,119.980469 142.623047,114.664714 142.623047,107.626953 C142.623047,103.284505 142.623047,96.7708333 142.623047,88.0859375 C142.623047,85.8398438 143.446615,83.8932292 145.09375,82.2460938 C146.591146,80.7486979 148.462891,80 150.708984,80 Z M132.896484,98.1933594 C133.046224,98.1933594 133.195964,98.1933594 133.345703,98.1933594 C133.645182,98.1933594 133.869792,98.1933594 134.019531,98.1933594 C134.169271,98.1933594 134.39388,98.1933594 134.693359,98.1933594 C134.843099,98.1933594 134.992839,98.1933594 135.142578,98.1933594 C135.142578,101.038411 135.142578,105.455729 135.142578,111.445312 C134.693359,111.445312 133.944661,111.445312 132.896484,111.445312 C132.896484,109.199219 132.896484,106.953125 132.896484,104.707031 C132.896484,102.460938 132.896484,100.289714 132.896484,98.1933594 Z M135.142578,113.691406 C135.142578,113.242188 135.142578,112.49349 135.142578,111.445312 C135.591797,111.445312 136.340495,111.445312 137.388672,111.445312 C136.639974,114.290365 135.516927,118.483073 134.019531,124.023438 C133.270833,121.178385 132.147786,116.985677 130.650391,111.445312 C131.099609,111.445312 131.848307,111.445312 132.896484,111.445312 C132.896484,111.894531 132.896484,112.643229 132.896484,113.691406 C133.345703,113.691406 134.094401,113.691406 135.142578,113.691406 Z M132.896484,111.445312 C133.345703,111.445312 134.094401,111.445312 135.142578,111.445312 C135.142578,111.894531 135.142578,112.643229 135.142578,113.691406 C134.693359,113.691406 133.944661,113.691406 132.896484,113.691406 C132.896484,113.242188 132.896484,112.49349 132.896484,111.445312 Z M134.019531,88.5351562 C135.367188,88.5351562 136.490234,88.984375 137.388672,89.8828125 C138.436849,90.78125 138.960938,91.9042969 138.960938,93.2519531 C138.960938,94.4498698 138.586589,95.4980469 137.837891,96.3964844 C137.089193,97.2949219 136.190755,97.8938802 135.142578,98.1933594 C135.142578,98.0436198 135.142578,97.8190104 135.142578,97.5195312 C136.041016,97.2200521 136.789714,96.6959635 137.388672,95.9472656 C137.98763,95.1985677 138.287109,94.3001302 138.287109,93.2519531 C138.287109,92.0540365 137.91276,91.0807292 137.164062,90.3320312 C136.265625,89.4335938 135.217448,88.984375 134.019531,88.984375 C132.821615,88.984375 131.773438,89.4335938 130.875,90.3320312 C130.126302,91.0807292 129.751953,92.0540365 129.751953,93.2519531 C129.751953,94.3001302 130.051432,95.1985677 130.650391,95.9472656 C131.249349,96.6959635 131.998047,97.2200521 132.896484,97.5195312 C132.896484,97.6692708 132.896484,97.8938802 132.896484,98.1933594 C131.848307,97.8938802 130.94987,97.2949219 130.201172,96.3964844 C129.452474,95.4980469 129.078125,94.4498698 129.078125,93.2519531 C129.078125,91.9042969 129.602214,90.78125 130.650391,89.8828125 C131.548828,88.984375 132.671875,88.5351562 134.019531,88.5351562 Z M134.019531,97.7441406 C134.169271,97.7441406 134.39388,97.6692708 134.693359,97.5195312 C134.843099,97.5195312 134.992839,97.5195312 135.142578,97.5195312 C135.142578,97.6692708 135.142578,97.8938802 135.142578,98.1933594 C134.992839,98.1933594 134.843099,98.1933594 134.693359,98.1933594 C134.39388,98.1933594 134.169271,98.1933594 134.019531,98.1933594 C133.869792,98.1933594 133.645182,98.1933594 133.345703,98.1933594 C133.195964,98.1933594 133.046224,98.1933594 132.896484,98.1933594 C132.896484,98.0436198 132.896484,97.8190104 132.896484,97.5195312 C133.046224,97.5195312 133.195964,97.5195312 133.345703,97.5195312 C133.645182,97.6692708 133.869792,97.7441406 134.019531,97.7441406 Z M130.201172,93.2519531 C130.201172,94.1503906 130.500651,94.8990885 131.099609,95.4980469 C131.548828,96.2467448 132.147786,96.6959635 132.896484,96.8457031 C132.896484,96.9954427 132.896484,97.2200521 132.896484,97.5195312 C131.998047,97.2200521 131.249349,96.6959635 130.650391,95.9472656 C130.051432,95.1985677 129.751953,94.3001302 129.751953,93.2519531 C129.751953,92.0540365 130.126302,91.0807292 130.875,90.3320312 C131.773438,89.4335938 132.821615,88.984375 134.019531,88.984375 C135.217448,88.984375 136.265625,89.4335938 137.164062,90.3320312 C137.91276,91.0807292 138.287109,92.0540365 138.287109,93.2519531 C138.287109,94.3001302 137.98763,95.1985677 137.388672,95.9472656 C136.789714,96.6959635 136.041016,97.2200521 135.142578,97.5195312 C135.142578,97.3697917 135.142578,97.1451823 135.142578,96.8457031 C135.891276,96.6959635 136.490234,96.2467448 136.939453,95.4980469 C137.538411,94.8990885 137.837891,94.1503906 137.837891,93.2519531 C137.837891,92.3535156 137.463542,91.5299479 136.714844,90.78125 C135.966146,90.0325521 135.067708,89.6582031 134.019531,89.6582031 C132.971354,89.6582031 132.072917,90.0325521 131.324219,90.78125 C130.575521,91.5299479 130.201172,92.3535156 130.201172,93.2519531 C130.201172,93.1022135 130.201172,92.952474 130.201172,92.8027344 C130.201172,92.8027344 130.201172,92.8027344 130.201172,92.8027344 C130.201172,92.8027344 130.201172,92.8027344 130.201172,92.8027344 C130.201172,92.952474 130.201172,93.1022135 130.201172,93.2519531 C130.201172,93.5514323 130.201172,93.7011719 130.201172,93.7011719 C130.201172,93.8509115 130.201172,93.9257812 130.201172,93.9257812 C130.201172,93.9257812 130.201172,93.8509115 130.201172,93.7011719 C130.201172,93.7011719 130.201172,93.5514323 130.201172,93.2519531 Z M135.142578,97.5195312 C134.992839,97.5195312 134.843099,97.5195312 134.693359,97.5195312 C134.39388,97.6692708 134.169271,97.7441406 134.019531,97.7441406 C133.869792,97.7441406 133.645182,97.6692708 133.345703,97.5195312 C133.195964,97.5195312 133.046224,97.5195312 132.896484,97.5195312 C132.896484,97.3697917 132.896484,97.1451823 132.896484,96.8457031 C133.046224,96.9954427 133.195964,97.0703125 133.345703,97.0703125 C133.645182,97.0703125 133.869792,97.0703125 134.019531,97.0703125 C134.169271,97.0703125 134.39388,97.0703125 134.693359,97.0703125 C134.843099,97.0703125 134.992839,96.9954427 135.142578,96.8457031 C135.142578,96.9954427 135.142578,97.1451823 135.142578,97.2949219 C135.142578,97.2949219 135.142578,97.3697917 135.142578,97.5195312 Z M76.5195312,128.515625 C76.5195312,141.09375 78.765625,151.126302 83.2578125,158.613281 C87.75,166.10026 94.4882812,170.966797 103.472656,173.212891 C103.472656,173.662109 103.397786,174.410807 103.248047,175.458984 C99.0553385,174.410807 95.3867188,172.913411 92.2421875,170.966797 C89.2473958,168.870443 86.6269531,166.549479 84.3808594,164.003906 C80.3378906,159.0625 77.6425781,153.372396 76.2949219,146.933594 C74.9472656,140.644531 74.2734375,134.505208 74.2734375,128.515625 C74.2734375,121.777344 74.2734375,111.669922 74.2734375,98.1933594 C74.4231771,98.1933594 74.5729167,98.1933594 74.7226562,98.1933594 C75.0221354,98.1933594 75.2467448,98.1933594 75.3964844,98.1933594 C75.546224,98.1933594 75.6959635,98.1933594 75.8457031,98.1933594 C76.1451823,98.1933594 76.3697917,98.1933594 76.5195312,98.1933594 C76.5195312,103.134766 76.5195312,108.151042 76.5195312,113.242188 C76.5195312,118.333333 76.5195312,123.424479 76.5195312,128.515625 Z M103.472656,173.212891 C103.472656,172.763672 103.547526,172.089844 103.697266,171.191406 C106.392578,172.239583 110.435547,173.811849 115.826172,175.908203 C112.98112,176.357422 108.713542,177.03125 103.023438,177.929688 C103.023438,177.330729 103.098307,176.507161 103.248047,175.458984 C103.547526,175.608724 103.921875,175.683594 104.371094,175.683594 C104.670573,175.833333 104.970052,175.908203 105.269531,175.908203 C105.419271,175.458984 105.56901,174.710286 105.71875,173.662109 C105.419271,173.662109 105.044922,173.58724 104.595703,173.4375 C104.296224,173.4375 103.921875,173.36263 103.472656,173.212891 Z M105.71875,173.662109 C105.71875,174.261068 105.56901,175.009766 105.269531,175.908203 C104.970052,175.908203 104.670573,175.833333 104.371094,175.683594 C103.921875,175.683594 103.547526,175.608724 103.248047,175.458984 C103.248047,175.009766 103.322917,174.261068 103.472656,173.212891 C103.921875,173.36263 104.296224,173.4375 104.595703,173.4375 C105.044922,173.58724 105.419271,173.662109 105.71875,173.662109 Z M71.1289062,93.2519531 C71.1289062,94.3001302 71.4283854,95.1985677 72.0273438,95.9472656 C72.6263021,96.6959635 73.375,97.2200521 74.2734375,97.5195312 C74.2734375,97.6692708 74.2734375,97.8938802 74.2734375,98.1933594 C73.2252604,97.8938802 72.3268229,97.2949219 71.578125,96.3964844 C70.8294271,95.4980469 70.4550781,94.4498698 70.4550781,93.2519531 C70.4550781,91.9042969 70.9042969,90.78125 71.8027344,89.8828125 C72.8509115,88.984375 74.0488281,88.5351562 75.3964844,88.5351562 C76.7441406,88.5351562 77.8671875,88.984375 78.765625,89.8828125 C79.8138021,90.78125 80.3378906,91.9042969 80.3378906,93.2519531 C80.3378906,94.4498698 79.9635417,95.4980469 79.2148438,96.3964844 C78.4661458,97.2949219 77.5677083,97.8938802 76.5195312,98.1933594 C76.5195312,98.0436198 76.5195312,97.8190104 76.5195312,97.5195312 C77.4179688,97.2200521 78.1666667,96.6959635 78.765625,95.9472656 C79.3645833,95.1985677 79.6640625,94.3001302 79.6640625,93.2519531 C79.6640625,92.0540365 79.2148438,91.0807292 78.3164062,90.3320312 C77.5677083,89.4335938 76.594401,88.984375 75.3964844,88.984375 C74.1985677,88.984375 73.1503906,89.4335938 72.2519531,90.3320312 C71.5032552,91.0807292 71.1289062,92.0540365 71.1289062,93.2519531 Z M76.5195312,98.1933594 C76.3697917,98.1933594 76.1451823,98.1933594 75.8457031,98.1933594 C75.6959635,98.1933594 75.546224,98.1933594 75.3964844,98.1933594 C75.2467448,98.1933594 75.0221354,98.1933594 74.7226562,98.1933594 C74.5729167,98.1933594 74.4231771,98.1933594 74.2734375,98.1933594 C74.2734375,98.0436198 74.2734375,97.8190104 74.2734375,97.5195312 C74.4231771,97.5195312 74.5729167,97.5195312 74.7226562,97.5195312 C75.0221354,97.6692708 75.2467448,97.7441406 75.3964844,97.7441406 C75.546224,97.7441406 75.6959635,97.6692708 75.8457031,97.5195312 C76.1451823,97.5195312 76.3697917,97.5195312 76.5195312,97.5195312 C76.5195312,97.6692708 76.5195312,97.7441406 76.5195312,97.7441406 C76.5195312,97.8938802 76.5195312,98.0436198 76.5195312,98.1933594 Z M79.6640625,93.2519531 C79.6640625,94.3001302 79.3645833,95.1985677 78.765625,95.9472656 C78.1666667,96.6959635 77.4179688,97.2200521 76.5195312,97.5195312 C76.5195312,97.3697917 76.5195312,97.1451823 76.5195312,96.8457031 C77.2682292,96.6959635 77.8671875,96.2467448 78.3164062,95.4980469 C78.9153646,94.8990885 79.2148438,94.1503906 79.2148438,93.2519531 C79.2148438,92.3535156 78.8404948,91.5299479 78.0917969,90.78125 C77.343099,90.0325521 76.4446615,89.6582031 75.3964844,89.6582031 C74.3483073,89.6582031 73.4498698,90.0325521 72.7011719,90.78125 C71.952474,91.5299479 71.578125,92.3535156 71.578125,93.2519531 C71.578125,93.1022135 71.578125,92.952474 71.578125,92.8027344 C71.578125,92.8027344 71.578125,92.8027344 71.578125,92.8027344 C71.578125,92.8027344 71.578125,92.8027344 71.578125,92.8027344 C71.578125,92.952474 71.578125,93.1022135 71.578125,93.2519531 C71.578125,93.5514323 71.578125,93.7011719 71.578125,93.7011719 C71.578125,93.8509115 71.578125,93.9257812 71.578125,93.9257812 C71.578125,93.9257812 71.578125,93.8509115 71.578125,93.7011719 C71.578125,93.7011719 71.578125,93.5514323 71.578125,93.2519531 C71.578125,94.1503906 71.8027344,94.8990885 72.2519531,95.4980469 C72.8509115,96.2467448 73.5247396,96.6959635 74.2734375,96.8457031 C74.2734375,96.9954427 74.2734375,97.2200521 74.2734375,97.5195312 C73.375,97.2200521 72.6263021,96.6959635 72.0273438,95.9472656 C71.4283854,95.1985677 71.1289062,94.3001302 71.1289062,93.2519531 C71.1289062,92.0540365 71.5032552,91.0807292 72.2519531,90.3320312 C73.1503906,89.4335938 74.1985677,88.984375 75.3964844,88.984375 C76.594401,88.984375 77.5677083,89.4335938 78.3164062,90.3320312 C79.2148438,91.0807292 79.6640625,92.0540365 79.6640625,93.2519531 Z M75.3964844,97.0703125 C75.546224,97.0703125 75.6959635,97.0703125 75.8457031,97.0703125 C76.1451823,97.0703125 76.3697917,96.9954427 76.5195312,96.8457031 C76.5195312,96.9954427 76.5195312,97.2200521 76.5195312,97.5195312 C76.3697917,97.5195312 76.1451823,97.5195312 75.8457031,97.5195312 C75.6959635,97.6692708 75.546224,97.7441406 75.3964844,97.7441406 C75.2467448,97.7441406 75.0221354,97.6692708 74.7226562,97.5195312 C74.5729167,97.5195312 74.4231771,97.5195312 74.2734375,97.5195312 C74.2734375,97.3697917 74.2734375,97.1451823 74.2734375,96.8457031 C74.4231771,96.9954427 74.5729167,97.0703125 74.7226562,97.0703125 C74.8723958,97.0703125 75.0970052,97.0703125 75.3964844,97.0703125 Z M62.8183594,92.578125 C62.8183594,92.578125 62.8932292,92.6529948 63.0429688,92.8027344 C63.0429688,92.8027344 63.1178385,92.8776042 63.2675781,93.0273438 C63.2675781,93.0273438 63.2675781,93.1022135 63.2675781,93.2519531 C63.2675781,93.2519531 63.2675781,93.3268229 63.2675781,93.4765625 C63.2675781,95.4231771 63.2675781,97.7441406 63.2675781,100.439453 C63.2675781,103.284505 63.2675781,106.503906 63.2675781,110.097656 C63.2675781,110.247396 63.2675781,110.397135 63.2675781,110.546875 C63.2675781,110.696615 63.1927083,110.771484 63.0429688,110.771484 C62.8932292,110.921224 62.8183594,110.996094 62.8183594,110.996094 C62.6686198,111.145833 62.5188802,111.220703 62.3691406,111.220703 C62.219401,111.220703 62.0696615,111.145833 61.9199219,110.996094 C61.9199219,110.996094 61.8450521,110.921224 61.6953125,110.771484 C61.5455729,110.771484 61.4707031,110.696615 61.4707031,110.546875 C61.4707031,110.397135 61.4707031,110.247396 61.4707031,110.097656 C61.4707031,108.60026 61.4707031,106.653646 61.4707031,104.257812 C61.4707031,101.861979 61.4707031,99.0917969 61.4707031,95.9472656 C61.3209635,95.9472656 61.171224,96.0221354 61.0214844,96.171875 C61.0214844,96.3216146 60.9466146,96.4713542 60.796875,96.6210938 C60.6471354,96.6210938 60.4973958,96.6959635 60.3476562,96.8457031 C60.1979167,96.8457031 60.1230469,96.8457031 60.1230469,96.8457031 C59.9733073,96.8457031 59.8235677,96.8457031 59.6738281,96.8457031 C59.5240885,96.6959635 59.4492188,96.6210938 59.4492188,96.6210938 C59.2994792,96.4713542 59.2246094,96.3216146 59.2246094,96.171875 C59.0748698,96.0221354 59,95.9472656 59,95.9472656 C59,95.797526 59.0748698,95.6477865 59.2246094,95.4980469 C59.2246094,95.3483073 59.2994792,95.2734375 59.4492188,95.2734375 C59.5989583,94.9739583 59.8984375,94.5996094 60.3476562,94.1503906 C60.796875,93.8509115 61.2460938,93.4016927 61.6953125,92.8027344 C61.6953125,92.8027344 61.7701823,92.7278646 61.9199219,92.578125 C62.0696615,92.578125 62.1445312,92.578125 62.1445312,92.578125 C62.1445312,92.578125 62.219401,92.578125 62.3691406,92.578125 C62.3691406,92.578125 62.3691406,92.578125 62.3691406,92.578125 C62.5188802,92.578125 62.59375,92.578125 62.59375,92.578125 C62.59375,92.578125 62.6686198,92.578125 62.8183594,92.578125 Z M125.484375,109.873047 C125.634115,109.873047 125.783854,109.873047 125.933594,109.873047 C125.933594,110.022786 126.008464,110.097656 126.158203,110.097656 C126.307943,110.247396 126.382812,110.397135 126.382812,110.546875 C126.382812,110.696615 126.382812,110.771484 126.382812,110.771484 C126.382812,110.921224 126.382812,111.070964 126.382812,111.220703 C126.382812,111.370443 126.307943,111.520182 126.158203,111.669922 C126.008464,111.669922 125.933594,111.669922 125.933594,111.669922 C125.783854,111.819661 125.634115,111.894531 125.484375,111.894531 C124.735677,111.894531 123.912109,111.894531 123.013672,111.894531 C122.264974,111.894531 121.516276,111.894531 120.767578,111.894531 C120.01888,111.894531 119.270182,111.894531 118.521484,111.894531 C117.623047,111.894531 116.799479,111.894531 116.050781,111.894531 C116.050781,111.894531 115.975911,111.894531 115.826172,111.894531 C115.826172,111.894531 115.751302,111.819661 115.601562,111.669922 C115.601562,111.669922 115.601562,111.669922 115.601562,111.669922 C115.451823,111.669922 115.376953,111.595052 115.376953,111.445312 C115.376953,111.445312 115.302083,111.445312 115.152344,111.445312 C115.152344,111.295573 115.152344,111.220703 115.152344,111.220703 C115.152344,111.220703 115.152344,111.145833 115.152344,110.996094 C115.152344,110.996094 115.152344,110.921224 115.152344,110.771484 C115.152344,110.771484 115.152344,110.771484 115.152344,110.771484 C115.152344,110.771484 115.152344,110.771484 115.152344,110.771484 C115.152344,110.771484 115.152344,110.621745 115.152344,110.322266 C115.302083,110.172526 115.376953,109.873047 115.376953,109.423828 C115.526693,108.974609 115.676432,108.450521 115.826172,107.851562 C116.125651,107.402344 116.42513,106.878255 116.724609,106.279297 C117.024089,105.979818 117.248698,105.680339 117.398438,105.380859 C117.697917,105.08138 117.997396,104.781901 118.296875,104.482422 C118.596354,104.182943 118.895833,103.883464 119.195312,103.583984 C119.494792,103.284505 119.869141,103.059896 120.318359,102.910156 C121.216797,102.311198 121.890625,101.787109 122.339844,101.337891 C122.938802,100.888672 123.313151,100.514323 123.462891,100.214844 C123.76237,99.765625 123.986979,99.391276 124.136719,99.0917969 C124.136719,98.6425781 124.136719,98.2682292 124.136719,97.96875 C124.136719,97.96875 124.136719,97.8938802 124.136719,97.7441406 C124.136719,97.594401 124.136719,97.5195312 124.136719,97.5195312 C124.136719,97.3697917 124.136719,97.2200521 124.136719,97.0703125 C124.136719,96.9205729 124.061849,96.8457031 123.912109,96.8457031 C123.912109,96.546224 123.83724,96.3216146 123.6875,96.171875 C123.388021,96.0221354 123.163411,95.8723958 123.013672,95.7226562 C122.714193,95.5729167 122.414714,95.4231771 122.115234,95.2734375 C121.666016,95.2734375 121.216797,95.2734375 120.767578,95.2734375 C120.468099,95.2734375 120.16862,95.2734375 119.869141,95.2734375 C119.419922,95.4231771 119.120443,95.5729167 118.970703,95.7226562 C118.671224,95.8723958 118.446615,96.0221354 118.296875,96.171875 C117.997396,96.4713542 117.772786,96.7708333 117.623047,97.0703125 C117.623047,97.2200521 117.548177,97.2949219 117.398438,97.2949219 C117.398438,97.4446615 117.323568,97.5195312 117.173828,97.5195312 C117.024089,97.6692708 116.874349,97.7441406 116.724609,97.7441406 C116.57487,97.594401 116.42513,97.5195312 116.275391,97.5195312 C116.275391,97.5195312 116.200521,97.4446615 116.050781,97.2949219 C116.050781,97.2949219 115.975911,97.2200521 115.826172,97.0703125 C115.826172,96.9205729 115.826172,96.7708333 115.826172,96.6210938 C115.826172,96.4713542 115.826172,96.3216146 115.826172,96.171875 C116.125651,95.7226562 116.42513,95.3483073 116.724609,95.0488281 C117.024089,94.5996094 117.398438,94.2252604 117.847656,93.9257812 C118.296875,93.7760417 118.746094,93.6263021 119.195312,93.4765625 C119.644531,93.3268229 120.16862,93.2519531 120.767578,93.2519531 C121.815755,93.2519531 122.639323,93.4016927 123.238281,93.7011719 C123.986979,93.8509115 124.585938,94.2252604 125.035156,94.8242188 C125.334635,95.2734375 125.634115,95.797526 125.933594,96.3964844 C126.083333,96.9954427 126.158203,97.594401 126.158203,98.1933594 C126.158203,98.7923177 126.083333,99.3164062 125.933594,99.765625 C125.783854,100.364583 125.484375,100.888672 125.035156,101.337891 C124.735677,101.936849 124.286458,102.460938 123.6875,102.910156 C123.088542,103.509115 122.339844,104.033203 121.441406,104.482422 C120.692708,104.931641 120.09375,105.380859 119.644531,105.830078 C119.195312,106.279297 118.820964,106.803385 118.521484,107.402344 C118.222005,107.851562 117.997396,108.300781 117.847656,108.75 C117.548177,109.199219 117.323568,109.573568 117.173828,109.873047 C118.222005,109.873047 119.419922,109.873047 120.767578,109.873047 C122.115234,109.873047 123.6875,109.873047 125.484375,109.873047 Z"/></svg>