<svg xmlns="http://www.w3.org/2000/svg" width="120" height="243" viewBox="0 0 120 243"><path fill="#131313" d="M104.754883,24.4121094 C106.67806,25.0989583 108.120443,26.3352865 109.082031,28.1210938 C109.63151,29.2200521 109.90625,30.3190104 109.90625,31.4179688 C109.90625,32.2421875 109.76888,33.0664062 109.494141,33.890625 C100.152995,62.1888021 86.141276,104.704753 67.4589844,161.438477 C67.4589844,161.575846 67.4589844,161.713216 67.4589844,161.850586 C67.3216146,161.987956 67.2529297,162.125326 67.2529297,162.262695 C67.2529297,162.262695 67.2529297,162.262695 67.2529297,162.262695 C67.1155599,162.400065 67.046875,162.46875 67.046875,162.46875 C66.9095052,162.60612 66.8408203,162.812174 66.8408203,163.086914 C66.7034505,163.224284 66.5660807,163.361654 66.4287109,163.499023 C66.4287109,163.636393 66.360026,163.705078 66.2226562,163.705078 C66.2226562,163.705078 66.2226562,163.705078 66.2226562,163.705078 C66.0852865,163.842448 65.9479167,163.979818 65.8105469,164.117188 C65.6731771,164.254557 65.5358073,164.391927 65.3984375,164.529297 C65.3984375,164.529297 65.3984375,164.597982 65.3984375,164.735352 C65.2610677,164.735352 65.1923828,164.735352 65.1923828,164.735352 C65.055013,164.872721 64.9176432,165.010091 64.7802734,165.147461 C64.6429036,165.147461 64.5055339,165.216146 64.3681641,165.353516 C64.3681641,165.353516 64.2994792,165.353516 64.1621094,165.353516 C64.1621094,165.490885 64.0934245,165.55957 63.9560547,165.55957 C63.8186849,165.69694 63.6813151,165.765625 63.5439453,165.765625 C63.2692057,165.902995 63.063151,165.97168 62.9257812,165.97168 C62.9257812,165.97168 62.9257812,165.97168 62.9257812,165.97168 C62.9257812,165.97168 62.8570964,166.040365 62.7197266,166.177734 C62.7197266,166.177734 62.7197266,166.177734 62.7197266,166.177734 C62.7197266,166.177734 62.7197266,166.177734 62.7197266,166.177734 C62.5823568,166.177734 62.444987,166.177734 62.3076172,166.177734 C62.0328776,166.315104 61.8268229,166.383789 61.6894531,166.383789 C61.5520833,166.383789 61.4833984,166.383789 61.4833984,166.383789 C61.3460286,166.383789 61.2086589,166.383789 61.0712891,166.383789 C61.0712891,166.383789 61.0026042,166.383789 60.8652344,166.383789 C60.7278646,166.383789 60.5904948,166.383789 60.453125,166.383789 C60.3157552,166.383789 60.1783854,166.383789 60.0410156,166.383789 C60.0410156,166.383789 59.9723307,166.383789 59.8349609,166.383789 C59.6975911,166.383789 59.6289062,166.383789 59.6289062,166.383789 C59.4915365,166.383789 59.3541667,166.383789 59.2167969,166.383789 C59.0794271,166.383789 58.9420573,166.315104 58.8046875,166.177734 C58.5299479,166.177734 58.3238932,166.109049 58.1865234,165.97168 C58.1865234,165.97168 58.1865234,165.97168 58.1865234,165.97168 C58.1865234,165.97168 58.1865234,165.97168 58.1865234,165.97168 C58.1865234,165.97168 58.1865234,165.97168 58.1865234,165.97168 C58.0491536,165.97168 57.9804688,165.97168 57.9804688,165.97168 C57.843099,165.97168 57.7057292,165.902995 57.5683594,165.765625 C57.2936198,165.765625 57.0875651,165.69694 56.9501953,165.55957 C56.8128255,165.55957 56.7441406,165.490885 56.7441406,165.353516 C56.6067708,165.353516 56.5380859,165.353516 56.5380859,165.353516 C56.4007161,165.216146 56.2633464,165.147461 56.1259766,165.147461 C55.9886068,165.010091 55.851237,164.872721 55.7138672,164.735352 C55.7138672,164.735352 55.6451823,164.735352 55.5078125,164.735352 C55.5078125,164.597982 55.5078125,164.529297 55.5078125,164.529297 C55.3704427,164.391927 55.2330729,164.254557 55.0957031,164.117188 C54.9583333,163.979818 54.8209635,163.842448 54.6835938,163.705078 C54.6835938,163.705078 54.6835938,163.705078 54.6835938,163.705078 C54.546224,163.567708 54.4775391,163.499023 54.4775391,163.499023 C54.3401693,163.361654 54.2027995,163.155599 54.0654297,162.880859 C53.9280599,162.74349 53.859375,162.60612 53.859375,162.46875 C53.859375,162.33138 53.7906901,162.262695 53.6533203,162.262695 C53.6533203,162.262695 53.6533203,162.19401 53.6533203,162.056641 C53.6533203,161.919271 53.5846354,161.781901 53.4472656,161.644531 C53.4472656,161.507161 53.4472656,161.369792 53.4472656,161.232422 C44.1061198,132.934245 30.094401,90.4869792 11.4121094,33.890625 C11.1373698,33.0664062 11,32.2421875 11,31.4179688 C11.1373698,30.3190104 11.4121094,29.2200521 11.8242188,28.1210938 C12.7858073,26.3352865 14.296875,25.0989583 16.3574219,24.4121094 C17.0442708,24.1373698 17.7998047,24 18.6240234,24 C19.7229818,24 20.8219401,24.2747396 21.9208984,24.8242188 C23.8440755,25.7858073 25.0804036,27.2281901 25.6298828,29.1513672 C33.4599609,52.7789714 45.0677083,88.0830078 60.453125,135.063477 C68.1458333,111.573242 79.7535807,76.2692057 95.2763672,29.1513672 C95.8258464,27.2281901 97.0621745,25.7858073 98.9853516,24.8242188 C100.771159,24 102.694336,23.8626302 104.754883,24.4121094 Z M70.5498047,74.2773438 C68.2145182,81.1458333 64.7802734,91.5172526 60.2470703,105.391602 C55.3017578,90.4182943 47.8151042,67.8209635 37.7871094,37.5996094 C38.061849,37.5996094 38.2679036,37.5996094 38.4052734,37.5996094 C38.5426432,37.4622396 38.680013,37.3935547 38.8173828,37.3935547 C39.0921224,37.3935547 39.2981771,37.3248698 39.4355469,37.1875 C39.5729167,37.0501302 39.7102865,36.9814453 39.8476562,36.9814453 C44.3808594,50.7184245 51.1806641,71.3238932 60.2470703,98.7978516 C62.0328776,93.1656901 64.7802734,84.7174479 68.4892578,73.453125 C68.7639974,73.5904948 69.1074219,73.7278646 69.5195312,73.8652344 C69.7942708,74.0026042 70.1376953,74.139974 70.5498047,74.2773438 Z M33.4599609,35.1269531 C33.4599609,35.1269531 33.4599609,35.0582682 33.4599609,34.9208984 C33.3225911,34.7835286 33.2539062,34.6461589 33.2539062,34.5087891 C33.2539062,34.6461589 33.3225911,34.7835286 33.4599609,34.9208984 C33.4599609,35.0582682 33.4599609,35.1269531 33.4599609,35.1269531 Z M33.6660156,34.3027344 C33.9407552,35.2643229 34.4902344,35.9511719 35.3144531,36.3632812 C36.0013021,36.9127604 36.8255208,37.1188151 37.7871094,36.9814453 C37.7871094,37.1188151 37.7871094,37.3248698 37.7871094,37.5996094 C36.8255208,37.7369792 35.9326172,37.4622396 35.1083984,36.7753906 C34.1468099,36.2259115 33.5286458,35.4703776 33.2539062,34.5087891 C32.8417969,33.2724609 32.9104818,32.1048177 33.4599609,31.0058594 C34.0094401,29.906901 34.9023438,29.2200521 36.1386719,28.9453125 C37.2376302,28.5332031 38.3365885,28.601888 39.4355469,29.1513672 C40.671875,29.7008464 41.4274089,30.59375 41.7021484,31.8300781 C42.1142578,32.7916667 42.1142578,33.7532552 41.7021484,34.7148438 C41.2900391,35.6764323 40.671875,36.4319661 39.8476562,36.9814453 C39.8476562,36.8440755 39.7789714,36.6380208 39.6416016,36.3632812 C40.4658203,35.9511719 41.0152995,35.3330078 41.2900391,34.5087891 C41.5647786,33.6845703 41.5647786,32.7916667 41.2900391,31.8300781 C40.8779297,30.8684896 40.1910807,30.1129557 39.2294922,29.5634766 C38.2679036,29.1513672 37.3063151,29.0826823 36.3447266,29.3574219 C35.2457682,29.6321615 34.4215495,30.3190104 33.8720703,31.4179688 C33.4599609,32.3795573 33.391276,33.3411458 33.6660156,34.3027344 Z M33.0478516,33.890625 C33.0478516,33.890625 33.0478516,33.9593099 33.0478516,34.0966797 C33.1852214,34.2340495 33.2539062,34.3714193 33.2539062,34.5087891 C33.2539062,34.3714193 33.1852214,34.2340495 33.0478516,34.0966797 C33.0478516,33.9593099 33.0478516,33.890625 33.0478516,33.890625 Z M39.8476562,36.9814453 C39.7102865,36.9814453 39.5729167,37.0501302 39.4355469,37.1875 C39.2981771,37.3248698 39.1608073,37.3935547 39.0234375,37.3935547 C38.7486979,37.3935547 38.5426432,37.4622396 38.4052734,37.5996094 C38.2679036,37.5996094 38.061849,37.5996094 37.7871094,37.5996094 C37.7871094,37.4622396 37.7871094,37.2561849 37.7871094,36.9814453 C37.9244792,36.9814453 38.061849,36.9814453 38.1992188,36.9814453 C38.3365885,36.9814453 38.5426432,36.9814453 38.8173828,36.9814453 C38.9547526,36.8440755 39.0921224,36.7067057 39.2294922,36.5693359 C39.366862,36.5693359 39.5042318,36.500651 39.6416016,36.3632812 C39.7789714,36.500651 39.8476562,36.5693359 39.8476562,36.5693359 C39.8476562,36.7067057 39.8476562,36.8440755 39.8476562,36.9814453 Z M41.2900391,31.8300781 C41.5647786,32.7916667 41.5647786,33.6845703 41.2900391,34.5087891 C41.0152995,35.3330078 40.4658203,35.9511719 39.6416016,36.3632812 C39.6416016,36.2259115 39.5729167,36.0885417 39.4355469,35.9511719 C40.1223958,35.5390625 40.5345052,34.9208984 40.671875,34.0966797 C40.9466146,33.4098307 41.0152995,32.7229818 40.8779297,32.0361328 C41.0152995,32.585612 41.0152995,32.7229818 40.8779297,32.4482422 C40.7405599,32.0361328 40.671875,31.7613932 40.671875,31.6240234 C40.671875,31.6240234 40.671875,31.6927083 40.671875,31.8300781 C40.671875,31.8300781 40.7405599,31.898763 40.8779297,32.0361328 C40.4658203,31.0745443 39.8476562,30.3876953 39.0234375,29.9755859 C38.1992188,29.5634766 37.3063151,29.4947917 36.3447266,29.7695312 C35.5205078,30.0442708 34.9023438,30.6624349 34.4902344,31.6240234 C34.078125,32.4482422 34.0094401,33.2724609 34.2841797,34.0966797 C34.5589193,34.9208984 34.9710286,35.5390625 35.5205078,35.9511719 C36.069987,36.3632812 36.7568359,36.5693359 37.5810547,36.5693359 C37.5810547,36.7067057 37.6497396,36.8440755 37.7871094,36.9814453 C36.8255208,37.1188151 36.0013021,36.9127604 35.3144531,36.3632812 C34.4902344,35.9511719 33.9407552,35.2643229 33.6660156,34.3027344 C33.391276,33.3411458 33.5286458,32.3795573 34.078125,31.4179688 C34.4902344,30.3190104 35.2457682,29.6321615 36.3447266,29.3574219 C37.3063151,29.0826823 38.2679036,29.1513672 39.2294922,29.5634766 C40.3284505,30.1129557 41.0152995,30.8684896 41.2900391,31.8300781 Z M40.671875,32.0361328 C40.9466146,32.585612 41.0152995,32.7229818 40.8779297,32.4482422 C40.7405599,32.0361328 40.671875,31.7613932 40.671875,31.6240234 C40.671875,31.6240234 40.671875,31.6927083 40.671875,31.8300781 C40.671875,31.8300781 40.671875,31.898763 40.671875,32.0361328 Z M38.6113281,36.3632812 C38.7486979,36.3632812 38.8860677,36.2945964 39.0234375,36.1572266 C39.1608073,36.0198568 39.2981771,35.9511719 39.4355469,35.9511719 C39.5729167,35.9511719 39.6416016,36.0885417 39.6416016,36.3632812 C39.5042318,36.500651 39.366862,36.5693359 39.2294922,36.5693359 C39.0921224,36.7067057 38.9547526,36.8440755 38.8173828,36.9814453 C38.5426432,36.9814453 38.3365885,36.9814453 38.1992188,36.9814453 C38.061849,36.9814453 37.9244792,36.9814453 37.7871094,36.9814453 C37.6497396,36.9814453 37.5810547,36.8440755 37.5810547,36.5693359 C37.7184245,36.5693359 37.8557943,36.5693359 37.9931641,36.5693359 C38.2679036,36.5693359 38.4739583,36.500651 38.6113281,36.3632812 Z M69.1074219,71.5986328 C68.9700521,72.0107422 68.7639974,72.6289062 68.4892578,73.453125 C68.0771484,73.3157552 67.4589844,73.1097005 66.6347656,72.8349609 C68.0084635,70.6370443 70.1376953,67.3401693 73.0224609,62.9443359 C72.8850911,65.554362 72.6790365,69.5380859 72.4042969,74.8955078 C71.9921875,74.758138 71.3740234,74.5520833 70.5498047,74.2773438 C70.6871745,73.7278646 70.8932292,73.0410156 71.1679688,72.2167969 C70.7558594,72.0794271 70.0690104,71.8733724 69.1074219,71.5986328 Z M68.4892578,73.453125 C68.6266276,73.0410156 68.8326823,72.4228516 69.1074219,71.5986328 C69.5195312,71.7360026 70.2063802,71.9420573 71.1679688,72.2167969 C71.030599,72.6289062 70.8245443,73.3157552 70.5498047,74.2773438 C70.0003255,74.139974 69.3134766,73.8652344 68.4892578,73.453125 Z M50.9746094,41.5146484 C50.9746094,41.5146484 50.9746094,41.4459635 50.9746094,41.3085938 C50.8372396,41.171224 50.7685547,41.0338542 50.7685547,40.8964844 C50.7685547,39.5227865 50.7685547,37.7369792 50.7685547,35.5390625 C50.7685547,33.3411458 50.7685547,30.7998047 50.7685547,27.9150391 C50.7685547,27.9150391 50.6998698,27.983724 50.5625,28.1210938 C50.4251302,28.2584635 50.2877604,28.3958333 50.1503906,28.5332031 C50.0130208,28.5332031 49.9443359,28.601888 49.9443359,28.7392578 C49.8069661,28.7392578 49.6695964,28.7392578 49.5322266,28.7392578 C49.3948568,28.7392578 49.3261719,28.7392578 49.3261719,28.7392578 C49.1888021,28.601888 49.0514323,28.5332031 48.9140625,28.5332031 C48.7766927,28.3958333 48.7080078,28.2584635 48.7080078,28.1210938 C48.7080078,27.983724 48.7080078,27.9150391 48.7080078,27.9150391 C48.7080078,27.7776693 48.7080078,27.6402995 48.7080078,27.5029297 C48.7080078,27.3655599 48.7766927,27.2281901 48.9140625,27.0908203 C49.1888021,26.9534505 49.4635417,26.6787109 49.7382812,26.2666016 C50.1503906,25.8544922 50.5625,25.4423828 50.9746094,25.0302734 C51.1119792,25.0302734 51.249349,24.9615885 51.3867188,24.8242188 C51.3867188,24.8242188 51.4554036,24.8242188 51.5927734,24.8242188 C51.5927734,24.8242188 51.5927734,24.8242188 51.5927734,24.8242188 C51.5927734,24.8242188 51.6614583,24.8242188 51.7988281,24.8242188 C51.7988281,24.8242188 51.7988281,24.8242188 51.7988281,24.8242188 C51.9361979,24.8242188 52.0048828,24.8242188 52.0048828,24.8242188 C52.1422526,24.8242188 52.2109375,24.8929036 52.2109375,25.0302734 C52.3483073,25.0302734 52.4169922,25.0989583 52.4169922,25.2363281 C52.554362,25.2363281 52.6230469,25.305013 52.6230469,25.4423828 C52.6230469,25.4423828 52.6230469,25.5110677 52.6230469,25.6484375 C52.6230469,27.4342448 52.6230469,29.5634766 52.6230469,32.0361328 C52.6230469,34.6461589 52.6230469,37.5996094 52.6230469,40.8964844 C52.6230469,41.0338542 52.6230469,41.171224 52.6230469,41.3085938 C52.4856771,41.4459635 52.4169922,41.5146484 52.4169922,41.5146484 C52.2796224,41.6520182 52.1422526,41.7207031 52.0048828,41.7207031 C51.867513,41.8580729 51.7988281,41.9267578 51.7988281,41.9267578 C51.6614583,41.9267578 51.5240885,41.8580729 51.3867188,41.7207031 C51.249349,41.7207031 51.1119792,41.6520182 50.9746094,41.5146484 Z"/></svg>