<svg xmlns="http://www.w3.org/2000/svg" width="98" height="243" viewBox="0 0 98 243"><path fill="#131313" d="M80.078125,80.4394531 C82.0247396,81.188151 83.4472656,82.6106771 84.3457031,84.7070312 C84.7949219,85.7552083 85.0195312,86.8033854 85.0195312,87.8515625 C85.0195312,88.8997396 84.7949219,89.9479167 84.3457031,90.9960938 C77.7571615,106.419271 67.9492188,129.554036 54.921875,160.400391 C54.921875,160.69987 54.8470052,160.924479 54.6972656,161.074219 C54.547526,161.223958 54.4726562,161.448568 54.4726562,161.748047 C54.3229167,161.748047 54.2480469,161.748047 54.2480469,161.748047 C54.2480469,161.748047 54.2480469,161.822917 54.2480469,161.972656 C54.0983073,162.122396 53.9485677,162.272135 53.7988281,162.421875 C53.6490885,162.571615 53.5742188,162.721354 53.5742188,162.871094 C53.4244792,162.871094 53.3496094,162.871094 53.3496094,162.871094 C53.3496094,163.020833 53.2747396,163.095703 53.125,163.095703 C52.9752604,163.245443 52.8255208,163.395182 52.6757812,163.544922 C52.5260417,163.544922 52.3763021,163.619792 52.2265625,163.769531 C52.2265625,163.769531 52.2265625,163.844401 52.2265625,163.994141 C52.2265625,163.994141 52.1516927,163.994141 52.0019531,163.994141 C51.8522135,164.14388 51.6276042,164.29362 51.328125,164.443359 C51.1783854,164.593099 51.0286458,164.667969 50.8789062,164.667969 C50.7291667,164.667969 50.6542969,164.667969 50.6542969,164.667969 C50.6542969,164.667969 50.6542969,164.667969 50.6542969,164.667969 C50.6542969,164.817708 50.6542969,164.892578 50.6542969,164.892578 C50.5045573,164.892578 50.4296875,164.892578 50.4296875,164.892578 C50.2799479,164.892578 50.1302083,164.967448 49.9804688,165.117188 C49.6809896,165.117188 49.4563802,165.117188 49.3066406,165.117188 C49.3066406,165.117188 49.2317708,165.117188 49.0820312,165.117188 C49.0820312,165.266927 49.0071615,165.341797 48.8574219,165.341797 C48.7076823,165.341797 48.4830729,165.341797 48.1835938,165.341797 C48.0338542,165.341797 47.8092448,165.341797 47.5097656,165.341797 C47.5097656,165.341797 47.5097656,165.341797 47.5097656,165.341797 C47.5097656,165.341797 47.5097656,165.341797 47.5097656,165.341797 C47.5097656,165.341797 47.5097656,165.341797 47.5097656,165.341797 C47.5097656,165.341797 47.5097656,165.341797 47.5097656,165.341797 C47.2102865,165.341797 46.9856771,165.341797 46.8359375,165.341797 C46.5364583,165.341797 46.311849,165.341797 46.1621094,165.341797 C46.0123698,165.341797 45.9375,165.266927 45.9375,165.117188 C45.7877604,165.117188 45.7128906,165.117188 45.7128906,165.117188 C45.563151,165.117188 45.3385417,165.117188 45.0390625,165.117188 C44.8893229,164.967448 44.7395833,164.892578 44.5898438,164.892578 C44.5898438,164.892578 44.514974,164.892578 44.3652344,164.892578 C44.3652344,164.892578 44.3652344,164.817708 44.3652344,164.667969 C44.3652344,164.667969 44.3652344,164.667969 44.3652344,164.667969 C44.3652344,164.667969 44.2903646,164.667969 44.140625,164.667969 C43.9908854,164.667969 43.8411458,164.593099 43.6914062,164.443359 C43.3919271,164.29362 43.1673177,164.14388 43.0175781,163.994141 C42.8678385,163.994141 42.7929688,163.994141 42.7929688,163.994141 C42.7929688,163.844401 42.7929688,163.769531 42.7929688,163.769531 C42.6432292,163.619792 42.4934896,163.544922 42.34375,163.544922 C42.1940104,163.395182 42.0442708,163.245443 41.8945312,163.095703 C41.7447917,163.095703 41.6699219,163.020833 41.6699219,162.871094 C41.6699219,162.871094 41.5950521,162.871094 41.4453125,162.871094 C41.4453125,162.721354 41.3704427,162.571615 41.2207031,162.421875 C41.0709635,162.272135 40.921224,162.122396 40.7714844,161.972656 C40.7714844,161.822917 40.7714844,161.748047 40.7714844,161.748047 C40.7714844,161.748047 40.6966146,161.748047 40.546875,161.748047 C40.546875,161.448568 40.4720052,161.223958 40.3222656,161.074219 C40.172526,160.924479 40.0976562,160.69987 40.0976562,160.400391 C33.5091146,144.977214 23.7011719,121.842448 10.6738281,90.9960938 C10.2246094,89.9479167 10,88.8997396 10,87.8515625 C10,86.8033854 10.2246094,85.7552083 10.6738281,84.7070312 C11.422526,82.6106771 12.8450521,81.188151 14.9414062,80.4394531 C17.0377604,79.5410156 19.1341146,79.4661458 21.2304688,80.2148438 C23.3268229,81.1132812 24.8242188,82.6106771 25.7226562,84.7070312 C30.5143229,96.0872396 37.7766927,113.307292 47.5097656,136.367188 C52.3014323,124.83724 59.5638021,107.617188 69.296875,84.7070312 C70.1953125,82.6106771 71.6927083,81.1132812 73.7890625,80.2148438 C75.8854167,79.4661458 77.9817708,79.5410156 80.078125,80.4394531 Z M47.5097656,110.761719 C49.0071615,107.167969 51.328125,101.702474 54.4726562,94.3652344 C54.921875,94.6647135 55.5957031,94.9641927 56.4941406,95.2636719 C54.547526,100.055339 51.5527344,107.242839 47.5097656,116.826172 C45.2636719,111.435547 41.8945312,103.424479 37.4023438,92.7929688 C37.5520833,92.7929688 37.7766927,92.718099 38.0761719,92.5683594 C38.2259115,92.5683594 38.375651,92.5683594 38.5253906,92.5683594 C38.6751302,92.4186198 38.8248698,92.2688802 38.9746094,92.1191406 C39.124349,92.1191406 39.2740885,92.0442708 39.4238281,91.8945312 C40.7714844,95.0390625 42.1191406,98.1835938 43.4667969,101.328125 C44.8144531,104.472656 46.1621094,107.617188 47.5097656,110.761719 Z M32.6855469,89.6484375 C32.985026,90.546875 33.5839844,91.2207031 34.4824219,91.6699219 C35.3808594,92.1191406 36.2792969,92.34375 37.1777344,92.34375 C37.1777344,92.34375 37.2526042,92.4934896 37.4023438,92.7929688 C36.3541667,92.9427083 35.3059896,92.7929688 34.2578125,92.34375 C33.2096354,91.7447917 32.4609375,90.921224 32.0117188,89.8730469 C31.5625,88.6751302 31.5625,87.4023438 32.0117188,86.0546875 C32.6106771,84.8567708 33.5091146,83.9583333 34.7070312,83.359375 C35.9049479,82.9101562 37.1777344,82.9101562 38.5253906,83.359375 C39.7233073,83.9583333 40.546875,84.8567708 40.9960938,86.0546875 C41.4453125,87.1028646 41.5201823,88.1510417 41.2207031,89.1992188 C40.921224,90.3971354 40.3222656,91.2955729 39.4238281,91.8945312 C39.4238281,91.7447917 39.3489583,91.5950521 39.1992188,91.4453125 C39.9479167,90.8463542 40.4720052,90.0227865 40.7714844,88.9746094 C41.0709635,88.0761719 40.9960938,87.1777344 40.546875,86.2792969 C40.0976562,85.2311198 39.3489583,84.4824219 38.3007812,84.0332031 C37.1028646,83.5839844 35.9798177,83.5839844 34.9316406,84.0332031 C33.8834635,84.4824219 33.1347656,85.2311198 32.6855469,86.2792969 C32.2363281,87.4772135 32.2363281,88.6002604 32.6855469,89.6484375 Z M39.4238281,91.8945312 C39.2740885,92.0442708 39.124349,92.1191406 38.9746094,92.1191406 C38.8248698,92.2688802 38.6751302,92.4186198 38.5253906,92.5683594 C38.375651,92.5683594 38.1510417,92.5683594 37.8515625,92.5683594 C37.7018229,92.718099 37.5520833,92.7929688 37.4023438,92.7929688 C37.4023438,92.6432292 37.327474,92.4186198 37.1777344,92.1191406 C37.327474,92.1191406 37.4772135,92.1191406 37.6269531,92.1191406 C37.9264323,92.1191406 38.1510417,92.0442708 38.3007812,91.8945312 C38.4505208,91.8945312 38.6002604,91.8196615 38.75,91.6699219 C38.8997396,91.5201823 39.0494792,91.4453125 39.1992188,91.4453125 C39.3489583,91.4453125 39.4238281,91.5201823 39.4238281,91.6699219 C39.4238281,91.6699219 39.4238281,91.7447917 39.4238281,91.8945312 Z M40.546875,86.2792969 C40.9960938,87.1777344 41.0709635,88.0761719 40.7714844,88.9746094 C40.4720052,90.0227865 39.9479167,90.7714844 39.1992188,91.2207031 C39.1992188,91.2207031 39.124349,91.0709635 38.9746094,90.7714844 C39.5735677,90.3222656 40.0227865,89.6484375 40.3222656,88.75 C40.4720052,88.0013021 40.3971354,87.2526042 40.0976562,86.5039062 C40.0976562,86.5039062 40.0976562,86.5039062 40.0976562,86.5039062 C40.0976562,86.6536458 40.0976562,86.7285156 40.0976562,86.7285156 C40.0976562,86.7285156 40.0976562,86.7285156 40.0976562,86.7285156 C40.0976562,86.7285156 40.172526,86.8033854 40.3222656,86.953125 C40.3222656,86.953125 40.3222656,86.953125 40.3222656,86.953125 C40.3222656,86.953125 40.3222656,86.953125 40.3222656,86.953125 C40.3222656,86.953125 40.3222656,86.953125 40.3222656,86.953125 C40.3222656,86.953125 40.3222656,86.953125 40.3222656,86.953125 C40.172526,86.8033854 40.0976562,86.7285156 40.0976562,86.7285156 C40.0976562,86.7285156 40.0976562,86.7285156 40.0976562,86.7285156 C40.0976562,86.7285156 40.0976562,86.6536458 40.0976562,86.5039062 C40.0976562,86.5039062 40.0976562,86.5039062 40.0976562,86.5039062 C40.0976562,86.5039062 40.0976562,86.4290365 40.0976562,86.2792969 C39.9479167,86.2792969 39.8730469,86.2792969 39.8730469,86.2792969 C39.8730469,86.2792969 39.8730469,86.2792969 39.8730469,86.2792969 C39.8730469,86.1295573 39.8730469,86.0546875 39.8730469,86.0546875 C39.8730469,86.0546875 39.8730469,86.1295573 39.8730469,86.2792969 C39.8730469,86.2792969 39.8730469,86.2792969 39.8730469,86.2792969 C39.8730469,86.2792969 39.9479167,86.2792969 40.0976562,86.2792969 C40.0976562,86.4290365 40.0976562,86.5039062 40.0976562,86.5039062 C39.6484375,85.6054688 38.9746094,84.9316406 38.0761719,84.4824219 C37.0279948,84.0332031 36.0546875,84.0332031 35.15625,84.4824219 C34.2578125,84.9316406 33.5839844,85.6054688 33.1347656,86.5039062 C32.6855469,87.5520833 32.6855469,88.5253906 33.1347656,89.4238281 C33.4342448,90.172526 33.9583333,90.7714844 34.7070312,91.2207031 C35.4557292,91.5201823 36.2044271,91.6699219 36.953125,91.6699219 C36.953125,91.8196615 37.0279948,91.969401 37.1777344,92.1191406 C36.2792969,92.2688802 35.3808594,92.1191406 34.4824219,91.6699219 C33.5839844,91.2207031 32.985026,90.546875 32.6855469,89.6484375 C32.2363281,88.6002604 32.2363281,87.4772135 32.6855469,86.2792969 C33.1347656,85.2311198 33.8834635,84.4824219 34.9316406,84.0332031 C35.9798177,83.5839844 37.1028646,83.5839844 38.3007812,84.0332031 C39.3489583,84.4824219 40.0976562,85.2311198 40.546875,86.2792969 Z M40.0976562,86.953125 C40.0976562,86.8033854 40.0976562,86.7285156 40.0976562,86.7285156 C40.0976562,86.7285156 40.0976562,86.7285156 40.0976562,86.7285156 C40.0976562,86.7285156 40.0976562,86.7285156 40.0976562,86.7285156 C40.0976562,86.7285156 40.0976562,86.8033854 40.0976562,86.953125 Z M39.8730469,86.2792969 C39.8730469,86.2792969 39.8730469,86.2792969 39.8730469,86.2792969 C40.0227865,86.4290365 40.0976562,86.5039062 40.0976562,86.5039062 C40.0976562,86.5039062 40.0227865,86.4290365 39.8730469,86.2792969 C39.8730469,86.2792969 39.8730469,86.2792969 39.8730469,86.2792969 Z M38.0761719,91.4453125 C38.2259115,91.2955729 38.375651,91.2207031 38.5253906,91.2207031 C38.6751302,91.0709635 38.8248698,90.921224 38.9746094,90.7714844 C39.124349,90.921224 39.1992188,91.1458333 39.1992188,91.4453125 C39.0494792,91.4453125 38.8997396,91.5201823 38.75,91.6699219 C38.6002604,91.8196615 38.4505208,91.8945312 38.3007812,91.8945312 C38.1510417,92.0442708 37.9264323,92.1191406 37.6269531,92.1191406 C37.4772135,92.1191406 37.327474,92.1191406 37.1777344,92.1191406 C37.1777344,92.1191406 37.1028646,91.969401 36.953125,91.6699219 C37.1028646,91.6699219 37.2526042,91.6699219 37.4023438,91.6699219 C37.7018229,91.5201823 37.9264323,91.4453125 38.0761719,91.4453125 Z M52.4511719,93.6914062 C54.2480469,91.4453125 56.8684896,88.0013021 60.3125,83.359375 C59.8632812,86.2044271 59.2643229,90.4720052 58.515625,96.1621094 C58.0664062,96.0123698 57.3925781,95.7877604 56.4941406,95.4882812 C56.7936198,94.8893229 57.093099,94.140625 57.3925781,93.2421875 C56.9433594,93.0924479 56.2695312,92.7929688 55.3710938,92.34375 C55.0716146,92.7929688 54.7721354,93.5416667 54.4726562,94.5898438 C54.0234375,94.2903646 53.3496094,93.9908854 52.4511719,93.6914062 Z M54.4726562,94.3652344 C54.6223958,93.9160156 54.921875,93.2421875 55.3710938,92.34375 C55.8203125,92.4934896 56.4941406,92.7929688 57.3925781,93.2421875 C57.2428385,93.6914062 56.9433594,94.3652344 56.4941406,95.2636719 C56.0449219,95.1139323 55.3710938,94.8144531 54.4726562,94.3652344 Z M28.8671875,60.2246094 C29.0169271,60.2246094 29.0917969,60.2246094 29.0917969,60.2246094 C29.0917969,60.374349 29.1666667,60.4492188 29.3164062,60.4492188 C29.3164062,60.5989583 29.3164062,60.6738281 29.3164062,60.6738281 C29.3164062,60.8235677 29.3164062,60.9733073 29.3164062,61.1230469 C29.3164062,62.9199219 29.3164062,65.2408854 29.3164062,68.0859375 C29.3164062,70.78125 29.3164062,74.000651 29.3164062,77.7441406 C29.3164062,77.8938802 29.3164062,77.96875 29.3164062,77.96875 C29.3164062,78.1184896 29.2415365,78.2682292 29.0917969,78.4179688 C29.0917969,78.4179688 29.0169271,78.4928385 28.8671875,78.6425781 C28.7174479,78.6425781 28.5677083,78.6425781 28.4179688,78.6425781 C28.2682292,78.6425781 28.1933594,78.6425781 28.1933594,78.6425781 C28.0436198,78.4928385 27.8938802,78.4179688 27.7441406,78.4179688 C27.594401,78.2682292 27.5195312,78.1184896 27.5195312,77.96875 C27.5195312,77.96875 27.5195312,77.8938802 27.5195312,77.7441406 C27.5195312,76.0970052 27.5195312,74.0755208 27.5195312,71.6796875 C27.5195312,69.2838542 27.5195312,66.5136719 27.5195312,63.3691406 C27.3697917,63.5188802 27.2949219,63.59375 27.2949219,63.59375 C27.1451823,63.7434896 26.9954427,63.8932292 26.8457031,64.0429688 C26.6959635,64.1927083 26.546224,64.2675781 26.3964844,64.2675781 C26.3964844,64.2675781 26.3216146,64.2675781 26.171875,64.2675781 C26.0221354,64.2675781 25.8723958,64.2675781 25.7226562,64.2675781 C25.5729167,64.2675781 25.4980469,64.1927083 25.4980469,64.0429688 C25.3483073,64.0429688 25.2734375,63.968099 25.2734375,63.8183594 C25.1236979,63.6686198 25.0488281,63.5188802 25.0488281,63.3691406 C25.0488281,63.219401 25.1236979,63.0696615 25.2734375,62.9199219 C25.2734375,62.9199219 25.3483073,62.8450521 25.4980469,62.6953125 C25.6477865,62.3958333 25.9472656,62.0963542 26.3964844,61.796875 C26.8457031,61.3476562 27.2949219,60.8984375 27.7441406,60.4492188 C27.8938802,60.2994792 27.96875,60.2246094 27.96875,60.2246094 C28.1184896,60.2246094 28.1933594,60.1497396 28.1933594,60 C28.343099,60 28.4179688,60 28.4179688,60 C28.4179688,60 28.4179688,60 28.4179688,60 C28.5677083,60 28.6425781,60 28.6425781,60 C28.7923177,60 28.8671875,60.0748698 28.8671875,60.2246094 Z"/></svg>