<svg xmlns="http://www.w3.org/2000/svg" width="243" height="243" viewBox="0 0 243 243"><path fill="#131313" d="M154.078125,80.4394531 C156.02474,81.188151 157.447266,82.6106771 158.345703,84.7070312 C158.794922,85.7552083 159.019531,86.8033854 159.019531,87.8515625 C159.019531,88.8997396 158.794922,89.9479167 158.345703,90.9960938 C151.757161,106.419271 141.949219,129.554036 128.921875,160.400391 C128.921875,160.69987 128.847005,160.924479 128.697266,161.074219 C128.547526,161.223958 128.472656,161.448568 128.472656,161.748047 C128.322917,161.748047 128.248047,161.748047 128.248047,161.748047 C128.248047,161.748047 128.248047,161.822917 128.248047,161.972656 C128.098307,162.122396 127.948568,162.272135 127.798828,162.421875 C127.649089,162.571615 127.574219,162.721354 127.574219,162.871094 C127.424479,162.871094 127.349609,162.871094 127.349609,162.871094 C127.349609,163.020833 127.27474,163.095703 127.125,163.095703 C126.97526,163.245443 126.825521,163.395182 126.675781,163.544922 C126.526042,163.544922 126.376302,163.619792 126.226562,163.769531 C126.226562,163.769531 126.226562,163.844401 126.226562,163.994141 C126.226562,163.994141 126.151693,163.994141 126.001953,163.994141 C125.852214,164.14388 125.627604,164.29362 125.328125,164.443359 C125.178385,164.593099 125.028646,164.667969 124.878906,164.667969 C124.729167,164.667969 124.654297,164.667969 124.654297,164.667969 C124.654297,164.667969 124.654297,164.667969 124.654297,164.667969 C124.654297,164.817708 124.654297,164.892578 124.654297,164.892578 C124.504557,164.892578 124.429688,164.892578 124.429688,164.892578 C124.279948,164.892578 124.130208,164.967448 123.980469,165.117188 C123.68099,165.117188 123.45638,165.117188 123.306641,165.117188 C123.306641,165.117188 123.231771,165.117188 123.082031,165.117188 C123.082031,165.266927 123.007161,165.341797 122.857422,165.341797 C122.707682,165.341797 122.483073,165.341797 122.183594,165.341797 C122.033854,165.341797 121.809245,165.341797 121.509766,165.341797 C121.509766,165.341797 121.509766,165.341797 121.509766,165.341797 C121.509766,165.341797 121.509766,165.341797 121.509766,165.341797 C121.509766,165.341797 121.509766,165.341797 121.509766,165.341797 C121.509766,165.341797 121.509766,165.341797 121.509766,165.341797 C121.210286,165.341797 120.985677,165.341797 120.835938,165.341797 C120.536458,165.341797 120.311849,165.341797 120.162109,165.341797 C120.01237,165.341797 119.9375,165.266927 119.9375,165.117188 C119.78776,165.117188 119.712891,165.117188 119.712891,165.117188 C119.563151,165.117188 119.338542,165.117188 119.039062,165.117188 C118.889323,164.967448 118.739583,164.892578 118.589844,164.892578 C118.589844,164.892578 118.514974,164.892578 118.365234,164.892578 C118.365234,164.892578 118.365234,164.817708 118.365234,164.667969 C118.365234,164.667969 118.365234,164.667969 118.365234,164.667969 C118.365234,164.667969 118.290365,164.667969 118.140625,164.667969 C117.990885,164.667969 117.841146,164.593099 117.691406,164.443359 C117.391927,164.29362 117.167318,164.14388 117.017578,163.994141 C116.867839,163.994141 116.792969,163.994141 116.792969,163.994141 C116.792969,163.844401 116.792969,163.769531 116.792969,163.769531 C116.643229,163.619792 116.49349,163.544922 116.34375,163.544922 C116.19401,163.395182 116.044271,163.245443 115.894531,163.095703 C115.744792,163.095703 115.669922,163.020833 115.669922,162.871094 C115.669922,162.871094 115.595052,162.871094 115.445312,162.871094 C115.445312,162.721354 115.370443,162.571615 115.220703,162.421875 C115.070964,162.272135 114.921224,162.122396 114.771484,161.972656 C114.771484,161.822917 114.771484,161.748047 114.771484,161.748047 C114.771484,161.748047 114.696615,161.748047 114.546875,161.748047 C114.546875,161.448568 114.472005,161.223958 114.322266,161.074219 C114.172526,160.924479 114.097656,160.69987 114.097656,160.400391 C107.509115,144.977214 97.7011719,121.842448 84.6738281,90.9960938 C84.2246094,89.9479167 84,88.8997396 84,87.8515625 C84,86.8033854 84.2246094,85.7552083 84.6738281,84.7070312 C85.422526,82.6106771 86.8450521,81.188151 88.9414062,80.4394531 C91.0377604,79.5410156 93.1341146,79.4661458 95.2304688,80.2148438 C97.3268229,81.1132812 98.8242188,82.6106771 99.7226562,84.7070312 C104.514323,96.0872396 111.776693,113.307292 121.509766,136.367188 C126.301432,124.83724 133.563802,107.617188 143.296875,84.7070312 C144.195312,82.6106771 145.692708,81.1132812 147.789062,80.2148438 C149.885417,79.4661458 151.981771,79.5410156 154.078125,80.4394531 Z M121.509766,110.761719 C123.007161,107.167969 125.328125,101.702474 128.472656,94.3652344 C128.921875,94.6647135 129.595703,94.9641927 130.494141,95.2636719 C128.547526,100.055339 125.552734,107.242839 121.509766,116.826172 C119.263672,111.435547 115.894531,103.424479 111.402344,92.7929688 C111.552083,92.7929688 111.776693,92.718099 112.076172,92.5683594 C112.225911,92.5683594 112.375651,92.5683594 112.525391,92.5683594 C112.67513,92.4186198 112.82487,92.2688802 112.974609,92.1191406 C113.124349,92.1191406 113.274089,92.0442708 113.423828,91.8945312 C114.771484,95.0390625 116.119141,98.1835938 117.466797,101.328125 C118.814453,104.472656 120.162109,107.617188 121.509766,110.761719 Z M106.685547,89.6484375 C106.985026,90.546875 107.583984,91.2207031 108.482422,91.6699219 C109.380859,92.1191406 110.279297,92.34375 111.177734,92.34375 C111.177734,92.34375 111.252604,92.4934896 111.402344,92.7929688 C110.354167,92.9427083 109.30599,92.7929688 108.257812,92.34375 C107.209635,91.7447917 106.460938,90.921224 106.011719,89.8730469 C105.5625,88.6751302 105.5625,87.4023438 106.011719,86.0546875 C106.610677,84.8567708 107.509115,83.9583333 108.707031,83.359375 C109.904948,82.9101562 111.177734,82.9101562 112.525391,83.359375 C113.723307,83.9583333 114.546875,84.8567708 114.996094,86.0546875 C115.445312,87.1028646 115.520182,88.1510417 115.220703,89.1992188 C114.921224,90.3971354 114.322266,91.2955729 113.423828,91.8945312 C113.423828,91.7447917 113.348958,91.5950521 113.199219,91.4453125 C113.947917,90.8463542 114.472005,90.0227865 114.771484,88.9746094 C115.070964,88.0761719 114.996094,87.1777344 114.546875,86.2792969 C114.097656,85.2311198 113.348958,84.4824219 112.300781,84.0332031 C111.102865,83.5839844 109.979818,83.5839844 108.931641,84.0332031 C107.883464,84.4824219 107.134766,85.2311198 106.685547,86.2792969 C106.236328,87.4772135 106.236328,88.6002604 106.685547,89.6484375 Z M113.423828,91.8945312 C113.274089,92.0442708 113.124349,92.1191406 112.974609,92.1191406 C112.82487,92.2688802 112.67513,92.4186198 112.525391,92.5683594 C112.375651,92.5683594 112.151042,92.5683594 111.851562,92.5683594 C111.701823,92.718099 111.552083,92.7929688 111.402344,92.7929688 C111.402344,92.6432292 111.327474,92.4186198 111.177734,92.1191406 C111.327474,92.1191406 111.477214,92.1191406 111.626953,92.1191406 C111.926432,92.1191406 112.151042,92.0442708 112.300781,91.8945312 C112.450521,91.8945312 112.60026,91.8196615 112.75,91.6699219 C112.89974,91.5201823 113.049479,91.4453125 113.199219,91.4453125 C113.348958,91.4453125 113.423828,91.5201823 113.423828,91.6699219 C113.423828,91.6699219 113.423828,91.7447917 113.423828,91.8945312 Z M114.546875,86.2792969 C114.996094,87.1777344 115.070964,88.0761719 114.771484,88.9746094 C114.472005,90.0227865 113.947917,90.7714844 113.199219,91.2207031 C113.199219,91.2207031 113.124349,91.0709635 112.974609,90.7714844 C113.573568,90.3222656 114.022786,89.6484375 114.322266,88.75 C114.472005,88.0013021 114.397135,87.2526042 114.097656,86.5039062 C114.097656,86.5039062 114.097656,86.5039062 114.097656,86.5039062 C114.097656,86.6536458 114.097656,86.7285156 114.097656,86.7285156 C114.097656,86.7285156 114.097656,86.7285156 114.097656,86.7285156 C114.097656,86.7285156 114.172526,86.8033854 114.322266,86.953125 C114.322266,86.953125 114.322266,86.953125 114.322266,86.953125 C114.322266,86.953125 114.322266,86.953125 114.322266,86.953125 C114.322266,86.953125 114.322266,86.953125 114.322266,86.953125 C114.322266,86.953125 114.322266,86.953125 114.322266,86.953125 C114.172526,86.8033854 114.097656,86.7285156 114.097656,86.7285156 C114.097656,86.7285156 114.097656,86.7285156 114.097656,86.7285156 C114.097656,86.7285156 114.097656,86.6536458 114.097656,86.5039062 C114.097656,86.5039062 114.097656,86.5039062 114.097656,86.5039062 C114.097656,86.5039062 114.097656,86.4290365 114.097656,86.2792969 C113.947917,86.2792969 113.873047,86.2792969 113.873047,86.2792969 C113.873047,86.2792969 113.873047,86.2792969 113.873047,86.2792969 C113.873047,86.1295573 113.873047,86.0546875 113.873047,86.0546875 C113.873047,86.0546875 113.873047,86.1295573 113.873047,86.2792969 C113.873047,86.2792969 113.873047,86.2792969 113.873047,86.2792969 C113.873047,86.2792969 113.947917,86.2792969 114.097656,86.2792969 C114.097656,86.4290365 114.097656,86.5039062 114.097656,86.5039062 C113.648438,85.6054688 112.974609,84.9316406 112.076172,84.4824219 C111.027995,84.0332031 110.054688,84.0332031 109.15625,84.4824219 C108.257812,84.9316406 107.583984,85.6054688 107.134766,86.5039062 C106.685547,87.5520833 106.685547,88.5253906 107.134766,89.4238281 C107.434245,90.172526 107.958333,90.7714844 108.707031,91.2207031 C109.455729,91.5201823 110.204427,91.6699219 110.953125,91.6699219 C110.953125,91.8196615 111.027995,91.969401 111.177734,92.1191406 C110.279297,92.2688802 109.380859,92.1191406 108.482422,91.6699219 C107.583984,91.2207031 106.985026,90.546875 106.685547,89.6484375 C106.236328,88.6002604 106.236328,87.4772135 106.685547,86.2792969 C107.134766,85.2311198 107.883464,84.4824219 108.931641,84.0332031 C109.979818,83.5839844 111.102865,83.5839844 112.300781,84.0332031 C113.348958,84.4824219 114.097656,85.2311198 114.546875,86.2792969 Z M114.097656,86.953125 C114.097656,86.8033854 114.097656,86.7285156 114.097656,86.7285156 C114.097656,86.7285156 114.097656,86.7285156 114.097656,86.7285156 C114.097656,86.7285156 114.097656,86.7285156 114.097656,86.7285156 C114.097656,86.7285156 114.097656,86.8033854 114.097656,86.953125 Z M113.873047,86.2792969 C113.873047,86.2792969 113.873047,86.2792969 113.873047,86.2792969 C114.022786,86.4290365 114.097656,86.5039062 114.097656,86.5039062 C114.097656,86.5039062 114.022786,86.4290365 113.873047,86.2792969 C113.873047,86.2792969 113.873047,86.2792969 113.873047,86.2792969 Z M112.076172,91.4453125 C112.225911,91.2955729 112.375651,91.2207031 112.525391,91.2207031 C112.67513,91.0709635 112.82487,90.921224 112.974609,90.7714844 C113.124349,90.921224 113.199219,91.1458333 113.199219,91.4453125 C113.049479,91.4453125 112.89974,91.5201823 112.75,91.6699219 C112.60026,91.8196615 112.450521,91.8945312 112.300781,91.8945312 C112.151042,92.0442708 111.926432,92.1191406 111.626953,92.1191406 C111.477214,92.1191406 111.327474,92.1191406 111.177734,92.1191406 C111.177734,92.1191406 111.102865,91.969401 110.953125,91.6699219 C111.102865,91.6699219 111.252604,91.6699219 111.402344,91.6699219 C111.701823,91.5201823 111.926432,91.4453125 112.076172,91.4453125 Z M126.451172,93.6914062 C128.248047,91.4453125 130.86849,88.0013021 134.3125,83.359375 C133.863281,86.2044271 133.264323,90.4720052 132.515625,96.1621094 C132.066406,96.0123698 131.392578,95.7877604 130.494141,95.4882812 C130.79362,94.8893229 131.093099,94.140625 131.392578,93.2421875 C130.943359,93.0924479 130.269531,92.7929688 129.371094,92.34375 C129.071615,92.7929688 128.772135,93.5416667 128.472656,94.5898438 C128.023438,94.2903646 127.349609,93.9908854 126.451172,93.6914062 Z M128.472656,94.3652344 C128.622396,93.9160156 128.921875,93.2421875 129.371094,92.34375 C129.820312,92.4934896 130.494141,92.7929688 131.392578,93.2421875 C131.242839,93.6914062 130.943359,94.3652344 130.494141,95.2636719 C130.044922,95.1139323 129.371094,94.8144531 128.472656,94.3652344 Z M102.867188,60.2246094 C103.016927,60.2246094 103.091797,60.2246094 103.091797,60.2246094 C103.091797,60.374349 103.166667,60.4492188 103.316406,60.4492188 C103.316406,60.5989583 103.316406,60.6738281 103.316406,60.6738281 C103.316406,60.8235677 103.316406,60.9733073 103.316406,61.1230469 C103.316406,62.9199219 103.316406,65.2408854 103.316406,68.0859375 C103.316406,70.78125 103.316406,74.000651 103.316406,77.7441406 C103.316406,77.8938802 103.316406,77.96875 103.316406,77.96875 C103.316406,78.1184896 103.241536,78.2682292 103.091797,78.4179688 C103.091797,78.4179688 103.016927,78.4928385 102.867188,78.6425781 C102.717448,78.6425781 102.567708,78.6425781 102.417969,78.6425781 C102.268229,78.6425781 102.193359,78.6425781 102.193359,78.6425781 C102.04362,78.4928385 101.89388,78.4179688 101.744141,78.4179688 C101.594401,78.2682292 101.519531,78.1184896 101.519531,77.96875 C101.519531,77.96875 101.519531,77.8938802 101.519531,77.7441406 C101.519531,76.0970052 101.519531,74.0755208 101.519531,71.6796875 C101.519531,69.2838542 101.519531,66.5136719 101.519531,63.3691406 C101.369792,63.5188802 101.294922,63.59375 101.294922,63.59375 C101.145182,63.7434896 100.995443,63.8932292 100.845703,64.0429688 C100.695964,64.1927083 100.546224,64.2675781 100.396484,64.2675781 C100.396484,64.2675781 100.321615,64.2675781 100.171875,64.2675781 C100.022135,64.2675781 99.8723958,64.2675781 99.7226562,64.2675781 C99.5729167,64.2675781 99.4980469,64.1927083 99.4980469,64.0429688 C99.3483073,64.0429688 99.2734375,63.968099 99.2734375,63.8183594 C99.1236979,63.6686198 99.0488281,63.5188802 99.0488281,63.3691406 C99.0488281,63.219401 99.1236979,63.0696615 99.2734375,62.9199219 C99.2734375,62.9199219 99.3483073,62.8450521 99.4980469,62.6953125 C99.6477865,62.3958333 99.9472656,62.0963542 100.396484,61.796875 C100.845703,61.3476562 101.294922,60.8984375 101.744141,60.4492188 C101.89388,60.2994792 101.96875,60.2246094 101.96875,60.2246094 C102.11849,60.2246094 102.193359,60.1497396 102.193359,60 C102.343099,60 102.417969,60 102.417969,60 C102.417969,60 102.417969,60 102.417969,60 C102.567708,60 102.642578,60 102.642578,60 C102.792318,60 102.867188,60.0748698 102.867188,60.2246094 Z"/></svg>