<svg xmlns="http://www.w3.org/2000/svg" width="98" height="203" viewBox="0 0 98 203"><path fill="#131313" d="M5133.07812,117.439453 C5135.02474,118.188151 5136.44727,119.610677 5137.3457,121.707031 C5137.79492,122.755208 5138.01953,123.803385 5138.01953,124.851563 C5138.01953,125.89974 5137.79492,126.947917 5137.3457,127.996094 C5130.75716,143.419271 5120.94922,166.554036 5107.92188,197.400391 C5107.92188,197.69987 5107.84701,197.924479 5107.69727,198.074219 C5107.54753,198.223958 5107.47266,198.448568 5107.47266,198.748047 C5107.32292,198.748047 5107.24805,198.748047 5107.24805,198.748047 C5107.24805,198.748047 5107.24805,198.822917 5107.24805,198.972656 C5107.09831,199.122396 5106.94857,199.272135 5106.79883,199.421875 C5106.64909,199.571615 5106.57422,199.721354 5106.57422,199.871094 C5106.42448,199.871094 5106.34961,199.871094 5106.34961,199.871094 C5106.34961,200.020833 5106.27474,200.095703 5106.125,200.095703 C5105.97526,200.245443 5105.82552,200.395182 5105.67578,200.544922 C5105.52604,200.544922 5105.3763,200.619792 5105.22656,200.769531 C5105.22656,200.769531 5105.22656,200.844401 5105.22656,200.994141 C5105.22656,200.994141 5105.15169,200.994141 5105.00195,200.994141 C5104.85221,201.14388 5104.6276,201.29362 5104.32812,201.443359 C5104.17839,201.593099 5104.02865,201.667969 5103.87891,201.667969 C5103.72917,201.667969 5103.6543,201.667969 5103.6543,201.667969 C5103.6543,201.667969 5103.6543,201.667969 5103.6543,201.667969 C5103.6543,201.817708 5103.6543,201.892578 5103.6543,201.892578 C5103.50456,201.892578 5103.42969,201.892578 5103.42969,201.892578 C5103.27995,201.892578 5103.13021,201.967448 5102.98047,202.117188 C5102.68099,202.117188 5102.45638,202.117188 5102.30664,202.117188 C5102.30664,202.117188 5102.23177,202.117188 5102.08203,202.117188 C5102.08203,202.266927 5102.00716,202.341797 5101.85742,202.341797 C5101.70768,202.341797 5101.48307,202.341797 5101.18359,202.341797 C5101.03385,202.341797 5100.80924,202.341797 5100.50977,202.341797 C5100.50977,202.341797 5100.50977,202.341797 5100.50977,202.341797 C5100.50977,202.341797 5100.50977,202.341797 5100.50977,202.341797 C5100.50977,202.341797 5100.50977,202.341797 5100.50977,202.341797 C5100.50977,202.341797 5100.50977,202.341797 5100.50977,202.341797 C5100.21029,202.341797 5099.98568,202.341797 5099.83594,202.341797 C5099.53646,202.341797 5099.31185,202.341797 5099.16211,202.341797 C5099.01237,202.341797 5098.9375,202.266927 5098.9375,202.117188 C5098.78776,202.117188 5098.71289,202.117188 5098.71289,202.117188 C5098.56315,202.117188 5098.33854,202.117188 5098.03906,202.117188 C5097.88932,201.967448 5097.73958,201.892578 5097.58984,201.892578 C5097.58984,201.892578 5097.51497,201.892578 5097.36523,201.892578 C5097.36523,201.892578 5097.36523,201.817708 5097.36523,201.667969 C5097.36523,201.667969 5097.36523,201.667969 5097.36523,201.667969 C5097.36523,201.667969 5097.29036,201.667969 5097.14062,201.667969 C5096.99089,201.667969 5096.84115,201.593099 5096.69141,201.443359 C5096.39193,201.29362 5096.16732,201.14388 5096.01758,200.994141 C5095.86784,200.994141 5095.79297,200.994141 5095.79297,200.994141 C5095.79297,200.844401 5095.79297,200.769531 5095.79297,200.769531 C5095.64323,200.619792 5095.49349,200.544922 5095.34375,200.544922 C5095.19401,200.395182 5095.04427,200.245443 5094.89453,200.095703 C5094.74479,200.095703 5094.66992,200.020833 5094.66992,199.871094 C5094.66992,199.871094 5094.59505,199.871094 5094.44531,199.871094 C5094.44531,199.721354 5094.37044,199.571615 5094.2207,199.421875 C5094.07096,199.272135 5093.92122,199.122396 5093.77148,198.972656 C5093.77148,198.822917 5093.77148,198.748047 5093.77148,198.748047 C5093.77148,198.748047 5093.69661,198.748047 5093.54688,198.748047 C5093.54688,198.448568 5093.47201,198.223958 5093.32227,198.074219 C5093.17253,197.924479 5093.09766,197.69987 5093.09766,197.400391 C5086.50911,181.977214 5076.70117,158.842448 5063.67383,127.996094 C5063.22461,126.947917 5063,125.89974 5063,124.851563 C5063,123.803385 5063.22461,122.755208 5063.67383,121.707031 C5064.42253,119.610677 5065.84505,118.188151 5067.94141,117.439453 C5070.03776,116.541016 5072.13411,116.466146 5074.23047,117.214844 C5076.32682,118.113281 5077.82422,119.610677 5078.72266,121.707031 C5083.51432,133.08724 5090.77669,150.307292 5100.50977,173.367188 C5105.30143,161.83724 5112.5638,144.617188 5122.29688,121.707031 C5123.19531,119.610677 5124.69271,118.113281 5126.78906,117.214844 C5128.88542,116.466146 5130.98177,116.541016 5133.07812,117.439453 Z M5100.50977,147.761719 C5102.00716,144.167969 5104.32812,138.702474 5107.47266,131.365234 C5107.92188,131.664714 5108.5957,131.964193 5109.49414,132.263672 C5107.54753,137.055339 5104.55273,144.242839 5100.50977,153.826172 C5098.26367,148.435547 5094.89453,140.424479 5090.40234,129.792969 C5090.55208,129.792969 5090.77669,129.718099 5091.07617,129.568359 C5091.22591,129.568359 5091.37565,129.568359 5091.52539,129.568359 C5091.67513,129.41862 5091.82487,129.26888 5091.97461,129.119141 C5092.12435,129.119141 5092.27409,129.044271 5092.42383,128.894531 C5093.77148,132.039062 5095.11914,135.183594 5096.4668,138.328125 C5097.81445,141.472656 5099.16211,144.617188 5100.50977,147.761719 Z M5085.68555,126.648438 C5085.98503,127.546875 5086.58398,128.220703 5087.48242,128.669922 C5088.38086,129.119141 5089.2793,129.34375 5090.17773,129.34375 C5090.17773,129.34375 5090.2526,129.49349 5090.40234,129.792969 C5089.35417,129.942708 5088.30599,129.792969 5087.25781,129.34375 C5086.20964,128.744792 5085.46094,127.921224 5085.01172,126.873047 C5084.5625,125.67513 5084.5625,124.402344 5085.01172,123.054688 C5085.61068,121.856771 5086.50911,120.958333 5087.70703,120.359375 C5088.90495,119.910156 5090.17773,119.910156 5091.52539,120.359375 C5092.72331,120.958333 5093.54688,121.856771 5093.99609,123.054688 C5094.44531,124.102865 5094.52018,125.151042 5094.2207,126.199219 C5093.92122,127.397135 5093.32227,128.295573 5092.42383,128.894531 C5092.42383,128.744792 5092.34896,128.595052 5092.19922,128.445312 C5092.94792,127.846354 5093.47201,127.022786 5093.77148,125.974609 C5094.07096,125.076172 5093.99609,124.177734 5093.54688,123.279297 C5093.09766,122.23112 5092.34896,121.482422 5091.30078,121.033203 C5090.10286,120.583984 5088.97982,120.583984 5087.93164,121.033203 C5086.88346,121.482422 5086.13477,122.23112 5085.68555,123.279297 C5085.23633,124.477214 5085.23633,125.60026 5085.68555,126.648438 Z M5092.42383,128.894531 C5092.27409,129.044271 5092.12435,129.119141 5091.97461,129.119141 C5091.82487,129.26888 5091.67513,129.41862 5091.52539,129.568359 C5091.37565,129.568359 5091.15104,129.568359 5090.85156,129.568359 C5090.70182,129.718099 5090.55208,129.792969 5090.40234,129.792969 C5090.40234,129.643229 5090.32747,129.41862 5090.17773,129.119141 C5090.32747,129.119141 5090.47721,129.119141 5090.62695,129.119141 C5090.92643,129.119141 5091.15104,129.044271 5091.30078,128.894531 C5091.45052,128.894531 5091.60026,128.819661 5091.75,128.669922 C5091.89974,128.520182 5092.04948,128.445312 5092.19922,128.445312 C5092.34896,128.445312 5092.42383,128.520182 5092.42383,128.669922 C5092.42383,128.669922 5092.42383,128.744792 5092.42383,128.894531 Z M5093.54688,123.279297 C5093.99609,124.177734 5094.07096,125.076172 5093.77148,125.974609 C5093.47201,127.022786 5092.94792,127.771484 5092.19922,128.220703 C5092.19922,128.220703 5092.12435,128.070964 5091.97461,127.771484 C5092.57357,127.322266 5093.02279,126.648438 5093.32227,125.75 C5093.47201,125.001302 5093.39714,124.252604 5093.09766,123.503906 C5093.09766,123.503906 5093.09766,123.503906 5093.09766,123.503906 C5093.09766,123.653646 5093.09766,123.728516 5093.09766,123.728516 C5093.09766,123.728516 5093.09766,123.728516 5093.09766,123.728516 C5093.09766,123.728516 5093.17253,123.803385 5093.32227,123.953125 C5093.32227,123.953125 5093.32227,123.953125 5093.32227,123.953125 C5093.32227,123.953125 5093.32227,123.953125 5093.32227,123.953125 C5093.32227,123.953125 5093.32227,123.953125 5093.32227,123.953125 C5093.32227,123.953125 5093.32227,123.953125 5093.32227,123.953125 C5093.17253,123.803385 5093.09766,123.728516 5093.09766,123.728516 C5093.09766,123.728516 5093.09766,123.728516 5093.09766,123.728516 C5093.09766,123.728516 5093.09766,123.653646 5093.09766,123.503906 C5093.09766,123.503906 5093.09766,123.503906 5093.09766,123.503906 C5093.09766,123.503906 5093.09766,123.429036 5093.09766,123.279297 C5092.94792,123.279297 5092.87305,123.279297 5092.87305,123.279297 C5092.87305,123.279297 5092.87305,123.279297 5092.87305,123.279297 C5092.87305,123.129557 5092.87305,123.054688 5092.87305,123.054688 C5092.87305,123.054688 5092.87305,123.129557 5092.87305,123.279297 C5092.87305,123.279297 5092.87305,123.279297 5092.87305,123.279297 C5092.87305,123.279297 5092.94792,123.279297 5093.09766,123.279297 C5093.09766,123.429036 5093.09766,123.503906 5093.09766,123.503906 C5092.64844,122.605469 5091.97461,121.931641 5091.07617,121.482422 C5090.02799,121.033203 5089.05469,121.033203 5088.15625,121.482422 C5087.25781,121.931641 5086.58398,122.605469 5086.13477,123.503906 C5085.68555,124.552083 5085.68555,125.525391 5086.13477,126.423828 C5086.43424,127.172526 5086.95833,127.771484 5087.70703,128.220703 C5088.45573,128.520182 5089.20443,128.669922 5089.95312,128.669922 C5089.95312,128.819661 5090.02799,128.969401 5090.17773,129.119141 C5089.2793,129.26888 5088.38086,129.119141 5087.48242,128.669922 C5086.58398,128.220703 5085.98503,127.546875 5085.68555,126.648438 C5085.23633,125.60026 5085.23633,124.477214 5085.68555,123.279297 C5086.13477,122.23112 5086.88346,121.482422 5087.93164,121.033203 C5088.97982,120.583984 5090.10286,120.583984 5091.30078,121.033203 C5092.34896,121.482422 5093.09766,122.23112 5093.54688,123.279297 Z M5093.09766,123.953125 C5093.09766,123.803385 5093.09766,123.728516 5093.09766,123.728516 C5093.09766,123.728516 5093.09766,123.728516 5093.09766,123.728516 C5093.09766,123.728516 5093.09766,123.728516 5093.09766,123.728516 C5093.09766,123.728516 5093.09766,123.803385 5093.09766,123.953125 Z M5092.87305,123.279297 C5092.87305,123.279297 5092.87305,123.279297 5092.87305,123.279297 C5093.02279,123.429036 5093.09766,123.503906 5093.09766,123.503906 C5093.09766,123.503906 5093.02279,123.429036 5092.87305,123.279297 C5092.87305,123.279297 5092.87305,123.279297 5092.87305,123.279297 Z M5091.07617,128.445312 C5091.22591,128.295573 5091.37565,128.220703 5091.52539,128.220703 C5091.67513,128.070964 5091.82487,127.921224 5091.97461,127.771484 C5092.12435,127.921224 5092.19922,128.145833 5092.19922,128.445312 C5092.04948,128.445312 5091.89974,128.520182 5091.75,128.669922 C5091.60026,128.819661 5091.45052,128.894531 5091.30078,128.894531 C5091.15104,129.044271 5090.92643,129.119141 5090.62695,129.119141 C5090.47721,129.119141 5090.32747,129.119141 5090.17773,129.119141 C5090.17773,129.119141 5090.10286,128.969401 5089.95312,128.669922 C5090.10286,128.669922 5090.2526,128.669922 5090.40234,128.669922 C5090.70182,128.520182 5090.92643,128.445312 5091.07617,128.445312 Z M5105.45117,130.691406 C5107.24805,128.445312 5109.86849,125.001302 5113.3125,120.359375 C5112.86328,123.204427 5112.26432,127.472005 5111.51562,133.162109 C5111.06641,133.01237 5110.39258,132.78776 5109.49414,132.488281 C5109.79362,131.889323 5110.0931,131.140625 5110.39258,130.242188 C5109.94336,130.092448 5109.26953,129.792969 5108.37109,129.34375 C5108.07161,129.792969 5107.77214,130.541667 5107.47266,131.589844 C5107.02344,131.290365 5106.34961,130.990885 5105.45117,130.691406 Z M5107.47266,131.365234 C5107.6224,130.916016 5107.92188,130.242188 5108.37109,129.34375 C5108.82031,129.49349 5109.49414,129.792969 5110.39258,130.242188 C5110.24284,130.691406 5109.94336,131.365234 5109.49414,132.263672 C5109.04492,132.113932 5108.37109,131.814453 5107.47266,131.365234 Z M5081.86719,97.2246094 C5082.01693,97.2246094 5082.0918,97.2246094 5082.0918,97.2246094 C5082.0918,97.374349 5082.16667,97.4492188 5082.31641,97.4492188 C5082.31641,97.5989583 5082.31641,97.6738281 5082.31641,97.6738281 C5082.31641,97.8235677 5082.31641,97.9733073 5082.31641,98.1230469 C5082.31641,99.9199219 5082.31641,102.240885 5082.31641,105.085938 C5082.31641,107.78125 5082.31641,111.000651 5082.31641,114.744141 C5082.31641,114.89388 5082.31641,114.96875 5082.31641,114.96875 C5082.31641,115.11849 5082.24154,115.268229 5082.0918,115.417969 C5082.0918,115.417969 5082.01693,115.492839 5081.86719,115.642578 C5081.71745,115.642578 5081.56771,115.642578 5081.41797,115.642578 C5081.26823,115.642578 5081.19336,115.642578 5081.19336,115.642578 C5081.04362,115.492839 5080.89388,115.417969 5080.74414,115.417969 C5080.5944,115.268229 5080.51953,115.11849 5080.51953,114.96875 C5080.51953,114.96875 5080.51953,114.89388 5080.51953,114.744141 C5080.51953,113.097005 5080.51953,111.075521 5080.51953,108.679688 C5080.51953,106.283854 5080.51953,103.513672 5080.51953,100.369141 C5080.36979,100.51888 5080.29492,100.59375 5080.29492,100.59375 C5080.14518,100.74349 5079.99544,100.893229 5079.8457,101.042969 C5079.69596,101.192708 5079.54622,101.267578 5079.39648,101.267578 C5079.39648,101.267578 5079.32161,101.267578 5079.17188,101.267578 C5079.02214,101.267578 5078.8724,101.267578 5078.72266,101.267578 C5078.57292,101.267578 5078.49805,101.192708 5078.49805,101.042969 C5078.34831,101.042969 5078.27344,100.968099 5078.27344,100.818359 C5078.1237,100.66862 5078.04883,100.51888 5078.04883,100.369141 C5078.04883,100.219401 5078.1237,100.069661 5078.27344,99.9199219 C5078.27344,99.9199219 5078.34831,99.8450521 5078.49805,99.6953125 C5078.64779,99.3958333 5078.94727,99.0963542 5079.39648,98.796875 C5079.8457,98.3476562 5080.29492,97.8984375 5080.74414,97.4492188 C5080.89388,97.2994792 5080.96875,97.2246094 5080.96875,97.2246094 C5081.11849,97.2246094 5081.19336,97.1497396 5081.19336,97 C5081.3431,97 5081.41797,97 5081.41797,97 C5081.41797,97 5081.41797,97 5081.41797,97 C5081.56771,97 5081.64258,97 5081.64258,97 C5081.79232,97 5081.86719,97.0748698 5081.86719,97.2246094 Z" transform="translate(-5053)"/></svg>