<svg xmlns="http://www.w3.org/2000/svg" width="98" height="203" viewBox="0 0 98 203"><path fill="#131313" d="M5133.07812,68.4394531 C5135.02474,69.188151 5136.44727,70.6106771 5137.3457,72.7070313 C5137.79492,73.7552083 5138.01953,74.8033854 5138.01953,75.8515625 C5138.01953,76.8997396 5137.79492,77.9479167 5137.3457,78.9960938 C5130.75716,94.4192708 5120.94922,117.554036 5107.92187,148.400391 C5107.92187,148.69987 5107.84701,148.924479 5107.69727,149.074219 C5107.54753,149.223958 5107.47266,149.448568 5107.47266,149.748047 C5107.32292,149.748047 5107.24805,149.748047 5107.24805,149.748047 C5107.24805,149.748047 5107.24805,149.822917 5107.24805,149.972656 C5107.09831,150.122396 5106.94857,150.272135 5106.79883,150.421875 C5106.64909,150.571615 5106.57422,150.721354 5106.57422,150.871094 C5106.42448,150.871094 5106.34961,150.871094 5106.34961,150.871094 C5106.34961,151.020833 5106.27474,151.095703 5106.125,151.095703 C5105.97526,151.245443 5105.82552,151.395182 5105.67578,151.544922 C5105.52604,151.544922 5105.3763,151.619792 5105.22656,151.769531 C5105.22656,151.769531 5105.22656,151.844401 5105.22656,151.994141 C5105.22656,151.994141 5105.15169,151.994141 5105.00195,151.994141 C5104.85221,152.14388 5104.6276,152.29362 5104.32812,152.443359 C5104.17839,152.593099 5104.02865,152.667969 5103.87891,152.667969 C5103.72917,152.667969 5103.6543,152.667969 5103.6543,152.667969 C5103.6543,152.667969 5103.6543,152.667969 5103.6543,152.667969 C5103.6543,152.817708 5103.6543,152.892578 5103.6543,152.892578 C5103.50456,152.892578 5103.42969,152.892578 5103.42969,152.892578 C5103.27995,152.892578 5103.13021,152.967448 5102.98047,153.117188 C5102.68099,153.117188 5102.45638,153.117188 5102.30664,153.117188 C5102.30664,153.117188 5102.23177,153.117188 5102.08203,153.117188 C5102.08203,153.266927 5102.00716,153.341797 5101.85742,153.341797 C5101.70768,153.341797 5101.48307,153.341797 5101.18359,153.341797 C5101.03385,153.341797 5100.80924,153.341797 5100.50977,153.341797 C5100.50977,153.341797 5100.50977,153.341797 5100.50977,153.341797 C5100.50977,153.341797 5100.50977,153.341797 5100.50977,153.341797 C5100.50977,153.341797 5100.50977,153.341797 5100.50977,153.341797 C5100.50977,153.341797 5100.50977,153.341797 5100.50977,153.341797 C5100.21029,153.341797 5099.98568,153.341797 5099.83594,153.341797 C5099.53646,153.341797 5099.31185,153.341797 5099.16211,153.341797 C5099.01237,153.341797 5098.9375,153.266927 5098.9375,153.117188 C5098.78776,153.117188 5098.71289,153.117188 5098.71289,153.117188 C5098.56315,153.117188 5098.33854,153.117188 5098.03906,153.117188 C5097.88932,152.967448 5097.73958,152.892578 5097.58984,152.892578 C5097.58984,152.892578 5097.51497,152.892578 5097.36523,152.892578 C5097.36523,152.892578 5097.36523,152.817708 5097.36523,152.667969 C5097.36523,152.667969 5097.36523,152.667969 5097.36523,152.667969 C5097.36523,152.667969 5097.29036,152.667969 5097.14062,152.667969 C5096.99089,152.667969 5096.84115,152.593099 5096.69141,152.443359 C5096.39193,152.29362 5096.16732,152.14388 5096.01758,151.994141 C5095.86784,151.994141 5095.79297,151.994141 5095.79297,151.994141 C5095.79297,151.844401 5095.79297,151.769531 5095.79297,151.769531 C5095.64323,151.619792 5095.49349,151.544922 5095.34375,151.544922 C5095.19401,151.395182 5095.04427,151.245443 5094.89453,151.095703 C5094.74479,151.095703 5094.66992,151.020833 5094.66992,150.871094 C5094.66992,150.871094 5094.59505,150.871094 5094.44531,150.871094 C5094.44531,150.721354 5094.37044,150.571615 5094.2207,150.421875 C5094.07096,150.272135 5093.92122,150.122396 5093.77148,149.972656 C5093.77148,149.822917 5093.77148,149.748047 5093.77148,149.748047 C5093.77148,149.748047 5093.69661,149.748047 5093.54687,149.748047 C5093.54687,149.448568 5093.47201,149.223958 5093.32227,149.074219 C5093.17253,148.924479 5093.09766,148.69987 5093.09766,148.400391 C5086.50911,132.977214 5076.70117,109.842448 5063.67383,78.9960938 C5063.22461,77.9479167 5063,76.8997396 5063,75.8515625 C5063,74.8033854 5063.22461,73.7552083 5063.67383,72.7070313 C5064.42253,70.6106771 5065.84505,69.188151 5067.94141,68.4394531 C5070.03776,67.5410156 5072.13411,67.4661458 5074.23047,68.2148438 C5076.32682,69.1132813 5077.82422,70.6106771 5078.72266,72.7070313 C5083.51432,84.0872396 5090.77669,101.307292 5100.50977,124.367188 C5105.30143,112.83724 5112.5638,95.6171875 5122.29687,72.7070313 C5123.19531,70.6106771 5124.69271,69.1132813 5126.78906,68.2148438 C5128.88542,67.4661458 5130.98177,67.5410156 5133.07812,68.4394531 Z M5100.50977,98.7617188 C5102.00716,95.1679688 5104.32812,89.702474 5107.47266,82.3652344 C5107.92187,82.6647135 5108.5957,82.9641927 5109.49414,83.2636719 C5107.54753,88.0553385 5104.55273,95.2428385 5100.50977,104.826172 C5098.26367,99.4355469 5094.89453,91.4244792 5090.40234,80.7929688 C5090.55208,80.7929688 5090.77669,80.718099 5091.07617,80.5683594 C5091.22591,80.5683594 5091.37565,80.5683594 5091.52539,80.5683594 C5091.67513,80.4186198 5091.82487,80.2688802 5091.97461,80.1191406 C5092.12435,80.1191406 5092.27409,80.0442708 5092.42383,79.8945312 C5093.77148,83.0390625 5095.11914,86.1835938 5096.4668,89.328125 C5097.81445,92.4726563 5099.16211,95.6171875 5100.50977,98.7617188 Z M5085.68555,77.6484375 C5085.98503,78.546875 5086.58398,79.2207031 5087.48242,79.6699219 C5088.38086,80.1191406 5089.2793,80.34375 5090.17773,80.34375 C5090.17773,80.34375 5090.2526,80.4934896 5090.40234,80.7929688 C5089.35417,80.9427083 5088.30599,80.7929688 5087.25781,80.34375 C5086.20964,79.7447917 5085.46094,78.921224 5085.01172,77.8730469 C5084.5625,76.6751302 5084.5625,75.4023438 5085.01172,74.0546875 C5085.61068,72.8567708 5086.50911,71.9583333 5087.70703,71.359375 C5088.90495,70.9101562 5090.17773,70.9101562 5091.52539,71.359375 C5092.72331,71.9583333 5093.54687,72.8567708 5093.99609,74.0546875 C5094.44531,75.1028646 5094.52018,76.1510417 5094.2207,77.1992188 C5093.92122,78.3971354 5093.32227,79.2955729 5092.42383,79.8945312 C5092.42383,79.7447917 5092.34896,79.5950521 5092.19922,79.4453125 C5092.94792,78.8463542 5093.47201,78.0227865 5093.77148,76.9746094 C5094.07096,76.0761719 5093.99609,75.1777344 5093.54687,74.2792969 C5093.09766,73.2311198 5092.34896,72.4824219 5091.30078,72.0332031 C5090.10286,71.5839844 5088.97982,71.5839844 5087.93164,72.0332031 C5086.88346,72.4824219 5086.13477,73.2311198 5085.68555,74.2792969 C5085.23633,75.4772135 5085.23633,76.6002604 5085.68555,77.6484375 Z M5092.42383,79.8945312 C5092.27409,80.0442708 5092.12435,80.1191406 5091.97461,80.1191406 C5091.82487,80.2688802 5091.67513,80.4186198 5091.52539,80.5683594 C5091.37565,80.5683594 5091.15104,80.5683594 5090.85156,80.5683594 C5090.70182,80.718099 5090.55208,80.7929688 5090.40234,80.7929688 C5090.40234,80.6432292 5090.32747,80.4186198 5090.17773,80.1191406 C5090.32747,80.1191406 5090.47721,80.1191406 5090.62695,80.1191406 C5090.92643,80.1191406 5091.15104,80.0442708 5091.30078,79.8945312 C5091.45052,79.8945312 5091.60026,79.8196615 5091.75,79.6699219 C5091.89974,79.5201823 5092.04948,79.4453125 5092.19922,79.4453125 C5092.34896,79.4453125 5092.42383,79.5201823 5092.42383,79.6699219 C5092.42383,79.6699219 5092.42383,79.7447917 5092.42383,79.8945312 Z M5093.54687,74.2792969 C5093.99609,75.1777344 5094.07096,76.0761719 5093.77148,76.9746094 C5093.47201,78.0227865 5092.94792,78.7714844 5092.19922,79.2207031 C5092.19922,79.2207031 5092.12435,79.0709635 5091.97461,78.7714844 C5092.57357,78.3222656 5093.02279,77.6484375 5093.32227,76.75 C5093.47201,76.0013021 5093.39714,75.2526042 5093.09766,74.5039062 C5093.09766,74.5039062 5093.09766,74.5039062 5093.09766,74.5039062 C5093.09766,74.6536458 5093.09766,74.7285156 5093.09766,74.7285156 C5093.09766,74.7285156 5093.09766,74.7285156 5093.09766,74.7285156 C5093.09766,74.7285156 5093.17253,74.8033854 5093.32227,74.953125 C5093.32227,74.953125 5093.32227,74.953125 5093.32227,74.953125 C5093.32227,74.953125 5093.32227,74.953125 5093.32227,74.953125 C5093.32227,74.953125 5093.32227,74.953125 5093.32227,74.953125 C5093.32227,74.953125 5093.32227,74.953125 5093.32227,74.953125 C5093.17253,74.8033854 5093.09766,74.7285156 5093.09766,74.7285156 C5093.09766,74.7285156 5093.09766,74.7285156 5093.09766,74.7285156 C5093.09766,74.7285156 5093.09766,74.6536458 5093.09766,74.5039062 C5093.09766,74.5039062 5093.09766,74.5039062 5093.09766,74.5039062 C5093.09766,74.5039062 5093.09766,74.4290365 5093.09766,74.2792969 C5092.94792,74.2792969 5092.87305,74.2792969 5092.87305,74.2792969 C5092.87305,74.2792969 5092.87305,74.2792969 5092.87305,74.2792969 C5092.87305,74.1295573 5092.87305,74.0546875 5092.87305,74.0546875 C5092.87305,74.0546875 5092.87305,74.1295573 5092.87305,74.2792969 C5092.87305,74.2792969 5092.87305,74.2792969 5092.87305,74.2792969 C5092.87305,74.2792969 5092.94792,74.2792969 5093.09766,74.2792969 C5093.09766,74.4290365 5093.09766,74.5039062 5093.09766,74.5039062 C5092.64844,73.6054688 5091.97461,72.9316406 5091.07617,72.4824219 C5090.02799,72.0332031 5089.05469,72.0332031 5088.15625,72.4824219 C5087.25781,72.9316406 5086.58398,73.6054688 5086.13477,74.5039062 C5085.68555,75.5520833 5085.68555,76.5253906 5086.13477,77.4238281 C5086.43424,78.172526 5086.95833,78.7714844 5087.70703,79.2207031 C5088.45573,79.5201823 5089.20443,79.6699219 5089.95312,79.6699219 C5089.95312,79.8196615 5090.02799,79.969401 5090.17773,80.1191406 C5089.2793,80.2688802 5088.38086,80.1191406 5087.48242,79.6699219 C5086.58398,79.2207031 5085.98503,78.546875 5085.68555,77.6484375 C5085.23633,76.6002604 5085.23633,75.4772135 5085.68555,74.2792969 C5086.13477,73.2311198 5086.88346,72.4824219 5087.93164,72.0332031 C5088.97982,71.5839844 5090.10286,71.5839844 5091.30078,72.0332031 C5092.34896,72.4824219 5093.09766,73.2311198 5093.54687,74.2792969 Z M5093.09766,74.953125 C5093.09766,74.8033854 5093.09766,74.7285156 5093.09766,74.7285156 C5093.09766,74.7285156 5093.09766,74.7285156 5093.09766,74.7285156 C5093.09766,74.7285156 5093.09766,74.7285156 5093.09766,74.7285156 C5093.09766,74.7285156 5093.09766,74.8033854 5093.09766,74.953125 Z M5092.87305,74.2792969 C5092.87305,74.2792969 5092.87305,74.2792969 5092.87305,74.2792969 C5093.02279,74.4290365 5093.09766,74.5039062 5093.09766,74.5039062 C5093.09766,74.5039062 5093.02279,74.4290365 5092.87305,74.2792969 C5092.87305,74.2792969 5092.87305,74.2792969 5092.87305,74.2792969 Z M5091.07617,79.4453125 C5091.22591,79.2955729 5091.37565,79.2207031 5091.52539,79.2207031 C5091.67513,79.0709635 5091.82487,78.921224 5091.97461,78.7714844 C5092.12435,78.921224 5092.19922,79.1458333 5092.19922,79.4453125 C5092.04948,79.4453125 5091.89974,79.5201823 5091.75,79.6699219 C5091.60026,79.8196615 5091.45052,79.8945312 5091.30078,79.8945312 C5091.15104,80.0442708 5090.92643,80.1191406 5090.62695,80.1191406 C5090.47721,80.1191406 5090.32747,80.1191406 5090.17773,80.1191406 C5090.17773,80.1191406 5090.10286,79.969401 5089.95312,79.6699219 C5090.10286,79.6699219 5090.2526,79.6699219 5090.40234,79.6699219 C5090.70182,79.5201823 5090.92643,79.4453125 5091.07617,79.4453125 Z M5105.45117,81.6914062 C5107.24805,79.4453125 5109.86849,76.0013021 5113.3125,71.359375 C5112.86328,74.2044271 5112.26432,78.4720052 5111.51562,84.1621094 C5111.06641,84.0123698 5110.39258,83.7877604 5109.49414,83.4882812 C5109.79362,82.8893229 5110.0931,82.140625 5110.39258,81.2421875 C5109.94336,81.0924479 5109.26953,80.7929688 5108.37109,80.34375 C5108.07161,80.7929688 5107.77214,81.5416667 5107.47266,82.5898438 C5107.02344,82.2903646 5106.34961,81.9908854 5105.45117,81.6914062 Z M5107.47266,82.3652344 C5107.6224,81.9160156 5107.92187,81.2421875 5108.37109,80.34375 C5108.82031,80.4934896 5109.49414,80.7929688 5110.39258,81.2421875 C5110.24284,81.6914062 5109.94336,82.3652344 5109.49414,83.2636719 C5109.04492,83.1139323 5108.37109,82.8144531 5107.47266,82.3652344 Z M5081.86719,48.2246094 C5082.01693,48.2246094 5082.0918,48.2246094 5082.0918,48.2246094 C5082.0918,48.374349 5082.16667,48.4492188 5082.31641,48.4492188 C5082.31641,48.5989583 5082.31641,48.6738281 5082.31641,48.6738281 C5082.31641,48.8235677 5082.31641,48.9733073 5082.31641,49.1230469 C5082.31641,50.9199219 5082.31641,53.2408854 5082.31641,56.0859375 C5082.31641,58.78125 5082.31641,62.000651 5082.31641,65.7441406 C5082.31641,65.8938802 5082.31641,65.96875 5082.31641,65.96875 C5082.31641,66.1184896 5082.24154,66.2682292 5082.0918,66.4179688 C5082.0918,66.4179688 5082.01693,66.4928385 5081.86719,66.6425781 C5081.71745,66.6425781 5081.56771,66.6425781 5081.41797,66.6425781 C5081.26823,66.6425781 5081.19336,66.6425781 5081.19336,66.6425781 C5081.04362,66.4928385 5080.89388,66.4179688 5080.74414,66.4179688 C5080.5944,66.2682292 5080.51953,66.1184896 5080.51953,65.96875 C5080.51953,65.96875 5080.51953,65.8938802 5080.51953,65.7441406 C5080.51953,64.0970052 5080.51953,62.0755208 5080.51953,59.6796875 C5080.51953,57.2838542 5080.51953,54.5136719 5080.51953,51.3691406 C5080.36979,51.5188802 5080.29492,51.59375 5080.29492,51.59375 C5080.14518,51.7434896 5079.99544,51.8932292 5079.8457,52.0429688 C5079.69596,52.1927083 5079.54622,52.2675781 5079.39648,52.2675781 C5079.39648,52.2675781 5079.32161,52.2675781 5079.17187,52.2675781 C5079.02214,52.2675781 5078.8724,52.2675781 5078.72266,52.2675781 C5078.57292,52.2675781 5078.49805,52.1927083 5078.49805,52.0429688 C5078.34831,52.0429688 5078.27344,51.968099 5078.27344,51.8183594 C5078.1237,51.6686198 5078.04883,51.5188802 5078.04883,51.3691406 C5078.04883,51.219401 5078.1237,51.0696615 5078.27344,50.9199219 C5078.27344,50.9199219 5078.34831,50.8450521 5078.49805,50.6953125 C5078.64779,50.3958333 5078.94727,50.0963542 5079.39648,49.796875 C5079.8457,49.3476562 5080.29492,48.8984375 5080.74414,48.4492188 C5080.89388,48.2994792 5080.96875,48.2246094 5080.96875,48.2246094 C5081.11849,48.2246094 5081.19336,48.1497396 5081.19336,48 C5081.3431,48 5081.41797,48 5081.41797,48 C5081.41797,48 5081.41797,48 5081.41797,48 C5081.56771,48 5081.64258,48 5081.64258,48 C5081.79232,48 5081.86719,48.0748698 5081.86719,48.2246094 Z" transform="translate(-5053 -12)"/></svg>