<svg xmlns="http://www.w3.org/2000/svg" width="120" height="203" viewBox="0 0 120 203"><path fill="#131313" d="M4713.91488,60.9619141 C4715.97543,61.3740234 4717.55518,62.4042969 4718.65414,64.0527344 C4719.47836,65.4264323 4719.89047,66.8001302 4719.89047,68.1738281 C4719.89047,68.7233073 4719.89047,69.2727865 4719.89047,69.8222656 C4714.53305,98.1204427 4706.5656,140.567708 4695.98812,197.164063 C4695.98812,197.164063 4695.98812,197.164063 4695.98812,197.164063 C4695.98812,197.164063 4695.98812,197.164063 4695.98812,197.164063 C4695.85076,197.301432 4695.78207,197.438802 4695.78207,197.576172 C4695.78207,197.576172 4695.78207,197.644857 4695.78207,197.782227 C4695.6447,197.919596 4695.57602,198.056966 4695.57602,198.194336 C4695.57602,198.331706 4695.50733,198.469076 4695.36996,198.606445 C4695.36996,198.606445 4695.36996,198.67513 4695.36996,198.8125 C4695.36996,198.94987 4695.30128,199.018555 4695.16391,199.018555 C4695.16391,199.155924 4695.09522,199.293294 4694.95785,199.430664 C4694.95785,199.568034 4694.88917,199.705404 4694.7518,199.842773 C4694.7518,199.842773 4694.7518,199.911458 4694.7518,200.048828 C4694.61443,200.048828 4694.54574,200.117513 4694.54574,200.254883 C4694.40837,200.392253 4694.33969,200.460937 4694.33969,200.460937 C4694.20232,200.598307 4694.06495,200.735677 4693.92758,200.873047 C4693.92758,200.873047 4693.85889,200.941732 4693.72152,201.079102 C4693.72152,201.079102 4693.65284,201.147786 4693.51547,201.285156 C4693.51547,201.422526 4693.44678,201.491211 4693.30941,201.491211 C4693.17204,201.628581 4693.03467,201.697266 4692.8973,201.697266 C4692.8973,201.834635 4692.82862,201.90332 4692.69125,201.90332 C4692.69125,202.04069 4692.62257,202.109375 4692.4852,202.109375 C4692.34783,202.246745 4692.21046,202.31543 4692.07309,202.31543 C4691.93572,202.31543 4691.79835,202.384115 4691.66098,202.521484 C4691.66098,202.521484 4691.59229,202.521484 4691.45492,202.521484 C4691.45492,202.658854 4691.38624,202.727539 4691.24887,202.727539 C4691.1115,202.727539 4690.90544,202.796224 4690.6307,202.933594 C4690.49333,202.933594 4690.28728,203.002279 4690.01254,203.139648 C4690.01254,203.139648 4690.01254,203.139648 4690.01254,203.139648 C4690.01254,203.139648 4690.01254,203.139648 4690.01254,203.139648 C4690.01254,203.139648 4690.01254,203.139648 4690.01254,203.139648 C4690.01254,203.139648 4690.01254,203.139648 4690.01254,203.139648 C4689.7378,203.139648 4689.46306,203.139648 4689.18832,203.139648 C4689.05095,203.139648 4688.8449,203.139648 4688.57016,203.139648 C4688.29542,203.139648 4688.08936,203.139648 4687.95199,203.139648 C4687.67725,203.139648 4687.40251,203.139648 4687.12777,203.139648 C4687.12777,203.139648 4687.12777,203.139648 4687.12777,203.139648 C4687.12777,203.139648 4687.12777,203.139648 4687.12777,203.139648 C4687.12777,203.139648 4687.12777,203.139648 4687.12777,203.139648 C4687.12777,203.139648 4687.12777,203.139648 4687.12777,203.139648 C4686.85303,203.002279 4686.64698,202.933594 4686.50961,202.933594 C4686.23487,202.796224 4686.02882,202.727539 4685.89145,202.727539 C4685.75408,202.727539 4685.68539,202.658854 4685.68539,202.521484 C4685.54802,202.521484 4685.47934,202.521484 4685.47934,202.521484 C4685.34197,202.384115 4685.2046,202.31543 4685.06723,202.31543 C4684.92986,202.31543 4684.79249,202.246745 4684.65512,202.109375 C4684.51775,202.109375 4684.44906,202.04069 4684.44906,201.90332 C4684.31169,201.90332 4684.24301,201.834635 4684.24301,201.697266 C4684.10564,201.697266 4683.96827,201.628581 4683.8309,201.491211 C4683.69353,201.491211 4683.62484,201.422526 4683.62484,201.285156 C4683.48747,201.147786 4683.41879,201.079102 4683.41879,201.079102 C4683.28142,200.941732 4683.21273,200.873047 4683.21273,200.873047 C4683.07536,200.735677 4682.93799,200.598307 4682.80062,200.460937 C4682.80062,200.460937 4682.73194,200.392253 4682.59457,200.254883 C4682.59457,200.117513 4682.52589,200.048828 4682.38852,200.048828 C4682.38852,199.911458 4682.38852,199.842773 4682.38852,199.842773 C4682.25115,199.705404 4682.11378,199.568034 4681.97641,199.430664 C4681.97641,199.293294 4681.97641,199.155924 4681.97641,199.018555 C4681.83904,199.018555 4681.77035,198.94987 4681.77035,198.8125 C4681.77035,198.67513 4681.70167,198.606445 4681.5643,198.606445 C4681.5643,198.469076 4681.5643,198.331706 4681.5643,198.194336 C4681.42693,198.056966 4681.35824,197.919596 4681.35824,197.782227 C4681.35824,197.644857 4681.35824,197.576172 4681.35824,197.576172 C4681.35824,197.438802 4681.28956,197.301432 4681.15219,197.164063 C4681.15219,197.164063 4681.15219,197.164063 4681.15219,197.164063 C4681.15219,197.164063 4681.15219,197.164063 4681.15219,197.164063 C4677.4432,177.520182 4671.94841,148.054362 4664.66781,108.766602 C4660.95883,128.410482 4655.39535,157.876302 4647.97738,197.164063 C4647.97738,197.164063 4647.97738,197.164063 4647.97738,197.164063 C4647.97738,197.164063 4647.97738,197.164063 4647.97738,197.164063 C4647.97738,197.301432 4647.97738,197.438802 4647.97738,197.576172 C4647.97738,197.576172 4647.9087,197.644857 4647.77133,197.782227 C4647.77133,197.919596 4647.77133,198.056966 4647.77133,198.194336 C4647.77133,198.331706 4647.70264,198.469076 4647.56527,198.606445 C4647.56527,198.606445 4647.56527,198.67513 4647.56527,198.8125 C4647.4279,198.94987 4647.35922,199.018555 4647.35922,199.018555 C4647.35922,199.155924 4647.29053,199.293294 4647.15316,199.430664 C4647.15316,199.568034 4647.08448,199.705404 4646.94711,199.842773 C4646.94711,199.842773 4646.87842,199.911458 4646.74105,200.048828 C4646.74105,200.048828 4646.74105,200.117513 4646.74105,200.254883 C4646.60368,200.392253 4646.46632,200.460937 4646.32895,200.460937 C4646.32895,200.598307 4646.26026,200.735677 4646.12289,200.873047 C4646.12289,200.873047 4646.05421,200.941732 4645.91684,201.079102 C4645.91684,201.079102 4645.84815,201.147786 4645.71078,201.285156 C4645.57341,201.422526 4645.50473,201.491211 4645.50473,201.491211 C4645.36736,201.628581 4645.22999,201.697266 4645.09262,201.697266 C4645.09262,201.834635 4645.02393,201.90332 4644.88656,201.90332 C4644.74919,202.04069 4644.68051,202.109375 4644.68051,202.109375 C4644.54314,202.246745 4644.40577,202.31543 4644.2684,202.31543 C4644.13103,202.31543 4643.99366,202.384115 4643.85629,202.521484 C4643.85629,202.521484 4643.7876,202.521484 4643.65023,202.521484 C4643.51286,202.658854 4643.44418,202.727539 4643.44418,202.727539 C4643.16944,202.727539 4642.96339,202.796224 4642.82602,202.933594 C4642.68865,202.933594 4642.48259,203.002279 4642.20785,203.139648 C4642.20785,203.139648 4642.20785,203.139648 4642.20785,203.139648 C4642.20785,203.139648 4642.13917,203.139648 4642.0018,203.139648 C4642.0018,203.139648 4642.0018,203.139648 4642.0018,203.139648 C4642.0018,203.139648 4642.0018,203.139648 4642.0018,203.139648 C4641.86443,203.139648 4641.65837,203.139648 4641.38363,203.139648 C4641.10889,203.139648 4640.90284,203.139648 4640.76547,203.139648 C4640.49073,203.139648 4640.21599,203.139648 4639.94125,203.139648 C4639.80388,203.139648 4639.59783,203.139648 4639.32309,203.139648 C4639.32309,203.139648 4639.32309,203.139648 4639.32309,203.139648 C4639.32309,203.139648 4639.32309,203.139648 4639.32309,203.139648 C4639.32309,203.139648 4639.32309,203.139648 4639.32309,203.139648 C4639.32309,203.139648 4639.2544,203.139648 4639.11703,203.139648 C4638.97966,203.002279 4638.77361,202.933594 4638.49887,202.933594 C4638.3615,202.796224 4638.22413,202.727539 4638.08676,202.727539 C4637.94939,202.727539 4637.81202,202.658854 4637.67465,202.521484 C4637.67465,202.521484 4637.60596,202.521484 4637.46859,202.521484 C4637.33122,202.384115 4637.19385,202.31543 4637.05648,202.31543 C4637.05648,202.31543 4636.9878,202.246745 4636.85043,202.109375 C4636.71306,202.109375 4636.57569,202.04069 4636.43832,201.90332 C4636.43832,201.90332 4636.36964,201.834635 4636.23227,201.697266 C4636.23227,201.697266 4636.16358,201.628581 4636.02621,201.491211 C4635.88884,201.491211 4635.75147,201.422526 4635.6141,201.285156 C4635.6141,201.147786 4635.54542,201.079102 4635.40805,201.079102 C4635.40805,200.941732 4635.33936,200.873047 4635.20199,200.873047 C4635.20199,200.735677 4635.13331,200.598307 4634.99594,200.460937 C4634.85857,200.460937 4634.78988,200.392253 4634.78988,200.254883 C4634.65251,200.117513 4634.58383,200.048828 4634.58383,200.048828 C4634.58383,199.911458 4634.51514,199.842773 4634.37777,199.842773 C4634.37777,199.705404 4634.30909,199.568034 4634.17172,199.430664 C4634.17172,199.293294 4634.10303,199.155924 4633.96566,199.018555 C4633.96566,199.018555 4633.96566,198.94987 4633.96566,198.8125 C4633.82829,198.67513 4633.75961,198.606445 4633.75961,198.606445 C4633.75961,198.469076 4633.75961,198.331706 4633.75961,198.194336 C4633.62224,198.056966 4633.55355,197.919596 4633.55355,197.782227 C4633.55355,197.644857 4633.48487,197.576172 4633.3475,197.576172 C4633.3475,197.438802 4633.3475,197.301432 4633.3475,197.164063 C4633.3475,197.164063 4633.3475,197.164063 4633.3475,197.164063 C4633.3475,197.164063 4633.3475,197.164063 4633.3475,197.164063 C4627.99008,168.865885 4620.02263,126.41862 4609.44516,69.8222656 C4609.30779,69.2727865 4609.2391,68.7233073 4609.2391,68.1738281 C4609.2391,66.8001302 4609.7199,65.4264323 4610.68148,64.0527344 C4611.78044,62.4042969 4613.3602,61.3740234 4615.42074,60.9619141 C4617.48129,60.5498047 4619.33578,60.9619141 4620.98422,62.1982422 C4622.77003,63.2972005 4623.8003,64.8769531 4624.07504,66.9375 C4627.78402,86.5813802 4633.3475,115.978516 4640.76547,155.128906 C4644.33708,135.485026 4649.83187,106.087891 4657.24984,66.9375 C4657.24984,66.9375 4657.24984,66.9375 4657.24984,66.9375 C4657.24984,66.9375 4657.24984,66.8688151 4657.24984,66.7314453 C4657.24984,66.5940755 4657.31853,66.4567057 4657.4559,66.3193359 C4657.4559,66.1819661 4657.4559,66.0445964 4657.4559,65.9072266 C4657.59327,65.9072266 4657.66195,65.8385417 4657.66195,65.7011719 C4657.66195,65.5638021 4657.66195,65.4951172 4657.66195,65.4951172 C4657.79932,65.3577474 4657.86801,65.2203776 4657.86801,65.0830078 C4658.00538,64.945638 4658.07406,64.8769531 4658.07406,64.8769531 C4658.07406,64.7395833 4658.14275,64.6022135 4658.28012,64.4648438 C4658.28012,64.327474 4658.3488,64.1901042 4658.48617,64.0527344 C4658.48617,64.0527344 4658.55486,63.9840495 4658.69223,63.8466797 C4658.69223,63.8466797 4658.69223,63.7779948 4658.69223,63.640625 C4658.8296,63.5032552 4658.96697,63.4345703 4659.10434,63.4345703 C4659.10434,63.2972005 4659.17302,63.1598307 4659.31039,63.0224609 C4659.44776,63.0224609 4659.51645,62.953776 4659.51645,62.8164063 C4659.65382,62.8164063 4659.7225,62.7477214 4659.7225,62.6103516 C4659.85987,62.6103516 4659.99724,62.5416667 4660.13461,62.4042969 C4660.27198,62.2669271 4660.40935,62.1982422 4660.54672,62.1982422 C4660.54672,62.0608724 4660.6154,61.9921875 4660.75277,61.9921875 C4660.75277,61.9921875 4660.82146,61.9235026 4660.95883,61.7861328 C4661.0962,61.7861328 4661.23357,61.7174479 4661.37094,61.5800781 C4661.50831,61.5800781 4661.64568,61.5113932 4661.78305,61.3740234 C4661.78305,61.3740234 4661.85173,61.3740234 4661.9891,61.3740234 C4662.12647,61.3740234 4662.19516,61.3740234 4662.19516,61.3740234 C4662.33253,61.2366536 4662.53858,61.1679688 4662.81332,61.1679688 C4662.95069,61.030599 4663.08806,60.9619141 4663.22543,60.9619141 C4663.22543,60.9619141 4663.22543,60.9619141 4663.22543,60.9619141 C4663.22543,60.9619141 4663.22543,60.9619141 4663.22543,60.9619141 C4663.3628,60.9619141 4663.50017,60.9619141 4663.63754,60.9619141 C4663.63754,60.9619141 4663.70622,60.9619141 4663.84359,60.9619141 C4663.98096,60.9619141 4664.11833,60.9619141 4664.2557,60.9619141 C4664.39307,60.9619141 4664.53044,60.9619141 4664.66781,60.9619141 C4664.80518,60.9619141 4664.94255,60.9619141 4665.07992,60.9619141 C4665.21729,60.9619141 4665.42335,60.9619141 4665.69809,60.9619141 C4665.69809,60.9619141 4665.76677,60.9619141 4665.90414,60.9619141 C4665.90414,60.9619141 4665.97283,60.9619141 4666.1102,60.9619141 C4666.1102,60.9619141 4666.1102,60.9619141 4666.1102,60.9619141 C4666.1102,60.9619141 4666.1102,60.9619141 4666.1102,60.9619141 C4666.24757,61.0992839 4666.45362,61.1679688 4666.72836,61.1679688 C4666.86573,61.1679688 4667.0031,61.2366536 4667.14047,61.3740234 C4667.27784,61.3740234 4667.34652,61.3740234 4667.34652,61.3740234 C4667.34652,61.3740234 4667.41521,61.3740234 4667.55258,61.3740234 C4667.68995,61.5113932 4667.82732,61.648763 4667.96469,61.7861328 C4668.10206,61.7861328 4668.30811,61.8548177 4668.58285,61.9921875 C4668.58285,61.9921875 4668.58285,61.9921875 4668.58285,61.9921875 C4668.72022,61.9921875 4668.78891,62.0608724 4668.78891,62.1982422 C4668.92628,62.1982422 4669.06365,62.2669271 4669.20102,62.4042969 C4669.33839,62.5416667 4669.47576,62.6790365 4669.61312,62.8164063 C4669.75049,62.8164063 4669.81918,62.8850911 4669.81918,63.0224609 C4669.81918,63.0224609 4669.81918,63.0224609 4669.81918,63.0224609 C4669.95655,63.1598307 4670.09392,63.2972005 4670.23129,63.4345703 C4670.36866,63.5719401 4670.50603,63.7093099 4670.6434,63.8466797 C4670.6434,63.8466797 4670.6434,63.9153646 4670.6434,64.0527344 C4670.78077,64.0527344 4670.84945,64.0527344 4670.84945,64.0527344 C4670.84945,64.1901042 4670.91814,64.327474 4671.05551,64.4648438 C4671.05551,64.6022135 4671.12419,64.7395833 4671.26156,64.8769531 C4671.26156,65.0143229 4671.33025,65.0830078 4671.46762,65.0830078 C4671.46762,65.2203776 4671.46762,65.3577474 4671.46762,65.4951172 C4671.60499,65.4951172 4671.67367,65.5638021 4671.67367,65.7011719 C4671.67367,65.8385417 4671.67367,65.9759115 4671.67367,66.1132812 C4671.81104,66.250651 4671.87973,66.3880208 4671.87973,66.5253906 C4671.87973,66.6627604 4671.87973,66.8001302 4671.87973,66.9375 C4671.87973,66.9375 4671.87973,66.9375 4671.87973,66.9375 C4672.0171,66.9375 4672.08578,66.9375 4672.08578,66.9375 C4675.6574,86.5813802 4681.15219,116.047201 4688.57016,155.334961 C4692.27914,135.691081 4697.77393,106.22526 4705.05453,66.9375 C4705.46664,64.8769531 4706.5656,63.2972005 4708.35141,62.1982422 C4709.99984,60.9619141 4711.85434,60.5498047 4713.91488,60.9619141 Z M4633.55355,77.0341797 C4633.82829,77.0341797 4634.03435,77.0341797 4634.17172,77.0341797 C4634.30909,77.0341797 4634.44646,77.0341797 4634.58383,77.0341797 C4634.85857,76.8968099 4635.06462,76.828125 4635.20199,76.828125 C4635.33936,76.828125 4635.47673,76.7594401 4635.6141,76.6220703 C4636.85043,82.6663411 4638.56755,91.7327474 4640.76547,103.821289 C4641.86443,98.3264974 4643.44418,90.0843099 4645.50473,79.0947266 C4645.91684,79.2320964 4646.60368,79.3694661 4647.56527,79.5068359 C4646.05421,87.4742839 4643.7876,99.3567708 4640.76547,115.154297 C4639.52914,108.835286 4638.3615,102.516276 4637.26254,96.1972656 C4636.02621,89.7408854 4634.78988,83.3531901 4633.55355,77.0341797 Z M4633.55355,77.0341797 C4632.59197,77.0341797 4631.69906,76.6907552 4630.87484,76.0039062 C4630.05062,75.3170573 4629.56983,74.4241536 4629.43246,73.3251953 C4629.15772,72.226237 4629.36378,71.1272786 4630.05062,70.0283203 C4630.73747,69.0667318 4631.69906,68.4485677 4632.93539,68.1738281 C4634.17172,67.8990885 4635.33936,68.1051432 4636.43832,68.7919922 C4637.39991,69.4788411 4638.01807,70.4404297 4638.29281,71.6767578 C4638.43018,72.7757161 4638.29281,73.8059896 4637.8807,74.7675781 C4637.33122,75.5917969 4636.57569,76.2099609 4635.6141,76.6220703 C4635.6141,76.4847005 4635.6141,76.3473307 4635.6141,76.2099609 C4636.43832,75.7978516 4637.05648,75.1796875 4637.46859,74.3554687 C4637.8807,73.53125 4637.94939,72.7070312 4637.67465,71.8828125 C4637.53728,70.7838542 4636.9878,69.8909505 4636.02621,69.2041016 C4635.20199,68.6546224 4634.2404,68.4485677 4633.14145,68.5859375 C4632.04249,68.8606771 4631.21827,69.4101562 4630.66879,70.234375 C4629.98194,71.1959635 4629.77589,72.226237 4630.05062,73.3251953 C4630.18799,74.1494141 4630.6001,74.9049479 4631.28695,75.5917969 C4631.9738,76.141276 4632.72934,76.4160156 4633.55355,76.4160156 C4633.55355,76.5533854 4633.55355,76.6907552 4633.55355,76.828125 C4633.55355,76.828125 4633.55355,76.8968099 4633.55355,77.0341797 Z M4634.58383,76.4160156 C4634.7212,76.4160156 4634.92725,76.3473307 4635.20199,76.2099609 C4635.33936,76.2099609 4635.47673,76.141276 4635.6141,76.0039062 C4635.6141,76.141276 4635.6141,76.3473307 4635.6141,76.6220703 C4635.47673,76.7594401 4635.33936,76.828125 4635.20199,76.828125 C4635.06462,76.828125 4634.85857,76.8968099 4634.58383,77.0341797 C4634.44646,77.0341797 4634.30909,77.0341797 4634.17172,77.0341797 C4634.03435,77.0341797 4633.82829,77.0341797 4633.55355,77.0341797 C4633.55355,76.8968099 4633.55355,76.6907552 4633.55355,76.4160156 C4633.69092,76.5533854 4633.82829,76.5533854 4633.96566,76.4160156 C4634.2404,76.4160156 4634.44646,76.4160156 4634.58383,76.4160156 Z M4630.46273,73.1191406 C4630.6001,73.9433594 4630.94353,74.5615234 4631.49301,74.9736328 C4632.04249,75.523112 4632.66065,75.8665365 4633.3475,76.0039062 C4633.48487,76.141276 4633.55355,76.2786458 4633.55355,76.4160156 C4632.72934,76.4160156 4631.9738,76.141276 4631.28695,75.5917969 C4630.6001,74.9049479 4630.11931,74.1494141 4629.84457,73.3251953 C4629.7072,72.226237 4629.91326,71.2646484 4630.46273,70.4404297 C4631.14958,69.4788411 4632.04249,68.8606771 4633.14145,68.5859375 C4634.2404,68.4485677 4635.20199,68.7233073 4636.02621,69.4101562 C4636.9878,69.9596354 4637.53728,70.7838542 4637.67465,71.8828125 C4637.81202,72.7070312 4637.67465,73.53125 4637.26254,74.3554687 C4636.85043,75.1796875 4636.30095,75.7978516 4635.6141,76.2099609 C4635.6141,76.0725911 4635.54542,75.8665365 4635.40805,75.5917969 C4636.0949,75.1796875 4636.57569,74.6988932 4636.85043,74.1494141 C4637.26254,73.4625651 4637.39991,72.7070312 4637.26254,71.8828125 C4637.26254,72.0201823 4637.26254,72.1575521 4637.26254,72.2949219 C4637.26254,72.2949219 4637.26254,72.2949219 4637.26254,72.2949219 C4637.26254,72.2949219 4637.26254,72.2949219 4637.26254,72.2949219 C4637.26254,72.4322917 4637.26254,72.5009766 4637.26254,72.5009766 C4637.26254,72.5009766 4637.26254,72.4322917 4637.26254,72.2949219 C4637.26254,72.2949219 4637.26254,72.2949219 4637.26254,72.2949219 C4637.26254,72.1575521 4637.19385,71.8828125 4637.05648,71.4707031 C4637.05648,71.1959635 4637.12517,71.3333333 4637.26254,71.8828125 C4637.12517,70.921224 4636.64437,70.234375 4635.82016,69.8222656 C4634.99594,69.2727865 4634.10303,69.0667318 4633.14145,69.2041016 C4632.31723,69.3414714 4631.63038,69.8222656 4631.0809,70.6464844 C4630.53142,71.4707031 4630.32536,72.2949219 4630.46273,73.1191406 Z M4637.26254,72.2949219 C4637.26254,72.1575521 4637.19385,71.8828125 4637.05648,71.4707031 C4637.05648,71.1959635 4637.12517,71.3333333 4637.26254,71.8828125 C4637.26254,72.0201823 4637.26254,72.1575521 4637.26254,72.2949219 C4637.26254,72.2949219 4637.26254,72.2949219 4637.26254,72.2949219 Z M4634.58383,76.4160156 C4634.44646,76.4160156 4634.2404,76.4160156 4633.96566,76.4160156 C4633.82829,76.5533854 4633.69092,76.5533854 4633.55355,76.4160156 C4633.55355,76.2786458 4633.48487,76.141276 4633.3475,76.0039062 C4633.62224,76.0039062 4633.82829,76.0039062 4633.96566,76.0039062 C4634.10303,76.0039062 4634.30909,76.0039062 4634.58383,76.0039062 C4634.7212,75.8665365 4634.85857,75.7978516 4634.99594,75.7978516 C4635.13331,75.6604818 4635.27068,75.5917969 4635.40805,75.5917969 C4635.54542,75.7291667 4635.6141,75.8665365 4635.6141,76.0039062 C4635.47673,76.141276 4635.33936,76.2099609 4635.20199,76.2099609 C4634.92725,76.3473307 4634.7212,76.4160156 4634.58383,76.4160156 Z M4647.77133,77.4462891 C4647.77133,77.9957682 4647.70264,78.6826172 4647.56527,79.5068359 C4647.97738,79.6442057 4648.59555,79.7815755 4649.41977,79.9189453 C4649.2824,77.3089193 4649.00766,73.3938802 4648.59555,68.1738281 C4647.35922,70.5091146 4645.6421,74.0807292 4643.44418,78.8886719 C4643.85629,78.8886719 4644.47445,78.9573568 4645.29867,79.0947266 C4645.43604,78.6826172 4645.57341,77.9957682 4645.71078,77.0341797 C4646.26026,77.1715495 4646.94711,77.3089193 4647.77133,77.4462891 Z M4647.35922,79.5068359 C4647.49659,79.0947266 4647.63396,78.4078776 4647.77133,77.4462891 C4647.35922,77.4462891 4646.67237,77.3089193 4645.71078,77.0341797 C4645.71078,77.5836589 4645.57341,78.2705078 4645.29867,79.0947266 C4645.84815,79.2320964 4646.535,79.3694661 4647.35922,79.5068359 Z M4627.78402,46.7441406 C4628.05876,46.469401 4628.40219,46.1259766 4628.8143,45.7138672 C4629.08904,45.4391276 4629.50115,45.0270182 4630.05062,44.4775391 C4630.05062,44.4775391 4630.11931,44.4775391 4630.25668,44.4775391 C4630.25668,44.3401693 4630.32536,44.2714844 4630.46273,44.2714844 C4630.46273,44.2714844 4630.53142,44.2714844 4630.66879,44.2714844 C4630.66879,44.2714844 4630.66879,44.2714844 4630.66879,44.2714844 C4630.66879,44.2714844 4630.73747,44.2714844 4630.87484,44.2714844 C4630.87484,44.2714844 4630.94353,44.2714844 4631.0809,44.2714844 C4631.0809,44.4088542 4631.14958,44.4775391 4631.28695,44.4775391 C4631.28695,44.6149089 4631.28695,44.6835938 4631.28695,44.6835938 C4631.42432,44.8209635 4631.49301,44.8896484 4631.49301,44.8896484 C4631.49301,45.0270182 4631.49301,45.0957031 4631.49301,45.0957031 C4631.49301,46.8815104 4631.49301,49.0107422 4631.49301,51.4833984 C4631.49301,54.0934245 4631.49301,57.1155599 4631.49301,60.5498047 C4631.49301,60.5498047 4631.49301,60.6184896 4631.49301,60.7558594 C4631.35564,60.8932292 4631.28695,61.030599 4631.28695,61.1679688 C4631.14958,61.1679688 4631.01221,61.2366536 4630.87484,61.3740234 C4630.87484,61.3740234 4630.80616,61.3740234 4630.66879,61.3740234 C4630.53142,61.3740234 4630.39405,61.3740234 4630.25668,61.3740234 C4630.11931,61.2366536 4630.05062,61.1679688 4630.05062,61.1679688 C4629.91326,61.030599 4629.84457,60.8932292 4629.84457,60.7558594 C4629.7072,60.7558594 4629.63852,60.6871745 4629.63852,60.5498047 C4629.63852,59.038737 4629.63852,57.1842448 4629.63852,54.9863281 C4629.63852,52.7884115 4629.63852,50.2470703 4629.63852,47.3623047 C4629.63852,47.3623047 4629.56983,47.4309896 4629.43246,47.5683594 C4629.29509,47.7057292 4629.15772,47.843099 4629.02035,47.9804688 C4629.02035,48.1178385 4628.95167,48.1865234 4628.8143,48.1865234 C4628.67693,48.1865234 4628.53956,48.1865234 4628.40219,48.1865234 C4628.40219,48.1865234 4628.3335,48.1865234 4628.19613,48.1865234 C4628.05876,48.1865234 4627.92139,48.1178385 4627.78402,47.9804688 C4627.78402,47.843099 4627.71534,47.7744141 4627.57797,47.7744141 C4627.57797,47.6370443 4627.57797,47.4996745 4627.57797,47.3623047 C4627.57797,47.2249349 4627.57797,47.0875651 4627.57797,46.9501953 C4627.71534,46.9501953 4627.78402,46.8815104 4627.78402,46.7441406 Z" transform="translate(-4604.5)"/></svg>