<svg xmlns="http://www.w3.org/2000/svg" width="120" height="243" viewBox="0 0 120 243"><path fill="#131313" d="M109.414883,23.9619141 C111.47543,24.3740234 113.055182,25.4042969 114.154141,27.0527344 C114.978359,28.4264323 115.390469,29.8001302 115.390469,31.1738281 C115.390469,31.7233073 115.390469,32.2727865 115.390469,32.8222656 C110.033047,61.1204427 102.065599,103.567708 91.488125,160.164062 C91.488125,160.164062 91.488125,160.164062 91.488125,160.164062 C91.488125,160.164062 91.488125,160.164062 91.488125,160.164062 C91.3507552,160.301432 91.2820703,160.438802 91.2820703,160.576172 C91.2820703,160.576172 91.2820703,160.644857 91.2820703,160.782227 C91.1447005,160.919596 91.0760156,161.056966 91.0760156,161.194336 C91.0760156,161.331706 91.0073307,161.469076 90.8699609,161.606445 C90.8699609,161.606445 90.8699609,161.67513 90.8699609,161.8125 C90.8699609,161.94987 90.801276,162.018555 90.6639063,162.018555 C90.6639063,162.155924 90.5952214,162.293294 90.4578516,162.430664 C90.4578516,162.568034 90.3891667,162.705404 90.2517969,162.842773 C90.2517969,162.842773 90.2517969,162.911458 90.2517969,163.048828 C90.1144271,163.048828 90.0457422,163.117513 90.0457422,163.254883 C89.9083724,163.392253 89.8396875,163.460938 89.8396875,163.460938 C89.7023177,163.598307 89.5649479,163.735677 89.4275781,163.873047 C89.4275781,163.873047 89.3588932,163.941732 89.2215234,164.079102 C89.2215234,164.079102 89.1528385,164.147786 89.0154688,164.285156 C89.0154688,164.422526 88.9467839,164.491211 88.8094141,164.491211 C88.6720443,164.628581 88.5346745,164.697266 88.3973047,164.697266 C88.3973047,164.834635 88.3286198,164.90332 88.19125,164.90332 C88.19125,165.04069 88.1225651,165.109375 87.9851953,165.109375 C87.8478255,165.246745 87.7104557,165.31543 87.5730859,165.31543 C87.4357161,165.31543 87.2983464,165.384115 87.1609766,165.521484 C87.1609766,165.521484 87.0922917,165.521484 86.9549219,165.521484 C86.9549219,165.658854 86.886237,165.727539 86.7488672,165.727539 C86.6114974,165.727539 86.4054427,165.796224 86.1307031,165.933594 C85.9933333,165.933594 85.7872786,166.002279 85.5125391,166.139648 C85.5125391,166.139648 85.5125391,166.139648 85.5125391,166.139648 C85.5125391,166.139648 85.5125391,166.139648 85.5125391,166.139648 C85.5125391,166.139648 85.5125391,166.139648 85.5125391,166.139648 C85.5125391,166.139648 85.5125391,166.139648 85.5125391,166.139648 C85.2377995,166.139648 84.9630599,166.139648 84.6883203,166.139648 C84.5509505,166.139648 84.3448958,166.139648 84.0701563,166.139648 C83.7954167,166.139648 83.589362,166.139648 83.4519922,166.139648 C83.1772526,166.139648 82.902513,166.139648 82.6277734,166.139648 C82.6277734,166.139648 82.6277734,166.139648 82.6277734,166.139648 C82.6277734,166.139648 82.6277734,166.139648 82.6277734,166.139648 C82.6277734,166.139648 82.6277734,166.139648 82.6277734,166.139648 C82.6277734,166.139648 82.6277734,166.139648 82.6277734,166.139648 C82.3530339,166.002279 82.1469792,165.933594 82.0096094,165.933594 C81.7348698,165.796224 81.5288151,165.727539 81.3914453,165.727539 C81.2540755,165.727539 81.1853906,165.658854 81.1853906,165.521484 C81.0480208,165.521484 80.9793359,165.521484 80.9793359,165.521484 C80.8419661,165.384115 80.7045964,165.31543 80.5672266,165.31543 C80.4298568,165.31543 80.292487,165.246745 80.1551172,165.109375 C80.0177474,165.109375 79.9490625,165.04069 79.9490625,164.90332 C79.8116927,164.90332 79.7430078,164.834635 79.7430078,164.697266 C79.605638,164.697266 79.4682682,164.628581 79.3308984,164.491211 C79.1935286,164.491211 79.1248438,164.422526 79.1248438,164.285156 C78.987474,164.147786 78.9187891,164.079102 78.9187891,164.079102 C78.7814193,163.941732 78.7127344,163.873047 78.7127344,163.873047 C78.5753646,163.735677 78.4379948,163.598307 78.300625,163.460938 C78.300625,163.460938 78.2319401,163.392253 78.0945703,163.254883 C78.0945703,163.117513 78.0258854,163.048828 77.8885156,163.048828 C77.8885156,162.911458 77.8885156,162.842773 77.8885156,162.842773 C77.7511458,162.705404 77.613776,162.568034 77.4764063,162.430664 C77.4764063,162.293294 77.4764063,162.155924 77.4764063,162.018555 C77.3390365,162.018555 77.2703516,161.94987 77.2703516,161.8125 C77.2703516,161.67513 77.2016667,161.606445 77.0642969,161.606445 C77.0642969,161.469076 77.0642969,161.331706 77.0642969,161.194336 C76.9269271,161.056966 76.8582422,160.919596 76.8582422,160.782227 C76.8582422,160.644857 76.8582422,160.576172 76.8582422,160.576172 C76.8582422,160.438802 76.7895573,160.301432 76.6521875,160.164062 C76.6521875,160.164062 76.6521875,160.164062 76.6521875,160.164062 C76.6521875,160.164062 76.6521875,160.164062 76.6521875,160.164062 C72.9432031,140.520182 67.4484115,111.054362 60.1678125,71.7666016 C56.4588281,91.4104818 50.8953516,120.876302 43.4773828,160.164062 C43.4773828,160.164062 43.4773828,160.164062 43.4773828,160.164062 C43.4773828,160.164062 43.4773828,160.164062 43.4773828,160.164062 C43.4773828,160.301432 43.4773828,160.438802 43.4773828,160.576172 C43.4773828,160.576172 43.4086979,160.644857 43.2713281,160.782227 C43.2713281,160.919596 43.2713281,161.056966 43.2713281,161.194336 C43.2713281,161.331706 43.2026432,161.469076 43.0652734,161.606445 C43.0652734,161.606445 43.0652734,161.67513 43.0652734,161.8125 C42.9279036,161.94987 42.8592188,162.018555 42.8592188,162.018555 C42.8592188,162.155924 42.7905339,162.293294 42.6531641,162.430664 C42.6531641,162.568034 42.5844792,162.705404 42.4471094,162.842773 C42.4471094,162.842773 42.3784245,162.911458 42.2410547,163.048828 C42.2410547,163.048828 42.2410547,163.117513 42.2410547,163.254883 C42.1036849,163.392253 41.9663151,163.460938 41.8289453,163.460938 C41.8289453,163.598307 41.7602604,163.735677 41.6228906,163.873047 C41.6228906,163.873047 41.5542057,163.941732 41.4168359,164.079102 C41.4168359,164.079102 41.348151,164.147786 41.2107813,164.285156 C41.0734115,164.422526 41.0047266,164.491211 41.0047266,164.491211 C40.8673568,164.628581 40.729987,164.697266 40.5926172,164.697266 C40.5926172,164.834635 40.5239323,164.90332 40.3865625,164.90332 C40.2491927,165.04069 40.1805078,165.109375 40.1805078,165.109375 C40.043138,165.246745 39.9057682,165.31543 39.7683984,165.31543 C39.6310286,165.31543 39.4936589,165.384115 39.3562891,165.521484 C39.3562891,165.521484 39.2876042,165.521484 39.1502344,165.521484 C39.0128646,165.658854 38.9441797,165.727539 38.9441797,165.727539 C38.6694401,165.727539 38.4633854,165.796224 38.3260156,165.933594 C38.1886458,165.933594 37.9825911,166.002279 37.7078516,166.139648 C37.7078516,166.139648 37.7078516,166.139648 37.7078516,166.139648 C37.7078516,166.139648 37.6391667,166.139648 37.5017969,166.139648 C37.5017969,166.139648 37.5017969,166.139648 37.5017969,166.139648 C37.5017969,166.139648 37.5017969,166.139648 37.5017969,166.139648 C37.3644271,166.139648 37.1583724,166.139648 36.8836328,166.139648 C36.6088932,166.139648 36.4028385,166.139648 36.2654688,166.139648 C35.9907292,166.139648 35.7159896,166.139648 35.44125,166.139648 C35.3038802,166.139648 35.0978255,166.139648 34.8230859,166.139648 C34.8230859,166.139648 34.8230859,166.139648 34.8230859,166.139648 C34.8230859,166.139648 34.8230859,166.139648 34.8230859,166.139648 C34.8230859,166.139648 34.8230859,166.139648 34.8230859,166.139648 C34.8230859,166.139648 34.754401,166.139648 34.6170313,166.139648 C34.4796615,166.002279 34.2736068,165.933594 33.9988672,165.933594 C33.8614974,165.796224 33.7241276,165.727539 33.5867578,165.727539 C33.449388,165.727539 33.3120182,165.658854 33.1746484,165.521484 C33.1746484,165.521484 33.1059635,165.521484 32.9685938,165.521484 C32.831224,165.384115 32.6938542,165.31543 32.5564844,165.31543 C32.5564844,165.31543 32.4877995,165.246745 32.3504297,165.109375 C32.2130599,165.109375 32.0756901,165.04069 31.9383203,164.90332 C31.9383203,164.90332 31.8696354,164.834635 31.7322656,164.697266 C31.7322656,164.697266 31.6635807,164.628581 31.5262109,164.491211 C31.3888411,164.491211 31.2514714,164.422526 31.1141016,164.285156 C31.1141016,164.147786 31.0454167,164.079102 30.9080469,164.079102 C30.9080469,163.941732 30.839362,163.873047 30.7019922,163.873047 C30.7019922,163.735677 30.6333073,163.598307 30.4959375,163.460938 C30.3585677,163.460938 30.2898828,163.392253 30.2898828,163.254883 C30.152513,163.117513 30.0838281,163.048828 30.0838281,163.048828 C30.0838281,162.911458 30.0151432,162.842773 29.8777734,162.842773 C29.8777734,162.705404 29.8090885,162.568034 29.6717188,162.430664 C29.6717188,162.293294 29.6030339,162.155924 29.4656641,162.018555 C29.4656641,162.018555 29.4656641,161.94987 29.4656641,161.8125 C29.3282943,161.67513 29.2596094,161.606445 29.2596094,161.606445 C29.2596094,161.469076 29.2596094,161.331706 29.2596094,161.194336 C29.1222396,161.056966 29.0535547,160.919596 29.0535547,160.782227 C29.0535547,160.644857 28.9848698,160.576172 28.8475,160.576172 C28.8475,160.438802 28.8475,160.301432 28.8475,160.164062 C28.8475,160.164062 28.8475,160.164062 28.8475,160.164062 C28.8475,160.164062 28.8475,160.164062 28.8475,160.164062 C23.4900781,131.865885 15.5226302,89.4186198 4.94515625,32.8222656 C4.80778646,32.2727865 4.73910156,31.7233073 4.73910156,31.1738281 C4.73910156,29.8001302 5.21989583,28.4264323 6.18148438,27.0527344 C7.28044271,25.4042969 8.86019531,24.3740234 10.9207422,23.9619141 C12.9812891,23.5498047 14.8357813,23.9619141 16.4842188,25.1982422 C18.270026,26.2972005 19.3002995,27.8769531 19.5750391,29.9375 C23.2840234,49.5813802 28.8475,78.9785156 36.2654688,118.128906 C39.8370833,98.485026 45.331875,69.0878906 52.7498438,29.9375 C52.7498438,29.9375 52.7498438,29.9375 52.7498438,29.9375 C52.7498438,29.9375 52.7498438,29.8688151 52.7498438,29.7314453 C52.7498438,29.5940755 52.8185286,29.4567057 52.9558984,29.3193359 C52.9558984,29.1819661 52.9558984,29.0445964 52.9558984,28.9072266 C53.0932682,28.9072266 53.1619531,28.8385417 53.1619531,28.7011719 C53.1619531,28.5638021 53.1619531,28.4951172 53.1619531,28.4951172 C53.2993229,28.3577474 53.3680078,28.2203776 53.3680078,28.0830078 C53.5053776,27.945638 53.5740625,27.8769531 53.5740625,27.8769531 C53.5740625,27.7395833 53.6427474,27.6022135 53.7801172,27.4648438 C53.7801172,27.327474 53.8488021,27.1901042 53.9861719,27.0527344 C53.9861719,27.0527344 54.0548568,26.9840495 54.1922266,26.8466797 C54.1922266,26.8466797 54.1922266,26.7779948 54.1922266,26.640625 C54.3295964,26.5032552 54.4669661,26.4345703 54.6043359,26.4345703 C54.6043359,26.2972005 54.6730208,26.1598307 54.8103906,26.0224609 C54.9477604,26.0224609 55.0164453,25.953776 55.0164453,25.8164062 C55.1538151,25.8164062 55.2225,25.7477214 55.2225,25.6103516 C55.3598698,25.6103516 55.4972396,25.5416667 55.6346094,25.4042969 C55.7719792,25.2669271 55.909349,25.1982422 56.0467188,25.1982422 C56.0467188,25.0608724 56.1154036,24.9921875 56.2527734,24.9921875 C56.2527734,24.9921875 56.3214583,24.9235026 56.4588281,24.7861328 C56.5961979,24.7861328 56.7335677,24.7174479 56.8709375,24.5800781 C57.0083073,24.5800781 57.1456771,24.5113932 57.2830469,24.3740234 C57.2830469,24.3740234 57.3517318,24.3740234 57.4891016,24.3740234 C57.6264714,24.3740234 57.6951563,24.3740234 57.6951563,24.3740234 C57.832526,24.2366536 58.0385807,24.1679688 58.3133203,24.1679688 C58.4506901,24.030599 58.5880599,23.9619141 58.7254297,23.9619141 C58.7254297,23.9619141 58.7254297,23.9619141 58.7254297,23.9619141 C58.7254297,23.9619141 58.7254297,23.9619141 58.7254297,23.9619141 C58.8627995,23.9619141 59.0001693,23.9619141 59.1375391,23.9619141 C59.1375391,23.9619141 59.206224,23.9619141 59.3435938,23.9619141 C59.4809635,23.9619141 59.6183333,23.9619141 59.7557031,23.9619141 C59.8930729,23.9619141 60.0304427,23.9619141 60.1678125,23.9619141 C60.3051823,23.9619141 60.4425521,23.9619141 60.5799219,23.9619141 C60.7172917,23.9619141 60.9233464,23.9619141 61.1980859,23.9619141 C61.1980859,23.9619141 61.2667708,23.9619141 61.4041406,23.9619141 C61.4041406,23.9619141 61.4728255,23.9619141 61.6101953,23.9619141 C61.6101953,23.9619141 61.6101953,23.9619141 61.6101953,23.9619141 C61.6101953,23.9619141 61.6101953,23.9619141 61.6101953,23.9619141 C61.7475651,24.0992839 61.9536198,24.1679688 62.2283594,24.1679688 C62.3657292,24.1679688 62.503099,24.2366536 62.6404688,24.3740234 C62.7778385,24.3740234 62.8465234,24.3740234 62.8465234,24.3740234 C62.8465234,24.3740234 62.9152083,24.3740234 63.0525781,24.3740234 C63.1899479,24.5113932 63.3273177,24.648763 63.4646875,24.7861328 C63.6020573,24.7861328 63.808112,24.8548177 64.0828516,24.9921875 C64.0828516,24.9921875 64.0828516,24.9921875 64.0828516,24.9921875 C64.2202214,24.9921875 64.2889063,25.0608724 64.2889063,25.1982422 C64.426276,25.1982422 64.5636458,25.2669271 64.7010156,25.4042969 C64.8383854,25.5416667 64.9757552,25.6790365 65.113125,25.8164062 C65.2504948,25.8164062 65.3191797,25.8850911 65.3191797,26.0224609 C65.3191797,26.0224609 65.3191797,26.0224609 65.3191797,26.0224609 C65.4565495,26.1598307 65.5939193,26.2972005 65.7312891,26.4345703 C65.8686589,26.5719401 66.0060286,26.7093099 66.1433984,26.8466797 C66.1433984,26.8466797 66.1433984,26.9153646 66.1433984,27.0527344 C66.2807682,27.0527344 66.3494531,27.0527344 66.3494531,27.0527344 C66.3494531,27.1901042 66.418138,27.327474 66.5555078,27.4648438 C66.5555078,27.6022135 66.6241927,27.7395833 66.7615625,27.8769531 C66.7615625,28.0143229 66.8302474,28.0830078 66.9676172,28.0830078 C66.9676172,28.2203776 66.9676172,28.3577474 66.9676172,28.4951172 C67.104987,28.4951172 67.1736719,28.5638021 67.1736719,28.7011719 C67.1736719,28.8385417 67.1736719,28.9759115 67.1736719,29.1132812 C67.3110417,29.250651 67.3797266,29.3880208 67.3797266,29.5253906 C67.3797266,29.6627604 67.3797266,29.8001302 67.3797266,29.9375 C67.3797266,29.9375 67.3797266,29.9375 67.3797266,29.9375 C67.5170964,29.9375 67.5857813,29.9375 67.5857813,29.9375 C71.1573958,49.5813802 76.6521875,79.0472005 84.0701563,118.334961 C87.7791406,98.6910807 93.2739323,69.2252604 100.554531,29.9375 C100.966641,27.8769531 102.065599,26.2972005 103.851406,25.1982422 C105.499844,23.9619141 107.354336,23.5498047 109.414883,23.9619141 Z M29.0535547,40.0341797 C29.3282943,40.0341797 29.534349,40.0341797 29.6717188,40.0341797 C29.8090885,40.0341797 29.9464583,40.0341797 30.0838281,40.0341797 C30.3585677,39.8968099 30.5646224,39.828125 30.7019922,39.828125 C30.839362,39.828125 30.9767318,39.7594401 31.1141016,39.6220703 C32.3504297,45.6663411 34.0675521,54.7327474 36.2654688,66.8212891 C37.3644271,61.3264974 38.9441797,53.0843099 41.0047266,42.0947266 C41.4168359,42.2320964 42.1036849,42.3694661 43.0652734,42.5068359 C41.5542057,50.4742839 39.2876042,62.3567708 36.2654688,78.1542969 C35.0291406,71.8352865 33.8614974,65.516276 32.7625391,59.1972656 C31.5262109,52.7408854 30.2898828,46.3531901 29.0535547,40.0341797 Z M29.0535547,40.0341797 C28.0919661,40.0341797 27.1990625,39.6907552 26.3748438,39.0039062 C25.550625,38.3170573 25.0698307,37.4241536 24.9324609,36.3251953 C24.6577214,35.226237 24.863776,34.1272786 25.550625,33.0283203 C26.237474,32.0667318 27.1990625,31.4485677 28.4353906,31.1738281 C29.6717188,30.8990885 30.839362,31.1051432 31.9383203,31.7919922 C32.8999089,32.4788411 33.5180729,33.4404297 33.7928125,34.6767578 C33.9301823,35.7757161 33.7928125,36.8059896 33.3807031,37.7675781 C32.831224,38.5917969 32.0756901,39.2099609 31.1141016,39.6220703 C31.1141016,39.4847005 31.1141016,39.3473307 31.1141016,39.2099609 C31.9383203,38.7978516 32.5564844,38.1796875 32.9685938,37.3554688 C33.3807031,36.53125 33.449388,35.7070312 33.1746484,34.8828125 C33.0372786,33.7838542 32.4877995,32.8909505 31.5262109,32.2041016 C30.7019922,31.6546224 29.7404036,31.4485677 28.6414453,31.5859375 C27.542487,31.8606771 26.7182682,32.4101562 26.1687891,33.234375 C25.4819401,34.1959635 25.2758854,35.226237 25.550625,36.3251953 C25.6879948,37.1494141 26.1001042,37.9049479 26.7869531,38.5917969 C27.4738021,39.141276 28.2293359,39.4160156 29.0535547,39.4160156 C29.0535547,39.5533854 29.0535547,39.6907552 29.0535547,39.828125 C29.0535547,39.828125 29.0535547,39.8968099 29.0535547,40.0341797 Z M30.0838281,39.4160156 C30.2211979,39.4160156 30.4272526,39.3473307 30.7019922,39.2099609 C30.839362,39.2099609 30.9767318,39.141276 31.1141016,39.0039062 C31.1141016,39.141276 31.1141016,39.3473307 31.1141016,39.6220703 C30.9767318,39.7594401 30.839362,39.828125 30.7019922,39.828125 C30.5646224,39.828125 30.3585677,39.8968099 30.0838281,40.0341797 C29.9464583,40.0341797 29.8090885,40.0341797 29.6717188,40.0341797 C29.534349,40.0341797 29.3282943,40.0341797 29.0535547,40.0341797 C29.0535547,39.8968099 29.0535547,39.6907552 29.0535547,39.4160156 C29.1909245,39.5533854 29.3282943,39.5533854 29.4656641,39.4160156 C29.7404036,39.4160156 29.9464583,39.4160156 30.0838281,39.4160156 Z M25.9627344,36.1191406 C26.1001042,36.9433594 26.4435286,37.5615234 26.9930078,37.9736328 C27.542487,38.523112 28.160651,38.8665365 28.8475,39.0039062 C28.9848698,39.141276 29.0535547,39.2786458 29.0535547,39.4160156 C28.2293359,39.4160156 27.4738021,39.141276 26.7869531,38.5917969 C26.1001042,37.9049479 25.6193099,37.1494141 25.3445703,36.3251953 C25.2072005,35.226237 25.4132552,34.2646484 25.9627344,33.4404297 C26.6495833,32.4788411 27.542487,31.8606771 28.6414453,31.5859375 C29.7404036,31.4485677 30.7019922,31.7233073 31.5262109,32.4101562 C32.4877995,32.9596354 33.0372786,33.7838542 33.1746484,34.8828125 C33.3120182,35.7070312 33.1746484,36.53125 32.7625391,37.3554688 C32.3504297,38.1796875 31.8009505,38.7978516 31.1141016,39.2099609 C31.1141016,39.0725911 31.0454167,38.8665365 30.9080469,38.5917969 C31.5948958,38.1796875 32.0756901,37.6988932 32.3504297,37.1494141 C32.7625391,36.4625651 32.8999089,35.7070312 32.7625391,34.8828125 C32.7625391,35.0201823 32.7625391,35.1575521 32.7625391,35.2949219 C32.7625391,35.2949219 32.7625391,35.2949219 32.7625391,35.2949219 C32.7625391,35.2949219 32.7625391,35.2949219 32.7625391,35.2949219 C32.7625391,35.4322917 32.7625391,35.5009766 32.7625391,35.5009766 C32.7625391,35.5009766 32.7625391,35.4322917 32.7625391,35.2949219 C32.7625391,35.2949219 32.7625391,35.2949219 32.7625391,35.2949219 C32.7625391,35.1575521 32.6938542,34.8828125 32.5564844,34.4707031 C32.5564844,34.1959635 32.6251693,34.3333333 32.7625391,34.8828125 C32.6251693,33.921224 32.144375,33.234375 31.3201563,32.8222656 C30.4959375,32.2727865 29.6030339,32.0667318 28.6414453,32.2041016 C27.8172266,32.3414714 27.1303776,32.8222656 26.5808984,33.6464844 C26.0314193,34.4707031 25.8253646,35.2949219 25.9627344,36.1191406 Z M32.7625391,35.2949219 C32.7625391,35.1575521 32.6938542,34.8828125 32.5564844,34.4707031 C32.5564844,34.1959635 32.6251693,34.3333333 32.7625391,34.8828125 C32.7625391,35.0201823 32.7625391,35.1575521 32.7625391,35.2949219 C32.7625391,35.2949219 32.7625391,35.2949219 32.7625391,35.2949219 Z M30.0838281,39.4160156 C29.9464583,39.4160156 29.7404036,39.4160156 29.4656641,39.4160156 C29.3282943,39.5533854 29.1909245,39.5533854 29.0535547,39.4160156 C29.0535547,39.2786458 28.9848698,39.141276 28.8475,39.0039062 C29.1222396,39.0039062 29.3282943,39.0039062 29.4656641,39.0039062 C29.6030339,39.0039062 29.8090885,39.0039062 30.0838281,39.0039062 C30.2211979,38.8665365 30.3585677,38.7978516 30.4959375,38.7978516 C30.6333073,38.6604818 30.7706771,38.5917969 30.9080469,38.5917969 C31.0454167,38.7291667 31.1141016,38.8665365 31.1141016,39.0039062 C30.9767318,39.141276 30.839362,39.2099609 30.7019922,39.2099609 C30.4272526,39.3473307 30.2211979,39.4160156 30.0838281,39.4160156 Z M43.2713281,40.4462891 C43.2713281,40.9957682 43.2026432,41.6826172 43.0652734,42.5068359 C43.4773828,42.6442057 44.0955469,42.7815755 44.9197656,42.9189453 C44.7823958,40.3089193 44.5076563,36.3938802 44.0955469,31.1738281 C42.8592188,33.5091146 41.1420964,37.0807292 38.9441797,41.8886719 C39.3562891,41.8886719 39.9744531,41.9573568 40.7986719,42.0947266 C40.9360417,41.6826172 41.0734115,40.9957682 41.2107813,40.0341797 C41.7602604,40.1715495 42.4471094,40.3089193 43.2713281,40.4462891 Z M42.8592188,42.5068359 C42.9965885,42.0947266 43.1339583,41.4078776 43.2713281,40.4462891 C42.8592188,40.4462891 42.1723698,40.3089193 41.2107813,40.0341797 C41.2107813,40.5836589 41.0734115,41.2705078 40.7986719,42.0947266 C41.348151,42.2320964 42.035,42.3694661 42.8592188,42.5068359 Z M23.2840234,9.74414062 C23.558763,9.46940104 23.9021875,9.12597656 24.3142969,8.71386719 C24.5890365,8.4391276 25.0011458,8.02701823 25.550625,7.47753906 C25.550625,7.47753906 25.6193099,7.47753906 25.7566797,7.47753906 C25.7566797,7.34016927 25.8253646,7.27148438 25.9627344,7.27148438 C25.9627344,7.27148438 26.0314193,7.27148438 26.1687891,7.27148438 C26.1687891,7.27148438 26.1687891,7.27148438 26.1687891,7.27148438 C26.1687891,7.27148438 26.237474,7.27148438 26.3748438,7.27148438 C26.3748438,7.27148438 26.4435286,7.27148438 26.5808984,7.27148438 C26.5808984,7.40885417 26.6495833,7.47753906 26.7869531,7.47753906 C26.7869531,7.61490885 26.7869531,7.68359375 26.7869531,7.68359375 C26.9243229,7.82096354 26.9930078,7.88964844 26.9930078,7.88964844 C26.9930078,8.02701823 26.9930078,8.09570312 26.9930078,8.09570312 C26.9930078,9.88151042 26.9930078,12.0107422 26.9930078,14.4833984 C26.9930078,17.0934245 26.9930078,20.1155599 26.9930078,23.5498047 C26.9930078,23.5498047 26.9930078,23.6184896 26.9930078,23.7558594 C26.855638,23.8932292 26.7869531,24.030599 26.7869531,24.1679688 C26.6495833,24.1679688 26.5122135,24.2366536 26.3748438,24.3740234 C26.3748438,24.3740234 26.3061589,24.3740234 26.1687891,24.3740234 C26.0314193,24.3740234 25.8940495,24.3740234 25.7566797,24.3740234 C25.6193099,24.2366536 25.550625,24.1679688 25.550625,24.1679688 C25.4132552,24.030599 25.3445703,23.8932292 25.3445703,23.7558594 C25.2072005,23.7558594 25.1385156,23.6871745 25.1385156,23.5498047 C25.1385156,22.038737 25.1385156,20.1842448 25.1385156,17.9863281 C25.1385156,15.7884115 25.1385156,13.2470703 25.1385156,10.3623047 C25.1385156,10.3623047 25.0698307,10.4309896 24.9324609,10.5683594 C24.7950911,10.7057292 24.6577214,10.843099 24.5203516,10.9804688 C24.5203516,11.1178385 24.4516667,11.1865234 24.3142969,11.1865234 C24.1769271,11.1865234 24.0395573,11.1865234 23.9021875,11.1865234 C23.9021875,11.1865234 23.8335026,11.1865234 23.6961328,11.1865234 C23.558763,11.1865234 23.4213932,11.1178385 23.2840234,10.9804688 C23.2840234,10.843099 23.2153385,10.7744141 23.0779688,10.7744141 C23.0779688,10.6370443 23.0779688,10.4996745 23.0779688,10.3623047 C23.0779688,10.2249349 23.0779688,10.0875651 23.0779688,9.95019531 C23.2153385,9.95019531 23.2840234,9.88151042 23.2840234,9.74414062 Z"/></svg>