<svg xmlns="http://www.w3.org/2000/svg" width="207" height="207" viewBox="0 0 207 207"><path fill="#131313" d="M157.101562,26.1933594 C159.347656,26.6425781 161.069661,27.765625 162.267578,29.5625 C163.166016,31.0598958 163.615234,32.5572917 163.615234,34.0546875 C163.615234,34.6536458 163.615234,35.2526042 163.615234,35.8515625 C157.775391,66.6979167 149.090495,112.967448 137.560547,174.660156 C137.560547,174.660156 137.560547,174.660156 137.560547,174.660156 C137.560547,174.660156 137.560547,174.660156 137.560547,174.660156 C137.410807,174.809896 137.335938,174.959635 137.335938,175.109375 C137.335938,175.109375 137.335938,175.184245 137.335938,175.333984 C137.186198,175.483724 137.111328,175.633464 137.111328,175.783203 C137.111328,175.932943 137.036458,176.082682 136.886719,176.232422 C136.886719,176.232422 136.886719,176.307292 136.886719,176.457031 C136.886719,176.606771 136.811849,176.681641 136.662109,176.681641 C136.662109,176.83138 136.58724,176.98112 136.4375,177.130859 C136.4375,177.280599 136.36263,177.430339 136.212891,177.580078 C136.212891,177.580078 136.212891,177.654948 136.212891,177.804688 C136.063151,177.804688 135.988281,177.879557 135.988281,178.029297 C135.838542,178.179036 135.763672,178.253906 135.763672,178.253906 C135.613932,178.403646 135.464193,178.553385 135.314453,178.703125 C135.314453,178.703125 135.239583,178.777995 135.089844,178.927734 C135.089844,178.927734 135.014974,179.002604 134.865234,179.152344 C134.865234,179.302083 134.790365,179.376953 134.640625,179.376953 C134.490885,179.526693 134.341146,179.601562 134.191406,179.601562 C134.191406,179.751302 134.116536,179.826172 133.966797,179.826172 C133.966797,179.975911 133.891927,180.050781 133.742188,180.050781 C133.592448,180.200521 133.442708,180.275391 133.292969,180.275391 C133.143229,180.275391 132.99349,180.35026 132.84375,180.5 C132.84375,180.5 132.76888,180.5 132.619141,180.5 C132.619141,180.64974 132.544271,180.724609 132.394531,180.724609 C132.244792,180.724609 132.020182,180.799479 131.720703,180.949219 C131.570964,180.949219 131.346354,181.024089 131.046875,181.173828 C131.046875,181.173828 131.046875,181.173828 131.046875,181.173828 C131.046875,181.173828 131.046875,181.173828 131.046875,181.173828 C131.046875,181.173828 131.046875,181.173828 131.046875,181.173828 C131.046875,181.173828 131.046875,181.173828 131.046875,181.173828 C130.747396,181.173828 130.447917,181.173828 130.148438,181.173828 C129.998698,181.173828 129.774089,181.173828 129.474609,181.173828 C129.17513,181.173828 128.950521,181.173828 128.800781,181.173828 C128.501302,181.173828 128.201823,181.173828 127.902344,181.173828 C127.902344,181.173828 127.902344,181.173828 127.902344,181.173828 C127.902344,181.173828 127.902344,181.173828 127.902344,181.173828 C127.902344,181.173828 127.902344,181.173828 127.902344,181.173828 C127.902344,181.173828 127.902344,181.173828 127.902344,181.173828 C127.602865,181.024089 127.378255,180.949219 127.228516,180.949219 C126.929036,180.799479 126.704427,180.724609 126.554688,180.724609 C126.404948,180.724609 126.330078,180.64974 126.330078,180.5 C126.180339,180.5 126.105469,180.5 126.105469,180.5 C125.955729,180.35026 125.80599,180.275391 125.65625,180.275391 C125.50651,180.275391 125.356771,180.200521 125.207031,180.050781 C125.057292,180.050781 124.982422,179.975911 124.982422,179.826172 C124.832682,179.826172 124.757812,179.751302 124.757812,179.601562 C124.608073,179.601562 124.458333,179.526693 124.308594,179.376953 C124.158854,179.376953 124.083984,179.302083 124.083984,179.152344 C123.934245,179.002604 123.859375,178.927734 123.859375,178.927734 C123.709635,178.777995 123.634766,178.703125 123.634766,178.703125 C123.485026,178.553385 123.335286,178.403646 123.185547,178.253906 C123.185547,178.253906 123.110677,178.179036 122.960938,178.029297 C122.960938,177.879557 122.886068,177.804688 122.736328,177.804688 C122.736328,177.654948 122.736328,177.580078 122.736328,177.580078 C122.586589,177.430339 122.436849,177.280599 122.287109,177.130859 C122.287109,176.98112 122.287109,176.83138 122.287109,176.681641 C122.13737,176.681641 122.0625,176.606771 122.0625,176.457031 C122.0625,176.307292 121.98763,176.232422 121.837891,176.232422 C121.837891,176.082682 121.837891,175.932943 121.837891,175.783203 C121.688151,175.633464 121.613281,175.483724 121.613281,175.333984 C121.613281,175.184245 121.613281,175.109375 121.613281,175.109375 C121.613281,174.959635 121.538411,174.809896 121.388672,174.660156 C121.388672,174.660156 121.388672,174.660156 121.388672,174.660156 C121.388672,174.660156 121.388672,174.660156 121.388672,174.660156 C117.345703,153.247396 111.35612,121.128255 103.419922,78.3027344 C99.3769531,99.7154948 93.3125,131.834635 85.2265625,174.660156 C85.2265625,174.660156 85.2265625,174.660156 85.2265625,174.660156 C85.2265625,174.660156 85.2265625,174.660156 85.2265625,174.660156 C85.2265625,174.809896 85.2265625,174.959635 85.2265625,175.109375 C85.2265625,175.109375 85.1516927,175.184245 85.0019531,175.333984 C85.0019531,175.483724 85.0019531,175.633464 85.0019531,175.783203 C85.0019531,175.932943 84.9270833,176.082682 84.7773438,176.232422 C84.7773438,176.232422 84.7773438,176.307292 84.7773438,176.457031 C84.6276042,176.606771 84.5527344,176.681641 84.5527344,176.681641 C84.5527344,176.83138 84.4778646,176.98112 84.328125,177.130859 C84.328125,177.280599 84.2532552,177.430339 84.1035156,177.580078 C84.1035156,177.580078 84.0286458,177.654948 83.8789062,177.804688 C83.8789062,177.804688 83.8789062,177.879557 83.8789062,178.029297 C83.7291667,178.179036 83.5794271,178.253906 83.4296875,178.253906 C83.4296875,178.403646 83.3548177,178.553385 83.2050781,178.703125 C83.2050781,178.703125 83.1302083,178.777995 82.9804688,178.927734 C82.9804688,178.927734 82.905599,179.002604 82.7558594,179.152344 C82.6061198,179.302083 82.53125,179.376953 82.53125,179.376953 C82.3815104,179.526693 82.2317708,179.601562 82.0820312,179.601562 C82.0820312,179.751302 82.0071615,179.826172 81.8574219,179.826172 C81.7076823,179.975911 81.6328125,180.050781 81.6328125,180.050781 C81.4830729,180.200521 81.3333333,180.275391 81.1835938,180.275391 C81.0338542,180.275391 80.8841146,180.35026 80.734375,180.5 C80.734375,180.5 80.6595052,180.5 80.5097656,180.5 C80.360026,180.64974 80.2851562,180.724609 80.2851562,180.724609 C79.9856771,180.724609 79.7610677,180.799479 79.6113281,180.949219 C79.4615885,180.949219 79.2369792,181.024089 78.9375,181.173828 C78.9375,181.173828 78.9375,181.173828 78.9375,181.173828 C78.9375,181.173828 78.8626302,181.173828 78.7128906,181.173828 C78.7128906,181.173828 78.7128906,181.173828 78.7128906,181.173828 C78.7128906,181.173828 78.7128906,181.173828 78.7128906,181.173828 C78.563151,181.173828 78.3385417,181.173828 78.0390625,181.173828 C77.7395833,181.173828 77.514974,181.173828 77.3652344,181.173828 C77.0657552,181.173828 76.766276,181.173828 76.4667969,181.173828 C76.3170573,181.173828 76.0924479,181.173828 75.7929688,181.173828 C75.7929688,181.173828 75.7929688,181.173828 75.7929688,181.173828 C75.7929688,181.173828 75.7929688,181.173828 75.7929688,181.173828 C75.7929688,181.173828 75.7929688,181.173828 75.7929688,181.173828 C75.7929688,181.173828 75.718099,181.173828 75.5683594,181.173828 C75.4186198,181.024089 75.1940104,180.949219 74.8945312,180.949219 C74.7447917,180.799479 74.5950521,180.724609 74.4453125,180.724609 C74.2955729,180.724609 74.1458333,180.64974 73.9960938,180.5 C73.9960938,180.5 73.921224,180.5 73.7714844,180.5 C73.6217448,180.35026 73.4720052,180.275391 73.3222656,180.275391 C73.3222656,180.275391 73.2473958,180.200521 73.0976562,180.050781 C72.9479167,180.050781 72.7981771,179.975911 72.6484375,179.826172 C72.6484375,179.826172 72.5735677,179.751302 72.4238281,179.601562 C72.4238281,179.601562 72.3489583,179.526693 72.1992188,179.376953 C72.0494792,179.376953 71.8997396,179.302083 71.75,179.152344 C71.75,179.002604 71.6751302,178.927734 71.5253906,178.927734 C71.5253906,178.777995 71.4505208,178.703125 71.3007812,178.703125 C71.3007812,178.553385 71.2259115,178.403646 71.0761719,178.253906 C70.9264323,178.253906 70.8515625,178.179036 70.8515625,178.029297 C70.7018229,177.879557 70.6269531,177.804688 70.6269531,177.804688 C70.6269531,177.654948 70.5520833,177.580078 70.4023438,177.580078 C70.4023438,177.430339 70.327474,177.280599 70.1777344,177.130859 C70.1777344,176.98112 70.1028646,176.83138 69.953125,176.681641 C69.953125,176.681641 69.953125,176.606771 69.953125,176.457031 C69.8033854,176.307292 69.7285156,176.232422 69.7285156,176.232422 C69.7285156,176.082682 69.7285156,175.932943 69.7285156,175.783203 C69.578776,175.633464 69.5039062,175.483724 69.5039062,175.333984 C69.5039062,175.184245 69.4290365,175.109375 69.2792969,175.109375 C69.2792969,174.959635 69.2792969,174.809896 69.2792969,174.660156 C69.2792969,174.660156 69.2792969,174.660156 69.2792969,174.660156 C69.2792969,174.660156 69.2792969,174.660156 69.2792969,174.660156 C63.4394531,143.813802 54.7545573,97.5442708 43.2246094,35.8515625 C43.0748698,35.2526042 43,34.6536458 43,34.0546875 C43,32.5572917 43.5240885,31.0598958 44.5722656,29.5625 C45.7701823,27.765625 47.4921875,26.6425781 49.7382812,26.1933594 C51.984375,25.7441406 54.0058594,26.1933594 55.8027344,27.5410156 C57.749349,28.7389323 58.8723958,30.4609375 59.171875,32.7070312 C63.2148438,54.1197917 69.2792969,86.1640625 77.3652344,128.839844 C81.2584635,107.427083 87.2480469,75.3828125 95.3339844,32.7070312 C95.3339844,32.7070312 95.3339844,32.7070312 95.3339844,32.7070312 C95.3339844,32.7070312 95.3339844,32.6321615 95.3339844,32.4824219 C95.3339844,32.3326823 95.4088542,32.1829427 95.5585938,32.0332031 C95.5585938,31.8834635 95.5585938,31.733724 95.5585938,31.5839844 C95.7083333,31.5839844 95.7832031,31.5091146 95.7832031,31.359375 C95.7832031,31.2096354 95.7832031,31.1347656 95.7832031,31.1347656 C95.9329427,30.985026 96.0078125,30.8352865 96.0078125,30.6855469 C96.1575521,30.5358073 96.2324219,30.4609375 96.2324219,30.4609375 C96.2324219,30.3111979 96.3072917,30.1614583 96.4570312,30.0117188 C96.4570312,29.8619792 96.531901,29.7122396 96.6816406,29.5625 C96.6816406,29.5625 96.7565104,29.4876302 96.90625,29.3378906 C96.90625,29.3378906 96.90625,29.2630208 96.90625,29.1132812 C97.0559896,28.9635417 97.2057292,28.8886719 97.3554688,28.8886719 C97.3554688,28.7389323 97.4303385,28.5891927 97.5800781,28.4394531 C97.7298177,28.4394531 97.8046875,28.3645833 97.8046875,28.2148438 C97.9544271,28.2148438 98.0292969,28.139974 98.0292969,27.9902344 C98.1790365,27.9902344 98.328776,27.9153646 98.4785156,27.765625 C98.6282552,27.6158854 98.7779948,27.5410156 98.9277344,27.5410156 C98.9277344,27.391276 99.0026042,27.3164062 99.1523438,27.3164062 C99.1523438,27.3164062 99.2272135,27.2415365 99.3769531,27.0917969 C99.5266927,27.0917969 99.6764323,27.0169271 99.8261719,26.8671875 C99.9759115,26.8671875 100.125651,26.7923177 100.275391,26.6425781 C100.275391,26.6425781 100.35026,26.6425781 100.5,26.6425781 C100.64974,26.6425781 100.724609,26.6425781 100.724609,26.6425781 C100.874349,26.4928385 101.098958,26.4179688 101.398438,26.4179688 C101.548177,26.2682292 101.697917,26.1933594 101.847656,26.1933594 C101.847656,26.1933594 101.847656,26.1933594 101.847656,26.1933594 C101.847656,26.1933594 101.847656,26.1933594 101.847656,26.1933594 C101.997396,26.1933594 102.147135,26.1933594 102.296875,26.1933594 C102.296875,26.1933594 102.371745,26.1933594 102.521484,26.1933594 C102.671224,26.1933594 102.820964,26.1933594 102.970703,26.1933594 C103.120443,26.1933594 103.270182,26.1933594 103.419922,26.1933594 C103.569661,26.1933594 103.719401,26.1933594 103.869141,26.1933594 C104.01888,26.1933594 104.24349,26.1933594 104.542969,26.1933594 C104.542969,26.1933594 104.617839,26.1933594 104.767578,26.1933594 C104.767578,26.1933594 104.842448,26.1933594 104.992188,26.1933594 C104.992188,26.1933594 104.992188,26.1933594 104.992188,26.1933594 C104.992188,26.1933594 104.992188,26.1933594 104.992188,26.1933594 C105.141927,26.343099 105.366536,26.4179688 105.666016,26.4179688 C105.815755,26.4179688 105.965495,26.4928385 106.115234,26.6425781 C106.264974,26.6425781 106.339844,26.6425781 106.339844,26.6425781 C106.339844,26.6425781 106.414714,26.6425781 106.564453,26.6425781 C106.714193,26.7923177 106.863932,26.9420573 107.013672,27.0917969 C107.163411,27.0917969 107.388021,27.1666667 107.6875,27.3164062 C107.6875,27.3164062 107.6875,27.3164062 107.6875,27.3164062 C107.83724,27.3164062 107.912109,27.391276 107.912109,27.5410156 C108.061849,27.5410156 108.211589,27.6158854 108.361328,27.765625 C108.511068,27.9153646 108.660807,28.0651042 108.810547,28.2148438 C108.960286,28.2148438 109.035156,28.2897135 109.035156,28.4394531 C109.035156,28.4394531 109.035156,28.4394531 109.035156,28.4394531 C109.184896,28.5891927 109.334635,28.7389323 109.484375,28.8886719 C109.634115,29.0384115 109.783854,29.188151 109.933594,29.3378906 C109.933594,29.3378906 109.933594,29.4127604 109.933594,29.5625 C110.083333,29.5625 110.158203,29.5625 110.158203,29.5625 C110.158203,29.7122396 110.233073,29.8619792 110.382812,30.0117188 C110.382812,30.1614583 110.457682,30.3111979 110.607422,30.4609375 C110.607422,30.6106771 110.682292,30.6855469 110.832031,30.6855469 C110.832031,30.8352865 110.832031,30.985026 110.832031,31.1347656 C110.981771,31.1347656 111.056641,31.2096354 111.056641,31.359375 C111.056641,31.5091146 111.056641,31.6588542 111.056641,31.8085938 C111.20638,31.9583333 111.28125,32.1080729 111.28125,32.2578125 C111.28125,32.4075521 111.28125,32.5572917 111.28125,32.7070312 C111.28125,32.7070312 111.28125,32.7070312 111.28125,32.7070312 C111.43099,32.7070312 111.505859,32.7070312 111.505859,32.7070312 C115.399089,54.1197917 121.388672,86.2389323 129.474609,129.064453 C133.517578,107.651693 139.507161,75.5325521 147.443359,32.7070312 C147.892578,30.4609375 149.090495,28.7389323 151.037109,27.5410156 C152.833984,26.1933594 154.855469,25.7441406 157.101562,26.1933594 Z M69.5039062,43.7128906 C69.8033854,43.7128906 70.0279948,43.7128906 70.1777344,43.7128906 C70.327474,43.7128906 70.4772135,43.7128906 70.6269531,43.7128906 C70.9264323,43.563151 71.1510417,43.4882812 71.3007812,43.4882812 C71.4505208,43.4882812 71.6002604,43.4134115 71.75,43.2636719 C73.0976562,49.8522135 74.969401,59.735026 77.3652344,72.9121094 C78.563151,66.922526 80.2851562,57.938151 82.53125,45.9589844 C82.9804688,46.108724 83.7291667,46.2584635 84.7773438,46.4082031 C83.1302083,55.093099 80.6595052,68.0455729 77.3652344,85.265625 C76.0175781,78.3776042 74.7447917,71.4895833 73.546875,64.6015625 C72.1992188,57.5638021 70.8515625,50.6009115 69.5039062,43.7128906 Z M69.5039062,43.7128906 C68.4557292,43.7128906 67.4824219,43.3385417 66.5839844,42.5898438 C65.6855469,41.8411458 65.1614583,40.8678385 65.0117188,39.6699219 C64.7122396,38.4720052 64.936849,37.2740885 65.6855469,36.0761719 C66.4342448,35.0279948 67.4824219,34.3541667 68.8300781,34.0546875 C70.1777344,33.7552083 71.4505208,33.9798177 72.6484375,34.7285156 C73.6966146,35.4772135 74.3704427,36.5253906 74.6699219,37.8730469 C74.8196615,39.0709635 74.6699219,40.1940104 74.2207031,41.2421875 C73.6217448,42.140625 72.7981771,42.8144531 71.75,43.2636719 C71.75,43.1139323 71.75,42.9641927 71.75,42.8144531 C72.6484375,42.3652344 73.3222656,41.6914062 73.7714844,40.7929688 C74.2207031,39.8945312 74.2955729,38.9960938 73.9960938,38.0976562 C73.8463542,36.8997396 73.2473958,35.9264323 72.1992188,35.1777344 C71.3007812,34.578776 70.2526042,34.3541667 69.0546875,34.5039062 C67.8567708,34.8033854 66.9583333,35.4023438 66.359375,36.3007812 C65.6106771,37.3489583 65.3860677,38.4720052 65.6855469,39.6699219 C65.8352865,40.5683594 66.2845052,41.3919271 67.0332031,42.140625 C67.781901,42.7395833 68.6054688,43.0390625 69.5039062,43.0390625 C69.5039062,43.1888021 69.5039062,43.3385417 69.5039062,43.4882812 C69.5039062,43.4882812 69.5039062,43.563151 69.5039062,43.7128906 Z M70.6269531,43.0390625 C70.7766927,43.0390625 71.0013021,42.9641927 71.3007812,42.8144531 C71.4505208,42.8144531 71.6002604,42.7395833 71.75,42.5898438 C71.75,42.7395833 71.75,42.9641927 71.75,43.2636719 C71.6002604,43.4134115 71.4505208,43.4882812 71.3007812,43.4882812 C71.1510417,43.4882812 70.9264323,43.563151 70.6269531,43.7128906 C70.4772135,43.7128906 70.327474,43.7128906 70.1777344,43.7128906 C70.0279948,43.7128906 69.8033854,43.7128906 69.5039062,43.7128906 C69.5039062,43.563151 69.5039062,43.3385417 69.5039062,43.0390625 C69.6536458,43.1888021 69.8033854,43.1888021 69.953125,43.0390625 C70.2526042,43.0390625 70.4772135,43.0390625 70.6269531,43.0390625 Z M66.1347656,39.4453125 C66.2845052,40.34375 66.6588542,41.0175781 67.2578125,41.4667969 C67.8567708,42.0657552 68.530599,42.4401042 69.2792969,42.5898438 C69.4290365,42.7395833 69.5039062,42.8893229 69.5039062,43.0390625 C68.6054688,43.0390625 67.781901,42.7395833 67.0332031,42.140625 C66.2845052,41.3919271 65.7604167,40.5683594 65.4609375,39.6699219 C65.3111979,38.4720052 65.5358073,37.4238281 66.1347656,36.5253906 C66.8834635,35.4772135 67.8567708,34.8033854 69.0546875,34.5039062 C70.2526042,34.3541667 71.3007812,34.6536458 72.1992188,35.4023438 C73.2473958,36.0013021 73.8463542,36.8997396 73.9960938,38.0976562 C74.1458333,38.9960938 73.9960938,39.8945312 73.546875,40.7929688 C73.0976562,41.6914062 72.4986979,42.3652344 71.75,42.8144531 C71.75,42.6647135 71.6751302,42.4401042 71.5253906,42.140625 C72.2740885,41.6914062 72.7981771,41.1673177 73.0976562,40.5683594 C73.546875,39.8196615 73.6966146,38.9960938 73.546875,38.0976562 C73.546875,38.2473958 73.546875,38.3971354 73.546875,38.546875 C73.546875,38.546875 73.546875,38.546875 73.546875,38.546875 C73.546875,38.546875 73.546875,38.546875 73.546875,38.546875 C73.546875,38.6966146 73.546875,38.7714844 73.546875,38.7714844 C73.546875,38.7714844 73.546875,38.6966146 73.546875,38.546875 C73.546875,38.546875 73.546875,38.546875 73.546875,38.546875 C73.546875,38.3971354 73.4720052,38.0976562 73.3222656,37.6484375 C73.3222656,37.3489583 73.3971354,37.4986979 73.546875,38.0976562 C73.3971354,37.0494792 72.8730469,36.3007812 71.9746094,35.8515625 C71.0761719,35.2526042 70.1028646,35.0279948 69.0546875,35.1777344 C68.15625,35.327474 67.4075521,35.8515625 66.8085938,36.75 C66.2096354,37.6484375 65.985026,38.546875 66.1347656,39.4453125 Z M73.546875,38.546875 C73.546875,38.3971354 73.4720052,38.0976562 73.3222656,37.6484375 C73.3222656,37.3489583 73.3971354,37.4986979 73.546875,38.0976562 C73.546875,38.2473958 73.546875,38.3971354 73.546875,38.546875 C73.546875,38.546875 73.546875,38.546875 73.546875,38.546875 Z M70.6269531,43.0390625 C70.4772135,43.0390625 70.2526042,43.0390625 69.953125,43.0390625 C69.8033854,43.1888021 69.6536458,43.1888021 69.5039062,43.0390625 C69.5039062,42.8893229 69.4290365,42.7395833 69.2792969,42.5898438 C69.578776,42.5898438 69.8033854,42.5898438 69.953125,42.5898438 C70.1028646,42.5898438 70.327474,42.5898438 70.6269531,42.5898438 C70.7766927,42.4401042 70.9264323,42.3652344 71.0761719,42.3652344 C71.2259115,42.2154948 71.375651,42.140625 71.5253906,42.140625 C71.6751302,42.2903646 71.75,42.4401042 71.75,42.5898438 C71.6002604,42.7395833 71.4505208,42.8144531 71.3007812,42.8144531 C71.0013021,42.9641927 70.7766927,43.0390625 70.6269531,43.0390625 Z M85.0019531,44.1621094 C85.0019531,44.7610677 84.9270833,45.5097656 84.7773438,46.4082031 C85.2265625,46.5579427 85.9003906,46.7076823 86.7988281,46.8574219 C86.6490885,44.0123698 86.3496094,39.7447917 85.9003906,34.0546875 C84.5527344,36.6002604 82.6809896,40.4934896 80.2851562,45.734375 C80.734375,45.734375 81.4082031,45.8092448 82.3066406,45.9589844 C82.4563802,45.5097656 82.6061198,44.7610677 82.7558594,43.7128906 C83.3548177,43.8626302 84.1035156,44.0123698 85.0019531,44.1621094 Z M84.5527344,46.4082031 C84.702474,45.9589844 84.8522135,45.2102865 85.0019531,44.1621094 C84.5527344,44.1621094 83.8040365,44.0123698 82.7558594,43.7128906 C82.7558594,44.311849 82.6061198,45.0605469 82.3066406,45.9589844 C82.905599,46.108724 83.6542969,46.2584635 84.5527344,46.4082031 Z M63.2148438,10.6953125 C63.5143229,10.3958333 63.8886719,10.0214844 64.3378906,9.57226562 C64.6373698,9.27278646 65.0865885,8.82356771 65.6855469,8.22460938 C65.6855469,8.22460938 65.7604167,8.22460938 65.9101562,8.22460938 C65.9101562,8.07486979 65.985026,8 66.1347656,8 C66.1347656,8 66.2096354,8 66.359375,8 C66.359375,8 66.359375,8 66.359375,8 C66.359375,8 66.4342448,8 66.5839844,8 C66.5839844,8 66.6588542,8 66.8085938,8 C66.8085938,8.14973958 66.8834635,8.22460938 67.0332031,8.22460938 C67.0332031,8.37434896 67.0332031,8.44921875 67.0332031,8.44921875 C67.1829427,8.59895833 67.2578125,8.67382812 67.2578125,8.67382812 C67.2578125,8.82356771 67.2578125,8.8984375 67.2578125,8.8984375 C67.2578125,10.8450521 67.2578125,13.1660156 67.2578125,15.8613281 C67.2578125,18.7063802 67.2578125,22.000651 67.2578125,25.7441406 C67.2578125,25.7441406 67.2578125,25.8190104 67.2578125,25.96875 C67.1080729,26.1184896 67.0332031,26.2682292 67.0332031,26.4179688 C66.8834635,26.4179688 66.733724,26.4928385 66.5839844,26.6425781 C66.5839844,26.6425781 66.5091146,26.6425781 66.359375,26.6425781 C66.2096354,26.6425781 66.0598958,26.6425781 65.9101562,26.6425781 C65.7604167,26.4928385 65.6855469,26.4179688 65.6855469,26.4179688 C65.5358073,26.2682292 65.4609375,26.1184896 65.4609375,25.96875 C65.3111979,25.96875 65.2363281,25.8938802 65.2363281,25.7441406 C65.2363281,24.0970052 65.2363281,22.0755208 65.2363281,19.6796875 C65.2363281,17.2838542 65.2363281,14.5136719 65.2363281,11.3691406 C65.2363281,11.3691406 65.1614583,11.4440104 65.0117188,11.59375 C64.8619792,11.7434896 64.7122396,11.8932292 64.5625,12.0429688 C64.5625,12.1927083 64.4876302,12.2675781 64.3378906,12.2675781 C64.188151,12.2675781 64.0384115,12.2675781 63.8886719,12.2675781 C63.8886719,12.2675781 63.8138021,12.2675781 63.6640625,12.2675781 C63.5143229,12.2675781 63.3645833,12.1927083 63.2148438,12.0429688 C63.2148438,11.8932292 63.139974,11.8183594 62.9902344,11.8183594 C62.9902344,11.6686198 62.9902344,11.5188802 62.9902344,11.3691406 C62.9902344,11.219401 62.9902344,11.0696615 62.9902344,10.9199219 C63.139974,10.9199219 63.2148438,10.8450521 63.2148438,10.6953125 Z"/></svg>