<svg xmlns="http://www.w3.org/2000/svg" width="120" height="203" viewBox="0 0 120 203"><path fill="#131313" d="M4713.91488,23.6962891 C4715.97543,24.1083984 4717.55518,25.1386719 4718.65414,26.7871094 C4719.47836,28.1608073 4719.89047,29.5345052 4719.89047,30.9082031 C4719.89047,31.4576823 4719.89047,32.0071615 4719.89047,32.5566406 C4714.53305,60.8548177 4706.5656,103.302083 4695.98813,159.898438 C4695.98813,159.898438 4695.98813,159.898438 4695.98813,159.898438 C4695.98813,159.898438 4695.98813,159.898438 4695.98813,159.898438 C4695.85076,160.035807 4695.78207,160.173177 4695.78207,160.310547 C4695.78207,160.310547 4695.78207,160.379232 4695.78207,160.516602 C4695.6447,160.653971 4695.57602,160.791341 4695.57602,160.928711 C4695.57602,161.066081 4695.50733,161.203451 4695.36996,161.34082 C4695.36996,161.34082 4695.36996,161.409505 4695.36996,161.546875 C4695.36996,161.684245 4695.30128,161.75293 4695.16391,161.75293 C4695.16391,161.890299 4695.09522,162.027669 4694.95785,162.165039 C4694.95785,162.302409 4694.88917,162.439779 4694.7518,162.577148 C4694.7518,162.577148 4694.7518,162.645833 4694.7518,162.783203 C4694.61443,162.783203 4694.54574,162.851888 4694.54574,162.989258 C4694.40837,163.126628 4694.33969,163.195312 4694.33969,163.195312 C4694.20232,163.332682 4694.06495,163.470052 4693.92758,163.607422 C4693.92758,163.607422 4693.85889,163.676107 4693.72152,163.813477 C4693.72152,163.813477 4693.65284,163.882161 4693.51547,164.019531 C4693.51547,164.156901 4693.44678,164.225586 4693.30941,164.225586 C4693.17204,164.362956 4693.03467,164.431641 4692.8973,164.431641 C4692.8973,164.56901 4692.82862,164.637695 4692.69125,164.637695 C4692.69125,164.775065 4692.62257,164.84375 4692.4852,164.84375 C4692.34783,164.98112 4692.21046,165.049805 4692.07309,165.049805 C4691.93572,165.049805 4691.79835,165.11849 4691.66098,165.255859 C4691.66098,165.255859 4691.59229,165.255859 4691.45492,165.255859 C4691.45492,165.393229 4691.38624,165.461914 4691.24887,165.461914 C4691.1115,165.461914 4690.90544,165.530599 4690.6307,165.667969 C4690.49333,165.667969 4690.28728,165.736654 4690.01254,165.874023 C4690.01254,165.874023 4690.01254,165.874023 4690.01254,165.874023 C4690.01254,165.874023 4690.01254,165.874023 4690.01254,165.874023 C4690.01254,165.874023 4690.01254,165.874023 4690.01254,165.874023 C4690.01254,165.874023 4690.01254,165.874023 4690.01254,165.874023 C4689.7378,165.874023 4689.46306,165.874023 4689.18832,165.874023 C4689.05095,165.874023 4688.8449,165.874023 4688.57016,165.874023 C4688.29542,165.874023 4688.08936,165.874023 4687.95199,165.874023 C4687.67725,165.874023 4687.40251,165.874023 4687.12777,165.874023 C4687.12777,165.874023 4687.12777,165.874023 4687.12777,165.874023 C4687.12777,165.874023 4687.12777,165.874023 4687.12777,165.874023 C4687.12777,165.874023 4687.12777,165.874023 4687.12777,165.874023 C4687.12777,165.874023 4687.12777,165.874023 4687.12777,165.874023 C4686.85303,165.736654 4686.64698,165.667969 4686.50961,165.667969 C4686.23487,165.530599 4686.02882,165.461914 4685.89145,165.461914 C4685.75408,165.461914 4685.68539,165.393229 4685.68539,165.255859 C4685.54802,165.255859 4685.47934,165.255859 4685.47934,165.255859 C4685.34197,165.11849 4685.2046,165.049805 4685.06723,165.049805 C4684.92986,165.049805 4684.79249,164.98112 4684.65512,164.84375 C4684.51775,164.84375 4684.44906,164.775065 4684.44906,164.637695 C4684.31169,164.637695 4684.24301,164.56901 4684.24301,164.431641 C4684.10564,164.431641 4683.96827,164.362956 4683.8309,164.225586 C4683.69353,164.225586 4683.62484,164.156901 4683.62484,164.019531 C4683.48747,163.882161 4683.41879,163.813477 4683.41879,163.813477 C4683.28142,163.676107 4683.21273,163.607422 4683.21273,163.607422 C4683.07536,163.470052 4682.93799,163.332682 4682.80063,163.195312 C4682.80063,163.195312 4682.73194,163.126628 4682.59457,162.989258 C4682.59457,162.851888 4682.52589,162.783203 4682.38852,162.783203 C4682.38852,162.645833 4682.38852,162.577148 4682.38852,162.577148 C4682.25115,162.439779 4682.11378,162.302409 4681.97641,162.165039 C4681.97641,162.027669 4681.97641,161.890299 4681.97641,161.75293 C4681.83904,161.75293 4681.77035,161.684245 4681.77035,161.546875 C4681.77035,161.409505 4681.70167,161.34082 4681.5643,161.34082 C4681.5643,161.203451 4681.5643,161.066081 4681.5643,160.928711 C4681.42693,160.791341 4681.35824,160.653971 4681.35824,160.516602 C4681.35824,160.379232 4681.35824,160.310547 4681.35824,160.310547 C4681.35824,160.173177 4681.28956,160.035807 4681.15219,159.898438 C4681.15219,159.898438 4681.15219,159.898438 4681.15219,159.898438 C4681.15219,159.898438 4681.15219,159.898438 4681.15219,159.898438 C4677.4432,140.254557 4671.94841,110.788737 4664.66781,71.5009766 C4660.95883,91.1448568 4655.39535,120.610677 4647.97738,159.898438 C4647.97738,159.898438 4647.97738,159.898438 4647.97738,159.898438 C4647.97738,159.898438 4647.97738,159.898438 4647.97738,159.898438 C4647.97738,160.035807 4647.97738,160.173177 4647.97738,160.310547 C4647.97738,160.310547 4647.9087,160.379232 4647.77133,160.516602 C4647.77133,160.653971 4647.77133,160.791341 4647.77133,160.928711 C4647.77133,161.066081 4647.70264,161.203451 4647.56527,161.34082 C4647.56527,161.34082 4647.56527,161.409505 4647.56527,161.546875 C4647.4279,161.684245 4647.35922,161.75293 4647.35922,161.75293 C4647.35922,161.890299 4647.29053,162.027669 4647.15316,162.165039 C4647.15316,162.302409 4647.08448,162.439779 4646.94711,162.577148 C4646.94711,162.577148 4646.87842,162.645833 4646.74105,162.783203 C4646.74105,162.783203 4646.74105,162.851888 4646.74105,162.989258 C4646.60368,163.126628 4646.46632,163.195312 4646.32895,163.195312 C4646.32895,163.332682 4646.26026,163.470052 4646.12289,163.607422 C4646.12289,163.607422 4646.05421,163.676107 4645.91684,163.813477 C4645.91684,163.813477 4645.84815,163.882161 4645.71078,164.019531 C4645.57341,164.156901 4645.50473,164.225586 4645.50473,164.225586 C4645.36736,164.362956 4645.22999,164.431641 4645.09262,164.431641 C4645.09262,164.56901 4645.02393,164.637695 4644.88656,164.637695 C4644.74919,164.775065 4644.68051,164.84375 4644.68051,164.84375 C4644.54314,164.98112 4644.40577,165.049805 4644.2684,165.049805 C4644.13103,165.049805 4643.99366,165.11849 4643.85629,165.255859 C4643.85629,165.255859 4643.7876,165.255859 4643.65023,165.255859 C4643.51286,165.393229 4643.44418,165.461914 4643.44418,165.461914 C4643.16944,165.461914 4642.96339,165.530599 4642.82602,165.667969 C4642.68865,165.667969 4642.48259,165.736654 4642.20785,165.874023 C4642.20785,165.874023 4642.20785,165.874023 4642.20785,165.874023 C4642.20785,165.874023 4642.13917,165.874023 4642.0018,165.874023 C4642.0018,165.874023 4642.0018,165.874023 4642.0018,165.874023 C4642.0018,165.874023 4642.0018,165.874023 4642.0018,165.874023 C4641.86443,165.874023 4641.65837,165.874023 4641.38363,165.874023 C4641.10889,165.874023 4640.90284,165.874023 4640.76547,165.874023 C4640.49073,165.874023 4640.21599,165.874023 4639.94125,165.874023 C4639.80388,165.874023 4639.59783,165.874023 4639.32309,165.874023 C4639.32309,165.874023 4639.32309,165.874023 4639.32309,165.874023 C4639.32309,165.874023 4639.32309,165.874023 4639.32309,165.874023 C4639.32309,165.874023 4639.32309,165.874023 4639.32309,165.874023 C4639.32309,165.874023 4639.2544,165.874023 4639.11703,165.874023 C4638.97966,165.736654 4638.77361,165.667969 4638.49887,165.667969 C4638.3615,165.530599 4638.22413,165.461914 4638.08676,165.461914 C4637.94939,165.461914 4637.81202,165.393229 4637.67465,165.255859 C4637.67465,165.255859 4637.60596,165.255859 4637.46859,165.255859 C4637.33122,165.11849 4637.19385,165.049805 4637.05648,165.049805 C4637.05648,165.049805 4636.9878,164.98112 4636.85043,164.84375 C4636.71306,164.84375 4636.57569,164.775065 4636.43832,164.637695 C4636.43832,164.637695 4636.36964,164.56901 4636.23227,164.431641 C4636.23227,164.431641 4636.16358,164.362956 4636.02621,164.225586 C4635.88884,164.225586 4635.75147,164.156901 4635.6141,164.019531 C4635.6141,163.882161 4635.54542,163.813477 4635.40805,163.813477 C4635.40805,163.676107 4635.33936,163.607422 4635.20199,163.607422 C4635.20199,163.470052 4635.13331,163.332682 4634.99594,163.195312 C4634.85857,163.195312 4634.78988,163.126628 4634.78988,162.989258 C4634.65251,162.851888 4634.58383,162.783203 4634.58383,162.783203 C4634.58383,162.645833 4634.51514,162.577148 4634.37777,162.577148 C4634.37777,162.439779 4634.30909,162.302409 4634.17172,162.165039 C4634.17172,162.027669 4634.10303,161.890299 4633.96566,161.75293 C4633.96566,161.75293 4633.96566,161.684245 4633.96566,161.546875 C4633.82829,161.409505 4633.75961,161.34082 4633.75961,161.34082 C4633.75961,161.203451 4633.75961,161.066081 4633.75961,160.928711 C4633.62224,160.791341 4633.55355,160.653971 4633.55355,160.516602 C4633.55355,160.379232 4633.48487,160.310547 4633.3475,160.310547 C4633.3475,160.173177 4633.3475,160.035807 4633.3475,159.898438 C4633.3475,159.898438 4633.3475,159.898438 4633.3475,159.898438 C4633.3475,159.898438 4633.3475,159.898438 4633.3475,159.898438 C4627.99008,131.60026 4620.02263,89.1529948 4609.44516,32.5566406 C4609.30779,32.0071615 4609.2391,31.4576823 4609.2391,30.9082031 C4609.2391,29.5345052 4609.7199,28.1608073 4610.68148,26.7871094 C4611.78044,25.1386719 4613.3602,24.1083984 4615.42074,23.6962891 C4617.48129,23.2841797 4619.33578,23.6962891 4620.98422,24.9326172 C4622.77003,26.0315755 4623.8003,27.6113281 4624.07504,29.671875 C4627.78402,49.3157552 4633.3475,78.7128906 4640.76547,117.863281 C4644.33708,98.219401 4649.83188,68.8222656 4657.24984,29.671875 C4657.24984,29.671875 4657.24984,29.671875 4657.24984,29.671875 C4657.24984,29.671875 4657.24984,29.6031901 4657.24984,29.4658203 C4657.24984,29.3284505 4657.31853,29.1910807 4657.4559,29.0537109 C4657.4559,28.9163411 4657.4559,28.7789714 4657.4559,28.6416016 C4657.59327,28.6416016 4657.66195,28.5729167 4657.66195,28.4355469 C4657.66195,28.2981771 4657.66195,28.2294922 4657.66195,28.2294922 C4657.79932,28.0921224 4657.86801,27.9547526 4657.86801,27.8173828 C4658.00538,27.680013 4658.07406,27.6113281 4658.07406,27.6113281 C4658.07406,27.4739583 4658.14275,27.3365885 4658.28012,27.1992187 C4658.28012,27.061849 4658.3488,26.9244792 4658.48617,26.7871094 C4658.48617,26.7871094 4658.55486,26.7184245 4658.69223,26.5810547 C4658.69223,26.5810547 4658.69223,26.5123698 4658.69223,26.375 C4658.8296,26.2376302 4658.96697,26.1689453 4659.10434,26.1689453 C4659.10434,26.0315755 4659.17302,25.8942057 4659.31039,25.7568359 C4659.44776,25.7568359 4659.51645,25.688151 4659.51645,25.5507813 C4659.65382,25.5507813 4659.7225,25.4820964 4659.7225,25.3447266 C4659.85987,25.3447266 4659.99724,25.2760417 4660.13461,25.1386719 C4660.27198,25.0013021 4660.40935,24.9326172 4660.54672,24.9326172 C4660.54672,24.7952474 4660.6154,24.7265625 4660.75277,24.7265625 C4660.75277,24.7265625 4660.82146,24.6578776 4660.95883,24.5205078 C4661.0962,24.5205078 4661.23357,24.4518229 4661.37094,24.3144531 C4661.50831,24.3144531 4661.64568,24.2457682 4661.78305,24.1083984 C4661.78305,24.1083984 4661.85173,24.1083984 4661.9891,24.1083984 C4662.12647,24.1083984 4662.19516,24.1083984 4662.19516,24.1083984 C4662.33253,23.9710286 4662.53858,23.9023438 4662.81332,23.9023438 C4662.95069,23.764974 4663.08806,23.6962891 4663.22543,23.6962891 C4663.22543,23.6962891 4663.22543,23.6962891 4663.22543,23.6962891 C4663.22543,23.6962891 4663.22543,23.6962891 4663.22543,23.6962891 C4663.3628,23.6962891 4663.50017,23.6962891 4663.63754,23.6962891 C4663.63754,23.6962891 4663.70622,23.6962891 4663.84359,23.6962891 C4663.98096,23.6962891 4664.11833,23.6962891 4664.2557,23.6962891 C4664.39307,23.6962891 4664.53044,23.6962891 4664.66781,23.6962891 C4664.80518,23.6962891 4664.94255,23.6962891 4665.07992,23.6962891 C4665.21729,23.6962891 4665.42335,23.6962891 4665.69809,23.6962891 C4665.69809,23.6962891 4665.76677,23.6962891 4665.90414,23.6962891 C4665.90414,23.6962891 4665.97283,23.6962891 4666.1102,23.6962891 C4666.1102,23.6962891 4666.1102,23.6962891 4666.1102,23.6962891 C4666.1102,23.6962891 4666.1102,23.6962891 4666.1102,23.6962891 C4666.24757,23.8336589 4666.45362,23.9023438 4666.72836,23.9023438 C4666.86573,23.9023438 4667.0031,23.9710286 4667.14047,24.1083984 C4667.27784,24.1083984 4667.34652,24.1083984 4667.34652,24.1083984 C4667.34652,24.1083984 4667.41521,24.1083984 4667.55258,24.1083984 C4667.68995,24.2457682 4667.82732,24.383138 4667.96469,24.5205078 C4668.10206,24.5205078 4668.30811,24.5891927 4668.58285,24.7265625 C4668.58285,24.7265625 4668.58285,24.7265625 4668.58285,24.7265625 C4668.72022,24.7265625 4668.78891,24.7952474 4668.78891,24.9326172 C4668.92628,24.9326172 4669.06365,25.0013021 4669.20102,25.1386719 C4669.33839,25.2760417 4669.47576,25.4134115 4669.61313,25.5507813 C4669.75049,25.5507813 4669.81918,25.6194661 4669.81918,25.7568359 C4669.81918,25.7568359 4669.81918,25.7568359 4669.81918,25.7568359 C4669.95655,25.8942057 4670.09392,26.0315755 4670.23129,26.1689453 C4670.36866,26.3063151 4670.50603,26.4436849 4670.6434,26.5810547 C4670.6434,26.5810547 4670.6434,26.6497396 4670.6434,26.7871094 C4670.78077,26.7871094 4670.84945,26.7871094 4670.84945,26.7871094 C4670.84945,26.9244792 4670.91814,27.061849 4671.05551,27.1992187 C4671.05551,27.3365885 4671.12419,27.4739583 4671.26156,27.6113281 C4671.26156,27.7486979 4671.33025,27.8173828 4671.46762,27.8173828 C4671.46762,27.9547526 4671.46762,28.0921224 4671.46762,28.2294922 C4671.60499,28.2294922 4671.67367,28.2981771 4671.67367,28.4355469 C4671.67367,28.5729167 4671.67367,28.7102865 4671.67367,28.8476562 C4671.81104,28.985026 4671.87973,29.1223958 4671.87973,29.2597656 C4671.87973,29.3971354 4671.87973,29.5345052 4671.87973,29.671875 C4671.87973,29.671875 4671.87973,29.671875 4671.87973,29.671875 C4672.0171,29.671875 4672.08578,29.671875 4672.08578,29.671875 C4675.6574,49.3157552 4681.15219,78.7815755 4688.57016,118.069336 C4692.27914,98.4254557 4697.77393,68.9596354 4705.05453,29.671875 C4705.46664,27.6113281 4706.5656,26.0315755 4708.35141,24.9326172 C4709.99984,23.6962891 4711.85434,23.2841797 4713.91488,23.6962891 Z M4633.55355,39.7685547 C4633.82829,39.7685547 4634.03435,39.7685547 4634.17172,39.7685547 C4634.30909,39.7685547 4634.44646,39.7685547 4634.58383,39.7685547 C4634.85857,39.6311849 4635.06462,39.5625 4635.20199,39.5625 C4635.33936,39.5625 4635.47673,39.4938151 4635.6141,39.3564453 C4636.85043,45.4007161 4638.56755,54.4671224 4640.76547,66.5556641 C4641.86443,61.0608724 4643.44418,52.8186849 4645.50473,41.8291016 C4645.91684,41.9664714 4646.60368,42.1038411 4647.56527,42.2412109 C4646.05421,50.2086589 4643.7876,62.0911458 4640.76547,77.8886719 C4639.52914,71.5696615 4638.3615,65.250651 4637.26254,58.9316406 C4636.02621,52.4752604 4634.78988,46.0875651 4633.55355,39.7685547 Z M4633.55355,39.7685547 C4632.59197,39.7685547 4631.69906,39.4251302 4630.87484,38.7382812 C4630.05063,38.0514323 4629.56983,37.1585286 4629.43246,36.0595703 C4629.15772,34.960612 4629.36378,33.8616536 4630.05063,32.7626953 C4630.73747,31.8011068 4631.69906,31.1829427 4632.93539,30.9082031 C4634.17172,30.6334635 4635.33936,30.8395182 4636.43832,31.5263672 C4637.39991,32.2132161 4638.01807,33.1748047 4638.29281,34.4111328 C4638.43018,35.5100911 4638.29281,36.5403646 4637.8807,37.5019531 C4637.33122,38.3261719 4636.57569,38.9443359 4635.6141,39.3564453 C4635.6141,39.2190755 4635.6141,39.0817057 4635.6141,38.9443359 C4636.43832,38.5322266 4637.05648,37.9140625 4637.46859,37.0898437 C4637.8807,36.265625 4637.94939,35.4414062 4637.67465,34.6171875 C4637.53728,33.5182292 4636.9878,32.6253255 4636.02621,31.9384766 C4635.20199,31.3889974 4634.2404,31.1829427 4633.14145,31.3203125 C4632.04249,31.5950521 4631.21827,32.1445312 4630.66879,32.96875 C4629.98194,33.9303385 4629.77589,34.960612 4630.05063,36.0595703 C4630.18799,36.8837891 4630.6001,37.6393229 4631.28695,38.3261719 C4631.9738,38.875651 4632.72934,39.1503906 4633.55355,39.1503906 C4633.55355,39.2877604 4633.55355,39.4251302 4633.55355,39.5625 C4633.55355,39.5625 4633.55355,39.6311849 4633.55355,39.7685547 Z M4634.58383,39.1503906 C4634.7212,39.1503906 4634.92725,39.0817057 4635.20199,38.9443359 C4635.33936,38.9443359 4635.47673,38.875651 4635.6141,38.7382812 C4635.6141,38.875651 4635.6141,39.0817057 4635.6141,39.3564453 C4635.47673,39.4938151 4635.33936,39.5625 4635.20199,39.5625 C4635.06462,39.5625 4634.85857,39.6311849 4634.58383,39.7685547 C4634.44646,39.7685547 4634.30909,39.7685547 4634.17172,39.7685547 C4634.03435,39.7685547 4633.82829,39.7685547 4633.55355,39.7685547 C4633.55355,39.6311849 4633.55355,39.4251302 4633.55355,39.1503906 C4633.69092,39.2877604 4633.82829,39.2877604 4633.96566,39.1503906 C4634.2404,39.1503906 4634.44646,39.1503906 4634.58383,39.1503906 Z M4630.46273,35.8535156 C4630.6001,36.6777344 4630.94353,37.2958984 4631.49301,37.7080078 C4632.04249,38.257487 4632.66065,38.6009115 4633.3475,38.7382812 C4633.48487,38.875651 4633.55355,39.0130208 4633.55355,39.1503906 C4632.72934,39.1503906 4631.9738,38.875651 4631.28695,38.3261719 C4630.6001,37.6393229 4630.11931,36.8837891 4629.84457,36.0595703 C4629.7072,34.960612 4629.91326,33.9990234 4630.46273,33.1748047 C4631.14958,32.2132161 4632.04249,31.5950521 4633.14145,31.3203125 C4634.2404,31.1829427 4635.20199,31.4576823 4636.02621,32.1445312 C4636.9878,32.6940104 4637.53728,33.5182292 4637.67465,34.6171875 C4637.81202,35.4414062 4637.67465,36.265625 4637.26254,37.0898437 C4636.85043,37.9140625 4636.30095,38.5322266 4635.6141,38.9443359 C4635.6141,38.8069661 4635.54542,38.6009115 4635.40805,38.3261719 C4636.0949,37.9140625 4636.57569,37.4332682 4636.85043,36.8837891 C4637.26254,36.1969401 4637.39991,35.4414062 4637.26254,34.6171875 C4637.26254,34.7545573 4637.26254,34.8919271 4637.26254,35.0292969 C4637.26254,35.0292969 4637.26254,35.0292969 4637.26254,35.0292969 C4637.26254,35.0292969 4637.26254,35.0292969 4637.26254,35.0292969 C4637.26254,35.1666667 4637.26254,35.2353516 4637.26254,35.2353516 C4637.26254,35.2353516 4637.26254,35.1666667 4637.26254,35.0292969 C4637.26254,35.0292969 4637.26254,35.0292969 4637.26254,35.0292969 C4637.26254,34.8919271 4637.19385,34.6171875 4637.05648,34.2050781 C4637.05648,33.9303385 4637.12517,34.0677083 4637.26254,34.6171875 C4637.12517,33.655599 4636.64438,32.96875 4635.82016,32.5566406 C4634.99594,32.0071615 4634.10303,31.8011068 4633.14145,31.9384766 C4632.31723,32.0758464 4631.63038,32.5566406 4631.0809,33.3808594 C4630.53142,34.2050781 4630.32536,35.0292969 4630.46273,35.8535156 Z M4637.26254,35.0292969 C4637.26254,34.8919271 4637.19385,34.6171875 4637.05648,34.2050781 C4637.05648,33.9303385 4637.12517,34.0677083 4637.26254,34.6171875 C4637.26254,34.7545573 4637.26254,34.8919271 4637.26254,35.0292969 C4637.26254,35.0292969 4637.26254,35.0292969 4637.26254,35.0292969 Z M4634.58383,39.1503906 C4634.44646,39.1503906 4634.2404,39.1503906 4633.96566,39.1503906 C4633.82829,39.2877604 4633.69092,39.2877604 4633.55355,39.1503906 C4633.55355,39.0130208 4633.48487,38.875651 4633.3475,38.7382812 C4633.62224,38.7382812 4633.82829,38.7382812 4633.96566,38.7382812 C4634.10303,38.7382812 4634.30909,38.7382812 4634.58383,38.7382812 C4634.7212,38.6009115 4634.85857,38.5322266 4634.99594,38.5322266 C4635.13331,38.3948568 4635.27068,38.3261719 4635.40805,38.3261719 C4635.54542,38.4635417 4635.6141,38.6009115 4635.6141,38.7382812 C4635.47673,38.875651 4635.33936,38.9443359 4635.20199,38.9443359 C4634.92725,39.0817057 4634.7212,39.1503906 4634.58383,39.1503906 Z M4647.77133,40.1806641 C4647.77133,40.7301432 4647.70264,41.4169922 4647.56527,42.2412109 C4647.97738,42.3785807 4648.59555,42.5159505 4649.41977,42.6533203 C4649.2824,40.0432943 4649.00766,36.1282552 4648.59555,30.9082031 C4647.35922,33.2434896 4645.6421,36.8151042 4643.44418,41.6230469 C4643.85629,41.6230469 4644.47445,41.6917318 4645.29867,41.8291016 C4645.43604,41.4169922 4645.57341,40.7301432 4645.71078,39.7685547 C4646.26026,39.9059245 4646.94711,40.0432943 4647.77133,40.1806641 Z M4647.35922,42.2412109 C4647.49659,41.8291016 4647.63396,41.1422526 4647.77133,40.1806641 C4647.35922,40.1806641 4646.67237,40.0432943 4645.71078,39.7685547 C4645.71078,40.3180339 4645.57341,41.0048828 4645.29867,41.8291016 C4645.84815,41.9664714 4646.535,42.1038411 4647.35922,42.2412109 Z M4627.78402,9.47851562 C4628.05876,9.20377604 4628.40219,8.86035156 4628.8143,8.44824219 C4629.08904,8.1735026 4629.50115,7.76139323 4630.05063,7.21191406 C4630.05063,7.21191406 4630.11931,7.21191406 4630.25668,7.21191406 C4630.25668,7.07454427 4630.32536,7.00585938 4630.46273,7.00585938 C4630.46273,7.00585938 4630.53142,7.00585938 4630.66879,7.00585938 C4630.66879,7.00585938 4630.66879,7.00585938 4630.66879,7.00585938 C4630.66879,7.00585938 4630.73747,7.00585938 4630.87484,7.00585938 C4630.87484,7.00585938 4630.94353,7.00585938 4631.0809,7.00585938 C4631.0809,7.14322917 4631.14958,7.21191406 4631.28695,7.21191406 C4631.28695,7.34928385 4631.28695,7.41796875 4631.28695,7.41796875 C4631.42432,7.55533854 4631.49301,7.62402344 4631.49301,7.62402344 C4631.49301,7.76139323 4631.49301,7.83007813 4631.49301,7.83007813 C4631.49301,9.61588542 4631.49301,11.7451172 4631.49301,14.2177734 C4631.49301,16.8277995 4631.49301,19.8499349 4631.49301,23.2841797 C4631.49301,23.2841797 4631.49301,23.3528646 4631.49301,23.4902344 C4631.35564,23.6276042 4631.28695,23.764974 4631.28695,23.9023438 C4631.14958,23.9023438 4631.01221,23.9710286 4630.87484,24.1083984 C4630.87484,24.1083984 4630.80616,24.1083984 4630.66879,24.1083984 C4630.53142,24.1083984 4630.39405,24.1083984 4630.25668,24.1083984 C4630.11931,23.9710286 4630.05063,23.9023438 4630.05063,23.9023438 C4629.91326,23.764974 4629.84457,23.6276042 4629.84457,23.4902344 C4629.7072,23.4902344 4629.63852,23.4215495 4629.63852,23.2841797 C4629.63852,21.773112 4629.63852,19.9186198 4629.63852,17.7207031 C4629.63852,15.5227865 4629.63852,12.9814453 4629.63852,10.0966797 C4629.63852,10.0966797 4629.56983,10.1653646 4629.43246,10.3027344 C4629.29509,10.4401042 4629.15772,10.577474 4629.02035,10.7148437 C4629.02035,10.8522135 4628.95167,10.9208984 4628.8143,10.9208984 C4628.67693,10.9208984 4628.53956,10.9208984 4628.40219,10.9208984 C4628.40219,10.9208984 4628.3335,10.9208984 4628.19613,10.9208984 C4628.05876,10.9208984 4627.92139,10.8522135 4627.78402,10.7148437 C4627.78402,10.577474 4627.71534,10.5087891 4627.57797,10.5087891 C4627.57797,10.3714193 4627.57797,10.2340495 4627.57797,10.0966797 C4627.57797,9.9593099 4627.57797,9.8219401 4627.57797,9.68457031 C4627.71534,9.68457031 4627.78402,9.61588542 4627.78402,9.47851562 Z" transform="translate(-4604.5 -23.734)"/></svg>