<svg xmlns="http://www.w3.org/2000/svg" width="107" height="203" viewBox="0 0 107 203"><path fill="#131313" d="M5392.95996,117.449219 C5395.05632,118.048177 5396.70345,119.320964 5397.90137,121.267578 C5398.65007,122.465495 5399.02441,123.738281 5399.02441,125.085938 C5399.02441,125.834635 5398.94954,126.583333 5398.7998,127.332031 C5394.75684,142.755208 5388.76725,165.889974 5380.83105,196.736328 C5380.83105,196.886068 5380.83105,196.960938 5380.83105,196.960938 C5380.83105,196.960938 5380.83105,197.035807 5380.83105,197.185547 C5380.68132,197.335286 5380.60645,197.410156 5380.60645,197.410156 C5380.60645,197.559896 5380.60645,197.634766 5380.60645,197.634766 C5380.45671,197.784505 5380.38184,197.934245 5380.38184,198.083984 C5380.2321,198.233724 5380.15723,198.383464 5380.15723,198.533203 C5380.15723,198.682943 5380.08236,198.757812 5379.93262,198.757812 C5379.93262,198.907552 5379.93262,198.982422 5379.93262,198.982422 C5379.78288,199.132161 5379.70801,199.281901 5379.70801,199.431641 C5379.55827,199.58138 5379.40853,199.73112 5379.25879,199.880859 C5379.25879,199.880859 5379.25879,199.955729 5379.25879,200.105469 C5379.10905,200.105469 5379.03418,200.180339 5379.03418,200.330078 C5378.88444,200.479818 5378.7347,200.629557 5378.58496,200.779297 C5378.43522,200.929036 5378.21061,201.078776 5377.91113,201.228516 C5377.91113,201.228516 5377.91113,201.228516 5377.91113,201.228516 C5377.91113,201.228516 5377.91113,201.228516 5377.91113,201.228516 C5377.61165,201.378255 5377.38704,201.527995 5377.2373,201.677734 C5377.08757,201.827474 5376.93783,201.902344 5376.78809,201.902344 C5376.63835,202.052083 5376.56348,202.126953 5376.56348,202.126953 C5376.41374,202.126953 5376.33887,202.126953 5376.33887,202.126953 C5376.18913,202.276693 5375.96452,202.351562 5375.66504,202.351562 C5375.5153,202.501302 5375.36556,202.576172 5375.21582,202.576172 C5375.21582,202.576172 5375.21582,202.576172 5375.21582,202.576172 C5375.06608,202.576172 5374.99121,202.576172 5374.99121,202.576172 C5374.99121,202.576172 5374.91634,202.651042 5374.7666,202.800781 C5374.7666,202.800781 5374.69173,202.800781 5374.54199,202.800781 C5374.54199,202.800781 5374.46712,202.800781 5374.31738,202.800781 C5374.31738,202.800781 5374.24251,202.800781 5374.09277,202.800781 C5373.94303,202.800781 5373.79329,202.800781 5373.64355,202.800781 C5373.49382,202.800781 5373.26921,202.800781 5372.96973,202.800781 C5372.96973,202.800781 5372.96973,202.800781 5372.96973,202.800781 C5372.96973,202.800781 5372.96973,202.800781 5372.96973,202.800781 C5372.96973,202.800781 5372.96973,202.800781 5372.96973,202.800781 C5372.96973,202.800781 5372.96973,202.800781 5372.96973,202.800781 C5372.81999,202.800781 5372.59538,202.800781 5372.2959,202.800781 C5372.14616,202.800781 5371.99642,202.800781 5371.84668,202.800781 C5371.69694,202.800781 5371.62207,202.800781 5371.62207,202.800781 C5371.47233,202.800781 5371.39746,202.800781 5371.39746,202.800781 C5371.24772,202.800781 5371.17285,202.725911 5371.17285,202.576172 C5371.02311,202.576172 5370.94824,202.576172 5370.94824,202.576172 C5370.94824,202.576172 5370.87337,202.576172 5370.72363,202.576172 C5370.72363,202.576172 5370.72363,202.576172 5370.72363,202.576172 C5370.57389,202.576172 5370.42415,202.501302 5370.27441,202.351562 C5370.12467,202.351562 5369.97493,202.276693 5369.8252,202.126953 C5369.67546,202.126953 5369.60059,202.126953 5369.60059,202.126953 C5369.45085,202.126953 5369.37598,202.052083 5369.37598,201.902344 C5369.0765,201.902344 5368.85189,201.827474 5368.70215,201.677734 C5368.55241,201.527995 5368.3278,201.378255 5368.02832,201.228516 C5368.02832,201.228516 5368.02832,201.228516 5368.02832,201.228516 C5368.02832,201.228516 5368.02832,201.228516 5368.02832,201.228516 C5367.87858,201.078776 5367.65397,200.929036 5367.35449,200.779297 C5367.20475,200.629557 5367.05501,200.479818 5366.90527,200.330078 C5366.90527,200.180339 5366.90527,200.105469 5366.90527,200.105469 C5366.75553,199.955729 5366.68066,199.880859 5366.68066,199.880859 C5366.53092,199.73112 5366.45605,199.58138 5366.45605,199.431641 C5366.30632,199.281901 5366.15658,199.132161 5366.00684,198.982422 C5366.00684,198.982422 5366.00684,198.907552 5366.00684,198.757812 C5366.00684,198.757812 5365.93197,198.682943 5365.78223,198.533203 C5365.78223,198.383464 5365.70736,198.233724 5365.55762,198.083984 C5365.55762,198.083984 5365.48275,198.009115 5365.33301,197.859375 C5365.33301,197.709635 5365.33301,197.559896 5365.33301,197.410156 C5365.33301,197.410156 5365.33301,197.335286 5365.33301,197.185547 C5365.18327,197.185547 5365.1084,197.110677 5365.1084,196.960938 C5365.1084,196.960938 5365.1084,196.886068 5365.1084,196.736328 C5362.8623,188.201172 5359.49316,175.248698 5355.00098,157.878906 C5352.75488,166.563802 5349.46061,179.516276 5345.11816,196.736328 C5345.11816,196.886068 5345.04329,196.960938 5344.89355,196.960938 C5344.89355,197.110677 5344.89355,197.185547 5344.89355,197.185547 C5344.89355,197.335286 5344.89355,197.410156 5344.89355,197.410156 C5344.74382,197.559896 5344.66895,197.709635 5344.66895,197.859375 C5344.66895,198.009115 5344.59408,198.083984 5344.44434,198.083984 C5344.44434,198.233724 5344.36947,198.383464 5344.21973,198.533203 C5344.21973,198.682943 5344.21973,198.757812 5344.21973,198.757812 C5344.21973,198.907552 5344.14486,198.982422 5343.99512,198.982422 C5343.99512,199.132161 5343.92025,199.281901 5343.77051,199.431641 C5343.62077,199.58138 5343.5459,199.73112 5343.5459,199.880859 C5343.39616,199.880859 5343.32129,199.955729 5343.32129,200.105469 C5343.32129,200.105469 5343.24642,200.180339 5343.09668,200.330078 C5342.94694,200.479818 5342.7972,200.629557 5342.64746,200.779297 C5342.49772,200.929036 5342.34798,201.078776 5342.19824,201.228516 C5342.19824,201.228516 5342.12337,201.228516 5341.97363,201.228516 C5341.97363,201.228516 5341.97363,201.228516 5341.97363,201.228516 C5341.82389,201.378255 5341.67415,201.527995 5341.52441,201.677734 C5341.22493,201.827474 5341.00033,201.977214 5340.85059,202.126953 C5340.85059,202.126953 5340.77572,202.126953 5340.62598,202.126953 C5340.62598,202.126953 5340.55111,202.126953 5340.40137,202.126953 C5340.25163,202.276693 5340.10189,202.351562 5339.95215,202.351562 C5339.80241,202.501302 5339.65267,202.576172 5339.50293,202.576172 C5339.35319,202.576172 5339.27832,202.576172 5339.27832,202.576172 C5339.27832,202.576172 5339.27832,202.576172 5339.27832,202.576172 C5339.12858,202.725911 5339.05371,202.800781 5339.05371,202.800781 C5338.90397,202.800781 5338.8291,202.800781 5338.8291,202.800781 C5338.67936,202.800781 5338.60449,202.800781 5338.60449,202.800781 C5338.45475,202.800781 5338.37988,202.800781 5338.37988,202.800781 C5338.23014,202.800781 5338.00553,202.800781 5337.70605,202.800781 C5337.55632,202.950521 5337.40658,203.025391 5337.25684,203.025391 C5337.25684,203.025391 5337.25684,203.025391 5337.25684,203.025391 C5337.25684,203.025391 5337.25684,203.025391 5337.25684,203.025391 C5337.1071,203.025391 5337.03223,203.025391 5337.03223,203.025391 C5337.03223,203.025391 5337.03223,203.025391 5337.03223,203.025391 C5336.88249,203.025391 5336.73275,202.950521 5336.58301,202.800781 C5336.43327,202.800781 5336.20866,202.800781 5335.90918,202.800781 C5335.90918,202.800781 5335.83431,202.800781 5335.68457,202.800781 C5335.68457,202.800781 5335.6097,202.800781 5335.45996,202.800781 C5335.45996,202.800781 5335.38509,202.800781 5335.23535,202.800781 C5335.23535,202.800781 5335.16048,202.725911 5335.01074,202.576172 C5335.01074,202.576172 5335.01074,202.576172 5335.01074,202.576172 C5335.01074,202.576172 5334.93587,202.576172 5334.78613,202.576172 C5334.63639,202.576172 5334.48665,202.501302 5334.33691,202.351562 C5334.18717,202.351562 5334.03743,202.276693 5333.8877,202.126953 C5333.73796,202.126953 5333.66309,202.126953 5333.66309,202.126953 C5333.51335,202.126953 5333.43848,202.126953 5333.43848,202.126953 C5333.28874,201.977214 5333.06413,201.827474 5332.76465,201.677734 C5332.61491,201.527995 5332.46517,201.378255 5332.31543,201.228516 C5332.31543,201.228516 5332.31543,201.228516 5332.31543,201.228516 C5332.16569,201.228516 5332.09082,201.228516 5332.09082,201.228516 C5331.94108,201.078776 5331.79134,200.929036 5331.6416,200.779297 C5331.49186,200.629557 5331.34212,200.479818 5331.19238,200.330078 C5331.04264,200.180339 5330.96777,200.105469 5330.96777,200.105469 C5330.96777,199.955729 5330.8929,199.880859 5330.74316,199.880859 C5330.74316,199.73112 5330.66829,199.58138 5330.51855,199.431641 C5330.36882,199.281901 5330.29395,199.132161 5330.29395,198.982422 C5330.14421,198.982422 5330.06934,198.907552 5330.06934,198.757812 C5330.06934,198.757812 5329.99447,198.682943 5329.84473,198.533203 C5329.84473,198.383464 5329.84473,198.233724 5329.84473,198.083984 C5329.69499,197.934245 5329.62012,197.784505 5329.62012,197.634766 C5329.62012,197.634766 5329.54525,197.559896 5329.39551,197.410156 C5329.39551,197.260417 5329.39551,197.185547 5329.39551,197.185547 C5329.39551,197.035807 5329.32064,196.960938 5329.1709,196.960938 C5329.1709,196.960938 5329.1709,196.886068 5329.1709,196.736328 C5325.27767,181.313151 5319.28809,158.178385 5311.20215,127.332031 C5310.75293,125.085938 5311.05241,122.989583 5312.10059,121.042969 C5313.2985,119.246094 5314.94564,118.048177 5317.04199,117.449219 C5317.79069,117.14974 5318.53939,117 5319.28809,117 C5320.63574,117.14974 5321.9834,117.598958 5323.33105,118.347656 C5325.27767,119.395833 5326.55046,121.042969 5327.14941,123.289062 C5329.39551,131.824219 5332.68978,144.776693 5337.03223,162.146484 C5339.27832,153.461589 5342.64746,140.509115 5347.13965,123.289062 C5347.13965,123.139323 5347.13965,123.064453 5347.13965,123.064453 C5347.13965,123.064453 5347.13965,122.989583 5347.13965,122.839844 C5347.28939,122.690104 5347.36426,122.615234 5347.36426,122.615234 C5347.36426,122.465495 5347.43913,122.315755 5347.58887,122.166016 C5347.58887,122.016276 5347.58887,121.866536 5347.58887,121.716797 C5347.73861,121.567057 5347.81348,121.492188 5347.81348,121.492188 C5347.96322,121.342448 5348.03809,121.192708 5348.03809,121.042969 C5348.18783,120.893229 5348.2627,120.818359 5348.2627,120.818359 C5348.41243,120.66862 5348.4873,120.51888 5348.4873,120.369141 C5348.63704,120.369141 5348.71191,120.294271 5348.71191,120.144531 C5348.86165,119.994792 5348.93652,119.919922 5348.93652,119.919922 C5349.08626,119.770182 5349.236,119.620443 5349.38574,119.470703 C5349.38574,119.470703 5349.46061,119.395833 5349.61035,119.246094 C5349.61035,119.246094 5349.68522,119.171224 5349.83496,119.021484 C5349.9847,118.871745 5350.13444,118.796875 5350.28418,118.796875 C5350.28418,118.647135 5350.35905,118.572266 5350.50879,118.572266 C5350.65853,118.422526 5350.7334,118.347656 5350.7334,118.347656 C5350.88314,118.347656 5351.03288,118.272786 5351.18262,118.123047 C5351.33236,118.123047 5351.4821,118.048177 5351.63184,117.898438 C5351.63184,117.898438 5351.70671,117.898438 5351.85645,117.898438 C5352.00618,117.748698 5352.15592,117.673828 5352.30566,117.673828 C5352.4554,117.673828 5352.60514,117.598958 5352.75488,117.449219 C5352.75488,117.449219 5352.82975,117.449219 5352.97949,117.449219 C5352.97949,117.449219 5352.97949,117.449219 5352.97949,117.449219 C5353.12923,117.449219 5353.2041,117.449219 5353.2041,117.449219 C5353.35384,117.449219 5353.42871,117.449219 5353.42871,117.449219 C5353.57845,117.299479 5353.72819,117.224609 5353.87793,117.224609 C5354.02767,117.224609 5354.17741,117.224609 5354.32715,117.224609 C5354.47689,117.224609 5354.62663,117.224609 5354.77637,117.224609 C5354.77637,117.224609 5354.85124,117.224609 5355.00098,117.224609 C5355.15072,117.224609 5355.30046,117.224609 5355.4502,117.224609 C5355.59993,117.224609 5355.74967,117.224609 5355.89941,117.224609 C5356.04915,117.224609 5356.19889,117.224609 5356.34863,117.224609 C5356.49837,117.224609 5356.64811,117.299479 5356.79785,117.449219 C5356.79785,117.449219 5356.79785,117.449219 5356.79785,117.449219 C5356.94759,117.449219 5357.02246,117.449219 5357.02246,117.449219 C5357.1722,117.449219 5357.24707,117.449219 5357.24707,117.449219 C5357.24707,117.449219 5357.32194,117.449219 5357.47168,117.449219 C5357.62142,117.598958 5357.77116,117.673828 5357.9209,117.673828 C5358.07064,117.673828 5358.14551,117.748698 5358.14551,117.898438 C5358.29525,117.898438 5358.44499,117.898438 5358.59473,117.898438 C5358.74447,118.048177 5358.81934,118.123047 5358.81934,118.123047 C5358.96908,118.272786 5359.11882,118.347656 5359.26855,118.347656 C5359.41829,118.497396 5359.49316,118.572266 5359.49316,118.572266 C5359.6429,118.572266 5359.79264,118.647135 5359.94238,118.796875 C5360.09212,118.946615 5360.16699,119.021484 5360.16699,119.021484 C5360.31673,119.171224 5360.46647,119.246094 5360.61621,119.246094 C5360.61621,119.395833 5360.69108,119.470703 5360.84082,119.470703 C5360.84082,119.620443 5360.91569,119.770182 5361.06543,119.919922 C5361.21517,119.919922 5361.29004,119.994792 5361.29004,120.144531 C5361.43978,120.294271 5361.51465,120.369141 5361.51465,120.369141 C5361.66439,120.51888 5361.73926,120.66862 5361.73926,120.818359 C5361.889,120.968099 5361.96387,121.042969 5361.96387,121.042969 C5362.11361,121.192708 5362.18848,121.342448 5362.18848,121.492188 C5362.18848,121.641927 5362.26335,121.716797 5362.41309,121.716797 C5362.41309,121.866536 5362.41309,122.016276 5362.41309,122.166016 C5362.56283,122.315755 5362.6377,122.465495 5362.6377,122.615234 C5362.78743,122.764974 5362.8623,122.839844 5362.8623,122.839844 C5362.8623,122.989583 5362.8623,123.064453 5362.8623,123.064453 C5362.8623,123.214193 5362.8623,123.289062 5362.8623,123.289062 C5365.1084,131.973958 5368.47754,144.926432 5372.96973,162.146484 C5375.21582,153.461589 5378.58496,140.509115 5383.07715,123.289062 C5383.52637,121.042969 5384.72428,119.395833 5386.6709,118.347656 C5388.61751,117.14974 5390.71387,116.85026 5392.95996,117.449219 Z M5302.99023,128.679688 C5305.68555,139.311198 5309.80339,155.333333 5315.34375,176.746094 C5314.89453,176.746094 5314.14583,176.895833 5313.09766,177.195312 C5310.40234,166.563802 5306.28451,150.541667 5300.74414,129.128906 C5300.89388,129.128906 5301.04362,129.128906 5301.19336,129.128906 C5301.49284,129.128906 5301.71745,129.128906 5301.86719,129.128906 C5302.01693,128.979167 5302.16667,128.904297 5302.31641,128.904297 C5302.61589,128.754557 5302.84049,128.679688 5302.99023,128.679688 Z M5317.36523,176.072266 C5317.36523,178.917318 5317.36523,183.259766 5317.36523,189.099609 C5315.86784,186.554036 5313.77148,182.810547 5311.07617,177.869141 C5311.52539,177.719401 5312.19922,177.494792 5313.09766,177.195312 C5313.2474,177.794271 5313.47201,178.542969 5313.77148,179.441406 C5314.2207,179.291667 5314.9694,179.067057 5316.01758,178.767578 C5315.86784,178.318359 5315.64323,177.644531 5315.34375,176.746094 C5315.79297,176.596354 5316.4668,176.371745 5317.36523,176.072266 Z M5313.09766,177.195312 C5313.54688,177.045573 5314.29557,176.895833 5315.34375,176.746094 C5315.49349,177.195312 5315.64323,177.869141 5315.79297,178.767578 C5315.34375,178.917318 5314.66992,179.141927 5313.77148,179.441406 C5313.62174,178.992188 5313.39714,178.24349 5313.09766,177.195312 Z M5305.23633,122.615234 C5305.23633,122.615234 5305.23633,122.615234 5305.23633,122.615234 C5305.23633,122.764974 5305.23633,122.839844 5305.23633,122.839844 C5305.23633,122.839844 5305.23633,122.764974 5305.23633,122.615234 C5305.23633,122.615234 5305.23633,122.615234 5305.23633,122.615234 Z M5305.23633,122.390625 C5305.23633,122.390625 5305.23633,122.390625 5305.23633,122.390625 C5305.23633,122.540365 5305.23633,122.615234 5305.23633,122.615234 C5305.23633,122.615234 5305.23633,122.540365 5305.23633,122.390625 C5305.23633,122.390625 5305.23633,122.390625 5305.23633,122.390625 Z M5305.46094,123.738281 C5305.46094,123.738281 5305.46094,123.738281 5305.46094,123.738281 C5305.46094,123.588542 5305.46094,123.438802 5305.46094,123.289062 C5305.46094,123.438802 5305.46094,123.588542 5305.46094,123.738281 C5305.46094,123.738281 5305.46094,123.738281 5305.46094,123.738281 Z M5296.47656,125.310547 C5296.6263,126.358724 5297.15039,127.182292 5298.04883,127.78125 C5298.79753,128.380208 5299.62109,128.679688 5300.51953,128.679688 C5300.51953,128.829427 5300.5944,128.979167 5300.74414,129.128906 C5299.54622,129.278646 5298.49805,128.979167 5297.59961,128.230469 C5296.70117,127.63151 5296.10221,126.733073 5295.80273,125.535156 C5295.50326,124.1875 5295.72786,122.989583 5296.47656,121.941406 C5297.07552,120.74349 5298.04883,119.994792 5299.39648,119.695312 C5300.74414,119.246094 5302.01693,119.395833 5303.21484,120.144531 C5304.26302,120.74349 5305.01172,121.716797 5305.46094,123.064453 C5305.76042,124.26237 5305.61068,125.385417 5305.01172,126.433594 C5304.5625,127.332031 5303.88867,128.080729 5302.99023,128.679688 C5302.99023,128.529948 5302.91536,128.305339 5302.76562,128.005859 C5303.66406,127.556641 5304.26302,126.882812 5304.5625,125.984375 C5305.01172,125.085938 5305.08659,124.1875 5304.78711,123.289062 C5304.48763,122.091146 5303.8138,121.192708 5302.76562,120.59375 C5301.71745,119.994792 5300.66927,119.845052 5299.62109,120.144531 C5298.42318,120.44401 5297.52474,121.117839 5296.92578,122.166016 C5296.32682,123.214193 5296.17708,124.26237 5296.47656,125.310547 Z M5301.86719,129.128906 C5301.71745,129.128906 5301.49284,129.128906 5301.19336,129.128906 C5301.04362,129.128906 5300.89388,129.128906 5300.74414,129.128906 C5300.74414,129.128906 5300.66927,128.979167 5300.51953,128.679688 C5300.66927,128.679688 5300.89388,128.679688 5301.19336,128.679688 C5301.3431,128.679688 5301.49284,128.604818 5301.64258,128.455078 C5301.94206,128.455078 5302.16667,128.380208 5302.31641,128.230469 C5302.46615,128.230469 5302.61589,128.155599 5302.76562,128.005859 C5302.76562,128.155599 5302.84049,128.380208 5302.99023,128.679688 C5302.84049,128.679688 5302.61589,128.754557 5302.31641,128.904297 C5302.16667,128.904297 5302.01693,128.979167 5301.86719,129.128906 Z M5304.78711,123.289062 C5305.08659,124.1875 5305.01172,125.085938 5304.5625,125.984375 C5304.26302,126.882812 5303.66406,127.556641 5302.76562,128.005859 C5302.76562,127.85612 5302.69076,127.70638 5302.54102,127.556641 C5303.28971,127.107422 5303.8138,126.508464 5304.11328,125.759766 C5304.41276,125.011068 5304.48763,124.1875 5304.33789,123.289062 C5304.03841,122.390625 5303.43945,121.641927 5302.54102,121.042969 C5301.64258,120.59375 5300.66927,120.44401 5299.62109,120.59375 C5298.72266,120.893229 5297.97396,121.492188 5297.375,122.390625 C5296.92578,123.289062 5296.77604,124.26237 5296.92578,125.310547 C5296.92578,125.160807 5296.92578,125.085938 5296.92578,125.085938 C5296.92578,125.085938 5296.92578,125.011068 5296.92578,124.861328 C5296.92578,124.861328 5296.92578,124.861328 5296.92578,124.861328 C5296.92578,124.861328 5296.92578,124.861328 5296.92578,124.861328 C5296.92578,124.861328 5296.92578,124.861328 5296.92578,124.861328 C5296.92578,124.861328 5296.92578,124.861328 5296.92578,124.861328 C5296.92578,125.011068 5296.92578,125.085938 5296.92578,125.085938 C5296.92578,125.085938 5296.92578,125.160807 5296.92578,125.310547 C5297.22526,126.059245 5297.67448,126.733073 5298.27344,127.332031 C5298.8724,127.78125 5299.54622,128.005859 5300.29492,128.005859 C5300.44466,128.155599 5300.51953,128.380208 5300.51953,128.679688 C5299.62109,128.679688 5298.79753,128.380208 5298.04883,127.78125 C5297.15039,127.182292 5296.6263,126.358724 5296.47656,125.310547 C5296.17708,124.26237 5296.32682,123.214193 5296.92578,122.166016 C5297.52474,121.117839 5298.42318,120.44401 5299.62109,120.144531 C5300.66927,119.845052 5301.71745,119.994792 5302.76562,120.59375 C5303.8138,121.192708 5304.48763,122.091146 5304.78711,123.289062 Z M5296.92578,124.861328 C5296.92578,125.011068 5296.92578,125.085938 5296.92578,125.085938 C5296.92578,125.085938 5296.92578,125.160807 5296.92578,125.310547 C5296.92578,125.160807 5296.92578,125.085938 5296.92578,125.085938 C5296.92578,125.085938 5296.92578,125.011068 5296.92578,124.861328 Z M5301.64258,128.005859 C5301.79232,127.85612 5301.94206,127.78125 5302.0918,127.78125 C5302.24154,127.63151 5302.39128,127.556641 5302.54102,127.556641 C5302.69076,127.70638 5302.76562,127.85612 5302.76562,128.005859 C5302.61589,128.155599 5302.46615,128.230469 5302.31641,128.230469 C5302.16667,128.380208 5301.94206,128.455078 5301.64258,128.455078 C5301.49284,128.604818 5301.3431,128.679688 5301.19336,128.679688 C5300.89388,128.679688 5300.66927,128.679688 5300.51953,128.679688 C5300.51953,128.529948 5300.44466,128.305339 5300.29492,128.005859 C5300.5944,128.005859 5300.81901,128.005859 5300.96875,128.005859 C5301.11849,128.005859 5301.3431,128.005859 5301.64258,128.005859 Z M5286.59375,120.369141 C5286.74349,120.369141 5286.89323,120.369141 5287.04297,120.369141 C5287.04297,120.51888 5287.04297,120.59375 5287.04297,120.59375 C5287.19271,120.74349 5287.26758,120.818359 5287.26758,120.818359 C5287.26758,120.968099 5287.26758,121.117839 5287.26758,121.267578 C5287.26758,123.064453 5287.26758,125.385417 5287.26758,128.230469 C5287.26758,130.925781 5287.26758,134.145182 5287.26758,137.888672 C5287.26758,138.038411 5287.26758,138.113281 5287.26758,138.113281 C5287.11784,138.263021 5287.04297,138.41276 5287.04297,138.5625 C5286.89323,138.5625 5286.74349,138.63737 5286.59375,138.787109 C5286.44401,138.787109 5286.36914,138.787109 5286.36914,138.787109 C5286.2194,138.787109 5286.06966,138.787109 5285.91992,138.787109 C5285.77018,138.63737 5285.69531,138.5625 5285.69531,138.5625 C5285.54557,138.41276 5285.4707,138.263021 5285.4707,138.113281 C5285.32096,138.113281 5285.24609,138.038411 5285.24609,137.888672 C5285.24609,136.241536 5285.24609,134.220052 5285.24609,131.824219 C5285.24609,129.428385 5285.24609,126.658203 5285.24609,123.513672 C5285.24609,123.663411 5285.17122,123.738281 5285.02148,123.738281 C5284.87174,123.888021 5284.72201,124.03776 5284.57227,124.1875 C5284.57227,124.33724 5284.4974,124.412109 5284.34766,124.412109 C5284.19792,124.412109 5284.04818,124.412109 5283.89844,124.412109 C5283.7487,124.412109 5283.67383,124.412109 5283.67383,124.412109 C5283.52409,124.412109 5283.37435,124.33724 5283.22461,124.1875 C5283.22461,124.1875 5283.14974,124.11263 5283,123.962891 C5283,123.813151 5283,123.663411 5283,123.513672 C5283,123.363932 5283,123.214193 5283,123.064453 C5283.14974,123.064453 5283.22461,122.989583 5283.22461,122.839844 C5283.52409,122.540365 5283.89844,122.240885 5284.34766,121.941406 C5284.64714,121.492188 5285.09635,121.042969 5285.69531,120.59375 C5285.69531,120.44401 5285.77018,120.369141 5285.91992,120.369141 C5285.91992,120.219401 5285.99479,120.144531 5286.14453,120.144531 C5286.14453,120.144531 5286.14453,120.144531 5286.14453,120.144531 C5286.14453,120.144531 5286.2194,120.144531 5286.36914,120.144531 C5286.36914,120.144531 5286.44401,120.144531 5286.59375,120.144531 C5286.59375,120.144531 5286.59375,120.219401 5286.59375,120.369141 Z" transform="translate(-5302)"/></svg>