<svg xmlns="http://www.w3.org/2000/svg" width="243" height="243" viewBox="0 0 243 243"><path fill="#131313" d="M158.959961,80.4492188 C161.056315,81.0481771 162.703451,82.3209635 163.901367,84.2675781 C164.650065,85.4654948 165.024414,86.7382812 165.024414,88.0859375 C165.024414,88.8346354 164.949544,89.5833333 164.799805,90.3320312 C160.756836,105.755208 154.767253,128.889974 146.831055,159.736328 C146.831055,159.886068 146.831055,159.960938 146.831055,159.960938 C146.831055,159.960938 146.831055,160.035807 146.831055,160.185547 C146.681315,160.335286 146.606445,160.410156 146.606445,160.410156 C146.606445,160.559896 146.606445,160.634766 146.606445,160.634766 C146.456706,160.784505 146.381836,160.934245 146.381836,161.083984 C146.232096,161.233724 146.157227,161.383464 146.157227,161.533203 C146.157227,161.682943 146.082357,161.757812 145.932617,161.757812 C145.932617,161.907552 145.932617,161.982422 145.932617,161.982422 C145.782878,162.132161 145.708008,162.281901 145.708008,162.431641 C145.558268,162.58138 145.408529,162.73112 145.258789,162.880859 C145.258789,162.880859 145.258789,162.955729 145.258789,163.105469 C145.109049,163.105469 145.03418,163.180339 145.03418,163.330078 C144.88444,163.479818 144.734701,163.629557 144.584961,163.779297 C144.435221,163.929036 144.210612,164.078776 143.911133,164.228516 C143.911133,164.228516 143.911133,164.228516 143.911133,164.228516 C143.911133,164.228516 143.911133,164.228516 143.911133,164.228516 C143.611654,164.378255 143.387044,164.527995 143.237305,164.677734 C143.087565,164.827474 142.937826,164.902344 142.788086,164.902344 C142.638346,165.052083 142.563477,165.126953 142.563477,165.126953 C142.413737,165.126953 142.338867,165.126953 142.338867,165.126953 C142.189128,165.276693 141.964518,165.351562 141.665039,165.351562 C141.515299,165.501302 141.36556,165.576172 141.21582,165.576172 C141.21582,165.576172 141.21582,165.576172 141.21582,165.576172 C141.066081,165.576172 140.991211,165.576172 140.991211,165.576172 C140.991211,165.576172 140.916341,165.651042 140.766602,165.800781 C140.766602,165.800781 140.691732,165.800781 140.541992,165.800781 C140.541992,165.800781 140.467122,165.800781 140.317383,165.800781 C140.317383,165.800781 140.242513,165.800781 140.092773,165.800781 C139.943034,165.800781 139.793294,165.800781 139.643555,165.800781 C139.493815,165.800781 139.269206,165.800781 138.969727,165.800781 C138.969727,165.800781 138.969727,165.800781 138.969727,165.800781 C138.969727,165.800781 138.969727,165.800781 138.969727,165.800781 C138.969727,165.800781 138.969727,165.800781 138.969727,165.800781 C138.969727,165.800781 138.969727,165.800781 138.969727,165.800781 C138.819987,165.800781 138.595378,165.800781 138.295898,165.800781 C138.146159,165.800781 137.996419,165.800781 137.84668,165.800781 C137.69694,165.800781 137.62207,165.800781 137.62207,165.800781 C137.472331,165.800781 137.397461,165.800781 137.397461,165.800781 C137.247721,165.800781 137.172852,165.725911 137.172852,165.576172 C137.023112,165.576172 136.948242,165.576172 136.948242,165.576172 C136.948242,165.576172 136.873372,165.576172 136.723633,165.576172 C136.723633,165.576172 136.723633,165.576172 136.723633,165.576172 C136.573893,165.576172 136.424154,165.501302 136.274414,165.351562 C136.124674,165.351562 135.974935,165.276693 135.825195,165.126953 C135.675456,165.126953 135.600586,165.126953 135.600586,165.126953 C135.450846,165.126953 135.375977,165.052083 135.375977,164.902344 C135.076497,164.902344 134.851888,164.827474 134.702148,164.677734 C134.552409,164.527995 134.327799,164.378255 134.02832,164.228516 C134.02832,164.228516 134.02832,164.228516 134.02832,164.228516 C134.02832,164.228516 134.02832,164.228516 134.02832,164.228516 C133.878581,164.078776 133.653971,163.929036 133.354492,163.779297 C133.204753,163.629557 133.055013,163.479818 132.905273,163.330078 C132.905273,163.180339 132.905273,163.105469 132.905273,163.105469 C132.755534,162.955729 132.680664,162.880859 132.680664,162.880859 C132.530924,162.73112 132.456055,162.58138 132.456055,162.431641 C132.306315,162.281901 132.156576,162.132161 132.006836,161.982422 C132.006836,161.982422 132.006836,161.907552 132.006836,161.757812 C132.006836,161.757812 131.931966,161.682943 131.782227,161.533203 C131.782227,161.383464 131.707357,161.233724 131.557617,161.083984 C131.557617,161.083984 131.482747,161.009115 131.333008,160.859375 C131.333008,160.709635 131.333008,160.559896 131.333008,160.410156 C131.333008,160.410156 131.333008,160.335286 131.333008,160.185547 C131.183268,160.185547 131.108398,160.110677 131.108398,159.960938 C131.108398,159.960938 131.108398,159.886068 131.108398,159.736328 C128.862305,151.201172 125.493164,138.248698 121.000977,120.878906 C118.754883,129.563802 115.460612,142.516276 111.118164,159.736328 C111.118164,159.886068 111.043294,159.960938 110.893555,159.960938 C110.893555,160.110677 110.893555,160.185547 110.893555,160.185547 C110.893555,160.335286 110.893555,160.410156 110.893555,160.410156 C110.743815,160.559896 110.668945,160.709635 110.668945,160.859375 C110.668945,161.009115 110.594076,161.083984 110.444336,161.083984 C110.444336,161.233724 110.369466,161.383464 110.219727,161.533203 C110.219727,161.682943 110.219727,161.757812 110.219727,161.757812 C110.219727,161.907552 110.144857,161.982422 109.995117,161.982422 C109.995117,162.132161 109.920247,162.281901 109.770508,162.431641 C109.620768,162.58138 109.545898,162.73112 109.545898,162.880859 C109.396159,162.880859 109.321289,162.955729 109.321289,163.105469 C109.321289,163.105469 109.246419,163.180339 109.09668,163.330078 C108.94694,163.479818 108.797201,163.629557 108.647461,163.779297 C108.497721,163.929036 108.347982,164.078776 108.198242,164.228516 C108.198242,164.228516 108.123372,164.228516 107.973633,164.228516 C107.973633,164.228516 107.973633,164.228516 107.973633,164.228516 C107.823893,164.378255 107.674154,164.527995 107.524414,164.677734 C107.224935,164.827474 107.000326,164.977214 106.850586,165.126953 C106.850586,165.126953 106.775716,165.126953 106.625977,165.126953 C106.625977,165.126953 106.551107,165.126953 106.401367,165.126953 C106.251628,165.276693 106.101888,165.351562 105.952148,165.351562 C105.802409,165.501302 105.652669,165.576172 105.50293,165.576172 C105.35319,165.576172 105.27832,165.576172 105.27832,165.576172 C105.27832,165.576172 105.27832,165.576172 105.27832,165.576172 C105.128581,165.725911 105.053711,165.800781 105.053711,165.800781 C104.903971,165.800781 104.829102,165.800781 104.829102,165.800781 C104.679362,165.800781 104.604492,165.800781 104.604492,165.800781 C104.454753,165.800781 104.379883,165.800781 104.379883,165.800781 C104.230143,165.800781 104.005534,165.800781 103.706055,165.800781 C103.556315,165.950521 103.406576,166.025391 103.256836,166.025391 C103.256836,166.025391 103.256836,166.025391 103.256836,166.025391 C103.256836,166.025391 103.256836,166.025391 103.256836,166.025391 C103.107096,166.025391 103.032227,166.025391 103.032227,166.025391 C103.032227,166.025391 103.032227,166.025391 103.032227,166.025391 C102.882487,166.025391 102.732747,165.950521 102.583008,165.800781 C102.433268,165.800781 102.208659,165.800781 101.90918,165.800781 C101.90918,165.800781 101.83431,165.800781 101.68457,165.800781 C101.68457,165.800781 101.609701,165.800781 101.459961,165.800781 C101.459961,165.800781 101.385091,165.800781 101.235352,165.800781 C101.235352,165.800781 101.160482,165.725911 101.010742,165.576172 C101.010742,165.576172 101.010742,165.576172 101.010742,165.576172 C101.010742,165.576172 100.935872,165.576172 100.786133,165.576172 C100.636393,165.576172 100.486654,165.501302 100.336914,165.351562 C100.187174,165.351562 100.037435,165.276693 99.8876953,165.126953 C99.7379557,165.126953 99.6630859,165.126953 99.6630859,165.126953 C99.5133464,165.126953 99.4384766,165.126953 99.4384766,165.126953 C99.288737,164.977214 99.0641276,164.827474 98.7646484,164.677734 C98.6149089,164.527995 98.4651693,164.378255 98.3154297,164.228516 C98.3154297,164.228516 98.3154297,164.228516 98.3154297,164.228516 C98.1656901,164.228516 98.0908203,164.228516 98.0908203,164.228516 C97.9410807,164.078776 97.7913411,163.929036 97.6416016,163.779297 C97.491862,163.629557 97.3421224,163.479818 97.1923828,163.330078 C97.0426432,163.180339 96.9677734,163.105469 96.9677734,163.105469 C96.9677734,162.955729 96.8929036,162.880859 96.7431641,162.880859 C96.7431641,162.73112 96.6682943,162.58138 96.5185547,162.431641 C96.3688151,162.281901 96.2939453,162.132161 96.2939453,161.982422 C96.1442057,161.982422 96.0693359,161.907552 96.0693359,161.757812 C96.0693359,161.757812 95.9944661,161.682943 95.8447266,161.533203 C95.8447266,161.383464 95.8447266,161.233724 95.8447266,161.083984 C95.694987,160.934245 95.6201172,160.784505 95.6201172,160.634766 C95.6201172,160.634766 95.5452474,160.559896 95.3955078,160.410156 C95.3955078,160.260417 95.3955078,160.185547 95.3955078,160.185547 C95.3955078,160.035807 95.320638,159.960938 95.1708984,159.960938 C95.1708984,159.960938 95.1708984,159.886068 95.1708984,159.736328 C91.2776693,144.313151 85.2880859,121.178385 77.2021484,90.3320312 C76.7529297,88.0859375 77.0524089,85.9895833 78.1005859,84.0429688 C79.2985026,82.2460938 80.945638,81.0481771 83.0419922,80.4492188 C83.7906901,80.1497396 84.539388,80 85.2880859,80 C86.6357422,80.1497396 87.9833984,80.5989583 89.3310547,81.3476562 C91.2776693,82.3958333 92.5504557,84.0429688 93.1494141,86.2890625 C95.3955078,94.8242188 98.6897786,107.776693 103.032227,125.146484 C105.27832,116.461589 108.647461,103.509115 113.139648,86.2890625 C113.139648,86.1393229 113.139648,86.0644531 113.139648,86.0644531 C113.139648,86.0644531 113.139648,85.9895833 113.139648,85.8398438 C113.289388,85.6901042 113.364258,85.6152344 113.364258,85.6152344 C113.364258,85.4654948 113.439128,85.3157552 113.588867,85.1660156 C113.588867,85.016276 113.588867,84.8665365 113.588867,84.7167969 C113.738607,84.5670573 113.813477,84.4921875 113.813477,84.4921875 C113.963216,84.3424479 114.038086,84.1927083 114.038086,84.0429688 C114.187826,83.8932292 114.262695,83.8183594 114.262695,83.8183594 C114.412435,83.6686198 114.487305,83.5188802 114.487305,83.3691406 C114.637044,83.3691406 114.711914,83.2942708 114.711914,83.1445312 C114.861654,82.9947917 114.936523,82.9199219 114.936523,82.9199219 C115.086263,82.7701823 115.236003,82.6204427 115.385742,82.4707031 C115.385742,82.4707031 115.460612,82.3958333 115.610352,82.2460938 C115.610352,82.2460938 115.685221,82.171224 115.834961,82.0214844 C115.984701,81.8717448 116.13444,81.796875 116.28418,81.796875 C116.28418,81.6471354 116.359049,81.5722656 116.508789,81.5722656 C116.658529,81.422526 116.733398,81.3476562 116.733398,81.3476562 C116.883138,81.3476562 117.032878,81.2727865 117.182617,81.1230469 C117.332357,81.1230469 117.482096,81.0481771 117.631836,80.8984375 C117.631836,80.8984375 117.706706,80.8984375 117.856445,80.8984375 C118.006185,80.7486979 118.155924,80.6738281 118.305664,80.6738281 C118.455404,80.6738281 118.605143,80.5989583 118.754883,80.4492188 C118.754883,80.4492188 118.829753,80.4492188 118.979492,80.4492188 C118.979492,80.4492188 118.979492,80.4492188 118.979492,80.4492188 C119.129232,80.4492188 119.204102,80.4492188 119.204102,80.4492188 C119.353841,80.4492188 119.428711,80.4492188 119.428711,80.4492188 C119.578451,80.2994792 119.72819,80.2246094 119.87793,80.2246094 C120.027669,80.2246094 120.177409,80.2246094 120.327148,80.2246094 C120.476888,80.2246094 120.626628,80.2246094 120.776367,80.2246094 C120.776367,80.2246094 120.851237,80.2246094 121.000977,80.2246094 C121.150716,80.2246094 121.300456,80.2246094 121.450195,80.2246094 C121.599935,80.2246094 121.749674,80.2246094 121.899414,80.2246094 C122.049154,80.2246094 122.198893,80.2246094 122.348633,80.2246094 C122.498372,80.2246094 122.648112,80.2994792 122.797852,80.4492188 C122.797852,80.4492188 122.797852,80.4492188 122.797852,80.4492188 C122.947591,80.4492188 123.022461,80.4492188 123.022461,80.4492188 C123.172201,80.4492188 123.24707,80.4492188 123.24707,80.4492188 C123.24707,80.4492188 123.32194,80.4492188 123.47168,80.4492188 C123.621419,80.5989583 123.771159,80.6738281 123.920898,80.6738281 C124.070638,80.6738281 124.145508,80.7486979 124.145508,80.8984375 C124.295247,80.8984375 124.444987,80.8984375 124.594727,80.8984375 C124.744466,81.0481771 124.819336,81.1230469 124.819336,81.1230469 C124.969076,81.2727865 125.118815,81.3476562 125.268555,81.3476562 C125.418294,81.4973958 125.493164,81.5722656 125.493164,81.5722656 C125.642904,81.5722656 125.792643,81.6471354 125.942383,81.796875 C126.092122,81.9466146 126.166992,82.0214844 126.166992,82.0214844 C126.316732,82.171224 126.466471,82.2460938 126.616211,82.2460938 C126.616211,82.3958333 126.691081,82.4707031 126.84082,82.4707031 C126.84082,82.6204427 126.91569,82.7701823 127.06543,82.9199219 C127.215169,82.9199219 127.290039,82.9947917 127.290039,83.1445312 C127.439779,83.2942708 127.514648,83.3691406 127.514648,83.3691406 C127.664388,83.5188802 127.739258,83.6686198 127.739258,83.8183594 C127.888997,83.968099 127.963867,84.0429688 127.963867,84.0429688 C128.113607,84.1927083 128.188477,84.3424479 128.188477,84.4921875 C128.188477,84.6419271 128.263346,84.7167969 128.413086,84.7167969 C128.413086,84.8665365 128.413086,85.016276 128.413086,85.1660156 C128.562826,85.3157552 128.637695,85.4654948 128.637695,85.6152344 C128.787435,85.764974 128.862305,85.8398438 128.862305,85.8398438 C128.862305,85.9895833 128.862305,86.0644531 128.862305,86.0644531 C128.862305,86.2141927 128.862305,86.2890625 128.862305,86.2890625 C131.108398,94.9739583 134.477539,107.926432 138.969727,125.146484 C141.21582,116.461589 144.584961,103.509115 149.077148,86.2890625 C149.526367,84.0429688 150.724284,82.3958333 152.670898,81.3476562 C154.617513,80.1497396 156.713867,79.8502604 158.959961,80.4492188 Z M68.9902344,91.6796875 C71.6855469,102.311198 75.8033854,118.333333 81.34375,139.746094 C80.8945312,139.746094 80.1458333,139.895833 79.0976562,140.195312 C76.4023438,129.563802 72.2845052,113.541667 66.7441406,92.1289062 C66.8938802,92.1289062 67.0436198,92.1289062 67.1933594,92.1289062 C67.4928385,92.1289062 67.7174479,92.1289062 67.8671875,92.1289062 C68.0169271,91.9791667 68.1666667,91.9042969 68.3164062,91.9042969 C68.6158854,91.7545573 68.8404948,91.6796875 68.9902344,91.6796875 Z M83.3652344,139.072266 C83.3652344,141.917318 83.3652344,146.259766 83.3652344,152.099609 C81.8678385,149.554036 79.7714844,145.810547 77.0761719,140.869141 C77.5253906,140.719401 78.1992188,140.494792 79.0976562,140.195312 C79.2473958,140.794271 79.4720052,141.542969 79.7714844,142.441406 C80.2207031,142.291667 80.969401,142.067057 82.0175781,141.767578 C81.8678385,141.318359 81.6432292,140.644531 81.34375,139.746094 C81.7929688,139.596354 82.4667969,139.371745 83.3652344,139.072266 Z M79.0976562,140.195312 C79.546875,140.045573 80.2955729,139.895833 81.34375,139.746094 C81.4934896,140.195312 81.6432292,140.869141 81.7929688,141.767578 C81.34375,141.917318 80.6699219,142.141927 79.7714844,142.441406 C79.6217448,141.992188 79.3971354,141.24349 79.0976562,140.195312 Z M71.2363281,85.6152344 C71.2363281,85.6152344 71.2363281,85.6152344 71.2363281,85.6152344 C71.2363281,85.764974 71.2363281,85.8398438 71.2363281,85.8398438 C71.2363281,85.8398438 71.2363281,85.764974 71.2363281,85.6152344 C71.2363281,85.6152344 71.2363281,85.6152344 71.2363281,85.6152344 Z M71.2363281,85.390625 C71.2363281,85.390625 71.2363281,85.390625 71.2363281,85.390625 C71.2363281,85.5403646 71.2363281,85.6152344 71.2363281,85.6152344 C71.2363281,85.6152344 71.2363281,85.5403646 71.2363281,85.390625 C71.2363281,85.390625 71.2363281,85.390625 71.2363281,85.390625 Z M71.4609375,86.7382812 C71.4609375,86.7382812 71.4609375,86.7382812 71.4609375,86.7382812 C71.4609375,86.5885417 71.4609375,86.4388021 71.4609375,86.2890625 C71.4609375,86.4388021 71.4609375,86.5885417 71.4609375,86.7382812 C71.4609375,86.7382812 71.4609375,86.7382812 71.4609375,86.7382812 Z M62.4765625,88.3105469 C62.6263021,89.358724 63.1503906,90.1822917 64.0488281,90.78125 C64.797526,91.3802083 65.6210938,91.6796875 66.5195313,91.6796875 C66.5195313,91.8294271 66.594401,91.9791667 66.7441406,92.1289062 C65.546224,92.2786458 64.4980469,91.9791667 63.5996094,91.2304688 C62.7011719,90.6315104 62.1022135,89.7330729 61.8027344,88.5351562 C61.5032552,87.1875 61.7278646,85.9895833 62.4765625,84.9414062 C63.0755208,83.7434896 64.0488281,82.9947917 65.3964844,82.6953125 C66.7441406,82.2460938 68.0169271,82.3958333 69.2148438,83.1445312 C70.2630208,83.7434896 71.0117188,84.7167969 71.4609375,86.0644531 C71.7604167,87.2623698 71.6106771,88.3854167 71.0117188,89.4335938 C70.5625,90.3320312 69.8886719,91.0807292 68.9902344,91.6796875 C68.9902344,91.5299479 68.9153646,91.3053385 68.765625,91.0058594 C69.6640625,90.5566406 70.2630208,89.8828125 70.5625,88.984375 C71.0117188,88.0859375 71.0865885,87.1875 70.7871094,86.2890625 C70.4876302,85.0911458 69.8138021,84.1927083 68.765625,83.59375 C67.7174479,82.9947917 66.6692708,82.8450521 65.6210938,83.1445312 C64.4231771,83.4440104 63.5247396,84.1178385 62.9257813,85.1660156 C62.3268229,86.2141927 62.1770833,87.2623698 62.4765625,88.3105469 Z M67.8671875,92.1289062 C67.7174479,92.1289062 67.4928385,92.1289062 67.1933594,92.1289062 C67.0436198,92.1289062 66.8938802,92.1289062 66.7441406,92.1289062 C66.7441406,92.1289062 66.6692708,91.9791667 66.5195312,91.6796875 C66.6692708,91.6796875 66.8938802,91.6796875 67.1933594,91.6796875 C67.343099,91.6796875 67.4928385,91.6048177 67.6425781,91.4550781 C67.9420573,91.4550781 68.1666667,91.3802083 68.3164062,91.2304688 C68.4661458,91.2304688 68.6158854,91.155599 68.765625,91.0058594 C68.765625,91.155599 68.8404948,91.3802083 68.9902344,91.6796875 C68.8404948,91.6796875 68.6158854,91.7545573 68.3164062,91.9042969 C68.1666667,91.9042969 68.0169271,91.9791667 67.8671875,92.1289062 Z M70.7871094,86.2890625 C71.0865885,87.1875 71.0117188,88.0859375 70.5625,88.984375 C70.2630208,89.8828125 69.6640625,90.5566406 68.765625,91.0058594 C68.765625,90.8561198 68.6907552,90.7063802 68.5410156,90.5566406 C69.2897135,90.1074219 69.8138021,89.5084635 70.1132813,88.7597656 C70.4127604,88.0110677 70.4876302,87.1875 70.3378906,86.2890625 C70.0384115,85.390625 69.4394531,84.6419271 68.5410156,84.0429688 C67.6425781,83.59375 66.6692708,83.4440104 65.6210938,83.59375 C64.7226563,83.8932292 63.9739583,84.4921875 63.375,85.390625 C62.9257813,86.2890625 62.7760417,87.2623698 62.9257813,88.3105469 C62.9257813,88.1608073 62.9257813,88.0859375 62.9257813,88.0859375 C62.9257813,88.0859375 62.9257813,88.0110677 62.9257813,87.8613281 C62.9257813,87.8613281 62.9257813,87.8613281 62.9257813,87.8613281 C62.9257813,87.8613281 62.9257813,87.8613281 62.9257813,87.8613281 C62.9257813,87.8613281 62.9257813,87.8613281 62.9257813,87.8613281 C62.9257813,87.8613281 62.9257813,87.8613281 62.9257813,87.8613281 C62.9257813,88.0110677 62.9257813,88.0859375 62.9257813,88.0859375 C62.9257813,88.0859375 62.9257813,88.1608073 62.9257813,88.3105469 C63.2252604,89.0592448 63.6744792,89.7330729 64.2734375,90.3320312 C64.8723958,90.78125 65.546224,91.0058594 66.2949219,91.0058594 C66.4446615,91.155599 66.5195313,91.3802083 66.5195313,91.6796875 C65.6210938,91.6796875 64.797526,91.3802083 64.0488281,90.78125 C63.1503906,90.1822917 62.6263021,89.358724 62.4765625,88.3105469 C62.1770833,87.2623698 62.3268229,86.2141927 62.9257813,85.1660156 C63.5247396,84.1178385 64.4231771,83.4440104 65.6210938,83.1445312 C66.6692708,82.8450521 67.7174479,82.9947917 68.765625,83.59375 C69.8138021,84.1927083 70.4876302,85.0911458 70.7871094,86.2890625 Z M62.9257812,87.8613281 C62.9257812,88.0110677 62.9257812,88.0859375 62.9257812,88.0859375 C62.9257812,88.0859375 62.9257812,88.1608073 62.9257812,88.3105469 C62.9257812,88.1608073 62.9257812,88.0859375 62.9257812,88.0859375 C62.9257812,88.0859375 62.9257812,88.0110677 62.9257812,87.8613281 Z M67.6425781,91.0058594 C67.7923177,90.8561198 67.9420573,90.78125 68.0917969,90.78125 C68.2415365,90.6315104 68.391276,90.5566406 68.5410156,90.5566406 C68.6907552,90.7063802 68.765625,90.8561198 68.765625,91.0058594 C68.6158854,91.155599 68.4661458,91.2304688 68.3164062,91.2304688 C68.1666667,91.3802083 67.9420573,91.4550781 67.6425781,91.4550781 C67.4928385,91.6048177 67.343099,91.6796875 67.1933594,91.6796875 C66.8938802,91.6796875 66.6692708,91.6796875 66.5195312,91.6796875 C66.5195312,91.5299479 66.4446615,91.3053385 66.2949219,91.0058594 C66.594401,91.0058594 66.8190104,91.0058594 66.96875,91.0058594 C67.1184896,91.0058594 67.343099,91.0058594 67.6425781,91.0058594 Z M52.59375,83.3691406 C52.7434896,83.3691406 52.8932292,83.3691406 53.0429688,83.3691406 C53.0429688,83.5188802 53.0429688,83.59375 53.0429688,83.59375 C53.1927083,83.7434896 53.2675781,83.8183594 53.2675781,83.8183594 C53.2675781,83.968099 53.2675781,84.1178385 53.2675781,84.2675781 C53.2675781,86.0644531 53.2675781,88.3854167 53.2675781,91.2304688 C53.2675781,93.9257812 53.2675781,97.1451823 53.2675781,100.888672 C53.2675781,101.038411 53.2675781,101.113281 53.2675781,101.113281 C53.1178385,101.263021 53.0429688,101.41276 53.0429688,101.5625 C52.8932292,101.5625 52.7434896,101.63737 52.59375,101.787109 C52.4440104,101.787109 52.3691406,101.787109 52.3691406,101.787109 C52.219401,101.787109 52.0696615,101.787109 51.9199219,101.787109 C51.7701823,101.63737 51.6953125,101.5625 51.6953125,101.5625 C51.5455729,101.41276 51.4707031,101.263021 51.4707031,101.113281 C51.3209635,101.113281 51.2460938,101.038411 51.2460938,100.888672 C51.2460938,99.2415365 51.2460938,97.2200521 51.2460938,94.8242188 C51.2460938,92.4283854 51.2460938,89.6582031 51.2460938,86.5136719 C51.2460938,86.6634115 51.171224,86.7382812 51.0214844,86.7382812 C50.8717448,86.8880208 50.7220052,87.0377604 50.5722656,87.1875 C50.5722656,87.3372396 50.4973958,87.4121094 50.3476562,87.4121094 C50.1979167,87.4121094 50.0481771,87.4121094 49.8984375,87.4121094 C49.7486979,87.4121094 49.6738281,87.4121094 49.6738281,87.4121094 C49.5240885,87.4121094 49.374349,87.3372396 49.2246094,87.1875 C49.2246094,87.1875 49.1497396,87.1126302 49,86.9628906 C49,86.813151 49,86.6634115 49,86.5136719 C49,86.3639323 49,86.2141927 49,86.0644531 C49.1497396,86.0644531 49.2246094,85.9895833 49.2246094,85.8398438 C49.5240885,85.5403646 49.8984375,85.2408854 50.3476562,84.9414062 C50.6471354,84.4921875 51.0963542,84.0429688 51.6953125,83.59375 C51.6953125,83.4440104 51.7701823,83.3691406 51.9199219,83.3691406 C51.9199219,83.219401 51.9947917,83.1445312 52.1445312,83.1445312 C52.1445312,83.1445312 52.1445312,83.1445312 52.1445312,83.1445312 C52.1445312,83.1445312 52.219401,83.1445312 52.3691406,83.1445312 C52.3691406,83.1445312 52.4440104,83.1445312 52.59375,83.1445312 C52.59375,83.1445312 52.59375,83.219401 52.59375,83.3691406 Z"/></svg>