<svg xmlns="http://www.w3.org/2000/svg" width="107" height="203" viewBox="0 0 107 203"><path fill="#131313" d="M5392.95996,68.4492188 C5395.05632,69.0481771 5396.70345,70.3209635 5397.90137,72.2675781 C5398.65007,73.4654948 5399.02441,74.7382812 5399.02441,76.0859375 C5399.02441,76.8346354 5398.94954,77.5833333 5398.7998,78.3320313 C5394.75684,93.7552083 5388.76725,116.889974 5380.83105,147.736328 C5380.83105,147.886068 5380.83105,147.960938 5380.83105,147.960938 C5380.83105,147.960938 5380.83105,148.035807 5380.83105,148.185547 C5380.68132,148.335286 5380.60645,148.410156 5380.60645,148.410156 C5380.60645,148.559896 5380.60645,148.634766 5380.60645,148.634766 C5380.45671,148.784505 5380.38184,148.934245 5380.38184,149.083984 C5380.2321,149.233724 5380.15723,149.383464 5380.15723,149.533203 C5380.15723,149.682943 5380.08236,149.757812 5379.93262,149.757812 C5379.93262,149.907552 5379.93262,149.982422 5379.93262,149.982422 C5379.78288,150.132161 5379.70801,150.281901 5379.70801,150.431641 C5379.55827,150.58138 5379.40853,150.73112 5379.25879,150.880859 C5379.25879,150.880859 5379.25879,150.955729 5379.25879,151.105469 C5379.10905,151.105469 5379.03418,151.180339 5379.03418,151.330078 C5378.88444,151.479818 5378.7347,151.629557 5378.58496,151.779297 C5378.43522,151.929036 5378.21061,152.078776 5377.91113,152.228516 C5377.91113,152.228516 5377.91113,152.228516 5377.91113,152.228516 C5377.91113,152.228516 5377.91113,152.228516 5377.91113,152.228516 C5377.61165,152.378255 5377.38704,152.527995 5377.2373,152.677734 C5377.08757,152.827474 5376.93783,152.902344 5376.78809,152.902344 C5376.63835,153.052083 5376.56348,153.126953 5376.56348,153.126953 C5376.41374,153.126953 5376.33887,153.126953 5376.33887,153.126953 C5376.18913,153.276693 5375.96452,153.351562 5375.66504,153.351562 C5375.5153,153.501302 5375.36556,153.576172 5375.21582,153.576172 C5375.21582,153.576172 5375.21582,153.576172 5375.21582,153.576172 C5375.06608,153.576172 5374.99121,153.576172 5374.99121,153.576172 C5374.99121,153.576172 5374.91634,153.651042 5374.7666,153.800781 C5374.7666,153.800781 5374.69173,153.800781 5374.54199,153.800781 C5374.54199,153.800781 5374.46712,153.800781 5374.31738,153.800781 C5374.31738,153.800781 5374.24251,153.800781 5374.09277,153.800781 C5373.94303,153.800781 5373.79329,153.800781 5373.64355,153.800781 C5373.49382,153.800781 5373.26921,153.800781 5372.96973,153.800781 C5372.96973,153.800781 5372.96973,153.800781 5372.96973,153.800781 C5372.96973,153.800781 5372.96973,153.800781 5372.96973,153.800781 C5372.96973,153.800781 5372.96973,153.800781 5372.96973,153.800781 C5372.96973,153.800781 5372.96973,153.800781 5372.96973,153.800781 C5372.81999,153.800781 5372.59538,153.800781 5372.2959,153.800781 C5372.14616,153.800781 5371.99642,153.800781 5371.84668,153.800781 C5371.69694,153.800781 5371.62207,153.800781 5371.62207,153.800781 C5371.47233,153.800781 5371.39746,153.800781 5371.39746,153.800781 C5371.24772,153.800781 5371.17285,153.725911 5371.17285,153.576172 C5371.02311,153.576172 5370.94824,153.576172 5370.94824,153.576172 C5370.94824,153.576172 5370.87337,153.576172 5370.72363,153.576172 C5370.72363,153.576172 5370.72363,153.576172 5370.72363,153.576172 C5370.57389,153.576172 5370.42415,153.501302 5370.27441,153.351562 C5370.12467,153.351562 5369.97493,153.276693 5369.8252,153.126953 C5369.67546,153.126953 5369.60059,153.126953 5369.60059,153.126953 C5369.45085,153.126953 5369.37598,153.052083 5369.37598,152.902344 C5369.0765,152.902344 5368.85189,152.827474 5368.70215,152.677734 C5368.55241,152.527995 5368.3278,152.378255 5368.02832,152.228516 C5368.02832,152.228516 5368.02832,152.228516 5368.02832,152.228516 C5368.02832,152.228516 5368.02832,152.228516 5368.02832,152.228516 C5367.87858,152.078776 5367.65397,151.929036 5367.35449,151.779297 C5367.20475,151.629557 5367.05501,151.479818 5366.90527,151.330078 C5366.90527,151.180339 5366.90527,151.105469 5366.90527,151.105469 C5366.75553,150.955729 5366.68066,150.880859 5366.68066,150.880859 C5366.53092,150.73112 5366.45605,150.58138 5366.45605,150.431641 C5366.30632,150.281901 5366.15658,150.132161 5366.00684,149.982422 C5366.00684,149.982422 5366.00684,149.907552 5366.00684,149.757812 C5366.00684,149.757812 5365.93197,149.682943 5365.78223,149.533203 C5365.78223,149.383464 5365.70736,149.233724 5365.55762,149.083984 C5365.55762,149.083984 5365.48275,149.009115 5365.33301,148.859375 C5365.33301,148.709635 5365.33301,148.559896 5365.33301,148.410156 C5365.33301,148.410156 5365.33301,148.335286 5365.33301,148.185547 C5365.18327,148.185547 5365.1084,148.110677 5365.1084,147.960938 C5365.1084,147.960938 5365.1084,147.886068 5365.1084,147.736328 C5362.8623,139.201172 5359.49316,126.248698 5355.00098,108.878906 C5352.75488,117.563802 5349.46061,130.516276 5345.11816,147.736328 C5345.11816,147.886068 5345.04329,147.960938 5344.89355,147.960938 C5344.89355,148.110677 5344.89355,148.185547 5344.89355,148.185547 C5344.89355,148.335286 5344.89355,148.410156 5344.89355,148.410156 C5344.74382,148.559896 5344.66895,148.709635 5344.66895,148.859375 C5344.66895,149.009115 5344.59408,149.083984 5344.44434,149.083984 C5344.44434,149.233724 5344.36947,149.383464 5344.21973,149.533203 C5344.21973,149.682943 5344.21973,149.757812 5344.21973,149.757812 C5344.21973,149.907552 5344.14486,149.982422 5343.99512,149.982422 C5343.99512,150.132161 5343.92025,150.281901 5343.77051,150.431641 C5343.62077,150.58138 5343.5459,150.73112 5343.5459,150.880859 C5343.39616,150.880859 5343.32129,150.955729 5343.32129,151.105469 C5343.32129,151.105469 5343.24642,151.180339 5343.09668,151.330078 C5342.94694,151.479818 5342.7972,151.629557 5342.64746,151.779297 C5342.49772,151.929036 5342.34798,152.078776 5342.19824,152.228516 C5342.19824,152.228516 5342.12337,152.228516 5341.97363,152.228516 C5341.97363,152.228516 5341.97363,152.228516 5341.97363,152.228516 C5341.82389,152.378255 5341.67415,152.527995 5341.52441,152.677734 C5341.22493,152.827474 5341.00033,152.977214 5340.85059,153.126953 C5340.85059,153.126953 5340.77572,153.126953 5340.62598,153.126953 C5340.62598,153.126953 5340.55111,153.126953 5340.40137,153.126953 C5340.25163,153.276693 5340.10189,153.351562 5339.95215,153.351562 C5339.80241,153.501302 5339.65267,153.576172 5339.50293,153.576172 C5339.35319,153.576172 5339.27832,153.576172 5339.27832,153.576172 C5339.27832,153.576172 5339.27832,153.576172 5339.27832,153.576172 C5339.12858,153.725911 5339.05371,153.800781 5339.05371,153.800781 C5338.90397,153.800781 5338.8291,153.800781 5338.8291,153.800781 C5338.67936,153.800781 5338.60449,153.800781 5338.60449,153.800781 C5338.45475,153.800781 5338.37988,153.800781 5338.37988,153.800781 C5338.23014,153.800781 5338.00553,153.800781 5337.70605,153.800781 C5337.55632,153.950521 5337.40658,154.025391 5337.25684,154.025391 C5337.25684,154.025391 5337.25684,154.025391 5337.25684,154.025391 C5337.25684,154.025391 5337.25684,154.025391 5337.25684,154.025391 C5337.1071,154.025391 5337.03223,154.025391 5337.03223,154.025391 C5337.03223,154.025391 5337.03223,154.025391 5337.03223,154.025391 C5336.88249,154.025391 5336.73275,153.950521 5336.58301,153.800781 C5336.43327,153.800781 5336.20866,153.800781 5335.90918,153.800781 C5335.90918,153.800781 5335.83431,153.800781 5335.68457,153.800781 C5335.68457,153.800781 5335.6097,153.800781 5335.45996,153.800781 C5335.45996,153.800781 5335.38509,153.800781 5335.23535,153.800781 C5335.23535,153.800781 5335.16048,153.725911 5335.01074,153.576172 C5335.01074,153.576172 5335.01074,153.576172 5335.01074,153.576172 C5335.01074,153.576172 5334.93587,153.576172 5334.78613,153.576172 C5334.63639,153.576172 5334.48665,153.501302 5334.33691,153.351562 C5334.18717,153.351562 5334.03743,153.276693 5333.8877,153.126953 C5333.73796,153.126953 5333.66309,153.126953 5333.66309,153.126953 C5333.51335,153.126953 5333.43848,153.126953 5333.43848,153.126953 C5333.28874,152.977214 5333.06413,152.827474 5332.76465,152.677734 C5332.61491,152.527995 5332.46517,152.378255 5332.31543,152.228516 C5332.31543,152.228516 5332.31543,152.228516 5332.31543,152.228516 C5332.16569,152.228516 5332.09082,152.228516 5332.09082,152.228516 C5331.94108,152.078776 5331.79134,151.929036 5331.6416,151.779297 C5331.49186,151.629557 5331.34212,151.479818 5331.19238,151.330078 C5331.04264,151.180339 5330.96777,151.105469 5330.96777,151.105469 C5330.96777,150.955729 5330.8929,150.880859 5330.74316,150.880859 C5330.74316,150.73112 5330.66829,150.58138 5330.51855,150.431641 C5330.36882,150.281901 5330.29395,150.132161 5330.29395,149.982422 C5330.14421,149.982422 5330.06934,149.907552 5330.06934,149.757812 C5330.06934,149.757812 5329.99447,149.682943 5329.84473,149.533203 C5329.84473,149.383464 5329.84473,149.233724 5329.84473,149.083984 C5329.69499,148.934245 5329.62012,148.784505 5329.62012,148.634766 C5329.62012,148.634766 5329.54525,148.559896 5329.39551,148.410156 C5329.39551,148.260417 5329.39551,148.185547 5329.39551,148.185547 C5329.39551,148.035807 5329.32064,147.960938 5329.1709,147.960938 C5329.1709,147.960938 5329.1709,147.886068 5329.1709,147.736328 C5325.27767,132.313151 5319.28809,109.178385 5311.20215,78.3320313 C5310.75293,76.0859375 5311.05241,73.9895833 5312.10059,72.0429688 C5313.2985,70.2460938 5314.94564,69.0481771 5317.04199,68.4492188 C5317.79069,68.1497396 5318.53939,68 5319.28809,68 C5320.63574,68.1497396 5321.9834,68.5989583 5323.33105,69.3476562 C5325.27767,70.3958333 5326.55046,72.0429688 5327.14941,74.2890625 C5329.39551,82.8242188 5332.68978,95.7766927 5337.03223,113.146484 C5339.27832,104.461589 5342.64746,91.5091146 5347.13965,74.2890625 C5347.13965,74.1393229 5347.13965,74.0644531 5347.13965,74.0644531 C5347.13965,74.0644531 5347.13965,73.9895833 5347.13965,73.8398438 C5347.28939,73.6901042 5347.36426,73.6152344 5347.36426,73.6152344 C5347.36426,73.4654948 5347.43913,73.3157552 5347.58887,73.1660156 C5347.58887,73.016276 5347.58887,72.8665365 5347.58887,72.7167969 C5347.73861,72.5670573 5347.81348,72.4921875 5347.81348,72.4921875 C5347.96322,72.3424479 5348.03809,72.1927083 5348.03809,72.0429688 C5348.18783,71.8932292 5348.2627,71.8183594 5348.2627,71.8183594 C5348.41243,71.6686198 5348.4873,71.5188802 5348.4873,71.3691406 C5348.63704,71.3691406 5348.71191,71.2942708 5348.71191,71.1445312 C5348.86165,70.9947917 5348.93652,70.9199219 5348.93652,70.9199219 C5349.08626,70.7701823 5349.236,70.6204427 5349.38574,70.4707031 C5349.38574,70.4707031 5349.46061,70.3958333 5349.61035,70.2460938 C5349.61035,70.2460938 5349.68522,70.171224 5349.83496,70.0214844 C5349.9847,69.8717448 5350.13444,69.796875 5350.28418,69.796875 C5350.28418,69.6471354 5350.35905,69.5722656 5350.50879,69.5722656 C5350.65853,69.422526 5350.7334,69.3476562 5350.7334,69.3476562 C5350.88314,69.3476562 5351.03288,69.2727865 5351.18262,69.1230469 C5351.33236,69.1230469 5351.4821,69.0481771 5351.63184,68.8984375 C5351.63184,68.8984375 5351.70671,68.8984375 5351.85645,68.8984375 C5352.00618,68.7486979 5352.15592,68.6738281 5352.30566,68.6738281 C5352.4554,68.6738281 5352.60514,68.5989583 5352.75488,68.4492188 C5352.75488,68.4492188 5352.82975,68.4492188 5352.97949,68.4492188 C5352.97949,68.4492188 5352.97949,68.4492188 5352.97949,68.4492188 C5353.12923,68.4492188 5353.2041,68.4492188 5353.2041,68.4492188 C5353.35384,68.4492188 5353.42871,68.4492188 5353.42871,68.4492188 C5353.57845,68.2994792 5353.72819,68.2246094 5353.87793,68.2246094 C5354.02767,68.2246094 5354.17741,68.2246094 5354.32715,68.2246094 C5354.47689,68.2246094 5354.62663,68.2246094 5354.77637,68.2246094 C5354.77637,68.2246094 5354.85124,68.2246094 5355.00098,68.2246094 C5355.15072,68.2246094 5355.30046,68.2246094 5355.4502,68.2246094 C5355.59993,68.2246094 5355.74967,68.2246094 5355.89941,68.2246094 C5356.04915,68.2246094 5356.19889,68.2246094 5356.34863,68.2246094 C5356.49837,68.2246094 5356.64811,68.2994792 5356.79785,68.4492188 C5356.79785,68.4492188 5356.79785,68.4492188 5356.79785,68.4492188 C5356.94759,68.4492188 5357.02246,68.4492188 5357.02246,68.4492188 C5357.1722,68.4492188 5357.24707,68.4492188 5357.24707,68.4492188 C5357.24707,68.4492188 5357.32194,68.4492188 5357.47168,68.4492188 C5357.62142,68.5989583 5357.77116,68.6738281 5357.9209,68.6738281 C5358.07064,68.6738281 5358.14551,68.7486979 5358.14551,68.8984375 C5358.29525,68.8984375 5358.44499,68.8984375 5358.59473,68.8984375 C5358.74447,69.0481771 5358.81934,69.1230469 5358.81934,69.1230469 C5358.96908,69.2727865 5359.11882,69.3476562 5359.26855,69.3476562 C5359.41829,69.4973958 5359.49316,69.5722656 5359.49316,69.5722656 C5359.6429,69.5722656 5359.79264,69.6471354 5359.94238,69.796875 C5360.09212,69.9466146 5360.16699,70.0214844 5360.16699,70.0214844 C5360.31673,70.171224 5360.46647,70.2460938 5360.61621,70.2460938 C5360.61621,70.3958333 5360.69108,70.4707031 5360.84082,70.4707031 C5360.84082,70.6204427 5360.91569,70.7701823 5361.06543,70.9199219 C5361.21517,70.9199219 5361.29004,70.9947917 5361.29004,71.1445312 C5361.43978,71.2942708 5361.51465,71.3691406 5361.51465,71.3691406 C5361.66439,71.5188802 5361.73926,71.6686198 5361.73926,71.8183594 C5361.889,71.968099 5361.96387,72.0429688 5361.96387,72.0429688 C5362.11361,72.1927083 5362.18848,72.3424479 5362.18848,72.4921875 C5362.18848,72.6419271 5362.26335,72.7167969 5362.41309,72.7167969 C5362.41309,72.8665365 5362.41309,73.016276 5362.41309,73.1660156 C5362.56283,73.3157552 5362.6377,73.4654948 5362.6377,73.6152344 C5362.78743,73.764974 5362.8623,73.8398438 5362.8623,73.8398438 C5362.8623,73.9895833 5362.8623,74.0644531 5362.8623,74.0644531 C5362.8623,74.2141927 5362.8623,74.2890625 5362.8623,74.2890625 C5365.1084,82.9739583 5368.47754,95.9264323 5372.96973,113.146484 C5375.21582,104.461589 5378.58496,91.5091146 5383.07715,74.2890625 C5383.52637,72.0429688 5384.72428,70.3958333 5386.6709,69.3476562 C5388.61751,68.1497396 5390.71387,67.8502604 5392.95996,68.4492188 Z M5302.99023,79.6796875 C5305.68555,90.3111979 5309.80339,106.333333 5315.34375,127.746094 C5314.89453,127.746094 5314.14583,127.895833 5313.09766,128.195312 C5310.40234,117.563802 5306.28451,101.541667 5300.74414,80.1289062 C5300.89388,80.1289062 5301.04362,80.1289062 5301.19336,80.1289062 C5301.49284,80.1289062 5301.71745,80.1289062 5301.86719,80.1289062 C5302.01693,79.9791667 5302.16667,79.9042969 5302.31641,79.9042969 C5302.61589,79.7545573 5302.84049,79.6796875 5302.99023,79.6796875 Z M5317.36523,127.072266 C5317.36523,129.917318 5317.36523,134.259766 5317.36523,140.099609 C5315.86784,137.554036 5313.77148,133.810547 5311.07617,128.869141 C5311.52539,128.719401 5312.19922,128.494792 5313.09766,128.195312 C5313.2474,128.794271 5313.47201,129.542969 5313.77148,130.441406 C5314.2207,130.291667 5314.9694,130.067057 5316.01758,129.767578 C5315.86784,129.318359 5315.64323,128.644531 5315.34375,127.746094 C5315.79297,127.596354 5316.4668,127.371745 5317.36523,127.072266 Z M5313.09766,128.195312 C5313.54687,128.045573 5314.29557,127.895833 5315.34375,127.746094 C5315.49349,128.195312 5315.64323,128.869141 5315.79297,129.767578 C5315.34375,129.917318 5314.66992,130.141927 5313.77148,130.441406 C5313.62174,129.992188 5313.39714,129.24349 5313.09766,128.195312 Z M5305.23633,73.6152344 C5305.23633,73.6152344 5305.23633,73.6152344 5305.23633,73.6152344 C5305.23633,73.764974 5305.23633,73.8398438 5305.23633,73.8398438 C5305.23633,73.8398438 5305.23633,73.764974 5305.23633,73.6152344 C5305.23633,73.6152344 5305.23633,73.6152344 5305.23633,73.6152344 Z M5305.23633,73.390625 C5305.23633,73.390625 5305.23633,73.390625 5305.23633,73.390625 C5305.23633,73.5403646 5305.23633,73.6152344 5305.23633,73.6152344 C5305.23633,73.6152344 5305.23633,73.5403646 5305.23633,73.390625 C5305.23633,73.390625 5305.23633,73.390625 5305.23633,73.390625 Z M5305.46094,74.7382812 C5305.46094,74.7382812 5305.46094,74.7382812 5305.46094,74.7382812 C5305.46094,74.5885417 5305.46094,74.4388021 5305.46094,74.2890625 C5305.46094,74.4388021 5305.46094,74.5885417 5305.46094,74.7382812 C5305.46094,74.7382812 5305.46094,74.7382812 5305.46094,74.7382812 Z M5296.47656,76.3105469 C5296.6263,77.358724 5297.15039,78.1822917 5298.04883,78.78125 C5298.79753,79.3802083 5299.62109,79.6796875 5300.51953,79.6796875 C5300.51953,79.8294271 5300.5944,79.9791667 5300.74414,80.1289062 C5299.54622,80.2786458 5298.49805,79.9791667 5297.59961,79.2304688 C5296.70117,78.6315104 5296.10221,77.7330729 5295.80273,76.5351562 C5295.50326,75.1875 5295.72786,73.9895833 5296.47656,72.9414062 C5297.07552,71.7434896 5298.04883,70.9947917 5299.39648,70.6953125 C5300.74414,70.2460938 5302.01693,70.3958333 5303.21484,71.1445312 C5304.26302,71.7434896 5305.01172,72.7167969 5305.46094,74.0644531 C5305.76042,75.2623698 5305.61068,76.3854167 5305.01172,77.4335938 C5304.5625,78.3320312 5303.88867,79.0807292 5302.99023,79.6796875 C5302.99023,79.5299479 5302.91536,79.3053385 5302.76562,79.0058594 C5303.66406,78.5566406 5304.26302,77.8828125 5304.5625,76.984375 C5305.01172,76.0859375 5305.08659,75.1875 5304.78711,74.2890625 C5304.48763,73.0911458 5303.8138,72.1927083 5302.76562,71.59375 C5301.71745,70.9947917 5300.66927,70.8450521 5299.62109,71.1445312 C5298.42318,71.4440104 5297.52474,72.1178385 5296.92578,73.1660156 C5296.32682,74.2141927 5296.17708,75.2623698 5296.47656,76.3105469 Z M5301.86719,80.1289062 C5301.71745,80.1289062 5301.49284,80.1289062 5301.19336,80.1289062 C5301.04362,80.1289062 5300.89388,80.1289062 5300.74414,80.1289062 C5300.74414,80.1289062 5300.66927,79.9791667 5300.51953,79.6796875 C5300.66927,79.6796875 5300.89388,79.6796875 5301.19336,79.6796875 C5301.3431,79.6796875 5301.49284,79.6048177 5301.64258,79.4550781 C5301.94206,79.4550781 5302.16667,79.3802083 5302.31641,79.2304688 C5302.46615,79.2304688 5302.61589,79.155599 5302.76562,79.0058594 C5302.76562,79.155599 5302.84049,79.3802083 5302.99023,79.6796875 C5302.84049,79.6796875 5302.61589,79.7545573 5302.31641,79.9042969 C5302.16667,79.9042969 5302.01693,79.9791667 5301.86719,80.1289062 Z M5304.78711,74.2890625 C5305.08659,75.1875 5305.01172,76.0859375 5304.5625,76.984375 C5304.26302,77.8828125 5303.66406,78.5566406 5302.76562,79.0058594 C5302.76562,78.8561198 5302.69076,78.7063802 5302.54102,78.5566406 C5303.28971,78.1074219 5303.8138,77.5084635 5304.11328,76.7597656 C5304.41276,76.0110677 5304.48763,75.1875 5304.33789,74.2890625 C5304.03841,73.390625 5303.43945,72.6419271 5302.54102,72.0429688 C5301.64258,71.59375 5300.66927,71.4440104 5299.62109,71.59375 C5298.72266,71.8932292 5297.97396,72.4921875 5297.375,73.390625 C5296.92578,74.2890625 5296.77604,75.2623698 5296.92578,76.3105469 C5296.92578,76.1608073 5296.92578,76.0859375 5296.92578,76.0859375 C5296.92578,76.0859375 5296.92578,76.0110677 5296.92578,75.8613281 C5296.92578,75.8613281 5296.92578,75.8613281 5296.92578,75.8613281 C5296.92578,75.8613281 5296.92578,75.8613281 5296.92578,75.8613281 C5296.92578,75.8613281 5296.92578,75.8613281 5296.92578,75.8613281 C5296.92578,75.8613281 5296.92578,75.8613281 5296.92578,75.8613281 C5296.92578,76.0110677 5296.92578,76.0859375 5296.92578,76.0859375 C5296.92578,76.0859375 5296.92578,76.1608073 5296.92578,76.3105469 C5297.22526,77.0592448 5297.67448,77.7330729 5298.27344,78.3320312 C5298.8724,78.78125 5299.54622,79.0058594 5300.29492,79.0058594 C5300.44466,79.155599 5300.51953,79.3802083 5300.51953,79.6796875 C5299.62109,79.6796875 5298.79753,79.3802083 5298.04883,78.78125 C5297.15039,78.1822917 5296.6263,77.358724 5296.47656,76.3105469 C5296.17708,75.2623698 5296.32682,74.2141927 5296.92578,73.1660156 C5297.52474,72.1178385 5298.42318,71.4440104 5299.62109,71.1445312 C5300.66927,70.8450521 5301.71745,70.9947917 5302.76562,71.59375 C5303.8138,72.1927083 5304.48763,73.0911458 5304.78711,74.2890625 Z M5296.92578,75.8613281 C5296.92578,76.0110677 5296.92578,76.0859375 5296.92578,76.0859375 C5296.92578,76.0859375 5296.92578,76.1608073 5296.92578,76.3105469 C5296.92578,76.1608073 5296.92578,76.0859375 5296.92578,76.0859375 C5296.92578,76.0859375 5296.92578,76.0110677 5296.92578,75.8613281 Z M5301.64258,79.0058594 C5301.79232,78.8561198 5301.94206,78.78125 5302.0918,78.78125 C5302.24154,78.6315104 5302.39128,78.5566406 5302.54102,78.5566406 C5302.69076,78.7063802 5302.76562,78.8561198 5302.76562,79.0058594 C5302.61589,79.155599 5302.46615,79.2304688 5302.31641,79.2304688 C5302.16667,79.3802083 5301.94206,79.4550781 5301.64258,79.4550781 C5301.49284,79.6048177 5301.3431,79.6796875 5301.19336,79.6796875 C5300.89388,79.6796875 5300.66927,79.6796875 5300.51953,79.6796875 C5300.51953,79.5299479 5300.44466,79.3053385 5300.29492,79.0058594 C5300.5944,79.0058594 5300.81901,79.0058594 5300.96875,79.0058594 C5301.11849,79.0058594 5301.3431,79.0058594 5301.64258,79.0058594 Z M5286.59375,71.3691406 C5286.74349,71.3691406 5286.89323,71.3691406 5287.04297,71.3691406 C5287.04297,71.5188802 5287.04297,71.59375 5287.04297,71.59375 C5287.19271,71.7434896 5287.26758,71.8183594 5287.26758,71.8183594 C5287.26758,71.968099 5287.26758,72.1178385 5287.26758,72.2675781 C5287.26758,74.0644531 5287.26758,76.3854167 5287.26758,79.2304688 C5287.26758,81.9257812 5287.26758,85.1451823 5287.26758,88.8886719 C5287.26758,89.0384115 5287.26758,89.1132812 5287.26758,89.1132812 C5287.11784,89.2630208 5287.04297,89.4127604 5287.04297,89.5625 C5286.89323,89.5625 5286.74349,89.6373698 5286.59375,89.7871094 C5286.44401,89.7871094 5286.36914,89.7871094 5286.36914,89.7871094 C5286.2194,89.7871094 5286.06966,89.7871094 5285.91992,89.7871094 C5285.77018,89.6373698 5285.69531,89.5625 5285.69531,89.5625 C5285.54557,89.4127604 5285.4707,89.2630208 5285.4707,89.1132812 C5285.32096,89.1132812 5285.24609,89.0384115 5285.24609,88.8886719 C5285.24609,87.2415365 5285.24609,85.2200521 5285.24609,82.8242188 C5285.24609,80.4283854 5285.24609,77.6582031 5285.24609,74.5136719 C5285.24609,74.6634115 5285.17122,74.7382812 5285.02148,74.7382812 C5284.87174,74.8880208 5284.72201,75.0377604 5284.57227,75.1875 C5284.57227,75.3372396 5284.4974,75.4121094 5284.34766,75.4121094 C5284.19792,75.4121094 5284.04818,75.4121094 5283.89844,75.4121094 C5283.7487,75.4121094 5283.67383,75.4121094 5283.67383,75.4121094 C5283.52409,75.4121094 5283.37435,75.3372396 5283.22461,75.1875 C5283.22461,75.1875 5283.14974,75.1126302 5283,74.9628906 C5283,74.813151 5283,74.6634115 5283,74.5136719 C5283,74.3639323 5283,74.2141927 5283,74.0644531 C5283.14974,74.0644531 5283.22461,73.9895833 5283.22461,73.8398438 C5283.52409,73.5403646 5283.89844,73.2408854 5284.34766,72.9414062 C5284.64714,72.4921875 5285.09635,72.0429688 5285.69531,71.59375 C5285.69531,71.4440104 5285.77018,71.3691406 5285.91992,71.3691406 C5285.91992,71.219401 5285.99479,71.1445312 5286.14453,71.1445312 C5286.14453,71.1445312 5286.14453,71.1445312 5286.14453,71.1445312 C5286.14453,71.1445312 5286.2194,71.1445312 5286.36914,71.1445312 C5286.36914,71.1445312 5286.44401,71.1445312 5286.59375,71.1445312 C5286.59375,71.1445312 5286.59375,71.219401 5286.59375,71.3691406 Z" transform="translate(-5302 -12)"/></svg>