<svg xmlns="http://www.w3.org/2000/svg" width="107" height="243" viewBox="0 0 107 243"><path fill="#131313" d="M109.959961,80.4492188 C112.056315,81.0481771 113.703451,82.3209635 114.901367,84.2675781 C115.650065,85.4654948 116.024414,86.7382812 116.024414,88.0859375 C116.024414,88.8346354 115.949544,89.5833333 115.799805,90.3320312 C111.756836,105.755208 105.767253,128.889974 97.8310547,159.736328 C97.8310547,159.886068 97.8310547,159.960938 97.8310547,159.960938 C97.8310547,159.960938 97.8310547,160.035807 97.8310547,160.185547 C97.6813151,160.335286 97.6064453,160.410156 97.6064453,160.410156 C97.6064453,160.559896 97.6064453,160.634766 97.6064453,160.634766 C97.4567057,160.784505 97.3818359,160.934245 97.3818359,161.083984 C97.2320964,161.233724 97.1572266,161.383464 97.1572266,161.533203 C97.1572266,161.682943 97.0823568,161.757812 96.9326172,161.757812 C96.9326172,161.907552 96.9326172,161.982422 96.9326172,161.982422 C96.7828776,162.132161 96.7080078,162.281901 96.7080078,162.431641 C96.5582682,162.58138 96.4085286,162.73112 96.2587891,162.880859 C96.2587891,162.880859 96.2587891,162.955729 96.2587891,163.105469 C96.1090495,163.105469 96.0341797,163.180339 96.0341797,163.330078 C95.8844401,163.479818 95.7347005,163.629557 95.5849609,163.779297 C95.4352214,163.929036 95.210612,164.078776 94.9111328,164.228516 C94.9111328,164.228516 94.9111328,164.228516 94.9111328,164.228516 C94.9111328,164.228516 94.9111328,164.228516 94.9111328,164.228516 C94.6116536,164.378255 94.3870443,164.527995 94.2373047,164.677734 C94.0875651,164.827474 93.9378255,164.902344 93.7880859,164.902344 C93.6383464,165.052083 93.5634766,165.126953 93.5634766,165.126953 C93.413737,165.126953 93.3388672,165.126953 93.3388672,165.126953 C93.1891276,165.276693 92.9645182,165.351562 92.6650391,165.351562 C92.5152995,165.501302 92.3655599,165.576172 92.2158203,165.576172 C92.2158203,165.576172 92.2158203,165.576172 92.2158203,165.576172 C92.0660807,165.576172 91.9912109,165.576172 91.9912109,165.576172 C91.9912109,165.576172 91.9163411,165.651042 91.7666016,165.800781 C91.7666016,165.800781 91.6917318,165.800781 91.5419922,165.800781 C91.5419922,165.800781 91.4671224,165.800781 91.3173828,165.800781 C91.3173828,165.800781 91.242513,165.800781 91.0927734,165.800781 C90.9430339,165.800781 90.7932943,165.800781 90.6435547,165.800781 C90.4938151,165.800781 90.2692057,165.800781 89.9697266,165.800781 C89.9697266,165.800781 89.9697266,165.800781 89.9697266,165.800781 C89.9697266,165.800781 89.9697266,165.800781 89.9697266,165.800781 C89.9697266,165.800781 89.9697266,165.800781 89.9697266,165.800781 C89.9697266,165.800781 89.9697266,165.800781 89.9697266,165.800781 C89.819987,165.800781 89.5953776,165.800781 89.2958984,165.800781 C89.1461589,165.800781 88.9964193,165.800781 88.8466797,165.800781 C88.6969401,165.800781 88.6220703,165.800781 88.6220703,165.800781 C88.4723307,165.800781 88.3974609,165.800781 88.3974609,165.800781 C88.2477214,165.800781 88.1728516,165.725911 88.1728516,165.576172 C88.023112,165.576172 87.9482422,165.576172 87.9482422,165.576172 C87.9482422,165.576172 87.8733724,165.576172 87.7236328,165.576172 C87.7236328,165.576172 87.7236328,165.576172 87.7236328,165.576172 C87.5738932,165.576172 87.4241536,165.501302 87.2744141,165.351562 C87.1246745,165.351562 86.9749349,165.276693 86.8251953,165.126953 C86.6754557,165.126953 86.6005859,165.126953 86.6005859,165.126953 C86.4508464,165.126953 86.3759766,165.052083 86.3759766,164.902344 C86.0764974,164.902344 85.851888,164.827474 85.7021484,164.677734 C85.5524089,164.527995 85.3277995,164.378255 85.0283203,164.228516 C85.0283203,164.228516 85.0283203,164.228516 85.0283203,164.228516 C85.0283203,164.228516 85.0283203,164.228516 85.0283203,164.228516 C84.8785807,164.078776 84.6539714,163.929036 84.3544922,163.779297 C84.2047526,163.629557 84.055013,163.479818 83.9052734,163.330078 C83.9052734,163.180339 83.9052734,163.105469 83.9052734,163.105469 C83.7555339,162.955729 83.6806641,162.880859 83.6806641,162.880859 C83.5309245,162.73112 83.4560547,162.58138 83.4560547,162.431641 C83.3063151,162.281901 83.1565755,162.132161 83.0068359,161.982422 C83.0068359,161.982422 83.0068359,161.907552 83.0068359,161.757812 C83.0068359,161.757812 82.9319661,161.682943 82.7822266,161.533203 C82.7822266,161.383464 82.7073568,161.233724 82.5576172,161.083984 C82.5576172,161.083984 82.4827474,161.009115 82.3330078,160.859375 C82.3330078,160.709635 82.3330078,160.559896 82.3330078,160.410156 C82.3330078,160.410156 82.3330078,160.335286 82.3330078,160.185547 C82.1832682,160.185547 82.1083984,160.110677 82.1083984,159.960938 C82.1083984,159.960938 82.1083984,159.886068 82.1083984,159.736328 C79.8623047,151.201172 76.4931641,138.248698 72.0009766,120.878906 C69.7548828,129.563802 66.460612,142.516276 62.1181641,159.736328 C62.1181641,159.886068 62.0432943,159.960938 61.8935547,159.960938 C61.8935547,160.110677 61.8935547,160.185547 61.8935547,160.185547 C61.8935547,160.335286 61.8935547,160.410156 61.8935547,160.410156 C61.7438151,160.559896 61.6689453,160.709635 61.6689453,160.859375 C61.6689453,161.009115 61.5940755,161.083984 61.4443359,161.083984 C61.4443359,161.233724 61.3694661,161.383464 61.2197266,161.533203 C61.2197266,161.682943 61.2197266,161.757812 61.2197266,161.757812 C61.2197266,161.907552 61.1448568,161.982422 60.9951172,161.982422 C60.9951172,162.132161 60.9202474,162.281901 60.7705078,162.431641 C60.6207682,162.58138 60.5458984,162.73112 60.5458984,162.880859 C60.3961589,162.880859 60.3212891,162.955729 60.3212891,163.105469 C60.3212891,163.105469 60.2464193,163.180339 60.0966797,163.330078 C59.9469401,163.479818 59.7972005,163.629557 59.6474609,163.779297 C59.4977214,163.929036 59.3479818,164.078776 59.1982422,164.228516 C59.1982422,164.228516 59.1233724,164.228516 58.9736328,164.228516 C58.9736328,164.228516 58.9736328,164.228516 58.9736328,164.228516 C58.8238932,164.378255 58.6741536,164.527995 58.5244141,164.677734 C58.2249349,164.827474 58.0003255,164.977214 57.8505859,165.126953 C57.8505859,165.126953 57.7757161,165.126953 57.6259766,165.126953 C57.6259766,165.126953 57.5511068,165.126953 57.4013672,165.126953 C57.2516276,165.276693 57.101888,165.351562 56.9521484,165.351562 C56.8024089,165.501302 56.6526693,165.576172 56.5029297,165.576172 C56.3531901,165.576172 56.2783203,165.576172 56.2783203,165.576172 C56.2783203,165.576172 56.2783203,165.576172 56.2783203,165.576172 C56.1285807,165.725911 56.0537109,165.800781 56.0537109,165.800781 C55.9039714,165.800781 55.8291016,165.800781 55.8291016,165.800781 C55.679362,165.800781 55.6044922,165.800781 55.6044922,165.800781 C55.4547526,165.800781 55.3798828,165.800781 55.3798828,165.800781 C55.2301432,165.800781 55.0055339,165.800781 54.7060547,165.800781 C54.5563151,165.950521 54.4065755,166.025391 54.2568359,166.025391 C54.2568359,166.025391 54.2568359,166.025391 54.2568359,166.025391 C54.2568359,166.025391 54.2568359,166.025391 54.2568359,166.025391 C54.1070964,166.025391 54.0322266,166.025391 54.0322266,166.025391 C54.0322266,166.025391 54.0322266,166.025391 54.0322266,166.025391 C53.882487,166.025391 53.7327474,165.950521 53.5830078,165.800781 C53.4332682,165.800781 53.2086589,165.800781 52.9091797,165.800781 C52.9091797,165.800781 52.8343099,165.800781 52.6845703,165.800781 C52.6845703,165.800781 52.6097005,165.800781 52.4599609,165.800781 C52.4599609,165.800781 52.3850911,165.800781 52.2353516,165.800781 C52.2353516,165.800781 52.1604818,165.725911 52.0107422,165.576172 C52.0107422,165.576172 52.0107422,165.576172 52.0107422,165.576172 C52.0107422,165.576172 51.9358724,165.576172 51.7861328,165.576172 C51.6363932,165.576172 51.4866536,165.501302 51.3369141,165.351562 C51.1871745,165.351562 51.0374349,165.276693 50.8876953,165.126953 C50.7379557,165.126953 50.6630859,165.126953 50.6630859,165.126953 C50.5133464,165.126953 50.4384766,165.126953 50.4384766,165.126953 C50.288737,164.977214 50.0641276,164.827474 49.7646484,164.677734 C49.6149089,164.527995 49.4651693,164.378255 49.3154297,164.228516 C49.3154297,164.228516 49.3154297,164.228516 49.3154297,164.228516 C49.1656901,164.228516 49.0908203,164.228516 49.0908203,164.228516 C48.9410807,164.078776 48.7913411,163.929036 48.6416016,163.779297 C48.491862,163.629557 48.3421224,163.479818 48.1923828,163.330078 C48.0426432,163.180339 47.9677734,163.105469 47.9677734,163.105469 C47.9677734,162.955729 47.8929036,162.880859 47.7431641,162.880859 C47.7431641,162.73112 47.6682943,162.58138 47.5185547,162.431641 C47.3688151,162.281901 47.2939453,162.132161 47.2939453,161.982422 C47.1442057,161.982422 47.0693359,161.907552 47.0693359,161.757812 C47.0693359,161.757812 46.9944661,161.682943 46.8447266,161.533203 C46.8447266,161.383464 46.8447266,161.233724 46.8447266,161.083984 C46.694987,160.934245 46.6201172,160.784505 46.6201172,160.634766 C46.6201172,160.634766 46.5452474,160.559896 46.3955078,160.410156 C46.3955078,160.260417 46.3955078,160.185547 46.3955078,160.185547 C46.3955078,160.035807 46.320638,159.960938 46.1708984,159.960938 C46.1708984,159.960938 46.1708984,159.886068 46.1708984,159.736328 C42.2776693,144.313151 36.2880859,121.178385 28.2021484,90.3320312 C27.7529297,88.0859375 28.0524089,85.9895833 29.1005859,84.0429688 C30.2985026,82.2460938 31.945638,81.0481771 34.0419922,80.4492188 C34.7906901,80.1497396 35.539388,80 36.2880859,80 C37.6357422,80.1497396 38.9833984,80.5989583 40.3310547,81.3476562 C42.2776693,82.3958333 43.5504557,84.0429688 44.1494141,86.2890625 C46.3955078,94.8242188 49.6897786,107.776693 54.0322266,125.146484 C56.2783203,116.461589 59.6474609,103.509115 64.1396484,86.2890625 C64.1396484,86.1393229 64.1396484,86.0644531 64.1396484,86.0644531 C64.1396484,86.0644531 64.1396484,85.9895833 64.1396484,85.8398438 C64.289388,85.6901042 64.3642578,85.6152344 64.3642578,85.6152344 C64.3642578,85.4654948 64.4391276,85.3157552 64.5888672,85.1660156 C64.5888672,85.016276 64.5888672,84.8665365 64.5888672,84.7167969 C64.7386068,84.5670573 64.8134766,84.4921875 64.8134766,84.4921875 C64.9632161,84.3424479 65.0380859,84.1927083 65.0380859,84.0429688 C65.1878255,83.8932292 65.2626953,83.8183594 65.2626953,83.8183594 C65.4124349,83.6686198 65.4873047,83.5188802 65.4873047,83.3691406 C65.6370443,83.3691406 65.7119141,83.2942708 65.7119141,83.1445312 C65.8616536,82.9947917 65.9365234,82.9199219 65.9365234,82.9199219 C66.086263,82.7701823 66.2360026,82.6204427 66.3857422,82.4707031 C66.3857422,82.4707031 66.460612,82.3958333 66.6103516,82.2460938 C66.6103516,82.2460938 66.6852214,82.171224 66.8349609,82.0214844 C66.9847005,81.8717448 67.1344401,81.796875 67.2841797,81.796875 C67.2841797,81.6471354 67.3590495,81.5722656 67.5087891,81.5722656 C67.6585286,81.422526 67.7333984,81.3476562 67.7333984,81.3476562 C67.883138,81.3476562 68.0328776,81.2727865 68.1826172,81.1230469 C68.3323568,81.1230469 68.4820964,81.0481771 68.6318359,80.8984375 C68.6318359,80.8984375 68.7067057,80.8984375 68.8564453,80.8984375 C69.0061849,80.7486979 69.1559245,80.6738281 69.3056641,80.6738281 C69.4554036,80.6738281 69.6051432,80.5989583 69.7548828,80.4492188 C69.7548828,80.4492188 69.8297526,80.4492188 69.9794922,80.4492188 C69.9794922,80.4492188 69.9794922,80.4492188 69.9794922,80.4492188 C70.1292318,80.4492188 70.2041016,80.4492188 70.2041016,80.4492188 C70.3538411,80.4492188 70.4287109,80.4492188 70.4287109,80.4492188 C70.5784505,80.2994792 70.7281901,80.2246094 70.8779297,80.2246094 C71.0276693,80.2246094 71.1774089,80.2246094 71.3271484,80.2246094 C71.476888,80.2246094 71.6266276,80.2246094 71.7763672,80.2246094 C71.7763672,80.2246094 71.851237,80.2246094 72.0009766,80.2246094 C72.1507161,80.2246094 72.3004557,80.2246094 72.4501953,80.2246094 C72.5999349,80.2246094 72.7496745,80.2246094 72.8994141,80.2246094 C73.0491536,80.2246094 73.1988932,80.2246094 73.3486328,80.2246094 C73.4983724,80.2246094 73.648112,80.2994792 73.7978516,80.4492188 C73.7978516,80.4492188 73.7978516,80.4492188 73.7978516,80.4492188 C73.9475911,80.4492188 74.0224609,80.4492188 74.0224609,80.4492188 C74.1722005,80.4492188 74.2470703,80.4492188 74.2470703,80.4492188 C74.2470703,80.4492188 74.3219401,80.4492188 74.4716797,80.4492188 C74.6214193,80.5989583 74.7711589,80.6738281 74.9208984,80.6738281 C75.070638,80.6738281 75.1455078,80.7486979 75.1455078,80.8984375 C75.2952474,80.8984375 75.444987,80.8984375 75.5947266,80.8984375 C75.7444661,81.0481771 75.8193359,81.1230469 75.8193359,81.1230469 C75.9690755,81.2727865 76.1188151,81.3476562 76.2685547,81.3476562 C76.4182943,81.4973958 76.4931641,81.5722656 76.4931641,81.5722656 C76.6429036,81.5722656 76.7926432,81.6471354 76.9423828,81.796875 C77.0921224,81.9466146 77.1669922,82.0214844 77.1669922,82.0214844 C77.3167318,82.171224 77.4664714,82.2460938 77.6162109,82.2460938 C77.6162109,82.3958333 77.6910807,82.4707031 77.8408203,82.4707031 C77.8408203,82.6204427 77.9156901,82.7701823 78.0654297,82.9199219 C78.2151693,82.9199219 78.2900391,82.9947917 78.2900391,83.1445312 C78.4397786,83.2942708 78.5146484,83.3691406 78.5146484,83.3691406 C78.664388,83.5188802 78.7392578,83.6686198 78.7392578,83.8183594 C78.8889974,83.968099 78.9638672,84.0429688 78.9638672,84.0429688 C79.1136068,84.1927083 79.1884766,84.3424479 79.1884766,84.4921875 C79.1884766,84.6419271 79.2633464,84.7167969 79.4130859,84.7167969 C79.4130859,84.8665365 79.4130859,85.016276 79.4130859,85.1660156 C79.5628255,85.3157552 79.6376953,85.4654948 79.6376953,85.6152344 C79.7874349,85.764974 79.8623047,85.8398438 79.8623047,85.8398438 C79.8623047,85.9895833 79.8623047,86.0644531 79.8623047,86.0644531 C79.8623047,86.2141927 79.8623047,86.2890625 79.8623047,86.2890625 C82.1083984,94.9739583 85.4775391,107.926432 89.9697266,125.146484 C92.2158203,116.461589 95.5849609,103.509115 100.077148,86.2890625 C100.526367,84.0429688 101.724284,82.3958333 103.670898,81.3476562 C105.617513,80.1497396 107.713867,79.8502604 109.959961,80.4492188 Z M19.9902344,91.6796875 C22.6855469,102.311198 26.8033854,118.333333 32.34375,139.746094 C31.8945312,139.746094 31.1458333,139.895833 30.0976562,140.195312 C27.4023438,129.563802 23.2845052,113.541667 17.7441406,92.1289062 C17.8938802,92.1289062 18.0436198,92.1289062 18.1933594,92.1289062 C18.4928385,92.1289062 18.7174479,92.1289062 18.8671875,92.1289062 C19.0169271,91.9791667 19.1666667,91.9042969 19.3164062,91.9042969 C19.6158854,91.7545573 19.8404948,91.6796875 19.9902344,91.6796875 Z M34.3652344,139.072266 C34.3652344,141.917318 34.3652344,146.259766 34.3652344,152.099609 C32.8678385,149.554036 30.7714844,145.810547 28.0761719,140.869141 C28.5253906,140.719401 29.1992188,140.494792 30.0976562,140.195312 C30.2473958,140.794271 30.4720052,141.542969 30.7714844,142.441406 C31.2207031,142.291667 31.969401,142.067057 33.0175781,141.767578 C32.8678385,141.318359 32.6432292,140.644531 32.34375,139.746094 C32.7929688,139.596354 33.4667969,139.371745 34.3652344,139.072266 Z M30.0976562,140.195312 C30.546875,140.045573 31.2955729,139.895833 32.34375,139.746094 C32.4934896,140.195312 32.6432292,140.869141 32.7929688,141.767578 C32.34375,141.917318 31.6699219,142.141927 30.7714844,142.441406 C30.6217448,141.992188 30.3971354,141.24349 30.0976562,140.195312 Z M22.2363281,85.6152344 C22.2363281,85.6152344 22.2363281,85.6152344 22.2363281,85.6152344 C22.2363281,85.764974 22.2363281,85.8398438 22.2363281,85.8398438 C22.2363281,85.8398438 22.2363281,85.764974 22.2363281,85.6152344 C22.2363281,85.6152344 22.2363281,85.6152344 22.2363281,85.6152344 Z M22.2363281,85.390625 C22.2363281,85.390625 22.2363281,85.390625 22.2363281,85.390625 C22.2363281,85.5403646 22.2363281,85.6152344 22.2363281,85.6152344 C22.2363281,85.6152344 22.2363281,85.5403646 22.2363281,85.390625 C22.2363281,85.390625 22.2363281,85.390625 22.2363281,85.390625 Z M22.4609375,86.7382812 C22.4609375,86.7382812 22.4609375,86.7382812 22.4609375,86.7382812 C22.4609375,86.5885417 22.4609375,86.4388021 22.4609375,86.2890625 C22.4609375,86.4388021 22.4609375,86.5885417 22.4609375,86.7382812 C22.4609375,86.7382812 22.4609375,86.7382812 22.4609375,86.7382812 Z M13.4765625,88.3105469 C13.6263021,89.358724 14.1503906,90.1822917 15.0488281,90.78125 C15.797526,91.3802083 16.6210938,91.6796875 17.5195313,91.6796875 C17.5195313,91.8294271 17.594401,91.9791667 17.7441406,92.1289062 C16.546224,92.2786458 15.4980469,91.9791667 14.5996094,91.2304688 C13.7011719,90.6315104 13.1022135,89.7330729 12.8027344,88.5351562 C12.5032552,87.1875 12.7278646,85.9895833 13.4765625,84.9414062 C14.0755208,83.7434896 15.0488281,82.9947917 16.3964844,82.6953125 C17.7441406,82.2460938 19.0169271,82.3958333 20.2148438,83.1445312 C21.2630208,83.7434896 22.0117188,84.7167969 22.4609375,86.0644531 C22.7604167,87.2623698 22.6106771,88.3854167 22.0117188,89.4335938 C21.5625,90.3320312 20.8886719,91.0807292 19.9902344,91.6796875 C19.9902344,91.5299479 19.9153646,91.3053385 19.765625,91.0058594 C20.6640625,90.5566406 21.2630208,89.8828125 21.5625,88.984375 C22.0117188,88.0859375 22.0865885,87.1875 21.7871094,86.2890625 C21.4876302,85.0911458 20.8138021,84.1927083 19.765625,83.59375 C18.7174479,82.9947917 17.6692708,82.8450521 16.6210938,83.1445312 C15.4231771,83.4440104 14.5247396,84.1178385 13.9257813,85.1660156 C13.3268229,86.2141927 13.1770833,87.2623698 13.4765625,88.3105469 Z M18.8671875,92.1289062 C18.7174479,92.1289062 18.4928385,92.1289062 18.1933594,92.1289062 C18.0436198,92.1289062 17.8938802,92.1289062 17.7441406,92.1289062 C17.7441406,92.1289062 17.6692708,91.9791667 17.5195312,91.6796875 C17.6692708,91.6796875 17.8938802,91.6796875 18.1933594,91.6796875 C18.343099,91.6796875 18.4928385,91.6048177 18.6425781,91.4550781 C18.9420573,91.4550781 19.1666667,91.3802083 19.3164062,91.2304688 C19.4661458,91.2304688 19.6158854,91.155599 19.765625,91.0058594 C19.765625,91.155599 19.8404948,91.3802083 19.9902344,91.6796875 C19.8404948,91.6796875 19.6158854,91.7545573 19.3164062,91.9042969 C19.1666667,91.9042969 19.0169271,91.9791667 18.8671875,92.1289062 Z M21.7871094,86.2890625 C22.0865885,87.1875 22.0117188,88.0859375 21.5625,88.984375 C21.2630208,89.8828125 20.6640625,90.5566406 19.765625,91.0058594 C19.765625,90.8561198 19.6907552,90.7063802 19.5410156,90.5566406 C20.2897135,90.1074219 20.8138021,89.5084635 21.1132813,88.7597656 C21.4127604,88.0110677 21.4876302,87.1875 21.3378906,86.2890625 C21.0384115,85.390625 20.4394531,84.6419271 19.5410156,84.0429688 C18.6425781,83.59375 17.6692708,83.4440104 16.6210938,83.59375 C15.7226563,83.8932292 14.9739583,84.4921875 14.375,85.390625 C13.9257813,86.2890625 13.7760417,87.2623698 13.9257813,88.3105469 C13.9257813,88.1608073 13.9257813,88.0859375 13.9257813,88.0859375 C13.9257813,88.0859375 13.9257813,88.0110677 13.9257813,87.8613281 C13.9257813,87.8613281 13.9257813,87.8613281 13.9257813,87.8613281 C13.9257813,87.8613281 13.9257813,87.8613281 13.9257813,87.8613281 C13.9257813,87.8613281 13.9257813,87.8613281 13.9257813,87.8613281 C13.9257813,87.8613281 13.9257813,87.8613281 13.9257813,87.8613281 C13.9257813,88.0110677 13.9257813,88.0859375 13.9257813,88.0859375 C13.9257813,88.0859375 13.9257813,88.1608073 13.9257813,88.3105469 C14.2252604,89.0592448 14.6744792,89.7330729 15.2734375,90.3320312 C15.8723958,90.78125 16.546224,91.0058594 17.2949219,91.0058594 C17.4446615,91.155599 17.5195313,91.3802083 17.5195313,91.6796875 C16.6210938,91.6796875 15.797526,91.3802083 15.0488281,90.78125 C14.1503906,90.1822917 13.6263021,89.358724 13.4765625,88.3105469 C13.1770833,87.2623698 13.3268229,86.2141927 13.9257813,85.1660156 C14.5247396,84.1178385 15.4231771,83.4440104 16.6210938,83.1445312 C17.6692708,82.8450521 18.7174479,82.9947917 19.765625,83.59375 C20.8138021,84.1927083 21.4876302,85.0911458 21.7871094,86.2890625 Z M13.9257812,87.8613281 C13.9257812,88.0110677 13.9257812,88.0859375 13.9257812,88.0859375 C13.9257812,88.0859375 13.9257812,88.1608073 13.9257812,88.3105469 C13.9257812,88.1608073 13.9257812,88.0859375 13.9257812,88.0859375 C13.9257812,88.0859375 13.9257812,88.0110677 13.9257812,87.8613281 Z M18.6425781,91.0058594 C18.7923177,90.8561198 18.9420573,90.78125 19.0917969,90.78125 C19.2415365,90.6315104 19.391276,90.5566406 19.5410156,90.5566406 C19.6907552,90.7063802 19.765625,90.8561198 19.765625,91.0058594 C19.6158854,91.155599 19.4661458,91.2304688 19.3164062,91.2304688 C19.1666667,91.3802083 18.9420573,91.4550781 18.6425781,91.4550781 C18.4928385,91.6048177 18.343099,91.6796875 18.1933594,91.6796875 C17.8938802,91.6796875 17.6692708,91.6796875 17.5195312,91.6796875 C17.5195312,91.5299479 17.4446615,91.3053385 17.2949219,91.0058594 C17.594401,91.0058594 17.8190104,91.0058594 17.96875,91.0058594 C18.1184896,91.0058594 18.343099,91.0058594 18.6425781,91.0058594 Z M3.59375,83.3691406 C3.74348958,83.3691406 3.89322917,83.3691406 4.04296875,83.3691406 C4.04296875,83.5188802 4.04296875,83.59375 4.04296875,83.59375 C4.19270833,83.7434896 4.26757812,83.8183594 4.26757812,83.8183594 C4.26757812,83.968099 4.26757812,84.1178385 4.26757812,84.2675781 C4.26757812,86.0644531 4.26757812,88.3854167 4.26757812,91.2304688 C4.26757812,93.9257812 4.26757812,97.1451823 4.26757812,100.888672 C4.26757812,101.038411 4.26757812,101.113281 4.26757812,101.113281 C4.11783854,101.263021 4.04296875,101.41276 4.04296875,101.5625 C3.89322917,101.5625 3.74348958,101.63737 3.59375,101.787109 C3.44401042,101.787109 3.36914062,101.787109 3.36914062,101.787109 C3.21940104,101.787109 3.06966146,101.787109 2.91992188,101.787109 C2.77018229,101.63737 2.6953125,101.5625 2.6953125,101.5625 C2.54557292,101.41276 2.47070312,101.263021 2.47070312,101.113281 C2.32096354,101.113281 2.24609375,101.038411 2.24609375,100.888672 C2.24609375,99.2415365 2.24609375,97.2200521 2.24609375,94.8242188 C2.24609375,92.4283854 2.24609375,89.6582031 2.24609375,86.5136719 C2.24609375,86.6634115 2.17122396,86.7382812 2.02148438,86.7382812 C1.87174479,86.8880208 1.72200521,87.0377604 1.57226562,87.1875 C1.57226562,87.3372396 1.49739583,87.4121094 1.34765625,87.4121094 C1.19791667,87.4121094 1.04817708,87.4121094 0.8984375,87.4121094 C0.748697917,87.4121094 0.673828125,87.4121094 0.673828125,87.4121094 C0.524088542,87.4121094 0.374348958,87.3372396 0.224609375,87.1875 C0.224609375,87.1875 0.149739583,87.1126302 0,86.9628906 C0,86.813151 0,86.6634115 0,86.5136719 C0,86.3639323 0,86.2141927 0,86.0644531 C0.149739583,86.0644531 0.224609375,85.9895833 0.224609375,85.8398438 C0.524088542,85.5403646 0.8984375,85.2408854 1.34765625,84.9414062 C1.64713542,84.4921875 2.09635417,84.0429688 2.6953125,83.59375 C2.6953125,83.4440104 2.77018229,83.3691406 2.91992188,83.3691406 C2.91992188,83.219401 2.99479167,83.1445312 3.14453125,83.1445312 C3.14453125,83.1445312 3.14453125,83.1445312 3.14453125,83.1445312 C3.14453125,83.1445312 3.21940104,83.1445312 3.36914062,83.1445312 C3.36914062,83.1445312 3.44401042,83.1445312 3.59375,83.1445312 C3.59375,83.1445312 3.59375,83.219401 3.59375,83.3691406 Z" transform="translate(-19)"/></svg>