<svg xmlns="http://www.w3.org/2000/svg" width="120" height="203" viewBox="0 0 120 203"><path fill="#131313" d="M4896.13802,132.050781 C4903.69336,145.375651 4915.02636,165.362956 4930.13704,192.012695 C4931.09863,193.798503 4931.30468,195.72168 4930.7552,197.782227 C4930.20573,199.705404 4929.03808,201.216471 4927.25227,202.31543 C4926.56543,202.590169 4925.94726,202.796224 4925.39778,202.933594 C4924.71093,203.208333 4924.09277,203.345703 4923.54329,203.345703 C4922.16959,203.345703 4920.93326,203.002279 4919.83431,202.31543 C4918.59798,201.628581 4917.63639,200.666992 4916.94954,199.430664 C4910.49316,187.891602 4900.7399,170.514323 4887.68977,147.298828 C4881.09602,158.837891 4871.27408,176.215169 4858.22395,199.430664 C4857.53711,200.666992 4856.6442,201.628581 4855.54524,202.31543 C4854.30892,203.002279 4853.0039,203.345703 4851.6302,203.345703 C4851.08073,203.345703 4850.46256,203.208333 4849.77571,202.933594 C4849.22623,202.796224 4848.67675,202.590169 4848.12727,202.31543 C4846.34147,201.216471 4845.17382,199.705404 4844.62434,197.782227 C4843.9375,195.72168 4844.14355,193.798503 4845.24251,192.012695 C4852.79785,178.687826 4864.06217,158.700521 4879.03548,132.050781 C4871.48014,118.725911 4860.21582,98.7386068 4845.24251,72.0888672 C4844.14355,70.3030599 4843.9375,68.3798828 4844.62434,66.3193359 C4845.17382,64.3961589 4846.34147,62.8850911 4848.12727,61.7861328 C4849.22623,61.0992839 4850.39388,60.7558594 4851.6302,60.7558594 C4852.31705,60.7558594 4853.0039,60.8932292 4853.69075,61.1679688 C4855.7513,61.7174479 4857.26237,62.8850911 4858.22395,64.6708984 C4864.8177,76.2099609 4874.63964,93.5872396 4887.68977,116.802734 C4894.14615,105.263672 4903.89941,87.8863932 4916.94954,64.6708984 C4917.91113,62.8850911 4919.4222,61.7174479 4921.48274,61.1679688 C4923.54329,60.6184896 4925.46647,60.8245443 4927.25227,61.7861328 C4929.03808,62.8850911 4930.20573,64.3961589 4930.7552,66.3193359 C4931.30468,68.3798828 4931.02994,70.3030599 4929.93099,72.0888672 C4924.29882,82.116862 4918.66666,92.0761719 4913.0345,101.966797 C4907.40234,111.994792 4901.77018,122.022786 4896.13802,132.050781 Z M4933.81891,86.3066406 C4929.14833,94.8235677 4922.07379,107.530273 4912.59527,124.426758 C4912.18316,124.152018 4911.565,123.808594 4910.74078,123.396484 C4915.41135,114.879557 4922.4859,102.172852 4931.96441,85.2763672 C4932.10178,85.413737 4932.23915,85.5511068 4932.37652,85.6884766 C4932.51389,85.8258464 4932.71995,85.8945312 4932.99469,85.8945312 C4933.13206,86.031901 4933.26943,86.1692708 4933.4068,86.3066406 C4933.54417,86.3066406 4933.68154,86.3066406 4933.81891,86.3066406 Z M4931.75836,80.125 C4931.20888,80.9492187 4931.00283,81.7734375 4931.1402,82.5976562 C4931.27757,83.5592448 4931.68967,84.3147786 4932.37652,84.8642578 C4932.23915,85.0016276 4932.10178,85.1389974 4931.96441,85.2763672 C4931.27757,84.5895182 4930.86546,83.7652995 4930.72809,82.8037109 C4930.59072,81.7047526 4930.72809,80.7431641 4931.1402,79.9189453 C4931.82704,78.819987 4932.71995,78.0644531 4933.81891,77.6523437 C4935.05523,77.3776042 4936.22288,77.514974 4937.32184,78.0644531 C4938.42079,78.7513021 4939.10764,79.7128906 4939.38238,80.9492187 C4939.79449,82.0481771 4939.65712,83.1471354 4938.97027,84.2460937 C4938.42079,85.2076823 4937.66526,85.8945312 4936.70367,86.3066406 C4935.74208,86.5813802 4934.78049,86.5813802 4933.81891,86.3066406 C4933.95628,86.3066406 4934.09365,86.1692708 4934.23102,85.8945312 C4935.05523,86.1692708 4935.87945,86.1005859 4936.70367,85.6884766 C4937.52789,85.413737 4938.14605,84.8642578 4938.55816,84.0400391 C4939.10764,83.0784505 4939.24501,82.0481771 4938.97027,80.9492187 C4938.69553,79.9876302 4938.07737,79.2320964 4937.11578,78.6826172 C4936.15419,78.133138 4935.12392,77.9957682 4934.02496,78.2705078 C4932.926,78.5452474 4932.17047,79.1634115 4931.75836,80.125 Z M4932.99469,86.1005859 C4932.71995,85.9632161 4932.51389,85.8258464 4932.37652,85.6884766 C4932.23915,85.5511068 4932.10178,85.4824219 4931.96441,85.4824219 C4932.10178,85.3450521 4932.23915,85.1389974 4932.37652,84.8642578 C4932.51389,85.0016276 4932.65126,85.1389974 4932.78863,85.2763672 C4932.926,85.413737 4933.06337,85.4824219 4933.20074,85.4824219 C4933.33811,85.6197917 4933.47548,85.6884766 4933.61285,85.6884766 C4933.75022,85.8258464 4933.95628,85.8945312 4934.23102,85.8945312 C4934.09365,86.031901 4933.95628,86.2379557 4933.81891,86.5126953 C4933.68154,86.3753255 4933.54417,86.3066406 4933.4068,86.3066406 C4933.26943,86.1692708 4933.13206,86.1005859 4932.99469,86.1005859 Z M4938.55816,84.0400391 C4938.14605,84.8642578 4937.52789,85.413737 4936.70367,85.6884766 C4935.87945,86.1005859 4935.05523,86.1692708 4934.23102,85.8945312 C4934.23102,85.7571615 4934.2997,85.6197917 4934.43707,85.4824219 C4935.12392,85.6197917 4935.81077,85.5511068 4936.49762,85.2763672 C4937.18447,85.0016276 4937.73395,84.5208333 4938.14605,83.8339844 C4938.55816,83.0097656 4938.62685,82.116862 4938.35211,81.1552734 C4938.07737,80.1936849 4937.52789,79.5068359 4936.70367,79.0947266 C4935.87945,78.6826172 4935.05523,78.5452474 4934.23102,78.6826172 C4933.26943,78.9573568 4932.58258,79.5068359 4932.17047,80.3310547 C4931.75836,81.0179036 4931.62099,81.7734375 4931.75836,82.5976562 C4931.75836,83.2845052 4932.0331,83.9026693 4932.58258,84.4521484 C4932.58258,84.5895182 4932.51389,84.726888 4932.37652,84.8642578 C4931.68967,84.3147786 4931.27757,83.5592448 4931.1402,82.5976562 C4931.00283,81.7734375 4931.1402,80.9492187 4931.5523,80.125 C4932.10178,79.1634115 4932.926,78.5452474 4934.02496,78.2705078 C4935.12392,77.9957682 4936.15419,78.133138 4937.11578,78.6826172 C4938.07737,79.2320964 4938.69553,79.9876302 4938.97027,80.9492187 C4939.24501,82.0481771 4939.10764,83.0784505 4938.55816,84.0400391 Z M4933.4068,85.0703125 C4933.54417,85.2076823 4933.75022,85.2763672 4934.02496,85.2763672 C4934.16233,85.413737 4934.2997,85.4824219 4934.43707,85.4824219 C4934.43707,85.6197917 4934.36839,85.7571615 4934.23102,85.8945312 C4933.95628,85.8945312 4933.75022,85.8258464 4933.61285,85.6884766 C4933.47548,85.6884766 4933.33811,85.6197917 4933.20074,85.4824219 C4933.06337,85.4824219 4932.926,85.413737 4932.78863,85.2763672 C4932.65126,85.1389974 4932.51389,85.0016276 4932.37652,84.8642578 C4932.37652,84.726888 4932.44521,84.5895182 4932.58258,84.4521484 C4932.71995,84.5895182 4932.85732,84.726888 4932.99469,84.8642578 C4933.13206,84.8642578 4933.26943,84.9329427 4933.4068,85.0703125 Z M4912.59527,124.426758 C4912.87001,124.564128 4913.41949,124.838867 4914.24371,125.250977 C4912.4579,127.174154 4909.71051,130.058919 4906.00152,133.905273 C4906.68837,131.295247 4907.64996,127.448893 4908.88629,122.366211 C4909.2984,122.503581 4909.91656,122.847005 4910.74078,123.396484 C4910.46604,123.808594 4910.12262,124.358073 4909.71051,125.044922 C4910.12262,125.319661 4910.74078,125.663086 4911.565,126.075195 C4911.70237,125.800456 4912.04579,125.250977 4912.59527,124.426758 Z M4909.71051,125.044922 C4909.84788,124.770182 4910.1913,124.220703 4910.74078,123.396484 C4911.15289,123.533854 4911.77105,123.877279 4912.59527,124.426758 C4912.32053,124.838867 4911.97711,125.457031 4911.565,126.28125 C4911.15289,126.00651 4910.53473,125.594401 4909.71051,125.044922 Z M4840.27008,86.3066406 C4845.07802,94.8235677 4852.22125,107.530273 4861.69977,124.426758 C4862.11187,124.152018 4862.73004,123.808594 4863.55426,123.396484 C4858.74632,114.879557 4851.60309,102.172852 4842.12457,85.2763672 C4841.9872,85.413737 4841.84983,85.5511068 4841.71246,85.6884766 C4841.57509,85.8258464 4841.43772,85.9632161 4841.30035,86.1005859 C4841.16298,86.1005859 4841.02561,86.1692708 4840.88824,86.3066406 C4840.6135,86.3066406 4840.40745,86.3066406 4840.27008,86.3066406 Z M4862.73004,126.075195 C4862.4553,125.800456 4862.11187,125.250977 4861.69977,124.426758 C4861.28766,124.564128 4860.66949,124.838867 4859.84527,125.250977 C4861.76845,127.174154 4864.58453,130.058919 4868.29352,133.905273 C4867.60667,131.295247 4866.57639,127.448893 4865.2027,122.366211 C4864.92796,122.503581 4864.37848,122.847005 4863.55426,123.396484 C4863.829,123.808594 4864.17242,124.358073 4864.58453,125.044922 C4864.17242,125.319661 4863.55426,125.663086 4862.73004,126.075195 Z M4862.73004,126.075195 C4863.14215,125.937826 4863.76031,125.594401 4864.58453,125.044922 C4864.30979,124.632812 4863.96637,124.083333 4863.55426,123.396484 C4863.14215,123.533854 4862.52398,123.877279 4861.69977,124.426758 C4861.97451,124.838867 4862.31793,125.388346 4862.73004,126.075195 Z M4840.06402,85.8945313 C4840.06402,86.031901 4840.13271,86.1692708 4840.27008,86.3066406 C4839.30849,86.5813802 4838.3469,86.5813802 4837.38531,86.3066406 C4836.42372,85.8945313 4835.66819,85.2076823 4835.11871,84.2460938 C4834.56923,83.1471354 4834.43186,82.0481771 4834.7066,80.9492188 C4835.11871,79.7128906 4835.87424,78.7513021 4836.9732,78.0644531 C4837.93479,77.514974 4839.03375,77.4462891 4840.27008,77.8583984 C4841.50641,78.133138 4842.39931,78.819987 4842.94879,79.9189453 C4843.49827,80.8805339 4843.70432,81.8421224 4843.56695,82.8037109 C4843.42958,83.7652995 4842.94879,84.6582031 4842.12457,85.4824219 C4842.12457,85.3450521 4842.05589,85.1389974 4841.91852,84.8642578 C4842.46799,84.3147786 4842.81142,83.5592448 4842.94879,82.5976563 C4843.08616,81.7734375 4842.94879,80.9492188 4842.53668,80.125 C4841.9872,79.1634115 4841.16298,78.5452474 4840.06402,78.2705078 C4839.10243,77.9957682 4838.14085,78.133138 4837.17926,78.6826172 C4836.21767,79.2320964 4835.59951,79.9876302 4835.32477,80.9492188 C4835.05003,82.0481771 4835.11871,83.0784505 4835.53082,84.0400391 C4836.0803,84.8642578 4836.76715,85.413737 4837.59137,85.6884766 C4838.41559,86.1005859 4839.2398,86.1692708 4840.06402,85.8945313 Z M4840.06402,85.8945312 C4840.06402,86.031901 4840.13271,86.1692708 4840.27008,86.3066406 C4840.40745,86.3066406 4840.6135,86.3066406 4840.88824,86.3066406 C4841.02561,86.1692708 4841.16298,86.1005859 4841.30035,86.1005859 C4841.43772,85.9632161 4841.57509,85.8258464 4841.71246,85.6884766 C4841.84983,85.5511068 4841.9872,85.4824219 4842.12457,85.4824219 C4842.12457,85.3450521 4842.05589,85.1389974 4841.91852,84.8642578 C4841.78115,85.0016276 4841.64378,85.1389974 4841.50641,85.2763672 C4841.36904,85.413737 4841.23167,85.4824219 4841.0943,85.4824219 C4840.95693,85.6197917 4840.75087,85.6884766 4840.47613,85.6884766 C4840.33876,85.8258464 4840.20139,85.8945312 4840.06402,85.8945312 Z M4836.14898,83.8339844 C4836.42372,84.5208333 4836.90452,85.0016276 4837.59137,85.2763672 C4838.27822,85.5511068 4839.03375,85.6197917 4839.85797,85.4824219 C4839.85797,85.6197917 4839.92665,85.7571615 4840.06402,85.8945312 C4839.2398,86.1692708 4838.41559,86.1005859 4837.59137,85.6884766 C4836.76715,85.413737 4836.0803,84.8642578 4835.53082,84.0400391 C4835.11871,83.0784505 4835.05003,82.0481771 4835.32477,80.9492187 C4835.59951,79.9876302 4836.21767,79.2320964 4837.17926,78.6826172 C4838.14085,78.133138 4839.10243,77.9957682 4840.06402,78.2705078 C4841.16298,78.5452474 4841.9872,79.1634115 4842.53668,80.125 C4842.94879,80.9492187 4843.08616,81.7734375 4842.94879,82.5976562 C4842.81142,83.5592448 4842.46799,84.3147786 4841.91852,84.8642578 C4841.78115,84.726888 4841.64378,84.5895182 4841.50641,84.4521484 C4842.05589,83.9026693 4842.39931,83.2845052 4842.53668,82.5976562 C4842.67405,81.7734375 4842.53668,81.0179036 4842.12457,80.3310547 C4841.57509,79.5068359 4840.88824,78.9573568 4840.06402,78.6826172 C4839.10243,78.5452474 4838.20953,78.6826172 4837.38531,79.0947266 C4836.56109,79.5068359 4836.01161,80.1936849 4835.73687,81.1552734 C4835.46214,82.116862 4835.59951,83.0097656 4836.14898,83.8339844 Z M4841.91852,84.8642578 C4841.78115,85.0016276 4841.64378,85.1389974 4841.50641,85.2763672 C4841.36904,85.413737 4841.23167,85.4824219 4841.0943,85.4824219 C4840.95693,85.6197917 4840.75087,85.6884766 4840.47613,85.6884766 C4840.33876,85.8258464 4840.20139,85.8945312 4840.06402,85.8945312 C4839.92665,85.7571615 4839.85797,85.6197917 4839.85797,85.4824219 C4839.99534,85.4824219 4840.13271,85.413737 4840.27008,85.2763672 C4840.40745,85.2763672 4840.54482,85.2076823 4840.68219,85.0703125 C4840.95693,84.9329427 4841.16298,84.8642578 4841.30035,84.8642578 C4841.43772,84.726888 4841.50641,84.5895182 4841.50641,84.4521484 C4841.64378,84.4521484 4841.71246,84.5208333 4841.71246,84.6582031 C4841.71246,84.7955729 4841.78115,84.8642578 4841.91852,84.8642578 Z M4955.6607,86.71875 C4955.79807,86.8561198 4955.86676,86.9934896 4955.86676,87.1308594 C4955.86676,87.1308594 4955.86676,87.1995443 4955.86676,87.3369141 C4955.86676,87.4742839 4955.86676,87.6116536 4955.86676,87.7490234 C4955.86676,87.8863932 4955.79807,87.9550781 4955.6607,87.9550781 C4955.52333,88.0924479 4955.45465,88.1611328 4955.45465,88.1611328 C4955.31728,88.2985026 4955.17991,88.3671875 4955.04254,88.3671875 C4954.35569,88.3671875 4953.60016,88.3671875 4952.77594,88.3671875 C4952.08909,88.3671875 4951.40224,88.3671875 4950.71539,88.3671875 C4950.02854,88.3671875 4949.34169,88.3671875 4948.65484,88.3671875 C4947.83062,88.3671875 4947.07509,88.3671875 4946.38824,88.3671875 C4946.38824,88.3671875 4946.31956,88.2985026 4946.18219,88.1611328 C4946.18219,88.1611328 4946.1135,88.1611328 4945.97613,88.1611328 C4945.97613,88.1611328 4945.97613,88.1611328 4945.97613,88.1611328 C4945.83876,88.1611328 4945.77008,88.0924479 4945.77008,87.9550781 C4945.77008,87.9550781 4945.70139,87.8863932 4945.56402,87.7490234 C4945.56402,87.7490234 4945.56402,87.7490234 4945.56402,87.7490234 C4945.56402,87.6116536 4945.56402,87.5429688 4945.56402,87.5429688 C4945.56402,87.5429688 4945.56402,87.4742839 4945.56402,87.3369141 C4945.56402,87.3369141 4945.56402,87.3369141 4945.56402,87.3369141 C4945.56402,87.3369141 4945.56402,87.3369141 4945.56402,87.3369141 C4945.56402,87.3369141 4945.56402,87.1995443 4945.56402,86.9248047 C4945.70139,86.6500651 4945.77008,86.3066406 4945.77008,85.8945312 C4945.90745,85.4824219 4946.04482,85.0703125 4946.18219,84.6582031 C4946.45693,84.2460938 4946.73167,83.7652995 4947.00641,83.2158203 C4947.28115,82.9410807 4947.4872,82.6663411 4947.62457,82.3916016 C4947.89931,82.116862 4948.17405,81.8421224 4948.44879,81.5673828 C4948.72353,81.2926432 4948.99827,81.0179036 4949.27301,80.7431641 C4949.54775,80.4684245 4949.89117,80.1936849 4950.30328,79.9189453 C4951.1275,79.5068359 4951.74566,79.0947266 4952.15777,78.6826172 C4952.70725,78.2705078 4953.05068,77.8583984 4953.18805,77.4462891 C4953.46279,77.1715495 4953.66884,76.8968099 4953.80621,76.6220703 C4953.80621,76.2099609 4953.80621,75.8665365 4953.80621,75.5917969 C4953.80621,75.5917969 4953.80621,75.523112 4953.80621,75.3857422 C4953.80621,75.2483724 4953.80621,75.1110026 4953.80621,74.9736328 C4953.80621,74.9736328 4953.80621,74.9049479 4953.80621,74.7675781 C4953.80621,74.6302083 4953.73753,74.4928385 4953.60016,74.3554688 C4953.60016,74.218099 4953.46279,74.0807292 4953.18805,73.9433594 C4953.05068,73.8059896 4952.91331,73.5999349 4952.77594,73.3251953 C4952.5012,73.1878255 4952.22646,73.1191406 4951.95172,73.1191406 C4951.53961,72.9817708 4951.1275,72.9130859 4950.71539,72.9130859 C4950.44065,72.9130859 4950.09723,72.9817708 4949.68512,73.1191406 C4949.41038,73.1191406 4949.20432,73.1878255 4949.06695,73.3251953 C4948.79221,73.4625651 4948.58616,73.6686198 4948.44879,73.9433594 C4948.17405,74.218099 4947.96799,74.4928385 4947.83062,74.7675781 C4947.83062,74.9049479 4947.76194,74.9736328 4947.62457,74.9736328 C4947.62457,75.1110026 4947.55589,75.1796875 4947.41852,75.1796875 C4947.28115,75.1796875 4947.14378,75.1796875 4947.00641,75.1796875 C4946.86904,75.1796875 4946.73167,75.1796875 4946.5943,75.1796875 C4946.5943,75.0423177 4946.52561,74.9736328 4946.38824,74.9736328 C4946.25087,74.836263 4946.18219,74.6988932 4946.18219,74.5615234 C4946.18219,74.5615234 4946.18219,74.4928385 4946.18219,74.3554688 C4946.18219,74.218099 4946.18219,74.0807292 4946.18219,73.9433594 C4946.45693,73.53125 4946.73167,73.1191406 4947.00641,72.7070312 C4947.28115,72.4322917 4947.62457,72.1575521 4948.03668,71.8828125 C4948.44879,71.6080729 4948.8609,71.4707031 4949.27301,71.4707031 C4949.68512,71.3333333 4950.16591,71.2646484 4950.71539,71.2646484 C4951.67698,71.2646484 4952.43251,71.3333333 4952.98199,71.4707031 C4953.66884,71.7454427 4954.21832,72.1575521 4954.63043,72.7070312 C4954.90517,73.1191406 4955.17991,73.5999349 4955.45465,74.1494141 C4955.59202,74.5615234 4955.6607,75.0423177 4955.6607,75.5917969 C4955.6607,76.141276 4955.59202,76.6907552 4955.45465,77.2402344 C4955.31728,77.7897135 4955.04254,78.2705078 4954.63043,78.6826172 C4954.21832,79.0947266 4953.73753,79.5755208 4953.18805,80.125 C4952.63857,80.5371094 4952.0204,81.0179036 4951.33355,81.5673828 C4950.64671,81.9794922 4950.09723,82.3916016 4949.68512,82.8037109 C4949.27301,83.2158203 4948.92958,83.6279297 4948.65484,84.0400391 C4948.3801,84.5895182 4948.10536,85.0703125 4947.83062,85.4824219 C4947.69326,85.8945312 4947.55589,86.2379557 4947.41852,86.5126953 C4948.24273,86.5126953 4949.34169,86.5126953 4950.71539,86.5126953 C4951.95172,86.5126953 4953.3941,86.5126953 4955.04254,86.5126953 C4955.17991,86.5126953 4955.24859,86.5126953 4955.24859,86.5126953 C4955.38596,86.5126953 4955.52333,86.5813802 4955.6607,86.71875 Z M4828.52496,71.2646484 C4828.66233,71.2646484 4828.73102,71.3333333 4828.73102,71.4707031 C4828.86839,71.4707031 4828.93707,71.539388 4828.93707,71.6767578 C4828.93707,71.6767578 4828.93707,71.7454427 4828.93707,71.8828125 C4829.07444,71.8828125 4829.14312,71.9514974 4829.14312,72.0888672 C4829.14312,73.7373047 4829.14312,75.8665365 4829.14312,78.4765625 C4829.14312,80.9492188 4829.14312,83.9026693 4829.14312,87.3369141 C4829.14312,87.4742839 4829.07444,87.6116536 4828.93707,87.7490234 C4828.93707,87.8863932 4828.86839,87.9550781 4828.73102,87.9550781 C4828.73102,88.0924479 4828.66233,88.1611328 4828.52496,88.1611328 C4828.38759,88.1611328 4828.25022,88.1611328 4828.11285,88.1611328 C4828.11285,88.1611328 4828.04417,88.1611328 4827.9068,88.1611328 C4827.76943,88.1611328 4827.63206,88.0924479 4827.49469,87.9550781 C4827.49469,87.9550781 4827.426,87.8863932 4827.28863,87.7490234 C4827.28863,87.6116536 4827.28863,87.4742839 4827.28863,87.3369141 C4827.28863,85.9632161 4827.28863,84.1774089 4827.28863,81.9794922 C4827.28863,79.7815755 4827.28863,77.1715495 4827.28863,74.1494141 C4827.28863,74.2867839 4827.21995,74.4241536 4827.08258,74.5615234 C4826.94521,74.6988932 4826.80784,74.836263 4826.67047,74.9736328 C4826.5331,74.9736328 4826.46441,74.9736328 4826.46441,74.9736328 C4826.32704,75.1110026 4826.18967,75.1796875 4826.0523,75.1796875 C4825.91493,75.1796875 4825.77757,75.1110026 4825.6402,74.9736328 C4825.6402,74.9736328 4825.57151,74.9736328 4825.43414,74.9736328 C4825.29677,74.836263 4825.22809,74.6988932 4825.22809,74.5615234 C4825.22809,74.4241536 4825.22809,74.2867839 4825.22809,74.1494141 C4825.22809,74.1494141 4825.22809,74.0807292 4825.22809,73.9433594 C4825.22809,73.8059896 4825.29677,73.6686198 4825.43414,73.53125 C4825.70888,73.3938802 4825.98362,73.1191406 4826.25836,72.7070312 C4826.67047,72.2949219 4827.08258,71.8828125 4827.49469,71.4707031 C4827.63206,71.3333333 4827.70074,71.2646484 4827.70074,71.2646484 C4827.83811,71.2646484 4827.97548,71.2646484 4828.11285,71.2646484 C4828.11285,71.2646484 4828.11285,71.2646484 4828.11285,71.2646484 C4828.11285,71.2646484 4828.11285,71.2646484 4828.11285,71.2646484 C4828.25022,71.2646484 4828.31891,71.2646484 4828.31891,71.2646484 C4828.45628,71.2646484 4828.52496,71.2646484 4828.52496,71.2646484 Z" transform="translate(-4827.228)"/></svg>