<svg xmlns="http://www.w3.org/2000/svg" width="120" height="243" viewBox="0 0 120 243"><path fill="#131313" d="M70.9099309,95.0507812 C78.4652694,108.375651 89.7982772,128.362956 104.908954,155.012695 C105.870543,156.798503 106.076598,158.72168 105.527118,160.782227 C104.977639,162.705404 103.809996,164.216471 102.024189,165.31543 C101.33734,165.590169 100.719176,165.796224 100.169697,165.933594 C99.4828476,166.208333 98.8646835,166.345703 98.3152043,166.345703 C96.9415064,166.345703 95.7051783,166.002279 94.60622,165.31543 C93.3698918,164.628581 92.4083033,163.666992 91.7214543,162.430664 C85.2650741,150.891602 75.5118189,133.514323 62.4616887,110.298828 C55.8679387,121.837891 46.0459986,139.215169 32.9958684,162.430664 C32.3090194,163.666992 31.4161158,164.628581 30.3171575,165.31543 C29.0808293,166.002279 27.7758163,166.345703 26.4021184,166.345703 C25.8526392,166.345703 25.2344752,166.208333 24.5476262,165.933594 C23.998147,165.796224 23.4486679,165.590169 22.8991887,165.31543 C21.1133814,164.216471 19.9457382,162.705404 19.396259,160.782227 C18.7094101,158.72168 18.9154647,156.798503 20.0144231,155.012695 C27.5697616,141.687826 38.8340845,121.700521 53.8073918,95.0507812 C46.2520533,81.7259115 34.9877304,61.7386068 20.0144231,35.0888672 C18.9154647,33.3030599 18.7094101,31.3798828 19.396259,29.3193359 C19.9457382,27.3961589 21.1133814,25.8850911 22.8991887,24.7861328 C23.998147,24.0992839 25.1657903,23.7558594 26.4021184,23.7558594 C27.0889673,23.7558594 27.7758163,23.8932292 28.4626653,24.1679688 C30.5232121,24.7174479 32.0342798,25.8850911 32.9958684,27.6708984 C39.5896184,39.2099609 49.4115585,56.5872396 62.4616887,79.8027344 C68.9180689,68.2636719 78.6713241,50.8863932 91.7214543,27.6708984 C92.6830429,25.8850911 94.1941106,24.7174479 96.2546575,24.1679688 C98.3152043,23.6184896 100.238381,23.8245443 102.024189,24.7861328 C103.809996,25.8850911 104.977639,27.3961589 105.527118,29.3193359 C106.076598,31.3798828 105.801858,33.3030599 104.7029,35.0888672 C99.0707382,45.116862 93.4385767,55.0761719 87.8064153,64.9667969 C82.1742538,74.9947917 76.5420923,85.0227865 70.9099309,95.0507812 Z M108.59082,49.3066406 C103.920247,57.8235677 96.8457031,70.5302734 87.3671875,87.4267578 C86.9550781,87.1520182 86.3369141,86.8085938 85.5126953,86.3964844 C90.1832682,77.8795573 97.2578125,65.1728516 106.736328,48.2763672 C106.873698,48.413737 107.011068,48.5511068 107.148438,48.6884766 C107.285807,48.8258464 107.491862,48.8945312 107.766602,48.8945312 C107.903971,49.031901 108.041341,49.1692708 108.178711,49.3066406 C108.316081,49.3066406 108.453451,49.3066406 108.59082,49.3066406 Z M106.530273,43.125 C105.980794,43.9492187 105.77474,44.7734375 105.912109,45.5976562 C106.049479,46.5592448 106.461589,47.3147786 107.148438,47.8642578 C107.011068,48.0016276 106.873698,48.1389974 106.736328,48.2763672 C106.049479,47.5895182 105.63737,46.7652995 105.5,45.8037109 C105.36263,44.7047526 105.5,43.7431641 105.912109,42.9189453 C106.598958,41.819987 107.491862,41.0644531 108.59082,40.6523437 C109.827148,40.3776042 110.994792,40.514974 112.09375,41.0644531 C113.192708,41.7513021 113.879557,42.7128906 114.154297,43.9492187 C114.566406,45.0481771 114.429036,46.1471354 113.742188,47.2460937 C113.192708,48.2076823 112.437174,48.8945312 111.475586,49.3066406 C110.513997,49.5813802 109.552409,49.5813802 108.59082,49.3066406 C108.72819,49.3066406 108.86556,49.1692708 109.00293,48.8945312 C109.827148,49.1692708 110.651367,49.1005859 111.475586,48.6884766 C112.299805,48.413737 112.917969,47.8642578 113.330078,47.0400391 C113.879557,46.0784505 114.016927,45.0481771 113.742188,43.9492187 C113.467448,42.9876302 112.849284,42.2320964 111.887695,41.6826172 C110.926107,41.133138 109.895833,40.9957682 108.796875,41.2705078 C107.697917,41.5452474 106.942383,42.1634115 106.530273,43.125 Z M107.766602,49.1005859 C107.491862,48.9632161 107.285807,48.8258464 107.148438,48.6884766 C107.011068,48.5511068 106.873698,48.4824219 106.736328,48.4824219 C106.873698,48.3450521 107.011068,48.1389974 107.148438,47.8642578 C107.285807,48.0016276 107.423177,48.1389974 107.560547,48.2763672 C107.697917,48.413737 107.835286,48.4824219 107.972656,48.4824219 C108.110026,48.6197917 108.247396,48.6884766 108.384766,48.6884766 C108.522135,48.8258464 108.72819,48.8945312 109.00293,48.8945312 C108.86556,49.031901 108.72819,49.2379557 108.59082,49.5126953 C108.453451,49.3753255 108.316081,49.3066406 108.178711,49.3066406 C108.041341,49.1692708 107.903971,49.1005859 107.766602,49.1005859 Z M113.330078,47.0400391 C112.917969,47.8642578 112.299805,48.413737 111.475586,48.6884766 C110.651367,49.1005859 109.827148,49.1692708 109.00293,48.8945312 C109.00293,48.7571615 109.071615,48.6197917 109.208984,48.4824219 C109.895833,48.6197917 110.582682,48.5511068 111.269531,48.2763672 C111.95638,48.0016276 112.505859,47.5208333 112.917969,46.8339844 C113.330078,46.0097656 113.398763,45.116862 113.124023,44.1552734 C112.849284,43.1936849 112.299805,42.5068359 111.475586,42.0947266 C110.651367,41.6826172 109.827148,41.5452474 109.00293,41.6826172 C108.041341,41.9573568 107.354492,42.5068359 106.942383,43.3310547 C106.530273,44.0179036 106.392904,44.7734375 106.530273,45.5976562 C106.530273,46.2845052 106.805013,46.9026693 107.354492,47.4521484 C107.354492,47.5895182 107.285807,47.726888 107.148438,47.8642578 C106.461589,47.3147786 106.049479,46.5592448 105.912109,45.5976562 C105.77474,44.7734375 105.912109,43.9492188 106.324219,43.125 C106.873698,42.1634115 107.697917,41.5452474 108.796875,41.2705078 C109.895833,40.9957682 110.926107,41.133138 111.887695,41.6826172 C112.849284,42.2320964 113.467448,42.9876302 113.742188,43.9492188 C114.016927,45.0481771 113.879557,46.0784505 113.330078,47.0400391 Z M108.178711,48.0703125 C108.316081,48.2076823 108.522135,48.2763672 108.796875,48.2763672 C108.934245,48.413737 109.071615,48.4824219 109.208984,48.4824219 C109.208984,48.6197917 109.140299,48.7571615 109.00293,48.8945312 C108.72819,48.8945312 108.522135,48.8258464 108.384766,48.6884766 C108.247396,48.6884766 108.110026,48.6197917 107.972656,48.4824219 C107.835286,48.4824219 107.697917,48.413737 107.560547,48.2763672 C107.423177,48.1389974 107.285807,48.0016276 107.148438,47.8642578 C107.148438,47.726888 107.217122,47.5895182 107.354492,47.4521484 C107.491862,47.5895182 107.629232,47.726888 107.766602,47.8642578 C107.903971,47.8642578 108.041341,47.9329427 108.178711,48.0703125 Z M87.3671875,87.4267578 C87.6419271,87.5641276 88.1914062,87.8388672 89.015625,88.2509766 C87.2298177,90.1741536 84.4824219,93.0589193 80.7734375,96.9052734 C81.4602865,94.2952474 82.421875,90.4488932 83.6582031,85.3662109 C84.0703125,85.5035807 84.6884766,85.8470052 85.5126953,86.3964844 C85.2379557,86.8085938 84.8945312,87.3580729 84.4824219,88.0449219 C84.8945312,88.3196615 85.5126953,88.6630859 86.3369141,89.0751953 C86.4742839,88.8004557 86.8177083,88.2509766 87.3671875,87.4267578 Z M84.4824219,88.0449219 C84.6197917,87.7701823 84.9632161,87.2207031 85.5126953,86.3964844 C85.9248047,86.5338542 86.5429688,86.8772786 87.3671875,87.4267578 C87.0924479,87.8388672 86.7490234,88.4570312 86.3369141,89.28125 C85.9248047,89.0065104 85.3066406,88.594401 84.4824219,88.0449219 Z M15.0419922,49.3066406 C19.8499349,57.8235677 26.9931641,70.5302734 36.4716797,87.4267578 C36.8837891,87.1520182 37.5019531,86.8085938 38.3261719,86.3964844 C33.5182292,77.8795573 26.375,65.1728516 16.8964844,48.2763672 C16.7591146,48.413737 16.6217448,48.5511068 16.484375,48.6884766 C16.3470052,48.8258464 16.2096354,48.9632161 16.0722656,49.1005859 C15.9348958,49.1005859 15.797526,49.1692708 15.6601562,49.3066406 C15.3854167,49.3066406 15.179362,49.3066406 15.0419922,49.3066406 Z M37.5019531,89.0751953 C37.2272135,88.8004557 36.8837891,88.2509766 36.4716797,87.4267578 C36.0595703,87.5641276 35.4414062,87.8388672 34.6171875,88.2509766 C36.5403646,90.1741536 39.3564453,93.0589193 43.0654297,96.9052734 C42.3785807,94.2952474 41.3483073,90.4488932 39.9746094,85.3662109 C39.6998698,85.5035807 39.1503906,85.8470052 38.3261719,86.3964844 C38.6009115,86.8085938 38.9443359,87.3580729 39.3564453,88.0449219 C38.9443359,88.3196615 38.3261719,88.6630859 37.5019531,89.0751953 Z M37.5019531,89.0751953 C37.9140625,88.9378255 38.5322266,88.594401 39.3564453,88.0449219 C39.0817057,87.6328125 38.7382812,87.0833333 38.3261719,86.3964844 C37.9140625,86.5338542 37.2958984,86.8772786 36.4716797,87.4267578 C36.7464193,87.8388672 37.0898438,88.3883464 37.5019531,89.0751953 Z M14.8359375,48.8945312 C14.8359375,49.031901 14.9046224,49.1692708 15.0419922,49.3066406 C14.0804036,49.5813802 13.1188151,49.5813802 12.1572266,49.3066406 C11.195638,48.8945312 10.4401042,48.2076823 9.890625,47.2460938 C9.34114583,46.1471354 9.20377604,45.0481771 9.47851562,43.9492188 C9.890625,42.7128906 10.6461589,41.7513021 11.7451172,41.0644531 C12.7067057,40.514974 13.8056641,40.4462891 15.0419922,40.8583984 C16.2783203,41.133138 17.171224,41.819987 17.7207031,42.9189453 C18.2701823,43.8805339 18.476237,44.8421224 18.3388672,45.8037109 C18.2014974,46.7652995 17.7207031,47.6582031 16.8964844,48.4824219 C16.8964844,48.3450521 16.8277995,48.1389974 16.6904297,47.8642578 C17.2399089,47.3147786 17.5833333,46.5592448 17.7207031,45.5976562 C17.8580729,44.7734375 17.7207031,43.9492188 17.3085937,43.125 C16.7591146,42.1634115 15.9348958,41.5452474 14.8359375,41.2705078 C13.874349,40.9957682 12.9127604,41.133138 11.9511719,41.6826172 C10.9895833,42.2320964 10.3714193,42.9876302 10.0966797,43.9492188 C9.8219401,45.0481771 9.890625,46.0784505 10.3027344,47.0400391 C10.8522135,47.8642578 11.5390625,48.413737 12.3632812,48.6884766 C13.1875,49.1005859 14.0117187,49.1692708 14.8359375,48.8945312 Z M14.8359375,48.8945312 C14.8359375,49.031901 14.9046224,49.1692708 15.0419922,49.3066406 C15.179362,49.3066406 15.3854167,49.3066406 15.6601562,49.3066406 C15.797526,49.1692708 15.9348958,49.1005859 16.0722656,49.1005859 C16.2096354,48.9632161 16.3470052,48.8258464 16.484375,48.6884766 C16.6217448,48.5511068 16.7591146,48.4824219 16.8964844,48.4824219 C16.8964844,48.3450521 16.8277995,48.1389974 16.6904297,47.8642578 C16.5530599,48.0016276 16.4156901,48.1389974 16.2783203,48.2763672 C16.1409505,48.413737 16.0035807,48.4824219 15.8662109,48.4824219 C15.7288411,48.6197917 15.5227865,48.6884766 15.2480469,48.6884766 C15.1106771,48.8258464 14.9733073,48.8945312 14.8359375,48.8945312 Z M10.9208984,46.8339844 C11.195638,47.5208333 11.6764323,48.0016276 12.3632812,48.2763672 C13.0501302,48.5511068 13.8056641,48.6197917 14.6298828,48.4824219 C14.6298828,48.6197917 14.6985677,48.7571615 14.8359375,48.8945312 C14.0117187,49.1692708 13.1875,49.1005859 12.3632812,48.6884766 C11.5390625,48.413737 10.8522135,47.8642578 10.3027344,47.0400391 C9.890625,46.0784505 9.8219401,45.0481771 10.0966797,43.9492188 C10.3714193,42.9876302 10.9895833,42.2320964 11.9511719,41.6826172 C12.9127604,41.133138 13.874349,40.9957682 14.8359375,41.2705078 C15.9348958,41.5452474 16.7591146,42.1634115 17.3085937,43.125 C17.7207031,43.9492188 17.8580729,44.7734375 17.7207031,45.5976562 C17.5833333,46.5592448 17.2399089,47.3147786 16.6904297,47.8642578 C16.5530599,47.726888 16.4156901,47.5895182 16.2783203,47.4521484 C16.8277995,46.9026693 17.171224,46.2845052 17.3085937,45.5976562 C17.4459635,44.7734375 17.3085937,44.0179036 16.8964844,43.3310547 C16.3470052,42.5068359 15.6601562,41.9573568 14.8359375,41.6826172 C13.874349,41.5452474 12.9814453,41.6826172 12.1572266,42.0947266 C11.3330078,42.5068359 10.7835286,43.1936849 10.5087891,44.1552734 C10.2340495,45.116862 10.3714193,46.0097656 10.9208984,46.8339844 Z M16.6904297,47.8642578 C16.5530599,48.0016276 16.4156901,48.1389974 16.2783203,48.2763672 C16.1409505,48.413737 16.0035807,48.4824219 15.8662109,48.4824219 C15.7288411,48.6197917 15.5227865,48.6884766 15.2480469,48.6884766 C15.1106771,48.8258464 14.9733073,48.8945312 14.8359375,48.8945312 C14.6985677,48.7571615 14.6298828,48.6197917 14.6298828,48.4824219 C14.7672526,48.4824219 14.9046224,48.413737 15.0419922,48.2763672 C15.179362,48.2763672 15.3167318,48.2076823 15.4541016,48.0703125 C15.7288411,47.9329427 15.9348958,47.8642578 16.0722656,47.8642578 C16.2096354,47.726888 16.2783203,47.5895182 16.2783203,47.4521484 C16.4156901,47.4521484 16.484375,47.5208333 16.484375,47.6582031 C16.484375,47.7955729 16.5530599,47.8642578 16.6904297,47.8642578 Z M130.432617,49.71875 C130.569987,49.8561198 130.638672,49.9934896 130.638672,50.1308594 C130.638672,50.1308594 130.638672,50.1995443 130.638672,50.3369141 C130.638672,50.4742839 130.638672,50.6116536 130.638672,50.7490234 C130.638672,50.8863932 130.569987,50.9550781 130.432617,50.9550781 C130.295247,51.0924479 130.226562,51.1611328 130.226562,51.1611328 C130.089193,51.2985026 129.951823,51.3671875 129.814453,51.3671875 C129.127604,51.3671875 128.37207,51.3671875 127.547852,51.3671875 C126.861003,51.3671875 126.174154,51.3671875 125.487305,51.3671875 C124.800456,51.3671875 124.113607,51.3671875 123.426758,51.3671875 C122.602539,51.3671875 121.847005,51.3671875 121.160156,51.3671875 C121.160156,51.3671875 121.091471,51.2985026 120.954102,51.1611328 C120.954102,51.1611328 120.885417,51.1611328 120.748047,51.1611328 C120.748047,51.1611328 120.748047,51.1611328 120.748047,51.1611328 C120.610677,51.1611328 120.541992,51.0924479 120.541992,50.9550781 C120.541992,50.9550781 120.473307,50.8863932 120.335938,50.7490234 C120.335938,50.7490234 120.335938,50.7490234 120.335938,50.7490234 C120.335938,50.6116536 120.335938,50.5429688 120.335938,50.5429688 C120.335938,50.5429688 120.335938,50.4742839 120.335938,50.3369141 C120.335938,50.3369141 120.335938,50.3369141 120.335938,50.3369141 C120.335938,50.3369141 120.335938,50.3369141 120.335938,50.3369141 C120.335938,50.3369141 120.335938,50.1995443 120.335938,49.9248047 C120.473307,49.6500651 120.541992,49.3066406 120.541992,48.8945312 C120.679362,48.4824219 120.816732,48.0703125 120.954102,47.6582031 C121.228841,47.2460938 121.503581,46.7652995 121.77832,46.2158203 C122.05306,45.9410807 122.259115,45.6663411 122.396484,45.3916016 C122.671224,45.116862 122.945964,44.8421224 123.220703,44.5673828 C123.495443,44.2926432 123.770182,44.0179036 124.044922,43.7431641 C124.319661,43.4684245 124.663086,43.1936849 125.075195,42.9189453 C125.899414,42.5068359 126.517578,42.0947266 126.929688,41.6826172 C127.479167,41.2705078 127.822591,40.8583984 127.959961,40.4462891 C128.234701,40.1715495 128.440755,39.8968099 128.578125,39.6220703 C128.578125,39.2099609 128.578125,38.8665365 128.578125,38.5917969 C128.578125,38.5917969 128.578125,38.523112 128.578125,38.3857422 C128.578125,38.2483724 128.578125,38.1110026 128.578125,37.9736328 C128.578125,37.9736328 128.578125,37.9049479 128.578125,37.7675781 C128.578125,37.6302083 128.50944,37.4928385 128.37207,37.3554688 C128.37207,37.218099 128.234701,37.0807292 127.959961,36.9433594 C127.822591,36.8059896 127.685221,36.5999349 127.547852,36.3251953 C127.273112,36.1878255 126.998372,36.1191406 126.723633,36.1191406 C126.311523,35.9817708 125.899414,35.9130859 125.487305,35.9130859 C125.212565,35.9130859 124.869141,35.9817708 124.457031,36.1191406 C124.182292,36.1191406 123.976237,36.1878255 123.838867,36.3251953 C123.564128,36.4625651 123.358073,36.6686198 123.220703,36.9433594 C122.945964,37.218099 122.739909,37.4928385 122.602539,37.7675781 C122.602539,37.9049479 122.533854,37.9736328 122.396484,37.9736328 C122.396484,38.1110026 122.327799,38.1796875 122.19043,38.1796875 C122.05306,38.1796875 121.91569,38.1796875 121.77832,38.1796875 C121.640951,38.1796875 121.503581,38.1796875 121.366211,38.1796875 C121.366211,38.0423177 121.297526,37.9736328 121.160156,37.9736328 C121.022786,37.836263 120.954102,37.6988932 120.954102,37.5615234 C120.954102,37.5615234 120.954102,37.4928385 120.954102,37.3554688 C120.954102,37.218099 120.954102,37.0807292 120.954102,36.9433594 C121.228841,36.53125 121.503581,36.1191406 121.77832,35.7070312 C122.05306,35.4322917 122.396484,35.1575521 122.808594,34.8828125 C123.220703,34.6080729 123.632812,34.4707031 124.044922,34.4707031 C124.457031,34.3333333 124.937826,34.2646484 125.487305,34.2646484 C126.448893,34.2646484 127.204427,34.3333333 127.753906,34.4707031 C128.440755,34.7454427 128.990234,35.1575521 129.402344,35.7070312 C129.677083,36.1191406 129.951823,36.5999349 130.226562,37.1494141 C130.363932,37.5615234 130.432617,38.0423177 130.432617,38.5917969 C130.432617,39.141276 130.363932,39.6907552 130.226562,40.2402344 C130.089193,40.7897135 129.814453,41.2705078 129.402344,41.6826172 C128.990234,42.0947266 128.50944,42.5755208 127.959961,43.125 C127.410482,43.5371094 126.792318,44.0179036 126.105469,44.5673828 C125.41862,44.9794922 124.869141,45.3916016 124.457031,45.8037109 C124.044922,46.2158203 123.701497,46.6279297 123.426758,47.0400391 C123.152018,47.5895182 122.877279,48.0703125 122.602539,48.4824219 C122.465169,48.8945312 122.327799,49.2379557 122.19043,49.5126953 C123.014648,49.5126953 124.113607,49.5126953 125.487305,49.5126953 C126.723633,49.5126953 128.166016,49.5126953 129.814453,49.5126953 C129.951823,49.5126953 130.020508,49.5126953 130.020508,49.5126953 C130.157878,49.5126953 130.295247,49.5813802 130.432617,49.71875 Z M3.296875,34.2646484 C3.43424479,34.2646484 3.50292969,34.3333333 3.50292969,34.4707031 C3.64029948,34.4707031 3.70898438,34.539388 3.70898438,34.6767578 C3.70898438,34.6767578 3.70898438,34.7454427 3.70898438,34.8828125 C3.84635417,34.8828125 3.91503906,34.9514974 3.91503906,35.0888672 C3.91503906,36.7373047 3.91503906,38.8665365 3.91503906,41.4765625 C3.91503906,43.9492188 3.91503906,46.9026693 3.91503906,50.3369141 C3.91503906,50.4742839 3.84635417,50.6116536 3.70898438,50.7490234 C3.70898438,50.8863932 3.64029948,50.9550781 3.50292969,50.9550781 C3.50292969,51.0924479 3.43424479,51.1611328 3.296875,51.1611328 C3.15950521,51.1611328 3.02213542,51.1611328 2.88476562,51.1611328 C2.88476562,51.1611328 2.81608073,51.1611328 2.67871094,51.1611328 C2.54134115,51.1611328 2.40397135,51.0924479 2.26660156,50.9550781 C2.26660156,50.9550781 2.19791667,50.8863932 2.06054688,50.7490234 C2.06054688,50.6116536 2.06054688,50.4742839 2.06054688,50.3369141 C2.06054688,48.9632161 2.06054688,47.1774089 2.06054688,44.9794922 C2.06054688,42.7815755 2.06054688,40.1715495 2.06054688,37.1494141 C2.06054688,37.2867839 1.99186198,37.4241536 1.85449219,37.5615234 C1.7171224,37.6988932 1.5797526,37.836263 1.44238281,37.9736328 C1.30501302,37.9736328 1.23632812,37.9736328 1.23632812,37.9736328 C1.09895833,38.1110026 0.961588542,38.1796875 0.82421875,38.1796875 C0.686848958,38.1796875 0.549479167,38.1110026 0.412109375,37.9736328 C0.412109375,37.9736328 0.343424479,37.9736328 0.206054688,37.9736328 C0.0686848958,37.836263 0,37.6988932 0,37.5615234 C0,37.4241536 0,37.2867839 0,37.1494141 C0,37.1494141 0,37.0807292 0,36.9433594 C0,36.8059896 0.0686848958,36.6686198 0.206054688,36.53125 C0.480794271,36.3938802 0.755533854,36.1191406 1.03027344,35.7070312 C1.44238281,35.2949219 1.85449219,34.8828125 2.26660156,34.4707031 C2.40397135,34.3333333 2.47265625,34.2646484 2.47265625,34.2646484 C2.61002604,34.2646484 2.74739583,34.2646484 2.88476562,34.2646484 C2.88476562,34.2646484 2.88476562,34.2646484 2.88476562,34.2646484 C2.88476562,34.2646484 2.88476562,34.2646484 2.88476562,34.2646484 C3.02213542,34.2646484 3.09082031,34.2646484 3.09082031,34.2646484 C3.2281901,34.2646484 3.296875,34.2646484 3.296875,34.2646484 Z" transform="translate(-2)"/></svg>