<svg xmlns="http://www.w3.org/2000/svg" width="243" height="243" viewBox="0 0 243 243"><path fill="#131313" d="M131.554332,122.982067 C136.495739,129.570608 143.907848,139.453421 153.790661,152.630504 C155.138317,154.427379 155.662405,156.448864 155.362926,158.694957 C155.063447,160.941051 154.01527,162.737926 152.218395,164.085582 C151.469697,164.684541 150.720999,165.133759 149.972301,165.433239 C149.073864,165.582978 148.175426,165.657848 147.276989,165.657848 C146.079072,165.657848 144.881155,165.433239 143.683239,164.98402 C142.635062,164.385062 141.661754,163.561494 140.763317,162.513317 C136.420869,156.673473 129.907197,147.988577 121.222301,136.458629 C116.879853,142.298473 110.366181,150.983369 101.681286,162.513317 C100.932588,163.561494 99.9592803,164.385062 98.7613636,164.98402 C97.563447,165.433239 96.3655303,165.657848 95.1676136,165.657848 C94.2691761,165.657848 93.4456084,165.582978 92.6969105,165.433239 C91.798473,165.133759 90.9749053,164.684541 90.2262074,164.085582 C88.4293324,162.737926 87.3811553,160.941051 87.0816761,158.694957 C86.782197,156.448864 87.3062855,154.427379 88.6539418,152.630504 C93.595348,146.041963 101.082327,136.15915 111.114879,122.982067 C106.023733,116.243786 98.5367543,106.286103 88.6539418,93.1090199 C87.3062855,91.3121449 86.782197,89.2906605 87.0816761,87.0445668 C87.3811553,84.798473 88.4293324,83.001598 90.2262074,81.6539418 C92.0230824,80.3062855 94.0445668,79.782197 96.2906605,80.0816761 C98.5367543,80.3811553 100.333629,81.4293324 101.681286,83.2262074 C106.023733,89.0660511 112.537405,97.750947 121.222301,109.280895 C125.564749,103.441051 132.078421,94.7561553 140.763317,83.2262074 C142.110973,81.4293324 143.907848,80.3811553 146.153942,80.0816761 C146.603161,80.0816761 146.977509,80.0816761 147.276989,80.0816761 C149.073864,79.9319366 150.720999,80.4560251 152.218395,81.6539418 C154.01527,83.001598 155.063447,84.798473 155.362926,87.0445668 C155.662405,89.2906605 155.138317,91.3121449 153.790661,93.1090199 C150.047171,98.0504261 146.378551,102.991832 142.784801,107.933239 C139.041312,112.874645 135.297822,117.890921 131.554332,122.982067 Z M154.373047,105.462536 C154.522786,105.612275 154.672526,105.762015 154.822266,105.911754 C154.972005,106.061494 155.121745,106.211233 155.271484,106.360973 C155.421224,106.510713 155.570964,106.585582 155.720703,106.585582 C155.870443,106.735322 156.020182,106.810192 156.169922,106.810192 C155.121745,108.307588 153.549479,110.403942 151.453125,113.099254 C151.003906,112.799775 150.404948,112.350556 149.65625,111.751598 C150.404948,110.703421 151.153646,109.655244 151.902344,108.607067 C152.800781,107.55889 153.624349,106.510713 154.373047,105.462536 Z M161.111328,98.4996449 C162.159505,99.2483428 162.758464,100.29652 162.908203,101.644176 C163.207682,102.991832 162.908203,104.189749 162.009766,105.237926 C161.261068,106.286103 160.36263,106.885062 159.314453,107.034801 C158.266276,107.33428 157.218099,107.259411 156.169922,106.810192 C156.319661,106.810192 156.469401,106.660452 156.619141,106.360973 C157.517578,106.660452 158.416016,106.735322 159.314453,106.585582 C160.212891,106.286103 160.961589,105.762015 161.560547,105.013317 C162.309245,104.114879 162.608724,103.066702 162.458984,101.868786 C162.309245,100.670869 161.710286,99.6975616 160.662109,98.9488636 C159.763672,98.2001657 158.715495,97.9006866 157.517578,98.0504261 C156.319661,98.2001657 155.346354,98.7991241 154.597656,99.8473011 C153.998698,100.595999 153.774089,101.494437 153.923828,102.542614 C153.923828,103.441051 154.223307,104.264619 154.822266,105.013317 C154.672526,105.163056 154.522786,105.312796 154.373047,105.462536 C153.624349,104.564098 153.25,103.590791 153.25,102.542614 C153.25,101.344697 153.549479,100.29652 154.148438,99.3980824 C155.046875,98.3499053 156.169922,97.750947 157.517578,97.6012074 C158.865234,97.3017282 160.063151,97.6012074 161.111328,98.4996449 Z M154.597656,98.9488636 C154.597656,98.9488636 154.522786,99.0237334 154.373047,99.173473 C154.373047,99.3232126 154.298177,99.3980824 154.148438,99.3980824 C154.298177,99.3980824 154.373047,99.3232126 154.373047,99.173473 C154.522786,99.173473 154.597656,99.0986032 154.597656,98.9488636 Z M155.496094,105.911754 C155.645833,106.061494 155.795573,106.136364 155.945312,106.136364 C156.244792,106.286103 156.469401,106.360973 156.619141,106.360973 C156.469401,106.510713 156.319661,106.660452 156.169922,106.810192 C156.020182,106.810192 155.870443,106.735322 155.720703,106.585582 C155.570964,106.585582 155.421224,106.510713 155.271484,106.360973 C155.121745,106.211233 154.972005,106.061494 154.822266,105.911754 C154.672526,105.762015 154.522786,105.612275 154.373047,105.462536 C154.522786,105.462536 154.672526,105.312796 154.822266,105.013317 C154.822266,105.163056 154.897135,105.312796 155.046875,105.462536 C155.196615,105.612275 155.346354,105.762015 155.496094,105.911754 Z M155.046875,100.071911 C154.597656,100.820608 154.373047,101.569306 154.373047,102.318004 C154.373047,103.216442 154.597656,103.96514 155.046875,104.564098 C155.046875,104.713838 154.972005,104.863577 154.822266,105.013317 C154.223307,104.264619 153.923828,103.441051 153.923828,102.542614 C153.774089,101.494437 153.998698,100.595999 154.597656,99.8473011 C155.346354,98.7991241 156.319661,98.2001657 157.517578,98.0504261 C158.715495,97.9006866 159.763672,98.2001657 160.662109,98.9488636 C161.710286,99.6975616 162.309245,100.670869 162.458984,101.868786 C162.608724,103.066702 162.309245,104.114879 161.560547,105.013317 C160.961589,105.762015 160.212891,106.286103 159.314453,106.585582 C158.416016,106.885062 157.517578,106.810192 156.619141,106.360973 C156.619141,106.360973 156.69401,106.211233 156.84375,105.911754 C157.592448,106.211233 158.416016,106.211233 159.314453,105.911754 C160.063151,105.762015 160.662109,105.312796 161.111328,104.564098 C160.961589,104.863577 160.886719,105.013317 160.886719,105.013317 C160.736979,105.163056 160.736979,105.163056 160.886719,105.013317 C160.736979,105.163056 160.736979,105.163056 160.886719,105.013317 C160.886719,105.013317 160.961589,104.863577 161.111328,104.564098 C161.261068,104.564098 161.335938,104.489228 161.335938,104.339489 C161.335938,104.189749 161.410807,104.114879 161.560547,104.114879 C161.410807,104.114879 161.335938,104.189749 161.335938,104.339489 C161.335938,104.489228 161.261068,104.564098 161.111328,104.564098 C161.710286,103.8154 161.934896,102.916963 161.785156,101.868786 C161.635417,100.820608 161.186198,99.9970407 160.4375,99.3980824 C159.539062,98.7991241 158.565755,98.5745147 157.517578,98.7242543 C156.619141,98.8739938 155.795573,99.3232126 155.046875,100.071911 Z M155.496094,105.911754 C155.346354,105.762015 155.196615,105.612275 155.046875,105.462536 C154.897135,105.312796 154.822266,105.163056 154.822266,105.013317 C154.822266,104.863577 154.897135,104.713838 155.046875,104.564098 C155.196615,104.713838 155.346354,104.863577 155.496094,105.013317 C155.645833,105.163056 155.795573,105.312796 155.945312,105.462536 C156.095052,105.612275 156.244792,105.687145 156.394531,105.687145 C156.544271,105.836884 156.69401,105.911754 156.84375,105.911754 C156.84375,106.061494 156.76888,106.211233 156.619141,106.360973 C156.469401,106.360973 156.244792,106.286103 155.945312,106.136364 C155.795573,106.136364 155.645833,106.061494 155.496094,105.911754 Z M150.105469,114.896129 C150.404948,114.59665 150.854167,113.997692 151.453125,113.099254 C151.902344,113.398733 152.501302,113.847952 153.25,114.446911 C151.003906,116.243786 147.634766,118.939098 143.142578,122.532848 C144.190755,119.837536 145.763021,115.794567 147.859375,110.403942 C148.308594,110.703421 148.907552,111.15264 149.65625,111.751598 C149.356771,112.200817 148.907552,112.799775 148.308594,113.548473 C148.757812,113.847952 149.356771,114.297171 150.105469,114.896129 Z M148.308594,113.548473 C148.608073,113.099254 149.057292,112.500296 149.65625,111.751598 C150.105469,112.051077 150.704427,112.500296 151.453125,113.099254 C151.153646,113.548473 150.704427,114.147431 150.105469,114.896129 C149.65625,114.59665 149.057292,114.147431 148.308594,113.548473 Z M86.9902344,105.462536 C88.0384115,106.810192 89.6106771,108.906546 91.7070312,111.751598 C91.2578125,112.051077 90.6588542,112.500296 89.9101562,113.099254 C88.8619792,111.751598 87.2897135,109.655244 85.1933594,106.810192 C85.343099,106.810192 85.4928385,106.735322 85.6425781,106.585582 C85.7923177,106.585582 85.9420573,106.510713 86.0917969,106.360973 C86.2415365,106.211233 86.391276,106.061494 86.5410156,105.911754 C86.6907552,105.762015 86.8404948,105.612275 86.9902344,105.462536 Z M93.5039062,110.403942 C94.5520833,113.099254 96.124349,117.142223 98.2207031,122.532848 C95.9746094,120.735973 92.6054688,118.040661 88.1132812,114.446911 C88.5625,114.147431 89.1614583,113.698213 89.9101562,113.099254 C90.2096354,113.548473 90.6588542,114.147431 91.2578125,114.896129 C91.7070312,114.59665 92.3059896,114.147431 93.0546875,113.548473 C92.7552083,113.248994 92.3059896,112.650036 91.7070312,111.751598 C92.0065104,111.452119 92.6054688,111.0029 93.5039062,110.403942 Z M89.9101562,113.099254 C90.2096354,112.799775 90.8085938,112.350556 91.7070312,111.751598 C92.0065104,112.200817 92.4557292,112.799775 93.0546875,113.548473 C92.6054688,113.847952 92.0065104,114.297171 91.2578125,114.896129 C90.9583333,114.59665 90.5091146,113.997692 89.9101562,113.099254 Z M87.2148438,99.3980824 C87.2148438,99.547822 87.2897135,99.6975616 87.4394531,99.8473011 C87.4394531,99.8473011 87.4394531,99.9221709 87.4394531,100.071911 C87.4394531,99.9221709 87.4394531,99.8473011 87.4394531,99.8473011 C87.2897135,99.6975616 87.2148438,99.547822 87.2148438,99.3980824 Z M87.2148438,99.3980824 C87.0651042,99.2483428 86.9153646,99.173473 86.765625,99.173473 C86.765625,99.0237334 86.765625,98.9488636 86.765625,98.9488636 C86.765625,98.9488636 86.8404948,99.0237334 86.9902344,99.173473 C86.9902344,99.3232126 87.0651042,99.3980824 87.2148438,99.3980824 Z M79.8027344,105.013317 C80.4016927,105.762015 81.1503906,106.286103 82.0488281,106.585582 C82.9472656,106.885062 83.8457031,106.810192 84.7441406,106.360973 C84.8938802,106.510713 85.0436198,106.660452 85.1933594,106.810192 C84.1451823,107.259411 83.0970052,107.33428 82.0488281,107.034801 C80.8509115,106.885062 79.952474,106.286103 79.3535156,105.237926 C78.4550781,104.189749 78.155599,102.991832 78.4550781,101.644176 C78.6048177,100.29652 79.203776,99.2483428 80.2519531,98.4996449 C81.3001302,97.6012074 82.4980469,97.3017282 83.8457031,97.6012074 C85.1933594,97.750947 86.3164062,98.3499053 87.2148438,99.3980824 C87.8138021,100.29652 88.1132812,101.344697 88.1132812,102.542614 C88.1132812,103.590791 87.7389323,104.564098 86.9902344,105.462536 C86.8404948,105.312796 86.6907552,105.163056 86.5410156,105.013317 C87.139974,104.264619 87.4394531,103.441051 87.4394531,102.542614 C87.5891927,101.494437 87.3645833,100.595999 86.765625,99.8473011 C86.0169271,98.7991241 85.0436198,98.2001657 83.8457031,98.0504261 C82.6477865,97.9006866 81.5996094,98.2001657 80.7011719,98.9488636 C79.6529948,99.6975616 79.0540365,100.670869 78.9042969,101.868786 C78.7545573,103.066702 79.0540365,104.114879 79.8027344,105.013317 Z M86.9902344,105.462536 C86.8404948,105.612275 86.6907552,105.762015 86.5410156,105.911754 C86.391276,106.061494 86.2415365,106.211233 86.0917969,106.360973 C85.9420573,106.510713 85.7923177,106.585582 85.6425781,106.585582 C85.4928385,106.735322 85.343099,106.810192 85.1933594,106.810192 C85.0436198,106.810192 84.8938802,106.660452 84.7441406,106.360973 C84.8938802,106.360973 85.1184896,106.286103 85.4179688,106.136364 C85.5677083,105.986624 85.7174479,105.911754 85.8671875,105.911754 C86.0169271,105.762015 86.1666667,105.612275 86.3164062,105.462536 C86.4661458,105.312796 86.5410156,105.163056 86.5410156,105.013317 C86.6907552,105.163056 86.765625,105.237926 86.765625,105.237926 C86.9153646,105.387666 86.9902344,105.462536 86.9902344,105.462536 Z M86.765625,99.8473011 C87.3645833,100.595999 87.5891927,101.494437 87.4394531,102.542614 C87.4394531,103.441051 87.139974,104.264619 86.5410156,105.013317 C86.5410156,104.863577 86.4661458,104.713838 86.3164063,104.564098 C86.765625,103.96514 86.9902344,103.216442 86.9902344,102.318004 C86.9902344,101.569306 86.6907552,100.820608 86.0917969,100.071911 C85.4928385,99.3232126 84.6692708,98.8739938 83.6210938,98.7242543 C82.7226563,98.5745147 81.8242188,98.7991241 80.9257813,99.3980824 C80.1770833,99.9970407 79.7278646,100.820608 79.578125,101.868786 C79.4283854,102.916963 79.6529948,103.8154 80.2519531,104.564098 C80.1022135,104.564098 80.0273438,104.564098 80.0273438,104.564098 C80.0273438,104.414358 80.0273438,104.339489 80.0273438,104.339489 C80.0273438,104.339489 79.952474,104.339489 79.8027344,104.339489 C79.8027344,104.189749 79.8027344,104.114879 79.8027344,104.114879 C79.8027344,104.114879 79.8027344,104.189749 79.8027344,104.339489 C79.952474,104.339489 80.0273438,104.339489 80.0273438,104.339489 C80.0273438,104.489228 80.1022135,104.638968 80.2519531,104.788707 C80.4016927,104.938447 80.4765625,105.013317 80.4765625,105.013317 C80.4765625,105.163056 80.4765625,105.237926 80.4765625,105.237926 C80.4765625,105.237926 80.4765625,105.237926 80.4765625,105.237926 C80.4765625,105.237926 80.4765625,105.237926 80.4765625,105.237926 C80.4765625,105.088187 80.4765625,105.013317 80.4765625,105.013317 C80.4765625,105.013317 80.4765625,105.013317 80.4765625,105.013317 C80.3268229,104.863577 80.2519531,104.713838 80.2519531,104.564098 C80.7011719,105.312796 81.3001302,105.762015 82.0488281,105.911754 C82.9472656,106.211233 83.6959635,106.211233 84.2949219,105.911754 C84.4446615,106.061494 84.594401,106.211233 84.7441406,106.360973 C83.8457031,106.660452 82.9472656,106.735322 82.0488281,106.585582 C81.1503906,106.286103 80.4016927,105.762015 79.8027344,105.013317 C79.0540365,104.114879 78.7545573,103.066702 78.9042969,101.868786 C79.0540365,100.670869 79.6529948,99.6975616 80.7011719,98.9488636 C81.5996094,98.2001657 82.6477865,97.9006866 83.8457031,98.0504261 C85.0436198,98.2001657 86.0169271,98.7991241 86.765625,99.8473011 Z M80.4765625,105.013317 C80.4765625,105.013317 80.4016927,104.938447 80.2519531,104.788707 C80.1022135,104.638968 80.0273438,104.489228 80.0273438,104.339489 C80.0273438,104.339489 80.0273438,104.414358 80.0273438,104.564098 C80.0273438,104.564098 80.1022135,104.564098 80.2519531,104.564098 C80.2519531,104.713838 80.3268229,104.863577 80.4765625,105.013317 C80.4765625,105.013317 80.4765625,105.013317 80.4765625,105.013317 Z M85.4179688,105.462536 C85.5677083,105.312796 85.7174479,105.163056 85.8671875,105.013317 C86.0169271,104.863577 86.1666667,104.713838 86.3164062,104.564098 C86.3164062,104.713838 86.391276,104.863577 86.5410156,105.013317 C86.5410156,105.163056 86.4661458,105.312796 86.3164062,105.462536 C86.1666667,105.612275 86.0169271,105.762015 85.8671875,105.911754 C85.7174479,106.061494 85.5677083,106.136364 85.4179688,106.136364 C85.1184896,106.286103 84.8938802,106.360973 84.7441406,106.360973 C84.7441406,106.360973 84.594401,106.211233 84.2949219,105.911754 C84.594401,105.911754 84.8190104,105.836884 84.96875,105.687145 C85.1184896,105.537405 85.2682292,105.462536 85.4179688,105.462536 Z M70.59375,92.8844105 C70.7434896,92.8844105 70.8183594,92.9592803 70.8183594,93.1090199 C70.968099,93.1090199 71.0429688,93.1838897 71.0429688,93.3336293 C71.0429688,93.3336293 71.1178385,93.4084991 71.2675781,93.5582386 C71.2675781,93.5582386 71.2675781,93.6331084 71.2675781,93.782848 C71.2675781,95.579723 71.2675781,97.9006866 71.2675781,100.745739 C71.2675781,103.441051 71.2675781,106.660452 71.2675781,110.403942 C71.2675781,110.553681 71.1927083,110.703421 71.0429688,110.853161 C71.0429688,111.0029 70.968099,111.07777 70.8183594,111.07777 C70.8183594,111.227509 70.7434896,111.302379 70.59375,111.302379 C70.4440104,111.302379 70.2942708,111.302379 70.1445312,111.302379 C70.1445312,111.302379 70.0696615,111.302379 69.9199219,111.302379 C69.7701823,111.302379 69.6204427,111.227509 69.4707031,111.07777 C69.4707031,111.07777 69.3958333,111.0029 69.2460938,110.853161 C69.2460938,110.703421 69.2460938,110.553681 69.2460938,110.403942 C69.2460938,108.906546 69.2460938,106.959931 69.2460938,104.564098 C69.2460938,102.168265 69.2460938,99.3232126 69.2460938,96.0289418 C69.2460938,96.1786813 69.171224,96.3284209 69.0214844,96.4781605 C68.8717448,96.6279001 68.7220052,96.7776397 68.5722656,96.9273793 C68.422526,96.9273793 68.3476562,96.9273793 68.3476562,96.9273793 C68.1979167,97.0771188 68.0481771,97.1519886 67.8984375,97.1519886 C67.7486979,97.1519886 67.5989583,97.0771188 67.4492188,96.9273793 C67.4492188,96.9273793 67.374349,96.9273793 67.2246094,96.9273793 C67.0748698,96.7776397 67,96.6279001 67,96.4781605 C67,96.3284209 67,96.1786813 67,96.0289418 C67,96.0289418 67,95.954072 67,95.8043324 C67,95.6545928 67.0748698,95.5048532 67.2246094,95.3551136 C67.5240885,95.2053741 67.8235677,94.9058949 68.1230469,94.4566761 C68.5722656,94.0074574 69.0214844,93.5582386 69.4707031,93.1090199 C69.6204427,92.9592803 69.6953125,92.8844105 69.6953125,92.8844105 C69.8450521,92.8844105 69.9947917,92.8844105 70.1445312,92.8844105 C70.1445312,92.8844105 70.1445312,92.8844105 70.1445312,92.8844105 C70.1445312,92.8844105 70.219401,92.8844105 70.3691406,92.8844105 C70.3691406,92.8844105 70.3691406,92.8844105 70.3691406,92.8844105 C70.5188802,92.8844105 70.59375,92.8844105 70.59375,92.8844105 Z M178.855469,109.056286 C179.005208,109.056286 179.154948,109.131155 179.304688,109.280895 C179.454427,109.280895 179.529297,109.355765 179.529297,109.505504 C179.679036,109.505504 179.753906,109.580374 179.753906,109.730114 C179.903646,109.879853 179.978516,110.029593 179.978516,110.179332 C179.978516,110.329072 179.903646,110.403942 179.753906,110.403942 C179.753906,110.553681 179.679036,110.703421 179.529297,110.853161 C179.529297,110.853161 179.454427,110.92803 179.304688,111.07777 C179.154948,111.07777 179.005208,111.07777 178.855469,111.07777 C178.106771,111.07777 177.358073,111.07777 176.609375,111.07777 C175.860677,111.07777 175.037109,111.07777 174.138672,111.07777 C173.389974,111.07777 172.641276,111.07777 171.892578,111.07777 C171.14388,111.07777 170.320312,111.07777 169.421875,111.07777 C169.421875,111.07777 169.421875,111.07777 169.421875,111.07777 C169.272135,111.07777 169.197266,111.07777 169.197266,111.07777 C169.047526,110.92803 168.972656,110.853161 168.972656,110.853161 C168.972656,110.853161 168.897786,110.853161 168.748047,110.853161 C168.748047,110.703421 168.748047,110.628551 168.748047,110.628551 C168.748047,110.628551 168.673177,110.553681 168.523438,110.403942 C168.523438,110.403942 168.523438,110.329072 168.523438,110.179332 C168.523438,110.179332 168.523438,110.179332 168.523438,110.179332 C168.523438,110.179332 168.523438,110.104463 168.523438,109.954723 C168.523438,109.954723 168.523438,109.954723 168.523438,109.954723 C168.523438,109.954723 168.598307,109.804983 168.748047,109.505504 C168.748047,109.355765 168.822917,109.056286 168.972656,108.607067 C168.972656,108.157848 169.122396,107.708629 169.421875,107.259411 C169.571615,106.660452 169.871094,106.061494 170.320312,105.462536 C170.470052,105.163056 170.694661,104.863577 170.994141,104.564098 C171.14388,104.264619 171.36849,103.96514 171.667969,103.665661 C171.967448,103.366181 172.341797,103.141572 172.791016,102.991832 C173.090495,102.692353 173.464844,102.392874 173.914062,102.093395 C174.66276,101.494437 175.336589,100.970348 175.935547,100.521129 C176.384766,100.071911 176.759115,99.6975616 177.058594,99.3980824 C177.208333,98.9488636 177.358073,98.5745147 177.507812,98.2750355 C177.657552,97.9755563 177.732422,97.6760772 177.732422,97.376598 C177.732422,97.2268584 177.732422,97.0771188 177.732422,96.9273793 C177.732422,96.9273793 177.732422,96.8525095 177.732422,96.7027699 C177.582682,96.5530303 177.507812,96.4032907 177.507812,96.2535511 C177.507812,96.2535511 177.507812,96.1786813 177.507812,96.0289418 C177.358073,95.8792022 177.208333,95.6545928 177.058594,95.3551136 C176.908854,95.2053741 176.684245,95.0556345 176.384766,94.9058949 C176.235026,94.7561553 175.935547,94.6064157 175.486328,94.4566761 C175.186849,94.4566761 174.8125,94.4566761 174.363281,94.4566761 C173.914062,94.4566761 173.539714,94.4566761 173.240234,94.4566761 C172.940755,94.6064157 172.641276,94.7561553 172.341797,94.9058949 C172.042318,95.0556345 171.817708,95.2802438 171.667969,95.579723 C171.518229,95.7294626 171.36849,95.954072 171.21875,96.2535511 C171.06901,96.4032907 170.994141,96.5530303 170.994141,96.7027699 C170.844401,96.7027699 170.694661,96.7776397 170.544922,96.9273793 C170.395182,96.9273793 170.320312,96.9273793 170.320312,96.9273793 C170.170573,96.9273793 170.020833,96.8525095 169.871094,96.7027699 C169.721354,96.7027699 169.646484,96.6279001 169.646484,96.4781605 C169.496745,96.4781605 169.421875,96.4032907 169.421875,96.2535511 C169.272135,96.1038116 169.197266,95.954072 169.197266,95.8043324 C169.197266,95.6545928 169.272135,95.579723 169.421875,95.579723 C169.571615,94.9807647 169.796224,94.5315459 170.095703,94.2320668 C170.544922,93.782848 170.919271,93.4833688 171.21875,93.3336293 C171.667969,93.0341501 172.117188,92.8095407 172.566406,92.6598011 C173.165365,92.5100616 173.689453,92.4351918 174.138672,92.4351918 C175.186849,92.4351918 176.085286,92.5849313 176.833984,92.8844105 C177.432943,93.1838897 177.957031,93.5582386 178.40625,94.0074574 C178.855469,94.6064157 179.154948,95.1305043 179.304688,95.579723 C179.454427,96.1786813 179.529297,96.7776397 179.529297,97.376598 C179.529297,97.9755563 179.454427,98.5745147 179.304688,99.173473 C179.154948,99.6226918 178.930339,100.14678 178.630859,100.745739 C178.181641,101.194957 177.657552,101.644176 177.058594,102.093395 C176.459635,102.692353 175.710938,103.216442 174.8125,103.665661 C174.213542,104.114879 173.689453,104.564098 173.240234,105.013317 C172.641276,105.612275 172.192057,106.136364 171.892578,106.585582 C171.593099,107.034801 171.36849,107.48402 171.21875,107.933239 C171.06901,108.382457 170.919271,108.756806 170.769531,109.056286 C171.667969,109.056286 172.791016,109.056286 174.138672,109.056286 C175.486328,109.056286 177.058594,109.056286 178.855469,109.056286 Z"/></svg>