<svg xmlns="http://www.w3.org/2000/svg" width="120" height="203" viewBox="0 0 120 203"><path fill="#131313" d="M5131.96837,24.5205078 C5133.75418,25.6194661 5134.92182,27.1305339 5135.4713,29.0537109 C5136.02078,31.1142578 5135.74604,33.0374349 5134.64708,34.8232422 C5126.95438,48.5602214 5115.34663,69.1656901 5099.82384,96.6396484 C5099.82384,110.376628 5099.82384,130.982096 5099.82384,158.456055 C5099.82384,160.516602 5099.06831,162.302409 5097.55724,163.813477 C5096.18354,165.187174 5094.46642,165.874023 5092.40587,165.874023 C5090.34533,165.874023 5088.55952,165.187174 5087.04845,163.813477 C5085.53738,162.302409 5084.78185,160.516602 5084.78185,158.456055 C5084.78185,144.719076 5084.78185,124.182292 5084.78185,96.8457031 C5077.08914,82.9713542 5065.48139,62.2972005 5049.95861,34.8232422 C5048.85965,33.0374349 5048.58491,31.1142578 5049.13439,29.0537109 C5049.68387,27.1305339 5050.9202,25.6194661 5052.84337,24.5205078 C5053.94233,23.8336589 5055.10997,23.4902344 5056.3463,23.4902344 C5057.03315,23.4902344 5057.72,23.6276042 5058.40685,23.9023438 C5060.4674,24.4518229 5061.97846,25.6194661 5062.94005,27.4052734 C5069.5338,38.9443359 5079.35574,56.3216146 5092.40587,79.5371094 C5098.86225,67.9980469 5108.61551,50.6207682 5121.66564,27.4052734 C5122.62723,25.6194661 5124.13829,24.4518229 5126.19884,23.9023438 C5128.12202,23.3528646 5130.0452,23.5589193 5131.96837,24.5205078 Z M5108.80887,108.59082 C5108.94624,108.59082 5109.08361,108.59082 5109.22098,108.59082 C5109.49572,108.59082 5109.70177,108.59082 5109.83914,108.59082 C5109.83914,113.261393 5109.83914,120.404622 5109.83914,130.020508 C5109.42703,130.020508 5108.74018,130.020508 5107.77859,130.020508 C5107.77859,125.212565 5107.77859,118.069336 5107.77859,108.59082 C5107.91596,108.59082 5108.05333,108.59082 5108.1907,108.59082 C5108.32807,108.59082 5108.53413,108.59082 5108.80887,108.59082 Z M5104.89383,104.263672 C5104.89383,105.087891 5105.16857,105.843424 5105.71805,106.530273 C5106.26753,107.217122 5106.95438,107.697917 5107.77859,107.972656 C5107.77859,108.110026 5107.77859,108.316081 5107.77859,108.59082 C5106.81701,108.316081 5105.99279,107.766602 5105.30594,106.942383 C5104.61909,106.118164 5104.27566,105.22526 5104.27566,104.263672 C5104.27566,103.027344 5104.68777,101.928385 5105.51199,100.966797 C5106.47358,100.142578 5107.57254,99.7304688 5108.80887,99.7304688 C5110.0452,99.7304688 5111.07547,100.142578 5111.89969,100.966797 C5112.86128,101.928385 5113.34207,103.027344 5113.34207,104.263672 C5113.34207,105.22526 5112.99865,106.118164 5112.3118,106.942383 C5111.62495,107.766602 5110.80073,108.316081 5109.83914,108.59082 C5109.83914,108.453451 5109.83914,108.247396 5109.83914,107.972656 C5110.66336,107.697917 5111.35021,107.217122 5111.89969,106.530273 C5112.44917,105.843424 5112.72391,105.087891 5112.72391,104.263672 C5112.72391,103.164714 5112.3118,102.203125 5111.48758,101.378906 C5110.80073,100.554688 5109.90783,100.142578 5108.80887,100.142578 C5107.70991,100.142578 5106.74832,100.554688 5105.9241,101.378906 C5105.23725,102.203125 5104.89383,103.164714 5104.89383,104.263672 Z M5109.83914,108.59082 C5109.70177,108.59082 5109.49572,108.59082 5109.22098,108.59082 C5109.08361,108.59082 5108.94624,108.59082 5108.80887,108.59082 C5108.53413,108.59082 5108.32807,108.59082 5108.1907,108.59082 C5108.05333,108.59082 5107.91596,108.59082 5107.77859,108.59082 C5107.77859,108.453451 5107.77859,108.247396 5107.77859,107.972656 C5107.91596,107.972656 5108.05333,108.041341 5108.1907,108.178711 C5108.32807,108.178711 5108.53413,108.178711 5108.80887,108.178711 C5108.94624,108.178711 5109.08361,108.178711 5109.22098,108.178711 C5109.49572,108.041341 5109.70177,107.972656 5109.83914,107.972656 C5109.83914,108.110026 5109.83914,108.178711 5109.83914,108.178711 C5109.83914,108.316081 5109.83914,108.453451 5109.83914,108.59082 Z M5112.72391,104.263672 C5112.72391,105.087891 5112.44917,105.843424 5111.89969,106.530273 C5111.35021,107.217122 5110.66336,107.697917 5109.83914,107.972656 C5109.83914,107.835286 5109.83914,107.629232 5109.83914,107.354492 C5110.52599,107.217122 5111.07547,106.805013 5111.48758,106.118164 C5111.89969,105.568685 5112.10574,104.950521 5112.10574,104.263672 C5112.10574,104.401042 5112.10574,104.538411 5112.10574,104.675781 C5112.10574,104.675781 5112.10574,104.675781 5112.10574,104.675781 C5112.10574,104.675781 5112.10574,104.607096 5112.10574,104.469727 C5112.10574,104.469727 5112.10574,104.401042 5112.10574,104.263672 C5112.10574,103.988932 5112.10574,103.851562 5112.10574,103.851562 C5112.10574,103.714193 5112.10574,103.645508 5112.10574,103.645508 C5112.10574,103.645508 5112.10574,103.714193 5112.10574,103.851562 C5112.10574,103.851562 5112.10574,103.988932 5112.10574,104.263672 C5112.10574,103.302083 5111.831,102.477865 5111.28152,101.791016 C5110.59467,101.104167 5109.77046,100.760742 5108.80887,100.760742 C5107.84728,100.760742 5107.02306,101.104167 5106.33621,101.791016 C5105.64936,102.477865 5105.30594,103.302083 5105.30594,104.263672 C5105.30594,104.950521 5105.51199,105.568685 5105.9241,106.118164 C5106.47358,106.805013 5107.09174,107.217122 5107.77859,107.354492 C5107.77859,107.491862 5107.77859,107.697917 5107.77859,107.972656 C5106.95438,107.697917 5106.26753,107.217122 5105.71805,106.530273 C5105.16857,105.843424 5104.89383,105.087891 5104.89383,104.263672 C5104.89383,103.164714 5105.23725,102.203125 5105.9241,101.378906 C5106.74832,100.554688 5107.70991,100.142578 5108.80887,100.142578 C5109.90783,100.142578 5110.80073,100.554688 5111.48758,101.378906 C5112.3118,102.203125 5112.72391,103.164714 5112.72391,104.263672 Z M5108.80887,107.560547 C5108.94624,107.560547 5109.08361,107.560547 5109.22098,107.560547 C5109.49572,107.560547 5109.70177,107.491862 5109.83914,107.354492 C5109.83914,107.491862 5109.83914,107.697917 5109.83914,107.972656 C5109.70177,107.972656 5109.49572,108.041341 5109.22098,108.178711 C5109.08361,108.178711 5108.94624,108.178711 5108.80887,108.178711 C5108.53413,108.178711 5108.32807,108.178711 5108.1907,108.178711 C5108.05333,108.041341 5107.91596,107.972656 5107.77859,107.972656 C5107.77859,107.835286 5107.77859,107.629232 5107.77859,107.354492 C5107.91596,107.491862 5108.05333,107.560547 5108.1907,107.560547 C5108.32807,107.560547 5108.53413,107.560547 5108.80887,107.560547 Z M5109.83914,132.081055 C5109.83914,131.531576 5109.83914,130.844727 5109.83914,130.020508 C5110.25125,130.020508 5110.9381,130.020508 5111.89969,130.020508 C5111.21284,132.493164 5110.18257,136.270833 5108.80887,141.353516 C5108.12202,138.880859 5107.09174,135.10319 5105.71805,130.020508 C5106.13016,130.020508 5106.81701,130.020508 5107.77859,130.020508 C5107.77859,130.432617 5107.77859,131.119466 5107.77859,132.081055 C5108.1907,132.081055 5108.87755,132.081055 5109.83914,132.081055 Z M5107.77859,130.020508 C5108.1907,130.020508 5108.87755,130.020508 5109.83914,130.020508 C5109.83914,130.432617 5109.83914,131.119466 5109.83914,132.081055 C5109.42703,132.081055 5108.74018,132.081055 5107.77859,132.081055 C5107.77859,131.531576 5107.77859,130.844727 5107.77859,130.020508 Z M5137.24441,46.9804688 C5137.38178,47.1178385 5137.51915,47.1865234 5137.65652,47.1865234 C5137.79389,47.3238932 5137.93126,47.461263 5138.06863,47.5986328 C5138.206,47.7360026 5138.41206,47.8046875 5138.6868,47.8046875 C5138.82417,47.8046875 5138.96154,47.8733724 5139.09891,48.0107422 C5136.07677,53.3681641 5131.47488,61.4729818 5125.29324,72.3251953 C5125.0185,72.0504557 5124.46902,71.7070312 5123.6448,71.2949219 C5125.84272,67.1738281 5128.10932,63.1214193 5130.44461,59.1376953 C5132.7799,55.0166016 5135.0465,50.9641927 5137.24441,46.9804688 Z M5142.60184,39.7685547 C5143.70079,40.3180339 5144.38764,41.2109375 5144.66238,42.4472656 C5144.93712,43.6835938 5144.79975,44.7825521 5144.25027,45.7441406 C5143.70079,46.7057292 5142.94526,47.3925781 5141.98367,47.8046875 C5141.02208,48.2167969 5140.06049,48.2854818 5139.09891,48.0107422 C5139.09891,47.8733724 5139.16759,47.6673177 5139.30496,47.3925781 C5140.26655,47.6673177 5141.15945,47.5986328 5141.98367,47.1865234 C5142.80789,46.9117839 5143.42605,46.3623047 5143.83816,45.5380859 C5144.38764,44.5764974 5144.45633,43.6149089 5144.04422,42.6533203 C5143.76948,41.554362 5143.15132,40.7301432 5142.18973,40.1806641 C5141.36551,39.6311849 5140.40392,39.4938151 5139.30496,39.7685547 C5138.206,40.0432943 5137.38178,40.6614583 5136.8323,41.6230469 C5136.4202,42.4472656 5136.28283,43.3401693 5136.4202,44.3017578 C5136.55757,45.1259766 5136.90099,45.8128255 5137.45047,46.3623047 C5137.45047,46.4996745 5137.38178,46.7057292 5137.24441,46.9804688 C5136.55757,46.2936198 5136.07677,45.4007161 5135.80203,44.3017578 C5135.66466,43.3401693 5135.87072,42.3785807 5136.4202,41.4169922 C5136.96967,40.3180339 5137.86258,39.6311849 5139.09891,39.3564453 C5140.33523,38.9443359 5141.50288,39.0817057 5142.60184,39.7685547 Z M5138.48074,47.1865234 C5138.61811,47.1865234 5138.75548,47.2552083 5138.89285,47.3925781 C5139.03022,47.3925781 5139.16759,47.461263 5139.30496,47.5986328 C5139.30496,47.5986328 5139.23628,47.7360026 5139.09891,48.0107422 C5138.96154,47.8733724 5138.82417,47.8046875 5138.6868,47.8046875 C5138.41206,47.8046875 5138.206,47.7360026 5138.06863,47.5986328 C5137.93126,47.461263 5137.79389,47.3238932 5137.65652,47.1865234 C5137.51915,47.1865234 5137.38178,47.1178385 5137.24441,46.9804688 C5137.38178,46.843099 5137.45047,46.6370443 5137.45047,46.3623047 C5137.58784,46.4996745 5137.72521,46.6370443 5137.86258,46.7744141 C5137.99995,46.9117839 5138.206,47.0491536 5138.48074,47.1865234 Z M5137.24441,42.0351562 C5136.96967,42.7220052 5136.8323,43.4088542 5136.8323,44.0957031 C5136.96967,44.7825521 5137.3131,45.4007161 5137.86258,45.9501953 C5137.72521,46.0875651 5137.58784,46.2936198 5137.45047,46.5683594 C5136.90099,45.8815104 5136.55757,45.1259766 5136.4202,44.3017578 C5136.28283,43.3401693 5136.4202,42.5159505 5136.8323,41.8291016 C5137.38178,40.867513 5138.206,40.1806641 5139.30496,39.7685547 C5140.40392,39.4938151 5141.36551,39.6311849 5142.18973,40.1806641 C5143.15132,40.7301432 5143.83816,41.554362 5144.25027,42.6533203 C5144.52501,43.6149089 5144.38764,44.5764974 5143.83816,45.5380859 C5143.28868,46.3623047 5142.67052,46.9804687 5141.98367,47.3925781 C5141.15945,47.6673177 5140.26655,47.7360026 5139.30496,47.5986328 C5139.44233,47.461263 5139.5797,47.2552083 5139.71707,46.9804687 C5140.40392,47.1178385 5141.09077,47.0491536 5141.77762,46.7744141 C5142.46447,46.4996745 5143.01395,46.0188802 5143.42605,45.3320312 C5143.42605,45.1946615 5143.42605,45.1259766 5143.42605,45.1259766 C5143.56342,44.9886068 5143.63211,44.9199219 5143.63211,44.9199219 C5143.63211,44.9199219 5143.63211,44.9199219 5143.63211,44.9199219 C5143.63211,44.9199219 5143.63211,44.9199219 5143.63211,44.9199219 C5143.63211,44.9199219 5143.63211,44.9199219 5143.63211,44.9199219 C5143.63211,44.9199219 5143.63211,44.9199219 5143.63211,44.9199219 C5143.63211,44.9199219 5143.56342,44.9886068 5143.42605,45.1259766 C5143.42605,45.1259766 5143.42605,45.1946615 5143.42605,45.3320312 C5143.83816,44.5078125 5143.90685,43.6149089 5143.63211,42.6533203 C5143.35737,41.8291016 5142.80789,41.1422526 5141.98367,40.5927734 C5141.15945,40.1806641 5140.33523,40.1119792 5139.51102,40.3867187 C5138.54943,40.6614583 5137.79389,41.2109375 5137.24441,42.0351562 Z M5143.42605,45.3320312 C5143.42605,45.1946615 5143.42605,45.1259766 5143.42605,45.1259766 C5143.56342,44.9886068 5143.63211,44.9199219 5143.63211,44.9199219 C5143.63211,44.9199219 5143.56342,44.9886068 5143.42605,45.1259766 C5143.42605,45.1259766 5143.42605,45.1946615 5143.42605,45.3320312 Z M5138.48074,47.1865234 C5138.206,47.0491536 5137.99995,46.9117839 5137.86258,46.7744141 C5137.72521,46.6370443 5137.58784,46.4996745 5137.45047,46.3623047 C5137.58784,46.3623047 5137.72521,46.2249349 5137.86258,45.9501953 C5137.99995,46.0875651 5138.13732,46.2249349 5138.27469,46.3623047 C5138.41206,46.4996745 5138.54943,46.5683594 5138.6868,46.5683594 C5138.82417,46.7057292 5138.96154,46.843099 5139.09891,46.9804688 C5139.23628,46.9804688 5139.44233,46.9804688 5139.71707,46.9804688 C5139.5797,47.1178385 5139.44233,47.3238932 5139.30496,47.5986328 C5139.16759,47.461263 5139.03022,47.3925781 5138.89285,47.3925781 C5138.75548,47.2552083 5138.61811,47.1865234 5138.48074,47.1865234 Z M5124.26297,74.1796875 C5124.53771,73.7675781 5124.88113,73.1494141 5125.29324,72.3251953 C5125.70535,72.5999349 5126.32352,72.9433594 5127.14773,73.3554688 C5125.36193,75.141276 5122.61453,77.9573568 5118.90555,81.8037109 C5119.5924,79.1936849 5120.55398,75.3473307 5121.79031,70.2646484 C5122.20242,70.539388 5122.82059,70.8828125 5123.6448,71.2949219 C5123.37007,71.7070312 5123.02664,72.3251953 5122.61453,73.1494141 C5123.02664,73.2867839 5123.57612,73.6302083 5124.26297,74.1796875 Z M5122.61453,73.1494141 C5122.7519,72.7373047 5123.02664,72.1191406 5123.43875,71.2949219 C5123.85086,71.5696615 5124.46902,71.9130859 5125.29324,72.3251953 C5125.15587,72.7373047 5124.81245,73.3554688 5124.26297,74.1796875 C5123.85086,73.9049479 5123.30138,73.5615234 5122.61453,73.1494141 Z M5046.58035,47.5986328 C5046.44298,47.7360026 5046.23693,47.8046875 5045.96219,47.8046875 C5045.82482,47.8046875 5045.68745,47.8733724 5045.55008,48.0107422 C5048.70958,53.6429036 5053.44884,62.0911458 5059.76785,73.3554688 C5060.17996,73.0807292 5060.79813,72.7373047 5061.62234,72.3251953 C5058.46284,66.6930339 5053.72358,58.2447917 5047.40457,46.9804688 C5047.2672,47.1178385 5047.12983,47.1865234 5046.99246,47.1865234 C5046.85509,47.3238932 5046.71772,47.461263 5046.58035,47.5986328 Z M5063.47684,71.2949219 C5064.02632,73.7675781 5064.9879,77.6139323 5066.3616,82.8339844 C5064.43842,80.9108073 5061.69103,78.0260417 5058.11941,74.1796875 C5058.39415,74.0423177 5058.94363,73.7675781 5059.76785,73.3554688 C5060.04259,73.7675781 5060.38602,74.3857422 5060.79813,75.2099609 C5061.21023,74.9352214 5061.8284,74.5917969 5062.65262,74.1796875 C5062.37788,73.7675781 5062.03445,73.1494141 5061.62234,72.3251953 C5062.03445,72.0504557 5062.65262,71.7070312 5063.47684,71.2949219 Z M5060.79813,75.0039062 C5061.21023,74.8665365 5061.8284,74.523112 5062.65262,73.9736328 C5062.37788,73.5615234 5062.03445,73.0120443 5061.62234,72.3251953 C5061.21023,72.4625651 5060.59207,72.8059896 5059.76785,73.3554688 C5060.04259,73.7675781 5060.38602,74.3170573 5060.79813,75.0039062 Z M5040.81082,45.5380859 C5041.22293,46.3623047 5041.84109,46.9117839 5042.66531,47.1865234 C5043.48953,47.5986328 5044.38243,47.6673177 5045.34402,47.3925781 C5045.34402,47.5299479 5045.41271,47.7360026 5045.55008,48.0107422 C5044.58849,48.2854818 5043.6269,48.2167969 5042.66531,47.8046875 C5041.70372,47.3925781 5040.94819,46.7744141 5040.39871,45.9501953 C5039.84923,44.851237 5039.71186,43.6835938 5039.9866,42.4472656 C5040.26134,41.2109375 5040.94819,40.3180339 5042.04715,39.7685547 C5043.14611,39.0817057 5044.31375,38.9443359 5045.55008,39.3564453 C5046.78641,39.6311849 5047.67931,40.3180339 5048.22879,41.4169922 C5048.77827,42.3785807 5048.91564,43.3401693 5048.6409,44.3017578 C5048.50353,45.4007161 5048.09142,46.2936198 5047.40457,46.9804688 C5047.2672,46.843099 5047.12983,46.6370443 5046.99246,46.3623047 C5047.67931,45.8128255 5048.09142,45.1259766 5048.22879,44.3017578 C5048.36616,43.3401693 5048.22879,42.4472656 5047.81668,41.6230469 C5047.2672,40.6614583 5046.44298,40.0432943 5045.34402,39.7685547 C5044.24507,39.4938151 5043.28348,39.6311849 5042.45926,40.1806641 C5041.49767,40.7301432 5040.81082,41.554362 5040.39871,42.6533203 C5040.12397,43.6149089 5040.26134,44.5764974 5040.81082,45.5380859 Z M5046.99246,46.3623047 C5046.99246,46.4996745 5046.92378,46.6370443 5046.78641,46.7744141 C5046.64904,46.9117839 5046.44298,47.0491536 5046.16824,47.1865234 C5046.03087,47.1865234 5045.8935,47.2552083 5045.75613,47.3925781 C5045.61876,47.3925781 5045.48139,47.3925781 5045.34402,47.3925781 C5045.34402,47.5299479 5045.41271,47.7360026 5045.55008,48.0107422 C5045.68745,47.8733724 5045.82482,47.8046875 5045.96219,47.8046875 C5046.23693,47.8046875 5046.44298,47.7360026 5046.58035,47.5986328 C5046.71772,47.461263 5046.85509,47.3238932 5046.99246,47.1865234 C5047.12983,47.1865234 5047.2672,47.1178385 5047.40457,46.9804688 C5047.2672,46.843099 5047.19852,46.7744141 5047.19852,46.7744141 C5047.19852,46.6370443 5047.12983,46.4996745 5046.99246,46.3623047 Z M5047.81668,41.6230469 C5048.22879,42.4472656 5048.36616,43.3401693 5048.22879,44.3017578 C5048.09142,45.1259766 5047.67931,45.8128255 5046.99246,46.3623047 C5046.99246,46.3623047 5046.92378,46.2249349 5046.78641,45.9501953 C5047.33589,45.4007161 5047.67931,44.7825521 5047.81668,44.0957031 C5047.81668,43.4088542 5047.67931,42.7220052 5047.40457,42.0351562 C5046.85509,41.2109375 5046.09956,40.6614583 5045.13797,40.3867187 C5044.31375,40.1119792 5043.48953,40.1806641 5042.66531,40.5927734 C5041.84109,41.1422526 5041.29161,41.8291016 5041.01688,42.6533203 C5040.74214,43.6149089 5040.81082,44.5078125 5041.22293,45.3320312 C5041.22293,45.1946615 5041.22293,45.1259766 5041.22293,45.1259766 C5041.08556,44.9886068 5041.01688,44.9199219 5041.01688,44.9199219 C5041.01688,44.9199219 5041.01688,44.9199219 5041.01688,44.9199219 C5041.01688,44.9199219 5041.01688,44.9199219 5041.01688,44.9199219 C5041.01688,44.9199219 5041.01688,44.9199219 5041.01688,44.9199219 C5041.01688,44.9199219 5041.01688,44.9199219 5041.01688,44.9199219 C5041.01688,44.9199219 5041.08556,44.9886068 5041.22293,45.1259766 C5041.22293,45.1259766 5041.22293,45.1946615 5041.22293,45.3320312 C5041.63504,46.0188802 5042.18452,46.4996745 5042.87137,46.7744141 C5043.55822,47.0491536 5044.24507,47.1178385 5044.93191,46.9804687 C5045.06928,47.1178385 5045.20665,47.2552083 5045.34402,47.3925781 C5044.38243,47.6673177 5043.48953,47.5986328 5042.66531,47.1865234 C5041.84109,46.9117839 5041.22293,46.3623047 5040.81082,45.5380859 C5040.26134,44.5764974 5040.12397,43.6149089 5040.39871,42.6533203 C5040.81082,41.554362 5041.49767,40.7301432 5042.45926,40.1806641 C5043.28348,39.6311849 5044.24507,39.4938151 5045.34402,39.7685547 C5046.44298,40.0432943 5047.2672,40.6614583 5047.81668,41.6230469 Z M5044.93191,46.9804688 C5045.06928,47.1178385 5045.20665,47.3238932 5045.34402,47.5986328 C5045.48139,47.461263 5045.61876,47.3925781 5045.75613,47.3925781 C5045.8935,47.2552083 5046.03087,47.1865234 5046.16824,47.1865234 C5046.44298,47.0491536 5046.64904,46.9117839 5046.78641,46.7744141 C5046.92378,46.6370443 5046.99246,46.4996745 5046.99246,46.3623047 C5046.99246,46.3623047 5046.92378,46.2249349 5046.78641,45.9501953 C5046.64904,46.0875651 5046.51167,46.2249349 5046.3743,46.3623047 C5046.23693,46.4996745 5046.09956,46.5683594 5045.96219,46.5683594 C5045.82482,46.7057292 5045.68745,46.7744141 5045.55008,46.7744141 C5045.41271,46.9117839 5045.20665,46.9804688 5044.93191,46.9804688 Z M5032.36258,31.9384766 C5032.36258,31.9384766 5032.43126,31.9384766 5032.56863,31.9384766 C5032.56863,32.0758464 5032.56863,32.1445312 5032.56863,32.1445312 C5032.706,32.281901 5032.77469,32.3505859 5032.77469,32.3505859 C5032.77469,32.4879557 5032.77469,32.6253255 5032.77469,32.7626953 C5032.77469,34.4111328 5032.77469,36.5403646 5032.77469,39.1503906 C5032.77469,41.6230469 5032.77469,44.5764974 5032.77469,48.0107422 C5032.77469,48.148112 5032.77469,48.2167969 5032.77469,48.2167969 C5032.77469,48.3541667 5032.706,48.4915365 5032.56863,48.6289062 C5032.43126,48.766276 5032.29389,48.8349609 5032.15652,48.8349609 C5032.15652,48.8349609 5032.08784,48.8349609 5031.95047,48.8349609 C5031.8131,48.8349609 5031.67573,48.8349609 5031.53836,48.8349609 C5031.40099,48.8349609 5031.3323,48.766276 5031.3323,48.6289062 C5031.19493,48.4915365 5031.12625,48.4228516 5031.12625,48.4228516 C5031.12625,48.2854818 5031.12625,48.148112 5031.12625,48.0107422 C5031.12625,46.4996745 5031.12625,44.6451823 5031.12625,42.4472656 C5031.12625,40.249349 5031.12625,37.7080078 5031.12625,34.8232422 C5030.98888,34.960612 5030.85151,35.0292969 5030.71414,35.0292969 C5030.57677,35.1666667 5030.4394,35.3040365 5030.30203,35.4414062 C5030.30203,35.578776 5030.23335,35.6474609 5030.09598,35.6474609 C5029.95861,35.6474609 5029.88992,35.6474609 5029.88992,35.6474609 C5029.75255,35.6474609 5029.61518,35.6474609 5029.47781,35.6474609 C5029.34044,35.6474609 5029.20307,35.578776 5029.0657,35.4414062 C5029.0657,35.4414062 5028.99702,35.3727214 5028.85965,35.2353516 C5028.85965,35.0979818 5028.85965,34.960612 5028.85965,34.8232422 C5028.85965,34.6858724 5028.85965,34.5485026 5028.85965,34.4111328 C5028.99702,34.4111328 5029.0657,34.3424479 5029.0657,34.2050781 C5029.34044,33.9303385 5029.68387,33.655599 5030.09598,33.3808594 C5030.37072,32.96875 5030.78283,32.5566406 5031.3323,32.1445312 C5031.3323,32.0071615 5031.40099,31.9384766 5031.53836,31.9384766 C5031.67573,31.9384766 5031.74441,31.8697917 5031.74441,31.7324219 C5031.74441,31.7324219 5031.8131,31.7324219 5031.95047,31.7324219 C5031.95047,31.7324219 5031.95047,31.7324219 5031.95047,31.7324219 C5031.95047,31.7324219 5032.01915,31.7324219 5032.15652,31.7324219 C5032.15652,31.8697917 5032.22521,31.9384766 5032.36258,31.9384766 Z M5158.88016,49.453125 C5159.01753,49.453125 5159.08621,49.453125 5159.08621,49.453125 C5159.22358,49.453125 5159.36095,49.5218099 5159.49832,49.6591797 C5159.49832,49.7965495 5159.56701,49.9339193 5159.70438,50.0712891 C5159.70438,50.0712891 5159.70438,50.139974 5159.70438,50.2773438 C5159.70438,50.4147135 5159.70438,50.5520833 5159.70438,50.6894531 C5159.56701,50.8268229 5159.49832,50.8955078 5159.49832,50.8955078 C5159.36095,51.0328776 5159.22358,51.1015625 5159.08621,51.1015625 C5159.08621,51.2389323 5159.01753,51.3076172 5158.88016,51.3076172 C5158.05594,51.3076172 5157.3004,51.3076172 5156.61355,51.3076172 C5155.92671,51.3076172 5155.23986,51.3076172 5154.55301,51.3076172 C5153.86616,51.3076172 5153.11063,51.3076172 5152.28641,51.3076172 C5151.59956,51.3076172 5150.91271,51.3076172 5150.22586,51.3076172 C5150.08849,51.3076172 5150.0198,51.2389323 5150.0198,51.1015625 C5150.0198,51.1015625 5149.95112,51.1015625 5149.81375,51.1015625 C5149.81375,51.1015625 5149.74507,51.1015625 5149.6077,51.1015625 C5149.6077,51.1015625 5149.6077,51.0328776 5149.6077,50.8955078 C5149.47033,50.8955078 5149.40164,50.8268229 5149.40164,50.6894531 C5149.40164,50.6894531 5149.40164,50.6894531 5149.40164,50.6894531 C5149.40164,50.5520833 5149.40164,50.4833984 5149.40164,50.4833984 C5149.40164,50.4833984 5149.40164,50.4147135 5149.40164,50.2773438 C5149.40164,50.2773438 5149.40164,50.2773438 5149.40164,50.2773438 C5149.40164,50.2773438 5149.40164,50.2773438 5149.40164,50.2773438 C5149.40164,50.2773438 5149.40164,50.139974 5149.40164,49.8652344 C5149.40164,49.5904948 5149.47033,49.2470703 5149.6077,48.8349609 C5149.74507,48.4228516 5149.88243,48.0107422 5150.0198,47.5986328 C5150.29454,47.1865234 5150.56928,46.7057292 5150.84402,46.15625 C5150.98139,45.8815104 5151.18745,45.6067708 5151.46219,45.3320312 C5151.73693,45.0572917 5152.01167,44.7825521 5152.28641,44.5078125 C5152.56115,44.2330729 5152.83589,43.9583333 5153.11063,43.6835938 C5153.38536,43.4088542 5153.72879,43.1341146 5154.1409,42.859375 C5154.96512,42.4472656 5155.58328,42.0351562 5155.99539,41.6230469 C5156.54487,41.2109375 5156.88829,40.7988281 5157.02566,40.3867188 C5157.3004,40.1119792 5157.43777,39.7685547 5157.43777,39.3564453 C5157.57514,39.0817057 5157.64383,38.8069661 5157.64383,38.5322266 C5157.64383,38.3948568 5157.64383,38.3261719 5157.64383,38.3261719 C5157.64383,38.1888021 5157.64383,38.0514323 5157.64383,37.9140625 C5157.64383,37.9140625 5157.64383,37.8453776 5157.64383,37.7080078 C5157.50646,37.570638 5157.43777,37.4332682 5157.43777,37.2958984 C5157.43777,37.1585286 5157.3004,37.0211589 5157.02566,36.8837891 C5156.88829,36.7464193 5156.75092,36.5403646 5156.61355,36.265625 C5156.33882,36.1282552 5156.06408,36.0595703 5155.78934,36.0595703 C5155.37723,35.9222005 5154.96512,35.8535156 5154.55301,35.8535156 C5154.1409,35.8535156 5153.79747,35.9222005 5153.52273,36.0595703 C5153.24799,36.0595703 5153.04194,36.1282552 5152.90457,36.265625 C5152.62983,36.4029948 5152.35509,36.6090495 5152.08035,36.8837891 C5151.94298,37.1585286 5151.80561,37.4332682 5151.66824,37.7080078 C5151.66824,37.8453776 5151.59956,37.9140625 5151.46219,37.9140625 C5151.46219,38.0514323 5151.3935,38.1201172 5151.25613,38.1201172 C5151.11876,38.1201172 5150.98139,38.1201172 5150.84402,38.1201172 C5150.70665,38.1201172 5150.56928,38.1201172 5150.43191,38.1201172 C5150.43191,37.9827474 5150.36323,37.9140625 5150.22586,37.9140625 C5150.08849,37.7766927 5150.0198,37.6393229 5150.0198,37.5019531 C5150.0198,37.5019531 5150.0198,37.4332682 5150.0198,37.2958984 C5150.0198,37.1585286 5150.0198,37.0211589 5150.0198,36.8837891 C5150.29454,36.4716797 5150.56928,36.0595703 5150.84402,35.6474609 C5151.11876,35.3727214 5151.46219,35.0979818 5151.8743,34.8232422 C5152.28641,34.5485026 5152.69852,34.4111328 5153.11063,34.4111328 C5153.52273,34.273763 5154.00353,34.2050781 5154.55301,34.2050781 C5155.5146,34.2050781 5156.27013,34.273763 5156.81961,34.4111328 C5157.50646,34.6858724 5158.05594,35.0979818 5158.46805,35.6474609 C5158.74279,36.0595703 5159.01753,36.5403646 5159.29227,37.0898438 C5159.42964,37.5019531 5159.49832,37.9827474 5159.49832,38.5322266 C5159.49832,39.0817057 5159.42964,39.6311849 5159.29227,40.1806641 C5159.01753,40.7301432 5158.74279,41.2109375 5158.46805,41.6230469 C5158.05594,42.0351562 5157.57514,42.5159505 5157.02566,43.0654297 C5156.47618,43.4775391 5155.85802,43.9583333 5155.17117,44.5078125 C5154.48432,44.9199219 5153.93484,45.3320312 5153.52273,45.7441406 C5153.11063,46.15625 5152.7672,46.5683594 5152.49246,46.9804688 C5152.21772,47.5299479 5151.94298,48.0107422 5151.66824,48.4228516 C5151.53087,48.8349609 5151.3935,49.1783854 5151.25613,49.453125 C5152.08035,49.453125 5153.11063,49.453125 5154.34695,49.453125 C5155.72065,49.453125 5157.23172,49.453125 5158.88016,49.453125 Z M5120.76004,110.033203 C5121.17215,110.033203 5121.58426,110.101888 5121.99637,110.239258 C5122.27111,110.239258 5122.61453,110.307943 5123.02664,110.445312 C5123.16401,110.582682 5123.30138,110.651367 5123.43875,110.651367 C5123.71349,110.788737 5123.91954,110.926107 5124.05691,111.063477 C5123.6448,111.338216 5123.16401,111.544271 5122.61453,111.681641 C5122.06505,111.81901 5121.51557,111.887695 5120.96609,111.887695 C5120.82872,111.887695 5120.69135,111.887695 5120.55398,111.887695 C5120.41661,111.750326 5120.34793,111.612956 5120.34793,111.475586 C5120.21056,111.475586 5120.14188,111.406901 5120.14188,111.269531 C5120.00451,111.132161 5119.93582,111.063477 5119.93582,111.063477 C5119.93582,110.926107 5120.00451,110.788737 5120.14188,110.651367 C5120.14188,110.513997 5120.21056,110.376628 5120.34793,110.239258 C5120.34793,110.239258 5120.41661,110.239258 5120.55398,110.239258 C5120.69135,110.101888 5120.76004,110.033203 5120.76004,110.033203 Z M5120.34793,111.681641 C5120.34793,111.681641 5120.41661,111.750326 5120.55398,111.887695 C5120.69135,111.887695 5120.82872,111.887695 5120.96609,111.887695 C5121.51557,111.887695 5122.06505,111.81901 5122.61453,111.681641 C5123.16401,111.544271 5123.6448,111.338216 5124.05691,111.063477 C5124.19428,111.063477 5124.33165,111.132161 5124.46902,111.269531 C5124.60639,111.406901 5124.74376,111.544271 5124.88113,111.681641 C5125.0185,111.81901 5125.15587,112.025065 5125.29324,112.299805 C5125.56798,112.574544 5125.77404,112.849284 5125.91141,113.124023 C5125.91141,113.398763 5125.98009,113.742188 5126.11746,114.154297 C5126.11746,114.429036 5126.11746,114.772461 5126.11746,115.18457 C5126.11746,115.871419 5125.98009,116.558268 5125.70535,117.245117 C5125.43061,117.794596 5125.08719,118.275391 5124.67508,118.6875 C5124.1256,119.236979 5123.50743,119.649089 5122.82059,119.923828 C5122.13374,120.061198 5121.3782,120.129883 5120.55398,120.129883 C5120.14188,120.129883 5119.66108,120.129883 5119.1116,120.129883 C5118.69949,119.992513 5118.28738,119.786458 5117.87527,119.511719 C5117.46316,119.374349 5117.11974,119.099609 5116.845,118.6875 C5116.43289,118.41276 5116.15815,118.069336 5116.02078,117.657227 C5115.88341,117.657227 5115.81473,117.588542 5115.81473,117.451172 C5115.81473,117.451172 5115.81473,117.382487 5115.81473,117.245117 C5115.81473,117.245117 5115.81473,117.245117 5115.81473,117.245117 C5115.81473,117.107747 5115.81473,117.039062 5115.81473,117.039062 C5115.81473,116.901693 5115.81473,116.833008 5115.81473,116.833008 C5115.9521,116.695638 5116.08947,116.558268 5116.22684,116.420898 C5116.22684,116.420898 5116.29552,116.420898 5116.43289,116.420898 C5116.57026,116.283529 5116.70763,116.283529 5116.845,116.420898 C5116.98237,116.420898 5117.11974,116.420898 5117.25711,116.420898 C5117.25711,116.558268 5117.32579,116.695638 5117.46316,116.833008 C5117.60053,117.107747 5117.80659,117.313802 5118.08133,117.451172 C5118.2187,117.725911 5118.42475,117.931966 5118.69949,118.069336 C5118.97423,118.206706 5119.24897,118.275391 5119.52371,118.275391 C5119.93582,118.41276 5120.27924,118.481445 5120.55398,118.481445 C5120.96609,118.481445 5121.44689,118.41276 5121.99637,118.275391 C5122.40848,118.138021 5122.82059,117.931966 5123.2327,117.657227 C5123.50743,117.382487 5123.78217,117.039062 5124.05691,116.626953 C5124.19428,116.214844 5124.26297,115.734049 5124.26297,115.18457 C5124.26297,114.909831 5124.26297,114.635091 5124.26297,114.360352 C5124.26297,114.222982 5124.19428,114.085612 5124.05691,113.948242 C5124.05691,113.673503 5123.98823,113.467448 5123.85086,113.330078 C5123.71349,113.192708 5123.57612,113.055339 5123.43875,112.917969 C5123.30138,112.780599 5123.16401,112.643229 5123.02664,112.505859 C5122.7519,112.36849 5122.47716,112.23112 5122.20242,112.09375 C5122.06505,112.09375 5121.79031,112.025065 5121.3782,111.887695 C5121.10346,111.887695 5120.82872,111.887695 5120.55398,111.887695 C5120.41661,111.887695 5120.27924,111.887695 5120.14188,111.887695 C5120.14188,111.750326 5120.07319,111.681641 5119.93582,111.681641 C5119.79845,111.544271 5119.72977,111.406901 5119.72977,111.269531 C5119.72977,111.132161 5119.72977,111.063477 5119.72977,111.063477 C5119.72977,110.926107 5119.72977,110.788737 5119.72977,110.651367 C5119.72977,110.513997 5119.79845,110.445312 5119.93582,110.445312 C5119.93582,110.307943 5120.00451,110.239258 5120.14188,110.239258 C5120.27924,110.101888 5120.41661,110.033203 5120.55398,110.033203 C5120.55398,110.033203 5120.62267,110.033203 5120.76004,110.033203 C5120.76004,110.033203 5120.76004,110.033203 5120.76004,110.033203 C5120.76004,110.170573 5120.69135,110.239258 5120.55398,110.239258 C5120.41661,110.239258 5120.34793,110.307943 5120.34793,110.445312 C5120.21056,110.445312 5120.14188,110.513997 5120.14188,110.651367 C5120.00451,110.788737 5119.93582,110.926107 5119.93582,111.063477 C5119.93582,111.063477 5120.00451,111.132161 5120.14188,111.269531 C5120.14188,111.406901 5120.21056,111.544271 5120.34793,111.681641 Z M5126.11746,107.560547 C5126.11746,108.110026 5125.98009,108.659505 5125.70535,109.208984 C5125.43061,109.758464 5125.08719,110.239258 5124.67508,110.651367 C5124.53771,110.651367 5124.40034,110.720052 5124.26297,110.857422 C5124.26297,110.857422 5124.19428,110.926107 5124.05691,111.063477 C5123.91954,110.926107 5123.78217,110.788737 5123.6448,110.651367 C5123.37007,110.651367 5123.16401,110.582682 5123.02664,110.445312 C5122.61453,110.307943 5122.27111,110.239258 5121.99637,110.239258 C5121.58426,110.101888 5121.17215,110.033203 5120.76004,110.033203 C5120.76004,110.033203 5120.82872,110.033203 5120.96609,110.033203 C5120.96609,110.033203 5120.96609,110.033203 5120.96609,110.033203 C5121.3782,110.033203 5121.79031,109.964518 5122.20242,109.827148 C5122.61453,109.689779 5123.02664,109.552409 5123.43875,109.415039 C5123.71349,109.140299 5123.91954,108.796875 5124.05691,108.384766 C5124.19428,108.110026 5124.26297,107.835286 5124.26297,107.560547 C5124.26297,107.285807 5124.26297,107.079753 5124.26297,106.942383 C5124.26297,106.805013 5124.19428,106.667643 5124.05691,106.530273 C5124.05691,106.392904 5123.98823,106.255534 5123.85086,106.118164 C5123.85086,105.980794 5123.78217,105.843424 5123.6448,105.706055 C5123.50743,105.568685 5123.37007,105.5 5123.2327,105.5 C5123.09533,105.36263 5122.95796,105.22526 5122.82059,105.087891 C5122.54585,105.087891 5122.33979,105.019206 5122.20242,104.881836 C5122.06505,104.881836 5121.92768,104.881836 5121.79031,104.881836 C5121.3782,104.881836 5121.03478,104.881836 5120.76004,104.881836 C5120.4853,105.019206 5120.21056,105.087891 5119.93582,105.087891 C5119.79845,105.22526 5119.5924,105.36263 5119.31766,105.5 C5119.18029,105.63737 5118.97423,105.843424 5118.69949,106.118164 C5118.69949,106.118164 5118.63081,106.186849 5118.49344,106.324219 C5118.35607,106.324219 5118.2187,106.324219 5118.08133,106.324219 C5118.08133,106.324219 5118.01264,106.324219 5117.87527,106.324219 C5117.7379,106.324219 5117.60053,106.255534 5117.46316,106.118164 C5117.46316,105.980794 5117.39448,105.912109 5117.25711,105.912109 C5117.25711,105.77474 5117.25711,105.63737 5117.25711,105.5 C5117.25711,105.36263 5117.25711,105.22526 5117.25711,105.087891 C5117.25711,105.087891 5117.32579,105.019206 5117.46316,104.881836 C5117.7379,104.607096 5118.01264,104.332357 5118.28738,104.057617 C5118.56212,103.920247 5118.90555,103.714193 5119.31766,103.439453 C5119.72977,103.302083 5120.07319,103.233398 5120.34793,103.233398 C5120.76004,103.096029 5121.24083,103.027344 5121.79031,103.027344 C5122.06505,103.027344 5122.33979,103.096029 5122.61453,103.233398 C5122.88927,103.233398 5123.16401,103.302083 5123.43875,103.439453 C5123.71349,103.576823 5123.98823,103.714193 5124.26297,103.851562 C5124.53771,104.126302 5124.74376,104.332357 5124.88113,104.469727 C5125.15587,104.744466 5125.36193,104.950521 5125.4993,105.087891 C5125.63667,105.36263 5125.77404,105.63737 5125.91141,105.912109 C5125.91141,106.186849 5125.98009,106.461589 5126.11746,106.736328 C5126.11746,106.873698 5126.11746,107.079753 5126.11746,107.354492 C5126.11746,107.354492 5126.11746,107.354492 5126.11746,107.354492 C5126.11746,107.491862 5126.11746,107.560547 5126.11746,107.560547 Z" transform="translate(-5031.86 -23.734)"/></svg>