<svg xmlns="http://www.w3.org/2000/svg" width="243" height="243" viewBox="0 0 243 243"><path fill="#131313" d="M153.914773,80.5104759 C156.011127,81.4089134 157.508523,82.9063092 158.40696,85.0026634 C159.305398,86.9492779 159.305398,88.9707623 158.40696,91.0671165 C145.379616,123.710346 125.838601,172.750059 99.7839134,238.186257 C99.184955,239.833393 98.1367779,241.106179 96.6393821,242.004616 C95.2917259,242.903054 93.79433,243.352273 92.1471946,243.352273 C91.6979759,243.352273 91.1738873,243.277403 90.574929,243.127663 C90.1257102,242.977924 89.6764915,242.828184 89.2272727,242.678445 C87.1309186,241.929747 85.6335227,240.507221 84.7350852,238.410866 C83.8366477,236.314512 83.7617779,234.218158 84.5104759,232.121804 C90.7995384,216.399148 100.233132,192.890033 112.811257,161.59446 C106.522195,146.021544 97.0886009,122.512429 84.5104759,91.0671165 C83.7617779,89.1205019 83.8366477,87.0990175 84.7350852,85.0026634 C85.6335227,82.9063092 87.1309186,81.4089134 89.2272727,80.5104759 C90.1257102,80.2109967 91.0990175,80.0612571 92.1471946,80.0612571 C93.1953717,80.0612571 94.2435488,80.2858665 95.2917259,80.7350852 C97.38808,81.6335227 98.8854759,83.1309186 99.7839134,85.2272727 C104.57558,97.356179 111.83795,115.474669 121.571023,139.582741 C126.362689,127.603575 133.625059,109.485085 143.358132,85.2272727 C144.10683,83.1309186 145.529356,81.6335227 147.62571,80.7350852 C149.722064,79.8366477 151.818419,79.7617779 153.914773,80.5104759 Z M162.769531,104.31907 C162.919271,104.468809 163.14388,104.618549 163.443359,104.768288 C163.593099,104.768288 163.742839,104.843158 163.892578,104.992898 C164.042318,104.992898 164.192057,105.067768 164.341797,105.217507 C164.641276,105.217507 164.865885,105.217507 165.015625,105.217507 C161.721354,113.602924 156.705078,126.181049 149.966797,142.951882 C149.517578,142.652403 148.84375,142.352924 147.945312,142.053445 C150.341146,135.764382 152.811849,129.47532 155.357422,123.186257 C157.902995,116.897195 160.373698,110.608132 162.769531,104.31907 Z M167.486328,95.7839134 C168.684245,96.3828717 169.582682,97.2813092 170.181641,98.4792259 C170.780599,99.6771425 170.780599,100.949929 170.181641,102.297585 C169.732422,103.345762 169.058594,104.09446 168.160156,104.543679 C167.111979,105.142637 166.063802,105.367247 165.015625,105.217507 C165.015625,105.067768 165.090495,104.918028 165.240234,104.768288 C166.138672,104.768288 167.037109,104.543679 167.935547,104.09446 C168.684245,103.645241 169.283203,102.971413 169.732422,102.072976 C170.181641,100.875059 170.181641,99.7520123 169.732422,98.7038352 C169.283203,97.6556581 168.459635,96.9069602 167.261719,96.4577415 C166.213542,96.0085227 165.090495,96.0085227 163.892578,96.4577415 C162.844401,96.9069602 162.095703,97.6556581 161.646484,98.7038352 C161.347005,99.7520123 161.347005,100.72532 161.646484,101.623757 C161.796224,102.522195 162.245443,103.270893 162.994141,103.869851 C162.994141,104.01959 162.919271,104.16933 162.769531,104.31907 C161.871094,103.720111 161.272135,102.896544 160.972656,101.848366 C160.673177,100.800189 160.748047,99.6771425 161.197266,98.4792259 C161.646484,97.2813092 162.470052,96.4577415 163.667969,96.0085227 C165.015625,95.4095644 166.288411,95.3346946 167.486328,95.7839134 Z M161.421875,98.0300071 C161.421875,98.0300071 161.347005,98.1048769 161.197266,98.2546165 C161.197266,98.2546165 161.197266,98.3294863 161.197266,98.4792259 C161.197266,98.4792259 161.197266,98.4043561 161.197266,98.2546165 C161.347005,98.1048769 161.421875,98.0300071 161.421875,98.0300071 Z M160.972656,99.153054 C160.972656,99.153054 160.972656,99.0781842 160.972656,98.9284446 C160.972656,98.778705 161.047526,98.6289654 161.197266,98.4792259 C161.047526,98.6289654 160.972656,98.778705 160.972656,98.9284446 C160.972656,99.0781842 160.972656,99.153054 160.972656,99.153054 Z M164.117188,104.31907 C164.266927,104.468809 164.416667,104.543679 164.566406,104.543679 C164.865885,104.543679 165.090495,104.618549 165.240234,104.768288 C165.240234,104.768288 165.165365,104.918028 165.015625,105.217507 C164.865885,105.217507 164.641276,105.217507 164.341797,105.217507 C164.192057,105.067768 164.042318,104.992898 163.892578,104.992898 C163.742839,104.843158 163.518229,104.768288 163.21875,104.768288 C163.06901,104.618549 162.919271,104.468809 162.769531,104.31907 C162.919271,104.16933 162.994141,104.01959 162.994141,103.869851 C163.14388,103.869851 163.36849,103.944721 163.667969,104.09446 C163.817708,104.2442 163.967448,104.31907 164.117188,104.31907 Z M162.320312,98.9284446 C161.871094,99.8268821 161.796224,100.65045 162.095703,101.399148 C162.245443,102.147846 162.619792,102.746804 163.21875,103.196023 C163.21875,103.345762 163.14388,103.570372 162.994141,103.869851 C162.245443,103.270893 161.796224,102.522195 161.646484,101.623757 C161.347005,100.72532 161.347005,99.7520123 161.646484,98.7038352 C162.095703,97.6556581 162.844401,96.9069602 163.892578,96.4577415 C165.090495,96.0085227 166.213542,96.0085227 167.261719,96.4577415 C168.459635,96.9069602 169.283203,97.6556581 169.732422,98.7038352 C170.181641,99.7520123 170.181641,100.875059 169.732422,102.072976 C169.283203,102.971413 168.684245,103.645241 167.935547,104.09446 C167.037109,104.543679 166.138672,104.768288 165.240234,104.768288 C165.240234,104.618549 165.315104,104.393939 165.464844,104.09446 C166.213542,104.09446 166.96224,103.944721 167.710938,103.645241 C168.459635,103.196023 168.983724,102.597064 169.283203,101.848366 C169.283203,101.848366 169.208333,101.848366 169.058594,101.848366 C169.058594,101.998106 169.058594,102.072976 169.058594,102.072976 C169.058594,102.072976 169.058594,101.998106 169.058594,101.848366 C169.058594,101.848366 169.133464,101.848366 169.283203,101.848366 C169.582682,100.800189 169.507812,99.8268821 169.058594,98.9284446 C168.759115,98.0300071 168.085286,97.356179 167.037109,96.9069602 C166.138672,96.4577415 165.165365,96.4577415 164.117188,96.9069602 C163.21875,97.356179 162.619792,98.0300071 162.320312,98.9284446 Z M165.240234,104.768288 C165.090495,104.618549 164.865885,104.543679 164.566406,104.543679 C164.416667,104.543679 164.266927,104.468809 164.117188,104.31907 C163.967448,104.31907 163.817708,104.2442 163.667969,104.09446 C163.36849,104.09446 163.14388,104.01959 162.994141,103.869851 C163.14388,103.720111 163.21875,103.495502 163.21875,103.196023 C163.36849,103.345762 163.593099,103.495502 163.892578,103.645241 C164.042318,103.794981 164.192057,103.869851 164.341797,103.869851 C164.491536,104.01959 164.641276,104.09446 164.791016,104.09446 C165.090495,104.09446 165.315104,104.09446 165.464844,104.09446 C165.464844,104.2442 165.389974,104.31907 165.240234,104.31907 C165.240234,104.468809 165.240234,104.618549 165.240234,104.768288 Z M149.068359,144.973366 C149.367839,144.524148 149.667318,143.85032 149.966797,142.951882 C150.416016,143.101622 151.089844,143.326231 151.988281,143.62571 C150.341146,146.021544 147.795573,149.465554 144.351562,153.957741 C144.651042,151.112689 145.10026,146.845111 145.699219,141.155007 C146.148438,141.454486 146.897135,141.753965 147.945312,142.053445 C147.645833,142.502663 147.346354,143.176491 147.046875,144.074929 C147.496094,144.374408 148.169922,144.673887 149.068359,144.973366 Z M147.046875,144.074929 C147.196615,143.62571 147.421224,142.951882 147.720703,142.053445 C148.319661,142.203184 149.068359,142.502663 149.966797,142.951882 C149.817057,143.401101 149.517578,144.074929 149.068359,144.973366 C148.619141,144.823627 147.945312,144.524148 147.046875,144.074929 Z M80.1132812,104.31907 C83.4075521,112.405007 88.2740885,124.533913 94.7128906,140.705788 C94.2636719,140.855528 93.514974,141.155007 92.4667969,141.604226 C89.3222656,133.518288 84.530599,121.389382 78.0917969,105.217507 C78.2415365,105.217507 78.391276,105.217507 78.5410156,105.217507 C78.8404948,105.067768 79.0651042,104.992898 79.2148438,104.992898 C79.3645833,104.843158 79.5143229,104.768288 79.6640625,104.768288 C79.8138021,104.618549 79.9635417,104.468809 80.1132812,104.31907 Z M96.734375,139.807351 C97.0338542,142.652403 97.5579427,146.919981 98.3066406,152.610085 C96.5097656,150.363991 93.8893229,146.919981 90.4453125,142.278054 C90.8945312,142.128314 91.5683594,141.903705 92.4667969,141.604226 C92.766276,142.053445 93.0657552,142.727273 93.3652344,143.62571 C93.8144531,143.475971 94.4882812,143.176491 95.3867188,142.727273 C95.2369792,142.278054 95.0123698,141.604226 94.7128906,140.705788 C95.1621094,140.556049 95.8359375,140.25657 96.734375,139.807351 Z M92.4667969,141.604226 C92.9160156,141.304747 93.6647135,141.005268 94.7128906,140.705788 C94.8626302,141.155007 95.1621094,141.828835 95.6113281,142.727273 C95.0123698,143.026752 94.2636719,143.326231 93.3652344,143.62571 C93.2154948,143.176491 92.9160156,142.502663 92.4667969,141.604226 Z M73.375,102.072976 C73.6744792,102.971413 74.2734375,103.645241 75.171875,104.09446 C75.9205729,104.543679 76.8190104,104.768288 77.8671875,104.768288 C77.8671875,104.768288 77.9420573,104.918028 78.0917969,105.217507 C76.8938802,105.367247 75.8457031,105.142637 74.9472656,104.543679 C73.8990885,104.09446 73.1503906,103.345762 72.7011719,102.297585 C72.2519531,100.949929 72.3268229,99.6771425 72.9257812,98.4792259 C73.375,97.2813092 74.2734375,96.3828717 75.6210937,95.7839134 C76.8190104,95.3346946 78.0169271,95.4095644 79.2148437,96.0085227 C80.5625,96.4577415 81.4609375,97.2813092 81.9101562,98.4792259 C82.359375,99.6771425 82.4342448,100.800189 82.1347656,101.848366 C81.6855469,102.896544 81.0117187,103.720111 80.1132812,104.31907 C80.1132812,104.16933 80.0384115,104.01959 79.8886719,103.869851 C80.6373698,103.270893 81.1614583,102.522195 81.4609375,101.623757 C81.7604167,100.72532 81.7604167,99.7520123 81.4609375,98.7038352 C81.0117187,97.6556581 80.188151,96.9069602 78.9902344,96.4577415 C77.9420573,96.0085227 76.8938802,96.0085227 75.8457031,96.4577415 C74.6477865,96.9069602 73.8242187,97.6556581 73.375,98.7038352 C72.9257812,99.7520123 72.9257812,100.875059 73.375,102.072976 Z M81.6855469,98.2546165 C81.8352865,98.4043561 81.9101562,98.4792259 81.9101562,98.4792259 C81.9101562,98.4792259 81.9101562,98.4792259 81.9101562,98.4792259 C81.9101562,98.4792259 81.9101562,98.4792259 81.9101562,98.4792259 C81.9101562,98.4792259 81.8352865,98.4043561 81.6855469,98.2546165 Z M82.1347656,98.9284446 C81.985026,98.9284446 81.9101562,98.8535748 81.9101562,98.7038352 C81.9101562,98.7038352 81.9101562,98.6289654 81.9101562,98.4792259 C81.9101562,98.6289654 81.9101562,98.7038352 81.9101562,98.7038352 C81.9101562,98.8535748 81.985026,98.9284446 82.1347656,98.9284446 Z M80.1132812,104.31907 C79.9635417,104.468809 79.8138021,104.618549 79.6640625,104.768288 C79.5143229,104.768288 79.3645833,104.843158 79.2148438,104.992898 C79.0651042,104.992898 78.8404948,105.067768 78.5410156,105.217507 C78.391276,105.217507 78.2415365,105.217507 78.0917969,105.217507 C77.9420573,105.067768 77.8671875,104.918028 77.8671875,104.768288 C78.0169271,104.618549 78.1666667,104.543679 78.3164062,104.543679 C78.6158854,104.543679 78.8404948,104.468809 78.9902344,104.31907 C79.139974,104.31907 79.2897135,104.2442 79.4394531,104.09446 C79.5891927,104.09446 79.7389323,104.01959 79.8886719,103.869851 C80.0384115,103.869851 80.1132812,103.944721 80.1132812,104.09446 C80.1132812,104.2442 80.1132812,104.31907 80.1132812,104.31907 Z M81.4609375,98.7038352 C81.7604167,99.7520123 81.7604167,100.72532 81.4609375,101.623757 C81.1614583,102.522195 80.6373698,103.270893 79.8886719,103.869851 C79.8886719,103.720111 79.8138021,103.495502 79.6640625,103.196023 C80.2630208,102.746804 80.7122396,102.147846 81.0117188,101.399148 C81.1614583,100.65045 81.0865885,99.8268821 80.7871094,98.9284446 C80.4876302,98.0300071 79.8138021,97.356179 78.765625,96.9069602 C77.8671875,96.4577415 76.8938802,96.4577415 75.8457031,96.9069602 C74.9472656,97.356179 74.2734375,98.0300071 73.8242188,98.9284446 C73.5247396,99.8268821 73.5247396,100.800189 73.8242188,101.848366 C73.8242188,101.848366 73.8990885,101.923236 74.0488281,102.072976 C74.0488281,102.072976 74.0488281,102.147846 74.0488281,102.297585 C74.0488281,102.147846 74.0488281,102.072976 74.0488281,102.072976 C73.8990885,101.923236 73.8242188,101.848366 73.8242188,101.848366 C74.1236979,102.597064 74.6477865,103.196023 75.3964844,103.645241 C76.1451823,103.944721 76.8938802,104.09446 77.6425781,104.09446 C77.6425781,104.2442 77.7174479,104.468809 77.8671875,104.768288 C76.8190104,104.768288 75.9205729,104.543679 75.171875,104.09446 C74.2734375,103.645241 73.6744792,102.971413 73.375,102.072976 C72.9257812,100.875059 72.9257812,99.7520123 73.375,98.7038352 C73.8242188,97.6556581 74.6477865,96.9069602 75.8457031,96.4577415 C76.8938802,96.0085227 77.9420573,96.0085227 78.9902344,96.4577415 C80.188151,96.9069602 81.0117188,97.6556581 81.4609375,98.7038352 Z M78.765625,103.869851 C78.9153646,103.869851 79.0651042,103.794981 79.2148438,103.645241 C79.3645833,103.495502 79.5143229,103.345762 79.6640625,103.196023 C79.8138021,103.345762 79.8886719,103.570372 79.8886719,103.869851 C79.7389323,104.01959 79.5891927,104.09446 79.4394531,104.09446 C79.2897135,104.2442 79.139974,104.31907 78.9902344,104.31907 C78.8404948,104.468809 78.6158854,104.543679 78.3164062,104.543679 C78.1666667,104.543679 78.0169271,104.618549 77.8671875,104.768288 C77.7174479,104.618549 77.6425781,104.393939 77.6425781,104.09446 C77.7923177,104.09446 77.9420573,104.09446 78.0917969,104.09446 C78.391276,104.09446 78.6158854,104.01959 78.765625,103.869851 Z M62.59375,93.3132102 C62.7434896,93.3132102 62.8183594,93.38808 62.8183594,93.5378196 C62.968099,93.5378196 63.0429688,93.6126894 63.0429688,93.762429 C63.0429688,93.762429 63.1178385,93.8372988 63.2675781,93.9870384 C63.2675781,94.1367779 63.2675781,94.2116477 63.2675781,94.2116477 C63.2675781,96.1582623 63.2675781,98.4792259 63.2675781,101.174538 C63.2675781,104.01959 63.2675781,107.238991 63.2675781,110.832741 C63.2675781,110.982481 63.2675781,111.132221 63.2675781,111.28196 C63.1178385,111.4317 62.968099,111.50657 62.8183594,111.50657 C62.8183594,111.656309 62.7434896,111.731179 62.59375,111.731179 C62.4440104,111.880919 62.3691406,111.955788 62.3691406,111.955788 C62.219401,111.955788 62.0696615,111.880919 61.9199219,111.731179 C61.7701823,111.731179 61.6204427,111.656309 61.4707031,111.50657 C61.4707031,111.50657 61.4707031,111.4317 61.4707031,111.28196 C61.3209635,111.132221 61.2460938,110.982481 61.2460938,110.832741 C61.2460938,109.335346 61.2460938,107.388731 61.2460938,104.992898 C61.2460938,102.597064 61.2460938,99.8268821 61.2460938,96.6823509 C61.2460938,96.6823509 61.171224,96.7572206 61.0214844,96.9069602 C60.8717448,97.0566998 60.7220052,97.2064394 60.5722656,97.356179 C60.5722656,97.356179 60.4973958,97.4310488 60.3476562,97.5807884 C60.1979167,97.5807884 60.0481771,97.5807884 59.8984375,97.5807884 C59.7486979,97.5807884 59.6738281,97.5807884 59.6738281,97.5807884 C59.5240885,97.4310488 59.374349,97.356179 59.2246094,97.356179 C59.0748698,97.2064394 59,97.0566998 59,96.9069602 C59,96.9069602 59,96.8320904 59,96.6823509 C59,96.5326113 59,96.3828717 59,96.2331321 C59,96.0833925 59.0748698,96.0085227 59.2246094,96.0085227 C59.5240885,95.7090436 59.8235677,95.3346946 60.1230469,94.8854759 C60.5722656,94.5859967 61.0963542,94.1367779 61.6953125,93.5378196 C61.6953125,93.5378196 61.7701823,93.4629498 61.9199219,93.3132102 C61.9199219,93.3132102 61.9947917,93.3132102 62.1445312,93.3132102 C62.1445312,93.3132102 62.1445312,93.3132102 62.1445312,93.3132102 C62.1445312,93.3132102 62.219401,93.3132102 62.3691406,93.3132102 C62.3691406,93.3132102 62.3691406,93.3132102 62.3691406,93.3132102 C62.5188802,93.3132102 62.59375,93.3132102 62.59375,93.3132102 Z M186.128906,110.608132 C186.278646,110.608132 186.428385,110.608132 186.578125,110.608132 C186.578125,110.757872 186.652995,110.832741 186.802734,110.832741 C186.952474,110.982481 187.027344,111.132221 187.027344,111.28196 C187.027344,111.4317 187.027344,111.581439 187.027344,111.731179 C187.027344,111.731179 187.027344,111.806049 187.027344,111.955788 C187.027344,112.105528 186.952474,112.255268 186.802734,112.405007 C186.652995,112.405007 186.578125,112.479877 186.578125,112.629616 C186.428385,112.629616 186.278646,112.629616 186.128906,112.629616 C185.380208,112.629616 184.63151,112.629616 183.882812,112.629616 C182.984375,112.629616 182.160807,112.629616 181.412109,112.629616 C180.663411,112.629616 179.914714,112.629616 179.166016,112.629616 C178.267578,112.629616 177.44401,112.629616 176.695312,112.629616 C176.695312,112.629616 176.620443,112.629616 176.470703,112.629616 C176.470703,112.629616 176.470703,112.554747 176.470703,112.405007 C176.320964,112.405007 176.246094,112.405007 176.246094,112.405007 C176.096354,112.405007 176.021484,112.330137 176.021484,112.180398 C176.021484,112.180398 176.021484,112.180398 176.021484,112.180398 C175.871745,112.030658 175.796875,111.955788 175.796875,111.955788 C175.796875,111.806049 175.796875,111.731179 175.796875,111.731179 C175.796875,111.731179 175.796875,111.656309 175.796875,111.50657 C175.796875,111.50657 175.796875,111.50657 175.796875,111.50657 C175.796875,111.50657 175.796875,111.50657 175.796875,111.50657 C175.796875,111.50657 175.796875,111.35683 175.796875,111.057351 C175.946615,110.907611 176.096354,110.608132 176.246094,110.158913 C176.246094,109.709695 176.395833,109.185606 176.695312,108.586648 C176.845052,108.137429 177.144531,107.61334 177.59375,107.014382 C177.74349,106.714903 177.893229,106.415424 178.042969,106.115945 C178.342448,105.816465 178.641927,105.516986 178.941406,105.217507 C179.240885,104.918028 179.540365,104.618549 179.839844,104.31907 C180.289062,104.01959 180.663411,103.794981 180.962891,103.645241 C181.861328,103.046283 182.610026,102.522195 183.208984,102.072976 C183.658203,101.623757 184.032552,101.249408 184.332031,100.949929 C184.481771,100.50071 184.63151,100.126361 184.78125,99.8268821 C184.93099,99.3776634 185.005859,99.0033144 185.005859,98.7038352 C185.005859,98.7038352 184.93099,98.6289654 184.78125,98.4792259 C184.78125,98.3294863 184.78125,98.2546165 184.78125,98.2546165 C184.78125,98.1048769 184.78125,97.9551373 184.78125,97.8053977 C184.78125,97.6556581 184.70638,97.5807884 184.556641,97.5807884 C184.556641,97.2813092 184.481771,97.0566998 184.332031,96.9069602 C184.182292,96.7572206 183.957682,96.6074811 183.658203,96.4577415 C183.358724,96.3080019 183.059245,96.1582623 182.759766,96.0085227 C182.460286,96.0085227 182.011068,96.0085227 181.412109,96.0085227 C181.11263,96.0085227 180.813151,96.0085227 180.513672,96.0085227 C180.214193,96.1582623 179.914714,96.3080019 179.615234,96.4577415 C179.315755,96.6074811 179.091146,96.7572206 178.941406,96.9069602 C178.641927,97.2064394 178.492188,97.5059186 178.492188,97.8053977 C178.342448,97.9551373 178.267578,98.0300071 178.267578,98.0300071 C178.117839,98.1797467 177.968099,98.2546165 177.818359,98.2546165 C177.66862,98.4043561 177.51888,98.4792259 177.369141,98.4792259 C177.219401,98.3294863 177.144531,98.2546165 177.144531,98.2546165 C176.994792,98.2546165 176.845052,98.1797467 176.695312,98.0300071 C176.695312,98.0300071 176.620443,97.9551373 176.470703,97.8053977 C176.470703,97.6556581 176.470703,97.5059186 176.470703,97.356179 C176.470703,97.2064394 176.545573,97.0566998 176.695312,96.9069602 C176.845052,96.4577415 177.069661,96.0833925 177.369141,95.7839134 C177.66862,95.3346946 178.042969,94.9603456 178.492188,94.6608665 C178.941406,94.5111269 179.390625,94.3613873 179.839844,94.2116477 C180.438802,94.0619081 180.962891,93.9870384 181.412109,93.9870384 C182.460286,93.9870384 183.358724,94.1367779 184.107422,94.4362571 C184.70638,94.5859967 185.230469,94.9603456 185.679688,95.559304 C186.128906,96.0085227 186.428385,96.5326113 186.578125,97.1315696 C186.727865,97.7305279 186.802734,98.3294863 186.802734,98.9284446 C186.802734,99.5274029 186.727865,100.051491 186.578125,100.50071 C186.428385,101.099669 186.128906,101.623757 185.679688,102.072976 C185.380208,102.671934 184.93099,103.196023 184.332031,103.645241 C183.733073,104.2442 182.984375,104.768288 182.085938,105.217507 C181.486979,105.666726 180.888021,106.115945 180.289062,106.565163 C179.839844,107.014382 179.465495,107.538471 179.166016,108.137429 C178.866536,108.586648 178.641927,109.035866 178.492188,109.485085 C178.192708,109.934304 178.042969,110.308653 178.042969,110.608132 C178.941406,110.608132 180.064453,110.608132 181.412109,110.608132 C182.759766,110.608132 184.332031,110.608132 186.128906,110.608132 Z"/></svg>