<svg xmlns="http://www.w3.org/2000/svg" width="101" height="203" viewBox="0 0 101 203"><path fill="#131313" d="M5892.91477,117.510476 C5895.01113,118.408913 5896.50852,119.906309 5897.40696,122.002663 C5898.3054,123.949278 5898.3054,125.970762 5897.40696,128.067116 C5884.37962,160.710346 5871.8386,192.750059 5845.78391,258.186257 C5845.18496,259.833393 5844.13678,261.106179 5842.63938,262.004616 C5841.29173,262.903054 5839.79433,263.352273 5838.14719,263.352273 C5837.69798,263.352273 5837.17389,263.277403 5836.57493,263.127663 C5836.12571,262.977924 5835.67649,262.828184 5835.22727,262.678445 C5833.13092,261.929747 5831.63352,260.507221 5830.73509,258.410866 C5829.83665,256.314512 5829.76178,254.218158 5830.51048,252.121804 C5836.79954,236.399148 5839.23313,229.890033 5851.81126,198.59446 C5845.52219,183.021544 5836.0886,159.512429 5823.51048,128.067116 C5822.76178,126.120502 5822.83665,124.099018 5823.73509,122.002663 C5824.63352,119.906309 5826.13092,118.408913 5828.22727,117.510476 C5829.12571,117.210997 5830.09902,117.061257 5831.14719,117.061257 C5832.19537,117.061257 5833.24355,117.285866 5834.29173,117.735085 C5836.38808,117 5837.88548,120.130919 5838.78391,122.227273 C5843.57558,134.356179 5850.83795,152.474669 5860.57102,176.582741 C5865.36269,164.603575 5872.62506,146.485085 5882.35813,122.227273 C5883.10683,120.130919 5884.52936,117 5886.62571,117.735085 C5888.72206,116.836648 5890.81842,116.761778 5892.91477,117.510476 Z M5901.76953,141.31907 C5901.91927,141.468809 5902.14388,141.618549 5902.44336,141.768288 C5902.5931,141.768288 5902.74284,141.843158 5902.89258,141.992898 C5903.04232,141.992898 5903.19206,142.067768 5903.3418,142.217507 C5903.64128,142.217507 5903.86589,142.217507 5904.01562,142.217507 C5900.72135,150.602924 5895.70508,163.181049 5888.9668,179.951882 C5888.51758,179.652403 5887.84375,179.352924 5886.94531,179.053445 C5889.34115,172.764382 5891.81185,166.47532 5894.35742,160.186257 C5896.90299,153.897195 5899.3737,147.608132 5901.76953,141.31907 Z M5906.48633,132.783913 C5907.68424,133.382872 5908.58268,134.281309 5909.18164,135.479226 C5909.7806,136.677143 5909.7806,137.949929 5909.18164,139.297585 C5908.73242,140.345762 5908.05859,141.09446 5907.16016,141.543679 C5906.11198,142.142637 5905.0638,142.367247 5904.01562,142.217507 C5904.01562,142.067768 5904.09049,141.918028 5904.24023,141.768288 C5905.13867,141.768288 5906.03711,141.543679 5906.93555,141.09446 C5907.68424,140.645241 5908.2832,139.971413 5908.73242,139.072976 C5909.18164,137.875059 5909.18164,136.752012 5908.73242,135.703835 C5908.2832,134.655658 5907.45964,133.90696 5906.26172,133.457741 C5905.21354,133.008523 5904.09049,133.008523 5902.89258,133.457741 C5901.8444,133.90696 5901.0957,134.655658 5900.64648,135.703835 C5900.34701,136.752012 5900.34701,137.72532 5900.64648,138.623757 C5900.79622,139.522195 5901.24544,140.270893 5901.99414,140.869851 C5901.99414,141.01959 5901.91927,141.16933 5901.76953,141.31907 C5900.87109,140.720111 5900.27214,139.896544 5899.97266,138.848366 C5899.67318,137.800189 5899.74805,136.677143 5900.19727,135.479226 C5900.64648,134.281309 5901.47005,133.457741 5902.66797,133.008523 C5904.01562,132.409564 5905.28841,132.334695 5906.48633,132.783913 Z M5900.42188,135.030007 C5900.42188,135.030007 5900.34701,135.104877 5900.19727,135.254616 C5900.19727,135.254616 5900.19727,135.329486 5900.19727,135.479226 C5900.19727,135.479226 5900.19727,135.404356 5900.19727,135.254616 C5900.34701,135.104877 5900.42188,135.030007 5900.42188,135.030007 Z M5899.97266,136.153054 C5899.97266,136.153054 5899.97266,136.078184 5899.97266,135.928445 C5899.97266,135.778705 5900.04753,135.628965 5900.19727,135.479226 C5900.04753,135.628965 5899.97266,135.778705 5899.97266,135.928445 C5899.97266,136.078184 5899.97266,136.153054 5899.97266,136.153054 Z M5903.11719,141.31907 C5903.26693,141.468809 5903.41667,141.543679 5903.56641,141.543679 C5903.86589,141.543679 5904.09049,141.618549 5904.24023,141.768288 C5904.24023,141.768288 5904.16536,141.918028 5904.01562,142.217507 C5903.86589,142.217507 5903.64128,142.217507 5903.3418,142.217507 C5903.19206,142.067768 5903.04232,141.992898 5902.89258,141.992898 C5902.74284,141.843158 5902.51823,141.768288 5902.21875,141.768288 C5902.06901,141.618549 5901.91927,141.468809 5901.76953,141.31907 C5901.91927,141.16933 5901.99414,141.01959 5901.99414,140.869851 C5902.14388,140.869851 5902.36849,140.944721 5902.66797,141.09446 C5902.81771,141.2442 5902.96745,141.31907 5903.11719,141.31907 Z M5901.32031,135.928445 C5900.87109,136.826882 5900.79622,137.65045 5901.0957,138.399148 C5901.24544,139.147846 5901.61979,139.746804 5902.21875,140.196023 C5902.21875,140.345762 5902.14388,140.570372 5901.99414,140.869851 C5901.24544,140.270893 5900.79622,139.522195 5900.64648,138.623757 C5900.34701,137.72532 5900.34701,136.752012 5900.64648,135.703835 C5901.0957,134.655658 5901.8444,133.90696 5902.89258,133.457741 C5904.09049,133.008523 5905.21354,133.008523 5906.26172,133.457741 C5907.45964,133.90696 5908.2832,134.655658 5908.73242,135.703835 C5909.18164,136.752012 5909.18164,137.875059 5908.73242,139.072976 C5908.2832,139.971413 5907.68424,140.645241 5906.93555,141.09446 C5906.03711,141.543679 5905.13867,141.768288 5904.24023,141.768288 C5904.24023,141.618549 5904.3151,141.393939 5904.46484,141.09446 C5905.21354,141.09446 5905.96224,140.944721 5906.71094,140.645241 C5907.45964,140.196023 5907.98372,139.597064 5908.2832,138.848366 C5908.2832,138.848366 5908.20833,138.848366 5908.05859,138.848366 C5908.05859,138.998106 5908.05859,139.072976 5908.05859,139.072976 C5908.05859,139.072976 5908.05859,138.998106 5908.05859,138.848366 C5908.05859,138.848366 5908.13346,138.848366 5908.2832,138.848366 C5908.58268,137.800189 5908.50781,136.826882 5908.05859,135.928445 C5907.75911,135.030007 5907.08529,134.356179 5906.03711,133.90696 C5905.13867,133.457741 5904.16536,133.457741 5903.11719,133.90696 C5902.21875,134.356179 5901.61979,135.030007 5901.32031,135.928445 Z M5904.24023,141.768288 C5904.09049,141.618549 5903.86589,141.543679 5903.56641,141.543679 C5903.41667,141.543679 5903.26693,141.468809 5903.11719,141.31907 C5902.96745,141.31907 5902.81771,141.2442 5902.66797,141.09446 C5902.36849,141.09446 5902.14388,141.01959 5901.99414,140.869851 C5902.14388,140.720111 5902.21875,140.495502 5902.21875,140.196023 C5902.36849,140.345762 5902.5931,140.495502 5902.89258,140.645241 C5903.04232,140.794981 5903.19206,140.869851 5903.3418,140.869851 C5903.49154,141.01959 5903.64128,141.09446 5903.79102,141.09446 C5904.09049,141.09446 5904.3151,141.09446 5904.46484,141.09446 C5904.46484,141.2442 5904.38997,141.31907 5904.24023,141.31907 C5904.24023,141.468809 5904.24023,141.618549 5904.24023,141.768288 Z M5888.06836,181.973366 C5888.36784,181.524148 5888.66732,180.85032 5888.9668,179.951882 C5889.41602,180.101622 5890.08984,180.326231 5890.98828,180.62571 C5889.34115,183.021544 5886.79557,186.465554 5883.35156,190.957741 C5883.65104,188.112689 5884.10026,183.845111 5884.69922,178.155007 C5885.14844,178.454486 5885.89714,178.753965 5886.94531,179.053445 C5886.64583,179.502663 5886.34635,180.176491 5886.04688,181.074929 C5886.49609,181.374408 5887.16992,181.673887 5888.06836,181.973366 Z M5886.04688,181.074929 C5886.19661,180.62571 5886.42122,179.951882 5886.7207,179.053445 C5887.31966,179.203184 5888.06836,179.502663 5888.9668,179.951882 C5888.81706,180.401101 5888.51758,181.074929 5888.06836,181.973366 C5887.61914,181.823627 5886.94531,181.524148 5886.04688,181.074929 Z M5819.11328,141.31907 C5822.40755,149.405007 5827.27409,161.533913 5833.71289,177.705788 C5833.26367,177.855528 5832.51497,178.155007 5831.4668,178.604226 C5828.32227,170.518288 5823.5306,158.389382 5817.0918,142.217507 C5817.24154,142.217507 5817.39128,142.217507 5817.54102,142.217507 C5817.84049,142.067768 5818.0651,141.992898 5818.21484,141.992898 C5818.36458,141.843158 5818.51432,141.768288 5818.66406,141.768288 C5818.8138,141.618549 5818.96354,141.468809 5819.11328,141.31907 Z M5835.73438,176.807351 C5836.03385,179.652403 5836.55794,183.919981 5837.30664,189.610085 C5835.50977,187.363991 5832.88932,183.919981 5829.44531,179.278054 C5829.89453,179.128314 5830.56836,178.903705 5831.4668,178.604226 C5831.76628,179.053445 5832.06576,179.727273 5832.36523,180.62571 C5832.81445,180.475971 5833.48828,180.176491 5834.38672,179.727273 C5834.23698,179.278054 5834.01237,178.604226 5833.71289,177.705788 C5834.16211,177.556049 5834.83594,177.25657 5835.73438,176.807351 Z M5831.4668,178.604226 C5831.91602,178.304747 5832.66471,178.005268 5833.71289,177.705788 C5833.86263,178.155007 5834.16211,178.828835 5834.61133,179.727273 C5834.01237,180.026752 5833.26367,180.326231 5832.36523,180.62571 C5832.21549,180.176491 5831.91602,179.502663 5831.4668,178.604226 Z M5812.375,139.072976 C5812.67448,139.971413 5813.27344,140.645241 5814.17188,141.09446 C5814.92057,141.543679 5815.81901,141.768288 5816.86719,141.768288 C5816.86719,141.768288 5816.94206,141.918028 5817.0918,142.217507 C5815.89388,142.367247 5814.8457,142.142637 5813.94727,141.543679 C5812.89909,141.09446 5812.15039,140.345762 5811.70117,139.297585 C5811.25195,137.949929 5811.32682,136.677143 5811.92578,135.479226 C5812.375,134.281309 5813.27344,133.382872 5814.62109,132.783913 C5815.81901,132.334695 5817.01693,132.409564 5818.21484,133.008523 C5819.5625,133.457741 5820.46094,134.281309 5820.91016,135.479226 C5821.35938,136.677143 5821.43424,137.800189 5821.13477,138.848366 C5820.68555,139.896544 5820.01172,140.720111 5819.11328,141.31907 C5819.11328,141.16933 5819.03841,141.01959 5818.88867,140.869851 C5819.63737,140.270893 5820.16146,139.522195 5820.46094,138.623757 C5820.76042,137.72532 5820.76042,136.752012 5820.46094,135.703835 C5820.01172,134.655658 5819.18815,133.90696 5817.99023,133.457741 C5816.94206,133.008523 5815.89388,133.008523 5814.8457,133.457741 C5813.64779,133.90696 5812.82422,134.655658 5812.375,135.703835 C5811.92578,136.752012 5811.92578,137.875059 5812.375,139.072976 Z M5820.68555,135.254616 C5820.83529,135.404356 5820.91016,135.479226 5820.91016,135.479226 C5820.91016,135.479226 5820.91016,135.479226 5820.91016,135.479226 C5820.91016,135.479226 5820.91016,135.479226 5820.91016,135.479226 C5820.91016,135.479226 5820.83529,135.404356 5820.68555,135.254616 Z M5821.13477,135.928445 C5820.98503,135.928445 5820.91016,135.853575 5820.91016,135.703835 C5820.91016,135.703835 5820.91016,135.628965 5820.91016,135.479226 C5820.91016,135.628965 5820.91016,135.703835 5820.91016,135.703835 C5820.91016,135.853575 5820.98503,135.928445 5821.13477,135.928445 Z M5819.11328,141.31907 C5818.96354,141.468809 5818.8138,141.618549 5818.66406,141.768288 C5818.51432,141.768288 5818.36458,141.843158 5818.21484,141.992898 C5818.0651,141.992898 5817.84049,142.067768 5817.54102,142.217507 C5817.39128,142.217507 5817.24154,142.217507 5817.0918,142.217507 C5816.94206,142.067768 5816.86719,141.918028 5816.86719,141.768288 C5817.01693,141.618549 5817.16667,141.543679 5817.31641,141.543679 C5817.61589,141.543679 5817.84049,141.468809 5817.99023,141.31907 C5818.13997,141.31907 5818.28971,141.2442 5818.43945,141.09446 C5818.58919,141.09446 5818.73893,141.01959 5818.88867,140.869851 C5819.03841,140.869851 5819.11328,140.944721 5819.11328,141.09446 C5819.11328,141.2442 5819.11328,141.31907 5819.11328,141.31907 Z M5820.46094,135.703835 C5820.76042,136.752012 5820.76042,137.72532 5820.46094,138.623757 C5820.16146,139.522195 5819.63737,140.270893 5818.88867,140.869851 C5818.88867,140.720111 5818.8138,140.495502 5818.66406,140.196023 C5819.26302,139.746804 5819.71224,139.147846 5820.01172,138.399148 C5820.16146,137.65045 5820.08659,136.826882 5819.78711,135.928445 C5819.48763,135.030007 5818.8138,134.356179 5817.76562,133.90696 C5816.86719,133.457741 5815.89388,133.457741 5814.8457,133.90696 C5813.94727,134.356179 5813.27344,135.030007 5812.82422,135.928445 C5812.52474,136.826882 5812.52474,137.800189 5812.82422,138.848366 C5812.82422,138.848366 5812.89909,138.923236 5813.04883,139.072976 C5813.04883,139.072976 5813.04883,139.147846 5813.04883,139.297585 C5813.04883,139.147846 5813.04883,139.072976 5813.04883,139.072976 C5812.89909,138.923236 5812.82422,138.848366 5812.82422,138.848366 C5813.1237,139.597064 5813.64779,140.196023 5814.39648,140.645241 C5815.14518,140.944721 5815.89388,141.09446 5816.64258,141.09446 C5816.64258,141.2442 5816.71745,141.468809 5816.86719,141.768288 C5815.81901,141.768288 5814.92057,141.543679 5814.17188,141.09446 C5813.27344,140.645241 5812.67448,139.971413 5812.375,139.072976 C5811.92578,137.875059 5811.92578,136.752012 5812.375,135.703835 C5812.82422,134.655658 5813.64779,133.90696 5814.8457,133.457741 C5815.89388,133.008523 5816.94206,133.008523 5817.99023,133.457741 C5819.18815,133.90696 5820.01172,134.655658 5820.46094,135.703835 Z M5817.76562,140.869851 C5817.91536,140.869851 5818.0651,140.794981 5818.21484,140.645241 C5818.36458,140.495502 5818.51432,140.345762 5818.66406,140.196023 C5818.8138,140.345762 5818.88867,140.570372 5818.88867,140.869851 C5818.73893,141.01959 5818.58919,141.09446 5818.43945,141.09446 C5818.28971,141.2442 5818.13997,141.31907 5817.99023,141.31907 C5817.84049,141.468809 5817.61589,141.543679 5817.31641,141.543679 C5817.16667,141.543679 5817.01693,141.618549 5816.86719,141.768288 C5816.71745,141.618549 5816.64258,141.393939 5816.64258,141.09446 C5816.79232,141.09446 5816.94206,141.09446 5817.0918,141.09446 C5817.39128,141.09446 5817.61589,141.01959 5817.76562,140.869851 Z M5801.59375,130.31321 C5801.74349,130.31321 5801.81836,130.38808 5801.81836,130.53782 C5801.9681,130.53782 5802.04297,130.612689 5802.04297,130.762429 C5802.04297,130.762429 5802.11784,130.837299 5802.26758,130.987038 C5802.26758,131.136778 5802.26758,131.211648 5802.26758,131.211648 C5802.26758,133.158262 5802.26758,135.479226 5802.26758,138.174538 C5802.26758,141.01959 5802.26758,144.238991 5802.26758,147.832741 C5802.26758,147.982481 5802.26758,148.132221 5802.26758,148.28196 C5802.11784,148.4317 5801.9681,148.50657 5801.81836,148.50657 C5801.81836,148.656309 5801.74349,148.731179 5801.59375,148.731179 C5801.44401,148.880919 5801.36914,148.955788 5801.36914,148.955788 C5801.2194,148.955788 5801.06966,148.880919 5800.91992,148.731179 C5800.77018,148.731179 5800.62044,148.656309 5800.4707,148.50657 C5800.4707,148.50657 5800.4707,148.4317 5800.4707,148.28196 C5800.32096,148.132221 5800.24609,147.982481 5800.24609,147.832741 C5800.24609,146.335346 5800.24609,144.388731 5800.24609,141.992898 C5800.24609,139.597064 5800.24609,136.826882 5800.24609,133.682351 C5800.24609,133.682351 5800.17122,133.757221 5800.02148,133.90696 C5799.87174,134.0567 5799.72201,134.206439 5799.57227,134.356179 C5799.57227,134.356179 5799.4974,134.431049 5799.34766,134.580788 C5799.19792,134.580788 5799.04818,134.580788 5798.89844,134.580788 C5798.7487,134.580788 5798.67383,134.580788 5798.67383,134.580788 C5798.52409,134.431049 5798.37435,134.356179 5798.22461,134.356179 C5798.07487,134.206439 5798,134.0567 5798,133.90696 C5798,133.90696 5798,133.83209 5798,133.682351 C5798,133.532611 5798,133.382872 5798,133.233132 C5798,133.083393 5798.07487,133.008523 5798.22461,133.008523 C5798.52409,132.709044 5798.82357,132.334695 5799.12305,131.885476 C5799.57227,131.585997 5800.09635,131.136778 5800.69531,130.53782 C5800.69531,130.53782 5800.77018,130.46295 5800.91992,130.31321 C5800.91992,130.31321 5800.99479,130.31321 5801.14453,130.31321 C5801.14453,130.31321 5801.14453,130.31321 5801.14453,130.31321 C5801.14453,130.31321 5801.2194,130.31321 5801.36914,130.31321 C5801.36914,130.31321 5801.36914,130.31321 5801.36914,130.31321 C5801.51888,130.31321 5801.59375,130.31321 5801.59375,130.31321 Z M5925.12891,147.608132 C5925.27865,147.608132 5925.42839,147.608132 5925.57812,147.608132 C5925.57812,147.757872 5925.65299,147.832741 5925.80273,147.832741 C5925.95247,147.982481 5926.02734,148.132221 5926.02734,148.28196 C5926.02734,148.4317 5926.02734,148.581439 5926.02734,148.731179 C5926.02734,148.731179 5926.02734,148.806049 5926.02734,148.955788 C5926.02734,149.105528 5925.95247,149.255268 5925.80273,149.405007 C5925.65299,149.405007 5925.57812,149.479877 5925.57812,149.629616 C5925.42839,149.629616 5925.27865,149.629616 5925.12891,149.629616 C5924.38021,149.629616 5923.63151,149.629616 5922.88281,149.629616 C5921.98438,149.629616 5921.16081,149.629616 5920.41211,149.629616 C5919.66341,149.629616 5918.91471,149.629616 5918.16602,149.629616 C5917.26758,149.629616 5916.44401,149.629616 5915.69531,149.629616 C5915.69531,149.629616 5915.62044,149.629616 5915.4707,149.629616 C5915.4707,149.629616 5915.4707,149.554747 5915.4707,149.405007 C5915.32096,149.405007 5915.24609,149.405007 5915.24609,149.405007 C5915.09635,149.405007 5915.02148,149.330137 5915.02148,149.180398 C5915.02148,149.180398 5915.02148,149.180398 5915.02148,149.180398 C5914.87174,149.030658 5914.79688,148.955788 5914.79688,148.955788 C5914.79688,148.806049 5914.79688,148.731179 5914.79688,148.731179 C5914.79688,148.731179 5914.79688,148.656309 5914.79688,148.50657 C5914.79688,148.50657 5914.79688,148.50657 5914.79688,148.50657 C5914.79688,148.50657 5914.79688,148.50657 5914.79688,148.50657 C5914.79688,148.50657 5914.79688,148.35683 5914.79688,148.057351 C5914.94661,147.907611 5915.09635,147.608132 5915.24609,147.158913 C5915.24609,146.709695 5915.39583,146.185606 5915.69531,145.586648 C5915.84505,145.137429 5916.14453,144.61334 5916.59375,144.014382 C5916.74349,143.714903 5916.89323,143.415424 5917.04297,143.115945 C5917.34245,142.816465 5917.64193,142.516986 5917.94141,142.217507 C5918.24089,141.918028 5918.54036,141.618549 5918.83984,141.31907 C5919.28906,141.01959 5919.66341,140.794981 5919.96289,140.645241 C5920.86133,140.046283 5921.61003,139.522195 5922.20898,139.072976 C5922.6582,138.623757 5923.03255,138.249408 5923.33203,137.949929 C5923.48177,137.50071 5923.63151,137.126361 5923.78125,136.826882 C5923.93099,136.377663 5924.00586,136.003314 5924.00586,135.703835 C5924.00586,135.703835 5923.93099,135.628965 5923.78125,135.479226 C5923.78125,135.329486 5923.78125,135.254616 5923.78125,135.254616 C5923.78125,135.104877 5923.78125,134.955137 5923.78125,134.805398 C5923.78125,134.655658 5923.70638,134.580788 5923.55664,134.580788 C5923.55664,134.281309 5923.48177,134.0567 5923.33203,133.90696 C5923.18229,133.757221 5922.95768,133.607481 5922.6582,133.457741 C5922.35872,133.308002 5922.05924,133.158262 5921.75977,133.008523 C5921.46029,133.008523 5921.01107,133.008523 5920.41211,133.008523 C5920.11263,133.008523 5919.81315,133.008523 5919.51367,133.008523 C5919.21419,133.158262 5918.91471,133.308002 5918.61523,133.457741 C5918.31576,133.607481 5918.09115,133.757221 5917.94141,133.90696 C5917.64193,134.206439 5917.49219,134.505919 5917.49219,134.805398 C5917.34245,134.955137 5917.26758,135.030007 5917.26758,135.030007 C5917.11784,135.179747 5916.9681,135.254616 5916.81836,135.254616 C5916.66862,135.404356 5916.51888,135.479226 5916.36914,135.479226 C5916.2194,135.329486 5916.14453,135.254616 5916.14453,135.254616 C5915.99479,135.254616 5915.84505,135.179747 5915.69531,135.030007 C5915.69531,135.030007 5915.62044,134.955137 5915.4707,134.805398 C5915.4707,134.655658 5915.4707,134.505919 5915.4707,134.356179 C5915.4707,134.206439 5915.54557,134.0567 5915.69531,133.90696 C5915.84505,133.457741 5916.06966,133.083393 5916.36914,132.783913 C5916.66862,132.334695 5917.04297,131.960346 5917.49219,131.660866 C5917.94141,131.511127 5918.39062,131.361387 5918.83984,131.211648 C5919.4388,131.061908 5919.96289,130.987038 5920.41211,130.987038 C5921.46029,130.987038 5922.35872,131.136778 5923.10742,131.436257 C5923.70638,131.585997 5924.23047,131.960346 5924.67969,132.559304 C5925.12891,133.008523 5925.42839,133.532611 5925.57812,134.13157 C5925.72786,134.730528 5925.80273,135.329486 5925.80273,135.928445 C5925.80273,136.527403 5925.72786,137.051491 5925.57812,137.50071 C5925.42839,138.099669 5925.12891,138.623757 5924.67969,139.072976 C5924.38021,139.671934 5923.93099,140.196023 5923.33203,140.645241 C5922.73307,141.2442 5921.98438,141.768288 5921.08594,142.217507 C5920.48698,142.666726 5919.88802,143.115945 5919.28906,143.565163 C5918.83984,144.014382 5918.46549,144.538471 5918.16602,145.137429 C5917.86654,145.586648 5917.64193,146.035866 5917.49219,146.485085 C5917.19271,146.934304 5917.04297,147.308653 5917.04297,147.608132 C5917.94141,147.608132 5919.06445,147.608132 5920.41211,147.608132 C5921.75977,147.608132 5923.33203,147.608132 5925.12891,147.608132 Z" transform="translate(-5810)"/></svg>