<svg xmlns="http://www.w3.org/2000/svg" width="101" height="203" viewBox="0 0 101 203"><path fill="#131313" d="M5892.91477,68.5104759 C5895.01113,69.4089134 5896.50852,70.9063092 5897.40696,73.0026634 C5898.3054,74.9492779 5898.3054,76.9707623 5897.40696,79.0671165 C5884.37962,111.710346 5871.8386,143.750059 5845.78391,209.186257 C5845.18496,210.833393 5844.13678,212.106179 5842.63938,213.004616 C5841.29173,213.903054 5839.79433,214.352273 5838.14719,214.352273 C5837.69798,214.352273 5837.17389,214.277403 5836.57493,214.127663 C5836.12571,213.977924 5835.67649,213.828184 5835.22727,213.678445 C5833.13092,212.929747 5831.63352,211.507221 5830.73509,209.410866 C5829.83665,207.314512 5829.76178,205.218158 5830.51048,203.121804 C5836.79954,187.399148 5839.23313,180.890033 5851.81126,149.59446 C5845.52219,134.021544 5836.0886,110.512429 5823.51048,79.0671165 C5822.76178,77.1205019 5822.83665,75.0990175 5823.73509,73.0026634 C5824.63352,70.9063092 5826.13092,69.4089134 5828.22727,68.5104759 C5829.12571,68.2109967 5830.09902,68.0612571 5831.14719,68.0612571 C5832.19537,68.0612571 5833.24355,68.2858665 5834.29173,68.7350852 C5836.38808,68 5837.88548,71.1309186 5838.78391,73.2272727 C5843.57558,85.356179 5850.83795,103.474669 5860.57102,127.582741 C5865.36269,115.603575 5872.62506,97.4850852 5882.35813,73.2272727 C5883.10683,71.1309186 5884.52936,68 5886.62571,68.7350852 C5888.72206,67.8366477 5890.81842,67.7617779 5892.91477,68.5104759 Z M5901.76953,92.3190696 C5901.91927,92.4688092 5902.14388,92.6185488 5902.44336,92.7682884 C5902.5931,92.7682884 5902.74284,92.8431581 5902.89258,92.9928977 C5903.04232,92.9928977 5903.19206,93.0677675 5903.3418,93.2175071 C5903.64128,93.2175071 5903.86589,93.2175071 5904.01562,93.2175071 C5900.72135,101.602924 5895.70508,114.181049 5888.9668,130.951882 C5888.51758,130.652403 5887.84375,130.352924 5886.94531,130.053445 C5889.34115,123.764382 5891.81185,117.47532 5894.35742,111.186257 C5896.90299,104.897195 5899.3737,98.6081321 5901.76953,92.3190696 Z M5906.48633,83.7839134 C5907.68424,84.3828717 5908.58268,85.2813092 5909.18164,86.4792259 C5909.7806,87.6771425 5909.7806,88.949929 5909.18164,90.2975852 C5908.73242,91.3457623 5908.05859,92.0944602 5907.16016,92.543679 C5906.11198,93.1426373 5905.0638,93.3672467 5904.01562,93.2175071 C5904.01562,93.0677675 5904.09049,92.9180279 5904.24023,92.7682884 C5905.13867,92.7682884 5906.03711,92.543679 5906.93555,92.0944602 C5907.68424,91.6452415 5908.2832,90.9714134 5908.73242,90.0729759 C5909.18164,88.8750592 5909.18164,87.7520123 5908.73242,86.7038352 C5908.2832,85.6556581 5907.45964,84.9069602 5906.26172,84.4577415 C5905.21354,84.0085227 5904.09049,84.0085227 5902.89258,84.4577415 C5901.8444,84.9069602 5901.0957,85.6556581 5900.64648,86.7038352 C5900.34701,87.7520123 5900.34701,88.7253196 5900.64648,89.6237571 C5900.79622,90.5221946 5901.24544,91.2708925 5901.99414,91.8698509 C5901.99414,92.0195904 5901.91927,92.16933 5901.76953,92.3190696 C5900.87109,91.7201113 5900.27214,90.8965436 5899.97266,89.8483665 C5899.67318,88.8001894 5899.74805,87.6771425 5900.19727,86.4792259 C5900.64648,85.2813092 5901.47005,84.4577415 5902.66797,84.0085227 C5904.01562,83.4095644 5905.28841,83.3346946 5906.48633,83.7839134 Z M5900.42187,86.0300071 C5900.42187,86.0300071 5900.34701,86.1048769 5900.19727,86.2546165 C5900.19727,86.2546165 5900.19727,86.3294863 5900.19727,86.4792259 C5900.19727,86.4792259 5900.19727,86.4043561 5900.19727,86.2546165 C5900.34701,86.1048769 5900.42187,86.0300071 5900.42187,86.0300071 Z M5899.97266,87.153054 C5899.97266,87.153054 5899.97266,87.0781842 5899.97266,86.9284446 C5899.97266,86.778705 5900.04753,86.6289654 5900.19727,86.4792259 C5900.04753,86.6289654 5899.97266,86.778705 5899.97266,86.9284446 C5899.97266,87.0781842 5899.97266,87.153054 5899.97266,87.153054 Z M5903.11719,92.3190696 C5903.26693,92.4688092 5903.41667,92.543679 5903.56641,92.543679 C5903.86589,92.543679 5904.09049,92.6185488 5904.24023,92.7682884 C5904.24023,92.7682884 5904.16536,92.9180279 5904.01562,93.2175071 C5903.86589,93.2175071 5903.64128,93.2175071 5903.3418,93.2175071 C5903.19206,93.0677675 5903.04232,92.9928977 5902.89258,92.9928977 C5902.74284,92.8431581 5902.51823,92.7682884 5902.21875,92.7682884 C5902.06901,92.6185488 5901.91927,92.4688092 5901.76953,92.3190696 C5901.91927,92.16933 5901.99414,92.0195904 5901.99414,91.8698509 C5902.14388,91.8698509 5902.36849,91.9447206 5902.66797,92.0944602 C5902.81771,92.2441998 5902.96745,92.3190696 5903.11719,92.3190696 Z M5901.32031,86.9284446 C5900.87109,87.8268821 5900.79622,88.6504498 5901.0957,89.3991477 C5901.24544,90.1478456 5901.61979,90.746804 5902.21875,91.1960227 C5902.21875,91.3457623 5902.14388,91.5703717 5901.99414,91.8698509 C5901.24544,91.2708925 5900.79622,90.5221946 5900.64648,89.6237571 C5900.34701,88.7253196 5900.34701,87.7520123 5900.64648,86.7038352 C5901.0957,85.6556581 5901.8444,84.9069602 5902.89258,84.4577415 C5904.09049,84.0085227 5905.21354,84.0085227 5906.26172,84.4577415 C5907.45964,84.9069602 5908.2832,85.6556581 5908.73242,86.7038352 C5909.18164,87.7520123 5909.18164,88.8750592 5908.73242,90.0729759 C5908.2832,90.9714134 5907.68424,91.6452415 5906.93555,92.0944602 C5906.03711,92.543679 5905.13867,92.7682884 5904.24023,92.7682884 C5904.24023,92.6185488 5904.3151,92.3939394 5904.46484,92.0944602 C5905.21354,92.0944602 5905.96224,91.9447206 5906.71094,91.6452415 C5907.45964,91.1960227 5907.98372,90.5970644 5908.2832,89.8483665 C5908.2832,89.8483665 5908.20833,89.8483665 5908.05859,89.8483665 C5908.05859,89.9981061 5908.05859,90.0729759 5908.05859,90.0729759 C5908.05859,90.0729759 5908.05859,89.9981061 5908.05859,89.8483665 C5908.05859,89.8483665 5908.13346,89.8483665 5908.2832,89.8483665 C5908.58268,88.8001894 5908.50781,87.8268821 5908.05859,86.9284446 C5907.75911,86.0300071 5907.08529,85.356179 5906.03711,84.9069602 C5905.13867,84.4577415 5904.16536,84.4577415 5903.11719,84.9069602 C5902.21875,85.356179 5901.61979,86.0300071 5901.32031,86.9284446 Z M5904.24023,92.7682884 C5904.09049,92.6185488 5903.86589,92.543679 5903.56641,92.543679 C5903.41667,92.543679 5903.26693,92.4688092 5903.11719,92.3190696 C5902.96745,92.3190696 5902.81771,92.2441998 5902.66797,92.0944602 C5902.36849,92.0944602 5902.14388,92.0195904 5901.99414,91.8698509 C5902.14388,91.7201113 5902.21875,91.4955019 5902.21875,91.1960227 C5902.36849,91.3457623 5902.5931,91.4955019 5902.89258,91.6452415 C5903.04232,91.7949811 5903.19206,91.8698509 5903.3418,91.8698509 C5903.49154,92.0195904 5903.64128,92.0944602 5903.79102,92.0944602 C5904.09049,92.0944602 5904.3151,92.0944602 5904.46484,92.0944602 C5904.46484,92.2441998 5904.38997,92.3190696 5904.24023,92.3190696 C5904.24023,92.4688092 5904.24023,92.6185488 5904.24023,92.7682884 Z M5888.06836,132.973366 C5888.36784,132.524148 5888.66732,131.85032 5888.9668,130.951882 C5889.41602,131.101622 5890.08984,131.326231 5890.98828,131.62571 C5889.34115,134.021544 5886.79557,137.465554 5883.35156,141.957741 C5883.65104,139.112689 5884.10026,134.845111 5884.69922,129.155007 C5885.14844,129.454486 5885.89714,129.753965 5886.94531,130.053445 C5886.64583,130.502663 5886.34635,131.176491 5886.04687,132.074929 C5886.49609,132.374408 5887.16992,132.673887 5888.06836,132.973366 Z M5886.04687,132.074929 C5886.19661,131.62571 5886.42122,130.951882 5886.7207,130.053445 C5887.31966,130.203184 5888.06836,130.502663 5888.9668,130.951882 C5888.81706,131.401101 5888.51758,132.074929 5888.06836,132.973366 C5887.61914,132.823627 5886.94531,132.524148 5886.04687,132.074929 Z M5819.11328,92.3190696 C5822.40755,100.405007 5827.27409,112.533913 5833.71289,128.705788 C5833.26367,128.855528 5832.51497,129.155007 5831.4668,129.604226 C5828.32227,121.518288 5823.5306,109.389382 5817.0918,93.2175071 C5817.24154,93.2175071 5817.39128,93.2175071 5817.54102,93.2175071 C5817.84049,93.0677675 5818.0651,92.9928977 5818.21484,92.9928977 C5818.36458,92.8431581 5818.51432,92.7682884 5818.66406,92.7682884 C5818.8138,92.6185488 5818.96354,92.4688092 5819.11328,92.3190696 Z M5835.73437,127.807351 C5836.03385,130.652403 5836.55794,134.919981 5837.30664,140.610085 C5835.50977,138.363991 5832.88932,134.919981 5829.44531,130.278054 C5829.89453,130.128314 5830.56836,129.903705 5831.4668,129.604226 C5831.76628,130.053445 5832.06576,130.727273 5832.36523,131.62571 C5832.81445,131.475971 5833.48828,131.176491 5834.38672,130.727273 C5834.23698,130.278054 5834.01237,129.604226 5833.71289,128.705788 C5834.16211,128.556049 5834.83594,128.25657 5835.73437,127.807351 Z M5831.4668,129.604226 C5831.91602,129.304747 5832.66471,129.005268 5833.71289,128.705788 C5833.86263,129.155007 5834.16211,129.828835 5834.61133,130.727273 C5834.01237,131.026752 5833.26367,131.326231 5832.36523,131.62571 C5832.21549,131.176491 5831.91602,130.502663 5831.4668,129.604226 Z M5812.375,90.0729759 C5812.67448,90.9714134 5813.27344,91.6452415 5814.17187,92.0944602 C5814.92057,92.543679 5815.81901,92.7682884 5816.86719,92.7682884 C5816.86719,92.7682884 5816.94206,92.9180279 5817.0918,93.2175071 C5815.89388,93.3672467 5814.8457,93.1426373 5813.94727,92.543679 C5812.89909,92.0944602 5812.15039,91.3457623 5811.70117,90.2975852 C5811.25195,88.949929 5811.32682,87.6771425 5811.92578,86.4792259 C5812.375,85.2813092 5813.27344,84.3828717 5814.62109,83.7839134 C5815.81901,83.3346946 5817.01693,83.4095644 5818.21484,84.0085227 C5819.5625,84.4577415 5820.46094,85.2813092 5820.91016,86.4792259 C5821.35937,87.6771425 5821.43424,88.8001894 5821.13477,89.8483665 C5820.68555,90.8965436 5820.01172,91.7201113 5819.11328,92.3190696 C5819.11328,92.16933 5819.03841,92.0195904 5818.88867,91.8698509 C5819.63737,91.2708925 5820.16146,90.5221946 5820.46094,89.6237571 C5820.76042,88.7253196 5820.76042,87.7520123 5820.46094,86.7038352 C5820.01172,85.6556581 5819.18815,84.9069602 5817.99023,84.4577415 C5816.94206,84.0085227 5815.89388,84.0085227 5814.8457,84.4577415 C5813.64779,84.9069602 5812.82422,85.6556581 5812.375,86.7038352 C5811.92578,87.7520123 5811.92578,88.8750592 5812.375,90.0729759 Z M5820.68555,86.2546165 C5820.83529,86.4043561 5820.91016,86.4792259 5820.91016,86.4792259 C5820.91016,86.4792259 5820.91016,86.4792259 5820.91016,86.4792259 C5820.91016,86.4792259 5820.91016,86.4792259 5820.91016,86.4792259 C5820.91016,86.4792259 5820.83529,86.4043561 5820.68555,86.2546165 Z M5821.13477,86.9284446 C5820.98503,86.9284446 5820.91016,86.8535748 5820.91016,86.7038352 C5820.91016,86.7038352 5820.91016,86.6289654 5820.91016,86.4792259 C5820.91016,86.6289654 5820.91016,86.7038352 5820.91016,86.7038352 C5820.91016,86.8535748 5820.98503,86.9284446 5821.13477,86.9284446 Z M5819.11328,92.3190696 C5818.96354,92.4688092 5818.8138,92.6185488 5818.66406,92.7682884 C5818.51432,92.7682884 5818.36458,92.8431581 5818.21484,92.9928977 C5818.0651,92.9928977 5817.84049,93.0677675 5817.54102,93.2175071 C5817.39128,93.2175071 5817.24154,93.2175071 5817.0918,93.2175071 C5816.94206,93.0677675 5816.86719,92.9180279 5816.86719,92.7682884 C5817.01693,92.6185488 5817.16667,92.543679 5817.31641,92.543679 C5817.61589,92.543679 5817.84049,92.4688092 5817.99023,92.3190696 C5818.13997,92.3190696 5818.28971,92.2441998 5818.43945,92.0944602 C5818.58919,92.0944602 5818.73893,92.0195904 5818.88867,91.8698509 C5819.03841,91.8698509 5819.11328,91.9447206 5819.11328,92.0944602 C5819.11328,92.2441998 5819.11328,92.3190696 5819.11328,92.3190696 Z M5820.46094,86.7038352 C5820.76042,87.7520123 5820.76042,88.7253196 5820.46094,89.6237571 C5820.16146,90.5221946 5819.63737,91.2708925 5818.88867,91.8698509 C5818.88867,91.7201113 5818.8138,91.4955019 5818.66406,91.1960227 C5819.26302,90.746804 5819.71224,90.1478456 5820.01172,89.3991477 C5820.16146,88.6504498 5820.08659,87.8268821 5819.78711,86.9284446 C5819.48763,86.0300071 5818.8138,85.356179 5817.76562,84.9069602 C5816.86719,84.4577415 5815.89388,84.4577415 5814.8457,84.9069602 C5813.94727,85.356179 5813.27344,86.0300071 5812.82422,86.9284446 C5812.52474,87.8268821 5812.52474,88.8001894 5812.82422,89.8483665 C5812.82422,89.8483665 5812.89909,89.9232363 5813.04883,90.0729759 C5813.04883,90.0729759 5813.04883,90.1478456 5813.04883,90.2975852 C5813.04883,90.1478456 5813.04883,90.0729759 5813.04883,90.0729759 C5812.89909,89.9232363 5812.82422,89.8483665 5812.82422,89.8483665 C5813.1237,90.5970644 5813.64779,91.1960227 5814.39648,91.6452415 C5815.14518,91.9447206 5815.89388,92.0944602 5816.64258,92.0944602 C5816.64258,92.2441998 5816.71745,92.4688092 5816.86719,92.7682884 C5815.81901,92.7682884 5814.92057,92.543679 5814.17187,92.0944602 C5813.27344,91.6452415 5812.67448,90.9714134 5812.375,90.0729759 C5811.92578,88.8750592 5811.92578,87.7520123 5812.375,86.7038352 C5812.82422,85.6556581 5813.64779,84.9069602 5814.8457,84.4577415 C5815.89388,84.0085227 5816.94206,84.0085227 5817.99023,84.4577415 C5819.18815,84.9069602 5820.01172,85.6556581 5820.46094,86.7038352 Z M5817.76562,91.8698509 C5817.91536,91.8698509 5818.0651,91.7949811 5818.21484,91.6452415 C5818.36458,91.4955019 5818.51432,91.3457623 5818.66406,91.1960227 C5818.8138,91.3457623 5818.88867,91.5703717 5818.88867,91.8698509 C5818.73893,92.0195904 5818.58919,92.0944602 5818.43945,92.0944602 C5818.28971,92.2441998 5818.13997,92.3190696 5817.99023,92.3190696 C5817.84049,92.4688092 5817.61589,92.543679 5817.31641,92.543679 C5817.16667,92.543679 5817.01693,92.6185488 5816.86719,92.7682884 C5816.71745,92.6185488 5816.64258,92.3939394 5816.64258,92.0944602 C5816.79232,92.0944602 5816.94206,92.0944602 5817.0918,92.0944602 C5817.39128,92.0944602 5817.61589,92.0195904 5817.76562,91.8698509 Z M5801.59375,81.3132102 C5801.74349,81.3132102 5801.81836,81.38808 5801.81836,81.5378196 C5801.9681,81.5378196 5802.04297,81.6126894 5802.04297,81.762429 C5802.04297,81.762429 5802.11784,81.8372988 5802.26758,81.9870384 C5802.26758,82.1367779 5802.26758,82.2116477 5802.26758,82.2116477 C5802.26758,84.1582623 5802.26758,86.4792259 5802.26758,89.1745384 C5802.26758,92.0195904 5802.26758,95.2389915 5802.26758,98.8327415 C5802.26758,98.9824811 5802.26758,99.1322206 5802.26758,99.2819602 C5802.11784,99.4316998 5801.9681,99.5065696 5801.81836,99.5065696 C5801.81836,99.6563092 5801.74349,99.731179 5801.59375,99.731179 C5801.44401,99.8809186 5801.36914,99.9557884 5801.36914,99.9557884 C5801.2194,99.9557884 5801.06966,99.8809186 5800.91992,99.731179 C5800.77018,99.731179 5800.62044,99.6563092 5800.4707,99.5065696 C5800.4707,99.5065696 5800.4707,99.4316998 5800.4707,99.2819602 C5800.32096,99.1322206 5800.24609,98.9824811 5800.24609,98.8327415 C5800.24609,97.3353456 5800.24609,95.3887311 5800.24609,92.9928977 C5800.24609,90.5970644 5800.24609,87.8268821 5800.24609,84.6823509 C5800.24609,84.6823509 5800.17122,84.7572206 5800.02148,84.9069602 C5799.87174,85.0566998 5799.72201,85.2064394 5799.57227,85.356179 C5799.57227,85.356179 5799.4974,85.4310488 5799.34766,85.5807884 C5799.19792,85.5807884 5799.04818,85.5807884 5798.89844,85.5807884 C5798.7487,85.5807884 5798.67383,85.5807884 5798.67383,85.5807884 C5798.52409,85.4310488 5798.37435,85.356179 5798.22461,85.356179 C5798.07487,85.2064394 5798,85.0566998 5798,84.9069602 C5798,84.9069602 5798,84.8320904 5798,84.6823509 C5798,84.5326113 5798,84.3828717 5798,84.2331321 C5798,84.0833925 5798.07487,84.0085227 5798.22461,84.0085227 C5798.52409,83.7090436 5798.82357,83.3346946 5799.12305,82.8854759 C5799.57227,82.5859967 5800.09635,82.1367779 5800.69531,81.5378196 C5800.69531,81.5378196 5800.77018,81.4629498 5800.91992,81.3132102 C5800.91992,81.3132102 5800.99479,81.3132102 5801.14453,81.3132102 C5801.14453,81.3132102 5801.14453,81.3132102 5801.14453,81.3132102 C5801.14453,81.3132102 5801.2194,81.3132102 5801.36914,81.3132102 C5801.36914,81.3132102 5801.36914,81.3132102 5801.36914,81.3132102 C5801.51888,81.3132102 5801.59375,81.3132102 5801.59375,81.3132102 Z M5925.12891,98.6081321 C5925.27865,98.6081321 5925.42839,98.6081321 5925.57812,98.6081321 C5925.57812,98.7578717 5925.65299,98.8327415 5925.80273,98.8327415 C5925.95247,98.9824811 5926.02734,99.1322206 5926.02734,99.2819602 C5926.02734,99.4316998 5926.02734,99.5814394 5926.02734,99.731179 C5926.02734,99.731179 5926.02734,99.8060488 5926.02734,99.9557884 C5926.02734,100.105528 5925.95247,100.255268 5925.80273,100.405007 C5925.65299,100.405007 5925.57812,100.479877 5925.57812,100.629616 C5925.42839,100.629616 5925.27865,100.629616 5925.12891,100.629616 C5924.38021,100.629616 5923.63151,100.629616 5922.88281,100.629616 C5921.98437,100.629616 5921.16081,100.629616 5920.41211,100.629616 C5919.66341,100.629616 5918.91471,100.629616 5918.16602,100.629616 C5917.26758,100.629616 5916.44401,100.629616 5915.69531,100.629616 C5915.69531,100.629616 5915.62044,100.629616 5915.4707,100.629616 C5915.4707,100.629616 5915.4707,100.554747 5915.4707,100.405007 C5915.32096,100.405007 5915.24609,100.405007 5915.24609,100.405007 C5915.09635,100.405007 5915.02148,100.330137 5915.02148,100.180398 C5915.02148,100.180398 5915.02148,100.180398 5915.02148,100.180398 C5914.87174,100.030658 5914.79687,99.9557884 5914.79687,99.9557884 C5914.79687,99.8060488 5914.79687,99.731179 5914.79687,99.731179 C5914.79687,99.731179 5914.79687,99.6563092 5914.79687,99.5065696 C5914.79687,99.5065696 5914.79687,99.5065696 5914.79687,99.5065696 C5914.79687,99.5065696 5914.79687,99.5065696 5914.79687,99.5065696 C5914.79687,99.5065696 5914.79687,99.35683 5914.79687,99.0573509 C5914.94661,98.9076113 5915.09635,98.6081321 5915.24609,98.1589134 C5915.24609,97.7096946 5915.39583,97.1856061 5915.69531,96.5866477 C5915.84505,96.137429 5916.14453,95.6133404 5916.59375,95.0143821 C5916.74349,94.7149029 5916.89323,94.4154238 5917.04297,94.1159446 C5917.34245,93.8164654 5917.64193,93.5169863 5917.94141,93.2175071 C5918.24089,92.9180279 5918.54036,92.6185488 5918.83984,92.3190696 C5919.28906,92.0195904 5919.66341,91.7949811 5919.96289,91.6452415 C5920.86133,91.0462831 5921.61003,90.5221946 5922.20898,90.0729759 C5922.6582,89.6237571 5923.03255,89.2494081 5923.33203,88.949929 C5923.48177,88.5007102 5923.63151,88.1263613 5923.78125,87.8268821 C5923.93099,87.3776634 5924.00586,87.0033144 5924.00586,86.7038352 C5924.00586,86.7038352 5923.93099,86.6289654 5923.78125,86.4792259 C5923.78125,86.3294863 5923.78125,86.2546165 5923.78125,86.2546165 C5923.78125,86.1048769 5923.78125,85.9551373 5923.78125,85.8053977 C5923.78125,85.6556581 5923.70638,85.5807884 5923.55664,85.5807884 C5923.55664,85.2813092 5923.48177,85.0566998 5923.33203,84.9069602 C5923.18229,84.7572206 5922.95768,84.6074811 5922.6582,84.4577415 C5922.35872,84.3080019 5922.05924,84.1582623 5921.75977,84.0085227 C5921.46029,84.0085227 5921.01107,84.0085227 5920.41211,84.0085227 C5920.11263,84.0085227 5919.81315,84.0085227 5919.51367,84.0085227 C5919.21419,84.1582623 5918.91471,84.3080019 5918.61523,84.4577415 C5918.31576,84.6074811 5918.09115,84.7572206 5917.94141,84.9069602 C5917.64193,85.2064394 5917.49219,85.5059186 5917.49219,85.8053977 C5917.34245,85.9551373 5917.26758,86.0300071 5917.26758,86.0300071 C5917.11784,86.1797467 5916.9681,86.2546165 5916.81836,86.2546165 C5916.66862,86.4043561 5916.51888,86.4792259 5916.36914,86.4792259 C5916.2194,86.3294863 5916.14453,86.2546165 5916.14453,86.2546165 C5915.99479,86.2546165 5915.84505,86.1797467 5915.69531,86.0300071 C5915.69531,86.0300071 5915.62044,85.9551373 5915.4707,85.8053977 C5915.4707,85.6556581 5915.4707,85.5059186 5915.4707,85.356179 C5915.4707,85.2064394 5915.54557,85.0566998 5915.69531,84.9069602 C5915.84505,84.4577415 5916.06966,84.0833925 5916.36914,83.7839134 C5916.66862,83.3346946 5917.04297,82.9603456 5917.49219,82.6608665 C5917.94141,82.5111269 5918.39062,82.3613873 5918.83984,82.2116477 C5919.4388,82.0619081 5919.96289,81.9870384 5920.41211,81.9870384 C5921.46029,81.9870384 5922.35872,82.1367779 5923.10742,82.4362571 C5923.70638,82.5859967 5924.23047,82.9603456 5924.67969,83.559304 C5925.12891,84.0085227 5925.42839,84.5326113 5925.57812,85.1315696 C5925.72786,85.7305279 5925.80273,86.3294863 5925.80273,86.9284446 C5925.80273,87.5274029 5925.72786,88.0514915 5925.57812,88.5007102 C5925.42839,89.0996686 5925.12891,89.6237571 5924.67969,90.0729759 C5924.38021,90.6719342 5923.93099,91.1960227 5923.33203,91.6452415 C5922.73307,92.2441998 5921.98437,92.7682884 5921.08594,93.2175071 C5920.48698,93.6667259 5919.88802,94.1159446 5919.28906,94.5651634 C5918.83984,95.0143821 5918.46549,95.5384706 5918.16602,96.137429 C5917.86654,96.5866477 5917.64193,97.0358665 5917.49219,97.4850852 C5917.19271,97.934304 5917.04297,98.3086529 5917.04297,98.6081321 C5917.94141,98.6081321 5919.06445,98.6081321 5920.41211,98.6081321 C5921.75977,98.6081321 5923.33203,98.6081321 5925.12891,98.6081321 Z" transform="translate(-5810 -12)"/></svg>