<svg xmlns="http://www.w3.org/2000/svg" width="120" height="203" viewBox="0 0 120 203"><path fill="#131313" d="M5265.15723,165.874023 C5263.9209,165.874023 5262.68457,165.599284 5261.44824,165.049805 C5260.34928,164.362956 5259.45638,163.401367 5258.76953,162.165039 C5258.08268,161.066081 5257.73926,159.829753 5257.73926,158.456055 C5257.73926,157.219727 5258.08268,155.983398 5258.76953,154.74707 C5273.33073,128.921549 5295.17253,90.1832682 5324.29492,38.5322266 C5311.10742,38.5322266 5291.39486,38.5322266 5265.15723,38.5322266 C5263.09668,38.5322266 5261.37956,37.7766927 5260.00586,36.265625 C5258.49479,34.8919271 5257.73926,33.1748047 5257.73926,31.1142578 C5257.73926,29.0537109 5258.49479,27.2679036 5260.00586,25.7568359 C5261.51693,24.383138 5263.23405,23.6962891 5265.15723,23.6962891 C5281.22949,23.6962891 5305.20052,23.6962891 5337.07031,23.6962891 C5338.44401,23.6962891 5339.68034,23.9710286 5340.7793,24.5205078 C5341.87826,25.2073568 5342.77116,26.1689453 5343.45801,27.4052734 C5344.14486,28.5042318 5344.48828,29.7405599 5344.48828,31.1142578 C5344.48828,32.3505859 5344.21354,33.5869141 5343.66406,34.8232422 C5329.10286,60.648763 5307.26107,99.3870443 5278.13867,151.038086 C5291.1888,151.038086 5310.83268,151.038086 5337.07031,151.038086 C5339.13086,151.038086 5340.84798,151.724935 5342.22168,153.098633 C5343.73275,154.609701 5344.48828,156.395508 5344.48828,158.456055 C5344.48828,160.516602 5343.73275,162.302409 5342.22168,163.813477 C5340.84798,165.187174 5339.13086,165.874023 5337.07031,165.874023 C5325.11914,165.874023 5313.16797,165.874023 5301.2168,165.874023 C5289.26562,165.874023 5277.24577,165.874023 5265.15723,165.874023 Z M5273.78711,48.0107422 C5273.78711,47.8733724 5273.78711,47.7360026 5273.78711,47.5986328 C5273.92448,47.3238932 5273.99316,47.1178385 5273.99316,46.9804688 C5273.99316,46.843099 5273.92448,46.6370443 5273.78711,46.3623047 C5273.78711,46.2249349 5273.78711,46.0875651 5273.78711,45.9501953 C5281.89193,45.9501953 5294.11784,45.9501953 5310.46484,45.9501953 C5307.16797,51.5823568 5302.29134,60.0992839 5295.83496,71.5009766 C5295.42285,71.226237 5294.87337,70.8828125 5294.18652,70.4707031 C5296.93392,65.5253906 5301.1237,58.038737 5306.75586,48.0107422 C5301.26107,48.0107422 5295.76628,48.0107422 5290.27148,48.0107422 C5284.77669,48.0107422 5279.2819,48.0107422 5273.78711,48.0107422 Z M5294.80469,73.3554688 C5295.07943,72.9433594 5295.42285,72.3251953 5295.83496,71.5009766 C5296.24707,71.7757161 5296.86523,72.1191406 5297.68945,72.53125 C5295.90365,74.4544271 5293.15625,77.2705078 5289.44727,80.9794922 C5289.99674,78.3694661 5290.95833,74.523112 5292.33203,69.4404297 C5292.74414,69.7151693 5293.3623,70.0585938 5294.18652,70.4707031 C5293.91178,70.8828125 5293.56836,71.5009766 5293.15625,72.3251953 C5293.56836,72.5999349 5294.11784,72.9433594 5294.80469,73.3554688 Z M5293.15625,72.3251953 C5293.29362,71.9130859 5293.56836,71.2949219 5293.98047,70.4707031 C5294.39258,70.7454427 5295.01074,71.0888672 5295.83496,71.5009766 C5295.69759,71.9130859 5295.35417,72.53125 5294.80469,73.3554688 C5294.39258,73.0807292 5293.8431,72.7373047 5293.15625,72.3251953 Z M5269.45996,51.5136719 C5268.22363,51.5136719 5267.12467,51.0328776 5266.16309,50.0712891 C5265.33887,49.2470703 5264.92676,48.2167969 5264.92676,46.9804688 C5264.92676,45.7441406 5265.33887,44.7138672 5266.16309,43.8896484 C5267.12467,42.9280599 5268.22363,42.4472656 5269.45996,42.4472656 C5270.42155,42.4472656 5271.31445,42.7906901 5272.13867,43.4775391 C5272.96289,44.164388 5273.51237,44.9886068 5273.78711,45.9501953 C5273.64974,45.9501953 5273.44368,45.9501953 5273.16895,45.9501953 C5272.89421,45.1259766 5272.41341,44.4391276 5271.72656,43.8896484 C5271.03971,43.3401693 5270.28418,43.0654297 5269.45996,43.0654297 C5268.361,43.0654297 5267.39941,43.4088542 5266.5752,44.0957031 C5265.75098,44.9199219 5265.33887,45.8815104 5265.33887,46.9804688 C5265.33887,48.0794271 5265.75098,49.0410156 5266.5752,49.8652344 C5267.39941,50.5520833 5268.361,50.8955078 5269.45996,50.8955078 C5270.28418,50.8955078 5271.03971,50.6207682 5271.72656,50.0712891 C5272.41341,49.5218099 5272.89421,48.8349609 5273.16895,48.0107422 C5273.30632,48.0107422 5273.51237,48.0107422 5273.78711,48.0107422 C5273.51237,48.9723307 5272.96289,49.7965495 5272.13867,50.4833984 C5271.31445,51.1702474 5270.42155,51.5136719 5269.45996,51.5136719 Z M5273.375,46.9804688 C5273.375,46.843099 5273.375,46.6370443 5273.375,46.3623047 C5273.375,46.2249349 5273.30632,46.0875651 5273.16895,45.9501953 C5273.30632,45.9501953 5273.51237,45.9501953 5273.78711,45.9501953 C5273.78711,46.0875651 5273.78711,46.2249349 5273.78711,46.3623047 C5273.92448,46.6370443 5273.99316,46.843099 5273.99316,46.9804688 C5273.99316,47.1178385 5273.92448,47.3238932 5273.78711,47.5986328 C5273.78711,47.7360026 5273.78711,47.8733724 5273.78711,48.0107422 C5273.64974,48.0107422 5273.44368,48.0107422 5273.16895,48.0107422 C5273.30632,47.8733724 5273.375,47.7360026 5273.375,47.5986328 C5273.375,47.3238932 5273.375,47.1178385 5273.375,46.9804688 Z M5269.45996,50.4833984 C5270.14681,50.4833984 5270.83366,50.2086589 5271.52051,49.6591797 C5272.06999,49.2470703 5272.4821,48.6975911 5272.75684,48.0107422 C5272.75684,48.0107422 5272.89421,48.0107422 5273.16895,48.0107422 C5272.89421,48.8349609 5272.41341,49.5218099 5271.72656,50.0712891 C5271.03971,50.6207682 5270.28418,50.8955078 5269.45996,50.8955078 C5268.361,50.8955078 5267.39941,50.5520833 5266.5752,49.8652344 C5265.75098,49.0410156 5265.33887,48.0794271 5265.33887,46.9804688 C5265.33887,45.8815104 5265.75098,44.9199219 5266.5752,44.0957031 C5267.39941,43.4088542 5268.361,43.0654297 5269.45996,43.0654297 C5270.28418,43.0654297 5271.03971,43.3401693 5271.72656,43.8896484 C5272.41341,44.4391276 5272.89421,45.1259766 5273.16895,45.9501953 C5273.03158,45.9501953 5272.89421,45.9501953 5272.75684,45.9501953 C5272.4821,45.2633464 5272.06999,44.7138672 5271.52051,44.3017578 C5270.83366,43.7522786 5270.14681,43.4775391 5269.45996,43.4775391 C5268.49837,43.4775391 5267.67415,43.8209635 5266.9873,44.5078125 C5266.30046,45.1946615 5265.95703,46.0188802 5265.95703,46.9804688 C5265.95703,47.9420573 5266.30046,48.766276 5266.9873,49.453125 C5267.67415,50.139974 5268.49837,50.4833984 5269.45996,50.4833984 C5269.32259,50.4833984 5269.18522,50.4833984 5269.04785,50.4833984 C5268.91048,50.4833984 5268.8418,50.4833984 5268.8418,50.4833984 C5268.8418,50.4833984 5268.91048,50.4833984 5269.04785,50.4833984 C5269.18522,50.4833984 5269.32259,50.4833984 5269.45996,50.4833984 C5269.59733,50.4833984 5269.7347,50.4833984 5269.87207,50.4833984 C5269.87207,50.4833984 5269.87207,50.4833984 5269.87207,50.4833984 C5269.87207,50.4833984 5269.87207,50.4833984 5269.87207,50.4833984 C5269.7347,50.4833984 5269.59733,50.4833984 5269.45996,50.4833984 Z M5273.16895,45.9501953 C5273.30632,46.0875651 5273.375,46.2249349 5273.375,46.3623047 C5273.375,46.6370443 5273.375,46.843099 5273.375,46.9804688 C5273.375,47.1178385 5273.375,47.3238932 5273.375,47.5986328 C5273.375,47.7360026 5273.30632,47.8733724 5273.16895,48.0107422 C5273.03158,48.0107422 5272.89421,48.0107422 5272.75684,48.0107422 C5272.75684,47.8733724 5272.75684,47.7360026 5272.75684,47.5986328 C5272.89421,47.3238932 5272.96289,47.1178385 5272.96289,46.9804688 C5272.96289,46.843099 5272.89421,46.6370443 5272.75684,46.3623047 C5272.75684,46.2249349 5272.75684,46.0875651 5272.75684,45.9501953 C5272.75684,45.9501953 5272.82552,45.9501953 5272.96289,45.9501953 C5273.10026,45.9501953 5273.16895,45.9501953 5273.16895,45.9501953 Z M5255.24219,41.8291016 C5255.24219,41.8291016 5255.31087,41.8977865 5255.44824,42.0351562 C5255.44824,42.0351562 5255.44824,42.1038411 5255.44824,42.2412109 C5255.58561,42.2412109 5255.6543,42.3098958 5255.6543,42.4472656 C5255.6543,42.5846354 5255.6543,42.6533203 5255.6543,42.6533203 C5255.6543,44.4391276 5255.6543,46.5683594 5255.6543,49.0410156 C5255.6543,51.6510417 5255.6543,54.6044922 5255.6543,57.9013672 C5255.6543,58.038737 5255.6543,58.1761068 5255.6543,58.3134766 C5255.6543,58.4508464 5255.58561,58.5195312 5255.44824,58.5195312 C5255.31087,58.656901 5255.1735,58.7255859 5255.03613,58.7255859 C5255.03613,58.8629557 5254.96745,58.9316406 5254.83008,58.9316406 C5254.69271,58.9316406 5254.55534,58.8629557 5254.41797,58.7255859 C5254.41797,58.7255859 5254.34928,58.656901 5254.21191,58.5195312 C5254.07454,58.5195312 5254.00586,58.4508464 5254.00586,58.3134766 C5254.00586,58.1761068 5254.00586,58.038737 5254.00586,57.9013672 C5254.00586,56.5276693 5254.00586,54.741862 5254.00586,52.5439453 C5254.00586,50.3460286 5254.00586,47.8046875 5254.00586,44.9199219 C5253.86849,44.9199219 5253.73112,44.9886068 5253.59375,45.1259766 C5253.59375,45.2633464 5253.52507,45.4007161 5253.3877,45.5380859 C5253.25033,45.5380859 5253.11296,45.6067708 5252.97559,45.7441406 C5252.83822,45.7441406 5252.76953,45.7441406 5252.76953,45.7441406 C5252.63216,45.7441406 5252.49479,45.7441406 5252.35742,45.7441406 C5252.22005,45.6067708 5252.08268,45.5380859 5251.94531,45.5380859 C5251.94531,45.4007161 5251.87663,45.2633464 5251.73926,45.1259766 C5251.73926,45.1259766 5251.73926,45.0572917 5251.73926,44.9199219 C5251.73926,44.7825521 5251.73926,44.6451823 5251.73926,44.5078125 C5251.87663,44.3704427 5251.94531,44.3017578 5251.94531,44.3017578 C5252.22005,44.0270182 5252.56348,43.6835938 5252.97559,43.2714844 C5253.25033,42.9967448 5253.66243,42.5846354 5254.21191,42.0351562 C5254.21191,42.0351562 5254.2806,41.9664714 5254.41797,41.8291016 C5254.55534,41.8291016 5254.62402,41.8291016 5254.62402,41.8291016 C5254.62402,41.8291016 5254.69271,41.8291016 5254.83008,41.8291016 C5254.83008,41.8291016 5254.83008,41.8291016 5254.83008,41.8291016 C5254.83008,41.8291016 5254.89876,41.8291016 5255.03613,41.8291016 C5255.03613,41.8291016 5255.10482,41.8291016 5255.24219,41.8291016 Z" transform="translate(-5240.86 -23.734)"/></svg>