<svg xmlns="http://www.w3.org/2000/svg" width="93" height="203" viewBox="0 0 93 203"><path fill="#131313" d="M6086.12337,153.576172 C6084.62598,153.576172 6083.20345,153.201823 6081.85579,152.453125 C6080.50814,151.554688 6079.53483,150.431641 6078.93587,149.083984 C6078.18717,147.586589 6077.8877,146.089193 6078.03743,144.591797 C6078.33691,143.094401 6078.93587,141.671875 6079.83431,140.324219 C6089.86686,127.895833 6104.84082,109.178385 6124.75618,84.171875 C6116.96973,84.171875 6105.21517,84.171875 6089.49251,84.171875 C6087.24642,84.171875 6085.2998,83.4231771 6083.65267,81.9257812 C6082.15527,80.2786458 6081.40658,78.3320312 6081.40658,76.0859375 C6081.40658,73.8398438 6082.15527,71.8932292 6083.65267,70.2460938 C6085.2998,68.7486979 6087.24642,68 6089.49251,68 C6101.02246,68 6118.39225,68 6141.60189,68 C6143.24902,68 6144.74642,68.374349 6146.09408,69.1230469 C6147.29199,70.0214844 6148.2653,71.1445312 6149.014,72.4921875 C6149.61296,73.9895833 6149.83757,75.4869792 6149.68783,76.984375 C6149.53809,78.4817708 6149.014,79.9042969 6148.11556,81.2519531 C6138.08301,93.6803385 6123.10905,112.397786 6103.19368,137.404297 C6112.47754,137.404297 6126.40332,137.404297 6144.97103,137.404297 C6147.21712,137.404297 6149.08887,138.152995 6150.58626,139.650391 C6152.2334,141.297526 6153.05697,143.244141 6153.05697,145.490234 C6153.05697,147.736328 6152.2334,149.682943 6150.58626,151.330078 C6149.08887,152.827474 6147.21712,153.576172 6144.97103,153.576172 C6135.08822,153.576172 6125.28027,153.576172 6115.5472,153.576172 C6105.81413,153.576172 6096.00618,153.576172 6086.12337,153.576172 Z M6089.91016,92.9316406 C6093.50391,92.9316406 6098.89453,92.9316406 6106.08203,92.9316406 C6100.39193,100.26888 6091.7819,111.125 6080.25195,125.5 C6079.80273,125.200521 6079.20378,124.751302 6078.45508,124.152344 C6083.54622,117.713542 6091.18294,108.130208 6101.36523,95.4023438 C6098.81966,95.4023438 6095.0013,95.4023438 6089.91016,95.4023438 C6089.91016,95.1028646 6089.98503,94.8782552 6090.13477,94.7285156 C6090.13477,94.578776 6090.13477,94.4290365 6090.13477,94.2792969 C6090.13477,93.9798177 6090.13477,93.7552083 6090.13477,93.6054688 C6089.98503,93.4557292 6089.91016,93.2311198 6089.91016,92.9316406 Z M6078.9043,127.296875 C6079.20378,126.847656 6079.65299,126.248698 6080.25195,125.5 C6080.70117,125.799479 6081.30013,126.248698 6082.04883,126.847656 C6079.65299,128.494792 6076.13411,131.040365 6071.49219,134.484375 C6072.6901,131.938802 6074.41211,127.970703 6076.6582,122.580078 C6077.10742,122.879557 6077.70638,123.403646 6078.45508,124.152344 C6078.1556,124.451823 6077.70638,124.975911 6077.10742,125.724609 C6077.4069,126.173828 6078.00586,126.697917 6078.9043,127.296875 Z M6077.10742,125.724609 C6077.4069,125.42513 6077.85612,124.901042 6078.45508,124.152344 C6078.9043,124.451823 6079.50326,124.901042 6080.25195,125.5 C6079.95247,125.949219 6079.50326,126.548177 6078.9043,127.296875 C6078.45508,126.997396 6077.85612,126.473307 6077.10742,125.724609 Z M6085.19336,98.546875 C6086.24154,98.546875 6087.13997,98.2473958 6087.88867,97.6484375 C6088.63737,97.0494792 6089.16146,96.3007812 6089.46094,95.4023438 C6089.46094,95.4023438 6089.61068,95.4023438 6089.91016,95.4023438 C6089.61068,96.4505208 6089.08659,97.3489583 6088.33789,98.0976562 C6087.43945,98.6966146 6086.39128,98.9960938 6085.19336,98.9960938 C6083.8457,98.9960938 6082.72266,98.546875 6081.82422,97.6484375 C6080.77604,96.6002604 6080.25195,95.4772135 6080.25195,94.2792969 C6080.25195,92.9316406 6080.77604,91.733724 6081.82422,90.6855469 C6082.72266,89.7871094 6083.8457,89.3378906 6085.19336,89.3378906 C6086.39128,89.3378906 6087.43945,89.6373698 6088.33789,90.2363281 C6089.08659,90.985026 6089.61068,91.8834635 6089.91016,92.9316406 C6089.76042,92.9316406 6089.61068,92.9316406 6089.46094,92.9316406 C6089.16146,92.0332031 6088.63737,91.2845052 6087.88867,90.6855469 C6087.13997,90.0865885 6086.24154,89.7871094 6085.19336,89.7871094 C6083.99544,89.7871094 6082.94727,90.2363281 6082.04883,91.1347656 C6081.30013,92.0332031 6080.92578,93.0813802 6080.92578,94.2792969 C6080.92578,95.327474 6081.30013,96.3007812 6082.04883,97.1992188 C6082.94727,98.0976562 6083.99544,98.546875 6085.19336,98.546875 Z M6089.91016,92.9316406 C6089.91016,93.2311198 6089.98503,93.4557292 6090.13477,93.6054688 C6090.13477,93.7552083 6090.13477,93.9798177 6090.13477,94.2792969 C6090.13477,94.4290365 6090.13477,94.578776 6090.13477,94.7285156 C6089.98503,94.8782552 6089.91016,95.1028646 6089.91016,95.4023438 C6089.76042,95.4023438 6089.61068,95.4023438 6089.46094,95.4023438 C6089.46094,95.1028646 6089.46094,94.8782552 6089.46094,94.7285156 C6089.46094,94.578776 6089.46094,94.4290365 6089.46094,94.2792969 C6089.46094,93.9798177 6089.46094,93.7552083 6089.46094,93.6054688 C6089.46094,93.4557292 6089.46094,93.2311198 6089.46094,92.9316406 C6089.46094,92.9316406 6089.53581,92.9316406 6089.68555,92.9316406 C6089.83529,92.9316406 6089.91016,92.9316406 6089.91016,92.9316406 Z M6085.19336,89.7871094 C6086.24154,89.7871094 6087.13997,90.0865885 6087.88867,90.6855469 C6088.63737,91.2845052 6089.16146,92.0332031 6089.46094,92.9316406 C6089.3112,92.9316406 6089.08659,92.9316406 6088.78711,92.9316406 C6088.48763,92.1829427 6088.03841,91.5839844 6087.43945,91.1347656 C6086.84049,90.6855469 6086.0918,90.4609375 6085.19336,90.4609375 C6084.14518,90.4609375 6083.24674,90.8352865 6082.49805,91.5839844 C6081.74935,92.3326823 6081.375,93.2311198 6081.375,94.2792969 C6081.375,95.1777344 6081.74935,96.0013021 6082.49805,96.75 C6083.24674,97.4986979 6084.14518,97.8730469 6085.19336,97.8730469 C6085.04362,97.8730469 6084.89388,97.8730469 6084.74414,97.8730469 C6084.5944,97.8730469 6084.51953,97.8730469 6084.51953,97.8730469 C6084.51953,97.8730469 6084.5944,97.8730469 6084.74414,97.8730469 C6084.89388,97.8730469 6085.04362,97.8730469 6085.19336,97.8730469 C6085.3431,97.8730469 6085.49284,97.8730469 6085.64258,97.8730469 C6085.79232,97.8730469 6085.86719,97.8730469 6085.86719,97.8730469 C6085.86719,97.8730469 6085.79232,97.8730469 6085.64258,97.8730469 C6085.49284,97.8730469 6085.3431,97.8730469 6085.19336,97.8730469 C6086.0918,97.8730469 6086.84049,97.6484375 6087.43945,97.1992188 C6088.03841,96.75 6088.48763,96.1510417 6088.78711,95.4023438 C6088.93685,95.4023438 6089.16146,95.4023438 6089.46094,95.4023438 C6089.16146,96.3007812 6088.63737,97.0494792 6087.88867,97.6484375 C6087.13997,98.2473958 6086.24154,98.546875 6085.19336,98.546875 C6083.99544,98.546875 6082.94727,98.0976562 6082.04883,97.1992188 C6081.30013,96.3007812 6080.92578,95.327474 6080.92578,94.2792969 C6080.92578,93.0813802 6081.30013,92.0332031 6082.04883,91.1347656 C6082.94727,90.2363281 6083.99544,89.7871094 6085.19336,89.7871094 Z M6089.01172,94.2792969 C6089.01172,93.9798177 6089.01172,93.7552083 6089.01172,93.6054688 C6088.86198,93.4557292 6088.78711,93.2311198 6088.78711,92.9316406 C6088.93685,92.9316406 6089.16146,92.9316406 6089.46094,92.9316406 C6089.46094,93.2311198 6089.46094,93.4557292 6089.46094,93.6054688 C6089.46094,93.7552083 6089.46094,93.9798177 6089.46094,94.2792969 C6089.46094,94.4290365 6089.46094,94.578776 6089.46094,94.7285156 C6089.46094,94.8782552 6089.46094,95.1028646 6089.46094,95.4023438 C6089.3112,95.4023438 6089.08659,95.4023438 6088.78711,95.4023438 C6088.78711,95.1028646 6088.86198,94.8782552 6089.01172,94.7285156 C6089.01172,94.578776 6089.01172,94.4290365 6089.01172,94.2792969 Z M6070.81836,84.3964844 C6070.81836,84.3964844 6070.89323,84.4713542 6071.04297,84.6210938 C6071.04297,84.6210938 6071.11784,84.6959635 6071.26758,84.8457031 C6071.26758,84.8457031 6071.26758,84.9205729 6071.26758,85.0703125 C6071.26758,85.2200521 6071.26758,85.2949219 6071.26758,85.2949219 C6071.26758,87.2415365 6071.26758,89.5625 6071.26758,92.2578125 C6071.26758,95.1028646 6071.26758,98.3222656 6071.26758,101.916016 C6071.26758,102.065755 6071.26758,102.215495 6071.26758,102.365234 C6071.26758,102.514974 6071.19271,102.589844 6071.04297,102.589844 C6070.89323,102.739583 6070.81836,102.814453 6070.81836,102.814453 C6070.66862,102.964193 6070.51888,103.039062 6070.36914,103.039062 C6070.2194,103.039062 6070.06966,102.964193 6069.91992,102.814453 C6069.91992,102.814453 6069.84505,102.739583 6069.69531,102.589844 C6069.54557,102.589844 6069.4707,102.514974 6069.4707,102.365234 C6069.4707,102.215495 6069.4707,102.065755 6069.4707,101.916016 C6069.4707,100.41862 6069.4707,98.4720052 6069.4707,96.0761719 C6069.4707,93.6803385 6069.4707,90.9101562 6069.4707,87.765625 C6069.32096,87.765625 6069.17122,87.8404948 6069.02148,87.9902344 C6069.02148,88.139974 6068.94661,88.2897135 6068.79687,88.4394531 C6068.64714,88.4394531 6068.4974,88.5143229 6068.34766,88.6640625 C6068.19792,88.6640625 6068.12305,88.6640625 6068.12305,88.6640625 C6067.97331,88.6640625 6067.82357,88.6640625 6067.67383,88.6640625 C6067.52409,88.5143229 6067.44922,88.4394531 6067.44922,88.4394531 C6067.29948,88.2897135 6067.22461,88.139974 6067.22461,87.9902344 C6067.07487,87.9902344 6067,87.9153646 6067,87.765625 C6067,87.6158854 6067.07487,87.4661458 6067.22461,87.3164062 C6067.22461,87.1666667 6067.29948,87.0917969 6067.44922,87.0917969 C6067.59896,86.7923177 6067.89844,86.4179688 6068.34766,85.96875 C6068.79687,85.6692708 6069.24609,85.2200521 6069.69531,84.6210938 C6069.69531,84.6210938 6069.77018,84.546224 6069.91992,84.3964844 C6070.06966,84.3964844 6070.14453,84.3964844 6070.14453,84.3964844 C6070.14453,84.3964844 6070.2194,84.3964844 6070.36914,84.3964844 C6070.36914,84.3964844 6070.36914,84.3964844 6070.36914,84.3964844 C6070.51888,84.3964844 6070.59375,84.3964844 6070.59375,84.3964844 C6070.59375,84.3964844 6070.66862,84.3964844 6070.81836,84.3964844 Z" transform="translate(-6069 -12)"/></svg>