<svg xmlns="http://www.w3.org/2000/svg" width="93" height="203" viewBox="0 0 93 203"><path fill="#131313" d="M6086.12337,202.576172 C6084.62598,202.576172 6083.20345,202.201823 6081.85579,201.453125 C6080.50814,200.554688 6079.53483,199.431641 6078.93587,198.083984 C6078.18717,196.586589 6077.8877,195.089193 6078.03743,193.591797 C6078.33691,192.094401 6078.93587,190.671875 6079.83431,189.324219 C6089.86686,176.895833 6104.84082,158.178385 6124.75618,133.171875 C6116.96973,133.171875 6105.21517,133.171875 6089.49251,133.171875 C6087.24642,133.171875 6085.2998,132.423177 6083.65267,130.925781 C6082.15527,129.278646 6081.40658,127.332031 6081.40658,125.085938 C6081.40658,122.839844 6082.15527,120.893229 6083.65267,119.246094 C6085.2998,117.748698 6087.24642,117 6089.49251,117 C6101.02246,117 6118.39225,117 6141.60189,117 C6143.24902,117 6144.74642,117.374349 6146.09408,118.123047 C6147.29199,119.021484 6148.2653,120.144531 6149.014,121.492188 C6149.61296,122.989583 6149.83757,124.486979 6149.68783,125.984375 C6149.53809,127.481771 6149.014,128.904297 6148.11556,130.251953 C6138.08301,142.680339 6123.10905,161.397786 6103.19368,186.404297 C6112.47754,186.404297 6126.40332,186.404297 6144.97103,186.404297 C6147.21712,186.404297 6149.08887,187.152995 6150.58626,188.650391 C6152.2334,190.297526 6153.05697,192.244141 6153.05697,194.490234 C6153.05697,196.736328 6152.2334,198.682943 6150.58626,200.330078 C6149.08887,201.827474 6147.21712,202.576172 6144.97103,202.576172 C6135.08822,202.576172 6125.28027,202.576172 6115.5472,202.576172 C6105.81413,202.576172 6096.00618,202.576172 6086.12337,202.576172 Z M6089.91016,141.931641 C6093.50391,141.931641 6098.89453,141.931641 6106.08203,141.931641 C6100.39193,149.26888 6091.7819,160.125 6080.25195,174.5 C6079.80273,174.200521 6079.20378,173.751302 6078.45508,173.152344 C6083.54622,166.713542 6091.18294,157.130208 6101.36523,144.402344 C6098.81966,144.402344 6095.0013,144.402344 6089.91016,144.402344 C6089.91016,144.102865 6089.98503,143.878255 6090.13477,143.728516 C6090.13477,143.578776 6090.13477,143.429036 6090.13477,143.279297 C6090.13477,142.979818 6090.13477,142.755208 6090.13477,142.605469 C6089.98503,142.455729 6089.91016,142.23112 6089.91016,141.931641 Z M6078.9043,176.296875 C6079.20378,175.847656 6079.65299,175.248698 6080.25195,174.5 C6080.70117,174.799479 6081.30013,175.248698 6082.04883,175.847656 C6079.65299,177.494792 6076.13411,180.040365 6071.49219,183.484375 C6072.6901,180.938802 6074.41211,176.970703 6076.6582,171.580078 C6077.10742,171.879557 6077.70638,172.403646 6078.45508,173.152344 C6078.1556,173.451823 6077.70638,173.975911 6077.10742,174.724609 C6077.4069,175.173828 6078.00586,175.697917 6078.9043,176.296875 Z M6077.10742,174.724609 C6077.4069,174.42513 6077.85612,173.901042 6078.45508,173.152344 C6078.9043,173.451823 6079.50326,173.901042 6080.25195,174.5 C6079.95247,174.949219 6079.50326,175.548177 6078.9043,176.296875 C6078.45508,175.997396 6077.85612,175.473307 6077.10742,174.724609 Z M6085.19336,147.546875 C6086.24154,147.546875 6087.13997,147.247396 6087.88867,146.648438 C6088.63737,146.049479 6089.16146,145.300781 6089.46094,144.402344 C6089.46094,144.402344 6089.61068,144.402344 6089.91016,144.402344 C6089.61068,145.450521 6089.08659,146.348958 6088.33789,147.097656 C6087.43945,147.696615 6086.39128,147.996094 6085.19336,147.996094 C6083.8457,147.996094 6082.72266,147.546875 6081.82422,146.648438 C6080.77604,145.60026 6080.25195,144.477214 6080.25195,143.279297 C6080.25195,141.931641 6080.77604,140.733724 6081.82422,139.685547 C6082.72266,138.787109 6083.8457,138.337891 6085.19336,138.337891 C6086.39128,138.337891 6087.43945,138.63737 6088.33789,139.236328 C6089.08659,139.985026 6089.61068,140.883464 6089.91016,141.931641 C6089.76042,141.931641 6089.61068,141.931641 6089.46094,141.931641 C6089.16146,141.033203 6088.63737,140.284505 6087.88867,139.685547 C6087.13997,139.086589 6086.24154,138.787109 6085.19336,138.787109 C6083.99544,138.787109 6082.94727,139.236328 6082.04883,140.134766 C6081.30013,141.033203 6080.92578,142.08138 6080.92578,143.279297 C6080.92578,144.327474 6081.30013,145.300781 6082.04883,146.199219 C6082.94727,147.097656 6083.99544,147.546875 6085.19336,147.546875 Z M6089.91016,141.931641 C6089.91016,142.23112 6089.98503,142.455729 6090.13477,142.605469 C6090.13477,142.755208 6090.13477,142.979818 6090.13477,143.279297 C6090.13477,143.429036 6090.13477,143.578776 6090.13477,143.728516 C6089.98503,143.878255 6089.91016,144.102865 6089.91016,144.402344 C6089.76042,144.402344 6089.61068,144.402344 6089.46094,144.402344 C6089.46094,144.102865 6089.46094,143.878255 6089.46094,143.728516 C6089.46094,143.578776 6089.46094,143.429036 6089.46094,143.279297 C6089.46094,142.979818 6089.46094,142.755208 6089.46094,142.605469 C6089.46094,142.455729 6089.46094,142.23112 6089.46094,141.931641 C6089.46094,141.931641 6089.53581,141.931641 6089.68555,141.931641 C6089.83529,141.931641 6089.91016,141.931641 6089.91016,141.931641 Z M6085.19336,138.787109 C6086.24154,138.787109 6087.13997,139.086589 6087.88867,139.685547 C6088.63737,140.284505 6089.16146,141.033203 6089.46094,141.931641 C6089.3112,141.931641 6089.08659,141.931641 6088.78711,141.931641 C6088.48763,141.182943 6088.03841,140.583984 6087.43945,140.134766 C6086.84049,139.685547 6086.0918,139.460938 6085.19336,139.460938 C6084.14518,139.460938 6083.24674,139.835286 6082.49805,140.583984 C6081.74935,141.332682 6081.375,142.23112 6081.375,143.279297 C6081.375,144.177734 6081.74935,145.001302 6082.49805,145.75 C6083.24674,146.498698 6084.14518,146.873047 6085.19336,146.873047 C6085.04362,146.873047 6084.89388,146.873047 6084.74414,146.873047 C6084.5944,146.873047 6084.51953,146.873047 6084.51953,146.873047 C6084.51953,146.873047 6084.5944,146.873047 6084.74414,146.873047 C6084.89388,146.873047 6085.04362,146.873047 6085.19336,146.873047 C6085.3431,146.873047 6085.49284,146.873047 6085.64258,146.873047 C6085.79232,146.873047 6085.86719,146.873047 6085.86719,146.873047 C6085.86719,146.873047 6085.79232,146.873047 6085.64258,146.873047 C6085.49284,146.873047 6085.3431,146.873047 6085.19336,146.873047 C6086.0918,146.873047 6086.84049,146.648438 6087.43945,146.199219 C6088.03841,145.75 6088.48763,145.151042 6088.78711,144.402344 C6088.93685,144.402344 6089.16146,144.402344 6089.46094,144.402344 C6089.16146,145.300781 6088.63737,146.049479 6087.88867,146.648438 C6087.13997,147.247396 6086.24154,147.546875 6085.19336,147.546875 C6083.99544,147.546875 6082.94727,147.097656 6082.04883,146.199219 C6081.30013,145.300781 6080.92578,144.327474 6080.92578,143.279297 C6080.92578,142.08138 6081.30013,141.033203 6082.04883,140.134766 C6082.94727,139.236328 6083.99544,138.787109 6085.19336,138.787109 Z M6089.01172,143.279297 C6089.01172,142.979818 6089.01172,142.755208 6089.01172,142.605469 C6088.86198,142.455729 6088.78711,142.23112 6088.78711,141.931641 C6088.93685,141.931641 6089.16146,141.931641 6089.46094,141.931641 C6089.46094,142.23112 6089.46094,142.455729 6089.46094,142.605469 C6089.46094,142.755208 6089.46094,142.979818 6089.46094,143.279297 C6089.46094,143.429036 6089.46094,143.578776 6089.46094,143.728516 C6089.46094,143.878255 6089.46094,144.102865 6089.46094,144.402344 C6089.3112,144.402344 6089.08659,144.402344 6088.78711,144.402344 C6088.78711,144.102865 6088.86198,143.878255 6089.01172,143.728516 C6089.01172,143.578776 6089.01172,143.429036 6089.01172,143.279297 Z M6070.81836,133.396484 C6070.81836,133.396484 6070.89323,133.471354 6071.04297,133.621094 C6071.04297,133.621094 6071.11784,133.695964 6071.26758,133.845703 C6071.26758,133.845703 6071.26758,133.920573 6071.26758,134.070312 C6071.26758,134.220052 6071.26758,134.294922 6071.26758,134.294922 C6071.26758,136.241536 6071.26758,138.5625 6071.26758,141.257812 C6071.26758,144.102865 6071.26758,147.322266 6071.26758,150.916016 C6071.26758,151.065755 6071.26758,151.215495 6071.26758,151.365234 C6071.26758,151.514974 6071.19271,151.589844 6071.04297,151.589844 C6070.89323,151.739583 6070.81836,151.814453 6070.81836,151.814453 C6070.66862,151.964193 6070.51888,152.039062 6070.36914,152.039062 C6070.2194,152.039062 6070.06966,151.964193 6069.91992,151.814453 C6069.91992,151.814453 6069.84505,151.739583 6069.69531,151.589844 C6069.54557,151.589844 6069.4707,151.514974 6069.4707,151.365234 C6069.4707,151.215495 6069.4707,151.065755 6069.4707,150.916016 C6069.4707,149.41862 6069.4707,147.472005 6069.4707,145.076172 C6069.4707,142.680339 6069.4707,139.910156 6069.4707,136.765625 C6069.32096,136.765625 6069.17122,136.840495 6069.02148,136.990234 C6069.02148,137.139974 6068.94661,137.289714 6068.79688,137.439453 C6068.64714,137.439453 6068.4974,137.514323 6068.34766,137.664062 C6068.19792,137.664062 6068.12305,137.664062 6068.12305,137.664062 C6067.97331,137.664062 6067.82357,137.664062 6067.67383,137.664062 C6067.52409,137.514323 6067.44922,137.439453 6067.44922,137.439453 C6067.29948,137.289714 6067.22461,137.139974 6067.22461,136.990234 C6067.07487,136.990234 6067,136.915365 6067,136.765625 C6067,136.615885 6067.07487,136.466146 6067.22461,136.316406 C6067.22461,136.166667 6067.29948,136.091797 6067.44922,136.091797 C6067.59896,135.792318 6067.89844,135.417969 6068.34766,134.96875 C6068.79688,134.669271 6069.24609,134.220052 6069.69531,133.621094 C6069.69531,133.621094 6069.77018,133.546224 6069.91992,133.396484 C6070.06966,133.396484 6070.14453,133.396484 6070.14453,133.396484 C6070.14453,133.396484 6070.2194,133.396484 6070.36914,133.396484 C6070.36914,133.396484 6070.36914,133.396484 6070.36914,133.396484 C6070.51888,133.396484 6070.59375,133.396484 6070.59375,133.396484 C6070.59375,133.396484 6070.66862,133.396484 6070.81836,133.396484 Z" transform="translate(-6069)"/></svg>