<svg xmlns="http://www.w3.org/2000/svg" width="93" height="243" viewBox="0 0 93 243"><path fill="#131313" d="M19.1233724,165.576172 C17.6259766,165.576172 16.2034505,165.201823 14.8557943,164.453125 C13.508138,163.554688 12.5348307,162.431641 11.9358724,161.083984 C11.1871745,159.586589 10.8876953,158.089193 11.0374349,156.591797 C11.3369141,155.094401 11.9358724,153.671875 12.8343099,152.324219 C22.866862,139.895833 37.8408203,121.178385 57.7561849,96.171875 C49.9697266,96.171875 38.2151693,96.171875 22.492513,96.171875 C20.2464193,96.171875 18.2998047,95.4231771 16.6526693,93.9257812 C15.1552734,92.2786458 14.4065755,90.3320312 14.4065755,88.0859375 C14.4065755,85.8398438 15.1552734,83.8932292 16.6526693,82.2460938 C18.2998047,80.7486979 20.2464193,80 22.492513,80 C34.0224609,80 51.3922526,80 74.601888,80 C76.2490234,80 77.7464193,80.374349 79.0940755,81.1230469 C80.2919922,82.0214844 81.2652995,83.1445312 82.0139974,84.4921875 C82.6129557,85.9895833 82.8375651,87.4869792 82.6878255,88.984375 C82.5380859,90.4817708 82.0139974,91.9042969 81.1155599,93.2519531 C71.0830078,105.680339 56.1090495,124.397786 36.1936849,149.404297 C45.4775391,149.404297 59.4033203,149.404297 77.9710286,149.404297 C80.2171224,149.404297 82.0888672,150.152995 83.586263,151.650391 C85.2333984,153.297526 86.0569661,155.244141 86.0569661,157.490234 C86.0569661,159.736328 85.2333984,161.682943 83.586263,163.330078 C82.0888672,164.827474 80.2171224,165.576172 77.9710286,165.576172 C68.0882161,165.576172 58.2802734,165.576172 48.5472005,165.576172 C38.8141276,165.576172 29.0061849,165.576172 19.1233724,165.576172 Z M22.9101562,104.931641 C26.5039062,104.931641 31.8945312,104.931641 39.0820312,104.931641 C33.3919271,112.26888 24.781901,123.125 13.2519531,137.5 C12.8027344,137.200521 12.203776,136.751302 11.4550781,136.152344 C16.546224,129.713542 24.1829427,120.130208 34.3652344,107.402344 C31.8196615,107.402344 28.0013021,107.402344 22.9101562,107.402344 C22.9101562,107.102865 22.985026,106.878255 23.1347656,106.728516 C23.1347656,106.578776 23.1347656,106.429036 23.1347656,106.279297 C23.1347656,105.979818 23.1347656,105.755208 23.1347656,105.605469 C22.985026,105.455729 22.9101562,105.23112 22.9101562,104.931641 Z M11.9042969,139.296875 C12.203776,138.847656 12.6529948,138.248698 13.2519531,137.5 C13.7011719,137.799479 14.3001302,138.248698 15.0488281,138.847656 C12.6529948,140.494792 9.13411458,143.040365 4.4921875,146.484375 C5.69010417,143.938802 7.41210938,139.970703 9.65820312,134.580078 C10.1074219,134.879557 10.7063802,135.403646 11.4550781,136.152344 C11.155599,136.451823 10.7063802,136.975911 10.1074219,137.724609 C10.406901,138.173828 11.0058594,138.697917 11.9042969,139.296875 Z M10.1074219,137.724609 C10.406901,137.42513 10.8561198,136.901042 11.4550781,136.152344 C11.9042969,136.451823 12.5032552,136.901042 13.2519531,137.5 C12.952474,137.949219 12.5032552,138.548177 11.9042969,139.296875 C11.4550781,138.997396 10.8561198,138.473307 10.1074219,137.724609 Z M18.1933594,110.546875 C19.2415365,110.546875 20.139974,110.247396 20.8886719,109.648438 C21.6373698,109.049479 22.1614583,108.300781 22.4609375,107.402344 C22.4609375,107.402344 22.6106771,107.402344 22.9101562,107.402344 C22.6106771,108.450521 22.0865885,109.348958 21.3378906,110.097656 C20.4394531,110.696615 19.391276,110.996094 18.1933594,110.996094 C16.8457031,110.996094 15.7226562,110.546875 14.8242188,109.648438 C13.7760417,108.60026 13.2519531,107.477214 13.2519531,106.279297 C13.2519531,104.931641 13.7760417,103.733724 14.8242188,102.685547 C15.7226562,101.787109 16.8457031,101.337891 18.1933594,101.337891 C19.391276,101.337891 20.4394531,101.63737 21.3378906,102.236328 C22.0865885,102.985026 22.6106771,103.883464 22.9101562,104.931641 C22.7604167,104.931641 22.6106771,104.931641 22.4609375,104.931641 C22.1614583,104.033203 21.6373698,103.284505 20.8886719,102.685547 C20.139974,102.086589 19.2415365,101.787109 18.1933594,101.787109 C16.9954427,101.787109 15.9472656,102.236328 15.0488281,103.134766 C14.3001302,104.033203 13.9257812,105.08138 13.9257812,106.279297 C13.9257812,107.327474 14.3001302,108.300781 15.0488281,109.199219 C15.9472656,110.097656 16.9954427,110.546875 18.1933594,110.546875 Z M22.9101562,104.931641 C22.9101562,105.23112 22.985026,105.455729 23.1347656,105.605469 C23.1347656,105.755208 23.1347656,105.979818 23.1347656,106.279297 C23.1347656,106.429036 23.1347656,106.578776 23.1347656,106.728516 C22.985026,106.878255 22.9101562,107.102865 22.9101562,107.402344 C22.7604167,107.402344 22.6106771,107.402344 22.4609375,107.402344 C22.4609375,107.102865 22.4609375,106.878255 22.4609375,106.728516 C22.4609375,106.578776 22.4609375,106.429036 22.4609375,106.279297 C22.4609375,105.979818 22.4609375,105.755208 22.4609375,105.605469 C22.4609375,105.455729 22.4609375,105.23112 22.4609375,104.931641 C22.4609375,104.931641 22.5358073,104.931641 22.6855469,104.931641 C22.8352865,104.931641 22.9101562,104.931641 22.9101562,104.931641 Z M18.1933594,101.787109 C19.2415365,101.787109 20.139974,102.086589 20.8886719,102.685547 C21.6373698,103.284505 22.1614583,104.033203 22.4609375,104.931641 C22.3111979,104.931641 22.0865885,104.931641 21.7871094,104.931641 C21.4876302,104.182943 21.0384115,103.583984 20.4394531,103.134766 C19.8404948,102.685547 19.0917969,102.460938 18.1933594,102.460938 C17.1451823,102.460938 16.2467448,102.835286 15.4980469,103.583984 C14.749349,104.332682 14.375,105.23112 14.375,106.279297 C14.375,107.177734 14.749349,108.001302 15.4980469,108.75 C16.2467448,109.498698 17.1451823,109.873047 18.1933594,109.873047 C18.0436198,109.873047 17.8938802,109.873047 17.7441406,109.873047 C17.594401,109.873047 17.5195312,109.873047 17.5195312,109.873047 C17.5195312,109.873047 17.594401,109.873047 17.7441406,109.873047 C17.8938802,109.873047 18.0436198,109.873047 18.1933594,109.873047 C18.343099,109.873047 18.4928385,109.873047 18.6425781,109.873047 C18.7923177,109.873047 18.8671875,109.873047 18.8671875,109.873047 C18.8671875,109.873047 18.7923177,109.873047 18.6425781,109.873047 C18.4928385,109.873047 18.343099,109.873047 18.1933594,109.873047 C19.0917969,109.873047 19.8404948,109.648438 20.4394531,109.199219 C21.0384115,108.75 21.4876302,108.151042 21.7871094,107.402344 C21.936849,107.402344 22.1614583,107.402344 22.4609375,107.402344 C22.1614583,108.300781 21.6373698,109.049479 20.8886719,109.648438 C20.139974,110.247396 19.2415365,110.546875 18.1933594,110.546875 C16.9954427,110.546875 15.9472656,110.097656 15.0488281,109.199219 C14.3001302,108.300781 13.9257812,107.327474 13.9257812,106.279297 C13.9257812,105.08138 14.3001302,104.033203 15.0488281,103.134766 C15.9472656,102.236328 16.9954427,101.787109 18.1933594,101.787109 Z M22.0117188,106.279297 C22.0117188,105.979818 22.0117188,105.755208 22.0117188,105.605469 C21.8619792,105.455729 21.7871094,105.23112 21.7871094,104.931641 C21.936849,104.931641 22.1614583,104.931641 22.4609375,104.931641 C22.4609375,105.23112 22.4609375,105.455729 22.4609375,105.605469 C22.4609375,105.755208 22.4609375,105.979818 22.4609375,106.279297 C22.4609375,106.429036 22.4609375,106.578776 22.4609375,106.728516 C22.4609375,106.878255 22.4609375,107.102865 22.4609375,107.402344 C22.3111979,107.402344 22.0865885,107.402344 21.7871094,107.402344 C21.7871094,107.102865 21.8619792,106.878255 22.0117188,106.728516 C22.0117188,106.578776 22.0117188,106.429036 22.0117188,106.279297 Z M3.81835938,96.3964844 C3.81835938,96.3964844 3.89322917,96.4713542 4.04296875,96.6210938 C4.04296875,96.6210938 4.11783854,96.6959635 4.26757812,96.8457031 C4.26757812,96.8457031 4.26757812,96.9205729 4.26757812,97.0703125 C4.26757812,97.2200521 4.26757812,97.2949219 4.26757812,97.2949219 C4.26757812,99.2415365 4.26757812,101.5625 4.26757812,104.257812 C4.26757812,107.102865 4.26757812,110.322266 4.26757812,113.916016 C4.26757812,114.065755 4.26757812,114.215495 4.26757812,114.365234 C4.26757812,114.514974 4.19270833,114.589844 4.04296875,114.589844 C3.89322917,114.739583 3.81835938,114.814453 3.81835938,114.814453 C3.66861979,114.964193 3.51888021,115.039062 3.36914062,115.039062 C3.21940104,115.039062 3.06966146,114.964193 2.91992188,114.814453 C2.91992188,114.814453 2.84505208,114.739583 2.6953125,114.589844 C2.54557292,114.589844 2.47070312,114.514974 2.47070312,114.365234 C2.47070312,114.215495 2.47070312,114.065755 2.47070312,113.916016 C2.47070312,112.41862 2.47070312,110.472005 2.47070312,108.076172 C2.47070312,105.680339 2.47070312,102.910156 2.47070312,99.765625 C2.32096354,99.765625 2.17122396,99.8404948 2.02148438,99.9902344 C2.02148438,100.139974 1.94661458,100.289714 1.796875,100.439453 C1.64713542,100.439453 1.49739583,100.514323 1.34765625,100.664062 C1.19791667,100.664062 1.12304688,100.664062 1.12304688,100.664062 C0.973307292,100.664062 0.823567708,100.664062 0.673828125,100.664062 C0.524088542,100.514323 0.44921875,100.439453 0.44921875,100.439453 C0.299479167,100.289714 0.224609375,100.139974 0.224609375,99.9902344 C0.0748697917,99.9902344 0,99.9153646 0,99.765625 C0,99.6158854 0.0748697917,99.4661458 0.224609375,99.3164062 C0.224609375,99.1666667 0.299479167,99.0917969 0.44921875,99.0917969 C0.598958333,98.7923177 0.8984375,98.4179688 1.34765625,97.96875 C1.796875,97.6692708 2.24609375,97.2200521 2.6953125,96.6210938 C2.6953125,96.6210938 2.77018229,96.546224 2.91992188,96.3964844 C3.06966146,96.3964844 3.14453125,96.3964844 3.14453125,96.3964844 C3.14453125,96.3964844 3.21940104,96.3964844 3.36914062,96.3964844 C3.36914062,96.3964844 3.36914062,96.3964844 3.36914062,96.3964844 C3.51888021,96.3964844 3.59375,96.3964844 3.59375,96.3964844 C3.59375,96.3964844 3.66861979,96.3964844 3.81835938,96.3964844 Z" transform="translate(-2)"/></svg>