<svg xmlns="http://www.w3.org/2000/svg" width="97" height="203" viewBox="0 0 97 203"><path fill="#131313" d="M605.743109,119.877612 C606.192328,120.027352 606.566677,120.177092 606.866156,120.326831 C607.315375,120.62631 607.689724,120.85092 607.989203,121.000659 C608.737901,119.952482 609.711208,119.054045 610.909125,118.305347 C612.107042,117.706388 613.379828,117.406909 614.727484,117.406909 C617.123318,117.406909 619.069932,118.155607 620.567328,119.653003 C622.214464,121.300138 623.038031,123.246753 623.038031,125.492847 L623.038031,194.897144 C623.038031,197.143237 622.214464,199.089852 620.567328,200.736987 C618.920193,202.234383 616.973578,202.983081 614.727484,202.983081 C612.78087,202.983081 611.058865,202.384123 609.561469,201.186206 C608.064073,199.988289 607.165635,198.416024 606.866156,196.469409 C603.571885,198.416024 599.603786,199.988289 594.961859,201.186206 C590.319932,202.384123 584.929307,202.983081 578.789984,202.983081 C572.051703,202.983081 566.286729,201.410816 561.495063,198.266284 C556.553656,195.121753 552.959906,190.629566 550.713813,184.789722 C548.916938,180.297534 548.0185,175.505868 548.0185,170.414722 C548.0185,165.922534 548.617458,161.130868 549.815375,156.039722 C552.810167,145.108732 557.976182,136.199227 565.313422,129.311206 C571.303005,123.621102 577.891547,119.952482 585.079047,118.305347 C592.416286,116.508472 599.304307,117.03256 605.743109,119.877612 Z M588.931641,133.299479 C584.888672,134.048177 580.695964,136.44401 576.353516,140.486979 C571.26237,145.128906 567.66862,151.268229 565.572266,158.904948 C563.475911,166.391927 563.475911,172.830729 565.572266,178.221354 C566.620443,180.916667 568.192708,182.863281 570.289062,184.061198 C572.385417,185.408854 575.155599,186.082682 578.599609,186.082682 C588.632161,186.082682 595.595052,184.435547 599.488281,181.141276 C603.38151,177.847005 605.702474,175.451172 606.451172,173.953776 L606.451172,146.326823 C606.451172,143.332031 605.852214,140.786458 604.654297,138.690104 C603.306641,136.59375 601.434896,135.096354 599.039062,134.197917 C596.34375,133 592.974609,132.700521 588.931641,133.299479 Z M550.6335,111.397 C551.0115,111.397 551.3085,111.505 551.5515,111.667 C551.7675,111.829 551.8755,112.099 551.8755,112.45 C551.8755,112.639 551.8485,112.801 551.8485,112.963 L551.7675,113.476 L551.6595,113.989 C551.6055,114.178 551.5515,114.34 551.5245,114.502 C551.0385,116.365 550.7415,118.255 550.5795,120.145 C550.4175,122.062 550.3635,123.952 550.3635,125.842 C550.3635,126.112 550.3635,126.436 550.4175,126.787 C550.4175,127.138 550.4715,127.462 550.5255,127.759 C550.5525,128.083 550.5795,128.38 550.6335,128.623 C550.6335,128.893 550.6605,129.055 550.6605,129.136 C550.6605,129.298 550.5255,129.433 550.3095,129.541 C550.0395,129.649 549.7965,129.703 549.5805,129.703 C549.1485,129.703 548.8245,129.595 548.5815,129.325 C548.3385,129.082 548.2305,128.758 548.2305,128.326 C548.2305,127.57 548.2575,126.679 548.3115,125.653 C548.3385,124.627 548.3925,123.601 548.4465,122.575 C548.4735,122.035 548.5275,121.414 548.5815,120.766 L548.7975,118.849 C548.8785,118.201 548.9595,117.607 549.0675,117.013 C549.1215,116.419 549.2025,115.906 549.2835,115.474 C548.9055,115.879 548.6085,116.23 548.3385,116.527 C548.0685,116.824 547.8525,117.04 547.7175,117.175 L547.1775,117.769 C546.9615,118.012 546.7995,118.201 546.6645,118.363 C546.4485,118.579 546.2595,118.741 546.0705,118.849 C545.8545,118.957 545.6385,119.011 545.3955,119.011 C545.0715,119.011 544.7475,118.93 544.4775,118.714 C544.1535,118.525 544.0185,118.282 544.0185,117.958 C544.0185,117.877 544.0455,117.796 544.1535,117.688 C544.2345,117.607 544.3425,117.526 544.4775,117.418 L544.7205,117.256 C544.7745,117.202 544.8555,117.175 544.9365,117.121 L545.1525,117.013 L545.3415,116.851 C545.9085,116.311 546.5025,115.717 547.1235,115.042 C547.7175,114.394 548.2575,113.746 548.7705,113.152 C548.9325,112.963 549.1215,112.747 549.2835,112.531 C549.4185,112.315 549.5805,112.126 549.7965,111.91 C549.8775,111.829 550.0125,111.721 550.1745,111.586 C550.3365,111.478 550.4715,111.397 550.6335,111.397 Z M601.75,102.7 C604.09721,102.7 606,104.60279 606,106.95 C606,109.29721 604.09721,111.2 601.75,111.2 C599.826233,111.2 598.201,109.92182 597.677217,108.168375 L597.740234,108.171875 C593.098307,107.872396 588.45638,108.321615 583.814453,109.519531 C579.26237,110.515299 574.912996,112.254338 570.766333,114.736646 L570.113281,115.134766 C570.41276,115.434245 570.861979,115.958333 571.460938,116.707031 C568.765625,117.755208 564.797526,119.402344 559.556641,121.648438 C561.203776,119.402344 563.749349,115.958333 567.193359,111.316406 C567.462891,111.720703 567.914355,112.246289 568.547754,112.893164 L568.765625,113.113281 C573.407552,110.417969 578.199219,108.471354 583.140625,107.273438 C588.114087,105.956933 592.944652,105.49781 597.63232,105.89607 C598.099589,104.059417 599.76604,102.7 601.75,102.7 Z M601.75,103.7 C599.955075,103.7 598.5,105.155075 598.5,106.95 C598.5,108.744925 599.955075,110.2 601.75,110.2 C603.544925,110.2 605,108.744925 605,106.95 C605,105.155075 603.544925,103.7 601.75,103.7 Z M633.75,126.7 C636.09721,126.7 638,128.60279 638,130.95 C638,132.934322 636.640088,134.601018 634.801408,135.068945 L634.800781,181.84375 L632.554688,181.84375 L632.554881,135.029657 C630.789493,134.513347 629.5,132.882262 629.5,130.95 C629.5,128.60279 631.40279,126.7 633.75,126.7 Z M633.75,127.7 C631.955075,127.7 630.5,129.155075 630.5,130.95 C630.5,132.744925 631.955075,134.2 633.75,134.2 C635.544925,134.2 637,132.744925 637,130.95 C637,129.155075 635.544925,127.7 633.75,127.7 Z M632.554688,184.089844 C632.554688,183.640625 632.554688,182.891927 632.554688,181.84375 C632.105469,181.84375 631.356771,181.84375 630.308594,181.84375 C631.057292,184.688802 632.180339,188.88151 633.677734,194.421875 C634.426432,191.576823 635.549479,187.384115 637.046875,181.84375 C636.447917,181.84375 635.699219,181.84375 634.800781,181.84375 C634.800781,182.292969 634.800781,183.041667 634.800781,184.089844 C634.351562,184.089844 633.602865,184.089844 632.554688,184.089844 Z M632.554688,184.089844 C633.003906,184.089844 633.752604,184.089844 634.800781,184.089844 C634.800781,183.640625 634.800781,182.891927 634.800781,181.84375 C634.351562,181.84375 633.602865,181.84375 632.554688,181.84375 C632.554688,182.292969 632.554688,183.041667 632.554688,184.089844 Z M657.9795,136.353 C657.9795,135.975 657.8445,135.651 657.6015,135.327 C657.3585,135.003 657.0885,134.841 656.7645,134.841 C656.5215,134.841 656.2785,134.868 656.0625,134.922 L655.6845,135.003 L655.3065,135.057 C654.7125,135.111 654.1185,135.165 653.4975,135.165 C652.8495,135.165 652.2555,135.192 651.6885,135.219 C651.1485,135.273 650.5815,135.3 649.9875,135.327 C649.3935,135.381 648.6375,135.435 647.7465,135.543 C648.3675,135.03 648.8805,134.571 649.2855,134.193 L650.3925,133.14 L652.2015,131.385 C652.7955,130.791 653.3895,130.224 654.0105,129.63 C654.7665,128.874 655.3605,128.01 655.7655,127.011 C656.1435,126.039 656.3325,125.013 656.3325,123.906 C656.3325,123.339 656.1975,122.772 655.9545,122.205 C655.6845,121.665 655.3335,121.152 654.9015,120.693 C654.4425,120.261 653.9025,119.91 653.2815,119.64 C652.6605,119.37 651.9855,119.235 651.2835,119.235 C650.5005,119.235 649.7445,119.343 648.9885,119.559 C648.2325,119.802 647.5575,120.18 646.9635,120.693 C646.7475,120.855 646.5585,121.098 646.3425,121.368 C646.1265,121.665 645.9105,121.962 645.7485,122.286 C645.5595,122.61 645.3975,122.934 645.2895,123.258 C645.1545,123.582 645.1005,123.879 645.1005,124.122 C645.1005,124.446 645.2085,124.689 645.4785,124.905 C645.7215,125.148 645.9645,125.256 646.2345,125.256 C646.4235,125.256 646.5855,125.229 646.7205,125.121 C646.8285,125.04 646.9635,124.905 647.1255,124.743 C647.1795,124.662 647.2605,124.527 647.3415,124.365 C647.4225,124.23 647.5035,124.068 647.5845,123.906 C647.6385,123.771 647.7195,123.609 647.7735,123.447 C647.8275,123.285 647.8815,123.15 647.9895,122.988 C648.3675,122.34 648.7995,121.854 649.2855,121.476 C649.7445,121.125 650.3925,120.936 651.2025,120.936 C651.6345,120.936 652.0665,121.044 652.4445,121.206 C652.8225,121.395 653.1465,121.638 653.4435,121.935 C653.7135,122.259 653.9295,122.61 654.0915,122.988 C654.2535,123.393 654.3345,123.798 654.3345,124.23 C654.3345,124.77 654.2535,125.256 654.0915,125.715 C653.9295,126.201 653.7405,126.633 653.4975,127.038 C653.2545,127.47 652.9845,127.848 652.6875,128.199 C652.3635,128.577 652.0125,128.928 651.6885,129.252 L649.1235,131.655 C648.2865,132.465 647.3955,133.221 646.4775,133.95 C646.2075,134.166 645.9915,134.355 645.7755,134.571 C645.5595,134.787 645.3705,135.003 645.1545,135.219 C644.9655,135.408 644.8035,135.597 644.6955,135.759 C644.5875,135.975 644.5335,136.191 644.5335,136.434 C644.5335,136.812 644.6685,137.109 644.9655,137.298 C645.2355,137.514 645.5325,137.595 645.8835,137.595 C646.0995,137.595 646.3425,137.568 646.6125,137.514 C646.7475,137.487 646.8825,137.46 647.0175,137.433 C647.1255,137.406 647.2605,137.379 647.3955,137.352 C648.4215,137.217 649.4745,137.109 650.5815,137.001 C651.6615,136.893 652.7145,136.839 653.7405,136.839 C654.3075,136.839 654.9015,136.893 655.4955,136.974 C656.0625,137.082 656.6295,137.109 657.2235,137.109 C657.3855,137.109 657.5475,137.055 657.7095,136.893 C657.8715,136.785 657.9795,136.596 657.9795,136.353 Z M574.512,66 C575.856,66 578.32,67.344 581.904,69.808 C585.264,72.496 588.848,75.408 592.432,78.544 C596.016,82.128 599.152,85.488 601.84,88.624 C604.528,91.984 605.872,94.448 605.872,96.016 C605.872,98.256 604.304,99.152 601.616,99.152 C599.824,99.152 597.584,98.48 594.448,96.912 C591.312,95.344 588.176,93.328 584.816,91.088 C581.232,88.848 578.096,86.608 575.184,84.368 C572.048,82.128 569.808,80.112 568.464,78.544 C566.672,76.976 566,75.408 566,73.84 C566,71.6 566.672,69.808 568.464,68.24 C570.256,66.896 572.272,66 574.512,66 Z M585.75,55.5 C588.09721,55.5 590,57.4027898 590,59.75 C590,60.3281249 589.884567,60.8792889 589.675492,61.3817012 L602.6345,71.17 L604.449331,69.078818 L612.81234,79.320067 L599.5,74.7836473 L601.3205,72.684 L588.494334,62.9952885 C587.75389,63.6220647 586.796081,64 585.75,64 C583.40279,64 581.5,62.0972102 581.5,59.75 C581.5,57.4027898 583.40279,55.5 585.75,55.5 Z M585.75,56.5 C583.955075,56.5 582.5,57.9550746 582.5,59.75 C582.5,61.5449254 583.955075,63 585.75,63 C587.544925,63 589,61.5449254 589,59.75 C589,57.9550746 587.544925,56.5 585.75,56.5 Z M567.9315,40.262 C568.5795,40.262 569.2275,40.343 569.8755,40.451 C570.5235,40.586 571.1175,40.802 571.6575,41.099 C572.1975,41.423 572.6295,41.855 572.9535,42.368 C573.2775,42.908 573.4395,43.556 573.4395,44.312 C573.4395,45.149 573.2505,45.851 572.8995,46.445 C572.5215,47.039 571.9005,47.633 571.0365,48.2 C571.6845,48.362 572.3055,48.578 572.8455,48.821 C573.3855,49.064 573.8715,49.361 574.2765,49.685 C574.6545,50.063 574.9785,50.468 575.2215,50.927 C575.4375,51.413 575.5455,51.953 575.5455,52.547 C575.5455,53.573 575.3295,54.464 574.8975,55.22 C574.4385,56.003 573.8715,56.651 573.1695,57.191 C572.4675,57.731 571.6575,58.109 570.7935,58.379 C569.9025,58.676 569.0115,58.811 568.1475,58.811 C567.8235,58.811 567.4455,58.784 567.0135,58.703 C566.5545,58.649 566.0955,58.568 565.6365,58.46 C565.1505,58.352 564.6915,58.244 564.2595,58.082 C563.8005,57.947 563.4225,57.785 563.0985,57.623 C562.8285,57.488 562.5855,57.299 562.3695,57.029 C562.1265,56.813 562.0185,56.516 562.0185,56.192 C562.0185,55.895 562.0995,55.652 562.3155,55.463 C562.5045,55.274 562.7205,55.166 562.9905,55.166 C563.1255,55.166 563.3145,55.247 563.5305,55.355 C563.6115,55.409 563.7195,55.463 563.8275,55.517 C563.9355,55.571 564.0705,55.652 564.2325,55.733 C564.4755,55.895 564.7185,56.03 564.9615,56.165 C565.2045,56.327 565.4745,56.435 565.7445,56.516 C566.5005,56.813 567.2295,56.948 567.9045,56.948 C568.4985,56.948 569.0925,56.867 569.7135,56.678 C570.3345,56.516 570.9015,56.246 571.3875,55.895 C571.8735,55.544 572.3055,55.085 572.6295,54.545 C572.9265,54.032 573.0885,53.411 573.0885,52.682 C573.0885,52.25 572.9805,51.845 572.7915,51.494 C572.5755,51.17 572.3325,50.873 572.0355,50.63 C571.7115,50.414 571.3875,50.225 571.0095,50.063 C570.6315,49.901 570.2805,49.793 569.9295,49.685 C569.7405,49.658 569.5515,49.604 569.3895,49.55 C569.2005,49.496 569.0115,49.469 568.8225,49.469 C568.5795,49.469 568.3635,49.496 568.1475,49.55 C567.9315,49.604 567.7155,49.685 567.4995,49.766 C567.2835,49.847 567.0945,49.928 566.8785,49.982 C566.6625,50.063 566.4465,50.09 566.2305,50.09 C565.9335,50.09 565.6635,49.982 565.3935,49.739 C565.0965,49.496 564.9615,49.226 564.9615,48.902 C564.9615,48.632 565.0425,48.416 565.2045,48.254 C565.2855,48.173 565.4475,48.092 565.7175,48.011 C565.9605,47.957 566.2035,47.903 566.4735,47.903 L566.8785,47.903 C567.2025,47.903 567.4995,47.876 567.7965,47.795 C568.0935,47.741 568.4445,47.606 568.8765,47.417 C569.2815,47.255 569.6595,47.012 570.0375,46.715 C570.4155,46.418 570.7125,46.067 570.9825,45.635 C571.2255,45.257 571.3605,44.771 571.3605,44.231 C571.3605,43.799 571.2525,43.448 571.0905,43.151 C570.9015,42.881 570.6855,42.665 570.4155,42.503 C570.1185,42.341 569.7945,42.233 569.4435,42.179 C569.0925,42.125 568.7685,42.071 568.4445,42.071 C568.0125,42.071 567.5535,42.179 567.1215,42.368 C566.6355,42.584 566.2305,42.773 565.8525,42.962 C565.6635,43.07 565.5015,43.151 565.3395,43.232 L564.8535,43.475 C564.5025,43.637 564.2055,43.691 563.9895,43.691 C563.7465,43.691 563.5305,43.583 563.3415,43.367 C563.1255,43.151 563.0445,42.881 563.0445,42.584 C563.0445,42.314 563.1795,42.017 563.5035,41.747 C563.8275,41.477 564.2325,41.207 564.7185,40.991 C565.2045,40.775 565.7175,40.613 566.3115,40.451 C566.8785,40.343 567.4185,40.262 567.9315,40.262 Z" transform="translate(-537)"/></svg>