<svg xmlns="http://www.w3.org/2000/svg" width="97" height="243" viewBox="0 0 97 243"><path fill="#131313" d="M68.7246094,82.6156124 C69.1738281,82.765352 69.5481771,82.9150916 69.8476562,83.0648311 C70.296875,83.3643103 70.671224,83.5889197 70.9707031,83.7386593 C71.719401,82.6904822 72.6927083,81.7920447 73.890625,81.0433468 C75.0885417,80.4443884 76.3613281,80.1449093 77.7089844,80.1449093 C80.1048177,80.1449093 82.0514323,80.8936072 83.5488281,82.391003 C85.1959635,84.0381384 86.0195312,85.984753 86.0195312,88.2308468 L86.0195312,157.635144 C86.0195312,159.881237 85.1959635,161.827852 83.5488281,163.474987 C81.9016927,164.972383 79.9550781,165.721081 77.7089844,165.721081 C75.7623698,165.721081 74.0403646,165.122123 72.5429688,163.924206 C71.0455729,162.726289 70.1471354,161.154024 69.8476562,159.207409 C66.5533854,161.154024 62.5852865,162.726289 57.9433594,163.924206 C53.3014323,165.122123 47.9108073,165.721081 41.7714844,165.721081 C35.0332031,165.721081 29.2682292,164.148816 24.4765625,161.004284 C19.5351562,157.859753 15.9414062,153.367566 13.6953125,147.527722 C11.8984375,143.035534 11,138.243868 11,133.152722 C11,128.660534 11.5989583,123.868868 12.796875,118.777722 C15.7916667,107.846732 20.9576823,98.937227 28.2949219,92.0492061 C34.2845052,86.359102 40.8730469,82.6904822 48.0605469,81.0433468 C55.3977865,79.2464718 62.2858073,79.7705603 68.7246094,82.6156124 Z M51.9316406,96.2994792 C47.8886719,97.0481771 43.6959635,99.4440104 39.3535156,103.486979 C34.2623698,108.128906 30.6686198,114.268229 28.5722656,121.904948 C26.4759115,129.391927 26.4759115,135.830729 28.5722656,141.221354 C29.6204427,143.916667 31.1927083,145.863281 33.2890625,147.061198 C35.3854167,148.408854 38.155599,149.082682 41.5996094,149.082682 C51.6321615,149.082682 58.5950521,147.435547 62.4882813,144.141276 C66.3815104,140.847005 68.702474,138.451172 69.4511719,136.953776 L69.4511719,109.326823 C69.4511719,106.332031 68.8522135,103.786458 67.6542969,101.690104 C66.3066406,99.59375 64.4348958,98.0963542 62.0390625,97.1979167 C59.34375,96 55.9746094,95.7005208 51.9316406,96.2994792 Z M13.6335,74.397 C14.0115,74.397 14.3085,74.505 14.5515,74.667 C14.7675,74.829 14.8755,75.099 14.8755,75.45 C14.8755,75.639 14.8485,75.801 14.8485,75.963 L14.7675,76.476 L14.6595,76.989 C14.6055,77.178 14.5515,77.34 14.5245,77.502 C14.0385,79.365 13.7415,81.255 13.5795,83.145 C13.4175,85.062 13.3635,86.952 13.3635,88.842 C13.3635,89.112 13.3635,89.436 13.4175,89.787 C13.4175,90.138 13.4715,90.462 13.5255,90.759 C13.5525,91.083 13.5795,91.38 13.6335,91.623 C13.6335,91.893 13.6605,92.055 13.6605,92.136 C13.6605,92.298 13.5255,92.433 13.3095,92.541 C13.0395,92.649 12.7965,92.703 12.5805,92.703 C12.1485,92.703 11.8245,92.595 11.5815,92.325 C11.3385,92.082 11.2305,91.758 11.2305,91.326 C11.2305,90.57 11.2575,89.679 11.3115,88.653 C11.3385,87.627 11.3925,86.601 11.4465,85.575 C11.4735,85.035 11.5275,84.414 11.5815,83.766 L11.7975,81.849 C11.8785,81.201 11.9595,80.607 12.0675,80.013 C12.1215,79.419 12.2025,78.906 12.2835,78.474 C11.9055,78.879 11.6085,79.23 11.3385,79.527 C11.0685,79.824 10.8525,80.04 10.7175,80.175 L10.1775,80.769 C9.9615,81.012 9.7995,81.201 9.6645,81.363 C9.4485,81.579 9.2595,81.741 9.0705,81.849 C8.8545,81.957 8.6385,82.011 8.3955,82.011 C8.0715,82.011 7.7475,81.93 7.4775,81.714 C7.1535,81.525 7.0185,81.282 7.0185,80.958 C7.0185,80.877 7.0455,80.796 7.1535,80.688 C7.2345,80.607 7.3425,80.526 7.4775,80.418 L7.7205,80.256 C7.7745,80.202 7.8555,80.175 7.9365,80.121 L8.1525,80.013 L8.3415,79.851 C8.9085,79.311 9.5025,78.717 10.1235,78.042 C10.7175,77.394 11.2575,76.746 11.7705,76.152 C11.9325,75.963 12.1215,75.747 12.2835,75.531 C12.4185,75.315 12.5805,75.126 12.7965,74.91 C12.8775,74.829 13.0125,74.721 13.1745,74.586 C13.3365,74.478 13.4715,74.397 13.6335,74.397 Z M64.75,65.7 C67.0972102,65.7 69,67.6027898 69,69.95 C69,72.2972102 67.0972102,74.2 64.75,74.2 C62.8262327,74.2 61.2010003,72.9218203 60.6772171,71.1683752 L60.7402344,71.171875 C56.0983073,70.8723958 51.4563802,71.3216146 46.8144531,72.5195312 C42.2623698,73.5152995 37.9129964,75.2543376 33.766333,77.7366455 L33.1132813,78.1347656 C33.4127604,78.4342448 33.8619792,78.9583333 34.4609375,79.7070312 C31.765625,80.7552083 27.797526,82.4023438 22.5566406,84.6484375 C24.203776,82.4023438 26.749349,78.9583333 30.1933594,74.3164062 C30.4628906,74.7207031 30.9143555,75.2462891 31.5477539,75.8931641 L31.765625,76.1132812 C36.4075521,73.4179688 41.1992188,71.4713542 46.140625,70.2734375 C51.1140871,68.9569328 55.9446522,68.4978103 60.6323203,68.8960698 C61.0995887,67.059417 62.7660399,65.7 64.75,65.7 Z M64.75,66.7 C62.9550746,66.7 61.5,68.1550746 61.5,69.95 C61.5,71.7449254 62.9550746,73.2 64.75,73.2 C66.5449254,73.2 68,71.7449254 68,69.95 C68,68.1550746 66.5449254,66.7 64.75,66.7 Z M96.75,89.7 C99.0972102,89.7 101,91.6027898 101,93.95 C101,95.9343215 99.6400876,97.6010185 97.8014085,98.0689451 L97.8007813,144.84375 L95.5546875,144.84375 L95.554881,98.0296571 C93.789493,97.5133472 92.5,95.8822622 92.5,93.95 C92.5,91.6027898 94.4027898,89.7 96.75,89.7 Z M96.75,90.7 C94.9550746,90.7 93.5,92.1550746 93.5,93.95 C93.5,95.7449254 94.9550746,97.2 96.75,97.2 C98.5449254,97.2 100,95.7449254 100,93.95 C100,92.1550746 98.5449254,90.7 96.75,90.7 Z M95.5546875,147.089844 C95.5546875,146.640625 95.5546875,145.891927 95.5546875,144.84375 C95.1054688,144.84375 94.3567708,144.84375 93.3085938,144.84375 C94.0572917,147.688802 95.1803385,151.88151 96.6777344,157.421875 C97.4264323,154.576823 98.5494792,150.384115 100.046875,144.84375 C99.4479167,144.84375 98.6992188,144.84375 97.8007813,144.84375 C97.8007813,145.292969 97.8007813,146.041667 97.8007813,147.089844 C97.3515625,147.089844 96.6028646,147.089844 95.5546875,147.089844 Z M95.5546875,147.089844 C96.0039063,147.089844 96.7526042,147.089844 97.8007813,147.089844 C97.8007813,146.640625 97.8007813,145.891927 97.8007813,144.84375 C97.3515625,144.84375 96.6028646,144.84375 95.5546875,144.84375 C95.5546875,145.292969 95.5546875,146.041667 95.5546875,147.089844 Z M120.9795,99.353 C120.9795,98.975 120.8445,98.651 120.6015,98.327 C120.3585,98.003 120.0885,97.841 119.7645,97.841 C119.5215,97.841 119.2785,97.868 119.0625,97.922 L118.6845,98.003 L118.3065,98.057 C117.7125,98.111 117.1185,98.165 116.4975,98.165 C115.8495,98.165 115.2555,98.192 114.6885,98.219 C114.1485,98.273 113.5815,98.3 112.9875,98.327 C112.3935,98.381 111.6375,98.435 110.7465,98.543 C111.3675,98.03 111.8805,97.571 112.2855,97.193 L113.3925,96.14 L115.2015,94.385 C115.7955,93.791 116.3895,93.224 117.0105,92.63 C117.7665,91.874 118.3605,91.01 118.7655,90.011 C119.1435,89.039 119.3325,88.013 119.3325,86.906 C119.3325,86.339 119.1975,85.772 118.9545,85.205 C118.6845,84.665 118.3335,84.152 117.9015,83.693 C117.4425,83.261 116.9025,82.91 116.2815,82.64 C115.6605,82.37 114.9855,82.235 114.2835,82.235 C113.5005,82.235 112.7445,82.343 111.9885,82.559 C111.2325,82.802 110.5575,83.18 109.9635,83.693 C109.7475,83.855 109.5585,84.098 109.3425,84.368 C109.1265,84.665 108.9105,84.962 108.7485,85.286 C108.5595,85.61 108.3975,85.934 108.2895,86.258 C108.1545,86.582 108.1005,86.879 108.1005,87.122 C108.1005,87.446 108.2085,87.689 108.4785,87.905 C108.7215,88.148 108.9645,88.256 109.2345,88.256 C109.4235,88.256 109.5855,88.229 109.7205,88.121 C109.8285,88.04 109.9635,87.905 110.1255,87.743 C110.1795,87.662 110.2605,87.527 110.3415,87.365 C110.4225,87.23 110.5035,87.068 110.5845,86.906 C110.6385,86.771 110.7195,86.609 110.7735,86.447 C110.8275,86.285 110.8815,86.15 110.9895,85.988 C111.3675,85.34 111.7995,84.854 112.2855,84.476 C112.7445,84.125 113.3925,83.936 114.2025,83.936 C114.6345,83.936 115.0665,84.044 115.4445,84.206 C115.8225,84.395 116.1465,84.638 116.4435,84.935 C116.7135,85.259 116.9295,85.61 117.0915,85.988 C117.2535,86.393 117.3345,86.798 117.3345,87.23 C117.3345,87.77 117.2535,88.256 117.0915,88.715 C116.9295,89.201 116.7405,89.633 116.4975,90.038 C116.2545,90.47 115.9845,90.848 115.6875,91.199 C115.3635,91.577 115.0125,91.928 114.6885,92.252 L112.1235,94.655 C111.2865,95.465 110.3955,96.221 109.4775,96.95 C109.2075,97.166 108.9915,97.355 108.7755,97.571 C108.5595,97.787 108.3705,98.003 108.1545,98.219 C107.9655,98.408 107.8035,98.597 107.6955,98.759 C107.5875,98.975 107.5335,99.191 107.5335,99.434 C107.5335,99.812 107.6685,100.109 107.9655,100.298 C108.2355,100.514 108.5325,100.595 108.8835,100.595 C109.0995,100.595 109.3425,100.568 109.6125,100.514 C109.7475,100.487 109.8825,100.46 110.0175,100.433 C110.1255,100.406 110.2605,100.379 110.3955,100.352 C111.4215,100.217 112.4745,100.109 113.5815,100.001 C114.6615,99.893 115.7145,99.839 116.7405,99.839 C117.3075,99.839 117.9015,99.893 118.4955,99.974 C119.0625,100.082 119.6295,100.109 120.2235,100.109 C120.3855,100.109 120.5475,100.055 120.7095,99.893 C120.8715,99.785 120.9795,99.596 120.9795,99.353 Z M74.46,32.328 C76.7,32.328 78.716,33.224 80.508,34.568 C82.076,36.136 82.972,37.928 82.972,40.168 C82.972,41.736 82.076,43.304 80.508,44.872 C79.164,46.44 76.924,48.232 73.788,50.472 C70.652,52.936 67.516,55.176 64.156,57.416 C60.572,59.656 57.436,61.672 54.3,63.016 C51.164,64.808 48.7,65.48 47.356,65.48 C44.444,65.48 43.1,64.584 43.1,62.344 C43.1,60.776 44.444,58.312 47.132,54.952 C49.82,51.816 52.956,48.456 56.54,45.096 C60.124,41.736 63.484,38.824 67.068,36.136 C70.428,33.672 72.892,32.328 74.46,32.328 Z M61.6742474,24.7312362 L55.1362041,35.1174964 L54.0605,34.022 L39.4837347,48.7181103 C39.8129257,49.3217416 40,50.0140241 40,50.75 C40,53.0972102 38.0972102,55 35.75,55 C33.4027898,55 31.5,53.0972102 31.5,50.75 C31.5,48.4027898 33.4027898,46.5 35.75,46.5 C36.5638714,46.5 37.3243108,46.7287697 37.9705217,47.1255125 L52.5215,32.456 L51.4057489,31.3197489 L61.6742474,24.7312362 Z M35.75,47.5 C33.9550746,47.5 32.5,48.9550746 32.5,50.75 C32.5,52.5449254 33.9550746,54 35.75,54 C37.5449254,54 39,52.5449254 39,50.75 C39,50.0452928 38.77571,49.3929714 38.3946216,48.8605271 L37.9328122,48.3420989 C37.355931,47.8188279 36.5901986,47.5 35.75,47.5 Z M30.7635,35.547 C30.7635,34.953 30.6555,34.413 30.4395,33.927 C30.1965,33.468 29.8725,33.063 29.4945,32.685 C29.0895,32.361 28.6035,32.064 28.0635,31.821 C27.5235,31.578 26.9025,31.362 26.2545,31.2 C27.1185,30.633 27.7395,30.039 28.1175,29.445 C28.4685,28.851 28.6575,28.149 28.6575,27.312 C28.6575,26.556 28.4955,25.908 28.1715,25.368 C27.8475,24.855 27.4155,24.423 26.8755,24.099 C26.3355,23.802 25.7415,23.586 25.0935,23.451 C24.4455,23.343 23.7975,23.262 23.1495,23.262 C22.6365,23.262 22.0965,23.343 21.5295,23.451 C20.9355,23.613 20.4225,23.775 19.9365,23.991 C19.4505,24.207 19.0455,24.477 18.7215,24.747 C18.3975,25.017 18.2625,25.314 18.2625,25.584 C18.2625,25.881 18.3435,26.151 18.5595,26.367 C18.7485,26.583 18.9645,26.691 19.2075,26.691 C19.4235,26.691 19.7205,26.637 20.0715,26.475 L20.5575,26.232 C20.7195,26.151 20.8815,26.07 21.0705,25.962 C21.4485,25.773 21.8535,25.584 22.3395,25.368 C22.7715,25.179 23.2305,25.071 23.6625,25.071 C23.9865,25.071 24.3105,25.125 24.6615,25.179 C25.0125,25.233 25.3365,25.341 25.6335,25.503 C25.9035,25.665 26.1195,25.881 26.3085,26.151 C26.4705,26.448 26.5785,26.799 26.5785,27.231 C26.5785,27.771 26.4435,28.257 26.2005,28.635 C25.9305,29.067 25.6335,29.418 25.2555,29.715 C24.8775,30.012 24.4995,30.255 24.0945,30.417 C23.6625,30.606 23.3115,30.741 23.0145,30.795 C22.7175,30.876 22.4205,30.903 22.0965,30.903 L21.6915,30.903 C21.4215,30.903 21.1785,30.957 20.9355,31.011 C20.6655,31.092 20.5035,31.173 20.4225,31.254 C20.2605,31.416 20.1795,31.632 20.1795,31.902 C20.1795,32.226 20.3145,32.496 20.6115,32.739 C20.8815,32.982 21.1515,33.09 21.4485,33.09 C21.6645,33.09 21.8805,33.063 22.0965,32.982 C22.3125,32.928 22.5015,32.847 22.7175,32.766 C22.9335,32.685 23.1495,32.604 23.3655,32.55 C23.5815,32.496 23.7975,32.469 24.0405,32.469 C24.2295,32.469 24.4185,32.496 24.6075,32.55 C24.7695,32.604 24.9585,32.658 25.1475,32.685 C25.4985,32.793 25.8495,32.901 26.2275,33.063 C26.6055,33.225 26.9295,33.414 27.2535,33.63 C27.5505,33.873 27.7935,34.17 28.0095,34.494 C28.1985,34.845 28.3065,35.25 28.3065,35.682 C28.3065,36.411 28.1445,37.032 27.8475,37.545 C27.5235,38.085 27.0915,38.544 26.6055,38.895 C26.1195,39.246 25.5525,39.516 24.9315,39.678 C24.3105,39.867 23.7165,39.948 23.1225,39.948 C22.4475,39.948 21.7185,39.813 20.9625,39.516 C20.6925,39.435 20.4225,39.327 20.1795,39.165 C19.9365,39.03 19.6935,38.895 19.4505,38.733 C19.2885,38.652 19.1535,38.571 19.0455,38.517 C18.9375,38.463 18.8295,38.409 18.7485,38.355 C18.5325,38.247 18.3435,38.166 18.2085,38.166 C17.9385,38.166 17.7225,38.274 17.5335,38.463 C17.3175,38.652 17.2365,38.895 17.2365,39.192 C17.2365,39.516 17.3445,39.813 17.5875,40.029 C17.8035,40.299 18.0465,40.488 18.3165,40.623 C18.6405,40.785 19.0185,40.947 19.4775,41.082 C19.9095,41.244 20.3685,41.352 20.8545,41.46 C21.3135,41.568 21.7725,41.649 22.2315,41.703 C22.6635,41.784 23.0415,41.811 23.3655,41.811 C24.2295,41.811 25.1205,41.676 26.0115,41.379 C26.8755,41.109 27.6855,40.731 28.3875,40.191 C29.0895,39.651 29.6565,39.003 30.1155,38.22 C30.5475,37.464 30.7635,36.573 30.7635,35.547 Z"/></svg>