<svg xmlns="http://www.w3.org/2000/svg" width="97" height="203" viewBox="0 0 97 203"><path fill="#131313" d="M247.724609,90.3806124 C248.173828,90.530352 248.548177,90.6800916 248.847656,90.8298311 C249.296875,91.1293103 249.671224,91.3539197 249.970703,91.5036593 C250.719401,90.4554822 251.692708,89.5570447 252.890625,88.8083468 C254.088542,88.2093884 255.361328,87.9099093 256.708984,87.9099093 C259.104818,87.9099093 261.051432,88.6586072 262.548828,90.156003 C264.195964,91.8031384 265.019531,93.749753 265.019531,95.9958468 L265.019531,165.400144 C265.019531,167.646237 264.195964,169.592852 262.548828,171.239987 C260.901693,172.737383 258.955078,173.486081 256.708984,173.486081 C254.76237,173.486081 253.040365,172.887123 251.542969,171.689206 C250.045573,170.491289 249.147135,168.919024 248.847656,166.972409 C245.553385,168.919024 241.585286,170.491289 236.943359,171.689206 C232.301432,172.887123 226.910807,173.486081 220.771484,173.486081 C214.033203,173.486081 208.268229,171.913816 203.476562,168.769284 C198.535156,165.624753 194.941406,161.132566 192.695312,155.292722 C190.898438,150.800534 190,146.008868 190,140.917722 C190,136.425534 190.598958,131.633868 191.796875,126.542722 C194.791667,115.611732 199.957682,106.702227 207.294922,99.8142061 C213.284505,94.124102 219.873047,90.4554822 227.060547,88.8083468 C234.397786,87.0114718 241.285807,87.5355603 247.724609,90.3806124 Z M230.931641,104.064479 C226.888672,104.813177 222.695964,107.20901 218.353516,111.251979 C213.26237,115.893906 209.66862,122.033229 207.572266,129.669948 C205.475911,137.156927 205.475911,143.595729 207.572266,148.986354 C208.620443,151.681667 210.192708,153.628281 212.289063,154.826198 C214.385417,156.173854 217.155599,156.847682 220.599609,156.847682 C230.632161,156.847682 237.595052,155.200547 241.488281,151.906276 C245.38151,148.612005 247.702474,146.216172 248.451172,144.718776 L248.451172,117.091823 C248.451172,114.097031 247.852214,111.551458 246.654297,109.455104 C245.306641,107.35875 243.434896,105.861354 241.039062,104.962917 C238.34375,103.765 234.974609,103.465521 230.931641,104.064479 Z M192.6335,82.162 C193.0115,82.162 193.3085,82.27 193.5515,82.432 C193.7675,82.594 193.8755,82.864 193.8755,83.215 C193.8755,83.404 193.8485,83.566 193.8485,83.728 L193.7675,84.241 L193.6595,84.754 C193.6055,84.943 193.5515,85.105 193.5245,85.267 C193.0385,87.13 192.7415,89.02 192.5795,90.91 C192.4175,92.827 192.3635,94.717 192.3635,96.607 C192.3635,96.877 192.3635,97.201 192.4175,97.552 C192.4175,97.903 192.4715,98.227 192.5255,98.524 C192.5525,98.848 192.5795,99.145 192.6335,99.388 C192.6335,99.658 192.6605,99.82 192.6605,99.901 C192.6605,100.063 192.5255,100.198 192.3095,100.306 C192.0395,100.414 191.7965,100.468 191.5805,100.468 C191.1485,100.468 190.8245,100.36 190.5815,100.09 C190.3385,99.847 190.2305,99.523 190.2305,99.091 C190.2305,98.335 190.2575,97.444 190.3115,96.418 C190.3385,95.392 190.3925,94.366 190.4465,93.34 C190.4735,92.8 190.5275,92.179 190.5815,91.531 L190.7975,89.614 C190.8785,88.966 190.9595,88.372 191.0675,87.778 C191.1215,87.184 191.2025,86.671 191.2835,86.239 C190.9055,86.644 190.6085,86.995 190.3385,87.292 C190.0685,87.589 189.8525,87.805 189.7175,87.94 L189.1775,88.534 C188.9615,88.777 188.7995,88.966 188.6645,89.128 C188.4485,89.344 188.2595,89.506 188.0705,89.614 C187.8545,89.722 187.6385,89.776 187.3955,89.776 C187.0715,89.776 186.7475,89.695 186.4775,89.479 C186.1535,89.29 186.0185,89.047 186.0185,88.723 C186.0185,88.642 186.0455,88.561 186.1535,88.453 C186.2345,88.372 186.3425,88.291 186.4775,88.183 L186.7205,88.021 C186.7745,87.967 186.8555,87.94 186.9365,87.886 L187.1525,87.778 L187.3415,87.616 C187.9085,87.076 188.5025,86.482 189.1235,85.807 C189.7175,85.159 190.2575,84.511 190.7705,83.917 C190.9325,83.728 191.1215,83.512 191.2835,83.296 C191.4185,83.08 191.5805,82.891 191.7965,82.675 C191.8775,82.594 192.0125,82.486 192.1745,82.351 C192.3365,82.243 192.4715,82.162 192.6335,82.162 Z M243.75,73.465 C246.09721,73.465 248,75.3677898 248,77.715 C248,80.0622102 246.09721,81.965 243.75,81.965 C241.826233,81.965 240.201,80.6868203 239.677217,78.9333752 L239.740234,78.936875 C235.098307,78.6373958 230.45638,79.0866146 225.814453,80.2845312 C221.26237,81.2802995 216.912996,83.0193376 212.766333,85.5016455 L212.113281,85.8997656 C212.41276,86.1992448 212.861979,86.7233333 213.460938,87.4720312 C210.765625,88.5202083 206.797526,90.1673437 201.556641,92.4134375 C203.203776,90.1673437 205.749349,86.7233333 209.193359,82.0814062 C209.462891,82.4857031 209.914355,83.0112891 210.547754,83.6581641 L210.765625,83.8782812 C215.407552,81.1829687 220.199219,79.2363542 225.140625,78.0384375 C230.114087,76.7219328 234.944652,76.2628103 239.63232,76.6610698 C240.099589,74.824417 241.76604,73.465 243.75,73.465 Z M243.75,74.465 C241.955075,74.465 240.5,75.9200746 240.5,77.715 C240.5,79.5099254 241.955075,80.965 243.75,80.965 C245.544925,80.965 247,79.5099254 247,77.715 C247,75.9200746 245.544925,74.465 243.75,74.465 Z M275.75,97.465 C278.09721,97.465 280,99.3677898 280,101.715 C280,103.699322 278.640088,105.366018 276.801408,105.833945 L276.800781,152.60875 L274.554688,152.60875 L274.554881,105.794657 C272.789493,105.278347 271.5,103.647262 271.5,101.715 C271.5,99.3677898 273.40279,97.465 275.75,97.465 Z M275.75,98.465 C273.955075,98.465 272.5,99.9200746 272.5,101.715 C272.5,103.509925 273.955075,104.965 275.75,104.965 C277.544925,104.965 279,103.509925 279,101.715 C279,99.9200746 277.544925,98.465 275.75,98.465 Z M274.554688,154.854844 C274.554688,154.405625 274.554688,153.656927 274.554688,152.60875 C274.105469,152.60875 273.356771,152.60875 272.308594,152.60875 C273.057292,155.453802 274.180339,159.64651 275.677734,165.186875 C276.426432,162.341823 277.549479,158.149115 279.046875,152.60875 C278.447917,152.60875 277.699219,152.60875 276.800781,152.60875 C276.800781,153.057969 276.800781,153.806667 276.800781,154.854844 C276.351562,154.854844 275.602865,154.854844 274.554688,154.854844 Z M274.554688,154.854844 C275.003906,154.854844 275.752604,154.854844 276.800781,154.854844 C276.800781,154.405625 276.800781,153.656927 276.800781,152.60875 C276.351562,152.60875 275.602865,152.60875 274.554688,152.60875 C274.554688,153.057969 274.554688,153.806667 274.554688,154.854844 Z M299.9795,107.118 C299.9795,106.74 299.8445,106.416 299.6015,106.092 C299.3585,105.768 299.0885,105.606 298.7645,105.606 C298.5215,105.606 298.2785,105.633 298.0625,105.687 L297.6845,105.768 L297.3065,105.822 C296.7125,105.876 296.1185,105.93 295.4975,105.93 C294.8495,105.93 294.2555,105.957 293.6885,105.984 C293.1485,106.038 292.5815,106.065 291.9875,106.092 C291.3935,106.146 290.6375,106.2 289.7465,106.308 C290.3675,105.795 290.8805,105.336 291.2855,104.958 L292.3925,103.905 L294.2015,102.15 C294.7955,101.556 295.3895,100.989 296.0105,100.395 C296.7665,99.639 297.3605,98.775 297.7655,97.776 C298.1435,96.804 298.3325,95.778 298.3325,94.671 C298.3325,94.104 298.1975,93.537 297.9545,92.97 C297.6845,92.43 297.3335,91.917 296.9015,91.458 C296.4425,91.026 295.9025,90.675 295.2815,90.405 C294.6605,90.135 293.9855,90 293.2835,90 C292.5005,90 291.7445,90.108 290.9885,90.324 C290.2325,90.567 289.5575,90.945 288.9635,91.458 C288.7475,91.62 288.5585,91.863 288.3425,92.133 C288.1265,92.43 287.9105,92.727 287.7485,93.051 C287.5595,93.375 287.3975,93.699 287.2895,94.023 C287.1545,94.347 287.1005,94.644 287.1005,94.887 C287.1005,95.211 287.2085,95.454 287.4785,95.67 C287.7215,95.913 287.9645,96.021 288.2345,96.021 C288.4235,96.021 288.5855,95.994 288.7205,95.886 C288.8285,95.805 288.9635,95.67 289.1255,95.508 C289.1795,95.427 289.2605,95.292 289.3415,95.13 C289.4225,94.995 289.5035,94.833 289.5845,94.671 C289.6385,94.536 289.7195,94.374 289.7735,94.212 C289.8275,94.05 289.8815,93.915 289.9895,93.753 C290.3675,93.105 290.7995,92.619 291.2855,92.241 C291.7445,91.89 292.3925,91.701 293.2025,91.701 C293.6345,91.701 294.0665,91.809 294.4445,91.971 C294.8225,92.16 295.1465,92.403 295.4435,92.7 C295.7135,93.024 295.9295,93.375 296.0915,93.753 C296.2535,94.158 296.3345,94.563 296.3345,94.995 C296.3345,95.535 296.2535,96.021 296.0915,96.48 C295.9295,96.966 295.7405,97.398 295.4975,97.803 C295.2545,98.235 294.9845,98.613 294.6875,98.964 C294.3635,99.342 294.0125,99.693 293.6885,100.017 L291.1235,102.42 C290.2865,103.23 289.3955,103.986 288.4775,104.715 C288.2075,104.931 287.9915,105.12 287.7755,105.336 C287.5595,105.552 287.3705,105.768 287.1545,105.984 C286.9655,106.173 286.8035,106.362 286.6955,106.524 C286.5875,106.74 286.5335,106.956 286.5335,107.199 C286.5335,107.577 286.6685,107.874 286.9655,108.063 C287.2355,108.279 287.5325,108.36 287.8835,108.36 C288.0995,108.36 288.3425,108.333 288.6125,108.279 C288.7475,108.252 288.8825,108.225 289.0175,108.198 C289.1255,108.171 289.2605,108.144 289.3955,108.117 C290.4215,107.982 291.4745,107.874 292.5815,107.766 C293.6615,107.658 294.7145,107.604 295.7405,107.604 C296.3075,107.604 296.9015,107.658 297.4955,107.739 C298.0625,107.847 298.6295,107.874 299.2235,107.874 C299.3855,107.874 299.5475,107.82 299.7095,107.658 C299.8715,107.55 299.9795,107.361 299.9795,107.118 Z M253.46,40.093 C255.7,40.093 257.716,40.989 259.508,42.333 C261.076,43.901 261.972,45.693 261.972,47.933 C261.972,49.501 261.076,51.069 259.508,52.637 C258.164,54.205 255.924,55.997 252.788,58.237 C249.652,60.701 246.516,62.941 243.156,65.181 C239.572,67.421 236.436,69.437 233.3,70.781 C230.164,72.573 227.7,73.245 226.356,73.245 C223.444,73.245 222.1,72.349 222.1,70.109 C222.1,68.541 223.444,66.077 226.132,62.717 C228.82,59.581 231.956,56.221 235.54,52.861 C239.124,49.501 242.484,46.589 246.068,43.901 C249.428,41.437 251.892,40.093 253.46,40.093 Z M240.674247,32.4962362 L234.136204,42.8824964 L233.0605,41.787 L218.483735,56.4831103 C218.812926,57.0867416 219,57.7790241 219,58.515 C219,60.8622102 217.09721,62.765 214.75,62.765 C212.40279,62.765 210.5,60.8622102 210.5,58.515 C210.5,56.1677898 212.40279,54.265 214.75,54.265 C215.563871,54.265 216.324311,54.4937697 216.970522,54.8905125 L231.5215,40.221 L230.405749,39.0847489 L240.674247,32.4962362 Z M214.75,55.265 C212.955075,55.265 211.5,56.7200746 211.5,58.515 C211.5,60.3099254 212.955075,61.765 214.75,61.765 C216.544925,61.765 218,60.3099254 218,58.515 C218,57.8102928 217.77571,57.1579714 217.394622,56.6255271 L216.932812,56.1070989 C216.355931,55.5838279 215.590199,55.265 214.75,55.265 Z M209.7635,43.312 C209.7635,42.718 209.6555,42.178 209.4395,41.692 C209.1965,41.233 208.8725,40.828 208.4945,40.45 C208.0895,40.126 207.6035,39.829 207.0635,39.586 C206.5235,39.343 205.9025,39.127 205.2545,38.965 C206.1185,38.398 206.7395,37.804 207.1175,37.21 C207.4685,36.616 207.6575,35.914 207.6575,35.077 C207.6575,34.321 207.4955,33.673 207.1715,33.133 C206.8475,32.62 206.4155,32.188 205.8755,31.864 C205.3355,31.567 204.7415,31.351 204.0935,31.216 C203.4455,31.108 202.7975,31.027 202.1495,31.027 C201.6365,31.027 201.0965,31.108 200.5295,31.216 C199.9355,31.378 199.4225,31.54 198.9365,31.756 C198.4505,31.972 198.0455,32.242 197.7215,32.512 C197.3975,32.782 197.2625,33.079 197.2625,33.349 C197.2625,33.646 197.3435,33.916 197.5595,34.132 C197.7485,34.348 197.9645,34.456 198.2075,34.456 C198.4235,34.456 198.7205,34.402 199.0715,34.24 L199.5575,33.997 C199.7195,33.916 199.8815,33.835 200.0705,33.727 C200.4485,33.538 200.8535,33.349 201.3395,33.133 C201.7715,32.944 202.2305,32.836 202.6625,32.836 C202.9865,32.836 203.3105,32.89 203.6615,32.944 C204.0125,32.998 204.3365,33.106 204.6335,33.268 C204.9035,33.43 205.1195,33.646 205.3085,33.916 C205.4705,34.213 205.5785,34.564 205.5785,34.996 C205.5785,35.536 205.4435,36.022 205.2005,36.4 C204.9305,36.832 204.6335,37.183 204.2555,37.48 C203.8775,37.777 203.4995,38.02 203.0945,38.182 C202.6625,38.371 202.3115,38.506 202.0145,38.56 C201.7175,38.641 201.4205,38.668 201.0965,38.668 L200.6915,38.668 C200.4215,38.668 200.1785,38.722 199.9355,38.776 C199.6655,38.857 199.5035,38.938 199.4225,39.019 C199.2605,39.181 199.1795,39.397 199.1795,39.667 C199.1795,39.991 199.3145,40.261 199.6115,40.504 C199.8815,40.747 200.1515,40.855 200.4485,40.855 C200.6645,40.855 200.8805,40.828 201.0965,40.747 C201.3125,40.693 201.5015,40.612 201.7175,40.531 C201.9335,40.45 202.1495,40.369 202.3655,40.315 C202.5815,40.261 202.7975,40.234 203.0405,40.234 C203.2295,40.234 203.4185,40.261 203.6075,40.315 C203.7695,40.369 203.9585,40.423 204.1475,40.45 C204.4985,40.558 204.8495,40.666 205.2275,40.828 C205.6055,40.99 205.9295,41.179 206.2535,41.395 C206.5505,41.638 206.7935,41.935 207.0095,42.259 C207.1985,42.61 207.3065,43.015 207.3065,43.447 C207.3065,44.176 207.1445,44.797 206.8475,45.31 C206.5235,45.85 206.0915,46.309 205.6055,46.66 C205.1195,47.011 204.5525,47.281 203.9315,47.443 C203.3105,47.632 202.7165,47.713 202.1225,47.713 C201.4475,47.713 200.7185,47.578 199.9625,47.281 C199.6925,47.2 199.4225,47.092 199.1795,46.93 C198.9365,46.795 198.6935,46.66 198.4505,46.498 C198.2885,46.417 198.1535,46.336 198.0455,46.282 C197.9375,46.228 197.8295,46.174 197.7485,46.12 C197.5325,46.012 197.3435,45.931 197.2085,45.931 C196.9385,45.931 196.7225,46.039 196.5335,46.228 C196.3175,46.417 196.2365,46.66 196.2365,46.957 C196.2365,47.281 196.3445,47.578 196.5875,47.794 C196.8035,48.064 197.0465,48.253 197.3165,48.388 C197.6405,48.55 198.0185,48.712 198.4775,48.847 C198.9095,49.009 199.3685,49.117 199.8545,49.225 C200.3135,49.333 200.7725,49.414 201.2315,49.468 C201.6635,49.549 202.0415,49.576 202.3655,49.576 C203.2295,49.576 204.1205,49.441 205.0115,49.144 C205.8755,48.874 206.6855,48.496 207.3875,47.956 C208.0895,47.416 208.6565,46.768 209.1155,45.985 C209.5475,45.229 209.7635,44.338 209.7635,43.312 Z" transform="translate(-179 -31.765)"/></svg>