<svg xmlns="http://www.w3.org/2000/svg" width="97" height="203" viewBox="0 0 97 203"><path fill="#131313" d="M247.724609,119.615612 C248.173828,119.765352 248.548177,119.915092 248.847656,120.064831 C249.296875,120.36431 249.671224,120.58892 249.970703,120.738659 C250.719401,119.690482 251.692708,118.792045 252.890625,118.043347 C254.088542,117.444388 255.361328,117.144909 256.708984,117.144909 C259.104818,117.144909 261.051432,117.893607 262.548828,119.391003 C264.195964,121.038138 265.019531,122.984753 265.019531,125.230847 L265.019531,194.635144 C265.019531,196.881237 264.195964,198.827852 262.548828,200.474987 C260.901693,201.972383 258.955078,202.721081 256.708984,202.721081 C254.76237,202.721081 253.040365,202.122123 251.542969,200.924206 C250.045573,199.726289 249.147135,198.154024 248.847656,196.207409 C245.553385,198.154024 241.585286,199.726289 236.943359,200.924206 C232.301432,202.122123 226.910807,202.721081 220.771484,202.721081 C214.033203,202.721081 208.268229,201.148816 203.476562,198.004284 C198.535156,194.859753 194.941406,190.367566 192.695312,184.527722 C190.898438,180.035534 190,175.243868 190,170.152722 C190,165.660534 190.598958,160.868868 191.796875,155.777722 C194.791667,144.846732 199.957682,135.937227 207.294922,129.049206 C213.284505,123.359102 219.873047,119.690482 227.060547,118.043347 C234.397786,116.246472 241.285807,116.77056 247.724609,119.615612 Z M230.931641,133.299479 C226.888672,134.048177 222.695964,136.44401 218.353516,140.486979 C213.26237,145.128906 209.66862,151.268229 207.572266,158.904948 C205.475911,166.391927 205.475911,172.830729 207.572266,178.221354 C208.620443,180.916667 210.192708,182.863281 212.289063,184.061198 C214.385417,185.408854 217.155599,186.082682 220.599609,186.082682 C230.632161,186.082682 237.595052,184.435547 241.488281,181.141276 C245.38151,177.847005 247.702474,175.451172 248.451172,173.953776 L248.451172,146.326823 C248.451172,143.332031 247.852214,140.786458 246.654297,138.690104 C245.306641,136.59375 243.434896,135.096354 241.039062,134.197917 C238.34375,133 234.974609,132.700521 230.931641,133.299479 Z M192.6335,111.397 C193.0115,111.397 193.3085,111.505 193.5515,111.667 C193.7675,111.829 193.8755,112.099 193.8755,112.45 C193.8755,112.639 193.8485,112.801 193.8485,112.963 L193.7675,113.476 L193.6595,113.989 C193.6055,114.178 193.5515,114.34 193.5245,114.502 C193.0385,116.365 192.7415,118.255 192.5795,120.145 C192.4175,122.062 192.3635,123.952 192.3635,125.842 C192.3635,126.112 192.3635,126.436 192.4175,126.787 C192.4175,127.138 192.4715,127.462 192.5255,127.759 C192.5525,128.083 192.5795,128.38 192.6335,128.623 C192.6335,128.893 192.6605,129.055 192.6605,129.136 C192.6605,129.298 192.5255,129.433 192.3095,129.541 C192.0395,129.649 191.7965,129.703 191.5805,129.703 C191.1485,129.703 190.8245,129.595 190.5815,129.325 C190.3385,129.082 190.2305,128.758 190.2305,128.326 C190.2305,127.57 190.2575,126.679 190.3115,125.653 C190.3385,124.627 190.3925,123.601 190.4465,122.575 C190.4735,122.035 190.5275,121.414 190.5815,120.766 L190.7975,118.849 C190.8785,118.201 190.9595,117.607 191.0675,117.013 C191.1215,116.419 191.2025,115.906 191.2835,115.474 C190.9055,115.879 190.6085,116.23 190.3385,116.527 C190.0685,116.824 189.8525,117.04 189.7175,117.175 L189.1775,117.769 C188.9615,118.012 188.7995,118.201 188.6645,118.363 C188.4485,118.579 188.2595,118.741 188.0705,118.849 C187.8545,118.957 187.6385,119.011 187.3955,119.011 C187.0715,119.011 186.7475,118.93 186.4775,118.714 C186.1535,118.525 186.0185,118.282 186.0185,117.958 C186.0185,117.877 186.0455,117.796 186.1535,117.688 C186.2345,117.607 186.3425,117.526 186.4775,117.418 L186.7205,117.256 C186.7745,117.202 186.8555,117.175 186.9365,117.121 L187.1525,117.013 L187.3415,116.851 C187.9085,116.311 188.5025,115.717 189.1235,115.042 C189.7175,114.394 190.2575,113.746 190.7705,113.152 C190.9325,112.963 191.1215,112.747 191.2835,112.531 C191.4185,112.315 191.5805,112.126 191.7965,111.91 C191.8775,111.829 192.0125,111.721 192.1745,111.586 C192.3365,111.478 192.4715,111.397 192.6335,111.397 Z M243.75,102.7 C246.09721,102.7 248,104.60279 248,106.95 C248,109.29721 246.09721,111.2 243.75,111.2 C241.826233,111.2 240.201,109.92182 239.677217,108.168375 L239.740234,108.171875 C235.098307,107.872396 230.45638,108.321615 225.814453,109.519531 C221.26237,110.515299 216.912996,112.254338 212.766333,114.736646 L212.113281,115.134766 C212.41276,115.434245 212.861979,115.958333 213.460938,116.707031 C210.765625,117.755208 206.797526,119.402344 201.556641,121.648438 C203.203776,119.402344 205.749349,115.958333 209.193359,111.316406 C209.462891,111.720703 209.914355,112.246289 210.547754,112.893164 L210.765625,113.113281 C215.407552,110.417969 220.199219,108.471354 225.140625,107.273438 C230.114087,105.956933 234.944652,105.49781 239.63232,105.89607 C240.099589,104.059417 241.76604,102.7 243.75,102.7 Z M243.75,103.7 C241.955075,103.7 240.5,105.155075 240.5,106.95 C240.5,108.744925 241.955075,110.2 243.75,110.2 C245.544925,110.2 247,108.744925 247,106.95 C247,105.155075 245.544925,103.7 243.75,103.7 Z M275.75,126.7 C278.09721,126.7 280,128.60279 280,130.95 C280,132.934322 278.640088,134.601018 276.801408,135.068945 L276.800781,181.84375 L274.554688,181.84375 L274.554881,135.029657 C272.789493,134.513347 271.5,132.882262 271.5,130.95 C271.5,128.60279 273.40279,126.7 275.75,126.7 Z M275.75,127.7 C273.955075,127.7 272.5,129.155075 272.5,130.95 C272.5,132.744925 273.955075,134.2 275.75,134.2 C277.544925,134.2 279,132.744925 279,130.95 C279,129.155075 277.544925,127.7 275.75,127.7 Z M274.554688,184.089844 C274.554688,183.640625 274.554688,182.891927 274.554688,181.84375 C274.105469,181.84375 273.356771,181.84375 272.308594,181.84375 C273.057292,184.688802 274.180339,188.88151 275.677734,194.421875 C276.426432,191.576823 277.549479,187.384115 279.046875,181.84375 C278.447917,181.84375 277.699219,181.84375 276.800781,181.84375 C276.800781,182.292969 276.800781,183.041667 276.800781,184.089844 C276.351562,184.089844 275.602865,184.089844 274.554688,184.089844 Z M274.554688,184.089844 C275.003906,184.089844 275.752604,184.089844 276.800781,184.089844 C276.800781,183.640625 276.800781,182.891927 276.800781,181.84375 C276.351562,181.84375 275.602865,181.84375 274.554688,181.84375 C274.554688,182.292969 274.554688,183.041667 274.554688,184.089844 Z M299.9795,136.353 C299.9795,135.975 299.8445,135.651 299.6015,135.327 C299.3585,135.003 299.0885,134.841 298.7645,134.841 C298.5215,134.841 298.2785,134.868 298.0625,134.922 L297.6845,135.003 L297.3065,135.057 C296.7125,135.111 296.1185,135.165 295.4975,135.165 C294.8495,135.165 294.2555,135.192 293.6885,135.219 C293.1485,135.273 292.5815,135.3 291.9875,135.327 C291.3935,135.381 290.6375,135.435 289.7465,135.543 C290.3675,135.03 290.8805,134.571 291.2855,134.193 L292.3925,133.14 L294.2015,131.385 C294.7955,130.791 295.3895,130.224 296.0105,129.63 C296.7665,128.874 297.3605,128.01 297.7655,127.011 C298.1435,126.039 298.3325,125.013 298.3325,123.906 C298.3325,123.339 298.1975,122.772 297.9545,122.205 C297.6845,121.665 297.3335,121.152 296.9015,120.693 C296.4425,120.261 295.9025,119.91 295.2815,119.64 C294.6605,119.37 293.9855,119.235 293.2835,119.235 C292.5005,119.235 291.7445,119.343 290.9885,119.559 C290.2325,119.802 289.5575,120.18 288.9635,120.693 C288.7475,120.855 288.5585,121.098 288.3425,121.368 C288.1265,121.665 287.9105,121.962 287.7485,122.286 C287.5595,122.61 287.3975,122.934 287.2895,123.258 C287.1545,123.582 287.1005,123.879 287.1005,124.122 C287.1005,124.446 287.2085,124.689 287.4785,124.905 C287.7215,125.148 287.9645,125.256 288.2345,125.256 C288.4235,125.256 288.5855,125.229 288.7205,125.121 C288.8285,125.04 288.9635,124.905 289.1255,124.743 C289.1795,124.662 289.2605,124.527 289.3415,124.365 C289.4225,124.23 289.5035,124.068 289.5845,123.906 C289.6385,123.771 289.7195,123.609 289.7735,123.447 C289.8275,123.285 289.8815,123.15 289.9895,122.988 C290.3675,122.34 290.7995,121.854 291.2855,121.476 C291.7445,121.125 292.3925,120.936 293.2025,120.936 C293.6345,120.936 294.0665,121.044 294.4445,121.206 C294.8225,121.395 295.1465,121.638 295.4435,121.935 C295.7135,122.259 295.9295,122.61 296.0915,122.988 C296.2535,123.393 296.3345,123.798 296.3345,124.23 C296.3345,124.77 296.2535,125.256 296.0915,125.715 C295.9295,126.201 295.7405,126.633 295.4975,127.038 C295.2545,127.47 294.9845,127.848 294.6875,128.199 C294.3635,128.577 294.0125,128.928 293.6885,129.252 L291.1235,131.655 C290.2865,132.465 289.3955,133.221 288.4775,133.95 C288.2075,134.166 287.9915,134.355 287.7755,134.571 C287.5595,134.787 287.3705,135.003 287.1545,135.219 C286.9655,135.408 286.8035,135.597 286.6955,135.759 C286.5875,135.975 286.5335,136.191 286.5335,136.434 C286.5335,136.812 286.6685,137.109 286.9655,137.298 C287.2355,137.514 287.5325,137.595 287.8835,137.595 C288.0995,137.595 288.3425,137.568 288.6125,137.514 C288.7475,137.487 288.8825,137.46 289.0175,137.433 C289.1255,137.406 289.2605,137.379 289.3955,137.352 C290.4215,137.217 291.4745,137.109 292.5815,137.001 C293.6615,136.893 294.7145,136.839 295.7405,136.839 C296.3075,136.839 296.9015,136.893 297.4955,136.974 C298.0625,137.082 298.6295,137.109 299.2235,137.109 C299.3855,137.109 299.5475,137.055 299.7095,136.893 C299.8715,136.785 299.9795,136.596 299.9795,136.353 Z M253.46,69.328 C255.7,69.328 257.716,70.224 259.508,71.568 C261.076,73.136 261.972,74.928 261.972,77.168 C261.972,78.736 261.076,80.304 259.508,81.872 C258.164,83.44 255.924,85.232 252.788,87.472 C249.652,89.936 246.516,92.176 243.156,94.416 C239.572,96.656 236.436,98.672 233.3,100.016 C230.164,101.808 227.7,102.48 226.356,102.48 C223.444,102.48 222.1,101.584 222.1,99.344 C222.1,97.776 223.444,95.312 226.132,91.952 C228.82,88.816 231.956,85.456 235.54,82.096 C239.124,78.736 242.484,75.824 246.068,73.136 C249.428,70.672 251.892,69.328 253.46,69.328 Z M240.674247,61.7312362 L234.136204,72.1174964 L233.0605,71.022 L218.483735,85.7181103 C218.812926,86.3217416 219,87.0140241 219,87.75 C219,90.0972102 217.09721,92 214.75,92 C212.40279,92 210.5,90.0972102 210.5,87.75 C210.5,85.4027898 212.40279,83.5 214.75,83.5 C215.563871,83.5 216.324311,83.7287697 216.970522,84.1255125 L231.5215,69.456 L230.405749,68.3197489 L240.674247,61.7312362 Z M214.75,84.5 C212.955075,84.5 211.5,85.9550746 211.5,87.75 C211.5,89.5449254 212.955075,91 214.75,91 C216.544925,91 218,89.5449254 218,87.75 C218,87.0452928 217.77571,86.3929714 217.394622,85.8605271 L216.932812,85.3420989 C216.355931,84.8188279 215.590199,84.5 214.75,84.5 Z M209.7635,72.547 C209.7635,71.953 209.6555,71.413 209.4395,70.927 C209.1965,70.468 208.8725,70.063 208.4945,69.685 C208.0895,69.361 207.6035,69.064 207.0635,68.821 C206.5235,68.578 205.9025,68.362 205.2545,68.2 C206.1185,67.633 206.7395,67.039 207.1175,66.445 C207.4685,65.851 207.6575,65.149 207.6575,64.312 C207.6575,63.556 207.4955,62.908 207.1715,62.368 C206.8475,61.855 206.4155,61.423 205.8755,61.099 C205.3355,60.802 204.7415,60.586 204.0935,60.451 C203.4455,60.343 202.7975,60.262 202.1495,60.262 C201.6365,60.262 201.0965,60.343 200.5295,60.451 C199.9355,60.613 199.4225,60.775 198.9365,60.991 C198.4505,61.207 198.0455,61.477 197.7215,61.747 C197.3975,62.017 197.2625,62.314 197.2625,62.584 C197.2625,62.881 197.3435,63.151 197.5595,63.367 C197.7485,63.583 197.9645,63.691 198.2075,63.691 C198.4235,63.691 198.7205,63.637 199.0715,63.475 L199.5575,63.232 C199.7195,63.151 199.8815,63.07 200.0705,62.962 C200.4485,62.773 200.8535,62.584 201.3395,62.368 C201.7715,62.179 202.2305,62.071 202.6625,62.071 C202.9865,62.071 203.3105,62.125 203.6615,62.179 C204.0125,62.233 204.3365,62.341 204.6335,62.503 C204.9035,62.665 205.1195,62.881 205.3085,63.151 C205.4705,63.448 205.5785,63.799 205.5785,64.231 C205.5785,64.771 205.4435,65.257 205.2005,65.635 C204.9305,66.067 204.6335,66.418 204.2555,66.715 C203.8775,67.012 203.4995,67.255 203.0945,67.417 C202.6625,67.606 202.3115,67.741 202.0145,67.795 C201.7175,67.876 201.4205,67.903 201.0965,67.903 L200.6915,67.903 C200.4215,67.903 200.1785,67.957 199.9355,68.011 C199.6655,68.092 199.5035,68.173 199.4225,68.254 C199.2605,68.416 199.1795,68.632 199.1795,68.902 C199.1795,69.226 199.3145,69.496 199.6115,69.739 C199.8815,69.982 200.1515,70.09 200.4485,70.09 C200.6645,70.09 200.8805,70.063 201.0965,69.982 C201.3125,69.928 201.5015,69.847 201.7175,69.766 C201.9335,69.685 202.1495,69.604 202.3655,69.55 C202.5815,69.496 202.7975,69.469 203.0405,69.469 C203.2295,69.469 203.4185,69.496 203.6075,69.55 C203.7695,69.604 203.9585,69.658 204.1475,69.685 C204.4985,69.793 204.8495,69.901 205.2275,70.063 C205.6055,70.225 205.9295,70.414 206.2535,70.63 C206.5505,70.873 206.7935,71.17 207.0095,71.494 C207.1985,71.845 207.3065,72.25 207.3065,72.682 C207.3065,73.411 207.1445,74.032 206.8475,74.545 C206.5235,75.085 206.0915,75.544 205.6055,75.895 C205.1195,76.246 204.5525,76.516 203.9315,76.678 C203.3105,76.867 202.7165,76.948 202.1225,76.948 C201.4475,76.948 200.7185,76.813 199.9625,76.516 C199.6925,76.435 199.4225,76.327 199.1795,76.165 C198.9365,76.03 198.6935,75.895 198.4505,75.733 C198.2885,75.652 198.1535,75.571 198.0455,75.517 C197.9375,75.463 197.8295,75.409 197.7485,75.355 C197.5325,75.247 197.3435,75.166 197.2085,75.166 C196.9385,75.166 196.7225,75.274 196.5335,75.463 C196.3175,75.652 196.2365,75.895 196.2365,76.192 C196.2365,76.516 196.3445,76.813 196.5875,77.029 C196.8035,77.299 197.0465,77.488 197.3165,77.623 C197.6405,77.785 198.0185,77.947 198.4775,78.082 C198.9095,78.244 199.3685,78.352 199.8545,78.46 C200.3135,78.568 200.7725,78.649 201.2315,78.703 C201.6635,78.784 202.0415,78.811 202.3655,78.811 C203.2295,78.811 204.1205,78.676 205.0115,78.379 C205.8755,78.109 206.6855,77.731 207.3875,77.191 C208.0895,76.651 208.6565,76.003 209.1155,75.22 C209.5475,74.464 209.7635,73.573 209.7635,72.547 Z" transform="translate(-179)"/></svg>