<svg xmlns="http://www.w3.org/2000/svg" width="103" height="203" viewBox="0 0 103 203"><path fill="#131313" d="M2027.80303,117.385045 C2031.99574,118.133743 2035.73923,119.631138 2039.0335,121.877232 C2042.17803,124.273065 2044.57386,127.267857 2046.221,130.861607 C2048.31735,135.054315 2049.21579,139.471633 2048.91631,144.11356 C2048.61683,148.605748 2047.19431,152.798456 2044.64873,156.691685 C2042.40264,160.285435 2037.98532,164.328404 2031.39678,168.820592 C2024.80824,173.312779 2014.40134,176.157831 2000.17608,177.355748 C2001.67347,180.350539 2003.62009,182.671503 2006.01592,184.318638 C2008.41176,185.816034 2011.40655,186.564732 2015.0003,186.564732 C2020.54066,186.564732 2025.33233,185.816034 2029.3753,184.318638 C2033.41827,182.821243 2037.68584,179.452102 2042.17803,174.211217 C2043.67543,172.564081 2045.54717,171.665644 2047.79327,171.515904 C2050.03936,171.366164 2051.98597,172.039993 2053.63311,173.537388 C2055.42998,175.034784 2056.40329,176.906529 2056.55303,179.152623 C2056.70277,181.398717 2056.02894,183.345331 2054.53155,184.992467 C2048.09274,192.329706 2041.72881,197.121373 2035.43975,199.367467 C2029.00095,201.61356 2022.1878,202.736607 2015.0003,202.736607 C2008.11228,202.736607 2002.12269,201.089472 1997.03155,197.795201 C1991.79066,194.35119 1987.82256,189.559524 1985.12725,183.420201 C1984.37855,181.473586 1983.70472,179.452102 1983.10577,177.355748 C1982.50681,175.259394 1982.13246,173.08817 1981.98272,170.842076 C1981.83298,170.692336 1981.75811,170.542597 1981.75811,170.392857 L1981.75811,169.943638 C1981.60837,168.296503 1981.5335,166.649368 1981.5335,165.002232 C1981.5335,159.611607 1982.35707,154.071243 1984.0042,148.381138 C1986.2503,141.193638 1989.69431,135.129185 1994.33623,130.187779 C1998.82842,125.396112 2004.06931,121.802362 2010.05889,119.406529 C2016.04847,117.160435 2021.96319,116.486607 2027.80303,117.385045 Z M2033.32009,104.584706 L2032.9015,106.815 L2033.3857,106.976077 C2037.78221,108.476869 2041.69922,110.731172 2045.13672,113.738984 C2048.73047,116.883516 2051.50065,120.627005 2053.44727,124.969453 C2056.29232,130.959036 2057.49023,137.173229 2057.04102,143.612031 C2056.74154,149.901094 2054.79492,155.890677 2051.20117,161.580781 C2051.20117,161.580781 2051.19285,161.5891 2051.17622,161.605738 L2051.04519,161.73676 C2051.0244,161.757557 2051.00152,161.780434 2050.97656,161.805391 C2050.95378,161.850964 2050.88244,161.946815 2050.76257,162.092946 L2050.64793,162.230514 C2049.86767,163.154781 2047.73112,165.483776 2044.23828,169.2175 C2039.8613,173.740385 2033.62373,177.286387 2024.99595,180.09702 C2024.9987,180.157648 2025,180.218672 2025,180.28 C2025,182.62721 2023.09721,184.53 2020.75,184.53 C2018.40279,184.53 2016.5,182.62721 2016.5,180.28 C2016.5,177.93279 2018.40279,176.03 2020.75,176.03 C2022.23944,176.03 2023.54993,176.796187 2024.30884,177.955925 L2023.71279,178.147024 C2032.24795,175.451712 2038.47331,171.912813 2042.66602,167.420625 C2045.46115,164.326007 2047.5364,162.034875 2048.89174,160.547229 C2049.0837,160.337826 2049.17969,160.233125 2049.17969,160.233125 C2052.6237,154.99224 2054.49544,149.377005 2054.79492,143.387422 C2055.24414,137.397839 2054.12109,131.557995 2051.42578,125.867891 C2049.62891,121.824922 2047.08333,118.380911 2043.78906,115.535859 C2040.52174,112.714082 2036.73887,110.628803 2032.44045,109.280022 L2032.10938,111.043672 L2020.20508,106.102266 L2033.32009,104.584706 Z M2020.75,177.03 C2018.95507,177.03 2017.5,178.485075 2017.5,180.28 C2017.5,182.074925 2018.95507,183.53 2020.75,183.53 C2022.54493,183.53 2024,182.074925 2024,180.28 C2024,178.485075 2022.54493,177.03 2020.75,177.03 Z M2065.6335,143.397 C2066.0115,143.397 2066.3085,143.505 2066.5515,143.667 C2066.7675,143.829 2066.8755,144.099 2066.8755,144.45 C2066.8755,144.639 2066.8485,144.801 2066.8485,144.963 L2066.7675,145.476 L2066.6595,145.989 C2066.6055,146.178 2066.5515,146.34 2066.5245,146.502 C2066.0385,148.365 2065.7415,150.255 2065.5795,152.145 C2065.4175,154.062 2065.3635,155.952 2065.3635,157.842 C2065.3635,158.112 2065.3635,158.436 2065.4175,158.787 C2065.4175,159.138 2065.4715,159.462 2065.5255,159.759 C2065.5525,160.083 2065.5795,160.38 2065.6335,160.623 C2065.6335,160.893 2065.6605,161.055 2065.6605,161.136 C2065.6605,161.298 2065.5255,161.433 2065.3095,161.541 C2065.0395,161.649 2064.7965,161.703 2064.5805,161.703 C2064.1485,161.703 2063.8245,161.595 2063.5815,161.325 C2063.3385,161.082 2063.2305,160.758 2063.2305,160.326 C2063.2305,159.57 2063.2575,158.679 2063.3115,157.653 C2063.3385,156.627 2063.3925,155.601 2063.4465,154.575 C2063.4735,154.035 2063.5275,153.414 2063.5815,152.766 L2063.7975,150.849 C2063.8785,150.201 2063.9595,149.607 2064.0675,149.013 C2064.1215,148.419 2064.2025,147.906 2064.2835,147.474 C2063.9055,147.879 2063.6085,148.23 2063.3385,148.527 C2063.0685,148.824 2062.8525,149.04 2062.7175,149.175 L2062.1775,149.769 C2061.9615,150.012 2061.7995,150.201 2061.6645,150.363 C2061.4485,150.579 2061.2595,150.741 2061.0705,150.849 C2060.8545,150.957 2060.6385,151.011 2060.3955,151.011 C2060.0715,151.011 2059.7475,150.93 2059.4775,150.714 C2059.1535,150.525 2059.0185,150.282 2059.0185,149.958 C2059.0185,149.877 2059.0455,149.796 2059.1535,149.688 C2059.2345,149.607 2059.3425,149.526 2059.4775,149.418 L2059.7205,149.256 C2059.7745,149.202 2059.8555,149.175 2059.9365,149.121 L2060.1525,149.013 C2060.2065,148.959 2060.2875,148.905 2060.3415,148.851 C2060.9085,148.311 2061.5025,147.717 2062.1235,147.042 C2062.7175,146.394 2063.2575,145.746 2063.7705,145.152 C2063.9325,144.963 2064.1215,144.747 2064.2835,144.531 C2064.4185,144.315 2064.5805,144.126 2064.7965,143.91 C2064.8775,143.829 2065.0125,143.721 2065.1745,143.586 C2065.3365,143.478 2065.4715,143.397 2065.6335,143.397 Z M2025.8128,131 L2024.68975,131 C2022.14418,131 2019.37399,131.598958 2016.3792,132.796875 C2013.23467,134.144531 2010.38962,136.166016 2007.84405,138.861328 C2005.59795,141.406901 2003.72621,144.401693 2002.22881,147.845703 C2000.88116,151.439453 1999.98272,155.108073 1999.5335,158.851562 C2007.76918,158.252604 2014.73207,156.830078 2020.42217,154.583984 C2026.11228,152.337891 2030.15524,149.343099 2032.55108,145.599609 C2033.59926,143.952474 2034.19821,142.305339 2034.34795,140.658203 C2034.34795,138.861328 2033.9736,137.064453 2033.22491,135.267578 C2032.62595,134.219401 2031.80238,133.320964 2030.7542,132.572266 C2029.70603,131.973307 2028.43324,131.524089 2026.93584,131.224609 C2026.63636,131.224609 2026.26202,131.14974 2025.8128,131 Z M2007.5305,66.262 C2008.8745,66.262 2011.3385,67.606 2014.9225,70.07 C2018.2825,72.758 2021.8665,75.67 2025.4505,78.806 C2029.0345,82.39 2032.1705,85.75 2034.8585,88.886 C2037.5465,92.246 2038.8905,94.71 2038.8905,96.278 C2038.8905,98.518 2037.3225,99.414 2034.6345,99.414 C2032.8425,99.414 2030.6025,98.742 2027.4665,97.174 C2024.3305,95.606 2021.1945,93.59 2017.8345,91.35 C2014.2505,89.11 2011.1145,86.87 2008.2025,84.63 C2005.0665,82.39 2002.8265,80.374 2001.4825,78.806 C1999.6905,77.238 1999.0185,75.67 1999.0185,74.102 C1999.0185,71.862 1999.6905,70.07 2001.4825,68.502 C2003.2745,67.158 2005.2905,66.262 2007.5305,66.262 Z M2017.75,55.5 C2020.09721,55.5 2022,57.4027898 2022,59.75 C2022,60.3281249 2021.88457,60.8792889 2021.67549,61.3817012 L2034.6345,71.17 L2036.44933,69.078818 L2044.81234,79.320067 L2031.5,74.7836473 L2033.3205,72.684 L2020.49433,62.9952885 C2019.75389,63.6220647 2018.79608,64 2017.75,64 C2015.40279,64 2013.5,62.0972102 2013.5,59.75 C2013.5,57.4027898 2015.40279,55.5 2017.75,55.5 Z M2017.75,56.5 C2015.95507,56.5 2014.5,57.9550746 2014.5,59.75 C2014.5,61.5449254 2015.95507,63 2017.75,63 C2019.54493,63 2021,61.5449254 2021,59.75 C2021,57.9550746 2019.54493,56.5 2017.75,56.5 Z M2001.2835,40.235 C2001.9855,40.235 2002.6605,40.37 2003.2815,40.64 C2003.9025,40.91 2004.4425,41.261 2004.9015,41.693 C2005.3335,42.152 2005.6845,42.665 2005.9545,43.205 C2006.1975,43.772 2006.3325,44.339 2006.3325,44.906 C2006.3325,46.013 2006.1435,47.039 2005.7655,48.011 C2005.3605,49.01 2004.7665,49.874 2004.0105,50.63 C2003.3895,51.224 2002.7955,51.791 2002.2015,52.385 L2000.3925,54.14 L1999.2855,55.193 C1998.8805,55.571 1998.3675,56.03 1997.7465,56.543 C1998.6375,56.435 1999.3935,56.381 1999.9875,56.327 C2000.5815,56.3 2001.1485,56.273 2001.6885,56.219 C2002.2555,56.192 2002.8495,56.165 2003.4975,56.165 C2004.1185,56.165 2004.7125,56.111 2005.3065,56.057 L2005.6845,56.003 L2006.0625,55.922 C2006.2785,55.868 2006.5215,55.841 2006.7645,55.841 C2007.0885,55.841 2007.3585,56.003 2007.6015,56.327 C2007.8445,56.651 2007.9795,56.975 2007.9795,57.353 C2007.9795,57.596 2007.8715,57.785 2007.7095,57.893 C2007.5475,58.055 2007.3855,58.109 2007.2235,58.109 C2006.6295,58.109 2006.0625,58.082 2005.4955,57.974 C2004.9015,57.893 2004.3075,57.839 2003.7405,57.839 C2002.7145,57.839 2001.6615,57.893 2000.5815,58.001 C1999.4745,58.109 1998.4215,58.217 1997.3955,58.352 C1997.2605,58.379 1997.1255,58.406 1997.0175,58.433 C1996.8825,58.46 1996.7475,58.487 1996.6125,58.514 C1996.3425,58.568 1996.0995,58.595 1995.8835,58.595 C1995.5325,58.595 1995.2355,58.514 1994.9655,58.298 C1994.6685,58.109 1994.5335,57.812 1994.5335,57.434 C1994.5335,57.191 1994.5875,56.975 1994.6955,56.759 C1994.8035,56.597 1994.9655,56.408 1995.1545,56.219 C1995.3705,56.003 1995.5595,55.787 1995.7755,55.571 C1995.9915,55.355 1996.2075,55.166 1996.4775,54.95 C1997.3955,54.221 1998.2865,53.465 1999.1235,52.655 L2001.6885,50.252 C2002.0125,49.928 2002.3635,49.577 2002.6875,49.199 C2002.9845,48.848 2003.2545,48.47 2003.4975,48.038 C2003.7405,47.633 2003.9295,47.201 2004.0915,46.715 C2004.2535,46.256 2004.3345,45.77 2004.3345,45.23 C2004.3345,44.798 2004.2535,44.393 2004.0915,43.988 C2003.9295,43.61 2003.7135,43.259 2003.4435,42.935 C2003.1465,42.638 2002.8225,42.395 2002.4445,42.206 C2002.0665,42.044 2001.6345,41.936 2001.2025,41.936 C2000.3925,41.936 1999.7445,42.125 1999.2855,42.476 C1998.7995,42.854 1998.3675,43.34 1997.9895,43.988 C1997.8815,44.15 1997.8275,44.285 1997.7735,44.447 C1997.7195,44.609 1997.6385,44.771 1997.5845,44.906 C1997.5035,45.068 1997.4225,45.23 1997.3415,45.365 C1997.2605,45.527 1997.1795,45.662 1997.1255,45.743 C1996.9635,45.905 1996.8285,46.04 1996.7205,46.121 C1996.5855,46.229 1996.4235,46.256 1996.2345,46.256 C1995.9645,46.256 1995.7215,46.148 1995.4785,45.905 C1995.2085,45.689 1995.1005,45.446 1995.1005,45.122 C1995.1005,44.879 1995.1545,44.582 1995.2895,44.258 C1995.3975,43.934 1995.5595,43.61 1995.7485,43.286 C1995.9105,42.962 1996.1265,42.665 1996.3425,42.368 C1996.5585,42.098 1996.7475,41.855 1996.9635,41.693 C1997.5575,41.18 1998.2325,40.802 1998.9885,40.559 C1999.7445,40.343 2000.5005,40.235 2001.2835,40.235 Z" transform="translate(-1967)"/></svg>