<svg xmlns="http://www.w3.org/2000/svg" width="103" height="203" viewBox="0 0 103 203"><path fill="#131313" d="M2027.80303,88.1500446 C2031.99574,88.8987426 2035.73923,90.3961384 2039.0335,92.6422321 C2042.17803,95.0380655 2044.57386,98.0328571 2046.221,101.626607 C2048.31735,105.819315 2049.21579,110.236633 2048.91631,114.87856 C2048.61683,119.370748 2047.19431,123.563456 2044.64873,127.456685 C2042.40264,131.050435 2037.98532,135.093404 2031.39678,139.585592 C2024.80824,144.077779 2014.40134,146.922831 2000.17608,148.120748 C2001.67347,151.115539 2003.62009,153.436503 2006.01592,155.083638 C2008.41176,156.581034 2011.40655,157.329732 2015.0003,157.329732 C2020.54066,157.329732 2025.33233,156.581034 2029.3753,155.083638 C2033.41827,153.586243 2037.68584,150.217102 2042.17803,144.976217 C2043.67543,143.329081 2045.54717,142.430644 2047.79327,142.280904 C2050.03936,142.131164 2051.98597,142.804993 2053.63311,144.302388 C2055.42998,145.799784 2056.40329,147.671529 2056.55303,149.917623 C2056.70277,152.163717 2056.02894,154.110331 2054.53155,155.757467 C2048.09274,163.094706 2041.72881,167.886373 2035.43975,170.132467 C2029.00095,172.37856 2022.1878,173.501607 2015.0003,173.501607 C2008.11228,173.501607 2002.12269,171.854472 1997.03155,168.560201 C1991.79066,165.11619 1987.82256,160.324524 1985.12725,154.185201 C1984.37855,152.238586 1983.70472,150.217102 1983.10577,148.120748 C1982.50681,146.024394 1982.13246,143.85317 1981.98272,141.607076 C1981.83298,141.457336 1981.75811,141.307597 1981.75811,141.157857 L1981.75811,140.708638 C1981.60837,139.061503 1981.5335,137.414368 1981.5335,135.767232 C1981.5335,130.376607 1982.35707,124.836243 1984.0042,119.146138 C1986.2503,111.958638 1989.69431,105.894185 1994.33623,100.952779 C1998.82842,96.1611124 2004.06931,92.5673624 2010.05889,90.171529 C2016.04847,87.9254353 2021.96319,87.2516071 2027.80303,88.1500446 Z M2033.32009,75.3497055 L2032.9015,77.58 L2033.3857,77.7410768 C2037.78221,79.2418693 2041.69922,81.4961719 2045.13672,84.5039844 C2048.73047,87.6485156 2051.50065,91.3920052 2053.44727,95.7344531 C2056.29232,101.724036 2057.49023,107.938229 2057.04102,114.377031 C2056.74154,120.666094 2054.79492,126.655677 2051.20117,132.345781 C2051.20117,132.345781 2051.19285,132.3541 2051.17622,132.370738 L2051.04519,132.50176 C2051.0244,132.522557 2051.00152,132.545434 2050.97656,132.570391 C2050.95378,132.615964 2050.88244,132.711815 2050.76257,132.857946 L2050.64793,132.995514 C2049.86767,133.919781 2047.73112,136.248776 2044.23828,139.9825 C2039.8613,144.505385 2033.62373,148.051387 2024.99595,150.86202 C2024.9987,150.922723 2025,150.98371 2025,151.045 C2025,153.39221 2023.09721,155.295 2020.75,155.295 C2018.40279,155.295 2016.5,153.39221 2016.5,151.045 C2016.5,148.69779 2018.40279,146.795 2020.75,146.795 C2022.23944,146.795 2023.54993,147.561187 2024.30884,148.720925 L2023.71279,148.912024 C2032.24795,146.216712 2038.47331,142.677812 2042.66602,138.185625 C2045.46115,135.091007 2047.5364,132.799875 2048.89174,131.312229 C2049.0837,131.102826 2049.17969,130.998125 2049.17969,130.998125 C2052.6237,125.75724 2054.49544,120.142005 2054.79492,114.152422 C2055.24414,108.162839 2054.12109,102.322995 2051.42578,96.6328906 C2049.62891,92.5899219 2047.08333,89.1459115 2043.78906,86.3008594 C2040.52174,83.4790824 2036.73887,81.3938034 2032.44045,80.0450223 L2032.10937,81.8086719 L2020.20508,76.8672656 L2033.32009,75.3497055 Z M2020.75,147.795 C2018.95507,147.795 2017.5,149.250075 2017.5,151.045 C2017.5,152.839925 2018.95507,154.295 2020.75,154.295 C2022.54493,154.295 2024,152.839925 2024,151.045 C2024,149.250075 2022.54493,147.795 2020.75,147.795 Z M2065.6335,114.162 C2066.0115,114.162 2066.3085,114.27 2066.5515,114.432 C2066.7675,114.594 2066.8755,114.864 2066.8755,115.215 C2066.8755,115.404 2066.8485,115.566 2066.8485,115.728 L2066.7675,116.241 L2066.6595,116.754 C2066.6055,116.943 2066.5515,117.105 2066.5245,117.267 C2066.0385,119.13 2065.7415,121.02 2065.5795,122.91 C2065.4175,124.827 2065.3635,126.717 2065.3635,128.607 C2065.3635,128.877 2065.3635,129.201 2065.4175,129.552 C2065.4175,129.903 2065.4715,130.227 2065.5255,130.524 C2065.5525,130.848 2065.5795,131.145 2065.6335,131.388 C2065.6335,131.658 2065.6605,131.82 2065.6605,131.901 C2065.6605,132.063 2065.5255,132.198 2065.3095,132.306 C2065.0395,132.414 2064.7965,132.468 2064.5805,132.468 C2064.1485,132.468 2063.8245,132.36 2063.5815,132.09 C2063.3385,131.847 2063.2305,131.523 2063.2305,131.091 C2063.2305,130.335 2063.2575,129.444 2063.3115,128.418 C2063.3385,127.392 2063.3925,126.366 2063.4465,125.34 C2063.4735,124.8 2063.5275,124.179 2063.5815,123.531 L2063.7975,121.614 C2063.8785,120.966 2063.9595,120.372 2064.0675,119.778 C2064.1215,119.184 2064.2025,118.671 2064.2835,118.239 C2063.9055,118.644 2063.6085,118.995 2063.3385,119.292 C2063.0685,119.589 2062.8525,119.805 2062.7175,119.94 L2062.1775,120.534 C2061.9615,120.777 2061.7995,120.966 2061.6645,121.128 C2061.4485,121.344 2061.2595,121.506 2061.0705,121.614 C2060.8545,121.722 2060.6385,121.776 2060.3955,121.776 C2060.0715,121.776 2059.7475,121.695 2059.4775,121.479 C2059.1535,121.29 2059.0185,121.047 2059.0185,120.723 C2059.0185,120.642 2059.0455,120.561 2059.1535,120.453 C2059.2345,120.372 2059.3425,120.291 2059.4775,120.183 L2059.7205,120.021 C2059.7745,119.967 2059.8555,119.94 2059.9365,119.886 L2060.1525,119.778 C2060.2065,119.724 2060.2875,119.67 2060.3415,119.616 C2060.9085,119.076 2061.5025,118.482 2062.1235,117.807 C2062.7175,117.159 2063.2575,116.511 2063.7705,115.917 C2063.9325,115.728 2064.1215,115.512 2064.2835,115.296 C2064.4185,115.08 2064.5805,114.891 2064.7965,114.675 C2064.8775,114.594 2065.0125,114.486 2065.1745,114.351 C2065.3365,114.243 2065.4715,114.162 2065.6335,114.162 Z M2025.8128,101.765 L2024.68975,101.765 C2022.14418,101.765 2019.37399,102.363958 2016.3792,103.561875 C2013.23467,104.909531 2010.38962,106.931016 2007.84405,109.626328 C2005.59795,112.171901 2003.72621,115.166693 2002.22881,118.610703 C2000.88116,122.204453 1999.98272,125.873073 1999.5335,129.616562 C2007.76918,129.017604 2014.73207,127.595078 2020.42217,125.348984 C2026.11228,123.102891 2030.15524,120.108099 2032.55108,116.364609 C2033.59926,114.717474 2034.19821,113.070339 2034.34795,111.423203 C2034.34795,109.626328 2033.9736,107.829453 2033.22491,106.032578 C2032.62595,104.984401 2031.80238,104.085964 2030.7542,103.337266 C2029.70603,102.738307 2028.43324,102.289089 2026.93584,101.989609 C2026.63636,101.989609 2026.26202,101.91474 2025.8128,101.765 Z M2007.5305,37.027 C2008.8745,37.027 2011.3385,38.371 2014.9225,40.835 C2018.2825,43.523 2021.8665,46.435 2025.4505,49.571 C2029.0345,53.155 2032.1705,56.515 2034.8585,59.651 C2037.5465,63.011 2038.8905,65.475 2038.8905,67.043 C2038.8905,69.283 2037.3225,70.179 2034.6345,70.179 C2032.8425,70.179 2030.6025,69.507 2027.4665,67.939 C2024.3305,66.371 2021.1945,64.355 2017.8345,62.115 C2014.2505,59.875 2011.1145,57.635 2008.2025,55.395 C2005.0665,53.155 2002.8265,51.139 2001.4825,49.571 C1999.6905,48.003 1999.0185,46.435 1999.0185,44.867 C1999.0185,42.627 1999.6905,40.835 2001.4825,39.267 C2003.2745,37.923 2005.2905,37.027 2007.5305,37.027 Z M2017.75,26.265 C2020.09721,26.265 2022,28.1677898 2022,30.515 C2022,31.0931249 2021.88457,31.6442889 2021.67549,32.1467012 L2034.6345,41.935 L2036.44933,39.843818 L2044.81234,50.085067 L2031.5,45.5486473 L2033.3205,43.449 L2020.49433,33.7602885 C2019.75389,34.3870647 2018.79608,34.765 2017.75,34.765 C2015.40279,34.765 2013.5,32.8622102 2013.5,30.515 C2013.5,28.1677898 2015.40279,26.265 2017.75,26.265 Z M2017.75,27.265 C2015.95507,27.265 2014.5,28.7200746 2014.5,30.515 C2014.5,32.3099254 2015.95507,33.765 2017.75,33.765 C2019.54493,33.765 2021,32.3099254 2021,30.515 C2021,28.7200746 2019.54493,27.265 2017.75,27.265 Z M2001.2835,11 C2001.9855,11 2002.6605,11.135 2003.2815,11.405 C2003.9025,11.675 2004.4425,12.026 2004.9015,12.458 C2005.3335,12.917 2005.6845,13.43 2005.9545,13.97 C2006.1975,14.537 2006.3325,15.104 2006.3325,15.671 C2006.3325,16.778 2006.1435,17.804 2005.7655,18.776 C2005.3605,19.775 2004.7665,20.639 2004.0105,21.395 C2003.3895,21.989 2002.7955,22.556 2002.2015,23.15 L2000.3925,24.905 L1999.2855,25.958 C1998.8805,26.336 1998.3675,26.795 1997.7465,27.308 C1998.6375,27.2 1999.3935,27.146 1999.9875,27.092 C2000.5815,27.065 2001.1485,27.038 2001.6885,26.984 C2002.2555,26.957 2002.8495,26.93 2003.4975,26.93 C2004.1185,26.93 2004.7125,26.876 2005.3065,26.822 L2005.6845,26.768 L2006.0625,26.687 C2006.2785,26.633 2006.5215,26.606 2006.7645,26.606 C2007.0885,26.606 2007.3585,26.768 2007.6015,27.092 C2007.8445,27.416 2007.9795,27.74 2007.9795,28.118 C2007.9795,28.361 2007.8715,28.55 2007.7095,28.658 C2007.5475,28.82 2007.3855,28.874 2007.2235,28.874 C2006.6295,28.874 2006.0625,28.847 2005.4955,28.739 C2004.9015,28.658 2004.3075,28.604 2003.7405,28.604 C2002.7145,28.604 2001.6615,28.658 2000.5815,28.766 C1999.4745,28.874 1998.4215,28.982 1997.3955,29.117 C1997.2605,29.144 1997.1255,29.171 1997.0175,29.198 C1996.8825,29.225 1996.7475,29.252 1996.6125,29.279 C1996.3425,29.333 1996.0995,29.36 1995.8835,29.36 C1995.5325,29.36 1995.2355,29.279 1994.9655,29.063 C1994.6685,28.874 1994.5335,28.577 1994.5335,28.199 C1994.5335,27.956 1994.5875,27.74 1994.6955,27.524 C1994.8035,27.362 1994.9655,27.173 1995.1545,26.984 C1995.3705,26.768 1995.5595,26.552 1995.7755,26.336 C1995.9915,26.12 1996.2075,25.931 1996.4775,25.715 C1997.3955,24.986 1998.2865,24.23 1999.1235,23.42 L2001.6885,21.017 C2002.0125,20.693 2002.3635,20.342 2002.6875,19.964 C2002.9845,19.613 2003.2545,19.235 2003.4975,18.803 C2003.7405,18.398 2003.9295,17.966 2004.0915,17.48 C2004.2535,17.021 2004.3345,16.535 2004.3345,15.995 C2004.3345,15.563 2004.2535,15.158 2004.0915,14.753 C2003.9295,14.375 2003.7135,14.024 2003.4435,13.7 C2003.1465,13.403 2002.8225,13.16 2002.4445,12.971 C2002.0665,12.809 2001.6345,12.701 2001.2025,12.701 C2000.3925,12.701 1999.7445,12.89 1999.2855,13.241 C1998.7995,13.619 1998.3675,14.105 1997.9895,14.753 C1997.8815,14.915 1997.8275,15.05 1997.7735,15.212 C1997.7195,15.374 1997.6385,15.536 1997.5845,15.671 C1997.5035,15.833 1997.4225,15.995 1997.3415,16.13 C1997.2605,16.292 1997.1795,16.427 1997.1255,16.508 C1996.9635,16.67 1996.8285,16.805 1996.7205,16.886 C1996.5855,16.994 1996.4235,17.021 1996.2345,17.021 C1995.9645,17.021 1995.7215,16.913 1995.4785,16.67 C1995.2085,16.454 1995.1005,16.211 1995.1005,15.887 C1995.1005,15.644 1995.1545,15.347 1995.2895,15.023 C1995.3975,14.699 1995.5595,14.375 1995.7485,14.051 C1995.9105,13.727 1996.1265,13.43 1996.3425,13.133 C1996.5585,12.863 1996.7475,12.62 1996.9635,12.458 C1997.5575,11.945 1998.2325,11.567 1998.9885,11.324 C1999.7445,11.108 2000.5005,11 2001.2835,11 Z" transform="translate(-1967 -31.765)"/></svg>