<svg xmlns="http://www.w3.org/2000/svg" width="103" height="243" viewBox="0 0 103 243"><path fill="#131313" d="M60.8030312,80.3850446 C64.9957396,81.1337426 68.7392292,82.6311384 72.0335,84.8772321 C75.1780312,87.2730655 77.5738646,90.2678571 79.221,93.8616071 C81.3173542,98.0543155 82.2157917,102.471633 81.9163125,107.11356 C81.6168333,111.605748 80.1943073,115.798456 77.6487344,119.691685 C75.4026406,123.285435 70.9853229,127.328404 64.3967812,131.820592 C57.8082396,136.312779 47.4013385,139.157831 33.1760781,140.355748 C34.673474,143.350539 36.6200885,145.671503 39.0159219,147.318638 C41.4117552,148.816034 44.4065469,149.564732 48.0002969,149.564732 C53.5406615,149.564732 58.3323281,148.816034 62.3752969,147.318638 C66.4182656,145.821243 70.6858437,142.452102 75.1780312,137.211217 C76.6754271,135.564081 78.5471719,134.665644 80.7932656,134.515904 C83.0393594,134.366164 84.985974,135.039993 86.6331094,136.537388 C88.4299844,138.034784 89.4032917,139.906529 89.5530312,142.152623 C89.7027708,144.398717 89.0289427,146.345331 87.5315469,147.992467 C81.0927448,155.329706 74.7288125,160.121373 68.43975,162.367467 C62.0009479,164.61356 55.1877969,165.736607 48.0002969,165.736607 C41.112276,165.736607 35.1226927,164.089472 30.0315469,160.795201 C24.7906615,157.35119 20.8225625,152.559524 18.12725,146.420201 C17.3785521,144.473586 16.704724,142.452102 16.1057656,140.355748 C15.5068073,138.259394 15.1324583,136.08817 14.9827187,133.842076 C14.8329792,133.692336 14.7581094,133.542597 14.7581094,133.392857 L14.7581094,132.943638 C14.6083698,131.296503 14.5335,129.649368 14.5335,128.002232 C14.5335,122.611607 15.3570677,117.071243 17.0042031,111.381138 C19.2502969,104.193638 22.6943073,98.1291853 27.3362344,93.187779 C31.8284219,88.3961124 37.0693073,84.8023624 43.0588906,82.406529 C49.048474,80.1604353 54.9631875,79.4866071 60.8030312,80.3850446 Z M66.3200865,67.5847055 L65.9015,69.815 L66.3856997,69.9760768 C70.7822124,71.4768693 74.6992188,73.7311719 78.1367188,76.7389844 C81.7304688,79.8835156 84.500651,83.6270052 86.4472656,87.9694531 C89.2923177,93.9590365 90.4902344,100.173229 90.0410156,106.612031 C89.7415365,112.901094 87.7949219,118.890677 84.2011719,124.580781 C84.2011719,124.580781 84.192853,124.5891 84.1762153,124.605738 L84.0451931,124.73676 C84.024396,124.757557 84.0015191,124.780434 83.9765625,124.805391 C83.953776,124.850964 83.8824445,124.946815 83.7625679,125.092946 L83.647928,125.230514 C82.8676687,126.154781 80.7311198,128.483776 77.2382813,132.2175 C72.8612955,136.740385 66.623731,140.286387 57.9959471,143.09702 C57.9987026,143.157723 58,143.21871 58,143.28 C58,145.62721 56.0972102,147.53 53.75,147.53 C51.4027898,147.53 49.5,145.62721 49.5,143.28 C49.5,140.93279 51.4027898,139.03 53.75,139.03 C55.2394429,139.03 56.5499334,139.796187 57.3088367,140.955925 L56.7127939,141.147024 C65.2479502,138.451712 71.4733073,134.912813 75.6660156,130.420625 C78.4611545,127.326007 80.5363956,125.034875 81.891739,123.547229 C82.0837047,123.337826 82.1796875,123.233125 82.1796875,123.233125 C85.6236979,117.99224 87.4954427,112.377005 87.7949219,106.387422 C88.2441406,100.397839 87.1210938,94.5579948 84.4257813,88.8678906 C82.6289063,84.8249219 80.0833333,81.3809115 76.7890625,78.5358594 C73.5217418,75.7140824 69.7388725,73.6288034 65.4404546,72.2800223 L65.109375,74.0436719 L53.2050781,69.1022656 L66.3200865,67.5847055 Z M53.75,140.03 C51.9550746,140.03 50.5,141.485075 50.5,143.28 C50.5,145.074925 51.9550746,146.53 53.75,146.53 C55.5449254,146.53 57,145.074925 57,143.28 C57,141.485075 55.5449254,140.03 53.75,140.03 Z M99.4746094,105.938203 C99.624349,105.938203 99.7740885,106.013073 99.9238281,106.162812 L99.9238281,106.387422 C100.073568,106.387422 100.148438,106.462292 100.148438,106.612031 L100.148438,123.906953 L100.079807,123.975584 L99.9238281,124.131562 C99.7740885,124.281302 99.624349,124.356172 99.4746094,124.356172 C99.4746094,124.505911 99.3997396,124.580781 99.25,124.580781 C99.1002604,124.580781 98.9505208,124.505911 98.8007812,124.356172 C98.6510417,124.356172 98.5761719,124.281302 98.5761719,124.131562 C98.4264323,124.131562 98.3515625,124.056693 98.3515625,123.906953 L98.3515625,109.307344 C98.2018229,109.307344 98.0520833,109.382214 97.9023438,109.531953 L97.6777344,109.756562 L97.3969727,110.037324 C97.3595378,110.074759 97.3033854,110.130911 97.2285156,110.205781 L96.5546875,110.205781 C96.4049479,110.056042 96.2552083,109.981172 96.1054688,109.981172 C96.1054688,109.831432 96.030599,109.681693 95.8808594,109.531953 L95.8808594,108.858125 C96.0056424,108.733342 96.0784324,108.660552 96.0992296,108.639755 C96.4049479,108.334036 96.7792969,107.959687 97.2285156,107.510469 C97.3948929,107.344091 97.6074862,107.131498 97.8662953,106.872689 L98.7321506,106.006834 C98.7529478,105.986037 98.7758247,105.96316 98.8007812,105.938203 L99.4746094,105.938203 Z M58.8127969,94 L57.68975,94 C55.1441771,94 52.3739948,94.5989583 49.3792031,95.796875 C46.2346719,97.1445313 43.3896198,99.1660156 40.8440469,101.861328 C38.5979531,104.406901 36.7262083,107.401693 35.2288125,110.845703 C33.8811562,114.439453 32.9827187,118.108073 32.5335,121.851562 C40.7691771,121.252604 47.7320677,119.830078 53.4221719,117.583984 C59.112276,115.337891 63.1552448,112.343099 65.5510781,108.599609 C66.5992552,106.952474 67.1982135,105.305339 67.3479531,103.658203 C67.3479531,101.861328 66.9736042,100.064453 66.2249062,98.2675781 C65.6259479,97.219401 64.8023802,96.3209635 63.7542031,95.5722656 C62.706026,94.9733073 61.4332396,94.5240885 59.9358437,94.2246094 C59.6363646,94.2246094 59.2620156,94.1497396 58.8127969,94 Z M40.5305,29.262 C41.8745,29.262 44.3385,30.606 47.9225,33.07 C51.2825,35.758 54.8665,38.67 58.4505,41.806 C62.0345,45.39 65.1705,48.75 67.8585,51.886 C70.5465,55.246 71.8905,57.71 71.8905,59.278 C71.8905,61.518 70.3225,62.414 67.6345,62.414 C65.8425,62.414 63.6025,61.742 60.4665,60.174 C57.3305,58.606 54.1945,56.59 50.8345,54.35 C47.2505,52.11 44.1145,49.87 41.2025,47.63 C38.0665,45.39 35.8265,43.374 34.4825,41.806 C32.6905,40.238 32.0185,38.67 32.0185,37.102 C32.0185,34.862 32.6905,33.07 34.4825,31.502 C36.2745,30.158 38.2905,29.262 40.5305,29.262 Z M50.75,18.5 C53.0972102,18.5 55,20.4027898 55,22.75 C55,23.3281249 54.8845669,23.8792889 54.6754918,24.3817012 L67.6345,34.17 L69.4493309,32.078818 L77.8123401,42.320067 L64.5,37.7836473 L66.3205,35.684 L53.494334,25.9952885 C52.7538905,26.6220647 51.796081,27 50.75,27 C48.4027898,27 46.5,25.0972102 46.5,22.75 C46.5,20.4027898 48.4027898,18.5 50.75,18.5 Z M50.75,19.5 C48.9550746,19.5 47.5,20.9550746 47.5,22.75 C47.5,24.5449254 48.9550746,26 50.75,26 C52.5449254,26 54,24.5449254 54,22.75 C54,20.9550746 52.5449254,19.5 50.75,19.5 Z M34.2835,3.235 C34.9855,3.235 35.6605,3.37 36.2815,3.64 C36.9025,3.91 37.4425,4.261 37.9015,4.693 C38.3335,5.152 38.6845,5.665 38.9545,6.205 C39.1975,6.772 39.3325,7.339 39.3325,7.906 C39.3325,9.013 39.1435,10.039 38.7655,11.011 C38.3605,12.01 37.7665,12.874 37.0105,13.63 C36.3895,14.224 35.7955,14.791 35.2015,15.385 L33.3925,17.14 L32.2855,18.193 C31.8805,18.571 31.3675,19.03 30.7465,19.543 C31.6375,19.435 32.3935,19.381 32.9875,19.327 C33.5815,19.3 34.1485,19.273 34.6885,19.219 C35.2555,19.192 35.8495,19.165 36.4975,19.165 C37.1185,19.165 37.7125,19.111 38.3065,19.057 L38.6845,19.003 L39.0625,18.922 C39.2785,18.868 39.5215,18.841 39.7645,18.841 C40.0885,18.841 40.3585,19.003 40.6015,19.327 C40.8445,19.651 40.9795,19.975 40.9795,20.353 C40.9795,20.596 40.8715,20.785 40.7095,20.893 C40.5475,21.055 40.3855,21.109 40.2235,21.109 C39.6295,21.109 39.0625,21.082 38.4955,20.974 C37.9015,20.893 37.3075,20.839 36.7405,20.839 C35.7145,20.839 34.6615,20.893 33.5815,21.001 C32.4745,21.109 31.4215,21.217 30.3955,21.352 C30.2605,21.379 30.1255,21.406 30.0175,21.433 C29.8825,21.46 29.7475,21.487 29.6125,21.514 C29.3425,21.568 29.0995,21.595 28.8835,21.595 C28.5325,21.595 28.2355,21.514 27.9655,21.298 C27.6685,21.109 27.5335,20.812 27.5335,20.434 C27.5335,20.191 27.5875,19.975 27.6955,19.759 C27.8035,19.597 27.9655,19.408 28.1545,19.219 C28.3705,19.003 28.5595,18.787 28.7755,18.571 C28.9915,18.355 29.2075,18.166 29.4775,17.95 C30.3955,17.221 31.2865,16.465 32.1235,15.655 L34.6885,13.252 C35.0125,12.928 35.3635,12.577 35.6875,12.199 C35.9845,11.848 36.2545,11.47 36.4975,11.038 C36.7405,10.633 36.9295,10.201 37.0915,9.715 C37.2535,9.256 37.3345,8.77 37.3345,8.23 C37.3345,7.798 37.2535,7.393 37.0915,6.988 C36.9295,6.61 36.7135,6.259 36.4435,5.935 C36.1465,5.638 35.8225,5.395 35.4445,5.206 C35.0665,5.044 34.6345,4.936 34.2025,4.936 C33.3925,4.936 32.7445,5.125 32.2855,5.476 C31.7995,5.854 31.3675,6.34 30.9895,6.988 C30.8815,7.15 30.8275,7.285 30.7735,7.447 C30.7195,7.609 30.6385,7.771 30.5845,7.906 C30.5035,8.068 30.4225,8.23 30.3415,8.365 C30.2605,8.527 30.1795,8.662 30.1255,8.743 C29.9635,8.905 29.8285,9.04 29.7205,9.121 C29.5855,9.229 29.4235,9.256 29.2345,9.256 C28.9645,9.256 28.7215,9.148 28.4785,8.905 C28.2085,8.689 28.1005,8.446 28.1005,8.122 C28.1005,7.879 28.1545,7.582 28.2895,7.258 C28.3975,6.934 28.5595,6.61 28.7485,6.286 C28.9105,5.962 29.1265,5.665 29.3425,5.368 C29.5585,5.098 29.7475,4.855 29.9635,4.693 C30.5575,4.18 31.2325,3.802 31.9885,3.559 C32.7445,3.343 33.5005,3.235 34.2835,3.235 Z"/></svg>