<svg xmlns="http://www.w3.org/2000/svg" width="103" height="203" viewBox="0 0 103 203"><path fill="#131313" d="M1704.80303,88.1500446 C1708.99574,88.8987426 1712.73923,90.3961384 1716.0335,92.6422321 C1719.17803,95.0380655 1721.57386,98.0328571 1723.221,101.626607 C1725.31735,105.819315 1726.21579,110.236633 1725.91631,114.87856 C1725.61683,119.370748 1724.19431,123.563456 1721.64873,127.456685 C1719.40264,131.050435 1714.98532,135.093404 1708.39678,139.585592 C1701.80824,144.077779 1691.40134,146.922831 1677.17608,148.120748 C1678.67347,151.115539 1680.62009,153.436503 1683.01592,155.083638 C1685.41176,156.581034 1688.40655,157.329732 1692.0003,157.329732 C1697.54066,157.329732 1702.33233,156.581034 1706.3753,155.083638 C1710.41827,153.586243 1714.68584,150.217102 1719.17803,144.976217 C1720.67543,143.329081 1722.54717,142.430644 1724.79327,142.280904 C1727.03936,142.131164 1728.98597,142.804993 1730.63311,144.302388 C1732.42998,145.799784 1733.40329,147.671529 1733.55303,149.917623 C1733.70277,152.163717 1733.02894,154.110331 1731.53155,155.757467 C1725.09274,163.094706 1718.72881,167.886373 1712.43975,170.132467 C1706.00095,172.37856 1699.1878,173.501607 1692.0003,173.501607 C1685.11228,173.501607 1679.12269,171.854472 1674.03155,168.560201 C1668.79066,165.11619 1664.82256,160.324524 1662.12725,154.185201 C1661.37855,152.238586 1660.70472,150.217102 1660.10577,148.120748 C1659.50681,146.024394 1659.13246,143.85317 1658.98272,141.607076 C1658.83298,141.457336 1658.75811,141.307597 1658.75811,141.157857 L1658.75811,140.708638 C1658.60837,139.061503 1658.5335,137.414368 1658.5335,135.767232 C1658.5335,130.376607 1659.35707,124.836243 1661.0042,119.146138 C1663.2503,111.958638 1666.69431,105.894185 1671.33623,100.952779 C1675.82842,96.1611124 1681.06931,92.5673624 1687.05889,90.171529 C1693.04847,87.9254353 1698.96319,87.2516071 1704.80303,88.1500446 Z M1710.32009,75.3497055 L1709.9015,77.58 L1710.3857,77.7410768 C1714.78221,79.2418693 1718.69922,81.4961719 1722.13672,84.5039844 C1725.73047,87.6485156 1728.50065,91.3920052 1730.44727,95.7344531 C1733.29232,101.724036 1734.49023,107.938229 1734.04102,114.377031 C1733.74154,120.666094 1731.79492,126.655677 1728.20117,132.345781 C1728.20117,132.345781 1728.19285,132.3541 1728.17622,132.370738 L1728.04519,132.50176 C1728.0244,132.522557 1728.00152,132.545434 1727.97656,132.570391 C1727.95378,132.615964 1727.88244,132.711815 1727.76257,132.857946 L1727.64793,132.995514 C1726.86767,133.919781 1724.73112,136.248776 1721.23828,139.9825 C1716.8613,144.505385 1710.62373,148.051387 1701.99595,150.86202 C1701.9987,150.922723 1702,150.98371 1702,151.045 C1702,153.39221 1700.09721,155.295 1697.75,155.295 C1695.40279,155.295 1693.5,153.39221 1693.5,151.045 C1693.5,148.69779 1695.40279,146.795 1697.75,146.795 C1699.23944,146.795 1700.54993,147.561187 1701.30884,148.720925 L1700.71279,148.912024 C1709.24795,146.216712 1715.47331,142.677812 1719.66602,138.185625 C1722.46115,135.091007 1724.5364,132.799875 1725.89174,131.312229 C1726.0837,131.102826 1726.17969,130.998125 1726.17969,130.998125 C1729.6237,125.75724 1731.49544,120.142005 1731.79492,114.152422 C1732.24414,108.162839 1731.12109,102.322995 1728.42578,96.6328906 C1726.62891,92.5899219 1724.08333,89.1459115 1720.78906,86.3008594 C1717.52174,83.4790824 1713.73887,81.3938034 1709.44045,80.0450223 L1709.10937,81.8086719 L1697.20508,76.8672656 L1710.32009,75.3497055 Z M1697.75,147.795 C1695.95507,147.795 1694.5,149.250075 1694.5,151.045 C1694.5,152.839925 1695.95507,154.295 1697.75,154.295 C1699.54493,154.295 1701,152.839925 1701,151.045 C1701,149.250075 1699.54493,147.795 1697.75,147.795 Z M1742.6335,114.162 C1743.0115,114.162 1743.3085,114.27 1743.5515,114.432 C1743.7675,114.594 1743.8755,114.864 1743.8755,115.215 C1743.8755,115.404 1743.8485,115.566 1743.8485,115.728 L1743.7675,116.241 L1743.6595,116.754 C1743.6055,116.943 1743.5515,117.105 1743.5245,117.267 C1743.0385,119.13 1742.7415,121.02 1742.5795,122.91 C1742.4175,124.827 1742.3635,126.717 1742.3635,128.607 C1742.3635,128.877 1742.3635,129.201 1742.4175,129.552 C1742.4175,129.903 1742.4715,130.227 1742.5255,130.524 C1742.5525,130.848 1742.5795,131.145 1742.6335,131.388 C1742.6335,131.658 1742.6605,131.82 1742.6605,131.901 C1742.6605,132.063 1742.5255,132.198 1742.3095,132.306 C1742.0395,132.414 1741.7965,132.468 1741.5805,132.468 C1741.1485,132.468 1740.8245,132.36 1740.5815,132.09 C1740.3385,131.847 1740.2305,131.523 1740.2305,131.091 C1740.2305,130.335 1740.2575,129.444 1740.3115,128.418 C1740.3385,127.392 1740.3925,126.366 1740.4465,125.34 C1740.4735,124.8 1740.5275,124.179 1740.5815,123.531 L1740.7975,121.614 C1740.8785,120.966 1740.9595,120.372 1741.0675,119.778 C1741.1215,119.184 1741.2025,118.671 1741.2835,118.239 C1740.9055,118.644 1740.6085,118.995 1740.3385,119.292 C1740.0685,119.589 1739.8525,119.805 1739.7175,119.94 L1739.1775,120.534 C1738.9615,120.777 1738.7995,120.966 1738.6645,121.128 C1738.4485,121.344 1738.2595,121.506 1738.0705,121.614 C1737.8545,121.722 1737.6385,121.776 1737.3955,121.776 C1737.0715,121.776 1736.7475,121.695 1736.4775,121.479 C1736.1535,121.29 1736.0185,121.047 1736.0185,120.723 C1736.0185,120.642 1736.0455,120.561 1736.1535,120.453 C1736.2345,120.372 1736.3425,120.291 1736.4775,120.183 L1736.7205,120.021 C1736.7745,119.967 1736.8555,119.94 1736.9365,119.886 L1737.1525,119.778 C1737.2065,119.724 1737.2875,119.67 1737.3415,119.616 C1737.9085,119.076 1738.5025,118.482 1739.1235,117.807 C1739.7175,117.159 1740.2575,116.511 1740.7705,115.917 C1740.9325,115.728 1741.1215,115.512 1741.2835,115.296 C1741.4185,115.08 1741.5805,114.891 1741.7965,114.675 C1741.8775,114.594 1742.0125,114.486 1742.1745,114.351 C1742.3365,114.243 1742.4715,114.162 1742.6335,114.162 Z M1702.8128,101.765 L1701.68975,101.765 C1699.14418,101.765 1696.37399,102.363958 1693.3792,103.561875 C1690.23467,104.909531 1687.38962,106.931016 1684.84405,109.626328 C1682.59795,112.171901 1680.72621,115.166693 1679.22881,118.610703 C1677.88116,122.204453 1676.98272,125.873073 1676.5335,129.616562 C1684.76918,129.017604 1691.73207,127.595078 1697.42217,125.348984 C1703.11228,123.102891 1707.15524,120.108099 1709.55108,116.364609 C1710.59926,114.717474 1711.19821,113.070339 1711.34795,111.423203 C1711.34795,109.626328 1710.9736,107.829453 1710.22491,106.032578 C1709.62595,104.984401 1708.80238,104.085964 1707.7542,103.337266 C1706.70603,102.738307 1705.43324,102.289089 1703.93584,101.989609 C1703.63636,101.989609 1703.26202,101.91474 1702.8128,101.765 Z M1708.46,40.858 C1710.7,40.858 1712.716,41.754 1714.508,43.098 C1716.076,44.666 1716.972,46.458 1716.972,48.698 C1716.972,50.266 1716.076,51.834 1714.508,53.402 C1713.164,54.97 1710.924,56.762 1707.788,59.002 C1704.652,61.466 1701.516,63.706 1698.156,65.946 C1694.572,68.186 1691.436,70.202 1688.3,71.546 C1685.164,73.338 1682.7,74.01 1681.356,74.01 C1678.444,74.01 1677.1,73.114 1677.1,70.874 C1677.1,69.306 1678.444,66.842 1681.132,63.482 C1683.82,60.346 1686.956,56.986 1690.54,53.626 C1694.124,50.266 1697.484,47.354 1701.068,44.666 C1704.428,42.202 1706.892,40.858 1708.46,40.858 Z M1695.67425,33.2612362 L1689.1362,43.6474964 L1688.0605,42.552 L1673.48373,57.2481103 C1673.81293,57.8517416 1674,58.5440241 1674,59.28 C1674,61.6272102 1672.09721,63.53 1669.75,63.53 C1667.40279,63.53 1665.5,61.6272102 1665.5,59.28 C1665.5,56.9327898 1667.40279,55.03 1669.75,55.03 C1670.56387,55.03 1671.32431,55.2587697 1671.97052,55.6555125 L1686.5215,40.986 L1685.40575,39.8497489 L1695.67425,33.2612362 Z M1669.75,56.03 C1667.95507,56.03 1666.5,57.4850746 1666.5,59.28 C1666.5,61.0749254 1667.95507,62.53 1669.75,62.53 C1671.54493,62.53 1673,61.0749254 1673,59.28 C1673,58.5752928 1672.77571,57.9229714 1672.39462,57.3905271 L1671.93281,56.8720989 C1671.35593,56.3488279 1670.5902,56.03 1669.75,56.03 Z M1658.2835,31.765 C1658.9855,31.765 1659.6605,31.9 1660.2815,32.17 C1660.9025,32.44 1661.4425,32.791 1661.9015,33.223 C1662.3335,33.682 1662.6845,34.195 1662.9545,34.735 C1663.1975,35.302 1663.3325,35.869 1663.3325,36.436 C1663.3325,37.543 1663.1435,38.569 1662.7655,39.541 C1662.3605,40.54 1661.7665,41.404 1661.0105,42.16 C1660.3895,42.754 1659.7955,43.321 1659.2015,43.915 L1657.3925,45.67 L1656.2855,46.723 C1655.8805,47.101 1655.3675,47.56 1654.7465,48.073 C1655.6375,47.965 1656.3935,47.911 1656.9875,47.857 C1657.5815,47.83 1658.1485,47.803 1658.6885,47.749 C1659.2555,47.722 1659.8495,47.695 1660.4975,47.695 C1661.1185,47.695 1661.7125,47.641 1662.3065,47.587 L1662.6845,47.533 L1663.0625,47.452 C1663.2785,47.398 1663.5215,47.371 1663.7645,47.371 C1664.0885,47.371 1664.3585,47.533 1664.6015,47.857 C1664.8445,48.181 1664.9795,48.505 1664.9795,48.883 C1664.9795,49.126 1664.8715,49.315 1664.7095,49.423 C1664.5475,49.585 1664.3855,49.639 1664.2235,49.639 C1663.6295,49.639 1663.0625,49.612 1662.4955,49.504 C1661.9015,49.423 1661.3075,49.369 1660.7405,49.369 C1659.7145,49.369 1658.6615,49.423 1657.5815,49.531 C1656.4745,49.639 1655.4215,49.747 1654.3955,49.882 C1654.2605,49.909 1654.1255,49.936 1654.0175,49.963 C1653.8825,49.99 1653.7475,50.017 1653.6125,50.044 C1653.3425,50.098 1653.0995,50.125 1652.8835,50.125 C1652.5325,50.125 1652.2355,50.044 1651.9655,49.828 C1651.6685,49.639 1651.5335,49.342 1651.5335,48.964 C1651.5335,48.721 1651.5875,48.505 1651.6955,48.289 C1651.8035,48.127 1651.9655,47.938 1652.1545,47.749 C1652.3705,47.533 1652.5595,47.317 1652.7755,47.101 C1652.9915,46.885 1653.2075,46.696 1653.4775,46.48 C1654.3955,45.751 1655.2865,44.995 1656.1235,44.185 L1658.6885,41.782 C1659.0125,41.458 1659.3635,41.107 1659.6875,40.729 C1659.9845,40.378 1660.2545,40 1660.4975,39.568 C1660.7405,39.163 1660.9295,38.731 1661.0915,38.245 C1661.2535,37.786 1661.3345,37.3 1661.3345,36.76 C1661.3345,36.328 1661.2535,35.923 1661.0915,35.518 C1660.9295,35.14 1660.7135,34.789 1660.4435,34.465 C1660.1465,34.168 1659.8225,33.925 1659.4445,33.736 C1659.0665,33.574 1658.6345,33.466 1658.2025,33.466 C1657.3925,33.466 1656.7445,33.655 1656.2855,34.006 C1655.7995,34.384 1655.3675,34.87 1654.9895,35.518 C1654.8815,35.68 1654.8275,35.815 1654.7735,35.977 C1654.7195,36.139 1654.6385,36.301 1654.5845,36.436 C1654.5035,36.598 1654.4225,36.76 1654.3415,36.895 C1654.2605,37.057 1654.1795,37.192 1654.1255,37.273 C1653.9635,37.435 1653.8285,37.57 1653.7205,37.651 C1653.5855,37.759 1653.4235,37.786 1653.2345,37.786 C1652.9645,37.786 1652.7215,37.678 1652.4785,37.435 C1652.2085,37.219 1652.1005,36.976 1652.1005,36.652 C1652.1005,36.409 1652.1545,36.112 1652.2895,35.788 C1652.3975,35.464 1652.5595,35.14 1652.7485,34.816 C1652.9105,34.492 1653.1265,34.195 1653.3425,33.898 C1653.5585,33.628 1653.7475,33.385 1653.9635,33.223 C1654.5575,32.71 1655.2325,32.332 1655.9885,32.089 C1656.7445,31.873 1657.5005,31.765 1658.2835,31.765 Z" transform="translate(-1645 -31.765)"/></svg>