<svg xmlns="http://www.w3.org/2000/svg" width="64" height="243" viewBox="0 0 64 243"><path fill="#131313" d="M34.515,157.490234 C34.515,142.067057 34.515,118.932292 34.515,88.0859375 C34.515,85.8398438 35.3385677,83.8932292 36.9857031,82.2460938 C38.483099,80.7486979 40.3548437,80 42.6009375,80 C44.8470312,80 46.7936458,80.7486979 48.4407812,82.2460938 C50.0879167,83.8932292 50.9114844,85.8398438 50.9114844,88.0859375 C50.9114844,103.509115 50.9114844,126.64388 50.9114844,157.490234 C50.9114844,159.736328 50.0879167,161.682943 48.4407812,163.330078 C46.7936458,164.827474 44.8470312,165.576172 42.6009375,165.576172 C40.3548437,165.576172 38.483099,164.827474 36.9857031,163.330078 C35.3385677,161.682943 34.515,159.736328 34.515,157.490234 Z M19.7315,85.265 C22.0787102,85.265 23.9815,87.1677898 23.9815,89.515 C23.9815,91.4384491 22.703743,93.0634622 20.950745,93.587523 L20.95025,140.603516 L22.9717344,140.603516 C21.6240781,146.14388 20.575901,150.336589 19.8272031,153.181641 C18.3298073,147.641276 17.2067604,143.448568 16.4580625,140.603516 L18.4795469,140.603516 L18.4791795,93.5774871 C16.7432077,93.0429748 15.4815,91.4263312 15.4815,89.515 C15.4815,87.1677898 17.3842898,85.265 19.7315,85.265 Z M19.7315,86.265 C17.9365746,86.265 16.4815,87.7200746 16.4815,89.515 C16.4815,91.3099254 17.9365746,92.765 19.7315,92.765 C21.5264254,92.765 22.9815,91.3099254 22.9815,89.515 C22.9815,87.7200746 21.5264254,86.265 19.7315,86.265 Z M7.857,92.45 C7.857,92.099 7.749,91.829 7.533,91.667 C7.29,91.505 6.993,91.397 6.615,91.397 C6.453,91.397 6.318,91.478 6.156,91.586 C5.994,91.721 5.859,91.829 5.778,91.91 C5.562,92.126 5.4,92.315 5.265,92.531 C5.103,92.747 4.914,92.963 4.752,93.152 C4.239,93.746 3.699,94.394 3.105,95.042 C2.484,95.717 1.89,96.311 1.323,96.851 C1.269,96.905 1.188,96.959 1.134,97.013 L0.918,97.121 C0.837,97.175 0.756,97.202 0.702,97.256 L0.459,97.418 C0.324,97.526 0.216,97.607 0.135,97.688 C0.027,97.796 0,97.877 0,97.958 C0,98.282 0.135,98.525 0.459,98.714 C0.729,98.93 1.053,99.011 1.377,99.011 C1.62,99.011 1.836,98.957 2.052,98.849 C2.241,98.741 2.43,98.579 2.646,98.363 C2.781,98.201 2.943,98.012 3.159,97.769 L3.699,97.175 C3.834,97.04 4.05,96.824 4.32,96.527 C4.59,96.23 4.887,95.879 5.265,95.474 C5.184,95.906 5.103,96.419 5.049,97.013 C4.941,97.607 4.86,98.201 4.779,98.849 L4.563,100.766 C4.509,101.414 4.455,102.035 4.428,102.575 C4.374,103.601 4.32,104.627 4.293,105.653 C4.239,106.679 4.212,107.57 4.212,108.326 C4.212,108.758 4.32,109.082 4.563,109.325 C4.806,109.595 5.13,109.703 5.562,109.703 C5.778,109.703 6.021,109.649 6.291,109.541 C6.507,109.433 6.642,109.298 6.642,109.136 C6.642,109.055 6.615,108.893 6.615,108.623 C6.561,108.38 6.534,108.083 6.507,107.759 C6.453,107.462 6.399,107.138 6.399,106.787 C6.345,106.436 6.345,106.112 6.345,105.842 C6.345,103.952 6.399,102.062 6.561,100.145 C6.723,98.255 7.02,96.365 7.506,94.502 C7.533,94.34 7.587,94.178 7.641,93.989 L7.749,93.476 L7.83,92.963 C7.83,92.801 7.857,92.639 7.857,92.45 Z M31.512,29.262 C32.856,29.262 35.32,30.606 38.904,33.07 C42.264,35.758 45.848,38.67 49.432,41.806 C53.016,45.39 56.152,48.75 58.84,51.886 C61.528,55.246 62.872,57.71 62.872,59.278 C62.872,61.518 61.304,62.414 58.616,62.414 C56.824,62.414 54.584,61.742 51.448,60.174 C48.312,58.606 45.176,56.59 41.816,54.35 C38.232,52.11 35.096,49.87 32.184,47.63 C29.048,45.39 26.808,43.374 25.464,41.806 C23.672,40.238 23,38.67 23,37.102 C23,34.862 23.672,33.07 25.464,31.502 C27.256,30.158 29.272,29.262 31.512,29.262 Z M41.7315,18.5 C44.0787102,18.5 45.9815,20.4027898 45.9815,22.75 C45.9815,23.3281249 45.8660669,23.8792889 45.6569918,24.3817012 L58.616,34.17 L60.4308309,32.078818 L68.7938401,42.320067 L55.4815,37.7836473 L57.302,35.684 L44.475834,25.9952885 C43.7353905,26.6220647 42.777581,27 41.7315,27 C39.3842898,27 37.4815,25.0972102 37.4815,22.75 C37.4815,20.4027898 39.3842898,18.5 41.7315,18.5 Z M41.7315,19.5 C39.9365746,19.5 38.4815,20.9550746 38.4815,22.75 C38.4815,24.5449254 39.9365746,26 41.7315,26 C43.5264254,26 44.9815,24.5449254 44.9815,22.75 C44.9815,20.9550746 43.5264254,19.5 41.7315,19.5 Z M25.265,3.235 C25.967,3.235 26.642,3.37 27.263,3.64 C27.884,3.91 28.424,4.261 28.883,4.693 C29.315,5.152 29.666,5.665 29.936,6.205 C30.179,6.772 30.314,7.339 30.314,7.906 C30.314,9.013 30.125,10.039 29.747,11.011 C29.342,12.01 28.748,12.874 27.992,13.63 C27.371,14.224 26.777,14.791 26.183,15.385 L24.374,17.14 L23.267,18.193 C22.862,18.571 22.349,19.03 21.728,19.543 C22.619,19.435 23.375,19.381 23.969,19.327 C24.563,19.3 25.13,19.273 25.67,19.219 C26.237,19.192 26.831,19.165 27.479,19.165 C28.1,19.165 28.694,19.111 29.288,19.057 L29.666,19.003 L30.044,18.922 C30.26,18.868 30.503,18.841 30.746,18.841 C31.07,18.841 31.34,19.003 31.583,19.327 C31.826,19.651 31.961,19.975 31.961,20.353 C31.961,20.596 31.853,20.785 31.691,20.893 C31.529,21.055 31.367,21.109 31.205,21.109 C30.611,21.109 30.044,21.082 29.477,20.974 C28.883,20.893 28.289,20.839 27.722,20.839 C26.696,20.839 25.643,20.893 24.563,21.001 C23.456,21.109 22.403,21.217 21.377,21.352 C21.242,21.379 21.107,21.406 20.999,21.433 C20.864,21.46 20.729,21.487 20.594,21.514 C20.324,21.568 20.081,21.595 19.865,21.595 C19.514,21.595 19.217,21.514 18.947,21.298 C18.65,21.109 18.515,20.812 18.515,20.434 C18.515,20.191 18.569,19.975 18.677,19.759 C18.785,19.597 18.947,19.408 19.136,19.219 C19.352,19.003 19.541,18.787 19.757,18.571 C19.973,18.355 20.189,18.166 20.459,17.95 C21.377,17.221 22.268,16.465 23.105,15.655 L25.67,13.252 C25.994,12.928 26.345,12.577 26.669,12.199 C26.966,11.848 27.236,11.47 27.479,11.038 C27.722,10.633 27.911,10.201 28.073,9.715 C28.235,9.256 28.316,8.77 28.316,8.23 C28.316,7.798 28.235,7.393 28.073,6.988 C27.911,6.61 27.695,6.259 27.425,5.935 C27.128,5.638 26.804,5.395 26.426,5.206 C26.048,5.044 25.616,4.936 25.184,4.936 C24.374,4.936 23.726,5.125 23.267,5.476 C22.781,5.854 22.349,6.34 21.971,6.988 C21.863,7.15 21.809,7.285 21.755,7.447 C21.701,7.609 21.62,7.771 21.566,7.906 C21.485,8.068 21.404,8.23 21.323,8.365 C21.242,8.527 21.161,8.662 21.107,8.743 C20.945,8.905 20.81,9.04 20.702,9.121 C20.567,9.229 20.405,9.256 20.216,9.256 C19.946,9.256 19.703,9.148 19.46,8.905 C19.19,8.689 19.082,8.446 19.082,8.122 C19.082,7.879 19.136,7.582 19.271,7.258 C19.379,6.934 19.541,6.61 19.73,6.286 C19.892,5.962 20.108,5.665 20.324,5.368 C20.54,5.098 20.729,4.855 20.945,4.693 C21.539,4.18 22.214,3.802 22.97,3.559 C23.726,3.343 24.482,3.235 25.265,3.235 Z" transform="translate(-10.481)"/></svg>