<svg xmlns="http://www.w3.org/2000/svg" width="64" height="203" viewBox="0 0 64 203"><path fill="#131313" d="M2716.5335,194.490234 C2716.5335,179.067057 2716.5335,155.932292 2716.5335,125.085938 C2716.5335,122.839844 2717.35707,120.893229 2719.0042,119.246094 C2720.5016,117.748698 2722.37334,117 2724.61944,117 C2726.86553,117 2728.81215,117.748698 2730.45928,119.246094 C2732.10642,120.893229 2732.92998,122.839844 2732.92998,125.085938 C2732.92998,140.509115 2732.92998,163.64388 2732.92998,194.490234 C2732.92998,196.736328 2732.10642,198.682943 2730.45928,200.330078 C2728.81215,201.827474 2726.86553,202.576172 2724.61944,202.576172 C2722.37334,202.576172 2720.5016,201.827474 2719.0042,200.330078 C2717.35707,198.682943 2716.5335,196.736328 2716.5335,194.490234 Z M2701.75,122.265 C2704.09721,122.265 2706,124.16779 2706,126.515 C2706,128.438449 2704.72224,130.063462 2702.96925,130.587523 L2702.96875,177.603516 L2704.99023,177.603516 C2703.64258,183.14388 2702.5944,187.336589 2701.8457,190.181641 C2700.34831,184.641276 2699.22526,180.448568 2698.47656,177.603516 L2700.49805,177.603516 L2700.49768,130.577487 C2698.76171,130.042975 2697.5,128.426331 2697.5,126.515 C2697.5,124.16779 2699.40279,122.265 2701.75,122.265 Z M2701.75,123.265 C2699.95507,123.265 2698.5,124.720075 2698.5,126.515 C2698.5,128.309925 2699.95507,129.765 2701.75,129.765 C2703.54493,129.765 2705,128.309925 2705,126.515 C2705,124.720075 2703.54493,123.265 2701.75,123.265 Z M2689.8755,129.45 C2689.8755,129.099 2689.7675,128.829 2689.5515,128.667 C2689.3085,128.505 2689.0115,128.397 2688.6335,128.397 C2688.4715,128.397 2688.3365,128.478 2688.1745,128.586 C2688.0125,128.721 2687.8775,128.829 2687.7965,128.91 C2687.5805,129.126 2687.4185,129.315 2687.2835,129.531 C2687.1215,129.747 2686.9325,129.963 2686.7705,130.152 C2686.2575,130.746 2685.7175,131.394 2685.1235,132.042 C2684.5025,132.717 2683.9085,133.311 2683.3415,133.851 C2683.2875,133.905 2683.2065,133.959 2683.1525,134.013 L2682.9365,134.121 C2682.8555,134.175 2682.7745,134.202 2682.7205,134.256 L2682.4775,134.418 C2682.3425,134.526 2682.2345,134.607 2682.1535,134.688 C2682.0455,134.796 2682.0185,134.877 2682.0185,134.958 C2682.0185,135.282 2682.1535,135.525 2682.4775,135.714 C2682.7475,135.93 2683.0715,136.011 2683.3955,136.011 C2683.6385,136.011 2683.8545,135.957 2684.0705,135.849 C2684.2595,135.741 2684.4485,135.579 2684.6645,135.363 C2684.7995,135.201 2684.9615,135.012 2685.1775,134.769 L2685.7175,134.175 C2685.8525,134.04 2686.0685,133.824 2686.3385,133.527 C2686.6085,133.23 2686.9055,132.879 2687.2835,132.474 C2687.2025,132.906 2687.1215,133.419 2687.0675,134.013 C2686.9595,134.607 2686.8785,135.201 2686.7975,135.849 L2686.5815,137.766 C2686.5275,138.414 2686.4735,139.035 2686.4465,139.575 C2686.3925,140.601 2686.3385,141.627 2686.3115,142.653 C2686.2575,143.679 2686.2305,144.57 2686.2305,145.326 C2686.2305,145.758 2686.3385,146.082 2686.5815,146.325 C2686.8245,146.595 2687.1485,146.703 2687.5805,146.703 C2687.7965,146.703 2688.0395,146.649 2688.3095,146.541 C2688.5255,146.433 2688.6605,146.298 2688.6605,146.136 C2688.6605,146.055 2688.6335,145.893 2688.6335,145.623 C2688.5795,145.38 2688.5525,145.083 2688.5255,144.759 C2688.4715,144.462 2688.4175,144.138 2688.4175,143.787 C2688.3635,143.436 2688.3635,143.112 2688.3635,142.842 C2688.3635,140.952 2688.4175,139.062 2688.5795,137.145 C2688.7415,135.255 2689.0385,133.365 2689.5245,131.502 C2689.5515,131.34 2689.6055,131.178 2689.6595,130.989 L2689.7675,130.476 L2689.8485,129.963 C2689.8485,129.801 2689.8755,129.639 2689.8755,129.45 Z M2713.5305,66.262 C2714.8745,66.262 2717.3385,67.606 2720.9225,70.07 C2724.2825,72.758 2727.8665,75.67 2731.4505,78.806 C2735.0345,82.39 2738.1705,85.75 2740.8585,88.886 C2743.5465,92.246 2744.8905,94.71 2744.8905,96.278 C2744.8905,98.518 2743.3225,99.414 2740.6345,99.414 C2738.8425,99.414 2736.6025,98.742 2733.4665,97.174 C2730.3305,95.606 2727.1945,93.59 2723.8345,91.35 C2720.2505,89.11 2717.1145,86.87 2714.2025,84.63 C2711.0665,82.39 2708.8265,80.374 2707.4825,78.806 C2705.6905,77.238 2705.0185,75.67 2705.0185,74.102 C2705.0185,71.862 2705.6905,70.07 2707.4825,68.502 C2709.2745,67.158 2711.2905,66.262 2713.5305,66.262 Z M2723.75,55.5 C2726.09721,55.5 2728,57.4027898 2728,59.75 C2728,60.3281249 2727.88457,60.8792889 2727.67549,61.3817012 L2740.6345,71.17 L2742.44933,69.078818 L2750.81234,79.320067 L2737.5,74.7836473 L2739.3205,72.684 L2726.49433,62.9952885 C2725.75389,63.6220647 2724.79608,64 2723.75,64 C2721.40279,64 2719.5,62.0972102 2719.5,59.75 C2719.5,57.4027898 2721.40279,55.5 2723.75,55.5 Z M2723.75,56.5 C2721.95507,56.5 2720.5,57.9550746 2720.5,59.75 C2720.5,61.5449254 2721.95507,63 2723.75,63 C2725.54493,63 2727,61.5449254 2727,59.75 C2727,57.9550746 2725.54493,56.5 2723.75,56.5 Z M2707.2835,40.235 C2707.9855,40.235 2708.6605,40.37 2709.2815,40.64 C2709.9025,40.91 2710.4425,41.261 2710.9015,41.693 C2711.3335,42.152 2711.6845,42.665 2711.9545,43.205 C2712.1975,43.772 2712.3325,44.339 2712.3325,44.906 C2712.3325,46.013 2712.1435,47.039 2711.7655,48.011 C2711.3605,49.01 2710.7665,49.874 2710.0105,50.63 C2709.3895,51.224 2708.7955,51.791 2708.2015,52.385 L2706.3925,54.14 L2705.2855,55.193 C2704.8805,55.571 2704.3675,56.03 2703.7465,56.543 C2704.6375,56.435 2705.3935,56.381 2705.9875,56.327 C2706.5815,56.3 2707.1485,56.273 2707.6885,56.219 C2708.2555,56.192 2708.8495,56.165 2709.4975,56.165 C2710.1185,56.165 2710.7125,56.111 2711.3065,56.057 L2711.6845,56.003 L2712.0625,55.922 C2712.2785,55.868 2712.5215,55.841 2712.7645,55.841 C2713.0885,55.841 2713.3585,56.003 2713.6015,56.327 C2713.8445,56.651 2713.9795,56.975 2713.9795,57.353 C2713.9795,57.596 2713.8715,57.785 2713.7095,57.893 C2713.5475,58.055 2713.3855,58.109 2713.2235,58.109 C2712.6295,58.109 2712.0625,58.082 2711.4955,57.974 C2710.9015,57.893 2710.3075,57.839 2709.7405,57.839 C2708.7145,57.839 2707.6615,57.893 2706.5815,58.001 C2705.4745,58.109 2704.4215,58.217 2703.3955,58.352 C2703.2605,58.379 2703.1255,58.406 2703.0175,58.433 C2702.8825,58.46 2702.7475,58.487 2702.6125,58.514 C2702.3425,58.568 2702.0995,58.595 2701.8835,58.595 C2701.5325,58.595 2701.2355,58.514 2700.9655,58.298 C2700.6685,58.109 2700.5335,57.812 2700.5335,57.434 C2700.5335,57.191 2700.5875,56.975 2700.6955,56.759 C2700.8035,56.597 2700.9655,56.408 2701.1545,56.219 C2701.3705,56.003 2701.5595,55.787 2701.7755,55.571 C2701.9915,55.355 2702.2075,55.166 2702.4775,54.95 C2703.3955,54.221 2704.2865,53.465 2705.1235,52.655 L2707.6885,50.252 C2708.0125,49.928 2708.3635,49.577 2708.6875,49.199 C2708.9845,48.848 2709.2545,48.47 2709.4975,48.038 C2709.7405,47.633 2709.9295,47.201 2710.0915,46.715 C2710.2535,46.256 2710.3345,45.77 2710.3345,45.23 C2710.3345,44.798 2710.2535,44.393 2710.0915,43.988 C2709.9295,43.61 2709.7135,43.259 2709.4435,42.935 C2709.1465,42.638 2708.8225,42.395 2708.4445,42.206 C2708.0665,42.044 2707.6345,41.936 2707.2025,41.936 C2706.3925,41.936 2705.7445,42.125 2705.2855,42.476 C2704.7995,42.854 2704.3675,43.34 2703.9895,43.988 C2703.8815,44.15 2703.8275,44.285 2703.7735,44.447 C2703.7195,44.609 2703.6385,44.771 2703.5845,44.906 C2703.5035,45.068 2703.4225,45.23 2703.3415,45.365 C2703.2605,45.527 2703.1795,45.662 2703.1255,45.743 C2702.9635,45.905 2702.8285,46.04 2702.7205,46.121 C2702.5855,46.229 2702.4235,46.256 2702.2345,46.256 C2701.9645,46.256 2701.7215,46.148 2701.4785,45.905 C2701.2085,45.689 2701.1005,45.446 2701.1005,45.122 C2701.1005,44.879 2701.1545,44.582 2701.2895,44.258 C2701.3975,43.934 2701.5595,43.61 2701.7485,43.286 C2701.9105,42.962 2702.1265,42.665 2702.3425,42.368 C2702.5585,42.098 2702.7475,41.855 2702.9635,41.693 C2703.5575,41.18 2704.2325,40.802 2704.9885,40.559 C2705.7445,40.343 2706.5005,40.235 2707.2835,40.235 Z" transform="translate(-2692.5)"/></svg>