<svg xmlns="http://www.w3.org/2000/svg" width="64" height="203" viewBox="0 0 64 203"><path fill="#131313" d="M2716.5335,165.255234 C2716.5335,149.832057 2716.5335,126.697292 2716.5335,95.8509375 C2716.5335,93.6048437 2717.35707,91.6582292 2719.0042,90.0110937 C2720.5016,88.5136979 2722.37334,87.765 2724.61944,87.765 C2726.86553,87.765 2728.81215,88.5136979 2730.45928,90.0110937 C2732.10642,91.6582292 2732.92998,93.6048437 2732.92998,95.8509375 C2732.92998,111.274115 2732.92998,134.40888 2732.92998,165.255234 C2732.92998,167.501328 2732.10642,169.447943 2730.45928,171.095078 C2728.81215,172.592474 2726.86553,173.341172 2724.61944,173.341172 C2722.37334,173.341172 2720.5016,172.592474 2719.0042,171.095078 C2717.35707,169.447943 2716.5335,167.501328 2716.5335,165.255234 Z M2701.75,93.03 C2704.09721,93.03 2706,94.9327898 2706,97.28 C2706,99.2034491 2704.72224,100.828462 2702.96925,101.352523 L2702.96875,148.368516 L2704.99023,148.368516 C2703.64258,153.90888 2702.5944,158.101589 2701.8457,160.946641 C2700.34831,155.406276 2699.22526,151.213568 2698.47656,148.368516 L2700.49805,148.368516 L2700.49768,101.342487 C2698.76171,100.807975 2697.5,99.1913312 2697.5,97.28 C2697.5,94.9327898 2699.40279,93.03 2701.75,93.03 Z M2701.75,94.03 C2699.95507,94.03 2698.5,95.4850746 2698.5,97.28 C2698.5,99.0749254 2699.95507,100.53 2701.75,100.53 C2703.54493,100.53 2705,99.0749254 2705,97.28 C2705,95.4850746 2703.54493,94.03 2701.75,94.03 Z M2689.8755,100.215 C2689.8755,99.864 2689.7675,99.594 2689.5515,99.432 C2689.3085,99.27 2689.0115,99.162 2688.6335,99.162 C2688.4715,99.162 2688.3365,99.243 2688.1745,99.351 C2688.0125,99.486 2687.8775,99.594 2687.7965,99.675 C2687.5805,99.891 2687.4185,100.08 2687.2835,100.296 C2687.1215,100.512 2686.9325,100.728 2686.7705,100.917 C2686.2575,101.511 2685.7175,102.159 2685.1235,102.807 C2684.5025,103.482 2683.9085,104.076 2683.3415,104.616 C2683.2875,104.67 2683.2065,104.724 2683.1525,104.778 L2682.9365,104.886 C2682.8555,104.94 2682.7745,104.967 2682.7205,105.021 L2682.4775,105.183 C2682.3425,105.291 2682.2345,105.372 2682.1535,105.453 C2682.0455,105.561 2682.0185,105.642 2682.0185,105.723 C2682.0185,106.047 2682.1535,106.29 2682.4775,106.479 C2682.7475,106.695 2683.0715,106.776 2683.3955,106.776 C2683.6385,106.776 2683.8545,106.722 2684.0705,106.614 C2684.2595,106.506 2684.4485,106.344 2684.6645,106.128 C2684.7995,105.966 2684.9615,105.777 2685.1775,105.534 L2685.7175,104.94 C2685.8525,104.805 2686.0685,104.589 2686.3385,104.292 C2686.6085,103.995 2686.9055,103.644 2687.2835,103.239 C2687.2025,103.671 2687.1215,104.184 2687.0675,104.778 C2686.9595,105.372 2686.8785,105.966 2686.7975,106.614 L2686.5815,108.531 C2686.5275,109.179 2686.4735,109.8 2686.4465,110.34 C2686.3925,111.366 2686.3385,112.392 2686.3115,113.418 C2686.2575,114.444 2686.2305,115.335 2686.2305,116.091 C2686.2305,116.523 2686.3385,116.847 2686.5815,117.09 C2686.8245,117.36 2687.1485,117.468 2687.5805,117.468 C2687.7965,117.468 2688.0395,117.414 2688.3095,117.306 C2688.5255,117.198 2688.6605,117.063 2688.6605,116.901 C2688.6605,116.82 2688.6335,116.658 2688.6335,116.388 C2688.5795,116.145 2688.5525,115.848 2688.5255,115.524 C2688.4715,115.227 2688.4175,114.903 2688.4175,114.552 C2688.3635,114.201 2688.3635,113.877 2688.3635,113.607 C2688.3635,111.717 2688.4175,109.827 2688.5795,107.91 C2688.7415,106.02 2689.0385,104.13 2689.5245,102.267 C2689.5515,102.105 2689.6055,101.943 2689.6595,101.754 L2689.7675,101.241 L2689.8485,100.728 C2689.8485,100.566 2689.8755,100.404 2689.8755,100.215 Z M2713.5305,37.027 C2714.8745,37.027 2717.3385,38.371 2720.9225,40.835 C2724.2825,43.523 2727.8665,46.435 2731.4505,49.571 C2735.0345,53.155 2738.1705,56.515 2740.8585,59.651 C2743.5465,63.011 2744.8905,65.475 2744.8905,67.043 C2744.8905,69.283 2743.3225,70.179 2740.6345,70.179 C2738.8425,70.179 2736.6025,69.507 2733.4665,67.939 C2730.3305,66.371 2727.1945,64.355 2723.8345,62.115 C2720.2505,59.875 2717.1145,57.635 2714.2025,55.395 C2711.0665,53.155 2708.8265,51.139 2707.4825,49.571 C2705.6905,48.003 2705.0185,46.435 2705.0185,44.867 C2705.0185,42.627 2705.6905,40.835 2707.4825,39.267 C2709.2745,37.923 2711.2905,37.027 2713.5305,37.027 Z M2723.75,26.265 C2726.09721,26.265 2728,28.1677898 2728,30.515 C2728,31.0931249 2727.88457,31.6442889 2727.67549,32.1467012 L2740.6345,41.935 L2742.44933,39.843818 L2750.81234,50.085067 L2737.5,45.5486473 L2739.3205,43.449 L2726.49433,33.7602885 C2725.75389,34.3870647 2724.79608,34.765 2723.75,34.765 C2721.40279,34.765 2719.5,32.8622102 2719.5,30.515 C2719.5,28.1677898 2721.40279,26.265 2723.75,26.265 Z M2723.75,27.265 C2721.95507,27.265 2720.5,28.7200746 2720.5,30.515 C2720.5,32.3099254 2721.95507,33.765 2723.75,33.765 C2725.54493,33.765 2727,32.3099254 2727,30.515 C2727,28.7200746 2725.54493,27.265 2723.75,27.265 Z M2707.2835,11 C2707.9855,11 2708.6605,11.135 2709.2815,11.405 C2709.9025,11.675 2710.4425,12.026 2710.9015,12.458 C2711.3335,12.917 2711.6845,13.43 2711.9545,13.97 C2712.1975,14.537 2712.3325,15.104 2712.3325,15.671 C2712.3325,16.778 2712.1435,17.804 2711.7655,18.776 C2711.3605,19.775 2710.7665,20.639 2710.0105,21.395 C2709.3895,21.989 2708.7955,22.556 2708.2015,23.15 L2706.3925,24.905 L2705.2855,25.958 C2704.8805,26.336 2704.3675,26.795 2703.7465,27.308 C2704.6375,27.2 2705.3935,27.146 2705.9875,27.092 C2706.5815,27.065 2707.1485,27.038 2707.6885,26.984 C2708.2555,26.957 2708.8495,26.93 2709.4975,26.93 C2710.1185,26.93 2710.7125,26.876 2711.3065,26.822 L2711.6845,26.768 L2712.0625,26.687 C2712.2785,26.633 2712.5215,26.606 2712.7645,26.606 C2713.0885,26.606 2713.3585,26.768 2713.6015,27.092 C2713.8445,27.416 2713.9795,27.74 2713.9795,28.118 C2713.9795,28.361 2713.8715,28.55 2713.7095,28.658 C2713.5475,28.82 2713.3855,28.874 2713.2235,28.874 C2712.6295,28.874 2712.0625,28.847 2711.4955,28.739 C2710.9015,28.658 2710.3075,28.604 2709.7405,28.604 C2708.7145,28.604 2707.6615,28.658 2706.5815,28.766 C2705.4745,28.874 2704.4215,28.982 2703.3955,29.117 C2703.2605,29.144 2703.1255,29.171 2703.0175,29.198 C2702.8825,29.225 2702.7475,29.252 2702.6125,29.279 C2702.3425,29.333 2702.0995,29.36 2701.8835,29.36 C2701.5325,29.36 2701.2355,29.279 2700.9655,29.063 C2700.6685,28.874 2700.5335,28.577 2700.5335,28.199 C2700.5335,27.956 2700.5875,27.74 2700.6955,27.524 C2700.8035,27.362 2700.9655,27.173 2701.1545,26.984 C2701.3705,26.768 2701.5595,26.552 2701.7755,26.336 C2701.9915,26.12 2702.2075,25.931 2702.4775,25.715 C2703.3955,24.986 2704.2865,24.23 2705.1235,23.42 L2707.6885,21.017 C2708.0125,20.693 2708.3635,20.342 2708.6875,19.964 C2708.9845,19.613 2709.2545,19.235 2709.4975,18.803 C2709.7405,18.398 2709.9295,17.966 2710.0915,17.48 C2710.2535,17.021 2710.3345,16.535 2710.3345,15.995 C2710.3345,15.563 2710.2535,15.158 2710.0915,14.753 C2709.9295,14.375 2709.7135,14.024 2709.4435,13.7 C2709.1465,13.403 2708.8225,13.16 2708.4445,12.971 C2708.0665,12.809 2707.6345,12.701 2707.2025,12.701 C2706.3925,12.701 2705.7445,12.89 2705.2855,13.241 C2704.7995,13.619 2704.3675,14.105 2703.9895,14.753 C2703.8815,14.915 2703.8275,15.05 2703.7735,15.212 C2703.7195,15.374 2703.6385,15.536 2703.5845,15.671 C2703.5035,15.833 2703.4225,15.995 2703.3415,16.13 C2703.2605,16.292 2703.1795,16.427 2703.1255,16.508 C2702.9635,16.67 2702.8285,16.805 2702.7205,16.886 C2702.5855,16.994 2702.4235,17.021 2702.2345,17.021 C2701.9645,17.021 2701.7215,16.913 2701.4785,16.67 C2701.2085,16.454 2701.1005,16.211 2701.1005,15.887 C2701.1005,15.644 2701.1545,15.347 2701.2895,15.023 C2701.3975,14.699 2701.5595,14.375 2701.7485,14.051 C2701.9105,13.727 2702.1265,13.43 2702.3425,13.133 C2702.5585,12.863 2702.7475,12.62 2702.9635,12.458 C2703.5575,11.945 2704.2325,11.567 2704.9885,11.324 C2705.7445,11.108 2706.5005,11 2707.2835,11 Z" transform="translate(-2692.5 -31.765)"/></svg>