<svg xmlns="http://www.w3.org/2000/svg" width="64" height="243" viewBox="0 0 64 243"><path fill="#131313" d="M31.5335,157.490234 C31.5335,142.067057 31.5335,118.932292 31.5335,88.0859375 C31.5335,85.8398438 32.3570677,83.8932292 34.0042031,82.2460938 C35.501599,80.7486979 37.3733437,80 39.6194375,80 C41.8655312,80 43.8121458,80.7486979 45.4592812,82.2460938 C47.1064167,83.8932292 47.9299844,85.8398438 47.9299844,88.0859375 C47.9299844,103.509115 47.9299844,126.64388 47.9299844,157.490234 C47.9299844,159.736328 47.1064167,161.682943 45.4592812,163.330078 C43.8121458,164.827474 41.8655312,165.576172 39.6194375,165.576172 C37.3733437,165.576172 35.501599,164.827474 34.0042031,163.330078 C32.3570677,161.682943 31.5335,159.736328 31.5335,157.490234 Z M16.75,85.265 C19.0972102,85.265 21,87.1677898 21,89.515 C21,91.4387673 19.7218203,93.0639997 17.9683752,93.5877829 L17.96875,140.603516 L19.9902344,140.603516 C18.6425781,146.14388 17.594401,150.336589 16.8457031,153.181641 C15.3483073,147.641276 14.2252604,143.448568 13.4765625,140.603516 L15.4980469,140.603516 L15.4983697,93.5776996 C13.7620422,93.0434033 12.5,91.4265845 12.5,89.515 C12.5,87.1677898 14.4027898,85.265 16.75,85.265 Z M16.75,86.265 C14.9550746,86.265 13.5,87.7200746 13.5,89.515 C13.5,91.3099254 14.9550746,92.765 16.75,92.765 C18.5449254,92.765 20,91.3099254 20,89.515 C20,87.7200746 18.5449254,86.265 16.75,86.265 Z M3.59375,91.4140625 C3.74348958,91.5638021 3.81835937,91.6386719 3.81835937,91.6386719 C3.96809896,91.6386719 4.04296875,91.7135417 4.04296875,91.8632812 C4.19270833,91.8632812 4.26757812,91.938151 4.26757812,92.0878906 C4.26757812,92.2376302 4.26757812,92.3125 4.26757812,92.3125 C4.26757812,94.2591146 4.26757812,96.5800781 4.26757812,99.2753906 C4.26757812,102.120443 4.26757812,105.339844 4.26757812,108.933594 C4.26757812,109.083333 4.26757812,109.233073 4.26757812,109.382812 C4.11783854,109.532552 4.04296875,109.682292 4.04296875,109.832031 C3.89322917,109.832031 3.74348958,109.832031 3.59375,109.832031 C3.44401042,109.981771 3.36914062,110.056641 3.36914062,110.056641 C3.21940104,110.056641 3.06966146,109.981771 2.91992188,109.832031 C2.77018229,109.832031 2.62044271,109.832031 2.47070313,109.832031 C2.47070313,109.682292 2.47070313,109.532552 2.47070313,109.382812 C2.32096354,109.233073 2.24609375,109.083333 2.24609375,108.933594 C2.24609375,107.436198 2.24609375,105.489583 2.24609375,103.09375 C2.24609375,100.697917 2.24609375,97.9277344 2.24609375,94.7832031 C2.24609375,94.7832031 2.17122396,94.8580729 2.02148438,95.0078125 C1.87174479,95.1575521 1.72200521,95.3072917 1.57226563,95.4570312 C1.57226563,95.4570312 1.49739583,95.531901 1.34765625,95.6816406 C1.19791667,95.6816406 1.04817708,95.6816406 0.8984375,95.6816406 C0.748697917,95.6816406 0.673828125,95.6816406 0.673828125,95.6816406 C0.524088542,95.531901 0.374348958,95.4570312 0.224609375,95.4570312 C0.0748697917,95.3072917 0,95.1575521 0,95.0078125 C0,95.0078125 0,94.9329427 0,94.7832031 C0,94.6334635 0,94.483724 0,94.3339844 C0,94.1842448 0.0748697917,94.109375 0.224609375,94.109375 C0.524088542,93.8098958 0.8984375,93.4355469 1.34765625,92.9863281 C1.64713542,92.686849 2.09635417,92.2376302 2.6953125,91.6386719 C2.6953125,91.6386719 2.77018229,91.5638021 2.91992188,91.4140625 C2.91992188,91.4140625 2.99479167,91.4140625 3.14453125,91.4140625 C3.14453125,91.4140625 3.14453125,91.4140625 3.14453125,91.4140625 C3.29427083,91.4140625 3.36914062,91.4140625 3.36914062,91.4140625 C3.36914062,91.4140625 3.44401042,91.4140625 3.59375,91.4140625 C3.59375,91.4140625 3.59375,91.4140625 3.59375,91.4140625 Z M51.46,33.093 C53.7,33.093 55.716,33.989 57.508,35.333 C59.076,36.901 59.972,38.693 59.972,40.933 C59.972,42.501 59.076,44.069 57.508,45.637 C56.164,47.205 53.924,48.997 50.788,51.237 C47.652,53.701 44.516,55.941 41.156,58.181 C37.572,60.421 34.436,62.437 31.3,63.781 C28.164,65.573 25.7,66.245 24.356,66.245 C21.444,66.245 20.1,65.349 20.1,63.109 C20.1,61.541 21.444,59.077 24.132,55.717 C26.82,52.581 29.956,49.221 33.54,45.861 C37.124,42.501 40.484,39.589 44.068,36.901 C47.428,34.437 49.892,33.093 51.46,33.093 Z M38.6742474,25.4962362 L32.1362041,35.8824964 L31.06,34.787 L16.4837347,49.4831103 C16.8129257,50.0867416 17,50.7790241 17,51.515 C17,53.8622102 15.0972102,55.765 12.75,55.765 C10.4027898,55.765 8.5,53.8622102 8.5,51.515 C8.5,49.1677898 10.4027898,47.265 12.75,47.265 C13.5638714,47.265 14.3243108,47.4937697 14.9705217,47.8905125 L29.521,33.221 L28.4057489,32.0847489 L38.6742474,25.4962362 Z M12.75,48.265 C10.9550746,48.265 9.5,49.7200746 9.5,51.515 C9.5,53.3099254 10.9550746,54.765 12.75,54.765 C14.5449254,54.765 16,53.3099254 16,51.515 C16,50.8094086 15.7751469,50.1563345 15.3931864,49.6235235 L14.9332357,49.107483 C14.3563057,48.583984 13.5904042,48.265 12.75,48.265 Z M14.2835,12 C14.9855,12 15.6605,12.135 16.2815,12.405 C16.9025,12.675 17.4425,13.026 17.9015,13.458 C18.3335,13.917 18.6845,14.43 18.9545,14.97 C19.1975,15.537 19.3325,16.104 19.3325,16.671 C19.3325,17.778 19.1435,18.804 18.7655,19.776 C18.3605,20.775 17.7665,21.639 17.0105,22.395 C16.3895,22.989 15.7955,23.556 15.2015,24.15 L13.3925,25.905 L12.2855,26.958 C11.8805,27.336 11.3675,27.795 10.7465,28.308 C11.6375,28.2 12.3935,28.146 12.9875,28.092 C13.5815,28.065 14.1485,28.038 14.6885,27.984 C15.2555,27.957 15.8495,27.93 16.4975,27.93 C17.1185,27.93 17.7125,27.876 18.3065,27.822 L18.6845,27.768 L19.0625,27.687 C19.2785,27.633 19.5215,27.606 19.7645,27.606 C20.0885,27.606 20.3585,27.768 20.6015,28.092 C20.8445,28.416 20.9795,28.74 20.9795,29.118 C20.9795,29.361 20.8715,29.55 20.7095,29.658 C20.5475,29.82 20.3855,29.874 20.2235,29.874 C19.6295,29.874 19.0625,29.847 18.4955,29.739 C17.9015,29.658 17.3075,29.604 16.7405,29.604 C15.7145,29.604 14.6615,29.658 13.5815,29.766 C12.4745,29.874 11.4215,29.982 10.3955,30.117 C10.2605,30.144 10.1255,30.171 10.0175,30.198 C9.8825,30.225 9.7475,30.252 9.6125,30.279 C9.3425,30.333 9.0995,30.36 8.8835,30.36 C8.5325,30.36 8.2355,30.279 7.9655,30.063 C7.6685,29.874 7.5335,29.577 7.5335,29.199 C7.5335,28.956 7.5875,28.74 7.6955,28.524 C7.8035,28.362 7.9655,28.173 8.1545,27.984 C8.3705,27.768 8.5595,27.552 8.7755,27.336 C8.9915,27.12 9.2075,26.931 9.4775,26.715 C10.3955,25.986 11.2865,25.23 12.1235,24.42 L14.6885,22.017 C15.0125,21.693 15.3635,21.342 15.6875,20.964 C15.9845,20.613 16.2545,20.235 16.4975,19.803 C16.7405,19.398 16.9295,18.966 17.0915,18.48 C17.2535,18.021 17.3345,17.535 17.3345,16.995 C17.3345,16.563 17.2535,16.158 17.0915,15.753 C16.9295,15.375 16.7135,15.024 16.4435,14.7 C16.1465,14.403 15.8225,14.16 15.4445,13.971 C15.0665,13.809 14.6345,13.701 14.2025,13.701 C13.3925,13.701 12.7445,13.89 12.2855,14.241 C11.7995,14.619 11.3675,15.105 10.9895,15.753 C10.8815,15.915 10.8275,16.05 10.7735,16.212 C10.7195,16.374 10.6385,16.536 10.5845,16.671 C10.5035,16.833 10.4225,16.995 10.3415,17.13 C10.2605,17.292 10.1795,17.427 10.1255,17.508 C9.9635,17.67 9.8285,17.805 9.7205,17.886 C9.5855,17.994 9.4235,18.021 9.2345,18.021 C8.9645,18.021 8.7215,17.913 8.4785,17.67 C8.2085,17.454 8.1005,17.211 8.1005,16.887 C8.1005,16.644 8.1545,16.347 8.2895,16.023 C8.3975,15.699 8.5595,15.375 8.7485,15.051 C8.9105,14.727 9.1265,14.43 9.3425,14.133 C9.5585,13.863 9.7475,13.62 9.9635,13.458 C10.5575,12.945 11.2325,12.567 11.9885,12.324 C12.7445,12.108 13.5005,12 14.2835,12 Z" transform="translate(-7.5)"/></svg>