<svg xmlns="http://www.w3.org/2000/svg" width="103" height="203" viewBox="0 0 103 203"><path fill="#131313" d="M1312.87891,86.027 C1325.00781,86.027 1334.81576,90.0699688 1342.30273,98.1559062 C1349.78971,106.241844 1353.5332,116.873354 1353.5332,130.050438 C1353.5332,142.928042 1349.71484,153.484682 1342.07812,161.720359 C1334.59115,169.806297 1324.85807,173.849266 1312.87891,173.849266 C1300.89974,173.849266 1291.0918,169.806297 1283.45508,161.720359 C1275.81836,153.484682 1272,142.928042 1272,130.050438 C1272,116.873354 1275.74349,106.241844 1283.23047,98.1559062 C1290.71745,90.0699688 1300.60026,86.027 1312.87891,86.027 Z M1312.48242,101.765 C1304.69596,101.765 1298.70638,104.235703 1294.51367,109.177109 C1290.17122,114.118516 1288,120.931667 1288,129.616563 C1288,136.205104 1289.79687,142.494167 1293.39062,148.48375 C1296.98437,154.323594 1303.34831,157.243516 1312.48242,157.243516 C1321.4668,157.243516 1327.75586,154.323594 1331.34961,148.48375 C1334.94336,142.494167 1336.74023,136.205104 1336.74023,129.616563 C1336.74023,120.931667 1334.64388,114.118516 1330.45117,109.177109 C1326.10872,104.235703 1320.11914,101.765 1312.48242,101.765 Z M1328.13086,74.35875 C1328.13086,74.9091321 1328.09201,75.5760646 1328.03244,76.2734157 L1328.001,76.624 L1328.65183,76.7608225 C1331.37418,77.3556214 1333.9707,78.202066 1336.44141,79.3001563 C1339.02782,80.3891714 1341.4286,81.6638141 1343.64376,83.1240845 L1344.30273,83.5677344 C1345.20117,82.8190365 1346.24935,82.4446875 1347.44727,82.4446875 C1348.64518,82.4446875 1349.76823,82.8190365 1350.81641,83.5677344 C1351.71484,84.4661719 1352.23893,85.5892187 1352.38867,86.936875 C1352.38867,88.2845312 1351.93945,89.4824479 1351.04102,90.530625 C1350.14258,91.5788021 1349.01953,92.1028906 1347.67187,92.1028906 C1346.32422,92.2526302 1345.1263,91.8782812 1344.07812,90.9798437 C1343.32943,90.2311458 1342.80534,89.3327083 1342.50586,88.2845312 C1342.35612,87.2363542 1342.50586,86.2630469 1342.95508,85.3646094 C1340.70898,83.8672135 1338.31315,82.5944271 1335.76758,81.54625 C1333.2415,80.5061007 1330.56797,79.6134061 1327.74698,78.8681662 C1327.62865,79.7756643 1327.51489,80.5252606 1327.45703,80.8724219 C1324.76172,79.9739844 1320.71875,78.4765885 1315.32812,76.3802344 C1318.17318,75.9310156 1322.44076,75.2571875 1328.13086,74.35875 Z M1351.71484,87.1614844 L1351.70911,87.4147429 C1351.65946,88.497299 1351.28702,89.3861868 1350.5918,90.0814062 C1351.49023,89.3327083 1351.86458,88.359401 1351.71484,87.1614844 Z M1347.44727,82.8939062 C1346.39909,82.8939062 1345.50065,83.1933854 1344.75195,83.7923437 C1345.56871,83.2478362 1346.44735,82.950832 1347.38786,82.9013314 L1347.569,82.896 L1347.44727,82.8939062 Z M1347.67187,83.5677344 C1346.77344,83.5677344 1345.94987,83.7923438 1345.20117,84.2415625 C1345.05143,84.2415625 1344.97656,84.3164323 1344.97656,84.4661719 C1344.82682,84.6159115 1344.67708,84.6907813 1344.52734,84.6907813 C1344.3776,84.9902604 1344.22786,85.2148698 1344.07812,85.3646094 C1344.07812,85.4893924 1344.02613,85.6661683 1343.92215,85.8949371 L1343.85352,86.0384375 C1343.70378,86.7871354 1343.70378,87.4609635 1343.85352,88.0599219 C1344.00326,88.8086198 1344.3776,89.4824479 1344.97656,90.0814063 C1345.72526,90.6803646 1346.6237,90.9798438 1347.67187,90.9798438 C1348.72005,90.9798438 1349.54362,90.6054948 1350.14258,89.8567969 C1350.89128,89.108099 1351.26562,88.2096615 1351.26562,87.1614844 C1351.11589,86.1133073 1350.66667,85.2148698 1349.91797,84.4661719 L1349.84934,84.4599327 C1349.74535,84.4391356 1349.69336,84.3663455 1349.69336,84.2415625 L1349.699,84.304 L1349.75714,84.3302971 C1349.76793,84.3353762 1349.77894,84.3406733 1349.79017,84.3461884 L1349.76511,84.3226714 L1349.695,84.264 L1349.699,84.304 L1349.6684,84.2914757 C1349.58521,84.2582002 1349.51866,84.2415625 1349.46875,84.2415625 L1349.667,84.241 L1349.60601,84.1916493 C1349.06529,83.775706 1348.42057,83.5677344 1347.67187,83.5677344 Z M1361.8755,72.215 C1361.8755,71.864 1361.7675,71.594 1361.5515,71.432 C1361.3085,71.27 1361.0115,71.162 1360.6335,71.162 C1360.4715,71.162 1360.3365,71.243 1360.1745,71.351 C1360.0125,71.486 1359.8775,71.594 1359.7965,71.675 C1359.5805,71.891 1359.4185,72.08 1359.2835,72.296 C1359.1215,72.512 1358.9325,72.728 1358.7705,72.917 C1358.2575,73.511 1357.7175,74.159 1357.1235,74.807 C1356.5025,75.482 1355.9085,76.076 1355.3415,76.616 C1355.2875,76.67 1355.2065,76.724 1355.1525,76.778 L1354.9365,76.886 C1354.8555,76.94 1354.7745,76.967 1354.7205,77.021 L1354.4775,77.183 C1354.3425,77.291 1354.2345,77.372 1354.1535,77.453 C1354.0455,77.561 1354.0185,77.642 1354.0185,77.723 C1354.0185,78.047 1354.1535,78.29 1354.4775,78.479 C1354.7475,78.695 1355.0715,78.776 1355.3955,78.776 C1355.6385,78.776 1355.8545,78.722 1356.0705,78.614 C1356.2595,78.506 1356.4485,78.344 1356.6645,78.128 C1356.7995,77.966 1356.9615,77.777 1357.1775,77.534 L1357.7175,76.94 C1357.8525,76.805 1358.0685,76.589 1358.3385,76.292 C1358.6085,75.995 1358.9055,75.644 1359.2835,75.239 C1359.2025,75.671 1359.1215,76.184 1359.0675,76.778 C1358.9595,77.372 1358.8785,77.966 1358.7975,78.614 L1358.5815,80.531 C1358.5275,81.179 1358.4735,81.8 1358.4465,82.34 C1358.3925,83.366 1358.3385,84.392 1358.3115,85.418 C1358.2575,86.444 1358.2305,87.335 1358.2305,88.091 C1358.2305,88.523 1358.3385,88.847 1358.5815,89.09 C1358.8245,89.36 1359.1485,89.468 1359.5805,89.468 C1359.7965,89.468 1360.0395,89.414 1360.3095,89.306 C1360.5255,89.198 1360.6605,89.063 1360.6605,88.901 C1360.6605,88.82 1360.6335,88.658 1360.6335,88.388 C1360.5795,88.145 1360.5525,87.848 1360.5255,87.524 C1360.4715,87.227 1360.4175,86.903 1360.4175,86.552 C1360.3635,86.201 1360.3635,85.877 1360.3635,85.607 C1360.3635,83.717 1360.4175,81.827 1360.5795,79.91 C1360.7415,78.02 1361.0385,76.13 1361.5245,74.267 C1361.5515,74.105 1361.6055,73.943 1361.6595,73.754 L1361.7675,73.241 L1361.8485,72.728 C1361.8485,72.566 1361.8755,72.404 1361.8755,72.215 Z M1301.5305,37.027 C1302.8745,37.027 1305.3385,38.371 1308.9225,40.835 C1312.2825,43.523 1315.8665,46.435 1319.4505,49.571 C1323.0345,53.155 1326.1705,56.515 1328.8585,59.651 C1331.5465,63.011 1332.8905,65.475 1332.8905,67.043 C1332.8905,69.283 1331.3225,70.179 1328.6345,70.179 C1326.8425,70.179 1324.6025,69.507 1321.4665,67.939 C1318.3305,66.371 1315.1945,64.355 1311.8345,62.115 C1308.2505,59.875 1305.1145,57.635 1302.2025,55.395 C1299.0665,53.155 1296.8265,51.139 1295.4825,49.571 C1293.6905,48.003 1293.0185,46.435 1293.0185,44.867 C1293.0185,42.627 1293.6905,40.835 1295.4825,39.267 C1297.2745,37.923 1299.2905,37.027 1301.5305,37.027 Z M1311.75,26.265 C1314.09721,26.265 1316,28.1677898 1316,30.515 C1316,31.0931249 1315.88457,31.6442889 1315.67549,32.1467012 L1328.6345,41.935 L1330.44933,39.843818 L1338.81234,50.085067 L1325.5,45.5486473 L1327.3205,43.449 L1314.49433,33.7602885 C1313.75389,34.3870647 1312.79608,34.765 1311.75,34.765 C1309.40279,34.765 1307.5,32.8622102 1307.5,30.515 C1307.5,28.1677898 1309.40279,26.265 1311.75,26.265 Z M1311.75,27.265 C1309.95507,27.265 1308.5,28.7200746 1308.5,30.515 C1308.5,32.3099254 1309.95507,33.765 1311.75,33.765 C1313.54493,33.765 1315,32.3099254 1315,30.515 C1315,28.7200746 1313.54493,27.265 1311.75,27.265 Z M1295.2835,11 C1295.9855,11 1296.6605,11.135 1297.2815,11.405 C1297.9025,11.675 1298.4425,12.026 1298.9015,12.458 C1299.3335,12.917 1299.6845,13.43 1299.9545,13.97 C1300.1975,14.537 1300.3325,15.104 1300.3325,15.671 C1300.3325,16.778 1300.1435,17.804 1299.7655,18.776 C1299.3605,19.775 1298.7665,20.639 1298.0105,21.395 C1297.3895,21.989 1296.7955,22.556 1296.2015,23.15 L1294.3925,24.905 L1293.2855,25.958 C1292.8805,26.336 1292.3675,26.795 1291.7465,27.308 C1292.6375,27.2 1293.3935,27.146 1293.9875,27.092 C1294.5815,27.065 1295.1485,27.038 1295.6885,26.984 C1296.2555,26.957 1296.8495,26.93 1297.4975,26.93 C1298.1185,26.93 1298.7125,26.876 1299.3065,26.822 L1299.6845,26.768 L1300.0625,26.687 C1300.2785,26.633 1300.5215,26.606 1300.7645,26.606 C1301.0885,26.606 1301.3585,26.768 1301.6015,27.092 C1301.8445,27.416 1301.9795,27.74 1301.9795,28.118 C1301.9795,28.361 1301.8715,28.55 1301.7095,28.658 C1301.5475,28.82 1301.3855,28.874 1301.2235,28.874 C1300.6295,28.874 1300.0625,28.847 1299.4955,28.739 C1298.9015,28.658 1298.3075,28.604 1297.7405,28.604 C1296.7145,28.604 1295.6615,28.658 1294.5815,28.766 C1293.4745,28.874 1292.4215,28.982 1291.3955,29.117 C1291.2605,29.144 1291.1255,29.171 1291.0175,29.198 C1290.8825,29.225 1290.7475,29.252 1290.6125,29.279 C1290.3425,29.333 1290.0995,29.36 1289.8835,29.36 C1289.5325,29.36 1289.2355,29.279 1288.9655,29.063 C1288.6685,28.874 1288.5335,28.577 1288.5335,28.199 C1288.5335,27.956 1288.5875,27.74 1288.6955,27.524 C1288.8035,27.362 1288.9655,27.173 1289.1545,26.984 C1289.3705,26.768 1289.5595,26.552 1289.7755,26.336 C1289.9915,26.12 1290.2075,25.931 1290.4775,25.715 C1291.3955,24.986 1292.2865,24.23 1293.1235,23.42 L1295.6885,21.017 C1296.0125,20.693 1296.3635,20.342 1296.6875,19.964 C1296.9845,19.613 1297.2545,19.235 1297.4975,18.803 C1297.7405,18.398 1297.9295,17.966 1298.0915,17.48 C1298.2535,17.021 1298.3345,16.535 1298.3345,15.995 C1298.3345,15.563 1298.2535,15.158 1298.0915,14.753 C1297.9295,14.375 1297.7135,14.024 1297.4435,13.7 C1297.1465,13.403 1296.8225,13.16 1296.4445,12.971 C1296.0665,12.809 1295.6345,12.701 1295.2025,12.701 C1294.3925,12.701 1293.7445,12.89 1293.2855,13.241 C1292.7995,13.619 1292.3675,14.105 1291.9895,14.753 C1291.8815,14.915 1291.8275,15.05 1291.7735,15.212 C1291.7195,15.374 1291.6385,15.536 1291.5845,15.671 C1291.5035,15.833 1291.4225,15.995 1291.3415,16.13 C1291.2605,16.292 1291.1795,16.427 1291.1255,16.508 C1290.9635,16.67 1290.8285,16.805 1290.7205,16.886 C1290.5855,16.994 1290.4235,17.021 1290.2345,17.021 C1289.9645,17.021 1289.7215,16.913 1289.4785,16.67 C1289.2085,16.454 1289.1005,16.211 1289.1005,15.887 C1289.1005,15.644 1289.1545,15.347 1289.2895,15.023 C1289.3975,14.699 1289.5595,14.375 1289.7485,14.051 C1289.9105,13.727 1290.1265,13.43 1290.3425,13.133 C1290.5585,12.863 1290.7475,12.62 1290.9635,12.458 C1291.5575,11.945 1292.2325,11.567 1292.9885,11.324 C1293.7445,11.108 1294.5005,11 1295.2835,11 Z" transform="translate(-1261 -31.765)"/></svg>