<svg xmlns="http://www.w3.org/2000/svg" width="103" height="243" viewBox="0 0 103 243"><path fill="#131313" d="M51.8789063,78.262 C64.0078125,78.262 73.8157552,82.3049688 81.3027344,90.3909062 C88.7897135,98.4768437 92.5332031,109.108354 92.5332031,122.285438 C92.5332031,135.163042 88.7148438,145.719682 81.078125,153.955359 C73.5911458,162.041297 63.8580729,166.084266 51.8789063,166.084266 C39.8997396,166.084266 30.0917969,162.041297 22.4550781,153.955359 C14.8183594,145.719682 11,135.163042 11,122.285438 C11,109.108354 14.7434896,98.4768437 22.2304688,90.3909062 C29.7174479,82.3049688 39.6002604,78.262 51.8789063,78.262 Z M51.4824219,94 C43.6959635,94 37.7063802,96.4707031 33.5136719,101.412109 C29.171224,106.353516 27,113.166667 27,121.851563 C27,128.440104 28.796875,134.729167 32.390625,140.71875 C35.984375,146.558594 42.3483073,149.478516 51.4824219,149.478516 C60.4667969,149.478516 66.7558594,146.558594 70.3496094,140.71875 C73.9433594,134.729167 75.7402344,128.440104 75.7402344,121.851563 C75.7402344,113.166667 73.6438802,106.353516 69.4511719,101.412109 C65.108724,96.4707031 59.1191406,94 51.4824219,94 Z M67.1308594,66.59375 C67.1308594,67.1441321 67.0920092,67.8110646 67.032442,68.5084157 L67.001,68.859 L67.6518283,68.9958225 C70.3741772,69.5906214 72.9707031,70.437066 75.4414062,71.5351563 C78.0278172,72.6241714 80.4286006,73.8988141 82.6437565,75.3590845 L83.3027344,75.8027344 C84.2011719,75.0540365 85.249349,74.6796875 86.4472656,74.6796875 C87.6451823,74.6796875 88.7682292,75.0540365 89.8164062,75.8027344 C90.7148438,76.7011719 91.2389323,77.8242188 91.3886719,79.171875 C91.3886719,80.5195312 90.9394531,81.7174479 90.0410156,82.765625 C89.1425781,83.8138021 88.0195312,84.3378906 86.671875,84.3378906 C85.3242188,84.4876302 84.1263021,84.1132812 83.078125,83.2148438 C82.3294271,82.4661458 81.8053385,81.5677083 81.5058594,80.5195312 C81.3561198,79.4713542 81.5058594,78.4980469 81.9550781,77.5996094 C79.7089844,76.1022135 77.313151,74.8294271 74.7675781,73.78125 C72.2415012,72.7411007 69.5679695,71.8484061 66.7469831,71.1031662 C66.6286454,72.0106643 66.5148915,72.7602606 66.4570312,73.1074219 C63.7617188,72.2089844 59.71875,70.7115885 54.328125,68.6152344 C57.1731771,68.1660156 61.4407552,67.4921875 67.1308594,66.59375 Z M90.7148437,79.3964844 L90.7091139,79.6497429 C90.6594554,80.732299 90.2870164,81.6211868 89.5917969,82.3164062 C90.4902344,81.5677083 90.8645833,80.594401 90.7148437,79.3964844 Z M86.4472656,75.1289062 C85.3990885,75.1289062 84.500651,75.4283854 83.7519531,76.0273438 C84.5687145,75.4828362 85.4473517,75.185832 86.3878648,75.1363314 L86.569,75.131 L86.4472656,75.1289062 Z M86.671875,75.8027344 C85.7734375,75.8027344 84.9498698,76.0273438 84.2011719,76.4765625 C84.0514323,76.4765625 83.9765625,76.5514323 83.9765625,76.7011719 C83.8268229,76.8509115 83.6770833,76.9257813 83.5273438,76.9257813 C83.3776042,77.2252604 83.2278646,77.4498698 83.078125,77.5996094 C83.078125,77.7243924 83.0261321,77.9011683 82.9221463,78.1299371 L82.8535156,78.2734375 C82.703776,79.0221354 82.703776,79.6959635 82.8535156,80.2949219 C83.0032552,81.0436198 83.3776042,81.7174479 83.9765625,82.3164063 C84.7252604,82.9153646 85.6236979,83.2148438 86.671875,83.2148438 C87.7200521,83.2148438 88.5436198,82.8404948 89.1425781,82.0917969 C89.891276,81.343099 90.265625,80.4446615 90.265625,79.3964844 C90.1158854,78.3483073 89.6666667,77.4498698 88.9179687,76.7011719 L88.8493381,76.6949327 C88.7453523,76.6741356 88.6933594,76.6013455 88.6933594,76.4765625 L88.699,76.539 L88.7571373,76.5652971 C88.7679304,76.5703762 88.7789415,76.5756733 88.7901706,76.5811884 L88.7651096,76.5576714 L88.695,76.499 L88.699,76.539 L88.6684028,76.5264757 C88.5852141,76.4932002 88.5186632,76.4765625 88.46875,76.4765625 L88.667,76.476 L88.6060113,76.4266493 C88.065285,76.010706 87.4205729,75.8027344 86.671875,75.8027344 Z M100.8755,64.45 C100.8755,64.099 100.7675,63.829 100.5515,63.667 C100.3085,63.505 100.0115,63.397 99.6335,63.397 C99.4715,63.397 99.3365,63.478 99.1745,63.586 C99.0125,63.721 98.8775,63.829 98.7965,63.91 C98.5805,64.126 98.4185,64.315 98.2835,64.531 C98.1215,64.747 97.9325,64.963 97.7705,65.152 C97.2575,65.746 96.7175,66.394 96.1235,67.042 C95.5025,67.717 94.9085,68.311 94.3415,68.851 C94.2875,68.905 94.2065,68.959 94.1525,69.013 L93.9365,69.121 C93.8555,69.175 93.7745,69.202 93.7205,69.256 L93.4775,69.418 C93.3425,69.526 93.2345,69.607 93.1535,69.688 C93.0455,69.796 93.0185,69.877 93.0185,69.958 C93.0185,70.282 93.1535,70.525 93.4775,70.714 C93.7475,70.93 94.0715,71.011 94.3955,71.011 C94.6385,71.011 94.8545,70.957 95.0705,70.849 C95.2595,70.741 95.4485,70.579 95.6645,70.363 C95.7995,70.201 95.9615,70.012 96.1775,69.769 L96.7175,69.175 C96.8525,69.04 97.0685,68.824 97.3385,68.527 C97.6085,68.23 97.9055,67.879 98.2835,67.474 C98.2025,67.906 98.1215,68.419 98.0675,69.013 C97.9595,69.607 97.8785,70.201 97.7975,70.849 L97.5815,72.766 C97.5275,73.414 97.4735,74.035 97.4465,74.575 C97.3925,75.601 97.3385,76.627 97.3115,77.653 C97.2575,78.679 97.2305,79.57 97.2305,80.326 C97.2305,80.758 97.3385,81.082 97.5815,81.325 C97.8245,81.595 98.1485,81.703 98.5805,81.703 C98.7965,81.703 99.0395,81.649 99.3095,81.541 C99.5255,81.433 99.6605,81.298 99.6605,81.136 C99.6605,81.055 99.6335,80.893 99.6335,80.623 C99.5795,80.38 99.5525,80.083 99.5255,79.759 C99.4715,79.462 99.4175,79.138 99.4175,78.787 C99.3635,78.436 99.3635,78.112 99.3635,77.842 C99.3635,75.952 99.4175,74.062 99.5795,72.145 C99.7415,70.255 100.0385,68.365 100.5245,66.502 C100.5515,66.34 100.6055,66.178 100.6595,65.989 L100.7675,65.476 L100.8485,64.963 C100.8485,64.801 100.8755,64.639 100.8755,64.45 Z M40.5305,29.262 C41.8745,29.262 44.3385,30.606 47.9225,33.07 C51.2825,35.758 54.8665,38.67 58.4505,41.806 C62.0345,45.39 65.1705,48.75 67.8585,51.886 C70.5465,55.246 71.8905,57.71 71.8905,59.278 C71.8905,61.518 70.3225,62.414 67.6345,62.414 C65.8425,62.414 63.6025,61.742 60.4665,60.174 C57.3305,58.606 54.1945,56.59 50.8345,54.35 C47.2505,52.11 44.1145,49.87 41.2025,47.63 C38.0665,45.39 35.8265,43.374 34.4825,41.806 C32.6905,40.238 32.0185,38.67 32.0185,37.102 C32.0185,34.862 32.6905,33.07 34.4825,31.502 C36.2745,30.158 38.2905,29.262 40.5305,29.262 Z M50.75,18.5 C53.0972102,18.5 55,20.4027898 55,22.75 C55,23.3281249 54.8845669,23.8792889 54.6754918,24.3817012 L67.6345,34.17 L69.4493309,32.078818 L77.8123401,42.320067 L64.5,37.7836473 L66.3205,35.684 L53.494334,25.9952885 C52.7538905,26.6220647 51.796081,27 50.75,27 C48.4027898,27 46.5,25.0972102 46.5,22.75 C46.5,20.4027898 48.4027898,18.5 50.75,18.5 Z M50.75,19.5 C48.9550746,19.5 47.5,20.9550746 47.5,22.75 C47.5,24.5449254 48.9550746,26 50.75,26 C52.5449254,26 54,24.5449254 54,22.75 C54,20.9550746 52.5449254,19.5 50.75,19.5 Z M34.2835,3.235 C34.9855,3.235 35.6605,3.37 36.2815,3.64 C36.9025,3.91 37.4425,4.261 37.9015,4.693 C38.3335,5.152 38.6845,5.665 38.9545,6.205 C39.1975,6.772 39.3325,7.339 39.3325,7.906 C39.3325,9.013 39.1435,10.039 38.7655,11.011 C38.3605,12.01 37.7665,12.874 37.0105,13.63 C36.3895,14.224 35.7955,14.791 35.2015,15.385 L33.3925,17.14 L32.2855,18.193 C31.8805,18.571 31.3675,19.03 30.7465,19.543 C31.6375,19.435 32.3935,19.381 32.9875,19.327 C33.5815,19.3 34.1485,19.273 34.6885,19.219 C35.2555,19.192 35.8495,19.165 36.4975,19.165 C37.1185,19.165 37.7125,19.111 38.3065,19.057 L38.6845,19.003 L39.0625,18.922 C39.2785,18.868 39.5215,18.841 39.7645,18.841 C40.0885,18.841 40.3585,19.003 40.6015,19.327 C40.8445,19.651 40.9795,19.975 40.9795,20.353 C40.9795,20.596 40.8715,20.785 40.7095,20.893 C40.5475,21.055 40.3855,21.109 40.2235,21.109 C39.6295,21.109 39.0625,21.082 38.4955,20.974 C37.9015,20.893 37.3075,20.839 36.7405,20.839 C35.7145,20.839 34.6615,20.893 33.5815,21.001 C32.4745,21.109 31.4215,21.217 30.3955,21.352 C30.2605,21.379 30.1255,21.406 30.0175,21.433 C29.8825,21.46 29.7475,21.487 29.6125,21.514 C29.3425,21.568 29.0995,21.595 28.8835,21.595 C28.5325,21.595 28.2355,21.514 27.9655,21.298 C27.6685,21.109 27.5335,20.812 27.5335,20.434 C27.5335,20.191 27.5875,19.975 27.6955,19.759 C27.8035,19.597 27.9655,19.408 28.1545,19.219 C28.3705,19.003 28.5595,18.787 28.7755,18.571 C28.9915,18.355 29.2075,18.166 29.4775,17.95 C30.3955,17.221 31.2865,16.465 32.1235,15.655 L34.6885,13.252 C35.0125,12.928 35.3635,12.577 35.6875,12.199 C35.9845,11.848 36.2545,11.47 36.4975,11.038 C36.7405,10.633 36.9295,10.201 37.0915,9.715 C37.2535,9.256 37.3345,8.77 37.3345,8.23 C37.3345,7.798 37.2535,7.393 37.0915,6.988 C36.9295,6.61 36.7135,6.259 36.4435,5.935 C36.1465,5.638 35.8225,5.395 35.4445,5.206 C35.0665,5.044 34.6345,4.936 34.2025,4.936 C33.3925,4.936 32.7445,5.125 32.2855,5.476 C31.7995,5.854 31.3675,6.34 30.9895,6.988 C30.8815,7.15 30.8275,7.285 30.7735,7.447 C30.7195,7.609 30.6385,7.771 30.5845,7.906 C30.5035,8.068 30.4225,8.23 30.3415,8.365 C30.2605,8.527 30.1795,8.662 30.1255,8.743 C29.9635,8.905 29.8285,9.04 29.7205,9.121 C29.5855,9.229 29.4235,9.256 29.2345,9.256 C28.9645,9.256 28.7215,9.148 28.4785,8.905 C28.2085,8.689 28.1005,8.446 28.1005,8.122 C28.1005,7.879 28.1545,7.582 28.2895,7.258 C28.3975,6.934 28.5595,6.61 28.7485,6.286 C28.9105,5.962 29.1265,5.665 29.3425,5.368 C29.5585,5.098 29.7475,4.855 29.9635,4.693 C30.5575,4.18 31.2325,3.802 31.9885,3.559 C32.7445,3.343 33.5005,3.235 34.2835,3.235 Z"/></svg>