<svg xmlns="http://www.w3.org/2000/svg" width="103" height="243" viewBox="0 0 103 243"><path fill="#131313" d="M51.8789063,78 C64.0078125,78 73.8157552,82.0429688 81.3027344,90.1289062 C88.7897135,98.2148437 92.5332031,108.846354 92.5332031,122.023438 C92.5332031,134.901042 88.7148438,145.457682 81.078125,153.693359 C73.5911458,161.779297 63.8580729,165.822266 51.8789063,165.822266 C39.8997396,165.822266 30.0917969,161.779297 22.4550781,153.693359 C14.8183594,145.457682 11,134.901042 11,122.023438 C11,108.846354 14.7434896,98.2148437 22.2304688,90.1289062 C29.7174479,82.0429688 39.6002604,78 51.8789063,78 Z M51.4824219,94 C43.6959635,94 37.7063802,96.4707031 33.5136719,101.412109 C29.171224,106.353516 27,113.166667 27,121.851563 C27,128.440104 28.796875,134.729167 32.390625,140.71875 C35.984375,146.558594 42.3483073,149.478516 51.4824219,149.478516 C60.4667969,149.478516 66.7558594,146.558594 70.3496094,140.71875 C73.9433594,134.729167 75.7402344,128.440104 75.7402344,121.851563 C75.7402344,113.166667 73.6438802,106.353516 69.4511719,101.412109 C65.108724,96.4707031 59.1191406,94 51.4824219,94 Z M66.90625,68.8398438 C69.9010417,69.4388021 72.7460938,70.3372396 75.4414062,71.5351563 C78.2864583,72.7330729 80.906901,74.155599 83.3027344,75.8027344 C84.2011719,75.0540365 85.249349,74.6796875 86.4472656,74.6796875 C87.6451823,74.6796875 88.7682292,75.0540365 89.8164062,75.8027344 C90.7148438,76.7011719 91.2389323,77.8242188 91.3886719,79.171875 C91.3886719,80.5195313 90.9394531,81.7174479 90.0410156,82.765625 C89.1425781,83.8138021 88.0195312,84.3378906 86.671875,84.3378906 C85.3242188,84.4876302 84.1263021,84.1132813 83.078125,83.2148438 C82.3294271,82.4661458 81.8053385,81.5677083 81.5058594,80.5195313 C81.3561198,79.4713542 81.5058594,78.4980469 81.9550781,77.5996094 C82.1048177,77.4498698 82.1796875,77.2252604 82.1796875,76.9257813 C82.1796875,77.0755208 82.1048177,77.3001302 81.9550781,77.5996094 C79.7089844,76.1022135 77.313151,74.8294271 74.7675781,73.78125 C72.2220052,72.7330729 69.5266927,71.8346354 66.6816406,71.0859375 L66.7206224,70.8074961 C66.8443741,69.9041086 66.90625,69.2482244 66.90625,68.8398438 Z M90.7148437,79.3964844 L90.7091139,79.6497429 C90.6594554,80.732299 90.2870164,81.6211868 89.5917969,82.3164063 C90.4902344,81.5677083 90.8645833,80.594401 90.7148437,79.3964844 Z M83.5273438,76.2519531 L83.4375,76.3328125 C83.3177083,76.4286458 83.1979167,76.4765625 83.078125,76.4765625 C82.9283854,76.7760417 82.7786458,77.000651 82.6289062,77.1503906 C82.7786458,77.000651 83.0032552,76.8509115 83.3027344,76.7011719 C83.3027344,76.5514323 83.3776042,76.4016927 83.5273438,76.2519531 Z M86.4472656,75.1289063 C85.3990885,75.1289063 84.500651,75.4283854 83.7519531,76.0273438 C84.5687145,75.4828362 85.4473517,75.185832 86.3878648,75.1363314 L86.5685,75.131 L86.4472656,75.1289063 Z M67.1308594,66.59375 C67.1308594,67.0429688 67.0559896,67.7916667 66.90625,68.8398438 L66.8672682,69.1182851 C66.7435165,70.0216727 66.6816406,70.6775568 66.6816406,71.0859375 C66.6816406,71.5351563 66.6067708,72.2089844 66.4570312,73.1074219 C63.7617188,72.2089844 59.71875,70.7115885 54.328125,68.6152344 C57.1731771,68.1660156 61.4407552,67.4921875 67.1308594,66.59375 Z M88.7571373,76.5652971 C88.7678225,76.5703254 88.7787213,76.5755674 88.7898338,76.5810231 L88.7651096,76.5576714 L88.6945,76.5 L88.6985,76.54 L88.6684028,76.5264757 C88.5852141,76.4932002 88.5186632,76.4765625 88.46875,76.4765625 L88.6665,76.476 L88.6060113,76.4266493 C88.065285,76.010706 87.4205729,75.8027344 86.671875,75.8027344 C85.7734375,75.8027344 84.9498698,76.0273438 84.2011719,76.4765625 C84.0514323,76.4765625 83.9765625,76.5514323 83.9765625,76.7011719 C83.8268229,76.8509115 83.6770833,76.9257813 83.5273438,76.9257813 C83.3776042,77.2252604 83.2278646,77.4498698 83.078125,77.5996094 C83.078125,77.7243924 83.0261321,77.9011683 82.9221463,78.1299371 L82.8535156,78.2734375 C82.703776,79.0221354 82.703776,79.6959635 82.8535156,80.2949219 C83.0032552,81.0436198 83.3776042,81.7174479 83.9765625,82.3164063 C84.7252604,82.9153646 85.6236979,83.2148438 86.671875,83.2148438 C87.7200521,83.2148438 88.5436198,82.8404948 89.1425781,82.0917969 C89.891276,81.343099 90.265625,80.4446615 90.265625,79.3964844 C90.1158854,78.3483073 89.6666667,77.4498698 88.9179687,76.7011719 L88.8493381,76.6949327 C88.7453523,76.6741356 88.6933594,76.6013455 88.6933594,76.4765625 L88.6985,76.54 Z M100.8755,64.45 C100.8755,64.099 100.7675,63.829 100.5515,63.667 C100.3085,63.505 100.0115,63.397 99.6335,63.397 C99.4715,63.397 99.3365,63.478 99.1745,63.586 C99.0125,63.721 98.8775,63.829 98.7965,63.91 C98.5805,64.126 98.4185,64.315 98.2835,64.531 C98.1215,64.747 97.9325,64.963 97.7705,65.152 C97.2575,65.746 96.7175,66.394 96.1235,67.042 C95.5025,67.717 94.9085,68.311 94.3415,68.851 C94.2875,68.905 94.2065,68.959 94.1525,69.013 L93.9365,69.121 C93.8555,69.175 93.7745,69.202 93.7205,69.256 L93.4775,69.418 C93.3425,69.526 93.2345,69.607 93.1535,69.688 C93.0455,69.796 93.0185,69.877 93.0185,69.958 C93.0185,70.282 93.1535,70.525 93.4775,70.714 C93.7475,70.93 94.0715,71.011 94.3955,71.011 C94.6385,71.011 94.8545,70.957 95.0705,70.849 C95.2595,70.741 95.4485,70.579 95.6645,70.363 C95.7995,70.201 95.9615,70.012 96.1775,69.769 L96.7175,69.175 C96.8525,69.04 97.0685,68.824 97.3385,68.527 C97.6085,68.23 97.9055,67.879 98.2835,67.474 C98.2025,67.906 98.1215,68.419 98.0675,69.013 C97.9595,69.607 97.8785,70.201 97.7975,70.849 L97.5815,72.766 C97.5275,73.414 97.4735,74.035 97.4465,74.575 C97.3925,75.601 97.3385,76.627 97.3115,77.653 C97.2575,78.679 97.2305,79.57 97.2305,80.326 C97.2305,80.758 97.3385,81.082 97.5815,81.325 C97.8245,81.595 98.1485,81.703 98.5805,81.703 C98.7965,81.703 99.0395,81.649 99.3095,81.541 C99.5255,81.433 99.6605,81.298 99.6605,81.136 C99.6605,81.055 99.6335,80.893 99.6335,80.623 C99.5795,80.38 99.5525,80.083 99.5255,79.759 C99.4715,79.462 99.4175,79.138 99.4175,78.787 C99.3635,78.436 99.3635,78.112 99.3635,77.842 C99.3635,75.952 99.4175,74.062 99.5795,72.145 C99.7415,70.255 100.0385,68.365 100.5245,66.502 C100.5515,66.34 100.6055,66.178 100.6595,65.989 L100.7675,65.476 L100.8485,64.963 C100.8485,64.801 100.8755,64.639 100.8755,64.45 Z M63.46,32.328 C65.7,32.328 67.716,33.224 69.508,34.568 C71.076,36.136 71.972,37.928 71.972,40.168 C71.972,41.736 71.076,43.304 69.508,44.872 C68.164,46.44 65.924,48.232 62.788,50.472 C59.652,52.936 56.516,55.176 53.156,57.416 C49.572,59.656 46.436,61.672 43.3,63.016 C40.164,64.808 37.7,65.48 36.356,65.48 C33.444,65.48 32.1,64.584 32.1,62.344 C32.1,60.776 33.444,58.312 36.132,54.952 C38.82,51.816 41.956,48.456 45.54,45.096 C49.124,41.736 52.484,38.824 56.068,36.136 C59.428,33.672 61.892,32.328 63.46,32.328 Z M50.6742474,24.7312362 L44.1362041,35.1174964 L43.0605,34.022 L28.4837347,48.7181103 C28.8129257,49.3217416 29,50.0140241 29,50.75 C29,53.0972102 27.0972102,55 24.75,55 C22.4027898,55 20.5,53.0972102 20.5,50.75 C20.5,48.4027898 22.4027898,46.5 24.75,46.5 C25.5638714,46.5 26.3243108,46.7287697 26.9705217,47.1255125 L41.5215,32.456 L40.4057489,31.3197489 L50.6742474,24.7312362 Z M24.75,47.5 C22.9550746,47.5 21.5,48.9550746 21.5,50.75 C21.5,52.5449254 22.9550746,54 24.75,54 C26.5449254,54 28,52.5449254 28,50.75 C28,50.0452928 27.77571,49.3929714 27.3946216,48.8605271 L26.9328122,48.3420989 C26.355931,47.8188279 25.5901986,47.5 24.75,47.5 Z M19.9795,40.353 C19.9795,39.975 19.8445,39.651 19.6015,39.327 C19.3585,39.003 19.0885,38.841 18.7645,38.841 C18.5215,38.841 18.2785,38.868 18.0625,38.922 L17.6845,39.003 L17.3065,39.057 C16.7125,39.111 16.1185,39.165 15.4975,39.165 C14.8495,39.165 14.2555,39.192 13.6885,39.219 C13.1485,39.273 12.5815,39.3 11.9875,39.327 C11.3935,39.381 10.6375,39.435 9.7465,39.543 C10.3675,39.03 10.8805,38.571 11.2855,38.193 L12.3925,37.14 L14.2015,35.385 C14.7955,34.791 15.3895,34.224 16.0105,33.63 C16.7665,32.874 17.3605,32.01 17.7655,31.011 C18.1435,30.039 18.3325,29.013 18.3325,27.906 C18.3325,27.339 18.1975,26.772 17.9545,26.205 C17.6845,25.665 17.3335,25.152 16.9015,24.693 C16.4425,24.261 15.9025,23.91 15.2815,23.64 C14.6605,23.37 13.9855,23.235 13.2835,23.235 C12.5005,23.235 11.7445,23.343 10.9885,23.559 C10.2325,23.802 9.5575,24.18 8.9635,24.693 C8.7475,24.855 8.5585,25.098 8.3425,25.368 C8.1265,25.665 7.9105,25.962 7.7485,26.286 C7.5595,26.61 7.3975,26.934 7.2895,27.258 C7.1545,27.582 7.1005,27.879 7.1005,28.122 C7.1005,28.446 7.2085,28.689 7.4785,28.905 C7.7215,29.148 7.9645,29.256 8.2345,29.256 C8.4235,29.256 8.5855,29.229 8.7205,29.121 C8.8285,29.04 8.9635,28.905 9.1255,28.743 C9.1795,28.662 9.2605,28.527 9.3415,28.365 C9.4225,28.23 9.5035,28.068 9.5845,27.906 C9.6385,27.771 9.7195,27.609 9.7735,27.447 C9.8275,27.285 9.8815,27.15 9.9895,26.988 C10.3675,26.34 10.7995,25.854 11.2855,25.476 C11.7445,25.125 12.3925,24.936 13.2025,24.936 C13.6345,24.936 14.0665,25.044 14.4445,25.206 C14.8225,25.395 15.1465,25.638 15.4435,25.935 C15.7135,26.259 15.9295,26.61 16.0915,26.988 C16.2535,27.393 16.3345,27.798 16.3345,28.23 C16.3345,28.77 16.2535,29.256 16.0915,29.715 C15.9295,30.201 15.7405,30.633 15.4975,31.038 C15.2545,31.47 14.9845,31.848 14.6875,32.199 C14.3635,32.577 14.0125,32.928 13.6885,33.252 L11.1235,35.655 C10.2865,36.465 9.3955,37.221 8.4775,37.95 C8.2075,38.166 7.9915,38.355 7.7755,38.571 C7.5595,38.787 7.3705,39.003 7.1545,39.219 C6.9655,39.408 6.8035,39.597 6.6955,39.759 C6.5875,39.975 6.5335,40.191 6.5335,40.434 C6.5335,40.812 6.6685,41.109 6.9655,41.298 C7.2355,41.514 7.5325,41.595 7.8835,41.595 C8.0995,41.595 8.3425,41.568 8.6125,41.514 C8.7475,41.487 8.8825,41.46 9.0175,41.433 C9.1255,41.406 9.2605,41.379 9.3955,41.352 C10.4215,41.217 11.4745,41.109 12.5815,41.001 C13.6615,40.893 14.7145,40.839 15.7405,40.839 C16.3075,40.839 16.9015,40.893 17.4955,40.974 C18.0625,41.082 18.6295,41.109 19.2235,41.109 C19.3855,41.109 19.5475,41.055 19.7095,40.893 C19.8715,40.785 19.9795,40.596 19.9795,40.353 Z"/></svg>