<svg xmlns="http://www.w3.org/2000/svg" width="103" height="203" viewBox="0 0 103 203"><path fill="#131313" d="M990.878906,115 C1003.00781,115 1012.81576,119.042969 1020.30273,127.128906 C1027.78971,135.214844 1031.5332,145.846354 1031.5332,159.023438 C1031.5332,171.901042 1027.71484,182.457682 1020.07812,190.693359 C1012.59115,198.779297 1002.85807,202.822266 990.878906,202.822266 C978.89974,202.822266 969.091797,198.779297 961.455078,190.693359 C953.818359,182.457682 950,171.901042 950,159.023438 C950,145.846354 953.74349,135.214844 961.230469,127.128906 C968.717448,119.042969 978.60026,115 990.878906,115 Z M990.482422,131 C982.695964,131 976.70638,133.470703 972.513672,138.412109 C968.171224,143.353516 966,150.166667 966,158.851563 C966,165.440104 967.796875,171.729167 971.390625,177.71875 C974.984375,183.558594 981.348307,186.478516 990.482422,186.478516 C999.466797,186.478516 1005.75586,183.558594 1009.34961,177.71875 C1012.94336,171.729167 1014.74023,165.440104 1014.74023,158.851563 C1014.74023,150.166667 1012.64388,143.353516 1008.45117,138.412109 C1004.10872,133.470703 998.119141,131 990.482422,131 Z M1005.90625,105.839844 C1008.90104,106.438802 1011.74609,107.33724 1014.44141,108.535156 C1017.28646,109.733073 1019.9069,111.155599 1022.30273,112.802734 C1023.20117,112.054036 1024.24935,111.679688 1025.44727,111.679688 C1026.64518,111.679688 1027.76823,112.054036 1028.81641,112.802734 C1029.71484,113.701172 1030.23893,114.824219 1030.38867,116.171875 C1030.38867,117.519531 1029.93945,118.717448 1029.04102,119.765625 C1028.14258,120.813802 1027.01953,121.337891 1025.67187,121.337891 C1024.32422,121.48763 1023.1263,121.113281 1022.07812,120.214844 C1021.32943,119.466146 1020.80534,118.567708 1020.50586,117.519531 C1020.35612,116.471354 1020.50586,115.498047 1020.95508,114.599609 C1021.10482,114.44987 1021.17969,114.22526 1021.17969,113.925781 C1021.17969,114.075521 1021.10482,114.30013 1020.95508,114.599609 C1018.70898,113.102214 1016.31315,111.829427 1013.76758,110.78125 C1011.22201,109.733073 1008.52669,108.834635 1005.68164,108.085938 L1005.72062,107.807496 C1005.84437,106.904109 1005.90625,106.248224 1005.90625,105.839844 Z M1029.71484,116.396484 L1029.70911,116.649743 C1029.65946,117.732299 1029.28702,118.621187 1028.5918,119.316406 C1029.49023,118.567708 1029.86458,117.594401 1029.71484,116.396484 Z M1022.52734,113.251953 L1022.4375,113.332813 C1022.31771,113.428646 1022.19792,113.476563 1022.07812,113.476563 C1021.92839,113.776042 1021.77865,114.000651 1021.62891,114.150391 C1021.77865,114.000651 1022.00326,113.850911 1022.30273,113.701172 C1022.30273,113.551432 1022.3776,113.401693 1022.52734,113.251953 Z M1025.44727,112.128906 C1024.39909,112.128906 1023.50065,112.428385 1022.75195,113.027344 C1023.56871,112.482836 1024.44735,112.185832 1025.38786,112.136331 L1025.5685,112.131 L1025.44727,112.128906 Z M1006.13086,103.59375 C1006.13086,104.042969 1006.05599,104.791667 1005.90625,105.839844 L1005.86727,106.118285 C1005.74352,107.021673 1005.68164,107.677557 1005.68164,108.085938 C1005.68164,108.535156 1005.60677,109.208984 1005.45703,110.107422 C1002.76172,109.208984 998.71875,107.711589 993.328125,105.615234 C996.173177,105.166016 1000.44076,104.492188 1006.13086,103.59375 Z M1027.75714,113.565297 C1027.76782,113.570325 1027.77872,113.575567 1027.78983,113.581023 L1027.76511,113.557671 L1027.6945,113.5 L1027.6985,113.54 L1027.6684,113.526476 C1027.58521,113.4932 1027.51866,113.476563 1027.46875,113.476563 L1027.6665,113.476 L1027.60601,113.426649 C1027.06529,113.010706 1026.42057,112.802734 1025.67187,112.802734 C1024.77344,112.802734 1023.94987,113.027344 1023.20117,113.476563 C1023.05143,113.476563 1022.97656,113.551432 1022.97656,113.701172 C1022.82682,113.850911 1022.67708,113.925781 1022.52734,113.925781 C1022.3776,114.22526 1022.22786,114.44987 1022.07812,114.599609 C1022.07812,114.724392 1022.02613,114.901168 1021.92215,115.129937 L1021.85352,115.273438 C1021.70378,116.022135 1021.70378,116.695964 1021.85352,117.294922 C1022.00326,118.04362 1022.3776,118.717448 1022.97656,119.316406 C1023.72526,119.915365 1024.6237,120.214844 1025.67187,120.214844 C1026.72005,120.214844 1027.54362,119.840495 1028.14258,119.091797 C1028.89128,118.343099 1029.26562,117.444661 1029.26562,116.396484 C1029.11589,115.348307 1028.66667,114.44987 1027.91797,113.701172 L1027.84934,113.694933 C1027.74535,113.674136 1027.69336,113.601345 1027.69336,113.476563 L1027.6985,113.54 Z M1039.8755,101.45 C1039.8755,101.099 1039.7675,100.829 1039.5515,100.667 C1039.3085,100.505 1039.0115,100.397 1038.6335,100.397 C1038.4715,100.397 1038.3365,100.478 1038.1745,100.586 C1038.0125,100.721 1037.8775,100.829 1037.7965,100.91 C1037.5805,101.126 1037.4185,101.315 1037.2835,101.531 C1037.1215,101.747 1036.9325,101.963 1036.7705,102.152 C1036.2575,102.746 1035.7175,103.394 1035.1235,104.042 C1034.5025,104.717 1033.9085,105.311 1033.3415,105.851 C1033.2875,105.905 1033.2065,105.959 1033.1525,106.013 L1032.9365,106.121 C1032.8555,106.175 1032.7745,106.202 1032.7205,106.256 L1032.4775,106.418 C1032.3425,106.526 1032.2345,106.607 1032.1535,106.688 C1032.0455,106.796 1032.0185,106.877 1032.0185,106.958 C1032.0185,107.282 1032.1535,107.525 1032.4775,107.714 C1032.7475,107.93 1033.0715,108.011 1033.3955,108.011 C1033.6385,108.011 1033.8545,107.957 1034.0705,107.849 C1034.2595,107.741 1034.4485,107.579 1034.6645,107.363 C1034.7995,107.201 1034.9615,107.012 1035.1775,106.769 L1035.7175,106.175 C1035.8525,106.04 1036.0685,105.824 1036.3385,105.527 C1036.6085,105.23 1036.9055,104.879 1037.2835,104.474 C1037.2025,104.906 1037.1215,105.419 1037.0675,106.013 C1036.9595,106.607 1036.8785,107.201 1036.7975,107.849 L1036.5815,109.766 C1036.5275,110.414 1036.4735,111.035 1036.4465,111.575 C1036.3925,112.601 1036.3385,113.627 1036.3115,114.653 C1036.2575,115.679 1036.2305,116.57 1036.2305,117.326 C1036.2305,117.758 1036.3385,118.082 1036.5815,118.325 C1036.8245,118.595 1037.1485,118.703 1037.5805,118.703 C1037.7965,118.703 1038.0395,118.649 1038.3095,118.541 C1038.5255,118.433 1038.6605,118.298 1038.6605,118.136 C1038.6605,118.055 1038.6335,117.893 1038.6335,117.623 C1038.5795,117.38 1038.5525,117.083 1038.5255,116.759 C1038.4715,116.462 1038.4175,116.138 1038.4175,115.787 C1038.3635,115.436 1038.3635,115.112 1038.3635,114.842 C1038.3635,112.952 1038.4175,111.062 1038.5795,109.145 C1038.7415,107.255 1039.0385,105.365 1039.5245,103.502 C1039.5515,103.34 1039.6055,103.178 1039.6595,102.989 L1039.7675,102.476 L1039.8485,101.963 C1039.8485,101.801 1039.8755,101.639 1039.8755,101.45 Z M1002.46,69.328 C1004.7,69.328 1006.716,70.224 1008.508,71.568 C1010.076,73.136 1010.972,74.928 1010.972,77.168 C1010.972,78.736 1010.076,80.304 1008.508,81.872 C1007.164,83.44 1004.924,85.232 1001.788,87.472 C998.652,89.936 995.516,92.176 992.156,94.416 C988.572,96.656 985.436,98.672 982.3,100.016 C979.164,101.808 976.7,102.48 975.356,102.48 C972.444,102.48 971.1,101.584 971.1,99.344 C971.1,97.776 972.444,95.312 975.132,91.952 C977.82,88.816 980.956,85.456 984.54,82.096 C988.124,78.736 991.484,75.824 995.068,73.136 C998.428,70.672 1000.892,69.328 1002.46,69.328 Z M989.674247,61.7312362 L983.136204,72.1174964 L982.0605,71.022 L967.483735,85.7181103 C967.812926,86.3217416 968,87.0140241 968,87.75 C968,90.0972102 966.09721,92 963.75,92 C961.40279,92 959.5,90.0972102 959.5,87.75 C959.5,85.4027898 961.40279,83.5 963.75,83.5 C964.563871,83.5 965.324311,83.7287697 965.970522,84.1255125 L980.5215,69.456 L979.405749,68.3197489 L989.674247,61.7312362 Z M963.75,84.5 C961.955075,84.5 960.5,85.9550746 960.5,87.75 C960.5,89.5449254 961.955075,91 963.75,91 C965.544925,91 967,89.5449254 967,87.75 C967,87.0452928 966.77571,86.3929714 966.394622,85.8605271 L965.932812,85.3420989 C965.355931,84.8188279 964.590199,84.5 963.75,84.5 Z M958.9795,77.353 C958.9795,76.975 958.8445,76.651 958.6015,76.327 C958.3585,76.003 958.0885,75.841 957.7645,75.841 C957.5215,75.841 957.2785,75.868 957.0625,75.922 L956.6845,76.003 L956.3065,76.057 C955.7125,76.111 955.1185,76.165 954.4975,76.165 C953.8495,76.165 953.2555,76.192 952.6885,76.219 C952.1485,76.273 951.5815,76.3 950.9875,76.327 C950.3935,76.381 949.6375,76.435 948.7465,76.543 C949.3675,76.03 949.8805,75.571 950.2855,75.193 L951.3925,74.14 L953.2015,72.385 C953.7955,71.791 954.3895,71.224 955.0105,70.63 C955.7665,69.874 956.3605,69.01 956.7655,68.011 C957.1435,67.039 957.3325,66.013 957.3325,64.906 C957.3325,64.339 957.1975,63.772 956.9545,63.205 C956.6845,62.665 956.3335,62.152 955.9015,61.693 C955.4425,61.261 954.9025,60.91 954.2815,60.64 C953.6605,60.37 952.9855,60.235 952.2835,60.235 C951.5005,60.235 950.7445,60.343 949.9885,60.559 C949.2325,60.802 948.5575,61.18 947.9635,61.693 C947.7475,61.855 947.5585,62.098 947.3425,62.368 C947.1265,62.665 946.9105,62.962 946.7485,63.286 C946.5595,63.61 946.3975,63.934 946.2895,64.258 C946.1545,64.582 946.1005,64.879 946.1005,65.122 C946.1005,65.446 946.2085,65.689 946.4785,65.905 C946.7215,66.148 946.9645,66.256 947.2345,66.256 C947.4235,66.256 947.5855,66.229 947.7205,66.121 C947.8285,66.04 947.9635,65.905 948.1255,65.743 C948.1795,65.662 948.2605,65.527 948.3415,65.365 C948.4225,65.23 948.5035,65.068 948.5845,64.906 C948.6385,64.771 948.7195,64.609 948.7735,64.447 C948.8275,64.285 948.8815,64.15 948.9895,63.988 C949.3675,63.34 949.7995,62.854 950.2855,62.476 C950.7445,62.125 951.3925,61.936 952.2025,61.936 C952.6345,61.936 953.0665,62.044 953.4445,62.206 C953.8225,62.395 954.1465,62.638 954.4435,62.935 C954.7135,63.259 954.9295,63.61 955.0915,63.988 C955.2535,64.393 955.3345,64.798 955.3345,65.23 C955.3345,65.77 955.2535,66.256 955.0915,66.715 C954.9295,67.201 954.7405,67.633 954.4975,68.038 C954.2545,68.47 953.9845,68.848 953.6875,69.199 C953.3635,69.577 953.0125,69.928 952.6885,70.252 L950.1235,72.655 C949.2865,73.465 948.3955,74.221 947.4775,74.95 C947.2075,75.166 946.9915,75.355 946.7755,75.571 C946.5595,75.787 946.3705,76.003 946.1545,76.219 C945.9655,76.408 945.8035,76.597 945.6955,76.759 C945.5875,76.975 945.5335,77.191 945.5335,77.434 C945.5335,77.812 945.6685,78.109 945.9655,78.298 C946.2355,78.514 946.5325,78.595 946.8835,78.595 C947.0995,78.595 947.3425,78.568 947.6125,78.514 C947.7475,78.487 947.8825,78.46 948.0175,78.433 C948.1255,78.406 948.2605,78.379 948.3955,78.352 C949.4215,78.217 950.4745,78.109 951.5815,78.001 C952.6615,77.893 953.7145,77.839 954.7405,77.839 C955.3075,77.839 955.9015,77.893 956.4955,77.974 C957.0625,78.082 957.6295,78.109 958.2235,78.109 C958.3855,78.109 958.5475,78.055 958.7095,77.893 C958.8715,77.785 958.9795,77.596 958.9795,77.353 Z" transform="translate(-939)"/></svg>