<svg xmlns="http://www.w3.org/2000/svg" width="103" height="203" viewBox="0 0 103 203"><path fill="#131313" d="M990.878906,85.765 C1003.00781,85.765 1012.81576,89.8079688 1020.30273,97.8939062 C1027.78971,105.979844 1031.5332,116.611354 1031.5332,129.788438 C1031.5332,142.666042 1027.71484,153.222682 1020.07812,161.458359 C1012.59115,169.544297 1002.85807,173.587266 990.878906,173.587266 C978.89974,173.587266 969.091797,169.544297 961.455078,161.458359 C953.818359,153.222682 950,142.666042 950,129.788438 C950,116.611354 953.74349,105.979844 961.230469,97.8939062 C968.717448,89.8079688 978.60026,85.765 990.878906,85.765 Z M990.482422,101.765 C982.695964,101.765 976.70638,104.235703 972.513672,109.177109 C968.171224,114.118516 966,120.931667 966,129.616563 C966,136.205104 967.796875,142.494167 971.390625,148.48375 C974.984375,154.323594 981.348307,157.243516 990.482422,157.243516 C999.466797,157.243516 1005.75586,154.323594 1009.34961,148.48375 C1012.94336,142.494167 1014.74023,136.205104 1014.74023,129.616563 C1014.74023,120.931667 1012.64388,114.118516 1008.45117,109.177109 C1004.10872,104.235703 998.119141,101.765 990.482422,101.765 Z M1005.90625,76.6048438 C1008.90104,77.2038021 1011.74609,78.1022396 1014.44141,79.3001563 C1017.28646,80.4980729 1019.9069,81.920599 1022.30273,83.5677344 C1023.20117,82.8190365 1024.24935,82.4446875 1025.44727,82.4446875 C1026.64518,82.4446875 1027.76823,82.8190365 1028.81641,83.5677344 C1029.71484,84.4661719 1030.23893,85.5892188 1030.38867,86.936875 C1030.38867,88.2845313 1029.93945,89.4824479 1029.04102,90.530625 C1028.14258,91.5788021 1027.01953,92.1028906 1025.67187,92.1028906 C1024.32422,92.2526302 1023.1263,91.8782813 1022.07812,90.9798438 C1021.32943,90.2311458 1020.80534,89.3327083 1020.50586,88.2845313 C1020.35612,87.2363542 1020.50586,86.2630469 1020.95508,85.3646094 C1021.10482,85.2148698 1021.17969,84.9902604 1021.17969,84.6907813 C1021.17969,84.8405208 1021.10482,85.0651302 1020.95508,85.3646094 C1018.70898,83.8672135 1016.31315,82.5944271 1013.76758,81.54625 C1011.22201,80.4980729 1008.52669,79.5996354 1005.68164,78.8509375 L1005.72062,78.5724961 C1005.84437,77.6691086 1005.90625,77.0132244 1005.90625,76.6048438 Z M1029.71484,87.1614844 L1029.70911,87.4147429 C1029.65946,88.497299 1029.28702,89.3861868 1028.5918,90.0814063 C1029.49023,89.3327083 1029.86458,88.359401 1029.71484,87.1614844 Z M1022.52734,84.0169531 L1022.4375,84.0978125 C1022.31771,84.1936458 1022.19792,84.2415625 1022.07812,84.2415625 C1021.92839,84.5410417 1021.77865,84.765651 1021.62891,84.9153906 C1021.77865,84.765651 1022.00326,84.6159115 1022.30273,84.4661719 C1022.30273,84.3164323 1022.3776,84.1666927 1022.52734,84.0169531 Z M1025.44727,82.8939063 C1024.39909,82.8939063 1023.50065,83.1933854 1022.75195,83.7923438 C1023.56871,83.2478362 1024.44735,82.950832 1025.38786,82.9013314 L1025.5685,82.896 L1025.44727,82.8939063 Z M1006.13086,74.35875 C1006.13086,74.8079688 1006.05599,75.5566667 1005.90625,76.6048438 L1005.86727,76.8832851 C1005.74352,77.7866727 1005.68164,78.4425568 1005.68164,78.8509375 C1005.68164,79.3001563 1005.60677,79.9739844 1005.45703,80.8724219 C1002.76172,79.9739844 998.71875,78.4765885 993.328125,76.3802344 C996.173177,75.9310156 1000.44076,75.2571875 1006.13086,74.35875 Z M1027.75714,84.3302971 C1027.76782,84.3353254 1027.77872,84.3405674 1027.78983,84.3460231 L1027.76511,84.3226714 L1027.6945,84.265 L1027.6985,84.305 L1027.6684,84.2914757 C1027.58521,84.2582002 1027.51866,84.2415625 1027.46875,84.2415625 L1027.6665,84.241 L1027.60601,84.1916493 C1027.06529,83.775706 1026.42057,83.5677344 1025.67187,83.5677344 C1024.77344,83.5677344 1023.94987,83.7923438 1023.20117,84.2415625 C1023.05143,84.2415625 1022.97656,84.3164323 1022.97656,84.4661719 C1022.82682,84.6159115 1022.67708,84.6907813 1022.52734,84.6907813 C1022.3776,84.9902604 1022.22786,85.2148698 1022.07812,85.3646094 C1022.07812,85.4893924 1022.02613,85.6661683 1021.92215,85.8949371 L1021.85352,86.0384375 C1021.70378,86.7871354 1021.70378,87.4609635 1021.85352,88.0599219 C1022.00326,88.8086198 1022.3776,89.4824479 1022.97656,90.0814063 C1023.72526,90.6803646 1024.6237,90.9798438 1025.67187,90.9798438 C1026.72005,90.9798438 1027.54362,90.6054948 1028.14258,89.8567969 C1028.89128,89.108099 1029.26562,88.2096615 1029.26562,87.1614844 C1029.11589,86.1133073 1028.66667,85.2148698 1027.91797,84.4661719 L1027.84934,84.4599327 C1027.74535,84.4391356 1027.69336,84.3663455 1027.69336,84.2415625 L1027.6985,84.305 Z M1039.8755,72.215 C1039.8755,71.864 1039.7675,71.594 1039.5515,71.432 C1039.3085,71.27 1039.0115,71.162 1038.6335,71.162 C1038.4715,71.162 1038.3365,71.243 1038.1745,71.351 C1038.0125,71.486 1037.8775,71.594 1037.7965,71.675 C1037.5805,71.891 1037.4185,72.08 1037.2835,72.296 C1037.1215,72.512 1036.9325,72.728 1036.7705,72.917 C1036.2575,73.511 1035.7175,74.159 1035.1235,74.807 C1034.5025,75.482 1033.9085,76.076 1033.3415,76.616 C1033.2875,76.67 1033.2065,76.724 1033.1525,76.778 L1032.9365,76.886 C1032.8555,76.94 1032.7745,76.967 1032.7205,77.021 L1032.4775,77.183 C1032.3425,77.291 1032.2345,77.372 1032.1535,77.453 C1032.0455,77.561 1032.0185,77.642 1032.0185,77.723 C1032.0185,78.047 1032.1535,78.29 1032.4775,78.479 C1032.7475,78.695 1033.0715,78.776 1033.3955,78.776 C1033.6385,78.776 1033.8545,78.722 1034.0705,78.614 C1034.2595,78.506 1034.4485,78.344 1034.6645,78.128 C1034.7995,77.966 1034.9615,77.777 1035.1775,77.534 L1035.7175,76.94 C1035.8525,76.805 1036.0685,76.589 1036.3385,76.292 C1036.6085,75.995 1036.9055,75.644 1037.2835,75.239 C1037.2025,75.671 1037.1215,76.184 1037.0675,76.778 C1036.9595,77.372 1036.8785,77.966 1036.7975,78.614 L1036.5815,80.531 C1036.5275,81.179 1036.4735,81.8 1036.4465,82.34 C1036.3925,83.366 1036.3385,84.392 1036.3115,85.418 C1036.2575,86.444 1036.2305,87.335 1036.2305,88.091 C1036.2305,88.523 1036.3385,88.847 1036.5815,89.09 C1036.8245,89.36 1037.1485,89.468 1037.5805,89.468 C1037.7965,89.468 1038.0395,89.414 1038.3095,89.306 C1038.5255,89.198 1038.6605,89.063 1038.6605,88.901 C1038.6605,88.82 1038.6335,88.658 1038.6335,88.388 C1038.5795,88.145 1038.5525,87.848 1038.5255,87.524 C1038.4715,87.227 1038.4175,86.903 1038.4175,86.552 C1038.3635,86.201 1038.3635,85.877 1038.3635,85.607 C1038.3635,83.717 1038.4175,81.827 1038.5795,79.91 C1038.7415,78.02 1039.0385,76.13 1039.5245,74.267 C1039.5515,74.105 1039.6055,73.943 1039.6595,73.754 L1039.7675,73.241 L1039.8485,72.728 C1039.8485,72.566 1039.8755,72.404 1039.8755,72.215 Z M1002.46,40.093 C1004.7,40.093 1006.716,40.989 1008.508,42.333 C1010.076,43.901 1010.972,45.693 1010.972,47.933 C1010.972,49.501 1010.076,51.069 1008.508,52.637 C1007.164,54.205 1004.924,55.997 1001.788,58.237 C998.652,60.701 995.516,62.941 992.156,65.181 C988.572,67.421 985.436,69.437 982.3,70.781 C979.164,72.573 976.7,73.245 975.356,73.245 C972.444,73.245 971.1,72.349 971.1,70.109 C971.1,68.541 972.444,66.077 975.132,62.717 C977.82,59.581 980.956,56.221 984.54,52.861 C988.124,49.501 991.484,46.589 995.068,43.901 C998.428,41.437 1000.892,40.093 1002.46,40.093 Z M989.674247,32.4962362 L983.136204,42.8824964 L982.0605,41.787 L967.483735,56.4831103 C967.812926,57.0867416 968,57.7790241 968,58.515 C968,60.8622102 966.09721,62.765 963.75,62.765 C961.40279,62.765 959.5,60.8622102 959.5,58.515 C959.5,56.1677898 961.40279,54.265 963.75,54.265 C964.563871,54.265 965.324311,54.4937697 965.970522,54.8905125 L980.5215,40.221 L979.405749,39.0847489 L989.674247,32.4962362 Z M963.75,55.265 C961.955075,55.265 960.5,56.7200746 960.5,58.515 C960.5,60.3099254 961.955075,61.765 963.75,61.765 C965.544925,61.765 967,60.3099254 967,58.515 C967,57.8102928 966.77571,57.1579714 966.394622,56.6255271 L965.932812,56.1070989 C965.355931,55.5838279 964.590199,55.265 963.75,55.265 Z M958.9795,48.118 C958.9795,47.74 958.8445,47.416 958.6015,47.092 C958.3585,46.768 958.0885,46.606 957.7645,46.606 C957.5215,46.606 957.2785,46.633 957.0625,46.687 L956.6845,46.768 L956.3065,46.822 C955.7125,46.876 955.1185,46.93 954.4975,46.93 C953.8495,46.93 953.2555,46.957 952.6885,46.984 C952.1485,47.038 951.5815,47.065 950.9875,47.092 C950.3935,47.146 949.6375,47.2 948.7465,47.308 C949.3675,46.795 949.8805,46.336 950.2855,45.958 L951.3925,44.905 L953.2015,43.15 C953.7955,42.556 954.3895,41.989 955.0105,41.395 C955.7665,40.639 956.3605,39.775 956.7655,38.776 C957.1435,37.804 957.3325,36.778 957.3325,35.671 C957.3325,35.104 957.1975,34.537 956.9545,33.97 C956.6845,33.43 956.3335,32.917 955.9015,32.458 C955.4425,32.026 954.9025,31.675 954.2815,31.405 C953.6605,31.135 952.9855,31 952.2835,31 C951.5005,31 950.7445,31.108 949.9885,31.324 C949.2325,31.567 948.5575,31.945 947.9635,32.458 C947.7475,32.62 947.5585,32.863 947.3425,33.133 C947.1265,33.43 946.9105,33.727 946.7485,34.051 C946.5595,34.375 946.3975,34.699 946.2895,35.023 C946.1545,35.347 946.1005,35.644 946.1005,35.887 C946.1005,36.211 946.2085,36.454 946.4785,36.67 C946.7215,36.913 946.9645,37.021 947.2345,37.021 C947.4235,37.021 947.5855,36.994 947.7205,36.886 C947.8285,36.805 947.9635,36.67 948.1255,36.508 C948.1795,36.427 948.2605,36.292 948.3415,36.13 C948.4225,35.995 948.5035,35.833 948.5845,35.671 C948.6385,35.536 948.7195,35.374 948.7735,35.212 C948.8275,35.05 948.8815,34.915 948.9895,34.753 C949.3675,34.105 949.7995,33.619 950.2855,33.241 C950.7445,32.89 951.3925,32.701 952.2025,32.701 C952.6345,32.701 953.0665,32.809 953.4445,32.971 C953.8225,33.16 954.1465,33.403 954.4435,33.7 C954.7135,34.024 954.9295,34.375 955.0915,34.753 C955.2535,35.158 955.3345,35.563 955.3345,35.995 C955.3345,36.535 955.2535,37.021 955.0915,37.48 C954.9295,37.966 954.7405,38.398 954.4975,38.803 C954.2545,39.235 953.9845,39.613 953.6875,39.964 C953.3635,40.342 953.0125,40.693 952.6885,41.017 L950.1235,43.42 C949.2865,44.23 948.3955,44.986 947.4775,45.715 C947.2075,45.931 946.9915,46.12 946.7755,46.336 C946.5595,46.552 946.3705,46.768 946.1545,46.984 C945.9655,47.173 945.8035,47.362 945.6955,47.524 C945.5875,47.74 945.5335,47.956 945.5335,48.199 C945.5335,48.577 945.6685,48.874 945.9655,49.063 C946.2355,49.279 946.5325,49.36 946.8835,49.36 C947.0995,49.36 947.3425,49.333 947.6125,49.279 C947.7475,49.252 947.8825,49.225 948.0175,49.198 C948.1255,49.171 948.2605,49.144 948.3955,49.117 C949.4215,48.982 950.4745,48.874 951.5815,48.766 C952.6615,48.658 953.7145,48.604 954.7405,48.604 C955.3075,48.604 955.9015,48.658 956.4955,48.739 C957.0625,48.847 957.6295,48.874 958.2235,48.874 C958.3855,48.874 958.5475,48.82 958.7095,48.658 C958.8715,48.55 958.9795,48.361 958.9795,48.118 Z" transform="translate(-939 -31.765)"/></svg>