<svg xmlns="http://www.w3.org/2000/svg" width="103" height="203" viewBox="0 0 103 203"><path fill="#131313" d="M4238.70898,117 C4240.95508,117 4242.90169,117.748698 4244.54883,119.246094 C4246.19596,120.893229 4247.01953,122.839844 4247.01953,125.085937 C4247.01953,129.428385 4247.01953,135.942057 4247.01953,144.626953 C4247.01953,148.220703 4247.01953,153.536458 4247.01953,160.574219 C4247.01953,168.061198 4247.01953,179.366536 4247.01953,194.490234 C4247.01953,196.736328 4246.19596,198.682943 4244.54883,200.330078 C4242.90169,201.827474 4240.95508,202.576172 4238.70898,202.576172 C4236.46289,202.576172 4234.59115,201.827474 4233.09375,200.330078 C4231.44661,198.682943 4230.62305,196.736328 4230.62305,194.490234 C4230.62305,194.190755 4230.62305,193.666667 4230.62305,192.917969 C4226.87956,195.91276 4222.68685,198.233724 4218.04492,199.880859 C4213.25326,201.677734 4208.08724,202.576172 4202.54688,202.576172 C4197.15625,202.576172 4192.66406,201.827474 4189.07031,200.330078 C4185.47656,198.832682 4182.55664,196.886068 4180.31055,194.490234 C4176.11784,189.998047 4173.72201,184.832031 4173.12305,178.992188 C4172.37435,173.152344 4172,168.510417 4172,165.066406 C4172,156.231771 4172,142.904948 4172,125.085937 C4172,122.839844 4172.82357,120.893229 4174.4707,119.246094 C4175.9681,117.748698 4177.83984,117 4180.08594,117 C4182.33203,117 4184.27865,117.748698 4185.92578,119.246094 C4187.42318,120.893229 4188.17188,122.839844 4188.17188,125.085937 C4188.17188,133.920573 4188.17188,147.247396 4188.17188,165.066406 C4188.17188,173.451823 4189.14518,179.067057 4191.0918,181.912109 C4193.18815,184.906901 4197.00651,186.404297 4202.54688,186.404297 C4209.13542,186.404297 4215.49935,184.008464 4221.63867,179.216797 C4227.62826,174.42513 4230.62305,168.210938 4230.62305,160.574219 C4230.62305,156.980469 4230.62305,151.664714 4230.62305,144.626953 C4230.62305,140.284505 4230.62305,133.770833 4230.62305,125.085937 C4230.62305,122.839844 4231.44661,120.893229 4233.09375,119.246094 C4234.59115,117.748698 4236.46289,117 4238.70898,117 Z M4220.89648,135.193359 C4221.04622,135.193359 4221.19596,135.193359 4221.3457,135.193359 C4221.64518,135.193359 4221.86979,135.193359 4222.01953,135.193359 C4222.16927,135.193359 4222.39388,135.193359 4222.69336,135.193359 C4222.8431,135.193359 4222.99284,135.193359 4223.14258,135.193359 C4223.14258,138.038411 4223.14258,142.455729 4223.14258,148.445312 C4222.69336,148.445312 4221.94466,148.445312 4220.89648,148.445312 C4220.89648,146.199219 4220.89648,143.953125 4220.89648,141.707031 C4220.89648,139.460938 4220.89648,137.289714 4220.89648,135.193359 Z M4225.38867,148.445312 C4224.63997,151.290365 4223.51693,155.483073 4222.01953,161.023438 C4221.27083,158.178385 4220.14779,153.985677 4218.65039,148.445312 L4225.38867,148.445312 Z M4221.85,127.265 C4224.19721,127.265 4226.1,129.16779 4226.1,131.515 C4226.1,133.86221 4224.19721,135.765 4221.85,135.765 C4219.50279,135.765 4217.6,133.86221 4217.6,131.515 C4217.6,129.16779 4219.50279,127.265 4221.85,127.265 Z M4221.85,128.265 C4220.05507,128.265 4218.6,129.720075 4218.6,131.515 C4218.6,133.309925 4220.05507,134.765 4221.85,134.765 C4223.64493,134.765 4225.1,133.309925 4225.1,131.515 C4225.1,129.720075 4223.64493,128.265 4221.85,128.265 Z M4164.51953,165.515625 C4164.51953,178.09375 4166.76562,188.126302 4171.25781,195.613281 C4175.75,203.10026 4182.48828,207.966797 4191.47266,210.212891 C4191.47266,210.662109 4191.39779,211.410807 4191.24805,212.458984 C4187.05534,211.410807 4183.38672,209.913411 4180.24219,207.966797 C4177.2474,205.870443 4174.62695,203.549479 4172.38086,201.003906 C4168.33789,196.0625 4165.64258,190.372396 4164.29492,183.933594 C4162.94727,177.644531 4162.27344,171.505208 4162.27344,165.515625 C4162.27344,158.777344 4162.27344,148.669922 4162.27344,135.193359 C4162.42318,135.193359 4162.57292,135.193359 4162.72266,135.193359 C4163.02214,135.193359 4163.24674,135.193359 4163.39648,135.193359 C4163.54622,135.193359 4163.69596,135.193359 4163.8457,135.193359 C4164.14518,135.193359 4164.36979,135.193359 4164.51953,135.193359 C4164.51953,140.134766 4164.51953,145.151042 4164.51953,150.242188 C4164.51953,155.333333 4164.51953,160.424479 4164.51953,165.515625 Z M4191.69727,208.191406 C4194.39258,209.239583 4198.43555,210.811849 4203.82617,212.908203 C4200.98112,213.357422 4196.71354,214.03125 4191.02344,214.929688 C4191.02344,214.330729 4191.54753,209.089844 4191.69727,208.191406 Z M4208.2835,130.235 C4208.9855,130.235 4209.6605,130.37 4210.2815,130.64 C4210.9025,130.91 4211.4425,131.261 4211.9015,131.693 C4212.3335,132.152 4212.6845,132.665 4212.9545,133.205 C4213.1975,133.772 4213.3325,134.339 4213.3325,134.906 C4213.3325,136.013 4213.1435,137.039 4212.7655,138.011 C4212.3605,139.01 4211.7665,139.874 4211.0105,140.63 C4210.3895,141.224 4209.7955,141.791 4209.2015,142.385 L4207.3925,144.14 L4206.2855,145.193 C4205.8805,145.571 4205.3675,146.03 4204.7465,146.543 C4205.6375,146.435 4206.3935,146.381 4206.9875,146.327 C4207.5815,146.3 4208.1485,146.273 4208.6885,146.219 C4209.2555,146.192 4209.8495,146.165 4210.4975,146.165 C4211.1185,146.165 4211.7125,146.111 4212.3065,146.057 L4212.6845,146.003 L4213.0625,145.922 C4213.2785,145.868 4213.5215,145.841 4213.7645,145.841 C4214.0885,145.841 4214.3585,146.003 4214.6015,146.327 C4214.8445,146.651 4214.9795,146.975 4214.9795,147.353 C4214.9795,147.596 4214.8715,147.785 4214.7095,147.893 C4214.5475,148.055 4214.3855,148.109 4214.2235,148.109 C4213.6295,148.109 4213.0625,148.082 4212.4955,147.974 C4211.9015,147.893 4211.3075,147.839 4210.7405,147.839 C4209.7145,147.839 4208.6615,147.893 4207.5815,148.001 C4206.4745,148.109 4205.4215,148.217 4204.3955,148.352 C4204.2605,148.379 4204.1255,148.406 4204.0175,148.433 C4203.8825,148.46 4203.7475,148.487 4203.6125,148.514 C4203.3425,148.568 4203.0995,148.595 4202.8835,148.595 C4202.5325,148.595 4202.2355,148.514 4201.9655,148.298 C4201.6685,148.109 4201.5335,147.812 4201.5335,147.434 C4201.5335,147.191 4201.5875,146.975 4201.6955,146.759 C4201.8035,146.597 4201.9655,146.408 4202.1545,146.219 C4202.3705,146.003 4202.5595,145.787 4202.7755,145.571 C4202.9915,145.355 4203.2075,145.166 4203.4775,144.95 C4204.3955,144.221 4205.2865,143.465 4206.1235,142.655 L4208.6885,140.252 C4209.0125,139.928 4209.3635,139.577 4209.6875,139.199 C4209.9845,138.848 4210.2545,138.47 4210.4975,138.038 C4210.7405,137.633 4210.9295,137.201 4211.0915,136.715 C4211.2535,136.256 4211.3345,135.77 4211.3345,135.23 C4211.3345,134.798 4211.2535,134.393 4211.0915,133.988 C4210.9295,133.61 4210.7135,133.259 4210.4435,132.935 C4210.1465,132.638 4209.8225,132.395 4209.4445,132.206 C4209.0665,132.044 4208.6345,131.936 4208.2025,131.936 C4207.3925,131.936 4206.7445,132.125 4206.2855,132.476 C4205.7995,132.854 4205.3675,133.34 4204.9895,133.988 C4204.8815,134.15 4204.8275,134.285 4204.7735,134.447 C4204.7195,134.609 4204.6385,134.771 4204.5845,134.906 C4204.5035,135.068 4204.4225,135.23 4204.3415,135.365 C4204.2605,135.527 4204.1795,135.662 4204.1255,135.743 C4203.9635,135.905 4203.8285,136.04 4203.7205,136.121 C4203.5855,136.229 4203.4235,136.256 4203.2345,136.256 C4202.9645,136.256 4202.7215,136.148 4202.4785,135.905 C4202.2085,135.689 4202.1005,135.446 4202.1005,135.122 C4202.1005,134.879 4202.1545,134.582 4202.2895,134.258 C4202.3975,133.934 4202.5595,133.61 4202.7485,133.286 C4202.9105,132.962 4203.1265,132.665 4203.3425,132.368 C4203.5585,132.098 4203.7475,131.855 4203.9635,131.693 C4204.5575,131.18 4205.2325,130.802 4205.9885,130.559 C4206.7445,130.343 4207.5005,130.235 4208.2835,130.235 Z M4150.6335,129.397 C4151.0115,129.397 4151.3085,129.505 4151.5515,129.667 C4151.7675,129.829 4151.8755,130.099 4151.8755,130.45 C4151.8755,130.639 4151.8485,130.801 4151.8485,130.963 L4151.7675,131.476 L4151.6595,131.989 C4151.6055,132.178 4151.5515,132.34 4151.5245,132.502 C4151.0385,134.365 4150.7415,136.255 4150.5795,138.145 C4150.4175,140.062 4150.3635,141.952 4150.3635,143.842 C4150.3635,144.112 4150.3635,144.436 4150.4175,144.787 C4150.4175,145.138 4150.4715,145.462 4150.5255,145.759 C4150.5525,146.083 4150.5795,146.38 4150.6335,146.623 C4150.6335,146.893 4150.6605,147.055 4150.6605,147.136 C4150.6605,147.298 4150.5255,147.433 4150.3095,147.541 C4150.0395,147.649 4149.7965,147.703 4149.5805,147.703 C4149.1485,147.703 4148.8245,147.595 4148.5815,147.325 C4148.3385,147.082 4148.2305,146.758 4148.2305,146.326 C4148.2305,145.57 4148.2575,144.679 4148.3115,143.653 C4148.3385,142.627 4148.3925,141.601 4148.4465,140.575 C4148.4735,140.035 4148.5275,139.414 4148.5815,138.766 L4148.7975,136.849 C4148.8785,136.201 4148.9595,135.607 4149.0675,135.013 C4149.1215,134.419 4149.2025,133.906 4149.2835,133.474 C4148.9055,133.879 4148.6085,134.23 4148.3385,134.527 C4148.0685,134.824 4147.8525,135.04 4147.7175,135.175 L4147.1775,135.769 C4146.9615,136.012 4146.7995,136.201 4146.6645,136.363 C4146.4485,136.579 4146.2595,136.741 4146.0705,136.849 C4145.8545,136.957 4145.6385,137.011 4145.3955,137.011 C4145.0715,137.011 4144.7475,136.93 4144.4775,136.714 C4144.1535,136.525 4144.0185,136.282 4144.0185,135.958 C4144.0185,135.877 4144.0455,135.796 4144.1535,135.688 C4144.2345,135.607 4144.3425,135.526 4144.4775,135.418 L4144.7205,135.256 C4144.7745,135.202 4144.8555,135.175 4144.9365,135.121 L4145.1525,135.013 L4145.3415,134.851 C4145.9085,134.311 4146.5025,133.717 4147.1235,133.042 C4147.7175,132.394 4148.2575,131.746 4148.7705,131.152 C4148.9325,130.963 4149.1215,130.747 4149.2835,130.531 C4149.4185,130.315 4149.5805,130.126 4149.7965,129.91 C4149.8775,129.829 4150.0125,129.721 4150.1745,129.586 C4150.3365,129.478 4150.4715,129.397 4150.6335,129.397 Z M4163.45,127.265 C4165.79721,127.265 4167.7,129.16779 4167.7,131.515 C4167.7,133.86221 4165.79721,135.765 4163.45,135.765 C4161.10279,135.765 4159.2,133.86221 4159.2,131.515 C4159.2,129.16779 4161.10279,127.265 4163.45,127.265 Z M4163.45,128.265 C4161.65507,128.265 4160.2,129.720075 4160.2,131.515 C4160.2,133.309925 4161.65507,134.765 4163.45,134.765 C4165.24493,134.765 4166.7,133.309925 4166.7,131.515 C4166.7,129.720075 4165.24493,128.265 4163.45,128.265 Z M4253.6015,73.25 C4253.6015,71.792 4253.0075,70.631 4251.8735,69.74 C4251.2795,69.335 4250.6585,69.065 4249.9835,68.957 C4249.2815,68.876 4248.6065,68.822 4247.9045,68.822 C4247.2565,68.822 4246.5815,68.903 4245.9335,69.011 C4245.2855,69.173 4244.5835,69.362 4243.8275,69.578 C4243.9085,68.552 4243.9895,67.607 4244.0975,66.743 L4244.3135,64.016 C4245.2855,63.935 4246.2035,63.827 4247.0675,63.719 L4249.6325,63.314 C4249.7945,63.287 4249.9835,63.26 4250.1995,63.233 C4250.3885,63.233 4250.5775,63.233 4250.7935,63.179 L4251.3605,63.071 C4251.5225,63.071 4251.7115,63.017 4251.8735,62.936 C4251.9815,62.882 4252.0625,62.828 4252.1165,62.774 C4252.1435,62.72 4252.1705,62.612 4252.1705,62.45 C4252.1705,62.342 4252.0895,62.207 4251.9545,62.045 C4251.7925,61.91 4251.6305,61.775 4251.4415,61.667 C4251.2255,61.559 4251.0095,61.451 4250.7935,61.343 C4250.5775,61.289 4250.3885,61.235 4250.2805,61.235 C4250.1725,61.235 4250.0915,61.262 4249.9835,61.289 C4249.8755,61.343 4249.7945,61.37 4249.6865,61.397 L4249.3355,61.505 C4249.2005,61.559 4249.0925,61.586 4249.0115,61.613 C4248.3095,61.802 4247.5535,61.937 4246.7435,62.045 C4245.9065,62.153 4245.0965,62.18 4244.3135,62.18 C4244.1245,62.018 4243.9625,61.883 4243.8275,61.829 C4243.6655,61.775 4243.4765,61.721 4243.3145,61.721 C4243.1525,61.721 4243.0175,61.748 4242.8555,61.802 C4242.6665,61.856 4242.5315,61.91 4242.4235,61.964 C4242.2615,62.288 4242.1535,62.774 4242.0995,63.422 C4242.0185,64.097 4241.9645,64.826 4241.9375,65.582 C4241.8835,66.392 4241.8295,67.175 4241.8295,67.931 C4241.7755,68.687 4241.7485,69.281 4241.7215,69.686 L4241.6675,70.037 L4241.6135,70.415 C4241.5595,70.685 4241.5325,70.928 4241.5325,71.171 C4241.5325,71.252 4241.5595,71.333 4241.6405,71.441 C4241.6945,71.549 4241.8025,71.63 4241.9105,71.711 C4242.0185,71.792 4242.1265,71.846 4242.2345,71.9 C4242.3425,71.954 4242.4235,71.981 4242.5315,71.981 C4242.7205,71.981 4242.9095,71.954 4243.0715,71.9 C4243.2065,71.846 4243.3685,71.792 4243.5575,71.684 C4243.7195,71.603 4243.9085,71.495 4244.0975,71.387 C4244.2595,71.306 4244.4485,71.225 4244.6645,71.144 C4245.2045,70.982 4245.7175,70.847 4246.2305,70.793 C4246.7165,70.739 4247.2565,70.685 4247.8505,70.685 C4248.2825,70.685 4248.7145,70.739 4249.1465,70.847 C4249.5515,70.955 4249.9295,71.117 4250.2535,71.333 C4250.5775,71.549 4250.8205,71.846 4251.0365,72.224 C4251.2255,72.602 4251.3335,73.061 4251.3335,73.601 C4251.3335,74.384 4251.1715,75.059 4250.9015,75.653 C4250.5775,76.247 4250.1995,76.733 4249.7135,77.111 C4249.2275,77.516 4248.6605,77.813 4248.0395,78.029 C4247.3915,78.245 4246.7435,78.326 4246.0955,78.326 C4245.4475,78.326 4244.8535,78.245 4244.3675,78.083 C4243.8275,77.921 4243.3955,77.732 4243.0175,77.516 C4242.8015,77.435 4242.6395,77.327 4242.4775,77.219 C4242.3155,77.138 4242.1805,77.057 4242.0455,76.976 C4241.8835,76.922 4241.7485,76.841 4241.6405,76.787 C4241.5055,76.76 4241.3975,76.733 4241.3165,76.733 C4241.0465,76.733 4240.8575,76.841 4240.6955,77.003 C4240.5065,77.219 4240.4255,77.462 4240.4255,77.759 C4240.4255,78.083 4240.5335,78.353 4240.7495,78.569 C4240.9655,78.812 4241.2085,79.001 4241.5055,79.109 C4241.7215,79.217 4242.0455,79.325 4242.4775,79.433 C4242.8555,79.568 4243.2875,79.676 4243.7195,79.757 C4244.1515,79.838 4244.5835,79.919 4245.0155,79.973 C4245.4205,80.027 4245.7715,80.081 4246.0415,80.081 C4247.0675,80.081 4248.0395,79.946 4248.9575,79.676 C4249.8755,79.406 4250.6855,79.001 4251.3875,78.407 C4252.0625,77.867 4252.6025,77.165 4253.0075,76.301 C4253.3855,75.437 4253.6015,74.438 4253.6015,73.25 Z M4198.5305,66.262 C4199.8745,66.262 4202.3385,67.606 4205.9225,70.07 C4209.2825,72.758 4212.8665,75.67 4216.4505,78.806 C4220.0345,82.39 4223.1705,85.75 4225.8585,88.886 C4228.5465,92.246 4229.8905,94.71 4229.8905,96.278 C4229.8905,98.518 4228.3225,99.414 4225.6345,99.414 C4223.8425,99.414 4221.6025,98.742 4218.4665,97.174 C4215.3305,95.606 4212.1945,93.59 4208.8345,91.35 C4205.2505,89.11 4202.1145,86.87 4199.2025,84.63 C4196.0665,82.39 4193.8265,80.374 4192.4825,78.806 C4190.6905,77.238 4190.0185,75.67 4190.0185,74.102 C4190.0185,71.862 4190.6905,70.07 4192.4825,68.502 C4194.2745,67.158 4196.2905,66.262 4198.5305,66.262 Z M4208.75,55.5 C4211.09721,55.5 4213,57.4027898 4213,59.75 C4213,60.3281249 4212.88457,60.8792889 4212.67549,61.3817012 L4225.6345,71.17 L4227.44933,69.078818 L4235.81234,79.320067 L4222.5,74.7836473 L4224.3205,72.684 L4211.49433,62.9952885 C4210.75389,63.6220647 4209.79608,64 4208.75,64 C4206.40279,64 4204.5,62.0972102 4204.5,59.75 C4204.5,57.4027898 4206.40279,55.5 4208.75,55.5 Z M4208.75,56.5 C4206.95507,56.5 4205.5,57.9550746 4205.5,59.75 C4205.5,61.5449254 4206.95507,63 4208.75,63 C4210.54493,63 4212,61.5449254 4212,59.75 C4212,57.9550746 4210.54493,56.5 4208.75,56.5 Z" transform="translate(-4158)"/></svg>