<svg xmlns="http://www.w3.org/2000/svg" width="103" height="243" viewBox="0 0 103 243"><path fill="#131313" d="M94.6904844,80 C96.9365781,80 98.8831927,80.7486979 100.530328,82.2460937 C102.177464,83.8932292 103.001031,85.8398437 103.001031,88.0859375 C103.001031,92.4283854 103.001031,98.9420573 103.001031,107.626953 C103.001031,111.220703 103.001031,116.536458 103.001031,123.574219 C103.001031,131.061198 103.001031,142.366536 103.001031,157.490234 C103.001031,159.736328 102.177464,161.682943 100.530328,163.330078 C98.8831927,164.827474 96.9365781,165.576172 94.6904844,165.576172 C92.4443906,165.576172 90.5726458,164.827474 89.07525,163.330078 C87.4281146,161.682943 86.6045469,159.736328 86.6045469,157.490234 C86.6045469,157.190755 86.6045469,156.666667 86.6045469,155.917969 C82.8610573,158.91276 78.668349,161.233724 74.0264219,162.880859 C69.2347552,164.677734 64.0687396,165.576172 58.528375,165.576172 C53.13775,165.576172 48.6455625,164.827474 45.0518125,163.330078 C41.4580625,161.832682 38.5381406,159.886068 36.2920469,157.490234 C32.0993385,152.998047 29.7035052,147.832031 29.1045469,141.992188 C28.355849,136.152344 27.9815,131.510417 27.9815,128.066406 C27.9815,119.231771 27.9815,105.904948 27.9815,88.0859375 C27.9815,85.8398437 28.8050677,83.8932292 30.4522031,82.2460937 C31.949599,80.7486979 33.8213438,80 36.0674375,80 C38.3135313,80 40.2601458,80.7486979 41.9072813,82.2460937 C43.4046771,83.8932292 44.153375,85.8398437 44.153375,88.0859375 C44.153375,96.9205729 44.153375,110.247396 44.153375,128.066406 C44.153375,136.451823 45.1266823,142.067057 47.0732969,144.912109 C49.169651,147.906901 52.9880104,149.404297 58.528375,149.404297 C65.1169167,149.404297 71.480849,147.008464 77.6201719,142.216797 C83.6097552,137.42513 86.6045469,131.210938 86.6045469,123.574219 C86.6045469,119.980469 86.6045469,114.664714 86.6045469,107.626953 C86.6045469,103.284505 86.6045469,96.7708333 86.6045469,88.0859375 C86.6045469,85.8398437 87.4281146,83.8932292 89.07525,82.2460937 C90.5726458,80.7486979 92.4443906,80 94.6904844,80 Z M76.8779844,98.1933594 C77.027724,98.1933594 77.1774635,98.1933594 77.3272031,98.1933594 C77.6266823,98.1933594 77.8512917,98.1933594 78.0010313,98.1933594 C78.1507708,98.1933594 78.3753802,98.1933594 78.6748594,98.1933594 C78.824599,98.1933594 78.9743385,98.1933594 79.1240781,98.1933594 C79.1240781,101.038411 79.1240781,105.455729 79.1240781,111.445312 C78.6748594,111.445312 77.9261615,111.445312 76.8779844,111.445312 C76.8779844,109.199219 76.8779844,106.953125 76.8779844,104.707031 C76.8779844,102.460937 76.8779844,100.289714 76.8779844,98.1933594 Z M81.3701719,111.445312 C80.621474,114.290365 79.4984271,118.483073 78.0010313,124.023437 C77.2523333,121.178385 76.1292865,116.985677 74.6318906,111.445312 L81.3701719,111.445312 Z M77.8315,90.265 C80.1787102,90.265 82.0815,92.1677898 82.0815,94.515 C82.0815,96.8622102 80.1787102,98.765 77.8315,98.765 C75.4842898,98.765 73.5815,96.8622102 73.5815,94.515 C73.5815,92.1677898 75.4842898,90.265 77.8315,90.265 Z M77.8315,91.265 C76.0365746,91.265 74.5815,92.7200746 74.5815,94.515 C74.5815,96.3099254 76.0365746,97.765 77.8315,97.765 C79.6264254,97.765 81.0815,96.3099254 81.0815,94.515 C81.0815,92.7200746 79.6264254,91.265 77.8315,91.265 Z M20.5010313,128.515625 C20.5010313,141.09375 22.747125,151.126302 27.2393125,158.613281 C31.7315,166.10026 38.4697813,170.966797 47.4541563,173.212891 C47.4541563,173.662109 47.3792865,174.410807 47.2295469,175.458984 C43.0368385,174.410807 39.3682188,172.913411 36.2236875,170.966797 C33.2288958,168.870443 30.6084531,166.549479 28.3623594,164.003906 C24.3193906,159.0625 21.6240781,153.372396 20.2764219,146.933594 C18.9287656,140.644531 18.2549375,134.505208 18.2549375,128.515625 C18.2549375,121.777344 18.2549375,111.669922 18.2549375,98.1933594 C18.4046771,98.1933594 18.5544167,98.1933594 18.7041563,98.1933594 C19.0036354,98.1933594 19.2282448,98.1933594 19.3779844,98.1933594 C19.527724,98.1933594 19.6774635,98.1933594 19.8272031,98.1933594 C20.1266823,98.1933594 20.3512917,98.1933594 20.5010313,98.1933594 C20.5010313,103.134766 20.5010313,108.151042 20.5010313,113.242187 C20.5010313,118.333333 20.5010313,123.424479 20.5010313,128.515625 Z M47.6787656,171.191406 C50.3740781,172.239583 54.4170469,173.811849 59.8076719,175.908203 C56.9626198,176.357422 52.6950417,177.03125 47.0049375,177.929687 C47.0049375,177.330729 47.529026,172.089844 47.6787656,171.191406 Z M64.265,93.235 C64.967,93.235 65.642,93.37 66.263,93.64 C66.884,93.91 67.424,94.261 67.883,94.693 C68.315,95.152 68.666,95.665 68.936,96.205 C69.179,96.772 69.314,97.339 69.314,97.906 C69.314,99.013 69.125,100.039 68.747,101.011 C68.342,102.01 67.748,102.874 66.992,103.63 C66.371,104.224 65.777,104.791 65.183,105.385 L63.374,107.14 L62.267,108.193 C61.862,108.571 61.349,109.03 60.728,109.543 C61.619,109.435 62.375,109.381 62.969,109.327 C63.563,109.3 64.13,109.273 64.67,109.219 C65.237,109.192 65.831,109.165 66.479,109.165 C67.1,109.165 67.694,109.111 68.288,109.057 L68.666,109.003 L69.044,108.922 C69.26,108.868 69.503,108.841 69.746,108.841 C70.07,108.841 70.34,109.003 70.583,109.327 C70.826,109.651 70.961,109.975 70.961,110.353 C70.961,110.596 70.853,110.785 70.691,110.893 C70.529,111.055 70.367,111.109 70.205,111.109 C69.611,111.109 69.044,111.082 68.477,110.974 C67.883,110.893 67.289,110.839 66.722,110.839 C65.696,110.839 64.643,110.893 63.563,111.001 C62.456,111.109 61.403,111.217 60.377,111.352 C60.242,111.379 60.107,111.406 59.999,111.433 C59.864,111.46 59.729,111.487 59.594,111.514 C59.324,111.568 59.081,111.595 58.865,111.595 C58.514,111.595 58.217,111.514 57.947,111.298 C57.65,111.109 57.515,110.812 57.515,110.434 C57.515,110.191 57.569,109.975 57.677,109.759 C57.785,109.597 57.947,109.408 58.136,109.219 C58.352,109.003 58.541,108.787 58.757,108.571 C58.973,108.355 59.189,108.166 59.459,107.95 C60.377,107.221 61.268,106.465 62.105,105.655 L64.67,103.252 C64.994,102.928 65.345,102.577 65.669,102.199 C65.966,101.848 66.236,101.47 66.479,101.038 C66.722,100.633 66.911,100.201 67.073,99.715 C67.235,99.256 67.316,98.77 67.316,98.23 C67.316,97.798 67.235,97.393 67.073,96.988 C66.911,96.61 66.695,96.259 66.425,95.935 C66.128,95.638 65.804,95.395 65.426,95.206 C65.048,95.044 64.616,94.936 64.184,94.936 C63.374,94.936 62.726,95.125 62.267,95.476 C61.781,95.854 61.349,96.34 60.971,96.988 C60.863,97.15 60.809,97.285 60.755,97.447 C60.701,97.609 60.62,97.771 60.566,97.906 C60.485,98.068 60.404,98.23 60.323,98.365 C60.242,98.527 60.161,98.662 60.107,98.743 C59.945,98.905 59.81,99.04 59.702,99.121 C59.567,99.229 59.405,99.256 59.216,99.256 C58.946,99.256 58.703,99.148 58.46,98.905 C58.19,98.689 58.082,98.446 58.082,98.122 C58.082,97.879 58.136,97.582 58.271,97.258 C58.379,96.934 58.541,96.61 58.73,96.286 C58.892,95.962 59.108,95.665 59.324,95.368 C59.54,95.098 59.729,94.855 59.945,94.693 C60.539,94.18 61.214,93.802 61.97,93.559 C62.726,93.343 63.482,93.235 64.265,93.235 Z M6.615,92.397 C6.993,92.397 7.29,92.505 7.533,92.667 C7.749,92.829 7.857,93.099 7.857,93.45 C7.857,93.639 7.83,93.801 7.83,93.963 L7.749,94.476 L7.641,94.989 C7.587,95.178 7.533,95.34 7.506,95.502 C7.02,97.365 6.723,99.255 6.561,101.145 C6.399,103.062 6.345,104.952 6.345,106.842 C6.345,107.112 6.345,107.436 6.399,107.787 C6.399,108.138 6.453,108.462 6.507,108.759 C6.534,109.083 6.561,109.38 6.615,109.623 C6.615,109.893 6.642,110.055 6.642,110.136 C6.642,110.298 6.507,110.433 6.291,110.541 C6.021,110.649 5.778,110.703 5.562,110.703 C5.13,110.703 4.806,110.595 4.563,110.325 C4.32,110.082 4.212,109.758 4.212,109.326 C4.212,108.57 4.239,107.679 4.293,106.653 C4.32,105.627 4.374,104.601 4.428,103.575 C4.455,103.035 4.509,102.414 4.563,101.766 L4.779,99.849 C4.86,99.201 4.941,98.607 5.049,98.013 C5.103,97.419 5.184,96.906 5.265,96.474 C4.887,96.879 4.59,97.23 4.32,97.527 C4.05,97.824 3.834,98.04 3.699,98.175 L3.159,98.769 C2.943,99.012 2.781,99.201 2.646,99.363 C2.43,99.579 2.241,99.741 2.052,99.849 C1.836,99.957 1.62,100.011 1.377,100.011 C1.053,100.011 0.729,99.93 0.459,99.714 C0.135,99.525 0,99.282 0,98.958 C0,98.877 0.027,98.796 0.135,98.688 C0.216,98.607 0.324,98.526 0.459,98.418 L0.702,98.256 C0.756,98.202 0.837,98.175 0.918,98.121 L1.134,98.013 C1.188,97.959 1.269,97.905 1.323,97.851 C1.89,97.311 2.484,96.717 3.105,96.042 C3.699,95.394 4.239,94.746 4.752,94.152 C4.914,93.963 5.103,93.747 5.265,93.531 C5.4,93.315 5.562,93.126 5.778,92.91 C5.859,92.829 5.994,92.721 6.156,92.586 C6.318,92.478 6.453,92.397 6.615,92.397 Z M19.4315,90.265 C21.7787102,90.265 23.6815,92.1677898 23.6815,94.515 C23.6815,96.8622102 21.7787102,98.765 19.4315,98.765 C17.0842898,98.765 15.1815,96.8622102 15.1815,94.515 C15.1815,92.1677898 17.0842898,90.265 19.4315,90.265 Z M19.4315,91.265 C17.6365746,91.265 16.1815,92.7200746 16.1815,94.515 C16.1815,96.3099254 17.6365746,97.765 19.4315,97.765 C21.2264254,97.765 22.6815,96.3099254 22.6815,94.515 C22.6815,92.7200746 21.2264254,91.265 19.4315,91.265 Z M109.583,36.25 C109.583,34.792 108.989,33.631 107.855,32.74 C107.261,32.335 106.64,32.065 105.965,31.957 C105.263,31.876 104.588,31.822 103.886,31.822 C103.238,31.822 102.563,31.903 101.915,32.011 C101.267,32.173 100.565,32.362 99.809,32.578 C99.89,31.552 99.971,30.607 100.079,29.743 L100.295,27.016 C101.267,26.935 102.185,26.827 103.049,26.719 L105.614,26.314 C105.776,26.287 105.965,26.26 106.181,26.233 C106.37,26.233 106.559,26.233 106.775,26.179 L107.342,26.071 C107.504,26.071 107.693,26.017 107.855,25.936 C107.963,25.882 108.044,25.828 108.098,25.774 C108.125,25.72 108.152,25.612 108.152,25.45 C108.152,25.342 108.071,25.207 107.936,25.045 C107.774,24.91 107.612,24.775 107.423,24.667 C107.207,24.559 106.991,24.451 106.775,24.343 C106.559,24.289 106.37,24.235 106.262,24.235 C106.154,24.235 106.073,24.262 105.965,24.289 C105.857,24.343 105.776,24.37 105.668,24.397 L105.317,24.505 C105.182,24.559 105.074,24.586 104.993,24.613 C104.291,24.802 103.535,24.937 102.725,25.045 C101.888,25.153 101.078,25.18 100.295,25.18 C100.106,25.018 99.944,24.883 99.809,24.829 C99.647,24.775 99.458,24.721 99.296,24.721 C99.134,24.721 98.999,24.748 98.837,24.802 C98.648,24.856 98.513,24.91 98.405,24.964 C98.243,25.288 98.135,25.774 98.081,26.422 C98,27.097 97.946,27.826 97.919,28.582 C97.865,29.392 97.811,30.175 97.811,30.931 C97.757,31.687 97.73,32.281 97.703,32.686 L97.649,33.037 L97.595,33.415 C97.541,33.685 97.514,33.928 97.514,34.171 C97.514,34.252 97.541,34.333 97.622,34.441 C97.676,34.549 97.784,34.63 97.892,34.711 C98,34.792 98.108,34.846 98.216,34.9 C98.324,34.954 98.405,34.981 98.513,34.981 C98.702,34.981 98.891,34.954 99.053,34.9 C99.188,34.846 99.35,34.792 99.539,34.684 C99.701,34.603 99.89,34.495 100.079,34.387 C100.241,34.306 100.43,34.225 100.646,34.144 C101.186,33.982 101.699,33.847 102.212,33.793 C102.698,33.739 103.238,33.685 103.832,33.685 C104.264,33.685 104.696,33.739 105.128,33.847 C105.533,33.955 105.911,34.117 106.235,34.333 C106.559,34.549 106.802,34.846 107.018,35.224 C107.207,35.602 107.315,36.061 107.315,36.601 C107.315,37.384 107.153,38.059 106.883,38.653 C106.559,39.247 106.181,39.733 105.695,40.111 C105.209,40.516 104.642,40.813 104.021,41.029 C103.373,41.245 102.725,41.326 102.077,41.326 C101.429,41.326 100.835,41.245 100.349,41.083 C99.809,40.921 99.377,40.732 98.999,40.516 C98.783,40.435 98.621,40.327 98.459,40.219 C98.297,40.138 98.162,40.057 98.027,39.976 C97.865,39.922 97.73,39.841 97.622,39.787 C97.487,39.76 97.379,39.733 97.298,39.733 C97.028,39.733 96.839,39.841 96.677,40.003 C96.488,40.219 96.407,40.462 96.407,40.759 C96.407,41.083 96.515,41.353 96.731,41.569 C96.947,41.812 97.19,42.001 97.487,42.109 C97.703,42.217 98.027,42.325 98.459,42.433 C98.837,42.568 99.269,42.676 99.701,42.757 C100.133,42.838 100.565,42.919 100.997,42.973 C101.402,43.027 101.753,43.081 102.023,43.081 C103.049,43.081 104.021,42.946 104.939,42.676 C105.857,42.406 106.667,42.001 107.369,41.407 C108.044,40.867 108.584,40.165 108.989,39.301 C109.367,38.437 109.583,37.438 109.583,36.25 Z M54.512,29.262 C55.856,29.262 58.32,30.606 61.904,33.07 C65.264,35.758 68.848,38.67 72.432,41.806 C76.016,45.39 79.152,48.75 81.84,51.886 C84.528,55.246 85.872,57.71 85.872,59.278 C85.872,61.518 84.304,62.414 81.616,62.414 C79.824,62.414 77.584,61.742 74.448,60.174 C71.312,58.606 68.176,56.59 64.816,54.35 C61.232,52.11 58.096,49.87 55.184,47.63 C52.048,45.39 49.808,43.374 48.464,41.806 C46.672,40.238 46,38.67 46,37.102 C46,34.862 46.672,33.07 48.464,31.502 C50.256,30.158 52.272,29.262 54.512,29.262 Z M64.7315,18.5 C67.0787102,18.5 68.9815,20.4027898 68.9815,22.75 C68.9815,23.3281249 68.8660669,23.8792889 68.6569918,24.3817012 L81.616,34.17 L83.4308309,32.078818 L91.7938401,42.320067 L78.4815,37.7836473 L80.302,35.684 L67.475834,25.9952885 C66.7353905,26.6220647 65.777581,27 64.7315,27 C62.3842898,27 60.4815,25.0972102 60.4815,22.75 C60.4815,20.4027898 62.3842898,18.5 64.7315,18.5 Z M64.7315,19.5 C62.9365746,19.5 61.4815,20.9550746 61.4815,22.75 C61.4815,24.5449254 62.9365746,26 64.7315,26 C66.5264254,26 67.9815,24.5449254 67.9815,22.75 C67.9815,20.9550746 66.5264254,19.5 64.7315,19.5 Z" transform="translate(-13.981)"/></svg>