<svg xmlns="http://www.w3.org/2000/svg" width="103" height="203" viewBox="0 0 103 203"><path fill="#131313" d="M3916.70898,87.765 C3918.95508,87.765 3920.90169,88.5136979 3922.54883,90.0110937 C3924.19596,91.6582292 3925.01953,93.6048437 3925.01953,95.8509375 C3925.01953,100.193385 3925.01953,106.707057 3925.01953,115.391953 C3925.01953,118.985703 3925.01953,124.301458 3925.01953,131.339219 C3925.01953,138.826198 3925.01953,150.131536 3925.01953,165.255234 C3925.01953,167.501328 3924.19596,169.447943 3922.54883,171.095078 C3920.90169,172.592474 3918.95508,173.341172 3916.70898,173.341172 C3914.46289,173.341172 3912.59115,172.592474 3911.09375,171.095078 C3909.44661,169.447943 3908.62305,167.501328 3908.62305,165.255234 C3908.62305,164.955755 3908.62305,164.431667 3908.62305,163.682969 C3904.87956,166.67776 3900.68685,168.998724 3896.04492,170.645859 C3891.25326,172.442734 3886.08724,173.341172 3880.54688,173.341172 C3875.15625,173.341172 3870.66406,172.592474 3867.07031,171.095078 C3863.47656,169.597682 3860.55664,167.651068 3858.31055,165.255234 C3854.11784,160.763047 3851.72201,155.597031 3851.12305,149.757188 C3850.37435,143.917344 3850,139.275417 3850,135.831406 C3850,126.996771 3850,113.669948 3850,95.8509375 C3850,93.6048437 3850.82357,91.6582292 3852.4707,90.0110937 C3853.9681,88.5136979 3855.83984,87.765 3858.08594,87.765 C3860.33203,87.765 3862.27865,88.5136979 3863.92578,90.0110937 C3865.42318,91.6582292 3866.17188,93.6048437 3866.17188,95.8509375 C3866.17188,104.685573 3866.17188,118.012396 3866.17188,135.831406 C3866.17188,144.216823 3867.14518,149.832057 3869.0918,152.677109 C3871.18815,155.671901 3875.00651,157.169297 3880.54688,157.169297 C3887.13542,157.169297 3893.49935,154.773464 3899.63867,149.981797 C3905.62826,145.19013 3908.62305,138.975938 3908.62305,131.339219 C3908.62305,127.745469 3908.62305,122.429714 3908.62305,115.391953 C3908.62305,111.049505 3908.62305,104.535833 3908.62305,95.8509375 C3908.62305,93.6048437 3909.44661,91.6582292 3911.09375,90.0110937 C3912.59115,88.5136979 3914.46289,87.765 3916.70898,87.765 Z M3898.89648,105.958359 C3899.04622,105.958359 3899.19596,105.958359 3899.3457,105.958359 C3899.64518,105.958359 3899.86979,105.958359 3900.01953,105.958359 C3900.16927,105.958359 3900.39388,105.958359 3900.69336,105.958359 C3900.8431,105.958359 3900.99284,105.958359 3901.14258,105.958359 C3901.14258,108.803411 3901.14258,113.220729 3901.14258,119.210312 C3900.69336,119.210312 3899.94466,119.210312 3898.89648,119.210312 C3898.89648,116.964219 3898.89648,114.718125 3898.89648,112.472031 C3898.89648,110.225937 3898.89648,108.054714 3898.89648,105.958359 Z M3903.38867,119.210312 C3902.63997,122.055365 3901.51693,126.248073 3900.01953,131.788437 C3899.27083,128.943385 3898.14779,124.750677 3896.65039,119.210312 L3903.38867,119.210312 Z M3899.85,98.03 C3902.19721,98.03 3904.1,99.9327898 3904.1,102.28 C3904.1,104.62721 3902.19721,106.53 3899.85,106.53 C3897.50279,106.53 3895.6,104.62721 3895.6,102.28 C3895.6,99.9327898 3897.50279,98.03 3899.85,98.03 Z M3899.85,99.03 C3898.05507,99.03 3896.6,100.485075 3896.6,102.28 C3896.6,104.074925 3898.05507,105.53 3899.85,105.53 C3901.64493,105.53 3903.1,104.074925 3903.1,102.28 C3903.1,100.485075 3901.64493,99.03 3899.85,99.03 Z M3842.51953,136.280625 C3842.51953,148.85875 3844.76562,158.891302 3849.25781,166.378281 C3853.75,173.86526 3860.48828,178.731797 3869.47266,180.977891 C3869.47266,181.427109 3869.39779,182.175807 3869.24805,183.223984 C3865.05534,182.175807 3861.38672,180.678411 3858.24219,178.731797 C3855.2474,176.635443 3852.62695,174.314479 3850.38086,171.768906 C3846.33789,166.8275 3843.64258,161.137396 3842.29492,154.698594 C3840.94727,148.409531 3840.27344,142.270208 3840.27344,136.280625 C3840.27344,129.542344 3840.27344,119.434922 3840.27344,105.958359 C3840.42318,105.958359 3840.57292,105.958359 3840.72266,105.958359 C3841.02214,105.958359 3841.24674,105.958359 3841.39648,105.958359 C3841.54622,105.958359 3841.69596,105.958359 3841.8457,105.958359 C3842.14518,105.958359 3842.36979,105.958359 3842.51953,105.958359 C3842.51953,110.899766 3842.51953,115.916042 3842.51953,121.007187 C3842.51953,126.098333 3842.51953,131.189479 3842.51953,136.280625 Z M3869.69727,178.956406 C3872.39258,180.004583 3876.43555,181.576849 3881.82617,183.673203 C3878.98112,184.122422 3874.71354,184.79625 3869.02344,185.694687 C3869.02344,185.095729 3869.54753,179.854844 3869.69727,178.956406 Z M3886.2835,101 C3886.9855,101 3887.6605,101.135 3888.2815,101.405 C3888.9025,101.675 3889.4425,102.026 3889.9015,102.458 C3890.3335,102.917 3890.6845,103.43 3890.9545,103.97 C3891.1975,104.537 3891.3325,105.104 3891.3325,105.671 C3891.3325,106.778 3891.1435,107.804 3890.7655,108.776 C3890.3605,109.775 3889.7665,110.639 3889.0105,111.395 C3888.3895,111.989 3887.7955,112.556 3887.2015,113.15 L3885.3925,114.905 L3884.2855,115.958 C3883.8805,116.336 3883.3675,116.795 3882.7465,117.308 C3883.6375,117.2 3884.3935,117.146 3884.9875,117.092 C3885.5815,117.065 3886.1485,117.038 3886.6885,116.984 C3887.2555,116.957 3887.8495,116.93 3888.4975,116.93 C3889.1185,116.93 3889.7125,116.876 3890.3065,116.822 L3890.6845,116.768 L3891.0625,116.687 C3891.2785,116.633 3891.5215,116.606 3891.7645,116.606 C3892.0885,116.606 3892.3585,116.768 3892.6015,117.092 C3892.8445,117.416 3892.9795,117.74 3892.9795,118.118 C3892.9795,118.361 3892.8715,118.55 3892.7095,118.658 C3892.5475,118.82 3892.3855,118.874 3892.2235,118.874 C3891.6295,118.874 3891.0625,118.847 3890.4955,118.739 C3889.9015,118.658 3889.3075,118.604 3888.7405,118.604 C3887.7145,118.604 3886.6615,118.658 3885.5815,118.766 C3884.4745,118.874 3883.4215,118.982 3882.3955,119.117 C3882.2605,119.144 3882.1255,119.171 3882.0175,119.198 C3881.8825,119.225 3881.7475,119.252 3881.6125,119.279 C3881.3425,119.333 3881.0995,119.36 3880.8835,119.36 C3880.5325,119.36 3880.2355,119.279 3879.9655,119.063 C3879.6685,118.874 3879.5335,118.577 3879.5335,118.199 C3879.5335,117.956 3879.5875,117.74 3879.6955,117.524 C3879.8035,117.362 3879.9655,117.173 3880.1545,116.984 C3880.3705,116.768 3880.5595,116.552 3880.7755,116.336 C3880.9915,116.12 3881.2075,115.931 3881.4775,115.715 C3882.3955,114.986 3883.2865,114.23 3884.1235,113.42 L3886.6885,111.017 C3887.0125,110.693 3887.3635,110.342 3887.6875,109.964 C3887.9845,109.613 3888.2545,109.235 3888.4975,108.803 C3888.7405,108.398 3888.9295,107.966 3889.0915,107.48 C3889.2535,107.021 3889.3345,106.535 3889.3345,105.995 C3889.3345,105.563 3889.2535,105.158 3889.0915,104.753 C3888.9295,104.375 3888.7135,104.024 3888.4435,103.7 C3888.1465,103.403 3887.8225,103.16 3887.4445,102.971 C3887.0665,102.809 3886.6345,102.701 3886.2025,102.701 C3885.3925,102.701 3884.7445,102.89 3884.2855,103.241 C3883.7995,103.619 3883.3675,104.105 3882.9895,104.753 C3882.8815,104.915 3882.8275,105.05 3882.7735,105.212 C3882.7195,105.374 3882.6385,105.536 3882.5845,105.671 C3882.5035,105.833 3882.4225,105.995 3882.3415,106.13 C3882.2605,106.292 3882.1795,106.427 3882.1255,106.508 C3881.9635,106.67 3881.8285,106.805 3881.7205,106.886 C3881.5855,106.994 3881.4235,107.021 3881.2345,107.021 C3880.9645,107.021 3880.7215,106.913 3880.4785,106.67 C3880.2085,106.454 3880.1005,106.211 3880.1005,105.887 C3880.1005,105.644 3880.1545,105.347 3880.2895,105.023 C3880.3975,104.699 3880.5595,104.375 3880.7485,104.051 C3880.9105,103.727 3881.1265,103.43 3881.3425,103.133 C3881.5585,102.863 3881.7475,102.62 3881.9635,102.458 C3882.5575,101.945 3883.2325,101.567 3883.9885,101.324 C3884.7445,101.108 3885.5005,101 3886.2835,101 Z M3828.6335,100.162 C3829.0115,100.162 3829.3085,100.27 3829.5515,100.432 C3829.7675,100.594 3829.8755,100.864 3829.8755,101.215 C3829.8755,101.404 3829.8485,101.566 3829.8485,101.728 L3829.7675,102.241 L3829.6595,102.754 C3829.6055,102.943 3829.5515,103.105 3829.5245,103.267 C3829.0385,105.13 3828.7415,107.02 3828.5795,108.91 C3828.4175,110.827 3828.3635,112.717 3828.3635,114.607 C3828.3635,114.877 3828.3635,115.201 3828.4175,115.552 C3828.4175,115.903 3828.4715,116.227 3828.5255,116.524 C3828.5525,116.848 3828.5795,117.145 3828.6335,117.388 C3828.6335,117.658 3828.6605,117.82 3828.6605,117.901 C3828.6605,118.063 3828.5255,118.198 3828.3095,118.306 C3828.0395,118.414 3827.7965,118.468 3827.5805,118.468 C3827.1485,118.468 3826.8245,118.36 3826.5815,118.09 C3826.3385,117.847 3826.2305,117.523 3826.2305,117.091 C3826.2305,116.335 3826.2575,115.444 3826.3115,114.418 C3826.3385,113.392 3826.3925,112.366 3826.4465,111.34 C3826.4735,110.8 3826.5275,110.179 3826.5815,109.531 L3826.7975,107.614 C3826.8785,106.966 3826.9595,106.372 3827.0675,105.778 C3827.1215,105.184 3827.2025,104.671 3827.2835,104.239 C3826.9055,104.644 3826.6085,104.995 3826.3385,105.292 C3826.0685,105.589 3825.8525,105.805 3825.7175,105.94 L3825.1775,106.534 C3824.9615,106.777 3824.7995,106.966 3824.6645,107.128 C3824.4485,107.344 3824.2595,107.506 3824.0705,107.614 C3823.8545,107.722 3823.6385,107.776 3823.3955,107.776 C3823.0715,107.776 3822.7475,107.695 3822.4775,107.479 C3822.1535,107.29 3822.0185,107.047 3822.0185,106.723 C3822.0185,106.642 3822.0455,106.561 3822.1535,106.453 C3822.2345,106.372 3822.3425,106.291 3822.4775,106.183 L3822.7205,106.021 C3822.7745,105.967 3822.8555,105.94 3822.9365,105.886 L3823.1525,105.778 C3823.2065,105.724 3823.2875,105.67 3823.3415,105.616 C3823.9085,105.076 3824.5025,104.482 3825.1235,103.807 C3825.7175,103.159 3826.2575,102.511 3826.7705,101.917 C3826.9325,101.728 3827.1215,101.512 3827.2835,101.296 C3827.4185,101.08 3827.5805,100.891 3827.7965,100.675 C3827.8775,100.594 3828.0125,100.486 3828.1745,100.351 C3828.3365,100.243 3828.4715,100.162 3828.6335,100.162 Z M3841.45,98.03 C3843.79721,98.03 3845.7,99.9327898 3845.7,102.28 C3845.7,104.62721 3843.79721,106.53 3841.45,106.53 C3839.10279,106.53 3837.2,104.62721 3837.2,102.28 C3837.2,99.9327898 3839.10279,98.03 3841.45,98.03 Z M3841.45,99.03 C3839.65507,99.03 3838.2,100.485075 3838.2,102.28 C3838.2,104.074925 3839.65507,105.53 3841.45,105.53 C3843.24493,105.53 3844.7,104.074925 3844.7,102.28 C3844.7,100.485075 3843.24493,99.03 3841.45,99.03 Z M3899.46,40.858 C3901.7,40.858 3903.716,41.754 3905.508,43.098 C3907.076,44.666 3907.972,46.458 3907.972,48.698 C3907.972,50.266 3907.076,51.834 3905.508,53.402 C3904.164,54.97 3901.924,56.762 3898.788,59.002 C3895.652,61.466 3892.516,63.706 3889.156,65.946 C3885.572,68.186 3882.436,70.202 3879.3,71.546 C3876.164,73.338 3873.7,74.01 3872.356,74.01 C3869.444,74.01 3868.1,73.114 3868.1,70.874 C3868.1,69.306 3869.444,66.842 3872.132,63.482 C3874.82,60.346 3877.956,56.986 3881.54,53.626 C3885.124,50.266 3888.484,47.354 3892.068,44.666 C3895.428,42.202 3897.892,40.858 3899.46,40.858 Z M3886.67425,33.2612362 L3880.1362,43.6474964 L3879.0605,42.552 L3864.48373,57.2481103 C3864.81293,57.8517416 3865,58.5440241 3865,59.28 C3865,61.6272102 3863.09721,63.53 3860.75,63.53 C3858.40279,63.53 3856.5,61.6272102 3856.5,59.28 C3856.5,56.9327898 3858.40279,55.03 3860.75,55.03 C3861.56387,55.03 3862.32431,55.2587697 3862.97052,55.6555125 L3877.5215,40.986 L3876.40575,39.8497489 L3886.67425,33.2612362 Z M3860.75,56.03 C3858.95507,56.03 3857.5,57.4850746 3857.5,59.28 C3857.5,61.0749254 3858.95507,62.53 3860.75,62.53 C3862.54493,62.53 3864,61.0749254 3864,59.28 C3864,58.5752928 3863.77571,57.9229714 3863.39462,57.3905271 L3862.93281,56.8720989 C3862.35593,56.3488279 3861.5902,56.03 3860.75,56.03 Z M3855.6015,43.339 C3855.6015,41.881 3855.0075,40.72 3853.8735,39.829 C3853.2795,39.424 3852.6585,39.154 3851.9835,39.046 C3851.2815,38.965 3850.6065,38.911 3849.9045,38.911 C3849.2565,38.911 3848.5815,38.992 3847.9335,39.1 C3847.2855,39.262 3846.5835,39.451 3845.8275,39.667 C3845.9085,38.641 3845.9895,37.696 3846.0975,36.832 L3846.3135,34.105 C3847.2855,34.024 3848.2035,33.916 3849.0675,33.808 L3851.6325,33.403 C3851.7945,33.376 3851.9835,33.349 3852.1995,33.322 C3852.3885,33.322 3852.5775,33.322 3852.7935,33.268 L3853.3605,33.16 C3853.5225,33.16 3853.7115,33.106 3853.8735,33.025 C3853.9815,32.971 3854.0625,32.917 3854.1165,32.863 C3854.1435,32.809 3854.1705,32.701 3854.1705,32.539 C3854.1705,32.431 3854.0895,32.296 3853.9545,32.134 C3853.7925,31.999 3853.6305,31.864 3853.4415,31.756 C3853.2255,31.648 3853.0095,31.54 3852.7935,31.432 C3852.5775,31.378 3852.3885,31.324 3852.2805,31.324 C3852.1725,31.324 3852.0915,31.351 3851.9835,31.378 C3851.8755,31.432 3851.7945,31.459 3851.6865,31.486 L3851.3355,31.594 C3851.2005,31.648 3851.0925,31.675 3851.0115,31.702 C3850.3095,31.891 3849.5535,32.026 3848.7435,32.134 C3847.9065,32.242 3847.0965,32.269 3846.3135,32.269 C3846.1245,32.107 3845.9625,31.972 3845.8275,31.918 C3845.6655,31.864 3845.4765,31.81 3845.3145,31.81 C3845.1525,31.81 3845.0175,31.837 3844.8555,31.891 C3844.6665,31.945 3844.5315,31.999 3844.4235,32.053 C3844.2615,32.377 3844.1535,32.863 3844.0995,33.511 C3844.0185,34.186 3843.9645,34.915 3843.9375,35.671 C3843.8835,36.481 3843.8295,37.264 3843.8295,38.02 C3843.7755,38.776 3843.7485,39.37 3843.7215,39.775 L3843.6675,40.126 L3843.6135,40.504 C3843.5595,40.774 3843.5325,41.017 3843.5325,41.26 C3843.5325,41.341 3843.5595,41.422 3843.6405,41.53 C3843.6945,41.638 3843.8025,41.719 3843.9105,41.8 C3844.0185,41.881 3844.1265,41.935 3844.2345,41.989 C3844.3425,42.043 3844.4235,42.07 3844.5315,42.07 C3844.7205,42.07 3844.9095,42.043 3845.0715,41.989 C3845.2065,41.935 3845.3685,41.881 3845.5575,41.773 C3845.7195,41.692 3845.9085,41.584 3846.0975,41.476 C3846.2595,41.395 3846.4485,41.314 3846.6645,41.233 C3847.2045,41.071 3847.7175,40.936 3848.2305,40.882 C3848.7165,40.828 3849.2565,40.774 3849.8505,40.774 C3850.2825,40.774 3850.7145,40.828 3851.1465,40.936 C3851.5515,41.044 3851.9295,41.206 3852.2535,41.422 C3852.5775,41.638 3852.8205,41.935 3853.0365,42.313 C3853.2255,42.691 3853.3335,43.15 3853.3335,43.69 C3853.3335,44.473 3853.1715,45.148 3852.9015,45.742 C3852.5775,46.336 3852.1995,46.822 3851.7135,47.2 C3851.2275,47.605 3850.6605,47.902 3850.0395,48.118 C3849.3915,48.334 3848.7435,48.415 3848.0955,48.415 C3847.4475,48.415 3846.8535,48.334 3846.3675,48.172 C3845.8275,48.01 3845.3955,47.821 3845.0175,47.605 C3844.8015,47.524 3844.6395,47.416 3844.4775,47.308 C3844.3155,47.227 3844.1805,47.146 3844.0455,47.065 C3843.8835,47.011 3843.7485,46.93 3843.6405,46.876 C3843.5055,46.849 3843.3975,46.822 3843.3165,46.822 C3843.0465,46.822 3842.8575,46.93 3842.6955,47.092 C3842.5065,47.308 3842.4255,47.551 3842.4255,47.848 C3842.4255,48.172 3842.5335,48.442 3842.7495,48.658 C3842.9655,48.901 3843.2085,49.09 3843.5055,49.198 C3843.7215,49.306 3844.0455,49.414 3844.4775,49.522 C3844.8555,49.657 3845.2875,49.765 3845.7195,49.846 C3846.1515,49.927 3846.5835,50.008 3847.0155,50.062 C3847.4205,50.116 3847.7715,50.17 3848.0415,50.17 C3849.0675,50.17 3850.0395,50.035 3850.9575,49.765 C3851.8755,49.495 3852.6855,49.09 3853.3875,48.496 C3854.0625,47.956 3854.6025,47.254 3855.0075,46.39 C3855.3855,45.526 3855.6015,44.527 3855.6015,43.339 Z" transform="translate(-3836 -31.765)"/></svg>