<svg xmlns="http://www.w3.org/2000/svg" width="103" height="203" viewBox="0 0 103 203"><path fill="#131313" d="M3916.70898,117 C3918.95508,117 3920.90169,117.748698 3922.54883,119.246094 C3924.19596,120.893229 3925.01953,122.839844 3925.01953,125.085938 C3925.01953,129.428385 3925.01953,135.942057 3925.01953,144.626953 C3925.01953,148.220703 3925.01953,153.536458 3925.01953,160.574219 C3925.01953,168.061198 3925.01953,179.366536 3925.01953,194.490234 C3925.01953,196.736328 3924.19596,198.682943 3922.54883,200.330078 C3920.90169,201.827474 3918.95508,202.576172 3916.70898,202.576172 C3914.46289,202.576172 3912.59115,201.827474 3911.09375,200.330078 C3909.44661,198.682943 3908.62305,196.736328 3908.62305,194.490234 C3908.62305,194.190755 3908.62305,193.666667 3908.62305,192.917969 C3904.87956,195.91276 3900.68685,198.233724 3896.04492,199.880859 C3891.25326,201.677734 3886.08724,202.576172 3880.54688,202.576172 C3875.15625,202.576172 3870.66406,201.827474 3867.07031,200.330078 C3863.47656,198.832682 3860.55664,196.886068 3858.31055,194.490234 C3854.11784,189.998047 3851.72201,184.832031 3851.12305,178.992188 C3850.37435,173.152344 3850,168.510417 3850,165.066406 C3850,156.231771 3850,142.904948 3850,125.085938 C3850,122.839844 3850.82357,120.893229 3852.4707,119.246094 C3853.9681,117.748698 3855.83984,117 3858.08594,117 C3860.33203,117 3862.27865,117.748698 3863.92578,119.246094 C3865.42318,120.893229 3866.17188,122.839844 3866.17188,125.085938 C3866.17188,133.920573 3866.17188,147.247396 3866.17188,165.066406 C3866.17188,173.451823 3867.14518,179.067057 3869.0918,181.912109 C3871.18815,184.906901 3875.00651,186.404297 3880.54688,186.404297 C3887.13542,186.404297 3893.49935,184.008464 3899.63867,179.216797 C3905.62826,174.42513 3908.62305,168.210938 3908.62305,160.574219 C3908.62305,156.980469 3908.62305,151.664714 3908.62305,144.626953 C3908.62305,140.284505 3908.62305,133.770833 3908.62305,125.085938 C3908.62305,122.839844 3909.44661,120.893229 3911.09375,119.246094 C3912.59115,117.748698 3914.46289,117 3916.70898,117 Z M3898.89648,135.193359 C3899.04622,135.193359 3899.19596,135.193359 3899.3457,135.193359 C3899.64518,135.193359 3899.86979,135.193359 3900.01953,135.193359 C3900.16927,135.193359 3900.39388,135.193359 3900.69336,135.193359 C3900.8431,135.193359 3900.99284,135.193359 3901.14258,135.193359 C3901.14258,138.038411 3901.14258,142.455729 3901.14258,148.445313 C3900.69336,148.445313 3899.94466,148.445313 3898.89648,148.445313 C3898.89648,146.199219 3898.89648,143.953125 3898.89648,141.707031 C3898.89648,139.460938 3898.89648,137.289714 3898.89648,135.193359 Z M3903.38867,148.445313 C3902.63997,151.290365 3901.51693,155.483073 3900.01953,161.023438 C3899.27083,158.178385 3898.14779,153.985677 3896.65039,148.445313 L3903.38867,148.445313 Z M3899.85,127.265 C3902.19721,127.265 3904.1,129.16779 3904.1,131.515 C3904.1,133.86221 3902.19721,135.765 3899.85,135.765 C3897.50279,135.765 3895.6,133.86221 3895.6,131.515 C3895.6,129.16779 3897.50279,127.265 3899.85,127.265 Z M3899.85,128.265 C3898.05507,128.265 3896.6,129.720075 3896.6,131.515 C3896.6,133.309925 3898.05507,134.765 3899.85,134.765 C3901.64493,134.765 3903.1,133.309925 3903.1,131.515 C3903.1,129.720075 3901.64493,128.265 3899.85,128.265 Z M3842.51953,165.515625 C3842.51953,178.09375 3844.76562,188.126302 3849.25781,195.613281 C3853.75,203.10026 3860.48828,207.966797 3869.47266,210.212891 C3869.47266,210.662109 3869.39779,211.410807 3869.24805,212.458984 C3865.05534,211.410807 3861.38672,209.913411 3858.24219,207.966797 C3855.2474,205.870443 3852.62695,203.549479 3850.38086,201.003906 C3846.33789,196.0625 3843.64258,190.372396 3842.29492,183.933594 C3840.94727,177.644531 3840.27344,171.505208 3840.27344,165.515625 C3840.27344,158.777344 3840.27344,148.669922 3840.27344,135.193359 C3840.42318,135.193359 3840.57292,135.193359 3840.72266,135.193359 C3841.02214,135.193359 3841.24674,135.193359 3841.39648,135.193359 C3841.54622,135.193359 3841.69596,135.193359 3841.8457,135.193359 C3842.14518,135.193359 3842.36979,135.193359 3842.51953,135.193359 C3842.51953,140.134766 3842.51953,145.151042 3842.51953,150.242188 C3842.51953,155.333333 3842.51953,160.424479 3842.51953,165.515625 Z M3869.69727,208.191406 C3872.39258,209.239583 3876.43555,210.811849 3881.82617,212.908203 C3878.98112,213.357422 3874.71354,214.03125 3869.02344,214.929688 C3869.02344,214.330729 3869.54753,209.089844 3869.69727,208.191406 Z M3886.2835,130.235 C3886.9855,130.235 3887.6605,130.37 3888.2815,130.64 C3888.9025,130.91 3889.4425,131.261 3889.9015,131.693 C3890.3335,132.152 3890.6845,132.665 3890.9545,133.205 C3891.1975,133.772 3891.3325,134.339 3891.3325,134.906 C3891.3325,136.013 3891.1435,137.039 3890.7655,138.011 C3890.3605,139.01 3889.7665,139.874 3889.0105,140.63 C3888.3895,141.224 3887.7955,141.791 3887.2015,142.385 L3885.3925,144.14 L3884.2855,145.193 C3883.8805,145.571 3883.3675,146.03 3882.7465,146.543 C3883.6375,146.435 3884.3935,146.381 3884.9875,146.327 C3885.5815,146.3 3886.1485,146.273 3886.6885,146.219 C3887.2555,146.192 3887.8495,146.165 3888.4975,146.165 C3889.1185,146.165 3889.7125,146.111 3890.3065,146.057 L3890.6845,146.003 L3891.0625,145.922 C3891.2785,145.868 3891.5215,145.841 3891.7645,145.841 C3892.0885,145.841 3892.3585,146.003 3892.6015,146.327 C3892.8445,146.651 3892.9795,146.975 3892.9795,147.353 C3892.9795,147.596 3892.8715,147.785 3892.7095,147.893 C3892.5475,148.055 3892.3855,148.109 3892.2235,148.109 C3891.6295,148.109 3891.0625,148.082 3890.4955,147.974 C3889.9015,147.893 3889.3075,147.839 3888.7405,147.839 C3887.7145,147.839 3886.6615,147.893 3885.5815,148.001 C3884.4745,148.109 3883.4215,148.217 3882.3955,148.352 C3882.2605,148.379 3882.1255,148.406 3882.0175,148.433 C3881.8825,148.46 3881.7475,148.487 3881.6125,148.514 C3881.3425,148.568 3881.0995,148.595 3880.8835,148.595 C3880.5325,148.595 3880.2355,148.514 3879.9655,148.298 C3879.6685,148.109 3879.5335,147.812 3879.5335,147.434 C3879.5335,147.191 3879.5875,146.975 3879.6955,146.759 C3879.8035,146.597 3879.9655,146.408 3880.1545,146.219 C3880.3705,146.003 3880.5595,145.787 3880.7755,145.571 C3880.9915,145.355 3881.2075,145.166 3881.4775,144.95 C3882.3955,144.221 3883.2865,143.465 3884.1235,142.655 L3886.6885,140.252 C3887.0125,139.928 3887.3635,139.577 3887.6875,139.199 C3887.9845,138.848 3888.2545,138.47 3888.4975,138.038 C3888.7405,137.633 3888.9295,137.201 3889.0915,136.715 C3889.2535,136.256 3889.3345,135.77 3889.3345,135.23 C3889.3345,134.798 3889.2535,134.393 3889.0915,133.988 C3888.9295,133.61 3888.7135,133.259 3888.4435,132.935 C3888.1465,132.638 3887.8225,132.395 3887.4445,132.206 C3887.0665,132.044 3886.6345,131.936 3886.2025,131.936 C3885.3925,131.936 3884.7445,132.125 3884.2855,132.476 C3883.7995,132.854 3883.3675,133.34 3882.9895,133.988 C3882.8815,134.15 3882.8275,134.285 3882.7735,134.447 C3882.7195,134.609 3882.6385,134.771 3882.5845,134.906 C3882.5035,135.068 3882.4225,135.23 3882.3415,135.365 C3882.2605,135.527 3882.1795,135.662 3882.1255,135.743 C3881.9635,135.905 3881.8285,136.04 3881.7205,136.121 C3881.5855,136.229 3881.4235,136.256 3881.2345,136.256 C3880.9645,136.256 3880.7215,136.148 3880.4785,135.905 C3880.2085,135.689 3880.1005,135.446 3880.1005,135.122 C3880.1005,134.879 3880.1545,134.582 3880.2895,134.258 C3880.3975,133.934 3880.5595,133.61 3880.7485,133.286 C3880.9105,132.962 3881.1265,132.665 3881.3425,132.368 C3881.5585,132.098 3881.7475,131.855 3881.9635,131.693 C3882.5575,131.18 3883.2325,130.802 3883.9885,130.559 C3884.7445,130.343 3885.5005,130.235 3886.2835,130.235 Z M3828.6335,129.397 C3829.0115,129.397 3829.3085,129.505 3829.5515,129.667 C3829.7675,129.829 3829.8755,130.099 3829.8755,130.45 C3829.8755,130.639 3829.8485,130.801 3829.8485,130.963 L3829.7675,131.476 L3829.6595,131.989 C3829.6055,132.178 3829.5515,132.34 3829.5245,132.502 C3829.0385,134.365 3828.7415,136.255 3828.5795,138.145 C3828.4175,140.062 3828.3635,141.952 3828.3635,143.842 C3828.3635,144.112 3828.3635,144.436 3828.4175,144.787 C3828.4175,145.138 3828.4715,145.462 3828.5255,145.759 C3828.5525,146.083 3828.5795,146.38 3828.6335,146.623 C3828.6335,146.893 3828.6605,147.055 3828.6605,147.136 C3828.6605,147.298 3828.5255,147.433 3828.3095,147.541 C3828.0395,147.649 3827.7965,147.703 3827.5805,147.703 C3827.1485,147.703 3826.8245,147.595 3826.5815,147.325 C3826.3385,147.082 3826.2305,146.758 3826.2305,146.326 C3826.2305,145.57 3826.2575,144.679 3826.3115,143.653 C3826.3385,142.627 3826.3925,141.601 3826.4465,140.575 C3826.4735,140.035 3826.5275,139.414 3826.5815,138.766 L3826.7975,136.849 C3826.8785,136.201 3826.9595,135.607 3827.0675,135.013 C3827.1215,134.419 3827.2025,133.906 3827.2835,133.474 C3826.9055,133.879 3826.6085,134.23 3826.3385,134.527 C3826.0685,134.824 3825.8525,135.04 3825.7175,135.175 L3825.1775,135.769 C3824.9615,136.012 3824.7995,136.201 3824.6645,136.363 C3824.4485,136.579 3824.2595,136.741 3824.0705,136.849 C3823.8545,136.957 3823.6385,137.011 3823.3955,137.011 C3823.0715,137.011 3822.7475,136.93 3822.4775,136.714 C3822.1535,136.525 3822.0185,136.282 3822.0185,135.958 C3822.0185,135.877 3822.0455,135.796 3822.1535,135.688 C3822.2345,135.607 3822.3425,135.526 3822.4775,135.418 L3822.7205,135.256 C3822.7745,135.202 3822.8555,135.175 3822.9365,135.121 L3823.1525,135.013 L3823.3415,134.851 C3823.9085,134.311 3824.5025,133.717 3825.1235,133.042 C3825.7175,132.394 3826.2575,131.746 3826.7705,131.152 C3826.9325,130.963 3827.1215,130.747 3827.2835,130.531 C3827.4185,130.315 3827.5805,130.126 3827.7965,129.91 C3827.8775,129.829 3828.0125,129.721 3828.1745,129.586 C3828.3365,129.478 3828.4715,129.397 3828.6335,129.397 Z M3841.45,127.265 C3843.79721,127.265 3845.7,129.16779 3845.7,131.515 C3845.7,133.86221 3843.79721,135.765 3841.45,135.765 C3839.10279,135.765 3837.2,133.86221 3837.2,131.515 C3837.2,129.16779 3839.10279,127.265 3841.45,127.265 Z M3841.45,128.265 C3839.65507,128.265 3838.2,129.720075 3838.2,131.515 C3838.2,133.309925 3839.65507,134.765 3841.45,134.765 C3843.24493,134.765 3844.7,133.309925 3844.7,131.515 C3844.7,129.720075 3843.24493,128.265 3841.45,128.265 Z M3899.46,70.093 C3901.7,70.093 3903.716,70.989 3905.508,72.333 C3907.076,73.901 3907.972,75.693 3907.972,77.933 C3907.972,79.501 3907.076,81.069 3905.508,82.637 C3904.164,84.205 3901.924,85.997 3898.788,88.237 C3895.652,90.701 3892.516,92.941 3889.156,95.181 C3885.572,97.421 3882.436,99.437 3879.3,100.781 C3876.164,102.573 3873.7,103.245 3872.356,103.245 C3869.444,103.245 3868.1,102.349 3868.1,100.109 C3868.1,98.541 3869.444,96.077 3872.132,92.717 C3874.82,89.581 3877.956,86.221 3881.54,82.861 C3885.124,79.501 3888.484,76.589 3892.068,73.901 C3895.428,71.437 3897.892,70.093 3899.46,70.093 Z M3886.67425,62.4962362 L3880.1362,72.8824964 L3879.0605,71.787 L3864.48373,86.4831103 C3864.81293,87.0867416 3865,87.7790241 3865,88.515 C3865,90.8622102 3863.09721,92.765 3860.75,92.765 C3858.40279,92.765 3856.5,90.8622102 3856.5,88.515 C3856.5,86.1677898 3858.40279,84.265 3860.75,84.265 C3861.56387,84.265 3862.32431,84.4937697 3862.97052,84.8905125 L3877.5215,70.221 L3876.40575,69.0847489 L3886.67425,62.4962362 Z M3860.75,85.265 C3858.95507,85.265 3857.5,86.7200746 3857.5,88.515 C3857.5,90.3099254 3858.95507,91.765 3860.75,91.765 C3862.54493,91.765 3864,90.3099254 3864,88.515 C3864,87.8102928 3863.77571,87.1579714 3863.39462,86.6255271 L3862.93281,86.1070989 C3862.35593,85.5838279 3861.5902,85.265 3860.75,85.265 Z M3855.6015,72.574 C3855.6015,71.116 3855.0075,69.955 3853.8735,69.064 C3853.2795,68.659 3852.6585,68.389 3851.9835,68.281 C3851.2815,68.2 3850.6065,68.146 3849.9045,68.146 C3849.2565,68.146 3848.5815,68.227 3847.9335,68.335 C3847.2855,68.497 3846.5835,68.686 3845.8275,68.902 C3845.9085,67.876 3845.9895,66.931 3846.0975,66.067 L3846.3135,63.34 C3847.2855,63.259 3848.2035,63.151 3849.0675,63.043 L3851.6325,62.638 C3851.7945,62.611 3851.9835,62.584 3852.1995,62.557 C3852.3885,62.557 3852.5775,62.557 3852.7935,62.503 L3853.3605,62.395 C3853.5225,62.395 3853.7115,62.341 3853.8735,62.26 C3853.9815,62.206 3854.0625,62.152 3854.1165,62.098 C3854.1435,62.044 3854.1705,61.936 3854.1705,61.774 C3854.1705,61.666 3854.0895,61.531 3853.9545,61.369 C3853.7925,61.234 3853.6305,61.099 3853.4415,60.991 C3853.2255,60.883 3853.0095,60.775 3852.7935,60.667 C3852.5775,60.613 3852.3885,60.559 3852.2805,60.559 C3852.1725,60.559 3852.0915,60.586 3851.9835,60.613 C3851.8755,60.667 3851.7945,60.694 3851.6865,60.721 L3851.3355,60.829 C3851.2005,60.883 3851.0925,60.91 3851.0115,60.937 C3850.3095,61.126 3849.5535,61.261 3848.7435,61.369 C3847.9065,61.477 3847.0965,61.504 3846.3135,61.504 C3846.1245,61.342 3845.9625,61.207 3845.8275,61.153 C3845.6655,61.099 3845.4765,61.045 3845.3145,61.045 C3845.1525,61.045 3845.0175,61.072 3844.8555,61.126 C3844.6665,61.18 3844.5315,61.234 3844.4235,61.288 C3844.2615,61.612 3844.1535,62.098 3844.0995,62.746 C3844.0185,63.421 3843.9645,64.15 3843.9375,64.906 C3843.8835,65.716 3843.8295,66.499 3843.8295,67.255 C3843.7755,68.011 3843.7485,68.605 3843.7215,69.01 L3843.6675,69.361 L3843.6135,69.739 C3843.5595,70.009 3843.5325,70.252 3843.5325,70.495 C3843.5325,70.576 3843.5595,70.657 3843.6405,70.765 C3843.6945,70.873 3843.8025,70.954 3843.9105,71.035 C3844.0185,71.116 3844.1265,71.17 3844.2345,71.224 C3844.3425,71.278 3844.4235,71.305 3844.5315,71.305 C3844.7205,71.305 3844.9095,71.278 3845.0715,71.224 C3845.2065,71.17 3845.3685,71.116 3845.5575,71.008 C3845.7195,70.927 3845.9085,70.819 3846.0975,70.711 C3846.2595,70.63 3846.4485,70.549 3846.6645,70.468 C3847.2045,70.306 3847.7175,70.171 3848.2305,70.117 C3848.7165,70.063 3849.2565,70.009 3849.8505,70.009 C3850.2825,70.009 3850.7145,70.063 3851.1465,70.171 C3851.5515,70.279 3851.9295,70.441 3852.2535,70.657 C3852.5775,70.873 3852.8205,71.17 3853.0365,71.548 C3853.2255,71.926 3853.3335,72.385 3853.3335,72.925 C3853.3335,73.708 3853.1715,74.383 3852.9015,74.977 C3852.5775,75.571 3852.1995,76.057 3851.7135,76.435 C3851.2275,76.84 3850.6605,77.137 3850.0395,77.353 C3849.3915,77.569 3848.7435,77.65 3848.0955,77.65 C3847.4475,77.65 3846.8535,77.569 3846.3675,77.407 C3845.8275,77.245 3845.3955,77.056 3845.0175,76.84 C3844.8015,76.759 3844.6395,76.651 3844.4775,76.543 C3844.3155,76.462 3844.1805,76.381 3844.0455,76.3 C3843.8835,76.246 3843.7485,76.165 3843.6405,76.111 C3843.5055,76.084 3843.3975,76.057 3843.3165,76.057 C3843.0465,76.057 3842.8575,76.165 3842.6955,76.327 C3842.5065,76.543 3842.4255,76.786 3842.4255,77.083 C3842.4255,77.407 3842.5335,77.677 3842.7495,77.893 C3842.9655,78.136 3843.2085,78.325 3843.5055,78.433 C3843.7215,78.541 3844.0455,78.649 3844.4775,78.757 C3844.8555,78.892 3845.2875,79 3845.7195,79.081 C3846.1515,79.162 3846.5835,79.243 3847.0155,79.297 C3847.4205,79.351 3847.7715,79.405 3848.0415,79.405 C3849.0675,79.405 3850.0395,79.27 3850.9575,79 C3851.8755,78.73 3852.6855,78.325 3853.3875,77.731 C3854.0625,77.191 3854.6025,76.489 3855.0075,75.625 C3855.3855,74.761 3855.6015,73.762 3855.6015,72.574 Z" transform="translate(-3836)"/></svg>