<svg xmlns="http://www.w3.org/2000/svg" width="103" height="243" viewBox="0 0 103 243"><path fill="#131313" d="M94.6904844,80 C96.9365781,80 98.8831927,80.7486979 100.530328,82.2460938 C102.177464,83.8932292 103.001031,85.8398438 103.001031,88.0859375 C103.001031,92.4283854 103.001031,98.9420573 103.001031,107.626953 C103.001031,111.220703 103.001031,116.536458 103.001031,123.574219 C103.001031,131.061198 103.001031,142.366536 103.001031,157.490234 C103.001031,159.736328 102.177464,161.682943 100.530328,163.330078 C98.8831927,164.827474 96.9365781,165.576172 94.6904844,165.576172 C92.4443906,165.576172 90.5726458,164.827474 89.07525,163.330078 C87.4281146,161.682943 86.6045469,159.736328 86.6045469,157.490234 C86.6045469,157.190755 86.6045469,156.666667 86.6045469,155.917969 C82.8610573,158.91276 78.668349,161.233724 74.0264219,162.880859 C69.2347552,164.677734 64.0687396,165.576172 58.528375,165.576172 C53.13775,165.576172 48.6455625,164.827474 45.0518125,163.330078 C41.4580625,161.832682 38.5381406,159.886068 36.2920469,157.490234 C32.0993385,152.998047 29.7035052,147.832031 29.1045469,141.992188 C28.355849,136.152344 27.9815,131.510417 27.9815,128.066406 C27.9815,119.231771 27.9815,105.904948 27.9815,88.0859375 C27.9815,85.8398438 28.8050677,83.8932292 30.4522031,82.2460938 C31.949599,80.7486979 33.8213438,80 36.0674375,80 C38.3135313,80 40.2601458,80.7486979 41.9072813,82.2460938 C43.4046771,83.8932292 44.153375,85.8398438 44.153375,88.0859375 C44.153375,96.9205729 44.153375,110.247396 44.153375,128.066406 C44.153375,136.451823 45.1266823,142.067057 47.0732969,144.912109 C49.169651,147.906901 52.9880104,149.404297 58.528375,149.404297 C65.1169167,149.404297 71.480849,147.008464 77.6201719,142.216797 C83.6097552,137.42513 86.6045469,131.210938 86.6045469,123.574219 C86.6045469,119.980469 86.6045469,114.664714 86.6045469,107.626953 C86.6045469,103.284505 86.6045469,96.7708333 86.6045469,88.0859375 C86.6045469,85.8398438 87.4281146,83.8932292 89.07525,82.2460938 C90.5726458,80.7486979 92.4443906,80 94.6904844,80 Z M76.8779844,98.1933594 C77.027724,98.1933594 77.1774635,98.1933594 77.3272031,98.1933594 C77.6266823,98.1933594 77.8512917,98.1933594 78.0010313,98.1933594 C78.1507708,98.1933594 78.3753802,98.1933594 78.6748594,98.1933594 C78.824599,98.1933594 78.9743385,98.1933594 79.1240781,98.1933594 C79.1240781,101.038411 79.1240781,105.455729 79.1240781,111.445312 C78.6748594,111.445312 77.9261615,111.445312 76.8779844,111.445312 C76.8779844,109.199219 76.8779844,106.953125 76.8779844,104.707031 C76.8779844,102.460938 76.8779844,100.289714 76.8779844,98.1933594 Z M81.3701719,111.445312 C80.621474,114.290365 79.4984271,118.483073 78.0010313,124.023438 C77.2523333,121.178385 76.1292865,116.985677 74.6318906,111.445312 L81.3701719,111.445312 Z M77.8315,90.265 C80.1787102,90.265 82.0815,92.1677898 82.0815,94.515 C82.0815,96.8622102 80.1787102,98.765 77.8315,98.765 C75.4842898,98.765 73.5815,96.8622102 73.5815,94.515 C73.5815,92.1677898 75.4842898,90.265 77.8315,90.265 Z M77.8315,91.265 C76.0365746,91.265 74.5815,92.7200746 74.5815,94.515 C74.5815,96.3099254 76.0365746,97.765 77.8315,97.765 C79.6264254,97.765 81.0815,96.3099254 81.0815,94.515 C81.0815,92.7200746 79.6264254,91.265 77.8315,91.265 Z M20.5010313,128.515625 C20.5010313,141.09375 22.747125,151.126302 27.2393125,158.613281 C31.7315,166.10026 38.4697813,170.966797 47.4541563,173.212891 C47.4541563,173.662109 47.3792865,174.410807 47.2295469,175.458984 C43.0368385,174.410807 39.3682188,172.913411 36.2236875,170.966797 C33.2288958,168.870443 30.6084531,166.549479 28.3623594,164.003906 C24.3193906,159.0625 21.6240781,153.372396 20.2764219,146.933594 C18.9287656,140.644531 18.2549375,134.505208 18.2549375,128.515625 C18.2549375,121.777344 18.2549375,111.669922 18.2549375,98.1933594 C18.4046771,98.1933594 18.5544167,98.1933594 18.7041563,98.1933594 C19.0036354,98.1933594 19.2282448,98.1933594 19.3779844,98.1933594 C19.527724,98.1933594 19.6774635,98.1933594 19.8272031,98.1933594 C20.1266823,98.1933594 20.3512917,98.1933594 20.5010313,98.1933594 C20.5010313,103.134766 20.5010313,108.151042 20.5010313,113.242188 C20.5010313,118.333333 20.5010313,123.424479 20.5010313,128.515625 Z M47.6787656,171.191406 C50.3740781,172.239583 54.4170469,173.811849 59.8076719,175.908203 C56.9626198,176.357422 52.6950417,177.03125 47.0049375,177.929688 C47.0049375,177.330729 47.529026,172.089844 47.6787656,171.191406 Z M64.265,93.235 C64.967,93.235 65.642,93.37 66.263,93.64 C66.884,93.91 67.424,94.261 67.883,94.693 C68.315,95.152 68.666,95.665 68.936,96.205 C69.179,96.772 69.314,97.339 69.314,97.906 C69.314,99.013 69.125,100.039 68.747,101.011 C68.342,102.01 67.748,102.874 66.992,103.63 C66.371,104.224 65.777,104.791 65.183,105.385 L63.374,107.14 L62.267,108.193 C61.862,108.571 61.349,109.03 60.728,109.543 C61.619,109.435 62.375,109.381 62.969,109.327 C63.563,109.3 64.13,109.273 64.67,109.219 C65.237,109.192 65.831,109.165 66.479,109.165 C67.1,109.165 67.694,109.111 68.288,109.057 L68.666,109.003 L69.044,108.922 C69.26,108.868 69.503,108.841 69.746,108.841 C70.07,108.841 70.34,109.003 70.583,109.327 C70.826,109.651 70.961,109.975 70.961,110.353 C70.961,110.596 70.853,110.785 70.691,110.893 C70.529,111.055 70.367,111.109 70.205,111.109 C69.611,111.109 69.044,111.082 68.477,110.974 C67.883,110.893 67.289,110.839 66.722,110.839 C65.696,110.839 64.643,110.893 63.563,111.001 C62.456,111.109 61.403,111.217 60.377,111.352 C60.242,111.379 60.107,111.406 59.999,111.433 C59.864,111.46 59.729,111.487 59.594,111.514 C59.324,111.568 59.081,111.595 58.865,111.595 C58.514,111.595 58.217,111.514 57.947,111.298 C57.65,111.109 57.515,110.812 57.515,110.434 C57.515,110.191 57.569,109.975 57.677,109.759 C57.785,109.597 57.947,109.408 58.136,109.219 C58.352,109.003 58.541,108.787 58.757,108.571 C58.973,108.355 59.189,108.166 59.459,107.95 C60.377,107.221 61.268,106.465 62.105,105.655 L64.67,103.252 C64.994,102.928 65.345,102.577 65.669,102.199 C65.966,101.848 66.236,101.47 66.479,101.038 C66.722,100.633 66.911,100.201 67.073,99.715 C67.235,99.256 67.316,98.77 67.316,98.23 C67.316,97.798 67.235,97.393 67.073,96.988 C66.911,96.61 66.695,96.259 66.425,95.935 C66.128,95.638 65.804,95.395 65.426,95.206 C65.048,95.044 64.616,94.936 64.184,94.936 C63.374,94.936 62.726,95.125 62.267,95.476 C61.781,95.854 61.349,96.34 60.971,96.988 C60.863,97.15 60.809,97.285 60.755,97.447 C60.701,97.609 60.62,97.771 60.566,97.906 C60.485,98.068 60.404,98.23 60.323,98.365 C60.242,98.527 60.161,98.662 60.107,98.743 C59.945,98.905 59.81,99.04 59.702,99.121 C59.567,99.229 59.405,99.256 59.216,99.256 C58.946,99.256 58.703,99.148 58.46,98.905 C58.19,98.689 58.082,98.446 58.082,98.122 C58.082,97.879 58.136,97.582 58.271,97.258 C58.379,96.934 58.541,96.61 58.73,96.286 C58.892,95.962 59.108,95.665 59.324,95.368 C59.54,95.098 59.729,94.855 59.945,94.693 C60.539,94.18 61.214,93.802 61.97,93.559 C62.726,93.343 63.482,93.235 64.265,93.235 Z M6.615,92.397 C6.993,92.397 7.29,92.505 7.533,92.667 C7.749,92.829 7.857,93.099 7.857,93.45 C7.857,93.639 7.83,93.801 7.83,93.963 L7.749,94.476 L7.641,94.989 C7.587,95.178 7.533,95.34 7.506,95.502 C7.02,97.365 6.723,99.255 6.561,101.145 C6.399,103.062 6.345,104.952 6.345,106.842 C6.345,107.112 6.345,107.436 6.399,107.787 C6.399,108.138 6.453,108.462 6.507,108.759 C6.534,109.083 6.561,109.38 6.615,109.623 C6.615,109.893 6.642,110.055 6.642,110.136 C6.642,110.298 6.507,110.433 6.291,110.541 C6.021,110.649 5.778,110.703 5.562,110.703 C5.13,110.703 4.806,110.595 4.563,110.325 C4.32,110.082 4.212,109.758 4.212,109.326 C4.212,108.57 4.239,107.679 4.293,106.653 C4.32,105.627 4.374,104.601 4.428,103.575 C4.455,103.035 4.509,102.414 4.563,101.766 L4.779,99.849 C4.86,99.201 4.941,98.607 5.049,98.013 C5.103,97.419 5.184,96.906 5.265,96.474 C4.887,96.879 4.59,97.23 4.32,97.527 C4.05,97.824 3.834,98.04 3.699,98.175 L3.159,98.769 C2.943,99.012 2.781,99.201 2.646,99.363 C2.43,99.579 2.241,99.741 2.052,99.849 C1.836,99.957 1.62,100.011 1.377,100.011 C1.053,100.011 0.729,99.93 0.459,99.714 C0.135,99.525 0,99.282 0,98.958 C0,98.877 0.027,98.796 0.135,98.688 C0.216,98.607 0.324,98.526 0.459,98.418 L0.702,98.256 C0.756,98.202 0.837,98.175 0.918,98.121 L1.134,98.013 C1.188,97.959 1.269,97.905 1.323,97.851 C1.89,97.311 2.484,96.717 3.105,96.042 C3.699,95.394 4.239,94.746 4.752,94.152 C4.914,93.963 5.103,93.747 5.265,93.531 C5.4,93.315 5.562,93.126 5.778,92.91 C5.859,92.829 5.994,92.721 6.156,92.586 C6.318,92.478 6.453,92.397 6.615,92.397 Z M19.4315,90.265 C21.7787102,90.265 23.6815,92.1677898 23.6815,94.515 C23.6815,96.8622102 21.7787102,98.765 19.4315,98.765 C17.0842898,98.765 15.1815,96.8622102 15.1815,94.515 C15.1815,92.1677898 17.0842898,90.265 19.4315,90.265 Z M19.4315,91.265 C17.6365746,91.265 16.1815,92.7200746 16.1815,94.515 C16.1815,96.3099254 17.6365746,97.765 19.4315,97.765 C21.2264254,97.765 22.6815,96.3099254 22.6815,94.515 C22.6815,92.7200746 21.2264254,91.265 19.4315,91.265 Z M77.4415,33.093 C79.6815,33.093 81.6975,33.989 83.4895,35.333 C85.0575,36.901 85.9535,38.693 85.9535,40.933 C85.9535,42.501 85.0575,44.069 83.4895,45.637 C82.1455,47.205 79.9055,48.997 76.7695,51.237 C73.6335,53.701 70.4975,55.941 67.1375,58.181 C63.5535,60.421 60.4175,62.437 57.2815,63.781 C54.1455,65.573 51.6815,66.245 50.3375,66.245 C47.4255,66.245 46.0815,65.349 46.0815,63.109 C46.0815,61.541 47.4255,59.077 50.1135,55.717 C52.8015,52.581 55.9375,49.221 59.5215,45.861 C63.1055,42.501 66.4655,39.589 70.0495,36.901 C73.4095,34.437 75.8735,33.093 77.4415,33.093 Z M64.6557474,25.4962362 L58.1177041,35.8824964 L57.042,34.787 L42.4652347,49.4831103 C42.7944257,50.0867416 42.9815,50.7790241 42.9815,51.515 C42.9815,53.8622102 41.0787102,55.765 38.7315,55.765 C36.3842898,55.765 34.4815,53.8622102 34.4815,51.515 C34.4815,49.1677898 36.3842898,47.265 38.7315,47.265 C39.5453714,47.265 40.3058108,47.4937697 40.9520217,47.8905125 L55.503,33.221 L54.3872489,32.0847489 L64.6557474,25.4962362 Z M38.7315,48.265 C36.9365746,48.265 35.4815,49.7200746 35.4815,51.515 C35.4815,53.3099254 36.9365746,54.765 38.7315,54.765 C40.5264254,54.765 41.9815,53.3099254 41.9815,51.515 C41.9815,50.8102928 41.75721,50.1579714 41.3761216,49.6255271 L40.9143122,49.1070989 C40.337431,48.5838279 39.5716986,48.265 38.7315,48.265 Z M33.583,35.574 C33.583,34.116 32.989,32.955 31.855,32.064 C31.261,31.659 30.64,31.389 29.965,31.281 C29.263,31.2 28.588,31.146 27.886,31.146 C27.238,31.146 26.563,31.227 25.915,31.335 C25.267,31.497 24.565,31.686 23.809,31.902 C23.89,30.876 23.971,29.931 24.079,29.067 L24.295,26.34 C25.267,26.259 26.185,26.151 27.049,26.043 L29.614,25.638 C29.776,25.611 29.965,25.584 30.181,25.557 C30.37,25.557 30.559,25.557 30.775,25.503 L31.342,25.395 C31.504,25.395 31.693,25.341 31.855,25.26 C31.963,25.206 32.044,25.152 32.098,25.098 C32.125,25.044 32.152,24.936 32.152,24.774 C32.152,24.666 32.071,24.531 31.936,24.369 C31.774,24.234 31.612,24.099 31.423,23.991 C31.207,23.883 30.991,23.775 30.775,23.667 C30.559,23.613 30.37,23.559 30.262,23.559 C30.154,23.559 30.073,23.586 29.965,23.613 C29.857,23.667 29.776,23.694 29.668,23.721 L29.317,23.829 C29.182,23.883 29.074,23.91 28.993,23.937 C28.291,24.126 27.535,24.261 26.725,24.369 C25.888,24.477 25.078,24.504 24.295,24.504 C24.106,24.342 23.944,24.207 23.809,24.153 C23.647,24.099 23.458,24.045 23.296,24.045 C23.134,24.045 22.999,24.072 22.837,24.126 C22.648,24.18 22.513,24.234 22.405,24.288 C22.243,24.612 22.135,25.098 22.081,25.746 C22,26.421 21.946,27.15 21.919,27.906 C21.865,28.716 21.811,29.499 21.811,30.255 C21.757,31.011 21.73,31.605 21.703,32.01 L21.649,32.361 L21.595,32.739 C21.541,33.009 21.514,33.252 21.514,33.495 C21.514,33.576 21.541,33.657 21.622,33.765 C21.676,33.873 21.784,33.954 21.892,34.035 C22,34.116 22.108,34.17 22.216,34.224 C22.324,34.278 22.405,34.305 22.513,34.305 C22.702,34.305 22.891,34.278 23.053,34.224 C23.188,34.17 23.35,34.116 23.539,34.008 C23.701,33.927 23.89,33.819 24.079,33.711 C24.241,33.63 24.43,33.549 24.646,33.468 C25.186,33.306 25.699,33.171 26.212,33.117 C26.698,33.063 27.238,33.009 27.832,33.009 C28.264,33.009 28.696,33.063 29.128,33.171 C29.533,33.279 29.911,33.441 30.235,33.657 C30.559,33.873 30.802,34.17 31.018,34.548 C31.207,34.926 31.315,35.385 31.315,35.925 C31.315,36.708 31.153,37.383 30.883,37.977 C30.559,38.571 30.181,39.057 29.695,39.435 C29.209,39.84 28.642,40.137 28.021,40.353 C27.373,40.569 26.725,40.65 26.077,40.65 C25.429,40.65 24.835,40.569 24.349,40.407 C23.809,40.245 23.377,40.056 22.999,39.84 C22.783,39.759 22.621,39.651 22.459,39.543 C22.297,39.462 22.162,39.381 22.027,39.3 C21.865,39.246 21.73,39.165 21.622,39.111 C21.487,39.084 21.379,39.057 21.298,39.057 C21.028,39.057 20.839,39.165 20.677,39.327 C20.488,39.543 20.407,39.786 20.407,40.083 C20.407,40.407 20.515,40.677 20.731,40.893 C20.947,41.136 21.19,41.325 21.487,41.433 C21.703,41.541 22.027,41.649 22.459,41.757 C22.837,41.892 23.269,42 23.701,42.081 C24.133,42.162 24.565,42.243 24.997,42.297 C25.402,42.351 25.753,42.405 26.023,42.405 C27.049,42.405 28.021,42.27 28.939,42 C29.857,41.73 30.667,41.325 31.369,40.731 C32.044,40.191 32.584,39.489 32.989,38.625 C33.367,37.761 33.583,36.762 33.583,35.574 Z" transform="translate(-13.981)"/></svg>