<svg xmlns="http://www.w3.org/2000/svg" width="95" height="243" viewBox="0 0 95 243"><path fill="#131313" d="M94.6904844,80 C96.9365781,80 98.8831927,80.7486979 100.530328,82.2460938 C102.177464,83.8932292 103.001031,85.8398438 103.001031,88.0859375 C103.001031,92.4283854 103.001031,98.9420573 103.001031,107.626953 C103.001031,111.220703 103.001031,116.536458 103.001031,123.574219 C103.001031,131.061198 103.001031,142.366536 103.001031,157.490234 C103.001031,159.736328 102.177464,161.682943 100.530328,163.330078 C98.8831927,164.827474 96.9365781,165.576172 94.6904844,165.576172 C92.4443906,165.576172 90.5726458,164.827474 89.07525,163.330078 C87.4281146,161.682943 86.6045469,159.736328 86.6045469,157.490234 C86.6045469,157.190755 86.6045469,156.666667 86.6045469,155.917969 C82.8610573,158.91276 78.668349,161.233724 74.0264219,162.880859 C69.2347552,164.677734 64.0687396,165.576172 58.528375,165.576172 C53.13775,165.576172 48.6455625,164.827474 45.0518125,163.330078 C41.4580625,161.832682 38.5381406,159.886068 36.2920469,157.490234 C32.0993385,152.998047 29.7035052,147.832031 29.1045469,141.992188 C28.355849,136.152344 27.9815,131.510417 27.9815,128.066406 C27.9815,119.231771 27.9815,105.904948 27.9815,88.0859375 C27.9815,85.8398438 28.8050677,83.8932292 30.4522031,82.2460938 C31.949599,80.7486979 33.8213437,80 36.0674375,80 C38.3135312,80 40.2601458,80.7486979 41.9072812,82.2460938 C43.4046771,83.8932292 44.153375,85.8398438 44.153375,88.0859375 C44.153375,96.9205729 44.153375,110.247396 44.153375,128.066406 C44.153375,136.451823 45.1266823,142.067057 47.0732969,144.912109 C49.169651,147.906901 52.9880104,149.404297 58.528375,149.404297 C65.1169167,149.404297 71.480849,147.008464 77.6201719,142.216797 C83.6097552,137.42513 86.6045469,131.210938 86.6045469,123.574219 C86.6045469,119.980469 86.6045469,114.664714 86.6045469,107.626953 C86.6045469,103.284505 86.6045469,96.7708333 86.6045469,88.0859375 C86.6045469,85.8398438 87.4281146,83.8932292 89.07525,82.2460938 C90.5726458,80.7486979 92.4443906,80 94.6904844,80 Z M76.8779844,98.1933594 C77.027724,98.1933594 77.1774635,98.1933594 77.3272031,98.1933594 C77.6266823,98.1933594 77.8512917,98.1933594 78.0010312,98.1933594 C78.1507708,98.1933594 78.3753802,98.1933594 78.6748594,98.1933594 C78.824599,98.1933594 78.9743385,98.1933594 79.1240781,98.1933594 C79.1240781,101.038411 79.1240781,105.455729 79.1240781,111.445312 C78.6748594,111.445312 77.9261615,111.445312 76.8779844,111.445312 C76.8779844,109.199219 76.8779844,106.953125 76.8779844,104.707031 C76.8779844,102.460938 76.8779844,100.289714 76.8779844,98.1933594 Z M81.3701719,111.445312 C80.621474,114.290365 79.4984271,118.483073 78.0010312,124.023438 C77.2523333,121.178385 76.1292865,116.985677 74.6318906,111.445312 C75.0811094,111.445312 80.3219948,111.445312 81.3701719,111.445312 Z M20.5010312,128.515625 C20.5010312,141.09375 22.747125,151.126302 27.2393125,158.613281 C31.7315,166.10026 38.4697812,170.966797 47.4541562,173.212891 C47.4541562,173.662109 47.3792865,174.410807 47.2295469,175.458984 C43.0368385,174.410807 39.3682187,172.913411 36.2236875,170.966797 C33.2288958,168.870443 30.6084531,166.549479 28.3623594,164.003906 C24.3193906,159.0625 21.6240781,153.372396 20.2764219,146.933594 C18.9287656,140.644531 18.2549375,134.505208 18.2549375,128.515625 C18.2549375,121.777344 18.2549375,111.669922 18.2549375,98.1933594 C18.4046771,98.1933594 18.5544167,98.1933594 18.7041562,98.1933594 C19.0036354,98.1933594 19.2282448,98.1933594 19.3779844,98.1933594 C19.527724,98.1933594 19.6774635,98.1933594 19.8272031,98.1933594 C20.1266823,98.1933594 20.3512917,98.1933594 20.5010312,98.1933594 C20.5010312,103.134766 20.5010312,108.151042 20.5010312,113.242187 C20.5010312,118.333333 20.5010312,123.424479 20.5010312,128.515625 Z M47.6787656,171.191406 C50.3740781,172.239583 54.4170469,173.811849 59.8076719,175.908203 C56.9626198,176.357422 52.6950417,177.03125 47.0049375,177.929688 C47.0049375,177.330729 47.529026,172.089844 47.6787656,171.191406 Z M64.265,93.235 C64.967,93.235 65.642,93.37 66.263,93.64 C66.884,93.91 67.424,94.261 67.883,94.693 C68.315,95.152 68.666,95.665 68.936,96.205 C69.179,96.772 69.314,97.339 69.314,97.906 C69.314,99.013 69.125,100.039 68.747,101.011 C68.342,102.01 67.748,102.874 66.992,103.63 C66.371,104.224 65.777,104.791 65.183,105.385 L63.374,107.14 L62.267,108.193 C61.862,108.571 61.349,109.03 60.728,109.543 C61.619,109.435 62.375,109.381 62.969,109.327 C63.563,109.3 64.13,109.273 64.67,109.219 C65.237,109.192 65.831,109.165 66.479,109.165 C67.1,109.165 67.694,109.111 68.288,109.057 L68.666,109.003 L69.044,108.922 C69.26,108.868 69.503,108.841 69.746,108.841 C70.07,108.841 70.34,109.003 70.583,109.327 C70.826,109.651 70.961,109.975 70.961,110.353 C70.961,110.596 70.853,110.785 70.691,110.893 C70.529,111.055 70.367,111.109 70.205,111.109 C69.611,111.109 69.044,111.082 68.477,110.974 C67.883,110.893 67.289,110.839 66.722,110.839 C65.696,110.839 64.643,110.893 63.563,111.001 C62.456,111.109 61.403,111.217 60.377,111.352 C60.242,111.379 60.107,111.406 59.999,111.433 C59.864,111.46 59.729,111.487 59.594,111.514 C59.324,111.568 59.081,111.595 58.865,111.595 C58.514,111.595 58.217,111.514 57.947,111.298 C57.65,111.109 57.515,110.812 57.515,110.434 C57.515,110.191 57.569,109.975 57.677,109.759 C57.785,109.597 57.947,109.408 58.136,109.219 C58.352,109.003 58.541,108.787 58.757,108.571 C58.973,108.355 59.189,108.166 59.459,107.95 C60.377,107.221 61.268,106.465 62.105,105.655 L64.67,103.252 C64.994,102.928 65.345,102.577 65.669,102.199 C65.966,101.848 66.236,101.47 66.479,101.038 C66.722,100.633 66.911,100.201 67.073,99.715 C67.235,99.256 67.316,98.77 67.316,98.23 C67.316,97.798 67.235,97.393 67.073,96.988 C66.911,96.61 66.695,96.259 66.425,95.935 C66.128,95.638 65.804,95.395 65.426,95.206 C65.048,95.044 64.616,94.936 64.184,94.936 C63.374,94.936 62.726,95.125 62.267,95.476 C61.781,95.854 61.349,96.34 60.971,96.988 C60.863,97.15 60.809,97.285 60.755,97.447 C60.701,97.609 60.62,97.771 60.566,97.906 C60.485,98.068 60.404,98.23 60.323,98.365 C60.242,98.527 60.161,98.662 60.107,98.743 C59.945,98.905 59.81,99.04 59.702,99.121 C59.567,99.229 59.405,99.256 59.216,99.256 C58.946,99.256 58.703,99.148 58.46,98.905 C58.19,98.689 58.082,98.446 58.082,98.122 C58.082,97.879 58.136,97.582 58.271,97.258 C58.379,96.934 58.541,96.61 58.73,96.286 C58.892,95.962 59.108,95.665 59.324,95.368 C59.54,95.098 59.729,94.855 59.945,94.693 C60.539,94.18 61.214,93.802 61.97,93.559 C62.726,93.343 63.482,93.235 64.265,93.235 Z M6.615,92.397 C6.993,92.397 7.29,92.505 7.533,92.667 C7.749,92.829 7.857,93.099 7.857,93.45 C7.857,93.639 7.83,93.801 7.83,93.963 L7.749,94.476 L7.641,94.989 C7.587,95.178 7.533,95.34 7.506,95.502 C7.02,97.365 6.723,99.255 6.561,101.145 C6.399,103.062 6.345,104.952 6.345,106.842 C6.345,107.112 6.345,107.436 6.399,107.787 C6.399,108.138 6.453,108.462 6.507,108.759 C6.534,109.083 6.561,109.38 6.615,109.623 C6.615,109.893 6.642,110.055 6.642,110.136 C6.642,110.298 6.507,110.433 6.291,110.541 C6.021,110.649 5.778,110.703 5.562,110.703 C5.13,110.703 4.806,110.595 4.563,110.325 C4.32,110.082 4.212,109.758 4.212,109.326 C4.212,108.57 4.239,107.679 4.293,106.653 C4.32,105.627 4.374,104.601 4.428,103.575 C4.455,103.035 4.509,102.414 4.563,101.766 L4.779,99.849 C4.86,99.201 4.941,98.607 5.049,98.013 C5.103,97.419 5.184,96.906 5.265,96.474 C4.887,96.879 4.59,97.23 4.32,97.527 C4.05,97.824 3.834,98.04 3.699,98.175 L3.159,98.769 C2.943,99.012 2.781,99.201 2.646,99.363 C2.43,99.579 2.241,99.741 2.052,99.849 C1.836,99.957 1.62,100.011 1.377,100.011 C1.053,100.011 0.729,99.93 0.459,99.714 C0.135,99.525 0,99.282 0,98.958 C0,98.877 0.027,98.796 0.135,98.688 C0.216,98.607 0.324,98.526 0.459,98.418 L0.702,98.256 C0.756,98.202 0.837,98.175 0.918,98.121 L1.134,98.013 C1.188,97.959 1.269,97.905 1.323,97.851 C1.89,97.311 2.484,96.717 3.105,96.042 C3.699,95.394 4.239,94.746 4.752,94.152 C4.914,93.963 5.103,93.747 5.265,93.531 C5.4,93.315 5.562,93.126 5.778,92.91 C5.859,92.829 5.994,92.721 6.156,92.586 C6.318,92.478 6.453,92.397 6.615,92.397 Z M19.4315,90.265 C21.7787102,90.265 23.6815,92.1677898 23.6815,94.515 C23.6815,96.8622102 21.7787102,98.765 19.4315,98.765 C17.0842898,98.765 15.1815,96.8622102 15.1815,94.515 C15.1815,92.1677898 17.0842898,90.265 19.4315,90.265 Z M77.8315,90.265 C80.1787102,90.265 82.0815,92.1677898 82.0815,94.515 C82.0815,96.8622102 80.1787102,98.765 77.8315,98.765 C75.4842898,98.765 73.5815,96.8622102 73.5815,94.515 C73.5815,92.1677898 75.4842898,90.265 77.8315,90.265 Z M19.4315,91.265 C17.6365746,91.265 16.1815,92.7200746 16.1815,94.515 C16.1815,96.3099254 17.6365746,97.765 19.4315,97.765 C21.2264254,97.765 22.6815,96.3099254 22.6815,94.515 C22.6815,92.7200746 21.2264254,91.265 19.4315,91.265 Z M77.8315,91.265 C76.0365746,91.265 74.5815,92.7200746 74.5815,94.515 C74.5815,96.3099254 76.0365746,97.765 77.8315,97.765 C79.6264254,97.765 81.0815,96.3099254 81.0815,94.515 C81.0815,92.7200746 79.6264254,91.265 77.8315,91.265 Z M35.9815,49 C40.399778,49 43.9815,52.581722 43.9815,57 C43.9815,61.418278 40.399778,65 35.9815,65 C31.563222,65 27.9815,61.418278 27.9815,57 C27.9815,52.581722 31.563222,49 35.9815,49 Z M94.9815,49 C99.399778,49 102.9815,52.581722 102.9815,57 C102.9815,61.418278 99.399778,65 94.9815,65 C90.563222,65 86.9815,61.418278 86.9815,57 C86.9815,52.581722 90.563222,49 94.9815,49 Z M97.857,20.938 C97.992,20.938 98.154,20.965 98.37,21.019 C98.559,21.073 98.748,21.127 98.937,21.235 C99.099,21.343 99.234,21.451 99.369,21.559 C99.477,21.694 99.558,21.829 99.558,21.991 C99.558,22.315 99.531,22.612 99.477,22.909 C99.423,23.206 99.396,23.503 99.396,23.8 C99.342,24.61 99.288,25.42 99.261,26.203 C99.207,27.013 99.153,27.742 99.153,28.444 C99.099,29.146 99.072,29.794 99.072,30.361 C99.045,30.955 99.045,31.414 99.045,31.792 C99.018,32.062 99.018,32.305 99.018,32.548 C99.018,32.818 99.018,33.115 99.045,33.466 C99.261,33.412 99.558,33.358 99.963,33.277 C100.341,33.223 100.746,33.196 101.178,33.196 C101.88,33.196 102.258,33.547 102.258,34.195 C102.258,34.465 102.177,34.681 102.015,34.843 C101.853,35.032 101.637,35.113 101.394,35.113 L98.964,35.167 L98.964,36.76 C98.964,37.246 98.991,37.705 99.099,38.137 C99.207,38.569 99.261,39.028 99.261,39.487 C99.261,39.811 99.126,40.027 98.91,40.189 C98.667,40.324 98.397,40.405 98.127,40.405 C97.263,40.405 96.831,39.892 96.831,38.839 C96.831,38.623 96.831,38.164 96.885,37.516 L96.939,35.41 C96.291,35.518 95.751,35.599 95.265,35.707 C94.752,35.815 94.266,35.896 93.807,36.004 L92.997,36.193 C92.727,36.274 92.457,36.328 92.187,36.382 C91.89,36.436 91.593,36.49 91.323,36.517 C91.026,36.571 90.756,36.598 90.513,36.598 C90.189,36.598 89.865,36.571 89.541,36.463 C89.19,36.355 88.893,36.22 88.623,36.031 C88.353,35.842 88.137,35.599 87.975,35.302 C87.813,35.032 87.732,34.708 87.732,34.33 C87.732,34.114 87.759,33.871 87.867,33.601 C87.948,33.358 88.056,33.115 88.191,32.845 C88.326,32.575 88.461,32.332 88.623,32.089 C88.785,31.873 88.92,31.657 89.082,31.468 C90.243,29.875 91.431,28.336 92.673,26.824 C93.915,25.339 95.13,23.8 96.318,22.207 C96.399,22.072 96.507,21.937 96.615,21.775 C96.696,21.64 96.804,21.505 96.939,21.343 C97.047,21.235 97.182,21.127 97.371,21.046 C97.533,20.992 97.695,20.938 97.857,20.938 Z M35.131,21.262 C35.779,21.262 36.427,21.343 37.075,21.451 C37.723,21.586 38.317,21.802 38.857,22.099 C39.397,22.423 39.829,22.855 40.153,23.368 C40.477,23.908 40.639,24.556 40.639,25.312 C40.639,26.149 40.45,26.851 40.099,27.445 C39.721,28.039 39.1,28.633 38.236,29.2 C38.884,29.362 39.505,29.578 40.045,29.821 C40.585,30.064 41.071,30.361 41.476,30.685 C41.854,31.063 42.178,31.468 42.421,31.927 C42.637,32.413 42.745,32.953 42.745,33.547 C42.745,34.573 42.529,35.464 42.097,36.22 C41.638,37.003 41.071,37.651 40.369,38.191 C39.667,38.731 38.857,39.109 37.993,39.379 C37.102,39.676 36.211,39.811 35.347,39.811 C35.023,39.811 34.645,39.784 34.213,39.703 C33.754,39.649 33.295,39.568 32.836,39.46 C32.35,39.352 31.891,39.244 31.459,39.082 C31,38.947 30.622,38.785 30.298,38.623 C30.028,38.488 29.785,38.299 29.569,38.029 C29.326,37.813 29.218,37.516 29.218,37.192 C29.218,36.895 29.299,36.652 29.515,36.463 C29.704,36.274 29.92,36.166 30.19,36.166 C30.325,36.166 30.514,36.247 30.73,36.355 C30.811,36.409 30.919,36.463 31.027,36.517 C31.135,36.571 31.27,36.652 31.432,36.733 C31.675,36.895 31.918,37.03 32.161,37.165 C32.404,37.327 32.674,37.435 32.944,37.516 C33.7,37.813 34.429,37.948 35.104,37.948 C35.698,37.948 36.292,37.867 36.913,37.678 C37.534,37.516 38.101,37.246 38.587,36.895 C39.073,36.544 39.505,36.085 39.829,35.545 C40.126,35.032 40.288,34.411 40.288,33.682 C40.288,33.25 40.18,32.845 39.991,32.494 C39.775,32.17 39.532,31.873 39.235,31.63 C38.911,31.414 38.587,31.225 38.209,31.063 C37.831,30.901 37.48,30.793 37.129,30.685 C36.94,30.658 36.751,30.604 36.589,30.55 C36.4,30.496 36.211,30.469 36.022,30.469 C35.779,30.469 35.563,30.496 35.347,30.55 C35.131,30.604 34.915,30.685 34.699,30.766 C34.483,30.847 34.294,30.928 34.078,30.982 C33.862,31.063 33.646,31.09 33.43,31.09 C33.133,31.09 32.863,30.982 32.593,30.739 C32.296,30.496 32.161,30.226 32.161,29.902 C32.161,29.632 32.242,29.416 32.404,29.254 C32.485,29.173 32.647,29.092 32.917,29.011 C33.16,28.957 33.403,28.903 33.673,28.903 L34.078,28.903 C34.402,28.903 34.699,28.876 34.996,28.795 C35.293,28.741 35.644,28.606 36.076,28.417 C36.481,28.255 36.859,28.012 37.237,27.715 C37.615,27.418 37.912,27.067 38.182,26.635 C38.425,26.257 38.56,25.771 38.56,25.231 C38.56,24.799 38.452,24.448 38.29,24.151 C38.101,23.881 37.885,23.665 37.615,23.503 C37.318,23.341 36.994,23.233 36.643,23.179 C36.292,23.125 35.968,23.071 35.644,23.071 C35.212,23.071 34.753,23.179 34.321,23.368 C33.835,23.584 33.43,23.773 33.052,23.962 C32.863,24.07 32.701,24.151 32.539,24.232 L32.053,24.475 C31.702,24.637 31.405,24.691 31.189,24.691 C30.946,24.691 30.73,24.583 30.541,24.367 C30.325,24.151 30.244,23.881 30.244,23.584 C30.244,23.314 30.379,23.017 30.703,22.747 C31.027,22.477 31.432,22.207 31.918,21.991 C32.404,21.775 32.917,21.613 33.511,21.451 C34.078,21.343 34.618,21.262 35.131,21.262 Z M97.317,23.8 C96.453,24.988 95.643,26.095 94.86,27.148 C94.05,28.228 93.294,29.2 92.592,30.091 C92.43,30.307 92.187,30.577 91.917,30.955 C91.647,31.333 91.377,31.711 91.107,32.116 C90.81,32.548 90.567,32.953 90.351,33.331 C90.135,33.736 90.054,34.06 90.054,34.276 C90.054,34.438 90.135,34.546 90.297,34.627 C90.459,34.708 90.594,34.735 90.756,34.735 C91.026,34.735 91.458,34.708 91.998,34.627 C92.538,34.573 93.105,34.465 93.699,34.357 L95.481,34.033 C96.075,33.925 96.561,33.817 96.966,33.709 Z" transform="translate(-17.981)"/></svg>