<svg xmlns="http://www.w3.org/2000/svg" width="95" height="203" viewBox="0 0 95 203"><path fill="#131313" d="M2905.70898,117 C2907.95508,117 2909.90169,117.748698 2911.54883,119.246094 C2913.19596,120.893229 2914.01953,122.839844 2914.01953,125.085937 C2914.01953,129.428385 2914.01953,135.942057 2914.01953,144.626953 C2914.01953,148.220703 2914.01953,153.536458 2914.01953,160.574219 C2914.01953,168.061198 2914.01953,179.366536 2914.01953,194.490234 C2914.01953,196.736328 2913.19596,198.682943 2911.54883,200.330078 C2909.90169,201.827474 2907.95508,202.576172 2905.70898,202.576172 C2903.46289,202.576172 2901.59115,201.827474 2900.09375,200.330078 C2898.44661,198.682943 2897.62305,196.736328 2897.62305,194.490234 C2897.62305,194.190755 2897.62305,193.666667 2897.62305,192.917969 C2893.87956,195.91276 2889.68685,198.233724 2885.04492,199.880859 C2880.25326,201.677734 2875.08724,202.576172 2869.54688,202.576172 C2864.15625,202.576172 2859.66406,201.827474 2856.07031,200.330078 C2852.47656,198.832682 2849.55664,196.886068 2847.31055,194.490234 C2843.11784,189.998047 2840.72201,184.832031 2840.12305,178.992188 C2839.37435,173.152344 2839,168.510417 2839,165.066406 C2839,156.231771 2839,142.904948 2839,125.085937 C2839,122.839844 2839.82357,120.893229 2841.4707,119.246094 C2842.9681,117.748698 2844.83984,117 2847.08594,117 C2849.33203,117 2851.27865,117.748698 2852.92578,119.246094 C2854.42318,120.893229 2855.17188,122.839844 2855.17188,125.085937 C2855.17188,133.920573 2855.17188,147.247396 2855.17188,165.066406 C2855.17188,173.451823 2856.14518,179.067057 2858.0918,181.912109 C2860.18815,184.906901 2864.00651,186.404297 2869.54688,186.404297 C2876.13542,186.404297 2882.49935,184.008464 2888.63867,179.216797 C2894.62826,174.42513 2897.62305,168.210938 2897.62305,160.574219 C2897.62305,156.980469 2897.62305,151.664714 2897.62305,144.626953 C2897.62305,140.284505 2897.62305,133.770833 2897.62305,125.085937 C2897.62305,122.839844 2898.44661,120.893229 2900.09375,119.246094 C2901.59115,117.748698 2903.46289,117 2905.70898,117 Z M2887.89648,135.193359 C2888.04622,135.193359 2888.19596,135.193359 2888.3457,135.193359 C2888.64518,135.193359 2888.86979,135.193359 2889.01953,135.193359 C2889.16927,135.193359 2889.39388,135.193359 2889.69336,135.193359 C2889.8431,135.193359 2889.99284,135.193359 2890.14258,135.193359 C2890.14258,138.038411 2890.14258,142.455729 2890.14258,148.445312 C2889.69336,148.445312 2888.94466,148.445312 2887.89648,148.445312 C2887.89648,146.199219 2887.89648,143.953125 2887.89648,141.707031 C2887.89648,139.460938 2887.89648,137.289714 2887.89648,135.193359 Z M2892.38867,148.445312 C2891.63997,151.290365 2890.51693,155.483073 2889.01953,161.023438 C2888.27083,158.178385 2887.14779,153.985677 2885.65039,148.445312 C2886.09961,148.445312 2891.34049,148.445312 2892.38867,148.445312 Z M2831.51953,165.515625 C2831.51953,178.09375 2833.76562,188.126302 2838.25781,195.613281 C2842.75,203.10026 2849.48828,207.966797 2858.47266,210.212891 C2858.47266,210.662109 2858.39779,211.410807 2858.24805,212.458984 C2854.05534,211.410807 2850.38672,209.913411 2847.24219,207.966797 C2844.2474,205.870443 2841.62695,203.549479 2839.38086,201.003906 C2835.33789,196.0625 2832.64258,190.372396 2831.29492,183.933594 C2829.94727,177.644531 2829.27344,171.505208 2829.27344,165.515625 C2829.27344,158.777344 2829.27344,148.669922 2829.27344,135.193359 C2829.42318,135.193359 2829.57292,135.193359 2829.72266,135.193359 C2830.02214,135.193359 2830.24674,135.193359 2830.39648,135.193359 C2830.54622,135.193359 2830.69596,135.193359 2830.8457,135.193359 C2831.14518,135.193359 2831.36979,135.193359 2831.51953,135.193359 C2831.51953,140.134766 2831.51953,145.151042 2831.51953,150.242187 C2831.51953,155.333333 2831.51953,160.424479 2831.51953,165.515625 Z M2858.69727,208.191406 C2861.39258,209.239583 2865.43555,210.811849 2870.82617,212.908203 C2867.98112,213.357422 2863.71354,214.03125 2858.02344,214.929688 C2858.02344,214.330729 2858.54753,209.089844 2858.69727,208.191406 Z M2875.2835,130.235 C2875.9855,130.235 2876.6605,130.37 2877.2815,130.64 C2877.9025,130.91 2878.4425,131.261 2878.9015,131.693 C2879.3335,132.152 2879.6845,132.665 2879.9545,133.205 C2880.1975,133.772 2880.3325,134.339 2880.3325,134.906 C2880.3325,136.013 2880.1435,137.039 2879.7655,138.011 C2879.3605,139.01 2878.7665,139.874 2878.0105,140.63 C2877.3895,141.224 2876.7955,141.791 2876.2015,142.385 L2874.3925,144.14 L2873.2855,145.193 C2872.8805,145.571 2872.3675,146.03 2871.7465,146.543 C2872.6375,146.435 2873.3935,146.381 2873.9875,146.327 C2874.5815,146.3 2875.1485,146.273 2875.6885,146.219 C2876.2555,146.192 2876.8495,146.165 2877.4975,146.165 C2878.1185,146.165 2878.7125,146.111 2879.3065,146.057 L2879.6845,146.003 L2880.0625,145.922 C2880.2785,145.868 2880.5215,145.841 2880.7645,145.841 C2881.0885,145.841 2881.3585,146.003 2881.6015,146.327 C2881.8445,146.651 2881.9795,146.975 2881.9795,147.353 C2881.9795,147.596 2881.8715,147.785 2881.7095,147.893 C2881.5475,148.055 2881.3855,148.109 2881.2235,148.109 C2880.6295,148.109 2880.0625,148.082 2879.4955,147.974 C2878.9015,147.893 2878.3075,147.839 2877.7405,147.839 C2876.7145,147.839 2875.6615,147.893 2874.5815,148.001 C2873.4745,148.109 2872.4215,148.217 2871.3955,148.352 C2871.2605,148.379 2871.1255,148.406 2871.0175,148.433 C2870.8825,148.46 2870.7475,148.487 2870.6125,148.514 C2870.3425,148.568 2870.0995,148.595 2869.8835,148.595 C2869.5325,148.595 2869.2355,148.514 2868.9655,148.298 C2868.6685,148.109 2868.5335,147.812 2868.5335,147.434 C2868.5335,147.191 2868.5875,146.975 2868.6955,146.759 C2868.8035,146.597 2868.9655,146.408 2869.1545,146.219 C2869.3705,146.003 2869.5595,145.787 2869.7755,145.571 C2869.9915,145.355 2870.2075,145.166 2870.4775,144.95 C2871.3955,144.221 2872.2865,143.465 2873.1235,142.655 L2875.6885,140.252 C2876.0125,139.928 2876.3635,139.577 2876.6875,139.199 C2876.9845,138.848 2877.2545,138.47 2877.4975,138.038 C2877.7405,137.633 2877.9295,137.201 2878.0915,136.715 C2878.2535,136.256 2878.3345,135.77 2878.3345,135.23 C2878.3345,134.798 2878.2535,134.393 2878.0915,133.988 C2877.9295,133.61 2877.7135,133.259 2877.4435,132.935 C2877.1465,132.638 2876.8225,132.395 2876.4445,132.206 C2876.0665,132.044 2875.6345,131.936 2875.2025,131.936 C2874.3925,131.936 2873.7445,132.125 2873.2855,132.476 C2872.7995,132.854 2872.3675,133.34 2871.9895,133.988 C2871.8815,134.15 2871.8275,134.285 2871.7735,134.447 C2871.7195,134.609 2871.6385,134.771 2871.5845,134.906 C2871.5035,135.068 2871.4225,135.23 2871.3415,135.365 C2871.2605,135.527 2871.1795,135.662 2871.1255,135.743 C2870.9635,135.905 2870.8285,136.04 2870.7205,136.121 C2870.5855,136.229 2870.4235,136.256 2870.2345,136.256 C2869.9645,136.256 2869.7215,136.148 2869.4785,135.905 C2869.2085,135.689 2869.1005,135.446 2869.1005,135.122 C2869.1005,134.879 2869.1545,134.582 2869.2895,134.258 C2869.3975,133.934 2869.5595,133.61 2869.7485,133.286 C2869.9105,132.962 2870.1265,132.665 2870.3425,132.368 C2870.5585,132.098 2870.7475,131.855 2870.9635,131.693 C2871.5575,131.18 2872.2325,130.802 2872.9885,130.559 C2873.7445,130.343 2874.5005,130.235 2875.2835,130.235 Z M2817.6335,129.397 C2818.0115,129.397 2818.3085,129.505 2818.5515,129.667 C2818.7675,129.829 2818.8755,130.099 2818.8755,130.45 C2818.8755,130.639 2818.8485,130.801 2818.8485,130.963 L2818.7675,131.476 L2818.6595,131.989 C2818.6055,132.178 2818.5515,132.34 2818.5245,132.502 C2818.0385,134.365 2817.7415,136.255 2817.5795,138.145 C2817.4175,140.062 2817.3635,141.952 2817.3635,143.842 C2817.3635,144.112 2817.3635,144.436 2817.4175,144.787 C2817.4175,145.138 2817.4715,145.462 2817.5255,145.759 C2817.5525,146.083 2817.5795,146.38 2817.6335,146.623 C2817.6335,146.893 2817.6605,147.055 2817.6605,147.136 C2817.6605,147.298 2817.5255,147.433 2817.3095,147.541 C2817.0395,147.649 2816.7965,147.703 2816.5805,147.703 C2816.1485,147.703 2815.8245,147.595 2815.5815,147.325 C2815.3385,147.082 2815.2305,146.758 2815.2305,146.326 C2815.2305,145.57 2815.2575,144.679 2815.3115,143.653 C2815.3385,142.627 2815.3925,141.601 2815.4465,140.575 C2815.4735,140.035 2815.5275,139.414 2815.5815,138.766 L2815.7975,136.849 C2815.8785,136.201 2815.9595,135.607 2816.0675,135.013 C2816.1215,134.419 2816.2025,133.906 2816.2835,133.474 C2815.9055,133.879 2815.6085,134.23 2815.3385,134.527 C2815.0685,134.824 2814.8525,135.04 2814.7175,135.175 L2814.1775,135.769 C2813.9615,136.012 2813.7995,136.201 2813.6645,136.363 C2813.4485,136.579 2813.2595,136.741 2813.0705,136.849 C2812.8545,136.957 2812.6385,137.011 2812.3955,137.011 C2812.0715,137.011 2811.7475,136.93 2811.4775,136.714 C2811.1535,136.525 2811.0185,136.282 2811.0185,135.958 C2811.0185,135.877 2811.0455,135.796 2811.1535,135.688 C2811.2345,135.607 2811.3425,135.526 2811.4775,135.418 L2811.7205,135.256 C2811.7745,135.202 2811.8555,135.175 2811.9365,135.121 L2812.1525,135.013 L2812.3415,134.851 C2812.9085,134.311 2813.5025,133.717 2814.1235,133.042 C2814.7175,132.394 2815.2575,131.746 2815.7705,131.152 C2815.9325,130.963 2816.1215,130.747 2816.2835,130.531 C2816.4185,130.315 2816.5805,130.126 2816.7965,129.91 C2816.8775,129.829 2817.0125,129.721 2817.1745,129.586 C2817.3365,129.478 2817.4715,129.397 2817.6335,129.397 Z M2830.45,127.265 C2832.79721,127.265 2834.7,129.16779 2834.7,131.515 C2834.7,133.86221 2832.79721,135.765 2830.45,135.765 C2828.10279,135.765 2826.2,133.86221 2826.2,131.515 C2826.2,129.16779 2828.10279,127.265 2830.45,127.265 Z M2888.85,127.265 C2891.19721,127.265 2893.1,129.16779 2893.1,131.515 C2893.1,133.86221 2891.19721,135.765 2888.85,135.765 C2886.50279,135.765 2884.6,133.86221 2884.6,131.515 C2884.6,129.16779 2886.50279,127.265 2888.85,127.265 Z M2830.45,128.265 C2828.65507,128.265 2827.2,129.720075 2827.2,131.515 C2827.2,133.309925 2828.65507,134.765 2830.45,134.765 C2832.24493,134.765 2833.7,133.309925 2833.7,131.515 C2833.7,129.720075 2832.24493,128.265 2830.45,128.265 Z M2888.85,128.265 C2887.05507,128.265 2885.6,129.720075 2885.6,131.515 C2885.6,133.309925 2887.05507,134.765 2888.85,134.765 C2890.64493,134.765 2892.1,133.309925 2892.1,131.515 C2892.1,129.720075 2890.64493,128.265 2888.85,128.265 Z M2850.08594,90 C2852.33203,90 2854.27865,90.7486979 2855.92578,92.2460937 C2857.57292,93.8932292 2858.39648,95.8398437 2858.39648,98.0859375 C2858.39648,100.332031 2857.57292,102.203776 2855.92578,103.701172 C2854.27865,105.348307 2852.33203,106.171875 2850.08594,106.171875 C2847.98958,106.171875 2846.11784,105.348307 2844.4707,103.701172 C2842.82357,102.203776 2842,100.332031 2842,98.0859375 C2842,95.8398437 2842.82357,93.8932292 2844.4707,92.2460937 C2846.11784,90.7486979 2847.98958,90 2850.08594,90 Z M2903.08594,90 C2905.33203,90 2907.27865,90.7486979 2908.92578,92.2460937 C2910.57292,93.8932292 2911.39648,95.8398437 2911.39648,98.0859375 C2911.39648,100.332031 2910.57292,102.203776 2908.92578,103.701172 C2907.27865,105.348307 2905.33203,106.171875 2903.08594,106.171875 C2900.98958,106.171875 2899.11784,105.348307 2897.4707,103.701172 C2895.82357,102.203776 2895,100.332031 2895,98.0859375 C2895,95.8398437 2895.82357,93.8932292 2897.4707,92.2460937 C2899.11784,90.7486979 2900.98958,90 2903.08594,90 Z M2908.8755,64.938 C2909.0105,64.938 2909.1725,64.965 2909.3885,65.019 C2909.5775,65.073 2909.7665,65.127 2909.9555,65.235 C2910.1175,65.343 2910.2525,65.451 2910.3875,65.559 C2910.4955,65.694 2910.5765,65.829 2910.5765,65.991 C2910.5765,66.315 2910.5495,66.612 2910.4955,66.909 C2910.4415,67.206 2910.4145,67.503 2910.4145,67.8 C2910.3605,68.61 2910.3065,69.42 2910.2795,70.203 C2910.2255,71.013 2910.1715,71.742 2910.1715,72.444 C2910.1175,73.146 2910.0905,73.794 2910.0905,74.361 C2910.07121,74.7852857 2910.0657,75.1406939 2910.06413,75.4469038 L2910.0635,75.792 C2910.0365,76.062 2910.0365,76.305 2910.0365,76.548 C2910.0365,76.818 2910.0365,77.115 2910.0635,77.466 C2910.2795,77.412 2910.5765,77.358 2910.9815,77.277 C2911.3595,77.223 2911.7645,77.196 2912.1965,77.196 C2912.8985,77.196 2913.2765,77.547 2913.2765,78.195 C2913.2765,78.465 2913.1955,78.681 2913.0335,78.843 C2912.8715,79.032 2912.6555,79.113 2912.4125,79.113 L2909.9825,79.167 L2909.9825,80.76 C2909.9825,81.246 2910.0095,81.705 2910.1175,82.137 C2910.2255,82.569 2910.2795,83.028 2910.2795,83.487 C2910.2795,83.811 2910.1445,84.027 2909.9285,84.189 C2909.6855,84.324 2909.4155,84.405 2909.1455,84.405 C2908.2815,84.405 2907.8495,83.892 2907.8495,82.839 L2907.85009,82.6595926 C2907.85217,82.4096667 2907.8615,82.02 2907.9035,81.516 L2907.9575,79.41 C2907.3095,79.518 2906.7695,79.599 2906.2835,79.707 C2905.7705,79.815 2905.2845,79.896 2904.8255,80.004 L2904.0155,80.193 C2903.7455,80.274 2903.4755,80.328 2903.2055,80.382 C2902.9085,80.436 2902.6115,80.49 2902.3415,80.517 C2902.0445,80.571 2901.7745,80.598 2901.5315,80.598 C2901.2075,80.598 2900.8835,80.571 2900.5595,80.463 C2900.2085,80.355 2899.9115,80.22 2899.6415,80.031 C2899.3715,79.842 2899.1555,79.599 2898.9935,79.302 C2898.8315,79.032 2898.7505,78.708 2898.7505,78.33 C2898.7505,78.114 2898.7775,77.871 2898.8855,77.601 C2898.9665,77.358 2899.0745,77.115 2899.2095,76.845 C2899.3445,76.575 2899.4795,76.332 2899.6415,76.089 C2899.8035,75.873 2899.9385,75.657 2900.1005,75.468 C2901.2615,73.875 2902.4495,72.336 2903.6915,70.824 C2904.9335,69.339 2906.1485,67.8 2907.3365,66.207 C2907.4175,66.072 2907.5255,65.937 2907.6335,65.775 C2907.7145,65.64 2907.8225,65.505 2907.9575,65.343 C2908.0655,65.235 2908.2005,65.127 2908.3895,65.046 C2908.5515,64.992 2908.7135,64.938 2908.8755,64.938 Z M2846.1495,65.262 C2846.7975,65.262 2847.4455,65.343 2848.0935,65.451 C2848.7415,65.586 2849.3355,65.802 2849.8755,66.099 C2850.4155,66.423 2850.8475,66.855 2851.1715,67.368 C2851.4955,67.908 2851.6575,68.556 2851.6575,69.312 C2851.6575,70.149 2851.4685,70.851 2851.1175,71.445 C2850.7395,72.039 2850.1185,72.633 2849.2545,73.2 C2849.9025,73.362 2850.5235,73.578 2851.0635,73.821 C2851.6035,74.064 2852.0895,74.361 2852.4945,74.685 C2852.8725,75.063 2853.1965,75.468 2853.4395,75.927 C2853.6555,76.413 2853.7635,76.953 2853.7635,77.547 C2853.7635,78.573 2853.5475,79.464 2853.1155,80.22 C2852.6565,81.003 2852.0895,81.651 2851.3875,82.191 C2850.6855,82.731 2849.8755,83.109 2849.0115,83.379 C2848.1205,83.676 2847.2295,83.811 2846.3655,83.811 C2846.0415,83.811 2845.6635,83.784 2845.2315,83.703 C2844.7725,83.649 2844.3135,83.568 2843.8545,83.46 C2843.3685,83.352 2842.9095,83.244 2842.4775,83.082 C2842.0185,82.947 2841.6405,82.785 2841.3165,82.623 C2841.0465,82.488 2840.8035,82.299 2840.5875,82.029 C2840.3445,81.813 2840.2365,81.516 2840.2365,81.192 C2840.2365,80.895 2840.3175,80.652 2840.5335,80.463 C2840.7225,80.274 2840.9385,80.166 2841.2085,80.166 C2841.3435,80.166 2841.5325,80.247 2841.7485,80.355 C2841.8295,80.409 2841.9375,80.463 2842.0455,80.517 C2842.1535,80.571 2842.2885,80.652 2842.4505,80.733 C2842.6935,80.895 2842.9365,81.03 2843.1795,81.165 C2843.4225,81.327 2843.6925,81.435 2843.9625,81.516 C2844.7185,81.813 2845.4475,81.948 2846.1225,81.948 C2846.7165,81.948 2847.3105,81.867 2847.9315,81.678 C2848.5525,81.516 2849.1195,81.246 2849.6055,80.895 C2850.0915,80.544 2850.5235,80.085 2850.8475,79.545 C2851.1445,79.032 2851.3065,78.411 2851.3065,77.682 C2851.3065,77.25 2851.1985,76.845 2851.0095,76.494 C2850.7935,76.17 2850.5505,75.873 2850.2535,75.63 C2849.9295,75.414 2849.6055,75.225 2849.2275,75.063 C2848.8495,74.901 2848.4985,74.793 2848.1475,74.685 C2847.9585,74.658 2847.7695,74.604 2847.6075,74.55 C2847.4185,74.496 2847.2295,74.469 2847.0405,74.469 C2846.7975,74.469 2846.5815,74.496 2846.3655,74.55 C2846.1495,74.604 2845.9335,74.685 2845.7175,74.766 C2845.5015,74.847 2845.3125,74.928 2845.0965,74.982 C2844.8805,75.063 2844.6645,75.09 2844.4485,75.09 C2844.1515,75.09 2843.8815,74.982 2843.6115,74.739 C2843.3145,74.496 2843.1795,74.226 2843.1795,73.902 C2843.1795,73.632 2843.2605,73.416 2843.4225,73.254 C2843.5035,73.173 2843.6655,73.092 2843.9355,73.011 C2844.1785,72.957 2844.4215,72.903 2844.6915,72.903 L2845.0965,72.903 C2845.4205,72.903 2845.7175,72.876 2846.0145,72.795 C2846.3115,72.741 2846.6625,72.606 2847.0945,72.417 C2847.4995,72.255 2847.8775,72.012 2848.2555,71.715 C2848.6335,71.418 2848.9305,71.067 2849.2005,70.635 C2849.4435,70.257 2849.5785,69.771 2849.5785,69.231 C2849.5785,68.799 2849.4705,68.448 2849.3085,68.151 C2849.1195,67.881 2848.9035,67.665 2848.6335,67.503 C2848.3365,67.341 2848.0125,67.233 2847.6615,67.179 C2847.3105,67.125 2846.9865,67.071 2846.6625,67.071 C2846.2305,67.071 2845.7715,67.179 2845.3395,67.368 C2844.8535,67.584 2844.4485,67.773 2844.0705,67.962 C2843.8815,68.07 2843.7195,68.151 2843.5575,68.232 L2843.0715,68.475 C2842.7205,68.637 2842.4235,68.691 2842.2075,68.691 C2841.9645,68.691 2841.7485,68.583 2841.5595,68.367 C2841.3435,68.151 2841.2625,67.881 2841.2625,67.584 C2841.2625,67.314 2841.3975,67.017 2841.7215,66.747 C2842.0455,66.477 2842.4505,66.207 2842.9365,65.991 C2843.4225,65.775 2843.9355,65.613 2844.5295,65.451 C2845.0965,65.343 2845.6365,65.262 2846.1495,65.262 Z M2908.3355,67.8 C2907.4715,68.988 2906.6615,70.095 2905.8785,71.148 C2905.0685,72.228 2904.3125,73.2 2903.6105,74.091 C2903.4485,74.307 2903.2055,74.577 2902.9355,74.955 C2902.6655,75.333 2902.3955,75.711 2902.1255,76.116 C2901.8285,76.548 2901.5855,76.953 2901.3695,77.331 C2901.1535,77.736 2901.0725,78.06 2901.0725,78.276 C2901.0725,78.438 2901.1535,78.546 2901.3155,78.627 C2901.4775,78.708 2901.6125,78.735 2901.7745,78.735 C2902.0445,78.735 2902.4765,78.708 2903.0165,78.627 C2903.5565,78.573 2904.1235,78.465 2904.7175,78.357 L2906.4995,78.033 C2907.0935,77.925 2907.5795,77.817 2907.9845,77.709 Z" transform="translate(-2829)"/></svg>