<svg xmlns="http://www.w3.org/2000/svg" width="95" height="203" viewBox="0 0 95 203"><path fill="#131313" d="M2905.70898,87.765 C2907.95508,87.765 2909.90169,88.5136979 2911.54883,90.0110937 C2913.19596,91.6582292 2914.01953,93.6048437 2914.01953,95.8509375 C2914.01953,100.193385 2914.01953,106.707057 2914.01953,115.391953 C2914.01953,118.985703 2914.01953,124.301458 2914.01953,131.339219 C2914.01953,138.826198 2914.01953,150.131536 2914.01953,165.255234 C2914.01953,167.501328 2913.19596,169.447943 2911.54883,171.095078 C2909.90169,172.592474 2907.95508,173.341172 2905.70898,173.341172 C2903.46289,173.341172 2901.59115,172.592474 2900.09375,171.095078 C2898.44661,169.447943 2897.62305,167.501328 2897.62305,165.255234 C2897.62305,164.955755 2897.62305,164.431667 2897.62305,163.682969 C2893.87956,166.67776 2889.68685,168.998724 2885.04492,170.645859 C2880.25326,172.442734 2875.08724,173.341172 2869.54687,173.341172 C2864.15625,173.341172 2859.66406,172.592474 2856.07031,171.095078 C2852.47656,169.597682 2849.55664,167.651068 2847.31055,165.255234 C2843.11784,160.763047 2840.72201,155.597031 2840.12305,149.757188 C2839.37435,143.917344 2839,139.275417 2839,135.831406 C2839,126.996771 2839,113.669948 2839,95.8509375 C2839,93.6048437 2839.82357,91.6582292 2841.4707,90.0110937 C2842.9681,88.5136979 2844.83984,87.765 2847.08594,87.765 C2849.33203,87.765 2851.27865,88.5136979 2852.92578,90.0110937 C2854.42318,91.6582292 2855.17187,93.6048437 2855.17187,95.8509375 C2855.17187,104.685573 2855.17187,118.012396 2855.17187,135.831406 C2855.17187,144.216823 2856.14518,149.832057 2858.0918,152.677109 C2860.18815,155.671901 2864.00651,157.169297 2869.54687,157.169297 C2876.13542,157.169297 2882.49935,154.773464 2888.63867,149.981797 C2894.62826,145.19013 2897.62305,138.975938 2897.62305,131.339219 C2897.62305,127.745469 2897.62305,122.429714 2897.62305,115.391953 C2897.62305,111.049505 2897.62305,104.535833 2897.62305,95.8509375 C2897.62305,93.6048437 2898.44661,91.6582292 2900.09375,90.0110937 C2901.59115,88.5136979 2903.46289,87.765 2905.70898,87.765 Z M2887.89648,105.958359 C2888.04622,105.958359 2888.19596,105.958359 2888.3457,105.958359 C2888.64518,105.958359 2888.86979,105.958359 2889.01953,105.958359 C2889.16927,105.958359 2889.39388,105.958359 2889.69336,105.958359 C2889.8431,105.958359 2889.99284,105.958359 2890.14258,105.958359 C2890.14258,108.803411 2890.14258,113.220729 2890.14258,119.210312 C2889.69336,119.210312 2888.94466,119.210312 2887.89648,119.210312 C2887.89648,116.964219 2887.89648,114.718125 2887.89648,112.472031 C2887.89648,110.225937 2887.89648,108.054714 2887.89648,105.958359 Z M2892.38867,119.210312 C2891.63997,122.055365 2890.51693,126.248073 2889.01953,131.788437 C2888.27083,128.943385 2887.14779,124.750677 2885.65039,119.210312 C2886.09961,119.210312 2891.34049,119.210312 2892.38867,119.210312 Z M2831.51953,136.280625 C2831.51953,148.85875 2833.76562,158.891302 2838.25781,166.378281 C2842.75,173.86526 2849.48828,178.731797 2858.47266,180.977891 C2858.47266,181.427109 2858.39779,182.175807 2858.24805,183.223984 C2854.05534,182.175807 2850.38672,180.678411 2847.24219,178.731797 C2844.2474,176.635443 2841.62695,174.314479 2839.38086,171.768906 C2835.33789,166.8275 2832.64258,161.137396 2831.29492,154.698594 C2829.94727,148.409531 2829.27344,142.270208 2829.27344,136.280625 C2829.27344,129.542344 2829.27344,119.434922 2829.27344,105.958359 C2829.42318,105.958359 2829.57292,105.958359 2829.72266,105.958359 C2830.02214,105.958359 2830.24674,105.958359 2830.39648,105.958359 C2830.54622,105.958359 2830.69596,105.958359 2830.8457,105.958359 C2831.14518,105.958359 2831.36979,105.958359 2831.51953,105.958359 C2831.51953,110.899766 2831.51953,115.916042 2831.51953,121.007187 C2831.51953,126.098333 2831.51953,131.189479 2831.51953,136.280625 Z M2858.69727,178.956406 C2861.39258,180.004583 2865.43555,181.576849 2870.82617,183.673203 C2867.98112,184.122422 2863.71354,184.79625 2858.02344,185.694687 C2858.02344,185.095729 2858.54753,179.854844 2858.69727,178.956406 Z M2875.2835,101 C2875.9855,101 2876.6605,101.135 2877.2815,101.405 C2877.9025,101.675 2878.4425,102.026 2878.9015,102.458 C2879.3335,102.917 2879.6845,103.43 2879.9545,103.97 C2880.1975,104.537 2880.3325,105.104 2880.3325,105.671 C2880.3325,106.778 2880.1435,107.804 2879.7655,108.776 C2879.3605,109.775 2878.7665,110.639 2878.0105,111.395 C2877.3895,111.989 2876.7955,112.556 2876.2015,113.15 L2874.3925,114.905 L2873.2855,115.958 C2872.8805,116.336 2872.3675,116.795 2871.7465,117.308 C2872.6375,117.2 2873.3935,117.146 2873.9875,117.092 C2874.5815,117.065 2875.1485,117.038 2875.6885,116.984 C2876.2555,116.957 2876.8495,116.93 2877.4975,116.93 C2878.1185,116.93 2878.7125,116.876 2879.3065,116.822 L2879.6845,116.768 L2880.0625,116.687 C2880.2785,116.633 2880.5215,116.606 2880.7645,116.606 C2881.0885,116.606 2881.3585,116.768 2881.6015,117.092 C2881.8445,117.416 2881.9795,117.74 2881.9795,118.118 C2881.9795,118.361 2881.8715,118.55 2881.7095,118.658 C2881.5475,118.82 2881.3855,118.874 2881.2235,118.874 C2880.6295,118.874 2880.0625,118.847 2879.4955,118.739 C2878.9015,118.658 2878.3075,118.604 2877.7405,118.604 C2876.7145,118.604 2875.6615,118.658 2874.5815,118.766 C2873.4745,118.874 2872.4215,118.982 2871.3955,119.117 C2871.2605,119.144 2871.1255,119.171 2871.0175,119.198 C2870.8825,119.225 2870.7475,119.252 2870.6125,119.279 C2870.3425,119.333 2870.0995,119.36 2869.8835,119.36 C2869.5325,119.36 2869.2355,119.279 2868.9655,119.063 C2868.6685,118.874 2868.5335,118.577 2868.5335,118.199 C2868.5335,117.956 2868.5875,117.74 2868.6955,117.524 C2868.8035,117.362 2868.9655,117.173 2869.1545,116.984 C2869.3705,116.768 2869.5595,116.552 2869.7755,116.336 C2869.9915,116.12 2870.2075,115.931 2870.4775,115.715 C2871.3955,114.986 2872.2865,114.23 2873.1235,113.42 L2875.6885,111.017 C2876.0125,110.693 2876.3635,110.342 2876.6875,109.964 C2876.9845,109.613 2877.2545,109.235 2877.4975,108.803 C2877.7405,108.398 2877.9295,107.966 2878.0915,107.48 C2878.2535,107.021 2878.3345,106.535 2878.3345,105.995 C2878.3345,105.563 2878.2535,105.158 2878.0915,104.753 C2877.9295,104.375 2877.7135,104.024 2877.4435,103.7 C2877.1465,103.403 2876.8225,103.16 2876.4445,102.971 C2876.0665,102.809 2875.6345,102.701 2875.2025,102.701 C2874.3925,102.701 2873.7445,102.89 2873.2855,103.241 C2872.7995,103.619 2872.3675,104.105 2871.9895,104.753 C2871.8815,104.915 2871.8275,105.05 2871.7735,105.212 C2871.7195,105.374 2871.6385,105.536 2871.5845,105.671 C2871.5035,105.833 2871.4225,105.995 2871.3415,106.13 C2871.2605,106.292 2871.1795,106.427 2871.1255,106.508 C2870.9635,106.67 2870.8285,106.805 2870.7205,106.886 C2870.5855,106.994 2870.4235,107.021 2870.2345,107.021 C2869.9645,107.021 2869.7215,106.913 2869.4785,106.67 C2869.2085,106.454 2869.1005,106.211 2869.1005,105.887 C2869.1005,105.644 2869.1545,105.347 2869.2895,105.023 C2869.3975,104.699 2869.5595,104.375 2869.7485,104.051 C2869.9105,103.727 2870.1265,103.43 2870.3425,103.133 C2870.5585,102.863 2870.7475,102.62 2870.9635,102.458 C2871.5575,101.945 2872.2325,101.567 2872.9885,101.324 C2873.7445,101.108 2874.5005,101 2875.2835,101 Z M2817.6335,100.162 C2818.0115,100.162 2818.3085,100.27 2818.5515,100.432 C2818.7675,100.594 2818.8755,100.864 2818.8755,101.215 C2818.8755,101.404 2818.8485,101.566 2818.8485,101.728 L2818.7675,102.241 L2818.6595,102.754 C2818.6055,102.943 2818.5515,103.105 2818.5245,103.267 C2818.0385,105.13 2817.7415,107.02 2817.5795,108.91 C2817.4175,110.827 2817.3635,112.717 2817.3635,114.607 C2817.3635,114.877 2817.3635,115.201 2817.4175,115.552 C2817.4175,115.903 2817.4715,116.227 2817.5255,116.524 C2817.5525,116.848 2817.5795,117.145 2817.6335,117.388 C2817.6335,117.658 2817.6605,117.82 2817.6605,117.901 C2817.6605,118.063 2817.5255,118.198 2817.3095,118.306 C2817.0395,118.414 2816.7965,118.468 2816.5805,118.468 C2816.1485,118.468 2815.8245,118.36 2815.5815,118.09 C2815.3385,117.847 2815.2305,117.523 2815.2305,117.091 C2815.2305,116.335 2815.2575,115.444 2815.3115,114.418 C2815.3385,113.392 2815.3925,112.366 2815.4465,111.34 C2815.4735,110.8 2815.5275,110.179 2815.5815,109.531 L2815.7975,107.614 C2815.8785,106.966 2815.9595,106.372 2816.0675,105.778 C2816.1215,105.184 2816.2025,104.671 2816.2835,104.239 C2815.9055,104.644 2815.6085,104.995 2815.3385,105.292 C2815.0685,105.589 2814.8525,105.805 2814.7175,105.94 L2814.1775,106.534 C2813.9615,106.777 2813.7995,106.966 2813.6645,107.128 C2813.4485,107.344 2813.2595,107.506 2813.0705,107.614 C2812.8545,107.722 2812.6385,107.776 2812.3955,107.776 C2812.0715,107.776 2811.7475,107.695 2811.4775,107.479 C2811.1535,107.29 2811.0185,107.047 2811.0185,106.723 C2811.0185,106.642 2811.0455,106.561 2811.1535,106.453 C2811.2345,106.372 2811.3425,106.291 2811.4775,106.183 L2811.7205,106.021 C2811.7745,105.967 2811.8555,105.94 2811.9365,105.886 L2812.1525,105.778 C2812.2065,105.724 2812.2875,105.67 2812.3415,105.616 C2812.9085,105.076 2813.5025,104.482 2814.1235,103.807 C2814.7175,103.159 2815.2575,102.511 2815.7705,101.917 C2815.9325,101.728 2816.1215,101.512 2816.2835,101.296 C2816.4185,101.08 2816.5805,100.891 2816.7965,100.675 C2816.8775,100.594 2817.0125,100.486 2817.1745,100.351 C2817.3365,100.243 2817.4715,100.162 2817.6335,100.162 Z M2830.45,98.03 C2832.79721,98.03 2834.7,99.9327898 2834.7,102.28 C2834.7,104.62721 2832.79721,106.53 2830.45,106.53 C2828.10279,106.53 2826.2,104.62721 2826.2,102.28 C2826.2,99.9327898 2828.10279,98.03 2830.45,98.03 Z M2888.85,98.03 C2891.19721,98.03 2893.1,99.9327898 2893.1,102.28 C2893.1,104.62721 2891.19721,106.53 2888.85,106.53 C2886.50279,106.53 2884.6,104.62721 2884.6,102.28 C2884.6,99.9327898 2886.50279,98.03 2888.85,98.03 Z M2830.45,99.03 C2828.65507,99.03 2827.2,100.485075 2827.2,102.28 C2827.2,104.074925 2828.65507,105.53 2830.45,105.53 C2832.24493,105.53 2833.7,104.074925 2833.7,102.28 C2833.7,100.485075 2832.24493,99.03 2830.45,99.03 Z M2888.85,99.03 C2887.05507,99.03 2885.6,100.485075 2885.6,102.28 C2885.6,104.074925 2887.05507,105.53 2888.85,105.53 C2890.64493,105.53 2892.1,104.074925 2892.1,102.28 C2892.1,100.485075 2890.64493,99.03 2888.85,99.03 Z M2850.08594,60.765 C2852.33203,60.765 2854.27865,61.5136979 2855.92578,63.0110937 C2857.57292,64.6582292 2858.39648,66.6048437 2858.39648,68.8509375 C2858.39648,71.0970312 2857.57292,72.968776 2855.92578,74.4661719 C2854.27865,76.1133073 2852.33203,76.936875 2850.08594,76.936875 C2847.98958,76.936875 2846.11784,76.1133073 2844.4707,74.4661719 C2842.82357,72.968776 2842,71.0970312 2842,68.8509375 C2842,66.6048437 2842.82357,64.6582292 2844.4707,63.0110937 C2846.11784,61.5136979 2847.98958,60.765 2850.08594,60.765 Z M2903.08594,60.765 C2905.33203,60.765 2907.27865,61.5136979 2908.92578,63.0110937 C2910.57292,64.6582292 2911.39648,66.6048437 2911.39648,68.8509375 C2911.39648,71.0970312 2910.57292,72.968776 2908.92578,74.4661719 C2907.27865,76.1133073 2905.33203,76.936875 2903.08594,76.936875 C2900.98958,76.936875 2899.11784,76.1133073 2897.4707,74.4661719 C2895.82357,72.968776 2895,71.0970312 2895,68.8509375 C2895,66.6048437 2895.82357,64.6582292 2897.4707,63.0110937 C2899.11784,61.5136979 2900.98958,60.765 2903.08594,60.765 Z M2908.8755,35.703 C2909.0105,35.703 2909.1725,35.73 2909.3885,35.784 C2909.5775,35.838 2909.7665,35.892 2909.9555,36 C2910.1175,36.108 2910.2525,36.216 2910.3875,36.324 C2910.4955,36.459 2910.5765,36.594 2910.5765,36.756 C2910.5765,37.08 2910.5495,37.377 2910.4955,37.674 C2910.4415,37.971 2910.4145,38.268 2910.4145,38.565 C2910.3605,39.375 2910.3065,40.185 2910.2795,40.968 C2910.2255,41.778 2910.1715,42.507 2910.1715,43.209 C2910.1175,43.911 2910.0905,44.559 2910.0905,45.126 C2910.0635,45.72 2910.0635,46.179 2910.0635,46.557 C2910.0365,46.827 2910.0365,47.07 2910.0365,47.313 C2910.0365,47.583 2910.0365,47.88 2910.0635,48.231 C2910.2795,48.177 2910.5765,48.123 2910.9815,48.042 C2911.3595,47.988 2911.7645,47.961 2912.1965,47.961 C2912.8985,47.961 2913.2765,48.312 2913.2765,48.96 C2913.2765,49.23 2913.1955,49.446 2913.0335,49.608 C2912.8715,49.797 2912.6555,49.878 2912.4125,49.878 L2909.9825,49.932 L2909.9825,51.525 C2909.9825,52.011 2910.0095,52.47 2910.1175,52.902 C2910.2255,53.334 2910.2795,53.793 2910.2795,54.252 C2910.2795,54.576 2910.1445,54.792 2909.9285,54.954 C2909.6855,55.089 2909.4155,55.17 2909.1455,55.17 C2908.2815,55.17 2907.8495,54.657 2907.8495,53.604 C2907.8495,53.388 2907.8495,52.929 2907.9035,52.281 L2907.9575,50.175 C2907.3095,50.283 2906.7695,50.364 2906.2835,50.472 C2905.7705,50.58 2905.2845,50.661 2904.8255,50.769 L2904.0155,50.958 C2903.7455,51.039 2903.4755,51.093 2903.2055,51.147 C2902.9085,51.201 2902.6115,51.255 2902.3415,51.282 C2902.0445,51.336 2901.7745,51.363 2901.5315,51.363 C2901.2075,51.363 2900.8835,51.336 2900.5595,51.228 C2900.2085,51.12 2899.9115,50.985 2899.6415,50.796 C2899.3715,50.607 2899.1555,50.364 2898.9935,50.067 C2898.8315,49.797 2898.7505,49.473 2898.7505,49.095 C2898.7505,48.879 2898.7775,48.636 2898.8855,48.366 C2898.9665,48.123 2899.0745,47.88 2899.2095,47.61 C2899.3445,47.34 2899.4795,47.097 2899.6415,46.854 C2899.8035,46.638 2899.9385,46.422 2900.1005,46.233 C2901.2615,44.64 2902.4495,43.101 2903.6915,41.589 C2904.9335,40.104 2906.1485,38.565 2907.3365,36.972 C2907.4175,36.837 2907.5255,36.702 2907.6335,36.54 C2907.7145,36.405 2907.8225,36.27 2907.9575,36.108 C2908.0655,36 2908.2005,35.892 2908.3895,35.811 C2908.5515,35.757 2908.7135,35.703 2908.8755,35.703 Z M2846.1495,36.027 C2846.7975,36.027 2847.4455,36.108 2848.0935,36.216 C2848.7415,36.351 2849.3355,36.567 2849.8755,36.864 C2850.4155,37.188 2850.8475,37.62 2851.1715,38.133 C2851.4955,38.673 2851.6575,39.321 2851.6575,40.077 C2851.6575,40.914 2851.4685,41.616 2851.1175,42.21 C2850.7395,42.804 2850.1185,43.398 2849.2545,43.965 C2849.9025,44.127 2850.5235,44.343 2851.0635,44.586 C2851.6035,44.829 2852.0895,45.126 2852.4945,45.45 C2852.8725,45.828 2853.1965,46.233 2853.4395,46.692 C2853.6555,47.178 2853.7635,47.718 2853.7635,48.312 C2853.7635,49.338 2853.5475,50.229 2853.1155,50.985 C2852.6565,51.768 2852.0895,52.416 2851.3875,52.956 C2850.6855,53.496 2849.8755,53.874 2849.0115,54.144 C2848.1205,54.441 2847.2295,54.576 2846.3655,54.576 C2846.0415,54.576 2845.6635,54.549 2845.2315,54.468 C2844.7725,54.414 2844.3135,54.333 2843.8545,54.225 C2843.3685,54.117 2842.9095,54.009 2842.4775,53.847 C2842.0185,53.712 2841.6405,53.55 2841.3165,53.388 C2841.0465,53.253 2840.8035,53.064 2840.5875,52.794 C2840.3445,52.578 2840.2365,52.281 2840.2365,51.957 C2840.2365,51.66 2840.3175,51.417 2840.5335,51.228 C2840.7225,51.039 2840.9385,50.931 2841.2085,50.931 C2841.3435,50.931 2841.5325,51.012 2841.7485,51.12 C2841.8295,51.174 2841.9375,51.228 2842.0455,51.282 C2842.1535,51.336 2842.2885,51.417 2842.4505,51.498 C2842.6935,51.66 2842.9365,51.795 2843.1795,51.93 C2843.4225,52.092 2843.6925,52.2 2843.9625,52.281 C2844.7185,52.578 2845.4475,52.713 2846.1225,52.713 C2846.7165,52.713 2847.3105,52.632 2847.9315,52.443 C2848.5525,52.281 2849.1195,52.011 2849.6055,51.66 C2850.0915,51.309 2850.5235,50.85 2850.8475,50.31 C2851.1445,49.797 2851.3065,49.176 2851.3065,48.447 C2851.3065,48.015 2851.1985,47.61 2851.0095,47.259 C2850.7935,46.935 2850.5505,46.638 2850.2535,46.395 C2849.9295,46.179 2849.6055,45.99 2849.2275,45.828 C2848.8495,45.666 2848.4985,45.558 2848.1475,45.45 C2847.9585,45.423 2847.7695,45.369 2847.6075,45.315 C2847.4185,45.261 2847.2295,45.234 2847.0405,45.234 C2846.7975,45.234 2846.5815,45.261 2846.3655,45.315 C2846.1495,45.369 2845.9335,45.45 2845.7175,45.531 C2845.5015,45.612 2845.3125,45.693 2845.0965,45.747 C2844.8805,45.828 2844.6645,45.855 2844.4485,45.855 C2844.1515,45.855 2843.8815,45.747 2843.6115,45.504 C2843.3145,45.261 2843.1795,44.991 2843.1795,44.667 C2843.1795,44.397 2843.2605,44.181 2843.4225,44.019 C2843.5035,43.938 2843.6655,43.857 2843.9355,43.776 C2844.1785,43.722 2844.4215,43.668 2844.6915,43.668 L2845.0965,43.668 C2845.4205,43.668 2845.7175,43.641 2846.0145,43.56 C2846.3115,43.506 2846.6625,43.371 2847.0945,43.182 C2847.4995,43.02 2847.8775,42.777 2848.2555,42.48 C2848.6335,42.183 2848.9305,41.832 2849.2005,41.4 C2849.4435,41.022 2849.5785,40.536 2849.5785,39.996 C2849.5785,39.564 2849.4705,39.213 2849.3085,38.916 C2849.1195,38.646 2848.9035,38.43 2848.6335,38.268 C2848.3365,38.106 2848.0125,37.998 2847.6615,37.944 C2847.3105,37.89 2846.9865,37.836 2846.6625,37.836 C2846.2305,37.836 2845.7715,37.944 2845.3395,38.133 C2844.8535,38.349 2844.4485,38.538 2844.0705,38.727 C2843.8815,38.835 2843.7195,38.916 2843.5575,38.997 L2843.0715,39.24 C2842.7205,39.402 2842.4235,39.456 2842.2075,39.456 C2841.9645,39.456 2841.7485,39.348 2841.5595,39.132 C2841.3435,38.916 2841.2625,38.646 2841.2625,38.349 C2841.2625,38.079 2841.3975,37.782 2841.7215,37.512 C2842.0455,37.242 2842.4505,36.972 2842.9365,36.756 C2843.4225,36.54 2843.9355,36.378 2844.5295,36.216 C2845.0965,36.108 2845.6365,36.027 2846.1495,36.027 Z M2908.3355,38.565 C2907.4715,39.753 2906.6615,40.86 2905.8785,41.913 C2905.0685,42.993 2904.3125,43.965 2903.6105,44.856 C2903.4485,45.072 2903.2055,45.342 2902.9355,45.72 C2902.6655,46.098 2902.3955,46.476 2902.1255,46.881 C2901.8285,47.313 2901.5855,47.718 2901.3695,48.096 C2901.1535,48.501 2901.0725,48.825 2901.0725,49.041 C2901.0725,49.203 2901.1535,49.311 2901.3155,49.392 C2901.4775,49.473 2901.6125,49.5 2901.7745,49.5 C2902.0445,49.5 2902.4765,49.473 2903.0165,49.392 C2903.5565,49.338 2904.1235,49.23 2904.7175,49.122 L2906.4995,48.798 C2907.0935,48.69 2907.5795,48.582 2907.9845,48.474 Z" transform="translate(-2829 -31.765)"/></svg>