<svg xmlns="http://www.w3.org/2000/svg" width="97" height="203" viewBox="0 0 97 203"><path fill="#131313" d="M68.7246094,90.3806124 C69.1738281,90.530352 69.5481771,90.6800916 69.8476562,90.8298311 C70.296875,91.1293103 70.671224,91.3539197 70.9707031,91.5036593 C71.719401,90.4554822 72.6927083,89.5570447 73.890625,88.8083468 C75.0885417,88.2093884 76.3613281,87.9099093 77.7089844,87.9099093 C80.1048177,87.9099093 82.0514323,88.6586072 83.5488281,90.156003 C85.1959635,91.8031384 86.0195312,93.749753 86.0195312,95.9958468 L86.0195312,165.400144 C86.0195312,167.646237 85.1959635,169.592852 83.5488281,171.239987 C81.9016927,172.737383 79.9550781,173.486081 77.7089844,173.486081 C75.7623698,173.486081 74.0403646,172.887123 72.5429688,171.689206 C71.0455729,170.491289 70.1471354,168.919024 69.8476562,166.972409 C66.5533854,168.919024 62.5852865,170.491289 57.9433594,171.689206 C53.3014323,172.887123 47.9108073,173.486081 41.7714844,173.486081 C35.0332031,173.486081 29.2682292,171.913816 24.4765625,168.769284 C19.5351562,165.624753 15.9414062,161.132566 13.6953125,155.292722 C11.8984375,150.800534 11,146.008868 11,140.917722 C11,136.425534 11.5989583,131.633868 12.796875,126.542722 C15.7916667,115.611732 20.9576823,106.702227 28.2949219,99.8142061 C34.2845052,94.124102 40.8730469,90.4554822 48.0605469,88.8083468 C55.3977865,87.0114718 62.2858073,87.5355603 68.7246094,90.3806124 Z M51.9316406,104.064479 C47.8886719,104.813177 43.6959635,107.20901 39.3535156,111.251979 C34.2623698,115.893906 30.6686198,122.033229 28.5722656,129.669948 C26.4759115,137.156927 26.4759115,143.595729 28.5722656,148.986354 C29.6204427,151.681667 31.1927083,153.628281 33.2890625,154.826198 C35.3854167,156.173854 38.155599,156.847682 41.5996094,156.847682 C51.6321615,156.847682 58.5950521,155.200547 62.4882812,151.906276 C66.3815104,148.612005 68.702474,146.216172 69.4511719,144.718776 L69.4511719,117.091823 C69.4511719,114.097031 68.8522135,111.551458 67.6542969,109.455104 C66.3066406,107.35875 64.4348958,105.861354 62.0390625,104.962917 C59.34375,103.765 55.9746094,103.465521 51.9316406,104.064479 Z M13.6335,82.162 C14.0115,82.162 14.3085,82.27 14.5515,82.432 C14.7675,82.594 14.8755,82.864 14.8755,83.215 C14.8755,83.404 14.8485,83.566 14.8485,83.728 L14.7675,84.241 L14.6595,84.754 C14.6055,84.943 14.5515,85.105 14.5245,85.267 C14.0385,87.13 13.7415,89.02 13.5795,90.91 C13.4175,92.827 13.3635,94.717 13.3635,96.607 C13.3635,96.877 13.3635,97.201 13.4175,97.552 C13.4175,97.903 13.4715,98.227 13.5255,98.524 C13.5525,98.848 13.5795,99.145 13.6335,99.388 C13.6335,99.658 13.6605,99.82 13.6605,99.901 C13.6605,100.063 13.5255,100.198 13.3095,100.306 C13.0395,100.414 12.7965,100.468 12.5805,100.468 C12.1485,100.468 11.8245,100.36 11.5815,100.09 C11.3385,99.847 11.2305,99.523 11.2305,99.091 C11.2305,98.335 11.2575,97.444 11.3115,96.418 C11.3385,95.392 11.3925,94.366 11.4465,93.34 C11.4735,92.8 11.5275,92.179 11.5815,91.531 L11.7975,89.614 C11.8785,88.966 11.9595,88.372 12.0675,87.778 C12.1215,87.184 12.2025,86.671 12.2835,86.239 C11.9055,86.644 11.6085,86.995 11.3385,87.292 C11.0685,87.589 10.8525,87.805 10.7175,87.94 L10.1775,88.534 C9.9615,88.777 9.7995,88.966 9.6645,89.128 C9.4485,89.344 9.2595,89.506 9.0705,89.614 C8.8545,89.722 8.6385,89.776 8.3955,89.776 C8.0715,89.776 7.7475,89.695 7.4775,89.479 C7.1535,89.29 7.0185,89.047 7.0185,88.723 C7.0185,88.642 7.0455,88.561 7.1535,88.453 C7.2345,88.372 7.3425,88.291 7.4775,88.183 L7.7205,88.021 C7.7745,87.967 7.8555,87.94 7.9365,87.886 L8.1525,87.778 C8.2065,87.724 8.2875,87.67 8.3415,87.616 C8.9085,87.076 9.5025,86.482 10.1235,85.807 C10.7175,85.159 11.2575,84.511 11.7705,83.917 C11.9325,83.728 12.1215,83.512 12.2835,83.296 C12.4185,83.08 12.5805,82.891 12.7965,82.675 C12.8775,82.594 13.0125,82.486 13.1745,82.351 C13.3365,82.243 13.4715,82.162 13.6335,82.162 Z M64.75,73.465 C67.0972102,73.465 69,75.3677898 69,77.715 C69,80.0622102 67.0972102,81.965 64.75,81.965 C62.8262327,81.965 61.2010003,80.6868203 60.6772171,78.9333752 L60.7402344,78.936875 C56.0983073,78.6373958 51.4563802,79.0866146 46.8144531,80.2845312 C42.2623698,81.2802995 37.9129964,83.0193376 33.766333,85.5016455 L33.1132812,85.8997656 C33.4127604,86.1992448 33.8619792,86.7233333 34.4609375,87.4720312 C31.765625,88.5202083 27.797526,90.1673437 22.5566406,92.4134375 C24.203776,90.1673437 26.749349,86.7233333 30.1933594,82.0814062 C30.4628906,82.4857031 30.9143555,83.0112891 31.5477539,83.6581641 L31.765625,83.8782812 C36.4075521,81.1829687 41.1992187,79.2363542 46.140625,78.0384375 C51.1140871,76.7219328 55.9446522,76.2628103 60.6323203,76.6610698 C61.0995887,74.824417 62.7660399,73.465 64.75,73.465 Z M64.75,74.465 C62.9550746,74.465 61.5,75.9200746 61.5,77.715 C61.5,79.5099254 62.9550746,80.965 64.75,80.965 C66.5449254,80.965 68,79.5099254 68,77.715 C68,75.9200746 66.5449254,74.465 64.75,74.465 Z M96.75,97.465 C99.0972102,97.465 101,99.3677898 101,101.715 C101,103.699322 99.6400876,105.366018 97.8014085,105.833945 L97.8007812,152.60875 L95.5546875,152.60875 L95.554881,105.794657 C93.789493,105.278347 92.5,103.647262 92.5,101.715 C92.5,99.3677898 94.4027898,97.465 96.75,97.465 Z M96.75,98.465 C94.9550746,98.465 93.5,99.9200746 93.5,101.715 C93.5,103.509925 94.9550746,104.965 96.75,104.965 C98.5449254,104.965 100,103.509925 100,101.715 C100,99.9200746 98.5449254,98.465 96.75,98.465 Z M95.5546875,154.854844 C95.5546875,154.405625 95.5546875,153.656927 95.5546875,152.60875 C95.1054687,152.60875 94.3567708,152.60875 93.3085937,152.60875 C94.0572917,155.453802 95.1803385,159.64651 96.6777344,165.186875 C97.4264323,162.341823 98.5494792,158.149115 100.046875,152.60875 C99.4479167,152.60875 98.6992187,152.60875 97.8007812,152.60875 C97.8007812,153.057969 97.8007812,153.806667 97.8007812,154.854844 C97.3515625,154.854844 96.6028646,154.854844 95.5546875,154.854844 Z M95.5546875,154.854844 C96.0039062,154.854844 96.7526042,154.854844 97.8007812,154.854844 C97.8007812,154.405625 97.8007812,153.656927 97.8007812,152.60875 C97.3515625,152.60875 96.6028646,152.60875 95.5546875,152.60875 C95.5546875,153.057969 95.5546875,153.806667 95.5546875,154.854844 Z M120.9795,107.118 C120.9795,106.74 120.8445,106.416 120.6015,106.092 C120.3585,105.768 120.0885,105.606 119.7645,105.606 C119.5215,105.606 119.2785,105.633 119.0625,105.687 L118.6845,105.768 L118.3065,105.822 C117.7125,105.876 117.1185,105.93 116.4975,105.93 C115.8495,105.93 115.2555,105.957 114.6885,105.984 C114.1485,106.038 113.5815,106.065 112.9875,106.092 C112.3935,106.146 111.6375,106.2 110.7465,106.308 C111.3675,105.795 111.8805,105.336 112.2855,104.958 L113.3925,103.905 L115.2015,102.15 C115.7955,101.556 116.3895,100.989 117.0105,100.395 C117.7665,99.639 118.3605,98.775 118.7655,97.776 C119.1435,96.804 119.3325,95.778 119.3325,94.671 C119.3325,94.104 119.1975,93.537 118.9545,92.97 C118.6845,92.43 118.3335,91.917 117.9015,91.458 C117.4425,91.026 116.9025,90.675 116.2815,90.405 C115.6605,90.135 114.9855,90 114.2835,90 C113.5005,90 112.7445,90.108 111.9885,90.324 C111.2325,90.567 110.5575,90.945 109.9635,91.458 C109.7475,91.62 109.5585,91.863 109.3425,92.133 C109.1265,92.43 108.9105,92.727 108.7485,93.051 C108.5595,93.375 108.3975,93.699 108.2895,94.023 C108.1545,94.347 108.1005,94.644 108.1005,94.887 C108.1005,95.211 108.2085,95.454 108.4785,95.67 C108.7215,95.913 108.9645,96.021 109.2345,96.021 C109.4235,96.021 109.5855,95.994 109.7205,95.886 C109.8285,95.805 109.9635,95.67 110.1255,95.508 C110.1795,95.427 110.2605,95.292 110.3415,95.13 C110.4225,94.995 110.5035,94.833 110.5845,94.671 C110.6385,94.536 110.7195,94.374 110.7735,94.212 C110.8275,94.05 110.8815,93.915 110.9895,93.753 C111.3675,93.105 111.7995,92.619 112.2855,92.241 C112.7445,91.89 113.3925,91.701 114.2025,91.701 C114.6345,91.701 115.0665,91.809 115.4445,91.971 C115.8225,92.16 116.1465,92.403 116.4435,92.7 C116.7135,93.024 116.9295,93.375 117.0915,93.753 C117.2535,94.158 117.3345,94.563 117.3345,94.995 C117.3345,95.535 117.2535,96.021 117.0915,96.48 C116.9295,96.966 116.7405,97.398 116.4975,97.803 C116.2545,98.235 115.9845,98.613 115.6875,98.964 C115.3635,99.342 115.0125,99.693 114.6885,100.017 L112.1235,102.42 C111.2865,103.23 110.3955,103.986 109.4775,104.715 C109.2075,104.931 108.9915,105.12 108.7755,105.336 C108.5595,105.552 108.3705,105.768 108.1545,105.984 C107.9655,106.173 107.8035,106.362 107.6955,106.524 C107.5875,106.74 107.5335,106.956 107.5335,107.199 C107.5335,107.577 107.6685,107.874 107.9655,108.063 C108.2355,108.279 108.5325,108.36 108.8835,108.36 C109.0995,108.36 109.3425,108.333 109.6125,108.279 C109.7475,108.252 109.8825,108.225 110.0175,108.198 C110.1255,108.171 110.2605,108.144 110.3955,108.117 C111.4215,107.982 112.4745,107.874 113.5815,107.766 C114.6615,107.658 115.7145,107.604 116.7405,107.604 C117.3075,107.604 117.9015,107.658 118.4955,107.739 C119.0625,107.847 119.6295,107.874 120.2235,107.874 C120.3855,107.874 120.5475,107.82 120.7095,107.658 C120.8715,107.55 120.9795,107.361 120.9795,107.118 Z M15.7635,43.312 C15.7635,42.718 15.6555,42.178 15.4395,41.692 C15.1965,41.233 14.8725,40.828 14.4945,40.45 C14.0895,40.126 13.6035,39.829 13.0635,39.586 C12.5235,39.343 11.9025,39.127 11.2545,38.965 C12.1185,38.398 12.7395,37.804 13.1175,37.21 C13.4685,36.616 13.6575,35.914 13.6575,35.077 C13.6575,34.321 13.4955,33.673 13.1715,33.133 C12.8475,32.62 12.4155,32.188 11.8755,31.864 C11.3355,31.567 10.7415,31.351 10.0935,31.216 C9.4455,31.108 8.7975,31.027 8.1495,31.027 C7.6365,31.027 7.0965,31.108 6.5295,31.216 C5.9355,31.378 5.4225,31.54 4.9365,31.756 C4.4505,31.972 4.0455,32.242 3.7215,32.512 C3.3975,32.782 3.2625,33.079 3.2625,33.349 C3.2625,33.646 3.3435,33.916 3.5595,34.132 C3.7485,34.348 3.9645,34.456 4.2075,34.456 C4.4235,34.456 4.7205,34.402 5.0715,34.24 L5.5575,33.997 C5.7195,33.916 5.8815,33.835 6.0705,33.727 C6.4485,33.538 6.8535,33.349 7.3395,33.133 C7.7715,32.944 8.2305,32.836 8.6625,32.836 C8.9865,32.836 9.3105,32.89 9.6615,32.944 C10.0125,32.998 10.3365,33.106 10.6335,33.268 C10.9035,33.43 11.1195,33.646 11.3085,33.916 C11.4705,34.213 11.5785,34.564 11.5785,34.996 C11.5785,35.536 11.4435,36.022 11.2005,36.4 C10.9305,36.832 10.6335,37.183 10.2555,37.48 C9.8775,37.777 9.4995,38.02 9.0945,38.182 C8.6625,38.371 8.3115,38.506 8.0145,38.56 C7.7175,38.641 7.4205,38.668 7.0965,38.668 L6.6915,38.668 C6.4215,38.668 6.1785,38.722 5.9355,38.776 C5.6655,38.857 5.5035,38.938 5.4225,39.019 C5.2605,39.181 5.1795,39.397 5.1795,39.667 C5.1795,39.991 5.3145,40.261 5.6115,40.504 C5.8815,40.747 6.1515,40.855 6.4485,40.855 C6.6645,40.855 6.8805,40.828 7.0965,40.747 C7.3125,40.693 7.5015,40.612 7.7175,40.531 C7.9335,40.45 8.1495,40.369 8.3655,40.315 C8.5815,40.261 8.7975,40.234 9.0405,40.234 C9.2295,40.234 9.4185,40.261 9.6075,40.315 C9.7695,40.369 9.9585,40.423 10.1475,40.45 C10.4985,40.558 10.8495,40.666 11.2275,40.828 C11.6055,40.99 11.9295,41.179 12.2535,41.395 C12.5505,41.638 12.7935,41.935 13.0095,42.259 C13.1985,42.61 13.3065,43.015 13.3065,43.447 C13.3065,44.176 13.1445,44.797 12.8475,45.31 C12.5235,45.85 12.0915,46.309 11.6055,46.66 C11.1195,47.011 10.5525,47.281 9.9315,47.443 C9.3105,47.632 8.7165,47.713 8.1225,47.713 C7.4475,47.713 6.7185,47.578 5.9625,47.281 C5.6925,47.2 5.4225,47.092 5.1795,46.93 C4.9365,46.795 4.6935,46.66 4.4505,46.498 C4.2885,46.417 4.1535,46.336 4.0455,46.282 C3.9375,46.228 3.8295,46.174 3.7485,46.12 C3.5325,46.012 3.3435,45.931 3.2085,45.931 C2.9385,45.931 2.7225,46.039 2.5335,46.228 C2.3175,46.417 2.2365,46.66 2.2365,46.957 C2.2365,47.281 2.3445,47.578 2.5875,47.794 C2.8035,48.064 3.0465,48.253 3.3165,48.388 C3.6405,48.55 4.0185,48.712 4.4775,48.847 C4.9095,49.009 5.3685,49.117 5.8545,49.225 C6.3135,49.333 6.7725,49.414 7.2315,49.468 C7.6635,49.549 8.0415,49.576 8.3655,49.576 C9.2295,49.576 10.1205,49.441 11.0115,49.144 C11.8755,48.874 12.6855,48.496 13.3875,47.956 C14.0895,47.416 14.6565,46.768 15.1155,45.985 C15.5475,45.229 15.7635,44.338 15.7635,43.312 Z M81.1964531,65.221 C81.1964531,63.205 80.3004531,61.637 78.9564531,60.517 C77.1644531,59.621 74.0284531,59.173 69.5484531,59.173 L48.4924531,59.173 L32.1404531,59.621 L19.1484531,59.621 C17.8044531,60.069 16.9084531,60.965 16.4604531,62.309 C15.7884531,63.653 15.5644531,64.773 15.5644531,65.669 C15.5644531,67.909 15.7884531,69.253 16.6844531,70.149 C17.5804531,71.045 18.4764531,71.493 19.8204531,71.493 L23.8524531,71.493 C26.0924531,71.493 28.5564531,71.493 31.4684531,71.269 L59.9164531,71.269 C63.5004531,71.493 66.8604531,71.493 69.9964531,71.493 L74.9244531,71.493 C76.4924531,71.493 78.0604531,71.045 79.4044531,69.925 C80.5244531,69.029 81.1964531,67.461 81.1964531,65.221 Z M22.75,44.265 C24.6623229,44.265 26.2796522,45.5280173 26.8133182,47.2653819 L53.4995,47.265 L53.5,45.265 C58.3016493,46.5627431 61.916104,47.5480665 64.3433642,48.2209703 L64.6181641,48.2972266 C59.6318359,49.6448828 55.9257812,50.5882422 53.5,51.1273047 L53.4995,49.265 L26.9338526,49.2660146 C26.5792091,51.2550217 24.8409417,52.765 22.75,52.765 C20.4027898,52.765 18.5,50.8622102 18.5,48.515 C18.5,46.1677898 20.4027898,44.265 22.75,44.265 Z M22.75,45.265 C20.9550746,45.265 19.5,46.7200746 19.5,48.515 C19.5,50.3099254 20.9550746,51.765 22.75,51.765 C24.5449254,51.765 26,50.3099254 26,48.515 C26,46.7200746 24.5449254,45.265 22.75,45.265 Z" transform="translate(0 -31.765)"/></svg>