<svg xmlns="http://www.w3.org/2000/svg" width="97" height="243" viewBox="0 0 97 243"><path fill="#131313" d="M68.7246094,82.6156124 C69.1738281,82.765352 69.5481771,82.9150916 69.8476562,83.0648311 C70.296875,83.3643103 70.671224,83.5889197 70.9707031,83.7386593 C71.719401,82.6904822 72.6927083,81.7920447 73.890625,81.0433468 C75.0885417,80.4443884 76.3613281,80.1449093 77.7089844,80.1449093 C80.1048177,80.1449093 82.0514323,80.8936072 83.5488281,82.391003 C85.1959635,84.0381384 86.0195312,85.984753 86.0195312,88.2308468 L86.0195312,157.635144 C86.0195312,159.881237 85.1959635,161.827852 83.5488281,163.474987 C81.9016927,164.972383 79.9550781,165.721081 77.7089844,165.721081 C75.7623698,165.721081 74.0403646,165.122123 72.5429688,163.924206 C71.0455729,162.726289 70.1471354,161.154024 69.8476562,159.207409 C66.5533854,161.154024 62.5852865,162.726289 57.9433594,163.924206 C53.3014323,165.122123 47.9108073,165.721081 41.7714844,165.721081 C35.0332031,165.721081 29.2682292,164.148816 24.4765625,161.004284 C19.5351562,157.859753 15.9414063,153.367566 13.6953125,147.527722 C11.8984375,143.035534 11,138.243868 11,133.152722 C11,128.660534 11.5989583,123.868868 12.796875,118.777722 C15.7916667,107.846732 20.9576823,98.937227 28.2949219,92.0492061 C34.2845052,86.359102 40.8730469,82.6904822 48.0605469,81.0433468 C55.3977865,79.2464718 62.2858073,79.7705603 68.7246094,82.6156124 Z M51.9316406,96.2994792 C47.8886719,97.0481771 43.6959635,99.4440104 39.3535156,103.486979 C34.2623698,108.128906 30.6686198,114.268229 28.5722656,121.904948 C26.4759115,129.391927 26.4759115,135.830729 28.5722656,141.221354 C29.6204427,143.916667 31.1927083,145.863281 33.2890625,147.061198 C35.3854167,148.408854 38.155599,149.082682 41.5996094,149.082682 C51.6321615,149.082682 58.5950521,147.435547 62.4882812,144.141276 C66.3815104,140.847005 68.702474,138.451172 69.4511719,136.953776 L69.4511719,109.326823 C69.4511719,106.332031 68.8522135,103.786458 67.6542969,101.690104 C66.3066406,99.59375 64.4348958,98.0963542 62.0390625,97.1979167 C59.34375,96 55.9746094,95.7005208 51.9316406,96.2994792 Z M13.6335,74.397 C14.0115,74.397 14.3085,74.505 14.5515,74.667 C14.7675,74.829 14.8755,75.099 14.8755,75.45 C14.8755,75.639 14.8485,75.801 14.8485,75.963 L14.7675,76.476 L14.6595,76.989 C14.6055,77.178 14.5515,77.34 14.5245,77.502 C14.0385,79.365 13.7415,81.255 13.5795,83.145 C13.4175,85.062 13.3635,86.952 13.3635,88.842 C13.3635,89.112 13.3635,89.436 13.4175,89.787 C13.4175,90.138 13.4715,90.462 13.5255,90.759 C13.5525,91.083 13.5795,91.38 13.6335,91.623 C13.6335,91.893 13.6605,92.055 13.6605,92.136 C13.6605,92.298 13.5255,92.433 13.3095,92.541 C13.0395,92.649 12.7965,92.703 12.5805,92.703 C12.1485,92.703 11.8245,92.595 11.5815,92.325 C11.3385,92.082 11.2305,91.758 11.2305,91.326 C11.2305,90.57 11.2575,89.679 11.3115,88.653 C11.3385,87.627 11.3925,86.601 11.4465,85.575 C11.4735,85.035 11.5275,84.414 11.5815,83.766 L11.7975,81.849 C11.8785,81.201 11.9595,80.607 12.0675,80.013 C12.1215,79.419 12.2025,78.906 12.2835,78.474 C11.9055,78.879 11.6085,79.23 11.3385,79.527 C11.0685,79.824 10.8525,80.04 10.7175,80.175 L10.1775,80.769 C9.9615,81.012 9.7995,81.201 9.6645,81.363 C9.4485,81.579 9.2595,81.741 9.0705,81.849 C8.8545,81.957 8.6385,82.011 8.3955,82.011 C8.0715,82.011 7.7475,81.93 7.4775,81.714 C7.1535,81.525 7.0185,81.282 7.0185,80.958 C7.0185,80.877 7.0455,80.796 7.1535,80.688 C7.2345,80.607 7.3425,80.526 7.4775,80.418 L7.7205,80.256 C7.7745,80.202 7.8555,80.175 7.9365,80.121 L8.1525,80.013 C8.2065,79.959 8.2875,79.905 8.3415,79.851 C8.9085,79.311 9.5025,78.717 10.1235,78.042 C10.7175,77.394 11.2575,76.746 11.7705,76.152 C11.9325,75.963 12.1215,75.747 12.2835,75.531 C12.4185,75.315 12.5805,75.126 12.7965,74.91 C12.8775,74.829 13.0125,74.721 13.1745,74.586 C13.3365,74.478 13.4715,74.397 13.6335,74.397 Z M64.75,65.7 C67.0972102,65.7 69,67.6027898 69,69.95 C69,72.2972102 67.0972102,74.2 64.75,74.2 C62.8262327,74.2 61.2010003,72.9218203 60.6772171,71.1683752 L60.7402344,71.171875 C56.0983073,70.8723958 51.4563802,71.3216146 46.8144531,72.5195312 C42.2623698,73.5152995 37.9129964,75.2543376 33.766333,77.7366455 L33.1132812,78.1347656 C33.4127604,78.4342448 33.8619792,78.9583333 34.4609375,79.7070312 C31.765625,80.7552083 27.797526,82.4023438 22.5566406,84.6484375 C24.203776,82.4023438 26.749349,78.9583333 30.1933594,74.3164062 C30.4628906,74.7207031 30.9143555,75.2462891 31.5477539,75.8931641 L31.765625,76.1132812 C36.4075521,73.4179688 41.1992187,71.4713542 46.140625,70.2734375 C51.1140871,68.9569328 55.9446522,68.4978103 60.6323203,68.8960698 C61.0995887,67.059417 62.7660399,65.7 64.75,65.7 Z M64.75,66.7 C62.9550746,66.7 61.5,68.1550746 61.5,69.95 C61.5,71.7449254 62.9550746,73.2 64.75,73.2 C66.5449254,73.2 68,71.7449254 68,69.95 C68,68.1550746 66.5449254,66.7 64.75,66.7 Z M96.75,89.7 C99.0972102,89.7 101,91.6027898 101,93.95 C101,95.9343215 99.6400876,97.6010185 97.8014085,98.0689451 L97.8007812,144.84375 L95.5546875,144.84375 L95.554881,98.0296571 C93.789493,97.5133472 92.5,95.8822622 92.5,93.95 C92.5,91.6027898 94.4027898,89.7 96.75,89.7 Z M96.75,90.7 C94.9550746,90.7 93.5,92.1550746 93.5,93.95 C93.5,95.7449254 94.9550746,97.2 96.75,97.2 C98.5449254,97.2 100,95.7449254 100,93.95 C100,92.1550746 98.5449254,90.7 96.75,90.7 Z M95.5546875,147.089844 C95.5546875,146.640625 95.5546875,145.891927 95.5546875,144.84375 C95.1054687,144.84375 94.3567708,144.84375 93.3085937,144.84375 C94.0572917,147.688802 95.1803385,151.88151 96.6777344,157.421875 C97.4264323,154.576823 98.5494792,150.384115 100.046875,144.84375 C99.4479167,144.84375 98.6992187,144.84375 97.8007812,144.84375 C97.8007812,145.292969 97.8007812,146.041667 97.8007812,147.089844 C97.3515625,147.089844 96.6028646,147.089844 95.5546875,147.089844 Z M95.5546875,147.089844 C96.0039062,147.089844 96.7526042,147.089844 97.8007812,147.089844 C97.8007812,146.640625 97.8007812,145.891927 97.8007812,144.84375 C97.3515625,144.84375 96.6028646,144.84375 95.5546875,144.84375 C95.5546875,145.292969 95.5546875,146.041667 95.5546875,147.089844 Z M120.9795,99.353 C120.9795,98.975 120.8445,98.651 120.6015,98.327 C120.3585,98.003 120.0885,97.841 119.7645,97.841 C119.5215,97.841 119.2785,97.868 119.0625,97.922 L118.6845,98.003 L118.3065,98.057 C117.7125,98.111 117.1185,98.165 116.4975,98.165 C115.8495,98.165 115.2555,98.192 114.6885,98.219 C114.1485,98.273 113.5815,98.3 112.9875,98.327 C112.3935,98.381 111.6375,98.435 110.7465,98.543 C111.3675,98.03 111.8805,97.571 112.2855,97.193 L113.3925,96.14 L115.2015,94.385 C115.7955,93.791 116.3895,93.224 117.0105,92.63 C117.7665,91.874 118.3605,91.01 118.7655,90.011 C119.1435,89.039 119.3325,88.013 119.3325,86.906 C119.3325,86.339 119.1975,85.772 118.9545,85.205 C118.6845,84.665 118.3335,84.152 117.9015,83.693 C117.4425,83.261 116.9025,82.91 116.2815,82.64 C115.6605,82.37 114.9855,82.235 114.2835,82.235 C113.5005,82.235 112.7445,82.343 111.9885,82.559 C111.2325,82.802 110.5575,83.18 109.9635,83.693 C109.7475,83.855 109.5585,84.098 109.3425,84.368 C109.1265,84.665 108.9105,84.962 108.7485,85.286 C108.5595,85.61 108.3975,85.934 108.2895,86.258 C108.1545,86.582 108.1005,86.879 108.1005,87.122 C108.1005,87.446 108.2085,87.689 108.4785,87.905 C108.7215,88.148 108.9645,88.256 109.2345,88.256 C109.4235,88.256 109.5855,88.229 109.7205,88.121 C109.8285,88.04 109.9635,87.905 110.1255,87.743 C110.1795,87.662 110.2605,87.527 110.3415,87.365 C110.4225,87.23 110.5035,87.068 110.5845,86.906 C110.6385,86.771 110.7195,86.609 110.7735,86.447 C110.8275,86.285 110.8815,86.15 110.9895,85.988 C111.3675,85.34 111.7995,84.854 112.2855,84.476 C112.7445,84.125 113.3925,83.936 114.2025,83.936 C114.6345,83.936 115.0665,84.044 115.4445,84.206 C115.8225,84.395 116.1465,84.638 116.4435,84.935 C116.7135,85.259 116.9295,85.61 117.0915,85.988 C117.2535,86.393 117.3345,86.798 117.3345,87.23 C117.3345,87.77 117.2535,88.256 117.0915,88.715 C116.9295,89.201 116.7405,89.633 116.4975,90.038 C116.2545,90.47 115.9845,90.848 115.6875,91.199 C115.3635,91.577 115.0125,91.928 114.6885,92.252 L112.1235,94.655 C111.2865,95.465 110.3955,96.221 109.4775,96.95 C109.2075,97.166 108.9915,97.355 108.7755,97.571 C108.5595,97.787 108.3705,98.003 108.1545,98.219 C107.9655,98.408 107.8035,98.597 107.6955,98.759 C107.5875,98.975 107.5335,99.191 107.5335,99.434 C107.5335,99.812 107.6685,100.109 107.9655,100.298 C108.2355,100.514 108.5325,100.595 108.8835,100.595 C109.0995,100.595 109.3425,100.568 109.6125,100.514 C109.7475,100.487 109.8825,100.46 110.0175,100.433 C110.1255,100.406 110.2605,100.379 110.3955,100.352 C111.4215,100.217 112.4745,100.109 113.5815,100.001 C114.6615,99.893 115.7145,99.839 116.7405,99.839 C117.3075,99.839 117.9015,99.893 118.4955,99.974 C119.0625,100.082 119.6295,100.109 120.2235,100.109 C120.3855,100.109 120.5475,100.055 120.7095,99.893 C120.8715,99.785 120.9795,99.596 120.9795,99.353 Z M15.7635,35.547 C15.7635,34.953 15.6555,34.413 15.4395,33.927 C15.1965,33.468 14.8725,33.063 14.4945,32.685 C14.0895,32.361 13.6035,32.064 13.0635,31.821 C12.5235,31.578 11.9025,31.362 11.2545,31.2 C12.1185,30.633 12.7395,30.039 13.1175,29.445 C13.4685,28.851 13.6575,28.149 13.6575,27.312 C13.6575,26.556 13.4955,25.908 13.1715,25.368 C12.8475,24.855 12.4155,24.423 11.8755,24.099 C11.3355,23.802 10.7415,23.586 10.0935,23.451 C9.4455,23.343 8.7975,23.262 8.1495,23.262 C7.6365,23.262 7.0965,23.343 6.5295,23.451 C5.9355,23.613 5.4225,23.775 4.9365,23.991 C4.4505,24.207 4.0455,24.477 3.7215,24.747 C3.3975,25.017 3.2625,25.314 3.2625,25.584 C3.2625,25.881 3.3435,26.151 3.5595,26.367 C3.7485,26.583 3.9645,26.691 4.2075,26.691 C4.4235,26.691 4.7205,26.637 5.0715,26.475 L5.5575,26.232 C5.7195,26.151 5.8815,26.07 6.0705,25.962 C6.4485,25.773 6.8535,25.584 7.3395,25.368 C7.7715,25.179 8.2305,25.071 8.6625,25.071 C8.9865,25.071 9.3105,25.125 9.6615,25.179 C10.0125,25.233 10.3365,25.341 10.6335,25.503 C10.9035,25.665 11.1195,25.881 11.3085,26.151 C11.4705,26.448 11.5785,26.799 11.5785,27.231 C11.5785,27.771 11.4435,28.257 11.2005,28.635 C10.9305,29.067 10.6335,29.418 10.2555,29.715 C9.8775,30.012 9.4995,30.255 9.0945,30.417 C8.6625,30.606 8.3115,30.741 8.0145,30.795 C7.7175,30.876 7.4205,30.903 7.0965,30.903 L6.6915,30.903 C6.4215,30.903 6.1785,30.957 5.9355,31.011 C5.6655,31.092 5.5035,31.173 5.4225,31.254 C5.2605,31.416 5.1795,31.632 5.1795,31.902 C5.1795,32.226 5.3145,32.496 5.6115,32.739 C5.8815,32.982 6.1515,33.09 6.4485,33.09 C6.6645,33.09 6.8805,33.063 7.0965,32.982 C7.3125,32.928 7.5015,32.847 7.7175,32.766 C7.9335,32.685 8.1495,32.604 8.3655,32.55 C8.5815,32.496 8.7975,32.469 9.0405,32.469 C9.2295,32.469 9.4185,32.496 9.6075,32.55 C9.7695,32.604 9.9585,32.658 10.1475,32.685 C10.4985,32.793 10.8495,32.901 11.2275,33.063 C11.6055,33.225 11.9295,33.414 12.2535,33.63 C12.5505,33.873 12.7935,34.17 13.0095,34.494 C13.1985,34.845 13.3065,35.25 13.3065,35.682 C13.3065,36.411 13.1445,37.032 12.8475,37.545 C12.5235,38.085 12.0915,38.544 11.6055,38.895 C11.1195,39.246 10.5525,39.516 9.9315,39.678 C9.3105,39.867 8.7165,39.948 8.1225,39.948 C7.4475,39.948 6.7185,39.813 5.9625,39.516 C5.6925,39.435 5.4225,39.327 5.1795,39.165 C4.9365,39.03 4.6935,38.895 4.4505,38.733 C4.2885,38.652 4.1535,38.571 4.0455,38.517 C3.9375,38.463 3.8295,38.409 3.7485,38.355 C3.5325,38.247 3.3435,38.166 3.2085,38.166 C2.9385,38.166 2.7225,38.274 2.5335,38.463 C2.3175,38.652 2.2365,38.895 2.2365,39.192 C2.2365,39.516 2.3445,39.813 2.5875,40.029 C2.8035,40.299 3.0465,40.488 3.3165,40.623 C3.6405,40.785 4.0185,40.947 4.4775,41.082 C4.9095,41.244 5.3685,41.352 5.8545,41.46 C6.3135,41.568 6.7725,41.649 7.2315,41.703 C7.6635,41.784 8.0415,41.811 8.3655,41.811 C9.2295,41.811 10.1205,41.676 11.0115,41.379 C11.8755,41.109 12.6855,40.731 13.3875,40.191 C14.0895,39.651 14.6565,39.003 15.1155,38.22 C15.5475,37.464 15.7635,36.573 15.7635,35.547 Z M81.1964531,57.456 C81.1964531,55.44 80.3004531,53.872 78.9564531,52.752 C77.1644531,51.856 74.0284531,51.408 69.5484531,51.408 L48.4924531,51.408 L32.1404531,51.856 L19.1484531,51.856 C17.8044531,52.304 16.9084531,53.2 16.4604531,54.544 C15.7884531,55.888 15.5644531,57.008 15.5644531,57.904 C15.5644531,60.144 15.7884531,61.488 16.6844531,62.384 C17.5804531,63.28 18.4764531,63.728 19.8204531,63.728 L23.8524531,63.728 C26.0924531,63.728 28.5564531,63.728 31.4684531,63.504 L59.9164531,63.504 C63.5004531,63.728 66.8604531,63.728 69.9964531,63.728 L74.9244531,63.728 C76.4924531,63.728 78.0604531,63.28 79.4044531,62.16 C80.5244531,61.264 81.1964531,59.696 81.1964531,57.456 Z M22.75,36.5 C24.6623229,36.5 26.2796522,37.7630173 26.8133182,39.5003819 L53.4995,39.5 L53.5,37.5 C58.3016493,38.7977431 61.916104,39.7830665 64.3433642,40.4559703 L64.6181641,40.5322266 C59.6318359,41.8798828 55.9257812,42.8232422 53.5,43.3623047 L53.4995,41.5 L26.9338526,41.5010146 C26.5792091,43.4900217 24.8409417,45 22.75,45 C20.4027898,45 18.5,43.0972102 18.5,40.75 C18.5,38.4027898 20.4027898,36.5 22.75,36.5 Z M22.75,37.5 C20.9550746,37.5 19.5,38.9550746 19.5,40.75 C19.5,42.5449254 20.9550746,44 22.75,44 C24.5449254,44 26,42.5449254 26,40.75 C26,38.9550746 24.5449254,37.5 22.75,37.5 Z"/></svg>