<svg xmlns="http://www.w3.org/2000/svg" width="103" height="203" viewBox="0 0 103 203"><path fill="#131313" d="M1543.80303,88.1500446 C1547.99574,88.8987426 1551.73923,90.3961384 1555.0335,92.6422321 C1558.17803,95.0380655 1560.57386,98.0328571 1562.221,101.626607 C1564.31735,105.819315 1565.21579,110.236633 1564.91631,114.87856 C1564.61683,119.370748 1563.19431,123.563456 1560.64873,127.456685 C1558.40264,131.050435 1553.98532,135.093404 1547.39678,139.585592 C1540.80824,144.077779 1530.40134,146.922831 1516.17608,148.120748 C1517.67347,151.115539 1519.62009,153.436503 1522.01592,155.083638 C1524.41176,156.581034 1527.40655,157.329732 1531.0003,157.329732 C1536.54066,157.329732 1541.33233,156.581034 1545.3753,155.083638 C1549.41827,153.586243 1553.68584,150.217102 1558.17803,144.976217 C1559.67543,143.329081 1561.54717,142.430644 1563.79327,142.280904 C1566.03936,142.131164 1567.98597,142.804993 1569.63311,144.302388 C1571.42998,145.799784 1572.40329,147.671529 1572.55303,149.917623 C1572.70277,152.163717 1572.02894,154.110331 1570.53155,155.757467 C1564.09274,163.094706 1557.72881,167.886373 1551.43975,170.132467 C1545.00095,172.37856 1538.1878,173.501607 1531.0003,173.501607 C1524.11228,173.501607 1518.12269,171.854472 1513.03155,168.560201 C1507.79066,165.11619 1503.82256,160.324524 1501.12725,154.185201 C1500.37855,152.238586 1499.70472,150.217102 1499.10577,148.120748 C1498.50681,146.024394 1498.13246,143.85317 1497.98272,141.607076 C1497.83298,141.457336 1497.75811,141.307597 1497.75811,141.157857 L1497.75811,140.708638 C1497.60837,139.061503 1497.5335,137.414368 1497.5335,135.767232 C1497.5335,130.376607 1498.35707,124.836243 1500.0042,119.146138 C1502.2503,111.958638 1505.69431,105.894185 1510.33623,100.952779 C1514.82842,96.1611124 1520.06931,92.5673624 1526.05889,90.171529 C1532.04847,87.9254353 1537.96319,87.2516071 1543.80303,88.1500446 Z M1548.32009,75.5847055 L1547.9015,77.815 L1548.3857,77.9760768 C1552.78221,79.4768693 1556.69922,81.7311719 1560.13672,84.7389844 C1563.73047,87.8835156 1566.50065,91.6270052 1568.44727,95.9694531 C1571.29232,101.959036 1572.49023,108.173229 1572.04102,114.612031 C1571.74154,120.901094 1569.79492,126.890677 1566.20117,132.580781 L1566.04519,132.73676 C1566.0244,132.757557 1566.00152,132.780434 1565.97656,132.805391 C1565.95378,132.850964 1565.88244,132.946815 1565.76257,133.092946 L1565.64793,133.230514 C1565.52971,133.370554 1565.38035,133.542843 1565.19986,133.747379 L1564.96832,134.008303 C1563.90023,135.206046 1561.99021,137.275778 1559.23828,140.2175 C1554.8613,144.740385 1548.62373,148.286387 1539.99595,151.09702 C1539.9987,151.157648 1540,151.218672 1540,151.28 C1540,153.62721 1538.09721,155.53 1535.75,155.53 C1533.40279,155.53 1531.5,153.62721 1531.5,151.28 C1531.5,148.93279 1533.40279,147.03 1535.75,147.03 C1537.23944,147.03 1538.54993,147.796187 1539.30884,148.955925 L1538.71279,149.147024 C1547.24795,146.451712 1553.47331,142.912813 1557.66602,138.420625 C1560.46115,135.326007 1562.5364,133.034875 1563.89174,131.547229 C1564.0837,131.337826 1564.17969,131.233125 1564.17969,131.233125 C1567.6237,125.99224 1569.49544,120.377005 1569.79492,114.387422 C1570.24414,108.397839 1569.12109,102.557995 1566.42578,96.8678906 C1564.62891,92.8249219 1562.08333,89.3809115 1558.78906,86.5358594 C1555.52174,83.7140824 1551.73887,81.6288034 1547.44045,80.2800223 L1547.10937,82.0436719 L1535.20508,77.1022656 L1548.32009,75.5847055 Z M1535.75,148.03 C1533.95507,148.03 1532.5,149.485075 1532.5,151.28 C1532.5,153.074925 1533.95507,154.53 1535.75,154.53 C1537.54493,154.53 1539,153.074925 1539,151.28 C1539,149.485075 1537.54493,148.03 1535.75,148.03 Z M1539.8128,101.765 L1538.68975,101.765 C1536.14418,101.765 1533.37399,102.363958 1530.3792,103.561875 C1527.23467,104.909531 1524.38962,106.931016 1521.84405,109.626328 C1519.59795,112.171901 1517.72621,115.166693 1516.22881,118.610703 C1514.88116,122.204453 1513.98272,125.873073 1513.5335,129.616562 C1521.76918,129.017604 1528.73207,127.595078 1534.42217,125.348984 C1540.11228,123.102891 1544.15524,120.108099 1546.55108,116.364609 C1547.59926,114.717474 1548.19821,113.070339 1548.34795,111.423203 C1548.34795,109.626328 1547.9736,107.829453 1547.22491,106.032578 C1546.62595,104.984401 1545.80238,104.085964 1544.7542,103.337266 C1543.70603,102.738307 1542.43324,102.289089 1540.93584,101.989609 C1540.63636,101.989609 1540.26202,101.91474 1539.8128,101.765 Z M1581.8755,115.215 C1581.8755,114.864 1581.7675,114.594 1581.5515,114.432 C1581.3085,114.27 1581.0115,114.162 1580.6335,114.162 C1580.4715,114.162 1580.3365,114.243 1580.1745,114.351 C1580.0125,114.486 1579.8775,114.594 1579.7965,114.675 C1579.5805,114.891 1579.4185,115.08 1579.2835,115.296 C1579.1215,115.512 1578.9325,115.728 1578.7705,115.917 C1578.2575,116.511 1577.7175,117.159 1577.1235,117.807 C1576.5025,118.482 1575.9085,119.076 1575.3415,119.616 C1575.2875,119.67 1575.2065,119.724 1575.1525,119.778 L1574.9365,119.886 C1574.8555,119.94 1574.7745,119.967 1574.7205,120.021 L1574.4775,120.183 C1574.3425,120.291 1574.2345,120.372 1574.1535,120.453 C1574.0455,120.561 1574.0185,120.642 1574.0185,120.723 C1574.0185,121.047 1574.1535,121.29 1574.4775,121.479 C1574.7475,121.695 1575.0715,121.776 1575.3955,121.776 C1575.6385,121.776 1575.8545,121.722 1576.0705,121.614 C1576.2595,121.506 1576.4485,121.344 1576.6645,121.128 C1576.7995,120.966 1576.9615,120.777 1577.1775,120.534 L1577.7175,119.94 C1577.8525,119.805 1578.0685,119.589 1578.3385,119.292 C1578.6085,118.995 1578.9055,118.644 1579.2835,118.239 C1579.2025,118.671 1579.1215,119.184 1579.0675,119.778 C1578.9595,120.372 1578.8785,120.966 1578.7975,121.614 L1578.5815,123.531 C1578.5275,124.179 1578.4735,124.8 1578.4465,125.34 C1578.3925,126.366 1578.3385,127.392 1578.3115,128.418 C1578.2575,129.444 1578.2305,130.335 1578.2305,131.091 C1578.2305,131.523 1578.3385,131.847 1578.5815,132.09 C1578.8245,132.36 1579.1485,132.468 1579.5805,132.468 C1579.7965,132.468 1580.0395,132.414 1580.3095,132.306 C1580.5255,132.198 1580.6605,132.063 1580.6605,131.901 C1580.6605,131.82 1580.6335,131.658 1580.6335,131.388 C1580.5795,131.145 1580.5525,130.848 1580.5255,130.524 C1580.4715,130.227 1580.4175,129.903 1580.4175,129.552 C1580.3635,129.201 1580.3635,128.877 1580.3635,128.607 C1580.3635,126.717 1580.4175,124.827 1580.5795,122.91 C1580.7415,121.02 1581.0385,119.13 1581.5245,117.267 C1581.5515,117.105 1581.6055,116.943 1581.6595,116.754 L1581.7675,116.241 L1581.8485,115.728 C1581.8485,115.566 1581.8755,115.404 1581.8755,115.215 Z M1502.9795,48.883 C1502.9795,48.505 1502.8445,48.181 1502.6015,47.857 C1502.3585,47.533 1502.0885,47.371 1501.7645,47.371 C1501.5215,47.371 1501.2785,47.398 1501.0625,47.452 L1500.6845,47.533 L1500.3065,47.587 C1499.7125,47.641 1499.1185,47.695 1498.4975,47.695 C1497.8495,47.695 1497.2555,47.722 1496.6885,47.749 C1496.1485,47.803 1495.5815,47.83 1494.9875,47.857 C1494.3935,47.911 1493.6375,47.965 1492.7465,48.073 C1493.3675,47.56 1493.8805,47.101 1494.2855,46.723 L1495.3925,45.67 L1497.2015,43.915 C1497.7955,43.321 1498.3895,42.754 1499.0105,42.16 C1499.7665,41.404 1500.3605,40.54 1500.7655,39.541 C1501.1435,38.569 1501.3325,37.543 1501.3325,36.436 C1501.3325,35.869 1501.1975,35.302 1500.9545,34.735 C1500.6845,34.195 1500.3335,33.682 1499.9015,33.223 C1499.4425,32.791 1498.9025,32.44 1498.2815,32.17 C1497.6605,31.9 1496.9855,31.765 1496.2835,31.765 C1495.5005,31.765 1494.7445,31.873 1493.9885,32.089 C1493.2325,32.332 1492.5575,32.71 1491.9635,33.223 C1491.7475,33.385 1491.5585,33.628 1491.3425,33.898 C1491.1265,34.195 1490.9105,34.492 1490.7485,34.816 C1490.5595,35.14 1490.3975,35.464 1490.2895,35.788 C1490.1545,36.112 1490.1005,36.409 1490.1005,36.652 C1490.1005,36.976 1490.2085,37.219 1490.4785,37.435 C1490.7215,37.678 1490.9645,37.786 1491.2345,37.786 C1491.4235,37.786 1491.5855,37.759 1491.7205,37.651 C1491.8285,37.57 1491.9635,37.435 1492.1255,37.273 C1492.1795,37.192 1492.2605,37.057 1492.3415,36.895 C1492.4225,36.76 1492.5035,36.598 1492.5845,36.436 C1492.6385,36.301 1492.7195,36.139 1492.7735,35.977 C1492.8275,35.815 1492.8815,35.68 1492.9895,35.518 C1493.3675,34.87 1493.7995,34.384 1494.2855,34.006 C1494.7445,33.655 1495.3925,33.466 1496.2025,33.466 C1496.6345,33.466 1497.0665,33.574 1497.4445,33.736 C1497.8225,33.925 1498.1465,34.168 1498.4435,34.465 C1498.7135,34.789 1498.9295,35.14 1499.0915,35.518 C1499.2535,35.923 1499.3345,36.328 1499.3345,36.76 C1499.3345,37.3 1499.2535,37.786 1499.0915,38.245 C1498.9295,38.731 1498.7405,39.163 1498.4975,39.568 C1498.2545,40 1497.9845,40.378 1497.6875,40.729 C1497.3635,41.107 1497.0125,41.458 1496.6885,41.782 L1494.1235,44.185 C1493.2865,44.995 1492.3955,45.751 1491.4775,46.48 C1491.2075,46.696 1490.9915,46.885 1490.7755,47.101 C1490.5595,47.317 1490.3705,47.533 1490.1545,47.749 C1489.9655,47.938 1489.8035,48.127 1489.6955,48.289 C1489.5875,48.505 1489.5335,48.721 1489.5335,48.964 C1489.5335,49.342 1489.6685,49.639 1489.9655,49.828 C1490.2355,50.044 1490.5325,50.125 1490.8835,50.125 C1491.0995,50.125 1491.3425,50.098 1491.6125,50.044 C1491.7475,50.017 1491.8825,49.99 1492.0175,49.963 C1492.1255,49.936 1492.2605,49.909 1492.3955,49.882 C1493.4215,49.747 1494.4745,49.639 1495.5815,49.531 C1496.6615,49.423 1497.7145,49.369 1498.7405,49.369 C1499.3075,49.369 1499.9015,49.423 1500.4955,49.504 C1501.0625,49.612 1501.6295,49.639 1502.2235,49.639 C1502.3855,49.639 1502.5475,49.585 1502.7095,49.423 C1502.8715,49.315 1502.9795,49.126 1502.9795,48.883 Z M1568.19645,65.986 C1568.19645,63.97 1567.30045,62.402 1565.95645,61.282 C1564.16445,60.386 1561.02845,59.938 1556.54845,59.938 L1535.49245,59.938 L1519.14045,60.386 L1506.14845,60.386 C1504.80445,60.834 1503.90845,61.73 1503.46045,63.074 C1502.78845,64.418 1502.56445,65.538 1502.56445,66.434 C1502.56445,68.674 1502.78845,70.018 1503.68445,70.914 C1504.58045,71.81 1505.47645,72.258 1506.82045,72.258 L1510.85245,72.258 C1513.09245,72.258 1515.55645,72.258 1518.46845,72.034 L1546.91645,72.034 C1550.50045,72.258 1553.86045,72.258 1556.99645,72.258 L1561.92445,72.258 C1563.49245,72.258 1565.06045,71.81 1566.40445,70.69 C1567.52445,69.794 1568.19645,68.226 1568.19645,65.986 Z M1509.75,45.03 C1511.66232,45.03 1513.27965,46.2930173 1513.81332,48.0303819 L1540.4995,48.03 L1540.5,46.03 C1545.30165,47.3277431 1548.9161,48.3130665 1551.34336,48.9859703 L1551.61816,49.0622266 C1546.63184,50.4098828 1542.92578,51.3532422 1540.5,51.8923047 L1540.4995,50.03 L1513.93385,50.0310146 C1513.57921,52.0200217 1511.84094,53.53 1509.75,53.53 C1507.40279,53.53 1505.5,51.6272102 1505.5,49.28 C1505.5,46.9327898 1507.40279,45.03 1509.75,45.03 Z M1509.75,46.03 C1507.95507,46.03 1506.5,47.4850746 1506.5,49.28 C1506.5,51.0749254 1507.95507,52.53 1509.75,52.53 C1511.54493,52.53 1513,51.0749254 1513,49.28 C1513,47.4850746 1511.54493,46.03 1509.75,46.03 Z" transform="translate(-1484 -31.765)"/></svg>