<svg xmlns="http://www.w3.org/2000/svg" width="103" height="203" viewBox="0 0 103 203"><path fill="#131313" d="M1543.80303,117.385045 C1547.99574,118.133743 1551.73923,119.631138 1555.0335,121.877232 C1558.17803,124.273065 1560.57386,127.267857 1562.221,130.861607 C1564.31735,135.054315 1565.21579,139.471633 1564.91631,144.11356 C1564.61683,148.605748 1563.19431,152.798456 1560.64873,156.691685 C1558.40264,160.285435 1553.98532,164.328404 1547.39678,168.820592 C1540.80824,173.312779 1530.40134,176.157831 1516.17608,177.355748 C1517.67347,180.350539 1519.62009,182.671503 1522.01592,184.318638 C1524.41176,185.816034 1527.40655,186.564732 1531.0003,186.564732 C1536.54066,186.564732 1541.33233,185.816034 1545.3753,184.318638 C1549.41827,182.821243 1553.68584,179.452102 1558.17803,174.211217 C1559.67543,172.564081 1561.54717,171.665644 1563.79327,171.515904 C1566.03936,171.366164 1567.98597,172.039993 1569.63311,173.537388 C1571.42998,175.034784 1572.40329,176.906529 1572.55303,179.152623 C1572.70277,181.398717 1572.02894,183.345331 1570.53155,184.992467 C1564.09274,192.329706 1557.72881,197.121373 1551.43975,199.367467 C1545.00095,201.61356 1538.1878,202.736607 1531.0003,202.736607 C1524.11228,202.736607 1518.12269,201.089472 1513.03155,197.795201 C1507.79066,194.35119 1503.82256,189.559524 1501.12725,183.420201 C1500.37855,181.473586 1499.70472,179.452102 1499.10577,177.355748 C1498.50681,175.259394 1498.13246,173.08817 1497.98272,170.842076 C1497.83298,170.692336 1497.75811,170.542597 1497.75811,170.392857 L1497.75811,169.943638 C1497.60837,168.296503 1497.5335,166.649368 1497.5335,165.002232 C1497.5335,159.611607 1498.35707,154.071243 1500.0042,148.381138 C1502.2503,141.193638 1505.69431,135.129185 1510.33623,130.187779 C1514.82842,125.396112 1520.06931,121.802362 1526.05889,119.406529 C1532.04847,117.160435 1537.96319,116.486607 1543.80303,117.385045 Z M1548.32009,104.819706 L1547.9015,107.05 L1548.3857,107.211077 C1552.78221,108.711869 1556.69922,110.966172 1560.13672,113.973984 C1563.73047,117.118516 1566.50065,120.862005 1568.44727,125.204453 C1571.29232,131.194036 1572.49023,137.408229 1572.04102,143.847031 C1571.74154,150.136094 1569.79492,156.125677 1566.20117,161.815781 L1566.04519,161.97176 C1566.0244,161.992557 1566.00152,162.015434 1565.97656,162.040391 C1565.95378,162.085964 1565.88244,162.181815 1565.76257,162.327946 L1565.64793,162.465514 C1565.52971,162.605554 1565.38035,162.777843 1565.19986,162.982379 L1564.96832,163.243303 C1563.90023,164.441046 1561.99021,166.510778 1559.23828,169.4525 C1554.8613,173.975385 1548.62373,177.521387 1539.99595,180.33202 C1539.9987,180.392648 1540,180.453672 1540,180.515 C1540,182.86221 1538.09721,184.765 1535.75,184.765 C1533.40279,184.765 1531.5,182.86221 1531.5,180.515 C1531.5,178.16779 1533.40279,176.265 1535.75,176.265 C1537.23944,176.265 1538.54993,177.031187 1539.30884,178.190925 L1538.71279,178.382024 C1547.24795,175.686712 1553.47331,172.147813 1557.66602,167.655625 C1560.46115,164.561007 1562.5364,162.269875 1563.89174,160.782229 C1564.0837,160.572826 1564.17969,160.468125 1564.17969,160.468125 C1567.6237,155.22724 1569.49544,149.612005 1569.79492,143.622422 C1570.24414,137.632839 1569.12109,131.792995 1566.42578,126.102891 C1564.62891,122.059922 1562.08333,118.615911 1558.78906,115.770859 C1555.52174,112.949082 1551.73887,110.863803 1547.44045,109.515022 L1547.10938,111.278672 L1535.20508,106.337266 L1548.32009,104.819706 Z M1535.75,177.265 C1533.95507,177.265 1532.5,178.720075 1532.5,180.515 C1532.5,182.309925 1533.95507,183.765 1535.75,183.765 C1537.54493,183.765 1539,182.309925 1539,180.515 C1539,178.720075 1537.54493,177.265 1535.75,177.265 Z M1539.8128,131 L1538.68975,131 C1536.14418,131 1533.37399,131.598958 1530.3792,132.796875 C1527.23467,134.144531 1524.38962,136.166016 1521.84405,138.861328 C1519.59795,141.406901 1517.72621,144.401693 1516.22881,147.845703 C1514.88116,151.439453 1513.98272,155.108073 1513.5335,158.851562 C1521.76918,158.252604 1528.73207,156.830078 1534.42217,154.583984 C1540.11228,152.337891 1544.15524,149.343099 1546.55108,145.599609 C1547.59926,143.952474 1548.19821,142.305339 1548.34795,140.658203 C1548.34795,138.861328 1547.9736,137.064453 1547.22491,135.267578 C1546.62595,134.219401 1545.80238,133.320964 1544.7542,132.572266 C1543.70603,131.973307 1542.43324,131.524089 1540.93584,131.224609 C1540.63636,131.224609 1540.26202,131.14974 1539.8128,131 Z M1581.8755,144.45 C1581.8755,144.099 1581.7675,143.829 1581.5515,143.667 C1581.3085,143.505 1581.0115,143.397 1580.6335,143.397 C1580.4715,143.397 1580.3365,143.478 1580.1745,143.586 C1580.0125,143.721 1579.8775,143.829 1579.7965,143.91 C1579.5805,144.126 1579.4185,144.315 1579.2835,144.531 C1579.1215,144.747 1578.9325,144.963 1578.7705,145.152 C1578.2575,145.746 1577.7175,146.394 1577.1235,147.042 C1576.5025,147.717 1575.9085,148.311 1575.3415,148.851 C1575.2875,148.905 1575.2065,148.959 1575.1525,149.013 L1574.9365,149.121 C1574.8555,149.175 1574.7745,149.202 1574.7205,149.256 L1574.4775,149.418 C1574.3425,149.526 1574.2345,149.607 1574.1535,149.688 C1574.0455,149.796 1574.0185,149.877 1574.0185,149.958 C1574.0185,150.282 1574.1535,150.525 1574.4775,150.714 C1574.7475,150.93 1575.0715,151.011 1575.3955,151.011 C1575.6385,151.011 1575.8545,150.957 1576.0705,150.849 C1576.2595,150.741 1576.4485,150.579 1576.6645,150.363 C1576.7995,150.201 1576.9615,150.012 1577.1775,149.769 L1577.7175,149.175 C1577.8525,149.04 1578.0685,148.824 1578.3385,148.527 C1578.6085,148.23 1578.9055,147.879 1579.2835,147.474 C1579.2025,147.906 1579.1215,148.419 1579.0675,149.013 C1578.9595,149.607 1578.8785,150.201 1578.7975,150.849 L1578.5815,152.766 C1578.5275,153.414 1578.4735,154.035 1578.4465,154.575 C1578.3925,155.601 1578.3385,156.627 1578.3115,157.653 C1578.2575,158.679 1578.2305,159.57 1578.2305,160.326 C1578.2305,160.758 1578.3385,161.082 1578.5815,161.325 C1578.8245,161.595 1579.1485,161.703 1579.5805,161.703 C1579.7965,161.703 1580.0395,161.649 1580.3095,161.541 C1580.5255,161.433 1580.6605,161.298 1580.6605,161.136 C1580.6605,161.055 1580.6335,160.893 1580.6335,160.623 C1580.5795,160.38 1580.5525,160.083 1580.5255,159.759 C1580.4715,159.462 1580.4175,159.138 1580.4175,158.787 C1580.3635,158.436 1580.3635,158.112 1580.3635,157.842 C1580.3635,155.952 1580.4175,154.062 1580.5795,152.145 C1580.7415,150.255 1581.0385,148.365 1581.5245,146.502 C1581.5515,146.34 1581.6055,146.178 1581.6595,145.989 L1581.7675,145.476 L1581.8485,144.963 C1581.8485,144.801 1581.8755,144.639 1581.8755,144.45 Z M1502.9795,78.118 C1502.9795,77.74 1502.8445,77.416 1502.6015,77.092 C1502.3585,76.768 1502.0885,76.606 1501.7645,76.606 C1501.5215,76.606 1501.2785,76.633 1501.0625,76.687 L1500.6845,76.768 L1500.3065,76.822 C1499.7125,76.876 1499.1185,76.93 1498.4975,76.93 C1497.8495,76.93 1497.2555,76.957 1496.6885,76.984 C1496.1485,77.038 1495.5815,77.065 1494.9875,77.092 C1494.3935,77.146 1493.6375,77.2 1492.7465,77.308 C1493.3675,76.795 1493.8805,76.336 1494.2855,75.958 L1495.3925,74.905 L1497.2015,73.15 C1497.7955,72.556 1498.3895,71.989 1499.0105,71.395 C1499.7665,70.639 1500.3605,69.775 1500.7655,68.776 C1501.1435,67.804 1501.3325,66.778 1501.3325,65.671 C1501.3325,65.104 1501.1975,64.537 1500.9545,63.97 C1500.6845,63.43 1500.3335,62.917 1499.9015,62.458 C1499.4425,62.026 1498.9025,61.675 1498.2815,61.405 C1497.6605,61.135 1496.9855,61 1496.2835,61 C1495.5005,61 1494.7445,61.108 1493.9885,61.324 C1493.2325,61.567 1492.5575,61.945 1491.9635,62.458 C1491.7475,62.62 1491.5585,62.863 1491.3425,63.133 C1491.1265,63.43 1490.9105,63.727 1490.7485,64.051 C1490.5595,64.375 1490.3975,64.699 1490.2895,65.023 C1490.1545,65.347 1490.1005,65.644 1490.1005,65.887 C1490.1005,66.211 1490.2085,66.454 1490.4785,66.67 C1490.7215,66.913 1490.9645,67.021 1491.2345,67.021 C1491.4235,67.021 1491.5855,66.994 1491.7205,66.886 C1491.8285,66.805 1491.9635,66.67 1492.1255,66.508 C1492.1795,66.427 1492.2605,66.292 1492.3415,66.13 C1492.4225,65.995 1492.5035,65.833 1492.5845,65.671 C1492.6385,65.536 1492.7195,65.374 1492.7735,65.212 C1492.8275,65.05 1492.8815,64.915 1492.9895,64.753 C1493.3675,64.105 1493.7995,63.619 1494.2855,63.241 C1494.7445,62.89 1495.3925,62.701 1496.2025,62.701 C1496.6345,62.701 1497.0665,62.809 1497.4445,62.971 C1497.8225,63.16 1498.1465,63.403 1498.4435,63.7 C1498.7135,64.024 1498.9295,64.375 1499.0915,64.753 C1499.2535,65.158 1499.3345,65.563 1499.3345,65.995 C1499.3345,66.535 1499.2535,67.021 1499.0915,67.48 C1498.9295,67.966 1498.7405,68.398 1498.4975,68.803 C1498.2545,69.235 1497.9845,69.613 1497.6875,69.964 C1497.3635,70.342 1497.0125,70.693 1496.6885,71.017 L1494.1235,73.42 C1493.2865,74.23 1492.3955,74.986 1491.4775,75.715 C1491.2075,75.931 1490.9915,76.12 1490.7755,76.336 C1490.5595,76.552 1490.3705,76.768 1490.1545,76.984 C1489.9655,77.173 1489.8035,77.362 1489.6955,77.524 C1489.5875,77.74 1489.5335,77.956 1489.5335,78.199 C1489.5335,78.577 1489.6685,78.874 1489.9655,79.063 C1490.2355,79.279 1490.5325,79.36 1490.8835,79.36 C1491.0995,79.36 1491.3425,79.333 1491.6125,79.279 C1491.7475,79.252 1491.8825,79.225 1492.0175,79.198 C1492.1255,79.171 1492.2605,79.144 1492.3955,79.117 C1493.4215,78.982 1494.4745,78.874 1495.5815,78.766 C1496.6615,78.658 1497.7145,78.604 1498.7405,78.604 C1499.3075,78.604 1499.9015,78.658 1500.4955,78.739 C1501.0625,78.847 1501.6295,78.874 1502.2235,78.874 C1502.3855,78.874 1502.5475,78.82 1502.7095,78.658 C1502.8715,78.55 1502.9795,78.361 1502.9795,78.118 Z M1568.19645,95.221 C1568.19645,93.205 1567.30045,91.637 1565.95645,90.517 C1564.16445,89.621 1561.02845,89.173 1556.54845,89.173 L1535.49245,89.173 L1519.14045,89.621 L1506.14845,89.621 C1504.80445,90.069 1503.90845,90.965 1503.46045,92.309 C1502.78845,93.653 1502.56445,94.773 1502.56445,95.669 C1502.56445,97.909 1502.78845,99.253 1503.68445,100.149 C1504.58045,101.045 1505.47645,101.493 1506.82045,101.493 L1510.85245,101.493 C1513.09245,101.493 1515.55645,101.493 1518.46845,101.269 L1546.91645,101.269 C1550.50045,101.493 1553.86045,101.493 1556.99645,101.493 L1561.92445,101.493 C1563.49245,101.493 1565.06045,101.045 1566.40445,99.925 C1567.52445,99.029 1568.19645,97.461 1568.19645,95.221 Z M1509.75,74.265 C1511.66232,74.265 1513.27965,75.5280173 1513.81332,77.2653819 L1540.4995,77.265 L1540.5,75.265 C1545.30165,76.5627431 1548.9161,77.5480665 1551.34336,78.2209703 L1551.61816,78.2972266 C1546.63184,79.6448828 1542.92578,80.5882422 1540.5,81.1273047 L1540.4995,79.265 L1513.93385,79.2660146 C1513.57921,81.2550217 1511.84094,82.765 1509.75,82.765 C1507.40279,82.765 1505.5,80.8622102 1505.5,78.515 C1505.5,76.1677898 1507.40279,74.265 1509.75,74.265 Z M1509.75,75.265 C1507.95507,75.265 1506.5,76.7200746 1506.5,78.515 C1506.5,80.3099254 1507.95507,81.765 1509.75,81.765 C1511.54493,81.765 1513,80.3099254 1513,78.515 C1513,76.7200746 1511.54493,75.265 1509.75,75.265 Z" transform="translate(-1484)"/></svg>