<svg xmlns="http://www.w3.org/2000/svg" width="103" height="243" viewBox="0 0 103 243"><path fill="#131313" d="M59.8030312,80.3850446 C63.9957396,81.1337426 67.7392292,82.6311384 71.0335,84.8772321 C74.1780312,87.2730655 76.5738646,90.2678571 78.221,93.8616071 C80.3173542,98.0543155 81.2157917,102.471633 80.9163125,107.11356 C80.6168333,111.605748 79.1943073,115.798456 76.6487344,119.691685 C74.4026406,123.285435 69.9853229,127.328404 63.3967812,131.820592 C56.8082396,136.312779 46.4013385,139.157831 32.1760781,140.355748 C33.673474,143.350539 35.6200885,145.671503 38.0159219,147.318638 C40.4117552,148.816034 43.4065469,149.564732 47.0002969,149.564732 C52.5406615,149.564732 57.3323281,148.816034 61.3752969,147.318638 C65.4182656,145.821243 69.6858437,142.452102 74.1780312,137.211217 C75.6754271,135.564081 77.5471719,134.665644 79.7932656,134.515904 C82.0393594,134.366164 83.985974,135.039993 85.6331094,136.537388 C87.4299844,138.034784 88.4032917,139.906529 88.5530312,142.152623 C88.7027708,144.398717 88.0289427,146.345331 86.5315469,147.992467 C80.0927448,155.329706 73.7288125,160.121373 67.43975,162.367467 C61.0009479,164.61356 54.1877969,165.736607 47.0002969,165.736607 C40.112276,165.736607 34.1226927,164.089472 29.0315469,160.795201 C23.7906615,157.35119 19.8225625,152.559524 17.12725,146.420201 C16.3785521,144.473586 15.704724,142.452102 15.1057656,140.355748 C14.5068073,138.259394 14.1324583,136.08817 13.9827187,133.842076 C13.8329792,133.692336 13.7581094,133.542597 13.7581094,133.392857 L13.7581094,132.943638 C13.6083698,131.296503 13.5335,129.649368 13.5335,128.002232 C13.5335,122.611607 14.3570677,117.071243 16.0042031,111.381138 C18.2502969,104.193638 21.6943073,98.1291853 26.3362344,93.187779 C30.8284219,88.3961124 36.0693073,84.8023624 42.0588906,82.406529 C48.048474,80.1604353 53.9631875,79.4866071 59.8030312,80.3850446 Z M64.3200865,67.8197055 L63.9015,70.05 L64.3856997,70.2110768 C68.7822124,71.7118693 72.6992188,73.9661719 76.1367188,76.9739844 C79.7304688,80.1185156 82.500651,83.8620052 84.4472656,88.2044531 C87.2923177,94.1940365 88.4902344,100.408229 88.0410156,106.847031 C87.7415365,113.136094 85.7949219,119.125677 82.2011719,124.815781 L82.0451931,124.97176 C82.024396,124.992557 82.0015191,125.015434 81.9765625,125.040391 C81.953776,125.085964 81.8824445,125.181815 81.7625679,125.327946 L81.647928,125.465514 C81.5297069,125.605554 81.3803497,125.777843 81.1998563,125.982379 L80.9683189,126.243303 C79.9002272,127.441046 77.9902146,129.510778 75.2382813,132.4525 C70.8612955,136.975385 64.623731,140.521387 55.9959471,143.33202 C55.998701,143.392648 56,143.453672 56,143.515 C56,145.86221 54.0972102,147.765 51.75,147.765 C49.4027898,147.765 47.5,145.86221 47.5,143.515 C47.5,141.16779 49.4027898,139.265 51.75,139.265 C53.2394429,139.265 54.5499334,140.031187 55.3088367,141.190925 L54.7127939,141.382024 C63.2479502,138.686712 69.4733073,135.147813 73.6660156,130.655625 C76.4611545,127.561007 78.5363956,125.269875 79.891739,123.782229 C80.0837047,123.572826 80.1796875,123.468125 80.1796875,123.468125 C83.6236979,118.22724 85.4954427,112.612005 85.7949219,106.622422 C86.2441406,100.632839 85.1210938,94.7929948 82.4257813,89.1028906 C80.6289063,85.0599219 78.0833333,81.6159115 74.7890625,78.7708594 C71.5217418,75.9490824 67.7388725,73.8638034 63.4404546,72.5150223 L63.109375,74.2786719 L51.2050781,69.3372656 L64.3200865,67.8197055 Z M51.75,140.265 C49.9550746,140.265 48.5,141.720075 48.5,143.515 C48.5,145.309925 49.9550746,146.765 51.75,146.765 C53.5449254,146.765 55,145.309925 55,143.515 C55,141.720075 53.5449254,140.265 51.75,140.265 Z M55.8127969,94 L54.68975,94 C52.1441771,94 49.3739948,94.5989583 46.3792031,95.796875 C43.2346719,97.1445313 40.3896198,99.1660156 37.8440469,101.861328 C35.5979531,104.406901 33.7262083,107.401693 32.2288125,110.845703 C30.8811562,114.439453 29.9827187,118.108073 29.5335,121.851562 C37.7691771,121.252604 44.7320677,119.830078 50.4221719,117.583984 C56.112276,115.337891 60.1552448,112.343099 62.5510781,108.599609 C63.5992552,106.952474 64.1982135,105.305339 64.3479531,103.658203 C64.3479531,101.861328 63.9736042,100.064453 63.2249062,98.2675781 C62.6259479,97.219401 61.8023802,96.3209635 60.7542031,95.5722656 C59.706026,94.9733073 58.4332396,94.5240885 56.9358437,94.2246094 C56.6363646,94.2246094 56.2620156,94.1497396 55.8127969,94 Z M96.3515625,109.542344 C96.2018229,109.542344 96.0520833,109.617214 95.9023438,109.766953 C95.7526042,109.916693 95.6028646,110.066432 95.453125,110.216172 C95.453125,110.216172 95.3782552,110.291042 95.2285156,110.440781 C95.078776,110.440781 94.9290365,110.440781 94.7792969,110.440781 C94.7792969,110.440781 94.7044271,110.440781 94.5546875,110.440781 C94.4049479,110.291042 94.2552083,110.216172 94.1054688,110.216172 C94.1054688,110.066432 94.030599,109.916693 93.8808594,109.766953 C93.8808594,109.617214 93.8808594,109.542344 93.8808594,109.542344 C93.8808594,109.392604 93.8808594,109.242865 93.8808594,109.093125 C94.030599,108.943385 94.1054688,108.868516 94.1054688,108.868516 C94.4049479,108.569036 94.7792969,108.194688 95.2285156,107.745469 C95.5279948,107.44599 95.9772135,106.996771 96.5761719,106.397813 C96.5761719,106.397813 96.6510417,106.322943 96.8007812,106.173203 C96.8007812,106.173203 96.875651,106.173203 97.0253906,106.173203 C97.0253906,106.173203 97.0253906,106.173203 97.0253906,106.173203 C97.1751302,106.173203 97.25,106.173203 97.25,106.173203 C97.25,106.173203 97.3248698,106.173203 97.4746094,106.173203 C97.4746094,106.173203 97.4746094,106.173203 97.4746094,106.173203 C97.624349,106.173203 97.7740885,106.248073 97.9238281,106.397813 C97.9238281,106.397813 97.9238281,106.472682 97.9238281,106.622422 C98.0735677,106.622422 98.1484375,106.697292 98.1484375,106.847031 C98.1484375,106.847031 98.1484375,106.921901 98.1484375,107.071641 C98.1484375,108.868516 98.1484375,111.189479 98.1484375,114.034531 C98.1484375,116.879583 98.1484375,120.098984 98.1484375,123.692734 C98.1484375,123.842474 98.1484375,123.992214 98.1484375,124.141953 C97.9986979,124.291693 97.9238281,124.366562 97.9238281,124.366562 C97.7740885,124.516302 97.624349,124.591172 97.4746094,124.591172 C97.4746094,124.740911 97.3997396,124.815781 97.25,124.815781 C97.1002604,124.815781 96.9505208,124.740911 96.8007812,124.591172 C96.6510417,124.591172 96.5761719,124.516302 96.5761719,124.366562 C96.4264323,124.366562 96.3515625,124.291693 96.3515625,124.141953 C96.3515625,123.992214 96.3515625,123.842474 96.3515625,123.692734 C96.3515625,122.195339 96.3515625,120.248724 96.3515625,117.852891 C96.3515625,115.457057 96.3515625,112.686875 96.3515625,109.542344 Z M18.9795,41.118 C18.9795,40.74 18.8445,40.416 18.6015,40.092 C18.3585,39.768 18.0885,39.606 17.7645,39.606 C17.5215,39.606 17.2785,39.633 17.0625,39.687 L16.6845,39.768 L16.3065,39.822 C15.7125,39.876 15.1185,39.93 14.4975,39.93 C13.8495,39.93 13.2555,39.957 12.6885,39.984 C12.1485,40.038 11.5815,40.065 10.9875,40.092 C10.3935,40.146 9.6375,40.2 8.7465,40.308 C9.3675,39.795 9.8805,39.336 10.2855,38.958 L11.3925,37.905 L13.2015,36.15 C13.7955,35.556 14.3895,34.989 15.0105,34.395 C15.7665,33.639 16.3605,32.775 16.7655,31.776 C17.1435,30.804 17.3325,29.778 17.3325,28.671 C17.3325,28.104 17.1975,27.537 16.9545,26.97 C16.6845,26.43 16.3335,25.917 15.9015,25.458 C15.4425,25.026 14.9025,24.675 14.2815,24.405 C13.6605,24.135 12.9855,24 12.2835,24 C11.5005,24 10.7445,24.108 9.9885,24.324 C9.2325,24.567 8.5575,24.945 7.9635,25.458 C7.7475,25.62 7.5585,25.863 7.3425,26.133 C7.1265,26.43 6.9105,26.727 6.7485,27.051 C6.5595,27.375 6.3975,27.699 6.2895,28.023 C6.1545,28.347 6.1005,28.644 6.1005,28.887 C6.1005,29.211 6.2085,29.454 6.4785,29.67 C6.7215,29.913 6.9645,30.021 7.2345,30.021 C7.4235,30.021 7.5855,29.994 7.7205,29.886 C7.8285,29.805 7.9635,29.67 8.1255,29.508 C8.1795,29.427 8.2605,29.292 8.3415,29.13 C8.4225,28.995 8.5035,28.833 8.5845,28.671 C8.6385,28.536 8.7195,28.374 8.7735,28.212 C8.8275,28.05 8.8815,27.915 8.9895,27.753 C9.3675,27.105 9.7995,26.619 10.2855,26.241 C10.7445,25.89 11.3925,25.701 12.2025,25.701 C12.6345,25.701 13.0665,25.809 13.4445,25.971 C13.8225,26.16 14.1465,26.403 14.4435,26.7 C14.7135,27.024 14.9295,27.375 15.0915,27.753 C15.2535,28.158 15.3345,28.563 15.3345,28.995 C15.3345,29.535 15.2535,30.021 15.0915,30.48 C14.9295,30.966 14.7405,31.398 14.4975,31.803 C14.2545,32.235 13.9845,32.613 13.6875,32.964 C13.3635,33.342 13.0125,33.693 12.6885,34.017 L10.1235,36.42 C9.2865,37.23 8.3955,37.986 7.4775,38.715 C7.2075,38.931 6.9915,39.12 6.7755,39.336 C6.5595,39.552 6.3705,39.768 6.1545,39.984 C5.9655,40.173 5.8035,40.362 5.6955,40.524 C5.5875,40.74 5.5335,40.956 5.5335,41.199 C5.5335,41.577 5.6685,41.874 5.9655,42.063 C6.2355,42.279 6.5325,42.36 6.8835,42.36 C7.0995,42.36 7.3425,42.333 7.6125,42.279 C7.7475,42.252 7.8825,42.225 8.0175,42.198 C8.1255,42.171 8.2605,42.144 8.3955,42.117 C9.4215,41.982 10.4745,41.874 11.5815,41.766 C12.6615,41.658 13.7145,41.604 14.7405,41.604 C15.3075,41.604 15.9015,41.658 16.4955,41.739 C17.0625,41.847 17.6295,41.874 18.2235,41.874 C18.3855,41.874 18.5475,41.82 18.7095,41.658 C18.8715,41.55 18.9795,41.361 18.9795,41.118 Z M84.1964531,58.221 C84.1964531,56.205 83.3004531,54.637 81.9564531,53.517 C80.1644531,52.621 77.0284531,52.173 72.5484531,52.173 L51.4924531,52.173 L35.1404531,52.621 L22.1484531,52.621 C20.8044531,53.069 19.9084531,53.965 19.4604531,55.309 C18.7884531,56.653 18.5644531,57.773 18.5644531,58.669 C18.5644531,60.909 18.7884531,62.253 19.6844531,63.149 C20.5804531,64.045 21.4764531,64.493 22.8204531,64.493 L26.8524531,64.493 C29.0924531,64.493 31.5564531,64.493 34.4684531,64.269 L62.9164531,64.269 C66.5004531,64.493 69.8604531,64.493 72.9964531,64.493 L77.9244531,64.493 C79.4924531,64.493 81.0604531,64.045 82.4044531,62.925 C83.5244531,62.029 84.1964531,60.461 84.1964531,58.221 Z M25.75,37.265 C27.6623229,37.265 29.2796522,38.5280173 29.8133182,40.2653819 L56.4995,40.265 L56.5,38.265 C61.3016493,39.5627431 64.916104,40.5480665 67.3433642,41.2209703 L67.6181641,41.2972266 C62.6318359,42.6448828 58.9257813,43.5882422 56.5,44.1273047 L56.4995,42.265 L29.9338526,42.2660146 C29.5792091,44.2550217 27.8409417,45.765 25.75,45.765 C23.4027898,45.765 21.5,43.8622102 21.5,41.515 C21.5,39.1677898 23.4027898,37.265 25.75,37.265 Z M25.75,38.265 C23.9550746,38.265 22.5,39.7200746 22.5,41.515 C22.5,43.3099254 23.9550746,44.765 25.75,44.765 C27.5449254,44.765 29,43.3099254 29,41.515 C29,39.7200746 27.5449254,38.265 25.75,38.265 Z"/></svg>