<svg xmlns="http://www.w3.org/2000/svg" width="103" height="203" viewBox="0 0 103 203"><path fill="#131313" d="M1866.80303,117.385045 C1870.99574,118.133743 1874.73923,119.631138 1878.0335,121.877232 C1881.17803,124.273065 1883.57386,127.267857 1885.221,130.861607 C1887.31735,135.054315 1888.21579,139.471633 1887.91631,144.11356 C1887.61683,148.605748 1886.19431,152.798456 1883.64873,156.691685 C1881.40264,160.285435 1876.98532,164.328404 1870.39678,168.820592 C1863.80824,173.312779 1853.40134,176.157831 1839.17608,177.355748 C1840.67347,180.350539 1842.62009,182.671503 1845.01592,184.318638 C1847.41176,185.816034 1850.40655,186.564732 1854.0003,186.564732 C1859.54066,186.564732 1864.33233,185.816034 1868.3753,184.318638 C1872.41827,182.821243 1876.68584,179.452102 1881.17803,174.211217 C1882.67543,172.564081 1884.54717,171.665644 1886.79327,171.515904 C1889.03936,171.366164 1890.98597,172.039993 1892.63311,173.537388 C1894.42998,175.034784 1895.40329,176.906529 1895.55303,179.152623 C1895.70277,181.398717 1895.02894,183.345331 1893.53155,184.992467 C1887.09274,192.329706 1880.72881,197.121373 1874.43975,199.367467 C1868.00095,201.61356 1861.1878,202.736607 1854.0003,202.736607 C1847.11228,202.736607 1841.12269,201.089472 1836.03155,197.795201 C1830.79066,194.35119 1826.82256,189.559524 1824.12725,183.420201 C1823.37855,181.473586 1822.70472,179.452102 1822.10577,177.355748 C1821.50681,175.259394 1821.13246,173.08817 1820.98272,170.842076 C1820.83298,170.692336 1820.75811,170.542597 1820.75811,170.392857 L1820.75811,169.943638 C1820.60837,168.296503 1820.5335,166.649368 1820.5335,165.002232 C1820.5335,159.611607 1821.35707,154.071243 1823.0042,148.381138 C1825.2503,141.193638 1828.69431,135.129185 1833.33623,130.187779 C1837.82842,125.396112 1843.06931,121.802362 1849.05889,119.406529 C1855.04847,117.160435 1860.96319,116.486607 1866.80303,117.385045 Z M1872.32009,104.584706 L1871.9015,106.815 L1872.3857,106.976077 C1876.78221,108.476869 1880.69922,110.731172 1884.13672,113.738984 C1887.73047,116.883516 1890.50065,120.627005 1892.44727,124.969453 C1895.29232,130.959036 1896.49023,137.173229 1896.04102,143.612031 C1895.74154,149.901094 1893.79492,155.890677 1890.20117,161.580781 C1890.20117,161.580781 1890.19285,161.5891 1890.17622,161.605738 L1890.04519,161.73676 C1890.0244,161.757557 1890.00152,161.780434 1889.97656,161.805391 C1889.95378,161.850964 1889.88244,161.946815 1889.76257,162.092946 L1889.64793,162.230514 C1888.86767,163.154781 1886.73112,165.483776 1883.23828,169.2175 C1878.8613,173.740385 1872.62373,177.286387 1863.99595,180.09702 C1863.9987,180.157648 1864,180.218672 1864,180.28 C1864,182.62721 1862.09721,184.53 1859.75,184.53 C1857.40279,184.53 1855.5,182.62721 1855.5,180.28 C1855.5,177.93279 1857.40279,176.03 1859.75,176.03 C1861.23944,176.03 1862.54993,176.796187 1863.30884,177.955925 L1862.71279,178.147024 C1871.24795,175.451712 1877.47331,171.912813 1881.66602,167.420625 C1884.46115,164.326007 1886.5364,162.034875 1887.89174,160.547229 C1888.0837,160.337826 1888.17969,160.233125 1888.17969,160.233125 C1891.6237,154.99224 1893.49544,149.377005 1893.79492,143.387422 C1894.24414,137.397839 1893.12109,131.557995 1890.42578,125.867891 C1888.62891,121.824922 1886.08333,118.380911 1882.78906,115.535859 C1879.52174,112.714082 1875.73887,110.628803 1871.44045,109.280022 L1871.10938,111.043672 L1859.20508,106.102266 L1872.32009,104.584706 Z M1859.75,177.03 C1857.95507,177.03 1856.5,178.485075 1856.5,180.28 C1856.5,182.074925 1857.95507,183.53 1859.75,183.53 C1861.54493,183.53 1863,182.074925 1863,180.28 C1863,178.485075 1861.54493,177.03 1859.75,177.03 Z M1904.6335,143.397 C1905.0115,143.397 1905.3085,143.505 1905.5515,143.667 C1905.7675,143.829 1905.8755,144.099 1905.8755,144.45 C1905.8755,144.639 1905.8485,144.801 1905.8485,144.963 L1905.7675,145.476 L1905.6595,145.989 C1905.6055,146.178 1905.5515,146.34 1905.5245,146.502 C1905.0385,148.365 1904.7415,150.255 1904.5795,152.145 C1904.4175,154.062 1904.3635,155.952 1904.3635,157.842 C1904.3635,158.112 1904.3635,158.436 1904.4175,158.787 C1904.4175,159.138 1904.4715,159.462 1904.5255,159.759 C1904.5525,160.083 1904.5795,160.38 1904.6335,160.623 C1904.6335,160.893 1904.6605,161.055 1904.6605,161.136 C1904.6605,161.298 1904.5255,161.433 1904.3095,161.541 C1904.0395,161.649 1903.7965,161.703 1903.5805,161.703 C1903.1485,161.703 1902.8245,161.595 1902.5815,161.325 C1902.3385,161.082 1902.2305,160.758 1902.2305,160.326 C1902.2305,159.57 1902.2575,158.679 1902.3115,157.653 C1902.3385,156.627 1902.3925,155.601 1902.4465,154.575 C1902.4735,154.035 1902.5275,153.414 1902.5815,152.766 L1902.7975,150.849 C1902.8785,150.201 1902.9595,149.607 1903.0675,149.013 C1903.1215,148.419 1903.2025,147.906 1903.2835,147.474 C1902.9055,147.879 1902.6085,148.23 1902.3385,148.527 C1902.0685,148.824 1901.8525,149.04 1901.7175,149.175 L1901.1775,149.769 C1900.9615,150.012 1900.7995,150.201 1900.6645,150.363 C1900.4485,150.579 1900.2595,150.741 1900.0705,150.849 C1899.8545,150.957 1899.6385,151.011 1899.3955,151.011 C1899.0715,151.011 1898.7475,150.93 1898.4775,150.714 C1898.1535,150.525 1898.0185,150.282 1898.0185,149.958 C1898.0185,149.877 1898.0455,149.796 1898.1535,149.688 C1898.2345,149.607 1898.3425,149.526 1898.4775,149.418 L1898.7205,149.256 C1898.7745,149.202 1898.8555,149.175 1898.9365,149.121 L1899.1525,149.013 C1899.2065,148.959 1899.2875,148.905 1899.3415,148.851 C1899.9085,148.311 1900.5025,147.717 1901.1235,147.042 C1901.7175,146.394 1902.2575,145.746 1902.7705,145.152 C1902.9325,144.963 1903.1215,144.747 1903.2835,144.531 C1903.4185,144.315 1903.5805,144.126 1903.7965,143.91 C1903.8775,143.829 1904.0125,143.721 1904.1745,143.586 C1904.3365,143.478 1904.4715,143.397 1904.6335,143.397 Z M1864.8128,131 L1863.68975,131 C1861.14418,131 1858.37399,131.598958 1855.3792,132.796875 C1852.23467,134.144531 1849.38962,136.166016 1846.84405,138.861328 C1844.59795,141.406901 1842.72621,144.401693 1841.22881,147.845703 C1839.88116,151.439453 1838.98272,155.108073 1838.5335,158.851562 C1846.76918,158.252604 1853.73207,156.830078 1859.42217,154.583984 C1865.11228,152.337891 1869.15524,149.343099 1871.55108,145.599609 C1872.59926,143.952474 1873.19821,142.305339 1873.34795,140.658203 C1873.34795,138.861328 1872.9736,137.064453 1872.22491,135.267578 C1871.62595,134.219401 1870.80238,133.320964 1869.7542,132.572266 C1868.70603,131.973307 1867.43324,131.524089 1865.93584,131.224609 C1865.63636,131.224609 1865.26202,131.14974 1864.8128,131 Z M1883.1225,69.262 C1885.3625,69.262 1886.7065,70.158 1886.7065,71.726 C1886.7065,73.518 1885.3625,75.982 1883.1225,79.118 C1880.6585,82.254 1877.7465,85.39 1874.6105,88.302 C1871.2505,91.438 1868.1145,94.126 1864.9785,96.366 C1861.6185,98.606 1859.1545,99.726 1857.3625,99.726 C1855.5705,99.726 1852.8825,98.606 1849.7465,96.366 C1846.6105,94.126 1843.2505,91.438 1840.1145,88.302 C1836.7545,85.39 1833.8425,82.254 1831.6025,79.118 C1829.1385,75.982 1828.0185,73.518 1828.0185,71.726 C1828.0185,70.158 1829.1385,69.262 1831.8265,69.262 C1833.3945,69.262 1835.1865,69.71 1837.4265,70.606 C1839.4425,71.502 1841.6825,72.846 1844.1465,74.19 C1846.3865,75.758 1848.8505,77.326 1851.0905,78.894 C1853.1065,80.462 1855.1225,81.806 1857.3625,83.15 C1859.3785,81.806 1861.3945,80.462 1863.6345,78.894 C1865.8745,77.326 1868.1145,75.758 1870.5785,74.19 C1872.8185,72.846 1875.2825,71.502 1877.5225,70.606 C1879.5385,69.71 1881.3305,69.262 1883.1225,69.262 Z M1879.35076,55.3417432 L1870.64551,65.6038445 L1869.5565,64.164 L1858.06319,71.9980409 L1857.48809,72.3900057 L1856.92076,71.9868719 L1845.57489,63.9253517 C1844.82401,64.5938437 1843.83443,65 1842.75,65 C1840.40279,65 1838.5,63.0972102 1838.5,60.75 C1838.5,58.4027898 1840.40279,56.5 1842.75,56.5 C1845.09721,56.5 1847,58.4027898 1847,60.75 C1847,61.2899034 1846.89933,61.806293 1846.71573,62.2814204 L1857.512,69.953 L1868.3495,62.567 L1867.40575,61.3197489 L1879.35076,55.3417432 Z M1842.75,57.5 C1840.95507,57.5 1839.5,58.9550746 1839.5,60.75 C1839.5,62.5449254 1840.95507,64 1842.75,64 C1844.54493,64 1846,62.5449254 1846,60.75 C1846,58.9550746 1844.54493,57.5 1842.75,57.5 Z M1827.2835,40.235 C1827.9855,40.235 1828.6605,40.37 1829.2815,40.64 C1829.9025,40.91 1830.4425,41.261 1830.9015,41.693 C1831.3335,42.152 1831.6845,42.665 1831.9545,43.205 C1832.1975,43.772 1832.3325,44.339 1832.3325,44.906 C1832.3325,46.013 1832.1435,47.039 1831.7655,48.011 C1831.3605,49.01 1830.7665,49.874 1830.0105,50.63 C1829.3895,51.224 1828.7955,51.791 1828.2015,52.385 L1826.3925,54.14 L1825.2855,55.193 C1824.8805,55.571 1824.3675,56.03 1823.7465,56.543 C1824.6375,56.435 1825.3935,56.381 1825.9875,56.327 C1826.5815,56.3 1827.1485,56.273 1827.6885,56.219 C1828.2555,56.192 1828.8495,56.165 1829.4975,56.165 C1830.1185,56.165 1830.7125,56.111 1831.3065,56.057 L1831.6845,56.003 L1832.0625,55.922 C1832.2785,55.868 1832.5215,55.841 1832.7645,55.841 C1833.0885,55.841 1833.3585,56.003 1833.6015,56.327 C1833.8445,56.651 1833.9795,56.975 1833.9795,57.353 C1833.9795,57.596 1833.8715,57.785 1833.7095,57.893 C1833.5475,58.055 1833.3855,58.109 1833.2235,58.109 C1832.6295,58.109 1832.0625,58.082 1831.4955,57.974 C1830.9015,57.893 1830.3075,57.839 1829.7405,57.839 C1828.7145,57.839 1827.6615,57.893 1826.5815,58.001 C1825.4745,58.109 1824.4215,58.217 1823.3955,58.352 C1823.2605,58.379 1823.1255,58.406 1823.0175,58.433 C1822.8825,58.46 1822.7475,58.487 1822.6125,58.514 C1822.3425,58.568 1822.0995,58.595 1821.8835,58.595 C1821.5325,58.595 1821.2355,58.514 1820.9655,58.298 C1820.6685,58.109 1820.5335,57.812 1820.5335,57.434 C1820.5335,57.191 1820.5875,56.975 1820.6955,56.759 C1820.8035,56.597 1820.9655,56.408 1821.1545,56.219 C1821.3705,56.003 1821.5595,55.787 1821.7755,55.571 C1821.9915,55.355 1822.2075,55.166 1822.4775,54.95 C1823.3955,54.221 1824.2865,53.465 1825.1235,52.655 L1827.6885,50.252 C1828.0125,49.928 1828.3635,49.577 1828.6875,49.199 C1828.9845,48.848 1829.2545,48.47 1829.4975,48.038 C1829.7405,47.633 1829.9295,47.201 1830.0915,46.715 C1830.2535,46.256 1830.3345,45.77 1830.3345,45.23 C1830.3345,44.798 1830.2535,44.393 1830.0915,43.988 C1829.9295,43.61 1829.7135,43.259 1829.4435,42.935 C1829.1465,42.638 1828.8225,42.395 1828.4445,42.206 C1828.0665,42.044 1827.6345,41.936 1827.2025,41.936 C1826.3925,41.936 1825.7445,42.125 1825.2855,42.476 C1824.7995,42.854 1824.3675,43.34 1823.9895,43.988 C1823.8815,44.15 1823.8275,44.285 1823.7735,44.447 C1823.7195,44.609 1823.6385,44.771 1823.5845,44.906 C1823.5035,45.068 1823.4225,45.23 1823.3415,45.365 C1823.2605,45.527 1823.1795,45.662 1823.1255,45.743 C1822.9635,45.905 1822.8285,46.04 1822.7205,46.121 C1822.5855,46.229 1822.4235,46.256 1822.2345,46.256 C1821.9645,46.256 1821.7215,46.148 1821.4785,45.905 C1821.2085,45.689 1821.1005,45.446 1821.1005,45.122 C1821.1005,44.879 1821.1545,44.582 1821.2895,44.258 C1821.3975,43.934 1821.5595,43.61 1821.7485,43.286 C1821.9105,42.962 1822.1265,42.665 1822.3425,42.368 C1822.5585,42.098 1822.7475,41.855 1822.9635,41.693 C1823.5575,41.18 1824.2325,40.802 1824.9885,40.559 C1825.7445,40.343 1826.5005,40.235 1827.2835,40.235 Z" transform="translate(-1806)"/></svg>