<svg xmlns="http://www.w3.org/2000/svg" width="64" height="243" viewBox="0 0 64 243"><path fill="#131313" d="M33.515,157.490234 C33.515,142.067057 33.515,118.932292 33.515,88.0859375 C33.515,85.8398438 34.3385677,83.8932292 35.9857031,82.2460938 C37.483099,80.7486979 39.3548437,80 41.6009375,80 C43.8470312,80 45.7936458,80.7486979 47.4407812,82.2460938 C49.0879167,83.8932292 49.9114844,85.8398438 49.9114844,88.0859375 C49.9114844,103.509115 49.9114844,126.64388 49.9114844,157.490234 C49.9114844,159.736328 49.0879167,161.682943 47.4407812,163.330078 C45.7936458,164.827474 43.8470312,165.576172 41.6009375,165.576172 C39.3548437,165.576172 37.483099,164.827474 35.9857031,163.330078 C34.3385677,161.682943 33.515,159.736328 33.515,157.490234 Z M19.7315,85.265 C22.0787102,85.265 23.9815,87.1677898 23.9815,89.515 C23.9815,91.4384491 22.703743,93.0634622 20.950745,93.587523 L20.95025,140.603516 L22.9717344,140.603516 C21.6240781,146.14388 20.575901,150.336589 19.8272031,153.181641 C18.3298073,147.641276 17.2067604,143.448568 16.4580625,140.603516 L18.4795469,140.603516 L18.4791795,93.5774871 C16.7432077,93.0429748 15.4815,91.4263312 15.4815,89.515 C15.4815,87.1677898 17.3842898,85.265 19.7315,85.265 Z M19.7315,86.265 C17.9365746,86.265 16.4815,87.7200746 16.4815,89.515 C16.4815,91.3099254 17.9365746,92.765 19.7315,92.765 C21.5264254,92.765 22.9815,91.3099254 22.9815,89.515 C22.9815,87.7200746 21.5264254,86.265 19.7315,86.265 Z M7.857,92.45 C7.857,92.099 7.749,91.829 7.533,91.667 C7.29,91.505 6.993,91.397 6.615,91.397 C6.453,91.397 6.318,91.478 6.156,91.586 C5.994,91.721 5.859,91.829 5.778,91.91 C5.562,92.126 5.4,92.315 5.265,92.531 C5.103,92.747 4.914,92.963 4.752,93.152 C4.239,93.746 3.699,94.394 3.105,95.042 C2.484,95.717 1.89,96.311 1.323,96.851 C1.269,96.905 1.188,96.959 1.134,97.013 L0.918,97.121 C0.837,97.175 0.756,97.202 0.702,97.256 L0.459,97.418 C0.324,97.526 0.216,97.607 0.135,97.688 C0.027,97.796 0,97.877 0,97.958 C0,98.282 0.135,98.525 0.459,98.714 C0.729,98.93 1.053,99.011 1.377,99.011 C1.62,99.011 1.836,98.957 2.052,98.849 C2.241,98.741 2.43,98.579 2.646,98.363 C2.781,98.201 2.943,98.012 3.159,97.769 L3.699,97.175 C3.834,97.04 4.05,96.824 4.32,96.527 C4.59,96.23 4.887,95.879 5.265,95.474 C5.184,95.906 5.103,96.419 5.049,97.013 C4.941,97.607 4.86,98.201 4.779,98.849 L4.563,100.766 C4.509,101.414 4.455,102.035 4.428,102.575 C4.374,103.601 4.32,104.627 4.293,105.653 C4.239,106.679 4.212,107.57 4.212,108.326 C4.212,108.758 4.32,109.082 4.563,109.325 C4.806,109.595 5.13,109.703 5.562,109.703 C5.778,109.703 6.021,109.649 6.291,109.541 C6.507,109.433 6.642,109.298 6.642,109.136 C6.642,109.055 6.615,108.893 6.615,108.623 C6.561,108.38 6.534,108.083 6.507,107.759 C6.453,107.462 6.399,107.138 6.399,106.787 C6.345,106.436 6.345,106.112 6.345,105.842 C6.345,103.952 6.399,102.062 6.561,100.145 C6.723,98.255 7.02,96.365 7.506,94.502 C7.533,94.34 7.587,94.178 7.641,93.989 L7.749,93.476 L7.83,92.963 C7.83,92.801 7.857,92.639 7.857,92.45 Z M36.961,29.118 C36.961,28.74 36.826,28.416 36.583,28.092 C36.34,27.768 36.07,27.606 35.746,27.606 C35.503,27.606 35.26,27.633 35.044,27.687 L34.666,27.768 L34.288,27.822 C33.694,27.876 33.1,27.93 32.479,27.93 C31.831,27.93 31.237,27.957 30.67,27.984 C30.13,28.038 29.563,28.065 28.969,28.092 C28.375,28.146 27.619,28.2 26.728,28.308 C27.349,27.795 27.862,27.336 28.267,26.958 L29.374,25.905 L31.183,24.15 C31.777,23.556 32.371,22.989 32.992,22.395 C33.748,21.639 34.342,20.775 34.747,19.776 C35.125,18.804 35.314,17.778 35.314,16.671 C35.314,16.104 35.179,15.537 34.936,14.97 C34.666,14.43 34.315,13.917 33.883,13.458 C33.424,13.026 32.884,12.675 32.263,12.405 C31.642,12.135 30.967,12 30.265,12 C29.482,12 28.726,12.108 27.97,12.324 C27.214,12.567 26.539,12.945 25.945,13.458 C25.729,13.62 25.54,13.863 25.324,14.133 C25.108,14.43 24.892,14.727 24.73,15.051 C24.541,15.375 24.379,15.699 24.271,16.023 C24.136,16.347 24.082,16.644 24.082,16.887 C24.082,17.211 24.19,17.454 24.46,17.67 C24.703,17.913 24.946,18.021 25.216,18.021 C25.405,18.021 25.567,17.994 25.702,17.886 C25.81,17.805 25.945,17.67 26.107,17.508 C26.161,17.427 26.242,17.292 26.323,17.13 C26.404,16.995 26.485,16.833 26.566,16.671 C26.62,16.536 26.701,16.374 26.755,16.212 C26.809,16.05 26.863,15.915 26.971,15.753 C27.349,15.105 27.781,14.619 28.267,14.241 C28.726,13.89 29.374,13.701 30.184,13.701 C30.616,13.701 31.048,13.809 31.426,13.971 C31.804,14.16 32.128,14.403 32.425,14.7 C32.695,15.024 32.911,15.375 33.073,15.753 C33.235,16.158 33.316,16.563 33.316,16.995 C33.316,17.535 33.235,18.021 33.073,18.48 C32.911,18.966 32.722,19.398 32.479,19.803 C32.236,20.235 31.966,20.613 31.669,20.964 C31.345,21.342 30.994,21.693 30.67,22.017 L28.105,24.42 C27.268,25.23 26.377,25.986 25.459,26.715 C25.189,26.931 24.973,27.12 24.757,27.336 C24.541,27.552 24.352,27.768 24.136,27.984 C23.947,28.173 23.785,28.362 23.677,28.524 C23.569,28.74 23.515,28.956 23.515,29.199 C23.515,29.577 23.65,29.874 23.947,30.063 C24.217,30.279 24.514,30.36 24.865,30.36 C25.081,30.36 25.324,30.333 25.594,30.279 C25.729,30.252 25.864,30.225 25.999,30.198 C26.107,30.171 26.242,30.144 26.377,30.117 C27.403,29.982 28.456,29.874 29.563,29.766 C30.643,29.658 31.696,29.604 32.722,29.604 C33.289,29.604 33.883,29.658 34.477,29.739 C35.044,29.847 35.611,29.874 36.205,29.874 C36.367,29.874 36.529,29.82 36.691,29.658 C36.853,29.55 36.961,29.361 36.961,29.118 Z M15.7315,37.265 C17.6438229,37.265 19.2611522,38.5280173 19.7948182,40.2653819 L46.481,40.265 L46.4815,38.265 C51.2831493,39.5627431 54.897604,40.5480665 57.3248642,41.2209703 L57.5996641,41.2972266 C52.6133359,42.6448828 48.9072812,43.5882422 46.4815,44.1273047 L46.481,42.265 L19.9153526,42.2660146 C19.5607091,44.2550217 17.8224417,45.765 15.7315,45.765 C13.3842898,45.765 11.4815,43.8622102 11.4815,41.515 C11.4815,39.1677898 13.3842898,37.265 15.7315,37.265 Z M15.7315,38.265 C13.9365746,38.265 12.4815,39.7200746 12.4815,41.515 C12.4815,43.3099254 13.9365746,44.765 15.7315,44.765 C17.5264254,44.765 18.9815,43.3099254 18.9815,41.515 C18.9815,39.7200746 17.5264254,38.265 15.7315,38.265 Z M74.1779531,58.221 C74.1779531,56.205 73.2819531,54.637 71.9379531,53.517 C70.1459531,52.621 67.0099531,52.173 62.5299531,52.173 L41.4739531,52.173 L25.1219531,52.621 L12.1299531,52.621 C10.7859531,53.069 9.88995312,53.965 9.44195312,55.309 C8.76995312,56.653 8.54595312,57.773 8.54595312,58.669 C8.54595312,60.909 8.76995312,62.253 9.66595312,63.149 C10.5619531,64.045 11.4579531,64.493 12.8019531,64.493 L16.8339531,64.493 C19.0739531,64.493 21.5379531,64.493 24.4499531,64.269 L52.8979531,64.269 C56.4819531,64.493 59.8419531,64.493 62.9779531,64.493 L67.9059531,64.493 C69.4739531,64.493 71.0419531,64.045 72.3859531,62.925 C73.5059531,62.029 74.1779531,60.461 74.1779531,58.221 Z" transform="translate(-9.481)"/></svg>