<svg xmlns="http://www.w3.org/2000/svg" width="64" height="203" viewBox="0 0 64 203"><path fill="#131313" d="M2233.5335,165.255234 C2233.5335,149.832057 2233.5335,126.697292 2233.5335,95.8509375 C2233.5335,93.6048437 2234.35707,91.6582292 2236.0042,90.0110937 C2237.5016,88.5136979 2239.37334,87.765 2241.61944,87.765 C2243.86553,87.765 2245.81215,88.5136979 2247.45928,90.0110937 C2249.10642,91.6582292 2249.92998,93.6048437 2249.92998,95.8509375 C2249.92998,111.274115 2249.92998,134.40888 2249.92998,165.255234 C2249.92998,167.501328 2249.10642,169.447943 2247.45928,171.095078 C2245.81215,172.592474 2243.86553,173.341172 2241.61944,173.341172 C2239.37334,173.341172 2237.5016,172.592474 2236.0042,171.095078 C2234.35707,169.447943 2233.5335,167.501328 2233.5335,165.255234 Z M2219.75,93.03 C2222.09721,93.03 2224,94.9327898 2224,97.28 C2224,99.2034491 2222.72224,100.828462 2220.96925,101.352523 L2220.96875,148.368516 L2222.99023,148.368516 C2221.64258,153.90888 2220.5944,158.101589 2219.8457,160.946641 C2218.34831,155.406276 2217.22526,151.213568 2216.47656,148.368516 L2218.49805,148.368516 L2218.49768,101.342487 C2216.76171,100.807975 2215.5,99.1913312 2215.5,97.28 C2215.5,94.9327898 2217.40279,93.03 2219.75,93.03 Z M2219.75,94.03 C2217.95507,94.03 2216.5,95.4850746 2216.5,97.28 C2216.5,99.0749254 2217.95507,100.53 2219.75,100.53 C2221.54493,100.53 2223,99.0749254 2223,97.28 C2223,95.4850746 2221.54493,94.03 2219.75,94.03 Z M2207.8755,100.215 C2207.8755,99.864 2207.7675,99.594 2207.5515,99.432 C2207.3085,99.27 2207.0115,99.162 2206.6335,99.162 C2206.4715,99.162 2206.3365,99.243 2206.1745,99.351 C2206.0125,99.486 2205.8775,99.594 2205.7965,99.675 C2205.5805,99.891 2205.4185,100.08 2205.2835,100.296 C2205.1215,100.512 2204.9325,100.728 2204.7705,100.917 C2204.2575,101.511 2203.7175,102.159 2203.1235,102.807 C2202.5025,103.482 2201.9085,104.076 2201.3415,104.616 C2201.2875,104.67 2201.2065,104.724 2201.1525,104.778 L2200.9365,104.886 C2200.8555,104.94 2200.7745,104.967 2200.7205,105.021 L2200.4775,105.183 C2200.3425,105.291 2200.2345,105.372 2200.1535,105.453 C2200.0455,105.561 2200.0185,105.642 2200.0185,105.723 C2200.0185,106.047 2200.1535,106.29 2200.4775,106.479 C2200.7475,106.695 2201.0715,106.776 2201.3955,106.776 C2201.6385,106.776 2201.8545,106.722 2202.0705,106.614 C2202.2595,106.506 2202.4485,106.344 2202.6645,106.128 C2202.7995,105.966 2202.9615,105.777 2203.1775,105.534 L2203.7175,104.94 C2203.8525,104.805 2204.0685,104.589 2204.3385,104.292 C2204.6085,103.995 2204.9055,103.644 2205.2835,103.239 C2205.2025,103.671 2205.1215,104.184 2205.0675,104.778 C2204.9595,105.372 2204.8785,105.966 2204.7975,106.614 L2204.5815,108.531 C2204.5275,109.179 2204.4735,109.8 2204.4465,110.34 C2204.3925,111.366 2204.3385,112.392 2204.3115,113.418 C2204.2575,114.444 2204.2305,115.335 2204.2305,116.091 C2204.2305,116.523 2204.3385,116.847 2204.5815,117.09 C2204.8245,117.36 2205.1485,117.468 2205.5805,117.468 C2205.7965,117.468 2206.0395,117.414 2206.3095,117.306 C2206.5255,117.198 2206.6605,117.063 2206.6605,116.901 C2206.6605,116.82 2206.6335,116.658 2206.6335,116.388 C2206.5795,116.145 2206.5525,115.848 2206.5255,115.524 C2206.4715,115.227 2206.4175,114.903 2206.4175,114.552 C2206.3635,114.201 2206.3635,113.877 2206.3635,113.607 C2206.3635,111.717 2206.4175,109.827 2206.5795,107.91 C2206.7415,106.02 2207.0385,104.13 2207.5245,102.267 C2207.5515,102.105 2207.6055,101.943 2207.6595,101.754 L2207.7675,101.241 L2207.8485,100.728 C2207.8485,100.566 2207.8755,100.404 2207.8755,100.215 Z M2236.9795,36.883 C2236.9795,36.505 2236.8445,36.181 2236.6015,35.857 C2236.3585,35.533 2236.0885,35.371 2235.7645,35.371 C2235.5215,35.371 2235.2785,35.398 2235.0625,35.452 L2234.6845,35.533 L2234.3065,35.587 C2233.7125,35.641 2233.1185,35.695 2232.4975,35.695 C2231.8495,35.695 2231.2555,35.722 2230.6885,35.749 C2230.1485,35.803 2229.5815,35.83 2228.9875,35.857 C2228.3935,35.911 2227.6375,35.965 2226.7465,36.073 C2227.3675,35.56 2227.8805,35.101 2228.2855,34.723 L2229.3925,33.67 L2231.2015,31.915 C2231.7955,31.321 2232.3895,30.754 2233.0105,30.16 C2233.7665,29.404 2234.3605,28.54 2234.7655,27.541 C2235.1435,26.569 2235.3325,25.543 2235.3325,24.436 C2235.3325,23.869 2235.1975,23.302 2234.9545,22.735 C2234.6845,22.195 2234.3335,21.682 2233.9015,21.223 C2233.4425,20.791 2232.9025,20.44 2232.2815,20.17 C2231.6605,19.9 2230.9855,19.765 2230.2835,19.765 C2229.5005,19.765 2228.7445,19.873 2227.9885,20.089 C2227.2325,20.332 2226.5575,20.71 2225.9635,21.223 C2225.7475,21.385 2225.5585,21.628 2225.3425,21.898 C2225.1265,22.195 2224.9105,22.492 2224.7485,22.816 C2224.5595,23.14 2224.3975,23.464 2224.2895,23.788 C2224.1545,24.112 2224.1005,24.409 2224.1005,24.652 C2224.1005,24.976 2224.2085,25.219 2224.4785,25.435 C2224.7215,25.678 2224.9645,25.786 2225.2345,25.786 C2225.4235,25.786 2225.5855,25.759 2225.7205,25.651 C2225.8285,25.57 2225.9635,25.435 2226.1255,25.273 C2226.1795,25.192 2226.2605,25.057 2226.3415,24.895 C2226.4225,24.76 2226.5035,24.598 2226.5845,24.436 C2226.6385,24.301 2226.7195,24.139 2226.7735,23.977 C2226.8275,23.815 2226.8815,23.68 2226.9895,23.518 C2227.3675,22.87 2227.7995,22.384 2228.2855,22.006 C2228.7445,21.655 2229.3925,21.466 2230.2025,21.466 C2230.6345,21.466 2231.0665,21.574 2231.4445,21.736 C2231.8225,21.925 2232.1465,22.168 2232.4435,22.465 C2232.7135,22.789 2232.9295,23.14 2233.0915,23.518 C2233.2535,23.923 2233.3345,24.328 2233.3345,24.76 C2233.3345,25.3 2233.2535,25.786 2233.0915,26.245 C2232.9295,26.731 2232.7405,27.163 2232.4975,27.568 C2232.2545,28 2231.9845,28.378 2231.6875,28.729 C2231.3635,29.107 2231.0125,29.458 2230.6885,29.782 L2228.1235,32.185 C2227.2865,32.995 2226.3955,33.751 2225.4775,34.48 C2225.2075,34.696 2224.9915,34.885 2224.7755,35.101 C2224.5595,35.317 2224.3705,35.533 2224.1545,35.749 C2223.9655,35.938 2223.8035,36.127 2223.6955,36.289 C2223.5875,36.505 2223.5335,36.721 2223.5335,36.964 C2223.5335,37.342 2223.6685,37.639 2223.9655,37.828 C2224.2355,38.044 2224.5325,38.125 2224.8835,38.125 C2225.0995,38.125 2225.3425,38.098 2225.6125,38.044 C2225.7475,38.017 2225.8825,37.99 2226.0175,37.963 C2226.1255,37.936 2226.2605,37.909 2226.3955,37.882 C2227.4215,37.747 2228.4745,37.639 2229.5815,37.531 C2230.6615,37.423 2231.7145,37.369 2232.7405,37.369 C2233.3075,37.369 2233.9015,37.423 2234.4955,37.504 C2235.0625,37.612 2235.6295,37.639 2236.2235,37.639 C2236.3855,37.639 2236.5475,37.585 2236.7095,37.423 C2236.8715,37.315 2236.9795,37.126 2236.9795,36.883 Z M2215.75,45.03 C2217.66232,45.03 2219.27965,46.2930173 2219.81332,48.0303819 L2246.4995,48.03 L2246.5,46.03 C2251.30165,47.3277431 2254.9161,48.3130665 2257.34336,48.9859703 L2257.61816,49.0622266 C2252.63184,50.4098828 2248.92578,51.3532422 2246.5,51.8923047 L2246.4995,50.03 L2219.93385,50.0310146 C2219.57921,52.0200217 2217.84094,53.53 2215.75,53.53 C2213.40279,53.53 2211.5,51.6272102 2211.5,49.28 C2211.5,46.9327898 2213.40279,45.03 2215.75,45.03 Z M2215.75,46.03 C2213.95507,46.03 2212.5,47.4850746 2212.5,49.28 C2212.5,51.0749254 2213.95507,52.53 2215.75,52.53 C2217.54493,52.53 2219,51.0749254 2219,49.28 C2219,47.4850746 2217.54493,46.03 2215.75,46.03 Z M2274.19645,65.986 C2274.19645,63.97 2273.30045,62.402 2271.95645,61.282 C2270.16445,60.386 2267.02845,59.938 2262.54845,59.938 L2241.49245,59.938 L2225.14045,60.386 L2212.14845,60.386 C2210.80445,60.834 2209.90845,61.73 2209.46045,63.074 C2208.78845,64.418 2208.56445,65.538 2208.56445,66.434 C2208.56445,68.674 2208.78845,70.018 2209.68445,70.914 C2210.58045,71.81 2211.47645,72.258 2212.82045,72.258 L2216.85245,72.258 C2219.09245,72.258 2221.55645,72.258 2224.46845,72.034 L2252.91645,72.034 C2256.50045,72.258 2259.86045,72.258 2262.99645,72.258 L2267.92445,72.258 C2269.49245,72.258 2271.06045,71.81 2272.40445,70.69 C2273.52445,69.794 2274.19645,68.226 2274.19645,65.986 Z" transform="translate(-2209.5 -31.765)"/></svg>