<svg xmlns="http://www.w3.org/2000/svg" width="103" height="243" viewBox="0 0 103 243"><path fill="#131313" d="M51.8789063,78 C64.0078125,78 73.8157552,82.0429688 81.3027344,90.1289062 C88.7897135,98.2148437 92.5332031,108.846354 92.5332031,122.023438 C92.5332031,134.901042 88.7148438,145.457682 81.078125,153.693359 C73.5911458,161.779297 63.8580729,165.822266 51.8789063,165.822266 C39.8997396,165.822266 30.0917969,161.779297 22.4550781,153.693359 C14.8183594,145.457682 11,134.901042 11,122.023438 C11,108.846354 14.7434896,98.2148437 22.2304688,90.1289062 C29.7174479,82.0429688 39.6002604,78 51.8789063,78 Z M51.4824219,94 C43.6959635,94 37.7063802,96.4707031 33.5136719,101.412109 C29.171224,106.353516 27,113.166667 27,121.851563 C27,128.440104 28.796875,134.729167 32.390625,140.71875 C35.984375,146.558594 42.3483073,149.478516 51.4824219,149.478516 C60.4667969,149.478516 66.7558594,146.558594 70.3496094,140.71875 C73.9433594,134.729167 75.7402344,128.440104 75.7402344,121.851563 C75.7402344,113.166667 73.6438802,106.353516 69.4511719,101.412109 C65.108724,96.4707031 59.1191406,94 51.4824219,94 Z M66.90625,68.8398438 C69.9010417,69.4388021 72.7460938,70.3372396 75.4414063,71.5351563 C78.2864583,72.7330729 80.906901,74.155599 83.3027344,75.8027344 C84.2011719,75.0540365 85.249349,74.6796875 86.4472656,74.6796875 C87.6451823,74.6796875 88.7682292,75.0540365 89.8164063,75.8027344 C90.7148438,76.7011719 91.2389323,77.8242188 91.3886719,79.171875 C91.3886719,80.5195313 90.9394531,81.7174479 90.0410156,82.765625 C89.1425781,83.8138021 88.0195313,84.3378906 86.671875,84.3378906 C85.3242188,84.4876302 84.1263021,84.1132813 83.078125,83.2148438 C82.3294271,82.4661458 81.8053385,81.5677083 81.5058594,80.5195313 C81.3561198,79.4713542 81.5058594,78.4980469 81.9550781,77.5996094 C82.1048177,77.4498698 82.1796875,77.2252604 82.1796875,76.9257813 C82.1796875,77.0755208 82.1048177,77.3001302 81.9550781,77.5996094 C79.7089844,76.1022135 77.313151,74.8294271 74.7675781,73.78125 C72.2220052,72.7330729 69.5266927,71.8346354 66.6816406,71.0859375 L66.7206224,70.8074961 C66.8443741,69.9041086 66.90625,69.2482244 66.90625,68.8398438 Z M90.7148437,79.3964844 L90.7091139,79.6497429 C90.6594554,80.732299 90.2870164,81.6211868 89.5917969,82.3164063 C90.4902344,81.5677083 90.8645833,80.594401 90.7148437,79.3964844 Z M83.5273438,76.2519531 L83.4375,76.3328125 C83.3177083,76.4286458 83.1979167,76.4765625 83.078125,76.4765625 C82.9283854,76.7760417 82.7786458,77.000651 82.6289063,77.1503906 C82.7786458,77.000651 83.0032552,76.8509115 83.3027344,76.7011719 C83.3027344,76.5514323 83.3776042,76.4016927 83.5273438,76.2519531 Z M86.4472656,75.1289063 C85.3990885,75.1289063 84.500651,75.4283854 83.7519531,76.0273438 C84.5687145,75.4828362 85.4473517,75.185832 86.3878648,75.1363314 L86.5685,75.131 L86.4472656,75.1289063 Z M67.1308594,66.59375 C67.1308594,67.0429688 67.0559896,67.7916667 66.90625,68.8398438 L66.8672682,69.1182851 C66.7435165,70.0216727 66.6816406,70.6775568 66.6816406,71.0859375 C66.6816406,71.5351563 66.6067708,72.2089844 66.4570313,73.1074219 C63.7617188,72.2089844 59.71875,70.7115885 54.328125,68.6152344 C57.1731771,68.1660156 61.4407552,67.4921875 67.1308594,66.59375 Z M88.7571373,76.5652971 C88.7678225,76.5703254 88.7787213,76.5755674 88.7898338,76.5810231 L88.7651096,76.5576714 L88.6945,76.5 L88.6985,76.54 L88.6684028,76.5264757 C88.5852141,76.4932002 88.5186632,76.4765625 88.46875,76.4765625 L88.6665,76.476 L88.6060113,76.4266493 C88.065285,76.010706 87.4205729,75.8027344 86.671875,75.8027344 C85.7734375,75.8027344 84.9498698,76.0273438 84.2011719,76.4765625 C84.0514323,76.4765625 83.9765625,76.5514323 83.9765625,76.7011719 C83.8268229,76.8509115 83.6770833,76.9257813 83.5273438,76.9257813 C83.3776042,77.2252604 83.2278646,77.4498698 83.078125,77.5996094 C83.078125,77.7243924 83.0261321,77.9011683 82.9221463,78.1299371 L82.8535156,78.2734375 C82.703776,79.0221354 82.703776,79.6959635 82.8535156,80.2949219 C83.0032552,81.0436198 83.3776042,81.7174479 83.9765625,82.3164063 C84.7252604,82.9153646 85.6236979,83.2148438 86.671875,83.2148438 C87.7200521,83.2148438 88.5436198,82.8404948 89.1425781,82.0917969 C89.891276,81.343099 90.265625,80.4446615 90.265625,79.3964844 C90.1158854,78.3483073 89.6666667,77.4498698 88.9179687,76.7011719 L88.8493381,76.6949327 C88.7453523,76.6741356 88.6933594,76.6013455 88.6933594,76.4765625 L88.6985,76.54 Z M100.373047,63 C100.522786,63 100.597656,63.0748698 100.597656,63.2246094 C100.747396,63.2246094 100.822266,63.2994792 100.822266,63.4492188 C100.822266,63.4492188 100.822266,63.5240885 100.822266,63.6738281 C100.972005,63.8235677 101.046875,63.8984375 101.046875,63.8984375 C101.046875,65.8450521 101.046875,68.1660156 101.046875,70.8613281 C101.046875,73.7063802 101.046875,76.9257813 101.046875,80.5195312 C101.046875,80.6692708 100.972005,80.8190104 100.822266,80.96875 C100.822266,81.1184896 100.747396,81.1933594 100.597656,81.1933594 C100.597656,81.343099 100.522786,81.4179688 100.373047,81.4179688 C100.223307,81.5677083 100.073568,81.6425781 99.9238281,81.6425781 C99.7740885,81.6425781 99.6992188,81.5677083 99.6992188,81.4179688 C99.5494792,81.4179688 99.3997396,81.343099 99.25,81.1933594 C99.25,81.1933594 99.1751302,81.1184896 99.0253906,80.96875 C99.0253906,80.8190104 99.0253906,80.6692708 99.0253906,80.5195312 C99.0253906,79.0221354 99.0253906,77.0755208 99.0253906,74.6796875 C99.0253906,72.2838542 99.0253906,69.5136719 99.0253906,66.3691406 C98.875651,66.3691406 98.8007813,66.4440104 98.8007813,66.59375 C98.6510417,66.7434896 98.5013021,66.8932292 98.3515625,67.0429688 C98.2018229,67.0429688 98.1269531,67.1178385 98.1269531,67.2675781 C97.9772135,67.2675781 97.827474,67.2675781 97.6777344,67.2675781 C97.5279948,67.2675781 97.3782552,67.2675781 97.2285156,67.2675781 C97.2285156,67.1178385 97.1536458,67.0429688 97.0039063,67.0429688 C96.8541667,66.8932292 96.7792969,66.7434896 96.7792969,66.59375 C96.7792969,66.4440104 96.7792969,66.3691406 96.7792969,66.3691406 C96.7792969,66.219401 96.7792969,66.0696615 96.7792969,65.9199219 C96.7792969,65.7701823 96.8541667,65.6953125 97.0039063,65.6953125 C97.3033854,65.3958333 97.6028646,65.0214844 97.9023438,64.5722656 C98.3515625,64.2727865 98.8007813,63.8235677 99.25,63.2246094 C99.3997396,63.2246094 99.4746094,63.1497396 99.4746094,63 C99.624349,63 99.7740885,63 99.9238281,63 C99.9238281,63 99.9238281,63 99.9238281,63 C99.9238281,63 99.9238281,63 99.9238281,63 C100.073568,63 100.148438,63 100.148438,63 C100.298177,63 100.373047,63 100.373047,63 Z M18.9795,40.353 C18.9795,39.975 18.8445,39.651 18.6015,39.327 C18.3585,39.003 18.0885,38.841 17.7645,38.841 C17.5215,38.841 17.2785,38.868 17.0625,38.922 L16.6845,39.003 L16.3065,39.057 C15.7125,39.111 15.1185,39.165 14.4975,39.165 C13.8495,39.165 13.2555,39.192 12.6885,39.219 C12.1485,39.273 11.5815,39.3 10.9875,39.327 C10.3935,39.381 9.6375,39.435 8.7465,39.543 C9.3675,39.03 9.8805,38.571 10.2855,38.193 L11.3925,37.14 L13.2015,35.385 C13.7955,34.791 14.3895,34.224 15.0105,33.63 C15.7665,32.874 16.3605,32.01 16.7655,31.011 C17.1435,30.039 17.3325,29.013 17.3325,27.906 C17.3325,27.339 17.1975,26.772 16.9545,26.205 C16.6845,25.665 16.3335,25.152 15.9015,24.693 C15.4425,24.261 14.9025,23.91 14.2815,23.64 C13.6605,23.37 12.9855,23.235 12.2835,23.235 C11.5005,23.235 10.7445,23.343 9.9885,23.559 C9.2325,23.802 8.5575,24.18 7.9635,24.693 C7.7475,24.855 7.5585,25.098 7.3425,25.368 C7.1265,25.665 6.9105,25.962 6.7485,26.286 C6.5595,26.61 6.3975,26.934 6.2895,27.258 C6.1545,27.582 6.1005,27.879 6.1005,28.122 C6.1005,28.446 6.2085,28.689 6.4785,28.905 C6.7215,29.148 6.9645,29.256 7.2345,29.256 C7.4235,29.256 7.5855,29.229 7.7205,29.121 C7.8285,29.04 7.9635,28.905 8.1255,28.743 C8.1795,28.662 8.2605,28.527 8.3415,28.365 C8.4225,28.23 8.5035,28.068 8.5845,27.906 C8.6385,27.771 8.7195,27.609 8.7735,27.447 C8.8275,27.285 8.8815,27.15 8.9895,26.988 C9.3675,26.34 9.7995,25.854 10.2855,25.476 C10.7445,25.125 11.3925,24.936 12.2025,24.936 C12.6345,24.936 13.0665,25.044 13.4445,25.206 C13.8225,25.395 14.1465,25.638 14.4435,25.935 C14.7135,26.259 14.9295,26.61 15.0915,26.988 C15.2535,27.393 15.3345,27.798 15.3345,28.23 C15.3345,28.77 15.2535,29.256 15.0915,29.715 C14.9295,30.201 14.7405,30.633 14.4975,31.038 C14.2545,31.47 13.9845,31.848 13.6875,32.199 C13.3635,32.577 13.0125,32.928 12.6885,33.252 L10.1235,35.655 C9.2865,36.465 8.3955,37.221 7.4775,37.95 C7.2075,38.166 6.9915,38.355 6.7755,38.571 C6.5595,38.787 6.3705,39.003 6.1545,39.219 C5.9655,39.408 5.8035,39.597 5.6955,39.759 C5.5875,39.975 5.5335,40.191 5.5335,40.434 C5.5335,40.812 5.6685,41.109 5.9655,41.298 C6.2355,41.514 6.5325,41.595 6.8835,41.595 C7.0995,41.595 7.3425,41.568 7.6125,41.514 C7.7475,41.487 7.8825,41.46 8.0175,41.433 C8.1255,41.406 8.2605,41.379 8.3955,41.352 C9.4215,41.217 10.4745,41.109 11.5815,41.001 C12.6615,40.893 13.7145,40.839 14.7405,40.839 C15.3075,40.839 15.9015,40.893 16.4955,40.974 C17.0625,41.082 17.6295,41.109 18.2235,41.109 C18.3855,41.109 18.5475,41.055 18.7095,40.893 C18.8715,40.785 18.9795,40.596 18.9795,40.353 Z M84.1964531,57.456 C84.1964531,55.44 83.3004531,53.872 81.9564531,52.752 C80.1644531,51.856 77.0284531,51.408 72.5484531,51.408 L51.4924531,51.408 L35.1404531,51.856 L22.1484531,51.856 C20.8044531,52.304 19.9084531,53.2 19.4604531,54.544 C18.7884531,55.888 18.5644531,57.008 18.5644531,57.904 C18.5644531,60.144 18.7884531,61.488 19.6844531,62.384 C20.5804531,63.28 21.4764531,63.728 22.8204531,63.728 L26.8524531,63.728 C29.0924531,63.728 31.5564531,63.728 34.4684531,63.504 L62.9164531,63.504 C66.5004531,63.728 69.8604531,63.728 72.9964531,63.728 L77.9244531,63.728 C79.4924531,63.728 81.0604531,63.28 82.4044531,62.16 C83.5244531,61.264 84.1964531,59.696 84.1964531,57.456 Z M25.75,36.5 C27.6623229,36.5 29.2796522,37.7630173 29.8133182,39.5003819 L56.4995,39.5 L56.5,37.5 C61.3016493,38.7977431 64.916104,39.7830665 67.3433642,40.4559703 L67.6181641,40.5322266 C62.6318359,41.8798828 58.9257813,42.8232422 56.5,43.3623047 L56.4995,41.5 L29.9338526,41.5010146 C29.5792091,43.4900217 27.8409417,45 25.75,45 C23.4027898,45 21.5,43.0972102 21.5,40.75 C21.5,38.4027898 23.4027898,36.5 25.75,36.5 Z M25.75,37.5 C23.9550746,37.5 22.5,38.9550746 22.5,40.75 C22.5,42.5449254 23.9550746,44 25.75,44 C27.5449254,44 29,42.5449254 29,40.75 C29,38.9550746 27.5449254,37.5 25.75,37.5 Z"/></svg>