<svg xmlns="http://www.w3.org/2000/svg" width="103" height="203" viewBox="0 0 103 203"><path fill="#131313" d="M829.878906,85.765 C842.007812,85.765 851.815755,89.8079688 859.302734,97.8939062 C866.789714,105.979844 870.533203,116.611354 870.533203,129.788438 C870.533203,142.666042 866.714844,153.222682 859.078125,161.458359 C851.591146,169.544297 841.858073,173.587266 829.878906,173.587266 C817.89974,173.587266 808.091797,169.544297 800.455078,161.458359 C792.818359,153.222682 789,142.666042 789,129.788438 C789,116.611354 792.74349,105.979844 800.230469,97.8939062 C807.717448,89.8079688 817.60026,85.765 829.878906,85.765 Z M829.482422,101.765 C821.695964,101.765 815.70638,104.235703 811.513672,109.177109 C807.171224,114.118516 805,120.931667 805,129.616563 C805,136.205104 806.796875,142.494167 810.390625,148.48375 C813.984375,154.323594 820.348307,157.243516 829.482422,157.243516 C838.466797,157.243516 844.755859,154.323594 848.349609,148.48375 C851.943359,142.494167 853.740234,136.205104 853.740234,129.616563 C853.740234,120.931667 851.64388,114.118516 847.451172,109.177109 C843.108724,104.235703 837.119141,101.765 829.482422,101.765 Z M845.130859,74.35875 C845.130859,74.7300189 845.070944,75.4921702 844.985843,76.373161 L844.9615,76.616 L845.651828,76.7608225 C848.374177,77.3556214 850.970703,78.202066 853.441406,79.3001563 C856.286458,80.4980729 858.906901,81.920599 861.302734,83.5677344 C862.201172,82.8190365 863.249349,82.4446875 864.447266,82.4446875 C865.645182,82.4446875 866.768229,82.8190365 867.816406,83.5677344 C868.714844,84.4661719 869.238932,85.5892188 869.388672,86.936875 C869.388672,88.2845313 868.939453,89.4824479 868.041016,90.530625 C867.142578,91.5788021 866.019531,92.1028906 864.671875,92.1028906 C863.324219,92.2526302 862.126302,91.8782813 861.078125,90.9798438 C860.329427,90.2311458 859.805339,89.3327083 859.505859,88.2845313 C859.35612,87.2363542 859.505859,86.2630469 859.955078,85.3646094 C860.104818,85.2148698 860.179687,84.9902604 860.179687,84.6907813 C860.179687,84.8405208 860.104818,85.0651302 859.955078,85.3646094 C857.708984,83.8672135 855.313151,82.5944271 852.767578,81.54625 C850.232814,80.5025238 847.54958,79.6072682 844.717875,78.8604832 C844.610574,79.7780888 844.510202,80.5533963 844.457031,80.8724219 C841.761719,79.9739844 837.71875,78.4765885 832.328125,76.3802344 C835.173177,75.9310156 839.440755,75.2571875 845.130859,74.35875 Z M868.714844,87.1614844 L868.709114,87.4147429 C868.659455,88.497299 868.287016,89.3861868 867.591797,90.0814063 C868.490234,89.3327083 868.864583,88.359401 868.714844,87.1614844 Z M861.527344,84.0169531 L861.4375,84.0978125 C861.317708,84.1936458 861.197917,84.2415625 861.078125,84.2415625 C860.928385,84.5410417 860.778646,84.765651 860.628906,84.9153906 C860.778646,84.765651 861.003255,84.6159115 861.302734,84.4661719 C861.302734,84.3164323 861.377604,84.1666927 861.527344,84.0169531 Z M864.447266,82.8939063 C863.399089,82.8939063 862.500651,83.1933854 861.751953,83.7923438 C862.568714,83.2478362 863.447352,82.950832 864.387865,82.9013314 L864.5685,82.896 L864.447266,82.8939063 Z M866.757137,84.3302971 C866.767822,84.3353254 866.778721,84.3405674 866.789834,84.3460231 L866.76511,84.3226714 L866.6945,84.265 L866.6985,84.305 L866.668403,84.2914757 C866.585214,84.2582002 866.518663,84.2415625 866.46875,84.2415625 L866.6665,84.241 L866.606011,84.1916493 C866.065285,83.775706 865.420573,83.5677344 864.671875,83.5677344 C863.773437,83.5677344 862.94987,83.7923438 862.201172,84.2415625 C862.051432,84.2415625 861.976562,84.3164323 861.976562,84.4661719 C861.826823,84.6159115 861.677083,84.6907813 861.527344,84.6907813 C861.377604,84.9902604 861.227865,85.2148698 861.078125,85.3646094 C861.078125,85.4893924 861.026132,85.6661683 860.922146,85.8949371 L860.853516,86.0384375 C860.703776,86.7871354 860.703776,87.4609635 860.853516,88.0599219 C861.003255,88.8086198 861.377604,89.4824479 861.976562,90.0814063 C862.72526,90.6803646 863.623698,90.9798438 864.671875,90.9798438 C865.720052,90.9798438 866.54362,90.6054948 867.142578,89.8567969 C867.891276,89.108099 868.265625,88.2096615 868.265625,87.1614844 C868.115885,86.1133073 867.666667,85.2148698 866.917969,84.4661719 L866.849338,84.4599327 C866.745352,84.4391356 866.693359,84.3663455 866.693359,84.2415625 L866.6985,84.305 Z M878.8755,72.215 C878.8755,71.864 878.7675,71.594 878.5515,71.432 C878.3085,71.27 878.0115,71.162 877.6335,71.162 C877.4715,71.162 877.3365,71.243 877.1745,71.351 C877.0125,71.486 876.8775,71.594 876.7965,71.675 C876.5805,71.891 876.4185,72.08 876.2835,72.296 C876.1215,72.512 875.9325,72.728 875.7705,72.917 C875.2575,73.511 874.7175,74.159 874.1235,74.807 C873.5025,75.482 872.9085,76.076 872.3415,76.616 C872.2875,76.67 872.2065,76.724 872.1525,76.778 L871.9365,76.886 C871.8555,76.94 871.7745,76.967 871.7205,77.021 L871.4775,77.183 C871.3425,77.291 871.2345,77.372 871.1535,77.453 C871.0455,77.561 871.0185,77.642 871.0185,77.723 C871.0185,78.047 871.1535,78.29 871.4775,78.479 C871.7475,78.695 872.0715,78.776 872.3955,78.776 C872.6385,78.776 872.8545,78.722 873.0705,78.614 C873.2595,78.506 873.4485,78.344 873.6645,78.128 C873.7995,77.966 873.9615,77.777 874.1775,77.534 L874.7175,76.94 C874.8525,76.805 875.0685,76.589 875.3385,76.292 C875.6085,75.995 875.9055,75.644 876.2835,75.239 C876.2025,75.671 876.1215,76.184 876.0675,76.778 C875.9595,77.372 875.8785,77.966 875.7975,78.614 L875.5815,80.531 C875.5275,81.179 875.4735,81.8 875.4465,82.34 C875.3925,83.366 875.3385,84.392 875.3115,85.418 C875.2575,86.444 875.2305,87.335 875.2305,88.091 C875.2305,88.523 875.3385,88.847 875.5815,89.09 C875.8245,89.36 876.1485,89.468 876.5805,89.468 C876.7965,89.468 877.0395,89.414 877.3095,89.306 C877.5255,89.198 877.6605,89.063 877.6605,88.901 C877.6605,88.82 877.6335,88.658 877.6335,88.388 C877.5795,88.145 877.5525,87.848 877.5255,87.524 C877.4715,87.227 877.4175,86.903 877.4175,86.552 C877.3635,86.201 877.3635,85.877 877.3635,85.607 C877.3635,83.717 877.4175,81.827 877.5795,79.91 C877.7415,78.02 878.0385,76.13 878.5245,74.267 C878.5515,74.105 878.6055,73.943 878.6595,73.754 L878.7675,73.241 L878.8485,72.728 C878.8485,72.566 878.8755,72.404 878.8755,72.215 Z M796.9795,48.118 C796.9795,47.74 796.8445,47.416 796.6015,47.092 C796.3585,46.768 796.0885,46.606 795.7645,46.606 C795.5215,46.606 795.2785,46.633 795.0625,46.687 L794.6845,46.768 L794.3065,46.822 C793.7125,46.876 793.1185,46.93 792.4975,46.93 C791.8495,46.93 791.2555,46.957 790.6885,46.984 C790.1485,47.038 789.5815,47.065 788.9875,47.092 C788.3935,47.146 787.6375,47.2 786.7465,47.308 C787.3675,46.795 787.8805,46.336 788.2855,45.958 L789.3925,44.905 L791.2015,43.15 C791.7955,42.556 792.3895,41.989 793.0105,41.395 C793.7665,40.639 794.3605,39.775 794.7655,38.776 C795.1435,37.804 795.3325,36.778 795.3325,35.671 C795.3325,35.104 795.1975,34.537 794.9545,33.97 C794.6845,33.43 794.3335,32.917 793.9015,32.458 C793.4425,32.026 792.9025,31.675 792.2815,31.405 C791.6605,31.135 790.9855,31 790.2835,31 C789.5005,31 788.7445,31.108 787.9885,31.324 C787.2325,31.567 786.5575,31.945 785.9635,32.458 C785.7475,32.62 785.5585,32.863 785.3425,33.133 C785.1265,33.43 784.9105,33.727 784.7485,34.051 C784.5595,34.375 784.3975,34.699 784.2895,35.023 C784.1545,35.347 784.1005,35.644 784.1005,35.887 C784.1005,36.211 784.2085,36.454 784.4785,36.67 C784.7215,36.913 784.9645,37.021 785.2345,37.021 C785.4235,37.021 785.5855,36.994 785.7205,36.886 C785.8285,36.805 785.9635,36.67 786.1255,36.508 C786.1795,36.427 786.2605,36.292 786.3415,36.13 C786.4225,35.995 786.5035,35.833 786.5845,35.671 C786.6385,35.536 786.7195,35.374 786.7735,35.212 C786.8275,35.05 786.8815,34.915 786.9895,34.753 C787.3675,34.105 787.7995,33.619 788.2855,33.241 C788.7445,32.89 789.3925,32.701 790.2025,32.701 C790.6345,32.701 791.0665,32.809 791.4445,32.971 C791.8225,33.16 792.1465,33.403 792.4435,33.7 C792.7135,34.024 792.9295,34.375 793.0915,34.753 C793.2535,35.158 793.3345,35.563 793.3345,35.995 C793.3345,36.535 793.2535,37.021 793.0915,37.48 C792.9295,37.966 792.7405,38.398 792.4975,38.803 C792.2545,39.235 791.9845,39.613 791.6875,39.964 C791.3635,40.342 791.0125,40.693 790.6885,41.017 L788.1235,43.42 C787.2865,44.23 786.3955,44.986 785.4775,45.715 C785.2075,45.931 784.9915,46.12 784.7755,46.336 C784.5595,46.552 784.3705,46.768 784.1545,46.984 C783.9655,47.173 783.8035,47.362 783.6955,47.524 C783.5875,47.74 783.5335,47.956 783.5335,48.199 C783.5335,48.577 783.6685,48.874 783.9655,49.063 C784.2355,49.279 784.5325,49.36 784.8835,49.36 C785.0995,49.36 785.3425,49.333 785.6125,49.279 C785.7475,49.252 785.8825,49.225 786.0175,49.198 C786.1255,49.171 786.2605,49.144 786.3955,49.117 C787.4215,48.982 788.4745,48.874 789.5815,48.766 C790.6615,48.658 791.7145,48.604 792.7405,48.604 C793.3075,48.604 793.9015,48.658 794.4955,48.739 C795.0625,48.847 795.6295,48.874 796.2235,48.874 C796.3855,48.874 796.5475,48.82 796.7095,48.658 C796.8715,48.55 796.9795,48.361 796.9795,48.118 Z M862.196453,65.221 C862.196453,63.205 861.300453,61.637 859.956453,60.517 C858.164453,59.621 855.028453,59.173 850.548453,59.173 L829.492453,59.173 L813.140453,59.621 L800.148453,59.621 C798.804453,60.069 797.908453,60.965 797.460453,62.309 C796.788453,63.653 796.564453,64.773 796.564453,65.669 C796.564453,67.909 796.788453,69.253 797.684453,70.149 C798.580453,71.045 799.476453,71.493 800.820453,71.493 L804.852453,71.493 C807.092453,71.493 809.556453,71.493 812.468453,71.269 L840.916453,71.269 C844.500453,71.493 847.860453,71.493 850.996453,71.493 L855.924453,71.493 C857.492453,71.493 859.060453,71.045 860.404453,69.925 C861.524453,69.029 862.196453,67.461 862.196453,65.221 Z M803.75,44.265 C805.662323,44.265 807.279652,45.5280173 807.813318,47.2653819 L834.4995,47.265 L834.5,45.265 C839.301649,46.5627431 842.916104,47.5480665 845.343364,48.2209703 L845.618164,48.2972266 C840.631836,49.6448828 836.925781,50.5882422 834.5,51.1273047 L834.4995,49.265 L807.933853,49.2660146 C807.579209,51.2550217 805.840942,52.765 803.75,52.765 C801.40279,52.765 799.5,50.8622102 799.5,48.515 C799.5,46.1677898 801.40279,44.265 803.75,44.265 Z M803.75,45.265 C801.955075,45.265 800.5,46.7200746 800.5,48.515 C800.5,50.3099254 801.955075,51.765 803.75,51.765 C805.544925,51.765 807,50.3099254 807,48.515 C807,46.7200746 805.544925,45.265 803.75,45.265 Z" transform="translate(-778 -31.765)"/></svg>