<svg xmlns="http://www.w3.org/2000/svg" width="103" height="203" viewBox="0 0 103 203"><path fill="#131313" d="M829.878906,115 C842.007812,115 851.815755,119.042969 859.302734,127.128906 C866.789714,135.214844 870.533203,145.846354 870.533203,159.023438 C870.533203,171.901042 866.714844,182.457682 859.078125,190.693359 C851.591146,198.779297 841.858073,202.822266 829.878906,202.822266 C817.89974,202.822266 808.091797,198.779297 800.455078,190.693359 C792.818359,182.457682 789,171.901042 789,159.023438 C789,145.846354 792.74349,135.214844 800.230469,127.128906 C807.717448,119.042969 817.60026,115 829.878906,115 Z M829.482422,131 C821.695964,131 815.70638,133.470703 811.513672,138.412109 C807.171224,143.353516 805,150.166667 805,158.851563 C805,165.440104 806.796875,171.729167 810.390625,177.71875 C813.984375,183.558594 820.348307,186.478516 829.482422,186.478516 C838.466797,186.478516 844.755859,183.558594 848.349609,177.71875 C851.943359,171.729167 853.740234,165.440104 853.740234,158.851563 C853.740234,150.166667 851.64388,143.353516 847.451172,138.412109 C843.108724,133.470703 837.119141,131 829.482422,131 Z M845.130859,103.59375 C845.130859,103.965019 845.070944,104.72717 844.985843,105.608161 L844.9615,105.851 L845.651828,105.995822 C848.374177,106.590621 850.970703,107.437066 853.441406,108.535156 C856.286458,109.733073 858.906901,111.155599 861.302734,112.802734 C862.201172,112.054036 863.249349,111.679688 864.447266,111.679688 C865.645182,111.679688 866.768229,112.054036 867.816406,112.802734 C868.714844,113.701172 869.238932,114.824219 869.388672,116.171875 C869.388672,117.519531 868.939453,118.717448 868.041016,119.765625 C867.142578,120.813802 866.019531,121.337891 864.671875,121.337891 C863.324219,121.48763 862.126302,121.113281 861.078125,120.214844 C860.329427,119.466146 859.805339,118.567708 859.505859,117.519531 C859.35612,116.471354 859.505859,115.498047 859.955078,114.599609 C860.104818,114.44987 860.179687,114.22526 860.179687,113.925781 C860.179687,114.075521 860.104818,114.30013 859.955078,114.599609 C857.708984,113.102214 855.313151,111.829427 852.767578,110.78125 C850.232814,109.737524 847.54958,108.842268 844.717875,108.095483 C844.610574,109.013089 844.510202,109.788396 844.457031,110.107422 C841.761719,109.208984 837.71875,107.711589 832.328125,105.615234 C835.173177,105.166016 839.440755,104.492188 845.130859,103.59375 Z M868.714844,116.396484 L868.709114,116.649743 C868.659455,117.732299 868.287016,118.621187 867.591797,119.316406 C868.490234,118.567708 868.864583,117.594401 868.714844,116.396484 Z M861.527344,113.251953 L861.4375,113.332813 C861.317708,113.428646 861.197917,113.476563 861.078125,113.476563 C860.928385,113.776042 860.778646,114.000651 860.628906,114.150391 C860.778646,114.000651 861.003255,113.850911 861.302734,113.701172 C861.302734,113.551432 861.377604,113.401693 861.527344,113.251953 Z M864.447266,112.128906 C863.399089,112.128906 862.500651,112.428385 861.751953,113.027344 C862.568714,112.482836 863.447352,112.185832 864.387865,112.136331 L864.5685,112.131 L864.447266,112.128906 Z M866.757137,113.565297 C866.767822,113.570325 866.778721,113.575567 866.789834,113.581023 L866.76511,113.557671 L866.6945,113.5 L866.6985,113.54 L866.668403,113.526476 C866.585214,113.4932 866.518663,113.476563 866.46875,113.476563 L866.6665,113.476 L866.606011,113.426649 C866.065285,113.010706 865.420573,112.802734 864.671875,112.802734 C863.773437,112.802734 862.94987,113.027344 862.201172,113.476563 C862.051432,113.476563 861.976562,113.551432 861.976562,113.701172 C861.826823,113.850911 861.677083,113.925781 861.527344,113.925781 C861.377604,114.22526 861.227865,114.44987 861.078125,114.599609 C861.078125,114.724392 861.026132,114.901168 860.922146,115.129937 L860.853516,115.273438 C860.703776,116.022135 860.703776,116.695964 860.853516,117.294922 C861.003255,118.04362 861.377604,118.717448 861.976562,119.316406 C862.72526,119.915365 863.623698,120.214844 864.671875,120.214844 C865.720052,120.214844 866.54362,119.840495 867.142578,119.091797 C867.891276,118.343099 868.265625,117.444661 868.265625,116.396484 C868.115885,115.348307 867.666667,114.44987 866.917969,113.701172 L866.849338,113.694933 C866.745352,113.674136 866.693359,113.601345 866.693359,113.476563 L866.6985,113.54 Z M878.8755,101.45 C878.8755,101.099 878.7675,100.829 878.5515,100.667 C878.3085,100.505 878.0115,100.397 877.6335,100.397 C877.4715,100.397 877.3365,100.478 877.1745,100.586 C877.0125,100.721 876.8775,100.829 876.7965,100.91 C876.5805,101.126 876.4185,101.315 876.2835,101.531 C876.1215,101.747 875.9325,101.963 875.7705,102.152 C875.2575,102.746 874.7175,103.394 874.1235,104.042 C873.5025,104.717 872.9085,105.311 872.3415,105.851 C872.2875,105.905 872.2065,105.959 872.1525,106.013 L871.9365,106.121 C871.8555,106.175 871.7745,106.202 871.7205,106.256 L871.4775,106.418 C871.3425,106.526 871.2345,106.607 871.1535,106.688 C871.0455,106.796 871.0185,106.877 871.0185,106.958 C871.0185,107.282 871.1535,107.525 871.4775,107.714 C871.7475,107.93 872.0715,108.011 872.3955,108.011 C872.6385,108.011 872.8545,107.957 873.0705,107.849 C873.2595,107.741 873.4485,107.579 873.6645,107.363 C873.7995,107.201 873.9615,107.012 874.1775,106.769 L874.7175,106.175 C874.8525,106.04 875.0685,105.824 875.3385,105.527 C875.6085,105.23 875.9055,104.879 876.2835,104.474 C876.2025,104.906 876.1215,105.419 876.0675,106.013 C875.9595,106.607 875.8785,107.201 875.7975,107.849 L875.5815,109.766 C875.5275,110.414 875.4735,111.035 875.4465,111.575 C875.3925,112.601 875.3385,113.627 875.3115,114.653 C875.2575,115.679 875.2305,116.57 875.2305,117.326 C875.2305,117.758 875.3385,118.082 875.5815,118.325 C875.8245,118.595 876.1485,118.703 876.5805,118.703 C876.7965,118.703 877.0395,118.649 877.3095,118.541 C877.5255,118.433 877.6605,118.298 877.6605,118.136 C877.6605,118.055 877.6335,117.893 877.6335,117.623 C877.5795,117.38 877.5525,117.083 877.5255,116.759 C877.4715,116.462 877.4175,116.138 877.4175,115.787 C877.3635,115.436 877.3635,115.112 877.3635,114.842 C877.3635,112.952 877.4175,111.062 877.5795,109.145 C877.7415,107.255 878.0385,105.365 878.5245,103.502 C878.5515,103.34 878.6055,103.178 878.6595,102.989 L878.7675,102.476 L878.8485,101.963 C878.8485,101.801 878.8755,101.639 878.8755,101.45 Z M796.9795,77.353 C796.9795,76.975 796.8445,76.651 796.6015,76.327 C796.3585,76.003 796.0885,75.841 795.7645,75.841 C795.5215,75.841 795.2785,75.868 795.0625,75.922 L794.6845,76.003 L794.3065,76.057 C793.7125,76.111 793.1185,76.165 792.4975,76.165 C791.8495,76.165 791.2555,76.192 790.6885,76.219 C790.1485,76.273 789.5815,76.3 788.9875,76.327 C788.3935,76.381 787.6375,76.435 786.7465,76.543 C787.3675,76.03 787.8805,75.571 788.2855,75.193 L789.3925,74.14 L791.2015,72.385 C791.7955,71.791 792.3895,71.224 793.0105,70.63 C793.7665,69.874 794.3605,69.01 794.7655,68.011 C795.1435,67.039 795.3325,66.013 795.3325,64.906 C795.3325,64.339 795.1975,63.772 794.9545,63.205 C794.6845,62.665 794.3335,62.152 793.9015,61.693 C793.4425,61.261 792.9025,60.91 792.2815,60.64 C791.6605,60.37 790.9855,60.235 790.2835,60.235 C789.5005,60.235 788.7445,60.343 787.9885,60.559 C787.2325,60.802 786.5575,61.18 785.9635,61.693 C785.7475,61.855 785.5585,62.098 785.3425,62.368 C785.1265,62.665 784.9105,62.962 784.7485,63.286 C784.5595,63.61 784.3975,63.934 784.2895,64.258 C784.1545,64.582 784.1005,64.879 784.1005,65.122 C784.1005,65.446 784.2085,65.689 784.4785,65.905 C784.7215,66.148 784.9645,66.256 785.2345,66.256 C785.4235,66.256 785.5855,66.229 785.7205,66.121 C785.8285,66.04 785.9635,65.905 786.1255,65.743 C786.1795,65.662 786.2605,65.527 786.3415,65.365 C786.4225,65.23 786.5035,65.068 786.5845,64.906 C786.6385,64.771 786.7195,64.609 786.7735,64.447 C786.8275,64.285 786.8815,64.15 786.9895,63.988 C787.3675,63.34 787.7995,62.854 788.2855,62.476 C788.7445,62.125 789.3925,61.936 790.2025,61.936 C790.6345,61.936 791.0665,62.044 791.4445,62.206 C791.8225,62.395 792.1465,62.638 792.4435,62.935 C792.7135,63.259 792.9295,63.61 793.0915,63.988 C793.2535,64.393 793.3345,64.798 793.3345,65.23 C793.3345,65.77 793.2535,66.256 793.0915,66.715 C792.9295,67.201 792.7405,67.633 792.4975,68.038 C792.2545,68.47 791.9845,68.848 791.6875,69.199 C791.3635,69.577 791.0125,69.928 790.6885,70.252 L788.1235,72.655 C787.2865,73.465 786.3955,74.221 785.4775,74.95 C785.2075,75.166 784.9915,75.355 784.7755,75.571 C784.5595,75.787 784.3705,76.003 784.1545,76.219 C783.9655,76.408 783.8035,76.597 783.6955,76.759 C783.5875,76.975 783.5335,77.191 783.5335,77.434 C783.5335,77.812 783.6685,78.109 783.9655,78.298 C784.2355,78.514 784.5325,78.595 784.8835,78.595 C785.0995,78.595 785.3425,78.568 785.6125,78.514 C785.7475,78.487 785.8825,78.46 786.0175,78.433 C786.1255,78.406 786.2605,78.379 786.3955,78.352 C787.4215,78.217 788.4745,78.109 789.5815,78.001 C790.6615,77.893 791.7145,77.839 792.7405,77.839 C793.3075,77.839 793.9015,77.893 794.4955,77.974 C795.0625,78.082 795.6295,78.109 796.2235,78.109 C796.3855,78.109 796.5475,78.055 796.7095,77.893 C796.8715,77.785 796.9795,77.596 796.9795,77.353 Z M862.196453,94.456 C862.196453,92.44 861.300453,90.872 859.956453,89.752 C858.164453,88.856 855.028453,88.408 850.548453,88.408 L829.492453,88.408 L813.140453,88.856 L800.148453,88.856 C798.804453,89.304 797.908453,90.2 797.460453,91.544 C796.788453,92.888 796.564453,94.008 796.564453,94.904 C796.564453,97.144 796.788453,98.488 797.684453,99.384 C798.580453,100.28 799.476453,100.728 800.820453,100.728 L804.852453,100.728 C807.092453,100.728 809.556453,100.728 812.468453,100.504 L840.916453,100.504 C844.500453,100.728 847.860453,100.728 850.996453,100.728 L855.924453,100.728 C857.492453,100.728 859.060453,100.28 860.404453,99.16 C861.524453,98.264 862.196453,96.696 862.196453,94.456 Z M803.75,73.5 C805.662323,73.5 807.279652,74.7630173 807.813318,76.5003819 L834.4995,76.5 L834.5,74.5 C839.301649,75.7977431 842.916104,76.7830665 845.343364,77.4559703 L845.618164,77.5322266 C840.631836,78.8798828 836.925781,79.8232422 834.5,80.3623047 L834.4995,78.5 L807.933853,78.5010146 C807.579209,80.4900217 805.840942,82 803.75,82 C801.40279,82 799.5,80.0972102 799.5,77.75 C799.5,75.4027898 801.40279,73.5 803.75,73.5 Z M803.75,74.5 C801.955075,74.5 800.5,75.9550746 800.5,77.75 C800.5,79.5449254 801.955075,81 803.75,81 C805.544925,81 807,79.5449254 807,77.75 C807,75.9550746 805.544925,74.5 803.75,74.5 Z" transform="translate(-778)"/></svg>