<svg xmlns="http://www.w3.org/2000/svg" width="103" height="203" viewBox="0 0 103 203"><path fill="#131313" d="M3755.70898,117 C3757.95508,117 3759.90169,117.748698 3761.54883,119.246094 C3763.19596,120.893229 3764.01953,122.839844 3764.01953,125.085938 C3764.01953,129.428385 3764.01953,135.942057 3764.01953,144.626953 C3764.01953,148.220703 3764.01953,153.536458 3764.01953,160.574219 C3764.01953,168.061198 3764.01953,179.366536 3764.01953,194.490234 C3764.01953,196.736328 3763.19596,198.682943 3761.54883,200.330078 C3759.90169,201.827474 3757.95508,202.576172 3755.70898,202.576172 C3753.46289,202.576172 3751.59115,201.827474 3750.09375,200.330078 C3748.44661,198.682943 3747.62305,196.736328 3747.62305,194.490234 C3747.62305,194.190755 3747.62305,193.666667 3747.62305,192.917969 C3743.87956,195.91276 3739.68685,198.233724 3735.04492,199.880859 C3730.25326,201.677734 3725.08724,202.576172 3719.54688,202.576172 C3714.15625,202.576172 3709.66406,201.827474 3706.07031,200.330078 C3702.47656,198.832682 3699.55664,196.886068 3697.31055,194.490234 C3693.11784,189.998047 3690.72201,184.832031 3690.12305,178.992188 C3689.37435,173.152344 3689,168.510417 3689,165.066406 C3689,156.231771 3689,142.904948 3689,125.085938 C3689,122.839844 3689.82357,120.893229 3691.4707,119.246094 C3692.9681,117.748698 3694.83984,117 3697.08594,117 C3699.33203,117 3701.27865,117.748698 3702.92578,119.246094 C3704.42318,120.893229 3705.17188,122.839844 3705.17188,125.085938 C3705.17188,133.920573 3705.17188,147.247396 3705.17188,165.066406 C3705.17188,173.451823 3706.14518,179.067057 3708.0918,181.912109 C3710.18815,184.906901 3714.00651,186.404297 3719.54688,186.404297 C3726.13542,186.404297 3732.49935,184.008464 3738.63867,179.216797 C3744.62826,174.42513 3747.62305,168.210938 3747.62305,160.574219 C3747.62305,156.980469 3747.62305,151.664714 3747.62305,144.626953 C3747.62305,140.284505 3747.62305,133.770833 3747.62305,125.085938 C3747.62305,122.839844 3748.44661,120.893229 3750.09375,119.246094 C3751.59115,117.748698 3753.46289,117 3755.70898,117 Z M3737.89648,135.193359 C3738.04622,135.193359 3738.19596,135.193359 3738.3457,135.193359 C3738.64518,135.193359 3738.86979,135.193359 3739.01953,135.193359 C3739.16927,135.193359 3739.39388,135.193359 3739.69336,135.193359 C3739.8431,135.193359 3739.99284,135.193359 3740.14258,135.193359 C3740.14258,138.038411 3740.14258,142.455729 3740.14258,148.445313 C3739.69336,148.445313 3738.94466,148.445313 3737.89648,148.445313 C3737.89648,146.199219 3737.89648,143.953125 3737.89648,141.707031 C3737.89648,139.460938 3737.89648,137.289714 3737.89648,135.193359 Z M3742.38867,148.445313 C3741.63997,151.290365 3740.51693,155.483073 3739.01953,161.023438 C3738.27083,158.178385 3737.14779,153.985677 3735.65039,148.445313 L3742.38867,148.445313 Z M3738.85,127.265 C3741.19721,127.265 3743.1,129.16779 3743.1,131.515 C3743.1,133.86221 3741.19721,135.765 3738.85,135.765 C3736.50279,135.765 3734.6,133.86221 3734.6,131.515 C3734.6,129.16779 3736.50279,127.265 3738.85,127.265 Z M3738.85,128.265 C3737.05507,128.265 3735.6,129.720075 3735.6,131.515 C3735.6,133.309925 3737.05507,134.765 3738.85,134.765 C3740.64493,134.765 3742.1,133.309925 3742.1,131.515 C3742.1,129.720075 3740.64493,128.265 3738.85,128.265 Z M3681.51953,165.515625 C3681.51953,178.09375 3683.76562,188.126302 3688.25781,195.613281 C3692.75,203.10026 3699.48828,207.966797 3708.47266,210.212891 C3708.47266,210.662109 3708.39779,211.410807 3708.24805,212.458984 C3704.05534,211.410807 3700.38672,209.913411 3697.24219,207.966797 C3694.2474,205.870443 3691.62695,203.549479 3689.38086,201.003906 C3685.33789,196.0625 3682.64258,190.372396 3681.29492,183.933594 C3679.94727,177.644531 3679.27344,171.505208 3679.27344,165.515625 C3679.27344,158.777344 3679.27344,148.669922 3679.27344,135.193359 C3679.42318,135.193359 3679.57292,135.193359 3679.72266,135.193359 C3680.02214,135.193359 3680.24674,135.193359 3680.39648,135.193359 C3680.54622,135.193359 3680.69596,135.193359 3680.8457,135.193359 C3681.14518,135.193359 3681.36979,135.193359 3681.51953,135.193359 C3681.51953,140.134766 3681.51953,145.151042 3681.51953,150.242188 C3681.51953,155.333333 3681.51953,160.424479 3681.51953,165.515625 Z M3708.69727,208.191406 C3711.39258,209.239583 3715.43555,210.811849 3720.82617,212.908203 C3717.98112,213.357422 3713.71354,214.03125 3708.02344,214.929688 C3708.02344,214.330729 3708.54753,209.089844 3708.69727,208.191406 Z M3725.2835,130.235 C3725.9855,130.235 3726.6605,130.37 3727.2815,130.64 C3727.9025,130.91 3728.4425,131.261 3728.9015,131.693 C3729.3335,132.152 3729.6845,132.665 3729.9545,133.205 C3730.1975,133.772 3730.3325,134.339 3730.3325,134.906 C3730.3325,136.013 3730.1435,137.039 3729.7655,138.011 C3729.3605,139.01 3728.7665,139.874 3728.0105,140.63 C3727.3895,141.224 3726.7955,141.791 3726.2015,142.385 L3724.3925,144.14 L3723.2855,145.193 C3722.8805,145.571 3722.3675,146.03 3721.7465,146.543 C3722.6375,146.435 3723.3935,146.381 3723.9875,146.327 C3724.5815,146.3 3725.1485,146.273 3725.6885,146.219 C3726.2555,146.192 3726.8495,146.165 3727.4975,146.165 C3728.1185,146.165 3728.7125,146.111 3729.3065,146.057 L3729.6845,146.003 L3730.0625,145.922 C3730.2785,145.868 3730.5215,145.841 3730.7645,145.841 C3731.0885,145.841 3731.3585,146.003 3731.6015,146.327 C3731.8445,146.651 3731.9795,146.975 3731.9795,147.353 C3731.9795,147.596 3731.8715,147.785 3731.7095,147.893 C3731.5475,148.055 3731.3855,148.109 3731.2235,148.109 C3730.6295,148.109 3730.0625,148.082 3729.4955,147.974 C3728.9015,147.893 3728.3075,147.839 3727.7405,147.839 C3726.7145,147.839 3725.6615,147.893 3724.5815,148.001 C3723.4745,148.109 3722.4215,148.217 3721.3955,148.352 C3721.2605,148.379 3721.1255,148.406 3721.0175,148.433 C3720.8825,148.46 3720.7475,148.487 3720.6125,148.514 C3720.3425,148.568 3720.0995,148.595 3719.8835,148.595 C3719.5325,148.595 3719.2355,148.514 3718.9655,148.298 C3718.6685,148.109 3718.5335,147.812 3718.5335,147.434 C3718.5335,147.191 3718.5875,146.975 3718.6955,146.759 C3718.8035,146.597 3718.9655,146.408 3719.1545,146.219 C3719.3705,146.003 3719.5595,145.787 3719.7755,145.571 C3719.9915,145.355 3720.2075,145.166 3720.4775,144.95 C3721.3955,144.221 3722.2865,143.465 3723.1235,142.655 L3725.6885,140.252 C3726.0125,139.928 3726.3635,139.577 3726.6875,139.199 C3726.9845,138.848 3727.2545,138.47 3727.4975,138.038 C3727.7405,137.633 3727.9295,137.201 3728.0915,136.715 C3728.2535,136.256 3728.3345,135.77 3728.3345,135.23 C3728.3345,134.798 3728.2535,134.393 3728.0915,133.988 C3727.9295,133.61 3727.7135,133.259 3727.4435,132.935 C3727.1465,132.638 3726.8225,132.395 3726.4445,132.206 C3726.0665,132.044 3725.6345,131.936 3725.2025,131.936 C3724.3925,131.936 3723.7445,132.125 3723.2855,132.476 C3722.7995,132.854 3722.3675,133.34 3721.9895,133.988 C3721.8815,134.15 3721.8275,134.285 3721.7735,134.447 C3721.7195,134.609 3721.6385,134.771 3721.5845,134.906 C3721.5035,135.068 3721.4225,135.23 3721.3415,135.365 C3721.2605,135.527 3721.1795,135.662 3721.1255,135.743 C3720.9635,135.905 3720.8285,136.04 3720.7205,136.121 C3720.5855,136.229 3720.4235,136.256 3720.2345,136.256 C3719.9645,136.256 3719.7215,136.148 3719.4785,135.905 C3719.2085,135.689 3719.1005,135.446 3719.1005,135.122 C3719.1005,134.879 3719.1545,134.582 3719.2895,134.258 C3719.3975,133.934 3719.5595,133.61 3719.7485,133.286 C3719.9105,132.962 3720.1265,132.665 3720.3425,132.368 C3720.5585,132.098 3720.7475,131.855 3720.9635,131.693 C3721.5575,131.18 3722.2325,130.802 3722.9885,130.559 C3723.7445,130.343 3724.5005,130.235 3725.2835,130.235 Z M3667.6335,129.397 C3668.0115,129.397 3668.3085,129.505 3668.5515,129.667 C3668.7675,129.829 3668.8755,130.099 3668.8755,130.45 C3668.8755,130.639 3668.8485,130.801 3668.8485,130.963 L3668.7675,131.476 L3668.6595,131.989 C3668.6055,132.178 3668.5515,132.34 3668.5245,132.502 C3668.0385,134.365 3667.7415,136.255 3667.5795,138.145 C3667.4175,140.062 3667.3635,141.952 3667.3635,143.842 C3667.3635,144.112 3667.3635,144.436 3667.4175,144.787 C3667.4175,145.138 3667.4715,145.462 3667.5255,145.759 C3667.5525,146.083 3667.5795,146.38 3667.6335,146.623 C3667.6335,146.893 3667.6605,147.055 3667.6605,147.136 C3667.6605,147.298 3667.5255,147.433 3667.3095,147.541 C3667.0395,147.649 3666.7965,147.703 3666.5805,147.703 C3666.1485,147.703 3665.8245,147.595 3665.5815,147.325 C3665.3385,147.082 3665.2305,146.758 3665.2305,146.326 C3665.2305,145.57 3665.2575,144.679 3665.3115,143.653 C3665.3385,142.627 3665.3925,141.601 3665.4465,140.575 C3665.4735,140.035 3665.5275,139.414 3665.5815,138.766 L3665.7975,136.849 C3665.8785,136.201 3665.9595,135.607 3666.0675,135.013 C3666.1215,134.419 3666.2025,133.906 3666.2835,133.474 C3665.9055,133.879 3665.6085,134.23 3665.3385,134.527 C3665.0685,134.824 3664.8525,135.04 3664.7175,135.175 L3664.1775,135.769 C3663.9615,136.012 3663.7995,136.201 3663.6645,136.363 C3663.4485,136.579 3663.2595,136.741 3663.0705,136.849 C3662.8545,136.957 3662.6385,137.011 3662.3955,137.011 C3662.0715,137.011 3661.7475,136.93 3661.4775,136.714 C3661.1535,136.525 3661.0185,136.282 3661.0185,135.958 C3661.0185,135.877 3661.0455,135.796 3661.1535,135.688 C3661.2345,135.607 3661.3425,135.526 3661.4775,135.418 L3661.7205,135.256 C3661.7745,135.202 3661.8555,135.175 3661.9365,135.121 L3662.1525,135.013 L3662.3415,134.851 C3662.9085,134.311 3663.5025,133.717 3664.1235,133.042 C3664.7175,132.394 3665.2575,131.746 3665.7705,131.152 C3665.9325,130.963 3666.1215,130.747 3666.2835,130.531 C3666.4185,130.315 3666.5805,130.126 3666.7965,129.91 C3666.8775,129.829 3667.0125,129.721 3667.1745,129.586 C3667.3365,129.478 3667.4715,129.397 3667.6335,129.397 Z M3680.45,127.265 C3682.79721,127.265 3684.7,129.16779 3684.7,131.515 C3684.7,133.86221 3682.79721,135.765 3680.45,135.765 C3678.10279,135.765 3676.2,133.86221 3676.2,131.515 C3676.2,129.16779 3678.10279,127.265 3680.45,127.265 Z M3680.45,128.265 C3678.65507,128.265 3677.2,129.720075 3677.2,131.515 C3677.2,133.309925 3678.65507,134.765 3680.45,134.765 C3682.24493,134.765 3683.7,133.309925 3683.7,131.515 C3683.7,129.720075 3682.24493,128.265 3680.45,128.265 Z M3693.6015,72.574 C3693.6015,71.116 3693.0075,69.955 3691.8735,69.064 C3691.2795,68.659 3690.6585,68.389 3689.9835,68.281 C3689.2815,68.2 3688.6065,68.146 3687.9045,68.146 C3687.2565,68.146 3686.5815,68.227 3685.9335,68.335 C3685.2855,68.497 3684.5835,68.686 3683.8275,68.902 C3683.9085,67.876 3683.9895,66.931 3684.0975,66.067 L3684.3135,63.34 C3685.2855,63.259 3686.2035,63.151 3687.0675,63.043 L3689.6325,62.638 C3689.7945,62.611 3689.9835,62.584 3690.1995,62.557 C3690.3885,62.557 3690.5775,62.557 3690.7935,62.503 L3691.3605,62.395 C3691.5225,62.395 3691.7115,62.341 3691.8735,62.26 C3691.9815,62.206 3692.0625,62.152 3692.1165,62.098 C3692.1435,62.044 3692.1705,61.936 3692.1705,61.774 C3692.1705,61.666 3692.0895,61.531 3691.9545,61.369 C3691.7925,61.234 3691.6305,61.099 3691.4415,60.991 C3691.2255,60.883 3691.0095,60.775 3690.7935,60.667 C3690.5775,60.613 3690.3885,60.559 3690.2805,60.559 C3690.1725,60.559 3690.0915,60.586 3689.9835,60.613 C3689.8755,60.667 3689.7945,60.694 3689.6865,60.721 L3689.3355,60.829 C3689.2005,60.883 3689.0925,60.91 3689.0115,60.937 C3688.3095,61.126 3687.5535,61.261 3686.7435,61.369 C3685.9065,61.477 3685.0965,61.504 3684.3135,61.504 C3684.1245,61.342 3683.9625,61.207 3683.8275,61.153 C3683.6655,61.099 3683.4765,61.045 3683.3145,61.045 C3683.1525,61.045 3683.0175,61.072 3682.8555,61.126 C3682.6665,61.18 3682.5315,61.234 3682.4235,61.288 C3682.2615,61.612 3682.1535,62.098 3682.0995,62.746 C3682.0185,63.421 3681.9645,64.15 3681.9375,64.906 C3681.8835,65.716 3681.8295,66.499 3681.8295,67.255 C3681.7755,68.011 3681.7485,68.605 3681.7215,69.01 L3681.6675,69.361 L3681.6135,69.739 C3681.5595,70.009 3681.5325,70.252 3681.5325,70.495 C3681.5325,70.576 3681.5595,70.657 3681.6405,70.765 C3681.6945,70.873 3681.8025,70.954 3681.9105,71.035 C3682.0185,71.116 3682.1265,71.17 3682.2345,71.224 C3682.3425,71.278 3682.4235,71.305 3682.5315,71.305 C3682.7205,71.305 3682.9095,71.278 3683.0715,71.224 C3683.2065,71.17 3683.3685,71.116 3683.5575,71.008 C3683.7195,70.927 3683.9085,70.819 3684.0975,70.711 C3684.2595,70.63 3684.4485,70.549 3684.6645,70.468 C3685.2045,70.306 3685.7175,70.171 3686.2305,70.117 C3686.7165,70.063 3687.2565,70.009 3687.8505,70.009 C3688.2825,70.009 3688.7145,70.063 3689.1465,70.171 C3689.5515,70.279 3689.9295,70.441 3690.2535,70.657 C3690.5775,70.873 3690.8205,71.17 3691.0365,71.548 C3691.2255,71.926 3691.3335,72.385 3691.3335,72.925 C3691.3335,73.708 3691.1715,74.383 3690.9015,74.977 C3690.5775,75.571 3690.1995,76.057 3689.7135,76.435 C3689.2275,76.84 3688.6605,77.137 3688.0395,77.353 C3687.3915,77.569 3686.7435,77.65 3686.0955,77.65 C3685.4475,77.65 3684.8535,77.569 3684.3675,77.407 C3683.8275,77.245 3683.3955,77.056 3683.0175,76.84 C3682.8015,76.759 3682.6395,76.651 3682.4775,76.543 C3682.3155,76.462 3682.1805,76.381 3682.0455,76.3 C3681.8835,76.246 3681.7485,76.165 3681.6405,76.111 C3681.5055,76.084 3681.3975,76.057 3681.3165,76.057 C3681.0465,76.057 3680.8575,76.165 3680.6955,76.327 C3680.5065,76.543 3680.4255,76.786 3680.4255,77.083 C3680.4255,77.407 3680.5335,77.677 3680.7495,77.893 C3680.9655,78.136 3681.2085,78.325 3681.5055,78.433 C3681.7215,78.541 3682.0455,78.649 3682.4775,78.757 C3682.8555,78.892 3683.2875,79 3683.7195,79.081 C3684.1515,79.162 3684.5835,79.243 3685.0155,79.297 C3685.4205,79.351 3685.7715,79.405 3686.0415,79.405 C3687.0675,79.405 3688.0395,79.27 3688.9575,79 C3689.8755,78.73 3690.6855,78.325 3691.3875,77.731 C3692.0625,77.191 3692.6025,76.489 3693.0075,75.625 C3693.3855,74.761 3693.6015,73.762 3693.6015,72.574 Z M3759.19645,95.221 C3759.19645,93.205 3758.30045,91.637 3756.95645,90.517 C3755.16445,89.621 3752.02845,89.173 3747.54845,89.173 L3726.49245,89.173 L3710.14045,89.621 L3697.14845,89.621 C3695.80445,90.069 3694.90845,90.965 3694.46045,92.309 C3693.78845,93.653 3693.56445,94.773 3693.56445,95.669 C3693.56445,97.909 3693.78845,99.253 3694.68445,100.149 C3695.58045,101.045 3696.47645,101.493 3697.82045,101.493 L3701.85245,101.493 C3704.09245,101.493 3706.55645,101.493 3709.46845,101.269 L3737.91645,101.269 C3741.50045,101.493 3744.86045,101.493 3747.99645,101.493 L3752.92445,101.493 C3754.49245,101.493 3756.06045,101.045 3757.40445,99.925 C3758.52445,99.029 3759.19645,97.461 3759.19645,95.221 Z M3700.75,74.265 C3702.66232,74.265 3704.27965,75.5280173 3704.81332,77.2653819 L3731.4995,77.265 L3731.5,75.265 C3736.30165,76.5627431 3739.9161,77.5480665 3742.34336,78.2209703 L3742.61816,78.2972266 C3737.63184,79.6448828 3733.92578,80.5882422 3731.5,81.1273047 L3731.4995,79.265 L3704.93385,79.2660146 C3704.57921,81.2550217 3702.84094,82.765 3700.75,82.765 C3698.40279,82.765 3696.5,80.8622102 3696.5,78.515 C3696.5,76.1677898 3698.40279,74.265 3700.75,74.265 Z M3700.75,75.265 C3698.95507,75.265 3697.5,76.7200746 3697.5,78.515 C3697.5,80.3099254 3698.95507,81.765 3700.75,81.765 C3702.54493,81.765 3704,80.3099254 3704,78.515 C3704,76.7200746 3702.54493,75.265 3700.75,75.265 Z" transform="translate(-3675)"/></svg>