<svg xmlns="http://www.w3.org/2000/svg" width="103" height="243" viewBox="0 0 103 243"><path fill="#131313" d="M94.6904844,80 C96.9365781,80 98.8831927,80.7486979 100.530328,82.2460938 C102.177464,83.8932292 103.001031,85.8398438 103.001031,88.0859375 C103.001031,92.4283854 103.001031,98.9420573 103.001031,107.626953 C103.001031,111.220703 103.001031,116.536458 103.001031,123.574219 C103.001031,131.061198 103.001031,142.366536 103.001031,157.490234 C103.001031,159.736328 102.177464,161.682943 100.530328,163.330078 C98.8831927,164.827474 96.9365781,165.576172 94.6904844,165.576172 C92.4443906,165.576172 90.5726458,164.827474 89.07525,163.330078 C87.4281146,161.682943 86.6045469,159.736328 86.6045469,157.490234 C86.6045469,157.190755 86.6045469,156.666667 86.6045469,155.917969 C82.8610573,158.91276 78.668349,161.233724 74.0264219,162.880859 C69.2347552,164.677734 64.0687396,165.576172 58.528375,165.576172 C53.13775,165.576172 48.6455625,164.827474 45.0518125,163.330078 C41.4580625,161.832682 38.5381406,159.886068 36.2920469,157.490234 C32.0993385,152.998047 29.7035052,147.832031 29.1045469,141.992188 C28.355849,136.152344 27.9815,131.510417 27.9815,128.066406 C27.9815,119.231771 27.9815,105.904948 27.9815,88.0859375 C27.9815,85.8398438 28.8050677,83.8932292 30.4522031,82.2460938 C31.949599,80.7486979 33.8213438,80 36.0674375,80 C38.3135313,80 40.2601458,80.7486979 41.9072813,82.2460938 C43.4046771,83.8932292 44.153375,85.8398438 44.153375,88.0859375 C44.153375,96.9205729 44.153375,110.247396 44.153375,128.066406 C44.153375,136.451823 45.1266823,142.067057 47.0732969,144.912109 C49.169651,147.906901 52.9880104,149.404297 58.528375,149.404297 C65.1169167,149.404297 71.480849,147.008464 77.6201719,142.216797 C83.6097552,137.42513 86.6045469,131.210938 86.6045469,123.574219 C86.6045469,119.980469 86.6045469,114.664714 86.6045469,107.626953 C86.6045469,103.284505 86.6045469,96.7708333 86.6045469,88.0859375 C86.6045469,85.8398438 87.4281146,83.8932292 89.07525,82.2460938 C90.5726458,80.7486979 92.4443906,80 94.6904844,80 Z M76.8779844,98.1933594 C77.027724,98.1933594 77.1774635,98.1933594 77.3272031,98.1933594 C77.6266823,98.1933594 77.8512917,98.1933594 78.0010313,98.1933594 C78.1507708,98.1933594 78.3753802,98.1933594 78.6748594,98.1933594 C78.824599,98.1933594 78.9743385,98.1933594 79.1240781,98.1933594 C79.1240781,101.038411 79.1240781,105.455729 79.1240781,111.445312 C78.6748594,111.445312 77.9261615,111.445312 76.8779844,111.445312 C76.8779844,109.199219 76.8779844,106.953125 76.8779844,104.707031 C76.8779844,102.460938 76.8779844,100.289714 76.8779844,98.1933594 Z M81.3701719,111.445312 C80.621474,114.290365 79.4984271,118.483073 78.0010313,124.023438 C77.2523333,121.178385 76.1292865,116.985677 74.6318906,111.445312 L81.3701719,111.445312 Z M77.8315,90.265 C80.1787102,90.265 82.0815,92.1677898 82.0815,94.515 C82.0815,96.8622102 80.1787102,98.765 77.8315,98.765 C75.4842898,98.765 73.5815,96.8622102 73.5815,94.515 C73.5815,92.1677898 75.4842898,90.265 77.8315,90.265 Z M77.8315,91.265 C76.0365746,91.265 74.5815,92.7200746 74.5815,94.515 C74.5815,96.3099254 76.0365746,97.765 77.8315,97.765 C79.6264254,97.765 81.0815,96.3099254 81.0815,94.515 C81.0815,92.7200746 79.6264254,91.265 77.8315,91.265 Z M20.5010313,128.515625 C20.5010313,141.09375 22.747125,151.126302 27.2393125,158.613281 C31.7315,166.10026 38.4697813,170.966797 47.4541563,173.212891 C47.4541563,173.662109 47.3792865,174.410807 47.2295469,175.458984 C43.0368385,174.410807 39.3682188,172.913411 36.2236875,170.966797 C33.2288958,168.870443 30.6084531,166.549479 28.3623594,164.003906 C24.3193906,159.0625 21.6240781,153.372396 20.2764219,146.933594 C18.9287656,140.644531 18.2549375,134.505208 18.2549375,128.515625 C18.2549375,121.777344 18.2549375,111.669922 18.2549375,98.1933594 C18.4046771,98.1933594 18.5544167,98.1933594 18.7041563,98.1933594 C19.0036354,98.1933594 19.2282448,98.1933594 19.3779844,98.1933594 C19.527724,98.1933594 19.6774635,98.1933594 19.8272031,98.1933594 C20.1266823,98.1933594 20.3512917,98.1933594 20.5010313,98.1933594 C20.5010313,103.134766 20.5010313,108.151042 20.5010313,113.242188 C20.5010313,118.333333 20.5010313,123.424479 20.5010313,128.515625 Z M47.6787656,171.191406 C50.3740781,172.239583 54.4170469,173.811849 59.8076719,175.908203 C56.9626198,176.357422 52.6950417,177.03125 47.0049375,177.929688 C47.0049375,177.330729 47.529026,172.089844 47.6787656,171.191406 Z M64.265,93.235 C64.967,93.235 65.642,93.37 66.263,93.64 C66.884,93.91 67.424,94.261 67.883,94.693 C68.315,95.152 68.666,95.665 68.936,96.205 C69.179,96.772 69.314,97.339 69.314,97.906 C69.314,99.013 69.125,100.039 68.747,101.011 C68.342,102.01 67.748,102.874 66.992,103.63 C66.371,104.224 65.777,104.791 65.183,105.385 L63.374,107.14 L62.267,108.193 C61.862,108.571 61.349,109.03 60.728,109.543 C61.619,109.435 62.375,109.381 62.969,109.327 C63.563,109.3 64.13,109.273 64.67,109.219 C65.237,109.192 65.831,109.165 66.479,109.165 C67.1,109.165 67.694,109.111 68.288,109.057 L68.666,109.003 L69.044,108.922 C69.26,108.868 69.503,108.841 69.746,108.841 C70.07,108.841 70.34,109.003 70.583,109.327 C70.826,109.651 70.961,109.975 70.961,110.353 C70.961,110.596 70.853,110.785 70.691,110.893 C70.529,111.055 70.367,111.109 70.205,111.109 C69.611,111.109 69.044,111.082 68.477,110.974 C67.883,110.893 67.289,110.839 66.722,110.839 C65.696,110.839 64.643,110.893 63.563,111.001 C62.456,111.109 61.403,111.217 60.377,111.352 C60.242,111.379 60.107,111.406 59.999,111.433 C59.864,111.46 59.729,111.487 59.594,111.514 C59.324,111.568 59.081,111.595 58.865,111.595 C58.514,111.595 58.217,111.514 57.947,111.298 C57.65,111.109 57.515,110.812 57.515,110.434 C57.515,110.191 57.569,109.975 57.677,109.759 C57.785,109.597 57.947,109.408 58.136,109.219 C58.352,109.003 58.541,108.787 58.757,108.571 C58.973,108.355 59.189,108.166 59.459,107.95 C60.377,107.221 61.268,106.465 62.105,105.655 L64.67,103.252 C64.994,102.928 65.345,102.577 65.669,102.199 C65.966,101.848 66.236,101.47 66.479,101.038 C66.722,100.633 66.911,100.201 67.073,99.715 C67.235,99.256 67.316,98.77 67.316,98.23 C67.316,97.798 67.235,97.393 67.073,96.988 C66.911,96.61 66.695,96.259 66.425,95.935 C66.128,95.638 65.804,95.395 65.426,95.206 C65.048,95.044 64.616,94.936 64.184,94.936 C63.374,94.936 62.726,95.125 62.267,95.476 C61.781,95.854 61.349,96.34 60.971,96.988 C60.863,97.15 60.809,97.285 60.755,97.447 C60.701,97.609 60.62,97.771 60.566,97.906 C60.485,98.068 60.404,98.23 60.323,98.365 C60.242,98.527 60.161,98.662 60.107,98.743 C59.945,98.905 59.81,99.04 59.702,99.121 C59.567,99.229 59.405,99.256 59.216,99.256 C58.946,99.256 58.703,99.148 58.46,98.905 C58.19,98.689 58.082,98.446 58.082,98.122 C58.082,97.879 58.136,97.582 58.271,97.258 C58.379,96.934 58.541,96.61 58.73,96.286 C58.892,95.962 59.108,95.665 59.324,95.368 C59.54,95.098 59.729,94.855 59.945,94.693 C60.539,94.18 61.214,93.802 61.97,93.559 C62.726,93.343 63.482,93.235 64.265,93.235 Z M6.615,92.397 C6.993,92.397 7.29,92.505 7.533,92.667 C7.749,92.829 7.857,93.099 7.857,93.45 C7.857,93.639 7.83,93.801 7.83,93.963 L7.749,94.476 L7.641,94.989 C7.587,95.178 7.533,95.34 7.506,95.502 C7.02,97.365 6.723,99.255 6.561,101.145 C6.399,103.062 6.345,104.952 6.345,106.842 C6.345,107.112 6.345,107.436 6.399,107.787 C6.399,108.138 6.453,108.462 6.507,108.759 C6.534,109.083 6.561,109.38 6.615,109.623 C6.615,109.893 6.642,110.055 6.642,110.136 C6.642,110.298 6.507,110.433 6.291,110.541 C6.021,110.649 5.778,110.703 5.562,110.703 C5.13,110.703 4.806,110.595 4.563,110.325 C4.32,110.082 4.212,109.758 4.212,109.326 C4.212,108.57 4.239,107.679 4.293,106.653 C4.32,105.627 4.374,104.601 4.428,103.575 C4.455,103.035 4.509,102.414 4.563,101.766 L4.779,99.849 C4.86,99.201 4.941,98.607 5.049,98.013 C5.103,97.419 5.184,96.906 5.265,96.474 C4.887,96.879 4.59,97.23 4.32,97.527 C4.05,97.824 3.834,98.04 3.699,98.175 L3.159,98.769 C2.943,99.012 2.781,99.201 2.646,99.363 C2.43,99.579 2.241,99.741 2.052,99.849 C1.836,99.957 1.62,100.011 1.377,100.011 C1.053,100.011 0.729,99.93 0.459,99.714 C0.135,99.525 0,99.282 0,98.958 C0,98.877 0.027,98.796 0.135,98.688 C0.216,98.607 0.324,98.526 0.459,98.418 L0.702,98.256 C0.756,98.202 0.837,98.175 0.918,98.121 L1.134,98.013 C1.188,97.959 1.269,97.905 1.323,97.851 C1.89,97.311 2.484,96.717 3.105,96.042 C3.699,95.394 4.239,94.746 4.752,94.152 C4.914,93.963 5.103,93.747 5.265,93.531 C5.4,93.315 5.562,93.126 5.778,92.91 C5.859,92.829 5.994,92.721 6.156,92.586 C6.318,92.478 6.453,92.397 6.615,92.397 Z M19.4315,90.265 C21.7787102,90.265 23.6815,92.1677898 23.6815,94.515 C23.6815,96.8622102 21.7787102,98.765 19.4315,98.765 C17.0842898,98.765 15.1815,96.8622102 15.1815,94.515 C15.1815,92.1677898 17.0842898,90.265 19.4315,90.265 Z M19.4315,91.265 C17.6365746,91.265 16.1815,92.7200746 16.1815,94.515 C16.1815,96.3099254 17.6365746,97.765 19.4315,97.765 C21.2264254,97.765 22.6815,96.3099254 22.6815,94.515 C22.6815,92.7200746 21.2264254,91.265 19.4315,91.265 Z M32.583,35.574 C32.583,34.116 31.989,32.955 30.855,32.064 C30.261,31.659 29.64,31.389 28.965,31.281 C28.263,31.2 27.588,31.146 26.886,31.146 C26.238,31.146 25.563,31.227 24.915,31.335 C24.267,31.497 23.565,31.686 22.809,31.902 C22.89,30.876 22.971,29.931 23.079,29.067 L23.295,26.34 C24.267,26.259 25.185,26.151 26.049,26.043 L28.614,25.638 C28.776,25.611 28.965,25.584 29.181,25.557 C29.37,25.557 29.559,25.557 29.775,25.503 L30.342,25.395 C30.504,25.395 30.693,25.341 30.855,25.26 C30.963,25.206 31.044,25.152 31.098,25.098 C31.125,25.044 31.152,24.936 31.152,24.774 C31.152,24.666 31.071,24.531 30.936,24.369 C30.774,24.234 30.612,24.099 30.423,23.991 C30.207,23.883 29.991,23.775 29.775,23.667 C29.559,23.613 29.37,23.559 29.262,23.559 C29.154,23.559 29.073,23.586 28.965,23.613 C28.857,23.667 28.776,23.694 28.668,23.721 L28.317,23.829 C28.182,23.883 28.074,23.91 27.993,23.937 C27.291,24.126 26.535,24.261 25.725,24.369 C24.888,24.477 24.078,24.504 23.295,24.504 C23.106,24.342 22.944,24.207 22.809,24.153 C22.647,24.099 22.458,24.045 22.296,24.045 C22.134,24.045 21.999,24.072 21.837,24.126 C21.648,24.18 21.513,24.234 21.405,24.288 C21.243,24.612 21.135,25.098 21.081,25.746 C21,26.421 20.946,27.15 20.919,27.906 C20.865,28.716 20.811,29.499 20.811,30.255 C20.757,31.011 20.73,31.605 20.703,32.01 L20.649,32.361 L20.595,32.739 C20.541,33.009 20.514,33.252 20.514,33.495 C20.514,33.576 20.541,33.657 20.622,33.765 C20.676,33.873 20.784,33.954 20.892,34.035 C21,34.116 21.108,34.17 21.216,34.224 C21.324,34.278 21.405,34.305 21.513,34.305 C21.702,34.305 21.891,34.278 22.053,34.224 C22.188,34.17 22.35,34.116 22.539,34.008 C22.701,33.927 22.89,33.819 23.079,33.711 C23.241,33.63 23.43,33.549 23.646,33.468 C24.186,33.306 24.699,33.171 25.212,33.117 C25.698,33.063 26.238,33.009 26.832,33.009 C27.264,33.009 27.696,33.063 28.128,33.171 C28.533,33.279 28.911,33.441 29.235,33.657 C29.559,33.873 29.802,34.17 30.018,34.548 C30.207,34.926 30.315,35.385 30.315,35.925 C30.315,36.708 30.153,37.383 29.883,37.977 C29.559,38.571 29.181,39.057 28.695,39.435 C28.209,39.84 27.642,40.137 27.021,40.353 C26.373,40.569 25.725,40.65 25.077,40.65 C24.429,40.65 23.835,40.569 23.349,40.407 C22.809,40.245 22.377,40.056 21.999,39.84 C21.783,39.759 21.621,39.651 21.459,39.543 C21.297,39.462 21.162,39.381 21.027,39.3 C20.865,39.246 20.73,39.165 20.622,39.111 C20.487,39.084 20.379,39.057 20.298,39.057 C20.028,39.057 19.839,39.165 19.677,39.327 C19.488,39.543 19.407,39.786 19.407,40.083 C19.407,40.407 19.515,40.677 19.731,40.893 C19.947,41.136 20.19,41.325 20.487,41.433 C20.703,41.541 21.027,41.649 21.459,41.757 C21.837,41.892 22.269,42 22.701,42.081 C23.133,42.162 23.565,42.243 23.997,42.297 C24.402,42.351 24.753,42.405 25.023,42.405 C26.049,42.405 27.021,42.27 27.939,42 C28.857,41.73 29.667,41.325 30.369,40.731 C31.044,40.191 31.584,39.489 31.989,38.625 C32.367,37.761 32.583,36.762 32.583,35.574 Z M98.1779531,58.221 C98.1779531,56.205 97.2819531,54.637 95.9379531,53.517 C94.1459531,52.621 91.0099531,52.173 86.5299531,52.173 L65.4739531,52.173 L49.1219531,52.621 L36.1299531,52.621 C34.7859531,53.069 33.8899531,53.965 33.4419531,55.309 C32.7699531,56.653 32.5459531,57.773 32.5459531,58.669 C32.5459531,60.909 32.7699531,62.253 33.6659531,63.149 C34.5619531,64.045 35.4579531,64.493 36.8019531,64.493 L40.8339531,64.493 C43.0739531,64.493 45.5379531,64.493 48.4499531,64.269 L76.8979531,64.269 C80.4819531,64.493 83.8419531,64.493 86.9779531,64.493 L91.9059531,64.493 C93.4739531,64.493 95.0419531,64.045 96.3859531,62.925 C97.5059531,62.029 98.1779531,60.461 98.1779531,58.221 Z M39.7315,37.265 C41.6438229,37.265 43.2611522,38.5280173 43.7948182,40.2653819 L70.481,40.265 L70.4815,38.265 C75.2831493,39.5627431 78.897604,40.5480665 81.3248642,41.2209703 L81.5996641,41.2972266 C76.6133359,42.6448828 72.9072812,43.5882422 70.4815,44.1273047 L70.481,42.265 L43.9153526,42.2660146 C43.5607091,44.2550217 41.8224417,45.765 39.7315,45.765 C37.3842898,45.765 35.4815,43.8622102 35.4815,41.515 C35.4815,39.1677898 37.3842898,37.265 39.7315,37.265 Z M39.7315,38.265 C37.9365746,38.265 36.4815,39.7200746 36.4815,41.515 C36.4815,43.3099254 37.9365746,44.765 39.7315,44.765 C41.5264254,44.765 42.9815,43.3099254 42.9815,41.515 C42.9815,39.7200746 41.5264254,38.265 39.7315,38.265 Z" transform="translate(-13.981)"/></svg>