<svg xmlns="http://www.w3.org/2000/svg" width="103" height="203" viewBox="0 0 103 203"><path fill="#131313" d="M3755.70898,87.765 C3757.95508,87.765 3759.90169,88.5136979 3761.54883,90.0110937 C3763.19596,91.6582292 3764.01953,93.6048437 3764.01953,95.8509375 C3764.01953,100.193385 3764.01953,106.707057 3764.01953,115.391953 C3764.01953,118.985703 3764.01953,124.301458 3764.01953,131.339219 C3764.01953,138.826198 3764.01953,150.131536 3764.01953,165.255234 C3764.01953,167.501328 3763.19596,169.447943 3761.54883,171.095078 C3759.90169,172.592474 3757.95508,173.341172 3755.70898,173.341172 C3753.46289,173.341172 3751.59115,172.592474 3750.09375,171.095078 C3748.44661,169.447943 3747.62305,167.501328 3747.62305,165.255234 C3747.62305,164.955755 3747.62305,164.431667 3747.62305,163.682969 C3743.87956,166.67776 3739.68685,168.998724 3735.04492,170.645859 C3730.25326,172.442734 3725.08724,173.341172 3719.54688,173.341172 C3714.15625,173.341172 3709.66406,172.592474 3706.07031,171.095078 C3702.47656,169.597682 3699.55664,167.651068 3697.31055,165.255234 C3693.11784,160.763047 3690.72201,155.597031 3690.12305,149.757188 C3689.37435,143.917344 3689,139.275417 3689,135.831406 C3689,126.996771 3689,113.669948 3689,95.8509375 C3689,93.6048437 3689.82357,91.6582292 3691.4707,90.0110937 C3692.9681,88.5136979 3694.83984,87.765 3697.08594,87.765 C3699.33203,87.765 3701.27865,88.5136979 3702.92578,90.0110937 C3704.42318,91.6582292 3705.17188,93.6048437 3705.17188,95.8509375 C3705.17188,104.685573 3705.17188,118.012396 3705.17188,135.831406 C3705.17188,144.216823 3706.14518,149.832057 3708.0918,152.677109 C3710.18815,155.671901 3714.00651,157.169297 3719.54688,157.169297 C3726.13542,157.169297 3732.49935,154.773464 3738.63867,149.981797 C3744.62826,145.19013 3747.62305,138.975938 3747.62305,131.339219 C3747.62305,127.745469 3747.62305,122.429714 3747.62305,115.391953 C3747.62305,111.049505 3747.62305,104.535833 3747.62305,95.8509375 C3747.62305,93.6048437 3748.44661,91.6582292 3750.09375,90.0110937 C3751.59115,88.5136979 3753.46289,87.765 3755.70898,87.765 Z M3737.89648,105.958359 C3738.04622,105.958359 3738.19596,105.958359 3738.3457,105.958359 C3738.64518,105.958359 3738.86979,105.958359 3739.01953,105.958359 C3739.16927,105.958359 3739.39388,105.958359 3739.69336,105.958359 C3739.8431,105.958359 3739.99284,105.958359 3740.14258,105.958359 C3740.14258,108.803411 3740.14258,113.220729 3740.14258,119.210312 C3739.69336,119.210312 3738.94466,119.210312 3737.89648,119.210312 C3737.89648,116.964219 3737.89648,114.718125 3737.89648,112.472031 C3737.89648,110.225937 3737.89648,108.054714 3737.89648,105.958359 Z M3742.38867,119.210312 C3741.63997,122.055365 3740.51693,126.248073 3739.01953,131.788437 C3738.27083,128.943385 3737.14779,124.750677 3735.65039,119.210312 L3742.38867,119.210312 Z M3738.85,98.03 C3741.19721,98.03 3743.1,99.9327898 3743.1,102.28 C3743.1,104.62721 3741.19721,106.53 3738.85,106.53 C3736.50279,106.53 3734.6,104.62721 3734.6,102.28 C3734.6,99.9327898 3736.50279,98.03 3738.85,98.03 Z M3738.85,99.03 C3737.05507,99.03 3735.6,100.485075 3735.6,102.28 C3735.6,104.074925 3737.05507,105.53 3738.85,105.53 C3740.64493,105.53 3742.1,104.074925 3742.1,102.28 C3742.1,100.485075 3740.64493,99.03 3738.85,99.03 Z M3681.51953,136.280625 C3681.51953,148.85875 3683.76562,158.891302 3688.25781,166.378281 C3692.75,173.86526 3699.48828,178.731797 3708.47266,180.977891 C3708.47266,181.427109 3708.39779,182.175807 3708.24805,183.223984 C3704.05534,182.175807 3700.38672,180.678411 3697.24219,178.731797 C3694.2474,176.635443 3691.62695,174.314479 3689.38086,171.768906 C3685.33789,166.8275 3682.64258,161.137396 3681.29492,154.698594 C3679.94727,148.409531 3679.27344,142.270208 3679.27344,136.280625 C3679.27344,129.542344 3679.27344,119.434922 3679.27344,105.958359 C3679.42318,105.958359 3679.57292,105.958359 3679.72266,105.958359 C3680.02214,105.958359 3680.24674,105.958359 3680.39648,105.958359 C3680.54622,105.958359 3680.69596,105.958359 3680.8457,105.958359 C3681.14518,105.958359 3681.36979,105.958359 3681.51953,105.958359 C3681.51953,110.899766 3681.51953,115.916042 3681.51953,121.007187 C3681.51953,126.098333 3681.51953,131.189479 3681.51953,136.280625 Z M3708.69727,178.956406 C3711.39258,180.004583 3715.43555,181.576849 3720.82617,183.673203 C3717.98112,184.122422 3713.71354,184.79625 3708.02344,185.694687 C3708.02344,185.095729 3708.54753,179.854844 3708.69727,178.956406 Z M3725.2835,101 C3725.9855,101 3726.6605,101.135 3727.2815,101.405 C3727.9025,101.675 3728.4425,102.026 3728.9015,102.458 C3729.3335,102.917 3729.6845,103.43 3729.9545,103.97 C3730.1975,104.537 3730.3325,105.104 3730.3325,105.671 C3730.3325,106.778 3730.1435,107.804 3729.7655,108.776 C3729.3605,109.775 3728.7665,110.639 3728.0105,111.395 C3727.3895,111.989 3726.7955,112.556 3726.2015,113.15 L3724.3925,114.905 L3723.2855,115.958 C3722.8805,116.336 3722.3675,116.795 3721.7465,117.308 C3722.6375,117.2 3723.3935,117.146 3723.9875,117.092 C3724.5815,117.065 3725.1485,117.038 3725.6885,116.984 C3726.2555,116.957 3726.8495,116.93 3727.4975,116.93 C3728.1185,116.93 3728.7125,116.876 3729.3065,116.822 L3729.6845,116.768 L3730.0625,116.687 C3730.2785,116.633 3730.5215,116.606 3730.7645,116.606 C3731.0885,116.606 3731.3585,116.768 3731.6015,117.092 C3731.8445,117.416 3731.9795,117.74 3731.9795,118.118 C3731.9795,118.361 3731.8715,118.55 3731.7095,118.658 C3731.5475,118.82 3731.3855,118.874 3731.2235,118.874 C3730.6295,118.874 3730.0625,118.847 3729.4955,118.739 C3728.9015,118.658 3728.3075,118.604 3727.7405,118.604 C3726.7145,118.604 3725.6615,118.658 3724.5815,118.766 C3723.4745,118.874 3722.4215,118.982 3721.3955,119.117 C3721.2605,119.144 3721.1255,119.171 3721.0175,119.198 C3720.8825,119.225 3720.7475,119.252 3720.6125,119.279 C3720.3425,119.333 3720.0995,119.36 3719.8835,119.36 C3719.5325,119.36 3719.2355,119.279 3718.9655,119.063 C3718.6685,118.874 3718.5335,118.577 3718.5335,118.199 C3718.5335,117.956 3718.5875,117.74 3718.6955,117.524 C3718.8035,117.362 3718.9655,117.173 3719.1545,116.984 C3719.3705,116.768 3719.5595,116.552 3719.7755,116.336 C3719.9915,116.12 3720.2075,115.931 3720.4775,115.715 C3721.3955,114.986 3722.2865,114.23 3723.1235,113.42 L3725.6885,111.017 C3726.0125,110.693 3726.3635,110.342 3726.6875,109.964 C3726.9845,109.613 3727.2545,109.235 3727.4975,108.803 C3727.7405,108.398 3727.9295,107.966 3728.0915,107.48 C3728.2535,107.021 3728.3345,106.535 3728.3345,105.995 C3728.3345,105.563 3728.2535,105.158 3728.0915,104.753 C3727.9295,104.375 3727.7135,104.024 3727.4435,103.7 C3727.1465,103.403 3726.8225,103.16 3726.4445,102.971 C3726.0665,102.809 3725.6345,102.701 3725.2025,102.701 C3724.3925,102.701 3723.7445,102.89 3723.2855,103.241 C3722.7995,103.619 3722.3675,104.105 3721.9895,104.753 C3721.8815,104.915 3721.8275,105.05 3721.7735,105.212 C3721.7195,105.374 3721.6385,105.536 3721.5845,105.671 C3721.5035,105.833 3721.4225,105.995 3721.3415,106.13 C3721.2605,106.292 3721.1795,106.427 3721.1255,106.508 C3720.9635,106.67 3720.8285,106.805 3720.7205,106.886 C3720.5855,106.994 3720.4235,107.021 3720.2345,107.021 C3719.9645,107.021 3719.7215,106.913 3719.4785,106.67 C3719.2085,106.454 3719.1005,106.211 3719.1005,105.887 C3719.1005,105.644 3719.1545,105.347 3719.2895,105.023 C3719.3975,104.699 3719.5595,104.375 3719.7485,104.051 C3719.9105,103.727 3720.1265,103.43 3720.3425,103.133 C3720.5585,102.863 3720.7475,102.62 3720.9635,102.458 C3721.5575,101.945 3722.2325,101.567 3722.9885,101.324 C3723.7445,101.108 3724.5005,101 3725.2835,101 Z M3667.6335,100.162 C3668.0115,100.162 3668.3085,100.27 3668.5515,100.432 C3668.7675,100.594 3668.8755,100.864 3668.8755,101.215 C3668.8755,101.404 3668.8485,101.566 3668.8485,101.728 L3668.7675,102.241 L3668.6595,102.754 C3668.6055,102.943 3668.5515,103.105 3668.5245,103.267 C3668.0385,105.13 3667.7415,107.02 3667.5795,108.91 C3667.4175,110.827 3667.3635,112.717 3667.3635,114.607 C3667.3635,114.877 3667.3635,115.201 3667.4175,115.552 C3667.4175,115.903 3667.4715,116.227 3667.5255,116.524 C3667.5525,116.848 3667.5795,117.145 3667.6335,117.388 C3667.6335,117.658 3667.6605,117.82 3667.6605,117.901 C3667.6605,118.063 3667.5255,118.198 3667.3095,118.306 C3667.0395,118.414 3666.7965,118.468 3666.5805,118.468 C3666.1485,118.468 3665.8245,118.36 3665.5815,118.09 C3665.3385,117.847 3665.2305,117.523 3665.2305,117.091 C3665.2305,116.335 3665.2575,115.444 3665.3115,114.418 C3665.3385,113.392 3665.3925,112.366 3665.4465,111.34 C3665.4735,110.8 3665.5275,110.179 3665.5815,109.531 L3665.7975,107.614 C3665.8785,106.966 3665.9595,106.372 3666.0675,105.778 C3666.1215,105.184 3666.2025,104.671 3666.2835,104.239 C3665.9055,104.644 3665.6085,104.995 3665.3385,105.292 C3665.0685,105.589 3664.8525,105.805 3664.7175,105.94 L3664.1775,106.534 C3663.9615,106.777 3663.7995,106.966 3663.6645,107.128 C3663.4485,107.344 3663.2595,107.506 3663.0705,107.614 C3662.8545,107.722 3662.6385,107.776 3662.3955,107.776 C3662.0715,107.776 3661.7475,107.695 3661.4775,107.479 C3661.1535,107.29 3661.0185,107.047 3661.0185,106.723 C3661.0185,106.642 3661.0455,106.561 3661.1535,106.453 C3661.2345,106.372 3661.3425,106.291 3661.4775,106.183 L3661.7205,106.021 C3661.7745,105.967 3661.8555,105.94 3661.9365,105.886 L3662.1525,105.778 C3662.2065,105.724 3662.2875,105.67 3662.3415,105.616 C3662.9085,105.076 3663.5025,104.482 3664.1235,103.807 C3664.7175,103.159 3665.2575,102.511 3665.7705,101.917 C3665.9325,101.728 3666.1215,101.512 3666.2835,101.296 C3666.4185,101.08 3666.5805,100.891 3666.7965,100.675 C3666.8775,100.594 3667.0125,100.486 3667.1745,100.351 C3667.3365,100.243 3667.4715,100.162 3667.6335,100.162 Z M3680.45,98.03 C3682.79721,98.03 3684.7,99.9327898 3684.7,102.28 C3684.7,104.62721 3682.79721,106.53 3680.45,106.53 C3678.10279,106.53 3676.2,104.62721 3676.2,102.28 C3676.2,99.9327898 3678.10279,98.03 3680.45,98.03 Z M3680.45,99.03 C3678.65507,99.03 3677.2,100.485075 3677.2,102.28 C3677.2,104.074925 3678.65507,105.53 3680.45,105.53 C3682.24493,105.53 3683.7,104.074925 3683.7,102.28 C3683.7,100.485075 3682.24493,99.03 3680.45,99.03 Z M3693.6015,43.339 C3693.6015,41.881 3693.0075,40.72 3691.8735,39.829 C3691.2795,39.424 3690.6585,39.154 3689.9835,39.046 C3689.2815,38.965 3688.6065,38.911 3687.9045,38.911 C3687.2565,38.911 3686.5815,38.992 3685.9335,39.1 C3685.2855,39.262 3684.5835,39.451 3683.8275,39.667 C3683.9085,38.641 3683.9895,37.696 3684.0975,36.832 L3684.3135,34.105 C3685.2855,34.024 3686.2035,33.916 3687.0675,33.808 L3689.6325,33.403 C3689.7945,33.376 3689.9835,33.349 3690.1995,33.322 C3690.3885,33.322 3690.5775,33.322 3690.7935,33.268 L3691.3605,33.16 C3691.5225,33.16 3691.7115,33.106 3691.8735,33.025 C3691.9815,32.971 3692.0625,32.917 3692.1165,32.863 C3692.1435,32.809 3692.1705,32.701 3692.1705,32.539 C3692.1705,32.431 3692.0895,32.296 3691.9545,32.134 C3691.7925,31.999 3691.6305,31.864 3691.4415,31.756 C3691.2255,31.648 3691.0095,31.54 3690.7935,31.432 C3690.5775,31.378 3690.3885,31.324 3690.2805,31.324 C3690.1725,31.324 3690.0915,31.351 3689.9835,31.378 C3689.8755,31.432 3689.7945,31.459 3689.6865,31.486 L3689.3355,31.594 C3689.2005,31.648 3689.0925,31.675 3689.0115,31.702 C3688.3095,31.891 3687.5535,32.026 3686.7435,32.134 C3685.9065,32.242 3685.0965,32.269 3684.3135,32.269 C3684.1245,32.107 3683.9625,31.972 3683.8275,31.918 C3683.6655,31.864 3683.4765,31.81 3683.3145,31.81 C3683.1525,31.81 3683.0175,31.837 3682.8555,31.891 C3682.6665,31.945 3682.5315,31.999 3682.4235,32.053 C3682.2615,32.377 3682.1535,32.863 3682.0995,33.511 C3682.0185,34.186 3681.9645,34.915 3681.9375,35.671 C3681.8835,36.481 3681.8295,37.264 3681.8295,38.02 C3681.7755,38.776 3681.7485,39.37 3681.7215,39.775 L3681.6675,40.126 L3681.6135,40.504 C3681.5595,40.774 3681.5325,41.017 3681.5325,41.26 C3681.5325,41.341 3681.5595,41.422 3681.6405,41.53 C3681.6945,41.638 3681.8025,41.719 3681.9105,41.8 C3682.0185,41.881 3682.1265,41.935 3682.2345,41.989 C3682.3425,42.043 3682.4235,42.07 3682.5315,42.07 C3682.7205,42.07 3682.9095,42.043 3683.0715,41.989 C3683.2065,41.935 3683.3685,41.881 3683.5575,41.773 C3683.7195,41.692 3683.9085,41.584 3684.0975,41.476 C3684.2595,41.395 3684.4485,41.314 3684.6645,41.233 C3685.2045,41.071 3685.7175,40.936 3686.2305,40.882 C3686.7165,40.828 3687.2565,40.774 3687.8505,40.774 C3688.2825,40.774 3688.7145,40.828 3689.1465,40.936 C3689.5515,41.044 3689.9295,41.206 3690.2535,41.422 C3690.5775,41.638 3690.8205,41.935 3691.0365,42.313 C3691.2255,42.691 3691.3335,43.15 3691.3335,43.69 C3691.3335,44.473 3691.1715,45.148 3690.9015,45.742 C3690.5775,46.336 3690.1995,46.822 3689.7135,47.2 C3689.2275,47.605 3688.6605,47.902 3688.0395,48.118 C3687.3915,48.334 3686.7435,48.415 3686.0955,48.415 C3685.4475,48.415 3684.8535,48.334 3684.3675,48.172 C3683.8275,48.01 3683.3955,47.821 3683.0175,47.605 C3682.8015,47.524 3682.6395,47.416 3682.4775,47.308 C3682.3155,47.227 3682.1805,47.146 3682.0455,47.065 C3681.8835,47.011 3681.7485,46.93 3681.6405,46.876 C3681.5055,46.849 3681.3975,46.822 3681.3165,46.822 C3681.0465,46.822 3680.8575,46.93 3680.6955,47.092 C3680.5065,47.308 3680.4255,47.551 3680.4255,47.848 C3680.4255,48.172 3680.5335,48.442 3680.7495,48.658 C3680.9655,48.901 3681.2085,49.09 3681.5055,49.198 C3681.7215,49.306 3682.0455,49.414 3682.4775,49.522 C3682.8555,49.657 3683.2875,49.765 3683.7195,49.846 C3684.1515,49.927 3684.5835,50.008 3685.0155,50.062 C3685.4205,50.116 3685.7715,50.17 3686.0415,50.17 C3687.0675,50.17 3688.0395,50.035 3688.9575,49.765 C3689.8755,49.495 3690.6855,49.09 3691.3875,48.496 C3692.0625,47.956 3692.6025,47.254 3693.0075,46.39 C3693.3855,45.526 3693.6015,44.527 3693.6015,43.339 Z M3759.19645,65.986 C3759.19645,63.97 3758.30045,62.402 3756.95645,61.282 C3755.16445,60.386 3752.02845,59.938 3747.54845,59.938 L3726.49245,59.938 L3710.14045,60.386 L3697.14845,60.386 C3695.80445,60.834 3694.90845,61.73 3694.46045,63.074 C3693.78845,64.418 3693.56445,65.538 3693.56445,66.434 C3693.56445,68.674 3693.78845,70.018 3694.68445,70.914 C3695.58045,71.81 3696.47645,72.258 3697.82045,72.258 L3701.85245,72.258 C3704.09245,72.258 3706.55645,72.258 3709.46845,72.034 L3737.91645,72.034 C3741.50045,72.258 3744.86045,72.258 3747.99645,72.258 L3752.92445,72.258 C3754.49245,72.258 3756.06045,71.81 3757.40445,70.69 C3758.52445,69.794 3759.19645,68.226 3759.19645,65.986 Z M3700.75,45.03 C3702.66232,45.03 3704.27965,46.2930173 3704.81332,48.0303819 L3731.4995,48.03 L3731.5,46.03 C3736.30165,47.3277431 3739.9161,48.3130665 3742.34336,48.9859703 L3742.61816,49.0622266 C3737.63184,50.4098828 3733.92578,51.3532422 3731.5,51.8923047 L3731.4995,50.03 L3704.93385,50.0310146 C3704.57921,52.0200217 3702.84094,53.53 3700.75,53.53 C3698.40279,53.53 3696.5,51.6272102 3696.5,49.28 C3696.5,46.9327898 3698.40279,45.03 3700.75,45.03 Z M3700.75,46.03 C3698.95507,46.03 3697.5,47.4850746 3697.5,49.28 C3697.5,51.0749254 3698.95507,52.53 3700.75,52.53 C3702.54493,52.53 3704,51.0749254 3704,49.28 C3704,47.4850746 3702.54493,46.03 3700.75,46.03 Z" transform="translate(-3675 -31.765)"/></svg>