<svg xmlns="http://www.w3.org/2000/svg" width="97" height="203" viewBox="0 0 97 203"><path fill="#131313" d="M426.743109,119.877612 C427.192328,120.027352 427.566677,120.177092 427.866156,120.326831 C428.315375,120.62631 428.689724,120.85092 428.989203,121.000659 C429.737901,119.952482 430.711208,119.054045 431.909125,118.305347 C433.107042,117.706388 434.379828,117.406909 435.727484,117.406909 C438.123318,117.406909 440.069932,118.155607 441.567328,119.653003 C443.214464,121.300138 444.038031,123.246753 444.038031,125.492847 L444.038031,194.897144 C444.038031,197.143237 443.214464,199.089852 441.567328,200.736987 C439.920193,202.234383 437.973578,202.983081 435.727484,202.983081 C433.78087,202.983081 432.058865,202.384123 430.561469,201.186206 C429.064073,199.988289 428.165635,198.416024 427.866156,196.469409 C424.571885,198.416024 420.603786,199.988289 415.961859,201.186206 C411.319932,202.384123 405.929307,202.983081 399.789984,202.983081 C393.051703,202.983081 387.286729,201.410816 382.495063,198.266284 C377.553656,195.121753 373.959906,190.629566 371.713813,184.789722 C369.916938,180.297534 369.0185,175.505868 369.0185,170.414722 C369.0185,165.922534 369.617458,161.130868 370.815375,156.039722 C373.810167,145.108732 378.976182,136.199227 386.313422,129.311206 C392.303005,123.621102 398.891547,119.952482 406.079047,118.305347 C413.416286,116.508472 420.304307,117.03256 426.743109,119.877612 Z M409.931641,133.299479 C405.888672,134.048177 401.695964,136.44401 397.353516,140.486979 C392.26237,145.128906 388.66862,151.268229 386.572266,158.904948 C384.475911,166.391927 384.475911,172.830729 386.572266,178.221354 C387.620443,180.916667 389.192708,182.863281 391.289062,184.061198 C393.385417,185.408854 396.155599,186.082682 399.599609,186.082682 C409.632161,186.082682 416.595052,184.435547 420.488281,181.141276 C424.38151,177.847005 426.702474,175.451172 427.451172,173.953776 L427.451172,146.326823 C427.451172,143.332031 426.852214,140.786458 425.654297,138.690104 C424.306641,136.59375 422.434896,135.096354 420.039062,134.197917 C417.34375,133 413.974609,132.700521 409.931641,133.299479 Z M371.6335,111.397 C372.0115,111.397 372.3085,111.505 372.5515,111.667 C372.7675,111.829 372.8755,112.099 372.8755,112.45 C372.8755,112.639 372.8485,112.801 372.8485,112.963 L372.7675,113.476 L372.6595,113.989 C372.6055,114.178 372.5515,114.34 372.5245,114.502 C372.0385,116.365 371.7415,118.255 371.5795,120.145 C371.4175,122.062 371.3635,123.952 371.3635,125.842 C371.3635,126.112 371.3635,126.436 371.4175,126.787 C371.4175,127.138 371.4715,127.462 371.5255,127.759 C371.5525,128.083 371.5795,128.38 371.6335,128.623 C371.6335,128.893 371.6605,129.055 371.6605,129.136 C371.6605,129.298 371.5255,129.433 371.3095,129.541 C371.0395,129.649 370.7965,129.703 370.5805,129.703 C370.1485,129.703 369.8245,129.595 369.5815,129.325 C369.3385,129.082 369.2305,128.758 369.2305,128.326 C369.2305,127.57 369.2575,126.679 369.3115,125.653 C369.3385,124.627 369.3925,123.601 369.4465,122.575 C369.4735,122.035 369.5275,121.414 369.5815,120.766 L369.7975,118.849 C369.8785,118.201 369.9595,117.607 370.0675,117.013 C370.1215,116.419 370.2025,115.906 370.2835,115.474 C369.9055,115.879 369.6085,116.23 369.3385,116.527 C369.0685,116.824 368.8525,117.04 368.7175,117.175 L368.1775,117.769 C367.9615,118.012 367.7995,118.201 367.6645,118.363 C367.4485,118.579 367.2595,118.741 367.0705,118.849 C366.8545,118.957 366.6385,119.011 366.3955,119.011 C366.0715,119.011 365.7475,118.93 365.4775,118.714 C365.1535,118.525 365.0185,118.282 365.0185,117.958 C365.0185,117.877 365.0455,117.796 365.1535,117.688 C365.2345,117.607 365.3425,117.526 365.4775,117.418 L365.7205,117.256 C365.7745,117.202 365.8555,117.175 365.9365,117.121 L366.1525,117.013 L366.3415,116.851 C366.9085,116.311 367.5025,115.717 368.1235,115.042 C368.7175,114.394 369.2575,113.746 369.7705,113.152 C369.9325,112.963 370.1215,112.747 370.2835,112.531 C370.4185,112.315 370.5805,112.126 370.7965,111.91 C370.8775,111.829 371.0125,111.721 371.1745,111.586 C371.3365,111.478 371.4715,111.397 371.6335,111.397 Z M422.75,102.7 C425.09721,102.7 427,104.60279 427,106.95 C427,109.29721 425.09721,111.2 422.75,111.2 C420.826233,111.2 419.201,109.92182 418.677217,108.168375 L418.740234,108.171875 C414.098307,107.872396 409.45638,108.321615 404.814453,109.519531 C400.26237,110.515299 395.912996,112.254338 391.766333,114.736646 L391.113281,115.134766 C391.41276,115.434245 391.861979,115.958333 392.460938,116.707031 C389.765625,117.755208 385.797526,119.402344 380.556641,121.648438 C382.203776,119.402344 384.749349,115.958333 388.193359,111.316406 C388.462891,111.720703 388.914355,112.246289 389.547754,112.893164 L389.765625,113.113281 C394.407552,110.417969 399.199219,108.471354 404.140625,107.273438 C409.114087,105.956933 413.944652,105.49781 418.63232,105.89607 C419.099589,104.059417 420.76604,102.7 422.75,102.7 Z M422.75,103.7 C420.955075,103.7 419.5,105.155075 419.5,106.95 C419.5,108.744925 420.955075,110.2 422.75,110.2 C424.544925,110.2 426,108.744925 426,106.95 C426,105.155075 424.544925,103.7 422.75,103.7 Z M454.75,126.7 C457.09721,126.7 459,128.60279 459,130.95 C459,132.934322 457.640088,134.601018 455.801408,135.068945 L455.800781,181.84375 L453.554688,181.84375 L453.554881,135.029657 C451.789493,134.513347 450.5,132.882262 450.5,130.95 C450.5,128.60279 452.40279,126.7 454.75,126.7 Z M454.75,127.7 C452.955075,127.7 451.5,129.155075 451.5,130.95 C451.5,132.744925 452.955075,134.2 454.75,134.2 C456.544925,134.2 458,132.744925 458,130.95 C458,129.155075 456.544925,127.7 454.75,127.7 Z M453.554688,184.089844 C453.554688,183.640625 453.554688,182.891927 453.554688,181.84375 C453.105469,181.84375 452.356771,181.84375 451.308594,181.84375 C452.057292,184.688802 453.180339,188.88151 454.677734,194.421875 C455.426432,191.576823 456.549479,187.384115 458.046875,181.84375 C457.447917,181.84375 456.699219,181.84375 455.800781,181.84375 C455.800781,182.292969 455.800781,183.041667 455.800781,184.089844 C455.351562,184.089844 454.602865,184.089844 453.554688,184.089844 Z M453.554688,184.089844 C454.003906,184.089844 454.752604,184.089844 455.800781,184.089844 C455.800781,183.640625 455.800781,182.891927 455.800781,181.84375 C455.351562,181.84375 454.602865,181.84375 453.554688,181.84375 C453.554688,182.292969 453.554688,183.041667 453.554688,184.089844 Z M478.9795,136.353 C478.9795,135.975 478.8445,135.651 478.6015,135.327 C478.3585,135.003 478.0885,134.841 477.7645,134.841 C477.5215,134.841 477.2785,134.868 477.0625,134.922 L476.6845,135.003 L476.3065,135.057 C475.7125,135.111 475.1185,135.165 474.4975,135.165 C473.8495,135.165 473.2555,135.192 472.6885,135.219 C472.1485,135.273 471.5815,135.3 470.9875,135.327 C470.3935,135.381 469.6375,135.435 468.7465,135.543 C469.3675,135.03 469.8805,134.571 470.2855,134.193 L471.3925,133.14 L473.2015,131.385 C473.7955,130.791 474.3895,130.224 475.0105,129.63 C475.7665,128.874 476.3605,128.01 476.7655,127.011 C477.1435,126.039 477.3325,125.013 477.3325,123.906 C477.3325,123.339 477.1975,122.772 476.9545,122.205 C476.6845,121.665 476.3335,121.152 475.9015,120.693 C475.4425,120.261 474.9025,119.91 474.2815,119.64 C473.6605,119.37 472.9855,119.235 472.2835,119.235 C471.5005,119.235 470.7445,119.343 469.9885,119.559 C469.2325,119.802 468.5575,120.18 467.9635,120.693 C467.7475,120.855 467.5585,121.098 467.3425,121.368 C467.1265,121.665 466.9105,121.962 466.7485,122.286 C466.5595,122.61 466.3975,122.934 466.2895,123.258 C466.1545,123.582 466.1005,123.879 466.1005,124.122 C466.1005,124.446 466.2085,124.689 466.4785,124.905 C466.7215,125.148 466.9645,125.256 467.2345,125.256 C467.4235,125.256 467.5855,125.229 467.7205,125.121 C467.8285,125.04 467.9635,124.905 468.1255,124.743 C468.1795,124.662 468.2605,124.527 468.3415,124.365 C468.4225,124.23 468.5035,124.068 468.5845,123.906 C468.6385,123.771 468.7195,123.609 468.7735,123.447 C468.8275,123.285 468.8815,123.15 468.9895,122.988 C469.3675,122.34 469.7995,121.854 470.2855,121.476 C470.7445,121.125 471.3925,120.936 472.2025,120.936 C472.6345,120.936 473.0665,121.044 473.4445,121.206 C473.8225,121.395 474.1465,121.638 474.4435,121.935 C474.7135,122.259 474.9295,122.61 475.0915,122.988 C475.2535,123.393 475.3345,123.798 475.3345,124.23 C475.3345,124.77 475.2535,125.256 475.0915,125.715 C474.9295,126.201 474.7405,126.633 474.4975,127.038 C474.2545,127.47 473.9845,127.848 473.6875,128.199 C473.3635,128.577 473.0125,128.928 472.6885,129.252 L470.1235,131.655 C469.2865,132.465 468.3955,133.221 467.4775,133.95 C467.2075,134.166 466.9915,134.355 466.7755,134.571 C466.5595,134.787 466.3705,135.003 466.1545,135.219 C465.9655,135.408 465.8035,135.597 465.6955,135.759 C465.5875,135.975 465.5335,136.191 465.5335,136.434 C465.5335,136.812 465.6685,137.109 465.9655,137.298 C466.2355,137.514 466.5325,137.595 466.8835,137.595 C467.0995,137.595 467.3425,137.568 467.6125,137.514 C467.7475,137.487 467.8825,137.46 468.0175,137.433 C468.1255,137.406 468.2605,137.379 468.3955,137.352 C469.4215,137.217 470.4745,137.109 471.5815,137.001 C472.6615,136.893 473.7145,136.839 474.7405,136.839 C475.3075,136.839 475.9015,136.893 476.4955,136.974 C477.0625,137.082 477.6295,137.109 478.2235,137.109 C478.3855,137.109 478.5475,137.055 478.7095,136.893 C478.8715,136.785 478.9795,136.596 478.9795,136.353 Z M432.1225,69.262 C434.3625,69.262 435.7065,70.158 435.7065,71.726 C435.7065,73.518 434.3625,75.982 432.1225,79.118 C429.6585,82.254 426.7465,85.39 423.6105,88.302 C420.2505,91.438 417.1145,94.126 413.9785,96.366 C410.6185,98.606 408.1545,99.726 406.3625,99.726 C404.5705,99.726 401.8825,98.606 398.7465,96.366 C395.6105,94.126 392.2505,91.438 389.1145,88.302 C385.7545,85.39 382.8425,82.254 380.6025,79.118 C378.1385,75.982 377.0185,73.518 377.0185,71.726 C377.0185,70.158 378.1385,69.262 380.8265,69.262 C382.3945,69.262 384.1865,69.71 386.4265,70.606 C388.4425,71.502 390.6825,72.846 393.1465,74.19 C395.3865,75.758 397.8505,77.326 400.0905,78.894 C402.1065,80.462 404.1225,81.806 406.3625,83.15 C408.3785,81.806 410.3945,80.462 412.6345,78.894 C414.8745,77.326 417.1145,75.758 419.5785,74.19 C421.8185,72.846 424.2825,71.502 426.5225,70.606 C428.5385,69.71 430.3305,69.262 432.1225,69.262 Z M428.350757,55.3417432 L419.645507,65.6038445 L418.5565,64.164 L407.06319,71.9980409 L406.488089,72.3900057 L405.920762,71.9868719 L394.574893,63.9253517 C393.824005,64.5938437 392.834434,65 391.75,65 C389.40279,65 387.5,63.0972102 387.5,60.75 C387.5,58.4027898 389.40279,56.5 391.75,56.5 C394.09721,56.5 396,58.4027898 396,60.75 C396,61.2899034 395.899326,61.806293 395.715725,62.2814204 L406.512,69.953 L417.3495,62.567 L416.405749,61.3197489 L428.350757,55.3417432 Z M391.75,57.5 C389.955075,57.5 388.5,58.9550746 388.5,60.75 C388.5,62.5449254 389.955075,64 391.75,64 C393.544925,64 395,62.5449254 395,60.75 C395,58.9550746 393.544925,57.5 391.75,57.5 Z M374.9315,40.262 C375.5795,40.262 376.2275,40.343 376.8755,40.451 C377.5235,40.586 378.1175,40.802 378.6575,41.099 C379.1975,41.423 379.6295,41.855 379.9535,42.368 C380.2775,42.908 380.4395,43.556 380.4395,44.312 C380.4395,45.149 380.2505,45.851 379.8995,46.445 C379.5215,47.039 378.9005,47.633 378.0365,48.2 C378.6845,48.362 379.3055,48.578 379.8455,48.821 C380.3855,49.064 380.8715,49.361 381.2765,49.685 C381.6545,50.063 381.9785,50.468 382.2215,50.927 C382.4375,51.413 382.5455,51.953 382.5455,52.547 C382.5455,53.573 382.3295,54.464 381.8975,55.22 C381.4385,56.003 380.8715,56.651 380.1695,57.191 C379.4675,57.731 378.6575,58.109 377.7935,58.379 C376.9025,58.676 376.0115,58.811 375.1475,58.811 C374.8235,58.811 374.4455,58.784 374.0135,58.703 C373.5545,58.649 373.0955,58.568 372.6365,58.46 C372.1505,58.352 371.6915,58.244 371.2595,58.082 C370.8005,57.947 370.4225,57.785 370.0985,57.623 C369.8285,57.488 369.5855,57.299 369.3695,57.029 C369.1265,56.813 369.0185,56.516 369.0185,56.192 C369.0185,55.895 369.0995,55.652 369.3155,55.463 C369.5045,55.274 369.7205,55.166 369.9905,55.166 C370.1255,55.166 370.3145,55.247 370.5305,55.355 C370.6115,55.409 370.7195,55.463 370.8275,55.517 C370.9355,55.571 371.0705,55.652 371.2325,55.733 C371.4755,55.895 371.7185,56.03 371.9615,56.165 C372.2045,56.327 372.4745,56.435 372.7445,56.516 C373.5005,56.813 374.2295,56.948 374.9045,56.948 C375.4985,56.948 376.0925,56.867 376.7135,56.678 C377.3345,56.516 377.9015,56.246 378.3875,55.895 C378.8735,55.544 379.3055,55.085 379.6295,54.545 C379.9265,54.032 380.0885,53.411 380.0885,52.682 C380.0885,52.25 379.9805,51.845 379.7915,51.494 C379.5755,51.17 379.3325,50.873 379.0355,50.63 C378.7115,50.414 378.3875,50.225 378.0095,50.063 C377.6315,49.901 377.2805,49.793 376.9295,49.685 C376.7405,49.658 376.5515,49.604 376.3895,49.55 C376.2005,49.496 376.0115,49.469 375.8225,49.469 C375.5795,49.469 375.3635,49.496 375.1475,49.55 C374.9315,49.604 374.7155,49.685 374.4995,49.766 C374.2835,49.847 374.0945,49.928 373.8785,49.982 C373.6625,50.063 373.4465,50.09 373.2305,50.09 C372.9335,50.09 372.6635,49.982 372.3935,49.739 C372.0965,49.496 371.9615,49.226 371.9615,48.902 C371.9615,48.632 372.0425,48.416 372.2045,48.254 C372.2855,48.173 372.4475,48.092 372.7175,48.011 C372.9605,47.957 373.2035,47.903 373.4735,47.903 L373.8785,47.903 C374.2025,47.903 374.4995,47.876 374.7965,47.795 C375.0935,47.741 375.4445,47.606 375.8765,47.417 C376.2815,47.255 376.6595,47.012 377.0375,46.715 C377.4155,46.418 377.7125,46.067 377.9825,45.635 C378.2255,45.257 378.3605,44.771 378.3605,44.231 C378.3605,43.799 378.2525,43.448 378.0905,43.151 C377.9015,42.881 377.6855,42.665 377.4155,42.503 C377.1185,42.341 376.7945,42.233 376.4435,42.179 C376.0925,42.125 375.7685,42.071 375.4445,42.071 C375.0125,42.071 374.5535,42.179 374.1215,42.368 C373.6355,42.584 373.2305,42.773 372.8525,42.962 C372.6635,43.07 372.5015,43.151 372.3395,43.232 L371.8535,43.475 C371.5025,43.637 371.2055,43.691 370.9895,43.691 C370.7465,43.691 370.5305,43.583 370.3415,43.367 C370.1255,43.151 370.0445,42.881 370.0445,42.584 C370.0445,42.314 370.1795,42.017 370.5035,41.747 C370.8275,41.477 371.2325,41.207 371.7185,40.991 C372.2045,40.775 372.7175,40.613 373.3115,40.451 C373.8785,40.343 374.4185,40.262 374.9315,40.262 Z" transform="translate(-358)"/></svg>