<svg xmlns="http://www.w3.org/2000/svg" width="97" height="243" viewBox="0 0 97 243"><path fill="#131313" d="M68.7431094,82.8776124 C69.1923281,83.027352 69.5666771,83.1770916 69.8661563,83.3268311 C70.315375,83.6263103 70.689724,83.8509197 70.9892031,84.0006593 C71.737901,82.9524822 72.7112083,82.0540447 73.909125,81.3053468 C75.1070417,80.7063884 76.3798281,80.4069093 77.7274844,80.4069093 C80.1233177,80.4069093 82.0699323,81.1556072 83.5673281,82.653003 C85.2144635,84.3001384 86.0380313,86.246753 86.0380313,88.4928468 L86.0380313,157.897144 C86.0380313,160.143237 85.2144635,162.089852 83.5673281,163.736987 C81.9201927,165.234383 79.9735781,165.983081 77.7274844,165.983081 C75.7808698,165.983081 74.0588646,165.384123 72.5614688,164.186206 C71.0640729,162.988289 70.1656354,161.416024 69.8661563,159.469409 C66.5718854,161.416024 62.6037865,162.988289 57.9618594,164.186206 C53.3199323,165.384123 47.9293073,165.983081 41.7899844,165.983081 C35.0517031,165.983081 29.2867292,164.410816 24.4950625,161.266284 C19.5536563,158.121753 15.9599063,153.629566 13.7138125,147.789722 C11.9169375,143.297534 11.0185,138.505868 11.0185,133.414722 C11.0185,128.922534 11.6174583,124.130868 12.815375,119.039722 C15.8101667,108.108732 20.9761823,99.199227 28.3134219,92.3112061 C34.3030052,86.621102 40.8915469,82.9524822 48.0790469,81.3053468 C55.4162865,79.5084718 62.3043073,80.0325603 68.7431094,82.8776124 Z M51.9316406,96.2994792 C47.8886719,97.0481771 43.6959635,99.4440104 39.3535156,103.486979 C34.2623698,108.128906 30.6686198,114.268229 28.5722656,121.904948 C26.4759115,129.391927 26.4759115,135.830729 28.5722656,141.221354 C29.6204427,143.916667 31.1927083,145.863281 33.2890625,147.061198 C35.3854167,148.408854 38.155599,149.082682 41.5996094,149.082682 C51.6321615,149.082682 58.5950521,147.435547 62.4882813,144.141276 C66.3815104,140.847005 68.702474,138.451172 69.4511719,136.953776 L69.4511719,109.326823 C69.4511719,106.332031 68.8522135,103.786458 67.6542969,101.690104 C66.3066406,99.59375 64.4348958,98.0963542 62.0390625,97.1979167 C59.34375,96 55.9746094,95.7005208 51.9316406,96.2994792 Z M13.6335,74.397 C14.0115,74.397 14.3085,74.505 14.5515,74.667 C14.7675,74.829 14.8755,75.099 14.8755,75.45 C14.8755,75.639 14.8485,75.801 14.8485,75.963 L14.7675,76.476 L14.6595,76.989 C14.6055,77.178 14.5515,77.34 14.5245,77.502 C14.0385,79.365 13.7415,81.255 13.5795,83.145 C13.4175,85.062 13.3635,86.952 13.3635,88.842 C13.3635,89.112 13.3635,89.436 13.4175,89.787 C13.4175,90.138 13.4715,90.462 13.5255,90.759 C13.5525,91.083 13.5795,91.38 13.6335,91.623 C13.6335,91.893 13.6605,92.055 13.6605,92.136 C13.6605,92.298 13.5255,92.433 13.3095,92.541 C13.0395,92.649 12.7965,92.703 12.5805,92.703 C12.1485,92.703 11.8245,92.595 11.5815,92.325 C11.3385,92.082 11.2305,91.758 11.2305,91.326 C11.2305,90.57 11.2575,89.679 11.3115,88.653 C11.3385,87.627 11.3925,86.601 11.4465,85.575 C11.4735,85.035 11.5275,84.414 11.5815,83.766 L11.7975,81.849 C11.8785,81.201 11.9595,80.607 12.0675,80.013 C12.1215,79.419 12.2025,78.906 12.2835,78.474 C11.9055,78.879 11.6085,79.23 11.3385,79.527 C11.0685,79.824 10.8525,80.04 10.7175,80.175 L10.1775,80.769 C9.9615,81.012 9.7995,81.201 9.6645,81.363 C9.4485,81.579 9.2595,81.741 9.0705,81.849 C8.8545,81.957 8.6385,82.011 8.3955,82.011 C8.0715,82.011 7.7475,81.93 7.4775,81.714 C7.1535,81.525 7.0185,81.282 7.0185,80.958 C7.0185,80.877 7.0455,80.796 7.1535,80.688 C7.2345,80.607 7.3425,80.526 7.4775,80.418 L7.7205,80.256 C7.7745,80.202 7.8555,80.175 7.9365,80.121 L8.1525,80.013 L8.3415,79.851 C8.9085,79.311 9.5025,78.717 10.1235,78.042 C10.7175,77.394 11.2575,76.746 11.7705,76.152 C11.9325,75.963 12.1215,75.747 12.2835,75.531 C12.4185,75.315 12.5805,75.126 12.7965,74.91 C12.8775,74.829 13.0125,74.721 13.1745,74.586 C13.3365,74.478 13.4715,74.397 13.6335,74.397 Z M64.75,65.7 C67.0972102,65.7 69,67.6027898 69,69.95 C69,72.2972102 67.0972102,74.2 64.75,74.2 C62.8262327,74.2 61.2010003,72.9218203 60.6772171,71.1683752 L60.7402344,71.171875 C56.0983073,70.8723958 51.4563802,71.3216146 46.8144531,72.5195312 C42.2623698,73.5152995 37.9129964,75.2543376 33.766333,77.7366455 L33.1132813,78.1347656 C33.4127604,78.4342448 33.8619792,78.9583333 34.4609375,79.7070312 C31.765625,80.7552083 27.797526,82.4023438 22.5566406,84.6484375 C24.203776,82.4023438 26.749349,78.9583333 30.1933594,74.3164062 C30.4628906,74.7207031 30.9143555,75.2462891 31.5477539,75.8931641 L31.765625,76.1132812 C36.4075521,73.4179688 41.1992188,71.4713542 46.140625,70.2734375 C51.1140871,68.9569328 55.9446522,68.4978103 60.6323203,68.8960698 C61.0995887,67.059417 62.7660399,65.7 64.75,65.7 Z M64.75,66.7 C62.9550746,66.7 61.5,68.1550746 61.5,69.95 C61.5,71.7449254 62.9550746,73.2 64.75,73.2 C66.5449254,73.2 68,71.7449254 68,69.95 C68,68.1550746 66.5449254,66.7 64.75,66.7 Z M96.75,89.7 C99.0972102,89.7 101,91.6027898 101,93.95 C101,95.9343215 99.6400876,97.6010185 97.8014085,98.0689451 L97.8007813,144.84375 L95.5546875,144.84375 L95.554881,98.0296571 C93.789493,97.5133472 92.5,95.8822622 92.5,93.95 C92.5,91.6027898 94.4027898,89.7 96.75,89.7 Z M96.75,90.7 C94.9550746,90.7 93.5,92.1550746 93.5,93.95 C93.5,95.7449254 94.9550746,97.2 96.75,97.2 C98.5449254,97.2 100,95.7449254 100,93.95 C100,92.1550746 98.5449254,90.7 96.75,90.7 Z M95.5546875,147.089844 C95.5546875,146.640625 95.5546875,145.891927 95.5546875,144.84375 C95.1054688,144.84375 94.3567708,144.84375 93.3085938,144.84375 C94.0572917,147.688802 95.1803385,151.88151 96.6777344,157.421875 C97.4264323,154.576823 98.5494792,150.384115 100.046875,144.84375 C99.4479167,144.84375 98.6992188,144.84375 97.8007813,144.84375 C97.8007813,145.292969 97.8007813,146.041667 97.8007813,147.089844 C97.3515625,147.089844 96.6028646,147.089844 95.5546875,147.089844 Z M95.5546875,147.089844 C96.0039063,147.089844 96.7526042,147.089844 97.8007813,147.089844 C97.8007813,146.640625 97.8007813,145.891927 97.8007813,144.84375 C97.3515625,144.84375 96.6028646,144.84375 95.5546875,144.84375 C95.5546875,145.292969 95.5546875,146.041667 95.5546875,147.089844 Z M120.9795,99.353 C120.9795,98.975 120.8445,98.651 120.6015,98.327 C120.3585,98.003 120.0885,97.841 119.7645,97.841 C119.5215,97.841 119.2785,97.868 119.0625,97.922 L118.6845,98.003 L118.3065,98.057 C117.7125,98.111 117.1185,98.165 116.4975,98.165 C115.8495,98.165 115.2555,98.192 114.6885,98.219 C114.1485,98.273 113.5815,98.3 112.9875,98.327 C112.3935,98.381 111.6375,98.435 110.7465,98.543 C111.3675,98.03 111.8805,97.571 112.2855,97.193 L113.3925,96.14 L115.2015,94.385 C115.7955,93.791 116.3895,93.224 117.0105,92.63 C117.7665,91.874 118.3605,91.01 118.7655,90.011 C119.1435,89.039 119.3325,88.013 119.3325,86.906 C119.3325,86.339 119.1975,85.772 118.9545,85.205 C118.6845,84.665 118.3335,84.152 117.9015,83.693 C117.4425,83.261 116.9025,82.91 116.2815,82.64 C115.6605,82.37 114.9855,82.235 114.2835,82.235 C113.5005,82.235 112.7445,82.343 111.9885,82.559 C111.2325,82.802 110.5575,83.18 109.9635,83.693 C109.7475,83.855 109.5585,84.098 109.3425,84.368 C109.1265,84.665 108.9105,84.962 108.7485,85.286 C108.5595,85.61 108.3975,85.934 108.2895,86.258 C108.1545,86.582 108.1005,86.879 108.1005,87.122 C108.1005,87.446 108.2085,87.689 108.4785,87.905 C108.7215,88.148 108.9645,88.256 109.2345,88.256 C109.4235,88.256 109.5855,88.229 109.7205,88.121 C109.8285,88.04 109.9635,87.905 110.1255,87.743 C110.1795,87.662 110.2605,87.527 110.3415,87.365 C110.4225,87.23 110.5035,87.068 110.5845,86.906 C110.6385,86.771 110.7195,86.609 110.7735,86.447 C110.8275,86.285 110.8815,86.15 110.9895,85.988 C111.3675,85.34 111.7995,84.854 112.2855,84.476 C112.7445,84.125 113.3925,83.936 114.2025,83.936 C114.6345,83.936 115.0665,84.044 115.4445,84.206 C115.8225,84.395 116.1465,84.638 116.4435,84.935 C116.7135,85.259 116.9295,85.61 117.0915,85.988 C117.2535,86.393 117.3345,86.798 117.3345,87.23 C117.3345,87.77 117.2535,88.256 117.0915,88.715 C116.9295,89.201 116.7405,89.633 116.4975,90.038 C116.2545,90.47 115.9845,90.848 115.6875,91.199 C115.3635,91.577 115.0125,91.928 114.6885,92.252 L112.1235,94.655 C111.2865,95.465 110.3955,96.221 109.4775,96.95 C109.2075,97.166 108.9915,97.355 108.7755,97.571 C108.5595,97.787 108.3705,98.003 108.1545,98.219 C107.9655,98.408 107.8035,98.597 107.6955,98.759 C107.5875,98.975 107.5335,99.191 107.5335,99.434 C107.5335,99.812 107.6685,100.109 107.9655,100.298 C108.2355,100.514 108.5325,100.595 108.8835,100.595 C109.0995,100.595 109.3425,100.568 109.6125,100.514 C109.7475,100.487 109.8825,100.46 110.0175,100.433 C110.1255,100.406 110.2605,100.379 110.3955,100.352 C111.4215,100.217 112.4745,100.109 113.5815,100.001 C114.6615,99.893 115.7145,99.839 116.7405,99.839 C117.3075,99.839 117.9015,99.893 118.4955,99.974 C119.0625,100.082 119.6295,100.109 120.2235,100.109 C120.3855,100.109 120.5475,100.055 120.7095,99.893 C120.8715,99.785 120.9795,99.596 120.9795,99.353 Z M74.1225,32.262 C76.3625,32.262 77.7065,33.158 77.7065,34.726 C77.7065,36.518 76.3625,38.982 74.1225,42.118 C71.6585,45.254 68.7465,48.39 65.6105,51.302 C62.2505,54.438 59.1145,57.126 55.9785,59.366 C52.6185,61.606 50.1545,62.726 48.3625,62.726 C46.5705,62.726 43.8825,61.606 40.7465,59.366 C37.6105,57.126 34.2505,54.438 31.1145,51.302 C27.7545,48.39 24.8425,45.254 22.6025,42.118 C20.1385,38.982 19.0185,36.518 19.0185,34.726 C19.0185,33.158 20.1385,32.262 22.8265,32.262 C24.3945,32.262 26.1865,32.71 28.4265,33.606 C30.4425,34.502 32.6825,35.846 35.1465,37.19 C37.3865,38.758 39.8505,40.326 42.0905,41.894 C44.1065,43.462 46.1225,44.806 48.3625,46.15 C50.3785,44.806 52.3945,43.462 54.6345,41.894 C56.8745,40.326 59.1145,38.758 61.5785,37.19 C63.8185,35.846 66.2825,34.502 68.5225,33.606 C70.5385,32.71 72.3305,32.262 74.1225,32.262 Z M70.3507574,18.3417432 L61.6455074,28.6038445 L60.5565,27.164 L49.0631902,34.9980409 L48.4880893,35.3900057 L47.9207617,34.9868719 L36.5748931,26.9253517 C35.8240053,27.5938437 34.8344341,28 33.75,28 C31.4027898,28 29.5,26.0972102 29.5,23.75 C29.5,21.4027898 31.4027898,19.5 33.75,19.5 C36.0972102,19.5 38,21.4027898 38,23.75 C38,24.2899034 37.8993256,24.806293 37.7157253,25.2814204 L48.512,32.953 L59.3495,25.567 L58.4057489,24.3197489 L70.3507574,18.3417432 Z M33.75,20.5 C31.9550746,20.5 30.5,21.9550746 30.5,23.75 C30.5,25.5449254 31.9550746,27 33.75,27 C35.5449254,27 37,25.5449254 37,23.75 C37,21.9550746 35.5449254,20.5 33.75,20.5 Z M16.9315,3.262 C17.5795,3.262 18.2275,3.343 18.8755,3.451 C19.5235,3.586 20.1175,3.802 20.6575,4.099 C21.1975,4.423 21.6295,4.855 21.9535,5.368 C22.2775,5.908 22.4395,6.556 22.4395,7.312 C22.4395,8.149 22.2505,8.851 21.8995,9.445 C21.5215,10.039 20.9005,10.633 20.0365,11.2 C20.6845,11.362 21.3055,11.578 21.8455,11.821 C22.3855,12.064 22.8715,12.361 23.2765,12.685 C23.6545,13.063 23.9785,13.468 24.2215,13.927 C24.4375,14.413 24.5455,14.953 24.5455,15.547 C24.5455,16.573 24.3295,17.464 23.8975,18.22 C23.4385,19.003 22.8715,19.651 22.1695,20.191 C21.4675,20.731 20.6575,21.109 19.7935,21.379 C18.9025,21.676 18.0115,21.811 17.1475,21.811 C16.8235,21.811 16.4455,21.784 16.0135,21.703 C15.5545,21.649 15.0955,21.568 14.6365,21.46 C14.1505,21.352 13.6915,21.244 13.2595,21.082 C12.8005,20.947 12.4225,20.785 12.0985,20.623 C11.8285,20.488 11.5855,20.299 11.3695,20.029 C11.1265,19.813 11.0185,19.516 11.0185,19.192 C11.0185,18.895 11.0995,18.652 11.3155,18.463 C11.5045,18.274 11.7205,18.166 11.9905,18.166 C12.1255,18.166 12.3145,18.247 12.5305,18.355 C12.6115,18.409 12.7195,18.463 12.8275,18.517 C12.9355,18.571 13.0705,18.652 13.2325,18.733 C13.4755,18.895 13.7185,19.03 13.9615,19.165 C14.2045,19.327 14.4745,19.435 14.7445,19.516 C15.5005,19.813 16.2295,19.948 16.9045,19.948 C17.4985,19.948 18.0925,19.867 18.7135,19.678 C19.3345,19.516 19.9015,19.246 20.3875,18.895 C20.8735,18.544 21.3055,18.085 21.6295,17.545 C21.9265,17.032 22.0885,16.411 22.0885,15.682 C22.0885,15.25 21.9805,14.845 21.7915,14.494 C21.5755,14.17 21.3325,13.873 21.0355,13.63 C20.7115,13.414 20.3875,13.225 20.0095,13.063 C19.6315,12.901 19.2805,12.793 18.9295,12.685 C18.7405,12.658 18.5515,12.604 18.3895,12.55 C18.2005,12.496 18.0115,12.469 17.8225,12.469 C17.5795,12.469 17.3635,12.496 17.1475,12.55 C16.9315,12.604 16.7155,12.685 16.4995,12.766 C16.2835,12.847 16.0945,12.928 15.8785,12.982 C15.6625,13.063 15.4465,13.09 15.2305,13.09 C14.9335,13.09 14.6635,12.982 14.3935,12.739 C14.0965,12.496 13.9615,12.226 13.9615,11.902 C13.9615,11.632 14.0425,11.416 14.2045,11.254 C14.2855,11.173 14.4475,11.092 14.7175,11.011 C14.9605,10.957 15.2035,10.903 15.4735,10.903 L15.8785,10.903 C16.2025,10.903 16.4995,10.876 16.7965,10.795 C17.0935,10.741 17.4445,10.606 17.8765,10.417 C18.2815,10.255 18.6595,10.012 19.0375,9.715 C19.4155,9.418 19.7125,9.067 19.9825,8.635 C20.2255,8.257 20.3605,7.771 20.3605,7.231 C20.3605,6.799 20.2525,6.448 20.0905,6.151 C19.9015,5.881 19.6855,5.665 19.4155,5.503 C19.1185,5.341 18.7945,5.233 18.4435,5.179 C18.0925,5.125 17.7685,5.071 17.4445,5.071 C17.0125,5.071 16.5535,5.179 16.1215,5.368 C15.6355,5.584 15.2305,5.773 14.8525,5.962 C14.6635,6.07 14.5015,6.151 14.3395,6.232 L13.8535,6.475 C13.5025,6.637 13.2055,6.691 12.9895,6.691 C12.7465,6.691 12.5305,6.583 12.3415,6.367 C12.1255,6.151 12.0445,5.881 12.0445,5.584 C12.0445,5.314 12.1795,5.017 12.5035,4.747 C12.8275,4.477 13.2325,4.207 13.7185,3.991 C14.2045,3.775 14.7175,3.613 15.3115,3.451 C15.8785,3.343 16.4185,3.262 16.9315,3.262 Z"/></svg>