<svg xmlns="http://www.w3.org/2000/svg" width="97" height="203" viewBox="0 0 97 203"><path fill="#131313" d="M426.743109,90.6426124 C427.192328,90.792352 427.566677,90.9420916 427.866156,91.0918311 C428.315375,91.3913103 428.689724,91.6159197 428.989203,91.7656593 C429.737901,90.7174822 430.711208,89.8190447 431.909125,89.0703468 C433.107042,88.4713884 434.379828,88.1719093 435.727484,88.1719093 C438.123318,88.1719093 440.069932,88.9206072 441.567328,90.418003 C443.214464,92.0651384 444.038031,94.011753 444.038031,96.2578468 L444.038031,165.662144 C444.038031,167.908237 443.214464,169.854852 441.567328,171.501987 C439.920193,172.999383 437.973578,173.748081 435.727484,173.748081 C433.78087,173.748081 432.058865,173.149123 430.561469,171.951206 C429.064073,170.753289 428.165635,169.181024 427.866156,167.234409 C424.571885,169.181024 420.603786,170.753289 415.961859,171.951206 C411.319932,173.149123 405.929307,173.748081 399.789984,173.748081 C393.051703,173.748081 387.286729,172.175816 382.495063,169.031284 C377.553656,165.886753 373.959906,161.394566 371.713813,155.554722 C369.916938,151.062534 369.0185,146.270868 369.0185,141.179722 C369.0185,136.687534 369.617458,131.895868 370.815375,126.804722 C373.810167,115.873732 378.976182,106.964227 386.313422,100.076206 C392.303005,94.386102 398.891547,90.7174822 406.079047,89.0703468 C413.416286,87.2734718 420.304307,87.7975603 426.743109,90.6426124 Z M409.931641,104.064479 C405.888672,104.813177 401.695964,107.20901 397.353516,111.251979 C392.26237,115.893906 388.66862,122.033229 386.572266,129.669948 C384.475911,137.156927 384.475911,143.595729 386.572266,148.986354 C387.620443,151.681667 389.192708,153.628281 391.289062,154.826198 C393.385417,156.173854 396.155599,156.847682 399.599609,156.847682 C409.632161,156.847682 416.595052,155.200547 420.488281,151.906276 C424.38151,148.612005 426.702474,146.216172 427.451172,144.718776 L427.451172,117.091823 C427.451172,114.097031 426.852214,111.551458 425.654297,109.455104 C424.306641,107.35875 422.434896,105.861354 420.039062,104.962917 C417.34375,103.765 413.974609,103.465521 409.931641,104.064479 Z M371.6335,82.162 C372.0115,82.162 372.3085,82.27 372.5515,82.432 C372.7675,82.594 372.8755,82.864 372.8755,83.215 C372.8755,83.404 372.8485,83.566 372.8485,83.728 L372.7675,84.241 L372.6595,84.754 C372.6055,84.943 372.5515,85.105 372.5245,85.267 C372.0385,87.13 371.7415,89.02 371.5795,90.91 C371.4175,92.827 371.3635,94.717 371.3635,96.607 C371.3635,96.877 371.3635,97.201 371.4175,97.552 C371.4175,97.903 371.4715,98.227 371.5255,98.524 C371.5525,98.848 371.5795,99.145 371.6335,99.388 C371.6335,99.658 371.6605,99.82 371.6605,99.901 C371.6605,100.063 371.5255,100.198 371.3095,100.306 C371.0395,100.414 370.7965,100.468 370.5805,100.468 C370.1485,100.468 369.8245,100.36 369.5815,100.09 C369.3385,99.847 369.2305,99.523 369.2305,99.091 C369.2305,98.335 369.2575,97.444 369.3115,96.418 C369.3385,95.392 369.3925,94.366 369.4465,93.34 C369.4735,92.8 369.5275,92.179 369.5815,91.531 L369.7975,89.614 C369.8785,88.966 369.9595,88.372 370.0675,87.778 C370.1215,87.184 370.2025,86.671 370.2835,86.239 C369.9055,86.644 369.6085,86.995 369.3385,87.292 C369.0685,87.589 368.8525,87.805 368.7175,87.94 L368.1775,88.534 C367.9615,88.777 367.7995,88.966 367.6645,89.128 C367.4485,89.344 367.2595,89.506 367.0705,89.614 C366.8545,89.722 366.6385,89.776 366.3955,89.776 C366.0715,89.776 365.7475,89.695 365.4775,89.479 C365.1535,89.29 365.0185,89.047 365.0185,88.723 C365.0185,88.642 365.0455,88.561 365.1535,88.453 C365.2345,88.372 365.3425,88.291 365.4775,88.183 L365.7205,88.021 C365.7745,87.967 365.8555,87.94 365.9365,87.886 L366.1525,87.778 L366.3415,87.616 C366.9085,87.076 367.5025,86.482 368.1235,85.807 C368.7175,85.159 369.2575,84.511 369.7705,83.917 C369.9325,83.728 370.1215,83.512 370.2835,83.296 C370.4185,83.08 370.5805,82.891 370.7965,82.675 C370.8775,82.594 371.0125,82.486 371.1745,82.351 C371.3365,82.243 371.4715,82.162 371.6335,82.162 Z M422.75,73.465 C425.09721,73.465 427,75.3677898 427,77.715 C427,80.0622102 425.09721,81.965 422.75,81.965 C420.826233,81.965 419.201,80.6868203 418.677217,78.9333752 L418.740234,78.936875 C414.098307,78.6373958 409.45638,79.0866146 404.814453,80.2845312 C400.26237,81.2802995 395.912996,83.0193376 391.766333,85.5016455 L391.113281,85.8997656 C391.41276,86.1992448 391.861979,86.7233333 392.460938,87.4720312 C389.765625,88.5202083 385.797526,90.1673437 380.556641,92.4134375 C382.203776,90.1673437 384.749349,86.7233333 388.193359,82.0814062 C388.462891,82.4857031 388.914355,83.0112891 389.547754,83.6581641 L389.765625,83.8782812 C394.407552,81.1829687 399.199219,79.2363542 404.140625,78.0384375 C409.114087,76.7219328 413.944652,76.2628103 418.63232,76.6610698 C419.099589,74.824417 420.76604,73.465 422.75,73.465 Z M422.75,74.465 C420.955075,74.465 419.5,75.9200746 419.5,77.715 C419.5,79.5099254 420.955075,80.965 422.75,80.965 C424.544925,80.965 426,79.5099254 426,77.715 C426,75.9200746 424.544925,74.465 422.75,74.465 Z M454.75,97.465 C457.09721,97.465 459,99.3677898 459,101.715 C459,103.699322 457.640088,105.366018 455.801408,105.833945 L455.800781,152.60875 L453.554688,152.60875 L453.554881,105.794657 C451.789493,105.278347 450.5,103.647262 450.5,101.715 C450.5,99.3677898 452.40279,97.465 454.75,97.465 Z M454.75,98.465 C452.955075,98.465 451.5,99.9200746 451.5,101.715 C451.5,103.509925 452.955075,104.965 454.75,104.965 C456.544925,104.965 458,103.509925 458,101.715 C458,99.9200746 456.544925,98.465 454.75,98.465 Z M453.554688,154.854844 C453.554688,154.405625 453.554688,153.656927 453.554688,152.60875 C453.105469,152.60875 452.356771,152.60875 451.308594,152.60875 C452.057292,155.453802 453.180339,159.64651 454.677734,165.186875 C455.426432,162.341823 456.549479,158.149115 458.046875,152.60875 C457.447917,152.60875 456.699219,152.60875 455.800781,152.60875 C455.800781,153.057969 455.800781,153.806667 455.800781,154.854844 C455.351562,154.854844 454.602865,154.854844 453.554688,154.854844 Z M453.554688,154.854844 C454.003906,154.854844 454.752604,154.854844 455.800781,154.854844 C455.800781,154.405625 455.800781,153.656927 455.800781,152.60875 C455.351562,152.60875 454.602865,152.60875 453.554688,152.60875 C453.554688,153.057969 453.554688,153.806667 453.554688,154.854844 Z M478.9795,107.118 C478.9795,106.74 478.8445,106.416 478.6015,106.092 C478.3585,105.768 478.0885,105.606 477.7645,105.606 C477.5215,105.606 477.2785,105.633 477.0625,105.687 L476.6845,105.768 L476.3065,105.822 C475.7125,105.876 475.1185,105.93 474.4975,105.93 C473.8495,105.93 473.2555,105.957 472.6885,105.984 C472.1485,106.038 471.5815,106.065 470.9875,106.092 C470.3935,106.146 469.6375,106.2 468.7465,106.308 C469.3675,105.795 469.8805,105.336 470.2855,104.958 L471.3925,103.905 L473.2015,102.15 C473.7955,101.556 474.3895,100.989 475.0105,100.395 C475.7665,99.639 476.3605,98.775 476.7655,97.776 C477.1435,96.804 477.3325,95.778 477.3325,94.671 C477.3325,94.104 477.1975,93.537 476.9545,92.97 C476.6845,92.43 476.3335,91.917 475.9015,91.458 C475.4425,91.026 474.9025,90.675 474.2815,90.405 C473.6605,90.135 472.9855,90 472.2835,90 C471.5005,90 470.7445,90.108 469.9885,90.324 C469.2325,90.567 468.5575,90.945 467.9635,91.458 C467.7475,91.62 467.5585,91.863 467.3425,92.133 C467.1265,92.43 466.9105,92.727 466.7485,93.051 C466.5595,93.375 466.3975,93.699 466.2895,94.023 C466.1545,94.347 466.1005,94.644 466.1005,94.887 C466.1005,95.211 466.2085,95.454 466.4785,95.67 C466.7215,95.913 466.9645,96.021 467.2345,96.021 C467.4235,96.021 467.5855,95.994 467.7205,95.886 C467.8285,95.805 467.9635,95.67 468.1255,95.508 C468.1795,95.427 468.2605,95.292 468.3415,95.13 C468.4225,94.995 468.5035,94.833 468.5845,94.671 C468.6385,94.536 468.7195,94.374 468.7735,94.212 C468.8275,94.05 468.8815,93.915 468.9895,93.753 C469.3675,93.105 469.7995,92.619 470.2855,92.241 C470.7445,91.89 471.3925,91.701 472.2025,91.701 C472.6345,91.701 473.0665,91.809 473.4445,91.971 C473.8225,92.16 474.1465,92.403 474.4435,92.7 C474.7135,93.024 474.9295,93.375 475.0915,93.753 C475.2535,94.158 475.3345,94.563 475.3345,94.995 C475.3345,95.535 475.2535,96.021 475.0915,96.48 C474.9295,96.966 474.7405,97.398 474.4975,97.803 C474.2545,98.235 473.9845,98.613 473.6875,98.964 C473.3635,99.342 473.0125,99.693 472.6885,100.017 L470.1235,102.42 C469.2865,103.23 468.3955,103.986 467.4775,104.715 C467.2075,104.931 466.9915,105.12 466.7755,105.336 C466.5595,105.552 466.3705,105.768 466.1545,105.984 C465.9655,106.173 465.8035,106.362 465.6955,106.524 C465.5875,106.74 465.5335,106.956 465.5335,107.199 C465.5335,107.577 465.6685,107.874 465.9655,108.063 C466.2355,108.279 466.5325,108.36 466.8835,108.36 C467.0995,108.36 467.3425,108.333 467.6125,108.279 C467.7475,108.252 467.8825,108.225 468.0175,108.198 C468.1255,108.171 468.2605,108.144 468.3955,108.117 C469.4215,107.982 470.4745,107.874 471.5815,107.766 C472.6615,107.658 473.7145,107.604 474.7405,107.604 C475.3075,107.604 475.9015,107.658 476.4955,107.739 C477.0625,107.847 477.6295,107.874 478.2235,107.874 C478.3855,107.874 478.5475,107.82 478.7095,107.658 C478.8715,107.55 478.9795,107.361 478.9795,107.118 Z M432.1225,40.027 C434.3625,40.027 435.7065,40.923 435.7065,42.491 C435.7065,44.283 434.3625,46.747 432.1225,49.883 C429.6585,53.019 426.7465,56.155 423.6105,59.067 C420.2505,62.203 417.1145,64.891 413.9785,67.131 C410.6185,69.371 408.1545,70.491 406.3625,70.491 C404.5705,70.491 401.8825,69.371 398.7465,67.131 C395.6105,64.891 392.2505,62.203 389.1145,59.067 C385.7545,56.155 382.8425,53.019 380.6025,49.883 C378.1385,46.747 377.0185,44.283 377.0185,42.491 C377.0185,40.923 378.1385,40.027 380.8265,40.027 C382.3945,40.027 384.1865,40.475 386.4265,41.371 C388.4425,42.267 390.6825,43.611 393.1465,44.955 C395.3865,46.523 397.8505,48.091 400.0905,49.659 C402.1065,51.227 404.1225,52.571 406.3625,53.915 C408.3785,52.571 410.3945,51.227 412.6345,49.659 C414.8745,48.091 417.1145,46.523 419.5785,44.955 C421.8185,43.611 424.2825,42.267 426.5225,41.371 C428.5385,40.475 430.3305,40.027 432.1225,40.027 Z M428.350757,26.1067432 L419.645507,36.3688445 L418.5565,34.929 L407.06319,42.7630409 L406.488089,43.1550057 L405.920762,42.7518719 L394.574893,34.6903517 C393.824005,35.3588437 392.834434,35.765 391.75,35.765 C389.40279,35.765 387.5,33.8622102 387.5,31.515 C387.5,29.1677898 389.40279,27.265 391.75,27.265 C394.09721,27.265 396,29.1677898 396,31.515 C396,32.0549034 395.899326,32.571293 395.715725,33.0464204 L406.512,40.718 L417.3495,33.332 L416.405749,32.0847489 L428.350757,26.1067432 Z M391.75,28.265 C389.955075,28.265 388.5,29.7200746 388.5,31.515 C388.5,33.3099254 389.955075,34.765 391.75,34.765 C393.544925,34.765 395,33.3099254 395,31.515 C395,29.7200746 393.544925,28.265 391.75,28.265 Z M374.9315,11.027 C375.5795,11.027 376.2275,11.108 376.8755,11.216 C377.5235,11.351 378.1175,11.567 378.6575,11.864 C379.1975,12.188 379.6295,12.62 379.9535,13.133 C380.2775,13.673 380.4395,14.321 380.4395,15.077 C380.4395,15.914 380.2505,16.616 379.8995,17.21 C379.5215,17.804 378.9005,18.398 378.0365,18.965 C378.6845,19.127 379.3055,19.343 379.8455,19.586 C380.3855,19.829 380.8715,20.126 381.2765,20.45 C381.6545,20.828 381.9785,21.233 382.2215,21.692 C382.4375,22.178 382.5455,22.718 382.5455,23.312 C382.5455,24.338 382.3295,25.229 381.8975,25.985 C381.4385,26.768 380.8715,27.416 380.1695,27.956 C379.4675,28.496 378.6575,28.874 377.7935,29.144 C376.9025,29.441 376.0115,29.576 375.1475,29.576 C374.8235,29.576 374.4455,29.549 374.0135,29.468 C373.5545,29.414 373.0955,29.333 372.6365,29.225 C372.1505,29.117 371.6915,29.009 371.2595,28.847 C370.8005,28.712 370.4225,28.55 370.0985,28.388 C369.8285,28.253 369.5855,28.064 369.3695,27.794 C369.1265,27.578 369.0185,27.281 369.0185,26.957 C369.0185,26.66 369.0995,26.417 369.3155,26.228 C369.5045,26.039 369.7205,25.931 369.9905,25.931 C370.1255,25.931 370.3145,26.012 370.5305,26.12 C370.6115,26.174 370.7195,26.228 370.8275,26.282 C370.9355,26.336 371.0705,26.417 371.2325,26.498 C371.4755,26.66 371.7185,26.795 371.9615,26.93 C372.2045,27.092 372.4745,27.2 372.7445,27.281 C373.5005,27.578 374.2295,27.713 374.9045,27.713 C375.4985,27.713 376.0925,27.632 376.7135,27.443 C377.3345,27.281 377.9015,27.011 378.3875,26.66 C378.8735,26.309 379.3055,25.85 379.6295,25.31 C379.9265,24.797 380.0885,24.176 380.0885,23.447 C380.0885,23.015 379.9805,22.61 379.7915,22.259 C379.5755,21.935 379.3325,21.638 379.0355,21.395 C378.7115,21.179 378.3875,20.99 378.0095,20.828 C377.6315,20.666 377.2805,20.558 376.9295,20.45 C376.7405,20.423 376.5515,20.369 376.3895,20.315 C376.2005,20.261 376.0115,20.234 375.8225,20.234 C375.5795,20.234 375.3635,20.261 375.1475,20.315 C374.9315,20.369 374.7155,20.45 374.4995,20.531 C374.2835,20.612 374.0945,20.693 373.8785,20.747 C373.6625,20.828 373.4465,20.855 373.2305,20.855 C372.9335,20.855 372.6635,20.747 372.3935,20.504 C372.0965,20.261 371.9615,19.991 371.9615,19.667 C371.9615,19.397 372.0425,19.181 372.2045,19.019 C372.2855,18.938 372.4475,18.857 372.7175,18.776 C372.9605,18.722 373.2035,18.668 373.4735,18.668 L373.8785,18.668 C374.2025,18.668 374.4995,18.641 374.7965,18.56 C375.0935,18.506 375.4445,18.371 375.8765,18.182 C376.2815,18.02 376.6595,17.777 377.0375,17.48 C377.4155,17.183 377.7125,16.832 377.9825,16.4 C378.2255,16.022 378.3605,15.536 378.3605,14.996 C378.3605,14.564 378.2525,14.213 378.0905,13.916 C377.9015,13.646 377.6855,13.43 377.4155,13.268 C377.1185,13.106 376.7945,12.998 376.4435,12.944 C376.0925,12.89 375.7685,12.836 375.4445,12.836 C375.0125,12.836 374.5535,12.944 374.1215,13.133 C373.6355,13.349 373.2305,13.538 372.8525,13.727 C372.6635,13.835 372.5015,13.916 372.3395,13.997 L371.8535,14.24 C371.5025,14.402 371.2055,14.456 370.9895,14.456 C370.7465,14.456 370.5305,14.348 370.3415,14.132 C370.1255,13.916 370.0445,13.646 370.0445,13.349 C370.0445,13.079 370.1795,12.782 370.5035,12.512 C370.8275,12.242 371.2325,11.972 371.7185,11.756 C372.2045,11.54 372.7175,11.378 373.3115,11.216 C373.8785,11.108 374.4185,11.027 374.9315,11.027 Z" transform="translate(-358 -31.765)"/></svg>