<svg xmlns="http://www.w3.org/2000/svg" width="64" height="243" viewBox="0 0 64 243"><path fill="#131313" d="M31.5335,157.490234 C31.5335,142.067057 31.5335,118.932292 31.5335,88.0859375 C31.5335,85.8398438 32.3570677,83.8932292 34.0042031,82.2460938 C35.501599,80.7486979 37.3733437,80 39.6194375,80 C41.8655312,80 43.8121458,80.7486979 45.4592812,82.2460938 C47.1064167,83.8932292 47.9299844,85.8398438 47.9299844,88.0859375 C47.9299844,103.509115 47.9299844,126.64388 47.9299844,157.490234 C47.9299844,159.736328 47.1064167,161.682943 45.4592812,163.330078 C43.8121458,164.827474 41.8655312,165.576172 39.6194375,165.576172 C37.3733437,165.576172 35.501599,164.827474 34.0042031,163.330078 C32.3570677,161.682943 31.5335,159.736328 31.5335,157.490234 Z M16.75,85.265 C19.0972102,85.265 21,87.1677898 21,89.515 C21,91.4387673 19.7218203,93.0639997 17.9683752,93.5877829 L17.96875,140.603516 L19.9902344,140.603516 C18.6425781,146.14388 17.594401,150.336589 16.8457031,153.181641 C15.3483073,147.641276 14.2252604,143.448568 13.4765625,140.603516 L15.4980469,140.603516 L15.4983697,93.5776996 C13.7620422,93.0434033 12.5,91.4265845 12.5,89.515 C12.5,87.1677898 14.4027898,85.265 16.75,85.265 Z M16.75,86.265 C14.9550746,86.265 13.5,87.7200746 13.5,89.515 C13.5,91.3099254 14.9550746,92.765 16.75,92.765 C18.5449254,92.765 20,91.3099254 20,89.515 C20,87.7200746 18.5449254,86.265 16.75,86.265 Z M3.59375,91.4140625 C3.74348958,91.5638021 3.81835937,91.6386719 3.81835937,91.6386719 C3.96809896,91.6386719 4.04296875,91.7135417 4.04296875,91.8632812 C4.19270833,91.8632812 4.26757812,91.938151 4.26757812,92.0878906 C4.26757812,92.2376302 4.26757812,92.3125 4.26757812,92.3125 C4.26757812,94.2591146 4.26757812,96.5800781 4.26757812,99.2753906 C4.26757812,102.120443 4.26757812,105.339844 4.26757812,108.933594 C4.26757812,109.083333 4.26757812,109.233073 4.26757812,109.382812 C4.11783854,109.532552 4.04296875,109.682292 4.04296875,109.832031 C3.89322917,109.832031 3.74348958,109.832031 3.59375,109.832031 C3.44401042,109.981771 3.36914062,110.056641 3.36914062,110.056641 C3.21940104,110.056641 3.06966146,109.981771 2.91992188,109.832031 C2.77018229,109.832031 2.62044271,109.832031 2.47070313,109.832031 C2.47070313,109.682292 2.47070313,109.532552 2.47070313,109.382812 C2.32096354,109.233073 2.24609375,109.083333 2.24609375,108.933594 C2.24609375,107.436198 2.24609375,105.489583 2.24609375,103.09375 C2.24609375,100.697917 2.24609375,97.9277344 2.24609375,94.7832031 C2.24609375,94.7832031 2.17122396,94.8580729 2.02148438,95.0078125 C1.87174479,95.1575521 1.72200521,95.3072917 1.57226563,95.4570312 C1.57226563,95.4570312 1.49739583,95.531901 1.34765625,95.6816406 C1.19791667,95.6816406 1.04817708,95.6816406 0.8984375,95.6816406 C0.748697917,95.6816406 0.673828125,95.6816406 0.673828125,95.6816406 C0.524088542,95.531901 0.374348958,95.4570312 0.224609375,95.4570312 C0.0748697917,95.3072917 0,95.1575521 0,95.0078125 C0,95.0078125 0,94.9329427 0,94.7832031 C0,94.6334635 0,94.483724 0,94.3339844 C0,94.1842448 0.0748697917,94.109375 0.224609375,94.109375 C0.524088542,93.8098958 0.8984375,93.4355469 1.34765625,92.9863281 C1.64713542,92.686849 2.09635417,92.2376302 2.6953125,91.6386719 C2.6953125,91.6386719 2.77018229,91.5638021 2.91992188,91.4140625 C2.91992188,91.4140625 2.99479167,91.4140625 3.14453125,91.4140625 C3.14453125,91.4140625 3.14453125,91.4140625 3.14453125,91.4140625 C3.29427083,91.4140625 3.36914062,91.4140625 3.36914062,91.4140625 C3.36914062,91.4140625 3.44401042,91.4140625 3.59375,91.4140625 C3.59375,91.4140625 3.59375,91.4140625 3.59375,91.4140625 Z M65.1225,32.262 C67.3625,32.262 68.7065,33.158 68.7065,34.726 C68.7065,36.518 67.3625,38.982 65.1225,42.118 C62.6585,45.254 59.7465,48.39 56.6105,51.302 C53.2505,54.438 50.1145,57.126 46.9785,59.366 C43.6185,61.606 41.1545,62.726 39.3625,62.726 C37.5705,62.726 34.8825,61.606 31.7465,59.366 C28.6105,57.126 25.2505,54.438 22.1145,51.302 C18.7545,48.39 15.8425,45.254 13.6025,42.118 C11.1385,38.982 10.0185,36.518 10.0185,34.726 C10.0185,33.158 11.1385,32.262 13.8265,32.262 C15.3945,32.262 17.1865,32.71 19.4265,33.606 C21.4425,34.502 23.6825,35.846 26.1465,37.19 C28.3865,38.758 30.8505,40.326 33.0905,41.894 C35.1065,43.462 37.1225,44.806 39.3625,46.15 C41.3785,44.806 43.3945,43.462 45.6345,41.894 C47.8745,40.326 50.1145,38.758 52.5785,37.19 C54.8185,35.846 57.2825,34.502 59.5225,33.606 C61.5385,32.71 63.3305,32.262 65.1225,32.262 Z M61.3507574,18.3417432 L52.6455074,28.6038445 L51.556,27.164 L40.0631902,34.9980409 L39.4880893,35.3900057 L38.9207617,34.9868719 L27.5751815,26.9250949 C26.8242588,27.5937397 25.834573,28 24.75,28 C22.4027898,28 20.5,26.0972102 20.5,23.75 C20.5,21.4027898 22.4027898,19.5 24.75,19.5 C27.0972102,19.5 29,21.4027898 29,23.75 C29,24.2895282 28.8994655,24.8055753 28.716108,25.2804298 L39.512,32.953 L50.349,25.567 L49.4057489,24.3197489 L61.3507574,18.3417432 Z M24.75,20.5 C22.9550746,20.5 21.5,21.9550746 21.5,23.75 C21.5,25.5449254 22.9550746,27 24.75,27 C26.5449254,27 28,25.5449254 28,23.75 C28,21.9550746 26.5449254,20.5 24.75,20.5 Z M39.2835,3.235 C39.9855,3.235 40.6605,3.37 41.2815,3.64 C41.9025,3.91 42.4425,4.261 42.9015,4.693 C43.3335,5.152 43.6845,5.665 43.9545,6.205 C44.1975,6.772 44.3325,7.339 44.3325,7.906 C44.3325,9.013 44.1435,10.039 43.7655,11.011 C43.3605,12.01 42.7665,12.874 42.0105,13.63 C41.3895,14.224 40.7955,14.791 40.2015,15.385 L38.3925,17.14 L37.2855,18.193 C36.8805,18.571 36.3675,19.03 35.7465,19.543 C36.6375,19.435 37.3935,19.381 37.9875,19.327 C38.5815,19.3 39.1485,19.273 39.6885,19.219 C40.2555,19.192 40.8495,19.165 41.4975,19.165 C42.1185,19.165 42.7125,19.111 43.3065,19.057 L43.6845,19.003 L44.0625,18.922 C44.2785,18.868 44.5215,18.841 44.7645,18.841 C45.0885,18.841 45.3585,19.003 45.6015,19.327 C45.8445,19.651 45.9795,19.975 45.9795,20.353 C45.9795,20.596 45.8715,20.785 45.7095,20.893 C45.5475,21.055 45.3855,21.109 45.2235,21.109 C44.6295,21.109 44.0625,21.082 43.4955,20.974 C42.9015,20.893 42.3075,20.839 41.7405,20.839 C40.7145,20.839 39.6615,20.893 38.5815,21.001 C37.4745,21.109 36.4215,21.217 35.3955,21.352 C35.2605,21.379 35.1255,21.406 35.0175,21.433 C34.8825,21.46 34.7475,21.487 34.6125,21.514 C34.3425,21.568 34.0995,21.595 33.8835,21.595 C33.5325,21.595 33.2355,21.514 32.9655,21.298 C32.6685,21.109 32.5335,20.812 32.5335,20.434 C32.5335,20.191 32.5875,19.975 32.6955,19.759 C32.8035,19.597 32.9655,19.408 33.1545,19.219 C33.3705,19.003 33.5595,18.787 33.7755,18.571 C33.9915,18.355 34.2075,18.166 34.4775,17.95 C35.3955,17.221 36.2865,16.465 37.1235,15.655 L39.6885,13.252 C40.0125,12.928 40.3635,12.577 40.6875,12.199 C40.9845,11.848 41.2545,11.47 41.4975,11.038 C41.7405,10.633 41.9295,10.201 42.0915,9.715 C42.2535,9.256 42.3345,8.77 42.3345,8.23 C42.3345,7.798 42.2535,7.393 42.0915,6.988 C41.9295,6.61 41.7135,6.259 41.4435,5.935 C41.1465,5.638 40.8225,5.395 40.4445,5.206 C40.0665,5.044 39.6345,4.936 39.2025,4.936 C38.3925,4.936 37.7445,5.125 37.2855,5.476 C36.7995,5.854 36.3675,6.34 35.9895,6.988 C35.8815,7.15 35.8275,7.285 35.7735,7.447 C35.7195,7.609 35.6385,7.771 35.5845,7.906 C35.5035,8.068 35.4225,8.23 35.3415,8.365 C35.2605,8.527 35.1795,8.662 35.1255,8.743 C34.9635,8.905 34.8285,9.04 34.7205,9.121 C34.5855,9.229 34.4235,9.256 34.2345,9.256 C33.9645,9.256 33.7215,9.148 33.4785,8.905 C33.2085,8.689 33.1005,8.446 33.1005,8.122 C33.1005,7.879 33.1545,7.582 33.2895,7.258 C33.3975,6.934 33.5595,6.61 33.7485,6.286 C33.9105,5.962 34.1265,5.665 34.3425,5.368 C34.5585,5.098 34.7475,4.855 34.9635,4.693 C35.5575,4.18 36.2325,3.802 36.9885,3.559 C37.7445,3.343 38.5005,3.235 39.2835,3.235 Z" transform="translate(-7.5)"/></svg>