<svg xmlns="http://www.w3.org/2000/svg" width="64" height="203" viewBox="0 0 64 203"><path fill="#131313" d="M2555.5335,194.490234 C2555.5335,179.067057 2555.5335,155.932292 2555.5335,125.085938 C2555.5335,122.839844 2556.35707,120.893229 2558.0042,119.246094 C2559.5016,117.748698 2561.37334,117 2563.61944,117 C2565.86553,117 2567.81215,117.748698 2569.45928,119.246094 C2571.10642,120.893229 2571.92998,122.839844 2571.92998,125.085938 C2571.92998,140.509115 2571.92998,163.64388 2571.92998,194.490234 C2571.92998,196.736328 2571.10642,198.682943 2569.45928,200.330078 C2567.81215,201.827474 2565.86553,202.576172 2563.61944,202.576172 C2561.37334,202.576172 2559.5016,201.827474 2558.0042,200.330078 C2556.35707,198.682943 2555.5335,196.736328 2555.5335,194.490234 Z M2540.75,122.265 C2543.09721,122.265 2545,124.16779 2545,126.515 C2545,128.438449 2543.72224,130.063462 2541.96925,130.587523 L2541.96875,177.603516 L2543.99023,177.603516 C2542.64258,183.14388 2541.5944,187.336589 2540.8457,190.181641 C2539.34831,184.641276 2538.22526,180.448568 2537.47656,177.603516 L2539.49805,177.603516 L2539.49768,130.577487 C2537.76171,130.042975 2536.5,128.426331 2536.5,126.515 C2536.5,124.16779 2538.40279,122.265 2540.75,122.265 Z M2540.75,123.265 C2538.95507,123.265 2537.5,124.720075 2537.5,126.515 C2537.5,128.309925 2538.95507,129.765 2540.75,129.765 C2542.54493,129.765 2544,128.309925 2544,126.515 C2544,124.720075 2542.54493,123.265 2540.75,123.265 Z M2528.8755,129.45 C2528.8755,129.099 2528.7675,128.829 2528.5515,128.667 C2528.3085,128.505 2528.0115,128.397 2527.6335,128.397 C2527.4715,128.397 2527.3365,128.478 2527.1745,128.586 C2527.0125,128.721 2526.8775,128.829 2526.7965,128.91 C2526.5805,129.126 2526.4185,129.315 2526.2835,129.531 C2526.1215,129.747 2525.9325,129.963 2525.7705,130.152 C2525.2575,130.746 2524.7175,131.394 2524.1235,132.042 C2523.5025,132.717 2522.9085,133.311 2522.3415,133.851 C2522.2875,133.905 2522.2065,133.959 2522.1525,134.013 L2521.9365,134.121 C2521.8555,134.175 2521.7745,134.202 2521.7205,134.256 L2521.4775,134.418 C2521.3425,134.526 2521.2345,134.607 2521.1535,134.688 C2521.0455,134.796 2521.0185,134.877 2521.0185,134.958 C2521.0185,135.282 2521.1535,135.525 2521.4775,135.714 C2521.7475,135.93 2522.0715,136.011 2522.3955,136.011 C2522.6385,136.011 2522.8545,135.957 2523.0705,135.849 C2523.2595,135.741 2523.4485,135.579 2523.6645,135.363 C2523.7995,135.201 2523.9615,135.012 2524.1775,134.769 L2524.7175,134.175 C2524.8525,134.04 2525.0685,133.824 2525.3385,133.527 C2525.6085,133.23 2525.9055,132.879 2526.2835,132.474 C2526.2025,132.906 2526.1215,133.419 2526.0675,134.013 C2525.9595,134.607 2525.8785,135.201 2525.7975,135.849 L2525.5815,137.766 C2525.5275,138.414 2525.4735,139.035 2525.4465,139.575 C2525.3925,140.601 2525.3385,141.627 2525.3115,142.653 C2525.2575,143.679 2525.2305,144.57 2525.2305,145.326 C2525.2305,145.758 2525.3385,146.082 2525.5815,146.325 C2525.8245,146.595 2526.1485,146.703 2526.5805,146.703 C2526.7965,146.703 2527.0395,146.649 2527.3095,146.541 C2527.5255,146.433 2527.6605,146.298 2527.6605,146.136 C2527.6605,146.055 2527.6335,145.893 2527.6335,145.623 C2527.5795,145.38 2527.5525,145.083 2527.5255,144.759 C2527.4715,144.462 2527.4175,144.138 2527.4175,143.787 C2527.3635,143.436 2527.3635,143.112 2527.3635,142.842 C2527.3635,140.952 2527.4175,139.062 2527.5795,137.145 C2527.7415,135.255 2528.0385,133.365 2528.5245,131.502 C2528.5515,131.34 2528.6055,131.178 2528.6595,130.989 L2528.7675,130.476 L2528.8485,129.963 C2528.8485,129.801 2528.8755,129.639 2528.8755,129.45 Z M2589.1225,69.262 C2591.3625,69.262 2592.7065,70.158 2592.7065,71.726 C2592.7065,73.518 2591.3625,75.982 2589.1225,79.118 C2586.6585,82.254 2583.7465,85.39 2580.6105,88.302 C2577.2505,91.438 2574.1145,94.126 2570.9785,96.366 C2567.6185,98.606 2565.1545,99.726 2563.3625,99.726 C2561.5705,99.726 2558.8825,98.606 2555.7465,96.366 C2552.6105,94.126 2549.2505,91.438 2546.1145,88.302 C2542.7545,85.39 2539.8425,82.254 2537.6025,79.118 C2535.1385,75.982 2534.0185,73.518 2534.0185,71.726 C2534.0185,70.158 2535.1385,69.262 2537.8265,69.262 C2539.3945,69.262 2541.1865,69.71 2543.4265,70.606 C2545.4425,71.502 2547.6825,72.846 2550.1465,74.19 C2552.3865,75.758 2554.8505,77.326 2557.0905,78.894 C2559.1065,80.462 2561.1225,81.806 2563.3625,83.15 C2565.3785,81.806 2567.3945,80.462 2569.6345,78.894 C2571.8745,77.326 2574.1145,75.758 2576.5785,74.19 C2578.8185,72.846 2581.2825,71.502 2583.5225,70.606 C2585.5385,69.71 2587.3305,69.262 2589.1225,69.262 Z M2585.35076,55.3417432 L2576.64551,65.6038445 L2575.5565,64.164 L2564.06319,71.9980409 L2563.48809,72.3900057 L2562.92076,71.9868719 L2551.57489,63.9253517 C2550.82401,64.5938437 2549.83443,65 2548.75,65 C2546.40279,65 2544.5,63.0972102 2544.5,60.75 C2544.5,58.4027898 2546.40279,56.5 2548.75,56.5 C2551.09721,56.5 2553,58.4027898 2553,60.75 C2553,61.2899034 2552.89933,61.806293 2552.71573,62.2814204 L2563.512,69.953 L2574.3495,62.567 L2573.40575,61.3197489 L2585.35076,55.3417432 Z M2548.75,57.5 C2546.95507,57.5 2545.5,58.9550746 2545.5,60.75 C2545.5,62.5449254 2546.95507,64 2548.75,64 C2550.54493,64 2552,62.5449254 2552,60.75 C2552,58.9550746 2550.54493,57.5 2548.75,57.5 Z M2563.2835,40.235 C2563.9855,40.235 2564.6605,40.37 2565.2815,40.64 C2565.9025,40.91 2566.4425,41.261 2566.9015,41.693 C2567.3335,42.152 2567.6845,42.665 2567.9545,43.205 C2568.1975,43.772 2568.3325,44.339 2568.3325,44.906 C2568.3325,46.013 2568.1435,47.039 2567.7655,48.011 C2567.3605,49.01 2566.7665,49.874 2566.0105,50.63 C2565.3895,51.224 2564.7955,51.791 2564.2015,52.385 L2562.3925,54.14 L2561.2855,55.193 C2560.8805,55.571 2560.3675,56.03 2559.7465,56.543 C2560.6375,56.435 2561.3935,56.381 2561.9875,56.327 C2562.5815,56.3 2563.1485,56.273 2563.6885,56.219 C2564.2555,56.192 2564.8495,56.165 2565.4975,56.165 C2566.1185,56.165 2566.7125,56.111 2567.3065,56.057 L2567.6845,56.003 L2568.0625,55.922 C2568.2785,55.868 2568.5215,55.841 2568.7645,55.841 C2569.0885,55.841 2569.3585,56.003 2569.6015,56.327 C2569.8445,56.651 2569.9795,56.975 2569.9795,57.353 C2569.9795,57.596 2569.8715,57.785 2569.7095,57.893 C2569.5475,58.055 2569.3855,58.109 2569.2235,58.109 C2568.6295,58.109 2568.0625,58.082 2567.4955,57.974 C2566.9015,57.893 2566.3075,57.839 2565.7405,57.839 C2564.7145,57.839 2563.6615,57.893 2562.5815,58.001 C2561.4745,58.109 2560.4215,58.217 2559.3955,58.352 C2559.2605,58.379 2559.1255,58.406 2559.0175,58.433 C2558.8825,58.46 2558.7475,58.487 2558.6125,58.514 C2558.3425,58.568 2558.0995,58.595 2557.8835,58.595 C2557.5325,58.595 2557.2355,58.514 2556.9655,58.298 C2556.6685,58.109 2556.5335,57.812 2556.5335,57.434 C2556.5335,57.191 2556.5875,56.975 2556.6955,56.759 C2556.8035,56.597 2556.9655,56.408 2557.1545,56.219 C2557.3705,56.003 2557.5595,55.787 2557.7755,55.571 C2557.9915,55.355 2558.2075,55.166 2558.4775,54.95 C2559.3955,54.221 2560.2865,53.465 2561.1235,52.655 L2563.6885,50.252 C2564.0125,49.928 2564.3635,49.577 2564.6875,49.199 C2564.9845,48.848 2565.2545,48.47 2565.4975,48.038 C2565.7405,47.633 2565.9295,47.201 2566.0915,46.715 C2566.2535,46.256 2566.3345,45.77 2566.3345,45.23 C2566.3345,44.798 2566.2535,44.393 2566.0915,43.988 C2565.9295,43.61 2565.7135,43.259 2565.4435,42.935 C2565.1465,42.638 2564.8225,42.395 2564.4445,42.206 C2564.0665,42.044 2563.6345,41.936 2563.2025,41.936 C2562.3925,41.936 2561.7445,42.125 2561.2855,42.476 C2560.7995,42.854 2560.3675,43.34 2559.9895,43.988 C2559.8815,44.15 2559.8275,44.285 2559.7735,44.447 C2559.7195,44.609 2559.6385,44.771 2559.5845,44.906 C2559.5035,45.068 2559.4225,45.23 2559.3415,45.365 C2559.2605,45.527 2559.1795,45.662 2559.1255,45.743 C2558.9635,45.905 2558.8285,46.04 2558.7205,46.121 C2558.5855,46.229 2558.4235,46.256 2558.2345,46.256 C2557.9645,46.256 2557.7215,46.148 2557.4785,45.905 C2557.2085,45.689 2557.1005,45.446 2557.1005,45.122 C2557.1005,44.879 2557.1545,44.582 2557.2895,44.258 C2557.3975,43.934 2557.5595,43.61 2557.7485,43.286 C2557.9105,42.962 2558.1265,42.665 2558.3425,42.368 C2558.5585,42.098 2558.7475,41.855 2558.9635,41.693 C2559.5575,41.18 2560.2325,40.802 2560.9885,40.559 C2561.7445,40.343 2562.5005,40.235 2563.2835,40.235 Z" transform="translate(-2531.5)"/></svg>