<svg xmlns="http://www.w3.org/2000/svg" width="64" height="203" viewBox="0 0 64 203"><path fill="#131313" d="M2555.5335,165.255234 C2555.5335,149.832057 2555.5335,126.697292 2555.5335,95.8509375 C2555.5335,93.6048437 2556.35707,91.6582292 2558.0042,90.0110937 C2559.5016,88.5136979 2561.37334,87.765 2563.61944,87.765 C2565.86553,87.765 2567.81215,88.5136979 2569.45928,90.0110937 C2571.10642,91.6582292 2571.92998,93.6048437 2571.92998,95.8509375 C2571.92998,111.274115 2571.92998,134.40888 2571.92998,165.255234 C2571.92998,167.501328 2571.10642,169.447943 2569.45928,171.095078 C2567.81215,172.592474 2565.86553,173.341172 2563.61944,173.341172 C2561.37334,173.341172 2559.5016,172.592474 2558.0042,171.095078 C2556.35707,169.447943 2555.5335,167.501328 2555.5335,165.255234 Z M2540.75,93.03 C2543.09721,93.03 2545,94.9327898 2545,97.28 C2545,99.2034491 2543.72224,100.828462 2541.96925,101.352523 L2541.96875,148.368516 L2543.99023,148.368516 C2542.64258,153.90888 2541.5944,158.101589 2540.8457,160.946641 C2539.34831,155.406276 2538.22526,151.213568 2537.47656,148.368516 L2539.49805,148.368516 L2539.49768,101.342487 C2537.76171,100.807975 2536.5,99.1913312 2536.5,97.28 C2536.5,94.9327898 2538.40279,93.03 2540.75,93.03 Z M2540.75,94.03 C2538.95507,94.03 2537.5,95.4850746 2537.5,97.28 C2537.5,99.0749254 2538.95507,100.53 2540.75,100.53 C2542.54493,100.53 2544,99.0749254 2544,97.28 C2544,95.4850746 2542.54493,94.03 2540.75,94.03 Z M2528.8755,100.215 C2528.8755,99.864 2528.7675,99.594 2528.5515,99.432 C2528.3085,99.27 2528.0115,99.162 2527.6335,99.162 C2527.4715,99.162 2527.3365,99.243 2527.1745,99.351 C2527.0125,99.486 2526.8775,99.594 2526.7965,99.675 C2526.5805,99.891 2526.4185,100.08 2526.2835,100.296 C2526.1215,100.512 2525.9325,100.728 2525.7705,100.917 C2525.2575,101.511 2524.7175,102.159 2524.1235,102.807 C2523.5025,103.482 2522.9085,104.076 2522.3415,104.616 C2522.2875,104.67 2522.2065,104.724 2522.1525,104.778 L2521.9365,104.886 C2521.8555,104.94 2521.7745,104.967 2521.7205,105.021 L2521.4775,105.183 C2521.3425,105.291 2521.2345,105.372 2521.1535,105.453 C2521.0455,105.561 2521.0185,105.642 2521.0185,105.723 C2521.0185,106.047 2521.1535,106.29 2521.4775,106.479 C2521.7475,106.695 2522.0715,106.776 2522.3955,106.776 C2522.6385,106.776 2522.8545,106.722 2523.0705,106.614 C2523.2595,106.506 2523.4485,106.344 2523.6645,106.128 C2523.7995,105.966 2523.9615,105.777 2524.1775,105.534 L2524.7175,104.94 C2524.8525,104.805 2525.0685,104.589 2525.3385,104.292 C2525.6085,103.995 2525.9055,103.644 2526.2835,103.239 C2526.2025,103.671 2526.1215,104.184 2526.0675,104.778 C2525.9595,105.372 2525.8785,105.966 2525.7975,106.614 L2525.5815,108.531 C2525.5275,109.179 2525.4735,109.8 2525.4465,110.34 C2525.3925,111.366 2525.3385,112.392 2525.3115,113.418 C2525.2575,114.444 2525.2305,115.335 2525.2305,116.091 C2525.2305,116.523 2525.3385,116.847 2525.5815,117.09 C2525.8245,117.36 2526.1485,117.468 2526.5805,117.468 C2526.7965,117.468 2527.0395,117.414 2527.3095,117.306 C2527.5255,117.198 2527.6605,117.063 2527.6605,116.901 C2527.6605,116.82 2527.6335,116.658 2527.6335,116.388 C2527.5795,116.145 2527.5525,115.848 2527.5255,115.524 C2527.4715,115.227 2527.4175,114.903 2527.4175,114.552 C2527.3635,114.201 2527.3635,113.877 2527.3635,113.607 C2527.3635,111.717 2527.4175,109.827 2527.5795,107.91 C2527.7415,106.02 2528.0385,104.13 2528.5245,102.267 C2528.5515,102.105 2528.6055,101.943 2528.6595,101.754 L2528.7675,101.241 L2528.8485,100.728 C2528.8485,100.566 2528.8755,100.404 2528.8755,100.215 Z M2589.1225,40.027 C2591.3625,40.027 2592.7065,40.923 2592.7065,42.491 C2592.7065,44.283 2591.3625,46.747 2589.1225,49.883 C2586.6585,53.019 2583.7465,56.155 2580.6105,59.067 C2577.2505,62.203 2574.1145,64.891 2570.9785,67.131 C2567.6185,69.371 2565.1545,70.491 2563.3625,70.491 C2561.5705,70.491 2558.8825,69.371 2555.7465,67.131 C2552.6105,64.891 2549.2505,62.203 2546.1145,59.067 C2542.7545,56.155 2539.8425,53.019 2537.6025,49.883 C2535.1385,46.747 2534.0185,44.283 2534.0185,42.491 C2534.0185,40.923 2535.1385,40.027 2537.8265,40.027 C2539.3945,40.027 2541.1865,40.475 2543.4265,41.371 C2545.4425,42.267 2547.6825,43.611 2550.1465,44.955 C2552.3865,46.523 2554.8505,48.091 2557.0905,49.659 C2559.1065,51.227 2561.1225,52.571 2563.3625,53.915 C2565.3785,52.571 2567.3945,51.227 2569.6345,49.659 C2571.8745,48.091 2574.1145,46.523 2576.5785,44.955 C2578.8185,43.611 2581.2825,42.267 2583.5225,41.371 C2585.5385,40.475 2587.3305,40.027 2589.1225,40.027 Z M2585.35076,26.1067432 L2576.64551,36.3688445 L2575.5565,34.929 L2564.06319,42.7630409 L2563.48809,43.1550057 L2562.92076,42.7518719 L2551.57489,34.6903517 C2550.82401,35.3588437 2549.83443,35.765 2548.75,35.765 C2546.40279,35.765 2544.5,33.8622102 2544.5,31.515 C2544.5,29.1677898 2546.40279,27.265 2548.75,27.265 C2551.09721,27.265 2553,29.1677898 2553,31.515 C2553,32.0549034 2552.89933,32.571293 2552.71573,33.0464204 L2563.512,40.718 L2574.3495,33.332 L2573.40575,32.0847489 L2585.35076,26.1067432 Z M2548.75,28.265 C2546.95507,28.265 2545.5,29.7200746 2545.5,31.515 C2545.5,33.3099254 2546.95507,34.765 2548.75,34.765 C2550.54493,34.765 2552,33.3099254 2552,31.515 C2552,29.7200746 2550.54493,28.265 2548.75,28.265 Z M2563.2835,11 C2563.9855,11 2564.6605,11.135 2565.2815,11.405 C2565.9025,11.675 2566.4425,12.026 2566.9015,12.458 C2567.3335,12.917 2567.6845,13.43 2567.9545,13.97 C2568.1975,14.537 2568.3325,15.104 2568.3325,15.671 C2568.3325,16.778 2568.1435,17.804 2567.7655,18.776 C2567.3605,19.775 2566.7665,20.639 2566.0105,21.395 C2565.3895,21.989 2564.7955,22.556 2564.2015,23.15 L2562.3925,24.905 L2561.2855,25.958 C2560.8805,26.336 2560.3675,26.795 2559.7465,27.308 C2560.6375,27.2 2561.3935,27.146 2561.9875,27.092 C2562.5815,27.065 2563.1485,27.038 2563.6885,26.984 C2564.2555,26.957 2564.8495,26.93 2565.4975,26.93 C2566.1185,26.93 2566.7125,26.876 2567.3065,26.822 L2567.6845,26.768 L2568.0625,26.687 C2568.2785,26.633 2568.5215,26.606 2568.7645,26.606 C2569.0885,26.606 2569.3585,26.768 2569.6015,27.092 C2569.8445,27.416 2569.9795,27.74 2569.9795,28.118 C2569.9795,28.361 2569.8715,28.55 2569.7095,28.658 C2569.5475,28.82 2569.3855,28.874 2569.2235,28.874 C2568.6295,28.874 2568.0625,28.847 2567.4955,28.739 C2566.9015,28.658 2566.3075,28.604 2565.7405,28.604 C2564.7145,28.604 2563.6615,28.658 2562.5815,28.766 C2561.4745,28.874 2560.4215,28.982 2559.3955,29.117 C2559.2605,29.144 2559.1255,29.171 2559.0175,29.198 C2558.8825,29.225 2558.7475,29.252 2558.6125,29.279 C2558.3425,29.333 2558.0995,29.36 2557.8835,29.36 C2557.5325,29.36 2557.2355,29.279 2556.9655,29.063 C2556.6685,28.874 2556.5335,28.577 2556.5335,28.199 C2556.5335,27.956 2556.5875,27.74 2556.6955,27.524 C2556.8035,27.362 2556.9655,27.173 2557.1545,26.984 C2557.3705,26.768 2557.5595,26.552 2557.7755,26.336 C2557.9915,26.12 2558.2075,25.931 2558.4775,25.715 C2559.3955,24.986 2560.2865,24.23 2561.1235,23.42 L2563.6885,21.017 C2564.0125,20.693 2564.3635,20.342 2564.6875,19.964 C2564.9845,19.613 2565.2545,19.235 2565.4975,18.803 C2565.7405,18.398 2565.9295,17.966 2566.0915,17.48 C2566.2535,17.021 2566.3345,16.535 2566.3345,15.995 C2566.3345,15.563 2566.2535,15.158 2566.0915,14.753 C2565.9295,14.375 2565.7135,14.024 2565.4435,13.7 C2565.1465,13.403 2564.8225,13.16 2564.4445,12.971 C2564.0665,12.809 2563.6345,12.701 2563.2025,12.701 C2562.3925,12.701 2561.7445,12.89 2561.2855,13.241 C2560.7995,13.619 2560.3675,14.105 2559.9895,14.753 C2559.8815,14.915 2559.8275,15.05 2559.7735,15.212 C2559.7195,15.374 2559.6385,15.536 2559.5845,15.671 C2559.5035,15.833 2559.4225,15.995 2559.3415,16.13 C2559.2605,16.292 2559.1795,16.427 2559.1255,16.508 C2558.9635,16.67 2558.8285,16.805 2558.7205,16.886 C2558.5855,16.994 2558.4235,17.021 2558.2345,17.021 C2557.9645,17.021 2557.7215,16.913 2557.4785,16.67 C2557.2085,16.454 2557.1005,16.211 2557.1005,15.887 C2557.1005,15.644 2557.1545,15.347 2557.2895,15.023 C2557.3975,14.699 2557.5595,14.375 2557.7485,14.051 C2557.9105,13.727 2558.1265,13.43 2558.3425,13.133 C2558.5585,12.863 2558.7475,12.62 2558.9635,12.458 C2559.5575,11.945 2560.2325,11.567 2560.9885,11.324 C2561.7445,11.108 2562.5005,11 2563.2835,11 Z" transform="translate(-2531.5 -31.765)"/></svg>