<svg xmlns="http://www.w3.org/2000/svg" width="103" height="203" viewBox="0 0 103 203"><path fill="#131313" d="M1151.87891,85.765 C1164.00781,85.765 1173.81576,89.8079688 1181.30273,97.8939062 C1188.78971,105.979844 1192.5332,116.611354 1192.5332,129.788438 C1192.5332,142.666042 1188.71484,153.222682 1181.07812,161.458359 C1173.59115,169.544297 1163.85807,173.587266 1151.87891,173.587266 C1139.89974,173.587266 1130.0918,169.544297 1122.45508,161.458359 C1114.81836,153.222682 1111,142.666042 1111,129.788438 C1111,116.611354 1114.74349,105.979844 1122.23047,97.8939062 C1129.71745,89.8079688 1139.60026,85.765 1151.87891,85.765 Z M1151.48242,101.765 C1143.69596,101.765 1137.70638,104.235703 1133.51367,109.177109 C1129.17122,114.118516 1127,120.931667 1127,129.616563 C1127,136.205104 1128.79687,142.494167 1132.39062,148.48375 C1135.98437,154.323594 1142.34831,157.243516 1151.48242,157.243516 C1160.4668,157.243516 1166.75586,154.323594 1170.34961,148.48375 C1173.94336,142.494167 1175.74023,136.205104 1175.74023,129.616563 C1175.74023,120.931667 1173.64388,114.118516 1169.45117,109.177109 C1165.10872,104.235703 1159.11914,101.765 1151.48242,101.765 Z M1166.90625,76.6048438 C1169.90104,77.2038021 1172.74609,78.1022396 1175.44141,79.3001563 C1178.28646,80.4980729 1180.9069,81.920599 1183.30273,83.5677344 C1184.20117,82.8190365 1185.24935,82.4446875 1186.44727,82.4446875 C1187.64518,82.4446875 1188.76823,82.8190365 1189.81641,83.5677344 C1190.71484,84.4661719 1191.23893,85.5892187 1191.38867,86.936875 C1191.38867,88.2845312 1190.93945,89.4824479 1190.04102,90.530625 C1189.14258,91.5788021 1188.01953,92.1028906 1186.67187,92.1028906 C1185.32422,92.2526302 1184.1263,91.8782812 1183.07812,90.9798437 C1182.32943,90.2311458 1181.80534,89.3327083 1181.50586,88.2845312 C1181.35612,87.2363542 1181.50586,86.2630469 1181.95508,85.3646094 C1182.10482,85.2148698 1182.17969,84.9902604 1182.17969,84.6907813 C1182.17969,84.8405208 1182.10482,85.0651302 1181.95508,85.3646094 C1179.70898,83.8672135 1177.31315,82.5944271 1174.76758,81.54625 C1172.22201,80.4980729 1169.52669,79.5996354 1166.68164,78.8509375 L1166.72062,78.5724961 C1166.84437,77.6691086 1166.90625,77.0132244 1166.90625,76.6048438 Z M1190.71484,87.1614844 L1190.70911,87.4147429 C1190.65946,88.497299 1190.28702,89.3861868 1189.5918,90.0814062 C1190.49023,89.3327083 1190.86458,88.359401 1190.71484,87.1614844 Z M1183.52734,84.0169531 L1183.4375,84.0978125 C1183.31771,84.1936458 1183.19792,84.2415625 1183.07812,84.2415625 C1182.92839,84.5410417 1182.77865,84.765651 1182.62891,84.9153906 C1182.77865,84.765651 1183.00326,84.6159115 1183.30273,84.4661719 C1183.30273,84.3164323 1183.3776,84.1666927 1183.52734,84.0169531 Z M1186.44727,82.8939062 C1185.39909,82.8939062 1184.50065,83.1933854 1183.75195,83.7923437 C1184.56871,83.2478362 1185.44735,82.950832 1186.38786,82.9013314 L1186.569,82.896 L1186.44727,82.8939062 Z M1167.13086,74.35875 C1167.13086,74.8079688 1167.05599,75.5566667 1166.90625,76.6048438 L1166.86727,76.8832851 C1166.74352,77.7866727 1166.68164,78.4425568 1166.68164,78.8509375 C1166.68164,79.3001563 1166.60677,79.9739844 1166.45703,80.8724219 C1163.76172,79.9739844 1159.71875,78.4765885 1154.32812,76.3802344 C1157.17318,75.9310156 1161.44076,75.2571875 1167.13086,74.35875 Z M1186.67187,83.5677344 C1185.77344,83.5677344 1184.94987,83.7923438 1184.20117,84.2415625 C1184.05143,84.2415625 1183.97656,84.3164323 1183.97656,84.4661719 C1183.82682,84.6159115 1183.67708,84.6907813 1183.52734,84.6907813 C1183.3776,84.9902604 1183.22786,85.2148698 1183.07812,85.3646094 C1183.07812,85.4893924 1183.02613,85.6661683 1182.92215,85.8949371 L1182.85352,86.0384375 C1182.70378,86.7871354 1182.70378,87.4609635 1182.85352,88.0599219 C1183.00326,88.8086198 1183.3776,89.4824479 1183.97656,90.0814063 C1184.72526,90.6803646 1185.6237,90.9798438 1186.67187,90.9798438 C1187.72005,90.9798438 1188.54362,90.6054948 1189.14258,89.8567969 C1189.89128,89.108099 1190.26562,88.2096615 1190.26562,87.1614844 C1190.11589,86.1133073 1189.66667,85.2148698 1188.91797,84.4661719 L1188.84934,84.4599327 C1188.74535,84.4391356 1188.69336,84.3663455 1188.69336,84.2415625 L1188.699,84.304 L1188.75714,84.3302971 C1188.76793,84.3353762 1188.77894,84.3406733 1188.79017,84.3461884 L1188.76511,84.3226714 L1188.695,84.264 L1188.699,84.304 L1188.6684,84.2914757 C1188.58521,84.2582002 1188.51866,84.2415625 1188.46875,84.2415625 L1188.667,84.241 L1188.60601,84.1916493 C1188.06529,83.775706 1187.42057,83.5677344 1186.67187,83.5677344 Z M1200.8755,72.215 C1200.8755,71.864 1200.7675,71.594 1200.5515,71.432 C1200.3085,71.27 1200.0115,71.162 1199.6335,71.162 C1199.4715,71.162 1199.3365,71.243 1199.1745,71.351 C1199.0125,71.486 1198.8775,71.594 1198.7965,71.675 C1198.5805,71.891 1198.4185,72.08 1198.2835,72.296 C1198.1215,72.512 1197.9325,72.728 1197.7705,72.917 C1197.2575,73.511 1196.7175,74.159 1196.1235,74.807 C1195.5025,75.482 1194.9085,76.076 1194.3415,76.616 C1194.2875,76.67 1194.2065,76.724 1194.1525,76.778 L1193.9365,76.886 C1193.8555,76.94 1193.7745,76.967 1193.7205,77.021 L1193.4775,77.183 C1193.3425,77.291 1193.2345,77.372 1193.1535,77.453 C1193.0455,77.561 1193.0185,77.642 1193.0185,77.723 C1193.0185,78.047 1193.1535,78.29 1193.4775,78.479 C1193.7475,78.695 1194.0715,78.776 1194.3955,78.776 C1194.6385,78.776 1194.8545,78.722 1195.0705,78.614 C1195.2595,78.506 1195.4485,78.344 1195.6645,78.128 C1195.7995,77.966 1195.9615,77.777 1196.1775,77.534 L1196.7175,76.94 C1196.8525,76.805 1197.0685,76.589 1197.3385,76.292 C1197.6085,75.995 1197.9055,75.644 1198.2835,75.239 C1198.2025,75.671 1198.1215,76.184 1198.0675,76.778 C1197.9595,77.372 1197.8785,77.966 1197.7975,78.614 L1197.5815,80.531 C1197.5275,81.179 1197.4735,81.8 1197.4465,82.34 C1197.3925,83.366 1197.3385,84.392 1197.3115,85.418 C1197.2575,86.444 1197.2305,87.335 1197.2305,88.091 C1197.2305,88.523 1197.3385,88.847 1197.5815,89.09 C1197.8245,89.36 1198.1485,89.468 1198.5805,89.468 C1198.7965,89.468 1199.0395,89.414 1199.3095,89.306 C1199.5255,89.198 1199.6605,89.063 1199.6605,88.901 C1199.6605,88.82 1199.6335,88.658 1199.6335,88.388 C1199.5795,88.145 1199.5525,87.848 1199.5255,87.524 C1199.4715,87.227 1199.4175,86.903 1199.4175,86.552 C1199.3635,86.201 1199.3635,85.877 1199.3635,85.607 C1199.3635,83.717 1199.4175,81.827 1199.5795,79.91 C1199.7415,78.02 1200.0385,76.13 1200.5245,74.267 C1200.5515,74.105 1200.6055,73.943 1200.6595,73.754 L1200.7675,73.241 L1200.8485,72.728 C1200.8485,72.566 1200.8755,72.404 1200.8755,72.215 Z M1177.1225,40.027 C1179.3625,40.027 1180.7065,40.923 1180.7065,42.491 C1180.7065,44.283 1179.3625,46.747 1177.1225,49.883 C1174.6585,53.019 1171.7465,56.155 1168.6105,59.067 C1165.2505,62.203 1162.1145,64.891 1158.9785,67.131 C1155.6185,69.371 1153.1545,70.491 1151.3625,70.491 C1149.5705,70.491 1146.8825,69.371 1143.7465,67.131 C1140.6105,64.891 1137.2505,62.203 1134.1145,59.067 C1130.7545,56.155 1127.8425,53.019 1125.6025,49.883 C1123.1385,46.747 1122.0185,44.283 1122.0185,42.491 C1122.0185,40.923 1123.1385,40.027 1125.8265,40.027 C1127.3945,40.027 1129.1865,40.475 1131.4265,41.371 C1133.4425,42.267 1135.6825,43.611 1138.1465,44.955 C1140.3865,46.523 1142.8505,48.091 1145.0905,49.659 C1147.1065,51.227 1149.1225,52.571 1151.3625,53.915 C1153.3785,52.571 1155.3945,51.227 1157.6345,49.659 C1159.8745,48.091 1162.1145,46.523 1164.5785,44.955 C1166.8185,43.611 1169.2825,42.267 1171.5225,41.371 C1173.5385,40.475 1175.3305,40.027 1177.1225,40.027 Z M1173.35076,26.1067432 L1164.64551,36.3688445 L1163.556,34.929 L1152.06319,42.7630409 L1151.48809,43.1550057 L1150.92076,42.7518719 L1139.57518,34.6900949 C1138.82426,35.3587397 1137.83457,35.765 1136.75,35.765 C1134.40279,35.765 1132.5,33.8622102 1132.5,31.515 C1132.5,29.1677898 1134.40279,27.265 1136.75,27.265 C1139.09721,27.265 1141,29.1677898 1141,31.515 C1141,32.0545282 1140.89947,32.5705753 1140.71611,33.0454298 L1151.512,40.718 L1162.349,33.332 L1161.40575,32.0847489 L1173.35076,26.1067432 Z M1136.75,28.265 C1134.95507,28.265 1133.5,29.7200746 1133.5,31.515 C1133.5,33.3099254 1134.95507,34.765 1136.75,34.765 C1138.54493,34.765 1140,33.3099254 1140,31.515 C1140,29.7200746 1138.54493,28.265 1136.75,28.265 Z M1121.2835,11 C1121.9855,11 1122.6605,11.135 1123.2815,11.405 C1123.9025,11.675 1124.4425,12.026 1124.9015,12.458 C1125.3335,12.917 1125.6845,13.43 1125.9545,13.97 C1126.1975,14.537 1126.3325,15.104 1126.3325,15.671 C1126.3325,16.778 1126.1435,17.804 1125.7655,18.776 C1125.3605,19.775 1124.7665,20.639 1124.0105,21.395 C1123.3895,21.989 1122.7955,22.556 1122.2015,23.15 L1120.3925,24.905 L1119.2855,25.958 C1118.8805,26.336 1118.3675,26.795 1117.7465,27.308 C1118.6375,27.2 1119.3935,27.146 1119.9875,27.092 C1120.5815,27.065 1121.1485,27.038 1121.6885,26.984 C1122.2555,26.957 1122.8495,26.93 1123.4975,26.93 C1124.1185,26.93 1124.7125,26.876 1125.3065,26.822 L1125.6845,26.768 L1126.0625,26.687 C1126.2785,26.633 1126.5215,26.606 1126.7645,26.606 C1127.0885,26.606 1127.3585,26.768 1127.6015,27.092 C1127.8445,27.416 1127.9795,27.74 1127.9795,28.118 C1127.9795,28.361 1127.8715,28.55 1127.7095,28.658 C1127.5475,28.82 1127.3855,28.874 1127.2235,28.874 C1126.6295,28.874 1126.0625,28.847 1125.4955,28.739 C1124.9015,28.658 1124.3075,28.604 1123.7405,28.604 C1122.7145,28.604 1121.6615,28.658 1120.5815,28.766 C1119.4745,28.874 1118.4215,28.982 1117.3955,29.117 C1117.2605,29.144 1117.1255,29.171 1117.0175,29.198 C1116.8825,29.225 1116.7475,29.252 1116.6125,29.279 C1116.3425,29.333 1116.0995,29.36 1115.8835,29.36 C1115.5325,29.36 1115.2355,29.279 1114.9655,29.063 C1114.6685,28.874 1114.5335,28.577 1114.5335,28.199 C1114.5335,27.956 1114.5875,27.74 1114.6955,27.524 C1114.8035,27.362 1114.9655,27.173 1115.1545,26.984 C1115.3705,26.768 1115.5595,26.552 1115.7755,26.336 C1115.9915,26.12 1116.2075,25.931 1116.4775,25.715 C1117.3955,24.986 1118.2865,24.23 1119.1235,23.42 L1121.6885,21.017 C1122.0125,20.693 1122.3635,20.342 1122.6875,19.964 C1122.9845,19.613 1123.2545,19.235 1123.4975,18.803 C1123.7405,18.398 1123.9295,17.966 1124.0915,17.48 C1124.2535,17.021 1124.3345,16.535 1124.3345,15.995 C1124.3345,15.563 1124.2535,15.158 1124.0915,14.753 C1123.9295,14.375 1123.7135,14.024 1123.4435,13.7 C1123.1465,13.403 1122.8225,13.16 1122.4445,12.971 C1122.0665,12.809 1121.6345,12.701 1121.2025,12.701 C1120.3925,12.701 1119.7445,12.89 1119.2855,13.241 C1118.7995,13.619 1118.3675,14.105 1117.9895,14.753 C1117.8815,14.915 1117.8275,15.05 1117.7735,15.212 C1117.7195,15.374 1117.6385,15.536 1117.5845,15.671 C1117.5035,15.833 1117.4225,15.995 1117.3415,16.13 C1117.2605,16.292 1117.1795,16.427 1117.1255,16.508 C1116.9635,16.67 1116.8285,16.805 1116.7205,16.886 C1116.5855,16.994 1116.4235,17.021 1116.2345,17.021 C1115.9645,17.021 1115.7215,16.913 1115.4785,16.67 C1115.2085,16.454 1115.1005,16.211 1115.1005,15.887 C1115.1005,15.644 1115.1545,15.347 1115.2895,15.023 C1115.3975,14.699 1115.5595,14.375 1115.7485,14.051 C1115.9105,13.727 1116.1265,13.43 1116.3425,13.133 C1116.5585,12.863 1116.7475,12.62 1116.9635,12.458 C1117.5575,11.945 1118.2325,11.567 1118.9885,11.324 C1119.7445,11.108 1120.5005,11 1121.2835,11 Z" transform="translate(-1100 -31.765)"/></svg>