<svg xmlns="http://www.w3.org/2000/svg" width="103" height="243" viewBox="0 0 103 243"><path fill="#131313" d="M51.8789063,78 C64.0078125,78 73.8157552,82.0429688 81.3027344,90.1289062 C88.7897135,98.2148437 92.5332031,108.846354 92.5332031,122.023438 C92.5332031,134.901042 88.7148438,145.457682 81.078125,153.693359 C73.5911458,161.779297 63.8580729,165.822266 51.8789063,165.822266 C39.8997396,165.822266 30.0917969,161.779297 22.4550781,153.693359 C14.8183594,145.457682 11,134.901042 11,122.023438 C11,108.846354 14.7434896,98.2148437 22.2304688,90.1289062 C29.7174479,82.0429688 39.6002604,78 51.8789063,78 Z M51.4824219,94 C43.6959635,94 37.7063802,96.4707031 33.5136719,101.412109 C29.171224,106.353516 27,113.166667 27,121.851563 C27,128.440104 28.796875,134.729167 32.390625,140.71875 C35.984375,146.558594 42.3483073,149.478516 51.4824219,149.478516 C60.4667969,149.478516 66.7558594,146.558594 70.3496094,140.71875 C73.9433594,134.729167 75.7402344,128.440104 75.7402344,121.851563 C75.7402344,113.166667 73.6438802,106.353516 69.4511719,101.412109 C65.108724,96.4707031 59.1191406,94 51.4824219,94 Z M66.90625,68.8398438 C69.9010417,69.4388021 72.7460938,70.3372396 75.4414062,71.5351563 C78.2864583,72.7330729 80.906901,74.155599 83.3027344,75.8027344 C84.2011719,75.0540365 85.249349,74.6796875 86.4472656,74.6796875 C87.6451823,74.6796875 88.7682292,75.0540365 89.8164062,75.8027344 C90.7148438,76.7011719 91.2389323,77.8242188 91.3886719,79.171875 C91.3886719,80.5195312 90.9394531,81.7174479 90.0410156,82.765625 C89.1425781,83.8138021 88.0195312,84.3378906 86.671875,84.3378906 C85.3242188,84.4876302 84.1263021,84.1132812 83.078125,83.2148438 C82.3294271,82.4661458 81.8053385,81.5677083 81.5058594,80.5195312 C81.3561198,79.4713542 81.5058594,78.4980469 81.9550781,77.5996094 C82.1048177,77.4498698 82.1796875,77.2252604 82.1796875,76.9257813 C82.1796875,77.0755208 82.1048177,77.3001302 81.9550781,77.5996094 C79.7089844,76.1022135 77.313151,74.8294271 74.7675781,73.78125 C72.2220052,72.7330729 69.5266927,71.8346354 66.6816406,71.0859375 L66.7206224,70.8074961 C66.8443741,69.9041086 66.90625,69.2482244 66.90625,68.8398438 Z M90.7148437,79.3964844 L90.7091139,79.6497429 C90.6594554,80.732299 90.2870164,81.6211868 89.5917969,82.3164062 C90.4902344,81.5677083 90.8645833,80.594401 90.7148437,79.3964844 Z M83.5273438,76.2519531 L83.4375,76.3328125 C83.3177083,76.4286458 83.1979167,76.4765625 83.078125,76.4765625 C82.9283854,76.7760417 82.7786458,77.000651 82.6289062,77.1503906 C82.7786458,77.000651 83.0032552,76.8509115 83.3027344,76.7011719 C83.3027344,76.5514323 83.3776042,76.4016927 83.5273438,76.2519531 Z M86.4472656,75.1289062 C85.3990885,75.1289062 84.500651,75.4283854 83.7519531,76.0273438 C84.5687145,75.4828362 85.4473517,75.185832 86.3878648,75.1363314 L86.569,75.131 L86.4472656,75.1289062 Z M67.1308594,66.59375 C67.1308594,67.0429688 67.0559896,67.7916667 66.90625,68.8398438 L66.8672682,69.1182851 C66.7435165,70.0216727 66.6816406,70.6775568 66.6816406,71.0859375 C66.6816406,71.5351563 66.6067708,72.2089844 66.4570312,73.1074219 C63.7617188,72.2089844 59.71875,70.7115885 54.328125,68.6152344 C57.1731771,68.1660156 61.4407552,67.4921875 67.1308594,66.59375 Z M86.671875,75.8027344 C85.7734375,75.8027344 84.9498698,76.0273438 84.2011719,76.4765625 C84.0514323,76.4765625 83.9765625,76.5514323 83.9765625,76.7011719 C83.8268229,76.8509115 83.6770833,76.9257813 83.5273438,76.9257813 C83.3776042,77.2252604 83.2278646,77.4498698 83.078125,77.5996094 C83.078125,77.7243924 83.0261321,77.9011683 82.9221463,78.1299371 L82.8535156,78.2734375 C82.703776,79.0221354 82.703776,79.6959635 82.8535156,80.2949219 C83.0032552,81.0436198 83.3776042,81.7174479 83.9765625,82.3164063 C84.7252604,82.9153646 85.6236979,83.2148438 86.671875,83.2148438 C87.7200521,83.2148438 88.5436198,82.8404948 89.1425781,82.0917969 C89.891276,81.343099 90.265625,80.4446615 90.265625,79.3964844 C90.1158854,78.3483073 89.6666667,77.4498698 88.9179687,76.7011719 L88.8493381,76.6949327 C88.7453523,76.6741356 88.6933594,76.6013455 88.6933594,76.4765625 L88.699,76.539 L88.7571373,76.5652971 C88.7679304,76.5703762 88.7789415,76.5756733 88.7901706,76.5811884 L88.7651096,76.5576714 L88.695,76.499 L88.699,76.539 L88.6684028,76.5264757 C88.5852141,76.4932002 88.5186632,76.4765625 88.46875,76.4765625 L88.667,76.476 L88.6060113,76.4266493 C88.065285,76.010706 87.4205729,75.8027344 86.671875,75.8027344 Z M100.8755,64.45 C100.8755,64.099 100.7675,63.829 100.5515,63.667 C100.3085,63.505 100.0115,63.397 99.6335,63.397 C99.4715,63.397 99.3365,63.478 99.1745,63.586 C99.0125,63.721 98.8775,63.829 98.7965,63.91 C98.5805,64.126 98.4185,64.315 98.2835,64.531 C98.1215,64.747 97.9325,64.963 97.7705,65.152 C97.2575,65.746 96.7175,66.394 96.1235,67.042 C95.5025,67.717 94.9085,68.311 94.3415,68.851 C94.2875,68.905 94.2065,68.959 94.1525,69.013 L93.9365,69.121 C93.8555,69.175 93.7745,69.202 93.7205,69.256 L93.4775,69.418 C93.3425,69.526 93.2345,69.607 93.1535,69.688 C93.0455,69.796 93.0185,69.877 93.0185,69.958 C93.0185,70.282 93.1535,70.525 93.4775,70.714 C93.7475,70.93 94.0715,71.011 94.3955,71.011 C94.6385,71.011 94.8545,70.957 95.0705,70.849 C95.2595,70.741 95.4485,70.579 95.6645,70.363 C95.7995,70.201 95.9615,70.012 96.1775,69.769 L96.7175,69.175 C96.8525,69.04 97.0685,68.824 97.3385,68.527 C97.6085,68.23 97.9055,67.879 98.2835,67.474 C98.2025,67.906 98.1215,68.419 98.0675,69.013 C97.9595,69.607 97.8785,70.201 97.7975,70.849 L97.5815,72.766 C97.5275,73.414 97.4735,74.035 97.4465,74.575 C97.3925,75.601 97.3385,76.627 97.3115,77.653 C97.2575,78.679 97.2305,79.57 97.2305,80.326 C97.2305,80.758 97.3385,81.082 97.5815,81.325 C97.8245,81.595 98.1485,81.703 98.5805,81.703 C98.7965,81.703 99.0395,81.649 99.3095,81.541 C99.5255,81.433 99.6605,81.298 99.6605,81.136 C99.6605,81.055 99.6335,80.893 99.6335,80.623 C99.5795,80.38 99.5525,80.083 99.5255,79.759 C99.4715,79.462 99.4175,79.138 99.4175,78.787 C99.3635,78.436 99.3635,78.112 99.3635,77.842 C99.3635,75.952 99.4175,74.062 99.5795,72.145 C99.7415,70.255 100.0385,68.365 100.5245,66.502 C100.5515,66.34 100.6055,66.178 100.6595,65.989 L100.7675,65.476 L100.8485,64.963 C100.8485,64.801 100.8755,64.639 100.8755,64.45 Z M77.1225,32.262 C79.3625,32.262 80.7065,33.158 80.7065,34.726 C80.7065,36.518 79.3625,38.982 77.1225,42.118 C74.6585,45.254 71.7465,48.39 68.6105,51.302 C65.2505,54.438 62.1145,57.126 58.9785,59.366 C55.6185,61.606 53.1545,62.726 51.3625,62.726 C49.5705,62.726 46.8825,61.606 43.7465,59.366 C40.6105,57.126 37.2505,54.438 34.1145,51.302 C30.7545,48.39 27.8425,45.254 25.6025,42.118 C23.1385,38.982 22.0185,36.518 22.0185,34.726 C22.0185,33.158 23.1385,32.262 25.8265,32.262 C27.3945,32.262 29.1865,32.71 31.4265,33.606 C33.4425,34.502 35.6825,35.846 38.1465,37.19 C40.3865,38.758 42.8505,40.326 45.0905,41.894 C47.1065,43.462 49.1225,44.806 51.3625,46.15 C53.3785,44.806 55.3945,43.462 57.6345,41.894 C59.8745,40.326 62.1145,38.758 64.5785,37.19 C66.8185,35.846 69.2825,34.502 71.5225,33.606 C73.5385,32.71 75.3305,32.262 77.1225,32.262 Z M73.3507574,18.3417432 L64.6455074,28.6038445 L63.556,27.164 L52.0631902,34.9980409 L51.4880893,35.3900057 L50.9207617,34.9868719 L39.5751815,26.9250949 C38.8242588,27.5937397 37.834573,28 36.75,28 C34.4027898,28 32.5,26.0972102 32.5,23.75 C32.5,21.4027898 34.4027898,19.5 36.75,19.5 C39.0972102,19.5 41,21.4027898 41,23.75 C41,24.2895282 40.8994655,24.8055753 40.716108,25.2804298 L51.512,32.953 L62.349,25.567 L61.4057489,24.3197489 L73.3507574,18.3417432 Z M36.75,20.5 C34.9550746,20.5 33.5,21.9550746 33.5,23.75 C33.5,25.5449254 34.9550746,27 36.75,27 C38.5449254,27 40,25.5449254 40,23.75 C40,21.9550746 38.5449254,20.5 36.75,20.5 Z M21.2835,3.235 C21.9855,3.235 22.6605,3.37 23.2815,3.64 C23.9025,3.91 24.4425,4.261 24.9015,4.693 C25.3335,5.152 25.6845,5.665 25.9545,6.205 C26.1975,6.772 26.3325,7.339 26.3325,7.906 C26.3325,9.013 26.1435,10.039 25.7655,11.011 C25.3605,12.01 24.7665,12.874 24.0105,13.63 C23.3895,14.224 22.7955,14.791 22.2015,15.385 L20.3925,17.14 L19.2855,18.193 C18.8805,18.571 18.3675,19.03 17.7465,19.543 C18.6375,19.435 19.3935,19.381 19.9875,19.327 C20.5815,19.3 21.1485,19.273 21.6885,19.219 C22.2555,19.192 22.8495,19.165 23.4975,19.165 C24.1185,19.165 24.7125,19.111 25.3065,19.057 L25.6845,19.003 L26.0625,18.922 C26.2785,18.868 26.5215,18.841 26.7645,18.841 C27.0885,18.841 27.3585,19.003 27.6015,19.327 C27.8445,19.651 27.9795,19.975 27.9795,20.353 C27.9795,20.596 27.8715,20.785 27.7095,20.893 C27.5475,21.055 27.3855,21.109 27.2235,21.109 C26.6295,21.109 26.0625,21.082 25.4955,20.974 C24.9015,20.893 24.3075,20.839 23.7405,20.839 C22.7145,20.839 21.6615,20.893 20.5815,21.001 C19.4745,21.109 18.4215,21.217 17.3955,21.352 C17.2605,21.379 17.1255,21.406 17.0175,21.433 C16.8825,21.46 16.7475,21.487 16.6125,21.514 C16.3425,21.568 16.0995,21.595 15.8835,21.595 C15.5325,21.595 15.2355,21.514 14.9655,21.298 C14.6685,21.109 14.5335,20.812 14.5335,20.434 C14.5335,20.191 14.5875,19.975 14.6955,19.759 C14.8035,19.597 14.9655,19.408 15.1545,19.219 C15.3705,19.003 15.5595,18.787 15.7755,18.571 C15.9915,18.355 16.2075,18.166 16.4775,17.95 C17.3955,17.221 18.2865,16.465 19.1235,15.655 L21.6885,13.252 C22.0125,12.928 22.3635,12.577 22.6875,12.199 C22.9845,11.848 23.2545,11.47 23.4975,11.038 C23.7405,10.633 23.9295,10.201 24.0915,9.715 C24.2535,9.256 24.3345,8.77 24.3345,8.23 C24.3345,7.798 24.2535,7.393 24.0915,6.988 C23.9295,6.61 23.7135,6.259 23.4435,5.935 C23.1465,5.638 22.8225,5.395 22.4445,5.206 C22.0665,5.044 21.6345,4.936 21.2025,4.936 C20.3925,4.936 19.7445,5.125 19.2855,5.476 C18.7995,5.854 18.3675,6.34 17.9895,6.988 C17.8815,7.15 17.8275,7.285 17.7735,7.447 C17.7195,7.609 17.6385,7.771 17.5845,7.906 C17.5035,8.068 17.4225,8.23 17.3415,8.365 C17.2605,8.527 17.1795,8.662 17.1255,8.743 C16.9635,8.905 16.8285,9.04 16.7205,9.121 C16.5855,9.229 16.4235,9.256 16.2345,9.256 C15.9645,9.256 15.7215,9.148 15.4785,8.905 C15.2085,8.689 15.1005,8.446 15.1005,8.122 C15.1005,7.879 15.1545,7.582 15.2895,7.258 C15.3975,6.934 15.5595,6.61 15.7485,6.286 C15.9105,5.962 16.1265,5.665 16.3425,5.368 C16.5585,5.098 16.7475,4.855 16.9635,4.693 C17.5575,4.18 18.2325,3.802 18.9885,3.559 C19.7445,3.343 20.5005,3.235 21.2835,3.235 Z"/></svg>