<svg xmlns="http://www.w3.org/2000/svg" width="103" height="203" viewBox="0 0 103 203"><path fill="#131313" d="M1151.87891,115 C1164.00781,115 1173.81576,119.042969 1181.30273,127.128906 C1188.78971,135.214844 1192.5332,145.846354 1192.5332,159.023438 C1192.5332,171.901042 1188.71484,182.457682 1181.07812,190.693359 C1173.59115,198.779297 1163.85807,202.822266 1151.87891,202.822266 C1139.89974,202.822266 1130.0918,198.779297 1122.45508,190.693359 C1114.81836,182.457682 1111,171.901042 1111,159.023438 C1111,145.846354 1114.74349,135.214844 1122.23047,127.128906 C1129.71745,119.042969 1139.60026,115 1151.87891,115 Z M1151.48242,131 C1143.69596,131 1137.70638,133.470703 1133.51367,138.412109 C1129.17122,143.353516 1127,150.166667 1127,158.851563 C1127,165.440104 1128.79688,171.729167 1132.39062,177.71875 C1135.98438,183.558594 1142.34831,186.478516 1151.48242,186.478516 C1160.4668,186.478516 1166.75586,183.558594 1170.34961,177.71875 C1173.94336,171.729167 1175.74023,165.440104 1175.74023,158.851563 C1175.74023,150.166667 1173.64388,143.353516 1169.45117,138.412109 C1165.10872,133.470703 1159.11914,131 1151.48242,131 Z M1166.90625,105.839844 C1169.90104,106.438802 1172.74609,107.33724 1175.44141,108.535156 C1178.28646,109.733073 1180.9069,111.155599 1183.30273,112.802734 C1184.20117,112.054036 1185.24935,111.679688 1186.44727,111.679688 C1187.64518,111.679688 1188.76823,112.054036 1189.81641,112.802734 C1190.71484,113.701172 1191.23893,114.824219 1191.38867,116.171875 C1191.38867,117.519531 1190.93945,118.717448 1190.04102,119.765625 C1189.14258,120.813802 1188.01953,121.337891 1186.67188,121.337891 C1185.32422,121.48763 1184.1263,121.113281 1183.07812,120.214844 C1182.32943,119.466146 1181.80534,118.567708 1181.50586,117.519531 C1181.35612,116.471354 1181.50586,115.498047 1181.95508,114.599609 C1182.10482,114.44987 1182.17969,114.22526 1182.17969,113.925781 C1182.17969,114.075521 1182.10482,114.30013 1181.95508,114.599609 C1179.70898,113.102214 1177.31315,111.829427 1174.76758,110.78125 C1172.22201,109.733073 1169.52669,108.834635 1166.68164,108.085938 L1166.72062,107.807496 C1166.84437,106.904109 1166.90625,106.248224 1166.90625,105.839844 Z M1190.71484,116.396484 L1190.70911,116.649743 C1190.65946,117.732299 1190.28702,118.621187 1189.5918,119.316406 C1190.49023,118.567708 1190.86458,117.594401 1190.71484,116.396484 Z M1183.52734,113.251953 L1183.4375,113.332813 C1183.31771,113.428646 1183.19792,113.476563 1183.07812,113.476563 C1182.92839,113.776042 1182.77865,114.000651 1182.62891,114.150391 C1182.77865,114.000651 1183.00326,113.850911 1183.30273,113.701172 C1183.30273,113.551432 1183.3776,113.401693 1183.52734,113.251953 Z M1186.44727,112.128906 C1185.39909,112.128906 1184.50065,112.428385 1183.75195,113.027344 C1184.56871,112.482836 1185.44735,112.185832 1186.38786,112.136331 L1186.569,112.131 L1186.44727,112.128906 Z M1167.13086,103.59375 C1167.13086,104.042969 1167.05599,104.791667 1166.90625,105.839844 L1166.86727,106.118285 C1166.74352,107.021673 1166.68164,107.677557 1166.68164,108.085938 C1166.68164,108.535156 1166.60677,109.208984 1166.45703,110.107422 C1163.76172,109.208984 1159.71875,107.711589 1154.32812,105.615234 C1157.17318,105.166016 1161.44076,104.492188 1167.13086,103.59375 Z M1186.67187,112.802734 C1185.77344,112.802734 1184.94987,113.027344 1184.20117,113.476563 C1184.05143,113.476563 1183.97656,113.551432 1183.97656,113.701172 C1183.82682,113.850911 1183.67708,113.925781 1183.52734,113.925781 C1183.3776,114.22526 1183.22786,114.44987 1183.07812,114.599609 C1183.07812,114.724392 1183.02613,114.901168 1182.92215,115.129937 L1182.85352,115.273438 C1182.70378,116.022135 1182.70378,116.695964 1182.85352,117.294922 C1183.00326,118.04362 1183.3776,118.717448 1183.97656,119.316406 C1184.72526,119.915365 1185.6237,120.214844 1186.67187,120.214844 C1187.72005,120.214844 1188.54362,119.840495 1189.14258,119.091797 C1189.89128,118.343099 1190.26562,117.444661 1190.26562,116.396484 C1190.11589,115.348307 1189.66667,114.44987 1188.91797,113.701172 L1188.84934,113.694933 C1188.74535,113.674136 1188.69336,113.601345 1188.69336,113.476563 L1188.699,113.539 L1188.75714,113.565297 C1188.76793,113.570376 1188.77894,113.575673 1188.79017,113.581188 L1188.76511,113.557671 L1188.695,113.499 L1188.699,113.539 L1188.6684,113.526476 C1188.58521,113.4932 1188.51866,113.476563 1188.46875,113.476563 L1188.667,113.476 L1188.60601,113.426649 C1188.06529,113.010706 1187.42057,112.802734 1186.67187,112.802734 Z M1200.8755,101.45 C1200.8755,101.099 1200.7675,100.829 1200.5515,100.667 C1200.3085,100.505 1200.0115,100.397 1199.6335,100.397 C1199.4715,100.397 1199.3365,100.478 1199.1745,100.586 C1199.0125,100.721 1198.8775,100.829 1198.7965,100.91 C1198.5805,101.126 1198.4185,101.315 1198.2835,101.531 C1198.1215,101.747 1197.9325,101.963 1197.7705,102.152 C1197.2575,102.746 1196.7175,103.394 1196.1235,104.042 C1195.5025,104.717 1194.9085,105.311 1194.3415,105.851 C1194.2875,105.905 1194.2065,105.959 1194.1525,106.013 L1193.9365,106.121 C1193.8555,106.175 1193.7745,106.202 1193.7205,106.256 L1193.4775,106.418 C1193.3425,106.526 1193.2345,106.607 1193.1535,106.688 C1193.0455,106.796 1193.0185,106.877 1193.0185,106.958 C1193.0185,107.282 1193.1535,107.525 1193.4775,107.714 C1193.7475,107.93 1194.0715,108.011 1194.3955,108.011 C1194.6385,108.011 1194.8545,107.957 1195.0705,107.849 C1195.2595,107.741 1195.4485,107.579 1195.6645,107.363 C1195.7995,107.201 1195.9615,107.012 1196.1775,106.769 L1196.7175,106.175 C1196.8525,106.04 1197.0685,105.824 1197.3385,105.527 C1197.6085,105.23 1197.9055,104.879 1198.2835,104.474 C1198.2025,104.906 1198.1215,105.419 1198.0675,106.013 C1197.9595,106.607 1197.8785,107.201 1197.7975,107.849 L1197.5815,109.766 C1197.5275,110.414 1197.4735,111.035 1197.4465,111.575 C1197.3925,112.601 1197.3385,113.627 1197.3115,114.653 C1197.2575,115.679 1197.2305,116.57 1197.2305,117.326 C1197.2305,117.758 1197.3385,118.082 1197.5815,118.325 C1197.8245,118.595 1198.1485,118.703 1198.5805,118.703 C1198.7965,118.703 1199.0395,118.649 1199.3095,118.541 C1199.5255,118.433 1199.6605,118.298 1199.6605,118.136 C1199.6605,118.055 1199.6335,117.893 1199.6335,117.623 C1199.5795,117.38 1199.5525,117.083 1199.5255,116.759 C1199.4715,116.462 1199.4175,116.138 1199.4175,115.787 C1199.3635,115.436 1199.3635,115.112 1199.3635,114.842 C1199.3635,112.952 1199.4175,111.062 1199.5795,109.145 C1199.7415,107.255 1200.0385,105.365 1200.5245,103.502 C1200.5515,103.34 1200.6055,103.178 1200.6595,102.989 L1200.7675,102.476 L1200.8485,101.963 C1200.8485,101.801 1200.8755,101.639 1200.8755,101.45 Z M1177.1225,69.262 C1179.3625,69.262 1180.7065,70.158 1180.7065,71.726 C1180.7065,73.518 1179.3625,75.982 1177.1225,79.118 C1174.6585,82.254 1171.7465,85.39 1168.6105,88.302 C1165.2505,91.438 1162.1145,94.126 1158.9785,96.366 C1155.6185,98.606 1153.1545,99.726 1151.3625,99.726 C1149.5705,99.726 1146.8825,98.606 1143.7465,96.366 C1140.6105,94.126 1137.2505,91.438 1134.1145,88.302 C1130.7545,85.39 1127.8425,82.254 1125.6025,79.118 C1123.1385,75.982 1122.0185,73.518 1122.0185,71.726 C1122.0185,70.158 1123.1385,69.262 1125.8265,69.262 C1127.3945,69.262 1129.1865,69.71 1131.4265,70.606 C1133.4425,71.502 1135.6825,72.846 1138.1465,74.19 C1140.3865,75.758 1142.8505,77.326 1145.0905,78.894 C1147.1065,80.462 1149.1225,81.806 1151.3625,83.15 C1153.3785,81.806 1155.3945,80.462 1157.6345,78.894 C1159.8745,77.326 1162.1145,75.758 1164.5785,74.19 C1166.8185,72.846 1169.2825,71.502 1171.5225,70.606 C1173.5385,69.71 1175.3305,69.262 1177.1225,69.262 Z M1173.35076,55.3417432 L1164.64551,65.6038445 L1163.556,64.164 L1152.06319,71.9980409 L1151.48809,72.3900057 L1150.92076,71.9868719 L1139.57518,63.9250949 C1138.82426,64.5937397 1137.83457,65 1136.75,65 C1134.40279,65 1132.5,63.0972102 1132.5,60.75 C1132.5,58.4027898 1134.40279,56.5 1136.75,56.5 C1139.09721,56.5 1141,58.4027898 1141,60.75 C1141,61.2895282 1140.89947,61.8055753 1140.71611,62.2804298 L1151.512,69.953 L1162.349,62.567 L1161.40575,61.3197489 L1173.35076,55.3417432 Z M1136.75,57.5 C1134.95507,57.5 1133.5,58.9550746 1133.5,60.75 C1133.5,62.5449254 1134.95507,64 1136.75,64 C1138.54493,64 1140,62.5449254 1140,60.75 C1140,58.9550746 1138.54493,57.5 1136.75,57.5 Z M1121.2835,40.235 C1121.9855,40.235 1122.6605,40.37 1123.2815,40.64 C1123.9025,40.91 1124.4425,41.261 1124.9015,41.693 C1125.3335,42.152 1125.6845,42.665 1125.9545,43.205 C1126.1975,43.772 1126.3325,44.339 1126.3325,44.906 C1126.3325,46.013 1126.1435,47.039 1125.7655,48.011 C1125.3605,49.01 1124.7665,49.874 1124.0105,50.63 C1123.3895,51.224 1122.7955,51.791 1122.2015,52.385 L1120.3925,54.14 L1119.2855,55.193 C1118.8805,55.571 1118.3675,56.03 1117.7465,56.543 C1118.6375,56.435 1119.3935,56.381 1119.9875,56.327 C1120.5815,56.3 1121.1485,56.273 1121.6885,56.219 C1122.2555,56.192 1122.8495,56.165 1123.4975,56.165 C1124.1185,56.165 1124.7125,56.111 1125.3065,56.057 L1125.6845,56.003 L1126.0625,55.922 C1126.2785,55.868 1126.5215,55.841 1126.7645,55.841 C1127.0885,55.841 1127.3585,56.003 1127.6015,56.327 C1127.8445,56.651 1127.9795,56.975 1127.9795,57.353 C1127.9795,57.596 1127.8715,57.785 1127.7095,57.893 C1127.5475,58.055 1127.3855,58.109 1127.2235,58.109 C1126.6295,58.109 1126.0625,58.082 1125.4955,57.974 C1124.9015,57.893 1124.3075,57.839 1123.7405,57.839 C1122.7145,57.839 1121.6615,57.893 1120.5815,58.001 C1119.4745,58.109 1118.4215,58.217 1117.3955,58.352 C1117.2605,58.379 1117.1255,58.406 1117.0175,58.433 C1116.8825,58.46 1116.7475,58.487 1116.6125,58.514 C1116.3425,58.568 1116.0995,58.595 1115.8835,58.595 C1115.5325,58.595 1115.2355,58.514 1114.9655,58.298 C1114.6685,58.109 1114.5335,57.812 1114.5335,57.434 C1114.5335,57.191 1114.5875,56.975 1114.6955,56.759 C1114.8035,56.597 1114.9655,56.408 1115.1545,56.219 C1115.3705,56.003 1115.5595,55.787 1115.7755,55.571 C1115.9915,55.355 1116.2075,55.166 1116.4775,54.95 C1117.3955,54.221 1118.2865,53.465 1119.1235,52.655 L1121.6885,50.252 C1122.0125,49.928 1122.3635,49.577 1122.6875,49.199 C1122.9845,48.848 1123.2545,48.47 1123.4975,48.038 C1123.7405,47.633 1123.9295,47.201 1124.0915,46.715 C1124.2535,46.256 1124.3345,45.77 1124.3345,45.23 C1124.3345,44.798 1124.2535,44.393 1124.0915,43.988 C1123.9295,43.61 1123.7135,43.259 1123.4435,42.935 C1123.1465,42.638 1122.8225,42.395 1122.4445,42.206 C1122.0665,42.044 1121.6345,41.936 1121.2025,41.936 C1120.3925,41.936 1119.7445,42.125 1119.2855,42.476 C1118.7995,42.854 1118.3675,43.34 1117.9895,43.988 C1117.8815,44.15 1117.8275,44.285 1117.7735,44.447 C1117.7195,44.609 1117.6385,44.771 1117.5845,44.906 C1117.5035,45.068 1117.4225,45.23 1117.3415,45.365 C1117.2605,45.527 1117.1795,45.662 1117.1255,45.743 C1116.9635,45.905 1116.8285,46.04 1116.7205,46.121 C1116.5855,46.229 1116.4235,46.256 1116.2345,46.256 C1115.9645,46.256 1115.7215,46.148 1115.4785,45.905 C1115.2085,45.689 1115.1005,45.446 1115.1005,45.122 C1115.1005,44.879 1115.1545,44.582 1115.2895,44.258 C1115.3975,43.934 1115.5595,43.61 1115.7485,43.286 C1115.9105,42.962 1116.1265,42.665 1116.3425,42.368 C1116.5585,42.098 1116.7475,41.855 1116.9635,41.693 C1117.5575,41.18 1118.2325,40.802 1118.9885,40.559 C1119.7445,40.343 1120.5005,40.235 1121.2835,40.235 Z" transform="translate(-1100)"/></svg>