<svg xmlns="http://www.w3.org/2000/svg" width="103" height="203" viewBox="0 0 103 203"><path fill="#131313" d="M4077.70898,117 C4079.95508,117 4081.90169,117.748698 4083.54883,119.246094 C4085.19596,120.893229 4086.01953,122.839844 4086.01953,125.085938 C4086.01953,129.428385 4086.01953,135.942057 4086.01953,144.626953 C4086.01953,148.220703 4086.01953,153.536458 4086.01953,160.574219 C4086.01953,168.061198 4086.01953,179.366536 4086.01953,194.490234 C4086.01953,196.736328 4085.19596,198.682943 4083.54883,200.330078 C4081.90169,201.827474 4079.95508,202.576172 4077.70898,202.576172 C4075.46289,202.576172 4073.59115,201.827474 4072.09375,200.330078 C4070.44661,198.682943 4069.62305,196.736328 4069.62305,194.490234 C4069.62305,194.190755 4069.62305,193.666667 4069.62305,192.917969 C4065.87956,195.91276 4061.68685,198.233724 4057.04492,199.880859 C4052.25326,201.677734 4047.08724,202.576172 4041.54688,202.576172 C4036.15625,202.576172 4031.66406,201.827474 4028.07031,200.330078 C4024.47656,198.832682 4021.55664,196.886068 4019.31055,194.490234 C4015.11784,189.998047 4012.72201,184.832031 4012.12305,178.992188 C4011.37435,173.152344 4011,168.510417 4011,165.066406 C4011,156.231771 4011,142.904948 4011,125.085938 C4011,122.839844 4011.82357,120.893229 4013.4707,119.246094 C4014.9681,117.748698 4016.83984,117 4019.08594,117 C4021.33203,117 4023.27865,117.748698 4024.92578,119.246094 C4026.42318,120.893229 4027.17188,122.839844 4027.17188,125.085938 C4027.17188,133.920573 4027.17188,147.247396 4027.17188,165.066406 C4027.17188,173.451823 4028.14518,179.067057 4030.0918,181.912109 C4032.18815,184.906901 4036.00651,186.404297 4041.54688,186.404297 C4048.13542,186.404297 4054.49935,184.008464 4060.63867,179.216797 C4066.62826,174.42513 4069.62305,168.210938 4069.62305,160.574219 C4069.62305,156.980469 4069.62305,151.664714 4069.62305,144.626953 C4069.62305,140.284505 4069.62305,133.770833 4069.62305,125.085938 C4069.62305,122.839844 4070.44661,120.893229 4072.09375,119.246094 C4073.59115,117.748698 4075.46289,117 4077.70898,117 Z M4059.89648,135.193359 C4060.04622,135.193359 4060.19596,135.193359 4060.3457,135.193359 C4060.64518,135.193359 4060.86979,135.193359 4061.01953,135.193359 C4061.16927,135.193359 4061.39388,135.193359 4061.69336,135.193359 C4061.8431,135.193359 4061.99284,135.193359 4062.14258,135.193359 C4062.14258,138.038411 4062.14258,142.455729 4062.14258,148.445312 C4061.69336,148.445312 4060.94466,148.445312 4059.89648,148.445312 C4059.89648,146.199219 4059.89648,143.953125 4059.89648,141.707031 C4059.89648,139.460938 4059.89648,137.289714 4059.89648,135.193359 Z M4064.38867,148.445312 C4063.63997,151.290365 4062.51693,155.483073 4061.01953,161.023438 C4060.27083,158.178385 4059.14779,153.985677 4057.65039,148.445312 L4064.38867,148.445312 Z M4060.85,127.265 C4063.19721,127.265 4065.1,129.16779 4065.1,131.515 C4065.1,133.86221 4063.19721,135.765 4060.85,135.765 C4058.50279,135.765 4056.6,133.86221 4056.6,131.515 C4056.6,129.16779 4058.50279,127.265 4060.85,127.265 Z M4060.85,128.265 C4059.05507,128.265 4057.6,129.720075 4057.6,131.515 C4057.6,133.309925 4059.05507,134.765 4060.85,134.765 C4062.64493,134.765 4064.1,133.309925 4064.1,131.515 C4064.1,129.720075 4062.64493,128.265 4060.85,128.265 Z M4003.51953,165.515625 C4003.51953,178.09375 4005.76562,188.126302 4010.25781,195.613281 C4014.75,203.10026 4021.48828,207.966797 4030.47266,210.212891 C4030.47266,210.662109 4030.39779,211.410807 4030.24805,212.458984 C4026.05534,211.410807 4022.38672,209.913411 4019.24219,207.966797 C4016.2474,205.870443 4013.62695,203.549479 4011.38086,201.003906 C4007.33789,196.0625 4004.64258,190.372396 4003.29492,183.933594 C4001.94727,177.644531 4001.27344,171.505208 4001.27344,165.515625 C4001.27344,158.777344 4001.27344,148.669922 4001.27344,135.193359 C4001.42318,135.193359 4001.57292,135.193359 4001.72266,135.193359 C4002.02214,135.193359 4002.24674,135.193359 4002.39648,135.193359 C4002.54622,135.193359 4002.69596,135.193359 4002.8457,135.193359 C4003.14518,135.193359 4003.36979,135.193359 4003.51953,135.193359 C4003.51953,140.134766 4003.51953,145.151042 4003.51953,150.242188 C4003.51953,155.333333 4003.51953,160.424479 4003.51953,165.515625 Z M4030.69727,208.191406 C4033.39258,209.239583 4037.43555,210.811849 4042.82617,212.908203 C4039.98112,213.357422 4035.71354,214.03125 4030.02344,214.929688 C4030.02344,214.330729 4030.54753,209.089844 4030.69727,208.191406 Z M4047.2835,130.235 C4047.9855,130.235 4048.6605,130.37 4049.2815,130.64 C4049.9025,130.91 4050.4425,131.261 4050.9015,131.693 C4051.3335,132.152 4051.6845,132.665 4051.9545,133.205 C4052.1975,133.772 4052.3325,134.339 4052.3325,134.906 C4052.3325,136.013 4052.1435,137.039 4051.7655,138.011 C4051.3605,139.01 4050.7665,139.874 4050.0105,140.63 C4049.3895,141.224 4048.7955,141.791 4048.2015,142.385 L4046.3925,144.14 L4045.2855,145.193 C4044.8805,145.571 4044.3675,146.03 4043.7465,146.543 C4044.6375,146.435 4045.3935,146.381 4045.9875,146.327 C4046.5815,146.3 4047.1485,146.273 4047.6885,146.219 C4048.2555,146.192 4048.8495,146.165 4049.4975,146.165 C4050.1185,146.165 4050.7125,146.111 4051.3065,146.057 L4051.6845,146.003 L4052.0625,145.922 C4052.2785,145.868 4052.5215,145.841 4052.7645,145.841 C4053.0885,145.841 4053.3585,146.003 4053.6015,146.327 C4053.8445,146.651 4053.9795,146.975 4053.9795,147.353 C4053.9795,147.596 4053.8715,147.785 4053.7095,147.893 C4053.5475,148.055 4053.3855,148.109 4053.2235,148.109 C4052.6295,148.109 4052.0625,148.082 4051.4955,147.974 C4050.9015,147.893 4050.3075,147.839 4049.7405,147.839 C4048.7145,147.839 4047.6615,147.893 4046.5815,148.001 C4045.4745,148.109 4044.4215,148.217 4043.3955,148.352 C4043.2605,148.379 4043.1255,148.406 4043.0175,148.433 C4042.8825,148.46 4042.7475,148.487 4042.6125,148.514 C4042.3425,148.568 4042.0995,148.595 4041.8835,148.595 C4041.5325,148.595 4041.2355,148.514 4040.9655,148.298 C4040.6685,148.109 4040.5335,147.812 4040.5335,147.434 C4040.5335,147.191 4040.5875,146.975 4040.6955,146.759 C4040.8035,146.597 4040.9655,146.408 4041.1545,146.219 C4041.3705,146.003 4041.5595,145.787 4041.7755,145.571 C4041.9915,145.355 4042.2075,145.166 4042.4775,144.95 C4043.3955,144.221 4044.2865,143.465 4045.1235,142.655 L4047.6885,140.252 C4048.0125,139.928 4048.3635,139.577 4048.6875,139.199 C4048.9845,138.848 4049.2545,138.47 4049.4975,138.038 C4049.7405,137.633 4049.9295,137.201 4050.0915,136.715 C4050.2535,136.256 4050.3345,135.77 4050.3345,135.23 C4050.3345,134.798 4050.2535,134.393 4050.0915,133.988 C4049.9295,133.61 4049.7135,133.259 4049.4435,132.935 C4049.1465,132.638 4048.8225,132.395 4048.4445,132.206 C4048.0665,132.044 4047.6345,131.936 4047.2025,131.936 C4046.3925,131.936 4045.7445,132.125 4045.2855,132.476 C4044.7995,132.854 4044.3675,133.34 4043.9895,133.988 C4043.8815,134.15 4043.8275,134.285 4043.7735,134.447 C4043.7195,134.609 4043.6385,134.771 4043.5845,134.906 C4043.5035,135.068 4043.4225,135.23 4043.3415,135.365 C4043.2605,135.527 4043.1795,135.662 4043.1255,135.743 C4042.9635,135.905 4042.8285,136.04 4042.7205,136.121 C4042.5855,136.229 4042.4235,136.256 4042.2345,136.256 C4041.9645,136.256 4041.7215,136.148 4041.4785,135.905 C4041.2085,135.689 4041.1005,135.446 4041.1005,135.122 C4041.1005,134.879 4041.1545,134.582 4041.2895,134.258 C4041.3975,133.934 4041.5595,133.61 4041.7485,133.286 C4041.9105,132.962 4042.1265,132.665 4042.3425,132.368 C4042.5585,132.098 4042.7475,131.855 4042.9635,131.693 C4043.5575,131.18 4044.2325,130.802 4044.9885,130.559 C4045.7445,130.343 4046.5005,130.235 4047.2835,130.235 Z M3989.6335,129.397 C3990.0115,129.397 3990.3085,129.505 3990.5515,129.667 C3990.7675,129.829 3990.8755,130.099 3990.8755,130.45 C3990.8755,130.639 3990.8485,130.801 3990.8485,130.963 L3990.7675,131.476 L3990.6595,131.989 C3990.6055,132.178 3990.5515,132.34 3990.5245,132.502 C3990.0385,134.365 3989.7415,136.255 3989.5795,138.145 C3989.4175,140.062 3989.3635,141.952 3989.3635,143.842 C3989.3635,144.112 3989.3635,144.436 3989.4175,144.787 C3989.4175,145.138 3989.4715,145.462 3989.5255,145.759 C3989.5525,146.083 3989.5795,146.38 3989.6335,146.623 C3989.6335,146.893 3989.6605,147.055 3989.6605,147.136 C3989.6605,147.298 3989.5255,147.433 3989.3095,147.541 C3989.0395,147.649 3988.7965,147.703 3988.5805,147.703 C3988.1485,147.703 3987.8245,147.595 3987.5815,147.325 C3987.3385,147.082 3987.2305,146.758 3987.2305,146.326 C3987.2305,145.57 3987.2575,144.679 3987.3115,143.653 C3987.3385,142.627 3987.3925,141.601 3987.4465,140.575 C3987.4735,140.035 3987.5275,139.414 3987.5815,138.766 L3987.7975,136.849 C3987.8785,136.201 3987.9595,135.607 3988.0675,135.013 C3988.1215,134.419 3988.2025,133.906 3988.2835,133.474 C3987.9055,133.879 3987.6085,134.23 3987.3385,134.527 C3987.0685,134.824 3986.8525,135.04 3986.7175,135.175 L3986.1775,135.769 C3985.9615,136.012 3985.7995,136.201 3985.6645,136.363 C3985.4485,136.579 3985.2595,136.741 3985.0705,136.849 C3984.8545,136.957 3984.6385,137.011 3984.3955,137.011 C3984.0715,137.011 3983.7475,136.93 3983.4775,136.714 C3983.1535,136.525 3983.0185,136.282 3983.0185,135.958 C3983.0185,135.877 3983.0455,135.796 3983.1535,135.688 C3983.2345,135.607 3983.3425,135.526 3983.4775,135.418 L3983.7205,135.256 C3983.7745,135.202 3983.8555,135.175 3983.9365,135.121 L3984.1525,135.013 L3984.3415,134.851 C3984.9085,134.311 3985.5025,133.717 3986.1235,133.042 C3986.7175,132.394 3987.2575,131.746 3987.7705,131.152 C3987.9325,130.963 3988.1215,130.747 3988.2835,130.531 C3988.4185,130.315 3988.5805,130.126 3988.7965,129.91 C3988.8775,129.829 3989.0125,129.721 3989.1745,129.586 C3989.3365,129.478 3989.4715,129.397 3989.6335,129.397 Z M4002.45,127.265 C4004.79721,127.265 4006.7,129.16779 4006.7,131.515 C4006.7,133.86221 4004.79721,135.765 4002.45,135.765 C4000.10279,135.765 3998.2,133.86221 3998.2,131.515 C3998.2,129.16779 4000.10279,127.265 4002.45,127.265 Z M4002.45,128.265 C4000.65507,128.265 3999.2,129.720075 3999.2,131.515 C3999.2,133.309925 4000.65507,134.765 4002.45,134.765 C4004.24493,134.765 4005.7,133.309925 4005.7,131.515 C4005.7,129.720075 4004.24493,128.265 4002.45,128.265 Z M4074.1225,69.262 C4076.3625,69.262 4077.7065,70.158 4077.7065,71.726 C4077.7065,73.518 4076.3625,75.982 4074.1225,79.118 C4071.6585,82.254 4068.7465,85.39 4065.6105,88.302 C4062.2505,91.438 4059.1145,94.126 4055.9785,96.366 C4052.6185,98.606 4050.1545,99.726 4048.3625,99.726 C4046.5705,99.726 4043.8825,98.606 4040.7465,96.366 C4037.6105,94.126 4034.2505,91.438 4031.1145,88.302 C4027.7545,85.39 4024.8425,82.254 4022.6025,79.118 C4020.1385,75.982 4019.0185,73.518 4019.0185,71.726 C4019.0185,70.158 4020.1385,69.262 4022.8265,69.262 C4024.3945,69.262 4026.1865,69.71 4028.4265,70.606 C4030.4425,71.502 4032.6825,72.846 4035.1465,74.19 C4037.3865,75.758 4039.8505,77.326 4042.0905,78.894 C4044.1065,80.462 4046.1225,81.806 4048.3625,83.15 C4050.3785,81.806 4052.3945,80.462 4054.6345,78.894 C4056.8745,77.326 4059.1145,75.758 4061.5785,74.19 C4063.8185,72.846 4066.2825,71.502 4068.5225,70.606 C4070.5385,69.71 4072.3305,69.262 4074.1225,69.262 Z M4070.35076,55.3417432 L4061.64551,65.6038445 L4060.5565,64.164 L4049.06319,71.9980409 L4048.48809,72.3900057 L4047.92076,71.9868719 L4036.57489,63.9253517 C4035.82401,64.5938437 4034.83443,65 4033.75,65 C4031.40279,65 4029.5,63.0972102 4029.5,60.75 C4029.5,58.4027898 4031.40279,56.5 4033.75,56.5 C4036.09721,56.5 4038,58.4027898 4038,60.75 C4038,61.2899034 4037.89933,61.806293 4037.71573,62.2814204 L4048.512,69.953 L4059.3495,62.567 L4058.40575,61.3197489 L4070.35076,55.3417432 Z M4021.2805,47.235 C4021.3885,47.235 4021.5775,47.289 4021.7935,47.343 L4022.4415,47.667 C4022.6305,47.775 4022.7925,47.91 4022.9545,48.045 C4023.0895,48.207 4023.1705,48.342 4023.1705,48.45 C4023.1705,48.612 4023.1435,48.72 4023.1165,48.774 C4023.0625,48.828 4022.9815,48.882 4022.8735,48.936 C4022.7115,49.017 4022.5225,49.071 4022.3605,49.071 L4021.7935,49.179 C4021.5775,49.233 4021.3885,49.233 4021.1995,49.233 C4020.9835,49.26 4020.7945,49.287 4020.6325,49.314 L4018.0675,49.719 C4017.2035,49.827 4016.2855,49.935 4015.3135,50.016 L4015.0975,52.743 C4014.9895,53.607 4014.9085,54.552 4014.8275,55.578 C4015.5835,55.362 4016.2855,55.173 4016.9335,55.011 C4017.5815,54.903 4018.2565,54.822 4018.9045,54.822 C4019.6065,54.822 4020.2815,54.876 4020.9835,54.957 C4021.6585,55.065 4022.2795,55.335 4022.8735,55.74 C4024.0075,56.631 4024.6015,57.792 4024.6015,59.25 C4024.6015,60.438 4024.3855,61.437 4024.0075,62.301 C4023.6025,63.165 4023.0625,63.867 4022.3875,64.407 C4021.6855,65.001 4020.8755,65.406 4019.9575,65.676 C4019.0395,65.946 4018.0675,66.081 4017.0415,66.081 C4016.7715,66.081 4016.4205,66.027 4016.0155,65.973 C4015.5835,65.919 4015.1515,65.838 4014.7195,65.757 C4014.2875,65.676 4013.8555,65.568 4013.4775,65.433 C4013.0455,65.325 4012.7215,65.217 4012.5055,65.109 C4012.2085,65.001 4011.9655,64.812 4011.7495,64.569 C4011.5335,64.353 4011.4255,64.083 4011.4255,63.759 C4011.4255,63.462 4011.5065,63.219 4011.6955,63.003 C4011.8575,62.841 4012.0465,62.733 4012.3165,62.733 C4012.3975,62.733 4012.5055,62.76 4012.6405,62.787 C4012.7485,62.841 4012.8835,62.922 4013.0455,62.976 C4013.1805,63.057 4013.3155,63.138 4013.4775,63.219 C4013.6395,63.327 4013.8015,63.435 4014.0175,63.516 C4014.3955,63.732 4014.8275,63.921 4015.3675,64.083 C4015.8535,64.245 4016.4475,64.326 4017.0955,64.326 C4017.7435,64.326 4018.3915,64.245 4019.0395,64.029 C4019.6605,63.813 4020.2275,63.516 4020.7135,63.111 C4021.1995,62.733 4021.5775,62.247 4021.9015,61.653 C4022.1715,61.059 4022.3335,60.384 4022.3335,59.601 C4022.3335,59.061 4022.2255,58.602 4022.0365,58.224 C4021.8205,57.846 4021.5775,57.549 4021.2535,57.333 C4020.9295,57.117 4020.5515,56.955 4020.1465,56.847 C4019.7145,56.739 4019.2825,56.685 4018.8505,56.685 C4018.2565,56.685 4017.7165,56.739 4017.2305,56.793 C4016.7175,56.847 4016.2045,56.982 4015.6645,57.144 C4015.4485,57.225 4015.2595,57.306 4015.0975,57.387 C4014.9085,57.495 4014.7195,57.603 4014.5575,57.684 C4014.3685,57.792 4014.2065,57.846 4014.0715,57.9 C4013.9095,57.954 4013.7205,57.981 4013.5315,57.981 C4013.4235,57.981 4013.3425,57.954 4013.2345,57.9 C4013.1265,57.846 4013.0185,57.792 4012.9105,57.711 C4012.8025,57.63 4012.6945,57.549 4012.6405,57.441 C4012.5595,57.333 4012.5325,57.252 4012.5325,57.171 C4012.5325,56.928 4012.5595,56.685 4012.6135,56.415 L4012.6675,56.037 L4012.7215,55.686 C4012.7485,55.281 4012.7755,54.687 4012.8295,53.931 C4012.8295,53.175 4012.8835,52.392 4012.9375,51.582 C4012.9645,50.826 4013.0185,50.097 4013.0995,49.422 C4013.1535,48.774 4013.2615,48.288 4013.4235,47.964 C4013.5315,47.91 4013.6665,47.856 4013.8555,47.802 C4014.0175,47.748 4014.1525,47.721 4014.3145,47.721 C4014.4765,47.721 4014.6655,47.775 4014.8275,47.829 C4014.9625,47.883 4015.1245,48.018 4015.3135,48.18 C4016.0965,48.18 4016.9065,48.153 4017.7435,48.045 C4018.5535,47.937 4019.3095,47.802 4020.0115,47.613 C4020.0925,47.586 4020.2005,47.559 4020.3355,47.505 L4020.6865,47.397 C4020.7945,47.37 4020.8755,47.343 4020.9835,47.289 C4021.0915,47.262 4021.1725,47.235 4021.2805,47.235 Z M4033.75,57.5 C4031.95507,57.5 4030.5,58.9550746 4030.5,60.75 C4030.5,62.5449254 4031.95507,64 4033.75,64 C4035.54493,64 4037,62.5449254 4037,60.75 C4037,58.9550746 4035.54493,57.5 4033.75,57.5 Z" transform="translate(-3997)"/></svg>