<svg xmlns="http://www.w3.org/2000/svg" width="103" height="243" viewBox="0 0 103 243"><path fill="#131313" d="M94.6904844,80 C96.9365781,80 98.8831927,80.7486979 100.530328,82.2460938 C102.177464,83.8932292 103.001031,85.8398438 103.001031,88.0859375 C103.001031,92.4283854 103.001031,98.9420573 103.001031,107.626953 C103.001031,111.220703 103.001031,116.536458 103.001031,123.574219 C103.001031,131.061198 103.001031,142.366536 103.001031,157.490234 C103.001031,159.736328 102.177464,161.682943 100.530328,163.330078 C98.8831927,164.827474 96.9365781,165.576172 94.6904844,165.576172 C92.4443906,165.576172 90.5726458,164.827474 89.07525,163.330078 C87.4281146,161.682943 86.6045469,159.736328 86.6045469,157.490234 C86.6045469,157.190755 86.6045469,156.666667 86.6045469,155.917969 C82.8610573,158.91276 78.668349,161.233724 74.0264219,162.880859 C69.2347552,164.677734 64.0687396,165.576172 58.528375,165.576172 C53.13775,165.576172 48.6455625,164.827474 45.0518125,163.330078 C41.4580625,161.832682 38.5381406,159.886068 36.2920469,157.490234 C32.0993385,152.998047 29.7035052,147.832031 29.1045469,141.992188 C28.355849,136.152344 27.9815,131.510417 27.9815,128.066406 C27.9815,119.231771 27.9815,105.904948 27.9815,88.0859375 C27.9815,85.8398438 28.8050677,83.8932292 30.4522031,82.2460938 C31.949599,80.7486979 33.8213438,80 36.0674375,80 C38.3135313,80 40.2601458,80.7486979 41.9072813,82.2460938 C43.4046771,83.8932292 44.153375,85.8398438 44.153375,88.0859375 C44.153375,96.9205729 44.153375,110.247396 44.153375,128.066406 C44.153375,136.451823 45.1266823,142.067057 47.0732969,144.912109 C49.169651,147.906901 52.9880104,149.404297 58.528375,149.404297 C65.1169167,149.404297 71.480849,147.008464 77.6201719,142.216797 C83.6097552,137.42513 86.6045469,131.210938 86.6045469,123.574219 C86.6045469,119.980469 86.6045469,114.664714 86.6045469,107.626953 C86.6045469,103.284505 86.6045469,96.7708333 86.6045469,88.0859375 C86.6045469,85.8398438 87.4281146,83.8932292 89.07525,82.2460938 C90.5726458,80.7486979 92.4443906,80 94.6904844,80 Z M76.8779844,98.1933594 C77.027724,98.1933594 77.1774635,98.1933594 77.3272031,98.1933594 C77.6266823,98.1933594 77.8512917,98.1933594 78.0010313,98.1933594 C78.1507708,98.1933594 78.3753802,98.1933594 78.6748594,98.1933594 C78.824599,98.1933594 78.9743385,98.1933594 79.1240781,98.1933594 C79.1240781,101.038411 79.1240781,105.455729 79.1240781,111.445312 C78.6748594,111.445312 77.9261615,111.445312 76.8779844,111.445312 C76.8779844,109.199219 76.8779844,106.953125 76.8779844,104.707031 C76.8779844,102.460938 76.8779844,100.289714 76.8779844,98.1933594 Z M81.3701719,111.445312 C80.621474,114.290365 79.4984271,118.483073 78.0010313,124.023438 C77.2523333,121.178385 76.1292865,116.985677 74.6318906,111.445312 L81.3701719,111.445312 Z M77.8315,90.265 C80.1787102,90.265 82.0815,92.1677898 82.0815,94.515 C82.0815,96.8622102 80.1787102,98.765 77.8315,98.765 C75.4842898,98.765 73.5815,96.8622102 73.5815,94.515 C73.5815,92.1677898 75.4842898,90.265 77.8315,90.265 Z M77.8315,91.265 C76.0365746,91.265 74.5815,92.7200746 74.5815,94.515 C74.5815,96.3099254 76.0365746,97.765 77.8315,97.765 C79.6264254,97.765 81.0815,96.3099254 81.0815,94.515 C81.0815,92.7200746 79.6264254,91.265 77.8315,91.265 Z M20.5010313,128.515625 C20.5010313,141.09375 22.747125,151.126302 27.2393125,158.613281 C31.7315,166.10026 38.4697813,170.966797 47.4541563,173.212891 C47.4541563,173.662109 47.3792865,174.410807 47.2295469,175.458984 C43.0368385,174.410807 39.3682188,172.913411 36.2236875,170.966797 C33.2288958,168.870443 30.6084531,166.549479 28.3623594,164.003906 C24.3193906,159.0625 21.6240781,153.372396 20.2764219,146.933594 C18.9287656,140.644531 18.2549375,134.505208 18.2549375,128.515625 C18.2549375,121.777344 18.2549375,111.669922 18.2549375,98.1933594 C18.4046771,98.1933594 18.5544167,98.1933594 18.7041563,98.1933594 C19.0036354,98.1933594 19.2282448,98.1933594 19.3779844,98.1933594 C19.527724,98.1933594 19.6774635,98.1933594 19.8272031,98.1933594 C20.1266823,98.1933594 20.3512917,98.1933594 20.5010313,98.1933594 C20.5010313,103.134766 20.5010313,108.151042 20.5010313,113.242188 C20.5010313,118.333333 20.5010313,123.424479 20.5010313,128.515625 Z M47.6787656,171.191406 C50.3740781,172.239583 54.4170469,173.811849 59.8076719,175.908203 C56.9626198,176.357422 52.6950417,177.03125 47.0049375,177.929688 C47.0049375,177.330729 47.529026,172.089844 47.6787656,171.191406 Z M64.265,93.235 C64.967,93.235 65.642,93.37 66.263,93.64 C66.884,93.91 67.424,94.261 67.883,94.693 C68.315,95.152 68.666,95.665 68.936,96.205 C69.179,96.772 69.314,97.339 69.314,97.906 C69.314,99.013 69.125,100.039 68.747,101.011 C68.342,102.01 67.748,102.874 66.992,103.63 C66.371,104.224 65.777,104.791 65.183,105.385 L63.374,107.14 L62.267,108.193 C61.862,108.571 61.349,109.03 60.728,109.543 C61.619,109.435 62.375,109.381 62.969,109.327 C63.563,109.3 64.13,109.273 64.67,109.219 C65.237,109.192 65.831,109.165 66.479,109.165 C67.1,109.165 67.694,109.111 68.288,109.057 L68.666,109.003 L69.044,108.922 C69.26,108.868 69.503,108.841 69.746,108.841 C70.07,108.841 70.34,109.003 70.583,109.327 C70.826,109.651 70.961,109.975 70.961,110.353 C70.961,110.596 70.853,110.785 70.691,110.893 C70.529,111.055 70.367,111.109 70.205,111.109 C69.611,111.109 69.044,111.082 68.477,110.974 C67.883,110.893 67.289,110.839 66.722,110.839 C65.696,110.839 64.643,110.893 63.563,111.001 C62.456,111.109 61.403,111.217 60.377,111.352 C60.242,111.379 60.107,111.406 59.999,111.433 C59.864,111.46 59.729,111.487 59.594,111.514 C59.324,111.568 59.081,111.595 58.865,111.595 C58.514,111.595 58.217,111.514 57.947,111.298 C57.65,111.109 57.515,110.812 57.515,110.434 C57.515,110.191 57.569,109.975 57.677,109.759 C57.785,109.597 57.947,109.408 58.136,109.219 C58.352,109.003 58.541,108.787 58.757,108.571 C58.973,108.355 59.189,108.166 59.459,107.95 C60.377,107.221 61.268,106.465 62.105,105.655 L64.67,103.252 C64.994,102.928 65.345,102.577 65.669,102.199 C65.966,101.848 66.236,101.47 66.479,101.038 C66.722,100.633 66.911,100.201 67.073,99.715 C67.235,99.256 67.316,98.77 67.316,98.23 C67.316,97.798 67.235,97.393 67.073,96.988 C66.911,96.61 66.695,96.259 66.425,95.935 C66.128,95.638 65.804,95.395 65.426,95.206 C65.048,95.044 64.616,94.936 64.184,94.936 C63.374,94.936 62.726,95.125 62.267,95.476 C61.781,95.854 61.349,96.34 60.971,96.988 C60.863,97.15 60.809,97.285 60.755,97.447 C60.701,97.609 60.62,97.771 60.566,97.906 C60.485,98.068 60.404,98.23 60.323,98.365 C60.242,98.527 60.161,98.662 60.107,98.743 C59.945,98.905 59.81,99.04 59.702,99.121 C59.567,99.229 59.405,99.256 59.216,99.256 C58.946,99.256 58.703,99.148 58.46,98.905 C58.19,98.689 58.082,98.446 58.082,98.122 C58.082,97.879 58.136,97.582 58.271,97.258 C58.379,96.934 58.541,96.61 58.73,96.286 C58.892,95.962 59.108,95.665 59.324,95.368 C59.54,95.098 59.729,94.855 59.945,94.693 C60.539,94.18 61.214,93.802 61.97,93.559 C62.726,93.343 63.482,93.235 64.265,93.235 Z M6.615,92.397 C6.993,92.397 7.29,92.505 7.533,92.667 C7.749,92.829 7.857,93.099 7.857,93.45 C7.857,93.639 7.83,93.801 7.83,93.963 L7.749,94.476 L7.641,94.989 C7.587,95.178 7.533,95.34 7.506,95.502 C7.02,97.365 6.723,99.255 6.561,101.145 C6.399,103.062 6.345,104.952 6.345,106.842 C6.345,107.112 6.345,107.436 6.399,107.787 C6.399,108.138 6.453,108.462 6.507,108.759 C6.534,109.083 6.561,109.38 6.615,109.623 C6.615,109.893 6.642,110.055 6.642,110.136 C6.642,110.298 6.507,110.433 6.291,110.541 C6.021,110.649 5.778,110.703 5.562,110.703 C5.13,110.703 4.806,110.595 4.563,110.325 C4.32,110.082 4.212,109.758 4.212,109.326 C4.212,108.57 4.239,107.679 4.293,106.653 C4.32,105.627 4.374,104.601 4.428,103.575 C4.455,103.035 4.509,102.414 4.563,101.766 L4.779,99.849 C4.86,99.201 4.941,98.607 5.049,98.013 C5.103,97.419 5.184,96.906 5.265,96.474 C4.887,96.879 4.59,97.23 4.32,97.527 C4.05,97.824 3.834,98.04 3.699,98.175 L3.159,98.769 C2.943,99.012 2.781,99.201 2.646,99.363 C2.43,99.579 2.241,99.741 2.052,99.849 C1.836,99.957 1.62,100.011 1.377,100.011 C1.053,100.011 0.729,99.93 0.459,99.714 C0.135,99.525 0,99.282 0,98.958 C0,98.877 0.027,98.796 0.135,98.688 C0.216,98.607 0.324,98.526 0.459,98.418 L0.702,98.256 C0.756,98.202 0.837,98.175 0.918,98.121 L1.134,98.013 C1.188,97.959 1.269,97.905 1.323,97.851 C1.89,97.311 2.484,96.717 3.105,96.042 C3.699,95.394 4.239,94.746 4.752,94.152 C4.914,93.963 5.103,93.747 5.265,93.531 C5.4,93.315 5.562,93.126 5.778,92.91 C5.859,92.829 5.994,92.721 6.156,92.586 C6.318,92.478 6.453,92.397 6.615,92.397 Z M19.4315,90.265 C21.7787102,90.265 23.6815,92.1677898 23.6815,94.515 C23.6815,96.8622102 21.7787102,98.765 19.4315,98.765 C17.0842898,98.765 15.1815,96.8622102 15.1815,94.515 C15.1815,92.1677898 17.0842898,90.265 19.4315,90.265 Z M19.4315,91.265 C17.6365746,91.265 16.1815,92.7200746 16.1815,94.515 C16.1815,96.3099254 17.6365746,97.765 19.4315,97.765 C21.2264254,97.765 22.6815,96.3099254 22.6815,94.515 C22.6815,92.7200746 21.2264254,91.265 19.4315,91.265 Z M91.104,32.262 C93.344,32.262 94.688,33.158 94.688,34.726 C94.688,36.518 93.344,38.982 91.104,42.118 C88.64,45.254 85.728,48.39 82.592,51.302 C79.232,54.438 76.096,57.126 72.96,59.366 C69.6,61.606 67.136,62.726 65.344,62.726 C63.552,62.726 60.864,61.606 57.728,59.366 C54.592,57.126 51.232,54.438 48.096,51.302 C44.736,48.39 41.824,45.254 39.584,42.118 C37.12,38.982 36,36.518 36,34.726 C36,33.158 37.12,32.262 39.808,32.262 C41.376,32.262 43.168,32.71 45.408,33.606 C47.424,34.502 49.664,35.846 52.128,37.19 C54.368,38.758 56.832,40.326 59.072,41.894 C61.088,43.462 63.104,44.806 65.344,46.15 C67.36,44.806 69.376,43.462 71.616,41.894 C73.856,40.326 76.096,38.758 78.56,37.19 C80.8,35.846 83.264,34.502 85.504,33.606 C87.52,32.71 89.312,32.262 91.104,32.262 Z M87.3322574,18.3417432 L78.6270074,28.6038445 L77.538,27.164 L66.0446902,34.9980409 L65.4695893,35.3900057 L64.9022617,34.9868719 L53.5563931,26.9253517 C52.8055053,27.5938437 51.8159341,28 50.7315,28 C48.3842898,28 46.4815,26.0972102 46.4815,23.75 C46.4815,21.4027898 48.3842898,19.5 50.7315,19.5 C53.0787102,19.5 54.9815,21.4027898 54.9815,23.75 C54.9815,24.2899034 54.8808256,24.806293 54.6972253,25.2814204 L65.4935,32.953 L76.331,25.567 L75.3872489,24.3197489 L87.3322574,18.3417432 Z M38.262,10.235 C38.37,10.235 38.559,10.289 38.775,10.343 L39.423,10.667 C39.612,10.775 39.774,10.91 39.936,11.045 C40.071,11.207 40.152,11.342 40.152,11.45 C40.152,11.612 40.125,11.72 40.098,11.774 C40.044,11.828 39.963,11.882 39.855,11.936 C39.693,12.017 39.504,12.071 39.342,12.071 L38.775,12.179 C38.559,12.233 38.37,12.233 38.181,12.233 C37.965,12.26 37.776,12.287 37.614,12.314 L35.049,12.719 C34.185,12.827 33.267,12.935 32.295,13.016 L32.079,15.743 C31.971,16.607 31.89,17.552 31.809,18.578 C32.565,18.362 33.267,18.173 33.915,18.011 C34.563,17.903 35.238,17.822 35.886,17.822 C36.588,17.822 37.263,17.876 37.965,17.957 C38.64,18.065 39.261,18.335 39.855,18.74 C40.989,19.631 41.583,20.792 41.583,22.25 C41.583,23.438 41.367,24.437 40.989,25.301 C40.584,26.165 40.044,26.867 39.369,27.407 C38.667,28.001 37.857,28.406 36.939,28.676 C36.021,28.946 35.049,29.081 34.023,29.081 C33.753,29.081 33.402,29.027 32.997,28.973 C32.565,28.919 32.133,28.838 31.701,28.757 C31.269,28.676 30.837,28.568 30.459,28.433 C30.027,28.325 29.703,28.217 29.487,28.109 C29.19,28.001 28.947,27.812 28.731,27.569 C28.515,27.353 28.407,27.083 28.407,26.759 C28.407,26.462 28.488,26.219 28.677,26.003 C28.839,25.841 29.028,25.733 29.298,25.733 C29.379,25.733 29.487,25.76 29.622,25.787 C29.73,25.841 29.865,25.922 30.027,25.976 C30.162,26.057 30.297,26.138 30.459,26.219 C30.621,26.327 30.783,26.435 30.999,26.516 C31.377,26.732 31.809,26.921 32.349,27.083 C32.835,27.245 33.429,27.326 34.077,27.326 C34.725,27.326 35.373,27.245 36.021,27.029 C36.642,26.813 37.209,26.516 37.695,26.111 C38.181,25.733 38.559,25.247 38.883,24.653 C39.153,24.059 39.315,23.384 39.315,22.601 C39.315,22.061 39.207,21.602 39.018,21.224 C38.802,20.846 38.559,20.549 38.235,20.333 C37.911,20.117 37.533,19.955 37.128,19.847 C36.696,19.739 36.264,19.685 35.832,19.685 C35.238,19.685 34.698,19.739 34.212,19.793 C33.699,19.847 33.186,19.982 32.646,20.144 C32.43,20.225 32.241,20.306 32.079,20.387 C31.89,20.495 31.701,20.603 31.539,20.684 C31.35,20.792 31.188,20.846 31.053,20.9 C30.891,20.954 30.702,20.981 30.513,20.981 C30.405,20.981 30.324,20.954 30.216,20.9 C30.108,20.846 30,20.792 29.892,20.711 C29.784,20.63 29.676,20.549 29.622,20.441 C29.541,20.333 29.514,20.252 29.514,20.171 C29.514,19.928 29.541,19.685 29.595,19.415 L29.649,19.037 L29.703,18.686 C29.73,18.281 29.757,17.687 29.811,16.931 C29.811,16.175 29.865,15.392 29.919,14.582 C29.946,13.826 30,13.097 30.081,12.422 C30.135,11.774 30.243,11.288 30.405,10.964 C30.513,10.91 30.648,10.856 30.837,10.802 C30.999,10.748 31.134,10.721 31.296,10.721 C31.458,10.721 31.647,10.775 31.809,10.829 C31.944,10.883 32.106,11.018 32.295,11.18 C33.078,11.18 33.888,11.153 34.725,11.045 C35.535,10.937 36.291,10.802 36.993,10.613 C37.074,10.586 37.182,10.559 37.317,10.505 L37.668,10.397 C37.776,10.37 37.857,10.343 37.965,10.289 C38.073,10.262 38.154,10.235 38.262,10.235 Z M50.7315,20.5 C48.9365746,20.5 47.4815,21.9550746 47.4815,23.75 C47.4815,25.5449254 48.9365746,27 50.7315,27 C52.5264254,27 53.9815,25.5449254 53.9815,23.75 C53.9815,21.9550746 52.5264254,20.5 50.7315,20.5 Z" transform="translate(-13.981)"/></svg>