<svg xmlns="http://www.w3.org/2000/svg" width="103" height="243" viewBox="0 0 103 243"><path fill="#131313" d="M94.6904844,80 C96.9365781,80 98.8831927,80.7486979 100.530328,82.2460938 C102.177464,83.8932292 103.001031,85.8398438 103.001031,88.0859375 C103.001031,92.4283854 103.001031,98.9420573 103.001031,107.626953 C103.001031,111.220703 103.001031,116.536458 103.001031,123.574219 C103.001031,131.061198 103.001031,142.366536 103.001031,157.490234 C103.001031,159.736328 102.177464,161.682943 100.530328,163.330078 C98.8831927,164.827474 96.9365781,165.576172 94.6904844,165.576172 C92.4443906,165.576172 90.5726458,164.827474 89.07525,163.330078 C87.4281146,161.682943 86.6045469,159.736328 86.6045469,157.490234 C86.6045469,157.190755 86.6045469,156.666667 86.6045469,155.917969 C82.8610573,158.91276 78.668349,161.233724 74.0264219,162.880859 C69.2347552,164.677734 64.0687396,165.576172 58.528375,165.576172 C53.13775,165.576172 48.6455625,164.827474 45.0518125,163.330078 C41.4580625,161.832682 38.5381406,159.886068 36.2920469,157.490234 C32.0993385,152.998047 29.7035052,147.832031 29.1045469,141.992188 C28.355849,136.152344 27.9815,131.510417 27.9815,128.066406 C27.9815,119.231771 27.9815,105.904948 27.9815,88.0859375 C27.9815,85.8398438 28.8050677,83.8932292 30.4522031,82.2460938 C31.949599,80.7486979 33.8213437,80 36.0674375,80 C38.3135312,80 40.2601458,80.7486979 41.9072812,82.2460938 C43.4046771,83.8932292 44.153375,85.8398438 44.153375,88.0859375 C44.153375,96.9205729 44.153375,110.247396 44.153375,128.066406 C44.153375,136.451823 45.1266823,142.067057 47.0732969,144.912109 C49.169651,147.906901 52.9880104,149.404297 58.528375,149.404297 C65.1169167,149.404297 71.480849,147.008464 77.6201719,142.216797 C83.6097552,137.42513 86.6045469,131.210938 86.6045469,123.574219 C86.6045469,119.980469 86.6045469,114.664714 86.6045469,107.626953 C86.6045469,103.284505 86.6045469,96.7708333 86.6045469,88.0859375 C86.6045469,85.8398438 87.4281146,83.8932292 89.07525,82.2460938 C90.5726458,80.7486979 92.4443906,80 94.6904844,80 Z M76.8779844,98.1933594 C77.027724,98.1933594 77.1774635,98.1933594 77.3272031,98.1933594 C77.6266823,98.1933594 77.8512917,98.1933594 78.0010312,98.1933594 C78.1507708,98.1933594 78.3753802,98.1933594 78.6748594,98.1933594 C78.824599,98.1933594 78.9743385,98.1933594 79.1240781,98.1933594 C79.1240781,101.038411 79.1240781,105.455729 79.1240781,111.445312 C78.6748594,111.445312 77.9261615,111.445312 76.8779844,111.445312 C76.8779844,109.199219 76.8779844,106.953125 76.8779844,104.707031 C76.8779844,102.460938 76.8779844,100.289714 76.8779844,98.1933594 Z M81.3701719,111.445312 C80.621474,114.290365 79.4984271,118.483073 78.0010312,124.023438 C77.2523333,121.178385 76.1292865,116.985677 74.6318906,111.445312 L81.3701719,111.445312 Z M77.8315,90.265 C80.1787102,90.265 82.0815,92.1677898 82.0815,94.515 C82.0815,96.8622102 80.1787102,98.765 77.8315,98.765 C75.4842898,98.765 73.5815,96.8622102 73.5815,94.515 C73.5815,92.1677898 75.4842898,90.265 77.8315,90.265 Z M77.8315,91.265 C76.0365746,91.265 74.5815,92.7200746 74.5815,94.515 C74.5815,96.3099254 76.0365746,97.765 77.8315,97.765 C79.6264254,97.765 81.0815,96.3099254 81.0815,94.515 C81.0815,92.7200746 79.6264254,91.265 77.8315,91.265 Z M20.5010312,128.515625 C20.5010312,141.09375 22.747125,151.126302 27.2393125,158.613281 C31.7315,166.10026 38.4697812,170.966797 47.4541562,173.212891 C47.4541562,173.662109 47.3792865,174.410807 47.2295469,175.458984 C43.0368385,174.410807 39.3682187,172.913411 36.2236875,170.966797 C33.2288958,168.870443 30.6084531,166.549479 28.3623594,164.003906 C24.3193906,159.0625 21.6240781,153.372396 20.2764219,146.933594 C18.9287656,140.644531 18.2549375,134.505208 18.2549375,128.515625 C18.2549375,121.777344 18.2549375,111.669922 18.2549375,98.1933594 C18.4046771,98.1933594 18.5544167,98.1933594 18.7041562,98.1933594 C19.0036354,98.1933594 19.2282448,98.1933594 19.3779844,98.1933594 C19.527724,98.1933594 19.6774635,98.1933594 19.8272031,98.1933594 C20.1266823,98.1933594 20.3512917,98.1933594 20.5010312,98.1933594 C20.5010312,103.134766 20.5010312,108.151042 20.5010312,113.242187 C20.5010312,118.333333 20.5010312,123.424479 20.5010312,128.515625 Z M47.6787656,171.191406 C50.3740781,172.239583 54.4170469,173.811849 59.8076719,175.908203 C56.9626198,176.357422 52.6950417,177.03125 47.0049375,177.929688 C47.0049375,177.330729 47.529026,172.089844 47.6787656,171.191406 Z M64.265,93.235 C64.967,93.235 65.642,93.37 66.263,93.64 C66.884,93.91 67.424,94.261 67.883,94.693 C68.315,95.152 68.666,95.665 68.936,96.205 C69.179,96.772 69.314,97.339 69.314,97.906 C69.314,99.013 69.125,100.039 68.747,101.011 C68.342,102.01 67.748,102.874 66.992,103.63 C66.371,104.224 65.777,104.791 65.183,105.385 L63.374,107.14 L62.267,108.193 C61.862,108.571 61.349,109.03 60.728,109.543 C61.619,109.435 62.375,109.381 62.969,109.327 C63.563,109.3 64.13,109.273 64.67,109.219 C65.237,109.192 65.831,109.165 66.479,109.165 C67.1,109.165 67.694,109.111 68.288,109.057 L68.666,109.003 L69.044,108.922 C69.26,108.868 69.503,108.841 69.746,108.841 C70.07,108.841 70.34,109.003 70.583,109.327 C70.826,109.651 70.961,109.975 70.961,110.353 C70.961,110.596 70.853,110.785 70.691,110.893 C70.529,111.055 70.367,111.109 70.205,111.109 C69.611,111.109 69.044,111.082 68.477,110.974 C67.883,110.893 67.289,110.839 66.722,110.839 C65.696,110.839 64.643,110.893 63.563,111.001 C62.456,111.109 61.403,111.217 60.377,111.352 C60.242,111.379 60.107,111.406 59.999,111.433 C59.864,111.46 59.729,111.487 59.594,111.514 C59.324,111.568 59.081,111.595 58.865,111.595 C58.514,111.595 58.217,111.514 57.947,111.298 C57.65,111.109 57.515,110.812 57.515,110.434 C57.515,110.191 57.569,109.975 57.677,109.759 C57.785,109.597 57.947,109.408 58.136,109.219 C58.352,109.003 58.541,108.787 58.757,108.571 C58.973,108.355 59.189,108.166 59.459,107.95 C60.377,107.221 61.268,106.465 62.105,105.655 L64.67,103.252 C64.994,102.928 65.345,102.577 65.669,102.199 C65.966,101.848 66.236,101.47 66.479,101.038 C66.722,100.633 66.911,100.201 67.073,99.715 C67.235,99.256 67.316,98.77 67.316,98.23 C67.316,97.798 67.235,97.393 67.073,96.988 C66.911,96.61 66.695,96.259 66.425,95.935 C66.128,95.638 65.804,95.395 65.426,95.206 C65.048,95.044 64.616,94.936 64.184,94.936 C63.374,94.936 62.726,95.125 62.267,95.476 C61.781,95.854 61.349,96.34 60.971,96.988 C60.863,97.15 60.809,97.285 60.755,97.447 C60.701,97.609 60.62,97.771 60.566,97.906 C60.485,98.068 60.404,98.23 60.323,98.365 C60.242,98.527 60.161,98.662 60.107,98.743 C59.945,98.905 59.81,99.04 59.702,99.121 C59.567,99.229 59.405,99.256 59.216,99.256 C58.946,99.256 58.703,99.148 58.46,98.905 C58.19,98.689 58.082,98.446 58.082,98.122 C58.082,97.879 58.136,97.582 58.271,97.258 C58.379,96.934 58.541,96.61 58.73,96.286 C58.892,95.962 59.108,95.665 59.324,95.368 C59.54,95.098 59.729,94.855 59.945,94.693 C60.539,94.18 61.214,93.802 61.97,93.559 C62.726,93.343 63.482,93.235 64.265,93.235 Z M6.615,92.397 C6.993,92.397 7.29,92.505 7.533,92.667 C7.749,92.829 7.857,93.099 7.857,93.45 C7.857,93.639 7.83,93.801 7.83,93.963 L7.749,94.476 L7.641,94.989 C7.587,95.178 7.533,95.34 7.506,95.502 C7.02,97.365 6.723,99.255 6.561,101.145 C6.399,103.062 6.345,104.952 6.345,106.842 C6.345,107.112 6.345,107.436 6.399,107.787 C6.399,108.138 6.453,108.462 6.507,108.759 C6.534,109.083 6.561,109.38 6.615,109.623 C6.615,109.893 6.642,110.055 6.642,110.136 C6.642,110.298 6.507,110.433 6.291,110.541 C6.021,110.649 5.778,110.703 5.562,110.703 C5.13,110.703 4.806,110.595 4.563,110.325 C4.32,110.082 4.212,109.758 4.212,109.326 C4.212,108.57 4.239,107.679 4.293,106.653 C4.32,105.627 4.374,104.601 4.428,103.575 C4.455,103.035 4.509,102.414 4.563,101.766 L4.779,99.849 C4.86,99.201 4.941,98.607 5.049,98.013 C5.103,97.419 5.184,96.906 5.265,96.474 C4.887,96.879 4.59,97.23 4.32,97.527 C4.05,97.824 3.834,98.04 3.699,98.175 L3.159,98.769 C2.943,99.012 2.781,99.201 2.646,99.363 C2.43,99.579 2.241,99.741 2.052,99.849 C1.836,99.957 1.62,100.011 1.377,100.011 C1.053,100.011 0.729,99.93 0.459,99.714 C0.135,99.525 0,99.282 0,98.958 C0,98.877 0.027,98.796 0.135,98.688 C0.216,98.607 0.324,98.526 0.459,98.418 L0.702,98.256 C0.756,98.202 0.837,98.175 0.918,98.121 L1.134,98.013 C1.188,97.959 1.269,97.905 1.323,97.851 C1.89,97.311 2.484,96.717 3.105,96.042 C3.699,95.394 4.239,94.746 4.752,94.152 C4.914,93.963 5.103,93.747 5.265,93.531 C5.4,93.315 5.562,93.126 5.778,92.91 C5.859,92.829 5.994,92.721 6.156,92.586 C6.318,92.478 6.453,92.397 6.615,92.397 Z M19.4315,90.265 C21.7787102,90.265 23.6815,92.1677898 23.6815,94.515 C23.6815,96.8622102 21.7787102,98.765 19.4315,98.765 C17.0842898,98.765 15.1815,96.8622102 15.1815,94.515 C15.1815,92.1677898 17.0842898,90.265 19.4315,90.265 Z M19.4315,91.265 C17.6365746,91.265 16.1815,92.7200746 16.1815,94.515 C16.1815,96.3099254 17.6365746,97.765 19.4315,97.765 C21.2264254,97.765 22.6815,96.3099254 22.6815,94.515 C22.6815,92.7200746 21.2264254,91.265 19.4315,91.265 Z M116.857,46.938 C116.992,46.938 117.154,46.965 117.37,47.019 C117.559,47.073 117.748,47.127 117.937,47.235 C118.099,47.343 118.234,47.451 118.369,47.559 C118.477,47.694 118.558,47.829 118.558,47.991 C118.558,48.315 118.531,48.612 118.477,48.909 C118.423,49.206 118.396,49.503 118.396,49.8 C118.342,50.61 118.288,51.42 118.261,52.203 C118.207,53.013 118.153,53.742 118.153,54.444 C118.099,55.146 118.072,55.794 118.072,56.361 C118.045,56.955 118.045,57.414 118.045,57.792 C118.018,58.062 118.018,58.305 118.018,58.548 C118.018,58.818 118.018,59.115 118.045,59.466 C118.261,59.412 118.558,59.358 118.963,59.277 C119.341,59.223 119.746,59.196 120.178,59.196 C120.88,59.196 121.258,59.547 121.258,60.195 C121.258,60.465 121.177,60.681 121.015,60.843 C120.853,61.032 120.637,61.113 120.394,61.113 L117.964,61.167 L117.964,62.76 C117.964,63.246 117.991,63.705 118.099,64.137 C118.207,64.569 118.261,65.028 118.261,65.487 C118.261,65.811 118.126,66.027 117.91,66.189 C117.667,66.324 117.397,66.405 117.127,66.405 C116.263,66.405 115.831,65.892 115.831,64.839 C115.831,64.623 115.831,64.164 115.885,63.516 L115.939,61.41 C115.291,61.518 114.751,61.599 114.265,61.707 C113.752,61.815 113.266,61.896 112.807,62.004 L111.997,62.193 C111.727,62.274 111.457,62.328 111.187,62.382 C110.89,62.436 110.593,62.49 110.323,62.517 C110.026,62.571 109.756,62.598 109.513,62.598 C109.189,62.598 108.865,62.571 108.541,62.463 C108.19,62.355 107.893,62.22 107.623,62.031 C107.353,61.842 107.137,61.599 106.975,61.302 C106.813,61.032 106.732,60.708 106.732,60.33 C106.732,60.114 106.759,59.871 106.867,59.601 C106.948,59.358 107.056,59.115 107.191,58.845 C107.326,58.575 107.461,58.332 107.623,58.089 C107.785,57.873 107.92,57.657 108.082,57.468 C109.243,55.875 110.431,54.336 111.673,52.824 C112.915,51.339 114.13,49.8 115.318,48.207 C115.399,48.072 115.507,47.937 115.615,47.775 C115.696,47.64 115.804,47.505 115.939,47.343 C116.047,47.235 116.182,47.127 116.371,47.046 C116.533,46.992 116.695,46.938 116.857,46.938 Z M16.131,47.262 C16.779,47.262 17.427,47.343 18.075,47.451 C18.723,47.586 19.317,47.802 19.857,48.099 C20.397,48.423 20.829,48.855 21.153,49.368 C21.477,49.908 21.639,50.556 21.639,51.312 C21.639,52.149 21.45,52.851 21.099,53.445 C20.721,54.039 20.1,54.633 19.236,55.2 C19.884,55.362 20.505,55.578 21.045,55.821 C21.585,56.064 22.071,56.361 22.476,56.685 C22.854,57.063 23.178,57.468 23.421,57.927 C23.637,58.413 23.745,58.953 23.745,59.547 C23.745,60.573 23.529,61.464 23.097,62.22 C22.638,63.003 22.071,63.651 21.369,64.191 C20.667,64.731 19.857,65.109 18.993,65.379 C18.102,65.676 17.211,65.811 16.347,65.811 C16.023,65.811 15.645,65.784 15.213,65.703 C14.754,65.649 14.295,65.568 13.836,65.46 C13.35,65.352 12.891,65.244 12.459,65.082 C12,64.947 11.622,64.785 11.298,64.623 C11.028,64.488 10.785,64.299 10.569,64.029 C10.326,63.813 10.218,63.516 10.218,63.192 C10.218,62.895 10.299,62.652 10.515,62.463 C10.704,62.274 10.92,62.166 11.19,62.166 C11.325,62.166 11.514,62.247 11.73,62.355 C11.811,62.409 11.919,62.463 12.027,62.517 C12.135,62.571 12.27,62.652 12.432,62.733 C12.675,62.895 12.918,63.03 13.161,63.165 C13.404,63.327 13.674,63.435 13.944,63.516 C14.7,63.813 15.429,63.948 16.104,63.948 C16.698,63.948 17.292,63.867 17.913,63.678 C18.534,63.516 19.101,63.246 19.587,62.895 C20.073,62.544 20.505,62.085 20.829,61.545 C21.126,61.032 21.288,60.411 21.288,59.682 C21.288,59.25 21.18,58.845 20.991,58.494 C20.775,58.17 20.532,57.873 20.235,57.63 C19.911,57.414 19.587,57.225 19.209,57.063 C18.831,56.901 18.48,56.793 18.129,56.685 C17.94,56.658 17.751,56.604 17.589,56.55 C17.4,56.496 17.211,56.469 17.022,56.469 C16.779,56.469 16.563,56.496 16.347,56.55 C16.131,56.604 15.915,56.685 15.699,56.766 C15.483,56.847 15.294,56.928 15.078,56.982 C14.862,57.063 14.646,57.09 14.43,57.09 C14.133,57.09 13.863,56.982 13.593,56.739 C13.296,56.496 13.161,56.226 13.161,55.902 C13.161,55.632 13.242,55.416 13.404,55.254 C13.485,55.173 13.647,55.092 13.917,55.011 C14.16,54.957 14.403,54.903 14.673,54.903 L15.078,54.903 C15.402,54.903 15.699,54.876 15.996,54.795 C16.293,54.741 16.644,54.606 17.076,54.417 C17.481,54.255 17.859,54.012 18.237,53.715 C18.615,53.418 18.912,53.067 19.182,52.635 C19.425,52.257 19.56,51.771 19.56,51.231 C19.56,50.799 19.452,50.448 19.29,50.151 C19.101,49.881 18.885,49.665 18.615,49.503 C18.318,49.341 17.994,49.233 17.643,49.179 C17.292,49.125 16.968,49.071 16.644,49.071 C16.212,49.071 15.753,49.179 15.321,49.368 C14.835,49.584 14.43,49.773 14.052,49.962 C13.863,50.07 13.701,50.151 13.539,50.232 L13.053,50.475 C12.702,50.637 12.405,50.691 12.189,50.691 C11.946,50.691 11.73,50.583 11.541,50.367 C11.325,50.151 11.244,49.881 11.244,49.584 C11.244,49.314 11.379,49.017 11.703,48.747 C12.027,48.477 12.432,48.207 12.918,47.991 C13.404,47.775 13.917,47.613 14.511,47.451 C15.078,47.343 15.618,47.262 16.131,47.262 Z M35.9815,49 C40.399778,49 43.9815,52.581722 43.9815,57 C43.9815,61.418278 40.399778,65 35.9815,65 C31.563222,65 27.9815,61.418278 27.9815,57 C27.9815,52.581722 31.563222,49 35.9815,49 Z M94.9815,49 C99.399778,49 102.9815,52.581722 102.9815,57 C102.9815,61.418278 99.399778,65 94.9815,65 C90.563222,65 86.9815,61.418278 86.9815,57 C86.9815,52.581722 90.563222,49 94.9815,49 Z M116.317,49.8 C115.453,50.988 114.643,52.095 113.86,53.148 C113.05,54.228 112.294,55.2 111.592,56.091 C111.43,56.307 111.187,56.577 110.917,56.955 C110.647,57.333 110.377,57.711 110.107,58.116 C109.81,58.548 109.567,58.953 109.351,59.331 C109.135,59.736 109.054,60.06 109.054,60.276 C109.054,60.438 109.135,60.546 109.297,60.627 C109.459,60.708 109.594,60.735 109.756,60.735 C110.026,60.735 110.458,60.708 110.998,60.627 C111.538,60.573 112.105,60.465 112.699,60.357 L114.481,60.033 C115.075,59.925 115.561,59.817 115.966,59.709 Z M30.583,16.574 C30.583,15.116 29.989,13.955 28.855,13.064 C28.261,12.659 27.64,12.389 26.965,12.281 C26.263,12.2 25.588,12.146 24.886,12.146 C24.238,12.146 23.563,12.227 22.915,12.335 C22.267,12.497 21.565,12.686 20.809,12.902 C20.89,11.876 20.971,10.931 21.079,10.067 L21.295,7.34 C22.267,7.259 23.185,7.151 24.049,7.043 L26.614,6.638 C26.776,6.611 26.965,6.584 27.181,6.557 C27.37,6.557 27.559,6.557 27.775,6.503 L28.342,6.395 C28.504,6.395 28.693,6.341 28.855,6.26 C28.963,6.206 29.044,6.152 29.098,6.098 C29.125,6.044 29.152,5.936 29.152,5.774 C29.152,5.666 29.071,5.531 28.936,5.369 C28.774,5.234 28.612,5.099 28.423,4.991 C28.207,4.883 27.991,4.775 27.775,4.667 C27.559,4.613 27.37,4.559 27.262,4.559 C27.154,4.559 27.073,4.586 26.965,4.613 C26.857,4.667 26.776,4.694 26.668,4.721 L26.317,4.829 C26.182,4.883 26.074,4.91 25.993,4.937 C25.291,5.126 24.535,5.261 23.725,5.369 C22.888,5.477 22.078,5.504 21.295,5.504 C21.106,5.342 20.944,5.207 20.809,5.153 C20.647,5.099 20.458,5.045 20.296,5.045 C20.134,5.045 19.999,5.072 19.837,5.126 C19.648,5.18 19.513,5.234 19.405,5.288 C19.243,5.612 19.135,6.098 19.081,6.746 C19,7.421 18.946,8.15 18.919,8.906 C18.865,9.716 18.811,10.499 18.811,11.255 C18.757,12.011 18.73,12.605 18.703,13.01 L18.649,13.361 L18.595,13.739 C18.541,14.009 18.514,14.252 18.514,14.495 C18.514,14.576 18.541,14.657 18.622,14.765 C18.676,14.873 18.784,14.954 18.892,15.035 C19,15.116 19.108,15.17 19.216,15.224 C19.324,15.278 19.405,15.305 19.513,15.305 C19.702,15.305 19.891,15.278 20.053,15.224 C20.188,15.17 20.35,15.116 20.539,15.008 C20.701,14.927 20.89,14.819 21.079,14.711 C21.241,14.63 21.43,14.549 21.646,14.468 C22.186,14.306 22.699,14.171 23.212,14.117 C23.698,14.063 24.238,14.009 24.832,14.009 C25.264,14.009 25.696,14.063 26.128,14.171 C26.533,14.279 26.911,14.441 27.235,14.657 C27.559,14.873 27.802,15.17 28.018,15.548 C28.207,15.926 28.315,16.385 28.315,16.925 C28.315,17.708 28.153,18.383 27.883,18.977 C27.559,19.571 27.181,20.057 26.695,20.435 C26.209,20.84 25.642,21.137 25.021,21.353 C24.373,21.569 23.725,21.65 23.077,21.65 C22.429,21.65 21.835,21.569 21.349,21.407 C20.809,21.245 20.377,21.056 19.999,20.84 C19.783,20.759 19.621,20.651 19.459,20.543 C19.297,20.462 19.162,20.381 19.027,20.3 C18.865,20.246 18.73,20.165 18.622,20.111 C18.487,20.084 18.379,20.057 18.298,20.057 C18.028,20.057 17.839,20.165 17.677,20.327 C17.488,20.543 17.407,20.786 17.407,21.083 C17.407,21.407 17.515,21.677 17.731,21.893 C17.947,22.136 18.19,22.325 18.487,22.433 C18.703,22.541 19.027,22.649 19.459,22.757 C19.837,22.892 20.269,23 20.701,23.081 C21.133,23.162 21.565,23.243 21.997,23.297 C22.402,23.351 22.753,23.405 23.023,23.405 C24.049,23.405 25.021,23.27 25.939,23 C26.857,22.73 27.667,22.325 28.369,21.731 C29.044,21.191 29.584,20.489 29.989,19.625 C30.367,18.761 30.583,17.762 30.583,16.574 Z M98.1779531,31.221 C98.1779531,29.205 97.2819531,27.637 95.9379531,26.517 C94.1459531,25.621 91.0099531,25.173 86.5299531,25.173 L65.4739531,25.173 L49.1219531,25.621 L36.1299531,25.621 C34.7859531,26.069 33.8899531,26.965 33.4419531,28.309 C32.7699531,29.653 32.5459531,30.773 32.5459531,31.669 C32.5459531,33.909 32.7699531,35.253 33.6659531,36.149 C34.5619531,37.045 35.4579531,37.493 36.8019531,37.493 L40.8339531,37.493 C43.0739531,37.493 45.5379531,37.493 48.4499531,37.269 L76.8979531,37.269 C80.4819531,37.493 83.8419531,37.493 86.9779531,37.493 L91.9059531,37.493 C93.4739531,37.493 95.0419531,37.045 96.3859531,35.925 C97.5059531,35.029 98.1779531,33.461 98.1779531,31.221 Z M39.7315,10.265 C41.6438229,10.265 43.2611522,11.5280173 43.7948182,13.2653819 L70.481,13.265 L70.4815,11.265 C75.2831493,12.5627431 78.897604,13.5480665 81.3248642,14.2209703 L81.5996641,14.2972266 C76.6133359,15.6448828 72.9072812,16.5882422 70.4815,17.1273047 L70.481,15.265 L43.9153526,15.2660146 C43.5607091,17.2550217 41.8224417,18.765 39.7315,18.765 C37.3842898,18.765 35.4815,16.8622102 35.4815,14.515 C35.4815,12.1677898 37.3842898,10.265 39.7315,10.265 Z M39.7315,11.265 C37.9365746,11.265 36.4815,12.7200746 36.4815,14.515 C36.4815,16.3099254 37.9365746,17.765 39.7315,17.765 C41.5264254,17.765 42.9815,16.3099254 42.9815,14.515 C42.9815,12.7200746 41.5264254,11.265 39.7315,11.265 Z" transform="translate(-13.981)"/></svg>