<svg xmlns="http://www.w3.org/2000/svg" width="103" height="203" viewBox="0 0 103 203"><path fill="#131313" d="M3063.70898,87.765 C3065.95508,87.765 3067.90169,88.5136979 3069.54883,90.0110937 C3071.19596,91.6582292 3072.01953,93.6048437 3072.01953,95.8509375 C3072.01953,100.193385 3072.01953,106.707057 3072.01953,115.391953 C3072.01953,118.985703 3072.01953,124.301458 3072.01953,131.339219 C3072.01953,138.826198 3072.01953,150.131536 3072.01953,165.255234 C3072.01953,167.501328 3071.19596,169.447943 3069.54883,171.095078 C3067.90169,172.592474 3065.95508,173.341172 3063.70898,173.341172 C3061.46289,173.341172 3059.59115,172.592474 3058.09375,171.095078 C3056.44661,169.447943 3055.62305,167.501328 3055.62305,165.255234 C3055.62305,164.955755 3055.62305,164.431667 3055.62305,163.682969 C3051.87956,166.67776 3047.68685,168.998724 3043.04492,170.645859 C3038.25326,172.442734 3033.08724,173.341172 3027.54687,173.341172 C3022.15625,173.341172 3017.66406,172.592474 3014.07031,171.095078 C3010.47656,169.597682 3007.55664,167.651068 3005.31055,165.255234 C3001.11784,160.763047 2998.72201,155.597031 2998.12305,149.757188 C2997.37435,143.917344 2997,139.275417 2997,135.831406 C2997,126.996771 2997,113.669948 2997,95.8509375 C2997,93.6048437 2997.82357,91.6582292 2999.4707,90.0110937 C3000.9681,88.5136979 3002.83984,87.765 3005.08594,87.765 C3007.33203,87.765 3009.27865,88.5136979 3010.92578,90.0110937 C3012.42318,91.6582292 3013.17187,93.6048437 3013.17187,95.8509375 C3013.17187,104.685573 3013.17187,118.012396 3013.17187,135.831406 C3013.17187,144.216823 3014.14518,149.832057 3016.0918,152.677109 C3018.18815,155.671901 3022.00651,157.169297 3027.54687,157.169297 C3034.13542,157.169297 3040.49935,154.773464 3046.63867,149.981797 C3052.62826,145.19013 3055.62305,138.975938 3055.62305,131.339219 C3055.62305,127.745469 3055.62305,122.429714 3055.62305,115.391953 C3055.62305,111.049505 3055.62305,104.535833 3055.62305,95.8509375 C3055.62305,93.6048437 3056.44661,91.6582292 3058.09375,90.0110937 C3059.59115,88.5136979 3061.46289,87.765 3063.70898,87.765 Z M3045.89648,105.958359 C3046.04622,105.958359 3046.19596,105.958359 3046.3457,105.958359 C3046.64518,105.958359 3046.86979,105.958359 3047.01953,105.958359 C3047.16927,105.958359 3047.39388,105.958359 3047.69336,105.958359 C3047.8431,105.958359 3047.99284,105.958359 3048.14258,105.958359 C3048.14258,108.803411 3048.14258,113.220729 3048.14258,119.210312 C3047.69336,119.210312 3046.94466,119.210312 3045.89648,119.210312 C3045.89648,116.964219 3045.89648,114.718125 3045.89648,112.472031 C3045.89648,110.225937 3045.89648,108.054714 3045.89648,105.958359 Z M3050.38867,119.210312 C3049.63997,122.055365 3048.51693,126.248073 3047.01953,131.788437 C3046.27083,128.943385 3045.14779,124.750677 3043.65039,119.210312 L3050.38867,119.210312 Z M3046.85,98.03 C3049.19721,98.03 3051.1,99.9327898 3051.1,102.28 C3051.1,104.62721 3049.19721,106.53 3046.85,106.53 C3044.50279,106.53 3042.6,104.62721 3042.6,102.28 C3042.6,99.9327898 3044.50279,98.03 3046.85,98.03 Z M3046.85,99.03 C3045.05507,99.03 3043.6,100.485075 3043.6,102.28 C3043.6,104.074925 3045.05507,105.53 3046.85,105.53 C3048.64493,105.53 3050.1,104.074925 3050.1,102.28 C3050.1,100.485075 3048.64493,99.03 3046.85,99.03 Z M2989.51953,136.280625 C2989.51953,148.85875 2991.76562,158.891302 2996.25781,166.378281 C3000.75,173.86526 3007.48828,178.731797 3016.47266,180.977891 C3016.47266,181.427109 3016.39779,182.175807 3016.24805,183.223984 C3012.05534,182.175807 3008.38672,180.678411 3005.24219,178.731797 C3002.2474,176.635443 2999.62695,174.314479 2997.38086,171.768906 C2993.33789,166.8275 2990.64258,161.137396 2989.29492,154.698594 C2987.94727,148.409531 2987.27344,142.270208 2987.27344,136.280625 C2987.27344,129.542344 2987.27344,119.434922 2987.27344,105.958359 C2987.42318,105.958359 2987.57292,105.958359 2987.72266,105.958359 C2988.02214,105.958359 2988.24674,105.958359 2988.39648,105.958359 C2988.54622,105.958359 2988.69596,105.958359 2988.8457,105.958359 C2989.14518,105.958359 2989.36979,105.958359 2989.51953,105.958359 C2989.51953,110.899766 2989.51953,115.916042 2989.51953,121.007187 C2989.51953,126.098333 2989.51953,131.189479 2989.51953,136.280625 Z M3016.69727,178.956406 C3019.39258,180.004583 3023.43555,181.576849 3028.82617,183.673203 C3025.98112,184.122422 3021.71354,184.79625 3016.02344,185.694687 C3016.02344,185.095729 3016.54753,179.854844 3016.69727,178.956406 Z M3033.2835,101 C3033.9855,101 3034.6605,101.135 3035.2815,101.405 C3035.9025,101.675 3036.4425,102.026 3036.9015,102.458 C3037.3335,102.917 3037.6845,103.43 3037.9545,103.97 C3038.1975,104.537 3038.3325,105.104 3038.3325,105.671 C3038.3325,106.778 3038.1435,107.804 3037.7655,108.776 C3037.3605,109.775 3036.7665,110.639 3036.0105,111.395 C3035.3895,111.989 3034.7955,112.556 3034.2015,113.15 L3032.3925,114.905 L3031.2855,115.958 C3030.8805,116.336 3030.3675,116.795 3029.7465,117.308 C3030.6375,117.2 3031.3935,117.146 3031.9875,117.092 C3032.5815,117.065 3033.1485,117.038 3033.6885,116.984 C3034.2555,116.957 3034.8495,116.93 3035.4975,116.93 C3036.1185,116.93 3036.7125,116.876 3037.3065,116.822 L3037.6845,116.768 L3038.0625,116.687 C3038.2785,116.633 3038.5215,116.606 3038.7645,116.606 C3039.0885,116.606 3039.3585,116.768 3039.6015,117.092 C3039.8445,117.416 3039.9795,117.74 3039.9795,118.118 C3039.9795,118.361 3039.8715,118.55 3039.7095,118.658 C3039.5475,118.82 3039.3855,118.874 3039.2235,118.874 C3038.6295,118.874 3038.0625,118.847 3037.4955,118.739 C3036.9015,118.658 3036.3075,118.604 3035.7405,118.604 C3034.7145,118.604 3033.6615,118.658 3032.5815,118.766 C3031.4745,118.874 3030.4215,118.982 3029.3955,119.117 C3029.2605,119.144 3029.1255,119.171 3029.0175,119.198 C3028.8825,119.225 3028.7475,119.252 3028.6125,119.279 C3028.3425,119.333 3028.0995,119.36 3027.8835,119.36 C3027.5325,119.36 3027.2355,119.279 3026.9655,119.063 C3026.6685,118.874 3026.5335,118.577 3026.5335,118.199 C3026.5335,117.956 3026.5875,117.74 3026.6955,117.524 C3026.8035,117.362 3026.9655,117.173 3027.1545,116.984 C3027.3705,116.768 3027.5595,116.552 3027.7755,116.336 C3027.9915,116.12 3028.2075,115.931 3028.4775,115.715 C3029.3955,114.986 3030.2865,114.23 3031.1235,113.42 L3033.6885,111.017 C3034.0125,110.693 3034.3635,110.342 3034.6875,109.964 C3034.9845,109.613 3035.2545,109.235 3035.4975,108.803 C3035.7405,108.398 3035.9295,107.966 3036.0915,107.48 C3036.2535,107.021 3036.3345,106.535 3036.3345,105.995 C3036.3345,105.563 3036.2535,105.158 3036.0915,104.753 C3035.9295,104.375 3035.7135,104.024 3035.4435,103.7 C3035.1465,103.403 3034.8225,103.16 3034.4445,102.971 C3034.0665,102.809 3033.6345,102.701 3033.2025,102.701 C3032.3925,102.701 3031.7445,102.89 3031.2855,103.241 C3030.7995,103.619 3030.3675,104.105 3029.9895,104.753 C3029.8815,104.915 3029.8275,105.05 3029.7735,105.212 C3029.7195,105.374 3029.6385,105.536 3029.5845,105.671 C3029.5035,105.833 3029.4225,105.995 3029.3415,106.13 C3029.2605,106.292 3029.1795,106.427 3029.1255,106.508 C3028.9635,106.67 3028.8285,106.805 3028.7205,106.886 C3028.5855,106.994 3028.4235,107.021 3028.2345,107.021 C3027.9645,107.021 3027.7215,106.913 3027.4785,106.67 C3027.2085,106.454 3027.1005,106.211 3027.1005,105.887 C3027.1005,105.644 3027.1545,105.347 3027.2895,105.023 C3027.3975,104.699 3027.5595,104.375 3027.7485,104.051 C3027.9105,103.727 3028.1265,103.43 3028.3425,103.133 C3028.5585,102.863 3028.7475,102.62 3028.9635,102.458 C3029.5575,101.945 3030.2325,101.567 3030.9885,101.324 C3031.7445,101.108 3032.5005,101 3033.2835,101 Z M2975.6335,100.162 C2976.0115,100.162 2976.3085,100.27 2976.5515,100.432 C2976.7675,100.594 2976.8755,100.864 2976.8755,101.215 C2976.8755,101.404 2976.8485,101.566 2976.8485,101.728 L2976.7675,102.241 L2976.6595,102.754 C2976.6055,102.943 2976.5515,103.105 2976.5245,103.267 C2976.0385,105.13 2975.7415,107.02 2975.5795,108.91 C2975.4175,110.827 2975.3635,112.717 2975.3635,114.607 C2975.3635,114.877 2975.3635,115.201 2975.4175,115.552 C2975.4175,115.903 2975.4715,116.227 2975.5255,116.524 C2975.5525,116.848 2975.5795,117.145 2975.6335,117.388 C2975.6335,117.658 2975.6605,117.82 2975.6605,117.901 C2975.6605,118.063 2975.5255,118.198 2975.3095,118.306 C2975.0395,118.414 2974.7965,118.468 2974.5805,118.468 C2974.1485,118.468 2973.8245,118.36 2973.5815,118.09 C2973.3385,117.847 2973.2305,117.523 2973.2305,117.091 C2973.2305,116.335 2973.2575,115.444 2973.3115,114.418 C2973.3385,113.392 2973.3925,112.366 2973.4465,111.34 C2973.4735,110.8 2973.5275,110.179 2973.5815,109.531 L2973.7975,107.614 C2973.8785,106.966 2973.9595,106.372 2974.0675,105.778 C2974.1215,105.184 2974.2025,104.671 2974.2835,104.239 C2973.9055,104.644 2973.6085,104.995 2973.3385,105.292 C2973.0685,105.589 2972.8525,105.805 2972.7175,105.94 L2972.1775,106.534 C2971.9615,106.777 2971.7995,106.966 2971.6645,107.128 C2971.4485,107.344 2971.2595,107.506 2971.0705,107.614 C2970.8545,107.722 2970.6385,107.776 2970.3955,107.776 C2970.0715,107.776 2969.7475,107.695 2969.4775,107.479 C2969.1535,107.29 2969.0185,107.047 2969.0185,106.723 C2969.0185,106.642 2969.0455,106.561 2969.1535,106.453 C2969.2345,106.372 2969.3425,106.291 2969.4775,106.183 L2969.7205,106.021 C2969.7745,105.967 2969.8555,105.94 2969.9365,105.886 L2970.1525,105.778 C2970.2065,105.724 2970.2875,105.67 2970.3415,105.616 C2970.9085,105.076 2971.5025,104.482 2972.1235,103.807 C2972.7175,103.159 2973.2575,102.511 2973.7705,101.917 C2973.9325,101.728 2974.1215,101.512 2974.2835,101.296 C2974.4185,101.08 2974.5805,100.891 2974.7965,100.675 C2974.8775,100.594 2975.0125,100.486 2975.1745,100.351 C2975.3365,100.243 2975.4715,100.162 2975.6335,100.162 Z M2988.45,98.03 C2990.79721,98.03 2992.7,99.9327898 2992.7,102.28 C2992.7,104.62721 2990.79721,106.53 2988.45,106.53 C2986.10279,106.53 2984.2,104.62721 2984.2,102.28 C2984.2,99.9327898 2986.10279,98.03 2988.45,98.03 Z M2988.45,99.03 C2986.65507,99.03 2985.2,100.485075 2985.2,102.28 C2985.2,104.074925 2986.65507,105.53 2988.45,105.53 C2990.24493,105.53 2991.7,104.074925 2991.7,102.28 C2991.7,100.485075 2990.24493,99.03 2988.45,99.03 Z M3085.8755,58.703 C3086.0105,58.703 3086.1725,58.73 3086.3885,58.784 C3086.5775,58.838 3086.7665,58.892 3086.9555,59 C3087.1175,59.108 3087.2525,59.216 3087.3875,59.324 C3087.4955,59.459 3087.5765,59.594 3087.5765,59.756 C3087.5765,60.08 3087.5495,60.377 3087.4955,60.674 C3087.4415,60.971 3087.4145,61.268 3087.4145,61.565 C3087.3605,62.375 3087.3065,63.185 3087.2795,63.968 C3087.2255,64.778 3087.1715,65.507 3087.1715,66.209 C3087.1175,66.911 3087.0905,67.559 3087.0905,68.126 C3087.0635,68.72 3087.0635,69.179 3087.0635,69.557 C3087.0365,69.827 3087.0365,70.07 3087.0365,70.313 C3087.0365,70.583 3087.0365,70.88 3087.0635,71.231 C3087.2795,71.177 3087.5765,71.123 3087.9815,71.042 C3088.3595,70.988 3088.7645,70.961 3089.1965,70.961 C3089.8985,70.961 3090.2765,71.312 3090.2765,71.96 C3090.2765,72.23 3090.1955,72.446 3090.0335,72.608 C3089.8715,72.797 3089.6555,72.878 3089.4125,72.878 L3086.9825,72.932 L3086.9825,74.525 C3086.9825,75.011 3087.0095,75.47 3087.1175,75.902 C3087.2255,76.334 3087.2795,76.793 3087.2795,77.252 C3087.2795,77.576 3087.1445,77.792 3086.9285,77.954 C3086.6855,78.089 3086.4155,78.17 3086.1455,78.17 C3085.2815,78.17 3084.8495,77.657 3084.8495,76.604 C3084.8495,76.388 3084.8495,75.929 3084.9035,75.281 L3084.9575,73.175 C3084.3095,73.283 3083.7695,73.364 3083.2835,73.472 C3082.7705,73.58 3082.2845,73.661 3081.8255,73.769 L3081.0155,73.958 C3080.7455,74.039 3080.4755,74.093 3080.2055,74.147 C3079.9085,74.201 3079.6115,74.255 3079.3415,74.282 C3079.0445,74.336 3078.7745,74.363 3078.5315,74.363 C3078.2075,74.363 3077.8835,74.336 3077.5595,74.228 C3077.2085,74.12 3076.9115,73.985 3076.6415,73.796 C3076.3715,73.607 3076.1555,73.364 3075.9935,73.067 C3075.8315,72.797 3075.7505,72.473 3075.7505,72.095 C3075.7505,71.879 3075.7775,71.636 3075.8855,71.366 C3075.9665,71.123 3076.0745,70.88 3076.2095,70.61 C3076.3445,70.34 3076.4795,70.097 3076.6415,69.854 C3076.8035,69.638 3076.9385,69.422 3077.1005,69.233 C3078.2615,67.64 3079.4495,66.101 3080.6915,64.589 C3081.9335,63.104 3083.1485,61.565 3084.3365,59.972 C3084.4175,59.837 3084.5255,59.702 3084.6335,59.54 C3084.7145,59.405 3084.8225,59.27 3084.9575,59.108 C3085.0655,59 3085.2005,58.892 3085.3895,58.811 C3085.5515,58.757 3085.7135,58.703 3085.8755,58.703 Z M2985.1495,59.027 C2985.7975,59.027 2986.4455,59.108 2987.0935,59.216 C2987.7415,59.351 2988.3355,59.567 2988.8755,59.864 C2989.4155,60.188 2989.8475,60.62 2990.1715,61.133 C2990.4955,61.673 2990.6575,62.321 2990.6575,63.077 C2990.6575,63.914 2990.4685,64.616 2990.1175,65.21 C2989.7395,65.804 2989.1185,66.398 2988.2545,66.965 C2988.9025,67.127 2989.5235,67.343 2990.0635,67.586 C2990.6035,67.829 2991.0895,68.126 2991.4945,68.45 C2991.8725,68.828 2992.1965,69.233 2992.4395,69.692 C2992.6555,70.178 2992.7635,70.718 2992.7635,71.312 C2992.7635,72.338 2992.5475,73.229 2992.1155,73.985 C2991.6565,74.768 2991.0895,75.416 2990.3875,75.956 C2989.6855,76.496 2988.8755,76.874 2988.0115,77.144 C2987.1205,77.441 2986.2295,77.576 2985.3655,77.576 C2985.0415,77.576 2984.6635,77.549 2984.2315,77.468 C2983.7725,77.414 2983.3135,77.333 2982.8545,77.225 C2982.3685,77.117 2981.9095,77.009 2981.4775,76.847 C2981.0185,76.712 2980.6405,76.55 2980.3165,76.388 C2980.0465,76.253 2979.8035,76.064 2979.5875,75.794 C2979.3445,75.578 2979.2365,75.281 2979.2365,74.957 C2979.2365,74.66 2979.3175,74.417 2979.5335,74.228 C2979.7225,74.039 2979.9385,73.931 2980.2085,73.931 C2980.3435,73.931 2980.5325,74.012 2980.7485,74.12 C2980.8295,74.174 2980.9375,74.228 2981.0455,74.282 C2981.1535,74.336 2981.2885,74.417 2981.4505,74.498 C2981.6935,74.66 2981.9365,74.795 2982.1795,74.93 C2982.4225,75.092 2982.6925,75.2 2982.9625,75.281 C2983.7185,75.578 2984.4475,75.713 2985.1225,75.713 C2985.7165,75.713 2986.3105,75.632 2986.9315,75.443 C2987.5525,75.281 2988.1195,75.011 2988.6055,74.66 C2989.0915,74.309 2989.5235,73.85 2989.8475,73.31 C2990.1445,72.797 2990.3065,72.176 2990.3065,71.447 C2990.3065,71.015 2990.1985,70.61 2990.0095,70.259 C2989.7935,69.935 2989.5505,69.638 2989.2535,69.395 C2988.9295,69.179 2988.6055,68.99 2988.2275,68.828 C2987.8495,68.666 2987.4985,68.558 2987.1475,68.45 C2986.9585,68.423 2986.7695,68.369 2986.6075,68.315 C2986.4185,68.261 2986.2295,68.234 2986.0405,68.234 C2985.7975,68.234 2985.5815,68.261 2985.3655,68.315 C2985.1495,68.369 2984.9335,68.45 2984.7175,68.531 C2984.5015,68.612 2984.3125,68.693 2984.0965,68.747 C2983.8805,68.828 2983.6645,68.855 2983.4485,68.855 C2983.1515,68.855 2982.8815,68.747 2982.6115,68.504 C2982.3145,68.261 2982.1795,67.991 2982.1795,67.667 C2982.1795,67.397 2982.2605,67.181 2982.4225,67.019 C2982.5035,66.938 2982.6655,66.857 2982.9355,66.776 C2983.1785,66.722 2983.4215,66.668 2983.6915,66.668 L2984.0965,66.668 C2984.4205,66.668 2984.7175,66.641 2985.0145,66.56 C2985.3115,66.506 2985.6625,66.371 2986.0945,66.182 C2986.4995,66.02 2986.8775,65.777 2987.2555,65.48 C2987.6335,65.183 2987.9305,64.832 2988.2005,64.4 C2988.4435,64.022 2988.5785,63.536 2988.5785,62.996 C2988.5785,62.564 2988.4705,62.213 2988.3085,61.916 C2988.1195,61.646 2987.9035,61.43 2987.6335,61.268 C2987.3365,61.106 2987.0125,60.998 2986.6615,60.944 C2986.3105,60.89 2985.9865,60.836 2985.6625,60.836 C2985.2305,60.836 2984.7715,60.944 2984.3395,61.133 C2983.8535,61.349 2983.4485,61.538 2983.0705,61.727 C2982.8815,61.835 2982.7195,61.916 2982.5575,61.997 L2982.0715,62.24 C2981.7205,62.402 2981.4235,62.456 2981.2075,62.456 C2980.9645,62.456 2980.7485,62.348 2980.5595,62.132 C2980.3435,61.916 2980.2625,61.646 2980.2625,61.349 C2980.2625,61.079 2980.3975,60.782 2980.7215,60.512 C2981.0455,60.242 2981.4505,59.972 2981.9365,59.756 C2982.4225,59.54 2982.9355,59.378 2983.5295,59.216 C2984.0965,59.108 2984.6365,59.027 2985.1495,59.027 Z M3009.08594,60.765 C3011.33203,60.765 3013.27865,61.5136979 3014.92578,63.0110937 C3016.57292,64.6582292 3017.39648,66.6048437 3017.39648,68.8509375 C3017.39648,71.0970312 3016.57292,72.968776 3014.92578,74.4661719 C3013.27865,76.1133073 3011.33203,76.936875 3009.08594,76.936875 C3006.98958,76.936875 3005.11784,76.1133073 3003.4707,74.4661719 C3001.82357,72.968776 3001,71.0970312 3001,68.8509375 C3001,66.6048437 3001.82357,64.6582292 3003.4707,63.0110937 C3005.11784,61.5136979 3006.98958,60.765 3009.08594,60.765 Z M3062.08594,60.765 C3064.33203,60.765 3066.27865,61.5136979 3067.92578,63.0110937 C3069.57292,64.6582292 3070.39648,66.6048437 3070.39648,68.8509375 C3070.39648,71.0970312 3069.57292,72.968776 3067.92578,74.4661719 C3066.27865,76.1133073 3064.33203,76.936875 3062.08594,76.936875 C3059.98958,76.936875 3058.11784,76.1133073 3056.4707,74.4661719 C3054.82357,72.968776 3054,71.0970312 3054,68.8509375 C3054,66.6048437 3054.82357,64.6582292 3056.4707,63.0110937 C3058.11784,61.5136979 3059.98958,60.765 3062.08594,60.765 Z M3085.3355,61.565 C3084.4715,62.753 3083.6615,63.86 3082.8785,64.913 C3082.0685,65.993 3081.3125,66.965 3080.6105,67.856 C3080.4485,68.072 3080.2055,68.342 3079.9355,68.72 C3079.6655,69.098 3079.3955,69.476 3079.1255,69.881 C3078.8285,70.313 3078.5855,70.718 3078.3695,71.096 C3078.1535,71.501 3078.0725,71.825 3078.0725,72.041 C3078.0725,72.203 3078.1535,72.311 3078.3155,72.392 C3078.4775,72.473 3078.6125,72.5 3078.7745,72.5 C3079.0445,72.5 3079.4765,72.473 3080.0165,72.392 C3080.5565,72.338 3081.1235,72.23 3081.7175,72.122 L3083.4995,71.798 C3084.0935,71.69 3084.5795,71.582 3084.9845,71.474 Z M2999.6015,28.339 C2999.6015,26.881 2999.0075,25.72 2997.8735,24.829 C2997.2795,24.424 2996.6585,24.154 2995.9835,24.046 C2995.2815,23.965 2994.6065,23.911 2993.9045,23.911 C2993.2565,23.911 2992.5815,23.992 2991.9335,24.1 C2991.2855,24.262 2990.5835,24.451 2989.8275,24.667 C2989.9085,23.641 2989.9895,22.696 2990.0975,21.832 L2990.3135,19.105 C2991.2855,19.024 2992.2035,18.916 2993.0675,18.808 L2995.6325,18.403 C2995.7945,18.376 2995.9835,18.349 2996.1995,18.322 C2996.3885,18.322 2996.5775,18.322 2996.7935,18.268 L2997.3605,18.16 C2997.5225,18.16 2997.7115,18.106 2997.8735,18.025 C2997.9815,17.971 2998.0625,17.917 2998.1165,17.863 C2998.1435,17.809 2998.1705,17.701 2998.1705,17.539 C2998.1705,17.431 2998.0895,17.296 2997.9545,17.134 C2997.7925,16.999 2997.6305,16.864 2997.4415,16.756 C2997.2255,16.648 2997.0095,16.54 2996.7935,16.432 C2996.5775,16.378 2996.3885,16.324 2996.2805,16.324 C2996.1725,16.324 2996.0915,16.351 2995.9835,16.378 C2995.8755,16.432 2995.7945,16.459 2995.6865,16.486 L2995.3355,16.594 C2995.2005,16.648 2995.0925,16.675 2995.0115,16.702 C2994.3095,16.891 2993.5535,17.026 2992.7435,17.134 C2991.9065,17.242 2991.0965,17.269 2990.3135,17.269 C2990.1245,17.107 2989.9625,16.972 2989.8275,16.918 C2989.6655,16.864 2989.4765,16.81 2989.3145,16.81 C2989.1525,16.81 2989.0175,16.837 2988.8555,16.891 C2988.6665,16.945 2988.5315,16.999 2988.4235,17.053 C2988.2615,17.377 2988.1535,17.863 2988.0995,18.511 C2988.0185,19.186 2987.9645,19.915 2987.9375,20.671 C2987.8835,21.481 2987.8295,22.264 2987.8295,23.02 C2987.7755,23.776 2987.7485,24.37 2987.7215,24.775 L2987.6675,25.126 L2987.6135,25.504 C2987.5595,25.774 2987.5325,26.017 2987.5325,26.26 C2987.5325,26.341 2987.5595,26.422 2987.6405,26.53 C2987.6945,26.638 2987.8025,26.719 2987.9105,26.8 C2988.0185,26.881 2988.1265,26.935 2988.2345,26.989 C2988.3425,27.043 2988.4235,27.07 2988.5315,27.07 C2988.7205,27.07 2988.9095,27.043 2989.0715,26.989 C2989.2065,26.935 2989.3685,26.881 2989.5575,26.773 C2989.7195,26.692 2989.9085,26.584 2990.0975,26.476 C2990.2595,26.395 2990.4485,26.314 2990.6645,26.233 C2991.2045,26.071 2991.7175,25.936 2992.2305,25.882 C2992.7165,25.828 2993.2565,25.774 2993.8505,25.774 C2994.2825,25.774 2994.7145,25.828 2995.1465,25.936 C2995.5515,26.044 2995.9295,26.206 2996.2535,26.422 C2996.5775,26.638 2996.8205,26.935 2997.0365,27.313 C2997.2255,27.691 2997.3335,28.15 2997.3335,28.69 C2997.3335,29.473 2997.1715,30.148 2996.9015,30.742 C2996.5775,31.336 2996.1995,31.822 2995.7135,32.2 C2995.2275,32.605 2994.6605,32.902 2994.0395,33.118 C2993.3915,33.334 2992.7435,33.415 2992.0955,33.415 C2991.4475,33.415 2990.8535,33.334 2990.3675,33.172 C2989.8275,33.01 2989.3955,32.821 2989.0175,32.605 C2988.8015,32.524 2988.6395,32.416 2988.4775,32.308 C2988.3155,32.227 2988.1805,32.146 2988.0455,32.065 C2987.8835,32.011 2987.7485,31.93 2987.6405,31.876 C2987.5055,31.849 2987.3975,31.822 2987.3165,31.822 C2987.0465,31.822 2986.8575,31.93 2986.6955,32.092 C2986.5065,32.308 2986.4255,32.551 2986.4255,32.848 C2986.4255,33.172 2986.5335,33.442 2986.7495,33.658 C2986.9655,33.901 2987.2085,34.09 2987.5055,34.198 C2987.7215,34.306 2988.0455,34.414 2988.4775,34.522 C2988.8555,34.657 2989.2875,34.765 2989.7195,34.846 C2990.1515,34.927 2990.5835,35.008 2991.0155,35.062 C2991.4205,35.116 2991.7715,35.17 2992.0415,35.17 C2993.0675,35.17 2994.0395,35.035 2994.9575,34.765 C2995.8755,34.495 2996.6855,34.09 2997.3875,33.496 C2998.0625,32.956 2998.6025,32.254 2999.0075,31.39 C2999.3855,30.526 2999.6015,29.527 2999.6015,28.339 Z M3067.19645,42.986 C3067.19645,40.97 3066.30045,39.402 3064.95645,38.282 C3063.16445,37.386 3060.02845,36.938 3055.54845,36.938 L3034.49245,36.938 L3018.14045,37.386 L3005.14845,37.386 C3003.80445,37.834 3002.90845,38.73 3002.46045,40.074 C3001.78845,41.418 3001.56445,42.538 3001.56445,43.434 C3001.56445,45.674 3001.78845,47.018 3002.68445,47.914 C3003.58045,48.81 3004.47645,49.258 3005.82045,49.258 L3009.85245,49.258 C3012.09245,49.258 3014.55645,49.258 3017.46845,49.034 L3045.91645,49.034 C3049.50045,49.258 3052.86045,49.258 3055.99645,49.258 L3060.92445,49.258 C3062.49245,49.258 3064.06045,48.81 3065.40445,47.69 C3066.52445,46.794 3067.19645,45.226 3067.19645,42.986 Z M3008.75,22.03 C3010.66232,22.03 3012.27965,23.2930173 3012.81332,25.0303819 L3039.4995,25.03 L3039.5,23.03 C3044.30165,24.3277431 3047.9161,25.3130665 3050.34336,25.9859703 L3050.61816,26.0622266 C3045.63184,27.4098828 3041.92578,28.3532422 3039.5,28.8923047 L3039.4995,27.03 L3012.93385,27.0310146 C3012.57921,29.0200217 3010.84094,30.53 3008.75,30.53 C3006.40279,30.53 3004.5,28.6272102 3004.5,26.28 C3004.5,23.9327898 3006.40279,22.03 3008.75,22.03 Z M3008.75,23.03 C3006.95507,23.03 3005.5,24.4850746 3005.5,26.28 C3005.5,28.0749254 3006.95507,29.53 3008.75,29.53 C3010.54493,29.53 3012,28.0749254 3012,26.28 C3012,24.4850746 3010.54493,23.03 3008.75,23.03 Z" transform="translate(-2983 -31.765)"/></svg>