<svg xmlns="http://www.w3.org/2000/svg" width="103" height="203" viewBox="0 0 103 203"><path fill="#131313" d="M3224.70898,87.765 C3226.95508,87.765 3228.90169,88.5136979 3230.54883,90.0110937 C3232.19596,91.6582292 3233.01953,93.6048437 3233.01953,95.8509375 C3233.01953,100.193385 3233.01953,106.707057 3233.01953,115.391953 C3233.01953,118.985703 3233.01953,124.301458 3233.01953,131.339219 C3233.01953,138.826198 3233.01953,150.131536 3233.01953,165.255234 C3233.01953,167.501328 3232.19596,169.447943 3230.54883,171.095078 C3228.90169,172.592474 3226.95508,173.341172 3224.70898,173.341172 C3222.46289,173.341172 3220.59115,172.592474 3219.09375,171.095078 C3217.44661,169.447943 3216.62305,167.501328 3216.62305,165.255234 C3216.62305,164.955755 3216.62305,164.431667 3216.62305,163.682969 C3212.87956,166.67776 3208.68685,168.998724 3204.04492,170.645859 C3199.25326,172.442734 3194.08724,173.341172 3188.54687,173.341172 C3183.15625,173.341172 3178.66406,172.592474 3175.07031,171.095078 C3171.47656,169.597682 3168.55664,167.651068 3166.31055,165.255234 C3162.11784,160.763047 3159.72201,155.597031 3159.12305,149.757188 C3158.37435,143.917344 3158,139.275417 3158,135.831406 C3158,126.996771 3158,113.669948 3158,95.8509375 C3158,93.6048437 3158.82357,91.6582292 3160.4707,90.0110937 C3161.9681,88.5136979 3163.83984,87.765 3166.08594,87.765 C3168.33203,87.765 3170.27865,88.5136979 3171.92578,90.0110937 C3173.42318,91.6582292 3174.17187,93.6048437 3174.17187,95.8509375 C3174.17187,104.685573 3174.17187,118.012396 3174.17187,135.831406 C3174.17187,144.216823 3175.14518,149.832057 3177.0918,152.677109 C3179.18815,155.671901 3183.00651,157.169297 3188.54687,157.169297 C3195.13542,157.169297 3201.49935,154.773464 3207.63867,149.981797 C3213.62826,145.19013 3216.62305,138.975938 3216.62305,131.339219 C3216.62305,127.745469 3216.62305,122.429714 3216.62305,115.391953 C3216.62305,111.049505 3216.62305,104.535833 3216.62305,95.8509375 C3216.62305,93.6048437 3217.44661,91.6582292 3219.09375,90.0110937 C3220.59115,88.5136979 3222.46289,87.765 3224.70898,87.765 Z M3206.89648,105.958359 C3207.04622,105.958359 3207.19596,105.958359 3207.3457,105.958359 C3207.64518,105.958359 3207.86979,105.958359 3208.01953,105.958359 C3208.16927,105.958359 3208.39388,105.958359 3208.69336,105.958359 C3208.8431,105.958359 3208.99284,105.958359 3209.14258,105.958359 C3209.14258,108.803411 3209.14258,113.220729 3209.14258,119.210312 C3208.69336,119.210312 3207.94466,119.210312 3206.89648,119.210312 C3206.89648,116.964219 3206.89648,114.718125 3206.89648,112.472031 C3206.89648,110.225937 3206.89648,108.054714 3206.89648,105.958359 Z M3211.38867,119.210312 C3210.63997,122.055365 3209.51693,126.248073 3208.01953,131.788437 C3207.27083,128.943385 3206.14779,124.750677 3204.65039,119.210312 L3211.38867,119.210312 Z M3207.85,98.03 C3210.19721,98.03 3212.1,99.9327898 3212.1,102.28 C3212.1,104.62721 3210.19721,106.53 3207.85,106.53 C3205.50279,106.53 3203.6,104.62721 3203.6,102.28 C3203.6,99.9327898 3205.50279,98.03 3207.85,98.03 Z M3207.85,99.03 C3206.05507,99.03 3204.6,100.485075 3204.6,102.28 C3204.6,104.074925 3206.05507,105.53 3207.85,105.53 C3209.64493,105.53 3211.1,104.074925 3211.1,102.28 C3211.1,100.485075 3209.64493,99.03 3207.85,99.03 Z M3150.51953,136.280625 C3150.51953,148.85875 3152.76562,158.891302 3157.25781,166.378281 C3161.75,173.86526 3168.48828,178.731797 3177.47266,180.977891 C3177.47266,181.427109 3177.39779,182.175807 3177.24805,183.223984 C3173.05534,182.175807 3169.38672,180.678411 3166.24219,178.731797 C3163.2474,176.635443 3160.62695,174.314479 3158.38086,171.768906 C3154.33789,166.8275 3151.64258,161.137396 3150.29492,154.698594 C3148.94727,148.409531 3148.27344,142.270208 3148.27344,136.280625 C3148.27344,129.542344 3148.27344,119.434922 3148.27344,105.958359 C3148.42318,105.958359 3148.57292,105.958359 3148.72266,105.958359 C3149.02214,105.958359 3149.24674,105.958359 3149.39648,105.958359 C3149.54622,105.958359 3149.69596,105.958359 3149.8457,105.958359 C3150.14518,105.958359 3150.36979,105.958359 3150.51953,105.958359 C3150.51953,110.899766 3150.51953,115.916042 3150.51953,121.007187 C3150.51953,126.098333 3150.51953,131.189479 3150.51953,136.280625 Z M3177.69727,178.956406 C3180.39258,180.004583 3184.43555,181.576849 3189.82617,183.673203 C3186.98112,184.122422 3182.71354,184.79625 3177.02344,185.694687 C3177.02344,185.095729 3177.54753,179.854844 3177.69727,178.956406 Z M3194.2835,101 C3194.9855,101 3195.6605,101.135 3196.2815,101.405 C3196.9025,101.675 3197.4425,102.026 3197.9015,102.458 C3198.3335,102.917 3198.6845,103.43 3198.9545,103.97 C3199.1975,104.537 3199.3325,105.104 3199.3325,105.671 C3199.3325,106.778 3199.1435,107.804 3198.7655,108.776 C3198.3605,109.775 3197.7665,110.639 3197.0105,111.395 C3196.3895,111.989 3195.7955,112.556 3195.2015,113.15 L3193.3925,114.905 L3192.2855,115.958 C3191.8805,116.336 3191.3675,116.795 3190.7465,117.308 C3191.6375,117.2 3192.3935,117.146 3192.9875,117.092 C3193.5815,117.065 3194.1485,117.038 3194.6885,116.984 C3195.2555,116.957 3195.8495,116.93 3196.4975,116.93 C3197.1185,116.93 3197.7125,116.876 3198.3065,116.822 L3198.6845,116.768 L3199.0625,116.687 C3199.2785,116.633 3199.5215,116.606 3199.7645,116.606 C3200.0885,116.606 3200.3585,116.768 3200.6015,117.092 C3200.8445,117.416 3200.9795,117.74 3200.9795,118.118 C3200.9795,118.361 3200.8715,118.55 3200.7095,118.658 C3200.5475,118.82 3200.3855,118.874 3200.2235,118.874 C3199.6295,118.874 3199.0625,118.847 3198.4955,118.739 C3197.9015,118.658 3197.3075,118.604 3196.7405,118.604 C3195.7145,118.604 3194.6615,118.658 3193.5815,118.766 C3192.4745,118.874 3191.4215,118.982 3190.3955,119.117 C3190.2605,119.144 3190.1255,119.171 3190.0175,119.198 C3189.8825,119.225 3189.7475,119.252 3189.6125,119.279 C3189.3425,119.333 3189.0995,119.36 3188.8835,119.36 C3188.5325,119.36 3188.2355,119.279 3187.9655,119.063 C3187.6685,118.874 3187.5335,118.577 3187.5335,118.199 C3187.5335,117.956 3187.5875,117.74 3187.6955,117.524 C3187.8035,117.362 3187.9655,117.173 3188.1545,116.984 C3188.3705,116.768 3188.5595,116.552 3188.7755,116.336 C3188.9915,116.12 3189.2075,115.931 3189.4775,115.715 C3190.3955,114.986 3191.2865,114.23 3192.1235,113.42 L3194.6885,111.017 C3195.0125,110.693 3195.3635,110.342 3195.6875,109.964 C3195.9845,109.613 3196.2545,109.235 3196.4975,108.803 C3196.7405,108.398 3196.9295,107.966 3197.0915,107.48 C3197.2535,107.021 3197.3345,106.535 3197.3345,105.995 C3197.3345,105.563 3197.2535,105.158 3197.0915,104.753 C3196.9295,104.375 3196.7135,104.024 3196.4435,103.7 C3196.1465,103.403 3195.8225,103.16 3195.4445,102.971 C3195.0665,102.809 3194.6345,102.701 3194.2025,102.701 C3193.3925,102.701 3192.7445,102.89 3192.2855,103.241 C3191.7995,103.619 3191.3675,104.105 3190.9895,104.753 C3190.8815,104.915 3190.8275,105.05 3190.7735,105.212 C3190.7195,105.374 3190.6385,105.536 3190.5845,105.671 C3190.5035,105.833 3190.4225,105.995 3190.3415,106.13 C3190.2605,106.292 3190.1795,106.427 3190.1255,106.508 C3189.9635,106.67 3189.8285,106.805 3189.7205,106.886 C3189.5855,106.994 3189.4235,107.021 3189.2345,107.021 C3188.9645,107.021 3188.7215,106.913 3188.4785,106.67 C3188.2085,106.454 3188.1005,106.211 3188.1005,105.887 C3188.1005,105.644 3188.1545,105.347 3188.2895,105.023 C3188.3975,104.699 3188.5595,104.375 3188.7485,104.051 C3188.9105,103.727 3189.1265,103.43 3189.3425,103.133 C3189.5585,102.863 3189.7475,102.62 3189.9635,102.458 C3190.5575,101.945 3191.2325,101.567 3191.9885,101.324 C3192.7445,101.108 3193.5005,101 3194.2835,101 Z M3136.6335,100.162 C3137.0115,100.162 3137.3085,100.27 3137.5515,100.432 C3137.7675,100.594 3137.8755,100.864 3137.8755,101.215 C3137.8755,101.404 3137.8485,101.566 3137.8485,101.728 L3137.7675,102.241 L3137.6595,102.754 C3137.6055,102.943 3137.5515,103.105 3137.5245,103.267 C3137.0385,105.13 3136.7415,107.02 3136.5795,108.91 C3136.4175,110.827 3136.3635,112.717 3136.3635,114.607 C3136.3635,114.877 3136.3635,115.201 3136.4175,115.552 C3136.4175,115.903 3136.4715,116.227 3136.5255,116.524 C3136.5525,116.848 3136.5795,117.145 3136.6335,117.388 C3136.6335,117.658 3136.6605,117.82 3136.6605,117.901 C3136.6605,118.063 3136.5255,118.198 3136.3095,118.306 C3136.0395,118.414 3135.7965,118.468 3135.5805,118.468 C3135.1485,118.468 3134.8245,118.36 3134.5815,118.09 C3134.3385,117.847 3134.2305,117.523 3134.2305,117.091 C3134.2305,116.335 3134.2575,115.444 3134.3115,114.418 C3134.3385,113.392 3134.3925,112.366 3134.4465,111.34 C3134.4735,110.8 3134.5275,110.179 3134.5815,109.531 L3134.7975,107.614 C3134.8785,106.966 3134.9595,106.372 3135.0675,105.778 C3135.1215,105.184 3135.2025,104.671 3135.2835,104.239 C3134.9055,104.644 3134.6085,104.995 3134.3385,105.292 C3134.0685,105.589 3133.8525,105.805 3133.7175,105.94 L3133.1775,106.534 C3132.9615,106.777 3132.7995,106.966 3132.6645,107.128 C3132.4485,107.344 3132.2595,107.506 3132.0705,107.614 C3131.8545,107.722 3131.6385,107.776 3131.3955,107.776 C3131.0715,107.776 3130.7475,107.695 3130.4775,107.479 C3130.1535,107.29 3130.0185,107.047 3130.0185,106.723 C3130.0185,106.642 3130.0455,106.561 3130.1535,106.453 C3130.2345,106.372 3130.3425,106.291 3130.4775,106.183 L3130.7205,106.021 C3130.7745,105.967 3130.8555,105.94 3130.9365,105.886 L3131.1525,105.778 C3131.2065,105.724 3131.2875,105.67 3131.3415,105.616 C3131.9085,105.076 3132.5025,104.482 3133.1235,103.807 C3133.7175,103.159 3134.2575,102.511 3134.7705,101.917 C3134.9325,101.728 3135.1215,101.512 3135.2835,101.296 C3135.4185,101.08 3135.5805,100.891 3135.7965,100.675 C3135.8775,100.594 3136.0125,100.486 3136.1745,100.351 C3136.3365,100.243 3136.4715,100.162 3136.6335,100.162 Z M3149.45,98.03 C3151.79721,98.03 3153.7,99.9327898 3153.7,102.28 C3153.7,104.62721 3151.79721,106.53 3149.45,106.53 C3147.10279,106.53 3145.2,104.62721 3145.2,102.28 C3145.2,99.9327898 3147.10279,98.03 3149.45,98.03 Z M3149.45,99.03 C3147.65507,99.03 3146.2,100.485075 3146.2,102.28 C3146.2,104.074925 3147.65507,105.53 3149.45,105.53 C3151.24493,105.53 3152.7,104.074925 3152.7,102.28 C3152.7,100.485075 3151.24493,99.03 3149.45,99.03 Z M3246.8755,58.703 C3247.0105,58.703 3247.1725,58.73 3247.3885,58.784 C3247.5775,58.838 3247.7665,58.892 3247.9555,59 C3248.1175,59.108 3248.2525,59.216 3248.3875,59.324 C3248.4955,59.459 3248.5765,59.594 3248.5765,59.756 C3248.5765,60.08 3248.5495,60.377 3248.4955,60.674 C3248.4415,60.971 3248.4145,61.268 3248.4145,61.565 C3248.3605,62.375 3248.3065,63.185 3248.2795,63.968 C3248.2255,64.778 3248.1715,65.507 3248.1715,66.209 C3248.1175,66.911 3248.0905,67.559 3248.0905,68.126 C3248.0635,68.72 3248.0635,69.179 3248.0635,69.557 C3248.0365,69.827 3248.0365,70.07 3248.0365,70.313 C3248.0365,70.583 3248.0365,70.88 3248.0635,71.231 C3248.2795,71.177 3248.5765,71.123 3248.9815,71.042 C3249.3595,70.988 3249.7645,70.961 3250.1965,70.961 C3250.8985,70.961 3251.2765,71.312 3251.2765,71.96 C3251.2765,72.23 3251.1955,72.446 3251.0335,72.608 C3250.8715,72.797 3250.6555,72.878 3250.4125,72.878 L3247.9825,72.932 L3247.9825,74.525 C3247.9825,75.011 3248.0095,75.47 3248.1175,75.902 C3248.2255,76.334 3248.2795,76.793 3248.2795,77.252 C3248.2795,77.576 3248.1445,77.792 3247.9285,77.954 C3247.6855,78.089 3247.4155,78.17 3247.1455,78.17 C3246.2815,78.17 3245.8495,77.657 3245.8495,76.604 C3245.8495,76.388 3245.8495,75.929 3245.9035,75.281 L3245.9575,73.175 C3245.3095,73.283 3244.7695,73.364 3244.2835,73.472 C3243.7705,73.58 3243.2845,73.661 3242.8255,73.769 L3242.0155,73.958 C3241.7455,74.039 3241.4755,74.093 3241.2055,74.147 C3240.9085,74.201 3240.6115,74.255 3240.3415,74.282 C3240.0445,74.336 3239.7745,74.363 3239.5315,74.363 C3239.2075,74.363 3238.8835,74.336 3238.5595,74.228 C3238.2085,74.12 3237.9115,73.985 3237.6415,73.796 C3237.3715,73.607 3237.1555,73.364 3236.9935,73.067 C3236.8315,72.797 3236.7505,72.473 3236.7505,72.095 C3236.7505,71.879 3236.7775,71.636 3236.8855,71.366 C3236.9665,71.123 3237.0745,70.88 3237.2095,70.61 C3237.3445,70.34 3237.4795,70.097 3237.6415,69.854 C3237.8035,69.638 3237.9385,69.422 3238.1005,69.233 C3239.2615,67.64 3240.4495,66.101 3241.6915,64.589 C3242.9335,63.104 3244.1485,61.565 3245.3365,59.972 C3245.4175,59.837 3245.5255,59.702 3245.6335,59.54 C3245.7145,59.405 3245.8225,59.27 3245.9575,59.108 C3246.0655,59 3246.2005,58.892 3246.3895,58.811 C3246.5515,58.757 3246.7135,58.703 3246.8755,58.703 Z M3146.1495,59.027 C3146.7975,59.027 3147.4455,59.108 3148.0935,59.216 C3148.7415,59.351 3149.3355,59.567 3149.8755,59.864 C3150.4155,60.188 3150.8475,60.62 3151.1715,61.133 C3151.4955,61.673 3151.6575,62.321 3151.6575,63.077 C3151.6575,63.914 3151.4685,64.616 3151.1175,65.21 C3150.7395,65.804 3150.1185,66.398 3149.2545,66.965 C3149.9025,67.127 3150.5235,67.343 3151.0635,67.586 C3151.6035,67.829 3152.0895,68.126 3152.4945,68.45 C3152.8725,68.828 3153.1965,69.233 3153.4395,69.692 C3153.6555,70.178 3153.7635,70.718 3153.7635,71.312 C3153.7635,72.338 3153.5475,73.229 3153.1155,73.985 C3152.6565,74.768 3152.0895,75.416 3151.3875,75.956 C3150.6855,76.496 3149.8755,76.874 3149.0115,77.144 C3148.1205,77.441 3147.2295,77.576 3146.3655,77.576 C3146.0415,77.576 3145.6635,77.549 3145.2315,77.468 C3144.7725,77.414 3144.3135,77.333 3143.8545,77.225 C3143.3685,77.117 3142.9095,77.009 3142.4775,76.847 C3142.0185,76.712 3141.6405,76.55 3141.3165,76.388 C3141.0465,76.253 3140.8035,76.064 3140.5875,75.794 C3140.3445,75.578 3140.2365,75.281 3140.2365,74.957 C3140.2365,74.66 3140.3175,74.417 3140.5335,74.228 C3140.7225,74.039 3140.9385,73.931 3141.2085,73.931 C3141.3435,73.931 3141.5325,74.012 3141.7485,74.12 C3141.8295,74.174 3141.9375,74.228 3142.0455,74.282 C3142.1535,74.336 3142.2885,74.417 3142.4505,74.498 C3142.6935,74.66 3142.9365,74.795 3143.1795,74.93 C3143.4225,75.092 3143.6925,75.2 3143.9625,75.281 C3144.7185,75.578 3145.4475,75.713 3146.1225,75.713 C3146.7165,75.713 3147.3105,75.632 3147.9315,75.443 C3148.5525,75.281 3149.1195,75.011 3149.6055,74.66 C3150.0915,74.309 3150.5235,73.85 3150.8475,73.31 C3151.1445,72.797 3151.3065,72.176 3151.3065,71.447 C3151.3065,71.015 3151.1985,70.61 3151.0095,70.259 C3150.7935,69.935 3150.5505,69.638 3150.2535,69.395 C3149.9295,69.179 3149.6055,68.99 3149.2275,68.828 C3148.8495,68.666 3148.4985,68.558 3148.1475,68.45 C3147.9585,68.423 3147.7695,68.369 3147.6075,68.315 C3147.4185,68.261 3147.2295,68.234 3147.0405,68.234 C3146.7975,68.234 3146.5815,68.261 3146.3655,68.315 C3146.1495,68.369 3145.9335,68.45 3145.7175,68.531 C3145.5015,68.612 3145.3125,68.693 3145.0965,68.747 C3144.8805,68.828 3144.6645,68.855 3144.4485,68.855 C3144.1515,68.855 3143.8815,68.747 3143.6115,68.504 C3143.3145,68.261 3143.1795,67.991 3143.1795,67.667 C3143.1795,67.397 3143.2605,67.181 3143.4225,67.019 C3143.5035,66.938 3143.6655,66.857 3143.9355,66.776 C3144.1785,66.722 3144.4215,66.668 3144.6915,66.668 L3145.0965,66.668 C3145.4205,66.668 3145.7175,66.641 3146.0145,66.56 C3146.3115,66.506 3146.6625,66.371 3147.0945,66.182 C3147.4995,66.02 3147.8775,65.777 3148.2555,65.48 C3148.6335,65.183 3148.9305,64.832 3149.2005,64.4 C3149.4435,64.022 3149.5785,63.536 3149.5785,62.996 C3149.5785,62.564 3149.4705,62.213 3149.3085,61.916 C3149.1195,61.646 3148.9035,61.43 3148.6335,61.268 C3148.3365,61.106 3148.0125,60.998 3147.6615,60.944 C3147.3105,60.89 3146.9865,60.836 3146.6625,60.836 C3146.2305,60.836 3145.7715,60.944 3145.3395,61.133 C3144.8535,61.349 3144.4485,61.538 3144.0705,61.727 C3143.8815,61.835 3143.7195,61.916 3143.5575,61.997 L3143.0715,62.24 C3142.7205,62.402 3142.4235,62.456 3142.2075,62.456 C3141.9645,62.456 3141.7485,62.348 3141.5595,62.132 C3141.3435,61.916 3141.2625,61.646 3141.2625,61.349 C3141.2625,61.079 3141.3975,60.782 3141.7215,60.512 C3142.0455,60.242 3142.4505,59.972 3142.9365,59.756 C3143.4225,59.54 3143.9355,59.378 3144.5295,59.216 C3145.0965,59.108 3145.6365,59.027 3146.1495,59.027 Z M3169.08594,60.765 C3171.33203,60.765 3173.27865,61.5136979 3174.92578,63.0110937 C3176.57292,64.6582292 3177.39648,66.6048437 3177.39648,68.8509375 C3177.39648,71.0970312 3176.57292,72.968776 3174.92578,74.4661719 C3173.27865,76.1133073 3171.33203,76.936875 3169.08594,76.936875 C3166.98958,76.936875 3165.11784,76.1133073 3163.4707,74.4661719 C3161.82357,72.968776 3161,71.0970312 3161,68.8509375 C3161,66.6048437 3161.82357,64.6582292 3163.4707,63.0110937 C3165.11784,61.5136979 3166.98958,60.765 3169.08594,60.765 Z M3222.08594,60.765 C3224.33203,60.765 3226.27865,61.5136979 3227.92578,63.0110937 C3229.57292,64.6582292 3230.39648,66.6048437 3230.39648,68.8509375 C3230.39648,71.0970312 3229.57292,72.968776 3227.92578,74.4661719 C3226.27865,76.1133073 3224.33203,76.936875 3222.08594,76.936875 C3219.98958,76.936875 3218.11784,76.1133073 3216.4707,74.4661719 C3214.82357,72.968776 3214,71.0970312 3214,68.8509375 C3214,66.6048437 3214.82357,64.6582292 3216.4707,63.0110937 C3218.11784,61.5136979 3219.98958,60.765 3222.08594,60.765 Z M3246.3355,61.565 C3245.4715,62.753 3244.6615,63.86 3243.8785,64.913 C3243.0685,65.993 3242.3125,66.965 3241.6105,67.856 C3241.4485,68.072 3241.2055,68.342 3240.9355,68.72 C3240.6655,69.098 3240.3955,69.476 3240.1255,69.881 C3239.8285,70.313 3239.5855,70.718 3239.3695,71.096 C3239.1535,71.501 3239.0725,71.825 3239.0725,72.041 C3239.0725,72.203 3239.1535,72.311 3239.3155,72.392 C3239.4775,72.473 3239.6125,72.5 3239.7745,72.5 C3240.0445,72.5 3240.4765,72.473 3241.0165,72.392 C3241.5565,72.338 3242.1235,72.23 3242.7175,72.122 L3244.4995,71.798 C3245.0935,71.69 3245.5795,71.582 3245.9845,71.474 Z M3207.46,22.858 C3209.7,22.858 3211.716,23.754 3213.508,25.098 C3215.076,26.666 3215.972,28.458 3215.972,30.698 C3215.972,32.266 3215.076,33.834 3213.508,35.402 C3212.164,36.97 3209.924,38.762 3206.788,41.002 C3203.652,43.466 3200.516,45.706 3197.156,47.946 C3193.572,50.186 3190.436,52.202 3187.3,53.546 C3184.164,55.338 3181.7,56.01 3180.356,56.01 C3177.444,56.01 3176.1,55.114 3176.1,52.874 C3176.1,51.306 3177.444,48.842 3180.132,45.482 C3182.82,42.346 3185.956,38.986 3189.54,35.626 C3193.124,32.266 3196.484,29.354 3200.068,26.666 C3203.428,24.202 3205.892,22.858 3207.46,22.858 Z M3194.67425,15.2612362 L3188.1362,25.6474964 L3187.0605,24.552 L3172.48373,39.2481103 C3172.81293,39.8517416 3173,40.5440241 3173,41.28 C3173,43.6272102 3171.09721,45.53 3168.75,45.53 C3166.40279,45.53 3164.5,43.6272102 3164.5,41.28 C3164.5,38.9327898 3166.40279,37.03 3168.75,37.03 C3169.56387,37.03 3170.32431,37.2587697 3170.97052,37.6555125 L3185.5215,22.986 L3184.40575,21.8497489 L3194.67425,15.2612362 Z M3168.75,38.03 C3166.95507,38.03 3165.5,39.4850746 3165.5,41.28 C3165.5,43.0749254 3166.95507,44.53 3168.75,44.53 C3170.54493,44.53 3172,43.0749254 3172,41.28 C3172,40.5752928 3171.77571,39.9229714 3171.39462,39.3905271 L3170.93281,38.8720989 C3170.35593,38.3488279 3169.5902,38.03 3168.75,38.03 Z M3163.6015,25.339 C3163.6015,23.881 3163.0075,22.72 3161.8735,21.829 C3161.2795,21.424 3160.6585,21.154 3159.9835,21.046 C3159.2815,20.965 3158.6065,20.911 3157.9045,20.911 C3157.2565,20.911 3156.5815,20.992 3155.9335,21.1 C3155.2855,21.262 3154.5835,21.451 3153.8275,21.667 C3153.9085,20.641 3153.9895,19.696 3154.0975,18.832 L3154.3135,16.105 C3155.2855,16.024 3156.2035,15.916 3157.0675,15.808 L3159.6325,15.403 C3159.7945,15.376 3159.9835,15.349 3160.1995,15.322 C3160.3885,15.322 3160.5775,15.322 3160.7935,15.268 L3161.3605,15.16 C3161.5225,15.16 3161.7115,15.106 3161.8735,15.025 C3161.9815,14.971 3162.0625,14.917 3162.1165,14.863 C3162.1435,14.809 3162.1705,14.701 3162.1705,14.539 C3162.1705,14.431 3162.0895,14.296 3161.9545,14.134 C3161.7925,13.999 3161.6305,13.864 3161.4415,13.756 C3161.2255,13.648 3161.0095,13.54 3160.7935,13.432 C3160.5775,13.378 3160.3885,13.324 3160.2805,13.324 C3160.1725,13.324 3160.0915,13.351 3159.9835,13.378 C3159.8755,13.432 3159.7945,13.459 3159.6865,13.486 L3159.3355,13.594 C3159.2005,13.648 3159.0925,13.675 3159.0115,13.702 C3158.3095,13.891 3157.5535,14.026 3156.7435,14.134 C3155.9065,14.242 3155.0965,14.269 3154.3135,14.269 C3154.1245,14.107 3153.9625,13.972 3153.8275,13.918 C3153.6655,13.864 3153.4765,13.81 3153.3145,13.81 C3153.1525,13.81 3153.0175,13.837 3152.8555,13.891 C3152.6665,13.945 3152.5315,13.999 3152.4235,14.053 C3152.2615,14.377 3152.1535,14.863 3152.0995,15.511 C3152.0185,16.186 3151.9645,16.915 3151.9375,17.671 C3151.8835,18.481 3151.8295,19.264 3151.8295,20.02 C3151.7755,20.776 3151.7485,21.37 3151.7215,21.775 L3151.6675,22.126 L3151.6135,22.504 C3151.5595,22.774 3151.5325,23.017 3151.5325,23.26 C3151.5325,23.341 3151.5595,23.422 3151.6405,23.53 C3151.6945,23.638 3151.8025,23.719 3151.9105,23.8 C3152.0185,23.881 3152.1265,23.935 3152.2345,23.989 C3152.3425,24.043 3152.4235,24.07 3152.5315,24.07 C3152.7205,24.07 3152.9095,24.043 3153.0715,23.989 C3153.2065,23.935 3153.3685,23.881 3153.5575,23.773 C3153.7195,23.692 3153.9085,23.584 3154.0975,23.476 C3154.2595,23.395 3154.4485,23.314 3154.6645,23.233 C3155.2045,23.071 3155.7175,22.936 3156.2305,22.882 C3156.7165,22.828 3157.2565,22.774 3157.8505,22.774 C3158.2825,22.774 3158.7145,22.828 3159.1465,22.936 C3159.5515,23.044 3159.9295,23.206 3160.2535,23.422 C3160.5775,23.638 3160.8205,23.935 3161.0365,24.313 C3161.2255,24.691 3161.3335,25.15 3161.3335,25.69 C3161.3335,26.473 3161.1715,27.148 3160.9015,27.742 C3160.5775,28.336 3160.1995,28.822 3159.7135,29.2 C3159.2275,29.605 3158.6605,29.902 3158.0395,30.118 C3157.3915,30.334 3156.7435,30.415 3156.0955,30.415 C3155.4475,30.415 3154.8535,30.334 3154.3675,30.172 C3153.8275,30.01 3153.3955,29.821 3153.0175,29.605 C3152.8015,29.524 3152.6395,29.416 3152.4775,29.308 C3152.3155,29.227 3152.1805,29.146 3152.0455,29.065 C3151.8835,29.011 3151.7485,28.93 3151.6405,28.876 C3151.5055,28.849 3151.3975,28.822 3151.3165,28.822 C3151.0465,28.822 3150.8575,28.93 3150.6955,29.092 C3150.5065,29.308 3150.4255,29.551 3150.4255,29.848 C3150.4255,30.172 3150.5335,30.442 3150.7495,30.658 C3150.9655,30.901 3151.2085,31.09 3151.5055,31.198 C3151.7215,31.306 3152.0455,31.414 3152.4775,31.522 C3152.8555,31.657 3153.2875,31.765 3153.7195,31.846 C3154.1515,31.927 3154.5835,32.008 3155.0155,32.062 C3155.4205,32.116 3155.7715,32.17 3156.0415,32.17 C3157.0675,32.17 3158.0395,32.035 3158.9575,31.765 C3159.8755,31.495 3160.6855,31.09 3161.3875,30.496 C3162.0625,29.956 3162.6025,29.254 3163.0075,28.39 C3163.3855,27.526 3163.6015,26.527 3163.6015,25.339 Z" transform="translate(-3144 -31.765)"/></svg>