<svg xmlns="http://www.w3.org/2000/svg" width="103" height="203" viewBox="0 0 103 203"><path fill="#131313" d="M3224.70898,117 C3226.95508,117 3228.90169,117.748698 3230.54883,119.246094 C3232.19596,120.893229 3233.01953,122.839844 3233.01953,125.085938 C3233.01953,129.428385 3233.01953,135.942057 3233.01953,144.626953 C3233.01953,148.220703 3233.01953,153.536458 3233.01953,160.574219 C3233.01953,168.061198 3233.01953,179.366536 3233.01953,194.490234 C3233.01953,196.736328 3232.19596,198.682943 3230.54883,200.330078 C3228.90169,201.827474 3226.95508,202.576172 3224.70898,202.576172 C3222.46289,202.576172 3220.59115,201.827474 3219.09375,200.330078 C3217.44661,198.682943 3216.62305,196.736328 3216.62305,194.490234 C3216.62305,194.190755 3216.62305,193.666667 3216.62305,192.917969 C3212.87956,195.91276 3208.68685,198.233724 3204.04492,199.880859 C3199.25326,201.677734 3194.08724,202.576172 3188.54688,202.576172 C3183.15625,202.576172 3178.66406,201.827474 3175.07031,200.330078 C3171.47656,198.832682 3168.55664,196.886068 3166.31055,194.490234 C3162.11784,189.998047 3159.72201,184.832031 3159.12305,178.992188 C3158.37435,173.152344 3158,168.510417 3158,165.066406 C3158,156.231771 3158,142.904948 3158,125.085938 C3158,122.839844 3158.82357,120.893229 3160.4707,119.246094 C3161.9681,117.748698 3163.83984,117 3166.08594,117 C3168.33203,117 3170.27865,117.748698 3171.92578,119.246094 C3173.42318,120.893229 3174.17188,122.839844 3174.17188,125.085938 C3174.17188,133.920573 3174.17188,147.247396 3174.17188,165.066406 C3174.17188,173.451823 3175.14518,179.067057 3177.0918,181.912109 C3179.18815,184.906901 3183.00651,186.404297 3188.54688,186.404297 C3195.13542,186.404297 3201.49935,184.008464 3207.63867,179.216797 C3213.62826,174.42513 3216.62305,168.210938 3216.62305,160.574219 C3216.62305,156.980469 3216.62305,151.664714 3216.62305,144.626953 C3216.62305,140.284505 3216.62305,133.770833 3216.62305,125.085938 C3216.62305,122.839844 3217.44661,120.893229 3219.09375,119.246094 C3220.59115,117.748698 3222.46289,117 3224.70898,117 Z M3206.89648,135.193359 C3207.04622,135.193359 3207.19596,135.193359 3207.3457,135.193359 C3207.64518,135.193359 3207.86979,135.193359 3208.01953,135.193359 C3208.16927,135.193359 3208.39388,135.193359 3208.69336,135.193359 C3208.8431,135.193359 3208.99284,135.193359 3209.14258,135.193359 C3209.14258,138.038411 3209.14258,142.455729 3209.14258,148.445313 C3208.69336,148.445313 3207.94466,148.445313 3206.89648,148.445313 C3206.89648,146.199219 3206.89648,143.953125 3206.89648,141.707031 C3206.89648,139.460938 3206.89648,137.289714 3206.89648,135.193359 Z M3211.38867,148.445313 C3210.63997,151.290365 3209.51693,155.483073 3208.01953,161.023438 C3207.27083,158.178385 3206.14779,153.985677 3204.65039,148.445313 L3211.38867,148.445313 Z M3207.85,127.265 C3210.19721,127.265 3212.1,129.16779 3212.1,131.515 C3212.1,133.86221 3210.19721,135.765 3207.85,135.765 C3205.50279,135.765 3203.6,133.86221 3203.6,131.515 C3203.6,129.16779 3205.50279,127.265 3207.85,127.265 Z M3207.85,128.265 C3206.05507,128.265 3204.6,129.720075 3204.6,131.515 C3204.6,133.309925 3206.05507,134.765 3207.85,134.765 C3209.64493,134.765 3211.1,133.309925 3211.1,131.515 C3211.1,129.720075 3209.64493,128.265 3207.85,128.265 Z M3150.51953,165.515625 C3150.51953,178.09375 3152.76562,188.126302 3157.25781,195.613281 C3161.75,203.10026 3168.48828,207.966797 3177.47266,210.212891 C3177.47266,210.662109 3177.39779,211.410807 3177.24805,212.458984 C3173.05534,211.410807 3169.38672,209.913411 3166.24219,207.966797 C3163.2474,205.870443 3160.62695,203.549479 3158.38086,201.003906 C3154.33789,196.0625 3151.64258,190.372396 3150.29492,183.933594 C3148.94727,177.644531 3148.27344,171.505208 3148.27344,165.515625 C3148.27344,158.777344 3148.27344,148.669922 3148.27344,135.193359 C3148.42318,135.193359 3148.57292,135.193359 3148.72266,135.193359 C3149.02214,135.193359 3149.24674,135.193359 3149.39648,135.193359 C3149.54622,135.193359 3149.69596,135.193359 3149.8457,135.193359 C3150.14518,135.193359 3150.36979,135.193359 3150.51953,135.193359 C3150.51953,140.134766 3150.51953,145.151042 3150.51953,150.242188 C3150.51953,155.333333 3150.51953,160.424479 3150.51953,165.515625 Z M3177.69727,208.191406 C3180.39258,209.239583 3184.43555,210.811849 3189.82617,212.908203 C3186.98112,213.357422 3182.71354,214.03125 3177.02344,214.929688 C3177.02344,214.330729 3177.54753,209.089844 3177.69727,208.191406 Z M3194.2835,130.235 C3194.9855,130.235 3195.6605,130.37 3196.2815,130.64 C3196.9025,130.91 3197.4425,131.261 3197.9015,131.693 C3198.3335,132.152 3198.6845,132.665 3198.9545,133.205 C3199.1975,133.772 3199.3325,134.339 3199.3325,134.906 C3199.3325,136.013 3199.1435,137.039 3198.7655,138.011 C3198.3605,139.01 3197.7665,139.874 3197.0105,140.63 C3196.3895,141.224 3195.7955,141.791 3195.2015,142.385 L3193.3925,144.14 L3192.2855,145.193 C3191.8805,145.571 3191.3675,146.03 3190.7465,146.543 C3191.6375,146.435 3192.3935,146.381 3192.9875,146.327 C3193.5815,146.3 3194.1485,146.273 3194.6885,146.219 C3195.2555,146.192 3195.8495,146.165 3196.4975,146.165 C3197.1185,146.165 3197.7125,146.111 3198.3065,146.057 L3198.6845,146.003 L3199.0625,145.922 C3199.2785,145.868 3199.5215,145.841 3199.7645,145.841 C3200.0885,145.841 3200.3585,146.003 3200.6015,146.327 C3200.8445,146.651 3200.9795,146.975 3200.9795,147.353 C3200.9795,147.596 3200.8715,147.785 3200.7095,147.893 C3200.5475,148.055 3200.3855,148.109 3200.2235,148.109 C3199.6295,148.109 3199.0625,148.082 3198.4955,147.974 C3197.9015,147.893 3197.3075,147.839 3196.7405,147.839 C3195.7145,147.839 3194.6615,147.893 3193.5815,148.001 C3192.4745,148.109 3191.4215,148.217 3190.3955,148.352 C3190.2605,148.379 3190.1255,148.406 3190.0175,148.433 C3189.8825,148.46 3189.7475,148.487 3189.6125,148.514 C3189.3425,148.568 3189.0995,148.595 3188.8835,148.595 C3188.5325,148.595 3188.2355,148.514 3187.9655,148.298 C3187.6685,148.109 3187.5335,147.812 3187.5335,147.434 C3187.5335,147.191 3187.5875,146.975 3187.6955,146.759 C3187.8035,146.597 3187.9655,146.408 3188.1545,146.219 C3188.3705,146.003 3188.5595,145.787 3188.7755,145.571 C3188.9915,145.355 3189.2075,145.166 3189.4775,144.95 C3190.3955,144.221 3191.2865,143.465 3192.1235,142.655 L3194.6885,140.252 C3195.0125,139.928 3195.3635,139.577 3195.6875,139.199 C3195.9845,138.848 3196.2545,138.47 3196.4975,138.038 C3196.7405,137.633 3196.9295,137.201 3197.0915,136.715 C3197.2535,136.256 3197.3345,135.77 3197.3345,135.23 C3197.3345,134.798 3197.2535,134.393 3197.0915,133.988 C3196.9295,133.61 3196.7135,133.259 3196.4435,132.935 C3196.1465,132.638 3195.8225,132.395 3195.4445,132.206 C3195.0665,132.044 3194.6345,131.936 3194.2025,131.936 C3193.3925,131.936 3192.7445,132.125 3192.2855,132.476 C3191.7995,132.854 3191.3675,133.34 3190.9895,133.988 C3190.8815,134.15 3190.8275,134.285 3190.7735,134.447 C3190.7195,134.609 3190.6385,134.771 3190.5845,134.906 C3190.5035,135.068 3190.4225,135.23 3190.3415,135.365 C3190.2605,135.527 3190.1795,135.662 3190.1255,135.743 C3189.9635,135.905 3189.8285,136.04 3189.7205,136.121 C3189.5855,136.229 3189.4235,136.256 3189.2345,136.256 C3188.9645,136.256 3188.7215,136.148 3188.4785,135.905 C3188.2085,135.689 3188.1005,135.446 3188.1005,135.122 C3188.1005,134.879 3188.1545,134.582 3188.2895,134.258 C3188.3975,133.934 3188.5595,133.61 3188.7485,133.286 C3188.9105,132.962 3189.1265,132.665 3189.3425,132.368 C3189.5585,132.098 3189.7475,131.855 3189.9635,131.693 C3190.5575,131.18 3191.2325,130.802 3191.9885,130.559 C3192.7445,130.343 3193.5005,130.235 3194.2835,130.235 Z M3136.6335,129.397 C3137.0115,129.397 3137.3085,129.505 3137.5515,129.667 C3137.7675,129.829 3137.8755,130.099 3137.8755,130.45 C3137.8755,130.639 3137.8485,130.801 3137.8485,130.963 L3137.7675,131.476 L3137.6595,131.989 C3137.6055,132.178 3137.5515,132.34 3137.5245,132.502 C3137.0385,134.365 3136.7415,136.255 3136.5795,138.145 C3136.4175,140.062 3136.3635,141.952 3136.3635,143.842 C3136.3635,144.112 3136.3635,144.436 3136.4175,144.787 C3136.4175,145.138 3136.4715,145.462 3136.5255,145.759 C3136.5525,146.083 3136.5795,146.38 3136.6335,146.623 C3136.6335,146.893 3136.6605,147.055 3136.6605,147.136 C3136.6605,147.298 3136.5255,147.433 3136.3095,147.541 C3136.0395,147.649 3135.7965,147.703 3135.5805,147.703 C3135.1485,147.703 3134.8245,147.595 3134.5815,147.325 C3134.3385,147.082 3134.2305,146.758 3134.2305,146.326 C3134.2305,145.57 3134.2575,144.679 3134.3115,143.653 C3134.3385,142.627 3134.3925,141.601 3134.4465,140.575 C3134.4735,140.035 3134.5275,139.414 3134.5815,138.766 L3134.7975,136.849 C3134.8785,136.201 3134.9595,135.607 3135.0675,135.013 C3135.1215,134.419 3135.2025,133.906 3135.2835,133.474 C3134.9055,133.879 3134.6085,134.23 3134.3385,134.527 C3134.0685,134.824 3133.8525,135.04 3133.7175,135.175 L3133.1775,135.769 C3132.9615,136.012 3132.7995,136.201 3132.6645,136.363 C3132.4485,136.579 3132.2595,136.741 3132.0705,136.849 C3131.8545,136.957 3131.6385,137.011 3131.3955,137.011 C3131.0715,137.011 3130.7475,136.93 3130.4775,136.714 C3130.1535,136.525 3130.0185,136.282 3130.0185,135.958 C3130.0185,135.877 3130.0455,135.796 3130.1535,135.688 C3130.2345,135.607 3130.3425,135.526 3130.4775,135.418 L3130.7205,135.256 C3130.7745,135.202 3130.8555,135.175 3130.9365,135.121 L3131.1525,135.013 L3131.3415,134.851 C3131.9085,134.311 3132.5025,133.717 3133.1235,133.042 C3133.7175,132.394 3134.2575,131.746 3134.7705,131.152 C3134.9325,130.963 3135.1215,130.747 3135.2835,130.531 C3135.4185,130.315 3135.5805,130.126 3135.7965,129.91 C3135.8775,129.829 3136.0125,129.721 3136.1745,129.586 C3136.3365,129.478 3136.4715,129.397 3136.6335,129.397 Z M3149.45,127.265 C3151.79721,127.265 3153.7,129.16779 3153.7,131.515 C3153.7,133.86221 3151.79721,135.765 3149.45,135.765 C3147.10279,135.765 3145.2,133.86221 3145.2,131.515 C3145.2,129.16779 3147.10279,127.265 3149.45,127.265 Z M3149.45,128.265 C3147.65507,128.265 3146.2,129.720075 3146.2,131.515 C3146.2,133.309925 3147.65507,134.765 3149.45,134.765 C3151.24493,134.765 3152.7,133.309925 3152.7,131.515 C3152.7,129.720075 3151.24493,128.265 3149.45,128.265 Z M3246.8755,87.938 C3247.0105,87.938 3247.1725,87.965 3247.3885,88.019 C3247.5775,88.073 3247.7665,88.127 3247.9555,88.235 C3248.1175,88.343 3248.2525,88.451 3248.3875,88.559 C3248.4955,88.694 3248.5765,88.829 3248.5765,88.991 C3248.5765,89.315 3248.5495,89.612 3248.4955,89.909 C3248.4415,90.206 3248.4145,90.503 3248.4145,90.8 C3248.3605,91.61 3248.3065,92.42 3248.2795,93.203 C3248.2255,94.013 3248.1715,94.742 3248.1715,95.444 C3248.1175,96.146 3248.0905,96.794 3248.0905,97.361 C3248.07121,97.7852857 3248.0657,98.1406939 3248.06413,98.4469038 L3248.0635,98.792 C3248.0365,99.062 3248.0365,99.305 3248.0365,99.548 C3248.0365,99.818 3248.0365,100.115 3248.0635,100.466 C3248.2795,100.412 3248.5765,100.358 3248.9815,100.277 C3249.3595,100.223 3249.7645,100.196 3250.1965,100.196 C3250.8985,100.196 3251.2765,100.547 3251.2765,101.195 C3251.2765,101.465 3251.1955,101.681 3251.0335,101.843 C3250.8715,102.032 3250.6555,102.113 3250.4125,102.113 L3247.9825,102.167 L3247.9825,103.76 C3247.9825,104.246 3248.0095,104.705 3248.1175,105.137 C3248.2255,105.569 3248.2795,106.028 3248.2795,106.487 C3248.2795,106.811 3248.1445,107.027 3247.9285,107.189 C3247.6855,107.324 3247.4155,107.405 3247.1455,107.405 C3246.2815,107.405 3245.8495,106.892 3245.8495,105.839 L3245.85009,105.659593 C3245.85217,105.409667 3245.8615,105.02 3245.9035,104.516 L3245.9575,102.41 C3245.3095,102.518 3244.7695,102.599 3244.2835,102.707 C3243.7705,102.815 3243.2845,102.896 3242.8255,103.004 L3242.0155,103.193 C3241.7455,103.274 3241.4755,103.328 3241.2055,103.382 C3240.9085,103.436 3240.6115,103.49 3240.3415,103.517 C3240.0445,103.571 3239.7745,103.598 3239.5315,103.598 C3239.2075,103.598 3238.8835,103.571 3238.5595,103.463 C3238.2085,103.355 3237.9115,103.22 3237.6415,103.031 C3237.3715,102.842 3237.1555,102.599 3236.9935,102.302 C3236.8315,102.032 3236.7505,101.708 3236.7505,101.33 C3236.7505,101.114 3236.7775,100.871 3236.8855,100.601 C3236.9665,100.358 3237.0745,100.115 3237.2095,99.845 C3237.3445,99.575 3237.4795,99.332 3237.6415,99.089 C3237.8035,98.873 3237.9385,98.657 3238.1005,98.468 C3239.2615,96.875 3240.4495,95.336 3241.6915,93.824 C3242.9335,92.339 3244.1485,90.8 3245.3365,89.207 C3245.4175,89.072 3245.5255,88.937 3245.6335,88.775 C3245.7145,88.64 3245.8225,88.505 3245.9575,88.343 C3246.0655,88.235 3246.2005,88.127 3246.3895,88.046 C3246.5515,87.992 3246.7135,87.938 3246.8755,87.938 Z M3146.1495,88.262 C3146.7975,88.262 3147.4455,88.343 3148.0935,88.451 C3148.7415,88.586 3149.3355,88.802 3149.8755,89.099 C3150.4155,89.423 3150.8475,89.855 3151.1715,90.368 C3151.4955,90.908 3151.6575,91.556 3151.6575,92.312 C3151.6575,93.149 3151.4685,93.851 3151.1175,94.445 C3150.7395,95.039 3150.1185,95.633 3149.2545,96.2 C3149.9025,96.362 3150.5235,96.578 3151.0635,96.821 C3151.6035,97.064 3152.0895,97.361 3152.4945,97.685 C3152.8725,98.063 3153.1965,98.468 3153.4395,98.927 C3153.6555,99.413 3153.7635,99.953 3153.7635,100.547 C3153.7635,101.573 3153.5475,102.464 3153.1155,103.22 C3152.6565,104.003 3152.0895,104.651 3151.3875,105.191 C3150.6855,105.731 3149.8755,106.109 3149.0115,106.379 C3148.1205,106.676 3147.2295,106.811 3146.3655,106.811 C3146.0415,106.811 3145.6635,106.784 3145.2315,106.703 C3144.7725,106.649 3144.3135,106.568 3143.8545,106.46 C3143.3685,106.352 3142.9095,106.244 3142.4775,106.082 C3142.0185,105.947 3141.6405,105.785 3141.3165,105.623 C3141.0465,105.488 3140.8035,105.299 3140.5875,105.029 C3140.3445,104.813 3140.2365,104.516 3140.2365,104.192 C3140.2365,103.895 3140.3175,103.652 3140.5335,103.463 C3140.7225,103.274 3140.9385,103.166 3141.2085,103.166 C3141.3435,103.166 3141.5325,103.247 3141.7485,103.355 C3141.8295,103.409 3141.9375,103.463 3142.0455,103.517 C3142.1535,103.571 3142.2885,103.652 3142.4505,103.733 C3142.6935,103.895 3142.9365,104.03 3143.1795,104.165 C3143.4225,104.327 3143.6925,104.435 3143.9625,104.516 C3144.7185,104.813 3145.4475,104.948 3146.1225,104.948 C3146.7165,104.948 3147.3105,104.867 3147.9315,104.678 C3148.5525,104.516 3149.1195,104.246 3149.6055,103.895 C3150.0915,103.544 3150.5235,103.085 3150.8475,102.545 C3151.1445,102.032 3151.3065,101.411 3151.3065,100.682 C3151.3065,100.25 3151.1985,99.845 3151.0095,99.494 C3150.7935,99.17 3150.5505,98.873 3150.2535,98.63 C3149.9295,98.414 3149.6055,98.225 3149.2275,98.063 C3148.8495,97.901 3148.4985,97.793 3148.1475,97.685 C3147.9585,97.658 3147.7695,97.604 3147.6075,97.55 C3147.4185,97.496 3147.2295,97.469 3147.0405,97.469 C3146.7975,97.469 3146.5815,97.496 3146.3655,97.55 C3146.1495,97.604 3145.9335,97.685 3145.7175,97.766 C3145.5015,97.847 3145.3125,97.928 3145.0965,97.982 C3144.8805,98.063 3144.6645,98.09 3144.4485,98.09 C3144.1515,98.09 3143.8815,97.982 3143.6115,97.739 C3143.3145,97.496 3143.1795,97.226 3143.1795,96.902 C3143.1795,96.632 3143.2605,96.416 3143.4225,96.254 C3143.5035,96.173 3143.6655,96.092 3143.9355,96.011 C3144.1785,95.957 3144.4215,95.903 3144.6915,95.903 L3145.0965,95.903 C3145.4205,95.903 3145.7175,95.876 3146.0145,95.795 C3146.3115,95.741 3146.6625,95.606 3147.0945,95.417 C3147.4995,95.255 3147.8775,95.012 3148.2555,94.715 C3148.6335,94.418 3148.9305,94.067 3149.2005,93.635 C3149.4435,93.257 3149.5785,92.771 3149.5785,92.231 C3149.5785,91.799 3149.4705,91.448 3149.3085,91.151 C3149.1195,90.881 3148.9035,90.665 3148.6335,90.503 C3148.3365,90.341 3148.0125,90.233 3147.6615,90.179 C3147.3105,90.125 3146.9865,90.071 3146.6625,90.071 C3146.2305,90.071 3145.7715,90.179 3145.3395,90.368 C3144.8535,90.584 3144.4485,90.773 3144.0705,90.962 C3143.8815,91.07 3143.7195,91.151 3143.5575,91.232 L3143.0715,91.475 C3142.7205,91.637 3142.4235,91.691 3142.2075,91.691 C3141.9645,91.691 3141.7485,91.583 3141.5595,91.367 C3141.3435,91.151 3141.2625,90.881 3141.2625,90.584 C3141.2625,90.314 3141.3975,90.017 3141.7215,89.747 C3142.0455,89.477 3142.4505,89.207 3142.9365,88.991 C3143.4225,88.775 3143.9355,88.613 3144.5295,88.451 C3145.0965,88.343 3145.6365,88.262 3146.1495,88.262 Z M3169.08594,90 C3171.33203,90 3173.27865,90.7486979 3174.92578,92.2460937 C3176.57292,93.8932292 3177.39648,95.8398437 3177.39648,98.0859375 C3177.39648,100.332031 3176.57292,102.203776 3174.92578,103.701172 C3173.27865,105.348307 3171.33203,106.171875 3169.08594,106.171875 C3166.98958,106.171875 3165.11784,105.348307 3163.4707,103.701172 C3161.82357,102.203776 3161,100.332031 3161,98.0859375 C3161,95.8398437 3161.82357,93.8932292 3163.4707,92.2460937 C3165.11784,90.7486979 3166.98958,90 3169.08594,90 Z M3222.08594,90 C3224.33203,90 3226.27865,90.7486979 3227.92578,92.2460937 C3229.57292,93.8932292 3230.39648,95.8398437 3230.39648,98.0859375 C3230.39648,100.332031 3229.57292,102.203776 3227.92578,103.701172 C3226.27865,105.348307 3224.33203,106.171875 3222.08594,106.171875 C3219.98958,106.171875 3218.11784,105.348307 3216.4707,103.701172 C3214.82357,102.203776 3214,100.332031 3214,98.0859375 C3214,95.8398437 3214.82357,93.8932292 3216.4707,92.2460937 C3218.11784,90.7486979 3219.98958,90 3222.08594,90 Z M3246.3355,90.8 C3245.4715,91.988 3244.6615,93.095 3243.8785,94.148 C3243.0685,95.228 3242.3125,96.2 3241.6105,97.091 C3241.4485,97.307 3241.2055,97.577 3240.9355,97.955 C3240.6655,98.333 3240.3955,98.711 3240.1255,99.116 C3239.8285,99.548 3239.5855,99.953 3239.3695,100.331 C3239.1535,100.736 3239.0725,101.06 3239.0725,101.276 C3239.0725,101.438 3239.1535,101.546 3239.3155,101.627 C3239.4775,101.708 3239.6125,101.735 3239.7745,101.735 C3240.0445,101.735 3240.4765,101.708 3241.0165,101.627 C3241.5565,101.573 3242.1235,101.465 3242.7175,101.357 L3244.4995,101.033 C3245.0935,100.925 3245.5795,100.817 3245.9845,100.709 Z M3207.46,52.093 C3209.7,52.093 3211.716,52.989 3213.508,54.333 C3215.076,55.901 3215.972,57.693 3215.972,59.933 C3215.972,61.501 3215.076,63.069 3213.508,64.637 C3212.164,66.205 3209.924,67.997 3206.788,70.237 C3203.652,72.701 3200.516,74.941 3197.156,77.181 C3193.572,79.421 3190.436,81.437 3187.3,82.781 C3184.164,84.573 3181.7,85.245 3180.356,85.245 C3177.444,85.245 3176.1,84.349 3176.1,82.109 C3176.1,80.541 3177.444,78.077 3180.132,74.717 C3182.82,71.581 3185.956,68.221 3189.54,64.861 C3193.124,61.501 3196.484,58.589 3200.068,55.901 C3203.428,53.437 3205.892,52.093 3207.46,52.093 Z M3194.67425,44.4962362 L3188.1362,54.8824964 L3187.0605,53.787 L3172.48373,68.4831103 C3172.81293,69.0867416 3173,69.7790241 3173,70.515 C3173,72.8622102 3171.09721,74.765 3168.75,74.765 C3166.40279,74.765 3164.5,72.8622102 3164.5,70.515 C3164.5,68.1677898 3166.40279,66.265 3168.75,66.265 C3169.56387,66.265 3170.32431,66.4937697 3170.97052,66.8905125 L3185.5215,52.221 L3184.40575,51.0847489 L3194.67425,44.4962362 Z M3168.75,67.265 C3166.95507,67.265 3165.5,68.7200746 3165.5,70.515 C3165.5,72.3099254 3166.95507,73.765 3168.75,73.765 C3170.54493,73.765 3172,72.3099254 3172,70.515 C3172,69.8102928 3171.77571,69.1579714 3171.39462,68.6255271 L3170.93281,68.1070989 C3170.35593,67.5838279 3169.5902,67.265 3168.75,67.265 Z M3163.6015,54.574 C3163.6015,53.116 3163.0075,51.955 3161.8735,51.064 C3161.2795,50.659 3160.6585,50.389 3159.9835,50.281 C3159.2815,50.2 3158.6065,50.146 3157.9045,50.146 C3157.2565,50.146 3156.5815,50.227 3155.9335,50.335 C3155.2855,50.497 3154.5835,50.686 3153.8275,50.902 C3153.9085,49.876 3153.9895,48.931 3154.0975,48.067 L3154.3135,45.34 C3155.2855,45.259 3156.2035,45.151 3157.0675,45.043 L3159.6325,44.638 C3159.7945,44.611 3159.9835,44.584 3160.1995,44.557 C3160.3885,44.557 3160.5775,44.557 3160.7935,44.503 L3161.3605,44.395 C3161.5225,44.395 3161.7115,44.341 3161.8735,44.26 C3161.9815,44.206 3162.0625,44.152 3162.1165,44.098 C3162.1435,44.044 3162.1705,43.936 3162.1705,43.774 C3162.1705,43.666 3162.0895,43.531 3161.9545,43.369 C3161.7925,43.234 3161.6305,43.099 3161.4415,42.991 C3161.2255,42.883 3161.0095,42.775 3160.7935,42.667 C3160.5775,42.613 3160.3885,42.559 3160.2805,42.559 C3160.1725,42.559 3160.0915,42.586 3159.9835,42.613 C3159.8755,42.667 3159.7945,42.694 3159.6865,42.721 L3159.3355,42.829 C3159.2005,42.883 3159.0925,42.91 3159.0115,42.937 C3158.3095,43.126 3157.5535,43.261 3156.7435,43.369 C3155.9065,43.477 3155.0965,43.504 3154.3135,43.504 C3154.1245,43.342 3153.9625,43.207 3153.8275,43.153 C3153.6655,43.099 3153.4765,43.045 3153.3145,43.045 C3153.1525,43.045 3153.0175,43.072 3152.8555,43.126 C3152.6665,43.18 3152.5315,43.234 3152.4235,43.288 C3152.2615,43.612 3152.1535,44.098 3152.0995,44.746 C3152.0185,45.421 3151.9645,46.15 3151.9375,46.906 C3151.8835,47.716 3151.8295,48.499 3151.8295,49.255 C3151.7755,50.011 3151.7485,50.605 3151.7215,51.01 L3151.6675,51.361 L3151.6135,51.739 C3151.5595,52.009 3151.5325,52.252 3151.5325,52.495 C3151.5325,52.576 3151.5595,52.657 3151.6405,52.765 C3151.6945,52.873 3151.8025,52.954 3151.9105,53.035 C3152.0185,53.116 3152.1265,53.17 3152.2345,53.224 C3152.3425,53.278 3152.4235,53.305 3152.5315,53.305 C3152.7205,53.305 3152.9095,53.278 3153.0715,53.224 C3153.2065,53.17 3153.3685,53.116 3153.5575,53.008 C3153.7195,52.927 3153.9085,52.819 3154.0975,52.711 C3154.2595,52.63 3154.4485,52.549 3154.6645,52.468 C3155.2045,52.306 3155.7175,52.171 3156.2305,52.117 C3156.7165,52.063 3157.2565,52.009 3157.8505,52.009 C3158.2825,52.009 3158.7145,52.063 3159.1465,52.171 C3159.5515,52.279 3159.9295,52.441 3160.2535,52.657 C3160.5775,52.873 3160.8205,53.17 3161.0365,53.548 C3161.2255,53.926 3161.3335,54.385 3161.3335,54.925 C3161.3335,55.708 3161.1715,56.383 3160.9015,56.977 C3160.5775,57.571 3160.1995,58.057 3159.7135,58.435 C3159.2275,58.84 3158.6605,59.137 3158.0395,59.353 C3157.3915,59.569 3156.7435,59.65 3156.0955,59.65 C3155.4475,59.65 3154.8535,59.569 3154.3675,59.407 C3153.8275,59.245 3153.3955,59.056 3153.0175,58.84 C3152.8015,58.759 3152.6395,58.651 3152.4775,58.543 C3152.3155,58.462 3152.1805,58.381 3152.0455,58.3 C3151.8835,58.246 3151.7485,58.165 3151.6405,58.111 C3151.5055,58.084 3151.3975,58.057 3151.3165,58.057 C3151.0465,58.057 3150.8575,58.165 3150.6955,58.327 C3150.5065,58.543 3150.4255,58.786 3150.4255,59.083 C3150.4255,59.407 3150.5335,59.677 3150.7495,59.893 C3150.9655,60.136 3151.2085,60.325 3151.5055,60.433 C3151.7215,60.541 3152.0455,60.649 3152.4775,60.757 C3152.8555,60.892 3153.2875,61 3153.7195,61.081 C3154.1515,61.162 3154.5835,61.243 3155.0155,61.297 C3155.4205,61.351 3155.7715,61.405 3156.0415,61.405 C3157.0675,61.405 3158.0395,61.27 3158.9575,61 C3159.8755,60.73 3160.6855,60.325 3161.3875,59.731 C3162.0625,59.191 3162.6025,58.489 3163.0075,57.625 C3163.3855,56.761 3163.6015,55.762 3163.6015,54.574 Z" transform="translate(-3144)"/></svg>