<svg xmlns="http://www.w3.org/2000/svg" width="103" height="203" viewBox="0 0 103 203"><path fill="#131313" d="M3385.70898,117 C3387.95508,117 3389.90169,117.748698 3391.54883,119.246094 C3393.19596,120.893229 3394.01953,122.839844 3394.01953,125.085938 C3394.01953,129.428385 3394.01953,135.942057 3394.01953,144.626953 C3394.01953,148.220703 3394.01953,153.536458 3394.01953,160.574219 C3394.01953,168.061198 3394.01953,179.366536 3394.01953,194.490234 C3394.01953,196.736328 3393.19596,198.682943 3391.54883,200.330078 C3389.90169,201.827474 3387.95508,202.576172 3385.70898,202.576172 C3383.46289,202.576172 3381.59115,201.827474 3380.09375,200.330078 C3378.44661,198.682943 3377.62305,196.736328 3377.62305,194.490234 C3377.62305,194.190755 3377.62305,193.666667 3377.62305,192.917969 C3373.87956,195.91276 3369.68685,198.233724 3365.04492,199.880859 C3360.25326,201.677734 3355.08724,202.576172 3349.54688,202.576172 C3344.15625,202.576172 3339.66406,201.827474 3336.07031,200.330078 C3332.47656,198.832682 3329.55664,196.886068 3327.31055,194.490234 C3323.11784,189.998047 3320.72201,184.832031 3320.12305,178.992188 C3319.37435,173.152344 3319,168.510417 3319,165.066406 C3319,156.231771 3319,142.904948 3319,125.085938 C3319,122.839844 3319.82357,120.893229 3321.4707,119.246094 C3322.9681,117.748698 3324.83984,117 3327.08594,117 C3329.33203,117 3331.27865,117.748698 3332.92578,119.246094 C3334.42318,120.893229 3335.17188,122.839844 3335.17188,125.085938 C3335.17188,133.920573 3335.17188,147.247396 3335.17188,165.066406 C3335.17188,173.451823 3336.14518,179.067057 3338.0918,181.912109 C3340.18815,184.906901 3344.00651,186.404297 3349.54688,186.404297 C3356.13542,186.404297 3362.49935,184.008464 3368.63867,179.216797 C3374.62826,174.42513 3377.62305,168.210938 3377.62305,160.574219 C3377.62305,156.980469 3377.62305,151.664714 3377.62305,144.626953 C3377.62305,140.284505 3377.62305,133.770833 3377.62305,125.085938 C3377.62305,122.839844 3378.44661,120.893229 3380.09375,119.246094 C3381.59115,117.748698 3383.46289,117 3385.70898,117 Z M3367.89648,135.193359 C3368.04622,135.193359 3368.19596,135.193359 3368.3457,135.193359 C3368.64518,135.193359 3368.86979,135.193359 3369.01953,135.193359 C3369.16927,135.193359 3369.39388,135.193359 3369.69336,135.193359 C3369.8431,135.193359 3369.99284,135.193359 3370.14258,135.193359 C3370.14258,138.038411 3370.14258,142.455729 3370.14258,148.445313 C3369.69336,148.445313 3368.94466,148.445313 3367.89648,148.445313 C3367.89648,146.199219 3367.89648,143.953125 3367.89648,141.707031 C3367.89648,139.460938 3367.89648,137.289714 3367.89648,135.193359 Z M3372.38867,148.445313 C3371.63997,151.290365 3370.51693,155.483073 3369.01953,161.023438 C3368.27083,158.178385 3367.14779,153.985677 3365.65039,148.445313 L3372.38867,148.445313 Z M3368.85,127.265 C3371.19721,127.265 3373.1,129.16779 3373.1,131.515 C3373.1,133.86221 3371.19721,135.765 3368.85,135.765 C3366.50279,135.765 3364.6,133.86221 3364.6,131.515 C3364.6,129.16779 3366.50279,127.265 3368.85,127.265 Z M3368.85,128.265 C3367.05507,128.265 3365.6,129.720075 3365.6,131.515 C3365.6,133.309925 3367.05507,134.765 3368.85,134.765 C3370.64493,134.765 3372.1,133.309925 3372.1,131.515 C3372.1,129.720075 3370.64493,128.265 3368.85,128.265 Z M3311.51953,165.515625 C3311.51953,178.09375 3313.76562,188.126302 3318.25781,195.613281 C3322.75,203.10026 3329.48828,207.966797 3338.47266,210.212891 C3338.47266,210.662109 3338.39779,211.410807 3338.24805,212.458984 C3334.05534,211.410807 3330.38672,209.913411 3327.24219,207.966797 C3324.2474,205.870443 3321.62695,203.549479 3319.38086,201.003906 C3315.33789,196.0625 3312.64258,190.372396 3311.29492,183.933594 C3309.94727,177.644531 3309.27344,171.505208 3309.27344,165.515625 C3309.27344,158.777344 3309.27344,148.669922 3309.27344,135.193359 C3309.42318,135.193359 3309.57292,135.193359 3309.72266,135.193359 C3310.02214,135.193359 3310.24674,135.193359 3310.39648,135.193359 C3310.54622,135.193359 3310.69596,135.193359 3310.8457,135.193359 C3311.14518,135.193359 3311.36979,135.193359 3311.51953,135.193359 C3311.51953,140.134766 3311.51953,145.151042 3311.51953,150.242188 C3311.51953,155.333333 3311.51953,160.424479 3311.51953,165.515625 Z M3338.69727,208.191406 C3341.39258,209.239583 3345.43555,210.811849 3350.82617,212.908203 C3347.98112,213.357422 3343.71354,214.03125 3338.02344,214.929688 C3338.02344,214.330729 3338.54753,209.089844 3338.69727,208.191406 Z M3355.2835,130.235 C3355.9855,130.235 3356.6605,130.37 3357.2815,130.64 C3357.9025,130.91 3358.4425,131.261 3358.9015,131.693 C3359.3335,132.152 3359.6845,132.665 3359.9545,133.205 C3360.1975,133.772 3360.3325,134.339 3360.3325,134.906 C3360.3325,136.013 3360.1435,137.039 3359.7655,138.011 C3359.3605,139.01 3358.7665,139.874 3358.0105,140.63 C3357.3895,141.224 3356.7955,141.791 3356.2015,142.385 L3354.3925,144.14 L3353.2855,145.193 C3352.8805,145.571 3352.3675,146.03 3351.7465,146.543 C3352.6375,146.435 3353.3935,146.381 3353.9875,146.327 C3354.5815,146.3 3355.1485,146.273 3355.6885,146.219 C3356.2555,146.192 3356.8495,146.165 3357.4975,146.165 C3358.1185,146.165 3358.7125,146.111 3359.3065,146.057 L3359.6845,146.003 L3360.0625,145.922 C3360.2785,145.868 3360.5215,145.841 3360.7645,145.841 C3361.0885,145.841 3361.3585,146.003 3361.6015,146.327 C3361.8445,146.651 3361.9795,146.975 3361.9795,147.353 C3361.9795,147.596 3361.8715,147.785 3361.7095,147.893 C3361.5475,148.055 3361.3855,148.109 3361.2235,148.109 C3360.6295,148.109 3360.0625,148.082 3359.4955,147.974 C3358.9015,147.893 3358.3075,147.839 3357.7405,147.839 C3356.7145,147.839 3355.6615,147.893 3354.5815,148.001 C3353.4745,148.109 3352.4215,148.217 3351.3955,148.352 C3351.2605,148.379 3351.1255,148.406 3351.0175,148.433 C3350.8825,148.46 3350.7475,148.487 3350.6125,148.514 C3350.3425,148.568 3350.0995,148.595 3349.8835,148.595 C3349.5325,148.595 3349.2355,148.514 3348.9655,148.298 C3348.6685,148.109 3348.5335,147.812 3348.5335,147.434 C3348.5335,147.191 3348.5875,146.975 3348.6955,146.759 C3348.8035,146.597 3348.9655,146.408 3349.1545,146.219 C3349.3705,146.003 3349.5595,145.787 3349.7755,145.571 C3349.9915,145.355 3350.2075,145.166 3350.4775,144.95 C3351.3955,144.221 3352.2865,143.465 3353.1235,142.655 L3355.6885,140.252 C3356.0125,139.928 3356.3635,139.577 3356.6875,139.199 C3356.9845,138.848 3357.2545,138.47 3357.4975,138.038 C3357.7405,137.633 3357.9295,137.201 3358.0915,136.715 C3358.2535,136.256 3358.3345,135.77 3358.3345,135.23 C3358.3345,134.798 3358.2535,134.393 3358.0915,133.988 C3357.9295,133.61 3357.7135,133.259 3357.4435,132.935 C3357.1465,132.638 3356.8225,132.395 3356.4445,132.206 C3356.0665,132.044 3355.6345,131.936 3355.2025,131.936 C3354.3925,131.936 3353.7445,132.125 3353.2855,132.476 C3352.7995,132.854 3352.3675,133.34 3351.9895,133.988 C3351.8815,134.15 3351.8275,134.285 3351.7735,134.447 C3351.7195,134.609 3351.6385,134.771 3351.5845,134.906 C3351.5035,135.068 3351.4225,135.23 3351.3415,135.365 C3351.2605,135.527 3351.1795,135.662 3351.1255,135.743 C3350.9635,135.905 3350.8285,136.04 3350.7205,136.121 C3350.5855,136.229 3350.4235,136.256 3350.2345,136.256 C3349.9645,136.256 3349.7215,136.148 3349.4785,135.905 C3349.2085,135.689 3349.1005,135.446 3349.1005,135.122 C3349.1005,134.879 3349.1545,134.582 3349.2895,134.258 C3349.3975,133.934 3349.5595,133.61 3349.7485,133.286 C3349.9105,132.962 3350.1265,132.665 3350.3425,132.368 C3350.5585,132.098 3350.7475,131.855 3350.9635,131.693 C3351.5575,131.18 3352.2325,130.802 3352.9885,130.559 C3353.7445,130.343 3354.5005,130.235 3355.2835,130.235 Z M3297.6335,129.397 C3298.0115,129.397 3298.3085,129.505 3298.5515,129.667 C3298.7675,129.829 3298.8755,130.099 3298.8755,130.45 C3298.8755,130.639 3298.8485,130.801 3298.8485,130.963 L3298.7675,131.476 L3298.6595,131.989 C3298.6055,132.178 3298.5515,132.34 3298.5245,132.502 C3298.0385,134.365 3297.7415,136.255 3297.5795,138.145 C3297.4175,140.062 3297.3635,141.952 3297.3635,143.842 C3297.3635,144.112 3297.3635,144.436 3297.4175,144.787 C3297.4175,145.138 3297.4715,145.462 3297.5255,145.759 C3297.5525,146.083 3297.5795,146.38 3297.6335,146.623 C3297.6335,146.893 3297.6605,147.055 3297.6605,147.136 C3297.6605,147.298 3297.5255,147.433 3297.3095,147.541 C3297.0395,147.649 3296.7965,147.703 3296.5805,147.703 C3296.1485,147.703 3295.8245,147.595 3295.5815,147.325 C3295.3385,147.082 3295.2305,146.758 3295.2305,146.326 C3295.2305,145.57 3295.2575,144.679 3295.3115,143.653 C3295.3385,142.627 3295.3925,141.601 3295.4465,140.575 C3295.4735,140.035 3295.5275,139.414 3295.5815,138.766 L3295.7975,136.849 C3295.8785,136.201 3295.9595,135.607 3296.0675,135.013 C3296.1215,134.419 3296.2025,133.906 3296.2835,133.474 C3295.9055,133.879 3295.6085,134.23 3295.3385,134.527 C3295.0685,134.824 3294.8525,135.04 3294.7175,135.175 L3294.1775,135.769 C3293.9615,136.012 3293.7995,136.201 3293.6645,136.363 C3293.4485,136.579 3293.2595,136.741 3293.0705,136.849 C3292.8545,136.957 3292.6385,137.011 3292.3955,137.011 C3292.0715,137.011 3291.7475,136.93 3291.4775,136.714 C3291.1535,136.525 3291.0185,136.282 3291.0185,135.958 C3291.0185,135.877 3291.0455,135.796 3291.1535,135.688 C3291.2345,135.607 3291.3425,135.526 3291.4775,135.418 L3291.7205,135.256 C3291.7745,135.202 3291.8555,135.175 3291.9365,135.121 L3292.1525,135.013 L3292.3415,134.851 C3292.9085,134.311 3293.5025,133.717 3294.1235,133.042 C3294.7175,132.394 3295.2575,131.746 3295.7705,131.152 C3295.9325,130.963 3296.1215,130.747 3296.2835,130.531 C3296.4185,130.315 3296.5805,130.126 3296.7965,129.91 C3296.8775,129.829 3297.0125,129.721 3297.1745,129.586 C3297.3365,129.478 3297.4715,129.397 3297.6335,129.397 Z M3310.45,127.265 C3312.79721,127.265 3314.7,129.16779 3314.7,131.515 C3314.7,133.86221 3312.79721,135.765 3310.45,135.765 C3308.10279,135.765 3306.2,133.86221 3306.2,131.515 C3306.2,129.16779 3308.10279,127.265 3310.45,127.265 Z M3310.45,128.265 C3308.65507,128.265 3307.2,129.720075 3307.2,131.515 C3307.2,133.309925 3308.65507,134.765 3310.45,134.765 C3312.24493,134.765 3313.7,133.309925 3313.7,131.515 C3313.7,129.720075 3312.24493,128.265 3310.45,128.265 Z M3407.8755,87.938 C3408.0105,87.938 3408.1725,87.965 3408.3885,88.019 C3408.5775,88.073 3408.7665,88.127 3408.9555,88.235 C3409.1175,88.343 3409.2525,88.451 3409.3875,88.559 C3409.4955,88.694 3409.5765,88.829 3409.5765,88.991 C3409.5765,89.315 3409.5495,89.612 3409.4955,89.909 C3409.4415,90.206 3409.4145,90.503 3409.4145,90.8 C3409.3605,91.61 3409.3065,92.42 3409.2795,93.203 C3409.2255,94.013 3409.1715,94.742 3409.1715,95.444 C3409.1175,96.146 3409.0905,96.794 3409.0905,97.361 C3409.07121,97.7852857 3409.0657,98.1406939 3409.06413,98.4469038 L3409.0635,98.792 C3409.0365,99.062 3409.0365,99.305 3409.0365,99.548 C3409.0365,99.818 3409.0365,100.115 3409.0635,100.466 C3409.2795,100.412 3409.5765,100.358 3409.9815,100.277 C3410.3595,100.223 3410.7645,100.196 3411.1965,100.196 C3411.8985,100.196 3412.2765,100.547 3412.2765,101.195 C3412.2765,101.465 3412.1955,101.681 3412.0335,101.843 C3411.8715,102.032 3411.6555,102.113 3411.4125,102.113 L3408.9825,102.167 L3408.9825,103.76 C3408.9825,104.246 3409.0095,104.705 3409.1175,105.137 C3409.2255,105.569 3409.2795,106.028 3409.2795,106.487 C3409.2795,106.811 3409.1445,107.027 3408.9285,107.189 C3408.6855,107.324 3408.4155,107.405 3408.1455,107.405 C3407.2815,107.405 3406.8495,106.892 3406.8495,105.839 L3406.85009,105.659593 C3406.85217,105.409667 3406.8615,105.02 3406.9035,104.516 L3406.9575,102.41 C3406.3095,102.518 3405.7695,102.599 3405.2835,102.707 C3404.7705,102.815 3404.2845,102.896 3403.8255,103.004 L3403.0155,103.193 C3402.7455,103.274 3402.4755,103.328 3402.2055,103.382 C3401.9085,103.436 3401.6115,103.49 3401.3415,103.517 C3401.0445,103.571 3400.7745,103.598 3400.5315,103.598 C3400.2075,103.598 3399.8835,103.571 3399.5595,103.463 C3399.2085,103.355 3398.9115,103.22 3398.6415,103.031 C3398.3715,102.842 3398.1555,102.599 3397.9935,102.302 C3397.8315,102.032 3397.7505,101.708 3397.7505,101.33 C3397.7505,101.114 3397.7775,100.871 3397.8855,100.601 C3397.9665,100.358 3398.0745,100.115 3398.2095,99.845 C3398.3445,99.575 3398.4795,99.332 3398.6415,99.089 C3398.8035,98.873 3398.9385,98.657 3399.1005,98.468 C3400.2615,96.875 3401.4495,95.336 3402.6915,93.824 C3403.9335,92.339 3405.1485,90.8 3406.3365,89.207 C3406.4175,89.072 3406.5255,88.937 3406.6335,88.775 C3406.7145,88.64 3406.8225,88.505 3406.9575,88.343 C3407.0655,88.235 3407.2005,88.127 3407.3895,88.046 C3407.5515,87.992 3407.7135,87.938 3407.8755,87.938 Z M3307.1495,88.262 C3307.7975,88.262 3308.4455,88.343 3309.0935,88.451 C3309.7415,88.586 3310.3355,88.802 3310.8755,89.099 C3311.4155,89.423 3311.8475,89.855 3312.1715,90.368 C3312.4955,90.908 3312.6575,91.556 3312.6575,92.312 C3312.6575,93.149 3312.4685,93.851 3312.1175,94.445 C3311.7395,95.039 3311.1185,95.633 3310.2545,96.2 C3310.9025,96.362 3311.5235,96.578 3312.0635,96.821 C3312.6035,97.064 3313.0895,97.361 3313.4945,97.685 C3313.8725,98.063 3314.1965,98.468 3314.4395,98.927 C3314.6555,99.413 3314.7635,99.953 3314.7635,100.547 C3314.7635,101.573 3314.5475,102.464 3314.1155,103.22 C3313.6565,104.003 3313.0895,104.651 3312.3875,105.191 C3311.6855,105.731 3310.8755,106.109 3310.0115,106.379 C3309.1205,106.676 3308.2295,106.811 3307.3655,106.811 C3307.0415,106.811 3306.6635,106.784 3306.2315,106.703 C3305.7725,106.649 3305.3135,106.568 3304.8545,106.46 C3304.3685,106.352 3303.9095,106.244 3303.4775,106.082 C3303.0185,105.947 3302.6405,105.785 3302.3165,105.623 C3302.0465,105.488 3301.8035,105.299 3301.5875,105.029 C3301.3445,104.813 3301.2365,104.516 3301.2365,104.192 C3301.2365,103.895 3301.3175,103.652 3301.5335,103.463 C3301.7225,103.274 3301.9385,103.166 3302.2085,103.166 C3302.3435,103.166 3302.5325,103.247 3302.7485,103.355 C3302.8295,103.409 3302.9375,103.463 3303.0455,103.517 C3303.1535,103.571 3303.2885,103.652 3303.4505,103.733 C3303.6935,103.895 3303.9365,104.03 3304.1795,104.165 C3304.4225,104.327 3304.6925,104.435 3304.9625,104.516 C3305.7185,104.813 3306.4475,104.948 3307.1225,104.948 C3307.7165,104.948 3308.3105,104.867 3308.9315,104.678 C3309.5525,104.516 3310.1195,104.246 3310.6055,103.895 C3311.0915,103.544 3311.5235,103.085 3311.8475,102.545 C3312.1445,102.032 3312.3065,101.411 3312.3065,100.682 C3312.3065,100.25 3312.1985,99.845 3312.0095,99.494 C3311.7935,99.17 3311.5505,98.873 3311.2535,98.63 C3310.9295,98.414 3310.6055,98.225 3310.2275,98.063 C3309.8495,97.901 3309.4985,97.793 3309.1475,97.685 C3308.9585,97.658 3308.7695,97.604 3308.6075,97.55 C3308.4185,97.496 3308.2295,97.469 3308.0405,97.469 C3307.7975,97.469 3307.5815,97.496 3307.3655,97.55 C3307.1495,97.604 3306.9335,97.685 3306.7175,97.766 C3306.5015,97.847 3306.3125,97.928 3306.0965,97.982 C3305.8805,98.063 3305.6645,98.09 3305.4485,98.09 C3305.1515,98.09 3304.8815,97.982 3304.6115,97.739 C3304.3145,97.496 3304.1795,97.226 3304.1795,96.902 C3304.1795,96.632 3304.2605,96.416 3304.4225,96.254 C3304.5035,96.173 3304.6655,96.092 3304.9355,96.011 C3305.1785,95.957 3305.4215,95.903 3305.6915,95.903 L3306.0965,95.903 C3306.4205,95.903 3306.7175,95.876 3307.0145,95.795 C3307.3115,95.741 3307.6625,95.606 3308.0945,95.417 C3308.4995,95.255 3308.8775,95.012 3309.2555,94.715 C3309.6335,94.418 3309.9305,94.067 3310.2005,93.635 C3310.4435,93.257 3310.5785,92.771 3310.5785,92.231 C3310.5785,91.799 3310.4705,91.448 3310.3085,91.151 C3310.1195,90.881 3309.9035,90.665 3309.6335,90.503 C3309.3365,90.341 3309.0125,90.233 3308.6615,90.179 C3308.3105,90.125 3307.9865,90.071 3307.6625,90.071 C3307.2305,90.071 3306.7715,90.179 3306.3395,90.368 C3305.8535,90.584 3305.4485,90.773 3305.0705,90.962 C3304.8815,91.07 3304.7195,91.151 3304.5575,91.232 L3304.0715,91.475 C3303.7205,91.637 3303.4235,91.691 3303.2075,91.691 C3302.9645,91.691 3302.7485,91.583 3302.5595,91.367 C3302.3435,91.151 3302.2625,90.881 3302.2625,90.584 C3302.2625,90.314 3302.3975,90.017 3302.7215,89.747 C3303.0455,89.477 3303.4505,89.207 3303.9365,88.991 C3304.4225,88.775 3304.9355,88.613 3305.5295,88.451 C3306.0965,88.343 3306.6365,88.262 3307.1495,88.262 Z M3330.08594,90 C3332.33203,90 3334.27865,90.7486979 3335.92578,92.2460937 C3337.57292,93.8932292 3338.39648,95.8398437 3338.39648,98.0859375 C3338.39648,100.332031 3337.57292,102.203776 3335.92578,103.701172 C3334.27865,105.348307 3332.33203,106.171875 3330.08594,106.171875 C3327.98958,106.171875 3326.11784,105.348307 3324.4707,103.701172 C3322.82357,102.203776 3322,100.332031 3322,98.0859375 C3322,95.8398437 3322.82357,93.8932292 3324.4707,92.2460937 C3326.11784,90.7486979 3327.98958,90 3330.08594,90 Z M3383.08594,90 C3385.33203,90 3387.27865,90.7486979 3388.92578,92.2460937 C3390.57292,93.8932292 3391.39648,95.8398437 3391.39648,98.0859375 C3391.39648,100.332031 3390.57292,102.203776 3388.92578,103.701172 C3387.27865,105.348307 3385.33203,106.171875 3383.08594,106.171875 C3380.98958,106.171875 3379.11784,105.348307 3377.4707,103.701172 C3375.82357,102.203776 3375,100.332031 3375,98.0859375 C3375,95.8398437 3375.82357,93.8932292 3377.4707,92.2460937 C3379.11784,90.7486979 3380.98958,90 3383.08594,90 Z M3407.3355,90.8 C3406.4715,91.988 3405.6615,93.095 3404.8785,94.148 C3404.0685,95.228 3403.3125,96.2 3402.6105,97.091 C3402.4485,97.307 3402.2055,97.577 3401.9355,97.955 C3401.6655,98.333 3401.3955,98.711 3401.1255,99.116 C3400.8285,99.548 3400.5855,99.953 3400.3695,100.331 C3400.1535,100.736 3400.0725,101.06 3400.0725,101.276 C3400.0725,101.438 3400.1535,101.546 3400.3155,101.627 C3400.4775,101.708 3400.6125,101.735 3400.7745,101.735 C3401.0445,101.735 3401.4765,101.708 3402.0165,101.627 C3402.5565,101.573 3403.1235,101.465 3403.7175,101.357 L3405.4995,101.033 C3406.0935,100.925 3406.5795,100.817 3406.9845,100.709 Z M3382.1225,51.262 C3384.3625,51.262 3385.7065,52.158 3385.7065,53.726 C3385.7065,55.518 3384.3625,57.982 3382.1225,61.118 C3379.6585,64.254 3376.7465,67.39 3373.6105,70.302 C3370.2505,73.438 3367.1145,76.126 3363.9785,78.366 C3360.6185,80.606 3358.1545,81.726 3356.3625,81.726 C3354.5705,81.726 3351.8825,80.606 3348.7465,78.366 C3345.6105,76.126 3342.2505,73.438 3339.1145,70.302 C3335.7545,67.39 3332.8425,64.254 3330.6025,61.118 C3328.1385,57.982 3327.0185,55.518 3327.0185,53.726 C3327.0185,52.158 3328.1385,51.262 3330.8265,51.262 C3332.3945,51.262 3334.1865,51.71 3336.4265,52.606 C3338.4425,53.502 3340.6825,54.846 3343.1465,56.19 C3345.3865,57.758 3347.8505,59.326 3350.0905,60.894 C3352.1065,62.462 3354.1225,63.806 3356.3625,65.15 C3358.3785,63.806 3360.3945,62.462 3362.6345,60.894 C3364.8745,59.326 3367.1145,57.758 3369.5785,56.19 C3371.8185,54.846 3374.2825,53.502 3376.5225,52.606 C3378.5385,51.71 3380.3305,51.262 3382.1225,51.262 Z M3378.35076,37.3417432 L3369.64551,47.6038445 L3368.5565,46.164 L3357.06319,53.9980409 L3356.48809,54.3900057 L3355.92076,53.9868719 L3344.57489,45.9253517 C3343.82401,46.5938437 3342.83443,47 3341.75,47 C3339.40279,47 3337.5,45.0972102 3337.5,42.75 C3337.5,40.4027898 3339.40279,38.5 3341.75,38.5 C3344.09721,38.5 3346,40.4027898 3346,42.75 C3346,43.2899034 3345.89933,43.806293 3345.71573,44.2814204 L3356.512,51.953 L3367.3495,44.567 L3366.40575,43.3197489 L3378.35076,37.3417432 Z M3329.2805,29.235 C3329.3885,29.235 3329.5775,29.289 3329.7935,29.343 L3330.4415,29.667 C3330.6305,29.775 3330.7925,29.91 3330.9545,30.045 C3331.0895,30.207 3331.1705,30.342 3331.1705,30.45 C3331.1705,30.612 3331.1435,30.72 3331.1165,30.774 C3331.0625,30.828 3330.9815,30.882 3330.8735,30.936 C3330.7115,31.017 3330.5225,31.071 3330.3605,31.071 L3329.7935,31.179 C3329.5775,31.233 3329.3885,31.233 3329.1995,31.233 C3328.9835,31.26 3328.7945,31.287 3328.6325,31.314 L3326.0675,31.719 C3325.2035,31.827 3324.2855,31.935 3323.3135,32.016 L3323.0975,34.743 C3322.9895,35.607 3322.9085,36.552 3322.8275,37.578 C3323.5835,37.362 3324.2855,37.173 3324.9335,37.011 C3325.5815,36.903 3326.2565,36.822 3326.9045,36.822 C3327.6065,36.822 3328.2815,36.876 3328.9835,36.957 C3329.6585,37.065 3330.2795,37.335 3330.8735,37.74 C3332.0075,38.631 3332.6015,39.792 3332.6015,41.25 C3332.6015,42.438 3332.3855,43.437 3332.0075,44.301 C3331.6025,45.165 3331.0625,45.867 3330.3875,46.407 C3329.6855,47.001 3328.8755,47.406 3327.9575,47.676 C3327.0395,47.946 3326.0675,48.081 3325.0415,48.081 C3324.7715,48.081 3324.4205,48.027 3324.0155,47.973 C3323.5835,47.919 3323.1515,47.838 3322.7195,47.757 C3322.2875,47.676 3321.8555,47.568 3321.4775,47.433 C3321.0455,47.325 3320.7215,47.217 3320.5055,47.109 C3320.2085,47.001 3319.9655,46.812 3319.7495,46.569 C3319.5335,46.353 3319.4255,46.083 3319.4255,45.759 C3319.4255,45.462 3319.5065,45.219 3319.6955,45.003 C3319.8575,44.841 3320.0465,44.733 3320.3165,44.733 C3320.3975,44.733 3320.5055,44.76 3320.6405,44.787 C3320.7485,44.841 3320.8835,44.922 3321.0455,44.976 C3321.1805,45.057 3321.3155,45.138 3321.4775,45.219 C3321.6395,45.327 3321.8015,45.435 3322.0175,45.516 C3322.3955,45.732 3322.8275,45.921 3323.3675,46.083 C3323.8535,46.245 3324.4475,46.326 3325.0955,46.326 C3325.7435,46.326 3326.3915,46.245 3327.0395,46.029 C3327.6605,45.813 3328.2275,45.516 3328.7135,45.111 C3329.1995,44.733 3329.5775,44.247 3329.9015,43.653 C3330.1715,43.059 3330.3335,42.384 3330.3335,41.601 C3330.3335,41.061 3330.2255,40.602 3330.0365,40.224 C3329.8205,39.846 3329.5775,39.549 3329.2535,39.333 C3328.9295,39.117 3328.5515,38.955 3328.1465,38.847 C3327.7145,38.739 3327.2825,38.685 3326.8505,38.685 C3326.2565,38.685 3325.7165,38.739 3325.2305,38.793 C3324.7175,38.847 3324.2045,38.982 3323.6645,39.144 C3323.4485,39.225 3323.2595,39.306 3323.0975,39.387 C3322.9085,39.495 3322.7195,39.603 3322.5575,39.684 C3322.3685,39.792 3322.2065,39.846 3322.0715,39.9 C3321.9095,39.954 3321.7205,39.981 3321.5315,39.981 C3321.4235,39.981 3321.3425,39.954 3321.2345,39.9 C3321.1265,39.846 3321.0185,39.792 3320.9105,39.711 C3320.8025,39.63 3320.6945,39.549 3320.6405,39.441 C3320.5595,39.333 3320.5325,39.252 3320.5325,39.171 C3320.5325,38.928 3320.5595,38.685 3320.6135,38.415 L3320.6675,38.037 L3320.7215,37.686 C3320.7485,37.281 3320.7755,36.687 3320.8295,35.931 C3320.8295,35.175 3320.8835,34.392 3320.9375,33.582 C3320.9645,32.826 3321.0185,32.097 3321.0995,31.422 C3321.1535,30.774 3321.2615,30.288 3321.4235,29.964 C3321.5315,29.91 3321.6665,29.856 3321.8555,29.802 C3322.0175,29.748 3322.1525,29.721 3322.3145,29.721 C3322.4765,29.721 3322.6655,29.775 3322.8275,29.829 C3322.9625,29.883 3323.1245,30.018 3323.3135,30.18 C3324.0965,30.18 3324.9065,30.153 3325.7435,30.045 C3326.5535,29.937 3327.3095,29.802 3328.0115,29.613 C3328.0925,29.586 3328.2005,29.559 3328.3355,29.505 L3328.6865,29.397 C3328.7945,29.37 3328.8755,29.343 3328.9835,29.289 C3329.0915,29.262 3329.1725,29.235 3329.2805,29.235 Z M3341.75,39.5 C3339.95507,39.5 3338.5,40.9550746 3338.5,42.75 C3338.5,44.5449254 3339.95507,46 3341.75,46 C3343.54493,46 3345,44.5449254 3345,42.75 C3345,40.9550746 3343.54493,39.5 3341.75,39.5 Z" transform="translate(-3305)"/></svg>