<svg xmlns="http://www.w3.org/2000/svg" width="103" height="243" viewBox="0 0 103 243"><path fill="#131313" d="M94.6904844,91.765 C96.9365781,91.765 98.8831927,92.5136979 100.530328,94.0110937 C102.177464,95.6582292 103.001031,97.6048437 103.001031,99.8509375 C103.001031,104.193385 103.001031,110.707057 103.001031,119.391953 C103.001031,122.985703 103.001031,128.301458 103.001031,135.339219 C103.001031,142.826198 103.001031,154.131536 103.001031,169.255234 C103.001031,171.501328 102.177464,173.447943 100.530328,175.095078 C98.8831927,176.592474 96.9365781,177.341172 94.6904844,177.341172 C92.4443906,177.341172 90.5726458,176.592474 89.07525,175.095078 C87.4281146,173.447943 86.6045469,171.501328 86.6045469,169.255234 C86.6045469,168.955755 86.6045469,168.431667 86.6045469,167.682969 C82.8610573,170.67776 78.668349,172.998724 74.0264219,174.645859 C69.2347552,176.442734 64.0687396,177.341172 58.528375,177.341172 C53.13775,177.341172 48.6455625,176.592474 45.0518125,175.095078 C41.4580625,173.597682 38.5381406,171.651068 36.2920469,169.255234 C32.0993385,164.763047 29.7035052,159.597031 29.1045469,153.757187 C28.355849,147.917344 27.9815,143.275417 27.9815,139.831406 C27.9815,130.996771 27.9815,117.669948 27.9815,99.8509375 C27.9815,97.6048437 28.8050677,95.6582292 30.4522031,94.0110937 C31.949599,92.5136979 33.8213437,91.765 36.0674375,91.765 C38.3135312,91.765 40.2601458,92.5136979 41.9072812,94.0110937 C43.4046771,95.6582292 44.153375,97.6048437 44.153375,99.8509375 C44.153375,108.685573 44.153375,122.012396 44.153375,139.831406 C44.153375,148.216823 45.1266823,153.832057 47.0732969,156.677109 C49.169651,159.671901 52.9880104,161.169297 58.528375,161.169297 C65.1169167,161.169297 71.480849,158.773464 77.6201719,153.981797 C83.6097552,149.19013 86.6045469,142.975937 86.6045469,135.339219 C86.6045469,131.745469 86.6045469,126.429714 86.6045469,119.391953 C86.6045469,115.049505 86.6045469,108.535833 86.6045469,99.8509375 C86.6045469,97.6048437 87.4281146,95.6582292 89.07525,94.0110937 C90.5726458,92.5136979 92.4443906,91.765 94.6904844,91.765 Z M76.8779844,109.958359 C77.027724,109.958359 77.1774635,109.958359 77.3272031,109.958359 C77.6266823,109.958359 77.8512917,109.958359 78.0010312,109.958359 C78.1507708,109.958359 78.3753802,109.958359 78.6748594,109.958359 C78.824599,109.958359 78.9743385,109.958359 79.1240781,109.958359 C79.1240781,112.803411 79.1240781,117.220729 79.1240781,123.210312 C78.6748594,123.210312 77.9261615,123.210312 76.8779844,123.210312 C76.8779844,120.964219 76.8779844,118.718125 76.8779844,116.472031 C76.8779844,114.225937 76.8779844,112.054714 76.8779844,109.958359 Z M81.3701719,123.210312 C80.621474,126.055365 79.4984271,130.248073 78.0010312,135.788437 C77.2523333,132.943385 76.1292865,128.750677 74.6318906,123.210312 L81.3701719,123.210312 Z M77.8315,102.03 C80.1787102,102.03 82.0815,103.93279 82.0815,106.28 C82.0815,108.62721 80.1787102,110.53 77.8315,110.53 C75.4842898,110.53 73.5815,108.62721 73.5815,106.28 C73.5815,103.93279 75.4842898,102.03 77.8315,102.03 Z M77.8315,103.03 C76.0365746,103.03 74.5815,104.485075 74.5815,106.28 C74.5815,108.074925 76.0365746,109.53 77.8315,109.53 C79.6264254,109.53 81.0815,108.074925 81.0815,106.28 C81.0815,104.485075 79.6264254,103.03 77.8315,103.03 Z M20.5010312,140.280625 C20.5010312,152.85875 22.747125,162.891302 27.2393125,170.378281 C31.7315,177.86526 38.4697812,182.731797 47.4541562,184.977891 C47.4541562,185.427109 47.3792865,186.175807 47.2295469,187.223984 C43.0368385,186.175807 39.3682187,184.678411 36.2236875,182.731797 C33.2288958,180.635443 30.6084531,178.314479 28.3623594,175.768906 C24.3193906,170.8275 21.6240781,165.137396 20.2764219,158.698594 C18.9287656,152.409531 18.2549375,146.270208 18.2549375,140.280625 C18.2549375,133.542344 18.2549375,123.434922 18.2549375,109.958359 C18.4046771,109.958359 18.5544167,109.958359 18.7041562,109.958359 C19.0036354,109.958359 19.2282448,109.958359 19.3779844,109.958359 C19.527724,109.958359 19.6774635,109.958359 19.8272031,109.958359 C20.1266823,109.958359 20.3512917,109.958359 20.5010312,109.958359 C20.5010312,114.899766 20.5010312,119.916042 20.5010312,125.007187 C20.5010312,130.098333 20.5010312,135.189479 20.5010312,140.280625 Z M47.6787656,182.956406 C50.3740781,184.004583 54.4170469,185.576849 59.8076719,187.673203 C56.9626198,188.122422 52.6950417,188.79625 47.0049375,189.694687 C47.0049375,189.095729 47.529026,183.854844 47.6787656,182.956406 Z M64.265,105 C64.967,105 65.642,105.135 66.263,105.405 C66.884,105.675 67.424,106.026 67.883,106.458 C68.315,106.917 68.666,107.43 68.936,107.97 C69.179,108.537 69.314,109.104 69.314,109.671 C69.314,110.778 69.125,111.804 68.747,112.776 C68.342,113.775 67.748,114.639 66.992,115.395 C66.371,115.989 65.777,116.556 65.183,117.15 L63.374,118.905 L62.267,119.958 C61.862,120.336 61.349,120.795 60.728,121.308 C61.619,121.2 62.375,121.146 62.969,121.092 C63.563,121.065 64.13,121.038 64.67,120.984 C65.237,120.957 65.831,120.93 66.479,120.93 C67.1,120.93 67.694,120.876 68.288,120.822 L68.666,120.768 L69.044,120.687 C69.26,120.633 69.503,120.606 69.746,120.606 C70.07,120.606 70.34,120.768 70.583,121.092 C70.826,121.416 70.961,121.74 70.961,122.118 C70.961,122.361 70.853,122.55 70.691,122.658 C70.529,122.82 70.367,122.874 70.205,122.874 C69.611,122.874 69.044,122.847 68.477,122.739 C67.883,122.658 67.289,122.604 66.722,122.604 C65.696,122.604 64.643,122.658 63.563,122.766 C62.456,122.874 61.403,122.982 60.377,123.117 C60.242,123.144 60.107,123.171 59.999,123.198 C59.864,123.225 59.729,123.252 59.594,123.279 C59.324,123.333 59.081,123.36 58.865,123.36 C58.514,123.36 58.217,123.279 57.947,123.063 C57.65,122.874 57.515,122.577 57.515,122.199 C57.515,121.956 57.569,121.74 57.677,121.524 C57.785,121.362 57.947,121.173 58.136,120.984 C58.352,120.768 58.541,120.552 58.757,120.336 C58.973,120.12 59.189,119.931 59.459,119.715 C60.377,118.986 61.268,118.23 62.105,117.42 L64.67,115.017 C64.994,114.693 65.345,114.342 65.669,113.964 C65.966,113.613 66.236,113.235 66.479,112.803 C66.722,112.398 66.911,111.966 67.073,111.48 C67.235,111.021 67.316,110.535 67.316,109.995 C67.316,109.563 67.235,109.158 67.073,108.753 C66.911,108.375 66.695,108.024 66.425,107.7 C66.128,107.403 65.804,107.16 65.426,106.971 C65.048,106.809 64.616,106.701 64.184,106.701 C63.374,106.701 62.726,106.89 62.267,107.241 C61.781,107.619 61.349,108.105 60.971,108.753 C60.863,108.915 60.809,109.05 60.755,109.212 C60.701,109.374 60.62,109.536 60.566,109.671 C60.485,109.833 60.404,109.995 60.323,110.13 C60.242,110.292 60.161,110.427 60.107,110.508 C59.945,110.67 59.81,110.805 59.702,110.886 C59.567,110.994 59.405,111.021 59.216,111.021 C58.946,111.021 58.703,110.913 58.46,110.67 C58.19,110.454 58.082,110.211 58.082,109.887 C58.082,109.644 58.136,109.347 58.271,109.023 C58.379,108.699 58.541,108.375 58.73,108.051 C58.892,107.727 59.108,107.43 59.324,107.133 C59.54,106.863 59.729,106.62 59.945,106.458 C60.539,105.945 61.214,105.567 61.97,105.324 C62.726,105.108 63.482,105 64.265,105 Z M6.615,104.162 C6.993,104.162 7.29,104.27 7.533,104.432 C7.749,104.594 7.857,104.864 7.857,105.215 C7.857,105.404 7.83,105.566 7.83,105.728 L7.749,106.241 L7.641,106.754 C7.587,106.943 7.533,107.105 7.506,107.267 C7.02,109.13 6.723,111.02 6.561,112.91 C6.399,114.827 6.345,116.717 6.345,118.607 C6.345,118.877 6.345,119.201 6.399,119.552 C6.399,119.903 6.453,120.227 6.507,120.524 C6.534,120.848 6.561,121.145 6.615,121.388 C6.615,121.658 6.642,121.82 6.642,121.901 C6.642,122.063 6.507,122.198 6.291,122.306 C6.021,122.414 5.778,122.468 5.562,122.468 C5.13,122.468 4.806,122.36 4.563,122.09 C4.32,121.847 4.212,121.523 4.212,121.091 C4.212,120.335 4.239,119.444 4.293,118.418 C4.32,117.392 4.374,116.366 4.428,115.34 C4.455,114.8 4.509,114.179 4.563,113.531 L4.779,111.614 C4.86,110.966 4.941,110.372 5.049,109.778 C5.103,109.184 5.184,108.671 5.265,108.239 C4.887,108.644 4.59,108.995 4.32,109.292 C4.05,109.589 3.834,109.805 3.699,109.94 L3.159,110.534 C2.943,110.777 2.781,110.966 2.646,111.128 C2.43,111.344 2.241,111.506 2.052,111.614 C1.836,111.722 1.62,111.776 1.377,111.776 C1.053,111.776 0.729,111.695 0.459,111.479 C0.135,111.29 0,111.047 0,110.723 C0,110.642 0.027,110.561 0.135,110.453 C0.216,110.372 0.324,110.291 0.459,110.183 L0.702,110.021 C0.756,109.967 0.837,109.94 0.918,109.886 L1.134,109.778 C1.188,109.724 1.269,109.67 1.323,109.616 C1.89,109.076 2.484,108.482 3.105,107.807 C3.699,107.159 4.239,106.511 4.752,105.917 C4.914,105.728 5.103,105.512 5.265,105.296 C5.4,105.08 5.562,104.891 5.778,104.675 C5.859,104.594 5.994,104.486 6.156,104.351 C6.318,104.243 6.453,104.162 6.615,104.162 Z M19.4315,102.03 C21.7787102,102.03 23.6815,103.93279 23.6815,106.28 C23.6815,108.62721 21.7787102,110.53 19.4315,110.53 C17.0842898,110.53 15.1815,108.62721 15.1815,106.28 C15.1815,103.93279 17.0842898,102.03 19.4315,102.03 Z M19.4315,103.03 C17.6365746,103.03 16.1815,104.485075 16.1815,106.28 C16.1815,108.074925 17.6365746,109.53 19.4315,109.53 C21.2264254,109.53 22.6815,108.074925 22.6815,106.28 C22.6815,104.485075 21.2264254,103.03 19.4315,103.03 Z M116.857,58.703 C116.992,58.703 117.154,58.73 117.37,58.784 C117.559,58.838 117.748,58.892 117.937,59 C118.099,59.108 118.234,59.216 118.369,59.324 C118.477,59.459 118.558,59.594 118.558,59.756 C118.558,60.08 118.531,60.377 118.477,60.674 C118.423,60.971 118.396,61.268 118.396,61.565 C118.342,62.375 118.288,63.185 118.261,63.968 C118.207,64.778 118.153,65.507 118.153,66.209 C118.099,66.911 118.072,67.559 118.072,68.126 C118.045,68.72 118.045,69.179 118.045,69.557 C118.018,69.827 118.018,70.07 118.018,70.313 C118.018,70.583 118.018,70.88 118.045,71.231 C118.261,71.177 118.558,71.123 118.963,71.042 C119.341,70.988 119.746,70.961 120.178,70.961 C120.88,70.961 121.258,71.312 121.258,71.96 C121.258,72.23 121.177,72.446 121.015,72.608 C120.853,72.797 120.637,72.878 120.394,72.878 L117.964,72.932 L117.964,74.525 C117.964,75.011 117.991,75.47 118.099,75.902 C118.207,76.334 118.261,76.793 118.261,77.252 C118.261,77.576 118.126,77.792 117.91,77.954 C117.667,78.089 117.397,78.17 117.127,78.17 C116.263,78.17 115.831,77.657 115.831,76.604 C115.831,76.388 115.831,75.929 115.885,75.281 L115.939,73.175 C115.291,73.283 114.751,73.364 114.265,73.472 C113.752,73.58 113.266,73.661 112.807,73.769 L111.997,73.958 C111.727,74.039 111.457,74.093 111.187,74.147 C110.89,74.201 110.593,74.255 110.323,74.282 C110.026,74.336 109.756,74.363 109.513,74.363 C109.189,74.363 108.865,74.336 108.541,74.228 C108.19,74.12 107.893,73.985 107.623,73.796 C107.353,73.607 107.137,73.364 106.975,73.067 C106.813,72.797 106.732,72.473 106.732,72.095 C106.732,71.879 106.759,71.636 106.867,71.366 C106.948,71.123 107.056,70.88 107.191,70.61 C107.326,70.34 107.461,70.097 107.623,69.854 C107.785,69.638 107.92,69.422 108.082,69.233 C109.243,67.64 110.431,66.101 111.673,64.589 C112.915,63.104 114.13,61.565 115.318,59.972 C115.399,59.837 115.507,59.702 115.615,59.54 C115.696,59.405 115.804,59.27 115.939,59.108 C116.047,59 116.182,58.892 116.371,58.811 C116.533,58.757 116.695,58.703 116.857,58.703 Z M16.131,59.027 C16.779,59.027 17.427,59.108 18.075,59.216 C18.723,59.351 19.317,59.567 19.857,59.864 C20.397,60.188 20.829,60.62 21.153,61.133 C21.477,61.673 21.639,62.321 21.639,63.077 C21.639,63.914 21.45,64.616 21.099,65.21 C20.721,65.804 20.1,66.398 19.236,66.965 C19.884,67.127 20.505,67.343 21.045,67.586 C21.585,67.829 22.071,68.126 22.476,68.45 C22.854,68.828 23.178,69.233 23.421,69.692 C23.637,70.178 23.745,70.718 23.745,71.312 C23.745,72.338 23.529,73.229 23.097,73.985 C22.638,74.768 22.071,75.416 21.369,75.956 C20.667,76.496 19.857,76.874 18.993,77.144 C18.102,77.441 17.211,77.576 16.347,77.576 C16.023,77.576 15.645,77.549 15.213,77.468 C14.754,77.414 14.295,77.333 13.836,77.225 C13.35,77.117 12.891,77.009 12.459,76.847 C12,76.712 11.622,76.55 11.298,76.388 C11.028,76.253 10.785,76.064 10.569,75.794 C10.326,75.578 10.218,75.281 10.218,74.957 C10.218,74.66 10.299,74.417 10.515,74.228 C10.704,74.039 10.92,73.931 11.19,73.931 C11.325,73.931 11.514,74.012 11.73,74.12 C11.811,74.174 11.919,74.228 12.027,74.282 C12.135,74.336 12.27,74.417 12.432,74.498 C12.675,74.66 12.918,74.795 13.161,74.93 C13.404,75.092 13.674,75.2 13.944,75.281 C14.7,75.578 15.429,75.713 16.104,75.713 C16.698,75.713 17.292,75.632 17.913,75.443 C18.534,75.281 19.101,75.011 19.587,74.66 C20.073,74.309 20.505,73.85 20.829,73.31 C21.126,72.797 21.288,72.176 21.288,71.447 C21.288,71.015 21.18,70.61 20.991,70.259 C20.775,69.935 20.532,69.638 20.235,69.395 C19.911,69.179 19.587,68.99 19.209,68.828 C18.831,68.666 18.48,68.558 18.129,68.45 C17.94,68.423 17.751,68.369 17.589,68.315 C17.4,68.261 17.211,68.234 17.022,68.234 C16.779,68.234 16.563,68.261 16.347,68.315 C16.131,68.369 15.915,68.45 15.699,68.531 C15.483,68.612 15.294,68.693 15.078,68.747 C14.862,68.828 14.646,68.855 14.43,68.855 C14.133,68.855 13.863,68.747 13.593,68.504 C13.296,68.261 13.161,67.991 13.161,67.667 C13.161,67.397 13.242,67.181 13.404,67.019 C13.485,66.938 13.647,66.857 13.917,66.776 C14.16,66.722 14.403,66.668 14.673,66.668 L15.078,66.668 C15.402,66.668 15.699,66.641 15.996,66.56 C16.293,66.506 16.644,66.371 17.076,66.182 C17.481,66.02 17.859,65.777 18.237,65.48 C18.615,65.183 18.912,64.832 19.182,64.4 C19.425,64.022 19.56,63.536 19.56,62.996 C19.56,62.564 19.452,62.213 19.29,61.916 C19.101,61.646 18.885,61.43 18.615,61.268 C18.318,61.106 17.994,60.998 17.643,60.944 C17.292,60.89 16.968,60.836 16.644,60.836 C16.212,60.836 15.753,60.944 15.321,61.133 C14.835,61.349 14.43,61.538 14.052,61.727 C13.863,61.835 13.701,61.916 13.539,61.997 L13.053,62.24 C12.702,62.402 12.405,62.456 12.189,62.456 C11.946,62.456 11.73,62.348 11.541,62.132 C11.325,61.916 11.244,61.646 11.244,61.349 C11.244,61.079 11.379,60.782 11.703,60.512 C12.027,60.242 12.432,59.972 12.918,59.756 C13.404,59.54 13.917,59.378 14.511,59.216 C15.078,59.108 15.618,59.027 16.131,59.027 Z M35.9815,60.765 C40.399778,60.765 43.9815,64.346722 43.9815,68.765 C43.9815,73.183278 40.399778,76.765 35.9815,76.765 C31.563222,76.765 27.9815,73.183278 27.9815,68.765 C27.9815,64.346722 31.563222,60.765 35.9815,60.765 Z M94.9815,60.765 C99.399778,60.765 102.9815,64.346722 102.9815,68.765 C102.9815,73.183278 99.399778,76.765 94.9815,76.765 C90.563222,76.765 86.9815,73.183278 86.9815,68.765 C86.9815,64.346722 90.563222,60.765 94.9815,60.765 Z M116.317,61.565 C115.453,62.753 114.643,63.86 113.86,64.913 C113.05,65.993 112.294,66.965 111.592,67.856 C111.43,68.072 111.187,68.342 110.917,68.72 C110.647,69.098 110.377,69.476 110.107,69.881 C109.81,70.313 109.567,70.718 109.351,71.096 C109.135,71.501 109.054,71.825 109.054,72.041 C109.054,72.203 109.135,72.311 109.297,72.392 C109.459,72.473 109.594,72.5 109.756,72.5 C110.026,72.5 110.458,72.473 110.998,72.392 C111.538,72.338 112.105,72.23 112.699,72.122 L114.481,71.798 C115.075,71.69 115.561,71.582 115.966,71.474 Z M91.104,22.027 C93.344,22.027 94.688,22.923 94.688,24.491 C94.688,26.283 93.344,28.747 91.104,31.883 C88.64,35.019 85.728,38.155 82.592,41.067 C79.232,44.203 76.096,46.891 72.96,49.131 C69.6,51.371 67.136,52.491 65.344,52.491 C63.552,52.491 60.864,51.371 57.728,49.131 C54.592,46.891 51.232,44.203 48.096,41.067 C44.736,38.155 41.824,35.019 39.584,31.883 C37.12,28.747 36,26.283 36,24.491 C36,22.923 37.12,22.027 39.808,22.027 C41.376,22.027 43.168,22.475 45.408,23.371 C47.424,24.267 49.664,25.611 52.128,26.955 C54.368,28.523 56.832,30.091 59.072,31.659 C61.088,33.227 63.104,34.571 65.344,35.915 C67.36,34.571 69.376,33.227 71.616,31.659 C73.856,30.091 76.096,28.523 78.56,26.955 C80.8,25.611 83.264,24.267 85.504,23.371 C87.52,22.475 89.312,22.027 91.104,22.027 Z M87.3322574,8.10674316 L78.6270074,18.3688445 L77.538,16.929 L66.0446902,24.7630409 L65.4695893,25.1550057 L64.9022617,24.7518719 L53.5563931,16.6903517 C52.8055053,17.3588437 51.8159341,17.765 50.7315,17.765 C48.3842898,17.765 46.4815,15.8622102 46.4815,13.515 C46.4815,11.1677898 48.3842898,9.265 50.7315,9.265 C53.0787102,9.265 54.9815,11.1677898 54.9815,13.515 C54.9815,14.0549034 54.8808256,14.571293 54.6972253,15.0464204 L65.4935,22.718 L76.331,15.332 L75.3872489,14.0847489 L87.3322574,8.10674316 Z M38.262,-1.13686838e-13 C38.37,-1.13686838e-13 38.559,0.054 38.775,0.108 L39.423,0.432 C39.612,0.54 39.774,0.675 39.936,0.81 C40.071,0.972 40.152,1.107 40.152,1.215 C40.152,1.377 40.125,1.485 40.098,1.539 C40.044,1.593 39.963,1.647 39.855,1.701 C39.693,1.782 39.504,1.836 39.342,1.836 L38.775,1.944 C38.559,1.998 38.37,1.998 38.181,1.998 C37.965,2.025 37.776,2.052 37.614,2.079 L35.049,2.484 C34.185,2.592 33.267,2.7 32.295,2.781 L32.079,5.508 C31.971,6.372 31.89,7.317 31.809,8.343 C32.565,8.127 33.267,7.938 33.915,7.776 C34.563,7.668 35.238,7.587 35.886,7.587 C36.588,7.587 37.263,7.641 37.965,7.722 C38.64,7.83 39.261,8.1 39.855,8.505 C40.989,9.396 41.583,10.557 41.583,12.015 C41.583,13.203 41.367,14.202 40.989,15.066 C40.584,15.93 40.044,16.632 39.369,17.172 C38.667,17.766 37.857,18.171 36.939,18.441 C36.021,18.711 35.049,18.846 34.023,18.846 C33.753,18.846 33.402,18.792 32.997,18.738 C32.565,18.684 32.133,18.603 31.701,18.522 C31.269,18.441 30.837,18.333 30.459,18.198 C30.027,18.09 29.703,17.982 29.487,17.874 C29.19,17.766 28.947,17.577 28.731,17.334 C28.515,17.118 28.407,16.848 28.407,16.524 C28.407,16.227 28.488,15.984 28.677,15.768 C28.839,15.606 29.028,15.498 29.298,15.498 C29.379,15.498 29.487,15.525 29.622,15.552 C29.73,15.606 29.865,15.687 30.027,15.741 C30.162,15.822 30.297,15.903 30.459,15.984 C30.621,16.092 30.783,16.2 30.999,16.281 C31.377,16.497 31.809,16.686 32.349,16.848 C32.835,17.01 33.429,17.091 34.077,17.091 C34.725,17.091 35.373,17.01 36.021,16.794 C36.642,16.578 37.209,16.281 37.695,15.876 C38.181,15.498 38.559,15.012 38.883,14.418 C39.153,13.824 39.315,13.149 39.315,12.366 C39.315,11.826 39.207,11.367 39.018,10.989 C38.802,10.611 38.559,10.314 38.235,10.098 C37.911,9.882 37.533,9.72 37.128,9.612 C36.696,9.504 36.264,9.45 35.832,9.45 C35.238,9.45 34.698,9.504 34.212,9.558 C33.699,9.612 33.186,9.747 32.646,9.909 C32.43,9.99 32.241,10.071 32.079,10.152 C31.89,10.26 31.701,10.368 31.539,10.449 C31.35,10.557 31.188,10.611 31.053,10.665 C30.891,10.719 30.702,10.746 30.513,10.746 C30.405,10.746 30.324,10.719 30.216,10.665 C30.108,10.611 30,10.557 29.892,10.476 C29.784,10.395 29.676,10.314 29.622,10.206 C29.541,10.098 29.514,10.017 29.514,9.936 C29.514,9.693 29.541,9.45 29.595,9.18 L29.649,8.802 L29.703,8.451 C29.73,8.046 29.757,7.452 29.811,6.696 C29.811,5.94 29.865,5.157 29.919,4.347 C29.946,3.591 30,2.862 30.081,2.187 C30.135,1.539 30.243,1.053 30.405,0.729 C30.513,0.675 30.648,0.621 30.837,0.567 C30.999,0.513 31.134,0.486 31.296,0.486 C31.458,0.486 31.647,0.54 31.809,0.594 C31.944,0.648 32.106,0.783 32.295,0.945 C33.078,0.945 33.888,0.918 34.725,0.81 C35.535,0.702 36.291,0.567 36.993,0.378 C37.074,0.351 37.182,0.324 37.317,0.27 L37.668,0.162 C37.776,0.135 37.857,0.108 37.965,0.054 C38.073,0.027 38.154,-1.13686838e-13 38.262,-1.13686838e-13 Z M50.7315,10.265 C48.9365746,10.265 47.4815,11.7200746 47.4815,13.515 C47.4815,15.3099254 48.9365746,16.765 50.7315,16.765 C52.5264254,16.765 53.9815,15.3099254 53.9815,13.515 C53.9815,11.7200746 52.5264254,10.265 50.7315,10.265 Z" transform="translate(-13.981 -11.765)"/></svg>