<svg xmlns="http://www.w3.org/2000/svg" width="103" height="203" viewBox="0 0 103 203"><path fill="#131313" d="M3385.70898,87.765 C3387.95508,87.765 3389.90169,88.5136979 3391.54883,90.0110937 C3393.19596,91.6582292 3394.01953,93.6048437 3394.01953,95.8509375 C3394.01953,100.193385 3394.01953,106.707057 3394.01953,115.391953 C3394.01953,118.985703 3394.01953,124.301458 3394.01953,131.339219 C3394.01953,138.826198 3394.01953,150.131536 3394.01953,165.255234 C3394.01953,167.501328 3393.19596,169.447943 3391.54883,171.095078 C3389.90169,172.592474 3387.95508,173.341172 3385.70898,173.341172 C3383.46289,173.341172 3381.59115,172.592474 3380.09375,171.095078 C3378.44661,169.447943 3377.62305,167.501328 3377.62305,165.255234 C3377.62305,164.955755 3377.62305,164.431667 3377.62305,163.682969 C3373.87956,166.67776 3369.68685,168.998724 3365.04492,170.645859 C3360.25326,172.442734 3355.08724,173.341172 3349.54687,173.341172 C3344.15625,173.341172 3339.66406,172.592474 3336.07031,171.095078 C3332.47656,169.597682 3329.55664,167.651068 3327.31055,165.255234 C3323.11784,160.763047 3320.72201,155.597031 3320.12305,149.757188 C3319.37435,143.917344 3319,139.275417 3319,135.831406 C3319,126.996771 3319,113.669948 3319,95.8509375 C3319,93.6048437 3319.82357,91.6582292 3321.4707,90.0110937 C3322.9681,88.5136979 3324.83984,87.765 3327.08594,87.765 C3329.33203,87.765 3331.27865,88.5136979 3332.92578,90.0110937 C3334.42318,91.6582292 3335.17187,93.6048437 3335.17187,95.8509375 C3335.17187,104.685573 3335.17187,118.012396 3335.17187,135.831406 C3335.17187,144.216823 3336.14518,149.832057 3338.0918,152.677109 C3340.18815,155.671901 3344.00651,157.169297 3349.54687,157.169297 C3356.13542,157.169297 3362.49935,154.773464 3368.63867,149.981797 C3374.62826,145.19013 3377.62305,138.975938 3377.62305,131.339219 C3377.62305,127.745469 3377.62305,122.429714 3377.62305,115.391953 C3377.62305,111.049505 3377.62305,104.535833 3377.62305,95.8509375 C3377.62305,93.6048437 3378.44661,91.6582292 3380.09375,90.0110937 C3381.59115,88.5136979 3383.46289,87.765 3385.70898,87.765 Z M3367.89648,105.958359 C3368.04622,105.958359 3368.19596,105.958359 3368.3457,105.958359 C3368.64518,105.958359 3368.86979,105.958359 3369.01953,105.958359 C3369.16927,105.958359 3369.39388,105.958359 3369.69336,105.958359 C3369.8431,105.958359 3369.99284,105.958359 3370.14258,105.958359 C3370.14258,108.803411 3370.14258,113.220729 3370.14258,119.210312 C3369.69336,119.210312 3368.94466,119.210312 3367.89648,119.210312 C3367.89648,116.964219 3367.89648,114.718125 3367.89648,112.472031 C3367.89648,110.225937 3367.89648,108.054714 3367.89648,105.958359 Z M3372.38867,119.210312 C3371.63997,122.055365 3370.51693,126.248073 3369.01953,131.788437 C3368.27083,128.943385 3367.14779,124.750677 3365.65039,119.210312 L3372.38867,119.210312 Z M3368.85,98.03 C3371.19721,98.03 3373.1,99.9327898 3373.1,102.28 C3373.1,104.62721 3371.19721,106.53 3368.85,106.53 C3366.50279,106.53 3364.6,104.62721 3364.6,102.28 C3364.6,99.9327898 3366.50279,98.03 3368.85,98.03 Z M3368.85,99.03 C3367.05507,99.03 3365.6,100.485075 3365.6,102.28 C3365.6,104.074925 3367.05507,105.53 3368.85,105.53 C3370.64493,105.53 3372.1,104.074925 3372.1,102.28 C3372.1,100.485075 3370.64493,99.03 3368.85,99.03 Z M3311.51953,136.280625 C3311.51953,148.85875 3313.76562,158.891302 3318.25781,166.378281 C3322.75,173.86526 3329.48828,178.731797 3338.47266,180.977891 C3338.47266,181.427109 3338.39779,182.175807 3338.24805,183.223984 C3334.05534,182.175807 3330.38672,180.678411 3327.24219,178.731797 C3324.2474,176.635443 3321.62695,174.314479 3319.38086,171.768906 C3315.33789,166.8275 3312.64258,161.137396 3311.29492,154.698594 C3309.94727,148.409531 3309.27344,142.270208 3309.27344,136.280625 C3309.27344,129.542344 3309.27344,119.434922 3309.27344,105.958359 C3309.42318,105.958359 3309.57292,105.958359 3309.72266,105.958359 C3310.02214,105.958359 3310.24674,105.958359 3310.39648,105.958359 C3310.54622,105.958359 3310.69596,105.958359 3310.8457,105.958359 C3311.14518,105.958359 3311.36979,105.958359 3311.51953,105.958359 C3311.51953,110.899766 3311.51953,115.916042 3311.51953,121.007187 C3311.51953,126.098333 3311.51953,131.189479 3311.51953,136.280625 Z M3338.69727,178.956406 C3341.39258,180.004583 3345.43555,181.576849 3350.82617,183.673203 C3347.98112,184.122422 3343.71354,184.79625 3338.02344,185.694687 C3338.02344,185.095729 3338.54753,179.854844 3338.69727,178.956406 Z M3355.2835,101 C3355.9855,101 3356.6605,101.135 3357.2815,101.405 C3357.9025,101.675 3358.4425,102.026 3358.9015,102.458 C3359.3335,102.917 3359.6845,103.43 3359.9545,103.97 C3360.1975,104.537 3360.3325,105.104 3360.3325,105.671 C3360.3325,106.778 3360.1435,107.804 3359.7655,108.776 C3359.3605,109.775 3358.7665,110.639 3358.0105,111.395 C3357.3895,111.989 3356.7955,112.556 3356.2015,113.15 L3354.3925,114.905 L3353.2855,115.958 C3352.8805,116.336 3352.3675,116.795 3351.7465,117.308 C3352.6375,117.2 3353.3935,117.146 3353.9875,117.092 C3354.5815,117.065 3355.1485,117.038 3355.6885,116.984 C3356.2555,116.957 3356.8495,116.93 3357.4975,116.93 C3358.1185,116.93 3358.7125,116.876 3359.3065,116.822 L3359.6845,116.768 L3360.0625,116.687 C3360.2785,116.633 3360.5215,116.606 3360.7645,116.606 C3361.0885,116.606 3361.3585,116.768 3361.6015,117.092 C3361.8445,117.416 3361.9795,117.74 3361.9795,118.118 C3361.9795,118.361 3361.8715,118.55 3361.7095,118.658 C3361.5475,118.82 3361.3855,118.874 3361.2235,118.874 C3360.6295,118.874 3360.0625,118.847 3359.4955,118.739 C3358.9015,118.658 3358.3075,118.604 3357.7405,118.604 C3356.7145,118.604 3355.6615,118.658 3354.5815,118.766 C3353.4745,118.874 3352.4215,118.982 3351.3955,119.117 C3351.2605,119.144 3351.1255,119.171 3351.0175,119.198 C3350.8825,119.225 3350.7475,119.252 3350.6125,119.279 C3350.3425,119.333 3350.0995,119.36 3349.8835,119.36 C3349.5325,119.36 3349.2355,119.279 3348.9655,119.063 C3348.6685,118.874 3348.5335,118.577 3348.5335,118.199 C3348.5335,117.956 3348.5875,117.74 3348.6955,117.524 C3348.8035,117.362 3348.9655,117.173 3349.1545,116.984 C3349.3705,116.768 3349.5595,116.552 3349.7755,116.336 C3349.9915,116.12 3350.2075,115.931 3350.4775,115.715 C3351.3955,114.986 3352.2865,114.23 3353.1235,113.42 L3355.6885,111.017 C3356.0125,110.693 3356.3635,110.342 3356.6875,109.964 C3356.9845,109.613 3357.2545,109.235 3357.4975,108.803 C3357.7405,108.398 3357.9295,107.966 3358.0915,107.48 C3358.2535,107.021 3358.3345,106.535 3358.3345,105.995 C3358.3345,105.563 3358.2535,105.158 3358.0915,104.753 C3357.9295,104.375 3357.7135,104.024 3357.4435,103.7 C3357.1465,103.403 3356.8225,103.16 3356.4445,102.971 C3356.0665,102.809 3355.6345,102.701 3355.2025,102.701 C3354.3925,102.701 3353.7445,102.89 3353.2855,103.241 C3352.7995,103.619 3352.3675,104.105 3351.9895,104.753 C3351.8815,104.915 3351.8275,105.05 3351.7735,105.212 C3351.7195,105.374 3351.6385,105.536 3351.5845,105.671 C3351.5035,105.833 3351.4225,105.995 3351.3415,106.13 C3351.2605,106.292 3351.1795,106.427 3351.1255,106.508 C3350.9635,106.67 3350.8285,106.805 3350.7205,106.886 C3350.5855,106.994 3350.4235,107.021 3350.2345,107.021 C3349.9645,107.021 3349.7215,106.913 3349.4785,106.67 C3349.2085,106.454 3349.1005,106.211 3349.1005,105.887 C3349.1005,105.644 3349.1545,105.347 3349.2895,105.023 C3349.3975,104.699 3349.5595,104.375 3349.7485,104.051 C3349.9105,103.727 3350.1265,103.43 3350.3425,103.133 C3350.5585,102.863 3350.7475,102.62 3350.9635,102.458 C3351.5575,101.945 3352.2325,101.567 3352.9885,101.324 C3353.7445,101.108 3354.5005,101 3355.2835,101 Z M3297.6335,100.162 C3298.0115,100.162 3298.3085,100.27 3298.5515,100.432 C3298.7675,100.594 3298.8755,100.864 3298.8755,101.215 C3298.8755,101.404 3298.8485,101.566 3298.8485,101.728 L3298.7675,102.241 L3298.6595,102.754 C3298.6055,102.943 3298.5515,103.105 3298.5245,103.267 C3298.0385,105.13 3297.7415,107.02 3297.5795,108.91 C3297.4175,110.827 3297.3635,112.717 3297.3635,114.607 C3297.3635,114.877 3297.3635,115.201 3297.4175,115.552 C3297.4175,115.903 3297.4715,116.227 3297.5255,116.524 C3297.5525,116.848 3297.5795,117.145 3297.6335,117.388 C3297.6335,117.658 3297.6605,117.82 3297.6605,117.901 C3297.6605,118.063 3297.5255,118.198 3297.3095,118.306 C3297.0395,118.414 3296.7965,118.468 3296.5805,118.468 C3296.1485,118.468 3295.8245,118.36 3295.5815,118.09 C3295.3385,117.847 3295.2305,117.523 3295.2305,117.091 C3295.2305,116.335 3295.2575,115.444 3295.3115,114.418 C3295.3385,113.392 3295.3925,112.366 3295.4465,111.34 C3295.4735,110.8 3295.5275,110.179 3295.5815,109.531 L3295.7975,107.614 C3295.8785,106.966 3295.9595,106.372 3296.0675,105.778 C3296.1215,105.184 3296.2025,104.671 3296.2835,104.239 C3295.9055,104.644 3295.6085,104.995 3295.3385,105.292 C3295.0685,105.589 3294.8525,105.805 3294.7175,105.94 L3294.1775,106.534 C3293.9615,106.777 3293.7995,106.966 3293.6645,107.128 C3293.4485,107.344 3293.2595,107.506 3293.0705,107.614 C3292.8545,107.722 3292.6385,107.776 3292.3955,107.776 C3292.0715,107.776 3291.7475,107.695 3291.4775,107.479 C3291.1535,107.29 3291.0185,107.047 3291.0185,106.723 C3291.0185,106.642 3291.0455,106.561 3291.1535,106.453 C3291.2345,106.372 3291.3425,106.291 3291.4775,106.183 L3291.7205,106.021 C3291.7745,105.967 3291.8555,105.94 3291.9365,105.886 L3292.1525,105.778 C3292.2065,105.724 3292.2875,105.67 3292.3415,105.616 C3292.9085,105.076 3293.5025,104.482 3294.1235,103.807 C3294.7175,103.159 3295.2575,102.511 3295.7705,101.917 C3295.9325,101.728 3296.1215,101.512 3296.2835,101.296 C3296.4185,101.08 3296.5805,100.891 3296.7965,100.675 C3296.8775,100.594 3297.0125,100.486 3297.1745,100.351 C3297.3365,100.243 3297.4715,100.162 3297.6335,100.162 Z M3310.45,98.03 C3312.79721,98.03 3314.7,99.9327898 3314.7,102.28 C3314.7,104.62721 3312.79721,106.53 3310.45,106.53 C3308.10279,106.53 3306.2,104.62721 3306.2,102.28 C3306.2,99.9327898 3308.10279,98.03 3310.45,98.03 Z M3310.45,99.03 C3308.65507,99.03 3307.2,100.485075 3307.2,102.28 C3307.2,104.074925 3308.65507,105.53 3310.45,105.53 C3312.24493,105.53 3313.7,104.074925 3313.7,102.28 C3313.7,100.485075 3312.24493,99.03 3310.45,99.03 Z M3407.8755,58.703 C3408.0105,58.703 3408.1725,58.73 3408.3885,58.784 C3408.5775,58.838 3408.7665,58.892 3408.9555,59 C3409.1175,59.108 3409.2525,59.216 3409.3875,59.324 C3409.4955,59.459 3409.5765,59.594 3409.5765,59.756 C3409.5765,60.08 3409.5495,60.377 3409.4955,60.674 C3409.4415,60.971 3409.4145,61.268 3409.4145,61.565 C3409.3605,62.375 3409.3065,63.185 3409.2795,63.968 C3409.2255,64.778 3409.1715,65.507 3409.1715,66.209 C3409.1175,66.911 3409.0905,67.559 3409.0905,68.126 C3409.0635,68.72 3409.0635,69.179 3409.0635,69.557 C3409.0365,69.827 3409.0365,70.07 3409.0365,70.313 C3409.0365,70.583 3409.0365,70.88 3409.0635,71.231 C3409.2795,71.177 3409.5765,71.123 3409.9815,71.042 C3410.3595,70.988 3410.7645,70.961 3411.1965,70.961 C3411.8985,70.961 3412.2765,71.312 3412.2765,71.96 C3412.2765,72.23 3412.1955,72.446 3412.0335,72.608 C3411.8715,72.797 3411.6555,72.878 3411.4125,72.878 L3408.9825,72.932 L3408.9825,74.525 C3408.9825,75.011 3409.0095,75.47 3409.1175,75.902 C3409.2255,76.334 3409.2795,76.793 3409.2795,77.252 C3409.2795,77.576 3409.1445,77.792 3408.9285,77.954 C3408.6855,78.089 3408.4155,78.17 3408.1455,78.17 C3407.2815,78.17 3406.8495,77.657 3406.8495,76.604 C3406.8495,76.388 3406.8495,75.929 3406.9035,75.281 L3406.9575,73.175 C3406.3095,73.283 3405.7695,73.364 3405.2835,73.472 C3404.7705,73.58 3404.2845,73.661 3403.8255,73.769 L3403.0155,73.958 C3402.7455,74.039 3402.4755,74.093 3402.2055,74.147 C3401.9085,74.201 3401.6115,74.255 3401.3415,74.282 C3401.0445,74.336 3400.7745,74.363 3400.5315,74.363 C3400.2075,74.363 3399.8835,74.336 3399.5595,74.228 C3399.2085,74.12 3398.9115,73.985 3398.6415,73.796 C3398.3715,73.607 3398.1555,73.364 3397.9935,73.067 C3397.8315,72.797 3397.7505,72.473 3397.7505,72.095 C3397.7505,71.879 3397.7775,71.636 3397.8855,71.366 C3397.9665,71.123 3398.0745,70.88 3398.2095,70.61 C3398.3445,70.34 3398.4795,70.097 3398.6415,69.854 C3398.8035,69.638 3398.9385,69.422 3399.1005,69.233 C3400.2615,67.64 3401.4495,66.101 3402.6915,64.589 C3403.9335,63.104 3405.1485,61.565 3406.3365,59.972 C3406.4175,59.837 3406.5255,59.702 3406.6335,59.54 C3406.7145,59.405 3406.8225,59.27 3406.9575,59.108 C3407.0655,59 3407.2005,58.892 3407.3895,58.811 C3407.5515,58.757 3407.7135,58.703 3407.8755,58.703 Z M3307.1495,59.027 C3307.7975,59.027 3308.4455,59.108 3309.0935,59.216 C3309.7415,59.351 3310.3355,59.567 3310.8755,59.864 C3311.4155,60.188 3311.8475,60.62 3312.1715,61.133 C3312.4955,61.673 3312.6575,62.321 3312.6575,63.077 C3312.6575,63.914 3312.4685,64.616 3312.1175,65.21 C3311.7395,65.804 3311.1185,66.398 3310.2545,66.965 C3310.9025,67.127 3311.5235,67.343 3312.0635,67.586 C3312.6035,67.829 3313.0895,68.126 3313.4945,68.45 C3313.8725,68.828 3314.1965,69.233 3314.4395,69.692 C3314.6555,70.178 3314.7635,70.718 3314.7635,71.312 C3314.7635,72.338 3314.5475,73.229 3314.1155,73.985 C3313.6565,74.768 3313.0895,75.416 3312.3875,75.956 C3311.6855,76.496 3310.8755,76.874 3310.0115,77.144 C3309.1205,77.441 3308.2295,77.576 3307.3655,77.576 C3307.0415,77.576 3306.6635,77.549 3306.2315,77.468 C3305.7725,77.414 3305.3135,77.333 3304.8545,77.225 C3304.3685,77.117 3303.9095,77.009 3303.4775,76.847 C3303.0185,76.712 3302.6405,76.55 3302.3165,76.388 C3302.0465,76.253 3301.8035,76.064 3301.5875,75.794 C3301.3445,75.578 3301.2365,75.281 3301.2365,74.957 C3301.2365,74.66 3301.3175,74.417 3301.5335,74.228 C3301.7225,74.039 3301.9385,73.931 3302.2085,73.931 C3302.3435,73.931 3302.5325,74.012 3302.7485,74.12 C3302.8295,74.174 3302.9375,74.228 3303.0455,74.282 C3303.1535,74.336 3303.2885,74.417 3303.4505,74.498 C3303.6935,74.66 3303.9365,74.795 3304.1795,74.93 C3304.4225,75.092 3304.6925,75.2 3304.9625,75.281 C3305.7185,75.578 3306.4475,75.713 3307.1225,75.713 C3307.7165,75.713 3308.3105,75.632 3308.9315,75.443 C3309.5525,75.281 3310.1195,75.011 3310.6055,74.66 C3311.0915,74.309 3311.5235,73.85 3311.8475,73.31 C3312.1445,72.797 3312.3065,72.176 3312.3065,71.447 C3312.3065,71.015 3312.1985,70.61 3312.0095,70.259 C3311.7935,69.935 3311.5505,69.638 3311.2535,69.395 C3310.9295,69.179 3310.6055,68.99 3310.2275,68.828 C3309.8495,68.666 3309.4985,68.558 3309.1475,68.45 C3308.9585,68.423 3308.7695,68.369 3308.6075,68.315 C3308.4185,68.261 3308.2295,68.234 3308.0405,68.234 C3307.7975,68.234 3307.5815,68.261 3307.3655,68.315 C3307.1495,68.369 3306.9335,68.45 3306.7175,68.531 C3306.5015,68.612 3306.3125,68.693 3306.0965,68.747 C3305.8805,68.828 3305.6645,68.855 3305.4485,68.855 C3305.1515,68.855 3304.8815,68.747 3304.6115,68.504 C3304.3145,68.261 3304.1795,67.991 3304.1795,67.667 C3304.1795,67.397 3304.2605,67.181 3304.4225,67.019 C3304.5035,66.938 3304.6655,66.857 3304.9355,66.776 C3305.1785,66.722 3305.4215,66.668 3305.6915,66.668 L3306.0965,66.668 C3306.4205,66.668 3306.7175,66.641 3307.0145,66.56 C3307.3115,66.506 3307.6625,66.371 3308.0945,66.182 C3308.4995,66.02 3308.8775,65.777 3309.2555,65.48 C3309.6335,65.183 3309.9305,64.832 3310.2005,64.4 C3310.4435,64.022 3310.5785,63.536 3310.5785,62.996 C3310.5785,62.564 3310.4705,62.213 3310.3085,61.916 C3310.1195,61.646 3309.9035,61.43 3309.6335,61.268 C3309.3365,61.106 3309.0125,60.998 3308.6615,60.944 C3308.3105,60.89 3307.9865,60.836 3307.6625,60.836 C3307.2305,60.836 3306.7715,60.944 3306.3395,61.133 C3305.8535,61.349 3305.4485,61.538 3305.0705,61.727 C3304.8815,61.835 3304.7195,61.916 3304.5575,61.997 L3304.0715,62.24 C3303.7205,62.402 3303.4235,62.456 3303.2075,62.456 C3302.9645,62.456 3302.7485,62.348 3302.5595,62.132 C3302.3435,61.916 3302.2625,61.646 3302.2625,61.349 C3302.2625,61.079 3302.3975,60.782 3302.7215,60.512 C3303.0455,60.242 3303.4505,59.972 3303.9365,59.756 C3304.4225,59.54 3304.9355,59.378 3305.5295,59.216 C3306.0965,59.108 3306.6365,59.027 3307.1495,59.027 Z M3330.08594,60.765 C3332.33203,60.765 3334.27865,61.5136979 3335.92578,63.0110937 C3337.57292,64.6582292 3338.39648,66.6048437 3338.39648,68.8509375 C3338.39648,71.0970312 3337.57292,72.968776 3335.92578,74.4661719 C3334.27865,76.1133073 3332.33203,76.936875 3330.08594,76.936875 C3327.98958,76.936875 3326.11784,76.1133073 3324.4707,74.4661719 C3322.82357,72.968776 3322,71.0970312 3322,68.8509375 C3322,66.6048437 3322.82357,64.6582292 3324.4707,63.0110937 C3326.11784,61.5136979 3327.98958,60.765 3330.08594,60.765 Z M3383.08594,60.765 C3385.33203,60.765 3387.27865,61.5136979 3388.92578,63.0110937 C3390.57292,64.6582292 3391.39648,66.6048437 3391.39648,68.8509375 C3391.39648,71.0970312 3390.57292,72.968776 3388.92578,74.4661719 C3387.27865,76.1133073 3385.33203,76.936875 3383.08594,76.936875 C3380.98958,76.936875 3379.11784,76.1133073 3377.4707,74.4661719 C3375.82357,72.968776 3375,71.0970312 3375,68.8509375 C3375,66.6048437 3375.82357,64.6582292 3377.4707,63.0110937 C3379.11784,61.5136979 3380.98958,60.765 3383.08594,60.765 Z M3407.3355,61.565 C3406.4715,62.753 3405.6615,63.86 3404.8785,64.913 C3404.0685,65.993 3403.3125,66.965 3402.6105,67.856 C3402.4485,68.072 3402.2055,68.342 3401.9355,68.72 C3401.6655,69.098 3401.3955,69.476 3401.1255,69.881 C3400.8285,70.313 3400.5855,70.718 3400.3695,71.096 C3400.1535,71.501 3400.0725,71.825 3400.0725,72.041 C3400.0725,72.203 3400.1535,72.311 3400.3155,72.392 C3400.4775,72.473 3400.6125,72.5 3400.7745,72.5 C3401.0445,72.5 3401.4765,72.473 3402.0165,72.392 C3402.5565,72.338 3403.1235,72.23 3403.7175,72.122 L3405.4995,71.798 C3406.0935,71.69 3406.5795,71.582 3406.9845,71.474 Z M3382.1225,22.027 C3384.3625,22.027 3385.7065,22.923 3385.7065,24.491 C3385.7065,26.283 3384.3625,28.747 3382.1225,31.883 C3379.6585,35.019 3376.7465,38.155 3373.6105,41.067 C3370.2505,44.203 3367.1145,46.891 3363.9785,49.131 C3360.6185,51.371 3358.1545,52.491 3356.3625,52.491 C3354.5705,52.491 3351.8825,51.371 3348.7465,49.131 C3345.6105,46.891 3342.2505,44.203 3339.1145,41.067 C3335.7545,38.155 3332.8425,35.019 3330.6025,31.883 C3328.1385,28.747 3327.0185,26.283 3327.0185,24.491 C3327.0185,22.923 3328.1385,22.027 3330.8265,22.027 C3332.3945,22.027 3334.1865,22.475 3336.4265,23.371 C3338.4425,24.267 3340.6825,25.611 3343.1465,26.955 C3345.3865,28.523 3347.8505,30.091 3350.0905,31.659 C3352.1065,33.227 3354.1225,34.571 3356.3625,35.915 C3358.3785,34.571 3360.3945,33.227 3362.6345,31.659 C3364.8745,30.091 3367.1145,28.523 3369.5785,26.955 C3371.8185,25.611 3374.2825,24.267 3376.5225,23.371 C3378.5385,22.475 3380.3305,22.027 3382.1225,22.027 Z M3378.35076,8.10674316 L3369.64551,18.3688445 L3368.5565,16.929 L3357.06319,24.7630409 L3356.48809,25.1550057 L3355.92076,24.7518719 L3344.57489,16.6903517 C3343.82401,17.3588437 3342.83443,17.765 3341.75,17.765 C3339.40279,17.765 3337.5,15.8622102 3337.5,13.515 C3337.5,11.1677898 3339.40279,9.265 3341.75,9.265 C3344.09721,9.265 3346,11.1677898 3346,13.515 C3346,14.0549034 3345.89933,14.571293 3345.71573,15.0464204 L3356.512,22.718 L3367.3495,15.332 L3366.40575,14.0847489 L3378.35076,8.10674316 Z M3329.2805,0 C3329.3885,0 3329.5775,0.054 3329.7935,0.108 L3330.4415,0.432 C3330.6305,0.54 3330.7925,0.675 3330.9545,0.81 C3331.0895,0.972 3331.1705,1.107 3331.1705,1.215 C3331.1705,1.377 3331.1435,1.485 3331.1165,1.539 C3331.0625,1.593 3330.9815,1.647 3330.8735,1.701 C3330.7115,1.782 3330.5225,1.836 3330.3605,1.836 L3329.7935,1.944 C3329.5775,1.998 3329.3885,1.998 3329.1995,1.998 C3328.9835,2.025 3328.7945,2.052 3328.6325,2.079 L3326.0675,2.484 C3325.2035,2.592 3324.2855,2.7 3323.3135,2.781 L3323.0975,5.508 C3322.9895,6.372 3322.9085,7.317 3322.8275,8.343 C3323.5835,8.127 3324.2855,7.938 3324.9335,7.776 C3325.5815,7.668 3326.2565,7.587 3326.9045,7.587 C3327.6065,7.587 3328.2815,7.641 3328.9835,7.722 C3329.6585,7.83 3330.2795,8.1 3330.8735,8.505 C3332.0075,9.396 3332.6015,10.557 3332.6015,12.015 C3332.6015,13.203 3332.3855,14.202 3332.0075,15.066 C3331.6025,15.93 3331.0625,16.632 3330.3875,17.172 C3329.6855,17.766 3328.8755,18.171 3327.9575,18.441 C3327.0395,18.711 3326.0675,18.846 3325.0415,18.846 C3324.7715,18.846 3324.4205,18.792 3324.0155,18.738 C3323.5835,18.684 3323.1515,18.603 3322.7195,18.522 C3322.2875,18.441 3321.8555,18.333 3321.4775,18.198 C3321.0455,18.09 3320.7215,17.982 3320.5055,17.874 C3320.2085,17.766 3319.9655,17.577 3319.7495,17.334 C3319.5335,17.118 3319.4255,16.848 3319.4255,16.524 C3319.4255,16.227 3319.5065,15.984 3319.6955,15.768 C3319.8575,15.606 3320.0465,15.498 3320.3165,15.498 C3320.3975,15.498 3320.5055,15.525 3320.6405,15.552 C3320.7485,15.606 3320.8835,15.687 3321.0455,15.741 C3321.1805,15.822 3321.3155,15.903 3321.4775,15.984 C3321.6395,16.092 3321.8015,16.2 3322.0175,16.281 C3322.3955,16.497 3322.8275,16.686 3323.3675,16.848 C3323.8535,17.01 3324.4475,17.091 3325.0955,17.091 C3325.7435,17.091 3326.3915,17.01 3327.0395,16.794 C3327.6605,16.578 3328.2275,16.281 3328.7135,15.876 C3329.1995,15.498 3329.5775,15.012 3329.9015,14.418 C3330.1715,13.824 3330.3335,13.149 3330.3335,12.366 C3330.3335,11.826 3330.2255,11.367 3330.0365,10.989 C3329.8205,10.611 3329.5775,10.314 3329.2535,10.098 C3328.9295,9.882 3328.5515,9.72 3328.1465,9.612 C3327.7145,9.504 3327.2825,9.45 3326.8505,9.45 C3326.2565,9.45 3325.7165,9.504 3325.2305,9.558 C3324.7175,9.612 3324.2045,9.747 3323.6645,9.909 C3323.4485,9.99 3323.2595,10.071 3323.0975,10.152 C3322.9085,10.26 3322.7195,10.368 3322.5575,10.449 C3322.3685,10.557 3322.2065,10.611 3322.0715,10.665 C3321.9095,10.719 3321.7205,10.746 3321.5315,10.746 C3321.4235,10.746 3321.3425,10.719 3321.2345,10.665 C3321.1265,10.611 3321.0185,10.557 3320.9105,10.476 C3320.8025,10.395 3320.6945,10.314 3320.6405,10.206 C3320.5595,10.098 3320.5325,10.017 3320.5325,9.936 C3320.5325,9.693 3320.5595,9.45 3320.6135,9.18 L3320.6675,8.802 L3320.7215,8.451 C3320.7485,8.046 3320.7755,7.452 3320.8295,6.696 C3320.8295,5.94 3320.8835,5.157 3320.9375,4.347 C3320.9645,3.591 3321.0185,2.862 3321.0995,2.187 C3321.1535,1.539 3321.2615,1.053 3321.4235,0.729 C3321.5315,0.675 3321.6665,0.621 3321.8555,0.567 C3322.0175,0.513 3322.1525,0.486 3322.3145,0.486 C3322.4765,0.486 3322.6655,0.54 3322.8275,0.594 C3322.9625,0.648 3323.1245,0.783 3323.3135,0.945 C3324.0965,0.945 3324.9065,0.918 3325.7435,0.81 C3326.5535,0.702 3327.3095,0.567 3328.0115,0.378 C3328.0925,0.351 3328.2005,0.324 3328.3355,0.27 L3328.6865,0.162 C3328.7945,0.135 3328.8755,0.108 3328.9835,0.054 C3329.0915,0.027 3329.1725,0 3329.2805,0 Z M3341.75,10.265 C3339.95507,10.265 3338.5,11.7200746 3338.5,13.515 C3338.5,15.3099254 3339.95507,16.765 3341.75,16.765 C3343.54493,16.765 3345,15.3099254 3345,13.515 C3345,11.7200746 3343.54493,10.265 3341.75,10.265 Z" transform="translate(-3305 -31.765)"/></svg>