<svg xmlns="http://www.w3.org/2000/svg" width="103" height="203" viewBox="0 0 103 203"><path fill="#131313" d="M3546.70898,117 C3548.95508,117 3550.90169,117.748698 3552.54883,119.246094 C3554.19596,120.893229 3555.01953,122.839844 3555.01953,125.085938 C3555.01953,129.428385 3555.01953,135.942057 3555.01953,144.626953 C3555.01953,148.220703 3555.01953,153.536458 3555.01953,160.574219 C3555.01953,168.061198 3555.01953,179.366536 3555.01953,194.490234 C3555.01953,196.736328 3554.19596,198.682943 3552.54883,200.330078 C3550.90169,201.827474 3548.95508,202.576172 3546.70898,202.576172 C3544.46289,202.576172 3542.59115,201.827474 3541.09375,200.330078 C3539.44661,198.682943 3538.62305,196.736328 3538.62305,194.490234 C3538.62305,194.190755 3538.62305,193.666667 3538.62305,192.917969 C3534.87956,195.91276 3530.68685,198.233724 3526.04492,199.880859 C3521.25326,201.677734 3516.08724,202.576172 3510.54688,202.576172 C3505.15625,202.576172 3500.66406,201.827474 3497.07031,200.330078 C3493.47656,198.832682 3490.55664,196.886068 3488.31055,194.490234 C3484.11784,189.998047 3481.72201,184.832031 3481.12305,178.992188 C3480.37435,173.152344 3480,168.510417 3480,165.066406 C3480,156.231771 3480,142.904948 3480,125.085938 C3480,122.839844 3480.82357,120.893229 3482.4707,119.246094 C3483.9681,117.748698 3485.83984,117 3488.08594,117 C3490.33203,117 3492.27865,117.748698 3493.92578,119.246094 C3495.42318,120.893229 3496.17188,122.839844 3496.17188,125.085938 C3496.17188,133.920573 3496.17188,147.247396 3496.17188,165.066406 C3496.17188,173.451823 3497.14518,179.067057 3499.0918,181.912109 C3501.18815,184.906901 3505.00651,186.404297 3510.54688,186.404297 C3517.13542,186.404297 3523.49935,184.008464 3529.63867,179.216797 C3535.62826,174.42513 3538.62305,168.210938 3538.62305,160.574219 C3538.62305,156.980469 3538.62305,151.664714 3538.62305,144.626953 C3538.62305,140.284505 3538.62305,133.770833 3538.62305,125.085938 C3538.62305,122.839844 3539.44661,120.893229 3541.09375,119.246094 C3542.59115,117.748698 3544.46289,117 3546.70898,117 Z M3528.89648,135.193359 C3529.04622,135.193359 3529.19596,135.193359 3529.3457,135.193359 C3529.64518,135.193359 3529.86979,135.193359 3530.01953,135.193359 C3530.16927,135.193359 3530.39388,135.193359 3530.69336,135.193359 C3530.8431,135.193359 3530.99284,135.193359 3531.14258,135.193359 C3531.14258,138.038411 3531.14258,142.455729 3531.14258,148.445312 C3530.69336,148.445312 3529.94466,148.445312 3528.89648,148.445312 C3528.89648,146.199219 3528.89648,143.953125 3528.89648,141.707031 C3528.89648,139.460938 3528.89648,137.289714 3528.89648,135.193359 Z M3533.38867,148.445312 C3532.63997,151.290365 3531.51693,155.483073 3530.01953,161.023438 C3529.27083,158.178385 3528.14779,153.985677 3526.65039,148.445312 L3533.38867,148.445312 Z M3529.85,127.265 C3532.19721,127.265 3534.1,129.16779 3534.1,131.515 C3534.1,133.86221 3532.19721,135.765 3529.85,135.765 C3527.50279,135.765 3525.6,133.86221 3525.6,131.515 C3525.6,129.16779 3527.50279,127.265 3529.85,127.265 Z M3529.85,128.265 C3528.05507,128.265 3526.6,129.720075 3526.6,131.515 C3526.6,133.309925 3528.05507,134.765 3529.85,134.765 C3531.64493,134.765 3533.1,133.309925 3533.1,131.515 C3533.1,129.720075 3531.64493,128.265 3529.85,128.265 Z M3472.51953,165.515625 C3472.51953,178.09375 3474.76562,188.126302 3479.25781,195.613281 C3483.75,203.10026 3490.48828,207.966797 3499.47266,210.212891 C3499.47266,210.662109 3499.39779,211.410807 3499.24805,212.458984 C3495.05534,211.410807 3491.38672,209.913411 3488.24219,207.966797 C3485.2474,205.870443 3482.62695,203.549479 3480.38086,201.003906 C3476.33789,196.0625 3473.64258,190.372396 3472.29492,183.933594 C3470.94727,177.644531 3470.27344,171.505208 3470.27344,165.515625 C3470.27344,158.777344 3470.27344,148.669922 3470.27344,135.193359 C3470.42318,135.193359 3470.57292,135.193359 3470.72266,135.193359 C3471.02214,135.193359 3471.24674,135.193359 3471.39648,135.193359 C3471.54622,135.193359 3471.69596,135.193359 3471.8457,135.193359 C3472.14518,135.193359 3472.36979,135.193359 3472.51953,135.193359 C3472.51953,140.134766 3472.51953,145.151042 3472.51953,150.242188 C3472.51953,155.333333 3472.51953,160.424479 3472.51953,165.515625 Z M3499.69727,208.191406 C3502.39258,209.239583 3506.43555,210.811849 3511.82617,212.908203 C3508.98112,213.357422 3504.71354,214.03125 3499.02344,214.929688 C3499.02344,214.330729 3499.54753,209.089844 3499.69727,208.191406 Z M3516.2835,130.235 C3516.9855,130.235 3517.6605,130.37 3518.2815,130.64 C3518.9025,130.91 3519.4425,131.261 3519.9015,131.693 C3520.3335,132.152 3520.6845,132.665 3520.9545,133.205 C3521.1975,133.772 3521.3325,134.339 3521.3325,134.906 C3521.3325,136.013 3521.1435,137.039 3520.7655,138.011 C3520.3605,139.01 3519.7665,139.874 3519.0105,140.63 C3518.3895,141.224 3517.7955,141.791 3517.2015,142.385 L3515.3925,144.14 L3514.2855,145.193 C3513.8805,145.571 3513.3675,146.03 3512.7465,146.543 C3513.6375,146.435 3514.3935,146.381 3514.9875,146.327 C3515.5815,146.3 3516.1485,146.273 3516.6885,146.219 C3517.2555,146.192 3517.8495,146.165 3518.4975,146.165 C3519.1185,146.165 3519.7125,146.111 3520.3065,146.057 L3520.6845,146.003 L3521.0625,145.922 C3521.2785,145.868 3521.5215,145.841 3521.7645,145.841 C3522.0885,145.841 3522.3585,146.003 3522.6015,146.327 C3522.8445,146.651 3522.9795,146.975 3522.9795,147.353 C3522.9795,147.596 3522.8715,147.785 3522.7095,147.893 C3522.5475,148.055 3522.3855,148.109 3522.2235,148.109 C3521.6295,148.109 3521.0625,148.082 3520.4955,147.974 C3519.9015,147.893 3519.3075,147.839 3518.7405,147.839 C3517.7145,147.839 3516.6615,147.893 3515.5815,148.001 C3514.4745,148.109 3513.4215,148.217 3512.3955,148.352 C3512.2605,148.379 3512.1255,148.406 3512.0175,148.433 C3511.8825,148.46 3511.7475,148.487 3511.6125,148.514 C3511.3425,148.568 3511.0995,148.595 3510.8835,148.595 C3510.5325,148.595 3510.2355,148.514 3509.9655,148.298 C3509.6685,148.109 3509.5335,147.812 3509.5335,147.434 C3509.5335,147.191 3509.5875,146.975 3509.6955,146.759 C3509.8035,146.597 3509.9655,146.408 3510.1545,146.219 C3510.3705,146.003 3510.5595,145.787 3510.7755,145.571 C3510.9915,145.355 3511.2075,145.166 3511.4775,144.95 C3512.3955,144.221 3513.2865,143.465 3514.1235,142.655 L3516.6885,140.252 C3517.0125,139.928 3517.3635,139.577 3517.6875,139.199 C3517.9845,138.848 3518.2545,138.47 3518.4975,138.038 C3518.7405,137.633 3518.9295,137.201 3519.0915,136.715 C3519.2535,136.256 3519.3345,135.77 3519.3345,135.23 C3519.3345,134.798 3519.2535,134.393 3519.0915,133.988 C3518.9295,133.61 3518.7135,133.259 3518.4435,132.935 C3518.1465,132.638 3517.8225,132.395 3517.4445,132.206 C3517.0665,132.044 3516.6345,131.936 3516.2025,131.936 C3515.3925,131.936 3514.7445,132.125 3514.2855,132.476 C3513.7995,132.854 3513.3675,133.34 3512.9895,133.988 C3512.8815,134.15 3512.8275,134.285 3512.7735,134.447 C3512.7195,134.609 3512.6385,134.771 3512.5845,134.906 C3512.5035,135.068 3512.4225,135.23 3512.3415,135.365 C3512.2605,135.527 3512.1795,135.662 3512.1255,135.743 C3511.9635,135.905 3511.8285,136.04 3511.7205,136.121 C3511.5855,136.229 3511.4235,136.256 3511.2345,136.256 C3510.9645,136.256 3510.7215,136.148 3510.4785,135.905 C3510.2085,135.689 3510.1005,135.446 3510.1005,135.122 C3510.1005,134.879 3510.1545,134.582 3510.2895,134.258 C3510.3975,133.934 3510.5595,133.61 3510.7485,133.286 C3510.9105,132.962 3511.1265,132.665 3511.3425,132.368 C3511.5585,132.098 3511.7475,131.855 3511.9635,131.693 C3512.5575,131.18 3513.2325,130.802 3513.9885,130.559 C3514.7445,130.343 3515.5005,130.235 3516.2835,130.235 Z M3458.6335,129.397 C3459.0115,129.397 3459.3085,129.505 3459.5515,129.667 C3459.7675,129.829 3459.8755,130.099 3459.8755,130.45 C3459.8755,130.639 3459.8485,130.801 3459.8485,130.963 L3459.7675,131.476 L3459.6595,131.989 C3459.6055,132.178 3459.5515,132.34 3459.5245,132.502 C3459.0385,134.365 3458.7415,136.255 3458.5795,138.145 C3458.4175,140.062 3458.3635,141.952 3458.3635,143.842 C3458.3635,144.112 3458.3635,144.436 3458.4175,144.787 C3458.4175,145.138 3458.4715,145.462 3458.5255,145.759 C3458.5525,146.083 3458.5795,146.38 3458.6335,146.623 C3458.6335,146.893 3458.6605,147.055 3458.6605,147.136 C3458.6605,147.298 3458.5255,147.433 3458.3095,147.541 C3458.0395,147.649 3457.7965,147.703 3457.5805,147.703 C3457.1485,147.703 3456.8245,147.595 3456.5815,147.325 C3456.3385,147.082 3456.2305,146.758 3456.2305,146.326 C3456.2305,145.57 3456.2575,144.679 3456.3115,143.653 C3456.3385,142.627 3456.3925,141.601 3456.4465,140.575 C3456.4735,140.035 3456.5275,139.414 3456.5815,138.766 L3456.7975,136.849 C3456.8785,136.201 3456.9595,135.607 3457.0675,135.013 C3457.1215,134.419 3457.2025,133.906 3457.2835,133.474 C3456.9055,133.879 3456.6085,134.23 3456.3385,134.527 C3456.0685,134.824 3455.8525,135.04 3455.7175,135.175 L3455.1775,135.769 C3454.9615,136.012 3454.7995,136.201 3454.6645,136.363 C3454.4485,136.579 3454.2595,136.741 3454.0705,136.849 C3453.8545,136.957 3453.6385,137.011 3453.3955,137.011 C3453.0715,137.011 3452.7475,136.93 3452.4775,136.714 C3452.1535,136.525 3452.0185,136.282 3452.0185,135.958 C3452.0185,135.877 3452.0455,135.796 3452.1535,135.688 C3452.2345,135.607 3452.3425,135.526 3452.4775,135.418 L3452.7205,135.256 C3452.7745,135.202 3452.8555,135.175 3452.9365,135.121 L3453.1525,135.013 L3453.3415,134.851 C3453.9085,134.311 3454.5025,133.717 3455.1235,133.042 C3455.7175,132.394 3456.2575,131.746 3456.7705,131.152 C3456.9325,130.963 3457.1215,130.747 3457.2835,130.531 C3457.4185,130.315 3457.5805,130.126 3457.7965,129.91 C3457.8775,129.829 3458.0125,129.721 3458.1745,129.586 C3458.3365,129.478 3458.4715,129.397 3458.6335,129.397 Z M3471.45,127.265 C3473.79721,127.265 3475.7,129.16779 3475.7,131.515 C3475.7,133.86221 3473.79721,135.765 3471.45,135.765 C3469.10279,135.765 3467.2,133.86221 3467.2,131.515 C3467.2,129.16779 3469.10279,127.265 3471.45,127.265 Z M3471.45,128.265 C3469.65507,128.265 3468.2,129.720075 3468.2,131.515 C3468.2,133.309925 3469.65507,134.765 3471.45,134.765 C3473.24493,134.765 3474.7,133.309925 3474.7,131.515 C3474.7,129.720075 3473.24493,128.265 3471.45,128.265 Z M3568.8755,87.938 C3569.0105,87.938 3569.1725,87.965 3569.3885,88.019 C3569.5775,88.073 3569.7665,88.127 3569.9555,88.235 C3570.1175,88.343 3570.2525,88.451 3570.3875,88.559 C3570.4955,88.694 3570.5765,88.829 3570.5765,88.991 C3570.5765,89.315 3570.5495,89.612 3570.4955,89.909 C3570.4415,90.206 3570.4145,90.503 3570.4145,90.8 C3570.3605,91.61 3570.3065,92.42 3570.2795,93.203 C3570.2255,94.013 3570.1715,94.742 3570.1715,95.444 C3570.1175,96.146 3570.0905,96.794 3570.0905,97.361 C3570.07121,97.7852857 3570.0657,98.1406939 3570.06413,98.4469038 L3570.0635,98.792 C3570.0365,99.062 3570.0365,99.305 3570.0365,99.548 C3570.0365,99.818 3570.0365,100.115 3570.0635,100.466 C3570.2795,100.412 3570.5765,100.358 3570.9815,100.277 C3571.3595,100.223 3571.7645,100.196 3572.1965,100.196 C3572.8985,100.196 3573.2765,100.547 3573.2765,101.195 C3573.2765,101.465 3573.1955,101.681 3573.0335,101.843 C3572.8715,102.032 3572.6555,102.113 3572.4125,102.113 L3569.9825,102.167 L3569.9825,103.76 C3569.9825,104.246 3570.0095,104.705 3570.1175,105.137 C3570.2255,105.569 3570.2795,106.028 3570.2795,106.487 C3570.2795,106.811 3570.1445,107.027 3569.9285,107.189 C3569.6855,107.324 3569.4155,107.405 3569.1455,107.405 C3568.2815,107.405 3567.8495,106.892 3567.8495,105.839 L3567.85009,105.659593 C3567.85217,105.409667 3567.8615,105.02 3567.9035,104.516 L3567.9575,102.41 C3567.3095,102.518 3566.7695,102.599 3566.2835,102.707 C3565.7705,102.815 3565.2845,102.896 3564.8255,103.004 L3564.0155,103.193 C3563.7455,103.274 3563.4755,103.328 3563.2055,103.382 C3562.9085,103.436 3562.6115,103.49 3562.3415,103.517 C3562.0445,103.571 3561.7745,103.598 3561.5315,103.598 C3561.2075,103.598 3560.8835,103.571 3560.5595,103.463 C3560.2085,103.355 3559.9115,103.22 3559.6415,103.031 C3559.3715,102.842 3559.1555,102.599 3558.9935,102.302 C3558.8315,102.032 3558.7505,101.708 3558.7505,101.33 C3558.7505,101.114 3558.7775,100.871 3558.8855,100.601 C3558.9665,100.358 3559.0745,100.115 3559.2095,99.845 C3559.3445,99.575 3559.4795,99.332 3559.6415,99.089 C3559.8035,98.873 3559.9385,98.657 3560.1005,98.468 C3561.2615,96.875 3562.4495,95.336 3563.6915,93.824 C3564.9335,92.339 3566.1485,90.8 3567.3365,89.207 C3567.4175,89.072 3567.5255,88.937 3567.6335,88.775 C3567.7145,88.64 3567.8225,88.505 3567.9575,88.343 C3568.0655,88.235 3568.2005,88.127 3568.3895,88.046 C3568.5515,87.992 3568.7135,87.938 3568.8755,87.938 Z M3468.1495,88.262 C3468.7975,88.262 3469.4455,88.343 3470.0935,88.451 C3470.7415,88.586 3471.3355,88.802 3471.8755,89.099 C3472.4155,89.423 3472.8475,89.855 3473.1715,90.368 C3473.4955,90.908 3473.6575,91.556 3473.6575,92.312 C3473.6575,93.149 3473.4685,93.851 3473.1175,94.445 C3472.7395,95.039 3472.1185,95.633 3471.2545,96.2 C3471.9025,96.362 3472.5235,96.578 3473.0635,96.821 C3473.6035,97.064 3474.0895,97.361 3474.4945,97.685 C3474.8725,98.063 3475.1965,98.468 3475.4395,98.927 C3475.6555,99.413 3475.7635,99.953 3475.7635,100.547 C3475.7635,101.573 3475.5475,102.464 3475.1155,103.22 C3474.6565,104.003 3474.0895,104.651 3473.3875,105.191 C3472.6855,105.731 3471.8755,106.109 3471.0115,106.379 C3470.1205,106.676 3469.2295,106.811 3468.3655,106.811 C3468.0415,106.811 3467.6635,106.784 3467.2315,106.703 C3466.7725,106.649 3466.3135,106.568 3465.8545,106.46 C3465.3685,106.352 3464.9095,106.244 3464.4775,106.082 C3464.0185,105.947 3463.6405,105.785 3463.3165,105.623 C3463.0465,105.488 3462.8035,105.299 3462.5875,105.029 C3462.3445,104.813 3462.2365,104.516 3462.2365,104.192 C3462.2365,103.895 3462.3175,103.652 3462.5335,103.463 C3462.7225,103.274 3462.9385,103.166 3463.2085,103.166 C3463.3435,103.166 3463.5325,103.247 3463.7485,103.355 C3463.8295,103.409 3463.9375,103.463 3464.0455,103.517 C3464.1535,103.571 3464.2885,103.652 3464.4505,103.733 C3464.6935,103.895 3464.9365,104.03 3465.1795,104.165 C3465.4225,104.327 3465.6925,104.435 3465.9625,104.516 C3466.7185,104.813 3467.4475,104.948 3468.1225,104.948 C3468.7165,104.948 3469.3105,104.867 3469.9315,104.678 C3470.5525,104.516 3471.1195,104.246 3471.6055,103.895 C3472.0915,103.544 3472.5235,103.085 3472.8475,102.545 C3473.1445,102.032 3473.3065,101.411 3473.3065,100.682 C3473.3065,100.25 3473.1985,99.845 3473.0095,99.494 C3472.7935,99.17 3472.5505,98.873 3472.2535,98.63 C3471.9295,98.414 3471.6055,98.225 3471.2275,98.063 C3470.8495,97.901 3470.4985,97.793 3470.1475,97.685 C3469.9585,97.658 3469.7695,97.604 3469.6075,97.55 C3469.4185,97.496 3469.2295,97.469 3469.0405,97.469 C3468.7975,97.469 3468.5815,97.496 3468.3655,97.55 C3468.1495,97.604 3467.9335,97.685 3467.7175,97.766 C3467.5015,97.847 3467.3125,97.928 3467.0965,97.982 C3466.8805,98.063 3466.6645,98.09 3466.4485,98.09 C3466.1515,98.09 3465.8815,97.982 3465.6115,97.739 C3465.3145,97.496 3465.1795,97.226 3465.1795,96.902 C3465.1795,96.632 3465.2605,96.416 3465.4225,96.254 C3465.5035,96.173 3465.6655,96.092 3465.9355,96.011 C3466.1785,95.957 3466.4215,95.903 3466.6915,95.903 L3467.0965,95.903 C3467.4205,95.903 3467.7175,95.876 3468.0145,95.795 C3468.3115,95.741 3468.6625,95.606 3469.0945,95.417 C3469.4995,95.255 3469.8775,95.012 3470.2555,94.715 C3470.6335,94.418 3470.9305,94.067 3471.2005,93.635 C3471.4435,93.257 3471.5785,92.771 3471.5785,92.231 C3471.5785,91.799 3471.4705,91.448 3471.3085,91.151 C3471.1195,90.881 3470.9035,90.665 3470.6335,90.503 C3470.3365,90.341 3470.0125,90.233 3469.6615,90.179 C3469.3105,90.125 3468.9865,90.071 3468.6625,90.071 C3468.2305,90.071 3467.7715,90.179 3467.3395,90.368 C3466.8535,90.584 3466.4485,90.773 3466.0705,90.962 C3465.8815,91.07 3465.7195,91.151 3465.5575,91.232 L3465.0715,91.475 C3464.7205,91.637 3464.4235,91.691 3464.2075,91.691 C3463.9645,91.691 3463.7485,91.583 3463.5595,91.367 C3463.3435,91.151 3463.2625,90.881 3463.2625,90.584 C3463.2625,90.314 3463.3975,90.017 3463.7215,89.747 C3464.0455,89.477 3464.4505,89.207 3464.9365,88.991 C3465.4225,88.775 3465.9355,88.613 3466.5295,88.451 C3467.0965,88.343 3467.6365,88.262 3468.1495,88.262 Z M3491.08594,90 C3493.33203,90 3495.27865,90.7486979 3496.92578,92.2460937 C3498.57292,93.8932292 3499.39648,95.8398437 3499.39648,98.0859375 C3499.39648,100.332031 3498.57292,102.203776 3496.92578,103.701172 C3495.27865,105.348307 3493.33203,106.171875 3491.08594,106.171875 C3488.98958,106.171875 3487.11784,105.348307 3485.4707,103.701172 C3483.82357,102.203776 3483,100.332031 3483,98.0859375 C3483,95.8398437 3483.82357,93.8932292 3485.4707,92.2460937 C3487.11784,90.7486979 3488.98958,90 3491.08594,90 Z M3544.08594,90 C3546.33203,90 3548.27865,90.7486979 3549.92578,92.2460937 C3551.57292,93.8932292 3552.39648,95.8398437 3552.39648,98.0859375 C3552.39648,100.332031 3551.57292,102.203776 3549.92578,103.701172 C3548.27865,105.348307 3546.33203,106.171875 3544.08594,106.171875 C3541.98958,106.171875 3540.11784,105.348307 3538.4707,103.701172 C3536.82357,102.203776 3536,100.332031 3536,98.0859375 C3536,95.8398437 3536.82357,93.8932292 3538.4707,92.2460937 C3540.11784,90.7486979 3541.98958,90 3544.08594,90 Z M3568.3355,90.8 C3567.4715,91.988 3566.6615,93.095 3565.8785,94.148 C3565.0685,95.228 3564.3125,96.2 3563.6105,97.091 C3563.4485,97.307 3563.2055,97.577 3562.9355,97.955 C3562.6655,98.333 3562.3955,98.711 3562.1255,99.116 C3561.8285,99.548 3561.5855,99.953 3561.3695,100.331 C3561.1535,100.736 3561.0725,101.06 3561.0725,101.276 C3561.0725,101.438 3561.1535,101.546 3561.3155,101.627 C3561.4775,101.708 3561.6125,101.735 3561.7745,101.735 C3562.0445,101.735 3562.4765,101.708 3563.0165,101.627 C3563.5565,101.573 3564.1235,101.465 3564.7175,101.357 L3566.4995,101.033 C3567.0935,100.925 3567.5795,100.817 3567.9845,100.709 Z M3561.6015,55.25 C3561.6015,53.792 3561.0075,52.631 3559.8735,51.74 C3559.2795,51.335 3558.6585,51.065 3557.9835,50.957 C3557.2815,50.876 3556.6065,50.822 3555.9045,50.822 C3555.2565,50.822 3554.5815,50.903 3553.9335,51.011 C3553.2855,51.173 3552.5835,51.362 3551.8275,51.578 C3551.9085,50.552 3551.9895,49.607 3552.0975,48.743 L3552.3135,46.016 C3553.2855,45.935 3554.2035,45.827 3555.0675,45.719 L3557.6325,45.314 C3557.7945,45.287 3557.9835,45.26 3558.1995,45.233 C3558.3885,45.233 3558.5775,45.233 3558.7935,45.179 L3559.3605,45.071 C3559.5225,45.071 3559.7115,45.017 3559.8735,44.936 C3559.9815,44.882 3560.0625,44.828 3560.1165,44.774 C3560.1435,44.72 3560.1705,44.612 3560.1705,44.45 C3560.1705,44.342 3560.0895,44.207 3559.9545,44.045 C3559.7925,43.91 3559.6305,43.775 3559.4415,43.667 C3559.2255,43.559 3559.0095,43.451 3558.7935,43.343 C3558.5775,43.289 3558.3885,43.235 3558.2805,43.235 C3558.1725,43.235 3558.0915,43.262 3557.9835,43.289 C3557.8755,43.343 3557.7945,43.37 3557.6865,43.397 L3557.3355,43.505 C3557.2005,43.559 3557.0925,43.586 3557.0115,43.613 C3556.3095,43.802 3555.5535,43.937 3554.7435,44.045 C3553.9065,44.153 3553.0965,44.18 3552.3135,44.18 C3552.1245,44.018 3551.9625,43.883 3551.8275,43.829 C3551.6655,43.775 3551.4765,43.721 3551.3145,43.721 C3551.1525,43.721 3551.0175,43.748 3550.8555,43.802 C3550.6665,43.856 3550.5315,43.91 3550.4235,43.964 C3550.2615,44.288 3550.1535,44.774 3550.0995,45.422 C3550.0185,46.097 3549.9645,46.826 3549.9375,47.582 C3549.8835,48.392 3549.8295,49.175 3549.8295,49.931 C3549.7755,50.687 3549.7485,51.281 3549.7215,51.686 L3549.6675,52.037 L3549.6135,52.415 C3549.5595,52.685 3549.5325,52.928 3549.5325,53.171 C3549.5325,53.252 3549.5595,53.333 3549.6405,53.441 C3549.6945,53.549 3549.8025,53.63 3549.9105,53.711 C3550.0185,53.792 3550.1265,53.846 3550.2345,53.9 C3550.3425,53.954 3550.4235,53.981 3550.5315,53.981 C3550.7205,53.981 3550.9095,53.954 3551.0715,53.9 C3551.2065,53.846 3551.3685,53.792 3551.5575,53.684 C3551.7195,53.603 3551.9085,53.495 3552.0975,53.387 C3552.2595,53.306 3552.4485,53.225 3552.6645,53.144 C3553.2045,52.982 3553.7175,52.847 3554.2305,52.793 C3554.7165,52.739 3555.2565,52.685 3555.8505,52.685 C3556.2825,52.685 3556.7145,52.739 3557.1465,52.847 C3557.5515,52.955 3557.9295,53.117 3558.2535,53.333 C3558.5775,53.549 3558.8205,53.846 3559.0365,54.224 C3559.2255,54.602 3559.3335,55.061 3559.3335,55.601 C3559.3335,56.384 3559.1715,57.059 3558.9015,57.653 C3558.5775,58.247 3558.1995,58.733 3557.7135,59.111 C3557.2275,59.516 3556.6605,59.813 3556.0395,60.029 C3555.3915,60.245 3554.7435,60.326 3554.0955,60.326 C3553.4475,60.326 3552.8535,60.245 3552.3675,60.083 C3551.8275,59.921 3551.3955,59.732 3551.0175,59.516 C3550.8015,59.435 3550.6395,59.327 3550.4775,59.219 C3550.3155,59.138 3550.1805,59.057 3550.0455,58.976 C3549.8835,58.922 3549.7485,58.841 3549.6405,58.787 C3549.5055,58.76 3549.3975,58.733 3549.3165,58.733 C3549.0465,58.733 3548.8575,58.841 3548.6955,59.003 C3548.5065,59.219 3548.4255,59.462 3548.4255,59.759 C3548.4255,60.083 3548.5335,60.353 3548.7495,60.569 C3548.9655,60.812 3549.2085,61.001 3549.5055,61.109 C3549.7215,61.217 3550.0455,61.325 3550.4775,61.433 C3550.8555,61.568 3551.2875,61.676 3551.7195,61.757 C3552.1515,61.838 3552.5835,61.919 3553.0155,61.973 C3553.4205,62.027 3553.7715,62.081 3554.0415,62.081 C3555.0675,62.081 3556.0395,61.946 3556.9575,61.676 C3557.8755,61.406 3558.6855,61.001 3559.3875,60.407 C3560.0625,59.867 3560.6025,59.165 3561.0075,58.301 C3561.3855,57.437 3561.6015,56.438 3561.6015,55.25 Z M3506.5305,48.262 C3507.8745,48.262 3510.3385,49.606 3513.9225,52.07 C3517.2825,54.758 3520.8665,57.67 3524.4505,60.806 C3528.0345,64.39 3531.1705,67.75 3533.8585,70.886 C3536.5465,74.246 3537.8905,76.71 3537.8905,78.278 C3537.8905,80.518 3536.3225,81.414 3533.6345,81.414 C3531.8425,81.414 3529.6025,80.742 3526.4665,79.174 C3523.3305,77.606 3520.1945,75.59 3516.8345,73.35 C3513.2505,71.11 3510.1145,68.87 3507.2025,66.63 C3504.0665,64.39 3501.8265,62.374 3500.4825,60.806 C3498.6905,59.238 3498.0185,57.67 3498.0185,56.102 C3498.0185,53.862 3498.6905,52.07 3500.4825,50.502 C3502.2745,49.158 3504.2905,48.262 3506.5305,48.262 Z M3516.75,37.5 C3519.09721,37.5 3521,39.4027898 3521,41.75 C3521,42.3281249 3520.88457,42.8792889 3520.67549,43.3817012 L3533.6345,53.17 L3535.44933,51.078818 L3543.81234,61.320067 L3530.5,56.7836473 L3532.3205,54.684 L3519.49433,44.9952885 C3518.75389,45.6220647 3517.79608,46 3516.75,46 C3514.40279,46 3512.5,44.0972102 3512.5,41.75 C3512.5,39.4027898 3514.40279,37.5 3516.75,37.5 Z M3516.75,38.5 C3514.95507,38.5 3513.5,39.9550746 3513.5,41.75 C3513.5,43.5449254 3514.95507,45 3516.75,45 C3518.54493,45 3520,43.5449254 3520,41.75 C3520,39.9550746 3518.54493,38.5 3516.75,38.5 Z" transform="translate(-3466)"/></svg>