<svg xmlns="http://www.w3.org/2000/svg" width="96" height="152" viewBox="0 0 96 152"><path d="M10385.185,58.824 C10387.009,53.694 10388.8615,49.647 10390.7425,46.683 C10392.6235,43.719 10394.248,42.237 10395.616,42.237 C10396.984,42.237 10398.124,42.978 10399.036,44.46 C10405.42,36.822 10412.4595,33.003 10420.1545,33.003 C10427.8495,33.003 10434.376,35.682 10439.734,41.04 C10450.45,51.528 10455.808,69.198 10455.808,94.05 C10455.808,111.606 10452.502,126.54 10445.89,138.852 C10439.278,151.164 10429.5025,157.32 10416.5635,157.32 C10403.6245,157.32 10393.906,151.392 10387.408,139.536 C10381.594,128.934 10378.687,114.741 10378.687,96.957 C10378.687,83.505 10380.853,70.794 10385.185,58.824 Z M10388.947,96.615 C10388.947,131.043 10398.181,148.257 10416.649,148.257 C10423.147,148.257 10428.562,145.749 10432.894,140.733 C10441.33,130.815 10445.548,114.912 10445.548,93.024 C10445.548,79.116 10443.496,67.431 10439.392,57.969 C10434.832,47.367 10427.935,42.066 10418.701,42.066 C10415.965,42.066 10412.887,43.263 10409.467,45.657 C10406.047,48.051 10402.798,51.528 10399.72,56.088 C10392.538,66.69 10388.947,80.199 10388.947,96.615 Z" transform="translate(-10369 -5.584)"/></svg>