<svg xmlns="http://www.w3.org/2000/svg" width="96" height="152" viewBox="0 0 96 152"><path d="M8871.151,87.894 C8876.509,87.894 8881.468,89.091 8886.028,91.485 C8890.588,93.879 8894.2645,97.2705 8897.0575,101.6595 C8899.8505,106.0485 8901.247,111.549 8901.247,118.161 C8901.247,124.773 8899.651,131.1285 8896.459,137.2275 C8893.267,143.3265 8888.365,148.2 8881.753,151.848 C8875.141,155.496 8867.389,157.32 8858.497,157.32 C8849.605,157.32 8842.366,156.1515 8836.78,153.8145 C8831.194,151.4775 8826.064,148.086 8821.39,143.64 C8820.592,142.842 8820.193,141.6165 8820.193,139.9635 C8820.193,138.3105 8820.706,136.629 8821.732,134.919 C8822.758,133.209 8823.784,132.354 8824.81,132.354 C8825.836,132.354 8826.577,132.696 8827.033,133.38 C8830.795,137.94 8834.9275,141.5595 8839.4305,144.2385 C8843.9335,146.9175 8849.8615,148.257 8857.2145,148.257 C8864.5675,148.257 8870.809,146.775 8875.939,143.811 C8881.069,140.847 8884.888,137.028 8887.396,132.354 C8889.904,127.68 8891.158,122.721 8891.158,117.477 C8891.158,110.409 8888.5645,104.709 8883.3775,100.377 C8878.1905,96.045 8871.664,93.879 8863.798,93.879 C8858.782,93.879 8855.248,94.1355 8853.196,94.6485 C8851.144,95.1615 8849.6335,95.418 8848.6645,95.418 C8847.6955,95.418 8846.6695,94.6485 8845.5865,93.1095 C8844.5035,91.5705 8843.962,90.117 8843.962,88.749 C8843.962,87.381 8844.589,86.64 8845.843,86.526 C8853.709,85.728 8860.663,84.0465 8866.705,81.4815 C8872.747,78.9165 8877.4495,75.81 8880.8125,72.162 C8884.1755,68.514 8885.857,64.2105 8885.857,59.2515 C8885.857,54.2925 8883.919,50.16 8880.043,46.854 C8876.167,43.548 8871.1795,41.895 8865.0805,41.895 C8858.9815,41.895 8853.4525,43.0635 8848.4935,45.4005 C8843.5345,47.7375 8838.604,51.756 8833.702,57.456 C8833.132,58.254 8832.334,58.653 8831.308,58.653 C8830.282,58.653 8829.3985,58.14 8828.6575,57.114 C8827.9165,56.088 8827.3465,55.005 8826.9475,53.865 C8826.5485,52.725 8826.349,52.098 8826.349,51.984 C8826.349,50.73 8827.2895,49.0485 8829.1705,46.9395 C8831.0515,44.8305 8833.702,42.75 8837.122,40.698 C8845.102,35.568 8853.937,33.003 8863.627,33.003 C8873.317,33.003 8881.0975,35.3115 8886.9685,39.9285 C8892.8395,44.5455 8895.775,50.73 8895.775,58.482 C8895.775,66.234 8893.2385,72.5895 8888.1655,77.5485 C8883.0925,82.5075 8876.737,85.956 8869.099,87.894 L8871.151,87.894 Z" transform="translate(-8813 -5.584)"/></svg>