<svg xmlns="http://www.w3.org/2000/svg" width="96" height="152" viewBox="0 0 96 152"><path d="M9127.651,127.053 L9111.748,126.711 L9107.473,126.882 L9107.473,136.971 L9108.157,154.755 C9108.157,155.895 9107.2735,156.465 9105.5065,156.465 C9103.7395,156.465 9101.944,156.0375 9100.12,155.1825 C9098.296,154.3275 9097.384,153.159 9097.384,151.677 L9097.726,136.629 L9097.726,127.395 L9056.173,129.447 C9054.349,129.447 9052.753,129.6465 9051.385,130.0455 C9050.017,130.4445 9048.7915,130.644 9047.7085,130.644 C9046.6255,130.644 9045.2575,129.846 9043.6045,128.25 C9041.9515,126.654 9041.125,125.0865 9041.125,123.5475 C9041.125,122.0085 9041.581,120.5835 9042.493,119.2725 C9043.405,117.9615 9044.4025,116.6505 9045.4855,115.3395 C9046.5685,114.0285 9047.509,112.803 9048.307,111.663 C9069.625,78.033 9081.994,58.026 9085.414,51.642 C9088.834,45.258 9091.627,39.501 9093.793,34.371 C9094.135,33.573 9094.7905,33.174 9095.7595,33.174 C9096.7285,33.174 9098.0965,34.143 9099.8635,36.081 C9101.6305,38.019 9102.514,39.615 9102.514,40.869 C9102.514,42.123 9102.343,43.035 9102.001,43.605 L9095.845,53.181 C9076.693,84.303 9062.329,106.818 9052.753,120.726 L9097.726,118.845 L9097.726,83.106 L9097.213,64.809 C9097.213,63.669 9098.0965,63.099 9099.8635,63.099 C9101.6305,63.099 9103.3975,63.5265 9105.1645,64.3815 C9106.9315,65.2365 9107.815,66.405 9107.815,67.887 L9107.473,83.106 L9107.473,118.332 L9111.577,118.161 C9113.857,118.047 9116.2225,117.8475 9118.6735,117.5625 C9121.1245,117.2775 9123.0055,117.135 9124.3165,117.135 C9125.6275,117.135 9126.8245,118.0185 9127.9075,119.7855 C9128.9905,121.5525 9129.532,123.2055 9129.532,124.7445 C9129.532,126.2835 9128.905,127.053 9127.651,127.053 Z" transform="translate(-9037 -5.584)"/></svg>