<svg xmlns="http://www.w3.org/2000/svg" width="96" height="152" viewBox="0 0 96 152"><path d="M9281.038,89.091 C9289.246,82.707 9298.252,79.515 9308.056,79.515 L9309.424,79.515 C9315.694,79.629 9321.5935,81.1395 9327.1225,84.0465 C9332.6515,86.9535 9337.1545,91.1145 9340.6315,96.5295 C9344.1085,101.9445 9345.847,108.3855 9345.847,115.8525 C9345.847,123.3195 9344.3365,130.188 9341.3155,136.458 C9338.2945,142.728 9333.5635,147.801 9327.1225,151.677 C9320.6815,155.553 9313.0435,157.491 9304.2085,157.491 C9295.3735,157.491 9287.992,155.9805 9282.064,152.9595 C9276.136,149.9385 9271.063,146.205 9266.845,141.759 C9266.047,140.961 9265.648,139.707 9265.648,137.997 C9265.648,136.287 9266.218,134.52 9267.358,132.696 C9268.498,130.872 9269.5525,129.96 9270.5215,129.96 C9271.4905,129.96 9272.203,130.359 9272.659,131.157 C9275.737,135.603 9279.727,139.5075 9284.629,142.8705 C9289.531,146.2335 9295.288,147.972 9301.9,148.086 L9302.242,148.086 C9309.994,148.086 9316.321,146.604 9321.223,143.64 C9326.125,140.676 9329.773,136.7715 9332.167,131.9265 C9334.561,127.0815 9335.758,121.923 9335.758,116.451 C9335.758,107.673 9333.136,100.833 9327.892,95.931 C9322.648,91.029 9315.808,88.5495 9307.372,88.4925 C9298.936,88.4355 9291.64,90.63 9285.484,95.076 C9282.862,97.128 9280.297,99.294 9277.789,101.574 C9277.333,101.916 9276.6205,102.087 9275.6515,102.087 C9274.6825,102.087 9273.5425,101.403 9272.2315,100.035 C9270.9205,98.667 9270.265,97.3275 9270.265,96.0165 C9270.265,94.7055 9270.322,93.822 9270.436,93.366 L9272.146,87.381 L9278.644,45.828 C9278.872,44.574 9278.986,43.32 9278.986,42.066 L9278.986,38.475 C9278.986,37.107 9279.898,36.423 9281.722,36.423 C9283.546,36.423 9285.712,37.107 9288.22,38.475 L9323.959,35.91 C9329.545,35.568 9333.364,35.226 9335.416,34.884 L9335.758,34.884 C9337.012,34.884 9338.1805,35.7105 9339.2635,37.3635 C9340.3465,39.0165 9340.888,40.584 9340.888,42.066 C9340.888,43.548 9340.204,44.289 9338.836,44.289 C9337.354,44.403 9335.359,44.4885 9332.851,44.5455 C9330.343,44.6025 9327.835,44.745 9325.327,44.973 L9287.707,47.709 L9281.038,89.091 Z" transform="translate(-9258 -5.584)"/></svg>