<svg xmlns="http://www.w3.org/2000/svg" width="96" height="152" viewBox="0 0 96 152"><path d="M9789.25,42.066 C9788.794,43.662 9788.11,45.258 9787.198,46.854 C9783.322,52.896 9777.565,64.2675 9769.927,80.9685 C9762.289,97.6695 9754.423,117.078 9746.329,139.194 C9745.645,141.018 9744.961,143.184 9744.277,145.692 C9743.593,148.2 9742.852,150.879 9742.054,153.729 C9741.712,155.325 9740.23,156.123 9737.608,156.123 C9736.468,156.123 9735.0145,155.9805 9733.2475,155.6955 C9731.4805,155.4105 9730.597,154.47 9730.597,152.874 C9730.597,149.91 9735.8695,135.888 9746.4145,110.808 C9756.9595,85.728 9767.02,63.669 9776.596,44.631 L9725.809,48.906 C9723.415,49.248 9721.5625,49.419 9720.2515,49.419 C9718.9405,49.419 9717.6295,48.8205 9716.3185,47.6235 C9715.0075,46.4265 9714.01,45.144 9713.326,43.776 C9712.642,42.408 9712.3,41.382 9712.3,40.698 C9712.3,40.014 9712.585,39.672 9713.155,39.672 L9719.311,40.014 L9774.202,36.081 C9775.57,35.967 9776.8525,35.739 9778.0495,35.397 C9779.2465,35.055 9780.358,34.884 9781.384,34.884 L9781.897,34.884 C9783.265,34.998 9784.8325,35.8245 9786.5995,37.3635 C9788.3665,38.9025 9789.25,40.47 9789.25,42.066 Z" transform="translate(-9703 -5.584)"/></svg>