<svg xmlns="http://www.w3.org/2000/svg" width="96" height="152" viewBox="0 0 96 152"><path d="M10003.513,54.72 C10005.451,52.782 10007.047,51.813 10008.301,51.813 C10010.239,51.813 10011.208,52.782 10011.208,54.72 C10011.208,57.912 10006.762,63.156 9997.87,70.452 C9991.486,75.81 9984.703,80.883 9977.521,85.671 L9979.573,86.526 C10001.233,95.532 10012.063,107.274 10012.063,121.752 C10012.063,136.572 10005.28,146.946 9991.714,152.874 C9985.33,155.724 9978.0055,157.149 9969.7405,157.149 C9961.4755,157.149 9954.5215,155.724 9948.8785,152.874 C9943.2355,150.024 9938.9035,146.1765 9935.8825,141.3315 C9932.8615,136.4865 9931.351,131.214 9931.351,125.514 C9931.351,119.814 9932.548,114.798 9934.942,110.466 C9939.388,102.714 9947.482,95.019 9959.224,87.381 C9951.586,83.505 9946,79.6005 9942.466,75.6675 C9938.932,71.7345 9937.165,67.1175 9937.165,61.8165 C9937.165,56.5155 9938.6185,51.7275 9941.5255,47.4525 C9944.4325,43.1775 9948.5365,39.729 9953.8375,37.107 C9959.1385,34.485 9964.8385,33.174 9970.9375,33.174 C9977.0365,33.174 9982.081,33.972 9986.071,35.568 C9990.061,37.164 9993.424,39.102 9996.16,41.382 C9998.896,43.662 10000.9765,45.771 10002.4015,47.709 C10003.8265,49.647 10004.539,51.0435 10004.539,51.8985 C10004.539,52.7535 10004.197,53.694 10003.513,54.72 Z M9968.287,81.567 C9981.283,73.587 9992.113,65.493 10000.777,57.285 C10000.435,57.513 9999.751,57.627 9998.725,57.627 C9997.699,57.627 9996.73,56.886 9995.818,55.404 C9990.232,46.284 9982.537,41.724 9972.733,41.724 C9967.375,41.724 9962.7865,42.6645 9958.9675,44.5455 C9955.1485,46.4265 9952.213,48.8775 9950.161,51.8985 C9948.109,54.9195 9947.083,58.368 9947.083,62.244 C9947.083,66.12 9948.793,69.483 9952.213,72.333 C9955.633,75.183 9960.991,78.261 9968.287,81.567 Z M9968.629,91.656 C9960.877,97.014 9954.4075,102.315 9949.2205,107.559 C9944.0335,112.803 9941.44,118.446 9941.44,124.488 C9941.44,128.364 9942.466,132.0975 9944.518,135.6885 C9946.57,139.2795 9949.6195,142.2435 9953.6665,144.5805 C9957.7135,146.9175 9962.8435,148.086 9969.0565,148.086 C9975.2695,148.086 9980.827,147.06 9985.729,145.008 C9990.631,142.956 9994.5355,140.0775 9997.4425,136.3725 C10000.3495,132.6675 10001.803,128.364 10001.803,123.462 C10001.803,110.466 9990.745,99.864 9968.629,91.656 Z" transform="translate(-9924 -5.584)"/></svg>