<svg xmlns="http://www.w3.org/2000/svg" width="96" height="152" viewBox="0 0 96 152"><path d="M10236.757,43.776 L10233.508,55.233 C10227.922,77.919 10222.564,105.678 10217.434,138.51 C10216.408,144.666 10215.724,149.511 10215.382,153.045 C10215.268,155.097 10213.045,156.237 10208.713,156.465 L10208.029,156.465 C10205.749,156.465 10204.609,155.496 10204.609,153.558 C10204.609,152.988 10204.6945,152.361 10204.8655,151.677 C10205.0365,150.993 10205.3215,149.5965 10205.7205,147.4875 C10206.1195,145.3785 10206.8035,141.9015 10207.7725,137.0565 C10208.7415,132.2115 10209.739,127.1385 10210.765,121.8375 C10211.791,116.5365 10212.76,111.5775 10213.672,106.9605 C10214.584,102.3435 10215.325,98.4675 10215.895,95.3325 C10216.465,92.1975 10216.807,90.345 10216.921,89.775 C10213.045,95.931 10207.915,100.8045 10201.531,104.3955 C10195.147,107.9865 10189.0765,109.782 10183.3195,109.782 C10177.5625,109.782 10172.518,108.5565 10168.186,106.1055 C10163.854,103.6545 10160.4055,100.149 10157.8405,95.589 C10155.2755,91.029 10153.993,85.728 10153.993,79.686 C10153.993,67.374 10158.268,56.544 10166.818,47.196 C10175.368,37.848 10185.457,33.174 10197.085,33.174 C10207.003,33.174 10214.926,36.138 10220.854,42.066 C10223.248,44.46 10224.844,46.455 10225.642,48.051 C10226.212,45.543 10226.554,43.263 10226.668,41.211 C10226.782,39.159 10227.637,38.133 10229.233,38.133 L10229.575,38.133 C10230.943,38.247 10232.482,38.9025 10234.192,40.0995 C10235.902,41.2965 10236.757,42.522 10236.757,43.776 Z M10224.103,55.746 C10223.191,56.658 10222.279,57.114 10221.367,57.114 C10220.455,57.114 10219.657,56.43 10218.973,55.062 C10217.035,50.502 10213.501,46.911 10208.371,44.289 C10205.521,42.807 10201.7875,42.066 10197.1705,42.066 C10192.5535,42.066 10188.136,43.206 10183.918,45.486 C10179.7,47.766 10176.052,50.73 10172.974,54.378 C10166.818,61.902 10163.74,69.6255 10163.74,77.5485 C10163.74,85.4715 10165.45,91.257 10168.87,94.905 C10172.29,98.553 10176.9925,100.377 10182.9775,100.377 C10188.9625,100.377 10194.577,98.667 10199.821,95.247 C10205.065,91.827 10209.5965,87.3525 10213.4155,81.8235 C10217.2345,76.2945 10220.17,70.338 10222.222,63.954 L10224.103,55.746 Z" transform="translate(-10147 -5.584)"/></svg>