<svg xmlns="http://www.w3.org/2000/svg" width="118" height="152" viewBox="0 0 118 152"><path d="M22.914,107.901 C42.978,68.457 53.58,45.258 54.72,38.304 C55.062,36.138 55.632,34.7415 56.43,34.1145 C57.228,33.4875 58.254,33.174 59.508,33.174 C60.762,33.174 62.415,33.744 64.467,34.884 C66.519,36.024 67.545,37.392 67.545,38.988 L67.545,41.211 C67.545,42.807 70.623,50.958 76.779,65.664 C95.817,110.808 108.813,138.453 115.767,148.599 C117.021,150.423 117.648,151.563 117.648,152.019 C117.648,153.159 116.8215,154.071 115.1685,154.755 C113.5155,155.439 111.5775,155.781 109.3545,155.781 C107.1315,155.781 105.792,155.154 105.336,153.9 C103.512,148.542 101.574,143.583 99.522,139.023 C97.47,134.463 95.532,130.131 93.708,126.027 C91.884,121.923 90.003,117.762 88.065,113.544 L31.293,115.767 L29.241,115.767 C27.417,119.643 25.593,123.405 23.769,127.053 C18.183,137.769 14.25,146.319 11.97,152.703 C11.286,154.641 9.12,155.61 5.472,155.61 C1.824,155.61 0,154.698 0,152.874 C0,152.076 0.228,151.3635 0.684,150.7365 C1.14,150.1095 1.6245,149.34 2.1375,148.428 C2.6505,147.516 3.477,146.0055 4.617,143.8965 C5.757,141.7875 7.41,138.624 9.576,134.406 C11.742,130.188 14.763,124.317 18.639,116.793 L16.929,116.964 L16.758,116.964 C15.504,116.964 14.307,116.0805 13.167,114.3135 C12.027,112.5465 11.457,110.979 11.457,109.611 C11.457,108.243 12.027,107.559 13.167,107.559 L13.509,107.559 C15.561,107.787 17.67,107.901 19.836,107.901 L22.914,107.901 Z M60.705,48.564 C56.829,58.254 47.652,77.976 33.174,107.73 L36.765,107.559 C43.719,107.217 50.217,106.932 56.259,106.704 C64.353,106.362 72.561,106.02 80.883,105.678 L84.474,105.507 C71.82,76.095 63.897,57.114 60.705,48.564 Z" transform="translate(0 -5.584)"/></svg>