<svg xmlns="http://www.w3.org/2000/svg" width="102" height="152" viewBox="0 0 102 152"><path d="M260.617,76.437 C259.135,86.583 258.394,101.46 258.394,121.068 C258.394,133.266 260.389,142.5 264.379,148.77 C264.607,149.226 264.721,149.853 264.721,150.651 C264.721,151.449 264.1225,152.6175 262.9255,154.1565 C261.7285,155.6955 260.446,156.465 259.078,156.465 C256.57,156.465 254.3755,153.5865 252.4945,147.8295 C250.6135,142.0725 249.559,137.142 249.331,133.038 C245.227,141.36 240.0115,147.4875 233.6845,151.4205 C227.3575,155.3535 220.5175,157.32 213.1645,157.32 C205.8115,157.32 199.6555,154.5555 194.6965,149.0265 C189.7375,143.4975 187.258,135.375 187.258,124.659 C187.258,110.637 191.704,98.211 200.596,87.381 C204.7,82.479 209.2315,78.66 214.1905,75.924 C219.1495,73.188 223.9375,71.82 228.5545,71.82 C233.1715,71.82 237.3895,72.846 241.2085,74.898 C245.0275,76.95 247.849,80.142 249.673,84.474 C249.901,79.23 250.015,75.525 250.015,73.359 C250.015,72.333 250.8985,71.82 252.6655,71.82 C254.4325,71.82 256.1995,72.219 257.9665,73.017 C259.7335,73.815 260.617,74.841 260.617,76.095 L260.617,76.437 Z M249.673,88.578 C249.103,89.718 248.2765,90.288 247.1935,90.288 C246.1105,90.288 245.398,90.06 245.056,89.604 C240.838,83.22 235.309,80.028 228.469,80.028 C225.277,80.028 221.7715,81.1395 217.9525,83.3625 C214.1335,85.5855 210.628,88.692 207.436,92.682 C200.482,101.346 197.005,111.72 197.005,123.804 C197.005,132.582 198.658,138.9375 201.964,142.8705 C205.27,146.8035 209.602,148.77 214.96,148.77 C220.318,148.77 225.5905,146.946 230.7775,143.298 C235.9645,139.65 240.382,134.292 244.03,127.224 C247.678,120.156 249.502,110.238 249.502,97.47 C249.502,94.392 249.559,91.428 249.673,88.578 Z" transform="translate(-177 -5.584)"/></svg>