<svg xmlns="http://www.w3.org/2000/svg" width="114" height="152" viewBox="0 0 114 152"><path d="M16499.974,53.523 C16499.974,64.125 16491.253,75.639 16473.811,88.065 C16483.843,100.377 16495.243,113.145 16508.011,126.369 C16515.535,115.881 16520.722,104.709 16523.572,92.853 C16523.8,91.599 16524.0565,90.2025 16524.3415,88.6635 C16524.6265,87.1245 16525.453,86.355 16526.821,86.355 C16527.049,86.355 16527.733,86.64 16528.873,87.21 C16532.293,88.692 16534.003,90.63 16534.003,93.024 C16534.003,96.672 16529.728,106.476 16521.178,122.436 C16519.012,126.54 16516.846,130.074 16514.68,133.038 C16523.686,142.614 16531.21,148.485 16537.252,150.651 C16541.812,152.361 16544.092,153.957 16544.092,155.439 C16544.092,156.351 16542.2965,156.807 16538.7055,156.807 C16535.1145,156.807 16531.837,156.2655 16528.873,155.1825 C16525.909,154.0995 16522.9165,152.3325 16519.8955,149.8815 C16516.8745,147.4305 16513.255,144.096 16509.037,139.878 C16498.549,151.392 16485.439,157.149 16469.707,157.149 C16456.939,157.149 16447.7905,154.527 16442.2615,149.283 C16436.7325,144.039 16433.968,136.9995 16433.968,128.1645 C16433.968,119.3295 16436.5045,111.549 16441.5775,104.823 C16446.6505,98.097 16453.177,91.884 16461.157,86.184 C16453.747,76.836 16450.042,67.83 16450.042,59.166 C16450.042,54.036 16451.2675,49.533 16453.7185,45.657 C16456.1695,41.781 16459.4755,38.7315 16463.6365,36.5085 C16467.7975,34.2855 16472.899,33.174 16478.941,33.174 C16484.983,33.174 16489.999,34.8555 16493.989,38.2185 C16497.979,41.5815 16499.974,46.683 16499.974,53.523 Z M16468.168,81.225 C16476.718,75.753 16483.159,69.654 16487.491,62.928 C16489.543,59.736 16490.569,56.829 16490.569,54.207 C16490.569,45.201 16486.123,40.698 16477.231,40.698 C16474.267,40.698 16471.417,41.496 16468.681,43.092 C16462.525,46.854 16459.447,52.326 16459.447,59.508 C16459.447,66.69 16462.354,73.929 16468.168,81.225 Z M16466.629,92.853 C16451.125,103.227 16443.373,114.969 16443.373,128.079 C16443.373,134.349 16445.4535,139.4505 16449.6145,143.3835 C16453.7755,147.3165 16460.359,149.283 16469.365,149.283 C16473.925,149.283 16479.2545,148.1145 16485.3535,145.7775 C16491.4525,143.4405 16497.238,139.251 16502.71,133.209 C16489.942,119.757 16477.915,106.305 16466.629,92.853 Z" transform="translate(-16432 -5.584)"/></svg>