<svg xmlns="http://www.w3.org/2000/svg" width="92" height="152" viewBox="0 0 92 152"><path d="M17661.577,32.49 C17664.541,32.49 17666.023,33.516 17666.023,35.568 C17666.023,36.48 17665.966,37.164 17665.852,37.62 L17663.8,57.798 C17669.044,55.518 17673.946,53.1525 17678.506,50.7015 C17683.066,48.2505 17685.859,47.025 17686.885,47.025 C17687.911,47.025 17688.7945,47.88 17689.5355,49.59 C17690.2765,51.3 17690.647,52.782 17690.647,54.036 C17690.647,55.29 17690.191,56.1165 17689.279,56.5155 C17688.367,56.9145 17687.227,57.228 17685.859,57.456 C17676.055,59.622 17669.272,61.161 17665.51,62.073 L17669.785,67.203 C17674.345,72.675 17677.2235,76.0095 17678.4205,77.2065 C17679.6175,78.4035 17680.444,79.2585 17680.9,79.7715 C17681.356,80.2845 17681.584,80.9115 17681.584,81.6525 C17681.584,82.3935 17680.8145,83.4765 17679.2755,84.9015 C17677.7365,86.3265 17676.1975,87.039 17674.6585,87.039 C17673.1195,87.039 17672.008,85.956 17671.324,83.79 C17670.64,82.08 17669.6995,80.0565 17668.5025,77.7195 C17667.3055,75.3825 17666.1085,73.017 17664.9115,70.623 C17663.7145,68.229 17662.66,66.291 17661.748,64.809 C17656.96,73.245 17653.768,79.8 17652.172,84.474 C17651.944,84.93 17651.602,85.557 17651.146,86.355 C17650.69,87.153 17649.835,87.552 17648.581,87.552 C17647.327,87.552 17645.9305,86.868 17644.3915,85.5 C17642.8525,84.132 17642.083,82.9635 17642.083,81.9945 C17642.083,81.0255 17642.653,79.914 17643.793,78.66 C17648.239,74.1 17652.742,68.799 17657.302,62.757 C17650.576,61.503 17644.021,60.762 17637.637,60.534 C17636.953,60.42 17636.098,60.2205 17635.072,59.9355 C17634.046,59.6505 17633.533,58.482 17633.533,56.43 C17633.533,54.378 17633.9035,52.8105 17634.6445,51.7275 C17635.3855,50.6445 17636.212,50.103 17637.124,50.103 C17638.036,50.103 17639.5465,50.5875 17641.6555,51.5565 C17643.7645,52.5255 17649.55,54.72 17659.012,58.14 C17658.67,53.58 17658.043,48.849 17657.131,43.947 C17656.219,39.045 17655.763,36.309 17655.763,35.739 C17655.763,33.573 17657.53,32.49 17661.064,32.49 L17661.577,32.49 Z" transform="translate(-17617 -5.584)"/></svg>