<svg xmlns="http://www.w3.org/2000/svg" width="130" height="152" viewBox="0 0 130 152"><path d="M16749.463,109.44 C16741.939,122.322 16732.021,128.763 16719.709,128.763 C16713.781,128.763 16708.7935,126.54 16704.7465,122.094 C16700.6995,117.648 16698.676,111.4635 16698.676,103.5405 C16698.676,95.6175 16700.3575,88.293 16703.7205,81.567 C16707.0835,74.841 16711.6435,69.426 16717.4005,65.322 C16723.1575,61.218 16729.798,59.166 16737.322,59.166 C16744.846,59.166 16750.261,61.959 16753.567,67.545 C16753.909,65.835 16754.08,63.954 16754.08,61.902 C16754.08,60.99 16754.65,60.534 16755.79,60.534 C16756.93,60.534 16758.184,60.876 16759.552,61.56 C16762.858,63.156 16764.511,64.923 16764.511,66.861 L16764.34,67.545 C16761.034,77.007 16758.811,89.262 16757.671,104.31 C16757.443,107.502 16757.329,110.352 16757.329,112.86 C16757.329,118.104 16758.868,120.726 16761.946,120.726 C16765.024,120.726 16768.1875,119.1585 16771.4365,116.0235 C16774.6855,112.8885 16777.4215,108.4425 16779.6445,102.6855 C16781.8675,96.9285 16782.979,89.832 16782.979,81.396 C16782.979,72.96 16780.8985,65.6925 16776.7375,59.5935 C16772.5765,53.4945 16766.9335,48.906 16759.8085,45.828 C16752.6835,42.75 16744.96,41.211 16736.638,41.211 C16720.792,41.211 16707.4255,47.31 16696.5385,59.508 C16685.6515,71.706 16680.208,85.557 16680.208,101.061 C16680.208,111.549 16682.3455,120.2985 16686.6205,127.3095 C16690.8955,134.3205 16696.8805,139.593 16704.5755,143.127 C16712.2705,146.661 16720.3075,148.428 16728.6865,148.428 C16737.0655,148.428 16744.732,147.288 16751.686,145.008 C16766.05,140.106 16777.336,132.696 16785.544,122.778 C16786.798,121.41 16787.881,120.726 16788.793,120.726 C16790.275,120.726 16791.016,121.638 16791.016,123.462 C16791.016,124.488 16790.104,126.312 16788.28,128.934 C16783.72,135.318 16776.994,141.246 16768.102,146.718 C16756.93,153.672 16744.96,157.149 16732.192,157.149 C16719.424,157.149 16708.48,154.9545 16699.36,150.5655 C16690.24,146.1765 16683.172,139.878 16678.156,131.67 C16673.14,123.462 16670.632,114.228 16670.632,103.968 C16670.632,93.708 16672.2565,84.4455 16675.5055,76.1805 C16678.7545,67.9155 16683.343,60.5625 16689.271,54.1215 C16695.199,47.6805 16702.1245,42.579 16710.0475,38.817 C16717.9705,35.055 16727.062,33.174 16737.322,33.174 C16747.582,33.174 16756.9015,35.169 16765.2805,39.159 C16773.6595,43.149 16780.186,48.7635 16784.86,56.0025 C16789.534,63.2415 16791.871,71.649 16791.871,81.225 C16791.871,90.801 16790.446,99.123 16787.596,106.191 C16784.746,113.259 16781.041,118.8165 16776.481,122.8635 C16771.921,126.9105 16767.2185,128.934 16762.3735,128.934 C16757.5285,128.934 16754.1085,127.737 16752.1135,125.343 C16750.1185,122.949 16749.121,119.415 16749.121,114.741 C16749.121,113.031 16749.235,111.264 16749.463,109.44 Z M16708.936,102.942 C16708.936,114 16712.926,119.529 16720.906,119.529 C16729.57,119.529 16736.638,115.254 16742.11,106.704 C16747.582,98.154 16750.318,89.889 16750.318,81.909 C16750.318,77.121 16749.007,73.473 16746.385,70.965 C16743.763,68.457 16740.3145,67.203 16736.0395,67.203 C16731.7645,67.203 16727.4895,68.856 16723.2145,72.162 C16718.9395,75.468 16715.491,79.8285 16712.869,85.2435 C16710.247,90.6585 16708.936,96.558 16708.936,102.942 Z" transform="translate(-16666 -5.584)"/></svg>