<svg xmlns="http://www.w3.org/2000/svg" width="106" height="152" viewBox="0 0 106 152"><path d="M353.983,47.367 C352.615,47.139 351.361,46.284 350.221,44.802 C349.081,43.32 348.511,42.009 348.511,40.869 C348.511,39.729 348.967,38.931 349.879,38.475 C354.781,36.537 361.621,35.1975 370.399,34.4565 C379.177,33.7155 386.929,33.345 393.655,33.345 C400.381,33.345 406.537,34.542 412.123,36.936 C422.725,41.382 428.026,48.849 428.026,59.337 C428.026,64.239 426.829,68.514 424.435,72.162 C420.103,79.002 413.776,83.847 405.454,86.697 C411.154,87.039 416.4265,88.578 421.2715,91.314 C426.1165,94.05 430.0495,97.698 433.0705,102.258 C436.0915,106.818 437.602,112.404 437.602,119.016 C437.602,125.628 436.063,131.328 432.985,136.116 C427.399,144.666 417.652,150.366 403.744,153.216 C394.966,155.04 385.219,155.952 374.503,155.952 C363.787,155.952 354.952,155.439 347.998,154.413 C345.946,154.071 344.92,153.159 344.92,151.677 C344.92,150.879 345.2335,150.195 345.8605,149.625 C346.4875,149.055 347.2855,148.77 348.2545,148.77 C349.2235,148.77 350.449,148.713 351.931,148.599 L353.983,148.428 L353.983,47.367 Z M418.108,60.363 C418.108,48.165 408.418,42.066 389.038,42.066 C379.804,42.066 371.425,43.035 363.901,44.973 L363.901,85.671 L366.124,85.671 C373.762,85.671 381.457,85.158 389.209,84.132 C399.583,82.194 407.677,78.09 413.491,71.82 C416.569,68.514 418.108,64.695 418.108,60.363 Z M391.261,92.511 C381.799,92.511 372.679,92.91 363.901,93.708 L363.901,148.941 C384.535,148.941 400.324,146.5185 411.268,141.6735 C422.212,136.8285 427.684,129.048 427.684,118.332 C427.684,109.668 423.865,103.056 416.227,98.496 C409.957,94.734 402.775,92.739 394.681,92.511 L391.261,92.511 Z" transform="translate(-337 -5.584)"/></svg>