<svg xmlns="http://www.w3.org/2000/svg" width="118" height="152" viewBox="0 0 118 152"><path d="M773.446,122.778 C774.586,121.296 775.8115,120.555 777.1225,120.555 C778.4335,120.555 779.089,121.239 779.089,122.607 C779.089,123.975 778.348,125.97 776.866,128.592 C773.218,135.204 767.632,141.246 760.108,146.718 C750.19,153.786 738.619,157.32 725.395,157.32 C704.077,157.32 689.029,149.796 680.251,134.748 C675.691,126.996 673.411,117.5055 673.411,106.2765 C673.411,95.0475 674.95,85.101 678.028,76.437 C681.106,67.773 685.381,60.192 690.853,53.694 C696.325,47.196 702.766,42.123 710.176,38.475 C717.586,34.827 725.1385,33.003 732.8335,33.003 C740.5285,33.003 746.77,33.7155 751.558,35.1405 C756.346,36.5655 760.222,38.247 763.186,40.185 C766.15,42.123 768.3445,43.947 769.7695,45.657 C771.1945,47.367 771.907,48.735 771.907,49.761 C771.907,50.787 771.2515,52.098 769.9405,53.694 C768.6295,55.29 767.404,56.088 766.264,56.088 C765.124,56.088 764.1265,55.4325 763.2715,54.1215 C762.4165,52.8105 760.735,51.186 758.227,49.248 C752.071,44.46 743.806,42.066 733.432,42.066 C726.478,42.066 719.9515,43.662 713.8525,46.854 C707.7535,50.046 702.424,54.492 697.864,60.192 C688.174,72.162 683.329,86.811 683.329,104.139 C683.329,114.399 685.21,122.778 688.972,129.276 C696.268,142.044 708.751,148.428 726.421,148.428 C738.505,148.428 749.905,144.21 760.621,135.774 C765.523,131.898 769.798,127.566 773.446,122.778 Z" transform="translate(-666 -5.584)"/></svg>