<svg xmlns="http://www.w3.org/2000/svg" width="92" height="152" viewBox="0 0 92 152"><path d="M17367.286,105.165 C17367.286,106.761 17365.6615,107.559 17362.4125,107.559 C17359.1635,107.559 17357.311,106.875 17356.855,105.507 C17355.487,100.719 17354.29,97.299 17353.264,95.247 L17328.811,44.973 L17304.358,95.247 C17302.762,98.781 17301.337,102.543 17300.083,106.533 C17299.741,107.445 17298.829,107.901 17297.347,107.901 C17295.865,107.901 17294.326,107.502 17292.73,106.704 C17291.134,105.906 17290.336,104.994 17290.336,103.968 C17290.336,103.854 17291.134,102.4005 17292.73,99.6075 C17294.326,96.8145 17295.466,94.563 17296.15,92.853 L17321.8,39.672 C17322.484,38.19 17322.94,36.822 17323.168,35.568 C17323.282,33.972 17324.992,32.946 17328.298,32.49 C17328.64,32.376 17329.324,32.319 17330.35,32.319 C17331.376,32.319 17332.2025,32.889 17332.8295,34.029 C17333.4565,35.169 17334.055,36.309 17334.625,37.449 L17361.643,93.366 C17363.125,96.558 17364.436,99.237 17365.576,101.403 C17366.716,103.569 17367.286,104.823 17367.286,105.165 Z" transform="translate(-17282 -5.584)"/></svg>