<svg xmlns="http://www.w3.org/2000/svg" width="118" height="152" viewBox="0 0 118 152"><path d="M1023.79,155.61 C1018.888,155.61 1013.359,155.211 1007.203,154.413 C1005.151,154.071 1004.125,153.216 1004.125,151.848 C1004.125,151.278 1004.41,150.708 1004.98,150.138 C1005.664,149.454 1007.659,148.998 1010.965,148.77 L1013.359,148.77 L1013.359,47.196 C1011.877,46.968 1010.566,46.1415 1009.426,44.7165 C1008.286,43.2915 1007.716,41.952 1007.716,40.698 C1007.716,39.444 1008.229,38.589 1009.255,38.133 C1013.701,36.309 1020.085,35.0265 1028.407,34.2855 C1036.729,33.5445 1042.828,33.174 1046.704,33.174 C1064.032,33.174 1078.852,38.7315 1091.164,49.8465 C1103.476,60.9615 1109.632,75.3825 1109.632,93.1095 C1109.632,110.8365 1104.274,124.944 1093.558,135.432 C1084.324,144.438 1072.753,150.252 1058.845,152.874 C1050.067,154.47 1039.18,155.382 1026.184,155.61 L1023.79,155.61 Z M1082.956,55.746 C1077.826,51.3 1072.069,47.9085 1065.685,45.5715 C1059.301,43.2345 1052.404,42.066 1044.994,42.066 C1037.584,42.066 1030.345,42.978 1023.277,44.802 L1023.277,148.77 C1044.139,148.314 1060.327,145.122 1071.841,139.194 C1083.013,133.266 1090.993,124.83 1095.781,113.886 C1098.289,107.958 1099.543,101.061 1099.543,93.195 C1099.543,85.329 1098.061,78.2325 1095.097,71.9055 C1092.133,65.5785 1088.086,60.192 1082.956,55.746 Z" transform="translate(-998 -5.584)"/></svg>