<svg xmlns="http://www.w3.org/2000/svg" width="102" height="152" viewBox="0 0 102 152"><path d="M1261.822,38.133 L1261.48,53.352 L1261.48,122.949 C1261.48,127.965 1261.993,132.8385 1263.019,137.5695 C1264.045,142.3005 1265.47,145.806 1267.294,148.086 C1267.522,148.314 1267.636,148.9125 1267.636,149.8815 C1267.636,150.8505 1267.009,152.1615 1265.755,153.8145 C1264.501,155.4675 1263.19,156.294 1261.822,156.294 C1260.454,156.294 1259.086,155.097 1257.718,152.703 C1254.412,146.889 1252.759,140.22 1252.759,132.696 L1252.759,132.012 C1242.955,148.884 1230.985,157.32 1216.849,157.32 C1208.641,157.32 1201.972,154.3275 1196.842,148.3425 C1191.712,142.3575 1189.147,133.836 1189.147,122.778 C1189.147,109.326 1193.422,97.47 1201.972,87.21 C1205.962,82.422 1210.4935,78.66 1215.5665,75.924 C1220.6395,73.188 1225.912,71.82 1231.384,71.82 C1241.188,71.82 1248.142,75.582 1252.246,83.106 L1252.246,53.181 L1251.904,35.055 C1251.904,34.029 1252.702,33.516 1254.298,33.516 C1255.894,33.516 1257.547,33.9435 1259.257,34.7985 C1260.967,35.6535 1261.822,36.765 1261.822,38.133 Z M1252.246,88.92 C1251.676,89.832 1250.935,90.288 1250.023,90.288 C1249.111,90.288 1248.484,90.003 1248.142,89.433 C1244.152,83.163 1238.623,80.028 1231.555,80.028 C1222.549,80.028 1214.8255,84.474 1208.3845,93.366 C1201.9435,102.258 1198.723,111.549 1198.723,121.239 C1198.723,130.929 1200.5185,137.94 1204.1095,142.272 C1207.7005,146.604 1211.719,148.77 1216.165,148.77 C1224.715,148.77 1232.866,144.5235 1240.618,136.0305 C1248.37,127.5375 1252.246,117.99 1252.246,107.388 L1252.246,88.92 Z" transform="translate(-1177 -5.584)"/></svg>