<svg xmlns="http://www.w3.org/2000/svg" width="99" height="152" viewBox="0 0 99 152"><path d="M19109.682,81.292 C19109.682,75.022 19112.589,71.887 19118.403,71.887 C19120.113,71.887 19121.7945,72.514 19123.4475,73.768 C19125.1005,75.022 19126.4685,76.618 19127.5515,78.556 C19128.6345,80.494 19129.176,82.6315 19129.176,84.9685 C19129.176,87.3055 19128.4065,89.272 19126.8675,90.868 C19125.3285,92.464 19123.191,93.262 19120.455,93.262 C19117.719,93.262 19115.2395,91.9225 19113.0165,89.2435 C19110.7935,86.5645 19109.682,83.914 19109.682,81.292 Z M19076.337,110.362 C19079.757,110.59 19084.431,110.704 19090.359,110.704 L19149.012,110.704 C19152.318,110.704 19156.365,110.533 19161.153,110.191 L19161.324,110.191 C19162.464,110.191 19163.376,110.8465 19164.06,112.1575 C19164.744,113.4685 19165.086,114.979 19165.086,116.689 C19165.086,118.399 19164.288,119.254 19162.692,119.254 L19148.841,118.912 L19090.188,118.912 C19083.576,118.912 19079.244,119.083 19077.192,119.425 L19076.85,119.425 C19075.938,119.425 19075.197,118.8265 19074.627,117.6295 C19074.057,116.4325 19073.772,115.207 19073.772,113.953 C19073.772,111.559 19074.627,110.362 19076.337,110.362 Z M19109.682,145.93 C19109.682,139.66 19112.589,136.525 19118.403,136.525 C19120.113,136.525 19121.7945,137.152 19123.4475,138.406 C19125.1005,139.66 19126.4685,141.256 19127.5515,143.194 C19128.6345,145.132 19129.176,147.2695 19129.176,149.6065 C19129.176,151.9435 19128.4065,153.91 19126.8675,155.506 C19125.3285,157.102 19123.191,157.9 19120.455,157.9 C19117.719,157.9 19115.2395,156.5605 19113.0165,153.8815 C19110.7935,151.2025 19109.682,148.552 19109.682,145.93 Z" transform="translate(-19070 -5.584)"/></svg>