<svg xmlns="http://www.w3.org/2000/svg" width="99" height="152" viewBox="0 0 99 152"><path d="M19434.698,171.428 L19435.04,157.064 C19418.396,156.38 19405.001,150.281 19394.855,138.767 C19394.285,138.197 19394,137.1995 19394,135.7745 C19394,134.3495 19394.6555,132.8105 19395.9665,131.1575 C19397.2775,129.5045 19398.446,128.678 19399.472,128.678 C19400.498,128.678 19401.239,129.077 19401.695,129.875 C19408.193,139.337 19416.458,144.98 19426.49,146.804 C19430.366,147.602 19433.216,148.058 19435.04,148.172 L19435.04,92.426 L19426.661,90.203 C19418.339,87.923 19411.7555,84.959 19406.9105,81.311 C19402.0655,77.663 19399.643,72.134 19399.643,64.724 C19399.643,59.708 19401.1535,54.9485 19404.1745,50.4455 C19407.1955,45.9425 19411.3565,42.1805 19416.6575,39.1595 C19421.9585,36.1385 19428.029,34.286 19434.869,33.602 C19434.641,30.182 19434.527,27.161 19434.527,24.539 C19434.527,23.513 19435.3535,23 19437.0065,23 C19438.6595,23 19440.284,23.342 19441.88,24.026 C19443.476,24.71 19444.274,25.679 19444.274,26.933 L19444.103,33.602 C19449.803,34.058 19455.0185,35.198 19459.7495,37.022 C19464.4805,38.846 19468.271,40.9265 19471.121,43.2635 C19473.971,45.6005 19475.396,47.5955 19475.396,49.2485 C19475.396,50.9015 19474.9685,52.64 19474.1135,54.464 C19473.2585,56.288 19472.375,57.2 19471.463,57.2 C19470.893,57.2 19469.639,56.231 19467.701,54.293 C19462.115,47.909 19454.192,43.976 19443.932,42.494 L19443.932,85.757 L19449.233,87.125 C19460.063,89.975 19468.157,94.193 19473.515,99.779 C19478.873,105.365 19481.552,112.718 19481.552,121.838 C19481.552,127.88 19480.0985,133.409 19477.1915,138.425 C19474.2845,143.441 19470.038,147.5735 19464.452,150.8225 C19458.866,154.0715 19452.026,156.038 19443.932,156.722 L19444.445,174.164 C19444.445,175.076 19443.647,175.532 19442.051,175.532 C19440.455,175.532 19438.8305,175.1615 19437.1775,174.4205 C19435.5245,173.6795 19434.698,172.682 19434.698,171.428 Z M19435.04,42.665 C19430.024,43.349 19425.578,44.8595 19421.702,47.1965 C19417.826,49.5335 19414.8335,52.298 19412.7245,55.49 C19410.6155,58.682 19409.561,62.216 19409.561,66.092 C19409.561,69.968 19411.214,73.1315 19414.52,75.5825 C19417.826,78.0335 19423.298,80.285 19430.936,82.337 L19435.04,83.363 L19435.04,42.665 Z M19443.932,94.82 L19443.932,147.83 C19455.104,146.462 19463.198,142.016 19468.214,134.492 C19470.608,130.958 19471.805,127.196 19471.805,123.206 C19471.805,115.91 19469.81,110.0675 19465.82,105.6785 C19461.83,101.2895 19455.389,97.898 19446.497,95.504 L19443.932,94.82 Z" transform="translate(-19388 -5.584)"/></svg>