<svg xmlns="http://www.w3.org/2000/svg" width="102" height="152" viewBox="0 0 102 152"><path d="M1526.53,120.213 L1526.53,120.726 C1526.53,130.074 1528.6675,137.085 1532.9425,141.759 C1537.2175,146.433 1542.661,148.77 1549.273,148.77 C1555.885,148.77 1562.2405,147.4305 1568.3395,144.7515 C1574.4385,142.0725 1579.768,138.282 1584.328,133.38 C1585.696,131.898 1586.8645,131.157 1587.8335,131.157 C1588.8025,131.157 1589.287,131.6985 1589.287,132.7815 C1589.287,133.8645 1588.432,135.717 1586.722,138.339 C1585.012,140.961 1582.504,143.754 1579.198,146.718 C1570.876,153.786 1560.502,157.32 1548.076,157.32 C1542.262,157.32 1537.0465,155.8665 1532.4295,152.9595 C1527.8125,150.0525 1524.136,145.8915 1521.4,140.4765 C1518.664,135.0615 1517.296,128.649 1517.296,121.239 L1517.296,118.674 C1514.902,117.078 1513.705,115.368 1513.705,113.544 C1513.705,112.176 1514.503,111.492 1516.099,111.492 C1517.695,111.492 1518.493,111.435 1518.493,111.321 C1519.975,102.429 1524.82,93.6225 1533.028,84.9015 C1541.236,76.1805 1550.527,71.82 1560.901,71.82 C1567.855,71.82 1573.384,73.017 1577.488,75.411 C1585.126,79.857 1588.945,86.868 1588.945,96.444 C1588.945,99.75 1588.546,102.486 1587.748,104.652 C1586.95,106.818 1585.3825,108.6705 1583.0455,110.2095 C1580.7085,111.7485 1577.146,113.259 1572.358,114.741 C1560.388,118.389 1545.796,120.213 1528.582,120.213 L1526.53,120.213 Z M1531.318,111.834 C1546.024,111.834 1558.393,110.352 1568.425,107.388 C1574.695,105.564 1578.229,103.512 1579.027,101.232 C1579.483,99.978 1579.711,98.325 1579.711,96.273 C1579.711,91.257 1578.058,87.2955 1574.752,84.3885 C1571.446,81.4815 1567.228,80.028 1562.098,80.028 C1553.092,80.028 1545.4255,83.6475 1539.0985,90.8865 C1532.7715,98.1255 1528.981,105.108 1527.727,111.834 L1531.318,111.834 Z" transform="translate(-1501 -5.584)"/></svg>