<svg xmlns="http://www.w3.org/2000/svg" width="98" height="152" viewBox="0 0 98 152"><path d="M17777.344,91.143 C17780.764,91.371 17785.438,91.485 17791.366,91.485 L17840.443,91.485 C17843.749,91.485 17847.796,91.314 17852.584,90.972 L17852.755,90.972 C17853.895,90.972 17854.807,91.6275 17855.491,92.9385 C17856.175,94.2495 17856.517,95.76 17856.517,97.47 C17856.517,99.18 17855.719,100.035 17854.123,100.035 L17840.272,99.693 L17791.195,99.693 C17784.583,99.693 17780.251,99.864 17778.199,100.206 L17777.857,100.206 C17776.945,100.206 17776.204,99.6075 17775.634,98.4105 C17775.064,97.2135 17774.779,95.988 17774.779,94.734 C17774.779,92.34 17775.634,91.143 17777.344,91.143 Z M17777.344,123.633 C17780.764,123.861 17785.438,123.975 17791.366,123.975 L17840.443,123.975 C17843.749,123.975 17847.796,123.804 17852.584,123.462 L17852.755,123.462 C17853.895,123.462 17854.807,124.1175 17855.491,125.4285 C17856.175,126.7395 17856.517,128.25 17856.517,129.96 C17856.517,131.67 17855.719,132.525 17854.123,132.525 L17840.272,132.183 L17791.195,132.183 C17784.583,132.183 17780.251,132.354 17778.199,132.696 L17777.857,132.696 C17776.945,132.696 17776.204,132.0975 17775.634,130.9005 C17775.064,129.7035 17774.779,128.478 17774.779,127.224 C17774.779,124.83 17775.634,123.633 17777.344,123.633 Z" transform="translate(-17767 -5.584)"/></svg>