<svg xmlns="http://www.w3.org/2000/svg" width="54" height="152" viewBox="0 0 54 152"><path d="M14688.4,35.739 C14688.4,33.915 14689.369,33.003 14691.307,33.003 C14693.245,33.003 14695.1545,33.516 14697.0355,34.542 C14698.9165,35.568 14699.857,36.708 14699.857,37.962 L14699.857,38.304 C14699.743,40.128 14699.572,42.0945 14699.344,44.2035 C14699.116,46.3125 14698.945,48.393 14698.831,50.445 L14697.463,116.451 L14697.463,125.001 C14697.463,125.799 14696.8075,126.198 14695.4965,126.198 C14694.1855,126.198 14692.8175,125.856 14691.3925,125.172 C14689.9675,124.488 14689.255,123.633 14689.255,122.607 L14689.255,122.436 C14689.483,120.612 14689.597,118.389 14689.597,115.767 L14689.255,49.59 C14689.255,44.004 14688.97,39.501 14688.4,36.081 L14688.4,35.739 Z M14694.385,155.439 C14692.105,155.439 14690.0815,154.3845 14688.3145,152.2755 C14686.5475,150.1665 14685.664,148.0005 14685.664,145.7775 C14685.664,143.5545 14686.2625,141.759 14687.4595,140.391 C14688.6565,139.023 14690.338,138.339 14692.504,138.339 C14694.67,138.339 14696.665,139.422 14698.489,141.588 C14700.313,143.754 14701.225,145.977 14701.225,148.257 C14701.225,153.045 14698.945,155.439 14694.385,155.439 Z" transform="translate(-14667 -5.584)"/></svg>