<svg xmlns="http://www.w3.org/2000/svg" width="94" height="152" viewBox="0 0 94 152"><path d="M1677.523,46.17 L1676.839,37.62 C1676.839,36.024 1677.523,35.226 1678.891,35.226 C1680.715,35.226 1682.653,35.625 1684.705,36.423 L1687.783,37.62 L1734.295,34.542 C1736.917,34.314 1739.6815,34.029 1742.5885,33.687 C1745.4955,33.345 1747.576,33.174 1748.83,33.174 C1750.084,33.174 1751.2525,34.0575 1752.3355,35.8245 C1753.4185,37.5915 1753.96,39.216 1753.96,40.698 C1753.96,42.18 1753.333,42.921 1752.079,42.921 C1752.079,42.921 1748.545,42.921 1741.477,42.921 C1738.399,42.921 1736.062,42.978 1734.466,43.092 L1687.441,46.17 L1687.441,86.697 L1724.89,84.474 C1727.512,84.246 1730.2765,83.961 1733.1835,83.619 C1736.0905,83.277 1738.171,83.106 1739.425,83.106 C1740.679,83.106 1741.8475,83.9895 1742.9305,85.7565 C1744.0135,87.5235 1744.555,89.148 1744.555,90.63 C1744.555,92.112 1743.928,92.853 1742.674,92.853 L1731.901,92.853 C1728.937,92.853 1726.657,92.91 1725.061,93.024 L1687.441,95.076 L1687.441,136.287 L1687.954,154.413 C1687.954,155.553 1687.0705,156.123 1685.3035,156.123 C1683.5365,156.123 1681.741,155.6955 1679.917,154.8405 C1678.093,153.9855 1677.181,152.817 1677.181,151.335 L1677.523,136.116 L1677.523,95.247 C1676.269,94.563 1675.1575,93.4515 1674.1885,91.9125 C1673.2195,90.3735 1672.735,89.091 1672.735,88.065 C1672.735,87.039 1673.134,86.526 1673.932,86.526 L1674.274,86.526 C1675.414,86.754 1676.497,86.868 1677.523,86.868 L1677.523,46.17 Z" transform="translate(-1667 -5.584)"/></svg>