<svg xmlns="http://www.w3.org/2000/svg" width="64" height="152" viewBox="0 0 64 152"><path d="M1837.237,151.677 L1837.579,134.748 L1837.579,80.712 L1834.159,80.883 C1831.651,80.997 1829.2,81.168 1826.806,81.396 L1823.215,81.567 C1821.733,81.567 1820.479,80.7975 1819.453,79.2585 C1818.427,77.7195 1817.914,76.38 1817.914,75.24 C1817.914,74.1 1818.484,73.53 1819.624,73.53 L1832.278,73.53 L1837.579,73.359 L1837.579,53.865 C1837.579,47.367 1839.517,42.408 1843.393,38.988 C1847.269,35.568 1851.658,33.858 1856.56,33.858 C1864.084,33.858 1870.012,36.423 1874.344,41.553 C1874.914,42.123 1875.199,43.035 1875.199,44.289 C1875.199,45.543 1874.743,46.968 1873.831,48.564 C1872.919,50.16 1871.9215,50.958 1870.8385,50.958 C1869.7555,50.958 1868.701,50.0175 1867.675,48.1365 C1866.649,46.2555 1864.996,44.8875 1862.716,44.0325 C1860.436,43.1775 1858.2415,42.75 1856.1325,42.75 C1854.0235,42.75 1851.943,43.662 1849.891,45.486 C1847.839,47.31 1846.813,50.046 1846.813,53.694 L1846.813,73.017 L1851.601,72.846 C1852.969,72.732 1854.6505,72.618 1856.6455,72.504 C1858.6405,72.39 1860.55,72.2475 1862.374,72.0765 C1864.198,71.9055 1865.509,71.82 1866.307,71.82 L1866.478,71.82 C1867.846,71.82 1869.043,72.5325 1870.069,73.9575 C1871.095,75.3825 1871.608,76.7505 1871.608,78.0615 C1871.608,79.3725 1871.038,80.028 1869.898,80.028 C1869.898,80.028 1866.649,80.028 1860.151,80.028 C1857.187,80.028 1854.964,80.085 1853.482,80.199 L1846.813,80.541 L1846.813,136.629 L1847.326,154.755 C1847.326,155.781 1846.528,156.294 1844.932,156.294 C1843.336,156.294 1841.6545,155.8665 1839.8875,155.0115 C1838.1205,154.1565 1837.237,153.045 1837.237,151.677 Z" transform="translate(-1814 -5.584)"/></svg>