<svg xmlns="http://www.w3.org/2000/svg" width="118" height="152" viewBox="0 0 118 152"><path d="M2053.723,142.443 C2053.837,144.495 2053.9225,146.547 2053.9795,148.599 C2054.0365,150.651 2054.065,152.304 2054.065,153.558 C2054.065,154.812 2053.153,155.439 2051.329,155.439 C2049.505,155.439 2047.795,155.0685 2046.199,154.3275 C2044.603,153.5865 2043.805,152.76 2043.805,151.848 L2043.805,151.677 C2044.375,145.179 2044.66,137.655 2044.66,129.105 C2042.038,135.489 2038.3045,140.7615 2033.4595,144.9225 C2028.6145,149.0835 2023.342,152.1615 2017.642,154.1565 C2011.942,156.1515 2006.47,157.149 2001.226,157.149 C1979.11,157.149 1963.606,149.796 1954.714,135.09 C1950.04,127.338 1947.703,117.876 1947.703,106.704 C1947.703,95.532 1949.185,85.6995 1952.149,77.2065 C1955.113,68.7135 1959.274,61.1325 1964.632,54.4635 C1969.99,47.7945 1976.317,42.5505 1983.613,38.7315 C1990.909,34.9125 1998.376,33.003 2006.014,33.003 C2024.71,33.003 2037.934,37.791 2045.686,47.367 C2046.142,47.823 2046.37,48.6495 2046.37,49.8465 C2046.37,51.0435 2045.7145,52.4115 2044.4035,53.9505 C2043.0925,55.4895 2041.8385,56.259 2040.6415,56.259 C2039.4445,56.259 2038.675,55.974 2038.333,55.404 C2036.965,52.896 2034.571,50.445 2031.151,48.051 C2025.109,43.947 2017.927,41.895 2009.605,41.895 C1994.557,41.895 1982.131,48.051 1972.327,60.363 C1962.523,72.675 1957.621,87.267 1957.621,104.139 C1957.621,124.431 1964.575,137.598 1978.483,143.64 C1984.981,146.604 1991.593,148.086 1998.319,148.086 C2010.859,148.086 2021.461,144.21 2030.125,136.458 C2039.701,127.566 2044.489,115.824 2044.489,101.232 C2044.489,100.662 2044.147,100.377 2043.463,100.377 L2023.114,101.745 C2020.72,101.859 2016.445,102.315 2010.289,103.113 L2009.776,103.113 C2008.294,103.113 2006.8975,102.201 2005.5865,100.377 C2004.2755,98.553 2003.62,96.957 2003.62,95.589 C2003.62,94.221 2004.247,93.537 2005.501,93.537 L2007.895,93.537 C2012.911,93.537 2016.901,93.423 2019.865,93.195 L2041.069,91.998 C2041.981,91.884 2042.95,91.7415 2043.976,91.5705 C2045.002,91.3995 2045.971,91.314 2046.883,91.314 C2047.795,91.314 2048.821,91.77 2049.961,92.682 C2053.039,94.962 2054.578,96.672 2054.578,97.812 C2054.578,98.952 2054.4355,99.7785 2054.1505,100.2915 C2053.8655,100.8045 2053.723,101.688 2053.723,102.942 L2053.723,137.997 C2053.723,138.909 2053.723,140.391 2053.723,142.443 Z" transform="translate(-1942 -5.584)"/></svg>