<svg xmlns="http://www.w3.org/2000/svg" width="102" height="152" viewBox="0 0 102 152"><path d="M2210.017,76.437 C2209.561,85.101 2209.333,90.744 2209.333,93.366 L2209.333,146.034 C2209.333,154.242 2207.4235,161.196 2203.6045,166.896 C2199.7855,172.596 2194.7125,176.8995 2188.3855,179.8065 C2182.0585,182.7135 2175.4465,184.167 2168.5495,184.167 C2161.6525,184.167 2156.209,183.3405 2152.219,181.6875 C2148.229,180.0345 2145.1225,178.125 2142.8995,175.959 C2140.6765,173.793 2139.109,171.8265 2138.197,170.0595 C2137.285,168.2925 2136.829,167.352 2136.829,167.238 C2136.829,165.756 2137.513,164.274 2138.881,162.792 C2140.249,161.31 2141.503,160.569 2142.643,160.569 C2143.783,160.569 2144.581,161.139 2145.037,162.279 C2147.203,167.067 2150.0245,170.4585 2153.5015,172.4535 C2156.9785,174.4485 2161.681,175.446 2167.609,175.446 C2180.377,175.446 2189.725,171.114 2195.653,162.45 C2198.617,158.004 2200.099,152.475 2200.099,145.863 L2200.099,131.67 C2195.539,139.65 2190.1525,145.2075 2183.9395,148.3425 C2177.7265,151.4775 2171.542,153.045 2165.386,153.045 C2156.494,153.045 2149.3975,150.1095 2144.0965,144.2385 C2138.7955,138.3675 2136.145,129.675 2136.145,118.161 C2136.145,106.647 2140.192,96.102 2148.286,86.526 C2152.048,82.08 2156.4085,78.5175 2161.3675,75.8385 C2166.3265,73.1595 2171.371,71.82 2176.501,71.82 C2188.129,71.82 2195.995,76.209 2200.099,84.987 L2199.928,73.359 C2199.928,72.333 2200.7545,71.82 2202.4075,71.82 C2204.0605,71.82 2205.742,72.2475 2207.452,73.1025 C2209.162,73.9575 2210.017,75.012 2210.017,76.266 L2210.017,76.437 Z M2200.099,87.894 C2199.073,89.604 2198.0755,90.459 2197.1065,90.459 C2196.1375,90.459 2195.425,90.174 2194.969,89.604 C2190.181,83.334 2183.911,80.199 2176.159,80.199 C2168.407,80.199 2161.396,84.2745 2155.126,92.4255 C2148.856,100.5765 2145.721,109.2405 2145.721,118.4175 C2145.721,127.5945 2147.5165,134.235 2151.1075,138.339 C2154.6985,142.443 2159.059,144.495 2164.189,144.495 C2174.563,144.495 2183.683,140.22 2191.549,131.67 C2197.021,125.514 2199.871,117.762 2200.099,108.414 L2200.099,87.894 Z" transform="translate(-2124 -5.584)"/></svg>