<svg xmlns="http://www.w3.org/2000/svg" width="91" height="152" viewBox="0 0 91 152"><path d="M18328.648,113.373 C18307.786,102.657 18293.3935,94.905 18285.4705,90.117 C18277.5475,85.329 18272.731,82.479 18271.021,81.567 C18269.995,80.769 18269.482,79.401 18269.482,77.463 C18269.482,72.903 18270.337,70.623 18272.047,70.623 C18272.503,70.623 18274.042,71.592 18276.664,73.53 C18282.934,78.318 18293.308,84.8445 18307.786,93.1095 C18322.264,101.3745 18330.2725,105.6495 18331.8115,105.9345 C18333.3505,106.2195 18334.576,106.6185 18335.488,107.1315 C18336.4,107.6445 18337.1695,108.7845 18337.7965,110.5515 C18338.4235,112.3185 18338.737,113.8575 18338.737,115.1685 C18338.737,116.4795 18338.5375,117.5055 18338.1385,118.2465 C18337.7395,118.9875 18336.742,119.6145 18335.146,120.1275 C18333.55,120.6405 18332.125,121.2105 18330.871,121.8375 C18329.617,122.4645 18327.394,123.576 18324.202,125.172 C18300.49,137.712 18283.561,148.086 18273.415,156.294 C18272.959,156.636 18272.503,156.807 18272.047,156.807 C18271.021,156.807 18270.166,156.066 18269.482,154.584 C18268.798,153.102 18268.456,151.4775 18268.456,149.7105 C18268.456,147.9435 18268.969,146.832 18269.995,146.376 C18273.871,144.21 18277.804,141.93 18281.794,139.536 C18298.894,129.162 18314.512,120.441 18328.648,113.373 Z" transform="translate(-18267 -5.584)"/></svg>