<svg xmlns="http://www.w3.org/2000/svg" width="62" height="152" viewBox="0 0 62 152"><path d="M16140.532,107.559 C16143.838,107.559 16147.885,107.445 16152.673,107.217 L16152.844,107.217 C16153.756,107.217 16154.5255,107.8155 16155.1525,109.0125 C16155.7795,110.2095 16156.093,111.6915 16156.093,113.4585 C16156.093,115.2255 16155.295,116.109 16153.699,116.109 L16140.361,115.767 L16119.841,115.767 C16113.457,115.767 16109.239,115.938 16107.187,116.28 L16106.845,116.28 C16105.933,116.28 16105.192,115.6815 16104.622,114.4845 C16104.052,113.2875 16103.767,112.062 16103.767,110.808 C16103.767,108.414 16104.622,107.217 16106.332,107.217 C16109.752,107.445 16114.312,107.559 16120.012,107.559 L16140.532,107.559 Z" transform="translate(-16099 -5.584)"/></svg>