<svg xmlns="http://www.w3.org/2000/svg" width="62" height="152" viewBox="0 0 62 152"><path d="M2642.989,154.755 C2642.077,154.755 2641.051,154.2705 2639.911,153.3015 C2638.771,152.3325 2638.144,151.221 2638.03,149.967 C2638.03,147.801 2638.6,146.718 2639.74,146.718 C2644.186,146.718 2648.062,146.661 2651.368,146.547 C2651.596,141.645 2651.71,124.488 2651.71,95.076 C2651.71,66.006 2651.596,48.564 2651.368,42.75 C2647.378,42.978 2644.699,43.092 2643.331,43.092 C2642.419,43.092 2641.393,42.579 2640.253,41.553 C2639.113,40.527 2638.486,39.444 2638.372,38.304 C2638.372,36.138 2638.942,35.055 2640.082,35.055 C2650.798,34.827 2661.514,34.428 2672.23,33.858 C2673.028,33.858 2673.883,34.3425 2674.795,35.3115 C2675.707,36.2805 2676.163,37.506 2676.163,38.988 C2676.163,40.926 2675.65,41.895 2674.624,41.895 L2662.996,42.237 L2662.825,52.839 L2662.825,101.061 C2662.825,127.509 2662.882,142.5 2662.996,146.034 C2667.328,145.692 2670.52,145.521 2672.572,145.521 C2673.37,145.521 2674.225,146.0055 2675.137,146.9745 C2676.049,147.9435 2676.505,149.169 2676.505,150.651 C2676.505,152.589 2675.992,153.558 2674.966,153.558 C2656.612,154.128 2645.953,154.527 2642.989,154.755 Z" transform="translate(-2625 -5.584)"/></svg>