<svg xmlns="http://www.w3.org/2000/svg" width="78" height="152" viewBox="0 0 78 152"><path d="M2919.667,38.817 L2919.325,54.036 L2919.325,124.317 C2919.325,140.163 2914.309,150.138 2904.277,154.242 C2899.717,156.18 2894.758,157.149 2889.4,157.149 C2884.042,157.149 2879.311,156.18 2875.207,154.242 C2871.103,152.304 2867.7115,149.967 2865.0325,147.231 C2862.3535,144.495 2860.3585,141.8445 2859.0475,139.2795 C2857.7365,136.7145 2857.081,134.6055 2857.081,132.9525 C2857.081,131.2995 2857.936,129.5895 2859.646,127.8225 C2861.356,126.0555 2862.838,125.172 2864.092,125.172 C2865.346,125.172 2866.03,125.742 2866.144,126.882 C2867.398,132.696 2870.1055,137.598 2874.2665,141.588 C2878.4275,145.578 2883.358,147.573 2889.058,147.573 C2896.81,147.573 2902.567,144.438 2906.329,138.168 C2908.381,134.634 2909.407,129.846 2909.407,123.804 L2909.407,53.865 L2908.894,35.739 C2908.894,34.599 2909.7775,34.029 2911.5445,34.029 C2913.3115,34.029 2915.107,34.4565 2916.931,35.3115 C2918.755,36.1665 2919.667,37.335 2919.667,38.817 Z" transform="translate(-2851 -5.584)"/></svg>