<svg xmlns="http://www.w3.org/2000/svg" width="40" height="152" viewBox="0 0 40 152"><path d="M3021.07,42.579 C3021.07,37.905 3023.236,35.568 3027.568,35.568 C3029.506,35.568 3031.33,36.5655 3033.04,38.5605 C3034.75,40.5555 3035.605,42.693 3035.605,44.973 C3035.605,49.419 3033.496,51.642 3029.278,51.642 C3027.112,51.642 3025.2025,50.6445 3023.5495,48.6495 C3021.8965,46.6545 3021.07,44.631 3021.07,42.579 Z M3033.382,76.437 L3033.04,92.34 L3033.04,159.714 C3033.04,167.922 3030.931,174.135 3026.713,178.353 C3024.205,180.747 3020.3005,181.944 3014.9995,181.944 C3009.6985,181.944 3005.5945,180.9465 3002.6875,178.9515 C2999.7805,176.9565 2998.327,175.218 2998.327,173.736 C2998.327,172.254 2998.783,170.772 2999.695,169.29 C3000.607,167.808 3001.576,167.067 3002.602,167.067 C3003.628,167.067 3004.768,167.808 3006.022,169.29 C3008.074,171.798 3011.152,173.052 3015.256,173.052 C3019.36,173.052 3021.982,170.544 3023.122,165.528 C3023.578,163.476 3023.806,161.595 3023.806,159.885 L3023.806,92.34 L3023.293,73.359 C3023.293,72.333 3024.1195,71.82 3025.7725,71.82 C3027.4255,71.82 3029.107,72.2475 3030.817,73.1025 C3032.527,73.9575 3033.382,75.069 3033.382,76.437 Z" transform="translate(-2998 -5.584)"/></svg>