<svg xmlns="http://www.w3.org/2000/svg" width="94" height="152" viewBox="0 0 94 152"><path d="M3292.618,151.506 L3292.96,136.458 L3292.96,53.694 L3292.447,35.397 C3292.447,34.371 3293.2735,33.858 3294.9265,33.858 C3296.5795,33.858 3298.261,34.2855 3299.971,35.1405 C3301.681,35.9955 3302.536,37.107 3302.536,38.475 L3302.194,53.694 L3302.194,103.113 L3335.881,79.515 C3338.047,78.033 3340.555,75.867 3343.405,73.017 C3344.089,72.333 3345.229,71.991 3346.825,71.991 C3348.421,71.991 3350.188,72.447 3352.126,73.359 C3354.064,74.271 3355.033,75.24 3355.033,76.266 C3355.033,76.722 3353.323,78.0615 3349.903,80.2845 C3346.483,82.5075 3343.804,84.303 3341.866,85.671 L3315.532,104.31 C3318.838,107.502 3324.0535,112.8885 3331.1785,120.4695 C3338.3035,128.0505 3345.628,135.603 3353.152,143.127 C3356.002,145.977 3359.308,148.2 3363.07,149.796 C3363.754,150.138 3364.096,150.7365 3364.096,151.5915 C3364.096,152.4465 3363.2125,153.5295 3361.4455,154.8405 C3359.6785,156.1515 3358.225,156.807 3357.085,156.807 C3355.945,156.807 3354.3205,155.952 3352.2115,154.242 C3350.1025,152.532 3347.965,150.5655 3345.799,148.3425 C3343.633,146.1195 3340.954,143.298 3337.762,139.878 C3326.59,127.908 3316.729,117.762 3308.179,109.44 L3302.194,113.373 L3302.194,136.458 L3302.707,154.584 C3302.707,155.61 3301.909,156.123 3300.313,156.123 C3298.717,156.123 3297.0355,155.6955 3295.2685,154.8405 C3293.5015,153.9855 3292.618,152.874 3292.618,151.506 Z" transform="translate(-3279 -5.584)"/></svg>