<svg xmlns="http://www.w3.org/2000/svg" width="90" height="152" viewBox="0 0 90 152"><path d="M3452.332,145.863 C3465.442,145.293 3476.386,145.008 3485.164,145.008 L3502.264,145.008 C3505,145.008 3507.109,144.951 3508.591,144.837 L3508.762,144.837 C3510.244,144.837 3511.498,145.7775 3512.524,147.6585 C3513.55,149.5395 3514.063,151.2495 3514.063,152.7885 C3514.063,154.3275 3513.55,155.097 3512.524,155.097 L3512.182,155.097 C3507.736,154.413 3501.865,154.071 3494.569,154.071 L3487.558,154.071 C3467.038,154.071 3453.928,154.641 3448.228,155.781 L3447.715,155.781 C3446.233,155.781 3444.7795,154.812 3443.3545,152.874 C3441.9295,150.936 3441.217,149.4825 3441.217,148.5135 C3441.217,147.5445 3441.4165,146.661 3441.8155,145.863 C3442.2145,145.065 3442.414,143.982 3442.414,142.614 L3442.414,53.865 L3441.901,35.739 C3441.901,34.599 3442.7845,34.029 3444.5515,34.029 C3446.3185,34.029 3448.114,34.4565 3449.938,35.3115 C3451.762,36.1665 3452.674,37.335 3452.674,38.817 L3452.332,54.036 L3452.332,145.863 Z" transform="translate(-3432 -5.584)"/></svg>