<svg xmlns="http://www.w3.org/2000/svg" width="54" height="152" viewBox="0 0 54 152"><path d="M15899.593,179.379 C15897.997,179.379 15896.059,179.607 15893.779,180.063 C15892.411,180.063 15891.157,179.3505 15890.017,177.9255 C15888.877,176.5005 15888.307,175.218 15888.307,174.078 L15888.82,163.305 L15888.82,38.646 L15887.965,28.728 C15887.965,27.132 15888.421,25.992 15889.333,25.308 C15890.245,24.624 15892.126,24.282 15894.976,24.282 L15911.734,23.94 L15912.076,23.94 C15913.33,23.94 15914.3845,24.5385 15915.2395,25.7355 C15916.0945,26.9325 15916.522,28.158 15916.522,29.412 C15916.522,31.008 15915.781,31.806 15914.299,31.806 L15897.541,31.806 L15897.541,172.026 C15906.433,171.684 15911.3065,171.513 15912.1615,171.513 C15913.0165,171.513 15913.9,172.14 15914.812,173.394 C15915.724,174.648 15916.18,175.845 15916.18,176.985 C15916.18,178.581 15915.439,179.379 15913.957,179.379 L15899.593,179.379 Z" transform="translate(-15863 -5.584)"/></svg>