<svg xmlns="http://www.w3.org/2000/svg" width="54" height="152" viewBox="0 0 54 152"><path d="M15363.337,74.385 C15363.337,87.723 15358.948,96.729 15350.17,101.403 C15354.616,102.429 15357.922,104.88 15360.088,108.756 C15362.254,112.632 15363.337,116.907 15363.337,121.581 C15363.337,130.587 15362.9095,138.0255 15362.0545,143.8965 C15361.1995,149.7675 15360.772,153.558 15360.772,155.268 C15360.772,160.17 15362.14,164.3025 15364.876,167.6655 C15367.612,171.0285 15371.431,174.135 15376.333,176.985 C15377.473,177.783 15378.043,178.7235 15378.043,179.8065 C15378.043,180.8895 15377.359,181.431 15375.991,181.431 C15375.421,181.431 15373.9105,181.0605 15371.4595,180.3195 C15369.0085,179.5785 15366.301,178.2675 15363.337,176.3865 C15360.373,174.5055 15357.7795,171.855 15355.5565,168.435 C15353.3335,165.015 15352.222,161.082 15352.222,156.636 C15352.222,152.19 15352.6495,147.4305 15353.5045,142.3575 C15354.3595,137.2845 15354.787,132.0405 15354.787,126.6255 C15354.787,121.2105 15354.388,117.192 15353.59,114.57 C15351.766,108.3 15347.206,104.937 15339.91,104.481 C15338.542,104.367 15337.402,103.683 15336.49,102.429 C15335.578,101.175 15335.122,99.978 15335.122,98.838 C15335.122,97.128 15335.92,96.273 15337.516,96.273 L15339.397,96.273 C15349.543,96.273 15354.616,88.806 15354.616,73.872 L15353.59,47.025 C15353.59,39.273 15357.124,32.832 15364.192,27.702 C15367.042,25.65 15369.607,24.1395 15371.887,23.1705 C15374.167,22.2015 15375.478,21.717 15375.82,21.717 C15377.302,21.717 15378.043,22.458 15378.043,23.94 C15378.043,24.966 15377.53,25.821 15376.504,26.505 C15367.042,31.749 15362.311,38.703 15362.311,47.367 L15363.337,74.385 Z" transform="translate(-15324 -5.584)"/></svg>