<svg xmlns="http://www.w3.org/2000/svg" width="54" height="152" viewBox="0 0 54 152"><path d="M15614.878,178.524 C15614.878,180.462 15614.023,181.431 15612.313,181.431 C15611.287,181.431 15609.52,180.234 15607.012,177.84 C15600.742,171.798 15594.4435,162.2505 15588.1165,149.1975 C15581.7895,136.1445 15578.626,121.923 15578.626,106.533 C15578.626,91.143 15581.533,75.411 15587.347,59.337 C15593.161,43.263 15600.913,30.381 15610.603,20.691 C15611.287,20.007 15612.085,19.665 15612.997,19.665 C15613.909,19.665 15614.6785,19.9215 15615.3055,20.4345 C15615.9325,20.9475 15616.246,21.5175 15616.246,22.1445 C15616.246,22.7715 15615.961,23.484 15615.391,24.282 C15606.955,34.2 15600.457,47.0535 15595.897,62.8425 C15591.337,78.6315 15589.057,92.739 15589.057,105.165 C15589.057,117.591 15591.28,130.6155 15595.726,144.2385 C15600.172,157.8615 15606.1,168.264 15613.51,175.446 C15614.422,176.358 15614.878,177.384 15614.878,178.524 Z" transform="translate(-15563 -5.584)"/></svg>