<svg xmlns="http://www.w3.org/2000/svg" width="144" height="152" viewBox="0 0 144 152"><path d="M3807.67,38.817 L3806.815,45.999 L3806.815,47.196 C3813.541,108.87 3818.329,143.64 3821.179,151.506 L3821.35,152.19 C3821.35,153.216 3820.609,154.014 3819.127,154.584 C3817.645,155.154 3816.163,155.439 3814.681,155.439 C3811.261,155.439 3809.437,154.527 3809.209,152.703 C3808.867,144.381 3807.499,130.758 3805.105,111.834 C3802.711,92.91 3801.0295,79.23 3800.0605,70.794 C3799.0915,62.358 3798.208,54.72 3797.41,47.88 C3797.068,48.45 3796.156,50.3595 3794.674,53.6085 C3793.192,56.8575 3791.311,60.9045 3789.031,65.7495 C3786.751,70.5945 3784.3,75.8955 3781.678,81.6525 C3779.056,87.4095 3776.434,93.1665 3773.812,98.9235 C3771.19,104.6805 3768.169,111.5775 3764.749,119.6145 C3761.329,127.6515 3759.5905,132.297 3759.5335,133.551 C3759.4765,134.805 3758.65,135.888 3757.054,136.8 C3755.458,137.712 3753.634,138.168 3751.582,138.168 C3749.53,138.168 3748.276,137.256 3747.82,135.432 C3746.452,130.872 3745.084,127.11 3743.716,124.146 C3740.524,116.964 3735.451,105.0225 3728.497,88.3215 C3721.543,71.6205 3716.413,58.824 3713.107,49.932 C3711.397,64.41 3709.915,76.7505 3708.661,86.9535 C3707.407,97.1565 3706.381,105.735 3705.583,112.689 C3703.189,133.551 3701.764,146.832 3701.308,152.532 C3701.08,154.584 3698.344,155.61 3693.1,155.61 C3690.82,155.61 3689.68,154.926 3689.68,153.558 L3689.68,153.045 C3692.872,141.759 3697.09,111.663 3702.334,62.757 C3702.904,57.399 3703.36,53.124 3703.702,49.932 L3704.044,45.315 L3703.873,41.211 L3703.873,40.356 C3703.873,38.76 3704.899,37.4205 3706.951,36.3375 C3709.003,35.2545 3710.9125,34.713 3712.6795,34.713 C3714.4465,34.713 3715.615,35.0265 3716.185,35.6535 C3716.755,36.2805 3718.009,38.988 3719.947,43.776 C3736.021,83.334 3747.136,110.01 3753.292,123.804 C3766.972,91.884 3780.31,62.358 3793.306,35.226 C3793.99,33.858 3795.073,33.174 3796.555,33.174 C3798.037,33.174 3799.576,33.516 3801.172,34.2 C3805.504,35.796 3807.67,37.335 3807.67,38.817 Z" transform="translate(-3684 -5.584)"/></svg>