<svg xmlns="http://www.w3.org/2000/svg" width="127" height="152" viewBox="0 0 127 152"><path d="M4002.097,151.677 L4002.439,136.629 L4002.439,104.481 C4002.439,97.527 4001.0425,91.77 3998.2495,87.21 C3995.4565,82.65 3991.495,80.37 3986.365,80.37 C3982.831,80.37 3979.2115,81.681 3975.5065,84.303 C3971.8015,86.925 3968.6665,90.3735 3966.1015,94.6485 C3963.5365,98.9235 3962.254,103.626 3962.254,108.756 L3962.254,136.629 L3962.767,154.755 C3962.767,155.781 3961.969,156.294 3960.373,156.294 C3958.777,156.294 3957.124,155.8665 3955.414,155.0115 C3953.704,154.1565 3952.849,153.045 3952.849,151.677 L3953.191,136.629 L3953.191,104.481 C3953.191,97.755 3952.2505,92.055 3950.3695,87.381 C3948.4885,82.707 3944.698,80.37 3938.998,80.37 C3933.298,80.37 3927.997,83.106 3923.095,88.578 C3920.245,91.77 3918.022,96.0735 3916.426,101.4885 C3914.83,106.9035 3913.9465,112.6605 3913.7755,118.7595 C3913.6045,124.8585 3913.462,130.815 3913.348,136.629 L3913.861,154.755 C3913.861,155.781 3913.063,156.294 3911.467,156.294 C3909.871,156.294 3908.1895,155.8665 3906.4225,155.0115 C3904.6555,154.1565 3903.772,153.045 3903.772,151.677 L3904.114,136.629 L3904.114,93.708 L3903.601,73.872 C3903.601,72.846 3904.4275,72.333 3906.0805,72.333 C3907.7335,72.333 3909.415,72.7605 3911.125,73.6155 C3912.835,74.4705 3913.69,75.582 3913.69,76.95 C3913.69,78.318 3913.6615,80.2275 3913.6045,82.6785 C3913.5475,85.1295 3913.519,87.666 3913.519,90.288 C3915.799,84.588 3919.4185,80.085 3924.3775,76.779 C3929.3365,73.473 3934.78,71.82 3940.708,71.82 C3946.636,71.82 3951.2245,73.5015 3954.4735,76.8645 C3957.7225,80.2275 3959.746,84.075 3960.544,88.407 C3963.394,83.049 3967.2415,78.945 3972.0865,76.095 C3976.9315,73.245 3982.09,71.82 3987.562,71.82 C3993.034,71.82 3997.537,73.416 4001.071,76.608 C4008.139,82.65 4011.673,91.713 4011.673,103.797 L4011.673,136.629 L4012.186,154.755 C4012.186,155.781 4011.388,156.294 4009.792,156.294 C4008.196,156.294 4006.5145,155.8665 4004.7475,155.0115 C4002.9805,154.1565 4002.097,153.045 4002.097,151.677 Z" transform="translate(-3895 -5.584)"/></svg>