<svg xmlns="http://www.w3.org/2000/svg" width="99" height="152" viewBox="0 0 99 152"><path d="M18897.642,119.99 L18873.531,144.101 C18872.391,145.127 18870.396,147.2075 18867.546,150.3425 C18864.696,153.4775 18862.8435,155.045 18861.9885,155.045 C18861.1335,155.045 18860.193,154.304 18859.167,152.822 C18858.141,151.34 18857.628,150.0005 18857.628,148.8035 C18857.628,147.6065 18858.198,146.495 18859.338,145.469 C18863.784,141.707 18866.805,139.028 18868.401,137.432 L18891.828,114.176 L18868.572,90.749 C18864.24,86.303 18860.763,83.111 18858.141,81.173 C18857.571,80.717 18857.286,79.919 18857.286,78.779 C18857.286,77.639 18857.742,76.2995 18858.654,74.7605 C18859.566,73.2215 18860.3925,72.452 18861.1335,72.452 C18861.8745,72.452 18862.473,72.6515 18862.929,73.0505 C18863.385,73.4495 18864.411,74.4755 18866.007,76.1285 C18867.603,77.7815 18870.225,80.489 18873.873,84.251 L18897.642,108.191 L18920.385,85.448 C18924.033,81.686 18926.826,78.8075 18928.764,76.8125 C18930.702,74.8175 18931.899,73.82 18932.355,73.82 C18933.609,73.82 18934.692,74.561 18935.604,76.043 C18936.516,77.525 18936.972,78.836 18936.972,79.976 C18936.972,81.116 18936.573,82.028 18935.775,82.712 C18933.381,84.536 18930.018,87.614 18925.686,91.946 L18903.627,114.005 L18925.857,136.235 C18926.997,137.375 18930.303,140.339 18935.775,145.127 C18936.345,145.583 18936.63,146.438 18936.63,147.692 C18936.63,148.946 18936.1455,150.314 18935.1765,151.796 C18934.2075,153.278 18933.324,154.019 18932.526,154.019 C18931.728,154.019 18930.0465,152.594 18927.4815,149.744 C18924.9165,146.894 18922.665,144.614 18920.727,142.904 L18897.642,119.99 Z" transform="translate(-18848 -5.584)"/></svg>