<svg xmlns="http://www.w3.org/2000/svg" width="130" height="152" viewBox="0 0 130 152"><path d="M16975.696,153.387 L16975.696,153.045 C16976.038,151.563 16976.4655,149.8245 16976.9785,147.8295 C16977.4915,145.8345 16977.862,143.868 16978.09,141.93 L16981.339,118.332 L16952.44,118.332 L16949.191,142.272 C16948.963,144.324 16948.792,146.205 16948.678,147.915 C16948.564,149.625 16948.45,151.107 16948.336,152.361 C16947.994,154.527 16946.284,155.61 16943.206,155.61 C16940.128,155.61 16938.589,154.869 16938.589,153.387 L16938.589,153.045 C16938.931,151.563 16939.33,149.8815 16939.786,148.0005 C16940.242,146.1195 16940.641,144.096 16940.983,141.93 L16944.232,118.332 L16941.496,118.332 C16934.884,118.332 16930.552,118.503 16928.5,118.845 L16928.158,118.845 C16927.246,118.845 16926.505,118.2465 16925.935,117.0495 C16925.365,115.8525 16925.08,114.627 16925.08,113.373 C16925.08,110.979 16925.935,109.782 16927.645,109.782 C16931.065,110.01 16935.739,110.124 16941.667,110.124 L16945.258,110.124 L16950.046,74.727 L16945.942,74.727 C16939.558,74.727 16935.226,74.898 16932.946,75.24 L16932.775,75.24 C16931.863,75.24 16931.0935,74.613 16930.4665,73.359 C16929.8395,72.105 16929.526,70.5945 16929.526,68.8275 C16929.526,67.0605 16930.381,66.177 16932.091,66.177 C16935.511,66.405 16940.185,66.519 16946.113,66.519 L16951.243,66.519 L16954.663,41.382 C16954.891,40.47 16955.119,38.019 16955.347,34.029 C16955.347,32.775 16956.259,32.148 16958.083,32.148 C16959.907,32.148 16961.446,32.433 16962.7,33.003 C16963.954,33.573 16964.581,34.314 16964.581,35.226 C16964.239,36.594 16963.897,37.848 16963.555,38.988 C16963.213,40.128 16962.985,41.04 16962.871,41.724 L16959.451,66.519 L16988.35,66.519 L16991.77,41.382 C16991.998,40.47 16992.226,38.019 16992.454,34.029 C16992.454,32.775 16993.366,32.148 16995.19,32.148 C16997.014,32.148 16998.553,32.433 16999.807,33.003 C17001.061,33.573 17001.688,34.314 17001.688,35.226 L17000.662,39.33 C17000.32,40.356 17000.092,41.154 16999.978,41.724 L16996.558,66.519 L16999.978,66.519 C17003.284,66.519 17007.331,66.348 17012.119,66.006 L17012.29,66.006 C17013.316,66.006 17014.1425,66.576 17014.7695,67.716 C17015.3965,68.856 17015.71,70.053 17015.71,71.307 C17015.71,73.701 17014.855,74.898 17013.145,74.898 C17010.637,74.784 17008.129,74.727 17005.621,74.727 L16995.532,74.727 L16990.573,110.124 L16995.532,110.124 C16998.838,110.124 17002.885,109.953 17007.673,109.611 L17007.844,109.611 C17008.87,109.611 17009.6965,110.181 17010.3235,111.321 C17010.9505,112.461 17011.264,113.658 17011.264,114.912 C17011.264,117.306 17010.409,118.503 17008.699,118.503 C17006.191,118.389 17003.968,118.332 17002.03,118.332 L16989.547,118.332 L16986.298,142.272 C16986.07,144.438 16985.899,146.3475 16985.785,148.0005 C16985.671,149.6535 16985.5,151.107 16985.272,152.361 C16985.044,154.527 16983.391,155.61 16980.313,155.61 C16977.235,155.61 16975.696,154.869 16975.696,153.387 Z M16987.153,74.727 L16958.425,74.727 L16953.466,110.124 L16982.365,110.124 L16987.153,74.727 Z" transform="translate(-16908 -5.584)"/></svg>