<svg xmlns="http://www.w3.org/2000/svg" width="102" height="152" viewBox="0 0 102 152"><path d="M4654.291,79.002 C4660.675,74.214 4667.458,71.82 4674.64,71.82 C4684.33,71.82 4692.2245,75.411 4698.3235,82.593 C4704.4225,89.775 4707.472,99.465 4707.472,111.663 C4707.472,123.861 4703.8525,134.52 4696.6135,143.64 C4689.3745,152.76 4679.77,157.32 4667.8,157.32 C4655.83,157.32 4646.7385,153.9 4640.5255,147.06 C4634.3125,140.22 4631.206,130.929 4631.206,119.187 C4631.206,109.839 4634.056,100.32 4639.756,90.63 C4642.036,86.526 4644.2875,83.277 4646.5105,80.883 C4648.7335,78.489 4650.4435,77.292 4651.6405,77.292 C4652.8375,77.292 4653.721,77.862 4654.291,79.002 Z M4666.945,148.599 C4672.531,148.599 4677.6895,146.9745 4682.4205,143.7255 C4687.1515,140.4765 4690.942,136.1445 4693.792,130.7295 C4696.642,125.3145 4698.067,119.301 4698.067,112.689 C4698.067,103.113 4695.958,95.3325 4691.74,89.3475 C4687.522,83.3625 4681.48,80.37 4673.614,80.37 C4664.152,80.37 4656.286,84.588 4650.016,93.024 C4643.746,101.118 4640.611,109.839 4640.611,119.187 C4640.611,128.535 4642.948,135.774 4647.622,140.904 C4652.296,146.034 4658.737,148.599 4666.945,148.599 Z" transform="translate(-4618 -5.584)"/></svg>