<svg xmlns="http://www.w3.org/2000/svg" width="108" height="152" viewBox="0 0 108 152"><path d="M4831.96,33.345 C4860.802,33.345 4875.223,42.921 4875.223,62.073 C4875.223,71.421 4872.088,79.002 4865.818,84.816 C4858.294,91.884 4847.236,96.33 4832.644,98.154 C4824.664,99.066 4818.337,99.522 4813.663,99.522 C4808.989,99.522 4806.31,99.123 4805.626,98.325 L4805.626,134.919 L4806.139,154.755 C4806.139,155.895 4805.2555,156.465 4803.4885,156.465 C4801.7215,156.465 4799.926,156.0375 4798.102,155.1825 C4796.278,154.3275 4795.366,153.159 4795.366,151.677 L4795.708,134.748 L4795.708,48.564 L4795.195,48.564 C4793.713,48.564 4792.3165,47.709 4791.0055,45.999 C4789.6945,44.289 4789.039,42.7215 4789.039,41.2965 C4789.039,39.8715 4789.609,39.102 4790.749,38.988 C4793.029,38.532 4795.366,38.019 4797.76,37.449 C4809.616,34.713 4821.016,33.345 4831.96,33.345 Z M4864.963,62.073 C4864.963,54.663 4861.942,49.533 4855.9,46.683 C4849.858,43.833 4842.049,42.408 4832.473,42.408 C4822.897,42.408 4813.948,43.548 4805.626,45.828 L4805.626,94.05 C4806.196,93.252 4807.45,92.796 4809.388,92.682 C4818.622,92.112 4827.742,90.801 4836.748,88.749 C4855.558,84.417 4864.963,75.525 4864.963,62.073 Z" transform="translate(-4776 -5.584)"/></svg>