<svg xmlns="http://www.w3.org/2000/svg" width="92" height="152" viewBox="0 0 92 152"><path d="M4955.422,179.208 L4955.764,163.989 L4955.764,91.656 C4955.764,85.614 4955.593,79.686 4955.251,73.872 C4955.251,72.846 4956.0775,72.333 4957.7305,72.333 C4959.3835,72.333 4961.0935,72.7605 4962.8605,73.6155 C4964.6275,74.4705 4965.511,75.582 4965.511,76.95 C4965.511,76.95 4965.454,79.971 4965.34,86.013 C4965.34,86.013 4965.34,87.666 4965.34,90.972 L4965.169,93.024 C4969.159,84.474 4975.885,78.318 4985.347,74.556 C4989.793,72.732 4994.239,71.82 4998.685,71.82 C5007.919,71.82 5015.044,74.898 5020.06,81.054 C5025.076,87.21 5027.584,96.387 5027.584,108.585 C5027.584,120.783 5023.879,131.9265 5016.469,142.0155 C5009.059,152.1045 4999.597,157.149 4988.083,157.149 C4983.751,157.149 4979.3905,156.1515 4975.0015,154.1565 C4970.6125,152.1615 4967.278,149.226 4964.998,145.35 L4964.998,164.16 L4965.511,182.286 C4965.511,183.312 4964.713,183.825 4963.117,183.825 C4961.521,183.825 4959.8395,183.3975 4958.0725,182.5425 C4956.3055,181.6875 4955.422,180.576 4955.422,179.208 Z M4964.998,137.484 C4965.454,137.256 4965.91,137.142 4966.366,137.142 C4967.734,137.142 4969.2445,138.3675 4970.8975,140.8185 C4972.5505,143.2695 4974.859,145.236 4977.823,146.718 C4980.787,148.2 4983.808,148.941 4986.886,148.941 C4993.042,148.941 4998.457,146.9745 5003.131,143.0415 C5007.805,139.1085 5011.453,134.007 5014.075,127.737 C5016.697,121.467 5018.008,114.3135 5018.008,106.2765 C5018.008,98.2395 5016.241,91.9125 5012.707,87.2955 C5009.173,82.6785 5004.7555,80.37 4999.4545,80.37 C4994.1535,80.37 4989.1945,81.7095 4984.5775,84.3885 C4979.9605,87.0675 4975.9705,90.744 4972.6075,95.418 C4969.2445,100.092 4966.936,105.45 4965.682,111.492 C4965.226,113.43 4964.998,122.094 4964.998,137.484 Z" transform="translate(-4945 -5.584)"/></svg>