<svg xmlns="http://www.w3.org/2000/svg" width="130" height="152" viewBox="0 0 130 152"><path d="M17175.595,43.434 C17179.129,37.848 17181.523,33.687 17182.777,30.951 C17183.233,29.925 17184.0025,29.412 17185.0855,29.412 C17186.1685,29.412 17187.337,30.2955 17188.591,32.0625 C17189.845,33.8295 17190.472,35.1405 17190.472,35.9955 C17190.472,36.8505 17190.358,37.506 17190.13,37.962 C17187.166,41.61 17184.544,45.201 17182.264,48.735 L17118.31,148.257 C17116.144,151.791 17114.035,155.382 17111.983,159.03 C17111.641,159.828 17110.9855,160.227 17110.0165,160.227 C17109.0475,160.227 17107.9645,159.4575 17106.7675,157.9185 C17105.5705,156.3795 17104.972,155.0685 17104.972,153.9855 C17104.972,152.9025 17105.77,151.392 17107.366,149.454 C17108.962,147.516 17110.615,145.236 17112.325,142.614 L17175.595,43.434 Z M17102.749,36.252 C17106.283,32.718 17110.786,30.951 17116.258,30.951 C17121.73,30.951 17126.29,32.319 17129.938,35.055 C17137.234,40.527 17140.882,49.1625 17140.882,60.9615 C17140.882,72.7605 17137.234,81.339 17129.938,86.697 C17126.29,89.433 17121.616,90.801 17115.916,90.801 C17107.024,90.801 17100.469,88.0365 17096.251,82.5075 C17092.033,76.9785 17089.924,69.768 17089.924,60.876 C17089.924,51.984 17092.09,44.688 17096.422,38.988 C17098.132,36.708 17099.5,35.568 17100.526,35.568 C17101.552,35.568 17102.293,35.796 17102.749,36.252 Z M17105.143,79.686 C17107.651,81.966 17111.527,83.106 17116.771,83.106 C17122.015,83.106 17125.948,80.9685 17128.57,76.6935 C17131.192,72.4185 17132.503,67.716 17132.503,62.586 C17132.503,57.456 17131.9615,53.238 17130.8785,49.932 C17129.7955,46.626 17128.0285,43.9185 17125.5775,41.8095 C17123.1265,39.7005 17120.248,38.646 17116.942,38.646 C17113.636,38.646 17110.615,39.444 17107.879,41.04 C17101.609,44.46 17098.474,50.787 17098.474,60.021 C17098.474,69.255 17100.697,75.81 17105.143,79.686 Z M17169.439,102.771 C17172.973,99.237 17177.476,97.47 17182.948,97.47 C17188.42,97.47 17192.98,98.838 17196.628,101.574 C17203.924,107.046 17207.572,115.6815 17207.572,127.4805 C17207.572,139.2795 17203.924,147.858 17196.628,153.216 C17192.98,155.952 17188.306,157.32 17182.606,157.32 C17173.714,157.32 17167.159,154.5555 17162.941,149.0265 C17158.723,143.4975 17156.614,136.287 17156.614,127.395 C17156.614,118.503 17158.78,111.264 17163.112,105.678 C17164.822,103.284 17166.19,102.087 17167.216,102.087 C17168.242,102.087 17168.983,102.315 17169.439,102.771 Z M17171.833,146.376 C17174.341,148.542 17178.217,149.625 17183.461,149.625 C17188.705,149.625 17192.638,147.4875 17195.26,143.2125 C17197.882,138.9375 17199.193,134.235 17199.193,129.105 C17199.193,123.975 17198.6515,119.757 17197.5685,116.451 C17196.4855,113.145 17194.7185,110.4375 17192.2675,108.3285 C17189.8165,106.2195 17186.938,105.165 17183.632,105.165 C17180.326,105.165 17177.305,105.906 17174.569,107.388 C17168.299,110.922 17165.164,117.306 17165.164,126.54 C17165.164,135.774 17167.387,142.386 17171.833,146.376 Z" transform="translate(-17083 -5.584)"/></svg>