<svg xmlns="http://www.w3.org/2000/svg" width="99" height="152" viewBox="0 0 99 152"><path d="M53.575,148.948 C53.575,150.658 52.264,151.513 49.642,151.513 C48.616,151.513 47.533,151.1995 46.393,150.5725 C45.253,149.9455 44.683,149.119 44.683,148.093 L44.683,147.922 C45.025,144.274 45.196,140.227 45.196,135.781 L45.196,112.183 L23.137,112.183 C16.525,112.183 12.193,112.354 10.141,112.696 L9.799,112.696 C8.887,112.696 8.146,112.0975 7.576,110.9005 C7.006,109.7035 6.721,108.478 6.721,107.224 C6.721,104.83 7.576,103.633 9.286,103.633 C12.706,103.861 17.38,103.975 23.308,103.975 L45.196,103.975 L45.196,82.942 C45.196,77.014 45.082,72.34 44.854,68.92 C44.854,67.21 45.7375,66.355 47.5045,66.355 C49.2715,66.355 50.782,66.64 52.036,67.21 C53.29,67.78 53.917,68.521 53.917,69.433 L53.917,69.775 C53.575,73.879 53.404,78.211 53.404,82.771 L53.404,103.975 L75.805,103.975 C76.717,103.975 80.764,103.804 87.946,103.462 L88.117,103.462 C89.143,103.462 89.9695,104.032 90.5965,105.172 C91.2235,106.312 91.537,107.509 91.537,108.763 C91.537,111.157 90.682,112.354 88.972,112.354 L75.634,112.183 L53.404,112.183 L53.404,135.61 L53.575,148.948 Z"/></svg>