<svg xmlns="http://www.w3.org/2000/svg" width="90" height="152" viewBox="0 0 90 152"><path d="M5357.785,133.209 C5349.235,149.283 5337.037,157.32 5321.191,157.32 C5313.667,157.32 5307.34,154.2705 5302.21,148.1715 C5297.08,142.0725 5294.515,133.608 5294.515,122.778 C5294.515,109.326 5298.676,97.47 5306.998,87.21 C5315.434,76.95 5325.295,71.82 5336.581,71.82 C5346.043,71.82 5353.054,75.468 5357.614,82.764 C5357.5,80.826 5357.443,79.458 5357.443,78.66 L5357.443,73.359 C5357.443,72.333 5358.241,71.82 5359.837,71.82 C5361.433,71.82 5363.086,72.2475 5364.796,73.1025 C5366.506,73.9575 5367.361,75.069 5367.361,76.437 L5367.019,91.656 L5367.019,164.844 L5367.532,182.97 C5367.532,183.996 5366.734,184.509 5365.138,184.509 C5363.542,184.509 5361.8605,184.0815 5360.0935,183.2265 C5358.3265,182.3715 5357.443,181.26 5357.443,179.892 L5357.785,164.673 L5357.785,133.209 Z M5357.785,88.92 C5357.215,89.832 5356.5025,90.288 5355.6475,90.288 C5354.7925,90.288 5354.194,90.003 5353.852,89.433 C5349.862,83.163 5344.162,80.028 5336.752,80.028 C5327.746,80.028 5320.051,84.417 5313.667,93.195 C5307.283,101.973 5304.091,111.2355 5304.091,120.9825 C5304.091,130.7295 5305.8865,137.7975 5309.4775,142.1865 C5313.0685,146.5755 5317.087,148.77 5321.533,148.77 C5325.979,148.77 5330.2825,147.63 5334.4435,145.35 C5338.6045,143.07 5342.452,140.0205 5345.986,136.2015 C5349.52,132.3825 5352.37,127.9935 5354.536,123.0345 C5356.702,118.0755 5357.785,112.974 5357.785,107.73 L5357.785,88.92 Z" transform="translate(-5288 -5.584)"/></svg>