<svg xmlns="http://www.w3.org/2000/svg" width="82" height="152" viewBox="0 0 82 152"><path d="M14556.217,123.462 C14556.217,125.058 14554.6495,125.856 14551.5145,125.856 C14548.3795,125.856 14546.4985,124.83 14545.8715,122.778 C14545.2445,120.726 14544.931,118.4745 14544.931,116.0235 C14544.931,113.5725 14545.216,110.4375 14545.786,106.6185 C14546.356,102.7995 14547.8665,99.2655 14550.3175,96.0165 C14552.7685,92.7675 14555.647,89.8035 14558.953,87.1245 C14562.259,84.4455 14565.508,81.738 14568.7,79.002 C14575.996,72.618 14579.644,65.436 14579.644,57.456 C14579.644,52.326 14578.0765,48.3645 14574.9415,45.5715 C14571.8065,42.7785 14567.332,41.382 14561.518,41.382 C14551.144,41.382 14542.594,44.46 14535.868,50.616 C14530.51,55.176 14527.204,59.85 14525.95,64.638 C14525.494,66.12 14524.525,66.861 14523.043,66.861 C14521.561,66.861 14520.079,66.2625 14518.597,65.0655 C14517.115,63.8685 14516.374,62.757 14516.374,61.731 C14516.374,60.705 14516.545,59.964 14516.887,59.508 C14527.033,41.838 14541.625,33.003 14560.663,33.003 C14569.897,33.003 14577.0505,35.055 14582.1235,39.159 C14587.1965,43.263 14589.733,48.6495 14589.733,55.3185 C14589.733,61.9875 14588.6215,67.374 14586.3985,71.478 C14584.1755,75.582 14581.411,79.173 14578.105,82.251 C14574.799,85.329 14571.436,88.179 14568.016,90.801 C14564.596,93.423 14561.4895,96.3585 14558.6965,99.6075 C14555.9035,102.8565 14554.507,106.704 14554.507,111.15 L14554.507,113.031 C14554.507,115.083 14554.792,117.249 14555.362,119.529 C14555.932,121.809 14556.217,123.12 14556.217,123.462 Z M14551.429,155.439 C14549.149,155.439 14547.1255,154.3845 14545.3585,152.2755 C14543.5915,150.1665 14542.708,148.0005 14542.708,145.7775 C14542.708,143.5545 14543.3065,141.759 14544.5035,140.391 C14545.7005,139.023 14547.382,138.339 14549.548,138.339 C14551.714,138.339 14553.709,139.422 14555.533,141.588 C14557.357,143.754 14558.269,145.977 14558.269,148.257 C14558.269,153.045 14555.989,155.439 14551.429,155.439 Z" transform="translate(-14512 -5.584)"/></svg>