<svg xmlns="http://www.w3.org/2000/svg" width="112" height="152" viewBox="0 0 112 152"><path d="M5461.069,151.677 L5461.411,134.748 L5461.411,48.735 L5460.898,48.735 C5459.416,48.735 5457.991,47.7945 5456.623,45.9135 C5455.255,44.0325 5454.571,42.4365 5454.571,41.1255 C5454.571,39.8145 5455.084,39.102 5456.11,38.988 C5472.526,36.024 5482.9285,34.3995 5487.3175,34.1145 C5491.7065,33.8295 5495.668,33.687 5499.202,33.687 C5508.436,33.687 5515.846,35.0835 5521.432,37.8765 C5527.018,40.6695 5531.065,44.232 5533.573,48.564 C5536.081,52.896 5537.335,57.741 5537.335,63.099 C5537.335,68.457 5535.7105,73.416 5532.4615,77.976 C5529.2125,82.536 5524.624,86.469 5518.696,89.775 C5512.768,93.081 5505.985,94.962 5498.347,95.418 C5492.305,95.988 5488.486,96.273 5486.89,96.273 C5489.968,99.123 5495.212,104.538 5502.622,112.518 C5519.95,130.986 5531.977,142.443 5538.703,146.889 C5541.211,148.599 5543.32,149.796 5545.03,150.48 C5549.362,151.962 5551.528,153.444 5551.528,154.926 C5551.528,155.952 5549.875,156.465 5546.569,156.465 C5538.931,156.465 5532.1195,154.071 5526.1345,149.283 C5520.1495,144.495 5513.623,138.168 5506.555,130.302 C5492.191,114.342 5483.983,105.3645 5481.931,103.3695 C5479.879,101.3745 5477.6845,99.807 5475.3475,98.667 C5473.0105,97.527 5471.557,96.729 5470.987,96.273 L5470.987,134.919 L5471.5,154.755 C5471.5,155.895 5470.6735,156.465 5469.0205,156.465 C5467.3675,156.465 5465.629,156.0375 5463.805,155.1825 C5461.981,154.3275 5461.069,153.159 5461.069,151.677 Z M5470.987,91.998 C5472.013,89.832 5473.894,88.749 5476.63,88.749 L5477.143,88.749 C5478.055,88.863 5478.967,88.92 5479.879,88.92 L5482.957,88.92 C5497.321,88.92 5508.322,86.298 5515.96,81.054 C5521.66,77.064 5525.251,72.447 5526.733,67.203 C5527.303,65.151 5527.588,63.669 5527.588,62.757 C5527.588,56.259 5524.909,51.243 5519.551,47.709 C5514.193,44.175 5507.296,42.408 5498.86,42.408 C5486.776,42.408 5477.485,43.491 5470.987,45.657 L5470.987,91.998 Z" transform="translate(-5446 -5.584)"/></svg>