<svg xmlns="http://www.w3.org/2000/svg" width="76" height="152" viewBox="0 0 76 152"><path d="M5627.11,151.506 L5627.452,136.458 L5627.452,91.827 L5626.939,73.53 C5626.939,72.504 5627.7655,71.991 5629.4185,71.991 C5631.0715,71.991 5632.753,72.4185 5634.463,73.2735 C5636.173,74.1285 5637.028,75.24 5637.028,76.608 C5637.028,77.976 5636.9995,79.6575 5636.9425,81.6525 C5636.8855,83.6475 5636.857,85.671 5636.857,87.723 C5639.137,83.391 5642.6995,79.6575 5647.5445,76.5225 C5652.3895,73.3875 5657.89,71.82 5664.046,71.82 C5670.202,71.82 5675.617,73.644 5680.291,77.292 C5682.229,78.888 5683.198,80.4555 5683.198,81.9945 C5683.198,83.5335 5682.685,85.158 5681.659,86.868 C5680.633,88.578 5679.607,89.433 5678.581,89.433 C5677.555,89.433 5676.7,88.863 5676.016,87.723 C5674.876,85.443 5672.938,83.79 5670.202,82.764 C5667.466,81.738 5665.186,81.225 5663.362,81.225 C5658.46,81.225 5653.672,82.878 5648.998,86.184 C5642.386,90.858 5638.51,98.496 5637.37,109.098 C5636.914,113.202 5636.686,122.322 5636.686,136.458 L5637.199,154.584 C5637.199,155.61 5636.401,156.123 5634.805,156.123 C5633.209,156.123 5631.5275,155.6955 5629.7605,154.8405 C5627.9935,153.9855 5627.11,152.874 5627.11,151.506 Z" transform="translate(-5616 -5.584)"/></svg>