<svg xmlns="http://www.w3.org/2000/svg" width="54" height="152" viewBox="0 0 54 152"><path d="M15459.781,128.25 C15459.781,114.57 15464.17,105.564 15472.948,101.232 C15468.502,100.206 15465.196,97.7265 15463.03,93.7935 C15460.864,89.8605 15459.781,85.614 15459.781,81.054 C15459.781,72.048 15460.2085,64.6095 15461.0635,58.7385 C15461.9185,52.8675 15462.346,49.077 15462.346,47.367 C15462.346,42.351 15460.978,38.19 15458.242,34.884 C15455.506,31.578 15451.687,28.5 15446.785,25.65 C15445.645,24.852 15445.075,23.9115 15445.075,22.8285 C15445.075,21.7455 15445.759,21.204 15447.127,21.204 C15447.697,21.204 15449.2075,21.5745 15451.6585,22.3155 C15454.1095,23.0565 15456.817,24.3675 15459.781,26.2485 C15462.745,28.1295 15465.3385,30.78 15467.5615,34.2 C15469.7845,37.62 15470.896,41.553 15470.896,45.999 C15470.896,50.445 15470.4685,55.176 15469.6135,60.192 C15468.7585,65.208 15468.331,70.452 15468.331,75.924 C15468.331,81.396 15468.73,85.5 15469.528,88.236 C15471.352,94.392 15475.912,97.698 15483.208,98.154 C15484.576,98.268 15485.716,98.9235 15486.628,100.1205 C15487.54,101.3175 15487.996,102.543 15487.996,103.797 C15487.996,105.507 15487.198,106.362 15485.602,106.362 L15483.721,106.362 C15473.575,106.362 15468.502,113.829 15468.502,128.763 L15469.528,155.61 C15469.528,163.362 15465.994,169.803 15458.926,174.933 C15456.076,176.985 15453.511,178.4955 15451.231,179.4645 C15448.951,180.4335 15447.64,180.918 15447.298,180.918 C15445.816,180.918 15445.075,180.177 15445.075,178.695 C15445.075,177.669 15445.588,176.814 15446.614,176.13 C15456.076,170.658 15460.807,163.704 15460.807,155.268 L15459.781,128.25 Z" transform="translate(-15445 -5.584)"/></svg>