<svg xmlns="http://www.w3.org/2000/svg" width="54" height="152" viewBox="0 0 54 152"><path d="M16000.825,24.453 C16002.421,24.453 16004.359,24.225 16006.639,23.769 C16008.007,23.769 16009.261,24.453 16010.401,25.821 C16011.541,27.189 16012.111,28.5 16012.111,29.754 L16011.598,40.527 L16011.598,165.186 L16012.453,175.104 C16012.453,176.586 16011.997,177.6975 16011.085,178.4385 C16010.173,179.1795 16008.292,179.55 16005.442,179.55 L15992.788,179.721 C15990.85,179.721 15989.482,179.778 15988.684,179.892 L15988.342,179.892 C15987.088,179.892 15986.0335,179.265 15985.1785,178.011 C15984.3235,176.757 15983.896,175.56 15983.896,174.42 C15983.896,172.824 15984.637,172.026 15986.119,172.026 L16002.877,172.026 L16002.877,31.806 C15994.327,32.148 15989.539,32.319 15988.513,32.319 C15987.487,32.319 15986.518,31.692 15985.606,30.438 C15984.694,29.184 15984.238,27.987 15984.238,26.847 C15984.238,25.251 15984.979,24.453 15986.461,24.453 L16000.825,24.453 Z" transform="translate(-15983 -5.584)"/></svg>