<svg xmlns="http://www.w3.org/2000/svg" width="106" height="152" viewBox="0 0 106 152"><path d="M5784.943,90.459 C5776.735,88.521 5770.18,85.614 5765.278,81.738 C5760.376,77.862 5757.925,72.162 5757.925,64.638 C5757.925,59.166 5759.692,54.036 5763.226,49.248 C5766.76,44.46 5771.5765,40.5555 5777.6755,37.5345 C5783.7745,34.5135 5790.358,33.003 5797.426,33.003 C5804.494,33.003 5810.7355,33.972 5816.1505,35.91 C5821.5655,37.848 5825.926,40.0995 5829.232,42.6645 C5832.538,45.2295 5834.191,47.538 5834.191,49.59 L5833.678,51.471 C5832.88,55.233 5831.683,57.114 5830.087,57.114 C5829.289,57.114 5828.548,56.7435 5827.864,56.0025 C5827.18,55.2615 5826.553,54.663 5825.983,54.207 C5822.221,49.761 5817.7465,46.6545 5812.5595,44.8875 C5807.3725,43.1205 5802.328,42.237 5797.426,42.237 C5792.524,42.237 5787.7645,43.3485 5783.1475,45.5715 C5778.5305,47.7945 5774.8825,50.6445 5772.2035,54.1215 C5769.5245,57.5985 5768.185,61.4175 5768.185,65.5785 C5768.185,69.7395 5769.895,73.1025 5773.315,75.6675 C5776.735,78.2325 5782.093,80.313 5789.389,81.909 L5807.857,86.697 C5818.801,89.547 5826.9235,93.822 5832.2245,99.522 C5837.5255,105.222 5840.176,112.632 5840.176,121.752 C5840.176,128.364 5838.466,134.349 5835.046,139.707 C5831.626,145.065 5826.6385,149.34 5820.0835,152.532 C5813.5285,155.724 5805.52,157.32 5796.058,157.32 C5778.616,157.32 5764.309,151.164 5753.137,138.852 C5752.567,138.282 5752.282,137.256 5752.282,135.774 C5752.282,134.292 5752.966,132.696 5754.334,130.986 C5755.702,129.276 5756.9275,128.421 5758.0105,128.421 C5759.0935,128.421 5759.863,128.82 5760.319,129.618 C5766.931,140.448 5776.564,146.49 5789.218,147.744 C5792.182,147.972 5794.576,148.086 5796.4,148.086 C5802.784,148.086 5808.5125,146.946 5813.5855,144.666 C5818.6585,142.386 5822.677,139.3365 5825.641,135.5175 C5828.605,131.6985 5830.087,127.566 5830.087,123.12 C5830.087,115.824 5828.149,110.0385 5824.273,105.7635 C5820.397,101.4885 5813.956,98.154 5804.95,95.76 L5784.943,90.459 Z" transform="translate(-5745 -5.584)"/></svg>