<svg xmlns="http://www.w3.org/2000/svg" width="84" height="152" viewBox="0 0 84 152"><path d="M5943.46,112.518 C5937.19,111.036 5932.4875,108.8415 5929.3525,105.9345 C5926.2175,103.0275 5924.65,99.18 5924.65,94.392 C5924.65,89.604 5926.075,85.557 5928.925,82.251 C5931.775,78.945 5935.537,76.38 5940.211,74.556 C5944.885,72.732 5950.243,71.82 5956.285,71.82 C5962.327,71.82 5967.685,72.846 5972.359,74.898 C5977.033,76.95 5980.51,79.458 5982.79,82.422 C5983.132,82.764 5983.303,83.6475 5983.303,85.0725 C5983.303,86.4975 5982.676,87.78 5981.422,88.92 C5980.168,90.06 5979.2275,90.63 5978.6005,90.63 C5977.9735,90.63 5977.5175,90.4305 5977.2325,90.0315 C5976.9475,89.6325 5976.577,89.148 5976.121,88.578 C5972.359,82.764 5965.519,79.857 5955.601,79.857 C5948.989,79.857 5943.688,81.225 5939.698,83.961 C5935.708,86.697 5933.713,90.06 5933.713,94.05 C5933.713,99.066 5938.159,102.6 5947.051,104.652 L5963.467,108.585 C5970.763,110.295 5976.52,112.974 5980.738,116.622 C5984.956,120.27 5987.065,125.628 5987.065,132.696 C5987.065,137.142 5985.754,141.246 5983.132,145.008 C5980.51,148.77 5976.7765,151.7625 5971.9315,153.9855 C5967.0865,156.2085 5961.3865,157.32 5954.8315,157.32 C5948.2765,157.32 5942.8045,156.5505 5938.4155,155.0115 C5934.0265,153.4725 5930.521,151.6485 5927.899,149.5395 C5925.277,147.4305 5923.396,145.4355 5922.256,143.5545 C5921.116,141.6735 5920.546,140.163 5920.546,139.023 C5920.546,137.883 5921.2015,136.5435 5922.5125,135.0045 C5923.8235,133.4655 5924.935,132.696 5925.847,132.696 C5926.759,132.696 5927.386,133.095 5927.728,133.893 C5930.806,141.759 5936.221,146.376 5943.973,147.744 C5947.507,148.428 5951.041,148.77 5954.575,148.77 C5961.643,148.77 5967.286,147.1455 5971.504,143.8965 C5975.722,140.6475 5977.831,136.9995 5977.831,132.9525 C5977.831,128.9055 5976.5485,125.5425 5973.9835,122.8635 C5971.4185,120.1845 5966.944,118.104 5960.56,116.622 L5943.46,112.518 Z" transform="translate(-5911 -5.584)"/></svg>