<svg xmlns="http://www.w3.org/2000/svg" width="99" height="152" viewBox="0 0 99 152"><path d="M19287.895,42.219 C19289.605,37.431 19290.973,32.985 19291.999,28.881 C19292.341,27.627 19293.0535,27 19294.1365,27 C19295.2195,27 19296.502,27.7695 19297.984,29.3085 C19299.466,30.8475 19300.207,32.016 19300.207,32.814 C19300.207,33.612 19299.7795,34.866 19298.9245,36.576 C19298.0695,38.286 19296.844,41.193 19295.248,45.297 L19258.312,146.7 C19256.374,152.058 19254.892,156.39 19253.866,159.696 C19253.41,161.064 19252.5835,161.748 19251.3865,161.748 C19250.1895,161.748 19248.9925,161.1495 19247.7955,159.9525 C19246.5985,158.7555 19246,157.5585 19246,156.3615 C19246,155.1645 19246.171,154.224 19246.513,153.54 C19248.565,149.778 19250.161,146.301 19251.301,143.109 L19287.895,42.219 Z" transform="translate(-19224 -5.584)"/></svg>