<svg xmlns="http://www.w3.org/2000/svg" width="110" height="152" viewBox="0 0 110 152"><path d="M6100.951,151.506 L6101.293,136.287 L6101.293,45.144 L6101.122,45.144 C6099.526,45.144 6096.505,45.2865 6092.059,45.5715 C6087.613,45.8565 6084.421,46.056 6082.483,46.17 L6079.576,46.341 C6076.726,46.455 6073.9615,46.7115 6071.2825,47.1105 C6068.6035,47.5095 6066.637,47.766 6065.383,47.88 L6065.212,47.88 C6063.73,47.88 6062.476,46.9965 6061.45,45.2295 C6060.424,43.4625 6059.911,41.781 6059.911,40.185 C6059.911,38.589 6060.538,37.791 6061.792,37.791 C6061.792,37.791 6065.839,37.905 6073.933,38.133 L6132.757,34.884 C6135.379,34.656 6138.058,34.428 6140.794,34.2 C6143.53,33.972 6145.582,33.744 6146.95,33.516 L6147.463,33.516 C6148.831,33.516 6149.9995,34.371 6150.9685,36.081 C6151.9375,37.791 6152.422,39.4725 6152.422,41.1255 C6152.422,42.7785 6151.795,43.605 6150.541,43.605 L6136.861,43.092 L6111.211,44.46 L6111.211,136.458 L6111.724,154.584 C6111.724,155.724 6110.8405,156.294 6109.0735,156.294 C6107.3065,156.294 6105.511,155.8665 6103.687,155.0115 C6101.863,154.1565 6100.951,152.988 6100.951,151.506 Z" transform="translate(-6052 -5.584)"/></svg>