<svg xmlns="http://www.w3.org/2000/svg" width="64" height="152" viewBox="0 0 64 152"><path d="M6245.788,49.077 L6245.446,64.296 L6245.446,72.846 L6250.576,72.675 C6254.68,72.447 6259.012,72.105 6263.572,71.649 L6263.743,71.649 C6265.111,71.649 6266.308,72.3615 6267.334,73.7865 C6268.36,75.2115 6268.873,76.5795 6268.873,77.8905 C6268.873,79.2015 6268.303,79.857 6267.163,79.857 L6260.665,79.857 C6257.473,79.857 6254.737,79.914 6252.457,80.028 L6245.446,80.37 L6245.446,136.116 C6245.446,140.904 6245.902,144.096 6246.814,145.692 C6247.726,147.288 6249.436,148.086 6251.944,148.086 C6256.504,148.086 6262.432,145.179 6269.728,139.365 C6271.096,138.453 6272.236,137.997 6273.148,137.997 C6274.06,137.997 6274.516,138.4815 6274.516,139.4505 C6274.516,140.4195 6273.832,141.873 6272.464,143.811 C6271.096,145.749 6269.272,147.744 6266.992,149.796 C6261.634,154.812 6256.1905,157.32 6250.6615,157.32 C6245.1325,157.32 6241.342,155.5245 6239.29,151.9335 C6237.238,148.3425 6236.212,142.956 6236.212,135.774 L6236.212,80.712 L6235.528,80.712 C6233.02,80.826 6230.569,80.94 6228.175,81.054 L6224.584,81.396 C6223.102,81.396 6221.848,80.6265 6220.822,79.0875 C6219.796,77.5485 6219.283,76.209 6219.283,75.069 C6219.283,73.929 6219.853,73.359 6220.993,73.359 L6236.212,73.359 L6236.212,64.296 L6235.87,45.999 C6235.87,44.973 6236.668,44.46 6238.264,44.46 C6239.86,44.46 6241.513,44.8875 6243.223,45.7425 C6244.933,46.5975 6245.788,47.709 6245.788,49.077 Z" transform="translate(-6212 -5.584)"/></svg>