<svg xmlns="http://www.w3.org/2000/svg" width="104" height="152" viewBox="0 0 104 152"><path d="M6365.83,38.304 L6365.488,54.72 L6365.488,118.674 C6365.488,129.048 6367.996,136.572 6373.012,141.246 C6378.028,145.92 6385.552,148.257 6395.584,148.257 C6402.766,148.257 6408.9505,146.7465 6414.1375,143.7255 C6419.3245,140.7045 6423.3145,136.5435 6426.1075,131.2425 C6428.9005,125.9415 6430.297,119.928 6430.297,113.202 L6430.297,52.839 L6429.784,35.397 C6429.784,34.143 6430.7245,33.516 6432.6055,33.516 C6434.4865,33.516 6436.282,33.915 6437.992,34.713 C6439.702,35.511 6440.557,36.594 6440.557,37.962 L6440.215,53.01 L6440.215,115.254 C6440.215,123.69 6438.3625,131.0715 6434.6575,137.3985 C6430.9525,143.7255 6425.7655,148.6275 6419.0965,152.1045 C6412.4275,155.5815 6404.59,157.32 6395.584,157.32 C6368.908,157.32 6355.57,145.122 6355.57,120.726 L6355.57,54.378 L6355.057,35.739 C6355.057,34.485 6355.9975,33.858 6357.8785,33.858 C6359.7595,33.858 6361.555,34.257 6363.265,35.055 C6364.975,35.853 6365.83,36.936 6365.83,38.304 Z" transform="translate(-6345 -5.584)"/></svg>