<svg xmlns="http://www.w3.org/2000/svg" width="96" height="152" viewBox="0 0 96 152"><path d="M6544.012,76.608 L6543.67,91.656 L6543.67,124.659 C6543.67,131.385 6544.981,137.085 6547.603,141.759 C6550.225,146.433 6554.215,148.77 6559.573,148.77 C6564.931,148.77 6570.004,146.832 6574.792,142.956 C6586.534,133.494 6592.576,117.876 6592.918,96.102 C6593.146,87.438 6593.26,81.738 6593.26,79.002 L6593.26,73.359 C6593.26,72.333 6594.115,71.82 6595.825,71.82 C6597.535,71.82 6599.245,72.219 6600.955,73.017 C6602.665,73.815 6603.52,74.841 6603.52,76.095 L6603.52,76.437 C6602.152,84.645 6601.468,94.905 6601.468,107.217 C6601.468,119.529 6602.0095,128.6775 6603.0925,134.6625 C6604.1755,140.6475 6605.8,145.35 6607.966,148.77 C6608.194,149.226 6608.308,149.8245 6608.308,150.5655 C6608.308,151.3065 6607.7095,152.475 6606.5125,154.071 C6605.3155,155.667 6603.976,156.465 6602.494,156.465 C6600.1,156.465 6598.0195,153.3015 6596.2525,146.9745 C6594.4855,140.6475 6593.602,135.66 6593.602,132.012 C6589.84,140.106 6585.0235,146.3475 6579.1525,150.7365 C6573.2815,155.1255 6566.9545,157.32 6560.1715,157.32 C6553.3885,157.32 6548.116,155.781 6544.354,152.703 C6537.742,147.117 6534.436,137.997 6534.436,125.343 L6534.436,91.656 L6533.923,73.53 C6533.923,72.504 6534.7495,71.991 6536.4025,71.991 C6538.0555,71.991 6539.737,72.4185 6541.447,73.2735 C6543.157,74.1285 6544.012,75.24 6544.012,76.608 Z" transform="translate(-6524 -5.584)"/></svg>