<svg xmlns="http://www.w3.org/2000/svg" width="116" height="152" viewBox="0 0 116 152"><path d="M6681.325,36.594 C6681.325,35.112 6682.522,34.371 6684.916,34.371 C6690.16,34.371 6693.01,35.454 6693.466,37.62 C6694.15,40.128 6698.4535,51.5565 6706.3765,71.9055 C6714.2995,92.2545 6722.479,115.596 6730.915,141.93 C6742.201,111.606 6751.2925,88.0935 6758.1895,71.3925 C6765.0865,54.6915 6769.0195,45.0015 6769.9885,42.3225 C6770.9575,39.6435 6771.727,37.221 6772.297,35.055 C6772.639,33.801 6773.608,33.174 6775.204,33.174 C6776.8,33.174 6778.51,33.7725 6780.334,34.9695 C6782.158,36.1665 6783.07,37.563 6783.07,39.159 C6783.07,39.615 6782.671,40.4985 6781.873,41.8095 C6781.075,43.1205 6779.6215,46.056 6777.5125,50.616 C6775.4035,55.176 6773.0095,60.5625 6770.3305,66.7755 C6767.6515,72.9885 6764.887,79.629 6762.037,86.697 C6748.813,119.529 6740.434,141.759 6736.9,153.387 C6735.988,156.009 6734.6485,157.32 6732.8815,157.32 C6731.1145,157.32 6729.3475,156.4365 6727.5805,154.6695 C6725.8135,152.9025 6724.075,149.4825 6722.365,144.4095 C6720.655,139.3365 6718.318,132.696 6715.354,124.488 C6699.052,79.116 6687.766,50.103 6681.496,37.449 C6681.382,37.221 6681.325,36.936 6681.325,36.594 Z" transform="translate(-6674 -5.584)"/></svg>