<svg xmlns="http://www.w3.org/2000/svg" width="92" height="152" viewBox="0 0 92 152"><path d="M6850.273,75.24 C6850.273,73.416 6852.0685,72.504 6855.6595,72.504 C6859.2505,72.504 6861.217,73.2165 6861.559,74.6415 C6861.901,76.0665 6862.414,77.7765 6863.098,79.7715 C6863.782,81.7665 6864.409,83.676 6864.979,85.5 L6885.499,143.127 L6909.268,85.5 C6911.32,80.712 6912.745,76.665 6913.543,73.359 C6913.885,72.333 6914.8825,71.82 6916.5355,71.82 C6918.1885,71.82 6919.87,72.2475 6921.58,73.1025 C6923.29,73.9575 6924.145,75.012 6924.145,76.266 C6924.145,76.494 6923.3755,78.09 6921.8365,81.054 C6920.2975,84.018 6919.129,86.469 6918.331,88.407 L6895.075,143.298 C6894.049,145.692 6893.08,148.3425 6892.168,151.2495 C6891.256,154.1565 6890.458,155.8665 6889.774,156.3795 C6889.09,156.8925 6887.9785,157.149 6886.4395,157.149 C6884.9005,157.149 6883.447,156.4365 6882.079,155.0115 C6880.711,153.5865 6879.856,152.361 6879.514,151.335 C6879.172,150.309 6878.545,148.713 6877.633,146.547 L6855.745,87.894 C6855.061,85.956 6853.978,83.448 6852.496,80.37 C6851.014,77.292 6850.273,75.582 6850.273,75.24 Z" transform="translate(-6842 -5.584)"/></svg>