<svg xmlns="http://www.w3.org/2000/svg" width="53" height="152" viewBox="0 0 53 152"><path d="M18447.892,154.593 C18447.892,156.303 18446.581,157.158 18443.959,157.158 C18442.933,157.158 18441.85,156.8445 18440.71,156.2175 C18439.57,155.5905 18439,154.764 18439,153.738 L18439,153.567 C18439.342,149.919 18439.513,145.872 18439.513,141.426 L18439.513,48.587 C18439.513,42.659 18439.399,37.985 18439.171,34.565 C18439.171,32.855 18440.0545,32 18441.8215,32 C18443.5885,32 18445.099,32.285 18446.353,32.855 C18447.607,33.425 18448.234,34.166 18448.234,35.078 L18448.234,35.42 C18447.892,39.524 18447.721,43.856 18447.721,48.416 L18447.721,141.255 L18447.892,154.593 Z" transform="translate(-18417 -5.584)"/></svg>