<svg xmlns="http://www.w3.org/2000/svg" width="127" height="152" viewBox="0 0 127 152"><path d="M7203.559,75.411 C7203.559,73.815 7205.155,73.017 7208.347,73.017 C7212.565,73.017 7214.902,74.157 7215.358,76.437 C7215.7,79.401 7216.27,82.251 7217.068,84.987 L7233.142,143.64 L7252.807,87.381 C7253.719,83.961 7254.46,80.37 7255.03,76.608 C7255.258,75.354 7256.3125,74.727 7258.1935,74.727 C7260.0745,74.727 7261.9555,75.126 7263.8365,75.924 C7265.7175,76.722 7266.715,77.577 7266.829,78.489 C7267.171,80.997 7267.684,83.448 7268.368,85.842 L7285.81,143.64 L7305.475,85.329 C7306.615,82.251 7307.698,78.318 7308.724,73.53 C7309.066,72.39 7310.092,71.82 7311.802,71.82 C7313.512,71.82 7315.165,72.1905 7316.761,72.9315 C7318.357,73.6725 7319.155,74.67 7319.155,75.924 C7319.155,76.266 7318.8415,77.121 7318.2145,78.489 C7317.5875,79.857 7316.305,83.106 7314.367,88.236 L7295.044,143.298 C7294.132,145.92 7293.163,149.226 7292.137,153.216 C7291.339,155.952 7289.6575,157.32 7287.0925,157.32 C7284.5275,157.32 7282.219,156.294 7280.167,154.242 C7279.369,153.33 7278.856,152.19 7278.628,150.822 C7278.4,149.454 7278.058,148.029 7277.602,146.547 L7260.844,90.63 L7242.034,143.298 C7241.35,145.236 7240.8085,146.9745 7240.4095,148.5135 C7240.0105,150.0525 7239.526,151.734 7238.956,153.558 C7238.386,156.066 7236.904,157.32 7234.51,157.32 C7232.116,157.32 7230.2065,156.579 7228.7815,155.097 C7227.3565,153.615 7226.53,152.361 7226.302,151.335 C7226.074,150.309 7225.618,148.713 7224.934,146.547 L7207.492,86.184 L7205.782,81.396 C7205.098,79.572 7204.5565,78.1755 7204.1575,77.2065 C7203.7585,76.2375 7203.559,75.639 7203.559,75.411 Z" transform="translate(-7198 -5.584)"/></svg>