<svg xmlns="http://www.w3.org/2000/svg" width="118" height="152" viewBox="0 0 118 152"><path d="M7435.264,100.035 C7432.642,103.911 7429.5355,108.471 7425.9445,113.715 C7422.3535,118.959 7418.734,124.2885 7415.086,129.7035 C7411.438,135.1185 7408.132,140.0205 7405.168,144.4095 C7402.204,148.7985 7400.038,152.133 7398.67,154.413 C7397.758,155.667 7396.219,156.294 7394.053,156.294 C7391.887,156.294 7389.9775,155.9805 7388.3245,155.3535 C7386.6715,154.7265 7385.845,153.843 7385.845,152.703 C7385.845,152.019 7387.441,149.967 7390.633,146.547 C7393.825,143.127 7397.416,138.4245 7401.406,132.4395 C7405.396,126.4545 7414.801,112.803 7429.621,91.485 C7412.407,65.835 7402.432,51.2145 7399.696,47.6235 C7396.96,44.0325 7395.079,41.6955 7394.053,40.6125 C7393.027,39.5295 7392.514,38.5035 7392.514,37.5345 C7392.514,36.5655 7393.369,35.7105 7395.079,34.9695 C7396.789,34.2285 7398.556,33.858 7400.38,33.858 C7402.204,33.858 7403.401,34.3995 7403.971,35.4825 C7404.541,36.5655 7405.7095,38.532 7407.4765,41.382 C7409.2435,44.232 7411.324,47.481 7413.718,51.129 C7416.112,54.777 7418.563,58.5105 7421.071,62.3295 C7423.579,66.1485 7425.916,69.711 7428.082,73.017 C7430.248,76.323 7432.0435,79.002 7433.4685,81.054 C7434.8935,83.106 7435.606,84.189 7435.606,84.303 C7451.566,62.073 7462.852,45.999 7469.464,36.081 C7470.034,35.397 7471.003,35.055 7472.371,35.055 C7473.739,35.055 7475.3635,35.5965 7477.2445,36.6795 C7479.1255,37.7625 7480.066,38.76 7480.066,39.672 C7480.066,40.584 7479.667,41.439 7478.869,42.237 C7473.397,47.709 7460.857,64.524 7441.249,92.682 C7455.157,113.544 7464.334,126.768 7468.78,132.354 C7474.252,139.65 7479.325,145.578 7483.999,150.138 C7484.455,150.594 7484.683,151.221 7484.683,152.019 C7484.683,152.817 7483.7995,153.7005 7482.0325,154.6695 C7480.2655,155.6385 7478.527,156.123 7476.817,156.123 C7475.107,156.123 7473.796,155.61 7472.884,154.584 C7461.826,139.65 7452.9055,126.996 7446.1225,116.622 C7439.3395,106.248 7435.72,100.719 7435.264,100.035 Z" transform="translate(-7376 -5.584)"/></svg>