<svg xmlns="http://www.w3.org/2000/svg" width="90" height="152" viewBox="0 0 90 152"><path d="M7588.993,119.871 L7570.354,144.837 C7568.986,146.661 7566.706,149.967 7563.514,154.755 C7562.83,155.781 7561.576,156.294 7559.752,156.294 C7557.928,156.294 7556.218,155.952 7554.622,155.268 C7553.026,154.584 7552.228,153.843 7552.228,153.045 C7552.228,152.589 7553.026,151.563 7554.622,149.967 C7556.218,148.371 7559.239,144.837 7563.685,139.365 L7583.692,112.689 L7564.711,87.381 C7562.659,84.645 7560.55,82.194 7558.384,80.028 C7556.218,77.862 7555.135,76.665 7555.135,76.437 C7555.135,75.525 7556.0755,74.6985 7557.9565,73.9575 C7559.8375,73.2165 7561.576,72.846 7563.172,72.846 C7564.768,72.846 7565.794,73.302 7566.25,74.214 C7567.276,76.266 7568.986,78.945 7571.38,82.251 L7588.993,105.678 L7607.119,81.567 C7608.829,79.401 7610.596,76.608 7612.42,73.188 C7612.762,72.504 7613.731,72.162 7615.327,72.162 C7616.923,72.162 7618.6615,72.5325 7620.5425,73.2735 C7622.4235,74.0145 7623.364,74.841 7623.364,75.753 C7623.364,75.981 7622.395,77.064 7620.457,79.002 C7618.519,80.94 7616.296,83.505 7613.788,86.697 L7594.294,112.689 L7614.13,139.023 C7616.068,141.645 7619.716,145.806 7625.074,151.506 C7625.416,151.848 7625.587,152.247 7625.587,152.703 C7625.587,153.615 7624.789,154.3845 7623.193,155.0115 C7621.597,155.6385 7619.887,155.952 7618.063,155.952 C7616.239,155.952 7614.928,155.382 7614.13,154.242 C7611.736,150.594 7609.513,147.345 7607.461,144.495 L7588.993,119.871 Z" transform="translate(-7545 -5.584)"/></svg>