<svg xmlns="http://www.w3.org/2000/svg" width="96" height="152" viewBox="0 0 96 152"><path d="M7859.173,75.069 C7859.173,73.359 7860.9685,72.504 7864.5595,72.504 C7868.1505,72.504 7870.174,73.302 7870.63,74.898 C7872.226,79.002 7873.936,83.22 7875.76,87.552 L7897.135,136.287 L7919.707,89.262 C7922.101,84.246 7924.21,78.945 7926.034,73.359 C7926.376,72.333 7927.231,71.82 7928.599,71.82 C7929.967,71.82 7931.449,72.4185 7933.045,73.6155 C7934.641,74.8125 7935.439,76.0095 7935.439,77.2065 C7935.439,78.4035 7935.1255,79.6005 7934.4985,80.7975 C7933.8715,81.9945 7932.931,83.7615 7931.677,86.0985 C7930.423,88.4355 7929.283,90.63 7928.257,92.682 L7892.176,168.435 C7890.01,173.109 7887.4735,176.586 7884.5665,178.866 C7881.6595,181.146 7878.04,182.286 7873.708,182.286 L7871.998,182.286 C7869.832,182.286 7867.4095,182.058 7864.7305,181.602 C7862.0515,181.146 7859.401,179.835 7856.779,177.669 C7856.209,177.327 7855.924,176.529 7855.924,175.275 C7855.924,174.021 7856.437,172.5675 7857.463,170.9145 C7858.489,169.2615 7859.515,168.435 7860.541,168.435 C7861.567,168.435 7862.7925,169.233 7864.2175,170.829 C7865.6425,172.425 7868.635,173.223 7873.195,173.223 C7875.019,173.223 7876.957,172.425 7879.009,170.829 C7881.061,169.233 7882.942,166.668 7884.652,163.134 L7892.176,147.231 L7866.526,89.946 C7864.018,84.474 7862.1655,80.6835 7860.9685,78.5745 C7859.7715,76.4655 7859.173,75.297 7859.173,75.069 Z" transform="translate(-7849 -5.584)"/></svg>