<svg xmlns="http://www.w3.org/2000/svg" width="104" height="152" viewBox="0 0 104 152"><path d="M8063.176,144.324 L8085.064,144.495 C8087.572,144.495 8089.681,144.438 8091.391,144.324 L8091.562,144.324 C8093.044,144.324 8094.298,145.2645 8095.324,147.1455 C8096.35,149.0265 8096.863,150.708 8096.863,152.19 C8096.863,153.672 8096.35,154.413 8095.324,154.413 L8094.982,154.413 C8090.65,153.957 8084.779,153.615 8077.369,153.387 L8049.154,153.387 C8028.634,153.387 8016.892,153.9 8013.928,154.926 C8013.016,155.268 8011.99,155.439 8010.85,155.439 C8009.71,155.439 8008.4845,154.6125 8007.1735,152.9595 C8005.8625,151.3065 8005.207,149.91 8005.207,148.77 C8005.207,147.63 8005.3495,146.6325 8005.6345,145.7775 C8005.9195,144.9225 8006.632,143.868 8007.772,142.614 C8008.912,141.36 8009.71,140.391 8010.166,139.707 C8024.302,118.047 8037.3835,99.408 8049.4105,83.79 C8061.4375,68.172 8071.612,55.005 8079.934,44.289 L8033.251,47.367 C8030.515,47.481 8027.9785,47.6805 8025.6415,47.9655 C8023.3045,48.2505 8021.566,48.45 8020.426,48.564 L8020.255,48.564 C8018.431,48.564 8016.835,47.481 8015.467,45.315 C8014.099,43.149 8013.415,41.4105 8013.415,40.0995 C8013.415,38.7885 8013.871,38.133 8014.783,38.133 L8015.125,38.133 C8020.141,38.589 8023.7035,38.817 8025.8125,38.817 C8027.9215,38.817 8030.344,38.703 8033.08,38.475 L8074.462,35.739 C8077.084,35.511 8079.649,35.226 8082.157,34.884 C8084.665,34.542 8086.6885,34.371 8088.2275,34.371 C8089.7665,34.371 8091.163,35.34 8092.417,37.278 C8093.671,39.216 8094.298,40.8975 8094.298,42.3225 C8094.298,43.7475 8093.728,44.6595 8092.588,45.0585 C8091.448,45.4575 8090.5075,46.113 8089.7665,47.025 C8089.0255,47.937 8087.002,50.502 8083.696,54.72 C8057.476,86.982 8035.588,117.192 8018.032,145.35 C8026.24,144.666 8034.448,144.324 8042.656,144.324 L8063.176,144.324 Z" transform="translate(-7998 -5.584)"/></svg>