<svg xmlns="http://www.w3.org/2000/svg" width="102" height="152" viewBox="0 0 102 152"><path d="M11065.423,59.337 C11064.967,60.477 11064.226,61.047 11063.2,61.047 C11062.858,61.047 11062.4875,60.9615 11062.0885,60.7905 C11061.6895,60.6195 11060.635,59.508 11058.925,57.456 C11054.023,51.756 11047.069,44.802 11038.063,36.594 C11037.607,36.138 11037.379,35.625 11037.379,35.055 C11037.379,34.713 11037.436,34.371 11037.55,34.029 C11038.006,33.003 11039.431,32.034 11041.825,31.122 C11043.535,30.552 11044.846,30.267 11045.758,30.267 C11046.1,30.267 11046.385,30.324 11046.613,30.438 C11047.411,30.666 11047.981,31.008 11048.323,31.464 C11055.505,40.926 11061.091,49.419 11065.081,56.943 C11065.309,57.513 11065.423,58.026 11065.423,58.482 C11065.423,58.71 11065.423,58.995 11065.423,59.337 Z M11075.17,84.474 C11075.398,79.23 11075.512,75.525 11075.512,73.359 C11075.512,72.333 11076.3955,71.82 11078.1625,71.82 C11079.9295,71.82 11081.6965,72.219 11083.4635,73.017 C11085.2305,73.815 11086.114,74.841 11086.114,76.095 L11086.114,76.437 C11085.202,82.707 11084.6035,91.2855 11084.3185,102.1725 C11084.0335,113.0595 11083.891,119.3865 11083.891,121.1535 C11083.891,122.9205 11084.005,125.4 11084.233,128.592 C11084.575,136.686 11086.456,143.412 11089.876,148.77 C11090.104,149.226 11090.218,149.853 11090.218,150.651 C11090.218,151.449 11089.6195,152.6175 11088.4225,154.1565 C11087.2255,155.6955 11085.943,156.465 11084.575,156.465 C11083.207,156.465 11081.9815,155.6385 11080.8985,153.9855 C11079.8155,152.3325 11078.875,150.252 11078.077,147.744 C11076.139,142.044 11075.056,137.142 11074.828,133.038 C11070.724,141.36 11065.5085,147.4875 11059.1815,151.4205 C11052.8545,155.3535 11046.0145,157.32 11038.6615,157.32 C11031.3085,157.32 11025.1525,154.5555 11020.1935,149.0265 C11015.2345,143.4975 11012.755,135.375 11012.755,124.659 C11012.755,110.637 11017.201,98.211 11026.093,87.381 C11030.197,82.479 11034.7285,78.66 11039.6875,75.924 C11044.6465,73.188 11049.4345,71.82 11054.0515,71.82 C11058.6685,71.82 11062.8865,72.846 11066.7055,74.898 C11070.5245,76.95 11073.346,80.142 11075.17,84.474 Z M11075.17,88.578 C11074.6,89.718 11073.7735,90.288 11072.6905,90.288 C11071.6075,90.288 11070.895,90.06 11070.553,89.604 C11068.387,86.298 11065.879,83.8755 11063.029,82.3365 C11060.179,80.7975 11057.158,80.028 11053.966,80.028 C11050.774,80.028 11047.2685,81.1395 11043.4495,83.3625 C11039.6305,85.5855 11036.125,88.692 11032.933,92.682 C11025.979,101.346 11022.502,111.72 11022.502,123.804 C11022.502,132.582 11024.155,138.9375 11027.461,142.8705 C11030.767,146.8035 11035.099,148.77 11040.457,148.77 C11045.815,148.77 11051.0875,146.946 11056.2745,143.298 C11061.4615,139.65 11065.765,134.52 11069.185,127.908 C11073.061,120.384 11074.999,110.238 11074.999,97.47 C11074.999,94.392 11075.056,91.428 11075.17,88.578 Z" transform="translate(-11000 -5.584)"/></svg>