<svg xmlns="http://www.w3.org/2000/svg" width="102" height="152" viewBox="0 0 102 152"><path d="M10758.82,84.474 C10759.048,79.23 10759.162,75.525 10759.162,73.359 C10759.162,72.333 10760.0455,71.82 10761.8125,71.82 C10763.5795,71.82 10765.3465,72.219 10767.1135,73.017 C10768.8805,73.815 10769.764,74.841 10769.764,76.095 L10769.764,76.437 C10768.852,82.707 10768.2535,91.2855 10767.9685,102.1725 C10767.6835,113.0595 10767.541,119.3865 10767.541,121.1535 C10767.541,122.9205 10767.655,125.4 10767.883,128.592 C10768.225,136.686 10770.106,143.412 10773.526,148.77 C10773.754,149.226 10773.868,149.853 10773.868,150.651 C10773.868,151.449 10773.2695,152.6175 10772.0725,154.1565 C10770.8755,155.6955 10769.593,156.465 10768.225,156.465 C10766.857,156.465 10765.6315,155.6385 10764.5485,153.9855 C10763.4655,152.3325 10762.525,150.252 10761.727,147.744 C10759.789,142.044 10758.706,137.142 10758.478,133.038 C10754.374,141.36 10749.1585,147.4875 10742.8315,151.4205 C10736.5045,155.3535 10729.6645,157.32 10722.3115,157.32 C10714.9585,157.32 10708.8025,154.5555 10703.8435,149.0265 C10698.8845,143.4975 10696.405,135.375 10696.405,124.659 C10696.405,110.637 10700.851,98.211 10709.743,87.381 C10713.847,82.479 10718.3785,78.66 10723.3375,75.924 C10728.2965,73.188 10733.0845,71.82 10737.7015,71.82 C10742.3185,71.82 10746.5365,72.846 10750.3555,74.898 C10754.1745,76.95 10756.996,80.142 10758.82,84.474 Z M10758.82,88.578 C10758.25,89.718 10757.4235,90.288 10756.3405,90.288 C10755.2575,90.288 10754.545,90.06 10754.203,89.604 C10752.037,86.298 10749.529,83.8755 10746.679,82.3365 C10743.829,80.7975 10740.808,80.028 10737.616,80.028 C10734.424,80.028 10730.9185,81.1395 10727.0995,83.3625 C10723.2805,85.5855 10719.775,88.692 10716.583,92.682 C10709.629,101.346 10706.152,111.72 10706.152,123.804 C10706.152,132.582 10707.805,138.9375 10711.111,142.8705 C10714.417,146.8035 10718.749,148.77 10724.107,148.77 C10729.465,148.77 10734.7375,146.946 10739.9245,143.298 C10745.1115,139.65 10749.415,134.52 10752.835,127.908 C10756.711,120.384 10758.649,110.238 10758.649,97.47 C10758.649,94.392 10758.706,91.428 10758.82,88.578 Z M10747.876,27.36 C10747.99,27.36 10748.161,27.36 10748.389,27.36 C10749.985,27.702 10750.783,28.614 10750.783,30.096 C10750.783,30.78 10750.498,31.464 10749.928,32.148 L10728.211,57.798 C10727.413,58.71 10726.273,59.166 10724.791,59.166 C10723.309,59.166 10721.827,58.539 10720.345,57.285 C10718.863,56.031 10718.122,54.834 10718.122,53.694 C10718.122,52.896 10718.464,52.098 10719.148,51.3 L10745.653,28.215 C10746.337,27.645 10747.078,27.36 10747.876,27.36 Z" transform="translate(-10683 -5.584)"/></svg>