<svg xmlns="http://www.w3.org/2000/svg" width="102" height="152" viewBox="0 0 102 152"><path d="M12305.002,59.337 C12304.546,60.477 12303.805,61.047 12302.779,61.047 C12302.437,61.047 12302.0665,60.9615 12301.6675,60.7905 C12301.2685,60.6195 12300.214,59.508 12298.504,57.456 C12293.602,51.756 12286.648,44.802 12277.642,36.594 C12277.186,36.138 12276.958,35.625 12276.958,35.055 C12276.958,34.713 12277.015,34.371 12277.129,34.029 C12277.585,33.003 12279.01,32.034 12281.404,31.122 C12283.114,30.552 12284.425,30.267 12285.337,30.267 C12285.679,30.267 12285.964,30.324 12286.192,30.438 C12286.99,30.666 12287.56,31.008 12287.902,31.464 C12295.084,40.926 12300.67,49.419 12304.66,56.943 C12304.888,57.513 12305.002,58.026 12305.002,58.482 C12305.002,58.71 12305.002,58.995 12305.002,59.337 Z M12263.107,120.213 L12263.107,120.726 C12263.107,130.074 12265.2445,137.085 12269.5195,141.759 C12273.7945,146.433 12279.238,148.77 12285.85,148.77 C12292.462,148.77 12298.8175,147.4305 12304.9165,144.7515 C12311.0155,142.0725 12316.345,138.282 12320.905,133.38 C12322.273,131.898 12323.4415,131.157 12324.4105,131.157 C12325.3795,131.157 12325.864,131.6985 12325.864,132.7815 C12325.864,133.8645 12325.009,135.717 12323.299,138.339 C12321.589,140.961 12319.081,143.754 12315.775,146.718 C12307.453,153.786 12297.079,157.32 12284.653,157.32 C12278.839,157.32 12273.6235,155.8665 12269.0065,152.9595 C12264.3895,150.0525 12260.713,145.8915 12257.977,140.4765 C12255.241,135.0615 12253.873,128.649 12253.873,121.239 L12253.873,118.674 C12251.479,117.078 12250.282,115.368 12250.282,113.544 C12250.282,112.176 12251.251,111.492 12253.189,111.492 C12254.443,111.492 12255.07,111.435 12255.07,111.321 C12256.552,102.429 12261.226,93.822 12269.092,85.5 C12277.642,76.38 12287.104,71.82 12297.478,71.82 C12304.432,71.82 12309.961,73.017 12314.065,75.411 C12321.703,79.857 12325.522,86.868 12325.522,96.444 C12325.522,99.75 12325.123,102.486 12324.325,104.652 C12323.527,106.818 12321.9595,108.6705 12319.6225,110.2095 C12317.2855,111.7485 12313.723,113.259 12308.935,114.741 C12296.965,118.389 12282.373,120.213 12265.159,120.213 L12263.107,120.213 Z M12267.895,111.834 C12282.601,111.834 12294.97,110.352 12305.002,107.388 C12311.272,105.564 12314.806,103.512 12315.604,101.232 C12316.06,99.978 12316.288,98.325 12316.288,96.273 C12316.288,91.257 12314.635,87.2955 12311.329,84.3885 C12308.023,81.4815 12303.805,80.028 12298.675,80.028 C12293.545,80.028 12289.099,81.0825 12285.337,83.1915 C12281.575,85.3005 12278.269,88.008 12275.419,91.314 C12269.263,98.268 12265.558,105.108 12264.304,111.834 L12267.895,111.834 Z" transform="translate(-12239 -5.584)"/></svg>