<svg xmlns="http://www.w3.org/2000/svg" width="66" height="152" viewBox="0 0 66 152"><path d="M12536.194,27.36 C12536.308,27.36 12536.479,27.36 12536.707,27.36 C12538.303,27.702 12539.101,28.614 12539.101,30.096 C12539.101,30.78 12538.816,31.464 12538.246,32.148 L12516.529,57.798 C12515.731,58.71 12514.591,59.166 12513.109,59.166 C12511.627,59.166 12510.145,58.539 12508.663,57.285 C12507.181,56.031 12506.44,54.834 12506.44,53.694 C12506.44,52.896 12506.782,52.098 12507.466,51.3 L12533.971,28.215 C12534.655,27.645 12535.396,27.36 12536.194,27.36 Z M12517.897,151.677 L12518.239,136.629 L12518.239,91.656 L12517.726,73.359 C12517.726,72.447 12518.5525,71.991 12520.2055,71.991 C12521.8585,71.991 12523.5685,72.4185 12525.3355,73.2735 C12527.1025,74.1285 12527.986,75.183 12527.986,76.437 L12527.644,91.656 L12527.644,136.629 L12528.157,154.755 C12528.157,155.667 12527.359,156.123 12525.763,156.123 C12524.167,156.123 12522.457,155.6955 12520.633,154.8405 C12518.809,153.9855 12517.897,152.931 12517.897,151.677 Z" transform="translate(-12491 -5.584)"/></svg>