<svg xmlns="http://www.w3.org/2000/svg" width="102" height="152" viewBox="0 0 102 152"><path d="M13359.73,59.337 C13359.274,60.477 13358.533,61.047 13357.507,61.047 C13357.165,61.047 13356.7945,60.9615 13356.3955,60.7905 C13355.9965,60.6195 13354.942,59.508 13353.232,57.456 C13348.33,51.756 13341.376,44.802 13332.37,36.594 C13331.914,36.138 13331.686,35.625 13331.686,35.055 C13331.686,34.713 13331.743,34.371 13331.857,34.029 C13332.313,33.003 13333.738,32.034 13336.132,31.122 C13337.842,30.552 13339.153,30.267 13340.065,30.267 C13340.407,30.267 13340.692,30.324 13340.92,30.438 C13341.718,30.666 13342.288,31.008 13342.63,31.464 C13349.812,40.926 13355.398,49.419 13359.388,56.943 C13359.616,57.513 13359.73,58.026 13359.73,58.482 C13359.73,58.71 13359.73,58.995 13359.73,59.337 Z M13322.794,76.608 L13322.452,91.656 L13322.452,124.659 C13322.452,131.385 13323.763,137.085 13326.385,141.759 C13329.007,146.433 13332.997,148.77 13338.355,148.77 C13343.713,148.77 13348.8145,146.8035 13353.6595,142.8705 C13358.5045,138.9375 13362.58,133.494 13365.886,126.54 C13369.534,118.902 13371.472,108.756 13371.7,96.102 C13371.928,87.438 13372.042,81.738 13372.042,79.002 L13372.042,73.359 C13372.042,72.333 13372.897,71.82 13374.607,71.82 C13376.317,71.82 13378.027,72.219 13379.737,73.017 C13381.447,73.815 13382.302,74.841 13382.302,76.095 L13382.302,76.437 C13380.934,84.645 13380.25,94.905 13380.25,107.217 C13380.25,119.529 13380.7915,128.6775 13381.8745,134.6625 C13382.9575,140.6475 13384.582,145.35 13386.748,148.77 C13386.976,149.226 13387.09,149.8245 13387.09,150.5655 C13387.09,151.3065 13386.4915,152.475 13385.2945,154.071 C13384.0975,155.667 13382.7865,156.465 13381.3615,156.465 C13379.9365,156.465 13378.6825,155.5245 13377.5995,153.6435 C13376.5165,151.7625 13375.576,149.454 13374.778,146.718 C13373.182,140.562 13372.384,135.66 13372.384,132.012 C13368.622,140.106 13363.8055,146.3475 13357.9345,150.7365 C13352.0635,155.1255 13345.7365,157.32 13338.9535,157.32 C13332.1705,157.32 13326.898,155.781 13323.136,152.703 C13316.524,147.117 13313.218,137.997 13313.218,125.343 L13313.218,91.656 L13312.705,73.53 C13312.705,72.504 13313.5315,71.991 13315.1845,71.991 C13316.8375,71.991 13318.519,72.4185 13320.229,73.2735 C13321.939,74.1285 13322.794,75.24 13322.794,76.608 Z" transform="translate(-13297 -5.584)"/></svg>