<svg xmlns="http://www.w3.org/2000/svg" width="102" height="152" viewBox="0 0 102 152"><path d="M13040.473,27.36 C13040.587,27.36 13040.758,27.36 13040.986,27.36 C13042.582,27.702 13043.38,28.614 13043.38,30.096 C13043.38,30.78 13043.095,31.464 13042.525,32.148 L13020.808,57.798 C13020.01,58.71 13018.87,59.166 13017.388,59.166 C13015.906,59.166 13014.424,58.539 13012.942,57.285 C13011.46,56.031 13010.719,54.834 13010.719,53.694 C13010.719,52.896 13011.061,52.098 13011.745,51.3 L13038.25,28.215 C13038.934,27.645 13039.675,27.36 13040.473,27.36 Z M13001.314,76.608 L13000.972,91.656 L13000.972,124.659 C13000.972,131.385 13002.283,137.085 13004.905,141.759 C13007.527,146.433 13011.517,148.77 13016.875,148.77 C13022.233,148.77 13027.3345,146.8035 13032.1795,142.8705 C13037.0245,138.9375 13041.1,133.494 13044.406,126.54 C13048.054,118.902 13049.992,108.756 13050.22,96.102 C13050.448,87.438 13050.562,81.738 13050.562,79.002 L13050.562,73.359 C13050.562,72.333 13051.417,71.82 13053.127,71.82 C13054.837,71.82 13056.547,72.219 13058.257,73.017 C13059.967,73.815 13060.822,74.841 13060.822,76.095 L13060.822,76.437 C13059.454,84.645 13058.77,94.905 13058.77,107.217 C13058.77,119.529 13059.3115,128.6775 13060.3945,134.6625 C13061.4775,140.6475 13063.102,145.35 13065.268,148.77 C13065.496,149.226 13065.61,149.8245 13065.61,150.5655 C13065.61,151.3065 13065.0115,152.475 13063.8145,154.071 C13062.6175,155.667 13061.3065,156.465 13059.8815,156.465 C13058.4565,156.465 13057.2025,155.5245 13056.1195,153.6435 C13055.0365,151.7625 13054.096,149.454 13053.298,146.718 C13051.702,140.562 13050.904,135.66 13050.904,132.012 C13047.142,140.106 13042.3255,146.3475 13036.4545,150.7365 C13030.5835,155.1255 13024.2565,157.32 13017.4735,157.32 C13010.6905,157.32 13005.418,155.781 13001.656,152.703 C12995.044,147.117 12991.738,137.997 12991.738,125.343 L12991.738,91.656 L12991.225,73.53 C12991.225,72.504 12992.0515,71.991 12993.7045,71.991 C12995.3575,71.991 12997.039,72.4185 12998.749,73.2735 C13000.459,74.1285 13001.314,75.24 13001.314,76.608 Z" transform="translate(-12976 -5.584)"/></svg>