<svg xmlns="http://www.w3.org/2000/svg" width="102" height="152" viewBox="0 0 102 152"><path d="M14157.103,43.092 C14157.103,38.418 14159.326,36.081 14163.772,36.081 C14165.71,36.081 14167.5625,37.0785 14169.3295,39.0735 C14171.0965,41.0685 14171.98,43.149 14171.98,45.315 C14171.98,47.481 14171.3815,49.191 14170.1845,50.445 C14168.9875,51.699 14167.363,52.326 14165.311,52.326 C14163.259,52.326 14161.378,51.3 14159.668,49.248 C14157.958,47.196 14157.103,45.144 14157.103,43.092 Z M14127.52,43.092 C14127.52,38.418 14129.743,36.081 14134.189,36.081 C14136.127,36.081 14137.9795,37.0785 14139.7465,39.0735 C14141.5135,41.0685 14142.397,43.149 14142.397,45.315 C14142.397,47.481 14141.7985,49.191 14140.6015,50.445 C14139.4045,51.699 14137.78,52.326 14135.728,52.326 C14133.676,52.326 14131.795,51.3 14130.085,49.248 C14128.375,47.196 14127.52,45.144 14127.52,43.092 Z M14126.494,76.608 L14126.152,91.656 L14126.152,124.659 C14126.152,131.385 14127.463,137.085 14130.085,141.759 C14132.707,146.433 14136.697,148.77 14142.055,148.77 C14147.413,148.77 14152.486,146.832 14157.274,142.956 C14169.016,133.494 14175.058,117.876 14175.4,96.102 C14175.628,87.438 14175.742,81.738 14175.742,79.002 L14175.742,73.359 C14175.742,72.333 14176.597,71.82 14178.307,71.82 C14180.017,71.82 14181.727,72.219 14183.437,73.017 C14185.147,73.815 14186.002,74.841 14186.002,76.095 L14186.002,76.437 C14184.634,84.645 14183.95,94.905 14183.95,107.217 C14183.95,119.529 14184.4915,128.6775 14185.5745,134.6625 C14186.6575,140.6475 14188.282,145.35 14190.448,148.77 C14190.676,149.226 14190.79,149.8245 14190.79,150.5655 C14190.79,151.3065 14190.1915,152.475 14188.9945,154.071 C14187.7975,155.667 14186.458,156.465 14184.976,156.465 C14182.582,156.465 14180.5015,153.3015 14178.7345,146.9745 C14176.9675,140.6475 14176.084,135.66 14176.084,132.012 C14172.322,140.106 14167.5055,146.3475 14161.6345,150.7365 C14155.7635,155.1255 14149.4365,157.32 14142.6535,157.32 C14135.8705,157.32 14130.598,155.781 14126.836,152.703 C14120.224,147.117 14116.918,137.997 14116.918,125.343 L14116.918,91.656 L14116.405,73.53 C14116.405,72.504 14117.2315,71.991 14118.8845,71.991 C14120.5375,71.991 14122.219,72.4185 14123.929,73.2735 C14125.639,74.1285 14126.494,75.24 14126.494,76.608 Z" transform="translate(-14100 -5.584)"/></svg>