<svg xmlns="http://www.w3.org/2000/svg" width="102" height="152" viewBox="0 0 102 152"><path d="M11851.681,39.501 C11853.733,39.501 11854.759,40.926 11854.759,43.776 C11854.759,46.626 11853.676,48.051 11851.51,48.051 L11812.522,48.051 C11810.47,48.051 11809.444,46.626 11809.444,43.776 C11809.444,40.926 11810.527,39.501 11812.693,39.501 L11851.681,39.501 Z M11804.998,120.213 L11804.998,120.726 C11804.998,130.074 11807.1355,137.085 11811.4105,141.759 C11815.6855,146.433 11821.129,148.77 11827.741,148.77 C11834.353,148.77 11840.7085,147.4305 11846.8075,144.7515 C11852.9065,142.0725 11858.236,138.282 11862.796,133.38 C11864.164,131.898 11865.3325,131.157 11866.3015,131.157 C11867.2705,131.157 11867.755,131.6985 11867.755,132.7815 C11867.755,133.8645 11866.9,135.717 11865.19,138.339 C11863.48,140.961 11860.972,143.754 11857.666,146.718 C11849.344,153.786 11838.97,157.32 11826.544,157.32 C11820.73,157.32 11815.5145,155.8665 11810.8975,152.9595 C11806.2805,150.0525 11802.604,145.8915 11799.868,140.4765 C11797.132,135.0615 11795.764,128.649 11795.764,121.239 L11795.764,118.674 C11793.37,117.078 11792.173,115.368 11792.173,113.544 C11792.173,112.176 11792.971,111.492 11794.567,111.492 C11796.163,111.492 11796.961,111.435 11796.961,111.321 C11798.443,102.429 11803.288,93.6225 11811.496,84.9015 C11819.704,76.1805 11828.995,71.82 11839.369,71.82 C11846.323,71.82 11851.852,73.017 11855.956,75.411 C11863.594,79.857 11867.413,86.868 11867.413,96.444 C11867.413,99.75 11867.014,102.486 11866.216,104.652 C11865.418,106.818 11863.8505,108.6705 11861.5135,110.2095 C11859.1765,111.7485 11855.614,113.259 11850.826,114.741 C11838.856,118.389 11824.264,120.213 11807.05,120.213 L11804.998,120.213 Z M11809.786,111.834 C11824.492,111.834 11836.861,110.352 11846.893,107.388 C11853.163,105.564 11856.697,103.512 11857.495,101.232 C11857.951,99.978 11858.179,98.325 11858.179,96.273 C11858.179,91.257 11856.526,87.2955 11853.22,84.3885 C11849.914,81.4815 11845.696,80.028 11840.566,80.028 C11831.56,80.028 11823.8935,83.6475 11817.5665,90.8865 C11811.2395,98.1255 11807.449,105.108 11806.195,111.834 L11809.786,111.834 Z" transform="translate(-11781 -5.584)"/></svg>