<svg xmlns="http://www.w3.org/2000/svg" width="102" height="152" viewBox="0 0 102 152"><path d="M12139.474,46.341 C12147.34,41.211 12154.123,36.195 12159.823,31.293 C12160.393,30.723 12161.077,30.438 12161.875,30.438 C12163.585,30.438 12164.44,31.236 12164.44,32.832 C12164.44,33.972 12162.16,37.05 12157.6,42.066 C12153.04,47.082 12148.708,51.471 12144.604,55.233 C12143.236,56.601 12141.4975,57.285 12139.3885,57.285 C12137.2795,57.285 12135.655,56.772 12134.515,55.746 C12131.209,52.554 12127.0195,48.2505 12121.9465,42.8355 C12116.8735,37.4205 12114.337,34.0005 12114.337,32.5755 C12114.337,31.1505 12115.192,30.438 12116.902,30.438 C12117.7,30.438 12119.581,31.7205 12122.545,34.2855 C12125.509,36.8505 12131.152,40.869 12139.474,46.341 Z M12110.404,120.213 L12110.404,120.726 C12110.404,130.074 12112.5415,137.085 12116.8165,141.759 C12121.0915,146.433 12126.535,148.77 12133.147,148.77 C12139.759,148.77 12146.1145,147.4305 12152.2135,144.7515 C12158.3125,142.0725 12163.642,138.282 12168.202,133.38 C12169.57,131.898 12170.7385,131.157 12171.7075,131.157 C12172.6765,131.157 12173.161,131.6985 12173.161,132.7815 C12173.161,133.8645 12172.306,135.717 12170.596,138.339 C12168.886,140.961 12166.378,143.754 12163.072,146.718 C12154.75,153.786 12144.376,157.32 12131.95,157.32 C12126.136,157.32 12120.9205,155.8665 12116.3035,152.9595 C12111.6865,150.0525 12108.01,145.8915 12105.274,140.4765 C12102.538,135.0615 12101.17,128.649 12101.17,121.239 L12101.17,118.674 C12098.776,117.078 12097.579,115.368 12097.579,113.544 C12097.579,112.176 12098.377,111.492 12099.973,111.492 C12101.569,111.492 12102.367,111.435 12102.367,111.321 C12103.849,102.429 12108.694,93.6225 12116.902,84.9015 C12125.11,76.1805 12134.401,71.82 12144.775,71.82 C12151.729,71.82 12157.258,73.017 12161.362,75.411 C12169,79.857 12172.819,86.868 12172.819,96.444 C12172.819,99.75 12172.42,102.486 12171.622,104.652 C12170.824,106.818 12169.2565,108.6705 12166.9195,110.2095 C12164.5825,111.7485 12161.02,113.259 12156.232,114.741 C12144.262,118.389 12129.67,120.213 12112.456,120.213 L12110.404,120.213 Z M12115.192,111.834 C12129.898,111.834 12142.267,110.352 12152.299,107.388 C12158.569,105.564 12162.103,103.512 12162.901,101.232 C12163.357,99.978 12163.585,98.325 12163.585,96.273 C12163.585,91.257 12161.932,87.2955 12158.626,84.3885 C12155.32,81.4815 12151.102,80.028 12145.972,80.028 C12136.966,80.028 12129.2995,83.6475 12122.9725,90.8865 C12116.6455,98.1255 12112.855,105.108 12111.601,111.834 L12115.192,111.834 Z" transform="translate(-12087 -5.584)"/></svg>