<svg xmlns="http://www.w3.org/2000/svg" width="102" height="152" viewBox="0 0 102 152"><path d="M11228.899,39.501 C11230.951,39.501 11231.977,40.926 11231.977,43.776 C11231.977,46.626 11230.894,48.051 11228.728,48.051 L11189.74,48.051 C11187.688,48.051 11186.662,46.626 11186.662,43.776 C11186.662,40.926 11187.745,39.501 11189.911,39.501 L11228.899,39.501 Z M11194.015,79.002 C11200.399,74.214 11207.182,71.82 11214.364,71.82 C11224.054,71.82 11231.9485,75.411 11238.0475,82.593 C11244.1465,89.775 11247.196,99.465 11247.196,111.663 C11247.196,123.861 11243.5765,134.52 11236.3375,143.64 C11229.0985,152.76 11219.494,157.32 11207.524,157.32 C11195.554,157.32 11186.4625,153.9 11180.2495,147.06 C11174.0365,140.22 11170.93,130.929 11170.93,119.187 C11170.93,109.839 11173.78,100.32 11179.48,90.63 C11181.76,86.526 11184.0115,83.277 11186.2345,80.883 C11188.4575,78.489 11190.1675,77.292 11191.3645,77.292 C11192.5615,77.292 11193.445,77.862 11194.015,79.002 Z M11206.669,148.599 C11212.255,148.599 11217.4135,146.9745 11222.1445,143.7255 C11226.8755,140.4765 11230.666,136.1445 11233.516,130.7295 C11236.366,125.3145 11237.791,119.301 11237.791,112.689 C11237.791,103.113 11235.682,95.3325 11231.464,89.3475 C11227.246,83.3625 11221.204,80.37 11213.338,80.37 C11203.876,80.37 11196.01,84.588 11189.74,93.024 C11183.47,101.118 11180.335,109.839 11180.335,119.187 C11180.335,128.535 11182.672,135.774 11187.346,140.904 C11192.02,146.034 11198.461,148.599 11206.669,148.599 Z" transform="translate(-11159 -5.584)"/></svg>