<svg xmlns="http://www.w3.org/2000/svg" width="102" height="152" viewBox="0 0 102 152"><path d="M12884.179,39.501 C12886.231,39.501 12887.257,40.926 12887.257,43.776 C12887.257,46.626 12886.174,48.051 12884.008,48.051 L12845.02,48.051 C12842.968,48.051 12841.942,46.626 12841.942,43.776 C12841.942,40.926 12843.025,39.501 12845.191,39.501 L12884.179,39.501 Z M12840.574,76.608 L12840.232,91.656 L12840.232,124.659 C12840.232,131.385 12841.543,137.085 12844.165,141.759 C12846.787,146.433 12850.777,148.77 12856.135,148.77 C12861.493,148.77 12866.566,146.832 12871.354,142.956 C12883.096,133.494 12889.138,117.876 12889.48,96.102 C12889.708,87.438 12889.822,81.738 12889.822,79.002 L12889.822,73.359 C12889.822,72.333 12890.677,71.82 12892.387,71.82 C12894.097,71.82 12895.807,72.219 12897.517,73.017 C12899.227,73.815 12900.082,74.841 12900.082,76.095 L12900.082,76.437 C12898.714,84.645 12898.03,94.905 12898.03,107.217 C12898.03,119.529 12898.5715,128.6775 12899.6545,134.6625 C12900.7375,140.6475 12902.362,145.35 12904.528,148.77 C12904.756,149.226 12904.87,149.8245 12904.87,150.5655 C12904.87,151.3065 12904.2715,152.475 12903.0745,154.071 C12901.8775,155.667 12900.538,156.465 12899.056,156.465 C12896.662,156.465 12894.5815,153.3015 12892.8145,146.9745 C12891.0475,140.6475 12890.164,135.66 12890.164,132.012 C12886.402,140.106 12881.5855,146.3475 12875.7145,150.7365 C12869.8435,155.1255 12863.5165,157.32 12856.7335,157.32 C12849.9505,157.32 12844.678,155.781 12840.916,152.703 C12834.304,147.117 12830.998,137.997 12830.998,125.343 L12830.998,91.656 L12830.485,73.53 C12830.485,72.504 12831.3115,71.991 12832.9645,71.991 C12834.6175,71.991 12836.299,72.4185 12838.009,73.2735 C12839.719,74.1285 12840.574,75.24 12840.574,76.608 Z" transform="translate(-12816 -5.584)"/></svg>