<svg xmlns="http://www.w3.org/2000/svg" width="102" height="152" viewBox="0 0 102 152"><path d="M10896.304,46.341 C10904.17,41.211 10910.953,36.195 10916.653,31.293 C10917.223,30.723 10917.907,30.438 10918.705,30.438 C10920.415,30.438 10921.27,31.236 10921.27,32.832 C10921.27,33.972 10918.99,37.05 10914.43,42.066 C10909.87,47.082 10905.538,51.471 10901.434,55.233 C10900.066,56.601 10898.3275,57.285 10896.2185,57.285 C10894.1095,57.285 10892.485,56.772 10891.345,55.746 C10888.039,52.554 10883.8495,48.2505 10878.7765,42.8355 C10873.7035,37.4205 10871.167,34.0005 10871.167,32.5755 C10871.167,31.1505 10872.022,30.438 10873.732,30.438 C10874.53,30.438 10876.411,31.7205 10879.375,34.2855 C10882.339,36.8505 10887.982,40.869 10896.304,46.341 Z M10927.939,76.437 C10926.457,86.583 10925.716,101.46 10925.716,121.068 C10925.716,133.266 10927.711,142.5 10931.701,148.77 C10931.929,149.226 10932.043,149.853 10932.043,150.651 C10932.043,151.449 10931.4445,152.6175 10930.2475,154.1565 C10929.0505,155.6955 10927.768,156.465 10926.4,156.465 C10923.892,156.465 10921.6975,153.5865 10919.8165,147.8295 C10917.9355,142.0725 10916.881,137.142 10916.653,133.038 C10912.549,141.36 10907.3335,147.4875 10901.0065,151.4205 C10894.6795,155.3535 10887.8395,157.32 10880.4865,157.32 C10873.1335,157.32 10866.9775,154.5555 10862.0185,149.0265 C10857.0595,143.4975 10854.58,135.375 10854.58,124.659 C10854.58,110.637 10859.026,98.211 10867.918,87.381 C10872.022,82.479 10876.5535,78.66 10881.5125,75.924 C10886.4715,73.188 10891.2595,71.82 10895.8765,71.82 C10900.4935,71.82 10904.7115,72.846 10908.5305,74.898 C10912.3495,76.95 10915.171,80.142 10916.995,84.474 C10917.223,79.23 10917.337,75.525 10917.337,73.359 C10917.337,72.333 10918.2205,71.82 10919.9875,71.82 C10921.7545,71.82 10923.5215,72.219 10925.2885,73.017 C10927.0555,73.815 10927.939,74.841 10927.939,76.095 L10927.939,76.437 Z M10916.995,88.578 C10916.425,89.718 10915.5985,90.288 10914.5155,90.288 C10913.4325,90.288 10912.72,90.06 10912.378,89.604 C10908.16,83.22 10902.631,80.028 10895.791,80.028 C10892.599,80.028 10889.0935,81.1395 10885.2745,83.3625 C10881.4555,85.5855 10877.95,88.692 10874.758,92.682 C10867.804,101.346 10864.327,111.72 10864.327,123.804 C10864.327,132.582 10865.98,138.9375 10869.286,142.8705 C10872.592,146.8035 10876.924,148.77 10882.282,148.77 C10887.64,148.77 10892.9125,146.946 10898.0995,143.298 C10903.2865,139.65 10907.704,134.292 10911.352,127.224 C10915,120.156 10916.824,110.238 10916.824,97.47 C10916.824,94.392 10916.881,91.428 10916.995,88.578 Z" transform="translate(-10842 -5.584)"/></svg>