<svg xmlns="http://www.w3.org/2000/svg" width="66" height="152" viewBox="0 0 66 152"><path d="M12627.679,46.341 C12635.545,41.211 12642.328,36.195 12648.028,31.293 C12648.598,30.723 12649.282,30.438 12650.08,30.438 C12651.79,30.438 12652.645,31.236 12652.645,32.832 C12652.645,33.972 12650.365,37.05 12645.805,42.066 C12641.245,47.082 12636.913,51.471 12632.809,55.233 C12631.441,56.601 12629.7025,57.285 12627.5935,57.285 C12625.4845,57.285 12623.86,56.772 12622.72,55.746 C12618.73,51.87 12614.3695,47.3955 12609.6385,42.3225 C12604.9075,37.2495 12602.542,34.0005 12602.542,32.5755 C12602.542,31.1505 12603.397,30.438 12605.107,30.438 C12605.905,30.438 12607.786,31.7205 12610.75,34.2855 C12613.714,36.8505 12619.357,40.869 12627.679,46.341 Z M12622.72,151.677 L12623.062,136.629 L12623.062,91.656 L12622.549,73.359 C12622.549,72.447 12623.3755,71.991 12625.0285,71.991 C12626.6815,71.991 12628.3915,72.4185 12630.1585,73.2735 C12631.9255,74.1285 12632.809,75.183 12632.809,76.437 L12632.467,91.656 L12632.467,136.629 L12632.98,154.755 C12632.98,155.667 12632.182,156.123 12630.586,156.123 C12628.99,156.123 12627.28,155.6955 12625.456,154.8405 C12623.632,153.9855 12622.72,152.931 12622.72,151.677 Z" transform="translate(-12595 -5.584)"/></svg>