<svg xmlns="http://www.w3.org/2000/svg" width="102" height="152" viewBox="0 0 102 152"><path d="M11521.48,46.341 C11529.346,41.211 11536.129,36.195 11541.829,31.293 C11542.399,30.723 11543.083,30.438 11543.881,30.438 C11545.591,30.438 11546.446,31.236 11546.446,32.832 C11546.446,33.972 11544.166,37.05 11539.606,42.066 C11535.046,47.082 11530.714,51.471 11526.61,55.233 C11525.242,56.601 11523.5035,57.285 11521.3945,57.285 C11519.2855,57.285 11517.661,56.772 11516.521,55.746 C11513.215,52.554 11509.0255,48.2505 11503.9525,42.8355 C11498.8795,37.4205 11496.343,34.0005 11496.343,32.5755 C11496.343,31.1505 11497.198,30.438 11498.908,30.438 C11499.706,30.438 11501.587,31.7205 11504.551,34.2855 C11507.515,36.8505 11513.158,40.869 11521.48,46.341 Z M11505.919,79.002 C11512.303,74.214 11519.086,71.82 11526.268,71.82 C11535.958,71.82 11543.8525,75.411 11549.9515,82.593 C11556.0505,89.775 11559.1,99.465 11559.1,111.663 C11559.1,123.861 11555.4805,134.52 11548.2415,143.64 C11541.0025,152.76 11531.398,157.32 11519.428,157.32 C11507.458,157.32 11498.3665,153.9 11492.1535,147.06 C11485.9405,140.22 11482.834,130.929 11482.834,119.187 C11482.834,109.839 11485.684,100.32 11491.384,90.63 C11493.664,86.526 11495.9155,83.277 11498.1385,80.883 C11500.3615,78.489 11502.0715,77.292 11503.2685,77.292 C11504.4655,77.292 11505.349,77.862 11505.919,79.002 Z M11518.573,148.599 C11524.159,148.599 11529.3175,146.9745 11534.0485,143.7255 C11538.7795,140.4765 11542.57,136.1445 11545.42,130.7295 C11548.27,125.3145 11549.695,119.301 11549.695,112.689 C11549.695,103.113 11547.586,95.3325 11543.368,89.3475 C11539.15,83.3625 11533.108,80.37 11525.242,80.37 C11515.78,80.37 11507.914,84.588 11501.644,93.024 C11495.374,101.118 11492.239,109.839 11492.239,119.187 C11492.239,128.535 11494.576,135.774 11499.25,140.904 C11503.924,146.034 11510.365,148.599 11518.573,148.599 Z" transform="translate(-11470 -5.584)"/></svg>