<svg xmlns="http://www.w3.org/2000/svg" width="102" height="152" viewBox="0 0 102 152"><path d="M13484.731,76.608 L13484.389,91.656 L13484.389,124.659 C13484.389,131.385 13485.643,136.9995 13488.151,141.5025 C13490.659,146.0055 13494.364,148.257 13499.266,148.257 C13504.168,148.257 13509.013,146.319 13513.801,142.443 C13518.475,138.567 13522.6075,132.9525 13526.1985,125.5995 C13529.7895,118.2465 13531.585,108.414 13531.585,96.102 L13531.585,73.359 C13531.585,72.789 13532.497,72.504 13534.321,72.504 C13536.145,72.504 13537.969,72.846 13539.793,73.53 C13541.617,74.214 13542.529,75.069 13542.529,76.095 L13542.529,76.437 C13541.161,84.645 13540.477,96.9855 13540.477,113.4585 C13540.477,129.9315 13542.7,141.759 13547.146,148.941 L13547.146,150.138 C13547.146,150.822 13546.462,151.962 13545.094,153.558 C13543.726,155.154 13542.301,155.952 13540.819,155.952 C13538.425,155.952 13536.544,153.558 13535.176,148.77 C13533.808,143.982 13532.953,139.422 13532.611,135.09 L13532.44,131.841 L13531.072,134.748 C13527.994,140.904 13523.6335,146.1195 13517.9905,150.3945 C13512.3475,154.6695 13506.22,156.807 13499.608,156.807 C13492.996,156.807 13487.923,155.325 13484.389,152.361 C13477.777,147.003 13474.471,137.997 13474.471,125.343 L13474.471,91.656 L13473.958,73.53 C13473.958,72.96 13474.813,72.675 13476.523,72.675 C13478.233,72.675 13480.0285,73.0455 13481.9095,73.7865 C13483.7905,74.5275 13484.731,75.468 13484.731,76.608 Z M13500.463,48.564 C13500.463,50.844 13499.836,52.6395 13498.582,53.9505 C13497.328,55.2615 13495.618,55.917 13493.452,55.917 C13491.286,55.917 13489.3195,54.834 13487.5525,52.668 C13485.7855,50.502 13484.902,48.336 13484.902,46.17 C13484.902,44.004 13485.5005,42.2655 13486.6975,40.9545 C13487.8945,39.6435 13489.576,38.988 13491.742,38.988 C13493.908,38.988 13495.903,40.014 13497.727,42.066 C13499.551,44.118 13500.463,46.284 13500.463,48.564 Z M13531.756,48.564 C13531.756,50.844 13531.129,52.6395 13529.875,53.9505 C13528.621,55.2615 13526.911,55.917 13524.745,55.917 C13522.579,55.917 13520.6125,54.834 13518.8455,52.668 C13517.0785,50.502 13516.195,48.336 13516.195,46.17 C13516.195,44.004 13516.7935,42.2655 13517.9905,40.9545 C13519.1875,39.6435 13520.869,38.988 13523.035,38.988 C13525.201,38.988 13527.196,40.014 13529.02,42.066 C13530.844,44.118 13531.756,46.284 13531.756,48.564 Z M13526.968,12.483 C13528.45,12.483 13529.191,13.965 13529.191,16.929 C13529.191,19.893 13528.393,21.375 13526.797,21.375 L13487.809,21.375 C13486.327,21.375 13485.586,19.893 13485.586,16.929 C13485.586,13.965 13486.384,12.483 13487.98,12.483 L13526.968,12.483 Z" transform="translate(-13457 -5.584)"/></svg>