<svg xmlns="http://www.w3.org/2000/svg" width="102" height="152" viewBox="0 0 102 152"><path d="M13683.433,0 C13683.547,0 13683.718,0 13683.946,0 C13685.542,0.342 13686.34,1.254 13686.34,2.736 C13686.34,3.42 13686.055,4.104 13685.485,4.788 L13663.768,30.438 C13662.97,31.35 13661.83,31.806 13660.348,31.806 C13658.866,31.806 13657.384,31.179 13655.902,29.925 C13654.42,28.671 13653.679,27.474 13653.679,26.334 C13653.679,25.536 13654.021,24.738 13654.705,23.94 L13681.21,0.855 C13681.894,0.285 13682.635,0 13683.433,0 Z M13645.471,76.608 L13645.129,91.656 L13645.129,124.659 C13645.129,131.385 13646.383,136.9995 13648.891,141.5025 C13651.399,146.0055 13655.104,148.257 13660.006,148.257 C13664.908,148.257 13669.753,146.319 13674.541,142.443 C13679.215,138.567 13683.3475,132.9525 13686.9385,125.5995 C13690.5295,118.2465 13692.325,108.414 13692.325,96.102 L13692.325,73.359 C13692.325,72.789 13693.237,72.504 13695.061,72.504 C13696.885,72.504 13698.709,72.846 13700.533,73.53 C13702.357,74.214 13703.269,75.069 13703.269,76.095 L13703.269,76.437 C13701.901,84.645 13701.217,96.9855 13701.217,113.4585 C13701.217,129.9315 13703.44,141.759 13707.886,148.941 L13707.886,150.138 C13707.886,150.822 13707.202,151.962 13705.834,153.558 C13704.466,155.154 13703.041,155.952 13701.559,155.952 C13699.165,155.952 13697.284,153.558 13695.916,148.77 C13694.548,143.982 13693.693,139.422 13693.351,135.09 L13693.18,131.841 L13691.812,134.748 C13688.734,140.904 13684.3735,146.1195 13678.7305,150.3945 C13673.0875,154.6695 13666.96,156.807 13660.348,156.807 C13653.736,156.807 13648.663,155.325 13645.129,152.361 C13638.517,147.003 13635.211,137.997 13635.211,125.343 L13635.211,91.656 L13634.698,73.53 C13634.698,72.96 13635.553,72.675 13637.263,72.675 C13638.973,72.675 13640.7685,73.0455 13642.6495,73.7865 C13644.5305,74.5275 13645.471,75.468 13645.471,76.608 Z M13661.203,48.564 C13661.203,50.844 13660.576,52.6395 13659.322,53.9505 C13658.068,55.2615 13656.358,55.917 13654.192,55.917 C13652.026,55.917 13650.0595,54.834 13648.2925,52.668 C13646.5255,50.502 13645.642,48.336 13645.642,46.17 C13645.642,44.004 13646.2405,42.2655 13647.4375,40.9545 C13648.6345,39.6435 13650.316,38.988 13652.482,38.988 C13654.648,38.988 13656.643,40.014 13658.467,42.066 C13660.291,44.118 13661.203,46.284 13661.203,48.564 Z M13692.496,48.564 C13692.496,50.844 13691.869,52.6395 13690.615,53.9505 C13689.361,55.2615 13687.651,55.917 13685.485,55.917 C13683.319,55.917 13681.3525,54.834 13679.5855,52.668 C13677.8185,50.502 13676.935,48.336 13676.935,46.17 C13676.935,44.004 13677.5335,42.2655 13678.7305,40.9545 C13679.9275,39.6435 13681.609,38.988 13683.775,38.988 C13685.941,38.988 13687.936,40.014 13689.76,42.066 C13691.584,44.118 13692.496,46.284 13692.496,48.564 Z" transform="translate(-13618 -5.584)"/></svg>