<svg xmlns="http://www.w3.org/2000/svg" width="102" height="152" viewBox="0 0 102 152"><path d="M13966.951,76.608 L13966.609,91.656 L13966.609,124.659 C13966.609,131.385 13967.863,136.9995 13970.371,141.5025 C13972.879,146.0055 13976.584,148.257 13981.486,148.257 C13986.388,148.257 13991.233,146.319 13996.021,142.443 C14000.695,138.567 14004.8275,132.9525 14008.4185,125.5995 C14012.0095,118.2465 14013.805,108.414 14013.805,96.102 L14013.805,73.359 C14013.805,72.789 14014.717,72.504 14016.541,72.504 C14018.365,72.504 14020.189,72.846 14022.013,73.53 C14023.837,74.214 14024.749,75.069 14024.749,76.095 L14024.749,76.437 C14023.381,84.645 14022.697,96.9855 14022.697,113.4585 C14022.697,129.9315 14024.92,141.759 14029.366,148.941 L14029.366,150.138 C14029.366,150.822 14028.682,151.962 14027.314,153.558 C14025.946,155.154 14024.521,155.952 14023.039,155.952 C14020.645,155.952 14018.764,153.558 14017.396,148.77 C14016.028,143.982 14015.173,139.422 14014.831,135.09 L14014.66,131.841 L14013.292,134.748 C14010.214,140.904 14005.8535,146.1195 14000.2105,150.3945 C13994.5675,154.6695 13988.44,156.807 13981.828,156.807 C13975.216,156.807 13970.143,155.325 13966.609,152.361 C13959.997,147.003 13956.691,137.997 13956.691,125.343 L13956.691,91.656 L13956.178,73.53 C13956.178,72.96 13957.033,72.675 13958.743,72.675 C13960.453,72.675 13962.2485,73.0455 13964.1295,73.7865 C13966.0105,74.5275 13966.951,75.468 13966.951,76.608 Z M13982.683,48.564 C13982.683,50.844 13982.056,52.6395 13980.802,53.9505 C13979.548,55.2615 13977.838,55.917 13975.672,55.917 C13973.506,55.917 13971.5395,54.834 13969.7725,52.668 C13968.0055,50.502 13967.122,48.336 13967.122,46.17 C13967.122,44.004 13967.7205,42.2655 13968.9175,40.9545 C13970.1145,39.6435 13971.796,38.988 13973.962,38.988 C13976.128,38.988 13978.123,40.014 13979.947,42.066 C13981.771,44.118 13982.683,46.284 13982.683,48.564 Z M14013.976,48.564 C14013.976,50.844 14013.349,52.6395 14012.095,53.9505 C14010.841,55.2615 14009.131,55.917 14006.965,55.917 C14004.799,55.917 14002.8325,54.834 14001.0655,52.668 C13999.2985,50.502 13998.415,48.336 13998.415,46.17 C13998.415,44.004 13999.0135,42.2655 14000.2105,40.9545 C14001.4075,39.6435 14003.089,38.988 14005.255,38.988 C14007.421,38.988 14009.416,40.014 14011.24,42.066 C14013.064,44.118 14013.976,46.284 14013.976,48.564 Z M13990.207,4.788 C14001.949,21.318 14007.535,30.438 14006.965,32.148 C14006.623,32.832 14006.281,33.288 14005.939,33.516 C14005.597,33.63 14005.141,33.63 14004.571,33.516 C14004.001,33.288 14002.861,32.148 14001.151,30.096 C13999.555,28.158 13996.534,25.308 13992.088,21.546 C13987.87,17.442 13983.31,13.68 13978.408,10.26 C13977.952,10.032 13977.838,9.576 13978.066,8.892 C13978.294,8.208 13979.1775,7.467 13980.7165,6.669 C13982.2555,5.871 13983.937,5.244 13985.761,4.788 C13987.471,4.332 13988.611,4.218 13989.181,4.446 L13990.207,4.788 Z" transform="translate(-13940 -5.584)"/></svg>